$MeshFormat
4.1 0 8
$EndMeshFormat
$Entities
9 10 2 0
1 0 0 0 0 
2 0 50 0 0 
3 10 50 0 0 
4 10 40 0 0 
5 20 40 0 0 
6 20 50 0 0 
7 30 50 0 0 
8 30 0 0 0 
10 0 -50 6.123233995736766e-15 0 
1 0 0 0 0 50 0 0 2 1 -2 
2 0 50 0 10 50 0 0 2 2 -3 
3 10 40 0 10 50 0 0 2 3 -4 
4 10 40 0 20 40 0 0 2 4 -5 
5 20 40 0 20 50 0 0 2 5 -6 
6 20 50 0 30 50 0 0 2 6 -7 
7 30 0 0 30 50 0 0 2 7 -8 
8 0 0 0 30 0 0 0 2 8 -1 
9 0 -50 0 0 0 6.123233995736766e-15 0 2 1 -10 
10 -49.2403876506104 -50 0 0 50 0 0 2 2 -10 
1 0 0 0 30 50 0 0 8 1 2 3 4 5 6 7 8 
11 -49.2403876506104 -50 0 0 50 6.123233995736766e-15 0 3 1 10 -9 
$EndEntities
$Nodes
21 193 1 193
0 1 0 1
1
0 0 0
0 2 0 1
2
0 50 0
0 3 0 1
3
10 50 0
0 4 0 1
4
10 40 0
0 5 0 1
5
20 40 0
0 6 0 1
6
20 50 0
0 7 0 1
7
30 50 0
0 8 0 1
8
30 0 0
0 10 0 1
9
0 -50 6.123233995736766e-15
1 1 0 24
10
11
12
13
14
15
16
17
18
19
20
21
22
23
24
25
26
27
28
29
30
31
32
33
0 1.999999999992026 0
0 3.999999999984199 0
0 5.999999999977311 0
0 7.99999999996744 0
0 9.99999999995706 0
0 11.99999999994668 0
0 13.99999999993629 0
0 15.99999999992658 0
0 17.99999999992327 0
0 19.99999999991999 0
0 21.99999999991671 0
0 23.99999999991343 0
0 25.99999999991016 0
0 27.99999999990688 0
0 29.9999999999036 0
0 31.9999999999016 0
0 33.99999999991243 0
0 35.99999999992338 0
0 37.99999999993432 0
0 39.99999999994527 0
0 41.99999999995622 0
0 43.99999999996716 0
0 45.9999999999781 0
0 47.99999999998904 0
1 2 0 4
34
35
36
37
1.999999999996827 50 0
3.999999999991027 50 0
5.999999999993932 50 0
7.999999999996978 50 0
1 3 0 4
38
39
40
41
10 48 0
10 46 0
10 44 0
10 42 0
1 4 0 4
42
43
44
45
12 40 0
14.00000000000001 40 0
16.00000000000001 40 0
18.00000000000002 40 0
1 5 0 4
46
47
48
49
20 42 0
20 44 0
20 46 0
20 48 0
1 6 0 4
50
51
52
53
22 50 0
24.00000000000001 50 0
26.00000000000001 50 0
28.00000000000002 50 0
1 7 0 24
54
55
56
57
58
59
60
61
62
63
64
65
66
67
68
69
70
71
72
73
74
75
76
77
30 48.00000000001421 0
30 46.00000000002843 0
30 44.00000000004264 0
30 42.00000000005685 0
30 40.00000000007106 0
30 38.00000000008528 0
30 36.00000000009949 0
30 34.0000000001137 0
30 32.00000000012781 0
30 30.00000000012908 0
30 28.00000000012909 0
30 26.0000000001291 0
30 24.00000000012911 0
30 22.00000000012911 0
30 20.00000000012911 0
30 18.00000000012785 0
30 16.00000000011374 0
30 14.00000000009953 0
30 12.0000000000853 0
30 10.00000000007108 0
30 8.000000000056872 0
30 6.000000000042654 0
30 4.000000000028429 0
30 2.000000000014218 0
1 8 0 14
78
79
80
81
82
83
84
85
86
87
88
89
90
91
27.99999999999496 0 0
25.99999999998992 0 0
23.99999999998488 0 0
21.99999999998003 0 0
19.99999999999747 0 0
18.00000000001612 0 0
16.00000000003426 0 0
14.00000000003532 0 0
12.00000000003028 0 0
10.00000000002523 0 0
8.000000000020183 0 0
6.000000000015138 0 0
4.00000000001009 0 0
2.000000000005041 0 0
1 9 0 24
92
93
94
95
96
97
98
99
100
101
102
103
104
105
106
107
108
109
110
111
112
113
114
115
0 -1.999999999992026 2.449293598284941e-16
0 -3.999999999984199 4.898587196570063e-16
0 -5.999999999977311 7.347880794856333e-16
0 -7.99999999996744 9.797174393138951e-16
0 -9.99999999995706 1.224646799142095e-15
0 -11.99999999994668 1.469576158970294e-15
0 -13.99999999993629 1.714505518798493e-15
0 -15.99999999992658 1.959434878626774e-15
0 -17.99999999992327 2.204364238455839e-15
0 -19.99999999991999 2.449293598284908e-15
0 -21.99999999991671 2.694222958113978e-15
0 -23.99999999991343 2.939152317943046e-15
0 -25.99999999991016 3.184081677772116e-15
0 -27.99999999990688 3.429011037601185e-15
0 -29.9999999999036 3.673940397430254e-15
0 -31.9999999999016 3.91886975725948e-15
0 -33.99999999991243 4.163799117090277e-15
0 -35.99999999992338 4.408728476921088e-15
0 -37.99999999993432 4.6536578367519e-15
0 -39.99999999994527 4.898587196582711e-15
0 -41.99999999995622 5.143516556413521e-15
0 -43.99999999996716 5.388445916244332e-15
0 -45.9999999999781 5.633375276075143e-15
0 -47.99999999998904 5.878304635905954e-15
1 10 0 78
116
117
118
119
120
121
122
123
124
125
126
127
128
129
130
131
132
133
134
135
136
137
138
139
140
141
142
143
144
145
146
147
148
149
150
151
152
153
154
155
156
157
158
159
160
161
162
163
164
165
166
167
168
169
170
171
172
173
174
175
176
177
178
179
180
181
182
183
184
185
186
187
188
189
190
191
192
193
-1.987825760072947 49.96046986115714 0
-3.972508358930384 49.8419419499103 0
-5.950909605233131 49.64460368328409 0
-7.919901239567599 49.36876709373544 0
-9.876369881593918 49.01486833565856 0
-11.81722195448691 48.58346699524842 0
-13.73938857067484 48.07524520690466 0
-15.6398303896173 47.49100657370828 0
-17.51554242233352 46.8316748969267 0
-19.36355878137955 46.09829271589197 0
-21.18095737482654 45.29201965783577 0
-22.96486451999143 44.41413060703135 0
-24.71245949242907 43.46601368696067 0
-26.42097898983821 42.44916806273744 0
-28.08772148493552 41.36520158037057 0
-29.71005152081045 40.21582821018098 0
-31.28540386036576 39.0028653472256 0
-32.81128754216726 37.7282309395129 0
-34.28528983529276 36.39394044219409 0
-35.7050800364627 35.0021036452067 0
-37.06841316762966 33.55492132659381 0
-38.37313351748059 32.05468178050763 0
-39.61717805438072 30.50375719493412 0
-40.7985796905426 28.90459989749806 0
-41.9154703853013 27.25973848698718 0
-42.96608410633828 25.57177382519767 0
-43.94875961626107 23.84337493292635 0
-44.86194310346347 22.07727476346675 0
-45.7041906361783 20.27626588629849 0
-46.47417044973911 18.44319606273805 0
-47.17066504643164 16.58096375598695 0
-47.79257312578727 14.69251353636525 0
-48.33891132325012 12.78083143159947 0
-48.80881576481601 10.84894020797644 0
-49.20154343585166 8.899894579712885 0
-49.51647335317311 6.936776388532155 0
-49.75310754795067 4.962689726554963 0
-49.91107185264256 2.98075603167233 0
-49.99011649313891 0.9941091501442078 0
-49.99011648388653 -0.9941096154127305 0
-49.91107182550533 -2.980756486069926 0
-49.75310750394593 -4.962690167721452 0
-49.51647329337162 -6.936776815410374 0
-49.20154336086902 -8.899894994241532 0
-48.80881567605256 -10.84894060731857 0
-48.33891122116349 -12.78083181770554 0
-47.79257301248862 -14.69251390490899 0
-47.17066492269491 -16.58096410800168 0
-46.4741703157807 -18.44319640029375 0
-45.70419049427421 -20.27626620616071 0
-44.86194295342099 -22.07727506835933 0
-43.94875946026367 -23.843375220465 0
-42.96608394657667 -25.57177409363157 0
-41.91547022251741 -27.25973873728903 0
-40.79857952135507 -28.90460013630473 0
-39.61717788326766 -30.50375741716957 0
-38.37313334561448 -32.05468198625109 0
-37.06841299506966 -33.55492151722234 0
-35.70507986685909 -35.0021038182166 0
-34.28528966919963 -36.39394059866386 0
-32.81128737966715 -37.72823108083515 0
-31.28540369959898 -39.0028654761816 0
-29.71005136856052 -40.21582832265792 0
-28.08772133957788 -41.36520167907103 0
-26.42097884439208 -42.44916815326522 0
-24.71245935803136 -43.46601376337205 0
-22.9648643939418 -44.41413067220684 0
-21.18095725425621 -45.29201971422086 0
-19.36355867134399 -46.09829276211234 0
-17.5155423234505 -46.83167493391 0
-15.63983030158347 -47.49100660269976 0
-13.73938849338377 -48.07524522899362 0
-11.81722189024546 -48.58346701087422 0
-9.876369825027826 -49.01486834705648 0
-7.919901190743706 -49.36876710156793 0
-5.950909568917489 -49.64460368763725 0
-3.972508335630484 -49.84194195176735 0
-1.987825746740308 -49.96046986168761 0
2 1 0 0
2 11 0 0
$EndNodes
$Elements
19 203 1 203
0 1 15 1
1 1 
0 2 15 1
2 2 
0 3 15 1
3 3 
0 4 15 1
4 4 
0 5 15 1
5 5 
0 6 15 1
6 6 
0 7 15 1
7 7 
0 8 15 1
8 8 
0 10 15 1
9 9 
1 1 1 25
10 1 10 
11 10 11 
12 11 12 
13 12 13 
14 13 14 
15 14 15 
16 15 16 
17 16 17 
18 17 18 
19 18 19 
20 19 20 
21 20 21 
22 21 22 
23 22 23 
24 23 24 
25 24 25 
26 25 26 
27 26 27 
28 27 28 
29 28 29 
30 29 30 
31 30 31 
32 31 32 
33 32 33 
34 33 2 
1 2 1 5
35 2 34 
36 34 35 
37 35 36 
38 36 37 
39 37 3 
1 3 1 5
40 3 38 
41 38 39 
42 39 40 
43 40 41 
44 41 4 
1 4 1 5
45 4 42 
46 42 43 
47 43 44 
48 44 45 
49 45 5 
1 5 1 5
50 5 46 
51 46 47 
52 47 48 
53 48 49 
54 49 6 
1 6 1 5
55 6 50 
56 50 51 
57 51 52 
58 52 53 
59 53 7 
1 7 1 25
60 7 54 
61 54 55 
62 55 56 
63 56 57 
64 57 58 
65 58 59 
66 59 60 
67 60 61 
68 61 62 
69 62 63 
70 63 64 
71 64 65 
72 65 66 
73 66 67 
74 67 68 
75 68 69 
76 69 70 
77 70 71 
78 71 72 
79 72 73 
80 73 74 
81 74 75 
82 75 76 
83 76 77 
84 77 8 
1 8 1 15
85 8 78 
86 78 79 
87 79 80 
88 80 81 
89 81 82 
90 82 83 
91 83 84 
92 84 85 
93 85 86 
94 86 87 
95 87 88 
96 88 89 
97 89 90 
98 90 91 
99 91 1 
1 9 1 25
100 1 92 
101 92 93 
102 93 94 
103 94 95 
104 95 96 
105 96 97 
106 97 98 
107 98 99 
108 99 100 
109 100 101 
110 101 102 
111 102 103 
112 103 104 
113 104 105 
114 105 106 
115 106 107 
116 107 108 
117 108 109 
118 109 110 
119 110 111 
120 111 112 
121 112 113 
122 113 114 
123 114 115 
124 115 9 
1 10 1 79
125 2 116 
126 116 117 
127 117 118 
128 118 119 
129 119 120 
130 120 121 
131 121 122 
132 122 123 
133 123 124 
134 124 125 
135 125 126 
136 126 127 
137 127 128 
138 128 129 
139 129 130 
140 130 131 
141 131 132 
142 132 133 
143 133 134 
144 134 135 
145 135 136 
146 136 137 
147 137 138 
148 138 139 
149 139 140 
150 140 141 
151 141 142 
152 142 143 
153 143 144 
154 144 145 
155 145 146 
156 146 147 
157 147 148 
158 148 149 
159 149 150 
160 150 151 
161 151 152 
162 152 153 
163 153 154 
164 154 155 
165 155 156 
166 156 157 
167 157 158 
168 158 159 
169 159 160 
170 160 161 
171 161 162 
172 162 163 
173 163 164 
174 164 165 
175 165 166 
176 166 167 
177 167 168 
178 168 169 
179 169 170 
180 170 171 
181 171 172 
182 172 173 
183 173 174 
184 174 175 
185 175 176 
186 176 177 
187 177 178 
188 178 179 
189 179 180 
190 180 181 
191 181 182 
192 182 183 
193 183 184 
194 184 185 
195 185 186 
196 186 187 
197 187 188 
198 188 189 
199 189 190 
200 190 191 
201 191 192 
202 192 193 
203 193 9 
$EndElements
