# vtk DataFile Version 2.0
, Created by Gmsh 4.11.1 
ASCII
DATASET UNSTRUCTURED_GRID
POINTS 509 double
8.75 0 -43.17212580254041
11.57359666873795 0 -41.86287787305692
11.57359666873795 0 -38.13712212694308
8.75 0 -36.82787419745959
8.75 0 -3
11.75 0 -3
11.75 0 0
-11.75 0 0
-11.75 0 -3
-8.75 0 -3
-8.75 1.071565949253934e-15 -36.82787419745959
-11.57359666873795 1.41735681149924e-15 -38.13712212694308
-11.57359666873795 1.41735681149924e-15 -41.86287787305692
-8.75 1.071565949253934e-15 -43.17212580254041
-8.75 1.071565949253934e-15 -76.82787419745959
-11.57359666873795 1.41735681149924e-15 -78.13712212694307
-11.57359666873795 1.41735681149924e-15 -81.86287787305693
-8.75 1.071565949253934e-15 -83.17212580254041
-8.75 0 -120
8.75 0 -120
8.75 0 -83.17212580254041
11.57359666873795 0 -81.86287787305693
11.57359666873795 0 -78.13712212694307
8.75 0 -76.82787419745959
8.749999999999998 7.575331006010374 -41.86287787305692
8.749999999999998 7.575331006010374 -38.13712212694308
8.749999999999998 7.575331006010374 -78.13712212694307
8.749999999999998 7.575331006010374 -81.86287787305692
8.75 7.762194513834086 -120
8.75 20 -110.9641270172773
8.75 20 -89.03587298272265
8.75 7.762194513834086 -80
8.75 20 -70.96412701727735
8.75 20 -49.03587298272266
8.75 7.762194513834086 -40
8.75 20 -30.96412701727734
8.75 20 -3
11.75 23 -3
-11.75 23 -3
-8.75 20 -3
11.75 23 0
-11.75 23 0
-8.75 7.575331006010373 -41.86287787305692
-8.75 7.575331006010373 -78.13712212694307
-8.75 7.575331006010373 -81.86287787305692
-8.75 7.762194513834086 -120
-8.75 20 -110.9641270172773
-8.75 20 -89.03587298272265
-8.75 7.762194513834086 -80
-8.75 20 -70.96412701727735
-8.75 20 -49.03587298272266
-8.75 7.762194513834086 -40
-8.75 20 -30.96412701727734
-8.75 7.575331006010373 -38.13712212694308
8.58466517576697 7.762194513834086 -80
5.30686785790212 10.2851977807618 -81.86287787305692
-5.30686785790212 10.2851977807618 -81.86287787305692
-8.584665175766972 7.762194513834086 -80
-5.306867857902107 10.28519778076181 -78.13712212694307
5.306867857902108 10.28519778076181 -78.13712212694307
8.58466517576697 7.762194513834086 -40
5.306867857902127 10.2851977807618 -41.86287787305692
-5.306867857902125 10.2851977807618 -41.86287787305692
-8.584665175766972 7.762194513834086 -40
-5.306867857902125 10.2851977807618 -38.13712212694308
5.306867857902127 10.2851977807618 -38.13712212694308
4.896080704203036 4.21516673391797 -83.17212580254042
-4.896080704203036 4.215166733917971 -83.17212580254042
8.27215275519727 4.21516673391797 -81.86287787305693
-8.272152755197268 4.215166733917972 -81.86287787305693
8.27215275519727 4.21516673391797 -78.13712212694307
4.896080704203036 4.21516673391797 -76.82787419745958
-4.896080704203036 4.215166733917971 -76.82787419745958
-8.272152755197268 4.215166733917972 -78.13712212694307
4.896080704203036 4.21516673391797 -43.17212580254041
-4.896080704203036 4.215166733917971 -43.17212580254041
8.27215275519727 4.21516673391797 -41.86287787305692
-8.272152755197268 4.215166733917972 -41.86287787305692
8.27215275519727 4.21516673391797 -38.13712212694308
4.896080704203036 4.21516673391797 -36.82787419745959
-4.896080704203036 4.215166733917971 -36.82787419745959
-8.272152755197268 4.215166733917972 -38.13712212694308
8.75 0 -30.06229935796767
8.75 0 -23.29672451847577
8.75 0 -16.53114967898383
8.75 0 -9.765574839491887
5.875000000000016 0 0
3.730349362740526e-14 0 0
-5.874999999999972 0 0
-8.75 0 -9.765574839491915
-8.75 0 -16.53114967898382
-8.75 0 -23.29672451847575
-8.75 0 -30.06229935796769
-8.75 0 -49.90327548152425
-8.75 0 -56.6344251605081
-8.75 0 -63.36557483949196
-8.75 0 -70.09672451847581
-8.75 0 -89.31010483545035
-8.75 0 -95.44808386836027
-8.75 0 -101.5860629012702
-8.75 0 -107.7240419341801
-8.75 0 -113.8620209670901
2.916666666666666 0 -120
-2.916666666666668 0 -120
8.75 0 -89.31010483545035
8.75 0 -95.44808386836027
8.75 0 -101.5860629012702
8.75 0 -107.7240419341801
8.75 0 -113.8620209670901
8.75 0 -49.90327548152425
8.75 0 -56.6344251605081
8.75 0 -63.36557483949196
8.75 0 -70.09672451847581
10.8447478233032 4.042225191597138 -41.86287787305692
8.749999999999998 3.83460608268781 -42.79962268966359
8.749999999999998 7.575331006010374 -40
10.8447478233032 4.042225191597138 -38.13712212694308
8.749999999999998 3.834606082687813 -37.20037731033641
8.749999999999998 3.834606082687813 -77.20037731033641
8.749999999999998 7.575331006010374 -80
8.749999999999998 3.83460608268781 -82.79962268966358
8.75 3.88109725691704 -120
8.75 11.84146300922273 -116.9880423390924
8.75 15.92073150461137 -113.9760846781849
8.75 20 -105.4820635086387
8.75 20 -100
8.75 20 -94.51793649136134
8.75 15.92073150461136 -86.0239153218151
8.75 11.84146300922272 -83.01195766090754
8.75 11.84146300922273 -76.98804233909244
8.75 15.92073150461137 -73.97608467818489
8.75 20 -65.48206350863867
8.75 20 -60.00000000000001
8.75 20 -54.51793649136134
8.75 15.92073150461136 -46.0239153218151
8.75 11.84146300922272 -43.01195766090755
8.75 11.84146300922273 -36.98804233909244
8.75 15.92073150461137 -33.97608467818489
8.75 20 -23.97309526295802
8.75 20 -16.9820635086387
8.75 20 -9.991031754319351
8.75 6.666666666666651 -3
8.75 13.33333333333329 -3
-5.875000000000016 23 -3
-3.730349362740526e-14 23 -3
5.874999999999972 23 -3
-11.75 5.749999999999988 -3
-11.75 11.49999999999999 -3
-11.75 17.24999999999999 -3
-8.75 13.33333333333335 -3
-8.75 6.666666666666705 -3
-2.916666666666666 20 -3
2.916666666666668 20 -3
11.75 5.749999999999988 -3
11.75 11.49999999999999 -3
11.75 17.24999999999999 -3
11.75 5.749999999999988 0
11.75 11.49999999999999 0
11.75 17.24999999999999 0
-5.875000000000016 23 0
-3.730349362740526e-14 23 0
5.874999999999972 23 0
-11.75 5.749999999999988 0
-11.75 11.49999999999999 0
-11.75 17.24999999999999 0
-8.750000000000002 3.834606082687808 -42.79962268966359
-8.750000000000002 3.834606082687809 -77.20037731033641
-8.75 7.575331006010373 -79.99999999999999
-8.750000000000002 3.834606082687808 -82.79962268966358
-8.75 3.88109725691704 -120
-8.75 11.84146300922273 -116.9880423390924
-8.75 15.92073150461137 -113.9760846781849
-8.75 20 -105.4820635086387
-8.75 20 -100
-8.75 20 -94.51793649136134
-8.75 15.92073150461136 -86.0239153218151
-8.75 11.84146300922272 -83.01195766090754
-8.75 11.84146300922273 -76.98804233909244
-8.75 15.92073150461137 -73.97608467818489
-8.75 20 -65.48206350863867
-8.75 20 -60.00000000000001
-8.75 20 -54.51793649136134
-8.75 15.92073150461136 -46.0239153218151
-8.75 11.84146300922272 -43.01195766090755
-8.75 11.84146300922273 -36.98804233909244
-8.75 15.92073150461137 -33.97608467818489
-8.75 20 -9.991031754319327
-8.75 20 -16.98206350863864
-8.75 20 -23.97309526295799
-8.750000000000002 3.834606082687809 -37.20037731033642
-8.75 7.575331006010373 -40
-10.8447478233032 4.042225191597153 -38.13712212694308
-10.8447478233032 4.042225191597153 -41.86287787305692
-10.8447478233032 4.042225191597153 -78.13712212694307
-10.8447478233032 4.042225191597153 -81.86287787305692
2.916666666666666 7.762194513834086 -120
-2.916666666666668 7.762194513834086 -120
10.8447478233032 4.042225191597138 -81.86287787305692
10.8447478233032 4.042225191597138 -78.13712212694307
2.916666666666666 20 -110.9641270172773
-2.916666666666668 20 -110.9641270172773
2.916666666666666 20 -89.03587298272265
-2.916666666666668 20 -89.03587298272265
-2.945592253326651e-15 10.78219195374844 -82.22983714735959
2.916666666666666 20 -70.96412701727735
-2.916666666666668 20 -70.96412701727735
4.97534864208641e-15 10.78219195374845 -77.77016285264041
2.916666666666666 20 -49.03587298272266
-2.916666666666668 20 -49.03587298272266
9.390680160045115e-16 10.78219195374844 -42.22983714735958
2.916666666666666 20 -30.96412701727734
-2.916666666666668 20 -30.96412701727734
3.13022672001504e-16 10.78219195374844 -37.77016285264042
-9.570740393736684e-15 11.57359666873795 -78.13712212694307
-1.214059509360826e-14 11.57359666873795 -81.86287787305692
-9.570740393736684e-15 11.57359666873795 -38.13712212694308
-9.570740393736684e-15 11.57359666873795 -41.86287787305692
-1.108071800951318e-14 6.460591060947751 -83.17212580254041
8.881784197001252e-16 4.21516673391797 -83.17212580254041
6.592610251029996 4.21516673391797 -82.53948975107795
3.327073694553531 8.667567272946682 -81.86287787305692
-3.32707369455353 8.667567272946682 -81.86287787305692
-6.592610251029996 4.21516673391797 -82.53948975107795
6.592610251029998 4.21516673391797 -77.46051024892205
3.552713678800501e-15 4.21516673391797 -76.82787419745959
-6.592610251029996 4.21516673391797 -77.46051024892205
3.327073694553531 8.667567272946682 -78.13712212694307
-3.32707369455353 8.667567272946682 -78.13712212694307
-1.108071800951318e-14 6.460591060947751 -76.82787419745958
-1.108071800951318e-14 6.460591060947751 -43.17212580254041
8.881784197001252e-16 4.21516673391797 -43.17212580254041
6.592610251029996 4.21516673391797 -42.53948975107795
3.327073694553531 8.667567272946682 -41.86287787305692
-3.32707369455353 8.667567272946682 -41.86287787305692
-6.592610251029996 4.21516673391797 -42.53948975107795
6.592610251029998 4.21516673391797 -37.46051024892206
3.552713678800501e-15 4.21516673391797 -36.82787419745959
-6.592610251029996 4.21516673391797 -37.46051024892206
3.327073694553531 8.667567272946682 -38.13712212694308
-3.32707369455353 8.667567272946682 -38.13712212694308
-1.108071800951318e-14 6.460591060947751 -36.82787419745959
-5.003689609897456 0 -86.87823175600613
-4.170045710754555 0 -73.78676304940794
-3.657463467573934 0 -47.79668156910036
-4.19055792736252 0 -33.69984839514928
0 0 -115.2281178726027
-2.718045057631824 0 -98.51068200565757
-3.680626796102451 0 -41.16947905529521
-3.948015280193929 0 -80.9226632375034
-2.88614901495808 0 -4.225114447330867
2.792257977927977 0 -59.95256197754888
-2.890840317795175 0 -19.91393709872978
4.974275210422432 0 -86.86069381159751
3.987341338375602 0 -80.84139702353266
4.377990035993431 0 -73.46229935796769
2.712097225394376 0 -47.02979277099506
4.268797344060175 0 -39.82002569392694
2.75953464761702 0 -104.6545865737632
4.355630238346384 0 -33.44508677771363
2.732415690937158 0 -13.40572421909413
3.5852614596077 0 -5.83399519464723
-0.2588437716412253 0 -53.55278949327945
8.926906935170299 0 -80.16827940470654
2.798195106132276 0 -26.49012899572379
-2.850262706657543 0 -66.83616006462631
-8.919041723533962 0 -80.18453264750067
8.983198136307212 0 -39.96400513878539
-8.865564026715667 0 -40.23389581105904
3.287282232228618 0 -92.29140462986219
-3.592488403136858 0 -91.95802095435991
-4.277026589794011 0 -104.6536809731012
3.624743685778092 0 -98.51215111570018
3.636664217877311 0 -67.46711486764362
-3.802256375402689 0 -58.93506030941181
-4.068361213518613 0 -12.48401798039716
-3.630533856504237 0 -27.38494852878138
3.854565190874085 0 -19.92364838692384
3.606218917083985 0 -111.1741193694812
-3.157270289338652 0 -110.5321004261065
0.01802262269829136 0 -76.76155781422855
0.07686151621852755 0 -36.43276885157689
-1.095720681625584 0 -8.591644073412855
-5.04371272292357 0 -53.36444640276479
4.88017906230432 0 -53.30678208271833
-0.0492157520335974 0 -86.62540190214362
-4.53543270135109 0 -115.6975284238471
4.804577116750131 0 -116.0528516418348
-3.552713678800501e-15 0 -30.84675280664199
-5.110046182020457 0 -7.613270268126556
-2.664535259100376e-15 0 -71.08936844775111
9.81869753332305 1.879230999315611 -42.59395461134176
11.12382542615193 3.195097453774753 -40
10.13323957528669 1.815725141417877 -37.54408956532006
8.749999999999998 6.894657746167452 -85.81577876347228
8.749999999999998 15.20991327577831 -97.36813327580134
8.749999999999998 6.934025956954564 -73.77635860757869
8.749999999999998 6.981337053369414 -45.9750089596942
8.749999999999998 7.103854231276283 -34.10793775835872
8.749999999999998 16.13513302625846 -57.11883670022034
8.749999999999998 10.69084682865593 -112.2419337668787
8.749999999999998 6.394642577206256 -13.27282024454011
8.749999999999998 13.90360335535435 -20.55982286926648
8.749999999999998 5.053931690453929 -104.5064583769368
8.749999999999998 6.212525696935717 -67.60956930703895
8.749999999999998 6.53542566648118 -115.6475047539494
8.749999999999998 5.383228796809052 -28.32901293142939
8.749999999999998 5.397938695017199 -52.44123000218465
8.749999999999998 4.998042878859652 -91.34003496082268
8.749999999999998 15.38400372067732 -27.78367702356273
8.749999999999998 15.4305056156109 -68.22309526295801
8.749999999999998 10.8434161302064 -88.90277921873664
8.749999999999998 10.75109047461918 -48.95606753343021
8.749999999999998 5.754674463094849 -60.34320259912594
8.749999999999998 13.66208844503434 -13.4348490746268
8.749999999999998 11.12738108664993 -70.82375391774295
8.749999999999998 6.716410403195667 -20.60731610032135
8.749999999999998 4.984046668548701 -98.31913114617006
8.749999999999998 15.3248594895604 -91.88278685979955
8.749999999999998 15.46662013080186 -52.03515659132145
8.749999999999998 15.40337807078665 -108.3488738811119
8.749999999999998 9.999999999999973 -8.371541790984402
8.749999999999998 11.14005055320784 -31.07739561359055
8.749999999999998 5.395664458741466 -110.1357395814142
8.749999999999998 15.30823620535929 -62.18216137049609
8.749999999999998 15.19590205210756 -102.9336593497005
8.749999999999998 2.971641358705883 -33.41628864301713
8.749999999999998 2.751571713416096 -46.58812423124937
8.749999999999998 2.884908159716841 -86.41712824142
8.749999999999998 10.05933507545241 -95.24827975954338
8.749999999999998 10.50545936584885 -25.6714449076341
8.749999999999998 10.03597784829859 -101.0731774476965
8.749999999999998 4.774336880065556 -7.760806643775638
8.749999999999998 15.34505943871825 -7.65237461599002
8.749999999999998 11.31981824738788 -56.77800401548334
8.749999999999998 10.23818798922651 -106.6235462926689
8.749999999999998 10.16918619519765 -16.96870207218868
8.749999999999998 10.4250347365643 -64.36937331160469
10.25 3.10416666666666 -3
-10.25 3.104166666666674 -3
11.75 20.125 -1.5
11.75 8.624999999999988 -1.5
11.75 14.37499999999999 -1.5
11.75 2.874999999999994 -1.5
3.157610638484558 18.22886740495932 0
-2.707174061168084 4.878797530676509 0
7.069955745470663 8.71654637064 0
-6.619519168154191 14.39111856499582 0
7.102873022115113 14.37499999999999 0
0.1126091443291184 11.52691623390895 0
-7.000954855602268 8.644857627020135 0
-2.792058517349995 18.15992185565015 0
2.948495529093417 4.721447277005962 0
-7.528051718759411 18.81262893003678 0
7.528051718759418 4.187371069963204 0
7.820492259183635 19.07601590637069 0
-7.553981076842909 4.160878030182232 0
-11.75 20.125 -1.5
-11.75 14.37499999999999 -1.5
-11.75 8.624999999999989 -1.5
-11.75 2.874999999999994 -1.5
-8.750000000000002 6.89465774616745 -85.81577876347228
-8.750000000000002 15.20991327577831 -97.36813327580134
-8.750000000000002 7.307342656968563 -74.37578109996338
-8.750000000000002 6.985076392772395 -46.0135023121636
-8.750000000000002 7.048236697552388 -34.03261171508268
-8.750000000000002 16.13513302625846 -57.11883670022034
-8.750000000000002 10.69084682865593 -112.2419337668787
-8.750000000000002 6.39464257720627 -13.27282024454011
-8.750000000000002 14.4326609319432 -20.51610257708938
-8.750000000000002 5.053931690453929 -104.5064583769368
-8.750000000000002 5.458433428328097 -68.4101215481858
-8.750000000000002 6.53542566648118 -115.6475047539494
-8.750000000000002 5.234098447371652 -28.13175960838561
-8.750000000000002 5.229114864956872 -52.14867522712143
-8.750000000000002 4.998042878859652 -91.34003496082268
-8.750000000000002 15.30746416471915 -27.55881577186148
-8.750000000000002 15.4305056156109 -68.22309526295801
-8.750000000000002 10.8434161302064 -88.90277921873664
-8.750000000000002 10.73705267779457 -48.93446367096475
-8.750000000000002 5.184224801528568 -60.2477467675485
-8.750000000000002 10.98407102835551 -30.85224035085801
-8.750000000000002 13.73766809883275 -13.42860331860148
-8.750000000000002 11.06391849188432 -71.0570830399982
-8.750000000000002 5.520182457723211 -20.28977316529956
-8.750000000000002 4.984046668548701 -98.31913114617006
-8.750000000000002 15.3248594895604 -91.88278685979955
-8.750000000000002 15.46428049799775 -52.0315559475772
-8.750000000000002 15.40337807078665 -108.3488738811119
-8.750000000000002 10.00000000000003 -8.371541790984431
-8.750000000000002 5.395664458741466 -110.1357395814142
-8.750000000000002 15.30823620535929 -62.18216137049609
-8.750000000000002 15.19590205210756 -102.9336593497005
-8.750000000000002 2.942391661111412 -33.37734873354286
-8.750000000000002 2.939067116202989 -46.73037182815399
-8.750000000000002 3.011454652593212 -73.47105680285557
-8.750000000000002 2.884908159716841 -86.41712824142
-8.750000000000002 10.05933507545241 -95.24827975954339
-8.750000000000002 10.03597784829859 -101.0731774476965
-8.750000000000002 4.774336880065587 -7.760806643775666
-8.750000000000002 15.35585653211804 -7.651482365129262
-8.750000000000002 11.21186811577997 -56.71897328507615
-8.750000000000002 10.23818798922651 -106.6235462926689
-8.750000000000002 10.34889174981384 -24.16112644812273
-8.750000000000002 10.11195662190151 -17.47463699336604
-8.750000000000002 10.4250347365643 -64.36937331160469
-9.818697533252172 1.879230999303044 -37.40604538862487
-11.12382542615191 3.195097453774818 -40
-9.818697533252191 1.879230999303044 -42.59395461137512
-9.818697533252189 1.879230999303043 -77.40604538862488
-11.12382542615191 3.195097453774833 -80
-9.818697533252195 1.87923099930304 -82.59395461137511
0 3.881097256917043 -120
-4.835592132062736 3.881097256917043 -120
4.835592132062732 3.881097256917043 -120
9.818697533323059 1.879230999315613 -82.59395461134174
11.12382542615193 3.195097453774765 -80
10.13323957528668 1.815725141417873 -77.54408956532005
4.861111111111111 13.88109725691704 -115.4820635086387
-4.358617494862528 13.88109725691705 -115.4820635086387
-1.77635683940025e-15 11.37642509428296 -117.3314064770742
1.055971158263654 16.18316422673712 -113.7823155627729
5.266749787208286 17.19699859765311 -113.0337435568302
-4.955056832305837 10.52467487761818 -117.9603024649611
5.055555555555555 10.52467487761818 -117.9603024649611
1.77635683940025e-15 20 -107.3094180115182
-3.116085924365308 20 -97.44542651395673
4.074481574398331 20 -96.68091587713781
3.533912641211366 20 -102.6458953584224
-3.819251102747879 20 -103.5176497759157
0.1597326083388388 20 -92.62531630510398
5.833333333333335 20 -91.776904737042
-5.833333333333334 20 -108.223095262958
-5.005669521337115 20 -92.31631924999306
5.301079521212044 20 -107.8404579770747
3.645930232832203 13.90715847412953 -84.53717898126472
-3.570610136914748 13.92977397577974 -84.55387730193853
0.01255334931957641 17.29294399242011 -87.03709842553106
-5.563032249805383 17.82196616418004 -87.42770580644347
5.568260633528658 17.82078876405248 -87.42683646446753
-3.645930232832203 13.90715847412954 -75.46282101873527
3.57061013691475 13.92977397577975 -75.44612269806146
-0.01255334931957464 17.29294399242011 -72.96290157446894
5.563032249805385 17.82196616418005 -72.57229419355653
-5.568260633528659 17.82078876405249 -72.57316353553246
0 20 -52.69058198848178
3.92676360573267 20 -63.35016050090822
-3.123803284633325 20 -62.61672948059317
3.522583535603952 20 -57.36090000401176
-3.822425513727115 20 -56.49384211691502
0.1338267201832259 20 -67.39022242366202
5.299923490027614 20 -52.16023542725529
-5.833333333333334 20 -51.776904737042
5.833333333333332 20 -68.22309526295801
-5.010472842540491 20 -67.69477999619494
-3.645930232832203 13.90715847412953 -44.53717898126472
3.570610136914751 13.92977397577974 -44.55387730193854
-0.01255334931957286 17.29294399242011 -47.03709842553106
5.563032249805385 17.82196616418004 -47.42770580644348
-5.568260633528656 17.82078876405248 -47.42683646446753
3.645930232832204 13.90715847412953 -35.46282101873528
-3.570610136914748 13.92977397577974 -35.44612269806146
0.01255334931957641 17.29294399242011 -32.96290157446894
-5.563032249805385 17.82196616418005 -32.57229419355652
5.568260633528658 17.82078876405248 -32.57316353553247
0.04636994349617396 20 -7.706121846098476
-0.08058390489252609 20 -26.23026361820284
3.868304188107469 20 -12.49540178093957
2.941861732268833 20 -20.19802376963537
-2.842517265054187 20 -13.47796256036991
-3.88576212850187 20 -21.3883366433204
-4.876602540012213 20 -26.70398991180718
4.655588898808595 20 -26.46592733707018
4.866268159654064 20 -7.238511076271479
-4.642562797644936 20 -7.43502323215754
8.812499999999986 23 -1.5
2.937499999999966 23 -1.5
-8.812500000000007 23 -1.5
-2.937500000000027 23 -1.499999999999999
2.730513603508165 11.2468855827593 -79.9711269895943
-2.730513603508173 11.2468855827593 -79.9711269895943
2.730513603508174 11.2468855827593 -39.9711269895943
-2.730513603508183 11.24688558275929 -39.9711269895943
-4.940210927607574 4.21516673391797 -80
4.940210927607575 4.21516673391797 -80
5.684925392921361e-16 9.284187729685698 -79.92306105568485
6.212204214136512 6.899613076246451 -79.92306105568485
-6.198380161224496 6.912034807275284 -80
-4.940210927607574 4.21516673391797 -40
4.940210927607575 4.21516673391797 -40
6.226003373600282 6.887163697195267 -40
-1.493011257195748e-15 9.284187729685698 -40.07693894431513
-6.212204214136515 6.89961307624645 -40.07693894431513
-3.552713678800501e-15 9.402320103731959 -92.03976255459357
-0.08110238478566067 9.454800076561913 -28.10705956714302
-3.552713678800501e-15 11.41992786973471 -103.8016254702117
-0.07188345149710505 9.386337818416255 -67.91567739442706
3.552713678800501e-15 8.829852764506574 -11.28746820219977
-0.002816497168414631 9.374992429717883 -52.11634463734449
0.5452050183016155 11.21036979287771 -19.6232482980761
-2.215724964455459 6.23502980379604 -113.3220960003693
1.090369127810152 12.81490799315981 -60.53330401184256
2.336384302699686 10.65802143623026 -110.1008713745648
1.857740935530011 6.948160015289745 -98.51472431630074
2.299092649271807 13.96307794879981 -5.851705250123644
2.448040352101519 5.337878897432893 -31.56077815507027
2.001951255246365 5.536524227524693 -71.87451909654384
-2.74870521855923 14.72434684791975 -91.44819789813438
-2.762761257905027 14.74111851906527 -68.56041301326269
-2.76756639711121 12.07490079862387 -97.66815851512652

CELLS 2819 12313
1 0
1 1
1 2
1 3
1 4
1 5
1 6
1 7
1 8
1 9
1 10
1 11
1 12
1 13
1 14
1 15
1 16
1 17
1 18
1 19
1 20
1 21
1 22
1 23
1 24
1 25
1 26
1 27
1 28
1 29
1 30
1 31
1 32
1 33
1 34
1 35
1 36
1 37
1 38
1 39
1 40
1 41
1 42
1 43
1 44
1 45
1 46
1 47
1 48
1 49
1 50
1 51
1 52
1 53
1 54
1 55
1 56
1 57
1 58
1 59
1 60
1 61
1 62
1 63
1 64
1 65
1 66
1 67
1 68
1 69
1 70
1 71
1 72
1 73
1 74
1 75
1 76
1 77
1 78
1 79
1 80
1 81
2 0 1
2 1 2
2 2 3
2 3 82
2 82 83
2 83 84
2 84 85
2 85 4
2 4 5
2 5 6
2 6 86
2 86 87
2 87 88
2 88 7
2 8 7
2 8 9
2 9 89
2 89 90
2 90 91
2 91 92
2 92 10
2 11 10
2 12 11
2 13 12
2 13 93
2 93 94
2 94 95
2 95 96
2 96 14
2 15 14
2 16 15
2 17 16
2 17 97
2 97 98
2 98 99
2 99 100
2 100 101
2 101 18
2 19 102
2 102 103
2 103 18
2 20 104
2 104 105
2 105 106
2 106 107
2 107 108
2 108 19
2 20 21
2 21 22
2 22 23
2 0 109
2 109 110
2 110 111
2 111 112
2 112 23
2 1 113
2 113 24
2 24 114
2 114 0
2 24 115
2 115 25
2 2 116
2 116 25
2 3 117
2 117 25
2 23 118
2 118 26
2 26 119
2 119 27
2 27 120
2 120 20
2 19 121
2 121 28
2 28 122
2 122 123
2 123 29
2 29 124
2 124 125
2 125 126
2 126 30
2 30 127
2 127 128
2 128 31
2 31 129
2 129 130
2 130 32
2 32 131
2 131 132
2 132 133
2 133 33
2 33 134
2 134 135
2 135 34
2 34 136
2 136 137
2 137 35
2 35 138
2 138 139
2 139 140
2 140 36
2 4 141
2 141 142
2 142 36
2 38 143
2 143 144
2 144 145
2 145 37
2 8 146
2 146 147
2 147 148
2 148 38
2 39 149
2 149 150
2 150 9
2 39 151
2 151 152
2 152 36
2 5 153
2 153 154
2 154 155
2 155 37
2 6 156
2 156 157
2 157 158
2 158 40
2 37 40
2 41 159
2 159 160
2 160 161
2 161 40
2 7 162
2 162 163
2 163 164
2 164 41
2 38 41
2 42 165
2 165 13
2 14 166
2 166 43
2 44 167
2 167 43
2 44 168
2 168 17
2 18 169
2 169 45
2 45 170
2 170 171
2 171 46
2 46 172
2 172 173
2 173 174
2 174 47
2 47 175
2 175 176
2 176 48
2 48 177
2 177 178
2 178 49
2 49 179
2 179 180
2 180 181
2 181 50
2 50 182
2 182 183
2 183 51
2 51 184
2 184 185
2 185 52
2 39 186
2 186 187
2 187 188
2 188 52
2 10 189
2 189 53
2 42 190
2 190 53
2 53 191
2 191 11
2 42 192
2 192 12
2 43 193
2 193 15
2 44 194
2 194 16
2 28 195
2 195 196
2 196 45
2 21 197
2 197 27
2 22 198
2 198 26
2 29 199
2 199 200
2 200 46
2 30 201
2 201 202
2 202 47
2 31 54
2 54 55
2 56 203
2 203 55
2 56 57
2 57 48
2 32 204
2 204 205
2 205 49
2 57 58
2 59 206
2 206 58
2 59 54
2 33 207
2 207 208
2 208 50
2 34 60
2 60 61
2 62 209
2 209 61
2 62 63
2 63 51
2 35 210
2 210 211
2 211 52
2 63 64
2 65 212
2 212 64
2 65 60
2 59 213
2 213 58
2 55 214
2 214 56
2 65 215
2 215 64
2 61 216
2 216 62
2 66 217
2 217 67
2 67 218
2 218 66
2 66 219
2 219 68
2 68 220
2 220 221
2 221 69
2 69 222
2 222 67
2 68 70
2 70 223
2 223 71
2 71 224
2 224 72
2 72 225
2 225 73
2 69 73
2 70 226
2 226 227
2 227 73
2 71 228
2 228 72
2 74 229
2 229 75
2 75 230
2 230 74
2 74 231
2 231 76
2 76 232
2 232 233
2 233 77
2 77 234
2 234 75
2 76 78
2 78 235
2 235 79
2 79 236
2 236 80
2 80 237
2 237 81
2 77 81
2 78 238
2 238 239
2 239 81
2 79 240
2 240 80
3 1 266 0
3 0 255 109
3 0 256 255
3 0 266 256
3 2 266 1
3 3 266 2
3 82 258 3
3 3 258 256
3 256 266 3
3 6 4 5
3 86 4 6
3 4 260 85
3 86 260 4
3 8 9 7
3 7 9 88
3 9 249 88
3 89 288 9
3 9 288 249
3 11 267 10
3 10 244 92
3 10 247 244
3 10 267 247
3 12 267 11
3 13 267 12
3 93 243 13
3 243 247 13
3 247 267 13
3 15 265 14
3 14 242 96
3 14 248 242
3 14 265 248
3 16 265 15
3 17 265 16
3 97 241 17
3 241 248 17
3 248 265 17
3 18 285 101
3 103 285 18
3 19 286 102
3 108 286 19
3 21 262 20
3 20 252 104
3 20 253 252
3 20 262 253
3 22 262 21
3 23 262 22
3 112 254 23
3 23 254 253
3 253 262 23
3 83 263 82
3 82 263 258
3 84 276 83
3 83 276 263
3 85 259 84
3 259 276 84
3 85 260 259
3 87 260 86
3 88 249 87
3 249 260 87
3 90 274 89
3 274 288 89
3 91 251 90
3 251 274 90
3 92 275 91
3 91 275 251
3 244 275 92
3 94 282 93
3 93 282 243
3 95 273 94
3 273 282 94
3 96 264 95
3 264 273 95
3 242 264 96
3 98 269 97
3 97 269 241
3 99 246 98
3 246 269 98
3 100 270 99
3 99 270 246
3 101 278 100
3 100 278 270
3 101 285 278
3 102 245 103
3 102 286 245
3 245 285 103
3 104 268 105
3 252 268 104
3 105 271 106
3 268 271 105
3 106 257 107
3 106 271 257
3 107 277 108
3 257 277 107
3 277 286 108
3 109 283 110
3 255 283 109
3 110 250 111
3 110 283 250
3 111 272 112
3 250 272 111
3 112 272 254
3 241 284 248
3 269 284 241
3 248 279 242
3 242 289 264
3 279 289 242
3 243 255 247
3 243 261 255
3 243 282 261
3 247 280 244
3 244 287 275
3 280 287 244
3 277 278 245
3 245 286 277
3 278 285 245
3 246 270 257
3 257 271 246
3 268 269 246
3 246 271 268
3 255 256 247
3 256 280 247
3 253 279 248
3 248 284 253
3 249 281 260
3 249 288 281
3 261 273 250
3 250 283 261
3 264 272 250
3 250 273 264
3 259 274 251
3 251 276 259
3 251 275 263
3 263 276 251
3 253 284 252
3 252 284 268
3 254 279 253
3 272 289 254
3 254 289 279
3 261 283 255
3 258 280 256
3 270 278 257
3 257 278 277
3 263 287 258
3 258 287 280
3 260 281 259
3 259 281 274
3 261 282 273
3 275 287 263
3 264 289 272
3 268 284 269
3 281 288 274
3 0 290 1
3 114 290 0
3 1 290 113
3 113 114 24
3 113 290 114
3 1 291 2
3 113 291 1
3 2 291 116
3 113 24 115
3 116 115 25
3 115 291 113
3 116 291 115
3 2 292 3
3 116 292 2
3 3 292 117
3 116 25 117
3 117 292 116
3 109 326 0
3 0 326 114
3 3 325 82
3 117 325 3
3 85 331 4
3 4 331 141
3 108 19 121
3 104 327 20
3 20 327 120
3 118 112 23
3 24 34 115
3 24 135 34
3 114 296 24
3 24 296 135
3 34 25 115
3 136 25 34
3 25 297 117
3 136 297 25
3 119 31 26
3 31 129 26
3 26 295 118
3 129 295 26
3 27 31 119
3 27 128 31
3 120 293 27
3 27 293 128
3 28 304 121
3 122 304 28
3 29 319 123
3 124 319 29
3 30 317 126
3 127 317 30
3 32 309 130
3 131 309 32
3 33 318 133
3 134 318 33
3 35 308 137
3 138 308 35
3 36 332 140
3 142 332 36
3 82 305 83
3 82 325 305
3 83 315 84
3 305 315 83
3 84 300 85
3 84 315 300
3 300 331 85
3 105 307 104
3 307 327 104
3 106 316 105
3 105 316 307
3 107 302 106
3 302 316 106
3 108 322 107
3 107 322 302
3 121 304 108
3 304 322 108
3 110 306 109
3 306 326 109
3 111 312 110
3 110 312 306
3 112 303 111
3 303 312 111
3 118 295 112
3 295 303 112
3 114 326 296
3 297 325 117
3 120 327 293
3 123 299 122
3 299 304 122
3 123 319 299
3 125 324 124
3 124 324 319
3 126 294 125
3 294 324 125
3 126 317 294
3 128 310 127
3 310 317 127
3 293 310 128
3 130 314 129
3 129 314 295
3 309 314 130
3 132 323 131
3 131 323 309
3 133 298 132
3 298 323 132
3 133 318 298
3 135 311 134
3 311 318 134
3 296 311 135
3 137 321 136
3 136 321 297
3 308 321 137
3 139 301 138
3 301 308 138
3 140 313 139
3 139 313 301
3 140 332 313
3 141 320 142
3 141 331 320
3 320 332 142
3 307 310 293
3 293 327 307
3 317 328 294
3 294 330 324
3 328 330 294
3 295 314 303
3 306 311 296
3 296 326 306
3 297 321 305
3 305 325 297
3 318 333 298
3 298 333 323
3 299 322 304
3 319 334 299
3 299 334 322
3 313 320 300
3 300 335 313
3 315 335 300
3 320 331 300
3 301 329 308
3 313 335 301
3 315 329 301
3 301 335 315
3 302 330 316
3 322 334 302
3 302 334 330
3 303 336 312
3 314 336 303
3 305 329 315
3 321 329 305
3 306 333 311
3 312 333 306
3 307 328 310
3 316 328 307
3 308 329 321
3 309 336 314
3 323 336 309
3 310 328 317
3 311 333 318
3 312 336 333
3 313 332 320
3 316 330 328
3 324 334 319
3 333 336 323
3 330 334 324
3 5 4 337
3 4 141 337
3 153 5 337
3 9 8 338
3 8 146 338
3 150 9 338
3 36 145 37
3 155 36 37
3 142 36 155
3 36 152 145
3 143 39 38
3 39 148 38
3 143 151 39
3 148 39 149
3 141 142 154
3 153 141 154
3 141 153 337
3 142 155 154
3 151 143 144
3 152 144 145
3 152 151 144
3 146 147 150
3 146 150 338
3 147 148 149
3 147 149 150
3 5 342 6
3 153 342 5
3 6 342 156
3 40 339 37
3 37 339 155
3 158 339 40
3 154 340 153
3 153 340 156
3 156 342 153
3 155 341 154
3 157 340 154
3 154 341 157
3 155 339 158
3 158 341 155
3 156 340 157
3 157 341 158
3 6 353 86
3 156 353 6
3 88 355 7
3 7 355 162
3 40 354 158
3 161 354 40
3 41 352 159
3 164 352 41
3 86 351 87
3 86 353 351
3 87 344 88
3 87 351 344
3 344 355 88
3 157 345 156
3 345 353 156
3 158 347 157
3 157 347 345
3 158 354 347
3 159 350 160
3 159 352 350
3 160 343 161
3 160 350 343
3 343 354 161
3 162 349 163
3 162 355 349
3 163 346 164
3 163 349 346
3 346 352 164
3 343 348 347
3 347 354 343
3 343 350 348
3 348 349 344
3 344 351 348
3 349 355 344
3 347 348 345
3 348 351 345
3 351 353 345
3 346 349 348
3 348 350 346
3 350 352 346
3 8 7 359
3 7 162 359
3 146 8 359
3 41 38 356
3 38 148 356
3 164 41 356
3 147 146 358
3 146 162 358
3 162 146 359
3 148 147 357
3 147 163 357
3 163 147 358
3 148 164 356
3 164 148 357
3 162 163 358
3 163 164 357
3 89 9 398
3 9 150 398
3 10 92 392
3 189 10 392
3 93 13 393
3 13 165 393
3 14 96 394
3 166 14 394
3 97 17 395
3 17 168 395
3 169 18 101
3 149 39 399
3 39 186 399
3 42 51 183
3 42 190 51
3 165 42 363
3 42 183 363
3 167 43 48
3 48 43 177
3 43 166 362
3 177 43 362
3 44 167 48
3 44 48 176
3 168 44 360
3 44 176 360
3 45 169 371
3 170 45 371
3 46 171 387
3 172 46 387
3 47 174 385
3 175 47 385
3 49 178 376
3 179 49 376
3 50 181 386
3 182 50 386
3 51 53 184
3 51 190 53
3 52 185 375
3 188 52 375
3 184 53 364
3 53 189 364
3 90 89 367
3 367 89 398
3 91 90 383
3 90 367 383
3 92 91 372
3 372 91 383
3 92 372 392
3 94 93 373
3 373 93 393
3 95 94 379
3 94 373 379
3 96 95 370
3 370 95 379
3 96 370 394
3 98 97 374
3 374 97 395
3 99 98 384
3 98 374 384
3 100 99 369
3 369 99 384
3 101 100 389
3 100 369 389
3 169 101 371
3 371 101 389
3 150 149 388
3 388 149 399
3 150 388 398
3 165 363 393
3 362 166 394
3 168 360 395
3 171 170 366
3 366 170 371
3 171 366 387
3 173 172 391
3 172 387 391
3 174 173 361
3 361 173 391
3 174 361 385
3 176 175 377
3 377 175 385
3 360 176 377
3 178 177 382
3 177 362 382
3 376 178 382
3 180 179 390
3 179 376 390
3 181 180 365
3 365 180 390
3 181 365 386
3 183 182 378
3 378 182 386
3 363 183 378
3 185 184 380
3 184 364 380
3 375 185 380
3 186 187 381
3 186 381 399
3 187 188 368
3 187 368 381
3 368 188 375
3 364 189 392
3 374 360 377
3 360 374 395
3 385 361 396
3 361 391 397
3 396 361 397
3 362 370 382
3 370 362 394
3 373 363 378
3 363 373 393
3 364 372 380
3 372 364 392
3 386 365 400
3 365 390 400
3 366 371 389
3 387 366 401
3 366 389 401
3 381 367 388
3 367 381 403
3 383 367 403
3 388 367 398
3 368 375 402
3 381 368 403
3 368 402 403
3 369 384 397
3 389 369 401
3 369 397 401
3 370 379 404
3 382 370 404
3 380 372 402
3 372 383 402
3 373 378 400
3 379 373 400
3 374 377 396
3 384 374 396
3 375 380 402
3 376 382 404
3 390 376 404
3 377 385 396
3 378 386 400
3 379 400 404
3 381 388 399
3 402 383 403
3 384 396 397
3 391 387 401
3 400 390 404
3 397 391 401
3 10 405 11
3 189 405 10
3 11 405 191
3 53 191 189
3 191 405 189
3 11 406 12
3 191 406 11
3 12 406 192
3 42 192 190
3 53 190 191
3 190 406 191
3 192 406 190
3 12 407 13
3 192 407 12
3 13 407 165
3 42 165 192
3 165 407 192
3 14 408 15
3 166 408 14
3 15 408 193
3 43 193 166
3 193 408 166
3 15 409 16
3 193 409 15
3 16 409 194
3 43 167 193
3 44 194 167
3 167 409 193
3 194 409 167
3 16 410 17
3 194 410 16
3 17 410 168
3 44 168 194
3 168 410 194
3 18 412 103
3 169 412 18
3 102 413 19
3 19 413 121
3 121 413 28
3 28 413 195
3 45 412 169
3 196 412 45
3 103 411 102
3 411 413 102
3 103 412 411
3 195 411 196
3 195 413 411
3 411 412 196
3 20 414 21
3 120 414 20
3 21 414 197
3 197 120 27
3 197 414 120
3 21 415 22
3 197 415 21
3 22 415 198
3 198 119 26
3 197 27 119
3 119 415 197
3 198 415 119
3 22 416 23
3 198 416 22
3 23 416 118
3 198 26 118
3 118 416 198
3 28 423 122
3 195 423 28
3 123 421 29
3 29 421 199
3 170 422 45
3 45 422 196
3 200 171 46
3 122 417 123
3 122 423 417
3 417 421 123
3 171 418 170
3 418 422 170
3 200 418 171
3 196 419 195
3 419 423 195
3 196 422 419
3 199 420 200
3 199 421 420
3 200 420 418
3 419 420 417
3 417 423 419
3 420 421 417
3 418 420 419
3 419 422 418
3 29 433 124
3 199 433 29
3 126 430 30
3 30 430 201
3 172 431 46
3 46 431 200
3 47 432 174
3 202 432 47
3 124 427 125
3 124 433 427
3 125 426 126
3 125 427 426
3 426 430 126
3 173 428 172
3 428 431 172
3 174 425 173
3 425 428 173
3 174 432 425
3 200 424 199
3 424 433 199
3 200 431 424
3 201 429 202
3 201 430 429
3 429 432 202
3 424 428 427
3 427 433 424
3 424 431 428
3 426 427 425
3 425 429 426
3 427 428 425
3 425 432 429
3 429 430 426
3 30 438 127
3 201 438 30
3 54 31 128
3 175 437 47
3 47 437 202
3 176 48 57
3 128 55 54
3 128 434 55
3 55 434 203
3 56 176 57
3 56 435 176
3 203 435 56
3 127 434 128
3 127 438 434
3 176 435 175
3 435 437 175
3 202 436 201
3 436 438 201
3 202 437 436
3 434 435 203
3 434 436 435
3 434 438 436
3 436 437 435
3 31 54 129
3 130 442 32
3 32 442 204
3 48 177 57
3 49 443 178
3 205 443 49
3 54 59 129
3 57 177 58
3 177 439 58
3 58 439 206
3 59 440 129
3 206 440 59
3 129 440 130
3 440 442 130
3 178 439 177
3 178 443 439
3 204 441 205
3 204 442 441
3 441 443 205
3 439 440 206
3 439 441 440
3 439 443 441
3 441 442 440
3 32 452 131
3 204 452 32
3 133 450 33
3 33 450 207
3 179 453 49
3 49 453 205
3 50 451 181
3 208 451 50
3 131 445 132
3 131 452 445
3 132 447 133
3 445 447 132
3 447 450 133
3 180 446 179
3 446 453 179
3 181 448 180
3 180 448 446
3 181 451 448
3 205 449 204
3 449 452 204
3 205 453 449
3 207 444 208
3 207 450 444
3 444 451 208
3 447 448 444
3 444 450 447
3 448 451 444
3 446 447 445
3 445 449 446
3 445 452 449
3 446 448 447
3 449 453 446
3 33 457 134
3 207 457 33
3 60 34 135
3 182 458 50
3 50 458 208
3 63 183 51
3 135 61 60
3 135 455 61
3 61 455 209
3 63 62 183
3 62 454 183
3 209 454 62
3 134 455 135
3 134 457 455
3 183 454 182
3 454 458 182
3 208 456 207
3 456 457 207
3 208 458 456
3 209 455 454
3 455 456 454
3 456 458 454
3 455 457 456
3 136 34 60
3 137 463 35
3 35 463 210
3 51 184 63
3 52 462 185
3 211 462 52
3 60 65 136
3 63 184 64
3 184 460 64
3 64 460 212
3 65 459 136
3 212 459 65
3 136 459 137
3 459 463 137
3 185 460 184
3 185 462 460
3 210 461 211
3 210 463 461
3 461 462 211
3 212 460 459
3 460 461 459
3 461 463 459
3 460 462 461
3 35 471 138
3 210 471 35
3 140 472 36
3 36 472 152
3 151 473 39
3 39 473 186
3 188 470 52
3 52 470 211
3 138 467 139
3 138 471 467
3 139 466 140
3 139 467 466
3 466 472 140
3 152 464 151
3 464 473 151
3 152 472 464
3 186 468 187
3 186 473 468
3 187 469 188
3 468 469 187
3 469 470 188
3 211 465 210
3 465 471 210
3 211 470 465
3 466 468 464
3 464 472 466
3 468 473 464
3 465 469 467
3 467 471 465
3 465 470 469
3 467 468 466
3 467 469 468
3 37 474 40
3 145 474 37
3 41 476 38
3 38 476 143
3 40 474 161
3 159 476 41
3 143 477 144
3 143 476 159
3 159 477 143
3 144 475 145
3 160 475 144
3 144 477 160
3 161 474 145
3 145 475 161
3 160 477 159
3 161 475 160
3 55 478 54
3 54 478 59
3 214 478 55
3 57 479 56
3 56 479 214
3 58 479 57
3 213 479 58
3 59 478 213
3 213 478 214
3 214 479 213
3 55 203 214
3 203 56 214
3 206 213 58
3 59 213 206
3 61 480 60
3 60 480 65
3 216 480 61
3 63 481 62
3 62 481 216
3 64 481 63
3 215 481 64
3 65 480 215
3 215 480 216
3 216 481 215
3 61 209 216
3 216 209 62
3 212 215 64
3 65 215 212
3 217 218 66
3 218 217 67
3 66 220 217
3 66 219 220
3 67 217 221
3 67 221 222
3 68 220 219
3 221 69 222
3 221 217 220
3 218 483 66
3 66 483 219
3 67 482 218
3 222 482 67
3 68 483 70
3 219 483 68
3 73 482 69
3 69 482 222
3 70 483 223
3 223 483 71
3 71 483 224
3 224 482 72
3 72 482 225
3 225 482 73
3 218 482 224
3 224 483 218
3 68 70 485
3 220 68 485
3 73 69 486
3 69 221 486
3 70 226 485
3 227 73 486
3 221 220 484
3 220 226 484
3 226 220 485
3 227 221 484
3 221 227 486
3 226 227 484
3 70 223 226
3 226 223 71
3 228 226 71
3 72 225 227
3 72 227 228
3 227 225 73
3 227 226 228
3 224 228 71
3 228 224 72
3 229 230 74
3 229 75 230
3 74 232 229
3 74 231 232
3 75 229 233
3 75 233 234
3 76 232 231
3 233 77 234
3 233 229 232
3 230 488 74
3 74 488 231
3 75 487 230
3 234 487 75
3 76 488 78
3 231 488 76
3 81 487 77
3 77 487 234
3 78 488 235
3 235 488 79
3 79 488 236
3 236 487 80
3 80 487 237
3 237 487 81
3 230 487 236
3 236 488 230
3 76 78 489
3 232 76 489
3 81 77 491
3 77 233 491
3 78 238 489
3 239 81 491
3 233 232 490
3 238 232 489
3 232 238 490
3 239 233 490
3 233 239 491
3 238 239 490
3 78 235 238
3 238 235 79
3 240 238 79
3 80 237 239
3 80 239 240
3 239 237 81
3 238 240 239
3 236 240 79
3 240 236 80
4 207 450 457 497
4 456 458 208 497
4 465 470 493 498
4 456 207 457 497
4 375 493 470 498
4 210 461 463 493
4 67 217 218 492
4 66 218 217 492
4 208 386 451 444
4 207 444 450 497
4 67 360 217 492
4 217 293 66 492
4 462 211 470 493
4 450 318 457 497
4 462 461 211 493
4 456 208 444 497
4 207 456 444 497
4 369 494 270 499
4 386 365 448 497
4 387 401 366 501
4 401 494 369 499
4 389 401 369 499
4 386 208 458 497
4 66 252 218 492
4 228 362 72 495
4 388 348 150 496
4 386 444 208 497
4 75 363 229 497
4 471 210 463 493
4 364 80 240 493
4 379 273 495 500
4 386 400 365 497
4 67 241 374 492
4 298 333 318 500
4 465 469 470 498
4 66 307 252 492
4 229 296 74 497
4 473 399 496 503
4 375 402 493 498
4 217 293 220 66
4 360 221 67 217
4 67 374 360 492
4 293 307 66 492
4 452 449 204 507
4 379 497 273 500
4 141 320 331 496
4 398 388 150 496
4 430 201 429 506
4 368 402 375 498
4 447 450 444 497
4 298 318 447 500
4 369 494 397 502
4 294 317 426 492
4 387 494 401 501
4 141 320 496 503
4 201 317 438 506
4 369 397 384 502
4 75 243 363 497
4 211 461 465 493
4 442 309 204 507
4 250 495 273 500
4 72 228 227 362
4 344 150 348 496
4 471 465 493 498
4 388 349 150 348
4 375 462 470 493
4 369 270 494 502
4 388 348 496 503
4 430 317 201 506
4 470 211 465 493
4 309 452 204 507
4 220 293 217 492
4 360 221 217 492
4 444 386 448 497
4 294 328 492 508
4 228 495 72 505
4 308 471 493 498
4 308 493 329 498
4 447 318 450 497
4 398 150 344 496
4 294 328 317 492
4 403 496 367 498
4 270 494 257 499
4 294 502 328 508
4 364 239 240 80
4 398 344 249 496
4 250 273 497 500
4 369 270 389 499
4 388 399 149 503
4 411 245 413 499
4 201 438 436 506
4 413 286 304 499
4 442 204 441 507
4 294 492 426 508
4 351 141 496 503
4 257 499 494 501
4 80 240 493 504
4 388 149 348 503
4 363 233 75 229
4 451 386 448 444
4 403 367 383 498
4 300 335 315 498
4 228 227 362 495
4 387 366 418 501
4 300 315 276 498
4 281 351 260 496
4 367 496 251 498
4 495 500 309 507
4 364 372 392 80
4 233 229 363 497
4 379 400 497 500
4 388 496 399 503
4 372 80 364 493
4 195 304 423 499
4 413 304 195 499
4 399 473 151 503
4 309 500 445 507
4 319 324 433 494
4 426 492 317 506
4 195 411 413 499
4 218 252 284 492
4 232 74 229 296
4 300 496 335 498
4 294 426 494 508
4 442 441 495 507
4 239 364 240 493
4 438 492 436 506
4 366 401 499 501
4 463 308 471 493
4 317 492 438 506
4 442 495 309 507
4 448 444 497 500
4 344 150 349 348
4 294 494 502 508
4 317 310 438 492
4 151 149 399 503
4 328 502 492 508
4 300 276 259 498
4 229 232 296 497
4 294 494 330 502
4 387 200 494 501
4 329 301 308 498
4 241 374 395 67
4 442 314 309 495
4 374 395 67 360
4 327 66 293 307
4 468 473 399 496
4 301 471 308 498
4 327 252 66 307
4 383 493 402 498
4 286 413 245 499
4 312 250 497 500
4 273 373 282 497
4 324 330 294 494
4 468 464 473 503
4 241 269 374 492
4 306 312 283 497
4 276 315 263 498
4 360 377 221 492
4 220 310 293 492
4 333 497 318 500
4 273 282 261 497
4 379 495 404 500
4 300 259 496 498
4 249 281 351 260
4 72 362 370 495
4 251 493 383 498
4 372 80 493 504
4 367 251 383 498
4 312 495 250 500
4 269 241 284 492
4 318 497 447 500
4 466 313 496 498
4 315 493 263 498
4 349 388 149 348
4 269 384 374 492
4 440 442 441 495
4 456 454 458 497
4 455 456 457 497
4 424 494 200 501
4 243 363 393 75
4 302 257 494 501
4 468 473 496 503
4 319 494 433 501
4 433 494 424 501
4 426 492 506 508
4 74 296 255 497
4 434 436 438 492
4 344 348 351 496
4 447 497 444 500
4 276 263 251 498
4 421 433 199 501
4 424 200 420 501
4 494 499 401 501
4 351 496 348 503
4 461 459 463 493
4 397 502 494 508
4 304 423 499 501
4 428 431 424 494
4 303 272 312 495
4 72 495 370 505
4 263 493 251 498
4 337 342 5 153
4 8 146 359 338
4 397 384 502 508
4 333 312 497 500
4 387 418 200 501
4 438 310 434 492
4 424 199 433 501
4 346 149 151 503
4 283 312 250 497
4 428 387 431 494
4 460 461 462 493
4 274 251 367 496
4 313 335 496 498
4 384 396 374 492
4 442 440 314 495
4 418 420 200 501
4 302 322 257 501
4 381 399 388 496
4 321 308 463 493
4 321 463 459 493
4 242 72 370 505
4 399 381 468 496
4 261 250 273 497
4 251 259 276 498
4 383 275 372 493
4 302 494 334 501
4 421 319 433 501
4 257 494 270 502
4 257 277 499 501
4 396 492 384 508
4 454 209 229 497
4 329 493 315 498
4 383 251 275 493
4 270 257 278 499
4 209 455 229 497
4 251 496 259 498
4 264 379 273 495
4 370 394 72 242
4 383 372 402 493
4 239 380 364 493
4 492 502 384 508
4 228 206 439 495
4 458 378 386 497
4 72 394 370 362
4 217 203 434 492
4 427 324 294 494
4 457 318 311 497
4 375 380 462 493
4 217 435 203 492
4 403 381 496 498
4 302 494 257 502
4 294 330 328 502
4 283 250 261 497
4 336 495 312 500
4 448 365 390 500
4 309 323 445 500
4 310 307 293 492
4 374 377 360 492
4 309 495 336 500
4 294 426 427 494
4 468 496 381 498
4 466 496 468 498
4 217 220 434 203
4 228 227 439 206
4 209 233 454 229
4 286 245 277 499
4 315 329 305 493
4 426 506 429 508
4 401 397 369 494
4 334 302 330 494
4 460 240 212 493
4 243 373 363 497
4 257 322 277 501
4 217 435 221 203
4 232 229 209 455
4 240 239 460 212
4 462 380 460 493
4 250 312 272 495
4 243 261 282 497
4 264 273 250 495
4 242 370 289 505
4 244 275 287 504
4 387 391 401 494
4 324 319 334 494
4 434 310 220 492
4 221 377 435 492
4 365 400 390 500
4 373 273 379 497
4 368 381 403 498
4 274 288 281 496
4 74 255 296 326
4 466 496 313 503
4 268 252 307 492
4 387 428 391 494
4 229 455 232 497
4 233 454 229 497
4 377 221 56 360
4 310 293 55 220
4 80 236 240 504
4 195 423 419 499
4 228 72 224 505
4 278 389 270 499
4 330 494 302 502
4 233 363 378 497
4 228 439 227 495
4 243 282 373 497
4 221 435 217 492
4 434 220 217 492
4 309 336 323 500
4 458 454 378 497
4 268 284 252 492
4 433 324 427 494
4 471 467 465 498
4 455 457 311 497
4 460 380 239 493
4 333 312 306 497
4 368 468 381 498
4 303 312 336 495
4 328 310 317 492
4 274 398 288 496
4 232 311 296 497
4 141 351 345 503
4 418 366 499 501
4 400 373 379 497
4 346 151 350 503
4 471 301 467 498
4 393 373 363 243
4 379 404 400 500
4 421 199 420 501
4 424 420 199 501
4 313 301 335 498
4 460 239 240 493
4 427 494 426 508
4 433 427 424 494
4 315 305 263 493
4 228 206 495 505
4 319 334 494 501
4 466 468 496 503
4 302 334 322 501
4 251 263 275 493
4 370 404 379 495
4 466 464 468 503
4 419 499 423 501
4 296 306 255 497
4 372 493 275 504
4 346 348 149 503
4 243 230 255 497
4 389 366 401 499
4 274 259 251 496
4 233 378 454 497
4 239 238 212 240
4 233 232 229 209
4 227 226 206 228
4 221 220 217 203
4 300 313 335 496
4 232 455 311 497
4 240 212 493 504
4 368 469 468 498
4 257 277 278 499
4 313 496 320 503
4 9 150 338 355
4 141 4 337 353
4 264 370 379 495
4 383 402 403 498
4 56 221 377 435
4 390 500 404 507
4 362 382 370 495
4 310 55 434 220
4 466 467 313 498
4 336 309 314 495
4 321 329 308 493
4 264 289 370 505
4 250 272 264 495
4 390 400 404 500
4 372 364 380 493
4 404 500 495 507
4 362 227 58 439
4 328 307 492 502
4 313 467 301 498
4 249 398 150 344
4 334 330 324 494
4 397 401 391 494
4 306 296 255 326
4 242 224 72 505
4 368 403 402 498
4 454 455 209 497
4 304 299 423 501
4 440 495 206 505
4 439 206 440 495
4 328 307 310 492
4 396 377 374 492
4 259 260 331 496
4 243 255 261 497
4 473 464 151 503
4 367 403 381 496
4 269 492 268 502
4 378 363 233 62
4 255 306 283 497
4 375 402 380 493
4 434 203 435 492
4 272 495 303 505
4 398 274 367 496
4 259 281 260 496
4 271 316 302 502
4 244 236 80 504
4 391 494 428 508
4 459 493 212 504
4 370 242 289 264
4 141 142 320 503
4 261 255 283 497
4 296 232 61 311
4 456 455 454 497
4 238 212 240 504
4 439 495 441 507
4 425 428 494 508
4 331 300 259 496
4 226 206 228 505
4 460 212 459 493
4 149 388 349 150
4 441 439 440 495
4 351 348 345 503
4 381 388 367 496
4 320 313 300 496
4 436 434 435 492
4 311 306 296 497
4 314 495 440 505
4 331 320 300 496
4 373 378 363 497
4 398 367 388 496
4 400 386 378 497
4 333 311 318 497
4 435 436 492 506
4 284 268 269 492
4 321 493 459 504
4 448 390 446 500
4 264 370 495 505
4 313 320 332 503
4 268 492 307 502
4 435 492 377 506
4 448 447 444 500
4 391 397 494 508
4 426 429 425 508
4 460 459 461 493
4 321 459 297 504
4 466 313 332 503
4 311 232 61 455
4 390 446 500 507
4 233 454 378 62
4 263 493 305 504
4 440 226 59 505
4 377 492 396 506
4 65 489 480 60
4 55 485 54 478
4 466 468 467 498
4 328 316 307 502
4 346 350 348 503
4 271 302 257 502
4 382 495 439 507
4 305 329 321 493
4 425 494 427 508
4 59 485 478 54
4 316 106 271 302
4 238 459 212 504
4 61 489 60 480
4 304 322 299 501
4 226 440 206 505
4 425 427 426 508
4 381 187 468 368
4 195 196 411 499
4 141 345 142 503
4 313 301 467 139
4 329 315 301 498
4 251 367 90 274
4 402 372 380 493
4 428 427 425 494
4 472 142 152 503
4 474 40 161 354
4 41 352 476 159
4 142 36 472 152
4 421 299 319 501
4 465 467 469 498
4 276 84 315 300
4 289 224 242 505
4 332 472 466 503
4 246 257 270 502
4 98 384 374 269
4 295 440 59 505
4 467 466 313 139
4 417 423 299 501
4 305 493 321 504
4 367 90 383 251
4 226 70 485 26
4 77 233 42 491
4 285 411 412 499
4 335 301 315 498
4 391 425 361 508
4 227 226 484 206
4 233 232 209 490
4 268 307 316 502
4 369 384 99 270
4 359 162 7 355
4 421 417 299 501
4 342 353 6 156
4 272 303 312 111
4 469 468 187 368
4 158 40 339 354
4 91 372 383 275
4 375 470 188 368
4 411 285 245 499
4 268 316 271 502
4 356 352 41 164
4 322 302 257 107
4 453 390 376 507
4 283 306 110 312
4 473 151 39 399
4 84 276 259 300
4 469 467 468 498
4 322 286 304 108
4 83 263 276 315
4 269 268 246 502
4 419 423 417 501
4 349 149 346 348
4 429 506 425 508
4 424 427 428 494
4 330 302 316 502
4 314 303 336 495
4 277 286 322 108
4 382 404 495 507
4 149 39 151 399
4 314 303 495 505
4 287 236 244 504
4 232 76 24 489
4 69 221 44 486
4 238 78 489 25
4 73 227 486 43
4 333 306 311 497
4 275 263 287 504
4 432 385 361 506
4 477 160 159 350
4 298 447 323 500
4 106 257 271 302
4 275 493 263 504
4 274 281 259 496
4 373 400 378 497
4 472 332 142 503
4 100 389 369 270
4 163 164 346 357
4 142 36 332 472
4 295 314 440 505
4 275 383 91 251
4 425 391 428 508
4 239 238 490 212
4 221 220 203 484
4 257 277 322 107
4 264 495 272 505
4 160 343 475 161
4 298 323 333 500
4 397 396 384 508
4 492 396 506 508
4 150 355 249 344
4 110 250 283 312
4 195 419 196 499
4 389 285 371 499
4 370 382 404 495
4 391 361 425 173
4 475 152 144 145
4 143 144 477 151
4 272 312 250 111
4 81 239 491 53
4 220 68 27 485
4 123 319 421 299
4 9 150 355 249
4 105 271 268 316
4 470 469 188 368
4 301 308 471 138
4 418 499 419 501
4 83 305 263 315
4 336 312 333 500
4 396 361 385 508
4 151 152 350 503
4 285 101 389 371
4 249 9 398 288
4 179 453 390 376
4 384 98 246 269
4 283 306 326 109
4 451 365 386 181
4 316 268 105 307
4 452 445 309 131
4 412 411 196 499
4 421 417 123 299
4 340 345 156 157
4 472 464 466 503
4 412 285 103 411
4 377 396 385 506
4 360 56 377 176
4 293 55 128 310
4 394 370 96 242
4 418 419 420 501
4 268 271 246 502
4 158 341 157 347
4 473 186 468 399
4 448 365 386 451
4 150 9 398 249
4 418 366 422 499
4 380 364 184 64
4 152 151 464 503
4 430 426 126 317
4 412 371 285 499
4 422 366 371 499
4 163 358 349 162
4 432 361 425 506
4 324 125 427 294
4 396 385 506 508
4 453 446 390 507
4 411 285 103 245
4 361 506 385 508
4 319 124 433 324
4 149 151 39 346
4 361 385 432 174
4 340 153 141 154
4 150 358 147 146
4 428 391 425 173
4 260 351 353 141
4 323 336 333 500
4 301 471 467 138
4 271 257 246 502
4 317 127 438 310
4 347 152 142 503
4 255 283 306 326
4 437 385 377 175
4 370 379 95 264
4 391 361 397 508
4 445 323 309 131
4 255 283 326 109
4 238 79 297 504
4 435 437 377 175
4 127 434 438 310
4 334 319 299 501
4 298 447 132 323
4 246 99 384 270
4 317 426 126 294
4 422 371 196 499
4 141 4 353 260
4 151 352 39 346
4 392 92 244 275
4 299 322 334 501
4 389 100 278 270
4 451 448 365 181
4 381 468 186 399
4 437 377 385 506
4 196 371 412 499
4 447 445 323 500
4 264 379 95 273
4 145 36 37 474
4 39 38 476 143
4 380 184 460 64
4 357 148 149 147
4 154 341 155 142
4 85 259 260 331
4 92 392 372 275
4 390 404 376 507
4 435 377 56 176
4 331 85 259 300
4 389 278 285 499
4 437 435 377 506
4 387 171 46 431
4 434 128 55 310
4 356 41 352 476
4 442 440 130 314
4 264 272 289 505
4 330 316 328 502
4 421 420 417 501
4 426 427 125 294
4 343 350 152 503
4 260 351 249 87
4 361 425 506 508
4 171 387 418 200
4 382 443 439 178
4 278 101 389 285
4 277 245 278 499
4 446 447 448 500
4 97 374 395 241
4 130 309 442 314
4 345 347 142 503
4 420 419 417 501
4 382 376 404 507
4 351 344 249 87
4 327 104 252 307
4 356 38 39 148
4 37 36 155 339
4 297 305 321 504
4 382 443 178 376
4 418 422 419 499
4 4 141 331 260
4 443 382 439 507
4 459 463 321 137
4 185 460 462 380
4 366 171 387 418
4 443 376 382 507
4 446 179 453 390
4 63 233 491 42
4 152 343 347 354
4 182 386 458 378
4 311 457 134 318
4 458 454 182 378
4 311 457 455 134
4 124 427 433 324
4 325 258 82 504
4 57 221 486 44
4 425 361 432 174
4 446 445 447 500
4 389 371 366 499
4 419 422 196 499
4 142 332 320 503
4 363 378 183 62
4 345 348 347 503
4 282 373 93 243
4 45 196 422 371
4 347 343 152 503
4 28 304 423 195
4 242 370 96 264
4 169 285 412 371
4 249 355 9 88
4 241 97 374 269
4 373 393 93 243
4 44 56 221 360
4 27 55 293 220
4 61 296 311 135
4 387 171 431 200
4 286 413 304 121
4 455 61 311 135
4 323 447 132 445
4 4 260 86 353
4 466 472 332 140
4 378 454 183 62
4 339 40 474 354
4 325 82 305 504
4 343 348 350 503
4 196 45 412 371
4 28 304 195 413
4 53 364 239 64
4 25 65 238 297
4 417 122 299 423
4 325 297 79 504
4 431 171 46 200
4 233 363 42 62
4 332 313 466 140
4 86 260 351 353
4 375 185 462 380
4 221 57 479 56
4 233 63 481 62
4 422 371 366 170
4 287 280 236 504
4 29 433 421 319
4 361 396 397 508
4 245 103 411 102
4 238 240 79 504
4 295 71 254 505
4 274 398 89 288
4 463 308 321 137
4 304 299 122 423
4 228 71 226 505
4 232 61 24 296
4 314 295 303 505
4 210 465 211 461
4 342 4 353 337
4 236 287 244 280
4 199 424 200 420
4 164 148 149 357
4 59 485 26 226
4 88 249 355 344
4 236 230 256 280
4 338 359 9 355
4 289 279 224 254
4 425 429 432 506
4 367 398 89 274
4 453 449 446 507
4 279 242 289 224
4 377 435 175 176
4 440 129 130 314
4 227 58 43 362
4 295 112 303 505
4 352 151 350 346
4 287 258 280 504
4 227 43 58 486
4 434 127 128 310
4 268 252 104 307
4 489 61 24 232
4 65 489 25 238
4 152 464 472 503
4 258 263 82 504
4 272 303 112 505
4 325 305 297 504
4 468 186 187 381
4 224 279 218 253
4 279 218 248 224
4 254 112 295 505
4 44 56 360 176
4 128 27 55 293
4 263 305 82 504
4 84 83 276 315
4 285 169 101 371
4 247 230 256 255
4 437 385 432 506
4 243 393 13 75
4 85 84 259 300
4 121 304 286 108
4 291 292 2 116
4 198 415 22 416
4 313 466 140 139
4 239 491 53 64
4 485 55 27 220
4 302 106 257 107
4 178 439 382 177
4 453 376 443 507
4 230 236 247 280
4 347 348 343 503
4 139 301 467 138
4 279 248 218 253
4 47 385 432 437
4 137 321 459 136
4 460 185 184 380
4 363 183 42 62
4 325 79 258 504
4 254 224 289 505
4 367 89 90 274
4 284 218 248 253
4 107 277 322 108
4 97 98 374 269
4 366 422 170 418
4 297 25 65 136
4 236 230 488 256
4 391 428 172 173
4 236 280 258 504
4 389 100 101 278
4 285 18 169 412
4 364 53 184 64
4 106 271 105 316
4 49 443 453 376
4 421 29 319 123
4 439 441 443 507
4 483 224 218 253
4 67 248 241 284
4 482 248 218 224
4 435 437 436 506
4 256 230 247 280
4 52 462 470 375
4 66 252 327 219
4 285 103 18 412
4 349 358 147 150
4 169 101 18 285
4 340 141 345 154
4 296 61 24 135
4 230 247 243 255
4 71 254 279 253
4 278 245 285 499
4 121 286 19 108
4 13 93 393 243
4 236 258 79 504
4 248 67 218 284
4 134 455 311 135
4 279 248 72 224
4 33 457 450 318
4 125 126 426 294
4 263 82 305 83
4 158 155 341 347
4 75 247 243 230
4 454 183 182 378
4 279 224 71 253
4 272 112 254 505
4 248 72 242 279
4 147 163 358 349
4 157 340 345 154
4 149 346 164 357
4 248 482 72 224
4 111 272 303 112
4 445 132 323 131
4 258 287 263 504
4 384 98 99 246
4 351 260 86 87
4 286 413 19 102
4 279 224 254 71
4 6 4 353 342
4 361 425 173 174
4 254 71 224 505
4 180 365 448 181
4 427 124 125 324
4 359 7 9 355
4 71 224 483 253
4 151 144 160 152
4 258 236 79 280
4 312 110 250 111
4 230 74 256 255
4 325 3 79 235
4 105 268 104 307
4 370 95 96 264
4 36 332 472 140
4 92 372 91 275
4 187 188 469 368
4 100 369 99 270
4 35 308 471 463
4 85 260 4 331
4 326 0 255 109
4 327 252 20 219
4 286 19 413 121
4 350 151 160 152
4 236 80 247 280
4 123 417 122 299
4 393 234 13 75
4 90 91 383 251
4 244 247 80 280
4 59 26 129 295
4 205 449 453 507
4 433 199 29 421
4 432 429 202 506
4 39 186 473 399
4 247 237 10 80
4 247 487 80 236
4 236 247 487 230
4 89 398 9 288
4 202 436 437 506
4 240 236 79 504
4 279 72 242 224
4 443 441 205 507
4 10 244 247 80
4 446 180 179 390
4 295 254 118 112
4 228 224 71 505
4 30 127 438 317
4 134 457 33 318
4 118 254 23 112
4 47 385 437 175
4 182 386 50 458
4 373 93 94 282
4 394 225 72 242
4 453 443 205 507
4 432 202 437 506
4 470 188 52 375
4 432 385 47 174
4 142 155 36 354
4 362 58 43 177
4 447 132 133 298
4 433 29 124 319
4 444 208 456 207
4 155 341 347 142
4 255 74 0 326
4 371 422 45 170
4 453 179 49 376
4 247 267 237 487
4 394 96 14 242
4 178 443 49 376
4 247 243 13 75
4 130 309 32 442
4 210 35 471 463
4 356 352 39 476
4 256 74 0 255
4 488 230 74 256
4 236 244 80 280
4 430 126 30 317
4 450 133 33 318
4 304 122 28 423
4 414 68 20 262
4 487 237 247 80
4 52 462 211 470
4 46 387 431 172
4 283 306 109 110
4 72 225 394 362
4 267 237 10 247
4 248 265 225 482
4 215 65 212 480
4 213 59 206 478
4 64 215 212 481
4 58 213 206 479
4 67 395 222 360
4 327 293 66 219
4 79 297 325 235
4 410 265 17 69
4 92 10 392 244
4 82 3 258 325
4 408 14 265 73
4 225 14 265 248
4 337 353 342 156
4 97 395 17 241
4 254 289 272 505
4 162 359 338 355
4 471 308 35 138
4 253 483 223 262
4 326 74 0 231
4 104 252 20 327
4 20 120 327 219
4 395 17 222 168
4 488 79 236 256
4 364 392 237 80
4 256 79 236 280
4 248 241 17 67
4 451 386 50 181
4 223 23 253 262
4 290 0 266 76
4 452 309 32 131
4 344 88 249 87
4 258 3 79 325
4 142 347 155 354
4 61 216 209 480
4 55 214 203 478
4 216 62 209 481
4 214 56 203 479
4 267 10 81 405
4 76 266 488 231
4 343 350 160 152
4 462 52 185 375
4 152 145 161 354
4 256 258 79 280
4 78 488 266 235
4 151 477 159 350
4 21 415 197 414
4 113 290 1 291
4 194 16 410 409
4 193 408 15 409
4 192 406 12 407
4 406 191 11 405
4 347 158 155 354
4 7 9 355 88
4 443 205 49 453
4 94 95 379 273
4 363 234 393 75
4 225 394 14 242
4 202 47 432 437
4 152 160 343 475
4 28 304 413 121
4 412 45 169 371
4 355 150 349 344
4 223 483 70 262
4 73 225 265 482
4 339 474 36 354
4 225 248 482 72
4 118 23 254 223
4 3 325 117 235
4 457 207 33 450
4 165 234 13 393
4 346 149 163 357
4 225 14 394 166
4 151 160 477 350
4 237 10 392 189
4 86 6 4 353
4 292 2 266 291
4 219 68 483 262
4 416 415 22 262
4 292 266 78 291
4 66 483 218 253
4 143 159 352 151
4 69 265 222 482
4 463 35 308 137
4 266 1 290 291
4 267 81 237 487
4 480 489 238 232
4 351 353 141 345
4 248 67 482 218
4 76 266 290 291
4 416 70 415 262
4 483 71 253 223
4 408 265 15 409
4 478 485 226 220
4 159 143 477 151
4 145 475 152 161
4 343 152 475 161
4 258 79 3 256
4 65 489 238 480
4 267 77 13 407
4 59 485 226 478
4 154 141 345 142
4 256 0 74 231
4 326 296 74 231
4 267 406 11 405
4 266 256 488 231
4 61 489 480 232
4 416 23 70 262
4 145 152 36 354
4 409 408 265 73
4 349 147 149 150
4 248 17 222 67
4 152 144 160 475
4 477 144 160 151
4 292 266 3 78
4 327 120 293 219
4 222 395 168 360
4 256 79 3 235
4 267 234 77 487
4 117 325 297 235
4 488 256 266 235
4 414 21 415 262
4 63 233 42 62
4 57 221 44 56
4 219 483 253 262
4 222 265 248 482
4 55 485 478 220
4 16 265 410 409
4 394 225 166 362
4 81 406 267 405
4 414 415 68 262
4 265 410 409 69
4 189 392 237 364
4 267 12 406 407
4 343 152 161 354
4 143 352 39 151
4 2 1 266 291
4 149 163 147 349
4 170 171 366 418
4 345 157 154 142
4 219 253 20 262
4 393 165 234 363
4 222 265 17 248
4 226 440 59 206
4 56 221 435 203
4 460 239 64 212
4 209 61 232 455
4 267 406 77 407
4 78 266 488 76
4 439 227 58 206
4 220 55 434 203
4 62 233 454 209
4 238 65 212 459
4 151 159 352 350
4 75 487 247 230
4 21 22 415 262
4 247 234 267 487
4 265 16 15 409
4 0 256 266 231
4 114 326 0 231
4 239 64 212 481
4 65 212 480 238
4 227 479 58 206
4 478 226 59 206
4 266 256 3 235
4 117 292 3 78
4 156 141 345 340
4 223 70 23 262
4 225 265 14 73
4 70 483 68 262
4 406 11 12 267
4 150 349 358 162
4 69 73 265 482
4 149 346 163 349
4 209 62 233 481
4 61 480 209 232
4 56 479 221 203
4 55 220 478 203
4 78 266 3 235
4 474 161 36 354
4 20 68 219 262
4 339 36 158 354
4 347 341 157 142
4 237 10 81 267
4 76 0 266 231
4 222 17 265 69
4 296 326 114 231
4 113 115 76 291
4 291 115 78 116
4 415 68 119 197
4 119 70 415 198
4 77 192 406 190
4 406 191 81 190
4 69 194 409 167
4 73 409 193 167
4 13 234 247 75
4 153 337 342 156
4 359 146 162 338
4 77 81 267 487
4 476 352 39 159
4 36 145 161 474
4 159 39 476 143
4 65 25 60 136
4 158 155 36 339
4 57 56 44 176
4 54 27 55 128
4 43 58 57 177
4 63 42 183 62
4 61 60 24 135
4 356 39 352 164
4 39 356 148 164
4 184 53 63 64
4 59 26 54 129
4 157 345 347 142
4 150 162 338 355
4 337 353 156 141
4 13 234 267 247
4 37 40 474 339
4 356 38 41 476
4 5 4 342 337
4 359 9 8 338
4 25 34 60 136
4 44 48 57 176
4 27 54 31 128
4 43 57 48 177
4 51 42 183 63
4 60 34 24 135
4 356 39 38 476
4 474 36 37 339
4 184 53 51 63
4 26 31 54 129
4 13 234 77 267
4 156 153 337 141
4 150 162 146 338
4 74 488 256 231
4 55 485 27 54
4 491 63 53 64
4 61 489 24 60
4 489 65 25 60
4 43 57 58 486
4 485 59 26 54
4 141 353 156 345
4 76 78 266 291
4 148 352 39 164
4 162 150 349 355
4 44 194 69 167
4 73 193 43 167
4 27 119 68 197
4 77 42 192 190
4 81 191 53 190
4 76 24 115 113
4 70 119 26 198
4 115 25 78 116
4 158 36 155 354
4 159 352 39 143
4 415 70 68 262
4 161 145 36 354
4 3 117 78 235
4 73 265 409 69
4 8 7 9 359
4 4 6 5 342
4 256 488 79 235
4 341 154 157 142
4 115 78 76 291
4 70 68 119 415
4 81 77 406 190
4 409 73 69 167
4 406 77 81 267
4 68 120 27 197
4 69 194 44 168
4 149 163 357 147
4 76 114 24 113
4 73 43 193 166
4 78 25 117 116
4 165 42 192 77
4 81 53 191 189
4 253 66 483 219
4 67 222 248 482
4 141 156 153 340
4 358 150 162 146
4 487 247 234 75
4 198 70 415 416
4 291 78 292 116
4 27 119 485 68
4 190 53 81 491
4 416 22 23 262
4 44 69 486 167
4 486 73 43 167
4 265 15 14 408
4 410 194 409 69
4 409 193 408 73
4 77 406 192 407
4 191 406 81 405
4 197 415 68 414
4 113 76 290 291
4 115 489 24 76
4 115 25 489 78
4 23 70 118 416
4 11 10 267 405
4 190 77 42 491
4 485 119 26 70
4 486 69 73 167
4 190 81 77 491
4 119 485 68 70
4 489 115 78 76
4 266 3 2 292
4 414 20 21 262
4 17 16 265 410
4 1 0 266 290
4 78 117 292 116
4 267 13 12 407
4 484 221 479 203
4 478 220 484 203
4 118 70 23 223
4 212 490 480 238
4 481 212 239 490
4 481 233 209 490
4 490 209 480 232
4 484 479 227 206
4 478 484 226 206
4 410 194 69 168
4 68 120 197 414
4 214 213 479 484
4 480 490 215 216
4 490 481 215 216
4 214 213 484 478
4 290 114 76 113
4 193 408 73 166
4 192 165 77 407
4 189 191 81 405
4 227 221 479 484
4 238 490 480 232
4 239 233 481 490
4 484 226 220 478
4 118 70 26 198
4 478 484 214 203
4 479 214 484 203
4 481 215 212 490
4 215 212 490 480
4 490 209 481 216
4 209 490 480 216
4 484 213 479 206
4 213 484 478 206
4 63 53 190 491
4 119 54 27 485
4 486 57 44 167
4 486 43 57 167
4 489 60 25 115
4 24 60 489 115
4 63 190 42 491
4 119 26 54 485
4 118 70 198 416
4 48 57 43 167
4 42 51 190 63
4 190 51 53 63
4 34 60 24 115
4 54 31 26 119
4 60 34 25 115
4 57 48 44 167
4 31 54 27 119
4 201 317 30 438
4 30 317 201 430
4 493 210 465 471
4 493 465 210 461
4 204 309 32 452
4 204 32 309 442
4 386 208 50 458
4 50 208 386 451
4 413 245 102 286
4 102 245 413 411
4 494 431 200 387
4 494 200 431 424
4 507 452 445 309
4 507 445 452 449
4 506 430 426 429
4 506 426 430 317
4 496 249 351 344
4 496 351 249 281
4 497 365 500 400
4 497 500 365 448
4 67 284 492 218
4 492 284 67 241
4 445 507 446 449
4 446 507 445 500
4 497 230 75 243
4 497 75 230 229
4 288 496 249 281
4 249 496 288 398
4 227 479 486 58
4 227 486 479 221
4 57 486 479 58
4 57 479 486 221
4 239 481 491 64
4 239 491 481 233
4 63 491 481 64
4 63 481 491 233
4 447 318 133 450
4 133 318 447 298
4 74 230 497 255
4 74 497 230 229
4 239 380 64 364
4 239 64 380 460
4 502 269 384 246
4 502 384 269 492
4 362 439 495 227
4 495 439 362 382
4 507 204 205 449
4 507 205 204 441
4 201 506 202 429
4 202 506 201 436
4 390 448 180 365
4 180 448 390 446
4 270 384 502 369
4 270 502 384 246
4 273 373 94 282
4 273 94 373 379
4 297 238 459 65
4 459 238 297 504
4 459 297 136 321
4 459 136 297 65
4 470 368 498 469
4 498 368 470 375
4 260 141 496 351
4 496 141 260 331
4 322 286 501 304
4 322 501 286 277
4 499 501 286 304
4 499 286 501 277
4 218 252 253 284
4 253 252 218 66
4 362 439 177 382
4 177 439 362 58
4 440 295 129 314
4 129 295 440 59
4 387 428 172 391
4 172 428 387 431
4 504 275 80 244
4 504 80 275 372
4 392 80 275 244
4 392 275 80 372
4 226 505 295 59
4 295 505 226 71
4 295 26 226 59
4 223 254 295 71
4 223 295 254 118
4 221 222 360 67
4 293 219 220 66
4 233 234 363 75
4 225 227 362 72
4 364 237 239 80
4 231 232 296 74
4 235 297 238 79
4 223 295 226 71
4 346 164 148 149
4 148 164 346 352
4 148 39 346 149
4 346 39 148 352
4 67 17 395 241
4 67 395 17 222
4 219 252 253 66
4 219 253 252 20
4 120 20 68 219
4 120 68 20 414
4 168 17 69 410
4 168 69 17 222
4 225 242 248 72
4 248 242 225 14
4 254 223 253 71
4 253 223 254 23
4 354 142 152 36
4 354 152 142 347
4 10 80 392 244
4 392 80 10 237
4 14 166 73 408
4 73 166 14 225
4 189 10 81 237
4 189 81 10 405
4 13 165 77 234
4 77 165 13 407
4 0 114 76 290
4 76 114 0 231
4 120 68 293 219
4 120 293 68 27
4 220 293 68 219
4 220 68 293 27
4 118 70 295 26
4 118 295 70 223
4 226 295 70 26
4 226 70 295 223
4 221 69 360 222
4 221 360 69 44
4 168 360 69 222
4 168 69 360 44
4 117 78 297 25
4 117 297 78 235
4 238 297 78 25
4 238 78 297 235
4 239 81 364 53
4 239 364 81 237
4 189 364 81 53
4 189 81 364 237
4 227 73 362 43
4 227 362 73 225
4 166 362 73 43
4 166 73 362 225
4 114 76 296 231
4 114 296 76 24
4 232 296 76 231
4 232 76 296 24
4 233 77 363 234
4 233 363 77 42
4 165 363 77 234
4 165 77 363 42

CELL_TYPES 2819
1
1
1
1
1
1
1
1
1
1
1
1
1
1
1
1
1
1
1
1
1
1
1
1
1
1
1
1
1
1
1
1
1
1
1
1
1
1
1
1
1
1
1
1
1
1
1
1
1
1
1
1
1
1
1
1
1
1
1
1
1
1
1
1
1
1
1
1
1
1
1
1
1
1
1
1
1
1
1
1
1
1
3
3
3
3
3
3
3
3
3
3
3
3
3
3
3
3
3
3
3
3
3
3
3
3
3
3
3
3
3
3
3
3
3
3
3
3
3
3
3
3
3
3
3
3
3
3
3
3
3
3
3
3
3
3
3
3
3
3
3
3
3
3
3
3
3
3
3
3
3
3
3
3
3
3
3
3
3
3
3
3
3
3
3
3
3
3
3
3
3
3
3
3
3
3
3
3
3
3
3
3
3
3
3
3
3
3
3
3
3
3
3
3
3
3
3
3
3
3
3
3
3
3
3
3
3
3
3
3
3
3
3
3
3
3
3
3
3
3
3
3
3
3
3
3
3
3
3
3
3
3
3
3
3
3
3
3
3
3
3
3
3
3
3
3
3
3
3
3
3
3
3
3
3
3
3
3
3
3
3
3
3
3
3
3
3
3
3
3
3
3
3
3
3
3
3
3
3
3
3
3
3
3
3
3
3
3
3
3
3
3
3
3
3
3
3
3
3
3
3
3
3
3
3
3
3
3
3
3
3
3
3
3
3
3
3
3
3
3
3
3
3
3
3
3
3
3
3
3
3
3
3
3
3
3
3
3
3
3
3
3
3
3
3
3
3
3
3
3
3
3
3
3
3
3
3
3
3
3
3
3
3
3
5
5
5
5
5
5
5
5
5
5
5
5
5
5
5
5
5
5
5
5
5
5
5
5
5
5
5
5
5
5
5
5
5
5
5
5
5
5
5
5
5
5
5
5
5
5
5
5
5
5
5
5
5
5
5
5
5
5
5
5
5
5
5
5
5
5
5
5
5
5
5
5
5
5
5
5
5
5
5
5
5
5
5
5
5
5
5
5
5
5
5
5
5
5
5
5
5
5
5
5
5
5
5
5
5
5
5
5
5
5
5
5
5
5
5
5
5
5
5
5
5
5
5
5
5
5
5
5
5
5
5
5
5
5
5
5
5
5
5
5
5
5
5
5
5
5
5
5
5
5
5
5
5
5
5
5
5
5
5
5
5
5
5
5
5
5
5
5
5
5
5
5
5
5
5
5
5
5
5
5
5
5
5
5
5
5
5
5
5
5
5
5
5
5
5
5
5
5
5
5
5
5
5
5
5
5
5
5
5
5
5
5
5
5
5
5
5
5
5
5
5
5
5
5
5
5
5
5
5
5
5
5
5
5
5
5
5
5
5
5
5
5
5
5
5
5
5
5
5
5
5
5
5
5
5
5
5
5
5
5
5
5
5
5
5
5
5
5
5
5
5
5
5
5
5
5
5
5
5
5
5
5
5
5
5
5
5
5
5
5
5
5
5
5
5
5
5
5
5
5
5
5
5
5
5
5
5
5
5
5
5
5
5
5
5
5
5
5
5
5
5
5
5
5
5
5
5
5
5
5
5
5
5
5
5
5
5
5
5
5
5
5
5
5
5
5
5
5
5
5
5
5
5
5
5
5
5
5
5
5
5
5
5
5
5
5
5
5
5
5
5
5
5
5
5
5
5
5
5
5
5
5
5
5
5
5
5
5
5
5
5
5
5
5
5
5
5
5
5
5
5
5
5
5
5
5
5
5
5
5
5
5
5
5
5
5
5
5
5
5
5
5
5
5
5
5
5
5
5
5
5
5
5
5
5
5
5
5
5
5
5
5
5
5
5
5
5
5
5
5
5
5
5
5
5
5
5
5
5
5
5
5
5
5
5
5
5
5
5
5
5
5
5
5
5
5
5
5
5
5
5
5
5
5
5
5
5
5
5
5
5
5
5
5
5
5
5
5
5
5
5
5
5
5
5
5
5
5
5
5
5
5
5
5
5
5
5
5
5
5
5
5
5
5
5
5
5
5
5
5
5
5
5
5
5
5
5
5
5
5
5
5
5
5
5
5
5
5
5
5
5
5
5
5
5
5
5
5
5
5
5
5
5
5
5
5
5
5
5
5
5
5
5
5
5
5
5
5
5
5
5
5
5
5
5
5
5
5
5
5
5
5
5
5
5
5
5
5
5
5
5
5
5
5
5
5
5
5
5
5
5
5
5
5
5
5
5
5
5
5
5
5
5
5
5
5
5
5
5
5
5
5
5
5
5
5
5
5
5
5
5
5
5
5
5
5
5
5
5
5
5
5
5
5
5
5
5
5
5
5
5
5
5
5
5
5
5
5
5
5
5
5
5
5
5
5
5
5
5
5
5
5
5
5
5
5
5
5
5
5
5
5
5
5
5
5
5
5
5
5
5
5
5
5
5
5
5
5
5
5
5
5
5
5
5
5
5
5
5
5
5
5
5
5
5
5
5
5
5
5
5
5
5
5
5
5
5
5
5
5
5
5
5
5
5
5
5
5
5
5
5
5
5
5
5
5
5
5
5
5
5
5
5
5
5
5
5
5
5
5
5
5
5
5
5
5
5
5
5
5
5
5
5
5
5
5
5
5
5
5
5
5
5
5
5
5
5
5
5
5
5
5
5
5
5
5
5
5
5
5
5
5
5
5
5
5
5
5
5
5
5
5
5
5
5
5
5
5
5
5
5
5
5
5
5
5
5
5
5
5
5
5
5
5
5
5
5
5
5
5
5
5
5
5
5
5
5
5
5
5
5
5
5
5
5
5
5
5
5
5
5
5
5
5
5
5
5
5
5
5
5
5
5
5
5
5
5
5
5
5
5
5
5
5
5
5
5
5
5
5
5
5
5
5
5
5
5
5
5
5
5
5
5
5
5
5
5
5
5
5
5
5
5
5
5
5
5
5
5
5
5
5
5
5
5
5
5
5
5
5
5
5
5
5
5
5
5
5
5
5
5
5
5
5
5
5
5
5
5
5
5
5
5
5
5
5
5
5
5
5
5
5
10
10
10
10
10
10
10
10
10
10
10
10
10
10
10
10
10
10
10
10
10
10
10
10
10
10
10
10
10
10
10
10
10
10
10
10
10
10
10
10
10
10
10
10
10
10
10
10
10
10
10
10
10
10
10
10
10
10
10
10
10
10
10
10
10
10
10
10
10
10
10
10
10
10
10
10
10
10
10
10
10
10
10
10
10
10
10
10
10
10
10
10
10
10
10
10
10
10
10
10
10
10
10
10
10
10
10
10
10
10
10
10
10
10
10
10
10
10
10
10
10
10
10
10
10
10
10
10
10
10
10
10
10
10
10
10
10
10
10
10
10
10
10
10
10
10
10
10
10
10
10
10
10
10
10
10
10
10
10
10
10
10
10
10
10
10
10
10
10
10
10
10
10
10
10
10
10
10
10
10
10
10
10
10
10
10
10
10
10
10
10
10
10
10
10
10
10
10
10
10
10
10
10
10
10
10
10
10
10
10
10
10
10
10
10
10
10
10
10
10
10
10
10
10
10
10
10
10
10
10
10
10
10
10
10
10
10
10
10
10
10
10
10
10
10
10
10
10
10
10
10
10
10
10
10
10
10
10
10
10
10
10
10
10
10
10
10
10
10
10
10
10
10
10
10
10
10
10
10
10
10
10
10
10
10
10
10
10
10
10
10
10
10
10
10
10
10
10
10
10
10
10
10
10
10
10
10
10
10
10
10
10
10
10
10
10
10
10
10
10
10
10
10
10
10
10
10
10
10
10
10
10
10
10
10
10
10
10
10
10
10
10
10
10
10
10
10
10
10
10
10
10
10
10
10
10
10
10
10
10
10
10
10
10
10
10
10
10
10
10
10
10
10
10
10
10
10
10
10
10
10
10
10
10
10
10
10
10
10
10
10
10
10
10
10
10
10
10
10
10
10
10
10
10
10
10
10
10
10
10
10
10
10
10
10
10
10
10
10
10
10
10
10
10
10
10
10
10
10
10
10
10
10
10
10
10
10
10
10
10
10
10
10
10
10
10
10
10
10
10
10
10
10
10
10
10
10
10
10
10
10
10
10
10
10
10
10
10
10
10
10
10
10
10
10
10
10
10
10
10
10
10
10
10
10
10
10
10
10
10
10
10
10
10
10
10
10
10
10
10
10
10
10
10
10
10
10
10
10
10
10
10
10
10
10
10
10
10
10
10
10
10
10
10
10
10
10
10
10
10
10
10
10
10
10
10
10
10
10
10
10
10
10
10
10
10
10
10
10
10
10
10
10
10
10
10
10
10
10
10
10
10
10
10
10
10
10
10
10
10
10
10
10
10
10
10
10
10
10
10
10
10
10
10
10
10
10
10
10
10
10
10
10
10
10
10
10
10
10
10
10
10
10
10
10
10
10
10
10
10
10
10
10
10
10
10
10
10
10
10
10
10
10
10
10
10
10
10
10
10
10
10
10
10
10
10
10
10
10
10
10
10
10
10
10
10
10
10
10
10
10
10
10
10
10
10
10
10
10
10
10
10
10
10
10
10
10
10
10
10
10
10
10
10
10
10
10
10
10
10
10
10
10
10
10
10
10
10
10
10
10
10
10
10
10
10
10
10
10
10
10
10
10
10
10
10
10
10
10
10
10
10
10
10
10
10
10
10
10
10
10
10
10
10
10
10
10
10
10
10
10
10
10
10
10
10
10
10
10
10
10
10
10
10
10
10
10
10
10
10
10
10
10
10
10
10
10
10
10
10
10
10
10
10
10
10
10
10
10
10
10
10
10
10
10
10
10
10
10
10
10
10
10
10
10
10
10
10
10
10
10
10
10
10
10
10
10
10
10
10
10
10
10
10
10
10
10
10
10
10
10
10
10
10
10
10
10
10
10
10
10
10
10
10
10
10
10
10
10
10
10
10
10
10
10
10
10
10
10
10
10
10
10
10
10
10
10
10
10
10
10
10
10
10
10
10
10
10
10
10
10
10
10
10
10
10
10
10
10
10
10
10
10
10
10
10
10
10
10
10
10
10
10
10
10
10
10
10
10
10
10
10
10
10
10
10
10
10
10
10
10
10
10
10
10
10
10
10
10
10
10
10
10
10
10
10
10
10
10
10
10
10
10
10
10
10
10
10
10
10
10
10
10
10
10
10
10
10
10
10
10
10
10
10
10
10
10
10
10
10
10
10
10
10
10
10
10
10
10
10
10
10
10
10
10
10
10
10
10
10
10
10
10
10
10
10
10
10
10
10
10
10
10
10
10
10
10
10
10
10
10
10
10
10
10
10
10
10
10
10
10
10
10
10
10
10
10
10
10
10
10
10
10
10
10
10
10
10
10
10
10
10
10
10
10
10
10
10
10
10
10
10
10
10
10
10
10
10
10
10
10
10
10
10
10
10
10
10
10
10
10
10
10
10
10
10
10
10
10
10
10
10
10
10
10
10
10
10
10
10
10
10
10
10
10
10
10
10
10
10
10
10
10
10
10
10
10
10
10
10
10
10
10
10
10
10
10
10
10
10
10
10
10
10
10
10
10
10
10
10
10
10
10
10
10
10
10
10
10
10
10
10
10
10
10
10
10
10
10
10
10
10
10
10
10
10
10
10
10
10
10
10
10
10
10
10
10
10
10
10
10
10
10
10
10
10
10
10
10
10
10
10
10
10
10
10
10
10
10
10
10
10
10
10
10
10
10
10
10
10
10
10
10
10
10
10
10
10
10
10
10
10
10
10
10
10
10
10
10
10
10
10
10
10
10
10
10
10
10
10
10
10
10
10
10
10
10
10
10
10
10
10
10
10
10
10
10
10
10
10
10
10
10
10
10
10
10
10
10
10
10
10
10
10
10
10
10
10
10
10
10
10
10
10
10
10
10
10
10
10
10
10
10
10
10
10
10
10
10
10
10
10
10
10
10
10
10
10
10
10
10
10
10
10
10
10
10
10
10
10
10
10
10
10
10
10
10
10
10
10
10
10
10
10
10
10
10
10
10
10
10
10
10
10
10
10
10
10
10
10
10
10
10
10
10
10
10
10
10
10
10
10
10
10
10
10
10
10
10
10
10
10
10
10
10
10
10
10
10
10
10
10
10
10
10
10
10
10
10
10
10
10
10
10
10
10
10
10
10
10
10
10
10
10
10
10
10
10
10
10
10
10
10
10
10
10
10
10
10
10
10
10
10
10
10
10
10
10
10
10
10
10
10
10
10
10
10
10
10
10
10
10
10
10
10
10
10
10
10
10
10
10
10
10
10
10
10
10
10
10
10
10
10
10
10
10
10
10
10
10
10
10
10
10
10
10
10
10
10
10
10
10
10
10
10
10
10
10
10
10
10
10
10
10
10
10
10
10
10
10
10
10
10
10
10
10
10
10
10
10
10
10
10
