# vtk DataFile Version 2.0
, Created by Gmsh 4.13.1 
ASCII
DATASET UNSTRUCTURED_GRID
POINTS 534 double
4.733459017946621 2.253424963806612 -43.99724524572397
-4.733459017946621 2.253424963806613 -43.99724524572397
9.416256050659054 2.253424963806612 -41.96375261844045
-9.416256050659054 2.253424963806615 -41.96375261844045
9.416256050659054 2.253424963806612 -38.03624738155955
4.733459017946621 2.253424963806612 -36.00275475427603
-4.733459017946621 2.253424963806613 -36.00275475427603
-9.416256050659054 2.253424963806615 -38.03624738155955
4.733459017946621 2.253424963806612 -83.99724524572397
-4.733459017946621 2.253424963806613 -83.99724524572397
9.416256050659054 2.253424963806612 -81.96375261844045
-9.416256050659054 2.253424963806615 -81.96375261844045
9.416256050659054 2.253424963806612 -78.03624738155955
4.733459017946621 2.253424963806612 -76.00275475427603
-4.733459017946621 2.253424963806613 -76.00275475427603
-9.416256050659054 2.253424963806615 -78.03624738155955
8.75 0 -43.99724524572397
13.18966194507641 0 -41.96375261844045
13.18966194507641 0 -38.03624738155955
8.75 0 -36.00275475427603
8.75 0 -3
11.75 0 -3
11.75 0 0
-11.75 0 0
-11.75 0 -3
-8.75 0 -3
-8.75 1.071565949253934e-15 -36.00275475427603
-13.18966194507641 1.615267728287348e-15 -38.03624738155955
-13.18966194507641 1.615267728287348e-15 -41.96375261844045
-8.75 1.071565949253934e-15 -43.99724524572397
-8.75 1.071565949253934e-15 -76.00275475427603
-13.18966194507641 1.615267728287348e-15 -78.03624738155956
-13.18966194507641 1.615267728287348e-15 -81.96375261844044
-8.75 1.071565949253934e-15 -83.99724524572397
-8.75 0 -120
8.75 0 -120
8.75 0 -83.99724524572397
13.18966194507641 0 -81.96375261844044
13.18966194507641 0 -78.03624738155956
8.75 0 -76.00275475427603
8.750000000000002 9.869381045708831 -41.96375261844045
8.750000000000002 9.869381045708831 -38.03624738155955
8.75 9.869381045708835 -38.50605156694232
7.258872626628157 11.01253605741135 -38.03624738155955
-7.258872626628158 11.01253605741135 -38.03624738155955
-8.75 9.869381045708835 -38.50605156694232
-8.749999999999996 9.869381045708836 -38.03624738155955
-8.749999999999996 9.869381045708836 -41.96375261844045
-8.75 9.869381045708833 -41.49394843305768
-7.258872626628148 11.01253605741136 -41.96375261844045
7.258872626628146 11.01253605741136 -41.96375261844045
8.75 9.869381045708833 -41.49394843305768
8.75 20 -3
8.75 20 -34.34265540760985
11.75 23 -3
-11.75 23 -3
-8.75 20 -3
11.75 23 0
-11.75 23 0
-8.75 20 -34.34265540760985
-8.75 20 -45.65734459239015
-8.75 20 -74.34265540760984
-8.75 9.869381045708835 -78.50605156694232
-8.749999999999996 9.869381045708836 -78.03624738155956
8.750000000000002 9.869381045708831 -78.03624738155956
8.75 9.869381045708835 -78.50605156694232
7.258872626628157 11.01253605741135 -78.03624738155956
-7.258872626628158 11.01253605741135 -78.03624738155956
-8.749999999999996 9.869381045708836 -81.96375261844044
-8.75 9.869381045708833 -81.49394843305768
-7.258872626628198 11.01253605741133 -81.96375261844044
7.258872626628199 11.01253605741133 -81.96375261844044
8.75 9.869381045708833 -81.49394843305768
8.750000000000002 9.869381045708831 -81.96375261844044
-8.75 20 -85.65734459239016
-8.75 20 -114.3426554076098
-8.75 6.234218372384402 -120
8.75 6.234218372384402 -120
8.75 20 -85.65734459239016
8.75 20 -114.3426554076098
8.75 20 -45.65734459239015
8.75 20 -74.34265540760984
1.922583009955606 4.877215692576766 -43.99724524572397
-1.922583009955591 4.877215692576772 -43.99724524572397
7.105427357601002e-15 2.253424963806612 -43.99724524572397
7.081070217302882 2.253424963806612 -42.99484726310204
5.996908784059069 7.601374028079086 -41.96375261844045
-1.557006589908902e-15 9.682138300968443 -41.96375261844045
-5.996908784059065 7.601374028079089 -41.96375261844045
-7.081070217302879 2.253424963806612 -42.99484726310204
7.081070217302879 2.253424963806612 -37.00515273689796
-1.06581410364015e-14 2.253424963806612 -36.00275475427603
-7.081070217302882 2.253424963806612 -37.00515273689796
5.996908784059069 7.601374028079086 -38.03624738155955
-1.557006589908902e-15 9.682138300968443 -38.03624738155955
-5.996908784059065 7.601374028079089 -38.03624738155955
1.922583009955606 4.877215692576766 -36.00275475427603
-1.922583009955591 4.877215692576772 -36.00275475427603
1.922583009955606 4.877215692576766 -83.99724524572397
-1.922583009955591 4.877215692576772 -83.99724524572397
7.105427357601002e-15 2.253424963806612 -83.99724524572397
7.081070217302882 2.253424963806612 -82.99484726310203
5.996908784059069 7.601374028079086 -81.96375261844044
-1.557006589908902e-15 9.682138300968443 -81.96375261844044
-5.996908784059065 7.601374028079089 -81.96375261844044
-7.081070217302879 2.253424963806612 -82.99484726310205
7.081070217302879 2.253424963806612 -77.00515273689795
-1.06581410364015e-14 2.253424963806612 -76.00275475427603
-7.081070217302882 2.253424963806612 -77.00515273689797
5.996908784059069 7.601374028079086 -78.03624738155956
-1.557006589908902e-15 9.682138300968443 -78.03624738155956
-5.996908784059065 7.601374028079089 -78.03624738155956
1.922583009955606 4.877215692576766 -76.00275475427603
-1.922583009955591 4.877215692576772 -76.00275475427603
8.75 0 -29.40220380342081
8.75 0 -22.8016528525656
8.75 0 -16.2011019017104
8.75 0 -9.600550950855201
5.875000000000016 0 0
3.730349362740526e-14 0 0
-5.874999999999972 0 0
-8.75 0 -9.600550950855212
-8.75 0 -16.20110190171042
-8.75 0 -22.80165285256562
-8.75 0 -29.40220380342081
-8.75 0 -50.39834714743438
-8.75 0 -56.79944904914479
-8.75 0 -63.2005509508552
-8.75 0 -69.60165285256562
-8.75 0 -89.99770437143664
-8.75 0 -95.99816349714932
-8.75 0 -101.998622622862
-8.75 0 -107.9990817485747
-8.75 0 -113.9995408742874
2.916666666666666 0 -120
-2.916666666666668 0 -120
8.75 0 -89.99770437143664
8.75 0 -95.99816349714932
8.75 0 -101.998622622862
8.75 0 -107.9990817485747
8.75 0 -113.9995408742874
8.75 0 -50.39834714743438
8.75 0 -56.79944904914479
8.75 0 -63.2005509508552
8.75 0 -69.60165285256562
12.0286475599881 5.410990676668098 -41.96375261844045
8.750000000000002 5.013880151417252 -43.38590705958503
12.0286475599881 5.410990676668098 -38.03624738155955
2.546130932003136 12.94157639171108 -38.03624738155955
-2.546130932003126 12.94157639171108 -38.03624738155955
-12.0286475599881 5.410990676668107 -38.03624738155955
-12.0286475599881 5.410990676668107 -41.96375261844045
2.54613093200313 12.94157639171108 -41.96375261844045
-2.546130932003123 12.94157639171108 -41.96375261844045
8.750000000000002 5.013880151417237 -36.61409294041496
8.75 6.666666666666651 -3
8.75 13.33333333333329 -3
8.75 20 -28.07412432608788
8.75 20 -21.80559324456591
8.75 20 -15.53706216304395
8.75 20 -9.268531081521978
8.75 14.93469052285441 -36.42435348727609
-5.875000000000016 23 -3
-3.730349362740526e-14 23 -3
5.874999999999972 23 -3
-11.75 5.749999999999988 -3
-11.75 11.49999999999999 -3
-11.75 17.24999999999999 -3
-8.75 13.33333333333335 -3
-8.75 6.666666666666705 -3
-2.916666666666666 20 -3
2.916666666666668 20 -3
11.75 5.749999999999988 -3
11.75 11.49999999999999 -3
11.75 17.24999999999999 -3
11.75 5.749999999999988 0
11.75 11.49999999999999 0
11.75 17.24999999999999 0
-5.875000000000016 23 0
-3.730349362740526e-14 23 0
5.874999999999972 23 0
-11.75 5.749999999999988 0
-11.75 11.49999999999999 0
-11.75 17.24999999999999 0
-8.75 20 -9.268531081521967
-8.75 20 -15.53706216304393
-8.75 20 -21.8055932445659
-8.75 20 -28.07412432608787
-8.75 14.93469052285441 -36.42435348727609
-8.749999999999998 5.013880151417243 -36.61409294041496
-8.749999999999998 5.013880151417251 -43.38590705958503
-8.75 14.93469052285443 -43.57564651272392
-8.75 20 -68.60559324456591
-8.75 20 -62.86853108152197
-8.75 20 -57.13146891847803
-8.75 20 -51.39440675543408
-8.75 14.93469052285441 -76.42435348727609
-8.749999999999998 5.013880151417243 -76.61409294041498
-12.0286475599881 5.410990676668107 -78.03624738155956
12.0286475599881 5.410990676668098 -78.03624738155956
2.546130932003136 12.94157639171108 -78.03624738155956
-2.546130932003126 12.94157639171108 -78.03624738155956
-12.0286475599881 5.410990676668107 -81.96375261844044
2.54613093200315 12.94157639171108 -81.96375261844044
-2.54613093200314 12.94157639171108 -81.96375261844044
12.0286475599881 5.410990676668098 -81.96375261844044
-8.749999999999998 5.013880151417251 -83.38590705958504
-8.75 14.93469052285443 -83.57564651272392
-8.75 20 -108.6055932445659
-8.75 20 -102.868531081522
-8.75 20 -97.13146891847802
-8.75 20 -91.39440675543409
-8.75 10.82281224825626 -118.1142184692033
-8.75 15.41140612412813 -116.2284369384066
2.916666666666666 6.234218372384402 -120
-2.916666666666668 6.234218372384402 -120
8.750000000000002 5.013880151417252 -83.38590705958504
8.75 14.93469052285443 -83.57564651272392
8.75 20 -108.6055932445659
8.75 20 -102.868531081522
8.75 20 -97.13146891847802
8.75 20 -91.39440675543409
8.75 10.82281224825626 -118.1142184692033
8.75 15.41140612412813 -116.2284369384066
8.750000000000002 5.013880151417237 -76.61409294041498
8.75 14.93469052285443 -43.57564651272392
8.75 20 -68.60559324456591
8.75 20 -62.86853108152197
8.75 20 -57.13146891847803
8.75 20 -51.39440675543408
8.75 14.93469052285441 -76.42435348727609
2.916666666666666 20 -34.34265540760985
-2.916666666666668 20 -34.34265540760985
-2.460587681148127 12.02875732356318 -37.61860935414797
2.460587681148137 12.02875732356318 -37.61860935414797
2.460587681148128 12.02875732356317 -42.38139064585201
-2.460587681148139 12.02875732356317 -42.38139064585201
2.916666666666666 20 -45.65734459239015
-2.916666666666668 20 -45.65734459239015
2.916666666666666 20 -74.34265540760984
-2.916666666666668 20 -74.34265540760984
-2.460587681148128 12.02875732356317 -77.61860935414801
2.460587681148139 12.02875732356317 -77.61860935414801
2.460587681148172 12.02875732356317 -82.38139064585201
-2.460587681148136 12.02875732356317 -82.38139064585201
2.916666666666666 20 -85.65734459239016
-2.916666666666668 20 -85.65734459239016
2.916666666666666 20 -114.3426554076098
-2.916666666666668 20 -114.3426554076098
-5.731280156275638 4.418192381712897 -43.08389150186898
5.731280156232002 4.418192381676066 -43.0838915018951
-5.771506363552724 2.253424963806612 -40.94089717714741
5.727834437549109 2.253424963806612 -39.01879845504261
2.478321780300002 2.253424963806612 -40.76711345207542
-2.672432990998578 2.253424963806612 -38.59178974858389
-8.157300555579706 5.215577602243024 -39.94780405129189
8.156223048902032 5.217262467581953 -40
3.173818477940159 9.147167777414259 -40.0521959487081
-3.173818477940158 9.147167777414259 -39.9478040512919
5.731280156232001 4.418192381676062 -36.9161084981049
-5.731280156275642 4.418192381712901 -36.91610849813102
-5.731280156275632 4.418192381712888 -83.08389150186898
5.731280156232 4.418192381676067 -83.08389150189511
-5.727834437549117 2.253424963806612 -79.01879845504261
5.727834437549109 2.253424963806612 -80.98120154495739
-2.529272360637556 2.253424963806612 -80.81413521452041
2.502181885360173 2.253424963806612 -79.1338740417753
3.173818477940159 9.147167777414259 -80.0521959487081
-3.175707854369185 9.146511996536054 -80
-8.157300555579706 5.215577602243024 -80.0521959487081
8.157300555579708 5.215577602243022 -80.0521959487081
5.731280156232 4.418192381676058 -76.9161084981049
-5.731280156275636 4.418192381712899 -76.91610849813102
-3.162942092048587 0 -86.42025238073182
4.197489392170903 0 -47.29708285263543
4.066035658950224 0 -72.70291714736457
-4.240960242009827 0 -32.56984867172162
1.77635683940025e-15 0 -115.3927973675795
-3.639069246027118 0 -103.9987756647662
3.206483140905902 0 -60
-2.834381914109224 0 -4.140439860186959
-3.033755197585865 0 -19.50137737713802
-4.004416874313625 0 -39.10903596032846
3.487446960854504 0 -78.70687242484999
4.091755937217677 0 -94.05448668987052
-3.206483140905906 0 -66.4011019017104
-3.206483140905906 0 -53.59889809828959
3.033755197585868 0 -12.90082642628279
3.03375519758586 0 -26.10192832799321
3.665800080759819 0 -5.71816842810324
-4.23529475016919 0 -80.1378420073531
2.13776155469027 0 -32.87222136751622
3.773241938297541 0 -40.9251623395799
-2.025973161480636 0 -72.85060614140431
-2.297126361059355 0 -47.04882643803091
2.822240275792012 0 -104.8559841112966
2.757370609450888 0 -88.47367424537958
3.242335956624259 0 -67.15708018547679
3.22021308866748 0 -53.05036195847646
-3.449822761708512 0 -60
-2.701656622403878 0 -93.30643623346388
-9.622923728064402 0 -80.02756840147062
9.473354170201464 0 -79.74137448497001
9.530513165690072 0 -40.18503246791598
-9.576748152893288 0 -39.82180719206569
0.3375810040940008 0 -99.0248347813598
4.106751039517173 0 -19.501377377138
-3.320276359392668 0 -26.10192832799322
-4.016104079451171 0 -12.20993235971726
-3.330642393492546 0 -110.7050640342308
3.70200264407032 0 -111.3170750883687
-4.618339717624629 0 -98.9305223966968
-0.7449127692217115 0 -8.499577579468117
-4.596823282649829 0 -115.8244467257765
4.623890356307105 0 -115.8690539454659
4.950315443420738 0 -99.18641834050766
-5.019079752556422 0 -7.490100150045507
1.370043127652243 0 -83.4010024555681
10.41478673458938 2.435544104250771 -43.10602325847828
-12.75109979361718 3.372926960165709 -40
12.75109979361756 3.372926960164291 -40
6.955349961009077 11.20670732843898 -39.90884214222565
-6.955349961009125 11.20670732843895 -40.09115785777434
9.883295321678045 8.734280497550653 -39.98836091986732
-9.883295321677913 8.734280497550801 -40.01163908013267
3.736327139832886e-15 13.18966194507641 -40.00975934916952
10.92745995556132 2.323729932114511 -37.11200840682542
8.750000000000002 8.563328590440427 -33.58967994785557
8.750000000000002 14.12177383412435 -19.10909180459664
8.750000000000002 9.999999999999973 -8.773502691896237
8.750000000000002 6.041593509827952 -27.49697379782796
8.750000000000002 13.94746522227443 -29.87067751395118
8.750000000000002 6.767089580171384 -19.72665731754316
8.750000000000002 5.30021797039413 -12.9050001635463
8.750000000000002 14.91902995565615 -12.53546701753329
8.750000000000002 11.45647826260003 -24.22865184384916
8.750000000000002 3.644574567793159 -32.64438054307031
8.750000000000002 10.2148302862838 -15.08020970962519
8.750000000000002 4.699069860810224 -7.701785454446757
8.750000000000002 15.65047265779788 -7.3155001581903
8.750000000000002 16.0478079503147 -24.70969375767208
10.25 3.10416666666666 -3
-10.25 3.104166666666673 -3
11.75 20.125 -1.5
11.75 14.37499999999999 -1.5
11.75 8.624999999999988 -1.5
11.75 2.874999999999994 -1.5
3.157610638484556 18.22886740495932 0
-2.707174061168084 4.878797530676509 0
7.069955745470663 8.71654637064 0
-6.619519168154191 14.39111856499582 0
7.102873022115112 14.37499999999999 0
0.1126091443291184 11.52691623390895 0
-7.000954855602268 8.644857627020135 0
-2.792058517349995 18.15992185565015 0
2.948495529093417 4.721447277005962 0
-7.528051718759411 18.81262893003678 0
7.528051718759418 4.187371069963204 0
7.820492259183634 19.07601590637069 0
-7.553981076842909 4.160878030182232 0
-11.75 20.125 -1.5
-11.75 8.624999999999988 -1.5
-11.75 14.37499999999999 -1.5
-11.75 2.874999999999994 -1.5
-8.749999999999998 8.563328590440429 -33.58967994785558
-8.749999999999998 14.12177383412436 -19.10909180459663
-8.749999999999998 10.00000000000003 -8.773502691896239
-8.749999999999998 6.041593509827951 -27.49697379782796
-8.749999999999998 13.94746522227443 -29.87067751395118
-8.749999999999998 6.767089580171393 -19.72665731754316
-8.749999999999998 5.30021797039415 -12.90500016354631
-8.749999999999998 14.91902995565617 -12.53546701753328
-8.749999999999998 11.45647826260003 -24.22865184384916
-8.749999999999998 3.64457456779316 -32.64438054307031
-8.749999999999998 10.21483028628383 -15.08020970962517
-8.749999999999998 4.699069860810238 -7.701785454446759
-8.749999999999998 15.65047265779791 -7.315500158190297
-8.749999999999998 16.0478079503147 -24.70969375767207
-10.87116853052079 2.146452574827265 -37.0704404006772
-10.87116853052079 2.146452574827274 -42.9295595993228
-8.749999999999998 8.541318201077065 -73.63716781669957
-8.749999999999998 8.54131820107707 -46.36283218330043
-8.749999999999998 14.84314241781837 -60
-8.749999999999998 5.951958053571898 -67.73559820994059
-8.749999999999998 5.9519580535719 -52.2644017900594
-8.749999999999998 13.81904236887006 -70.16224512798367
-8.749999999999998 13.81904236887007 -49.83775487201633
-8.749999999999998 7.040329569971579 -60
-8.749999999999998 11.26762423241945 -64.6532855667497
-8.749999999999998 11.26762423241944 -55.34671443325031
-8.749999999999998 16.03770557216763 -54.26293783695606
-8.749999999999998 16.03770557216763 -65.73706216304394
-8.749999999999998 3.625151067752608 -72.74223916867692
-8.749999999999998 3.625151067752608 -47.25776083132308
-10.8711685305208 2.146452574827272 -77.07044040067721
12.75109979361756 3.372926960164279 -80
-12.75109979361718 3.372926960165698 -80
6.955349961009109 11.20670732843896 -79.90884214222565
-6.955349960678875 11.20670732864391 -80.09115785719969
-9.883295321320235 8.734280497955535 -80.01163907995495
9.883295321678041 8.734280497550657 -79.98836091986732
6.665020415522097e-15 13.18966194507641 -79.99024065083049
-10.87116853052079 2.146452574827269 -82.9295595993228
-8.749999999999998 9.139753452783776 -86.68611097579866
-8.749999999999998 11.21653804534865 -113.2500104189892
-8.749999999999998 15.20168393626004 -99.77689983257734
-8.749999999999998 5.135727332166979 -104.9917786201218
-8.749999999999998 5.652604600545093 -92.45730867475436
-8.749999999999998 11.66603757011514 -91.74610120067496
-8.749999999999998 5.199020674688815 -111.363928397338
-8.749999999999998 5.107308086499515 -99.01787873505859
-8.749999999999998 15.03155842371345 -105.7370621630439
-8.749999999999998 16.13931712348897 -111.4741243260879
-8.749999999999998 7.317939705374066 -115.9645229940906
-8.749999999999998 15.50253491484928 -88.75720787143486
-8.749999999999998 10.00719209331582 -102.2459181646269
-8.749999999999998 10.30358160637994 -108.0929900291944
-8.749999999999998 3.961247640949225 -87.30485526545974
-8.749999999999998 10.16875629560631 -96.64240231878055
-8.749999999999998 16.08878771277226 -94.25733513129711
-8.749999999999998 3.281917225628178 -116.8786988261712
-5.52964042759961 3.117109186192199 -120
5.529640427599611 3.1171091861922 -120
0 3.1171091861922 -120
8.750000000000002 9.139753452783774 -86.68611097579866
8.750000000000002 11.21653804534865 -113.2500104189892
8.750000000000002 15.20168393626004 -99.77689983257734
8.750000000000002 5.135727332166979 -104.9917786201218
8.750000000000002 5.652604600545093 -92.45730867475436
8.750000000000002 11.66603757011514 -91.74610120067496
8.750000000000002 5.199020674688815 -111.363928397338
8.750000000000002 5.107308086499516 -99.01787873505859
8.750000000000002 15.03155842371345 -105.7370621630439
8.750000000000002 16.13931712348897 -111.4741243260879
8.750000000000002 7.317939705374066 -115.9645229940906
8.750000000000002 15.50253491484928 -88.75720787143486
8.750000000000002 10.00719209331582 -102.2459181646269
8.750000000000002 10.30358160637994 -108.0929900291944
8.750000000000002 3.961247640949225 -87.30485526545974
8.750000000000002 10.16875629560631 -96.64240231878055
8.750000000000002 16.08878771277226 -94.25733513129711
8.750000000000002 3.281917225628178 -116.8786988261712
10.92745995556131 2.323729932114735 -82.88799159317456
10.92745995556129 2.323729932115023 -77.11200840682547
8.750000000000002 8.541318201077061 -73.63716781669959
8.750000000000002 8.54131820107707 -46.36283218330043
8.750000000000002 14.84314241781837 -60
8.750000000000002 5.951958053571897 -67.73559820994059
8.750000000000002 5.9519580535719 -52.2644017900594
8.750000000000002 13.81904236887006 -70.16224512798367
8.750000000000002 13.81904236887007 -49.83775487201633
8.750000000000002 7.040329569971579 -60
8.750000000000002 11.26762423241944 -55.34671443325031
8.750000000000002 11.26762423241945 -64.6532855667497
8.750000000000002 16.03770557216763 -54.26293783695606
8.750000000000002 16.03770557216763 -65.73706216304394
8.750000000000002 3.625151067752607 -72.74223916867692
8.750000000000002 3.625151067752609 -47.25776083132308
3.552713678800501e-15 15.28022939495592 -36.28234684192712
-5.022687829073824 15.54270221646415 -36.17447798002174
5.022687829073828 15.54270221646414 -36.17447798002174
-1.77635683940025e-15 15.28022939495591 -43.71765315807287
5.022687829073823 15.54270221646414 -43.82552201997826
-5.022687829073826 15.54270221646414 -43.82552201997826
-1.77635683940025e-15 20 -29.4153563329005
0 20 -7.927299074709346
3.321292838989635 20 -18.67132770380493
-3.321292838989636 20 -18.67132770380492
3.215004324555096 20 -12.61973514033851
-3.215004324555096 20 -24.72292026727134
-3.694662288978024 20 -11.8902639396589
3.694662288978023 20 -25.45239146795095
-4.561685219433603 20 -30.02502693307511
4.561685219433604 20 -7.317628474534734
-4.822265791128938 20 -7.017218819178042
4.82226579112894 20 -30.32543658843181
8.812499999999986 23 -1.5
2.937499999999966 23 -1.5
-8.812500000000007 23 -1.5
-2.937500000000027 23 -1.499999999999999
-3.781558423713449 20 -60
0 20 -49.91119431042303
0 20 -70.08880568957696
3.78155842371345 20 -59.99999999999999
2.563376284092092 20 -65.35524166811227
3.620865402059684 20 -53.75221805386902
-2.635184326462507 20 -54.57179836287528
-3.880889637819767 20 -66.18414519697571
4.596008590151752 20 -70.54699028349496
-4.567155687297253 20 -70.18669949807712
-4.610370198625837 20 -49.43841772270254
4.567155687297253 20 -49.81330050192287
3.552713678800501e-15 15.28022939495591 -76.28234684192714
-5.022687829073826 15.54270221646414 -76.17447798002175
5.022687829073829 15.54270221646414 -76.17447798002175
7.105427357601002e-15 15.2802293949559 -83.71765315807288
-5.022687829073831 15.54270221646414 -83.82552201997827
5.02268782907384 15.54270221646414 -83.82552201997827
-3.781558423713449 20 -100
0 20 -89.91119431042303
0 20 -110.088805689577
3.78155842371345 20 -100
2.563376284092092 20 -105.3552416681123
3.620865402059684 20 -93.75221805386902
-2.635184326462507 20 -94.57179836287528
-3.880889637819767 20 -106.1841451969757
4.596008590151752 20 -110.546990283495
-4.567155687297253 20 -110.1866994980771
4.567155687297253 20 -89.81330050192287
-4.610370198625837 20 -89.43841772270254
-4.861111111111111 13.1171091861922 -117.1713277038049
4.861111111111111 13.1171091861922 -117.1713277038049
0 16.00361474920799 -115.9850560426977
1.77635683940025e-15 10.25190006957169 -118.3488471313587
-5.055555555555557 16.90642601190567 -115.6140263000258
-5.055555555555555 9.332051649757791 -118.7268786608734
5.055555555555555 16.90642601190567 -115.6140263000258
5.055555555555555 9.332051649757791 -118.7268786608734
1.06581410364015e-14 10.11692131646924 -28.11104643833047
1.509903313490213e-14 10.11273733600244 -51.73327674516052
3.552713678800501e-15 10.11273733600244 -68.26672325483948
1.77635683940025e-14 10.09244335203342 -90.97818172412778
1.77635683940025e-15 9.027230499983816 -100.0017345854591
-3.552713678800501e-15 10.55327647748637 -18.66079581453807
0.00383032788752265 11.32634024684637 -108.5124048074027
5.329070518200751e-15 11.29356588068857 -9.78848124855956
-0.2427715314612207 7.929600309659432 -60
-2.310979402843198 6.414570349371524 -113.2190872493882
2.899396405699227 14.09190037807981 -96.76746559536647
3.519956878426417 8.125219932805233 -112.9670926309041
2.839760482126053 13.97165539687213 -56.20881530681002
-2.825740586505595 13.97884660633914 -63.75953365532289
-2.575385595856977 5.811386146838682 -6.696637297270527
-3.053920284116828 14.33350924173536 -5.3954699985403

CELLS 2959 12945
1 0
1 1
1 2
1 3
1 4
1 5
1 6
1 7
1 8
1 9
1 10
1 11
1 12
1 13
1 14
1 15
1 16
1 17
1 18
1 19
1 20
1 21
1 22
1 23
1 24
1 25
1 26
1 27
1 28
1 29
1 30
1 31
1 32
1 33
1 34
1 35
1 36
1 37
1 38
1 39
1 40
1 41
1 42
1 43
1 44
1 45
1 46
1 47
1 48
1 49
1 50
1 51
1 52
1 53
1 54
1 55
1 56
1 57
1 58
1 59
1 60
1 61
1 62
1 63
1 64
1 65
1 66
1 67
1 68
1 69
1 70
1 71
1 72
1 73
1 74
1 75
1 76
1 77
1 78
1 79
1 80
1 81
2 0 82
2 82 83
2 83 1
2 1 84
2 84 0
2 0 85
2 85 2
2 2 86
2 86 87
2 87 88
2 88 3
2 3 89
2 89 1
2 2 4
2 4 90
2 90 5
2 5 91
2 91 6
2 6 92
2 92 7
2 3 7
2 4 93
2 93 94
2 94 95
2 95 7
2 5 96
2 96 97
2 97 6
2 8 98
2 98 99
2 99 9
2 9 100
2 100 8
2 8 101
2 101 10
2 10 102
2 102 103
2 103 104
2 104 11
2 11 105
2 105 9
2 10 12
2 12 106
2 106 13
2 13 107
2 107 14
2 14 108
2 108 15
2 11 15
2 12 109
2 109 110
2 110 111
2 111 15
2 13 112
2 112 113
2 113 14
2 16 17
2 17 18
2 18 19
2 19 114
2 114 115
2 115 116
2 116 117
2 117 20
2 20 21
2 21 22
2 22 118
2 118 119
2 119 120
2 120 23
2 24 23
2 24 25
2 25 121
2 121 122
2 122 123
2 123 124
2 124 26
2 27 26
2 28 27
2 29 28
2 29 125
2 125 126
2 126 127
2 127 128
2 128 30
2 31 30
2 32 31
2 33 32
2 33 129
2 129 130
2 130 131
2 131 132
2 132 133
2 133 34
2 35 134
2 134 135
2 135 34
2 36 136
2 136 137
2 137 138
2 138 139
2 139 140
2 140 35
2 36 37
2 37 38
2 38 39
2 16 141
2 141 142
2 142 143
2 143 144
2 144 39
2 17 145
2 145 40
2 40 146
2 146 16
2 18 147
2 147 41
2 42 41
2 43 42
2 43 148
2 148 149
2 149 44
2 45 44
2 45 46
2 46 150
2 150 27
2 47 151
2 151 28
2 47 48
2 49 48
2 50 152
2 152 153
2 153 49
2 51 50
2 40 51
2 19 154
2 154 41
2 20 155
2 155 156
2 156 52
2 53 157
2 157 158
2 158 159
2 159 160
2 160 52
2 42 161
2 161 53
2 55 162
2 162 163
2 163 164
2 164 54
2 24 165
2 165 166
2 166 167
2 167 55
2 56 168
2 168 169
2 169 25
2 56 170
2 170 171
2 171 52
2 21 172
2 172 173
2 173 174
2 174 54
2 22 175
2 175 176
2 176 177
2 177 57
2 54 57
2 58 178
2 178 179
2 179 180
2 180 57
2 23 181
2 181 182
2 182 183
2 183 58
2 55 58
2 56 184
2 184 185
2 185 186
2 186 187
2 187 59
2 45 188
2 188 59
2 26 189
2 189 46
2 47 190
2 190 29
2 60 191
2 191 48
2 61 192
2 192 193
2 193 194
2 194 195
2 195 60
2 62 196
2 196 61
2 62 63
2 30 197
2 197 63
2 63 198
2 198 31
2 38 199
2 199 64
2 65 64
2 66 65
2 66 200
2 200 201
2 201 67
2 62 67
2 68 202
2 202 32
2 68 69
2 70 69
2 71 203
2 203 204
2 204 70
2 72 71
2 73 72
2 37 205
2 205 73
2 68 206
2 206 33
2 74 207
2 207 69
2 75 208
2 208 209
2 209 210
2 210 211
2 211 74
2 76 212
2 212 213
2 213 75
2 34 76
2 77 214
2 214 215
2 215 76
2 35 77
2 73 216
2 216 36
2 78 217
2 217 72
2 79 218
2 218 219
2 219 220
2 220 221
2 221 78
2 77 222
2 222 223
2 223 79
2 39 224
2 224 64
2 80 225
2 225 51
2 81 226
2 226 227
2 227 228
2 228 229
2 229 80
2 65 230
2 230 81
2 53 231
2 231 232
2 232 59
2 44 233
2 233 234
2 234 43
2 50 235
2 235 236
2 236 49
2 80 237
2 237 238
2 238 60
2 81 239
2 239 240
2 240 61
2 67 241
2 241 242
2 242 66
2 71 243
2 243 244
2 244 70
2 78 245
2 245 246
2 246 74
2 79 247
2 247 248
2 248 75
3 82 0 84
3 84 1 83
3 83 82 84
3 82 250 0
3 0 250 85
3 1 249 83
3 89 249 1
3 85 250 2
3 2 250 86
3 88 249 3
3 3 249 89
3 83 87 82
3 87 86 82
3 86 250 82
3 88 87 83
3 83 249 88
3 84 0 253
3 0 85 253
3 1 84 251
3 89 1 251
3 2 4 252
3 85 2 252
3 7 3 251
3 3 89 251
3 4 90 252
3 90 5 252
3 5 91 252
3 91 6 254
3 6 92 254
3 92 7 251
3 251 84 254
3 84 253 254
3 85 252 253
3 252 91 253
3 253 91 254
3 92 251 254
3 2 256 4
3 86 256 2
3 7 255 3
3 3 255 88
3 4 256 93
3 95 255 7
3 87 257 86
3 93 256 86
3 86 257 93
3 88 258 87
3 94 257 87
3 87 258 94
3 88 255 95
3 95 258 88
3 93 257 94
3 94 258 95
3 4 259 90
3 93 259 4
3 90 259 5
3 5 259 96
3 6 260 92
3 97 260 6
3 92 260 7
3 7 260 95
3 93 94 96
3 96 259 93
3 95 97 94
3 97 96 94
3 95 260 97
3 91 5 96
3 97 6 91
3 91 96 97
3 98 8 100
3 9 99 100
3 100 99 98
3 98 262 8
3 8 262 101
3 9 261 99
3 105 261 9
3 101 262 10
3 10 262 102
3 104 261 11
3 11 261 105
3 103 98 99
3 103 102 98
3 102 262 98
3 104 103 99
3 99 261 104
3 100 8 264
3 8 101 264
3 9 100 265
3 105 9 265
3 10 12 264
3 101 10 264
3 15 11 263
3 11 105 263
3 12 106 264
3 106 13 266
3 13 107 266
3 107 14 263
3 14 108 263
3 108 15 263
3 100 264 266
3 265 100 266
3 263 105 265
3 264 106 266
3 107 263 265
3 107 265 266
3 10 270 12
3 102 270 10
3 15 269 11
3 11 269 104
3 12 270 109
3 111 269 15
3 103 267 102
3 102 267 109
3 109 270 102
3 104 268 103
3 110 267 103
3 103 268 110
3 111 268 104
3 104 269 111
3 109 267 110
3 110 268 111
3 12 271 106
3 109 271 12
3 106 271 13
3 13 271 112
3 14 272 108
3 113 272 14
3 108 272 15
3 15 272 111
3 109 110 112
3 112 271 109
3 111 113 110
3 113 112 110
3 111 272 113
3 107 13 112
3 113 14 107
3 113 107 112
3 17 303 16
3 16 274 141
3 16 292 274
3 16 303 292
3 18 303 17
3 19 303 18
3 114 291 19
3 291 292 19
3 292 303 19
3 22 20 21
3 118 20 22
3 20 289 117
3 118 289 20
3 24 25 23
3 23 25 120
3 25 280 120
3 121 316 25
3 25 316 280
3 27 304 26
3 26 276 124
3 26 282 276
3 26 304 282
3 28 304 27
3 29 304 28
3 125 294 29
3 29 294 282
3 282 304 29
3 31 301 30
3 30 293 128
3 290 293 30
3 30 301 290
3 32 301 31
3 33 301 32
3 129 273 33
3 273 290 33
3 290 301 33
3 34 313 133
3 135 313 34
3 35 314 134
3 140 314 35
3 37 302 36
3 36 296 136
3 36 302 283
3 283 317 36
3 36 317 296
3 38 302 37
3 39 302 38
3 144 275 39
3 275 283 39
3 283 302 39
3 115 288 114
3 288 291 114
3 116 306 115
3 115 306 288
3 117 287 116
3 287 306 116
3 117 289 287
3 119 289 118
3 120 280 119
3 280 289 119
3 122 308 121
3 308 316 121
3 123 281 122
3 281 308 122
3 124 307 123
3 123 307 281
3 276 307 124
3 126 286 125
3 286 294 125
3 127 299 126
3 126 299 286
3 128 285 127
3 285 299 127
3 128 293 285
3 130 300 129
3 129 300 273
3 131 311 130
3 130 311 300
3 132 278 131
3 278 311 131
3 133 309 132
3 132 309 278
3 133 313 309
3 134 277 135
3 134 314 277
3 277 313 135
3 136 284 137
3 136 296 284
3 137 315 138
3 284 315 137
3 138 295 139
3 138 315 295
3 139 310 140
3 295 310 139
3 310 314 140
3 141 298 142
3 274 298 141
3 142 279 143
3 142 298 279
3 143 297 144
3 279 297 143
3 144 297 275
3 273 317 290
3 273 300 296
3 296 317 273
3 292 294 274
3 294 298 274
3 275 293 283
3 275 297 293
3 282 291 276
3 291 307 276
3 277 310 309
3 309 313 277
3 277 314 310
3 295 305 278
3 278 309 295
3 305 311 278
3 285 297 279
3 279 299 285
3 279 298 286
3 286 299 279
3 280 312 289
3 280 316 312
3 281 306 287
3 287 308 281
3 288 306 281
3 281 307 288
3 282 292 291
3 282 294 292
3 283 293 290
3 290 317 283
3 296 300 284
3 300 305 284
3 305 315 284
3 293 297 285
3 286 298 294
3 289 312 287
3 287 312 308
3 288 307 291
3 295 315 305
3 309 310 295
3 300 311 305
3 312 316 308
3 16 318 17
3 146 318 16
3 17 318 145
3 145 146 40
3 145 318 146
3 17 320 18
3 145 320 17
3 18 320 147
3 27 319 28
3 150 319 27
3 28 319 151
3 51 323 40
3 40 323 145
3 41 323 42
3 147 323 41
3 42 321 43
3 42 323 321
3 43 321 148
3 44 322 45
3 149 322 44
3 45 324 46
3 322 324 45
3 46 324 150
3 47 324 48
3 151 324 47
3 48 322 49
3 48 324 322
3 49 322 153
3 50 321 51
3 152 321 50
3 321 323 51
3 145 323 320
3 320 323 147
3 148 325 149
3 148 321 152
3 152 325 148
3 153 322 149
3 149 325 153
3 150 324 319
3 319 324 151
3 153 325 152
3 18 326 19
3 147 326 18
3 19 326 154
3 147 41 154
3 154 326 147
3 19 336 114
3 154 336 19
3 117 338 20
3 20 338 155
3 42 161 41
3 41 327 154
3 161 327 41
3 156 339 52
3 52 339 160
3 157 331 53
3 53 331 161
3 114 330 115
3 114 336 330
3 115 332 116
3 330 332 115
3 116 333 117
3 332 333 116
3 333 338 117
3 327 336 154
3 155 329 156
3 155 338 329
3 329 339 156
3 158 340 157
3 157 340 331
3 159 328 158
3 328 340 158
3 160 334 159
3 159 334 328
3 160 339 334
3 161 331 327
3 327 331 330
3 330 336 327
3 332 335 328
3 328 337 332
3 334 337 328
3 335 340 328
3 333 337 329
3 329 338 333
3 329 337 334
3 334 339 329
3 331 335 330
3 330 335 332
3 331 340 335
3 332 337 333
3 21 20 341
3 20 155 341
3 172 21 341
3 25 24 342
3 24 165 342
3 169 25 342
3 164 54 52
3 54 174 52
3 174 156 52
3 171 164 52
3 55 162 56
3 167 55 56
3 162 170 56
3 168 167 56
3 156 173 155
3 155 173 172
3 155 172 341
3 174 173 156
3 162 163 170
3 171 163 164
3 163 171 170
3 165 166 169
3 165 169 342
3 166 167 168
3 166 168 169
3 21 346 22
3 172 346 21
3 22 346 175
3 57 343 54
3 54 343 174
3 177 343 57
3 173 345 172
3 172 345 175
3 175 346 172
3 174 344 173
3 173 344 176
3 176 345 173
3 174 343 177
3 177 344 174
3 175 345 176
3 176 344 177
3 22 357 118
3 175 357 22
3 120 359 23
3 23 359 181
3 57 358 177
3 180 358 57
3 58 356 178
3 183 356 58
3 118 355 119
3 118 357 355
3 119 348 120
3 119 355 348
3 348 359 120
3 176 349 175
3 349 357 175
3 177 351 176
3 176 351 349
3 177 358 351
3 178 354 179
3 178 356 354
3 179 347 180
3 179 354 347
3 347 358 180
3 181 353 182
3 181 359 353
3 182 350 183
3 182 353 350
3 350 356 183
3 347 352 351
3 351 358 347
3 347 354 352
3 352 353 348
3 348 355 352
3 353 359 348
3 351 352 349
3 352 355 349
3 355 357 349
3 350 353 352
3 352 354 350
3 354 356 350
3 24 23 363
3 23 181 363
3 165 24 363
3 58 55 360
3 55 167 360
3 183 58 360
3 166 165 361
3 165 181 361
3 181 165 363
3 167 166 362
3 182 166 361
3 166 182 362
3 167 183 360
3 183 167 362
3 181 182 361
3 182 183 362
3 121 25 375
3 25 169 375
3 26 124 373
3 189 26 373
3 188 45 46
3 188 46 364
3 46 189 364
3 168 56 376
3 56 184 376
3 187 59 368
3 59 188 368
3 122 121 370
3 370 121 375
3 123 122 369
3 369 122 370
3 124 123 367
3 367 123 369
3 124 367 373
3 169 168 366
3 366 168 376
3 169 366 375
3 184 185 371
3 184 371 376
3 185 186 365
3 185 365 371
3 186 187 377
3 365 186 377
3 187 368 377
3 188 364 368
3 364 189 373
3 364 367 368
3 367 364 373
3 369 365 372
3 365 369 374
3 371 365 374
3 372 365 377
3 370 366 374
3 366 370 375
3 366 371 374
3 371 366 376
3 368 367 372
3 367 369 372
3 368 372 377
3 369 370 374
3 26 378 27
3 189 378 26
3 27 378 150
3 46 150 189
3 150 378 189
3 28 379 29
3 151 379 28
3 29 379 190
3 47 190 151
3 190 379 151
3 125 29 393
3 29 190 393
3 30 128 392
3 197 30 392
3 48 191 47
3 190 47 381
3 47 191 381
3 191 60 386
3 60 195 386
3 192 61 385
3 61 196 385
3 62 63 196
3 196 63 380
3 63 197 380
3 126 125 384
3 384 125 393
3 127 126 387
3 126 384 387
3 128 127 383
3 383 127 387
3 128 383 392
3 190 381 393
3 381 191 386
3 193 192 391
3 192 385 391
3 194 193 382
3 382 193 391
3 195 194 390
3 194 382 390
3 386 195 390
3 196 380 385
3 380 197 392
3 380 383 385
3 383 380 392
3 384 381 386
3 381 384 393
3 387 382 388
3 382 387 389
3 388 382 391
3 382 389 390
3 385 383 388
3 383 387 388
3 384 386 389
3 387 384 389
3 385 388 391
3 389 386 390
3 30 394 31
3 197 394 30
3 31 394 198
3 63 198 197
3 198 394 197
3 31 396 32
3 198 396 31
3 32 396 202
3 37 395 38
3 205 395 37
3 38 395 199
3 62 399 63
3 67 398 62
3 398 399 62
3 63 399 198
3 64 400 65
3 199 400 64
3 65 397 66
3 65 400 397
3 66 397 200
3 201 398 67
3 68 399 69
3 202 399 68
3 69 398 70
3 69 399 398
3 70 398 204
3 71 397 72
3 203 397 71
3 72 400 73
3 397 400 72
3 73 400 205
3 198 399 396
3 395 400 199
3 200 401 201
3 200 397 203
3 203 401 200
3 204 398 201
3 201 401 204
3 396 399 202
3 204 401 203
3 205 400 395
3 32 402 33
3 202 402 32
3 33 402 206
3 68 206 202
3 206 402 202
3 129 33 417
3 33 206 417
3 76 34 420
3 34 133 420
3 69 207 68
3 206 68 403
3 68 207 403
3 207 74 414
3 74 211 414
3 208 75 412
3 75 213 412
3 212 76 413
3 413 76 420
3 130 129 407
3 407 129 417
3 131 130 410
3 130 407 410
3 132 131 406
3 406 131 410
3 133 132 409
3 132 406 409
3 133 409 420
3 206 403 417
3 403 207 414
3 209 208 411
3 411 208 412
3 210 209 405
3 405 209 411
3 211 210 419
3 210 405 419
3 414 211 419
3 213 212 404
3 404 212 413
3 213 404 412
3 407 403 408
3 403 407 417
3 408 403 414
3 409 404 413
3 404 409 416
3 412 404 416
3 405 411 415
3 405 415 418
3 405 418 419
3 409 406 416
3 406 410 415
3 406 415 416
3 407 408 418
3 410 407 418
3 408 414 419
3 418 408 419
3 409 413 420
3 415 410 418
3 411 412 416
3 415 411 416
3 76 421 34
3 34 421 135
3 35 422 77
3 134 422 35
3 215 421 76
3 77 422 214
3 135 423 134
3 134 423 422
3 421 423 135
3 214 423 215
3 422 423 214
3 215 423 421
3 77 441 35
3 35 441 140
3 136 438 36
3 36 438 216
3 72 73 217
3 216 424 73
3 73 424 217
3 222 434 77
3 434 441 77
3 217 435 78
3 78 435 221
3 218 433 79
3 79 433 223
3 137 428 136
3 428 438 136
3 138 431 137
3 137 431 428
3 139 427 138
3 427 431 138
3 140 430 139
3 139 430 427
3 140 441 430
3 216 438 424
3 424 435 217
3 219 432 218
3 432 433 218
3 220 426 219
3 426 432 219
3 221 440 220
3 220 440 426
3 435 440 221
3 223 425 222
3 425 434 222
3 223 433 425
3 428 429 424
3 424 438 428
3 429 435 424
3 430 434 425
3 425 437 430
3 433 437 425
3 426 436 432
3 426 439 436
3 426 440 439
3 430 437 427
3 427 436 431
3 427 437 436
3 428 439 429
3 431 439 428
3 429 440 435
3 439 440 429
3 430 441 434
3 436 439 431
3 432 437 433
3 436 437 432
3 36 442 37
3 216 442 36
3 37 442 205
3 205 216 73
3 205 442 216
3 38 443 39
3 199 443 38
3 39 443 224
3 199 64 224
3 224 443 199
3 141 457 16
3 16 457 146
3 39 456 144
3 224 456 39
3 51 40 225
3 146 445 40
3 40 445 225
3 65 230 64
3 64 444 224
3 230 444 64
3 225 450 80
3 80 450 229
3 226 449 81
3 81 449 230
3 142 448 141
3 448 457 141
3 143 451 142
3 142 451 448
3 144 447 143
3 447 451 143
3 144 456 447
3 146 457 445
3 444 456 224
3 445 450 225
3 227 455 226
3 226 455 449
3 228 446 227
3 446 455 227
3 229 454 228
3 228 454 446
3 450 454 229
3 230 449 444
3 444 449 447
3 447 456 444
3 448 450 445
3 445 457 448
3 446 452 451
3 451 453 446
3 446 454 452
3 453 455 446
3 449 453 447
3 447 453 451
3 448 452 450
3 451 452 448
3 449 455 453
3 452 454 450
3 161 42 43
3 43 460 161
3 234 460 43
3 188 44 45
3 188 459 44
3 44 459 233
3 161 460 53
3 53 460 231
3 59 459 188
3 232 459 59
3 231 458 232
3 231 460 458
3 458 459 232
3 233 458 234
3 233 459 458
3 458 460 234
3 43 148 234
3 149 44 233
3 234 148 149
3 234 149 233
3 191 48 49
3 49 463 191
3 236 463 49
3 50 51 225
3 225 462 50
3 50 462 235
3 191 463 60
3 60 463 238
3 80 462 225
3 237 462 80
3 235 461 236
3 235 462 461
3 461 463 236
3 238 461 237
3 461 462 237
3 238 463 461
3 153 236 49
3 50 235 152
3 235 153 152
3 235 236 153
3 160 473 52
3 52 473 171
3 53 475 157
3 231 475 53
3 170 474 56
3 56 474 184
3 187 472 59
3 59 472 232
3 157 471 158
3 157 475 471
3 158 466 159
3 158 471 466
3 159 468 160
3 466 468 159
3 468 473 160
3 171 465 170
3 465 474 170
3 171 473 465
3 184 470 185
3 184 474 470
3 185 467 186
3 185 470 467
3 186 469 187
3 467 469 186
3 469 472 187
3 232 464 231
3 464 475 231
3 232 472 464
3 469 471 464
3 464 472 469
3 471 475 464
3 468 470 465
3 465 473 468
3 470 474 465
3 467 468 466
3 466 469 467
3 466 471 469
3 467 470 468
3 54 476 57
3 164 476 54
3 58 478 55
3 55 478 162
3 57 476 180
3 178 478 58
3 162 479 163
3 162 478 178
3 178 479 162
3 163 477 164
3 179 477 163
3 163 479 179
3 180 476 164
3 164 477 180
3 179 479 178
3 180 477 179
3 60 490 195
3 238 490 60
3 192 489 61
3 61 489 240
3 229 491 80
3 80 491 237
3 81 488 226
3 239 488 81
3 193 487 192
3 487 489 192
3 194 480 193
3 480 487 193
3 195 486 194
3 194 486 480
3 195 490 486
3 226 484 227
3 226 488 484
3 227 483 228
3 227 484 483
3 228 485 229
3 483 485 228
3 485 491 229
3 237 481 238
3 237 491 481
3 481 490 238
3 240 482 239
3 482 488 239
3 240 489 482
3 483 484 480
3 480 486 483
3 484 487 480
3 485 486 481
3 481 491 485
3 486 490 481
3 482 487 484
3 484 488 482
3 482 489 487
3 483 486 485
3 61 493 196
3 240 493 61
3 62 196 67
3 230 65 66
3 66 494 230
3 242 494 66
3 196 493 67
3 67 493 241
3 230 494 81
3 81 494 239
3 239 492 240
3 239 494 492
3 492 493 240
3 241 492 242
3 241 493 492
3 492 494 242
3 66 200 242
3 201 67 241
3 242 200 201
3 242 201 241
3 70 207 69
3 70 496 207
3 244 496 70
3 71 72 217
3 217 497 71
3 71 497 243
3 207 496 74
3 74 496 246
3 78 497 217
3 245 497 78
3 243 495 244
3 243 497 495
3 495 496 244
3 246 495 245
3 495 497 245
3 246 496 495
3 204 244 70
3 71 243 203
3 243 204 203
3 243 244 204
3 74 509 211
3 246 509 74
3 208 507 75
3 75 507 248
3 221 508 78
3 78 508 245
3 79 506 218
3 247 506 79
3 209 505 208
3 505 507 208
3 210 498 209
3 498 505 209
3 211 504 210
3 210 504 498
3 211 509 504
3 218 502 219
3 218 506 502
3 219 501 220
3 219 502 501
3 220 503 221
3 501 503 220
3 503 508 221
3 245 499 246
3 245 508 499
3 499 509 246
3 248 500 247
3 500 506 247
3 248 507 500
3 501 502 498
3 498 504 501
3 502 505 498
3 503 504 499
3 499 508 503
3 504 509 499
3 500 505 502
3 502 506 500
3 500 507 505
3 501 504 503
3 75 514 213
3 248 514 75
3 212 515 76
3 76 515 215
3 214 517 77
3 77 517 222
3 223 516 79
3 79 516 247
3 213 510 212
3 510 515 212
3 213 514 510
3 215 513 214
3 513 517 214
3 215 515 513
3 222 511 223
3 222 517 511
3 511 516 223
3 247 512 248
3 247 516 512
3 512 514 248
3 512 513 510
3 510 514 512
3 513 515 510
3 511 513 512
3 512 516 511
3 511 517 513
4 93 4 256 154
4 86 2 146 256
4 11 104 206 269
4 102 10 216 270
4 411 405 415 522
4 418 405 419 528
4 340 518 335 523
4 15 111 269 197
4 109 12 270 224
4 3 88 190 255
4 473 339 171 533
4 481 461 490 519
4 471 518 340 523
4 458 475 464 518
4 492 488 482 520
4 481 491 461 519
4 156 171 339 533
4 426 432 436 528
4 458 460 475 518
4 418 522 405 528
4 482 489 492 520
4 278 406 522 524
4 308 523 370 525
4 411 498 405 522
4 495 509 499 521
4 278 406 524 527
4 419 521 418 528
4 432 522 436 528
4 490 461 463 519
4 494 488 492 520
4 472 458 464 518
4 415 411 522 524
4 436 522 432 524
4 509 419 408 414
4 495 499 508 521
4 419 509 408 521
4 472 459 458 518
4 489 493 492 520
4 491 462 461 519
4 473 525 339 533
4 390 519 389 530
4 455 520 453 531
4 419 408 418 521
4 390 389 382 530
4 455 453 446 531
4 284 521 428 522
4 509 495 496 521
4 233 364 97 518
4 414 408 509 521
4 308 525 370 532
4 296 98 438 521
4 431 284 428 522
4 156 339 525 533
4 234 96 327 518
4 337 523 333 525
4 374 370 523 525
4 236 83 381 519
4 380 113 241 520
4 495 508 497 521
4 438 98 424 521
4 526 530 453 531
4 389 530 526 531
4 233 458 459 518
4 300 407 99 521
4 155 329 338 525
4 155 525 338 532
4 432 522 502 524
4 502 522 432 528
4 407 521 300 522
4 275 112 447 456
4 335 328 340 523
4 365 372 377 523
4 470 371 523 525
4 444 242 112 520
4 235 445 82 519
4 431 428 439 522
4 410 418 407 522
4 415 522 406 524
4 427 522 436 524
4 373 367 276 97
4 428 521 439 522
4 418 521 407 522
4 460 458 234 518
4 521 522 418 528
4 464 231 475 458
4 463 461 236 519
4 241 492 493 520
4 284 305 300 522
4 308 287 523 525
4 369 518 372 523
4 332 335 518 523
4 508 499 503 528
4 284 300 521 522
4 307 518 369 523
4 475 471 464 518
4 405 504 419 528
4 509 496 414 521
4 235 461 462 519
4 242 494 492 520
4 82 274 448 457
4 155 355 525 532
4 510 514 404 524
4 284 431 315 522
4 112 275 447 520
4 97 94 233 518
4 278 522 295 524
4 278 524 295 527
4 491 237 481 461
4 245 508 495 499
4 332 518 288 523
4 416 415 406 524
4 437 427 436 524
4 460 475 231 458
4 382 530 389 531
4 453 530 446 531
4 435 497 508 521
4 495 509 246 499
4 481 238 490 461
4 512 516 506 524
4 520 526 453 531
4 96 234 94 518
4 333 523 287 525
4 403 244 99 521
4 489 240 482 492
4 333 332 306 523
4 295 522 427 524
4 241 113 110 520
4 87 83 236 519
4 374 523 371 525
4 334 523 337 525
4 155 355 349 525
4 516 433 506 524
4 367 276 97 518
4 519 526 389 530
4 403 496 244 521
4 305 284 315 522
4 274 82 448 519
4 488 492 482 239
4 472 232 464 458
4 243 424 98 521
4 514 512 507 524
4 508 521 499 528
4 296 438 428 521
4 87 235 82 519
4 110 112 242 520
4 497 424 243 521
4 368 233 459 518
4 432 426 501 528
4 367 373 364 97
4 336 327 96 330
4 412 514 507 524
4 112 113 293 520
4 306 332 288 523
4 491 519 481 530
4 295 524 427 529
4 276 291 97 518
4 311 300 305 522
4 438 424 428 521
4 471 340 466 523
4 232 472 459 458
4 460 234 331 518
4 460 331 475 518
4 99 98 296 521
4 505 502 498 524
4 482 489 520 531
4 512 506 500 524
4 294 83 82 519
4 307 288 518 523
4 308 287 525 532
4 240 489 493 492
4 237 491 462 461
4 495 497 508 245
4 471 469 518 523
4 459 233 368 364
4 514 412 404 524
4 510 512 514 524
4 516 425 433 524
4 370 308 281 523
4 341 346 21 172
4 342 165 24 363
4 516 511 425 529
4 490 463 386 519
4 310 427 430 529
4 372 369 367 518
4 332 335 330 518
4 463 236 386 519
4 241 493 385 520
4 507 512 500 524
4 494 449 488 520
4 502 522 498 524
4 112 444 447 456
4 380 392 113 383
4 384 381 393 83
4 448 445 82 457
4 504 499 509 521
4 496 509 246 495
4 463 490 238 461
4 300 99 296 521
4 504 509 419 521
4 96 97 291 518
4 416 524 406 527
4 244 496 495 521
4 455 446 484 531
4 419 504 521 528
4 234 327 460 331
4 488 494 492 239
4 352 156 525 533
4 508 435 521 528
4 390 382 486 530
4 486 481 490 519
4 242 449 494 520
4 235 462 450 519
4 484 520 455 531
4 405 522 498 528
4 506 433 432 524
4 287 338 525 532
4 333 306 287 523
4 113 392 293 383
4 328 466 340 523
4 488 484 482 520
4 171 465 473 533
4 99 273 300 296
4 472 368 459 518
4 516 425 524 529
4 349 352 156 525
4 311 278 410 522
4 489 385 493 520
4 491 450 462 519
4 406 410 278 522
4 452 526 519 530
4 352 525 355 532
4 338 333 287 525
4 486 519 390 530
4 403 104 99 244
4 338 329 333 525
4 371 374 365 523
4 334 328 337 523
4 334 339 473 525
4 497 243 495 521
4 355 352 349 525
4 295 527 524 529
4 333 337 332 523
4 370 369 374 523
4 415 416 411 524
4 278 309 406 527
4 233 368 364 518
4 437 436 432 524
4 452 448 519 526
4 447 453 520 526
4 156 339 329 525
4 369 307 367 518
4 99 9 417 273
4 427 524 437 529
4 243 424 102 98
4 380 113 111 241
4 88 381 236 83
4 233 364 95 97
4 467 470 371 523
4 96 291 336 330
4 507 505 411 524
4 234 327 331 518
4 429 521 435 528
4 365 377 469 523
4 412 507 411 524
4 13 112 275 456
4 502 498 522 528
4 364 367 97 518
4 330 327 96 518
4 405 418 415 522
4 248 507 514 512
4 332 330 288 518
4 465 525 473 533
4 380 241 385 520
4 386 236 381 519
4 109 444 242 112
4 82 86 445 235
4 327 93 96 234
4 293 113 383 520
4 468 470 523 525
4 250 0 82 457
4 271 112 13 456
4 249 1 393 83
4 272 392 14 113
4 439 522 521 528
4 244 103 99 521
4 334 468 523 525
4 94 97 96 518
4 485 491 481 530
4 294 384 393 83
4 447 520 297 526
4 496 403 414 521
4 435 424 497 521
4 241 493 380 385
4 386 236 463 381
4 262 98 424 438
4 417 261 99 403
4 307 369 281 523
4 306 288 281 523
4 516 506 247 512
4 444 449 242 520
4 235 450 445 519
4 384 381 83 519
4 113 380 383 520
4 444 112 447 520
4 448 82 445 519
4 287 312 289 532
4 388 526 520 531
4 296 428 284 521
4 278 295 309 527
4 259 96 5 336
4 260 373 6 97
4 409 416 406 527
4 310 527 295 529
4 431 436 427 522
4 406 415 410 522
4 243 98 103 521
4 384 389 519 526
4 388 383 520 526
4 370 281 369 523
4 408 414 403 521
4 429 424 435 521
4 475 331 471 518
4 449 242 494 444
4 235 462 445 450
4 435 508 440 528
4 274 82 0 457
4 8 98 262 438
4 9 417 261 99
4 507 248 500 512
4 110 113 112 520
4 87 82 83 519
4 297 447 275 520
4 510 513 512 524
4 374 366 370 525
4 329 337 333 525
4 291 330 96 518
4 405 498 504 528
4 448 298 519 526
4 294 384 83 519
4 472 464 469 518
4 471 331 340 518
4 293 14 392 113
4 488 449 455 484
4 308 287 281 523
4 500 247 506 512
4 407 418 408 521
4 439 428 429 521
4 452 451 448 526
4 447 451 453 526
4 445 250 82 457
4 271 444 112 456
4 393 381 249 83
4 113 272 392 380
4 435 440 429 528
4 311 305 278 522
4 440 508 503 528
4 276 6 373 97
4 482 487 489 531
4 296 284 300 521
4 334 466 328 523
4 467 371 365 523
4 287 289 338 532
4 310 295 427 529
4 307 281 288 523
4 453 526 451 530
4 447 297 451 526
4 382 480 530 531
4 96 259 327 336
4 260 364 373 97
4 100 296 99 98
4 505 507 500 524
4 432 501 502 528
4 490 386 390 486
4 446 530 483 531
4 506 432 502 524
4 464 471 469 518
4 308 312 287 532
4 98 8 296 438
4 274 448 298 519
4 368 377 372 518
4 340 331 335 518
4 510 524 404 527
4 214 423 277 529
4 510 513 524 527
4 488 449 484 520
4 448 451 298 526
4 450 519 491 530
4 385 520 489 531
4 366 370 525 532
4 412 411 416 524
4 433 437 432 524
4 314 214 423 277
4 486 490 386 519
4 384 387 389 526
4 388 387 383 526
4 281 287 306 523
4 294 393 1 83
4 367 307 276 518
4 484 449 455 520
4 25 169 342 359
4 155 20 341 357
4 386 389 390 519
4 449 453 455 520
4 314 214 277 529
4 493 380 67 241
4 463 236 49 381
4 44 233 459 364
4 499 521 504 528
4 407 408 403 521
4 429 428 424 521
4 279 451 297 526
4 409 406 309 527
4 486 386 390 519
4 453 451 446 530
4 276 307 291 518
4 416 404 412 524
4 425 437 433 524
4 429 439 521 528
4 374 371 366 525
4 334 337 329 525
4 291 5 96 336
4 471 466 469 523
4 295 305 315 522
4 467 468 470 523
4 297 520 285 526
4 462 445 50 235
4 242 494 444 66
4 383 285 520 526
4 384 519 286 526
4 43 327 460 234
4 427 437 430 529
4 339 334 329 525
4 382 480 486 530
4 334 468 466 523
4 484 446 483 531
4 485 454 491 530
4 368 469 377 518
4 487 391 489 531
4 82 83 294 84
4 285 387 299 526
4 286 299 387 526
4 506 502 500 524
4 472 469 368 518
4 103 98 99 521
4 305 295 278 522
4 486 481 519 530
4 296 99 273 100
4 130 410 407 311
4 298 286 519 526
4 482 520 484 531
4 298 451 279 526
4 334 473 468 525
4 436 431 439 522
4 418 410 415 522
4 371 525 470 533
4 423 527 277 529
4 310 309 295 527
4 502 501 498 528
4 107 113 293 112
4 451 526 452 530
4 472 368 469 377
4 214 527 423 529
4 70 403 496 244
4 314 422 214 529
4 314 441 422 529
4 512 524 513 529
4 425 437 524 529
4 84 294 82 274
4 104 99 261 403
4 424 102 98 262
4 469 467 365 523
4 424 497 243 71
4 97 91 96 291
4 384 286 387 526
4 383 387 285 526
4 300 130 407 311
4 500 502 505 524
4 430 427 310 139
4 473 465 468 525
4 293 383 285 520
4 404 524 416 527
4 297 447 451 143
4 332 328 335 523
4 369 372 365 523
4 366 525 371 533
4 112 293 107 275
4 366 169 532 533
4 436 522 439 528
4 407 417 129 300
4 366 168 169 533
4 376 371 470 533
4 291 288 330 518
4 285 297 293 520
4 470 525 465 533
4 376 366 371 533
4 294 286 384 519
4 273 129 417 300
4 489 391 385 531
4 470 474 376 533
4 450 491 454 530
4 292 91 282 291
4 387 526 388 531
4 513 524 527 529
4 215 413 421 527
4 421 413 420 527
4 364 44 233 95
4 297 451 279 143
4 298 448 142 451
4 111 67 380 241
4 381 236 49 88
4 476 57 180 358
4 97 276 91 291
4 403 70 104 244
4 58 356 478 178
4 314 277 310 529
4 503 499 504 528
4 468 465 470 525
4 512 513 511 529
4 337 328 332 523
4 365 374 369 523
4 294 298 286 519
4 95 364 260 97
4 96 259 93 327
4 43 93 327 234
4 445 86 50 235
4 66 444 242 109
4 272 113 111 380
4 381 88 249 83
4 250 82 86 445
4 112 109 444 271
4 288 291 307 518
4 243 424 71 102
4 430 441 314 529
4 19 5 292 291
4 469 466 467 523
4 466 468 467 523
4 413 515 404 527
4 127 285 387 299
4 387 126 299 286
4 384 389 386 519
4 447 453 449 520
4 448 450 452 519
4 388 383 385 520
4 363 181 23 359
4 422 214 423 314
4 346 357 22 175
4 364 368 367 518
4 330 331 327 518
4 156 52 339 171
4 510 404 515 527
4 423 421 313 215
4 177 57 343 358
4 353 532 169 533
4 292 294 282 84
4 444 447 449 520
4 384 386 381 519
4 380 385 383 520
4 448 445 450 519
4 368 372 367 518
4 335 331 330 518
4 515 413 215 527
4 360 356 58 183
4 231 464 232 458
4 411 405 498 209
4 340 471 475 331
4 15 111 197 272
4 3 88 249 190
4 7 95 189 260
4 109 12 224 271
4 86 2 250 146
4 93 4 154 259
4 353 169 168 533
4 438 136 296 428
4 423 214 215 527
4 142 279 298 451
4 525 532 352 533
4 293 290 107 283
4 385 388 520 531
4 450 452 519 530
4 278 410 131 311
4 473 339 52 171
4 215 313 423 527
4 89 29 1 251
4 313 277 423 527
4 431 138 315 427
4 436 439 426 528
4 115 288 306 332
4 479 179 178 354
4 170 465 171 533
4 446 451 452 530
4 285 293 392 383
4 387 388 382 531
4 11 104 261 206
4 102 10 262 216
4 294 1 29 282
4 406 410 131 278
4 286 279 299 526
4 285 299 279 526
4 277 527 310 529
4 350 183 362 182
4 421 420 313 527
4 367 124 373 276
4 295 310 427 139
4 132 409 406 309
4 498 505 411 209
4 179 347 477 180
4 279 297 285 526
4 5 19 252 90
4 25 169 359 280
4 470 465 474 533
4 352 532 353 533
4 486 485 481 530
4 280 25 375 316
4 290 14 30 293
4 336 291 288 330
4 430 434 441 529
4 477 171 163 164
4 162 163 479 170
4 421 313 215 527
4 264 36 8 101
4 404 416 409 527
4 314 310 430 529
4 510 515 513 527
4 215 214 513 527
4 333 116 306 332
4 406 132 309 278
4 366 532 525 533
4 169 359 280 532
4 219 501 432 426
4 170 171 354 533
4 420 409 313 527
4 480 483 530 531
4 280 316 375 532
4 286 384 393 294
4 126 387 384 286
4 127 285 383 387
4 482 484 487 531
4 298 279 286 526
4 288 115 330 332
4 473 339 334 160
4 281 370 122 308
4 169 25 375 280
4 355 289 280 532
4 91 276 282 291
4 123 367 369 307
4 345 349 175 176
4 369 370 122 281
4 470 185 467 371
4 84 292 294 274
4 177 344 176 351
4 441 430 314 140
4 280 375 169 532
4 238 481 237 461
4 245 495 246 499
4 348 352 355 532
4 366 375 370 532
4 284 296 136 428
4 420 413 409 527
4 182 361 353 181
4 485 228 454 530
4 391 487 193 531
4 94 233 95 97
4 83 236 88 87
4 241 113 111 110
4 104 103 99 244
4 340 471 157 475
4 289 355 357 155
4 466 334 328 159
4 185 467 371 365
4 444 494 230 66
4 67 380 493 196
4 462 50 445 225
4 463 49 191 381
4 240 482 492 239
4 431 284 137 428
4 460 327 43 161
4 459 188 44 364
4 138 295 315 427
4 308 375 316 532
4 170 356 56 533
4 413 404 409 527
4 110 109 242 112
4 86 82 87 235
4 94 96 93 234
4 102 103 243 98
4 345 172 155 173
4 361 166 169 165
4 214 513 527 529
4 466 340 471 158
4 348 353 352 532
4 375 308 370 532
4 349 351 156 352
4 164 52 54 476
4 56 55 478 162
4 474 170 56 533
4 281 123 369 307
4 155 20 357 289
4 420 409 133 313
4 328 340 466 158
4 94 95 233 258
4 315 284 137 431
4 347 354 171 533
4 116 306 287 333
4 199 395 38 443
4 37 395 205 442
4 147 18 326 320
4 317 8 36 296
4 348 355 280 532
4 336 288 114 330
4 474 56 376 533
4 474 184 470 376
4 87 257 86 235
4 243 103 102 267
4 505 507 411 208
4 241 111 268 110
4 104 268 103 244
4 359 348 280 532
4 507 412 411 208
4 280 289 312 532
4 516 511 223 425
4 404 213 514 510
4 362 167 168 166
4 173 344 174 156
4 423 422 314 134
4 421 313 135 423
4 5 19 336 114
4 220 426 440 528
4 119 280 355 289
4 360 58 356 478
4 125 29 1 393
4 475 157 340 331
4 220 440 503 528
4 317 36 8 264
4 258 88 236 87
4 360 55 56 167
4 54 52 174 343
4 425 222 434 517
4 404 515 413 212
4 310 314 430 140
4 170 350 356 533
4 382 391 193 531
4 218 506 433 432
4 384 393 125 286
4 20 155 338 289
4 497 508 245 78
4 438 424 262 216
4 261 417 206 403
4 288 291 336 114
4 309 310 277 527
4 424 217 497 71
4 403 70 496 207
4 242 109 110 267
4 93 257 94 234
4 101 8 262 438
4 385 391 388 531
4 293 392 128 285
4 285 392 128 383
4 454 228 446 530
4 117 287 289 338
4 450 454 452 530
4 371 470 184 376
4 136 296 8 438
4 293 107 275 283
4 168 376 56 533
4 14 30 128 392
4 169 348 359 532
4 27 319 150 378
4 151 319 28 379
4 198 394 31 396
4 202 32 402 396
4 276 367 124 307
4 190 29 89 379
4 435 217 497 424
4 414 403 496 207
4 119 280 348 355
4 501 502 219 432
4 136 8 36 438
4 286 393 125 294
4 334 466 468 159
4 213 412 404 514
4 433 516 223 425
4 259 5 90 336
4 506 218 502 432
4 429 440 439 528
4 171 347 351 358
4 392 14 108 272
4 393 89 1 249
4 508 497 435 78
4 9 33 417 273
4 347 352 354 533
4 368 472 187 377
4 287 117 333 338
4 212 404 515 510
4 222 425 511 517
4 509 246 74 496
4 214 517 513 529
4 154 19 90 326
4 30 197 108 394
4 392 128 14 293
4 280 359 25 120
4 289 118 20 357
4 308 316 312 532
4 309 313 409 527
4 423 314 277 134
4 434 425 517 529
4 59 368 459 472
4 101 36 8 438
4 368 188 459 364
4 161 460 327 331
4 53 475 460 331
4 74 509 496 414
4 423 313 135 277
4 493 489 61 385
4 462 491 80 450
4 366 169 375 532
4 449 494 488 81
4 463 386 60 490
4 129 130 407 300
4 435 508 221 440
4 468 473 334 160
4 487 480 193 531
4 343 57 476 358
4 308 375 121 316
4 336 291 5 114
4 355 118 289 357
4 485 483 228 530
4 472 459 59 232
4 366 376 168 533
4 385 493 380 196
4 494 230 449 444
4 450 462 445 225
4 191 386 463 381
4 215 513 515 527
4 313 409 133 309
4 216 36 442 101
4 1 125 393 294
4 513 517 511 529
4 483 485 486 530
4 353 350 352 533
4 426 439 440 528
4 509 211 419 414
4 259 4 154 90
4 15 272 197 108
4 249 3 190 89
4 511 517 425 529
4 353 168 350 533
4 480 483 486 530
4 422 77 434 441
4 413 421 420 76
4 89 1 29 393
4 480 484 483 531
4 61 240 489 493
4 80 237 491 462
4 501 426 220 528
4 233 236 325 258
4 265 266 107 283
4 247 500 248 512
4 387 126 127 299
4 501 503 504 528
4 480 487 484 531
4 503 221 508 440
4 485 229 491 454
4 220 503 501 528
4 457 445 250 146
4 444 271 224 456
4 190 393 381 249
4 272 197 392 380
4 346 20 357 341
4 208 411 505 209
4 10 262 216 101
4 336 259 327 154
4 364 373 189 260
4 90 5 19 336
4 33 9 290 273
4 474 465 170 533
4 292 5 91 291
4 14 30 108 290
4 132 406 131 278
4 363 25 342 359
4 390 386 490 195
4 392 14 30 108
4 323 320 147 256
4 183 167 168 362
4 489 487 192 391
4 399 396 202 269
4 475 231 53 460
4 400 395 199 270
4 319 324 255 151
4 323 320 256 145
4 455 449 488 226
4 400 395 270 205
4 319 324 150 255
4 399 396 269 198
4 498 501 504 528
4 120 280 359 348
4 455 488 484 226
4 294 1 282 84
4 121 370 375 308
4 450 491 229 454
4 385 489 192 391
4 382 193 480 531
4 336 90 259 154
4 296 8 36 136
4 390 490 486 195
4 469 187 472 377
4 424 102 262 216
4 104 261 206 403
4 36 317 283 264
4 348 169 353 532
4 262 101 438 216
4 239 488 494 81
4 190 89 393 249
4 108 197 392 272
4 264 283 36 302
4 490 60 463 238
4 128 30 14 293
4 170 354 356 350
4 137 284 136 428
4 33 9 417 105
4 483 446 228 530
4 19 5 252 292
4 425 430 437 529
4 293 290 14 107
4 26 189 92 378
4 140 430 310 139
4 129 417 33 273
4 514 507 248 75
4 397 200 203 267
4 206 33 105 402
4 502 218 219 432
4 507 514 412 75
4 19 5 291 114
4 419 504 211 509
4 125 1 29 294
4 350 170 354 533
4 434 430 425 529
4 427 138 295 139
4 229 80 491 450
4 489 192 61 385
4 309 277 313 527
4 224 39 106 443
4 145 318 17 320
4 13 39 275 283
4 79 506 516 433
4 475 53 157 331
4 107 290 265 283
4 297 447 143 144
4 59 368 472 187
4 470 184 185 371
4 253 292 282 84
4 115 306 116 332
4 122 123 369 281
4 282 1 29 251
4 117 289 20 338
4 235 153 236 325
4 59 368 188 459
4 161 53 460 331
4 506 247 79 516
4 451 142 279 143
4 276 91 6 97
4 388 391 382 531
4 454 446 452 530
4 361 166 353 169
4 345 155 349 173
4 243 204 244 401
4 201 242 241 401
4 253 282 254 84
4 490 386 60 195
4 409 132 133 309
4 292 0 16 274
4 325 234 149 233
4 276 6 91 282
4 119 355 118 289
4 503 220 221 440
4 448 298 142 141
4 398 268 201 241
4 449 488 226 81
4 485 228 229 454
4 265 317 266 283
4 373 6 26 92
4 244 268 103 401
4 112 107 13 275
4 401 241 268 110
4 494 449 230 81
4 60 191 386 463
4 80 462 450 225
4 61 493 385 196
4 317 265 290 283
4 258 236 325 87
4 130 131 410 311
4 456 275 39 144
4 26 6 276 282
4 94 233 325 258
4 92 373 6 260
4 159 328 466 158
4 467 185 186 365
4 201 200 242 401
4 152 153 235 325
4 177 174 344 351
4 275 39 13 456
4 84 82 0 274
4 234 325 149 148
4 22 20 357 346
4 121 375 25 316
4 166 182 361 353
4 203 204 243 401
4 350 354 352 533
4 9 417 105 261
4 349 345 173 176
4 95 44 233 258
4 106 13 39 456
4 277 135 423 134
4 67 111 268 241
4 268 104 70 244
4 183 168 350 362
4 363 23 25 359
4 242 200 397 267
4 257 321 148 234
4 203 243 397 267
4 46 44 188 364
4 327 41 43 161
4 50 40 445 225
4 191 49 47 381
4 380 67 63 196
4 64 444 230 66
4 88 236 49 258
4 457 0 16 85
4 325 94 257 234
4 110 401 242 267
4 435 508 78 221
4 401 103 243 267
4 257 87 325 235
4 163 179 170 171
4 511 223 425 222
4 404 212 213 510
4 56 184 474 376
4 263 14 108 290
4 340 471 158 157
4 367 123 124 307
4 52 339 473 160
4 86 257 50 235
4 102 71 243 267
4 227 455 484 226
4 268 398 67 241
4 43 257 93 234
4 109 242 66 267
4 105 33 9 290
4 193 192 487 391
4 322 233 44 258
4 322 49 236 258
4 170 179 354 171
4 268 70 398 244
4 194 390 486 195
4 156 174 52 358
4 106 271 13 456
4 16 274 457 141
4 457 250 0 85
4 160 334 468 159
4 70 403 68 207
4 424 73 217 71
4 7 260 189 92
4 8 296 100 98
4 9 265 273 100
4 50 257 321 235
4 397 243 71 267
4 321 257 43 234
4 397 66 242 267
4 114 288 115 330
4 117 116 287 333
4 360 356 56 478
4 259 93 327 154
4 95 364 189 260
4 280 312 316 532
4 100 264 317 8
4 274 0 16 457
4 84 0 292 274
4 373 124 26 276
4 90 326 4 154
4 190 29 393 89
4 405 498 209 210
4 29 89 304 251
4 445 86 250 146
4 271 109 444 224
4 190 381 88 249
4 197 272 111 380
4 370 121 122 308
4 167 168 356 183
4 211 504 419 210
4 174 344 351 156
4 216 36 101 438
4 373 26 6 276
4 137 138 315 431
4 244 204 201 401
4 168 356 56 167
4 313 135 34 421
4 154 19 336 90
4 271 12 224 106
4 303 252 19 90
4 265 290 9 273
4 314 422 35 134
4 250 2 85 146
4 216 10 101 442
4 217 435 497 78
4 414 496 74 207
4 412 507 75 208
4 30 197 392 108
4 292 252 19 303
4 441 314 35 140
4 501 219 220 426
4 317 273 265 100
4 469 186 187 377
4 197 394 15 108
4 3 190 89 379
4 148 235 325 152
4 384 125 126 286
4 313 34 420 421
4 189 373 92 260
4 261 11 206 105
4 509 74 211 414
4 35 422 314 441
4 107 263 290 14
4 285 128 127 383
4 341 357 346 175
4 420 133 34 313
4 363 342 181 359
4 36 264 302 101
4 69 70 68 207
4 73 72 217 71
4 401 268 103 110
4 325 94 258 87
4 325 94 87 257
4 103 401 110 267
4 79 516 223 433
4 514 213 412 75
4 252 91 253 292
4 76 413 515 212
4 77 434 222 517
4 343 476 52 358
4 275 107 13 283
4 156 351 174 358
4 480 193 382 194
4 347 354 179 171
4 164 180 171 358
4 119 280 120 348
4 178 479 354 170
4 34 420 421 76
4 422 35 77 441
4 105 417 206 261
4 23 25 359 120
4 351 177 174 358
4 271 106 224 456
4 251 84 282 1
4 44 45 46 188
4 43 41 42 161
4 47 48 49 191
4 50 51 40 225
4 67 62 63 196
4 230 65 64 66
4 273 265 290 317
4 252 91 292 5
4 457 250 85 146
4 282 29 304 251
4 179 347 171 477
4 359 169 353 348
4 446 483 228 227
4 118 22 20 357
4 206 33 417 105
4 146 323 256 145
4 269 198 197 399
4 362 168 350 182
4 354 479 179 170
4 47 151 190 324
4 323 41 154 147
4 224 400 64 199
4 150 189 255 324
4 154 256 323 147
4 189 150 46 324
4 146 40 323 145
4 197 198 63 399
4 255 190 151 324
4 224 270 400 199
4 506 79 218 433
4 164 171 52 358
4 356 162 178 170
4 168 350 356 183
4 355 357 155 349
4 283 13 39 106
4 254 91 6 282
4 206 202 399 68
4 149 233 44 322
4 201 67 398 241
4 264 100 317 266
4 216 73 400 205
4 270 216 400 205
4 202 269 206 399
4 33 105 301 290
4 26 189 373 92
4 479 178 162 170
4 171 477 180 164
4 347 171 477 180
4 86 323 256 146
4 173 155 349 156
4 283 39 302 106
4 111 269 197 399
4 263 107 290 265
4 256 323 93 154
4 204 398 70 244
4 153 49 236 322
4 152 50 321 235
4 203 243 71 397
4 243 244 103 401
4 94 325 233 234
4 324 255 190 88
4 400 109 270 224
4 353 166 168 169
4 236 325 87 235
4 401 242 241 110
4 163 179 171 477
4 163 179 479 170
4 224 39 456 106
4 16 146 457 85
4 292 16 0 85
4 102 424 73 216
4 403 206 104 68
4 242 200 66 397
4 148 321 43 234
4 162 356 56 170
4 104 206 269 399
4 402 32 33 301
4 71 424 73 102
4 104 70 403 68
4 251 84 254 282
4 92 6 26 282
4 347 171 180 358
4 182 166 168 353
4 176 173 349 156
4 354 356 178 170
4 476 180 52 358
4 343 52 177 358
4 349 175 155 345
4 303 16 292 85
4 169 353 361 181
4 182 168 350 353
4 478 356 56 178
4 266 317 265 100
4 93 257 43 321
4 66 397 109 267
4 49 322 88 258
4 162 478 56 178
4 164 180 52 476
4 177 174 52 343
4 303 326 18 320
4 92 189 7 378
4 70 104 268 398
4 28 319 304 379
4 224 106 12 443
4 37 302 395 442
4 396 394 31 301
4 398 111 268 67
4 29 28 304 379
4 360 56 356 183
4 93 41 43 327
4 364 46 44 95
4 32 402 396 301
4 56 360 167 183
4 351 344 176 156
4 304 27 26 378
4 273 99 9 100
4 86 50 257 321
4 102 397 71 267
4 95 322 44 258
4 326 4 19 90
4 302 264 283 106
4 346 341 175 172
4 181 165 342 363
4 67 63 111 380
4 86 50 40 445
4 49 47 381 88
4 66 64 444 109
4 304 92 26 282
4 113 293 14 107
4 327 93 41 154
4 364 189 46 95
4 296 317 8 100
4 304 319 27 378
4 10 36 101 442
4 111 63 197 380
4 40 86 445 146
4 381 47 190 88
4 109 64 444 224
4 398 399 69 104
4 18 19 326 303
4 394 30 31 301
4 395 302 38 443
4 39 38 302 443
4 322 324 95 45
4 321 323 86 51
4 397 400 102 72
4 395 270 12 199
4 151 319 3 255
4 396 198 15 269
4 273 317 296 100
4 145 256 2 320
4 147 4 256 320
4 351 176 349 156
4 323 86 40 146
4 197 63 111 399
4 301 15 108 263
4 318 16 17 303
4 169 181 342 359
4 175 341 357 155
4 190 47 324 88
4 41 93 323 154
4 109 400 64 224
4 10 270 395 205
4 150 7 319 255
4 11 202 396 269
4 360 56 55 478
4 476 52 54 343
4 21 20 346 341
4 342 24 25 363
4 54 57 476 343
4 11 402 206 105
4 89 3 304 251
4 302 37 36 442
4 89 3 29 304
4 360 55 58 478
4 104 206 399 68
4 104 111 268 398
4 257 93 86 321
4 102 109 397 267
4 95 88 322 258
4 89 29 3 379
4 303 4 252 90
4 96 91 5 291
4 151 3 190 255
4 197 15 198 269
4 224 12 270 199
4 263 301 105 290
4 146 256 2 145
4 154 4 256 147
4 83 1 294 84
4 189 7 150 255
4 256 4 2 320
4 270 12 10 395
4 7 3 319 255
4 15 11 396 269
4 108 30 15 301
4 19 4 303 90
4 395 302 10 442
4 302 264 10 101
4 30 15 394 108
4 4 326 303 320
4 341 175 172 155
4 169 181 165 342
4 303 292 252 85
4 304 319 3 379
4 270 10 216 205
4 11 202 269 206
4 93 86 323 256
4 88 324 255 95
4 400 109 102 270
4 104 269 111 399
4 31 32 396 301
4 15 394 396 301
4 105 265 290 9
4 45 46 324 95
4 40 51 86 323
4 72 73 400 102
4 63 62 111 399
4 253 0 292 84
4 167 356 56 183
4 302 10 36 101
4 396 402 11 301
4 27 28 319 304
4 282 304 92 251
4 106 266 283 13
4 18 17 303 320
4 177 52 174 358
4 68 399 104 69
4 324 47 48 88
4 42 41 93 323
4 400 64 65 109
4 162 56 356 178
4 301 105 11 263
4 155 357 175 349
4 52 180 164 358
4 38 37 302 395
4 7 319 304 378
4 181 169 353 359
4 12 302 395 443
4 106 39 12 443
4 302 36 10 442
4 24 23 25 363
4 20 22 21 346
4 326 19 4 303
4 304 7 92 251
4 253 85 292 0
4 173 176 344 156
4 322 324 48 95
4 321 323 42 86
4 397 400 65 102
4 398 399 104 62
4 62 111 104 398
4 86 93 42 321
4 109 397 65 102
4 88 322 48 95
4 168 362 166 182
4 107 266 13 283
4 318 2 16 303
4 402 11 33 105
4 303 252 2 85
4 105 11 33 301
4 92 7 26 378
4 402 33 11 301
4 175 172 155 345
4 361 169 181 165
4 12 264 302 106
4 304 3 29 379
4 199 224 12 443
4 326 4 154 147
4 317 266 283 264
4 88 48 324 95
4 86 42 93 323
4 65 400 109 102
4 104 111 62 399
4 265 105 290 263
4 189 150 7 378
4 3 151 190 379
4 198 394 15 197
4 146 2 318 145
4 205 10 216 442
4 12 395 199 443
4 205 395 10 442
4 147 326 4 320
4 106 266 264 283
4 11 402 202 206
4 302 12 39 443
4 151 3 319 379
4 150 319 7 378
4 15 394 198 396
4 402 11 202 396
4 92 26 7 304
4 11 15 301 263
4 6 92 254 282
4 15 30 394 301
4 253 85 252 292
4 2 318 145 320
4 252 2 4 303
4 3 7 304 251
4 304 26 7 378
4 11 15 396 301
4 2 16 303 85
4 3 7 319 304
4 264 10 12 302
4 303 2 4 320
4 10 12 302 395
4 62 111 398 67
4 51 50 86 321
4 397 71 72 102
4 322 44 45 95
4 282 92 254 251
4 398 70 104 69
4 93 43 42 321
4 65 66 397 109
4 48 49 322 88
4 302 39 12 106
4 49 48 47 88
4 111 62 63 67
4 42 41 43 93
4 40 51 50 86
4 46 45 44 95
4 65 64 66 109
4 68 104 70 69
4 71 73 72 102
4 7 95 255 189
4 407 99 403 417
4 407 403 99 521
4 498 524 411 505
4 411 524 498 522
4 275 520 293 297
4 293 520 275 112
4 300 417 99 407
4 300 99 417 273
4 523 377 518 372
4 523 518 377 469
4 519 274 294 298
4 519 294 274 82
4 529 516 512 524
4 529 512 516 511
4 315 427 522 431
4 522 427 315 295
4 234 233 518 458
4 234 518 233 94
4 236 235 519 461
4 519 235 236 87
4 242 241 520 492
4 242 520 241 110
4 243 244 521 103
4 243 521 244 495
4 156 155 525 329
4 156 525 155 349
4 389 531 387 382
4 387 531 389 526
4 156 533 351 171
4 156 351 533 352
4 347 351 533 171
4 347 533 351 352
4 529 422 434 441
4 407 311 522 300
4 522 311 407 410
4 289 155 532 355
4 532 155 289 338
4 486 382 194 480
4 486 194 382 390
4 484 446 227 483
4 484 227 446 455
4 504 405 210 498
4 504 210 405 419
4 447 275 144 297
4 144 275 447 456
4 215 413 76 421
4 76 413 215 515
4 365 469 186 467
4 365 186 469 377
4 146 16 2 85
4 146 2 16 318
4 274 448 141 298
4 274 141 448 457
4 214 529 434 517
4 434 529 214 422
4 434 77 214 517
4 214 77 434 422
4 356 168 533 350
4 533 168 356 56
4 282 253 91 292
4 91 253 282 254
4 358 156 171 52
4 358 171 156 351
4 201 268 401 241
4 201 401 268 244
4 325 153 233 149
4 325 233 153 236
4 201 244 398 204
4 398 244 201 268
4 108 290 301 263
4 301 290 108 30
4 148 257 325 235
4 148 325 257 234
4 267 200 401 242
4 235 148 321 152
4 235 321 148 257
4 203 267 401 243
4 401 267 203 200
4 95 324 189 46
4 95 189 324 255
4 102 400 216 73
4 102 216 400 270
4 303 318 320 17
4 303 320 318 2
4 153 322 233 149
4 233 236 322 153
4 322 236 233 258

CELL_TYPES 2959
1
1
1
1
1
1
1
1
1
1
1
1
1
1
1
1
1
1
1
1
1
1
1
1
1
1
1
1
1
1
1
1
1
1
1
1
1
1
1
1
1
1
1
1
1
1
1
1
1
1
1
1
1
1
1
1
1
1
1
1
1
1
1
1
1
1
1
1
1
1
1
1
1
1
1
1
1
1
1
1
1
1
3
3
3
3
3
3
3
3
3
3
3
3
3
3
3
3
3
3
3
3
3
3
3
3
3
3
3
3
3
3
3
3
3
3
3
3
3
3
3
3
3
3
3
3
3
3
3
3
3
3
3
3
3
3
3
3
3
3
3
3
3
3
3
3
3
3
3
3
3
3
3
3
3
3
3
3
3
3
3
3
3
3
3
3
3
3
3
3
3
3
3
3
3
3
3
3
3
3
3
3
3
3
3
3
3
3
3
3
3
3
3
3
3
3
3
3
3
3
3
3
3
3
3
3
3
3
3
3
3
3
3
3
3
3
3
3
3
3
3
3
3
3
3
3
3
3
3
3
3
3
3
3
3
3
3
3
3
3
3
3
3
3
3
3
3
3
3
3
3
3
3
3
3
3
3
3
3
3
3
3
3
3
3
3
3
3
3
3
3
3
3
3
3
3
3
3
3
3
3
3
3
3
3
3
3
3
3
3
3
3
3
3
3
3
3
3
3
3
3
3
3
3
3
3
3
3
3
3
3
3
3
3
3
3
3
3
3
3
3
3
3
3
3
3
3
3
3
3
3
3
3
3
3
3
3
3
3
3
3
3
3
3
3
3
3
3
3
3
3
3
3
3
3
3
3
3
3
3
3
3
3
3
3
3
3
3
3
3
3
3
5
5
5
5
5
5
5
5
5
5
5
5
5
5
5
5
5
5
5
5
5
5
5
5
5
5
5
5
5
5
5
5
5
5
5
5
5
5
5
5
5
5
5
5
5
5
5
5
5
5
5
5
5
5
5
5
5
5
5
5
5
5
5
5
5
5
5
5
5
5
5
5
5
5
5
5
5
5
5
5
5
5
5
5
5
5
5
5
5
5
5
5
5
5
5
5
5
5
5
5
5
5
5
5
5
5
5
5
5
5
5
5
5
5
5
5
5
5
5
5
5
5
5
5
5
5
5
5
5
5
5
5
5
5
5
5
5
5
5
5
5
5
5
5
5
5
5
5
5
5
5
5
5
5
5
5
5
5
5
5
5
5
5
5
5
5
5
5
5
5
5
5
5
5
5
5
5
5
5
5
5
5
5
5
5
5
5
5
5
5
5
5
5
5
5
5
5
5
5
5
5
5
5
5
5
5
5
5
5
5
5
5
5
5
5
5
5
5
5
5
5
5
5
5
5
5
5
5
5
5
5
5
5
5
5
5
5
5
5
5
5
5
5
5
5
5
5
5
5
5
5
5
5
5
5
5
5
5
5
5
5
5
5
5
5
5
5
5
5
5
5
5
5
5
5
5
5
5
5
5
5
5
5
5
5
5
5
5
5
5
5
5
5
5
5
5
5
5
5
5
5
5
5
5
5
5
5
5
5
5
5
5
5
5
5
5
5
5
5
5
5
5
5
5
5
5
5
5
5
5
5
5
5
5
5
5
5
5
5
5
5
5
5
5
5
5
5
5
5
5
5
5
5
5
5
5
5
5
5
5
5
5
5
5
5
5
5
5
5
5
5
5
5
5
5
5
5
5
5
5
5
5
5
5
5
5
5
5
5
5
5
5
5
5
5
5
5
5
5
5
5
5
5
5
5
5
5
5
5
5
5
5
5
5
5
5
5
5
5
5
5
5
5
5
5
5
5
5
5
5
5
5
5
5
5
5
5
5
5
5
5
5
5
5
5
5
5
5
5
5
5
5
5
5
5
5
5
5
5
5
5
5
5
5
5
5
5
5
5
5
5
5
5
5
5
5
5
5
5
5
5
5
5
5
5
5
5
5
5
5
5
5
5
5
5
5
5
5
5
5
5
5
5
5
5
5
5
5
5
5
5
5
5
5
5
5
5
5
5
5
5
5
5
5
5
5
5
5
5
5
5
5
5
5
5
5
5
5
5
5
5
5
5
5
5
5
5
5
5
5
5
5
5
5
5
5
5
5
5
5
5
5
5
5
5
5
5
5
5
5
5
5
5
5
5
5
5
5
5
5
5
5
5
5
5
5
5
5
5
5
5
5
5
5
5
5
5
5
5
5
5
5
5
5
5
5
5
5
5
5
5
5
5
5
5
5
5
5
5
5
5
5
5
5
5
5
5
5
5
5
5
5
5
5
5
5
5
5
5
5
5
5
5
5
5
5
5
5
5
5
5
5
5
5
5
5
5
5
5
5
5
5
5
5
5
5
5
5
5
5
5
5
5
5
5
5
5
5
5
5
5
5
5
5
5
5
5
5
5
5
5
5
5
5
5
5
5
5
5
5
5
5
5
5
5
5
5
5
5
5
5
5
5
5
5
5
5
5
5
5
5
5
5
5
5
5
5
5
5
5
5
5
5
5
5
5
5
5
5
5
5
5
5
5
5
5
5
5
5
5
5
5
5
5
5
5
5
5
5
5
5
5
5
5
5
5
5
5
5
5
5
5
5
5
5
5
5
5
5
5
5
5
5
5
5
5
5
5
5
5
5
5
5
5
5
5
5
5
5
5
5
5
5
5
5
5
5
5
5
5
5
5
5
5
5
5
5
5
5
5
5
5
5
5
5
5
5
5
5
5
5
5
5
5
5
5
5
5
5
5
5
5
5
5
5
5
5
5
5
5
5
5
5
5
5
5
5
5
5
5
5
5
5
5
5
5
5
5
5
5
5
5
5
5
5
5
5
5
5
5
5
5
5
5
5
5
5
5
5
5
5
5
5
5
5
5
5
5
5
5
5
5
5
5
5
5
5
5
5
5
5
5
5
5
5
5
5
5
5
5
5
5
5
5
5
5
5
5
5
5
5
5
5
5
5
5
5
5
5
5
5
5
5
5
5
5
5
5
5
5
5
5
5
5
5
5
5
5
5
5
5
5
5
5
5
5
5
5
5
5
5
5
5
5
5
5
5
5
5
5
5
5
5
5
5
5
5
5
5
5
5
5
5
5
5
5
5
5
5
5
5
5
5
5
5
5
5
5
5
5
5
5
5
5
5
5
5
5
5
5
5
5
5
5
10
10
10
10
10
10
10
10
10
10
10
10
10
10
10
10
10
10
10
10
10
10
10
10
10
10
10
10
10
10
10
10
10
10
10
10
10
10
10
10
10
10
10
10
10
10
10
10
10
10
10
10
10
10
10
10
10
10
10
10
10
10
10
10
10
10
10
10
10
10
10
10
10
10
10
10
10
10
10
10
10
10
10
10
10
10
10
10
10
10
10
10
10
10
10
10
10
10
10
10
10
10
10
10
10
10
10
10
10
10
10
10
10
10
10
10
10
10
10
10
10
10
10
10
10
10
10
10
10
10
10
10
10
10
10
10
10
10
10
10
10
10
10
10
10
10
10
10
10
10
10
10
10
10
10
10
10
10
10
10
10
10
10
10
10
10
10
10
10
10
10
10
10
10
10
10
10
10
10
10
10
10
10
10
10
10
10
10
10
10
10
10
10
10
10
10
10
10
10
10
10
10
10
10
10
10
10
10
10
10
10
10
10
10
10
10
10
10
10
10
10
10
10
10
10
10
10
10
10
10
10
10
10
10
10
10
10
10
10
10
10
10
10
10
10
10
10
10
10
10
10
10
10
10
10
10
10
10
10
10
10
10
10
10
10
10
10
10
10
10
10
10
10
10
10
10
10
10
10
10
10
10
10
10
10
10
10
10
10
10
10
10
10
10
10
10
10
10
10
10
10
10
10
10
10
10
10
10
10
10
10
10
10
10
10
10
10
10
10
10
10
10
10
10
10
10
10
10
10
10
10
10
10
10
10
10
10
10
10
10
10
10
10
10
10
10
10
10
10
10
10
10
10
10
10
10
10
10
10
10
10
10
10
10
10
10
10
10
10
10
10
10
10
10
10
10
10
10
10
10
10
10
10
10
10
10
10
10
10
10
10
10
10
10
10
10
10
10
10
10
10
10
10
10
10
10
10
10
10
10
10
10
10
10
10
10
10
10
10
10
10
10
10
10
10
10
10
10
10
10
10
10
10
10
10
10
10
10
10
10
10
10
10
10
10
10
10
10
10
10
10
10
10
10
10
10
10
10
10
10
10
10
10
10
10
10
10
10
10
10
10
10
10
10
10
10
10
10
10
10
10
10
10
10
10
10
10
10
10
10
10
10
10
10
10
10
10
10
10
10
10
10
10
10
10
10
10
10
10
10
10
10
10
10
10
10
10
10
10
10
10
10
10
10
10
10
10
10
10
10
10
10
10
10
10
10
10
10
10
10
10
10
10
10
10
10
10
10
10
10
10
10
10
10
10
10
10
10
10
10
10
10
10
10
10
10
10
10
10
10
10
10
10
10
10
10
10
10
10
10
10
10
10
10
10
10
10
10
10
10
10
10
10
10
10
10
10
10
10
10
10
10
10
10
10
10
10
10
10
10
10
10
10
10
10
10
10
10
10
10
10
10
10
10
10
10
10
10
10
10
10
10
10
10
10
10
10
10
10
10
10
10
10
10
10
10
10
10
10
10
10
10
10
10
10
10
10
10
10
10
10
10
10
10
10
10
10
10
10
10
10
10
10
10
10
10
10
10
10
10
10
10
10
10
10
10
10
10
10
10
10
10
10
10
10
10
10
10
10
10
10
10
10
10
10
10
10
10
10
10
10
10
10
10
10
10
10
10
10
10
10
10
10
10
10
10
10
10
10
10
10
10
10
10
10
10
10
10
10
10
10
10
10
10
10
10
10
10
10
10
10
10
10
10
10
10
10
10
10
10
10
10
10
10
10
10
10
10
10
10
10
10
10
10
10
10
10
10
10
10
10
10
10
10
10
10
10
10
10
10
10
10
10
10
10
10
10
10
10
10
10
10
10
10
10
10
10
10
10
10
10
10
10
10
10
10
10
10
10
10
10
10
10
10
10
10
10
10
10
10
10
10
10
10
10
10
10
10
10
10
10
10
10
10
10
10
10
10
10
10
10
10
10
10
10
10
10
10
10
10
10
10
10
10
10
10
10
10
10
10
10
10
10
10
10
10
10
10
10
10
10
10
10
10
10
10
10
10
10
10
10
10
10
10
10
10
10
10
10
10
10
10
10
10
10
10
10
10
10
10
10
10
10
10
10
10
10
10
10
10
10
10
10
10
10
10
10
10
10
10
10
10
10
10
10
10
10
10
10
10
10
10
10
10
10
10
10
10
10
10
10
10
10
10
10
10
10
10
10
10
10
10
10
10
10
10
10
10
10
10
10
10
10
10
10
10
10
10
10
10
10
10
10
10
10
10
10
10
10
10
10
10
10
10
10
10
10
10
10
10
10
10
10
10
10
10
10
10
10
10
10
10
10
10
10
10
10
10
10
10
10
10
10
10
10
10
10
10
10
10
10
10
10
10
10
10
10
10
10
10
10
10
10
10
10
10
10
10
10
10
10
10
10
10
10
10
10
10
10
10
10
10
10
10
10
10
10
10
10
10
10
10
10
10
10
10
10
10
10
10
10
10
10
10
10
10
10
10
10
10
10
10
10
10
10
10
10
10
10
10
10
10
10
10
10
10
10
10
10
10
10
10
10
10
10
10
10
10
10
10
10
10
10
10
10
10
10
10
10
10
10
10
10
10
10
10
10
10
10
10
10
10
10
10
10
10
10
10
10
10
10
10
10
10
10
10
10
10
10
10
10
10
10
10
10
10
10
10
10
10
10
10
10
10
10
10
10
10
10
10
10
10
10
10
10
10
10
10
10
10
10
10
10
10
10
10
10
10
10
10
10
10
10
10
10
10
10
10
10
10
10
10
10
10
10
10
10
10
10
10
10
10
10
10
10
10
10
10
10
10
10
10
10
10
10
10
10
10
10
10
10
10
10
10
10
10
10
10
10
10
10
10
10
10
10
10
10
10
10
10
10
10
10
10
10
10
10
10
10
10
10
10
10
10
10
10
10
10
10
10
10
10
10
10
10
10
10
10
10
10
10
10
10
10
10
10
10
10
10
10
10
10
10
10
10
10
10
10
10
10
10
10
10
10
10
10
10
10
10
10
10
10
10
10
10
10
10
10
10
10
10
10
10
10
10
10
10
10
10
10
10
10
10
10
10
10
10
10
10
10
10
10
10
10
10
10
10
10
10
10
10
10
10
10
10
10
10
10
10
10
10
10
10
10
10
10
10
10
10
10
10
10
10
10
10
10
10
10
10
10
10
10
10
10
10
10
10
10
10
10
10
10
10
10
10
10
10
10
10
10
10
10
10
10
10
10
10
10
10
10
10
10
10
10
10
10
10
10
10
10
10
10
10
10
10
10
10
10
10
10
10
10
10
10
10
10
10
10
10
10
10
10
10
10
10
10
10
10
10
10
10
10
10
10
10
10
10
10
10
10
10
10
10
10
10
10
10
10
10
10
10
10
10
10
10
10
10
10
10
10
10
10
10
10
10
10
10
10
10
10
10
10
10
10
10
10
10
10
10
10
10
10
10
10
10
10
10
10
10
10
10
10
10
10
10
10
10
10
10
10
10
10
10
10
10
10
10
10
10
10
10
10
10
10
10
10
10
10
10
10
10
10
10
10
10
10
10
10
10
10
10
10
10
