# vtk DataFile Version 2.0
, Created by Gmsh 4.11.1 
ASCII
DATASET UNSTRUCTURED_GRID
POINTS 515 double
8.75 0 -44.40742602607934
9.515238534915245 0 -41.96375261844044
9.515238534915245 0 -38.03624738155955
8.75 0 -35.59257397392065
8.75 0 -3
11.75 0 -3
11.75 0 0
-11.75 0 0
-11.75 0 -3
-8.75 0 -3
-8.75 1.071565949253934e-15 -35.59257397392065
-9.515238534915245 1.16528064149075e-15 -38.03624738155955
-9.515238534915245 1.16528064149075e-15 -41.96375261844044
-8.75 1.071565949253934e-15 -44.40742602607934
-8.75 1.071565949253934e-15 -75.59257397392065
-9.515238534915245 1.16528064149075e-15 -78.03624738155956
-9.515238534915245 1.16528064149075e-15 -81.96375261844044
-8.75 1.071565949253934e-15 -84.40742602607935
-8.75 0 -120
8.75 0 -120
8.75 0 -84.40742602607935
9.515238534915245 0 -81.96375261844044
9.515238534915245 0 -78.03624738155956
8.75 0 -75.59257397392065
8.750000000000002 3.738617976784467 -41.96375261844044
8.750000000000002 3.738617976784467 -38.03624738155955
8.750000000000002 3.738617976784467 -78.03624738155956
8.750000000000002 3.738617976784467 -81.96375261844045
8.75 6.264393278266917 -120
8.75 20 -117.5334376490225
8.75 20 -82.46656235097754
8.75 6.264393278266918 -80
8.75 20 -77.53343764902246
8.75 20 -42.46656235097753
8.75 6.264393278266918 -40
8.75 20 -37.53343764902247
8.75 20 -3
11.75 23 -3
-11.75 23 -3
-8.75 20 -3
11.75 23 0
-11.75 23 0
-8.749999999999998 3.738617976784476 -41.96375261844044
-8.749999999999998 3.738617976784476 -78.03624738155956
-8.749999999999998 3.738617976784476 -81.96375261844045
-8.75 6.264393278266917 -120
-8.75 20 -117.5334376490225
-8.75 20 -82.46656235097754
-8.75 6.264393278266918 -80
-8.75 20 -77.53343764902246
-8.75 20 -42.46656235097753
-8.75 6.264393278266918 -40
-8.75 20 -37.53343764902247
-8.749999999999998 3.738617976784476 -38.03624738155955
7.162202261283904 6.264393278266917 -80
-7.162202261283905 6.264393278266917 -80
7.162202261283904 6.264393278266917 -40
-7.162202261283905 6.264393278266917 -40
4.889337018754503 2.70380620564788 -84.40742602607935
-4.889337018754501 2.703806205647882 -84.40742602607935
5.748234785847905 2.70380620564788 -81.96375261844045
-5.748234785847905 2.703806205647881 -81.96375261844045
5.748234785847905 2.70380620564788 -78.03624738155955
4.889337018754503 2.70380620564788 -75.59257397392065
-4.889337018754501 2.703806205647882 -75.59257397392065
-5.748234785847905 2.703806205647881 -78.03624738155955
4.889337018754503 2.70380620564788 -44.40742602607934
-4.889337018754501 2.703806205647882 -44.40742602607934
5.748234785847905 2.70380620564788 -41.96375261844045
-5.748234785847905 2.703806205647881 -41.96375261844045
5.748234785847905 2.70380620564788 -38.03624738155955
4.889337018754503 2.70380620564788 -35.59257397392066
-4.889337018754501 2.703806205647882 -35.59257397392066
-5.748234785847905 2.703806205647881 -38.03624738155955
8.75 0 -29.07405917913653
8.75 0 -22.55554438435242
8.75 0 -16.03702958956828
8.75 0 -9.518514794784142
5.875000000000016 0 0
3.730349362740526e-14 0 0
-5.874999999999972 0 0
-8.75 0 -9.518514794784126
-8.75 0 -16.03702958956824
-8.75 0 -22.55554438435238
-8.75 0 -29.07405917913653
-8.75 0 -50.6444556156476
-8.75 0 -56.88148520521586
-8.75 0 -63.11851479478413
-8.75 0 -69.35554438435241
-8.75 0 -90.33952168839946
-8.75 0 -96.27161735071957
-8.75 0 -102.2037130130397
-8.75 0 -108.1358086753598
-8.75 0 -114.0679043376799
2.916666666666666 0 -120
-2.916666666666668 0 -120
8.75 0 -90.33952168839946
8.75 0 -96.27161735071957
8.75 0 -102.2037130130397
8.75 0 -108.1358086753598
8.75 0 -114.0679043376799
8.75 0 -50.6444556156476
8.75 0 -56.88148520521586
8.75 0 -63.11851479478413
8.75 0 -69.35554438435241
8.750000000000002 2.118882435615626 -43.59983625723092
8.750000000000002 3.738617976784467 -40
8.750000000000002 2.118882435615623 -36.40016374276908
8.750000000000002 2.118882435615623 -76.40016374276908
8.750000000000002 2.118882435615626 -83.59983625723092
8.75 13.13219663913346 -118.7667188245112
8.75 20 -110.5200625894135
8.75 20 -103.5066875298045
8.75 20 -96.49331247019549
8.75 20 -89.47993741058653
8.75 13.13219663913346 -81.23328117548877
8.75 13.13219663913346 -78.76671882451123
8.75 20 -70.52006258941347
8.75 20 -63.50668752980447
8.75 20 -56.4933124701955
8.75 20 -49.47993741058653
8.75 13.13219663913346 -41.23328117548876
8.75 13.13219663913346 -38.76671882451123
8.75 20 -30.62675011921797
8.75 20 -23.72006258941347
8.75 20 -16.81337505960898
8.75 20 -9.906687529804476
8.75 13.33333333333335 -3
8.75 6.666666666666705 -3
-5.875000000000016 23 -3
-3.730349362740526e-14 23 -3
5.874999999999972 23 -3
11.75 5.749999999999988 -3
11.75 11.49999999999999 -3
11.75 17.24999999999999 -3
-2.916666666666666 20 -3
2.916666666666668 20 -3
-8.75 13.33333333333335 -3
-8.75 6.666666666666705 -3
-11.75 5.749999999999988 -3
-11.75 11.49999999999999 -3
-11.75 17.24999999999999 -3
11.75 5.749999999999988 0
11.75 11.49999999999999 0
11.75 17.24999999999999 0
-5.875000000000016 23 0
-3.730349362740526e-14 23 0
5.874999999999972 23 0
-11.75 5.749999999999988 0
-11.75 11.49999999999999 0
-11.75 17.24999999999999 0
-8.749999999999998 2.118882435615631 -43.59983625723092
-8.749999999999998 2.11888243561563 -76.40016374276908
-8.749999999999998 3.738617976784476 -80.00000000000001
-8.749999999999998 2.118882435615631 -83.59983625723092
-8.75 13.13219663913346 -118.7667188245112
-8.75 20 -110.5200625894135
-8.75 20 -103.5066875298045
-8.75 20 -96.49331247019549
-8.75 20 -89.47993741058653
-8.75 13.13219663913346 -81.23328117548877
-8.75 13.13219663913346 -78.76671882451123
-8.75 20 -70.52006258941347
-8.75 20 -63.50668752980447
-8.75 20 -56.4933124701955
-8.75 20 -49.47993741058653
-8.75 13.13219663913346 -41.23328117548876
-8.75 13.13219663913346 -38.76671882451123
-8.75 20 -9.906687529804501
-8.75 20 -16.813375059609
-8.75 20 -23.72006258941349
-8.75 20 -30.62675011921799
-8.749999999999998 2.11888243561563 -36.40016374276908
-8.749999999999998 3.738617976784476 -40
2.916666666666666 6.264393278266917 -120
-2.916666666666668 6.264393278266917 -120
2.916666666666666 20 -117.5334376490225
-2.916666666666668 20 -117.5334376490225
2.916666666666666 20 -82.46656235097754
-2.916666666666668 20 -82.46656235097754
2.674265916886327 9.131706641264607 -80.51489587121294
-2.674265916886338 9.131706641264605 -80.51489587121294
2.916666666666666 20 -77.53343764902246
-2.916666666666668 20 -77.53343764902246
-2.674265916886328 9.131706641264607 -79.48510412878707
2.67426591688634 9.131706641264605 -79.48510412878707
2.916666666666666 20 -42.46656235097753
-2.916666666666668 20 -42.46656235097753
2.674265916886327 9.131706641264607 -40.51489587121292
-2.674265916886338 9.131706641264605 -40.51489587121292
2.916666666666666 20 -37.53343764902247
-2.916666666666668 20 -37.53343764902247
-2.674265916886328 9.131706641264607 -39.48510412878708
2.67426591688634 9.131706641264605 -39.48510412878708
1.94317670666963 5.238344086380708 -84.40742602607935
-1.943176706669628 5.238344086380708 -84.40742602607935
0 2.70380620564788 -84.40742602607935
5.321966773710863 2.70380620564788 -83.18670786667008
2.338778836171252 5.906173440258027 -81.96375261844045
-2.338778836171249 5.906173440258029 -81.96375261844045
-5.321966773710862 2.70380620564788 -83.18670786667008
5.321966773710862 2.70380620564788 -76.81329213332992
-2.664535259100376e-15 2.70380620564788 -75.59257397392065
-5.321966773710862 2.70380620564788 -76.81329213332992
2.338778836171252 5.906173440258027 -78.03624738155956
-2.338778836171249 5.906173440258029 -78.03624738155956
1.94317670666963 5.238344086380708 -75.59257397392066
-1.943176706669628 5.238344086380708 -75.59257397392066
1.94317670666963 5.238344086380708 -44.40742602607934
-1.943176706669628 5.238344086380708 -44.40742602607934
0 2.70380620564788 -44.40742602607934
5.321966773710863 2.70380620564788 -43.18670786667008
2.338778836171252 5.906173440258027 -41.96375261844044
-2.338778836171249 5.906173440258029 -41.96375261844044
-5.321966773710862 2.70380620564788 -43.18670786667008
5.321966773710862 2.70380620564788 -36.81329213332992
-2.664535259100376e-15 2.70380620564788 -35.59257397392066
-5.321966773710862 2.70380620564788 -36.81329213332992
2.338778836171252 5.906173440258027 -38.03624738155955
-2.338778836171249 5.906173440258029 -38.03624738155955
1.94317670666963 5.238344086380708 -35.59257397392065
-1.943176706669628 5.238344086380708 -35.59257397392065
7.297616541903231 0 -39.99999999999999
-7.235606097854753 0 -79.99622305897718
4.245031512394252 0 -87.21344404413662
4.698930448459007 0 -72.47405917913653
4.289473341554976 0 -47.48891524959605
4.082870746031436 0 -32.25828565974989
-6.406954273964808 0 -39.73861753643448
6.952494903412795 0 -79.28269027014657
-8.881784197001252e-16 0 -115.60720980571
-2.470179557800589 0 -99.23646232249733
-2.903715103332444 0 -60.01784201664053
-2.817172188267775 0 -4.114445958393169
3.104800592772243 0 -19.29628698696035
-4.359217134913554 0 -87.21540871446102
-3.890989824658594 0 -72.61014472053014
-3.259468822169853 0 -47.89143364271257
-4.397333625055295 0 -31.87193398688937
2.147117206028481 0 -105.1695890071451
-3.10480059277225 0 -12.77777219217619
3.715298507194741 0 -5.668959496524906
-2.790497631061436 0 -25.6091362429162
3.812305627383757 0 -58.99261069835824
2.94044243317917 0 -93.48121750712914
-3.421251432047405 0 -66.5893774005001
-6.217248937900877e-15 0 -53.93782217350892
0.135754970173374 0 -41.63083154340522
3.348573931278638 0 -66.23702958956828
-3.475619119559284 0 -19.28557970151527
3.525279825467521 0 -11.98628541131778
3.649528951290375 0 -26.47856659980591
-3.588252035879457 0 -92.96542272833555
-4.371077564579395 0 -105.1694859049124
4.023476016281412 0 -99.27251984010616
-3.446484414976275 0 -110.9020483142675
3.735011192586798 0 -111.3562097388033
5.120355793787745 0 -53.58905778846533
-4.928974936356361 0 -53.76297041043173
3.882397701572518 0 -37.16336268158007
-1.4127729573398 0 -35.72163620142944
-0.1022511502480485 0 -88.99476139570379
-0.2400660472112248 0 -82.68566499092169
2.049521452891654 0 -76.60379871476017
0.5569569151846605 0 -70.90288192089903
-4.998354931447254 0 -43.24097364008178
-4.65842844404824 0 -77.31477113017121
-0.7500515469708544 0 -8.292145610227088
-4.568677885249522 0 -115.822766345877
4.583699062759443 0 -115.8464107349095
-5.307944755715245 0 -82.75432293057472
5.011487621145509 0 -82.6330244718531
-0.08859229756476505 0 -30.23616091737214
-5.293639838755557 0 -7.174484764337812
8.750000000000002 5.549043364880875 -85.27919821347329
8.750000000000002 5.480387844215327 -75.62323684952349
8.750000000000002 4.704267525435015 -91.71912283903799
8.750000000000002 4.743088256740074 -105.4616986178583
8.750000000000002 5.401426068721348 -59.99999999999999
8.750000000000002 5.645199407227757 -19.29628698696035
8.750000000000002 6.996048484144612 -43.6942279056567
8.750000000000002 6.743791458897841 -36.7145138161731
8.750000000000002 13.79426563732577 -27.25237398982586
8.750000000000002 9.844333248892307 -9.135058018792087
8.750000000000002 13.76125289998615 -52.71525789147166
8.750000000000002 14.42310665342746 -66.88412393367349
8.750000000000002 14.1211014413036 -100.0268205117211
8.750000000000002 8.59558861603842 -114.534889919289
8.750000000000002 5.253121070373544 -47.9787248004881
8.750000000000002 4.642727034663022 -32.51367934170612
8.750000000000002 10.38936634223717 -88.55596135517062
8.750000000000002 14.12460521859589 -59.98654682575091
8.750000000000002 14.63248603586148 -106.5236178092059
8.750000000000002 6.361056505946097 -26.64143759480873
8.750000000000002 14.50330218024951 -19.98755029029617
8.750000000000002 4.498708946327474 -66.52272175720549
8.750000000000002 6.471875820060442 -53.07317756196795
8.750000000000002 4.88634823232962 -99.28670270295561
8.750000000000002 14.83188240712272 -13.258936168437
8.750000000000002 4.954712316984905 -12.91811470030487
8.750000000000002 14.7808988714154 -93.06432634181328
8.750000000000002 2.474438665186303 -87.0690210048442
8.750000000000002 2.331813479779074 -72.65803132430241
8.750000000000002 10.52455511361396 -32.92775850334254
8.750000000000002 10.70167215150709 -47.03166332118717
8.750000000000002 14.43464704019233 -73.17946290674237
8.750000000000002 14.4952872486564 -112.931137533392
8.750000000000002 8.604825300047267 -70.6462024497702
8.750000000000002 9.583290020371059 -75.64312420610946
8.750000000000002 4.44832615223516 -111.0906796401573
8.750000000000002 9.137839306580876 -83.73766382862554
8.750000000000002 15.10269677361177 -86.27268314585064
8.750000000000002 9.811876505463815 -96.28694463172303
8.750000000000002 15.16260763919334 -7.905133807507433
8.750000000000002 9.945722073247667 -56.99274079887278
8.750000000000002 9.627738464949571 -63.50600689132699
8.750000000000002 4.636764365120132 -7.663495616770184
8.750000000000002 15.49020347801464 -33.42140781718401
8.750000000000002 15.68812558791228 -46.41045741589653
8.750000000000002 9.68838497463185 -102.9267873481014
8.750000000000002 9.880918757567473 -16.1981537738283
8.750000000000002 9.011193661873071 -108.5853761016099
8.750000000000002 4.165733328667814 -115.8241052147586
8.750000000000002 9.644271633598944 -22.40612309650618
8.750000000000002 3.017778327819708 -45.38140387059052
8.750000000000002 2.043941890157798 -33.41332327881915
10.25 3.104166666666673 -3
-10.25 3.104166666666674 -3
11.75 20.125 -1.5
11.75 14.37499999999999 -1.5
11.75 8.624999999999988 -1.5
11.75 2.874999999999994 -1.5
3.157610638484556 18.22886740495932 0
-2.707174061168086 4.878797530676509 0
7.069955745470661 8.71654637064 0
-6.619519168154191 14.39111856499582 0
7.10287302211511 14.37499999999999 0
0.1126091443291184 11.52691623390895 0
-7.000954855602266 8.644857627020135 0
-2.792058517349997 18.15992185565015 0
2.948495529093417 4.721447277005962 0
-7.528051718759411 18.81262893003678 0
7.528051718759418 4.187371069963204 0
7.820492259183634 19.07601590637069 0
-7.553981076842906 4.160878030182232 0
-11.75 20.125 -1.5
-11.75 14.37499999999999 -1.5
-11.75 8.624999999999988 -1.5
-11.75 2.874999999999994 -1.5
-8.749999999999998 5.674277078785632 -84.11827071703271
-8.749999999999998 4.617494180078541 -92.98316801927467
-8.749999999999998 4.743088256740074 -105.4616986178583
-8.749999999999998 5.401426068721348 -59.99999999999999
-8.749999999999998 5.016639466546756 -19.57935718833709
-8.749999999999998 6.996048484144616 -43.6942279056567
-8.749999999999998 6.743791458897847 -76.71451381617311
-8.749999999999998 8.44338188184004 -35.02317712410989
-8.749999999999998 9.844333248892299 -9.13505801879208
-8.749999999999998 13.76125289998615 -52.71525789147166
-8.749999999999998 13.76118768022048 -67.28689130899602
-8.749999999999998 13.92623903211043 -100
-8.749999999999998 14.6735167552706 -26.80702086222136
-8.749999999999998 8.59558861603842 -114.534889919289
-8.749999999999998 4.972952211681079 -72.82363643069347
-8.749999999999998 5.253121070373546 -47.9787248004881
-8.749999999999998 9.241606138488857 -88.88391914806358
-8.749999999999998 2.956510387143237 -32.44218488541929
-8.749999999999998 5.219692228008142 -26.6491808228141
-8.749999999999998 2.343821348574046 -87.37347385723942
-8.749999999999998 14.09588806197682 -60.00402076782897
-8.749999999999998 14.60000896766262 -106.5191477239191
-8.749999999999998 14.24496541890549 -20.16986390472369
-8.749999999999998 6.43177716051504 -67.04246865806296
-8.749999999999998 6.471875820060442 -53.07317756196795
-8.749999999999998 4.70435719193006 -36.38035462677156
-8.749999999999998 4.871974306014115 -99.49635892053621
-8.749999999999998 14.78882628023204 -13.28932177084158
-8.749999999999998 14.59960109586549 -93.08320904740414
-8.749999999999998 4.849952326871399 -12.96529306720097
-8.749999999999998 10.40555631056856 -72.89920498643525
-8.749999999999998 10.70167215150709 -47.03166332118717
-8.749999999999998 14.49387824076911 -112.9309436000792
-8.749999999999998 14.61367618244631 -33.04944910743485
-8.749999999999998 4.44832615223516 -111.0906796401573
-8.749999999999998 9.575155606594873 -83.86933553803739
-8.749999999999998 14.75630006227463 -86.40865996648762
-8.749999999999998 9.445152232025073 -23.11872141169182
-8.749999999999998 9.797788543709455 -96.55218429358433
-8.749999999999998 15.16260763919333 -7.905133807507433
-8.749999999999998 9.944937911125686 -56.85214235685186
-8.749999999999998 9.942362622146938 -63.17684329723204
-8.749999999999998 4.631310388125465 -7.665951799969683
-8.749999999999998 15.68812558791228 -46.41045741589653
-8.749999999999998 15.4597881259845 -73.40126307167569
-8.749999999999998 9.861463414519815 -103.2373157348792
-8.749999999999998 9.698311495578844 -16.37626922693121
-8.749999999999998 9.457058941327533 -108.962445872697
-8.749999999999998 4.165733328667814 -115.8241052147586
-8.749999999999998 2.043941890157802 -73.41332327881915
-8.749999999999998 3.017778327819714 -45.38140387059052
-8.749999999999998 9.586946441901921 -29.78212341760117
5.52964042759961 3.132196639133459 -120
-3.552713678800501e-15 3.132196639133459 -120
-5.529640427599613 3.132196639133459 -120
9.321966036111816 1.908065407137236 -80.00456271027909
-1.77635683940025e-15 11.23667381632929 -119.1071060622115
0 16.87377409109255 -118.094827566758
4.375 15.15682325087591 -118.4031478606302
-5.833333333333332 9.698294958700188 -119.3833594122556
4.958333333333332 10.4108960525745 -119.2553945494706
-4.375 15.15682325087591 -118.4031478606302
-0.08416427541889604 20 -87.21417144268464
-0.08416427541889959 20 -112.7858285573153
3.009189568666388 20 -99.99999999999999
2.750378817099413 20 -106.8361005507657
2.750378817099416 20 -93.16389944923425
-4.040349434276807 20 -92.05409510891383
-4.040349434276809 20 -107.9459048910862
-3.574977814008037 20 -99.99999999999999
-4.908236075272477 20 -86.736265732828
4.616576241669438 20 -86.95822660089209
4.616576241669436 20 -113.0417733991079
-4.908236075272477 20 -113.263734267172
-3.552713678800501e-15 13.99770610830005 -81.3887044570598
-6.458583610987088 10.03369694888273 -80.67687017484506
6.458583610987079 10.03369694888274 -80.67687017484506
4.722272016792711 14.91918498488882 -81.55417840737455
-4.722272016792715 14.91918498488882 -81.55417840737455
7.105427357601002e-15 13.99770610830005 -78.6112955429402
-6.458583610987079 10.03369694888274 -79.32312982515495
6.458583610987086 10.03369694888273 -79.32312982515495
-4.722272016792708 14.91918498488882 -78.44582159262546
4.722272016792717 14.91918498488883 -78.44582159262546
0.08416427541889959 20 -47.21417144268465
0.08416427541890137 20 -72.78582855731534
-3.009189568666388 20 -59.99999999999999
-2.750378817099413 20 -66.83610055076574
-2.750378817099412 20 -53.16389944923424
4.04034943427681 20 -67.94590489108616
4.040349434276811 20 -52.05409510891383
3.574977814008035 20 -59.99999999999999
-4.616576241669435 20 -46.95822660089209
4.908236075272475 20 -46.73626573282802
-4.616576241669435 20 -73.0417733991079
4.908236075272475 20 -73.26373426717198
-7.105427357601002e-15 13.99770610830004 -41.3887044570598
-6.458583610987086 10.03369694888273 -40.67687017484506
6.458583610987077 10.03369694888274 -40.67687017484506
4.72227201679271 14.91918498488882 -41.55417840737454
-4.722272016792715 14.91918498488882 -41.55417840737454
7.105427357601002e-15 13.99770610830005 -38.6112955429402
-6.458583610987079 10.03369694888274 -39.32312982515494
6.458583610987086 10.03369694888273 -39.32312982515494
-4.722272016792708 14.91918498488882 -38.44582159262546
4.722272016792717 14.91918498488883 -38.44582159262546
0.05355958773221658 20 -32.83937210622883
0.05355958773221481 20 -7.694065542793638
-2.768633143188119 20 -20.26671882451124
-3.785094414511189 20 -12.43376280419353
-3.785094414511185 20 -28.09967484482895
3.33784040172211 20 -27.06505154548191
3.337840401722099 20 -13.46838610354056
4.281409532051218 20 -20.26671882451123
4.761613331224199 20 -33.11960981379473
-4.829640298689128 20 -7.206903175358338
4.761613331224197 20 -7.413827835227732
-4.829640298689128 20 -33.32653447366414
8.812499999999986 23 -1.5
2.937499999999966 23 -1.5
-8.812500000000007 23 -1.5
-2.937500000000027 23 -1.499999999999999
-4.053540663795561 4.235722699003183 -83.52713087341256
4.211342661418568 4.18350591210175 -83.29313125253388
1.696458015898801e-15 5.988690737268003 -83.1251491430444
3.852620970956787 2.70380620564788 -80.94802704783726
-4.047575131530265 2.70380620564788 -80
2.374484463776408 2.70380620564788 -77.73784490701524
1.799483679559656e-15 6.352383108010088 -80.02890092336582
-4.348992562307622 4.630230538960764 -80.02890092336582
4.35021192307696 4.629084939299663 -80
-4.053540663795554 4.235722699003182 -76.47286912658743
4.211342661418557 4.183505912101759 -76.70686874746612
1.687857797125666e-15 5.958330981811357 -76.77790157423289
-4.053540663795561 4.235722699003182 -43.52713087341255
4.211342661418561 4.183505912101755 -43.29313125253388
1.696458015898802e-15 5.988690737268006 -43.12514914304438
-4.047575131530271 2.70380620564788 -40
3.852620970956783 2.70380620564788 -39.05197295216274
2.374484463776408 2.70380620564788 -42.26215509298476
1.799483679559656e-15 6.352383108010088 -39.97109907663418
4.348992562307621 4.630230538960766 -40.02890092336581
-4.347772899852171 4.631375817426497 -40
4.211342661418563 4.183505912101755 -36.70686874746612
-4.053540663795555 4.235722699003184 -36.47286912658743
1.687857797125665e-15 5.958330981811353 -36.77790157423287
2.220446049250313e-15 11.50345864161635 -31.00559151560775
2.244637238696694e-15 11.50345864161633 -71.00559151560776
2.206197775280394e-15 11.36999791395318 -88.60714824770531
2.886579864025407e-15 11.36999791395317 -48.60714824770528
-0.02488399448684575 10.81555765865814 -60.0148478499147
0.08050486400961709 11.34249720136608 -110.0171444036085
-0.134245655636331 10.70588733962453 -19.79007952415967
1.77635683940025e-15 8.585862762518547 -11.00721573326805
-0.0243849162745633 11.29160513414604 -100.8624773093715
1.332267629550188e-15 5.781299950653119 -30.17367692936671
6.661338147750939e-16 4.715971433035198 -50.12702186949249
8.881784197001252e-16 5.745650417859643 -70.12498513496344
-1.798147459013043 7.1882729071684 -94.70476097862169
-2.961818457624531 5.907283035350667 -113.552930022779
6.661338147750939e-16 5.563465005426274 -89.65280278129276
-2.044148359082449 6.530419223989831 -105.4901627771706
-2.228502180650942 13.92734376870886 -5.851311579579505
3.243790186489812 5.907283035350668 -113.552930022779
-5.057901442544067 6.129786226826699 -31.95386584998468
5.328781592088077 6.194204062887822 -72.97084442179957

CELLS 2855 12557
1 0
1 1
1 2
1 3
1 4
1 5
1 6
1 7
1 8
1 9
1 10
1 11
1 12
1 13
1 14
1 15
1 16
1 17
1 18
1 19
1 20
1 21
1 22
1 23
1 24
1 25
1 26
1 27
1 28
1 29
1 30
1 31
1 32
1 33
1 34
1 35
1 36
1 37
1 38
1 39
1 40
1 41
1 42
1 43
1 44
1 45
1 46
1 47
1 48
1 49
1 50
1 51
1 52
1 53
1 54
1 55
1 56
1 57
1 58
1 59
1 60
1 61
1 62
1 63
1 64
1 65
1 66
1 67
1 68
1 69
1 70
1 71
1 72
1 73
2 0 1
2 1 2
2 2 3
2 3 74
2 74 75
2 75 76
2 76 77
2 77 4
2 4 5
2 5 6
2 6 78
2 78 79
2 79 80
2 80 7
2 8 7
2 8 9
2 9 81
2 81 82
2 82 83
2 83 84
2 84 10
2 11 10
2 12 11
2 13 12
2 13 85
2 85 86
2 86 87
2 87 88
2 88 14
2 15 14
2 16 15
2 17 16
2 17 89
2 89 90
2 90 91
2 91 92
2 92 93
2 93 18
2 19 94
2 94 95
2 95 18
2 20 96
2 96 97
2 97 98
2 98 99
2 99 100
2 100 19
2 20 21
2 21 22
2 22 23
2 0 101
2 101 102
2 102 103
2 103 104
2 104 23
2 1 24
2 24 105
2 105 0
2 24 106
2 106 25
2 2 25
2 3 107
2 107 25
2 23 108
2 108 26
2 26 27
2 27 109
2 109 20
2 19 28
2 28 110
2 110 29
2 29 111
2 111 112
2 112 113
2 113 114
2 114 30
2 30 115
2 115 31
2 31 116
2 116 32
2 32 117
2 117 118
2 118 119
2 119 120
2 120 33
2 33 121
2 121 34
2 34 122
2 122 35
2 35 123
2 123 124
2 124 125
2 125 126
2 126 36
2 36 127
2 127 128
2 128 4
2 38 129
2 129 130
2 130 131
2 131 37
2 5 132
2 132 133
2 133 134
2 134 37
2 39 135
2 135 136
2 136 36
2 39 137
2 137 138
2 138 9
2 8 139
2 139 140
2 140 141
2 141 38
2 6 142
2 142 143
2 143 144
2 144 40
2 37 40
2 41 145
2 145 146
2 146 147
2 147 40
2 7 148
2 148 149
2 149 150
2 150 41
2 38 41
2 42 151
2 151 13
2 14 152
2 152 43
2 44 153
2 153 43
2 44 154
2 154 17
2 18 45
2 45 155
2 155 46
2 46 156
2 156 157
2 157 158
2 158 159
2 159 47
2 47 160
2 160 48
2 48 161
2 161 49
2 49 162
2 162 163
2 163 164
2 164 165
2 165 50
2 50 166
2 166 51
2 51 167
2 167 52
2 39 168
2 168 169
2 169 170
2 170 171
2 171 52
2 10 172
2 172 53
2 42 173
2 173 53
2 53 11
2 42 12
2 43 15
2 44 16
2 28 174
2 174 175
2 175 45
2 21 27
2 22 26
2 29 176
2 176 177
2 177 46
2 30 178
2 178 179
2 179 47
2 31 54
2 54 180
2 180 181
2 181 55
2 55 48
2 32 182
2 182 183
2 183 49
2 55 184
2 184 185
2 185 54
2 33 186
2 186 187
2 187 50
2 34 56
2 56 188
2 188 189
2 189 57
2 57 51
2 35 190
2 190 191
2 191 52
2 57 192
2 192 193
2 193 56
2 58 194
2 194 195
2 195 59
2 59 196
2 196 58
2 58 197
2 197 60
2 60 198
2 198 199
2 199 61
2 61 200
2 200 59
2 60 62
2 62 201
2 201 63
2 63 202
2 202 64
2 64 203
2 203 65
2 61 65
2 62 204
2 204 205
2 205 65
2 63 206
2 206 207
2 207 64
2 66 208
2 208 209
2 209 67
2 67 210
2 210 66
2 66 211
2 211 68
2 68 212
2 212 213
2 213 69
2 69 214
2 214 67
2 68 70
2 70 215
2 215 71
2 71 216
2 216 72
2 72 217
2 217 73
2 69 73
2 70 218
2 218 219
2 219 73
2 71 220
2 220 221
2 221 72
3 1 222 0
3 0 226 101
3 222 226 0
3 2 222 1
3 3 222 2
3 74 227 3
3 3 259 222
3 227 259 3
3 6 4 5
3 6 78 4
3 4 241 77
3 78 241 4
3 8 9 7
3 7 9 80
3 9 233 80
3 81 273 9
3 9 273 233
3 11 228 10
3 10 238 84
3 228 260 10
3 10 260 238
3 12 228 11
3 13 265 12
3 12 265 228
3 85 237 13
3 237 265 13
3 15 266 14
3 14 236 88
3 14 266 236
3 16 223 15
3 223 266 15
3 17 270 16
3 16 270 223
3 89 235 17
3 235 270 17
3 18 268 93
3 95 268 18
3 19 269 94
3 100 269 19
3 21 271 20
3 20 224 96
3 20 271 224
3 22 229 21
3 229 271 21
3 23 229 22
3 104 225 23
3 225 263 23
3 23 263 229
3 75 251 74
3 74 251 227
3 76 234 75
3 234 251 75
3 77 250 76
3 76 250 234
3 241 250 77
3 79 241 78
3 80 233 79
3 233 241 79
3 82 240 81
3 240 273 81
3 83 249 82
3 82 249 240
3 84 242 83
3 242 249 83
3 238 242 84
3 86 258 85
3 85 258 237
3 87 232 86
3 232 258 86
3 88 245 87
3 87 245 232
3 236 245 88
3 90 252 89
3 89 252 235
3 91 231 90
3 231 252 90
3 92 253 91
3 91 253 231
3 93 255 92
3 92 255 253
3 93 268 255
3 94 230 95
3 94 269 230
3 230 268 95
3 96 244 97
3 224 244 96
3 97 254 98
3 244 254 97
3 98 239 99
3 98 254 239
3 99 256 100
3 239 256 99
3 256 269 100
3 101 257 102
3 226 257 101
3 102 243 103
3 102 257 243
3 103 248 104
3 243 248 103
3 104 248 225
3 222 247 226
3 222 259 247
3 223 270 266
3 224 261 244
3 224 262 261
3 224 271 262
3 248 264 225
3 225 264 263
3 237 246 226
3 226 247 237
3 246 257 226
3 251 272 227
3 227 260 259
3 227 272 260
3 247 260 228
3 228 265 247
3 263 271 229
3 230 256 255
3 255 268 230
3 230 269 256
3 231 253 239
3 239 254 231
3 244 252 231
3 231 254 244
3 243 246 232
3 232 248 243
3 245 248 232
3 246 258 232
3 233 267 241
3 233 273 267
3 240 249 234
3 234 250 240
3 234 249 242
3 242 251 234
3 252 261 235
3 261 262 235
3 262 270 235
3 236 264 245
3 263 264 236
3 236 266 263
3 237 258 246
3 247 265 237
3 238 272 242
3 260 272 238
3 253 255 239
3 255 256 239
3 250 267 240
3 267 273 240
3 241 267 250
3 242 272 251
3 243 257 246
3 244 261 252
3 245 264 248
3 259 260 247
3 263 266 262
3 262 271 263
3 266 270 262
3 0 105 1
3 1 105 24
3 2 1 106
3 1 24 106
3 2 106 25
3 2 107 3
3 2 25 107
3 101 324 0
3 0 324 105
3 3 325 74
3 107 325 3
3 77 316 4
3 4 316 128
3 28 322 19
3 19 322 100
3 96 301 20
3 20 301 109
3 23 302 104
3 108 302 23
3 106 24 34
3 24 280 34
3 105 324 24
3 24 324 280
3 106 34 25
3 34 281 25
3 25 281 107
3 27 31 26
3 31 275 26
3 26 275 108
3 27 274 31
3 109 274 27
3 110 287 28
3 287 322 28
3 29 306 110
3 111 306 29
3 30 311 114
3 115 311 30
3 31 310 115
3 116 308 31
3 274 310 31
3 31 308 275
3 32 305 116
3 117 305 32
3 33 318 120
3 121 318 33
3 34 280 121
3 122 281 34
3 35 317 122
3 123 317 35
3 36 313 126
3 127 313 36
3 74 293 75
3 289 293 74
3 74 325 289
3 75 279 76
3 75 293 279
3 76 299 77
3 279 299 76
3 299 316 77
3 97 276 96
3 276 301 96
3 98 297 97
3 97 297 276
3 99 277 98
3 277 297 98
3 100 309 99
3 99 309 277
3 100 322 309
3 102 296 101
3 101 296 288
3 288 324 101
3 103 278 102
3 278 296 102
3 104 295 103
3 103 295 278
3 104 302 295
3 281 289 107
3 289 325 107
3 275 302 108
3 109 301 274
3 110 306 287
3 112 292 111
3 292 306 111
3 113 286 112
3 286 292 112
3 114 300 113
3 113 300 286
3 114 311 300
3 310 311 115
3 305 308 116
3 118 285 117
3 285 305 117
3 119 291 118
3 118 291 285
3 120 284 119
3 284 291 119
3 120 318 284
3 280 304 121
3 304 318 121
3 122 303 281
3 122 317 303
3 124 282 123
3 282 317 123
3 125 294 124
3 124 294 282
3 126 298 125
3 125 298 294
3 126 313 298
3 128 283 127
3 283 313 127
3 128 316 283
3 276 290 274
3 274 301 276
3 290 310 274
3 275 307 302
3 275 308 307
3 276 312 290
3 297 312 276
3 277 319 297
3 309 321 277
3 277 321 319
3 295 315 278
3 278 314 296
3 278 315 314
3 293 323 279
3 279 320 299
3 279 323 320
3 288 304 280
3 280 324 288
3 281 303 289
3 293 303 282
3 282 323 293
3 294 323 282
3 303 317 282
3 298 313 283
3 283 320 298
3 283 316 299
3 299 320 283
3 284 314 291
3 284 304 296
3 296 314 284
3 284 318 304
3 291 315 285
3 285 307 305
3 285 315 307
3 286 319 292
3 300 312 286
3 312 319 286
3 306 321 287
3 287 321 309
3 309 322 287
3 296 304 288
3 289 303 293
3 300 311 290
3 290 312 300
3 290 311 310
3 314 315 291
3 292 321 306
3 319 321 292
3 298 320 294
3 320 323 294
3 302 307 295
3 307 315 295
3 297 319 312
3 307 308 305
3 5 4 326
3 4 128 326
3 132 5 326
3 9 8 327
3 8 139 327
3 138 9 327
3 36 131 37
3 134 36 37
3 134 127 36
3 36 136 131
3 129 39 38
3 39 141 38
3 129 135 39
3 141 39 137
3 133 128 127
3 134 133 127
3 133 132 128
3 128 132 326
3 135 129 130
3 136 130 131
3 136 135 130
3 138 140 137
3 140 141 137
3 138 139 140
3 139 138 327
3 5 331 6
3 132 331 5
3 6 331 142
3 40 328 37
3 37 328 134
3 144 328 40
3 133 330 132
3 132 330 142
3 142 331 132
3 134 329 133
3 133 329 143
3 143 330 133
3 134 328 144
3 144 329 134
3 142 330 143
3 143 329 144
3 6 342 78
3 142 342 6
3 80 344 7
3 7 344 148
3 40 343 144
3 147 343 40
3 41 341 145
3 150 341 41
3 78 340 79
3 78 342 340
3 79 333 80
3 79 340 333
3 333 344 80
3 143 334 142
3 334 342 142
3 144 336 143
3 143 336 334
3 144 343 336
3 145 339 146
3 145 341 339
3 146 332 147
3 146 339 332
3 332 343 147
3 148 338 149
3 148 344 338
3 149 335 150
3 149 338 335
3 335 341 150
3 332 337 336
3 336 343 332
3 332 339 337
3 337 338 333
3 333 340 337
3 338 344 333
3 336 337 334
3 337 340 334
3 340 342 334
3 335 338 337
3 337 339 335
3 339 341 335
3 8 7 348
3 7 148 348
3 139 8 348
3 41 38 345
3 38 141 345
3 150 41 345
3 140 139 347
3 139 148 347
3 148 139 348
3 141 140 346
3 140 149 346
3 149 140 347
3 141 150 345
3 150 141 346
3 148 149 347
3 149 150 346
3 81 9 391
3 9 138 391
3 10 84 366
3 172 10 366
3 85 13 399
3 13 151 399
3 14 88 398
3 152 14 398
3 89 17 368
3 17 154 368
3 45 18 397
3 18 93 397
3 137 39 388
3 39 168 388
3 173 51 42
3 42 51 354
3 151 42 399
3 42 354 399
3 153 43 48
3 48 43 355
3 43 152 355
3 44 153 48
3 44 48 349
3 154 44 349
3 155 45 362
3 362 45 397
3 46 155 381
3 156 46 381
3 47 159 385
3 160 47 385
3 48 160 384
3 161 48 355
3 349 48 384
3 49 161 393
3 162 49 393
3 50 165 392
3 166 50 392
3 173 53 51
3 51 53 374
3 51 166 354
3 167 51 356
3 356 51 374
3 52 167 382
3 171 52 382
3 53 172 374
3 82 81 378
3 378 81 391
3 83 82 353
3 353 82 378
3 84 83 367
3 83 353 367
3 366 84 367
3 86 85 373
3 85 364 373
3 364 85 399
3 87 86 352
3 352 86 373
3 88 87 372
3 87 352 372
3 363 88 372
3 88 363 398
3 90 89 350
3 350 89 368
3 91 90 375
3 90 350 375
3 92 91 351
3 351 91 375
3 93 92 383
3 92 351 383
3 93 383 397
3 138 137 357
3 357 137 388
3 138 357 391
3 355 152 363
3 363 152 398
3 154 349 368
3 155 362 381
3 157 156 370
3 370 156 381
3 158 157 360
3 360 157 370
3 159 158 377
3 158 360 377
3 159 377 385
3 384 160 385
3 161 355 379
3 161 379 393
3 163 162 359
3 359 162 393
3 164 163 369
3 163 359 369
3 165 164 358
3 358 164 369
3 165 358 392
3 354 166 380
3 380 166 392
3 167 356 382
3 168 169 376
3 168 376 388
3 169 170 371
3 169 371 376
3 170 171 361
3 170 361 371
3 361 171 382
3 172 366 374
3 349 365 368
3 365 349 384
3 365 350 368
3 350 365 387
3 375 350 387
3 351 375 394
3 383 351 396
3 351 394 396
3 372 352 390
3 352 373 389
3 352 389 390
3 367 353 386
3 353 378 395
3 386 353 395
3 364 354 380
3 354 364 399
3 355 363 379
3 366 356 374
3 356 366 400
3 382 356 400
3 376 357 388
3 357 376 395
3 357 378 391
3 378 357 395
3 358 369 389
3 358 373 380
3 373 358 389
3 358 380 392
3 369 359 390
3 372 359 379
3 359 372 390
3 379 359 393
3 360 370 394
3 377 360 387
3 387 360 394
3 371 361 386
3 361 382 400
3 386 361 400
3 381 362 396
3 362 383 396
3 383 362 397
3 363 372 379
3 373 364 380
3 377 365 385
3 365 377 387
3 365 384 385
3 366 367 400
3 367 386 400
3 389 369 390
3 370 381 396
3 394 370 396
3 376 371 395
3 371 386 395
3 375 387 394
3 172 11 10
3 53 11 172
3 173 12 11
3 173 11 53
3 42 12 173
3 151 13 12
3 42 151 12
3 152 15 14
3 43 15 152
3 153 16 15
3 43 153 15
3 44 16 153
3 154 17 16
3 44 154 16
3 45 403 18
3 18 403 95
3 19 401 28
3 94 401 19
3 28 401 174
3 175 403 45
3 95 402 94
3 94 402 401
3 95 403 402
3 174 402 175
3 401 402 174
3 402 403 175
3 21 20 109
3 21 109 27
3 21 404 22
3 27 404 21
3 22 404 26
3 26 404 27
3 22 108 23
3 22 26 108
3 28 409 110
3 174 409 28
3 110 407 29
3 29 407 176
3 155 408 45
3 45 408 175
3 46 410 155
3 177 410 46
3 110 409 407
3 155 410 408
3 175 405 174
3 405 409 174
3 175 408 405
3 176 406 177
3 176 407 406
3 406 410 177
3 406 407 405
3 405 410 406
3 407 409 405
3 408 410 405
3 29 421 111
3 176 421 29
3 114 420 30
3 30 420 178
3 156 422 46
3 46 422 177
3 47 419 159
3 179 419 47
3 111 414 112
3 111 421 414
3 112 413 113
3 112 414 413
3 113 415 114
3 413 415 113
3 415 420 114
3 157 417 156
3 417 422 156
3 158 418 157
3 157 418 417
3 159 416 158
3 416 418 158
3 159 419 416
3 177 412 176
3 412 421 176
3 177 422 412
3 178 411 179
3 178 420 411
3 411 419 179
3 415 416 411
3 411 420 415
3 416 419 411
3 412 417 414
3 414 421 412
3 412 422 417
3 414 418 413
3 413 418 415
3 417 418 414
3 415 418 416
3 30 426 115
3 178 426 30
3 31 425 54
3 115 425 31
3 160 427 47
3 47 427 179
3 55 424 48
3 48 424 160
3 54 425 180
3 181 424 55
3 115 426 425
3 424 427 160
3 179 423 178
3 423 426 178
3 179 427 423
3 180 423 181
3 180 426 423
3 425 426 180
3 423 427 181
3 181 427 424
3 54 430 31
3 31 430 116
3 116 432 32
3 32 432 182
3 48 429 55
3 161 429 48
3 49 431 161
3 183 431 49
3 185 430 54
3 55 429 184
3 430 432 116
3 161 431 429
3 182 428 183
3 182 432 428
3 428 431 183
3 184 428 185
3 184 431 428
3 429 431 184
3 428 432 185
3 185 432 430
3 32 444 117
3 182 444 32
3 120 442 33
3 33 442 186
3 162 443 49
3 49 443 183
3 50 441 165
3 187 441 50
3 117 438 118
3 117 444 438
3 118 440 119
3 438 440 118
3 119 439 120
3 119 440 439
3 439 442 120
3 163 436 162
3 436 443 162
3 164 435 163
3 435 436 163
3 165 437 164
3 164 437 435
3 165 441 437
3 183 434 182
3 434 444 182
3 183 443 434
3 186 433 187
3 186 442 433
3 433 441 187
3 433 439 437
3 437 441 433
3 433 442 439
3 436 438 434
3 434 443 436
3 438 444 434
3 435 440 436
3 437 440 435
3 436 440 438
3 439 440 437
3 33 448 121
3 186 448 33
3 34 447 56
3 121 447 34
3 166 449 50
3 50 449 187
3 57 446 51
3 51 446 166
3 56 447 188
3 189 446 57
3 121 448 447
3 446 449 166
3 187 445 186
3 445 448 186
3 187 449 445
3 188 445 189
3 188 448 445
3 447 448 188
3 445 449 189
3 189 449 446
3 56 452 34
3 34 452 122
3 122 454 35
3 35 454 190
3 51 451 57
3 167 451 51
3 52 453 167
3 191 453 52
3 193 452 56
3 57 451 192
3 452 454 122
3 167 453 451
3 190 450 191
3 190 454 450
3 450 453 191
3 192 450 193
3 192 453 450
3 451 453 192
3 450 454 193
3 193 454 452
3 35 463 123
3 190 463 35
3 126 465 36
3 36 465 136
3 135 464 39
3 39 464 168
3 171 466 52
3 52 466 191
3 123 460 124
3 123 463 460
3 124 462 125
3 460 462 124
3 125 461 126
3 125 462 461
3 461 465 126
3 136 456 135
3 456 464 135
3 136 465 456
3 168 458 169
3 168 464 458
3 169 457 170
3 169 458 457
3 170 459 171
3 457 459 170
3 459 466 171
3 191 455 190
3 455 463 190
3 191 466 455
3 459 460 455
3 455 466 459
3 460 463 455
3 456 461 458
3 458 464 456
3 456 465 461
3 458 461 457
3 457 460 459
3 457 462 460
3 461 462 457
3 37 467 40
3 131 467 37
3 41 469 38
3 38 469 129
3 40 467 147
3 145 469 41
3 129 470 130
3 129 469 145
3 145 470 129
3 130 468 131
3 146 468 130
3 130 470 146
3 147 467 131
3 131 468 147
3 146 470 145
3 147 468 146
3 54 180 185
3 184 181 55
3 185 180 181
3 185 181 184
3 56 188 193
3 192 189 57
3 193 188 189
3 193 189 192
3 194 196 58
3 196 195 59
3 195 196 194
3 194 58 472
3 58 197 472
3 59 195 471
3 200 59 471
3 197 60 472
3 60 198 472
3 199 61 471
3 61 200 471
3 195 194 473
3 198 194 472
3 194 198 473
3 195 199 471
3 199 195 473
3 198 199 473
3 197 58 196
3 59 200 196
3 60 474 62
3 197 474 60
3 65 475 61
3 61 475 200
3 62 476 201
3 474 476 62
3 201 476 63
3 63 476 202
3 202 203 64
3 203 475 65
3 196 474 197
3 200 475 196
3 196 476 474
3 475 476 196
3 202 475 203
3 202 476 475
3 60 62 479
3 198 60 479
3 65 61 478
3 61 199 478
3 62 204 479
3 205 65 478
3 199 198 477
3 198 204 477
3 204 198 479
3 205 199 477
3 199 205 478
3 204 205 477
3 62 201 481
3 204 62 481
3 201 63 481
3 63 206 481
3 64 203 480
3 207 64 480
3 203 65 480
3 65 205 480
3 205 204 482
3 206 204 481
3 204 206 482
3 205 207 480
3 207 205 482
3 206 207 482
3 202 206 63
3 207 202 64
3 202 207 206
3 208 210 66
3 67 210 209
3 210 208 209
3 208 66 484
3 66 211 484
3 67 209 483
3 214 67 483
3 211 68 484
3 68 212 484
3 213 69 483
3 69 214 483
3 209 208 485
3 212 208 484
3 208 212 485
3 209 213 483
3 213 209 485
3 212 213 485
3 210 488 66
3 66 488 211
3 67 214 210
3 68 487 70
3 211 488 68
3 68 488 487
3 73 486 69
3 69 486 214
3 70 487 215
3 71 215 216
3 216 217 72
3 217 486 73
3 214 486 210
3 486 488 210
3 215 487 216
3 216 486 217
3 216 488 486
3 487 488 216
3 68 70 490
3 212 68 490
3 73 69 491
3 69 213 491
3 70 218 490
3 219 73 491
3 213 212 489
3 212 218 489
3 218 212 490
3 219 213 489
3 213 219 491
3 218 219 489
3 70 215 492
3 218 70 492
3 215 71 492
3 71 220 492
3 72 217 493
3 221 72 493
3 217 73 493
3 73 219 493
3 219 218 494
3 220 218 492
3 218 220 494
3 219 221 493
3 221 219 494
3 220 221 494
3 216 220 71
3 221 216 72
3 221 220 216
4 378 249 353 502
4 199 195 471 384
4 389 499 498 505
4 498 499 314 505
4 323 501 495 504
4 249 501 353 502
4 313 465 502 511
4 416 503 497 507
4 315 295 499 506
4 246 499 258 505
4 205 480 207 355
4 416 377 503 507
4 315 295 278 499
4 267 273 233 502
4 296 498 314 505
4 389 498 373 505
4 361 495 459 501
4 386 495 361 501
4 192 221 494 495
4 220 193 494 495
4 482 206 185 496
4 207 482 184 496
4 496 499 390 506
4 312 497 300 503
4 386 501 367 504
4 293 323 495 504
4 416 497 377 507
4 312 497 503 507
4 389 358 498 499
4 386 495 501 504
4 323 282 495 501
4 314 498 284 499
4 218 220 492 281
4 483 354 213 209
4 284 498 439 499
4 483 67 364 209
4 241 267 340 502
4 285 438 496 499
4 376 501 458 502
4 128 337 283 502
4 483 364 354 209
4 208 209 485 498
4 299 320 279 502
4 359 390 496 499
4 352 258 232 499
4 243 499 246 505
4 480 363 64 207
4 283 502 337 511
4 248 499 295 506
4 194 310 198 472
4 181 473 195 497
4 189 485 209 498
4 180 194 473 497
4 188 208 485 498
4 281 220 492 289
4 315 499 496 506
4 257 243 246 505
4 364 498 209 505
4 208 498 288 505
4 285 496 315 499
4 278 295 248 499
4 300 497 415 503
4 212 484 208 280
4 384 181 195 497
4 127 283 337 511
4 254 503 297 510
4 340 337 128 502
4 320 501 279 502
4 274 58 194 509
4 208 484 66 288
4 372 496 390 506
4 465 313 136 511
4 298 501 320 502
4 249 378 240 502
4 242 501 251 504
4 333 502 138 511
4 232 258 246 499
4 242 367 501 504
4 71 492 220 289
4 234 501 249 502
4 313 465 461 502
4 386 400 495 504
4 127 313 283 511
4 465 461 502 511
4 321 277 319 510
4 465 456 461 511
4 208 304 288 498
4 380 209 364 498
4 297 503 254 507
4 415 497 416 503
4 128 283 316 502
4 323 282 293 495
4 484 208 280 288
4 310 194 180 497
4 299 279 234 502
4 279 251 234 501
4 58 194 472 274
4 361 386 400 495
4 249 242 353 501
4 298 461 501 502
4 391 357 138 502
4 207 184 205 429
4 218 193 220 452
4 189 213 446 209
4 208 188 212 447
4 395 501 376 502
4 277 510 321 512
4 278 248 243 499
4 195 59 365 509
4 127 136 313 511
4 313 502 283 511
4 459 495 460 501
4 296 284 314 498
4 460 495 282 501
4 207 184 429 379
4 279 501 234 502
4 321 319 500 510
4 373 389 358 498
4 207 184 379 496
4 377 387 503 507
4 181 384 424 427
4 371 386 361 501
4 319 503 500 510
4 357 138 502 511
4 128 340 334 337
4 356 192 451 495
4 461 458 501 502
4 294 282 323 501
4 8 139 348 327
4 326 331 5 132
4 437 498 358 499
4 292 500 319 503
4 461 298 313 502
4 188 208 304 447
4 446 380 189 209
4 453 451 192 495
4 233 267 340 241
4 358 389 369 499
4 370 500 417 503
4 386 367 400 504
4 299 234 250 502
4 359 369 390 499
4 439 498 437 499
4 286 312 300 503
4 413 292 286 503
4 207 379 363 506
4 291 314 284 499
4 410 362 408 508
4 387 360 377 503
4 361 459 457 501
4 213 354 446 209
4 447 212 208 280
4 306 409 287 500
4 452 193 220 303
4 333 337 340 502
4 287 500 409 512
4 220 303 193 495
4 359 496 436 499
4 458 376 502 511
4 471 199 384 424
4 298 283 313 502
4 410 408 405 508
4 333 337 502 511
4 415 413 286 503
4 436 496 438 499
4 497 507 312 509
4 232 499 248 506
4 418 416 377 503
4 384 195 365 497
4 410 500 362 508
4 371 361 457 501
4 429 205 207 355
4 220 218 452 281
4 307 315 496 506
4 289 303 220 504
4 359 390 372 496
4 309 256 277 512
4 199 181 195 384
4 286 300 415 503
4 188 304 208 498
4 380 189 209 498
4 232 248 245 506
4 64 207 363 506
4 370 500 503 510
4 298 294 320 501
4 360 418 377 503
4 208 288 66 505
4 67 364 209 505
4 472 194 310 274
4 310 180 425 497
4 407 405 409 500
4 407 409 306 500
4 407 412 406 500
4 410 381 362 500
4 370 503 394 510
4 425 180 426 497
4 381 410 422 500
4 321 319 292 500
4 239 510 277 512
4 310 425 426 497
4 71 289 220 504
4 242 234 251 501
4 321 510 500 512
4 307 295 315 506
4 410 405 500 508
4 291 284 440 499
4 282 463 317 495
4 311 420 300 497
4 207 496 379 506
4 457 376 371 501
4 285 440 438 499
4 221 495 192 513
4 209 189 213 485
4 485 208 188 212
4 199 195 181 473
4 198 473 180 194
4 184 429 379 431
4 208 304 447 280
4 380 446 354 209
4 285 315 291 499
4 192 494 450 495
4 494 193 450 495
4 428 184 482 496
4 428 482 185 496
4 220 494 193 218
4 219 494 192 221
4 185 482 204 206
4 184 207 205 482
4 440 284 439 499
4 376 395 371 501
4 437 369 435 499
4 309 277 321 512
4 312 503 297 507
4 443 359 393 496
4 441 392 358 498
4 274 194 290 509
4 435 369 436 499
4 290 194 310 497
4 243 248 232 499
4 312 290 497 509
4 285 307 315 496
4 240 234 249 502
4 244 297 254 507
4 285 291 440 499
4 249 234 242 501
4 437 358 369 499
4 407 421 412 500
4 442 318 448 498
4 384 427 181 497
4 503 507 375 510
4 359 436 369 499
4 461 458 502 511
4 457 458 376 501
4 303 495 220 504
4 288 498 296 505
4 373 498 364 505
4 406 410 405 500
4 207 429 355 379
4 444 434 432 496
4 274 301 58 276
4 405 409 500 512
4 427 385 419 497
4 439 318 442 498
4 276 312 297 507
4 180 310 198 194
4 407 406 405 500
4 466 453 455 495
4 241 250 267 502
4 301 224 58 276
4 447 304 188 448
4 380 449 446 189
4 232 246 243 499
4 454 317 463 495
4 419 385 416 497
4 303 452 193 454
4 461 456 458 511
4 433 442 448 498
4 427 419 411 497
4 396 500 370 510
4 276 297 244 507
4 305 432 308 496
4 466 382 453 495
4 241 316 250 502
4 384 385 427 497
4 444 432 305 496
4 276 312 507 509
4 407 306 421 500
4 292 414 500 503
4 333 138 338 511
4 394 503 375 510
4 185 496 206 514
4 394 396 370 510
4 431 443 393 496
4 296 288 304 498
4 373 380 364 498
4 194 497 290 509
4 181 423 473 497
4 180 473 423 497
4 445 485 189 498
4 188 485 445 498
4 357 502 376 511
4 292 319 286 503
4 450 494 192 193
4 482 184 428 185
4 220 452 303 281
4 473 423 181 180
4 189 445 188 485
4 459 460 457 501
4 312 276 290 509
4 356 192 495 513
4 231 375 507 510
4 454 463 455 495
4 370 360 394 503
4 292 413 414 503
4 239 277 256 512
4 298 320 283 502
4 312 290 300 497
4 240 273 267 502
4 449 392 441 498
4 431 379 184 496
4 431 434 443 496
4 417 381 422 500
4 250 316 299 502
4 381 396 362 500
4 365 497 195 509
4 426 420 311 497
4 444 305 438 496
4 370 417 418 503
4 449 441 433 498
4 426 411 420 497
4 9 138 327 344
4 417 500 414 503
4 387 375 394 503
4 416 385 377 497
4 128 4 326 342
4 418 415 416 503
4 357 395 376 502
4 459 382 466 495
4 370 418 360 503
4 362 500 396 508
4 367 400 504 513
4 199 471 55 424
4 387 375 503 507
4 428 434 431 496
4 208 304 280 288
4 380 354 364 209
4 303 454 193 495
4 365 377 497 507
4 417 422 412 500
4 439 284 318 498
4 337 336 127 511
4 450 455 453 495
4 428 432 434 496
4 274 276 58 509
4 454 455 450 495
4 352 390 389 499
4 194 290 310 274
4 235 368 59 509
4 449 433 445 498
4 423 411 426 497
4 430 204 481 514
4 456 465 136 511
4 240 250 234 502
4 368 365 59 509
4 276 507 244 509
4 384 199 181 424
4 411 423 427 497
4 448 445 433 498
4 308 305 496 514
4 204 54 430 481
4 431 393 379 496
4 304 284 296 498
4 358 380 373 498
4 433 439 442 498
4 419 416 411 497
4 460 462 457 501
4 440 439 437 499
4 361 382 459 495
4 449 189 380 498
4 304 188 448 498
4 381 370 396 500
4 436 438 440 499
4 379 359 372 496
4 420 415 300 497
4 112 413 292 286
4 379 496 372 506
4 293 495 303 504
4 283 320 299 502
4 287 321 306 500
4 381 417 370 500
4 290 310 426 497
4 350 252 375 507
4 457 461 458 501
4 289 227 251 504
4 363 379 372 506
4 418 413 415 503
4 316 283 299 502
4 337 332 336 511
4 293 282 303 495
4 365 385 384 497
4 319 297 312 503
4 430 308 481 275
4 289 293 303 504
4 305 285 438 496
4 375 350 90 252
4 444 438 434 496
4 437 441 358 498
4 495 504 400 513
4 481 54 430 275
4 356 495 382 513
4 460 463 282 495
4 287 321 500 512
4 435 440 437 499
4 421 306 414 500
4 440 435 436 499
4 311 300 290 497
4 395 357 378 502
4 224 58 276 509
4 388 357 376 511
4 454 303 317 495
4 193 454 450 495
4 185 432 428 496
4 431 184 428 496
4 450 453 192 495
4 254 239 231 510
4 391 378 357 502
4 459 466 455 495
4 307 295 506 514
4 227 289 71 504
4 377 385 365 497
4 314 315 278 499
4 462 294 282 124
4 306 292 414 500
4 375 253 351 510
4 281 303 220 289
4 361 400 382 495
4 359 443 436 496
4 383 351 92 253
4 209 498 208 505
4 471 349 55 424
4 257 288 296 505
4 400 356 382 513
4 349 471 384 424
4 284 304 318 498
4 392 380 358 498
4 393 359 379 496
4 306 321 292 500
4 426 311 290 497
4 449 380 392 498
4 304 448 318 498
4 363 372 236 506
4 462 298 294 125
4 236 64 363 506
4 461 457 462 501
4 323 279 320 501
4 508 510 255 512
4 305 307 285 496
4 353 386 395 501
4 308 307 305 514
4 378 82 353 249
4 236 207 64 506
4 333 338 337 511
4 373 364 258 505
4 75 251 279 293
4 289 251 293 504
4 219 451 356 192
4 389 390 369 499
4 400 382 495 513
4 376 169 457 371
4 307 506 496 514
4 430 481 308 514
4 174 405 175 508
4 320 294 323 501
4 204 185 206 514
4 458 388 376 511
4 310 426 311 290
4 191 466 453 455
4 282 317 303 495
4 350 365 368 509
4 427 423 181 497
4 426 180 423 497
4 445 448 188 498
4 445 189 449 498
4 432 444 182 434
4 411 179 419 427
4 442 186 433 448
4 291 119 440 284
4 364 237 258 505
4 383 508 396 510
4 375 252 231 507
4 467 40 147 343
4 137 138 357 511
4 41 341 469 145
4 383 396 351 510
4 236 372 245 506
4 435 369 437 164
4 163 436 435 369
4 356 374 57 493
4 368 349 59 365
4 245 87 352 372
4 375 231 253 510
4 274 290 276 509
4 312 286 319 503
4 231 375 90 252
4 463 123 282 317
4 437 433 441 498
4 415 420 411 497
4 460 455 463 495
4 226 288 257 505
4 365 387 377 507
4 371 395 386 501
4 361 457 170 371
4 206 481 204 514
4 67 237 364 505
4 402 174 175 508
4 417 414 418 503
4 226 0 211 222
4 405 500 508 512
4 291 315 314 499
4 211 247 226 222
4 359 162 443 393
4 369 358 437 164
4 137 464 135 511
4 187 449 441 433
4 183 443 431 434
4 420 411 426 178
4 307 496 305 514
4 289 251 227 74
4 348 148 7 344
4 174 402 401 269
4 464 135 39 137
4 256 309 277 99
4 436 163 359 369
4 331 342 6 142
4 268 403 175 402
4 119 439 440 284
4 387 394 360 503
4 421 414 412 500
4 396 508 500 510
4 144 40 328 343
4 57 354 213 483
4 455 190 463 454
4 68 484 24 211
4 414 413 418 503
4 345 341 41 150
4 458 169 457 376
4 350 507 365 509
4 441 358 392 165
4 443 434 436 496
4 445 449 187 433
4 428 183 431 434
4 426 411 423 178
4 137 338 138 511
4 67 209 237 505
4 492 56 218 281
4 458 464 388 511
4 351 394 375 510
4 422 410 177 406
4 362 408 155 410
4 413 414 112 292
4 282 460 462 124
4 405 508 174 512
4 254 231 244 507
4 453 450 191 455
4 66 288 226 505
4 234 251 279 75
4 365 507 497 509
4 470 146 145 339
4 278 248 295 103
4 205 55 480 355
4 182 428 432 434
4 186 445 433 448
4 411 179 427 423
4 360 377 418 158
4 335 150 346 149
4 190 455 450 454
4 440 291 285 118
4 252 507 350 509
4 459 457 170 361
4 462 461 298 125
4 146 332 468 147
4 249 83 353 242
4 234 250 76 299
4 439 433 437 498
4 416 415 411 497
4 289 251 74 293
4 255 508 383 510
4 308 481 275 514
4 76 279 234 299
4 302 295 225 104
4 83 367 353 242
4 500 510 508 512
4 177 412 422 406
4 297 98 254 277
4 278 257 243 102
4 468 136 130 131
4 129 130 470 135
4 351 375 91 253
4 248 278 243 103
4 311 420 114 300
4 249 378 82 240
4 440 285 438 118
4 254 244 97 297
4 255 383 92 253
4 9 138 344 233
4 206 264 225 506
4 245 352 87 232
4 175 405 408 508
4 89 368 235 252
4 138 344 233 333
4 225 202 206 63
4 98 239 254 277
4 138 9 273 233
4 402 174 508 512
4 278 296 257 102
4 460 459 455 495
4 377 416 418 158
4 250 240 267 502
4 378 391 81 273
4 405 174 409 512
4 264 202 206 225
4 258 364 85 237
4 135 136 339 511
4 225 63 206 514
4 418 370 360 157
4 88 398 363 236
4 368 89 350 252
4 276 97 244 297
4 204 430 185 514
4 419 159 416 385
4 438 436 434 496
4 330 334 142 143
4 174 402 269 512
4 138 9 391 273
4 287 409 174 512
4 211 66 484 324
4 453 382 167 451
4 402 175 268 508
4 28 287 409 174
4 144 329 143 336
4 356 167 382 451
4 137 388 464 511
4 155 381 362 410
4 322 309 269 100
4 225 295 302 514
4 402 230 269 512
4 418 417 370 157
4 174 322 287 512
4 241 340 342 128
4 269 401 174 512
4 149 347 338 148
4 211 484 24 280
4 412 414 417 500
4 403 268 175 508
4 373 364 85 258
4 174 28 287 322
4 402 268 230 508
4 137 39 464 388
4 373 86 352 258
4 456 136 135 511
4 458 456 464 511
4 257 296 288 101
4 239 256 277 99
4 93 397 383 268
4 202 264 206 506
4 402 508 230 512
4 128 4 342 241
4 226 257 288 101
4 335 137 135 511
4 365 350 387 507
4 408 397 175 508
4 287 306 110 409
4 244 224 276 509
4 367 504 242 513
4 248 506 295 514
4 137 135 39 335
4 238 221 72 513
4 241 340 233 79
4 135 341 39 335
4 231 91 375 253
4 67 364 354 483
4 347 140 138 139
4 330 132 128 133
4 358 441 437 165
4 332 339 136 511
4 225 206 506 514
4 62 27 26 404
4 221 504 495 513
4 397 383 268 508
4 443 436 162 359
4 206 496 506 514
4 131 36 37 467
4 39 38 469 129
4 444 438 305 117
4 252 244 231 507
4 282 460 123 463
4 248 295 225 514
4 336 127 334 337
4 377 416 159 385
4 407 110 306 409
4 64 363 398 236
4 396 394 351 510
4 442 439 120 318
4 309 322 269 512
4 345 41 341 469
4 402 401 269 94
4 375 387 350 507
4 403 268 95 402
4 472 54 27 274
4 382 466 171 459
4 403 175 397 508
4 408 362 397 508
4 383 362 396 508
4 232 352 86 258
4 4 128 316 241
4 238 367 242 513
4 295 248 225 104
4 484 24 56 68
4 429 379 431 161
4 401 322 174 512
4 367 238 84 513
4 238 72 221 216
4 238 504 221 513
4 346 141 137 140
4 133 329 134 127
4 248 225 506 514
4 231 239 253 510
4 238 216 221 504
4 345 38 39 141
4 37 36 134 328
4 27 60 54 472
4 256 269 309 100
4 417 422 381 156
4 415 114 420 300
4 238 242 504 513
4 446 57 354 213
4 73 57 374 493
4 459 171 382 361
4 403 397 268 508
4 253 239 255 510
4 284 120 439 318
4 472 310 54 274
4 438 285 305 117
4 202 207 236 506
4 45 397 175 408
4 340 333 233 79
4 28 174 401 322
4 403 45 397 175
4 252 244 507 509
4 241 78 4 342
4 452 218 56 281
4 55 205 429 355
4 338 137 335 511
4 235 261 252 509
4 136 332 336 343
4 251 227 272 504
4 425 426 115 310
4 250 241 77 316
4 374 493 356 513
4 238 367 84 242
4 240 378 81 273
4 238 242 272 504
4 248 225 264 506
4 338 335 337 511
4 281 492 71 289
4 454 303 452 122
4 269 322 401 512
4 201 263 23 63
4 62 60 27 404
4 224 301 96 276
4 381 370 417 156
4 332 337 339 511
4 448 447 304 121
4 446 166 449 380
4 316 77 250 299
4 413 112 113 286
4 233 344 9 80
4 287 309 321 512
4 340 78 241 342
4 182 183 428 434
4 433 187 445 186
4 411 179 423 178
4 357 388 137 511
4 481 201 62 275
4 227 325 289 74
4 309 269 256 512
4 450 191 455 190
4 364 399 237 67
4 280 211 484 324
4 453 52 382 466
4 94 269 402 230
4 71 227 325 289
4 410 46 381 422
4 402 268 95 230
4 432 305 32 444
4 268 383 93 255
4 328 40 467 343
4 430 116 432 308
4 209 208 210 505
4 72 260 10 217
4 272 242 251 504
4 237 210 247 226
4 426 311 115 310
4 430 31 116 308
4 427 47 419 385
4 72 493 374 513
4 383 255 268 508
4 29 421 407 306
4 201 23 263 229
4 464 168 458 388
4 207 202 206 506
4 393 431 379 161
4 335 135 339 511
4 366 84 238 513
4 245 264 236 506
4 96 244 224 276
4 88 87 245 372
4 369 435 163 164
4 472 27 60 197
4 424 384 48 160
4 35 463 454 317
4 431 443 49 393
4 331 4 342 326
4 51 167 356 451
4 261 224 244 509
4 384 424 427 160
4 327 348 9 344
4 56 24 484 280
4 324 24 211 105
4 64 363 480 355
4 264 245 248 506
4 325 227 3 74
4 80 233 344 333
4 448 442 33 318
4 366 367 84 513
4 252 261 244 509
4 385 384 427 160
4 207 236 64 202
4 151 42 12 69
4 116 305 432 308
4 30 311 426 420
4 272 216 238 504
4 422 410 46 177
4 449 392 50 441
4 341 135 339 335
4 354 166 51 446
4 280 447 34 121
4 421 176 29 407
4 251 75 74 293
4 168 458 388 376
4 303 454 317 122
4 464 456 135 511
4 137 150 141 346
4 44 16 154 223
4 425 115 31 310
4 281 34 452 122
4 355 429 48 161
4 67 354 214 483
4 238 260 10 72
4 63 201 481 275
4 188 56 490 212
4 219 57 192 491
4 198 54 180 479
4 45 397 408 362
4 277 98 239 99
4 165 437 358 164
4 184 55 478 205
4 163 162 436 359
4 169 170 457 371
4 210 237 209 505
4 364 399 85 237
4 419 179 47 427
4 442 33 186 448
4 444 305 32 117
4 463 190 35 454
4 49 183 443 431
4 420 426 30 178
4 441 50 449 187
4 32 432 444 182
4 90 91 375 231
4 318 448 304 121
4 166 392 449 380
4 353 82 83 249
4 466 453 52 191
4 480 203 64 355
4 398 88 14 236
4 215 492 71 281
4 272 227 216 504
4 77 76 250 299
4 223 154 44 61
4 397 362 383 508
4 209 67 237 210
4 202 236 264 506
4 197 472 27 274
4 52 382 466 171
4 374 217 73 493
4 335 339 337 511
4 422 46 381 156
4 204 430 54 185
4 55 181 199 424
4 205 184 55 429
4 446 57 213 189
4 218 56 193 452
4 219 57 451 192
4 212 188 56 447
4 268 18 397 403
4 269 19 401 322
4 77 241 4 316
4 110 29 407 306
4 155 46 381 410
4 221 216 220 504
4 241 78 340 79
4 235 196 261 509
4 47 159 419 385
4 287 110 28 409
4 260 228 10 217
4 72 221 493 513
4 119 120 439 284
4 27 26 54 62
4 83 84 367 242
4 101 257 296 102
4 362 408 45 155
4 414 111 112 292
4 269 230 256 512
4 280 24 211 324
4 382 167 52 453
4 383 92 93 255
4 55 65 480 355
4 399 364 354 67
4 421 29 111 306
4 374 53 57 73
4 89 90 350 252
4 226 257 246 505
4 269 19 322 100
4 85 86 373 258
4 32 116 305 432
4 229 62 201 108
4 39 168 464 388
4 11 53 172 73
4 202 266 475 263
4 459 170 171 361
4 476 196 474 262
4 282 460 124 123
4 246 237 226 505
4 67 214 265 210
4 16 44 153 223
4 347 140 338 138
4 196 224 261 509
4 330 128 334 133
4 309 287 322 512
4 329 144 134 336
4 397 93 18 268
4 158 418 360 157
4 6 4 342 331
4 140 149 347 338
4 476 202 475 263
4 334 330 133 143
4 244 96 97 276
4 348 7 9 344
4 415 113 114 300
4 49 431 393 161
4 487 259 247 222
4 217 374 72 493
4 317 454 35 122
4 66 226 288 324
4 36 313 465 126
4 262 475 266 263
4 210 226 237 505
4 118 285 438 117
4 15 16 153 223
4 135 130 146 136
4 255 230 268 508
4 195 194 196 509
4 474 263 262 271
4 281 215 25 107
4 203 43 152 355
4 156 370 417 157
4 307 302 295 514
4 263 202 236 264
4 385 427 47 160
4 458 168 169 376
4 102 243 278 103
4 378 81 82 240
4 475 196 476 262
4 202 236 266 263
4 216 488 487 247
4 237 399 13 67
4 65 203 480 355
4 294 462 125 124
4 339 135 146 136
4 100 309 256 99
4 211 24 68 105
4 325 107 71 289
4 137 335 150 346
4 377 416 158 159
4 429 355 379 161
4 201 63 108 275
4 60 54 479 62
4 27 54 60 62
4 223 43 152 65
4 92 351 91 253
4 225 23 263 63
4 412 177 176 406
4 420 30 311 114
4 81 391 9 273
4 94 402 95 230
4 76 234 279 75
4 443 162 49 393
4 173 73 69 491
4 44 153 223 61
4 318 33 448 121
4 50 166 392 449
4 223 153 43 65
4 70 68 490 106
4 61 153 65 478
4 229 21 60 404
4 152 64 203 355
4 71 215 281 107
4 271 474 263 229
4 237 246 258 505
4 126 298 461 125
4 216 486 488 247
4 475 262 476 263
4 62 201 263 229
4 442 120 33 318
4 210 265 237 247
4 13 85 399 237
4 311 115 30 426
4 291 440 119 118
4 152 363 398 64
4 463 35 123 317
4 107 281 71 289
4 153 43 15 223
4 475 266 270 262
4 20 224 301 96
4 452 303 281 122
4 345 341 39 469
4 16 154 223 270
4 152 15 43 223
4 268 95 18 403
4 269 401 19 94
4 127 134 36 343
4 104 295 248 103
4 487 259 216 247
4 474 62 476 229
4 260 228 486 247
4 392 50 441 165
4 265 237 13 67
4 232 352 87 86
4 65 55 43 355
4 64 152 363 355
4 235 59 270 262
4 304 447 280 121
4 446 354 166 380
4 19 28 401 322
4 397 18 45 403
4 223 153 65 61
4 60 62 229 404
4 127 329 134 336
4 63 481 206 514
4 326 342 331 142
4 324 226 288 101
4 148 348 327 344
4 67 265 237 210
4 154 223 270 61
4 73 217 228 486
4 366 356 400 513
4 203 65 43 355
4 200 59 349 471
4 486 228 265 247
4 332 339 146 136
4 210 214 265 247
4 136 131 147 343
4 42 151 399 214
4 135 470 145 339
4 367 366 400 513
4 7 9 344 80
4 144 134 336 343
4 368 17 89 235
4 333 80 233 79
4 73 173 57 491
4 69 57 173 491
4 197 58 472 274
4 490 56 70 106
4 153 55 65 478
4 254 97 98 297
4 374 366 172 72
4 56 490 68 106
4 55 153 61 478
4 180 204 198 479
4 192 213 219 491
4 58 20 301 109
4 199 184 478 205
4 212 490 188 218
4 328 467 36 343
4 78 6 4 342
4 224 58 196 271
4 136 146 332 468
4 134 127 336 343
4 227 3 71 325
4 302 225 23 104
4 201 23 229 108
4 71 3 227 259
4 263 202 225 63
4 344 138 338 333
4 135 146 470 339
4 225 302 63 514
4 59 349 368 154
4 229 62 26 404
4 262 476 263 474
4 63 275 481 514
4 72 238 260 216
4 203 202 64 266
4 42 399 354 214
4 238 272 260 216
4 196 262 261 224
4 23 201 63 108
4 64 398 14 236
4 173 12 42 228
4 341 129 145 135
4 63 108 275 302
4 197 196 58 271
4 214 399 354 67
4 228 42 173 69
4 109 301 58 274
4 259 227 71 216
4 224 58 20 301
4 366 72 374 513
4 270 59 200 262
4 486 210 488 247
4 486 265 214 247
4 470 145 129 135
4 131 468 136 147
4 332 136 468 147
4 235 196 262 261
4 131 136 36 343
4 109 197 27 274
4 137 335 346 149
4 340 342 128 334
4 53 11 173 228
4 59 235 196 262
4 266 223 152 65
4 275 302 307 514
4 227 260 272 216
4 263 202 264 225
4 136 130 146 468
4 470 130 146 135
4 356 366 374 513
4 228 12 42 69
4 181 185 477 180
4 185 181 477 184
4 189 193 489 188
4 193 189 489 192
4 236 266 64 202
4 223 152 15 266
4 173 11 12 228
4 215 216 259 71
4 216 259 260 247
4 59 349 154 200
4 260 227 259 216
4 366 238 72 513
4 214 210 486 247
4 324 0 226 101
4 62 263 476 229
4 54 31 27 274
4 129 341 39 135
4 133 128 334 127
4 154 349 44 200
4 332 136 147 343
4 338 140 137 138
4 53 11 228 73
4 229 22 21 404
4 366 84 10 238
4 202 203 475 266
4 72 172 374 217
4 374 57 51 356
4 271 60 21 109
4 197 196 271 474
4 229 26 62 108
4 217 260 228 486
4 196 200 59 262
4 135 145 341 339
4 474 476 263 229
4 216 260 486 247
4 266 270 223 475
4 17 59 270 235
4 356 57 51 451
4 222 24 1 105
4 17 59 368 154
4 68 24 56 106
4 70 56 25 106
4 173 57 53 73
4 153 55 43 65
4 42 57 173 69
4 44 55 153 61
4 149 140 137 338
4 222 1 0 105
4 143 133 334 127
4 228 173 53 73
4 58 197 109 274
4 152 398 14 64
4 467 147 36 343
4 199 477 184 205
4 212 188 489 218
4 192 219 213 489
4 204 198 477 180
4 196 262 224 271
4 308 275 307 514
4 222 68 24 105
4 328 36 144 343
4 334 142 128 330
4 138 338 347 148
4 200 475 270 262
4 215 70 3 259
4 108 63 23 302
4 469 341 39 145
4 214 42 151 69
4 36 131 147 467
4 129 469 39 145
4 139 148 348 327
4 331 326 142 132
4 238 10 366 72
4 137 335 149 338
4 36 144 134 328
4 216 215 259 487
4 59 17 368 235
4 345 39 341 150
4 216 72 217 260
4 150 345 39 141
4 17 59 154 200
4 107 71 3 325
4 20 58 197 109
4 275 63 302 514
4 3 70 215 107
4 172 366 10 72
4 127 143 329 336
4 200 196 475 262
4 3 71 215 259
4 5 4 331 326
4 348 9 8 327
4 217 10 172 73
4 14 266 64 236
4 37 40 467 328
4 224 20 58 271
4 345 38 41 469
4 474 262 196 271
4 12 228 265 69
4 201 263 476 62
4 138 148 327 344
4 142 326 342 128
4 2 1 222 106
4 334 143 127 336
4 345 39 38 469
4 467 36 37 328
4 21 60 271 229
4 154 16 17 270
4 217 216 260 486
4 73 228 173 69
4 63 225 23 302
4 270 17 154 200
4 31 54 310 274
4 61 154 44 200
4 271 21 20 109
4 60 62 474 229
4 148 139 138 327
4 326 142 132 128
4 64 14 152 203
4 180 477 204 185
4 477 184 181 199
4 188 193 489 218
4 192 213 189 489
4 197 27 60 109
4 222 25 2 106
4 222 1 24 106
4 14 15 152 266
4 222 2 25 107
4 150 39 341 141
4 217 228 10 73
4 3 2 222 107
4 134 144 36 343
4 215 71 3 107
4 129 39 341 145
4 475 270 223 61
4 128 342 142 334
4 259 70 3 222
4 8 7 9 348
4 147 131 36 343
4 25 70 222 107
4 4 6 5 331
4 65 475 223 61
4 148 138 338 344
4 59 17 270 200
4 222 70 3 107
4 72 10 172 217
4 65 152 266 203
4 222 70 25 106
4 222 24 68 106
4 26 54 31 27
4 61 270 154 200
4 23 22 229 108
4 65 43 152 203
4 215 70 25 107
4 68 70 222 106
4 26 31 54 275
4 271 197 60 109
4 214 265 13 67
4 133 143 329 127
4 31 54 425 310
4 447 34 56 280
4 51 57 354 446
4 140 137 346 149
4 20 197 271 109
4 197 58 20 271
4 64 266 14 203
4 53 57 51 374
4 139 138 347 148
4 142 132 128 330
4 69 265 214 486
4 271 60 474 229
4 61 475 270 200
4 223 266 475 65
4 48 55 429 355
4 56 34 452 281
4 259 487 70 222
4 266 152 14 203
4 487 68 70 222
4 44 48 55 349
4 263 476 202 63
4 24 56 34 280
4 51 57 42 354
4 69 228 265 486
4 201 476 263 63
4 69 73 228 486
4 65 266 475 203
4 34 56 25 281
4 55 48 43 355
4 55 48 44 153
4 34 56 24 106
4 56 34 25 106
4 51 57 53 173
4 51 42 57 173
4 55 43 48 153
4 487 70 215 259
4 474 197 60 271
4 471 384 365 349
4 365 384 471 195
4 365 59 471 349
4 471 59 365 195
4 353 502 395 378
4 395 502 353 501
4 278 243 505 499
4 278 314 505 296
4 505 314 278 499
4 258 505 352 373
4 258 352 505 499
4 389 352 505 373
4 389 505 352 499
4 251 504 279 293
4 251 279 504 501
4 323 279 504 293
4 323 504 279 501
4 510 319 297 277
4 510 297 319 503
4 502 233 340 333
4 502 340 233 267
4 506 245 352 372
4 352 390 506 372
4 506 390 352 499
4 506 232 352 245
4 506 352 232 499
4 337 128 127 334
4 337 127 128 283
4 501 367 353 386
4 501 353 367 242
4 195 194 497 473
4 195 497 194 509
4 355 207 363 480
4 355 363 207 379
4 206 207 496 482
4 206 496 207 506
4 136 313 36 127
4 136 36 313 465
4 254 277 510 297
4 510 277 254 239
4 286 415 113 413
4 286 113 415 300
4 220 221 495 494
4 220 495 221 504
4 407 412 176 406
4 407 176 412 421
4 507 510 254 231
4 254 510 507 503
4 336 136 511 332
4 511 136 336 127
4 356 219 57 451
4 57 219 356 493
4 422 406 500 410
4 500 406 422 412
4 257 278 505 296
4 505 278 257 243
4 310 54 198 472
4 241 128 502 340
4 502 128 241 316
4 71 504 216 227
4 216 504 71 220
4 502 138 233 333
4 462 282 501 460
4 462 501 282 294
4 236 372 88 245
4 88 372 236 363
4 306 414 111 421
4 306 111 414 292
4 59 509 196 235
4 196 509 59 195
4 512 239 255 256
4 512 255 239 510
4 509 58 196 224
4 509 196 58 194
4 180 310 54 198
4 180 54 310 425
4 514 430 496 308
4 514 496 430 185
4 432 496 430 308
4 432 430 496 185
4 383 253 510 351
4 510 253 383 255
4 212 280 56 484
4 56 280 212 447
4 451 382 495 453
4 451 495 382 356
4 324 105 226 0
4 211 226 105 0
4 138 273 502 233
4 502 273 138 391
4 22 26 229 108
4 22 229 26 404
4 368 252 509 235
4 509 252 368 350
4 298 462 501 461
4 501 462 298 294
4 487 68 247 488
4 487 247 68 222
4 211 247 68 488
4 211 68 247 222
4 66 505 210 208
4 210 505 66 226
4 27 21 60 109
4 27 60 21 404
4 461 313 126 465
4 461 126 313 298
4 378 273 502 391
4 502 273 378 240
4 512 255 230 256
4 512 230 255 508
4 430 275 31 308
4 31 275 430 54
4 424 349 48 384
4 424 48 349 55
4 57 354 69 42
4 57 69 354 483
4 214 69 354 42
4 214 354 69 483
4 275 62 54 26
4 275 54 62 481
4 484 324 288 280
4 288 324 484 66
4 275 62 108 201
4 275 108 62 26
4 335 150 141 137
4 141 150 335 341
4 141 39 335 137
4 335 39 141 341
4 56 281 70 25
4 56 70 281 492
4 215 70 281 25
4 215 281 70 492
4 222 211 105 0
4 222 105 211 68
4 127 343 136 336
4 136 343 127 36
4 44 200 471 61
4 471 200 44 349
4 471 55 44 61
4 44 55 471 349
4 211 324 226 66
4 211 226 324 105
4 180 204 54 185
4 180 54 204 479
4 192 213 57 189
4 57 213 192 491
4 199 184 55 478
4 199 55 184 181
4 188 218 56 193
4 56 218 188 490
4 11 73 10 228
4 10 73 11 172
4 214 13 69 151
4 214 69 13 265
4 12 69 13 151
4 12 13 69 265
4 374 73 172 53
4 172 73 374 217
4 214 399 13 151
4 13 399 214 67
4 199 61 55 471
4 199 55 61 478
4 213 69 57 483
4 213 57 69 491
4 70 218 56 490
4 70 56 218 492
4 193 218 192 489
4 193 192 218 494
4 219 192 218 489
4 219 218 192 494
4 62 204 54 479
4 62 54 204 481
4 185 204 184 477
4 185 184 204 482
4 205 184 204 477
4 205 204 184 482
4 219 73 57 491
4 219 57 73 493
4 198 199 180 473
4 198 180 199 477
4 181 180 199 473
4 181 199 180 477
4 205 65 55 478
4 205 55 65 480
4 68 212 56 484
4 68 56 212 490
4 60 198 54 472
4 60 54 198 479
4 212 213 188 485
4 212 188 213 489
4 189 188 213 485
4 189 213 188 489
4 210 66 247 226
4 210 247 66 488
4 211 247 66 226
4 211 66 247 488
4 221 493 356 219
4 356 493 221 513
4 356 192 221 219
4 221 192 356 513

CELL_TYPES 2855
1
1
1
1
1
1
1
1
1
1
1
1
1
1
1
1
1
1
1
1
1
1
1
1
1
1
1
1
1
1
1
1
1
1
1
1
1
1
1
1
1
1
1
1
1
1
1
1
1
1
1
1
1
1
1
1
1
1
1
1
1
1
1
1
1
1
1
1
1
1
1
1
1
1
3
3
3
3
3
3
3
3
3
3
3
3
3
3
3
3
3
3
3
3
3
3
3
3
3
3
3
3
3
3
3
3
3
3
3
3
3
3
3
3
3
3
3
3
3
3
3
3
3
3
3
3
3
3
3
3
3
3
3
3
3
3
3
3
3
3
3
3
3
3
3
3
3
3
3
3
3
3
3
3
3
3
3
3
3
3
3
3
3
3
3
3
3
3
3
3
3
3
3
3
3
3
3
3
3
3
3
3
3
3
3
3
3
3
3
3
3
3
3
3
3
3
3
3
3
3
3
3
3
3
3
3
3
3
3
3
3
3
3
3
3
3
3
3
3
3
3
3
3
3
3
3
3
3
3
3
3
3
3
3
3
3
3
3
3
3
3
3
3
3
3
3
3
3
3
3
3
3
3
3
3
3
3
3
3
3
3
3
3
3
3
3
3
3
3
3
3
3
3
3
3
3
3
3
3
3
3
3
3
3
3
3
3
3
3
3
3
3
3
3
3
3
3
3
3
3
3
3
3
3
3
3
3
3
3
3
3
3
3
3
3
3
3
3
3
3
3
3
3
3
3
3
3
3
3
3
3
3
3
5
5
5
5
5
5
5
5
5
5
5
5
5
5
5
5
5
5
5
5
5
5
5
5
5
5
5
5
5
5
5
5
5
5
5
5
5
5
5
5
5
5
5
5
5
5
5
5
5
5
5
5
5
5
5
5
5
5
5
5
5
5
5
5
5
5
5
5
5
5
5
5
5
5
5
5
5
5
5
5
5
5
5
5
5
5
5
5
5
5
5
5
5
5
5
5
5
5
5
5
5
5
5
5
5
5
5
5
5
5
5
5
5
5
5
5
5
5
5
5
5
5
5
5
5
5
5
5
5
5
5
5
5
5
5
5
5
5
5
5
5
5
5
5
5
5
5
5
5
5
5
5
5
5
5
5
5
5
5
5
5
5
5
5
5
5
5
5
5
5
5
5
5
5
5
5
5
5
5
5
5
5
5
5
5
5
5
5
5
5
5
5
5
5
5
5
5
5
5
5
5
5
5
5
5
5
5
5
5
5
5
5
5
5
5
5
5
5
5
5
5
5
5
5
5
5
5
5
5
5
5
5
5
5
5
5
5
5
5
5
5
5
5
5
5
5
5
5
5
5
5
5
5
5
5
5
5
5
5
5
5
5
5
5
5
5
5
5
5
5
5
5
5
5
5
5
5
5
5
5
5
5
5
5
5
5
5
5
5
5
5
5
5
5
5
5
5
5
5
5
5
5
5
5
5
5
5
5
5
5
5
5
5
5
5
5
5
5
5
5
5
5
5
5
5
5
5
5
5
5
5
5
5
5
5
5
5
5
5
5
5
5
5
5
5
5
5
5
5
5
5
5
5
5
5
5
5
5
5
5
5
5
5
5
5
5
5
5
5
5
5
5
5
5
5
5
5
5
5
5
5
5
5
5
5
5
5
5
5
5
5
5
5
5
5
5
5
5
5
5
5
5
5
5
5
5
5
5
5
5
5
5
5
5
5
5
5
5
5
5
5
5
5
5
5
5
5
5
5
5
5
5
5
5
5
5
5
5
5
5
5
5
5
5
5
5
5
5
5
5
5
5
5
5
5
5
5
5
5
5
5
5
5
5
5
5
5
5
5
5
5
5
5
5
5
5
5
5
5
5
5
5
5
5
5
5
5
5
5
5
5
5
5
5
5
5
5
5
5
5
5
5
5
5
5
5
5
5
5
5
5
5
5
5
5
5
5
5
5
5
5
5
5
5
5
5
5
5
5
5
5
5
5
5
5
5
5
5
5
5
5
5
5
5
5
5
5
5
5
5
5
5
5
5
5
5
5
5
5
5
5
5
5
5
5
5
5
5
5
5
5
5
5
5
5
5
5
5
5
5
5
5
5
5
5
5
5
5
5
5
5
5
5
5
5
5
5
5
5
5
5
5
5
5
5
5
5
5
5
5
5
5
5
5
5
5
5
5
5
5
5
5
5
5
5
5
5
5
5
5
5
5
5
5
5
5
5
5
5
5
5
5
5
5
5
5
5
5
5
5
5
5
5
5
5
5
5
5
5
5
5
5
5
5
5
5
5
5
5
5
5
5
5
5
5
5
5
5
5
5
5
5
5
5
5
5
5
5
5
5
5
5
5
5
5
5
5
5
5
5
5
5
5
5
5
5
5
5
5
5
5
5
5
5
5
5
5
5
5
5
5
5
5
5
5
5
5
5
5
5
5
5
5
5
5
5
5
5
5
5
5
5
5
5
5
5
5
5
5
5
5
5
5
5
5
5
5
5
5
5
5
5
5
5
5
5
5
5
5
5
5
5
5
5
5
5
5
5
5
5
5
5
5
5
5
5
5
5
5
5
5
5
5
5
5
5
5
5
5
5
5
5
5
5
5
5
5
5
5
5
5
5
5
5
5
5
5
5
5
5
5
5
5
5
5
5
5
5
5
5
5
5
5
5
5
5
5
5
5
5
5
5
5
5
5
5
5
5
5
5
5
5
5
5
5
5
5
5
5
5
5
5
5
5
5
5
5
5
5
5
5
5
5
5
5
5
5
5
5
5
5
5
5
5
5
5
5
5
5
5
5
5
5
5
5
5
5
5
5
5
5
5
5
5
5
5
5
5
5
5
5
5
5
5
5
5
5
5
5
5
5
5
5
5
5
5
5
5
5
5
5
5
5
5
5
5
5
5
5
5
5
5
5
5
5
5
5
5
5
5
5
5
5
5
5
5
5
5
5
5
5
5
5
5
5
5
5
5
5
5
5
5
5
5
5
5
5
5
10
10
10
10
10
10
10
10
10
10
10
10
10
10
10
10
10
10
10
10
10
10
10
10
10
10
10
10
10
10
10
10
10
10
10
10
10
10
10
10
10
10
10
10
10
10
10
10
10
10
10
10
10
10
10
10
10
10
10
10
10
10
10
10
10
10
10
10
10
10
10
10
10
10
10
10
10
10
10
10
10
10
10
10
10
10
10
10
10
10
10
10
10
10
10
10
10
10
10
10
10
10
10
10
10
10
10
10
10
10
10
10
10
10
10
10
10
10
10
10
10
10
10
10
10
10
10
10
10
10
10
10
10
10
10
10
10
10
10
10
10
10
10
10
10
10
10
10
10
10
10
10
10
10
10
10
10
10
10
10
10
10
10
10
10
10
10
10
10
10
10
10
10
10
10
10
10
10
10
10
10
10
10
10
10
10
10
10
10
10
10
10
10
10
10
10
10
10
10
10
10
10
10
10
10
10
10
10
10
10
10
10
10
10
10
10
10
10
10
10
10
10
10
10
10
10
10
10
10
10
10
10
10
10
10
10
10
10
10
10
10
10
10
10
10
10
10
10
10
10
10
10
10
10
10
10
10
10
10
10
10
10
10
10
10
10
10
10
10
10
10
10
10
10
10
10
10
10
10
10
10
10
10
10
10
10
10
10
10
10
10
10
10
10
10
10
10
10
10
10
10
10
10
10
10
10
10
10
10
10
10
10
10
10
10
10
10
10
10
10
10
10
10
10
10
10
10
10
10
10
10
10
10
10
10
10
10
10
10
10
10
10
10
10
10
10
10
10
10
10
10
10
10
10
10
10
10
10
10
10
10
10
10
10
10
10
10
10
10
10
10
10
10
10
10
10
10
10
10
10
10
10
10
10
10
10
10
10
10
10
10
10
10
10
10
10
10
10
10
10
10
10
10
10
10
10
10
10
10
10
10
10
10
10
10
10
10
10
10
10
10
10
10
10
10
10
10
10
10
10
10
10
10
10
10
10
10
10
10
10
10
10
10
10
10
10
10
10
10
10
10
10
10
10
10
10
10
10
10
10
10
10
10
10
10
10
10
10
10
10
10
10
10
10
10
10
10
10
10
10
10
10
10
10
10
10
10
10
10
10
10
10
10
10
10
10
10
10
10
10
10
10
10
10
10
10
10
10
10
10
10
10
10
10
10
10
10
10
10
10
10
10
10
10
10
10
10
10
10
10
10
10
10
10
10
10
10
10
10
10
10
10
10
10
10
10
10
10
10
10
10
10
10
10
10
10
10
10
10
10
10
10
10
10
10
10
10
10
10
10
10
10
10
10
10
10
10
10
10
10
10
10
10
10
10
10
10
10
10
10
10
10
10
10
10
10
10
10
10
10
10
10
10
10
10
10
10
10
10
10
10
10
10
10
10
10
10
10
10
10
10
10
10
10
10
10
10
10
10
10
10
10
10
10
10
10
10
10
10
10
10
10
10
10
10
10
10
10
10
10
10
10
10
10
10
10
10
10
10
10
10
10
10
10
10
10
10
10
10
10
10
10
10
10
10
10
10
10
10
10
10
10
10
10
10
10
10
10
10
10
10
10
10
10
10
10
10
10
10
10
10
10
10
10
10
10
10
10
10
10
10
10
10
10
10
10
10
10
10
10
10
10
10
10
10
10
10
10
10
10
10
10
10
10
10
10
10
10
10
10
10
10
10
10
10
10
10
10
10
10
10
10
10
10
10
10
10
10
10
10
10
10
10
10
10
10
10
10
10
10
10
10
10
10
10
10
10
10
10
10
10
10
10
10
10
10
10
10
10
10
10
10
10
10
10
10
10
10
10
10
10
10
10
10
10
10
10
10
10
10
10
10
10
10
10
10
10
10
10
10
10
10
10
10
10
10
10
10
10
10
10
10
10
10
10
10
10
10
10
10
10
10
10
10
10
10
10
10
10
10
10
10
10
10
10
10
10
10
10
10
10
10
10
10
10
10
10
10
10
10
10
10
10
10
10
10
10
10
10
10
10
10
10
10
10
10
10
10
10
10
10
10
10
10
10
10
10
10
10
10
10
10
10
10
10
10
10
10
10
10
10
10
10
10
10
10
10
10
10
10
10
10
10
10
10
10
10
10
10
10
10
10
10
10
10
10
10
10
10
10
10
10
10
10
10
10
10
10
10
10
10
10
10
10
10
10
10
10
10
10
10
10
10
10
10
10
10
10
10
10
10
10
10
10
10
10
10
10
10
10
10
10
10
10
10
10
10
10
10
10
10
10
10
10
10
10
10
10
10
10
10
10
10
10
10
10
10
10
10
10
10
10
10
10
10
10
10
10
10
10
10
10
10
10
10
10
10
10
10
10
10
10
10
10
10
10
10
10
10
10
10
10
10
10
10
10
10
10
10
10
10
10
10
10
10
10
10
10
10
10
10
10
10
10
10
10
10
10
10
10
10
10
10
10
10
10
10
10
10
10
10
10
10
10
10
10
10
10
10
10
10
10
10
10
10
10
10
10
10
10
10
10
10
10
10
10
10
10
10
10
10
10
10
10
10
10
10
10
10
10
10
10
10
10
10
10
10
10
10
10
10
10
10
10
10
10
10
10
10
10
10
10
10
10
10
10
10
10
10
10
10
10
10
10
10
10
10
10
10
10
10
10
10
10
10
10
10
10
10
10
10
10
10
10
10
10
10
10
10
10
10
10
10
10
10
10
10
10
10
10
10
10
10
10
10
10
10
10
10
10
10
10
10
10
10
10
10
10
10
10
10
10
10
10
10
10
10
10
10
10
10
10
10
10
10
10
10
10
10
10
10
10
10
10
10
10
10
10
10
10
10
10
10
10
10
10
10
10
10
10
10
10
10
10
10
10
10
10
10
10
10
10
10
10
10
10
10
10
10
10
10
10
10
10
10
10
10
10
10
10
10
10
10
10
10
10
10
10
10
10
10
10
10
10
10
10
10
10
10
10
10
10
10
10
10
10
10
10
10
10
10
10
10
10
10
10
10
10
10
10
10
10
10
10
10
10
10
10
10
10
10
10
10
10
10
10
10
10
10
10
10
10
10
10
10
10
10
10
10
10
10
10
10
10
10
10
10
10
10
10
10
10
10
10
10
10
10
10
10
10
10
10
10
10
10
10
10
10
10
10
10
10
10
10
10
10
10
10
10
10
10
10
10
10
10
10
10
10
10
10
10
10
10
10
10
10
10
10
10
10
10
10
10
10
10
10
10
10
10
10
10
10
10
10
10
10
10
10
10
10
10
10
10
10
10
10
10
10
10
10
10
10
10
10
10
10
10
10
10
10
10
10
10
10
10
10
10
10
10
10
10
10
10
10
10
10
10
10
10
10
10
10
10
10
10
10
10
10
10
10
10
10
10
10
10
10
10
10
10
10
10
10
10
10
10
10
10
10
10
10
10
10
10
10
10
10
10
10
10
10
10
10
10
10
10
10
10
10
10
10
10
10
10
10
10
10
10
10
10
10
10
10
10
10
10
10
10
10
10
10
10
10
10
10
