# vtk DataFile Version 2.0
, Created by Gmsh 4.11.1 
ASCII
DATASET UNSTRUCTURED_GRID
POINTS 572 double
8.75 0 -44.06054446727684
17.26367502235105 0 -41.52601254431212
17.26367502235105 0 -38.47398745568788
8.75 0 -35.93945553272315
8.75 0 -3
11.75 0 -3
11.75 0 0
-11.75 0 0
-11.75 0 -3
-8.75 0 -3
-8.75 1.071565949253934e-15 -35.93945553272315
-17.26367502235105 2.114190435764233e-15 -38.47398745568788
-17.26367502235105 2.114190435764233e-15 -41.52601254431212
-8.75 1.071565949253934e-15 -44.06054446727684
-8.75 1.071565949253934e-15 -75.93945553272316
-17.26367502235105 2.114190435764233e-15 -78.47398745568788
-17.26367502235105 2.114190435764233e-15 -81.52601254431212
-8.75 1.071565949253934e-15 -84.06054446727684
-8.75 0 -120
8.75 0 -120
8.75 0 -84.06054446727684
17.26367502235105 0 -81.52601254431212
17.26367502235105 0 -78.47398745568788
8.75 0 -75.93945553272316
-8.75 10.98421856798296 -42.48470870428884
8.75 10.98421856798296 -42.48470870428884
8.75 10.98421856798297 -37.51529129571115
-8.75 10.98421856798297 -37.51529129571115
8.75 20 -3
8.75 20 -31.87525527969215
11.75 23 -3
-11.75 23 -3
-8.75 20 -3
11.75 23 0
-11.75 23 0
-8.75 20 -31.87525527969215
-8.75 20 -48.12474472030785
-8.75 20 -71.87525527969214
-8.75 10.98421856798297 -77.51529129571115
8.75 10.98421856798297 -77.51529129571115
-8.75 10.98421856798296 -82.48470870428883
8.75 10.98421856798296 -82.48470870428883
-8.75 20 -88.12474472030785
-8.75 20 -111.8752552796921
-8.75 7.012330704772026 -120
8.75 7.012330704772026 -120
8.75 20 -88.12474472030785
8.75 20 -111.8752552796921
8.75 20 -48.12474472030785
8.75 20 -71.87525527969214
6.153545694400647 2.010183837049593 -84.06054446727684
-6.153545694400647 2.010183837049594 -84.06054446727684
14.85181264691501 2.010183837049593 -81.52601254431212
-14.85181264691501 2.010183837049594 -81.52601254431212
14.85181264691501 2.010183837049593 -78.47398745568788
6.153545694400647 2.010183837049593 -75.93945553272316
-6.153545694400647 2.010183837049594 -75.93945553272316
-14.85181264691501 2.010183837049594 -78.47398745568788
6.153545694400647 2.010183837049593 -44.06054446727684
-6.153545694400647 2.010183837049594 -44.06054446727684
14.85181264691501 2.010183837049593 -41.52601254431212
-14.85181264691501 2.010183837049594 -41.52601254431212
14.85181264691501 2.010183837049593 -38.47398745568788
6.153545694400647 2.010183837049593 -35.93945553272316
-6.153545694400647 2.010183837049594 -35.93945553272316
-14.85181264691501 2.010183837049594 -38.47398745568788
13.00683751117553 0 -42.79327850579448
13.00683751117553 0 -37.20672149420552
8.75 0 -29.35156442617853
8.75 0 -22.7636733196339
8.75 0 -16.17578221308927
8.75 0 -9.587891106544635
5.875000000000016 0 0
3.730349362740526e-14 0 0
-5.874999999999972 0 0
-8.75 0 -9.587891106544628
-8.75 0 -16.17578221308927
-8.75 0 -22.76367331963391
-8.75 0 -29.35156442617855
-13.00683751117553 1.592878192509083e-15 -37.20672149420552
-13.00683751117553 1.592878192509083e-15 -42.79327850579448
-8.75 0 -50.43632668036611
-8.75 0 -56.81210889345536
-8.75 0 -63.18789110654462
-8.75 0 -69.56367331963388
-13.00683751117553 1.592878192509083e-15 -77.20672149420551
-13.00683751117553 1.592878192509083e-15 -82.79327850579448
-8.75 0 -90.05045372273071
-8.75 0 -96.04036297818456
-8.75 0 -102.0302722336384
-8.75 0 -108.0201814890923
-8.75 0 -114.0100907445461
2.916666666666666 0 -120
-2.916666666666668 0 -120
8.75 0 -90.05045372273071
8.75 0 -96.04036297818456
8.75 0 -102.0302722336384
8.75 0 -108.0201814890923
8.75 0 -114.0100907445461
13.00683751117553 0 -82.79327850579448
13.00683751117553 0 -77.20672149420551
8.75 0 -50.43632668036611
8.75 0 -56.81210889345536
8.75 0 -63.18789110654462
8.75 0 -69.56367331963388
15.94955600907647 6.606522412788771 -41.52601254431212
12.20726167650525 12.20726167650525 -41.52601254431212
6.606522412788755 15.94955600907647 -41.52601254431212
-1.427612838168616e-14 17.26367502235105 -41.52601254431212
-6.606522412788775 15.94955600907647 -41.52601254431212
-12.20726167650525 12.20726167650525 -41.52601254431212
-15.94955600907647 6.60652241278877 -41.52601254431212
-8.749999999999998 5.534258424741433 -43.58324438941655
-2.94589341744421 11.85434757548575 -43.02903855277771
2.945893417444172 11.85434757548575 -43.02903855277772
8.750000000000002 5.534258424741436 -43.58324438941655
15.94955600907647 6.606522412788771 -38.47398745568788
12.20726167650525 12.20726167650525 -38.47398745568788
6.606522412788755 15.94955600907647 -38.47398745568788
-1.427612838168616e-14 17.26367502235105 -38.47398745568788
-6.606522412788775 15.94955600907647 -38.47398745568788
-12.20726167650525 12.20726167650525 -38.47398745568788
-15.94955600907647 6.60652241278877 -38.47398745568788
8.750000000000002 5.53425842474144 -36.41675561058344
2.945893417444203 11.85434757548577 -36.97096144722228
-2.945893417444188 11.85434757548577 -36.97096144722228
-8.749999999999998 5.53425842474144 -36.41675561058344
8.75 6.666666666666651 -3
8.75 13.33333333333329 -3
8.75 20 -26.10020422375372
8.75 20 -20.32515316781529
8.75 20 -14.55010211187685
8.75 20 -8.775051055938427
8.75 15.49210928399148 -34.69527328770165
-5.875000000000016 23 -3
-3.730349362740526e-14 23 -3
5.874999999999972 23 -3
-11.75 5.749999999999988 -3
-11.75 11.49999999999999 -3
-11.75 17.24999999999999 -3
-8.75 13.33333333333335 -3
-8.75 6.666666666666705 -3
-2.916666666666666 20 -3
2.916666666666668 20 -3
11.75 5.749999999999988 -3
11.75 11.49999999999999 -3
11.75 17.24999999999999 -3
11.75 5.749999999999988 0
11.75 11.49999999999999 0
11.75 17.24999999999999 0
-5.875000000000016 23 0
-3.730349362740526e-14 23 0
5.874999999999972 23 0
-11.75 5.749999999999988 0
-11.75 11.49999999999999 0
-11.75 17.24999999999999 0
-8.75 20 -8.77505105593843
-8.75 20 -14.55010211187686
-8.75 20 -20.32515316781529
-8.75 20 -26.10020422375372
-8.75 15.49210928399148 -34.69527328770165
-8.75 15.49210928399148 -45.30472671229835
-8.75 20 -65.93762763984607
-8.75 20 -60
-8.75 20 -54.06237236015393
-8.75 15.49210928399148 -74.69527328770165
-8.749999999999998 5.534258424741438 -76.41675561058345
8.750000000000002 5.53425842474144 -76.41675561058345
2.945893417444198 11.85434757548575 -76.97096144722228
-2.945893417444186 11.85434757548575 -76.97096144722228
15.94955600907647 6.606522412788771 -78.47398745568788
12.20726167650525 12.20726167650525 -78.47398745568788
6.606522412788755 15.94955600907647 -78.47398745568788
-1.427612838168616e-14 17.26367502235105 -78.47398745568788
-6.606522412788775 15.94955600907647 -78.47398745568788
-12.20726167650525 12.20726167650525 -78.47398745568788
-15.94955600907647 6.60652241278877 -78.47398745568788
15.94955600907647 6.606522412788771 -81.52601254431212
12.20726167650525 12.20726167650525 -81.52601254431212
6.606522412788755 15.94955600907647 -81.52601254431212
-1.427612838168616e-14 17.26367502235105 -81.52601254431212
-6.606522412788775 15.94955600907647 -81.52601254431212
-12.20726167650525 12.20726167650525 -81.52601254431212
-15.94955600907647 6.60652241278877 -81.52601254431212
-8.749999999999998 5.534258424741438 -83.58324438941655
-2.945893417444196 11.85434757548576 -83.02903855277771
2.945893417444206 11.85434757548576 -83.02903855277771
8.750000000000002 5.53425842474144 -83.58324438941655
-8.75 15.49210928399149 -85.30472671229835
-8.75 20 -105.9376276398461
-8.75 20 -100
-8.75 20 -94.06237236015393
-8.75 11.34155380318135 -117.2917517598974
-8.75 15.67077690159067 -114.5835035197948
2.916666666666666 7.012330704772026 -120
-2.916666666666668 7.012330704772026 -120
8.75 15.49210928399149 -85.30472671229835
8.75 20 -105.9376276398461
8.75 20 -100
8.75 20 -94.06237236015393
8.75 11.34155380318135 -117.2917517598974
8.75 15.67077690159067 -114.5835035197948
8.75 15.49210928399148 -45.30472671229835
8.75 20 -65.93762763984607
8.75 20 -60
8.75 20 -54.06237236015393
8.75 15.49210928399148 -74.69527328770165
2.916666666666666 20 -48.12474472030785
-2.916666666666668 20 -48.12474472030785
2.916666666666666 20 -31.87525527969215
-2.916666666666668 20 -31.87525527969215
2.916666666666666 20 -71.87525527969214
-2.916666666666668 20 -71.87525527969214
2.916666666666666 20 -88.12474472030785
-2.916666666666668 20 -88.12474472030785
2.916666666666666 20 -111.8752552796921
-2.916666666666668 20 -111.8752552796921
2.629912466577697 5.915278868316471 -84.06054446727684
-2.629912466577713 5.915278868316464 -84.06054446727684
-1.77635683940025e-15 2.010183837049593 -84.06054446727684
10.50563656820626 2.010183837049593 -82.80345121949244
12.81682292928127 7.768283462725223 -81.52601254431212
8.653644725241602 12.23648687030303 -81.52601254431212
3.053559171282 14.67286455826809 -81.52601254431212
-3.053559171281953 14.6728645582681 -81.52601254431212
-8.65364472524157 12.23648687030305 -81.52601254431212
-12.81682292928126 7.768283462725236 -81.52601254431212
-10.50563656820627 2.010183837049593 -82.80345121949244
10.50563656820627 2.010183837049593 -77.19654878050756
-1.4210854715202e-14 2.010183837049593 -75.93945553272316
-10.50563656820626 2.010183837049593 -77.19654878050756
12.81682292928127 7.768283462725223 -78.47398745568788
8.653644725241602 12.23648687030303 -78.47398745568788
3.053559171282 14.67286455826809 -78.47398745568788
-3.053559171281953 14.6728645582681 -78.47398745568788
-8.65364472524157 12.23648687030305 -78.47398745568788
-12.81682292928126 7.768283462725236 -78.47398745568788
2.629912466577697 5.915278868316471 -75.93945553272314
-2.629912466577713 5.915278868316464 -75.93945553272314
2.629912466577697 5.915278868316471 -44.06054446727684
-2.629912466577713 5.915278868316464 -44.06054446727684
-1.77635683940025e-15 2.010183837049593 -44.06054446727684
10.50563656820626 2.010183837049593 -42.80345121949244
12.81682292928127 7.768283462725223 -41.52601254431212
8.653644725241602 12.23648687030303 -41.52601254431212
3.053559171282 14.67286455826809 -41.52601254431212
-3.053559171281953 14.6728645582681 -41.52601254431212
-8.65364472524157 12.23648687030305 -41.52601254431212
-12.81682292928126 7.768283462725236 -41.52601254431212
-10.50563656820627 2.010183837049593 -42.80345121949244
10.50563656820627 2.010183837049593 -37.19654878050756
-1.4210854715202e-14 2.010183837049593 -35.93945553272316
-10.50563656820626 2.010183837049593 -37.19654878050756
12.81682292928127 7.768283462725223 -38.47398745568788
8.653644725241602 12.23648687030303 -38.47398745568788
3.053559171282 14.67286455826809 -38.47398745568788
-3.053559171281953 14.6728645582681 -38.47398745568788
-8.65364472524157 12.23648687030305 -38.47398745568788
-12.81682292928126 7.768283462725236 -38.47398745568788
2.629912466577697 5.915278868316471 -35.93945553272315
-2.629912466577713 5.915278868316464 -35.93945553272315
-3.238353918728936 0 -86.4310724700577
4.224097979826273 0 -47.38565948614579
-3.500044495533463 0 -71.77600290079243
-3.67571179058583 0 -31.49138428372747
-8.881784197001252e-16 0 -115.3968317311517
-2.440066893177968 0 -99.0353176059115
2.745956048103733 0 -60.04480062665687
-2.829022623947904 0 -4.126222433716784
-2.508845134728699 0 -37.65762934913882
2.776356092479012 0 -19.54482966351209
-5.116890993716454 0 -81.06191486502884
3.314669299819237 0 -93.75849278563071
2.554609701875479 0 -105.0252268613654
-3.144104923799465 0 -54.01419487873205
-3.044718944366772 0 -12.88183665981695
3.700754757786917 0 -5.700785024295051
3.044666969313802 0 -72.25433361372689
2.95745488662273 0 -32.0296196910601
5.049686764673652 0 -78.69912505564037
2.78294193402387 0 -42.11103762198666
-2.658214955172824 0 -47.5208783086157
-0.209082704873901 0 -25.77513319174562
-0.1563053520972764 0 -66.13778359455911
2.527806556641875 0 -88.38193014395884
3.228410634467739 0 -53.62421778691073
-3.834092866497813 0 -61.09542688550621
9.33209860842053 0 -39.89105583453905
-9.287171323651595 0 -40.0718016808354
-10.54185162978042 0 -80.17698581083815
10.53065092493995 0 -79.78318750927339
-2.889324159240965 0 -92.28293828441232
-3.56258641841347 0 -105.0252268613653
4.18584242170335 0 -99.17793449294611
3.470384325871545 0 -12.0899700260181
-3.826109524746923 0 -20.53314565345068
-14.47332494947787 0 -80.01289984044008
-13.96563927814095 0 -40.01436033616708
13.97462473509474 0 -39.9782111669078
14.47250857157404 0 -79.98419734032606
-3.346651208145617 0 -110.8038005459092
3.669525301586536 0 -111.357880122969
4.832304342137814 0 -66.32545941394021
-4.998088542825712 0 -66.35215556140724
4.88178709753143 0 -26.01475787371833
-5.042180804041332 0 -25.98298017494724
-4.165080024466019 0 -42.44455089446734
-0.767502526394817 0 -8.341450096402912
1.128789729106353 0 -82.70224481151396
4.304101339177998 0 -37.41164349557446
-4.632515924432657 0 -115.8812909110254
4.620290792297877 0 -115.8738025968442
-1.283759192216682 0 -77.01494816967585
-4.828248818941899 0 -7.587480059296254
-12.74678258376866 3.714516618230987 -42.71285784041989
12.74678258376866 3.714516618230982 -42.71285784041989
11.69821245684332 7.816495665504148 -42.47697596528963
-11.69821245684332 7.816495665504153 -42.47697596528963
16.93195834758682 3.367975919292259 -40.02974927674013
-16.93195834758682 3.367975919292263 -40.02974927674014
9.591183954942256 14.35422117775136 -39.97025072325986
-3.367975919292264 16.93195834758682 -40.02974927674013
3.367975919292247 16.93195834758682 -39.97025072325986
-14.35422117775136 9.59118395494226 -40.02974927674014
-9.561917776400486 14.37373311685952 -40
14.35422117775136 9.591183954942265 -40.02974927674013
-12.83248974527551 3.546090318678255 -37.29799593692681
12.74678258376866 3.714516618230984 -37.28714215958011
11.69821245684332 7.81649566550415 -37.52302403471037
-11.76661769437887 8.15482894087045 -37.59653019982905
8.750000000000002 14.93837746465684 -18.11499434868458
8.750000000000002 5.194247520112223 -26.29583882476273
8.750000000000002 5.064949834669578 -12.89173471502827
8.750000000000002 9.594140666155219 -31.12851739896075
8.750000000000002 4.982023997985417 -19.51108076753956
8.750000000000002 16.00146892499738 -23.25835096232208
8.750000000000002 14.99865907740518 -11.66257658390764
8.750000000000002 15.25204433651645 -28.80963104119115
8.750000000000002 9.999999999999973 -8.132174802255543
8.750000000000002 4.671560636445171 -31.38160037733669
8.750000000000002 4.830534986443931 -7.809050188829344
8.750000000000002 9.960512340317889 -15.51270575617492
8.750000000000002 10.54124423661984 -23.0989188157766
8.750000000000002 15.66639848214769 -6.913960488420321
10.25 3.10416666666666 -3
-10.25 3.104166666666674 -3
11.75 20.125 -1.5
11.75 14.37499999999999 -1.5
11.75 8.624999999999989 -1.5
11.75 2.874999999999994 -1.5
-2.707174061168086 4.878797530676509 0
3.157610638484556 18.22886740495932 0
7.069955745470663 8.71654637064 0
-6.619519168154191 14.39111856499582 0
7.102873022115112 14.37499999999999 0
0.1126091443291184 11.52691623390895 0
-7.000954855602268 8.644857627020135 0
-2.792058517349995 18.15992185565015 0
2.948495529093417 4.721447277005962 0
-7.528051718759411 18.81262893003678 0
7.528051718759418 4.187371069963205 0
7.820492259183635 19.07601590637069 0
-7.553981076842913 4.160878030182232 0
-11.75 20.125 -1.5
-11.75 14.37499999999999 -1.5
-11.75 8.624999999999988 -1.5
-11.75 2.874999999999994 -1.5
-8.749999999999998 14.93837746465684 -18.11499434868458
-8.749999999999998 5.194247520112222 -26.29583882476273
-8.749999999999998 5.06494983466959 -12.89173471502827
-8.749999999999998 9.594140666155218 -31.12851739896075
-8.749999999999998 4.982023997985418 -19.51108076753956
-8.749999999999998 14.99865907740517 -11.66257658390765
-8.749999999999998 16.00146892499738 -23.25835096232209
-8.749999999999998 15.25204433651644 -28.80963104119115
-8.749999999999998 10.00000000000003 -8.132174802255513
-8.749999999999998 4.671560636445166 -31.3816003773367
-8.749999999999998 4.830534986443937 -7.809050188829332
-8.749999999999998 9.9605123403179 -15.51270575617492
-8.749999999999998 10.54124423661984 -23.09891881577661
-8.749999999999998 15.66639848214771 -6.913960488420319
-8.749999999999998 5.521589365532267 -66.37578221308924
-8.749999999999998 5.521589365532261 -53.62421778691073
-8.749999999999998 15.6580869442434 -57.5106133626288
-8.749999999999998 9.877521400151132 -71.21352834812085
-8.749999999999998 9.760565545557393 -48.34917671694556
-8.749999999999998 5.565337022159177 -59.48982257591081
-8.749999999999998 11.28389845793186 -62.88800658976603
-8.749999999999998 15.28702362665113 -51.09355854023089
-8.749999999999998 15.49436396316553 -68.26308416084163
-8.749999999999998 4.739683340135313 -71.39726346344673
-8.749999999999998 4.327968573728814 -48.17985473057461
-8.749999999999998 16.48726987306816 -62.91986635061651
-8.749999999999998 10.51275016034587 -55.49256592873214
-12.83248974527551 3.546090318678255 -77.29799593692681
12.74678258376866 3.714516618230983 -77.28714215958011
11.69821245684333 7.816495665504154 -77.52302403471037
-11.76661758674391 8.154829099604546 -77.59653020041027
-16.93195834758682 3.367975919292263 -80.02974927674015
-14.35422117775136 9.59118395494226 -80.02974927674015
16.93195834758682 3.367975919292259 -80.02974927674015
3.367975919292243 16.93195834758682 -79.97025072325987
9.591183954942254 14.35422117775137 -79.97025072325985
-9.591183954942261 14.35422117775136 -80.02974927674015
14.35422117775136 9.591183954942267 -80.02974927674015
-3.367975919292267 16.93195834758682 -80.02974927674015
-12.74678258376865 3.714516618230992 -82.71285784041989
12.74678258376866 3.714516618230981 -82.71285784041989
11.69821245684332 7.816495665504149 -82.47697596528963
-11.69821245684332 7.816495665504151 -82.47697596528963
-8.749999999999998 15.50849681155844 -96.8649716522003
-8.749999999999998 10.37076297547762 -111.0848020449428
-8.749999999999998 9.427235914020338 -87.8862946533249
-8.749999999999998 6.258672506993289 -105.1571292500259
-8.749999999999998 15.21509924228455 -90.86246509005494
-8.749999999999998 5.125669488772228 -92.89366921895213
-8.749999999999998 4.743513257512265 -110.7158092428044
-8.749999999999998 11.8433575544831 -105.7428222878203
-8.749999999999998 5.41152362874335 -98.27689897001255
-8.749999999999998 15.75787185271292 -108.6988040986699
-8.749999999999998 5.57802679015721 -115.5170756320318
-8.749999999999998 10.41374763706062 -94.00204238440389
-8.749999999999998 4.137279834102277 -87.85224058570294
-8.749999999999998 10.85026576855005 -100.3652819309048
-8.749999999999998 15.65999866455075 -102.9349179349069
-5.238095238095241 3.506165352386013 -120
5.238095238095237 3.506165352386013 -120
0 3.506165352386013 -120
8.750000000000002 15.4553885853054 -97.00124705904044
8.750000000000002 10.37076297547762 -111.0848020449428
8.750000000000002 9.609979037270458 -88.23098843548536
8.750000000000002 6.258672506993289 -105.1571292500259
8.750000000000002 15.17765923313068 -91.09726880248023
8.750000000000002 5.127468381979866 -92.92349495461873
8.750000000000002 4.743513257512265 -110.7158092428044
8.750000000000002 11.8433575544831 -105.7428222878203
8.750000000000002 5.330887369893351 -98.5379475362607
8.750000000000002 15.75787185271292 -108.6988040986699
8.750000000000002 5.57802679015721 -115.5170756320318
8.750000000000002 4.297481930958087 -88.07227175770882
8.750000000000002 10.34568542966452 -94.25553265418152
8.750000000000002 10.82624116230015 -100.4427598169603
8.750000000000002 15.9371976188267 -102.9700492940657
8.750000000000002 5.521589365532267 -66.37578221308924
8.750000000000002 5.521589365532261 -53.62421778691073
8.750000000000002 15.6580869442434 -57.5106133626288
8.750000000000002 9.877521400151132 -71.21352834812086
8.750000000000002 9.760565545557395 -48.34917671694556
8.750000000000002 5.565337022159177 -59.48982257591081
8.750000000000002 11.28389845793186 -62.88800658976603
8.750000000000002 15.49436396316553 -68.26308416084163
8.750000000000002 15.28702362665113 -51.09355854023089
8.750000000000002 4.739683340135315 -71.39726346344675
8.750000000000002 4.327968573728815 -48.17985473057461
8.750000000000002 16.48726987306816 -62.91986635061651
8.750000000000002 10.51275016034587 -55.49256592873214
-1.77635683940025e-15 15.91961455139936 -45.57216277687016
-4.424624792772823 16.43587600432678 -45.89512237944579
4.42462479277282 16.43587600432678 -45.89512237944579
-1.77635683940025e-15 15.91961455139936 -34.42783722312983
4.424624792772821 16.43587600432678 -34.10487762055421
-4.424624792772823 16.43587600432678 -34.10487762055421
3.748659077405174 20 -17.43762763984607
-3.552713678800501e-15 20 -27.5912548054033
0 20 -7.284000474288856
-3.748659077405175 20 -17.43762763984608
2.562571632217782 20 -22.82719665902603
-2.562571632217784 20 -12.04805862066612
3.938807801682902 20 -11.34219625511352
-3.938807801682906 20 -23.53305902457863
-4.59584765977689 20 -6.821422030178683
4.544441620649344 20 -7.189424838958919
-4.544441620649343 20 -27.68583044073323
4.595847659776888 20 -28.05383324951347
8.812499999999986 23 -1.5
2.937499999999966 23 -1.5
-8.812500000000007 23 -1.5
-2.937500000000027 23 -1.499999999999999
0 20 -66.82344042428292
0.3144321118795617 20 -52.92370133818418
4.029611956475825 20 -57.03118618007696
-2.220133268639065 20 -58.78037003873112
3.967895190694157 20 -62.69451364284096
-4.832446576743362 20 -64.07195529790035
-4.464473564685235 20 -52.40318663553698
4.497892456328182 20 -52.40554242589131
4.497892456328182 20 -67.59445757410867
-5.049822648682008 20 -68.11670678428273
-1.77635683940025e-15 15.91961455139936 -74.42783722312984
-4.424624792772825 16.43587600432678 -74.10487762055421
4.424624792772821 16.43587600432677 -74.10487762055422
-1.77635683940025e-15 15.91961455139936 -85.57216277687016
4.42462479277282 16.43587600432678 -85.89512237944578
-4.424624792772823 16.43587600432678 -85.89512237944578
-0.3144321118795617 20 -107.0762986618158
-1.77635683940025e-15 20 -93.17655957571708
-4.029611956475829 20 -102.968813819923
2.220133268639064 20 -101.2196299612689
-3.967895190694158 20 -97.30548635715904
4.832446576743359 20 -95.92804470209964
-4.497892456328183 20 -92.40554242589131
4.464473564685234 20 -107.596813364463
-4.497892456328181 20 -107.5944575741087
5.049822648682005 20 -91.88329321571726
-4.861111111111107 13.50616535238601 -115.9376276398461
4.327604057259818 13.50616535238601 -115.9376276398461
-1.061140064530768 11.0668968186341 -117.4635699540915
-1.77635683940025e-15 16.18744654351185 -114.2602885649079
4.948854144785297 17.07287775949771 -113.7063860567866
-5.267783568461709 9.987855476749104 -118.138589870767
-5.055555555555555 17.07287775949771 -113.7063860567866
7.798823254398553 6.931587052469186 -82.88151339826327
-8.517941525959627 6.195418356837961 -82.85212211136131
0.1758313441295796 10.65607078840228 -82.81497347810235
4.338965245716452 9.635804463509778 -82.84172659563053
-4.323790914810867 10.19045806773444 -82.69223582968321
3.076772847200321 2.010183837049593 -80
-3.076772847200331 2.010183837049593 -80
8.100636459932179 2.010183837049593 -80
-8.100636459932186 2.010183837049593 -80
12.04630004273872 2.010183837049593 -80
-12.04630004273872 2.010183837049593 -80
14.14357336295217 4.957470169813428 -80
-5.979016627196931 13.74294503116064 -80.02568552246099
5.979016627196972 13.74294503116062 -80.02568552246096
0.03871207693125372 14.98718383596131 -80
-14.13072101794137 4.993986530909976 -80.02568552246098
-10.96523851764521 10.21668841694558 -80.02568552246098
10.99159167964785 10.18833108539845 -80
8.20037519010442 5.874769190153077 -77.01535124502544
-5.734860620233331 7.808187867997147 -76.89638464497553
-0.8584973005073864 10.00029522573936 -77.00031955847631
4.569354641606814 9.338497809848199 -77.10731055374009
7.798823254398553 6.931587052469187 -42.88151339826327
-8.517941525959625 6.19541835683796 -42.85212211136131
0.1758313441295749 10.65607078840228 -42.81497347810234
4.33896524571645 9.635804463509778 -42.84172659563053
-4.323790914810866 10.19045806773444 -42.69223582968321
3.076772847200321 2.010183837049593 -40
-3.076772847200331 2.010183837049593 -40
8.100636459932179 2.010183837049593 -40
-8.100636459932186 2.010183837049593 -40
12.04630004273872 2.010183837049593 -40
-12.04630004273872 2.010183837049593 -40
-14.13072101794137 4.993986530909969 -40.02568552246098
14.14357336295217 4.957470169813428 -40
-5.979016627196936 13.74294503116063 -40.02568552246097
-10.96523851764521 10.21668841694558 -40.02568552246097
10.96523851764523 10.21668841694555 -39.97431447753903
2.754037871958059e-14 14.98723383275914 -39.97431447753902
5.979016627196972 13.74294503116062 -40.02568552246096
8.20037519010442 5.874769190153077 -37.01535124502544
-5.734860620233331 7.808187867997147 -36.89638464497553
-0.8584973005073798 10.00029522573936 -37.00031955847631
4.569354641606818 9.338497809848194 -37.10731055374009
-1.308836357570227e-14 9.410212329861352 -67.49608475877345
-1.06581410364015e-14 9.421408758576192 -27.57018602534593
-0.207892863575955 9.915888482709352 -51.33134029851624
0.1687357331611079 9.592485512885393 -90.59100386972051
1.131215505362405e-15 9.295418107933674 -107.914406601243
0.8568556403733938 12.14934398455463 -10.3929165905212
-0.7787028568935437 11.30460313627198 -19.00379467169051
0.9150700704378552 7.544684278695216 -99.89951605804566
-1.024935134743879 7.324755271545716 -59.90997354092411
2.028203023389507 13.75221646241364 -97.01662418561264
-2.026240064550493 6.788165754657405 -6.781437566816781
-2.718685969892578 14.01064840879733 -5.366632871685645
-2.778755058900985 12.63184615321991 -102.8167396740017
-2.71922283025097 6.240917560020772 -113.7237123130487
2.292863640873056 13.6591260523591 -59.8442597786936
2.935176410986818 14.36041828435256 -105.0505715274236
1.990018150858807 6.500338499618826 -14.55617817236365

CELLS 3110 13666
1 0
1 1
1 2
1 3
1 4
1 5
1 6
1 7
1 8
1 9
1 10
1 11
1 12
1 13
1 14
1 15
1 16
1 17
1 18
1 19
1 20
1 21
1 22
1 23
1 24
1 25
1 26
1 27
1 28
1 29
1 30
1 31
1 32
1 33
1 34
1 35
1 36
1 37
1 38
1 39
1 40
1 41
1 42
1 43
1 44
1 45
1 46
1 47
1 48
1 49
1 50
1 51
1 52
1 53
1 54
1 55
1 56
1 57
1 58
1 59
1 60
1 61
1 62
1 63
1 64
1 65
2 0 66
2 66 1
2 1 2
2 2 67
2 67 3
2 3 68
2 68 69
2 69 70
2 70 71
2 71 4
2 4 5
2 5 6
2 6 72
2 72 73
2 73 74
2 74 7
2 8 7
2 8 9
2 9 75
2 75 76
2 76 77
2 77 78
2 78 10
2 11 79
2 79 10
2 12 11
2 13 80
2 80 12
2 13 81
2 81 82
2 82 83
2 83 84
2 84 14
2 15 85
2 85 14
2 16 15
2 17 86
2 86 16
2 17 87
2 87 88
2 88 89
2 89 90
2 90 91
2 91 18
2 19 92
2 92 93
2 93 18
2 20 94
2 94 95
2 95 96
2 96 97
2 97 98
2 98 19
2 20 99
2 99 21
2 21 22
2 22 100
2 100 23
2 0 101
2 101 102
2 102 103
2 103 104
2 104 23
2 1 105
2 105 106
2 106 107
2 107 108
2 108 109
2 109 110
2 110 111
2 111 12
2 24 112
2 112 13
2 24 113
2 113 114
2 114 25
2 25 115
2 115 0
2 2 116
2 116 117
2 117 118
2 118 119
2 119 120
2 120 121
2 121 122
2 122 11
2 3 123
2 123 26
2 26 124
2 124 125
2 125 27
2 10 126
2 126 27
2 4 127
2 127 128
2 128 28
2 29 129
2 129 130
2 130 131
2 131 132
2 132 28
2 26 133
2 133 29
2 31 134
2 134 135
2 135 136
2 136 30
2 8 137
2 137 138
2 138 139
2 139 31
2 32 140
2 140 141
2 141 9
2 32 142
2 142 143
2 143 28
2 5 144
2 144 145
2 145 146
2 146 30
2 6 147
2 147 148
2 148 149
2 149 33
2 30 33
2 34 150
2 150 151
2 151 152
2 152 33
2 7 153
2 153 154
2 154 155
2 155 34
2 31 34
2 32 156
2 156 157
2 157 158
2 158 159
2 159 35
2 27 160
2 160 35
2 36 161
2 161 24
2 37 162
2 162 163
2 163 164
2 164 36
2 38 165
2 165 37
2 14 166
2 166 38
2 23 167
2 167 39
2 39 168
2 168 169
2 169 38
2 22 170
2 170 171
2 171 172
2 172 173
2 173 174
2 174 175
2 175 176
2 176 15
2 21 177
2 177 178
2 178 179
2 179 180
2 180 181
2 181 182
2 182 183
2 183 16
2 40 184
2 184 17
2 40 185
2 185 186
2 186 41
2 41 187
2 187 20
2 42 188
2 188 40
2 43 189
2 189 190
2 190 191
2 191 42
2 44 192
2 192 193
2 193 43
2 18 44
2 45 194
2 194 195
2 195 44
2 19 45
2 46 196
2 196 41
2 47 197
2 197 198
2 198 199
2 199 46
2 45 200
2 200 201
2 201 47
2 48 202
2 202 25
2 49 203
2 203 204
2 204 205
2 205 48
2 39 206
2 206 49
2 48 207
2 207 208
2 208 36
2 29 209
2 209 210
2 210 35
2 49 211
2 211 212
2 212 37
2 46 213
2 213 214
2 214 42
2 47 215
2 215 216
2 216 43
2 50 217
2 217 218
2 218 51
2 51 219
2 219 50
2 50 220
2 220 52
2 52 221
2 221 222
2 222 223
2 223 224
2 224 225
2 225 226
2 226 53
2 53 227
2 227 51
2 52 54
2 54 228
2 228 55
2 55 229
2 229 56
2 56 230
2 230 57
2 53 57
2 54 231
2 231 232
2 232 233
2 233 234
2 234 235
2 235 236
2 236 57
2 55 237
2 237 238
2 238 56
2 58 239
2 239 240
2 240 59
2 59 241
2 241 58
2 58 242
2 242 60
2 60 243
2 243 244
2 244 245
2 245 246
2 246 247
2 247 248
2 248 61
2 61 249
2 249 59
2 60 62
2 62 250
2 250 63
2 63 251
2 251 64
2 64 252
2 252 65
2 61 65
2 62 253
2 253 254
2 254 255
2 255 256
2 256 257
2 257 258
2 258 65
2 63 259
2 259 260
2 260 64
3 66 287 0
3 0 262 101
3 0 280 262
3 0 287 280
3 2 298 1
3 1 298 66
3 67 298 2
3 3 287 67
3 68 278 3
3 278 309 3
3 3 309 287
3 5 6 4
3 4 6 72
3 4 276 71
3 72 276 4
3 8 9 7
3 7 9 74
3 9 268 74
3 75 313 9
3 9 313 268
3 10 264 78
3 79 288 10
3 10 269 264
3 10 288 269
3 12 297 11
3 11 297 79
3 80 297 12
3 13 288 80
3 81 281 13
3 281 306 13
3 13 306 288
3 14 263 84
3 85 289 14
3 14 312 263
3 14 289 271
3 271 312 14
3 16 296 15
3 15 296 85
3 86 296 16
3 17 289 86
3 87 261 17
3 261 271 17
3 271 289 17
3 18 310 91
3 93 310 18
3 19 311 92
3 98 311 19
3 20 284 94
3 99 290 20
3 20 290 279
3 279 308 20
3 20 308 284
3 22 299 21
3 21 299 99
3 100 299 22
3 23 290 100
3 104 277 23
3 277 279 23
3 279 290 23
3 66 298 287
3 287 298 67
3 69 304 68
3 68 304 278
3 70 270 69
3 270 304 69
3 71 294 70
3 70 294 270
3 276 294 71
3 73 276 72
3 74 268 73
3 268 276 73
3 76 275 75
3 275 313 75
3 77 295 76
3 76 295 275
3 78 305 77
3 77 305 295
3 264 305 78
3 79 297 288
3 288 297 80
3 82 274 81
3 274 281 81
3 83 286 82
3 82 286 274
3 84 303 83
3 83 303 286
3 263 303 84
3 85 296 289
3 289 296 86
3 88 291 87
3 87 291 261
3 89 266 88
3 266 291 88
3 90 292 89
3 89 292 266
3 91 300 90
3 90 300 292
3 91 310 300
3 92 265 93
3 92 311 265
3 265 310 93
3 94 272 95
3 94 284 272
3 95 293 96
3 272 293 95
3 96 273 97
3 96 293 273
3 97 301 98
3 273 301 97
3 301 311 98
3 99 299 290
3 290 299 100
3 101 285 102
3 262 285 101
3 102 267 103
3 102 285 267
3 103 302 104
3 267 302 103
3 104 302 277
3 261 308 271
3 261 291 284
3 284 308 261
3 280 281 262
3 281 285 262
3 277 283 263
3 263 312 277
3 283 303 263
3 269 278 264
3 278 282 264
3 282 305 264
3 265 301 300
3 300 310 265
3 265 311 301
3 272 291 266
3 266 293 272
3 266 292 273
3 273 293 266
3 267 285 274
3 274 286 267
3 267 286 283
3 283 302 267
3 268 307 276
3 268 313 307
3 269 309 278
3 269 306 280
3 280 309 269
3 288 306 269
3 270 294 275
3 275 295 270
3 270 295 282
3 282 304 270
3 308 312 271
3 284 291 272
3 292 300 273
3 300 301 273
3 274 285 281
3 294 307 275
3 307 313 275
3 276 307 294
3 277 312 279
3 277 302 283
3 278 304 282
3 279 312 308
3 280 306 281
3 287 309 280
3 295 305 282
3 286 303 283
3 0 315 66
3 115 315 0
3 66 315 1
3 1 315 105
3 12 314 80
3 111 314 12
3 80 314 13
3 13 314 112
3 109 24 110
3 113 24 109
3 24 317 110
3 112 317 24
3 106 25 107
3 106 316 25
3 114 107 25
3 25 316 115
3 105 316 106
3 315 316 105
3 108 107 114
3 109 108 113
3 113 108 114
3 110 317 111
3 111 317 314
3 314 317 112
3 115 316 315
3 1 318 2
3 105 318 1
3 2 318 116
3 11 319 12
3 122 319 11
3 12 319 111
3 106 325 105
3 116 318 105
3 105 325 116
3 107 320 106
3 106 320 117
3 117 325 106
3 108 322 107
3 118 320 107
3 107 322 118
3 109 321 108
3 108 321 119
3 119 322 108
3 110 324 109
3 120 321 109
3 109 324 120
3 111 323 110
3 110 323 121
3 121 324 110
3 111 319 122
3 122 323 111
3 116 325 117
3 117 320 118
3 118 322 119
3 119 321 120
3 120 324 121
3 121 323 122
3 2 327 67
3 116 327 2
3 67 327 3
3 3 327 123
3 10 326 79
3 126 326 10
3 79 326 11
3 11 326 122
3 117 118 26
3 26 328 117
3 26 118 124
3 123 328 26
3 120 121 27
3 120 27 125
3 121 329 27
3 27 329 126
3 117 328 116
3 116 328 327
3 124 118 119
3 120 125 119
3 125 124 119
3 122 329 121
3 326 329 122
3 327 328 123
3 126 329 326
3 3 339 68
3 123 339 3
3 71 340 4
3 4 340 127
3 26 333 123
3 133 333 26
3 128 343 28
3 28 343 132
3 129 337 29
3 29 337 133
3 68 331 69
3 68 339 331
3 69 334 70
3 331 334 69
3 70 332 71
3 70 334 332
3 332 340 71
3 333 339 123
3 127 338 128
3 127 340 338
3 338 343 128
3 130 335 129
3 335 337 129
3 131 330 130
3 330 335 130
3 132 336 131
3 131 336 330
3 132 343 336
3 133 337 333
3 330 342 335
3 336 341 330
3 341 342 330
3 331 339 333
3 333 342 331
3 331 342 334
3 334 341 332
3 338 340 332
3 332 341 338
3 337 342 333
3 334 342 341
3 335 342 337
3 338 341 336
3 336 343 338
3 5 4 344
3 4 127 344
3 144 5 344
3 9 8 345
3 8 137 345
3 141 9 345
3 30 28 136
3 146 28 30
3 128 28 146
3 28 143 136
3 31 134 32
3 31 32 139
3 134 142 32
3 139 32 140
3 128 145 127
3 127 145 144
3 127 144 344
3 145 128 146
3 142 134 135
3 143 135 136
3 143 142 135
3 137 138 141
3 137 141 345
3 138 139 140
3 138 140 141
3 5 349 6
3 144 349 5
3 6 349 147
3 33 346 30
3 30 346 146
3 149 346 33
3 145 348 144
3 144 348 147
3 147 349 144
3 146 347 145
3 145 347 148
3 148 348 145
3 146 346 149
3 149 347 146
3 147 348 148
3 148 347 149
3 6 360 72
3 147 360 6
3 74 362 7
3 7 362 153
3 33 361 149
3 152 361 33
3 34 359 150
3 155 359 34
3 72 358 73
3 72 360 358
3 73 350 74
3 73 358 350
3 350 362 74
3 148 352 147
3 352 360 147
3 149 354 148
3 148 354 352
3 149 361 354
3 150 357 151
3 150 359 357
3 151 351 152
3 151 357 351
3 351 361 152
3 153 356 154
3 153 362 356
3 154 353 155
3 154 356 353
3 353 359 155
3 355 356 350
3 350 358 355
3 356 362 350
3 351 355 354
3 354 361 351
3 351 357 355
3 354 355 352
3 355 358 352
3 358 360 352
3 353 356 355
3 355 357 353
3 357 359 353
3 8 7 366
3 7 153 366
3 137 8 366
3 34 31 363
3 31 139 363
3 155 34 363
3 138 137 365
3 137 153 365
3 153 137 366
3 139 138 364
3 138 154 364
3 154 138 365
3 139 155 363
3 155 139 364
3 153 154 365
3 154 155 364
3 75 9 377
3 9 141 377
3 10 78 376
3 126 10 376
3 27 126 370
3 160 27 370
3 140 32 380
3 32 156 380
3 159 35 374
3 35 160 374
3 76 75 369
3 369 75 377
3 77 76 371
3 76 369 371
3 78 77 368
3 368 77 371
3 78 368 376
3 370 126 376
3 141 140 375
3 375 140 380
3 141 375 377
3 156 157 372
3 156 372 380
3 157 158 367
3 157 367 372
3 158 159 373
3 367 158 373
3 373 159 374
3 160 370 374
3 372 367 378
3 367 373 379
3 378 367 379
3 368 370 376
3 370 368 379
3 368 371 379
3 371 369 378
3 375 369 377
3 369 375 378
3 374 370 379
3 371 378 379
3 375 372 378
3 372 375 380
3 373 374 379
3 81 13 391
3 13 112 391
3 14 84 390
3 166 14 390
3 112 24 385
3 24 161 385
3 161 36 388
3 36 164 388
3 162 37 389
3 37 165 389
3 165 38 384
3 38 166 384
3 82 81 382
3 382 81 391
3 83 82 386
3 82 382 386
3 84 83 381
3 381 83 386
3 84 381 390
3 112 385 391
3 385 161 388
3 163 162 392
3 162 389 392
3 164 163 383
3 383 163 392
3 164 383 388
3 165 384 389
3 384 166 390
3 384 381 387
3 381 384 390
3 381 386 387
3 385 382 391
3 382 385 393
3 386 382 393
3 387 383 392
3 383 387 393
3 388 383 393
3 384 387 389
3 385 388 393
3 387 386 393
3 389 387 392
3 14 394 85
3 166 394 14
3 85 394 15
3 15 394 176
3 22 395 100
3 170 395 22
3 100 395 23
3 23 395 167
3 38 397 166
3 174 38 169
3 174 175 38
3 175 397 38
3 167 396 39
3 39 172 168
3 171 172 39
3 39 396 171
3 166 397 394
3 395 396 167
3 169 168 173
3 168 172 173
3 174 169 173
3 171 396 170
3 170 396 395
3 176 397 175
3 394 397 176
3 15 398 16
3 176 398 15
3 16 398 183
3 21 400 22
3 177 400 21
3 22 400 170
3 170 404 171
3 170 400 177
3 177 404 170
3 171 402 172
3 178 402 171
3 171 404 178
3 172 401 173
3 179 401 172
3 172 402 179
3 173 405 174
3 173 401 180
3 180 405 173
3 174 403 175
3 181 403 174
3 174 405 181
3 175 399 176
3 182 399 175
3 175 403 182
3 183 398 176
3 176 399 183
3 178 404 177
3 179 402 178
3 180 401 179
3 181 405 180
3 182 403 181
3 183 399 182
3 16 406 86
3 183 406 16
3 86 406 17
3 17 406 184
3 20 407 99
3 187 407 20
3 99 407 21
3 21 407 177
3 181 40 182
3 185 40 181
3 40 409 182
3 184 409 40
3 178 41 179
3 178 408 41
3 186 179 41
3 41 408 187
3 177 408 178
3 407 408 177
3 180 179 186
3 181 180 185
3 185 180 186
3 182 409 183
3 183 409 406
3 406 409 184
3 187 408 407
3 87 17 422
3 17 184 422
3 44 18 420
3 18 91 420
3 184 40 412
3 40 188 412
3 188 42 414
3 42 191 414
3 189 43 419
3 43 193 419
3 192 44 420
3 88 87 415
3 415 87 422
3 89 88 418
3 88 415 418
3 90 89 413
3 413 89 418
3 91 90 416
3 90 413 416
3 91 416 420
3 184 412 422
3 412 188 414
3 190 189 424
3 189 419 424
3 191 190 410
3 410 190 424
3 191 410 414
3 193 192 411
3 411 192 420
3 193 411 419
3 414 410 421
3 421 410 423
3 423 410 424
3 413 411 416
3 411 413 417
3 416 411 420
3 411 417 419
3 412 414 421
3 415 412 421
3 412 415 422
3 417 413 423
3 413 418 423
3 418 415 421
3 419 417 424
3 417 423 424
3 418 421 423
3 44 425 18
3 18 425 93
3 19 426 45
3 92 426 19
3 195 425 44
3 45 426 194
3 93 427 92
3 92 427 426
3 425 427 93
3 194 427 195
3 426 427 194
3 195 427 425
3 45 438 19
3 19 438 98
3 94 439 20
3 20 439 187
3 187 430 41
3 41 430 196
3 200 438 45
3 196 432 46
3 46 432 199
3 197 437 47
3 47 437 201
3 95 433 94
3 433 439 94
3 96 436 95
3 95 436 433
3 97 431 96
3 431 436 96
3 98 434 97
3 97 434 431
3 98 438 434
3 187 439 430
3 430 432 196
3 198 442 197
3 197 442 437
3 199 428 198
3 428 442 198
3 199 432 428
3 201 429 200
3 429 438 200
3 201 437 429
3 432 440 428
3 440 441 428
3 441 442 428
3 431 434 429
3 429 435 431
3 434 438 429
3 429 437 435
3 430 440 432
3 430 439 433
3 433 440 430
3 435 441 431
3 431 441 436
3 436 440 433
3 437 442 435
3 435 442 441
3 436 441 440
3 101 453 0
3 0 453 115
3 23 452 104
3 167 452 23
3 115 447 25
3 25 447 202
3 39 446 167
3 206 446 39
3 202 451 48
3 48 451 205
3 203 450 49
3 49 450 206
3 102 444 101
3 444 453 101
3 103 448 102
3 102 448 444
3 104 443 103
3 443 448 103
3 104 452 443
3 115 453 447
3 446 452 167
3 447 451 202
3 204 454 203
3 203 454 450
3 205 445 204
3 445 454 204
3 205 451 445
3 206 450 446
3 446 449 443
3 443 452 446
3 443 449 448
3 447 453 444
3 444 455 447
3 448 455 444
3 449 454 445
3 445 455 449
3 451 455 445
3 446 450 449
3 447 455 451
3 449 455 448
3 450 454 449
3 24 113 161
3 114 25 202
3 161 457 36
3 36 457 208
3 48 458 202
3 207 458 48
3 114 456 113
3 113 457 161
3 456 457 113
3 202 458 114
3 114 458 456
3 208 456 207
3 456 458 207
3 208 457 456
3 133 26 124
3 125 27 160
3 133 460 29
3 29 460 209
3 35 461 160
3 210 461 35
3 125 459 124
3 124 460 133
3 459 460 124
3 160 461 125
3 125 461 459
3 209 459 210
3 209 460 459
3 459 461 210
3 132 471 28
3 28 471 143
3 29 473 129
3 209 473 29
3 142 470 32
3 32 470 156
3 159 472 35
3 35 472 210
3 129 466 130
3 129 473 466
3 130 462 131
3 130 466 462
3 131 468 132
3 462 468 131
3 468 471 132
3 143 464 142
3 464 470 142
3 143 471 464
3 156 467 157
3 156 470 467
3 157 465 158
3 157 467 465
3 158 469 159
3 465 469 158
3 469 472 159
3 210 463 209
3 463 473 209
3 210 472 463
3 462 466 465
3 465 467 462
3 467 468 462
3 463 469 466
3 466 473 463
3 463 472 469
3 464 468 467
3 467 470 464
3 464 471 468
3 466 469 465
3 30 474 33
3 136 474 30
3 34 476 31
3 31 476 134
3 33 474 152
3 150 476 34
3 134 477 135
3 134 476 150
3 150 477 134
3 135 475 136
3 151 475 135
3 135 477 151
3 152 474 136
3 136 475 152
3 151 477 150
3 152 475 151
3 36 484 164
3 208 484 36
3 162 487 37
3 37 487 212
3 205 485 48
3 48 485 207
3 49 486 203
3 211 486 49
3 163 483 162
3 483 487 162
3 164 481 163
3 481 483 163
3 164 484 481
3 203 482 204
3 203 486 482
3 204 480 205
3 204 482 480
3 480 485 205
3 207 479 208
3 207 485 479
3 479 484 208
3 212 478 211
3 478 486 211
3 212 487 478
3 481 482 478
3 478 483 481
3 482 486 478
3 478 487 483
3 480 481 479
3 479 485 480
3 481 484 479
3 480 482 481
3 37 489 165
3 212 489 37
3 165 169 38
3 206 39 168
3 206 490 49
3 49 490 211
3 165 489 169
3 169 488 168
3 168 490 206
3 488 490 168
3 169 489 488
3 211 488 212
3 211 490 488
3 488 489 212
3 188 40 185
3 186 41 196
3 188 493 42
3 42 493 214
3 46 492 196
3 213 492 46
3 186 491 185
3 185 493 188
3 491 493 185
3 196 492 186
3 186 492 491
3 214 491 213
3 491 492 213
3 214 493 491
3 42 500 191
3 214 500 42
3 189 502 43
3 43 502 216
3 199 503 46
3 46 503 213
3 47 501 197
3 215 501 47
3 190 496 189
3 496 502 189
3 191 498 190
3 190 498 496
3 191 500 498
3 197 497 198
3 197 501 497
3 198 499 199
3 497 499 198
3 499 503 199
3 213 495 214
3 213 503 495
3 495 500 214
3 216 494 215
3 494 501 215
3 216 502 494
3 496 497 494
3 494 502 496
3 497 501 494
3 497 498 495
3 495 499 497
3 498 500 495
3 495 503 499
3 496 498 497
3 43 510 193
3 216 510 43
3 192 509 44
3 44 509 195
3 194 200 45
3 201 508 47
3 47 508 215
3 193 504 192
3 504 509 192
3 193 510 504
3 195 506 194
3 194 505 200
3 194 506 505
3 195 509 506
3 200 505 201
3 505 508 201
3 215 507 216
3 215 508 507
3 507 510 216
3 504 507 506
3 506 509 504
3 504 510 507
3 506 507 505
3 507 508 505
3 217 219 50
3 218 51 219
3 217 218 219
3 217 50 511
3 50 220 511
3 51 218 512
3 227 51 512
3 52 221 220
3 226 53 227
3 218 217 513
3 217 511 514
3 513 217 514
3 512 218 515
3 218 513 515
3 220 221 511
3 221 222 511
3 222 223 514
3 511 222 514
3 223 224 513
3 223 513 514
3 224 225 515
3 513 224 515
3 225 226 512
3 225 512 515
3 226 227 512
3 219 516 50
3 50 518 220
3 516 518 50
3 51 517 219
3 227 519 51
3 51 519 517
3 52 520 54
3 220 520 52
3 57 521 53
3 53 521 227
3 54 520 228
3 228 518 55
3 55 516 229
3 55 518 516
3 229 517 56
3 56 519 230
3 517 519 56
3 230 521 57
3 219 517 516
3 518 520 220
3 227 521 519
3 228 520 518
3 516 517 229
3 519 521 230
3 52 54 522
3 221 52 522
3 57 53 526
3 53 226 526
3 54 231 522
3 236 57 526
3 222 221 528
3 231 221 522
3 221 231 528
3 223 222 524
3 222 232 524
3 232 222 528
3 224 223 525
3 233 223 524
3 223 233 525
3 225 224 523
3 224 234 523
3 234 224 525
3 226 225 527
3 235 225 523
3 225 235 527
3 226 236 526
3 236 226 527
3 231 232 528
3 232 233 524
3 233 234 525
3 234 235 523
3 235 236 527
3 54 228 231
3 228 55 529
3 55 237 529
3 56 230 530
3 238 56 530
3 236 230 57
3 231 228 529
3 230 236 530
3 232 231 529
3 233 232 532
3 232 529 532
3 234 233 531
3 531 233 532
3 235 234 531
3 236 235 530
3 530 235 531
3 237 238 531
3 529 237 532
3 237 531 532
3 238 530 531
3 229 237 55
3 238 229 56
3 229 238 237
3 239 241 58
3 59 241 240
3 241 239 240
3 239 58 533
3 58 242 533
3 59 240 534
3 249 59 534
3 60 243 242
3 248 61 249
3 240 239 535
3 239 533 536
3 535 239 536
3 534 240 537
3 240 535 537
3 242 243 533
3 243 244 533
3 244 245 536
3 533 244 536
3 245 246 535
3 245 535 536
3 246 247 537
3 535 246 537
3 247 248 534
3 247 534 537
3 248 249 534
3 241 538 58
3 58 540 242
3 538 540 58
3 59 539 241
3 249 541 59
3 59 541 539
3 60 542 62
3 242 542 60
3 65 543 61
3 61 543 249
3 62 542 250
3 250 540 63
3 63 538 251
3 63 540 538
3 251 539 64
3 64 541 252
3 539 541 64
3 252 543 65
3 241 539 538
3 540 542 242
3 249 543 541
3 250 542 540
3 538 539 251
3 541 543 252
3 60 62 545
3 243 60 545
3 65 61 544
3 61 248 544
3 62 253 545
3 258 65 544
3 244 243 548
3 253 243 545
3 243 253 548
3 245 244 550
3 254 244 548
3 244 254 550
3 246 245 549
3 245 255 549
3 255 245 550
3 247 246 546
3 246 256 546
3 256 246 549
3 248 247 547
3 257 247 546
3 247 257 547
3 248 258 544
3 258 248 547
3 253 254 548
3 254 255 550
3 255 256 549
3 256 257 546
3 257 258 547
3 62 250 253
3 250 63 551
3 63 259 551
3 64 252 552
3 260 64 552
3 258 252 65
3 253 250 551
3 252 258 552
3 254 253 551
3 255 254 554
3 254 551 554
3 256 255 553
3 553 255 554
3 257 256 553
3 258 257 552
3 552 257 553
3 259 260 553
3 551 259 554
3 259 553 554
3 260 552 553
3 251 259 63
3 260 251 64
3 251 260 259
4 502 419 510 559
4 392 389 483 555
4 373 472 469 556
4 483 389 487 555
4 486 490 488 211
4 500 214 493 491
4 216 502 510 507
4 502 510 507 559
4 463 460 473 556
4 337 335 473 556
4 174 38 175 235
4 463 461 459 556
4 463 459 460 556
4 120 27 121 257
4 471 343 143 566
4 490 486 488 555
4 469 373 556 561
4 469 556 463 561
4 461 463 472 556
4 503 432 492 558
4 472 463 469 556
4 231 529 39 232
4 529 231 39 396
4 237 238 229 555
4 254 551 253 26
4 373 374 472 556
4 487 389 489 555
4 260 251 259 556
4 232 529 39 532
4 500 491 493 558
4 473 463 209 460
4 551 253 26 328
4 457 484 208 456
4 225 512 40 515
4 254 551 26 554
4 128 143 343 566
4 463 209 460 459
4 461 210 463 459
4 335 466 473 556
4 247 534 24 537
4 183 226 409 182
4 221 178 177 408
4 248 111 110 317
4 316 243 105 106
4 116 253 328 117
4 231 170 171 396
4 461 210 472 463
4 295 305 368 556
4 479 458 456 557
4 552 329 258 126
4 224 513 515 185
4 246 535 537 113
4 371 295 368 556
4 479 208 484 456
4 458 207 479 456
4 295 556 371 561
4 530 397 236 166
4 434 559 438 568
4 502 507 494 559
4 484 456 457 557
4 226 225 512 40
4 502 216 494 507
4 479 485 458 557
4 239 453 262 557
4 485 451 458 557
4 248 247 534 24
4 241 240 239 557
4 238 263 229 555
4 432 558 503 564
4 295 282 556 561
4 478 483 487 555
4 388 383 484 557
4 264 251 260 556
4 334 556 270 561
4 434 429 438 559
4 41 511 221 222
4 295 282 305 556
4 451 557 485 569
4 466 463 473 556
4 485 207 479 458
4 335 466 556 561
4 450 454 486 569
4 490 450 486 555
4 479 456 484 557
4 533 243 25 244
4 414 500 493 558
4 418 415 291 562
4 471 560 343 566
4 342 556 334 561
4 335 556 342 561
4 415 558 291 562
4 419 559 502 567
4 212 478 487 489
4 213 492 495 503
4 422 218 291 558
4 504 507 510 559
4 466 469 463 561
4 450 486 555 569
4 512 226 40 409
4 419 411 510 559
4 473 460 337 556
4 485 557 479 569
4 410 564 421 567
4 534 248 24 317
4 128 343 560 566
4 334 342 331 556
4 371 368 379 556
4 481 479 484 557
4 511 41 221 408
4 263 238 390 555
4 466 463 556 561
4 484 457 388 557
4 478 487 489 555
4 374 461 472 556
4 410 421 423 567
4 379 371 556 561
4 213 492 491 495
4 212 478 489 488
4 434 438 301 568
4 243 533 25 316
4 434 301 559 568
4 481 484 383 557
4 237 229 277 555
4 376 264 260 556
4 383 557 393 569
4 392 387 389 555
4 411 504 510 559
4 421 564 562 567
4 443 555 302 563
4 558 562 421 564
4 423 421 562 567
4 498 500 410 564
4 180 181 224 405
4 109 108 321 246
4 486 488 478 211
4 500 214 491 495
4 270 556 282 561
4 438 559 429 568
4 481 479 557 569
4 481 557 383 569
4 388 393 383 557
4 381 303 263 555
4 392 483 481 569
4 503 492 495 558
4 119 118 255 322
4 172 173 401 233
4 478 483 555 569
4 379 556 373 561
4 237 277 452 555
4 181 182 225 403
4 502 559 494 567
4 415 422 291 558
4 454 482 486 569
4 422 412 218 558
4 489 488 478 555
4 445 451 485 569
4 416 413 292 559
4 478 488 486 555
4 422 261 291 218
4 387 392 383 569
4 303 555 381 563
4 301 438 311 568
4 282 270 304 556
4 557 563 393 569
4 110 109 324 247
4 338 127 352 565
4 418 291 266 562
4 171 172 402 232
4 118 117 254 320
4 226 183 399 182
4 110 323 111 248
4 177 404 178 221
4 325 105 243 106
4 383 393 563 569
4 179 180 223 401
4 108 107 322 245
4 120 119 256 321
4 173 174 405 234
4 284 217 218 219
4 413 292 559 562
4 392 481 383 569
4 239 447 453 557
4 283 302 555 563
4 495 492 491 558
4 505 429 559 568
4 319 61 12 111
4 177 52 21 400
4 398 53 16 183
4 105 60 1 318
4 263 277 229 555
4 295 270 282 561
4 344 349 5 144
4 345 137 8 366
4 500 495 491 558
4 505 438 429 568
4 107 106 320 244
4 178 179 222 402
4 507 559 508 570
4 283 555 303 563
4 334 561 270 571
4 355 560 338 565
4 277 302 452 555
4 423 421 418 562
4 417 559 419 567
4 430 217 514 558
4 339 304 331 556
4 447 239 536 557
4 378 369 371 571
4 295 561 371 571
4 432 430 492 558
4 278 259 251 556
4 302 443 452 555
4 415 412 422 558
4 303 283 263 555
4 378 371 561 571
4 263 390 381 555
4 480 485 479 569
4 455 557 451 569
4 187 41 511 408
4 439 433 284 558
4 143 464 471 566
4 128 338 355 560
4 311 265 301 568
4 412 414 493 558
4 508 559 429 570
4 507 494 559 570
4 411 419 417 559
4 372 467 560 561
4 495 503 558 564
4 385 240 391 557
4 221 220 511 187
4 508 429 437 570
4 220 50 511 187
4 217 284 218 558
4 305 282 264 556
4 338 352 355 565
4 339 259 278 556
4 253 116 325 117
4 171 404 170 231
4 478 555 486 569
4 372 560 378 561
4 127 338 340 565
4 240 281 391 557
4 455 448 444 563
4 465 372 367 561
4 116 2 62 318
4 319 11 65 122
4 170 22 54 400
4 15 57 398 176
4 455 444 557 563
4 330 466 335 561
4 416 292 300 559
4 340 565 560 571
4 243 242 533 115
4 115 25 533 316
4 242 58 533 115
4 480 445 485 569
4 330 341 560 561
4 458 451 447 557
4 385 388 457 557
4 335 337 342 556
4 373 379 374 556
4 267 443 302 563
4 128 560 355 566
4 490 488 168 555
4 169 488 489 555
4 311 438 194 568
4 413 266 292 562
4 330 560 462 561
4 430 433 439 558
4 330 335 342 561
4 127 358 352 565
4 385 537 240 557
4 508 507 505 559
4 459 124 460 556
4 125 459 461 556
4 274 382 391 557
4 515 218 412 558
4 433 558 440 562
4 383 563 387 569
4 372 378 367 561
4 336 462 330 560
4 283 277 263 555
4 278 251 264 556
4 284 218 261 219
4 261 291 218 284
4 262 453 285 557
4 427 194 265 311
4 336 330 341 560
4 128 338 352 355
4 239 240 535 557
4 218 284 291 558
4 504 506 507 559
4 457 456 113 557
4 458 114 456 557
4 445 455 451 569
4 339 278 304 556
4 267 448 443 563
4 505 194 438 568
4 294 276 340 565
4 285 557 444 563
4 494 567 559 570
4 508 215 507 570
4 508 505 429 559
4 378 561 560 571
4 286 303 381 563
4 338 560 340 565
4 453 444 285 557
4 222 511 514 41
4 311 194 265 568
4 285 444 448 563
4 340 294 565 571
4 387 563 555 569
4 449 555 443 563
4 294 307 276 565
4 436 433 440 562
4 302 277 283 555
4 272 558 433 562
4 435 562 441 570
4 449 443 448 563
4 273 434 301 559
4 378 560 375 565
4 244 533 536 25
4 369 275 371 571
4 241 281 240 557
4 464 560 471 566
4 450 449 454 569
4 495 558 500 564
4 185 412 493 558
4 333 554 259 556
4 431 441 435 562
4 376 260 370 556
4 186 492 430 558
4 273 431 434 559
4 128 343 338 560
4 291 558 272 562
4 122 323 121 258
4 399 176 236 175
4 266 413 418 562
4 418 413 423 562
4 378 375 369 565
4 505 506 194 568
4 431 562 435 570
4 340 560 338 571
4 341 561 334 571
4 447 444 453 557
4 385 391 382 557
4 447 114 458 557
4 457 113 385 557
4 532 237 446 555
4 413 423 562 567
4 286 283 303 563
4 336 468 462 560
4 413 562 559 567
4 270 561 295 571
4 450 555 449 569
4 194 427 265 568
4 430 514 186 558
4 372 465 467 561
4 447 536 114 557
4 238 384 390 555
4 186 491 492 558
4 185 493 491 558
4 339 333 259 556
4 450 490 446 555
4 384 489 389 555
4 498 564 410 567
4 358 355 352 565
4 431 435 559 570
4 416 559 300 568
4 412 421 414 558
4 440 430 432 558
4 217 218 513 558
4 436 272 433 562
4 505 559 506 568
4 378 372 375 560
4 121 120 257 324
4 283 267 302 563
4 113 537 385 557
4 295 371 275 571
4 455 563 557 569
4 515 412 185 558
4 504 506 559 568
4 273 559 292 562
4 282 278 264 556
4 446 237 452 555
4 455 448 563 569
4 460 124 333 556
4 370 125 461 556
4 478 486 482 569
4 174 175 403 235
4 176 397 236 175
4 258 121 122 329
4 274 391 281 557
4 460 333 337 556
4 370 461 374 556
4 432 440 558 564
4 284 433 272 558
4 9 141 345 362
4 307 565 294 571
4 127 4 344 360
4 341 342 334 561
4 383 393 387 563
4 194 427 426 311
4 282 304 278 556
4 343 471 468 560
4 560 561 341 571
4 311 426 194 438
4 494 507 215 570
4 490 168 446 555
4 169 489 384 555
4 504 559 411 568
4 431 559 562 570
4 221 187 511 408
4 462 560 467 561
4 333 124 554 556
4 291 272 266 562
4 431 293 436 562
4 382 557 274 563
4 555 563 449 569
4 220 221 407 187
4 533 243 115 316
4 413 416 411 559
4 429 434 431 559
4 499 432 503 564
4 412 415 421 558
4 440 562 558 564
4 380 372 470 566
4 431 559 273 562
4 532 446 168 555
4 382 393 557 563
4 440 433 430 558
4 336 343 468 560
4 242 243 315 115
4 285 448 267 563
4 505 507 506 559
4 447 451 455 557
4 385 393 388 557
4 411 559 416 568
4 262 285 281 557
4 238 237 531 555
4 369 565 275 571
4 381 386 286 563
4 272 436 293 562
4 508 501 215 570
4 560 565 355 566
4 413 411 417 559
4 429 431 435 559
4 375 560 372 566
4 419 502 424 567
4 259 553 260 556
4 341 330 342 561
4 449 563 448 569
4 381 555 387 563
4 498 495 500 564
4 377 313 369 565
4 300 559 301 568
4 462 466 330 561
4 441 436 440 562
4 339 331 333 556
4 368 376 370 556
4 292 273 300 559
4 413 559 417 567
4 508 437 501 570
4 462 468 467 560
4 432 499 428 564
4 440 441 562 564
4 418 415 88 291
4 367 379 373 561
4 431 273 293 562
4 340 338 332 571
4 382 274 386 563
4 272 291 284 558
4 429 559 435 570
4 424 498 410 567
4 471 464 468 560
4 300 273 301 559
4 446 452 443 555
4 390 384 381 555
4 488 531 168 555
4 417 419 424 567
4 169 531 488 555
4 437 429 435 570
4 465 462 467 561
4 372 560 467 566
4 459 553 124 556
4 125 553 459 556
4 285 274 557 563
4 455 444 447 557
4 382 393 385 557
4 431 293 96 436
4 428 442 441 564
4 382 386 393 563
4 33 361 152 474
4 150 34 476 359
4 470 372 467 566
4 562 564 441 570
4 340 332 294 571
4 416 90 292 413
4 449 450 446 555
4 389 387 384 555
4 208 479 207 456
4 333 342 337 556
4 374 379 370 556
4 441 564 442 570
4 496 498 424 567
4 469 466 465 561
4 424 502 496 567
4 142 32 470 380
4 369 76 371 275
4 221 407 187 408
4 217 511 430 514
4 366 153 7 362
4 291 88 418 266
4 349 360 6 147
4 274 286 386 563
4 33 149 361 346
4 28 343 128 143
4 501 494 215 570
4 331 342 333 556
4 379 368 370 556
4 431 436 441 562
4 338 560 341 571
4 381 387 386 563
4 478 481 483 569
4 34 363 359 155
4 243 315 115 316
4 368 77 305 295
4 380 470 142 566
4 275 565 307 571
4 343 336 338 560
4 375 565 560 566
4 304 331 334 69
4 432 428 440 564
4 533 239 536 447
4 141 375 140 566
4 434 431 273 97
4 281 285 274 557
4 310 427 425 568
4 261 422 51 218
4 428 497 442 564
4 502 494 496 567
4 266 273 292 562
4 446 443 449 555
4 387 381 384 555
4 237 529 532 452
4 273 301 434 97
4 358 276 268 565
4 141 565 375 566
4 272 293 266 562
4 268 276 307 565
4 303 381 83 286
4 379 378 371 561
4 357 477 150 151
4 338 336 341 560
4 498 424 410 190
4 369 313 275 565
4 70 332 334 571
4 260 376 64 264
4 143 142 464 566
4 56 390 263 238
4 141 140 356 566
4 364 154 353 155
4 295 371 76 275
4 338 352 127 128
4 32 380 142 566
4 411 509 504 568
4 209 463 210 459
4 293 273 431 96
4 141 356 565 566
4 475 151 351 152
4 503 499 199 432
4 338 341 332 571
4 455 449 448 569
4 362 268 141 350
4 343 28 471 143
4 268 377 141 565
4 475 143 135 136
4 134 135 477 142
4 9 141 362 268
4 268 313 377 565
4 265 427 310 568
4 375 372 380 566
4 448 444 285 102
4 277 55 237 452
4 442 198 497 428
4 498 496 497 567
4 424 410 423 567
4 469 465 158 373
4 292 90 416 300
4 40 184 512 409
4 498 496 424 190
4 494 496 567 570
4 481 480 479 569
4 498 497 564 567
4 286 381 83 386
4 377 369 375 565
4 423 413 417 567
4 367 158 465 373
4 212 478 488 211
4 213 491 214 495
4 422 184 218 412
4 462 336 330 131
4 468 336 462 131
4 58 262 239 453
4 268 9 377 313
4 77 368 371 295
4 82 286 386 274
4 386 382 82 274
4 497 428 499 564
4 358 360 276 127
4 497 442 564 570
4 142 143 357 566
4 393 386 387 563
4 352 147 348 148
4 215 494 216 507
4 467 468 464 560
4 268 141 350 565
4 245 244 107 550
4 223 222 179 524
4 467 560 464 566
4 148 149 347 354
4 141 9 377 268
4 81 382 391 274
4 251 278 269 309
4 465 466 462 561
4 499 497 198 428
4 467 464 470 566
4 436 272 95 433
4 428 199 499 432
4 225 224 181 523
4 247 246 109 546
4 415 422 87 291
4 425 427 195 568
4 201 437 508 429
4 350 358 268 565
4 153 365 154 356
4 294 332 70 571
4 256 255 549 119
4 157 465 372 367
4 378 379 367 561
4 425 310 93 427
4 307 275 313 565
4 427 426 311 92
4 61 248 111 544
4 53 226 183 526
4 270 304 334 69
4 223 224 525 180
4 193 419 411 510
4 293 272 95 436
4 127 4 360 276
4 49 490 486 211
4 48 207 485 458
4 226 225 182 527
4 248 247 110 547
4 300 301 265 568
4 112 391 385 240
4 24 112 534 317
4 259 278 63 339
4 420 416 91 310
4 144 127 348 145
4 137 138 365 141
4 70 334 270 571
4 356 355 565 566
4 261 87 422 291
4 504 193 411 510
4 264 376 78 305
4 354 128 352 355
4 440 428 441 564
4 233 234 173 525
4 308 50 20 284
4 136 28 30 474
4 32 31 476 134
4 380 156 470 372
4 502 419 424 189
4 246 245 108 549
4 259 551 554 333
4 286 267 283 563
4 495 499 503 564
4 468 471 343 132
4 205 485 445 451
4 562 567 564 570
4 243 60 105 545
4 253 62 545 116
4 231 54 522 170
4 221 52 177 522
4 222 221 178 528
4 444 453 285 101
4 432 196 492 430
4 445 454 482 204
4 35 461 210 472
4 493 414 412 188
4 237 532 446 452
4 273 266 293 562
4 358 268 276 73
4 285 267 274 563
4 416 310 420 568
4 252 258 326 126
4 506 504 509 568
4 478 482 481 569
4 244 243 106 548
4 254 253 548 117
4 559 567 562 570
4 241 306 281 280
4 192 411 509 504
4 274 267 286 563
4 285 448 102 267
4 275 270 295 571
4 230 236 394 166
4 410 414 500 191
4 453 262 285 101
4 351 357 143 566
4 530 390 238 384
4 254 255 554 124
4 232 233 532 168
4 503 46 492 432
4 138 364 140 139
4 347 128 146 145
4 240 59 391 281
4 552 370 376 260
4 186 185 513 180
4 108 535 113 114
4 482 454 445 569
4 481 483 392 163
4 494 497 496 570
4 194 195 427 568
4 452 302 277 104
4 458 485 48 451
4 435 441 442 570
4 376 368 78 305
4 34 363 476 359
4 490 450 49 486
4 369 377 75 313
4 232 231 528 171
4 343 336 468 132
4 392 383 481 163
4 509 411 420 568
4 275 307 294 571
4 140 380 353 566
4 484 36 457 208
4 263 14 56 312
4 497 567 496 570
4 363 31 32 139
4 30 28 146 346
4 489 487 37 389
4 265 93 310 427
4 53 226 406 183
4 61 248 314 111
4 231 54 170 395
4 253 62 116 327
4 221 52 407 177
4 243 60 315 105
4 350 355 358 565
4 196 186 492 430
4 255 254 550 118
4 233 232 524 172
4 311 265 427 92
4 4 127 340 276
4 356 355 350 565
4 185 493 412 188
4 200 429 505 438
4 497 564 567 570
4 269 264 278 251
4 270 294 70 571
4 510 43 419 502
4 123 333 259 339
4 274 391 81 281
4 259 551 333 123
4 194 200 505 438
4 300 91 416 310
4 485 480 205 445
4 29 473 209 460
4 482 480 445 204
4 416 300 310 568
4 411 509 420 192
4 496 502 424 189
4 457 161 388 385
4 202 447 458 451
4 388 36 457 484
4 465 467 157 372
4 358 350 268 73
4 420 310 425 568
4 124 460 333 133
4 160 125 461 370
4 278 304 68 339
4 486 454 450 203
4 37 212 487 489
4 213 46 492 503
4 65 258 544 122
4 57 236 526 176
4 187 41 430 511
4 351 361 354 143
4 457 113 161 385
4 447 458 114 202
4 194 506 195 568
4 482 445 480 569
4 71 294 276 340
4 35 461 472 374
4 72 360 4 276
4 332 341 334 571
4 422 184 51 218
4 156 467 470 372
4 339 304 68 331
4 159 472 373 374
4 47 501 508 437
4 44 425 195 509
4 358 360 72 276
4 501 437 442 570
4 308 20 50 279
4 473 29 337 460
4 271 56 14 312
4 472 469 159 373
4 201 508 505 429
4 65 258 122 326
4 57 236 176 394
4 351 355 357 566
4 74 268 9 362
4 281 241 280 262
4 487 483 162 389
4 392 162 483 389
4 33 361 474 346
4 292 90 89 413
4 443 302 452 104
4 64 10 269 264
4 123 259 63 339
4 473 335 337 129
4 502 510 43 216
4 115 25 447 533
4 495 497 499 564
4 391 112 59 240
4 264 64 260 251
4 501 442 497 570
4 410 500 498 191
4 96 273 431 97
4 384 489 169 165
4 490 168 206 446
4 397 236 394 176
4 258 122 326 329
4 275 369 75 313
4 165 384 489 389
4 206 450 490 446
4 179 41 222 186
4 294 71 332 340
4 125 160 27 370
4 40 181 225 185
4 460 337 333 133
4 374 160 461 370
4 107 25 244 114
4 19 426 311 438
4 18 420 310 425
4 275 294 270 571
4 435 442 437 570
4 257 256 546 120
4 235 234 523 174
4 24 109 247 113
4 268 307 313 565
4 277 55 23 279
4 466 335 473 129
4 140 353 356 566
4 353 355 356 566
4 425 44 420 509
4 223 222 514 186
4 245 244 536 114
4 356 350 141 565
4 455 445 449 569
4 186 180 513 223
4 535 108 245 114
4 155 140 364 139
4 454 449 445 569
4 108 535 246 113
4 180 185 513 224
4 349 4 360 344
4 222 221 41 178
4 497 495 498 564
4 87 88 415 291
4 229 56 263 238
4 470 464 142 566
4 501 215 47 508
4 511 41 430 514
4 88 89 418 266
4 40 226 225 182
4 362 74 268 350
4 454 486 482 203
4 244 243 25 106
4 9 345 366 362
4 484 383 388 164
4 24 248 247 110
4 375 141 377 565
4 420 411 416 568
4 375 380 140 566
4 169 38 384 165
4 359 142 357 353
4 482 480 481 569
4 530 397 166 38
4 267 448 102 103
4 552 329 126 27
4 438 311 19 98
4 417 424 423 567
4 533 536 25 447
4 39 172 232 168
4 437 197 501 442
4 452 277 55 104
4 353 142 357 566
4 82 286 83 386
4 336 468 132 131
4 26 118 254 124
4 94 284 50 439
4 197 497 501 442
4 95 272 94 433
4 420 91 18 310
4 284 50 217 219
4 87 422 51 261
4 383 484 481 164
4 382 81 82 274
4 195 506 509 568
4 258 257 547 121
4 236 235 527 175
4 277 312 229 279
4 232 231 171 39
4 83 84 381 303
4 71 276 4 340
4 467 156 157 372
4 500 414 42 191
4 233 169 173 234
4 256 255 119 125
4 503 199 46 432
4 497 197 198 442
4 390 84 56 263
4 265 93 427 92
4 301 434 97 98
4 102 444 285 101
4 254 253 117 26
4 276 72 358 73
4 40 226 182 409
4 165 489 37 389
4 206 450 49 490
4 41 221 408 178
4 485 205 48 451
4 376 78 64 264
4 108 535 245 246
4 223 224 180 513
4 310 300 265 568
4 469 158 159 373
4 25 243 316 106
4 24 248 110 317
4 194 45 200 438
4 279 20 518 290
4 508 47 437 201
4 278 68 63 339
4 277 23 55 104
4 51 227 512 184
4 138 365 141 356
4 71 70 294 332
4 77 78 368 305
4 348 127 352 145
4 502 43 419 189
4 189 424 496 190
4 95 96 293 436
4 554 551 26 333
4 78 64 10 376
4 262 241 58 239
4 164 481 383 163
4 193 43 419 510
4 471 28 343 132
4 51 17 87 261
4 46 196 492 432
4 75 377 9 313
4 10 64 78 264
4 39 231 171 396
4 426 19 45 438
4 420 18 44 425
4 70 270 334 69
4 411 192 193 504
4 237 229 55 277
4 284 50 20 94
4 347 149 146 354
4 532 39 446 529
4 335 466 130 129
4 519 14 289 271
4 68 3 63 339
4 59 81 391 281
4 369 75 76 275
4 365 138 154 356
4 551 259 63 123
4 148 348 352 145
4 140 364 353 155
4 486 450 49 203
4 353 357 355 566
4 185 40 515 225
4 26 253 117 328
4 452 55 23 104
4 540 58 0 280
4 190 410 498 191
4 302 443 103 104
4 51 17 422 87
4 90 91 416 300
4 113 247 24 537
4 6 4 360 349
4 143 135 142 151
4 76 77 371 295
4 7 9 366 362
4 59 249 534 112
4 202 458 48 451
4 68 63 3 278
4 36 161 388 457
4 472 159 35 374
4 177 221 408 407
4 396 231 170 395
4 105 243 316 315
4 328 253 116 327
4 226 409 406 183
4 248 314 111 317
4 262 58 0 453
4 17 51 271 261
4 233 169 168 173
4 125 255 119 124
4 453 0 262 101
4 142 357 143 151
4 81 13 59 391
4 501 497 494 570
4 198 199 499 428
4 251 278 63 259
4 128 146 28 361
4 487 162 37 389
4 280 58 0 262
4 445 480 205 204
4 426 45 194 438
4 493 42 414 188
4 465 157 158 367
4 476 363 32 359
4 312 271 517 308
4 280 0 540 287
4 59 13 81 281
4 14 56 84 263
4 288 269 306 541
4 56 14 84 390
4 331 304 68 69
4 461 35 160 374
4 29 337 460 133
4 277 229 55 279
4 359 140 155 139
4 203 482 454 204
4 146 128 347 354
4 140 359 32 139
4 130 462 330 131
4 312 229 263 277
4 309 280 540 287
4 312 308 516 279
4 470 32 156 380
4 539 306 269 541
4 184 17 51 227
4 278 63 3 309
4 269 306 539 280
4 241 539 306 280
4 311 426 19 92
4 310 93 18 425
4 280 538 269 309
4 63 251 538 309
4 59 241 539 306
4 344 360 349 147
4 333 551 26 123
4 366 345 153 362
4 337 29 473 129
4 392 483 162 163
4 281 59 13 306
4 474 361 28 346
4 146 128 354 361
4 357 351 143 151
4 538 251 269 309
4 361 143 152 136
4 529 39 446 167
4 218 184 51 512
4 142 477 150 357
4 241 58 538 280
4 251 64 539 269
4 149 146 354 361
4 517 271 51 219
4 350 74 268 73
4 218 51 261 219
4 50 20 94 439
4 9 7 74 362
4 539 269 64 541
4 351 143 151 475
4 141 362 350 356
4 281 240 59 241
4 184 17 422 51
4 388 36 484 164
4 376 64 10 126
4 308 261 271 219
4 518 50 20 279
4 261 51 271 219
4 516 308 50 279
4 0 115 58 242
4 505 201 429 200
4 360 4 6 72
4 167 55 23 452
4 376 126 370 552
4 364 353 154 140
4 357 142 477 151
4 123 63 3 339
4 59 112 534 240
4 44 420 509 192
4 501 47 197 437
4 143 361 28 136
4 0 115 453 58
4 150 134 142 359
4 353 359 140 155
4 540 538 280 309
4 516 55 229 279
4 264 269 64 251
4 360 358 352 127
4 370 126 27 552
4 530 166 390 384
4 150 134 477 142
4 143 475 152 136
4 351 143 475 152
4 128 352 127 145
4 284 261 308 219
4 519 56 14 271
4 229 263 56 312
4 519 289 17 271
4 517 229 56 312
4 112 13 59 249
4 241 538 539 280
4 141 140 138 356
4 151 143 135 475
4 135 477 142 151
4 529 396 39 167
4 328 26 551 123
4 258 326 126 329
4 390 56 14 166
4 38 166 530 384
4 538 269 539 280
4 55 23 228 167
4 394 166 236 397
4 186 41 222 514
4 51 519 271 517
4 142 134 32 359
4 517 56 271 312
4 112 13 391 59
4 250 63 3 123
4 114 536 25 244
4 308 271 517 219
4 255 256 553 125
4 233 234 531 169
4 50 308 516 219
4 247 246 537 113
4 225 224 515 185
4 269 539 251 538
4 229 312 516 279
4 20 187 50 220
4 55 516 518 279
4 143 351 361 152
4 284 308 50 219
4 140 154 138 356
4 128 148 352 145
4 287 298 66 542
4 312 517 229 516
4 516 308 517 219
4 150 142 357 359
4 152 361 28 474
4 58 540 538 280
4 67 298 287 542
4 251 63 278 309
4 518 516 50 279
4 79 543 288 297
4 361 149 28 346
4 147 127 352 348
4 20 187 439 50
4 80 288 543 297
4 365 153 141 356
4 279 518 23 290
4 353 154 140 356
4 150 476 32 359
4 271 519 56 517
4 126 64 10 252
4 150 32 476 134
4 136 152 28 474
4 146 28 149 346
4 85 296 521 289
4 520 290 99 299
4 245 244 114 107
4 223 222 186 179
4 280 241 58 262
4 359 363 32 155
4 155 363 32 139
4 347 128 148 354
4 225 224 185 181
4 247 246 113 109
4 544 61 319 111
4 526 53 398 183
4 553 255 125 124
4 531 233 169 168
4 522 52 177 400
4 318 105 60 545
4 318 62 116 545
4 522 170 54 400
4 544 319 65 122
4 526 398 57 176
4 147 349 344 144
4 153 137 345 366
4 517 312 308 516
4 538 540 63 309
4 86 521 296 289
4 128 352 148 354
4 233 232 172 168
4 255 254 118 124
4 459 553 125 124
4 168 169 531 488
4 345 141 153 362
4 360 344 127 147
4 539 59 306 541
4 363 32 31 476
4 474 28 30 346
4 56 14 166 230
4 168 232 39 532
4 30 33 474 346
4 100 290 520 299
4 363 31 34 476
4 26 554 124 254
4 349 5 4 344
4 345 8 9 366
4 306 281 59 241
4 147 344 127 144
4 153 137 141 345
4 306 59 13 541
4 155 32 359 139
4 325 548 253 117
4 146 149 28 361
4 540 3 63 309
4 171 404 231 528
4 399 527 226 182
4 110 323 248 547
4 134 150 32 359
4 325 243 548 106
4 57 230 394 85
4 404 178 221 528
4 232 222 402 528
4 352 360 127 147
4 152 28 361 136
4 309 540 3 287
4 222 178 402 528
4 57 53 296 398
4 400 54 52 299
4 362 141 153 356
4 13 288 306 541
4 254 548 244 320
4 320 548 244 106
4 52 220 407 99
4 227 53 406 86
4 228 54 395 100
4 324 110 247 547
4 65 252 326 79
4 250 62 327 67
4 63 250 551 123
4 403 225 527 182
4 249 61 314 80
4 86 17 227 289
4 52 220 99 520
4 228 54 100 520
4 227 53 86 521
4 55 228 529 167
4 7 9 8 366
4 60 242 315 66
4 4 6 5 349
4 250 62 67 542
4 17 51 519 271
4 287 66 0 242
4 347 148 128 145
4 249 61 80 543
4 524 402 222 179
4 244 107 550 320
4 232 402 171 528
4 546 256 246 321
4 224 234 405 523
4 242 287 66 542
4 60 242 66 542
4 121 110 324 547
4 178 171 402 528
4 364 154 138 140
4 320 254 548 117
4 15 57 296 398
4 296 53 16 398
4 400 22 54 299
4 225 523 181 403
4 400 52 21 299
4 546 247 324 109
4 548 320 117 106
4 175 403 527 182
4 234 174 405 523
4 546 256 321 120
4 524 223 233 401
4 322 255 245 550
4 524 223 401 179
4 245 107 322 550
4 321 246 546 109
4 224 405 181 523
4 234 405 173 525
4 99 20 290 220
4 236 527 399 175
4 323 121 258 547
4 322 245 549 108
4 321 256 549 119
4 180 405 224 525
4 549 246 321 108
4 250 67 287 542
4 255 322 118 550
4 401 233 524 172
4 180 525 223 401
4 17 51 227 519
4 550 118 254 320
4 524 232 402 172
4 57 296 521 85
4 520 99 52 299
4 543 249 288 80
4 521 296 53 86
4 127 147 144 348
4 365 153 137 141
4 405 234 224 525
4 520 54 100 299
4 255 322 549 119
4 296 57 15 85
4 296 16 53 86
4 99 21 52 299
4 100 54 22 299
4 256 246 321 549
4 233 525 173 401
4 296 16 15 398
4 400 21 22 299
4 100 290 23 228
4 289 17 227 519
4 540 0 58 242
4 245 255 322 549
4 107 118 322 550
4 524 401 172 179
4 120 321 546 109
4 174 181 405 523
4 287 3 67 250
4 518 23 55 279
4 520 99 290 220
4 57 230 85 521
4 233 223 525 401
4 288 249 13 80
4 55 23 518 228
4 85 230 14 289
4 65 252 79 543
4 405 180 173 525
4 108 321 549 119
4 108 549 322 119
4 247 257 324 547
4 62 2 67 298
4 540 63 3 250
4 249 13 59 541
4 289 227 521 519
4 520 290 518 220
4 288 252 543 79
4 525 180 173 401
4 80 61 12 297
4 66 1 60 298
4 398 57 53 526
4 65 61 319 544
4 235 225 527 403
4 79 11 65 297
4 518 290 520 228
4 402 222 232 524
4 254 244 550 320
4 10 252 288 79
4 60 62 318 545
4 522 54 52 400
4 174 181 523 403
4 172 402 524 179
4 107 118 550 320
4 290 518 23 228
4 257 121 324 547
4 120 546 324 109
4 20 518 290 220
4 527 399 175 182
4 323 110 121 547
4 325 548 117 106
4 403 527 235 175
4 404 171 178 528
4 548 253 243 325
4 227 521 86 289
4 526 398 176 183
4 122 544 319 111
4 298 67 62 542
4 522 177 170 400
4 318 116 105 545
4 177 231 221 522
4 253 243 116 545
4 290 100 520 228
4 80 543 61 297
4 221 231 404 528
4 298 60 66 542
4 518 20 50 220
4 65 543 79 297
4 116 243 253 325
4 404 177 231 221
4 235 174 523 403
4 252 64 10 541
4 60 62 2 318
4 65 61 11 319
4 546 324 257 120
4 111 122 544 248
4 176 226 526 183
4 85 521 230 289
4 231 177 170 522
4 243 105 116 545
4 183 176 226 399
4 323 122 111 248
4 116 105 243 325
4 177 170 404 231
4 289 521 230 519
4 289 230 14 519
4 242 540 287 542
4 236 226 526 176
4 248 122 544 258
4 250 287 540 542
4 60 2 1 318
4 12 11 61 319
4 527 226 236 399
4 258 248 323 547
4 230 56 14 519
4 176 236 226 399
4 323 122 248 258
4 249 543 288 541
4 0 540 287 242
4 2 62 60 298
4 11 61 65 297
4 523 225 235 403
4 324 257 247 546
4 53 57 296 521
4 52 54 520 299
4 287 540 3 250
4 60 1 2 298
4 61 11 12 297
4 13 249 288 541
4 288 543 252 541
4 62 60 298 542
4 543 65 61 297
4 288 252 10 541
4 394 15 57 85
4 17 406 86 227
4 109 113 108 246
4 394 14 85 230
4 17 184 406 227
4 252 258 65 326
4 326 11 65 79
4 116 62 2 327
4 187 20 407 220
4 170 54 22 395
4 406 16 53 183
4 230 236 57 394
4 53 226 227 406
4 236 230 530 166
4 166 14 394 230
4 326 65 11 122
4 53 16 406 86
4 57 15 394 176
4 181 185 180 224
4 174 173 169 234
4 180 186 179 223
4 124 119 118 255
4 109 110 24 247
4 314 12 61 111
4 126 10 326 252
4 61 248 249 314
4 326 10 79 252
4 61 12 314 80
4 13 112 314 249
4 13 314 80 249
4 258 252 552 126
4 252 552 126 64
4 105 1 60 315
4 120 119 125 256
4 3 327 67 250
4 115 0 315 242
4 66 60 1 315
4 108 114 107 245
4 2 62 67 327
4 3 123 327 250
4 233 531 532 168
4 243 60 242 315
4 250 62 253 327
4 535 245 536 114
4 255 553 554 124
4 117 26 118 254
4 171 39 172 232
4 168 173 172 233
4 178 179 41 222
4 513 223 514 186
4 23 167 395 228
4 177 21 52 407
4 221 52 220 407
4 99 52 21 407
4 407 20 99 220
4 100 22 54 395
4 23 395 100 228
4 106 107 25 244
4 230 530 166 56
4 228 54 231 395
4 315 0 66 242
4 181 182 40 225
4 569 392 555 387
4 569 555 392 483
4 226 227 184 512
4 184 227 226 406
4 184 409 226 512
4 226 409 184 406
4 249 248 112 314
4 249 112 248 534
4 317 112 248 314
4 317 248 112 534
4 562 415 421 418
4 562 421 415 558
4 263 381 84 303
4 263 84 381 390
4 500 564 414 410
4 500 414 564 558
4 421 414 564 410
4 421 564 414 558
4 565 378 571 369
4 565 571 378 560
4 304 334 556 270
4 556 334 304 331
4 253 250 123 551
4 123 250 253 327
4 123 328 253 551
4 253 328 123 327
4 231 228 167 529
4 167 228 231 395
4 167 396 231 529
4 231 396 167 395
4 557 241 262 239
4 557 262 241 281
4 266 413 89 418
4 89 413 266 292
4 557 537 535 113
4 557 535 537 240
4 113 114 557 456
4 113 557 114 535
4 185 186 558 491
4 185 558 186 513
4 354 143 566 351
4 566 143 354 128
4 566 355 354 351
4 354 355 566 128
4 558 515 513 185
4 558 513 515 218
4 376 305 556 368
4 556 305 376 264
4 127 276 565 340
4 127 565 276 358
4 267 443 103 302
4 103 443 267 448
4 514 513 558 217
4 514 558 513 186
4 536 535 557 239
4 536 557 535 114
4 218 184 515 412
4 218 515 184 512
4 40 515 184 412
4 40 184 515 512
4 301 438 98 311
4 98 438 301 434
4 373 465 561 469
4 373 561 465 367
4 284 433 94 272
4 94 433 284 439
4 452 529 446 167
4 452 446 529 532
4 452 529 55 237
4 452 55 529 167
4 330 466 130 335
4 130 466 330 462
4 500 493 42 414
4 42 493 500 214
4 240 112 537 385
4 240 537 112 534
4 24 537 112 385
4 24 112 537 534
4 186 41 430 196
4 430 41 186 514
4 25 114 447 536
4 25 447 114 202
4 39 168 446 206
4 39 446 168 532
4 425 509 568 195
4 568 509 425 420
4 124 26 333 554
4 124 333 26 133
4 530 236 38 235
4 530 38 236 397
4 175 38 236 235
4 175 236 38 397
4 258 121 27 257
4 27 121 258 329
4 27 552 258 257
4 258 552 27 329
4 359 140 380 353
4 380 140 359 32
4 359 380 566 353
4 566 380 359 32
4 359 566 142 353
4 142 566 359 32
4 185 40 412 515
4 412 40 185 188
4 24 113 385 161
4 24 385 113 537
4 552 64 376 126
4 376 64 552 260
4 56 530 390 238
4 390 530 56 166
4 10 541 269 288
4 269 541 10 64
4 439 430 50 187
4 511 430 50 217
4 511 50 430 187
4 453 58 447 239
4 453 447 58 115
4 533 447 58 239
4 533 58 447 115
4 553 554 556 259
4 556 554 553 124
4 532 531 555 168
4 555 531 532 237
4 553 556 370 260
4 370 556 553 125
4 370 552 553 260
4 531 555 384 238
4 384 555 531 169
4 384 530 531 238
4 128 361 143 354
4 143 361 128 28
4 531 235 169 234
4 553 257 125 256
4 235 174 169 234
4 235 169 174 38
4 257 120 125 256
4 257 125 120 27
4 430 50 558 439
4 430 558 50 217
4 284 558 50 439
4 284 50 558 217
4 531 235 38 169
4 38 235 531 530
4 38 384 531 169
4 531 384 38 530
4 553 257 27 125
4 27 257 553 552
4 27 370 553 125
4 553 370 27 552

CELL_TYPES 3110
1
1
1
1
1
1
1
1
1
1
1
1
1
1
1
1
1
1
1
1
1
1
1
1
1
1
1
1
1
1
1
1
1
1
1
1
1
1
1
1
1
1
1
1
1
1
1
1
1
1
1
1
1
1
1
1
1
1
1
1
1
1
1
1
1
1
3
3
3
3
3
3
3
3
3
3
3
3
3
3
3
3
3
3
3
3
3
3
3
3
3
3
3
3
3
3
3
3
3
3
3
3
3
3
3
3
3
3
3
3
3
3
3
3
3
3
3
3
3
3
3
3
3
3
3
3
3
3
3
3
3
3
3
3
3
3
3
3
3
3
3
3
3
3
3
3
3
3
3
3
3
3
3
3
3
3
3
3
3
3
3
3
3
3
3
3
3
3
3
3
3
3
3
3
3
3
3
3
3
3
3
3
3
3
3
3
3
3
3
3
3
3
3
3
3
3
3
3
3
3
3
3
3
3
3
3
3
3
3
3
3
3
3
3
3
3
3
3
3
3
3
3
3
3
3
3
3
3
3
3
3
3
3
3
3
3
3
3
3
3
3
3
3
3
3
3
3
3
3
3
3
3
3
3
3
3
3
3
3
3
3
3
3
3
3
3
3
3
3
3
3
3
3
3
3
3
3
3
3
3
3
3
3
3
3
3
3
3
3
3
3
3
3
3
3
3
3
3
3
3
3
3
3
3
3
3
3
3
3
3
3
3
3
3
3
3
3
3
3
3
3
3
3
3
3
3
3
3
3
3
3
3
3
3
3
3
3
3
3
3
3
3
3
3
3
3
3
3
3
3
3
3
3
3
3
3
3
3
3
3
5
5
5
5
5
5
5
5
5
5
5
5
5
5
5
5
5
5
5
5
5
5
5
5
5
5
5
5
5
5
5
5
5
5
5
5
5
5
5
5
5
5
5
5
5
5
5
5
5
5
5
5
5
5
5
5
5
5
5
5
5
5
5
5
5
5
5
5
5
5
5
5
5
5
5
5
5
5
5
5
5
5
5
5
5
5
5
5
5
5
5
5
5
5
5
5
5
5
5
5
5
5
5
5
5
5
5
5
5
5
5
5
5
5
5
5
5
5
5
5
5
5
5
5
5
5
5
5
5
5
5
5
5
5
5
5
5
5
5
5
5
5
5
5
5
5
5
5
5
5
5
5
5
5
5
5
5
5
5
5
5
5
5
5
5
5
5
5
5
5
5
5
5
5
5
5
5
5
5
5
5
5
5
5
5
5
5
5
5
5
5
5
5
5
5
5
5
5
5
5
5
5
5
5
5
5
5
5
5
5
5
5
5
5
5
5
5
5
5
5
5
5
5
5
5
5
5
5
5
5
5
5
5
5
5
5
5
5
5
5
5
5
5
5
5
5
5
5
5
5
5
5
5
5
5
5
5
5
5
5
5
5
5
5
5
5
5
5
5
5
5
5
5
5
5
5
5
5
5
5
5
5
5
5
5
5
5
5
5
5
5
5
5
5
5
5
5
5
5
5
5
5
5
5
5
5
5
5
5
5
5
5
5
5
5
5
5
5
5
5
5
5
5
5
5
5
5
5
5
5
5
5
5
5
5
5
5
5
5
5
5
5
5
5
5
5
5
5
5
5
5
5
5
5
5
5
5
5
5
5
5
5
5
5
5
5
5
5
5
5
5
5
5
5
5
5
5
5
5
5
5
5
5
5
5
5
5
5
5
5
5
5
5
5
5
5
5
5
5
5
5
5
5
5
5
5
5
5
5
5
5
5
5
5
5
5
5
5
5
5
5
5
5
5
5
5
5
5
5
5
5
5
5
5
5
5
5
5
5
5
5
5
5
5
5
5
5
5
5
5
5
5
5
5
5
5
5
5
5
5
5
5
5
5
5
5
5
5
5
5
5
5
5
5
5
5
5
5
5
5
5
5
5
5
5
5
5
5
5
5
5
5
5
5
5
5
5
5
5
5
5
5
5
5
5
5
5
5
5
5
5
5
5
5
5
5
5
5
5
5
5
5
5
5
5
5
5
5
5
5
5
5
5
5
5
5
5
5
5
5
5
5
5
5
5
5
5
5
5
5
5
5
5
5
5
5
5
5
5
5
5
5
5
5
5
5
5
5
5
5
5
5
5
5
5
5
5
5
5
5
5
5
5
5
5
5
5
5
5
5
5
5
5
5
5
5
5
5
5
5
5
5
5
5
5
5
5
5
5
5
5
5
5
5
5
5
5
5
5
5
5
5
5
5
5
5
5
5
5
5
5
5
5
5
5
5
5
5
5
5
5
5
5
5
5
5
5
5
5
5
5
5
5
5
5
5
5
5
5
5
5
5
5
5
5
5
5
5
5
5
5
5
5
5
5
5
5
5
5
5
5
5
5
5
5
5
5
5
5
5
5
5
5
5
5
5
5
5
5
5
5
5
5
5
5
5
5
5
5
5
5
5
5
5
5
5
5
5
5
5
5
5
5
5
5
5
5
5
5
5
5
5
5
5
5
5
5
5
5
5
5
5
5
5
5
5
5
5
5
5
5
5
5
5
5
5
5
5
5
5
5
5
5
5
5
5
5
5
5
5
5
5
5
5
5
5
5
5
5
5
5
5
5
5
5
5
5
5
5
5
5
5
5
5
5
5
5
5
5
5
5
5
5
5
5
5
5
5
5
5
5
5
5
5
5
5
5
5
5
5
5
5
5
5
5
5
5
5
5
5
5
5
5
5
5
5
5
5
5
5
5
5
5
5
5
5
5
5
5
5
5
5
5
5
5
5
5
5
5
5
5
5
5
5
5
5
5
5
5
5
5
5
5
5
5
5
5
5
5
5
5
5
5
5
5
5
5
5
5
5
5
5
5
5
5
5
5
5
5
5
5
5
5
5
5
5
5
5
5
5
5
5
5
5
5
5
5
5
5
5
5
5
5
5
5
5
5
5
5
5
5
5
5
5
5
5
5
5
5
5
5
5
5
5
5
5
5
5
5
5
5
5
5
5
5
5
5
5
5
5
5
5
5
5
5
5
5
5
5
5
5
5
5
5
5
5
5
5
5
5
5
5
5
5
5
5
5
5
5
5
5
5
5
5
5
5
5
5
5
5
5
5
5
5
5
5
5
5
5
5
5
5
5
5
5
5
5
5
5
5
5
5
5
5
5
5
5
5
5
5
5
5
5
5
5
5
5
5
5
5
5
5
5
5
5
5
5
5
5
5
5
5
5
5
5
5
5
5
5
5
5
5
5
5
5
5
5
5
5
5
5
5
5
5
5
5
5
5
5
5
5
5
5
5
5
5
5
5
5
5
5
5
5
5
5
5
5
5
10
10
10
10
10
10
10
10
10
10
10
10
10
10
10
10
10
10
10
10
10
10
10
10
10
10
10
10
10
10
10
10
10
10
10
10
10
10
10
10
10
10
10
10
10
10
10
10
10
10
10
10
10
10
10
10
10
10
10
10
10
10
10
10
10
10
10
10
10
10
10
10
10
10
10
10
10
10
10
10
10
10
10
10
10
10
10
10
10
10
10
10
10
10
10
10
10
10
10
10
10
10
10
10
10
10
10
10
10
10
10
10
10
10
10
10
10
10
10
10
10
10
10
10
10
10
10
10
10
10
10
10
10
10
10
10
10
10
10
10
10
10
10
10
10
10
10
10
10
10
10
10
10
10
10
10
10
10
10
10
10
10
10
10
10
10
10
10
10
10
10
10
10
10
10
10
10
10
10
10
10
10
10
10
10
10
10
10
10
10
10
10
10
10
10
10
10
10
10
10
10
10
10
10
10
10
10
10
10
10
10
10
10
10
10
10
10
10
10
10
10
10
10
10
10
10
10
10
10
10
10
10
10
10
10
10
10
10
10
10
10
10
10
10
10
10
10
10
10
10
10
10
10
10
10
10
10
10
10
10
10
10
10
10
10
10
10
10
10
10
10
10
10
10
10
10
10
10
10
10
10
10
10
10
10
10
10
10
10
10
10
10
10
10
10
10
10
10
10
10
10
10
10
10
10
10
10
10
10
10
10
10
10
10
10
10
10
10
10
10
10
10
10
10
10
10
10
10
10
10
10
10
10
10
10
10
10
10
10
10
10
10
10
10
10
10
10
10
10
10
10
10
10
10
10
10
10
10
10
10
10
10
10
10
10
10
10
10
10
10
10
10
10
10
10
10
10
10
10
10
10
10
10
10
10
10
10
10
10
10
10
10
10
10
10
10
10
10
10
10
10
10
10
10
10
10
10
10
10
10
10
10
10
10
10
10
10
10
10
10
10
10
10
10
10
10
10
10
10
10
10
10
10
10
10
10
10
10
10
10
10
10
10
10
10
10
10
10
10
10
10
10
10
10
10
10
10
10
10
10
10
10
10
10
10
10
10
10
10
10
10
10
10
10
10
10
10
10
10
10
10
10
10
10
10
10
10
10
10
10
10
10
10
10
10
10
10
10
10
10
10
10
10
10
10
10
10
10
10
10
10
10
10
10
10
10
10
10
10
10
10
10
10
10
10
10
10
10
10
10
10
10
10
10
10
10
10
10
10
10
10
10
10
10
10
10
10
10
10
10
10
10
10
10
10
10
10
10
10
10
10
10
10
10
10
10
10
10
10
10
10
10
10
10
10
10
10
10
10
10
10
10
10
10
10
10
10
10
10
10
10
10
10
10
10
10
10
10
10
10
10
10
10
10
10
10
10
10
10
10
10
10
10
10
10
10
10
10
10
10
10
10
10
10
10
10
10
10
10
10
10
10
10
10
10
10
10
10
10
10
10
10
10
10
10
10
10
10
10
10
10
10
10
10
10
10
10
10
10
10
10
10
10
10
10
10
10
10
10
10
10
10
10
10
10
10
10
10
10
10
10
10
10
10
10
10
10
10
10
10
10
10
10
10
10
10
10
10
10
10
10
10
10
10
10
10
10
10
10
10
10
10
10
10
10
10
10
10
10
10
10
10
10
10
10
10
10
10
10
10
10
10
10
10
10
10
10
10
10
10
10
10
10
10
10
10
10
10
10
10
10
10
10
10
10
10
10
10
10
10
10
10
10
10
10
10
10
10
10
10
10
10
10
10
10
10
10
10
10
10
10
10
10
10
10
10
10
10
10
10
10
10
10
10
10
10
10
10
10
10
10
10
10
10
10
10
10
10
10
10
10
10
10
10
10
10
10
10
10
10
10
10
10
10
10
10
10
10
10
10
10
10
10
10
10
10
10
10
10
10
10
10
10
10
10
10
10
10
10
10
10
10
10
10
10
10
10
10
10
10
10
10
10
10
10
10
10
10
10
10
10
10
10
10
10
10
10
10
10
10
10
10
10
10
10
10
10
10
10
10
10
10
10
10
10
10
10
10
10
10
10
10
10
10
10
10
10
10
10
10
10
10
10
10
10
10
10
10
10
10
10
10
10
10
10
10
10
10
10
10
10
10
10
10
10
10
10
10
10
10
10
10
10
10
10
10
10
10
10
10
10
10
10
10
10
10
10
10
10
10
10
10
10
10
10
10
10
10
10
10
10
10
10
10
10
10
10
10
10
10
10
10
10
10
10
10
10
10
10
10
10
10
10
10
10
10
10
10
10
10
10
10
10
10
10
10
10
10
10
10
10
10
10
10
10
10
10
10
10
10
10
10
10
10
10
10
10
10
10
10
10
10
10
10
10
10
10
10
10
10
10
10
10
10
10
10
10
10
10
10
10
10
10
10
10
10
10
10
10
10
10
10
10
10
10
10
10
10
10
10
10
10
10
10
10
10
10
10
10
10
10
10
10
10
10
10
10
10
10
10
10
10
10
10
10
10
10
10
10
10
10
10
10
10
10
10
10
10
10
10
10
10
10
10
10
10
10
10
10
10
10
10
10
10
10
10
10
10
10
10
10
10
10
10
10
10
10
10
10
10
10
10
10
10
10
10
10
10
10
10
10
10
10
10
10
10
10
10
10
10
10
10
10
10
10
10
10
10
10
10
10
10
10
10
10
10
10
10
10
10
10
10
10
10
10
10
10
10
10
10
10
10
10
10
10
10
10
10
10
10
10
10
10
10
10
10
10
10
10
10
10
10
10
10
10
10
10
10
10
10
10
10
10
10
10
10
10
10
10
10
10
10
10
10
10
10
10
10
10
10
10
10
10
10
10
10
10
10
10
10
10
10
10
10
10
10
10
10
10
10
10
10
10
10
10
10
10
10
10
10
10
10
10
10
10
10
10
10
10
10
10
10
10
10
10
10
10
10
10
10
10
10
10
10
10
10
10
10
10
10
10
10
10
10
10
10
10
10
10
10
10
10
10
10
10
10
10
10
10
10
10
10
10
10
10
10
10
10
10
10
10
10
10
10
10
10
10
10
10
10
10
10
10
10
10
10
10
10
10
10
10
10
10
10
10
10
10
10
10
10
10
10
10
10
10
10
10
10
10
10
10
10
10
10
10
10
10
10
10
10
10
10
10
10
10
10
10
10
10
10
10
10
10
10
10
10
10
10
10
10
10
10
10
10
10
10
10
10
10
10
10
10
10
10
10
10
10
10
10
10
10
10
10
10
10
10
10
10
10
10
10
10
10
10
10
10
10
10
10
10
10
10
10
10
10
10
10
10
10
10
10
10
10
10
10
10
10
10
10
10
10
10
10
10
10
10
10
10
10
10
10
10
10
10
10
10
10
10
10
10
10
10
10
10
10
10
10
10
10
10
10
10
10
10
10
10
10
10
10
10
10
10
10
10
10
10
10
10
10
10
10
10
10
10
10
10
10
10
10
10
10
10
10
10
10
10
10
10
10
10
10
10
10
10
10
10
10
10
10
10
10
10
10
10
10
10
10
10
10
10
10
10
10
10
10
10
10
10
10
10
10
10
10
10
10
10
10
10
10
10
10
10
10
10
10
10
10
10
10
10
10
10
10
10
10
10
10
10
10
10
10
10
10
10
10
10
10
10
10
10
10
10
10
10
10
10
10
10
10
10
10
10
10
10
10
10
10
10
10
10
10
10
10
10
10
10
10
10
10
10
10
10
10
10
10
10
10
10
10
10
10
10
10
10
10
10
10
10
10
10
10
10
