# vtk DataFile Version 2.0
, Created by Gmsh 4.11.1 
ASCII
DATASET UNSTRUCTURED_GRID
POINTS 505 double
8.75 0 -44.12508810324306
9.515238534915245 0 -41.4786298665089
9.515238534915245 0 -38.5213701334911
8.75 0 -35.87491189675695
8.75 0 -3
11.75 0 -3
11.75 0 0
-11.75 0 0
-11.75 0 -3
-8.75 0 -3
-8.75 1.071565949253934e-15 -35.87491189675695
-9.515238534915245 1.16528064149075e-15 -38.5213701334911
-9.515238534915245 1.16528064149075e-15 -41.4786298665089
-8.75 1.071565949253934e-15 -44.12508810324306
-8.75 1.071565949253934e-15 -75.87491189675694
-9.515238534915245 1.16528064149075e-15 -78.5213701334911
-9.515238534915245 1.16528064149075e-15 -81.4786298665089
-8.75 1.071565949253934e-15 -84.12508810324306
-8.75 0 -120
8.75 0 -120
8.75 0 -84.12508810324306
9.515238534915245 0 -81.4786298665089
9.515238534915245 0 -78.5213701334911
8.75 0 -75.87491189675694
8.750000000000002 3.738617976784467 -41.4786298665089
8.750000000000002 3.738617976784467 -38.5213701334911
8.750000000000002 3.738617976784467 -78.5213701334911
8.750000000000002 3.738617976784467 -81.47862986650891
8.75 6.264393278266917 -120
8.75 20 -117.5334376490225
8.75 20 -82.46656235097754
8.75 6.264393278266918 -80
8.75 20 -77.53343764902246
8.75 20 -42.46656235097753
8.75 6.264393278266918 -40
8.75 20 -37.53343764902247
8.75 20 -3
11.75 23 -3
-11.75 23 -3
-8.75 20 -3
11.75 23 0
-11.75 23 0
-8.749999999999998 3.738617976784476 -41.4786298665089
-8.749999999999998 3.738617976784476 -78.5213701334911
-8.749999999999998 3.738617976784476 -81.47862986650891
-8.75 6.264393278266917 -120
-8.75 20 -117.5334376490225
-8.75 20 -82.46656235097754
-8.75 6.264393278266918 -80
-8.75 20 -77.53343764902246
-8.75 20 -42.46656235097753
-8.75 6.264393278266918 -40
-8.75 20 -37.53343764902247
-8.749999999999998 3.738617976784476 -38.5213701334911
7.162202261283904 6.264393278266917 -80
-7.162202261283905 6.264393278266917 -80
7.162202261283904 6.264393278266917 -40
-7.162202261283905 6.264393278266917 -40
4.159139144160132 3.730649549365107 -84.12508810324306
-4.159139144160132 3.730649549365107 -84.12508810324306
5.141500276257293 3.730649549365107 -81.4786298665089
-5.141500276257293 3.730649549365107 -81.4786298665089
5.141500276257293 3.730649549365107 -78.5213701334911
4.159139144160132 3.730649549365107 -75.87491189675694
-4.159139144160132 3.730649549365107 -75.87491189675694
-5.141500276257293 3.730649549365107 -78.5213701334911
4.159139144160132 3.730649549365107 -44.12508810324306
-4.159139144160132 3.730649549365107 -44.12508810324306
5.141500276257293 3.730649549365107 -41.4786298665089
-5.141500276257293 3.730649549365107 -41.4786298665089
5.141500276257293 3.730649549365107 -38.5213701334911
4.159139144160132 3.730649549365107 -35.87491189675694
-4.159139144160132 3.730649549365107 -35.87491189675694
-5.141500276257293 3.730649549365107 -38.5213701334911
8.75 0 -29.29992951740556
8.75 0 -22.72494713805416
8.75 0 -16.14996475870276
8.75 0 -9.574982379351365
5.875000000000016 0 0
3.730349362740526e-14 0 0
-5.874999999999972 0 0
-8.75 0 -9.574982379351393
-8.75 0 -16.14996475870279
-8.75 0 -22.72494713805418
-8.75 0 -29.29992951740558
-8.75 0 -50.47505286194583
-8.75 0 -56.82501762064862
-8.75 0 -63.17498237935138
-8.75 0 -69.52494713805413
-8.75 0 -90.10424008603587
-8.75 0 -96.08339206882869
-8.75 0 -102.0625440516215
-8.75 0 -108.0416960344143
-8.75 0 -114.0208480172071
2.916666666666666 0 -120
-2.916666666666668 0 -120
8.75 0 -90.10424008603587
8.75 0 -96.08339206882869
8.75 0 -102.0625440516215
8.75 0 -108.0416960344143
8.75 0 -114.0208480172071
8.75 0 -50.47505286194583
8.75 0 -56.82501762064862
8.75 0 -63.17498237935138
8.75 0 -69.52494713805413
8.750000000000002 2.145316185306506 -43.22883943427867
8.750000000000002 3.738617976784467 -40
8.750000000000002 2.145316185306504 -36.77116056572133
8.750000000000002 2.145316185306504 -76.77116056572133
8.750000000000002 2.145316185306506 -83.22883943427867
8.75 13.13219663913346 -118.7667188245112
8.75 20 -110.5200625894135
8.75 20 -103.5066875298045
8.75 20 -96.49331247019549
8.75 20 -89.47993741058653
8.75 13.13219663913346 -81.23328117548877
8.75 13.13219663913346 -78.76671882451123
8.75 20 -70.52006258941347
8.75 20 -63.50668752980447
8.75 20 -56.4933124701955
8.75 20 -49.47993741058653
8.75 13.13219663913346 -41.23328117548876
8.75 13.13219663913346 -38.76671882451123
8.75 20 -30.62675011921797
8.75 20 -23.72006258941347
8.75 20 -16.81337505960898
8.75 20 -9.906687529804476
8.75 13.33333333333335 -3
8.75 6.666666666666705 -3
-5.875000000000016 23 -3
-3.730349362740526e-14 23 -3
5.874999999999972 23 -3
11.75 5.749999999999988 -3
11.75 11.49999999999999 -3
11.75 17.24999999999999 -3
-2.916666666666666 20 -3
2.916666666666668 20 -3
-8.75 13.33333333333335 -3
-8.75 6.666666666666705 -3
-11.75 5.749999999999988 -3
-11.75 11.49999999999999 -3
-11.75 17.24999999999999 -3
11.75 5.749999999999988 0
11.75 11.49999999999999 0
11.75 17.24999999999999 0
-5.875000000000016 23 0
-3.730349362740526e-14 23 0
5.874999999999972 23 0
-11.75 5.749999999999988 0
-11.75 11.49999999999999 0
-11.75 17.24999999999999 0
-8.749999999999998 2.145316185306511 -43.22883943427867
-8.749999999999998 2.14531618530651 -76.77116056572133
-8.749999999999998 3.738617976784476 -80
-8.749999999999998 2.145316185306511 -83.22883943427867
-8.75 13.13219663913346 -118.7667188245112
-8.75 20 -110.5200625894135
-8.75 20 -103.5066875298045
-8.75 20 -96.49331247019549
-8.75 20 -89.47993741058653
-8.75 13.13219663913346 -81.23328117548877
-8.75 13.13219663913346 -78.76671882451123
-8.75 20 -70.52006258941347
-8.75 20 -63.50668752980447
-8.75 20 -56.4933124701955
-8.75 20 -49.47993741058653
-8.75 13.13219663913346 -41.23328117548876
-8.75 13.13219663913346 -38.76671882451123
-8.75 20 -9.906687529804501
-8.75 20 -16.813375059609
-8.75 20 -23.72006258941349
-8.75 20 -30.62675011921799
-8.749999999999998 2.14531618530651 -36.77116056572133
-8.749999999999998 3.738617976784476 -40
2.916666666666666 6.264393278266917 -120
-2.916666666666668 6.264393278266917 -120
2.916666666666666 20 -117.5334376490225
-2.916666666666668 20 -117.5334376490225
2.916666666666666 20 -82.46656235097754
-2.916666666666668 20 -82.46656235097754
2.674265916886327 9.131706641264607 -80.51489587121294
-2.674265916886338 9.131706641264605 -80.51489587121294
2.916666666666666 20 -77.53343764902246
-2.916666666666668 20 -77.53343764902246
-2.674265916886328 9.131706641264607 -79.48510412878707
2.67426591688634 9.131706641264605 -79.48510412878707
2.916666666666666 20 -42.46656235097753
-2.916666666666668 20 -42.46656235097753
2.674265916886327 9.131706641264607 -40.51489587121292
-2.674265916886338 9.131706641264605 -40.51489587121292
2.916666666666666 20 -37.53343764902247
-2.916666666666668 20 -37.53343764902247
-2.674265916886328 9.131706641264607 -39.48510412878708
2.67426591688634 9.131706641264605 -39.48510412878708
-4.620267301676803e-15 5.587144573094843 -84.12508810324306
-7.993605777301127e-15 3.730649549365107 -84.12508810324306
4.659274923450937 3.730649549365107 -82.80518780642927
4.620508474660741e-15 6.352383108010088 -81.47862986650891
-4.659274923450937 3.730649549365107 -82.80518780642927
4.659274923450937 3.730649549365107 -77.19481219357073
6.217248937900877e-15 3.730649549365107 -75.87491189675694
-4.659274923450937 3.730649549365107 -77.19481219357073
4.620508474660741e-15 6.352383108010088 -78.5213701334911
-4.620267301676803e-15 5.587144573094843 -75.87491189675694
-4.620267301676803e-15 5.587144573094843 -44.12508810324306
-7.993605777301127e-15 3.730649549365107 -44.12508810324306
4.659274923450937 3.730649549365107 -42.80518780642927
4.620508474660741e-15 6.352383108010088 -41.4786298665089
-4.659274923450937 3.730649549365107 -42.80518780642927
4.659274923450937 3.730649549365107 -37.19481219357073
6.217248937900877e-15 3.730649549365107 -35.87491189675694
-4.659274923450937 3.730649549365107 -37.19481219357073
4.620508474660741e-15 6.352383108010088 -38.5213701334911
-4.620267301676803e-15 5.587144573094843 -35.87491189675695
-6.711363077905001 0 -39.94837106392979
7.1294475946665 0 -80
4.52403936257759 0 -87.07718112882378
4.284617906415944 0 -47.34169288796333
4.648325492898758 0 -72.50161926687738
-4.32067855737452 0 -33.01564696365907
-7.129447594666499 0 -80.00000000000001
6.56506612862662 0 -37.84458184048491
-8.881784197001252e-16 0 -115.4009440706878
4.289006045867011 0 -104.9993714189908
3.740107281804962 0 -58.87061925042006
-2.82958575952422 0 -4.134604754803618
-3.055898230046643 0 -19.43745594837849
-4.520338129991067 0 -87.07578725403144
-4.625576904370607 0 -72.69992951740554
-4.625576904370605 0 -47.30007048259445
-3.739631259486329 0 -97.95636254735356
3.055898230046652 0 -12.86247356902706
3.05589823004664 0 -26.01243832772986
3.675408823664226 0 -5.70500528035177
4.78550454454467 0 -32.66501542641825
0.2209590452565218 0 -81.71980026765144
8.881784197001252e-15 0 -92.63707810313151
0.01563479070691809 0 -42.63905857471177
0.00643738190783516 0 -53.28749795811393
-3.537309216469112 0 -66.90072147997384
-2.711519862536943 0 -59.86554838407254
3.250769205827485 0 -66.34996475870275
2.816146610707357 0 -98.57771738547461
-2.019211228987421 0 -104.8143193556395
-3.63677975956242 0 -26.76767832279981
-4.012157342089767 0 -12.1740639263848
4.11117964600933 0 -19.43745594837847
5.538433120799481 0 -41.76257950451075
-3.833809653477167 0 -111.1543248443613
3.453498295247143 0 -110.8073267239299
-5.151993877895479 0 -92.77137201187622
4.968037194656991 0 -92.8959217544589
-4.966131876999943 0 -53.55063746147508
5.106232514025749 0 -53.35997611581836
-0.730327629688138 0 -8.47727695341581
-2.657452595897482 0 -77.45442162756861
1.592062908594771 0 -36.84257893456052
0.2108581951784441 0 -30.79066600833012
-0.009113419518425481 0 -71.39605700393913
4.697279181912104 0 -115.9512658009948
-4.751609375944965 0 -116.0008369610564
2.95665888192192 0 -76.75101156042194
-5.014414146260424 0 -7.472185602791122
9.300118239139879 2.011856136594703 -40
8.750000000000002 5.344194470177065 -83.92764748929186
8.750000000000002 5.394570059344205 -76.03179627479017
8.750000000000002 6.799505863357137 -36.55057488424375
8.750000000000002 6.608781411221718 -43.70108792945184
8.750000000000002 4.301323791723854 -92.83453799506933
8.750000000000002 4.755486287014109 -105.3800875885539
8.750000000000002 5.413962923603906 -60.00139362827014
8.750000000000002 6.384887056329575 -13.06300444503643
8.750000000000002 5.236949804662581 -26.72667255565095
8.750000000000002 14.28727961223807 -53.1000330102921
8.750000000000002 14.49855256634941 -67.03217312808657
8.750000000000002 14.21626863617328 -20.24430924821864
8.750000000000002 14.11238277992016 -99.99974189032596
8.750000000000002 8.598497699668236 -114.5127564487301
8.750000000000002 10.0357780068062 -31.37171778261151
8.750000000000002 4.036885497913401 -47.36742992041894
8.750000000000002 4.03625831002207 -32.76582786706501
8.750000000000002 2.508826039583166 -87.11466409463947
8.750000000000002 14.74408255662489 -60.08444283607174
8.750000000000002 14.46272920754911 -92.94107005639405
8.750000000000002 14.63436264648115 -106.5159208771236
8.750000000000002 13.70826140177615 -13.2885725969319
8.750000000000002 5.435457287041867 -19.73587633112979
8.750000000000002 4.797001959036614 -53.48376535682691
8.750000000000002 4.407685661016675 -66.79659010156152
8.750000000000002 4.841568225224186 -99.39327133778076
8.750000000000002 2.512943726660898 -72.87547955517584
8.750000000000002 14.82935540812285 -27.12293794209038
8.750000000000002 10.00490892550848 -8.228629436016313
8.750000000000002 8.556592596666242 -71.6951808839702
8.750000000000002 15.40691822841622 -47.1293236407037
8.750000000000002 14.31428978929193 -73.44948140590709
8.750000000000002 14.27453274087224 -86.51953789399261
8.750000000000002 14.49443212605106 -112.9290153708636
8.750000000000002 8.36107735943615 -88.47524594350966
8.750000000000002 4.451510106914834 -111.039491339503
8.750000000000002 9.149556592380202 -76.32758651038252
8.750000000000002 9.475278897577166 -84.03114250045658
8.750000000000002 15.66682818292618 -33.36882144081343
8.750000000000002 9.712158827136044 -48.98311641238381
8.750000000000002 9.511451293527877 -96.27780607190056
8.750000000000002 4.822400336264683 -7.797322361855166
8.750000000000002 15.27475039671092 -7.730475741143891
8.750000000000002 9.556154124375658 -63.7461124052441
8.750000000000002 9.741566221880708 -56.65231058303564
8.750000000000002 9.508706329173522 -108.9805042461983
8.750000000000002 10.09789262989992 -17.24474461293264
8.750000000000002 9.719885169372521 -102.9715644354382
8.750000000000002 4.236793460905763 -115.7671610692989
8.750000000000002 10.21108595737066 -23.65350294832866
10.25 3.104166666666673 -3
-10.25 3.104166666666674 -3
11.75 20.125 -1.5
11.75 14.37499999999999 -1.5
11.75 8.624999999999988 -1.5
11.75 2.874999999999994 -1.5
3.157610638484556 18.22886740495932 0
-2.707174061168086 4.878797530676509 0
7.069955745470661 8.71654637064 0
-6.619519168154191 14.39111856499582 0
7.10287302211511 14.37499999999999 0
0.1126091443291184 11.52691623390895 0
-7.000954855602266 8.644857627020135 0
-2.792058517349997 18.15992185565015 0
2.948495529093417 4.721447277005962 0
-7.528051718759411 18.81262893003678 0
7.528051718759418 4.187371069963204 0
7.820492259183634 19.07601590637069 0
-7.553981076842906 4.160878030182232 0
-11.75 20.125 -1.5
-11.75 14.37499999999999 -1.5
-11.75 8.624999999999988 -1.5
-11.75 2.874999999999994 -1.5
-8.749999999999998 5.453991073791782 -83.82535058428728
-8.749999999999998 6.608781411221723 -76.29891207054816
-8.749999999999998 8.772673838805368 -34.47967011710643
-8.749999999999998 6.608781411221722 -43.70108792945184
-8.749999999999998 4.403310341702909 -92.77573312876083
-8.749999999999998 4.755486287014109 -105.3800875885539
-8.749999999999998 5.499230794172511 -60
-8.749999999999998 6.384887056329573 -13.06300444503646
-8.749999999999998 14.56201231255797 -20.52166354020908
-8.749999999999998 14.28727961223807 -53.1000330102921
-8.749999999999998 14.28696257098828 -66.90083670783736
-8.749999999999998 5.756346893963061 -27.27893723799173
-8.749999999999998 14.11238277992016 -99.99974189032596
-8.749999999999998 8.598497699668236 -114.5127564487301
-8.749999999999998 4.036885497913405 -72.63257007958106
-8.749999999999998 4.036885497913402 -47.36742992041894
-8.749999999999998 3.472373056412809 -33.37368819909999
-8.749999999999998 13.31862794289035 -27.9479671286993
-8.749999999999998 2.508826039583173 -87.11466409463947
-8.749999999999998 14.66710177701909 -60.00017771810419
-8.749999999999998 14.58162146934476 -92.91154674189004
-8.749999999999998 14.63436264648115 -106.5159208771236
-8.749999999999998 13.75765335554539 -13.32819463864483
-8.749999999999998 4.878674867115216 -36.62917780308377
-8.749999999999998 5.450527562856396 -19.99359572006477
-8.749999999999998 4.810591869948471 -66.51649967963407
-8.749999999999998 4.811213270798049 -53.48353308544856
-8.749999999999998 4.858565983554028 -99.38347052672935
-8.749999999999998 8.808729108923432 -88.12724057590718
-8.749999999999998 10.00000000000003 -8.307899312651564
-8.749999999999998 15.40691822841622 -47.12932364070369
-8.749999999999998 15.40685482016626 -72.87085030292221
-8.749999999999998 14.49443212605106 -112.9290153708636
-8.749999999999998 14.39019403918345 -86.53379601122111
-8.749999999999998 4.451510106914834 -111.039491339503
-8.749999999999998 15.1268569612316 -33.71599780406784
-8.749999999999998 9.714189014530534 -48.98308323075833
-8.749999999999998 9.713513263752423 -71.01709862886077
-8.749999999999998 9.480426465392837 -96.11724778600484
-8.749999999999998 9.609900827859807 -83.94393366938087
-8.749999999999998 4.822400336264677 -7.79732236185518
-8.749999999999998 15.31014964989996 -7.686254856566634
-8.749999999999998 9.749640606422814 -56.65420394368877
-8.749999999999998 9.750850705341911 -63.32794561591795
-8.749999999999998 9.508706329173522 -108.9805042461983
-8.749999999999998 10.13484627191411 -17.5042861541911
-8.749999999999998 9.558321748589302 -102.7294954858227
-8.749999999999998 10.2575050627892 -23.59761605668082
-8.749999999999998 4.236793460905763 -115.7671610692989
-9.300118239139879 2.011856136594705 -40
-9.300118239139879 2.011856136594705 -80
5.52964042759961 3.132196639133459 -120
-3.552713678800501e-15 3.132196639133459 -120
-5.529640427599613 3.132196639133459 -120
9.321966036111816 1.908065407137236 -80.00773449301501
-1.77635683940025e-15 11.23667381632929 -119.1071060622115
0 16.87377409109255 -118.094827566758
4.375 15.15682325087591 -118.4031478606302
-5.833333333333332 9.698294958700188 -119.3833594122556
4.958333333333332 10.4108960525745 -119.2553945494706
-4.375 15.15682325087591 -118.4031478606302
-0.08416427541889604 20 -87.21417144268464
-0.08416427541889959 20 -112.7858285573153
3.009189568666388 20 -99.99999999999999
2.750378817099413 20 -106.8361005507657
2.750378817099416 20 -93.16389944923425
-4.040349434276807 20 -92.05409510891383
-4.040349434276809 20 -107.9459048910862
-3.574977814008037 20 -99.99999999999999
-4.908236075272477 20 -86.736265732828
4.616576241669438 20 -86.95822660089209
4.616576241669436 20 -113.0417733991079
-4.908236075272477 20 -113.263734267172
-3.552713678800501e-15 13.99770610830005 -81.3887044570598
-6.458583610987088 10.03369694888273 -80.67687017484506
6.458583610987079 10.03369694888274 -80.67687017484506
4.722272016792711 14.91918498488882 -81.55417840737455
-4.722272016792715 14.91918498488882 -81.55417840737455
7.105427357601002e-15 13.99770610830005 -78.6112955429402
-6.458583610987079 10.03369694888274 -79.32312982515495
6.458583610987086 10.03369694888273 -79.32312982515495
-4.722272016792708 14.91918498488882 -78.44582159262546
4.722272016792717 14.91918498488883 -78.44582159262546
0.08416427541889959 20 -47.21417144268465
0.08416427541890137 20 -72.78582855731534
-3.009189568666388 20 -59.99999999999999
-2.750378817099413 20 -66.83610055076574
-2.750378817099412 20 -53.16389944923424
4.04034943427681 20 -67.94590489108616
4.040349434276811 20 -52.05409510891383
3.574977814008035 20 -59.99999999999999
-4.616576241669435 20 -46.95822660089209
4.908236075272475 20 -46.73626573282802
-4.616576241669435 20 -73.0417733991079
4.908236075272475 20 -73.26373426717198
-7.105427357601002e-15 13.99770610830004 -41.3887044570598
-6.458583610987086 10.03369694888273 -40.67687017484506
6.458583610987077 10.03369694888274 -40.67687017484506
4.72227201679271 14.91918498488882 -41.55417840737454
-4.722272016792715 14.91918498488882 -41.55417840737454
7.105427357601002e-15 13.99770610830005 -38.6112955429402
-6.458583610987079 10.03369694888274 -39.32312982515494
6.458583610987086 10.03369694888273 -39.32312982515494
-4.722272016792708 14.91918498488882 -38.44582159262546
4.722272016792717 14.91918498488883 -38.44582159262546
0.05355958773221658 20 -32.83937210622883
0.05355958773221481 20 -7.694065542793638
-2.768633143188119 20 -20.26671882451124
-3.785094414511189 20 -12.43376280419353
-3.785094414511185 20 -28.09967484482895
3.33784040172211 20 -27.06505154548191
3.337840401722099 20 -13.46838610354056
4.281409532051218 20 -20.26671882451123
4.761613331224199 20 -33.11960981379473
-4.829640298689128 20 -7.206903175358338
4.761613331224197 20 -7.413827835227732
-4.829640298689128 20 -33.32653447366414
8.812499999999986 23 -1.5
2.937499999999966 23 -1.5
-8.812500000000007 23 -1.5
-2.937500000000027 23 -1.499999999999999
3.181443851229619 5.001240975244317 -82.9483894568049
-2.957406495013519 5.125721415612166 -82.98188446892748
-3.543432665560401 3.730649549365107 -80.0075506427238
3.543432665560399 3.730649549365107 -79.99244935727621
1.677439499170648 3.730649549365107 -82.33419751657171
-1.692393464516538 3.730649549365107 -77.6565728582738
-2.73992738196184 3.730649549365107 -82.60792212505723
2.738147147992089 3.730649549365107 -77.39097911004345
-2.885676348071585 5.659120352591217 -79.87696632384485
2.932842739524204 5.634820726176837 -80
3.181443851229622 5.001240975244315 -77.05161054319511
-2.957406495013513 5.125721415612166 -77.01811553107252
3.181443851229626 5.001240975244315 -42.94838945680489
-2.957406495013522 5.125721415612166 -42.98188446892748
3.898069233984289 3.730649549365107 -39.87202835117023
-3.046941469766944 3.730649549365107 -39.82083969163832
3.080818617993236 3.730649549365107 -42.59312349441279
2.012386755592193 3.730649549365107 -37.91711845356617
-3.401371162727063 3.730649549365107 -42.47096671421252
-2.885676348071583 5.659120352591219 -39.87696632384486
2.885676348071589 5.659120352591215 -39.87696632384486
3.181443851229622 5.001240975244315 -37.05161054319511
-2.957406495013516 5.125721415612166 -37.01811553107252
-0.002453506593247921 8.044318384266024 -39.99952760846623
-0.01351346962857462 9.457425034951209 -27.21180450753036
0.01334211641402483 8.858740283516422 -11.1429077976495
-0.35321171507203 8.714487143753061 -67.14366042081701
0 11.39377555909493 -110.0893045971983
-0.0005080705500208893 9.542844145093303 -52.82193315425982
-0.02535076415343163 10.63245500836672 -92.28887065115198
0.01589586093145279 10.36518164763793 -101.2167589096795
0.62638338138769 11.91590874526806 -19.07565382288842
3.404781498017765 9.766251045088097 -86.21468325730854
-1.20205634906332 12.29823326209703 -60.14087429863142
-3.578115647318082 8.016116747350347 -32.088955670738
2.874182036391792 5.939030467136421 -113.4757608331347
-2.334210239521044 5.229373121823499 -89.97990681164218
2.466528001125752 11.12548376224213 -46.85419086092536
-3.256306773617529 9.959292310913577 -46.29423188934695
3.607387551108619 8.081695119133297 -32.39875344157455
-3.534975035295849 7.919468059435068 -72.16154849756074
2.392639497284275 11.21780306083598 -72.86205611241346
-3.266662463841473 9.973091926841111 -86.31545166371359
-2.228502180650942 13.92734376870886 -5.851311579579505
-2.282470119064493 5.113458800716371 -49.58844122431254
2.079569572080069 4.658897061229988 -71.30434558585713
2.218803178045998 6.332504678215714 -106.1841232021025

CELLS 2786 12256
1 0
1 1
1 2
1 3
1 4
1 5
1 6
1 7
1 8
1 9
1 10
1 11
1 12
1 13
1 14
1 15
1 16
1 17
1 18
1 19
1 20
1 21
1 22
1 23
1 24
1 25
1 26
1 27
1 28
1 29
1 30
1 31
1 32
1 33
1 34
1 35
1 36
1 37
1 38
1 39
1 40
1 41
1 42
1 43
1 44
1 45
1 46
1 47
1 48
1 49
1 50
1 51
1 52
1 53
1 54
1 55
1 56
1 57
1 58
1 59
1 60
1 61
1 62
1 63
1 64
1 65
1 66
1 67
1 68
1 69
1 70
1 71
1 72
1 73
2 0 1
2 1 2
2 2 3
2 3 74
2 74 75
2 75 76
2 76 77
2 77 4
2 4 5
2 5 6
2 6 78
2 78 79
2 79 80
2 80 7
2 8 7
2 8 9
2 9 81
2 81 82
2 82 83
2 83 84
2 84 10
2 11 10
2 12 11
2 13 12
2 13 85
2 85 86
2 86 87
2 87 88
2 88 14
2 15 14
2 16 15
2 17 16
2 17 89
2 89 90
2 90 91
2 91 92
2 92 93
2 93 18
2 19 94
2 94 95
2 95 18
2 20 96
2 96 97
2 97 98
2 98 99
2 99 100
2 100 19
2 20 21
2 21 22
2 22 23
2 0 101
2 101 102
2 102 103
2 103 104
2 104 23
2 1 24
2 24 105
2 105 0
2 24 106
2 106 25
2 2 25
2 3 107
2 107 25
2 23 108
2 108 26
2 26 27
2 27 109
2 109 20
2 19 28
2 28 110
2 110 29
2 29 111
2 111 112
2 112 113
2 113 114
2 114 30
2 30 115
2 115 31
2 31 116
2 116 32
2 32 117
2 117 118
2 118 119
2 119 120
2 120 33
2 33 121
2 121 34
2 34 122
2 122 35
2 35 123
2 123 124
2 124 125
2 125 126
2 126 36
2 36 127
2 127 128
2 128 4
2 38 129
2 129 130
2 130 131
2 131 37
2 5 132
2 132 133
2 133 134
2 134 37
2 39 135
2 135 136
2 136 36
2 39 137
2 137 138
2 138 9
2 8 139
2 139 140
2 140 141
2 141 38
2 6 142
2 142 143
2 143 144
2 144 40
2 37 40
2 41 145
2 145 146
2 146 147
2 147 40
2 7 148
2 148 149
2 149 150
2 150 41
2 38 41
2 42 151
2 151 13
2 14 152
2 152 43
2 44 153
2 153 43
2 44 154
2 154 17
2 18 45
2 45 155
2 155 46
2 46 156
2 156 157
2 157 158
2 158 159
2 159 47
2 47 160
2 160 48
2 48 161
2 161 49
2 49 162
2 162 163
2 163 164
2 164 165
2 165 50
2 50 166
2 166 51
2 51 167
2 167 52
2 39 168
2 168 169
2 169 170
2 170 171
2 171 52
2 10 172
2 172 53
2 42 173
2 173 53
2 53 11
2 42 12
2 43 15
2 44 16
2 28 174
2 174 175
2 175 45
2 21 27
2 22 26
2 29 176
2 176 177
2 177 46
2 30 178
2 178 179
2 179 47
2 31 54
2 54 180
2 180 181
2 181 55
2 55 48
2 32 182
2 182 183
2 183 49
2 55 184
2 184 185
2 185 54
2 33 186
2 186 187
2 187 50
2 34 56
2 56 188
2 188 189
2 189 57
2 57 51
2 35 190
2 190 191
2 191 52
2 57 192
2 192 193
2 193 56
2 58 194
2 194 59
2 59 195
2 195 58
2 58 196
2 196 60
2 60 197
2 197 61
2 61 198
2 198 59
2 60 62
2 62 199
2 199 63
2 63 200
2 200 64
2 64 201
2 201 65
2 61 65
2 62 202
2 202 65
2 63 203
2 203 64
2 66 204
2 204 67
2 67 205
2 205 66
2 66 206
2 206 68
2 68 207
2 207 69
2 69 208
2 208 67
2 68 70
2 70 209
2 209 71
2 71 210
2 210 72
2 72 211
2 211 73
2 69 73
2 70 212
2 212 73
2 71 213
2 213 72
3 1 247 0
3 0 217 101
3 0 247 217
3 2 221 1
3 221 247 1
3 3 221 2
3 74 234 3
3 3 234 221
3 6 4 5
3 6 78 4
3 4 233 77
3 78 233 4
3 8 9 7
3 7 9 80
3 9 225 80
3 81 262 9
3 9 262 225
3 11 214 10
3 10 219 84
3 214 219 10
3 12 214 11
3 13 214 12
3 85 229 13
3 13 229 214
3 15 220 14
3 14 228 88
3 220 255 14
3 14 255 228
3 16 220 15
3 17 220 16
3 89 227 17
3 17 227 220
3 18 260 93
3 95 260 18
3 19 259 94
3 100 259 19
3 21 215 20
3 20 216 96
3 215 216 20
3 22 215 21
3 23 215 22
3 104 218 23
3 23 261 215
3 218 261 23
3 75 232 74
3 232 234 74
3 76 246 75
3 75 246 232
3 77 231 76
3 231 246 76
3 77 233 231
3 79 233 78
3 80 225 79
3 225 233 79
3 82 245 81
3 245 262 81
3 83 226 82
3 226 245 82
3 84 244 83
3 83 244 226
3 219 244 84
3 86 252 85
3 85 252 229
3 87 240 86
3 240 252 86
3 88 239 87
3 239 240 87
3 228 239 88
3 90 250 89
3 89 250 227
3 91 230 90
3 230 250 90
3 92 243 91
3 91 243 230
3 93 248 92
3 92 248 243
3 93 260 248
3 94 222 95
3 94 259 222
3 222 260 95
3 96 251 97
3 216 251 96
3 97 242 98
3 97 251 242
3 98 223 99
3 98 242 223
3 99 249 100
3 223 249 99
3 249 259 100
3 101 253 102
3 217 253 101
3 102 224 103
3 102 253 224
3 103 241 104
3 224 241 103
3 104 241 218
3 214 256 219
3 229 237 214
3 237 256 214
3 215 235 216
3 215 261 235
3 216 235 227
3 227 236 216
3 236 251 216
3 217 237 229
3 229 238 217
3 217 247 237
3 238 253 217
3 241 258 218
3 258 261 218
3 219 257 244
3 256 257 219
3 227 235 220
3 235 255 220
3 234 256 221
3 221 256 247
3 222 249 248
3 248 260 222
3 222 259 249
3 242 243 223
3 243 249 223
3 238 240 224
3 224 253 238
3 240 241 224
3 225 254 233
3 225 262 254
3 231 245 226
3 226 246 231
3 226 244 232
3 232 246 226
3 227 250 236
3 228 258 239
3 255 258 228
3 229 252 238
3 230 242 236
3 236 250 230
3 230 243 242
3 233 254 231
3 231 254 245
3 232 257 234
3 244 257 232
3 234 257 256
3 235 261 255
3 242 251 236
3 247 256 237
3 238 252 240
3 239 241 240
3 239 258 241
3 248 249 243
3 254 262 245
3 255 261 258
3 0 105 1
3 1 105 24
3 1 263 2
3 24 263 1
3 2 263 25
3 106 263 24
3 25 263 106
3 2 107 3
3 2 25 107
3 101 279 0
3 0 279 105
3 3 280 74
3 107 280 3
3 77 305 4
3 4 305 128
3 28 312 19
3 19 312 100
3 96 281 20
3 20 281 109
3 23 290 104
3 108 290 23
3 106 24 34
3 24 267 34
3 105 267 24
3 106 34 25
3 34 266 25
3 25 266 107
3 27 31 26
3 31 265 26
3 26 265 108
3 27 264 31
3 109 264 27
3 110 277 28
3 277 312 28
3 29 297 110
3 111 297 29
3 30 296 114
3 115 296 30
3 31 301 115
3 116 300 31
3 264 301 31
3 31 300 265
3 32 295 116
3 117 295 32
3 33 294 120
3 121 294 33
3 34 267 121
3 122 266 34
3 35 302 122
3 123 302 35
3 36 306 126
3 127 306 36
3 74 272 75
3 74 280 272
3 75 286 76
3 272 286 75
3 76 271 77
3 76 286 271
3 271 305 77
3 97 268 96
3 268 281 96
3 98 289 97
3 97 289 268
3 99 269 98
3 269 289 98
3 100 299 99
3 99 299 269
3 100 312 299
3 102 287 101
3 101 287 279
3 103 270 102
3 270 287 102
3 104 288 103
3 103 288 270
3 104 290 288
3 105 279 267
3 266 280 107
3 265 290 108
3 109 281 264
3 110 297 277
3 112 284 111
3 284 297 111
3 113 276 112
3 276 284 112
3 114 283 113
3 113 283 276
3 114 296 283
3 115 301 296
3 295 300 116
3 118 274 117
3 274 295 117
3 119 282 118
3 118 282 274
3 120 273 119
3 273 282 119
3 120 294 273
3 267 303 121
3 121 303 294
3 122 278 266
3 122 302 278
3 124 291 123
3 291 302 123
3 125 275 124
3 275 291 124
3 126 285 125
3 125 285 275
3 126 306 285
3 128 292 127
3 292 306 127
3 128 305 292
3 281 298 264
3 298 301 264
3 265 293 290
3 265 300 293
3 278 280 266
3 279 303 267
3 268 298 281
3 289 304 268
3 268 304 298
3 269 311 289
3 299 309 269
3 309 311 269
3 270 308 287
3 288 307 270
3 307 308 270
3 285 292 271
3 271 310 285
3 286 310 271
3 292 305 271
3 272 280 278
3 278 313 272
3 272 313 286
3 273 308 282
3 294 303 273
3 303 308 273
3 282 307 274
3 293 295 274
3 274 307 293
3 285 310 275
3 275 313 291
3 310 313 275
3 283 304 276
3 276 311 284
3 304 311 276
3 297 309 277
3 277 309 299
3 299 312 277
3 278 302 291
3 291 313 278
3 287 303 279
3 282 308 307
3 296 298 283
3 298 304 283
3 284 309 297
3 284 311 309
3 285 306 292
3 286 313 310
3 287 308 303
3 290 293 288
3 293 307 288
3 289 311 304
3 293 300 295
3 296 301 298
3 5 4 314
3 4 128 314
3 132 5 314
3 9 8 315
3 8 139 315
3 138 9 315
3 36 131 37
3 134 36 37
3 134 127 36
3 36 136 131
3 129 39 38
3 39 141 38
3 129 135 39
3 141 39 137
3 133 128 127
3 134 133 127
3 133 132 128
3 128 132 314
3 135 129 130
3 136 130 131
3 136 135 130
3 138 140 137
3 140 141 137
3 138 139 140
3 139 138 315
3 5 319 6
3 132 319 5
3 6 319 142
3 40 316 37
3 37 316 134
3 144 316 40
3 133 318 132
3 132 318 142
3 142 319 132
3 134 317 133
3 133 317 143
3 143 318 133
3 134 316 144
3 144 317 134
3 142 318 143
3 143 317 144
3 6 330 78
3 142 330 6
3 80 332 7
3 7 332 148
3 40 331 144
3 147 331 40
3 41 329 145
3 150 329 41
3 78 328 79
3 78 330 328
3 79 321 80
3 79 328 321
3 321 332 80
3 143 322 142
3 322 330 142
3 144 324 143
3 143 324 322
3 144 331 324
3 145 327 146
3 145 329 327
3 146 320 147
3 146 327 320
3 320 331 147
3 148 326 149
3 148 332 326
3 149 323 150
3 149 326 323
3 323 329 150
3 320 325 324
3 324 331 320
3 320 327 325
3 325 326 321
3 321 328 325
3 326 332 321
3 324 325 322
3 325 328 322
3 328 330 322
3 323 326 325
3 325 327 323
3 327 329 323
3 8 7 336
3 7 148 336
3 139 8 336
3 41 38 333
3 38 141 333
3 150 41 333
3 140 139 335
3 139 148 335
3 148 139 336
3 141 140 334
3 140 149 334
3 149 140 335
3 141 150 333
3 150 141 334
3 148 149 335
3 149 150 334
3 81 9 377
3 9 138 377
3 10 84 353
3 172 10 353
3 85 13 352
3 13 151 352
3 14 88 351
3 152 14 351
3 89 17 355
3 17 154 355
3 45 18 385
3 18 93 385
3 137 39 378
3 39 168 378
3 173 51 42
3 42 51 340
3 151 42 340
3 153 43 48
3 48 43 338
3 43 152 338
3 44 153 48
3 44 48 337
3 154 44 337
3 155 45 350
3 350 45 385
3 46 155 369
3 156 46 369
3 47 159 370
3 160 47 370
3 48 160 376
3 161 48 338
3 337 48 376
3 49 161 368
3 162 49 368
3 50 165 367
3 166 50 367
3 173 53 51
3 51 53 360
3 51 166 340
3 167 51 339
3 339 51 360
3 52 167 372
3 171 52 372
3 53 172 360
3 82 81 344
3 344 81 377
3 83 82 361
3 82 344 361
3 84 83 348
3 348 83 361
3 84 348 353
3 86 85 363
3 85 352 363
3 87 86 343
3 343 86 363
3 88 87 362
3 87 343 362
3 351 88 362
3 90 89 341
3 341 89 355
3 91 90 364
3 90 341 364
3 92 91 342
3 342 91 364
3 93 92 371
3 92 342 371
3 93 371 385
3 138 137 366
3 366 137 378
3 138 366 377
3 151 340 352
3 338 152 351
3 154 337 355
3 155 350 369
3 157 156 358
3 358 156 369
3 158 157 349
3 349 157 358
3 159 158 357
3 158 349 357
3 159 357 370
3 160 370 376
3 161 338 374
3 368 161 374
3 163 162 347
3 347 162 368
3 164 163 356
3 163 347 356
3 165 164 346
3 346 164 356
3 165 346 367
3 340 166 373
3 166 367 373
3 167 339 372
3 168 169 359
3 168 359 378
3 169 170 345
3 169 345 359
3 170 171 354
3 345 170 354
3 354 171 372
3 172 353 360
3 355 337 365
3 365 337 376
3 338 351 374
3 348 339 353
3 339 348 354
3 353 339 360
3 339 354 372
3 352 340 373
3 341 355 365
3 364 341 375
3 341 365 375
3 342 364 383
3 371 342 381
3 381 342 383
3 362 343 380
3 343 363 379
3 343 379 380
3 359 344 366
3 344 359 382
3 361 344 382
3 366 344 377
3 345 354 384
3 359 345 382
3 382 345 384
3 346 356 379
3 367 346 373
3 373 346 379
3 356 347 380
3 347 368 374
3 347 374 380
3 354 348 384
3 348 361 384
3 357 349 375
3 349 358 383
3 375 349 383
3 369 350 381
3 350 371 381
3 371 350 385
3 351 362 374
3 363 352 373
3 379 356 380
3 357 365 370
3 365 357 375
3 358 369 381
3 358 381 383
3 359 366 378
3 361 382 384
3 374 362 380
3 363 373 379
3 364 375 383
3 370 365 376
3 172 11 10
3 53 11 172
3 11 386 12
3 53 386 11
3 12 386 42
3 42 386 173
3 173 386 53
3 151 13 12
3 42 151 12
3 152 15 14
3 43 15 152
3 15 387 16
3 43 387 15
3 16 387 44
3 153 387 43
3 44 387 153
3 154 17 16
3 44 154 16
3 45 390 18
3 18 390 95
3 19 388 28
3 94 388 19
3 28 388 174
3 175 390 45
3 95 389 94
3 94 389 388
3 95 390 389
3 174 389 175
3 388 389 174
3 389 390 175
3 21 20 109
3 21 109 27
3 21 391 22
3 27 391 21
3 22 391 26
3 26 391 27
3 22 108 23
3 22 26 108
3 28 396 110
3 174 396 28
3 110 394 29
3 29 394 176
3 155 395 45
3 45 395 175
3 46 397 155
3 177 397 46
3 110 396 394
3 155 397 395
3 175 392 174
3 392 396 174
3 175 395 392
3 176 393 177
3 176 394 393
3 393 397 177
3 393 394 392
3 392 397 393
3 394 396 392
3 395 397 392
3 29 408 111
3 176 408 29
3 114 407 30
3 30 407 178
3 156 409 46
3 46 409 177
3 47 406 159
3 179 406 47
3 111 401 112
3 111 408 401
3 112 400 113
3 112 401 400
3 113 402 114
3 400 402 113
3 402 407 114
3 157 404 156
3 404 409 156
3 158 405 157
3 157 405 404
3 159 403 158
3 403 405 158
3 159 406 403
3 177 399 176
3 399 408 176
3 177 409 399
3 178 398 179
3 178 407 398
3 398 406 179
3 402 403 398
3 398 407 402
3 403 406 398
3 399 404 401
3 401 408 399
3 399 409 404
3 401 405 400
3 400 405 402
3 404 405 401
3 402 405 403
3 30 413 115
3 178 413 30
3 31 412 54
3 115 412 31
3 160 414 47
3 47 414 179
3 55 411 48
3 48 411 160
3 54 412 180
3 181 411 55
3 115 413 412
3 411 414 160
3 179 410 178
3 410 413 178
3 179 414 410
3 180 410 181
3 180 413 410
3 412 413 180
3 410 414 181
3 181 414 411
3 54 417 31
3 31 417 116
3 116 419 32
3 32 419 182
3 48 416 55
3 161 416 48
3 49 418 161
3 183 418 49
3 185 417 54
3 55 416 184
3 417 419 116
3 161 418 416
3 182 415 183
3 182 419 415
3 415 418 183
3 184 415 185
3 184 418 415
3 416 418 184
3 415 419 185
3 185 419 417
3 32 431 117
3 182 431 32
3 120 429 33
3 33 429 186
3 162 430 49
3 49 430 183
3 50 428 165
3 187 428 50
3 117 425 118
3 117 431 425
3 118 427 119
3 425 427 118
3 119 426 120
3 119 427 426
3 426 429 120
3 163 423 162
3 423 430 162
3 164 422 163
3 422 423 163
3 165 424 164
3 164 424 422
3 165 428 424
3 183 421 182
3 421 431 182
3 183 430 421
3 186 420 187
3 186 429 420
3 420 428 187
3 420 426 424
3 424 428 420
3 420 429 426
3 423 425 421
3 421 430 423
3 425 431 421
3 422 427 423
3 424 427 422
3 423 427 425
3 426 427 424
3 33 435 121
3 186 435 33
3 34 434 56
3 121 434 34
3 166 436 50
3 50 436 187
3 57 433 51
3 51 433 166
3 56 434 188
3 189 433 57
3 121 435 434
3 433 436 166
3 187 432 186
3 432 435 186
3 187 436 432
3 188 432 189
3 188 435 432
3 434 435 188
3 432 436 189
3 189 436 433
3 56 439 34
3 34 439 122
3 122 441 35
3 35 441 190
3 51 438 57
3 167 438 51
3 52 440 167
3 191 440 52
3 193 439 56
3 57 438 192
3 439 441 122
3 167 440 438
3 190 437 191
3 190 441 437
3 437 440 191
3 192 437 193
3 192 440 437
3 438 440 192
3 437 441 193
3 193 441 439
3 35 450 123
3 190 450 35
3 126 452 36
3 36 452 136
3 135 451 39
3 39 451 168
3 171 453 52
3 52 453 191
3 123 447 124
3 123 450 447
3 124 449 125
3 447 449 124
3 125 448 126
3 125 449 448
3 448 452 126
3 136 443 135
3 443 451 135
3 136 452 443
3 168 445 169
3 168 451 445
3 169 444 170
3 169 445 444
3 170 446 171
3 444 446 170
3 446 453 171
3 191 442 190
3 442 450 190
3 191 453 442
3 446 447 442
3 442 453 446
3 447 450 442
3 443 448 445
3 445 451 443
3 443 452 448
3 445 448 444
3 444 447 446
3 444 449 447
3 448 449 444
3 37 454 40
3 131 454 37
3 41 456 38
3 38 456 129
3 40 454 147
3 145 456 41
3 129 457 130
3 129 456 145
3 145 457 129
3 130 455 131
3 146 455 130
3 130 457 146
3 147 454 131
3 131 455 147
3 146 457 145
3 147 455 146
3 54 180 185
3 184 181 55
3 185 180 181
3 185 181 184
3 56 188 193
3 192 189 57
3 193 188 189
3 193 189 192
3 194 195 58
3 195 194 59
3 194 58 458
3 58 196 458
3 59 194 459
3 198 59 459
3 196 60 458
3 60 197 458
3 197 61 459
3 61 198 459
3 197 194 458
3 194 197 459
3 195 462 58
3 58 462 196
3 59 464 195
3 198 464 59
3 60 461 62
3 196 461 60
3 65 460 61
3 61 464 198
3 460 464 61
3 62 465 199
3 461 465 62
3 199 465 63
3 63 465 200
3 200 463 64
3 64 463 201
3 201 460 65
3 195 464 462
3 196 462 461
3 200 465 463
3 201 463 460
3 460 463 462
3 462 464 460
3 462 463 461
3 463 465 461
3 60 62 467
3 197 60 467
3 65 61 466
3 61 197 466
3 62 202 467
3 202 65 466
3 197 202 466
3 202 197 467
3 62 199 468
3 202 62 468
3 199 63 468
3 63 203 468
3 64 201 469
3 203 64 469
3 201 65 469
3 65 202 469
3 203 202 468
3 202 203 469
3 200 203 63
3 203 200 64
3 204 205 66
3 205 204 67
3 204 66 470
3 66 206 470
3 67 204 471
3 208 67 471
3 206 68 470
3 68 207 470
3 207 69 471
3 69 208 471
3 207 204 470
3 204 207 471
3 205 474 66
3 66 474 206
3 67 476 205
3 208 476 67
3 68 472 70
3 206 474 68
3 68 474 472
3 73 473 69
3 69 476 208
3 473 476 69
3 70 472 209
3 209 475 71
3 71 475 210
3 210 211 72
3 211 473 73
3 473 475 205
3 205 476 473
3 205 475 474
3 472 475 209
3 210 473 211
3 210 475 473
3 474 475 472
3 68 70 478
3 207 68 478
3 73 69 477
3 69 207 477
3 70 212 478
3 212 73 477
3 207 212 477
3 212 207 478
3 70 209 479
3 212 70 479
3 209 71 479
3 71 213 479
3 72 211 480
3 213 72 480
3 211 73 480
3 73 212 480
3 213 212 479
3 212 213 480
3 210 213 71
3 213 210 72
4 291 450 302 497
4 385 350 371 493
4 385 260 175 493
4 371 381 342 504
4 382 483 361 489
4 385 175 350 493
4 450 482 442 497
4 440 442 453 492
4 372 440 453 492
4 270 484 224 491
4 225 254 262 483
4 291 482 450 497
4 382 344 361 483
4 66 495 279 502
4 286 246 483 489
4 270 224 486 491
4 286 482 246 489
4 350 485 371 493
4 292 128 325 483
4 350 175 395 485
4 446 453 442 492
4 446 372 453 492
4 175 392 395 485
4 371 485 381 504
4 441 450 442 497
4 242 251 268 487
4 383 342 381 504
4 306 452 483 501
4 441 302 450 497
4 442 437 482 492
4 271 286 246 483
4 437 442 482 497
4 225 262 377 483
4 400 276 487 488
4 58 195 194 494
4 248 371 342 504
4 271 286 483 489
4 440 437 442 492
4 377 366 138 483
4 128 292 305 483
4 230 236 487 494
4 366 138 483 501
4 384 361 482 489
4 175 485 350 493
4 437 441 442 497
4 271 310 286 489
4 260 222 175 493
4 233 254 328 483
4 230 487 242 488
4 384 482 345 489
4 248 485 371 504
4 482 492 437 497
4 325 292 483 501
4 377 138 321 483
4 328 325 128 483
4 246 482 226 489
4 383 381 488 504
4 225 377 321 483
4 242 236 251 487
4 321 483 138 501
4 246 226 483 489
4 446 442 482 492
4 371 485 248 493
4 308 270 486 491
4 236 242 230 487
4 242 304 289 488
4 127 306 292 501
4 368 418 430 499
4 66 204 495 502
4 392 485 175 493
4 230 364 341 494
4 224 484 240 491
4 226 361 483 489
4 127 292 325 501
4 350 381 371 485
4 242 268 304 487
4 354 345 384 482
4 452 306 136 501
4 368 430 423 499
4 287 270 224 486
4 242 487 304 488
4 304 242 289 268
4 485 488 381 504
4 279 486 287 502
4 450 447 442 482
4 273 486 426 491
4 224 240 486 491
4 253 287 224 486
4 306 483 292 501
4 240 343 486 491
4 291 447 450 482
4 226 482 361 489
4 307 484 270 491
4 423 347 368 498
4 486 495 420 496
4 127 136 306 501
4 368 423 498 499
4 379 363 343 486
4 425 484 274 491
4 268 487 251 494
4 363 240 343 486
4 212 192 193 481
4 379 486 343 491
4 208 67 476 237
4 400 284 276 488
4 306 452 448 483
4 368 498 418 499
4 344 226 361 483
4 358 485 404 488
4 287 486 253 502
4 281 58 298 268
4 298 268 58 490
4 423 484 347 498
4 287 308 270 486
4 345 354 446 482
4 279 495 486 502
4 397 350 395 485
4 384 382 361 489
4 240 484 343 491
4 217 66 279 502
4 364 375 341 494
4 232 246 286 482
4 484 498 423 499
4 286 313 482 489
4 248 222 260 493
4 271 246 231 483
4 398 487 407 490
4 236 251 487 494
4 322 128 328 325
4 397 395 392 485
4 240 363 252 486
4 354 372 446 492
4 418 421 430 499
4 430 421 423 499
4 328 225 254 233
4 444 345 482 489
4 400 487 405 488
4 402 400 276 487
4 8 139 336 315
4 319 5 314 132
4 445 483 359 489
4 321 325 328 483
4 361 348 384 482
4 361 244 348 482
4 194 490 58 494
4 286 313 272 482
4 241 224 270 484
4 216 58 268 490
4 308 486 273 491
4 252 486 363 502
4 349 405 487 488
4 308 273 282 491
4 321 325 483 501
4 406 403 398 500
4 204 470 66 495
4 268 490 487 494
4 382 359 483 489
4 304 487 276 488
4 248 493 485 504
4 297 396 277 485
4 232 286 272 482
4 418 415 421 499
4 313 291 482 489
4 354 446 482 492
4 277 485 396 493
4 307 288 270 484
4 58 490 216 494
4 253 224 238 486
4 343 240 362 484
4 226 244 361 482
4 230 243 364 488
4 345 446 444 482
4 349 487 375 488
4 343 484 380 491
4 349 405 357 487
4 285 292 306 483
4 245 226 344 483
4 284 488 485 504
4 426 420 486 495
4 245 262 254 483
4 241 270 288 484
4 448 285 306 483
4 284 311 488 504
4 276 283 402 487
4 274 484 307 491
4 447 482 291 489
4 394 396 297 485
4 281 216 58 268
4 392 396 394 485
4 226 231 246 483
4 342 243 248 504
4 313 275 291 489
4 406 370 403 500
4 276 304 283 487
4 246 232 226 482
4 273 427 282 491
4 397 369 350 485
4 343 362 380 484
4 487 490 398 500
4 217 279 287 502
4 362 240 239 484
4 424 420 428 496
4 274 307 282 491
4 424 428 367 496
4 375 349 357 487
4 369 397 409 485
4 217 287 253 502
4 424 486 420 496
4 274 484 425 499
4 303 287 279 486
4 273 426 427 491
4 198 59 337 459
4 230 341 250 494
4 414 406 398 500
4 403 487 398 500
4 410 398 490 500
4 238 486 252 502
4 423 484 425 491
4 216 268 251 494
4 359 483 445 501
4 284 400 401 488
4 424 367 346 496
4 413 398 407 490
4 291 302 278 497
4 245 377 262 483
4 240 238 224 486
4 303 486 279 495
4 448 483 445 489
4 240 252 238 486
4 307 270 308 491
4 389 175 222 493
4 284 401 485 488
4 427 274 282 491
4 424 346 486 496
4 309 284 485 504
4 358 349 383 488
4 242 488 289 504
4 447 444 482 489
4 66 205 204 502
4 284 311 276 488
4 358 404 405 488
4 359 382 345 489
4 392 396 485 493
4 321 138 326 501
4 357 405 403 487
4 445 448 443 501
4 309 311 284 504
4 410 398 413 490
4 393 392 394 485
4 393 397 392 485
4 211 360 72 480
4 358 405 349 488
4 390 385 260 175
4 285 483 448 489
4 404 485 401 488
4 213 437 192 492
4 428 420 436 496
4 424 426 486 491
4 394 297 408 485
4 389 175 260 222
4 213 437 492 497
4 427 425 274 491
4 445 483 448 501
4 230 242 243 488
4 405 400 402 487
4 216 490 268 494
4 468 63 199 265
4 298 487 268 490
4 384 345 382 489
4 347 484 423 491
4 273 426 486 495
4 425 484 423 499
4 407 398 402 487
4 241 240 224 484
4 416 418 368 498
4 420 432 436 496
4 243 488 242 504
4 193 437 213 497
4 238 253 486 502
4 403 357 487 500
4 470 267 66 495
4 447 446 442 482
4 446 447 444 482
4 403 370 357 500
4 407 402 283 487
4 398 410 414 500
4 344 382 359 483
4 9 138 315 332
4 359 366 483 501
4 198 227 59 464
4 424 486 346 491
4 226 232 244 482
4 128 4 314 330
4 324 127 325 501
4 212 192 213 193
4 71 210 257 497
4 289 488 311 504
4 404 369 409 485
4 192 213 193 437
4 424 426 420 486
4 369 381 350 485
4 297 277 309 485
4 444 359 345 489
4 245 231 226 483
4 58 216 195 494
4 233 231 254 483
4 225 377 138 321
4 444 445 359 489
4 420 495 432 496
4 425 423 421 499
4 418 498 415 499
4 414 370 406 500
4 346 486 379 491
4 368 347 374 498
4 282 307 308 491
4 188 481 189 495
4 258 200 64 503
4 380 484 347 491
4 443 452 136 501
4 277 309 485 493
4 211 57 360 480
4 244 482 257 492
4 188 207 481 495
4 404 409 399 485
4 426 294 429 495
4 426 429 420 495
4 63 293 468 499
4 377 245 344 483
4 289 269 223 504
4 137 138 366 501
4 413 407 296 490
4 233 305 231 483
4 297 309 284 485
4 358 381 369 485
4 422 424 356 491
4 428 436 367 496
4 112 400 284 276
4 356 424 346 491
4 324 325 320 501
4 293 484 274 499
4 375 364 383 488
4 358 369 404 485
4 311 289 304 488
4 189 481 207 496
4 257 492 482 497
4 344 359 366 483
4 425 431 295 499
4 292 285 271 483
4 405 402 403 487
4 420 429 435 495
4 200 498 64 503
4 184 418 416 498
4 408 297 401 485
4 422 356 423 491
4 431 421 419 499
4 210 72 219 492
4 347 423 356 491
4 242 289 223 504
4 440 438 192 492
4 425 421 431 499
4 286 310 313 489
4 193 192 189 481
4 188 193 189 481
4 273 294 426 495
4 448 449 275 489
4 481 495 207 496
4 228 351 239 498
4 297 284 401 485
4 404 401 405 488
4 337 459 376 411
4 188 434 470 495
4 230 250 236 494
4 305 292 271 483
4 377 344 366 483
4 304 268 298 487
4 285 448 275 489
4 405 401 400 488
4 58 458 196 264
4 434 267 470 495
4 240 241 239 484
4 359 378 366 501
4 189 495 481 496
4 280 234 272 497
4 285 275 310 489
4 59 337 459 500
4 459 337 55 411
4 418 184 415 498
4 321 326 325 501
4 288 484 293 503
4 192 437 440 492
4 232 257 482 497
4 196 458 54 264
4 362 484 239 498
4 447 449 444 489
4 416 368 374 498
4 289 311 269 504
4 307 274 293 484
4 275 291 449 124
4 438 480 192 492
4 346 379 356 491
4 378 359 445 501
4 305 271 231 483
4 272 482 313 497
4 439 441 193 497
4 76 286 246 271
4 174 392 175 493
4 424 427 426 491
4 348 482 244 492
4 362 239 351 498
4 301 54 412 458
4 191 453 440 442
4 343 87 362 240
4 416 469 184 498
4 175 395 385 350
4 359 169 444 345
4 293 288 307 484
4 419 431 182 421
4 398 179 406 414
4 429 186 420 435
4 202 184 203 499
4 257 234 71 497
4 228 258 64 498
4 260 390 175 389
4 232 482 272 497
4 278 441 439 497
4 137 451 135 501
4 451 135 39 137
4 454 40 147 331
4 41 329 456 145
4 420 435 432 495
4 137 326 138 501
4 419 421 415 499
4 422 356 424 164
4 163 423 422 356
4 232 257 244 482
4 208 67 340 471
4 458 301 54 264
4 174 389 388 259
4 239 258 228 498
4 349 375 383 488
4 356 346 424 164
4 423 163 347 356
4 300 468 293 499
4 445 169 444 359
4 380 347 356 491
4 427 423 425 491
4 480 213 192 492
4 373 486 346 496
4 193 441 437 497
4 203 184 498 499
4 208 476 214 237
4 64 200 203 498
4 342 364 91 243
4 429 294 435 495
4 311 304 276 488
4 194 458 58 490
4 389 174 175 493
4 445 451 378 501
4 239 362 87 240
4 354 384 348 482
4 436 428 187 420
4 183 430 418 421
4 407 398 413 178
4 336 148 7 332
4 469 203 184 498
4 228 351 88 239
4 295 274 425 499
4 319 330 6 142
4 363 486 373 502
4 283 487 298 490
4 459 376 411 500
4 368 418 416 161
4 347 484 374 498
4 337 376 459 500
4 144 40 316 331
4 170 446 345 354
4 408 401 399 485
4 458 264 58 490
4 442 190 450 441
4 71 213 210 497
4 403 402 398 487
4 440 339 438 492
4 333 329 41 150
4 245 254 231 483
4 357 365 487 500
4 299 269 249 99
4 375 487 365 494
4 249 493 248 504
4 72 210 213 492
4 338 469 416 498
4 449 448 275 125
4 226 344 82 245
4 282 273 119 427
4 415 183 418 421
4 420 187 436 432
4 413 398 410 178
4 360 339 72 480
4 241 484 288 503
4 272 313 278 497
4 232 234 257 497
4 303 308 287 486
4 363 379 373 486
4 344 82 361 226
4 239 498 484 503
4 431 419 295 499
4 283 304 298 487
4 339 360 57 480
4 409 397 177 393
4 174 396 277 312
4 210 219 257 492
4 464 198 227 235
4 350 395 155 397
4 241 288 270 103
4 400 401 112 284
4 208 229 67 237
4 236 216 251 494
4 415 498 184 499
4 470 206 66 267
4 442 440 191 437
4 439 193 479 497
4 422 427 424 491
4 278 302 441 497
4 448 285 275 125
4 327 457 145 146
4 208 340 57 471
4 365 375 357 487
4 450 123 291 302
4 182 415 419 421
4 435 186 420 432
4 398 179 414 410
4 361 83 348 244
4 484 499 293 503
4 273 486 303 495
4 239 258 498 503
4 272 286 232 75
4 232 272 234 497
4 238 217 253 502
4 379 343 380 491
4 323 150 334 149
4 442 190 441 437
4 137 378 451 501
4 485 493 309 504
4 92 371 342 248
4 244 257 219 492
4 440 372 339 492
4 282 274 427 118
4 234 280 272 74
4 349 357 405 158
4 373 379 346 486
4 362 88 351 239
4 373 346 367 496
4 320 455 146 147
4 303 273 308 486
4 39 451 137 378
4 444 448 445 489
4 309 493 299 504
4 427 422 423 491
4 270 224 241 103
4 354 482 348 492
4 286 246 232 75
4 301 458 412 490
4 300 417 54 468
4 138 332 225 321
4 446 444 170 345
4 269 299 249 504
4 273 426 119 427
4 258 64 498 503
4 177 399 409 393
4 479 266 439 497
4 9 138 332 225
4 228 64 351 498
4 130 455 136 131
4 129 457 135 130
4 469 201 64 338
4 243 364 91 230
4 380 374 347 484
4 66 217 205 502
4 223 243 242 504
4 246 231 76 271
4 374 484 362 498
4 471 204 67 502
4 458 301 264 490
4 441 278 439 122
4 71 209 479 266
4 310 275 313 489
4 365 494 487 500
4 174 389 259 493
4 57 69 208 471
4 375 365 341 494
4 385 371 93 260
4 380 362 374 484
4 269 223 249 99
4 289 98 223 269
4 269 309 299 504
4 72 219 211 256
4 250 90 341 230
4 300 419 417 499
4 353 348 219 492
4 291 447 449 124
4 135 136 327 501
4 277 396 174 493
4 389 222 259 493
4 468 54 300 265
4 213 479 193 497
4 403 405 357 158
4 83 361 226 244
4 392 174 396 493
4 438 339 57 480
4 174 28 396 312
4 425 427 274 118
4 90 364 341 230
4 372 453 171 446
4 339 480 438 492
4 259 388 174 493
4 405 358 349 157
4 195 236 227 494
4 318 322 142 143
4 202 185 184 499
4 425 295 431 117
4 394 408 176 393
4 406 159 403 370
4 280 71 234 497
4 195 216 236 494
4 287 253 224 102
4 174 312 277 493
4 144 317 143 324
4 312 299 259 100
4 155 369 350 397
4 348 84 353 219
4 348 244 219 492
4 296 407 114 283
4 323 137 135 501
4 199 63 108 265
4 405 404 358 157
4 263 70 25 106
4 24 68 263 106
4 149 335 326 148
4 448 444 449 489
4 224 287 102 270
4 197 490 194 500
4 352 496 67 502
4 63 293 499 503
4 233 328 330 128
4 207 495 204 496
4 203 498 200 503
4 137 135 39 323
4 355 337 59 365
4 399 401 404 485
4 67 340 471 496
4 239 484 241 503
4 223 269 249 504
4 28 277 396 312
4 281 298 58 264
4 443 136 135 501
4 445 443 451 501
4 299 312 259 493
4 335 140 138 139
4 132 128 318 133
4 59 194 195 494
4 265 293 63 290
4 127 322 324 325
4 353 219 72 492
4 197 181 180 500
4 368 416 374 161
4 278 441 302 122
4 341 355 89 250
4 277 297 110 396
4 296 283 298 490
4 433 471 340 496
4 459 411 181 500
4 243 249 248 504
4 340 67 352 496
4 249 222 248 493
4 433 189 471 496
4 128 4 330 233
4 219 348 84 244
4 135 329 39 323
4 390 260 95 389
4 355 365 59 494
4 357 370 365 500
4 243 92 342 248
4 290 218 104 503
4 320 327 136 501
4 223 242 98 289
4 247 66 206 105
4 206 66 267 105
4 131 36 37 454
4 39 38 456 129
4 389 388 259 94
4 399 176 408 393
4 210 72 211 256
4 394 110 297 396
4 309 269 311 504
4 220 17 154 198
4 133 317 134 127
4 334 141 137 140
4 415 184 185 499
4 416 55 469 338
4 433 57 340 471
4 266 71 209 107
4 220 227 198 235
4 79 225 328 233
4 299 493 249 504
4 388 312 174 493
4 333 41 329 456
4 277 299 309 493
4 490 494 194 500
4 248 93 371 260
4 64 469 338 498
4 363 352 85 502
4 232 234 272 74
4 273 303 294 495
4 218 261 200 63
4 486 496 373 502
4 180 181 410 500
4 290 104 288 503
4 72 213 480 492
4 471 67 496 502
4 338 416 374 498
4 301 412 413 490
4 259 312 388 493
4 337 59 365 500
4 167 440 339 438
4 417 116 419 300
4 197 180 490 500
4 448 452 306 126
4 300 295 419 499
4 180 412 458 490
4 471 496 204 502
4 204 496 495 502
4 434 303 267 495
4 355 250 341 494
4 196 235 58 216
4 439 479 56 266
4 339 72 480 492
4 376 414 411 500
4 435 121 434 495
4 293 63 290 503
4 333 38 39 141
4 37 36 134 316
4 71 266 479 497
4 195 227 236 216
4 434 56 470 267
4 58 264 298 490
4 326 137 323 501
4 188 189 432 495
4 404 409 369 156
4 357 403 159 370
4 274 295 425 117
4 4 128 305 233
4 291 447 123 450
4 464 227 59 195
4 380 356 379 491
4 446 171 372 354
4 68 70 263 106
4 365 59 494 500
4 214 473 211 256
4 278 439 266 497
4 203 469 64 498
4 363 85 252 502
4 419 185 417 499
4 434 121 303 495
4 458 54 60 196
4 181 459 55 411
4 184 55 469 416
4 192 438 57 480
4 57 433 189 471
4 27 26 60 391
4 389 260 95 222
4 79 225 321 328
4 402 114 407 283
4 295 293 274 499
4 339 372 354 492
4 210 211 473 256
4 212 192 480 213
4 184 203 469 202
4 136 320 324 331
4 267 24 206 105
4 180 410 490 500
4 389 259 222 94
4 218 63 200 503
4 395 385 45 175
4 326 323 325 501
4 388 28 174 312
4 390 45 385 175
4 373 433 340 496
4 215 20 196 109
4 366 378 137 501
4 249 259 299 100
4 404 369 358 156
4 320 325 327 501
4 154 337 44 198
4 209 71 221 107
4 306 285 448 126
4 294 121 435 495
4 187 420 186 432
4 182 183 415 421
4 398 179 410 178
4 412 413 115 301
4 209 25 266 107
4 400 112 113 276
4 180 412 54 458
4 185 54 417 468
4 193 479 56 439
4 188 56 470 434
4 71 479 213 497
4 17 220 227 198
4 476 214 69 208
4 231 233 77 305
4 225 332 9 80
4 235 58 462 196
4 42 151 340 208
4 233 78 4 330
4 189 432 495 496
4 212 213 479 193
4 440 372 167 339
4 299 259 249 493
4 190 442 191 437
4 414 376 370 500
4 435 429 33 294
4 397 46 369 409
4 434 188 435 495
4 419 295 32 431
4 47 406 414 370
4 301 413 296 490
4 316 40 454 331
4 195 235 58 462
4 293 290 288 503
4 328 78 233 330
4 451 168 445 378
4 196 60 235 215
4 339 353 360 72
4 120 429 426 294
4 195 235 227 216
4 463 261 465 200
4 412 115 31 301
4 411 376 48 160
4 223 249 243 504
4 241 104 218 503
4 30 296 413 407
4 211 219 214 256
4 216 196 235 215
4 154 220 198 61
4 436 367 50 428
4 418 430 49 368
4 305 77 231 271
4 239 241 258 503
4 116 295 419 300
4 203 499 498 503
4 29 408 394 297
4 376 411 414 160
4 208 214 229 237
4 52 372 440 453
4 166 433 373 496
4 303 121 294 495
4 487 494 490 500
4 323 135 327 501
4 461 60 235 196
4 352 363 373 502
4 273 120 426 294
4 35 450 441 302
4 472 474 247 237
4 359 445 168 378
4 261 255 258 200
4 356 422 163 164
4 166 367 436 496
4 417 31 116 300
4 241 288 104 503
4 354 348 339 492
4 20 196 216 215
4 355 341 365 494
4 227 59 195 494
4 166 436 433 496
4 150 141 137 334
4 303 434 267 121
4 433 340 166 373
4 416 338 374 161
4 314 330 4 319
4 80 225 332 321
4 315 336 9 332
4 220 152 14 201
4 439 278 266 122
4 200 258 261 218
4 245 377 81 262
4 296 115 413 301
4 474 472 475 237
4 108 63 23 290
4 205 217 229 502
4 211 73 57 480
4 409 397 46 177
4 43 152 201 338
4 181 411 414 500
4 329 135 327 323
4 218 290 63 503
4 227 89 355 250
4 436 189 433 496
4 408 176 29 394
4 412 180 413 490
4 474 66 206 247
4 415 185 419 499
4 344 377 81 245
4 160 414 376 370
4 92 342 91 243
4 451 443 135 501
4 351 374 362 498
4 256 214 473 237
4 229 13 214 208
4 495 496 486 502
4 266 71 280 497
4 280 272 278 497
4 431 295 32 117
4 352 373 496 502
4 337 365 376 500
4 219 72 210 256
4 215 196 60 109
4 406 47 159 370
4 166 373 367 496
4 51 167 339 438
4 343 86 87 240
4 107 71 234 280
4 461 235 462 196
4 352 229 85 502
4 1 2 263 221
4 238 229 217 502
4 32 419 431 182
4 406 179 47 414
4 429 33 186 435
4 198 44 154 61
4 450 190 35 441
4 49 183 430 418
4 428 50 436 187
4 407 413 30 178
4 440 52 453 191
4 355 227 250 494
4 338 351 64 498
4 277 312 299 493
4 270 102 224 103
4 13 151 214 208
4 45 385 395 350
4 344 81 82 245
4 218 200 258 503
4 77 76 231 271
4 445 168 169 359
4 407 30 296 114
4 301 298 264 490
4 423 163 162 347
4 165 424 346 164
4 323 327 325 501
4 413 180 410 490
4 409 46 369 156
4 435 188 432 495
4 227 464 235 195
4 97 98 242 289
4 19 388 259 312
4 155 46 369 397
4 110 29 394 297
4 300 293 295 499
4 181 414 410 500
4 18 385 260 390
4 153 43 387 220
4 153 387 44 220
4 446 170 171 354
4 277 110 28 396
4 189 436 432 496
4 63 108 265 290
4 83 84 348 244
4 476 473 214 237
4 350 395 45 155
4 252 85 229 502
4 401 111 112 284
4 498 499 484 503
4 247 474 66 237
4 73 214 473 211
4 125 275 449 124
4 54 60 196 264
4 335 140 326 138
4 340 352 373 496
4 318 128 322 133
4 152 220 65 201
4 355 59 227 494
4 206 24 68 105
4 353 72 339 492
4 408 29 111 297
4 126 285 448 125
4 266 34 439 122
4 99 249 299 100
4 25 70 263 221
4 79 328 78 233
4 348 353 339 492
4 204 205 67 502
4 362 87 88 239
4 152 351 14 228
4 385 93 18 260
4 74 272 232 75
4 261 235 463 465
4 237 229 205 217
4 259 222 249 493
4 317 144 134 324
4 340 166 51 433
4 338 416 48 161
4 267 434 34 121
4 119 120 426 273
4 32 116 295 419
4 30 296 115 413
4 335 140 149 326
4 160 47 414 370
4 259 19 312 100
4 58 235 195 216
4 143 318 322 133
4 137 323 150 334
4 222 95 389 94
4 402 113 114 283
4 203 200 63 503
4 151 42 69 208
4 52 372 453 171
4 429 120 33 294
4 107 266 71 280
4 6 4 330 319
4 451 39 168 378
4 90 91 364 230
4 66 217 279 105
4 146 136 135 130
4 336 7 9 332
4 77 233 4 305
4 206 68 24 267
4 76 246 286 75
4 156 358 404 157
4 463 255 261 200
4 261 465 200 63
4 269 98 223 99
4 465 235 463 461
4 372 167 52 440
4 24 68 247 263
4 157 349 405 158
4 135 327 136 146
4 352 67 229 502
4 256 472 247 237
4 36 306 452 126
4 201 14 220 255
4 430 162 49 368
4 367 50 428 165
4 255 220 460 235
4 279 267 66 105
4 399 177 176 393
4 218 23 261 63
4 70 247 263 221
4 474 475 205 237
4 81 377 9 262
4 50 166 367 436
4 49 418 368 161
4 294 33 435 121
4 53 360 172 211
4 69 214 151 208
4 127 134 36 331
4 70 209 25 266
4 214 473 476 69
4 256 247 472 221
4 102 287 253 101
4 450 35 123 302
4 117 425 274 118
4 296 298 301 490
4 361 82 83 226
4 198 337 44 61
4 291 447 124 123
4 351 88 14 228
4 357 403 158 159
4 461 235 60 215
4 169 170 444 345
4 302 441 35 122
4 67 205 229 502
4 134 317 324 127
4 92 93 371 248
4 68 70 247 263
4 333 329 39 456
4 63 218 23 290
4 476 67 205 237
4 214 173 42 386
4 475 473 205 237
4 25 209 70 107
4 89 90 341 250
4 365 370 376 500
4 259 388 19 94
4 472 209 475 256
4 474 205 66 237
4 385 18 45 390
4 388 19 28 312
4 214 53 173 386
4 260 95 18 390
4 261 235 461 215
4 65 43 152 201
4 256 210 219 257
4 227 236 250 494
4 104 288 241 103
4 427 119 282 118
4 199 261 465 62
4 261 235 465 461
4 319 314 330 142
4 148 336 315 332
4 229 238 252 502
4 266 280 278 497
4 290 218 23 104
4 235 464 460 462
4 172 353 10 219
4 107 234 3 280
4 363 85 86 252
4 201 65 43 338
4 256 475 472 237
4 70 472 247 221
4 263 247 1 221
4 127 324 134 331
4 462 463 235 461
4 327 320 136 146
4 136 131 147 331
4 261 23 215 108
4 79 225 80 321
4 135 457 145 327
4 144 134 324 331
4 220 65 201 255
4 255 463 64 200
4 251 96 97 268
4 256 209 71 221
4 280 234 3 74
4 279 217 0 105
4 473 476 205 237
4 332 7 9 80
4 463 255 235 261
4 247 206 68 105
4 316 454 36 331
4 455 136 320 146
4 332 138 326 321
4 475 210 473 256
4 78 6 4 330
4 137 323 334 149
4 327 135 457 146
4 338 374 351 498
4 205 67 229 237
4 353 84 10 219
4 329 129 145 135
4 66 247 237 217
4 68 472 474 247
4 360 57 51 339
4 128 328 330 322
4 218 258 241 503
4 54 185 180 467
4 466 55 184 181
4 193 56 478 188
4 192 57 189 477
4 73 53 172 211
4 473 475 256 237
4 457 145 129 135
4 131 455 136 147
4 320 136 455 147
4 235 460 463 462
4 131 136 36 331
4 133 128 322 127
4 326 140 137 138
4 146 455 136 130
4 146 135 457 130
4 352 151 13 229
4 109 20 216 281
4 221 70 209 107
4 27 26 54 60
4 205 66 237 217
4 172 214 73 211
4 339 57 51 438
4 279 0 217 101
4 154 17 355 227
4 474 206 68 247
4 129 329 39 135
4 320 136 147 331
4 44 153 220 61
4 220 153 43 65
4 137 149 140 326
4 133 322 143 127
4 26 54 62 265
4 135 145 329 327
4 465 261 199 63
4 247 68 24 105
4 13 85 352 229
4 60 54 27 264
4 142 128 322 318
4 71 234 256 221
4 454 147 36 331
4 138 326 335 148
4 137 323 149 326
4 68 70 472 247
4 461 62 261 215
4 316 36 144 331
4 337 55 44 61
4 324 317 143 127
4 456 329 39 145
4 96 216 20 281
4 220 154 44 61
4 195 464 235 462
4 36 131 147 454
4 129 456 39 145
4 336 139 148 315
4 314 319 132 142
4 70 25 56 266
4 221 25 70 107
4 36 144 134 316
4 301 31 54 264
4 333 39 329 150
4 31 54 412 301
4 39 333 141 150
4 255 460 463 235
4 65 55 43 338
4 56 24 68 267
4 89 355 17 227
4 70 56 25 106
4 68 24 56 106
4 42 57 173 69
4 173 57 53 73
4 153 55 43 65
4 44 55 153 61
4 324 143 322 127
4 138 148 315 332
4 142 314 330 128
4 37 40 454 316
4 333 38 41 456
4 214 42 173 69
4 314 4 5 319
4 336 9 8 315
4 220 43 152 65
4 214 173 53 73
4 197 184 202 185
4 333 39 38 456
4 454 36 37 316
4 62 261 465 461
4 65 220 153 61
4 26 54 60 62
4 65 220 460 255
4 197 181 185 180
4 197 181 184 185
4 53 172 214 73
4 138 148 139 315
4 142 132 314 128
4 201 65 460 255
4 463 201 460 255
4 463 64 201 255
4 70 68 56 106
4 73 173 57 69
4 65 153 55 61
4 215 21 20 109
4 128 330 142 322
4 154 16 17 220
4 141 329 39 150
4 148 138 326 332
4 57 73 69 477
4 70 68 478 56
4 61 55 65 466
4 134 144 36 331
4 129 39 329 145
4 147 131 36 331
4 214 151 42 69
4 60 54 467 62
4 8 7 9 336
4 215 23 22 108
4 4 6 5 319
4 300 54 31 265
4 317 133 143 127
4 417 54 31 300
4 149 334 137 140
4 73 214 173 69
4 434 34 56 267
4 48 55 416 338
4 51 57 340 433
4 185 202 197 467
4 197 184 466 202
4 475 209 71 256
4 65 460 220 61
4 14 15 152 220
4 60 62 461 215
4 335 138 148 139
4 128 142 132 318
4 180 185 197 467
4 184 197 466 181
4 56 34 439 266
4 172 10 11 214
4 151 12 13 214
4 473 214 73 69
4 71 210 475 256
4 26 31 54 265
4 27 54 31 264
4 247 1 0 105
4 44 48 55 337
4 53 57 51 360
4 214 12 11 386
4 15 16 387 220
4 22 21 215 391
4 26 54 31 27
4 24 56 34 267
4 55 48 43 338
4 51 57 42 340
4 34 56 25 266
4 34 56 24 106
4 55 48 44 153
4 56 34 25 106
4 55 43 48 153
4 51 42 57 173
4 51 57 53 173
4 3 2 221 107
4 483 225 328 321
4 483 328 225 254
4 504 383 243 488
4 504 243 383 342
4 364 243 383 488
4 364 383 243 342
4 489 271 285 483
4 489 285 271 310
4 381 488 358 383
4 358 488 381 485
4 494 364 487 230
4 494 487 364 375
4 488 487 364 230
4 488 364 487 375
4 490 283 407 296
4 490 407 283 487
4 393 408 485 394
4 393 485 408 399
4 492 210 497 257
4 492 497 210 213
4 265 468 293 300
4 265 293 468 63
4 501 448 452 483
4 501 452 448 443
4 291 449 489 275
4 489 449 291 447
4 136 324 501 127
4 136 501 324 320
4 409 393 485 397
4 485 393 409 399
4 240 363 86 252
4 240 86 363 343
4 468 417 499 300
4 468 499 417 185
4 287 217 101 279
4 287 101 217 253
4 233 128 483 328
4 483 128 233 305
4 276 402 113 400
4 276 113 402 283
4 61 198 235 220
4 235 198 61 464
4 235 460 61 220
4 61 460 235 464
4 297 401 111 408
4 297 111 401 284
4 497 291 313 278
4 497 313 291 482
4 127 128 325 292
4 127 325 128 322
4 306 136 36 452
4 36 136 306 127
4 59 194 500 459
4 59 500 194 494
4 242 268 97 289
4 97 268 242 251
4 495 279 267 66
4 495 267 279 303
4 368 423 162 347
4 368 162 423 430
4 367 424 165 428
4 165 424 367 346
4 258 64 255 228
4 255 64 258 200
4 225 377 9 138
4 225 9 377 262
4 499 202 468 203
4 499 468 202 185
4 71 257 256 234
4 256 257 71 210
4 260 371 493 385
4 260 493 371 248
4 261 108 63 23
4 63 108 261 199
4 207 495 470 204
4 470 495 207 188
4 216 268 96 251
4 96 268 216 281
4 229 208 151 13
4 411 337 48 376
4 411 48 337 55
4 198 154 227 17
4 500 197 459 194
4 500 459 197 181
4 63 203 499 468
4 499 203 63 503
4 207 496 471 189
4 471 496 207 204
4 265 62 468 54
4 265 468 62 199
4 490 197 458 180
4 490 458 197 194
4 216 109 196 20
4 337 61 459 55
4 459 61 337 198
4 228 255 201 64
4 201 255 228 14
4 228 152 201 14
4 323 150 141 137
4 141 150 323 329
4 141 39 323 137
4 323 39 141 329
4 472 209 221 70
4 221 209 472 256
4 265 62 108 199
4 265 108 62 26
4 62 261 108 199
4 108 261 62 215
4 267 68 470 206
4 267 470 68 56
4 107 234 221 3
4 107 221 234 71
4 105 217 247 66
4 105 247 217 0
4 57 208 42 340
4 42 208 57 69
4 266 70 479 56
4 266 479 70 209
4 65 338 469 55
4 469 338 65 201
4 331 127 136 36
4 331 136 127 324
4 212 481 477 192
4 212 477 481 207
4 189 477 481 192
4 189 481 477 207
4 481 207 478 212
4 478 207 481 188
4 478 193 481 212
4 481 193 478 188
4 60 264 109 196
4 109 264 60 27
4 53 211 57 360
4 57 211 53 73
4 12 42 214 151
4 12 214 42 386
4 21 27 215 391
4 21 215 27 109
4 60 215 27 391
4 60 27 215 109
4 15 43 220 387
4 15 220 43 152
4 197 61 181 459
4 197 181 61 466
4 55 181 61 459
4 55 61 181 466
4 54 60 180 458
4 54 180 60 467
4 197 180 60 458
4 197 60 180 467
4 202 65 184 466
4 202 184 65 469
4 55 184 65 466
4 55 65 184 469
4 212 73 192 477
4 212 192 73 480
4 57 192 73 477
4 57 73 192 480
4 11 53 214 386
4 11 214 53 172
4 207 69 189 471
4 207 189 69 477
4 57 189 69 471
4 57 69 189 477
4 56 70 193 478
4 56 193 70 479
4 212 193 70 478
4 212 70 193 479
4 25 2 221 263
4 25 221 2 107
4 56 68 188 470
4 56 188 68 478
4 207 188 68 470
4 207 68 188 478
4 1 24 247 263
4 1 247 24 105
4 54 62 185 467
4 54 185 62 468
4 202 185 62 467
4 202 62 185 468
4 22 26 215 108
4 22 215 26 391
4 62 215 26 108
4 16 44 220 154
4 16 220 44 387
4 229 208 352 151
4 229 352 208 67
4 340 352 208 151
4 340 208 352 67
4 198 337 355 154
4 355 337 198 59
4 355 227 198 154
4 198 227 355 59
4 196 216 281 109
4 281 216 196 58
4 281 264 196 109
4 196 264 281 58
4 201 228 351 152
4 351 228 201 64
4 351 338 201 152
4 201 338 351 64
4 211 219 360 172
4 211 360 219 72
4 353 360 219 172
4 353 219 360 72
4 172 219 214 211
4 214 219 172 10
4 215 26 60 62
4 215 60 26 391

CELL_TYPES 2786
1
1
1
1
1
1
1
1
1
1
1
1
1
1
1
1
1
1
1
1
1
1
1
1
1
1
1
1
1
1
1
1
1
1
1
1
1
1
1
1
1
1
1
1
1
1
1
1
1
1
1
1
1
1
1
1
1
1
1
1
1
1
1
1
1
1
1
1
1
1
1
1
1
1
3
3
3
3
3
3
3
3
3
3
3
3
3
3
3
3
3
3
3
3
3
3
3
3
3
3
3
3
3
3
3
3
3
3
3
3
3
3
3
3
3
3
3
3
3
3
3
3
3
3
3
3
3
3
3
3
3
3
3
3
3
3
3
3
3
3
3
3
3
3
3
3
3
3
3
3
3
3
3
3
3
3
3
3
3
3
3
3
3
3
3
3
3
3
3
3
3
3
3
3
3
3
3
3
3
3
3
3
3
3
3
3
3
3
3
3
3
3
3
3
3
3
3
3
3
3
3
3
3
3
3
3
3
3
3
3
3
3
3
3
3
3
3
3
3
3
3
3
3
3
3
3
3
3
3
3
3
3
3
3
3
3
3
3
3
3
3
3
3
3
3
3
3
3
3
3
3
3
3
3
3
3
3
3
3
3
3
3
3
3
3
3
3
3
3
3
3
3
3
3
3
3
3
3
3
3
3
3
3
3
3
3
3
3
3
3
3
3
3
3
3
3
3
3
3
3
3
3
3
3
3
3
3
3
3
3
3
3
3
3
3
3
3
3
3
3
3
3
3
3
3
5
5
5
5
5
5
5
5
5
5
5
5
5
5
5
5
5
5
5
5
5
5
5
5
5
5
5
5
5
5
5
5
5
5
5
5
5
5
5
5
5
5
5
5
5
5
5
5
5
5
5
5
5
5
5
5
5
5
5
5
5
5
5
5
5
5
5
5
5
5
5
5
5
5
5
5
5
5
5
5
5
5
5
5
5
5
5
5
5
5
5
5
5
5
5
5
5
5
5
5
5
5
5
5
5
5
5
5
5
5
5
5
5
5
5
5
5
5
5
5
5
5
5
5
5
5
5
5
5
5
5
5
5
5
5
5
5
5
5
5
5
5
5
5
5
5
5
5
5
5
5
5
5
5
5
5
5
5
5
5
5
5
5
5
5
5
5
5
5
5
5
5
5
5
5
5
5
5
5
5
5
5
5
5
5
5
5
5
5
5
5
5
5
5
5
5
5
5
5
5
5
5
5
5
5
5
5
5
5
5
5
5
5
5
5
5
5
5
5
5
5
5
5
5
5
5
5
5
5
5
5
5
5
5
5
5
5
5
5
5
5
5
5
5
5
5
5
5
5
5
5
5
5
5
5
5
5
5
5
5
5
5
5
5
5
5
5
5
5
5
5
5
5
5
5
5
5
5
5
5
5
5
5
5
5
5
5
5
5
5
5
5
5
5
5
5
5
5
5
5
5
5
5
5
5
5
5
5
5
5
5
5
5
5
5
5
5
5
5
5
5
5
5
5
5
5
5
5
5
5
5
5
5
5
5
5
5
5
5
5
5
5
5
5
5
5
5
5
5
5
5
5
5
5
5
5
5
5
5
5
5
5
5
5
5
5
5
5
5
5
5
5
5
5
5
5
5
5
5
5
5
5
5
5
5
5
5
5
5
5
5
5
5
5
5
5
5
5
5
5
5
5
5
5
5
5
5
5
5
5
5
5
5
5
5
5
5
5
5
5
5
5
5
5
5
5
5
5
5
5
5
5
5
5
5
5
5
5
5
5
5
5
5
5
5
5
5
5
5
5
5
5
5
5
5
5
5
5
5
5
5
5
5
5
5
5
5
5
5
5
5
5
5
5
5
5
5
5
5
5
5
5
5
5
5
5
5
5
5
5
5
5
5
5
5
5
5
5
5
5
5
5
5
5
5
5
5
5
5
5
5
5
5
5
5
5
5
5
5
5
5
5
5
5
5
5
5
5
5
5
5
5
5
5
5
5
5
5
5
5
5
5
5
5
5
5
5
5
5
5
5
5
5
5
5
5
5
5
5
5
5
5
5
5
5
5
5
5
5
5
5
5
5
5
5
5
5
5
5
5
5
5
5
5
5
5
5
5
5
5
5
5
5
5
5
5
5
5
5
5
5
5
5
5
5
5
5
5
5
5
5
5
5
5
5
5
5
5
5
5
5
5
5
5
5
5
5
5
5
5
5
5
5
5
5
5
5
5
5
5
5
5
5
5
5
5
5
5
5
5
5
5
5
5
5
5
5
5
5
5
5
5
5
5
5
5
5
5
5
5
5
5
5
5
5
5
5
5
5
5
5
5
5
5
5
5
5
5
5
5
5
5
5
5
5
5
5
5
5
5
5
5
5
5
5
5
5
5
5
5
5
5
5
5
5
5
5
5
5
5
5
5
5
5
5
5
5
5
5
5
5
5
5
5
5
5
5
5
5
5
5
5
5
5
5
5
5
5
5
5
5
5
5
5
5
5
5
5
5
5
5
5
5
5
5
5
5
5
5
5
5
5
5
5
5
5
5
5
5
5
5
5
5
5
5
5
5
5
5
5
5
5
5
5
5
5
5
5
5
5
5
5
5
5
5
5
5
5
5
5
5
5
5
5
5
5
5
5
5
5
5
5
5
5
5
5
5
5
5
5
5
5
5
5
5
5
5
5
5
5
5
5
5
5
5
5
5
5
5
5
5
5
5
5
5
5
5
5
5
5
5
5
5
5
5
5
5
5
5
5
5
5
5
5
5
5
5
5
5
5
5
5
5
5
5
5
5
5
5
5
5
5
5
5
5
5
5
5
5
5
5
5
5
5
5
5
5
5
5
5
5
5
5
5
5
5
5
5
5
5
5
5
5
5
5
5
5
5
5
5
5
5
5
5
5
5
5
5
5
5
5
5
5
5
5
5
5
5
5
5
10
10
10
10
10
10
10
10
10
10
10
10
10
10
10
10
10
10
10
10
10
10
10
10
10
10
10
10
10
10
10
10
10
10
10
10
10
10
10
10
10
10
10
10
10
10
10
10
10
10
10
10
10
10
10
10
10
10
10
10
10
10
10
10
10
10
10
10
10
10
10
10
10
10
10
10
10
10
10
10
10
10
10
10
10
10
10
10
10
10
10
10
10
10
10
10
10
10
10
10
10
10
10
10
10
10
10
10
10
10
10
10
10
10
10
10
10
10
10
10
10
10
10
10
10
10
10
10
10
10
10
10
10
10
10
10
10
10
10
10
10
10
10
10
10
10
10
10
10
10
10
10
10
10
10
10
10
10
10
10
10
10
10
10
10
10
10
10
10
10
10
10
10
10
10
10
10
10
10
10
10
10
10
10
10
10
10
10
10
10
10
10
10
10
10
10
10
10
10
10
10
10
10
10
10
10
10
10
10
10
10
10
10
10
10
10
10
10
10
10
10
10
10
10
10
10
10
10
10
10
10
10
10
10
10
10
10
10
10
10
10
10
10
10
10
10
10
10
10
10
10
10
10
10
10
10
10
10
10
10
10
10
10
10
10
10
10
10
10
10
10
10
10
10
10
10
10
10
10
10
10
10
10
10
10
10
10
10
10
10
10
10
10
10
10
10
10
10
10
10
10
10
10
10
10
10
10
10
10
10
10
10
10
10
10
10
10
10
10
10
10
10
10
10
10
10
10
10
10
10
10
10
10
10
10
10
10
10
10
10
10
10
10
10
10
10
10
10
10
10
10
10
10
10
10
10
10
10
10
10
10
10
10
10
10
10
10
10
10
10
10
10
10
10
10
10
10
10
10
10
10
10
10
10
10
10
10
10
10
10
10
10
10
10
10
10
10
10
10
10
10
10
10
10
10
10
10
10
10
10
10
10
10
10
10
10
10
10
10
10
10
10
10
10
10
10
10
10
10
10
10
10
10
10
10
10
10
10
10
10
10
10
10
10
10
10
10
10
10
10
10
10
10
10
10
10
10
10
10
10
10
10
10
10
10
10
10
10
10
10
10
10
10
10
10
10
10
10
10
10
10
10
10
10
10
10
10
10
10
10
10
10
10
10
10
10
10
10
10
10
10
10
10
10
10
10
10
10
10
10
10
10
10
10
10
10
10
10
10
10
10
10
10
10
10
10
10
10
10
10
10
10
10
10
10
10
10
10
10
10
10
10
10
10
10
10
10
10
10
10
10
10
10
10
10
10
10
10
10
10
10
10
10
10
10
10
10
10
10
10
10
10
10
10
10
10
10
10
10
10
10
10
10
10
10
10
10
10
10
10
10
10
10
10
10
10
10
10
10
10
10
10
10
10
10
10
10
10
10
10
10
10
10
10
10
10
10
10
10
10
10
10
10
10
10
10
10
10
10
10
10
10
10
10
10
10
10
10
10
10
10
10
10
10
10
10
10
10
10
10
10
10
10
10
10
10
10
10
10
10
10
10
10
10
10
10
10
10
10
10
10
10
10
10
10
10
10
10
10
10
10
10
10
10
10
10
10
10
10
10
10
10
10
10
10
10
10
10
10
10
10
10
10
10
10
10
10
10
10
10
10
10
10
10
10
10
10
10
10
10
10
10
10
10
10
10
10
10
10
10
10
10
10
10
10
10
10
10
10
10
10
10
10
10
10
10
10
10
10
10
10
10
10
10
10
10
10
10
10
10
10
10
10
10
10
10
10
10
10
10
10
10
10
10
10
10
10
10
10
10
10
10
10
10
10
10
10
10
10
10
10
10
10
10
10
10
10
10
10
10
10
10
10
10
10
10
10
10
10
10
10
10
10
10
10
10
10
10
10
10
10
10
10
10
10
10
10
10
10
10
10
10
10
10
10
10
10
10
10
10
10
10
10
10
10
10
10
10
10
10
10
10
10
10
10
10
10
10
10
10
10
10
10
10
10
10
10
10
10
10
10
10
10
10
10
10
10
10
10
10
10
10
10
10
10
10
10
10
10
10
10
10
10
10
10
10
10
10
10
10
10
10
10
10
10
10
10
10
10
10
10
10
10
10
10
10
10
10
10
10
10
10
10
10
10
10
10
10
10
10
10
10
10
10
10
10
10
10
10
10
10
10
10
10
10
10
10
10
10
10
10
10
10
10
10
10
10
10
10
10
10
10
10
10
10
10
10
10
10
10
10
10
10
10
10
10
10
10
10
10
10
10
10
10
10
10
10
10
10
10
10
10
10
10
10
10
10
10
10
10
10
10
10
10
10
10
10
10
10
10
10
10
10
10
10
10
10
10
10
10
10
10
10
10
10
10
10
10
10
10
10
10
10
10
10
10
10
10
10
10
10
10
10
10
10
10
10
10
10
10
10
10
10
10
10
10
10
10
10
10
10
10
10
10
10
10
10
10
10
10
10
10
10
10
10
10
10
10
10
10
10
10
10
10
10
10
10
10
10
10
10
10
10
10
10
10
10
10
10
10
10
10
10
10
10
10
10
10
10
10
10
10
10
10
10
10
10
10
10
10
10
10
10
10
10
10
10
10
10
10
10
10
10
10
10
10
10
10
10
10
10
10
10
10
10
10
10
10
10
10
10
10
10
10
10
10
10
10
10
10
10
10
10
10
10
10
10
10
10
10
10
10
10
10
10
10
10
10
10
10
10
10
10
10
10
10
10
10
10
10
10
10
10
10
10
10
10
10
10
10
10
10
10
10
10
10
10
10
10
10
10
10
10
10
10
10
10
10
10
10
10
10
10
10
10
10
10
10
10
10
10
10
10
10
10
10
10
10
10
10
10
10
10
10
10
10
10
10
10
10
10
10
10
10
10
10
10
10
10
10
10
10
10
10
10
10
10
10
10
10
10
10
10
10
10
10
10
10
10
10
10
10
10
10
10
10
10
10
10
10
10
10
10
10
10
10
10
10
10
10
10
10
10
10
10
10
10
10
10
10
10
10
10
10
10
10
10
10
10
10
10
10
10
10
10
10
10
10
10
10
10
10
10
10
10
10
10
10
10
10
10
10
10
10
10
10
10
10
10
10
10
10
10
10
10
10
10
10
10
10
10
10
10
10
10
10
10
10
10
10
10
10
10
10
10
10
10
10
10
10
10
10
10
10
10
10
10
10
10
10
10
10
10
10
10
10
10
10
10
10
10
10
10
10
10
10
10
10
10
10
10
10
10
10
10
10
10
10
10
10
10
10
10
10
10
10
10
10
10
10
10
10
10
10
10
10
10
10
10
10
10
10
10
10
10
10
10
10
10
10
10
10
10
10
10
10
10
10
10
10
10
10
10
10
10
10
10
10
10
10
10
10
10
10
10
10
10
10
10
10
10
10
10
10
10
10
10
10
10
10
10
10
10
10
10
10
10
10
10
10
10
10
10
10
10
10
10
10
10
10
10
