# vtk DataFile Version 2.0
, Created by Gmsh 4.11.1 
ASCII
DATASET UNSTRUCTURED_GRID
POINTS 502 double
8.75 0 -44.76467952971467
13.60452367590791 0 -41.51790957350613
13.60452367590791 0 -38.48209042649387
8.75 0 -35.23532047028533
8.75 0 -3
11.75 0 -3
11.75 0 0
-11.75 0 0
-11.75 0 -3
-8.75 0 -3
-8.75 1.071565949253934e-15 -35.23532047028533
-13.60452367590791 1.6660736373625e-15 -38.48209042649387
-13.60452367590791 1.6660736373625e-15 -41.51790957350613
-8.75 1.071565949253934e-15 -44.76467952971467
-8.75 1.071565949253934e-15 -75.23532047028533
-13.60452367590791 1.6660736373625e-15 -78.48209042649387
-13.60452367590791 1.6660736373625e-15 -81.51790957350613
-8.75 1.071565949253934e-15 -84.76467952971467
-8.75 0 -120
8.75 0 -120
8.75 0 -84.76467952971467
13.60452367590791 0 -81.51790957350613
13.60452367590791 0 -78.48209042649387
8.75 0 -75.23532047028533
-8.75 9.194940392429775 -42.12762302315101
8.75 9.194940392429775 -42.12762302315101
8.75 9.194940392429773 -37.87237697684899
-8.75 9.194940392429737 -37.87237697684901
8.75 20 -3
8.75 20 -30.86294497514689
11.75 23 -3
-11.75 23 -3
-8.75 20 -3
11.75 23 0
-11.75 23 0
-8.75 20 -30.86294497514689
-8.75 20 -49.13705502485311
-8.75 20 -70.86294497514689
-8.75 9.194940392429784 -77.87237697684898
8.75 9.194940392429768 -77.872376976849
-8.75 9.194940392429777 -82.12762302315102
8.75 9.194940392429777 -82.12762302315102
-8.75 20 -89.13705502485311
-8.75 20 -110.8629449751469
-8.75 5.915203377789644 -120
8.75 5.915203377789644 -120
8.75 20 -89.13705502485311
8.75 20 -110.8629449751469
8.75 20 -49.13705502485311
8.75 20 -70.86294497514689
5.123800645514876 3.956466936148146 -84.76467952971467
-5.123800645514876 3.956466936148148 -84.76467952971467
10.61469840362625 3.956466936148146 -81.51790957350613
-10.61469840362625 3.956466936148148 -81.51790957350613
10.61469840362625 3.956466936148146 -78.48209042649387
5.123800645514876 3.956466936148146 -75.23532047028533
-5.123800645514876 3.956466936148148 -75.23532047028533
-10.61469840362625 3.956466936148148 -78.48209042649387
5.123800645514876 3.956466936148146 -44.76467952971467
-5.123800645514876 3.956466936148148 -44.76467952971467
10.61469840362625 3.956466936148146 -41.51790957350613
-10.61469840362625 3.956466936148148 -41.51790957350613
10.61469840362625 3.956466936148146 -38.48209042649387
5.123800645514876 3.956466936148146 -35.23532047028533
-5.123800645514876 3.956466936148148 -35.23532047028533
-10.61469840362625 3.956466936148148 -38.48209042649387
8.75 0 -28.78825637622827
8.75 0 -22.34119228217119
8.75 0 -15.89412818811413
8.75 0 -9.44706409405709
5.875000000000016 0 0
3.730349362740526e-14 0 0
-5.874999999999972 0 0
-8.75 0 -9.447064094057074
-8.75 0 -15.89412818811416
-8.75 0 -22.34119228217122
-8.75 0 -28.78825637622827
-8.75 0 -50.8588077178288
-8.75 0 -56.95293590594294
-8.75 0 -63.04706409405706
-8.75 0 -69.1411922821712
-8.75 0 -90.63723294142888
-8.75 0 -96.50978635314308
-8.75 0 -102.3823397648573
-8.75 0 -108.2548931765715
-8.75 0 -114.1274465882858
2.916666666666666 0 -120
-2.916666666666668 0 -120
8.75 0 -90.63723294142888
8.75 0 -96.50978635314308
8.75 0 -102.3823397648573
8.75 0 -108.2548931765715
8.75 0 -114.1274465882858
8.75 0 -50.8588077178288
8.75 0 -56.95293590594294
8.75 0 -63.04706409405706
8.75 0 -69.1411922821712
12.2572522946344 5.902781601416272 -41.51790957350613
8.482281771074268 10.63644491380649 -41.51790957350613
3.027291314393816 13.26342986358108 -41.51790957350613
-3.027291314393818 13.26342986358108 -41.51790957350613
-8.482281771074268 10.63644491380649 -41.51790957350613
-12.2572522946344 5.902781601416271 -41.51790957350613
-8.75 4.737304436912354 -43.96203457110049
3.013021159517205 10.76049710524262 -43.14322716804452
-3.013021159517144 10.76049710524262 -43.14322716804452
8.75 4.737304436912356 -43.96203457110049
12.2572522946344 5.902781601416272 -38.48209042649387
8.482281771074268 10.63644491380649 -38.48209042649387
3.027291314393816 13.26342986358108 -38.48209042649387
-3.027291314393818 13.26342986358108 -38.48209042649387
-8.482281771074268 10.63644491380649 -38.48209042649387
-12.2572522946344 5.902781601416271 -38.48209042649387
8.75 4.737304436912358 -36.03796542889952
-3.013021159517167 10.76049710524262 -36.85677283195548
3.013021159517145 10.76049710524262 -36.85677283195548
-8.75 4.737304436912348 -36.03796542889951
8.75 6.666666666666651 -3
8.75 13.33333333333329 -3
8.75 20 -23.89720873136016
8.75 20 -16.93147248757341
8.75 20 -9.965736243786701
8.75 14.5974701962149 -34.36766097599793
-5.875000000000016 23 -3
-3.730349362740526e-14 23 -3
5.874999999999972 23 -3
-11.75 5.749999999999988 -3
-11.75 11.49999999999999 -3
-11.75 17.24999999999999 -3
-8.75 13.33333333333335 -3
-8.75 6.666666666666705 -3
-2.916666666666666 20 -3
2.916666666666668 20 -3
11.75 5.749999999999988 -3
11.75 11.49999999999999 -3
11.75 17.24999999999999 -3
11.75 5.749999999999988 0
11.75 11.49999999999999 0
11.75 17.24999999999999 0
-5.875000000000016 23 0
-3.730349362740526e-14 23 0
5.874999999999972 23 0
-11.75 5.749999999999988 0
-11.75 11.49999999999999 0
-11.75 17.24999999999999 0
-8.75 20 -9.965736243786731
-8.75 20 -16.93147248757348
-8.75 20 -23.89720873136019
-8.75 14.59747019621488 -34.36766097599794
-8.75 14.59747019621487 -45.63233902400205
-8.75 20 -65.43147248757344
-8.75 20 -60.00000000000001
-8.75 20 -54.56852751242655
-8.75 14.59747019621491 -74.36766097599792
-8.75 4.73730443691236 -76.03796542889953
8.75 4.737304436912352 -76.03796542889953
-3.013021159517128 10.76049710524262 -76.85677283195554
3.013021159517185 10.76049710524262 -76.85677283195554
12.2572522946344 5.902781601416272 -78.48209042649387
8.482281771074268 10.63644491380649 -78.48209042649387
3.027291314393816 13.26342986358108 -78.48209042649387
-3.027291314393818 13.26342986358108 -78.48209042649387
-8.482281771074268 10.63644491380649 -78.48209042649387
-12.2572522946344 5.902781601416271 -78.48209042649387
12.2572522946344 5.902781601416272 -81.51790957350613
8.482281771074268 10.63644491380649 -81.51790957350613
3.027291314393816 13.26342986358108 -81.51790957350613
-3.027291314393818 13.26342986358108 -81.51790957350613
-8.482281771074268 10.63644491380649 -81.51790957350613
-12.2572522946344 5.902781601416271 -81.51790957350613
-8.75 4.737304436912358 -83.96203457110047
3.013021159517203 10.76049710524256 -83.14322716804449
-3.013021159517142 10.76049710524256 -83.14322716804449
8.75 4.737304436912356 -83.96203457110047
-8.75 14.59747019621487 -85.63233902400205
-8.75 20 -105.4314724875734
-8.75 20 -100
-8.75 20 -94.56852751242656
-8.75 10.6101355851931 -116.9543149917156
-8.75 15.30506779259655 -113.9086299834313
2.916666666666666 5.915203377789644 -120
-2.916666666666668 5.915203377789644 -120
8.75 14.59747019621487 -85.63233902400205
8.75 20 -105.4314724875734
8.75 20 -100
8.75 20 -94.56852751242656
8.75 10.6101355851931 -116.9543149917156
8.75 15.30506779259655 -113.9086299834313
8.75 14.59747019621487 -45.63233902400205
8.75 20 -65.43147248757344
8.75 20 -60.00000000000001
8.75 20 -54.56852751242655
8.75 14.5974701962149 -74.36766097599794
2.916666666666666 20 -49.13705502485311
-2.916666666666668 20 -49.13705502485311
2.916666666666666 20 -30.86294497514689
-2.916666666666668 20 -30.86294497514689
2.916666666666666 20 -70.86294497514689
-2.916666666666668 20 -70.86294497514689
2.916666666666666 20 -89.13705502485311
-2.916666666666668 20 -89.13705502485311
2.916666666666666 20 -110.8629449751469
-2.916666666666668 20 -110.8629449751469
1.333316043045709e-14 6.473558810408087 -84.76467952971467
2.664535259100376e-15 3.956466936148146 -84.76467952971467
7.896280457137443 3.956466936148146 -83.18729804158377
6.461666542375531 9.304424663133329 -81.51790957350613
-9.367713403061599e-15 11.32808248631599 -81.51790957350613
-6.461666542375546 9.304424663133318 -81.51790957350613
-7.89628045713744 3.956466936148146 -83.18729804158379
7.89628045713744 3.956466936148146 -76.81270195841621
3.552713678800501e-15 3.956466936148146 -75.23532047028533
-7.896280457137443 3.956466936148146 -76.81270195841623
6.461666542375531 9.304424663133329 -78.48209042649387
-9.367713403061599e-15 11.32808248631599 -78.48209042649387
-6.461666542375546 9.304424663133318 -78.48209042649387
1.333316043045709e-14 6.473558810408087 -75.23532047028533
1.333316043045709e-14 6.473558810408087 -44.76467952971467
2.664535259100376e-15 3.956466936148146 -44.76467952971467
7.896280457137443 3.956466936148146 -43.18729804158379
6.461666542375531 9.304424663133329 -41.51790957350613
-9.367713403061599e-15 11.32808248631599 -41.51790957350613
-6.461666542375546 9.304424663133318 -41.51790957350613
-7.89628045713744 3.956466936148146 -43.18729804158379
7.89628045713744 3.956466936148146 -36.81270195841621
3.552713678800501e-15 3.956466936148146 -35.23532047028533
-7.896280457137443 3.956466936148146 -36.81270195841621
6.461666542375531 9.304424663133329 -38.48209042649387
-9.367713403061599e-15 11.32808248631599 -38.48209042649387
-6.461666542375546 9.304424663133318 -38.48209042649387
1.333316043045709e-14 6.473558810408087 -35.23532047028533
3.678229768632412 0 -87.70095623557177
1.77635683940025e-15 0 -115.6389960834431
-1.976542827208055 0 -99.44606305900018
2.968306011303226 0 -47.51578581273799
-2.983011436537584 0 -72.2321916858329
-4.153928193231236 0 -31.99578571943752
3.82766528234391 0 -61.09243045122946
-2.806720191452232 0 -4.105236770978223
-3.166678714720081 0 -19.11766023514269
-3.024320405027369 0 -38.38961237511809
-4.74936646868705 0 -79.00554732696358
3.26409102606761 0 -104.339857568762
-4.242042567093108 0 -54.26814102197505
9.815437891017694 0 -39.85011652396219
-9.546673551368634 0 -39.67792247502362
-9.891682764100572 0 -79.80110946539273
9.534257429906232 0 -79.69244011303056
3.166678714720096 0 -12.6705961410856
3.166678714720079 0 -25.56472432919973
3.722397626626208 0 -5.638982619605621
-3.678229768632413 0 -87.70095623557177
3.730786429412332 0 -71.21518529021557
3.405898064209425 0 -42.02178388930299
0.2772685964685948 0 -66.19276132685764
2.060095777138486 0 -31.75385402247123
-1.934166128749498 0 -44.37728942469037
4.133335742944019 0 -19.11766023514267
-3.993993107373157 0 -11.99437060662705
-3.265638736015458 0 -26.59357882744178
-2.911828696407099 0 -60.42850415763958
1.838769387987738 0 -54.33017008341884
2.217636738970275 0 -93.57350964728597
-3.664219560374509 0 -105.3186164707144
4.201036987565966 0 -99.25031127860973
-3.664219560374541 0 -93.57350964728602
2.962239797715348 0 -78.46220056515273
-3.598260609611311 0 -111.7094900948907
3.300186727906194 0 -110.9562521837091
-0.07753395594593204 0 -83.44152555944891
-4.802729315878945 0 -66.13575155589749
5.067144061644967 0 -66.13772668890618
-0.6623925018410626 0 -8.364926966339727
4.175027702073519 0 -36.99787777153183
-4.486433080907071 0 -115.7258183679007
4.486433080907076 0 -115.7258183679007
-5.404292703236834 0 -7.051237504579881
-3.466529482227415 0 -49.30736652739918
-10.95617307682299 2.638320375466121 -43.07969843036766
10.77961962883344 2.576811915614306 -43.2041187679554
13.26342986358108 3.027291314393821 -39.96970050029704
5.90278160141627 12.2572522946344 -40.03029949970296
-13.26342986358108 3.027291314393814 -39.96970050029704
10.63644491380649 8.48228177107427 -40.03029949970297
-5.902781601416273 12.2572522946344 -40.03029949970296
-10.63644491380649 8.48228177107427 -40.03029949970297
0.03891836334426467 13.60446800905252 -40
-10.77961962864833 2.576811915626568 -36.7958812319261
8.75 4.702599573764856 -26.38430502599213
8.75 6.358115850086371 -12.96981644398785
8.75 14.18348044347175 -20.41955319235062
8.75 8.688168907861524 -31.15307576657833
8.75 13.7094166615224 -13.33770462253158
8.75 14.64598642632545 -27.4529667205389
8.75 5.280217580894782 -19.75637851827302
8.75 10.00087918900922 -8.193385812822413
8.75 3.625614583707747 -31.51978461359671
8.75 15.3116499751629 -7.684078058588558
8.75 4.74220315739303 -7.68039137969585
8.75 10.13136206356303 -17.35737970485297
8.75 9.834301502482408 -23.82920416248865
10.25 3.10416666666666 -3
-10.25 3.104166666666674 -3
11.75 20.125 -1.5
11.75 8.624999999999988 -1.5
11.75 14.37499999999999 -1.500000000000001
11.75 2.874999999999994 -1.5
3.157610638484556 18.22886740495932 0
-2.707174061168086 4.878797530676508 0
7.069955745470663 8.71654637064 0
-6.619519168154191 14.39111856499582 0
7.102873022115112 14.37499999999999 0
0.1126091443291166 11.52691623390895 0
-7.000954855602266 8.644857627020134 0
-2.792058517349997 18.15992185565015 0
2.948495529093417 4.721447277005962 0
-7.528051718759411 18.81262893003678 0
7.528051718759418 4.187371069963205 0
7.820492259183635 19.07601590637069 0
-7.553981076842906 4.160878030182232 0
-11.75 20.125 -1.5
-11.75 14.37499999999999 -1.5
-11.75 8.624999999999988 -1.5
-11.75 2.874999999999994 -1.5
-8.75 4.702599573764854 -26.38430502599214
-8.75 6.358115850086381 -12.96981644398787
-8.75 14.18348044347176 -20.41955319235067
-8.75 8.688168907861515 -31.15307576657834
-8.75 13.70941666152241 -13.33770462253161
-8.75 14.64598642632544 -27.45296672053892
-8.75 5.280217580894784 -19.75637851827306
-8.75 10.00087918900927 -8.193385812822431
-8.75 3.625614583707744 -31.51978461359672
-8.75 15.31164997516293 -7.684078058588561
-8.75 4.742203157393049 -7.680391379695847
-8.75 10.13136206356304 -17.35737970485302
-8.75 9.834301502482406 -23.82920416248868
-8.75 15.27095996740746 -57.88606401207925
-8.75 5.089049154327718 -66.31641888798845
-8.75 5.893741883968131 -52.99312970377402
-8.75 9.231084722792747 -71.65206555623303
-8.75 8.595182376334209 -47.05751370535795
-8.75 15.24415911398415 -68.09823472411004
-8.75 5.277669824825666 -59.99999999999999
-8.75 11.12173465802663 -63.04706409405706
-8.75 13.45520006895249 -52.03250926977655
-8.75 4.210656466567376 -71.35278425795076
-8.75 16.32737074788365 -62.89256706356396
-8.75 3.845245739442939 -47.92723304555518
-8.75 10.09677121723799 -57.12351984165325
-10.77961962864633 2.576811915628007 -76.79588123192502
13.2720357429694 2.98933632863241 -80
-13.26342986358108 3.02729131439382 -80.03029949970298
5.90278160141627 12.2572522946344 -79.96970050029704
10.63644491380649 8.482281771074268 -80.03029949970296
-5.902781601416268 12.2572522946344 -79.96970050029704
-10.63644491380649 8.482281771074266 -79.96970050029704
8.3303681868125e-16 13.60452367590791 -79.96970050029704
-10.95617307682383 2.638320375466589 -83.07969843036705
10.77961962883369 2.576811915614126 -83.20411876795526
-8.75 15.25251591547455 -97.75417426422216
-8.75 5.345383244787059 -106.3737341045672
-8.75 4.395050423261464 -92.95047813081301
-8.75 8.574908644146685 -87.52723789558902
-8.75 10.31996109979515 -111.3655419269163
-8.75 15.43212544859626 -107.7777775636186
-8.75 5.085780439625479 -99.44606305900018
-8.75 11.02820476901482 -102.9197311078423
-8.75 14.64434893842516 -91.47644093034062
-8.75 5.357859002644224 -114.2698179330606
-8.75 16.34256922661712 -102.7766310846513
-8.75 3.541452700864101 -87.96833261372922
-8.75 9.830134854991361 -95.34568756463455
5.833333333333333 2.957601688894822 -120
0 2.957601688894822 -120
-5.833333333333336 2.957601688894822 -120
8.75 15.25251591547455 -97.75417426422216
8.75 5.345383244787059 -106.3737341045672
8.75 4.921863446840995 -93.43884664721642
8.75 9.071807516086203 -88.41781685313914
8.75 10.31996109979515 -111.3655419269163
8.75 15.43212544859626 -107.7777775636186
8.75 5.184490041830156 -99.59947216463073
8.75 11.03827717740305 -102.9353850982128
8.75 14.78665969170308 -92.00328317196434
8.75 5.357859002644224 -114.2698179330606
8.75 16.34458370829477 -102.7797618827254
8.75 4.200128019303102 -88.58733313829759
8.75 10.04260229822301 -95.69149636656427
8.75 15.27095996740746 -57.88606401207925
8.75 5.089049154327714 -66.31641888798845
8.75 5.893741883968133 -52.99312970377402
8.75 9.231084722792733 -71.65206555623303
8.75 8.595182376334211 -47.05751370535795
8.75 15.24415911398415 -68.09823472411004
8.75 5.277669824825666 -59.99999999999999
8.75 11.12173465802663 -63.04706409405706
8.75 13.45520006895249 -52.03250926977655
8.75 4.210656466567367 -71.35278425795076
8.75 16.32737074788365 -62.89256706356396
8.75 3.84524573944294 -47.92723304555518
8.75 10.09677121723799 -57.12351984165325
1.06581410364015e-14 15.70686854202718 -46.35202522196842
-4.598191834255383 16.3601085208389 -46.7757934730076
4.598191834255378 16.3601085208389 -46.7757934730076
-3.552713678800501e-15 15.70686854202717 -33.64797477803159
-4.598191834255379 16.36010852083891 -33.2242065269924
4.598191834255371 16.36010852083891 -33.2242065269924
0.05382491930135203 20 -26.16608182582849
-0.07437850538226698 20 -7.716882909866445
3.877543295110209 20 -21.39298390607512
2.950043786968084 20 -13.71923638908264
-2.836743344893732 20 -20.4193806512648
-3.882401899440209 20 -12.53926280057791
4.869606976215644 20 -26.63643288271151
-4.874689414297829 20 -7.244376390846217
4.658466389650497 20 -7.480371108547157
-4.639917018451809 20 -26.44171223174945
8.812499999999986 23 -1.5
2.937499999999966 23 -1.5
-8.812500000000007 23 -1.5
-2.937500000000027 23 -1.499999999999999
1.77635683940025e-15 20 -53.77048825439054
4.597043746970245 20 -62.8358020174887
-4.597043746970243 20 -62.8358020174887
4.655062846717264 20 -57.1454677890445
-4.655062846717261 20 -57.14546778904449
0 20 -66.30666944846398
-5.002742082727384 20 -67.25996678076397
5.002742082727382 20 -67.25996678076397
-5.014345902676785 20 -52.75171872111356
5.014345902676786 20 -52.75171872111356
1.77635683940025e-15 20 -59.88721625118774
1.06581410364015e-14 15.70686854202715 -73.6479747780316
-4.59819183425537 16.36010852083891 -73.2242065269924
4.598191834255372 16.36010852083891 -73.2242065269924
1.06581410364015e-14 15.70686854202714 -86.35202522196839
-4.598191834255379 16.3601085208389 -86.7757934730076
4.598191834255379 16.36010852083891 -86.7757934730076
0 20 -93.77048825439054
-4.597043746970243 20 -102.8358020174887
4.046206845805139 20 -102.7157362437867
-4.655062846717261 20 -97.14546778904449
4.563256696523079 20 -97.12545682676082
-1.064028372416406 20 -105.8783057707085
4.995984672637949 20 -92.74771652865682
-5.014345902676785 20 -92.75171872111356
-5.51813661082177 20 -107.6508236874075
-0.2844452372959481 20 -99.91187615036328
-4.300636900122344 12.95760168889483 -115.4314724875734
4.300636900122345 12.95760168889483 -115.4314724875734
0 9.925601835593669 -117.3983840616656
0 15.93640154387995 -113.4990726870606
-4.943460713357803 9.064749173052178 -117.9568343081909
4.943460713357803 9.064749173052176 -117.9568343081909
4.943460713357801 16.83981420507427 -112.9130130216718
-4.943460713357803 16.83981420507427 -112.9130130216718
-4.104627624566999 6.844664108294303 -83.75643951476218
4.104627624567091 6.844664108294258 -83.75643951476218
-4.461244541043861 3.956466936148146 -81.85362073532207
3.8268592864856 3.956466936148146 -78.21683724119538
-0.6064276075145791 3.956466936148146 -80
3.616032792530905 3.956466936148146 -81.87808662593494
-7.773093149608181 3.956466936148146 -80.04311467437356
7.410808300090647 3.956466936148146 -80.01582064452172
-4.310141066803158 3.956466936148146 -78.19667971811376
-8.947106957260813 6.948001864717242 -80.07271729160708
-3.38556957874831 10.81033632428858 -80.07271729160708
8.947106957260807 6.948001864717249 -79.92728270839291
3.385569578748292 10.81033632428858 -79.92728270839292
-4.104627624567021 6.844664108294292 -76.24356048523782
4.397332583463092 6.846458284955799 -76.34784201486801
-4.104627624566998 6.844664108294301 -43.75643951476219
4.10462762456709 6.844664108294257 -43.75643951476218
-4.461244541043861 3.956466936148146 -41.85362073532206
3.8268592864856 3.956466936148146 -38.21683724119538
-0.6064276075145791 3.956466936148146 -40
3.616032792530905 3.956466936148146 -41.87808662593494
-7.773093149608181 3.956466936148146 -40.04311467437355
7.410808300090647 3.956466936148146 -40.01582064452172
-4.310141066803158 3.956466936148146 -38.19667971811375
-8.947106957260809 6.948001864717246 -40.07271729160708
-3.38556957874831 10.81033632428858 -39.92728270839292
8.972508291336174 6.91516795014284 -40
3.385569578748294 10.81033632428858 -40.07271729160708
-4.104627624567025 6.84466410829429 -36.24356048523782
4.397332583463091 6.846458284955794 -36.34784201486801
0 9.703292206830829 -53.62582977712427
-1.110223024625157e-15 8.854616295232944 -11.09648308009471
8.881784197001252e-15 10.83937884678948 -20.63260794927357
0.0478087879394149 9.776997475349972 -93.19709923883609
-0.5420782055558071 9.091675754109493 -66.50165417929936
-1.77635683940025e-15 9.321506534810895 -106.5249710916769
-1.491149389266916 10.04269361349121 -28.3484083024166
1.920995238665475 12.70757061262284 -99.97577839987436
3.24348014818136 14.32100137009974 -65.19060830363135
-2.047092005959428 12.80626744735307 -60.12010174150315
2.275140549081713 5.346625912834617 -114.0327739629745
-2.426772350660547 13.87468774543373 -5.799826201561933
-3.391097076330628 14.40852098670958 -105.0079884042234
1.746187675571161 6.742305620981297 -59.90209597051456
-2.769615185542714 5.491027705602534 -6.756130401962759

CELLS 2755 12087
1 0
1 1
1 2
1 3
1 4
1 5
1 6
1 7
1 8
1 9
1 10
1 11
1 12
1 13
1 14
1 15
1 16
1 17
1 18
1 19
1 20
1 21
1 22
1 23
1 24
1 25
1 26
1 27
1 28
1 29
1 30
1 31
1 32
1 33
1 34
1 35
1 36
1 37
1 38
1 39
1 40
1 41
1 42
1 43
1 44
1 45
1 46
1 47
1 48
1 49
1 50
1 51
1 52
1 53
1 54
1 55
1 56
1 57
1 58
1 59
1 60
1 61
1 62
1 63
1 64
1 65
2 0 1
2 1 2
2 2 3
2 3 66
2 66 67
2 67 68
2 68 69
2 69 4
2 4 5
2 5 6
2 6 70
2 70 71
2 71 72
2 72 7
2 8 7
2 8 9
2 9 73
2 73 74
2 74 75
2 75 76
2 76 10
2 11 10
2 12 11
2 13 12
2 13 77
2 77 78
2 78 79
2 79 80
2 80 14
2 15 14
2 16 15
2 17 16
2 17 81
2 81 82
2 82 83
2 83 84
2 84 85
2 85 18
2 19 86
2 86 87
2 87 18
2 20 88
2 88 89
2 89 90
2 90 91
2 91 92
2 92 19
2 20 21
2 21 22
2 22 23
2 0 93
2 93 94
2 94 95
2 95 96
2 96 23
2 1 97
2 97 98
2 98 99
2 99 100
2 100 101
2 101 102
2 102 12
2 24 103
2 103 13
2 25 104
2 104 105
2 105 24
2 25 106
2 106 0
2 2 107
2 107 108
2 108 109
2 109 110
2 110 111
2 111 112
2 112 11
2 3 113
2 113 26
2 27 114
2 114 115
2 115 26
2 10 116
2 116 27
2 4 117
2 117 118
2 118 28
2 29 119
2 119 120
2 120 121
2 121 28
2 26 122
2 122 29
2 31 123
2 123 124
2 124 125
2 125 30
2 8 126
2 126 127
2 127 128
2 128 31
2 32 129
2 129 130
2 130 9
2 32 131
2 131 132
2 132 28
2 5 133
2 133 134
2 134 135
2 135 30
2 6 136
2 136 137
2 137 138
2 138 33
2 30 33
2 34 139
2 139 140
2 140 141
2 141 33
2 7 142
2 142 143
2 143 144
2 144 34
2 31 34
2 32 145
2 145 146
2 146 147
2 147 35
2 27 148
2 148 35
2 36 149
2 149 24
2 37 150
2 150 151
2 151 152
2 152 36
2 38 153
2 153 37
2 14 154
2 154 38
2 23 155
2 155 39
2 38 156
2 156 157
2 157 39
2 22 158
2 158 159
2 159 160
2 160 161
2 161 162
2 162 163
2 163 15
2 21 164
2 164 165
2 165 166
2 166 167
2 167 168
2 168 169
2 169 16
2 40 170
2 170 17
2 41 171
2 171 172
2 172 40
2 41 173
2 173 20
2 42 174
2 174 40
2 43 175
2 175 176
2 176 177
2 177 42
2 44 178
2 178 179
2 179 43
2 18 44
2 45 180
2 180 181
2 181 44
2 19 45
2 46 182
2 182 41
2 47 183
2 183 184
2 184 185
2 185 46
2 45 186
2 186 187
2 187 47
2 48 188
2 188 25
2 49 189
2 189 190
2 190 191
2 191 48
2 39 192
2 192 49
2 48 193
2 193 194
2 194 36
2 29 195
2 195 196
2 196 35
2 49 197
2 197 198
2 198 37
2 46 199
2 199 200
2 200 42
2 47 201
2 201 202
2 202 43
2 50 203
2 203 51
2 51 204
2 204 50
2 50 205
2 205 52
2 52 206
2 206 207
2 207 208
2 208 53
2 53 209
2 209 51
2 52 54
2 54 210
2 210 55
2 55 211
2 211 56
2 56 212
2 212 57
2 53 57
2 54 213
2 213 214
2 214 215
2 215 57
2 55 216
2 216 56
2 58 217
2 217 59
2 59 218
2 218 58
2 58 219
2 219 60
2 60 220
2 220 221
2 221 222
2 222 61
2 61 223
2 223 59
2 60 62
2 62 224
2 224 63
2 63 225
2 225 64
2 64 226
2 226 65
2 61 65
2 62 227
2 227 228
2 228 229
2 229 65
2 63 230
2 230 64
3 1 244 0
3 0 234 93
3 0 253 234
3 244 253 0
3 2 244 1
3 3 244 2
3 66 255 3
3 3 273 244
3 255 273 3
3 6 4 5
3 70 4 6
3 4 250 69
3 70 250 4
3 7 8 9
3 9 72 7
3 9 238 72
3 73 276 9
3 9 276 238
3 11 245 10
3 10 236 76
3 10 240 236
3 10 245 240
3 12 245 11
3 13 245 12
3 77 277 13
3 240 245 13
3 13 256 240
3 13 277 256
3 15 246 14
3 14 235 80
3 14 241 235
3 14 246 241
3 16 246 15
3 17 246 16
3 81 251 17
3 241 246 17
3 17 269 241
3 251 269 17
3 18 274 85
3 87 274 18
3 19 275 86
3 92 275 19
3 21 247 20
3 20 231 88
3 20 269 231
3 247 266 20
3 266 269 20
3 22 247 21
3 23 247 22
3 96 252 23
3 23 266 247
3 252 266 23
3 67 249 66
3 249 255 66
3 68 257 67
3 67 257 249
3 69 248 68
3 248 257 68
3 69 250 248
3 71 250 70
3 72 238 71
3 238 250 71
3 74 258 73
3 258 276 73
3 75 239 74
3 239 258 74
3 76 259 75
3 75 259 239
3 236 259 76
3 78 243 77
3 243 277 77
3 79 260 78
3 78 260 243
3 80 270 79
3 79 270 260
3 235 270 80
3 82 265 81
3 81 265 251
3 83 233 82
3 233 265 82
3 84 263 83
3 83 263 233
3 85 267 84
3 84 267 263
3 85 274 267
3 86 232 87
3 86 275 232
3 232 274 87
3 88 262 89
3 231 262 88
3 89 264 90
3 262 264 89
3 90 242 91
3 90 264 242
3 91 268 92
3 242 268 91
3 268 275 92
3 93 261 94
3 234 261 93
3 94 237 95
3 94 261 237
3 95 271 96
3 237 271 95
3 96 271 252
3 251 262 231
3 231 269 251
3 232 268 267
3 267 274 232
3 232 275 268
3 233 263 242
3 242 264 233
3 233 264 262
3 262 265 233
3 253 256 234
3 256 277 234
3 234 277 261
3 241 266 235
3 252 254 235
3 235 266 252
3 254 270 235
3 240 255 236
3 255 259 236
3 237 260 254
3 254 271 237
3 237 261 260
3 238 272 250
3 238 276 272
3 239 257 248
3 248 258 239
3 249 257 239
3 239 259 249
3 240 256 253
3 253 273 240
3 240 273 255
3 241 269 266
3 263 268 242
3 260 261 243
3 261 277 243
3 244 273 253
3 250 272 248
3 248 272 258
3 249 259 255
3 251 265 262
3 252 271 254
3 260 270 254
3 272 276 258
3 267 268 263
3 0 279 1
3 106 279 0
3 1 279 97
3 12 278 13
3 102 278 12
3 13 278 103
3 101 24 102
3 101 105 24
3 103 102 24
3 97 25 98
3 25 97 106
3 104 98 25
3 97 279 106
3 99 98 104
3 100 99 105
3 105 99 104
3 101 100 105
3 103 278 102
3 1 280 2
3 97 280 1
3 2 280 107
3 11 282 12
3 112 282 11
3 12 282 102
3 98 283 97
3 107 280 97
3 97 283 107
3 99 281 98
3 98 281 108
3 108 283 98
3 100 286 99
3 109 281 99
3 99 286 109
3 101 284 100
3 100 284 110
3 110 286 100
3 102 285 101
3 111 284 101
3 101 285 111
3 102 282 112
3 112 285 102
3 107 283 108
3 108 281 109
3 109 286 110
3 110 284 111
3 111 285 112
3 3 2 113
3 107 113 2
3 10 287 11
3 116 287 10
3 11 287 112
3 107 108 26
3 26 113 107
3 26 108 115
3 111 112 27
3 111 27 114
3 116 27 112
3 115 108 109
3 115 109 110
3 111 114 110
3 115 110 114
3 112 287 116
3 3 296 66
3 113 296 3
3 69 298 4
3 4 298 117
3 26 291 113
3 122 291 26
3 118 297 28
3 28 297 121
3 119 293 29
3 29 293 122
3 66 288 67
3 66 296 288
3 67 294 68
3 288 294 67
3 68 289 69
3 68 294 289
3 289 298 69
3 291 296 113
3 117 295 118
3 117 298 295
3 295 297 118
3 120 290 119
3 290 293 119
3 121 292 120
3 120 292 290
3 121 297 292
3 122 293 291
3 288 296 291
3 291 300 288
3 288 300 294
3 292 295 289
3 289 299 292
3 294 299 289
3 295 298 289
3 292 299 290
3 290 300 293
3 299 300 290
3 293 300 291
3 292 297 295
3 294 300 299
3 5 4 301
3 4 117 301
3 133 5 301
3 9 8 302
3 8 126 302
3 130 9 302
3 30 28 125
3 135 28 30
3 28 135 118
3 28 132 125
3 31 123 32
3 31 32 128
3 123 131 32
3 128 32 129
3 134 117 118
3 134 133 117
3 117 133 301
3 135 134 118
3 131 123 124
3 132 124 125
3 132 131 124
3 126 127 130
3 126 130 302
3 127 128 129
3 127 129 130
3 5 306 6
3 133 306 5
3 6 306 136
3 33 303 30
3 30 303 135
3 138 303 33
3 134 304 133
3 133 304 136
3 136 306 133
3 135 305 134
3 137 304 134
3 134 305 137
3 135 303 138
3 138 305 135
3 136 304 137
3 137 305 138
3 6 317 70
3 136 317 6
3 72 319 7
3 7 319 142
3 33 318 138
3 141 318 33
3 34 316 139
3 144 316 34
3 70 315 71
3 70 317 315
3 71 308 72
3 71 315 308
3 308 319 72
3 137 309 136
3 309 317 136
3 138 311 137
3 137 311 309
3 138 318 311
3 139 314 140
3 139 316 314
3 140 307 141
3 140 314 307
3 307 318 141
3 142 313 143
3 142 319 313
3 143 310 144
3 143 313 310
3 310 316 144
3 307 312 311
3 311 318 307
3 307 314 312
3 312 313 308
3 308 315 312
3 313 319 308
3 311 312 309
3 312 315 309
3 315 317 309
3 310 313 312
3 312 314 310
3 314 316 310
3 8 7 323
3 7 142 323
3 126 8 323
3 34 31 320
3 31 128 320
3 144 34 320
3 127 126 322
3 126 142 322
3 142 126 323
3 128 127 321
3 127 143 321
3 143 127 322
3 128 144 320
3 144 128 321
3 142 143 322
3 143 144 321
3 73 9 334
3 9 130 334
3 10 76 332
3 116 10 332
3 27 116 327
3 148 27 327
3 129 32 333
3 32 145 333
3 147 35 329
3 35 148 329
3 74 73 325
3 325 73 334
3 75 74 330
3 74 325 330
3 76 75 324
3 324 75 330
3 76 324 332
3 327 116 332
3 130 129 331
3 331 129 333
3 130 331 334
3 145 146 328
3 145 328 333
3 146 147 326
3 146 326 328
3 326 147 329
3 148 327 329
3 324 327 332
3 327 324 336
3 324 330 336
3 328 325 331
3 325 328 335
3 330 325 335
3 331 325 334
3 328 326 335
3 326 329 336
3 335 326 336
3 329 327 336
3 328 331 333
3 330 335 336
3 77 13 348
3 13 103 348
3 14 80 346
3 154 14 346
3 103 24 341
3 24 149 341
3 149 36 345
3 36 152 345
3 150 37 342
3 37 153 342
3 153 38 340
3 38 154 340
3 78 77 339
3 339 77 348
3 79 78 343
3 78 339 343
3 80 79 338
3 338 79 343
3 80 338 346
3 103 341 348
3 341 149 345
3 151 150 347
3 150 342 347
3 152 151 337
3 337 151 347
3 152 337 345
3 153 340 342
3 340 154 346
3 344 337 347
3 337 344 349
3 345 337 349
3 340 338 344
3 338 340 346
3 338 343 344
3 339 341 345
3 341 339 348
3 343 339 349
3 339 345 349
3 342 340 344
3 342 344 347
3 344 343 349
3 14 350 15
3 154 350 14
3 15 350 163
3 23 22 155
3 158 155 22
3 154 38 163
3 162 38 156
3 162 163 38
3 39 155 158
3 39 159 157
3 158 159 39
3 163 350 154
3 156 157 160
3 156 160 161
3 162 156 161
3 157 159 160
3 15 352 16
3 163 352 15
3 16 352 169
3 21 351 22
3 164 351 21
3 22 351 158
3 158 354 159
3 158 351 164
3 164 354 158
3 159 353 160
3 165 353 159
3 159 354 165
3 160 357 161
3 160 353 166
3 166 357 160
3 161 355 162
3 167 355 161
3 161 357 167
3 162 356 163
3 162 355 168
3 168 356 162
3 169 352 163
3 163 356 169
3 165 354 164
3 166 353 165
3 167 357 166
3 168 355 167
3 169 356 168
3 16 358 17
3 169 358 16
3 17 358 170
3 20 359 21
3 173 359 20
3 21 359 164
3 168 40 169
3 168 172 40
3 170 169 40
3 164 41 165
3 41 164 173
3 171 165 41
3 164 359 173
3 166 165 171
3 167 166 172
3 172 166 171
3 168 167 172
3 170 358 169
3 81 17 371
3 17 170 371
3 44 18 369
3 18 85 369
3 170 40 363
3 40 174 363
3 174 42 368
3 42 177 368
3 175 43 365
3 43 179 365
3 178 44 369
3 82 81 362
3 362 81 371
3 83 82 366
3 82 362 366
3 84 83 361
3 361 83 366
3 85 84 369
3 84 361 369
3 170 363 371
3 363 174 368
3 176 175 370
3 175 365 370
3 177 176 360
3 360 176 370
3 177 360 368
3 179 178 364
3 364 178 369
3 179 364 365
3 367 360 370
3 360 367 372
3 368 360 372
3 364 361 367
3 361 364 369
3 361 366 367
3 363 362 371
3 362 363 372
3 366 362 372
3 363 368 372
3 365 364 367
3 365 367 370
3 367 366 372
3 44 375 18
3 18 375 87
3 19 373 45
3 86 373 19
3 181 375 44
3 45 373 180
3 87 374 86
3 86 374 373
3 87 375 374
3 180 374 181
3 373 374 180
3 374 375 181
3 45 385 19
3 19 385 92
3 88 387 20
3 20 387 173
3 173 379 41
3 41 379 182
3 186 385 45
3 182 384 46
3 46 384 185
3 183 381 47
3 47 381 187
3 89 378 88
3 378 387 88
3 90 382 89
3 89 382 378
3 91 377 90
3 377 382 90
3 92 385 91
3 91 385 377
3 173 387 379
3 379 384 182
3 184 386 183
3 183 386 381
3 185 376 184
3 376 386 184
3 185 384 376
3 187 380 186
3 380 385 186
3 187 381 380
3 383 386 376
3 376 388 383
3 384 388 376
3 380 383 377
3 377 385 380
3 377 383 382
3 379 387 378
3 378 388 379
3 382 388 378
3 379 388 384
3 381 383 380
3 381 386 383
3 383 388 382
3 93 400 0
3 0 400 106
3 23 398 96
3 155 398 23
3 106 393 25
3 25 393 188
3 39 392 155
3 192 392 39
3 188 397 48
3 48 397 191
3 189 394 49
3 49 394 192
3 94 391 93
3 391 400 93
3 95 395 94
3 94 395 391
3 96 390 95
3 390 395 95
3 96 398 390
3 106 400 393
3 392 398 155
3 393 397 188
3 190 399 189
3 189 399 394
3 191 389 190
3 389 399 190
3 191 397 389
3 192 394 392
3 396 399 389
3 389 401 396
3 397 401 389
3 392 396 390
3 390 398 392
3 390 396 395
3 391 397 393
3 393 400 391
3 395 401 391
3 391 401 397
3 394 396 392
3 394 399 396
3 396 401 395
3 105 149 24
3 104 25 188
3 149 403 36
3 36 403 194
3 48 404 188
3 193 404 48
3 104 402 105
3 188 404 104
3 104 404 402
3 105 403 149
3 402 403 105
3 194 402 193
3 402 404 193
3 194 403 402
3 122 26 115
3 27 148 114
3 122 407 29
3 29 407 195
3 35 406 148
3 196 406 35
3 114 405 115
3 148 406 114
3 114 406 405
3 115 407 122
3 405 407 115
3 195 405 196
3 195 407 405
3 405 406 196
3 121 416 28
3 28 416 132
3 29 414 119
3 195 414 29
3 131 415 32
3 32 415 145
3 147 417 35
3 35 417 196
3 119 410 120
3 119 414 410
3 120 411 121
3 410 411 120
3 411 416 121
3 132 409 131
3 409 415 131
3 132 416 409
3 145 413 146
3 145 415 413
3 146 412 147
3 146 413 412
3 412 417 147
3 196 408 195
3 408 414 195
3 196 417 408
3 408 412 410
3 410 414 408
3 408 417 412
3 411 413 409
3 409 416 411
3 413 415 409
3 410 412 411
3 412 413 411
3 30 418 33
3 125 418 30
3 34 420 31
3 31 420 123
3 33 418 141
3 139 420 34
3 123 421 124
3 123 420 139
3 139 421 123
3 124 419 125
3 140 419 124
3 124 421 140
3 141 418 125
3 125 419 141
3 140 421 139
3 141 419 140
3 36 430 152
3 194 430 36
3 150 428 37
3 37 428 198
3 191 431 48
3 48 431 193
3 49 429 189
3 197 429 49
3 151 424 150
3 424 428 150
3 152 426 151
3 151 426 424
3 152 430 426
3 189 423 190
3 189 429 423
3 190 425 191
3 423 425 190
3 425 431 191
3 193 422 194
3 193 431 422
3 422 430 194
3 198 427 197
3 427 429 197
3 198 428 427
3 422 431 425
3 425 432 422
3 426 430 422
3 422 432 426
3 423 432 425
3 423 429 427
3 427 432 423
3 426 432 424
3 427 428 424
3 424 432 427
3 37 434 153
3 198 434 37
3 153 156 38
3 192 39 157
3 192 435 49
3 49 435 197
3 153 434 156
3 156 433 157
3 156 434 433
3 157 435 192
3 433 435 157
3 197 433 198
3 197 435 433
3 433 434 198
3 40 172 174
3 171 41 182
3 174 437 42
3 42 437 200
3 46 438 182
3 199 438 46
3 171 436 172
3 182 438 171
3 171 438 436
3 172 437 174
3 436 437 172
3 200 436 199
3 436 438 199
3 200 437 436
3 42 446 177
3 200 446 42
3 175 447 43
3 43 447 202
3 185 445 46
3 46 445 199
3 201 183 47
3 176 440 175
3 440 447 175
3 177 442 176
3 176 442 440
3 177 446 442
3 183 441 184
3 201 441 183
3 184 443 185
3 441 443 184
3 443 445 185
3 199 439 200
3 199 445 439
3 439 446 200
3 202 444 201
3 201 444 441
3 202 447 444
3 442 446 439
3 439 448 442
3 439 445 443
3 443 448 439
3 442 448 440
3 444 447 440
3 440 448 444
3 441 448 443
3 444 448 441
3 43 456 179
3 202 456 43
3 178 453 44
3 44 453 181
3 180 454 45
3 45 454 186
3 187 455 47
3 47 455 201
3 179 449 178
3 449 453 178
3 179 456 449
3 181 451 180
3 451 454 180
3 181 453 451
3 186 450 187
3 186 454 450
3 450 455 187
3 201 452 202
3 201 455 452
3 452 456 202
3 449 452 451
3 451 453 449
3 449 456 452
3 451 452 450
3 450 454 451
3 452 455 450
3 203 204 50
3 204 203 51
3 203 50 458
3 50 205 458
3 51 203 457
3 209 51 457
3 52 206 205
3 208 53 209
3 203 207 457
3 207 203 458
3 205 206 458
3 206 207 458
3 207 208 457
3 208 209 457
3 204 462 50
3 50 462 205
3 51 459 204
3 209 459 51
3 52 464 54
3 205 464 52
3 57 463 53
3 53 463 209
3 54 464 210
3 210 460 55
3 55 460 211
3 211 465 56
3 56 465 212
3 212 463 57
3 459 461 204
3 461 462 204
3 462 464 205
3 209 463 459
3 210 464 460
3 460 461 211
3 461 465 211
3 212 465 463
3 459 465 461
3 463 465 459
3 460 462 461
3 460 464 462
3 52 54 468
3 206 52 468
3 57 53 466
3 53 208 466
3 54 213 468
3 215 57 466
3 207 206 469
3 213 206 468
3 206 213 469
3 208 207 467
3 207 214 467
3 214 207 469
3 208 215 466
3 215 208 467
3 213 214 469
3 214 215 467
3 54 210 213
3 210 55 471
3 55 216 471
3 56 212 470
3 216 56 470
3 215 212 57
3 213 210 471
3 212 215 470
3 214 213 471
3 215 214 470
3 214 216 470
3 216 214 471
3 211 216 55
3 56 216 211
3 217 218 58
3 218 217 59
3 217 58 473
3 58 219 473
3 59 217 472
3 223 59 472
3 60 220 219
3 222 61 223
3 217 221 472
3 221 217 473
3 219 220 473
3 220 221 473
3 221 222 472
3 222 223 472
3 218 477 58
3 58 477 219
3 59 474 218
3 223 474 59
3 60 479 62
3 219 479 60
3 65 478 61
3 61 478 223
3 62 479 224
3 224 475 63
3 63 475 225
3 225 480 64
3 64 480 226
3 226 478 65
3 474 476 218
3 476 477 218
3 477 479 219
3 223 478 474
3 224 479 475
3 475 476 225
3 476 480 225
3 226 480 478
3 474 480 476
3 478 480 474
3 475 477 476
3 475 479 477
3 60 62 483
3 220 60 483
3 65 61 481
3 61 222 481
3 62 227 483
3 229 65 481
3 221 220 484
3 227 220 483
3 220 227 484
3 222 221 482
3 221 228 482
3 228 221 484
3 222 229 481
3 229 222 482
3 227 228 484
3 228 229 482
3 62 224 227
3 224 63 486
3 63 230 486
3 64 226 485
3 230 64 485
3 229 226 65
3 227 224 486
3 226 229 485
3 228 227 486
3 229 228 485
3 228 230 485
3 230 228 486
3 225 230 63
3 230 225 64
4 291 63 296 493
4 442 439 446 490
4 264 492 233 494
4 431 422 425 487
4 264 382 492 494
4 442 446 360 490
4 366 233 492 494
4 264 233 490 494
4 366 490 233 494
4 264 490 382 494
4 414 489 408 493
4 428 424 347 496
4 335 488 330 489
4 294 488 299 489
4 430 426 422 496
4 255 296 63 493
4 264 382 242 492
4 443 445 439 494
4 296 288 291 493
4 294 257 488 489
4 414 293 489 493
4 198 428 434 427
4 446 439 200 490
4 335 325 330 488
4 289 299 294 488
4 199 439 445 490
4 337 426 430 496
4 59 472 217 487
4 473 58 217 487
4 233 264 242 492
4 117 312 295 488
4 264 378 382 490
4 414 408 195 407
4 451 449 453 497
4 428 347 342 496
4 364 453 449 497
4 289 294 257 488
4 330 259 324 489
4 50 387 231 490
4 296 255 288 493
4 430 422 487 496
4 428 495 427 496
4 416 488 297 498
4 428 427 424 496
4 252 398 55 491
4 437 446 200 490
4 416 409 488 498
4 442 490 360 494
4 117 295 298 488
4 445 490 439 494
4 368 360 446 490
4 457 203 51 490
4 324 489 259 493
4 439 490 442 494
4 389 487 425 496
4 199 445 438 490
4 408 407 414 493
4 458 50 203 490
4 413 488 328 489
4 422 425 487 496
4 371 51 362 363
4 58 234 391 400
4 366 362 265 490
4 118 297 295 498
4 265 233 366 490
4 117 488 298 501
4 428 342 491 496
4 434 428 342 491
4 372 490 366 494
4 384 490 445 494
4 341 472 59 487
4 473 393 58 487
4 428 491 495 496
4 64 225 230 493
4 414 407 293 493
4 295 488 312 498
4 193 402 422 487
4 422 402 194 487
4 288 489 300 493
4 64 332 236 493
4 379 387 50 490
4 201 455 381 492
4 234 58 391 487
4 343 487 243 500
4 367 366 492 494
4 195 408 405 407
4 118 295 312 498
4 416 297 132 498
4 297 488 295 498
4 118 132 297 498
4 408 489 417 493
4 64 236 225 493
4 336 330 324 489
4 294 300 288 489
4 410 408 414 489
4 330 488 239 489
4 329 417 489 493
4 433 198 434 427
4 274 181 453 497
4 410 414 293 489
4 326 329 417 489
4 445 384 438 490
4 389 401 487 496
4 436 200 439 490
4 239 488 257 489
4 58 391 393 400
4 341 59 348 339
4 336 489 324 493
4 430 487 345 496
4 199 436 439 490
4 264 262 378 490
4 56 216 470 491
4 335 328 488 489
4 292 299 488 489
4 364 449 492 497
4 339 59 348 277
4 389 495 401 496
4 381 441 444 499
4 416 411 297 488
4 404 402 193 487
4 403 194 402 487
4 234 261 218 487
4 271 390 252 491
4 455 452 450 492
4 337 430 345 496
4 325 239 330 488
4 411 488 413 489
4 368 446 437 490
4 346 338 270 491
4 288 249 489 493
4 252 390 398 491
4 391 58 393 487
4 339 341 59 487
4 343 339 243 487
4 404 431 397 487
4 403 345 430 487
4 369 492 267 497
4 416 409 411 488
4 59 277 339 487
4 458 379 50 490
4 225 236 259 493
4 405 407 408 493
4 343 349 487 500
4 401 496 495 500
4 392 55 398 491
4 292 488 411 489
4 363 51 362 490
4 117 315 309 312
4 218 261 277 487
4 456 449 452 499
4 387 378 262 490
4 436 437 200 490
4 425 495 389 496
4 448 439 442 494
4 294 288 249 489
4 422 432 425 496
4 264 233 262 490
4 381 492 441 499
4 392 216 55 491
4 199 438 436 490
4 455 201 452 492
4 413 488 409 498
4 367 372 366 494
4 292 290 299 489
4 328 335 326 489
4 306 5 301 133
4 8 126 323 302
4 330 239 259 489
4 363 457 51 490
4 432 423 425 495
4 448 494 442 499
4 254 271 252 491
4 453 364 369 497
4 442 494 360 499
4 455 450 380 492
4 332 259 236 493
4 401 487 496 500
4 300 489 293 493
4 441 492 381 494
4 378 388 382 490
4 254 252 211 491
4 390 491 271 500
4 432 495 425 496
4 292 297 411 488
4 55 216 392 471
4 473 217 104 487
4 472 105 217 487
4 382 490 388 494
4 343 349 339 487
4 249 259 489 493
4 277 218 234 261
4 379 378 387 490
4 235 56 346 491
4 425 423 389 495
4 289 257 248 488
4 343 243 260 500
4 231 387 262 490
4 324 259 332 493
4 433 157 435 491
4 441 381 386 494
4 349 496 487 500
4 382 377 242 492
4 290 410 293 489
4 440 448 442 499
4 196 408 417 493
4 297 292 295 488
4 412 328 326 489
4 360 490 372 494
4 404 393 104 487
4 403 105 341 487
4 343 496 349 500
4 271 491 254 500
4 263 366 233 492
4 369 361 267 492
4 492 494 441 499
4 204 231 262 490
4 249 257 294 489
4 455 380 381 492
4 412 413 328 489
4 366 372 362 490
4 234 391 261 487
4 288 300 291 493
4 341 105 472 487
4 473 104 393 487
4 298 488 250 501
4 166 172 171 207
4 160 156 214 157
4 99 105 104 221
4 110 115 114 228
4 292 411 290 489
4 258 239 325 488
4 274 453 369 497
4 346 270 235 491
4 115 230 486 493
4 364 492 369 497
4 216 157 433 491
4 293 407 291 493
4 404 397 393 487
4 345 403 341 487
4 343 491 496 500
4 440 442 360 499
4 343 260 491 500
4 336 329 489 493
4 56 340 346 491
4 172 203 457 490
4 332 64 327 493
4 272 250 488 501
4 417 412 326 489
4 329 326 336 489
4 300 290 293 489
4 470 216 156 491
4 406 196 417 493
4 417 408 412 489
4 196 405 408 493
4 312 498 488 501
4 433 491 435 495
4 402 404 104 487
4 403 402 105 487
4 449 492 452 499
4 203 171 458 490
4 401 397 389 487
4 456 364 449 499
4 255 225 259 493
4 382 383 492 494
4 402 104 217 487
4 105 402 217 487
4 328 488 413 498
4 239 248 257 488
4 265 262 233 490
4 216 433 156 491
4 360 372 367 494
4 300 293 291 493
4 367 494 492 499
4 452 492 201 499
4 243 339 277 487
4 259 236 225 255
4 413 411 409 488
4 423 399 389 495
4 434 156 433 491
4 360 494 367 499
4 249 288 255 493
4 392 398 390 491
4 54 22 158 155
4 107 2 113 62
4 389 396 401 495
4 211 235 254 491
4 381 383 386 494
4 360 370 440 499
4 290 411 410 489
4 361 366 263 492
4 291 407 115 493
4 401 495 396 500
4 56 470 340 491
4 239 249 259 489
4 260 254 270 491
4 216 392 157 491
4 243 487 261 500
4 384 379 438 490
4 277 261 243 487
4 437 436 172 490
4 311 118 312 498
4 379 171 438 490
4 392 435 157 491
4 388 490 384 494
4 360 368 372 490
4 444 201 441 381
4 376 388 384 494
4 438 171 436 490
4 485 64 230 493
4 437 172 363 490
4 435 491 392 495
4 436 203 172 490
4 196 406 405 493
4 436 171 203 490
4 369 364 361 492
4 364 492 449 499
4 412 411 413 489
4 257 249 239 489
4 9 130 302 319
4 437 363 368 490
4 381 492 383 494
4 361 367 366 492
4 444 452 201 499
4 117 4 301 317
4 458 171 379 490
4 115 486 291 493
4 324 332 327 493
4 471 216 392 157
4 382 383 377 492
4 406 417 329 493
4 181 274 232 497
4 347 344 342 496
4 345 487 349 496
4 267 274 369 497
4 380 492 450 497
4 172 457 363 490
4 331 488 328 498
4 345 349 337 496
4 115 407 405 493
4 237 390 271 500
4 248 272 250 488
4 213 54 468 39
4 61 24 481 222
4 53 40 466 208
4 443 439 448 494
4 254 491 260 500
4 233 242 263 492
4 311 312 307 498
4 267 492 268 497
4 325 335 328 488
4 289 292 299 488
4 426 432 422 496
4 237 271 254 500
4 416 132 409 498
4 258 248 239 488
4 270 254 235 491
4 248 250 298 488
4 343 491 344 496
4 434 340 156 491
4 392 491 390 495
4 391 261 487 500
4 220 60 25 483
4 434 342 340 491
4 339 345 341 487
4 393 397 391 487
4 324 330 75 259
4 344 491 342 496
4 263 267 361 492
4 432 424 427 496
4 336 335 330 489
4 299 300 294 489
4 401 391 487 500
4 485 327 64 493
4 325 328 331 488
4 295 292 289 488
4 390 491 396 495
4 298 295 289 488
4 346 340 338 491
4 146 412 328 326
4 227 62 483 26
4 470 156 340 491
4 331 498 130 501
4 388 379 384 490
4 129 130 331 498
4 338 344 343 491
4 388 378 379 490
4 235 211 254 252
4 206 52 41 468
4 38 57 466 215
4 451 453 181 497
4 374 181 232 497
4 372 363 362 490
4 400 234 391 93
4 374 181 274 232
4 456 202 447 499
4 412 410 411 489
4 267 232 274 497
4 377 268 492 497
4 255 259 249 493
4 333 331 328 498
4 456 365 364 499
4 396 491 390 500
4 243 261 260 500
4 391 397 401 487
4 339 349 345 487
4 242 377 268 492
4 27 65 481 229
4 197 427 433 495
4 263 268 267 492
4 202 456 452 499
4 94 395 237 500
4 298 289 248 488
4 328 413 333 498
4 272 488 258 501
4 363 372 368 490
4 377 492 380 497
4 347 424 337 496
4 146 412 413 328
4 258 488 325 501
4 230 115 405 493
4 371 81 362 265
4 114 230 405 493
4 9 130 319 276
4 202 452 444 499
4 380 383 381 492
4 418 33 141 318
4 319 276 130 501
4 410 412 408 489
4 129 415 131 498
4 415 131 32 129
4 34 316 420 139
4 426 337 424 496
4 319 238 276 501
4 238 9 319 276
4 432 427 495 496
4 217 105 104 402
4 115 405 114 230
4 203 436 172 171
4 433 216 156 157
4 415 333 413 498
4 242 268 263 492
4 395 390 237 500
4 261 94 237 500
4 68 294 257 289
4 130 498 313 501
4 323 142 7 319
4 411 292 290 120
4 435 392 394 495
4 237 271 390 95
4 306 317 6 136
4 258 272 248 488
4 335 336 326 489
4 299 290 300 489
4 138 33 303 318
4 392 390 396 495
4 424 347 337 151
4 399 389 190 423
4 193 194 422 402
4 129 313 130 498
4 199 436 200 439
4 365 456 447 499
4 320 316 34 144
4 331 488 498 501
4 325 488 331 501
4 204 251 262 231
4 401 395 391 500
4 405 196 408 195
4 270 338 79 343
4 118 28 297 132
4 290 410 411 120
4 416 297 28 132
4 329 417 147 326
4 327 114 406 493
4 325 74 330 239
4 426 424 337 151
4 389 425 190 423
4 421 140 139 314
4 367 492 364 499
4 239 75 330 259
4 329 327 406 493
4 197 433 435 495
4 366 362 82 265
4 313 498 312 501
4 310 144 321 143
4 239 325 74 258
4 129 333 415 498
4 198 433 197 427
4 426 424 432 496
4 343 344 349 496
4 140 307 419 141
4 233 366 82 265
4 129 32 415 333
4 396 495 491 500
4 399 396 389 495
4 370 360 367 499
4 260 270 79 343
4 234 261 391 93
4 308 312 315 501
4 419 132 124 125
4 123 124 421 131
4 185 445 443 376
4 131 132 314 498
4 89 264 378 382
4 247 462 266 464
4 130 9 334 276
4 130 276 334 501
4 462 20 205 464
4 81 371 251 265
4 207 206 458 171
4 208 207 457 172
4 215 214 156 470
4 221 220 473 104
4 222 221 472 105
4 229 228 114 485
4 340 342 344 491
4 435 429 197 495
4 383 382 388 494
4 315 250 238 501
4 214 213 157 471
4 228 227 115 486
4 380 377 383 492
4 245 223 478 474
4 364 367 361 492
4 440 447 370 175
4 380 450 454 497
4 20 462 247 464
4 308 313 312 501
4 495 496 491 500
4 304 309 136 137
4 294 249 288 67
4 327 485 114 493
4 411 416 297 121
4 442 360 446 177
4 441 386 376 494
4 415 413 409 498
4 462 50 20 231
4 88 262 387 378
4 138 305 137 311
4 485 230 114 493
4 409 132 131 498
4 338 340 344 491
4 78 343 339 243
4 257 248 68 289
4 447 202 444 499
4 395 396 390 500
4 143 322 313 142
4 390 395 237 95
4 406 114 405 493
4 250 315 317 117
4 131 310 129 498
4 90 242 264 382
4 107 2 62 280
4 443 441 376 494
4 417 412 147 326
4 445 185 384 376
4 336 324 327 493
4 343 78 260 243
4 304 133 117 134
4 322 127 130 126
4 429 427 197 495
4 307 314 132 498
4 309 311 118 312
4 427 423 432 495
4 334 258 325 501
4 254 260 237 500
4 431 425 191 389
4 430 426 337 152
4 373 454 180 497
4 117 4 317 250
4 257 249 294 67
4 158 22 54 351
4 238 250 272 501
4 264 262 89 378
4 332 324 76 259
4 38 156 215 162
4 168 40 172 208
4 39 157 159 213
4 101 24 105 222
4 171 41 165 206
4 25 104 220 98
4 429 435 394 495
4 327 148 406 114
4 407 291 115 122
4 447 365 370 175
4 411 297 292 121
4 308 315 238 501
4 397 404 393 188
4 149 345 403 341
4 382 90 242 377
4 370 447 440 499
4 446 360 368 177
4 334 325 331 501
4 236 332 76 259
4 125 28 30 418
4 32 31 420 123
4 258 334 276 501
4 387 231 262 88
4 339 348 77 277
4 245 478 226 480
4 336 327 329 493
4 321 128 129 127
4 134 305 135 118
4 315 238 250 71
4 111 114 27 229
4 26 115 108 227
4 444 202 201 452
4 320 34 316 420
4 404 104 393 188
4 341 403 149 105
4 148 406 329 327
4 407 293 291 122
4 448 440 444 499
4 377 380 385 497
4 180 181 374 497
4 465 241 461 211
4 274 375 181 374
4 180 374 373 275
4 337 345 430 152
4 397 431 191 389
4 429 423 399 189
4 150 428 424 347
4 394 392 396 495
4 475 225 476 273
4 237 260 261 500
4 319 308 238 501
4 4 117 298 250
4 443 448 441 494
4 374 373 275 86
4 375 274 87 374
4 423 429 399 495
4 451 454 450 497
4 320 31 32 128
4 30 28 135 303
4 437 368 363 174
4 367 364 365 499
4 465 56 241 211
4 243 339 77 277
4 379 182 438 171
4 377 385 268 497
4 429 399 394 189
4 150 428 347 342
4 370 365 447 499
4 80 346 338 270
4 437 363 172 174
4 315 308 238 71
4 233 83 366 263
4 132 307 311 318
4 307 312 314 498
4 401 396 395 500
4 182 438 384 379
4 35 406 196 417
4 180 374 275 497
4 129 310 313 498
4 404 431 48 397
4 403 345 36 430
4 386 383 376 494
4 246 209 463 241
4 84 369 361 267
4 238 319 9 72
4 456 43 365 447
4 250 70 4 317
4 130 308 319 501
4 80 346 270 235
4 450 186 380 454
4 310 312 313 498
4 453 178 364 449
4 29 293 414 407
4 195 29 414 407
4 399 429 394 495
4 266 461 241 211
4 361 366 83 263
4 373 385 454 497
4 46 438 445 384
4 275 373 180 497
4 35 406 417 329
4 303 33 418 318
4 374 232 275 497
4 315 70 250 317
4 455 47 201 381
4 415 145 413 333
4 69 248 250 298
4 455 450 187 380
4 180 451 181 497
4 179 364 449 456
4 441 201 183 381
4 383 388 376 494
4 381 455 187 380
4 391 261 94 93
4 364 179 365 456
4 258 334 73 276
4 331 333 129 498
4 347 337 344 496
4 454 385 380 497
4 334 331 130 501
4 375 44 369 453
4 373 45 454 385
4 20 269 462 231
4 258 276 272 501
4 381 183 441 386
4 462 20 50 205
4 369 84 85 267
4 27 114 148 327
4 115 26 122 291
4 4 301 317 306
4 131 314 310 498
4 328 413 145 333
4 298 69 248 289
4 374 274 87 232
4 86 275 374 232
4 9 323 319 302
4 446 42 368 437
4 128 129 144 321
4 308 130 313 501
4 266 241 235 211
4 434 428 37 342
4 435 394 49 429
4 72 238 319 308
4 20 269 266 462
4 42 446 200 437
4 235 266 211 252
4 46 438 199 445
4 255 3 63 296
4 241 209 463 459
4 275 385 373 497
4 82 83 366 233
4 49 435 429 197
4 37 198 428 434
4 392 435 192 157
4 434 156 340 153
4 349 344 337 496
4 325 334 73 258
4 429 423 427 495
4 316 131 314 310
4 267 268 232 497
4 47 183 201 381
4 477 475 476 253
4 253 477 475 479
4 462 266 20 247
4 415 409 131 498
4 253 244 219 479
4 85 369 274 375
4 361 84 267 263
4 41 171 182 379
4 192 394 435 392
4 342 434 340 153
4 385 377 268 91
4 225 240 476 273
4 234 58 0 400
4 240 256 13 474
4 209 463 358 246
4 477 476 218 253
4 292 411 121 120
4 13 245 240 474
4 225 236 240 255
4 273 476 475 253
4 430 345 36 152
4 431 191 48 397
4 274 369 85 267
4 327 332 116 64
4 325 73 74 258
4 464 460 266 210
4 440 447 444 499
4 48 193 431 404
4 36 403 430 194
4 385 275 373 92
4 412 146 147 326
4 47 455 187 381
4 78 260 79 343
4 242 268 377 91
4 296 255 3 66
4 365 179 43 456
4 44 375 181 453
4 454 180 45 373
4 77 78 339 243
4 379 50 387 173
4 157 471 216 214
4 228 115 230 486
4 88 89 262 378
4 41 205 52 206
4 25 219 60 220
4 223 24 61 222
4 209 40 53 208
4 212 38 215 57
4 186 380 454 385
4 178 369 453 364
4 413 145 146 328
4 245 13 223 474
4 447 456 43 202
4 273 225 240 255
4 314 312 310 498
4 211 266 55 252
4 95 271 390 96
4 252 23 55 398
4 75 76 324 259
4 462 460 266 464
4 69 68 248 289
4 105 24 149 341
4 104 188 25 393
4 256 277 59 218
4 443 184 185 376
4 414 293 29 119
4 226 27 229 65
4 219 477 253 479
4 235 241 56 211
4 410 290 119 120
4 250 70 315 71
4 445 185 46 384
4 322 127 313 130
4 304 117 309 134
4 485 327 116 64
4 14 56 346 235
4 369 85 18 375
4 369 18 44 375
4 373 19 45 385
4 218 256 277 234
4 91 268 385 92
4 458 50 379 173
4 268 275 385 92
4 266 247 464 210
4 400 0 234 93
4 417 147 35 329
4 476 256 218 253
4 172 40 174 363
4 398 252 23 96
4 256 59 13 474
4 138 135 305 311
4 63 291 296 113
4 317 6 4 306
4 322 127 143 313
4 64 236 240 225
4 137 304 309 134
4 144 129 310 321
4 116 27 327 485
4 323 7 9 319
4 218 474 256 476
4 94 237 395 95
4 274 18 85 375
4 175 370 440 176
4 269 17 51 251
4 463 212 350 246
4 346 80 14 235
4 373 19 385 92
4 240 476 273 253
4 368 42 446 177
4 347 424 150 151
4 423 190 399 189
4 32 145 415 333
4 268 385 275 497
4 131 124 140 132
4 244 253 273 479
4 360 442 176 177
4 69 250 4 298
4 332 76 10 236
4 153 38 156 340
4 157 39 192 392
4 23 55 266 252
4 207 458 203 171
4 217 104 221 473
4 457 172 207 203
4 470 156 216 214
4 228 114 485 230
4 105 472 217 221
4 406 35 148 329
4 407 29 293 122
4 458 379 41 173
4 273 244 479 224
4 314 131 140 132
4 236 10 332 64
4 68 257 294 67
4 400 393 58 106
4 348 103 59 341
4 477 218 58 253
4 253 475 273 479
4 53 358 463 246
4 19 373 275 92
4 154 346 56 340
4 447 43 365 175
4 397 48 404 188
4 36 149 345 403
4 476 240 256 253
4 82 362 81 265
4 28 297 416 121
4 73 334 9 276
4 44 369 453 178
4 454 45 186 385
4 348 59 13 277
4 428 150 37 342
4 394 49 429 189
4 371 170 51 363
4 264 89 90 382
4 377 90 242 91
4 330 74 75 239
4 365 370 367 499
4 238 272 276 501
4 118 135 28 318
4 46 182 438 384
4 246 463 212 241
4 454 451 180 497
4 0 253 244 219
4 316 129 144 128
4 478 223 245 278
4 240 245 226 480
4 63 486 291 113
4 86 374 87 232
4 223 13 59 474
4 135 305 311 118
4 79 80 338 270
4 152 426 337 151
4 425 190 191 389
4 470 154 56 340
4 479 475 273 224
4 320 316 32 420
4 64 240 226 480
4 350 14 15 246
4 394 396 399 495
4 17 51 209 459
4 55 266 211 460
4 55 266 460 210
4 211 266 461 460
4 13 77 348 277
4 249 288 67 66
4 187 450 186 380
4 179 364 178 449
4 129 316 32 128
4 392 55 155 398
4 463 350 57 246
4 463 358 53 209
4 223 478 61 278
4 291 486 26 113
4 225 475 63 273
4 301 317 306 136
4 341 103 59 472
4 393 473 58 106
4 236 240 10 64
4 319 323 142 302
4 49 192 394 435
4 37 434 342 153
4 253 58 0 234
4 253 218 58 234
4 241 17 209 459
4 273 3 63 255
4 277 59 13 256
4 212 14 350 246
4 474 240 256 476
4 269 461 241 266
4 118 311 135 318
4 470 38 154 340
4 24 61 481 102
4 40 53 466 169
4 39 54 468 158
4 307 314 140 132
4 125 141 132 318
4 246 17 209 241
4 247 266 23 210
4 131 421 139 314
4 245 226 10 240
4 7 9 319 72
4 308 72 238 71
4 460 266 461 462
4 311 138 135 318
4 56 14 346 154
4 10 226 332 64
4 266 55 23 210
4 42 368 437 174
4 24 103 341 472
4 393 25 473 106
4 457 51 170 363
4 269 51 459 204
4 56 14 241 235
4 70 6 4 317
4 480 64 240 225
4 58 477 253 219
4 25 60 97 483
4 226 10 240 64
4 132 140 307 419
4 212 350 57 463
4 319 130 313 308
4 471 392 55 155
4 303 418 28 318
4 476 480 240 225
4 459 461 269 204
4 241 459 461 269
4 241 459 465 461
4 253 256 218 234
4 245 61 478 278
4 457 170 40 363
4 14 56 212 154
4 321 129 310 143
4 253 0 58 219
4 131 140 421 314
4 157 216 156 214
4 105 217 104 221
4 172 207 203 171
4 115 114 228 230
4 279 0 1 244
4 269 251 204 231
4 26 62 483 107
4 231 50 20 387
4 57 38 466 163
4 41 52 164 468
4 461 269 204 462
4 273 63 225 255
4 244 279 0 219
4 332 226 116 64
4 316 123 139 131
4 129 310 316 144
4 223 24 103 61
4 25 219 106 60
4 474 256 59 218
4 117 315 317 309
4 421 139 123 131
4 132 419 141 125
4 356 466 38 163
4 41 164 354 468
4 307 132 419 141
4 65 27 481 112
4 245 11 10 287
4 134 117 309 118
4 275 232 268 497
4 125 132 28 318
4 283 483 25 97
4 274 87 18 375
4 275 373 19 86
4 209 40 170 53
4 313 127 129 130
4 132 124 140 419
4 421 124 140 131
4 285 102 24 481
4 400 58 0 219
4 155 55 23 398
4 212 14 246 241
4 296 3 63 224
4 40 466 356 169
4 354 158 39 468
4 358 16 17 246
4 226 116 10 332
4 209 358 17 246
4 39 392 471 155
4 285 27 112 481
4 241 463 212 465
4 26 483 283 107
4 307 132 141 318
4 316 32 123 131
4 155 23 55 210
4 129 143 127 313
4 266 269 461 462
4 309 137 134 118
4 20 231 387 88
4 224 63 296 113
4 371 17 81 251
4 212 56 14 241
4 131 139 316 314
4 219 0 400 106
4 463 241 459 465
4 84 361 83 263
4 219 400 58 106
4 223 103 59 348
4 371 51 170 209
4 244 273 3 224
4 136 117 309 304
4 41 205 173 52
4 212 38 57 154
4 130 313 322 142
4 245 13 12 278
4 143 129 310 313
4 418 141 28 318
4 183 184 441 386
4 269 251 51 204
4 51 17 371 251
4 240 474 480 476
4 303 28 138 318
4 212 56 241 465
4 226 27 65 116
4 311 305 137 118
4 420 316 32 139
4 133 301 306 136
4 323 126 142 302
4 387 50 20 173
4 125 141 28 418
4 123 420 32 139
4 245 10 226 287
4 138 135 28 303
4 247 21 20 359
4 320 32 316 144
4 219 244 279 60
4 144 320 32 128
4 245 223 13 278
4 279 97 106 60
4 244 219 479 60
4 205 20 50 173
4 475 63 273 224
4 137 309 311 118
4 142 130 319 302
4 301 317 136 117
4 61 103 278 102
4 301 4 5 306
4 323 9 8 302
4 30 33 418 303
4 320 31 34 420
4 61 24 103 102
4 25 60 106 97
4 224 296 3 113
4 219 279 0 106
4 170 358 53 169
4 15 16 352 246
4 223 59 13 348
4 320 32 31 420
4 418 28 30 303
4 17 51 371 209
4 53 40 170 169
4 244 479 224 62
4 161 357 467 167
4 282 11 12 245
4 136 133 301 117
4 130 142 126 302
4 478 226 65 245
4 59 103 223 472
4 219 58 473 106
4 13 103 223 348
4 464 247 54 210
4 173 164 52 359
4 117 317 136 309
4 154 57 350 163
4 287 116 65 112
4 245 226 65 287
4 100 110 482 286
4 144 32 316 128
4 51 170 209 457
4 142 130 313 319
4 41 52 173 164
4 273 63 3 224
4 138 28 135 318
4 38 57 154 163
4 123 32 316 139
4 8 7 9 323
4 4 6 5 306
4 28 141 125 318
4 371 170 17 209
4 109 484 286 99
4 53 57 352 246
4 54 22 247 351
4 27 65 116 112
4 305 134 137 118
4 212 350 14 154
4 226 10 116 287
4 143 321 129 127
4 482 228 221 286
4 112 102 285 481
4 163 356 466 169
4 164 158 354 468
4 247 22 21 351
4 228 482 110 286
4 62 2 244 280
4 166 357 207 469
4 357 467 207 214
4 469 357 207 214
4 483 283 107 97
4 160 357 469 214
4 38 40 466 356
4 354 39 41 468
4 221 228 484 286
4 357 166 160 469
4 463 57 53 246
4 286 484 221 99
4 50 458 205 173
4 39 54 158 155
4 61 65 282 245
4 56 212 154 470
4 485 116 226 64
4 247 52 54 351
4 117 136 133 304
4 322 130 142 126
4 25 26 483 283
4 24 27 285 481
4 223 103 13 278
4 26 62 107 113
4 2 1 244 280
4 170 358 17 209
4 244 60 62 280
4 54 52 247 464
4 479 244 60 62
4 208 215 467 355
4 229 222 284 482
4 206 213 353 469
4 227 220 484 281
4 65 61 478 245
4 467 161 167 355
4 102 112 61 481
4 163 466 53 169
4 158 164 54 468
4 173 205 20 359
4 97 107 483 60
4 168 40 162 356
4 159 354 41 165
4 24 285 111 101
4 155 55 471 210
4 486 63 224 113
4 284 100 110 482
4 99 109 484 281
4 98 108 26 283
4 38 40 215 466
4 39 41 468 206
4 40 38 162 356
4 41 39 354 159
4 112 65 61 481
4 53 57 466 163
4 52 54 164 468
4 25 26 227 483
4 227 220 25 483
4 481 24 27 222
4 208 215 40 466
4 213 39 468 206
4 60 107 483 62
4 26 25 98 283
4 285 27 24 111
4 27 481 222 229
4 160 166 353 469
4 54 164 158 351
4 168 162 208 355
4 101 284 111 222
4 227 108 98 281
4 159 206 353 165
4 112 61 282 102
4 163 53 352 169
4 60 97 107 280
4 54 52 164 351
4 215 208 162 355
4 222 284 111 229
4 206 159 353 213
4 98 220 227 281
4 57 53 352 163
4 282 65 61 112
4 62 60 107 280
4 165 41 159 206
4 162 208 40 168
4 101 111 24 222
4 108 26 227 98
4 41 39 159 206
4 40 38 215 162
4 26 25 227 98
4 111 27 24 222
4 208 40 215 162
4 227 25 220 98
4 213 159 39 206
4 222 111 27 229
4 61 103 223 278
4 170 53 358 209
4 106 219 279 60
4 173 52 205 359
4 212 57 350 154
4 226 116 65 287
4 168 169 40 356
4 162 163 356 38
4 112 111 27 285
4 228 227 484 115
4 108 107 26 283
4 98 97 283 25
4 158 159 354 39
4 164 165 41 354
4 215 214 467 156
4 208 207 172 467
4 222 221 105 482
4 102 101 285 24
4 112 11 65 287
4 112 65 11 282
4 245 65 11 287
4 245 11 65 282
4 247 21 52 351
4 247 52 21 359
4 164 52 21 351
4 164 21 52 359
4 97 1 60 279
4 97 60 1 280
4 244 60 1 279
4 244 1 60 280
4 163 15 57 350
4 163 57 15 352
4 246 57 15 350
4 246 15 57 352
4 218 487 58 234
4 58 487 218 217
4 204 50 490 203
4 204 490 50 231
4 431 389 487 425
4 487 389 431 397
4 433 495 434 491
4 433 434 495 427
4 428 434 495 491
4 428 495 434 427
4 499 381 201 444
4 499 201 381 492
4 501 117 312 315
4 501 312 117 488
4 487 194 430 403
4 487 430 194 422
4 193 487 431 404
4 431 487 193 422
4 51 204 490 203
4 490 204 51 251
4 487 218 59 277
4 487 59 218 217
4 491 211 55 252
4 491 55 211 216
4 376 445 494 384
4 376 494 445 443
4 490 251 262 204
4 490 262 251 265
4 166 172 357 167
4 166 357 172 207
4 467 357 172 167
4 467 172 357 207
4 156 160 357 161
4 357 160 156 214
4 357 467 156 161
4 156 467 357 214
4 99 105 286 100
4 99 286 105 221
4 482 286 105 100
4 482 105 286 221
4 110 115 286 109
4 110 286 115 228
4 484 286 115 109
4 484 115 286 228
4 450 497 452 451
4 450 452 497 492
4 449 452 497 451
4 449 497 452 492
4 211 56 491 216
4 211 491 56 235
4 493 225 63 255
4 493 63 225 230
4 493 486 63 230
4 493 63 486 291
4 453 274 375 181
4 453 375 274 369
4 132 311 498 118
4 132 498 311 307
4 270 343 491 338
4 491 343 270 260
4 252 390 96 398
4 96 390 252 271
4 250 117 501 315
4 501 117 250 298
4 293 410 119 414
4 119 410 293 290
4 118 117 312 295
4 118 312 117 309
4 482 100 222 284
4 482 222 100 105
4 101 222 100 284
4 101 100 222 105
4 162 161 215 355
4 162 215 161 156
4 467 215 161 355
4 467 161 215 156
4 288 255 66 249
4 288 66 255 296
4 155 22 210 54
4 155 210 22 23
4 247 210 22 54
4 247 22 210 23
4 500 94 391 261
4 500 391 94 395
4 440 360 176 370
4 440 176 360 442
4 98 99 220 281
4 98 220 99 104
4 484 220 99 281
4 469 160 213 353
4 159 213 160 353
4 159 160 213 157
4 108 109 227 115
4 108 227 109 281
4 484 227 109 115
4 484 109 227 281
4 168 167 208 172
4 168 208 167 355
4 467 208 167 172
4 467 167 208 355
4 244 2 224 3
4 244 224 2 62
4 113 224 2 3
4 113 2 224 62
4 441 499 448 444
4 448 499 441 494
4 469 206 166 353
4 165 206 166 171
4 165 166 206 353
4 482 229 110 284
4 111 229 110 114
4 111 110 229 284
4 265 490 51 251
4 51 490 265 362
4 51 371 265 251
4 265 371 51 362
4 376 441 184 386
4 376 184 441 443
4 231 462 204 269
4 231 204 462 50
4 24 105 472 341
4 24 472 105 222
4 104 25 473 393
4 104 473 25 220
4 171 41 458 379
4 171 458 41 206
4 17 459 269 51
4 269 459 17 241
4 40 172 457 363
4 40 457 172 208
4 114 27 485 327
4 114 485 27 229
4 26 115 486 291
4 26 486 115 227
4 156 38 470 340
4 156 470 38 215
4 39 157 471 392
4 39 471 157 213
4 464 52 359 205
4 359 52 464 247
4 359 20 464 205
4 464 20 359 247
4 245 480 474 478
4 474 480 245 240
4 316 129 131 310
4 131 129 316 32
4 318 118 132 28
4 318 132 118 311
4 24 472 223 103
4 223 472 24 222
4 25 473 219 220
4 25 219 473 106
4 40 457 209 170
4 40 209 457 208
4 41 458 205 206
4 205 458 41 173
4 470 38 212 154
4 212 38 470 215
4 485 27 226 116
4 485 226 27 229
4 39 54 210 213
4 210 54 39 155
4 210 471 39 213
4 39 471 210 155
4 486 26 224 227
4 486 224 26 113
4 62 224 26 227
4 62 26 224 113
4 169 16 53 352
4 169 53 16 358
4 246 53 16 352
4 246 16 53 358
4 213 214 160 469
4 213 160 214 157
4 102 12 61 282
4 102 61 12 278
4 245 61 12 282
4 245 12 61 278
4 228 229 110 482
4 228 110 229 114
4 220 221 99 104
4 220 99 221 484
4 206 207 166 171
4 206 166 207 469

CELL_TYPES 2755
1
1
1
1
1
1
1
1
1
1
1
1
1
1
1
1
1
1
1
1
1
1
1
1
1
1
1
1
1
1
1
1
1
1
1
1
1
1
1
1
1
1
1
1
1
1
1
1
1
1
1
1
1
1
1
1
1
1
1
1
1
1
1
1
1
1
3
3
3
3
3
3
3
3
3
3
3
3
3
3
3
3
3
3
3
3
3
3
3
3
3
3
3
3
3
3
3
3
3
3
3
3
3
3
3
3
3
3
3
3
3
3
3
3
3
3
3
3
3
3
3
3
3
3
3
3
3
3
3
3
3
3
3
3
3
3
3
3
3
3
3
3
3
3
3
3
3
3
3
3
3
3
3
3
3
3
3
3
3
3
3
3
3
3
3
3
3
3
3
3
3
3
3
3
3
3
3
3
3
3
3
3
3
3
3
3
3
3
3
3
3
3
3
3
3
3
3
3
3
3
3
3
3
3
3
3
3
3
3
3
3
3
3
3
3
3
3
3
3
3
3
3
3
3
3
3
3
3
3
3
3
3
3
3
3
3
3
3
3
3
3
3
3
3
3
3
3
3
3
3
3
3
3
3
3
3
3
3
3
3
3
3
3
3
3
3
3
3
3
3
3
3
3
3
3
3
3
3
3
3
3
3
3
3
3
3
3
3
3
3
3
3
3
3
3
3
3
3
3
3
3
3
3
3
3
3
3
3
3
3
3
3
3
3
3
3
3
3
3
3
3
3
3
3
3
3
3
3
3
3
5
5
5
5
5
5
5
5
5
5
5
5
5
5
5
5
5
5
5
5
5
5
5
5
5
5
5
5
5
5
5
5
5
5
5
5
5
5
5
5
5
5
5
5
5
5
5
5
5
5
5
5
5
5
5
5
5
5
5
5
5
5
5
5
5
5
5
5
5
5
5
5
5
5
5
5
5
5
5
5
5
5
5
5
5
5
5
5
5
5
5
5
5
5
5
5
5
5
5
5
5
5
5
5
5
5
5
5
5
5
5
5
5
5
5
5
5
5
5
5
5
5
5
5
5
5
5
5
5
5
5
5
5
5
5
5
5
5
5
5
5
5
5
5
5
5
5
5
5
5
5
5
5
5
5
5
5
5
5
5
5
5
5
5
5
5
5
5
5
5
5
5
5
5
5
5
5
5
5
5
5
5
5
5
5
5
5
5
5
5
5
5
5
5
5
5
5
5
5
5
5
5
5
5
5
5
5
5
5
5
5
5
5
5
5
5
5
5
5
5
5
5
5
5
5
5
5
5
5
5
5
5
5
5
5
5
5
5
5
5
5
5
5
5
5
5
5
5
5
5
5
5
5
5
5
5
5
5
5
5
5
5
5
5
5
5
5
5
5
5
5
5
5
5
5
5
5
5
5
5
5
5
5
5
5
5
5
5
5
5
5
5
5
5
5
5
5
5
5
5
5
5
5
5
5
5
5
5
5
5
5
5
5
5
5
5
5
5
5
5
5
5
5
5
5
5
5
5
5
5
5
5
5
5
5
5
5
5
5
5
5
5
5
5
5
5
5
5
5
5
5
5
5
5
5
5
5
5
5
5
5
5
5
5
5
5
5
5
5
5
5
5
5
5
5
5
5
5
5
5
5
5
5
5
5
5
5
5
5
5
5
5
5
5
5
5
5
5
5
5
5
5
5
5
5
5
5
5
5
5
5
5
5
5
5
5
5
5
5
5
5
5
5
5
5
5
5
5
5
5
5
5
5
5
5
5
5
5
5
5
5
5
5
5
5
5
5
5
5
5
5
5
5
5
5
5
5
5
5
5
5
5
5
5
5
5
5
5
5
5
5
5
5
5
5
5
5
5
5
5
5
5
5
5
5
5
5
5
5
5
5
5
5
5
5
5
5
5
5
5
5
5
5
5
5
5
5
5
5
5
5
5
5
5
5
5
5
5
5
5
5
5
5
5
5
5
5
5
5
5
5
5
5
5
5
5
5
5
5
5
5
5
5
5
5
5
5
5
5
5
5
5
5
5
5
5
5
5
5
5
5
5
5
5
5
5
5
5
5
5
5
5
5
5
5
5
5
5
5
5
5
5
5
5
5
5
5
5
5
5
5
5
5
5
5
5
5
5
5
5
5
5
5
5
5
5
5
5
5
5
5
5
5
5
5
5
5
5
5
5
5
5
5
5
5
5
5
5
5
5
5
5
5
5
5
5
5
5
5
5
5
5
5
5
5
5
5
5
5
5
5
5
5
5
5
5
5
5
5
5
5
5
5
5
5
5
5
5
5
5
5
5
5
5
5
5
5
5
5
5
5
5
5
5
5
5
5
5
5
5
5
5
5
5
5
5
5
5
5
5
5
5
5
5
5
5
5
5
5
5
5
5
5
5
5
5
5
5
5
5
5
5
5
5
5
5
5
5
5
5
5
5
5
5
5
5
5
5
5
5
5
5
5
5
5
5
5
5
5
5
5
5
5
5
5
5
5
5
5
5
5
5
5
5
5
5
5
5
5
5
5
5
5
5
5
5
5
5
5
5
5
5
5
5
5
5
5
5
5
5
5
5
5
5
5
5
5
5
5
5
5
5
5
5
5
5
5
5
5
5
5
5
5
5
5
5
5
5
5
5
5
5
5
5
5
5
5
5
5
5
5
5
5
5
5
5
5
5
5
5
5
5
5
5
5
5
5
5
5
5
5
5
5
5
5
5
5
5
5
5
5
5
5
5
5
5
5
5
5
5
5
5
5
5
5
5
5
5
5
5
5
5
5
5
5
5
5
5
5
5
5
5
5
5
5
5
5
5
5
5
5
5
5
5
5
5
5
5
5
5
5
5
5
5
5
5
5
5
5
5
5
5
5
5
5
5
5
5
5
5
5
5
5
5
5
5
5
5
5
5
5
5
5
5
5
5
5
5
5
5
5
5
5
5
5
5
5
5
5
5
5
5
10
10
10
10
10
10
10
10
10
10
10
10
10
10
10
10
10
10
10
10
10
10
10
10
10
10
10
10
10
10
10
10
10
10
10
10
10
10
10
10
10
10
10
10
10
10
10
10
10
10
10
10
10
10
10
10
10
10
10
10
10
10
10
10
10
10
10
10
10
10
10
10
10
10
10
10
10
10
10
10
10
10
10
10
10
10
10
10
10
10
10
10
10
10
10
10
10
10
10
10
10
10
10
10
10
10
10
10
10
10
10
10
10
10
10
10
10
10
10
10
10
10
10
10
10
10
10
10
10
10
10
10
10
10
10
10
10
10
10
10
10
10
10
10
10
10
10
10
10
10
10
10
10
10
10
10
10
10
10
10
10
10
10
10
10
10
10
10
10
10
10
10
10
10
10
10
10
10
10
10
10
10
10
10
10
10
10
10
10
10
10
10
10
10
10
10
10
10
10
10
10
10
10
10
10
10
10
10
10
10
10
10
10
10
10
10
10
10
10
10
10
10
10
10
10
10
10
10
10
10
10
10
10
10
10
10
10
10
10
10
10
10
10
10
10
10
10
10
10
10
10
10
10
10
10
10
10
10
10
10
10
10
10
10
10
10
10
10
10
10
10
10
10
10
10
10
10
10
10
10
10
10
10
10
10
10
10
10
10
10
10
10
10
10
10
10
10
10
10
10
10
10
10
10
10
10
10
10
10
10
10
10
10
10
10
10
10
10
10
10
10
10
10
10
10
10
10
10
10
10
10
10
10
10
10
10
10
10
10
10
10
10
10
10
10
10
10
10
10
10
10
10
10
10
10
10
10
10
10
10
10
10
10
10
10
10
10
10
10
10
10
10
10
10
10
10
10
10
10
10
10
10
10
10
10
10
10
10
10
10
10
10
10
10
10
10
10
10
10
10
10
10
10
10
10
10
10
10
10
10
10
10
10
10
10
10
10
10
10
10
10
10
10
10
10
10
10
10
10
10
10
10
10
10
10
10
10
10
10
10
10
10
10
10
10
10
10
10
10
10
10
10
10
10
10
10
10
10
10
10
10
10
10
10
10
10
10
10
10
10
10
10
10
10
10
10
10
10
10
10
10
10
10
10
10
10
10
10
10
10
10
10
10
10
10
10
10
10
10
10
10
10
10
10
10
10
10
10
10
10
10
10
10
10
10
10
10
10
10
10
10
10
10
10
10
10
10
10
10
10
10
10
10
10
10
10
10
10
10
10
10
10
10
10
10
10
10
10
10
10
10
10
10
10
10
10
10
10
10
10
10
10
10
10
10
10
10
10
10
10
10
10
10
10
10
10
10
10
10
10
10
10
10
10
10
10
10
10
10
10
10
10
10
10
10
10
10
10
10
10
10
10
10
10
10
10
10
10
10
10
10
10
10
10
10
10
10
10
10
10
10
10
10
10
10
10
10
10
10
10
10
10
10
10
10
10
10
10
10
10
10
10
10
10
10
10
10
10
10
10
10
10
10
10
10
10
10
10
10
10
10
10
10
10
10
10
10
10
10
10
10
10
10
10
10
10
10
10
10
10
10
10
10
10
10
10
10
10
10
10
10
10
10
10
10
10
10
10
10
10
10
10
10
10
10
10
10
10
10
10
10
10
10
10
10
10
10
10
10
10
10
10
10
10
10
10
10
10
10
10
10
10
10
10
10
10
10
10
10
10
10
10
10
10
10
10
10
10
10
10
10
10
10
10
10
10
10
10
10
10
10
10
10
10
10
10
10
10
10
10
10
10
10
10
10
10
10
10
10
10
10
10
10
10
10
10
10
10
10
10
10
10
10
10
10
10
10
10
10
10
10
10
10
10
10
10
10
10
10
10
10
10
10
10
10
10
10
10
10
10
10
10
10
10
10
10
10
10
10
10
10
10
10
10
10
10
10
10
10
10
10
10
10
10
10
10
10
10
10
10
10
10
10
10
10
10
10
10
10
10
10
10
10
10
10
10
10
10
10
10
10
10
10
10
10
10
10
10
10
10
10
10
10
10
10
10
10
10
10
10
10
10
10
10
10
10
10
10
10
10
10
10
10
10
10
10
10
10
10
10
10
10
10
10
10
10
10
10
10
10
10
10
10
10
10
10
10
10
10
10
10
10
10
10
10
10
10
10
10
10
10
10
10
10
10
10
10
10
10
10
10
10
10
10
10
10
10
10
10
10
10
10
10
10
10
10
10
10
10
10
10
10
10
10
10
10
10
10
10
10
10
10
10
10
10
10
10
10
10
10
10
10
10
10
10
10
10
10
10
10
10
10
10
10
10
10
10
10
10
10
10
10
10
10
10
10
10
10
10
10
10
10
10
10
10
10
10
10
10
10
10
10
10
10
10
10
10
10
10
10
10
10
10
10
10
10
10
10
10
10
10
10
10
10
10
10
10
10
10
10
10
10
10
10
10
10
10
10
10
10
10
10
10
10
10
10
10
10
10
10
10
10
10
10
10
10
10
10
10
10
10
10
10
10
10
10
10
10
10
10
10
10
10
10
10
10
10
10
10
10
10
10
10
10
10
10
10
10
10
10
10
10
10
10
10
10
10
10
10
10
10
10
10
10
10
10
10
10
10
10
10
10
10
10
10
10
10
10
10
10
10
10
10
10
10
10
10
10
10
10
10
10
10
10
10
10
10
10
10
10
10
10
10
10
10
10
10
10
10
10
10
10
10
10
10
10
10
10
10
10
10
10
10
10
10
10
10
10
10
10
10
10
10
10
10
10
10
10
10
10
10
10
10
10
10
10
10
10
10
10
10
10
10
10
10
10
10
10
10
10
10
10
10
10
10
10
10
10
10
10
10
10
10
10
10
10
10
10
10
10
10
10
10
10
10
10
10
10
10
10
10
10
10
10
10
10
10
10
10
10
10
10
10
10
10
10
10
10
10
10
10
10
10
10
10
10
10
10
10
10
10
10
10
10
10
10
10
10
10
10
10
10
10
10
10
10
10
10
10
10
10
10
10
10
10
10
10
10
10
10
10
10
10
10
10
10
10
10
10
10
10
10
10
10
10
10
10
10
10
10
10
10
10
10
10
10
10
10
10
10
10
10
10
10
10
10
10
10
10
10
10
10
10
10
10
10
10
10
10
10
10
10
10
10
10
10
10
10
10
10
10
10
10
10
10
10
10
10
10
10
10
10
10
10
10
10
10
10
10
10
10
10
10
10
10
10
10
10
10
10
10
10
10
10
10
10
10
10
10
10
10
10
10
10
10
10
10
10
10
10
10
10
10
10
10
10
10
10
10
10
10
10
10
10
10
10
10
10
10
10
10
10
10
10
10
10
10
10
10
10
10
10
10
