# vtk DataFile Version 2.0
, Created by Gmsh 4.11.1 
ASCII
DATASET UNSTRUCTURED_GRID
POINTS 523 double
8.75 0 -44.68363840972849
11.07850425426202 0 -41.7933282335656
11.07850425426202 0 -38.2066717664344
8.75 0 -35.31636159027151
8.75 0 -3
11.75 0 -3
11.75 0 0
-11.75 0 0
-11.75 0 -3
-8.75 0 -3
-8.75 1.071565949253934e-15 -35.31636159027151
-11.07850425426202 1.356725477432232e-15 -38.2066717664344
-11.07850425426202 1.356725477432232e-15 -41.7933282335656
-8.75 1.071565949253934e-15 -44.68363840972849
-8.75 1.071565949253934e-15 -75.31636159027151
-11.07850425426202 1.356725477432232e-15 -78.2066717664344
-11.07850425426202 1.356725477432232e-15 -81.7933282335656
-8.75 1.071565949253934e-15 -84.68363840972849
-8.75 0 -120
8.75 0 -120
8.75 0 -84.68363840972849
11.07850425426202 0 -81.7933282335656
11.07850425426202 0 -78.2066717664344
8.75 0 -75.31636159027151
8.749999999999996 6.794906659528273 -41.7933282335656
8.749999999999996 6.794906659528273 -38.2066717664344
8.749999999999996 6.794906659528273 -78.20667176643438
8.749999999999996 6.794906659528273 -81.7933282335656
8.75 6.796166654026136 -120
8.75 20 -108.8309018328126
8.75 20 -91.16909816718739
8.75 6.796166654026135 -80
8.75 20 -68.83090183281261
8.75 20 -51.16909816718739
8.75 6.796166654026135 -40
8.75 20 -28.83090183281261
8.75 20 -3
11.75 23 -3
-11.75 23 -3
-8.75 20 -3
11.75 23 0
-11.75 23 0
-8.75 6.79490665952827 -41.7933282335656
-8.75 6.79490665952827 -78.20667176643438
-8.75 6.79490665952827 -81.7933282335656
-8.75 6.796166654026136 -120
-8.75 20 -108.8309018328126
-8.75 20 -91.16909816718739
-8.75 6.796166654026135 -80
-8.75 20 -68.83090183281261
-8.75 20 -51.16909816718739
-8.75 6.796166654026135 -40
-8.75 20 -28.83090183281261
-8.75 6.79490665952827 -38.2066717664344
8.749021392270386 6.796166654026136 -80
6.575311351895971 8.91619521642105 -81.7933282335656
-6.575311351895971 8.91619521642105 -81.7933282335656
-8.749021392270386 6.796166654026136 -80
-6.575311351895943 8.916195216421071 -78.20667176643438
6.575311351895943 8.916195216421071 -78.20667176643438
8.749021392270386 6.796166654026136 -40
6.575311351895969 8.916195216421052 -41.7933282335656
-6.575311351895967 8.916195216421054 -41.7933282335656
-8.749021392270386 6.796166654026136 -40
-6.575311351895979 8.916195216421043 -38.2066717664344
6.575311351895979 8.916195216421043 -38.2066717664344
4.836332574710802 2.312936953133701 -84.6836384097285
-4.836332574710802 2.312936953133702 -84.6836384097285
7.333350998440496 2.312936953133701 -81.7933282335656
-7.333350998440496 2.312936953133702 -81.7933282335656
7.333350998440496 2.312936953133701 -78.2066717664344
4.836332574710802 2.312936953133701 -75.3163615902715
-4.836332574710802 2.312936953133702 -75.3163615902715
-7.333350998440496 2.312936953133702 -78.2066717664344
4.836332574710802 2.312936953133701 -44.68363840972849
-4.836332574710802 2.312936953133702 -44.68363840972849
7.333350998440496 2.312936953133701 -41.7933282335656
-7.333350998440496 2.312936953133702 -41.7933282335656
7.333350998440496 2.312936953133701 -38.2066717664344
4.836332574710802 2.312936953133701 -35.31636159027151
-4.836332574710802 2.312936953133702 -35.31636159027151
-7.333350998440496 2.312936953133702 -38.2066717664344
8.75 0 -28.85308927221719
8.75 0 -22.38981695416289
8.75 0 -15.92654463610859
8.75 0 -9.463272318054294
5.875000000000016 0 0
3.730349362740526e-14 0 0
-5.874999999999972 0 0
-8.75 0 -9.463272318054308
-8.75 0 -15.9265446361086
-8.75 0 -22.3898169541629
-8.75 0 -28.85308927221719
-8.75 0 -50.81018304583709
-8.75 0 -56.9367276819457
-8.75 0 -63.0632723180543
-8.75 0 -69.18981695416291
-8.75 0 -90.56969867477375
-8.75 0 -96.45575893981901
-8.75 0 -102.3418192048643
-8.75 0 -108.2278794699095
-8.75 0 -114.1139397349548
2.916666666666666 0 -120
-2.916666666666668 0 -120
8.75 0 -90.56969867477375
8.75 0 -96.45575893981901
8.75 0 -102.3418192048643
8.75 0 -108.2278794699095
8.75 0 -114.1139397349548
8.75 0 -50.81018304583709
8.75 0 -56.9367276819457
8.75 0 -63.0632723180543
8.75 0 -69.18981695416291
10.48022348846852 3.591402531526432 -41.7933282335656
8.749999999999998 3.618993844081006 -43.79131657470528
8.749999999999996 6.794906659528273 -40
10.48022348846852 3.591402531526432 -38.2066717664344
8.749999999999998 3.618993844081011 -36.20868342529472
8.749999999999998 3.618993844081011 -76.20868342529471
8.749999999999998 3.618993844081006 -83.79131657470529
8.75 11.19744443601743 -116.2769672776042
8.75 15.59872221800872 -112.5539345552084
8.75 20 -102.9436339442709
8.75 20 -97.05636605572913
8.75 15.59872221800871 -87.44606544479159
8.75 11.19744443601742 -83.72303272239579
8.75 11.19744443601743 -76.2769672776042
8.75 15.59872221800872 -72.5539345552084
8.75 20 -62.94363394427086
8.75 20 -57.05636605572914
8.75 15.59872221800871 -47.44606544479159
8.75 11.19744443601742 -43.72303272239579
8.75 11.19744443601743 -36.2769672776042
8.75 15.59872221800872 -32.55393455520841
8.75 20 -22.37317637460948
8.75 20 -15.91545091640634
8.75 20 -9.457725458203178
8.75 6.666666666666651 -3
8.75 13.33333333333329 -3
-5.875000000000016 23 -3
-3.730349362740526e-14 23 -3
5.874999999999972 23 -3
-11.75 5.749999999999988 -3
-11.75 11.49999999999999 -3
-11.75 17.24999999999999 -3
-8.75 13.33333333333335 -3
-8.75 6.666666666666705 -3
-2.916666666666666 20 -3
2.916666666666668 20 -3
11.75 5.749999999999988 -3
11.75 11.49999999999999 -3
11.75 17.24999999999999 -3
11.75 5.749999999999988 0
11.75 11.49999999999999 0
11.75 17.24999999999999 0
-5.875000000000016 23 0
-3.730349362740526e-14 23 0
5.874999999999972 23 0
-11.75 5.749999999999988 0
-11.75 11.49999999999999 0
-11.75 17.24999999999999 0
-8.750000000000002 3.618993844081004 -43.79131657470528
-8.750000000000002 3.61899384408101 -76.20868342529471
-8.75 6.79490665952827 -80
-8.750000000000002 3.618993844081004 -83.79131657470528
-8.75 11.19744443601743 -116.2769672776042
-8.75 15.59872221800872 -112.5539345552084
-8.75 20 -102.9436339442709
-8.75 20 -97.05636605572913
-8.75 15.59872221800871 -87.44606544479159
-8.75 11.19744443601742 -83.72303272239579
-8.75 11.19744443601743 -76.2769672776042
-8.75 15.59872221800872 -72.5539345552084
-8.75 20 -62.94363394427086
-8.75 20 -57.05636605572914
-8.75 15.59872221800871 -47.44606544479159
-8.75 11.19744443601742 -43.72303272239579
-8.75 11.19744443601743 -36.2769672776042
-8.75 15.59872221800872 -32.55393455520841
-8.75 20 -9.457725458203138
-8.75 20 -15.91545091640627
-8.75 20 -22.37317637460944
-8.750000000000002 3.61899384408101 -36.20868342529472
-8.75 6.79490665952827 -40
-10.48022348846851 3.591402531526436 -38.2066717664344
-10.48022348846851 3.591402531526436 -41.7933282335656
-10.48022348846851 3.591402531526436 -78.20667176643438
-10.48022348846851 3.591402531526436 -81.7933282335656
2.916666666666666 6.796166654026136 -120
-2.916666666666668 6.796166654026136 -120
10.48022348846852 3.591402531526432 -81.7933282335656
10.48022348846852 3.591402531526432 -78.20667176643438
2.916666666666666 20 -108.8309018328126
-2.916666666666668 20 -108.8309018328126
2.916666666666666 20 -91.16909816718739
-2.916666666666668 20 -91.16909816718739
-7.53902898434104e-15 10.20215401219649 -82.88111839666649
2.916666666666666 20 -68.83090183281261
-2.916666666666668 20 -68.83090183281261
-2.870629213576743e-15 10.20215401219649 -77.11888160333351
2.916666666666666 20 -51.16909816718739
-2.916666666666668 20 -51.16909816718739
2.870629213576741e-15 10.20215401219649 -42.88111839666649
2.916666666666666 20 -28.83090183281261
-2.916666666666668 20 -28.83090183281261
-2.870629213576739e-15 10.20215401219648 -37.11888160333349
2.329014320633101 10.83092557475988 -78.20667176643438
-2.329014320633076 10.83092557475988 -78.20667176643438
2.329014320633111 10.83092557475988 -81.7933282335656
-2.329014320633088 10.83092557475988 -81.7933282335656
2.329014320633111 10.83092557475988 -38.2066717664344
-2.329014320633093 10.83092557475988 -38.2066717664344
2.329014320633111 10.83092557475988 -41.7933282335656
-2.329014320633085 10.83092557475988 -41.7933282335656
1.963080359020231 4.98859756107959 -84.68363840972849
-1.963080359020249 4.988597561079583 -84.68363840972849
-5.329070518200751e-15 2.312936953133701 -84.68363840972849
6.09439935203178 2.312936953133701 -83.24675182036086
3.147788963107503 7.01563531401385 -81.7933282335656
-3.14778896310753 7.015635314013838 -81.7933282335656
-6.09439935203178 2.312936953133701 -83.24675182036086
6.09439935203178 2.312936953133701 -76.75324817963914
3.552713678800501e-15 2.312936953133701 -75.31636159027151
-6.094399352031782 2.312936953133701 -76.75324817963914
3.147788963107503 7.01563531401385 -78.20667176643438
-3.14778896310753 7.015635314013838 -78.20667176643438
1.963080359020231 4.98859756107959 -75.3163615902715
-1.963080359020249 4.988597561079583 -75.3163615902715
1.963080359020231 4.98859756107959 -44.68363840972849
-1.963080359020249 4.988597561079583 -44.68363840972849
-5.329070518200751e-15 2.312936953133701 -44.68363840972849
6.09439935203178 2.312936953133701 -43.24675182036084
3.147788963107503 7.01563531401385 -41.7933282335656
-3.14778896310753 7.015635314013838 -41.7933282335656
-6.09439935203178 2.312936953133701 -43.24675182036084
6.09439935203178 2.312936953133701 -36.75324817963916
3.552713678800501e-15 2.312936953133701 -35.31636159027151
-6.094399352031782 2.312936953133701 -36.75324817963916
3.147788963107503 7.01563531401385 -38.2066717664344
-3.14778896310753 7.015635314013838 -38.2066717664344
1.963080359020231 4.98859756107959 -35.31636159027151
-1.963080359020249 4.988597561079583 -35.31636159027151
-4.682818845602177 0 -87.36493417872421
-4.489967135090215 0 -72.25308927221721
-4.370121297360645 0 -47.69306598066454
2.806043358570183 0 -31.87983864195922
3.631621087437582 0 -37.70728288097532
-4.195423747666216 0 -82.73473302929915
8.881784197001252e-16 0 -115.6317906949036
-2.67391662384739 0 -105.2848493373869
-2.720808575586786 0 -60
-7.709065553169556 0 -40.13888734680715
8.059541913309911 0 -79.96875568080353
-2.809611111114431 0 -4.108969940031159
-2.758562129027551 0 -19.21548000821621
3.71953139839249 0 -93.23587498862443
3.78557213428491 0 -76.89848518685031
4.892253502164442 0 -47.24717265323234
3.444256707710659 0 -66.1265446361086
-3.656075898300622 0 -30.9189016837398
2.865147592946442 0 -12.94532239386053
0.4811920014684201 0 -86.17444917343514
3.934218773571956 0 -5.832547592637766
-0.06186861709309799 0 -25.40255122590518
3.958442869363362 0 -104.3038392932127
3.184272257820948 0 -53.94097177993218
-3.978521559197275 0 -12.06844147427476
3.751215621834484 0 -20.25019472190725
-3.264576299276807 0 -93.22832772857996
-2.664535259100376e-14 0 -99.39878907234161
-3.489271125158576 0 -53.64279832759405
-3.483095049790857 0 -66.61418739796048
3.444256707710659 0 -59.99999999999999
7.037885508989632 0 -41.10744182115798
-7.612228544077568 0 -79.98783490207734
-3.611808027941051 0 -111.5433350437741
3.600608401235759 0 -110.9956560018176
-2.329441410090975 0 -37.66556315358533
0.7735528312534043 0 -43.29891440190767
5.02539990515452 0 -71.99714946478073
-4.358995677343036 0 -42.93063695218628
-1.912361839043031 0 -77.99259199231373
5.589370176849122 0 -87.62666854225112
5.035594853551165 0 -99.1472162997724
-4.869938649196365 0 -99.39878907234164
-4.962576884181105 0 -25.62145311319005
4.962576884181109 0 -25.62145311319004
0.3606158051160602 0 -71.47817061378878
-0.6762743872241916 0 -8.428898525067709
4.488781543693718 0 -115.7244624822786
-4.48878154369372 0 -115.7244624822786
0.198137233743914 0 -49.16458462866616
4.125552397811555 0 -82.22409816423038
-5.405013672932836 0 -7.076122082211754
9.751879676901487 1.624535815689526 -43.27322059745202
10.64306286982608 3.075462446629953 -40
9.75187967690146 1.624535815689522 -36.72677940254794
8.749999999999998 5.036987082422987 -99.4990915289094
8.749999999999998 14.92466552160167 -60
8.749999999999998 14.40744570253058 -19.14431364550791
8.749999999999998 9.408205030374177 -89.6747225891249
8.749999999999998 9.456404423319643 -49.75852899681078
8.749999999999998 9.444977523899299 -70.2414710031892
8.749999999999998 9.430223973092758 -29.95469498275125
8.749999999999998 10.45492158513078 -109.5455863789163
8.749999999999998 5.057834491002595 -12.74038179440262
8.749999999999998 14.98049606828383 -99.89989881401497
8.749999999999998 5.305743292289341 -60
8.749999999999998 4.623200270705565 -25.80505406494572
8.749999999999998 6.679406024533045 -34.71994282451492
8.749999999999998 6.616848277697744 -45.07132327479047
8.749999999999998 6.61568226755281 -74.92867672520951
8.749999999999998 6.732941421584144 -85.32181373240854
8.749999999999998 14.90528231244217 -25.87447305750876
8.749999999999998 4.94561048257005 -19.19635983998188
8.749999999999998 14.94265227561936 -12.73444835561011
8.749999999999998 4.566926337930311 -53.63563091731163
8.749999999999998 4.560533213929636 -66.36436908268836
8.749999999999998 14.99976223856279 -66.27220227558924
8.749999999999998 15.05344288115813 -106.0058037846509
8.749999999999998 15.00615536256346 -53.72779772441076
8.749999999999998 14.97542438577591 -93.61698500177783
8.749999999999998 4.492578708117628 -93.38028320244952
8.749999999999998 5.237719559489749 -106.1474792995593
8.749999999999998 5.422621887600294 -114.0157342452641
8.749999999999998 10.0000665083361 -8.526506376461505
8.749999999999998 3.065734482886575 -32.01311783599451
8.749999999999998 4.043195480504784 -47.95843686986396
8.749999999999998 4.040031141577127 -72.04156313013604
8.749999999999998 3.008797989675968 -87.69875057099277
8.749999999999998 9.881683850928576 -56.69753832609791
8.749999999999998 9.852894273535219 -63.26259678126078
8.749999999999998 9.842589222675505 -96.50243584675792
8.749999999999998 10.10102606652683 -102.9333826088015
8.749999999999998 9.997326152691205 -15.92654463610859
8.749999999999998 9.718181482338721 -22.65024003780069
8.749999999999998 4.34491353320107 -7.346032097783684
8.749999999999998 15.65521042345775 -7.343736038054963
10.25 3.10416666666666 -3
-10.25 3.104166666666673 -3
11.75 20.125 -1.5
11.75 14.37499999999999 -1.5
11.75 8.624999999999988 -1.5
11.75 2.874999999999994 -1.5
3.157610638484559 18.22886740495932 0
-2.707174061168084 4.878797530676509 0
7.069955745470663 8.716546370640001 0
-6.619519168154188 14.39111856499582 0
7.102873022115113 14.37499999999999 0
0.1126091443291184 11.52691623390895 0
-7.000954855602268 8.644857627020135 0
-2.792058517349995 18.15992185565015 0
2.948495529093417 4.721447277005962 0
-7.528051718759411 18.81262893003678 0
7.528051718759418 4.187371069963204 0
7.820492259183635 19.07601590637069 0
-7.553981076842909 4.160878030182232 0
-11.75 20.125 -1.5
-11.75 14.37499999999999 -1.5
-11.75 8.624999999999988 -1.5
-11.75 2.874999999999994 -1.5
-8.750000000000002 5.036987082422987 -99.4990915289094
-8.750000000000002 14.92466552160167 -60
-8.750000000000002 14.40744570253057 -19.14431364550786
-8.750000000000002 9.408205030374177 -89.67472258912491
-8.750000000000002 9.444977523899299 -70.24147100318922
-8.750000000000002 9.456404423319643 -49.75852899681078
-8.750000000000002 9.430223973092751 -29.95469498275124
-8.750000000000002 10.45492158513078 -109.5455863789163
-8.750000000000002 5.057834491002588 -12.74038179440264
-8.750000000000002 14.98049606828383 -99.89989881401497
-8.750000000000002 5.305743292289341 -60
-8.750000000000002 4.623200270705557 -25.80505406494572
-8.750000000000002 6.679406024533043 -34.71994282451492
-8.750000000000002 6.616848277697738 -45.07132327479047
-8.750000000000002 6.732941421584144 -85.32181373240854
-8.750000000000002 6.615682267552806 -74.92867672520951
-8.750000000000002 14.90528231244216 -25.87447305750874
-8.750000000000002 4.945610482570035 -19.1963598399819
-8.750000000000002 14.94265227561936 -12.73444835561007
-8.750000000000002 4.566926337930311 -53.63563091731163
-8.750000000000002 4.560533213929636 -66.36436908268836
-8.750000000000002 14.99976223856279 -66.27220227558924
-8.750000000000002 15.05344288115813 -106.0058037846509
-8.750000000000002 15.00615536256346 -53.72779772441076
-8.750000000000002 14.97542438577591 -93.61698500177783
-8.750000000000002 4.492578708117628 -93.38028320244952
-8.750000000000002 5.237719559489749 -106.1474792995593
-8.750000000000002 5.422621887600294 -114.0157342452641
-8.750000000000002 10.00006650833614 -8.526506376461469
-8.750000000000002 3.06573448288658 -32.01311783599451
-8.750000000000002 4.043195480504783 -47.95843686986396
-8.750000000000002 4.040031141577125 -72.04156313013604
-8.750000000000002 3.00879798967597 -87.69875057099277
-8.750000000000002 9.881683850928576 -56.69753832609791
-8.750000000000002 9.852894273535219 -63.26259678126078
-8.750000000000002 9.842589222675505 -96.50243584675792
-8.750000000000002 10.10102606652683 -102.9333826088015
-8.750000000000002 9.997326152691143 -15.92654463610862
-8.750000000000002 9.718181482338702 -22.65024003780069
-8.750000000000002 4.344913533201087 -7.346032097783684
-8.750000000000002 15.65521042345777 -7.343736038054942
-9.892613827687162 1.710304181689746 -36.91682207633282
-10.64306286982608 3.075462446629955 -40
-9.89261382768716 1.710304181689732 -43.08317792366719
-9.892613827687162 1.710304181689737 -76.91682207633281
-10.64306286982608 3.075462446629955 -80
-9.892613827687171 1.710304181689734 -83.08317792366717
5.408163265306122 3.398083327013067 -120
0 3.398083327013067 -120
-5.40816326530612 3.398083327013068 -120
9.75187967690146 1.624535815689522 -83.27322059745205
10.92791052796272 1.820447199053908 -79.99682416653195
9.747685912902341 5.264586959592072 -80
9.751879676901465 1.624535815689517 -76.72677940254793
-3.626893329731557 13.39808332701307 -114.4154509164063
3.510951097183037 13.39808332701307 -114.4154509164063
-0.01932370542475326 10.06777372731725 -117.2325536373727
-0.01932370542475326 16.7283929267089 -111.59834819544
4.523070967625524 10.00907120091253 -117.2822099957117
-4.523070967625527 16.78709545311361 -111.5486918371009
-4.523070967625522 10.00907120091253 -117.2822099957117
4.523070967625524 16.78709545311361 -111.5486918371009
-1.77635683940025e-15 20 -103.7790869774034
-1.77635683940025e-15 20 -96.2209130225966
4.412997428224768 20 -100
-4.41299742822477 20 -100
-4.488992284674303 20 -104.5552426437293
4.488992284674306 20 -95.44475735627066
-4.488992284674305 20 -95.44475735627066
4.488992284674305 20 -104.5552426437293
-1.77635683940025e-15 15.39243104736703 -87.27156412570129
4.349618592535927 12.38516589844061 -84.72772410719921
-4.349618592535935 12.3851658984406 -84.72772410719919
4.594507055132094 16.7266611226686 -88.40018687473054
-4.594507055132095 16.7266611226686 -88.40018687473054
-1.77635683940025e-15 15.39243104736705 -72.7284358742987
-4.349618592535926 12.38516589844065 -75.27227589280076
4.349618592535924 12.38516589844064 -75.27227589280078
-4.594507055132093 16.72666112266861 -71.59981312526946
4.594507055132092 16.7266611226686 -71.59981312526946
0 20 -63.42598423596021
0 20 -56.44739291506745
4.412997428224769 20 -59.97889619183795
-4.41299742822477 20 -59.97889619183795
-4.488992284674305 20 -55.44475735627066
-4.488992284674303 20 -64.55524264372934
4.488992284674306 20 -55.44475735627066
4.488992284674305 20 -64.55524264372934
0 15.39243104736703 -47.27156412570129
-4.349618592535926 12.38516589844061 -44.72772410719921
4.349618592535931 12.38516589844061 -44.72772410719921
4.594507055132094 16.7266611226686 -48.40018687473054
-4.594507055132093 16.7266611226686 -48.40018687473054
-1.77635683940025e-15 15.39243104736703 -32.7284358742987
4.349618592535931 12.38516589844061 -35.27227589280079
-4.349618592535935 12.38516589844061 -35.27227589280079
4.594507055132093 16.7266611226686 -31.59981312526946
-4.594507055132095 16.7266611226686 -31.59981312526946
0.1924502380153328 20 -7.890003993190845
-1.77635683940025e-15 20 -23.77908697740339
3.908218423350441 20 -12.2866556392096
-2.657441685105122 20 -13.02563703541666
3.475742196008015 20 -19.03290288484716
-3.774894023737277 20 -19.59077533581231
4.602158873995277 20 -7.340995949891008
-4.602158873995279 20 -24.48990588292161
4.602158873995267 20 -24.48990588292161
-4.576331622751291 20 -7.274673297362128
8.812499999999986 23 -1.5
2.937499999999966 23 -1.5
-8.812500000000007 23 -1.5
-2.937500000000028 23 -1.5
4.553932586995683 10.09925514603926 -80.01717200429968
-4.553932586995652 10.09925514603927 -79.9828279957003
1.297797324020556e-14 11.07850425426202 -79.98939540512063
-4.553932586995679 10.09925514603926 -39.98282799570032
4.553932586995683 10.09925514603926 -40.01717200429968
1.051805113990767e-14 11.07850425426202 -40.01060459487937
-4.805303269610755 4.126017696099924 -83.47626822327588
4.969540021536783 3.855033307873756 -83.53107446184114
-1.11217416046754e-14 6.484509788232883 -83.28899424002762
-4.331642843416572 2.312936953133701 -81.28431363699639
4.679106628114035 2.312936953133701 -81.8775197703327
2.477205845060645 2.312936953133701 -78.65108998217832
-3.799435960843207 2.312936953133701 -77.38546456180606
-1.489577415390367e-14 7.689454741104835 -80.09385346038661
5.743902566352062 5.112269312521966 -80.09385346038661
-5.743902566352073 5.112269312521954 -79.90614653961339
4.96954002153679 3.85503330787376 -76.46892553815884
-4.805303269610749 4.126017696099926 -76.52373177672411
-1.112174160467539e-14 6.484509788232878 -76.71100575997235
4.969540021536789 3.855033307873762 -43.53107446184114
-4.805303269610762 4.126017696099922 -43.47626822327588
-1.252520494788706e-14 6.465726156609311 -43.3123098605714
4.679106628114035 2.312936953133701 -41.8775197703327
-4.331642843416573 2.312936953133701 -41.28431363699639
2.477205845060645 2.312936953133701 -38.65108998217832
-3.799435960843205 2.312936953133701 -37.38546456180606
-1.489577415390367e-14 7.689454741104835 -40.09385346038662
5.753552594442787 5.101406351044807 -40
-5.74390256635207 5.112269312521957 -39.90614653961339
4.969540021536787 3.855033307873762 -36.46892553815886
-4.805303269610751 4.126017696099927 -36.52373177672411
-1.11217416046754e-14 6.484509788232883 -36.71100575997237
-1.909583602355269e-14 8.298835637311516 -67.16212932712043
-1.454392162258955e-14 8.402889069744251 -27.5804390869506
-1.509903313490213e-14 8.319454573703519 -92.75497958386458
-1.443289932012704e-14 7.983979913086841 -52.61009737971979
-1.474514954580286e-15 8.982081833680301 -106.2382313588815
1.77635683940025e-15 11.31078150422096 -18.75741931065242
-7.105427357601002e-15 8.78904674974477 -10.13934664768209
-0.8272317962035771 12.54494574824575 -59.93668857551383
-1.133333261917577 12.79456151086306 -99.36363655423274
-1.443289932012704e-14 8.120488047479686 -72.07504545875068
-1.479316584704667e-14 8.087129488064051 -87.88917374640985
-1.96567011987045 14.02929793416585 -5.828753119532005
-0.1342973737630451 5.720734088900238 -112.1108384536067
-1.4210854715202e-14 7.986594808075653 -47.83681732864486
-7.771561172376096e-15 4.370904273835668 -30.67139721479485
-2.249236564506448 13.8049523537033 -24.47015032714883
2.136259688546815 14.06649292576989 -53.88301619622828
2.184726094412545 6.565273905587454 -58.86959425463375

CELLS 2920 12790
1 0
1 1
1 2
1 3
1 4
1 5
1 6
1 7
1 8
1 9
1 10
1 11
1 12
1 13
1 14
1 15
1 16
1 17
1 18
1 19
1 20
1 21
1 22
1 23
1 24
1 25
1 26
1 27
1 28
1 29
1 30
1 31
1 32
1 33
1 34
1 35
1 36
1 37
1 38
1 39
1 40
1 41
1 42
1 43
1 44
1 45
1 46
1 47
1 48
1 49
1 50
1 51
1 52
1 53
1 54
1 55
1 56
1 57
1 58
1 59
1 60
1 61
1 62
1 63
1 64
1 65
1 66
1 67
1 68
1 69
1 70
1 71
1 72
1 73
1 74
1 75
1 76
1 77
1 78
1 79
1 80
1 81
2 0 1
2 1 2
2 2 3
2 3 82
2 82 83
2 83 84
2 84 85
2 85 4
2 4 5
2 5 6
2 6 86
2 86 87
2 87 88
2 88 7
2 8 7
2 8 9
2 9 89
2 89 90
2 90 91
2 91 92
2 92 10
2 11 10
2 12 11
2 13 12
2 13 93
2 93 94
2 94 95
2 95 96
2 96 14
2 15 14
2 16 15
2 17 16
2 17 97
2 97 98
2 98 99
2 99 100
2 100 101
2 101 18
2 19 102
2 102 103
2 103 18
2 20 104
2 104 105
2 105 106
2 106 107
2 107 108
2 108 19
2 20 21
2 21 22
2 22 23
2 0 109
2 109 110
2 110 111
2 111 112
2 112 23
2 1 113
2 113 24
2 24 114
2 114 0
2 24 115
2 115 25
2 2 116
2 116 25
2 3 117
2 117 25
2 23 118
2 118 26
2 26 27
2 27 119
2 119 20
2 19 28
2 28 120
2 120 121
2 121 29
2 29 122
2 122 123
2 123 30
2 30 124
2 124 125
2 125 31
2 31 126
2 126 127
2 127 32
2 32 128
2 128 129
2 129 33
2 33 130
2 130 131
2 131 34
2 34 132
2 132 133
2 133 35
2 35 134
2 134 135
2 135 136
2 136 36
2 4 137
2 137 138
2 138 36
2 38 139
2 139 140
2 140 141
2 141 37
2 8 142
2 142 143
2 143 144
2 144 38
2 39 145
2 145 146
2 146 9
2 39 147
2 147 148
2 148 36
2 5 149
2 149 150
2 150 151
2 151 37
2 6 152
2 152 153
2 153 154
2 154 40
2 37 40
2 41 155
2 155 156
2 156 157
2 157 40
2 7 158
2 158 159
2 159 160
2 160 41
2 38 41
2 42 161
2 161 13
2 14 162
2 162 43
2 44 163
2 163 43
2 44 164
2 164 17
2 18 45
2 45 165
2 165 166
2 166 46
2 46 167
2 167 168
2 168 47
2 47 169
2 169 170
2 170 48
2 48 171
2 171 172
2 172 49
2 49 173
2 173 174
2 174 50
2 50 175
2 175 176
2 176 51
2 51 177
2 177 178
2 178 52
2 39 179
2 179 180
2 180 181
2 181 52
2 10 182
2 182 53
2 42 183
2 183 53
2 53 184
2 184 11
2 42 185
2 185 12
2 43 186
2 186 15
2 44 187
2 187 16
2 28 188
2 188 189
2 189 45
2 21 190
2 190 27
2 22 191
2 191 26
2 29 192
2 192 193
2 193 46
2 30 194
2 194 195
2 195 47
2 31 54
2 54 55
2 55 196
2 196 56
2 56 57
2 57 48
2 32 197
2 197 198
2 198 49
2 57 58
2 58 199
2 199 59
2 59 54
2 33 200
2 200 201
2 201 50
2 34 60
2 60 61
2 61 202
2 202 62
2 62 63
2 63 51
2 35 203
2 203 204
2 204 52
2 63 64
2 64 205
2 205 65
2 65 60
2 59 206
2 206 207
2 207 58
2 55 208
2 208 209
2 209 56
2 65 210
2 210 211
2 211 64
2 61 212
2 212 213
2 213 62
2 66 214
2 214 215
2 215 67
2 67 216
2 216 66
2 66 217
2 217 68
2 68 218
2 218 219
2 219 69
2 69 220
2 220 67
2 68 70
2 70 221
2 221 71
2 71 222
2 222 72
2 72 223
2 223 73
2 69 73
2 70 224
2 224 225
2 225 73
2 71 226
2 226 227
2 227 72
2 74 228
2 228 229
2 229 75
2 75 230
2 230 74
2 74 231
2 231 76
2 76 232
2 232 233
2 233 77
2 77 234
2 234 75
2 76 78
2 78 235
2 235 79
2 79 236
2 236 80
2 80 237
2 237 81
2 77 81
2 78 238
2 238 239
2 239 81
2 79 240
2 240 241
2 241 80
3 1 273 0
3 0 257 109
3 0 273 257
3 2 273 1
3 3 273 2
3 82 245 3
3 245 246 3
3 246 273 3
3 6 4 5
3 86 4 6
3 4 262 85
3 86 262 4
3 8 9 7
3 7 9 88
3 9 253 88
3 89 293 9
3 9 293 253
3 11 251 10
3 10 259 92
3 251 277 10
3 10 277 259
3 12 251 11
3 13 251 12
3 93 244 13
3 244 280 13
3 13 280 251
3 15 274 14
3 14 243 96
3 14 281 243
3 274 281 14
3 16 274 15
3 17 274 16
3 97 242 17
3 242 247 17
3 247 274 17
3 18 290 101
3 103 290 18
3 19 289 102
3 108 289 19
3 21 252 20
3 20 282 104
3 252 292 20
3 20 292 282
3 22 252 21
3 23 252 22
3 112 279 23
3 23 256 252
3 23 279 256
3 83 286 82
3 82 286 245
3 84 267 83
3 267 286 83
3 85 260 84
3 260 267 84
3 85 262 260
3 87 262 86
3 88 253 87
3 253 262 87
3 90 266 89
3 266 293 89
3 91 254 90
3 254 266 90
3 92 285 91
3 91 285 254
3 259 285 92
3 94 270 93
3 93 270 244
3 95 250 94
3 250 270 94
3 96 271 95
3 95 271 250
3 243 271 96
3 98 268 97
3 97 268 242
3 99 284 98
3 98 284 268
3 100 249 99
3 249 284 99
3 101 275 100
3 100 275 249
3 101 290 275
3 102 248 103
3 102 289 248
3 248 290 103
3 104 255 105
3 104 282 255
3 105 283 106
3 255 283 105
3 106 264 107
3 106 283 264
3 107 276 108
3 264 276 107
3 276 289 108
3 109 265 110
3 257 265 109
3 110 272 111
3 265 272 110
3 111 258 112
3 111 272 258
3 258 279 112
3 242 261 247
3 242 268 261
3 243 287 271
3 281 287 243
3 270 291 244
3 278 280 244
3 244 291 278
3 245 277 246
3 245 263 259
3 259 277 245
3 245 286 263
3 246 278 273
3 277 278 246
3 261 281 247
3 247 281 274
3 248 276 275
3 275 290 248
3 248 289 276
3 264 269 249
3 249 276 264
3 269 284 249
3 275 276 249
3 250 271 258
3 258 272 250
3 265 270 250
3 250 272 265
3 251 280 277
3 256 292 252
3 253 288 262
3 253 293 288
3 260 266 254
3 254 267 260
3 263 267 254
3 254 285 263
3 261 268 255
3 255 282 261
3 268 269 255
3 269 283 255
3 279 287 256
3 256 287 281
3 281 292 256
3 257 291 265
3 273 278 257
3 278 291 257
3 271 287 258
3 258 287 279
3 263 285 259
3 262 288 260
3 260 288 266
3 261 292 281
3 282 292 261
3 263 286 267
3 264 283 269
3 265 291 270
3 288 293 266
3 268 284 269
3 277 280 278
3 0 294 1
3 114 294 0
3 1 294 113
3 113 114 24
3 113 294 114
3 1 295 2
3 113 295 1
3 2 295 116
3 113 24 115
3 116 115 25
3 115 295 113
3 116 295 115
3 2 296 3
3 116 296 2
3 3 296 117
3 116 25 117
3 117 296 116
3 109 327 0
3 0 327 114
3 3 326 82
3 117 326 3
3 85 336 4
3 4 336 137
3 28 324 19
3 19 324 108
3 104 329 20
3 20 329 119
3 23 328 112
3 118 328 23
3 115 24 34
3 34 24 131
3 114 310 24
3 24 310 131
3 115 34 25
3 25 34 132
3 25 309 117
3 132 309 25
3 31 26 27
3 126 26 31
3 26 311 118
3 126 311 26
3 27 125 31
3 119 312 27
3 27 312 125
3 120 324 28
3 29 319 121
3 122 319 29
3 30 321 123
3 124 321 30
3 32 318 127
3 128 318 32
3 33 320 129
3 130 320 33
3 35 313 133
3 134 313 35
3 36 337 136
3 138 337 36
3 82 308 83
3 82 326 308
3 83 314 84
3 308 314 83
3 84 305 85
3 84 314 305
3 305 336 85
3 105 322 104
3 322 329 104
3 106 297 105
3 297 322 105
3 107 323 106
3 106 323 297
3 108 324 107
3 107 324 323
3 110 316 109
3 316 327 109
3 111 307 110
3 307 316 110
3 112 317 111
3 111 317 307
3 112 328 317
3 114 327 310
3 309 326 117
3 311 328 118
3 119 329 312
3 121 304 120
3 304 324 120
3 121 319 304
3 123 306 122
3 306 319 122
3 123 321 306
3 125 300 124
3 300 321 124
3 125 312 300
3 127 302 126
3 302 311 126
3 127 318 302
3 129 298 128
3 298 318 128
3 129 320 298
3 131 301 130
3 301 320 130
3 131 310 301
3 133 303 132
3 303 309 132
3 133 313 303
3 135 299 134
3 299 313 134
3 136 315 135
3 135 315 299
3 136 337 315
3 137 325 138
3 137 336 325
3 325 337 138
3 297 332 322
3 323 333 297
3 297 333 332
3 298 331 318
3 320 330 298
3 330 331 298
3 299 335 313
3 315 334 299
3 334 335 299
3 312 329 300
3 300 332 321
3 300 329 322
3 322 332 300
3 310 327 301
3 301 327 316
3 316 330 301
3 301 330 320
3 302 328 311
3 317 328 302
3 302 331 317
3 318 331 302
3 308 326 303
3 303 335 308
3 303 326 309
3 313 335 303
3 319 333 304
3 323 324 304
3 304 333 323
3 314 334 305
3 305 334 325
3 325 336 305
3 306 333 319
3 321 332 306
3 332 333 306
3 307 330 316
3 317 331 307
3 307 331 330
3 308 335 314
3 314 335 334
3 325 334 315
3 315 337 325
3 5 4 338
3 4 137 338
3 149 5 338
3 9 8 339
3 8 142 339
3 146 9 339
3 36 141 37
3 151 36 37
3 151 138 36
3 36 148 141
3 38 139 39
3 38 39 144
3 139 147 39
3 144 39 145
3 138 150 137
3 137 150 149
3 137 149 338
3 151 150 138
3 147 139 140
3 141 148 140
3 148 147 140
3 142 143 146
3 142 146 339
3 143 144 145
3 143 145 146
3 5 343 6
3 149 343 5
3 6 343 152
3 40 340 37
3 37 340 151
3 154 340 40
3 150 342 149
3 149 342 152
3 152 343 149
3 151 341 150
3 150 341 153
3 153 342 150
3 151 340 154
3 154 341 151
3 152 342 153
3 153 341 154
3 6 354 86
3 152 354 6
3 88 356 7
3 7 356 158
3 40 355 154
3 157 355 40
3 41 353 155
3 160 353 41
3 86 352 87
3 86 354 352
3 87 345 88
3 87 352 345
3 345 356 88
3 153 346 152
3 346 354 152
3 154 348 153
3 153 348 346
3 154 355 348
3 155 351 156
3 155 353 351
3 156 344 157
3 156 351 344
3 344 355 157
3 158 350 159
3 158 356 350
3 159 347 160
3 159 350 347
3 347 353 160
3 344 349 348
3 348 355 344
3 344 351 349
3 349 350 345
3 345 352 349
3 350 356 345
3 348 349 346
3 349 352 346
3 352 354 346
3 347 350 349
3 349 351 347
3 351 353 347
3 8 7 360
3 7 158 360
3 142 8 360
3 41 38 357
3 38 144 357
3 160 41 357
3 143 142 359
3 142 158 359
3 158 142 360
3 144 143 358
3 143 159 358
3 159 143 359
3 144 160 357
3 160 144 358
3 158 159 359
3 159 160 358
3 89 9 400
3 9 146 400
3 10 92 390
3 182 10 390
3 93 13 391
3 13 161 391
3 14 96 392
3 162 14 392
3 97 17 393
3 17 164 393
3 45 18 388
3 18 101 388
3 145 39 401
3 39 179 401
3 176 42 51
3 42 183 51
3 161 42 374
3 42 176 374
3 163 43 48
3 43 171 48
3 43 162 376
3 171 43 376
3 44 163 48
3 170 44 48
3 164 44 375
3 44 170 375
3 165 45 388
3 46 166 383
3 167 46 383
3 47 168 385
3 169 47 385
3 49 172 382
3 173 49 382
3 50 174 384
3 175 50 384
3 53 177 51
3 183 53 51
3 52 178 377
3 181 52 377
3 177 53 373
3 53 182 373
3 90 89 369
3 369 89 400
3 91 90 378
3 90 369 378
3 92 91 372
3 372 91 378
3 92 372 390
3 94 93 380
3 380 93 391
3 95 94 371
3 371 94 380
3 96 95 381
3 95 371 381
3 96 381 392
3 98 97 386
3 386 97 393
3 99 98 361
3 361 98 386
3 100 99 387
3 99 361 387
3 101 100 388
3 100 387 388
3 146 145 389
3 389 145 401
3 146 389 400
3 161 374 391
3 376 162 392
3 164 375 393
3 166 165 368
3 368 165 388
3 166 368 383
3 168 167 370
3 370 167 383
3 168 370 385
3 170 169 364
3 364 169 385
3 170 364 375
3 172 171 365
3 365 171 376
3 172 365 382
3 174 173 362
3 362 173 382
3 174 362 384
3 176 175 366
3 366 175 384
3 176 366 374
3 178 177 367
3 367 177 373
3 178 367 377
3 179 180 379
3 179 379 401
3 180 181 363
3 180 363 379
3 363 181 377
3 373 182 390
3 361 386 396
3 387 361 397
3 361 396 397
3 362 382 395
3 384 362 394
3 394 362 395
3 363 377 399
3 379 363 398
3 398 363 399
3 375 364 393
3 364 385 396
3 364 386 393
3 386 364 396
3 365 376 392
3 381 365 392
3 365 381 395
3 382 365 395
3 374 366 391
3 366 380 391
3 380 366 394
3 366 384 394
3 372 367 390
3 367 372 399
3 367 373 390
3 377 367 399
3 383 368 397
3 387 368 388
3 368 387 397
3 378 369 398
3 369 389 398
3 389 369 400
3 370 383 397
3 385 370 396
3 396 370 397
3 371 380 394
3 381 371 395
3 371 394 395
3 372 378 399
3 378 398 399
3 389 379 398
3 379 389 401
3 10 402 11
3 182 402 10
3 11 402 184
3 53 184 182
3 184 402 182
3 11 403 12
3 184 403 11
3 12 403 185
3 42 185 183
3 53 183 184
3 183 403 184
3 185 403 183
3 12 404 13
3 185 404 12
3 13 404 161
3 42 161 185
3 161 404 185
3 14 405 15
3 162 405 14
3 15 405 186
3 43 186 162
3 186 405 162
3 15 406 16
3 186 406 15
3 16 406 187
3 43 163 186
3 44 187 163
3 163 406 186
3 187 406 163
3 16 407 17
3 187 407 16
3 17 407 164
3 44 164 187
3 164 407 187
3 45 410 18
3 18 410 103
3 19 408 28
3 102 408 19
3 28 408 188
3 189 410 45
3 103 409 102
3 102 409 408
3 103 410 409
3 188 409 189
3 408 409 188
3 409 410 189
3 20 411 21
3 119 411 20
3 21 411 190
3 190 119 27
3 190 411 119
3 21 412 22
3 190 412 21
3 22 412 191
3 26 413 27
3 191 413 26
3 27 413 190
3 191 412 190
3 190 413 191
3 22 414 23
3 191 414 22
3 23 414 118
3 191 26 118
3 118 414 191
3 28 419 120
3 188 419 28
3 121 422 29
3 29 422 192
3 165 421 45
3 45 421 189
3 46 420 166
3 193 420 46
3 120 416 121
3 120 419 416
3 416 422 121
3 166 415 165
3 415 421 165
3 166 420 415
3 189 417 188
3 417 419 188
3 189 421 417
3 192 418 193
3 192 422 418
3 418 420 193
3 416 417 415
3 415 418 416
3 417 421 415
3 415 420 418
3 416 419 417
3 418 422 416
3 29 430 122
3 192 430 29
3 123 428 30
3 30 428 194
3 167 427 46
3 46 427 193
3 47 429 168
3 195 429 47
3 122 425 123
3 122 430 425
3 425 428 123
3 168 426 167
3 426 427 167
3 168 429 426
3 193 423 192
3 423 430 192
3 193 427 423
3 194 424 195
3 194 428 424
3 424 429 195
3 424 425 423
3 423 426 424
3 425 430 423
3 423 427 426
3 424 428 425
3 426 429 424
3 30 434 124
3 194 434 30
3 31 55 54
3 125 55 31
3 169 435 47
3 47 435 195
3 56 48 57
3 56 170 48
3 125 432 55
3 55 432 196
3 56 433 170
3 196 433 56
3 124 432 125
3 124 434 432
3 170 433 169
3 433 435 169
3 195 431 194
3 431 434 194
3 195 435 431
3 196 432 431
3 431 433 196
3 432 434 431
3 431 435 433
3 31 54 59
3 31 59 126
3 127 440 32
3 32 440 197
3 57 48 58
3 48 171 58
3 49 439 172
3 198 439 49
3 171 437 58
3 58 437 199
3 59 438 126
3 199 438 59
3 126 438 127
3 438 440 127
3 172 437 171
3 172 439 437
3 197 436 198
3 197 440 436
3 436 439 198
3 199 437 436
3 436 438 199
3 437 439 436
3 436 440 438
3 32 448 128
3 197 448 32
3 129 447 33
3 33 447 200
3 173 446 49
3 49 446 198
3 50 445 174
3 201 445 50
3 128 443 129
3 128 448 443
3 443 447 129
3 174 444 173
3 444 446 173
3 174 445 444
3 198 441 197
3 441 448 197
3 198 446 441
3 200 442 201
3 200 447 442
3 442 445 201
3 442 443 441
3 441 444 442
3 443 448 441
3 441 446 444
3 442 447 443
3 444 445 442
3 33 452 130
3 200 452 33
3 34 61 60
3 131 61 34
3 175 453 50
3 50 453 201
3 63 62 51
3 51 62 176
3 131 451 61
3 61 451 202
3 62 450 176
3 202 450 62
3 130 451 131
3 130 452 451
3 176 450 175
3 450 453 175
3 201 449 200
3 449 452 200
3 201 453 449
3 449 450 202
3 202 451 449
3 449 453 450
3 451 452 449
3 65 34 60
3 132 34 65
3 133 457 35
3 35 457 203
3 64 63 51
3 64 51 177
3 52 458 178
3 204 458 52
3 177 456 64
3 64 456 205
3 65 455 132
3 205 455 65
3 132 455 133
3 455 457 133
3 178 456 177
3 178 458 456
3 203 454 204
3 203 457 454
3 454 458 204
3 454 455 205
3 205 456 454
3 454 457 455
3 456 458 454
3 35 467 134
3 203 467 35
3 136 465 36
3 36 465 148
3 147 468 39
3 39 468 179
3 181 466 52
3 52 466 204
3 134 463 135
3 134 467 463
3 135 461 136
3 135 463 461
3 461 465 136
3 148 459 147
3 459 468 147
3 148 465 459
3 179 462 180
3 179 468 462
3 180 464 181
3 462 464 180
3 464 466 181
3 204 460 203
3 460 467 203
3 204 466 460
3 461 462 459
3 459 465 461
3 462 468 459
3 460 464 463
3 463 467 460
3 460 466 464
3 461 463 462
3 463 464 462
3 37 469 40
3 141 469 37
3 41 471 38
3 38 471 139
3 40 469 157
3 155 471 41
3 139 472 140
3 139 471 155
3 155 472 139
3 140 470 141
3 156 470 140
3 140 472 156
3 157 469 141
3 141 470 157
3 156 472 155
3 157 470 156
3 55 473 54
3 54 473 59
3 208 473 55
3 57 474 56
3 56 474 209
3 58 474 57
3 207 474 58
3 59 473 206
3 206 475 207
3 206 473 208
3 208 475 206
3 209 474 207
3 207 475 209
3 209 475 208
3 55 196 208
3 196 56 209
3 208 196 209
3 199 207 58
3 59 206 199
3 206 207 199
3 61 477 60
3 60 477 65
3 212 477 61
3 63 476 62
3 62 476 213
3 64 476 63
3 211 476 64
3 65 477 210
3 210 478 211
3 210 477 212
3 212 478 210
3 213 476 211
3 211 478 213
3 213 478 212
3 61 202 212
3 202 62 213
3 212 202 213
3 205 211 64
3 65 210 205
3 210 211 205
3 214 216 66
3 216 215 67
3 215 216 214
3 214 66 480
3 66 217 480
3 67 215 479
3 220 67 479
3 217 68 480
3 68 218 480
3 219 69 479
3 69 220 479
3 215 214 481
3 218 214 480
3 214 218 481
3 215 219 479
3 219 215 481
3 218 219 481
3 216 483 66
3 66 483 217
3 67 482 216
3 220 482 67
3 68 483 70
3 217 483 68
3 73 482 69
3 69 482 220
3 70 484 221
3 483 484 70
3 221 484 71
3 71 484 222
3 222 485 72
3 72 485 223
3 223 485 73
3 73 485 482
3 482 484 216
3 216 484 483
3 484 485 222
3 482 485 484
3 68 70 487
3 218 68 487
3 73 69 488
3 69 219 488
3 70 224 487
3 225 73 488
3 219 218 486
3 218 224 486
3 224 218 487
3 225 219 486
3 219 225 488
3 224 225 486
3 70 221 489
3 224 70 489
3 221 71 489
3 71 226 489
3 72 223 490
3 227 72 490
3 223 73 490
3 73 225 490
3 225 224 491
3 226 224 489
3 224 226 491
3 225 227 490
3 227 225 491
3 226 227 491
3 222 226 71
3 222 72 227
3 226 222 227
3 228 230 74
3 229 75 230
3 228 229 230
3 228 74 492
3 74 231 492
3 75 229 493
3 234 75 493
3 231 76 492
3 76 232 492
3 233 77 493
3 77 234 493
3 229 228 494
3 232 228 492
3 228 232 494
3 229 233 493
3 233 229 494
3 232 233 494
3 230 495 74
3 74 495 231
3 75 496 230
3 234 496 75
3 76 495 78
3 231 495 76
3 81 496 77
3 77 496 234
3 78 497 235
3 495 497 78
3 235 497 79
3 79 497 236
3 236 498 80
3 80 498 237
3 237 498 81
3 81 498 496
3 230 497 495
3 496 497 230
3 497 498 236
3 496 498 497
3 76 78 500
3 232 76 500
3 81 77 501
3 77 233 501
3 78 238 500
3 239 81 501
3 233 232 499
3 232 238 499
3 238 232 500
3 239 233 499
3 233 239 501
3 238 239 499
3 78 235 502
3 238 78 502
3 235 79 502
3 79 240 502
3 80 237 503
3 241 80 503
3 237 81 503
3 81 239 503
3 239 238 504
3 240 238 502
3 238 240 504
3 239 241 503
3 241 239 504
3 240 241 504
3 236 240 79
3 241 236 80
3 241 240 236
4 269 297 509 513
4 269 507 297 513
4 418 193 420 509
4 418 422 192 509
4 337 465 461 516
4 283 264 269 297
4 441 197 448 505
4 269 283 297 507
4 428 507 194 513
4 448 505 318 512
4 198 441 446 512
4 315 337 461 511
4 321 507 428 513
4 333 509 297 513
4 441 505 448 512
4 429 195 435 513
4 314 506 267 510
4 332 297 507 513
4 461 510 315 511
4 378 369 254 510
4 305 334 314 510
4 378 398 369 510
4 369 254 510 511
4 429 435 385 513
4 335 506 314 510
4 378 506 399 510
4 305 314 260 510
4 337 461 511 516
4 264 269 297 509
4 430 319 306 513
4 430 509 319 513
4 314 308 267 506
4 436 198 439 505
4 440 197 436 505
4 314 335 308 506
4 399 378 372 506
4 424 428 194 513
4 214 329 282 515
4 434 431 194 507
4 465 459 461 516
4 226 279 328 514
4 332 333 297 513
4 297 283 322 507
4 214 66 282 329
4 369 266 254 511
4 393 215 242 515
4 198 505 441 512
4 267 506 263 510
4 305 510 260 511
4 380 270 371 508
4 430 306 425 513
4 193 418 423 509
4 253 293 400 511
4 423 418 192 509
4 334 510 305 511
4 398 369 510 511
4 243 227 392 514
4 378 254 506 510
4 504 205 241 519
4 504 240 205 519
4 435 507 385 513
4 441 436 197 505
4 436 441 198 505
4 319 333 306 513
4 253 288 293 511
4 423 192 430 509
4 193 423 427 509
4 378 254 372 506
4 299 467 313 510
4 479 393 215 67
4 257 228 327 518
4 67 242 393 215
4 390 80 503 241
4 383 509 427 513
4 467 313 510 520
4 314 267 260 510
4 319 509 333 513
4 505 512 371 522
4 226 279 71 328
4 448 318 298 512
4 465 337 148 516
4 254 285 372 506
4 393 479 215 375
4 397 361 509 513
4 395 371 505 512
4 267 308 286 506
4 448 298 443 512
4 391 229 244 518
4 279 317 328 505
4 306 321 428 513
4 253 352 288 511
4 72 392 243 227
4 228 74 257 327
4 227 490 392 376
4 263 506 254 510
4 493 391 374 229
4 396 507 361 513
4 303 455 240 506
4 456 367 241 506
4 255 322 283 507
4 424 431 195 513
4 400 146 345 511
4 138 148 337 516
4 423 509 430 513
4 490 392 72 227
4 493 75 391 229
4 318 505 331 512
4 313 457 506 520
4 373 390 503 241
4 394 380 371 508
4 367 373 456 241
4 240 303 309 455
4 257 291 228 518
4 267 263 254 510
4 425 306 428 513
4 253 400 345 511
4 461 462 510 511
4 138 337 325 516
4 371 394 508 522
4 332 507 321 513
4 453 508 384 521
4 381 395 371 505
4 462 379 510 511
4 337 315 325 511
4 288 352 262 511
4 138 325 349 516
4 461 459 462 516
4 390 373 367 241
4 309 303 240 326
4 260 510 254 511
4 427 509 423 513
4 75 244 391 229
4 279 505 328 514
4 315 510 334 511
4 398 510 379 511
4 346 325 137 511
4 453 366 384 508
4 71 489 226 328
4 306 332 321 513
4 345 511 146 516
4 318 331 298 512
4 228 492 74 327
4 137 352 346 511
4 266 293 288 511
4 361 386 268 507
4 338 343 5 149
4 360 8 142 339
4 332 297 322 507
4 361 396 386 507
4 489 311 226 328
4 313 203 457 520
4 492 228 310 327
4 325 511 349 516
4 313 467 203 520
4 249 284 269 509
4 284 361 268 507
4 254 263 285 506
4 337 511 325 516
4 381 371 250 505
4 392 381 271 505
4 313 335 510 520
4 371 512 394 522
4 205 240 455 506
4 456 241 205 506
4 429 424 195 513
4 321 300 434 507
4 435 364 385 507
4 266 400 293 511
4 453 450 366 518
4 313 506 335 520
4 318 440 302 505
4 365 439 382 505
4 380 391 270 508
4 250 505 371 522
4 441 436 198 197
4 263 267 286 506
4 434 300 432 515
4 435 433 364 515
4 508 512 384 521
4 319 422 304 509
4 368 420 383 509
4 394 384 508 512
4 254 260 267 510
4 297 323 264 509
4 335 299 313 510
4 346 349 325 511
4 325 346 138 349
4 461 462 511 516
4 287 279 226 514
4 312 214 432 515
4 215 375 433 515
4 137 325 336 511
4 400 389 146 511
4 311 438 226 514
4 227 437 376 514
4 303 506 240 519
4 241 506 367 519
4 391 244 270 508
4 437 439 365 514
4 440 438 302 514
4 345 352 253 511
4 228 451 310 518
4 374 450 229 518
4 333 332 306 513
4 250 271 381 505
4 379 511 462 516
4 313 457 303 506
4 382 395 505 512
4 445 384 512 521
4 352 349 346 511
4 506 510 335 520
4 269 255 283 507
4 266 260 254 511
4 219 215 479 375
4 389 146 511 516
4 297 333 323 509
4 387 397 361 509
4 257 327 508 518
4 162 225 490 73
4 352 253 288 262
4 182 239 503 81
4 383 397 509 513
4 394 512 508 522
4 328 317 302 505
4 392 365 381 505
4 326 303 240 519
4 390 241 367 519
4 461 463 315 510
4 463 467 299 510
4 453 366 508 518
4 384 201 453 521
4 391 244 508 518
4 490 227 225 376
4 284 268 269 507
4 384 445 201 521
4 457 455 303 506
4 456 458 367 506
4 329 300 322 515
4 386 364 393 515
4 434 507 300 515
4 435 364 507 515
4 345 146 350 516
4 363 462 379 510
4 503 239 373 241
4 79 326 240 519
4 390 80 241 519
4 229 291 244 518
4 440 302 505 514
4 439 505 365 514
4 315 463 299 510
4 396 385 507 513
4 454 506 457 520
4 430 425 423 513
4 463 460 467 520
4 453 449 450 518
4 316 327 301 508
4 391 380 366 508
4 399 510 506 520
4 383 427 370 513
4 257 508 291 518
4 243 287 227 514
4 418 420 415 509
4 457 454 455 506
4 456 454 458 506
4 418 416 422 509
4 382 446 362 512
4 215 261 242 515
4 328 505 302 514
4 392 365 505 514
4 448 443 441 512
4 394 384 366 508
4 400 266 369 511
4 315 299 334 510
4 363 379 398 510
4 415 420 368 509
4 416 304 422 509
4 444 362 446 512
4 445 384 362 512
4 449 508 453 521
4 453 508 449 518
4 300 507 322 515
4 386 507 364 515
4 444 445 362 512
4 434 432 431 515
4 431 433 435 515
4 255 322 507 515
4 316 265 327 508
4 397 396 361 513
4 370 427 426 513
4 331 505 317 522
4 345 349 511 516
4 287 505 279 514
4 298 512 331 522
4 443 512 298 521
4 345 349 352 511
4 504 241 240 519
4 332 300 321 507
4 364 396 385 507
4 218 432 312 214
4 375 219 215 433
4 298 330 512 522
4 437 436 439 514
4 440 436 438 514
4 424 195 431 194
4 205 506 241 519
4 240 506 205 519
4 463 467 510 520
4 298 331 330 522
4 401 379 468 516
4 268 507 386 515
4 301 508 327 518
4 391 508 366 518
4 389 511 379 516
4 440 505 436 514
4 436 505 439 514
4 367 506 458 520
4 419 304 416 517
4 336 305 260 511
4 318 302 331 505
4 382 395 365 505
4 258 317 279 505
4 434 431 507 515
4 431 435 507 515
4 257 327 265 508
4 331 512 505 522
4 363 464 462 510
4 227 225 376 437
4 228 232 310 451
4 397 368 383 509
4 304 333 319 509
4 9 146 339 356
4 325 315 334 511
4 398 379 389 511
4 137 4 338 354
4 239 456 373 241
4 309 238 240 455
4 244 291 270 508
4 312 218 214 480
4 415 416 418 509
4 307 272 317 111
4 409 289 188 517
4 289 408 188 324
4 409 410 290 189
4 408 188 409 289
4 260 262 336 511
4 298 512 330 521
4 421 415 368 517
4 383 370 397 513
4 304 509 416 517
4 395 394 371 512
4 452 301 451 521
4 335 313 303 506
4 203 467 460 520
4 409 189 290 517
4 257 265 291 508
4 454 457 203 520
4 415 509 368 517
4 216 261 215 515
4 291 508 244 518
4 301 518 451 521
4 331 317 307 522
4 232 492 228 310
4 248 289 409 517
4 323 509 304 517
4 260 288 262 511
4 240 502 238 309
4 380 94 371 270
4 443 298 447 521
4 458 506 454 520
4 370 429 385 513
4 271 287 243 514
4 419 324 304 517
4 305 336 325 511
4 389 400 369 511
4 382 362 395 512
4 317 505 258 522
4 269 264 249 509
4 348 138 349 516
4 424 425 428 513
4 372 390 367 519
4 326 308 303 519
4 332 322 300 507
4 364 386 396 507
4 409 290 248 517
4 334 335 314 510
4 378 399 398 510
4 384 394 362 512
4 368 509 387 517
4 426 429 370 513
4 325 334 305 511
4 398 389 369 511
4 308 506 303 519
4 372 367 506 519
4 300 312 432 515
4 364 433 375 515
4 137 325 346 138
4 286 506 308 519
4 459 465 148 516
4 227 222 226 514
4 301 330 316 508
4 380 394 366 508
4 388 421 368 517
4 205 455 454 506
4 456 205 454 506
4 258 279 287 505
4 416 509 415 517
4 188 289 324 517
4 286 308 326 519
4 461 462 463 510
4 372 506 285 519
4 452 451 449 521
4 302 317 331 505
4 381 365 395 505
4 301 310 451 518
4 374 366 450 518
4 311 302 438 514
4 365 376 437 514
4 345 350 349 516
4 145 146 389 516
4 249 509 264 517
4 445 512 442 521
4 218 27 487 68
4 188 324 419 517
4 377 367 458 520
4 372 259 390 519
4 330 521 512 522
4 468 379 462 516
4 389 379 401 516
4 308 335 303 506
4 399 372 367 506
4 271 505 287 514
4 330 316 508 522
4 323 304 324 517
4 9 400 356 293
4 145 350 146 516
4 301 330 508 521
4 451 518 449 521
4 508 518 301 521
4 43 225 162 488
4 369 90 378 254
4 53 239 182 501
4 307 272 110 522
4 348 349 344 516
4 444 446 441 512
4 253 356 400 293
4 258 505 250 522
4 316 307 110 522
4 250 258 271 505
4 266 288 260 511
4 399 506 367 520
4 416 415 417 517
4 259 372 285 519
4 444 442 445 512
4 464 510 363 520
4 388 368 387 517
4 396 370 385 513
4 232 24 500 76
4 25 238 500 78
4 409 188 417 517
4 380 391 93 270
4 387 509 249 517
4 442 512 443 521
4 469 40 157 355
4 41 353 471 155
4 84 314 260 305
4 409 417 189 517
4 250 381 95 371
4 227 287 222 514
4 387 361 99 284
4 254 369 90 266
4 258 250 272 522
4 261 255 507 515
4 387 368 397 509
4 304 323 333 509
4 317 272 258 111
4 268 255 269 507
4 427 423 426 513
4 216 214 261 515
4 253 9 356 293
4 222 287 226 514
4 244 93 391 270
4 263 506 286 519
4 268 261 507 515
4 245 286 326 519
4 360 158 7 356
4 225 162 488 73
4 330 508 521 522
4 343 354 6 152
4 145 39 147 401
4 138 36 337 148
4 192 193 418 423
4 363 510 399 520
4 334 299 335 510
4 363 398 399 510
4 239 182 501 81
4 468 147 401 516
4 154 40 340 355
4 401 147 145 516
4 419 417 188 517
4 285 506 263 519
4 388 387 275 517
4 298 320 447 521
4 94 250 371 270
4 357 353 41 160
4 271 381 95 250
4 390 259 80 519
4 464 463 462 510
4 387 249 275 517
4 468 147 39 401
4 465 337 36 148
4 26 224 487 70
4 77 233 42 501
4 69 219 44 488
4 261 214 66 282
4 394 395 362 512
4 271 96 392 243
4 454 203 204 520
4 463 315 299 135
4 270 508 265 522
4 452 320 301 521
4 381 96 392 271
4 463 461 315 135
4 242 261 268 515
4 279 328 317 112
4 442 443 447 521
4 442 441 443 512
4 55 432 312 218
4 375 56 219 433
4 260 267 314 84
4 351 472 155 156
4 327 265 316 109
4 421 189 417 517
4 370 396 397 513
4 204 203 460 520
4 230 291 229 518
4 376 225 58 437
4 310 232 61 451
4 347 160 358 159
4 377 466 363 520
4 265 508 316 522
4 261 255 268 507
4 282 329 104 322
4 276 249 264 517
4 225 227 491 199
4 215 196 219 481
4 504 239 241 205
4 199 491 224 226
4 481 196 218 214
4 240 504 205 238
4 229 233 494 202
4 202 494 228 232
4 283 105 297 322
4 466 181 377 363
4 467 299 313 134
4 273 0 74 231
4 470 156 344 157
4 230 228 291 518
4 323 324 276 517
4 456 373 64 239
4 309 65 238 455
4 215 214 216 515
4 464 363 466 520
4 110 272 265 522
4 72 14 223 281
4 470 148 140 141
4 140 472 139 147
4 445 442 201 521
4 416 417 419 517
4 222 227 243 287
4 257 265 327 109
4 110 265 316 522
4 222 226 287 71
4 201 449 453 521
4 273 74 495 231
4 444 441 442 512
4 298 330 320 521
4 399 367 377 520
4 69 219 479 44
4 77 233 493 42
4 301 320 330 521
4 462 459 468 516
4 179 468 401 379
4 286 326 308 82
4 245 326 79 519
4 417 415 421 517
4 279 287 226 71
4 239 238 205 504
4 225 224 199 491
4 433 435 364 169
4 124 432 434 300
4 238 205 240 455
4 241 239 456 205
4 314 267 308 83
4 199 227 491 514
4 199 491 226 514
4 426 427 370 167
4 122 425 430 306
4 249 387 99 284
4 481 215 196 515
4 481 196 214 515
4 227 243 72 222
4 342 346 152 153
4 458 454 204 520
4 362 445 444 174
4 447 443 129 298
4 229 202 494 518
4 228 494 202 518
4 362 446 173 444
4 443 298 448 128
4 181 466 464 363
4 424 423 425 513
4 147 347 145 516
4 291 265 270 508
4 453 450 175 366
4 451 301 452 130
4 154 341 153 348
4 365 439 437 172
4 440 438 127 302
4 9 146 356 400
4 435 385 364 169
4 321 124 434 300
4 427 383 370 167
4 319 122 430 306
4 459 148 147 516
4 259 277 10 80
4 336 85 260 305
4 287 271 258 505
4 230 229 228 518
4 437 227 225 514
4 224 226 438 514
4 232 233 202 494
4 432 214 218 515
4 215 433 219 515
4 267 286 308 83
4 350 159 359 158
4 232 451 228 518
4 229 450 233 518
4 453 175 384 366
4 320 452 301 130
4 368 421 165 415
4 120 304 416 419
4 365 439 172 382
4 127 318 440 302
4 105 283 255 322
4 426 424 429 513
4 104 255 282 322
4 178 456 458 367
4 455 457 303 133
4 147 148 351 516
4 262 352 354 137
4 445 362 384 174
4 298 129 447 320
4 382 446 173 362
4 298 318 448 128
4 204 377 458 520
4 377 178 458 367
4 457 313 303 133
4 422 29 192 319
4 46 383 420 193
4 342 149 137 150
4 359 143 146 142
4 277 237 10 80
4 346 348 138 349
4 274 223 14 281
4 141 36 37 469
4 39 38 471 139
4 85 260 262 336
4 466 377 204 520
4 370 429 426 168
4 428 425 123 306
4 430 192 29 319
4 383 46 427 193
4 321 428 123 306
4 370 385 429 168
4 97 393 242 268
4 393 97 386 268
4 426 423 424 513
4 245 277 259 236
4 419 120 304 324
4 165 388 421 368
4 264 283 106 297
4 390 372 92 259
4 229 230 244 291
4 245 246 277 236
4 330 307 316 522
4 24 232 492 76
4 27 218 480 68
4 25 238 78 502
4 224 26 489 70
4 250 270 265 522
4 461 465 337 136
4 251 237 10 277
4 449 518 508 521
4 409 408 289 102
4 410 290 103 409
4 259 372 92 285
4 409 189 417 188
4 275 290 388 517
4 512 521 508 522
4 143 145 144 358
4 150 341 151 138
4 326 286 245 82
4 145 347 350 516
4 357 41 353 471
4 307 330 331 522
4 467 463 299 134
4 461 337 315 136
4 189 45 410 421
4 266 400 89 293
4 72 162 392 490
4 357 38 39 144
4 37 36 151 340
4 75 391 161 493
4 344 351 148 516
4 352 253 262 87
4 230 228 74 257
4 297 106 264 323
4 276 324 289 517
4 199 226 224 514
4 227 199 225 514
4 393 164 67 479
4 228 230 291 257
4 218 312 55 480
4 217 66 480 119
4 265 272 250 522
4 72 223 162 490
4 375 364 170 433
4 300 432 312 125
4 196 218 214 515
4 196 215 219 515
4 164 220 67 479
4 204 52 458 377
4 35 313 203 457
4 450 176 366 374
4 131 301 310 451
4 258 279 317 112
4 347 349 350 516
4 80 237 182 503
4 468 179 462 379
4 365 376 171 437
4 438 302 311 126
4 389 401 145 516
4 35 313 467 203
4 52 204 466 377
4 232 228 202 518
4 229 233 202 518
4 393 164 479 375
4 231 0 74 114
4 422 121 319 304
4 166 383 368 420
4 440 318 32 197
4 439 198 49 382
4 453 384 50 201
4 200 33 452 320
4 201 200 449 521
4 148 344 348 355
4 74 492 231 114
4 194 30 434 321
4 363 399 377 520
4 490 162 392 376
4 65 238 502 309
4 448 32 318 197
4 446 49 198 382
4 374 161 391 493
4 33 200 447 320
4 445 50 384 201
4 452 200 320 521
4 272 307 110 111
4 30 194 428 321
4 161 234 75 493
4 447 320 200 521
4 89 369 400 266
4 233 232 202 499
4 45 388 410 421
4 367 456 373 177
4 309 303 132 455
4 290 248 103 409
4 248 409 289 102
4 100 388 387 275
4 117 502 79 326
4 101 388 290 410
4 489 71 118 328
4 492 74 327 114
4 257 74 278 273
4 262 86 4 354
4 352 345 253 87
4 253 356 9 88
4 324 289 408 108
4 249 276 275 517
4 464 466 460 520
4 340 40 469 355
4 344 349 351 516
4 74 495 278 273
4 121 422 416 304
4 352 86 262 354
4 27 119 190 413
4 312 480 329 119
4 415 166 368 420
4 248 290 275 517
4 347 147 351 516
4 460 466 204 520
4 281 222 287 256
4 442 200 201 521
4 243 14 72 281
4 479 164 44 375
4 234 13 161 75
4 118 311 489 328
4 327 310 492 114
4 261 281 216 247
4 329 480 66 119
4 117 309 502 326
4 191 118 26 413
4 343 4 354 338
4 480 312 27 119
4 339 360 9 356
4 160 144 145 358
4 249 100 387 275
4 75 230 244 229
4 412 21 252 411
4 259 285 263 519
4 312 432 55 125
4 375 170 56 433
4 468 459 147 516
4 238 239 205 499
4 224 225 199 486
4 58 171 376 437
4 59 438 311 126
4 176 450 62 374
4 131 310 61 451
4 246 3 79 245
4 124 432 300 125
4 364 170 433 169
4 290 18 101 410
4 412 252 22 414
4 27 218 487 55
4 53 239 501 64
4 43 225 488 58
4 437 225 199 514
4 199 224 438 514
4 289 248 276 517
4 444 173 362 174
4 298 443 129 128
4 176 175 450 366
4 131 301 451 130
4 302 438 127 126
4 437 171 365 172
4 196 432 218 515
4 196 219 433 515
4 486 206 208 475
4 210 212 499 478
4 486 209 207 475
4 499 213 211 478
4 289 19 408 108
4 232 202 451 518
4 450 202 233 518
4 237 182 10 80
4 223 485 72 281
4 353 147 351 347
4 88 253 356 345
4 29 422 121 319
4 46 383 166 420
4 324 323 276 107
4 100 101 388 275
4 388 101 18 410
4 202 449 451 518
4 449 202 450 518
4 323 264 276 107
4 303 132 455 133
4 178 456 367 177
4 167 370 426 168
4 425 122 123 306
4 200 452 449 521
4 324 408 19 108
4 416 121 304 120
4 431 196 433 515
4 196 431 432 515
4 438 436 199 514
4 437 199 436 514
4 132 65 309 455
4 456 373 177 64
4 464 180 181 363
4 238 25 500 65
4 24 232 500 61
4 29 122 430 319
4 427 46 383 167
4 245 263 286 519
4 166 368 165 415
4 457 35 313 133
4 458 52 178 377
4 250 95 94 371
4 19 28 408 324
4 388 18 45 410
4 412 22 191 414
4 412 190 21 411
4 227 226 491 514
4 136 315 461 135
4 290 388 101 275
4 309 502 25 117
4 429 385 47 168
4 428 123 30 321
4 223 162 14 72
4 448 318 32 128
4 446 173 49 382
4 447 129 33 320
4 445 384 50 174
4 495 246 278 273
4 347 351 349 516
4 374 42 161 493
4 85 84 260 305
4 462 179 180 379
4 481 214 215 515
4 403 77 183 501
4 488 69 406 163
4 78 500 115 295
4 76 115 500 295
4 406 73 488 163
4 183 81 403 501
4 134 463 299 135
4 44 219 56 488
4 42 233 62 501
4 50 175 384 453
4 320 33 452 130
4 127 318 32 440
4 172 439 49 382
4 281 261 216 292
4 312 27 55 480
4 93 94 380 270
4 467 313 35 134
4 466 181 52 377
4 378 90 91 254
4 80 259 277 236
4 26 311 489 118
4 24 492 310 114
4 262 86 352 87
4 119 217 20 411
4 435 47 385 169
4 434 30 124 321
4 381 95 96 271
4 359 143 350 146
4 342 137 346 150
4 84 267 314 83
4 71 287 222 256
4 228 229 494 518
4 324 276 289 108
4 223 274 485 281
4 190 119 68 413
4 108 324 276 107
4 221 71 23 118
4 275 276 248 517
4 292 20 66 217
4 154 151 341 348
4 386 97 98 268
4 354 6 4 343
4 241 236 240 519
4 65 502 25 309
4 159 359 143 350
4 346 342 150 153
4 160 145 347 358
4 360 7 9 356
4 403 11 251 402
4 391 161 13 75
4 327 74 0 114
4 118 71 23 328
4 369 89 90 266
4 465 36 337 136
4 447 200 442 521
4 473 486 206 208
4 499 212 210 477
4 476 499 213 211
4 209 207 474 486
4 70 118 191 413
4 70 487 26 413
4 148 140 147 156
4 406 16 407 274
4 105 255 104 322
4 214 216 261 66
4 406 405 15 274
4 164 44 69 479
4 257 0 74 273
4 251 12 403 404
4 311 59 26 489
4 89 400 9 293
4 252 21 20 411
4 245 3 79 326
4 110 316 265 109
4 27 487 68 413
4 409 248 103 102
4 489 71 221 118
4 81 403 184 183
4 187 406 69 163
4 77 185 403 183
4 73 406 186 163
4 113 115 76 295
4 295 115 78 116
4 65 205 238 455
4 196 55 218 432
4 205 64 239 456
4 202 61 232 451
4 56 196 219 433
4 62 202 233 450
4 59 199 224 438
4 199 58 225 437
4 147 351 148 156
4 374 62 42 493
4 231 294 0 114
4 235 502 79 117
4 138 151 36 355
4 281 222 243 287
4 77 161 42 493
4 76 1 294 295
4 477 60 500 61
4 474 57 488 58
4 476 63 501 64
4 487 54 55 473
4 55 31 27 125
4 44 48 56 170
4 326 245 3 82
4 27 26 487 413
4 259 263 245 519
4 477 60 65 500
4 34 24 61 131
4 62 42 51 176
4 247 17 220 67
4 59 26 31 126
4 48 43 58 171
4 296 2 3 78
4 68 190 412 411
4 412 191 70 414
4 68 480 27 119
4 357 353 39 471
4 112 317 258 111
4 283 105 106 297
4 474 57 56 488
4 476 63 62 501
4 39 179 468 401
4 85 262 4 336
4 497 496 230 278
4 164 407 17 220
4 391 13 93 244
4 244 391 13 75
4 259 10 390 80
4 79 3 235 117
4 162 223 73 490
4 252 256 23 221
4 144 145 353 160
4 69 220 164 479
4 23 22 252 414
4 25 34 65 132
4 53 51 177 64
4 237 81 182 503
4 246 79 3 235
4 42 233 493 62
4 278 244 230 291
4 151 341 348 138
4 70 26 489 118
4 76 492 24 114
4 10 81 237 251
4 353 39 145 144
4 71 279 23 328
4 419 28 120 324
4 45 388 421 165
4 502 78 25 117
4 71 279 287 256
4 390 92 10 259
4 277 251 237 498
4 100 387 99 249
4 328 279 23 112
4 407 16 17 274
4 162 488 73 43
4 119 27 68 413
4 161 77 234 493
4 22 21 252 412
4 480 68 217 119
4 182 501 81 53
4 251 81 237 498
4 27 218 55 480
4 25 238 502 65
4 26 224 489 59
4 281 216 484 292
4 222 243 72 281
4 259 245 236 519
4 256 281 484 292
4 113 294 1 295
4 98 99 361 284
4 2 1 273 295
4 162 392 14 72
4 244 230 280 278
4 338 354 343 152
4 158 360 339 356
4 115 500 24 76
4 115 25 500 78
4 70 252 23 221
4 118 70 26 413
4 234 161 13 404
4 44 69 488 163
4 183 77 42 501
4 183 53 81 501
4 488 73 43 163
4 323 106 264 107
4 69 17 220 247
4 76 231 492 114
4 83 286 308 82
4 3 246 235 78
4 280 13 234 75
4 403 11 12 251
4 340 469 36 355
4 138 348 151 355
4 392 96 14 243
4 296 2 78 295
4 351 344 148 156
4 148 141 157 355
4 72 392 14 243
4 406 15 16 274
4 147 472 155 351
4 280 230 244 75
4 7 9 356 88
4 73 186 43 163
4 69 44 187 163
4 42 185 77 183
4 81 184 53 183
4 76 24 115 113
4 115 25 78 116
4 348 154 151 355
4 91 92 372 285
4 13 12 251 404
4 251 11 10 402
4 482 247 216 281
4 497 246 277 278
4 79 246 245 236
4 327 0 257 109
4 344 148 156 470
4 356 146 350 345
4 252 68 412 411
4 20 292 68 217
4 77 403 81 501
4 406 73 69 488
4 86 6 4 354
4 78 76 500 295
4 486 224 473 206
4 238 499 210 477
4 476 239 499 211
4 474 207 225 486
4 246 3 273 78
4 412 70 252 414
4 257 74 0 327
4 499 233 476 213
4 474 219 209 486
4 185 403 12 404
4 232 212 499 477
4 486 473 218 208
4 358 145 347 159
4 351 147 472 156
4 281 216 482 484
4 237 10 182 402
4 345 88 253 87
4 405 162 223 73
4 289 408 19 102
4 290 103 18 410
4 496 498 277 497
4 220 164 407 69
4 182 81 237 402
4 141 148 36 355
4 139 155 353 147
4 403 184 11 402
4 277 496 497 278
4 145 347 353 160
4 186 405 15 406
4 70 68 487 413
4 281 482 485 484
4 187 16 407 406
4 352 354 137 346
4 68 217 119 411
4 497 230 495 278
4 234 77 13 280
4 80 277 237 498
4 73 223 274 485
4 155 139 472 147
4 141 470 148 157
4 344 148 470 157
4 23 279 71 256
4 150 137 346 138
4 234 77 161 404
4 350 143 145 146
4 156 148 140 470
4 147 140 472 156
4 295 296 2 116
4 393 17 97 242
4 273 3 2 78
4 292 66 20 282
4 294 231 76 114
4 73 223 14 274
4 256 71 23 221
4 14 405 162 223
4 139 353 39 147
4 78 296 295 116
4 113 76 294 295
4 495 246 497 278
4 236 277 498 497
4 247 242 17 67
4 405 14 15 274
4 164 44 187 69
4 483 484 216 292
4 291 230 278 257
4 344 148 157 355
4 280 244 13 75
4 159 143 145 350
4 277 280 496 278
4 153 150 346 138
4 67 247 242 261
4 485 222 281 484
4 390 10 182 80
4 79 3 117 326
4 251 81 403 402
4 162 186 43 73
4 42 185 161 77
4 24 76 114 113
4 182 184 53 81
4 117 78 25 116
4 147 155 353 351
4 69 406 407 274
4 469 157 36 355
4 405 406 73 274
4 23 221 118 414
4 340 36 154 355
4 20 282 329 104
4 152 137 346 342
4 230 74 278 257
4 146 350 359 158
4 78 2 273 295
4 159 145 347 350
4 471 353 39 155
4 403 77 251 404
4 406 186 405 73
4 403 185 77 404
4 184 403 81 402
4 406 407 187 69
4 247 67 216 261
4 217 68 20 411
4 155 39 471 139
4 36 141 157 469
4 393 17 242 67
4 68 252 20 411
4 154 151 36 340
4 218 224 473 486
4 499 238 232 477
4 476 239 233 499
4 225 219 474 486
4 232 238 500 477
4 39 353 357 160
4 144 39 357 160
4 348 341 153 138
4 292 261 66 282
4 488 225 219 474
4 233 239 476 501
4 473 224 218 487
4 251 277 280 496
4 149 338 343 152
4 360 142 158 339
4 231 0 294 76
4 0 1 294 273
4 76 273 1 295
4 70 23 252 414
4 273 1 294 76
4 221 70 489 118
4 348 153 346 138
4 220 407 17 69
4 502 235 78 117
4 146 158 339 356
4 338 354 152 137
4 477 238 500 65
4 500 61 232 477
4 357 39 38 471
4 469 36 37 340
4 5 4 343 338
4 9 8 360 339
4 282 66 20 329
4 37 40 469 340
4 219 56 488 474
4 233 476 62 501
4 69 407 17 274
4 3 296 235 117
4 230 74 495 278
4 225 488 58 474
4 64 476 239 501
4 218 55 473 487
4 357 38 41 471
4 75 280 230 496
4 13 77 234 404
4 236 246 277 497
4 216 66 483 292
4 252 20 292 68
4 17 69 274 247
4 67 482 247 216
4 496 280 230 278
4 10 81 251 402
4 72 485 222 281
4 56 44 170 375
4 312 55 27 125
4 152 149 338 137
4 146 158 142 339
4 79 246 236 497
4 274 247 482 281
4 237 81 10 402
4 211 239 499 205
4 207 225 486 199
4 206 486 224 199
4 499 210 205 238
4 251 77 13 404
4 353 39 144 160
4 154 36 151 355
4 155 353 39 139
4 219 196 209 486
4 499 233 213 202
4 486 218 196 208
4 202 212 499 232
4 137 354 152 346
4 157 141 36 355
4 251 13 77 280
4 252 68 70 412
4 158 146 350 356
4 498 80 277 236
4 171 43 58 376
4 26 59 311 126
4 176 62 42 374
4 61 24 310 131
4 118 221 70 414
4 63 183 42 501
4 488 57 44 163
4 9 8 7 360
4 177 373 53 64
4 132 65 25 309
4 78 235 296 117
4 71 222 484 256
4 6 5 4 343
4 14 405 223 73
4 277 251 498 496
4 495 246 273 78
4 500 24 60 115
4 500 60 25 115
4 63 42 62 501
4 56 57 44 488
4 150 153 341 138
4 14 405 73 274
4 222 281 484 256
4 239 476 64 211
4 225 58 207 474
4 232 61 212 477
4 218 473 55 208
4 61 24 60 500
4 500 25 60 65
4 62 476 233 213
4 219 209 56 474
4 210 238 477 65
4 59 473 224 206
4 358 143 145 159
4 53 183 63 501
4 488 43 57 163
4 485 274 482 281
4 68 119 190 411
4 273 76 78 295
4 246 497 235 78
4 57 58 43 488
4 54 487 55 27
4 53 63 64 501
4 498 251 81 496
4 483 252 68 70
4 191 118 70 414
4 497 246 495 78
4 221 23 70 414
4 137 152 149 342
4 359 146 158 142
4 66 216 261 292
4 48 58 43 57
4 25 34 60 65
4 51 42 62 63
4 54 31 27 55
4 60 24 61 34
4 57 48 56 44
4 51 53 63 64
4 164 187 407 69
4 114 76 294 113
4 482 73 274 485
4 296 78 117 116
4 162 405 186 73
4 185 161 77 404
4 231 273 0 76
4 81 182 184 402
4 235 296 3 78
4 77 81 403 251
4 69 73 406 274
4 68 292 483 217
4 252 292 483 68
4 273 294 0 76
4 280 234 77 496
4 247 220 69 482
4 76 495 273 78
4 79 246 497 235
4 256 484 71 221
4 280 77 251 496
4 69 274 247 482
4 66 483 292 217
4 77 81 251 496
4 234 280 75 496
4 482 247 220 67
4 274 69 73 482
4 495 273 231 76
4 43 48 57 163
4 34 60 24 115
4 42 51 183 63
4 60 34 25 115
4 51 53 183 63
4 44 57 48 163
4 202 61 212 232
4 65 205 210 238
4 62 202 213 233
4 59 199 206 224
4 205 64 211 239
4 56 196 209 219
4 199 58 207 225
4 196 55 208 218
4 509 284 513 361
4 509 513 284 269
4 507 513 284 361
4 507 284 513 269
4 382 439 512 505
4 198 512 439 505
4 513 431 435 507
4 513 435 431 195
4 194 513 431 424
4 431 513 194 507
4 194 321 507 428
4 507 321 194 434
4 435 429 47 195
4 435 47 429 385
4 197 318 505 440
4 197 505 318 448
4 382 198 512 439
4 382 512 198 446
4 268 361 98 386
4 268 98 361 284
4 515 282 261 255
4 515 261 282 214
4 372 254 91 285
4 91 254 372 378
4 515 375 393 215
4 515 393 375 364
4 515 312 329 300
4 515 329 312 214
4 319 192 509 430
4 319 509 192 422
4 193 383 509 427
4 193 509 383 420
4 522 270 371 250
4 522 371 270 508
4 518 310 327 301
4 518 327 310 228
4 518 374 391 229
4 518 391 374 366
4 514 311 328 226
4 514 328 311 302
4 514 376 392 365
4 514 392 376 227
4 514 271 392 243
4 514 392 271 505
4 148 348 516 138
4 148 516 348 344
4 390 503 182 373
4 182 503 390 80
4 215 261 67 242
4 67 261 215 216
4 393 268 515 242
4 515 268 393 386
4 264 517 323 276
4 323 517 264 509
4 520 463 464 510
4 520 464 463 460
4 400 345 356 253
4 356 345 400 146
4 317 272 522 258
4 317 522 272 307
4 262 137 511 352
4 511 137 262 336
4 480 329 214 312
4 214 329 480 66
4 363 462 180 379
4 363 180 462 464
4 282 322 515 329
4 515 322 282 255
4 387 284 509 361
4 509 284 387 249
4 375 219 44 479
4 375 44 219 56
4 421 517 290 189
4 290 517 421 388
4 290 410 421 189
4 421 410 290 388
4 188 324 28 419
4 28 324 188 408
4 225 376 162 490
4 493 62 229 374
4 493 229 62 233
4 450 229 62 374
4 450 62 229 233
4 43 225 376 162
4 43 376 225 58
4 239 373 182 503
4 53 239 373 182
4 53 373 239 64
4 137 4 262 336
4 137 262 4 354
4 326 502 240 309
4 326 240 502 79
4 79 519 236 245
4 236 519 79 240
4 519 80 236 259
4 519 236 80 241
4 489 59 226 311
4 489 226 59 224
4 438 226 59 311
4 438 59 226 224
4 310 232 24 61
4 310 24 232 492
4 119 66 20 217
4 119 20 66 329
4 191 190 70 413
4 191 70 190 412
4 68 70 190 413
4 68 190 70 412
4 145 353 147 39
4 145 147 353 347
4 164 67 17 393
4 17 67 164 220
4 355 138 148 36
4 355 148 138 348
4 252 221 484 256
4 484 221 252 70
4 252 483 484 70
4 27 487 31 54
4 27 31 487 26
4 213 212 499 202
4 213 499 212 478
4 209 208 486 196
4 209 486 208 475
4 206 207 486 199
4 206 486 207 475
4 218 219 196 481
4 218 196 219 486
4 210 211 499 205
4 210 499 211 478
4 484 252 292 483
4 292 252 484 256
4 31 54 26 59
4 26 54 31 487
4 54 224 26 59
4 26 224 54 487
4 54 473 224 59
4 224 473 54 487

CELL_TYPES 2920
1
1
1
1
1
1
1
1
1
1
1
1
1
1
1
1
1
1
1
1
1
1
1
1
1
1
1
1
1
1
1
1
1
1
1
1
1
1
1
1
1
1
1
1
1
1
1
1
1
1
1
1
1
1
1
1
1
1
1
1
1
1
1
1
1
1
1
1
1
1
1
1
1
1
1
1
1
1
1
1
1
1
3
3
3
3
3
3
3
3
3
3
3
3
3
3
3
3
3
3
3
3
3
3
3
3
3
3
3
3
3
3
3
3
3
3
3
3
3
3
3
3
3
3
3
3
3
3
3
3
3
3
3
3
3
3
3
3
3
3
3
3
3
3
3
3
3
3
3
3
3
3
3
3
3
3
3
3
3
3
3
3
3
3
3
3
3
3
3
3
3
3
3
3
3
3
3
3
3
3
3
3
3
3
3
3
3
3
3
3
3
3
3
3
3
3
3
3
3
3
3
3
3
3
3
3
3
3
3
3
3
3
3
3
3
3
3
3
3
3
3
3
3
3
3
3
3
3
3
3
3
3
3
3
3
3
3
3
3
3
3
3
3
3
3
3
3
3
3
3
3
3
3
3
3
3
3
3
3
3
3
3
3
3
3
3
3
3
3
3
3
3
3
3
3
3
3
3
3
3
3
3
3
3
3
3
3
3
3
3
3
3
3
3
3
3
3
3
3
3
3
3
3
3
3
3
3
3
3
3
3
3
3
3
3
3
3
3
3
3
3
3
3
3
3
3
3
3
3
3
3
3
3
3
3
3
3
3
3
3
3
3
3
3
3
3
3
3
3
3
3
3
3
3
3
3
3
3
3
3
3
3
3
3
3
5
5
5
5
5
5
5
5
5
5
5
5
5
5
5
5
5
5
5
5
5
5
5
5
5
5
5
5
5
5
5
5
5
5
5
5
5
5
5
5
5
5
5
5
5
5
5
5
5
5
5
5
5
5
5
5
5
5
5
5
5
5
5
5
5
5
5
5
5
5
5
5
5
5
5
5
5
5
5
5
5
5
5
5
5
5
5
5
5
5
5
5
5
5
5
5
5
5
5
5
5
5
5
5
5
5
5
5
5
5
5
5
5
5
5
5
5
5
5
5
5
5
5
5
5
5
5
5
5
5
5
5
5
5
5
5
5
5
5
5
5
5
5
5
5
5
5
5
5
5
5
5
5
5
5
5
5
5
5
5
5
5
5
5
5
5
5
5
5
5
5
5
5
5
5
5
5
5
5
5
5
5
5
5
5
5
5
5
5
5
5
5
5
5
5
5
5
5
5
5
5
5
5
5
5
5
5
5
5
5
5
5
5
5
5
5
5
5
5
5
5
5
5
5
5
5
5
5
5
5
5
5
5
5
5
5
5
5
5
5
5
5
5
5
5
5
5
5
5
5
5
5
5
5
5
5
5
5
5
5
5
5
5
5
5
5
5
5
5
5
5
5
5
5
5
5
5
5
5
5
5
5
5
5
5
5
5
5
5
5
5
5
5
5
5
5
5
5
5
5
5
5
5
5
5
5
5
5
5
5
5
5
5
5
5
5
5
5
5
5
5
5
5
5
5
5
5
5
5
5
5
5
5
5
5
5
5
5
5
5
5
5
5
5
5
5
5
5
5
5
5
5
5
5
5
5
5
5
5
5
5
5
5
5
5
5
5
5
5
5
5
5
5
5
5
5
5
5
5
5
5
5
5
5
5
5
5
5
5
5
5
5
5
5
5
5
5
5
5
5
5
5
5
5
5
5
5
5
5
5
5
5
5
5
5
5
5
5
5
5
5
5
5
5
5
5
5
5
5
5
5
5
5
5
5
5
5
5
5
5
5
5
5
5
5
5
5
5
5
5
5
5
5
5
5
5
5
5
5
5
5
5
5
5
5
5
5
5
5
5
5
5
5
5
5
5
5
5
5
5
5
5
5
5
5
5
5
5
5
5
5
5
5
5
5
5
5
5
5
5
5
5
5
5
5
5
5
5
5
5
5
5
5
5
5
5
5
5
5
5
5
5
5
5
5
5
5
5
5
5
5
5
5
5
5
5
5
5
5
5
5
5
5
5
5
5
5
5
5
5
5
5
5
5
5
5
5
5
5
5
5
5
5
5
5
5
5
5
5
5
5
5
5
5
5
5
5
5
5
5
5
5
5
5
5
5
5
5
5
5
5
5
5
5
5
5
5
5
5
5
5
5
5
5
5
5
5
5
5
5
5
5
5
5
5
5
5
5
5
5
5
5
5
5
5
5
5
5
5
5
5
5
5
5
5
5
5
5
5
5
5
5
5
5
5
5
5
5
5
5
5
5
5
5
5
5
5
5
5
5
5
5
5
5
5
5
5
5
5
5
5
5
5
5
5
5
5
5
5
5
5
5
5
5
5
5
5
5
5
5
5
5
5
5
5
5
5
5
5
5
5
5
5
5
5
5
5
5
5
5
5
5
5
5
5
5
5
5
5
5
5
5
5
5
5
5
5
5
5
5
5
5
5
5
5
5
5
5
5
5
5
5
5
5
5
5
5
5
5
5
5
5
5
5
5
5
5
5
5
5
5
5
5
5
5
5
5
5
5
5
5
5
5
5
5
5
5
5
5
5
5
5
5
5
5
5
5
5
5
5
5
5
5
5
5
5
5
5
5
5
5
5
5
5
5
5
5
5
5
5
5
5
5
5
5
5
5
5
5
5
5
5
5
5
5
5
5
5
5
5
5
5
5
5
5
5
5
5
5
5
5
5
5
5
5
5
5
5
5
5
5
5
5
5
5
5
5
5
5
5
5
5
5
5
5
5
5
5
5
5
5
5
5
5
5
5
5
5
5
5
5
5
5
5
5
5
5
5
5
5
5
5
5
5
5
5
5
5
5
5
5
5
5
5
5
5
5
5
5
5
5
5
5
5
5
5
5
5
5
5
5
5
5
5
5
5
5
5
5
5
5
5
5
5
5
5
5
5
5
5
5
5
5
5
5
5
5
5
5
5
5
5
5
5
5
5
5
5
5
5
5
5
5
5
5
5
5
5
5
5
5
5
5
5
5
5
5
5
5
5
5
5
5
5
5
5
5
5
5
5
5
5
5
5
5
5
5
5
10
10
10
10
10
10
10
10
10
10
10
10
10
10
10
10
10
10
10
10
10
10
10
10
10
10
10
10
10
10
10
10
10
10
10
10
10
10
10
10
10
10
10
10
10
10
10
10
10
10
10
10
10
10
10
10
10
10
10
10
10
10
10
10
10
10
10
10
10
10
10
10
10
10
10
10
10
10
10
10
10
10
10
10
10
10
10
10
10
10
10
10
10
10
10
10
10
10
10
10
10
10
10
10
10
10
10
10
10
10
10
10
10
10
10
10
10
10
10
10
10
10
10
10
10
10
10
10
10
10
10
10
10
10
10
10
10
10
10
10
10
10
10
10
10
10
10
10
10
10
10
10
10
10
10
10
10
10
10
10
10
10
10
10
10
10
10
10
10
10
10
10
10
10
10
10
10
10
10
10
10
10
10
10
10
10
10
10
10
10
10
10
10
10
10
10
10
10
10
10
10
10
10
10
10
10
10
10
10
10
10
10
10
10
10
10
10
10
10
10
10
10
10
10
10
10
10
10
10
10
10
10
10
10
10
10
10
10
10
10
10
10
10
10
10
10
10
10
10
10
10
10
10
10
10
10
10
10
10
10
10
10
10
10
10
10
10
10
10
10
10
10
10
10
10
10
10
10
10
10
10
10
10
10
10
10
10
10
10
10
10
10
10
10
10
10
10
10
10
10
10
10
10
10
10
10
10
10
10
10
10
10
10
10
10
10
10
10
10
10
10
10
10
10
10
10
10
10
10
10
10
10
10
10
10
10
10
10
10
10
10
10
10
10
10
10
10
10
10
10
10
10
10
10
10
10
10
10
10
10
10
10
10
10
10
10
10
10
10
10
10
10
10
10
10
10
10
10
10
10
10
10
10
10
10
10
10
10
10
10
10
10
10
10
10
10
10
10
10
10
10
10
10
10
10
10
10
10
10
10
10
10
10
10
10
10
10
10
10
10
10
10
10
10
10
10
10
10
10
10
10
10
10
10
10
10
10
10
10
10
10
10
10
10
10
10
10
10
10
10
10
10
10
10
10
10
10
10
10
10
10
10
10
10
10
10
10
10
10
10
10
10
10
10
10
10
10
10
10
10
10
10
10
10
10
10
10
10
10
10
10
10
10
10
10
10
10
10
10
10
10
10
10
10
10
10
10
10
10
10
10
10
10
10
10
10
10
10
10
10
10
10
10
10
10
10
10
10
10
10
10
10
10
10
10
10
10
10
10
10
10
10
10
10
10
10
10
10
10
10
10
10
10
10
10
10
10
10
10
10
10
10
10
10
10
10
10
10
10
10
10
10
10
10
10
10
10
10
10
10
10
10
10
10
10
10
10
10
10
10
10
10
10
10
10
10
10
10
10
10
10
10
10
10
10
10
10
10
10
10
10
10
10
10
10
10
10
10
10
10
10
10
10
10
10
10
10
10
10
10
10
10
10
10
10
10
10
10
10
10
10
10
10
10
10
10
10
10
10
10
10
10
10
10
10
10
10
10
10
10
10
10
10
10
10
10
10
10
10
10
10
10
10
10
10
10
10
10
10
10
10
10
10
10
10
10
10
10
10
10
10
10
10
10
10
10
10
10
10
10
10
10
10
10
10
10
10
10
10
10
10
10
10
10
10
10
10
10
10
10
10
10
10
10
10
10
10
10
10
10
10
10
10
10
10
10
10
10
10
10
10
10
10
10
10
10
10
10
10
10
10
10
10
10
10
10
10
10
10
10
10
10
10
10
10
10
10
10
10
10
10
10
10
10
10
10
10
10
10
10
10
10
10
10
10
10
10
10
10
10
10
10
10
10
10
10
10
10
10
10
10
10
10
10
10
10
10
10
10
10
10
10
10
10
10
10
10
10
10
10
10
10
10
10
10
10
10
10
10
10
10
10
10
10
10
10
10
10
10
10
10
10
10
10
10
10
10
10
10
10
10
10
10
10
10
10
10
10
10
10
10
10
10
10
10
10
10
10
10
10
10
10
10
10
10
10
10
10
10
10
10
10
10
10
10
10
10
10
10
10
10
10
10
10
10
10
10
10
10
10
10
10
10
10
10
10
10
10
10
10
10
10
10
10
10
10
10
10
10
10
10
10
10
10
10
10
10
10
10
10
10
10
10
10
10
10
10
10
10
10
10
10
10
10
10
10
10
10
10
10
10
10
10
10
10
10
10
10
10
10
10
10
10
10
10
10
10
10
10
10
10
10
10
10
10
10
10
10
10
10
10
10
10
10
10
10
10
10
10
10
10
10
10
10
10
10
10
10
10
10
10
10
10
10
10
10
10
10
10
10
10
10
10
10
10
10
10
10
10
10
10
10
10
10
10
10
10
10
10
10
10
10
10
10
10
10
10
10
10
10
10
10
10
10
10
10
10
10
10
10
10
10
10
10
10
10
10
10
10
10
10
10
10
10
10
10
10
10
10
10
10
10
10
10
10
10
10
10
10
10
10
10
10
10
10
10
10
10
10
10
10
10
10
10
10
10
10
10
10
10
10
10
10
10
10
10
10
10
10
10
10
10
10
10
10
10
10
10
10
10
10
10
10
10
10
10
10
10
10
10
10
10
10
10
10
10
10
10
10
10
10
10
10
10
10
10
10
10
10
10
10
10
10
10
10
10
10
10
10
10
10
10
10
10
10
10
10
10
10
10
10
10
10
10
10
10
10
10
10
10
10
10
10
10
10
10
10
10
10
10
10
10
10
10
10
10
10
10
10
10
10
10
10
10
10
10
10
10
10
10
10
10
10
10
10
10
10
10
10
10
10
10
10
10
10
10
10
10
10
10
10
10
10
10
10
10
10
10
10
10
10
10
10
10
10
10
10
10
10
10
10
10
10
10
10
10
10
10
10
10
10
10
10
10
10
10
10
10
10
10
10
10
10
10
10
10
10
10
10
10
10
10
10
10
10
10
10
10
10
10
10
10
10
10
10
10
10
10
10
10
10
10
10
10
10
10
10
10
10
10
10
10
10
10
10
10
10
10
10
10
10
10
10
10
10
10
10
10
10
10
10
10
10
10
10
10
10
10
10
10
10
10
10
10
10
10
10
10
10
10
10
10
10
10
10
10
10
10
10
10
10
10
10
10
10
10
10
10
10
10
10
10
10
10
10
10
10
10
10
10
10
10
10
10
10
10
10
10
10
10
10
10
10
10
10
10
10
10
10
10
10
10
10
10
10
10
10
10
10
10
10
10
10
10
10
10
10
10
10
10
10
10
10
10
10
10
10
10
10
10
10
10
10
10
10
10
10
10
10
10
10
10
10
10
10
10
10
10
10
10
10
10
10
10
10
10
10
10
10
10
10
10
10
10
10
10
10
10
10
10
10
10
10
10
10
10
10
10
10
10
10
10
10
10
10
10
10
10
10
10
10
10
10
10
10
10
10
10
10
10
10
10
10
10
10
10
10
10
10
10
10
10
10
10
10
10
10
10
10
10
10
10
10
10
10
10
10
10
10
10
10
10
10
10
10
10
10
10
10
10
10
10
10
10
10
10
10
10
10
10
10
10
10
10
10
10
10
