# vtk DataFile Version 2.0
, Created by Gmsh 4.11.1 
ASCII
DATASET UNSTRUCTURED_GRID
POINTS 511 double
8.75 0 -43.47752498613222
14.12349064332649 0 -41.68934575863638
14.12349064332649 0 -38.31065424136362
8.75 0 -36.52247501386778
8.75 0 -3
11.75 0 -3
11.75 0 0
-11.75 0 0
-11.75 0 -3
-8.75 0 -3
-8.75 1.071565949253934e-15 -36.52247501386778
-14.12349064332649 1.729628760913738e-15 -38.31065424136362
-14.12349064332649 1.729628760913738e-15 -41.68934575863638
-8.75 1.071565949253934e-15 -43.47752498613222
-8.75 1.071565949253934e-15 -76.52247501386778
-14.12349064332649 1.729628760913738e-15 -78.31065424136362
-14.12349064332649 1.729628760913738e-15 -81.68934575863638
-8.75 1.071565949253934e-15 -83.47752498613222
-8.75 0 -120
8.75 0 -120
8.75 0 -83.47752498613222
14.12349064332649 0 -81.68934575863638
14.12349064332649 0 -78.31065424136362
8.75 0 -76.52247501386778
-8.75 9.393417705776168 -42.11732892456067
8.75 9.393417705776168 -42.11732892456067
8.75 9.393417705776173 -37.88267107543933
-8.75 9.393417705776175 -37.88267107543933
8.75 20 -3
8.75 20 -30.05122363988869
11.75 23 -3
-11.75 23 -3
-8.75 20 -3
11.75 23 0
-11.75 23 0
-8.75 20 -30.05122363988869
-8.75 20 -49.94877636011131
-8.75 20 -70.05122363988869
-8.75 9.393417705776169 -77.88267107543933
8.75 9.393417705776169 -77.88267107543933
-8.75 9.393417705776168 -82.11732892456067
8.75 9.393417705776168 -82.11732892456067
-8.75 20 -89.94877636011131
-8.75 20 -110.0512236398887
-8.75 6.525796660355191 -120
8.75 6.525796660355191 -120
8.75 20 -89.94877636011131
8.75 20 -110.0512236398887
8.75 20 -49.94877636011131
8.75 20 -70.05122363988869
6.313979117403194 2.009713423608319 -83.47752498613222
-6.313979117403194 2.009713423608319 -83.47752498613222
11.83010443164135 2.009713423608319 -81.68934575863638
-11.83010443164135 2.009713423608321 -81.68934575863638
11.83010443164135 2.009713423608319 -78.31065424136362
6.313979117403194 2.009713423608319 -76.52247501386778
-6.313979117403194 2.009713423608319 -76.52247501386778
-11.83010443164135 2.009713423608321 -78.31065424136362
6.313979117403194 2.009713423608319 -43.47752498613222
-6.313979117403194 2.009713423608319 -43.47752498613222
11.83010443164135 2.009713423608319 -41.68934575863638
-11.83010443164135 2.009713423608321 -41.68934575863638
11.83010443164135 2.009713423608319 -38.31065424136362
6.313979117403194 2.009713423608319 -36.52247501386778
-6.313979117403194 2.009713423608319 -36.52247501386778
-11.83010443164135 2.009713423608321 -38.31065424136362
8.75 0 -29.81798001109422
8.75 0 -23.11348500832068
8.75 0 -16.40899000554714
8.75 0 -9.704495002773601
5.875000000000016 0 0
3.730349362740526e-14 0 0
-5.874999999999972 0 0
-8.75 0 -9.704495002773552
-8.75 0 -16.40899000554709
-8.75 0 -23.11348500832064
-8.75 0 -29.81798001109417
-8.75 0 -50.08651499167932
-8.75 0 -56.69550499722641
-8.75 0 -63.30449500277354
-8.75 0 -69.91348500832066
-8.75 0 -89.56460415511019
-8.75 0 -95.65168332408815
-8.75 0 -101.7387624930661
-8.75 0 -107.825841662044
-8.75 0 -113.912920831022
2.916666666666666 0 -120
-2.916666666666668 0 -120
8.75 0 -89.56460415511019
8.75 0 -95.65168332408815
8.75 0 -101.7387624930661
8.75 0 -107.825841662044
8.75 0 -113.912920831022
8.75 0 -50.08651499167932
8.75 0 -56.69550499722641
8.75 0 -63.30449500277354
8.75 0 -69.91348500832066
12.72482537574828 6.12795292971834 -41.68934575863638
8.805852382761316 11.04218962729529 -41.68934575863638
3.14277232867631 13.76938524561781 -41.68934575863638
-3.142772328676219 13.76938524561783 -41.68934575863638
-8.805852382761266 11.04218962729533 -41.68934575863638
-12.72482537574826 6.127952929718374 -41.68934575863638
-8.749999999999996 4.735535472045416 -43.0784373335929
-2.954287668992786 10.33477666257899 -42.81238817962351
2.954287668992809 10.33477666257899 -42.81238817962351
8.750000000000004 4.735535472045409 -43.0784373335929
12.72482537574828 6.12795292971834 -38.31065424136362
8.805852382761316 11.04218962729529 -38.31065424136362
3.14277232867631 13.76938524561781 -38.31065424136362
-3.142772328676219 13.76938524561783 -38.31065424136362
-8.805852382761266 11.04218962729533 -38.31065424136362
-12.72482537574826 6.127952929718374 -38.31065424136362
8.750000000000004 4.735535472045411 -36.92156266640711
2.954287668992797 10.33477666257899 -37.18761182037648
-2.954287668992806 10.33477666257899 -37.18761182037648
-8.749999999999996 4.73553547204541 -36.9215626664071
8.75 6.666666666666651 -3
8.75 13.33333333333329 -3
8.75 20 -23.2884177299165
8.75 20 -16.5256118199443
8.75 20 -9.762805909972148
8.75 14.69670885288809 -33.96694735766401
-5.875000000000016 23 -3
-3.730349362740526e-14 23 -3
5.874999999999972 23 -3
-11.75 5.749999999999988 -3
-11.75 11.49999999999999 -3
-11.75 17.24999999999999 -3
-8.75 13.33333333333335 -3
-8.75 6.666666666666705 -3
-2.916666666666666 20 -3
2.916666666666668 20 -3
11.75 5.749999999999988 -3
11.75 11.49999999999999 -3
11.75 17.24999999999999 -3
11.75 5.749999999999988 0
11.75 11.49999999999999 0
11.75 17.24999999999999 0
-5.875000000000016 23 0
-3.730349362740526e-14 23 0
5.874999999999972 23 0
-11.75 5.749999999999988 0
-11.75 11.49999999999999 0
-11.75 17.24999999999999 0
-8.75 20 -9.76280590997219
-8.75 20 -16.52561181994439
-8.75 20 -23.28841772991654
-8.75 14.69670885288809 -33.96694735766401
-8.75 14.69670885288809 -46.03305264233599
-8.75 20 -63.35040787996288
-8.75 20 -56.64959212003711
-8.75 14.69670885288808 -73.96694735766401
-8.749999999999996 4.73553547204541 -76.9215626664071
8.750000000000004 4.735535472045413 -76.9215626664071
2.954287668992795 10.334776662579 -77.18761182037647
-2.954287668992806 10.334776662579 -77.18761182037647
12.72482537574828 6.12795292971834 -78.31065424136362
8.805852382761316 11.04218962729529 -78.31065424136362
3.14277232867631 13.76938524561781 -78.31065424136362
-3.142772328676219 13.76938524561783 -78.31065424136362
-8.805852382761266 11.04218962729533 -78.31065424136362
-12.72482537574826 6.127952929718374 -78.31065424136362
12.72482537574828 6.12795292971834 -81.68934575863638
8.805852382761316 11.04218962729529 -81.68934575863638
3.14277232867631 13.76938524561781 -81.68934575863638
-3.142772328676219 13.76938524561783 -81.68934575863638
-8.805852382761266 11.04218962729533 -81.68934575863638
-12.72482537574826 6.127952929718374 -81.68934575863638
-8.749999999999996 4.735535472045416 -83.0784373335929
-2.954287668992795 10.334776662579 -82.81238817962353
2.954287668992806 10.334776662579 -82.81238817962353
8.750000000000004 4.735535472045409 -83.0784373335929
-8.75 14.69670885288809 -86.03305264233599
-8.75 20 -103.3504078799629
-8.75 20 -96.6495921200371
-8.75 11.01719777357013 -116.6837412132962
-8.75 15.50859888678507 -113.3674824265925
2.916666666666666 6.525796660355191 -120
-2.916666666666668 6.525796660355191 -120
8.75 14.69670885288809 -86.03305264233599
8.75 20 -103.3504078799629
8.75 20 -96.6495921200371
8.75 11.01719777357013 -116.6837412132962
8.75 15.50859888678507 -113.3674824265925
8.75 14.69670885288809 -46.03305264233599
8.75 20 -63.35040787996288
8.75 20 -56.64959212003711
8.75 14.69670885288808 -73.96694735766401
2.916666666666666 20 -49.94877636011131
-2.916666666666668 20 -49.94877636011131
2.916666666666666 20 -30.05122363988869
-2.916666666666668 20 -30.05122363988869
2.916666666666666 20 -70.05122363988869
-2.916666666666668 20 -70.05122363988869
2.916666666666666 20 -89.94877636011131
-2.916666666666668 20 -89.94877636011131
2.916666666666666 20 -110.0512236398887
-2.916666666666668 20 -110.0512236398887
2.707187102997159 6.047844105910877 -83.47752498613222
-2.707187102997164 6.047844105910875 -83.47752498613222
1.953992523340276e-14 2.009713423608319 -83.47752498613222
9.074076001602394 2.009713423608319 -82.58971999368097
8.947524297002472 7.995756866183601 -81.68934575863638
3.321971716052589 11.5306037494278 -81.68934575863638
-3.321971716052591 11.5306037494278 -81.68934575863638
-8.947524297002495 7.995756866183576 -81.68934575863638
-9.074076001602394 2.009713423608319 -82.58971999368097
9.074076001602394 2.009713423608319 -77.41028000631903
-8.881784197001252e-15 2.009713423608319 -76.52247501386778
-9.074076001602394 2.009713423608319 -77.41028000631903
8.947524297002472 7.995756866183601 -78.31065424136362
3.321971716052589 11.5306037494278 -78.31065424136362
-3.321971716052591 11.5306037494278 -78.31065424136362
-8.947524297002495 7.995756866183576 -78.31065424136362
2.707187102997159 6.047844105910877 -76.52247501386778
-2.707187102997164 6.047844105910875 -76.52247501386778
2.707187102997159 6.047844105910877 -43.47752498613222
-2.707187102997164 6.047844105910875 -43.47752498613222
1.953992523340276e-14 2.009713423608319 -43.47752498613222
9.074076001602394 2.009713423608319 -42.58971999368098
8.947524297002472 7.995756866183601 -41.68934575863638
3.321971716052589 11.5306037494278 -41.68934575863638
-3.321971716052591 11.5306037494278 -41.68934575863638
-8.947524297002495 7.995756866183576 -41.68934575863638
-9.074076001602394 2.009713423608319 -42.58971999368098
9.074076001602394 2.009713423608319 -37.41028000631902
-8.881784197001252e-15 2.009713423608319 -36.52247501386778
-9.074076001602394 2.009713423608319 -37.41028000631902
8.947524297002472 7.995756866183601 -38.31065424136362
3.321971716052589 11.5306037494278 -38.31065424136362
-3.321971716052591 11.5306037494278 -38.31065424136362
-8.947524297002495 7.995756866183576 -38.31065424136362
2.707187102997159 6.047844105910877 -36.52247501386778
-2.707187102997164 6.047844105910875 -36.52247501386778
4.314969915531709 0 -86.38275031497386
3.303417913171639 0 -47.08177723490451
-3.707219815588485 0 -72.1575679380415
3.394625144229155 0 -33.170227512481
-8.881784197001252e-16 0 -115.3596243448406
-3.81394706383598 0 -104.805099229887
-2.853995591300584 0 -4.164066399317903
2.779349921077658 0 -60.07811602557942
-2.792833422977066 0 -19.85299710354567
-3.478434804818019 0 -92.60814373959917
3.478434804818031 0 -98.69522290857714
-2.790982552506407 0 -53.40506192488283
2.76676361528072 0 -13.32097648363954
3.608567981125761 0 -5.798552223804613
4.030509771753222 0 -40.94114313659782
-2.958165656461412 0 -78.86941043032405
-2.896301968315313 0 -46.0503389842219
2.94167359615054 0 -73.11547654578418
-0.2185994898938706 0 -66.42819008674988
-3.704079240039321 0 -32.10640699217228
0.03349273020355081 0 -26.53353016439566
3.391146445800151 0 -80.29359553691688
-1.821721327875651 0 -86.25773898609364
-2.878156829731936 0 -38.95210261347824
3.373987157049919 0 -91.83567719089049
-3.370261516096989 0 -98.9738677983498
2.246628181903687 0 -104.9024263067478
10.13308014593446 0 -40.13444901951397
-11.25974642195878 0 -40
-11.25974642195878 0 -80
11.25974642195879 0 -80
4.158357056348578 0 -53.4693950348545
-3.785354721784164 0 -61.08672634045986
3.750165648566502 0 -20.94928521252603
-4.036655921776767 0 -12.41494783342728
-3.535270700948026 0 -110.728442248388
3.699829643742533 0 -111.1428665137212
-1.062833595070377 0 -8.535821749845464
-5.042234805453305 0 -66.57809287526908
4.981896209382366 0 -66.60899000554708
-4.993570968891777 0 -26.46573250970741
4.935656704599841 0 -26.71690158176352
4.823299262081839 0 -116.0830823379168
-4.79038747352294 0 -116.0001974848501
-5.090697021629548 0 -7.563866197072841
-11.02637565807395 2.516698290129786 -42.625633569952
10.99652389496842 2.653675942083765 -42.62488623819498
-13.76938524561781 3.142772328676292 -40.02857815007304
-11.04218962729528 8.805852382761342 -40.02857815007304
-6.127952929718292 12.7248253757483 -40.02857815007304
13.76938524561782 3.142772328676277 -40.02857815007304
11.0421896272953 8.805852382761307 -40.02857815007305
6.149748875868557 12.71430598640305 -40
0.02420166091019016 14.12346990763035 -40
11.41012477036304 2.583201126333381 -37.50379843720052
-10.99652389489985 2.653675942090787 -37.37511376178338
8.750000000000004 5.113262896312905 -13.10030266058776
8.750000000000004 5.800312838061624 -27.17388791822985
8.750000000000004 14.73469558060284 -20.07805012811633
8.750000000000004 8.357369615591979 -32.93085724090005
8.750000000000004 13.95723821264937 -27.41630064171231
8.750000000000004 14.9894457914487 -13.18330784856692
8.750000000000004 5.20354545404027 -19.98173788414201
8.750000000000004 10.01483674968268 -8.969261172984051
8.750000000000004 3.778643585139805 -32.6733525700998
8.750000000000004 4.840712291039367 -7.851121472836748
8.750000000000004 15.169377073199 -7.857407257933579
8.750000000000004 10.1070254771564 -22.88803141579714
8.750000000000004 10.02713532487397 -16.36678185169903
10.25 3.10416666666666 -3
-10.25 3.104166666666674 -3
11.75 20.125 -1.5
11.75 8.624999999999988 -1.5
11.75 14.37499999999999 -1.500000000000001
11.75 2.874999999999994 -1.5
3.157610638484559 18.22886740495932 0
-2.707174061168086 4.878797530676509 0
7.069955745470663 8.71654637064 0
-6.619519168154188 14.39111856499582 0
7.102873022115114 14.37499999999999 0
0.1126091443291166 11.52691623390895 0
-7.00095485560227 8.644857627020135 0
-2.792058517349995 18.15992185565015 0
2.948495529093417 4.721447277005962 0
-7.528051718759411 18.81262893003678 0
7.528051718759418 4.187371069963204 0
7.820492259183636 19.07601590637069 0
-7.553981076842913 4.160878030182231 0
-11.75 20.125 -1.5
-11.75 14.37499999999999 -1.5
-11.75 8.624999999999988 -1.5
-11.75 2.874999999999994 -1.5
-8.749999999999996 5.113262896312928 -13.10030266058775
-8.749999999999996 5.800312838061625 -27.17388791822983
-8.749999999999996 14.73469558060285 -20.07805012811638
-8.749999999999996 8.357369615591979 -32.93085724090004
-8.749999999999996 13.95723821264937 -27.41630064171231
-8.749999999999996 14.98944579144872 -13.18330784856696
-8.749999999999996 5.203545454040285 -19.98173788414201
-8.749999999999996 10.01483674968272 -8.969261172984066
-8.749999999999996 3.778643585139803 -32.67335257009978
-8.749999999999996 4.840712291039404 -7.851121472836757
-8.749999999999996 15.16937707319904 -7.85740725793357
-8.749999999999996 10.10702547715641 -22.88803141579716
-8.749999999999996 10.02713532487399 -16.36678185169905
-8.749999999999996 5.314790115777696 -60.05362579872422
-8.749999999999996 8.13403484592825 -47.26608604219741
-8.749999999999996 9.126238094369642 -71.97167542084729
-8.749999999999996 11.20493249149375 -51.62947161404678
-8.749999999999996 15.09612930542281 -60.07507611821393
-8.749999999999996 14.80367466084557 -67.13969224754432
-8.749999999999996 4.501178471221158 -66.98068071840817
-8.749999999999996 5.325295234282808 -52.79155101048206
-8.749999999999996 3.638973110451295 -47.34002287281678
-8.749999999999996 3.672590407527242 -72.4619757655702
-8.749999999999996 9.800374821605013 -63.87473065738873
-8.749999999999996 10.1726249917204 -57.00077732350041
-8.749999999999996 16.03501839713925 -53.39282131112621
-10.99652389489922 2.65367594209114 -77.3751137617832
11.41012477036308 2.583201126333335 -77.50379843720053
-13.76938524561781 3.142772328676299 -80.02857815007305
-11.04218962729528 8.805852382761342 -79.97142184992695
-6.127952929718287 12.7248253757483 -79.97142184992695
13.76938524561782 3.142772328676277 -80.02857815007305
11.05726290424077 8.786917833838666 -80
6.127952929718361 12.72482537574827 -79.97142184992695
0.02420166091019016 14.12346990763035 -80
-11.02637565807382 2.516698290129761 -82.62563356995204
10.99652389496874 2.653675942083584 -82.62488623819489
-8.749999999999996 4.530265739986116 -99.41532915016384
-8.749999999999996 10.25158530964237 -110.9852397356801
-8.749999999999996 8.035872540104513 -86.96012987243088
-8.749999999999996 11.1746187489548 -91.46875394897404
-8.749999999999996 14.94312561171986 -100.2851805444458
-8.749999999999996 14.81252098626971 -107.004897965162
-8.749999999999996 8.838667616699748 -104.2651929260092
-8.749999999999996 5.208646345938062 -92.36757106158483
-8.749999999999996 5.89953286215384 -114.4522031440183
-8.749999999999996 5.218111390454899 -109.1194863926648
-8.749999999999996 3.596010871617598 -87.08965348177021
-8.749999999999996 10.07868852768738 -96.9914324097055
-8.749999999999996 3.594452154722132 -104.6695544271303
-8.749999999999996 16.01817838861916 -93.39525339612162
5.529640427599611 3.262898330177595 -120
-5.529640427599613 3.262898330177594 -120
0 3.262898330177595 -120
8.750000000000004 4.530265739986116 -99.41532915016384
8.750000000000004 10.25158530964237 -110.9852397356801
8.750000000000004 8.035872540104513 -86.96012987243088
8.750000000000004 11.1746187489548 -91.46875394897404
8.750000000000004 14.94312561171986 -100.2851805444458
8.750000000000004 14.81252098626971 -107.004897965162
8.750000000000004 8.838667616699748 -104.2651929260092
8.750000000000004 5.208646345938062 -92.36757106158483
8.750000000000004 5.89953286215384 -114.4522031440183
8.750000000000004 5.218111390454899 -109.1194863926648
8.750000000000004 3.596010871617596 -87.0896534817702
8.750000000000004 10.07868852768738 -96.9914324097055
8.750000000000004 3.594452154722132 -104.6695544271303
8.750000000000004 16.01817838861916 -93.3952533961216
8.750000000000004 5.314790115777696 -60.05362579872422
8.750000000000004 8.134034845928248 -47.26608604219741
8.750000000000004 9.126238094369645 -71.97167542084728
8.750000000000004 11.20493249149375 -51.62947161404678
8.750000000000004 15.09612930542281 -60.07507611821393
8.750000000000004 14.80367466084557 -67.13969224754432
8.750000000000004 4.501178471221158 -66.98068071840817
8.750000000000004 5.325295234282807 -52.79155101048206
8.750000000000004 3.638973110451293 -47.34002287281678
8.750000000000004 3.672590407527243 -72.4619757655702
8.750000000000004 9.800374821605015 -63.87473065738873
8.750000000000004 10.1726249917204 -57.00077732350041
8.750000000000004 16.03501839713925 -53.39282131112621
1.77635683940025e-15 15.42786425831268 -46.57290657133625
-4.093134897751188 14.02832594422768 -45.53954724438655
4.093134897751189 14.02832594422768 -45.53954724438655
-4.901960312883572 16.83057981108569 -47.60861183565628
4.90196031288357 16.83057981108569 -47.60861183565628
-1.77635683940025e-15 15.42786425831268 -33.42709342866374
4.09313489775119 14.02832594422768 -34.46045275561345
-4.093134897751188 14.02832594422768 -34.46045275561345
4.90196031288357 16.83057981108569 -32.39138816434372
-4.901960312883572 16.83057981108569 -32.39138816434372
0.08635797512261512 20 -25.47118210118107
-0.1116870312433029 20 -7.623864738377847
-3.949943267963739 20 -12.26797471019843
2.827121554980282 20 -13.13523772728323
-2.960089009689561 20 -19.60932279262238
3.88112064229111 20 -20.78326547597501
-4.895659393174742 20 -7.130929071709692
4.876829056816078 20 -25.92906251736999
-4.658079540246723 20 -25.69427398069947
4.62642023808073 20 -7.304381675126647
8.812499999999986 23 -1.5
2.937499999999966 23 -1.5
-8.812500000000007 23 -1.5
-2.937500000000027 23 -1.499999999999999
0 20 -54.4159868667285
0 20 -65.58401313327148
3.654065484888815 20 -60
-3.644657311682547 20 -60
-4.812264795669842 20 -65.80737365860234
4.814146430311096 20 -65.80737365860234
-4.812264795669845 20 -54.19262634139765
4.814146430311096 20 -54.19262634139765
-1.77635683940025e-15 15.42786425831268 -73.42709342866374
4.093134897751192 14.02832594422769 -74.46045275561345
-4.093134897751192 14.02832594422769 -74.46045275561345
4.90196031288357 16.83057981108569 -72.39138816434371
-4.901960312883572 16.83057981108569 -72.39138816434371
1.77635683940025e-15 15.42786425831268 -86.57290657133626
-4.09313489775119 14.02832594422768 -85.53954724438655
4.093134897751191 14.02832594422769 -85.53954724438655
-4.901960312883572 16.83057981108569 -87.60861183565629
4.901960312883571 16.83057981108569 -87.60861183565629
0 20 -94.4159868667285
0 20 -105.5840131332715
3.654065484888815 20 -100
-3.644657311682547 20 -100
-4.812264795669842 20 -105.8073736586023
4.814146430311096 20 -105.8073736586023
-4.812264795669845 20 -94.19262634139764
4.814146430311096 20 -94.19262634139764
-4.305882277021546 13.2628983301776 -115.0256118199443
4.305882277021547 13.2628983301776 -115.0256118199443
0 10.36628770012718 -117.1643454158597
0 16.10927551715403 -112.9239684532874
4.944509788737642 9.539595424917056 -117.7747396898201
-4.944509788737646 16.97615454682334 -112.2839019959203
-4.944509788737646 9.539595424917056 -117.7747396898201
4.944509788737642 16.97615454682334 -112.2839019959203
7.60050217392426 4.501993582676635 -82.7428614246606
-7.600502173911237 4.501993582668816 -82.74286142466565
-0.02054058025498507 9.143342052757768 -82.63983663268614
-5.789890112377121 2.009713423608319 -80
7.281036724223572 2.009713423608319 -79.83750336484299
-9.586356010874567 2.009713423608319 -80
9.817879518142213 2.009713423608319 -79.9675006729686
3.981798991805992 2.009713423608319 -79.9675006729686
3.399209068751383e-15 11.99959661441049 -80.05127844671006
-6.3842711976849 10.16028543806634 -80.05127844671006
10.8113663762006 5.206215130796161 -79.94872155328994
6.384271197684887 10.16028543806634 -79.94872155328994
-10.81136637620061 5.206215130796146 -79.94872155328996
-7.600502173911234 4.501993582668819 -77.25713857533435
7.600502173924259 4.501993582676634 -77.2571385753394
5.397869125600921e-16 8.815389268741203 -77.25102023257699
-7.600502173911239 4.501993582668817 -42.74286142466566
7.600502173924261 4.501993582676633 -42.7428614246606
-0.02054058025498508 9.143342052757774 -42.63983663268614
-5.789890112377121 2.009713423608319 -40
7.281036724223572 2.009713423608319 -39.83750336484299
9.817879518142213 2.009713423608319 -39.9675006729686
-9.692346300176016 2.009713423608319 -40
3.981798991805992 2.009713423608319 -39.9675006729686
-1.92968231026166e-15 11.99959661441049 -40.05127844671005
-6.3842711976849 10.16028543806634 -39.94872155328994
10.8113663762006 5.206215130796161 -39.94872155328995
6.384271197684892 10.16028543806634 -40.05127844671006
-10.81136637620061 5.206215130796141 -39.94872155328994
7.600502173924261 4.501993582676632 -37.2571385753394
-7.600502173911239 4.501993582668817 -37.25713857533434
-1.417622714877909e-15 8.815389268741201 -37.25102023257699
6.397660179402465e-15 10.84001698749193 -25.49833933836319
0.007314651686250963 9.710178159288072 -53.31422628304889
-2.664535259100376e-15 8.263527518002975 -68.6967524829966
-0.01224970644739643 9.966919302448684 -93.41929392612053
2.717542174343156e-15 11.19176991415748 -103.2129697257605
1.77635683940025e-15 8.649794872413038 -11.61023345805932
0.6110589163852755 12.76745299799886 -61.99629783847097
-1.501540252069923 8.314261522427138 -110.0428209450571
1.308047262391618 13.05814855472072 -18.03177185721248
2.663195820793224 5.309543681209279 -114.0442932176072
-2.342633907738378 13.8995732393308 -5.814500093418114
-3.167343207086222e-15 7.657012994885934 -31.00073621871153
-2.334185860866358 14.49327904620248 -67.24576938412379

CELLS 2802 12292
1 0
1 1
1 2
1 3
1 4
1 5
1 6
1 7
1 8
1 9
1 10
1 11
1 12
1 13
1 14
1 15
1 16
1 17
1 18
1 19
1 20
1 21
1 22
1 23
1 24
1 25
1 26
1 27
1 28
1 29
1 30
1 31
1 32
1 33
1 34
1 35
1 36
1 37
1 38
1 39
1 40
1 41
1 42
1 43
1 44
1 45
1 46
1 47
1 48
1 49
1 50
1 51
1 52
1 53
1 54
1 55
1 56
1 57
1 58
1 59
1 60
1 61
1 62
1 63
1 64
1 65
2 0 1
2 1 2
2 2 3
2 3 66
2 66 67
2 67 68
2 68 69
2 69 4
2 4 5
2 5 6
2 6 70
2 70 71
2 71 72
2 72 7
2 8 7
2 8 9
2 9 73
2 73 74
2 74 75
2 75 76
2 76 10
2 11 10
2 12 11
2 13 12
2 13 77
2 77 78
2 78 79
2 79 80
2 80 14
2 15 14
2 16 15
2 17 16
2 17 81
2 81 82
2 82 83
2 83 84
2 84 85
2 85 18
2 19 86
2 86 87
2 87 18
2 20 88
2 88 89
2 89 90
2 90 91
2 91 92
2 92 19
2 20 21
2 21 22
2 22 23
2 0 93
2 93 94
2 94 95
2 95 96
2 96 23
2 1 97
2 97 98
2 98 99
2 99 100
2 100 101
2 101 102
2 102 12
2 24 103
2 103 13
2 24 104
2 104 105
2 105 25
2 25 106
2 106 0
2 2 107
2 107 108
2 108 109
2 109 110
2 110 111
2 111 112
2 112 11
2 3 113
2 113 26
2 26 114
2 114 115
2 115 27
2 10 116
2 116 27
2 4 117
2 117 118
2 118 28
2 29 119
2 119 120
2 120 121
2 121 28
2 26 122
2 122 29
2 31 123
2 123 124
2 124 125
2 125 30
2 8 126
2 126 127
2 127 128
2 128 31
2 32 129
2 129 130
2 130 9
2 32 131
2 131 132
2 132 28
2 5 133
2 133 134
2 134 135
2 135 30
2 6 136
2 136 137
2 137 138
2 138 33
2 30 33
2 34 139
2 139 140
2 140 141
2 141 33
2 7 142
2 142 143
2 143 144
2 144 34
2 31 34
2 32 145
2 145 146
2 146 147
2 147 35
2 27 148
2 148 35
2 36 149
2 149 24
2 37 150
2 150 151
2 151 36
2 38 152
2 152 37
2 14 153
2 153 38
2 23 154
2 154 39
2 39 155
2 155 156
2 156 38
2 22 157
2 157 158
2 158 159
2 159 160
2 160 161
2 161 162
2 162 15
2 21 163
2 163 164
2 164 165
2 165 166
2 166 167
2 167 168
2 168 16
2 40 169
2 169 17
2 40 170
2 170 171
2 171 41
2 41 172
2 172 20
2 42 173
2 173 40
2 43 174
2 174 175
2 175 42
2 44 176
2 176 177
2 177 43
2 18 44
2 45 178
2 178 179
2 179 44
2 19 45
2 46 180
2 180 41
2 47 181
2 181 182
2 182 46
2 45 183
2 183 184
2 184 47
2 48 185
2 185 25
2 49 186
2 186 187
2 187 48
2 39 188
2 188 49
2 48 189
2 189 190
2 190 36
2 29 191
2 191 192
2 192 35
2 49 193
2 193 194
2 194 37
2 46 195
2 195 196
2 196 42
2 47 197
2 197 198
2 198 43
2 50 199
2 199 200
2 200 51
2 51 201
2 201 50
2 50 202
2 202 52
2 52 203
2 203 204
2 204 205
2 205 206
2 206 53
2 53 207
2 207 51
2 52 54
2 54 208
2 208 55
2 55 209
2 209 56
2 56 210
2 210 57
2 53 57
2 54 211
2 211 212
2 212 213
2 213 214
2 214 57
2 55 215
2 215 216
2 216 56
2 58 217
2 217 218
2 218 59
2 59 219
2 219 58
2 58 220
2 220 60
2 60 221
2 221 222
2 222 223
2 223 224
2 224 61
2 61 225
2 225 59
2 60 62
2 62 226
2 226 63
2 63 227
2 227 64
2 64 228
2 228 65
2 61 65
2 62 229
2 229 230
2 230 231
2 231 232
2 232 65
2 63 233
2 233 234
2 234 64
3 1 262 0
3 0 236 93
3 0 249 236
3 0 262 249
3 2 262 1
3 3 262 2
3 66 238 3
3 238 249 3
3 249 262 3
3 6 4 5
3 70 4 6
3 4 248 69
3 70 248 4
3 7 8 9
3 9 72 7
3 9 241 72
3 73 279 9
3 9 279 241
3 11 263 10
3 13 258 10
3 10 263 13
3 10 254 76
3 10 258 254
3 12 263 11
3 13 263 12
3 77 251 13
3 251 258 13
3 15 264 14
3 17 250 14
3 14 264 17
3 14 237 80
3 14 250 237
3 16 264 15
3 17 264 16
3 81 257 17
3 17 257 250
3 18 278 85
3 87 278 18
3 19 277 86
3 92 277 19
3 21 265 20
3 23 256 20
3 20 265 23
3 20 235 88
3 20 256 235
3 22 265 21
3 23 265 22
3 96 252 23
3 252 256 23
3 67 276 66
3 66 276 238
3 68 268 67
3 268 276 67
3 69 247 68
3 247 268 68
3 69 248 247
3 71 248 70
3 72 241 71
3 241 248 71
3 74 269 73
3 269 279 73
3 75 243 74
3 243 269 74
3 76 275 75
3 75 275 243
3 254 275 76
3 78 246 77
3 246 251 77
3 79 267 78
3 78 267 246
3 80 273 79
3 79 273 267
3 237 273 80
3 82 244 81
3 244 257 81
3 83 260 82
3 82 260 244
3 84 240 83
3 240 260 83
3 85 270 84
3 84 270 240
3 85 278 270
3 86 239 87
3 86 277 239
3 239 278 87
3 88 259 89
3 235 259 88
3 89 245 90
3 89 259 245
3 90 261 91
3 245 261 90
3 91 271 92
3 261 271 91
3 271 277 92
3 93 266 94
3 236 266 93
3 94 242 95
3 94 266 242
3 95 274 96
3 242 274 95
3 96 274 252
3 256 257 235
3 257 259 235
3 236 251 246
3 246 266 236
3 249 251 236
3 250 252 237
3 252 253 237
3 253 273 237
3 238 258 249
3 238 255 254
3 254 258 238
3 238 276 255
3 239 271 270
3 270 278 239
3 239 277 271
3 240 261 260
3 240 270 261
3 241 272 248
3 241 279 272
3 242 266 246
3 246 267 242
3 242 267 253
3 253 274 242
3 243 268 247
3 247 269 243
3 255 268 243
3 243 275 255
3 245 259 244
3 244 260 245
3 244 259 257
3 260 261 245
3 248 272 247
3 247 272 269
3 249 258 251
3 250 256 252
3 250 257 256
3 252 274 253
3 267 273 253
3 255 275 254
3 255 276 268
3 270 271 261
3 272 279 269
3 0 281 1
3 106 281 0
3 1 281 97
3 12 280 13
3 102 280 12
3 13 280 103
3 101 24 102
3 101 104 24
3 103 102 24
3 97 25 98
3 25 97 106
3 105 98 25
3 97 281 106
3 99 98 105
3 100 99 105
3 101 100 104
3 100 105 104
3 103 280 102
3 1 285 2
3 97 285 1
3 2 285 107
3 11 282 12
3 112 282 11
3 12 282 102
3 98 286 97
3 107 285 97
3 97 286 107
3 99 287 98
3 108 286 98
3 98 287 108
3 100 288 99
3 109 287 99
3 99 288 109
3 101 284 100
3 100 284 110
3 110 288 100
3 102 283 101
3 101 283 111
3 111 284 101
3 102 282 112
3 112 283 102
3 107 286 108
3 108 287 109
3 109 288 110
3 110 284 111
3 111 283 112
3 2 289 3
3 107 289 2
3 3 289 113
3 10 290 11
3 116 290 10
3 11 290 112
3 107 108 26
3 26 113 107
3 26 108 114
3 111 112 27
3 111 27 115
3 116 27 112
3 113 289 107
3 114 108 109
3 110 114 109
3 111 115 110
3 115 114 110
3 112 290 116
3 3 299 66
3 113 299 3
3 69 300 4
3 4 300 117
3 26 294 113
3 122 294 26
3 118 301 28
3 28 301 121
3 119 295 29
3 29 295 122
3 66 292 67
3 66 299 292
3 67 297 68
3 292 297 67
3 68 291 69
3 68 297 291
3 291 300 69
3 294 299 113
3 117 298 118
3 117 300 298
3 298 301 118
3 120 293 119
3 293 295 119
3 121 296 120
3 120 296 293
3 121 301 296
3 122 295 294
3 297 303 291
3 298 300 291
3 291 303 298
3 294 295 292
3 292 299 294
3 295 302 292
3 292 302 297
3 293 302 295
3 296 303 293
3 293 303 302
3 296 301 298
3 298 303 296
3 302 303 297
3 5 4 304
3 4 117 304
3 133 5 304
3 9 8 305
3 8 126 305
3 130 9 305
3 30 28 125
3 135 28 30
3 28 135 118
3 28 132 125
3 31 123 32
3 31 32 128
3 123 131 32
3 128 32 129
3 134 117 118
3 134 133 117
3 117 133 304
3 135 134 118
3 131 123 124
3 132 124 125
3 132 131 124
3 126 127 130
3 126 130 305
3 127 128 129
3 127 129 130
3 5 309 6
3 133 309 5
3 6 309 136
3 33 306 30
3 30 306 135
3 138 306 33
3 134 307 133
3 133 307 136
3 136 309 133
3 135 308 134
3 137 307 134
3 134 308 137
3 135 306 138
3 138 308 135
3 136 307 137
3 137 308 138
3 6 320 70
3 136 320 6
3 72 322 7
3 7 322 142
3 33 321 138
3 141 321 33
3 34 319 139
3 144 319 34
3 70 318 71
3 70 320 318
3 71 311 72
3 71 318 311
3 311 322 72
3 137 312 136
3 312 320 136
3 138 314 137
3 137 314 312
3 138 321 314
3 139 317 140
3 139 319 317
3 140 310 141
3 140 317 310
3 310 321 141
3 142 316 143
3 142 322 316
3 143 313 144
3 143 316 313
3 313 319 144
3 310 315 314
3 314 321 310
3 310 317 315
3 315 316 311
3 311 318 315
3 316 322 311
3 314 315 312
3 315 318 312
3 318 320 312
3 313 316 315
3 315 317 313
3 317 319 313
3 8 7 326
3 7 142 326
3 126 8 326
3 34 31 323
3 31 128 323
3 144 34 323
3 127 126 325
3 126 142 325
3 142 126 326
3 128 127 324
3 127 143 324
3 143 127 325
3 128 144 323
3 144 128 324
3 142 143 325
3 143 144 324
3 73 9 336
3 9 130 336
3 10 76 335
3 116 10 335
3 27 116 330
3 148 27 330
3 129 32 337
3 32 145 337
3 147 35 331
3 35 148 331
3 74 73 327
3 327 73 336
3 75 74 333
3 74 327 333
3 76 75 328
3 328 75 333
3 76 328 335
3 330 116 335
3 130 129 334
3 334 129 337
3 130 334 336
3 145 146 332
3 145 332 337
3 146 147 329
3 146 329 332
3 329 147 331
3 148 330 331
3 333 327 339
3 334 327 336
3 327 334 339
3 330 328 331
3 328 330 335
3 331 328 338
3 328 333 338
3 329 331 338
3 332 329 339
3 329 338 339
3 332 334 337
3 334 332 339
3 338 333 339
3 77 13 348
3 13 103 348
3 14 80 349
3 153 14 349
3 103 24 341
3 24 149 341
3 149 36 352
3 36 151 352
3 150 37 345
3 37 152 345
3 152 38 342
3 38 153 342
3 78 77 347
3 347 77 348
3 79 78 340
3 340 78 347
3 80 79 346
3 79 340 346
3 80 346 349
3 103 341 348
3 341 149 343
3 343 149 352
3 151 150 344
3 344 150 345
3 151 344 352
3 152 342 345
3 342 153 349
3 346 340 350
3 340 347 351
3 350 340 351
3 341 343 347
3 341 347 348
3 345 342 350
3 346 342 349
3 342 346 350
3 347 343 351
3 351 343 352
3 344 345 350
3 344 350 351
3 344 351 352
3 14 353 15
3 153 353 14
3 15 353 162
3 22 354 23
3 157 354 22
3 23 354 154
3 153 38 162
3 161 38 156
3 161 162 38
3 39 154 157
3 39 158 155
3 157 158 39
3 162 353 153
3 154 354 157
3 156 155 160
3 155 158 159
3 160 155 159
3 161 156 160
3 15 355 16
3 162 355 15
3 16 355 168
3 21 358 22
3 163 358 21
3 22 358 157
3 157 359 158
3 157 358 163
3 163 359 157
3 158 360 159
3 158 359 164
3 164 360 158
3 159 361 160
3 159 360 165
3 165 361 159
3 160 357 161
3 166 357 160
3 160 361 166
3 161 356 162
3 167 356 161
3 161 357 167
3 168 355 162
3 162 356 168
3 164 359 163
3 165 360 164
3 166 361 165
3 167 357 166
3 168 356 167
3 16 362 17
3 168 362 16
3 17 362 169
3 20 363 21
3 172 363 20
3 21 363 163
3 167 40 168
3 167 170 40
3 169 168 40
3 163 41 164
3 41 163 172
3 171 164 41
3 163 363 172
3 165 164 171
3 166 165 171
3 167 166 170
3 166 171 170
3 169 362 168
3 81 17 374
3 17 169 374
3 44 18 372
3 18 85 372
3 169 40 366
3 40 173 366
3 173 42 377
3 42 175 377
3 174 43 369
3 43 177 369
3 176 44 372
3 82 81 371
3 371 81 374
3 83 82 364
3 364 82 371
3 84 83 376
3 83 364 376
3 85 84 373
3 373 84 376
3 372 85 373
3 169 366 374
3 366 173 367
3 367 173 377
3 175 174 368
3 368 174 369
3 175 368 377
3 177 176 365
3 365 176 372
3 177 365 369
3 370 364 375
3 364 370 376
3 364 371 375
3 369 365 370
3 370 365 373
3 365 372 373
3 366 367 371
3 366 371 374
3 371 367 375
3 375 367 377
3 368 369 370
3 368 370 375
3 368 375 377
3 370 373 376
3 44 379 18
3 18 379 87
3 19 378 45
3 86 378 19
3 179 379 44
3 45 378 178
3 87 380 86
3 86 380 378
3 379 380 87
3 178 380 179
3 378 380 178
3 179 380 379
3 45 389 19
3 19 389 92
3 88 391 20
3 20 391 172
3 172 383 41
3 41 383 180
3 183 389 45
3 180 394 46
3 46 394 182
3 181 386 47
3 47 386 184
3 89 388 88
3 388 391 88
3 90 381 89
3 381 388 89
3 91 393 90
3 90 393 381
3 92 390 91
3 390 393 91
3 389 390 92
3 172 391 383
3 383 384 180
3 384 394 180
3 182 385 181
3 385 386 181
3 182 394 385
3 184 382 183
3 382 389 183
3 184 386 382
3 387 392 381
3 381 393 387
3 381 392 388
3 386 387 382
3 387 390 382
3 382 390 389
3 383 388 384
3 383 391 388
3 388 392 384
3 392 394 384
3 385 387 386
3 385 392 387
3 385 394 392
3 387 393 390
3 93 403 0
3 0 403 106
3 23 404 96
3 154 404 23
3 106 396 25
3 25 396 185
3 39 397 154
3 188 397 39
3 185 407 48
3 48 407 187
3 186 400 49
3 49 400 188
3 94 402 93
3 402 403 93
3 95 395 94
3 395 402 94
3 96 401 95
3 95 401 395
3 96 404 401
3 106 403 396
3 397 404 154
3 396 398 185
3 398 407 185
3 187 399 186
3 399 400 186
3 187 407 399
3 188 400 397
3 401 405 395
3 395 406 402
3 405 406 395
3 396 402 398
3 396 403 402
3 400 405 397
3 401 404 397
3 397 405 401
3 402 406 398
3 406 407 398
3 399 405 400
3 399 406 405
3 399 407 406
3 104 409 24
3 24 409 149
3 25 410 105
3 185 410 25
3 149 411 36
3 36 411 190
3 48 412 185
3 189 412 48
3 105 408 104
3 408 409 104
3 105 410 408
3 409 411 149
3 185 412 410
3 190 408 189
3 408 412 189
3 190 411 408
3 408 411 409
3 410 412 408
3 114 414 26
3 26 414 122
3 27 415 115
3 148 415 27
3 122 416 29
3 29 416 191
3 35 417 148
3 192 417 35
3 115 413 114
3 413 414 114
3 115 415 413
3 414 416 122
3 148 417 415
3 191 413 192
3 191 416 413
3 413 417 192
3 413 416 414
3 415 417 413
3 121 427 28
3 28 427 132
3 29 425 119
3 191 425 29
3 131 424 32
3 32 424 145
3 147 426 35
3 35 426 192
3 119 423 120
3 119 425 423
3 120 421 121
3 120 423 421
3 421 427 121
3 132 419 131
3 419 424 131
3 132 427 419
3 145 420 146
3 145 424 420
3 146 422 147
3 420 422 146
3 422 426 147
3 192 418 191
3 418 425 191
3 192 426 418
3 422 423 418
3 418 426 422
3 423 425 418
3 419 421 420
3 420 424 419
3 419 427 421
3 421 422 420
3 421 423 422
3 30 428 33
3 125 428 30
3 34 430 31
3 31 430 123
3 33 428 141
3 139 430 34
3 123 431 124
3 123 430 139
3 139 431 123
3 124 429 125
3 140 429 124
3 124 431 140
3 141 428 125
3 125 429 141
3 140 431 139
3 141 429 140
3 36 438 151
3 190 438 36
3 150 436 37
3 37 436 194
3 187 439 48
3 48 439 189
3 49 437 186
3 193 437 49
3 151 435 150
3 435 436 150
3 151 438 435
3 186 434 187
3 186 437 434
3 434 439 187
3 189 432 190
3 189 439 432
3 432 438 190
3 194 433 193
3 433 437 193
3 194 436 433
3 434 435 432
3 432 439 434
3 435 438 432
3 433 435 434
3 434 437 433
3 433 436 435
3 37 444 152
3 194 444 37
3 152 442 38
3 38 442 156
3 155 441 39
3 39 441 188
3 188 443 49
3 49 443 193
3 152 444 442
3 156 440 155
3 440 441 155
3 156 442 440
3 441 443 188
3 193 440 194
3 193 443 440
3 440 444 194
3 440 443 441
3 442 444 440
3 170 446 40
3 40 446 173
3 41 447 171
3 180 447 41
3 173 448 42
3 42 448 196
3 46 449 180
3 195 449 46
3 171 445 170
3 445 446 170
3 171 447 445
3 446 448 173
3 180 449 447
3 196 445 195
3 445 449 195
3 196 448 445
3 445 448 446
3 447 449 445
3 42 456 175
3 196 456 42
3 174 454 43
3 43 454 198
3 182 457 46
3 46 457 195
3 47 455 181
3 197 455 47
3 175 453 174
3 453 454 174
3 175 456 453
3 181 452 182
3 181 455 452
3 452 457 182
3 195 450 196
3 195 457 450
3 450 456 196
3 198 451 197
3 451 455 197
3 198 454 451
3 452 453 450
3 450 457 452
3 453 456 450
3 451 453 452
3 452 455 451
3 451 454 453
3 43 463 177
3 198 463 43
3 176 464 44
3 44 464 179
3 178 462 45
3 45 462 183
3 184 465 47
3 47 465 197
3 177 458 176
3 458 464 176
3 177 463 458
3 179 460 178
3 460 462 178
3 179 464 460
3 183 459 184
3 183 462 459
3 459 465 184
3 197 461 198
3 197 465 461
3 461 463 198
3 458 461 460
3 460 464 458
3 458 463 461
3 460 461 459
3 459 462 460
3 461 465 459
3 199 201 50
3 201 200 51
3 200 201 199
3 199 50 466
3 50 202 466
3 51 200 467
3 207 51 467
3 202 52 466
3 52 203 466
3 206 53 467
3 53 207 467
3 200 199 468
3 204 199 203
3 203 199 466
3 199 204 468
3 206 200 205
3 205 200 468
3 200 206 467
3 204 205 468
3 201 473 50
3 50 470 202
3 50 473 470
3 51 469 201
3 207 469 51
3 52 472 54
3 202 472 52
3 57 471 53
3 53 471 207
3 54 472 208
3 208 470 55
3 55 473 209
3 470 473 55
3 209 469 56
3 56 469 210
3 210 471 57
3 201 469 209
3 209 473 201
3 470 472 202
3 207 471 469
3 208 472 470
3 469 471 210
3 52 54 476
3 203 52 476
3 57 53 478
3 53 206 478
3 54 211 476
3 214 57 478
3 204 203 477
3 211 203 476
3 203 211 477
3 205 204 474
3 204 212 474
3 212 204 477
3 206 205 475
3 213 205 474
3 205 213 475
3 214 206 475
3 206 214 478
3 211 212 477
3 212 213 474
3 213 214 475
3 54 208 480
3 211 54 480
3 208 55 480
3 55 215 480
3 56 210 479
3 216 56 479
3 210 57 479
3 57 214 479
3 211 215 212
3 215 211 480
3 213 212 481
3 212 215 481
3 214 213 216
3 216 213 481
3 214 216 479
3 215 216 481
3 209 215 55
3 216 209 56
3 216 215 209
3 217 219 58
3 219 218 59
3 218 219 217
3 217 58 483
3 58 220 483
3 59 218 482
3 225 59 482
3 220 60 483
3 60 221 483
3 224 61 482
3 61 225 482
3 218 217 484
3 222 217 221
3 221 217 483
3 217 222 484
3 224 218 223
3 223 218 484
3 218 224 482
3 222 223 484
3 219 489 58
3 58 486 220
3 58 489 486
3 59 485 219
3 225 485 59
3 60 487 62
3 220 487 60
3 65 488 61
3 61 488 225
3 62 487 226
3 226 486 63
3 63 489 227
3 486 489 63
3 227 485 64
3 64 485 228
3 228 488 65
3 219 485 227
3 227 489 219
3 486 487 220
3 225 488 485
3 226 487 486
3 485 488 228
3 60 62 492
3 221 60 492
3 65 61 494
3 61 224 494
3 62 229 492
3 232 65 494
3 222 221 493
3 229 221 492
3 221 229 493
3 223 222 490
3 222 230 490
3 230 222 493
3 224 223 491
3 231 223 490
3 223 231 491
3 232 224 491
3 224 232 494
3 229 230 493
3 230 231 490
3 231 232 491
3 62 226 495
3 229 62 495
3 226 63 495
3 63 233 495
3 64 228 496
3 234 64 496
3 228 65 496
3 65 232 496
3 229 233 230
3 233 229 495
3 231 230 497
3 230 233 497
3 232 231 234
3 234 231 497
3 232 234 496
3 233 234 497
3 227 233 63
3 234 227 64
3 227 234 233
4 240 376 364 502
4 218 484 217 499
4 197 465 455 502
4 198 454 463 502
4 23 154 354 208
4 465 459 382 505
4 468 199 200 501
4 297 268 503 506
4 465 382 386 505
4 106 0 281 220
4 104 484 218 499
4 465 386 502 505
4 172 20 363 202
4 376 502 240 505
4 217 484 105 499
4 340 499 267 504
4 333 339 503 506
4 393 502 387 505
4 170 468 200 501
4 465 386 455 502
4 369 463 454 502
4 333 498 338 506
4 393 387 390 505
4 468 171 199 501
4 297 498 268 506
4 333 503 243 506
4 333 243 498 506
4 340 267 500 504
4 268 243 503 506
4 197 461 465 502
4 463 461 198 502
4 268 498 243 506
4 396 402 217 499
4 341 218 347 499
4 465 461 459 505
4 274 395 401 500
4 217 396 403 402
4 341 348 347 218
4 318 315 117 503
4 393 261 502 505
4 376 370 364 502
4 387 393 381 502
4 117 315 298 503
4 130 503 336 508
4 130 311 336 503
4 199 257 200 501
4 236 218 217 499
4 451 197 455 502
4 198 451 454 502
4 465 502 461 505
4 336 311 241 503
4 161 38 162 356
4 102 283 24 101
4 98 25 97 286
4 130 311 503 508
4 333 338 339 506
4 267 499 242 504
4 261 381 393 502
4 383 388 199 501
4 366 200 371 501
4 393 390 261 505
4 195 457 449 501
4 456 196 448 501
4 272 318 248 503
4 340 500 350 504
4 303 297 503 506
4 157 359 39 158
4 41 359 163 164
4 346 267 273 500
4 463 502 369 505
4 298 503 315 508
4 427 118 132 508
4 267 242 500 504
4 370 502 376 505
4 382 502 386 505
4 116 10 290 228
4 117 298 300 503
4 17 169 362 207
4 242 395 500 504
4 439 412 189 499
4 411 438 190 499
4 259 199 388 501
4 385 457 452 501
4 453 456 368 501
4 351 499 340 504
4 399 499 439 504
4 260 364 501 502
4 27 283 112 111
4 168 40 167 356
4 107 26 108 286
4 199 259 257 501
4 364 260 240 502
4 371 374 200 366
4 199 383 391 388
4 427 421 301 508
4 242 499 395 504
4 291 303 297 503
4 339 327 333 503
4 425 191 416 498
4 297 302 498 506
4 395 405 500 504
4 452 501 450 502
4 450 501 453 502
4 297 268 247 503
4 13 103 280 225
4 450 452 457 501
4 453 450 456 501
4 438 344 435 499
4 399 439 434 504
4 218 246 347 499
4 218 348 347 246
4 267 346 340 500
4 461 502 463 505
4 236 217 402 499
4 381 501 392 502
4 364 375 501 502
4 427 419 421 508
4 385 394 457 501
4 368 456 377 501
4 266 402 395 499
4 118 298 315 508
4 315 503 311 508
4 311 315 318 503
4 391 259 199 388
4 328 333 275 498
4 198 461 451 502
4 451 461 197 502
4 327 243 333 503
4 449 457 394 501
4 377 456 448 501
4 291 297 247 503
4 452 450 453 502
4 118 301 298 508
4 236 402 266 499
4 242 395 274 500
4 395 499 406 504
4 439 399 407 499
4 385 501 452 502
4 438 352 344 499
4 453 501 368 502
4 405 401 395 500
4 346 350 340 500
4 333 243 275 498
4 435 432 438 499
4 235 259 199 391
4 421 503 301 508
4 334 336 503 508
4 427 301 118 508
4 417 192 426 498
4 420 503 332 506
4 403 236 217 402
4 334 130 336 508
4 241 272 318 248
4 245 501 381 502
4 437 193 443 510
4 439 407 412 499
4 438 411 352 499
4 236 246 218 499
4 267 253 273 500
4 255 268 276 498
4 267 242 253 500
4 301 503 298 508
4 260 261 240 502
4 179 278 239 507
4 117 318 312 315
4 301 421 296 503
4 195 450 457 501
4 456 450 196 501
4 244 371 200 501
4 443 500 400 510
4 240 502 261 505
4 309 5 304 133
4 8 126 326 305
4 447 384 383 501
4 367 446 366 501
4 366 371 367 501
4 384 388 383 501
4 268 292 276 498
4 332 503 420 508
4 153 14 353 210
4 435 499 344 504
4 243 247 268 503
4 266 395 242 499
4 341 343 409 499
4 396 410 398 499
4 400 437 443 510
4 243 255 275 498
4 445 448 196 501
4 195 449 445 501
4 245 260 501 502
4 327 269 243 503
4 218 223 484 104
4 200 205 468 170
4 341 347 343 499
4 398 402 396 499
4 267 340 246 499
4 439 189 432 499
4 438 432 190 499
4 406 395 402 499
4 351 347 340 499
4 292 297 302 498
4 333 328 338 498
4 222 217 484 105
4 204 199 468 171
4 255 498 276 509
4 218 219 236 217
4 371 374 244 200
4 382 387 502 505
4 292 268 297 498
4 293 423 425 498
4 231 234 497 115
4 213 216 481 156
4 348 218 251 246
4 190 408 411 499
4 412 408 189 499
4 233 230 497 114
4 215 212 481 155
4 257 244 200 501
4 332 503 339 506
4 425 416 295 498
4 301 296 298 503
4 425 418 191 498
4 274 401 404 500
4 392 501 385 502
4 375 368 501 502
4 253 242 274 500
4 449 394 384 501
4 448 367 377 501
4 275 498 255 509
4 382 387 386 502
4 347 246 340 499
4 268 255 243 498
4 246 236 266 499
4 432 499 435 504
4 382 390 387 505
4 373 376 240 505
4 388 392 381 501
4 364 375 371 501
4 329 338 498 506
4 344 499 351 504
4 386 385 455 502
4 368 369 454 502
4 380 179 278 239
4 351 340 350 504
4 276 498 292 509
4 343 352 411 499
4 412 407 398 499
4 293 425 295 498
4 279 272 269 503
4 417 413 192 498
4 191 413 416 498
4 420 503 421 508
4 466 52 202 172
4 399 406 499 504
4 406 407 399 499
4 352 351 344 499
4 237 216 349 500
4 113 62 226 495
4 385 392 394 501
4 368 377 375 501
4 329 339 338 506
4 421 503 420 506
4 423 418 425 498
4 271 505 390 507
4 448 446 367 501
4 449 384 447 501
4 331 417 426 498
4 440 500 443 510
4 275 328 498 509
4 257 259 244 501
4 172 52 202 363
4 296 503 421 506
4 343 411 409 499
4 398 410 412 499
4 192 418 426 498
4 463 369 365 505
4 500 504 400 510
4 445 196 450 501
4 195 445 450 501
4 267 246 242 499
4 364 370 375 502
4 387 381 392 502
4 483 60 220 106
4 218 251 246 236
4 420 421 419 508
4 261 245 381 502
4 53 206 467 169
4 203 52 466 172
4 388 381 245 501
4 400 504 437 510
4 329 426 422 498
4 455 385 452 502
4 368 454 453 502
4 365 458 463 505
4 279 269 336 503
4 270 239 278 507
4 426 329 331 498
4 380 179 239 507
4 106 60 220 281
4 432 408 190 499
4 189 408 432 499
4 251 218 219 236
4 332 339 329 506
4 252 274 404 500
4 232 65 496 116
4 62 229 495 113
4 61 224 482 103
4 221 60 483 106
4 441 443 440 500
4 316 311 130 508
4 201 257 199 235
4 244 374 257 200
4 293 423 498 506
4 334 503 332 508
4 426 418 422 498
4 362 16 53 168
4 12 61 280 102
4 266 242 246 499
4 261 390 271 505
4 459 382 505 507
4 259 199 257 235
4 353 57 15 162
4 65 11 290 112
4 97 1 60 281
4 21 52 163 363
4 245 261 260 502
4 464 179 460 507
4 259 388 245 501
4 192 413 418 498
4 455 452 451 502
4 329 498 422 506
4 454 451 453 502
4 418 413 191 498
4 169 53 207 467
4 200 201 257 199
4 297 303 302 506
4 113 3 63 226
4 404 215 252 500
4 293 498 302 506
4 315 314 118 508
4 390 505 382 507
4 23 20 470 265
4 296 303 503 506
4 445 446 448 501
4 449 447 445 501
4 373 370 376 505
4 0 106 58 220
4 370 369 502 505
4 427 132 419 508
4 299 276 292 509
4 20 172 50 202
4 411 408 409 499
4 412 410 408 499
4 416 414 295 498
4 331 415 417 498
4 496 65 228 116
4 61 225 103 482
4 413 414 416 498
4 415 413 417 498
4 9 130 305 322
4 270 278 505 507
4 422 332 329 506
4 117 4 304 320
4 397 215 404 500
4 216 342 349 500
4 154 54 208 480
4 422 420 332 506
4 241 336 130 311
4 458 461 463 505
4 293 295 302 498
4 329 338 331 498
4 379 278 179 372
4 423 418 498 506
4 269 247 243 503
4 116 65 228 290
4 299 238 276 509
4 400 500 405 504
4 315 310 314 508
4 295 498 414 509
4 331 415 498 509
4 405 395 406 504
4 397 404 401 500
4 349 342 346 500
4 336 269 327 503
4 422 498 418 506
4 247 272 248 503
4 334 339 332 503
4 296 303 298 503
4 247 248 300 503
4 464 460 505 507
4 350 344 351 504
4 214 57 479 153
4 54 211 480 154
4 292 498 295 509
4 328 331 498 509
4 355 53 16 168
4 61 12 282 102
4 163 52 21 358
4 97 60 1 285
4 453 451 452 502
4 278 379 179 380
4 247 300 291 503
4 273 253 237 500
4 169 40 168 206
4 41 172 163 203
4 400 399 437 504
4 437 504 433 510
4 398 407 406 499
4 343 351 352 499
4 203 52 172 163
4 168 53 169 206
4 385 386 387 502
4 369 368 370 502
4 350 504 500 510
4 384 394 392 501
4 377 367 375 501
4 387 392 385 502
4 375 370 368 502
4 437 433 193 510
4 216 237 209 500
4 370 365 369 505
4 116 112 27 232
4 26 107 113 229
4 103 24 102 224
4 25 106 97 221
4 328 254 335 509
4 294 295 414 509
4 331 330 415 509
4 282 11 65 112
4 355 15 57 162
4 229 62 107 113
4 112 116 65 232
4 221 60 106 97
4 61 103 102 224
4 372 270 278 505
4 205 165 474 204
4 347 351 343 499
4 406 402 398 499
4 245 244 259 501
4 392 388 384 501
4 375 367 371 501
4 337 334 332 508
4 435 344 436 510
4 458 365 464 505
4 434 437 399 504
4 432 435 434 504
4 294 292 295 509
4 328 330 331 509
4 10 116 64 228
4 154 23 55 208
4 435 504 344 510
4 337 332 420 508
4 479 57 210 153
4 244 245 260 501
4 316 315 311 508
4 296 120 293 506
4 300 298 291 503
4 336 327 334 503
4 216 481 156 500
4 165 205 474 166
4 100 222 99 490
4 165 468 166 171
4 169 17 51 207
4 114 109 108 230
4 99 105 98 222
4 155 159 158 212
4 165 171 164 204
4 234 335 254 509
4 339 334 327 503
4 298 303 291 503
4 215 155 481 500
4 240 261 270 505
4 232 231 491 27
4 206 205 40 475
4 477 39 212 211
4 493 25 221 222
4 191 418 192 413
4 405 400 397 500
4 240 270 373 505
4 275 254 328 509
4 459 462 382 507
4 153 57 210 353
4 413 498 415 509
4 413 414 498 509
4 331 338 328 498
4 292 302 295 498
4 68 297 247 291
4 428 33 141 321
4 215 216 209 500
4 103 13 59 225
4 34 319 430 139
4 327 74 333 243
4 344 504 350 510
4 424 131 32 129
4 223 222 100 490
4 237 252 209 500
4 129 424 131 508
4 130 334 129 508
4 159 213 474 212
4 83 376 364 240
4 216 215 481 500
4 443 193 440 510
4 427 118 28 132
4 288 110 490 109
4 361 159 160 474
4 190 432 189 408
4 195 445 196 450
4 23 20 256 470
4 62 113 226 289
4 243 327 74 269
4 342 350 500 510
4 326 142 7 322
4 153 162 38 214
4 39 157 154 211
4 288 490 100 99
4 166 165 361 474
4 309 320 6 136
4 53 169 207 362
4 101 104 100 223
4 111 110 115 231
4 167 170 166 205
4 161 160 156 213
4 347 78 340 246
4 138 33 306 321
4 420 424 337 508
4 468 166 171 170
4 224 223 24 491
4 214 213 475 38
4 229 230 26 493
4 477 41 203 204
4 211 54 157 154
4 153 57 162 214
4 94 266 402 395
4 275 255 254 509
4 323 319 34 144
4 397 401 405 500
4 346 342 350 500
4 344 345 436 510
4 219 258 251 249
4 342 216 156 500
4 130 129 316 508
4 258 227 254 238
4 293 120 423 506
4 253 252 237 500
4 227 258 249 238
4 274 252 253 500
4 213 159 474 160
4 110 230 490 109
4 296 421 120 506
4 215 397 155 500
4 299 294 233 509
4 335 234 330 509
4 247 268 297 68
4 163 52 172 363
4 271 270 261 505
4 215 209 252 500
4 274 401 395 95
4 225 61 103 280
4 299 292 294 509
4 328 335 330 509
4 317 431 139 140
4 14 153 56 210
4 299 233 238 509
4 267 340 78 246
4 460 459 505 507
4 313 144 324 143
4 345 442 444 510
4 332 146 422 329
4 116 112 65 290
4 230 110 490 231
4 97 60 106 281
4 399 405 406 504
4 310 429 140 141
4 442 342 500 510
4 241 9 336 279
4 342 156 442 500
4 84 373 376 240
4 211 54 476 157
4 229 62 492 107
4 65 232 494 112
4 57 214 478 162
4 209 250 256 252
4 146 422 420 332
4 267 79 346 273
4 471 14 264 469
4 364 371 82 244
4 441 155 397 500
4 429 132 124 125
4 124 431 123 131
4 461 460 459 505
4 434 433 437 504
4 271 270 505 507
4 237 349 80 273
4 269 272 247 503
4 130 322 241 311
4 420 419 424 508
4 435 436 433 510
4 131 132 317 508
4 365 372 464 505
4 9 130 322 241
4 458 464 460 505
4 255 276 238 509
4 419 132 131 508
4 421 423 120 506
4 423 422 418 506
4 250 209 237 252
4 28 301 118 427
4 349 346 80 273
4 400 405 399 504
4 266 94 242 395
4 257 374 51 200
4 442 156 440 500
4 456 453 368 175
4 457 452 182 385
4 178 179 380 507
4 129 337 424 508
4 435 433 504 510
4 312 136 307 137
4 441 440 155 500
4 158 159 360 212
4 390 393 261 91
4 456 368 377 175
4 394 457 182 385
4 365 464 176 458
4 459 183 382 462
4 471 264 17 469
4 138 308 137 314
4 129 32 424 337
4 242 274 395 95
4 250 257 201 256
4 257 51 17 250
4 54 154 208 354
4 303 293 302 506
4 221 60 97 492
4 203 52 163 476
4 53 206 168 478
4 61 224 102 494
4 325 143 142 316
4 342 345 350 510
4 388 89 245 381
4 263 488 10 485
4 237 56 349 216
4 99 98 287 222
4 109 108 230 287
4 77 347 348 246
4 9 241 336 130
4 235 199 50 391
4 251 219 249 236
4 131 313 129 508
4 197 451 198 461
4 435 344 438 151
4 399 439 187 434
4 254 328 335 275
4 344 350 345 510
4 260 364 82 244
4 434 435 433 504
4 454 369 368 174
4 386 181 455 385
4 150 436 344 345
4 437 399 400 186
4 380 378 277 86
4 335 76 254 275
4 458 460 461 505
4 379 278 87 380
4 164 165 204 360
4 443 441 188 397
4 275 333 75 243
4 443 188 400 397
4 422 421 420 506
4 365 370 373 505
4 344 352 438 151
4 407 439 187 399
4 346 340 79 267
4 310 317 132 508
4 314 118 312 315
4 307 133 117 134
4 325 127 130 126
4 248 318 320 117
4 57 153 162 353
4 460 462 459 507
4 245 259 89 388
4 150 436 435 344
4 437 434 399 186
4 184 465 459 382
4 177 365 458 463
4 125 28 30 428
4 32 31 430 123
4 373 270 372 505
4 178 378 462 507
4 13 488 263 485
4 333 75 328 275
4 216 479 349 342
4 480 397 215 404
4 380 277 378 507
4 425 293 295 119
4 256 257 201 235
4 296 293 303 506
4 330 115 415 509
4 160 161 357 213
4 101 100 284 223
4 69 247 248 300
4 13 10 258 485
4 469 14 17 250
4 294 414 114 509
4 300 69 247 291
4 442 500 440 510
4 254 255 238 509
4 113 62 107 289
4 323 34 319 430
4 117 4 320 248
4 293 425 423 119
4 453 454 368 174
4 181 452 455 385
4 335 234 254 64
4 184 386 465 382
4 365 177 369 463
4 274 404 401 96
4 134 308 135 118
4 324 128 129 127
4 234 115 330 509
4 260 83 364 240
4 482 348 341 218
4 403 396 217 483
4 442 345 342 510
4 294 114 233 509
4 479 349 56 216
4 480 215 55 404
4 259 235 88 391
4 391 88 259 388
4 248 318 241 71
4 382 462 389 507
4 323 31 32 128
4 135 30 28 306
4 380 239 277 507
4 111 110 231 284
4 166 167 205 357
4 76 335 328 275
4 86 277 380 239
4 470 20 472 265
4 404 274 252 96
4 200 374 467 366
4 383 199 391 466
4 47 455 465 386
4 43 369 463 454
4 147 426 329 331
4 380 278 87 239
4 251 77 348 246
4 252 55 215 404
4 178 460 179 507
4 254 227 234 509
4 373 84 270 240
4 318 311 241 71
4 227 254 238 509
4 390 261 271 91
4 53 168 169 362
4 348 482 59 218
4 217 58 403 483
4 299 276 66 292
4 66 238 276 299
4 194 436 444 510
4 271 239 270 507
4 374 467 51 200
4 391 199 50 466
4 132 310 314 321
4 59 348 218 251
4 29 295 425 416
4 129 313 316 508
4 178 380 378 507
4 470 472 23 265
4 310 315 317 508
4 4 117 300 248
4 436 345 444 510
4 103 61 102 280
4 35 417 426 331
4 234 335 496 64
4 299 63 233 495
4 35 417 192 426
4 313 315 316 508
4 454 463 43 198
4 455 197 47 465
4 414 416 295 122
4 148 415 417 331
4 443 400 49 437
4 444 436 37 345
4 201 209 469 250
4 219 227 485 258
4 295 294 414 122
4 148 415 331 330
4 37 194 436 444
4 36 411 438 190
4 196 42 456 448
4 48 189 439 412
4 49 443 437 193
4 46 449 195 457
4 263 10 13 485
4 194 440 193 510
4 14 17 264 469
4 241 322 9 72
4 426 422 147 329
4 23 55 256 252
4 423 421 422 506
4 3 63 249 238
4 154 54 157 354
4 306 33 428 321
4 70 4 248 320
4 191 29 425 416
4 420 424 145 337
4 217 58 236 403
4 389 382 183 462
4 176 372 464 365
4 365 373 372 505
4 233 238 63 299
4 462 378 389 507
4 194 193 433 510
4 279 73 336 269
4 115 413 415 509
4 330 335 496 234
4 233 294 299 495
4 70 248 318 320
4 411 409 149 343
4 410 398 412 185
4 114 414 413 509
4 40 169 467 206
4 172 41 466 203
4 277 378 389 92
4 277 271 92 507
4 334 337 129 508
4 180 447 449 384
4 446 448 367 173
4 131 317 313 508
4 85 278 379 372
4 46 449 457 394
4 42 377 456 448
4 216 38 479 342
4 215 39 397 480
4 412 439 48 407
4 411 352 36 438
4 237 14 56 250
4 378 277 389 507
4 278 85 270 372
4 45 389 462 378
4 116 27 496 232
4 26 113 495 229
4 24 103 482 224
4 106 25 483 221
4 254 258 10 64
4 72 241 322 311
4 424 419 131 508
4 4 304 320 309
4 371 374 81 244
4 227 238 233 509
4 251 59 13 258
4 277 19 378 92
4 343 409 149 341
4 410 396 398 185
4 178 45 462 378
4 180 447 384 383
4 446 367 366 173
4 322 9 326 305
4 128 129 144 324
4 389 390 382 507
4 480 154 397 404
4 479 153 349 342
4 394 180 449 384
4 448 377 367 173
4 24 482 341 218
4 396 25 217 483
4 398 412 185 407
4 411 149 352 343
4 257 81 374 244
4 18 85 278 379
4 481 159 212 213
4 319 131 317 313
4 327 336 73 269
4 332 420 145 337
4 202 20 472 470
4 81 374 51 257
4 234 497 115 509
4 277 92 389 507
4 208 472 23 470
4 389 271 390 507
4 404 55 23 96
4 114 497 233 509
4 262 249 3 486
4 467 40 200 366
4 199 383 41 466
4 481 159 155 212
4 481 160 159 213
4 84 376 83 240
4 160 481 159 155
4 390 271 389 92
4 89 259 88 388
4 317 315 313 508
4 205 165 204 468
4 183 184 459 382
4 177 365 176 458
4 469 17 51 250
4 425 295 29 119
4 389 45 19 378
4 379 44 18 372
4 51 17 81 257
4 85 373 270 372
4 479 153 38 214
4 154 39 211 480
4 158 212 360 477
4 369 177 43 463
4 465 47 386 184
4 216 156 38 342
4 227 233 234 509
4 222 493 98 287
4 69 68 247 291
4 389 92 271 507
4 194 444 440 510
4 167 475 205 357
4 111 284 231 491
4 43 369 454 174
4 455 47 181 386
4 409 24 341 104
4 215 397 39 155
4 393 90 261 91
4 0 60 1 281
4 49 188 400 443
4 37 444 345 152
4 216 479 38 214
4 232 27 496 234
4 200 40 467 206
4 224 482 24 218
4 229 26 233 495
4 221 217 25 483
4 215 211 39 480
4 199 41 203 466
4 396 105 25 410
4 258 59 13 485
4 395 94 242 95
4 218 341 24 104
4 46 180 449 394
4 448 42 377 173
4 185 412 48 407
4 36 149 352 411
4 14 56 349 237
4 417 35 148 331
4 416 29 295 122
4 32 145 424 337
4 481 160 213 156
4 18 85 379 372
4 19 389 378 92
4 426 147 35 331
4 101 223 284 491
4 213 475 161 357
4 121 296 421 120
4 217 105 25 396
4 349 80 14 237
4 366 40 170 446
4 108 493 230 287
4 481 160 156 155
4 127 325 130 316
4 117 312 307 134
4 330 496 27 234
4 294 233 26 495
4 360 204 164 477
4 205 165 468 166
4 373 84 85 270
4 404 252 55 96
4 383 41 447 171
4 77 13 59 348
4 77 78 347 246
4 74 75 333 243
4 427 28 301 121
4 308 138 135 314
4 86 380 87 239
4 127 143 325 316
4 14 57 15 353
4 290 10 11 65
4 20 52 21 363
4 73 336 9 279
4 56 237 209 216
4 137 307 312 134
4 479 38 153 342
4 154 397 39 480
4 396 403 106 483
4 348 103 482 341
4 318 248 70 71
4 497 234 233 509
4 69 248 4 300
4 442 440 444 510
4 132 124 131 140
4 175 453 368 174
4 178 462 460 507
4 452 181 182 385
4 267 340 79 78
4 320 6 4 309
4 144 129 313 324
4 92 390 271 91
4 40 170 200 366
4 436 150 37 345
4 437 400 49 186
4 149 24 341 409
4 185 25 410 396
4 344 435 150 151
4 326 7 9 322
4 266 402 93 94
4 187 399 434 186
4 254 10 335 64
4 254 234 227 64
4 41 383 199 171
4 256 50 20 235
4 420 145 146 332
4 76 10 335 254
4 180 41 447 383
4 173 40 366 446
4 146 147 422 329
4 131 317 132 140
4 68 268 297 67
4 348 59 77 251
4 227 489 63 238
4 249 63 489 238
4 466 391 383 172
4 169 467 374 366
4 327 73 74 269
4 3 2 62 289
4 67 66 276 292
4 277 239 271 507
4 82 83 364 260
4 165 468 171 204
4 24 103 341 482
4 106 25 396 483
4 489 227 249 238
4 252 23 55 96
4 118 135 28 321
4 236 58 0 403
4 156 38 342 442
4 238 3 63 299
4 323 319 32 430
4 441 39 397 155
4 26 122 414 294
4 27 148 330 415
4 22 54 23 354
4 403 0 236 93
4 328 75 76 275
4 119 423 293 120
4 27 330 234 115
4 319 129 144 128
4 3 238 66 299
4 330 27 415 115
4 256 55 23 470
4 118 308 135 314
4 26 114 233 294
4 194 433 436 510
4 79 80 346 273
4 294 26 114 414
4 39 188 441 397
4 38 152 342 442
4 23 472 208 265
4 202 472 20 265
4 88 235 20 391
4 209 56 469 250
4 129 319 32 128
4 294 299 495 113
4 496 116 335 330
4 304 320 309 136
4 199 50 201 235
4 166 468 205 170
4 322 326 142 305
4 493 25 222 98
4 477 39 158 212
4 40 205 167 475
4 27 231 491 111
4 40 169 366 467
4 172 41 383 466
4 249 63 3 486
4 262 486 226 487
4 77 59 13 251
4 258 219 227 489
4 227 64 485 258
4 317 310 132 140
4 389 183 45 462
4 372 464 44 176
4 132 125 141 321
4 311 72 241 71
4 131 431 139 317
4 262 0 249 486
4 138 135 314 321
4 256 209 55 473
4 97 25 221 286
4 24 283 102 224
4 162 38 214 356
4 135 118 314 321
4 306 428 28 321
4 39 359 157 211
4 163 359 41 203
4 477 41 204 164
4 26 230 108 493
4 24 223 101 491
4 38 213 475 161
4 107 229 26 286
4 168 206 40 356
4 112 283 27 232
4 7 9 322 72
4 429 132 310 140
4 257 201 51 250
4 12 61 13 280
4 256 201 209 473
4 16 53 17 362
4 377 42 456 175
4 457 182 46 394
4 81 82 371 244
4 438 352 36 151
4 439 187 48 407
4 51 17 374 81
4 130 322 311 316
4 317 131 431 140
4 116 27 330 496
4 26 113 294 495
4 58 0 249 236
4 220 486 262 487
4 96 401 274 95
4 70 6 4 320
4 235 50 20 391
4 123 139 319 131
4 256 20 50 470
4 324 129 313 143
4 10 488 228 485
4 129 313 319 144
4 125 132 28 321
4 139 123 431 131
4 125 429 132 141
4 310 132 429 141
4 320 318 312 117
4 14 471 210 469
4 429 124 132 140
4 131 124 431 140
4 258 219 489 249
4 13 225 488 485
4 117 312 134 118
4 278 87 18 379
4 51 201 257 200
4 201 469 51 250
4 89 90 245 381
4 215 209 55 252
4 130 129 127 316
4 489 227 258 249
4 277 378 19 86
4 209 237 56 250
4 319 32 123 131
4 236 219 58 217
4 17 207 471 469
4 310 132 141 321
4 238 63 227 233
4 256 55 209 252
4 143 127 129 316
4 312 137 134 118
4 131 139 319 317
4 59 258 219 485
4 254 227 258 64
4 201 50 256 235
4 256 50 201 473
4 428 141 28 321
4 65 10 11 263
4 22 23 54 265
4 52 20 21 265
4 15 57 14 264
4 55 256 473 470
4 306 28 138 321
4 117 312 136 307
4 208 472 54 265
4 142 130 325 316
4 143 129 313 316
4 430 319 32 139
4 489 63 249 486
4 32 430 139 123
4 28 125 141 428
4 28 138 135 306
4 133 304 309 136
4 126 142 326 305
4 258 251 59 219
4 13 61 12 263
4 118 137 308 314
4 323 32 319 144
4 17 53 16 264
4 144 323 32 128
4 471 264 14 210
4 486 262 0 220
4 228 488 10 263
4 201 209 250 256
4 52 472 202 265
4 489 219 58 249
4 486 0 58 220
4 0 106 403 58
4 251 218 59 219
4 64 258 10 485
4 113 3 299 63
4 428 30 33 306
4 486 3 262 226
4 312 137 118 314
4 323 31 34 430
4 469 56 14 250
4 322 142 130 305
4 304 320 136 117
4 10 116 335 64
4 304 4 5 309
4 326 9 8 305
4 323 32 31 430
4 428 28 30 306
4 202 50 20 470
4 488 225 13 263
4 207 264 17 471
4 62 2 3 262
4 20 172 391 50
4 1 60 0 262
4 14 153 349 56
4 154 23 404 55
4 103 13 348 59
4 103 482 59 348
4 106 403 58 483
4 473 256 50 470
4 142 126 130 305
4 136 133 304 117
4 169 17 374 51
4 24 223 104 101
4 40 205 170 167
4 27 231 111 115
4 38 213 161 156
4 335 116 496 64
4 495 299 63 113
4 26 230 114 108
4 39 212 155 158
4 204 41 171 164
4 25 222 98 105
4 144 32 319 128
4 202 50 466 172
4 495 63 226 113
4 486 63 3 226
4 480 55 154 404
4 153 349 56 479
4 135 138 28 321
4 490 288 109 99
4 165 159 361 474
4 139 319 32 123
4 51 169 467 374
4 466 50 391 172
4 136 320 312 117
4 141 125 28 321
4 130 142 322 316
4 23 55 208 470
4 58 220 106 483
4 0 58 249 486
4 8 7 9 326
4 6 5 4 309
4 249 219 58 236
4 308 134 137 118
4 21 22 358 265
4 16 15 264 355
4 282 11 12 263
4 61 282 494 102
4 53 355 478 168
4 492 60 97 285
4 476 52 163 358
4 129 324 127 143
4 208 54 23 265
4 478 355 57 162
4 494 282 65 112
4 62 107 285 492
4 54 157 358 476
4 478 206 168 356
4 221 97 286 492
4 102 283 494 224
4 467 169 51 207
4 163 359 203 476
4 107 229 286 492
4 112 494 283 232
4 214 478 162 356
4 211 359 157 476
4 202 20 52 265
4 289 62 3 226
4 471 57 264 210
4 53 264 207 471
4 488 228 65 263
4 61 225 488 263
4 228 496 116 64
4 59 482 103 225
4 64 10 228 485
4 210 56 14 469
4 117 136 133 307
4 126 130 325 142
4 208 55 154 480
4 208 23 54 354
4 226 62 262 487
4 264 15 57 355
4 11 282 65 263
4 358 22 54 265
4 264 53 16 355
4 12 61 282 263
4 358 52 21 265
4 286 97 107 492
4 162 478 168 356
4 102 494 283 112
4 492 97 107 285
4 163 157 476 358
4 282 494 102 112
4 168 355 478 162
4 230 493 222 287
4 360 212 204 477
4 231 284 223 491
4 475 213 205 357
4 225 13 59 485
4 207 17 51 469
4 54 52 476 358
4 355 57 53 478
4 492 62 60 285
4 494 282 61 65
4 359 163 157 476
4 0 60 281 220
4 160 166 361 474
4 490 100 110 288
4 360 164 158 477
4 475 167 161 357
4 284 111 101 491
4 108 98 493 287
4 286 229 221 492
4 224 283 494 232
4 206 478 214 356
4 359 211 203 476
4 57 14 264 210
4 65 228 10 263
4 52 20 202 363
4 2 1 60 285
4 99 109 490 222
4 159 165 212 474
4 225 61 13 263
4 479 56 153 210
4 262 3 62 226
4 264 17 53 207
4 62 2 60 285
4 222 109 490 230
4 165 204 212 474
4 290 228 10 65
4 14 57 353 210
4 57 53 264 355
4 65 282 61 263
4 54 52 358 265
4 13 61 225 280
4 262 60 220 487
4 362 53 17 207
4 60 0 262 220
4 222 99 109 287
4 165 212 360 159
4 249 58 489 486
4 60 1 2 262
4 166 213 205 474
4 100 231 223 490
4 230 222 109 287
4 204 212 360 165
4 60 2 62 262
4 166 160 213 474
4 100 110 231 490
4 158 41 164 359
4 26 98 108 286
4 24 283 111 101
4 161 167 38 356
4 98 493 26 108
4 158 41 477 164
4 24 111 491 101
4 38 475 167 161
4 231 223 284 100
4 166 213 357 205
4 110 231 284 100
4 213 166 357 160
4 158 41 359 39
4 283 27 24 111
4 25 26 286 98
4 167 40 38 356
4 232 224 27 491
4 26 493 221 229
4 211 41 203 477
4 214 38 475 206
4 211 41 359 203
4 26 25 493 98
4 111 24 491 27
4 41 158 477 39
4 40 38 475 167
4 229 221 26 286
4 224 27 283 232
4 206 214 38 356
4 472 52 54 265
4 224 24 27 491
4 38 40 475 206
4 211 41 477 39
4 26 25 221 493
4 262 62 60 487
4 41 211 359 39
4 26 25 286 221
4 283 24 27 224
4 38 40 206 356
4 264 53 57 471
4 61 488 65 263
4 3 113 289 226
4 503 241 318 311
4 503 318 241 272
4 499 104 408 409
4 504 439 432 499
4 504 432 439 434
4 157 22 54 358
4 157 54 22 354
4 2 107 62 289
4 2 62 107 285
4 499 104 341 218
4 499 341 104 409
4 105 499 396 217
4 396 499 105 410
4 503 279 241 336
4 503 241 279 272
4 501 170 366 200
4 501 366 170 446
4 501 171 383 447
4 501 383 171 199
4 278 507 372 505
4 278 372 507 179
4 464 372 507 505
4 464 507 372 179
4 171 501 445 447
4 105 499 408 410
4 445 501 170 446
4 117 118 315 312
4 315 118 117 298
4 314 132 508 310
4 508 132 314 118
4 248 117 503 318
4 503 117 248 300
4 231 234 27 232
4 27 234 231 115
4 218 223 24 224
4 24 223 218 104
4 213 216 38 214
4 38 216 213 156
4 200 205 40 206
4 40 205 200 170
4 222 217 25 221
4 222 25 217 105
4 233 230 26 229
4 26 230 233 114
4 204 199 41 203
4 204 41 199 171
4 215 212 39 211
4 39 212 215 155
4 105 100 222 99
4 236 402 93 266
4 93 402 236 403
4 223 104 222 484
4 223 222 104 100
4 105 222 104 484
4 105 104 222 100
4 261 381 90 393
4 90 381 261 245
4 349 273 500 346
4 500 273 349 237
4 292 268 67 297
4 292 67 268 276
4 372 179 44 464
4 372 44 179 379
4 301 421 121 296
4 121 421 301 427
4 364 244 501 371
4 501 244 364 260
4 104 105 499 408
4 104 499 105 484
4 170 171 501 445
4 170 501 171 468
4 397 443 500 400
4 397 500 443 441
4 345 442 152 444
4 345 152 442 342
4 155 156 500 440
4 155 500 156 481
4 115 114 509 497
4 115 509 114 413
4 114 230 110 109
4 231 115 114 110
4 114 115 231 497
4 114 230 231 110
4 231 230 114 497
4 319 129 131 313
4 131 129 319 32
4 118 321 132 314
4 132 321 118 28

CELL_TYPES 2802
1
1
1
1
1
1
1
1
1
1
1
1
1
1
1
1
1
1
1
1
1
1
1
1
1
1
1
1
1
1
1
1
1
1
1
1
1
1
1
1
1
1
1
1
1
1
1
1
1
1
1
1
1
1
1
1
1
1
1
1
1
1
1
1
1
1
3
3
3
3
3
3
3
3
3
3
3
3
3
3
3
3
3
3
3
3
3
3
3
3
3
3
3
3
3
3
3
3
3
3
3
3
3
3
3
3
3
3
3
3
3
3
3
3
3
3
3
3
3
3
3
3
3
3
3
3
3
3
3
3
3
3
3
3
3
3
3
3
3
3
3
3
3
3
3
3
3
3
3
3
3
3
3
3
3
3
3
3
3
3
3
3
3
3
3
3
3
3
3
3
3
3
3
3
3
3
3
3
3
3
3
3
3
3
3
3
3
3
3
3
3
3
3
3
3
3
3
3
3
3
3
3
3
3
3
3
3
3
3
3
3
3
3
3
3
3
3
3
3
3
3
3
3
3
3
3
3
3
3
3
3
3
3
3
3
3
3
3
3
3
3
3
3
3
3
3
3
3
3
3
3
3
3
3
3
3
3
3
3
3
3
3
3
3
3
3
3
3
3
3
3
3
3
3
3
3
3
3
3
3
3
3
3
3
3
3
3
3
3
3
3
3
3
3
3
3
3
3
3
3
3
3
3
3
3
3
3
3
3
3
3
3
3
3
3
3
3
3
3
3
3
3
3
3
3
3
3
3
3
3
3
3
3
3
5
5
5
5
5
5
5
5
5
5
5
5
5
5
5
5
5
5
5
5
5
5
5
5
5
5
5
5
5
5
5
5
5
5
5
5
5
5
5
5
5
5
5
5
5
5
5
5
5
5
5
5
5
5
5
5
5
5
5
5
5
5
5
5
5
5
5
5
5
5
5
5
5
5
5
5
5
5
5
5
5
5
5
5
5
5
5
5
5
5
5
5
5
5
5
5
5
5
5
5
5
5
5
5
5
5
5
5
5
5
5
5
5
5
5
5
5
5
5
5
5
5
5
5
5
5
5
5
5
5
5
5
5
5
5
5
5
5
5
5
5
5
5
5
5
5
5
5
5
5
5
5
5
5
5
5
5
5
5
5
5
5
5
5
5
5
5
5
5
5
5
5
5
5
5
5
5
5
5
5
5
5
5
5
5
5
5
5
5
5
5
5
5
5
5
5
5
5
5
5
5
5
5
5
5
5
5
5
5
5
5
5
5
5
5
5
5
5
5
5
5
5
5
5
5
5
5
5
5
5
5
5
5
5
5
5
5
5
5
5
5
5
5
5
5
5
5
5
5
5
5
5
5
5
5
5
5
5
5
5
5
5
5
5
5
5
5
5
5
5
5
5
5
5
5
5
5
5
5
5
5
5
5
5
5
5
5
5
5
5
5
5
5
5
5
5
5
5
5
5
5
5
5
5
5
5
5
5
5
5
5
5
5
5
5
5
5
5
5
5
5
5
5
5
5
5
5
5
5
5
5
5
5
5
5
5
5
5
5
5
5
5
5
5
5
5
5
5
5
5
5
5
5
5
5
5
5
5
5
5
5
5
5
5
5
5
5
5
5
5
5
5
5
5
5
5
5
5
5
5
5
5
5
5
5
5
5
5
5
5
5
5
5
5
5
5
5
5
5
5
5
5
5
5
5
5
5
5
5
5
5
5
5
5
5
5
5
5
5
5
5
5
5
5
5
5
5
5
5
5
5
5
5
5
5
5
5
5
5
5
5
5
5
5
5
5
5
5
5
5
5
5
5
5
5
5
5
5
5
5
5
5
5
5
5
5
5
5
5
5
5
5
5
5
5
5
5
5
5
5
5
5
5
5
5
5
5
5
5
5
5
5
5
5
5
5
5
5
5
5
5
5
5
5
5
5
5
5
5
5
5
5
5
5
5
5
5
5
5
5
5
5
5
5
5
5
5
5
5
5
5
5
5
5
5
5
5
5
5
5
5
5
5
5
5
5
5
5
5
5
5
5
5
5
5
5
5
5
5
5
5
5
5
5
5
5
5
5
5
5
5
5
5
5
5
5
5
5
5
5
5
5
5
5
5
5
5
5
5
5
5
5
5
5
5
5
5
5
5
5
5
5
5
5
5
5
5
5
5
5
5
5
5
5
5
5
5
5
5
5
5
5
5
5
5
5
5
5
5
5
5
5
5
5
5
5
5
5
5
5
5
5
5
5
5
5
5
5
5
5
5
5
5
5
5
5
5
5
5
5
5
5
5
5
5
5
5
5
5
5
5
5
5
5
5
5
5
5
5
5
5
5
5
5
5
5
5
5
5
5
5
5
5
5
5
5
5
5
5
5
5
5
5
5
5
5
5
5
5
5
5
5
5
5
5
5
5
5
5
5
5
5
5
5
5
5
5
5
5
5
5
5
5
5
5
5
5
5
5
5
5
5
5
5
5
5
5
5
5
5
5
5
5
5
5
5
5
5
5
5
5
5
5
5
5
5
5
5
5
5
5
5
5
5
5
5
5
5
5
5
5
5
5
5
5
5
5
5
5
5
5
5
5
5
5
5
5
5
5
5
5
5
5
5
5
5
5
5
5
5
5
5
5
5
5
5
5
5
5
5
5
5
5
5
5
5
5
5
5
5
5
5
5
5
5
5
5
5
5
5
5
5
5
5
5
5
5
5
5
5
5
5
5
5
5
5
5
5
5
5
5
5
5
5
5
5
5
5
5
5
5
5
5
5
5
5
5
5
5
5
5
5
5
5
5
5
5
5
5
5
5
5
5
5
5
5
5
5
5
5
5
5
5
5
5
5
5
5
5
5
5
5
5
5
5
5
5
5
5
5
5
5
5
5
5
5
5
5
5
5
5
5
5
5
5
5
5
5
5
5
5
5
5
5
5
5
5
5
5
5
5
5
5
5
5
5
5
5
5
5
5
5
5
5
5
5
5
5
5
5
5
5
5
5
5
5
5
5
5
5
5
5
5
5
10
10
10
10
10
10
10
10
10
10
10
10
10
10
10
10
10
10
10
10
10
10
10
10
10
10
10
10
10
10
10
10
10
10
10
10
10
10
10
10
10
10
10
10
10
10
10
10
10
10
10
10
10
10
10
10
10
10
10
10
10
10
10
10
10
10
10
10
10
10
10
10
10
10
10
10
10
10
10
10
10
10
10
10
10
10
10
10
10
10
10
10
10
10
10
10
10
10
10
10
10
10
10
10
10
10
10
10
10
10
10
10
10
10
10
10
10
10
10
10
10
10
10
10
10
10
10
10
10
10
10
10
10
10
10
10
10
10
10
10
10
10
10
10
10
10
10
10
10
10
10
10
10
10
10
10
10
10
10
10
10
10
10
10
10
10
10
10
10
10
10
10
10
10
10
10
10
10
10
10
10
10
10
10
10
10
10
10
10
10
10
10
10
10
10
10
10
10
10
10
10
10
10
10
10
10
10
10
10
10
10
10
10
10
10
10
10
10
10
10
10
10
10
10
10
10
10
10
10
10
10
10
10
10
10
10
10
10
10
10
10
10
10
10
10
10
10
10
10
10
10
10
10
10
10
10
10
10
10
10
10
10
10
10
10
10
10
10
10
10
10
10
10
10
10
10
10
10
10
10
10
10
10
10
10
10
10
10
10
10
10
10
10
10
10
10
10
10
10
10
10
10
10
10
10
10
10
10
10
10
10
10
10
10
10
10
10
10
10
10
10
10
10
10
10
10
10
10
10
10
10
10
10
10
10
10
10
10
10
10
10
10
10
10
10
10
10
10
10
10
10
10
10
10
10
10
10
10
10
10
10
10
10
10
10
10
10
10
10
10
10
10
10
10
10
10
10
10
10
10
10
10
10
10
10
10
10
10
10
10
10
10
10
10
10
10
10
10
10
10
10
10
10
10
10
10
10
10
10
10
10
10
10
10
10
10
10
10
10
10
10
10
10
10
10
10
10
10
10
10
10
10
10
10
10
10
10
10
10
10
10
10
10
10
10
10
10
10
10
10
10
10
10
10
10
10
10
10
10
10
10
10
10
10
10
10
10
10
10
10
10
10
10
10
10
10
10
10
10
10
10
10
10
10
10
10
10
10
10
10
10
10
10
10
10
10
10
10
10
10
10
10
10
10
10
10
10
10
10
10
10
10
10
10
10
10
10
10
10
10
10
10
10
10
10
10
10
10
10
10
10
10
10
10
10
10
10
10
10
10
10
10
10
10
10
10
10
10
10
10
10
10
10
10
10
10
10
10
10
10
10
10
10
10
10
10
10
10
10
10
10
10
10
10
10
10
10
10
10
10
10
10
10
10
10
10
10
10
10
10
10
10
10
10
10
10
10
10
10
10
10
10
10
10
10
10
10
10
10
10
10
10
10
10
10
10
10
10
10
10
10
10
10
10
10
10
10
10
10
10
10
10
10
10
10
10
10
10
10
10
10
10
10
10
10
10
10
10
10
10
10
10
10
10
10
10
10
10
10
10
10
10
10
10
10
10
10
10
10
10
10
10
10
10
10
10
10
10
10
10
10
10
10
10
10
10
10
10
10
10
10
10
10
10
10
10
10
10
10
10
10
10
10
10
10
10
10
10
10
10
10
10
10
10
10
10
10
10
10
10
10
10
10
10
10
10
10
10
10
10
10
10
10
10
10
10
10
10
10
10
10
10
10
10
10
10
10
10
10
10
10
10
10
10
10
10
10
10
10
10
10
10
10
10
10
10
10
10
10
10
10
10
10
10
10
10
10
10
10
10
10
10
10
10
10
10
10
10
10
10
10
10
10
10
10
10
10
10
10
10
10
10
10
10
10
10
10
10
10
10
10
10
10
10
10
10
10
10
10
10
10
10
10
10
10
10
10
10
10
10
10
10
10
10
10
10
10
10
10
10
10
10
10
10
10
10
10
10
10
10
10
10
10
10
10
10
10
10
10
10
10
10
10
10
10
10
10
10
10
10
10
10
10
10
10
10
10
10
10
10
10
10
10
10
10
10
10
10
10
10
10
10
10
10
10
10
10
10
10
10
10
10
10
10
10
10
10
10
10
10
10
10
10
10
10
10
10
10
10
10
10
10
10
10
10
10
10
10
10
10
10
10
10
10
10
10
10
10
10
10
10
10
10
10
10
10
10
10
10
10
10
10
10
10
10
10
10
10
10
10
10
10
10
10
10
10
10
10
10
10
10
10
10
10
10
10
10
10
10
10
10
10
10
10
10
10
10
10
10
10
10
10
10
10
10
10
10
10
10
10
10
10
10
10
10
10
10
10
10
10
10
10
10
10
10
10
10
10
10
10
10
10
10
10
10
10
10
10
10
10
10
10
10
10
10
10
10
10
10
10
10
10
10
10
10
10
10
10
10
10
10
10
10
10
10
10
10
10
10
10
10
10
10
10
10
10
10
10
10
10
10
10
10
10
10
10
10
10
10
10
10
10
10
10
10
10
10
10
10
10
10
10
10
10
10
10
10
10
10
10
10
10
10
10
10
10
10
10
10
10
10
10
10
10
10
10
10
10
10
10
10
10
10
10
10
10
10
10
10
10
10
10
10
10
10
10
10
10
10
10
10
10
10
10
10
10
10
10
10
10
10
10
10
10
10
10
10
10
10
10
10
10
10
10
10
10
10
10
10
10
10
10
10
10
10
10
10
10
10
10
10
10
10
10
10
10
10
10
10
10
10
10
10
10
10
10
10
10
10
10
10
10
10
10
10
10
10
10
10
10
10
10
10
10
10
10
10
10
10
10
10
10
10
10
10
10
10
10
10
10
10
10
10
10
10
10
10
10
10
10
10
10
10
10
10
10
10
10
10
10
10
10
10
10
10
10
10
10
10
10
10
10
10
10
10
10
10
10
10
10
10
10
10
10
10
10
10
10
10
10
10
10
10
10
10
10
10
10
10
10
10
10
10
10
10
10
10
10
10
10
10
10
10
10
10
10
10
10
10
10
10
10
10
10
10
10
10
10
10
10
10
10
10
10
10
10
10
10
10
10
10
10
10
10
10
10
10
10
10
10
10
10
10
10
10
10
10
10
10
10
10
10
10
10
10
10
10
10
10
10
10
10
10
10
10
10
10
10
10
10
10
10
10
10
10
10
10
10
10
10
10
10
10
10
10
10
10
10
10
10
10
10
10
10
10
10
10
10
10
10
10
10
10
10
10
10
10
10
10
10
10
10
10
10
10
10
10
10
10
10
10
10
10
10
10
10
10
10
10
10
10
10
10
10
10
10
10
10
10
10
10
10
10
10
10
10
10
10
10
10
10
10
10
10
10
10
10
10
10
10
10
10
10
10
10
10
10
10
10
10
10
10
10
10
10
10
10
10
10
10
10
10
10
10
