# vtk DataFile Version 2.0
, Created by Gmsh 4.11.1 
ASCII
DATASET UNSTRUCTURED_GRID
POINTS 519 double
8.75 0 -44.28168521080261
16.51718738572515 0 -41.14001390899676
16.51718738572515 0 -38.85998609100324
8.75 0 -35.71831478919738
8.75 0 -3
11.75 0 -3
11.75 0 0
-11.75 0 0
-11.75 0 -3
-8.75 0 -3
-8.75 1.071565949253934e-15 -35.71831478919738
-16.51718738572515 2.022772066284535e-15 -38.85998609100324
-16.51718738572515 2.022772066284535e-15 -41.14001390899676
-8.75 1.071565949253934e-15 -44.28168521080261
-8.75 1.071565949253934e-15 -75.71831478919738
-16.51718738572515 2.022772066284535e-15 -78.85998609100324
-16.51718738572515 2.022772066284535e-15 -81.14001390899676
-8.75 1.071565949253934e-15 -84.28168521080262
-8.75 0 -120
8.75 0 -120
8.75 0 -84.28168521080262
16.51718738572515 0 -81.14001390899676
16.51718738572515 0 -78.85998609100324
8.75 0 -75.71831478919738
-8.75 13.38663445778084 -41.35218344992828
8.75 13.38663445778084 -41.35218344992828
8.75 13.38663445778083 -38.64781655007172
-8.75 13.38663445778083 -38.64781655007172
8.75 20 -3
8.75 20 -37.46053559426093
11.75 23 -3
-11.75 23 -3
-8.75 20 -3
11.75 23 0
-11.75 23 0
-8.75 20 -37.46053559426093
-8.75 20 -42.53946440573907
-8.75 20 -77.46053559426093
-8.75 13.38663445778085 -78.64781655007171
8.75 13.38663445778078 -78.64781655007172
-8.75 13.38663445778092 -81.3521834499283
8.75 13.38663445778086 -81.35218344992829
-8.75 20 -82.53946440573907
-8.75 20 -117.4605355942609
-8.75 5.854732770359247 -120
8.75 5.854732770359247 -120
8.75 20 -82.53946440573907
8.75 20 -117.4605355942609
8.75 20 -42.53946440573907
8.75 20 -77.46053559426093
3.131829601721365 4.871029054886996 -84.28168521080261
-3.131829601721364 4.871029054886996 -84.28168521080261
12.65292788039608 4.871029054886996 -81.14001390899676
-12.65292788039608 4.871029054886997 -81.14001390899676
12.65292788039608 4.871029054886996 -78.85998609100324
3.131829601721365 4.871029054886996 -75.71831478919739
-3.131829601721364 4.871029054886996 -75.71831478919739
-12.65292788039608 4.871029054886997 -78.85998609100324
3.131829601721365 4.871029054886996 -44.28168521080261
-3.131829601721364 4.871029054886996 -44.28168521080261
12.65292788039608 4.871029054886996 -41.14001390899676
-12.65292788039608 4.871029054886997 -41.14001390899676
12.65292788039608 4.871029054886996 -38.85998609100324
3.131829601721365 4.871029054886996 -35.71831478919739
-3.131829601721364 4.871029054886996 -35.71831478919739
-12.65292788039608 4.871029054886997 -38.85998609100324
12.63359369286258 0 -42.71084955989969
12.63359369286257 0 -37.28915044010031
8.75 0 -29.1746518313579
8.75 0 -22.63098887351839
8.75 0 -16.08732591567893
8.75 0 -9.543662957839466
5.875000000000016 0 0
3.730349362740526e-14 0 0
-5.874999999999972 0 0
-8.75 0 -9.543662957839484
-8.75 0 -16.08732591567898
-8.75 0 -22.63098887351845
-8.75 0 -29.17465183135791
-12.63359369286257 1.547169007769234e-15 -37.28915044010031
-12.63359369286258 1.547169007769235e-15 -42.71084955989969
-8.75 0 -50.56901112648157
-8.75 0 -56.85633704216052
-8.75 0 -63.14366295783947
-8.75 0 -69.43098887351843
-12.63359369286257 1.547169007769234e-15 -77.2891504401003
-12.63359369286258 1.547169007769235e-15 -82.71084955989969
-8.75 0 -90.23473767566885
-8.75 0 -96.18779014053507
-8.75 0 -102.1408426054013
-8.75 0 -108.0938950702676
-8.75 0 -114.0469475351338
2.916666666666666 0 -120
-2.916666666666668 0 -120
8.75 0 -90.23473767566885
8.75 0 -96.18779014053507
8.75 0 -102.1408426054013
8.75 0 -108.0938950702676
8.75 0 -114.0469475351338
12.63359369286258 0 -82.71084955989969
12.63359369286257 0 -77.2891504401003
8.75 0 -50.56901112648157
8.75 0 -56.85633704216052
8.75 0 -63.14366295783947
8.75 0 -69.43098887351843
15.25989136032508 6.320853961786673 -41.14001390899676
11.67941520657515 11.67941520657517 -41.14001390899676
6.32085396178664 15.25989136032509 -41.14001390899676
-3.933168978975431e-14 16.51718738572515 -41.14001390899676
-6.320853961786706 15.25989136032506 -41.14001390899676
-11.67941520657518 11.67941520657514 -41.14001390899676
-15.25989136032508 6.320853961786647 -41.14001390899676
-8.75 6.799517448822713 -43.33870789889567
2.991387234743626 14.98678709681 -41.6394548464028
-2.99138723474362 14.98678709681 -41.6394548464028
8.75 6.799517448822711 -43.33870789889567
15.25989136032508 6.320853961786673 -38.85998609100324
11.67941520657515 11.67941520657517 -38.85998609100324
6.32085396178664 15.25989136032509 -38.85998609100324
-3.933168978975431e-14 16.51718738572515 -38.85998609100324
-6.320853961786706 15.25989136032506 -38.85998609100324
-11.67941520657518 11.67941520657514 -38.85998609100324
-15.25989136032508 6.320853961786647 -38.85998609100324
8.75 6.799517448822697 -36.66129210110432
-2.991387234743628 14.98678709681002 -38.36054515359721
2.991387234743633 14.98678709681002 -38.36054515359721
-8.75 6.799517448822701 -36.66129210110432
8.75 13.33333333333335 -3
8.75 6.666666666666705 -3
8.75 20 -30.56842847540875
8.75 20 -23.67632135655657
8.75 20 -16.78421423770438
8.75 20 -9.892107118852206
-5.875000000000016 23 -3
-3.730349362740526e-14 23 -3
5.874999999999972 23 -3
11.75 5.749999999999988 -3
11.75 11.49999999999999 -3
11.75 17.24999999999999 -3
-2.916666666666666 20 -3
2.916666666666668 20 -3
-8.75 13.33333333333335 -3
-8.75 6.666666666666705 -3
-11.75 5.749999999999988 -3
-11.75 11.49999999999999 -3
-11.75 17.24999999999999 -3
11.75 5.749999999999988 0
11.75 11.49999999999999 0
11.75 17.24999999999999 0
-5.875000000000016 23 0
-3.730349362740526e-14 23 0
5.874999999999972 23 0
-11.75 5.749999999999988 0
-11.75 11.49999999999999 0
-11.75 17.24999999999999 0
-8.75 20 -9.892107118852183
-8.75 20 -16.78421423770436
-8.75 20 -23.67632135655655
-8.75 20 -30.56842847540873
-8.75 20 -70.47632135655657
-8.75 20 -63.49210711885221
-8.75 20 -56.50789288114782
-8.75 20 -49.52367864344343
-8.75 6.799517448822707 -76.66129210110432
8.75 6.799517448822677 -76.66129210110432
-2.991387234743613 14.98678709681 -78.3605451535972
2.991387234743649 14.98678709680999 -78.3605451535972
15.25989136032508 6.320853961786673 -78.85998609100324
11.67941520657515 11.67941520657517 -78.85998609100324
6.32085396178664 15.25989136032509 -78.85998609100324
-3.933168978975431e-14 16.51718738572515 -78.85998609100324
-6.320853961786706 15.25989136032506 -78.85998609100324
-11.67941520657518 11.67941520657514 -78.85998609100324
-15.25989136032508 6.320853961786647 -78.85998609100324
15.25989136032508 6.320853961786673 -81.14001390899676
11.67941520657515 11.67941520657517 -81.14001390899676
6.32085396178664 15.25989136032509 -81.14001390899676
-3.933168978975431e-14 16.51718738572515 -81.14001390899676
-6.320853961786706 15.25989136032506 -81.14001390899676
-11.67941520657518 11.67941520657514 -81.14001390899676
-15.25989136032508 6.320853961786647 -81.14001390899676
-8.75 6.799517448822746 -83.33870789889566
2.991387234743628 14.98678709681001 -81.6394548464028
-2.9913872347436 14.98678709681002 -81.6394548464028
8.75 6.799517448822716 -83.33870789889568
-8.75 20 -110.4763213565566
-8.75 20 -103.4921071188522
-8.75 20 -96.50789288114782
-8.75 20 -89.52367864344343
-8.75 10.56982184690617 -119.1535118647536
-8.75 15.28491092345309 -118.3070237295073
2.916666666666666 5.854732770359247 -120
-2.916666666666668 5.854732770359247 -120
8.75 20 -110.4763213565566
8.75 20 -103.4921071188522
8.75 20 -96.50789288114782
8.75 20 -89.52367864344343
8.75 10.56982184690617 -119.1535118647536
8.75 15.28491092345309 -118.3070237295073
8.75 20 -70.47632135655657
8.75 20 -63.49210711885221
8.75 20 -56.50789288114782
8.75 20 -49.52367864344343
2.916666666666666 20 -42.53946440573907
-2.916666666666668 20 -42.53946440573907
2.916666666666666 20 -37.46053559426093
-2.916666666666668 20 -37.46053559426093
2.916666666666666 20 -77.46053559426093
-2.916666666666668 20 -77.46053559426093
2.916666666666666 20 -82.53946440573907
-2.916666666666668 20 -82.53946440573907
2.916666666666666 20 -117.4605355942609
-2.916666666666668 20 -117.4605355942609
6.783857528827376e-15 5.790965438316094 -84.28168521080262
0 4.871029054886996 -84.28168521080262
7.939115629421644 4.871029054886996 -82.85656070429809
8.960272853011068 10.17531416712283 -81.14001390899676
3.231529889354195 13.16741138471295 -81.14001390899676
-3.231529889354234 13.16741138471294 -81.14001390899676
-8.960272853011098 10.1753141671228 -81.14001390899676
-7.939115629421657 4.871029054886996 -82.85656070429809
7.939115629421647 4.871029054886996 -77.14343929570191
1.77635683940025e-15 4.871029054886996 -75.71831478919738
-7.939115629421641 4.871029054886996 -77.14343929570191
8.960272853011068 10.17531416712283 -78.85998609100324
3.231529889354195 13.16741138471295 -78.85998609100324
-3.231529889354234 13.16741138471294 -78.85998609100324
-8.960272853011098 10.1753141671228 -78.85998609100324
6.783857528827376e-15 5.790965438316094 -75.71831478919739
6.783857528827376e-15 5.790965438316094 -44.28168521080261
0 4.871029054886996 -44.28168521080261
7.939115629421644 4.871029054886996 -42.85656070429808
8.960272853011068 10.17531416712283 -41.14001390899676
3.231529889354195 13.16741138471295 -41.14001390899676
-3.231529889354234 13.16741138471294 -41.14001390899676
-8.960272853011098 10.1753141671228 -41.14001390899676
-7.939115629421657 4.871029054886996 -42.85656070429808
7.939115629421647 4.871029054886996 -37.14343929570192
1.77635683940025e-15 4.871029054886996 -35.71831478919739
-7.939115629421641 4.871029054886996 -37.14343929570192
8.960272853011068 10.17531416712283 -38.85998609100324
3.231529889354195 13.16741138471295 -38.85998609100324
-3.231529889354234 13.16741138471294 -38.85998609100324
-8.960272853011098 10.1753141671228 -38.85998609100324
6.783857528827376e-15 5.790965438316094 -35.71831478919738
-4.358253738517473 0 -87.25821144323572
4.213509088410225 0 -72.5746518313579
4.213509088410219 0 -47.42534816864209
-3.668017197723523 0 -31.27846104468686
0 0 -115.5960081857603
-3.594505335364274 0 -99.16431637296819
-2.099959400366877 0 -38.2040964846305
3.868034788715657 0 -79.15720460487856
2.972560500209041 0 -60
-2.821456497211257 0 -4.118692473803456
2.770062649080441 0 -19.42794098479131
3.729898189029177 0 -92.91334961390358
3.436605483161738 0 -104.8590974376858
-3.305016035149772 0 -53.71267408432104
-3.305016035149769 0 -66.28732591567895
-3.083021644707792 0 -12.81549443675924
2.993759630058099 0 -31.97644820336514
-3.922066325491309 0 -80.88313749496361
3.71003481208558 0 -5.680474488128695
3.729168227475324 0 -42.02219507665176
1.93795534993845 0 -85.08205275371806
-2.070787410996689 0 -74.81747025226811
-0.8609844176665904 0 -44.49729256150943
-0.1983358226056886 0 -25.64127472205306
-10.08097429736334 0 -80.14718958249392
10.1963079247414 0 -79.85953410081309
-9.209238322230476 0 -40.04291515621872
9.331413267579089 0 -39.86702341064485
13.52659508495091 0 -39.97340468212897
-13.50216009588119 0 -40.00858303124374
-13.79659207296362 0 -80
13.69957401638337 0 -79.97190682016262
3.421586427123834 0 -53.38085297694592
-3.545144699994711 0 -60
3.421586427123828 0 -66.61914702305407
-3.830792501083988 0 -20.4176408808732
3.469451333528762 0 -12.03076179291358
-3.594505335364267 0 -105.1173688378345
-2.587969064385121 0 -93.51864477537265
3.227481199680449 0 -98.42600002868932
2.967589619180193 0 -110.7651552317883
-3.771262965125346 0 -111.5561630192274
4.250833820226206 0 -37.17248743745859
4.636085127552013 0 -88.44392341248441
4.879654769444274 0 -25.86831404532106
-5.03942910428264 0 -25.8286034704979
-4.611178595820472 0 -71.28872839381465
-4.483497680214334 0 -47.49457174226746
-0.7614800888137072 0 -8.310942659870335
-4.588366117620484 0 -115.8535415337983
4.500662074567998 0 -115.7176032545802
0.18410767613807 0 -89.63892586481947
-0.1800895329559014 0 -70.18954213841043
-0.1860222147924846 0 -49.67814060970172
-4.833191646146552 0 -7.557758505654505
-5.080735964095655 0 -42.90411223108574
-11.82192263275959 3.793436495006338 -42.79900910354934
8.75 5.119551382486511 -19.49381010007656
8.75 13.98912204995779 -27.26199537702509
8.75 9.852793247065907 -9.146154327386739
8.75 14.66786092030457 -20.16077881340188
8.75 6.572078704351559 -26.62972307739652
8.75 14.86442615870949 -13.28945350679962
8.75 4.875170984298631 -12.97651189848747
8.75 10.36806818753634 -32.43671281290389
8.75 4.949869630647715 -31.66705636140819
8.75 15.15987631707013 -7.903556877944343
8.75 4.772654808423038 -7.738208424434987
8.75 9.940410893786852 -16.45717166711814
8.75 10.11633561294276 -22.47944596401876
8.75 15.54876493905499 -33.27509776193408
10.25 3.104166666666673 -3
-10.25 3.104166666666674 -3
11.75 20.125 -1.5
11.75 14.37499999999999 -1.5
11.75 8.624999999999989 -1.5
11.75 2.874999999999994 -1.5
-2.707174061168086 4.878797530676509 0
3.157610638484558 18.22886740495932 0
7.069955745470663 8.71654637064 0
-6.619519168154188 14.39111856499582 0
7.102873022115113 14.37499999999999 0
0.1126091443291184 11.52691623390895 0
-7.000954855602265 8.644857627020135 0
-2.792058517349997 18.15992185565015 0
2.948495529093417 4.721447277005962 0
-7.528051718759411 18.81262893003678 0
7.528051718759418 4.187371069963205 0
7.820492259183634 19.07601590637069 0
-7.553981076842909 4.160878030182232 0
-11.75 20.125 -1.5
-11.75 14.37499999999999 -1.5
-11.75 8.624999999999988 -1.5
-11.75 2.874999999999994 -1.5
-8.75 5.11955138248651 -19.4938101000766
-8.75 13.98912204995779 -27.26199537702508
-8.75 9.852793247065913 -9.146154327386752
-8.75 14.66786092030457 -20.16077881340187
-8.75 6.572078704351554 -26.62972307739654
-8.75 14.86442615870949 -13.28945350679962
-8.75 4.875170984298636 -12.9765118984875
-8.75 10.36806818753633 -32.43671281290389
-8.75 4.949869630647705 -31.66705636140821
-8.75 15.15987631707012 -7.903556877944341
-8.75 4.772654808423051 -7.738208424435008
-8.75 9.940410893786851 -16.45717166711815
-8.75 10.11633561294275 -22.47944596401876
-8.75 15.54876493905499 -33.27509776193407
-8.75 5.44498396485023 -60
-8.75 13.90820459701291 -67.20446663658477
-8.75 13.90820459701291 -52.79553336341525
-8.75 14.12585666123579 -60.00000000000002
-8.75 6.541917145260244 -53.19716035826691
-8.75 6.541917145260244 -66.80283964173309
-8.75 10.32673655687267 -72.48641980658245
-8.75 10.32673655687267 -47.51358019341755
-8.75 4.857959229535157 -71.78629299181694
-8.75 4.857959229535156 -48.21370700818306
-8.75 9.970200242218022 -57.01411273791133
-8.75 9.977439619112674 -62.83505440680814
-8.75 15.52431512233329 -73.25511198881128
-8.75 15.52431512233328 -46.74488801118872
-11.82192263275957 3.793436495006389 -82.79900910354935
-8.75 5.174462367857222 -93.12287829960771
-8.75 5.07852913236191 -105.6811746006369
-8.75 12.19428615605417 -114.6468808757343
-8.75 14.46389516188153 -100.0458707975642
-8.75 10.55526693036575 -88.58677757972374
-8.75 14.82255843573753 -108.0353115537999
-8.75 4.258122342929711 -111.7440541863695
-8.75 4.992644752415176 -99.46876381759471
-8.75 15.17224906403676 -92.81393026116758
-8.75 7.644661826993069 -115.4488976380093
-8.75 16.93954226732697 -113.9684284754087
-8.75 4.505849349409143 -87.91295733293971
-8.75 10.07584371348783 -96.2550546457517
-8.75 2.927366385179624 -117.0234737675669
-8.75 10.09654400437053 -103.4921071188522
-8.75 16.25567494022599 -86.2740838484691
-8.75 9.315171595680678 -109.9225645588235
5.833333333333333 2.927366385179623 -120
0 2.927366385179623 -120
-5.833333333333334 2.927366385179623 -120
8.75 5.174462367857219 -93.12287829960771
8.75 5.07852913236191 -105.6811746006369
8.75 12.19428615605417 -114.6468808757343
8.75 14.46389516188154 -100.0458707975642
8.75 10.55526693036573 -88.58677757972376
8.75 14.82255843573753 -108.0353115537999
8.75 4.258122342929711 -111.7440541863695
8.75 4.992644752415176 -99.46876381759471
8.75 15.17224906403675 -92.8139302611676
8.75 7.644661826993069 -115.4488976380093
8.75 16.93954226732697 -113.9684284754087
8.75 4.505849349409131 -87.91295733293973
8.75 10.07584371348782 -96.2550546457517
8.75 2.927366385179624 -117.0234737675669
8.75 10.09654400437053 -103.4921071188522
8.75 16.25567494022597 -86.2740838484691
8.75 9.315171595680678 -109.9225645588235
8.75 5.44498396485023 -60
8.75 13.9082045970129 -67.20446663658477
8.75 13.90820459701291 -52.79553336341525
8.75 14.12585666123579 -60.00000000000002
8.75 6.541917145260244 -53.19716035826691
8.75 6.541917145260236 -66.80283964173309
8.75 10.32673655687267 -47.51358019341755
8.75 10.32673655687265 -72.48641980658245
8.75 4.85795922953515 -71.78629299181694
8.75 4.857959229535156 -48.21370700818306
8.75 9.970200242218022 -57.01411273791133
8.75 9.977439619112673 -62.83505440680814
8.75 15.52431512233327 -73.25511198881128
8.75 15.52431512233329 -46.74488801118872
1.77635683940025e-15 17.493393548405 -42.08945962607093
-5.846676291918502 17.2195306622159 -42.04029370787089
5.846676291918504 17.2195306622159 -42.04029370787089
0 17.49339354840501 -37.91054037392907
5.846676291918508 17.2195306622159 -37.95970629212911
-5.846676291918509 17.2195306622159 -37.95970629212911
-0.04893590073317178 20 -32.77191155335034
-0.04893590073317355 20 -7.688624040910593
2.781260149470438 20 -20.23026779713048
3.790539411473709 20 -12.41899695272654
3.790539411473709 20 -28.04153864153441
-3.32242111322835 20 -26.98782063192548
-3.322421113228351 20 -13.47271496233545
-4.27271641539725 20 -20.23026779713047
4.83165403548144 20 -7.199945622497868
-4.757604736125638 20 -33.04984636984128
-4.757604736125638 20 -7.410689224419642
4.83165403548144 20 -33.26058997176307
8.812499999999986 23 -1.5
2.937499999999966 23 -1.5
-8.812500000000007 23 -1.5
-2.937500000000027 23 -1.5
-0.07703227617967912 20 -72.73246918631102
-0.07703227617968267 20 -47.267530813689
3.606794969026211 20 -60.00000000000001
2.841935732962287 20 -53.19235137502388
2.841935732962289 20 -66.80764862497614
-4.020856411808348 20 -67.91282912701746
-4.020856411808349 20 -52.08717087298258
-3.106588135561886 20 -60.00000000000002
-4.902911070930939 20 -46.79146182831863
4.636314024689853 20 -47.01249792872689
-4.902911070930939 20 -73.20853817168138
4.636314024689855 20 -72.98750207127311
1.06581410364015e-14 17.493393548405 -77.91054037392907
-5.846676291918502 17.2195306622159 -77.95970629212911
5.846676291918511 17.2195306622159 -77.95970629212911
7.105427357601002e-15 17.49339354840501 -82.08945962607093
-5.846676291918495 17.2195306622159 -82.04029370787089
5.846676291918504 17.2195306622159 -82.04029370787089
-0.07703227617968444 20 -87.26753081368899
-0.07703227617967912 20 -112.732469186311
3.968915738766678 20 -100
2.893667271496638 20 -93.19235137502389
2.893667271496642 20 -106.8076486249761
-4.01223448871929 20 -107.9128291270175
-4.01223448871929 20 -92.08717087298257
-2.891348429254403 20 -100
-4.901186686313128 20 -113.2085381716814
-4.901186686313128 20 -86.79146182831863
4.646660332396724 20 -87.01249792872689
4.646660332396726 20 -112.9875020712731
-4.861111111111109 12.92736638517963 -118.7302677971305
4.861111111111111 12.92736638517963 -118.7302677971305
1.77635683940025e-15 9.940717040207721 -119.2664534754107
1.77635683940025e-15 15.86862296200287 -118.2022313688517
5.055555555555555 16.81618005412712 -118.0321188168023
-5.055555555555555 16.81618005412712 -118.0321188168023
-5.055555555555555 9.029474162602403 -119.430046627459
5.055555555555555 9.029474162602403 -119.430046627459
2.300524490825871 8.409116380737588 -83.09770916972181
-2.575389937204436 8.835973251867953 -82.90132540979947
1.565048909063599 4.871029054886996 -79.01351288238949
-4.74156105262934 4.871029054886996 -80.26732240155232
10.29602175490886 4.871029054886996 -80
-10.29602175490886 4.871029054886996 -80
4.693414943596629 4.871029054886996 -80.72866090491792
-1.124893792306828 4.871029054886996 -80.12092817211642
1.653079932414954 4.871029054886996 -81.68529447620581
2.300524490819452 8.409116380740857 -76.90229083027879
-2.575389937203927 8.835973251870691 -77.09867459020154
2.300524490825866 8.409116380737583 -43.09770916972181
-2.575389937204436 8.835973251867951 -42.90132540979947
1.565048909063599 4.871029054886996 -39.01351288238949
-4.74156105262934 4.871029054886996 -40.26732240155231
10.29602175490886 4.871029054886996 -40
-10.29602175490886 4.871029054886996 -40
4.693414943596629 4.871029054886996 -40.72866090491792
-1.124893792306828 4.871029054886996 -40.12092817211643
1.653079932414954 4.871029054886996 -41.68529447620581
2.300524490819451 8.409116380740853 -36.90229083027878
-2.57538993720393 8.835973251870687 -37.09867459020153
1.77635683940025e-15 11.0304629533128 -59.9232694487146
0.4633783901061681 8.280611738896873 -92.76865620626211
0 10.24942072123973 -27.31162071883088
0.1918999335382317 11.43646992159787 -110.5562075271205
-0.01159503256019356 7.927753730952851 -67.37384105306965
0.6069546690863444 7.828367840878593 -52.29754723016923
0 11.0607096433374 -12.78771194757921
0.8463147027236593 7.695429524038241 -101.289090278568
1.731947918415244e-14 13.49327441333539 -72.77784925835257
2.978895637718364e-15 13.4932744133354 -47.22215074164741
1.199040866595169e-14 13.49327441333542 -87.2221507416474
-1.595646353895877 8.257800689384313 -19.91575788217698
3.108624468950438e-15 13.50793325573009 -32.85950161090445
-1.174159365062537 5.449695189454505 -29.76993794352401
-1.860110757229309 7.10065729884195 -6.921231378604914
2.695092726941051 6.110800943454061 -113.4507627665622
2.231617971867253 13.98640152299839 -5.848898676401747
-3.168303090095965 6.09219612644311 -108.9052873499297

CELLS 2851 12511
1 0
1 1
1 2
1 3
1 4
1 5
1 6
1 7
1 8
1 9
1 10
1 11
1 12
1 13
1 14
1 15
1 16
1 17
1 18
1 19
1 20
1 21
1 22
1 23
1 24
1 25
1 26
1 27
1 28
1 29
1 30
1 31
1 32
1 33
1 34
1 35
1 36
1 37
1 38
1 39
1 40
1 41
1 42
1 43
1 44
1 45
1 46
1 47
1 48
1 49
1 50
1 51
1 52
1 53
1 54
1 55
1 56
1 57
1 58
1 59
1 60
1 61
1 62
1 63
1 64
1 65
2 0 66
2 66 1
2 1 2
2 2 67
2 67 3
2 3 68
2 68 69
2 69 70
2 70 71
2 71 4
2 4 5
2 5 6
2 6 72
2 72 73
2 73 74
2 74 7
2 8 7
2 8 9
2 9 75
2 75 76
2 76 77
2 77 78
2 78 10
2 11 79
2 79 10
2 12 11
2 13 80
2 80 12
2 13 81
2 81 82
2 82 83
2 83 84
2 84 14
2 15 85
2 85 14
2 16 15
2 17 86
2 86 16
2 17 87
2 87 88
2 88 89
2 89 90
2 90 91
2 91 18
2 19 92
2 92 93
2 93 18
2 20 94
2 94 95
2 95 96
2 96 97
2 97 98
2 98 19
2 20 99
2 99 21
2 21 22
2 22 100
2 100 23
2 0 101
2 101 102
2 102 103
2 103 104
2 104 23
2 1 105
2 105 106
2 106 107
2 107 108
2 108 109
2 109 110
2 110 111
2 111 12
2 24 112
2 112 13
2 25 113
2 113 114
2 114 24
2 25 115
2 115 0
2 2 116
2 116 117
2 117 118
2 118 119
2 119 120
2 120 121
2 121 122
2 122 11
2 3 123
2 123 26
2 27 124
2 124 125
2 125 26
2 10 126
2 126 27
2 28 127
2 127 128
2 128 4
2 29 129
2 129 130
2 130 131
2 131 132
2 132 28
2 26 29
2 31 133
2 133 134
2 134 135
2 135 30
2 5 136
2 136 137
2 137 138
2 138 30
2 32 139
2 139 140
2 140 28
2 32 141
2 141 142
2 142 9
2 8 143
2 143 144
2 144 145
2 145 31
2 6 146
2 146 147
2 147 148
2 148 33
2 30 33
2 34 149
2 149 150
2 150 151
2 151 33
2 7 152
2 152 153
2 153 154
2 154 34
2 31 34
2 32 155
2 155 156
2 156 157
2 157 158
2 158 35
2 27 35
2 36 24
2 37 159
2 159 160
2 160 161
2 161 162
2 162 36
2 38 37
2 14 163
2 163 38
2 23 164
2 164 39
2 38 165
2 165 166
2 166 39
2 22 167
2 167 168
2 168 169
2 169 170
2 170 171
2 171 172
2 172 173
2 173 15
2 21 174
2 174 175
2 175 176
2 176 177
2 177 178
2 178 179
2 179 180
2 180 16
2 40 181
2 181 17
2 41 182
2 182 183
2 183 40
2 41 184
2 184 20
2 42 40
2 43 185
2 185 186
2 186 187
2 187 188
2 188 42
2 44 189
2 189 190
2 190 43
2 18 44
2 45 191
2 191 192
2 192 44
2 19 45
2 46 41
2 47 193
2 193 194
2 194 195
2 195 196
2 196 46
2 45 197
2 197 198
2 198 47
2 48 25
2 49 199
2 199 200
2 200 201
2 201 202
2 202 48
2 39 49
2 48 203
2 203 204
2 204 36
2 29 205
2 205 206
2 206 35
2 49 207
2 207 208
2 208 37
2 46 209
2 209 210
2 210 42
2 47 211
2 211 212
2 212 43
2 50 213
2 213 51
2 51 214
2 214 50
2 50 215
2 215 52
2 52 216
2 216 217
2 217 218
2 218 219
2 219 53
2 53 220
2 220 51
2 52 54
2 54 221
2 221 55
2 55 222
2 222 56
2 56 223
2 223 57
2 53 57
2 54 224
2 224 225
2 225 226
2 226 227
2 227 57
2 55 228
2 228 56
2 58 229
2 229 59
2 59 230
2 230 58
2 58 231
2 231 60
2 60 232
2 232 233
2 233 234
2 234 235
2 235 61
2 61 236
2 236 59
2 60 62
2 62 237
2 237 63
2 63 238
2 238 64
2 64 239
2 239 65
2 61 65
2 62 240
2 240 241
2 241 242
2 242 243
2 243 65
2 63 244
2 244 64
3 66 272 0
3 0 247 101
3 0 264 247
3 0 272 264
3 2 273 1
3 1 273 66
3 67 273 2
3 3 272 67
3 68 261 3
3 261 287 3
3 3 287 272
3 5 6 4
3 4 6 72
3 4 263 71
3 72 263 4
3 8 9 7
3 7 9 74
3 9 254 74
3 75 299 9
3 9 299 254
3 10 248 78
3 79 271 10
3 10 251 248
3 10 271 251
3 12 274 11
3 11 274 79
3 80 274 12
3 13 271 80
3 81 292 13
3 13 300 271
3 292 300 13
3 14 291 84
3 85 269 14
3 262 266 14
3 14 269 262
3 266 291 14
3 16 275 15
3 15 275 85
3 86 275 16
3 17 269 86
3 87 245 17
3 245 262 17
3 262 269 17
3 18 294 91
3 93 294 18
3 19 295 92
3 98 295 19
3 20 288 94
3 99 270 20
3 252 265 20
3 20 270 252
3 265 288 20
3 22 276 21
3 21 276 99
3 100 276 22
3 23 270 100
3 104 246 23
3 246 252 23
3 252 270 23
3 66 273 272
3 272 273 67
3 69 289 68
3 68 289 261
3 70 255 69
3 255 289 69
3 71 281 70
3 70 281 255
3 263 281 71
3 73 263 72
3 74 254 73
3 254 263 73
3 76 260 75
3 260 299 75
3 77 280 76
3 76 280 260
3 78 290 77
3 77 290 280
3 248 290 78
3 79 274 271
3 271 274 80
3 82 258 81
3 258 292 81
3 83 278 82
3 82 278 258
3 84 259 83
3 259 278 83
3 84 291 259
3 85 275 269
3 269 275 86
3 88 283 87
3 87 283 245
3 89 250 88
3 250 283 88
3 90 282 89
3 89 282 250
3 91 286 90
3 90 286 282
3 91 294 286
3 92 249 93
3 92 295 249
3 249 294 93
3 94 256 95
3 94 288 256
3 95 284 96
3 256 284 95
3 96 257 97
3 96 284 257
3 97 285 98
3 257 285 97
3 285 295 98
3 99 276 270
3 270 276 100
3 101 277 102
3 247 277 101
3 102 253 103
3 102 277 253
3 103 279 104
3 253 279 103
3 104 279 246
3 245 265 262
3 245 296 265
3 283 296 245
3 246 266 252
3 246 297 266
3 279 297 246
3 264 267 247
3 267 298 247
3 247 298 277
3 251 261 248
3 261 268 248
3 268 290 248
3 285 286 249
3 249 295 285
3 286 294 249
3 250 282 257
3 257 284 250
3 250 284 283
3 251 287 261
3 251 267 264
3 264 287 251
3 251 300 267
3 271 300 251
3 262 265 252
3 252 266 262
3 253 277 258
3 258 278 253
3 253 278 259
3 259 279 253
3 254 293 263
3 254 299 293
3 260 280 255
3 255 281 260
3 255 280 268
3 268 289 255
3 283 284 256
3 256 296 283
3 288 296 256
3 282 285 257
3 277 298 258
3 258 298 292
3 259 297 279
3 291 297 259
3 281 293 260
3 293 299 260
3 261 289 268
3 263 293 281
3 272 287 264
3 265 296 288
3 266 297 291
3 292 298 267
3 267 300 292
3 280 290 268
3 282 286 285
3 66 0 115
3 115 1 66
3 115 105 1
3 12 301 80
3 111 301 12
3 80 301 13
3 13 301 112
3 109 24 110
3 109 114 24
3 112 110 24
3 106 25 107
3 106 115 25
3 113 107 25
3 106 105 115
3 108 107 113
3 109 108 114
3 108 113 114
3 111 110 112
3 112 301 111
3 1 116 2
3 1 105 116
3 111 12 11
3 111 11 122
3 105 106 116
3 106 107 118
3 116 106 117
3 106 118 117
3 107 108 118
3 119 108 109
3 118 108 119
3 109 110 121
3 119 109 120
3 109 121 120
3 110 111 122
3 121 110 122
3 2 123 67
3 116 123 2
3 67 123 3
3 126 79 10
3 126 11 79
3 126 122 11
3 117 118 26
3 117 26 123
3 26 118 125
3 120 121 27
3 120 27 124
3 27 121 126
3 117 123 116
3 125 118 119
3 120 124 119
3 124 125 119
3 126 121 122
3 3 310 68
3 123 310 3
3 71 312 4
3 4 312 128
3 29 315 26
3 26 309 123
3 26 315 309
3 127 311 28
3 28 311 132
3 129 315 29
3 68 306 69
3 68 310 306
3 69 302 70
3 69 306 302
3 70 308 71
3 302 308 70
3 308 312 71
3 309 310 123
3 128 304 127
3 304 311 127
3 128 312 304
3 130 303 129
3 303 315 129
3 131 305 130
3 130 305 303
3 132 307 131
3 131 307 305
3 132 311 307
3 306 314 302
3 302 313 308
3 302 314 313
3 305 314 303
3 306 309 303
3 303 314 306
3 309 315 303
3 307 311 304
3 304 313 307
3 304 312 308
3 308 313 304
3 307 313 305
3 313 314 305
3 306 310 309
3 5 4 316
3 4 128 316
3 136 5 316
3 9 8 317
3 8 143 317
3 142 9 317
3 135 30 28
3 30 138 28
3 138 127 28
3 140 135 28
3 31 133 32
3 145 31 32
3 133 139 32
3 145 32 141
3 137 128 127
3 138 137 127
3 137 136 128
3 128 136 316
3 134 139 133
3 140 134 135
3 140 139 134
3 144 141 142
3 144 145 141
3 143 144 142
3 143 142 317
3 5 321 6
3 136 321 5
3 6 321 146
3 33 318 30
3 30 318 138
3 148 318 33
3 137 320 136
3 136 320 146
3 146 321 136
3 138 319 137
3 137 319 147
3 147 320 137
3 138 318 148
3 148 319 138
3 146 320 147
3 147 319 148
3 6 332 72
3 146 332 6
3 74 334 7
3 7 334 152
3 33 333 148
3 151 333 33
3 34 331 149
3 154 331 34
3 72 330 73
3 72 332 330
3 73 322 74
3 73 330 322
3 322 334 74
3 147 324 146
3 324 332 146
3 148 326 147
3 147 326 324
3 148 333 326
3 149 329 150
3 149 331 329
3 150 323 151
3 150 329 323
3 323 333 151
3 152 328 153
3 152 334 328
3 153 325 154
3 153 328 325
3 325 331 154
3 327 328 322
3 322 330 327
3 328 334 322
3 323 327 326
3 326 333 323
3 323 329 327
3 326 327 324
3 327 330 324
3 330 332 324
3 325 328 327
3 327 329 325
3 329 331 325
3 8 7 338
3 7 152 338
3 143 8 338
3 34 31 335
3 31 145 335
3 154 34 335
3 144 143 337
3 143 152 337
3 152 143 338
3 145 144 336
3 144 153 336
3 153 144 337
3 145 154 335
3 154 145 336
3 152 153 337
3 153 154 336
3 75 9 349
3 9 142 349
3 10 78 347
3 126 10 347
3 35 27 352
3 27 126 346
3 27 346 352
3 141 32 348
3 32 155 348
3 158 35 352
3 76 75 345
3 345 75 349
3 77 76 339
3 339 76 345
3 78 77 343
3 77 339 343
3 78 343 347
3 346 126 347
3 142 141 341
3 341 141 348
3 142 341 349
3 155 156 344
3 155 344 348
3 156 157 342
3 156 342 344
3 157 158 340
3 157 340 342
3 340 158 352
3 343 339 351
3 339 345 350
3 339 350 351
3 342 340 351
3 343 340 346
3 340 343 351
3 346 340 352
3 344 341 348
3 341 344 350
3 341 345 349
3 345 341 350
3 344 342 350
3 350 342 351
3 343 346 347
3 81 13 362
3 13 112 362
3 14 84 361
3 163 14 361
3 24 36 366
3 112 24 360
3 360 24 366
3 36 162 366
3 37 38 365
3 159 37 365
3 38 163 359
3 38 359 365
3 82 81 357
3 357 81 362
3 83 82 353
3 353 82 357
3 84 83 358
3 83 353 358
3 84 358 361
3 112 360 362
3 160 159 354
3 354 159 365
3 161 160 356
3 160 354 356
3 162 161 355
3 355 161 356
3 162 355 366
3 359 163 361
3 353 357 363
3 358 353 364
3 353 363 364
3 356 354 364
3 358 354 359
3 354 358 364
3 359 354 365
3 355 356 363
3 355 357 360
3 357 355 363
3 355 360 366
3 363 356 364
3 360 357 362
3 358 359 361
3 163 85 14
3 163 15 85
3 163 173 15
3 22 164 100
3 167 164 22
3 100 164 23
3 38 172 163
3 171 38 165
3 171 172 38
3 168 39 164
3 39 169 166
3 168 169 39
3 163 172 173
3 168 164 167
3 165 166 170
3 171 165 170
3 166 169 170
3 180 16 15
3 173 180 15
3 21 167 22
3 21 174 167
3 167 175 168
3 174 175 167
3 168 176 169
3 168 175 176
3 169 177 170
3 176 177 169
3 170 177 171
3 171 179 172
3 177 178 171
3 178 179 171
3 172 179 173
3 179 180 173
3 16 367 86
3 180 367 16
3 86 367 17
3 17 367 181
3 99 20 184
3 184 21 99
3 184 174 21
3 178 40 179
3 178 183 40
3 181 179 40
3 175 41 176
3 175 184 41
3 182 176 41
3 175 174 184
3 177 176 182
3 178 177 183
3 177 182 183
3 180 179 181
3 181 367 180
3 87 17 379
3 17 181 379
3 44 18 381
3 18 91 381
3 40 42 383
3 181 40 372
3 372 40 383
3 42 188 383
3 185 43 378
3 43 190 378
3 189 44 377
3 377 44 381
3 88 87 368
3 368 87 379
3 89 88 375
3 88 368 375
3 90 89 369
3 369 89 375
3 91 90 374
3 90 369 374
3 91 374 381
3 181 372 379
3 186 185 373
3 373 185 378
3 187 186 371
3 371 186 373
3 188 187 376
3 187 371 376
3 188 376 383
3 190 189 370
3 370 189 377
3 190 370 378
3 372 368 379
3 368 372 380
3 375 368 380
3 374 369 384
3 369 375 382
3 369 382 384
3 370 373 378
3 373 370 384
3 370 377 384
3 371 373 382
3 376 371 380
3 380 371 382
3 372 376 380
3 376 372 383
3 382 373 384
3 374 377 381
3 377 374 384
3 375 380 382
3 44 387 18
3 18 387 93
3 19 385 45
3 92 385 19
3 192 387 44
3 45 385 191
3 93 386 92
3 92 386 385
3 93 387 386
3 191 386 192
3 385 386 191
3 386 387 192
3 45 401 19
3 19 401 98
3 94 399 20
3 20 399 184
3 41 403 46
3 184 392 41
3 392 403 41
3 197 397 45
3 397 401 45
3 46 403 196
3 193 398 47
3 47 398 198
3 95 388 94
3 388 399 94
3 96 395 95
3 95 395 388
3 97 389 96
3 389 395 96
3 98 394 97
3 97 394 389
3 98 401 394
3 184 399 392
3 194 393 193
3 393 398 193
3 195 391 194
3 391 393 194
3 196 396 195
3 195 396 391
3 196 403 396
3 198 390 197
3 390 397 197
3 198 398 390
3 392 399 388
3 388 400 392
3 395 400 388
3 394 404 389
3 389 402 395
3 389 404 402
3 390 398 393
3 393 404 390
3 390 404 397
3 391 402 393
3 396 400 391
3 400 402 391
3 392 400 396
3 396 403 392
3 402 404 393
3 394 401 397
3 397 404 394
3 395 402 400
3 101 414 0
3 0 414 115
3 23 413 104
3 164 413 23
3 25 418 48
3 115 411 25
3 411 418 25
3 49 417 39
3 39 412 164
3 39 417 412
3 48 418 202
3 199 417 49
3 102 409 101
3 409 414 101
3 103 405 102
3 405 409 102
3 104 410 103
3 103 410 405
3 104 413 410
3 115 414 411
3 412 413 164
3 200 406 199
3 406 417 199
3 201 408 200
3 200 408 406
3 202 407 201
3 407 408 201
3 202 418 407
3 405 415 409
3 410 416 405
3 405 416 415
3 408 416 406
3 410 412 406
3 406 416 410
3 412 417 406
3 407 415 408
3 407 411 409
3 409 415 407
3 407 418 411
3 415 416 408
3 411 414 409
3 410 413 412
3 24 420 36
3 114 420 24
3 48 421 25
3 25 421 113
3 36 420 204
3 203 421 48
3 113 419 114
3 203 419 113
3 113 421 203
3 114 419 204
3 204 420 114
3 204 419 203
3 26 423 29
3 125 423 26
3 35 424 27
3 27 424 124
3 29 423 205
3 206 424 35
3 124 422 125
3 206 422 124
3 124 424 206
3 125 422 205
3 205 423 125
3 205 422 206
3 132 433 28
3 28 433 140
3 29 436 129
3 205 436 29
3 139 435 32
3 32 435 155
3 158 434 35
3 35 434 206
3 129 429 130
3 129 436 429
3 130 427 131
3 130 429 427
3 131 428 132
3 427 428 131
3 428 433 132
3 140 426 139
3 426 435 139
3 140 433 426
3 155 431 156
3 155 435 431
3 156 432 157
3 431 432 156
3 157 430 158
3 157 432 430
3 430 434 158
3 206 425 205
3 425 436 205
3 206 434 425
3 425 430 429
3 429 436 425
3 425 434 430
3 428 431 426
3 426 433 428
3 431 435 426
3 427 431 428
3 429 430 427
3 430 432 427
3 427 432 431
3 30 437 33
3 135 437 30
3 34 439 31
3 31 439 133
3 33 437 151
3 149 439 34
3 133 440 134
3 133 439 149
3 149 440 133
3 134 438 135
3 150 438 134
3 134 440 150
3 151 437 135
3 135 438 151
3 150 440 149
3 151 438 150
3 36 449 162
3 204 449 36
3 159 451 37
3 37 451 208
3 202 450 48
3 48 450 203
3 49 452 199
3 207 452 49
3 160 446 159
3 446 451 159
3 161 448 160
3 160 448 446
3 162 447 161
3 447 448 161
3 162 449 447
3 199 445 200
3 199 452 445
3 200 443 201
3 200 445 443
3 201 444 202
3 443 444 201
3 444 450 202
3 203 442 204
3 203 450 442
3 442 449 204
3 208 441 207
3 441 452 207
3 208 451 441
3 441 446 445
3 445 452 441
3 441 451 446
3 444 447 442
3 442 450 444
3 447 449 442
3 443 448 444
3 445 448 443
3 444 448 447
3 446 448 445
3 37 454 38
3 208 454 37
3 38 454 165
3 39 455 49
3 166 455 39
3 49 455 207
3 165 453 166
3 208 453 165
3 165 454 208
3 166 453 207
3 207 455 166
3 207 453 208
3 40 457 42
3 183 457 40
3 46 458 41
3 41 458 182
3 42 457 210
3 209 458 46
3 182 456 183
3 209 456 182
3 182 458 209
3 183 456 210
3 210 457 183
3 210 456 209
3 42 468 188
3 210 468 42
3 185 467 43
3 43 467 212
3 196 469 46
3 46 469 209
3 47 470 193
3 211 470 47
3 186 464 185
3 464 467 185
3 187 466 186
3 186 466 464
3 188 465 187
3 465 466 187
3 188 468 465
3 193 463 194
3 193 470 463
3 194 461 195
3 194 463 461
3 195 462 196
3 461 462 195
3 462 469 196
3 209 459 210
3 209 469 459
3 459 468 210
3 212 460 211
3 460 470 211
3 212 467 460
3 462 465 459
3 459 469 462
3 465 468 459
3 460 464 463
3 463 470 460
3 460 467 464
3 461 466 462
3 463 466 461
3 462 466 465
3 464 466 463
3 43 476 190
3 212 476 43
3 189 477 44
3 44 477 192
3 191 478 45
3 45 478 197
3 198 475 47
3 47 475 211
3 190 471 189
3 471 477 189
3 190 476 471
3 192 473 191
3 473 478 191
3 192 477 473
3 197 472 198
3 197 478 472
3 472 475 198
3 211 474 212
3 211 475 474
3 474 476 212
3 471 474 473
3 473 477 471
3 471 476 474
3 473 474 472
3 472 478 473
3 474 475 472
3 213 214 50
3 214 213 51
3 213 50 479
3 50 215 479
3 51 213 480
3 220 51 480
3 52 216 215
3 219 53 220
3 213 479 480
3 215 216 479
3 216 217 479
3 217 218 480
3 479 217 480
3 218 219 480
3 219 220 480
3 214 487 50
3 50 485 215
3 50 487 485
3 51 486 214
3 220 482 51
3 482 486 51
3 52 483 54
3 215 483 52
3 57 484 53
3 53 484 220
3 54 483 221
3 221 485 55
3 55 481 222
3 55 485 481
3 222 486 56
3 56 482 223
3 56 486 482
3 223 484 57
3 486 487 214
3 221 483 215
3 215 485 221
3 223 482 220
3 220 484 223
3 481 486 222
3 485 487 481
3 481 487 486
3 52 54 216
3 227 57 53
3 227 53 219
3 54 224 216
3 216 224 217
3 217 226 218
3 224 225 217
3 225 226 217
3 218 227 219
3 226 227 218
3 54 221 224
3 221 55 488
3 55 228 488
3 56 223 489
3 228 56 489
3 227 223 57
3 224 221 488
3 223 227 489
3 225 224 488
3 226 225 489
3 225 488 489
3 227 226 489
3 488 228 489
3 222 228 55
3 228 222 56
3 229 230 58
3 230 229 59
3 229 58 490
3 58 231 490
3 59 229 491
3 236 59 491
3 60 232 231
3 235 61 236
3 229 490 491
3 231 232 490
3 232 233 490
3 233 234 491
3 490 233 491
3 234 235 491
3 235 236 491
3 230 498 58
3 58 496 231
3 58 498 496
3 59 497 230
3 236 493 59
3 493 497 59
3 60 494 62
3 231 494 60
3 65 495 61
3 61 495 236
3 62 494 237
3 237 496 63
3 63 492 238
3 63 496 492
3 238 497 64
3 64 493 239
3 64 497 493
3 239 495 65
3 497 498 230
3 237 494 231
3 231 496 237
3 239 493 236
3 236 495 239
3 492 497 238
3 496 498 492
3 492 498 497
3 62 232 60
3 243 65 61
3 235 243 61
3 62 240 232
3 232 241 233
3 240 241 232
3 241 234 233
3 234 243 235
3 241 242 234
3 234 242 243
3 62 237 240
3 237 63 499
3 63 244 499
3 64 239 500
3 244 64 500
3 243 239 65
3 240 237 499
3 239 243 500
3 241 240 499
3 242 241 500
3 241 499 500
3 243 242 500
3 499 244 500
3 238 244 63
3 244 238 64
4 213 214 51 502
4 461 502 466 508
4 466 382 504 508
4 50 214 213 502
4 464 382 373 504
4 380 371 502 508
4 305 503 314 512
4 308 281 507 512
4 477 377 192 518
4 296 214 50 502
4 464 466 382 504
4 353 501 278 505
4 353 278 501 506
4 466 502 371 508
4 353 501 363 506
4 229 230 59 506
4 364 501 353 505
4 432 342 503 512
4 245 379 51 502
4 228 56 222 505
4 308 507 313 512
4 466 371 382 508
4 297 222 56 505
4 378 476 467 504
4 298 59 230 506
4 447 355 501 506
4 354 446 501 505
4 461 462 466 502
4 465 376 466 502
4 308 313 302 512
4 432 507 342 512
4 192 377 294 518
4 463 504 402 508
4 296 50 288 502
4 292 59 298 506
4 373 371 382 464
4 312 507 308 515
4 477 192 516 518
4 477 504 377 518
4 353 363 357 506
4 404 504 389 508
4 342 351 503 512
4 466 504 463 508
4 473 477 192 516
4 474 467 476 504
4 364 353 358 505
4 306 503 289 512
4 480 213 51 502
4 355 506 447 510
4 268 289 503 512
4 297 56 291 505
4 399 288 50 502
4 354 501 364 505
4 363 501 355 506
4 292 362 59 506
4 56 361 291 505
4 389 504 404 516
4 473 504 477 516
4 305 313 507 512
4 404 389 402 508
4 302 306 289 512
4 312 308 281 515
4 310 309 63 503
4 348 435 139 517
4 446 505 354 509
4 400 396 462 502
4 306 314 503 512
4 306 302 314 512
4 391 461 463 508
4 432 503 427 512
4 360 59 362 506
4 416 405 501 505
4 308 507 281 515
4 56 359 361 505
4 415 501 405 506
4 342 351 340 503
4 305 303 314 503
4 305 427 503 512
4 58 230 229 506
4 466 382 371 464
4 63 310 503 514
4 308 255 281 512
4 466 463 461 508
4 471 474 476 504
4 473 471 477 504
4 377 477 370 504
4 178 177 165 183
4 107 125 108 113
4 406 416 501 505
4 305 507 427 512
4 391 463 402 508
4 294 377 374 518
4 305 314 313 512
4 312 304 308 507
4 379 372 51 502
4 407 501 415 506
4 432 427 507 512
4 55 228 222 505
4 112 24 110 235
4 504 508 382 518
4 294 249 192 516
4 475 398 470 504
4 476 370 471 504
4 308 302 255 512
4 229 59 491 506
4 370 477 471 504
4 56 228 489 505
4 477 516 504 518
4 435 348 507 517
4 447 501 444 506
4 445 501 446 505
4 447 506 444 510
4 378 370 476 504
4 404 402 504 508
4 393 402 463 504
4 192 294 516 518
4 475 474 472 504
4 139 141 348 517
4 304 507 312 515
4 364 354 356 501
4 406 416 408 501
4 353 258 278 506
4 435 507 426 517
4 445 505 446 509
4 465 376 502 511
4 475 470 474 504
4 466 462 465 502
4 259 353 278 505
4 464 463 466 504
4 316 321 5 136
4 317 143 8 338
4 355 363 356 501
4 407 408 415 501
4 278 501 253 505
4 472 390 475 504
4 253 501 278 506
4 499 244 63 514
4 380 502 375 508
4 213 479 50 502
4 348 515 507 517
4 430 432 342 503
4 499 63 309 503
4 125 107 108 118
4 169 177 166 170
4 171 177 165 178
4 170 171 177 165
4 390 398 475 504
4 283 245 296 502
4 247 58 414 506
4 342 344 350 507
4 307 305 313 507
4 360 491 59 506
4 406 501 445 505
4 348 141 515 517
4 181 40 179 219
4 342 507 350 512
4 268 290 512 514
4 444 501 407 506
4 359 56 489 505
4 302 289 255 512
4 405 410 279 505
4 474 460 467 504
4 409 405 277 506
4 416 410 405 505
4 415 405 409 506
4 260 507 281 512
4 389 257 508 518
4 290 343 512 514
4 305 427 303 503
4 245 283 379 502
4 381 374 294 377
4 139 325 141 517
4 128 304 312 515
4 389 516 257 518
4 125 118 108 119
4 119 109 108 114
4 294 286 249 516
4 307 427 305 507
4 405 253 501 505
4 399 50 392 502
4 296 288 256 502
4 304 515 128 517
4 405 501 253 506
4 430 342 340 503
4 342 432 431 507
4 375 380 368 502
4 465 502 462 511
4 342 431 344 507
4 372 480 51 502
4 58 411 414 506
4 345 507 260 512
4 246 413 55 505
4 55 413 412 505
4 379 283 368 502
4 24 112 491 235
4 353 357 258 506
4 375 502 250 508
4 445 408 443 501
4 448 356 354 501
4 181 17 220 367
4 112 13 236 301
4 358 353 259 505
4 378 467 373 504
4 399 388 288 502
4 128 515 330 517
4 360 506 355 510
4 377 504 384 518
4 341 507 348 515
4 268 503 289 514
4 443 408 444 501
4 268 255 289 512
4 355 356 448 501
4 281 263 312 515
4 313 314 302 512
4 361 358 291 505
4 354 446 448 501
4 377 370 384 504
4 354 505 359 509
4 284 502 395 508
4 405 279 253 505
4 368 250 375 502
4 369 382 375 508
4 350 507 345 512
4 444 506 407 510
4 406 408 445 501
4 480 213 502 511
4 281 293 263 515
4 277 405 253 506
4 363 355 357 506
4 427 429 303 503
4 447 355 448 501
4 395 284 388 502
4 499 63 503 514
4 407 444 408 501
4 288 388 256 502
4 406 505 445 509
4 490 58 229 506
4 354 364 358 505
4 372 502 376 511
4 363 353 364 501
4 415 416 405 501
4 430 427 432 503
4 391 463 393 402
4 427 307 428 507
4 327 515 141 517
4 488 228 55 505
4 490 411 58 506
4 434 340 352 513
4 128 330 324 517
4 50 479 392 502
4 139 329 325 517
4 289 503 306 514
4 343 339 290 512
4 310 289 306 514
4 470 460 474 504
4 294 286 516 518
4 488 55 412 505
4 462 502 396 511
4 247 414 277 506
4 406 452 417 509
4 407 418 450 510
4 345 260 507 515
4 40 181 480 219
4 379 368 372 502
4 384 504 373 518
4 339 280 290 512
4 306 503 310 514
4 360 362 357 506
4 361 359 358 505
4 471 473 474 504
4 382 380 375 508
4 369 382 508 518
4 382 384 373 518
4 395 502 400 508
4 355 360 357 506
4 256 388 284 502
4 298 247 277 506
4 369 375 282 508
4 292 298 258 506
4 507 515 304 517
4 260 281 507 515
4 451 454 165 365
4 420 114 366 449
4 380 382 371 508
4 125 423 436 315
4 310 306 309 503
4 310 261 289 514
4 360 491 506 510
4 358 359 354 505
4 280 268 290 512
4 246 279 413 505
4 294 374 286 518
4 489 359 505 509
4 491 229 506 510
4 279 246 297 505
4 489 505 228 509
4 432 427 431 507
4 474 473 472 504
4 283 250 368 502
4 435 431 426 507
4 395 388 400 502
4 268 512 503 514
4 407 506 411 510
4 412 505 406 509
4 382 373 504 518
4 470 398 393 504
4 362 292 258 506
4 341 348 141 515
4 345 507 341 515
4 214 486 262 487
4 389 404 394 516
4 325 327 141 517
4 396 502 392 511
4 38 163 172 227
4 260 293 281 515
4 309 499 503 513
4 403 469 396 511
4 183 457 468 383
4 468 383 465 511
4 249 386 192 516
4 63 261 310 514
4 9 142 317 334
4 128 4 316 332
4 370 378 373 504
4 352 124 424 434
4 404 402 393 504
4 260 281 255 512
4 244 499 513 514
4 503 512 343 514
4 372 380 376 502
4 479 502 213 511
4 330 515 327 517
4 372 480 502 511
4 117 123 26 240
4 345 260 339 512
4 481 252 486 487
4 473 478 472 516
4 27 126 121 243
4 446 445 448 501
4 450 421 113 418
4 455 166 417 452
4 436 315 429 513
4 278 253 259 505
4 366 447 449 510
4 446 365 451 509
4 258 253 278 506
4 350 341 345 507
4 304 313 308 507
4 204 114 449 419
4 208 451 165 453
4 183 468 210 456
4 344 348 341 507
4 473 472 504 516
4 464 373 467 504
4 435 426 139 517
4 464 467 460 504
4 474 476 467 212
4 447 448 444 501
4 282 369 508 518
4 106 25 115 232
4 168 164 39 224
4 486 266 481 222
4 343 503 351 512
4 354 359 365 509
4 407 411 418 510
4 366 360 355 510
4 417 412 406 509
4 340 503 346 513
4 303 309 503 513
4 422 205 436 125
4 165 453 451 509
4 449 419 114 510
4 183 468 456 511
4 403 182 458 469
4 352 340 346 513
4 303 315 309 513
4 307 507 304 517
4 488 505 412 509
4 218 383 183 511
4 428 507 307 517
4 291 259 297 505
4 330 327 324 517
4 492 251 497 498
4 427 430 429 503
4 390 393 398 504
4 490 411 506 510
4 410 413 279 505
4 363 364 356 501
4 415 408 416 501
4 352 242 124 513
4 472 390 504 516
4 311 307 304 517
4 429 303 503 513
4 422 125 436 513
4 346 513 503 514
4 409 277 414 506
4 389 394 285 516
4 392 502 479 511
4 429 315 303 513
4 399 392 388 502
4 472 478 390 516
4 258 357 362 506
4 267 298 59 230
4 206 434 124 422
4 355 447 366 510
4 446 354 365 509
4 406 410 416 505
4 488 228 505 509
4 350 345 339 512
4 409 407 415 506
4 490 506 229 510
4 445 443 448 501
4 291 358 259 505
4 380 372 368 502
4 451 365 165 509
4 449 114 366 510
4 257 389 285 516
4 175 41 184 216
4 125 315 436 513
4 165 365 226 509
4 114 234 366 510
4 284 283 256 502
4 352 346 242 513
4 403 217 182 511
4 448 443 444 501
4 465 383 376 511
4 253 279 259 505
4 376 383 372 511
4 403 396 392 511
4 297 266 56 222
4 464 373 371 186
4 280 339 260 512
4 192 249 294 386
4 355 448 356 161
4 354 448 160 356
4 427 305 303 130
4 124 422 434 513
4 277 253 258 506
4 328 141 327 515
4 50 296 265 214
4 426 507 428 517
4 209 469 182 456
4 115 25 490 232
4 39 488 224 164
4 26 499 240 123
4 451 453 441 509
4 442 419 449 510
4 370 373 384 504
4 450 203 419 113
4 166 452 207 453
4 340 351 343 503
4 314 303 306 503
4 459 456 468 511
4 468 183 383 511
4 347 64 346 514
4 474 211 470 475
4 444 407 450 510
4 406 445 452 509
4 329 327 325 517
4 346 500 513 514
4 359 226 365 509
4 234 360 366 510
4 434 430 340 513
4 343 346 503 514
4 405 409 277 102
4 279 410 405 103
4 469 182 456 511
4 201 444 443 408
4 445 443 408 200
4 311 428 307 517
4 412 413 410 505
4 452 453 166 509
4 450 113 419 510
4 451 208 441 453
4 442 204 449 419
4 406 412 410 505
4 431 427 428 507
4 340 343 346 503
4 306 303 309 503
4 257 516 285 518
4 411 407 409 506
4 459 210 468 456
4 434 352 124 513
4 163 38 489 227
4 469 462 396 511
4 430 503 340 513
4 126 27 500 243
4 64 500 346 514
4 397 390 478 516
4 341 350 344 507
4 304 307 313 507
4 400 392 396 502
4 409 414 411 506
4 241 315 125 513
4 425 422 436 513
4 128 127 304 517
4 166 225 417 509
4 233 113 418 510
4 33 333 151 437
4 296 256 283 502
4 427 307 305 131
4 20 184 399 215
4 149 34 439 331
4 417 452 166 509
4 450 418 113 510
4 218 372 383 511
4 391 195 461 396
4 448 355 447 161
4 446 448 160 354
4 464 371 466 186
4 429 427 303 130
4 63 244 238 514
4 254 263 293 515
4 444 201 407 408
4 445 408 406 200
4 345 76 339 260
4 212 467 474 460
4 339 343 351 512
4 184 41 479 216
4 225 412 417 509
4 233 418 411 510
4 158 352 434 340
4 503 513 499 514
4 205 425 422 436
4 403 182 469 511
4 241 309 315 513
4 395 402 389 508
4 324 127 128 517
4 470 393 463 504
4 470 463 460 504
4 338 152 7 334
4 433 127 28 140
4 452 406 417 199
4 407 202 450 418
4 433 127 140 517
4 390 404 393 504
4 321 332 6 146
4 425 434 422 513
4 395 389 257 508
4 375 250 282 508
4 330 263 254 515
4 429 503 430 513
4 33 148 333 318
4 390 404 504 516
4 486 266 252 481
4 142 341 141 515
4 244 513 500 514
4 34 335 331 154
4 403 392 217 511
4 434 206 425 422
4 307 427 428 131
4 469 456 459 511
4 452 441 453 509
4 450 419 442 510
4 402 400 391 508
4 230 497 267 498
4 433 428 311 517
4 461 463 194 391
4 260 255 280 512
4 466 371 376 187
4 70 302 255 308
4 262 265 214 487
4 265 50 487 485
4 346 500 242 513
4 142 141 328 515
4 440 150 149 329
4 379 51 372 181
4 157 430 432 342
4 376 465 466 187
4 402 395 400 508
4 262 486 252 487
4 191 192 386 516
4 254 299 349 515
4 195 462 461 396
4 255 281 70 308
4 266 56 291 297
4 14 163 361 223
4 336 153 325 154
4 192 191 473 516
4 342 350 351 512
4 349 142 254 515
4 488 39 224 225
4 490 25 233 232
4 230 267 298 247
4 141 325 328 327
4 395 284 95 388
4 372 218 480 511
4 499 26 240 241
4 431 428 426 507
4 405 277 253 102
4 405 253 279 103
4 191 401 397 516
4 248 347 290 514
4 150 323 438 151
4 489 226 359 509
4 234 491 360 510
4 265 296 50 288
4 400 388 392 502
4 280 339 76 260
4 157 430 342 340
4 284 256 95 388
4 123 3 310 237
4 349 345 341 515
4 385 401 191 516
4 414 247 277 101
4 459 469 209 456
4 377 384 374 518
4 134 438 140 135
4 139 133 440 134
4 207 452 441 453
4 203 419 442 450
4 498 492 251 264
4 460 474 211 470
4 217 392 479 511
4 343 290 347 514
4 449 420 114 204
4 208 451 454 165
4 457 468 210 183
4 10 126 347 239
4 490 233 411 510
4 412 225 488 509
4 27 124 424 352
4 125 26 423 315
4 9 142 334 254
4 334 254 142 322
4 393 194 463 391
4 38 165 454 365
4 114 24 420 366
4 25 113 421 418
4 166 39 455 417
4 309 241 499 513
4 278 259 83 353
4 353 82 278 258
4 251 267 497 498
4 238 492 63 287
4 460 463 464 504
4 394 389 285 97
4 248 347 78 290
4 254 9 349 299
4 242 352 27 346
4 322 330 254 515
4 348 155 435 344
4 64 244 500 514
4 142 322 254 515
4 59 292 298 267
4 423 436 205 125
4 293 260 299 515
4 280 255 268 512
4 139 140 329 517
4 478 191 397 516
4 369 375 89 282
4 259 279 297 505
4 493 300 59 497
4 112 59 362 360
4 324 146 320 147
4 291 361 84 358
4 481 252 55 222
4 339 77 343 290
4 498 230 58 264
4 343 347 346 514
4 124 424 434 206
4 479 41 217 216
4 147 148 319 326
4 390 397 404 516
4 279 246 413 104
4 284 395 257 508
4 433 311 127 517
4 226 38 359 365
4 24 366 234 360
4 330 332 263 128
4 152 337 153 328
4 142 9 349 254
4 386 249 295 516
4 449 447 442 510
4 441 446 451 509
4 51 480 372 181
4 290 339 77 280
4 266 252 481 222
4 82 353 357 258
4 358 83 259 353
4 282 508 257 518
4 465 459 468 511
4 258 298 277 506
4 182 458 469 209
4 386 295 191 516
4 28 311 127 433
4 203 450 421 113
4 452 455 166 207
4 295 401 385 516
4 361 14 56 291
4 372 40 218 383
4 230 58 267 247
4 387 44 381 377
4 486 56 266 222
4 88 375 368 250
4 410 279 413 104
4 277 409 414 101
4 433 426 428 517
4 183 40 457 383
4 41 182 458 403
4 426 140 139 517
4 436 429 425 513
4 265 20 50 485
4 128 4 332 263
4 343 78 347 290
4 345 349 75 299
4 288 50 20 399
4 330 254 263 73
4 265 296 245 214
4 425 429 430 513
4 468 188 465 383
4 399 94 288 388
4 39 417 225 412
4 233 25 411 418
4 241 309 26 315
4 136 128 320 137
4 143 144 337 142
4 56 223 482 262
4 406 452 445 199
4 450 444 202 407
4 135 28 30 437
4 32 31 439 133
4 434 425 430 513
4 465 462 459 511
4 485 20 50 215
4 69 289 302 306
4 403 469 196 396
4 394 401 295 516
4 462 469 459 511
4 248 10 347 64
4 395 96 257 389
4 326 140 127 517
4 447 444 442 510
4 441 445 446 509
4 261 268 289 514
4 256 288 94 388
4 217 403 41 392
4 90 374 369 518
4 292 81 362 258
4 222 297 266 246
4 27 124 352 242
4 436 129 429 315
4 442 444 450 510
4 441 452 445 509
4 34 335 439 331
4 64 248 251 238
4 369 384 382 518
4 430 158 434 340
4 300 267 59 497
4 295 385 191 516
4 289 261 310 68
4 360 112 59 491
4 261 63 238 514
4 322 327 330 515
4 286 285 249 516
4 237 63 3 310
4 239 347 10 64
4 328 327 322 515
4 294 387 192 386
4 361 56 14 223
4 478 473 191 516
4 262 51 486 214
4 90 286 374 518
4 64 248 238 514
4 252 265 262 487
4 366 449 447 162
4 451 446 159 365
4 497 267 59 230
4 387 294 93 386
4 191 386 385 295
4 492 238 251 287
4 394 397 401 516
4 4 128 312 263
4 323 329 140 517
4 492 498 496 264
4 114 24 366 234
4 38 165 365 226
4 386 385 295 92
4 372 40 480 218
4 127 137 138 319
4 144 336 141 145
4 283 88 368 250
4 479 41 392 217
4 335 31 32 145
4 138 30 28 318
4 59 292 300 236
4 480 479 213 511
4 491 490 229 510
4 488 489 228 509
4 346 27 242 500
4 244 499 500 513
4 347 248 64 514
4 221 215 483 270
4 166 453 165 509
4 419 113 114 510
4 182 183 456 511
4 255 289 302 69
4 310 289 68 306
4 39 488 412 225
4 490 25 411 233
4 223 220 269 484
4 26 499 309 241
4 243 242 27 500
4 111 61 301 112
4 181 367 53 180
4 261 3 63 310
4 285 516 286 518
4 324 326 127 517
4 486 56 482 262
4 124 125 422 513
4 284 257 250 508
4 215 20 50 399
4 357 362 81 258
4 155 431 435 344
4 91 381 374 294
4 498 267 230 264
4 330 322 254 73
4 359 489 38 226
4 360 234 24 491
4 303 429 129 315
4 323 333 326 140
4 71 281 263 312
4 72 332 4 263
4 254 293 299 515
4 183 40 383 218
4 235 24 234 491
4 339 351 350 512
4 467 378 373 185
4 99 184 215 52
4 115 66 60 231
4 125 26 315 241
4 85 163 223 57
4 126 79 65 239
4 166 39 417 225
4 25 113 418 233
4 251 267 498 264
4 327 326 324 517
4 0 115 231 66
4 164 23 221 100
4 123 3 237 67
4 38 489 227 226
4 96 257 284 395
4 447 355 366 162
4 354 159 446 365
4 376 465 188 383
4 323 140 326 517
4 493 239 251 64
4 330 332 72 263
4 259 291 84 358
4 20 184 215 99
4 14 163 223 85
4 74 254 9 334
4 397 394 404 516
4 341 142 349 515
4 10 126 239 79
4 53 219 220 181
4 61 235 236 112
4 238 248 251 261
4 127 311 304 517
4 40 181 372 480
4 100 164 54 221
4 223 56 14 262
4 281 71 308 312
4 496 63 492 287
4 24 112 360 491
4 16 275 86 367
4 250 257 282 508
4 260 345 75 299
4 33 333 437 318
4 257 285 389 97
4 41 182 403 217
4 238 248 261 514
4 265 50 20 288
4 250 89 375 282
4 487 252 265 485
4 462 196 469 396
4 392 184 50 399
4 282 285 286 518
4 291 14 56 266
4 323 327 329 517
4 287 63 238 261
4 189 377 477 370
4 390 197 397 478
4 287 3 63 261
4 328 322 142 515
4 262 486 266 252
4 428 433 311 132
4 249 93 294 386
4 219 480 40 218
4 248 251 10 64
4 401 394 295 98
4 282 90 369 518
4 410 279 104 103
4 409 277 102 101
4 398 193 470 393
4 197 390 472 478
4 370 477 189 471
4 390 472 475 198
4 190 370 471 476
4 266 14 56 262
4 237 231 494 272
4 295 249 386 92
4 287 238 251 261
4 251 271 239 493
4 321 4 332 316
4 265 50 214 487
4 237 3 63 287
4 338 9 317 334
4 493 251 300 497
4 287 251 492 264
4 334 74 254 322
4 95 256 94 388
4 486 266 56 262
4 271 251 300 493
4 370 190 378 476
4 475 390 198 398
4 220 219 480 181
4 236 235 491 112
4 286 91 374 294
4 50 184 392 479
4 282 257 285 518
4 464 467 373 185
4 282 286 90 518
4 20 265 252 485
4 251 497 238 492
4 287 496 237 272
4 482 223 269 262
4 300 292 13 236
4 139 329 331 325
4 220 223 269 482
4 221 215 270 485
4 163 361 56 359
4 115 58 411 414
4 311 307 428 132
4 443 201 408 200
4 239 10 251 64
4 347 126 346 64
4 154 141 336 145
4 287 492 496 264
4 487 481 252 485
4 225 166 165 509
4 114 113 233 510
4 217 183 182 511
4 374 384 369 518
4 343 77 78 290
4 193 463 470 393
4 412 55 164 413
4 290 268 248 514
4 433 140 426 517
4 87 88 368 283
4 123 309 63 310
4 496 287 264 272
4 419 442 204 203
4 207 441 208 453
4 285 394 295 516
4 251 267 300 497
4 95 96 284 395
4 210 459 209 456
4 199 445 406 200
4 444 201 202 407
4 64 238 244 514
4 267 58 230 264
4 206 425 422 205
4 327 323 326 517
4 423 26 29 315
4 27 35 352 424
4 423 29 436 315
4 49 39 417 455
4 421 48 25 418
4 366 36 24 420
4 454 37 38 365
4 110 61 111 112
4 53 181 180 179
4 460 474 212 211
4 272 0 231 494
4 71 263 4 312
4 420 366 36 449
4 454 451 37 365
4 252 485 221 270
4 35 352 424 434
4 55 252 481 485
4 263 72 330 73
4 455 417 49 452
4 421 450 48 418
4 130 303 429 129
4 411 490 58 115
4 184 41 392 479
4 264 267 58 247
4 500 241 242 513
4 310 261 3 68
4 53 173 275 57
4 231 496 264 272
4 269 220 482 262
4 309 63 499 123
4 269 484 14 223
4 90 91 374 286
4 500 346 126 64
4 39 488 164 412
4 115 25 411 490
4 26 499 123 309
4 164 55 412 488
4 71 70 281 308
4 268 261 248 514
4 84 83 259 358
4 357 81 82 258
4 226 225 165 509
4 114 233 234 510
4 183 217 218 511
4 160 159 446 354
4 355 447 161 162
4 56 489 163 359
4 482 220 51 262
4 491 234 233 510
4 480 218 217 511
4 226 489 225 509
4 20 215 270 483
4 239 236 271 495
4 63 496 237 287
4 236 300 59 493
4 68 289 69 306
4 433 28 311 132
4 448 160 356 161
4 347 78 10 248
4 65 12 61 274
4 130 427 305 131
4 75 349 9 299
4 430 157 158 340
4 173 53 275 180
4 144 337 142 328
4 237 231 272 496
4 128 324 320 137
4 319 148 138 326
4 90 369 89 282
4 285 295 394 98
4 337 144 153 328
4 345 75 76 260
4 324 320 137 147
4 491 233 490 510
4 217 479 480 511
4 489 488 225 509
4 6 4 332 321
4 231 496 58 264
4 338 7 9 334
4 278 83 82 353
4 486 482 51 262
4 435 32 155 348
4 29 129 436 315
4 499 241 500 513
4 0 247 414 101
4 451 159 37 365
4 449 366 36 162
4 140 139 150 134
4 236 271 300 493
4 251 493 64 497
4 271 10 251 239
4 496 498 58 264
4 194 195 461 391
4 397 197 45 478
4 377 477 44 189
4 14 269 223 262
4 187 466 371 186
4 272 66 0 494
4 307 428 132 131
4 223 227 57 163
4 239 243 65 126
4 295 249 285 516
4 329 139 150 140
4 79 65 495 274
4 497 64 251 238
4 432 156 157 342
4 141 336 325 154
4 35 352 434 158
4 221 270 483 100
4 485 55 252 221
4 94 288 20 399
4 108 114 113 233
4 177 217 183 182
4 98 394 285 97
4 452 417 49 199
4 450 202 48 418
4 483 215 52 99
4 66 60 231 494
4 381 91 18 294
4 79 495 65 239
4 57 85 484 223
4 232 60 231 115
4 216 52 215 184
4 463 193 194 393
4 361 84 14 291
4 126 27 346 500
4 163 38 359 489
4 389 96 257 97
4 59 292 267 300
4 484 14 85 269
4 462 195 196 396
4 495 65 61 274
4 301 12 61 111
4 172 53 227 57
4 249 93 386 92
4 413 246 23 104
4 431 155 156 344
4 271 495 10 239
4 467 43 378 185
4 53 172 173 57
4 483 270 20 99
4 470 211 47 475
4 362 13 81 292
4 467 476 43 212
4 66 231 0 494
4 69 302 255 70
4 221 54 224 164
4 237 62 240 123
4 54 221 483 100
4 439 335 32 331
4 295 385 19 92
4 434 424 35 206
4 436 205 29 423
4 172 219 53 179
4 37 208 451 454
4 449 36 420 204
4 468 210 42 457
4 172 219 227 53
4 253 405 102 103
4 469 458 46 209
4 48 203 450 421
4 452 49 455 207
4 127 138 28 333
4 367 275 86 269
4 20 215 483 99
4 484 85 14 223
4 110 121 65 243
4 47 470 475 398
4 294 93 18 387
4 243 61 65 110
4 79 10 495 239
4 43 378 476 467
4 232 231 490 115
4 216 215 479 184
4 237 240 499 123
4 221 224 488 164
4 189 190 370 471
4 198 390 472 197
4 62 106 117 116
4 172 53 173 179
4 65 121 110 122
4 470 47 193 398
4 54 175 167 52
4 62 106 116 60
4 65 110 61 111
4 174 175 52 167
4 116 105 60 106
4 110 65 122 111
4 401 295 19 98
4 46 403 458 469
4 236 239 271 493
4 0 231 264 272
4 331 141 154 145
4 468 42 188 383
4 42 468 457 383
4 76 77 339 280
4 19 385 295 401
4 88 89 375 250
4 495 271 79 274
4 403 41 46 458
4 40 42 457 383
4 138 127 319 326
4 240 62 106 117
4 243 61 110 235
4 175 54 216 52
4 232 62 60 106
4 373 464 185 186
4 316 332 321 146
4 338 317 152 334
4 175 54 167 168
4 294 18 381 387
4 227 223 489 163
4 243 239 500 126
4 173 53 180 179
4 141 331 32 145
4 376 465 187 188
4 46 403 469 196
4 23 252 221 270
4 173 163 57 172
4 216 168 54 175
4 112 110 61 235
4 181 53 219 179
4 323 329 150 140
4 140 333 135 151
4 139 440 149 329
4 220 269 17 262
4 271 10 495 79
4 287 237 3 272
4 148 138 326 333
4 322 74 254 73
4 74 9 7 334
4 87 379 17 245
4 123 116 62 117
4 122 65 121 126
4 174 52 175 184
4 105 115 60 106
4 437 333 28 318
4 168 216 54 224
4 232 62 106 240
4 65 61 12 111
4 150 323 140 438
4 332 4 6 72
4 138 127 326 333
4 491 112 59 236
4 480 51 220 181
4 150 440 139 329
4 142 334 322 328
4 215 50 184 399
4 167 168 54 164
4 223 361 56 163
4 126 347 239 64
4 149 133 139 331
4 63 237 123 310
4 190 43 378 476
4 198 47 475 398
4 381 18 44 387
4 149 133 440 139
4 135 438 140 151
4 323 140 438 151
4 243 234 27 242
4 140 333 28 135
4 385 19 45 401
4 336 325 153 141
4 332 330 324 128
4 54 52 22 276
4 438 140 150 134
4 440 150 139 134
4 325 331 141 154
4 38 219 218 227
4 243 234 235 27
4 16 15 275 180
4 234 235 27 24
4 367 53 275 269
4 227 38 226 218
4 67 3 237 272
4 275 15 57 173
4 139 133 32 331
4 128 324 137 127
4 140 323 333 151
4 15 275 180 173
4 11 12 65 274
4 142 141 144 328
4 270 221 23 100
4 149 139 329 331
4 38 219 40 218
4 141 153 144 328
4 127 324 137 147
4 151 333 28 437
4 300 13 271 236
4 333 148 28 318
4 146 128 324 320
4 224 217 39 216
4 240 26 232 241
4 337 152 142 328
4 149 439 32 331
4 28 135 151 437
4 149 32 439 133
4 136 316 321 146
4 152 143 317 338
4 141 325 153 328
4 28 148 138 318
4 163 227 57 172
4 17 367 269 220
4 86 17 367 269
4 241 25 232 233
4 217 224 39 225
4 331 335 32 154
4 154 335 32 145
4 178 226 38 218
4 27 109 120 234
4 147 319 127 326
4 126 65 121 243
4 437 30 33 318
4 321 5 4 316
4 8 9 317 338
4 27 109 234 24
4 62 240 123 117
4 184 52 175 216
4 115 232 60 106
4 335 31 34 439
4 271 301 13 80
4 118 107 25 241
4 317 142 152 334
4 332 316 128 146
4 147 127 324 326
4 335 32 31 439
4 437 28 30 318
4 215 479 184 50
4 231 490 115 58
4 164 168 54 224
4 38 40 178 218
4 11 111 65 12
4 488 164 55 221
4 63 237 499 123
4 271 13 301 236
4 489 223 56 163
4 239 500 126 64
4 241 107 25 233
4 276 99 52 21
4 52 54 22 167
4 2 116 60 62
4 1 116 105 60
4 21 167 174 52
4 111 11 65 122
4 275 85 57 15
4 100 54 22 276
4 136 128 316 146
4 152 143 142 317
4 22 52 21 276
4 154 32 331 145
4 138 148 28 333
4 133 149 32 331
4 135 333 28 151
4 324 332 128 146
4 1 60 66 273
4 9 8 7 338
4 4 6 5 321
4 334 142 152 328
4 79 11 65 274
4 60 1 2 273
4 319 127 137 147
4 336 153 144 141
4 108 125 233 113
4 146 136 128 320
4 337 152 143 142
4 21 167 52 22
4 1 116 60 2
4 220 53 181 367
4 236 61 112 301
4 165 218 178 183
4 233 125 107 113
4 218 165 178 226
4 107 118 125 241
4 219 172 38 179
4 172 219 38 227
4 125 233 107 241
4 240 106 26 117
4 235 27 110 243
4 24 27 110 235
4 121 110 27 243
4 39 168 224 216
4 106 240 26 232
4 219 179 38 40
4 175 168 41 216
4 163 15 173 57
4 178 179 40 38
4 175 176 41 168
4 15 163 85 57
4 171 179 178 38
4 183 40 218 178
4 110 27 109 121
4 114 24 234 109
4 27 110 109 24
4 126 11 122 65
4 126 11 65 79
4 109 121 27 120
4 2 123 116 62
4 115 1 105 60
4 107 106 118 25
4 125 26 241 118
4 21 184 99 52
4 22 164 167 54
4 22 164 54 100
4 184 21 174 52
4 118 117 26 106
4 171 179 38 172
4 25 113 233 107
4 115 1 60 66
4 518 389 504 508
4 518 504 389 516
4 502 371 376 466
4 502 376 371 380
4 234 124 109 120
4 119 109 124 120
4 177 169 182 176
4 348 139 32 141
4 348 32 139 435
4 17 181 245 379
4 17 245 181 220
4 51 245 181 379
4 51 181 245 220
4 13 112 292 362
4 13 292 112 236
4 59 292 112 362
4 59 112 292 236
4 247 230 506 298
4 247 506 230 58
4 246 222 505 55
4 246 505 222 297
4 128 263 515 312
4 128 515 263 330
4 214 245 502 296
4 214 502 245 51
4 379 283 87 368
4 87 283 379 245
4 502 250 284 283
4 502 284 250 508
4 461 396 400 391
4 400 396 461 462
4 461 502 400 462
4 342 431 156 344
4 342 156 431 432
4 401 45 478 397
4 478 191 401 397
4 387 377 294 192
4 294 377 387 381
4 345 299 515 349
4 515 299 345 260
4 58 115 247 414
4 58 247 115 231
4 0 247 115 414
4 0 115 247 231
4 23 164 246 413
4 23 246 164 221
4 55 246 164 413
4 55 164 246 221
4 435 344 507 348
4 507 344 435 431
4 245 214 262 265
4 262 214 245 51
4 246 222 252 266
4 246 252 222 55
4 44 192 377 387
4 377 192 44 477
4 45 191 401 478
4 45 401 191 385
4 247 231 264 0
4 247 264 231 58
4 221 246 252 23
4 221 252 246 55
4 220 245 262 17
4 220 262 245 51
4 180 275 367 53
4 180 367 275 16
4 119 124 241 125
4 513 241 124 125
4 513 124 241 242
4 485 20 270 252
4 270 20 485 215
4 495 61 271 274
4 331 141 139 325
4 139 141 331 32
4 225 165 217 226
4 218 217 165 226
4 301 12 274 61
4 274 12 301 80
4 274 271 301 61
4 301 271 274 80
4 53 220 269 367
4 53 269 220 484
4 61 236 271 301
4 61 271 236 495
4 127 333 140 326
4 140 333 127 28
4 100 483 276 270
4 100 276 483 54
4 52 483 276 54
4 66 494 273 60
4 273 494 66 272
4 85 484 275 57
4 85 275 484 269
4 53 275 484 57
4 53 484 275 269
4 99 483 276 52
4 99 276 483 270
4 165 177 225 217
4 166 225 177 217
4 125 108 241 119
4 125 241 108 233
4 234 241 114 119
4 234 114 241 233
4 241 108 114 119
4 241 114 108 233
4 168 176 39 169
4 165 38 178 226
4 165 178 38 171
4 124 27 234 242
4 124 234 27 120
4 106 118 232 26
4 106 232 118 25
4 241 232 118 26
4 241 118 232 25
4 123 2 237 62
4 123 237 2 67
4 272 273 237 67
4 237 273 2 67
4 39 166 217 225
4 39 217 166 169
4 169 182 39 217
4 169 39 182 176
4 166 165 177 225
4 166 177 165 170
4 183 217 165 218
4 165 217 183 177
4 119 109 234 124
4 234 109 119 114
4 177 169 217 182
4 217 169 177 166
4 400 461 508 502
4 508 461 400 391
4 124 241 234 119
4 124 234 241 242
4 168 176 216 39
4 216 176 168 41
4 176 217 216 39
4 216 217 176 41
4 176 182 217 39
4 217 182 176 41
4 273 237 494 272
4 2 237 494 273
4 494 237 2 62
4 494 60 2 273
4 2 60 494 62

CELL_TYPES 2851
1
1
1
1
1
1
1
1
1
1
1
1
1
1
1
1
1
1
1
1
1
1
1
1
1
1
1
1
1
1
1
1
1
1
1
1
1
1
1
1
1
1
1
1
1
1
1
1
1
1
1
1
1
1
1
1
1
1
1
1
1
1
1
1
1
1
3
3
3
3
3
3
3
3
3
3
3
3
3
3
3
3
3
3
3
3
3
3
3
3
3
3
3
3
3
3
3
3
3
3
3
3
3
3
3
3
3
3
3
3
3
3
3
3
3
3
3
3
3
3
3
3
3
3
3
3
3
3
3
3
3
3
3
3
3
3
3
3
3
3
3
3
3
3
3
3
3
3
3
3
3
3
3
3
3
3
3
3
3
3
3
3
3
3
3
3
3
3
3
3
3
3
3
3
3
3
3
3
3
3
3
3
3
3
3
3
3
3
3
3
3
3
3
3
3
3
3
3
3
3
3
3
3
3
3
3
3
3
3
3
3
3
3
3
3
3
3
3
3
3
3
3
3
3
3
3
3
3
3
3
3
3
3
3
3
3
3
3
3
3
3
3
3
3
3
3
3
3
3
3
3
3
3
3
3
3
3
3
3
3
3
3
3
3
3
3
3
3
3
3
3
3
3
3
3
3
3
3
3
3
3
3
3
3
3
3
3
3
3
3
3
3
3
3
3
3
3
3
3
3
3
3
3
3
3
3
3
3
3
3
3
3
3
3
3
3
3
3
3
3
3
3
3
3
3
3
3
3
3
3
3
3
3
3
3
3
3
3
3
3
3
3
3
3
5
5
5
5
5
5
5
5
5
5
5
5
5
5
5
5
5
5
5
5
5
5
5
5
5
5
5
5
5
5
5
5
5
5
5
5
5
5
5
5
5
5
5
5
5
5
5
5
5
5
5
5
5
5
5
5
5
5
5
5
5
5
5
5
5
5
5
5
5
5
5
5
5
5
5
5
5
5
5
5
5
5
5
5
5
5
5
5
5
5
5
5
5
5
5
5
5
5
5
5
5
5
5
5
5
5
5
5
5
5
5
5
5
5
5
5
5
5
5
5
5
5
5
5
5
5
5
5
5
5
5
5
5
5
5
5
5
5
5
5
5
5
5
5
5
5
5
5
5
5
5
5
5
5
5
5
5
5
5
5
5
5
5
5
5
5
5
5
5
5
5
5
5
5
5
5
5
5
5
5
5
5
5
5
5
5
5
5
5
5
5
5
5
5
5
5
5
5
5
5
5
5
5
5
5
5
5
5
5
5
5
5
5
5
5
5
5
5
5
5
5
5
5
5
5
5
5
5
5
5
5
5
5
5
5
5
5
5
5
5
5
5
5
5
5
5
5
5
5
5
5
5
5
5
5
5
5
5
5
5
5
5
5
5
5
5
5
5
5
5
5
5
5
5
5
5
5
5
5
5
5
5
5
5
5
5
5
5
5
5
5
5
5
5
5
5
5
5
5
5
5
5
5
5
5
5
5
5
5
5
5
5
5
5
5
5
5
5
5
5
5
5
5
5
5
5
5
5
5
5
5
5
5
5
5
5
5
5
5
5
5
5
5
5
5
5
5
5
5
5
5
5
5
5
5
5
5
5
5
5
5
5
5
5
5
5
5
5
5
5
5
5
5
5
5
5
5
5
5
5
5
5
5
5
5
5
5
5
5
5
5
5
5
5
5
5
5
5
5
5
5
5
5
5
5
5
5
5
5
5
5
5
5
5
5
5
5
5
5
5
5
5
5
5
5
5
5
5
5
5
5
5
5
5
5
5
5
5
5
5
5
5
5
5
5
5
5
5
5
5
5
5
5
5
5
5
5
5
5
5
5
5
5
5
5
5
5
5
5
5
5
5
5
5
5
5
5
5
5
5
5
5
5
5
5
5
5
5
5
5
5
5
5
5
5
5
5
5
5
5
5
5
5
5
5
5
5
5
5
5
5
5
5
5
5
5
5
5
5
5
5
5
5
5
5
5
5
5
5
5
5
5
5
5
5
5
5
5
5
5
5
5
5
5
5
5
5
5
5
5
5
5
5
5
5
5
5
5
5
5
5
5
5
5
5
5
5
5
5
5
5
5
5
5
5
5
5
5
5
5
5
5
5
5
5
5
5
5
5
5
5
5
5
5
5
5
5
5
5
5
5
5
5
5
5
5
5
5
5
5
5
5
5
5
5
5
5
5
5
5
5
5
5
5
5
5
5
5
5
5
5
5
5
5
5
5
5
5
5
5
5
5
5
5
5
5
5
5
5
5
5
5
5
5
5
5
5
5
5
5
5
5
5
5
5
5
5
5
5
5
5
5
5
5
5
5
5
5
5
5
5
5
5
5
5
5
5
5
5
5
5
5
5
5
5
5
5
5
5
5
5
5
5
5
5
5
5
5
5
5
5
5
5
5
5
5
5
5
5
5
5
5
5
5
5
5
5
5
5
5
5
5
5
5
5
5
5
5
5
5
5
5
5
5
5
5
5
5
5
5
5
5
5
5
5
5
5
5
5
5
5
5
5
5
5
5
5
5
5
5
5
5
5
5
5
5
5
5
5
5
5
5
5
5
5
5
5
5
5
5
5
5
5
5
5
5
5
5
5
5
5
5
5
5
5
5
5
5
5
5
5
5
5
5
5
5
5
5
5
5
5
5
5
5
5
5
5
5
5
5
5
5
5
5
5
5
5
5
5
5
5
5
5
5
5
5
5
5
5
5
5
5
5
5
5
5
5
5
5
5
5
5
5
5
5
5
5
5
5
5
5
5
5
5
5
5
5
5
5
5
5
5
5
5
5
5
5
5
5
5
5
5
5
5
5
5
5
5
5
5
5
5
5
5
5
5
5
5
5
5
5
5
5
5
5
5
5
5
5
5
5
5
5
5
5
5
5
5
5
5
5
5
5
5
5
5
5
5
5
5
5
5
5
5
5
5
5
5
5
5
5
5
5
5
5
5
5
5
5
5
5
5
5
5
5
5
5
5
5
5
5
5
5
5
5
5
5
5
5
5
5
5
5
5
5
5
5
5
5
5
10
10
10
10
10
10
10
10
10
10
10
10
10
10
10
10
10
10
10
10
10
10
10
10
10
10
10
10
10
10
10
10
10
10
10
10
10
10
10
10
10
10
10
10
10
10
10
10
10
10
10
10
10
10
10
10
10
10
10
10
10
10
10
10
10
10
10
10
10
10
10
10
10
10
10
10
10
10
10
10
10
10
10
10
10
10
10
10
10
10
10
10
10
10
10
10
10
10
10
10
10
10
10
10
10
10
10
10
10
10
10
10
10
10
10
10
10
10
10
10
10
10
10
10
10
10
10
10
10
10
10
10
10
10
10
10
10
10
10
10
10
10
10
10
10
10
10
10
10
10
10
10
10
10
10
10
10
10
10
10
10
10
10
10
10
10
10
10
10
10
10
10
10
10
10
10
10
10
10
10
10
10
10
10
10
10
10
10
10
10
10
10
10
10
10
10
10
10
10
10
10
10
10
10
10
10
10
10
10
10
10
10
10
10
10
10
10
10
10
10
10
10
10
10
10
10
10
10
10
10
10
10
10
10
10
10
10
10
10
10
10
10
10
10
10
10
10
10
10
10
10
10
10
10
10
10
10
10
10
10
10
10
10
10
10
10
10
10
10
10
10
10
10
10
10
10
10
10
10
10
10
10
10
10
10
10
10
10
10
10
10
10
10
10
10
10
10
10
10
10
10
10
10
10
10
10
10
10
10
10
10
10
10
10
10
10
10
10
10
10
10
10
10
10
10
10
10
10
10
10
10
10
10
10
10
10
10
10
10
10
10
10
10
10
10
10
10
10
10
10
10
10
10
10
10
10
10
10
10
10
10
10
10
10
10
10
10
10
10
10
10
10
10
10
10
10
10
10
10
10
10
10
10
10
10
10
10
10
10
10
10
10
10
10
10
10
10
10
10
10
10
10
10
10
10
10
10
10
10
10
10
10
10
10
10
10
10
10
10
10
10
10
10
10
10
10
10
10
10
10
10
10
10
10
10
10
10
10
10
10
10
10
10
10
10
10
10
10
10
10
10
10
10
10
10
10
10
10
10
10
10
10
10
10
10
10
10
10
10
10
10
10
10
10
10
10
10
10
10
10
10
10
10
10
10
10
10
10
10
10
10
10
10
10
10
10
10
10
10
10
10
10
10
10
10
10
10
10
10
10
10
10
10
10
10
10
10
10
10
10
10
10
10
10
10
10
10
10
10
10
10
10
10
10
10
10
10
10
10
10
10
10
10
10
10
10
10
10
10
10
10
10
10
10
10
10
10
10
10
10
10
10
10
10
10
10
10
10
10
10
10
10
10
10
10
10
10
10
10
10
10
10
10
10
10
10
10
10
10
10
10
10
10
10
10
10
10
10
10
10
10
10
10
10
10
10
10
10
10
10
10
10
10
10
10
10
10
10
10
10
10
10
10
10
10
10
10
10
10
10
10
10
10
10
10
10
10
10
10
10
10
10
10
10
10
10
10
10
10
10
10
10
10
10
10
10
10
10
10
10
10
10
10
10
10
10
10
10
10
10
10
10
10
10
10
10
10
10
10
10
10
10
10
10
10
10
10
10
10
10
10
10
10
10
10
10
10
10
10
10
10
10
10
10
10
10
10
10
10
10
10
10
10
10
10
10
10
10
10
10
10
10
10
10
10
10
10
10
10
10
10
10
10
10
10
10
10
10
10
10
10
10
10
10
10
10
10
10
10
10
10
10
10
10
10
10
10
10
10
10
10
10
10
10
10
10
10
10
10
10
10
10
10
10
10
10
10
10
10
10
10
10
10
10
10
10
10
10
10
10
10
10
10
10
10
10
10
10
10
10
10
10
10
10
10
10
10
10
10
10
10
10
10
10
10
10
10
10
10
10
10
10
10
10
10
10
10
10
10
10
10
10
10
10
10
10
10
10
10
10
10
10
10
10
10
10
10
10
10
10
10
10
10
10
10
10
10
10
10
10
10
10
10
10
10
10
10
10
10
10
10
10
10
10
10
10
10
10
10
10
10
10
10
10
10
10
10
10
10
10
10
10
10
10
10
10
10
10
10
10
10
10
10
10
10
10
10
10
10
10
10
10
10
10
10
10
10
10
10
10
10
10
10
10
10
10
10
10
10
10
10
10
10
10
10
10
10
10
10
10
10
10
10
10
10
10
10
10
10
10
10
10
10
10
10
10
10
10
10
10
10
10
10
10
10
10
10
10
10
10
10
10
10
10
10
10
10
10
10
10
10
10
10
10
10
10
10
10
10
10
10
10
10
10
10
10
10
10
10
10
10
10
10
10
10
10
10
10
10
10
10
10
10
10
10
10
10
10
10
10
10
10
10
10
10
10
10
10
10
10
10
10
10
10
10
10
10
10
10
10
10
10
10
10
10
10
10
10
10
10
10
10
10
10
10
10
10
10
10
10
10
10
10
10
10
10
10
10
10
10
10
10
10
10
10
10
10
10
10
10
10
10
10
10
10
10
10
10
10
10
10
10
10
10
10
10
10
10
10
10
10
10
10
10
10
10
10
10
10
10
10
10
10
10
10
10
10
10
10
10
10
10
10
10
10
10
10
10
10
10
10
10
10
10
10
10
10
10
10
10
10
10
10
10
10
10
10
10
10
10
10
10
10
10
10
10
10
10
10
10
10
10
10
10
10
10
10
10
10
10
10
10
10
10
10
10
10
10
10
10
10
10
10
10
10
10
10
10
10
10
10
10
10
10
10
10
10
10
10
10
10
10
10
10
10
10
10
10
10
10
10
10
10
10
10
10
10
10
10
10
10
10
10
10
10
10
10
10
10
10
10
10
10
10
10
10
10
10
10
10
10
10
10
10
10
10
10
10
10
10
10
10
10
10
10
10
10
10
10
10
10
10
10
10
10
10
10
10
10
10
10
10
10
10
10
10
10
10
10
10
10
10
10
10
10
10
10
10
10
10
10
10
10
10
10
10
10
10
10
10
10
10
10
10
10
10
10
10
10
10
10
10
10
10
10
10
10
10
10
10
10
10
10
10
10
10
10
10
10
10
10
10
10
10
10
10
10
10
10
10
10
10
10
10
10
10
10
10
10
10
10
10
10
10
10
10
10
10
10
10
10
10
10
10
10
10
10
10
10
10
10
10
10
10
10
10
10
10
10
10
10
10
10
10
10
10
10
10
10
10
10
10
10
10
10
10
10
10
10
10
10
10
10
10
10
10
10
10
10
10
10
10
10
10
10
10
10
10
10
10
10
10
10
10
10
10
10
10
10
10
10
10
10
10
10
10
10
10
10
10
10
10
10
10
10
10
10
10
10
10
10
10
10
10
10
10
10
10
10
10
10
10
10
10
10
10
10
10
10
10
10
10
10
10
10
10
10
10
10
10
10
10
10
10
10
10
10
10
10
10
10
10
10
10
10
10
10
10
10
10
10
10
10
10
10
10
10
10
10
10
10
10
10
10
10
10
10
