# vtk DataFile Version 2.0
, Created by Gmsh 4.11.1 
ASCII
DATASET UNSTRUCTURED_GRID
POINTS 588 double
8.75 0 -44.40742602607934
17.26367502235105 0 -41.52601254431212
17.26367502235105 0 -38.47398745568788
8.75 0 -35.59257397392065
8.75 0 -3
11.75 0 -3
11.75 0 0
-11.75 0 0
-11.75 0 -3
-8.75 0 -3
-8.75 1.071565949253934e-15 -35.59257397392065
-17.26367502235105 2.114190435764233e-15 -38.47398745568788
-17.26367502235105 2.114190435764233e-15 -41.52601254431212
-8.75 1.071565949253934e-15 -44.40742602607934
-8.75 1.071565949253934e-15 -75.59257397392065
-17.26367502235105 2.114190435764233e-15 -78.47398745568788
-17.26367502235105 2.114190435764233e-15 -81.52601254431212
-8.75 1.071565949253934e-15 -84.40742602607935
-8.75 0 -120
8.75 0 -120
8.75 0 -84.40742602607935
17.26367502235105 0 -81.52601254431212
17.26367502235105 0 -78.47398745568788
8.75 0 -75.59257397392065
-8.75 11.83761302028254 -42.38675591599188
8.75 11.83761302028254 -42.38675591599188
8.75 11.8376130202826 -37.6132440840081
-8.75 11.83761302028259 -37.6132440840081
8.75 20 -3
8.75 20 -34.54466508433431
11.75 23 -3
-11.75 23 -3
-8.75 20 -3
11.75 23 0
-11.75 23 0
-8.75 20 -34.54466508433431
-8.75 20 -45.45533491566569
-8.75 20 -74.54466508433431
-8.75 11.83761302028261 -77.6132440840081
8.75 11.83761302028261 -77.6132440840081
-8.75 11.83761302028262 -82.38675591599191
8.75 11.83761302028262 -82.38675591599191
-8.75 20 -85.45533491566569
-8.75 20 -114.5446650843343
-8.75 5.488868075300976 -120
8.75 5.488868075300976 -120
8.75 20 -85.45533491566569
8.75 20 -114.5446650843343
8.75 20 -45.45533491566569
8.75 20 -74.54466508433431
5.631719735276243 2.70380620564788 -84.40742602607935
-5.631719735276244 2.703806205647879 -84.40742602607935
14.51107418665211 2.70380620564788 -81.52601254431212
-14.51107418665211 2.703806205647883 -81.52601254431212
14.51107418665211 2.70380620564788 -78.47398745568788
5.631719735276243 2.70380620564788 -75.59257397392065
-5.631719735276244 2.703806205647879 -75.59257397392065
-14.51107418665211 2.703806205647883 -78.47398745568788
5.631719735276243 2.70380620564788 -44.40742602607934
-5.631719735276244 2.703806205647879 -44.40742602607934
14.51107418665211 2.70380620564788 -41.52601254431212
-14.51107418665211 2.703806205647883 -41.52601254431212
14.51107418665211 2.70380620564788 -38.47398745568788
5.631719735276243 2.70380620564788 -35.59257397392066
-5.631719735276244 2.703806205647879 -35.59257397392066
-14.51107418665211 2.703806205647883 -38.47398745568788
13.00683751117552 0 -42.96671928519573
13.00683751117553 0 -37.03328071480426
8.75 0 -29.07405917913653
8.75 0 -22.55554438435242
8.75 0 -16.03702958956828
8.75 0 -9.518514794784142
5.875000000000016 0 0
3.730349362740526e-14 0 0
-5.874999999999972 0 0
-8.75 0 -9.518514794784126
-8.75 0 -16.03702958956824
-8.75 0 -22.55554438435238
-8.75 0 -29.07405917913653
-13.00683751117553 1.592878192509084e-15 -37.03328071480426
-13.00683751117552 1.592878192509083e-15 -42.96671928519573
-8.75 0 -50.6444556156476
-8.75 0 -56.88148520521586
-8.75 0 -63.11851479478413
-8.75 0 -69.35554438435241
-13.00683751117553 1.592878192509084e-15 -77.03328071480426
-13.00683751117552 1.592878192509083e-15 -82.96671928519574
-8.75 0 -90.33952168839946
-8.75 0 -96.27161735071957
-8.75 0 -102.2037130130397
-8.75 0 -108.1358086753598
-8.75 0 -114.0679043376799
2.916666666666666 0 -120
-2.916666666666668 0 -120
8.75 0 -90.33952168839946
8.75 0 -96.27161735071957
8.75 0 -102.2037130130397
8.75 0 -108.1358086753598
8.75 0 -114.0679043376799
13.00683751117552 0 -82.96671928519574
13.00683751117553 0 -77.03328071480426
8.75 0 -50.6444556156476
8.75 0 -56.88148520521586
8.75 0 -63.11851479478413
8.75 0 -69.35554438435241
15.94955600907647 6.606522412788771 -41.52601254431212
12.20726167650525 12.20726167650525 -41.52601254431212
6.606522412788755 15.94955600907647 -41.52601254431212
-1.427612838168616e-14 17.26367502235105 -41.52601254431212
-6.606522412788775 15.94955600907647 -41.52601254431212
-12.20726167650525 12.20726167650525 -41.52601254431212
-15.94955600907647 6.60652241278877 -41.52601254431212
-8.75 5.980548133201674 -43.78178983119816
-2.963400964718732 13.04592767670437 -42.8410113916153
2.963400964718717 13.04592767670437 -42.8410113916153
8.75 5.980548133201672 -43.78178983119816
15.94955600907647 6.606522412788771 -38.47398745568788
12.20726167650525 12.20726167650525 -38.47398745568788
6.606522412788755 15.94955600907647 -38.47398745568788
-1.427612838168616e-14 17.26367502235105 -38.47398745568788
-6.606522412788775 15.94955600907647 -38.47398745568788
-12.20726167650525 12.20726167650525 -38.47398745568788
-15.94955600907647 6.60652241278877 -38.47398745568788
8.75 5.980548133201702 -36.21821016880184
2.963400964718696 13.04592767670428 -37.15898860838472
-2.963400964718731 13.04592767670428 -37.15898860838472
-8.75 5.9805481332017 -36.21821016880184
8.75 6.666666666666651 -3
8.75 13.33333333333329 -3
8.75 20 -28.23573206746744
8.75 20 -21.92679905060056
8.75 20 -15.61786603373371
8.75 20 -9.308933016866867
8.75 15.9188065101413 -36.07895458417121
-5.875000000000016 23 -3
-3.730349362740526e-14 23 -3
5.874999999999972 23 -3
-11.75 5.749999999999988 -3
-11.75 11.49999999999999 -3
-11.75 17.24999999999999 -3
-8.75 13.33333333333335 -3
-8.75 6.666666666666705 -3
-2.916666666666666 20 -3
2.916666666666668 20 -3
11.75 5.749999999999988 -3
11.75 11.49999999999999 -3
11.75 17.24999999999999 -3
11.75 5.749999999999988 0
11.75 11.49999999999999 0
11.75 17.24999999999999 0
-5.875000000000016 23 0
-3.730349362740526e-14 23 0
5.874999999999972 23 0
-11.75 5.749999999999988 0
-11.75 11.49999999999999 0
-11.75 17.24999999999999 0
-8.75 20 -9.30893301686687
-8.75 20 -15.61786603373375
-8.75 20 -21.9267990506006
-8.75 20 -28.23573206746745
-8.75 15.9188065101413 -36.07895458417121
-8.75 15.91880651014127 -43.92104541582878
-8.75 20 -68.72679905060058
-8.75 20 -62.90893301686685
-8.75 20 -57.09106698313313
-8.75 20 -51.27320094939941
-8.75 15.91880651014131 -76.0789545841712
-8.75 5.980548133201707 -76.21821016880185
8.75 5.980548133201706 -76.21821016880185
2.963400964718718 13.04592767670428 -77.15898860838472
-2.963400964718705 13.04592767670428 -77.15898860838472
15.94955600907647 6.606522412788771 -78.47398745568788
12.20726167650525 12.20726167650525 -78.47398745568788
6.606522412788755 15.94955600907647 -78.47398745568788
-1.427612838168616e-14 17.26367502235105 -78.47398745568788
-6.606522412788775 15.94955600907647 -78.47398745568788
-12.20726167650525 12.20726167650525 -78.47398745568788
-15.94955600907647 6.60652241278877 -78.47398745568788
15.94955600907647 6.606522412788771 -81.52601254431212
12.20726167650525 12.20726167650525 -81.52601254431212
6.606522412788755 15.94955600907647 -81.52601254431212
-1.427612838168616e-14 17.26367502235105 -81.52601254431212
-6.606522412788775 15.94955600907647 -81.52601254431212
-12.20726167650525 12.20726167650525 -81.52601254431212
-15.94955600907647 6.60652241278877 -81.52601254431212
-8.75 5.980548133201708 -83.78178983119815
-2.963400964718713 13.04592767670437 -82.84101139161531
2.963400964718727 13.04592767670437 -82.84101139161531
8.75 5.98054813320171 -83.78178983119815
-8.75 15.91880651014131 -83.9210454158288
-8.75 20 -108.7267990506006
-8.75 20 -102.9089330168669
-8.75 20 -97.09106698313313
-8.75 20 -91.27320094939941
-8.75 10.32591205020066 -118.1815550281114
-8.75 15.16295602510034 -116.3631100562229
2.916666666666666 5.488868075300976 -120
-2.916666666666668 5.488868075300976 -120
8.75 15.91880651014131 -83.9210454158288
8.75 20 -108.7267990506006
8.75 20 -102.9089330168669
8.75 20 -97.09106698313313
8.75 20 -91.27320094939941
8.75 10.32591205020066 -118.1815550281114
8.75 15.16295602510034 -116.3631100562229
8.75 15.91880651014127 -43.92104541582878
8.75 20 -68.72679905060058
8.75 20 -62.90893301686685
8.75 20 -57.09106698313313
8.75 20 -51.27320094939941
8.75 15.91880651014131 -76.0789545841712
2.916666666666666 20 -45.45533491566569
-2.916666666666668 20 -45.45533491566569
2.916666666666666 20 -34.54466508433431
-2.916666666666668 20 -34.54466508433431
2.916666666666666 20 -74.54466508433431
-2.916666666666668 20 -74.54466508433431
2.916666666666666 20 -85.45533491566569
-2.916666666666668 20 -85.45533491566569
2.916666666666666 20 -114.5446650843343
-2.916666666666668 20 -114.5446650843343
2.284655356378691 5.814394644068293 -84.40742602607935
-2.28465535637871 5.814394644068286 -84.40742602607935
-1.4210854715202e-14 2.70380620564788 -84.40742602607935
10.07890735142126 2.70380620564788 -82.98997378616005
11.78285751105114 8.890787980965857 -81.52601254431212
6.582040354997904 13.2120621711147 -81.52601254431212
-2.531664604586354e-14 14.76082118475192 -81.52601254431212
-6.582040354997947 13.21206217111468 -81.52601254431212
-11.78285751105114 8.890787980965843 -81.52601254431212
-10.07890735142125 2.70380620564788 -82.98997378616005
10.07890735142126 2.70380620564788 -77.01002621383995
-5.329070518200751e-15 2.70380620564788 -75.59257397392065
-10.07890735142126 2.70380620564788 -77.01002621383995
11.78285751105114 8.890787980965857 -78.47398745568788
6.582040354997904 13.2120621711147 -78.47398745568788
-2.531664604586354e-14 14.76082118475192 -78.47398745568788
-6.582040354997947 13.21206217111468 -78.47398745568788
-11.78285751105114 8.890787980965843 -78.47398745568788
2.284655356378691 5.814394644068293 -75.59257397392066
-2.28465535637871 5.814394644068286 -75.59257397392066
2.284655356378691 5.814394644068293 -44.40742602607934
-2.28465535637871 5.814394644068286 -44.40742602607934
-1.4210854715202e-14 2.70380620564788 -44.40742602607934
10.07890735142126 2.70380620564788 -42.98997378616006
11.78285751105114 8.890787980965857 -41.52601254431212
6.582040354997904 13.2120621711147 -41.52601254431212
-2.531664604586354e-14 14.76082118475192 -41.52601254431212
-6.582040354997947 13.21206217111468 -41.52601254431212
-11.78285751105114 8.890787980965843 -41.52601254431212
-10.07890735142125 2.70380620564788 -42.98997378616006
10.07890735142126 2.70380620564788 -37.01002621383995
-5.329070518200751e-15 2.70380620564788 -35.59257397392066
-10.07890735142126 2.70380620564788 -37.01002621383995
11.78285751105114 8.890787980965857 -38.47398745568788
6.582040354997904 13.2120621711147 -38.47398745568788
-2.531664604586354e-14 14.76082118475192 -38.47398745568788
-6.582040354997947 13.21206217111468 -38.47398745568788
-11.78285751105114 8.890787980965843 -38.47398745568788
2.284655356378691 5.814394644068293 -35.59257397392065
-2.28465535637871 5.814394644068286 -35.59257397392065
-4.23535535571369 0 -87.37347385723942
4.103315091977368 0 -72.47405917913653
4.103315091977362 0 -47.52594082086348
2.984592121168562 0 -30.95454313338011
-8.881784197001252e-16 0 -115.60720980571
-2.449263063852282 0 -99.23766518187961
3.348573931278652 0 -60
3.503921897670255 0 -42.0430763360345
3.912996437717867 0 -79.15880973580425
-2.817172188267772 0 -4.114445958393169
3.104800592772243 0 -19.29628698696035
3.612654458751312 0 -93.3055695195595
2.150105276592527 0 -105.1697608441997
-3.763468971638009 0 -66.70869826131489
-3.348573931278658 0 -53.76297041043173
-3.10480059277225 0 -12.77777219217619
-2.457701772300572 0 -25.67411061407624
3.715298507194741 0 -5.668959496524906
-3.933758681489063 0 -80.91987192292738
2.043165025872439 0 -85.0611846588026
-2.717872785990986 0 -32.74415446934486
-3.463988841779596 0 -39.57704301484856
-2.126386759721001 0 -74.84509197746843
-2.126386759721001 0 -45.15490802253159
-10.34466291107585 0 -80.15331198715455
10.34120253711399 0 -79.85980162263404
-10.26636793779094 0 -39.92950716914142
9.63073011857907 0 -40.00054323117701
2.501604042514031 0 -65.97940900740399
3.489437464798216 0 -53.29130173868511
-3.267817210035462 0 -60.39182930509904
4.226338188328047 0 -25.51090885958113
-3.45829322103987 0 -19.2889623738997
3.525279825467521 0 -11.98628541131778
-3.534560260229341 0 -93.08579019257238
-3.887305403695079 0 -105.1697608441997
3.612654458751331 0 -99.23766518187963
14.03435103712645 0 -40.0001086462354
-14.38632684340777 0 -39.99280685399402
14.39396302701216 0 -79.98569404312593
-14.39431612639602 0 -80.01564408032189
3.685448863880633 0 -111.3732148433362
-3.436288815544486 0 -110.9218591825735
3.431301500909527 0 -36.89838421142858
4.667519915479211 0 -88.56016491457689
-0.7500515469708553 0 -8.292145610227088
-4.74369471082003 0 -71.34019100585927
-4.660715702748158 0 -48.75414272849007
4.581118766596061 0 -115.8472960485565
-4.568147085612303 0 -115.8237977321903
-5.293639838755555 0 -7.174484764337819
0.1817800927723061 0 -89.68712268004356
-0.3286178227411369 0 -70.19904643223994
-0.3286178227411289 0 -49.80095356776007
12.37626138087689 3.926907167821633 -42.97434179792661
-12.37626120465821 3.926907510048254 -42.97434181974454
11.62918490674982 8.023962559777804 -42.58700917743906
-11.62918486477652 8.023961991611131 -42.58700929833819
16.93195834758682 3.367975919292259 -40.02974927674013
-16.93195834758682 3.367975919292263 -40.02974927674014
9.591183954942256 14.35422117775136 -39.97025072325986
-3.367975919292264 16.93195834758682 -40.02974927674013
3.367975919292247 16.93195834758682 -39.97025072325986
-14.35422117775136 9.59118395494226 -40.02974927674014
-9.561917776400486 14.37373311685952 -40
14.35422117775136 9.591183954942265 -40.02974927674013
-12.37626138089178 3.926907167799885 -37.02565820207597
12.37626120464336 3.926907510069975 -37.02565818025289
-11.62918490673417 8.023962559867607 -37.41299082257383
11.6291848647922 8.023961991521457 -37.41299070164894
8.75 10.62604482601907 -33.10342579270891
8.75 14.80647390405995 -18.94698402376488
8.75 5.057704360543504 -12.81110232010099
8.75 5.371668153213284 -25.58094911593692
8.75 5.332649409057017 -19.27923575074583
8.75 15.23533787634867 -25.10928586422817
8.75 14.8751495273495 -12.57231964525477
8.75 15.90159343057434 -31.07823675794064
8.75 9.998824058327466 -8.497179246637881
8.75 5.015231363944842 -31.09276888265462
8.75 9.987152653516157 -15.7770608951428
8.75 10.1669355615663 -22.0489954555169
8.75 4.471000859839926 -7.474075511721864
8.75 15.64146138380205 -7.275686381751905
8.75 10.29899667639453 -27.70505409881841
10.25 3.10416666666666 -3
-10.25 3.104166666666674 -3
11.75 20.125 -1.5
11.75 14.37499999999999 -1.5
11.75 8.624999999999989 -1.5
11.75 2.874999999999994 -1.5
-2.707174061168084 4.878797530676509 0
3.157610638484558 18.22886740495932 0
7.069955745470663 8.71654637064 0
-6.619519168154191 14.39111856499583 0
7.102873022115113 14.37499999999999 0
0.1126091443291166 11.52691623390895 0
-7.000954855602266 8.644857627020135 0
-2.792058517349997 18.15992185565015 0
2.948495529093417 4.721447277005962 0
-7.528051718759411 18.81262893003678 0
7.528051718759419 4.187371069963204 0
7.820492259183635 19.07601590637069 0
-7.553981076842906 4.160878030182232 0
-11.75 20.125 -1.5
-11.75 14.37499999999999 -1.5
-11.75 8.624999999999988 -1.5
-11.75 2.874999999999994 -1.5
-8.75 12.21475194792999 -33.0567390253015
-8.75 14.80647390405996 -18.94698402376488
-8.75 5.057704360543515 -12.81110232010095
-8.75 4.403442907164193 -26.16384566439742
-8.75 4.871230536471607 -19.36001598872327
-8.75 14.8751495273495 -12.57231964525478
-8.75 14.44074898289893 -26.77981356316209
-8.75 9.998824058327509 -8.49717924663786
-8.75 16.63066957145218 -31.77739259427548
-8.75 8.146270942866595 -29.95465442529994
-8.75 9.914121289362386 -16.03702958956824
-8.75 9.430381427137277 -22.87372387581931
-8.75 4.47100085983994 -7.47407551172185
-8.75 15.64146138380207 -7.275686381751902
-8.75 3.474742436683784 -32.12614889482452
-8.75 12.40868064806066 -73.23573179671331
-8.75 10.24096677766768 -48.32480639682001
-8.75 15.04978733636453 -60.07190706910026
-8.75 4.408043478634392 -66.5395684525401
-8.75 5.165812982738369 -53.62846245984434
-8.75 4.950054441234323 -60.02800515206407
-8.75 15.9179862866538 -48.86242360156336
-8.75 14.5418117108987 -67.27903681794953
-8.75 16.63066957145218 -71.77739259427545
-8.75 15.2127221256868 -53.99731827610891
-8.75 8.225635118909249 -70.18993689723064
-8.75 10.07250878344625 -56.88148520521585
-8.75 9.54130681158124 -63.4983232656834
-8.75 4.402333944868476 -48.31691240558622
-8.75 3.442091653880766 -72.28312447601755
-12.37626138089177 3.926907167799901 -77.02565820207597
12.37626120464336 3.926907510069975 -77.02565818025289
11.6291848647922 8.023961991521482 -77.41299070164895
-11.62918471851761 8.023962875343642 -77.41299083077971
-16.93195834758682 3.367975919292263 -80.02974927674015
-14.35422117775136 9.59118395494226 -80.02974927674015
16.93195834758682 3.367975919292259 -80.02974927674015
3.367975919292243 16.93195834758682 -79.97025072325987
9.591183954942254 14.35422117775137 -79.97025072325985
-9.591183954942261 14.35422117775136 -80.02974927674015
14.35422117775136 9.591183954942267 -80.02974927674015
-3.367975919292267 16.93195834758682 -80.02974927674015
-12.3762612046582 3.926907510048298 -82.97434181974455
12.37626138087688 3.926907167821663 -82.97434179792661
11.62918490674984 8.023962559777798 -82.58700917743907
-11.62918486477655 8.023961991611074 -82.5870092983382
-8.75 10.28189552317787 -88.1484627879309
-8.75 15.05380561995559 -105.6788442077446
-8.75 5.137345541248688 -99.23766518187962
-8.75 5.072433043015942 -111.5413745220891
-8.75 15.28301150859513 -93.50115924615125
-8.75 10.5271689532751 -113.5034396202923
-8.75 5.13734554124869 -93.30556951955951
-8.75 4.992695836493267 -105.186566131034
-8.75 14.99016861164741 -99.72087307353037
-8.75 16.29674270838287 -88.45984066299521
-8.75 15.61588760641643 -111.3635881895071
-8.75 6.831763231888633 -116.0520642678665
-8.75 9.883684207478481 -102.232798561052
-8.75 10.11890848889938 -96.02442139501728
-8.75 10.04722389139033 -108.0287445701619
-8.75 4.347137182042847 -88.12646992125318
-8.75 3.119015074584477 -116.6759503610273
5.833333333333333 2.744434037650489 -120
-1.77635683940025e-15 2.744434037650488 -120
-5.833333333333334 2.744434037650488 -120
8.75 10.11750907279232 -87.81282496135817
8.75 15.05380561995559 -105.6788442077446
8.75 5.137345541248688 -99.23766518187962
8.75 5.072433043015943 -111.5413745220891
8.75 15.24673775794823 -93.46882969619047
8.75 10.5271689532751 -113.5034396202923
8.75 5.083973276344025 -93.24270895857458
8.75 4.992695836493267 -105.186566131034
8.75 14.9789159968484 -99.79787451255903
8.75 16.25661066817637 -88.38624718768851
8.75 15.61588760641643 -111.3635881895071
8.75 6.831763231888633 -116.0520642678665
8.75 9.848882945786022 -102.2037130130397
8.75 10.06889409849461 -95.96060272060026
8.75 10.04426460043009 -108.0262713092765
8.75 4.236406096467611 -87.91685429312194
8.75 3.119015074584478 -116.6759503610273
8.75 12.40868064806066 -73.23573179671331
8.75 10.24096677766768 -48.32480639682001
8.75 15.04978733636453 -60.07190706910026
8.75 4.408043478634392 -66.5395684525401
8.75 5.165812982738368 -53.62846245984434
8.75 4.950054441234323 -60.02800515206407
8.75 15.91798628665379 -48.86242360156336
8.75 14.5418117108987 -67.27903681794953
8.75 16.63066957145218 -71.77739259427545
8.75 15.2127221256868 -53.99731827610891
8.75 8.225635118909249 -70.18993689723064
8.75 10.07250878344625 -56.88148520521586
8.75 9.54130681158124 -63.4983232656834
8.75 4.402333944868476 -48.31691240558622
8.75 3.442091653880766 -72.28312447601755
0 16.52640753371824 -44.14946778121793
4.694566339217664 16.53329492445035 -44.15205703637277
-4.694566339217662 16.53329492445035 -44.15205703637277
-7.105427357601002e-15 16.52640753371821 -35.85053221878209
4.694566339217619 16.53329492445031 -35.84794296362724
-4.694566339217628 16.53329492445032 -35.84794296362724
0 20 -8.051814855409225
-1.77635683940025e-15 20 -29.49285022892509
3.286303736618912 20 -18.77233254216713
-3.286303736618912 20 -18.77233254216718
-3.205992254373237 20 -12.68682244616208
3.205992254373236 20 -24.85784263817223
3.691733481885251 20 -11.96004158833671
-3.691733481885251 20 -25.5846234959976
4.570089409065822 20 -7.322480635681217
-4.570089409065821 20 -30.2221844486531
4.570089409065821 20 -30.22218444865309
-4.570089409065822 20 -7.322480635681217
8.812499999999986 23 -1.5
2.937499999999966 23 -1.5
-8.812500000000007 23 -1.5
-2.937500000000027 23 -1.499999999999999
-1.969774254432574 20 -59.99999999999999
0 20 -70.22671990314376
0 20 -49.77328009685623
3.97948480132102 20 -59.99999999999999
3.455167127268446 20 -65.6190966721865
-3.844602581599119 20 -65.99352085830603
-3.694016593663424 20 -53.91931505527088
3.483795165888196 20 -54.36174743051062
4.518724857463699 20 -70.31762859136327
-4.518724857463699 20 -70.31762859136327
4.518724857463699 20 -49.68237140863673
-4.518724857463701 20 -49.68237140863672
3.552713678800501e-15 16.52640753371821 -75.85053221878209
-4.694566339217625 16.53329492445031 -75.84794296362725
4.694566339217627 16.53329492445031 -75.84794296362725
3.552713678800501e-15 16.52640753371825 -84.14946778121792
-4.69456633921766 16.53329492445036 -84.15205703637278
4.694566339217666 16.53329492445036 -84.15205703637278
-3.711580218971983 20 -100
1.77635683940025e-15 20 -89.77328009685624
0 20 -110.2267199031438
3.711580218971983 20 -100
2.561704510562474 20 -105.4282780851012
-3.925821957897206 20 -106.1394329914329
3.607251965484884 20 -93.6670089007153
-2.630210413139828 20 -94.49813261982011
-4.609375415961299 20 -89.29105669948143
4.595674235445828 20 -110.6942254415028
-4.518724857463699 20 -110.3176285913633
4.5187248574637 20 -89.68237140863673
-4.861111111111109 12.7444340376505 -117.2723325421671
4.861111111111111 12.7444340376505 -117.2723325421671
0 9.706349761123064 -118.414474128122
-1.77635683940025e-15 15.78251831417792 -116.1301909562124
-5.055555555555557 16.73798167538575 -115.7709927446542
5.055555555555555 16.73798167538575 -115.7709927446542
5.055555555555555 8.750886399915235 -118.7736723396801
-5.055555555555555 8.750886399915235 -118.7736723396801
7.550845831456819 6.640256928312054 -83.11858718856948
-5.572325615613004 7.696871719996465 -83.30575328433581
-1.089899742229034 9.685335430191687 -83.22309752231976
3.499017291608922 9.305702842383866 -83.15699044018153
-2.585067240568936 2.70380620564788 -80
2.623532678413788 2.70380620564788 -80
-11.55192989447378 2.70380620564788 -80
11.55192989447377 2.70380620564788 -80
7.446130233747695 2.70380620564788 -80
-7.44155101495665 2.70380620564788 -80
-13.50601336082932 5.95562298549203 -79.95838451612167
-3.380898908468887 14.36841552221173 -80.04161548387832
-9.433224319617091 11.3532427519192 -80.04161548387833
13.50601336082932 5.955622985492037 -80.04161548387833
9.433224319617061 11.35324275191922 -80.0416154838783
3.38089890846884 14.36841552221174 -79.95838451612168
7.676498033562815 6.406921623190049 -76.86232507821416
-5.572325615614066 7.696871719997175 -76.6942467156646
-0.9533061910971902 9.707530855005322 -76.77952913915026
3.6682685715726 9.445791427618071 -76.90774775901622
7.550845831456814 6.640256928312055 -43.11858718856947
-5.572325615613002 7.696871719996468 -43.3057532843358
-1.089899742229029 9.685335430191687 -43.22309752231975
3.499017291608921 9.305702842383864 -43.15699044018152
2.585067240568922 2.70380620564788 -40
-2.623532678413802 2.70380620564788 -40
11.55192989447377 2.70380620564788 -40
-11.55192989447378 2.70380620564788 -40
7.441551014956644 2.70380620564788 -40
-7.446130233747706 2.70380620564788 -40
13.52085906614593 5.921841956827336 -40
9.461575755508298 11.32962604285767 -40
-13.50601336082932 5.955622985492024 -39.95838451612168
-3.380898908468887 14.36841552221173 -40.04161548387831
-9.433224319617086 11.3532427519192 -40.04161548387831
3.380898908468837 14.36841552221174 -39.95838451612168
7.676498033562816 6.406921623190048 -36.86232507821416
-5.572325615614059 7.696871719997181 -36.6942467156646
-0.9533061910972008 9.70753085500532 -36.77952913915026
3.668268571572602 9.445791427618069 -36.90774775901622
-1.615374500829603e-14 8.935246474516694 -53.12874909382948
-1.376676550535194e-14 8.738636615028877 -92.97810492857116
-2.131628207280301e-14 9.841011825174888 -67.54769403556517
-1.554312234475219e-14 9.686896713409949 -28.053181639344
0.0002798089825954975 11.31936188212298 -108.483445299347
0.2551969496291679 8.730954857472932 -18.95161337381092
1.77635683940025e-15 11.26174954476488 -10.29583036969019
1.275210193310079 7.474789806689916 -100.7497972826421
1.186188665900831 12.5358448893673 -60.14048921589506
-2.318776757183063 13.88300299087109 -89.66683983340282
3.205743252023324 5.587109706058328 -113.948619179286
-3.222412711199552 5.585194193839238 -113.9725978319803
2.257679651647196 13.91968757285566 -49.64418130917436
-2.930843679896208 13.29357798097812 -102.7183197549992
-2.781311580339116 5.263234878241809 -69.82111527443429
-2.401816122439501 6.185753906708904 -6.509182488040834
2.25112366417063 14.44728245816175 -70.68169187364008
-2.865032441070912 14.20059637584262 -5.497222525242374
2.157074210302622 14.58011731236485 -30.65939470109475
3.211070410028685 13.57695408525086 -22.12862643612039
2.806117153230566 13.84893607448448 -96.57986892160461

CELLS 3193 14057
1 0
1 1
1 2
1 3
1 4
1 5
1 6
1 7
1 8
1 9
1 10
1 11
1 12
1 13
1 14
1 15
1 16
1 17
1 18
1 19
1 20
1 21
1 22
1 23
1 24
1 25
1 26
1 27
1 28
1 29
1 30
1 31
1 32
1 33
1 34
1 35
1 36
1 37
1 38
1 39
1 40
1 41
1 42
1 43
1 44
1 45
1 46
1 47
1 48
1 49
1 50
1 51
1 52
1 53
1 54
1 55
1 56
1 57
1 58
1 59
1 60
1 61
1 62
1 63
1 64
1 65
2 0 66
2 66 1
2 1 2
2 2 67
2 67 3
2 3 68
2 68 69
2 69 70
2 70 71
2 71 4
2 4 5
2 5 6
2 6 72
2 72 73
2 73 74
2 74 7
2 8 7
2 8 9
2 9 75
2 75 76
2 76 77
2 77 78
2 78 10
2 11 79
2 79 10
2 12 11
2 13 80
2 80 12
2 13 81
2 81 82
2 82 83
2 83 84
2 84 14
2 15 85
2 85 14
2 16 15
2 17 86
2 86 16
2 17 87
2 87 88
2 88 89
2 89 90
2 90 91
2 91 18
2 19 92
2 92 93
2 93 18
2 20 94
2 94 95
2 95 96
2 96 97
2 97 98
2 98 19
2 20 99
2 99 21
2 21 22
2 22 100
2 100 23
2 0 101
2 101 102
2 102 103
2 103 104
2 104 23
2 1 105
2 105 106
2 106 107
2 107 108
2 108 109
2 109 110
2 110 111
2 111 12
2 24 112
2 112 13
2 24 113
2 113 114
2 114 25
2 25 115
2 115 0
2 2 116
2 116 117
2 117 118
2 118 119
2 119 120
2 120 121
2 121 122
2 122 11
2 3 123
2 123 26
2 26 124
2 124 125
2 125 27
2 10 126
2 126 27
2 4 127
2 127 128
2 128 28
2 29 129
2 129 130
2 130 131
2 131 132
2 132 28
2 26 133
2 133 29
2 31 134
2 134 135
2 135 136
2 136 30
2 8 137
2 137 138
2 138 139
2 139 31
2 32 140
2 140 141
2 141 9
2 32 142
2 142 143
2 143 28
2 5 144
2 144 145
2 145 146
2 146 30
2 6 147
2 147 148
2 148 149
2 149 33
2 30 33
2 34 150
2 150 151
2 151 152
2 152 33
2 7 153
2 153 154
2 154 155
2 155 34
2 31 34
2 32 156
2 156 157
2 157 158
2 158 159
2 159 35
2 27 160
2 160 35
2 36 161
2 161 24
2 37 162
2 162 163
2 163 164
2 164 165
2 165 36
2 38 166
2 166 37
2 14 167
2 167 38
2 23 168
2 168 39
2 39 169
2 169 170
2 170 38
2 22 171
2 171 172
2 172 173
2 173 174
2 174 175
2 175 176
2 176 177
2 177 15
2 21 178
2 178 179
2 179 180
2 180 181
2 181 182
2 182 183
2 183 184
2 184 16
2 40 185
2 185 17
2 40 186
2 186 187
2 187 41
2 41 188
2 188 20
2 42 189
2 189 40
2 43 190
2 190 191
2 191 192
2 192 193
2 193 42
2 44 194
2 194 195
2 195 43
2 18 44
2 45 196
2 196 197
2 197 44
2 19 45
2 46 198
2 198 41
2 47 199
2 199 200
2 200 201
2 201 202
2 202 46
2 45 203
2 203 204
2 204 47
2 48 205
2 205 25
2 49 206
2 206 207
2 207 208
2 208 209
2 209 48
2 39 210
2 210 49
2 48 211
2 211 212
2 212 36
2 29 213
2 213 214
2 214 35
2 49 215
2 215 216
2 216 37
2 46 217
2 217 218
2 218 42
2 47 219
2 219 220
2 220 43
2 50 221
2 221 222
2 222 51
2 51 223
2 223 50
2 50 224
2 224 52
2 52 225
2 225 226
2 226 227
2 227 228
2 228 229
2 229 53
2 53 230
2 230 51
2 52 54
2 54 231
2 231 55
2 55 232
2 232 56
2 56 233
2 233 57
2 53 57
2 54 234
2 234 235
2 235 236
2 236 237
2 237 238
2 238 57
2 55 239
2 239 240
2 240 56
2 58 241
2 241 242
2 242 59
2 59 243
2 243 58
2 58 244
2 244 60
2 60 245
2 245 246
2 246 247
2 247 248
2 248 249
2 249 61
2 61 250
2 250 59
2 60 62
2 62 251
2 251 63
2 63 252
2 252 64
2 64 253
2 253 65
2 61 65
2 62 254
2 254 255
2 255 256
2 256 257
2 257 258
2 258 65
2 63 259
2 259 260
2 260 64
3 66 288 0
3 0 263 101
3 0 268 263
3 0 288 268
3 2 298 1
3 1 298 66
3 67 298 2
3 3 288 67
3 68 264 3
3 264 304 3
3 3 304 288
3 5 6 4
3 4 6 72
3 4 278 71
3 72 278 4
3 8 9 7
3 7 9 74
3 9 270 74
3 75 311 9
3 9 311 270
3 10 281 78
3 79 287 10
3 10 282 281
3 10 287 282
3 12 299 11
3 11 299 79
3 80 299 12
3 13 287 80
3 81 308 13
3 13 284 282
3 282 287 13
3 13 308 284
3 14 307 84
3 85 285 14
3 279 283 14
3 14 285 279
3 283 307 14
3 16 301 15
3 15 301 85
3 86 301 16
3 17 285 86
3 87 261 17
3 261 279 17
3 279 285 17
3 18 310 91
3 93 310 18
3 19 309 92
3 98 309 19
3 20 305 94
3 99 286 20
3 269 280 20
3 20 286 269
3 280 305 20
3 22 300 21
3 21 300 99
3 100 300 22
3 23 286 100
3 104 262 23
3 262 269 23
3 269 286 23
3 66 298 288
3 288 298 67
3 69 292 68
3 68 292 264
3 70 271 69
3 271 292 69
3 71 294 70
3 70 294 271
3 278 294 71
3 73 278 72
3 74 270 73
3 270 278 73
3 76 276 75
3 276 311 75
3 77 293 76
3 76 293 276
3 78 277 77
3 277 293 77
3 78 281 277
3 79 299 287
3 287 299 80
3 82 275 81
3 275 308 81
3 83 291 82
3 82 291 275
3 84 274 83
3 274 291 83
3 84 307 274
3 85 301 285
3 285 301 86
3 88 295 87
3 87 295 261
3 89 266 88
3 266 295 88
3 90 296 89
3 89 296 266
3 91 303 90
3 90 303 296
3 91 310 303
3 92 265 93
3 92 309 265
3 265 310 93
3 94 272 95
3 94 305 272
3 95 297 96
3 272 297 95
3 96 273 97
3 96 297 273
3 97 302 98
3 273 302 97
3 302 309 98
3 99 300 286
3 286 300 100
3 101 290 102
3 263 290 101
3 102 267 103
3 102 290 267
3 103 289 104
3 267 289 103
3 104 289 262
3 261 280 279
3 261 312 280
3 295 312 261
3 262 283 269
3 262 313 283
3 289 313 262
3 268 284 263
3 284 314 263
3 263 314 290
3 277 281 264
3 264 292 277
3 281 304 264
3 302 303 265
3 265 309 302
3 303 310 265
3 272 295 266
3 266 297 272
3 266 296 273
3 273 297 266
3 267 290 275
3 275 291 267
3 267 291 289
3 282 284 268
3 268 304 282
3 288 304 268
3 279 280 269
3 269 283 279
3 270 306 278
3 270 311 306
3 276 293 271
3 271 294 276
3 277 292 271
3 271 293 277
3 272 312 295
3 305 312 272
3 296 303 273
3 273 303 302
3 289 291 274
3 274 313 289
3 307 313 274
3 290 314 275
3 275 314 308
3 294 306 276
3 306 311 276
3 278 306 294
3 280 312 305
3 282 304 281
3 283 313 307
3 308 314 284
3 0 315 66
3 115 315 0
3 66 315 1
3 1 315 105
3 12 316 80
3 111 316 12
3 80 316 13
3 13 316 112
3 109 24 110
3 113 24 109
3 24 318 110
3 112 318 24
3 106 25 107
3 106 317 25
3 114 107 25
3 25 317 115
3 105 317 106
3 315 317 105
3 108 107 114
3 109 108 113
3 113 108 114
3 110 318 111
3 111 318 316
3 316 318 112
3 115 317 315
3 1 319 2
3 105 319 1
3 2 319 116
3 11 320 12
3 122 320 11
3 12 320 111
3 106 326 105
3 116 319 105
3 105 326 116
3 107 321 106
3 106 321 117
3 117 326 106
3 108 323 107
3 118 321 107
3 107 323 118
3 109 322 108
3 108 322 119
3 119 323 108
3 110 325 109
3 120 322 109
3 109 325 120
3 111 324 110
3 110 324 121
3 121 325 110
3 111 320 122
3 122 324 111
3 116 326 117
3 117 321 118
3 118 323 119
3 119 322 120
3 120 325 121
3 121 324 122
3 2 328 67
3 116 328 2
3 67 328 3
3 3 328 123
3 10 327 79
3 126 327 10
3 79 327 11
3 11 327 122
3 117 118 26
3 26 330 117
3 26 118 124
3 123 330 26
3 120 121 27
3 120 27 125
3 121 329 27
3 27 329 126
3 117 330 116
3 116 330 328
3 124 118 119
3 120 125 119
3 124 119 125
3 122 329 121
3 327 329 122
3 328 330 123
3 126 329 327
3 3 340 68
3 123 340 3
3 71 343 4
3 4 343 127
3 26 331 123
3 133 331 26
3 128 344 28
3 28 344 132
3 129 338 29
3 29 338 133
3 68 334 69
3 68 340 334
3 69 335 70
3 334 335 69
3 70 333 71
3 70 335 333
3 333 343 71
3 331 340 123
3 127 339 128
3 127 343 339
3 339 344 128
3 130 336 129
3 336 338 129
3 131 332 130
3 332 336 130
3 132 337 131
3 131 337 332
3 132 344 337
3 133 338 331
3 338 345 331
3 331 345 340
3 332 342 336
3 337 341 332
3 341 342 332
3 335 341 333
3 333 341 339
3 339 343 333
3 334 342 335
3 340 345 334
3 334 345 342
3 335 342 341
3 336 345 338
3 342 345 336
3 339 341 337
3 337 344 339
3 5 4 346
3 4 127 346
3 144 5 346
3 9 8 347
3 8 137 347
3 141 9 347
3 30 28 136
3 146 28 30
3 128 28 146
3 28 143 136
3 31 134 32
3 31 32 139
3 134 142 32
3 139 32 140
3 128 145 127
3 127 145 144
3 127 144 346
3 145 128 146
3 142 134 135
3 143 135 136
3 143 142 135
3 137 138 141
3 137 141 347
3 138 139 140
3 138 140 141
3 5 351 6
3 144 351 5
3 6 351 147
3 33 348 30
3 30 348 146
3 149 348 33
3 145 350 144
3 144 350 147
3 147 351 144
3 146 349 145
3 145 349 148
3 148 350 145
3 146 348 149
3 149 349 146
3 147 350 148
3 148 349 149
3 6 362 72
3 147 362 6
3 74 364 7
3 7 364 153
3 33 363 149
3 152 363 33
3 34 361 150
3 155 361 34
3 72 360 73
3 72 362 360
3 73 352 74
3 73 360 352
3 352 364 74
3 148 354 147
3 354 362 147
3 149 356 148
3 148 356 354
3 149 363 356
3 150 359 151
3 150 361 359
3 151 353 152
3 151 359 353
3 353 363 152
3 153 358 154
3 153 364 358
3 154 355 155
3 154 358 355
3 355 361 155
3 357 358 352
3 352 360 357
3 358 364 352
3 353 357 356
3 356 363 353
3 353 359 357
3 356 357 354
3 357 360 354
3 360 362 354
3 355 358 357
3 357 359 355
3 359 361 355
3 8 7 368
3 7 153 368
3 137 8 368
3 34 31 365
3 31 139 365
3 155 34 365
3 138 137 367
3 137 153 367
3 153 137 368
3 139 138 366
3 138 154 366
3 154 138 367
3 139 155 365
3 155 139 366
3 153 154 367
3 154 155 366
3 75 9 381
3 9 141 381
3 10 78 383
3 126 10 383
3 27 126 369
3 160 27 369
3 140 32 382
3 32 156 382
3 159 35 377
3 35 160 377
3 76 75 371
3 371 75 381
3 77 76 373
3 76 371 373
3 78 77 372
3 372 77 373
3 78 372 383
3 369 126 378
3 378 126 383
3 141 140 376
3 376 140 382
3 141 376 381
3 156 157 374
3 156 374 382
3 157 158 370
3 157 370 374
3 158 159 375
3 370 158 375
3 375 159 377
3 160 369 377
3 369 375 377
3 375 369 378
3 374 370 379
3 370 375 380
3 379 370 380
3 373 371 379
3 371 376 379
3 376 371 381
3 372 373 380
3 378 372 380
3 372 378 383
3 373 379 380
3 376 374 379
3 374 376 382
3 375 378 380
3 81 13 397
3 13 112 397
3 14 84 398
3 167 14 398
3 112 24 385
3 24 161 385
3 161 36 390
3 36 165 390
3 162 37 392
3 37 166 392
3 166 38 384
3 38 167 384
3 82 81 388
3 388 81 397
3 83 82 389
3 82 388 389
3 84 83 387
3 387 83 389
3 84 387 398
3 112 385 397
3 385 161 390
3 163 162 391
3 391 162 392
3 164 163 386
3 386 163 391
3 165 164 393
3 164 386 393
3 390 165 393
3 166 384 392
3 384 167 394
3 394 167 398
3 384 391 392
3 391 384 394
3 388 385 395
3 385 388 397
3 385 390 393
3 385 393 395
3 386 391 396
3 393 386 395
3 395 386 396
3 387 389 396
3 394 387 396
3 387 394 398
3 389 388 395
3 389 395 396
3 391 394 396
3 14 399 85
3 167 399 14
3 85 399 15
3 15 399 177
3 22 400 100
3 171 400 22
3 100 400 23
3 23 400 168
3 38 402 167
3 175 38 170
3 175 176 38
3 176 402 38
3 168 401 39
3 39 173 169
3 172 173 39
3 39 401 172
3 167 402 399
3 400 401 168
3 169 174 170
3 169 173 174
3 175 170 174
3 172 401 171
3 171 401 400
3 177 402 176
3 399 402 177
3 15 403 16
3 177 403 15
3 16 403 184
3 21 405 22
3 178 405 21
3 22 405 171
3 171 409 172
3 171 405 178
3 178 409 171
3 172 407 173
3 179 407 172
3 172 409 179
3 173 406 174
3 180 406 173
3 173 407 180
3 174 410 175
3 174 406 181
3 181 410 174
3 175 408 176
3 182 408 175
3 175 410 182
3 176 404 177
3 183 404 176
3 176 408 183
3 184 403 177
3 177 404 184
3 179 409 178
3 180 407 179
3 181 406 180
3 182 410 181
3 183 408 182
3 184 404 183
3 16 411 86
3 184 411 16
3 86 411 17
3 17 411 185
3 20 412 99
3 188 412 20
3 99 412 21
3 21 412 178
3 182 40 183
3 186 40 182
3 40 414 183
3 185 414 40
3 179 41 180
3 179 413 41
3 187 180 41
3 41 413 188
3 178 413 179
3 412 413 178
3 181 180 187
3 182 181 186
3 186 181 187
3 183 414 184
3 184 414 411
3 411 414 185
3 188 413 412
3 87 17 430
3 17 185 430
3 44 18 431
3 18 91 431
3 185 40 415
3 40 189 415
3 189 42 424
3 42 193 424
3 190 43 425
3 43 195 425
3 194 44 426
3 426 44 431
3 88 87 421
3 421 87 430
3 89 88 417
3 417 88 421
3 90 89 422
3 89 417 422
3 91 90 418
3 418 90 422
3 91 418 431
3 185 415 430
3 415 189 424
3 191 190 416
3 416 190 425
3 192 191 423
3 191 416 423
3 193 192 419
3 419 192 423
3 193 419 424
3 195 194 420
3 420 194 426
3 195 420 425
3 419 415 424
3 415 419 428
3 421 415 428
3 415 421 430
3 423 416 427
3 416 425 429
3 427 416 429
3 417 421 428
3 422 417 427
3 427 417 428
3 418 420 426
3 420 418 429
3 418 422 429
3 418 426 431
3 419 423 428
3 425 420 429
3 422 427 429
3 423 427 428
3 44 434 18
3 18 434 93
3 19 432 45
3 92 432 19
3 197 434 44
3 45 432 196
3 93 433 92
3 196 432 92
3 92 433 196
3 197 433 93
3 93 434 197
3 196 433 197
3 45 451 19
3 19 451 98
3 94 450 20
3 20 450 188
3 188 435 41
3 41 435 198
3 203 446 45
3 446 451 45
3 198 444 46
3 46 444 202
3 199 445 47
3 47 445 204
3 95 441 94
3 441 450 94
3 96 437 95
3 437 441 95
3 97 442 96
3 96 442 437
3 98 438 97
3 438 442 97
3 98 451 438
3 188 450 435
3 435 444 198
3 200 436 199
3 436 445 199
3 201 443 200
3 200 443 436
3 202 439 201
3 439 443 201
3 202 444 439
3 204 440 203
3 440 446 203
3 204 445 440
3 439 444 435
3 435 448 439
3 441 448 435
3 435 450 441
3 443 447 436
3 436 449 445
3 447 449 436
3 437 448 441
3 442 447 437
3 447 448 437
3 438 446 440
3 440 449 438
3 438 449 442
3 438 451 446
3 439 448 443
3 445 449 440
3 442 449 447
3 443 448 447
3 101 465 0
3 0 465 115
3 23 466 104
3 168 466 23
3 115 453 25
3 25 453 205
3 39 452 168
3 210 452 39
3 205 458 48
3 48 458 209
3 206 460 49
3 49 460 210
3 102 456 101
3 456 465 101
3 103 457 102
3 102 457 456
3 104 455 103
3 455 457 103
3 104 466 455
3 115 465 453
3 452 462 168
3 462 466 168
3 453 458 205
3 207 459 206
3 459 460 206
3 208 454 207
3 454 459 207
3 209 461 208
3 208 461 454
3 458 461 209
3 210 460 452
3 452 460 459
3 459 462 452
3 456 463 453
3 453 465 456
3 453 461 458
3 453 463 461
3 454 464 459
3 461 463 454
3 463 464 454
3 455 464 457
3 462 464 455
3 455 466 462
3 457 463 456
3 457 464 463
3 459 464 462
3 113 469 24
3 24 469 161
3 25 468 114
3 205 468 25
3 161 469 36
3 36 469 212
3 48 468 205
3 211 468 48
3 114 467 113
3 467 469 113
3 114 468 467
3 212 467 211
3 467 468 211
3 212 469 467
3 124 471 26
3 26 471 133
3 27 472 125
3 160 472 27
3 133 471 29
3 29 471 213
3 35 472 160
3 214 472 35
3 125 470 124
3 470 471 124
3 125 472 470
3 213 470 214
3 213 471 470
3 470 472 214
3 132 481 28
3 28 481 143
3 29 483 129
3 213 483 29
3 142 484 32
3 32 484 156
3 159 482 35
3 35 482 214
3 129 478 130
3 129 483 478
3 130 475 131
3 130 478 475
3 131 479 132
3 475 479 131
3 479 481 132
3 143 473 142
3 473 484 142
3 143 481 473
3 156 477 157
3 156 484 477
3 157 476 158
3 157 477 476
3 158 480 159
3 476 480 158
3 480 482 159
3 214 474 213
3 474 483 213
3 214 482 474
3 473 479 477
3 477 484 473
3 473 481 479
3 474 480 478
3 478 483 474
3 474 482 480
3 476 477 475
3 475 478 476
3 477 479 475
3 478 480 476
3 30 485 33
3 136 485 30
3 34 487 31
3 31 487 134
3 33 485 152
3 150 487 34
3 134 488 135
3 134 487 150
3 150 488 134
3 135 486 136
3 151 486 135
3 135 488 151
3 152 485 136
3 136 486 152
3 151 488 150
3 152 486 151
3 36 500 165
3 212 500 36
3 162 498 37
3 37 498 216
3 209 499 48
3 48 499 211
3 49 497 206
3 215 497 49
3 163 494 162
3 494 498 162
3 164 489 163
3 489 494 163
3 165 495 164
3 164 495 489
3 165 500 495
3 206 493 207
3 206 497 493
3 207 492 208
3 207 493 492
3 208 496 209
3 492 496 208
3 496 499 209
3 211 491 212
3 211 499 491
3 491 500 212
3 216 490 215
3 490 497 215
3 216 498 490
3 492 493 489
3 489 496 492
3 493 494 489
3 495 496 489
3 490 494 493
3 493 497 490
3 490 498 494
3 491 496 495
3 495 500 491
3 491 499 496
3 37 502 166
3 216 502 37
3 166 502 38
3 38 502 170
3 169 503 39
3 39 503 210
3 210 503 49
3 49 503 215
3 170 501 169
3 501 503 169
3 170 502 501
3 215 501 216
3 215 503 501
3 501 502 216
3 186 505 40
3 40 505 189
3 41 506 187
3 198 506 41
3 189 505 42
3 42 505 218
3 46 506 198
3 217 506 46
3 187 504 186
3 504 505 186
3 187 506 504
3 218 504 217
3 504 506 217
3 218 505 504
3 42 515 193
3 218 515 42
3 190 517 43
3 43 517 220
3 202 518 46
3 46 518 217
3 47 516 199
3 219 516 47
3 191 512 190
3 512 517 190
3 192 507 191
3 507 512 191
3 193 514 192
3 192 514 507
3 193 515 514
3 199 511 200
3 199 516 511
3 200 510 201
3 200 511 510
3 201 513 202
3 510 513 201
3 513 518 202
3 217 508 218
3 217 518 508
3 508 515 218
3 220 509 219
3 509 516 219
3 220 517 509
3 510 511 507
3 507 514 510
3 511 512 507
3 513 514 508
3 508 518 513
3 514 515 508
3 509 512 511
3 511 516 509
3 509 517 512
3 510 514 513
3 43 523 195
3 220 523 43
3 194 526 44
3 44 526 197
3 196 525 45
3 45 525 203
3 204 524 47
3 47 524 219
3 195 519 194
3 519 526 194
3 195 523 519
3 197 521 196
3 521 525 196
3 197 526 521
3 203 520 204
3 203 525 520
3 520 524 204
3 219 522 220
3 219 524 522
3 522 523 220
3 519 522 521
3 521 526 519
3 519 523 522
3 521 522 520
3 520 525 521
3 522 524 520
3 221 223 50
3 223 222 51
3 222 223 221
3 221 50 527
3 50 224 527
3 51 222 528
3 230 51 528
3 52 225 224
3 229 53 230
3 222 221 529
3 221 527 530
3 529 221 530
3 528 222 529
3 224 225 527
3 225 226 527
3 226 227 530
3 527 226 530
3 227 228 529
3 227 529 530
3 228 229 528
3 228 528 529
3 229 230 528
3 223 532 50
3 50 535 224
3 532 535 50
3 51 531 223
3 230 536 51
3 51 536 531
3 52 534 54
3 224 534 52
3 57 533 53
3 53 533 230
3 54 534 231
3 231 535 55
3 55 532 232
3 55 535 532
3 232 531 56
3 56 536 233
3 531 536 56
3 233 533 57
3 531 532 223
3 224 535 534
3 533 536 230
3 534 535 231
3 232 532 531
3 233 536 533
3 52 54 540
3 225 52 540
3 57 53 537
3 53 229 537
3 54 234 540
3 238 57 537
3 226 225 541
3 234 225 540
3 225 234 541
3 227 226 542
3 235 226 541
3 226 235 542
3 228 227 538
3 227 236 538
3 236 227 542
3 229 228 539
3 237 228 538
3 228 237 539
3 229 238 537
3 238 229 539
3 234 235 541
3 235 236 542
3 236 237 538
3 237 238 539
3 54 231 234
3 231 55 543
3 55 239 543
3 56 233 544
3 240 56 544
3 238 233 57
3 234 231 543
3 233 238 544
3 235 234 543
3 236 235 546
3 235 543 546
3 237 236 545
3 545 236 546
3 238 237 544
3 544 237 545
3 239 240 545
3 543 239 546
3 239 545 546
3 240 544 545
3 232 239 55
3 240 232 56
3 240 239 232
3 241 243 58
3 243 242 59
3 242 243 241
3 241 58 547
3 58 244 547
3 59 242 548
3 250 59 548
3 60 245 244
3 249 61 250
3 242 241 549
3 241 547 550
3 549 241 550
3 548 242 549
3 244 245 547
3 245 246 547
3 246 247 550
3 547 246 550
3 247 248 549
3 247 549 550
3 248 249 548
3 248 548 549
3 249 250 548
3 243 551 58
3 58 555 244
3 551 555 58
3 59 552 243
3 250 556 59
3 59 556 552
3 60 553 62
3 244 553 60
3 65 554 61
3 61 554 250
3 62 553 251
3 251 555 63
3 63 551 252
3 63 555 551
3 252 552 64
3 64 556 253
3 552 556 64
3 253 554 65
3 243 552 551
3 244 555 553
3 554 556 250
3 553 555 251
3 551 552 252
3 253 556 554
3 60 62 557
3 245 60 557
3 65 61 559
3 61 249 559
3 62 254 557
3 258 65 559
3 246 245 558
3 254 245 557
3 245 254 558
3 247 246 562
3 255 246 558
3 246 255 562
3 248 247 560
3 247 256 560
3 256 247 562
3 249 248 561
3 257 248 560
3 248 257 561
3 249 258 559
3 258 249 561
3 254 255 558
3 255 256 562
3 256 257 560
3 257 258 561
3 62 251 254
3 251 63 563
3 63 259 563
3 64 253 564
3 260 64 564
3 258 253 65
3 254 251 563
3 253 258 564
3 255 254 563
3 256 255 566
3 255 563 566
3 257 256 565
3 565 256 566
3 258 257 564
3 564 257 565
3 259 260 565
3 563 259 566
3 259 565 566
3 260 564 565
3 252 259 63
3 260 252 64
3 252 260 259
4 126 10 327 253
4 312 221 222 223
4 389 569 396 575
4 243 314 242 241
4 242 314 308 567
4 397 242 308 567
4 328 254 62 251
4 400 234 54 231
4 245 60 244 315
4 225 52 224 412
4 249 316 250 61
4 411 229 53 230
4 233 238 57 399
4 253 258 65 327
4 249 248 548 24
4 229 228 528 40
4 167 14 399 233
4 113 109 24 248
4 186 182 40 228
4 261 222 312 568
4 389 291 569 575
4 564 258 27 257
4 238 237 38 544
4 406 235 236 542
4 114 25 107 246
4 187 41 180 226
4 464 455 457 569
4 175 170 38 237
4 120 125 27 257
4 436 447 443 587
4 387 396 389 581
4 481 344 143 584
4 457 464 569 575
4 246 245 547 25
4 527 226 225 41
4 314 242 241 567
4 296 571 422 574
4 26 124 118 255
4 39 169 173 235
4 260 378 383 570
4 422 571 296 578
4 389 567 291 575
4 260 383 281 570
4 337 572 573 586
4 430 222 261 568
4 436 580 447 587
4 498 392 502 583
4 396 569 389 581
4 436 571 447 580
4 222 221 312 568
4 255 254 26 563
4 235 234 39 543
4 312 221 305 568
4 128 143 344 584
4 337 332 341 586
4 450 305 221 568
4 323 246 562 247
4 406 226 542 227
4 252 259 260 570
4 314 241 263 567
4 498 391 392 583
4 262 239 462 466
4 337 341 572 586
4 337 572 341 573
4 263 241 465 567
4 289 457 455 569
4 502 392 384 583
4 294 333 572 573
4 262 462 239 569
4 571 574 447 580
4 447 580 574 587
4 472 482 377 585
4 292 334 570 572
4 387 389 291 581
4 389 569 291 581
4 343 333 294 573
4 128 344 573 584
4 262 569 239 581
4 417 296 422 574
4 500 390 393 579
4 380 572 570 586
4 267 457 569 575
4 481 573 344 584
4 391 384 392 583
4 380 570 375 586
4 281 252 260 570
4 337 573 475 586
4 294 343 573 582
4 292 335 334 572
4 380 372 570 572
4 370 572 380 586
4 472 377 369 585
4 466 462 262 455
4 377 570 369 585
4 482 375 377 585
4 291 274 387 581
4 370 375 480 586
4 337 479 475 573
4 273 571 296 574
4 518 444 506 576
4 390 567 393 579
4 373 371 293 572
4 375 570 480 586
4 380 373 372 572
4 337 475 332 586
4 370 380 375 586
4 389 395 567 575
4 439 444 518 576
4 476 374 370 573
4 519 523 425 571
4 262 455 462 569
4 520 445 524 571
4 469 390 500 579
4 372 383 378 570
4 429 571 422 578
4 422 574 571 580
4 524 445 516 571
4 442 571 449 577
4 273 571 442 577
4 422 427 417 574
4 267 569 291 575
4 342 570 334 572
4 314 263 290 567
4 510 436 443 587
4 430 415 222 568
4 396 569 391 575
4 528 230 185 51
4 422 427 574 580
4 524 516 522 571
4 418 429 422 578
4 263 465 290 567
4 425 523 517 571
4 267 567 457 575
4 548 250 112 59
4 476 370 572 573
4 442 449 438 577
4 273 442 571 574
4 127 360 354 582
4 386 396 391 575
4 391 569 494 575
4 571 577 273 578
4 511 580 436 587
4 261 312 295 568
4 379 371 572 573
4 428 423 419 580
4 267 291 567 575
4 375 570 377 585
4 277 570 372 572
4 522 517 523 571
4 384 170 502 583
4 397 308 388 567
4 519 425 420 571
4 495 567 393 575
4 445 520 440 571
4 450 441 305 568
4 506 435 187 576
4 429 427 422 580
4 276 572 371 573
4 341 572 333 573
4 377 375 369 570
4 429 422 571 580
4 444 435 506 576
4 343 339 333 573
4 397 385 242 567
4 294 278 343 582
4 369 125 472 585
4 568 576 439 587
4 386 391 494 575
4 504 508 518 576
4 422 296 303 578
4 439 576 518 587
4 289 267 457 569
4 346 351 5 144
4 137 8 347 368
4 389 396 395 575
4 373 277 372 572
4 335 342 334 572
4 374 476 477 573
4 128 573 357 584
4 430 261 295 568
4 439 435 444 576
4 428 576 568 587
4 567 575 495 579
4 516 445 436 571
4 570 572 342 586
4 428 580 419 587
4 340 331 259 570
4 423 514 419 580
4 373 293 277 572
4 128 344 339 573
4 390 385 567 579
4 384 569 170 583
4 522 523 519 571
4 495 500 393 579
4 520 524 522 571
4 260 565 564 570
4 516 509 522 571
4 313 289 262 581
4 289 455 262 569
4 292 570 277 572
4 276 294 572 573
4 449 571 442 574
4 390 469 385 579
4 253 564 126 64
4 549 241 242 567
4 435 530 187 576
4 449 447 436 571
4 511 571 436 580
4 428 419 576 587
4 221 435 450 568
4 369 570 125 585
4 233 544 167 56
4 428 417 427 574
4 264 259 252 570
4 522 509 517 571
4 266 417 568 574
4 260 564 378 570
4 428 568 417 574
4 294 306 278 582
4 302 442 438 577
4 425 517 416 571
4 113 385 469 579
4 463 457 567 575
4 360 357 354 582
4 500 491 467 579
4 428 568 580 587
4 391 569 384 583
4 465 456 290 567
4 416 517 512 571
4 391 498 494 583
4 256 566 124 565
4 236 546 169 545
4 566 259 331 570
4 529 221 222 568
4 545 170 384 569
4 370 480 476 586
4 289 569 262 581
4 292 334 264 570
4 242 385 549 567
4 371 276 573 582
4 504 518 506 576
4 514 419 580 587
4 266 296 417 574
4 449 442 447 574
4 241 453 465 567
4 482 480 375 585
4 473 573 481 584
4 495 393 567 579
4 439 568 435 576
4 340 264 334 570
4 417 421 266 568
4 344 481 479 573
4 495 393 386 575
4 550 247 114 549
4 530 227 187 529
4 340 259 264 570
4 342 345 334 570
4 385 113 549 579
4 420 519 571 578
4 440 571 520 577
4 187 504 506 576
4 385 393 390 567
4 303 273 577 578
4 482 474 480 585
4 272 437 297 574
4 267 289 291 569
4 469 500 467 579
4 371 276 293 572
4 320 61 12 111
4 53 16 403 184
4 178 52 21 405
4 105 60 1 319
4 143 473 481 584
4 508 504 518 217
4 449 447 571 574
4 510 511 436 587
4 421 430 295 568
4 312 305 272 568
4 373 379 371 572
4 302 273 442 577
4 113 469 467 579
4 479 337 344 573
4 267 456 457 567
4 496 495 575 579
4 242 59 397 308
4 292 271 335 572
4 462 546 239 569
4 388 275 389 567
4 570 585 480 586
4 276 294 573 582
4 222 568 415 576
4 435 568 530 576
4 495 386 489 575
4 522 523 517 220
4 418 422 303 578
4 498 501 490 583
4 369 565 125 570
4 522 219 516 524
4 428 574 427 580
4 482 214 474 470
4 514 576 419 587
4 216 498 501 490
4 212 467 500 491
4 333 335 271 572
4 281 264 252 570
4 429 420 425 571
4 440 449 445 571
4 519 521 522 571
4 520 522 521 571
4 340 345 331 570
4 428 568 574 580
4 170 501 502 583
4 333 341 335 572
4 389 275 291 567
4 393 567 395 575
4 221 529 530 568
4 391 494 569 583
4 312 222 261 223
4 260 383 64 281
4 480 570 375 585
4 290 456 267 567
4 475 479 477 573
4 116 2 62 319
4 320 11 65 122
4 403 15 57 177
4 22 54 171 405
4 275 308 314 567
4 242 308 314 243
4 545 569 384 581
4 370 476 572 586
4 544 240 545 581
4 276 306 294 582
4 521 571 519 578
4 463 457 456 567
4 395 388 389 567
4 521 520 571 577
4 502 501 498 583
4 417 428 421 568
4 333 271 294 572
4 125 470 472 585
4 516 436 511 571
4 494 489 386 575
4 240 239 545 581
4 385 549 567 579
4 221 530 435 568
4 214 482 472 470
4 569 575 459 583
4 261 430 51 222
4 510 580 511 587
4 481 473 479 573
4 517 509 512 571
4 421 295 266 568
4 220 517 522 509
4 529 222 528 576
4 345 570 342 586
4 297 437 442 574
4 538 227 182 410
4 109 247 322 560
4 509 522 219 516
4 495 491 500 579
4 425 416 429 571
4 498 490 494 583
4 305 221 50 450
4 369 564 565 570
4 545 170 569 583
4 529 568 222 576
4 445 449 436 571
4 545 384 544 581
4 441 437 272 574
4 574 580 568 587
4 216 498 502 501
4 504 506 518 217
4 500 469 467 212
4 459 569 464 575
4 334 345 340 570
4 482 472 470 585
4 429 420 571 578
4 440 449 571 577
4 416 571 512 580
4 9 141 347 364
4 339 341 333 573
4 127 4 346 362
4 394 384 569 581
4 314 243 263 241
4 393 395 386 575
4 302 303 273 577
4 262 55 239 466
4 476 475 477 573
4 549 241 567 579
4 312 221 223 305
4 382 374 484 584
4 493 459 575 583
4 369 378 564 570
4 482 470 474 585
4 421 415 430 568
4 435 441 450 568
4 530 568 529 576
4 248 247 109 560
4 228 227 182 538
4 371 573 376 582
4 331 566 570 585
4 379 376 371 573
4 305 441 272 568
4 17 411 86 230
4 453 567 241 579
4 462 546 569 583
4 544 384 394 581
4 385 548 242 549
4 23 400 100 231
4 315 0 66 244
4 256 120 322 560
4 236 175 410 538
4 222 415 528 576
4 441 272 568 574
4 337 339 344 573
4 513 439 518 587
4 514 423 507 580
4 441 448 437 574
4 516 511 509 571
4 394 384 391 569
4 545 239 546 569
4 187 530 529 576
4 271 292 277 572
4 241 58 263 465
4 462 455 464 569
4 461 496 575 579
4 275 388 308 567
4 259 565 260 570
4 386 395 396 575
4 371 76 373 293
4 453 456 465 567
4 397 388 385 567
4 549 550 241 579
4 125 570 565 585
4 297 266 272 574
4 339 337 341 573
4 544 545 170 384
4 277 292 264 570
4 345 331 570 585
4 380 372 378 570
4 327 10 79 253
4 550 453 241 579
4 448 568 439 587
4 528 222 430 415
4 433 196 197 578
4 376 379 374 573
4 492 454 496 575
4 441 568 448 574
4 565 257 564 125
4 545 237 544 170
4 229 230 414 185
4 478 480 474 585
4 564 125 369 565
4 257 256 560 120
4 237 236 538 175
4 277 264 281 570
4 275 290 267 567
4 89 422 417 296
4 250 249 112 318
4 412 20 99 224
4 493 459 454 575
4 459 462 464 569
4 391 396 394 569
4 297 442 273 574
4 459 464 454 575
4 437 96 297 442
4 335 69 292 334
4 225 52 178 540
4 57 238 537 177
4 65 258 559 122
4 266 568 272 574
4 509 511 512 571
4 489 496 495 575
4 429 571 416 580
4 13 316 80 250
4 493 454 492 575
4 399 14 85 233
4 370 379 380 572
4 521 577 571 578
4 227 182 410 181
4 247 109 322 108
4 236 173 406 174
4 378 369 375 570
4 493 494 490 583
4 251 3 67 328
4 293 271 277 572
4 463 464 457 575
4 291 275 267 567
4 328 254 251 330
4 400 234 231 401
4 244 317 245 315
4 224 413 225 412
4 276 294 271 572
4 573 582 357 584
4 548 397 385 242
4 507 514 580 587
4 259 566 565 570
4 295 312 272 568
4 336 585 345 586
4 411 229 230 414
4 249 316 318 250
4 329 253 327 258
4 233 402 238 399
4 494 493 489 575
4 244 317 547 245
4 224 413 527 225
4 478 480 585 586
4 448 435 439 568
4 245 60 105 557
4 254 62 557 116
4 394 569 396 581
4 491 495 496 579
4 239 569 545 581
4 375 380 378 570
4 276 271 293 572
4 462 569 459 583
4 373 380 379 572
4 545 569 546 583
4 564 378 383 260
4 295 272 266 568
4 429 418 420 578
4 440 438 449 577
4 374 573 477 584
4 297 272 95 437
4 376 573 374 584
4 335 341 342 572
4 329 253 258 126
4 33 363 152 485
4 513 508 514 587
4 259 264 63 340
4 150 34 487 361
4 56 398 240 544
4 275 314 290 567
4 120 119 256 322
4 175 174 236 410
4 233 402 167 238
4 462 452 546 583
4 254 251 330 563
4 234 231 401 543
4 345 585 570 586
4 61 249 111 559
4 234 54 540 171
4 53 229 184 537
4 438 442 302 97
4 70 335 271 333
4 413 224 527 188
4 433 577 196 578
4 504 187 529 576
4 564 383 64 260
4 484 374 477 584
4 376 374 382 584
4 437 447 442 574
4 461 496 454 575
4 248 549 548 113
4 228 529 528 186
4 415 568 428 576
4 475 337 332 131
4 477 479 473 573
4 56 240 398 581
4 368 153 7 364
4 296 90 422 303
4 351 362 6 147
4 512 571 511 580
4 528 186 529 576
4 387 83 274 291
4 446 432 451 577
4 28 344 128 143
4 83 387 389 291
4 383 372 78 277
4 317 244 547 115
4 467 549 113 579
4 33 149 363 348
4 141 376 140 584
4 394 396 387 581
4 342 572 341 586
4 434 426 431 578
4 415 421 428 568
4 90 418 422 303
4 34 365 361 155
4 141 582 376 584
4 508 576 514 587
4 393 385 395 567
4 141 140 358 584
4 440 520 525 577
4 293 371 76 276
4 420 526 519 578
4 255 563 26 566
4 235 543 39 546
4 446 196 432 577
4 125 565 470 585
4 197 426 434 578
4 141 358 582 584
4 344 28 481 143
4 453 463 567 579
4 489 492 496 575
4 448 441 435 568
4 545 501 170 583
4 467 114 549 579
4 150 488 151 359
4 337 475 479 131
4 448 574 568 587
4 566 565 570 585
4 381 270 9 311
4 271 294 70 333
4 143 142 473 584
4 366 154 355 155
4 259 563 331 340
4 266 89 417 296
4 262 466 455 104
4 186 504 529 576
4 273 297 96 442
4 281 383 78 277
4 416 191 423 580
4 483 338 336 585
4 151 353 486 152
4 9 141 364 270
4 416 512 191 580
4 492 489 493 575
4 477 573 473 584
4 470 565 124 585
4 441 95 272 437
4 525 446 440 577
4 463 456 453 567
4 395 385 388 567
4 156 484 382 374
4 371 381 75 311
4 526 420 426 578
4 545 169 501 583
4 143 135 486 136
4 134 488 142 135
4 548 385 113 549
4 265 577 433 578
4 360 278 270 582
4 364 270 141 582
4 265 309 433 577
4 239 543 462 466
4 196 433 309 577
4 102 267 456 457
4 521 525 520 577
4 375 480 158 370
4 331 124 566 585
4 521 519 526 578
4 314 308 284 243
4 55 543 239 466
4 428 427 423 580
4 270 311 381 582
4 310 265 433 578
4 310 433 197 578
4 447 574 448 587
4 398 240 544 581
4 548 59 397 242
4 273 302 442 97
4 415 186 528 576
4 566 259 563 331
4 266 273 296 574
4 270 381 9 141
4 336 338 345 585
4 142 143 359 584
4 519 195 425 523
4 524 520 204 445
4 447 437 448 574
4 309 433 196 92
4 310 433 93 197
4 270 278 306 582
4 290 267 456 102
4 381 141 270 582
4 197 196 521 578
4 271 69 292 335
4 342 341 332 586
4 374 157 476 370
4 381 371 376 582
4 360 362 278 127
4 222 430 51 528
4 239 240 232 581
4 354 147 350 148
4 529 186 187 504
4 467 113 549 114
4 477 473 484 584
4 124 331 471 585
4 358 357 582 584
4 248 247 113 109
4 228 227 186 182
4 423 419 514 192
4 148 149 349 356
4 462 543 239 546
4 388 82 389 275
4 257 256 120 125
4 237 236 175 170
4 484 142 32 584
4 263 290 465 101
4 153 367 154 358
4 453 461 463 579
4 200 510 436 443
4 508 504 218 576
4 127 4 362 278
4 434 44 431 426
4 45 446 432 451
4 236 173 169 235
4 453 547 241 465
4 566 124 565 585
4 493 492 454 207
4 196 432 309 92
4 434 310 93 197
4 144 127 350 145
4 137 138 367 141
4 484 32 382 584
4 446 525 196 577
4 435 527 221 450
4 87 430 261 295
4 345 338 331 585
4 517 425 416 190
4 526 426 197 578
4 195 425 420 519
4 520 204 445 440
4 364 352 270 582
4 356 128 354 357
4 185 17 51 230
4 461 454 463 575
4 136 28 30 485
4 32 31 487 134
4 483 129 336 338
4 507 580 510 587
4 223 280 312 305
4 386 495 489 164
4 415 428 419 576
4 169 170 545 501
4 470 565 125 124
4 386 393 495 164
4 58 241 547 465
4 480 478 476 586
4 4 127 343 278
4 456 465 290 101
4 376 582 573 584
4 353 359 143 584
4 303 577 265 578
4 0 115 58 244
4 545 546 169 583
4 480 476 158 370
4 360 270 278 73
4 386 163 494 391
4 309 451 432 577
4 512 517 416 190
4 291 389 82 275
4 454 459 493 207
4 251 330 563 123
4 467 491 211 579
4 478 483 336 585
4 303 302 265 577
4 436 516 199 445
4 427 429 416 580
4 431 310 434 578
4 478 585 336 586
4 476 477 157 374
4 352 360 270 582
4 479 481 344 132
4 289 262 455 104
4 140 382 32 584
4 447 448 443 587
4 388 397 81 308
4 332 130 336 586
4 430 87 421 295
4 186 415 505 576
4 309 432 196 577
4 138 366 140 139
4 349 128 146 145
4 331 338 471 585
4 310 197 434 578
4 352 357 360 582
4 458 499 461 579
4 265 433 309 92
4 221 527 50 450
4 336 345 342 586
4 479 344 337 132
4 93 265 433 310
4 196 577 521 578
4 213 474 214 470
4 549 114 550 579
4 34 365 487 361
4 507 423 514 192
4 279 531 532 223
4 305 450 94 441
4 169 546 452 583
4 274 289 313 581
4 452 462 459 583
4 364 141 352 582
4 365 31 32 139
4 30 28 146 348
4 451 309 98 577
4 507 423 191 580
4 386 494 163 489
4 358 357 352 582
4 398 387 84 307
4 186 40 505 415
4 306 276 311 582
4 114 468 453 579
4 507 191 512 580
4 224 413 412 188
4 330 251 328 123
4 515 424 419 576
4 459 497 460 583
4 266 297 273 574
4 446 440 203 525
4 526 426 420 194
4 282 252 281 304
4 20 188 50 224
4 474 470 213 585
4 505 415 424 576
4 468 458 453 579
4 91 310 431 578
4 398 544 394 581
4 563 259 63 340
4 244 317 315 115
4 201 439 513 587
4 168 23 55 231
4 25 114 468 453
4 113 24 469 385
4 414 230 411 185
4 547 241 550 453
4 454 464 463 575
4 123 3 63 251
4 451 98 438 577
4 515 508 218 576
4 318 250 316 112
4 512 511 507 580
4 71 294 278 343
4 550 114 453 579
4 201 443 439 587
4 199 511 516 436
4 41 187 506 435
4 112 13 59 250
4 446 438 440 577
4 360 352 270 73
4 276 371 75 311
4 294 71 333 343
4 418 426 420 578
4 72 362 4 278
4 307 398 387 581
4 231 401 543 168
4 353 363 356 143
4 307 387 84 274
4 200 510 511 436
4 124 26 471 331
4 514 515 419 576
4 418 91 431 578
4 391 162 498 392
4 221 527 435 530
4 353 357 359 584
4 484 156 477 374
4 10 126 64 253
4 331 471 338 133
4 499 458 468 579
4 505 218 504 576
4 510 507 511 580
4 74 270 9 364
4 360 362 72 278
4 501 215 490 583
4 500 393 390 165
4 547 246 25 550
4 527 226 41 530
4 493 497 459 583
4 211 468 467 579
4 194 420 526 519
4 520 203 440 525
4 201 513 510 587
4 496 461 499 579
4 497 459 460 206
4 26 471 331 133
4 274 307 387 581
4 201 510 443 587
4 503 460 497 583
4 458 461 453 579
4 33 363 485 348
4 505 424 515 576
4 532 280 279 223
4 458 499 209 461
4 415 505 424 189
4 401 231 400 168
4 415 40 528 186
4 328 254 116 62
4 400 234 171 54
4 411 229 184 53
4 316 249 111 61
4 225 412 178 52
4 105 245 315 60
4 57 238 177 399
4 65 258 122 327
4 329 253 126 327
4 124 26 566 255
4 169 39 546 235
4 302 98 309 577
4 222 51 261 223
4 491 499 211 579
4 140 355 358 584
4 40 505 415 189
4 510 513 514 587
4 452 459 460 583
4 355 357 358 584
4 161 390 469 385
4 458 468 453 205
4 504 508 218 217
4 233 402 399 167
4 129 336 478 483
4 14 167 56 233
4 543 462 452 546
4 252 282 552 551
4 63 252 264 259
4 475 130 332 586
4 419 424 415 576
4 385 113 24 548
4 416 423 427 580
4 453 550 25 114
4 551 552 243 268
4 406 235 173 236
4 509 522 220 219
4 444 198 506 435
4 523 43 425 517
4 452 503 169 583
4 114 550 25 246
4 41 226 187 530
4 478 336 130 586
4 377 482 159 375
4 507 510 514 587
4 47 516 524 445
4 468 499 48 458
4 469 390 36 500
4 506 41 435 198
4 351 4 362 346
4 24 469 385 161
4 468 25 453 205
4 543 168 462 466
4 438 98 302 577
4 452 460 503 583
4 215 216 501 490
4 491 212 467 211
4 95 96 297 437
4 505 515 218 576
4 9 347 368 364
4 502 498 37 392
4 503 460 49 497
4 475 476 478 586
4 366 140 139 155
4 64 10 282 281
4 68 63 264 340
4 186 505 504 576
4 56 398 307 581
4 376 141 381 582
4 364 74 270 352
4 514 508 515 576
4 484 473 142 584
4 435 41 187 530
4 499 468 211 579
4 467 468 114 579
4 480 159 482 375
4 190 416 512 191
4 491 496 499 579
4 498 494 162 391
4 438 446 451 577
4 94 272 305 441
4 283 269 232 262
4 132 337 479 131
4 459 497 493 206
4 431 426 418 578
4 142 359 361 355
4 124 26 331 566
4 376 382 140 584
4 417 88 89 266
4 515 193 419 424
4 442 96 273 97
4 263 243 58 241
4 167 398 544 394
4 269 280 279 532
4 393 500 495 165
4 517 523 43 220
4 313 232 283 581
4 383 126 378 564
4 342 332 336 586
4 471 338 483 585
4 308 81 388 275
4 55 239 232 262
4 126 383 64 564
4 433 265 93 92
4 186 40 528 228
4 113 248 24 548
4 444 518 202 439
4 68 3 63 340
4 513 202 518 439
4 196 525 521 577
4 123 331 563 340
4 544 56 398 167
4 197 521 526 578
4 142 359 355 584
4 544 38 170 237
4 27 257 125 564
4 69 68 292 334
4 125 369 27 564
4 310 93 18 434
4 35 377 472 482
4 358 352 141 582
4 10 64 383 281
4 309 432 19 92
4 261 279 280 223
4 101 290 456 102
4 112 59 397 548
4 419 514 193 515
4 71 70 294 333
4 284 59 13 282
4 511 199 200 436
4 68 63 3 264
4 46 444 506 518
4 472 27 369 160
4 29 483 471 338
4 13 287 282 556
4 170 38 544 384
4 493 490 497 583
4 503 215 501 583
4 551 282 552 268
4 310 18 431 434
4 474 213 483 585
4 283 56 307 581
4 505 42 515 424
4 418 90 91 303
4 398 394 387 581
4 90 422 89 296
4 489 163 386 164
4 19 432 309 451
4 551 304 282 268
4 480 158 159 375
4 516 219 47 524
4 307 313 283 581
4 278 72 360 73
4 499 496 209 461
4 49 503 497 215
4 498 37 216 502
4 48 211 499 468
4 518 506 46 217
4 500 36 469 212
4 474 483 478 585
4 282 252 304 551
4 76 77 373 293
4 528 430 51 185
4 471 213 470 585
4 207 459 493 206
4 497 490 215 583
4 39 503 452 210
4 502 38 384 166
4 387 83 84 274
4 502 384 392 166
4 452 460 210 503
4 71 278 4 343
4 513 201 202 439
4 471 470 124 585
4 335 271 69 70
4 291 389 83 82
4 501 169 503 583
4 483 213 29 471
4 482 472 35 214
4 383 78 10 281
4 270 306 311 582
4 131 332 475 130
4 160 377 369 472
4 282 59 13 556
4 500 390 36 165
4 138 367 141 358
4 350 127 354 145
4 58 0 263 465
4 477 156 157 374
4 97 302 438 98
4 163 162 494 391
4 465 0 263 101
4 471 483 213 585
4 497 215 503 583
4 104 455 289 103
4 280 20 50 269
4 115 58 547 465
4 536 14 285 279
4 123 563 63 340
4 283 14 56 279
4 498 162 37 392
4 359 357 355 584
4 535 269 20 286
4 204 520 203 440
4 420 194 195 519
4 371 75 76 276
4 254 328 116 330
4 234 400 171 401
4 229 411 184 414
4 249 316 111 318
4 245 105 315 317
4 412 225 178 413
4 258 122 327 329
4 238 177 399 402
4 149 146 349 356
4 27 125 472 369
4 499 209 48 458
4 282 287 10 556
4 515 218 42 505
4 517 43 425 190
4 6 4 362 351
4 138 154 367 358
4 188 41 527 413
4 421 87 88 295
4 354 350 145 148
4 478 130 475 586
4 140 366 355 155
4 7 9 368 364
4 28 344 481 132
4 430 17 87 261
4 252 260 64 281
4 55 168 543 466
4 536 56 14 279
4 336 478 130 129
4 415 430 528 185
4 143 142 151 135
4 492 208 454 207
4 269 20 50 535
4 51 17 430 261
4 115 25 547 317
4 497 460 49 206
4 77 78 372 277
4 484 32 156 382
4 59 13 397 308
4 284 314 243 263
4 460 49 210 503
4 37 502 392 166
4 555 304 268 288
4 47 524 204 445
4 185 229 40 414
4 268 284 243 263
4 359 142 151 143
4 252 281 304 264
4 169 39 452 546
4 309 265 302 577
4 35 377 482 159
4 128 146 28 363
4 38 170 502 384
4 169 39 503 452
4 307 274 313 581
4 112 24 318 249
4 191 423 507 192
4 514 419 193 192
4 443 448 439 587
4 452 39 543 546
4 397 13 81 308
4 547 453 115 465
4 23 55 269 262
4 195 43 425 523
4 232 269 55 262
4 527 435 188 450
4 309 19 451 98
4 188 50 527 450
4 406 226 235 542
4 94 95 272 441
4 378 126 369 564
4 487 365 32 361
4 385 112 397 548
4 208 209 496 461
4 518 46 444 202
4 280 312 261 223
4 75 381 9 311
4 282 10 64 556
4 168 462 452 543
4 431 91 18 310
4 310 303 265 578
4 123 3 340 63
4 544 167 394 384
4 139 140 361 155
4 510 200 201 443
4 450 20 305 94
4 305 50 20 450
4 313 283 232 262
4 308 59 13 284
4 349 146 128 356
4 426 526 44 194
4 446 203 45 525
4 304 3 63 264
4 0 115 465 58
4 552 64 282 252
4 279 261 51 223
4 483 29 129 338
4 140 361 32 139
4 81 82 388 275
4 185 17 430 51
4 252 64 282 281
4 243 59 284 552
4 457 102 267 103
4 516 47 199 445
4 51 17 261 279
4 547 550 25 453
4 280 50 20 305
4 126 329 27 258
4 167 38 238 402
4 346 362 351 147
4 368 347 153 364
4 35 377 160 472
4 536 285 17 279
4 23 269 535 286
4 164 393 495 165
4 59 282 552 556
4 431 18 44 434
4 432 19 45 451
4 236 173 174 169
4 108 113 247 109
4 227 182 181 186
4 125 119 256 120
4 170 174 236 175
4 338 471 29 133
4 14 56 307 283
4 485 363 28 348
4 146 128 356 363
4 42 193 515 424
4 157 158 476 370
4 36 161 390 469
4 48 468 458 205
4 353 359 151 143
4 167 544 38 384
4 363 143 152 136
4 229 528 185 40
4 126 27 369 564
4 532 50 280 223
4 488 150 142 359
4 466 262 23 104
4 9 7 74 364
4 356 149 146 363
4 531 56 536 279
4 352 74 270 73
4 563 26 123 330
4 26 566 563 331
4 249 548 112 24
4 304 555 3 288
4 112 13 397 59
4 398 84 14 307
4 58 0 555 268
4 41 435 527 530
4 531 56 283 232
4 304 63 252 264
4 268 0 555 288
4 532 269 50 535
4 63 252 551 304
4 4 6 362 72
4 151 353 143 486
4 141 364 352 358
4 532 269 55 232
4 551 243 58 268
4 415 528 40 185
4 279 51 531 223
4 452 39 168 543
4 262 23 55 466
4 366 355 154 140
4 142 151 488 359
4 304 63 555 551
4 398 14 56 307
4 143 363 28 136
4 142 150 134 361
4 24 112 385 548
4 355 361 140 155
4 555 3 63 304
4 362 360 354 127
4 58 0 268 263
4 20 188 450 50
4 282 284 59 552
4 531 283 56 279
4 258 564 27 126
4 488 150 134 142
4 143 486 152 136
4 353 143 486 152
4 453 25 547 115
4 544 238 167 38
4 552 282 64 556
4 536 17 51 279
4 128 354 127 145
4 269 50 280 532
4 268 243 58 263
4 269 55 23 535
4 141 140 138 358
4 151 143 135 486
4 488 151 142 135
4 168 39 401 543
4 551 58 555 268
4 142 134 32 361
4 563 26 331 123
4 555 304 551 268
4 256 125 565 124
4 545 170 169 236
4 424 505 42 189
4 247 549 113 114
4 186 227 529 187
4 168 23 466 55
4 188 41 435 527
4 143 353 363 152
4 154 138 140 358
4 145 128 354 148
4 46 444 198 506
4 150 142 359 361
4 10 126 383 64
4 152 363 28 485
4 85 301 533 285
4 534 286 99 300
4 67 298 288 553
4 288 298 66 553
4 531 536 51 279
4 363 149 28 348
4 55 269 532 535
4 147 127 354 350
4 367 153 141 358
4 100 286 534 300
4 86 533 301 285
4 355 154 140 358
4 150 487 32 361
4 134 487 32 150
4 136 152 28 485
4 149 146 28 348
4 17 51 230 536
4 535 55 23 231
4 80 287 554 299
4 0 58 555 244
4 361 365 32 155
4 139 32 365 155
4 330 254 26 117
4 401 39 172 234
4 414 229 40 183
4 318 24 110 249
4 179 41 413 225
4 317 25 245 106
4 329 121 27 258
4 38 238 402 176
4 148 349 128 356
4 14 167 398 56
4 79 554 287 299
4 147 351 346 144
4 347 153 137 368
4 234 401 39 543
4 26 563 254 330
4 224 527 188 50
4 244 547 115 58
4 148 128 354 356
4 225 41 413 527
4 245 547 25 317
4 253 64 10 556
4 347 141 153 364
4 362 346 127 147
4 365 32 31 487
4 485 28 30 348
4 351 5 4 346
4 347 8 9 368
4 30 33 485 348
4 534 99 52 300
4 533 57 301 85
4 365 31 34 487
4 54 100 534 300
4 301 53 533 86
4 80 554 61 299
4 65 554 79 299
4 535 20 50 224
4 250 13 59 556
4 233 56 14 536
4 285 17 230 536
4 286 535 23 231
4 555 63 3 251
4 246 323 118 107
4 540 171 409 234
4 177 238 537 404
4 324 122 559 258
4 559 111 324 249
4 184 537 229 404
4 409 178 540 225
4 116 557 254 326
4 245 557 105 326
4 147 346 127 144
4 141 153 137 347
4 235 180 406 173
4 226 406 235 180
4 298 60 66 553
4 298 67 62 553
4 139 361 32 155
4 20 535 286 224
4 149 28 146 363
4 150 32 134 361
4 251 67 288 553
4 244 288 66 553
4 354 362 127 147
4 152 28 363 136
4 285 233 14 536
4 364 141 153 358
4 534 99 286 224
4 60 244 315 66
4 52 224 412 99
4 231 54 400 100
4 251 62 328 67
4 7 9 8 368
4 287 253 10 556
4 4 6 5 351
4 288 0 555 244
4 236 542 227 406
4 323 256 247 562
4 227 410 538 236
4 560 322 256 247
4 231 54 100 534
4 52 224 99 534
4 60 244 66 553
4 251 62 67 553
4 85 533 233 285
4 65 253 327 79
4 57 233 399 85
4 250 61 316 80
4 230 53 411 86
4 65 253 79 554
4 250 61 80 554
4 57 233 85 533
4 230 53 86 533
4 13 250 287 556
4 145 349 128 148
4 298 2 1 319
4 540 171 54 405
4 154 138 366 140
4 286 100 534 231
4 537 53 403 184
4 111 320 61 559
4 288 66 0 244
4 537 403 57 177
4 122 65 320 559
4 554 250 287 80
4 52 178 540 405
4 116 62 557 319
4 534 286 535 224
4 105 557 60 319
4 230 533 86 285
4 123 63 563 251
4 62 2 298 319
4 1 60 298 319
4 86 17 230 285
4 285 533 233 536
4 100 286 23 231
4 287 253 554 79
4 20 286 99 224
4 535 286 534 231
4 540 178 171 405
4 177 537 403 184
4 111 122 320 559
4 127 147 144 350
4 153 137 367 141
4 57 53 403 537
4 54 52 540 405
4 65 61 320 559
4 16 53 301 86
4 54 22 100 300
4 301 57 15 85
4 99 21 52 300
4 233 14 85 285
4 105 116 557 319
4 16 15 301 403
4 405 21 22 300
4 79 11 65 299
4 61 12 80 299
4 285 230 533 536
4 320 11 12 299
4 288 555 3 251
4 62 60 557 319
4 250 554 287 556
4 301 15 57 403
4 66 1 60 298
4 67 62 2 298
4 405 22 54 300
4 52 21 405 300
4 320 65 11 299
4 53 16 301 403
4 298 60 62 319
4 287 554 253 556
4 12 61 320 299
4 175 182 410 538
4 120 322 560 109
4 10 253 287 79
4 287 250 13 80
4 3 67 288 251
4 543 168 55 231
4 251 288 555 553
4 244 555 288 553
4 557 245 254 326
4 559 324 258 249
4 238 229 537 404
4 409 540 234 225
4 237 228 539 408
4 557 116 105 326
4 325 248 257 561
4 324 122 111 559
4 178 171 409 540
4 184 177 537 404
4 246 255 558 321
4 121 110 325 561
4 301 57 53 403
4 54 52 405 300
4 235 226 407 541
4 61 65 320 299
4 539 408 183 176
4 179 172 407 541
4 558 321 117 106
4 174 227 181 406
4 108 256 323 119
4 174 227 410 181
4 256 108 322 119
4 256 108 323 247
4 227 174 236 406
4 256 322 108 247
4 410 227 174 236
4 183 229 539 176
4 561 121 110 249
4 225 172 179 541
4 121 561 258 249
4 229 238 539 176
4 225 234 172 541
4 245 558 117 106
4 254 245 558 117
4 534 52 54 300
4 301 53 57 533
4 324 110 121 249
4 183 404 229 176
4 409 172 179 225
4 245 117 326 106
4 258 324 121 249
4 238 229 404 176
4 117 245 326 254
4 172 409 234 225
4 554 65 61 299
4 120 560 248 109
4 175 182 538 228
4 248 257 560 120
4 228 538 175 237
4 175 228 408 182
4 62 60 298 553
4 107 118 246 321
4 228 175 408 237
4 120 248 325 109
4 257 248 325 120
4 173 407 235 180
4 118 255 246 321
4 407 226 235 180
4 257 565 256 125
4 235 236 546 169
4 316 12 61 111
4 16 53 411 184
4 399 15 57 85
4 53 16 411 86
4 13 112 316 250
4 188 20 412 224
4 17 185 411 230
4 238 233 544 167
4 399 57 15 177
4 228 227 529 186
4 237 545 236 170
4 248 247 549 113
4 258 253 564 126
4 327 65 11 122
4 250 249 548 112
4 61 12 316 80
4 327 11 65 79
4 3 123 328 251
4 115 0 315 244
4 66 60 1 315
4 62 2 116 328
4 2 62 67 328
4 105 1 60 315
4 124 125 119 256
4 113 114 108 247
4 256 566 255 124
4 550 247 246 114
4 178 21 52 412
4 169 170 174 236
4 186 187 181 227
4 99 52 21 412
4 530 227 226 187
4 23 168 400 231
4 54 22 171 400
4 22 54 100 400
4 230 229 528 185
4 573 370 379 374
4 573 379 370 572
4 173 172 235 407
4 173 235 172 39
4 541 235 172 407
4 539 228 183 408
4 182 228 183 40
4 182 183 228 408
4 558 255 117 321
4 118 255 117 26
4 118 117 255 321
4 178 179 225 409
4 225 179 178 413
4 105 106 245 326
4 245 106 105 317
4 110 111 249 324
4 249 111 110 318
4 184 183 229 414
4 229 183 184 404
4 120 121 257 27
4 120 257 121 325
4 561 121 257 325
4 109 110 248 325
4 109 248 110 24
4 561 248 110 325
4 573 127 343 339
4 573 343 127 582
4 180 179 226 41
4 180 226 179 407
4 541 179 226 407
4 539 176 237 408
4 175 237 176 408
4 175 176 237 38
4 558 106 246 321
4 107 246 106 321
4 107 106 246 25
4 578 296 273 571
4 578 273 296 303
4 573 354 582 127
4 573 582 354 357
4 581 291 289 569
4 581 289 291 274
4 177 176 238 404
4 238 176 177 402
4 122 121 258 324
4 258 121 122 329
4 116 117 254 330
4 254 117 116 326
4 172 171 234 409
4 234 171 172 401
4 573 586 476 475
4 476 586 573 572
4 128 573 354 357
4 262 581 232 313
4 232 581 262 239
4 421 266 88 417
4 88 266 421 295
4 356 143 584 353
4 584 143 356 128
4 584 357 356 353
4 356 357 584 128
4 334 264 68 292
4 334 68 264 340
4 575 583 494 493
4 494 583 575 569
4 383 277 570 372
4 570 277 383 281
4 587 508 518 513
4 587 518 508 576
4 127 278 582 343
4 127 582 278 360
4 277 373 77 293
4 277 77 373 372
4 128 127 573 339
4 128 573 127 354
4 579 463 575 461
4 579 575 463 567
4 289 457 103 455
4 103 457 289 267
4 371 311 582 381
4 582 311 371 276
4 454 496 208 492
4 454 208 496 461
4 578 91 303 418
4 578 303 91 310
4 44 197 426 434
4 426 197 44 526
4 45 196 446 525
4 45 446 196 432
4 232 532 283 531
4 232 283 532 269
4 279 283 532 531
4 279 532 283 269
4 140 584 142 355
4 142 584 140 32
4 142 361 140 355
4 140 361 142 32
4 552 284 268 282
4 552 268 284 243
4 243 59 308 284
4 243 308 59 242
4 232 56 581 240
4 232 581 56 283
4 223 50 305 221
4 223 305 50 280
4 128 363 143 356
4 143 363 128 28
4 228 229 183 40
4 228 183 229 539
4 257 258 121 561
4 257 121 258 27
4 248 249 110 24
4 248 110 249 561
4 234 235 172 541
4 234 172 235 39
4 255 118 256 124
4 119 118 256 323
4 119 256 118 124
4 181 227 180 406
4 181 180 227 187
4 226 180 227 406
4 226 227 180 187
4 225 226 179 41
4 225 179 226 541
4 237 238 176 539
4 237 176 238 38
4 254 255 117 558
4 254 117 255 26
4 108 247 107 323
4 108 107 247 114
4 246 107 247 323
4 246 247 107 114
4 245 246 106 25
4 245 106 246 558
4 246 562 118 323
4 246 118 562 255
4 256 118 562 323
4 256 562 118 255

CELL_TYPES 3193
1
1
1
1
1
1
1
1
1
1
1
1
1
1
1
1
1
1
1
1
1
1
1
1
1
1
1
1
1
1
1
1
1
1
1
1
1
1
1
1
1
1
1
1
1
1
1
1
1
1
1
1
1
1
1
1
1
1
1
1
1
1
1
1
1
1
3
3
3
3
3
3
3
3
3
3
3
3
3
3
3
3
3
3
3
3
3
3
3
3
3
3
3
3
3
3
3
3
3
3
3
3
3
3
3
3
3
3
3
3
3
3
3
3
3
3
3
3
3
3
3
3
3
3
3
3
3
3
3
3
3
3
3
3
3
3
3
3
3
3
3
3
3
3
3
3
3
3
3
3
3
3
3
3
3
3
3
3
3
3
3
3
3
3
3
3
3
3
3
3
3
3
3
3
3
3
3
3
3
3
3
3
3
3
3
3
3
3
3
3
3
3
3
3
3
3
3
3
3
3
3
3
3
3
3
3
3
3
3
3
3
3
3
3
3
3
3
3
3
3
3
3
3
3
3
3
3
3
3
3
3
3
3
3
3
3
3
3
3
3
3
3
3
3
3
3
3
3
3
3
3
3
3
3
3
3
3
3
3
3
3
3
3
3
3
3
3
3
3
3
3
3
3
3
3
3
3
3
3
3
3
3
3
3
3
3
3
3
3
3
3
3
3
3
3
3
3
3
3
3
3
3
3
3
3
3
3
3
3
3
3
3
3
3
3
3
3
3
3
3
3
3
3
3
3
3
3
3
3
3
3
3
3
3
3
3
3
3
3
3
3
3
3
3
3
3
3
3
3
3
3
3
3
3
3
3
3
3
3
3
5
5
5
5
5
5
5
5
5
5
5
5
5
5
5
5
5
5
5
5
5
5
5
5
5
5
5
5
5
5
5
5
5
5
5
5
5
5
5
5
5
5
5
5
5
5
5
5
5
5
5
5
5
5
5
5
5
5
5
5
5
5
5
5
5
5
5
5
5
5
5
5
5
5
5
5
5
5
5
5
5
5
5
5
5
5
5
5
5
5
5
5
5
5
5
5
5
5
5
5
5
5
5
5
5
5
5
5
5
5
5
5
5
5
5
5
5
5
5
5
5
5
5
5
5
5
5
5
5
5
5
5
5
5
5
5
5
5
5
5
5
5
5
5
5
5
5
5
5
5
5
5
5
5
5
5
5
5
5
5
5
5
5
5
5
5
5
5
5
5
5
5
5
5
5
5
5
5
5
5
5
5
5
5
5
5
5
5
5
5
5
5
5
5
5
5
5
5
5
5
5
5
5
5
5
5
5
5
5
5
5
5
5
5
5
5
5
5
5
5
5
5
5
5
5
5
5
5
5
5
5
5
5
5
5
5
5
5
5
5
5
5
5
5
5
5
5
5
5
5
5
5
5
5
5
5
5
5
5
5
5
5
5
5
5
5
5
5
5
5
5
5
5
5
5
5
5
5
5
5
5
5
5
5
5
5
5
5
5
5
5
5
5
5
5
5
5
5
5
5
5
5
5
5
5
5
5
5
5
5
5
5
5
5
5
5
5
5
5
5
5
5
5
5
5
5
5
5
5
5
5
5
5
5
5
5
5
5
5
5
5
5
5
5
5
5
5
5
5
5
5
5
5
5
5
5
5
5
5
5
5
5
5
5
5
5
5
5
5
5
5
5
5
5
5
5
5
5
5
5
5
5
5
5
5
5
5
5
5
5
5
5
5
5
5
5
5
5
5
5
5
5
5
5
5
5
5
5
5
5
5
5
5
5
5
5
5
5
5
5
5
5
5
5
5
5
5
5
5
5
5
5
5
5
5
5
5
5
5
5
5
5
5
5
5
5
5
5
5
5
5
5
5
5
5
5
5
5
5
5
5
5
5
5
5
5
5
5
5
5
5
5
5
5
5
5
5
5
5
5
5
5
5
5
5
5
5
5
5
5
5
5
5
5
5
5
5
5
5
5
5
5
5
5
5
5
5
5
5
5
5
5
5
5
5
5
5
5
5
5
5
5
5
5
5
5
5
5
5
5
5
5
5
5
5
5
5
5
5
5
5
5
5
5
5
5
5
5
5
5
5
5
5
5
5
5
5
5
5
5
5
5
5
5
5
5
5
5
5
5
5
5
5
5
5
5
5
5
5
5
5
5
5
5
5
5
5
5
5
5
5
5
5
5
5
5
5
5
5
5
5
5
5
5
5
5
5
5
5
5
5
5
5
5
5
5
5
5
5
5
5
5
5
5
5
5
5
5
5
5
5
5
5
5
5
5
5
5
5
5
5
5
5
5
5
5
5
5
5
5
5
5
5
5
5
5
5
5
5
5
5
5
5
5
5
5
5
5
5
5
5
5
5
5
5
5
5
5
5
5
5
5
5
5
5
5
5
5
5
5
5
5
5
5
5
5
5
5
5
5
5
5
5
5
5
5
5
5
5
5
5
5
5
5
5
5
5
5
5
5
5
5
5
5
5
5
5
5
5
5
5
5
5
5
5
5
5
5
5
5
5
5
5
5
5
5
5
5
5
5
5
5
5
5
5
5
5
5
5
5
5
5
5
5
5
5
5
5
5
5
5
5
5
5
5
5
5
5
5
5
5
5
5
5
5
5
5
5
5
5
5
5
5
5
5
5
5
5
5
5
5
5
5
5
5
5
5
5
5
5
5
5
5
5
5
5
5
5
5
5
5
5
5
5
5
5
5
5
5
5
5
5
5
5
5
5
5
5
5
5
5
5
5
5
5
5
5
5
5
5
5
5
5
5
5
5
5
5
5
5
5
5
5
5
5
5
5
5
5
5
5
5
5
5
5
5
5
5
5
5
5
5
5
5
5
5
5
5
5
5
5
5
5
5
5
5
5
5
5
5
5
5
5
5
5
5
5
5
5
5
5
5
5
5
5
5
5
5
5
5
5
5
5
5
5
5
5
5
5
5
5
5
5
5
5
5
5
5
5
5
5
5
5
5
5
5
5
5
5
5
5
5
5
5
5
5
5
5
5
5
5
5
5
5
5
5
5
5
5
5
5
5
5
5
5
5
5
5
5
5
5
5
5
5
5
5
5
5
5
5
5
5
5
5
5
5
5
5
5
5
5
5
5
5
5
5
5
5
5
5
5
5
5
5
5
5
5
5
5
5
5
5
5
5
5
5
5
5
5
5
5
5
5
5
5
5
5
5
5
5
5
5
5
5
5
5
5
5
5
5
5
5
5
5
5
5
5
5
5
5
5
5
5
5
5
5
5
5
5
5
5
5
5
5
5
5
5
5
5
5
5
5
5
5
5
5
5
5
5
5
5
5
5
5
5
5
5
5
5
5
5
5
5
5
5
5
5
5
5
5
5
5
5
5
5
5
5
5
5
5
5
5
10
10
10
10
10
10
10
10
10
10
10
10
10
10
10
10
10
10
10
10
10
10
10
10
10
10
10
10
10
10
10
10
10
10
10
10
10
10
10
10
10
10
10
10
10
10
10
10
10
10
10
10
10
10
10
10
10
10
10
10
10
10
10
10
10
10
10
10
10
10
10
10
10
10
10
10
10
10
10
10
10
10
10
10
10
10
10
10
10
10
10
10
10
10
10
10
10
10
10
10
10
10
10
10
10
10
10
10
10
10
10
10
10
10
10
10
10
10
10
10
10
10
10
10
10
10
10
10
10
10
10
10
10
10
10
10
10
10
10
10
10
10
10
10
10
10
10
10
10
10
10
10
10
10
10
10
10
10
10
10
10
10
10
10
10
10
10
10
10
10
10
10
10
10
10
10
10
10
10
10
10
10
10
10
10
10
10
10
10
10
10
10
10
10
10
10
10
10
10
10
10
10
10
10
10
10
10
10
10
10
10
10
10
10
10
10
10
10
10
10
10
10
10
10
10
10
10
10
10
10
10
10
10
10
10
10
10
10
10
10
10
10
10
10
10
10
10
10
10
10
10
10
10
10
10
10
10
10
10
10
10
10
10
10
10
10
10
10
10
10
10
10
10
10
10
10
10
10
10
10
10
10
10
10
10
10
10
10
10
10
10
10
10
10
10
10
10
10
10
10
10
10
10
10
10
10
10
10
10
10
10
10
10
10
10
10
10
10
10
10
10
10
10
10
10
10
10
10
10
10
10
10
10
10
10
10
10
10
10
10
10
10
10
10
10
10
10
10
10
10
10
10
10
10
10
10
10
10
10
10
10
10
10
10
10
10
10
10
10
10
10
10
10
10
10
10
10
10
10
10
10
10
10
10
10
10
10
10
10
10
10
10
10
10
10
10
10
10
10
10
10
10
10
10
10
10
10
10
10
10
10
10
10
10
10
10
10
10
10
10
10
10
10
10
10
10
10
10
10
10
10
10
10
10
10
10
10
10
10
10
10
10
10
10
10
10
10
10
10
10
10
10
10
10
10
10
10
10
10
10
10
10
10
10
10
10
10
10
10
10
10
10
10
10
10
10
10
10
10
10
10
10
10
10
10
10
10
10
10
10
10
10
10
10
10
10
10
10
10
10
10
10
10
10
10
10
10
10
10
10
10
10
10
10
10
10
10
10
10
10
10
10
10
10
10
10
10
10
10
10
10
10
10
10
10
10
10
10
10
10
10
10
10
10
10
10
10
10
10
10
10
10
10
10
10
10
10
10
10
10
10
10
10
10
10
10
10
10
10
10
10
10
10
10
10
10
10
10
10
10
10
10
10
10
10
10
10
10
10
10
10
10
10
10
10
10
10
10
10
10
10
10
10
10
10
10
10
10
10
10
10
10
10
10
10
10
10
10
10
10
10
10
10
10
10
10
10
10
10
10
10
10
10
10
10
10
10
10
10
10
10
10
10
10
10
10
10
10
10
10
10
10
10
10
10
10
10
10
10
10
10
10
10
10
10
10
10
10
10
10
10
10
10
10
10
10
10
10
10
10
10
10
10
10
10
10
10
10
10
10
10
10
10
10
10
10
10
10
10
10
10
10
10
10
10
10
10
10
10
10
10
10
10
10
10
10
10
10
10
10
10
10
10
10
10
10
10
10
10
10
10
10
10
10
10
10
10
10
10
10
10
10
10
10
10
10
10
10
10
10
10
10
10
10
10
10
10
10
10
10
10
10
10
10
10
10
10
10
10
10
10
10
10
10
10
10
10
10
10
10
10
10
10
10
10
10
10
10
10
10
10
10
10
10
10
10
10
10
10
10
10
10
10
10
10
10
10
10
10
10
10
10
10
10
10
10
10
10
10
10
10
10
10
10
10
10
10
10
10
10
10
10
10
10
10
10
10
10
10
10
10
10
10
10
10
10
10
10
10
10
10
10
10
10
10
10
10
10
10
10
10
10
10
10
10
10
10
10
10
10
10
10
10
10
10
10
10
10
10
10
10
10
10
10
10
10
10
10
10
10
10
10
10
10
10
10
10
10
10
10
10
10
10
10
10
10
10
10
10
10
10
10
10
10
10
10
10
10
10
10
10
10
10
10
10
10
10
10
10
10
10
10
10
10
10
10
10
10
10
10
10
10
10
10
10
10
10
10
10
10
10
10
10
10
10
10
10
10
10
10
10
10
10
10
10
10
10
10
10
10
10
10
10
10
10
10
10
10
10
10
10
10
10
10
10
10
10
10
10
10
10
10
10
10
10
10
10
10
10
10
10
10
10
10
10
10
10
10
10
10
10
10
10
10
10
10
10
10
10
10
10
10
10
10
10
10
10
10
10
10
10
10
10
10
10
10
10
10
10
10
10
10
10
10
10
10
10
10
10
10
10
10
10
10
10
10
10
10
10
10
10
10
10
10
10
10
10
10
10
10
10
10
10
10
10
10
10
10
10
10
10
10
10
10
10
10
10
10
10
10
10
10
10
10
10
10
10
10
10
10
10
10
10
10
10
10
10
10
10
10
10
10
10
10
10
10
10
10
10
10
10
10
10
10
10
10
10
10
10
10
10
10
10
10
10
10
10
10
10
10
10
10
10
10
10
10
10
10
10
10
10
10
10
10
10
10
10
10
10
10
10
10
10
10
10
10
10
10
10
10
10
10
10
10
10
10
10
10
10
10
10
10
10
10
10
10
10
10
10
10
10
10
10
10
10
10
10
10
10
10
10
10
10
10
10
10
10
10
10
10
10
10
10
10
10
10
10
10
10
10
10
10
10
10
10
10
10
10
10
10
10
10
10
10
10
10
10
10
10
10
10
10
10
10
10
10
10
10
10
10
10
10
10
10
10
10
10
10
10
10
10
10
10
10
10
10
10
10
10
10
10
10
10
10
10
10
10
10
10
10
10
10
10
10
10
10
10
10
10
10
10
10
10
10
10
10
10
10
10
10
10
10
10
10
10
10
10
10
10
10
10
10
10
10
10
10
10
10
10
10
10
10
10
10
10
10
10
10
10
10
10
10
10
10
10
10
10
10
10
10
10
10
10
10
10
10
10
10
10
10
10
10
10
10
10
10
10
10
10
10
10
10
10
10
10
10
10
10
10
10
10
10
10
10
10
10
10
10
10
10
10
10
10
10
10
10
10
10
10
10
10
10
10
10
10
10
10
10
10
10
10
10
10
10
10
10
10
10
10
10
10
10
10
10
10
10
10
10
10
10
10
10
10
10
10
10
10
10
10
10
10
10
10
10
10
10
10
10
10
10
10
10
10
10
10
10
10
10
10
10
10
10
10
10
10
10
10
10
10
10
10
10
10
10
10
10
10
10
10
10
10
10
10
10
10
10
10
10
10
10
10
10
10
10
10
10
10
10
10
10
10
10
10
10
10
10
10
10
10
10
10
10
10
10
10
10
10
10
10
10
10
10
10
10
10
10
10
10
10
10
10
10
10
10
10
10
10
10
10
10
10
10
10
10
10
10
10
10
10
10
10
10
10
10
10
10
10
10
10
10
10
10
10
10
10
10
10
10
10
10
10
10
10
10
10
10
10
10
10
10
10
10
10
10
10
10
10
10
10
10
10
10
10
10
10
10
10
10
10
10
10
10
10
10
10
10
10
10
10
10
10
10
10
10
10
10
10
10
10
10
10
10
10
10
10
10
10
10
10
10
10
10
10
10
10
10
10
10
10
10
10
10
10
10
10
10
10
10
10
10
10
10
10
10
10
10
10
10
10
10
10
10
10
10
10
10
10
10
10
10
10
10
10
10
10
10
10
10
10
10
10
10
10
10
10
10
10
10
10
10
10
10
10
10
10
10
10
10
10
10
10
10
10
10
10
10
10
10
10
10
10
10
10
10
10
10
10
10
10
10
10
