# vtk DataFile Version 2.0
, Created by Gmsh 4.11.1 
ASCII
DATASET UNSTRUCTURED_GRID
POINTS 566 double
8.75 0 -44.40742602607934
14.77081061853801 0 -41.96375261844044
14.77081061853801 0 -38.03624738155955
8.75 0 -35.59257397392065
8.75 0 -3
11.75 0 -3
11.75 0 0
-11.75 0 0
-11.75 0 -3
-8.75 0 -3
-8.75 1.071565949253934e-15 -35.59257397392065
-14.77081061853801 1.808902594480432e-15 -38.03624738155955
-14.77081061853801 1.808902594480432e-15 -41.96375261844044
-8.75 1.071565949253934e-15 -44.40742602607934
-8.75 1.071565949253934e-15 -75.59257397392065
-14.77081061853801 1.808902594480432e-15 -78.03624738155956
-14.77081061853801 1.808902594480432e-15 -81.96375261844044
-8.75 1.071565949253934e-15 -84.40742602607935
-8.75 0 -120
8.75 0 -120
8.75 0 -84.40742602607935
14.77081061853801 0 -81.96375261844044
14.77081061853801 0 -78.03624738155956
8.75 0 -75.59257397392065
8.75 11.90018261745236 -41.96375261844044
8.75 11.90018261745236 -38.03624738155955
8.75 11.90018261745236 -38.31640885701178
7.633509982348731 12.64540911469841 -38.03624738155955
-7.633509982348733 12.64540911469841 -38.03624738155955
-8.75 11.90018261745236 -38.31640885701178
-8.749999999999996 11.90018261745236 -38.03624738155955
-8.749999999999996 11.90018261745236 -41.96375261844044
-8.75 11.90018261745236 -41.68359114298822
-7.633509982348766 12.64540911469839 -41.96375261844044
7.633509982348764 12.64540911469839 -41.96375261844044
8.75 11.90018261745236 -41.68359114298822
8.75 20 -3
8.75 20 -35.27135235784799
11.75 23 -3
-11.75 23 -3
-8.75 20 -3
11.75 23 0
-11.75 23 0
-8.75 20 -35.27135235784799
-8.75 20 -44.72864764215201
-8.75 20 -75.27135235784799
-8.75 11.90018261745236 -78.31640885701178
-8.749999999999996 11.90018261745236 -78.03624738155956
8.75 11.90018261745236 -78.03624738155956
8.75 11.90018261745236 -78.31640885701178
7.633509982348779 12.64540911469838 -78.03624738155956
-7.633509982348778 12.64540911469838 -78.03624738155956
-8.749999999999996 11.90018261745236 -81.96375261844045
-8.75 11.90018261745236 -81.68359114298822
-7.633509982348688 12.64540911469844 -81.96375261844045
7.633509982348686 12.64540911469844 -81.96375261844045
8.75 11.90018261745236 -81.68359114298822
8.75 11.90018261745236 -81.96375261844045
-8.75 20 -84.72864764215201
-8.75 20 -115.271352357848
-8.75 7.421848370181725 -120
8.75 7.421848370181725 -120
8.75 20 -84.72864764215201
8.75 20 -115.271352357848
8.75 20 -44.72864764215201
8.75 20 -75.27135235784799
5.631719735276243 2.70380620564788 -84.40742602607935
-5.631719735276244 2.703806205647879 -84.40742602607935
11.96629414569458 2.70380620564788 -81.96375261844045
-11.96629414569458 2.703806205647882 -81.96375261844045
11.96629414569458 2.70380620564788 -78.03624738155955
5.631719735276243 2.70380620564788 -75.59257397392065
-5.631719735276244 2.703806205647879 -75.59257397392065
-11.96629414569458 2.703806205647882 -78.03624738155955
5.631719735276243 2.70380620564788 -44.40742602607934
-5.631719735276244 2.703806205647879 -44.40742602607934
11.96629414569458 2.70380620564788 -41.96375261844045
-11.96629414569458 2.703806205647882 -41.96375261844045
11.96629414569458 2.70380620564788 -38.03624738155955
5.631719735276243 2.70380620564788 -35.59257397392066
-5.631719735276244 2.703806205647879 -35.59257397392066
-11.96629414569458 2.703806205647882 -38.03624738155955
8.75 0 -29.07405917913653
8.75 0 -22.55554438435242
8.75 0 -16.03702958956828
8.75 0 -9.518514794784142
5.875000000000016 0 0
3.730349362740526e-14 0 0
-5.874999999999972 0 0
-8.75 0 -9.518514794784126
-8.75 0 -16.03702958956824
-8.75 0 -22.55554438435238
-8.75 0 -29.07405917913653
-8.75 0 -50.6444556156476
-8.75 0 -56.88148520521586
-8.75 0 -63.11851479478413
-8.75 0 -69.35554438435241
-8.75 0 -90.33952168839946
-8.75 0 -96.27161735071957
-8.75 0 -102.2037130130397
-8.75 0 -108.1358086753598
-8.75 0 -114.0679043376799
2.916666666666666 0 -120
-2.916666666666668 0 -120
8.75 0 -90.33952168839946
8.75 0 -96.27161735071957
8.75 0 -102.2037130130397
8.75 0 -108.1358086753598
8.75 0 -114.0679043376799
8.75 0 -50.6444556156476
8.75 0 -56.88148520521586
8.75 0 -63.11851479478413
8.75 0 -69.35554438435241
13.17993625251889 6.668292638168619 -41.96375261844044
8.75 6.038350312483194 -43.64386757823088
13.17993625251889 6.668292638168619 -38.03624738155955
2.659452786154225 14.52942384291035 -38.03624738155955
-2.659452786154213 14.52942384291036 -38.03624738155955
-13.17993625251888 6.668292638168629 -38.03624738155955
-13.17993625251888 6.668292638168629 -41.96375261844044
2.659452786154241 14.52942384291035 -41.96375261844044
-2.659452786154226 14.52942384291035 -41.96375261844044
8.75 6.038350312483201 -36.35613242176911
8.75 6.666666666666651 -3
8.75 13.33333333333329 -3
8.75 20 -28.81708188627839
8.75 20 -22.3628114147088
8.75 20 -15.9085409431392
8.75 20 -9.454270471569618
8.75 15.95009130872618 -36.79388060742988
-5.875000000000016 23 -3
-3.730349362740526e-14 23 -3
5.874999999999972 23 -3
-11.75 5.749999999999988 -3
-11.75 11.49999999999999 -3
-11.75 17.24999999999999 -3
-8.75 13.33333333333335 -3
-8.75 6.666666666666705 -3
-2.916666666666666 20 -3
2.916666666666668 20 -3
11.75 5.749999999999988 -3
11.75 11.49999999999999 -3
11.75 17.24999999999999 -3
11.75 5.749999999999988 0
11.75 11.49999999999999 0
11.75 17.24999999999999 0
-5.875000000000016 23 0
-3.730349362740526e-14 23 0
5.874999999999972 23 0
-11.75 5.749999999999988 0
-11.75 11.49999999999999 0
-11.75 17.24999999999999 0
-8.75 20 -9.454270471569602
-8.75 20 -15.90854094313919
-8.75 20 -22.36281141470879
-8.75 20 -28.81708188627837
-8.75 15.95009130872618 -36.79388060742988
-8.75 6.038350312483201 -36.35613242176911
-8.75 6.038350312483199 -43.64386757823088
-8.75 15.95009130872618 -43.20611939257012
-8.75 20 -69.1628114147088
-8.75 20 -63.05427047156959
-8.75 20 -56.94572952843039
-8.75 20 -50.83718858529119
-8.75 15.95009130872618 -76.79388060742988
-8.75 6.038350312483201 -76.35613242176912
-13.17993625251888 6.668292638168629 -78.03624738155956
13.17993625251889 6.668292638168619 -78.03624738155956
2.659452786154244 14.52942384291035 -78.03624738155956
-2.659452786154232 14.52942384291035 -78.03624738155956
-13.17993625251888 6.668292638168629 -81.96375261844045
2.659452786154205 14.52942384291036 -81.96375261844045
-2.659452786154197 14.52942384291036 -81.96375261844045
13.17993625251889 6.668292638168619 -81.96375261844045
-8.75 6.038350312483199 -83.6438675782309
-8.75 15.95009130872618 -83.20611939257012
-8.75 20 -109.1628114147088
-8.75 20 -103.0542704715696
-8.75 20 -96.94572952843039
-8.75 20 -90.83718858529119
-8.75 13.71092418509085 -117.635676178924
-8.75 3.710924185090863 -120
2.916666666666666 7.421848370181725 -120
-2.916666666666668 7.421848370181725 -120
8.75 3.710924185090863 -120
8.75 6.038350312483194 -83.6438675782309
8.75 15.95009130872618 -83.20611939257012
8.75 20 -109.1628114147088
8.75 20 -103.0542704715696
8.75 20 -96.94572952843039
8.75 20 -90.83718858529119
8.75 13.71092418509085 -117.635676178924
8.75 6.038350312483201 -76.35613242176912
8.75 15.95009130872618 -43.20611939257012
8.75 20 -69.1628114147088
8.75 20 -63.05427047156959
8.75 20 -56.94572952843039
8.75 20 -50.83718858529119
8.75 15.95009130872618 -76.79388060742988
2.916666666666666 20 -35.27135235784799
-2.916666666666668 20 -35.27135235784799
-2.579786919585635 13.62310151005946 -37.66869235629542
2.579786919585617 13.62310151005946 -37.66869235629542
2.579786919585649 13.62310151005929 -42.33130764370453
-2.579786919585632 13.62310151005929 -42.33130764370453
2.916666666666666 20 -44.72864764215201
-2.916666666666668 20 -44.72864764215201
2.916666666666666 20 -75.27135235784799
-2.916666666666668 20 -75.27135235784799
-2.579786919585664 13.62310151005948 -77.66869235629541
2.579786919585647 13.62310151005948 -77.66869235629541
2.579786919585619 13.62310151005931 -82.33130764370453
-2.579786919585602 13.62310151005931 -82.33130764370453
2.916666666666666 20 -84.72864764215201
-2.916666666666668 20 -84.72864764215201
2.916666666666666 20 -115.271352357848
-2.916666666666668 20 -115.271352357848
2.284655356378691 5.814394644068293 -84.40742602607935
-2.28465535637871 5.814394644068286 -84.40742602607935
-1.4210854715202e-14 2.70380620564788 -84.40742602607935
8.8061347102581 2.70380620564788 -83.20412950547619
8.878293833804877 8.466325187447422 -81.96375261844045
3.268882490310387 11.82443110020632 -81.96375261844045
-3.268882490310359 11.82443110020633 -81.96375261844045
-8.878293833804857 8.466325187447442 -81.96375261844045
-8.8061347102581 2.70380620564788 -83.20412950547619
8.8061347102581 2.70380620564788 -76.79587049452381
-6.217248937900877e-15 2.70380620564788 -75.59257397392065
-8.8061347102581 2.70380620564788 -76.79587049452381
8.878293833804877 8.466325187447422 -78.03624738155956
3.268882490310387 11.82443110020632 -78.03624738155956
-3.268882490310359 11.82443110020633 -78.03624738155956
-8.878293833804857 8.466325187447442 -78.03624738155956
2.284655356378691 5.814394644068293 -75.59257397392066
-2.28465535637871 5.814394644068286 -75.59257397392066
2.284655356378691 5.814394644068293 -44.40742602607934
-2.28465535637871 5.814394644068286 -44.40742602607934
-1.4210854715202e-14 2.70380620564788 -44.40742602607934
8.8061347102581 2.70380620564788 -43.20412950547618
8.878293833804877 8.466325187447422 -41.96375261844044
3.268882490310387 11.82443110020632 -41.96375261844044
-3.268882490310359 11.82443110020633 -41.96375261844044
-8.878293833804857 8.466325187447442 -41.96375261844044
-8.8061347102581 2.70380620564788 -43.20412950547618
8.8061347102581 2.70380620564788 -36.79587049452382
-6.217248937900877e-15 2.70380620564788 -35.59257397392066
-8.8061347102581 2.70380620564788 -36.79587049452382
8.878293833804877 8.466325187447422 -38.03624738155955
3.268882490310387 11.82443110020632 -38.03624738155955
-3.268882490310359 11.82443110020633 -38.03624738155955
-8.878293833804857 8.466325187447442 -38.03624738155955
2.284655356378691 5.814394644068293 -35.59257397392065
-2.28465535637871 5.814394644068286 -35.59257397392065
-8.881784197001252e-16 0 -115.60720980571
-2.989597515779477 0 -87.02421877691364
-2.449263063852288 0 -99.23766518187961
-3.069263776070554 0 -73.44325837623055
-3.348573931278659 0 -53.76297041043173
-2.817172188267775 0 -4.114445958393169
3.037834446519517 0 -33.25994595770142
3.104800592772243 0 -19.29628698696035
3.232065321839421 0 -94.50469645783537
2.150105276592523 0 -105.1697608441997
3.168402652341345 0 -65.63705955280298
2.821358870462137 0 -46.55614253334846
-3.104800592772251 0 -12.77777219217619
-3.056326897957509 0 -25.17821137220523
-4.259747516848912 0 -80.23732368466165
3.715298507194741 0 -5.668959496524906
4.129998596448885 0 -39.78846697423246
-10.26027375078499 0 -80.04746473693234
10.61650498127773 0 -80
1.993234383648245 0 -76.77804710490756
10.23432396670498 0 -39.95769339484649
-1.800190644895889 0 -36.39995601213426
-10.15937080122789 0 -40.39865299993706
2.284775456086254 0 -83.29534941668192
3.228328249505032 0 -59.70337881671119
-2.972001096598675 0 -66.92603443565226
-3.348573931278657 0 -47.52594082086347
-3.121737242363609 0 -60.51270775642841
3.073156896392425 0 -53.12492202094431
3.106577281906138 0 -26.1695615816121
-4.111265379591504 0 -19.16896890505248
3.525279825467522 0 -11.98628541131777
-3.229346241452705 0 -93.07357499593007
-3.887305403695092 0 -105.1697608441997
4.086581506915931 0 -99.47749056953479
-3.411006263996076 0 -110.9020808781409
3.738282129792946 0 -111.3562271198346
-3.693825415784487 0 -41.52416562007367
-3.663553498384446 0 -31.36552815513149
3.438134309468605 0 -71.52180842314023
6.040903669312625 0 -80.00000000000001
-0.7500515469708544 0 -8.292145610227088
-4.566830834490458 0 -115.8227680412057
4.583869353117946 0 -115.8464116397945
-5.293639838755557 0 -7.174484764337812
3.24022250100317 0 -88.7347051120022
10.97648590814139 2.933411570034639 -43.34741374870423
14.37919456786652 3.378699440339919 -40
-14.37919456786524 3.378699440345381 -40
6.519729056627425 13.25405520423404 -39.68286806478839
-6.51972905662743 13.25405520423404 -40.3171319352116
7.464008913671677e-15 14.77081061853801 -39.99045063147301
11.71451959098261 2.776048359356249 -36.92746556429503
8.75 10.05917043616169 -33.39357254478089
8.75 14.50913411194221 -19.14961228263394
8.75 5.066945601010223 -12.81769940456971
8.75 5.105131168815852 -25.48311144721209
8.75 5.194906772941508 -19.26155328194382
8.75 14.95533365017866 -12.75132273077573
8.75 15.17104665172578 -25.53792555049707
8.75 14.87760993899187 -31.92022602857657
8.75 10.00233618855608 -8.646006242769595
8.75 5.014911454618561 -31.1833326253581
8.75 9.969568732162676 -16.0370295895683
8.75 9.962782553548113 -22.4876148783604
8.75 4.562560683291167 -7.567589568509749
8.75 15.54251446942889 -7.460803846865311
8.75 10.09441167778521 -28.29828621294568
8.75 13.19676357533303 -35.03598164058673
10.25 3.10416666666666 -3
-10.25 3.104166666666674 -3
11.75 20.125 -1.5
11.75 14.37499999999999 -1.500000000000001
11.75 8.624999999999988 -1.5
11.75 2.874999999999994 -1.5
3.157610638484556 18.22886740495932 0
-2.707174061168086 4.878797530676509 0
7.069955745470661 8.71654637064 0
-6.619519168154191 14.39111856499582 0
7.102873022115111 14.37499999999999 0
0.1126091443291184 11.52691623390895 0
-7.000954855602268 8.644857627020135 0
-2.792058517349995 18.15992185565015 0
2.948495529093417 4.721447277005961 0
-7.528051718759414 18.81262893003678 0
7.528051718759419 4.187371069963204 0
7.820492259183634 19.07601590637069 0
-7.553981076842913 4.160878030182232 0
-11.75 20.125 -1.5
-11.75 14.37499999999999 -1.5
-11.75 8.624999999999989 -1.5
-11.75 2.874999999999994 -1.5
-8.75 10.05917043616169 -33.39357254478089
-8.75 14.50913411194221 -19.14961228263393
-8.75 5.066945601010233 -12.81769940456968
-8.75 5.105131168815859 -25.48311144721206
-8.75 5.194906772941514 -19.26155328194378
-8.75 14.95533365017867 -12.7513227307757
-8.75 15.20348673587889 -25.62421582379307
-8.75 14.88224423672803 -31.93255321047599
-8.75 10.00233618855611 -8.64600624276957
-8.75 5.014911454618574 -31.18333262535809
-8.75 9.96956873216269 -16.03702958956824
-8.75 9.947092813373311 -22.55554438435238
-8.75 4.562560683291172 -7.567589568509728
-8.75 15.54251446942891 -7.460803846865302
-8.75 10.09441167778522 -28.29828621294568
-8.75 13.19792214976707 -35.03906343606158
-10.97648590814138 2.933411570034642 -36.65258625129576
-10.97648590814138 2.933411570034643 -43.34741374870423
-8.75 10.05917043616169 -46.60642745521909
-8.75 10.0591704361617 -73.39357254478091
-8.75 14.7098483631841 -59.99999999999999
-8.75 5.40142606872134 -66.23702958956827
-8.75 5.401426068721342 -53.76297041043173
-8.75 5.401426068721344 -59.99999999999999
-8.75 15.24639539005023 -53.96991961974507
-8.75 15.24639539005023 -66.03008038025493
-8.75 14.8869958788851 -72.0377295977009
-8.75 14.92587627142789 -48.02962939205644
-8.75 4.756614125596613 -71.35721213231727
-8.75 4.756614125596608 -48.64278786768273
-8.75 10.10591481030675 -57.03381458081562
-8.75 10.11691923460145 -62.98431986866053
-8.75 10.08476451871342 -51.71707316137225
-8.75 10.08476451871341 -68.28292683862776
-8.75 13.19911006030634 -75.06535753286781
-8.75 13.15844389776453 -45.09242876521269
-10.97648590814138 2.933411570034643 -76.65258625129576
-14.37919456786524 3.378699440345375 -80
14.37919456786652 3.378699440339913 -80
-6.519729056610283 13.25405520424247 -80.31713193516612
6.519729056627428 13.25405520423404 -79.68286806478841
9.044512972402158e-16 14.77081061853801 -80.00954936852698
-10.97648590814139 2.933411570034643 -83.34741374870424
-8.75 5.056025091022186 -93.56809917753093
-8.75 4.983704861058637 -105.4628230187883
-8.75 14.7098483631841 -100
-8.75 9.140346239061293 -114.5293549275371
-8.75 10.05917043616169 -86.60642745521911
-8.75 15.25891468990943 -93.98572177468122
-8.75 14.863080191969 -106.098405981375
-8.75 14.92082416520891 -88.03625378653338
-8.75 5.058884149660662 -99.58437542667974
-8.75 15.02282269298832 -112.1222527929283
-8.75 4.933629362211542 -111.2962844045629
-8.75 5.041349631309085 -115.978708733956
-8.75 9.853446800732252 -108.7605652661269
-8.75 10.13647748877842 -96.94572952843038
-8.75 4.557041247479936 -88.37859037789727
-8.75 10.17709745710472 -103.0542704715696
-8.75 10.03688047532142 -91.74764176777467
-8.75 13.15811512158931 -85.09285986127144
0 3.710924185090863 -120
5.007178102801749 3.710924185090863 -120
-5.007178102801749 3.710924185090863 -120
8.75 5.056025091022186 -93.56809917753093
8.75 4.983704861058638 -105.4628230187883
8.75 14.7098483631841 -100
8.75 9.140346239061293 -114.5293549275371
8.75 10.05917043616169 -86.60642745521911
8.75 15.23730577533479 -94.04320125394138
8.75 14.863080191969 -106.098405981375
8.75 14.91773717741254 -88.0444651407134
8.75 5.058884149660662 -99.58437542667974
8.75 15.02282269298832 -112.1222527929283
8.75 4.933629362211542 -111.2962844045629
8.75 5.041349631309085 -115.978708733956
8.75 9.853446800732252 -108.7605652661269
8.75 10.04600688527131 -96.99959801624938
8.75 4.557041247479933 -88.37859037789725
8.75 10.10995470882482 -102.9926704819733
8.75 10.03688047532142 -91.74764176777467
8.75 13.15791422952634 -85.09339423198807
11.71451959098261 2.776048359356238 -83.07253443570498
11.71451959098261 2.77604835935625 -76.92746556429503
8.75 10.05917043616169 -46.60642745521909
8.75 10.0591704361617 -73.39357254478091
8.75 14.7098483631841 -59.99999999999999
8.75 5.40142606872134 -66.23702958956827
8.75 5.401426068721342 -53.76297041043173
8.75 5.401426068721344 -59.99999999999999
8.75 15.24639539005023 -53.96991961974507
8.75 15.22478647547559 -65.97260090099478
8.75 14.92587627142788 -48.02962939205644
8.75 14.88390889108873 -72.02951824352088
8.75 4.756614125596613 -71.35721213231727
8.75 4.756614125596608 -48.64278786768273
8.75 10.10591481030675 -57.03381458081562
8.75 10.11434674477113 -62.97747707351051
8.75 10.08476451871342 -51.71707316137224
8.75 10.08476451871341 -68.28292683862776
8.75 13.15844389776453 -45.09242876521269
8.75 13.19833831335724 -75.06330469432281
5.104993928100168 16.52622637039159 -36.5772875990862
-5.104993928100175 16.52622637039159 -36.5772875990862
-3.552713678800501e-15 16.71644262681701 -36.50577743774321
-5.104993928100175 16.52622637039154 -43.42271240091377
5.104993928100182 16.52622637039154 -43.42271240091377
5.329070518200751e-15 16.71644262681694 -43.49422256225677
1.77635683940025e-15 20 -8.051814855409225
-1.77635683940025e-15 20 -30.21953750243876
-3.160437808724971 20 -19.13567617892399
4.042033735234789 20 -19.135676178924
-3.58607880785843 20 -26.17597522651002
3.236621462712028 20 -12.89555286591643
-3.670868472393369 20 -12.13106832443163
3.24823083895571 20 -25.41851294499399
-4.800549094905021 20 -31.15105986618462
4.601394488347278 20 -7.340554631631369
4.601394488347271 20 -30.93079772621662
-4.601394488347272 20 -7.34055463163137
8.812499999999986 23 -1.5
2.937499999999966 23 -1.5
-8.812500000000007 23 -1.5
-2.937500000000027 23 -1.499999999999999
-1.77635683940025e-15 20 -49.49245777538999
0 20 -70.50754222461002
-3.459848363184097 20 -59.99999999999999
3.459848363184096 20 -59.99999999999999
2.972030637959392 20 -65.80706802729729
3.591204091786242 20 -53.36577466221271
-3.752920655963765 20 -66.58397985181362
-3.00785981461636 20 -54.1392907079427
4.72389759708124 20 -48.7440489088294
-4.833917464526088 20 -71.35940764136568
-4.529706210557888 20 -49.02781302730394
4.529706210557893 20 -70.97218697269606
5.104993928100182 16.5262263703916 -76.5772875990862
-5.104993928100187 16.5262263703916 -76.5772875990862
-3.552713678800501e-15 16.71644262681703 -76.50577743774321
-5.104993928100157 16.52622637039156 -83.42271240091378
5.104993928100163 16.52622637039156 -83.42271240091378
3.552713678800501e-15 16.71644262681695 -83.49422256225677
0 20 -110.50754222461
-1.77635683940025e-15 20 -89.49245777538999
-2.717954273863924 20 -100
3.851062937255863 20 -100
3.331847128691698 20 -105.8932031461093
3.331847128691699 20 -94.10679685389073
-3.675881596546304 20 -106.4583943444319
-3.675881596546306 20 -93.54160565556811
-4.818509652642597 20 -88.66570946011066
-4.818509652642597 20 -111.3342905398893
4.641949347554716 20 -88.9007388806056
4.64194934755472 20 -111.0992611193944
0 12.15054490691454 -118.2222873131959
0 17.17229381840108 -116.3344041131328
-4.375 15.60002486467379 -116.9254850684018
4.375000000000001 15.60002486467379 -116.9254850684018
-4.958333333333332 11.26103813940853 -118.5566897121043
4.958333333333334 11.26103813940853 -118.5566897121043
7.026418234855263 5.593208488046059 -83.29792005690467
-7.026418234852772 5.593208488043976 -83.29792005690599
-1.477233002420091e-15 9.186071738478004 -83.21460088469773
5.954972637718353 2.70380620564788 -79.38787900919475
-5.954972637718358 2.70380620564788 -79.38787900919475
9.499966069924742 2.70380620564788 -79.87757580183894
-9.499966069924742 2.70380620564788 -79.87757580183894
1.754166501071289 2.70380620564788 -81.03251517325464
-1.966505174384665 2.70380620564788 -80.96556404170575
-10.81322654265012 5.794557387437908 -80.03659278153157
1.709539740015834e-14 12.26795678093888 -80.03659278153157
-6.30140396995883 10.52592378779038 -80.03659278153157
6.301403969958853 10.52592378779037 -80.03659278153157
10.81322654265013 5.79455738743789 -80.03659278153157
7.026418234855261 5.593208488046059 -76.70207994309533
-7.026418234852765 5.593208488043971 -76.70207994309401
2.602202337546596e-15 9.186071738478001 -76.78539911530227
7.026418234855266 5.593208488046061 -43.29792005690467
-7.026418234852772 5.593208488043976 -43.29792005690599
-0.03628855448562471 9.370418896551477 -43.13975117009277
-5.954972637718358 2.70380620564788 -39.38787900919475
5.954972637718353 2.70380620564788 -39.38787900919475
-9.499966069924742 2.70380620564788 -39.87757580183894
9.499966069924742 2.70380620564788 -39.87757580183894
1.754166501071289 2.70380620564788 -41.03251517325464
-1.966505174384665 2.70380620564788 -40.96556404170575
-10.81322654265012 5.794557387437903 -39.96340721846843
1.164733016683648e-14 12.26795678093888 -40.03659278153155
-6.30140396995883 10.52592378779038 -40.03659278153155
6.301403969958851 10.52592378779037 -40.03659278153155
10.81322654265013 5.794557387437891 -40.03659278153156
7.026418234855268 5.593208488046064 -36.70207994309533
-7.026418234852772 5.593208488043977 -36.70207994309401
2.602202337546596e-15 9.186071738478002 -36.78539911530227
0 11.38448452338924 -28.21800663068764
0 11.44453388937719 -68.22301563835678
0 11.43824273288785 -51.7489443245049
0 11.43984768892014 -91.78505658062559
0 11.19439358863407 -109.3988090811203
0.6589436846215015 8.444721104706353 -100.0135616043153
0.7052029193710467 8.693588788250903 -60.00765539436753
0.455434420960259 11.09417610797935 -19.26350891893803
-6.217248937900877e-15 8.726787337361946 -10.5463489853374
-0.3910140340063943 6.405264807018238 -113.9600402927182
-3.883536814675936 12.43024805923524 -47.5309817168994
-2.775669374855346 13.49100984126011 -103.0817532756292
-3.884078597238151 12.42890139588739 -87.52907713186725
3.88353681467594 12.43024805923524 -47.5309817168994
3.883940075857351 12.42827786701779 -87.52875725604193
-2.014896651428987 14.00515328788998 -5.847239409228211
-4.012116035916597 12.46050206933812 -32.62937355178956
4.037646751657214 12.45906450692617 -72.66742004796671
4.009599513237855 12.45919593188846 -32.62683034884199
-4.039261179301858 12.45997840729329 -72.66898825773605
-3.301422202919867 13.48071333139412 -56.85172276288819
3.316257570878692 13.41754106626097 -96.88381811016198
-2.311583123714744 6.389309020224591 -105.5257431609506
3.394189972553685 13.48071333139413 -56.85172276288819
-7.993605777301127e-15 5.098113717802825 -50.42541949823541
-3.121251303974757 6.542447019420793 -22.3924247700395
-3.434219598784239 13.48899060357109 -63.14754073850862

CELLS 3150 13850
1 0
1 1
1 2
1 3
1 4
1 5
1 6
1 7
1 8
1 9
1 10
1 11
1 12
1 13
1 14
1 15
1 16
1 17
1 18
1 19
1 20
1 21
1 22
1 23
1 24
1 25
1 26
1 27
1 28
1 29
1 30
1 31
1 32
1 33
1 34
1 35
1 36
1 37
1 38
1 39
1 40
1 41
1 42
1 43
1 44
1 45
1 46
1 47
1 48
1 49
1 50
1 51
1 52
1 53
1 54
1 55
1 56
1 57
1 58
1 59
1 60
1 61
1 62
1 63
1 64
1 65
1 66
1 67
1 68
1 69
1 70
1 71
1 72
1 73
1 74
1 75
1 76
1 77
1 78
1 79
1 80
1 81
2 0 1
2 1 2
2 2 3
2 3 82
2 82 83
2 83 84
2 84 85
2 85 4
2 4 5
2 5 6
2 6 86
2 86 87
2 87 88
2 88 7
2 8 7
2 8 9
2 9 89
2 89 90
2 90 91
2 91 92
2 92 10
2 11 10
2 12 11
2 13 12
2 13 93
2 93 94
2 94 95
2 95 96
2 96 14
2 15 14
2 16 15
2 17 16
2 17 97
2 97 98
2 98 99
2 99 100
2 100 101
2 101 18
2 19 102
2 102 103
2 103 18
2 20 104
2 104 105
2 105 106
2 106 107
2 107 108
2 108 19
2 20 21
2 21 22
2 22 23
2 0 109
2 109 110
2 110 111
2 111 112
2 112 23
2 1 113
2 113 24
2 24 114
2 114 0
2 2 115
2 115 25
2 26 25
2 27 26
2 27 116
2 116 117
2 117 28
2 29 28
2 29 30
2 30 118
2 118 11
2 31 119
2 119 12
2 31 32
2 33 32
2 34 120
2 120 121
2 121 33
2 35 34
2 24 35
2 3 122
2 122 25
2 4 123
2 123 124
2 124 36
2 37 125
2 125 126
2 126 127
2 127 128
2 128 36
2 26 129
2 129 37
2 39 130
2 130 131
2 131 132
2 132 38
2 8 133
2 133 134
2 134 135
2 135 39
2 40 136
2 136 137
2 137 9
2 40 138
2 138 139
2 139 36
2 5 140
2 140 141
2 141 142
2 142 38
2 6 143
2 143 144
2 144 145
2 145 41
2 38 41
2 42 146
2 146 147
2 147 148
2 148 41
2 7 149
2 149 150
2 150 151
2 151 42
2 39 42
2 40 152
2 152 153
2 153 154
2 154 155
2 155 43
2 29 156
2 156 43
2 10 157
2 157 30
2 31 158
2 158 13
2 44 159
2 159 32
2 45 160
2 160 161
2 161 162
2 162 163
2 163 44
2 46 164
2 164 45
2 46 47
2 14 165
2 165 47
2 47 166
2 166 15
2 22 167
2 167 48
2 49 48
2 50 49
2 50 168
2 168 169
2 169 51
2 46 51
2 52 170
2 170 16
2 52 53
2 54 53
2 55 171
2 171 172
2 172 54
2 56 55
2 57 56
2 21 173
2 173 57
2 52 174
2 174 17
2 58 175
2 175 53
2 59 176
2 176 177
2 177 178
2 178 179
2 179 58
2 60 180
2 180 59
2 18 181
2 181 60
2 61 182
2 182 183
2 183 60
2 19 184
2 184 61
2 57 185
2 185 20
2 62 186
2 186 56
2 63 187
2 187 188
2 188 189
2 189 190
2 190 62
2 61 191
2 191 63
2 23 192
2 192 48
2 64 193
2 193 35
2 65 194
2 194 195
2 195 196
2 196 197
2 197 64
2 49 198
2 198 65
2 37 199
2 199 200
2 200 43
2 28 201
2 201 202
2 202 27
2 34 203
2 203 204
2 204 33
2 64 205
2 205 206
2 206 44
2 65 207
2 207 208
2 208 45
2 51 209
2 209 210
2 210 50
2 55 211
2 211 212
2 212 54
2 62 213
2 213 214
2 214 58
2 63 215
2 215 216
2 216 59
2 66 217
2 217 218
2 218 67
2 67 219
2 219 66
2 66 220
2 220 68
2 68 221
2 221 222
2 222 223
2 223 224
2 224 69
2 69 225
2 225 67
2 68 70
2 70 226
2 226 71
2 71 227
2 227 72
2 72 228
2 228 73
2 69 73
2 70 229
2 229 230
2 230 231
2 231 232
2 232 73
2 71 233
2 233 234
2 234 72
2 74 235
2 235 236
2 236 75
2 75 237
2 237 74
2 74 238
2 238 76
2 76 239
2 239 240
2 240 241
2 241 242
2 242 77
2 77 243
2 243 75
2 76 78
2 78 244
2 244 79
2 79 245
2 245 80
2 80 246
2 246 81
2 77 81
2 78 247
2 247 248
2 248 249
2 249 250
2 250 81
2 79 251
2 251 252
2 252 80
3 1 273 0
3 0 264 109
3 0 269 264
3 0 273 269
3 2 273 1
3 3 273 2
3 82 259 3
3 259 269 3
3 269 273 3
3 6 4 5
3 86 4 6
3 4 268 85
3 86 268 4
3 8 9 7
3 7 9 88
3 9 258 88
3 89 297 9
3 9 297 258
3 11 275 10
3 10 291 92
3 10 290 274
3 274 291 10
3 275 290 10
3 12 275 11
3 13 275 12
3 93 279 13
3 13 290 275
3 279 290 13
3 15 270 14
3 14 256 96
3 14 267 256
3 14 270 267
3 16 270 15
3 17 270 16
3 97 254 17
3 254 267 17
3 267 270 17
3 18 295 101
3 103 295 18
3 19 296 102
3 108 296 19
3 21 271 20
3 20 298 104
3 271 293 20
3 20 293 276
3 276 298 20
3 22 271 21
3 23 271 22
3 112 292 23
3 23 293 271
3 23 292 272
3 272 293 23
3 83 282 82
3 82 282 259
3 84 260 83
3 260 282 83
3 85 284 84
3 84 284 260
3 268 284 85
3 87 268 86
3 88 258 87
3 258 268 87
3 90 265 89
3 265 297 89
3 91 283 90
3 90 283 265
3 92 266 91
3 266 283 91
3 92 291 266
3 94 257 93
3 257 279 93
3 95 280 94
3 94 280 257
3 96 278 95
3 278 280 95
3 256 278 96
3 98 285 97
3 97 285 254
3 99 255 98
3 255 285 98
3 100 286 99
3 99 286 255
3 101 288 100
3 100 288 286
3 101 295 288
3 102 253 103
3 102 296 253
3 253 295 103
3 104 261 105
3 104 298 261
3 105 287 106
3 261 287 105
3 106 262 107
3 106 287 262
3 107 289 108
3 262 289 107
3 289 296 108
3 109 281 110
3 264 281 109
3 110 277 111
3 110 281 277
3 111 263 112
3 111 277 263
3 263 292 112
3 253 289 288
3 288 295 253
3 253 296 289
3 254 276 267
3 254 298 276
3 285 298 254
3 261 285 255
3 255 287 261
3 255 286 262
3 262 287 255
3 267 272 256
3 272 292 256
3 256 292 278
3 257 280 277
3 277 281 257
3 257 281 279
3 258 294 268
3 258 297 294
3 259 274 269
3 259 291 274
3 282 291 259
3 265 283 260
3 260 284 265
3 266 282 260
3 260 283 266
3 261 298 285
3 286 288 262
3 288 289 262
3 277 280 263
3 263 280 278
3 278 292 263
3 269 290 264
3 279 281 264
3 264 290 279
3 284 294 265
3 294 297 265
3 266 291 282
3 267 276 272
3 268 294 284
3 274 290 269
3 276 293 272
3 0 299 1
3 114 299 0
3 1 299 113
3 113 114 24
3 113 299 114
3 1 300 2
3 113 300 1
3 2 300 115
3 11 301 12
3 118 301 11
3 12 301 119
3 113 24 35
3 115 26 25
3 26 302 27
3 26 115 35
3 35 302 26
3 27 302 116
3 28 303 29
3 117 303 28
3 29 118 30
3 119 29 32
3 29 303 32
3 29 301 118
3 119 301 29
3 31 119 32
3 32 303 33
3 33 303 121
3 34 302 35
3 120 302 34
3 35 300 113
3 115 300 35
3 116 304 117
3 116 302 120
3 120 304 116
3 121 303 117
3 117 304 121
3 121 304 120
3 2 305 3
3 115 305 2
3 3 305 122
3 115 25 122
3 122 305 115
3 3 315 82
3 122 315 3
3 85 318 4
3 4 318 123
3 25 26 129
3 25 306 122
3 129 321 25
3 25 321 306
3 124 319 36
3 36 319 128
3 125 313 37
3 37 313 129
3 82 309 83
3 82 315 309
3 83 310 84
3 309 310 83
3 84 308 85
3 84 310 308
3 308 318 85
3 306 315 122
3 123 314 124
3 123 318 314
3 314 319 124
3 126 312 125
3 312 313 125
3 127 307 126
3 307 312 126
3 128 311 127
3 127 311 307
3 128 319 311
3 313 321 129
3 313 320 306
3 306 321 313
3 306 320 315
3 311 316 307
3 307 317 312
3 316 317 307
3 310 316 308
3 308 316 314
3 314 318 308
3 309 317 310
3 315 320 309
3 309 320 317
3 310 317 316
3 314 316 311
3 311 319 314
3 312 320 313
3 317 320 312
3 5 4 322
3 4 123 322
3 140 5 322
3 9 8 323
3 8 133 323
3 137 9 323
3 36 132 38
3 142 36 38
3 36 142 124
3 36 139 132
3 39 130 40
3 39 40 135
3 130 138 40
3 135 40 136
3 141 123 124
3 141 140 123
3 123 140 322
3 142 141 124
3 138 130 131
3 139 131 132
3 139 138 131
3 133 134 137
3 133 137 323
3 134 135 136
3 134 136 137
3 5 327 6
3 140 327 5
3 6 327 143
3 41 324 38
3 38 324 142
3 145 324 41
3 141 326 140
3 140 326 143
3 143 327 140
3 142 325 141
3 141 325 144
3 144 326 141
3 142 324 145
3 145 325 142
3 143 326 144
3 144 325 145
3 6 338 86
3 143 338 6
3 88 340 7
3 7 340 149
3 41 339 145
3 148 339 41
3 42 337 146
3 151 337 42
3 86 336 87
3 86 338 336
3 87 329 88
3 87 336 329
3 329 340 88
3 144 330 143
3 330 338 143
3 145 332 144
3 144 332 330
3 145 339 332
3 146 335 147
3 146 337 335
3 147 328 148
3 147 335 328
3 328 339 148
3 149 334 150
3 149 340 334
3 150 331 151
3 150 334 331
3 331 337 151
3 328 333 332
3 332 339 328
3 328 335 333
3 333 334 329
3 329 336 333
3 334 340 329
3 332 333 330
3 333 336 330
3 336 338 330
3 331 334 333
3 333 335 331
3 335 337 331
3 8 7 344
3 7 149 344
3 133 8 344
3 42 39 341
3 39 135 341
3 151 42 341
3 134 133 343
3 133 149 343
3 149 133 344
3 135 134 342
3 134 150 342
3 150 134 343
3 135 151 341
3 151 135 342
3 149 150 343
3 150 151 342
3 89 9 357
3 9 137 357
3 10 92 354
3 157 10 354
3 30 156 29
3 156 30 360
3 30 157 345
3 30 345 360
3 136 40 358
3 40 152 358
3 155 43 352
3 43 156 352
3 90 89 347
3 347 89 357
3 91 90 349
3 90 347 349
3 92 91 348
3 348 91 349
3 92 348 354
3 137 136 353
3 353 136 358
3 137 353 357
3 152 153 350
3 152 350 358
3 153 154 346
3 153 346 350
3 154 155 351
3 346 154 351
3 351 155 352
3 352 156 360
3 345 157 354
3 352 345 359
3 345 352 360
3 345 354 359
3 350 346 355
3 346 351 356
3 355 346 356
3 349 347 355
3 347 353 355
3 353 347 357
3 348 349 356
3 354 348 359
3 348 356 359
3 349 355 356
3 353 350 355
3 350 353 358
3 351 352 359
3 356 351 359
3 10 361 11
3 157 361 10
3 11 361 118
3 30 118 157
3 118 361 157
3 12 362 13
3 119 362 12
3 13 362 158
3 31 158 119
3 158 362 119
3 93 13 374
3 13 158 374
3 14 96 373
3 165 14 373
3 31 32 159
3 158 31 363
3 31 159 380
3 363 31 380
3 159 44 372
3 44 163 372
3 160 45 371
3 45 164 371
3 47 164 46
3 164 47 379
3 47 165 364
3 47 364 379
3 94 93 367
3 367 93 374
3 95 94 368
3 94 367 368
3 96 95 366
3 366 95 368
3 96 366 373
3 158 363 374
3 159 372 380
3 161 160 370
3 370 160 371
3 162 161 365
3 365 161 370
3 163 162 369
3 162 365 369
3 163 369 372
3 371 164 379
3 364 165 373
3 363 372 377
3 372 363 380
3 374 363 377
3 371 364 378
3 364 371 379
3 364 373 378
3 369 365 375
3 365 370 376
3 375 365 376
3 366 368 376
3 373 366 378
3 366 376 378
3 368 367 375
3 367 374 377
3 375 367 377
3 368 375 376
3 372 369 377
3 369 375 377
3 370 371 378
3 376 370 378
3 14 381 15
3 165 381 14
3 15 381 166
3 47 166 165
3 166 381 165
3 15 382 16
3 166 382 15
3 16 382 170
3 21 383 22
3 173 383 21
3 22 383 167
3 46 166 47
3 51 384 46
3 170 46 53
3 46 384 53
3 46 382 166
3 170 382 46
3 167 49 48
3 49 385 50
3 49 167 56
3 56 385 49
3 50 385 168
3 169 384 51
3 52 170 53
3 53 384 54
3 54 384 172
3 55 385 56
3 171 385 55
3 173 57 56
3 167 383 56
3 56 383 173
3 168 386 169
3 168 385 171
3 171 386 168
3 172 384 169
3 169 386 172
3 172 386 171
3 16 387 17
3 170 387 16
3 17 387 174
3 52 174 170
3 174 387 170
3 97 17 402
3 17 174 402
3 18 101 181
3 52 53 175
3 174 52 392
3 52 175 405
3 392 52 405
3 175 58 395
3 58 179 395
3 176 59 397
3 59 180 397
3 180 60 391
3 60 181 399
3 391 60 399
3 98 97 388
3 388 97 402
3 99 98 396
3 98 388 396
3 100 99 389
3 389 99 396
3 101 100 398
3 100 389 398
3 181 101 399
3 101 398 399
3 174 392 402
3 175 395 405
3 177 176 394
3 394 176 397
3 178 177 390
3 390 177 394
3 179 178 393
3 178 390 393
3 179 393 395
3 180 391 397
3 396 388 401
3 401 388 404
3 388 402 404
3 389 396 403
3 398 389 400
3 400 389 403
3 393 390 401
3 390 394 403
3 401 390 403
3 397 391 400
3 398 391 399
3 391 398 400
3 392 395 404
3 395 392 405
3 402 392 404
3 395 393 404
3 393 401 404
3 394 397 400
3 394 400 403
3 396 401 403
3 18 408 103
3 181 408 18
3 102 407 19
3 19 407 184
3 60 408 181
3 183 408 60
3 61 407 182
3 184 407 61
3 103 406 102
3 406 407 102
3 103 408 406
3 182 406 183
3 182 407 406
3 406 408 183
3 184 108 19
3 104 423 20
3 20 423 185
3 56 57 186
3 185 413 57
3 57 426 186
3 413 426 57
3 61 420 184
3 191 412 61
3 412 420 61
3 186 416 62
3 62 416 190
3 187 418 63
3 63 418 191
3 105 409 104
3 409 423 104
3 106 417 105
3 105 417 409
3 107 410 106
3 410 417 106
3 108 419 107
3 107 419 410
3 184 420 108
3 108 420 419
3 185 423 413
3 186 426 416
3 188 415 187
3 415 418 187
3 189 411 188
3 411 415 188
3 190 414 189
3 189 414 411
3 190 416 414
3 191 418 412
3 417 422 409
3 422 425 409
3 409 425 423
3 410 424 417
3 419 421 410
3 421 424 410
3 414 422 411
3 411 424 415
3 422 424 411
3 418 421 412
3 419 420 412
3 412 421 419
3 413 425 416
3 416 426 413
3 423 425 413
3 416 425 414
3 414 425 422
3 415 421 418
3 415 424 421
3 417 424 422
3 20 427 21
3 185 427 20
3 21 427 173
3 173 185 57
3 173 427 185
3 22 428 23
3 167 428 22
3 23 428 192
3 167 48 192
3 192 428 167
3 109 440 0
3 0 440 114
3 23 439 112
3 192 439 23
3 35 24 193
3 114 429 24
3 24 445 193
3 429 445 24
3 49 198 48
3 48 430 192
3 198 446 48
3 48 446 430
3 193 437 64
3 64 437 197
3 194 438 65
3 65 438 198
3 110 433 109
3 433 440 109
3 111 434 110
3 110 434 433
3 112 432 111
3 432 434 111
3 112 439 432
3 114 440 429
3 430 439 192
3 193 445 437
3 195 436 194
3 436 438 194
3 196 431 195
3 431 436 195
3 197 435 196
3 196 435 431
3 197 437 435
3 438 446 198
3 429 443 437
3 437 445 429
3 440 443 429
3 438 444 430
3 430 446 438
3 430 444 439
3 435 441 431
3 431 442 436
3 441 442 431
3 432 442 434
3 439 444 432
3 432 444 442
3 434 441 433
3 433 443 440
3 441 443 433
3 434 442 441
3 437 443 435
3 435 443 441
3 436 444 438
3 442 444 436
3 129 26 27
3 27 447 129
3 202 447 27
3 29 156 28
3 156 448 28
3 28 448 201
3 129 447 37
3 37 447 199
3 43 448 156
3 200 448 43
3 199 449 200
3 447 449 199
3 200 449 448
3 201 449 202
3 448 449 201
3 202 449 447
3 27 116 202
3 117 28 201
3 202 116 117
3 202 117 201
3 159 32 33
3 33 450 159
3 204 450 33
3 34 35 193
3 193 451 34
3 34 451 203
3 159 450 44
3 44 450 206
3 64 451 193
3 205 451 64
3 203 452 204
3 451 452 203
3 204 452 450
3 206 452 205
3 205 452 451
3 450 452 206
3 121 204 33
3 34 203 120
3 203 121 120
3 203 204 121
3 128 462 36
3 36 462 139
3 37 463 125
3 199 463 37
3 138 464 40
3 40 464 152
3 155 461 43
3 43 461 200
3 125 460 126
3 125 463 460
3 126 456 127
3 126 460 456
3 127 458 128
3 456 458 127
3 458 462 128
3 139 453 138
3 453 464 138
3 139 462 453
3 152 459 153
3 152 464 459
3 153 455 154
3 153 459 455
3 154 457 155
3 455 457 154
3 457 461 155
3 200 454 199
3 454 463 199
3 200 461 454
3 458 459 453
3 453 462 458
3 459 464 453
3 457 460 454
3 454 461 457
3 460 463 454
3 455 458 456
3 456 460 455
3 455 460 457
3 455 459 458
3 38 465 41
3 132 465 38
3 42 467 39
3 39 467 130
3 41 465 148
3 146 467 42
3 130 468 131
3 130 467 146
3 146 468 130
3 131 466 132
3 147 466 131
3 131 468 147
3 148 465 132
3 132 466 148
3 147 468 146
3 148 466 147
3 44 479 163
3 206 479 44
3 160 478 45
3 45 478 208
3 197 477 64
3 64 477 205
3 65 480 194
3 207 480 65
3 161 475 160
3 475 478 160
3 162 471 161
3 471 475 161
3 163 476 162
3 162 476 471
3 163 479 476
3 194 473 195
3 194 480 473
3 195 472 196
3 195 473 472
3 196 474 197
3 472 474 196
3 474 477 197
3 205 469 206
3 205 477 469
3 469 479 206
3 208 470 207
3 470 480 207
3 208 478 470
3 474 476 469
3 469 477 474
3 476 479 469
3 470 475 473
3 473 480 470
3 470 478 475
3 472 473 471
3 471 476 472
3 473 475 471
3 472 476 474
3 45 482 164
3 208 482 45
3 164 51 46
3 198 49 50
3 50 481 198
3 210 481 50
3 164 482 51
3 51 482 209
3 198 481 65
3 65 481 207
3 207 483 208
3 481 483 207
3 208 483 482
3 209 483 210
3 482 483 209
3 210 483 481
3 50 168 210
3 169 51 209
3 169 209 168
3 168 209 210
3 54 175 53
3 54 484 175
3 212 484 54
3 55 56 186
3 186 485 55
3 55 485 211
3 175 484 58
3 58 484 214
3 62 485 186
3 213 485 62
3 211 486 212
3 485 486 211
3 212 486 484
3 214 486 213
3 213 486 485
3 484 486 214
3 172 212 54
3 55 211 171
3 211 172 171
3 211 212 172
3 58 495 179
3 214 495 58
3 176 496 59
3 59 496 216
3 190 497 62
3 62 497 213
3 63 498 187
3 215 498 63
3 177 493 176
3 493 496 176
3 178 489 177
3 489 493 177
3 179 494 178
3 178 494 489
3 179 495 494
3 187 491 188
3 187 498 491
3 188 490 189
3 188 491 490
3 189 492 190
3 490 492 189
3 492 497 190
3 213 488 214
3 213 497 488
3 488 495 214
3 216 487 215
3 487 498 215
3 216 496 487
3 487 493 491
3 491 498 487
3 487 496 493
3 492 494 488
3 488 497 492
3 494 495 488
3 490 491 489
3 489 492 490
3 491 493 489
3 489 494 492
3 59 501 180
3 216 501 59
3 180 503 60
3 60 503 183
3 182 504 61
3 61 504 191
3 191 502 63
3 63 502 215
3 501 503 180
3 183 499 182
3 499 504 182
3 183 503 499
3 191 504 502
3 215 500 216
3 215 502 500
3 500 501 216
3 499 501 500
3 500 502 499
3 499 503 501
3 502 504 499
3 217 219 66
3 219 218 67
3 218 219 217
3 217 66 505
3 66 220 505
3 67 218 506
3 225 67 506
3 68 221 220
3 224 69 225
3 218 217 507
3 222 217 505
3 217 222 507
3 218 223 506
3 223 218 507
3 220 221 505
3 221 222 505
3 222 223 507
3 223 224 506
3 224 225 506
3 219 512 66
3 66 508 220
3 66 512 508
3 67 513 219
3 225 509 67
3 509 513 67
3 68 510 70
3 220 510 68
3 73 511 69
3 69 511 225
3 70 510 226
3 226 508 71
3 71 508 227
3 227 509 72
3 72 509 228
3 228 511 73
3 219 513 512
3 508 510 220
3 225 511 509
3 226 510 508
3 508 512 227
3 227 513 509
3 512 513 227
3 509 511 228
3 68 70 518
3 221 68 518
3 73 69 514
3 69 224 514
3 70 229 518
3 232 73 514
3 222 221 517
3 221 229 517
3 229 221 518
3 223 222 515
3 222 230 515
3 230 222 517
3 224 223 516
3 231 223 515
3 223 231 516
3 224 232 514
3 232 224 516
3 229 230 517
3 230 231 515
3 231 232 516
3 70 226 229
3 226 71 519
3 71 233 519
3 72 228 520
3 234 72 520
3 232 228 73
3 229 226 519
3 228 232 520
3 230 229 519
3 231 230 521
3 233 230 519
3 230 233 521
3 232 231 520
3 231 234 520
3 234 231 521
3 233 234 521
3 227 233 71
3 72 234 227
3 234 233 227
3 235 237 74
3 237 236 75
3 236 237 235
3 235 74 522
3 74 238 522
3 75 236 523
3 243 75 523
3 76 239 238
3 242 77 243
3 236 235 524
3 240 235 522
3 235 240 524
3 236 241 523
3 241 236 524
3 238 239 522
3 239 240 522
3 240 241 524
3 241 242 523
3 242 243 523
3 237 529 74
3 74 526 238
3 74 529 526
3 75 530 237
3 243 525 75
3 525 530 75
3 76 528 78
3 238 528 76
3 81 527 77
3 77 527 243
3 78 528 244
3 244 526 79
3 79 526 245
3 245 525 80
3 80 525 246
3 246 527 81
3 237 530 529
3 526 528 238
3 243 527 525
3 244 528 526
3 245 530 525
3 526 529 245
3 529 530 245
3 525 527 246
3 76 78 535
3 239 76 535
3 81 77 531
3 77 242 531
3 78 247 535
3 250 81 531
3 240 239 534
3 239 247 534
3 247 239 535
3 241 240 532
3 240 248 532
3 248 240 534
3 242 241 533
3 249 241 532
3 241 249 533
3 242 250 531
3 250 242 533
3 247 248 534
3 248 249 532
3 249 250 533
3 78 244 247
3 244 79 536
3 79 251 536
3 80 246 537
3 252 80 537
3 250 246 81
3 247 244 536
3 246 250 537
3 248 247 536
3 249 248 538
3 251 248 536
3 248 251 538
3 250 249 537
3 249 252 537
3 252 249 538
3 251 252 538
3 245 251 79
3 252 245 80
3 252 251 245
4 436 442 431 562
4 239 76 300 535
4 301 250 81 531
4 393 401 390 550
4 115 122 25 247
4 167 192 48 229
4 52 170 174 224
4 31 119 158 242
4 411 415 424 560
4 410 543 419 561
4 319 462 547 554
4 14 165 72 228
4 158 13 75 243
4 174 17 67 225
4 0 114 74 238
4 393 542 401 550
4 436 545 442 562
4 436 540 442 545
4 289 410 419 561
4 410 421 419 543
4 122 3 79 244
4 317 539 309 564
4 73 232 514 382
4 350 546 459 547
4 192 23 71 226
4 415 550 424 560
4 157 10 361 246
4 185 20 220 66
4 401 542 388 544
4 393 542 550 560
4 421 410 424 543
4 245 251 252 539
4 415 543 424 550
4 393 494 542 560
4 355 547 347 564
4 436 540 545 562
4 396 401 388 544
4 543 548 419 561
4 424 543 410 561
4 355 347 349 564
4 308 316 310 546
4 424 410 544 561
4 217 219 218 298
4 317 546 539 564
4 285 388 542 544
4 289 419 548 561
4 439 292 432 540
4 423 409 298 542
4 285 388 402 542
4 375 367 368 545
4 366 376 368 545
4 425 409 423 542
4 366 376 545 565
4 388 404 402 542
4 258 294 297 547
4 375 367 545 559
4 366 278 540 545
4 233 234 292 540
4 308 310 260 546
4 10 157 80 246
4 261 542 409 544
4 309 320 315 539
4 444 439 432 540
4 373 378 366 540
4 233 234 227 292
4 278 373 366 540
4 285 402 218 542
4 396 388 255 544
4 351 539 457 546
4 355 546 547 564
4 316 546 308 547
4 217 298 218 542
4 308 546 260 547
4 409 422 544 560
4 278 234 373 540
4 439 233 292 540
4 423 298 217 542
4 367 545 541 563
4 424 550 544 560
4 541 545 367 559
4 366 545 540 565
4 268 294 336 547
4 542 544 401 550
4 319 462 458 547
4 543 544 424 550
4 393 390 489 550
4 298 409 261 542
4 462 319 139 554
4 496 500 487 543
4 282 251 245 539
4 393 550 489 560
4 356 539 351 546
4 355 546 350 547
4 346 356 351 546
4 393 489 494 560
4 347 547 265 564
4 401 404 388 542
4 442 540 432 545
4 473 436 431 562
4 424 544 543 561
4 545 562 540 565
4 317 320 309 539
4 314 123 330 547
4 473 540 436 562
4 123 336 330 547
4 444 432 442 540
4 432 540 263 545
4 315 251 282 539
4 347 265 349 564
4 260 310 309 564
4 311 319 458 547
4 366 378 376 565
4 375 377 367 559
4 394 397 496 543
4 308 260 284 547
4 441 433 443 562
4 54 174 224 52
4 33 158 242 31
4 185 55 221 57
4 27 122 247 25
4 50 192 229 48
4 309 315 282 539
4 350 547 459 554
4 487 500 498 543
4 245 252 291 539
4 124 139 319 554
4 366 368 280 545
4 218 298 285 542
4 441 545 433 562
4 329 547 137 554
4 282 309 539 564
4 462 453 458 554
4 285 542 261 544
4 462 458 547 554
4 289 262 410 561
4 409 544 542 560
4 278 292 234 540
4 501 500 496 543
4 217 423 542 553
4 402 218 542 551
4 458 459 546 547
4 124 319 314 554
4 124 314 333 554
4 425 542 423 553
4 402 542 404 551
4 263 432 292 540
4 417 410 287 544
4 411 490 491 560
4 311 546 316 547
4 314 547 333 554
4 350 355 346 546
4 311 458 546 547
4 319 311 314 547
4 285 255 388 544
4 541 545 433 563
4 418 415 498 543
4 444 439 540 556
4 378 540 373 558
4 291 252 354 539
4 317 312 539 546
4 421 424 415 543
4 354 291 539 564
4 367 257 368 545
4 501 391 503 543
4 502 504 412 543
4 233 540 439 556
4 234 373 540 558
4 502 498 500 543
4 283 349 265 564
4 314 330 333 547
4 5 322 327 140
4 344 8 133 323
4 433 545 541 562
4 394 496 493 543
4 409 422 417 544
4 544 550 542 560
4 336 258 294 268
4 473 540 562 565
4 319 547 314 554
4 336 333 330 547
4 55 185 221 505
4 122 27 247 536
4 192 50 229 519
4 174 54 224 506
4 158 33 242 523
4 455 350 346 546
4 123 314 318 547
4 353 137 357 547
4 409 417 261 544
4 263 540 278 545
4 356 539 546 564
4 261 285 298 542
4 377 541 367 559
4 458 453 459 554
4 350 455 459 546
4 433 541 443 562
4 124 314 330 333
4 366 540 378 565
4 455 346 351 546
4 354 348 291 564
4 137 547 353 554
4 397 501 496 543
4 366 280 278 545
4 367 257 545 563
4 317 307 312 546
4 245 282 259 251
4 315 539 320 557
4 359 539 354 555
4 490 550 491 560
4 351 457 455 546
4 315 251 539 557
4 354 539 252 555
4 397 391 501 543
4 502 412 418 543
4 502 418 498 543
4 291 282 245 539
4 499 504 502 543
4 501 503 499 543
4 442 432 434 545
4 260 546 310 564
4 441 434 433 545
4 491 543 415 550
4 368 376 375 545
4 436 444 442 540
4 412 543 504 548
4 403 401 396 544
4 296 419 420 548
4 285 402 254 218
4 503 543 391 548
4 458 459 547 554
4 312 320 317 539
4 292 278 263 540
4 263 434 432 545
4 281 433 545 563
4 311 458 307 546
4 265 260 283 564
4 251 282 259 315
4 329 333 336 547
4 496 487 493 543
4 73 15 381 166
4 113 1 76 299
4 11 361 81 118
4 377 367 541 563
4 443 541 433 563
4 311 307 316 546
4 351 356 359 539
4 418 412 421 543
4 397 400 391 543
4 261 417 287 544
4 333 547 329 554
4 393 404 401 542
4 417 424 410 544
4 307 460 312 546
4 504 543 499 548
4 460 539 312 546
4 296 420 407 548
4 398 391 400 548
4 334 329 137 554
4 398 548 400 561
4 282 260 309 564
4 499 543 503 548
4 457 539 460 546
4 262 544 410 561
4 287 410 262 544
4 418 421 415 543
4 397 394 400 543
4 277 433 434 545
4 407 420 182 548
4 412 420 419 548
4 284 294 268 547
4 368 257 280 545
4 256 373 278 234
4 284 268 318 547
4 498 415 491 543
4 376 375 545 565
4 456 307 458 546
4 473 431 472 562
4 488 542 497 553
4 470 475 478 558
4 501 499 500 543
4 502 500 499 543
4 217 218 507 542
4 233 521 234 540
4 470 483 556 558
4 353 547 350 554
4 401 544 403 550
4 538 252 251 539
4 307 456 460 546
4 265 284 260 547
4 480 483 470 207
4 391 543 400 548
4 403 544 396 561
4 454 199 463 449
4 387 16 69 170
4 77 362 12 119
4 457 461 454 555
4 454 555 449 557
4 394 543 493 550
4 348 266 291 564
4 318 308 284 547
4 294 265 297 547
4 443 433 440 563
4 377 374 367 563
4 285 261 255 544
4 487 493 543 550
4 9 137 323 340
4 370 371 478 558
4 123 4 322 338
4 487 496 216 500
4 359 539 356 564
4 443 440 552 563
4 377 549 374 563
4 496 501 216 500
4 353 355 350 547
4 311 316 314 547
4 398 295 399 548
4 463 539 454 557
4 477 469 474 552
4 469 452 549 552
4 393 495 395 551
4 370 478 475 558
4 400 548 543 561
4 486 551 488 553
4 494 488 495 551
4 461 351 352 555
4 473 562 472 565
4 373 364 378 558
4 430 439 444 556
4 291 282 259 245
4 435 437 477 552
4 461 457 351 555
4 502 498 215 500
4 330 123 314 124
4 435 477 474 552
4 392 402 404 551
4 425 423 413 553
4 296 289 419 548
4 370 558 475 565
4 497 414 416 553
4 498 491 487 543
4 393 494 495 551
4 312 463 313 557
4 375 559 545 565
4 374 377 363 549
4 443 440 429 552
4 487 215 498 500
4 392 218 402 551
4 413 423 217 553
4 333 332 124 554
4 408 399 295 548
4 457 539 351 555
4 393 542 494 551
4 480 438 436 556
4 455 458 459 546
4 281 433 277 545
4 435 552 474 562
4 373 234 364 558
4 233 439 430 556
4 470 540 475 558
4 407 406 296 548
4 396 544 255 561
4 209 210 483 556
4 449 201 202 557
4 400 543 394 550
4 235 429 440 552
4 374 363 236 549
4 235 552 440 563
4 236 374 549 563
4 217 542 507 553
4 507 542 218 551
4 208 483 470 558
4 233 521 540 556
4 234 540 521 558
4 200 449 454 555
4 372 369 479 549
4 457 454 539 555
4 389 396 286 561
4 469 541 474 552
4 538 539 251 557
4 252 539 538 555
4 408 183 399 548
4 355 356 346 546
4 54 506 223 224
4 28 537 250 249
4 523 33 242 241
4 51 520 232 231
4 55 505 221 222
4 27 536 248 247
4 34 522 239 240
4 519 50 229 230
4 205 452 469 552
4 469 452 206 549
4 204 452 203 552
4 486 211 212 553
4 497 488 492 542
4 480 436 473 556
4 487 543 491 550
4 457 460 455 546
4 312 320 539 557
4 213 486 488 553
4 470 483 480 556
4 486 214 488 551
4 449 463 454 557
4 463 449 199 557
4 358 350 459 554
4 315 320 306 557
4 443 552 541 563
4 377 541 549 563
4 359 354 345 555
4 139 453 462 554
4 399 183 391 548
4 318 314 308 547
4 353 357 347 547
4 444 540 436 556
4 280 263 278 545
4 351 539 359 555
4 314 316 308 547
4 355 353 347 547
4 460 463 312 557
4 281 545 257 563
4 494 542 488 551
4 487 491 493 550
4 399 391 398 548
4 354 252 345 555
4 424 417 422 544
4 315 306 251 557
4 256 72 373 234
4 497 492 414 553
4 396 388 98 255
4 480 483 207 556
4 478 208 470 558
4 334 333 329 554
4 316 317 310 546
4 137 353 136 554
4 475 558 540 565
4 524 552 235 563
4 524 236 549 563
4 287 255 261 544
4 370 378 558 565
4 393 404 542 551
4 263 277 434 545
4 459 464 358 554
4 286 396 255 561
4 470 556 540 558
4 358 353 350 554
4 476 479 369 549
4 461 200 454 555
4 183 503 391 548
4 460 454 463 539
4 356 546 355 564
4 436 540 473 556
4 441 442 434 545
4 495 488 214 551
4 477 205 469 552
4 333 328 332 554
4 474 552 541 562
4 407 182 406 548
4 524 541 552 563
4 137 136 334 554
4 296 406 253 548
4 454 539 555 557
4 524 549 541 563
4 369 549 377 559
4 403 550 544 561
4 460 312 539 557
4 443 552 435 562
4 289 548 288 561
4 251 259 79 315
4 406 408 295 548
4 254 402 67 218
4 492 414 553 560
4 213 488 497 553
4 414 425 553 560
4 398 288 548 561
4 469 206 479 549
4 489 390 393 178
4 460 539 463 557
4 469 549 541 552
4 389 396 99 286
4 488 551 542 553
4 476 549 369 559
4 417 106 287 410
4 455 456 458 546
4 465 41 148 339
4 467 42 337 146
4 400 543 550 561
4 390 401 403 550
4 424 544 422 560
4 497 542 492 553
4 442 545 441 562
4 263 432 434 111
4 94 368 367 257
4 409 105 261 417
4 419 410 289 107
4 84 310 260 308
4 456 455 460 546
4 486 213 485 553
4 484 214 486 551
4 205 451 452 552
4 450 206 452 549
4 235 440 74 563
4 494 492 488 542
4 481 207 483 556
4 208 482 483 558
4 447 199 449 557
4 200 448 449 555
4 100 398 389 288
4 400 550 403 561
4 153 455 350 346
4 280 366 95 368
4 540 558 378 565
4 475 470 473 540
4 346 154 455 351
4 389 403 396 561
4 464 138 358 554
4 464 138 40 358
4 319 36 462 139
4 344 149 7 340
4 474 469 476 541
4 287 262 255 544
4 327 338 6 143
4 398 389 288 561
4 136 40 138 358
4 36 319 124 139
4 398 400 389 561
4 370 160 478 371
4 449 555 201 557
4 145 41 324 339
4 389 100 288 286
4 496 397 394 176
4 288 295 398 548
4 281 277 257 545
4 358 138 136 554
4 341 337 42 151
4 295 253 406 548
4 495 179 393 395
4 309 310 260 83
4 209 556 483 558
4 492 553 542 560
4 484 495 214 551
4 460 457 454 539
4 377 549 541 559
4 208 478 482 558
4 110 277 433 434
4 316 307 317 546
4 204 549 452 552
4 486 212 551 553
4 280 257 277 545
4 393 494 489 178
4 255 388 98 285
4 287 261 105 417
4 492 542 494 560
4 443 541 552 562
4 435 197 477 437
4 472 562 559 565
4 455 459 153 350
4 205 477 451 552
4 403 400 394 550
4 255 544 262 561
4 182 504 499 548
4 236 524 235 563
4 431 442 441 562
4 200 461 448 555
4 542 553 425 560
4 146 468 147 335
4 286 288 389 561
4 260 284 84 308
4 476 541 549 559
4 289 288 262 561
4 154 457 455 351
4 376 365 375 565
4 485 213 497 553
4 544 550 543 561
4 490 489 550 560
4 255 99 396 286
4 331 151 342 150
4 265 294 284 547
4 411 424 422 560
4 312 313 320 557
4 406 183 408 548
4 352 461 155 351
4 147 328 466 148
4 540 556 521 558
4 450 479 206 549
4 447 463 199 557
4 9 137 340 258
4 73 228 232 165
4 77 242 243 158
4 157 81 250 246
4 226 70 229 192
4 69 224 225 174
4 76 238 239 114
4 244 78 247 122
4 538 555 539 557
4 480 207 481 556
4 542 551 507 553
4 416 497 190 414
4 137 9 357 297
4 137 340 258 329
4 89 347 357 297
4 524 541 549 552
4 137 9 297 258
4 352 351 359 555
4 475 540 473 565
4 474 541 476 562
4 277 263 280 545
4 139 131 466 132
4 130 468 138 131
4 298 217 66 423
4 493 496 394 176
4 187 498 418 415
4 463 125 312 313
4 432 292 439 112
4 440 433 281 563
4 233 292 71 439
4 478 475 160 370
4 359 356 348 564
4 459 453 464 554
4 438 444 436 556
4 374 257 367 563
4 122 27 306 25
4 106 262 287 410
4 370 378 371 558
4 504 182 61 420
4 477 474 197 435
4 34 445 429 552
4 33 363 380 549
4 139 138 453 554
4 74 440 264 563
4 262 289 410 107
4 158 33 363 31
4 192 50 430 48
4 393 494 179 495
4 268 336 338 123
4 368 94 280 257
4 394 177 390 550
4 330 143 326 144
4 436 438 480 194
4 279 236 374 75
4 443 437 435 552
4 369 372 377 549
4 392 405 54 551
4 426 413 55 553
4 174 54 392 52
4 55 185 413 57
4 280 95 366 278
4 541 559 476 562
4 412 502 191 504
4 180 391 503 501
4 138 331 136 554
4 406 407 296 102
4 145 325 144 332
4 416 414 425 553
4 408 295 103 406
4 369 372 479 163
4 414 189 411 560
4 365 559 375 565
4 138 139 335 554
4 343 150 149 334
4 489 492 494 560
4 183 499 503 548
4 232 228 520 165
4 243 242 523 158
4 225 224 506 174
4 250 246 537 157
4 226 229 519 192
4 239 238 522 114
4 221 220 505 185
4 244 247 536 122
4 393 395 404 551
4 354 348 92 291
4 123 4 338 268
4 457 155 461 351
4 490 411 189 560
4 356 355 349 564
4 234 520 373 364
4 236 363 374 523
4 430 233 519 439
4 522 235 429 440
4 400 403 389 561
4 113 239 76 300
4 166 232 73 382
4 301 250 118 81
4 306 321 27 557
4 360 345 28 555
4 471 472 559 565
4 474 196 435 562
4 402 506 218 392
4 505 217 413 423
4 326 140 123 141
4 343 134 137 133
4 202 249 201 532
4 332 124 330 333
4 291 354 252 80
4 132 36 38 465
4 40 39 467 130
4 420 419 296 108
4 370 161 365 565
4 365 162 369 559
4 475 161 370 565
4 309 260 282 83
4 493 177 394 550
4 395 495 484 551
4 255 262 286 561
4 101 399 398 295
4 477 437 451 552
4 418 502 191 412
4 180 397 391 501
4 252 354 345 537
4 306 251 536 315
4 435 196 431 562
4 416 485 497 553
4 450 372 479 549
4 559 562 545 565
4 336 258 268 87
4 482 478 371 558
4 489 491 490 550
4 298 423 104 409
4 50 430 446 556
4 296 253 289 548
4 51 379 364 558
4 91 348 349 564
4 451 445 34 552
4 380 450 33 549
4 438 480 481 556
4 55 485 426 553
4 54 405 484 551
4 4 123 318 268
4 277 263 434 111
4 433 281 277 110
4 504 61 412 420
4 102 296 406 253
4 461 352 448 555
4 342 135 136 134
4 141 325 142 124
4 406 295 103 253
4 447 313 463 557
4 369 377 375 559
4 42 337 341 467
4 136 331 334 554
4 263 292 432 112
4 235 74 264 563
4 341 39 40 135
4 142 38 36 324
4 328 335 139 554
4 476 559 472 562
4 93 367 374 257
4 374 236 279 563
4 152 459 464 358
4 282 259 315 82
4 286 262 288 561
4 443 435 441 562
4 402 97 388 285
4 61 182 407 420
4 60 399 408 183
4 373 366 96 278
4 378 370 376 565
4 481 438 65 480
4 282 315 309 82
4 450 372 44 479
4 182 499 183 548
4 306 248 251 557
4 249 345 252 555
4 490 492 489 560
4 484 486 212 551
4 450 452 204 549
4 414 422 425 560
4 91 349 283 564
4 459 152 350 358
4 62 416 485 497
4 235 240 429 552
4 236 363 241 549
4 278 96 373 256
4 233 430 230 556
4 364 234 231 558
4 451 477 64 437
4 474 476 472 562
4 104 261 298 409
4 223 218 392 551
4 222 413 217 553
4 390 177 489 550
4 27 321 447 557
4 498 187 491 415
4 201 449 448 555
4 486 485 211 553
4 203 452 451 552
4 28 448 360 555
4 482 478 45 371
4 481 483 210 556
4 58 495 484 395
4 475 473 471 565
4 331 333 334 554
4 97 402 254 285
4 55 222 221 517
4 239 534 34 240
4 224 54 516 223
4 242 241 33 533
4 183 406 182 548
4 347 89 265 297
4 446 481 50 556
4 264 440 281 563
4 306 536 251 248
4 252 345 249 537
4 482 379 51 558
4 447 449 202 557
4 85 284 268 318
4 209 483 482 558
4 336 329 258 87
4 291 348 92 266
4 268 86 4 338
4 353 358 136 554
4 289 253 288 548
4 139 328 332 339
4 493 491 489 550
4 492 190 497 414
4 199 454 200 449
4 233 230 430 519
4 235 522 429 240
4 234 520 364 231
4 241 363 236 523
4 37 463 447 313
4 284 85 308 318
4 545 559 541 562
4 217 413 222 505
4 392 506 218 223
4 43 352 448 461
4 63 498 502 418
4 189 414 492 560
4 247 27 534 248
4 229 230 50 517
4 28 249 250 533
4 232 516 51 231
4 28 537 249 345
4 27 536 306 248
4 374 279 257 563
4 258 340 9 88
4 336 86 268 338
4 501 59 397 496
4 260 282 266 564
4 433 440 281 109
4 498 215 63 502
4 312 460 125 463
4 419 289 296 108
4 33 523 363 241
4 520 51 364 231
4 522 34 429 240
4 50 519 430 230
4 283 260 266 564
4 276 513 272 512
4 91 266 348 564
4 328 333 335 554
4 372 450 380 549
4 445 451 437 552
4 471 365 161 565
4 54 506 392 223
4 505 55 413 222
4 471 473 472 565
4 426 485 416 553
4 189 492 490 560
4 395 484 405 551
4 493 489 177 550
4 324 41 465 339
4 380 372 159 450
4 451 445 437 193
4 206 469 205 452
4 483 208 470 207
4 186 416 426 485
4 471 162 365 559
4 484 175 395 405
4 196 472 431 562
4 471 472 476 559
4 369 162 476 559
4 213 486 214 488
4 288 253 295 548
4 474 472 196 562
4 331 138 335 554
4 496 501 59 216
4 394 390 403 550
4 490 188 189 411
4 436 480 473 194
4 446 438 198 481
4 475 471 161 565
4 482 379 371 164
4 223 507 218 551
4 222 217 507 553
4 156 352 360 448
4 65 198 438 481
4 236 241 524 549
4 204 33 450 549
4 212 54 484 551
4 371 45 482 164
4 44 159 372 450
4 437 64 451 193
4 315 259 79 82
4 369 479 476 163
4 288 101 398 295
4 62 416 186 485
4 524 240 235 552
4 447 129 313 321
4 175 58 484 395
4 122 27 536 306
4 251 248 538 557
4 249 252 538 555
4 71 519 233 439
4 235 522 74 440
4 75 236 374 523
4 373 72 520 234
4 234 521 231 558
4 233 230 521 556
4 279 93 374 257
4 72 373 96 256
4 4 322 338 327
4 396 98 99 255
4 203 451 34 552
4 211 485 55 553
4 272 267 513 276
4 295 181 399 408
4 464 453 138 554
4 202 249 532 248
4 438 481 446 556
4 420 296 407 184
4 340 9 344 323
4 379 482 371 558
4 158 33 523 363
4 192 50 519 430
4 13 93 374 75
4 360 448 352 555
4 104 105 261 409
4 136 151 135 342
4 313 447 321 557
4 251 79 536 315
4 354 252 80 537
4 410 106 262 107
4 174 54 506 392
4 55 185 505 413
4 91 283 266 564
4 264 281 440 109
4 66 217 505 423
4 506 67 402 218
4 44 450 479 206
4 65 481 480 207
4 88 258 340 329
4 474 196 197 435
4 369 375 365 559
4 478 160 45 371
4 290 530 274 529
4 477 197 64 437
4 43 352 156 448
4 411 422 414 560
4 201 448 28 555
4 69 224 170 514
4 129 37 447 313
4 495 58 179 395
4 337 138 335 331
4 435 431 441 562
4 497 485 62 213
4 177 390 489 178
4 67 267 17 254
4 97 402 67 254
4 210 50 481 556
4 111 263 432 112
4 463 199 37 447
4 27 447 202 557
4 95 96 366 278
4 376 370 365 565
4 79 3 315 82
4 62 416 497 190
4 475 161 160 370
4 100 389 99 286
4 3 79 259 82
4 14 267 72 256
4 74 264 440 109
4 394 493 176 177
4 209 482 51 558
4 248 306 27 557
4 249 28 345 555
4 480 438 65 194
4 479 372 44 163
4 64 205 477 451
4 215 487 216 500
4 77 242 119 531
4 247 78 535 115
4 229 70 518 167
4 459 152 153 350
4 127 307 456 126
4 471 559 365 565
4 373 96 14 72
4 240 34 429 552
4 33 241 363 549
4 280 95 94 368
4 15 73 382 166
4 81 301 11 118
4 1 113 76 300
4 349 348 356 564
4 43 352 461 155
4 85 84 284 308
4 231 51 364 558
4 50 230 430 556
4 463 37 125 313
4 439 71 23 112
4 237 290 279 264
4 392 54 223 551
4 222 55 413 553
4 495 214 58 484
4 72 96 14 256
4 181 101 295 399
4 108 184 296 420
4 45 208 478 482
4 491 187 188 415
4 461 448 43 200
4 455 153 154 346
4 331 335 333 554
4 440 0 74 109
4 18 181 295 408
4 348 91 92 266
4 296 19 407 184
4 457 154 155 351
4 67 17 97 254
4 268 86 336 87
4 365 471 161 162
4 85 268 4 318
4 363 377 372 549
4 429 437 443 552
4 269 290 274 529
4 117 116 202 304
4 102 406 103 253
4 210 521 230 556
4 120 121 203 304
4 494 393 179 178
4 352 359 345 555
4 444 438 430 556
4 371 378 364 558
4 290 530 529 237
4 93 94 367 257
4 222 507 211 553
4 281 433 109 110
4 271 23 22 428
4 380 159 33 450
4 445 451 34 193
4 175 484 54 405
4 402 17 97 67
4 101 181 295 18
4 320 313 306 557
4 186 426 55 485
4 354 92 10 80
4 472 196 431 195
4 184 108 296 19
4 293 271 510 226
4 202 538 248 557
4 434 110 277 111
4 134 343 137 334
4 123 330 326 141
4 496 59 397 176
4 67 219 513 254
4 217 66 219 298
4 388 97 98 285
4 295 103 18 408
4 398 100 101 288
4 492 189 190 414
4 296 407 19 102
4 77 12 301 119
4 382 69 16 170
4 21 20 271 427
4 90 91 349 283
4 392 404 395 551
4 416 425 413 553
4 195 436 473 194
4 83 282 309 82
4 471 476 162 559
4 292 71 439 112
4 498 63 187 418
4 105 106 287 417
4 347 89 90 265
4 232 166 73 165
4 157 81 118 250
4 239 113 76 114
4 510 271 293 220
4 191 63 502 418
4 180 59 397 501
4 83 310 260 84
4 163 476 369 162
4 71 23 272 293
4 279 374 93 75
4 145 142 325 332
4 338 6 4 327
4 379 482 51 164
4 446 198 50 481
4 134 150 343 334
4 40 152 464 358
4 80 274 10 525
4 128 311 458 127
4 144 326 330 141
4 151 136 331 342
4 344 7 9 340
4 36 319 462 128
4 156 360 28 448
4 129 447 27 321
4 264 74 0 109
4 122 3 315 79
4 290 275 10 525
4 139 138 147 131
4 93 13 279 75
4 92 354 291 80
4 237 235 264 563
4 23 272 292 71
4 391 503 60 180
4 412 191 61 504
4 380 363 372 549
4 445 437 429 552
4 269 74 0 264
4 66 298 423 104
4 158 13 374 75
4 14 165 373 72
4 274 290 10 525
4 241 33 204 549
4 423 20 66 104
4 54 212 223 551
4 0 114 440 74
4 513 267 67 254
4 71 292 23 112
4 126 312 460 125
4 114 522 429 440
4 519 192 430 439
4 363 158 374 523
4 373 520 165 364
4 3 79 269 259
4 335 138 147 139
4 298 20 66 276
4 416 413 426 553
4 124 142 36 339
4 392 395 405 551
4 279 236 237 563
4 306 25 27 321
4 30 28 360 345
4 240 203 34 552
4 222 211 55 553
4 249 202 538 248
4 429 34 24 445
4 380 33 31 363
4 505 413 185 423
4 392 402 506 174
4 227 256 267 272
4 122 306 536 315
4 354 157 345 537
4 89 357 9 297
4 446 50 48 430
4 364 51 47 379
4 341 337 40 467
4 192 23 439 71
4 57 55 426 413
4 392 52 54 405
4 77 158 119 242
4 170 69 174 224
4 229 70 167 192
4 247 78 115 122
4 108 419 289 107
4 2 3 305 273
4 225 511 270 509
4 238 526 273 528
4 337 136 151 135
4 298 66 20 104
4 352 345 360 555
4 249 201 28 555
4 267 72 256 227
4 124 325 142 332
4 306 313 321 557
4 136 337 40 135
4 446 430 438 556
4 379 371 364 558
4 236 235 237 563
4 230 50 210 556
4 279 264 281 563
4 248 27 202 557
4 48 49 167 229
4 247 26 25 115
4 119 31 32 242
4 224 53 52 170
4 174 17 402 67
4 10 157 354 80
4 20 66 276 293
4 231 209 51 558
4 508 227 272 71
4 513 227 267 272
4 291 10 92 80
4 245 525 274 80
4 227 508 272 512
4 227 509 267 72
4 509 227 267 513
4 322 338 327 143
4 291 274 10 80
4 340 344 149 323
4 525 245 274 530
4 292 227 233 71
4 70 271 22 428
4 68 21 271 427
4 279 281 257 563
4 80 252 291 245
4 185 20 66 423
4 272 276 512 293
4 324 465 36 339
4 224 46 53 170
4 247 35 26 115
4 167 49 56 229
4 142 124 332 339
4 279 237 264 563
4 362 12 13 77
4 328 335 147 139
4 132 148 139 339
4 138 468 146 335
4 7 9 340 88
4 332 145 142 339
4 329 88 258 87
4 67 219 254 218
4 386 169 172 515
4 168 515 386 171
4 532 304 121 117
4 298 219 254 276
4 86 6 4 338
4 147 328 139 466
4 137 340 329 334
4 51 169 209 384
4 305 78 2 273
4 13 243 275 525
4 270 17 225 267
4 342 136 331 150
4 138 147 468 335
4 225 69 174 387
4 157 81 246 361
4 76 238 114 299
4 243 77 158 362
4 73 228 165 381
4 259 269 274 245
4 527 246 275 525
4 132 139 36 339
4 337 130 146 138
4 526 245 269 79
4 136 331 337 151
4 269 0 74 238
4 270 511 228 509
4 338 336 330 123
4 75 279 236 237
4 275 243 527 525
4 298 66 219 276
4 526 245 529 269
4 399 181 60 408
4 420 407 61 184
4 267 270 14 509
4 468 146 130 138
4 139 466 148 132
4 328 139 466 148
4 274 530 245 529
4 508 512 66 293
4 79 269 259 245
4 123 330 141 124
4 512 276 66 293
4 74 269 529 264
4 137 136 134 334
4 147 139 131 466
4 468 147 138 131
4 245 269 274 529
4 237 74 529 264
4 513 227 272 512
4 267 225 270 509
4 271 293 23 226
4 361 10 11 81
4 130 337 40 138
4 244 273 526 528
4 72 267 14 509
4 221 57 55 517
4 516 52 54 224
4 34 24 534 239
4 242 33 31 533
4 267 17 225 67
4 290 279 13 75
4 271 20 293 220
4 74 526 269 238
4 29 30 118 250
4 47 46 232 166
4 239 24 35 113
4 56 57 173 221
4 275 13 12 77
4 534 25 27 247
4 229 50 48 517
4 250 30 28 533
4 516 51 47 232
4 328 139 148 339
4 150 134 136 334
4 330 144 141 124
4 272 227 256 292
4 138 146 337 335
4 465 148 36 339
4 204 532 121 117
4 324 36 145 339
4 123 330 143 326
4 243 13 290 525
4 275 11 10 81
4 211 515 168 171
4 149 137 343 334
4 274 291 259 245
4 245 259 79 251
4 150 136 331 334
4 264 237 74 235
4 467 337 40 146
4 130 467 40 146
4 132 148 36 465
4 228 14 270 509
4 145 142 36 324
4 293 71 23 226
4 269 526 3 273
4 66 219 276 512
4 80 157 354 537
4 122 536 79 315
4 72 256 227 234
4 75 530 290 237
4 341 40 337 151
4 151 341 40 135
4 124 144 325 332
4 20 66 293 220
4 508 71 293 226
4 80 291 274 245
4 508 272 512 293
4 140 322 327 143
4 133 149 344 323
4 510 293 508 220
4 290 13 275 525
4 290 13 243 75
4 508 293 510 226
4 75 374 158 523
4 520 72 373 165
4 74 522 114 440
4 192 519 71 439
4 292 272 227 71
4 509 267 225 67
4 273 526 3 244
4 23 271 226 428
4 81 157 118 361
4 76 114 113 299
4 73 165 166 381
4 330 144 124 332
4 220 271 20 427
4 228 72 520 165
4 246 157 80 537
4 75 158 243 523
4 506 67 225 174
4 71 519 192 226
4 122 79 536 244
4 522 74 114 238
4 66 185 505 220
4 340 149 137 323
4 322 338 143 123
4 290 279 75 237
4 341 40 39 467
4 465 36 38 324
4 322 4 5 327
4 9 8 344 323
4 465 38 41 324
4 231 51 209 384
4 272 508 71 293
4 276 219 513 512
4 341 39 42 467
4 293 66 508 220
4 79 526 3 269
4 70 226 271 428
4 271 220 68 427
4 506 402 67 174
4 185 66 505 423
4 525 290 243 75
4 122 78 305 244
4 192 70 428 226
4 275 246 10 525
4 143 140 322 123
4 149 133 137 323
4 69 170 174 387
4 158 77 119 362
4 72 14 228 509
4 271 510 226 70
4 79 3 526 244
4 151 40 337 135
4 203 202 532 240
4 220 510 271 68
4 145 36 142 339
4 130 40 337 146
4 143 338 330 123
4 275 246 527 81
4 36 148 132 339
4 3 305 273 244
4 137 149 340 334
4 269 526 74 529
4 122 78 115 305
4 192 70 167 428
4 9 8 7 344
4 67 509 267 513
4 4 6 5 327
4 73 16 69 270
4 274 530 290 525
4 78 76 2 273
4 325 141 144 124
4 249 28 303 533
4 231 516 51 384
4 73 15 16 270
4 240 534 34 302
4 222 55 385 517
4 77 11 275 81
4 445 34 24 193
4 33 31 159 380
4 76 1 2 273
4 175 54 52 405
4 55 57 426 186
4 230 385 50 517
4 248 27 534 302
4 136 342 134 150
4 10 246 80 525
4 54 516 223 384
4 241 303 33 533
4 275 12 11 77
4 379 51 47 164
4 50 48 198 446
4 360 28 30 156
4 129 27 25 321
4 273 305 78 244
4 511 228 73 270
4 250 242 32 533
4 123 143 140 326
4 133 137 343 149
4 525 530 290 75
4 238 273 76 528
4 78 273 244 528
4 69 225 511 270
4 240 202 532 248
4 222 230 211 515
4 231 223 209 515
4 534 240 248 302
4 230 222 385 517
4 303 241 249 533
4 231 223 516 384
4 70 271 510 68
4 48 49 50 198
4 31 32 33 159
4 54 52 53 175
4 27 25 26 129
4 511 73 69 270
4 273 78 76 528
4 77 275 527 81
4 527 243 275 77
4 271 22 21 383
4 383 21 271 68
4 271 22 383 70
4 2 76 78 300
4 73 69 16 382
4 301 11 77 81
4 76 2 1 300
4 73 16 15 382
4 301 11 12 77
4 516 46 224 232
4 35 247 534 239
4 221 229 56 517
4 70 383 271 68
4 229 48 49 517
4 26 25 534 247
4 516 46 53 224
4 250 32 29 533
4 247 35 534 26
4 229 49 56 517
4 242 31 32 533
4 53 52 516 224
4 50 49 48 517
4 26 25 27 534
4 33 32 31 533
4 53 52 54 516
4 51 46 47 164
4 35 24 34 193
4 55 56 57 186
4 534 27 26 302
4 385 49 50 517
4 28 29 30 156
4 54 53 516 384
4 32 33 303 533
4 70 518 383 68
4 78 76 535 300
4 382 73 69 514
4 81 77 301 531
4 383 167 518 70
4 78 535 115 300
4 119 301 77 531
4 514 69 382 170
4 47 46 516 232
4 29 30 250 533
4 534 24 35 239
4 56 57 221 517
4 47 46 51 516
4 30 29 28 533
4 46 51 516 384
4 28 29 303 533
4 35 34 534 302
4 55 56 385 517
4 516 53 46 384
4 303 29 32 533
4 26 35 534 302
4 385 56 49 517
4 34 24 35 534
4 57 56 55 517
4 35 300 239 113
4 165 14 381 228
4 29 301 250 118
4 17 174 387 225
4 113 24 114 239
4 47 165 166 232
4 46 382 232 166
4 13 158 362 243
4 114 0 299 238
4 3 122 305 244
4 56 383 221 173
4 173 57 185 221
4 23 192 428 226
4 185 20 427 220
4 30 157 118 250
4 229 518 56 167
4 229 56 518 221
4 383 56 518 167
4 383 518 56 221
4 247 535 35 115
4 247 35 535 239
4 300 35 535 115
4 300 535 35 239
4 531 301 29 119
4 531 29 301 250
4 32 531 29 119
4 32 29 531 250
4 242 531 32 119
4 242 32 531 250
4 224 514 46 170
4 224 46 514 232
4 382 46 514 170
4 382 514 46 232
4 564 317 310 309
4 564 310 317 546
4 232 51 165 520
4 232 165 51 47
4 364 165 51 520
4 364 51 165 47
4 250 28 157 537
4 250 157 28 30
4 345 157 28 537
4 345 28 157 30
4 239 34 114 522
4 239 114 34 24
4 429 114 34 522
4 429 34 114 24
4 560 415 491 411
4 560 491 415 550
4 560 409 425 542
4 560 425 409 422
4 547 258 336 329
4 547 336 258 294
4 298 218 254 219
4 298 254 218 285
4 547 564 260 265
4 260 564 547 546
4 564 354 359 539
4 564 359 354 348
4 349 265 90 283
4 90 265 349 347
4 292 234 256 278
4 292 256 234 227
4 543 419 412 421
4 543 412 419 548
4 564 291 282 266
4 564 282 291 539
4 332 139 554 328
4 554 139 332 124
4 319 458 128 311
4 128 458 319 462
4 458 307 127 311
4 458 127 307 456
4 460 307 126 456
4 460 126 307 312
4 411 491 188 415
4 411 188 491 490
4 268 123 547 336
4 547 123 268 318
4 547 137 258 329
4 473 431 195 472
4 473 195 431 436
4 420 504 548 412
4 420 548 504 182
4 391 183 60 503
4 391 60 183 399
4 473 556 470 480
4 470 556 473 540
4 549 476 469 541
4 549 469 476 479
4 137 297 547 258
4 547 297 137 357
4 529 264 290 237
4 290 264 529 269
4 297 347 547 265
4 297 547 347 357
4 167 22 70 383
4 167 70 22 428
4 2 115 78 305
4 2 78 115 300
4 68 383 221 518
4 532 203 241 204
4 532 241 203 240
4 515 211 223 212
4 515 223 211 222
4 507 211 223 222
4 515 210 231 230
4 515 231 210 209
4 521 231 210 230
4 555 249 557 538
4 555 557 249 201
4 202 557 249 538
4 202 249 557 201
4 254 513 276 219
4 254 276 513 267
4 337 136 138 331
4 138 136 337 40
4 202 117 532 201
4 202 532 117 304
4 172 211 515 212
4 168 209 515 210
4 121 203 532 204
4 121 532 203 304
4 50 168 230 210
4 50 230 168 385
4 124 339 139 332
4 139 339 124 36
4 238 269 273 526
4 238 273 269 0
4 77 13 243 275
4 77 243 13 362
4 68 21 173 383
4 173 21 68 427
4 173 221 68 383
4 515 169 168 386
4 515 168 169 209
4 171 515 172 211
4 171 172 515 386
4 304 203 202 532
4 209 384 223 231
4 223 384 209 169
4 81 246 10 275
4 81 10 246 361
4 117 532 241 204
4 168 230 515 211
4 168 515 230 210
4 117 204 303 121
4 117 303 204 241
4 33 303 204 121
4 33 204 303 241
4 203 304 116 120
4 116 304 203 202
4 169 223 515 209
4 73 15 14 381
4 14 15 73 270
4 14 228 73 381
4 73 228 14 270
4 76 238 0 273
4 0 238 76 299
4 0 1 76 273
4 76 1 0 299
4 69 225 17 387
4 17 225 69 270
4 17 16 69 387
4 69 16 17 270
4 240 302 202 248
4 27 302 202 116
4 27 202 302 248
4 220 185 68 427
4 220 68 185 221
4 173 68 185 427
4 173 185 68 221
4 203 552 241 204
4 549 552 241 524
4 549 241 552 204
4 241 240 552 203
4 552 240 241 524
4 211 223 553 507
4 211 553 223 212
4 551 553 223 507
4 551 223 553 212
4 558 231 556 521
4 558 556 231 209
4 210 556 231 521
4 210 231 556 209
4 212 54 384 172
4 212 384 54 223
4 169 212 384 172
4 169 384 212 223
4 515 212 169 172
4 515 169 212 223
4 201 28 303 249
4 201 303 28 117
4 241 201 303 249
4 241 303 201 117
4 532 201 241 249
4 532 241 201 117
4 385 230 211 222
4 385 55 211 171
4 211 55 385 222
4 116 302 203 120
4 34 302 203 240
4 34 203 302 120
4 202 203 302 240
4 202 302 203 116
4 168 211 385 230
4 168 385 211 171

CELL_TYPES 3150
1
1
1
1
1
1
1
1
1
1
1
1
1
1
1
1
1
1
1
1
1
1
1
1
1
1
1
1
1
1
1
1
1
1
1
1
1
1
1
1
1
1
1
1
1
1
1
1
1
1
1
1
1
1
1
1
1
1
1
1
1
1
1
1
1
1
1
1
1
1
1
1
1
1
1
1
1
1
1
1
1
1
3
3
3
3
3
3
3
3
3
3
3
3
3
3
3
3
3
3
3
3
3
3
3
3
3
3
3
3
3
3
3
3
3
3
3
3
3
3
3
3
3
3
3
3
3
3
3
3
3
3
3
3
3
3
3
3
3
3
3
3
3
3
3
3
3
3
3
3
3
3
3
3
3
3
3
3
3
3
3
3
3
3
3
3
3
3
3
3
3
3
3
3
3
3
3
3
3
3
3
3
3
3
3
3
3
3
3
3
3
3
3
3
3
3
3
3
3
3
3
3
3
3
3
3
3
3
3
3
3
3
3
3
3
3
3
3
3
3
3
3
3
3
3
3
3
3
3
3
3
3
3
3
3
3
3
3
3
3
3
3
3
3
3
3
3
3
3
3
3
3
3
3
3
3
3
3
3
3
3
3
3
3
3
3
3
3
3
3
3
3
3
3
3
3
3
3
3
3
3
3
3
3
3
3
3
3
3
3
3
3
3
3
3
3
3
3
3
3
3
3
3
3
3
3
3
3
3
3
3
3
3
3
3
3
3
3
3
3
3
3
3
3
3
3
3
3
3
3
3
3
3
3
3
3
3
3
3
3
3
3
3
3
3
3
3
3
3
3
3
3
3
3
3
3
3
3
3
3
3
3
3
3
3
3
3
3
3
3
3
3
3
3
3
3
5
5
5
5
5
5
5
5
5
5
5
5
5
5
5
5
5
5
5
5
5
5
5
5
5
5
5
5
5
5
5
5
5
5
5
5
5
5
5
5
5
5
5
5
5
5
5
5
5
5
5
5
5
5
5
5
5
5
5
5
5
5
5
5
5
5
5
5
5
5
5
5
5
5
5
5
5
5
5
5
5
5
5
5
5
5
5
5
5
5
5
5
5
5
5
5
5
5
5
5
5
5
5
5
5
5
5
5
5
5
5
5
5
5
5
5
5
5
5
5
5
5
5
5
5
5
5
5
5
5
5
5
5
5
5
5
5
5
5
5
5
5
5
5
5
5
5
5
5
5
5
5
5
5
5
5
5
5
5
5
5
5
5
5
5
5
5
5
5
5
5
5
5
5
5
5
5
5
5
5
5
5
5
5
5
5
5
5
5
5
5
5
5
5
5
5
5
5
5
5
5
5
5
5
5
5
5
5
5
5
5
5
5
5
5
5
5
5
5
5
5
5
5
5
5
5
5
5
5
5
5
5
5
5
5
5
5
5
5
5
5
5
5
5
5
5
5
5
5
5
5
5
5
5
5
5
5
5
5
5
5
5
5
5
5
5
5
5
5
5
5
5
5
5
5
5
5
5
5
5
5
5
5
5
5
5
5
5
5
5
5
5
5
5
5
5
5
5
5
5
5
5
5
5
5
5
5
5
5
5
5
5
5
5
5
5
5
5
5
5
5
5
5
5
5
5
5
5
5
5
5
5
5
5
5
5
5
5
5
5
5
5
5
5
5
5
5
5
5
5
5
5
5
5
5
5
5
5
5
5
5
5
5
5
5
5
5
5
5
5
5
5
5
5
5
5
5
5
5
5
5
5
5
5
5
5
5
5
5
5
5
5
5
5
5
5
5
5
5
5
5
5
5
5
5
5
5
5
5
5
5
5
5
5
5
5
5
5
5
5
5
5
5
5
5
5
5
5
5
5
5
5
5
5
5
5
5
5
5
5
5
5
5
5
5
5
5
5
5
5
5
5
5
5
5
5
5
5
5
5
5
5
5
5
5
5
5
5
5
5
5
5
5
5
5
5
5
5
5
5
5
5
5
5
5
5
5
5
5
5
5
5
5
5
5
5
5
5
5
5
5
5
5
5
5
5
5
5
5
5
5
5
5
5
5
5
5
5
5
5
5
5
5
5
5
5
5
5
5
5
5
5
5
5
5
5
5
5
5
5
5
5
5
5
5
5
5
5
5
5
5
5
5
5
5
5
5
5
5
5
5
5
5
5
5
5
5
5
5
5
5
5
5
5
5
5
5
5
5
5
5
5
5
5
5
5
5
5
5
5
5
5
5
5
5
5
5
5
5
5
5
5
5
5
5
5
5
5
5
5
5
5
5
5
5
5
5
5
5
5
5
5
5
5
5
5
5
5
5
5
5
5
5
5
5
5
5
5
5
5
5
5
5
5
5
5
5
5
5
5
5
5
5
5
5
5
5
5
5
5
5
5
5
5
5
5
5
5
5
5
5
5
5
5
5
5
5
5
5
5
5
5
5
5
5
5
5
5
5
5
5
5
5
5
5
5
5
5
5
5
5
5
5
5
5
5
5
5
5
5
5
5
5
5
5
5
5
5
5
5
5
5
5
5
5
5
5
5
5
5
5
5
5
5
5
5
5
5
5
5
5
5
5
5
5
5
5
5
5
5
5
5
5
5
5
5
5
5
5
5
5
5
5
5
5
5
5
5
5
5
5
5
5
5
5
5
5
5
5
5
5
5
5
5
5
5
5
5
5
5
5
5
5
5
5
5
5
5
5
5
5
5
5
5
5
5
5
5
5
5
5
5
5
5
5
5
5
5
5
5
5
5
5
5
5
5
5
5
5
5
5
5
5
5
5
5
5
5
5
5
5
5
5
5
5
5
5
5
5
5
5
5
5
5
5
5
5
5
5
5
5
5
5
5
5
5
5
5
5
5
5
5
5
5
5
5
5
5
5
5
5
5
5
5
5
5
5
5
5
5
5
5
5
5
5
5
5
5
5
5
5
5
5
5
5
5
5
5
5
5
5
5
5
5
5
5
5
5
5
5
5
5
5
5
5
5
5
5
5
5
5
5
5
5
5
5
5
5
5
5
5
5
5
5
5
5
5
5
5
5
5
5
5
5
5
5
5
5
5
5
5
5
5
5
5
5
5
5
5
5
5
5
5
5
5
5
5
5
5
5
5
5
5
5
5
5
5
5
5
5
5
5
5
5
5
5
5
5
5
5
5
5
5
5
5
5
5
5
5
5
5
5
5
5
5
5
5
5
5
5
5
5
5
5
5
5
5
5
5
5
5
5
5
5
5
5
5
5
5
5
5
5
5
5
5
5
5
5
5
5
5
5
5
5
5
5
5
5
5
5
5
5
5
5
5
5
10
10
10
10
10
10
10
10
10
10
10
10
10
10
10
10
10
10
10
10
10
10
10
10
10
10
10
10
10
10
10
10
10
10
10
10
10
10
10
10
10
10
10
10
10
10
10
10
10
10
10
10
10
10
10
10
10
10
10
10
10
10
10
10
10
10
10
10
10
10
10
10
10
10
10
10
10
10
10
10
10
10
10
10
10
10
10
10
10
10
10
10
10
10
10
10
10
10
10
10
10
10
10
10
10
10
10
10
10
10
10
10
10
10
10
10
10
10
10
10
10
10
10
10
10
10
10
10
10
10
10
10
10
10
10
10
10
10
10
10
10
10
10
10
10
10
10
10
10
10
10
10
10
10
10
10
10
10
10
10
10
10
10
10
10
10
10
10
10
10
10
10
10
10
10
10
10
10
10
10
10
10
10
10
10
10
10
10
10
10
10
10
10
10
10
10
10
10
10
10
10
10
10
10
10
10
10
10
10
10
10
10
10
10
10
10
10
10
10
10
10
10
10
10
10
10
10
10
10
10
10
10
10
10
10
10
10
10
10
10
10
10
10
10
10
10
10
10
10
10
10
10
10
10
10
10
10
10
10
10
10
10
10
10
10
10
10
10
10
10
10
10
10
10
10
10
10
10
10
10
10
10
10
10
10
10
10
10
10
10
10
10
10
10
10
10
10
10
10
10
10
10
10
10
10
10
10
10
10
10
10
10
10
10
10
10
10
10
10
10
10
10
10
10
10
10
10
10
10
10
10
10
10
10
10
10
10
10
10
10
10
10
10
10
10
10
10
10
10
10
10
10
10
10
10
10
10
10
10
10
10
10
10
10
10
10
10
10
10
10
10
10
10
10
10
10
10
10
10
10
10
10
10
10
10
10
10
10
10
10
10
10
10
10
10
10
10
10
10
10
10
10
10
10
10
10
10
10
10
10
10
10
10
10
10
10
10
10
10
10
10
10
10
10
10
10
10
10
10
10
10
10
10
10
10
10
10
10
10
10
10
10
10
10
10
10
10
10
10
10
10
10
10
10
10
10
10
10
10
10
10
10
10
10
10
10
10
10
10
10
10
10
10
10
10
10
10
10
10
10
10
10
10
10
10
10
10
10
10
10
10
10
10
10
10
10
10
10
10
10
10
10
10
10
10
10
10
10
10
10
10
10
10
10
10
10
10
10
10
10
10
10
10
10
10
10
10
10
10
10
10
10
10
10
10
10
10
10
10
10
10
10
10
10
10
10
10
10
10
10
10
10
10
10
10
10
10
10
10
10
10
10
10
10
10
10
10
10
10
10
10
10
10
10
10
10
10
10
10
10
10
10
10
10
10
10
10
10
10
10
10
10
10
10
10
10
10
10
10
10
10
10
10
10
10
10
10
10
10
10
10
10
10
10
10
10
10
10
10
10
10
10
10
10
10
10
10
10
10
10
10
10
10
10
10
10
10
10
10
10
10
10
10
10
10
10
10
10
10
10
10
10
10
10
10
10
10
10
10
10
10
10
10
10
10
10
10
10
10
10
10
10
10
10
10
10
10
10
10
10
10
10
10
10
10
10
10
10
10
10
10
10
10
10
10
10
10
10
10
10
10
10
10
10
10
10
10
10
10
10
10
10
10
10
10
10
10
10
10
10
10
10
10
10
10
10
10
10
10
10
10
10
10
10
10
10
10
10
10
10
10
10
10
10
10
10
10
10
10
10
10
10
10
10
10
10
10
10
10
10
10
10
10
10
10
10
10
10
10
10
10
10
10
10
10
10
10
10
10
10
10
10
10
10
10
10
10
10
10
10
10
10
10
10
10
10
10
10
10
10
10
10
10
10
10
10
10
10
10
10
10
10
10
10
10
10
10
10
10
10
10
10
10
10
10
10
10
10
10
10
10
10
10
10
10
10
10
10
10
10
10
10
10
10
10
10
10
10
10
10
10
10
10
10
10
10
10
10
10
10
10
10
10
10
10
10
10
10
10
10
10
10
10
10
10
10
10
10
10
10
10
10
10
10
10
10
10
10
10
10
10
10
10
10
10
10
10
10
10
10
10
10
10
10
10
10
10
10
10
10
10
10
10
10
10
10
10
10
10
10
10
10
10
10
10
10
10
10
10
10
10
10
10
10
10
10
10
10
10
10
10
10
10
10
10
10
10
10
10
10
10
10
10
10
10
10
10
10
10
10
10
10
10
10
10
10
10
10
10
10
10
10
10
10
10
10
10
10
10
10
10
10
10
10
10
10
10
10
10
10
10
10
10
10
10
10
10
10
10
10
10
10
10
10
10
10
10
10
10
10
10
10
10
10
10
10
10
10
10
10
10
10
10
10
10
10
10
10
10
10
10
10
10
10
10
10
10
10
10
10
10
10
10
10
10
10
10
10
10
10
10
10
10
10
10
10
10
10
10
10
10
10
10
10
10
10
10
10
10
10
10
10
10
10
10
10
10
10
10
10
10
10
10
10
10
10
10
10
10
10
10
10
10
10
10
10
10
10
10
10
10
10
10
10
10
10
10
10
10
10
10
10
10
10
10
10
10
10
10
10
10
10
10
10
10
10
10
10
10
10
10
10
10
10
10
10
10
10
10
10
10
10
10
10
10
10
10
10
10
10
10
10
10
10
10
10
10
10
10
10
10
10
10
10
10
10
10
10
10
10
10
10
10
10
10
10
10
10
10
10
10
10
10
10
10
10
10
10
10
10
10
10
10
10
10
10
10
10
10
10
10
10
10
10
10
10
10
10
10
10
10
10
10
10
10
10
10
10
10
10
10
10
10
10
10
10
10
10
10
10
10
10
10
10
10
10
10
10
10
10
10
10
10
10
10
10
10
10
10
10
10
10
10
10
10
10
10
10
10
10
10
10
10
10
10
10
10
10
10
10
10
10
10
10
10
10
10
10
10
10
10
10
10
10
10
10
10
10
10
10
10
10
10
10
10
10
10
10
10
10
10
10
10
10
10
10
10
10
10
10
10
10
10
10
10
10
10
10
10
10
10
10
10
10
10
10
10
10
10
10
10
10
10
10
10
10
10
10
10
10
10
10
10
10
10
10
10
10
10
10
10
10
10
10
10
10
10
10
10
10
10
10
10
10
10
10
10
10
10
10
10
10
10
10
10
10
10
10
10
10
10
10
10
10
10
10
10
10
10
10
10
10
10
10
10
10
10
10
10
10
10
10
10
10
10
10
10
10
10
10
10
10
10
10
10
10
10
10
10
10
10
10
10
10
10
10
10
10
10
10
10
10
10
10
10
10
10
10
10
10
10
10
10
10
10
10
10
10
10
10
10
10
10
10
10
10
10
10
10
10
10
10
10
10
10
10
10
10
10
10
10
10
10
10
10
10
10
10
10
10
10
10
10
10
10
10
10
10
10
10
10
10
10
10
10
10
10
10
10
10
10
10
10
10
10
10
10
10
10
10
10
10
10
10
10
10
10
10
10
10
10
10
10
10
10
10
10
10
10
10
10
10
10
10
10
10
10
10
10
10
10
10
10
10
10
10
10
10
10
10
10
10
10
10
10
10
10
10
10
10
10
10
10
10
10
10
10
10
10
10
10
10
10
10
10
10
10
10
10
10
10
10
10
10
10
10
10
10
10
10
10
10
10
10
10
10
10
10
10
10
10
10
10
10
10
10
10
10
10
10
10
10
10
10
10
10
10
10
10
10
10
10
10
10
10
10
10
10
10
10
10
10
10
10
10
10
10
10
10
10
10
10
10
10
10
10
10
10
10
10
10
10
10
10
10
10
10
10
10
10
10
10
10
10
10
10
10
10
10
10
10
10
10
10
10
10
10
10
10
10
10
10
10
10
10
10
10
10
10
10
10
10
10
10
10
10
10
10
10
10
10
10
10
10
10
10
10
10
