# vtk DataFile Version 2.0
, Created by Gmsh 4.11.1 
ASCII
DATASET UNSTRUCTURED_GRID
POINTS 586 double
8.75 0 -44.91553775446186
11.57359666873795 0 -41.12155302289232
11.57359666873795 0 -38.87844697710768
8.75 0 -35.08446224553814
8.75 0 -3
11.75 0 -3
11.75 0 0
-11.75 0 0
-11.75 0 -3
-8.75 0 -3
-8.75 1.071565949253934e-15 -35.08446224553814
-11.57359666873795 1.41735681149924e-15 -38.87844697710768
-11.57359666873795 1.41735681149924e-15 -41.12155302289232
-8.75 1.071565949253934e-15 -44.91553775446186
-8.75 1.071565949253934e-15 -75.08446224553813
-11.57359666873795 1.41735681149924e-15 -78.87844697710767
-11.57359666873795 1.41735681149924e-15 -81.12155302289233
-8.75 1.071565949253934e-15 -84.91553775446187
-8.75 0 -120
8.75 0 -120
8.75 0 -84.91553775446187
11.57359666873795 0 -81.12155302289233
11.57359666873795 0 -78.87844697710767
8.75 0 -75.08446224553813
-8.75 7.404155008092518 -41.27111728451079
8.75 7.404155008092518 -41.27111728451079
8.75 7.404155008092518 -38.72888271548921
-8.75 7.404155008092518 -38.72888271548921
8.75 20 -3
8.75 20 -22.78135272408831
11.75 23 -3
-11.75 23 -3
-8.75 20 -3
11.75 23 0
-11.75 23 0
-8.75 20 -22.78135272408831
-8.75 20 -57.21864727591169
-8.75 20 -62.78135272408831
-8.75 7.404155008092519 -78.72888271548922
8.75 7.404155008092519 -78.72888271548922
-8.75 7.404155008092522 -81.27111728451079
8.75 7.404155008092522 -81.27111728451079
-8.75 20 -97.21864727591169
-8.75 20 -102.7813527240883
-8.75 6.400187855131188 -120
8.75 6.400187855131188 -120
8.75 20 -97.21864727591169
8.75 20 -102.7813527240883
8.75 20 -57.21864727591169
8.75 20 -62.78135272408831
5.563573956992705 3.284186608868401 -84.91553775446187
-5.563573956992705 3.284186608868401 -84.91553775446187
8.683908113181296 3.284186608868401 -81.12155302289233
-8.683908113181296 3.284186608868402 -81.12155302289233
8.683908113181296 3.284186608868401 -78.87844697710767
5.563573956992705 3.284186608868401 -75.08446224553813
-5.563573956992705 3.284186608868401 -75.08446224553813
-8.683908113181296 3.284186608868402 -78.87844697710767
5.563573956992705 3.284186608868401 -44.91553775446186
-5.563573956992705 3.284186608868401 -44.91553775446186
8.683908113181296 3.284186608868401 -41.12155302289232
-8.683908113181296 3.284186608868402 -41.12155302289232
8.683908113181296 3.284186608868401 -38.87844697710768
5.563573956992705 3.284186608868401 -35.08446224553814
-5.563573956992705 3.284186608868401 -35.08446224553814
-8.683908113181296 3.284186608868402 -38.87844697710768
10.16179833436897 0 -43.01854538867709
10.16179833436897 0 -36.98145461132291
8.75 0 -28.66756979643051
8.75 0 -22.25067734732287
8.75 0 -15.83378489821526
8.75 0 -9.416892449107653
5.875000000000016 0 0
3.730349362740526e-14 0 0
-5.874999999999972 0 0
-8.75 0 -9.416892449107632
-8.75 0 -15.83378489821528
-8.75 0 -22.2506773473229
-8.75 0 -28.66756979643051
-10.16179833436897 1.244461380376587e-15 -36.98145461132291
-10.16179833436897 1.244461380376587e-15 -43.01854538867709
-8.75 0 -50.94932265267713
-8.75 0 -56.98310755089238
-8.75 0 -63.01689244910763
-8.75 0 -69.05067734732287
-10.16179833436897 1.244461380376587e-15 -76.98145461132292
-10.16179833436897 1.244461380376587e-15 -83.0185453886771
-8.75 0 -90.76294812871821
-8.75 0 -96.61035850297455
-8.75 0 -102.4577688772309
-8.75 0 -108.3051792514873
-8.75 0 -114.1525896257436
2.916666666666666 0 -120
-2.916666666666668 0 -120
8.75 0 -90.76294812871821
8.75 0 -96.61035850297455
8.75 0 -102.4577688772309
8.75 0 -108.3051792514873
8.75 0 -114.1525896257436
10.16179833436897 0 -83.0185453886771
10.16179833436897 0 -76.98145461132292
8.75 0 -50.94932265267713
8.75 0 -56.98310755089238
8.75 0 -63.01689244910763
8.75 0 -69.05067734732287
11.17923592538711 2.99546723820447 -41.12155302289232
10.02302872828202 5.786798334368972 -41.12155302289232
8.183768687182644 8.183768687182635 -41.12155302289232
5.786798334368982 10.02302872828201 -41.12155302289232
2.99546723820447 11.17923592538711 -41.12155302289232
-9.570740393736684e-15 11.57359666873795 -41.12155302289232
-2.995467238204492 11.1792359253871 -41.12155302289232
-5.786798334369002 10.023028728282 -41.12155302289232
-8.183768687182663 8.183768687182614 -41.12155302289232
-10.02302872828203 5.786798334368942 -41.12155302289232
-11.17923592538711 2.995467238204454 -41.12155302289232
-8.75 5.627555601433723 -42.69383796003225
-8.75 4.000547700807942 -43.74497407290315
-8.75 1.952270951848033 -44.62645090192406
5.955327700667815 8.528995233904396 -42.69527130102927
3.145036212842374 9.225100455617905 -43.57660628947815
3.119644189934311e-14 9.493535616674279 -43.91647056888485
-3.145036212842311 9.225100455617934 -43.57660628947818
-5.955327700667777 8.528995233904396 -42.69527130102927
8.75 5.627555601433721 -42.69383796003226
8.75 4.000547700807937 -43.74497407290315
8.75 1.952270951848031 -44.62645090192406
11.17923592538711 2.99546723820447 -38.87844697710768
10.02302872828202 5.786798334368972 -38.87844697710768
8.183768687182644 8.183768687182635 -38.87844697710768
5.786798334368982 10.02302872828201 -38.87844697710768
2.99546723820447 11.17923592538711 -38.87844697710768
-9.570740393736684e-15 11.57359666873795 -38.87844697710768
-2.995467238204492 11.1792359253871 -38.87844697710768
-5.786798334369002 10.023028728282 -38.87844697710768
-8.183768687182663 8.183768687182614 -38.87844697710768
-10.02302872828203 5.786798334368942 -38.87844697710768
-11.17923592538711 2.995467238204454 -38.87844697710768
8.75 1.952270951848029 -35.37354909807594
8.75 4.000547700807935 -36.25502592709685
8.75 5.62755560143372 -37.30616203996775
-5.955327700667792 8.528995233904425 -37.30472869897073
-3.14503621284235 9.225100455617934 -36.42339371052179
-6.743334289466689e-15 9.493535616674279 -36.08352943111512
3.145036212842361 9.225100455617934 -36.42339371052179
5.955327700667802 8.528995233904425 -37.30472869897073
-8.75 1.952270951848032 -35.37354909807594
-8.75 4.000547700807939 -36.25502592709685
-8.75 5.627555601433721 -37.30616203996775
8.75 6.666666666666651 -3
8.75 13.33333333333329 -3
8.75 20 -16.18756848272554
8.75 20 -9.593784241362792
8.75 11.60277000539501 -33.41303938502224
8.75 15.80138500269749 -28.0971960545553
-5.875000000000016 23 -3
-3.730349362740526e-14 23 -3
5.874999999999972 23 -3
-11.75 5.749999999999988 -3
-11.75 11.49999999999999 -3
-11.75 17.24999999999999 -3
-8.75 13.33333333333335 -3
-8.75 6.666666666666705 -3
-2.916666666666666 20 -3
2.916666666666668 20 -3
11.75 5.749999999999988 -3
11.75 11.49999999999999 -3
11.75 17.24999999999999 -3
11.75 5.749999999999988 0
11.75 11.49999999999999 0
11.75 17.24999999999999 0
-5.875000000000016 23 0
-3.730349362740526e-14 23 0
5.874999999999972 23 0
-11.75 5.749999999999988 0
-11.75 11.49999999999999 0
-11.75 17.24999999999999 0
-8.75 20 -9.593784241362769
-8.75 20 -16.18756848272552
-8.75 11.60277000539501 -33.41303938502224
-8.75 15.80138500269749 -28.0971960545553
-8.75 15.80138500269751 -51.90280394544472
-8.75 11.60277000539503 -46.58696061497777
-8.75 11.60277000539501 -73.41303938502224
-8.75 15.80138500269749 -68.0971960545553
-8.75 1.952270951848032 -75.37354909807596
-8.75 4.000547700807939 -76.25502592709687
-8.75 5.627555601433721 -77.30616203996776
8.75 1.952270951848029 -75.37354909807596
8.75 4.000547700807935 -76.25502592709687
8.75 5.62755560143372 -77.30616203996776
-5.955327700667812 8.528995233904453 -77.30472869897068
-3.145036212842372 9.225100455617934 -76.42339371052182
-6.743334289466684e-15 9.493535616674336 -76.0835294311151
3.145036212842359 9.225100455617962 -76.42339371052176
5.955327700667798 8.528995233904453 -77.30472869897068
11.17923592538711 2.99546723820447 -78.87844697710769
10.02302872828202 5.786798334368972 -78.87844697710769
8.183768687182644 8.183768687182635 -78.87844697710769
5.786798334368982 10.02302872828201 -78.87844697710769
2.99546723820447 11.17923592538711 -78.87844697710769
-9.570740393736684e-15 11.57359666873795 -78.87844697710769
-2.995467238204492 11.1792359253871 -78.87844697710769
-5.786798334369002 10.023028728282 -78.87844697710769
-8.183768687182663 8.183768687182614 -78.87844697710769
-10.02302872828203 5.786798334368942 -78.87844697710769
-11.17923592538711 2.995467238204454 -78.87844697710769
11.17923592538711 2.99546723820447 -81.12155302289233
10.02302872828202 5.786798334368972 -81.12155302289233
8.183768687182644 8.183768687182635 -81.12155302289233
5.786798334368982 10.02302872828201 -81.12155302289233
2.99546723820447 11.17923592538711 -81.12155302289233
-9.570740393736684e-15 11.57359666873795 -81.12155302289233
-2.995467238204492 11.1792359253871 -81.12155302289233
-5.786798334369002 10.023028728282 -81.12155302289233
-8.183768687182663 8.183768687182614 -81.12155302289233
-10.02302872828203 5.786798334368942 -81.12155302289233
-11.17923592538711 2.995467238204454 -81.12155302289233
-8.75 5.627555601433723 -82.69383796003225
-8.75 4.000547700807942 -83.74497407290315
-8.75 1.952270951848033 -84.62645090192406
5.955327700667815 8.528995233904396 -82.69527130102927
3.145036212842374 9.225100455617905 -83.57660628947815
3.119644189934311e-14 9.493535616674279 -83.91647056888485
-3.145036212842311 9.225100455617934 -83.57660628947818
-5.955327700667777 8.528995233904396 -82.69527130102927
8.75 5.627555601433721 -82.69383796003225
8.75 4.000547700807937 -83.74497407290315
8.75 1.952270951848031 -84.62645090192406
-8.75 15.80138500269751 -91.90280394544473
-8.75 11.60277000539503 -86.58696061497778
-8.75 9.80014089134839 -115.6953381810221
-8.75 13.20009392756559 -111.3906763620442
-8.75 16.6000469637828 -107.0860145430662
2.916666666666666 6.400187855131188 -120
-2.916666666666668 6.400187855131188 -120
8.75 15.80138500269751 -91.90280394544473
8.75 11.60277000539503 -86.58696061497778
8.75 9.80014089134839 -115.6953381810221
8.75 13.20009392756559 -111.3906763620442
8.75 16.6000469637828 -107.0860145430662
8.75 15.80138500269751 -51.90280394544472
8.75 11.60277000539503 -46.58696061497777
8.75 11.60277000539501 -73.41303938502224
8.75 15.80138500269749 -68.0971960545553
2.916666666666666 20 -57.21864727591169
-2.916666666666668 20 -57.21864727591169
2.916666666666666 20 -22.78135272408831
-2.916666666666668 20 -22.78135272408831
2.916666666666666 20 -62.78135272408831
-2.916666666666668 20 -62.78135272408831
2.916666666666666 20 -97.21864727591169
-2.916666666666668 20 -97.21864727591169
2.916666666666666 20 -102.7813527240883
-2.916666666666668 20 -102.7813527240883
-1.108071800951318e-14 6.460591060947751 -84.91553775446187
-1.77635683940025e-15 3.284186608868401 -84.91553775446187
7.14217753462231 3.284186608868401 -83.03374125057675
5.277553258091888 7.638296499092593 -81.12155302289233
1.087601152173156e-14 9.284187729685698 -81.12155302289233
-5.27755325809187 7.638296499092606 -81.12155302289233
-7.14217753462231 3.284186608868401 -83.03374125057675
7.14217753462231 3.284186608868401 -76.96625874942325
-7.105427357601002e-15 3.284186608868401 -75.08446224553813
-7.14217753462231 3.284186608868401 -76.96625874942325
5.277553258091888 7.638296499092593 -78.87844697710769
1.087601152173156e-14 9.284187729685698 -78.87844697710769
-5.27755325809187 7.638296499092606 -78.87844697710769
-1.108071800951318e-14 6.460591060947751 -75.08446224553815
-1.108071800951318e-14 6.460591060947751 -44.91553775446186
-1.77635683940025e-15 3.284186608868401 -44.91553775446186
7.14217753462231 3.284186608868401 -43.03374125057675
5.277553258091888 7.638296499092593 -41.12155302289232
1.087601152173156e-14 9.284187729685698 -41.12155302289232
-5.27755325809187 7.638296499092606 -41.12155302289232
-7.14217753462231 3.284186608868401 -43.03374125057675
7.14217753462231 3.284186608868401 -36.96625874942325
-7.105427357601002e-15 3.284186608868401 -35.08446224553814
-7.14217753462231 3.284186608868401 -36.96625874942325
5.277553258091888 7.638296499092593 -38.87844697710768
1.087601152173156e-14 9.284187729685698 -38.87844697710768
-5.27755325809187 7.638296499092606 -38.87844697710768
-1.108071800951318e-14 6.460591060947751 -35.08446224553814
-6.493081230875378 0 -82.38750648983952
6.491135628699585 0 -77.59918392194307
-7.418714853216322 0 -42.89736601623613
6.779727158594666 0 -37.33496340256783
-4.89367071991442 0 -87.31146915066093
4.830941747881018 0 -72.06756979643052
4.489182697850312 0 -47.56234193484634
4.695419429151576 0 -32.25790279066715
-0.007510157481465995 0 -115.6590365275632
-3.685994069541332 0 -99.53406369010273
-3.732507941820062 0 -61.01036297108185
3.192808125720273 0 -12.62533867366146
-2.801340620433424 0 -4.098278059396819
5.040958206136478 0 -88.40722970056166
-2.857367700141817 0 -71.84602001139716
-5.019882741054076 0 -47.61593981092751
-3.5390573561753 0 -25.94127897400772
4.502112438320386 0 -105.4897353826039
0.6832174864482177 0 -37.49206877781243
-4.64596660701727 0 -32.36139184128983
3.733467619104724 0 -5.623379593154759
-4.295006137055731 0 -77.40108452759456
4.224774471067187 0 -83.07534093466364
6.492999481990687 0 -42.22704649763287
-6.889556030195465 0 -38.46739136448031
2.666077101300046 0 -60.14839369990824
-3.192808125720259 0 -19.04223112276908
3.012056434659187 0 -25.38088820643556
3.441985340181354 0 -19.0381580612613
-3.98972788432185 0 -11.95194246171787
2.916831310145337 0 -93.93434741721126
3.523857393109002 0 -53.78646795850081
0 0 -66.06217782649108
-3.52458899717468 0 -53.96621510178475
3.528445205812988 0 -99.82667928365274
-1.885456465895466 0 -105.4387421946155
-3.860472246551735 0 -92.975307544277
3.48868856066805 0 -111.0407687834352
-3.855363289649535 0 -111.4094227755138
-1.624965891901022 0 -82.91408290396768
-1.675992595933462 0 -42.92238742364308
1.128252019758203 0 -77.48388034933276
-9.00126819630642 0 -79.26757903756746
8.990957157997229 0 -80.7985803730098
4.999403769836213 0 -66.06914222385207
-4.817975128392378 0 -66.19722612108012
0.3005758548303046 0 -88.10296294189035
9.457252774466532 0 -39.92700165003345
-0.4414848486405809 0 -49.1706704459405
-1.77635683940025e-15 0 -29.50922894977725
-0.6464297238509547 0 -8.338285687967804
4.500907702979942 0 -115.7470768606058
-4.503209812008439 0 -115.7493734275428
-5.399638433760311 0 -7.031755872471109
-10.06876209331494 1.525234065059071 -42.98921153565008
10.07260343448497 1.510390726024093 -42.98708007380303
9.909686442792982 4.136984908613847 -42.24357635416855
-9.892949890751947 4.181904591815577 -42.24093306015612
-1.370440770033798 10.40953111523033 -42.56498091961307
1.422131271511671 10.47170380636027 -42.47297199889761
-1.510657503461054 11.47458294483329 -39.99723002811007
-4.429023698001834 10.69260907978779 -39.99723002811007
4.429023698001812 10.6926090797878 -39.99723002811007
1.510657503461037 11.47458294483329 -39.99723002811007
-9.181951576326783 7.045559246831455 -39.99723002811007
-7.045416444352672 9.18206115075842 -40
11.47458294483329 1.510657503461037 -40.00276997188993
10.69267796056008 4.428857401449584 -40
7.045559246831486 9.18195157632676 -40.00276997188993
9.182061150758487 7.045416444352585 -40
-11.47458294483329 1.510657503461027 -40.00276997188993
-10.69254019642926 4.429189993482623 -40
-10.06876209331489 1.525234065059362 -37.01078846434992
10.07260343448495 1.510390726024031 -37.01291992619694
9.909686442793005 4.136984908613701 -37.7564236458314
-9.892949890751519 4.181904591815826 -37.75906693984348
-1.370440770033798 10.40953111523033 -37.43501908038692
1.422131271511676 10.47170380636025 -37.52702800110237
8.75 3.150266876148413 -32.9643280981655
8.75 4.838080348701481 -18.96253467157177
8.75 9.999999999999973 -8.773502691896237
8.75 9.592169453787831 -28.15001952118821
8.75 15.02729109184911 -19.59384619362795
8.75 14.92579828114873 -12.91328196635888
8.75 5.108973481894071 -12.65348269154413
8.75 4.998541394295223 -26.69112658981616
8.75 9.905731950983654 -15.68077689373943
8.75 7.624633615209973 -33.83932385571926
8.75 15.31569525261787 -7.697459796693737
8.75 4.45298087022212 -7.442219616523635
8.75 10.02719987371913 -22.8625833207498
10.25 3.10416666666666 -3
-10.25 3.104166666666674 -3
11.75 20.125 -1.5
11.75 14.37499999999999 -1.5
11.75 8.624999999999989 -1.5
11.75 2.874999999999994 -1.5
3.157610638484556 18.22886740495932 0
-2.707174061168086 4.878797530676509 0
7.069955745470661 8.71654637064 0
-6.619519168154188 14.39111856499582 0
7.102873022115111 14.37499999999999 0
0.1126091443291184 11.52691623390895 0
-7.000954855602265 8.644857627020135 0
-2.792058517349995 18.15992185565015 0
2.948495529093417 4.721447277005962 0
-7.528051718759411 18.81262893003678 0
7.528051718759418 4.187371069963204 0
7.820492259183636 19.07601590637069 0
-7.553981076842906 4.160878030182232 0
-11.75 20.125 -1.5
-11.75 14.37499999999999 -1.5
-11.75 8.624999999999988 -1.5
-11.75 2.874999999999994 -1.5
-8.75 3.150266876148414 -32.9643280981655
-8.75 4.838080348701491 -18.96253467157179
-8.75 10.00000000000003 -8.773502691896239
-8.75 9.592169453787832 -28.15001952118821
-8.75 15.02729109184913 -19.59384619362794
-8.75 14.92579828114875 -12.91328196635887
-8.75 5.108973481894089 -12.65348269154413
-8.75 4.998541394295227 -26.69112658981616
-8.75 9.905731950983682 -15.68077689373945
-8.75 7.624633615209975 -33.83932385571926
-8.75 15.31569525261789 -7.697459796693732
-8.75 4.452980870222142 -7.44221961652363
-8.75 10.02719987371914 -22.86258332074981
-8.75 2.948534551652263 -47.39386277133862
-8.75 2.94853455165226 -72.6061372286614
-8.75 4.588319267814361 -59.13091588025664
-8.75 15.15086258803099 -59.13091588025664
-8.75 9.869305410163442 -68.65756998929328
-8.75 9.098422137323809 -52.88098952858553
-8.75 4.043318262000069 -52.2498124213385
-8.75 5.033539461472453 -66.88657464333076
-8.75 7.624633615209985 -46.16067614428075
-8.75 7.624633615209976 -73.83932385571926
-8.75 9.92363897791709 -62.46402699604636
-10.06876209331491 1.52523406505925 -77.01078846434993
10.07260343448493 1.510390726024186 -77.01291992619694
9.909686442792973 4.13698490861386 -77.75642364583145
-9.892949890751602 4.181904591815783 -77.75906693984356
1.37044077003378 10.40953111523034 -77.43501908038694
-1.370440770033798 10.40953111523034 -77.43501908038694
-1.510657503461054 11.47458294483329 -80.00276997188995
-4.429023698001829 10.69260907978779 -80.00276997188993
4.429023698001809 10.6926090797878 -79.99723002811007
1.510657503461034 11.47458294483329 -79.99723002811008
-9.181951576326783 7.045559246831455 -80.00276997188995
10.6926090797878 4.429023698001806 -80.00276997188995
7.045559246831486 9.18195157632676 -80.00276997188995
9.182061150758487 7.045416444352585 -80
11.47458294483329 1.510657503461037 -80.00276997188995
-7.045416444352672 9.18206115075842 -80
-11.47458294483329 1.510657503461027 -80.00276997188995
-10.69254019642926 4.429189993482629 -80
-10.06876209331494 1.525234065059031 -82.98921153565009
10.07260343448498 1.510390726024025 -82.98708007380304
9.909686442793005 4.13698490861379 -82.24357635416857
-9.892949890751987 4.181904591815559 -82.2409330601561
-1.370440770033797 10.40953111523033 -82.56498091961308
1.422131271511672 10.47170380636027 -82.47297199889761
-8.75 3.317027779014957 -86.95514852719032
-8.75 5.46003397387339 -99.36131682752816
-8.75 15.21602287047243 -100
-8.75 7.229162269108556 -110.1047287831412
-8.75 6.324714406223779 -91.52030416085385
-8.75 10.55277182562867 -104.3524965125539
-8.75 4.648393613722124 -104.9162980503883
-8.75 10.9053518519331 -95.6186166512976
-8.75 4.844601210653884 -115.2763261314818
-8.75 6.735225140175228 -85.66166254365976
0 3.200093927565594 -120
-5.529640427599613 3.200093927565594 -120
5.52964042759961 3.200093927565594 -120
8.75 3.317027779014956 -86.95514852719032
8.75 5.460033973873392 -99.36131682752816
8.75 15.21602287047243 -100
8.75 7.229162269108556 -110.1047287831412
8.75 6.324714406223781 -91.52030416085385
8.75 10.55277182562867 -104.3524965125539
8.75 4.648393613722124 -104.9162980503883
8.75 10.9053518519331 -95.6186166512976
8.75 4.844601210653884 -115.2763261314818
8.75 6.735225140175227 -85.66166254365976
8.75 2.948534551652258 -72.60613722866138
8.75 2.948534551652261 -47.39386277133862
8.75 4.58831926781436 -59.13091588025664
8.75 15.15086258803099 -59.13091588025664
8.75 9.869305410163442 -68.65756998929328
8.75 9.098422137323809 -52.88098952858553
8.75 4.043318262000069 -52.2498124213385
8.75 5.033539461472452 -66.88657464333076
8.75 7.624633615209985 -46.16067614428075
8.75 7.624633615209972 -73.83932385571926
8.75 9.92363897791709 -62.46402699604636
-0.02514002222230971 17.47562328764713 -54.02254781964608
1.938821735624097 11.00806531565016 -45.83400828174199
-2.330166124528914 11.50905530537578 -46.46830894927752
5.309365940189765 10.5274603586274 -45.22551699187134
-6.204108261150353 10.18156102110787 -44.78757574516321
3.238460967672706 13.95647029155997 -49.56696758779302
-3.741696418735309 14.7076660656707 -50.51805242130289
-4.836700621524859 17.59693487120307 -54.17613974764342
4.725997522423413 17.44669571638092 -53.98592278094144
0 17.39645216189575 -26.0776903067507
1.938821735624022 11.00806531565019 -34.16599171825797
-2.090838129038389 10.88018264052613 -34.32790326910921
-5.317280163087229 10.52080257670717 -34.78291238916004
5.309365940189783 10.52746035862742 -34.77448300812863
3.836620656574773 14.07506990427902 -30.28287409555409
-3.120751154157521 13.64817751356244 -30.82336020096642
-4.707483564164839 17.36920293563114 -26.11219040208981
4.850657464648288 17.45458141377445 -26.00409318100734
1.77635683940025e-15 20 -8.051814855409225
-1.77635683940025e-15 20 -17.72953786867908
-3.658138112858157 20 -12.89067636204414
3.658138112858156 20 -12.89067636204417
4.632993700772413 20 -7.358798445431193
-4.632993700772408 20 -18.42255427865711
4.632993700772401 20 -18.42255427865711
-4.632993700772403 20 -7.3587984454312
8.812499999999986 23 -1.5
2.937499999999966 23 -1.5
-8.812500000000007 23 -1.5
-2.937500000000027 23 -1.499999999999999
-5.833333333333334 20 -60
5.833333333333333 20 -60
0 20 -60
0.02514002222231326 17.47562328764714 -65.97745218035391
-1.93882173562408 11.00806531565021 -74.16599171825796
2.330166124528931 11.50905530537581 -73.53169105072246
-5.309365940189757 10.52746035862743 -74.77448300812861
6.204108261150372 10.18156102110788 -75.21242425483678
-3.238460967672701 13.95647029155999 -70.43303241220696
3.741696418735313 14.7076660656707 -69.48194757869712
-4.725997522423411 17.44669571638092 -66.01407721905855
4.836700621524859 17.59693487120306 -65.82386025235658
-0.02514002222230971 17.47562328764713 -94.02254781964608
2.068773656960873 10.99910121227766 -85.8226588798185
-2.106683379895641 11.7636172874618 -86.79060847317572
6.204108261150401 10.18156102110785 -84.78757574516318
-4.989261823351434 10.28012074559478 -84.91236166966522
3.199796912858632 13.81105513209781 -89.38285825505537
-3.833033611562723 14.75384235898627 -90.57651597202259
-4.854968060090341 17.60617012986618 -94.18783245778735
4.718264711460598 17.41761268448849 -93.94910091439391
-5.833333333333334 20 -100
5.833333333333333 20 -100
0 20 -100
0 17.73336464252187 -105.6511272700736
3.115552580044689 11.61563342350848 -113.3967530821749
-4.074353974058017 11.14138739538014 -113.9971933671847
-3.533400671152098 14.84104181306524 -109.3130812792891
3.819247540370988 15.38170070872256 -108.6285560283709
-0.1598002323355541 8.626287545938428 -117.1815474383969
5.833333333333332 18.30002348189141 -104.9336836335773
-5.833333333333334 8.100164373239789 -117.847669090511
5.005583668720352 8.434680902505322 -117.4241395546594
-5.301027279369261 18.0627108298417 -105.2341438756915
-5.465923997738163 5.444114569135049 -83.23059241780258
5.465923997727898 5.444114569112304 -83.23059241783393
6.389304864208531 3.284186608868401 -80.00905524089697
-6.389304864208536 3.284186608868401 -79.99094475910302
3.182509392637254 3.284186608868401 -77.85737308023275
-3.182509392637261 3.284186608868401 -82.14262691976725
-2.781786978496356 3.284186608868401 -78.02713075746034
2.781786978496351 3.284186608868401 -81.97286924253964
-7.312329939179802 5.720661907561151 -80.06519864063989
7.312329939179807 5.720661907561145 -79.93480135936011
-2.764124017430259 8.863168745787911 -79.93480135936012
2.79705463846812 8.852831589354361 -80
-5.46592399773816 5.444114569135046 -76.76940758219742
5.465923997727897 5.444114569112303 -76.76940758216608
5.465923997727904 5.444114569112303 -43.23059241783392
-5.465923997738167 5.444114569135049 -43.23059241780258
-6.741321294149335 3.284186608868401 -40
6.389304864208524 3.284186608868401 -40.00905524089698
-4.669788739382397 3.284186608868401 -37.81074420753146
4.240083593802156 3.284186608868401 -37.89714744708866
-3.291868683455487 3.284186608868401 -41.33722431501546
2.781786978496349 3.284186608868401 -41.97286924253967
2.764124017430282 8.863168745787904 -40.06519864063988
7.333546545253073 5.693438053465866 -40
-7.312329939179802 5.720661907561151 -40.06519864063989
-2.731155194533371 8.873383407890131 -40
-5.465923997738166 5.444114569135047 -36.76940758219742
5.465923997727901 5.444114569112303 -36.76940758216608
3.552713678800501e-15 11.42023286127805 -11.85400624719468
0 9.756510426996309 -100.0107568020145
-0.02696415098669558 8.380069208031626 -56.39234712650826
0.1816920009746132 8.809594493824893 -24.29419737576104
2.092502178927387 13.39981674359412 -60.7256549438819
-0.2967026877535455 7.613560241135362 -67.65611427078423
0.6174802777240131 7.584353505260251 -92.0510232066118
1.734491610004089 7.013043648430898 -106.97616470768
-2.058535856482439 6.815652554764636 -6.824066543471739
-3.854010179394431 6.655294971020284 -30.29709383768443
-2.040798807937527 13.99059794645031 -5.862194026261007
1.906705350825554 6.990100364784487 -17.39182253163633
2.368268711750922 13.69802385331519 -17.72993780822656
-2.784491557755068 14.8782495655796 -100
2.970470062501507 6.792289101450216 -50.76599194245809

CELLS 3235 14215
1 0
1 1
1 2
1 3
1 4
1 5
1 6
1 7
1 8
1 9
1 10
1 11
1 12
1 13
1 14
1 15
1 16
1 17
1 18
1 19
1 20
1 21
1 22
1 23
1 24
1 25
1 26
1 27
1 28
1 29
1 30
1 31
1 32
1 33
1 34
1 35
1 36
1 37
1 38
1 39
1 40
1 41
1 42
1 43
1 44
1 45
1 46
1 47
1 48
1 49
1 50
1 51
1 52
1 53
1 54
1 55
1 56
1 57
1 58
1 59
1 60
1 61
1 62
1 63
1 64
1 65
2 0 66
2 66 1
2 1 2
2 2 67
2 67 3
2 3 68
2 68 69
2 69 70
2 70 71
2 71 4
2 4 5
2 5 6
2 6 72
2 72 73
2 73 74
2 74 7
2 8 7
2 8 9
2 9 75
2 75 76
2 76 77
2 77 78
2 78 10
2 11 79
2 79 10
2 12 11
2 13 80
2 80 12
2 13 81
2 81 82
2 82 83
2 83 84
2 84 14
2 15 85
2 85 14
2 16 15
2 17 86
2 86 16
2 17 87
2 87 88
2 88 89
2 89 90
2 90 91
2 91 18
2 19 92
2 92 93
2 93 18
2 20 94
2 94 95
2 95 96
2 96 97
2 97 98
2 98 19
2 20 99
2 99 21
2 21 22
2 22 100
2 100 23
2 0 101
2 101 102
2 102 103
2 103 104
2 104 23
2 1 105
2 105 106
2 106 107
2 107 108
2 108 109
2 109 110
2 110 111
2 111 112
2 112 113
2 113 114
2 114 115
2 115 12
2 24 116
2 116 117
2 117 118
2 118 13
2 25 119
2 119 120
2 120 121
2 121 122
2 122 123
2 123 24
2 25 124
2 124 125
2 125 126
2 126 0
2 2 127
2 127 128
2 128 129
2 129 130
2 130 131
2 131 132
2 132 133
2 133 134
2 134 135
2 135 136
2 136 137
2 137 11
2 3 138
2 138 139
2 139 140
2 140 26
2 27 141
2 141 142
2 142 143
2 143 144
2 144 145
2 145 26
2 10 146
2 146 147
2 147 148
2 148 27
2 4 149
2 149 150
2 150 28
2 29 151
2 151 152
2 152 28
2 26 153
2 153 154
2 154 29
2 31 155
2 155 156
2 156 157
2 157 30
2 8 158
2 158 159
2 159 160
2 160 31
2 32 161
2 161 162
2 162 9
2 32 163
2 163 164
2 164 28
2 5 165
2 165 166
2 166 167
2 167 30
2 6 168
2 168 169
2 169 170
2 170 33
2 30 33
2 34 171
2 171 172
2 172 173
2 173 33
2 7 174
2 174 175
2 175 176
2 176 34
2 31 34
2 32 177
2 177 178
2 178 35
2 27 179
2 179 180
2 180 35
2 36 181
2 181 182
2 182 24
2 37 36
2 38 183
2 183 184
2 184 37
2 14 185
2 185 186
2 186 187
2 187 38
2 23 188
2 188 189
2 189 190
2 190 39
2 38 191
2 191 192
2 192 193
2 193 194
2 194 195
2 195 39
2 22 196
2 196 197
2 197 198
2 198 199
2 199 200
2 200 201
2 201 202
2 202 203
2 203 204
2 204 205
2 205 206
2 206 15
2 21 207
2 207 208
2 208 209
2 209 210
2 210 211
2 211 212
2 212 213
2 213 214
2 214 215
2 215 216
2 216 217
2 217 16
2 40 218
2 218 219
2 219 220
2 220 17
2 41 221
2 221 222
2 222 223
2 223 224
2 224 225
2 225 40
2 41 226
2 226 227
2 227 228
2 228 20
2 42 229
2 229 230
2 230 40
2 43 42
2 44 231
2 231 232
2 232 233
2 233 43
2 18 44
2 45 234
2 234 235
2 235 44
2 19 45
2 46 236
2 236 237
2 237 41
2 47 46
2 45 238
2 238 239
2 239 240
2 240 47
2 48 241
2 241 242
2 242 25
2 49 48
2 39 243
2 243 244
2 244 49
2 48 245
2 245 246
2 246 36
2 29 247
2 247 248
2 248 35
2 49 249
2 249 250
2 250 37
2 46 251
2 251 252
2 252 42
2 47 253
2 253 254
2 254 43
2 50 255
2 255 51
2 51 256
2 256 50
2 50 257
2 257 52
2 52 258
2 258 259
2 259 260
2 260 53
2 53 261
2 261 51
2 52 54
2 54 262
2 262 55
2 55 263
2 263 56
2 56 264
2 264 57
2 53 57
2 54 265
2 265 266
2 266 267
2 267 57
2 55 268
2 268 56
2 58 269
2 269 59
2 59 270
2 270 58
2 58 271
2 271 60
2 60 272
2 272 273
2 273 274
2 274 61
2 61 275
2 275 59
2 60 62
2 62 276
2 276 63
2 63 277
2 277 64
2 64 278
2 278 65
2 61 65
2 62 279
2 279 280
2 280 281
2 281 65
2 63 282
2 282 64
3 0 289 101
3 66 306 0
3 0 306 289
3 2 330 1
3 1 330 66
3 67 330 2
3 68 290 3
3 3 286 67
3 3 290 286
3 5 6 4
3 4 6 72
3 4 303 71
3 72 303 4
3 7 8 9
3 7 9 74
3 9 295 74
3 75 336 9
3 9 336 295
3 10 302 78
3 79 307 10
3 10 307 302
3 12 307 11
3 11 307 79
3 80 285 12
3 285 307 12
3 81 298 13
3 13 285 80
3 13 298 285
3 14 297 84
3 85 325 14
3 14 304 297
3 14 325 304
3 16 325 15
3 15 325 85
3 86 325 16
3 87 287 17
3 17 283 86
3 17 287 283
3 18 335 91
3 93 335 18
3 19 334 92
3 98 334 19
3 20 296 94
3 99 326 20
3 20 305 296
3 20 326 305
3 22 326 21
3 21 326 99
3 100 326 22
3 104 288 23
3 23 284 100
3 23 288 284
3 69 310 68
3 68 310 290
3 70 311 69
3 69 311 310
3 71 294 70
3 294 311 70
3 71 303 294
3 73 303 72
3 74 295 73
3 295 303 73
3 76 312 75
3 312 336 75
3 77 309 76
3 309 312 76
3 78 299 77
3 299 309 77
3 78 302 299
3 82 316 81
3 81 316 298
3 83 293 82
3 293 316 82
3 84 328 83
3 83 328 293
3 297 328 84
3 88 319 87
3 87 319 287
3 89 292 88
3 292 319 88
3 90 318 89
3 89 318 292
3 91 321 90
3 90 321 318
3 91 335 321
3 92 291 93
3 92 334 291
3 291 335 93
3 94 313 95
3 296 313 94
3 95 317 96
3 313 317 95
3 96 300 97
3 96 317 300
3 97 320 98
3 300 320 97
3 320 334 98
3 101 314 102
3 289 314 101
3 102 308 103
3 102 314 308
3 103 327 104
3 308 327 103
3 104 327 288
3 66 330 306
3 286 330 67
3 284 326 100
3 283 325 86
3 287 322 283
3 283 322 304
3 304 325 283
3 288 324 284
3 284 324 305
3 305 326 284
3 298 323 285
3 285 323 307
3 290 301 286
3 301 306 286
3 306 330 286
3 319 329 287
3 287 329 322
3 288 315 297
3 297 324 288
3 288 327 315
3 306 323 289
3 289 331 314
3 323 331 289
3 290 332 301
3 310 332 290
3 320 321 291
3 291 334 320
3 321 335 291
3 292 317 313
3 313 319 292
3 292 318 317
3 293 315 308
3 308 316 293
3 293 328 315
3 303 333 294
3 309 311 294
3 294 312 309
3 294 333 312
3 295 333 303
3 295 336 333
3 305 329 296
3 296 329 313
3 304 324 297
3 315 328 297
3 316 331 298
3 298 331 323
3 302 332 299
3 299 310 309
3 299 332 310
3 317 318 300
3 318 320 300
3 302 307 301
3 301 332 302
3 301 323 306
3 307 323 301
3 322 324 304
3 305 324 322
3 322 329 305
3 314 316 308
3 315 327 308
3 310 311 309
3 333 336 312
3 313 329 319
3 314 331 316
3 318 321 320
3 0 338 66
3 126 338 0
3 66 338 1
3 1 338 105
3 115 337 12
3 12 337 80
3 13 337 118
3 80 337 13
3 113 24 114
3 116 114 24
3 113 123 24
3 106 25 107
3 106 124 25
3 119 107 25
3 105 339 106
3 106 339 124
3 109 108 120
3 120 108 119
3 108 107 119
3 109 342 110
3 110 341 111
3 110 342 341
3 112 111 122
3 112 122 123
3 113 112 123
3 114 340 115
3 116 340 114
3 117 340 116
3 118 337 117
3 337 340 117
3 120 342 109
3 121 342 120
3 111 341 122
3 122 341 121
3 124 339 125
3 125 338 126
3 125 339 338
3 338 339 105
3 115 340 337
3 341 342 121
3 1 349 2
3 105 349 1
3 2 349 127
3 11 353 12
3 137 353 11
3 12 353 115
3 128 350 106
3 106 352 128
3 106 350 105
3 107 352 106
3 108 345 130
3 130 351 108
3 108 351 107
3 109 345 108
3 110 343 132
3 132 346 110
3 110 346 109
3 111 343 110
3 134 344 112
3 112 348 134
3 112 344 111
3 113 348 112
3 136 347 114
3 114 354 136
3 114 347 113
3 115 354 114
3 127 350 128
3 128 352 129
3 129 351 130
3 130 345 131
3 131 346 132
3 132 343 133
3 133 344 134
3 134 348 135
3 135 347 136
3 136 354 137
3 127 349 105
3 105 350 127
3 107 351 129
3 129 352 107
3 131 345 109
3 109 346 131
3 133 343 111
3 111 344 133
3 113 347 135
3 135 348 113
3 115 353 137
3 137 354 115
3 2 356 67
3 127 356 2
3 67 356 3
3 3 356 138
3 10 355 79
3 146 355 10
3 11 355 137
3 79 355 11
3 128 26 140
3 128 129 26
3 26 129 145
3 135 136 27
3 27 136 148
3 135 27 141
3 140 357 128
3 128 357 127
3 144 130 131
3 145 130 144
3 145 129 130
3 132 360 131
3 133 359 132
3 359 360 132
3 134 142 133
3 134 141 142
3 135 141 134
3 137 358 136
3 136 358 148
3 138 356 139
3 139 357 140
3 356 357 139
3 142 359 133
3 143 359 142
3 131 360 144
3 144 360 143
3 147 355 146
3 148 358 147
3 147 358 355
3 127 357 356
3 355 358 137
3 143 360 359
3 3 361 68
3 138 361 3
3 71 372 4
3 4 372 149
3 153 370 26
3 26 370 140
3 150 371 28
3 28 371 152
3 151 365 29
3 29 365 154
3 68 368 69
3 361 368 68
3 69 362 70
3 69 368 362
3 70 367 71
3 362 367 70
3 367 372 71
3 139 361 138
3 140 370 139
3 139 370 361
3 149 363 150
3 149 372 363
3 363 371 150
3 152 366 151
3 151 366 365
3 152 371 366
3 154 364 153
3 364 370 153
3 154 373 364
3 365 373 154
3 361 370 368
3 362 369 367
3 368 373 362
3 362 373 369
3 363 369 366
3 366 371 363
3 367 369 363
3 363 372 367
3 368 370 364
3 364 373 368
3 366 369 365
3 369 373 365
3 5 4 374
3 4 149 374
3 165 5 374
3 9 8 375
3 8 158 375
3 162 9 375
3 30 28 157
3 167 28 30
3 167 150 28
3 28 164 157
3 31 155 32
3 31 32 160
3 155 163 32
3 160 32 161
3 150 166 149
3 166 165 149
3 149 165 374
3 167 166 150
3 163 155 156
3 164 156 157
3 164 163 156
3 158 159 162
3 158 162 375
3 159 160 161
3 159 161 162
3 5 379 6
3 165 379 5
3 6 379 168
3 33 376 30
3 30 376 167
3 170 376 33
3 166 378 165
3 165 378 168
3 168 379 165
3 167 377 166
3 166 377 169
3 169 378 166
3 167 376 170
3 170 377 167
3 168 378 169
3 169 377 170
3 6 390 72
3 168 390 6
3 74 392 7
3 7 392 174
3 33 391 170
3 173 391 33
3 34 389 171
3 176 389 34
3 72 388 73
3 72 390 388
3 73 381 74
3 73 388 381
3 381 392 74
3 169 382 168
3 382 390 168
3 170 384 169
3 169 384 382
3 170 391 384
3 171 387 172
3 171 389 387
3 172 380 173
3 172 387 380
3 380 391 173
3 174 386 175
3 174 392 386
3 175 383 176
3 175 386 383
3 383 389 176
3 380 385 384
3 384 391 380
3 380 387 385
3 385 386 381
3 381 388 385
3 386 392 381
3 384 385 382
3 385 388 382
3 388 390 382
3 383 386 385
3 385 387 383
3 387 389 383
3 8 7 396
3 7 174 396
3 158 8 396
3 34 31 393
3 31 160 393
3 176 34 393
3 159 158 395
3 158 174 395
3 174 158 396
3 160 159 394
3 159 175 394
3 175 159 395
3 160 176 393
3 176 160 394
3 174 175 395
3 175 176 394
3 75 9 408
3 9 162 408
3 10 78 397
3 146 10 397
3 179 27 406
3 27 148 406
3 161 32 407
3 32 177 407
3 178 35 401
3 35 180 401
3 76 75 403
3 403 75 408
3 77 76 398
3 398 76 403
3 78 77 404
3 77 398 404
3 397 78 404
3 147 146 397
3 148 147 406
3 147 397 406
3 162 161 399
3 399 161 407
3 162 399 408
3 177 178 402
3 177 402 407
3 178 401 402
3 180 179 400
3 400 179 406
3 180 400 409
3 401 180 409
3 397 404 406
3 398 403 405
3 404 398 409
3 398 405 409
3 399 402 405
3 402 399 407
3 403 399 405
3 399 403 408
3 404 400 406
3 400 404 409
3 402 401 405
3 405 401 409
3 81 13 410
3 13 118 410
3 14 84 411
3 185 14 411
3 24 182 418
3 116 24 418
3 36 37 413
3 181 36 413
3 37 184 413
3 183 38 419
3 38 187 419
3 82 81 416
3 81 410 416
3 83 82 412
3 412 82 416
3 84 83 417
3 83 412 417
3 411 84 417
3 117 116 418
3 118 117 410
3 410 117 418
3 182 181 415
3 181 413 415
3 182 415 418
3 184 183 414
3 414 183 419
3 413 184 420
3 184 414 420
3 186 185 411
3 187 186 419
3 186 411 419
3 416 410 418
3 411 417 419
3 415 412 416
3 412 415 420
3 417 412 420
3 415 413 420
3 417 414 419
3 414 417 420
3 415 416 418
3 14 421 85
3 185 421 14
3 15 421 206
3 85 421 15
3 22 422 100
3 196 422 22
3 100 422 23
3 23 422 188
3 204 205 38
3 38 205 187
3 204 38 191
3 197 39 190
3 197 198 39
3 39 198 195
3 186 421 185
3 187 424 186
3 186 424 421
3 188 422 189
3 189 423 190
3 422 423 189
3 203 192 202
3 203 191 192
3 192 426 202
3 193 426 192
3 194 199 200
3 195 199 194
3 200 425 194
3 194 425 193
3 190 423 197
3 197 423 196
3 195 198 199
3 201 425 200
3 202 426 201
3 201 426 425
3 204 191 203
3 206 424 205
3 205 424 187
3 196 423 422
3 421 424 206
3 425 426 193
3 15 437 16
3 206 437 15
3 16 437 217
3 21 435 22
3 207 435 21
3 22 435 196
3 197 432 208
3 208 434 197
3 196 432 197
3 197 434 198
3 210 429 199
3 199 433 210
3 198 433 199
3 199 429 200
3 212 427 201
3 201 430 212
3 200 430 201
3 201 427 202
3 203 428 214
3 214 436 203
3 202 428 203
3 203 436 204
3 205 431 216
3 216 438 205
3 204 431 205
3 205 438 206
3 208 432 207
3 209 434 208
3 210 433 209
3 211 429 210
3 212 430 211
3 213 427 212
3 214 428 213
3 215 436 214
3 216 431 215
3 217 438 216
3 207 432 196
3 196 435 207
3 209 433 198
3 198 434 209
3 200 429 211
3 211 430 200
3 202 427 213
3 213 428 202
3 215 431 204
3 204 436 215
3 217 437 206
3 206 438 217
3 217 439 16
3 16 439 86
3 17 439 220
3 86 439 17
3 20 440 99
3 228 440 20
3 99 440 21
3 21 440 207
3 215 40 216
3 218 216 40
3 215 225 40
3 208 41 209
3 208 226 41
3 221 209 41
3 207 441 208
3 208 441 226
3 211 210 222
3 222 210 221
3 210 209 221
3 211 444 212
3 212 443 213
3 212 444 443
3 214 213 224
3 214 224 225
3 215 214 225
3 216 442 217
3 218 442 216
3 219 442 218
3 220 439 219
3 439 442 219
3 222 444 211
3 223 444 222
3 213 443 224
3 224 443 223
3 226 441 227
3 227 440 228
3 227 441 440
3 440 441 207
3 217 442 439
3 443 444 223
3 87 17 445
3 17 220 445
3 44 18 453
3 18 91 453
3 40 230 454
3 218 40 454
3 42 43 447
3 229 42 447
3 43 233 447
3 231 44 453
3 88 87 449
3 87 445 449
3 89 88 446
3 446 88 449
3 90 89 451
3 89 446 451
3 91 90 453
3 448 90 451
3 90 448 453
3 219 218 454
3 220 219 445
3 445 219 454
3 230 229 452
3 229 447 452
3 449 230 452
3 230 449 454
3 232 231 448
3 448 231 453
3 233 232 450
3 232 448 450
3 447 233 450
3 449 445 454
3 446 449 452
3 446 450 451
3 450 446 452
3 447 450 452
3 450 448 451
3 44 456 18
3 18 456 93
3 19 457 45
3 92 457 19
3 235 456 44
3 45 457 234
3 93 455 92
3 455 457 92
3 93 456 455
3 234 455 235
3 234 457 455
3 455 456 235
3 45 466 19
3 19 466 98
3 94 458 20
3 20 458 228
3 41 467 237
3 226 467 41
3 238 466 45
3 46 460 47
3 236 460 46
3 47 460 240
3 95 462 94
3 94 462 458
3 96 459 95
3 459 462 95
3 97 464 96
3 96 464 459
3 98 466 97
3 461 464 97
3 97 466 461
3 227 467 226
3 228 458 227
3 458 467 227
3 237 465 236
3 236 465 460
3 462 465 237
3 237 467 462
3 239 461 238
3 461 466 238
3 240 463 239
3 239 463 461
3 460 463 240
3 462 467 458
3 459 465 462
3 459 464 463
3 463 465 459
3 460 465 463
3 463 464 461
3 101 469 0
3 0 469 126
3 23 468 104
3 188 468 23
3 25 476 242
3 124 476 25
3 243 477 39
3 39 477 190
3 48 471 49
3 241 471 48
3 49 471 244
3 102 474 101
3 101 474 469
3 103 470 102
3 470 474 102
3 104 475 103
3 103 475 470
3 468 475 104
3 125 476 124
3 126 469 125
3 469 476 125
3 189 468 188
3 190 477 189
3 189 477 468
3 242 473 241
3 241 473 471
3 242 476 473
3 244 472 243
3 472 477 243
3 471 478 244
3 244 478 472
3 468 477 475
3 474 476 469
3 473 474 470
3 470 478 473
3 475 478 470
3 473 478 471
3 475 477 472
3 472 478 475
3 473 476 474
3 24 483 182
3 123 483 24
3 242 119 25
3 181 486 36
3 36 486 246
3 48 487 241
3 245 487 48
3 119 482 120
3 120 480 121
3 120 482 480
3 121 481 122
3 122 483 123
3 481 483 122
3 182 485 181
3 485 486 181
3 182 483 481
3 481 485 182
3 241 484 242
3 241 487 484
3 242 482 119
3 242 484 482
3 246 479 245
3 479 487 245
3 246 486 479
3 480 481 121
3 479 485 484
3 484 487 479
3 479 486 485
3 480 484 481
3 482 484 480
3 484 485 481
3 153 26 145
3 179 141 27
3 154 496 29
3 29 496 247
3 35 495 180
3 248 495 35
3 141 491 142
3 142 490 143
3 142 491 490
3 143 489 144
3 144 492 145
3 489 492 144
3 153 493 154
3 145 492 153
3 492 493 153
3 493 496 154
3 180 494 179
3 179 491 141
3 179 494 491
3 180 495 494
3 247 488 248
3 247 496 488
3 488 495 248
3 143 490 489
3 493 494 488
3 488 496 493
3 494 495 488
3 490 494 489
3 489 493 492
3 489 494 493
3 491 494 490
3 152 501 28
3 28 501 164
3 29 503 151
3 247 503 29
3 163 504 32
3 32 504 177
3 178 502 35
3 35 502 248
3 151 500 152
3 151 503 500
3 500 501 152
3 164 497 163
3 497 504 163
3 164 501 497
3 177 499 178
3 177 504 499
3 499 502 178
3 248 498 247
3 498 503 247
3 248 502 498
3 497 500 499
3 499 504 497
3 497 501 500
3 499 500 498
3 498 502 499
3 500 503 498
3 30 505 33
3 157 505 30
3 34 507 31
3 31 507 155
3 33 505 173
3 171 507 34
3 155 508 156
3 155 507 171
3 171 508 155
3 156 506 157
3 172 506 156
3 156 508 172
3 173 505 157
3 157 506 173
3 172 508 171
3 173 506 172
3 36 509 37
3 246 509 36
3 37 509 250
3 49 510 48
3 48 510 245
3 249 510 49
3 245 511 246
3 245 510 249
3 249 511 245
3 250 509 246
3 246 511 250
3 250 511 249
3 37 519 184
3 250 519 37
3 38 183 191
3 39 516 243
3 195 516 39
3 244 520 49
3 49 520 249
3 184 517 183
3 183 515 191
3 183 517 515
3 184 519 517
3 191 515 192
3 192 513 193
3 192 515 513
3 193 514 194
3 194 516 195
3 514 516 194
3 243 518 244
3 243 516 514
3 514 518 243
3 518 520 244
3 249 512 250
3 249 520 512
3 512 519 250
3 513 514 193
3 512 518 517
3 517 519 512
3 512 520 518
3 513 517 514
3 515 517 513
3 517 518 514
3 40 225 230
3 237 524 41
3 41 524 221
3 229 528 42
3 42 528 252
3 46 529 236
3 251 529 46
3 221 524 222
3 222 522 223
3 222 524 522
3 223 523 224
3 224 525 225
3 523 525 224
3 230 527 229
3 527 528 229
3 225 525 230
3 230 525 523
3 523 527 230
3 236 526 237
3 236 529 526
3 237 526 524
3 252 521 251
3 521 529 251
3 252 528 521
3 522 523 223
3 521 527 526
3 526 529 521
3 521 528 527
3 522 526 523
3 524 526 522
3 526 527 523
3 42 530 43
3 252 530 42
3 43 530 254
3 47 531 46
3 46 531 251
3 253 531 47
3 251 532 252
3 251 531 253
3 253 532 251
3 254 530 252
3 252 532 254
3 254 532 253
3 43 542 233
3 254 542 43
3 231 540 44
3 44 540 235
3 234 541 45
3 45 541 238
3 240 539 47
3 47 539 253
3 232 535 231
3 535 540 231
3 233 536 232
3 232 536 535
3 233 542 536
3 235 538 234
3 538 541 234
3 235 540 538
3 238 534 239
3 238 541 534
3 239 537 240
3 534 537 239
3 537 539 240
3 253 533 254
3 253 539 533
3 533 542 254
3 533 537 536
3 536 542 533
3 533 539 537
3 535 536 534
3 534 538 535
3 536 537 534
3 534 541 538
3 538 540 535
3 255 256 50
3 256 255 51
3 255 50 544
3 50 257 544
3 51 255 543
3 261 51 543
3 257 52 544
3 52 258 544
3 260 53 543
3 53 261 543
3 259 255 258
3 258 255 544
3 260 255 259
3 255 260 543
3 256 550 50
3 50 550 257
3 51 548 256
3 261 548 51
3 52 545 54
3 257 545 52
3 57 546 53
3 53 546 261
3 54 545 262
3 262 547 55
3 55 547 263
3 263 549 56
3 56 549 264
3 264 546 57
3 548 550 256
3 257 550 545
3 546 548 261
3 545 547 262
3 547 549 263
3 264 549 546
3 545 550 547
3 546 549 548
3 547 550 549
3 549 550 548
3 52 54 552
3 258 52 552
3 57 53 551
3 53 260 551
3 54 265 552
3 267 57 551
3 259 258 554
3 265 258 552
3 258 265 554
3 260 259 553
3 259 266 553
3 266 259 554
3 260 267 551
3 267 260 553
3 265 266 554
3 266 267 553
3 54 262 556
3 265 54 556
3 262 55 556
3 55 268 556
3 56 264 555
3 268 56 555
3 264 57 555
3 57 267 555
3 266 265 268
3 268 265 556
3 267 266 268
3 267 268 555
3 263 268 55
3 268 263 56
3 269 270 58
3 270 269 59
3 269 58 557
3 58 271 557
3 59 269 558
3 275 59 558
3 271 60 557
3 60 272 557
3 274 61 558
3 61 275 558
3 273 269 272
3 272 269 557
3 274 269 273
3 269 274 558
3 270 564 58
3 58 564 271
3 59 563 270
3 275 563 59
3 60 560 62
3 271 560 60
3 65 559 61
3 61 559 275
3 62 560 276
3 276 562 63
3 63 562 277
3 277 561 64
3 64 561 278
3 278 559 65
3 563 564 270
3 271 564 560
3 559 563 275
3 560 562 276
3 277 563 561
3 562 564 277
3 277 564 563
3 278 561 559
3 561 563 559
3 560 564 562
3 60 62 566
3 272 60 566
3 65 61 567
3 61 274 567
3 62 279 566
3 281 65 567
3 273 272 565
3 272 279 565
3 279 272 566
3 274 273 568
3 280 273 565
3 273 280 568
3 274 281 567
3 281 274 568
3 279 280 565
3 280 281 568
3 62 276 570
3 279 62 570
3 276 63 570
3 63 282 570
3 64 278 569
3 282 64 569
3 278 65 569
3 65 281 569
3 280 279 282
3 282 279 570
3 281 280 282
3 281 282 569
3 277 282 63
3 282 277 64
4 253 251 532 584
4 250 246 509 575
4 282 364 489 574
4 531 251 253 460
4 488 248 495 583
4 246 250 511 575
4 538 321 291 578
4 372 571 367 579
4 253 533 539 572
4 368 364 282 574
4 372 363 367 571
4 370 492 63 364
4 368 63 282 364
4 481 269 416 585
4 541 538 320 578
4 502 571 402 583
4 540 321 335 538
4 488 495 574 583
4 282 290 63 368
4 416 481 59 269
4 334 541 538 320
4 293 412 573 576
4 149 382 363 579
4 248 401 495 583
4 363 571 372 579
4 525 255 51 577
4 538 291 320 578
4 403 571 312 582
4 499 402 502 571
4 538 535 321 578
4 363 579 385 581
4 512 575 519 576
4 150 363 385 581
4 501 371 164 581
4 312 571 403 579
4 538 291 334 320
4 499 571 502 583
4 149 363 372 579
4 541 534 538 578
4 150 371 363 581
4 321 540 535 538
4 363 571 579 581
4 291 335 321 538
4 537 539 533 572
4 541 538 234 334
4 59 481 416 418
4 382 385 363 579
4 282 332 368 574
4 150 164 371 581
4 405 571 403 582
4 150 363 382 385
4 451 572 318 578
4 540 335 235 538
4 529 521 572 577
4 533 572 253 584
4 502 402 401 583
4 479 573 486 575
4 308 573 470 576
4 251 572 529 584
4 517 512 519 576
4 538 291 234 334
4 312 571 579 582
4 332 574 282 580
4 250 509 413 575
4 372 367 294 579
4 509 246 413 575
4 246 479 486 575
4 282 332 290 368
4 374 379 5 165
4 375 158 8 396
4 253 539 460 572
4 256 287 51 577
4 371 571 363 581
4 502 401 248 583
4 405 571 582 583
4 521 251 529 584
4 253 460 251 584
4 251 460 529 572
4 371 501 571 581
4 364 493 489 574
4 256 329 287 577
4 525 51 449 577
4 489 282 574 580
4 405 409 401 583
4 525 523 255 577
4 529 526 521 577
4 502 248 498 583
4 335 291 235 538
4 541 320 461 578
4 405 403 398 582
4 478 470 573 576
4 402 571 401 583
4 573 575 478 576
4 499 502 498 583
4 368 370 63 364
4 327 308 475 576
4 519 575 420 576
4 308 293 573 576
4 495 400 494 574
4 398 574 409 582
4 524 50 522 577
4 535 448 321 578
4 417 293 328 576
4 382 149 388 579
4 398 409 405 582
4 486 573 413 575
4 291 455 538 234
4 402 405 401 571
4 497 571 501 581
4 321 320 291 578
4 268 513 515 576
4 451 318 448 578
4 246 486 413 575
4 416 331 316 585
4 450 572 451 578
4 420 573 412 576
4 405 401 571 583
4 291 455 235 538
4 454 525 51 449
4 521 529 572 584
4 224 255 543 525
4 255 522 50 577
4 460 572 251 584
4 253 572 460 584
4 515 513 268 192
4 318 451 292 572
4 501 500 371 571
4 481 416 415 585
4 413 519 250 575
4 537 572 533 578
4 470 475 308 576
4 51 255 256 577
4 321 335 453 540
4 268 263 55 576
4 514 268 55 576
4 541 461 534 578
4 525 449 523 577
4 292 572 446 577
4 319 292 446 577
4 420 575 573 576
4 446 449 319 577
4 409 400 495 574
4 521 527 572 577
4 459 572 317 577
4 403 312 309 582
4 501 497 500 571
4 496 488 574 583
4 529 572 465 577
4 496 574 373 583
4 416 316 573 585
4 451 318 321 448
4 287 449 51 577
4 363 382 149 150
4 515 56 268 576
4 446 292 451 572
4 485 486 479 573
4 521 572 527 584
4 398 299 404 574
4 287 329 319 577
4 533 572 536 578
4 416 573 415 585
4 303 372 294 579
4 537 463 539 572
4 303 294 333 579
4 467 50 524 577
4 382 388 385 579
4 291 455 234 334
4 448 450 451 578
4 455 335 291 235
4 312 333 294 579
4 540 453 321 535
4 517 519 420 576
4 416 410 59 418
4 55 477 514 576
4 481 415 573 585
4 371 500 366 571
4 246 511 479 575
4 403 309 398 582
4 403 571 399 579
4 319 449 287 577
4 514 477 472 576
4 478 475 470 576
4 56 515 419 576
4 50 296 256 577
4 479 487 484 573
4 487 573 479 575
4 321 448 318 578
4 541 461 320 466
4 498 248 247 583
4 290 63 277 282
4 312 579 294 582
4 9 162 375 392
4 519 512 250 575
4 363 369 367 571
4 405 399 403 571
4 149 4 374 390
4 485 415 486 573
4 329 256 296 577
4 300 317 464 578
4 509 519 250 413
4 263 288 55 576
4 477 55 475 576
4 477 475 472 576
4 536 572 533 584
4 515 414 419 576
4 367 571 369 582
4 318 572 317 578
4 320 334 541 466
4 496 493 373 574
4 59 410 416 298
4 308 315 293 576
4 473 573 487 575
4 446 572 452 577
4 529 465 526 577
4 460 539 463 572
4 317 459 464 578
4 235 456 335 540
4 513 517 515 576
4 539 531 253 460
4 532 533 253 584
4 457 541 234 334
4 416 481 415 418
4 55 477 475 468
4 56 411 417 419
4 488 247 248 583
4 364 492 489 493
4 309 299 398 574
4 317 572 459 578
4 293 315 328 576
4 496 247 488 583
4 384 150 385 581
4 452 572 527 577
4 288 475 55 576
4 368 332 310 574
4 327 315 308 576
4 363 371 366 571
4 361 370 63 368
4 361 63 290 368
4 448 535 536 578
4 417 411 56 297
4 489 494 490 580
4 316 416 298 331
4 277 332 290 282
4 398 309 574 582
4 537 533 536 578
4 527 572 452 584
4 473 484 487 573
4 536 572 450 578
4 475 288 55 468
4 489 282 144 492
4 402 571 499 581
4 470 573 314 585
4 528 521 527 584
4 313 459 317 577
4 419 417 56 576
4 485 481 573 585
4 255 50 256 577
4 514 472 477 516
4 310 311 362 582
4 486 415 413 573
4 413 420 519 575
4 451 450 446 572
4 402 407 399 581
4 398 404 409 574
4 364 373 496 493
4 310 362 574 582
4 467 462 50 577
4 499 504 407 581
4 51 543 255 525
4 519 420 414 517
4 472 478 518 576
4 414 517 420 576
4 518 575 512 576
4 373 493 364 574
4 419 414 417 576
4 501 164 497 581
4 402 399 571 581
4 496 488 493 574
4 460 465 529 572
4 538 534 535 578
4 498 500 499 583
4 489 574 494 580
4 463 572 537 578
4 446 452 449 577
4 448 536 450 578
4 407 402 499 581
4 467 524 462 577
4 470 314 474 585
4 287 445 51 449
4 415 485 481 573
4 56 417 297 576
4 485 573 484 585
4 327 475 288 576
4 489 493 494 574
4 494 574 400 580
4 535 453 321 448
4 494 488 495 574
4 292 317 318 572
4 51 543 525 454
4 384 385 380 581
4 263 315 288 576
4 485 484 481 585
4 515 517 414 576
4 520 510 249 575
4 50 462 296 577
4 465 572 459 577
4 251 521 532 584
4 319 313 292 577
4 527 523 449 577
4 362 368 310 574
4 366 369 363 571
4 402 399 405 571
4 413 573 420 575
4 478 575 518 576
4 450 572 536 584
4 362 373 368 574
4 531 529 251 460
4 404 574 299 580
4 399 161 162 579
4 499 500 497 571
4 525 224 255 523
4 479 484 485 573
4 295 392 162 336
4 300 464 320 578
4 511 250 512 575
4 362 373 574 582
4 499 571 497 581
4 504 163 32 407
4 501 371 28 164
4 500 571 499 583
4 417 328 297 576
4 365 496 373 583
4 463 464 459 578
4 404 400 574 580
4 120 482 557 585
4 362 70 367 582
4 399 161 579 581
4 297 315 263 576
4 500 366 571 583
4 528 527 452 584
4 9 162 392 336
4 407 504 163 581
4 505 33 173 391
4 77 404 398 299
4 34 389 507 171
4 455 456 335 235
4 457 234 455 334
4 472 518 514 576
4 473 487 471 575
4 300 318 317 578
4 296 462 50 458
4 9 392 295 336
4 416 316 412 573
4 312 408 336 579
4 50 467 524 544
4 311 70 362 582
4 366 369 571 583
4 386 162 161 579
4 462 459 313 577
4 517 518 512 576
4 408 312 403 579
4 463 459 572 578
4 316 293 412 573
4 332 310 290 368
4 511 245 479 575
4 499 497 504 581
4 521 526 527 577
4 327 288 315 576
4 396 174 7 392
4 299 574 332 580
4 162 9 408 336
4 379 390 6 168
4 161 32 163 407
4 150 28 371 164
4 314 470 308 573
4 161 386 579 581
4 170 33 376 391
4 574 582 373 583
4 83 417 293 328
4 409 404 400 574
4 393 389 34 176
4 163 161 407 581
4 461 320 464 578
4 518 478 520 575
4 120 480 482 585
4 481 484 480 585
4 269 120 557 585
4 309 310 299 574
4 523 449 525 230
4 496 365 247 583
4 536 533 542 584
4 309 403 76 312
4 496 154 364 493
4 472 475 478 576
4 171 508 172 387
4 494 493 488 574
4 297 263 315 288
4 295 303 333 579
4 388 303 295 579
4 383 176 394 175
4 473 478 573 575
4 399 579 571 581
4 452 527 449 577
4 294 367 70 582
4 172 380 506 173
4 314 573 316 585
4 245 249 510 575
4 312 336 333 579
4 162 392 295 381
4 369 582 571 583
4 87 445 287 449
4 465 459 462 577
4 403 76 398 309
4 164 156 506 157
4 163 155 508 156
4 416 412 415 573
4 511 249 245 575
4 408 403 399 579
4 414 519 517 184
4 489 490 282 580
4 518 520 512 575
4 309 77 398 299
4 368 373 364 574
4 84 411 417 328
4 364 373 154 496
4 136 135 567 347
4 208 209 552 434
4 484 573 473 585
4 332 282 277 580
4 84 411 328 297
4 311 294 70 582
4 205 204 551 431
4 450 536 542 584
4 452 572 450 584
4 464 300 320 97
4 316 308 293 573
4 454 51 445 449
4 467 50 462 458
4 120 269 480 585
4 470 473 573 585
4 311 69 310 362
4 334 457 541 466
4 329 296 313 577
4 453 335 456 540
4 331 314 316 585
4 369 373 582 583
4 411 417 328 297
4 500 503 366 583
4 520 471 510 575
4 180 494 495 400
4 106 107 566 352
4 129 128 566 352
4 378 382 168 169
4 321 90 451 448
4 293 417 83 412
4 313 296 462 577
4 295 162 381 579
4 318 320 321 578
4 385 579 386 581
4 487 479 245 575
4 330 349 338 105
4 497 164 163 581
4 473 478 470 573
4 383 161 163 581
4 161 163 32 383
4 314 308 316 573
4 377 169 170 384
4 163 164 387 581
4 381 388 295 579
4 412 420 415 573
4 386 175 395 174
4 215 216 551 431
4 390 303 388 149
4 368 310 69 362
4 198 197 552 434
4 409 180 495 400
4 332 299 310 574
4 417 414 420 576
4 113 114 567 347
4 245 510 471 575
4 470 474 473 585
4 463 459 465 572
4 452 446 450 572
4 328 315 297 576
4 536 535 534 578
4 413 415 420 573
4 486 485 181 415
4 530 252 528 584
4 249 511 512 575
4 537 534 461 578
4 111 344 112 568
4 515 555 56 419
4 318 90 451 321
4 537 461 463 578
4 96 300 317 464
4 378 165 149 166
4 395 159 162 158
4 163 389 32 383
4 463 465 460 572
4 312 294 309 582
4 382 384 150 385
4 319 87 287 449
4 157 28 30 505
4 32 31 507 155
4 503 500 366 151
4 499 178 502 402
4 464 320 461 97
4 200 429 199 554
4 503 247 365 583
4 149 4 390 303
4 492 63 570 370
4 210 429 211 554
4 500 501 371 152
4 499 504 177 407
4 123 483 122 558
4 195 516 194 556
4 216 438 551 205
4 354 114 136 567
4 552 208 197 432
4 319 446 88 449
4 269 481 480 585
4 356 349 330 127
4 503 498 247 583
4 345 565 109 108
4 313 319 329 577
4 106 128 566 350
4 536 534 537 578
4 161 160 159 394
4 166 377 167 150
4 4 149 372 303
4 73 295 388 303
4 259 258 255 222
4 273 272 269 120
4 280 279 144 282
4 267 266 192 268
4 281 280 142 282
4 414 420 519 184
4 523 527 449 230
4 473 487 484 241
4 34 389 393 507
4 513 514 517 576
4 269 274 273 122
4 266 265 194 268
4 380 387 164 581
4 381 385 388 579
4 161 383 386 581
4 472 514 243 516
4 465 462 526 577
4 482 242 476 585
4 456 335 93 455
4 455 457 334 92
4 37 519 509 413
4 142 491 569 580
4 393 31 32 160
4 167 30 28 376
4 381 386 385 579
4 337 61 12 80
4 371 366 500 152
4 177 499 407 402
4 537 534 239 461
4 486 181 413 415
4 366 503 365 583
4 473 471 478 575
4 471 510 49 520
4 309 294 311 582
4 268 514 513 576
4 264 421 325 185
4 16 325 439 437
4 254 533 532 584
4 503 366 365 151
4 178 502 402 401
4 491 142 490 580
4 239 537 461 463
4 447 530 528 584
4 521 252 532 584
4 292 446 88 319
4 312 408 75 336
4 367 294 71 372
4 318 300 320 578
4 523 522 255 577
4 482 476 557 585
4 459 96 317 464
4 399 407 161 581
4 255 260 259 224
4 517 514 518 576
4 303 71 294 372
4 520 518 244 478
4 526 523 527 577
4 362 369 373 582
4 129 566 351 107
4 295 333 336 579
4 383 385 386 581
4 422 435 22 326
4 454 525 449 230
4 487 245 471 575
4 471 487 473 241
4 480 484 482 585
4 314 470 474 102
4 95 313 462 459
4 302 78 299 580
4 530 542 254 584
4 399 162 408 579
4 237 526 462 524
4 476 469 58 585
4 73 295 381 388
4 113 135 567 348
4 436 551 204 215
4 552 198 209 433
4 164 380 384 391
4 255 258 544 222
4 269 272 557 120
4 279 282 570 144
4 268 267 555 192
4 281 282 142 569
4 440 257 228 326
4 1 330 349 338
4 534 238 461 541
4 569 282 142 580
4 58 269 557 585
4 496 365 29 247
4 265 268 556 194
4 274 269 558 122
4 289 331 270 585
4 337 285 61 80
4 474 289 469 585
4 526 522 523 577
4 46 529 531 460
4 295 392 9 74
4 361 290 68 368
4 142 282 490 580
4 447 452 450 584
4 474 469 476 585
4 404 299 78 580
4 303 72 4 390
4 557 476 58 585
4 362 367 369 582
4 58 469 289 585
4 542 447 450 584
4 500 498 503 583
4 530 42 447 528
4 296 313 462 94
4 364 492 493 153
4 403 408 75 312
4 495 248 35 401
4 380 385 387 581
4 58 270 269 585
4 478 518 244 472
4 349 330 2 356
4 451 89 318 292
4 58 289 270 585
4 291 93 335 455
4 334 291 455 92
4 376 33 505 391
4 223 255 523 522
4 359 143 142 280
4 397 78 302 580
4 260 255 543 224
4 303 388 72 390
4 290 310 68 368
4 222 524 221 544
4 475 327 288 104
4 232 448 535 536
4 530 447 542 584
4 238 461 541 466
4 520 478 471 575
4 163 387 383 581
4 468 475 288 104
4 458 296 462 94
4 453 90 91 321
4 485 481 182 415
4 503 29 365 247
4 502 35 248 401
4 369 365 373 583
4 249 512 520 575
4 466 97 320 98
4 437 15 421 206
4 542 533 254 584
4 518 514 243 472
4 82 293 412 316
4 356 2 349 127
4 461 464 463 578
4 338 349 1 105
4 435 207 21 440
4 397 404 78 580
4 491 490 494 580
4 381 162 386 579
4 379 4 390 374
4 490 143 489 282
4 314 470 102 308
4 317 313 95 459
4 43 447 542 530
4 396 9 375 392
4 289 314 331 585
4 268 513 514 193
4 269 481 121 480
4 452 447 528 584
4 160 161 176 394
4 412 416 82 316
4 539 537 240 463
4 450 448 232 536
4 529 251 46 531
4 519 250 37 509
4 437 439 16 217
4 504 497 163 581
4 517 515 414 183
4 360 143 280 144
4 289 474 314 585
4 89 451 446 292
4 74 295 392 381
4 373 365 154 496
4 430 200 201 425
4 416 410 81 298
4 355 137 65 353
4 526 529 236 465
4 53 439 437 217
4 435 196 54 422
4 22 196 435 422
4 536 233 450 542
4 202 426 427 201
4 244 471 49 520
4 213 427 443 212
4 359 133 132 343
4 535 540 453 231
4 88 87 319 449
4 289 474 469 101
4 389 163 387 383
4 343 341 111 110
4 284 305 547 545
4 184 519 37 413
4 495 401 180 409
4 526 237 462 465
4 355 307 11 353
4 527 452 449 230
4 324 263 297 288
4 434 208 197 552
4 551 431 216 205
4 347 136 114 567
4 192 266 426 193
4 252 521 528 584
4 466 320 334 98
4 561 302 307 301
4 94 313 462 95
4 289 314 474 101
4 366 365 369 583
4 193 194 266 425
4 154 365 29 496
4 223 255 224 523
4 530 254 252 584
4 566 352 128 106
4 341 122 121 273
4 364 370 492 153
4 254 532 252 584
4 142 491 141 569
4 245 479 246 511
4 249 511 250 512
4 520 510 49 249
4 477 472 243 516
4 437 421 325 206
4 528 530 42 252
4 387 385 383 581
4 237 526 236 465
4 64 302 561 277
4 282 280 143 144
4 280 143 142 282
4 466 97 461 320
4 42 229 447 528
4 252 521 532 251
4 90 451 89 318
4 35 495 401 180
4 228 20 440 326
4 403 75 76 312
4 304 283 546 548
4 233 447 450 542
4 299 332 302 580
4 453 90 321 448
4 406 491 179 580
4 298 81 416 316
4 244 471 520 478
4 448 535 453 231
4 285 12 61 80
4 527 229 452 230
4 20 228 257 326
4 192 555 515 191
4 482 120 557 119
4 492 570 144 145
4 335 453 91 321
4 152 366 500 151
4 499 177 178 402
4 476 242 473 585
4 467 237 462 524
4 388 72 73 303
4 107 129 566 352
4 529 46 236 460
4 142 143 490 282
4 99 440 20 326
4 395 159 386 162
4 378 149 382 166
4 420 519 184 413
4 440 435 207 326
4 273 121 342 120
4 77 78 404 299
4 303 4 71 372
4 198 209 434 552
4 113 135 347 567
4 551 204 215 431
4 71 70 294 367
4 194 268 514 193
4 121 122 481 269
4 228 20 296 458
4 32 177 504 407
4 501 28 371 152
4 47 531 539 460
4 179 494 180 400
4 532 533 254 253
4 170 167 377 384
4 65 307 355 353
4 6 4 390 379
4 460 539 240 463
4 175 395 159 386
4 569 64 282 580
4 323 564 289 270
4 382 378 166 169
4 161 383 176 394
4 311 70 69 362
4 7 9 396 392
4 223 259 222 444
4 548 549 322 550
4 545 284 305 326
4 527 452 229 528
4 307 64 302 561
4 439 325 53 437
4 256 322 329 305
4 223 259 443 224
4 325 85 14 421
4 289 331 323 270
4 406 179 400 580
4 164 163 172 156
4 75 408 9 336
4 14 325 421 185
4 454 543 525 225
4 563 307 323 561
4 332 277 302 580
4 54 435 422 326
4 543 224 525 225
4 545 305 257 326
4 61 12 307 353
4 64 302 277 580
4 242 473 484 241
4 283 546 325 304
4 121 273 269 120
4 192 268 266 193
4 414 515 419 183
4 43 447 233 542
4 550 547 305 545
4 228 296 50 458
4 387 163 172 164
4 334 19 457 466
4 421 325 15 437
4 335 18 453 456
4 491 406 569 580
4 150 167 28 391
4 273 122 121 269
4 266 268 194 193
4 546 264 325 304
4 302 561 277 301
4 255 223 222 522
4 16 325 86 439
4 530 542 43 254
4 561 323 563 301
4 220 261 439 283
4 307 12 11 353
4 192 513 268 193
4 480 121 269 120
4 537 239 240 463
4 411 84 14 297
4 404 406 400 580
4 323 564 301 306
4 562 286 306 560
4 291 93 455 92
4 255 223 259 222
4 287 256 322 329
4 304 283 548 322
4 207 196 54 435
4 137 115 61 353
4 206 53 437 217
4 127 349 62 105
4 447 229 452 528
4 286 301 562 306
4 277 564 562 301
4 393 389 32 507
4 102 474 314 101
4 310 69 68 368
4 453 91 18 335
4 305 547 324 284
4 564 323 289 306
4 100 422 22 326
4 324 322 549 550
4 531 253 47 539
4 397 406 404 580
4 256 51 287 322
4 438 57 551 205
4 65 354 136 567
4 552 52 208 432
4 561 307 323 301
4 485 182 181 415
4 551 53 438 216
4 114 354 61 567
4 552 197 54 432
4 238 239 534 461
4 296 50 20 228
4 334 19 466 98
4 460 236 529 465
4 21 435 440 326
4 167 377 384 150
4 302 277 332 301
4 64 397 302 580
4 106 566 60 350
4 128 62 566 350
4 418 483 123 558
4 293 83 82 412
4 263 297 304 324
4 356 286 138 276
4 62 330 349 127
4 569 65 278 148
4 493 154 364 153
4 146 278 64 307
4 232 233 450 536
4 550 324 322 305
4 240 47 539 460
4 62 570 276 140
4 325 86 439 283
4 473 474 476 585
4 24 182 483 418
4 183 414 517 184
4 455 235 538 234
4 275 559 285 563
4 17 445 220 287
4 301 562 63 286
4 200 211 554 430
4 564 277 563 301
4 36 181 413 486
4 470 102 308 103
4 53 543 261 218
4 259 223 255 224
4 131 565 346 109
4 553 427 213 202
4 185 264 56 304
4 524 467 221 544
4 64 277 282 580
4 334 457 19 92
4 335 93 18 456
4 417 83 84 328
4 48 487 471 241
4 516 195 477 556
4 231 448 535 232
4 133 111 343 568
4 374 390 379 168
4 258 52 544 226
4 53 260 543 218
4 396 375 174 392
4 39 243 516 477
4 290 332 277 301
4 79 307 11 355
4 11 137 355 353
4 433 209 221 210
4 348 123 113 112
4 322 549 304 324
4 263 55 324 547
4 549 324 550 547
4 195 198 433 199
4 365 29 503 151
4 502 178 35 401
4 143 489 282 144
4 398 76 77 309
4 564 562 306 560
4 262 188 284 422
4 55 263 324 288
4 17 87 445 287
4 376 505 28 391
4 150 384 167 391
4 518 243 244 472
4 439 219 261 220
4 146 147 278 355
4 380 387 172 164
4 317 95 96 459
4 157 173 164 391
4 19 45 457 466
4 18 44 453 456
4 13 81 410 298
4 81 82 416 316
4 163 508 171 387
4 544 52 257 226
4 356 138 139 276
4 64 569 406 580
4 103 327 475 104
4 392 7 9 74
4 73 295 74 381
4 384 170 167 391
4 541 234 45 457
4 564 562 301 306
4 242 25 119 476
4 483 24 418 123
4 338 60 330 105
4 330 1 66 338
4 220 445 51 287
4 72 6 4 390
4 307 146 278 355
4 284 422 100 326
4 544 467 221 226
4 356 330 2 67
4 14 56 411 297
4 164 172 380 506
4 41 524 467 221
4 45 541 457 466
4 392 162 386 381
4 559 307 285 563
4 307 65 61 353
4 531 47 46 460
4 447 43 42 530
4 469 0 289 101
4 469 289 0 126
4 297 304 56 263
4 546 304 548 549
4 51 283 287 322
4 38 191 183 419
4 277 561 563 301
4 289 564 58 270
4 429 200 211 554
4 109 131 565 345
4 202 213 553 428
4 323 331 298 270
4 257 305 20 326
4 161 383 394 175
4 163 172 508 387
4 516 39 477 195
4 344 111 133 568
4 67 356 330 286
4 288 324 55 284
4 63 290 301 286
4 330 62 356 127
4 264 325 57 546
4 556 54 190 262
4 324 550 547 305
4 56 14 304 297
4 458 20 296 94
4 410 118 13 298
4 153 145 26 370
4 179 27 141 406
4 265 54 190 556
4 279 62 140 570
4 272 60 557 124
4 555 57 187 267
4 569 65 148 281
4 61 558 116 274
4 157 164 28 391
4 155 171 389 163
4 476 482 557 119
4 227 257 228 440
4 388 390 149 382
4 304 56 263 549
4 56 14 411 185
4 304 548 549 322
4 61 558 275 116
4 469 58 289 126
4 464 96 300 97
4 256 548 51 322
4 467 41 221 226
4 406 141 491 569
4 171 155 508 163
4 164 506 173 157
4 59 118 410 298
4 380 164 506 173
4 166 149 382 150
4 55 324 547 284
4 397 64 406 580
4 127 62 350 105
4 61 115 137 354
4 206 438 53 217
4 54 196 207 432
4 545 257 52 326
4 386 159 161 162
4 555 515 191 419
4 172 164 156 506
4 163 508 172 156
4 283 261 546 548
4 418 123 116 558
4 323 298 59 270
4 322 256 548 550
4 439 53 325 283
4 557 60 271 124
4 555 57 264 187
4 410 117 59 418
4 469 476 58 125
4 145 492 570 370
4 155 389 32 163
4 235 44 456 540
4 421 325 57 264
4 322 256 550 305
4 62 330 286 560
4 290 68 3 361
4 40 230 225 454
4 397 78 10 302
4 566 351 279 129
4 272 351 566 107
4 16 15 325 437
4 556 195 477 190
4 267 436 551 204
4 135 567 348 281
4 209 552 433 258
4 380 164 173 391
4 325 57 437 206
4 175 159 161 386
4 169 166 382 150
4 36 37 509 413
4 49 48 510 471
4 348 567 113 274
4 551 436 260 215
4 433 552 198 265
4 547 284 545 262
4 237 41 524 467
4 562 286 560 276
4 435 21 22 326
4 285 59 275 563
4 63 277 562 301
4 163 171 389 387
4 51 261 220 283
4 505 173 28 391
4 138 63 290 361
4 422 284 54 326
4 543 219 218 454
4 467 544 227 226
4 138 290 3 361
4 296 20 50 305
4 290 3 63 138
4 58 564 289 306
4 440 52 257 326
4 44 453 456 540
4 52 207 435 326
4 88 89 446 292
4 376 28 170 391
4 288 23 188 468
4 62 330 356 286
4 53 439 261 283
4 382 168 149 378
4 277 63 290 301
4 559 307 563 561
4 59 285 298 323
4 549 263 304 324
4 116 117 418 558
4 125 476 557 124
4 56 14 185 304
4 212 427 259 201
4 259 212 201 430
4 273 343 132 110
4 346 273 132 110
4 288 23 468 104
4 162 386 395 174
4 550 256 50 305
4 323 285 307 563
4 161 383 175 386
4 507 389 32 171
4 15 85 325 421
4 32 507 171 155
4 157 173 28 505
4 262 189 188 422
4 283 51 548 322
4 146 64 397 302
4 146 397 10 302
4 170 167 28 376
4 123 116 24 418
4 275 118 285 337
4 324 549 263 547
4 188 55 288 468
4 286 356 62 276
4 288 23 55 188
4 393 32 389 176
4 176 393 32 160
4 377 169 384 150
4 220 439 17 283
4 330 62 60 560
4 138 286 63 276
4 118 59 13 298
4 555 187 186 419
4 477 556 190 189
4 2 1 330 349
4 225 525 454 230
4 379 374 168 165
4 174 158 375 396
4 546 325 53 283
4 275 117 118 337
4 257 550 305 545
4 118 117 59 410
4 126 469 58 125
4 262 284 54 422
4 39 477 195 190
4 266 427 426 201
4 406 147 148 569
4 570 370 139 140
4 99 21 440 326
4 201 266 430 425
4 12 61 307 285
4 341 343 273 110
4 189 477 55 468
4 186 411 56 419
4 188 284 55 262
4 343 132 359 280
4 443 427 259 212
4 284 55 23 188
4 304 546 264 549
4 476 557 58 125
4 418 117 59 558
4 306 286 330 560
4 384 169 382 150
4 118 13 59 285
4 541 45 238 466
4 125 126 338 271
4 162 174 375 392
4 258 222 221 544
4 168 374 390 149
4 560 286 62 276
4 393 32 31 507
4 505 28 30 376
4 379 5 4 374
4 375 8 9 396
4 421 264 186 185
4 563 323 564 301
4 505 30 33 376
4 66 330 338 306
4 265 195 194 556
4 123 122 274 558
4 119 476 482 242
4 393 31 34 507
4 57 53 437 206
4 137 61 65 353
4 54 52 207 435
4 61 275 559 285
4 57 325 421 206
4 179 406 141 491
4 354 65 61 567
4 57 53 438 551
4 54 52 552 432
4 545 54 284 326
4 556 477 55 189
4 555 186 56 419
4 218 543 454 225
4 221 258 544 226
4 458 467 50 227
4 219 51 445 454
4 62 60 566 350
4 419 515 191 183
4 441 52 227 440
4 63 570 370 139
4 64 147 406 569
4 286 63 3 138
4 210 222 221 258
4 261 219 51 220
4 278 64 147 146
4 207 52 440 326
4 219 445 51 220
4 458 50 228 227
4 53 439 442 219
4 195 194 199 265
4 122 112 123 274
4 145 492 370 153
4 278 64 307 561
4 139 138 63 276
4 126 306 338 271
4 261 546 53 283
4 454 40 218 225
4 23 284 188 422
4 261 219 218 543
4 374 168 165 149
4 162 174 158 375
4 59 275 118 285
4 557 476 119 124
4 108 345 279 130
4 214 203 260 428
4 344 134 112 281
4 283 51 261 548
4 55 23 288 284
4 51 219 543 454
4 544 50 467 227
4 147 397 64 406
4 361 63 370 139
4 59 285 323 563
4 325 57 53 437
4 176 32 389 160
4 540 44 453 231
4 55 188 189 468
4 186 56 411 185
4 307 61 559 285
4 170 28 167 391
4 257 228 50 227
4 171 389 32 155
4 54 52 435 326
4 323 563 564 270
4 338 330 60 306
4 149 390 168 382
4 439 86 17 283
4 191 187 555 419
4 28 173 157 391
4 108 351 119 107
4 278 65 307 355
4 204 436 203 191
4 348 135 141 134
4 214 436 215 225
4 545 284 54 262
4 145 351 130 129
4 357 356 62 127
4 441 207 52 440
4 54 196 423 422
4 339 60 338 105
4 13 59 285 298
4 174 162 386 392
4 53 439 219 261
4 439 53 442 217
4 340 61 115 337
4 424 57 421 206
4 358 137 65 355
4 65 278 147 355
4 306 330 60 560
4 556 265 195 190
4 116 123 274 558
4 544 257 227 226
4 554 259 266 430
4 570 145 370 140
4 141 406 148 569
4 139 62 356 276
4 563 323 59 270
4 284 547 55 262
4 7 9 8 396
4 4 6 5 379
4 266 553 427 259
4 565 273 280 346
4 286 562 63 276
4 258 221 41 226
4 285 61 275 337
4 280 568 343 273
4 218 442 53 216
4 290 63 3 286
4 169 377 166 150
4 226 208 52 441
4 119 476 25 124
4 227 52 257 440
4 394 159 161 175
4 147 278 148 569
4 325 53 57 546
4 139 356 62 357
4 60 338 125 339
4 423 189 54 422
4 276 570 139 140
4 307 559 278 561
4 271 564 306 560
4 307 10 146 355
4 62 60 350 105
4 137 65 61 354
4 53 57 438 206
4 52 54 207 432
4 23 284 422 100
4 52 54 545 326
4 117 61 340 337
4 424 421 57 186
4 147 358 65 355
4 191 38 187 419
4 189 188 55 262
4 58 306 126 271
4 51 219 261 543
4 64 278 147 569
4 433 198 195 265
4 348 113 123 274
4 433 221 209 258
4 168 165 149 378
4 395 162 174 158
4 406 148 27 141
4 370 145 26 140
4 139 63 570 276
4 59 275 117 118
4 24 116 123 274
4 265 39 195 190
4 280 359 143 360
4 260 203 214 436
4 348 112 134 281
4 201 426 266 425
4 279 108 130 351
4 433 199 210 258
4 559 65 61 307
4 280 132 359 360
4 342 341 273 110
4 212 259 443 444
4 198 39 195 265
4 123 113 24 274
4 209 221 41 258
4 570 279 144 145
4 120 272 557 119
4 281 142 141 569
4 192 267 555 191
4 262 54 189 422
4 50 544 257 227
4 147 64 397 146
4 361 138 63 139
4 186 264 56 185
4 125 58 126 271
4 3 356 286 138
4 53 442 218 219
4 117 275 61 337
4 60 338 306 271
4 52 227 226 441
4 148 65 358 136
4 187 57 424 205
4 116 340 61 114
4 264 56 304 549
4 190 54 197 423
4 124 106 60 339
4 140 62 128 357
4 260 543 218 225
4 427 266 259 201
4 280 343 132 273
4 132 280 273 346
4 201 266 259 430
4 305 50 550 257
4 306 338 0 126
4 224 543 260 225
4 556 190 189 262
4 338 60 125 271
4 559 278 65 307
4 10 307 79 355
4 264 57 421 186
4 55 556 189 262
4 116 275 117 558
4 142 141 134 281
4 144 279 130 145
4 192 203 267 191
4 272 120 108 119
4 567 24 113 274
4 551 260 40 215
4 39 198 552 265
4 279 272 351 566
4 260 267 553 428
4 117 275 59 558
4 436 260 267 551
4 274 348 567 281
4 552 433 258 265
4 566 279 26 129
4 566 25 272 107
4 567 135 27 281
4 551 38 267 204
4 552 209 41 258
4 271 125 557 124
4 187 186 264 555
4 273 121 341 342
4 67 3 356 286
4 56 264 186 555
4 125 557 58 271
4 193 266 426 425
4 570 279 145 140
4 119 272 557 124
4 187 555 267 191
4 281 141 148 569
4 306 58 564 271
4 219 218 53 261
4 260 214 224 225
4 260 218 40 225
4 223 443 259 444
4 199 433 195 265
4 112 348 123 274
4 210 221 433 258
4 338 0 66 306
4 227 257 52 226
4 271 306 60 560
4 267 260 203 428
4 267 38 187 191
4 141 148 27 281
4 145 279 26 140
4 25 272 119 124
4 278 148 65 147
4 38 267 204 191
4 141 27 135 281
4 215 260 40 225
4 145 26 279 129
4 119 272 25 107
4 276 139 62 140
4 337 13 285 80
4 285 118 13 337
4 148 358 65 147
4 57 424 186 187
4 116 61 340 117
4 54 190 189 423
4 140 139 62 357
4 60 125 124 339
4 279 351 145 129
4 204 267 436 191
4 348 141 135 281
4 215 436 260 225
4 119 351 272 107
4 112 348 274 281
4 203 260 267 436
4 279 272 108 351
4 433 199 258 265
4 189 190 54 262
4 61 116 275 117
4 186 264 57 187
4 60 125 271 124
4 351 130 279 145
4 267 203 436 191
4 141 348 134 281
4 436 214 260 225
4 272 108 351 119
4 204 205 551 38
4 216 215 551 40
4 114 113 567 24
4 135 136 567 27
4 107 106 566 25
4 197 198 552 39
4 209 208 552 41
4 128 129 566 26
4 259 260 443 224
4 443 260 213 224
4 213 260 214 224
4 492 282 364 489
4 492 364 282 63
4 260 53 40 218
4 260 40 53 551
4 216 40 53 218
4 216 53 40 551
4 274 61 24 116
4 274 24 61 567
4 114 24 61 116
4 114 61 24 567
4 197 54 39 552
4 197 39 54 190
4 265 39 54 552
4 265 54 39 190
4 208 52 41 226
4 208 41 52 552
4 258 41 52 226
4 258 52 41 552
4 128 62 26 566
4 128 26 62 140
4 279 26 62 566
4 279 62 26 140
4 106 60 25 124
4 106 25 60 566
4 272 25 60 124
4 272 60 25 566
4 582 409 583 574
4 582 583 409 405
4 583 409 495 574
4 583 495 409 401
4 281 65 27 567
4 281 27 65 148
4 136 27 65 567
4 136 65 27 148
4 267 57 38 551
4 267 38 57 187
4 205 38 57 551
4 205 57 38 187
4 164 384 581 150
4 164 581 384 380
4 317 577 292 313
4 292 577 317 572
4 579 582 367 294
4 367 582 579 571
4 576 412 417 293
4 576 417 412 420
4 308 475 103 327
4 103 475 308 470
4 544 524 522 222
4 522 524 544 50
4 522 255 544 222
4 544 255 522 50
4 282 570 492 63
4 492 570 282 144
4 555 268 515 56
4 555 515 268 192
4 516 556 514 194
4 268 514 556 194
4 268 556 514 55
4 483 558 481 122
4 269 481 558 122
4 269 558 481 59
4 270 585 416 269
4 416 585 270 331
4 416 59 270 269
4 577 524 526 522
4 577 526 524 462
4 149 303 579 372
4 149 579 303 388
4 208 207 52 441
4 208 52 207 432
4 105 106 60 350
4 105 60 106 339
4 128 127 62 350
4 62 127 128 357
4 216 217 53 438
4 216 53 217 442
4 114 115 61 354
4 114 61 115 340
4 205 206 57 424
4 205 57 206 438
4 136 137 65 358
4 136 65 137 354
4 196 197 54 423
4 196 54 197 432
4 558 418 481 59
4 558 481 418 483
4 582 310 309 574
4 582 309 310 311
4 270 298 416 331
4 270 416 298 59
4 263 576 56 297
4 56 576 263 268
4 162 336 579 295
4 579 336 162 408
4 556 477 514 55
4 556 514 477 516
4 413 246 36 486
4 36 246 413 509
4 481 418 182 415
4 182 418 481 483
4 61 12 115 337
4 61 115 12 353
4 471 245 48 510
4 471 48 245 487
4 565 131 280 360
4 565 280 131 346
4 132 280 131 360
4 132 131 280 346
4 554 211 259 430
4 212 259 211 430
4 212 211 259 444
4 110 109 273 342
4 110 273 109 346
4 565 109 273 346
4 580 179 494 491
4 580 494 179 400
4 585 242 484 482
4 585 484 242 473
4 383 176 160 161
4 160 176 383 389
4 160 32 383 161
4 383 32 160 389
4 256 296 305 329
4 305 296 256 50
4 330 105 62 349
4 62 105 330 60
4 257 20 50 228
4 257 50 20 305
4 391 150 164 28
4 391 164 150 384
4 304 185 325 14
4 304 325 185 264
4 287 220 283 51
4 287 283 220 17
4 126 289 306 58
4 126 306 289 0
4 302 146 307 10
4 302 307 146 64
4 428 260 213 553
4 428 213 260 214
4 131 144 279 130
4 131 345 279 565
4 279 345 131 130
4 281 142 133 134
4 133 344 281 134
4 281 344 133 568
4 112 568 281 274
4 281 568 112 344
4 428 267 202 203
4 428 202 267 553
4 192 202 267 203
4 565 108 279 272
4 279 108 565 345
4 199 554 258 265
4 210 554 199 429
4 199 554 210 258
4 266 426 267 192
4 202 267 426 192
4 280 359 281 142
4 133 281 359 142
4 273 274 341 122
4 341 274 111 122
4 111 274 112 122
4 111 112 274 568
4 131 279 360 565
4 131 360 279 144
4 280 360 279 565
4 280 279 360 144
4 258 259 444 222
4 211 258 444 222
4 210 258 211 222
4 210 211 258 554
4 272 273 342 120
4 109 272 342 120
4 108 272 109 120
4 108 109 272 565
4 265 425 266 194
4 200 425 265 194
4 199 265 200 554
4 199 200 265 194
4 259 260 213 443
4 213 260 259 553
4 213 427 259 443
4 259 427 213 553
4 266 427 202 426
4 202 427 266 553
4 202 267 266 426
4 266 267 202 553
4 280 343 133 359
4 133 343 280 568
4 133 281 280 359
4 280 281 133 568
4 273 274 111 341
4 111 274 273 568
4 111 343 273 341
4 273 343 111 568
4 258 259 211 444
4 211 259 258 554
4 272 273 109 342
4 109 273 272 565
4 266 265 200 425
4 200 265 266 554
4 200 430 266 425
4 266 430 200 554

CELL_TYPES 3235
1
1
1
1
1
1
1
1
1
1
1
1
1
1
1
1
1
1
1
1
1
1
1
1
1
1
1
1
1
1
1
1
1
1
1
1
1
1
1
1
1
1
1
1
1
1
1
1
1
1
1
1
1
1
1
1
1
1
1
1
1
1
1
1
1
1
3
3
3
3
3
3
3
3
3
3
3
3
3
3
3
3
3
3
3
3
3
3
3
3
3
3
3
3
3
3
3
3
3
3
3
3
3
3
3
3
3
3
3
3
3
3
3
3
3
3
3
3
3
3
3
3
3
3
3
3
3
3
3
3
3
3
3
3
3
3
3
3
3
3
3
3
3
3
3
3
3
3
3
3
3
3
3
3
3
3
3
3
3
3
3
3
3
3
3
3
3
3
3
3
3
3
3
3
3
3
3
3
3
3
3
3
3
3
3
3
3
3
3
3
3
3
3
3
3
3
3
3
3
3
3
3
3
3
3
3
3
3
3
3
3
3
3
3
3
3
3
3
3
3
3
3
3
3
3
3
3
3
3
3
3
3
3
3
3
3
3
3
3
3
3
3
3
3
3
3
3
3
3
3
3
3
3
3
3
3
3
3
3
3
3
3
3
3
3
3
3
3
3
3
3
3
3
3
3
3
3
3
3
3
3
3
3
3
3
3
3
3
3
3
3
3
3
3
3
3
3
3
3
3
3
3
3
3
3
3
3
3
3
3
3
3
3
3
3
3
3
3
3
3
3
3
3
3
3
3
3
3
3
3
3
3
3
3
3
3
3
3
3
3
3
3
3
3
3
3
3
3
3
3
3
3
3
3
3
3
3
3
3
3
3
3
3
3
3
3
3
3
3
3
3
3
3
3
3
3
3
3
3
3
3
3
5
5
5
5
5
5
5
5
5
5
5
5
5
5
5
5
5
5
5
5
5
5
5
5
5
5
5
5
5
5
5
5
5
5
5
5
5
5
5
5
5
5
5
5
5
5
5
5
5
5
5
5
5
5
5
5
5
5
5
5
5
5
5
5
5
5
5
5
5
5
5
5
5
5
5
5
5
5
5
5
5
5
5
5
5
5
5
5
5
5
5
5
5
5
5
5
5
5
5
5
5
5
5
5
5
5
5
5
5
5
5
5
5
5
5
5
5
5
5
5
5
5
5
5
5
5
5
5
5
5
5
5
5
5
5
5
5
5
5
5
5
5
5
5
5
5
5
5
5
5
5
5
5
5
5
5
5
5
5
5
5
5
5
5
5
5
5
5
5
5
5
5
5
5
5
5
5
5
5
5
5
5
5
5
5
5
5
5
5
5
5
5
5
5
5
5
5
5
5
5
5
5
5
5
5
5
5
5
5
5
5
5
5
5
5
5
5
5
5
5
5
5
5
5
5
5
5
5
5
5
5
5
5
5
5
5
5
5
5
5
5
5
5
5
5
5
5
5
5
5
5
5
5
5
5
5
5
5
5
5
5
5
5
5
5
5
5
5
5
5
5
5
5
5
5
5
5
5
5
5
5
5
5
5
5
5
5
5
5
5
5
5
5
5
5
5
5
5
5
5
5
5
5
5
5
5
5
5
5
5
5
5
5
5
5
5
5
5
5
5
5
5
5
5
5
5
5
5
5
5
5
5
5
5
5
5
5
5
5
5
5
5
5
5
5
5
5
5
5
5
5
5
5
5
5
5
5
5
5
5
5
5
5
5
5
5
5
5
5
5
5
5
5
5
5
5
5
5
5
5
5
5
5
5
5
5
5
5
5
5
5
5
5
5
5
5
5
5
5
5
5
5
5
5
5
5
5
5
5
5
5
5
5
5
5
5
5
5
5
5
5
5
5
5
5
5
5
5
5
5
5
5
5
5
5
5
5
5
5
5
5
5
5
5
5
5
5
5
5
5
5
5
5
5
5
5
5
5
5
5
5
5
5
5
5
5
5
5
5
5
5
5
5
5
5
5
5
5
5
5
5
5
5
5
5
5
5
5
5
5
5
5
5
5
5
5
5
5
5
5
5
5
5
5
5
5
5
5
5
5
5
5
5
5
5
5
5
5
5
5
5
5
5
5
5
5
5
5
5
5
5
5
5
5
5
5
5
5
5
5
5
5
5
5
5
5
5
5
5
5
5
5
5
5
5
5
5
5
5
5
5
5
5
5
5
5
5
5
5
5
5
5
5
5
5
5
5
5
5
5
5
5
5
5
5
5
5
5
5
5
5
5
5
5
5
5
5
5
5
5
5
5
5
5
5
5
5
5
5
5
5
5
5
5
5
5
5
5
5
5
5
5
5
5
5
5
5
5
5
5
5
5
5
5
5
5
5
5
5
5
5
5
5
5
5
5
5
5
5
5
5
5
5
5
5
5
5
5
5
5
5
5
5
5
5
5
5
5
5
5
5
5
5
5
5
5
5
5
5
5
5
5
5
5
5
5
5
5
5
5
5
5
5
5
5
5
5
5
5
5
5
5
5
5
5
5
5
5
5
5
5
5
5
5
5
5
5
5
5
5
5
5
5
5
5
5
5
5
5
5
5
5
5
5
5
5
5
5
5
5
5
5
5
5
5
5
5
5
5
5
5
5
5
5
5
5
5
5
5
5
5
5
5
5
5
5
5
5
5
5
5
5
5
5
5
5
5
5
5
5
5
5
5
5
5
5
5
5
5
5
5
5
5
5
5
5
5
5
5
5
5
5
5
5
5
5
5
5
5
5
5
5
5
5
5
5
5
5
5
5
5
5
5
5
5
5
5
5
5
5
5
5
5
5
5
5
5
5
5
5
5
5
5
5
5
5
5
5
5
5
5
5
5
5
5
5
5
5
5
5
5
5
5
5
5
5
5
5
5
5
5
5
5
5
5
5
5
5
5
5
5
5
5
5
5
5
5
5
5
5
5
5
5
5
5
5
5
5
5
5
5
5
5
5
5
5
5
5
5
5
5
5
5
5
5
5
5
5
5
5
5
5
5
5
5
5
5
5
5
5
5
5
5
5
5
5
5
5
5
5
5
5
5
5
5
5
5
5
5
5
5
5
5
5
5
5
5
5
5
5
5
5
5
5
5
5
5
5
5
5
5
5
5
5
5
5
5
5
5
5
5
5
5
5
5
5
5
5
5
5
5
5
5
5
5
5
5
5
5
5
5
5
5
5
5
5
5
5
5
5
5
5
5
5
5
5
5
5
5
5
5
5
5
5
5
5
5
5
5
5
5
5
5
5
5
5
5
5
5
5
5
5
5
5
5
5
5
5
5
5
5
5
5
5
5
5
5
5
5
5
5
5
5
5
5
5
5
5
5
5
5
5
5
5
5
5
5
5
5
5
5
5
5
5
5
5
5
5
5
5
5
5
5
5
5
5
5
5
5
5
5
5
5
5
5
5
5
5
5
5
5
5
5
5
5
5
5
5
5
5
5
5
5
5
5
5
5
5
5
5
10
10
10
10
10
10
10
10
10
10
10
10
10
10
10
10
10
10
10
10
10
10
10
10
10
10
10
10
10
10
10
10
10
10
10
10
10
10
10
10
10
10
10
10
10
10
10
10
10
10
10
10
10
10
10
10
10
10
10
10
10
10
10
10
10
10
10
10
10
10
10
10
10
10
10
10
10
10
10
10
10
10
10
10
10
10
10
10
10
10
10
10
10
10
10
10
10
10
10
10
10
10
10
10
10
10
10
10
10
10
10
10
10
10
10
10
10
10
10
10
10
10
10
10
10
10
10
10
10
10
10
10
10
10
10
10
10
10
10
10
10
10
10
10
10
10
10
10
10
10
10
10
10
10
10
10
10
10
10
10
10
10
10
10
10
10
10
10
10
10
10
10
10
10
10
10
10
10
10
10
10
10
10
10
10
10
10
10
10
10
10
10
10
10
10
10
10
10
10
10
10
10
10
10
10
10
10
10
10
10
10
10
10
10
10
10
10
10
10
10
10
10
10
10
10
10
10
10
10
10
10
10
10
10
10
10
10
10
10
10
10
10
10
10
10
10
10
10
10
10
10
10
10
10
10
10
10
10
10
10
10
10
10
10
10
10
10
10
10
10
10
10
10
10
10
10
10
10
10
10
10
10
10
10
10
10
10
10
10
10
10
10
10
10
10
10
10
10
10
10
10
10
10
10
10
10
10
10
10
10
10
10
10
10
10
10
10
10
10
10
10
10
10
10
10
10
10
10
10
10
10
10
10
10
10
10
10
10
10
10
10
10
10
10
10
10
10
10
10
10
10
10
10
10
10
10
10
10
10
10
10
10
10
10
10
10
10
10
10
10
10
10
10
10
10
10
10
10
10
10
10
10
10
10
10
10
10
10
10
10
10
10
10
10
10
10
10
10
10
10
10
10
10
10
10
10
10
10
10
10
10
10
10
10
10
10
10
10
10
10
10
10
10
10
10
10
10
10
10
10
10
10
10
10
10
10
10
10
10
10
10
10
10
10
10
10
10
10
10
10
10
10
10
10
10
10
10
10
10
10
10
10
10
10
10
10
10
10
10
10
10
10
10
10
10
10
10
10
10
10
10
10
10
10
10
10
10
10
10
10
10
10
10
10
10
10
10
10
10
10
10
10
10
10
10
10
10
10
10
10
10
10
10
10
10
10
10
10
10
10
10
10
10
10
10
10
10
10
10
10
10
10
10
10
10
10
10
10
10
10
10
10
10
10
10
10
10
10
10
10
10
10
10
10
10
10
10
10
10
10
10
10
10
10
10
10
10
10
10
10
10
10
10
10
10
10
10
10
10
10
10
10
10
10
10
10
10
10
10
10
10
10
10
10
10
10
10
10
10
10
10
10
10
10
10
10
10
10
10
10
10
10
10
10
10
10
10
10
10
10
10
10
10
10
10
10
10
10
10
10
10
10
10
10
10
10
10
10
10
10
10
10
10
10
10
10
10
10
10
10
10
10
10
10
10
10
10
10
10
10
10
10
10
10
10
10
10
10
10
10
10
10
10
10
10
10
10
10
10
10
10
10
10
10
10
10
10
10
10
10
10
10
10
10
10
10
10
10
10
10
10
10
10
10
10
10
10
10
10
10
10
10
10
10
10
10
10
10
10
10
10
10
10
10
10
10
10
10
10
10
10
10
10
10
10
10
10
10
10
10
10
10
10
10
10
10
10
10
10
10
10
10
10
10
10
10
10
10
10
10
10
10
10
10
10
10
10
10
10
10
10
10
10
10
10
10
10
10
10
10
10
10
10
10
10
10
10
10
10
10
10
10
10
10
10
10
10
10
10
10
10
10
10
10
10
10
10
10
10
10
10
10
10
10
10
10
10
10
10
10
10
10
10
10
10
10
10
10
10
10
10
10
10
10
10
10
10
10
10
10
10
10
10
10
10
10
10
10
10
10
10
10
10
10
10
10
10
10
10
10
10
10
10
10
10
10
10
10
10
10
10
10
10
10
10
10
10
10
10
10
10
10
10
10
10
10
10
10
10
10
10
10
10
10
10
10
10
10
10
10
10
10
10
10
10
10
10
10
10
10
10
10
10
10
10
10
10
10
10
10
10
10
10
10
10
10
10
10
10
10
10
10
10
10
10
10
10
10
10
10
10
10
10
10
10
10
10
10
10
10
10
10
10
10
10
10
10
10
10
10
10
10
10
10
10
10
10
10
10
10
10
10
10
10
10
10
10
10
10
10
10
10
10
10
10
10
10
10
10
10
10
10
10
10
10
10
10
10
10
10
10
10
10
10
10
10
10
10
10
10
10
10
10
10
10
10
10
10
10
10
10
10
10
10
10
10
10
10
10
10
10
10
10
10
10
10
10
10
10
10
10
10
10
10
10
10
10
10
10
10
10
10
10
10
10
10
10
10
10
10
10
10
10
10
10
10
10
10
10
10
10
10
10
10
10
10
10
10
10
10
10
10
10
10
10
10
10
10
10
10
10
10
10
10
10
10
10
10
10
10
10
10
10
10
10
10
10
10
10
10
10
10
10
10
10
10
10
10
10
10
10
10
10
10
10
10
10
10
10
10
10
10
10
10
10
10
10
10
10
10
10
10
10
10
10
10
10
10
10
10
10
10
10
10
10
10
10
10
10
10
10
10
10
10
10
10
10
10
10
10
10
10
10
10
10
10
10
10
10
10
10
10
10
10
10
10
10
10
10
10
10
10
10
10
10
10
10
10
10
10
10
10
10
10
10
10
10
10
10
10
10
10
10
10
10
10
10
10
10
10
10
10
10
10
10
10
10
10
10
10
10
10
10
10
10
10
10
10
10
10
10
10
10
10
10
10
10
10
10
10
10
10
10
10
10
10
10
10
10
10
10
10
10
10
10
10
10
10
10
10
10
10
10
10
10
10
10
10
10
10
10
10
10
10
10
10
10
10
10
10
10
10
10
10
10
10
10
10
10
10
10
10
10
10
10
10
10
10
10
10
10
10
10
10
10
10
10
10
10
10
10
10
10
10
10
10
10
10
10
10
10
10
10
10
10
10
10
10
10
10
10
10
10
10
10
10
10
10
10
10
10
10
10
10
10
10
10
10
10
10
10
10
10
10
10
10
10
10
10
10
10
10
10
10
10
10
10
10
10
10
10
10
10
10
10
10
10
10
10
10
10
10
10
10
10
10
10
10
10
10
10
10
10
10
10
10
10
10
10
10
10
10
10
10
10
10
10
10
10
10
10
10
10
10
10
10
10
10
10
10
10
10
10
10
10
10
10
10
10
10
10
10
10
10
10
10
10
10
10
10
10
10
10
10
10
10
10
10
10
10
10
10
10
10
10
10
10
10
10
10
10
10
10
10
10
10
10
10
10
10
10
10
10
10
10
10
10
10
10
10
10
10
10
10
10
10
10
10
10
10
10
10
10
10
10
10
10
10
10
10
10
10
10
10
10
10
10
10
10
10
10
10
10
10
10
10
10
10
10
10
10
10
10
10
10
10
10
10
10
10
10
10
10
10
10
10
10
10
10
10
10
10
10
10
10
10
10
10
10
10
10
10
10
10
10
10
10
10
10
10
10
10
10
10
10
10
10
10
10
10
10
10
10
10
10
10
10
10
10
10
10
10
10
10
10
10
10
10
10
10
10
10
10
10
10
10
10
10
10
10
10
10
10
10
10
10
10
10
10
10
10
10
10
10
10
10
10
10
10
10
10
10
10
10
10
10
10
10
10
10
10
10
10
10
10
10
10
10
10
10
10
10
10
10
10
10
10
10
10
10
10
10
10
10
10
10
10
10
10
10
10
10
10
10
10
10
10
10
10
10
10
10
10
10
10
10
10
10
10
10
10
10
10
10
10
10
10
10
10
10
10
10
10
10
10
10
10
10
10
10
10
10
10
10
10
10
10
10
10
10
10
10
10
