# vtk DataFile Version 2.0
, Created by Gmsh 4.13.1 
ASCII
DATASET UNSTRUCTURED_GRID
POINTS 568 double
5.826569411488467 2.253424963806613 -44.8610055821018
-5.826569411488467 2.253424963806613 -44.8610055821018
10.44652781830093 2.253424963806612 -41.86418893121058
-10.44652781830093 2.253424963806611 -41.86418893121058
10.44652781830093 2.253424963806612 -38.13581106878942
5.826569411488467 2.253424963806613 -35.1389944178982
-5.826569411488467 2.253424963806613 -35.1389944178982
-10.44652781830093 2.253424963806611 -38.13581106878942
5.826569411488467 2.253424963806613 -84.8610055821018
-5.826569411488467 2.253424963806613 -84.8610055821018
10.44652781830093 2.253424963806612 -81.86418893121058
-10.44652781830093 2.253424963806611 -81.86418893121058
10.44652781830093 2.253424963806612 -78.13581106878942
5.826569411488467 2.253424963806613 -75.1389944178982
-5.826569411488467 2.253424963806613 -75.1389944178982
-10.44652781830093 2.253424963806611 -78.13581106878942
8.75 0 -44.8610055821018
13.18966194507641 0 -41.86418893121058
13.18966194507641 0 -38.13581106878942
8.75 0 -35.1389944178982
8.75 0 -3
11.75 0 -3
11.75 0 0
-11.75 0 0
-11.75 0 -3
-8.75 0 -3
-8.75 1.071565949253934e-15 -35.1389944178982
-13.18966194507641 1.615267728287348e-15 -38.13581106878942
-13.18966194507641 1.615267728287348e-15 -41.86418893121058
-8.75 1.071565949253934e-15 -44.8610055821018
-8.75 1.071565949253934e-15 -75.1389944178982
-13.18966194507641 1.615267728287348e-15 -78.13581106878942
-13.18966194507641 1.615267728287348e-15 -81.86418893121058
-8.75 1.071565949253934e-15 -84.8610055821018
-8.75 0 -120
8.75 0 -120
8.75 0 -84.8610055821018
13.18966194507641 0 -81.86418893121058
13.18966194507641 0 -78.13581106878942
8.75 0 -75.1389944178982
8.750000000000002 9.869381045708831 -41.86418893121058
8.750000000000002 9.869381045708831 -38.13581106878942
8.75 9.869381045708835 -38.20934823006076
8.543917630294825 10.04831596597828 -38.13581106878942
-8.543917630294823 10.04831596597828 -38.13581106878942
-8.75 9.869381045708835 -38.20934823006076
-8.749999999999996 9.869381045708836 -38.13581106878942
-8.749999999999996 9.869381045708836 -41.86418893121058
-8.75 9.869381045708833 -41.79065176993923
-8.543917630294823 10.04831596597828 -41.86418893121058
8.543917630294825 10.04831596597828 -41.86418893121058
8.75 9.869381045708833 -41.79065176993923
8.75 20 -3
8.75 20 -34.04595207072829
11.75 23 -3
-11.75 23 -3
-8.75 20 -3
11.75 23 0
-11.75 23 0
-8.75 20 -34.04595207072829
-8.75 20 -45.95404792927171
-8.75 20 -74.04595207072829
-8.75 9.869381045708835 -78.20934823006077
-8.749999999999996 9.869381045708836 -78.13581106878942
8.750000000000002 9.869381045708831 -78.13581106878942
8.75 9.869381045708835 -78.20934823006077
8.543917630294867 10.04831596597825 -78.13581106878942
-8.543917630294867 10.04831596597825 -78.13581106878942
-8.749999999999996 9.869381045708836 -81.86418893121058
-8.75 9.869381045708833 -81.79065176993923
-8.543917630294844 10.04831596597827 -81.86418893121058
8.543917630294846 10.04831596597827 -81.86418893121058
8.75 9.869381045708833 -81.79065176993923
8.750000000000002 9.869381045708831 -81.86418893121058
-8.75 20 -85.95404792927171
-8.75 20 -114.0459520707283
-8.75 5.512262465864165 -120
8.75 5.512262465864165 -120
8.75 20 -85.95404792927171
8.75 20 -114.0459520707283
8.75 20 -45.95404792927171
8.75 20 -74.04595207072829
2.436137004297092 5.752570874895353 -44.8610055821018
-2.436137004297104 5.752570874895349 -44.8610055821018
-1.332267629550188e-14 2.253424963806612 -44.8610055821018
8.143975396975959 2.253424963806612 -43.37406660674818
7.777098549653052 7.329707066112976 -41.86418893121058
2.867686027205088 10.29486495178129 -41.86418893121058
-2.867686027205131 10.29486495178128 -41.86418893121058
-7.777098549653065 7.329707066112961 -41.86418893121058
-8.143975396975961 2.253424963806612 -43.37406660674818
8.143975396975959 2.253424963806612 -36.62593339325183
-8.881784197001252e-15 2.253424963806612 -35.1389944178982
-8.143975396975959 2.253424963806612 -36.62593339325183
7.777098549653052 7.329707066112976 -38.13581106878942
2.867686027205088 10.29486495178129 -38.13581106878942
-2.867686027205131 10.29486495178128 -38.13581106878942
-7.777098549653065 7.329707066112961 -38.13581106878942
2.436137004297092 5.752570874895353 -35.1389944178982
-2.436137004297104 5.752570874895349 -35.1389944178982
2.436137004297092 5.752570874895353 -84.8610055821018
-2.436137004297104 5.752570874895349 -84.8610055821018
-1.332267629550188e-14 2.253424963806612 -84.8610055821018
8.143975396975959 2.253424963806612 -83.37406660674819
7.777098549653052 7.329707066112976 -81.86418893121058
2.867686027205088 10.29486495178129 -81.86418893121058
-2.867686027205131 10.29486495178128 -81.86418893121058
-7.777098549653065 7.329707066112961 -81.86418893121058
-8.143975396975961 2.253424963806612 -83.37406660674817
8.143975396975959 2.253424963806612 -76.62593339325181
-8.881784197001252e-15 2.253424963806612 -75.1389944178982
-8.143975396975959 2.253424963806612 -76.62593339325181
7.777098549653052 7.329707066112976 -78.13581106878942
2.867686027205088 10.29486495178129 -78.13581106878942
-2.867686027205131 10.29486495178128 -78.13581106878942
-7.777098549653065 7.329707066112961 -78.13581106878942
2.436137004297092 5.752570874895353 -75.1389944178982
-2.436137004297104 5.752570874895349 -75.1389944178982
8.75 0 -28.71119553431856
8.75 0 -22.28339665073892
8.75 0 -15.85559776715928
8.75 0 -9.427798883579641
5.875000000000016 0 0
3.730349362740526e-14 0 0
-5.874999999999972 0 0
-8.75 0 -9.427798883579641
-8.75 0 -15.85559776715928
-8.75 0 -22.28339665073892
-8.75 0 -28.71119553431856
-8.75 0 -50.91660334926109
-8.75 0 -56.97220111642039
-8.75 0 -63.02779888357966
-8.75 0 -69.08339665073892
-8.75 0 -90.71750465175151
-8.75 0 -96.57400372140123
-8.75 0 -102.4305027910509
-8.75 0 -108.2870018607006
-8.75 0 -114.1435009303503
2.916666666666666 0 -120
-2.916666666666668 0 -120
8.75 0 -90.71750465175151
8.75 0 -96.57400372140123
8.75 0 -102.4305027910509
8.75 0 -108.2870018607006
8.75 0 -114.1435009303503
8.75 0 -50.91660334926109
8.75 0 -56.97220111642039
8.75 0 -63.02779888357966
8.75 0 -69.08339665073892
12.0286475599881 5.410990676668098 -41.86418893121058
8.750000000000002 5.097217509474001 -43.93191670259382
12.0286475599881 5.410990676668098 -38.13581106878942
3.069660724522203 12.82748475975406 -38.13581106878942
-3.069660724522175 12.82748475975407 -38.13581106878942
-12.0286475599881 5.410990676668107 -38.13581106878942
-12.0286475599881 5.410990676668107 -41.86418893121058
3.069660724522203 12.82748475975406 -41.86418893121058
-3.069660724522175 12.82748475975407 -41.86418893121058
8.750000000000002 5.097217509473989 -36.06808329740618
8.75 6.666666666666651 -3
8.75 13.33333333333329 -3
8.75 20 -27.83676165658263
8.75 20 -21.62757124243699
8.75 20 -15.41838082829133
8.75 20 -9.209190414145681
8.75 14.9346905228544 -36.12765015039453
-5.875000000000016 23 -3
-3.730349362740526e-14 23 -3
5.874999999999972 23 -3
-11.75 5.749999999999988 -3
-11.75 11.49999999999999 -3
-11.75 17.24999999999999 -3
-8.75 13.33333333333335 -3
-8.75 6.666666666666705 -3
-2.916666666666666 20 -3
2.916666666666668 20 -3
11.75 5.749999999999988 -3
11.75 11.49999999999999 -3
11.75 17.24999999999999 -3
11.75 5.749999999999988 0
11.75 11.49999999999999 0
11.75 17.24999999999999 0
-5.875000000000016 23 0
-3.730349362740526e-14 23 0
5.874999999999972 23 0
-11.75 5.749999999999988 0
-11.75 11.49999999999999 0
-11.75 17.24999999999999 0
-8.75 20 -9.209190414145656
-8.75 20 -15.41838082829131
-8.75 20 -21.62757124243696
-8.75 20 -27.83676165658261
-8.75 14.9346905228544 -36.12765015039453
-8.749999999999998 5.097217509473992 -36.06808329740618
-8.749999999999998 5.097217509474002 -43.93191670259382
-8.75 14.93469052285443 -43.87234984960548
-8.75 20 -68.42757124243698
-8.75 20 -62.80919041414568
-8.75 20 -57.19080958585438
-8.75 20 -51.57242875756305
-8.75 14.9346905228544 -76.12765015039453
-8.749999999999998 5.097217509473992 -76.06808329740619
-12.0286475599881 5.410990676668107 -78.13581106878942
12.0286475599881 5.410990676668098 -78.13581106878942
3.069660724522226 12.82748475975405 -78.13581106878942
-3.069660724522198 12.82748475975406 -78.13581106878942
-12.0286475599881 5.410990676668107 -81.86418893121058
3.069660724522214 12.82748475975406 -81.86418893121058
-3.069660724522187 12.82748475975406 -81.86418893121058
12.0286475599881 5.410990676668098 -81.86418893121058
-8.749999999999998 5.097217509474002 -83.93191670259382
-8.75 14.93469052285443 -83.87234984960547
-8.75 20 -108.427571242437
-8.75 20 -102.8091904141457
-8.75 20 -97.19080958585438
-8.75 20 -91.57242875756305
-8.75 10.34150831057611 -118.0153173569094
-8.75 15.17075415528805 -116.0306347138189
2.916666666666666 5.512262465864165 -120
-2.916666666666668 5.512262465864165 -120
8.750000000000002 5.097217509474001 -83.93191670259381
8.75 14.93469052285443 -83.87234984960547
8.75 20 -108.427571242437
8.75 20 -102.8091904141457
8.75 20 -97.19080958585438
8.75 20 -91.57242875756305
8.75 10.34150831057611 -118.0153173569094
8.75 15.17075415528805 -116.0306347138189
8.750000000000002 5.097217509473989 -76.06808329740619
8.75 14.93469052285443 -43.87234984960548
8.75 20 -68.42757124243698
8.75 20 -62.80919041414568
8.75 20 -57.19080958585438
8.75 20 -51.57242875756305
8.75 14.9346905228544 -76.12765015039453
2.916666666666666 20 -34.04595207072829
-2.916666666666668 20 -34.04595207072829
-2.947858640538857 11.77500152006936 -37.42619243277976
2.947858640538851 11.77500152006936 -37.42619243277976
2.947858640538857 11.77500152006935 -42.57380756722024
-2.94785864053884 11.77500152006935 -42.57380756722024
2.916666666666666 20 -45.95404792927171
-2.916666666666668 20 -45.95404792927171
2.916666666666666 20 -74.04595207072829
-2.916666666666668 20 -74.04595207072829
-2.94785864053887 11.77500152006932 -77.42619243277976
2.947858640538865 11.77500152006932 -77.42619243277976
2.947858640538869 11.77500152006936 -82.57380756722023
-2.947858640538853 11.77500152006936 -82.57380756722023
2.916666666666666 20 -85.95404792927171
-2.916666666666668 20 -85.95404792927171
2.916666666666666 20 -114.0459520707283
-2.916666666666668 20 -114.0459520707283
6.668141972993792 4.564520698294116 -43.62328584494441
-6.668141972996876 4.564520698297017 -43.62328584494158
-0.0297940811557437 8.332639635707057 -43.45324047061672
4.927785783754938 2.253424963806612 -37.72935602741669
-4.927785783754951 2.253424963806612 -42.27064397258331
2.913284705744228 2.253424963806612 -41.47245099363144
-2.913284705744235 2.253424963806612 -38.52754900636855
7.264092333077343 2.253424963806612 -40.58040180044999
-7.264092333077349 2.253424963806612 -39.41959819955002
9.458715530940019 4.973989146630315 -39.97135748523536
5.525024886248431 9.147784842921132 -40.02864251476464
-2.070215449011352e-14 10.68680810747728 -40.02864251476465
-9.458715530940022 4.973989146630308 -39.97135748523535
-5.526097173976515 9.147137123155575 -40
6.668141972993793 4.564520698294122 -36.37671415505559
-6.668141972996875 4.56452069829702 -36.37671415505842
-1.399971658945331e-14 8.162507499601798 -36.43188266452758
6.668141972993791 4.564520698294111 -83.62328584494442
-6.668141972996871 4.564520698297018 -83.62328584494159
-0.0297940811557437 8.332639635707057 -83.45324047061672
-4.927785783754951 2.253424963806612 -82.27064397258331
4.927785783754938 2.253424963806612 -77.72935602741669
2.913284705744225 2.253424963806612 -81.47245099363145
-2.913284705744235 2.253424963806612 -78.52754900636856
7.264092333077347 2.253424963806612 -80.58040180044999
-7.264092333077349 2.253424963806612 -79.41959819955001
9.458132402793833 4.975097886199169 -80
5.523952522600446 9.148432436986035 -80
-2.070215449011352e-14 10.68680810747728 -80.02864251476464
-9.458715530940019 4.973989146630312 -80.02864251476463
-5.526097173976515 9.147137123155575 -80
-6.668141972996872 4.564520698297009 -76.37671415505842
6.668141972993789 4.564520698294111 -76.37671415505559
-1.218727583650662e-14 8.162507499601794 -76.43188266452758
-3.475865378314522 0 -87.31812882999061
3.678966570545279 0 -71.12058387684145
2.942878976926844 0 -48.07905891471014
3.182190889809724 0 -30.98424900478112
-8.881784197001252e-16 0 -115.651458589094
-2.669550957881155 0 -105.3587523258758
-3.398724040344495 0 -60.00000000000001
-2.801822159810307 0 -4.099343087376042
3.183362876402778 0 -19.0694972089491
3.351329042086373 0 -41.99287784385589
2.831287114644168 0 -77.21879149940338
3.605866430108367 0 -93.78068327199287
-3.183362876402779 0 -12.64169832536947
-2.636582891380982 0 -25.42872131327748
3.734210229444763 0 -5.627628564886749
-8.768929470440055 0 -80.10205122331081
8.12804282935841 0 -80.32434709160006
-9.608571156739881 0 -39.77254006363703
9.242882365000579 0 -39.90395105680056
-3.84589021705494 0 -38.99434120043322
-2.960320571575764 0 -72.1420877607807
-3.488191833055422 0 -49.15516212264859
3.960689090843561 0 -104.3826691476008
2.834675646227786 0 -83.92410651847706
-2.784800077669431 0 -32.68918134247122
3.414006105800966 0 -60.00000000000001
-0.08833846511201759 0 -54.18717091717337
0.1223213440710005 0 -65.89564452865679
-3.427268616232078 0 -19.06592709341123
4.245794174966304 0 -25.29541194241304
3.446282728813824 0 -12.08872594445052
-3.245822384426946 0 -93.80034906926973
2.220446049250313e-14 0 -99.50225325622606
-3.862736094208341 0 -80.10073797599466
-3.614423102149456 0 -111.5847253360195
3.426664199987444 0 -110.9703878964525
-4.772171026902397 0 -99.51802824425602
5.013311104190389 0 -99.33402243765438
2.982618667028718 0 -36.61726581104003
4.943058804083449 0 -65.82548478796336
-4.898383390475608 0 -66.05559776715928
4.898383390475622 0 -53.94440223284074
-4.895050867702386 0 -54.24622750110069
4.933041174082271 0 -88.58475643863287
-1.819595314380667 0 -44.23375385596983
-0.7491575855412798 0 -8.262471109854211
4.495415023110962 0 -115.7391243717565
-4.495415023110958 0 -115.7391243717565
-5.299547682702945 0 -7.122730041394142
0.9303790975353907 0 -89.48160482567263
10.89654215326202 2.270990094743142 -43.25402285259871
-5.970740770368677 11.76084337445466 -39.96447945252662
5.970740770368694 11.76084337445465 -40.03552054747338
-0.0008828414614086747 13.1896619155302 -40
-12.89614239216728 2.76707311546746 -39.98422642750339
-9.95771819373901 8.649337003463092 -40.00079451928801
12.89614239216728 2.767073115467455 -39.98422642750339
9.957718193739094 8.649337003462996 -39.99920548071183
8.542052061130994 10.04990193038343 -40.00991766937802
-8.542052061130837 10.04990193038356 -39.9900823306218
10.89654215326219 2.270990094740586 -36.74597714740105
8.750000000000002 15.42873351854627 -18.99748487323015
8.750000000000002 9.645096973534178 -34.24388185473171
8.750000000000002 5.03567073916224 -12.67979083764796
8.750000000000002 5.566637123597222 -25.49729609252874
8.750000000000002 12.85745279300585 -29.67919408091628
8.750000000000002 5.362570664312985 -19.3681810743332
8.750000000000002 14.75347482725888 -12.3686626654875
8.750000000000002 9.994101941015989 -8.377641544116383
8.750000000000002 11.27953146723078 -23.17902946963297
8.750000000000002 5.285717564331419 -31.3724397831922
8.750000000000002 10.19706599440757 -15.83621727447981
8.750000000000002 4.339287869368976 -7.297046253068796
8.750000000000002 15.40486123845239 -7.459367025461741
8.750000000000002 16.04556014661016 -24.39776774597409
10.25 3.10416666666666 -3
-10.25 3.104166666666674 -3
11.75 20.125 -1.5
11.75 8.624999999999988 -1.5
11.75 14.37499999999999 -1.5
11.75 2.874999999999994 -1.5
3.157610638484558 18.22886740495932 0
-2.707174061168084 4.878797530676509 0
7.069955745470663 8.71654637064 0
-6.619519168154188 14.39111856499582 0
7.102873022115113 14.37499999999999 0
0.1126091443291184 11.52691623390895 0
-7.000954855602265 8.644857627020135 0
-2.792058517349995 18.15992185565015 0
2.948495529093417 4.721447277005962 0
-7.528051718759411 18.81262893003678 0
7.528051718759418 4.187371069963204 0
7.820492259183634 19.07601590637069 0
-7.553981076842909 4.160878030182233 0
-11.75 20.125 -1.5
-11.75 8.624999999999988 -1.5
-11.75 14.37499999999999 -1.5
-11.75 2.874999999999994 -1.5
-8.749999999999998 15.42873351854627 -18.99748487323013
-8.749999999999998 9.645096973534182 -34.24388185473171
-8.749999999999998 5.035670739162249 -12.67979083764796
-8.749999999999998 5.566637123597221 -25.49729609252874
-8.749999999999998 12.85745279300585 -29.67919408091626
-8.749999999999998 5.362570664312985 -19.36818107433319
-8.749999999999998 14.75347482725888 -12.36866266548748
-8.749999999999998 9.994101941016034 -8.377641544116354
-8.749999999999998 11.27953146723078 -23.17902946963296
-8.749999999999998 5.285717564331421 -31.37243978319219
-8.749999999999998 10.19706599440758 -15.8362172744798
-8.749999999999998 4.339287869368998 -7.297046253068789
-8.749999999999998 15.4048612384524 -7.459367025461743
-8.749999999999998 16.04556014661016 -24.39776774597407
-10.46041277365844 2.389682451108212 -36.47544891431073
-10.46041277365945 2.389682451108104 -43.52455108568863
-8.749999999999998 15.67882507041916 -60.00000000000002
-8.749999999999998 9.635742284111489 -74.2721852617356
-8.749999999999998 9.635742284111501 -45.72781473826441
-8.749999999999998 5.76815980745872 -53.72752408571132
-8.749999999999998 5.76815980745871 -66.27247591428869
-8.749999999999998 12.75112133590299 -70.03905596303875
-8.749999999999998 12.751121335903 -49.96094403696127
-8.749999999999998 5.618464936076845 -60.00000000000001
-8.749999999999998 11.101536175477 -55.91917953233322
-8.749999999999998 11.14455792263673 -62.97484870632534
-8.749999999999998 5.282572357696139 -71.59567634406758
-8.749999999999998 5.282572357696148 -48.40432365593242
-8.749999999999998 15.90629651635983 -54.92867238254239
-8.749999999999998 15.92471210713289 -65.06963256893278
-10.46041277365731 2.389682451108344 -76.47544891431001
5.970740770368709 11.76084337445464 -80.03552054747337
-5.970740770368713 11.76084337445464 -79.96447945252659
-0.0008828414614145321 13.1896619155302 -79.99999999999999
-12.89614239216728 2.76707311546746 -80.0157735724966
-9.957718193729539 8.649337003473997 -80.00079451929678
12.89598512446052 2.767805971358884 -80
9.957718193739094 8.649337003462996 -79.99920548071182
8.542052061130997 10.04990193038343 -80.00991766937801
-8.54205206112956 10.04990193038465 -79.9900823306356
-10.46041277365933 2.389682451108117 -83.5245510856887
-8.749999999999998 15.13433947456428 -105.6183808282913
-8.749999999999998 15.27328578089588 -94.20742541665066
-8.749999999999998 9.781131816756616 -86.27841695189908
-8.749999999999998 5.047516919107103 -99.50225325622607
-8.749999999999998 5.024353046912976 -111.5651815664247
-8.749999999999998 10.47746478075164 -113.3504057039806
-8.749999999999998 5.02724324931406 -93.88318944054842
-8.749999999999998 4.973828421746155 -105.3205233116587
-8.749999999999998 15.10324328838673 -99.92895485649869
-8.749999999999998 15.09718132790392 -110.8634403606259
-8.749999999999998 15.1155869618631 -88.83812349944299
-8.749999999999998 9.995888439280792 -102.4419689297625
-8.749999999999998 4.80484562110826 -88.62508068175306
-8.749999999999998 10.19193188794271 -96.85131066522571
-8.749999999999998 6.822343967407395 -116.000531018498
-8.749999999999998 10.0323375529801 -91.44725777591999
-8.749999999999998 9.962083821295934 -107.9554624917227
-8.749999999999998 3.121264224312094 -116.6993485457259
-5.833333333333334 2.756131232932083 -120
5.833333333333333 2.756131232932082 -120
0 2.756131232932082 -120
8.750000000000002 15.13433947456428 -105.6183808282913
8.750000000000002 15.27328578089588 -94.20742541665066
8.750000000000002 9.781131816756616 -86.27841695189908
8.750000000000002 5.047516919107103 -99.50225325622607
8.750000000000002 5.024353046912974 -111.5651815664247
8.750000000000002 10.47746478075164 -113.3504057039806
8.750000000000002 5.027243249314059 -93.88318944054842
8.750000000000002 4.973828421746155 -105.3205233116587
8.750000000000002 15.10324328838673 -99.92895485649869
8.750000000000002 15.09718132790392 -110.8634403606259
8.750000000000002 15.1155869618631 -88.83812349944299
8.750000000000002 9.995888439280792 -102.4419689297625
8.750000000000002 4.80484562110826 -88.62508068175306
8.750000000000002 10.19193188794271 -96.85131066522571
8.750000000000002 6.822343967407393 -116.000531018498
8.750000000000002 10.0323375529801 -91.44725777591999
8.750000000000002 9.962083821295934 -107.9554624917227
8.750000000000002 3.121264224312092 -116.6993485457259
10.89654215326217 2.270990094740813 -83.25402285259894
10.89654215326218 2.270990094740672 -76.74597714740106
8.750000000000002 15.67882507041916 -60.00000000000002
8.750000000000002 9.635742284111487 -74.2721852617356
8.750000000000002 9.635742284111499 -45.72781473826441
8.750000000000002 5.768159807458719 -53.72752408571133
8.750000000000002 5.768159807458709 -66.27247591428869
8.750000000000002 12.75112133590299 -70.03905596303875
8.750000000000002 12.751121335903 -49.96094403696127
8.750000000000002 5.618464936076844 -60.00000000000001
8.750000000000002 11.101536175477 -55.91917953233322
8.750000000000002 11.14455792263673 -62.97484870632534
8.750000000000002 5.282572357696139 -71.59567634406758
8.750000000000002 5.282572357696147 -48.40432365593242
8.750000000000002 15.90629651635983 -54.92867238254239
8.750000000000002 15.92471210713289 -65.06963256893278
0 16.41411559383219 -35.51964853802316
6.469308122345447 13.27582369245252 -36.8093972205095
-6.469308122345451 13.27582369245252 -36.80939722050951
4.972305571591829 16.06660522153474 -35.66246541386059
-4.972305571591827 16.06660522153474 -35.66246541386059
3.552713678800501e-15 16.41411559383219 -44.48035146197684
-6.46930812234544 13.27582369245253 -43.1906027794905
6.469308122345449 13.27582369245253 -43.1906027794905
-4.972305571591821 16.06660522153475 -44.33753458613941
4.972305571591829 16.06660522153475 -44.33753458613941
-1.77635683940025e-15 20 -29.18012109296395
0 20 -7.865830977764343
3.37268336441505 20 -18.52297603536416
-3.372683364415048 20 -18.52297603536413
2.964044105831315 20 -12.61656931793841
-2.964044105831315 20 -24.42938275278988
-3.743036583916057 20 -11.82393120629006
3.743036583916059 20 -25.22202086443823
-4.549580244912615 20 -29.73531240649178
4.549580244912617 20 -7.310639664236508
4.831940650116543 20 -30.06616155108828
-4.831940650116545 20 -6.979790519640011
8.812499999999986 23 -1.5
2.937499999999966 23 -1.5
-8.812500000000007 23 -1.5
-2.937500000000027 23 -1.499999999999999
-3.884339474564278 20 -60.00000000000003
3.685797486003797 20 -66.04474141896267
2.604349348779786 20 -54.81879306946061
-2.632712490002708 20 -65.24211558634963
-3.899129173634542 20 -54.02812089732936
2.878849145036099 20 -61.0176083457955
-0.0561736353279354 20 -50.4481810516032
-1.77635683940025e-15 20 -69.44171298908253
4.592968476023704 20 -49.74949974743406
-4.61478491602276 20 -50.02840696018059
-4.609875831333875 20 -70.24066079186514
4.614784916022781 20 -69.97159303981944
-1.77635683940025e-15 16.41411559383218 -75.51964853802316
6.469308122345465 13.2758236924525 -76.80939722050951
-6.469308122345469 13.2758236924525 -76.80939722050951
4.972305571591834 16.06660522153473 -75.66246541386059
-4.972305571591834 16.06660522153473 -75.66246541386059
3.552713678800501e-15 16.41411559383219 -84.48035146197685
-6.469308122345453 13.27582369245252 -83.19060277949049
6.469308122345462 13.27582369245252 -83.19060277949049
4.972305571591834 16.06660522153475 -84.33753458613941
-4.972305571591827 16.06660522153475 -84.33753458613941
1.945094360776533 20 -100
-3.37262768398821 20 -105.3953329212751
-3.372627683988197 20 -94.60466707872499
3.725278173873408 20 -105.760212438897
3.725278173873393 20 -94.23978756110304
-4.034197014879695 20 -100
0.05877508164753209 20 -90.13489406978877
0.05877508164753564 20 -109.8651059302113
-4.614784916022762 20 -90.02840696018059
4.614784916022763 20 -90.0284069601806
-4.614784916022785 20 -109.9715930398194
4.614784916022781 20 -109.9715930398194
-4.861111111111109 12.75613123293208 -117.0229760353641
4.861111111111111 12.75613123293208 -117.0229760353641
-1.77635683940025e-15 9.687610855038741 -118.2840506067992
-1.77635683940025e-15 15.82465161082543 -115.7619014639291
5.055555555555555 16.75030739980911 -115.3814832709137
-5.055555555555557 8.761955066055053 -118.6644687998146
-5.055555555555557 16.75030739980912 -115.3814832709137
5.055555555555555 8.761955066055053 -118.6644687998146
2.074729277268261e-15 11.30695277170805 -91.78722482580734
-7.105427357601002e-15 10.49122096112043 -52.58509404371847
-9.769962616701378e-15 10.34849304825972 -67.16956189198648
-1.021405182655144e-14 10.30759810730748 -27.24578983838706
3.552713678800501e-15 11.31389009229822 -108.1410515112362
-1.020922090429624 8.345557030654339 -99.58533160059753
-0.2859740558741635 11.61027749630102 -11.34427467440995
-0.6824064045945479 8.055812611625539 -19.06690422177123
0.00764103272823613 7.203993009498937 -59.84585657233412
-3.279955331320831 5.570276986098746 -113.9259835468104
3.279955331320846 5.570276986098733 -113.9259835468104
-2.17642289331463 6.683518427775384 -6.743516429537329
2.055451444156249 14.14879969924594 -5.790838831854591
3.164401460488559 13.50728125134371 -97.01823171368038
2.318568914468195 13.59508046091143 -58.3624041435138
-3.342022214223247 13.33581890978295 -102.7834128754096
4.026855343432797 12.03881641158089 -87.95838790283854
-4.026855343432787 12.03881641158088 -87.95838790283854
3.028195667460262 5.726545879183022 -91.15812048089644

CELLS 3128 13720
1 0
1 1
1 2
1 3
1 4
1 5
1 6
1 7
1 8
1 9
1 10
1 11
1 12
1 13
1 14
1 15
1 16
1 17
1 18
1 19
1 20
1 21
1 22
1 23
1 24
1 25
1 26
1 27
1 28
1 29
1 30
1 31
1 32
1 33
1 34
1 35
1 36
1 37
1 38
1 39
1 40
1 41
1 42
1 43
1 44
1 45
1 46
1 47
1 48
1 49
1 50
1 51
1 52
1 53
1 54
1 55
1 56
1 57
1 58
1 59
1 60
1 61
1 62
1 63
1 64
1 65
1 66
1 67
1 68
1 69
1 70
1 71
1 72
1 73
1 74
1 75
1 76
1 77
1 78
1 79
1 80
1 81
2 0 82
2 82 83
2 83 1
2 1 84
2 84 0
2 0 85
2 85 2
2 2 86
2 86 87
2 87 88
2 88 89
2 89 3
2 3 90
2 90 1
2 2 4
2 4 91
2 91 5
2 5 92
2 92 6
2 6 93
2 93 7
2 3 7
2 4 94
2 94 95
2 95 96
2 96 97
2 97 7
2 5 98
2 98 99
2 99 6
2 8 100
2 100 101
2 101 9
2 9 102
2 102 8
2 8 103
2 103 10
2 10 104
2 104 105
2 105 106
2 106 107
2 107 11
2 11 108
2 108 9
2 10 12
2 12 109
2 109 13
2 13 110
2 110 14
2 14 111
2 111 15
2 11 15
2 12 112
2 112 113
2 113 114
2 114 115
2 115 15
2 13 116
2 116 117
2 117 14
2 16 17
2 17 18
2 18 19
2 19 118
2 118 119
2 119 120
2 120 121
2 121 20
2 20 21
2 21 22
2 22 122
2 122 123
2 123 124
2 124 23
2 24 23
2 24 25
2 25 125
2 125 126
2 126 127
2 127 128
2 128 26
2 27 26
2 28 27
2 29 28
2 29 129
2 129 130
2 130 131
2 131 132
2 132 30
2 31 30
2 32 31
2 33 32
2 33 133
2 133 134
2 134 135
2 135 136
2 136 137
2 137 34
2 35 138
2 138 139
2 139 34
2 36 140
2 140 141
2 141 142
2 142 143
2 143 144
2 144 35
2 36 37
2 37 38
2 38 39
2 16 145
2 145 146
2 146 147
2 147 148
2 148 39
2 17 149
2 149 40
2 40 150
2 150 16
2 18 151
2 151 41
2 42 41
2 43 42
2 43 152
2 152 153
2 153 44
2 45 44
2 45 46
2 46 154
2 154 27
2 47 155
2 155 28
2 47 48
2 49 48
2 50 156
2 156 157
2 157 49
2 51 50
2 40 51
2 19 158
2 158 41
2 20 159
2 159 160
2 160 52
2 53 161
2 161 162
2 162 163
2 163 164
2 164 52
2 42 165
2 165 53
2 55 166
2 166 167
2 167 168
2 168 54
2 24 169
2 169 170
2 170 171
2 171 55
2 56 172
2 172 173
2 173 25
2 56 174
2 174 175
2 175 52
2 21 176
2 176 177
2 177 178
2 178 54
2 22 179
2 179 180
2 180 181
2 181 57
2 54 57
2 58 182
2 182 183
2 183 184
2 184 57
2 23 185
2 185 186
2 186 187
2 187 58
2 55 58
2 56 188
2 188 189
2 189 190
2 190 191
2 191 59
2 45 192
2 192 59
2 26 193
2 193 46
2 47 194
2 194 29
2 60 195
2 195 48
2 61 196
2 196 197
2 197 198
2 198 199
2 199 60
2 62 200
2 200 61
2 62 63
2 30 201
2 201 63
2 63 202
2 202 31
2 38 203
2 203 64
2 65 64
2 66 65
2 66 204
2 204 205
2 205 67
2 62 67
2 68 206
2 206 32
2 68 69
2 70 69
2 71 207
2 207 208
2 208 70
2 72 71
2 73 72
2 37 209
2 209 73
2 68 210
2 210 33
2 74 211
2 211 69
2 75 212
2 212 213
2 213 214
2 214 215
2 215 74
2 76 216
2 216 217
2 217 75
2 34 76
2 77 218
2 218 219
2 219 76
2 35 77
2 73 220
2 220 36
2 78 221
2 221 72
2 79 222
2 222 223
2 223 224
2 224 225
2 225 78
2 77 226
2 226 227
2 227 79
2 39 228
2 228 64
2 80 229
2 229 51
2 81 230
2 230 231
2 231 232
2 232 233
2 233 80
2 65 234
2 234 81
2 53 235
2 235 236
2 236 59
2 44 237
2 237 238
2 238 43
2 50 239
2 239 240
2 240 49
2 80 241
2 241 242
2 242 60
2 81 243
2 243 244
2 244 61
2 67 245
2 245 246
2 246 66
2 71 247
2 247 248
2 248 70
2 78 249
2 249 250
2 250 74
2 79 251
2 251 252
2 252 75
3 82 0 84
3 84 1 83
3 83 82 84
3 82 253 0
3 0 253 85
3 1 254 83
3 90 254 1
3 85 253 2
3 2 253 86
3 89 254 3
3 3 254 90
3 83 255 82
3 87 86 82
3 86 253 82
3 82 255 87
3 89 88 83
3 88 255 83
3 83 254 89
3 87 255 88
3 84 0 258
3 0 85 260
3 258 0 260
3 1 84 257
3 90 1 257
3 2 4 260
3 85 2 260
3 7 3 261
3 3 90 261
3 4 91 260
3 91 5 256
3 5 92 256
3 92 6 259
3 6 93 261
3 259 6 261
3 93 7 261
3 257 84 259
3 84 258 259
3 90 257 261
3 91 256 260
3 256 92 258
3 258 92 259
3 256 258 260
3 257 259 261
3 2 262 4
3 86 262 2
3 7 265 3
3 3 265 89
3 4 262 94
3 97 265 7
3 87 263 86
3 94 262 86
3 86 263 94
3 88 264 87
3 95 263 87
3 87 264 95
3 89 266 88
3 96 264 88
3 88 266 96
3 89 265 97
3 97 266 89
3 94 263 95
3 95 264 96
3 96 266 97
3 4 267 91
3 94 267 4
3 91 267 5
3 5 267 98
3 6 268 93
3 99 268 6
3 93 268 7
3 7 268 97
3 94 95 98
3 98 267 94
3 96 269 95
3 95 269 98
3 97 99 96
3 99 269 96
3 97 268 99
3 98 269 99
3 92 5 98
3 99 6 92
3 99 92 98
3 100 8 102
3 102 9 101
3 101 100 102
3 100 270 8
3 8 270 103
3 9 271 101
3 108 271 9
3 103 270 10
3 10 270 104
3 107 271 11
3 11 271 108
3 101 272 100
3 105 104 100
3 104 270 100
3 100 272 105
3 107 106 101
3 106 272 101
3 101 271 107
3 105 272 106
3 102 8 275
3 8 103 277
3 275 8 277
3 9 102 273
3 108 9 273
3 10 12 277
3 103 10 277
3 15 11 278
3 11 108 278
3 12 109 277
3 109 13 274
3 13 110 274
3 110 14 276
3 14 111 278
3 276 14 278
3 111 15 278
3 273 102 276
3 102 275 276
3 108 273 278
3 109 274 277
3 274 110 275
3 275 110 276
3 273 276 278
3 274 275 277
3 10 279 12
3 104 279 10
3 15 282 11
3 11 282 107
3 12 279 112
3 115 282 15
3 105 280 104
3 112 279 104
3 104 280 112
3 106 281 105
3 113 280 105
3 105 281 113
3 107 283 106
3 114 281 106
3 106 283 114
3 107 282 115
3 115 283 107
3 112 280 113
3 113 281 114
3 114 283 115
3 12 285 109
3 112 285 12
3 109 285 13
3 13 285 116
3 14 284 111
3 117 284 14
3 111 284 15
3 15 284 115
3 112 113 116
3 116 285 112
3 114 286 113
3 113 286 116
3 115 117 114
3 117 286 114
3 115 284 117
3 116 286 117
3 110 13 116
3 110 117 14
3 116 117 110
3 17 305 16
3 16 289 145
3 16 296 289
3 16 305 296
3 18 305 17
3 19 305 18
3 118 290 19
3 290 325 19
3 19 325 305
3 22 20 21
3 22 122 20
3 20 301 121
3 122 301 20
3 24 25 23
3 23 25 124
3 25 294 124
3 125 335 25
3 25 335 294
3 27 304 26
3 26 311 128
3 304 306 26
3 306 311 26
3 28 304 27
3 29 304 28
3 129 308 29
3 29 306 304
3 29 331 306
3 308 331 29
3 31 302 30
3 30 307 132
3 302 320 30
3 30 320 307
3 32 302 31
3 33 302 32
3 133 287 33
3 287 320 33
3 33 320 302
3 34 334 137
3 139 334 34
3 35 333 138
3 144 333 35
3 37 303 36
3 36 330 140
3 303 310 36
3 310 330 36
3 38 303 37
3 39 303 38
3 148 288 39
3 288 297 39
3 297 303 39
3 119 316 118
3 118 316 290
3 120 295 119
3 295 316 119
3 121 317 120
3 120 317 295
3 301 317 121
3 123 301 122
3 124 294 123
3 294 301 123
3 126 299 125
3 299 335 125
3 127 315 126
3 126 315 299
3 128 300 127
3 300 315 127
3 128 311 300
3 130 329 129
3 129 329 308
3 131 293 130
3 293 329 130
3 132 327 131
3 131 327 293
3 307 327 132
3 134 318 133
3 133 318 287
3 135 323 134
3 134 323 318
3 136 292 135
3 292 323 135
3 137 321 136
3 136 321 292
3 137 334 321
3 138 291 139
3 138 333 291
3 291 334 139
3 140 298 141
3 140 330 298
3 141 324 142
3 298 324 141
3 142 309 143
3 142 324 309
3 143 322 144
3 309 322 143
3 322 333 144
3 145 328 146
3 289 328 145
3 146 312 147
3 146 328 312
3 147 326 148
3 312 326 147
3 148 326 288
3 310 320 287
3 287 336 310
3 318 336 287
3 288 307 297
3 288 314 307
3 288 326 314
3 296 331 289
3 308 313 289
3 289 331 308
3 313 328 289
3 300 311 290
3 290 316 300
3 311 325 290
3 291 322 321
3 321 334 291
3 291 333 322
3 309 319 292
3 292 322 309
3 319 323 292
3 321 322 292
3 312 313 293
3 293 314 312
3 313 329 293
3 293 327 314
3 294 332 301
3 294 335 332
3 299 315 295
3 295 317 299
3 295 315 300
3 300 316 295
3 305 325 296
3 296 325 306
3 306 331 296
3 297 310 303
3 307 320 297
3 297 320 310
3 318 319 298
3 298 336 318
3 319 324 298
3 330 336 298
3 317 332 299
3 332 335 299
3 301 332 317
3 306 325 311
3 314 327 307
3 308 329 313
3 309 324 319
3 310 336 330
3 312 328 313
3 314 326 312
3 318 323 319
3 16 337 17
3 150 337 16
3 17 337 149
3 149 150 40
3 149 337 150
3 17 343 18
3 149 343 17
3 18 343 151
3 27 341 28
3 154 341 27
3 28 341 155
3 51 344 40
3 40 344 149
3 41 344 42
3 151 344 41
3 42 345 43
3 344 345 42
3 43 339 152
3 43 345 339
3 44 346 45
3 153 338 44
3 338 346 44
3 45 342 46
3 45 346 342
3 46 342 154
3 47 342 48
3 155 342 47
3 48 346 49
3 342 346 48
3 49 338 157
3 49 346 338
3 50 345 51
3 156 339 50
3 339 345 50
3 51 345 344
3 151 343 149
3 149 344 151
3 152 340 153
3 152 339 156
3 156 340 152
3 157 338 153
3 153 340 157
3 155 341 154
3 154 342 155
3 157 340 156
3 18 347 19
3 151 347 18
3 19 347 158
3 151 41 158
3 158 347 151
3 19 357 118
3 158 357 19
3 121 359 20
3 20 359 159
3 42 165 41
3 41 349 158
3 165 349 41
3 160 360 52
3 52 360 164
3 161 352 53
3 53 352 165
3 118 351 119
3 118 357 351
3 119 353 120
3 351 353 119
3 120 350 121
3 120 353 350
3 350 359 121
3 349 357 158
3 159 355 160
3 159 359 355
3 355 360 160
3 162 361 161
3 161 361 352
3 163 348 162
3 348 361 162
3 164 354 163
3 163 354 348
3 164 360 354
3 165 352 349
3 354 358 348
3 348 358 356
3 356 361 348
3 352 357 349
3 353 358 350
3 350 358 355
3 355 359 350
3 352 356 351
3 351 357 352
3 351 356 353
3 352 361 356
3 356 358 353
3 355 358 354
3 354 360 355
3 21 20 362
3 20 159 362
3 176 21 362
3 25 24 363
3 24 169 363
3 173 25 363
3 52 168 54
3 178 52 54
3 178 160 52
3 52 175 168
3 55 166 56
3 171 55 56
3 166 174 56
3 172 171 56
3 160 177 159
3 177 176 159
3 159 176 362
3 178 177 160
3 174 166 167
3 175 167 168
3 175 174 167
3 169 170 173
3 169 173 363
3 170 171 172
3 170 172 173
3 21 367 22
3 176 367 21
3 22 367 179
3 57 364 54
3 54 364 178
3 181 364 57
3 177 365 176
3 176 365 179
3 179 367 176
3 178 366 177
3 180 365 177
3 177 366 180
3 178 364 181
3 181 366 178
3 179 365 180
3 180 366 181
3 22 378 122
3 179 378 22
3 124 380 23
3 23 380 185
3 57 379 181
3 184 379 57
3 58 377 182
3 187 377 58
3 122 376 123
3 122 378 376
3 123 369 124
3 123 376 369
3 369 380 124
3 180 370 179
3 370 378 179
3 181 372 180
3 180 372 370
3 181 379 372
3 182 375 183
3 182 377 375
3 183 368 184
3 183 375 368
3 368 379 184
3 185 374 186
3 185 380 374
3 186 371 187
3 186 374 371
3 371 377 187
3 368 373 372
3 372 379 368
3 368 375 373
3 373 374 369
3 369 376 373
3 374 380 369
3 372 373 370
3 373 376 370
3 376 378 370
3 371 374 373
3 373 375 371
3 375 377 371
3 24 23 384
3 23 185 384
3 169 24 384
3 58 55 381
3 55 171 381
3 187 58 381
3 170 169 382
3 169 185 382
3 185 169 384
3 171 170 383
3 186 170 382
3 170 186 383
3 171 187 381
3 187 171 383
3 185 186 382
3 186 187 383
3 125 25 396
3 25 173 396
3 26 128 394
3 193 26 394
3 46 192 45
3 192 46 386
3 46 193 386
3 172 56 397
3 56 188 397
3 191 59 389
3 59 192 389
3 126 125 387
3 387 125 396
3 127 126 390
3 126 387 390
3 128 127 388
3 388 127 390
3 128 388 394
3 173 172 392
3 392 172 397
3 173 392 396
3 188 189 391
3 188 391 397
3 189 190 385
3 189 385 391
3 190 191 398
3 385 190 398
3 191 389 398
3 192 386 389
3 386 193 394
3 391 385 395
3 385 393 395
3 393 385 398
3 389 386 394
3 390 387 395
3 387 392 395
3 392 387 396
3 389 388 393
3 388 389 394
3 388 390 393
3 389 393 398
3 393 390 395
3 392 391 395
3 391 392 397
3 26 399 27
3 193 399 26
3 27 399 154
3 46 154 193
3 154 399 193
3 28 400 29
3 155 400 28
3 29 400 194
3 47 194 155
3 194 400 155
3 129 29 412
3 29 194 412
3 30 132 411
3 201 30 411
3 48 195 47
3 194 47 403
3 47 195 403
3 195 60 407
3 60 199 407
3 196 61 406
3 61 200 406
3 62 63 200
3 200 63 402
3 63 201 402
3 130 129 404
3 404 129 412
3 131 130 408
3 130 404 408
3 132 131 405
3 405 131 408
3 132 405 411
3 194 403 412
3 403 195 407
3 197 196 414
3 196 406 414
3 198 197 401
3 401 197 414
3 199 198 413
3 198 401 413
3 407 199 413
3 200 402 406
3 402 201 411
3 409 401 410
3 401 409 413
3 410 401 414
3 406 402 411
3 403 407 412
3 404 407 409
3 407 404 412
3 408 404 409
3 406 405 410
3 405 406 411
3 405 408 410
3 406 410 414
3 409 407 413
3 408 409 410
3 30 415 31
3 201 415 30
3 31 415 202
3 63 202 201
3 202 415 201
3 31 419 32
3 202 419 31
3 32 419 206
3 37 421 38
3 209 421 37
3 38 421 203
3 62 420 63
3 67 424 62
3 62 424 420
3 63 420 202
3 64 422 65
3 203 422 64
3 65 423 66
3 422 423 65
3 66 416 204
3 66 423 416
3 205 417 67
3 417 424 67
3 68 420 69
3 206 420 68
3 69 424 70
3 420 424 69
3 70 417 208
3 70 424 417
3 71 423 72
3 207 416 71
3 416 423 71
3 72 422 73
3 72 423 422
3 73 422 209
3 206 419 202
3 202 420 206
3 203 421 209
3 209 422 203
3 204 418 205
3 204 416 207
3 207 418 204
3 208 417 205
3 205 418 208
3 208 418 207
3 32 425 33
3 206 425 32
3 33 425 210
3 68 210 206
3 210 425 206
3 133 33 438
3 33 210 438
3 76 34 443
3 34 137 443
3 69 211 68
3 210 68 428
3 68 211 428
3 211 74 436
3 74 215 436
3 212 75 435
3 75 217 435
3 216 76 440
3 440 76 443
3 134 133 432
3 432 133 438
3 135 134 429
3 429 134 432
3 136 135 433
3 135 429 433
3 137 136 430
3 430 136 433
3 137 430 443
3 210 428 438
3 428 211 436
3 213 212 426
3 426 212 435
3 214 213 434
3 213 426 434
3 215 214 427
3 427 214 434
3 215 427 436
3 217 216 431
3 431 216 440
3 217 431 435
3 434 426 437
3 426 435 442
3 437 426 442
3 427 434 439
3 436 427 441
3 427 439 441
3 428 436 441
3 438 428 441
3 429 432 439
3 433 429 437
3 437 429 439
3 430 431 440
3 431 430 442
3 430 433 442
3 430 440 443
3 435 431 442
3 432 438 441
3 439 432 441
3 433 437 442
3 434 437 439
3 76 444 34
3 34 444 139
3 35 445 77
3 138 445 35
3 219 444 76
3 77 445 218
3 139 446 138
3 218 445 138
3 138 446 218
3 139 444 219
3 219 446 139
3 218 446 219
3 77 464 35
3 35 464 144
3 140 459 36
3 36 459 220
3 72 73 221
3 220 449 73
3 73 449 221
3 226 461 77
3 461 464 77
3 221 457 78
3 78 457 225
3 222 456 79
3 79 456 227
3 141 453 140
3 453 459 140
3 142 450 141
3 450 453 141
3 143 454 142
3 142 454 450
3 144 451 143
3 451 454 143
3 144 464 451
3 220 459 449
3 449 457 221
3 223 447 222
3 447 456 222
3 224 455 223
3 223 455 447
3 225 448 224
3 448 455 224
3 225 457 448
3 227 452 226
3 452 461 226
3 227 456 452
3 455 458 447
3 447 463 456
3 458 463 447
3 448 460 455
3 457 462 448
3 448 462 460
3 449 462 457
3 459 462 449
3 450 460 453
3 454 458 450
3 458 460 450
3 451 461 452
3 452 463 451
3 451 463 454
3 451 464 461
3 456 463 452
3 453 462 459
3 460 462 453
3 454 463 458
3 455 460 458
3 36 465 37
3 220 465 36
3 37 465 209
3 209 220 73
3 209 465 220
3 38 466 39
3 203 466 38
3 39 466 228
3 203 64 228
3 228 466 203
3 145 478 16
3 16 478 150
3 39 477 148
3 228 477 39
3 51 40 229
3 150 469 40
3 40 469 229
3 234 64 65
3 64 468 228
3 234 468 64
3 229 473 80
3 80 473 233
3 230 472 81
3 81 472 234
3 146 470 145
3 470 478 145
3 147 474 146
3 146 474 470
3 148 471 147
3 471 474 147
3 148 477 471
3 150 478 469
3 468 477 228
3 469 473 229
3 231 480 230
3 230 480 472
3 232 467 231
3 467 480 231
3 233 479 232
3 232 479 467
3 473 479 233
3 234 472 468
3 475 476 467
3 467 479 475
3 476 480 467
3 472 477 468
3 469 478 473
3 470 475 473
3 473 478 470
3 474 475 470
3 472 476 471
3 471 477 472
3 471 476 474
3 472 480 476
3 475 479 473
3 474 476 475
3 165 42 43
3 43 482 165
3 238 482 43
3 44 45 192
3 192 483 44
3 44 483 237
3 165 484 53
3 53 484 235
3 59 485 192
3 236 485 59
3 482 484 165
3 192 485 483
3 235 481 236
3 235 484 481
3 481 485 236
3 237 481 238
3 237 485 481
3 483 485 237
3 481 484 238
3 238 484 482
3 43 152 238
3 153 44 237
3 152 153 237
3 238 152 237
3 49 195 48
3 49 487 195
3 240 487 49
3 51 229 50
3 229 488 50
3 50 488 239
3 195 489 60
3 60 489 242
3 80 490 229
3 241 490 80
3 487 489 195
3 229 490 488
3 239 486 240
3 239 490 486
3 488 490 239
3 486 489 240
3 240 489 487
3 242 486 241
3 486 490 241
3 242 489 486
3 157 240 49
3 50 239 156
3 156 240 157
3 239 240 156
3 164 500 52
3 52 500 175
3 53 501 161
3 235 501 53
3 174 502 56
3 56 502 188
3 191 499 59
3 59 499 236
3 161 498 162
3 161 501 498
3 162 493 163
3 162 498 493
3 163 495 164
3 493 495 163
3 495 500 164
3 175 492 174
3 492 502 174
3 175 500 492
3 188 497 189
3 188 502 497
3 189 494 190
3 189 497 494
3 190 496 191
3 494 496 190
3 496 499 191
3 236 491 235
3 491 501 235
3 236 499 491
3 496 498 491
3 491 499 496
3 498 501 491
3 495 497 492
3 492 500 495
3 497 502 492
3 494 495 493
3 493 496 494
3 493 498 496
3 494 497 495
3 54 503 57
3 168 503 54
3 58 505 55
3 55 505 166
3 57 503 184
3 182 505 58
3 166 506 167
3 166 505 182
3 182 506 166
3 167 504 168
3 183 504 167
3 167 506 183
3 184 503 168
3 168 504 184
3 183 506 182
3 184 504 183
3 60 516 199
3 242 516 60
3 196 517 61
3 61 517 244
3 233 515 80
3 80 515 241
3 81 518 230
3 243 518 81
3 197 510 196
3 510 517 196
3 198 507 197
3 507 510 197
3 199 511 198
3 198 511 507
3 199 516 511
3 230 508 231
3 230 518 508
3 231 512 232
3 508 512 231
3 232 509 233
3 232 512 509
3 509 515 233
3 241 513 242
3 241 515 513
3 513 516 242
3 244 514 243
3 514 518 243
3 244 517 514
3 507 511 509
3 509 512 507
3 507 512 510
3 510 512 508
3 508 514 510
3 508 518 514
3 511 513 509
3 513 515 509
3 514 517 510
3 511 516 513
3 61 523 200
3 244 523 61
3 67 62 200
3 234 65 66
3 66 520 234
3 246 520 66
3 200 521 67
3 67 521 245
3 234 522 81
3 81 522 243
3 200 523 521
3 520 522 234
3 243 519 244
3 243 522 519
3 519 523 244
3 245 519 246
3 245 523 519
3 521 523 245
3 519 522 246
3 246 522 520
3 66 204 246
3 205 67 245
3 204 205 245
3 246 204 245
3 70 211 69
3 70 525 211
3 248 525 70
3 72 221 71
3 221 526 71
3 71 526 247
3 211 528 74
3 74 528 250
3 78 527 221
3 249 527 78
3 525 528 211
3 221 527 526
3 247 524 248
3 247 527 524
3 526 527 247
3 524 528 248
3 248 528 525
3 250 524 249
3 524 527 249
3 250 528 524
3 208 248 70
3 71 247 207
3 207 248 208
3 207 247 248
3 74 537 215
3 250 537 74
3 212 539 75
3 75 539 252
3 225 538 78
3 78 538 249
3 79 540 222
3 251 540 79
3 213 530 212
3 530 539 212
3 214 534 213
3 213 534 530
3 215 531 214
3 531 534 214
3 215 537 531
3 222 532 223
3 222 540 532
3 223 529 224
3 223 532 529
3 224 533 225
3 529 533 224
3 533 538 225
3 249 535 250
3 249 538 535
3 535 537 250
3 252 536 251
3 536 540 251
3 252 539 536
3 529 532 530
3 530 534 529
3 531 533 529
3 529 534 531
3 532 536 530
3 536 539 530
3 531 535 533
3 531 537 535
3 532 540 536
3 535 538 533
3 75 547 217
3 252 547 75
3 216 546 76
3 76 546 219
3 218 548 77
3 77 548 226
3 227 545 79
3 79 545 251
3 217 541 216
3 541 546 216
3 217 547 541
3 219 543 218
3 543 548 218
3 219 546 543
3 226 542 227
3 226 548 542
3 542 545 227
3 251 544 252
3 251 545 544
3 544 547 252
3 541 544 543
3 543 546 541
3 541 547 544
3 543 544 542
3 542 548 543
3 544 545 542
4 501 481 484 552
4 523 519 517 551
4 517 519 514 551
4 501 491 481 552
4 519 286 246 551
4 522 518 519 551
4 514 519 518 551
4 481 269 238 552
4 309 454 553 554
4 485 481 499 552
4 519 245 286 551
4 486 513 515 550
4 515 490 486 550
4 432 438 318 567
4 116 246 286 551
4 427 549 439 564
4 513 486 516 550
4 237 269 481 552
4 432 549 438 567
4 309 553 454 559
4 255 486 239 550
4 447 553 458 562
4 516 486 489 550
4 458 553 454 554
4 98 238 269 552
4 491 499 481 552
4 410 414 510 551
4 117 286 245 551
4 432 441 438 549
4 255 240 486 550
4 359 555 350 560
4 237 99 269 552
4 239 82 255 550
4 450 458 454 554
4 434 427 439 564
4 519 246 522 551
4 438 549 101 567
4 358 555 348 556
4 350 317 555 556
4 246 116 468 551
4 447 458 455 562
4 317 359 350 560
4 361 356 348 493
4 356 348 493 556
4 481 238 484 552
4 438 101 318 567
4 255 83 240 550
4 532 553 447 562
4 349 238 98 552
4 356 493 552 556
4 549 427 562 564
4 450 454 309 554
4 245 519 523 551
4 245 402 117 551
4 450 554 324 567
4 460 450 453 567
4 359 355 350 555
4 237 481 485 552
4 413 409 401 563
4 469 82 239 550
4 386 99 237 552
4 450 324 453 567
4 324 450 309 554
4 397 502 174 561
4 239 486 490 550
4 317 350 555 560
4 549 554 439 564
4 510 414 517 551
4 403 240 83 550
4 463 454 458 553
4 355 555 359 560
4 447 455 532 562
4 401 409 557 563
4 507 401 410 563
4 493 348 555 556
4 531 562 427 564
4 83 82 84 550
4 531 549 427 562
4 439 441 432 549
4 541 547 435 553
4 542 456 545 553
4 489 486 240 550
4 435 547 539 553
4 540 545 456 553
4 117 110 116 551
4 401 557 410 563
4 354 348 358 555
4 460 554 450 567
4 313 289 328 550
4 454 553 463 559
4 442 553 433 558
4 511 550 413 563
4 496 385 393 556
4 491 501 498 552
4 553 562 532 564
4 508 551 480 563
4 329 308 313 550
4 401 409 410 557
4 553 554 458 562
4 514 518 508 551
4 395 385 555 556
4 322 309 454 559
4 438 549 441 566
4 289 84 82 550
4 308 83 84 550
4 510 507 551 563
4 309 553 292 554
4 238 484 352 482
4 326 288 314 551
4 437 433 442 564
4 514 510 517 551
4 329 550 313 557
4 496 552 493 556
4 314 288 116 551
4 413 550 409 563
4 439 549 432 554
4 507 410 551 563
4 496 393 552 556
4 410 510 507 551
4 116 314 110 288
4 116 110 314 551
4 438 101 549 566
4 352 349 238 482
4 406 523 517 551
4 431 541 435 553
4 452 456 542 553
4 352 501 484 552
4 82 478 289 550
4 410 557 551 563
4 289 313 308 550
4 397 172 560 561
4 483 237 485 389
4 313 550 328 557
4 314 326 551 557
4 454 463 451 559
4 430 442 433 558
4 432 323 429 554
4 298 453 324 567
4 522 472 518 551
4 496 498 493 552
4 174 172 397 561
4 494 555 385 556
4 292 553 433 554
4 385 398 496 393
4 289 308 84 550
4 350 555 358 556
4 511 513 516 550
4 159 355 359 560
4 301 359 317 560
4 483 237 389 386
4 488 239 490 473
4 472 520 246 522
4 433 553 292 558
4 318 438 287 101
4 391 395 385 555
4 433 553 442 564
4 458 450 460 554
4 536 251 540 545
4 437 554 433 564
4 354 493 348 555
4 429 323 433 554
4 515 473 490 550
4 544 539 547 553
4 314 551 327 557
4 292 558 553 559
4 540 456 447 553
4 426 435 539 553
4 507 413 401 563
4 485 499 389 552
4 397 560 555 561
4 329 404 308 550
4 433 554 553 564
4 407 487 240 489
4 521 245 523 406
4 288 477 116 551
4 516 489 407 550
4 517 414 406 551
4 472 246 468 551
4 488 469 239 473
4 246 520 472 468
4 549 562 554 564
4 468 116 477 551
4 402 411 117 551
4 392 397 172 560
4 412 83 308 550
4 21 362 367 176
4 384 24 169 363
4 496 494 385 556
4 472 522 246 551
4 404 550 329 557
4 352 238 349 552
4 481 269 237 238
4 245 246 519 286
4 397 555 502 561
4 484 238 352 552
4 355 560 159 561
4 471 551 326 557
4 515 479 473 550
4 245 406 402 551
4 290 98 99 552
4 496 393 398 552
4 240 487 407 403
4 521 402 245 406
4 509 479 515 550
4 478 82 469 550
4 403 83 412 550
4 299 555 317 556
4 327 314 307 551
4 159 560 376 561
4 357 349 98 552
4 394 99 386 552
4 406 245 523 551
4 469 239 473 550
4 328 550 470 557
4 463 458 447 553
4 392 555 397 560
4 386 237 389 552
4 92 99 290 98
4 542 545 544 553
4 544 547 541 553
4 117 411 307 551
4 544 536 539 553
4 494 391 385 555
4 389 237 485 552
4 507 511 413 563
4 301 317 332 560
4 351 552 316 556
4 311 290 99 552
4 554 562 553 564
4 327 551 405 557
4 532 455 529 562
4 239 490 473 550
4 318 323 432 554
4 480 551 476 563
4 319 324 309 554
4 403 407 240 550
4 529 532 562 564
4 499 398 389 552
4 486 240 255 239
4 484 501 235 481
4 502 555 492 561
4 174 371 172 561
4 307 405 327 551
4 494 493 555 556
4 433 321 430 558
4 251 536 544 545
4 427 441 439 549
4 326 312 474 557
4 299 317 555 560
4 452 463 456 553
4 442 431 435 553
4 489 240 407 550
4 431 541 553 558
4 542 452 553 559
4 387 555 299 556
4 544 547 539 252
4 101 287 318 567
4 408 293 327 557
4 499 496 398 552
4 508 510 514 551
4 496 493 494 556
4 356 358 348 556
4 502 497 492 555
4 460 562 554 567
4 491 235 501 481
4 513 509 515 550
4 502 397 497 555
4 300 316 552 556
4 512 508 480 563
4 550 557 409 563
4 472 508 518 551
4 328 474 312 557
4 498 501 352 552
4 350 358 353 556
4 426 553 539 564
4 116 286 117 551
4 290 311 99 92
4 395 555 387 556
4 159 376 370 561
4 329 293 408 557
4 540 447 532 553
4 387 315 390 556
4 531 534 562 564
4 508 472 480 551
4 299 555 387 560
4 236 499 485 481
4 82 83 255 550
4 292 322 558 559
4 98 269 99 552
4 518 522 519 243
4 489 516 242 486
4 494 497 391 555
4 353 351 316 556
4 458 554 460 562
4 172 373 560 561
4 513 242 516 486
4 539 544 252 536
4 350 295 317 556
4 318 319 554 567
4 407 511 516 550
4 429 439 432 554
4 518 519 514 243
4 412 308 404 550
4 326 474 471 557
4 435 426 442 553
4 456 463 447 553
4 518 472 480 508
4 511 407 413 550
4 287 336 318 567
4 499 491 496 552
4 244 517 523 519
4 541 543 544 553
4 542 544 543 553
4 357 98 290 552
4 413 407 511 516
4 241 515 490 486
4 452 463 553 559
4 442 431 553 558
4 272 100 101 549
4 543 542 553 559
4 543 553 541 558
4 361 498 352 552
4 408 327 405 557
4 427 531 537 566
4 355 555 560 561
4 350 353 295 556
4 517 244 514 519
4 101 336 287 567
4 515 241 513 486
4 411 405 307 551
4 433 437 429 554
4 499 236 491 481
4 318 298 319 567
4 329 408 404 557
4 538 533 448 565
4 354 495 493 555
4 351 356 552 556
4 328 470 474 557
4 468 477 472 551
4 402 406 411 551
4 426 539 530 564
4 454 451 322 559
4 433 323 292 554
4 110 314 307 288
4 353 316 295 556
4 478 469 473 550
4 403 412 407 550
4 299 332 317 560
4 316 351 290 552
4 174 375 371 561
4 314 312 326 557
4 376 560 373 561
4 509 479 550 563
4 292 321 433 558
4 25 173 363 380
4 300 290 311 552
4 511 509 513 550
4 427 537 436 566
4 538 448 457 565
4 538 535 533 549
4 159 20 362 378
4 536 540 532 553
4 496 491 498 552
4 355 358 350 555
4 357 352 349 552
4 389 394 386 552
4 293 314 327 557
4 391 497 397 555
4 351 353 356 556
4 371 373 172 561
4 309 292 319 554
4 410 405 551 557
4 471 476 551 557
4 535 549 538 565
4 537 549 535 566
4 313 328 312 557
4 409 550 404 557
4 300 316 290 552
4 247 272 248 565
4 498 361 352 501
4 475 470 550 557
4 475 550 479 563
4 460 462 562 567
4 475 557 550 563
4 531 535 537 549
4 315 300 390 556
4 292 322 321 558
4 539 536 530 553
4 502 492 174 561
4 427 549 531 566
4 539 553 530 564
4 329 313 293 557
4 387 299 315 556
4 531 549 537 566
4 323 318 319 554
4 353 358 356 556
4 551 557 476 563
4 300 552 388 556
4 376 373 370 561
4 534 434 427 214
4 538 549 533 565
4 357 290 351 552
4 354 360 500 561
4 533 562 448 565
4 409 408 410 557
4 441 549 427 566
4 480 467 512 563
4 388 300 394 552
4 387 555 392 560
4 410 408 405 557
4 471 474 476 557
4 100 549 272 565
4 530 536 532 553
4 101 272 549 566
4 393 385 395 556
4 388 552 393 556
4 442 553 426 564
4 537 535 250 566
4 408 409 404 557
4 524 250 535 566
4 475 474 470 557
4 395 392 387 555
4 524 535 549 566
4 395 387 390 556
4 538 249 535 565
4 524 549 535 565
4 524 535 249 565
4 172 373 374 560
4 474 557 475 563
4 387 126 390 315
4 553 558 543 559
4 509 550 511 563
4 480 476 467 563
4 472 476 480 551
4 410 406 414 551
4 534 529 562 564
4 476 557 474 563
4 494 495 497 555
4 473 479 475 550
4 407 409 413 550
4 136 430 433 321
4 220 36 465 103
4 554 562 549 567
4 354 358 355 555
4 361 352 356 552
4 389 398 393 552
4 248 565 272 566
4 460 453 462 567
4 549 562 462 567
4 549 562 533 565
4 26 193 93 399
4 448 562 462 565
4 452 451 463 559
4 442 430 431 558
4 532 530 553 564
4 324 141 450 453
4 390 300 388 556
4 476 474 475 563
4 534 529 531 562
4 355 354 555 561
4 134 429 432 323
4 493 495 494 555
4 397 392 391 555
4 510 512 507 563
4 323 319 292 554
4 437 439 429 554
4 300 295 316 556
4 16 150 85 337
4 503 57 184 379
4 312 328 146 474
4 505 58 377 182
4 472 477 471 551
4 405 411 406 551
4 30 201 111 415
4 470 478 473 550
4 404 407 412 550
4 392 172 173 560
4 299 317 295 556
4 354 495 555 561
4 428 101 438 566
4 438 133 432 318
4 247 248 524 565
4 327 408 131 293
4 355 360 354 561
4 427 531 534 214
4 360 52 500 175
4 375 373 371 561
4 354 500 495 561
4 433 429 135 323
4 374 173 172 560
4 141 324 298 453
4 309 324 142 450
4 390 388 393 556
4 384 185 23 380
4 527 249 538 565
4 528 537 250 566
4 392 395 391 555
4 312 326 474 147
4 367 378 22 179
4 100 101 549 567
4 444 440 443 558
4 461 445 464 559
4 318 134 432 323
4 500 360 175 561
4 223 532 447 455
4 181 57 364 379
4 524 249 527 565
4 528 250 524 566
4 52 360 160 175
4 272 565 549 566
4 428 438 441 566
4 95 98 349 238
4 82 87 469 239
4 116 246 468 113
4 329 130 408 293
4 381 377 58 187
4 315 127 390 300
4 351 352 357 552
4 389 388 394 552
4 189 494 391 385
4 299 295 315 556
4 219 440 444 558
4 461 218 445 559
4 374 172 371 373
4 160 175 360 561
4 189 494 497 391
4 294 301 332 560
4 450 142 309 454
4 462 562 549 565
4 479 232 467 563
4 439 554 437 564
4 376 301 294 560
4 99 386 237 96
4 102 336 101 567
4 403 240 88 83
4 117 114 402 245
4 438 271 101 428
4 459 449 100 270
4 471 476 472 551
4 405 406 410 551
4 451 454 322 143
4 493 354 348 163
4 375 506 182 183
4 431 546 541 558
4 542 548 452 559
4 294 396 173 560
4 393 395 390 556
4 475 470 473 550
4 404 409 407 550
4 300 315 295 556
4 371 187 383 186
4 315 387 126 299
4 312 314 293 557
4 287 438 9 101
4 497 495 492 555
4 295 317 120 350
4 120 353 295 350
4 291 446 558 559
4 292 136 433 321
4 532 529 530 564
4 294 25 396 335
4 541 217 435 547
4 545 542 227 456
4 368 504 183 184
4 419 425 32 206
4 27 154 399 341
4 294 335 396 560
4 133 438 287 318
4 534 434 213 564
4 449 459 100 567
4 173 380 294 369
4 439 437 434 564
4 448 460 462 562
4 228 39 109 466
4 356 352 351 552
4 389 393 388 552
4 293 313 312 557
4 548 461 452 559
4 440 546 431 558
4 387 396 125 335
4 167 504 175 168
4 174 166 506 167
4 436 441 427 566
4 457 448 462 565
4 87 82 255 239
4 454 309 322 143
4 248 524 565 566
4 426 213 434 564
4 400 155 28 341
4 419 31 415 202
4 146 328 470 474
4 98 95 269 238
4 286 246 116 113
4 210 33 108 425
4 334 291 446 558
4 291 333 446 559
4 334 446 219 558
4 218 446 333 559
4 458 460 455 562
4 532 223 529 455
4 492 555 495 561
4 102 287 101 336
4 327 131 408 405
4 462 459 449 567
4 88 240 255 83
4 334 446 139 219
4 333 446 218 138
4 467 232 512 563
4 457 527 538 565
4 537 528 436 566
4 269 99 237 96
4 245 117 114 286
4 301 376 378 159
4 365 370 179 180
4 99 394 6 311
4 543 548 542 559
4 543 541 546 558
4 217 435 431 541
4 542 227 456 452
4 326 288 477 148
4 474 326 471 147
4 366 180 181 372
4 492 175 174 561
4 19 347 91 158
4 404 130 408 329
4 247 71 449 526
4 456 222 540 447
4 444 76 443 440
4 461 445 77 464
4 82 0 289 478
4 289 328 478 145
4 449 100 565 567
4 186 382 374 185
4 396 387 392 560
4 294 173 369 560
4 129 404 308 329
4 100 549 565 567
4 369 376 294 560
4 546 440 219 558
4 461 548 218 559
4 311 394 128 300
4 292 433 135 323
4 127 388 390 300
4 512 467 480 231
4 457 538 225 448
4 298 318 336 567
4 70 248 428 525
4 348 361 493 162
4 177 159 176 365
4 382 170 173 169
4 500 360 354 164
4 444 334 139 219
4 218 445 333 138
4 174 175 375 561
4 507 509 511 563
4 498 493 361 162
4 372 175 160 561
4 168 52 54 503
4 56 55 505 166
4 1 412 83 308
4 462 565 549 567
4 500 492 495 561
4 462 449 565 567
4 247 105 272 565
4 549 565 524 566
4 288 13 116 477
4 330 459 140 567
4 320 14 30 307
4 194 29 90 400
4 539 435 426 212
4 376 294 301 123
4 317 301 121 359
4 428 271 101 107
4 100 449 104 270
4 104 449 100 105
4 428 101 106 107
4 73 72 221 71
4 68 69 70 211
4 351 353 316 119
4 531 529 533 562
4 43 238 349 482
4 530 529 534 564
4 332 299 335 560
4 354 493 495 163
4 239 50 469 488
4 66 246 468 520
4 359 121 317 350
4 291 558 322 559
4 297 320 307 110
4 100 105 449 565
4 428 106 101 566
4 443 334 444 558
4 333 464 445 559
4 537 215 427 436
4 383 171 172 170
4 177 366 178 160
4 224 455 448 562
4 321 322 291 558
4 502 188 497 397
4 29 331 257 306
4 534 213 530 564
4 268 97 386 99
4 94 349 98 267
4 106 248 272 566
4 372 160 370 561
4 394 268 386 99
4 267 349 98 357
4 98 95 349 94
4 97 386 99 96
4 100 272 105 565
4 479 509 232 563
4 403 89 254 83
4 284 117 115 402
4 82 469 86 253
4 116 112 468 285
4 334 219 444 558
4 333 445 218 559
4 106 272 101 566
4 468 112 116 113
4 87 82 469 86
4 89 403 88 83
4 115 117 114 402
4 529 455 224 562
4 381 58 377 505
4 295 316 353 119
4 2 253 150 85
4 268 7 93 193
4 284 15 111 201
4 437 442 426 564
4 369 373 376 560
4 426 530 213 564
4 459 453 140 567
4 254 412 403 83
4 117 284 411 402
4 285 468 116 477
4 469 82 478 253
4 512 480 508 231
4 237 44 386 483
4 270 10 103 220
4 538 527 457 78
4 74 537 528 436
4 140 298 330 567
4 49 240 403 487
4 245 67 402 521
4 381 55 56 171
4 178 54 52 364
4 139 291 446 334
4 291 446 333 138
4 307 14 411 117
4 216 440 546 431
4 452 226 461 548
4 361 498 161 501
4 471 326 477 148
4 539 547 435 75
4 79 540 545 456
4 369 374 373 560
4 161 352 361 501
4 526 449 247 565
4 93 261 26 304
4 100 8 459 270
4 438 271 9 101
4 473 515 233 479
4 271 438 210 428
4 459 220 449 270
4 406 517 196 414
4 137 334 443 558
4 490 515 80 473
4 523 517 61 406
4 330 8 459 567
4 100 102 101 567
4 472 522 518 81
4 489 407 60 516
4 140 453 298 567
4 394 388 128 300
4 401 413 507 198
4 467 476 475 563
4 53 352 501 484
4 49 47 48 195
4 50 51 40 229
4 62 63 67 200
4 64 65 66 234
4 59 485 499 389
4 449 105 247 565
4 248 428 525 566
4 330 100 8 567
4 90 261 304 257
4 532 540 222 447
4 430 137 443 558
4 98 290 5 357
4 372 370 373 561
4 413 511 507 198
4 404 412 129 308
4 391 497 188 397
4 398 191 499 389
4 457 221 526 449
4 211 525 428 436
4 464 333 144 559
4 320 287 102 310
4 440 431 430 558
4 461 451 452 559
4 413 407 516 199
4 480 472 518 230
4 376 369 294 123
4 175 368 372 379
4 428 248 106 566
4 301 122 20 378
4 509 512 232 563
4 368 375 175 561
4 44 45 46 192
4 43 41 42 165
4 192 483 485 389
4 482 484 352 165
4 517 510 196 414
4 224 448 533 562
4 235 491 236 481
4 464 144 451 559
4 328 470 478 145
4 277 303 8 103
4 299 387 125 335
4 368 175 372 561
4 533 225 538 448
4 294 380 25 124
4 509 507 512 563
4 100 459 8 567
4 339 87 50 263
4 376 122 301 378
4 416 71 280 105
4 283 67 114 417
4 266 338 44 96
4 527 538 249 78
4 537 250 74 528
4 495 500 354 164
4 546 216 431 541
4 226 452 542 548
4 160 360 355 561
4 66 113 416 280
4 70 106 417 283
4 49 88 338 266
4 530 539 426 212
4 247 71 105 449
4 401 414 197 507
4 487 407 195 489
4 490 488 473 229
4 523 521 406 200
4 520 472 234 522
4 263 95 43 339
4 526 221 457 527
4 528 525 211 436
4 71 449 104 105
4 428 106 70 107
4 533 529 224 562
4 304 29 90 257
4 475 479 467 563
4 364 57 503 379
4 519 244 514 243
4 257 304 29 306
4 134 432 133 318
4 267 4 158 91
4 12 285 109 228
4 3 254 90 194
4 70 248 106 428
4 11 271 108 210
4 106 247 281 105
4 88 239 264 87
4 140 141 298 453
4 427 531 215 537
4 457 449 526 565
4 525 428 436 566
4 529 223 224 455
4 100 8 102 330
4 462 453 459 567
4 242 513 241 486
4 480 518 508 230
4 455 460 448 562
4 414 510 197 507
4 392 173 396 560
4 516 511 413 199
4 294 332 335 560
4 368 373 375 561
4 307 297 110 288
4 362 378 20 367
4 303 36 8 103
4 43 238 95 349
4 434 534 213 214
4 363 384 25 380
4 239 50 87 469
4 66 246 113 468
4 544 252 536 251
4 540 79 222 456
4 263 87 50 86
4 172 187 171 383
4 192 483 389 386
4 482 352 349 165
4 26 261 93 306
4 527 457 526 565
4 525 436 528 566
4 515 509 233 479
4 349 95 43 94
4 386 97 44 96
4 247 106 281 248
4 239 88 264 240
4 325 306 311 92
4 457 538 78 225
4 474 146 312 147
4 426 434 437 564
4 130 131 408 293
4 469 50 87 86
4 112 468 66 113
4 49 89 403 88
4 115 114 67 402
4 114 113 281 245
4 96 95 264 237
4 267 98 5 357
4 268 394 6 99
4 124 294 380 369
4 128 6 394 311
4 369 173 374 560
4 473 80 490 229
4 60 195 407 489
4 406 61 523 200
4 522 472 234 81
4 280 71 104 105
4 280 112 66 113
4 283 114 67 115
4 106 283 70 107
4 266 44 97 96
4 266 89 49 88
4 237 44 96 386
4 497 188 189 391
4 0 289 478 145
4 33 108 302 273
4 49 240 88 403
4 245 67 114 402
4 276 307 320 110
4 237 95 264 238
4 245 113 281 246
4 478 82 0 253
4 285 116 13 477
4 284 411 14 117
4 412 254 1 83
4 485 59 192 389
4 53 352 484 165
4 515 233 80 473
4 443 440 430 558
4 451 461 464 559
4 517 196 61 406
4 390 126 127 315
4 263 43 95 94
4 377 174 375 371
4 492 500 175 561
4 516 407 60 199
4 81 518 472 230
4 39 13 297 288
4 308 1 29 331
4 331 1 29 257
4 454 142 309 143
4 547 217 435 75
4 79 545 227 456
4 324 141 142 450
4 212 539 435 75
4 540 251 79 545
4 547 539 252 75
4 191 59 499 389
4 26 6 311 306
4 53 352 161 501
4 296 0 16 289
4 121 120 317 350
4 537 74 215 436
4 193 394 268 386
4 349 267 158 357
4 512 232 467 231
4 449 73 221 71
4 70 428 68 211
4 212 426 530 213
4 446 291 139 138
4 261 304 257 306
4 333 445 35 138
4 334 139 34 444
4 473 488 469 229
4 195 407 487 403
4 234 472 520 468
4 406 521 402 200
4 535 250 524 249
4 430 136 137 321
4 247 524 527 565
4 531 427 215 214
4 36 330 459 140
4 373 368 372 561
4 334 34 443 444
4 333 35 445 464
4 9 133 438 287
4 219 543 546 558
4 218 548 543 559
4 330 8 36 459
4 194 254 412 403
4 284 201 411 402
4 253 478 469 150
4 468 285 228 477
4 220 104 449 270
4 428 210 271 107
4 496 191 499 398
4 136 433 135 292
4 128 26 6 311
4 528 524 248 566
4 296 256 305 260
4 301 122 376 123
4 112 12 228 285
4 86 2 253 150
4 94 4 158 267
4 3 254 194 89
4 284 15 201 115
4 7 97 193 268
4 74 528 211 436
4 527 221 457 78
4 197 196 510 414
4 297 276 320 110
4 104 10 270 220
4 11 107 271 210
4 354 495 164 163
4 415 15 31 419
4 400 28 3 341
4 289 0 16 145
4 307 320 14 276
4 411 132 14 307
4 499 485 59 236
4 121 301 20 359
4 322 451 143 144
4 412 1 129 308
4 382 170 374 173
4 177 370 159 365
4 320 297 310 275
4 247 106 272 105
4 239 88 255 87
4 399 7 27 341
4 425 32 11 419
4 66 64 234 468
4 50 40 469 229
4 402 67 63 200
4 195 49 47 403
4 303 274 39 109
4 419 415 15 202
4 3 155 400 341
4 201 202 63 115
4 193 154 46 97
4 194 47 155 89
4 112 64 228 203
4 158 94 41 151
4 40 86 150 149
4 305 256 19 91
4 298 336 330 567
4 68 206 210 107
4 73 104 220 209
4 56 188 502 397
4 462 449 457 565
4 441 436 428 566
4 60 489 516 242
4 243 518 522 81
4 217 431 216 541
4 542 227 452 226
4 366 181 178 372
4 477 288 13 148
4 256 19 325 305
4 22 20 378 367
4 170 186 382 374
4 120 295 353 119
4 96 95 237 269
4 114 113 245 286
4 365 177 370 180
4 187 172 371 383
4 325 296 256 305
4 384 23 25 380
4 349 41 43 165
4 192 46 44 386
4 288 39 13 148
4 399 154 7 341
4 419 11 425 206
4 320 33 302 273
4 357 290 5 118
4 532 222 223 447
4 167 174 175 183
4 94 349 267 158
4 97 193 268 386
4 308 83 1 84
4 5 19 357 118
4 33 9 133 438
4 134 135 429 323
4 247 106 248 272
4 239 88 240 255
4 387 125 126 299
4 237 95 238 269
4 245 113 246 286
4 52 360 500 164
4 253 469 86 150
4 285 112 468 228
4 254 194 89 403
4 201 284 115 402
4 336 102 287 310
4 404 129 130 329
4 501 235 53 484
4 533 224 225 448
4 127 128 388 300
4 19 5 290 118
4 326 471 147 148
4 174 375 175 183
4 115 63 201 402
4 89 194 47 403
4 112 64 468 228
4 469 40 86 150
4 449 221 526 71
4 428 70 525 211
4 61 244 517 523
4 128 6 26 394
4 160 178 52 379
4 80 241 515 490
4 477 13 39 148
4 46 193 97 386
4 94 41 349 158
4 19 5 325 290
4 110 13 116 288
4 443 137 34 334
4 145 328 470 146
4 275 274 303 277
4 118 351 316 119
4 419 31 32 302
4 478 16 0 145
4 320 287 273 102
4 381 377 56 505
4 274 39 297 303
4 526 247 527 565
4 334 321 291 558
4 132 131 327 405
4 304 261 26 306
4 440 546 76 216
4 226 461 548 77
4 125 396 25 335
4 419 15 31 302
4 32 11 419 302
4 187 377 172 171
4 36 10 37 465
4 297 310 275 303
4 509 232 233 479
4 333 35 464 144
4 494 189 190 385
4 162 493 348 163
4 331 259 306 258
4 129 1 29 308
4 93 6 26 306
4 160 366 178 372
4 231 480 508 230
4 377 56 172 171
4 248 525 528 566
4 132 30 14 307
4 14 30 132 411
4 68 210 428 107
4 73 104 449 220
4 11 15 419 302
4 38 39 12 303
4 361 498 162 161
4 9 33 133 287
4 333 291 322 559
4 310 8 36 330
4 511 413 199 198
4 38 12 39 466
4 296 16 0 85
4 64 112 422 203
4 344 41 94 151
4 89 47 155 342
4 68 420 206 107
4 97 154 46 342
4 86 40 344 149
4 104 73 422 209
4 420 63 202 115
4 102 8 310 330
4 496 190 191 398
4 367 362 378 179
4 185 384 363 380
4 17 16 2 337
4 29 1 129 412
4 38 37 12 421
4 297 275 110 274
4 296 331 306 258
4 488 50 469 229
4 520 66 234 468
4 67 402 521 200
4 487 49 195 403
4 303 8 310 277
4 257 259 331 84
4 290 325 311 92
4 260 296 0 85
4 77 445 35 464
4 76 443 34 444
4 364 503 52 379
4 108 278 302 273
4 297 320 276 275
4 256 325 92 258
4 178 160 372 379
4 92 290 5 98
4 375 368 175 183
4 168 184 175 379
4 10 12 37 421
4 274 13 39 109
4 174 506 182 375
4 380 23 25 124
4 102 320 310 275
4 181 178 372 379
4 369 124 294 123
4 19 18 4 347
4 482 349 43 165
4 483 192 44 386
4 91 305 256 260
4 122 22 20 378
4 93 261 6 306
4 310 36 8 303
4 30 31 15 302
4 504 175 368 183
4 331 259 258 84
4 380 173 374 369
4 507 197 401 198
4 108 33 9 273
4 383 172 371 186
4 375 174 506 183
4 92 325 259 258
4 5 19 256 91
4 274 297 275 303
4 331 308 1 84
4 37 10 36 303
4 9 271 438 210
4 459 8 220 270
4 253 85 0 150
4 284 14 201 111
4 6 193 268 93
4 289 84 0 82
4 11 32 33 302
4 168 175 52 379
4 166 182 377 174
4 320 102 276 275
4 8 103 220 270
4 172 371 377 187
4 376 378 159 370
4 102 273 320 276
4 310 336 102 330
4 182 166 506 174
4 175 504 184 168
4 368 175 504 184
4 209 422 279 203
4 297 13 39 274
4 27 26 7 399
4 206 202 282 420
4 155 154 265 342
4 344 262 149 151
4 177 159 370 160
4 310 275 303 277
4 84 331 308 289
4 374 170 172 173
4 175 504 167 183
4 167 506 174 183
4 276 297 275 110
4 325 259 306 92
4 84 296 331 289
4 276 14 307 110
4 166 377 56 174
4 32 11 33 425
4 12 37 38 303
4 90 29 1 257
4 30 15 31 415
4 273 287 9 102
4 37 12 10 303
4 368 175 184 379
4 186 170 172 374
4 180 177 370 160
4 279 104 422 209
4 422 112 279 203
4 420 202 282 115
4 86 344 262 149
4 97 265 154 342
4 155 265 89 342
4 262 344 94 151
4 282 206 420 107
4 6 193 394 268
4 158 267 5 357
4 30 15 111 302
4 174 182 377 375
4 256 19 5 325
4 503 184 52 379
4 275 310 8 277
4 364 52 181 379
4 179 159 370 365
4 110 297 13 288
4 153 157 340 264
4 418 205 208 281
4 156 340 264 152
4 204 418 207 281
4 345 263 43 339
4 173 374 382 185
4 285 13 109 228
4 267 5 91 158
4 254 194 1 90
4 279 209 203 421
4 423 66 416 280
4 70 424 283 417
4 346 49 338 266
4 149 262 343 151
4 419 206 202 282
4 265 154 155 341
4 102 287 9 101
4 9 271 210 108
4 186 172 371 374
4 505 377 56 182
4 117 307 14 110
4 182 56 505 166
4 168 184 52 503
4 29 28 3 400
4 71 423 416 280
4 338 44 346 266
4 67 283 424 417
4 96 266 338 88
4 283 114 106 417
4 52 181 178 364
4 105 280 416 113
4 274 303 277 109
4 87 339 95 263
4 1 194 254 412
4 201 411 14 284
4 228 285 13 477
4 253 0 478 150
4 345 50 263 339
4 311 6 99 92
4 56 377 381 187
4 187 381 56 171
4 180 366 160 372
4 202 15 419 282
4 262 343 2 149
4 265 155 3 341
4 203 12 279 421
4 209 279 10 421
4 362 367 176 179
4 384 169 185 363
4 206 419 11 282
4 7 154 265 341
4 262 4 343 151
4 29 3 28 304
4 12 10 279 421
4 257 331 1 84
4 27 7 26 304
4 303 39 12 109
4 15 11 419 282
4 265 3 7 341
4 343 2 4 262
4 325 5 256 92
4 10 36 103 465
4 17 2 16 305
4 28 27 304 341
4 160 370 180 372
4 320 278 14 276
4 0 296 84 289
4 173 185 363 380
4 179 362 378 159
4 381 56 55 505
4 503 52 54 364
4 362 20 21 367
4 25 24 384 363
4 290 5 325 92
4 503 54 57 364
4 111 15 278 302
4 311 6 259 306
4 3 90 261 304
4 311 259 6 92
4 381 55 58 505
4 17 18 343 305
4 93 7 26 399
4 303 10 36 103
4 320 302 278 273
4 259 311 306 92
4 331 259 257 306
4 337 16 2 85
4 278 11 108 302
4 26 7 93 304
4 110 13 297 274
4 4 18 19 305
4 153 96 88 264
4 208 114 106 281
4 264 95 87 152
4 204 105 113 281
4 11 33 108 302
4 179 176 362 159
4 173 185 169 363
4 304 3 28 341
4 343 2 17 305
4 30 15 415 111
4 201 415 15 111
4 93 193 7 399
4 2 337 85 150
4 2 16 305 85
4 343 18 4 305
4 56 377 187 171
4 220 10 103 465
4 178 181 52 379
4 90 3 29 304
4 157 153 88 264
4 208 205 114 281
4 182 377 56 166
4 156 264 87 152
4 105 204 207 281
4 68 428 70 107
4 104 73 449 71
4 159 378 179 370
4 304 27 7 341
4 52 184 168 379
4 96 338 153 88
4 208 106 114 417
4 87 339 152 95
4 416 204 105 113
4 102 8 275 310
4 185 173 374 380
4 423 104 112 280
4 283 424 107 115
4 97 89 346 266
4 94 263 345 86
4 93 7 261 304
4 25 24 23 384
4 20 22 21 367
4 2 337 150 149
4 203 228 12 466
4 158 347 4 151
4 0 296 258 84
4 157 153 338 88
4 208 114 205 417
4 209 10 220 465
4 339 87 152 156
4 204 207 416 105
4 277 303 12 109
4 109 39 12 466
4 180 366 177 160
4 172 383 170 186
4 256 296 258 260
4 3 155 194 400
4 193 154 7 399
4 202 415 15 201
4 425 11 33 108
4 11 425 206 210
4 258 296 331 84
4 347 4 19 91
4 260 2 305 85
4 343 4 2 305
4 3 194 90 400
4 159 179 176 365
4 382 173 185 169
4 11 425 210 108
4 258 296 0 260
4 228 109 12 466
4 91 347 4 158
4 259 6 261 306
4 304 7 3 341
4 112 104 422 279
4 344 94 86 262
4 265 97 89 342
4 107 420 282 115
4 4 305 91 260
4 278 15 11 302
4 43 263 345 94
4 90 29 3 400
4 423 112 66 280
4 346 89 49 266
4 283 424 70 107
4 71 104 423 280
4 424 283 67 115
4 346 44 97 266
4 349 43 41 94
4 97 44 46 386
4 345 263 50 86
4 40 50 469 86
4 89 47 49 403
4 66 64 468 112
4 67 63 115 402
4 10 303 277 103
4 305 19 4 91
4 346 89 97 342
4 94 345 344 86
4 422 104 112 423
4 107 424 420 115
4 256 296 325 258
4 7 3 261 304
4 152 264 95 238
4 246 204 113 281
4 12 10 303 277
4 105 207 247 281
4 87 264 156 239
4 153 237 96 264
4 245 114 205 281
4 257 259 261 306
4 248 208 106 281
4 88 240 157 264
4 278 320 273 276
4 305 4 2 260
4 48 89 346 342
4 345 344 42 94
4 112 65 422 423
4 69 424 420 107
4 420 62 63 115
4 73 72 104 422
4 51 40 344 86
4 46 45 97 342
4 420 424 62 115
4 346 97 45 342
4 422 72 104 423
4 345 51 344 86
4 48 47 89 342
4 41 42 344 94
4 112 65 64 422
4 68 69 420 107
4 89 49 48 346
4 66 65 112 423
4 345 42 43 94
4 69 70 424 107
4 424 67 62 115
4 345 50 51 86
4 423 72 104 71
4 97 45 44 346
4 46 45 44 97
4 48 47 49 89
4 42 41 43 94
4 40 51 50 86
4 70 69 68 107
4 67 63 62 115
4 104 72 73 71
4 66 65 64 112
4 552 361 493 356
4 552 493 361 498
4 414 507 410 510
4 410 507 414 401
4 567 432 554 318
4 567 554 432 549
4 559 309 292 322
4 559 292 309 553
4 563 508 510 512
4 563 510 508 551
4 545 536 553 540
4 545 553 536 544
4 551 307 110 314
4 551 110 307 117
4 397 174 56 172
4 397 56 174 502
4 311 552 394 300
4 394 552 311 99
4 328 478 550 289
4 550 478 328 470
4 405 307 132 411
4 405 132 307 327
4 567 319 324 298
4 567 324 319 554
4 151 18 4 343
4 151 4 18 347
4 37 209 10 421
4 37 10 209 465
4 203 38 12 421
4 203 12 38 466
4 149 17 2 337
4 149 2 17 343
4 549 533 531 535
4 549 531 533 562
4 218 559 558 446
4 558 559 218 543
4 558 219 218 446
4 218 219 558 543
4 301 159 560 376
4 560 159 301 359
4 534 427 564 531
4 534 564 427 434
4 71 207 105 416
4 71 105 207 247
4 50 156 87 339
4 50 87 156 239
4 160 159 561 355
4 160 561 159 370
4 67 205 114 417
4 67 114 205 245
4 153 44 96 237
4 153 96 44 338
4 66 204 113 246
4 66 113 204 416
4 43 152 95 238
4 43 95 152 339
4 49 157 88 240
4 49 88 157 338
4 70 208 106 248
4 70 106 208 417
4 387 335 560 396
4 560 335 387 299
4 173 25 294 380
4 173 294 25 396
4 20 159 301 378
4 20 301 159 359
4 36 220 8 103
4 36 8 220 459
4 204 245 281 246
4 152 237 264 238
4 207 281 248 247
4 156 264 240 239
4 326 477 551 471
4 551 477 326 288
4 204 205 281 245
4 204 281 205 418
4 208 207 281 248
4 208 281 207 418
4 157 156 264 240
4 157 264 156 340
4 152 153 264 237
4 152 264 153 340
4 351 290 118 316
4 351 118 290 357
4 385 496 190 494
4 385 190 496 398
4 30 14 302 111
4 30 302 14 320
4 278 302 14 111
4 278 14 302 320
4 558 137 321 430
4 558 321 137 334
4 273 33 287 320
4 273 287 33 9
4 144 559 322 451
4 322 559 144 333
4 76 219 440 444
4 440 219 76 546
4 218 77 461 445
4 461 77 218 548
4 305 85 296 260
4 296 85 305 16
4 33 210 9 438
4 33 9 210 108
4 193 26 6 394
4 193 6 26 93
4 150 16 0 478
4 150 0 16 85
4 567 102 330 100
4 567 330 102 336
4 201 30 14 411
4 201 14 30 111
4 172 377 174 56
4 172 174 377 371
4 39 228 13 477
4 39 13 228 109
4 158 19 5 91
4 5 19 158 357
4 29 194 1 412
4 29 1 194 90
4 306 258 325 296
4 325 258 306 259
4 160 379 175 372
4 175 379 160 52
4 89 3 155 194
4 89 155 3 265
4 115 15 202 282
4 115 202 15 201
4 107 11 206 210
4 107 206 11 282
4 10 104 209 220
4 10 209 104 279
4 97 7 154 265
4 97 154 7 193
4 4 94 151 262
4 4 151 94 158
4 2 86 149 150
4 2 149 86 262
4 12 112 203 279
4 12 203 112 228

CELL_TYPES 3128
1
1
1
1
1
1
1
1
1
1
1
1
1
1
1
1
1
1
1
1
1
1
1
1
1
1
1
1
1
1
1
1
1
1
1
1
1
1
1
1
1
1
1
1
1
1
1
1
1
1
1
1
1
1
1
1
1
1
1
1
1
1
1
1
1
1
1
1
1
1
1
1
1
1
1
1
1
1
1
1
1
1
3
3
3
3
3
3
3
3
3
3
3
3
3
3
3
3
3
3
3
3
3
3
3
3
3
3
3
3
3
3
3
3
3
3
3
3
3
3
3
3
3
3
3
3
3
3
3
3
3
3
3
3
3
3
3
3
3
3
3
3
3
3
3
3
3
3
3
3
3
3
3
3
3
3
3
3
3
3
3
3
3
3
3
3
3
3
3
3
3
3
3
3
3
3
3
3
3
3
3
3
3
3
3
3
3
3
3
3
3
3
3
3
3
3
3
3
3
3
3
3
3
3
3
3
3
3
3
3
3
3
3
3
3
3
3
3
3
3
3
3
3
3
3
3
3
3
3
3
3
3
3
3
3
3
3
3
3
3
3
3
3
3
3
3
3
3
3
3
3
3
3
3
3
3
3
3
3
3
3
3
3
3
3
3
3
3
3
3
3
3
3
3
3
3
3
3
3
3
3
3
3
3
3
3
3
3
3
3
3
3
3
3
3
3
3
3
3
3
3
3
3
3
3
3
3
3
3
3
3
3
3
3
3
3
3
3
3
3
3
3
3
3
3
3
3
3
3
3
3
3
3
3
3
3
3
3
3
3
3
3
3
3
3
3
3
3
3
3
3
3
3
3
3
3
3
3
3
3
3
3
3
3
3
3
3
3
3
3
3
3
3
3
3
3
5
5
5
5
5
5
5
5
5
5
5
5
5
5
5
5
5
5
5
5
5
5
5
5
5
5
5
5
5
5
5
5
5
5
5
5
5
5
5
5
5
5
5
5
5
5
5
5
5
5
5
5
5
5
5
5
5
5
5
5
5
5
5
5
5
5
5
5
5
5
5
5
5
5
5
5
5
5
5
5
5
5
5
5
5
5
5
5
5
5
5
5
5
5
5
5
5
5
5
5
5
5
5
5
5
5
5
5
5
5
5
5
5
5
5
5
5
5
5
5
5
5
5
5
5
5
5
5
5
5
5
5
5
5
5
5
5
5
5
5
5
5
5
5
5
5
5
5
5
5
5
5
5
5
5
5
5
5
5
5
5
5
5
5
5
5
5
5
5
5
5
5
5
5
5
5
5
5
5
5
5
5
5
5
5
5
5
5
5
5
5
5
5
5
5
5
5
5
5
5
5
5
5
5
5
5
5
5
5
5
5
5
5
5
5
5
5
5
5
5
5
5
5
5
5
5
5
5
5
5
5
5
5
5
5
5
5
5
5
5
5
5
5
5
5
5
5
5
5
5
5
5
5
5
5
5
5
5
5
5
5
5
5
5
5
5
5
5
5
5
5
5
5
5
5
5
5
5
5
5
5
5
5
5
5
5
5
5
5
5
5
5
5
5
5
5
5
5
5
5
5
5
5
5
5
5
5
5
5
5
5
5
5
5
5
5
5
5
5
5
5
5
5
5
5
5
5
5
5
5
5
5
5
5
5
5
5
5
5
5
5
5
5
5
5
5
5
5
5
5
5
5
5
5
5
5
5
5
5
5
5
5
5
5
5
5
5
5
5
5
5
5
5
5
5
5
5
5
5
5
5
5
5
5
5
5
5
5
5
5
5
5
5
5
5
5
5
5
5
5
5
5
5
5
5
5
5
5
5
5
5
5
5
5
5
5
5
5
5
5
5
5
5
5
5
5
5
5
5
5
5
5
5
5
5
5
5
5
5
5
5
5
5
5
5
5
5
5
5
5
5
5
5
5
5
5
5
5
5
5
5
5
5
5
5
5
5
5
5
5
5
5
5
5
5
5
5
5
5
5
5
5
5
5
5
5
5
5
5
5
5
5
5
5
5
5
5
5
5
5
5
5
5
5
5
5
5
5
5
5
5
5
5
5
5
5
5
5
5
5
5
5
5
5
5
5
5
5
5
5
5
5
5
5
5
5
5
5
5
5
5
5
5
5
5
5
5
5
5
5
5
5
5
5
5
5
5
5
5
5
5
5
5
5
5
5
5
5
5
5
5
5
5
5
5
5
5
5
5
5
5
5
5
5
5
5
5
5
5
5
5
5
5
5
5
5
5
5
5
5
5
5
5
5
5
5
5
5
5
5
5
5
5
5
5
5
5
5
5
5
5
5
5
5
5
5
5
5
5
5
5
5
5
5
5
5
5
5
5
5
5
5
5
5
5
5
5
5
5
5
5
5
5
5
5
5
5
5
5
5
5
5
5
5
5
5
5
5
5
5
5
5
5
5
5
5
5
5
5
5
5
5
5
5
5
5
5
5
5
5
5
5
5
5
5
5
5
5
5
5
5
5
5
5
5
5
5
5
5
5
5
5
5
5
5
5
5
5
5
5
5
5
5
5
5
5
5
5
5
5
5
5
5
5
5
5
5
5
5
5
5
5
5
5
5
5
5
5
5
5
5
5
5
5
5
5
5
5
5
5
5
5
5
5
5
5
5
5
5
5
5
5
5
5
5
5
5
5
5
5
5
5
5
5
5
5
5
5
5
5
5
5
5
5
5
5
5
5
5
5
5
5
5
5
5
5
5
5
5
5
5
5
5
5
5
5
5
5
5
5
5
5
5
5
5
5
5
5
5
5
5
5
5
5
5
5
5
5
5
5
5
5
5
5
5
5
5
5
5
5
5
5
5
5
5
5
5
5
5
5
5
5
5
5
5
5
5
5
5
5
5
5
5
5
5
5
5
5
5
5
5
5
5
5
5
5
5
5
5
5
5
5
5
5
5
5
5
5
5
5
5
5
5
5
5
5
5
5
5
5
5
5
5
5
5
5
5
5
5
5
5
5
5
5
5
5
5
5
5
5
5
5
5
5
5
5
5
5
5
5
5
5
5
5
5
5
5
5
5
5
5
5
5
5
5
5
5
5
5
5
5
5
5
5
5
5
5
5
5
5
5
5
5
5
5
5
5
5
5
5
5
5
5
5
5
5
5
5
5
5
5
5
5
5
5
5
5
5
5
5
5
5
5
5
5
5
5
5
5
5
5
5
5
5
5
5
5
5
5
5
5
5
5
5
5
5
5
5
5
5
5
5
5
5
5
5
5
5
5
5
5
5
5
5
5
5
5
5
5
5
5
5
5
5
5
5
5
5
5
5
5
5
5
5
5
5
5
5
5
5
5
5
5
5
5
5
5
5
5
5
5
5
5
5
5
5
10
10
10
10
10
10
10
10
10
10
10
10
10
10
10
10
10
10
10
10
10
10
10
10
10
10
10
10
10
10
10
10
10
10
10
10
10
10
10
10
10
10
10
10
10
10
10
10
10
10
10
10
10
10
10
10
10
10
10
10
10
10
10
10
10
10
10
10
10
10
10
10
10
10
10
10
10
10
10
10
10
10
10
10
10
10
10
10
10
10
10
10
10
10
10
10
10
10
10
10
10
10
10
10
10
10
10
10
10
10
10
10
10
10
10
10
10
10
10
10
10
10
10
10
10
10
10
10
10
10
10
10
10
10
10
10
10
10
10
10
10
10
10
10
10
10
10
10
10
10
10
10
10
10
10
10
10
10
10
10
10
10
10
10
10
10
10
10
10
10
10
10
10
10
10
10
10
10
10
10
10
10
10
10
10
10
10
10
10
10
10
10
10
10
10
10
10
10
10
10
10
10
10
10
10
10
10
10
10
10
10
10
10
10
10
10
10
10
10
10
10
10
10
10
10
10
10
10
10
10
10
10
10
10
10
10
10
10
10
10
10
10
10
10
10
10
10
10
10
10
10
10
10
10
10
10
10
10
10
10
10
10
10
10
10
10
10
10
10
10
10
10
10
10
10
10
10
10
10
10
10
10
10
10
10
10
10
10
10
10
10
10
10
10
10
10
10
10
10
10
10
10
10
10
10
10
10
10
10
10
10
10
10
10
10
10
10
10
10
10
10
10
10
10
10
10
10
10
10
10
10
10
10
10
10
10
10
10
10
10
10
10
10
10
10
10
10
10
10
10
10
10
10
10
10
10
10
10
10
10
10
10
10
10
10
10
10
10
10
10
10
10
10
10
10
10
10
10
10
10
10
10
10
10
10
10
10
10
10
10
10
10
10
10
10
10
10
10
10
10
10
10
10
10
10
10
10
10
10
10
10
10
10
10
10
10
10
10
10
10
10
10
10
10
10
10
10
10
10
10
10
10
10
10
10
10
10
10
10
10
10
10
10
10
10
10
10
10
10
10
10
10
10
10
10
10
10
10
10
10
10
10
10
10
10
10
10
10
10
10
10
10
10
10
10
10
10
10
10
10
10
10
10
10
10
10
10
10
10
10
10
10
10
10
10
10
10
10
10
10
10
10
10
10
10
10
10
10
10
10
10
10
10
10
10
10
10
10
10
10
10
10
10
10
10
10
10
10
10
10
10
10
10
10
10
10
10
10
10
10
10
10
10
10
10
10
10
10
10
10
10
10
10
10
10
10
10
10
10
10
10
10
10
10
10
10
10
10
10
10
10
10
10
10
10
10
10
10
10
10
10
10
10
10
10
10
10
10
10
10
10
10
10
10
10
10
10
10
10
10
10
10
10
10
10
10
10
10
10
10
10
10
10
10
10
10
10
10
10
10
10
10
10
10
10
10
10
10
10
10
10
10
10
10
10
10
10
10
10
10
10
10
10
10
10
10
10
10
10
10
10
10
10
10
10
10
10
10
10
10
10
10
10
10
10
10
10
10
10
10
10
10
10
10
10
10
10
10
10
10
10
10
10
10
10
10
10
10
10
10
10
10
10
10
10
10
10
10
10
10
10
10
10
10
10
10
10
10
10
10
10
10
10
10
10
10
10
10
10
10
10
10
10
10
10
10
10
10
10
10
10
10
10
10
10
10
10
10
10
10
10
10
10
10
10
10
10
10
10
10
10
10
10
10
10
10
10
10
10
10
10
10
10
10
10
10
10
10
10
10
10
10
10
10
10
10
10
10
10
10
10
10
10
10
10
10
10
10
10
10
10
10
10
10
10
10
10
10
10
10
10
10
10
10
10
10
10
10
10
10
10
10
10
10
10
10
10
10
10
10
10
10
10
10
10
10
10
10
10
10
10
10
10
10
10
10
10
10
10
10
10
10
10
10
10
10
10
10
10
10
10
10
10
10
10
10
10
10
10
10
10
10
10
10
10
10
10
10
10
10
10
10
10
10
10
10
10
10
10
10
10
10
10
10
10
10
10
10
10
10
10
10
10
10
10
10
10
10
10
10
10
10
10
10
10
10
10
10
10
10
10
10
10
10
10
10
10
10
10
10
10
10
10
10
10
10
10
10
10
10
10
10
10
10
10
10
10
10
10
10
10
10
10
10
10
10
10
10
10
10
10
10
10
10
10
10
10
10
10
10
10
10
10
10
10
10
10
10
10
10
10
10
10
10
10
10
10
10
10
10
10
10
10
10
10
10
10
10
10
10
10
10
10
10
10
10
10
10
10
10
10
10
10
10
10
10
10
10
10
10
10
10
10
10
10
10
10
10
10
10
10
10
10
10
10
10
10
10
10
10
10
10
10
10
10
10
10
10
10
10
10
10
10
10
10
10
10
10
10
10
10
10
10
10
10
10
10
10
10
10
10
10
10
10
10
10
10
10
10
10
10
10
10
10
10
10
10
10
10
10
10
10
10
10
10
10
10
10
10
10
10
10
10
10
10
10
10
10
10
10
10
10
10
10
10
10
10
10
10
10
10
10
10
10
10
10
10
10
10
10
10
10
10
10
10
10
10
10
10
10
10
10
10
10
10
10
10
10
10
10
10
10
10
10
10
10
10
10
10
10
10
10
10
10
10
10
10
10
10
10
10
10
10
10
10
10
10
10
10
10
10
10
10
10
10
10
10
10
10
10
10
10
10
10
10
10
10
10
10
10
10
10
10
10
10
10
10
10
10
10
10
10
10
10
10
10
10
10
10
10
10
10
10
10
10
10
10
10
10
10
10
10
10
10
10
10
10
10
10
10
10
10
10
10
10
10
10
10
10
10
10
10
10
10
10
10
10
10
10
10
10
10
10
10
10
10
10
10
10
10
10
10
10
10
10
10
10
10
10
10
10
10
10
10
10
10
10
10
10
10
10
10
10
10
10
10
10
10
10
10
10
10
10
10
10
10
10
10
10
10
10
10
10
10
10
10
10
10
10
10
10
10
10
10
10
10
10
10
10
10
10
10
10
10
10
10
10
10
10
10
10
10
10
10
10
10
10
10
10
10
10
10
10
10
10
10
10
10
10
10
10
10
10
10
10
10
10
10
10
10
10
10
10
10
10
10
10
10
10
10
10
10
10
10
10
10
10
10
10
10
10
10
10
10
10
10
10
10
10
10
10
10
10
10
10
10
10
10
10
10
10
10
10
10
10
10
10
10
10
10
10
10
10
10
10
10
10
10
10
10
10
10
10
10
10
10
10
10
10
10
10
10
10
10
10
10
10
10
10
10
10
10
10
10
10
10
10
10
10
10
10
10
10
10
10
10
10
10
10
10
10
10
10
10
10
10
10
10
10
10
10
10
10
10
10
10
10
10
10
10
10
10
10
10
10
10
10
10
10
10
10
10
10
10
10
10
10
10
10
10
10
10
10
10
10
10
10
10
10
10
10
10
10
10
10
10
10
10
10
10
10
10
10
10
10
10
10
10
10
10
10
10
10
10
10
10
10
10
10
10
10
10
10
10
10
10
10
10
10
10
10
10
10
10
10
10
10
10
10
10
10
10
10
10
10
10
10
10
10
10
10
10
10
10
10
10
10
10
10
10
10
10
10
10
10
10
10
10
10
10
10
10
10
10
10
10
10
10
10
10
10
10
10
10
10
10
10
10
10
10
10
10
10
10
10
10
10
10
10
10
10
10
10
10
10
10
10
10
10
10
10
10
10
10
10
10
10
10
10
10
10
10
10
10
10
10
10
10
10
10
10
10
10
10
10
10
10
10
10
10
10
10
10
10
10
10
