# vtk DataFile Version 2.0
, Created by Gmsh 4.13.1 
ASCII
DATASET UNSTRUCTURED_GRID
POINTS 561 double
5.445206501937085 2.253424963806612 -44.40742602607934
-5.445206501937085 2.253424963806614 -44.40742602607934
14.22941291864138 2.253424963806612 -41.50750983764988
-14.22941291864138 2.253424963806612 -41.50750983764988
14.22941291864138 2.253424963806612 -38.49249016235012
5.445206501937085 2.253424963806612 -35.59257397392066
-5.445206501937085 2.253424963806614 -35.59257397392066
-14.22941291864138 2.253424963806612 -38.49249016235012
5.445206501937085 2.253424963806612 -84.40742602607935
-5.445206501937085 2.253424963806614 -84.40742602607935
14.22941291864138 2.253424963806612 -81.50750983764988
-14.22941291864138 2.253424963806612 -81.50750983764988
14.22941291864138 2.253424963806612 -78.49249016235012
5.445206501937085 2.253424963806612 -75.59257397392065
-5.445206501937085 2.253424963806614 -75.59257397392065
-14.22941291864138 2.253424963806612 -78.49249016235012
8.75 0 -44.40742602607934
17.26367502235105 0 -41.50750983764988
17.26367502235105 0 -38.49249016235012
8.75 0 -35.59257397392065
8.75 0 -3
11.75 0 -3
11.75 0 0
-11.75 0 0
-11.75 0 -3
-8.75 0 -3
-8.75 1.071565949253934e-15 -35.59257397392065
-17.26367502235105 2.114190435764233e-15 -38.49249016235012
-17.26367502235105 2.114190435764233e-15 -41.50750983764988
-8.75 1.071565949253934e-15 -44.40742602607934
-8.75 1.071565949253934e-15 -75.59257397392065
-17.26367502235105 2.114190435764233e-15 -78.49249016235012
-17.26367502235105 2.114190435764233e-15 -81.50750983764988
-8.75 1.071565949253934e-15 -84.40742602607935
-8.75 0 -120
8.75 0 -120
8.75 0 -84.40742602607935
17.26367502235105 0 -81.50750983764988
17.26367502235105 0 -78.49249016235012
8.75 0 -75.59257397392065
-8.75 10.89474172042622 -42.62821450698484
8.75 10.89474172042621 -42.62821450698484
8.75 10.89474172042616 -37.3717854930152
-8.75 10.89474172042621 -37.37178549301517
8.75 20 -3
8.75 20 -31.67577511175391
11.75 23 -3
-11.75 23 -3
-8.75 20 -3
11.75 23 0
-11.75 23 0
-8.75 20 -31.67577511175391
-8.75 20 -48.32422488824609
-8.75 20 -71.67577511175392
-8.75 10.89474172042626 -77.37178549301514
8.75 10.8947417204262 -77.37178549301517
-8.75 10.89474172042623 -82.62821450698485
8.75 10.89474172042623 -82.62821450698485
-8.75 20 -88.32422488824608
-8.75 20 -111.6757751117539
-8.75 6.693455153437764 -120
8.75 6.693455153437764 -120
8.75 20 -88.32422488824608
8.75 20 -111.6757751117539
8.75 20 -48.32422488824609
8.75 20 -71.67577511175392
2.255762004936067 5.444238761602173 -44.40742602607934
-2.255762004936052 5.444238761602179 -44.40742602607934
1.243449787580175e-14 2.253424963806612 -44.40742602607934
9.843147177803473 2.253424963806612 -42.97521611287206
11.6554095916457 8.467912572037951 -41.50750983764988
6.54060828444579 12.83645431363911 -41.50750983764988
-2.316780259414807e-15 14.40673856487668 -41.50750983764988
-6.540608284445795 12.83645431363911 -41.50750983764988
-11.65540959164571 8.46791257203795 -41.50750983764988
-9.843147177803473 2.253424963806612 -42.97521611287206
9.843147177803473 2.253424963806612 -37.02478388712794
1.77635683940025e-15 2.253424963806612 -35.59257397392066
-9.843147177803473 2.253424963806612 -37.02478388712794
11.6554095916457 8.467912572037951 -38.49249016235012
6.54060828444579 12.83645431363911 -38.49249016235012
-2.316780259414807e-15 14.40673856487668 -38.49249016235012
-6.540608284445795 12.83645431363911 -38.49249016235012
-11.65540959164571 8.46791257203795 -38.49249016235012
2.255762004936067 5.444238761602173 -35.59257397392065
-2.255762004936052 5.444238761602179 -35.59257397392065
2.255762004936067 5.444238761602173 -84.40742602607935
-2.255762004936052 5.444238761602179 -84.40742602607935
1.243449787580175e-14 2.253424963806612 -84.40742602607935
9.843147177803473 2.253424963806612 -82.97521611287208
11.6554095916457 8.467912572037951 -81.50750983764988
6.54060828444579 12.83645431363911 -81.50750983764988
-2.316780259414807e-15 14.40673856487668 -81.50750983764988
-6.540608284445795 12.83645431363911 -81.50750983764988
-11.65540959164571 8.46791257203795 -81.50750983764988
-9.843147177803473 2.253424963806612 -82.97521611287208
9.843147177803473 2.253424963806612 -77.02478388712792
1.77635683940025e-15 2.253424963806612 -75.59257397392065
-9.843147177803473 2.253424963806612 -77.02478388712792
11.6554095916457 8.467912572037951 -78.49249016235012
6.54060828444579 12.83645431363911 -78.49249016235012
-2.316780259414807e-15 14.40673856487668 -78.49249016235012
-6.540608284445795 12.83645431363911 -78.49249016235012
-11.65540959164571 8.46791257203795 -78.49249016235012
2.255762004936067 5.444238761602173 -75.59257397392066
-2.255762004936052 5.444238761602179 -75.59257397392066
13.00683751117553 0 -42.95746793186461
13.00683751117552 0 -37.04253206813539
8.75 0 -29.07405917913653
8.75 0 -22.55554438435242
8.75 0 -16.03702958956828
8.75 0 -9.518514794784142
5.875000000000016 0 0
3.730349362740526e-14 0 0
-5.874999999999972 0 0
-8.75 0 -9.518514794784126
-8.75 0 -16.03702958956824
-8.75 0 -22.55554438435238
-8.75 0 -29.07405917913653
-13.00683751117552 1.592878192509083e-15 -37.04253206813539
-13.00683751117553 1.592878192509084e-15 -42.95746793186461
-8.75 0 -50.6444556156476
-8.75 0 -56.88148520521586
-8.75 0 -63.11851479478413
-8.75 0 -69.35554438435241
-13.00683751117552 1.592878192509083e-15 -77.04253206813539
-13.00683751117553 1.592878192509084e-15 -82.95746793186461
-8.75 0 -90.33952168839946
-8.75 0 -96.27161735071957
-8.75 0 -102.2037130130397
-8.75 0 -108.1358086753598
-8.75 0 -114.0679043376799
2.916666666666666 0 -120
-2.916666666666668 0 -120
8.75 0 -90.33952168839946
8.75 0 -96.27161735071957
8.75 0 -102.2037130130397
8.75 0 -108.1358086753598
8.75 0 -114.0679043376799
13.00683751117553 0 -82.95746793186461
13.00683751117552 0 -77.04253206813539
8.75 0 -50.6444556156476
8.75 0 -56.88148520521586
8.75 0 -63.11851479478413
8.75 0 -69.35554438435241
15.94955600907647 6.606522412788771 -41.50750983764988
12.20726167650525 12.20726167650525 -41.50750983764988
6.606522412788755 15.94955600907647 -41.50750983764988
-1.427612838168616e-14 17.26367502235105 -41.50750983764988
-6.606522412788775 15.94955600907647 -41.50750983764988
-12.20726167650525 12.20726167650525 -41.50750983764988
-15.94955600907647 6.60652241278877 -41.50750983764988
-8.75 5.501322760290953 -43.86730119661321
-2.95210642193725 11.85245038840651 -43.22733189031896
2.952106421937269 11.85245038840651 -43.22733189031896
8.75 5.501322760290944 -43.86730119661321
15.94955600907647 6.606522412788771 -38.49249016235012
12.20726167650525 12.20726167650525 -38.49249016235012
6.606522412788755 15.94955600907647 -38.49249016235012
-1.427612838168616e-14 17.26367502235105 -38.49249016235012
-6.606522412788775 15.94955600907647 -38.49249016235012
-12.20726167650525 12.20726167650525 -38.49249016235012
-15.94955600907647 6.60652241278877 -38.49249016235012
8.75 5.501322760290932 -36.13269880338678
2.952106421937266 11.85245038840652 -36.77266810968104
-2.952106421937263 11.85245038840652 -36.77266810968104
-8.75 5.50132276029095 -36.13269880338678
8.75 6.666666666666651 -3
8.75 13.33333333333329 -3
8.75 20 -25.94062008940314
8.75 20 -20.20546506705236
8.75 20 -14.47031004470157
8.75 20 -8.735155022350778
8.75 15.44737086021309 -34.52378030238454
-5.875000000000016 23 -3
-3.730349362740526e-14 23 -3
5.874999999999972 23 -3
-11.75 5.749999999999988 -3
-11.75 11.49999999999999 -3
-11.75 17.24999999999999 -3
-8.75 13.33333333333335 -3
-8.75 6.666666666666705 -3
-2.916666666666666 20 -3
2.916666666666668 20 -3
11.75 5.749999999999988 -3
11.75 11.49999999999999 -3
11.75 17.24999999999999 -3
11.75 5.749999999999988 0
11.75 11.49999999999999 0
11.75 17.24999999999999 0
-5.875000000000016 23 0
-3.730349362740526e-14 23 0
5.874999999999972 23 0
-11.75 5.749999999999988 0
-11.75 11.49999999999999 0
-11.75 17.24999999999999 0
-8.75 20 -8.735155022350776
-8.75 20 -14.47031004470156
-8.75 20 -20.20546506705234
-8.75 20 -25.94062008940314
-8.75 15.44737086021311 -34.52378030238454
-8.75 15.4473708602131 -45.47621969761546
-8.75 20 -65.83788755587696
-8.75 20 -60
-8.75 20 -54.16211244412305
-8.75 15.44737086021313 -74.52378030238452
-8.75 5.50132276029097 -76.13269880338679
8.75 5.50132276029095 -76.13269880338679
2.952106421937256 11.8524503884065 -76.77266810968104
-2.952106421937255 11.8524503884065 -76.77266810968104
15.94955600907647 6.606522412788771 -78.49249016235012
12.20726167650525 12.20726167650525 -78.49249016235012
6.606522412788755 15.94955600907647 -78.49249016235012
-1.427612838168616e-14 17.26367502235105 -78.49249016235012
-6.606522412788775 15.94955600907647 -78.49249016235012
-12.20726167650525 12.20726167650525 -78.49249016235012
-15.94955600907647 6.60652241278877 -78.49249016235012
15.94955600907647 6.606522412788771 -81.50750983764988
12.20726167650525 12.20726167650525 -81.50750983764988
6.606522412788755 15.94955600907647 -81.50750983764988
-1.427612838168616e-14 17.26367502235105 -81.50750983764988
-6.606522412788775 15.94955600907647 -81.50750983764988
-12.20726167650525 12.20726167650525 -81.50750983764988
-15.94955600907647 6.60652241278877 -81.50750983764988
-8.75 5.50132276029096 -83.86730119661321
-2.952106421937244 11.8524503884065 -83.22733189031896
2.95210642193726 11.8524503884065 -83.22733189031896
8.75 5.501322760290963 -83.86730119661321
-8.75 15.44737086021311 -85.47621969761546
-8.75 20 -105.837887555877
-8.75 20 -100
-8.75 20 -94.16211244412304
-8.75 11.12897010229184 -117.2252583705846
-8.75 15.56448505114592 -114.4505167411693
2.916666666666666 6.693455153437764 -120
-2.916666666666668 6.693455153437764 -120
8.75 15.44737086021311 -85.47621969761546
8.75 20 -105.837887555877
8.75 20 -100
8.75 20 -94.16211244412304
8.75 11.12897010229184 -117.2252583705846
8.75 15.56448505114592 -114.4505167411693
8.75 15.4473708602131 -45.47621969761546
8.75 20 -65.83788755587696
8.75 20 -60
8.75 20 -54.16211244412305
8.75 15.44737086021311 -74.52378030238454
2.916666666666666 20 -48.32422488824609
-2.916666666666668 20 -48.32422488824609
2.916666666666666 20 -31.67577511175391
-2.916666666666668 20 -31.67577511175391
2.916666666666666 20 -71.67577511175392
-2.916666666666668 20 -71.67577511175392
2.916666666666666 20 -88.32422488824608
-2.916666666666668 20 -88.32422488824608
2.916666666666666 20 -111.6757751117539
-2.916666666666668 20 -111.6757751117539
-5.521099416602958 7.172076527857682 -43.33176242931123
7.479883407614301 5.818643258883355 -43.18681906747636
-1.037342507898123 9.29255416237512 -43.22983545451105
3.561569665333185 9.147025960642363 -43.07121808515704
2.512017793008457 2.253424963806612 -39.99220291737523
-2.547115369335135 2.253424963806612 -39.9987004862292
11.30789773216937 2.253424963806612 -40
-11.30789773216937 2.253424963806612 -40
-7.262146818254031 2.253424963806612 -39.99984529597967
7.257968535357996 2.253424963806612 -39.999071775878
3.363233167661944 14.00866798580949 -39.95657495154674
-9.356538135111103 10.95487609254056 -39.95657495154674
-13.31018306243312 5.512997634792123 -39.95657495154674
13.32415800292652 5.479135843338282 -40
-3.327602279364392 14.0171744352089 -40
9.356538135111096 10.95487609254056 -40.04342504845326
-5.521099416603078 7.172076527857825 -36.66823757068882
7.479883407614281 5.818643258883699 -36.8131809325237
-0.8974940012475779 9.316342788389189 -36.77329762522831
3.630827832507096 9.144257569092671 -36.93653707410584
-5.521099416602958 7.172076527857682 -83.33176242931124
7.479883407614299 5.818643258883352 -83.18681906747636
-1.037342507898129 9.292554162375122 -83.22983545451106
3.561569665333188 9.14702596064236 -83.07121808515704
2.46842860681992 2.253424963806612 -79.88949647862802
-2.510791047511351 2.253424963806612 -80.08428918518521
-6.617499681398494 2.253424963806612 -80.01685783703704
6.609027193260207 2.253424963806612 -79.97789929572559
3.363233167661944 14.00866798580949 -79.95657495154674
-9.356538135111103 10.95487609254056 -80.04342504845326
-13.31018306243312 5.512997634792123 -80.04342504845326
13.31018306243312 5.512997634792129 -80.04342504845326
-3.363233167661948 14.00866798580949 -80.04342504845326
9.356538135111098 10.95487609254056 -80.04342504845326
-5.52109941660308 7.172076527857827 -76.66823757068883
7.479883407614274 5.818643258883696 -76.81318093252371
-0.897494001247568 9.316342788389191 -76.77329762522831
3.630827832507097 9.144257569092668 -76.93653707410584
3.650045379184955 0 -88.3759034892454
3.545776570457675 0 -72.97869268312479
4.10202715672531 0 -47.52594082086348
2.984873266762496 0 -30.95442986496517
1.77635683940025e-15 0 -115.60720980571
-2.680377621835169 0 -99.20830880935821
2.864994617959762 0 -60
3.502763954359387 0 -42.04287973147071
-2.817172188267775 0 -4.114445958393169
3.104800592772243 0 -19.29628698696035
2.967803547609086 0 -82.13686745785898
2.54439335333352 0 -105.1667652959833
-3.266308925878612 0 -65.85820126172763
-3.348573931278659 0 -53.76297041043173
-3.104800592772251 0 -12.77777219217619
-2.457541662010166 0 -25.67409905607472
-2.78807010982533 0 -87.62781686076248
3.715298507194741 0 -5.668959496524906
-3.759041883973871 0 -81.72935493228499
-2.717590478021447 0 -32.74425650671499
-3.463152600839281 0 -39.57681381579866
-2.126677726188047 0 -45.15353457568857
-3.350269210315539 0 -72.24931986503368
8.881784197001252e-15 0 -93.10007491190969
-9.624108768500061 0 -80
9.49972256072193 0 -79.95581400827453
9.624108768500069 0 -40
-10.225276103277 0 -39.92946896929978
3.178672902643524 0 -66.60984879824252
3.390893854529613 0 -53.52226035209142
-4.249977647839501 0 -59.92423433443187
4.226426439504915 0 -25.51088389429784
-3.458284885435416 0 -19.28896177217117
3.525279825467521 0 -11.98628541131778
-4.333661947925303 0 -105.1632904600522
3.706552257182644 0 -98.2093414834283
-14.37482899647166 0 -40
-14.28585507171089 0 -80
14.00814952555502 0 -79.99116280165491
14.42680253366329 0 -40
-3.16779169007203 0 -110.8212047153235
3.792491538863104 0 -111.3490951716174
-0.02584561017209452 0 -77.03725341940448
-4.875297811597492 0 -93.3055695195595
4.971319527273522 0 -93.25929178474048
3.430656007226392 0 -36.89807333868922
4.52811264819274 0 -77.25690073566759
-4.528112648192749 0 -77.25690073566759
-0.7500515469708544 0 -8.292145610227088
-4.661100139359488 0 -48.75366132755283
-4.496904120089382 0 -115.7197729106101
4.586691583910858 0 -115.8460403388669
-5.293639838755559 0 -7.174484764337812
-0.3302490393307362 0 -49.7999200099169
-12.77367291694442 3.663132793265439 -42.86151525215548
12.77367291694443 3.663132793265428 -42.86151525215547
11.68266221793283 7.806105328049616 -42.60193673835761
-11.68266221793283 7.806105328049624 -42.60193673835761
-16.93195834758682 3.367975919292248 -40.03023428106884
-14.35422117775137 9.591183954942252 -40.03023428106884
16.93195834758682 3.367975919292259 -40.03023428106884
9.591183954942254 14.35422117775137 -39.96976571893116
-3.367975919292267 16.93195834758682 -40.03023428106884
3.367975919292247 16.93195834758682 -39.96976571893116
-9.562521967525392 14.37333116914593 -40
14.37333116914593 9.562521967525392 -40
-12.85978604493484 3.489977641251142 -37.15088388948664
12.77367291694443 3.663132793265411 -37.13848474784452
11.68266221793283 7.806105328049616 -37.39806326164239
-11.77843868939422 8.090445422350989 -37.47939640079168
8.75 14.95294933464971 -17.99068736623809
8.75 5.165330550740836 -26.07504208240621
8.75 5.049279150236405 -12.79378275510558
8.75 9.556545514722048 -30.91868225958916
8.75 4.977647599478475 -19.34232879755887
8.75 15.99710709246263 -23.10010290152491
8.75 15.03321005600231 -11.60273253352617
8.75 15.21535470483461 -28.62881572174058
8.75 9.999999999999973 -8.127969459487396
8.75 4.643662018286409 -31.11858036546515
8.75 9.966798668123452 -15.40217421604476
8.75 4.78690546667093 -7.745866110265021
8.75 10.53441937718964 -22.91973036951932
8.75 15.67330867786712 -6.893171403072868
10.25 3.10416666666666 -3
-10.25 3.104166666666674 -3
11.75 20.125 -1.5
11.75 14.37499999999999 -1.5
11.75 8.624999999999988 -1.5
11.75 2.874999999999994 -1.5
3.157610638484556 18.22886740495932 0
-2.707174061168089 4.878797530676509 0
7.069955745470661 8.71654637064 0
-6.619519168154191 14.39111856499582 0
7.102873022115112 14.37499999999999 0
0.1126091443291166 11.52691623390895 0
-7.000954855602268 8.644857627020135 0
-2.792058517349995 18.15992185565015 0
2.948495529093417 4.721447277005962 0
-7.528051718759411 18.81262893003678 0
7.528051718759418 4.187371069963204 0
7.820492259183635 19.07601590637069 0
-7.553981076842916 4.160878030182232 0
-11.75 20.125 -1.5
-11.75 8.624999999999988 -1.5
-11.75 14.37499999999999 -1.500000000000001
-11.75 2.874999999999994 -1.5
-8.75 14.95294933464971 -17.99068736623807
-8.75 5.165330550740843 -26.0750420824062
-8.75 5.049279150236413 -12.79378275510555
-8.75 9.556545514722062 -30.91868225958915
-8.75 4.97764759947848 -19.34232879755883
-8.75 15.99710709246263 -23.10010290152489
-8.75 15.03321005600231 -11.60273253352617
-8.75 15.21535470483461 -28.62881572174058
-8.75 10.00000000000003 -8.12796945948736
-8.75 4.643662018286421 -31.11858036546514
-8.75 9.966798668123465 -15.40217421604473
-8.75 4.786905466670921 -7.745866110264995
-8.75 10.53441937718965 -22.9197303695193
-8.75 15.67330867786714 -6.893171403072863
-8.75 15.41738490473169 -58.05403748137435
-8.75 5.40142606872134 -66.23702958956827
-8.75 9.499645665414555 -48.92670518329748
-8.75 9.801891028140242 -71.04763945059619
-8.75 15.00496152094035 -51.97079748331205
-8.75 4.834485748805353 -53.66028463490225
-8.75 5.227480568003645 -59.98288570407842
-8.75 11.13094122291425 -63.32762183346761
-8.75 15.43478757660143 -68.22194133866961
-8.75 4.661711427373262 -71.19283583721906
-8.75 4.440475063413456 -48.62757660003665
-8.75 16.39662274084948 -63.08829764187771
-8.75 10.03711691660577 -56.24260676344646
-12.85978604493483 3.489977641251148 -77.15088388948665
12.77367291694442 3.663132793265417 -77.13848474784453
11.68266221793283 7.806105328049617 -77.39806326164239
-11.77843857671597 8.090445586906718 -77.47939640089072
-14.35422117775136 9.59118395494226 -80.03023428106884
16.93195834758682 3.367975919292259 -80.03023428106884
-16.93195834758682 3.367975919292255 -79.96976571893116
9.591183954942252 14.35422117775137 -79.96976571893116
3.367975919292247 16.93195834758682 -79.96976571893116
-3.367975919292271 16.93195834758682 -80.03023428106884
-9.562521967525392 14.37333116914593 -80
14.37333116914593 9.562521967525392 -80
-12.77367291694442 3.663132793265429 -82.86151525215548
12.77367291694443 3.663132793265425 -82.86151525215548
-11.68266221793284 7.806105328049626 -82.60193673835761
11.68266221793284 7.806105328049623 -82.60193673835761
-8.75 15.45395200956498 -97.03136666209913
-8.75 10.25817111051458 -111.0350848863454
-8.75 9.583197887175222 -88.43970816335192
-8.75 5.137345541248688 -99.23766518187962
-8.75 15.14681548955406 -91.24316866618457
-8.75 5.137345541248687 -93.30556951955951
-8.75 6.21735292583792 -105.1821431743432
-8.75 4.672283906046102 -110.7592069593429
-8.75 11.78662715306043 -105.6435384761407
-8.75 15.71215853808065 -108.5936244248708
-8.75 5.458813378715049 -115.5145757589922
-8.75 4.306154359708363 -88.37777037358993
-8.75 10.24640809489173 -94.61041879276766
-8.75 10.67125971845326 -100.324457578967
-8.75 15.9067619538322 -102.9090880672627
-5.408163265306122 3.346727576718882 -120
5.408163265306122 3.346727576718882 -120
0 3.346727576718882 -120
8.75 15.48955750461165 -96.91997695866246
8.75 10.25817111051458 -111.0350848863454
8.75 9.613716882929513 -88.34423127469192
8.75 5.165713760636544 -98.9412949428222
8.75 15.19206395785418 -91.16050212851144
8.75 5.137345541248687 -93.30556951955951
8.75 6.221405528607615 -105.1398045687636
8.75 4.673094426600041 -110.750739238227
8.75 11.78743767361437 -105.6350707550248
8.75 15.71229362483964 -108.5922131380181
8.75 5.458948465474038 -115.5131644721395
8.75 10.29253191373763 -94.46407286702222
8.75 4.30837877630853 -88.3708114166905
8.75 10.68103528449102 -100.2730194671528
8.75 15.91227703340331 -102.8885277311652
8.75 15.61760892688955 -57.4644146305273
8.75 5.40142606872134 -66.23702958956827
8.75 9.671266255835572 -48.42131416828573
8.75 9.801891028140226 -71.04763945059619
8.75 15.25724058491049 -50.84291478199552
8.75 5.044909020140643 -53.05313892891808
8.75 5.444370952824646 -59.35878088293219
8.75 11.21330950321921 -62.78966309281436
8.75 15.44851562331891 -68.13228154856074
8.75 4.661711427373258 -71.19283583721905
8.75 4.237936565372626 -48.34755138935918
8.75 16.45588681068553 -62.84484936555587
8.75 10.37478420730335 -55.32170441424553
-1.77635683940025e-15 15.91705144264371 -45.77003953130465
4.43101744950884 16.43226894829904 -46.09234606789174
-4.431017449508843 16.43226894829904 -46.09234606789174
-1.77635683940025e-15 15.91705144264371 -34.22996046869535
-4.431017449508841 16.43226894829904 -33.90765393210826
4.43101744950884 16.43226894829903 -33.90765393210826
-3.783210056002312 20 -17.33788755587695
0 20 -27.42343984230696
-1.77635683940025e-15 20 -7.252335269446958
3.783210056002311 20 -17.33788755587696
2.563417550157366 20 -11.98436875094201
-2.563417550157368 20 -22.6914063608119
-3.88134764926095 20 -11.15572165302216
3.881347649260947 20 -23.52005345873176
-4.596016843364807 20 -27.88140330320596
4.596016843364808 20 -6.79437180854795
4.568293389720745 20 -27.52150183693922
-4.568293389720746 20 -7.154273274814697
8.812499999999986 23 -1.5
2.937499999999966 23 -1.5
-8.812500000000007 23 -1.5
-2.937500000000028 23 -1.5
0.344262409015375 20 -66.89859189757789
0.3937005688975415 20 -53.7466637217741
4.077462038485953 20 -62.91894377793848
-2.158930040131297 20 -61.22312561746963
4.053148244102609 20 -57.43660928392057
-4.183849208321101 20 -55.89683021408078
-4.44626685955652 20 -67.46223105888646
4.506656897363452 20 -52.56881014221818
4.506656897363451 20 -67.43118985778183
-1.77635683940025e-15 15.9170514426437 -74.22996046869535
-4.431017449508834 16.43226894829904 -73.90765393210826
4.431017449508838 16.43226894829904 -73.90765393210826
0 15.91705144264371 -85.77003953130465
-4.43101744950884 16.43226894829904 -86.09234606789173
4.431017449508838 16.43226894829904 -86.09234606789173
0.344262409015375 20 -106.8985918975779
0.3937005688975415 20 -93.7466637217741
4.077462038485953 20 -102.9189437779385
-2.158930040131297 20 -101.2231256174696
4.053148244102609 20 -97.43660928392057
-4.183849208321101 20 -95.89683021408078
-4.44626685955652 20 -107.4622310588865
4.506656897363452 20 -92.56881014221818
4.506656897363451 20 -107.4311898577818
-4.861111111111109 13.34672757671888 -115.837887555877
4.861111111111112 13.34672757671888 -115.837887555877
-1.77635683940025e-15 16.17140615258159 -114.0708428441488
-1.77635683940025e-15 10.52204900085617 -117.6049322676052
5.055555555555555 9.676931397348485 -118.1336156388134
-5.055555555555557 17.01652375608928 -113.5421594729406
-5.055555555555557 9.676931397348485 -118.1336156388134
5.055555555555555 17.01652375608928 -113.5421594729406
1.287858708565182e-14 9.473879785810745 -67.503446913091
1.287858708565182e-14 9.473879785810762 -27.50344691309104
1.199040866595169e-14 8.77156303105734 -52.74946822901476
1.304284631945513e-14 9.045875749239434 -92.4216552523681
-0.0009543213612239754 9.167397672646736 -103.4162871868233
-1.088018564132653e-14 8.854776987163284 -11.54676954035445
-1.091250742412084 7.815199833261795 -19.57745303783387
1.517859835391432 7.340776629033817 -110.7495702292666
2.34603136908106 13.69750281699132 -7.505300886235497
-1.243460434487981 7.135767072213032 -60.22104028335977
2.428717599372582 13.8057003362372 -108.4021024146734
2.532011146737014 13.64741148025612 -20.91888603067873
-1.847895034609693 13.43861748073822 -97.87093016930878
2.041803657968583 13.14008910702176 -58.06402916655433
6.413787238124572e-15 4.646193060407118 -70.4612912077762
2.014894375217201 14.46166320183234 -51.42748753949843

CELLS 3054 13414
1 0
1 1
1 2
1 3
1 4
1 5
1 6
1 7
1 8
1 9
1 10
1 11
1 12
1 13
1 14
1 15
1 16
1 17
1 18
1 19
1 20
1 21
1 22
1 23
1 24
1 25
1 26
1 27
1 28
1 29
1 30
1 31
1 32
1 33
1 34
1 35
1 36
1 37
1 38
1 39
1 40
1 41
1 42
1 43
1 44
1 45
1 46
1 47
1 48
1 49
1 50
1 51
1 52
1 53
1 54
1 55
1 56
1 57
1 58
1 59
1 60
1 61
1 62
1 63
1 64
1 65
2 0 66
2 66 67
2 67 1
2 1 68
2 68 0
2 0 69
2 69 2
2 2 70
2 70 71
2 71 72
2 72 73
2 73 74
2 74 3
2 3 75
2 75 1
2 2 4
2 4 76
2 76 5
2 5 77
2 77 6
2 6 78
2 78 7
2 3 7
2 4 79
2 79 80
2 80 81
2 81 82
2 82 83
2 83 7
2 5 84
2 84 85
2 85 6
2 8 86
2 86 87
2 87 9
2 9 88
2 88 8
2 8 89
2 89 10
2 10 90
2 90 91
2 91 92
2 92 93
2 93 94
2 94 11
2 11 95
2 95 9
2 10 12
2 12 96
2 96 13
2 13 97
2 97 14
2 14 98
2 98 15
2 11 15
2 12 99
2 99 100
2 100 101
2 101 102
2 102 103
2 103 15
2 13 104
2 104 105
2 105 14
2 16 106
2 106 17
2 17 18
2 18 107
2 107 19
2 19 108
2 108 109
2 109 110
2 110 111
2 111 20
2 20 21
2 21 22
2 22 112
2 112 113
2 113 114
2 114 23
2 24 23
2 24 25
2 25 115
2 115 116
2 116 117
2 117 118
2 118 26
2 27 119
2 119 26
2 28 27
2 29 120
2 120 28
2 29 121
2 121 122
2 122 123
2 123 124
2 124 30
2 31 125
2 125 30
2 32 31
2 33 126
2 126 32
2 33 127
2 127 128
2 128 129
2 129 130
2 130 131
2 131 34
2 35 132
2 132 133
2 133 34
2 36 134
2 134 135
2 135 136
2 136 137
2 137 138
2 138 35
2 36 139
2 139 37
2 37 38
2 38 140
2 140 39
2 16 141
2 141 142
2 142 143
2 143 144
2 144 39
2 17 145
2 145 146
2 146 147
2 147 148
2 148 149
2 149 150
2 150 151
2 151 28
2 40 152
2 152 29
2 40 153
2 153 154
2 154 41
2 41 155
2 155 16
2 18 156
2 156 157
2 157 158
2 158 159
2 159 160
2 160 161
2 161 162
2 162 27
2 19 163
2 163 42
2 42 164
2 164 165
2 165 43
2 26 166
2 166 43
2 20 167
2 167 168
2 168 44
2 45 169
2 169 170
2 170 171
2 171 172
2 172 44
2 42 173
2 173 45
2 47 174
2 174 175
2 175 176
2 176 46
2 24 177
2 177 178
2 178 179
2 179 47
2 48 180
2 180 181
2 181 25
2 48 182
2 182 183
2 183 44
2 21 184
2 184 185
2 185 186
2 186 46
2 22 187
2 187 188
2 188 189
2 189 49
2 46 49
2 50 190
2 190 191
2 191 192
2 192 49
2 23 193
2 193 194
2 194 195
2 195 50
2 47 50
2 48 196
2 196 197
2 197 198
2 198 199
2 199 51
2 43 200
2 200 51
2 52 201
2 201 40
2 53 202
2 202 203
2 203 204
2 204 52
2 54 205
2 205 53
2 30 206
2 206 54
2 39 207
2 207 55
2 55 208
2 208 209
2 209 54
2 38 210
2 210 211
2 211 212
2 212 213
2 213 214
2 214 215
2 215 216
2 216 31
2 37 217
2 217 218
2 218 219
2 219 220
2 220 221
2 221 222
2 222 223
2 223 32
2 56 224
2 224 33
2 56 225
2 225 226
2 226 57
2 57 227
2 227 36
2 58 228
2 228 56
2 59 229
2 229 230
2 230 231
2 231 58
2 60 232
2 232 233
2 233 59
2 34 60
2 61 234
2 234 235
2 235 60
2 35 61
2 62 236
2 236 57
2 63 237
2 237 238
2 238 239
2 239 62
2 61 240
2 240 241
2 241 63
2 64 242
2 242 41
2 65 243
2 243 244
2 244 245
2 245 64
2 55 246
2 246 65
2 64 247
2 247 248
2 248 52
2 45 249
2 249 250
2 250 51
2 65 251
2 251 252
2 252 53
2 62 253
2 253 254
2 254 58
2 63 255
2 255 256
2 256 59
3 66 0 68
3 68 1 67
3 67 66 68
3 66 258 0
3 0 258 69
3 1 257 67
3 75 257 1
3 2 69 70
3 74 75 3
3 67 259 66
3 66 260 258
3 259 260 66
3 257 259 67
3 69 258 70
3 70 258 71
3 71 260 72
3 258 260 71
3 72 259 73
3 72 260 259
3 73 257 74
3 73 259 257
3 74 257 75
3 68 0 261
3 0 69 266
3 261 0 266
3 1 68 262
3 75 1 265
3 1 262 265
3 2 4 263
3 69 2 263
3 7 3 264
3 3 75 264
3 4 76 263
3 76 5 266
3 5 77 261
3 5 261 266
3 77 6 262
3 6 78 265
3 262 6 265
3 78 7 264
3 68 261 262
3 69 263 266
3 264 75 265
3 263 76 266
3 261 77 262
3 78 264 265
3 2 270 4
3 70 270 2
3 7 269 3
3 3 269 74
3 4 270 79
3 83 269 7
3 71 272 70
3 79 270 70
3 70 272 79
3 72 267 71
3 71 267 80
3 80 272 71
3 73 271 72
3 81 267 72
3 72 271 81
3 74 268 73
3 73 268 82
3 82 271 73
3 83 268 74
3 74 269 83
3 79 272 80
3 80 267 81
3 81 271 82
3 82 268 83
3 4 79 76
3 76 274 5
3 5 274 84
3 6 273 78
3 85 273 6
3 83 7 78
3 79 274 76
3 78 273 83
3 80 274 79
3 81 276 80
3 80 276 274
3 82 275 81
3 275 276 81
3 83 273 82
3 273 275 82
3 84 275 85
3 274 276 84
3 84 276 275
3 85 275 273
3 77 5 84
3 85 6 77
3 77 84 85
3 86 8 88
3 88 9 87
3 87 86 88
3 86 278 8
3 8 278 89
3 9 277 87
3 95 277 9
3 10 89 90
3 94 95 11
3 87 279 86
3 86 280 278
3 279 280 86
3 277 279 87
3 89 278 90
3 90 278 91
3 91 280 92
3 278 280 91
3 92 279 93
3 92 280 279
3 93 277 94
3 93 279 277
3 94 277 95
3 88 8 281
3 8 89 284
3 281 8 284
3 9 88 282
3 95 9 283
3 9 282 283
3 89 10 12
3 95 15 11
3 89 12 96
3 96 13 284
3 13 97 281
3 13 281 284
3 97 14 282
3 14 98 283
3 282 14 283
3 15 95 98
3 88 281 282
3 89 96 284
3 98 95 283
3 281 97 282
3 10 288 12
3 90 288 10
3 15 287 11
3 11 287 94
3 12 288 99
3 103 287 15
3 91 290 90
3 99 288 90
3 90 290 99
3 92 285 91
3 91 285 100
3 100 290 91
3 93 289 92
3 101 285 92
3 92 289 101
3 94 286 93
3 93 286 102
3 102 289 93
3 103 286 94
3 94 287 103
3 99 290 100
3 100 285 101
3 101 289 102
3 102 286 103
3 12 99 96
3 96 292 13
3 13 292 104
3 14 291 98
3 105 291 14
3 103 15 98
3 99 292 96
3 98 291 103
3 100 292 99
3 101 294 100
3 100 294 292
3 102 293 101
3 293 294 101
3 103 291 102
3 291 293 102
3 104 293 105
3 292 294 104
3 104 294 293
3 105 293 291
3 97 13 104
3 105 14 97
3 97 104 105
3 106 321 16
3 16 297 141
3 16 302 297
3 16 321 302
3 18 334 17
3 17 334 106
3 107 334 18
3 19 321 107
3 108 298 19
3 298 340 19
3 19 340 321
3 21 22 20
3 20 22 112
3 20 312 111
3 112 312 20
3 23 24 25
3 114 23 25
3 25 303 114
3 115 347 25
3 25 347 303
3 26 314 118
3 119 322 26
3 26 315 314
3 26 322 315
3 28 331 27
3 27 331 119
3 120 331 28
3 29 322 120
3 121 344 29
3 29 316 315
3 315 322 29
3 29 344 316
3 30 317 124
3 125 319 30
3 30 342 317
3 319 342 30
3 32 332 31
3 31 332 125
3 126 332 32
3 33 319 126
3 127 311 33
3 311 313 33
3 313 319 33
3 34 345 131
3 133 345 34
3 35 346 132
3 138 346 35
3 36 295 134
3 139 320 36
3 36 305 295
3 36 320 305
3 38 333 37
3 37 333 139
3 140 333 38
3 39 320 140
3 144 296 39
3 296 341 39
3 39 341 320
3 106 334 321
3 321 334 107
3 109 326 108
3 108 326 298
3 110 304 109
3 304 326 109
3 111 328 110
3 110 328 304
3 312 328 111
3 113 312 112
3 114 303 113
3 303 312 113
3 116 309 115
3 309 347 115
3 117 327 116
3 116 327 309
3 118 310 117
3 310 327 117
3 118 314 310
3 119 331 322
3 322 331 120
3 122 308 121
3 308 344 121
3 123 325 122
3 122 325 308
3 124 307 123
3 307 325 123
3 124 317 307
3 125 332 319
3 319 332 126
3 128 338 127
3 127 338 311
3 129 300 128
3 300 338 128
3 130 329 129
3 129 329 300
3 131 335 130
3 130 335 329
3 131 345 335
3 132 299 133
3 132 346 299
3 299 345 133
3 134 339 135
3 295 339 134
3 135 330 136
3 135 339 330
3 136 306 137
3 136 330 306
3 137 336 138
3 306 336 137
3 336 346 138
3 139 333 320
3 320 333 140
3 141 324 142
3 297 324 141
3 142 301 143
3 142 324 301
3 143 323 144
3 301 323 143
3 144 323 296
3 305 311 295
3 311 318 295
3 318 339 295
3 296 323 317
3 317 337 296
3 337 341 296
3 302 316 297
3 316 348 297
3 297 348 324
3 310 314 298
3 298 326 310
3 314 340 298
3 299 336 335
3 335 345 299
3 299 346 336
3 300 329 306
3 306 330 300
3 300 330 318
3 318 338 300
3 307 323 301
3 301 325 307
3 301 324 308
3 308 325 301
3 315 316 302
3 302 340 315
3 321 340 302
3 303 343 312
3 303 347 343
3 309 327 304
3 304 328 309
3 310 326 304
3 304 327 310
3 305 313 311
3 305 337 313
3 320 341 305
3 305 341 337
3 329 335 306
3 335 336 306
3 317 323 307
3 324 348 308
3 308 348 344
3 328 343 309
3 343 347 309
3 311 338 318
3 312 343 328
3 313 342 319
3 337 342 313
3 315 340 314
3 344 348 316
3 317 342 337
3 330 339 318
3 16 350 106
3 155 350 16
3 106 350 17
3 17 350 145
3 28 349 120
3 151 349 28
3 120 349 29
3 29 349 152
3 149 40 150
3 149 153 40
3 40 352 150
3 152 352 40
3 146 41 147
3 146 351 41
3 154 147 41
3 41 351 155
3 145 351 146
3 350 351 145
3 148 147 154
3 149 148 153
3 148 154 153
3 150 352 151
3 151 352 349
3 349 352 152
3 155 351 350
3 17 355 18
3 145 355 17
3 18 355 156
3 27 353 28
3 162 353 27
3 28 353 151
3 146 360 145
3 156 355 145
3 145 360 156
3 147 356 146
3 146 356 157
3 157 360 146
3 148 358 147
3 158 356 147
3 147 358 158
3 149 357 148
3 148 357 159
3 159 358 148
3 150 359 149
3 160 357 149
3 149 359 160
3 151 354 150
3 150 354 161
3 161 359 150
3 151 353 162
3 162 354 151
3 156 360 157
3 157 356 158
3 158 358 159
3 159 357 160
3 160 359 161
3 161 354 162
3 18 362 107
3 156 362 18
3 107 362 19
3 19 362 163
3 26 361 119
3 166 361 26
3 119 361 27
3 27 361 162
3 157 158 42
3 42 363 157
3 42 158 164
3 163 363 42
3 160 161 43
3 160 43 165
3 161 364 43
3 43 364 166
3 157 363 156
3 156 363 362
3 164 158 159
3 160 165 159
3 164 159 165
3 162 364 161
3 361 364 162
3 362 363 163
3 166 364 361
3 19 374 108
3 163 374 19
3 111 376 20
3 20 376 167
3 42 368 163
3 173 368 42
3 168 378 44
3 44 378 172
3 169 372 45
3 45 372 173
3 108 366 109
3 108 374 366
3 109 369 110
3 366 369 109
3 110 367 111
3 110 369 367
3 367 376 111
3 368 374 163
3 167 373 168
3 167 376 373
3 373 378 168
3 170 370 169
3 370 372 169
3 171 365 170
3 365 370 170
3 172 371 171
3 171 371 365
3 172 378 371
3 173 372 368
3 365 377 370
3 371 375 365
3 375 377 365
3 366 374 368
3 368 377 366
3 366 377 369
3 369 375 367
3 367 375 373
3 373 376 367
3 372 377 368
3 369 377 375
3 370 377 372
3 373 375 371
3 371 378 373
3 21 20 379
3 20 167 379
3 184 21 379
3 25 24 380
3 24 177 380
3 181 25 380
3 46 44 176
3 186 44 46
3 186 168 44
3 44 183 176
3 47 174 48
3 47 48 179
3 174 182 48
3 48 180 179
3 168 185 167
3 185 184 167
3 167 184 379
3 186 185 168
3 182 174 175
3 176 183 175
3 183 182 175
3 177 178 181
3 177 181 380
3 180 178 179
3 178 180 181
3 21 384 22
3 184 384 21
3 22 384 187
3 49 381 46
3 46 381 186
3 189 381 49
3 185 383 184
3 184 383 187
3 187 384 184
3 186 382 185
3 185 382 188
3 188 383 185
3 186 381 189
3 189 382 186
3 187 383 188
3 188 382 189
3 22 395 112
3 187 395 22
3 114 397 23
3 23 397 193
3 49 396 189
3 192 396 49
3 50 394 190
3 195 394 50
3 112 393 113
3 112 395 393
3 113 386 114
3 113 393 386
3 386 397 114
3 188 387 187
3 387 395 187
3 189 389 188
3 188 389 387
3 189 396 389
3 190 392 191
3 190 394 392
3 191 385 192
3 191 392 385
3 385 396 192
3 193 391 194
3 193 397 391
3 194 388 195
3 194 391 388
3 388 394 195
3 385 390 389
3 389 396 385
3 385 392 390
3 390 391 386
3 386 393 390
3 391 397 386
3 389 390 387
3 390 393 387
3 393 395 387
3 388 391 390
3 390 392 388
3 392 394 388
3 24 23 401
3 23 193 401
3 177 24 401
3 50 47 398
3 47 179 398
3 195 50 398
3 178 177 399
3 177 193 399
3 193 177 401
3 179 178 400
3 194 178 399
3 178 194 400
3 179 195 398
3 195 179 400
3 193 194 399
3 194 195 400
3 115 25 413
3 25 181 413
3 26 118 411
3 166 26 411
3 43 166 405
3 200 43 405
3 180 48 415
3 48 196 415
3 199 51 409
3 51 200 409
3 116 115 404
3 404 115 413
3 117 116 406
3 116 404 406
3 118 117 403
3 403 117 406
3 118 403 411
3 405 166 411
3 181 180 410
3 410 180 415
3 181 410 413
3 196 197 408
3 196 408 415
3 197 198 402
3 197 402 408
3 198 199 407
3 402 198 407
3 407 199 409
3 200 405 409
3 402 407 414
3 408 402 412
3 412 402 414
3 403 405 411
3 405 403 414
3 403 406 414
3 406 404 412
3 404 410 412
3 410 404 413
3 409 405 414
3 406 412 414
3 407 409 414
3 410 408 412
3 408 410 415
3 121 29 426
3 29 152 426
3 30 124 425
3 206 30 425
3 152 40 418
3 40 201 418
3 201 52 420
3 52 204 420
3 202 53 424
3 53 205 424
3 205 54 419
3 54 206 419
3 122 121 421
3 421 121 426
3 123 122 422
3 122 421 422
3 124 123 417
3 417 123 422
3 124 417 425
3 152 418 426
3 418 201 420
3 203 202 427
3 202 424 427
3 204 203 416
3 416 203 427
3 204 416 420
3 205 419 424
3 419 206 425
3 420 416 428
3 423 416 427
3 416 423 428
3 419 417 423
3 417 419 425
3 417 422 423
3 418 420 428
3 418 421 426
3 421 418 428
3 419 423 424
3 422 421 428
3 423 422 428
3 424 423 427
3 30 429 125
3 206 429 30
3 125 429 31
3 31 429 216
3 38 430 140
3 210 430 38
3 140 430 39
3 39 430 207
3 54 432 206
3 214 54 209
3 214 215 54
3 215 432 54
3 207 431 55
3 55 212 208
3 211 212 55
3 55 431 211
3 206 432 429
3 430 431 207
3 209 208 213
3 208 212 213
3 214 209 213
3 211 431 210
3 210 431 430
3 216 432 215
3 429 432 216
3 31 435 32
3 216 435 31
3 32 435 223
3 37 434 38
3 217 434 37
3 38 434 210
3 210 440 211
3 210 434 217
3 217 440 210
3 211 436 212
3 218 436 211
3 211 440 218
3 212 437 213
3 212 436 219
3 219 437 212
3 213 438 214
3 213 437 220
3 220 438 213
3 214 439 215
3 214 438 221
3 221 439 214
3 215 433 216
3 222 433 215
3 215 439 222
3 216 433 223
3 223 435 216
3 218 440 217
3 219 436 218
3 220 437 219
3 221 438 220
3 222 439 221
3 223 433 222
3 32 441 126
3 223 441 32
3 126 441 33
3 33 441 224
3 36 442 139
3 227 442 36
3 139 442 37
3 37 442 217
3 221 56 222
3 225 56 221
3 56 443 222
3 224 443 56
3 218 57 219
3 218 444 57
3 226 219 57
3 57 444 227
3 217 444 218
3 442 444 217
3 220 219 226
3 221 220 225
3 225 220 226
3 222 443 223
3 223 443 441
3 441 443 224
3 227 444 442
3 127 33 456
3 33 224 456
3 60 34 455
3 34 131 455
3 224 56 447
3 56 228 447
3 228 58 449
3 58 231 449
3 229 59 454
3 59 233 454
3 232 60 455
3 128 127 450
3 450 127 456
3 129 128 448
3 448 128 450
3 130 129 451
3 129 448 451
3 131 130 452
3 130 451 452
3 131 452 455
3 224 447 456
3 447 228 449
3 230 229 459
3 229 454 459
3 231 230 445
3 445 230 459
3 231 445 449
3 233 232 446
3 446 232 455
3 233 446 454
3 449 445 457
3 457 445 458
3 458 445 459
3 451 446 452
3 446 451 453
3 452 446 455
3 446 453 454
3 447 449 457
3 447 450 456
3 450 447 457
3 448 450 457
3 451 448 458
3 448 457 458
3 453 451 458
3 454 453 459
3 453 458 459
3 60 460 34
3 34 460 133
3 35 461 61
3 132 461 35
3 235 460 60
3 61 461 234
3 133 462 132
3 132 462 461
3 460 462 133
3 234 462 235
3 461 462 234
3 235 462 460
3 61 473 35
3 35 473 138
3 134 475 36
3 36 475 227
3 227 465 57
3 57 465 236
3 240 473 61
3 236 467 62
3 62 467 239
3 237 472 63
3 63 472 241
3 135 468 134
3 468 475 134
3 136 466 135
3 466 468 135
3 137 469 136
3 136 469 466
3 138 470 137
3 137 470 469
3 138 473 470
3 227 475 465
3 465 467 236
3 238 477 237
3 237 477 472
3 239 463 238
3 463 477 238
3 239 467 463
3 241 464 240
3 464 473 240
3 241 472 464
3 467 474 463
3 474 476 463
3 476 477 463
3 469 470 464
3 464 471 469
3 470 473 464
3 464 472 471
3 465 474 467
3 468 474 465
3 465 475 468
3 466 474 468
3 469 476 466
3 466 476 474
3 471 476 469
3 472 477 471
3 471 477 476
3 141 488 16
3 16 488 155
3 39 487 144
3 207 487 39
3 155 480 41
3 41 480 242
3 55 481 207
3 246 481 55
3 242 482 64
3 64 482 245
3 243 486 65
3 65 486 246
3 142 483 141
3 483 488 141
3 143 484 142
3 142 484 483
3 144 479 143
3 479 484 143
3 144 487 479
3 155 488 480
3 481 487 207
3 480 482 242
3 244 489 243
3 243 489 486
3 245 478 244
3 478 489 244
3 245 482 478
3 246 486 481
3 482 490 478
3 485 489 478
3 478 490 485
3 481 485 479
3 479 487 481
3 479 485 484
3 480 490 482
3 480 488 483
3 483 490 480
3 481 486 485
3 484 490 483
3 485 490 484
3 486 489 485
3 201 40 153
3 154 41 242
3 201 493 52
3 52 493 248
3 64 492 242
3 247 492 64
3 154 491 153
3 153 493 201
3 491 493 153
3 242 492 154
3 154 492 491
3 248 491 247
3 491 492 247
3 248 493 491
3 173 42 164
3 165 43 200
3 173 496 45
3 45 496 249
3 51 495 200
3 250 495 51
3 165 494 164
3 164 496 173
3 494 496 164
3 200 495 165
3 165 495 494
3 249 494 250
3 249 496 494
3 494 495 250
3 172 506 44
3 44 506 183
3 45 507 169
3 249 507 45
3 182 508 48
3 48 508 196
3 199 505 51
3 51 505 250
3 169 504 170
3 169 507 504
3 170 500 171
3 170 504 500
3 171 501 172
3 500 501 171
3 501 506 172
3 183 499 182
3 499 508 182
3 183 506 499
3 196 503 197
3 196 508 503
3 197 497 198
3 197 503 497
3 198 502 199
3 497 502 198
3 502 505 199
3 250 498 249
3 498 507 249
3 250 505 498
3 497 501 500
3 500 502 497
3 497 503 501
3 502 504 498
3 498 505 502
3 504 507 498
3 501 503 499
3 499 506 501
3 503 508 499
3 500 504 502
3 46 509 49
3 176 509 46
3 50 511 47
3 47 511 174
3 49 509 192
3 190 511 50
3 174 512 175
3 174 511 190
3 190 512 174
3 175 510 176
3 191 510 175
3 175 512 191
3 192 509 176
3 176 510 192
3 191 512 190
3 192 510 191
3 248 204 52
3 202 519 53
3 53 519 252
3 245 520 64
3 64 520 247
3 65 521 243
3 251 521 65
3 203 516 202
3 516 519 202
3 204 518 203
3 203 518 516
3 248 518 204
3 243 515 244
3 243 521 515
3 244 517 245
3 515 517 244
3 517 520 245
3 247 514 248
3 247 520 514
3 514 518 248
3 252 513 251
3 513 521 251
3 252 519 513
3 513 516 515
3 515 521 513
3 513 519 516
3 514 517 516
3 516 518 514
3 514 520 517
3 516 517 515
3 53 523 205
3 252 523 53
3 209 54 205
3 246 55 208
3 246 524 65
3 65 524 251
3 205 523 209
3 209 522 208
3 208 524 246
3 522 524 208
3 209 523 522
3 251 522 252
3 251 524 522
3 522 523 252
3 225 228 56
3 226 57 236
3 228 526 58
3 58 526 254
3 62 527 236
3 253 527 62
3 226 525 225
3 225 526 228
3 525 526 225
3 236 527 226
3 226 527 525
3 254 525 253
3 525 527 253
3 254 526 525
3 254 231 58
3 229 534 59
3 59 534 256
3 239 535 62
3 62 535 253
3 63 536 237
3 255 536 63
3 230 531 229
3 531 534 229
3 231 533 230
3 230 533 531
3 254 533 231
3 237 530 238
3 237 536 530
3 238 532 239
3 530 532 238
3 532 535 239
3 253 529 254
3 253 535 529
3 529 533 254
3 256 528 255
3 528 536 255
3 256 534 528
3 528 531 530
3 530 536 528
3 528 534 531
3 529 532 531
3 531 533 529
3 529 535 532
3 531 532 530
3 59 542 233
3 256 542 59
3 232 543 60
3 60 543 235
3 234 541 61
3 61 541 240
3 241 544 63
3 63 544 255
3 233 537 232
3 537 543 232
3 233 542 537
3 235 540 234
3 540 541 234
3 235 543 540
3 240 538 241
3 240 541 538
3 538 544 241
3 255 539 256
3 255 544 539
3 539 542 256
3 539 540 537
3 537 542 539
3 540 543 537
3 538 540 539
3 539 544 538
3 538 541 540
4 225 221 56 93
4 459 453 534 549
4 74 73 257 40
4 535 463 467 548
4 103 102 54 291
4 83 82 43 273
4 226 57 219 91
4 154 41 147 71
4 525 535 527 548
4 149 40 153 73
4 427 424 519 545
4 214 209 54 102
4 489 515 545 558
4 303 413 343 347
4 91 90 278 57
4 486 489 515 545
4 71 70 258 41
4 303 343 413 550
4 253 527 525 535
4 160 165 43 82
4 88 87 86 548
4 508 182 415 553
4 505 495 498 546
4 407 409 505 546
4 84 85 77 298
4 463 548 535 557
4 55 208 212 100
4 454 446 542 555
4 498 495 494 546
4 494 496 498 546
4 344 67 348 547
4 507 498 496 546
4 446 537 542 555
4 312 343 393 550
4 42 164 158 80
4 516 427 519 545
4 100 99 55 292
4 515 513 521 545
4 535 467 527 548
4 453 454 534 555
4 453 534 549 555
4 250 495 498 505
4 446 454 453 555
4 449 526 548 557
4 515 521 486 545
4 80 274 79 42
4 344 426 67 547
4 250 495 494 498
4 249 498 494 496
4 408 412 402 550
4 477 476 463 557
4 249 507 498 496
4 252 519 523 522
4 497 408 402 550
4 167 376 550 553
4 330 548 466 549
4 407 505 502 546
4 503 508 415 553
4 543 455 235 552
4 181 386 413 550
4 408 497 503 550
4 466 548 476 549
4 155 16 350 69
4 524 513 522 545
4 463 474 467 548
4 67 66 348 547
4 252 519 522 513
4 235 345 299 552
4 513 545 515 558
4 251 522 524 513
4 348 66 67 68
4 537 539 542 555
4 423 427 416 558
4 227 36 442 89
4 402 550 412 551
4 303 413 386 550
4 446 453 549 555
4 410 181 413 550
4 101 294 100 208
4 80 81 276 164
4 280 92 91 226
4 260 72 71 154
4 521 513 524 545
4 167 550 393 553
4 408 503 415 553
4 523 522 519 545
4 206 30 429 98
4 548 549 448 557
4 526 529 525 548
4 410 408 415 553
4 167 373 376 553
4 85 411 314 546
4 420 547 416 558
4 524 521 251 513
4 516 416 427 558
4 519 522 513 545
4 476 466 474 548
4 166 26 361 78
4 33 224 441 95
4 477 549 476 557
4 498 502 505 546
4 449 529 526 557
4 427 423 424 545
4 66 488 297 547
4 410 415 180 553
4 84 85 298 546
4 534 454 542 555
4 532 477 463 557
4 456 447 87 548
4 345 235 455 552
4 507 498 546 556
4 39 207 430 96
4 371 375 550 556
4 300 448 548 549
4 476 549 548 557
4 339 468 330 548
4 519 513 516 545
4 420 547 558 560
4 88 86 295 548
4 297 348 66 547
4 371 550 501 556
4 529 535 525 548
4 420 428 416 547
4 453 454 459 534
4 521 524 486 545
4 532 463 535 557
4 373 550 376 553
4 295 86 475 548
4 235 299 462 552
4 3 74 75 349
4 11 94 95 441
4 414 546 407 556
4 489 545 485 558
4 371 365 375 556
4 326 369 366 551
4 402 414 407 556
4 423 554 545 558
4 390 550 410 553
4 502 407 546 556
4 326 366 546 551
4 300 548 330 549
4 505 409 495 546
4 463 474 548 557
4 529 253 525 535
4 446 552 537 555
4 408 550 503 553
4 87 311 456 548
4 537 446 543 552
4 532 530 477 557
4 424 523 519 545
4 529 548 526 557
4 416 547 428 558
4 463 476 474 557
4 29 152 349 75
4 420 416 518 558
4 507 496 372 546
4 476 548 474 557
4 513 516 545 558
4 486 485 489 545
4 339 295 468 548
4 386 390 393 550
4 420 558 518 560
4 455 543 446 552
4 393 550 390 553
4 324 483 484 547
4 85 314 77 298
4 410 180 390 553
4 324 547 484 554
4 549 552 446 555
4 456 338 450 548
4 235 540 543 552
4 410 550 408 553
4 339 330 318 548
4 452 446 451 552
4 451 446 453 549
4 471 476 477 549
4 480 488 66 547
4 497 501 550 556
4 19 163 362 76
4 497 501 503 550
4 534 528 531 555
4 349 3 28 120
4 2 17 106 350
4 11 32 441 126
4 107 18 4 362
4 98 103 15 429
4 78 83 7 361
4 525 526 254 529
4 526 447 449 548
4 475 86 465 548
4 365 371 500 556
4 468 466 330 548
4 140 38 12 430
4 371 501 550 553
4 87 88 311 548
4 467 465 527 548
4 67 426 418 547
4 526 449 254 529
4 139 10 37 442
4 493 547 420 560
4 367 375 369 551
4 535 548 529 557
4 447 279 87 548
4 324 297 488 547
4 457 548 448 557
4 453 549 459 557
4 324 488 483 547
4 471 549 477 555
4 508 499 182 553
4 88 295 318 548
4 421 426 344 547
4 295 475 468 548
4 367 550 375 551
4 418 420 493 547
4 455 446 452 552
4 329 451 549 552
4 335 452 451 552
4 388 182 392 553
4 379 384 21 184
4 380 177 24 401
4 297 324 348 547
4 453 459 458 557
4 537 543 540 552
4 67 418 259 547
4 393 303 343 312
4 234 462 299 552
4 372 507 546 556
4 448 457 450 548
4 210 12 38 430
4 349 28 3 151
4 17 2 145 350
4 156 4 18 362
4 441 32 11 223
4 217 37 10 442
4 446 549 451 552
4 256 534 542 555
4 374 84 298 546
4 402 551 414 556
4 423 416 554 558
4 501 503 550 553
4 234 299 346 552
4 314 298 85 546
4 339 318 295 548
4 513 515 516 558
4 330 300 318 548
4 498 502 546 556
4 539 537 552 555
4 346 234 462 299
4 468 474 466 548
4 540 235 462 552
4 369 377 366 551
4 277 279 87 447
4 328 343 312 550
4 345 462 235 299
4 507 504 498 556
4 458 448 549 557
4 311 338 456 548
4 377 546 366 551
4 338 318 300 548
4 371 501 500 556
4 367 369 304 551
4 411 85 405 546
4 484 554 547 558
4 409 407 414 546
4 416 428 554 558
4 167 393 387 553
4 525 225 526 548
4 527 226 525 548
4 480 66 260 547
4 526 225 447 548
4 391 410 180 390
4 388 390 180 553
4 419 105 293 545
4 418 493 153 547
4 527 465 226 548
4 503 499 508 553
4 404 327 406 551
4 414 551 546 556
4 329 335 451 552
4 15 31 429 216
4 361 7 27 162
4 465 86 280 548
4 67 418 257 259
4 453 458 549 557
4 66 67 259 547
4 275 405 85 546
4 457 448 458 557
4 328 312 376 550
4 256 542 539 555
4 329 451 448 549
4 531 555 530 557
4 524 522 208 545
4 209 522 523 545
4 165 494 495 546
4 496 494 164 546
4 529 532 535 557
4 370 504 507 556
4 485 545 479 554
4 450 447 456 548
4 490 484 547 558
4 484 485 479 554
4 483 488 480 547
4 429 31 15 125
4 361 27 7 119
4 374 298 366 546
4 335 299 345 552
4 234 540 462 552
4 372 370 507 556
4 424 419 523 545
4 326 304 369 551
4 324 484 301 554
4 475 465 468 548
4 490 484 483 547
4 311 88 318 548
4 295 318 311 88
4 323 479 545 554
4 330 466 306 549
4 85 84 275 546
4 374 368 84 546
4 218 219 57 436
4 147 356 41 146
4 298 326 366 546
4 533 529 449 557
4 293 102 291 209
4 275 82 273 165
4 346 473 234 552
4 403 310 411 546
4 105 545 419 559
4 474 465 467 548
4 449 548 457 557
4 484 479 301 554
4 531 528 530 555
4 375 551 550 556
4 306 466 469 549
4 278 91 57 280
4 388 392 390 553
4 447 457 449 548
4 258 71 41 260
4 326 546 310 551
4 279 86 87 548
4 411 310 314 546
4 300 329 448 549
4 234 473 541 552
4 100 292 55 294
4 346 461 234 473
4 66 259 260 547
4 547 554 428 558
4 92 221 289 438
4 81 158 267 358
4 183 182 499 553
4 369 551 375 556
4 80 274 42 276
4 93 92 221 289
4 426 67 1 344
4 393 390 387 553
4 460 455 345 235
4 480 547 260 560
4 486 524 481 545
4 2 17 145 355
4 10 37 217 434
4 353 3 28 151
4 31 15 435 216
4 72 149 271 357
4 344 348 308 547
4 469 549 471 552
4 277 87 456 447
4 423 416 428 554
4 368 276 84 546
4 471 552 549 555
4 539 537 540 552
4 310 546 403 551
4 105 419 425 559
4 209 523 419 545
4 329 549 306 552
4 25 181 380 397
4 425 545 417 559
4 81 160 357 271
4 497 500 501 556
4 167 20 379 395
4 309 550 328 551
4 165 495 405 546
4 496 164 368 546
4 447 225 279 548
4 226 465 280 548
4 546 551 377 556
4 311 318 338 548
4 105 293 545 559
4 294 104 481 545
4 376 367 328 550
4 409 405 495 546
4 372 496 368 546
4 421 344 308 547
4 93 279 277 225
4 73 259 257 153
4 259 418 153 547
4 73 72 149 271
4 421 418 426 547
4 293 104 294 545
4 275 84 276 546
4 461 234 462 346
4 493 420 248 560
4 80 81 158 267
4 101 214 438 289
4 437 92 219 285
4 72 147 358 267
4 412 550 404 551
4 545 554 485 558
4 371 550 373 553
4 182 183 392 553
4 479 545 487 559
4 280 86 279 548
4 82 81 271 160
4 480 260 154 560
4 325 422 421 554
4 327 310 406 551
4 524 208 481 545
4 210 38 12 434
4 156 18 4 355
4 353 27 7 162
4 435 11 32 223
4 469 466 476 549
4 406 310 403 551
4 404 550 309 551
4 462 460 345 235
4 279 525 226 548
4 369 377 551 556
4 428 547 421 554
4 413 181 303 386
4 418 428 420 547
4 485 554 484 558
4 259 491 154 560
4 403 546 414 551
4 404 309 327 551
4 350 16 106 69
4 525 279 225 548
4 481 545 104 559
4 277 95 224 9
4 314 6 411 85
4 371 375 373 550
4 410 412 408 550
4 323 301 479 554
4 458 448 451 549
4 425 419 417 545
4 101 294 208 293
4 81 276 164 275
4 451 453 458 549
4 102 101 289 214
4 417 545 423 554
4 471 469 476 549
4 522 293 208 545
4 275 164 494 546
4 418 426 67 257
4 404 116 406 327
4 39 140 96 430
4 372 546 377 556
4 330 306 300 549
4 308 547 324 554
4 257 75 152 1
4 506 378 183 553
4 209 293 522 545
4 165 275 494 546
4 442 36 139 89
4 449 533 254 529
4 104 545 293 559
4 8 295 86 475
4 534 256 528 555
4 234 541 540 552
4 87 9 456 311
4 518 416 516 558
4 306 549 469 552
4 373 167 387 553
4 209 419 293 545
4 11 94 223 287
4 7 83 269 162
4 291 425 105 419
4 421 547 308 554
4 68 348 66 297
4 78 273 166 6
4 447 450 457 548
4 447 277 279 225
4 474 468 465 548
4 445 449 457 557
4 306 469 470 552
4 66 0 297 488
4 374 366 368 546
4 403 411 405 546
4 98 291 206 14
4 33 441 126 95
4 412 404 406 551
4 323 554 545 559
4 419 545 425 559
4 91 219 92 285
4 72 71 147 267
4 165 405 275 546
4 248 420 518 560
4 376 373 367 550
4 413 404 410 550
4 149 148 357 72
4 220 221 92 438
4 159 158 81 358
4 98 30 429 125
4 487 481 104 559
4 369 375 377 556
4 346 299 336 552
4 280 92 226 279
4 260 72 154 259
4 314 310 298 546
4 368 164 276 546
4 298 310 326 546
4 370 372 377 556
4 445 533 449 557
4 464 469 471 552
4 423 419 424 545
4 168 183 378 553
4 306 470 336 552
4 257 418 153 259
4 538 541 464 552
4 78 26 361 119
4 385 392 183 553
4 487 479 481 545
4 29 349 120 75
4 300 306 329 549
4 13 487 104 559
4 464 552 471 555
4 480 490 483 547
4 428 421 422 554
4 294 481 208 545
4 273 405 411 85
4 487 545 481 559
4 539 540 538 552
4 168 373 387 553
4 421 428 418 547
4 280 279 226 548
4 309 328 304 551
4 19 107 76 362
4 208 293 294 545
4 275 276 164 546
4 329 306 335 552
4 148 147 358 72
4 437 92 220 219
4 160 81 357 159
4 213 214 438 101
4 324 484 483 142
4 323 545 479 559
4 417 422 307 554
4 3 74 151 269
4 15 103 287 216
4 325 421 308 554
4 501 499 503 553
4 406 403 414 551
4 419 423 417 545
4 136 469 306 466
4 539 552 538 555
4 192 49 396 509
4 373 375 367 550
4 412 410 404 550
4 190 50 511 394
4 298 5 84 374
4 251 252 522 513
4 480 490 547 560
4 306 330 136 466
4 473 464 541 552
4 402 412 414 551
4 308 348 324 547
4 480 154 492 560
4 481 485 486 545
4 304 326 310 551
4 414 405 409 546
4 377 372 368 546
4 540 462 235 234
4 378 44 506 183
4 536 477 530 555
4 514 518 558 560
4 540 541 538 552
4 489 517 515 558
4 135 330 339 468
4 323 307 554 559
4 401 193 23 397
4 366 369 326 109
4 414 403 405 546
4 366 377 368 546
4 384 395 22 187
4 504 370 170 556
4 49 189 396 381
4 484 301 479 143
4 44 378 168 183
4 536 472 477 555
4 417 423 422 554
4 122 422 421 325
4 459 531 445 557
4 307 422 325 554
4 14 425 317 105
4 309 304 327 551
4 50 398 394 195
4 168 387 390 553
4 365 170 370 556
4 459 445 458 557
4 371 378 506 553
4 110 369 304 367
4 470 469 306 137
4 180 388 391 390
4 481 479 485 545
4 530 532 531 557
4 248 518 514 560
4 489 478 517 558
4 392 512 190 191
4 306 336 470 137
4 327 404 116 309
4 307 417 123 422
4 373 387 167 168
4 471 477 472 555
4 308 324 301 554
4 531 459 445 230
4 389 183 168 553
4 309 343 328 550
4 195 400 388 194
4 315 77 314 340
4 494 250 498 249
4 307 425 417 559
4 464 470 469 552
4 385 390 392 553
4 498 504 502 556
4 465 278 86 475
4 480 258 66 488
4 385 510 191 192
4 181 410 180 391
4 304 328 110 367
4 508 182 48 415
4 296 487 13 559
4 478 482 520 560
4 544 538 464 555
4 517 478 520 560
4 87 456 9 277
4 397 303 181 386
4 25 181 397 303
4 426 1 67 257
4 324 483 488 141
4 490 485 484 558
4 538 552 464 555
4 175 510 183 176
4 174 512 182 175
4 273 411 6 85
4 128 448 450 338
4 238 532 477 463
4 492 482 480 560
4 297 324 488 141
4 105 14 425 291
4 256 539 528 555
4 422 123 307 325
4 544 464 472 555
4 105 104 293 559
4 327 304 310 551
4 390 389 168 553
4 497 503 197 408
4 197 497 408 402
4 324 301 484 142
4 393 395 312 167
4 480 482 490 560
4 323 479 487 559
4 387 187 383 188
4 490 558 547 560
4 385 183 389 553
4 311 313 305 88
4 188 189 382 389
4 428 422 423 554
4 404 413 115 347
4 473 470 464 552
4 425 317 105 559
4 329 129 448 451
4 336 299 335 552
4 193 399 194 391
4 446 233 454 542
4 448 128 300 338
4 544 241 472 464
4 411 403 118 310
4 238 532 530 477
4 517 558 478 560
4 468 135 330 466
4 478 490 482 560
4 470 336 346 138
4 301 323 479 143
4 233 446 537 542
4 470 346 473 138
4 167 20 395 312
4 255 528 256 539
4 492 154 491 560
4 500 371 365 171
4 241 544 538 464
4 444 89 227 442
4 465 278 280 86
4 406 414 412 551
4 517 489 515 244
4 248 491 493 560
4 478 558 490 560
4 184 167 383 185
4 177 178 399 181
4 335 306 336 552
4 65 524 521 251
4 69 351 350 155
4 258 66 260 480
4 314 411 118 310
4 389 168 387 390
4 176 44 46 509
4 48 47 511 174
4 543 232 446 537
4 371 506 501 553
4 506 378 371 172
4 538 240 464 541
4 526 449 447 228
4 245 520 478 482
4 508 196 503 415
4 421 122 325 308
4 536 530 528 555
4 253 525 254 529
4 62 527 253 535
4 84 274 368 374
4 329 448 129 300
4 311 305 295 88
4 369 304 326 109
4 393 303 312 113
4 249 45 507 496
4 104 292 481 487
4 544 472 536 555
4 239 535 463 467
4 308 301 325 554
4 517 478 489 244
4 402 198 497 407
4 462 461 346 132
4 535 62 527 467
4 467 236 527 465
4 201 420 493 418
4 274 276 84 368
4 472 237 536 477
4 460 345 133 462
4 457 458 445 557
4 121 421 426 344
4 183 499 506 553
4 489 485 478 558
4 179 180 400 178
4 382 186 185 168
4 363 76 362 163
4 427 516 203 416
4 315 6 26 314
4 390 385 389 553
4 528 539 255 555
4 294 292 481 104
4 96 431 207 430
4 425 417 124 307
4 0 66 258 488
4 50 398 511 394
4 524 486 65 521
4 493 153 201 418
4 196 503 415 408
4 225 526 447 228
4 323 487 296 559
4 53 252 519 523
4 86 278 8 475
4 20 167 376 312
4 131 455 452 345
4 531 533 445 557
4 398 47 48 179
4 186 46 44 381
4 232 455 543 446
4 274 84 5 374
4 544 539 538 555
4 240 464 541 473
4 517 516 515 558
4 301 323 307 554
4 104 13 292 487
4 504 170 500 556
4 236 226 527 465
4 63 536 544 472
4 544 536 255 555
4 500 170 365 556
4 533 531 445 230
4 64 247 520 482
4 375 365 377 556
4 523 519 53 424
4 247 64 492 482
4 307 325 301 554
4 51 495 250 505
4 3 74 349 151
4 11 94 441 223
4 480 492 154 242
4 425 307 317 559
4 164 496 368 173
4 200 165 495 405
4 242 480 492 482
4 447 56 225 228
4 132 346 462 299
4 393 386 303 113
4 516 514 518 558
4 385 396 389 183
4 111 328 312 376
4 424 523 419 205
4 514 516 517 558
4 371 500 501 171
4 112 395 20 312
4 45 372 507 496
4 419 523 209 205
4 507 370 372 169
4 472 464 471 555
4 462 345 133 299
4 226 236 57 465
4 493 420 52 248
4 323 296 487 144
4 335 131 452 345
4 501 506 371 172
4 309 404 115 347
4 127 456 311 338
4 15 103 216 429
4 7 83 162 361
4 542 59 454 534
4 370 507 504 169
4 51 495 505 409
4 40 201 153 418
4 393 395 112 312
4 237 530 536 477
4 114 303 25 397
4 378 371 373 553
4 154 41 480 242
4 198 502 497 407
4 168 378 373 553
4 136 306 469 137
4 456 127 450 338
4 536 255 63 544
4 323 487 479 144
4 509 49 396 381
4 316 1 29 315
4 524 208 246 481
4 447 56 277 225
4 199 505 407 409
4 535 532 239 463
4 500 502 504 556
4 246 486 524 481
4 532 529 531 557
4 502 500 497 556
4 153 40 418 257
4 124 425 307 317
4 478 485 490 558
4 315 262 77 261
4 328 111 367 376
4 131 455 345 460
4 520 517 245 478
4 29 322 315 265
4 496 372 368 173
4 409 200 495 405
4 465 57 226 280
4 345 34 131 460
4 231 58 449 254
4 254 58 449 526
4 165 200 43 405
4 164 368 42 173
4 305 8 36 295
4 480 260 41 154
4 248 420 52 204
4 68 261 262 302
4 209 54 419 205
4 505 502 199 407
4 449 533 231 254
4 305 284 341 320
4 475 8 295 134
4 88 8 295 86
4 261 340 315 302
4 544 255 539 555
4 487 13 39 144
4 384 20 395 379
4 42 276 368 164
4 248 247 491 560
4 346 35 461 473
4 514 517 520 560
4 36 8 475 134
4 180 400 195 179
4 57 219 91 436
4 43 165 405 273
4 534 542 59 256
4 356 147 41 71
4 248 518 420 204
4 118 6 411 314
4 374 298 5 108
4 401 25 380 397
4 419 291 54 209
4 84 77 5 298
4 506 499 501 553
4 14 30 124 425
4 397 114 303 386
4 514 558 517 560
4 483 324 142 141
4 121 421 344 308
4 528 255 536 555
4 531 534 459 229
4 208 55 246 481
4 533 445 449 231
4 262 315 68 302
4 487 296 13 144
4 519 516 202 427
4 394 182 392 388
4 118 6 26 411
4 503 196 197 408
4 374 5 19 108
4 201 420 52 493
4 365 370 377 556
4 416 516 203 518
4 534 454 459 229
4 346 35 473 138
4 533 531 529 557
4 455 131 34 460
4 134 135 339 468
4 78 83 361 166
4 283 342 319 313
4 481 208 55 294
4 98 103 429 206
4 315 322 26 265
4 203 202 516 427
4 296 39 13 144
4 8 36 295 134
4 456 224 9 277
4 535 239 62 467
4 118 26 6 314
4 266 340 302 321
4 229 459 531 230
4 6 166 411 273
4 426 152 1 257
4 123 124 417 307
4 315 262 261 302
4 298 314 77 340
4 311 9 33 313
4 9 127 456 311
4 226 220 92 219
4 148 154 147 72
4 159 164 81 158
4 220 225 92 221
4 209 213 101 214
4 148 153 72 149
4 160 81 159 165
4 116 117 406 327
4 403 117 118 310
4 315 1 29 265
4 111 312 20 376
4 33 9 127 456
4 302 316 68 297
4 298 19 5 108
4 206 425 14 291
4 448 128 129 300
4 171 501 371 172
4 340 315 77 261
4 301 484 142 143
4 53 523 424 205
4 135 136 330 466
4 170 370 504 169
4 277 456 224 447
4 312 112 393 113
4 111 110 328 367
4 68 66 0 297
4 520 245 64 482
4 329 130 129 451
4 480 258 488 155
4 246 486 65 524
4 57 465 278 280
4 68 315 316 302
4 227 278 465 475
4 491 153 259 154
4 225 279 525 226
4 258 260 41 480
4 247 492 491 560
4 144 479 323 143
4 536 63 237 472
4 178 399 181 391
4 383 167 387 185
4 344 1 29 316
4 297 0 16 488
4 108 366 326 109
4 202 519 427 424
4 361 83 364 166
4 138 470 336 137
4 429 103 432 206
4 63 544 241 472
4 298 5 19 340
4 454 233 59 542
4 48 196 508 415
4 42 276 274 368
4 526 58 449 228
4 452 130 131 335
4 488 16 297 141
4 422 122 123 325
4 486 65 521 243
4 233 446 232 537
4 382 189 186 389
4 1 29 426 344
4 198 199 502 407
4 240 241 538 464
4 248 514 247 560
4 399 178 194 391
4 532 238 239 463
4 530 237 238 477
4 387 383 185 188
4 388 180 400 195
4 337 313 282 305
4 275 165 494 164
4 208 209 293 522
4 22 20 395 384
4 284 305 36 320
4 317 323 296 559
4 518 416 420 204
4 62 236 527 467
4 401 23 25 397
4 404 115 116 309
4 292 481 55 294
4 191 183 182 175
4 372 45 507 169
4 97 104 105 559
4 152 426 418 257
4 132 462 133 299
4 244 489 515 243
4 14 342 282 97
4 35 61 461 473
4 455 34 60 460
4 425 124 14 317
4 9 33 127 311
4 316 348 68 297
4 109 369 304 110
4 182 392 183 191
4 115 413 25 347
4 421 121 122 308
4 168 186 44 396
4 426 29 121 344
4 282 337 305 281
4 56 224 277 94
4 124 30 14 317
4 277 224 56 447
4 97 281 13 341
4 511 398 48 394
4 97 105 317 559
4 315 26 6 265
4 496 45 372 173
4 495 51 200 409
4 163 368 274 374
4 365 500 171 170
4 291 206 425 419
4 311 87 9 88
4 394 180 195 179
4 418 40 152 257
4 168 382 186 389
4 180 394 48 179
4 314 77 6 85
4 207 481 292 487
4 497 197 198 402
4 405 411 166 273
4 105 317 14 97
4 478 517 245 244
4 305 36 8 284
4 97 317 337 296
4 242 492 64 482
4 6 315 77 314
4 506 44 378 172
4 302 0 16 297
4 127 128 450 338
4 425 14 30 206
4 207 13 39 487
4 340 266 19 321
4 274 5 163 374
4 54 206 291 419
4 166 26 6 411
4 5 77 261 340
4 520 247 514 560
4 307 323 317 559
4 152 40 74 257
4 317 296 97 559
4 319 33 283 313
4 345 133 34 460
4 505 199 51 409
4 405 166 43 273
4 278 465 57 227
4 379 395 384 187
4 302 16 266 321
4 401 380 193 397
4 16 155 488 0
4 6 315 262 77
4 41 258 480 155
4 305 313 282 88
4 291 206 54 103
4 36 227 475 8
4 207 292 13 487
4 346 461 35 132
4 83 43 166 273
4 16 155 0 69
4 9 282 313 88
4 14 342 283 282
4 68 0 261 302
4 368 274 42 163
4 509 396 44 381
4 88 8 281 305
4 186 168 389 396
4 282 337 281 97
4 392 385 183 191
4 183 396 176 192
4 36 227 8 89
4 281 305 282 88
4 182 512 190 392
4 389 189 186 396
4 8 278 227 475
4 386 114 303 113
4 224 56 443 94
4 488 258 0 155
4 224 33 456 9
4 114 25 23 397
4 94 441 223 443
4 74 349 151 352
4 163 5 19 374
4 13 281 284 341
4 292 55 481 207
4 510 183 385 191
4 181 397 386 391
4 313 282 342 337
4 95 98 319 283
4 541 61 240 473
4 60 455 543 232
4 395 20 22 112
4 15 95 98 319
4 224 33 9 95
4 1 29 152 426
4 295 305 8 88
4 266 0 16 302
4 15 95 319 11
4 519 202 53 424
4 342 319 30 283
4 400 180 388 194
4 392 182 512 191
4 73 72 153 149
4 93 92 225 221
4 206 14 30 98
4 96 13 39 207
4 1 315 262 265
4 534 59 454 229
4 82 81 160 165
4 102 101 214 209
4 183 396 44 176
4 190 174 182 394
4 180 388 394 195
4 298 77 5 340
4 166 6 26 78
4 395 393 387 167
4 337 282 342 97
4 337 305 281 341
4 190 174 512 182
4 176 510 183 192
4 385 183 510 192
4 361 83 162 364
4 429 103 216 432
4 283 33 9 313
4 185 167 387 168
4 74 40 152 352
4 80 81 164 158
4 72 71 154 147
4 226 219 92 91
4 19 5 266 340
4 181 180 178 391
4 191 510 183 175
4 191 182 512 175
4 152 29 1 75
4 342 14 30 317
4 96 320 284 89
4 0 266 261 302
4 39 13 284 341
4 340 5 266 261
4 342 30 14 283
4 89 12 96 320
4 337 281 97 341
4 262 315 6 265
4 182 174 48 394
4 89 10 12 320
4 231 533 445 230
4 302 68 0 297
4 5 19 76 163
4 282 283 9 313
4 183 385 396 192
4 180 194 178 391
4 296 97 13 341
4 341 284 39 320
4 188 185 387 168
4 334 106 321 263
4 321 107 334 263
4 13 39 296 341
4 313 311 9 88
4 518 203 416 204
4 190 182 392 394
4 192 396 44 509
4 125 332 15 319
4 126 11 332 319
4 396 189 44 381
4 187 167 387 383
4 399 193 181 391
4 139 10 320 333
4 194 180 388 391
4 190 511 48 394
4 103 206 54 432
4 140 320 12 333
4 190 48 511 174
4 192 44 176 509
4 317 342 14 97
4 266 340 261 302
4 189 186 44 381
4 98 14 30 283
4 166 43 83 364
4 284 36 8 89
4 337 97 296 341
4 394 398 48 195
4 195 398 48 179
4 284 13 39 96
4 168 188 382 389
4 225 56 277 93
4 281 305 8 284
4 184 379 384 187
4 380 193 177 401
4 342 317 337 97
4 226 57 91 280
4 260 41 154 71
4 266 16 0 69
4 10 12 320 333
4 33 9 95 283
4 436 57 218 290
4 272 41 356 146
4 120 322 264 331
4 153 73 40 257
4 168 387 188 389
4 291 54 209 102
4 380 181 193 397
4 395 379 167 187
4 100 55 208 294
4 398 48 47 511
4 509 44 46 381
4 264 322 119 331
4 509 46 49 381
4 332 11 15 319
4 384 21 20 379
4 24 25 380 401
4 165 43 82 273
4 398 47 50 511
4 78 6 26 265
4 284 281 305 341
4 164 42 276 80
4 319 98 30 283
4 90 57 218 444
4 70 351 41 146
4 94 56 443 222
4 288 210 12 434
4 216 103 287 433
4 126 95 11 319
4 15 98 125 319
4 15 287 435 216
4 269 3 353 151
4 289 92 438 101
4 92 437 101 285
4 358 81 72 267
4 151 354 269 74
4 435 287 11 223
4 269 353 7 162
4 269 354 162 83
4 271 357 81 72
4 99 440 210 288
4 319 33 95 283
4 270 156 4 355
4 360 156 79 270
4 360 70 145 270
4 75 29 1 265
4 10 217 288 434
4 223 287 94 433
4 2 145 270 355
4 217 440 90 288
4 211 55 99 431
4 74 150 40 352
4 181 193 177 380
4 184 167 379 187
4 363 79 42 157
4 5 19 266 76
4 119 7 264 331
4 120 264 3 331
4 195 48 394 179
4 36 284 320 89
4 139 320 10 89
4 12 320 140 96
4 189 44 186 396
4 174 190 48 394
4 320 284 39 96
4 387 395 167 187
4 342 283 282 313
4 176 396 44 192
4 397 181 193 391
4 98 30 125 319
4 57 436 91 290
4 71 272 41 356
4 25 24 23 401
4 20 22 21 384
4 322 78 26 265
4 4 334 107 263
4 106 334 2 263
4 126 33 95 319
4 185 188 382 168
4 29 75 322 265
4 37 38 434 333
4 400 180 194 178
4 321 16 266 69
4 321 106 16 69
4 36 320 139 89
4 69 321 106 263
4 107 321 76 263
4 79 70 360 270
4 103 94 287 433
4 269 354 83 74
4 288 12 10 434
4 353 7 3 269
4 11 15 287 435
4 160 357 271 149
4 434 38 12 333
4 214 221 438 289
4 358 147 158 267
4 75 3 120 264
4 7 78 119 264
4 440 99 90 288
4 140 320 39 96
4 10 37 434 333
4 165 275 81 164
4 208 293 209 101
4 4 76 263 107
4 2 69 106 263
4 72 259 153 154
4 225 92 279 226
4 98 429 15 125
4 7 78 361 119
4 223 216 287 433
4 151 269 354 162
4 353 269 151 162
4 287 435 216 223
4 217 210 288 434
4 270 4 2 355
4 145 156 270 355
4 145 156 360 270
4 440 217 210 288
4 187 184 167 383
4 193 177 399 181
4 27 28 353 331
4 264 75 322 120
4 434 12 10 333
4 73 82 359 268
4 93 286 102 439
4 353 7 27 331
4 322 26 78 119
4 322 75 29 120
4 332 32 31 435
4 353 28 3 331
4 322 78 264 119
4 4 76 107 362
4 11 441 95 126
4 2 69 350 106
4 75 3 349 120
4 266 19 321 76
4 27 7 119 331
4 120 3 28 331
4 96 140 12 430
4 321 19 107 76
4 215 439 286 222
4 359 161 150 268
4 10 139 89 442
4 332 11 32 435
4 146 356 272 157
4 218 211 436 290
4 31 15 332 435
4 286 94 103 215
4 150 83 74 268
4 218 99 290 90
4 79 70 272 157
4 286 94 215 222
4 150 161 83 268
4 146 272 70 157
4 99 218 290 211
4 433 103 94 215
4 83 354 150 74
4 70 79 360 157
4 99 218 440 90
4 150 161 354 83
4 94 433 215 222
4 146 70 360 157
4 440 211 218 99
4 213 438 92 101
4 81 357 159 72
4 81 159 358 72
4 92 437 213 101
4 75 264 322 265
4 213 92 438 220
4 357 148 159 72
4 159 148 358 72
4 437 92 213 220
4 140 12 38 333
4 18 17 334 355
4 139 37 10 333
4 322 264 78 265
4 432 54 103 215
4 15 31 332 125
4 332 32 11 126
4 8 278 89 227
4 69 0 258 155
4 4 18 334 355
4 334 18 4 107
4 2 17 334 106
4 83 43 161 364
4 334 17 2 355
4 3 7 353 331
4 91 436 100 290
4 71 80 272 356
4 69 266 321 263
4 76 321 266 263
4 271 73 160 149
4 332 15 11 435
4 76 274 5 163
4 96 292 13 207
4 271 73 82 160
4 214 221 289 102
4 102 221 289 93
4 218 57 90 290
4 41 272 70 146
4 267 147 158 80
4 334 2 4 355
4 160 73 359 149
4 214 221 102 439
4 73 359 82 160
4 93 102 221 439
4 267 147 80 71
4 100 91 285 219
4 80 147 158 356
4 219 100 436 212
4 91 100 436 219
4 147 80 71 356
4 7 3 264 331
4 334 4 2 263
4 164 165 159 81
4 82 275 81 165
4 225 226 220 92
4 103 98 291 206
4 93 92 279 225
4 148 153 154 72
4 83 78 273 166
4 259 73 72 153
4 101 102 293 209
4 75 74 257 152
4 209 213 208 101
4 71 70 41 272
4 95 94 277 224
4 94 93 277 56
4 91 90 57 290
4 550 303 393 386
4 550 393 303 343
4 515 486 243 489
4 515 243 486 521
4 390 550 391 410
4 390 391 550 386
4 181 391 550 410
4 181 550 391 386
4 223 222 94 443
4 94 222 223 433
4 150 151 74 354
4 74 151 150 352
4 162 161 83 354
4 83 161 162 364
4 216 215 103 433
4 103 215 216 432
4 556 402 550 497
4 556 550 402 551
4 217 218 90 440
4 90 218 217 444
4 211 210 99 440
4 99 210 211 431
4 156 157 79 363
4 79 157 156 360
4 145 146 70 360
4 70 146 145 351
4 558 427 545 423
4 558 545 427 516
4 451 335 130 452
4 451 130 335 329
4 468 295 134 475
4 468 134 295 339
4 555 557 477 530
4 477 557 555 549
4 338 448 548 300
4 338 548 448 450
4 551 328 367 550
4 551 367 328 304
4 286 93 222 439
4 221 93 222 56
4 221 222 93 439
4 212 211 100 436
4 212 100 211 55
4 290 100 211 436
4 275 273 405 165
4 405 273 275 85
4 291 293 419 105
4 291 419 293 209
4 272 80 157 356
4 158 80 157 42
4 158 157 80 356
4 286 215 102 439
4 214 102 215 439
4 214 215 102 54
4 149 150 73 359
4 149 73 150 40
4 268 73 150 359
4 459 557 534 531
4 459 534 557 549
4 555 534 557 531
4 555 557 534 549
4 160 161 82 43
4 160 82 161 359
4 268 161 82 359
4 493 560 153 547
4 493 153 560 491
4 259 153 560 547
4 259 560 153 491
4 452 345 552 335
4 552 345 452 455
4 560 260 259 547
4 560 259 260 154
4 167 312 550 376
4 167 550 312 393
4 388 415 553 180
4 553 415 388 182
4 406 310 117 403
4 117 310 406 327
4 554 559 417 545
4 417 559 554 307
4 303 413 25 181
4 25 413 303 347
4 13 559 97 296
4 97 559 13 104
4 366 298 108 326
4 366 108 298 374
4 470 346 552 473
4 470 552 346 336
4 497 407 556 402
4 556 407 497 502
4 441 224 94 95
4 441 94 224 443
4 100 212 101 208
4 213 212 101 437
4 213 101 212 208
4 349 152 74 75
4 349 74 152 352
4 404 347 343 413
4 343 347 404 309
4 343 550 404 413
4 404 550 343 309
4 482 247 560 492
4 482 560 247 520
4 234 473 61 541
4 61 473 234 461
4 235 455 60 460
4 235 60 455 543
4 394 180 415 388
4 415 180 394 48
4 415 182 394 388
4 394 182 415 48
4 315 68 1 262
4 1 68 315 316
4 168 396 183 389
4 183 396 168 44
4 348 68 344 316
4 348 344 68 67
4 1 344 68 316
4 1 68 344 67
4 82 83 161 268
4 82 161 83 43
4 93 94 222 56
4 93 222 94 286
4 4 79 156 270
4 2 145 70 270
4 99 100 211 290
4 99 211 100 55
4 10 217 90 288
4 99 210 12 288
4 73 74 150 40
4 73 150 74 268
4 102 103 215 286
4 102 215 103 54
4 79 80 157 272
4 79 157 80 42
4 219 285 212 437
4 219 212 285 100
4 101 212 285 437
4 101 285 212 100
4 145 350 70 351
4 145 70 350 2
4 69 70 350 351
4 69 350 70 2
4 96 430 99 431
4 96 99 430 12
4 210 99 430 431
4 210 430 99 12
4 76 362 79 363
4 76 79 362 4
4 156 79 362 363
4 156 362 79 4
4 217 442 90 444
4 217 90 442 10
4 89 90 442 444
4 89 442 90 10
4 57 90 227 444
4 57 227 90 278
4 89 227 90 444
4 89 90 227 278
4 155 41 70 351
4 70 41 155 258
4 70 69 155 351
4 155 69 70 258
4 79 42 163 363
4 163 42 79 274
4 163 76 79 363
4 79 76 163 274
4 99 55 207 431
4 207 55 99 292
4 207 96 99 431
4 99 96 207 292

CELL_TYPES 3054
1
1
1
1
1
1
1
1
1
1
1
1
1
1
1
1
1
1
1
1
1
1
1
1
1
1
1
1
1
1
1
1
1
1
1
1
1
1
1
1
1
1
1
1
1
1
1
1
1
1
1
1
1
1
1
1
1
1
1
1
1
1
1
1
1
1
3
3
3
3
3
3
3
3
3
3
3
3
3
3
3
3
3
3
3
3
3
3
3
3
3
3
3
3
3
3
3
3
3
3
3
3
3
3
3
3
3
3
3
3
3
3
3
3
3
3
3
3
3
3
3
3
3
3
3
3
3
3
3
3
3
3
3
3
3
3
3
3
3
3
3
3
3
3
3
3
3
3
3
3
3
3
3
3
3
3
3
3
3
3
3
3
3
3
3
3
3
3
3
3
3
3
3
3
3
3
3
3
3
3
3
3
3
3
3
3
3
3
3
3
3
3
3
3
3
3
3
3
3
3
3
3
3
3
3
3
3
3
3
3
3
3
3
3
3
3
3
3
3
3
3
3
3
3
3
3
3
3
3
3
3
3
3
3
3
3
3
3
3
3
3
3
3
3
3
3
3
3
3
3
3
3
3
3
3
3
3
3
3
3
3
3
3
3
3
3
3
3
3
3
3
3
3
3
3
3
3
3
3
3
3
3
3
3
3
3
3
3
3
3
3
3
3
3
3
3
3
3
3
3
3
3
3
3
3
3
3
3
3
3
3
3
3
3
3
3
3
3
3
3
3
3
3
3
3
3
3
3
3
3
3
3
3
3
3
3
3
3
3
3
3
3
3
3
3
3
3
3
3
3
3
3
3
3
3
3
5
5
5
5
5
5
5
5
5
5
5
5
5
5
5
5
5
5
5
5
5
5
5
5
5
5
5
5
5
5
5
5
5
5
5
5
5
5
5
5
5
5
5
5
5
5
5
5
5
5
5
5
5
5
5
5
5
5
5
5
5
5
5
5
5
5
5
5
5
5
5
5
5
5
5
5
5
5
5
5
5
5
5
5
5
5
5
5
5
5
5
5
5
5
5
5
5
5
5
5
5
5
5
5
5
5
5
5
5
5
5
5
5
5
5
5
5
5
5
5
5
5
5
5
5
5
5
5
5
5
5
5
5
5
5
5
5
5
5
5
5
5
5
5
5
5
5
5
5
5
5
5
5
5
5
5
5
5
5
5
5
5
5
5
5
5
5
5
5
5
5
5
5
5
5
5
5
5
5
5
5
5
5
5
5
5
5
5
5
5
5
5
5
5
5
5
5
5
5
5
5
5
5
5
5
5
5
5
5
5
5
5
5
5
5
5
5
5
5
5
5
5
5
5
5
5
5
5
5
5
5
5
5
5
5
5
5
5
5
5
5
5
5
5
5
5
5
5
5
5
5
5
5
5
5
5
5
5
5
5
5
5
5
5
5
5
5
5
5
5
5
5
5
5
5
5
5
5
5
5
5
5
5
5
5
5
5
5
5
5
5
5
5
5
5
5
5
5
5
5
5
5
5
5
5
5
5
5
5
5
5
5
5
5
5
5
5
5
5
5
5
5
5
5
5
5
5
5
5
5
5
5
5
5
5
5
5
5
5
5
5
5
5
5
5
5
5
5
5
5
5
5
5
5
5
5
5
5
5
5
5
5
5
5
5
5
5
5
5
5
5
5
5
5
5
5
5
5
5
5
5
5
5
5
5
5
5
5
5
5
5
5
5
5
5
5
5
5
5
5
5
5
5
5
5
5
5
5
5
5
5
5
5
5
5
5
5
5
5
5
5
5
5
5
5
5
5
5
5
5
5
5
5
5
5
5
5
5
5
5
5
5
5
5
5
5
5
5
5
5
5
5
5
5
5
5
5
5
5
5
5
5
5
5
5
5
5
5
5
5
5
5
5
5
5
5
5
5
5
5
5
5
5
5
5
5
5
5
5
5
5
5
5
5
5
5
5
5
5
5
5
5
5
5
5
5
5
5
5
5
5
5
5
5
5
5
5
5
5
5
5
5
5
5
5
5
5
5
5
5
5
5
5
5
5
5
5
5
5
5
5
5
5
5
5
5
5
5
5
5
5
5
5
5
5
5
5
5
5
5
5
5
5
5
5
5
5
5
5
5
5
5
5
5
5
5
5
5
5
5
5
5
5
5
5
5
5
5
5
5
5
5
5
5
5
5
5
5
5
5
5
5
5
5
5
5
5
5
5
5
5
5
5
5
5
5
5
5
5
5
5
5
5
5
5
5
5
5
5
5
5
5
5
5
5
5
5
5
5
5
5
5
5
5
5
5
5
5
5
5
5
5
5
5
5
5
5
5
5
5
5
5
5
5
5
5
5
5
5
5
5
5
5
5
5
5
5
5
5
5
5
5
5
5
5
5
5
5
5
5
5
5
5
5
5
5
5
5
5
5
5
5
5
5
5
5
5
5
5
5
5
5
5
5
5
5
5
5
5
5
5
5
5
5
5
5
5
5
5
5
5
5
5
5
5
5
5
5
5
5
5
5
5
5
5
5
5
5
5
5
5
5
5
5
5
5
5
5
5
5
5
5
5
5
5
5
5
5
5
5
5
5
5
5
5
5
5
5
5
5
5
5
5
5
5
5
5
5
5
5
5
5
5
5
5
5
5
5
5
5
5
5
5
5
5
5
5
5
5
5
5
5
5
5
5
5
5
5
5
5
5
5
5
5
5
5
5
5
5
5
5
5
5
5
5
5
5
5
5
5
5
5
5
5
5
5
5
5
5
5
5
5
5
5
5
5
5
5
5
5
5
5
5
5
5
5
5
5
5
5
5
5
5
5
5
5
5
5
5
5
5
5
5
5
5
5
5
5
5
5
5
5
5
5
5
5
5
5
5
5
5
5
5
5
5
5
5
5
5
5
5
5
5
5
5
5
5
5
5
5
5
5
5
5
5
5
5
5
5
5
5
5
5
5
5
5
5
5
5
5
5
5
5
5
5
5
5
5
5
5
5
5
5
5
5
5
5
5
5
5
5
5
5
5
5
5
5
5
5
5
5
5
5
5
5
5
5
5
5
5
5
5
5
5
5
5
5
5
5
5
5
5
5
5
5
5
5
5
5
5
5
5
5
5
5
5
5
5
5
5
5
5
5
5
5
5
5
5
5
5
5
5
5
5
5
5
5
5
5
5
5
5
5
5
5
5
5
5
5
5
5
5
5
5
5
5
5
5
5
5
5
5
5
5
5
5
5
5
5
5
5
5
5
5
5
5
5
5
5
5
5
5
5
5
5
5
5
5
10
10
10
10
10
10
10
10
10
10
10
10
10
10
10
10
10
10
10
10
10
10
10
10
10
10
10
10
10
10
10
10
10
10
10
10
10
10
10
10
10
10
10
10
10
10
10
10
10
10
10
10
10
10
10
10
10
10
10
10
10
10
10
10
10
10
10
10
10
10
10
10
10
10
10
10
10
10
10
10
10
10
10
10
10
10
10
10
10
10
10
10
10
10
10
10
10
10
10
10
10
10
10
10
10
10
10
10
10
10
10
10
10
10
10
10
10
10
10
10
10
10
10
10
10
10
10
10
10
10
10
10
10
10
10
10
10
10
10
10
10
10
10
10
10
10
10
10
10
10
10
10
10
10
10
10
10
10
10
10
10
10
10
10
10
10
10
10
10
10
10
10
10
10
10
10
10
10
10
10
10
10
10
10
10
10
10
10
10
10
10
10
10
10
10
10
10
10
10
10
10
10
10
10
10
10
10
10
10
10
10
10
10
10
10
10
10
10
10
10
10
10
10
10
10
10
10
10
10
10
10
10
10
10
10
10
10
10
10
10
10
10
10
10
10
10
10
10
10
10
10
10
10
10
10
10
10
10
10
10
10
10
10
10
10
10
10
10
10
10
10
10
10
10
10
10
10
10
10
10
10
10
10
10
10
10
10
10
10
10
10
10
10
10
10
10
10
10
10
10
10
10
10
10
10
10
10
10
10
10
10
10
10
10
10
10
10
10
10
10
10
10
10
10
10
10
10
10
10
10
10
10
10
10
10
10
10
10
10
10
10
10
10
10
10
10
10
10
10
10
10
10
10
10
10
10
10
10
10
10
10
10
10
10
10
10
10
10
10
10
10
10
10
10
10
10
10
10
10
10
10
10
10
10
10
10
10
10
10
10
10
10
10
10
10
10
10
10
10
10
10
10
10
10
10
10
10
10
10
10
10
10
10
10
10
10
10
10
10
10
10
10
10
10
10
10
10
10
10
10
10
10
10
10
10
10
10
10
10
10
10
10
10
10
10
10
10
10
10
10
10
10
10
10
10
10
10
10
10
10
10
10
10
10
10
10
10
10
10
10
10
10
10
10
10
10
10
10
10
10
10
10
10
10
10
10
10
10
10
10
10
10
10
10
10
10
10
10
10
10
10
10
10
10
10
10
10
10
10
10
10
10
10
10
10
10
10
10
10
10
10
10
10
10
10
10
10
10
10
10
10
10
10
10
10
10
10
10
10
10
10
10
10
10
10
10
10
10
10
10
10
10
10
10
10
10
10
10
10
10
10
10
10
10
10
10
10
10
10
10
10
10
10
10
10
10
10
10
10
10
10
10
10
10
10
10
10
10
10
10
10
10
10
10
10
10
10
10
10
10
10
10
10
10
10
10
10
10
10
10
10
10
10
10
10
10
10
10
10
10
10
10
10
10
10
10
10
10
10
10
10
10
10
10
10
10
10
10
10
10
10
10
10
10
10
10
10
10
10
10
10
10
10
10
10
10
10
10
10
10
10
10
10
10
10
10
10
10
10
10
10
10
10
10
10
10
10
10
10
10
10
10
10
10
10
10
10
10
10
10
10
10
10
10
10
10
10
10
10
10
10
10
10
10
10
10
10
10
10
10
10
10
10
10
10
10
10
10
10
10
10
10
10
10
10
10
10
10
10
10
10
10
10
10
10
10
10
10
10
10
10
10
10
10
10
10
10
10
10
10
10
10
10
10
10
10
10
10
10
10
10
10
10
10
10
10
10
10
10
10
10
10
10
10
10
10
10
10
10
10
10
10
10
10
10
10
10
10
10
10
10
10
10
10
10
10
10
10
10
10
10
10
10
10
10
10
10
10
10
10
10
10
10
10
10
10
10
10
10
10
10
10
10
10
10
10
10
10
10
10
10
10
10
10
10
10
10
10
10
10
10
10
10
10
10
10
10
10
10
10
10
10
10
10
10
10
10
10
10
10
10
10
10
10
10
10
10
10
10
10
10
10
10
10
10
10
10
10
10
10
10
10
10
10
10
10
10
10
10
10
10
10
10
10
10
10
10
10
10
10
10
10
10
10
10
10
10
10
10
10
10
10
10
10
10
10
10
10
10
10
10
10
10
10
10
10
10
10
10
10
10
10
10
10
10
10
10
10
10
10
10
10
10
10
10
10
10
10
10
10
10
10
10
10
10
10
10
10
10
10
10
10
10
10
10
10
10
10
10
10
10
10
10
10
10
10
10
10
10
10
10
10
10
10
10
10
10
10
10
10
10
10
10
10
10
10
10
10
10
10
10
10
10
10
10
10
10
10
10
10
10
10
10
10
10
10
10
10
10
10
10
10
10
10
10
10
10
10
10
10
10
10
10
10
10
10
10
10
10
10
10
10
10
10
10
10
10
10
10
10
10
10
10
10
10
10
10
10
10
10
10
10
10
10
10
10
10
10
10
10
10
10
10
10
10
10
10
10
10
10
10
10
10
10
10
10
10
10
10
10
10
10
10
10
10
10
10
10
10
10
10
10
10
10
10
10
10
10
10
10
10
10
10
10
10
10
10
10
10
10
10
10
10
10
10
10
10
10
10
10
10
10
10
10
10
10
10
10
10
10
10
10
10
10
10
10
10
10
10
10
10
10
10
10
10
10
10
10
10
10
10
10
10
10
10
10
10
10
10
10
10
10
10
10
10
10
10
10
10
10
10
10
10
10
10
10
10
10
10
10
10
10
10
10
10
10
10
10
10
10
10
10
10
10
10
10
10
10
10
10
10
10
10
10
10
10
10
10
10
10
10
10
10
10
10
10
10
10
10
10
10
10
10
10
10
10
10
10
10
10
10
10
10
10
10
10
10
10
10
10
10
10
10
10
10
10
10
10
10
10
10
10
10
10
10
10
10
10
10
10
10
10
10
10
10
10
10
10
10
10
10
10
10
10
10
10
10
10
10
10
10
10
10
10
10
10
10
10
10
10
10
10
10
10
10
10
10
10
10
10
10
10
10
10
10
10
10
10
10
10
10
10
10
10
10
10
10
10
10
10
10
10
10
10
10
10
10
10
10
10
10
10
10
10
10
10
10
10
10
10
10
10
10
10
10
10
10
10
10
10
10
10
10
10
10
10
10
10
10
10
10
10
10
10
10
10
10
10
10
10
10
10
10
10
10
10
10
10
10
10
10
10
10
10
10
10
10
10
10
10
10
10
10
10
10
10
10
10
10
10
10
10
10
10
10
10
10
10
10
10
10
10
10
10
10
10
10
10
10
10
10
10
10
10
10
10
10
10
10
10
10
10
10
10
10
10
10
10
10
10
10
10
10
10
10
10
10
10
10
10
10
10
10
10
10
10
10
10
10
10
10
10
10
10
10
10
10
10
10
10
10
10
10
10
10
10
10
10
10
10
10
10
10
10
10
10
10
10
10
10
10
10
10
10
10
10
10
10
10
10
10
10
10
10
10
10
10
10
10
10
10
10
10
10
10
10
10
10
10
10
10
10
10
10
10
10
10
10
10
10
10
10
10
10
10
10
10
10
10
10
10
10
10
10
10
10
10
10
10
10
10
10
10
10
10
10
10
10
10
10
10
10
10
10
10
10
10
10
10
10
10
10
10
10
10
10
10
10
10
10
10
10
10
10
10
10
10
10
10
10
10
10
10
10
10
10
10
10
10
10
10
10
10
10
10
10
10
10
10
10
