# vtk DataFile Version 2.0
, Created by Gmsh 4.11.1 
ASCII
DATASET UNSTRUCTURED_GRID
POINTS 538 double
8.75 0 -43.57694002863072
16.09276337529358 0 -41.51790957350613
16.09276337529358 0 -38.48209042649387
8.75 0 -36.42305997136928
8.75 0 -3
11.75 0 -3
11.75 0 0
-11.75 0 0
-11.75 0 -3
-8.75 0 -3
-8.75 1.071565949253934e-15 -36.42305997136928
-16.09276337529358 1.970795115698904e-15 -38.48209042649387
-16.09276337529358 1.970795115698904e-15 -41.51790957350613
-8.75 1.071565949253934e-15 -43.57694002863072
-8.75 1.071565949253934e-15 -76.42305997136927
-16.09276337529358 1.970795115698904e-15 -78.48209042649387
-16.09276337529358 1.970795115698904e-15 -81.51790957350613
-8.75 1.071565949253934e-15 -83.57694002863073
-8.75 0 -120
8.75 0 -120
8.75 0 -83.57694002863073
16.09276337529358 0 -81.51790957350613
16.09276337529358 0 -78.48209042649387
8.75 0 -76.42305997136927
-8.75 8.612512604169478 -42.58776166765894
8.75 8.612512604169478 -42.58776166765894
8.75 8.612512604169476 -37.41223833234106
-8.75 8.612512604169476 -37.41223833234106
8.75 20 -3
8.75 20 -26.48723830428352
11.75 23 -3
-11.75 23 -3
-8.75 20 -3
11.75 23 0
-11.75 23 0
-8.75 20 -26.48723830428352
-8.75 20 -53.51276169571648
-8.75 20 -66.48723830428352
-8.75 8.612512604169485 -77.41223833234105
8.75 8.612512604169485 -77.41223833234105
-8.75 8.612512604169481 -82.58776166765894
8.75 8.612512604169481 -82.58776166765894
-8.75 20 -93.51276169571648
-8.75 20 -106.4872383042835
-8.75 5.915203377789644 -120
8.75 5.915203377789644 -120
8.75 20 -93.51276169571648
8.75 20 -106.4872383042835
8.75 20 -53.51276169571648
8.75 20 -66.48723830428352
5.016386024454466 4.284318716175947 -83.57694002863073
-5.016386024454465 4.284318716175948 -83.57694002863073
13.26498127832456 4.284318716175947 -81.51790957350613
-13.26498127832456 4.28431871617595 -81.51790957350613
13.26498127832456 4.284318716175947 -78.48209042649387
5.016386024454466 4.284318716175947 -76.42305997136927
-5.016386024454465 4.284318716175948 -76.42305997136927
-13.26498127832456 4.28431871617595 -78.48209042649387
5.016386024454466 4.284318716175947 -43.57694002863072
-5.016386024454465 4.284318716175948 -43.57694002863072
13.26498127832456 4.284318716175947 -41.51790957350613
-13.26498127832456 4.28431871617595 -41.51790957350613
13.26498127832456 4.284318716175947 -38.48209042649387
5.016386024454466 4.284318716175947 -36.42305997136928
-5.016386024454465 4.284318716175948 -36.42305997136928
-13.26498127832456 4.28431871617595 -38.48209042649387
12.4213816876468 0 -42.54742480106842
12.42138168764678 0 -37.45257519893157
8.75 0 -29.73844797709542
8.75 0 -23.05383598282155
8.75 0 -16.36922398854772
8.75 0 -9.68461199427389
5.875000000000016 0 0
3.730349362740526e-14 0 0
-5.874999999999972 0 0
-8.75 0 -9.684611994273862
-8.75 0 -16.36922398854773
-8.75 0 -23.05383598282156
-8.75 0 -29.73844797709539
-12.42138168764678 1.521180532476418e-15 -37.45257519893157
-12.4213816876468 1.52118053247642e-15 -42.54742480106842
-8.75 0 -50.14616401717844
-8.75 0 -56.71538800572615
-8.75 0 -63.28461199427386
-8.75 0 -69.85383598282156
-12.42138168764678 1.521180532476418e-15 -77.45257519893157
-12.4213816876468 1.52118053247642e-15 -82.54742480106843
-8.75 0 -89.64745002385894
-8.75 0 -95.71796001908713
-8.75 0 -101.7884700143153
-8.75 0 -107.8589800095436
-8.75 0 -113.9294900047718
2.916666666666666 0 -120
-2.916666666666668 0 -120
8.75 0 -89.64745002385894
8.75 0 -95.71796001908713
8.75 0 -101.7884700143153
8.75 0 -107.8589800095436
8.75 0 -113.9294900047718
12.4213816876468 0 -82.54742480106843
12.42138168764678 0 -77.45257519893157
8.75 0 -50.14616401717844
8.75 0 -56.71538800572615
8.75 0 -63.28461199427386
8.75 0 -69.85383598282156
14.867774703981 6.158433924696547 -41.51790957350613
11.37930211070061 11.3793021107006 -41.51790957350613
6.158433924696582 14.86777470398098 -41.51790957350613
5.458506684513561e-14 16.09276337529358 -41.51790957350613
-6.158433924696499 14.86777470398101 -41.51790957350613
-11.37930211070057 11.37930211070064 -41.51790957350613
-14.86777470398098 6.158433924696577 -41.51790957350613
-8.75 4.329480343232365 -43.29301144444291
-2.944139938812302 9.338983160138563 -43.28472760654123
2.944139938812331 9.338983160138561 -43.28472760654122
8.75 4.329480343232361 -43.29301144444291
14.867774703981 6.158433924696547 -38.48209042649387
11.37930211070061 11.3793021107006 -38.48209042649387
6.158433924696582 14.86777470398098 -38.48209042649387
5.458506684513561e-14 16.09276337529358 -38.48209042649387
-6.158433924696499 14.86777470398101 -38.48209042649387
-11.37930211070057 11.37930211070064 -38.48209042649387
-14.86777470398098 6.158433924696577 -38.48209042649387
8.75 4.32948034323236 -36.70698855555709
2.944139938812303 9.338983160138557 -36.71527239345877
-2.944139938812327 9.338983160138557 -36.71527239345877
-8.75 4.32948034323236 -36.70698855555709
8.75 6.666666666666651 -3
8.75 13.33333333333329 -3
8.75 20 -20.61542872821264
8.75 20 -14.74361915214176
8.75 20 -8.871809576070874
8.75 12.40834173611298 -33.77057165632188
8.75 16.20417086805649 -30.12890498030271
-5.875000000000016 23 -3
-3.730349362740526e-14 23 -3
5.874999999999972 23 -3
-11.75 5.749999999999988 -3
-11.75 11.49999999999999 -3
-11.75 17.24999999999999 -3
-8.75 13.33333333333335 -3
-8.75 6.666666666666705 -3
-2.916666666666666 20 -3
2.916666666666668 20 -3
11.75 5.749999999999988 -3
11.75 11.49999999999999 -3
11.75 17.24999999999999 -3
11.75 5.749999999999988 0
11.75 11.49999999999999 0
11.75 17.24999999999999 0
-5.875000000000016 23 0
-3.730349362740526e-14 23 0
5.874999999999972 23 0
-11.75 5.749999999999988 0
-11.75 11.49999999999999 0
-11.75 17.24999999999999 0
-8.75 20 -8.871809576070884
-8.75 20 -14.74361915214176
-8.75 20 -20.61542872821265
-8.75 12.40834173611298 -33.77057165632188
-8.75 16.20417086805649 -30.12890498030271
-8.75 16.20417086805649 -49.8710950196973
-8.75 12.40834173611298 -46.22942834367812
-8.75 20 -59.99999999999999
-8.75 12.40834173611299 -73.77057165632188
-8.75 16.20417086805649 -70.12890498030271
-8.75 4.329480343232365 -76.70698855555709
8.75 4.329480343232365 -76.70698855555709
2.9441399388123 9.338983160138564 -76.71527239345878
-2.944139938812335 9.338983160138563 -76.71527239345878
14.867774703981 6.158433924696547 -78.48209042649387
11.37930211070061 11.3793021107006 -78.48209042649387
6.158433924696582 14.86777470398098 -78.48209042649387
5.458506684513561e-14 16.09276337529358 -78.48209042649387
-6.158433924696499 14.86777470398101 -78.48209042649387
-11.37930211070057 11.37930211070064 -78.48209042649387
-14.86777470398098 6.158433924696577 -78.48209042649387
14.867774703981 6.158433924696547 -81.51790957350613
11.37930211070061 11.3793021107006 -81.51790957350613
6.158433924696582 14.86777470398098 -81.51790957350613
5.458506684513561e-14 16.09276337529358 -81.51790957350613
-6.158433924696499 14.86777470398101 -81.51790957350613
-11.37930211070057 11.37930211070064 -81.51790957350613
-14.86777470398098 6.158433924696577 -81.51790957350613
-8.75 4.329480343232365 -83.29301144444293
-2.944139938812302 9.338983160138568 -83.28472760654124
2.944139938812338 9.338983160138568 -83.28472760654124
8.75 4.329480343232365 -83.29301144444293
-8.75 16.20417086805649 -89.87109501969729
-8.75 12.40834173611299 -86.22942834367812
-8.75 20 -99.99999999999999
-8.75 10.6101355851931 -115.4957461014278
-8.75 15.30506779259656 -110.9914922028557
2.916666666666666 5.915203377789644 -120
-2.916666666666668 5.915203377789644 -120
8.75 16.20417086805649 -89.87109501969729
8.75 12.40834173611299 -86.22942834367812
8.75 20 -99.99999999999999
8.75 10.6101355851931 -115.4957461014278
8.75 15.30506779259656 -110.9914922028557
8.75 16.20417086805649 -49.8710950196973
8.75 12.40834173611298 -46.22942834367812
8.75 20 -59.99999999999999
8.75 12.40834173611299 -73.77057165632188
8.75 16.20417086805649 -70.12890498030271
2.916666666666666 20 -53.51276169571648
-2.916666666666668 20 -53.51276169571648
2.916666666666666 20 -26.48723830428352
-2.916666666666668 20 -26.48723830428352
2.916666666666666 20 -66.48723830428352
-2.916666666666668 20 -66.48723830428352
2.916666666666666 20 -93.51276169571648
-2.916666666666668 20 -93.51276169571648
2.916666666666666 20 -106.4872383042835
-2.916666666666668 20 -106.4872383042835
-9.849746964217391e-15 6.596932287671111 -83.57694002863073
5.329070518200751e-15 4.284318716175947 -83.57694002863073
9.151985598119369 4.284318716175947 -82.59317626866165
10.37012377180961 9.315344767287252 -81.51790957350613
5.677237185660887 12.73122512226635 -81.51790957350613
-2.700354776258661e-14 13.93969566296469 -81.51790957350613
-5.677237185660934 12.73122512226633 -81.51790957350613
-10.37012377180964 9.315344767287218 -81.51790957350613
-9.151985598119369 4.284318716175947 -82.59317626866165
9.151985598119369 4.284318716175947 -77.40682373133835
-1.77635683940025e-15 4.284318716175947 -76.42305997136927
-9.151985598119369 4.284318716175947 -77.40682373133835
10.37012377180961 9.315344767287252 -78.48209042649387
5.677237185660887 12.73122512226635 -78.48209042649387
-2.700354776258661e-14 13.93969566296469 -78.48209042649387
-5.677237185660934 12.73122512226633 -78.48209042649387
-10.37012377180964 9.315344767287218 -78.48209042649387
-9.849746964217391e-15 6.596932287671111 -76.42305997136928
-9.849746964217391e-15 6.596932287671111 -43.57694002863072
5.329070518200751e-15 4.284318716175947 -43.57694002863072
9.151985598119369 4.284318716175947 -42.59317626866164
10.37012377180961 9.315344767287252 -41.51790957350613
5.677237185660887 12.73122512226635 -41.51790957350613
-2.700354776258661e-14 13.93969566296469 -41.51790957350613
-5.677237185660934 12.73122512226633 -41.51790957350613
-10.37012377180964 9.315344767287218 -41.51790957350613
-9.151985598119369 4.284318716175947 -42.59317626866164
9.151985598119369 4.284318716175947 -37.40682373133836
-1.77635683940025e-15 4.284318716175947 -36.42305997136928
-9.151985598119369 4.284318716175947 -37.40682373133836
10.37012377180961 9.315344767287252 -38.48209042649387
5.677237185660887 12.73122512226635 -38.48209042649387
-2.700354776258661e-14 13.93969566296469 -38.48209042649387
-5.677237185660934 12.73122512226633 -38.48209042649387
-10.37012377180964 9.315344767287218 -38.48209042649387
-9.849746964217391e-15 6.596932287671111 -36.42305997136928
-4.47031598984673 0 -86.61219502624483
2.98180084789275 0 -72.67136416324388
2.977850198785718 0 -47.32281185947485
3.514614735042349 0 -32.04207322687042
-1.77635683940025e-15 0 -115.3659765585511
-3.492784130205026 0 -98.75321501670123
5.038795881713694 0 -41.21788578699339
5.014505612468092 0 -78.77001249031838
-2.871936708817483 0 -4.200169900576128
-3.060885142767551 0 -60.00000000000001
2.790035523356997 0 -19.80044915251075
-5.303182198978247 0 -81.09348430081853
4.398546471370717 0 -87.27799085207494
3.825716967984885 0 -104.8476871510893
-3.430804198439517 0 -71.61185151171489
-3.436071730582229 0 -48.3803831852434
-3.076392816837629 0 -32.46357725149486
-2.960956198516689 0 -13.02691799141079
-5.045912959379955 0 -38.74134668566339
3.677680217659272 0 -5.751296559179984
-0.02386856604457233 0 -26.13498559607961
-0.03630387928125067 0 -53.76079117793714
-0.034767515739623 0 -66.23694394200903
10.17405808837303 0 -79.79500208171973
-10.22217085279139 0 -80.18224738346976
10.17810646658063 0 -40.2029809644989
-10.17929264619167 0 -39.79022444761056
2.629394620166531 0 -93.11080440328638
3.492784130205028 0 -98.75321501670123
-2.230579047649705 0 -104.9201017136768
-3.716236596711571 0 -92.28847754926451
3.301283398876554 0 -60.00000000000001
-3.780999017203319 0 -20.79692578188816
3.471747588277274 0 -12.22084154794045
3.373329133627712 0 -110.6946628322258
-3.71621436015978 0 -111.1585926126909
-13.68707954247652 0 -80
13.68707954247649 0 -79.99999999999999
-13.68707954247652 0 -40
13.68707954247651 0 -40
-4.976804579569775 0 -66.56922398854772
-4.976804579569789 0 -53.43077601145231
4.976804579569791 0 -53.43077601145231
4.976804579569796 0 -66.56922398854772
-4.991204862015653 0 -26.39614197995848
4.991204862015663 0 -26.39614197995849
-0.7852759941164216 0 -8.418090171383351
0.9680492704066319 0 -82.87135596496381
4.69068931689287 0 -115.9143168751493
-4.739672920683166 0 -115.9805925580729
-1.117476002709324 0 -42.88187734532841
1.287211836523419 0 -37.24001446534486
-1.258248492369093 0 -77.1604330041969
-1.06581410364015e-14 0 -88.94309487310829
-4.82363378029012 0 -7.665958011528829
11.81178465750324 4.677266273462263 -42.46813583007778
-11.48782662118562 5.832705856983914 -42.41777350403517
10.57117045624829 2.061747422753098 -43.01040087377709
13.38064372453196 8.940660298341168 -40.02534001431627
15.79074087919646 3.103149293744056 -40
8.940660298341193 13.38064372453194 -40.02534001431628
-3.139542389015323 15.78354543950017 -40.02534001431628
-15.78354543950015 3.139542389015392 -40.02534001431628
-13.38064372453194 8.940660298341204 -40.02534001431628
3.139542389015423 15.78354543950014 -40.02534001431628
-8.909791038055589 13.40121847860764 -40
-7.675442441999914 11.48711138970443 -37.84348944556817
11.48782662118673 5.83270585698462 -37.58222649596519
-11.48782654333673 5.83270593718226 -37.58222648668109
8.75 14.88215994615036 -18.40605300894988
8.75 10.92399121489925 -28.42452875869319
8.75 5.076235335922922 -13.01972055456613
8.75 7.328874220922606 -32.63187054285068
8.75 5.492085863881764 -19.72902056420605
8.75 15.27326467802846 -24.56852534748079
8.75 15.05410409952782 -12.2787349210839
8.75 5.109636710373001 -27.14392230062029
8.75 10.0211998201041 -8.437683943409478
8.75 3.353598254905593 -32.52885786949855
8.75 4.834402058092538 -7.839344993611277
8.75 9.791503489385132 -23.11243385828498
8.75 9.913745773260182 -16.17293529316471
8.75 15.68172745059304 -7.11764568811285
10.25 3.10416666666666 -3
-10.25 3.104166666666674 -3
11.75 20.125 -1.5
11.75 14.37499999999999 -1.5
11.75 8.624999999999989 -1.5
11.75 2.874999999999994 -1.5
-2.707174061168086 4.878797530676508 0
3.157610638484556 18.22886740495932 0
7.069955745470663 8.71654637064 0
-6.619519168154191 14.39111856499582 0
7.102873022115112 14.37499999999999 0
0.1126091443291166 11.52691623390895 0
-7.000954855602266 8.644857627020134 0
-2.792058517349997 18.15992185565015 0
2.948495529093417 4.721447277005962 0
-7.528051718759411 18.81262893003678 0
7.528051718759418 4.187371069963205 0
7.820492259183635 19.07601590637069 0
-7.553981076842906 4.160878030182232 0
-11.75 20.125 -1.5
-11.75 14.37499999999999 -1.5
-11.75 8.624999999999988 -1.5
-11.75 2.874999999999994 -1.5
-8.75 14.88215994615036 -18.40605300894989
-8.75 10.92399121489925 -28.42452875869319
-8.75 5.076235335922938 -13.01972055456613
-8.75 6.930000948615488 -32.07481954332785
-8.75 5.492085863881767 -19.72902056420606
-8.75 15.27326467802846 -24.56852534748079
-8.75 15.05410409952783 -12.2787349210839
-8.75 5.305679793278857 -26.39614197995848
-8.75 10.02119982010414 -8.437683943409464
-8.75 4.834402058092573 -7.839344993611288
-8.75 10.09778406499472 -22.61084399744033
-8.75 10.10392818843029 -15.74700949827596
-8.75 15.68172745059307 -7.11764568811285
-8.75 5.343811048696388 -59.98934218912855
-8.75 15.32361863072432 -64.24105655959237
-8.75 10.92068600528019 -51.56662681474447
-8.75 7.632302403542738 -72.59144074544392
-8.75 14.91319555521426 -56.75638084785823
-8.75 6.926668749773886 -47.8756280498592
-8.75 5.169987836802147 -67.27592773055329
-8.75 5.336064465997 -53.52499872198043
-8.75 11.0683810646295 -68.56987717261661
-8.75 3.426354116715451 -72.57025059714903
-8.75 9.237124397545227 -57.04974198743945
-8.75 10.17601975560197 -62.31372108119808
-7.675442441997748 11.48711138970119 -77.84348944556709
11.48782662118673 5.832705856984626 -77.58222649596519
-11.48782659157087 5.832705852271388 -77.58222648796188
13.38064372453196 8.94066029834117 -79.97465998568373
15.79074087919646 3.103149293744056 -80
8.940660298341193 13.38064372453194 -79.97465998568373
-15.78354543950015 3.139542389015392 -80.02534001431627
-3.13954238901533 15.78354543950016 -79.97465998568373
-13.38064372453194 8.940660298341198 -79.97465998568373
3.139542389015423 15.78354543950014 -80.02534001431627
-8.940660298341125 13.38064372453199 -80.02534001431627
11.81178465750326 4.677266273462289 -82.46813583007778
-11.48782662118563 5.832705856983913 -82.41777350403518
10.57117045624828 2.061747422753101 -83.0104008737771
-8.75 4.738181848549946 -98.76326641100901
-8.75 15.29648320207181 -95.80557755254723
-8.75 13.65724063618332 -103.7339200491454
-8.75 9.044500110805595 -109.9476922306987
-8.75 7.355522356924627 -87.12377460697894
-8.75 5.21360936475463 -92.57913012949601
-8.75 6.090421936982848 -104.4162727368307
-8.75 11.22568421458174 -91.7434540555525
-8.75 5.311151135680664 -114.6714082566486
-8.75 10.10775961719786 -98.33567351502255
-8.75 3.379722412982324 -87.24406124668151
-8.75 4.317053203771185 -109.9698617621853
5.833333333333333 2.957601688894822 -120
0 2.957601688894822 -120
-5.833333333333336 2.957601688894822 -120
8.75 4.157216243136326 -98.93090198461931
8.75 15.36436554523795 -96.26777864370382
8.75 9.160649946017813 -109.8659754145314
8.75 7.353374144774667 -87.12377460697894
8.75 11.17499686640916 -91.96940524863713
8.75 13.62454827180553 -104.0111227762279
8.75 5.244326596895212 -92.68270502147303
8.75 5.962124281729791 -104.5809945453878
8.75 5.311151135680665 -114.6714082566486
8.75 3.385436216980448 -87.26477622507691
8.75 9.852542099975288 -98.84173566260957
8.75 4.317053203771184 -109.9698617621853
8.75 5.343811048696388 -59.98934218912855
8.75 15.32361863072432 -64.24105655959237
8.75 10.92068600528019 -51.56662681474447
8.75 7.632302403542733 -72.59144074544392
8.75 14.91319555521426 -56.75638084785823
8.75 7.324911423824 -47.32819271748022
8.75 5.169987836802147 -67.27592773055329
8.75 5.086665067515104 -52.72436693540408
8.75 11.0683810646295 -68.56987717261661
8.75 3.348211366914293 -47.41373502862727
8.75 3.42635411671545 -72.57025059714903
8.75 9.187244517848846 -56.88961563012418
8.75 10.16770644231924 -62.28703335497887
-1.77635683940025e-15 16.35456743206232 -50.01538343107987
3.212073472687138 13.30710837288132 -47.09169279154099
-3.550113930342093 13.85908840015207 -47.62125489807102
4.397231537400424 16.95287740437862 -50.58939385472573
-4.397231537400426 16.95287740437862 -50.58939385472573
-1.77635683940025e-15 16.35456743206232 -29.98461656892013
3.493891313666632 13.6879762646787 -32.54290774991856
-3.209072488761603 13.32261607068428 -32.89342933478562
4.397231537400424 16.95287740437862 -29.41060614527427
-4.397231537400426 16.95287740437862 -29.41060614527427
0.1316507573367538 20 -21.41992343720243
-0.3293740005484498 20 -7.789407623226408
-4.061443188855903 20 -11.80771436410632
2.229394538847266 20 -13.55228418573394
-3.947783683449491 20 -17.3920168240624
5.138875725903473 20 -18.77651780390777
4.463337440993099 20 -7.242700277006243
-4.486304208025056 20 -22.2131310769773
-4.486304208025057 20 -7.274107227306226
5.336265688081937 20 -22.98414480148372
8.812499999999986 23 -1.5
2.937499999999966 23 -1.5
-8.812500000000007 23 -1.5
-2.937500000000027 23 -1.499999999999999
0 20 -61.8008690585429
-4.523548979839141 20 -61.87606592948771
4.523548979839144 20 -61.87606592948771
0 20 -57.32928199788458
4.988043129301163 20 -57.24617426376105
-4.988043129301161 20 -57.24617426376105
0 16.35456743206232 -69.98461656892013
-3.212073472687138 13.30710837288132 -72.90830720845901
3.550113930342095 13.85908840015207 -72.37874510192898
-4.397231537400426 16.95287740437862 -69.41060614527427
4.397231537400425 16.95287740437862 -69.41060614527427
0 16.35456743206232 -90.01538343107987
-3.493891313666634 13.68797626467871 -87.45709225008144
3.209072488761609 13.32261607068429 -87.10657066521439
4.397231537400426 16.95287740437862 -90.58939385472573
-4.397231537400422 16.95287740437862 -90.58939385472573
0 20 -98.1991309414571
4.52354897983914 20 -98.12393407051229
-4.523548979839141 20 -98.12393407051229
0 20 -102.6707180021154
-4.988043129301161 20 -102.753825736239
4.988043129301161 20 -102.753825736239
-1.77635683940025e-15 16.35456743206232 -109.9846165689201
-1.77635683940025e-15 9.560635945727327 -116.5026217353634
-3.713411360344606 12.95760168889483 -113.2436191521417
3.713411360344605 12.95760168889483 -113.2436191521418
4.612982082033823 9.052212151920386 -116.9903965858225
4.612982082033819 16.86299122586926 -109.496841718461
-4.612982082033827 9.052212151920385 -116.9903965858225
-4.61298208203382 16.86299122586926 -109.496841718461
4.727550851676575 8.077034570906937 -82.80245104874756
-4.727550851677006 8.077034570906649 -82.80245104874756
2.508193012227238 4.284318716175947 -80
-2.508193012227236 4.284318716175947 -80
6.919339332324274 4.284318716175947 -80
-6.919339332324274 4.284318716175947 -80
10.67109973657074 4.284318716175947 -80
-10.67109973657074 4.284318716175947 -80
2.902215666951124 13.63423116272348 -80.02388063046359
8.203444890698057 11.27025319597375 -80.02388063046359
-2.90221566695117 13.63423116272347 -80.02388063046358
-8.203444890698101 11.27025319597372 -79.97611936953641
12.08231573269212 6.952176760671228 -80.02388063046359
-12.08231573269214 6.9521767606712 -80.02388063046357
4.727550851676732 8.077034570906722 -77.19754895125241
-4.727550851676702 8.077034570906747 -77.19754895125243
4.727550851676575 8.077034570906937 -42.80245104874755
-4.727550851677001 8.077034570906649 -42.80245104874756
2.508193012227238 4.284318716175947 -40
-2.508193012227235 4.284318716175947 -40
6.919339332324274 4.284318716175947 -40
-6.919339332324274 4.284318716175947 -40
10.67109973657074 4.284318716175947 -40
-10.67109973657074 4.284318716175947 -40
2.902215666951121 13.63423116272348 -40.02388063046359
8.203444890698059 11.27025319597375 -40.02388063046359
-2.902215666951176 13.63423116272347 -40.02388063046359
-8.203444890698101 11.27025319597372 -39.97611936953641
12.08231573269212 6.952176760671228 -40.02388063046359
-12.08231573269214 6.9521767606712 -40.02388063046357
4.727550851676732 8.077034570906722 -37.19754895125242
-4.727550851676703 8.077034570906749 -37.19754895125242
0.007564060303035802 11.05477284969563 -57.22237279782084
-0.7079437208279256 8.716656927457294 -25.77267203761219
0.05533887504426803 11.12106750377063 -97.25043338445482
0.791388016389636 8.674089903905076 -65.93525157478548
-0.5426410049104864 11.90145124927816 -11.33359636927436
0.290740876761429 8.506975206197652 -105.7684419442185
-1.000910740864695 7.035513570894496 -17.82679657413589
-1.523554726677868 7.14390057731566 -90.98743798001321
-1.718170553223675 6.922058749296863 -51.05920245515149
1.641660954260754 13.74547577975895 -17.95566427705581
1.214410020901068 6.691207854785942 -6.696782599687917
-2.231446349855187 14.07858077920106 -63.66288951217818
-2.65369013731944 13.98716093592765 -5.521849490572865
-2.687189293586933 6.485018645706948 -111.2610256270818
1.842306197281488 14.22829888213731 -24.43998771660535
-2.024418606030567 14.15573230225087 -104.5162232846075

CELLS 2930 12852
1 0
1 1
1 2
1 3
1 4
1 5
1 6
1 7
1 8
1 9
1 10
1 11
1 12
1 13
1 14
1 15
1 16
1 17
1 18
1 19
1 20
1 21
1 22
1 23
1 24
1 25
1 26
1 27
1 28
1 29
1 30
1 31
1 32
1 33
1 34
1 35
1 36
1 37
1 38
1 39
1 40
1 41
1 42
1 43
1 44
1 45
1 46
1 47
1 48
1 49
1 50
1 51
1 52
1 53
1 54
1 55
1 56
1 57
1 58
1 59
1 60
1 61
1 62
1 63
1 64
1 65
2 0 66
2 66 1
2 1 2
2 2 67
2 67 3
2 3 68
2 68 69
2 69 70
2 70 71
2 71 4
2 4 5
2 5 6
2 6 72
2 72 73
2 73 74
2 74 7
2 8 7
2 8 9
2 9 75
2 75 76
2 76 77
2 77 78
2 78 10
2 11 79
2 79 10
2 12 11
2 13 80
2 80 12
2 13 81
2 81 82
2 82 83
2 83 84
2 84 14
2 15 85
2 85 14
2 16 15
2 17 86
2 86 16
2 17 87
2 87 88
2 88 89
2 89 90
2 90 91
2 91 18
2 19 92
2 92 93
2 93 18
2 20 94
2 94 95
2 95 96
2 96 97
2 97 98
2 98 19
2 20 99
2 99 21
2 21 22
2 22 100
2 100 23
2 0 101
2 101 102
2 102 103
2 103 104
2 104 23
2 1 105
2 105 106
2 106 107
2 107 108
2 108 109
2 109 110
2 110 111
2 111 12
2 24 112
2 112 13
2 24 113
2 113 114
2 114 25
2 25 115
2 115 0
2 2 116
2 116 117
2 117 118
2 118 119
2 119 120
2 120 121
2 121 122
2 122 11
2 3 123
2 123 26
2 26 124
2 124 125
2 125 27
2 10 126
2 126 27
2 4 127
2 127 128
2 128 28
2 29 129
2 129 130
2 130 131
2 131 28
2 26 132
2 132 133
2 133 29
2 31 134
2 134 135
2 135 136
2 136 30
2 8 137
2 137 138
2 138 139
2 139 31
2 32 140
2 140 141
2 141 9
2 32 142
2 142 143
2 143 28
2 5 144
2 144 145
2 145 146
2 146 30
2 6 147
2 147 148
2 148 149
2 149 33
2 30 33
2 34 150
2 150 151
2 151 152
2 152 33
2 7 153
2 153 154
2 154 155
2 155 34
2 31 34
2 32 156
2 156 157
2 157 158
2 158 35
2 27 159
2 159 160
2 160 35
2 36 161
2 161 162
2 162 24
2 37 163
2 163 36
2 38 164
2 164 165
2 165 37
2 14 166
2 166 38
2 23 167
2 167 39
2 39 168
2 168 169
2 169 38
2 22 170
2 170 171
2 171 172
2 172 173
2 173 174
2 174 175
2 175 176
2 176 15
2 21 177
2 177 178
2 178 179
2 179 180
2 180 181
2 181 182
2 182 183
2 183 16
2 40 184
2 184 17
2 40 185
2 185 186
2 186 41
2 41 187
2 187 20
2 42 188
2 188 189
2 189 40
2 43 190
2 190 42
2 44 191
2 191 192
2 192 43
2 18 44
2 45 193
2 193 194
2 194 44
2 19 45
2 46 195
2 195 196
2 196 41
2 47 197
2 197 46
2 45 198
2 198 199
2 199 47
2 48 200
2 200 201
2 201 25
2 49 202
2 202 48
2 39 203
2 203 204
2 204 49
2 48 205
2 205 206
2 206 36
2 29 207
2 207 208
2 208 35
2 49 209
2 209 210
2 210 37
2 46 211
2 211 212
2 212 42
2 47 213
2 213 214
2 214 43
2 50 215
2 215 51
2 51 216
2 216 50
2 50 217
2 217 52
2 52 218
2 218 219
2 219 220
2 220 221
2 221 222
2 222 53
2 53 223
2 223 51
2 52 54
2 54 224
2 224 55
2 55 225
2 225 56
2 56 226
2 226 57
2 53 57
2 54 227
2 227 228
2 228 229
2 229 230
2 230 231
2 231 57
2 55 232
2 232 56
2 58 233
2 233 59
2 59 234
2 234 58
2 58 235
2 235 60
2 60 236
2 236 237
2 237 238
2 238 239
2 239 240
2 240 61
2 61 241
2 241 59
2 60 62
2 62 242
2 242 63
2 63 243
2 243 64
2 64 244
2 244 65
2 61 65
2 62 245
2 245 246
2 246 247
2 247 248
2 248 249
2 249 65
2 63 250
2 250 64
3 66 276 0
3 0 253 101
3 0 257 253
3 0 276 257
3 2 290 1
3 1 290 66
3 67 290 2
3 3 276 67
3 68 254 3
3 254 302 3
3 257 276 3
3 3 302 257
3 5 6 4
3 4 6 72
3 4 270 71
3 72 270 4
3 8 9 7
3 7 9 74
3 9 259 74
3 75 305 9
3 9 305 259
3 10 267 78
3 79 277 10
3 10 269 267
3 10 277 269
3 12 289 11
3 11 289 79
3 80 289 12
3 13 277 80
3 81 266 13
3 266 301 13
3 269 277 13
3 13 301 269
3 14 265 84
3 85 275 14
3 14 275 262
3 262 303 14
3 14 303 265
3 16 287 15
3 15 287 85
3 86 287 16
3 17 275 86
3 87 251 17
3 251 262 17
3 262 275 17
3 18 300 91
3 93 300 18
3 19 299 92
3 98 299 19
3 20 263 94
3 99 274 20
3 20 274 258
3 258 298 20
3 20 298 263
3 22 288 21
3 21 288 99
3 100 288 22
3 23 274 100
3 104 252 23
3 252 258 23
3 258 274 23
3 66 290 276
3 276 290 67
3 69 296 68
3 68 296 254
3 70 261 69
3 261 296 69
3 71 284 70
3 70 284 261
3 270 284 71
3 73 270 72
3 74 259 73
3 259 270 73
3 76 268 75
3 268 305 75
3 77 283 76
3 76 283 268
3 78 295 77
3 77 295 283
3 267 295 78
3 79 289 277
3 277 289 80
3 82 292 81
3 81 292 266
3 83 260 82
3 260 292 82
3 84 291 83
3 83 291 260
3 265 291 84
3 85 287 275
3 275 287 86
3 88 281 87
3 87 281 251
3 89 256 88
3 256 281 88
3 90 280 89
3 89 280 256
3 91 286 90
3 90 286 280
3 91 300 286
3 92 255 93
3 92 299 255
3 255 300 93
3 94 278 95
3 263 278 94
3 95 279 96
3 278 279 95
3 96 264 97
3 96 279 264
3 97 285 98
3 264 285 97
3 285 299 98
3 99 288 274
3 274 288 100
3 101 293 102
3 253 293 101
3 102 282 103
3 102 293 282
3 103 294 104
3 282 294 103
3 104 294 252
3 251 298 262
3 281 304 251
3 251 304 298
3 252 303 258
3 252 273 265
3 265 303 252
3 252 294 273
3 257 301 253
3 266 272 253
3 253 301 266
3 272 293 253
3 254 271 267
3 267 302 254
3 254 296 271
3 285 286 255
3 255 299 285
3 286 300 255
3 256 279 278
3 278 281 256
3 256 280 279
3 257 302 301
3 258 303 298
3 259 297 270
3 259 305 297
3 260 282 272
3 272 292 260
3 273 282 260
3 260 291 273
3 268 283 261
3 261 284 268
3 261 283 271
3 271 296 261
3 298 303 262
3 263 304 278
3 298 304 263
3 279 280 264
3 280 285 264
3 273 291 265
3 266 292 272
3 269 302 267
3 271 295 267
3 284 297 268
3 297 305 268
3 301 302 269
3 270 297 284
3 283 295 271
3 282 293 272
3 273 294 282
3 278 304 281
3 280 286 285
3 0 308 66
3 115 308 0
3 66 105 1
3 111 80 12
3 112 13 80
3 109 24 110
3 109 113 24
3 24 307 110
3 112 307 24
3 25 107 106
3 106 306 25
3 114 107 25
3 25 306 115
3 66 306 105
3 66 308 306
3 111 307 80
3 80 307 112
3 105 306 106
3 108 107 114
3 109 108 113
3 108 114 113
3 110 307 111
3 306 308 115
3 1 310 2
3 105 310 1
3 2 310 116
3 11 313 12
3 122 313 11
3 12 313 111
3 106 309 105
3 105 309 116
3 116 310 105
3 107 311 106
3 117 309 106
3 106 311 117
3 108 315 107
3 118 311 107
3 107 315 118
3 109 312 108
3 108 312 119
3 119 315 108
3 110 316 109
3 120 312 109
3 109 316 120
3 111 314 110
3 110 314 121
3 121 316 110
3 111 313 122
3 122 314 111
3 116 309 117
3 117 311 118
3 118 315 119
3 119 312 120
3 120 316 121
3 121 314 122
3 67 2 116
3 67 123 3
3 126 79 10
3 122 11 79
3 26 117 118
3 26 318 117
3 26 118 124
3 123 318 26
3 27 317 121
3 121 319 27
3 125 317 27
3 27 319 126
3 116 318 67
3 67 318 123
3 79 319 122
3 126 319 79
3 117 318 116
3 124 118 119
3 120 125 119
3 125 124 119
3 121 317 120
3 120 317 125
3 122 319 121
3 3 329 68
3 123 329 3
3 71 330 4
3 4 330 127
3 26 323 123
3 132 323 26
3 128 333 28
3 28 333 131
3 129 325 29
3 29 325 133
3 68 327 69
3 68 329 327
3 69 324 70
3 69 327 324
3 70 322 71
3 70 324 322
3 322 330 71
3 323 329 123
3 127 328 128
3 127 330 328
3 328 333 128
3 130 320 129
3 320 325 129
3 131 326 130
3 130 326 320
3 131 333 326
3 133 321 132
3 321 323 132
3 133 325 321
3 320 331 325
3 326 332 320
3 320 332 331
3 321 327 323
3 325 331 321
3 321 331 327
3 324 332 322
3 328 330 322
3 322 332 328
3 327 329 323
3 327 331 324
3 331 332 324
3 328 332 326
3 326 333 328
3 5 4 334
3 4 127 334
3 144 5 334
3 9 8 335
3 8 137 335
3 141 9 335
3 30 28 136
3 146 28 30
3 128 28 146
3 28 143 136
3 31 134 32
3 31 32 139
3 134 142 32
3 139 32 140
3 128 145 127
3 127 145 144
3 127 144 334
3 145 128 146
3 142 134 135
3 143 135 136
3 143 142 135
3 137 138 141
3 137 141 335
3 138 139 140
3 138 140 141
3 5 339 6
3 144 339 5
3 6 339 147
3 33 336 30
3 30 336 146
3 149 336 33
3 145 338 144
3 144 338 147
3 147 339 144
3 146 337 145
3 145 337 148
3 148 338 145
3 146 336 149
3 149 337 146
3 147 338 148
3 148 337 149
3 6 350 72
3 147 350 6
3 74 352 7
3 7 352 153
3 33 351 149
3 152 351 33
3 34 349 150
3 155 349 34
3 72 348 73
3 72 350 348
3 73 340 74
3 73 348 340
3 340 352 74
3 148 342 147
3 342 350 147
3 149 344 148
3 148 344 342
3 149 351 344
3 150 347 151
3 150 349 347
3 151 341 152
3 151 347 341
3 341 351 152
3 153 346 154
3 153 352 346
3 154 343 155
3 154 346 343
3 343 349 155
3 345 346 340
3 340 348 345
3 346 352 340
3 341 345 344
3 344 351 341
3 341 347 345
3 344 345 342
3 345 348 342
3 348 350 342
3 343 346 345
3 345 347 343
3 347 349 343
3 8 7 356
3 7 153 356
3 137 8 356
3 34 31 353
3 31 139 353
3 155 34 353
3 138 137 355
3 137 153 355
3 153 137 356
3 139 138 354
3 138 154 354
3 154 138 355
3 139 155 353
3 155 139 354
3 153 154 355
3 154 155 354
3 75 9 366
3 9 141 366
3 126 10 78
3 27 126 360
3 159 27 360
3 140 32 369
3 32 156 369
3 158 35 362
3 35 160 362
3 76 75 359
3 359 75 366
3 77 76 361
3 76 359 361
3 78 77 364
3 77 361 364
3 126 78 360
3 360 78 364
3 141 140 365
3 365 140 369
3 141 365 366
3 156 157 363
3 156 363 369
3 157 158 357
3 157 357 363
3 357 158 362
3 160 159 358
3 358 159 360
3 160 358 362
3 357 362 367
3 363 357 368
3 357 367 368
3 358 360 364
3 362 358 367
3 358 364 367
3 361 359 368
3 365 359 366
3 359 365 368
3 364 361 367
3 367 361 368
3 365 363 368
3 363 365 369
3 81 13 112
3 14 84 379
3 166 14 379
3 112 24 375
3 24 162 375
3 161 36 374
3 36 163 374
3 163 37 371
3 37 165 371
3 164 38 373
3 38 166 373
3 82 81 377
3 81 112 375
3 81 375 377
3 83 82 370
3 370 82 377
3 84 83 376
3 83 370 376
3 84 376 379
3 162 161 372
3 372 161 374
3 162 372 375
3 163 371 374
3 165 164 378
3 164 373 378
3 371 165 378
3 373 166 379
3 376 370 381
3 370 377 380
3 370 380 381
3 374 371 381
3 371 378 381
3 372 374 380
3 375 372 377
3 377 372 380
3 373 376 378
3 376 373 379
3 380 374 381
3 378 376 381
3 166 85 14
3 176 15 85
3 100 22 170
3 100 167 23
3 38 384 166
3 169 382 38
3 38 382 175
3 175 384 38
3 167 383 39
3 39 172 168
3 39 171 172
3 39 383 171
3 166 384 85
3 85 384 176
3 100 383 167
3 170 383 100
3 169 168 173
3 168 172 173
3 174 169 173
3 174 382 169
3 171 383 170
3 175 382 174
3 176 384 175
3 15 388 16
3 176 388 15
3 16 388 183
3 21 386 22
3 177 386 21
3 22 386 170
3 170 385 171
3 177 385 170
3 170 386 177
3 171 387 172
3 171 385 178
3 178 387 171
3 172 391 173
3 172 387 179
3 179 391 172
3 173 389 174
3 180 389 173
3 173 391 180
3 174 392 175
3 174 389 181
3 181 392 174
3 175 390 176
3 182 390 175
3 175 392 182
3 183 388 176
3 176 390 183
3 178 385 177
3 179 387 178
3 180 391 179
3 181 389 180
3 182 392 181
3 183 390 182
3 183 86 16
3 184 17 86
3 20 395 99
3 187 395 20
3 99 177 21
3 181 40 182
3 181 185 40
3 40 394 182
3 184 394 40
3 41 179 178
3 178 393 41
3 186 179 41
3 41 393 187
3 183 394 86
3 86 394 184
3 99 393 177
3 99 395 393
3 177 393 178
3 180 179 186
3 181 180 185
3 180 186 185
3 182 394 183
3 393 395 187
3 87 17 406
3 17 184 406
3 44 18 404
3 18 91 404
3 184 40 400
3 40 189 400
3 188 42 397
3 42 190 397
3 190 43 398
3 43 192 398
3 191 44 404
3 88 87 401
3 401 87 406
3 89 88 396
3 396 88 401
3 90 89 402
3 89 396 402
3 91 90 407
3 90 402 407
3 404 91 407
3 184 400 406
3 189 188 403
3 188 397 403
3 400 189 403
3 397 190 398
3 192 191 399
3 399 191 404
3 398 192 399
3 396 401 405
3 402 396 405
3 397 398 405
3 403 397 405
3 398 399 402
3 398 402 405
3 402 399 407
3 399 404 407
3 401 400 403
3 400 401 406
3 401 403 405
3 44 410 18
3 18 410 93
3 19 408 45
3 92 408 19
3 194 410 44
3 45 408 193
3 93 409 92
3 92 409 408
3 93 410 409
3 193 409 194
3 408 409 193
3 409 410 194
3 45 419 19
3 19 419 98
3 94 420 20
3 20 420 187
3 187 414 41
3 41 414 196
3 198 419 45
3 195 412 46
3 46 412 197
3 197 416 47
3 47 416 199
3 95 417 94
3 417 420 94
3 96 411 95
3 411 417 95
3 97 418 96
3 96 418 411
3 98 422 97
3 97 422 418
3 419 422 98
3 187 420 414
3 196 415 195
3 195 415 412
3 414 415 196
3 412 416 197
3 199 413 198
3 413 419 198
3 199 416 413
3 411 421 417
3 418 421 411
3 415 421 412
3 412 421 416
3 416 418 413
3 418 422 413
3 413 422 419
3 414 417 415
3 414 420 417
3 417 421 415
3 416 421 418
3 101 432 0
3 0 432 115
3 23 433 104
3 167 433 23
3 115 428 25
3 25 428 201
3 39 426 167
3 203 426 39
3 200 427 48
3 48 427 202
3 202 424 49
3 49 424 204
3 102 430 101
3 430 432 101
3 103 423 102
3 423 430 102
3 104 429 103
3 103 429 423
3 104 433 429
3 115 432 428
3 426 433 167
3 201 425 200
3 425 427 200
3 201 428 425
3 202 427 424
3 204 431 203
3 203 431 426
3 424 431 204
3 429 435 423
3 423 434 430
3 423 435 434
3 427 435 424
3 424 435 431
3 425 434 427
3 428 430 425
3 430 434 425
3 426 431 429
3 429 433 426
3 434 435 427
3 428 432 430
3 431 435 429
3 24 113 162
3 114 25 201
3 161 440 36
3 36 440 206
3 48 439 200
3 205 439 48
3 114 437 113
3 113 438 162
3 437 438 113
3 201 437 114
3 162 438 161
3 438 440 161
3 200 437 201
3 200 439 437
3 206 436 205
3 436 439 205
3 206 440 436
3 436 438 437
3 437 439 436
3 436 440 438
3 132 26 124
3 27 159 125
3 133 444 29
3 29 444 207
3 35 445 160
3 208 445 35
3 125 443 124
3 124 442 132
3 124 443 442
3 159 443 125
3 132 442 133
3 442 444 133
3 160 443 159
3 160 445 443
3 207 441 208
3 207 444 441
3 441 445 208
3 442 443 441
3 441 444 442
3 443 445 441
3 131 452 28
3 28 452 143
3 29 455 129
3 207 455 29
3 142 454 32
3 32 454 156
3 158 453 35
3 35 453 208
3 129 451 130
3 129 455 451
3 130 449 131
3 130 451 449
3 449 452 131
3 143 447 142
3 447 454 142
3 143 452 447
3 156 448 157
3 156 454 448
3 157 450 158
3 448 450 157
3 450 453 158
3 208 446 207
3 446 455 207
3 208 453 446
3 446 450 449
3 449 451 446
3 446 453 450
3 451 455 446
3 447 449 448
3 448 454 447
3 447 452 449
3 449 450 448
3 30 456 33
3 136 456 30
3 34 458 31
3 31 458 134
3 33 456 152
3 150 458 34
3 134 459 135
3 134 458 150
3 150 459 134
3 135 457 136
3 151 457 135
3 135 459 151
3 152 456 136
3 136 457 152
3 151 459 150
3 152 457 151
3 36 465 163
3 206 465 36
3 163 461 37
3 37 461 210
3 202 464 48
3 48 464 205
3 49 462 202
3 209 462 49
3 163 465 461
3 462 464 202
3 205 463 206
3 205 464 463
3 463 465 206
3 210 460 209
3 460 462 209
3 210 461 460
3 461 463 460
3 460 463 462
3 461 465 463
3 463 464 462
3 37 469 165
3 210 469 37
3 164 169 38
3 203 39 168
3 204 470 49
3 49 470 209
3 165 467 164
3 164 467 169
3 165 469 467
3 169 467 168
3 168 468 203
3 467 468 168
3 203 468 204
3 468 470 204
3 209 466 210
3 209 470 466
3 466 469 210
3 466 468 467
3 467 469 466
3 466 470 468
3 185 189 40
3 186 41 196
3 188 475 42
3 42 475 212
3 46 474 195
3 211 474 46
3 186 473 185
3 185 472 189
3 185 473 472
3 196 473 186
3 189 472 188
3 472 475 188
3 195 473 196
3 195 474 473
3 212 471 211
3 471 474 211
3 212 475 471
3 472 473 471
3 471 475 472
3 473 474 471
3 42 478 190
3 212 478 42
3 190 480 43
3 43 480 214
3 197 477 46
3 46 477 211
3 47 481 197
3 213 481 47
3 478 480 190
3 197 481 477
3 211 476 212
3 211 477 476
3 476 478 212
3 214 479 213
3 479 481 213
3 214 480 479
3 477 479 476
3 476 479 478
3 477 481 479
3 479 480 478
3 43 489 192
3 214 489 43
3 191 488 44
3 44 488 194
3 193 486 45
3 45 486 198
3 199 487 47
3 47 487 213
3 192 484 191
3 484 488 191
3 192 489 484
3 194 483 193
3 483 486 193
3 194 488 483
3 198 485 199
3 198 486 485
3 485 487 199
3 213 482 214
3 213 487 482
3 482 489 214
3 482 485 484
3 484 489 482
3 482 487 485
3 484 485 483
3 483 488 484
3 485 486 483
3 215 216 50
3 216 215 51
3 215 50 490
3 50 217 490
3 51 215 491
3 223 51 491
3 52 218 217
3 222 53 223
3 220 215 490
3 215 220 491
3 217 218 490
3 218 219 490
3 219 220 490
3 220 221 491
3 221 222 491
3 222 223 491
3 216 492 50
3 50 494 217
3 492 494 50
3 51 493 216
3 223 495 51
3 51 495 493
3 52 496 54
3 217 496 52
3 57 497 53
3 53 497 223
3 54 496 224
3 224 494 55
3 55 492 225
3 55 494 492
3 225 493 56
3 56 495 226
3 493 495 56
3 226 497 57
3 216 493 492
3 494 496 217
3 223 497 495
3 224 496 494
3 492 493 225
3 495 497 226
3 52 54 502
3 218 52 502
3 57 53 503
3 53 222 503
3 54 227 502
3 231 57 503
3 219 218 499
3 218 227 499
3 227 218 502
3 220 219 498
3 219 228 498
3 228 219 499
3 221 220 500
3 229 220 498
3 220 229 500
3 222 221 501
3 230 221 500
3 221 230 501
3 231 222 501
3 222 231 503
3 227 228 499
3 228 229 498
3 229 230 500
3 230 231 501
3 54 224 227
3 224 55 504
3 55 232 504
3 56 226 505
3 232 56 505
3 231 226 57
3 227 224 504
3 226 231 505
3 228 227 504
3 229 228 504
3 230 229 505
3 232 229 504
3 229 232 505
3 231 230 505
3 225 232 55
3 232 225 56
3 233 234 58
3 234 233 59
3 233 58 506
3 58 235 506
3 59 233 507
3 241 59 507
3 60 236 235
3 240 61 241
3 238 233 506
3 233 238 507
3 235 236 506
3 236 237 506
3 237 238 506
3 238 239 507
3 239 240 507
3 240 241 507
3 234 508 58
3 58 510 235
3 508 510 58
3 59 509 234
3 241 511 59
3 59 511 509
3 60 512 62
3 235 512 60
3 65 513 61
3 61 513 241
3 62 512 242
3 242 510 63
3 63 508 243
3 63 510 508
3 243 509 64
3 64 511 244
3 509 511 64
3 244 513 65
3 234 509 508
3 510 512 235
3 241 513 511
3 242 512 510
3 508 509 243
3 511 513 244
3 60 62 518
3 236 60 518
3 65 61 519
3 61 240 519
3 62 245 518
3 249 65 519
3 237 236 515
3 236 245 515
3 245 236 518
3 238 237 514
3 237 246 514
3 246 237 515
3 239 238 516
3 247 238 514
3 238 247 516
3 240 239 517
3 248 239 516
3 239 248 517
3 249 240 517
3 240 249 519
3 245 246 515
3 246 247 514
3 247 248 516
3 248 249 517
3 62 242 245
3 242 63 520
3 63 250 520
3 64 244 521
3 250 64 521
3 249 244 65
3 245 242 520
3 244 249 521
3 246 245 520
3 247 246 520
3 248 247 521
3 250 247 520
3 247 250 521
3 249 248 521
3 243 250 63
3 250 243 64
4 110 239 24 109
4 40 181 182 221
4 117 246 26 118
4 39 172 171 228
4 219 178 41 179
4 55 426 252 433
4 24 110 307 240
4 40 182 394 222
4 26 117 318 245
4 39 171 383 227
4 434 293 430 522
4 434 423 293 522
4 426 55 252 525
4 357 362 453 536
4 293 434 430 423
4 128 333 532 534
4 267 254 243 523
4 357 367 362 536
4 128 143 333 534
4 429 252 426 433
4 426 232 55 525
4 254 327 323 523
4 323 321 442 523
4 452 333 143 534
4 486 422 413 535
4 357 453 531 536
4 526 532 333 534
4 293 423 282 522
4 56 379 265 373
4 265 373 376 525
4 293 282 272 522
4 377 370 380 530
4 486 483 255 535
4 357 531 367 536
4 174 229 169 230
4 248 247 120 125
4 265 252 225 525
4 370 522 260 525
4 260 522 282 525
4 128 333 328 532
4 272 293 522 530
4 193 486 255 299
4 430 432 428 530
4 219 218 490 41
4 237 236 506 25
4 245 246 520 26
4 227 228 504 39
4 222 221 491 40
4 240 239 507 24
4 256 396 524 527
4 323 254 63 329
4 370 522 380 530
4 481 416 477 524
4 430 522 293 530
4 107 238 114 237
4 179 220 186 219
4 50 263 216 529
4 486 255 483 193
4 396 405 524 527
4 322 526 528 532
4 333 526 328 532
4 121 120 317 316
4 481 416 524 537
4 285 422 486 535
4 299 486 255 285
4 323 327 321 523
4 260 522 370 530
4 377 260 370 530
4 279 524 411 527
4 377 292 260 530
4 411 524 421 527
4 174 175 392 382
4 434 430 425 522
4 252 429 426 525
4 282 522 423 525
4 452 526 333 534
4 260 272 282 522
4 323 442 124 523
4 172 168 229 228
4 109 238 239 113
4 247 118 124 246
4 185 181 221 220
4 422 527 413 535
4 378 376 373 525
4 329 323 254 327
4 322 528 284 532
4 265 379 376 373
4 291 370 260 525
4 424 522 462 533
4 463 462 464 522
4 396 402 405 527
4 367 357 528 531
4 367 531 523 536
4 272 522 260 530
4 359 526 366 532
4 464 462 427 522
4 420 417 263 529
4 295 267 364 523
4 422 285 486 419
4 420 414 417 529
4 323 124 250 523
4 428 425 430 530
4 234 58 253 530
4 367 528 523 531
4 411 279 417 524
4 430 253 432 530
4 216 263 304 529
4 334 339 5 144
4 335 137 8 356
4 291 376 370 525
4 430 425 522 530
4 370 381 522 525
4 486 413 485 535
4 271 254 267 523
4 486 255 285 535
4 367 523 362 536
4 450 363 357 526
4 256 524 396 529
4 218 52 217 393
4 236 60 235 306
4 128 532 345 534
4 333 452 326 526
4 471 476 212 211
4 322 526 332 528
4 378 373 467 525
4 256 402 396 527
4 476 471 212 524
4 462 424 427 522
4 296 324 327 523
4 211 471 476 524
4 296 327 254 523
4 435 522 424 533
4 358 445 362 523
4 465 463 206 522
4 360 364 267 523
4 205 463 464 522
4 453 362 208 536
4 205 464 427 522
4 234 233 58 530
4 445 208 362 536
4 440 438 372 522
4 366 359 365 526
4 357 450 526 531
4 256 524 279 527
4 481 213 416 537
4 359 268 526 532
4 255 409 483 193
4 418 411 421 527
4 285 527 422 535
4 445 362 523 536
4 523 528 331 531
4 435 525 522 533
4 209 470 424 533
4 271 296 254 523
4 292 272 260 530
4 331 523 324 528
4 291 260 273 525
4 396 524 405 529
4 297 268 305 532
4 359 526 268 528
4 478 476 212 524
4 368 357 526 531
4 215 50 216 529
4 363 368 357 526
4 422 486 413 419
4 428 437 425 530
4 273 252 265 525
4 477 211 476 524
4 291 265 376 525
4 365 366 526 532
4 405 524 527 537
4 440 436 438 522
4 485 483 486 535
4 357 453 450 531
4 411 417 421 524
4 232 426 168 525
4 331 523 531 536
4 403 524 475 529
4 206 436 440 522
4 324 331 327 523
4 205 439 436 522
4 426 431 468 525
4 212 471 475 524
4 415 524 417 529
4 424 462 209 533
4 522 525 381 533
4 470 525 424 533
4 416 527 524 537
4 415 417 414 529
4 368 528 357 531
4 211 474 471 524
4 205 427 439 522
4 403 475 472 529
4 294 429 252 525
4 423 522 435 525
4 435 424 525 533
4 413 527 485 535
4 424 435 427 522
4 465 463 522 533
4 295 271 267 523
4 328 526 322 532
4 363 450 448 526
4 268 528 526 532
4 282 423 294 525
4 279 524 256 529
4 285 299 486 419
4 273 260 282 525
4 487 416 213 537
4 381 370 376 525
4 468 168 426 525
4 368 367 357 528
4 416 412 477 524
4 324 296 261 523
4 372 522 438 530
4 425 437 439 522
4 264 418 422 527
4 264 422 285 527
4 437 522 425 530
4 476 524 478 537
4 380 370 381 522
4 372 374 440 522
4 439 427 425 522
4 463 436 206 522
4 205 436 463 522
4 331 528 324 531
4 360 250 125 523
4 439 437 436 522
4 273 265 291 525
4 141 532 365 534
4 473 471 474 524
4 405 527 402 537
4 253 430 293 530
4 465 522 374 533
4 434 435 423 522
4 473 415 414 529
4 328 333 326 526
4 261 324 523 528
4 423 429 294 525
4 474 211 412 524
4 396 405 401 529
4 447 526 452 534
4 478 524 397 537
4 212 475 397 524
4 380 522 372 530
4 470 431 424 525
4 358 362 367 523
4 255 409 194 535
4 294 252 273 525
4 361 283 364 523
4 328 332 322 526
4 365 141 366 532
4 436 438 522 530
4 487 527 416 537
4 255 483 409 535
4 421 524 416 527
4 473 474 415 524
4 368 526 528 531
4 259 305 366 532
4 372 380 374 522
4 481 479 213 537
4 194 300 255 535
4 409 483 194 535
4 283 295 364 523
4 332 528 526 531
4 141 346 532 534
4 477 412 211 524
4 233 238 114 113
4 229 232 168 169
4 415 473 524 529
4 247 250 124 125
4 215 220 186 185
4 397 478 212 524
4 425 427 434 522
4 368 526 359 528
4 466 525 470 533
4 376 378 381 525
4 283 523 361 528
4 141 340 366 532
4 256 396 401 529
4 462 460 209 533
4 482 527 487 537
4 9 141 335 352
4 442 523 321 536
4 485 413 487 527
4 416 487 413 527
4 426 429 431 525
4 259 366 340 532
4 127 4 334 350
4 428 114 437 530
4 397 475 403 524
4 294 273 282 525
4 452 449 326 526
4 359 76 361 528
4 280 402 256 527
4 268 284 528 532
4 331 321 327 523
4 279 264 280 527
4 436 522 437 530
4 263 417 278 529
4 366 141 259 340
4 480 478 398 537
4 271 261 296 523
4 421 417 415 524
4 332 324 528 531
4 378 381 525 533
4 361 364 367 523
4 380 381 374 522
4 471 524 473 529
4 332 331 324 531
4 322 332 324 528
4 360 125 443 523
4 465 461 463 533
4 346 340 141 532
4 412 415 474 524
4 256 401 281 529
4 367 361 523 528
4 216 251 51 529
4 194 488 300 535
4 263 278 304 529
4 485 487 482 527
4 403 405 524 529
4 326 332 526 531
4 128 342 345 532
4 434 427 435 522
4 322 324 261 528
4 279 256 278 529
4 321 523 331 536
4 405 397 524 537
4 326 332 328 526
4 468 431 470 525
4 364 360 358 523
4 450 448 526 531
4 322 261 284 528
4 447 452 143 534
4 466 470 209 533
4 283 271 523 528
4 414 186 473 529
4 406 400 51 529
4 416 421 412 524
4 346 340 532 534
4 368 365 359 526
4 251 406 51 529
4 465 374 461 533
4 268 297 284 532
4 256 279 280 527
4 365 532 526 534
4 445 523 441 536
4 358 360 443 523
4 429 294 252 433
4 369 363 448 534
4 409 300 255 194
4 255 409 193 299
4 454 369 448 534
4 253 293 430 432
4 453 446 531 536
4 484 535 527 537
4 345 532 340 534
4 283 271 295 523
4 466 468 470 525
4 216 304 251 529
4 363 526 448 534
4 398 478 397 537
4 261 523 271 528
4 463 461 460 533
4 527 535 399 537
4 283 361 76 528
4 405 402 398 537
4 256 281 278 529
4 402 527 399 537
4 378 525 467 533
4 374 522 381 533
4 435 424 431 525
4 452 447 449 526
4 443 445 358 523
4 479 476 478 537
4 403 401 405 529
4 380 372 377 530
4 326 526 449 531
4 413 422 418 527
4 251 281 406 529
4 451 326 320 130
4 449 526 448 531
4 272 253 293 530
4 484 399 535 537
4 482 484 485 527
4 266 59 234 530
4 61 240 307 111
4 53 222 394 183
4 65 249 122 319
4 57 231 176 384
4 480 479 478 537
4 455 325 320 536
4 435 429 423 525
4 418 421 416 527
4 110 314 111 240
4 175 231 176 390
4 227 170 385 171
4 484 489 399 537
4 330 322 284 532
4 193 486 299 419
4 346 345 340 534
4 444 442 321 536
4 405 398 397 537
4 378 467 469 533
4 482 487 213 537
4 25 114 506 237
4 41 186 490 219
4 330 328 322 532
4 259 297 305 532
4 152 33 351 456
4 150 34 458 349
4 450 449 448 531
4 359 268 76 528
4 299 408 193 419
4 370 83 291 260
4 280 407 402 535
4 463 205 206 436
4 320 326 451 449
4 285 280 264 527
4 397 403 405 524
4 423 282 294 103
4 482 484 527 537
4 364 78 267 295
4 234 253 266 530
4 363 369 365 534
4 488 194 483 535
4 423 293 282 102
4 365 368 363 526
4 404 300 488 535
4 441 523 442 536
4 443 441 445 523
4 183 222 182 390
4 122 314 121 249
4 70 324 261 322
4 480 398 478 190
4 105 106 236 309
4 356 153 7 352
4 358 367 364 523
4 181 182 221 392
4 171 172 387 228
4 339 350 6 147
4 280 402 527 535
4 141 365 140 534
4 28 333 128 143
4 33 149 351 336
4 70 261 284 322
4 485 527 484 535
4 283 261 271 528
4 171 228 387 499
4 221 182 501 392
4 403 472 400 529
4 402 399 398 537
4 453 446 450 531
4 34 353 349 155
4 331 320 325 536
4 113 24 507 239
4 168 39 504 228
4 363 365 526 534
4 449 326 451 130
4 185 40 491 221
4 124 26 520 246
4 401 406 281 529
4 316 239 517 110
4 311 246 515 117
4 179 220 498 391
4 107 238 514 315
4 238 109 516 312
4 448 526 447 534
4 367 368 361 528
4 331 531 320 536
4 316 239 110 109
4 320 449 451 531
4 389 229 174 500
4 412 421 415 524
4 467 525 466 533
4 220 389 181 500
4 413 418 416 527
4 429 423 294 103
4 280 527 285 535
4 141 140 346 534
4 516 120 247 312
4 441 443 442 523
4 423 430 293 102
4 347 459 150 151
4 291 376 83 370
4 32 369 142 534
4 399 489 398 537
4 454 448 447 534
4 385 177 218 178
4 311 246 117 118
4 308 276 290 512
4 325 444 321 536
4 354 154 343 155
4 274 395 496 288
4 51 215 216 529
4 469 467 466 533
4 436 437 438 530
4 327 324 296 69
4 399 527 402 535
4 387 219 178 499
4 360 364 78 267
4 407 280 286 535
4 247 118 514 315
4 391 229 498 172
4 59 266 375 530
4 341 457 151 152
4 445 441 208 536
4 326 449 320 531
4 454 142 32 369
4 467 468 466 525
4 233 234 59 530
4 431 429 435 525
4 283 76 268 528
4 375 266 377 530
4 489 214 480 537
4 377 266 292 530
4 369 454 142 534
4 352 259 141 340
4 457 143 135 136
4 135 459 134 142
4 175 231 384 176
4 111 307 110 240
4 394 222 182 183
4 227 383 170 171
4 121 319 122 249
4 330 270 127 532
4 209 460 210 533
4 368 359 361 528
4 96 418 264 411
4 209 210 466 533
4 9 141 352 259
4 256 89 396 402
4 448 449 447 526
4 284 270 330 532
4 447 143 142 534
4 482 489 484 537
4 320 331 332 531
4 401 400 406 529
4 387 219 179 178
4 142 143 347 534
4 325 321 331 536
4 371 461 374 533
4 364 77 295 283
4 348 127 270 532
4 348 350 270 127
4 471 473 472 529
4 77 364 361 283
4 140 369 32 534
4 304 281 251 529
4 372 438 375 530
4 342 147 338 148
4 483 485 484 535
4 333 28 452 143
4 261 296 324 69
4 206 440 36 465
4 420 94 263 417
4 337 148 149 344
4 246 117 245 515
4 171 227 228 499
4 240 239 110 517
4 222 221 182 501
4 308 290 60 512
4 496 395 52 288
4 157 450 363 357
4 259 9 366 305
4 153 355 154 346
4 141 9 366 259
4 178 219 218 499
4 326 320 332 531
4 185 400 472 529
4 348 270 259 532
4 300 286 255 535
4 480 489 43 214
4 127 4 350 270
4 374 461 163 465
4 464 427 462 202
4 433 294 252 104
4 254 296 329 327
4 253 293 432 101
4 407 90 280 402
4 144 127 338 145
4 137 138 355 141
4 254 296 68 329
4 451 446 455 536
4 344 128 342 345
4 207 325 455 536
4 96 264 279 411
4 378 469 371 533
4 136 28 30 456
4 32 31 458 134
4 60 235 306 308
4 52 217 393 395
4 284 297 270 532
4 398 489 480 537
4 450 448 157 363
4 416 487 199 413
4 73 259 348 270
4 266 253 272 530
4 442 321 323 132
4 192 398 399 489
4 43 398 489 480
4 371 374 381 533
4 280 285 286 535
4 280 90 407 286
4 208 446 453 536
4 341 347 143 534
4 398 397 478 190
4 218 52 177 502
4 236 60 105 518
4 61 240 111 519
4 53 222 183 503
4 251 87 406 281
4 409 410 300 194
4 81 377 375 266
4 440 374 36 465
4 422 418 264 97
4 291 84 379 265
4 259 270 297 532
4 156 448 454 369
4 408 193 409 299
4 293 430 432 101
4 433 429 294 104
4 340 348 259 532
4 362 453 158 357
4 139 140 354 138
4 337 128 146 145
4 403 400 401 529
4 348 345 342 532
4 379 376 84 291
4 296 68 329 327
4 377 81 292 266
4 401 406 87 281
4 359 366 75 305
4 438 113 375 530
4 156 448 369 363
4 441 442 444 536
4 34 353 458 349
4 410 300 93 409
4 472 403 400 189
4 286 285 255 535
4 220 179 498 219
4 238 107 514 237
4 109 238 516 239
4 181 221 220 500
4 409 408 299 92
4 407 399 402 535
4 214 482 213 537
4 207 444 325 536
4 353 31 32 139
4 146 30 28 336
4 409 194 483 193
4 487 485 199 413
4 371 461 163 374
4 427 424 462 202
4 113 438 437 530
4 57 231 503 176
4 65 249 519 122
4 4 127 330 270
4 444 325 321 133
4 360 78 64 267
4 174 229 230 500
4 120 516 247 248
4 291 379 376 265
4 89 256 280 402
4 208 441 207 536
4 320 325 455 129
4 64 267 269 243
4 264 285 422 97
4 35 208 453 362
4 484 192 399 489
4 127 328 330 532
4 268 284 261 528
4 455 451 320 129
4 208 35 445 362
4 118 247 514 246
4 228 498 229 172
4 508 234 58 257
4 431 468 203 426
4 127 348 342 532
4 73 259 340 348
4 185 472 473 529
4 378 371 381 533
4 257 234 58 253
4 225 492 55 258
4 375 59 81 266
4 404 286 300 535
4 214 213 479 537
4 252 225 55 258
4 509 64 269 243
4 372 438 162 375
4 341 351 344 143
4 362 160 445 358
4 78 10 64 267
4 304 278 281 529
4 72 350 4 270
4 372 375 377 530
4 451 531 446 536
4 71 284 270 330
4 278 263 94 417
4 389 229 173 174
4 440 161 374 372
4 427 439 425 200
4 236 518 105 309
4 519 240 111 314
4 348 350 72 270
4 341 345 347 534
4 385 177 502 218
4 503 222 183 390
4 340 345 348 532
4 198 413 485 486
4 469 210 371 533
4 238 109 312 108
4 238 107 108 315
4 179 220 391 180
4 231 503 176 390
4 255 93 300 409
4 249 519 122 314
4 285 299 419 98
4 452 333 326 131
4 74 259 9 352
4 486 198 413 419
4 456 33 351 336
4 444 321 442 133
4 91 404 286 300
4 299 255 409 92
4 419 422 285 98
4 120 247 312 119
4 268 359 75 305
4 286 404 407 535
4 452 326 449 131
4 268 261 283 528
4 204 424 470 431
4 140 343 346 534
4 371 210 461 533
4 428 425 437 201
4 52 395 393 99
4 308 60 66 306
4 284 71 322 330
4 196 473 415 414
4 343 345 346 534
4 210 469 466 533
4 191 399 488 484
4 216 51 251 298
4 91 404 407 286
4 167 224 383 100
4 318 67 123 242
4 86 223 184 394
4 226 85 166 384
4 453 450 158 357
4 391 173 229 172
4 247 118 315 119
4 220 180 181 389
4 375 438 162 113
4 211 46 474 412
4 274 395 217 496
4 442 323 124 132
4 126 10 64 78
4 59 13 81 266
4 451 449 446 531
4 78 64 126 360
4 81 112 59 375
4 426 468 203 168
4 469 210 37 371
4 470 424 49 209
4 159 443 358 360
4 484 399 488 535
4 292 266 272 530
4 365 369 140 534
4 399 488 404 191
4 370 82 83 260
4 497 287 53 275
4 472 400 185 189
4 91 404 300 410
4 354 140 139 155
4 63 508 510 257
4 494 492 50 258
4 280 90 89 402
4 446 449 450 531
4 511 269 59 509
4 339 4 350 334
4 373 378 467 164
4 352 74 259 340
4 267 269 243 302
4 371 469 378 165
4 326 449 131 130
4 9 335 356 352
4 244 65 79 319
4 54 383 224 100
4 67 318 62 242
4 80 61 241 307
4 223 86 53 394
4 57 85 226 384
4 462 49 424 209
4 210 461 37 371
4 208 207 446 536
4 303 492 225 258
4 404 488 399 535
4 269 509 243 302
4 470 468 204 431
4 419 299 408 98
4 56 262 495 493
4 96 264 418 97
4 252 23 55 433
4 46 211 477 412
4 56 265 303 225
4 142 347 349 343
4 397 42 475 212
4 249 244 27 319
4 231 226 38 384
4 300 18 91 410
4 142 347 343 534
4 298 304 216 263
4 253 58 0 432
4 14 56 379 265
4 301 234 508 257
4 475 403 472 188
4 210 460 461 533
4 301 266 59 234
4 112 59 13 81
4 275 497 226 495
4 276 308 235 512
4 282 423 102 103
4 303 225 252 258
4 302 243 267 254
4 216 50 298 263
4 47 197 481 416
4 232 169 467 168
4 160 443 445 358
4 42 397 478 212
4 510 3 63 257
4 301 234 257 253
4 87 88 401 281
4 36 161 374 440
4 48 439 427 200
4 299 19 408 98
4 433 252 23 104
4 44 410 194 488
4 453 158 35 362
4 432 0 253 101
4 479 480 214 537
4 304 216 251 298
4 275 223 497 495
4 480 43 398 190
4 277 241 513 511
4 63 243 302 254
4 242 276 510 512
4 265 303 225 252
4 492 493 303 225
4 494 274 217 496
4 440 438 161 372
4 269 59 13 511
4 454 447 142 534
4 265 14 56 303
4 410 44 404 488
4 412 195 474 415
4 43 398 192 489
4 47 487 199 416
4 262 251 51 298
4 59 13 266 301
4 276 290 66 308
4 508 243 509 302
4 494 50 20 258
4 234 301 266 253
4 71 270 4 330
4 475 397 403 188
4 254 3 63 329
4 395 274 99 288
4 437 114 428 201
4 76 77 361 283
4 448 156 157 363
4 73 348 72 270
4 234 509 301 508
4 85 287 497 275
4 298 50 20 263
4 484 488 483 535
4 159 443 360 125
4 235 510 276 512
4 277 513 244 511
4 302 3 63 254
4 14 56 262 495
4 274 494 224 496
4 450 157 158 357
4 437 425 439 200
4 298 20 50 258
4 467 378 469 165
4 321 442 133 132
4 241 240 24 307
4 223 222 40 394
4 242 245 26 318
4 224 227 39 383
4 71 70 284 322
4 482 214 489 537
4 138 355 141 346
4 338 127 342 145
4 404 91 18 410
4 70 261 324 69
4 207 441 444 536
4 196 473 414 186
4 29 325 444 133
4 301 59 13 269
4 216 493 298 492
4 195 473 474 415
4 3 63 257 302
4 169 373 467 164
4 513 277 289 80
4 67 290 276 512
4 289 277 513 79
4 274 496 100 288
4 359 75 76 268
4 347 345 343 534
4 419 408 19 98
4 207 455 446 536
4 262 56 14 303
4 60 66 290 308
4 99 52 395 288
4 95 278 94 417
4 432 428 58 115
4 149 146 337 344
4 75 366 9 305
4 454 32 156 369
4 492 298 50 258
4 355 138 154 346
4 10 64 267 269
4 455 325 29 129
4 166 379 56 373
4 426 55 167 433
4 148 338 342 145
4 379 84 14 265
4 140 354 343 155
4 508 509 301 302
4 308 0 276 235
4 269 301 59 509
4 257 58 0 253
4 374 163 36 465
4 427 464 48 202
4 252 55 23 258
4 143 135 142 151
4 6 4 350 339
4 53 57 287 497
4 493 303 298 492
4 63 508 257 302
4 445 35 160 362
4 7 9 356 352
4 513 65 61 289
4 290 62 60 512
4 52 54 496 288
4 493 56 262 303
4 3 254 68 329
4 241 112 80 307
4 255 93 409 92
4 257 510 3 276
4 79 126 244 319
4 395 20 274 217
4 90 91 407 286
4 142 347 143 151
4 403 472 188 189
4 98 422 285 97
4 128 146 28 351
4 85 287 57 497
4 217 50 187 20
4 443 160 159 358
4 19 45 408 419
4 404 18 44 410
4 513 65 289 79
4 289 61 513 80
4 290 67 62 512
4 100 496 54 288
4 468 203 204 431
4 432 58 0 115
4 269 13 277 511
4 269 244 64 511
4 458 353 32 349
4 204 424 49 470
4 51 17 406 251
4 20 494 258 274
4 420 414 50 187
4 474 46 195 412
4 262 275 14 495
4 129 451 320 130
4 329 63 323 123
4 184 51 17 406
4 461 163 37 371
4 462 424 49 202
4 404 399 407 535
4 139 140 349 155
4 509 269 301 302
4 485 199 413 198
4 51 223 262 495
4 303 298 492 258
4 337 146 128 344
4 88 89 396 256
4 140 349 32 139
4 428 506 58 115
4 63 242 123 3
4 226 56 166 14
4 104 429 294 103
4 303 262 493 298
4 473 195 196 415
4 376 83 84 291
4 438 162 161 372
4 425 437 201 200
4 257 508 301 302
4 378 467 164 165
4 167 55 23 433
4 101 293 430 102
4 0 510 276 235
4 50 20 263 420
4 63 242 3 510
4 274 494 23 224
4 226 56 14 495
4 495 262 51 493
4 475 42 397 188
4 510 508 58 257
4 505 166 56 373
4 504 426 55 167
4 257 0 510 276
4 55 492 494 258
4 37 469 371 165
4 258 494 23 274
4 78 364 77 295
4 275 226 14 495
4 399 191 192 484
4 406 184 51 400
4 59 241 13 511
4 511 64 269 509
4 298 50 216 492
4 334 350 339 147
4 85 497 226 275
4 87 406 17 251
4 356 335 153 352
4 509 301 59 234
4 327 296 68 69
4 303 493 56 225
4 81 82 377 292
4 217 50 20 494
4 508 63 243 302
4 276 510 3 242
4 50 414 490 187
4 44 404 488 191
4 486 45 198 419
4 217 50 490 187
4 63 520 323 123
4 513 241 277 80
4 67 276 242 512
4 456 351 28 336
4 146 128 344 351
4 347 341 143 151
4 143 351 136 152
4 13 241 277 511
4 73 259 74 340
4 420 50 20 187
4 505 38 166 373
4 235 58 506 115
4 142 459 150 347
4 379 56 14 166
4 344 149 146 351
4 329 3 63 123
4 20 494 274 217
4 86 53 287 275
4 279 95 96 411
4 9 7 74 352
4 277 244 513 79
4 457 143 341 151
4 496 224 274 100
4 141 352 340 346
4 223 17 86 184
4 478 397 42 190
4 251 51 17 262
4 343 154 354 140
4 347 142 459 151
4 350 4 6 72
4 491 51 184 400
4 477 197 46 412
4 428 25 506 115
4 143 351 28 136
4 142 150 134 349
4 343 349 140 155
4 452 28 333 131
4 350 348 342 127
4 226 56 505 166
4 55 224 504 167
4 63 242 520 123
4 51 223 491 184
4 459 150 134 142
4 136 457 143 152
4 341 143 457 152
4 241 513 61 80
4 54 224 496 100
4 57 85 497 226
4 242 62 67 512
4 65 513 244 79
4 128 342 127 145
4 39 426 504 167
4 218 52 393 177
4 236 60 306 105
4 141 140 138 346
4 299 408 19 92
4 135 143 457 151
4 142 135 459 151
4 23 224 167 100
4 300 93 18 410
4 134 32 142 349
4 490 414 41 187
4 323 520 26 123
4 226 505 38 166
4 143 341 351 152
4 138 140 154 346
4 128 148 342 145
4 94 263 20 420
4 59 241 112 13
4 217 490 41 187
4 67 3 123 242
4 166 14 85 226
4 150 142 347 349
4 152 351 28 456
4 235 506 25 115
4 246 117 26 245
4 39 171 227 228
4 240 239 24 110
4 222 221 40 182
4 351 149 28 336
4 491 184 40 400
4 147 127 342 338
4 355 153 141 346
4 343 154 140 346
4 150 458 32 349
4 134 458 32 150
4 28 136 152 456
4 149 146 28 336
4 360 64 126 521
4 375 112 59 507
4 349 353 32 155
4 139 32 353 155
4 337 128 148 344
4 178 219 41 218
4 144 334 339 147
4 335 153 137 356
4 504 224 39 167
4 520 242 26 123
4 491 223 40 184
4 60 235 308 512
4 52 217 395 496
4 360 126 27 521
4 223 86 17 275
4 128 342 148 344
4 382 38 175 231
4 249 121 27 317
4 335 141 153 352
4 350 334 127 147
4 353 32 31 458
4 456 28 30 336
4 456 30 33 336
4 59 241 507 112
4 353 31 34 458
4 244 64 521 126
4 339 5 4 334
4 335 8 9 356
4 126 244 10 79
4 24 112 375 507
4 115 0 308 235
4 141 153 137 335
4 144 127 334 147
4 226 14 85 275
4 244 521 27 126
4 23 274 224 100
4 10 244 277 79
4 139 349 32 155
4 3 67 276 242
4 13 241 112 80
4 149 28 146 351
4 277 241 13 80
4 32 134 150 349
4 342 350 127 147
4 136 351 28 152
4 217 187 41 393
4 352 141 153 346
4 382 501 175 392
4 121 517 316 317
4 235 115 25 306
4 20 395 187 217
4 218 217 41 393
4 236 235 25 306
4 219 387 228 499
4 221 501 230 392
4 7 9 8 356
4 507 241 24 112
4 316 239 248 517
4 4 6 5 339
4 337 148 128 145
4 154 354 140 138
4 147 144 127 338
4 153 137 355 141
4 16 15 287 388
4 313 11 12 289
4 231 222 503 390
4 249 519 314 240
4 518 236 245 309
4 218 502 385 227
4 501 382 230 392
4 316 517 121 110
4 182 175 501 392
4 290 2 1 310
4 21 22 386 288
4 517 248 316 317
4 174 181 389 500
4 120 312 516 109
4 179 391 498 172
4 315 107 118 514
4 178 171 387 499
4 117 106 515 311
4 395 187 217 393
4 308 115 235 306
4 516 239 248 120
4 315 247 238 514
4 229 498 220 391
4 229 389 220 500
4 247 516 312 238
4 226 166 38 384
4 395 274 20 99
4 177 170 385 502
4 518 116 105 309
4 122 111 314 519
4 183 176 503 390
4 246 514 107 237
4 498 228 219 172
4 181 500 230 221
4 231 182 501 222
4 121 517 249 240
4 316 239 120 248
4 230 382 174 392
4 219 387 172 228
4 221 230 181 392
4 182 231 390 222
4 249 314 121 240
4 276 66 0 308
4 316 248 120 317
4 503 53 57 176
4 518 62 60 105
4 111 65 61 519
4 52 54 177 502
4 517 121 110 240
4 501 175 182 231
4 110 121 314 240
4 231 182 390 175
4 218 227 178 499
4 236 245 106 515
4 175 501 382 231
4 517 121 249 317
4 123 26 318 242
4 224 383 39 167
4 184 223 40 394
4 385 218 227 178
4 106 245 236 309
4 174 181 500 230
4 516 239 120 109
4 514 107 118 246
4 179 498 219 172
4 227 171 178 499
4 245 117 106 515
4 174 181 230 392
4 171 385 227 178
4 106 117 245 309
4 239 316 120 109
4 387 219 172 179
4 246 311 107 118
4 105 116 62 310
4 62 518 116 105
4 54 170 177 502
4 176 503 53 183
4 65 111 122 519
4 176 53 388 183
4 111 313 65 122
4 126 27 244 319
4 112 241 24 307
4 173 229 180 391
4 108 315 119 247
4 389 229 180 173
4 247 108 312 119
4 229 220 180 391
4 247 108 315 238
4 229 389 180 220
4 108 247 312 238
4 105 66 60 306
4 85 176 384 57
4 223 222 491 40
4 231 230 501 382
4 491 220 185 221
4 168 173 172 229
4 108 113 114 238
4 125 119 124 247
4 220 219 490 186
4 215 220 490 186
4 242 62 245 318
4 228 229 504 168
4 111 80 307 61
4 220 215 491 185
4 232 229 505 169
4 231 226 505 38
4 53 222 223 394
4 175 38 384 231
4 180 185 186 220
4 185 180 181 220
4 186 41 179 219
4 169 173 168 229
4 247 250 520 124
4 61 240 241 307
4 241 240 507 24
4 79 122 319 65
4 244 249 65 319
4 121 27 319 249
4 249 248 517 317
4 249 244 521 27
4 238 233 507 113
4 507 238 113 239
4 120 247 119 125
4 250 247 521 125
4 520 247 124 246
4 109 238 113 108
4 233 238 506 114
4 242 245 520 26
4 236 235 506 25
4 116 67 318 62
4 114 25 107 237
4 106 25 306 236
4 224 54 227 383
4 120 125 317 248
4 238 107 114 108
4 247 118 119 124
4 26 124 118 246
4 179 220 180 186
4 311 236 106 515
4 174 169 382 230
4 229 174 169 173
4 393 178 218 177
4 178 41 393 218
4 229 232 504 168
4 227 504 224 39
4 170 100 383 54
4 109 24 113 239
4 177 99 52 393
4 181 40 185 221
4 306 106 236 105
4 238 237 506 114
4 247 248 521 125
4 183 86 394 53
4 226 231 57 384
4 39 168 172 228
4 218 217 490 41
4 229 230 505 169
4 169 38 230 505
4 169 230 38 382
4 231 230 38 505
4 231 38 230 382
4 125 27 248 521
4 125 248 27 317
4 249 248 27 521
4 249 27 248 317
4 529 420 50 263
4 529 50 420 414
4 323 523 63 254
4 323 63 523 250
4 243 63 523 254
4 243 523 63 250
4 432 530 58 428
4 58 530 432 253
4 525 373 56 265
4 56 373 525 232
4 56 225 525 265
4 525 225 56 232
4 523 360 64 267
4 64 360 523 250
4 64 243 523 267
4 523 243 64 250
4 525 225 55 252
4 525 55 225 232
4 481 537 477 479
4 481 477 537 524
4 476 477 537 479
4 476 537 477 524
4 377 260 82 370
4 82 260 377 292
4 344 143 534 341
4 534 143 344 128
4 534 345 344 341
4 344 345 534 128
4 529 475 471 524
4 529 471 475 472
4 411 264 527 418
4 411 527 264 279
4 416 213 47 487
4 416 47 213 481
4 529 279 417 278
4 529 417 279 524
4 106 236 107 25
4 106 107 236 311
4 237 107 236 25
4 205 427 48 439
4 48 427 205 464
4 440 465 522 374
4 522 465 440 206
4 523 124 443 442
4 467 232 373 169
4 467 373 232 525
4 533 463 462 460
4 533 462 463 522
4 168 525 467 232
4 467 525 168 468
4 416 477 197 481
4 416 197 477 412
4 125 523 124 443
4 124 523 125 250
4 128 127 532 328
4 128 532 127 342
4 359 305 532 366
4 532 305 359 268
4 227 54 170 383
4 256 401 88 281
4 256 88 401 396
4 536 451 320 455
4 536 320 451 531
4 193 419 45 486
4 45 419 193 408
4 410 488 300 194
4 300 488 410 404
4 207 325 29 455
4 207 29 325 444
4 417 279 95 278
4 417 95 279 411
4 530 114 113 233
4 530 113 114 437
4 185 400 215 491
4 185 215 400 529
4 51 215 400 491
4 51 400 215 529
4 125 27 360 159
4 125 360 27 521
4 169 38 373 164
4 169 373 38 505
4 186 529 185 473
4 185 529 186 215
4 298 51 493 216
4 298 493 51 262
4 113 375 233 507
4 113 233 375 530
4 59 233 375 507
4 59 375 233 530
4 114 25 428 201
4 114 428 25 506
4 186 41 414 196
4 186 414 41 490
4 24 113 375 162
4 24 375 113 507
4 39 168 426 203
4 39 426 168 504
4 40 185 400 189
4 40 400 185 491
4 26 124 323 132
4 26 323 124 520
4 140 534 142 343
4 142 534 140 32
4 142 349 140 343
4 140 349 142 32
4 58 235 0 115
4 128 351 143 344
4 143 351 128 28
4 224 55 23 167
4 223 262 275 17
4 275 262 223 495
4 494 23 55 258
4 494 55 23 224
4 510 0 58 235
4 510 58 0 257
4 521 250 360 64
4 521 360 250 125
4 505 232 373 56
4 505 373 232 169
4 490 215 414 50
4 490 414 215 186
4 529 414 215 50
4 529 215 414 186
4 506 233 428 58
4 506 428 233 114
4 530 428 233 58
4 530 233 428 114
4 223 51 17 184
4 223 17 51 262
4 244 269 277 511
4 244 277 269 10
4 275 53 223 86
4 275 223 53 497
4 232 504 426 55
4 426 504 232 168
4 520 250 323 124
4 520 323 250 63
4 64 244 10 126
4 64 10 244 269
4 183 86 388 16
4 183 388 86 53
4 287 388 86 16
4 287 86 388 53
4 62 116 245 318
4 117 116 245 309
4 117 245 116 318
4 116 518 245 309
4 116 245 518 62
4 116 67 310 2
4 116 310 67 62
4 290 310 67 2
4 290 67 310 62
4 290 66 310 1
4 105 310 66 1
4 288 99 386 21
4 177 386 99 21
4 170 100 386 22
4 288 386 100 22
4 170 502 227 385
4 170 227 502 54
4 289 79 313 11
4 289 313 79 65
4 122 313 79 11
4 122 79 313 65
4 111 80 313 12
4 289 313 80 12
4 287 85 388 15
4 176 388 85 15
4 246 107 515 237
4 246 515 107 311
4 236 515 107 237
4 236 107 515 311
4 105 62 290 310
4 290 62 105 60
4 290 66 105 310
4 105 66 290 60
4 288 54 177 52
4 288 99 177 386
4 177 99 288 52
4 170 100 288 386
4 288 100 170 54
4 288 177 170 386
4 170 177 288 54
4 111 80 289 313
4 289 80 111 61
4 289 65 111 313
4 111 65 289 61
4 176 53 287 388
4 287 53 176 57
4 287 85 176 388
4 176 85 287 57

CELL_TYPES 2930
1
1
1
1
1
1
1
1
1
1
1
1
1
1
1
1
1
1
1
1
1
1
1
1
1
1
1
1
1
1
1
1
1
1
1
1
1
1
1
1
1
1
1
1
1
1
1
1
1
1
1
1
1
1
1
1
1
1
1
1
1
1
1
1
1
1
3
3
3
3
3
3
3
3
3
3
3
3
3
3
3
3
3
3
3
3
3
3
3
3
3
3
3
3
3
3
3
3
3
3
3
3
3
3
3
3
3
3
3
3
3
3
3
3
3
3
3
3
3
3
3
3
3
3
3
3
3
3
3
3
3
3
3
3
3
3
3
3
3
3
3
3
3
3
3
3
3
3
3
3
3
3
3
3
3
3
3
3
3
3
3
3
3
3
3
3
3
3
3
3
3
3
3
3
3
3
3
3
3
3
3
3
3
3
3
3
3
3
3
3
3
3
3
3
3
3
3
3
3
3
3
3
3
3
3
3
3
3
3
3
3
3
3
3
3
3
3
3
3
3
3
3
3
3
3
3
3
3
3
3
3
3
3
3
3
3
3
3
3
3
3
3
3
3
3
3
3
3
3
3
3
3
3
3
3
3
3
3
3
3
3
3
3
3
3
3
3
3
3
3
3
3
3
3
3
3
3
3
3
3
3
3
3
3
3
3
3
3
3
3
3
3
3
3
3
3
3
3
3
3
3
3
3
3
3
3
3
3
3
3
3
3
3
3
3
3
3
3
3
3
3
3
3
3
3
3
3
3
3
3
3
3
3
3
3
3
3
3
3
3
3
3
3
3
3
3
3
3
3
3
5
5
5
5
5
5
5
5
5
5
5
5
5
5
5
5
5
5
5
5
5
5
5
5
5
5
5
5
5
5
5
5
5
5
5
5
5
5
5
5
5
5
5
5
5
5
5
5
5
5
5
5
5
5
5
5
5
5
5
5
5
5
5
5
5
5
5
5
5
5
5
5
5
5
5
5
5
5
5
5
5
5
5
5
5
5
5
5
5
5
5
5
5
5
5
5
5
5
5
5
5
5
5
5
5
5
5
5
5
5
5
5
5
5
5
5
5
5
5
5
5
5
5
5
5
5
5
5
5
5
5
5
5
5
5
5
5
5
5
5
5
5
5
5
5
5
5
5
5
5
5
5
5
5
5
5
5
5
5
5
5
5
5
5
5
5
5
5
5
5
5
5
5
5
5
5
5
5
5
5
5
5
5
5
5
5
5
5
5
5
5
5
5
5
5
5
5
5
5
5
5
5
5
5
5
5
5
5
5
5
5
5
5
5
5
5
5
5
5
5
5
5
5
5
5
5
5
5
5
5
5
5
5
5
5
5
5
5
5
5
5
5
5
5
5
5
5
5
5
5
5
5
5
5
5
5
5
5
5
5
5
5
5
5
5
5
5
5
5
5
5
5
5
5
5
5
5
5
5
5
5
5
5
5
5
5
5
5
5
5
5
5
5
5
5
5
5
5
5
5
5
5
5
5
5
5
5
5
5
5
5
5
5
5
5
5
5
5
5
5
5
5
5
5
5
5
5
5
5
5
5
5
5
5
5
5
5
5
5
5
5
5
5
5
5
5
5
5
5
5
5
5
5
5
5
5
5
5
5
5
5
5
5
5
5
5
5
5
5
5
5
5
5
5
5
5
5
5
5
5
5
5
5
5
5
5
5
5
5
5
5
5
5
5
5
5
5
5
5
5
5
5
5
5
5
5
5
5
5
5
5
5
5
5
5
5
5
5
5
5
5
5
5
5
5
5
5
5
5
5
5
5
5
5
5
5
5
5
5
5
5
5
5
5
5
5
5
5
5
5
5
5
5
5
5
5
5
5
5
5
5
5
5
5
5
5
5
5
5
5
5
5
5
5
5
5
5
5
5
5
5
5
5
5
5
5
5
5
5
5
5
5
5
5
5
5
5
5
5
5
5
5
5
5
5
5
5
5
5
5
5
5
5
5
5
5
5
5
5
5
5
5
5
5
5
5
5
5
5
5
5
5
5
5
5
5
5
5
5
5
5
5
5
5
5
5
5
5
5
5
5
5
5
5
5
5
5
5
5
5
5
5
5
5
5
5
5
5
5
5
5
5
5
5
5
5
5
5
5
5
5
5
5
5
5
5
5
5
5
5
5
5
5
5
5
5
5
5
5
5
5
5
5
5
5
5
5
5
5
5
5
5
5
5
5
5
5
5
5
5
5
5
5
5
5
5
5
5
5
5
5
5
5
5
5
5
5
5
5
5
5
5
5
5
5
5
5
5
5
5
5
5
5
5
5
5
5
5
5
5
5
5
5
5
5
5
5
5
5
5
5
5
5
5
5
5
5
5
5
5
5
5
5
5
5
5
5
5
5
5
5
5
5
5
5
5
5
5
5
5
5
5
5
5
5
5
5
5
5
5
5
5
5
5
5
5
5
5
5
5
5
5
5
5
5
5
5
5
5
5
5
5
5
5
5
5
5
5
5
5
5
5
5
5
5
5
5
5
5
5
5
5
5
5
5
5
5
5
5
5
5
5
5
5
5
5
5
5
5
5
5
5
5
5
5
5
5
5
5
5
5
5
5
5
5
5
5
5
5
5
5
5
5
5
5
5
5
5
5
5
5
5
5
5
5
5
5
5
5
5
5
5
5
5
5
5
5
5
5
5
5
5
5
5
5
5
5
5
5
5
5
5
5
5
5
5
5
5
5
5
5
5
5
5
5
5
5
5
5
5
5
5
5
5
5
5
5
5
5
5
5
5
5
5
5
5
5
5
5
5
5
5
5
5
5
5
5
5
5
5
5
5
5
5
5
5
5
5
5
5
5
5
5
5
5
5
5
5
5
5
5
5
5
5
5
5
5
5
5
5
5
5
5
5
5
5
5
5
5
5
5
5
5
5
5
5
5
5
5
5
5
5
5
5
5
5
5
5
5
5
5
5
5
5
5
5
5
5
5
5
5
5
5
5
5
5
5
5
5
5
5
5
5
5
5
5
5
5
5
5
5
5
5
5
5
5
5
5
5
5
5
5
5
5
5
5
5
5
5
5
5
5
5
5
5
5
5
5
5
5
5
5
5
5
5
5
5
5
5
5
5
5
5
5
5
5
5
5
5
5
5
5
5
5
5
5
5
5
5
5
5
5
10
10
10
10
10
10
10
10
10
10
10
10
10
10
10
10
10
10
10
10
10
10
10
10
10
10
10
10
10
10
10
10
10
10
10
10
10
10
10
10
10
10
10
10
10
10
10
10
10
10
10
10
10
10
10
10
10
10
10
10
10
10
10
10
10
10
10
10
10
10
10
10
10
10
10
10
10
10
10
10
10
10
10
10
10
10
10
10
10
10
10
10
10
10
10
10
10
10
10
10
10
10
10
10
10
10
10
10
10
10
10
10
10
10
10
10
10
10
10
10
10
10
10
10
10
10
10
10
10
10
10
10
10
10
10
10
10
10
10
10
10
10
10
10
10
10
10
10
10
10
10
10
10
10
10
10
10
10
10
10
10
10
10
10
10
10
10
10
10
10
10
10
10
10
10
10
10
10
10
10
10
10
10
10
10
10
10
10
10
10
10
10
10
10
10
10
10
10
10
10
10
10
10
10
10
10
10
10
10
10
10
10
10
10
10
10
10
10
10
10
10
10
10
10
10
10
10
10
10
10
10
10
10
10
10
10
10
10
10
10
10
10
10
10
10
10
10
10
10
10
10
10
10
10
10
10
10
10
10
10
10
10
10
10
10
10
10
10
10
10
10
10
10
10
10
10
10
10
10
10
10
10
10
10
10
10
10
10
10
10
10
10
10
10
10
10
10
10
10
10
10
10
10
10
10
10
10
10
10
10
10
10
10
10
10
10
10
10
10
10
10
10
10
10
10
10
10
10
10
10
10
10
10
10
10
10
10
10
10
10
10
10
10
10
10
10
10
10
10
10
10
10
10
10
10
10
10
10
10
10
10
10
10
10
10
10
10
10
10
10
10
10
10
10
10
10
10
10
10
10
10
10
10
10
10
10
10
10
10
10
10
10
10
10
10
10
10
10
10
10
10
10
10
10
10
10
10
10
10
10
10
10
10
10
10
10
10
10
10
10
10
10
10
10
10
10
10
10
10
10
10
10
10
10
10
10
10
10
10
10
10
10
10
10
10
10
10
10
10
10
10
10
10
10
10
10
10
10
10
10
10
10
10
10
10
10
10
10
10
10
10
10
10
10
10
10
10
10
10
10
10
10
10
10
10
10
10
10
10
10
10
10
10
10
10
10
10
10
10
10
10
10
10
10
10
10
10
10
10
10
10
10
10
10
10
10
10
10
10
10
10
10
10
10
10
10
10
10
10
10
10
10
10
10
10
10
10
10
10
10
10
10
10
10
10
10
10
10
10
10
10
10
10
10
10
10
10
10
10
10
10
10
10
10
10
10
10
10
10
10
10
10
10
10
10
10
10
10
10
10
10
10
10
10
10
10
10
10
10
10
10
10
10
10
10
10
10
10
10
10
10
10
10
10
10
10
10
10
10
10
10
10
10
10
10
10
10
10
10
10
10
10
10
10
10
10
10
10
10
10
10
10
10
10
10
10
10
10
10
10
10
10
10
10
10
10
10
10
10
10
10
10
10
10
10
10
10
10
10
10
10
10
10
10
10
10
10
10
10
10
10
10
10
10
10
10
10
10
10
10
10
10
10
10
10
10
10
10
10
10
10
10
10
10
10
10
10
10
10
10
10
10
10
10
10
10
10
10
10
10
10
10
10
10
10
10
10
10
10
10
10
10
10
10
10
10
10
10
10
10
10
10
10
10
10
10
10
10
10
10
10
10
10
10
10
10
10
10
10
10
10
10
10
10
10
10
10
10
10
10
10
10
10
10
10
10
10
10
10
10
10
10
10
10
10
10
10
10
10
10
10
10
10
10
10
10
10
10
10
10
10
10
10
10
10
10
10
10
10
10
10
10
10
10
10
10
10
10
10
10
10
10
10
10
10
10
10
10
10
10
10
10
10
10
10
10
10
10
10
10
10
10
10
10
10
10
10
10
10
10
10
10
10
10
10
10
10
10
10
10
10
10
10
10
10
10
10
10
10
10
10
10
10
10
10
10
10
10
10
10
10
10
10
10
10
10
10
10
10
10
10
10
10
10
10
10
10
10
10
10
10
10
10
10
10
10
10
10
10
10
10
10
10
10
10
10
10
10
10
10
10
10
10
10
10
10
10
10
10
10
10
10
10
10
10
10
10
10
10
10
10
10
10
10
10
10
10
10
10
10
10
10
10
10
10
10
10
10
10
10
10
10
10
10
10
10
10
10
10
10
10
10
10
10
10
10
10
10
10
10
10
10
10
10
10
10
10
10
10
10
10
10
10
10
10
10
10
10
10
10
10
10
10
10
10
10
10
10
10
10
10
10
10
10
10
10
10
10
10
10
10
10
10
10
10
10
10
10
10
10
10
10
10
10
10
10
10
10
10
10
10
10
10
10
10
10
10
10
10
10
10
10
10
10
10
10
10
10
10
10
10
10
10
10
10
10
10
10
10
10
10
10
10
10
10
10
10
10
10
10
10
10
10
10
10
10
10
10
10
10
10
10
10
10
10
10
10
10
10
10
10
10
10
10
10
10
10
10
10
10
10
10
10
10
10
10
10
10
10
10
10
10
10
10
10
10
10
10
10
10
10
10
10
10
10
10
10
10
10
10
10
10
10
10
10
10
10
10
10
10
10
10
10
10
10
10
10
10
10
10
10
10
10
10
10
10
10
10
10
10
10
10
10
10
10
10
10
10
10
10
10
10
10
10
10
10
10
10
10
10
10
10
10
10
10
10
10
10
10
10
10
10
10
10
10
10
10
10
10
10
10
10
10
10
10
10
10
10
10
10
10
10
10
10
10
10
10
10
10
10
10
10
10
10
10
10
10
10
10
10
10
10
10
10
10
10
10
10
10
10
10
10
10
10
10
10
10
10
10
10
10
10
10
10
10
10
10
10
10
10
10
10
10
10
10
10
10
10
10
10
10
10
10
10
10
10
10
10
10
10
10
10
10
10
10
10
10
10
10
10
10
10
10
10
10
10
10
10
10
10
10
10
10
10
10
10
10
10
10
10
10
10
10
10
10
10
10
10
10
10
10
10
10
10
10
10
10
10
10
10
10
10
10
10
10
10
10
10
10
10
10
10
10
10
10
10
10
10
10
10
10
10
10
10
10
10
10
10
10
10
10
10
10
10
10
10
10
10
10
10
10
10
10
10
10
10
10
10
10
10
10
10
10
10
10
10
10
10
10
10
10
10
10
10
10
10
10
10
10
10
10
10
10
10
10
10
10
10
10
10
10
10
10
10
10
10
10
10
10
10
10
10
10
10
10
10
10
10
10
10
10
10
10
10
10
10
10
10
10
10
10
10
10
10
10
10
10
10
10
10
10
10
10
10
10
10
10
10
10
10
10
10
10
10
10
10
10
10
10
10
10
10
10
10
10
10
10
10
10
10
10
10
10
10
10
10
10
10
10
10
10
10
10
10
10
10
10
10
10
10
10
10
10
10
10
10
10
10
10
10
10
10
10
10
10
10
10
10
10
10
10
10
10
10
10
10
10
10
10
10
10
10
10
10
10
10
10
10
10
10
10
10
10
10
10
10
10
10
