# vtk DataFile Version 2.0
, Created by Gmsh 4.11.1 
ASCII
DATASET UNSTRUCTURED_GRID
POINTS 524 double
8.75 0 -44.99040026689508
14.63413920204384 0 -41.5140222541083
14.63413920204384 0 -38.48597774589169
8.75 0 -35.00959973310492
8.75 0 -3
11.75 0 -3
11.75 0 0
-11.75 0 0
-11.75 0 -3
-8.75 0 -3
-8.75 1.071565949253934e-15 -35.00959973310492
-14.63413920204384 1.792165173205979e-15 -38.48597774589169
-14.63413920204384 1.792165173205979e-15 -41.5140222541083
-8.75 1.071565949253934e-15 -44.99040026689508
-8.75 1.071565949253934e-15 -75.00959973310492
-14.63413920204384 1.792165173205979e-15 -78.48597774589169
-14.63413920204384 1.792165173205979e-15 -81.51402225410831
-8.75 1.071565949253934e-15 -84.99040026689508
-8.75 0 -120
8.75 0 -120
8.75 0 -84.99040026689508
14.63413920204384 0 -81.51402225410831
14.63413920204384 0 -78.48597774589169
8.75 0 -75.00959973310492
-8.75 10.80100208415644 -41.94745463413368
8.75 10.80100208415641 -41.94745463413366
8.75 10.8010020841564 -38.05254536586634
-8.75 10.8010020841564 -38.05254536586634
8.75 20 -3
8.75 20 -31.72873248274829
11.75 23 -3
-11.75 23 -3
-8.75 20 -3
11.75 23 0
-11.75 23 0
-8.75 20 -31.72873248274829
-8.75 20 -48.27126751725172
-8.75 20 -71.72873248274828
-8.75 10.80100208415641 -78.05254536586634
8.75 10.80100208415641 -78.05254536586634
-8.75 10.80100208415641 -81.94745463413366
8.75 10.80100208415641 -81.94745463413366
-8.75 20 -88.27126751725172
-8.75 20 -111.7287324827483
-8.75 7.96811764375494 -120
8.75 7.96811764375494 -120
8.75 20 -88.27126751725172
8.75 20 -111.7287324827483
8.75 20 -48.27126751725172
8.75 20 -71.72873248274828
5.45126825195037 2.312936953133701 -84.99040026689508
-5.451268251950369 2.312936953133702 -84.99040026689508
11.57700778656226 2.312936953133702 -81.51402225410831
-11.57700778656226 2.312936953133701 -81.51402225410831
11.57700778656226 2.312936953133702 -78.48597774589169
5.45126825195037 2.312936953133701 -75.00959973310492
-5.451268251950369 2.312936953133702 -75.00959973310492
-11.57700778656226 2.312936953133701 -78.48597774589169
5.45126825195037 2.312936953133701 -44.99040026689508
-5.451268251950369 2.312936953133702 -44.99040026689508
11.57700778656226 2.312936953133702 -41.5140222541083
-11.57700778656226 2.312936953133701 -41.5140222541083
11.57700778656226 2.312936953133702 -38.48597774589169
5.45126825195037 2.312936953133701 -35.00959973310492
-5.451268251950369 2.312936953133702 -35.00959973310492
-11.57700778656226 2.312936953133701 -38.48597774589169
8.75 0 -28.60767978648394
8.75 0 -22.20575983986296
8.75 0 -15.80383989324197
8.75 0 -9.401919946620986
5.875000000000016 0 0
3.730349362740526e-14 0 0
-5.874999999999972 0 0
-8.75 0 -9.401919946620989
-8.75 0 -15.80383989324198
-8.75 0 -22.20575983986297
-8.75 0 -28.60767978648396
-8.75 0 -50.99424016013705
-8.75 0 -56.99808005337901
-8.75 0 -63.00191994662097
-8.75 0 -69.00575983986293
-8.75 0 -91.99232021351608
-8.75 0 -98.99424016013705
-8.75 0 -105.996160106758
-8.75 0 -112.998080053379
2.916666666666666 0 -120
-2.916666666666668 0 -120
8.75 0 -91.99232021351608
8.75 0 -98.99424016013705
8.75 0 -105.996160106758
8.75 0 -112.998080053379
8.75 0 -50.99424016013705
8.75 0 -56.99808005337901
8.75 0 -63.00191994662097
8.75 0 -69.00575983986293
13.18490382959186 6.349515035749612 -41.5140222541083
9.124236551455466 11.44143074697743 -41.5140222541083
3.256402322885565 14.26723077882677 -41.5140222541083
-3.256402322885436 14.2672307788268 -41.5140222541083
-9.12423655145539 11.44143074697749 -41.5140222541083
-13.18490382959184 6.349515035749652 -41.5140222541083
-8.749999999999998 5.550788890638583 -44.03794548816984
-2.982193715879798 12.06577348154394 -42.81691647445249
2.982193715879821 12.06577348154394 -42.81691647445249
8.750000000000002 5.55078889063858 -44.03794548816984
13.18490382959186 6.349515035749612 -38.48597774589169
9.124236551455466 11.44143074697743 -38.48597774589169
3.256402322885565 14.26723077882677 -38.48597774589169
-3.256402322885436 14.2672307788268 -38.48597774589169
-9.12423655145539 11.44143074697749 -38.48597774589169
-13.18490382959184 6.349515035749652 -38.48597774589169
8.750000000000002 5.550788890638574 -35.96205451183016
2.982193715879815 12.06577348154393 -37.18308352554751
-2.982193715879803 12.06577348154393 -37.18308352554751
-8.749999999999998 5.550788890638573 -35.96205451183016
8.75 6.666666666666651 -3
8.75 13.33333333333329 -3
8.75 20 -25.98298598619864
8.75 20 -20.23723948964899
8.75 20 -14.49149299309933
8.75 20 -8.745746496549664
8.75 15.4005010420782 -34.89063892430732
-5.875000000000016 23 -3
-3.730349362740526e-14 23 -3
5.874999999999972 23 -3
-11.75 5.749999999999988 -3
-11.75 11.49999999999999 -3
-11.75 17.24999999999999 -3
-8.75 13.33333333333335 -3
-8.75 6.666666666666705 -3
-2.916666666666666 20 -3
2.916666666666668 20 -3
11.75 5.749999999999988 -3
11.75 11.49999999999999 -3
11.75 17.24999999999999 -3
11.75 5.749999999999988 0
11.75 11.49999999999999 0
11.75 17.24999999999999 0
-5.875000000000016 23 0
-3.730349362740526e-14 23 0
5.874999999999972 23 0
-11.75 5.749999999999988 0
-11.75 11.49999999999999 0
-11.75 17.24999999999999 0
-8.75 20 -8.74574649654965
-8.75 20 -14.4914929930993
-8.75 20 -20.23723948964896
-8.75 20 -25.98298598619862
-8.75 15.4005010420782 -34.89063892430732
-8.75 15.40050104207822 -45.1093610756927
-8.75 20 -65.86436624137414
-8.75 20 -59.99999999999999
-8.75 20 -54.13563375862586
-8.75 15.4005010420782 -74.89063892430731
-8.749999999999998 5.550788890638573 -75.96205451183016
8.750000000000002 5.550788890638574 -75.96205451183016
2.98219371587981 12.06577348154393 -77.18308352554752
-2.982193715879812 12.06577348154393 -77.18308352554752
13.18490382959186 6.349515035749612 -78.48597774589169
9.124236551455466 11.44143074697743 -78.48597774589169
3.256402322885565 14.26723077882677 -78.48597774589169
-3.256402322885436 14.2672307788268 -78.48597774589169
-9.12423655145539 11.44143074697749 -78.48597774589169
-13.18490382959184 6.349515035749652 -78.48597774589169
13.18490382959186 6.349515035749612 -81.51402225410831
9.124236551455466 11.44143074697743 -81.51402225410831
3.256402322885565 14.26723077882677 -81.51402225410831
-3.256402322885436 14.2672307788268 -81.51402225410831
-9.12423655145539 11.44143074697749 -81.51402225410831
-13.18490382959184 6.349515035749652 -81.51402225410831
-8.749999999999998 5.550788890638579 -84.03794548816984
-2.982193715879808 12.06577348154393 -82.81691647445251
2.982193715879813 12.06577348154393 -82.81691647445251
8.750000000000002 5.55078889063858 -84.03794548816984
-8.75 15.40050104207821 -85.10936107569269
-8.75 20 -105.8643662413741
-8.75 20 -100
-8.75 20 -94.13563375862586
-8.75 11.97874509583663 -117.2429108275828
-8.75 15.98937254791831 -114.4858216551655
-8.75 3.984058821877471 -120
2.916666666666666 7.96811764375494 -120
-2.916666666666668 7.96811764375494 -120
8.75 3.984058821877471 -120
8.75 15.40050104207821 -85.10936107569269
8.75 20 -105.8643662413741
8.75 20 -100
8.75 20 -94.13563375862586
8.75 11.97874509583663 -117.2429108275828
8.75 15.98937254791831 -114.4858216551655
8.75 15.40050104207821 -45.10936107569269
8.75 20 -65.86436624137414
8.75 20 -59.99999999999999
8.75 20 -54.13563375862586
8.75 15.4005010420782 -74.89063892430731
2.916666666666666 20 -48.27126751725172
-2.916666666666668 20 -48.27126751725172
2.916666666666666 20 -31.72873248274829
-2.916666666666668 20 -31.72873248274829
2.916666666666666 20 -71.72873248274828
-2.916666666666668 20 -71.72873248274828
2.916666666666666 20 -88.27126751725172
-2.916666666666668 20 -88.27126751725172
2.916666666666666 20 -111.7287324827483
-2.916666666666668 20 -111.7287324827483
2.250476396588053 5.477349622974007 -84.99040026689508
-2.250476396588036 5.477349622974014 -84.99040026689508
-1.332267629550188e-14 2.312936953133701 -84.99040026689508
8.524505464321662 2.312936953133701 -83.27053157956824
8.665214379039559 8.018157294826572 -81.51402225410831
3.202658270693218 11.36308790076249 -81.51402225410831
-3.202658270693219 11.36308790076249 -81.51402225410831
-8.665214379039563 8.018157294826572 -81.51402225410831
-8.524505464321662 2.312936953133701 -83.27053157956824
8.524505464321662 2.312936953133701 -76.72946842043176
1.77635683940025e-15 2.312936953133701 -75.00959973310492
-8.524505464321662 2.312936953133701 -76.72946842043176
8.665214379039559 8.018157294826572 -78.48597774589169
3.202658270693218 11.36308790076249 -78.48597774589169
-3.202658270693219 11.36308790076249 -78.48597774589169
-8.665214379039563 8.018157294826572 -78.48597774589169
2.250476396588053 5.477349622974007 -75.00959973310492
-2.250476396588036 5.477349622974014 -75.00959973310492
2.250476396588053 5.477349622974007 -44.99040026689508
-2.250476396588036 5.477349622974014 -44.99040026689508
-1.332267629550188e-14 2.312936953133701 -44.99040026689508
8.524505464321662 2.312936953133701 -43.27053157956824
8.665214379039559 8.018157294826572 -41.5140222541083
3.202658270693218 11.36308790076249 -41.5140222541083
-3.202658270693219 11.36308790076249 -41.5140222541083
-8.665214379039563 8.018157294826572 -41.5140222541083
-8.524505464321662 2.312936953133701 -43.27053157956824
8.524505464321662 2.312936953133701 -36.72946842043176
1.77635683940025e-15 2.312936953133701 -35.00959973310492
-8.524505464321662 2.312936953133701 -36.72946842043176
8.665214379039559 8.018157294826572 -38.48597774589169
3.202658270693218 11.36308790076249 -38.48597774589169
-3.202658270693219 11.36308790076249 -38.48597774589169
-8.665214379039563 8.018157294826572 -38.48597774589169
2.250476396588053 5.477349622974007 -35.00959973310492
-2.250476396588036 5.477349622974014 -35.00959973310492
-4.355310976438955 0 -54.2476652289487
-3.550522132198011 0 -66.00383989324196
-2.944126204276871 0 -31.67153257335637
2.749731942130506 0 -19.05333445514246
-2.79897909509845 0 -4.095048694920145
0.08135948721262398 0 -115.2600652565071
2.91658550950964 0 -87.69856681770568
-2.95583330413623 0 -101.2534517642664
3.369240014941605 0 -82.01533487106077
-3.458437910609205 0 -38.72612132648892
3.550522132198012 0 -59.99999999999999
3.050496311206077 0 -47.58519026376869
4.476920696972368 0 -71.85977465653158
-3.205774693231905 0 -12.60287991993147
-10.52057860967669 0 -79.83598435588834
9.770647396221163 0 -80
3.738665556522506 0 -5.615851400982081
-10.51089666308064 0 -39.81801733235556
10.10239414813987 0 -40.27338536438207
3.743692336611637 0 -41.36692682191032
2.695444444211278 0 -95.47663859283409
-1.938160828997252 0 -44.38369690070649
3.537549802024202 0 -30.52146351677066
0.02289680777431879 0 -25.17742833969481
-3.814507371912092 0 -20.0416603768412
3.390057389187826 0 -12.05923150793298
3.550522132198012 0 -66.00383989324196
-1.763574909960474 0 -71.94484368264933
-3.526211536781564 0 -78.85189049121837
-3.550522132198011 0 -59.99999999999999
1.702661493224622 0 -54.15357450438612
-2.935533587439026 0 -109.0651914055953
4.007825874004229 0 -110.3856228303961
-3.073577702274906 0 -89.48838345636581
-3.994197135316573 0 -95.45594208011036
3.051983904440042 0 -103.5285508099978
4.953898288145448 0 -25.40671981317346
-4.953898288145473 0 -25.40671981317347
3.512836943565516 0 -76.61357390576083
-0.757755180195864 0 -8.245655140406015
4.901170405576703 0 -115.7287536280565
-4.654168153378612 0 -115.4646673430963
1.865675925757582 0 -35.80988835629071
-1.837665601910884 0 -84.34121095166422
-3.48857687122297 0 -49.35171396471057
-5.302717115146907 0 -7.106774806928513
10.96426301063848 3.032265393509674 -43.43904225505432
-10.96426301063846 3.032265393509701 -43.43904225505433
6.34951503574966 13.18490382959183 -40.03625511982369
14.26723077882678 3.256402322885505 -39.96374488017629
11.46460949196955 9.095095347572675 -40
0.03723522175506937 14.63409183116798 -40
-14.26723077882678 3.256402322885518 -39.9637448801763
-11.44143074697742 9.124236551455482 -39.96374488017629
-6.349515035749562 13.18490382959188 -40.0362551198237
10.96426301063848 3.032265393509674 -36.56095774494568
-10.96426301063846 3.032265393509692 -36.56095774494567
8.750000000000002 14.95117998029286 -17.91117744976693
8.750000000000002 5.320457418795377 -25.18755082406219
8.750000000000002 5.021743973422176 -12.63037439136356
8.750000000000002 15.15833319035226 -29.16656117673903
8.750000000000002 10.36889874968981 -32.65178203551213
8.750000000000002 5.266661896291987 -18.98850101300832
8.750000000000002 15.05062624179673 -23.77630391654567
8.750000000000002 15.02403757028256 -11.6186197448245
8.750000000000002 9.999999999999973 -8.129037555895728
8.750000000000002 5.088850557133714 -30.72424934261397
8.750000000000002 10.00841205010958 -15.24724499912033
8.750000000000002 10.16745549784232 -21.37747962659348
8.750000000000002 4.714082672940894 -7.638809192628251
8.750000000000002 15.67147418072316 -6.898680759453976
8.750000000000002 10.40739539976738 -27.15409955705747
10.25 3.10416666666666 -3
-10.25 3.104166666666674 -3
11.75 20.125 -1.5
11.75 8.624999999999988 -1.5
11.75 14.37499999999999 -1.500000000000001
11.75 2.874999999999994 -1.5
3.157610638484556 18.22886740495932 0
-2.707174061168084 4.878797530676509 0
7.069955745470663 8.716546370640001 0
-6.619519168154188 14.39111856499582 0
7.102873022115112 14.37499999999999 0
0.1126091443291166 11.52691623390895 0
-7.00095485560227 8.644857627020135 0
-2.792058517349997 18.15992185565015 0
2.948495529093417 4.721447277005963 0
-7.528051718759411 18.81262893003678 0
7.528051718759419 4.187371069963205 0
7.820492259183635 19.07601590637069 0
-7.553981076842909 4.160878030182232 0
-11.75 20.125 -1.5
-11.75 14.37499999999999 -1.5
-11.75 8.624999999999988 -1.5
-11.75 2.874999999999994 -1.5
-8.749999999999998 14.95117998029285 -17.91117744976691
-8.749999999999998 5.320457418795373 -25.1875508240622
-8.749999999999998 5.021743973422185 -12.63037439136356
-8.749999999999998 15.15833319035225 -29.16656117673902
-8.749999999999998 10.36889874968981 -32.65178203551213
-8.749999999999998 5.266661896291987 -18.98850101300832
-8.749999999999998 15.05062624179673 -23.77630391654566
-8.749999999999998 15.02403757028256 -11.61861974482448
-8.749999999999998 10.00000000000003 -8.129037555895689
-8.749999999999998 5.088850557133712 -30.72424934261398
-8.749999999999998 10.00841205010959 -15.24724499912032
-8.749999999999998 10.16745549784232 -21.37747962659348
-8.749999999999998 4.714082672940901 -7.638809192628241
-8.749999999999998 15.67147418072319 -6.898680759453962
-8.749999999999998 10.40739539976738 -27.15409955705748
-8.749999999999998 15.2884094916294 -58.00850289921243
-8.749999999999998 5.199477867801988 -66.00383989324196
-8.749999999999998 5.045995015324821 -53.7842351300074
-8.749999999999998 15.48483936707649 -68.42663675180684
-8.749999999999998 9.395392964902358 -48.83582876363042
-8.749999999999998 9.760204190045936 -71.04958727794356
-8.749999999999998 14.94691318405364 -51.89311234463202
-8.749999999999998 5.199477867801991 -59.99999999999999
-8.749999999999998 11.03925737262551 -63.247367943552
-8.749999999999998 4.48752553729132 -71.11273791637983
-8.749999999999998 4.304425093407607 -48.75481297546627
-8.749999999999998 16.36250124626628 -63.10937476718908
-8.749999999999998 10.15257431605629 -55.96150784683905
10.96426301063848 3.032265393509676 -76.56095774494568
-10.96426301063846 3.032265393509697 -76.56095774494567
14.27547021195867 3.220090124868732 -80
11.44143074697746 9.124236551455425 -80.03625511982371
6.383042257887617 13.1687053926655 -80
-14.26723077882678 3.256402322885524 -80.03625511982369
-6.349515035749562 13.18490382959188 -80.03625511982369
-11.44143074697742 9.124236551455478 -80.03625511982369
0.03723522175506937 14.63409183116798 -80
10.96426301063848 3.032265393509674 -83.43904225505432
-10.96426301063845 3.0322653935097 -83.43904225505433
-8.749999999999998 15.14374532605447 -102.849814019574
-8.749999999999998 10.91766511291014 -112.1580028749199
-8.749999999999998 5.47022867488908 -95.70108941393902
-8.749999999999998 5.782769808887728 -115.9851591194215
-8.749999999999998 15.14360797789935 -90.77602045922264
-8.749999999999998 5.250202780359624 -102.5931268992664
-8.749999999999998 10.36976395195185 -87.35000993644752
-8.749999999999998 5.390107406032212 -109.351073421384
-8.749999999999998 15.07915154940966 -96.55267685414312
-8.749999999999998 15.40679828681978 -108.9104414580568
-8.749999999999998 5.26135970409762 -89.43868634104444
-8.749999999999998 10.35311636626236 -105.8094498055564
-8.749999999999998 10.0959874542326 -99.12185609544778
-8.749999999999998 10.20763513141257 -92.8646233681537
0 3.98405882187747 -120
-4.791475935381426 3.984058821877469 -120
4.791475935381428 3.98405882187747 -120
8.750000000000002 15.14374532605447 -102.849814019574
8.750000000000002 10.91766511291014 -112.1580028749199
8.750000000000002 5.47022867488908 -95.70108941393902
8.750000000000002 5.782769808887728 -115.9851591194215
8.750000000000002 15.14360797789935 -90.77602045922264
8.750000000000002 5.250202780359624 -102.5931268992664
8.750000000000002 10.36976395195185 -87.35000993644752
8.750000000000002 5.390107406032212 -109.351073421384
8.750000000000002 15.07915154940966 -96.55267685414312
8.750000000000002 15.40679828681978 -108.9104414580568
8.750000000000002 5.26135970409762 -89.43868634104444
8.750000000000002 10.35311636626236 -105.8094498055564
8.750000000000002 10.0959874542326 -99.12185609544778
8.750000000000002 10.20763513141257 -92.8646233681537
8.750000000000002 15.49315199171427 -57.55264017760234
8.750000000000002 5.199477867801988 -66.00383989324196
8.750000000000002 4.07071964150938 -54.20509965266523
8.750000000000002 15.45945827631712 -68.48567375279012
8.750000000000002 10.36246026033754 -47.51169079715351
8.750000000000002 15.29784487493302 -51.10387448801125
8.750000000000002 9.756578319937455 -71.05802113522688
8.750000000000002 5.199477867801991 -59.99999999999999
8.750000000000002 11.10880031381181 -62.86785881161282
8.750000000000002 4.48733676854348 -71.11317699682982
8.750000000000002 5.085820791325597 -49.29700499446035
8.750000000000002 16.41228211636864 -62.95410779667588
8.750000000000002 9.516896534490513 -54.64830984592935
-1.77635683940025e-15 16.01634524749929 -45.53272061505381
4.458740429801851 16.51638890013217 -45.87647354570672
-4.45874042980185 16.51638890013217 -45.87647354570672
0 16.01634524749928 -34.4672793849462
4.458740429801852 16.51638890013217 -34.12352645429328
-4.45874042980185 16.51638890013217 -34.12352645429328
3.774037570282562 20 -17.36436624137416
-3.552713678800501e-15 20 -7.260744922055725
1.77635683940025e-15 20 -27.46798756069256
-3.774037570282563 20 -17.36436624137413
-2.56318942604222 20 -22.72745367408826
2.563189426042218 20 -12.00127880866003
3.878803340913089 20 -23.55752506890137
-3.878803340913095 20 -11.17120741384692
4.595971218541777 20 -6.801554045453081
-4.595971218541777 20 -27.9271784372952
4.561971901238209 20 -27.56511746140561
-4.561971901238211 20 -7.163615021342673
8.812499999999986 23 -1.5
2.937499999999966 23 -1.5
-8.812500000000007 23 -1.5
-2.937500000000027 23 -1.499999999999999
0.1310930883238122 20 -53.33592529421753
-0.3326219676053945 20 -66.94198448830046
-4.064980647310399 20 -62.93218312068706
2.228274159534061 20 -61.18823050772153
-3.949378262722021 20 -57.35516588832006
5.138540116238243 20 -55.97264803970074
4.462463771719066 20 -67.49040924057854
-4.490656176879607 20 -67.46097735133164
-4.490656176879604 20 -52.53902264866836
5.3361380768422 20 -51.77052048613216
0 16.01634524749928 -74.4672793849462
4.458740429801851 16.51638890013218 -74.12352645429328
-4.458740429801852 16.51638890013218 -74.12352645429328
-1.77635683940025e-15 16.01634524749929 -85.5327206150538
-4.45874042980185 16.51638890013217 -85.87647354570672
4.458740429801852 16.51638890013217 -85.87647354570672
0.3326219676053963 20 -93.05801551169952
-0.1310930883238122 20 -106.6640747057825
4.0649806473104 20 -97.06781687931293
-2.22827415953406 20 -98.81176949227846
3.949378262722023 20 -102.6448341116799
-5.138540116238241 20 -104.0273519602993
-4.462463771719065 20 -92.50959075942146
4.490656176879606 20 -107.4609773513316
4.490656176879606 20 -92.53902264866835
-5.3361380768422 20 -108.2294795138678
-4.861111111111109 13.98405882187747 -115.8643662413741
4.861111111111111 13.98405882187747 -115.8643662413741
1.77635683940025e-15 11.45179217261392 -117.6051624244587
0 16.48704033775531 -114.1437020015168
-5.055555555555555 17.29209434151022 -113.5902709727106
-5.055555555555555 10.67016627556758 -118.1424878986831
5.055555555555555 10.67016627556758 -118.1424878986831
5.055555555555555 17.29209434151022 -113.5902709727106
-5.157502367511676 6.770162035197889 -83.46067914726522
6.62711267759926 5.272040932707692 -83.48579773137591
-0.1189764015001807 8.847464263786136 -83.26134559050526
5.369568927237065 2.312936953133701 -79.28708567615784
-4.783780549782314 2.312936953133701 -79.7403834770257
9.114519085800982 2.312936953133701 -79.85741713523157
-8.997361410310031 2.312936953133701 -79.94807669540515
0.6729224406607841 2.312936953133701 -80.58939944754927
-2.39053159026798 2.312936953133701 -82.57764586459129
-10.51543029729226 5.366797210821607 -79.94776131686079
6.165122910145468 10.06816995000055 -80.05223868313919
10.51543029729226 5.366797210821612 -80.05223868313921
-6.165122910145469 10.06816995000055 -80.05223868313919
7.228964297156552e-16 11.80579462125674 -80.05223868313919
-4.910887335589455 6.533203268771583 -76.33976397089974
6.627112677599261 5.27204093270769 -76.51420226862409
-1.190077684485656 8.212995223522187 -76.41401028275391
-4.91088733558958 6.533203268771641 -43.66023602910019
6.627112677599263 5.272040932707692 -43.4857977313759
-1.19007768448569 8.212995223522206 -43.58598971724607
5.369568927237069 2.312936953133701 -40.71291432384216
-5.134785914320949 2.312936953133701 -41.29557647879763
-9.067562483217756 2.312936953133701 -40.25911529575953
9.114519085800982 2.312936953133701 -40.14258286476843
0.6807907394587147 2.312936953133701 -40
-3.215593132226033 2.312936953133701 -37.76275202890064
-10.51543029729226 5.366797210821603 -39.9477613168608
-6.165122910145469 10.06816995000055 -40.05223868313919
10.51543029729226 5.366797210821611 -39.94776131686081
7.228964297156552e-16 11.80579462125674 -40.05223868313919
6.199930046039962 10.04677331602069 -40
-4.910887335589454 6.533203268771582 -36.33976397089973
6.627112677599262 5.272040932707693 -36.51420226862409
-1.190077684485656 8.212995223522185 -36.41401028275391
-0.05866883275816193 10.17123267082586 -27.97839023850457
1.687538997430238e-14 10.15777416803402 -67.96030816075942
1.554312234475219e-14 10.15777416803403 -52.03969183924046
1.687538997430238e-14 10.15581191256301 -92.07782465482359
1.77635683940025e-15 8.995820264246664 -108.6395408585921
0 11.46804248342734 -18.27655662828923
3.552713678800501e-15 11.31525999826523 -9.346235413475057
1.18468812292007 12.40402594321457 -101.2780889770072
-0.8688305522104409 7.881169447789555 -59.99999999999994
1.089937719285172 6.245784855200441 -114.21205954936
-2.348366442534278 14.66468635610862 -108.7497272894034
2.980365340540369 6.794765853762567 -22.07499841042153
-1.92965371550387 6.485354442326129 -98.07791472094974
-3.146905163200432 13.8817032557547 -60.9682351597652
-2.485049909155144 6.020250445516993 -6.517890956210225

CELLS 2858 12538
1 0
1 1
1 2
1 3
1 4
1 5
1 6
1 7
1 8
1 9
1 10
1 11
1 12
1 13
1 14
1 15
1 16
1 17
1 18
1 19
1 20
1 21
1 22
1 23
1 24
1 25
1 26
1 27
1 28
1 29
1 30
1 31
1 32
1 33
1 34
1 35
1 36
1 37
1 38
1 39
1 40
1 41
1 42
1 43
1 44
1 45
1 46
1 47
1 48
1 49
1 50
1 51
1 52
1 53
1 54
1 55
1 56
1 57
1 58
1 59
1 60
1 61
1 62
1 63
1 64
1 65
2 0 1
2 1 2
2 2 3
2 3 66
2 66 67
2 67 68
2 68 69
2 69 4
2 4 5
2 5 6
2 6 70
2 70 71
2 71 72
2 72 7
2 8 7
2 8 9
2 9 73
2 73 74
2 74 75
2 75 76
2 76 10
2 11 10
2 12 11
2 13 12
2 13 77
2 77 78
2 78 79
2 79 80
2 80 14
2 15 14
2 16 15
2 17 16
2 17 81
2 81 82
2 82 83
2 83 84
2 84 18
2 19 85
2 85 86
2 86 18
2 20 87
2 87 88
2 88 89
2 89 90
2 90 19
2 20 21
2 21 22
2 22 23
2 0 91
2 91 92
2 92 93
2 93 94
2 94 23
2 1 95
2 95 96
2 96 97
2 97 98
2 98 99
2 99 100
2 100 12
2 24 101
2 101 13
2 24 102
2 102 103
2 103 25
2 25 104
2 104 0
2 2 105
2 105 106
2 106 107
2 107 108
2 108 109
2 109 110
2 110 11
2 3 111
2 111 26
2 26 112
2 112 113
2 113 27
2 10 114
2 114 27
2 4 115
2 115 116
2 116 28
2 29 117
2 117 118
2 118 119
2 119 120
2 120 28
2 26 121
2 121 29
2 31 122
2 122 123
2 123 124
2 124 30
2 8 125
2 125 126
2 126 127
2 127 31
2 32 128
2 128 129
2 129 9
2 32 130
2 130 131
2 131 28
2 5 132
2 132 133
2 133 134
2 134 30
2 6 135
2 135 136
2 136 137
2 137 33
2 30 33
2 34 138
2 138 139
2 139 140
2 140 33
2 7 141
2 141 142
2 142 143
2 143 34
2 31 34
2 32 144
2 144 145
2 145 146
2 146 147
2 147 35
2 27 148
2 148 35
2 36 149
2 149 24
2 37 150
2 150 151
2 151 152
2 152 36
2 38 153
2 153 37
2 14 154
2 154 38
2 23 155
2 155 39
2 39 156
2 156 157
2 157 38
2 22 158
2 158 159
2 159 160
2 160 161
2 161 162
2 162 163
2 163 15
2 21 164
2 164 165
2 165 166
2 166 167
2 167 168
2 168 169
2 169 16
2 40 170
2 170 17
2 40 171
2 171 172
2 172 41
2 41 173
2 173 20
2 42 174
2 174 40
2 43 175
2 175 176
2 176 177
2 177 42
2 44 178
2 178 179
2 179 43
2 18 180
2 180 44
2 45 181
2 181 182
2 182 44
2 19 183
2 183 45
2 46 184
2 184 41
2 47 185
2 185 186
2 186 187
2 187 46
2 45 188
2 188 189
2 189 47
2 48 190
2 190 25
2 49 191
2 191 192
2 192 193
2 193 48
2 39 194
2 194 49
2 48 195
2 195 196
2 196 36
2 29 197
2 197 198
2 198 35
2 49 199
2 199 200
2 200 37
2 46 201
2 201 202
2 202 42
2 47 203
2 203 204
2 204 43
2 50 205
2 205 206
2 206 51
2 51 207
2 207 50
2 50 208
2 208 52
2 52 209
2 209 210
2 210 211
2 211 212
2 212 53
2 53 213
2 213 51
2 52 54
2 54 214
2 214 55
2 55 215
2 215 56
2 56 216
2 216 57
2 53 57
2 54 217
2 217 218
2 218 219
2 219 220
2 220 57
2 55 221
2 221 222
2 222 56
2 58 223
2 223 224
2 224 59
2 59 225
2 225 58
2 58 226
2 226 60
2 60 227
2 227 228
2 228 229
2 229 230
2 230 61
2 61 231
2 231 59
2 60 62
2 62 232
2 232 63
2 63 233
2 233 64
2 64 234
2 234 65
2 61 65
2 62 235
2 235 236
2 236 237
2 237 238
2 238 65
2 63 239
2 239 240
2 240 64
3 1 259 0
3 0 252 91
3 0 260 252
3 259 260 0
3 2 259 1
3 3 259 2
3 66 263 3
3 3 260 259
3 3 283 260
3 263 283 3
3 6 4 5
3 70 4 6
3 4 257 69
3 70 257 4
3 7 8 9
3 9 72 7
3 9 245 72
3 73 286 9
3 9 286 245
3 11 258 10
3 10 243 76
3 10 250 243
3 10 258 250
3 12 258 11
3 13 258 12
3 77 285 13
3 250 258 13
3 13 262 250
3 13 285 262
3 15 255 14
3 14 268 80
3 255 269 14
3 14 269 268
3 16 255 15
3 17 255 16
3 81 274 17
3 17 269 255
3 17 284 269
3 274 284 17
3 18 282 84
3 86 282 18
3 19 281 85
3 90 281 19
3 21 256 20
3 20 247 87
3 20 249 247
3 20 256 249
3 22 256 21
3 23 256 22
3 94 253 23
3 253 279 23
3 23 279 256
3 67 277 66
3 66 277 263
3 68 244 67
3 244 277 67
3 69 266 68
3 68 266 244
3 257 266 69
3 71 257 70
3 72 245 71
3 245 257 71
3 74 254 73
3 254 286 73
3 75 265 74
3 74 265 254
3 76 278 75
3 75 278 265
3 243 278 76
3 78 241 77
3 241 285 77
3 79 270 78
3 78 270 241
3 80 242 79
3 242 270 79
3 80 268 242
3 82 275 81
3 81 275 274
3 83 248 82
3 248 275 82
3 84 272 83
3 83 272 248
3 84 282 272
3 85 246 86
3 85 281 246
3 246 282 86
3 87 261 88
3 247 261 87
3 88 276 89
3 261 276 88
3 89 273 90
3 89 276 273
3 273 281 90
3 91 271 92
3 252 271 91
3 92 251 93
3 92 271 251
3 93 267 94
3 251 267 93
3 94 267 253
3 270 271 241
3 271 285 241
3 242 267 251
3 251 270 242
3 242 268 267
3 250 283 243
3 263 264 243
3 243 283 263
3 264 278 243
3 254 265 244
3 244 266 254
3 244 265 264
3 264 277 244
3 245 280 257
3 245 286 280
3 246 273 272
3 272 282 246
3 246 281 273
3 249 284 247
3 247 274 261
3 247 284 274
3 261 275 248
3 248 276 261
3 272 276 248
3 256 279 249
3 249 279 269
3 269 284 249
3 250 262 260
3 260 283 250
3 251 271 270
3 260 262 252
3 262 285 252
3 252 285 271
3 267 268 253
3 268 279 253
3 266 280 254
3 280 286 254
3 257 280 266
3 274 275 261
3 263 277 264
3 265 278 264
3 269 279 268
3 273 276 272
3 0 287 1
3 104 287 0
3 1 287 95
3 12 288 13
3 100 288 12
3 13 288 101
3 98 24 99
3 102 24 98
3 99 24 100
3 101 100 24
3 95 25 96
3 25 95 104
3 25 97 96
3 103 97 25
3 95 287 104
3 98 97 102
3 102 97 103
3 101 288 100
3 1 290 2
3 95 290 1
3 2 290 105
3 11 293 12
3 110 293 11
3 12 293 100
3 96 291 95
3 105 290 95
3 95 291 105
3 97 289 96
3 96 289 106
3 106 291 96
3 98 292 97
3 107 289 97
3 97 292 107
3 99 295 98
3 108 292 98
3 98 295 108
3 100 294 99
3 99 294 109
3 109 295 99
3 100 293 110
3 110 294 100
3 105 291 106
3 106 289 107
3 107 292 108
3 108 295 109
3 109 294 110
3 2 296 3
3 105 296 2
3 3 296 111
3 10 297 11
3 114 297 10
3 11 297 110
3 105 106 26
3 105 26 111
3 26 106 107
3 112 26 107
3 108 109 27
3 108 27 113
3 109 110 27
3 27 110 114
3 111 296 105
3 108 113 107
3 113 112 107
3 110 297 114
3 3 307 66
3 111 307 3
3 69 310 4
3 4 310 115
3 26 302 111
3 121 302 26
3 116 311 28
3 28 311 120
3 117 301 29
3 29 301 121
3 66 299 67
3 66 307 299
3 67 303 68
3 299 303 67
3 68 300 69
3 68 303 300
3 300 310 69
3 302 307 111
3 115 306 116
3 115 310 306
3 306 311 116
3 118 304 117
3 117 304 301
3 119 298 118
3 298 304 118
3 120 305 119
3 119 305 298
3 120 311 305
3 301 302 121
3 298 309 304
3 305 308 298
3 308 309 298
3 299 309 303
3 307 312 299
3 299 312 309
3 303 308 300
3 300 308 306
3 306 310 300
3 301 312 302
3 304 312 301
3 302 312 307
3 303 309 308
3 309 312 304
3 306 308 305
3 305 311 306
3 5 4 313
3 4 115 313
3 132 5 313
3 9 8 314
3 8 125 314
3 129 9 314
3 30 28 124
3 134 28 30
3 134 116 28
3 28 131 124
3 31 122 32
3 31 32 127
3 122 130 32
3 127 32 128
3 116 133 115
3 133 132 115
3 115 132 313
3 134 133 116
3 130 122 123
3 131 123 124
3 131 130 123
3 125 126 129
3 125 129 314
3 126 127 128
3 126 128 129
3 5 318 6
3 132 318 5
3 6 318 135
3 33 315 30
3 30 315 134
3 137 315 33
3 133 316 132
3 132 316 135
3 135 318 132
3 134 317 133
3 136 316 133
3 133 317 136
3 134 315 137
3 137 317 134
3 135 316 136
3 136 317 137
3 6 329 70
3 135 329 6
3 72 331 7
3 7 331 141
3 33 330 137
3 140 330 33
3 34 328 138
3 143 328 34
3 70 327 71
3 70 329 327
3 71 320 72
3 71 327 320
3 320 331 72
3 136 321 135
3 321 329 135
3 137 323 136
3 136 323 321
3 137 330 323
3 138 326 139
3 138 328 326
3 139 319 140
3 139 326 319
3 319 330 140
3 141 325 142
3 141 331 325
3 142 322 143
3 142 325 322
3 322 328 143
3 319 324 323
3 323 330 319
3 319 326 324
3 324 325 320
3 320 327 324
3 325 331 320
3 323 324 321
3 324 327 321
3 327 329 321
3 322 325 324
3 324 326 322
3 326 328 322
3 8 7 335
3 7 141 335
3 125 8 335
3 34 31 332
3 31 127 332
3 143 34 332
3 126 125 334
3 125 141 334
3 141 125 335
3 127 126 333
3 126 142 333
3 142 126 334
3 127 143 332
3 143 127 333
3 141 142 334
3 142 143 333
3 73 9 348
3 9 129 348
3 10 76 345
3 114 10 345
3 27 114 340
3 148 27 340
3 128 32 349
3 32 144 349
3 147 35 339
3 35 148 339
3 74 73 338
3 338 73 348
3 75 74 341
3 74 338 341
3 76 75 337
3 337 75 341
3 76 337 345
3 340 114 345
3 129 128 344
3 344 128 349
3 129 344 348
3 144 145 343
3 144 343 349
3 145 146 336
3 145 336 343
3 146 147 342
3 336 146 342
3 147 339 342
3 339 148 340
3 336 342 347
3 343 336 346
3 346 336 347
3 337 341 347
3 345 337 350
3 337 347 350
3 341 338 346
3 338 344 346
3 344 338 348
3 339 340 350
3 342 339 350
3 340 345 350
3 341 346 347
3 347 342 350
3 344 343 346
3 343 344 349
3 77 13 361
3 13 101 361
3 14 80 360
3 154 14 360
3 101 24 355
3 24 149 355
3 149 36 357
3 36 152 357
3 150 37 354
3 37 153 354
3 153 38 356
3 38 154 356
3 78 77 353
3 353 77 361
3 79 78 358
3 78 353 358
3 80 79 352
3 352 79 358
3 80 352 360
3 101 355 361
3 355 149 357
3 151 150 362
3 150 354 362
3 152 151 351
3 351 151 362
3 152 351 357
3 354 153 356
3 356 154 360
3 357 351 363
3 359 351 362
3 351 359 363
3 356 352 359
3 352 356 360
3 352 358 359
3 355 353 361
3 353 355 363
3 358 353 363
3 354 356 359
3 354 359 362
3 355 357 363
3 359 358 363
3 14 365 15
3 154 365 14
3 15 365 163
3 22 364 23
3 158 364 22
3 23 364 155
3 38 163 154
3 161 38 157
3 161 162 38
3 162 163 38
3 158 39 155
3 156 39 160
3 158 159 39
3 39 159 160
3 163 365 154
3 155 364 158
3 156 160 157
3 161 157 160
3 15 369 16
3 163 369 15
3 16 369 169
3 21 366 22
3 164 366 21
3 22 366 158
3 158 367 159
3 158 366 164
3 164 367 158
3 159 368 160
3 159 367 165
3 165 368 159
3 160 372 161
3 160 368 166
3 166 372 160
3 161 370 162
3 167 370 161
3 161 372 167
3 162 371 163
3 162 370 168
3 168 371 162
3 169 369 163
3 163 371 169
3 165 367 164
3 166 368 165
3 167 372 166
3 168 370 167
3 169 371 168
3 16 374 17
3 169 374 16
3 17 374 170
3 20 373 21
3 173 373 20
3 21 373 164
3 167 40 168
3 171 40 167
3 168 40 169
3 170 169 40
3 164 41 165
3 41 164 173
3 41 166 165
3 172 166 41
3 164 373 173
3 167 166 171
3 171 166 172
3 170 374 169
3 81 17 385
3 17 170 385
3 18 84 378
3 180 18 378
3 170 40 381
3 40 174 381
3 174 42 379
3 42 177 379
3 175 43 384
3 43 179 384
3 178 44 378
3 44 180 378
3 82 81 377
3 377 81 385
3 83 82 380
3 82 377 380
3 84 83 382
3 83 380 382
3 378 84 382
3 170 381 385
3 174 379 381
3 176 175 375
3 375 175 384
3 177 176 383
3 176 375 383
3 379 177 383
3 179 178 376
3 376 178 378
3 179 376 384
3 383 375 387
3 375 384 386
3 375 386 387
3 376 378 382
3 376 382 386
3 384 376 386
3 380 377 387
3 377 385 388
3 387 377 388
3 381 379 388
3 379 383 388
3 382 380 386
3 386 380 387
3 385 381 388
3 383 387 388
3 18 390 86
3 180 390 18
3 85 391 19
3 19 391 183
3 44 390 180
3 182 390 44
3 45 391 181
3 183 391 45
3 86 389 85
3 389 391 85
3 86 390 389
3 181 389 182
3 181 391 389
3 389 390 182
3 19 395 90
3 183 395 19
3 87 402 20
3 20 402 173
3 173 398 41
3 41 398 184
3 45 395 183
3 188 395 45
3 184 396 46
3 46 396 187
3 185 401 47
3 47 401 189
3 88 394 87
3 394 402 87
3 89 397 88
3 88 397 394
3 90 399 89
3 89 399 397
3 395 399 90
3 173 402 398
3 184 398 396
3 186 392 185
3 392 401 185
3 187 400 186
3 186 400 392
3 396 400 187
3 189 393 188
3 393 395 188
3 189 401 393
3 400 404 392
3 392 403 401
3 392 404 403
3 393 399 395
3 393 403 399
3 401 403 393
3 397 404 394
3 394 405 402
3 404 405 394
3 398 405 396
3 396 405 400
3 399 403 397
3 403 404 397
3 402 405 398
3 400 405 404
3 91 416 0
3 0 416 104
3 23 415 94
3 155 415 23
3 104 410 25
3 25 410 190
3 39 412 155
3 194 412 39
3 190 411 48
3 48 411 193
3 191 409 49
3 49 409 194
3 92 408 91
3 408 416 91
3 93 413 92
3 92 413 408
3 94 407 93
3 407 413 93
3 94 415 407
3 104 416 410
3 412 415 155
3 410 411 190
3 192 417 191
3 191 417 409
3 193 406 192
3 406 417 192
3 193 411 406
3 409 412 194
3 411 418 406
3 414 417 406
3 406 418 414
3 412 414 407
3 407 415 412
3 407 414 413
3 413 418 408
3 408 418 416
3 409 414 412
3 409 417 414
3 410 418 411
3 416 418 410
3 414 418 413
3 149 24 102
3 103 25 190
3 149 421 36
3 36 421 196
3 48 420 190
3 195 420 48
3 103 419 102
3 102 421 149
3 419 421 102
3 190 420 103
3 103 420 419
3 196 419 195
3 419 420 195
3 196 421 419
3 121 26 112
3 113 27 148
3 121 423 29
3 29 423 197
3 35 424 148
3 198 424 35
3 113 422 112
3 112 423 121
3 422 423 112
3 148 424 113
3 113 424 422
3 197 422 198
3 197 423 422
3 422 424 198
3 120 433 28
3 28 433 131
3 29 435 117
3 197 435 29
3 130 436 32
3 32 436 144
3 147 434 35
3 35 434 198
3 117 431 118
3 117 435 431
3 118 425 119
3 118 431 425
3 119 430 120
3 425 430 119
3 430 433 120
3 131 426 130
3 426 436 130
3 131 433 426
3 144 432 145
3 144 436 432
3 145 428 146
3 145 432 428
3 146 429 147
3 428 429 146
3 429 434 147
3 198 427 197
3 427 435 197
3 198 434 427
3 425 429 428
3 428 430 425
3 425 431 429
3 430 432 426
3 426 433 430
3 432 436 426
3 429 431 427
3 427 434 429
3 431 435 427
3 428 432 430
3 30 437 33
3 124 437 30
3 34 439 31
3 31 439 122
3 33 437 140
3 138 439 34
3 122 440 123
3 122 439 138
3 138 440 122
3 123 438 124
3 139 438 123
3 123 440 139
3 140 437 124
3 124 438 140
3 139 440 138
3 140 438 139
3 36 449 152
3 196 449 36
3 150 448 37
3 37 448 200
3 193 450 48
3 48 450 195
3 49 447 191
3 199 447 49
3 151 443 150
3 443 448 150
3 152 445 151
3 151 445 443
3 152 449 445
3 191 444 192
3 191 447 444
3 192 446 193
3 444 446 192
3 446 450 193
3 195 441 196
3 195 450 441
3 441 449 196
3 200 442 199
3 442 447 199
3 200 448 442
3 444 445 441
3 441 446 444
3 445 449 441
3 441 450 446
3 443 444 442
3 442 448 443
3 444 447 442
3 443 445 444
3 37 453 153
3 200 453 37
3 38 153 157
3 194 39 156
3 194 452 49
3 49 452 199
3 153 453 157
3 157 451 156
3 156 452 194
3 451 452 156
3 157 453 451
3 199 451 200
3 199 452 451
3 451 453 200
3 40 171 174
3 172 41 184
3 174 455 42
3 42 455 202
3 46 456 184
3 201 456 46
3 172 454 171
3 171 455 174
3 454 455 171
3 184 456 172
3 172 456 454
3 202 454 201
3 454 456 201
3 202 455 454
3 42 463 177
3 202 463 42
3 175 466 43
3 43 466 204
3 187 465 46
3 46 465 201
3 47 464 185
3 203 464 47
3 176 462 175
3 462 466 175
3 177 460 176
3 460 462 176
3 177 463 460
3 185 461 186
3 185 464 461
3 186 459 187
3 186 461 459
3 459 465 187
3 201 457 202
3 201 465 457
3 457 463 202
3 204 458 203
3 458 464 203
3 204 466 458
3 459 460 457
3 457 465 459
3 460 463 457
3 460 461 458
3 458 462 460
3 461 464 458
3 458 466 462
3 459 461 460
3 43 471 179
3 204 471 43
3 178 472 44
3 44 472 182
3 181 473 45
3 45 473 188
3 189 474 47
3 47 474 203
3 179 467 178
3 467 472 178
3 179 471 467
3 182 469 181
3 469 473 181
3 182 472 469
3 188 468 189
3 188 473 468
3 468 474 189
3 203 470 204
3 203 474 470
3 470 471 204
3 467 470 469
3 469 472 467
3 467 471 470
3 469 470 468
3 468 473 469
3 470 474 468
3 205 207 50
3 51 207 206
3 207 205 206
3 205 50 476
3 50 208 476
3 51 206 475
3 213 51 475
3 52 209 208
3 212 53 213
3 206 205 477
3 210 205 476
3 205 210 477
3 475 206 477
3 208 209 476
3 209 210 476
3 210 211 477
3 211 212 475
3 211 475 477
3 212 213 475
3 207 482 50
3 50 478 208
3 50 482 478
3 51 483 207
3 213 479 51
3 479 483 51
3 52 480 54
3 208 480 52
3 57 481 53
3 53 481 213
3 54 480 214
3 214 478 55
3 55 478 215
3 215 479 56
3 56 479 216
3 216 481 57
3 207 483 482
3 478 480 208
3 213 481 479
3 214 480 478
3 478 482 215
3 215 482 479
3 479 481 216
3 482 483 479
3 52 54 486
3 209 52 486
3 57 53 484
3 53 212 484
3 54 217 486
3 220 57 484
3 210 209 485
3 209 217 485
3 217 209 486
3 211 210 488
3 218 210 485
3 210 218 488
3 212 211 487
3 211 219 487
3 219 211 488
3 212 220 484
3 220 212 487
3 217 218 485
3 218 219 488
3 219 220 487
3 54 214 217
3 214 55 490
3 55 221 490
3 56 216 489
3 222 56 489
3 220 216 57
3 217 214 490
3 216 220 489
3 218 217 490
3 219 218 491
3 221 218 490
3 218 221 491
3 220 219 489
3 489 219 491
3 221 222 491
3 222 489 491
3 215 221 55
3 222 215 56
3 222 221 215
3 223 225 58
3 225 224 59
3 224 225 223
3 223 58 493
3 58 226 493
3 59 224 492
3 231 59 492
3 60 227 226
3 230 61 231
3 224 223 494
3 228 223 493
3 223 228 494
3 492 224 494
3 226 227 493
3 227 228 493
3 228 229 494
3 229 230 492
3 229 492 494
3 230 231 492
3 225 495 58
3 58 495 226
3 59 496 225
3 231 496 59
3 60 498 62
3 226 498 60
3 65 497 61
3 61 497 231
3 62 498 232
3 232 495 63
3 63 499 233
3 495 499 63
3 233 500 64
3 64 500 234
3 234 497 65
3 225 499 495
3 496 499 225
3 495 498 226
3 231 497 496
3 232 498 495
3 499 500 233
3 496 497 234
3 234 500 496
3 496 500 499
3 60 62 503
3 227 60 503
3 65 61 501
3 61 230 501
3 62 235 503
3 238 65 501
3 228 227 505
3 235 227 503
3 227 235 505
3 229 228 504
3 228 236 504
3 236 228 505
3 230 229 502
3 229 237 502
3 237 229 504
3 230 238 501
3 238 230 502
3 235 236 505
3 236 237 504
3 237 238 502
3 62 232 235
3 232 63 507
3 63 239 507
3 64 234 506
3 240 64 506
3 238 234 65
3 235 232 507
3 234 238 506
3 236 235 507
3 237 236 508
3 239 236 507
3 236 239 508
3 238 237 506
3 506 237 508
3 239 240 508
3 240 506 508
3 233 239 63
3 240 233 64
3 240 239 233
4 300 514 266 515
4 446 406 511 522
4 433 311 131 515
4 347 341 337 520
4 300 266 514 520
4 436 130 349 515
4 240 233 239 509
4 243 233 240 509
4 116 131 311 515
4 406 517 511 522
4 224 285 361 511
4 347 337 509 520
4 304 431 509 514
4 446 411 450 511
4 131 426 433 515
4 341 346 338 514
4 347 514 341 520
4 254 266 514 515
4 342 339 434 509
4 308 514 300 515
4 346 338 514 515
4 436 426 130 515
4 300 308 303 520
4 195 450 420 511
4 444 510 417 522
4 341 338 254 514
4 304 435 301 509
4 254 514 338 515
4 341 265 337 520
4 347 509 342 514
4 441 446 511 522
4 459 400 465 512
4 304 431 435 509
4 345 243 240 509
4 474 468 393 513
4 417 510 414 522
4 464 401 516 519
4 447 417 444 510
4 434 198 427 509
4 300 514 308 520
4 431 427 435 509
4 465 400 396 512
4 343 514 432 515
4 474 393 401 513
4 278 509 337 520
4 221 253 415 510
4 435 427 197 509
4 409 417 447 510
4 474 401 464 519
4 427 422 197 509
4 457 459 465 512
4 266 310 300 515
4 446 444 406 522
4 474 513 401 519
4 427 198 422 509
4 467 376 472 513
4 340 506 508 240
4 347 509 514 520
4 225 285 224 511
4 508 340 240 509
4 225 224 223 511
4 355 224 361 511
4 474 470 468 513
4 339 424 434 509
4 254 265 341 514
4 406 411 446 511
4 400 512 459 516
4 464 401 392 516
4 435 423 301 509
4 434 424 198 509
4 310 515 266 523
4 244 514 266 520
4 383 516 512 521
4 445 449 357 511
4 435 197 423 509
4 131 324 130 426
4 304 514 509 520
4 337 265 278 520
4 278 345 337 509
4 116 324 131 515
4 115 515 310 523
4 300 244 266 520
4 202 454 455 512
4 201 456 454 512
4 383 463 379 512
4 197 422 423 509
4 450 411 420 511
4 200 453 451 510
4 452 199 451 510
4 195 420 419 511
4 345 240 340 509
4 242 222 360 510
4 383 387 516 521
4 324 130 426 515
4 459 512 457 516
4 431 429 427 509
4 131 324 426 515
4 207 274 206 205
4 421 449 196 511
4 421 196 419 511
4 513 516 401 519
4 424 422 198 509
4 271 511 408 517
4 241 353 511 517
4 460 512 383 516
4 115 306 310 515
4 401 513 403 516
4 350 342 347 509
4 381 206 385 512
4 446 450 441 511
4 414 517 406 522
4 400 404 405 512
4 202 457 454 512
4 460 463 383 512
4 451 199 442 510
4 278 264 509 520
4 201 454 457 512
4 300 303 244 520
4 298 431 304 514
4 361 285 353 511
4 341 514 265 520
4 200 451 442 510
4 263 299 307 509
4 254 515 338 523
4 397 513 276 516
4 201 457 465 512
4 304 309 514 520
4 200 442 448 510
4 239 233 263 509
4 434 429 342 509
4 267 415 253 510
4 429 342 509 514
4 434 427 429 509
4 345 278 243 509
4 467 513 472 518
4 406 418 511 517
4 447 444 442 510
4 380 513 386 521
4 467 472 469 518
4 460 457 463 512
4 243 263 233 509
4 433 305 311 515
4 513 516 386 521
4 350 347 337 509
4 276 516 513 521
4 379 463 455 512
4 397 516 276 521
4 383 379 388 512
4 400 405 396 512
4 115 327 515 523
4 381 379 455 512
4 396 398 456 512
4 472 376 378 518
4 241 353 285 511
4 263 299 509 520
4 302 301 423 509
4 263 277 299 520
4 130 324 322 515
4 463 202 455 512
4 304 301 312 509
4 401 403 392 516
4 472 513 376 518
4 357 445 511 522
4 252 223 416 511
4 254 266 515 523
4 404 397 394 521
4 254 266 244 514
4 375 383 387 516
4 449 421 357 511
4 404 394 512 521
4 428 432 343 514
4 431 429 509 514
4 304 312 309 520
4 400 404 512 516
4 339 340 424 509
4 470 513 474 519
4 494 492 355 224
4 266 257 310 523
4 474 464 203 519
4 305 514 308 515
4 346 514 343 515
4 418 408 511 517
4 342 350 339 509
4 265 514 244 520
4 305 298 308 514
4 343 346 336 514
4 357 351 445 522
4 266 280 257 523
4 318 5 313 132
4 8 125 335 314
4 360 222 356 510
4 404 516 397 521
4 115 327 321 515
4 224 355 494 511
4 248 513 380 521
4 385 275 377 521
4 304 509 312 520
4 463 457 202 512
4 447 442 199 510
4 242 268 360 222
4 442 510 444 522
4 404 394 405 512
4 404 512 516 521
4 271 416 408 511
4 457 512 460 516
4 403 513 397 516
4 267 407 415 510
4 428 343 336 514
4 298 305 425 514
4 386 516 387 521
4 385 206 274 512
4 298 304 309 514
4 336 347 342 514
4 306 115 321 515
4 195 441 450 511
4 206 205 274 512
4 243 278 264 509
4 407 510 267 517
4 387 386 375 516
4 305 430 514 515
4 432 436 349 515
4 116 306 321 515
4 241 511 271 517
4 510 517 414 522
4 222 268 221 510
4 418 413 408 517
4 409 414 417 510
4 310 306 300 515
4 382 376 513 518
4 222 491 489 356
4 448 510 442 522
4 130 326 322 324
4 354 510 448 522
4 382 378 376 518
4 385 377 512 521
4 252 416 271 511
4 506 340 345 240
4 381 388 379 512
4 405 398 396 512
4 265 264 278 520
4 254 244 265 514
4 430 432 514 515
4 302 312 301 509
4 349 343 432 515
4 455 171 381 512
4 456 398 172 512
4 205 402 247 512
4 222 491 356 510
4 355 361 353 511
4 239 263 307 509
4 445 441 449 511
4 386 375 516 519
4 423 112 302 509
4 375 462 516 519
4 382 380 272 513
4 241 358 353 517
4 116 321 324 515
4 261 394 397 521
4 402 394 261 512
4 243 264 263 509
4 340 113 424 509
4 375 460 383 516
4 350 340 339 509
4 324 515 327 523
4 263 264 277 520
4 327 324 321 515
4 263 509 264 520
4 222 242 268 510
4 403 401 393 513
4 113 340 508 509
4 274 275 385 521
4 397 403 399 513
4 382 386 380 513
4 195 419 441 511
4 285 271 241 511
4 414 510 407 517
4 344 349 128 515
4 116 311 306 515
4 380 248 272 513
4 441 419 196 511
4 299 312 307 509
4 382 282 378 518
4 324 130 326 131
4 274 385 512 521
4 380 386 387 521
4 397 399 276 513
4 467 469 513 518
4 413 251 408 517
4 307 312 302 509
4 441 444 446 522
4 429 336 342 514
4 307 302 239 509
4 247 402 261 512
4 470 469 468 513
4 285 225 271 511
4 441 196 449 511
4 377 388 385 512
4 402 405 394 512
4 345 350 337 509
4 406 414 418 517
4 242 360 352 510
4 386 516 513 519
4 248 276 513 521
4 350 345 340 509
4 306 308 300 515
4 346 344 338 515
4 475 206 385 381
4 344 515 128 523
4 381 385 388 512
4 405 402 398 512
4 254 280 266 523
4 355 357 421 511
4 464 392 461 516
4 459 457 460 516
4 432 426 436 515
4 398 402 205 512
4 344 338 515 523
4 414 407 413 517
4 445 441 511 522
4 225 252 285 271
4 298 425 431 514
4 363 511 353 517
4 474 203 470 519
4 398 205 172 512
4 454 171 455 512
4 456 172 454 512
4 341 347 346 514
4 355 421 102 511
4 182 472 378 518
4 420 411 410 511
4 302 112 239 509
4 422 112 423 509
4 157 451 453 510
4 452 451 156 510
4 419 420 103 511
4 421 419 102 511
4 261 512 394 521
4 418 411 406 511
4 305 430 425 514
4 221 268 222 215
4 362 354 448 522
4 467 469 470 519
4 113 422 424 509
4 433 430 305 515
4 276 399 273 513
4 375 462 460 516
4 468 393 513 518
4 494 355 102 511
4 271 408 251 517
4 56 360 268 222
4 413 407 251 517
4 261 397 276 521
4 410 103 420 511
4 207 247 274 205
4 468 473 393 518
4 9 129 314 331
4 376 513 467 519
4 477 454 172 512
4 360 356 352 510
4 428 430 432 514
4 115 4 313 329
4 454 477 171 512
4 382 272 282 518
4 467 513 469 519
4 451 491 156 510
4 419 103 494 511
4 508 112 422 509
4 356 453 354 510
4 241 270 358 517
4 469 468 513 518
4 352 510 359 517
4 182 378 390 518
4 477 172 205 512
4 352 242 510 517
4 305 308 306 515
4 344 346 343 515
4 388 512 377 521
4 312 509 299 520
4 464 516 458 519
4 59 361 224 285
4 157 453 356 510
4 415 407 412 510
4 343 349 344 515
4 305 306 311 515
4 459 392 400 516
4 491 451 157 510
4 494 102 419 511
4 418 408 416 511
4 247 274 205 512
4 433 426 430 515
4 415 412 221 510
4 113 508 422 509
4 361 355 492 224
4 274 512 261 521
4 356 491 157 510
4 390 378 282 518
4 382 513 272 518
4 403 397 404 516
4 477 205 206 512
4 410 416 223 511
4 363 511 517 522
4 267 510 242 517
4 492 355 102 494
4 452 156 412 510
4 251 407 267 517
4 274 261 275 521
4 247 261 274 512
4 223 103 410 511
4 448 443 362 522
4 452 412 409 510
4 469 513 470 519
4 248 276 272 513
4 418 414 413 517
4 113 340 506 508
4 345 243 64 240
4 489 360 222 356
4 359 510 354 522
4 399 513 393 518
4 376 386 382 513
4 393 399 403 513
4 394 88 261 397
4 239 112 508 509
4 491 221 156 510
4 494 103 223 511
4 389 390 282 518
4 309 308 298 514
4 346 347 336 514
4 273 513 399 518
4 363 353 358 517
4 443 448 442 522
4 222 221 491 510
4 223 224 494 511
4 363 355 353 511
4 508 240 239 509
4 491 489 356 157
4 392 459 461 516
4 462 458 516 519
4 241 271 270 517
4 319 324 326 131
4 430 426 432 515
4 386 513 376 519
4 412 156 221 510
4 429 428 336 514
4 200 442 451 199
4 201 454 202 457
4 464 461 458 516
4 389 182 390 518
4 431 298 304 118
4 357 355 363 511
4 352 358 242 517
4 308 514 309 520
4 469 473 468 518
4 276 273 272 513
4 359 517 510 522
4 215 221 268 253
4 242 267 268 510
4 186 459 392 400
4 395 393 473 518
4 209 52 164 486
4 235 62 503 105
4 395 281 273 518
4 431 425 429 514
4 352 359 358 517
4 354 359 356 510
4 356 359 352 510
4 88 276 261 397
4 68 303 244 300
4 78 358 353 241
4 437 33 140 330
4 34 328 439 138
4 325 344 128 523
4 418 416 410 511
4 59 361 492 224
4 338 74 341 254
4 362 359 354 522
4 51 385 206 274
4 410 411 418 511
4 392 404 400 516
4 433 311 28 131
4 331 129 245 286
4 55 221 253 415
4 222 56 360 489
4 412 407 414 510
4 212 211 40 487
4 335 141 7 331
4 83 382 380 272
4 303 308 309 520
4 9 129 331 286
4 318 329 6 135
4 197 427 198 422
4 395 399 393 518
4 445 444 441 522
4 273 272 513 518
4 137 33 315 330
4 358 270 242 517
4 116 28 311 131
4 245 9 331 286
4 273 281 395 90
4 182 469 472 518
4 414 409 412 510
4 332 328 34 143
4 281 391 389 518
4 384 466 462 519
4 244 266 68 300
4 344 325 129 523
4 282 246 389 518
4 395 273 399 518
4 462 458 460 516
4 265 341 74 254
4 389 391 281 85
4 441 195 196 419
4 223 58 252 416
4 403 404 392 516
4 471 376 467 519
4 321 115 306 116
4 408 416 271 91
4 375 384 462 519
4 459 461 186 392
4 326 440 138 139
4 425 430 428 514
4 64 506 345 240
4 387 388 377 521
4 227 60 95 503
4 217 54 486 158
4 230 229 24 502
4 206 385 51 475
4 129 344 128 325
4 322 143 333 142
4 261 402 87 394
4 375 383 460 176
4 385 81 377 275
4 399 397 276 89
4 319 438 139 140
4 436 130 32 349
4 145 428 343 336
4 78 358 241 270
4 282 84 382 378
4 336 146 429 342
4 245 286 129 523
4 438 131 123 124
4 123 440 122 130
4 471 384 376 519
4 402 247 261 87
4 384 375 386 519
4 26 111 235 105
4 114 27 238 110
4 173 41 209 164
4 40 170 212 169
4 327 257 245 523
4 248 83 380 272
4 380 377 82 521
4 238 237 502 27
4 129 331 245 523
4 145 428 432 343
4 129 286 348 523
4 104 25 227 95
4 337 341 75 265
4 363 358 359 517
4 276 273 399 89
4 399 273 395 90
4 344 348 338 523
4 252 271 416 91
4 298 431 425 118
4 377 275 82 521
4 419 102 494 103
4 422 508 113 112
4 156 157 491 451
4 129 9 348 286
4 245 257 280 523
4 386 376 384 519
4 425 305 298 119
4 321 135 316 136
4 257 327 329 115
4 401 185 464 392
4 395 391 281 518
4 73 338 348 286
4 363 517 359 522
4 242 352 79 358
4 421 102 149 355
4 462 466 384 175
4 458 203 464 519
4 137 317 136 323
4 505 228 25 227
4 26 236 505 235
4 390 282 86 389
4 75 337 265 278
4 460 462 375 176
4 272 246 282 518
4 449 36 421 196
4 281 389 246 518
4 84 382 272 282
4 413 251 407 93
4 334 142 141 325
4 362 443 151 522
4 220 219 487 38
4 243 345 76 278
4 395 473 181 518
4 299 67 303 520
4 270 251 242 517
4 115 4 329 257
4 429 425 428 514
4 85 281 389 246
4 401 474 189 393
4 179 384 376 471
4 465 46 201 396
4 46 456 201 396
4 267 242 251 517
4 101 24 100 230
4 149 357 421 355
4 442 444 443 522
4 421 357 36 449
4 311 305 433 120
4 267 253 415 94
4 362 151 351 522
4 316 132 115 133
4 334 126 129 125
4 81 385 274 275
4 474 468 189 393
4 467 179 376 471
4 459 460 461 516
4 323 116 321 324
4 124 28 30 437
4 32 31 439 122
4 277 67 299 520
4 144 432 436 349
4 380 82 248 521
4 35 424 434 339
4 462 384 375 175
4 458 461 460 516
4 187 465 400 396
4 205 50 247 402
4 257 327 245 71
4 193 450 446 411
4 217 158 39 155
4 220 154 38 163
4 320 324 327 523
4 331 320 245 523
4 395 181 391 518
4 205 398 172 476
4 302 239 507 307
4 507 239 302 112
4 309 312 299 520
4 102 24 355 492
4 263 63 239 307
4 200 37 453 354
4 248 82 275 521
4 435 304 301 117
4 320 327 245 523
4 333 127 128 126
4 133 317 134 116
4 267 415 407 94
4 358 79 242 270
4 37 200 448 354
4 406 417 444 192
4 69 266 257 310
4 432 144 343 349
4 4 115 310 257
4 325 324 320 523
4 345 337 76 278
4 483 479 51 284
4 332 34 328 439
4 476 205 398 402
4 356 453 157 153
4 35 424 198 434
4 204 470 203 519
4 407 251 267 93
4 485 217 39 218
4 268 14 56 269
4 332 31 32 127
4 134 30 28 315
4 271 251 270 517
4 261 276 248 521
4 264 265 244 520
4 452 409 49 199
4 339 148 424 340
4 423 301 302 121
4 396 184 456 398
4 455 379 381 174
4 281 391 395 183
4 471 467 470 519
4 238 234 506 114
4 273 246 272 518
4 221 156 412 490
4 395 19 281 183
4 13 250 262 496
4 47 464 474 401
4 452 156 194 412
4 380 387 377 521
4 389 181 182 518
4 389 282 86 246
4 339 434 147 342
4 356 489 38 157
4 129 320 331 523
4 146 429 428 336
4 180 282 390 378
4 310 69 266 300
4 406 193 446 411
4 250 10 243 64
4 398 41 172 476
4 231 230 492 101
4 302 26 507 112
4 280 254 286 523
4 305 425 430 119
4 185 461 464 392
4 213 212 475 170
4 384 471 466 519
4 102 24 149 355
4 444 446 406 192
4 327 320 245 71
4 244 303 67 520
4 131 319 323 330
4 354 453 356 153
4 223 493 410 103
4 4 257 70 329
4 443 445 151 522
4 338 73 254 286
4 430 433 305 120
4 360 80 56 268
4 447 49 409 199
4 282 180 18 378
4 435 431 304 117
4 391 181 389 518
4 220 216 489 154
4 465 459 187 400
4 231 497 258 496
4 245 331 9 72
4 184 172 456 398
4 171 455 381 174
4 150 448 362 354
4 351 151 445 522
4 420 450 48 411
4 279 269 268 215
4 112 423 302 121
4 148 113 424 340
4 27 113 340 506
4 345 114 340 506
4 70 257 327 329
4 244 67 277 520
4 412 156 39 490
4 13 258 250 496
4 475 385 170 381
4 410 493 223 416
4 434 429 147 342
4 395 393 188 473
4 472 378 376 178
4 45 395 473 181
4 44 182 472 378
4 92 408 413 251
4 385 170 51 475
4 381 40 475 171
4 412 221 490 415
4 315 33 437 330
4 471 43 384 466
4 452 194 409 412
4 281 246 273 518
4 282 18 180 390
4 76 345 243 64
4 171 477 454 172
4 48 195 450 420
4 182 181 469 518
4 157 38 356 153
4 10 114 234 297
4 410 493 25 103
4 281 19 391 183
4 460 383 463 177
4 0 104 226 287
4 275 261 248 521
4 464 203 47 474
4 448 443 150 362
4 469 181 473 518
4 20 173 208 373
4 101 361 355 492
4 182 44 390 378
4 181 45 395 391
4 4 313 329 318
4 92 271 408 251
4 468 188 393 473
4 376 472 178 467
4 259 495 3 232
4 156 39 194 412
4 9 335 331 314
4 411 420 410 190
4 458 204 203 519
4 303 309 299 520
4 117 431 304 118
4 490 221 55 415
4 445 443 444 522
4 128 143 127 333
4 363 359 351 522
4 506 345 114 64
4 383 460 176 177
4 249 269 279 482
4 410 420 103 190
4 361 59 77 285
4 72 245 331 320
4 471 204 466 519
4 206 51 274 207
4 232 259 495 498
4 355 24 101 492
4 345 76 10 64
4 465 187 46 396
4 111 302 507 307
4 432 144 145 343
4 361 101 59 492
4 155 23 214 364
4 149 357 36 421
4 463 383 379 177
4 435 301 29 117
4 172 184 41 398
4 381 40 171 174
4 360 80 268 242
4 130 326 328 322
4 285 224 59 225
4 302 26 112 121
4 113 148 27 340
4 402 398 476 173
4 230 101 24 492
4 344 129 348 523
4 385 51 81 274
4 281 19 395 90
4 81 17 51 385
4 80 360 352 242
4 489 154 360 356
4 243 10 76 64
4 264 244 277 520
4 58 252 416 91
4 236 26 507 235
4 228 493 25 227
4 495 63 3 232
4 493 58 223 416
4 402 20 50 87
4 146 147 429 342
4 154 360 56 489
4 459 186 187 400
4 50 247 402 87
4 129 325 320 523
4 91 271 408 92
4 262 59 13 496
4 353 77 78 241
4 74 75 341 265
4 417 447 444 191
4 489 154 38 220
4 466 458 462 519
4 490 217 39 155
4 261 87 88 394
4 489 38 154 356
4 69 68 266 300
4 64 243 500 233
4 67 303 244 68
4 358 78 79 270
4 170 17 213 374
4 14 56 80 268
4 111 3 232 296
4 283 260 250 499
4 464 47 185 401
4 120 305 430 119
4 479 483 269 284
4 69 257 4 310
4 81 82 377 275
4 449 357 36 152
4 192 417 444 191
4 249 284 269 482
4 58 0 260 252
4 262 250 260 499
4 285 59 13 262
4 83 380 82 248
4 282 18 84 378
4 83 84 382 272
4 14 154 216 365
4 228 25 493 103
4 236 507 26 112
4 93 267 407 94
4 327 257 70 71
4 490 39 412 155
4 51 17 274 284
4 85 389 86 246
4 218 217 39 490
4 179 43 384 471
4 255 481 216 269
4 397 88 276 89
4 279 249 478 256
4 307 263 63 66
4 273 399 89 90
4 37 453 354 153
4 103 25 410 190
4 101 13 231 288
4 232 62 235 111
4 209 52 208 173
4 250 258 497 496
4 47 474 189 401
4 243 64 240 233
4 461 185 186 392
4 50 205 476 402
4 204 471 470 519
4 126 334 129 325
4 115 321 316 133
4 227 60 226 104
4 283 3 63 263
4 497 234 258 250
4 247 50 20 87
4 359 362 351 522
4 77 13 59 361
4 283 250 243 233
4 29 301 423 121
4 424 35 148 339
4 218 39 156 490
4 32 144 436 349
4 434 147 35 339
4 49 194 409 452
4 337 75 76 278
4 455 42 379 174
4 46 184 456 396
4 260 495 3 259
4 137 134 317 323
4 245 280 286 523
4 410 493 416 104
4 329 6 4 318
4 447 417 409 191
4 334 126 142 325
4 63 507 239 307
4 321 316 133 136
4 143 128 322 333
4 335 7 9 331
4 466 43 384 175
4 51 17 81 274
4 448 150 37 354
4 443 151 150 362
4 338 73 74 254
4 445 151 351 152
4 493 223 228 103
4 221 218 156 490
4 239 507 236 112
4 205 172 210 476
4 131 123 130 139
4 412 490 155 415
4 214 54 217 155
4 67 277 299 66
4 466 471 43 204
4 48 420 411 190
4 390 44 180 378
4 391 45 395 183
4 73 348 9 286
4 395 188 45 473
4 378 472 44 178
4 131 130 326 139
4 253 23 55 415
4 116 134 28 330
4 22 54 23 364
4 60 1 0 287
4 297 10 11 65
4 258 13 231 496
4 506 27 113 237
4 415 253 23 94
4 281 391 19 85
4 263 239 63 233
4 252 58 0 91
4 479 216 481 269
4 20 52 21 373
4 375 462 175 176
4 416 0 58 91
4 63 233 499 283
4 332 328 32 439
4 250 500 243 233
4 450 193 48 411
4 55 215 478 279
4 282 86 18 390
4 119 298 425 118
4 428 145 146 336
4 77 59 13 285
4 232 235 507 111
4 209 208 476 173
4 307 63 3 66
4 56 14 80 360
4 227 226 493 104
4 328 128 143 127
4 263 283 243 233
4 116 317 134 323
4 243 500 250 64
4 128 328 32 127
4 492 102 24 229
4 215 55 221 253
4 489 219 38 157
4 297 238 110 114
4 374 212 170 169
4 178 179 376 467
4 468 188 189 393
4 28 311 433 120
4 111 62 105 296
4 52 173 164 373
4 379 42 463 177
4 258 234 10 250
4 14 57 15 365
4 210 477 172 205
4 40 211 475 171
4 263 3 63 66
4 60 104 95 287
4 466 204 458 519
4 214 217 490 155
4 288 230 101 100
4 249 50 20 247
4 313 329 318 135
4 238 237 27 506
4 331 335 141 314
4 111 62 296 232
4 173 52 208 373
4 104 60 226 287
4 16 53 17 374
4 2 62 3 296
4 250 497 234 496
4 365 220 163 154
4 315 437 28 330
4 134 116 323 330
4 60 0 1 259
4 13 12 61 288
4 131 326 319 139
4 124 140 131 330
4 255 216 14 269
4 155 54 158 364
4 22 23 54 256
4 326 138 440 130
4 7 9 331 72
4 323 137 134 330
4 320 72 245 71
4 482 249 50 478
4 406 446 193 192
4 79 80 352 242
4 478 215 482 279
4 480 256 478 208
4 222 268 56 215
4 483 269 284 482
4 215 268 279 253
4 230 229 492 24
4 21 52 20 256
4 228 223 494 103
4 508 239 236 112
4 218 156 491 221
4 251 413 92 93
4 70 6 4 329
4 207 50 482 249
4 220 219 38 489
4 262 260 252 225
4 438 131 319 139
4 129 331 320 325
4 212 211 475 40
4 155 54 364 214
4 3 62 2 259
4 256 20 249 208
4 333 128 322 142
4 130 440 326 139
4 269 279 482 215
4 226 495 259 498
4 225 58 495 260
4 235 62 105 111
4 209 52 173 164
4 258 11 10 65
4 124 131 28 330
4 122 138 328 130
4 128 322 328 143
4 227 60 104 95
4 285 262 252 225
4 329 327 321 115
4 259 0 260 226
4 59 225 496 262
4 63 283 263 233
4 284 274 51 207
4 138 122 440 130
4 131 438 140 124
4 215 56 479 269
4 319 131 438 140
4 262 285 59 225
4 115 321 133 116
4 63 495 283 499
4 284 51 483 207
4 479 269 482 215
4 129 128 126 325
4 416 493 58 104
4 269 56 268 215
4 438 123 131 139
4 123 440 130 139
4 262 496 499 225
4 211 477 475 171
4 409 49 447 191
4 51 170 213 475
4 156 219 491 157
4 217 54 158 155
4 122 328 32 130
4 15 57 14 255
4 402 476 50 173
4 259 260 495 226
4 17 53 16 255
4 156 219 218 491
4 228 102 494 229
4 114 234 506 64
4 61 12 13 258
4 319 131 140 330
4 249 478 256 208
4 211 210 477 171
4 128 142 126 325
4 136 133 321 116
4 234 10 250 64
4 284 249 247 207
4 231 59 101 492
4 326 328 138 130
4 437 140 28 330
4 225 495 499 260
4 315 28 137 330
4 102 228 494 103
4 115 321 135 316
4 141 129 334 325
4 154 56 216 489
4 111 507 63 307
4 142 128 322 325
4 439 328 32 138
4 23 55 279 253
4 102 492 494 229
4 508 506 113 237
4 489 491 219 157
4 32 439 138 122
4 124 140 28 437
4 155 490 55 415
4 171 210 477 172
4 252 260 58 225
4 216 56 14 269
4 137 134 28 315
4 217 367 158 486
4 100 294 501 230
4 163 220 484 371
4 169 484 212 371
4 164 367 209 486
4 501 294 110 238
4 291 227 95 503
4 291 105 235 503
4 332 32 328 143
4 143 332 32 127
4 116 136 317 323
4 500 250 234 496
4 478 256 480 214
4 132 313 318 135
4 335 125 141 314
4 500 234 250 64
4 215 279 55 253
4 274 284 247 207
4 13 59 231 496
4 58 252 225 223
4 0 58 260 226
4 321 136 116 323
4 141 129 331 314
4 313 329 135 115
4 332 32 31 439
4 437 28 30 315
4 313 4 5 318
4 335 9 8 314
4 437 30 33 315
4 332 31 34 439
4 249 20 50 208
4 50 247 207 205
4 279 55 23 214
4 496 250 262 499
4 108 98 292 504
4 167 161 488 372
4 486 158 54 366
4 503 60 95 290
4 61 293 501 100
4 56 216 479 269
4 53 369 484 169
4 486 52 164 366
4 369 57 484 163
4 482 284 483 207
4 503 105 62 290
4 501 293 65 110
4 499 260 262 225
4 495 260 283 499
4 135 132 313 115
4 129 141 125 314
4 107 504 292 97
4 160 166 488 372
4 260 58 495 226
4 55 279 478 214
4 143 32 328 127
4 496 500 250 499
4 247 249 50 207
4 137 28 134 330
4 54 52 486 366
4 138 328 32 122
4 62 60 503 290
4 369 57 53 484
4 501 293 61 65
4 135 329 321 115
4 269 483 479 482
4 28 140 124 330
4 478 249 50 208
4 164 158 486 366
4 129 141 331 325
4 482 249 284 207
4 503 95 105 290
4 110 501 293 100
4 163 484 369 169
4 8 7 9 335
4 6 5 4 318
4 487 219 211 370
4 295 502 229 237
4 133 136 317 116
4 226 60 0 287
4 214 23 54 364
4 234 10 297 65
4 142 333 128 126
4 52 20 208 373
4 501 294 238 230
4 220 212 484 371
4 217 209 367 486
4 235 227 291 503
4 115 135 132 316
4 334 129 141 125
4 110 294 501 100
4 169 163 484 371
4 367 164 158 486
4 60 62 2 290
4 15 57 53 369
4 293 11 61 65
4 21 54 366 52
4 291 95 105 503
4 259 3 62 232
4 14 57 365 216
4 256 23 54 214
4 295 109 99 502
4 505 106 96 289
4 259 60 0 226
4 165 159 368 485
4 52 20 256 208
4 237 229 98 504
4 488 211 219 167
4 16 15 53 369
4 60 2 1 290
4 12 11 61 293
4 54 21 366 22
4 161 488 219 167
4 98 108 237 504
4 374 53 17 213
4 232 3 62 296
4 279 249 482 478
4 61 13 288 231
4 10 234 258 65
4 226 58 493 104
4 62 259 232 498
4 213 53 17 255
4 497 61 231 258
4 61 13 231 258
4 228 236 505 289
4 368 485 218 210
4 21 54 52 256
4 214 490 55 155
4 14 57 216 255
4 167 211 219 370
4 229 98 295 237
4 2 62 60 259
4 108 295 98 237
4 167 219 161 370
4 54 21 22 256
4 53 213 481 255
4 208 50 476 173
4 107 236 504 97
4 218 166 488 160
4 60 1 2 259
4 232 507 63 111
4 236 228 504 97
4 166 218 488 210
4 480 256 54 214
4 160 166 368 218
4 97 107 236 289
4 226 259 60 498
4 480 52 256 208
4 53 57 15 255
4 258 234 497 65
4 258 61 11 65
4 481 216 57 255
4 218 166 368 210
4 236 228 97 289
4 15 16 53 255
4 61 11 12 258
4 259 62 60 498
4 54 52 256 480
4 57 53 481 255
4 258 497 61 65
4 110 238 109 27
4 110 109 238 294
4 169 168 212 40
4 169 212 168 371
4 212 162 168 371
4 164 209 165 41
4 164 165 209 367
4 13 101 59 361
4 13 59 101 231
4 95 96 227 291
4 95 227 96 25
4 227 96 235 291
4 235 96 106 291
4 105 106 235 26
4 105 235 106 291
4 25 104 493 410
4 25 493 104 227
4 99 100 230 294
4 99 230 100 24
4 238 99 230 294
4 109 99 238 294
4 159 158 217 367
4 159 217 158 39
4 209 159 217 367
4 165 159 209 367
4 162 163 220 38
4 220 163 162 371
4 162 212 220 371
4 23 155 55 415
4 23 55 155 214
4 11 110 65 293
4 65 110 11 297
4 16 169 53 374
4 53 169 16 369
4 2 105 62 296
4 2 62 105 290
4 521 383 388 512
4 521 388 383 387
4 22 158 54 364
4 22 54 158 366
4 164 21 52 373
4 164 52 21 366
4 154 14 56 360
4 154 56 14 216
4 417 522 406 444
4 406 522 417 414
4 522 357 363 511
4 522 363 357 351
4 15 163 57 369
4 57 163 15 365
4 12 100 61 288
4 61 100 12 293
4 95 1 60 287
4 95 60 1 290
4 510 253 268 221
4 510 268 253 267
4 322 515 523 128
4 523 515 322 324
4 523 325 322 128
4 322 325 523 324
4 511 252 225 271
4 511 225 252 223
4 323 131 324 319
4 324 131 323 116
4 263 299 66 307
4 66 299 263 277
4 445 357 152 351
4 445 152 357 449
4 40 167 211 171
4 97 25 228 103
4 98 229 24 102
4 257 115 523 327
4 523 115 257 310
4 166 41 210 172
4 322 349 515 128
4 515 349 322 130
4 108 27 237 113
4 26 107 236 112
4 160 218 39 156
4 38 219 161 157
4 512 477 381 206
4 512 381 477 171
4 475 381 477 206
4 475 477 381 171
4 508 113 236 237
4 508 236 113 112
4 201 396 512 465
4 512 396 201 456
4 353 285 77 241
4 77 285 353 361
4 209 41 210 485
4 423 435 29 197
4 423 29 435 301
4 463 455 42 379
4 42 455 463 202
4 354 200 510 453
4 354 510 200 448
4 286 338 523 254
4 286 523 338 348
4 114 10 64 345
4 114 64 10 234
4 199 409 510 452
4 199 510 409 447
4 104 0 58 416
4 104 58 0 226
4 3 111 63 307
4 3 63 111 232
4 476 41 173 398
4 476 173 41 209
4 26 507 111 302
4 26 111 507 235
4 41 476 210 172
4 41 210 476 209
4 17 269 213 255
4 481 213 269 255
4 481 269 213 479
4 328 128 349 322
4 349 128 328 32
4 349 130 328 322
4 328 130 349 32
4 173 20 50 402
4 173 50 20 208
4 17 170 51 385
4 17 51 170 213
4 297 238 234 65
4 297 234 238 114
4 212 374 213 53
4 212 213 374 170
4 230 288 231 61
4 230 231 288 101
4 220 365 216 154
4 220 216 365 57
4 116 330 131 323
4 131 330 116 28
4 495 283 3 63
4 3 283 495 260
4 279 214 256 478
4 256 214 279 23
4 250 233 499 500
4 499 233 250 283
4 106 505 235 26
4 235 96 505 106
4 485 165 209 41
4 209 485 159 165
4 220 57 163 484
4 220 163 57 365
4 212 53 169 374
4 212 169 53 484
4 27 114 506 340
4 27 506 114 238
4 238 65 110 501
4 238 110 65 297
4 230 61 100 288
4 230 100 61 501
4 170 40 475 381
4 170 475 40 212
4 168 167 211 40
4 168 211 167 370
4 487 168 211 40
4 487 211 168 370
4 162 487 168 370
4 96 505 228 25
4 228 505 96 289
4 228 97 96 25
4 96 97 228 289
4 98 99 229 295
4 98 229 99 24
4 502 229 99 295
4 502 99 229 24
4 166 165 210 41
4 166 210 165 368
4 485 210 165 41
4 485 165 210 368
4 108 109 237 27
4 108 237 109 295
4 502 237 109 27
4 502 109 237 295
4 505 106 236 26
4 505 236 106 289
4 107 236 106 26
4 107 106 236 289
4 160 159 218 368
4 160 218 159 39
4 485 218 159 368
4 485 159 218 39
4 487 162 219 370
4 487 219 162 38
4 161 219 162 370
4 161 162 219 38
4 210 171 166 172
4 228 102 97 103
4 97 98 504 292
4 167 488 166 372
4 107 504 108 292
4 161 160 488 372
4 168 212 487 162
4 487 212 168 40
4 227 96 505 235
4 505 96 227 25
4 159 217 485 209
4 159 485 217 39
4 220 162 487 212
4 487 162 220 38
4 236 107 113 112
4 269 213 284 17
4 269 284 213 479
4 51 284 213 17
4 51 213 284 479
4 109 502 238 99
4 109 238 502 27
4 228 229 98 102
4 98 229 228 504
4 98 97 228 102
4 228 97 98 504
4 166 210 167 171
4 166 167 210 488
4 211 167 210 171
4 211 210 167 488
4 156 160 219 157
4 161 160 219 488
4 161 219 160 157
4 219 218 160 156
4 160 218 219 488
4 99 230 502 238
4 99 502 230 24
4 237 108 107 504
4 107 108 237 113
4 107 236 237 504
4 237 236 107 113

CELL_TYPES 2858
1
1
1
1
1
1
1
1
1
1
1
1
1
1
1
1
1
1
1
1
1
1
1
1
1
1
1
1
1
1
1
1
1
1
1
1
1
1
1
1
1
1
1
1
1
1
1
1
1
1
1
1
1
1
1
1
1
1
1
1
1
1
1
1
1
1
3
3
3
3
3
3
3
3
3
3
3
3
3
3
3
3
3
3
3
3
3
3
3
3
3
3
3
3
3
3
3
3
3
3
3
3
3
3
3
3
3
3
3
3
3
3
3
3
3
3
3
3
3
3
3
3
3
3
3
3
3
3
3
3
3
3
3
3
3
3
3
3
3
3
3
3
3
3
3
3
3
3
3
3
3
3
3
3
3
3
3
3
3
3
3
3
3
3
3
3
3
3
3
3
3
3
3
3
3
3
3
3
3
3
3
3
3
3
3
3
3
3
3
3
3
3
3
3
3
3
3
3
3
3
3
3
3
3
3
3
3
3
3
3
3
3
3
3
3
3
3
3
3
3
3
3
3
3
3
3
3
3
3
3
3
3
3
3
3
3
3
3
3
3
3
3
3
3
3
3
3
3
3
3
3
3
3
3
3
3
3
3
3
3
3
3
3
3
3
3
3
3
3
3
3
3
3
3
3
3
3
3
3
3
3
3
3
3
3
3
3
3
3
3
3
3
3
3
3
3
3
3
3
3
3
3
3
3
3
3
3
3
3
3
3
3
3
3
3
3
3
3
3
3
3
3
3
3
3
3
3
3
3
3
3
3
3
3
3
3
3
3
3
3
5
5
5
5
5
5
5
5
5
5
5
5
5
5
5
5
5
5
5
5
5
5
5
5
5
5
5
5
5
5
5
5
5
5
5
5
5
5
5
5
5
5
5
5
5
5
5
5
5
5
5
5
5
5
5
5
5
5
5
5
5
5
5
5
5
5
5
5
5
5
5
5
5
5
5
5
5
5
5
5
5
5
5
5
5
5
5
5
5
5
5
5
5
5
5
5
5
5
5
5
5
5
5
5
5
5
5
5
5
5
5
5
5
5
5
5
5
5
5
5
5
5
5
5
5
5
5
5
5
5
5
5
5
5
5
5
5
5
5
5
5
5
5
5
5
5
5
5
5
5
5
5
5
5
5
5
5
5
5
5
5
5
5
5
5
5
5
5
5
5
5
5
5
5
5
5
5
5
5
5
5
5
5
5
5
5
5
5
5
5
5
5
5
5
5
5
5
5
5
5
5
5
5
5
5
5
5
5
5
5
5
5
5
5
5
5
5
5
5
5
5
5
5
5
5
5
5
5
5
5
5
5
5
5
5
5
5
5
5
5
5
5
5
5
5
5
5
5
5
5
5
5
5
5
5
5
5
5
5
5
5
5
5
5
5
5
5
5
5
5
5
5
5
5
5
5
5
5
5
5
5
5
5
5
5
5
5
5
5
5
5
5
5
5
5
5
5
5
5
5
5
5
5
5
5
5
5
5
5
5
5
5
5
5
5
5
5
5
5
5
5
5
5
5
5
5
5
5
5
5
5
5
5
5
5
5
5
5
5
5
5
5
5
5
5
5
5
5
5
5
5
5
5
5
5
5
5
5
5
5
5
5
5
5
5
5
5
5
5
5
5
5
5
5
5
5
5
5
5
5
5
5
5
5
5
5
5
5
5
5
5
5
5
5
5
5
5
5
5
5
5
5
5
5
5
5
5
5
5
5
5
5
5
5
5
5
5
5
5
5
5
5
5
5
5
5
5
5
5
5
5
5
5
5
5
5
5
5
5
5
5
5
5
5
5
5
5
5
5
5
5
5
5
5
5
5
5
5
5
5
5
5
5
5
5
5
5
5
5
5
5
5
5
5
5
5
5
5
5
5
5
5
5
5
5
5
5
5
5
5
5
5
5
5
5
5
5
5
5
5
5
5
5
5
5
5
5
5
5
5
5
5
5
5
5
5
5
5
5
5
5
5
5
5
5
5
5
5
5
5
5
5
5
5
5
5
5
5
5
5
5
5
5
5
5
5
5
5
5
5
5
5
5
5
5
5
5
5
5
5
5
5
5
5
5
5
5
5
5
5
5
5
5
5
5
5
5
5
5
5
5
5
5
5
5
5
5
5
5
5
5
5
5
5
5
5
5
5
5
5
5
5
5
5
5
5
5
5
5
5
5
5
5
5
5
5
5
5
5
5
5
5
5
5
5
5
5
5
5
5
5
5
5
5
5
5
5
5
5
5
5
5
5
5
5
5
5
5
5
5
5
5
5
5
5
5
5
5
5
5
5
5
5
5
5
5
5
5
5
5
5
5
5
5
5
5
5
5
5
5
5
5
5
5
5
5
5
5
5
5
5
5
5
5
5
5
5
5
5
5
5
5
5
5
5
5
5
5
5
5
5
5
5
5
5
5
5
5
5
5
5
5
5
5
5
5
5
5
5
5
5
5
5
5
5
5
5
5
5
5
5
5
5
5
5
5
5
5
5
5
5
5
5
5
5
5
5
5
5
5
5
5
5
5
5
5
5
5
5
5
5
5
5
5
5
5
5
5
5
5
5
5
5
5
5
5
5
5
5
5
5
5
5
5
5
5
5
5
5
5
5
5
5
5
5
5
5
5
5
5
5
5
5
5
5
5
5
5
5
5
5
5
5
5
5
5
5
5
5
5
5
5
5
5
5
5
5
5
5
5
5
5
5
5
5
5
5
5
5
5
5
5
5
5
5
5
5
5
5
5
5
5
5
5
5
5
5
5
5
5
5
5
5
5
5
5
5
5
5
5
5
5
5
5
5
5
5
5
5
5
5
5
5
5
5
5
5
5
5
5
5
5
5
5
5
5
5
5
5
5
5
5
5
5
5
5
5
5
5
5
5
5
5
5
5
5
5
5
5
5
5
5
5
5
5
5
5
5
5
5
5
5
5
5
5
5
5
5
5
5
5
5
5
5
5
5
5
5
5
5
5
5
5
5
5
5
5
5
5
5
5
5
5
5
5
5
5
5
5
5
5
5
5
5
5
5
5
5
5
5
5
5
5
5
5
5
5
5
5
5
5
5
5
5
5
5
10
10
10
10
10
10
10
10
10
10
10
10
10
10
10
10
10
10
10
10
10
10
10
10
10
10
10
10
10
10
10
10
10
10
10
10
10
10
10
10
10
10
10
10
10
10
10
10
10
10
10
10
10
10
10
10
10
10
10
10
10
10
10
10
10
10
10
10
10
10
10
10
10
10
10
10
10
10
10
10
10
10
10
10
10
10
10
10
10
10
10
10
10
10
10
10
10
10
10
10
10
10
10
10
10
10
10
10
10
10
10
10
10
10
10
10
10
10
10
10
10
10
10
10
10
10
10
10
10
10
10
10
10
10
10
10
10
10
10
10
10
10
10
10
10
10
10
10
10
10
10
10
10
10
10
10
10
10
10
10
10
10
10
10
10
10
10
10
10
10
10
10
10
10
10
10
10
10
10
10
10
10
10
10
10
10
10
10
10
10
10
10
10
10
10
10
10
10
10
10
10
10
10
10
10
10
10
10
10
10
10
10
10
10
10
10
10
10
10
10
10
10
10
10
10
10
10
10
10
10
10
10
10
10
10
10
10
10
10
10
10
10
10
10
10
10
10
10
10
10
10
10
10
10
10
10
10
10
10
10
10
10
10
10
10
10
10
10
10
10
10
10
10
10
10
10
10
10
10
10
10
10
10
10
10
10
10
10
10
10
10
10
10
10
10
10
10
10
10
10
10
10
10
10
10
10
10
10
10
10
10
10
10
10
10
10
10
10
10
10
10
10
10
10
10
10
10
10
10
10
10
10
10
10
10
10
10
10
10
10
10
10
10
10
10
10
10
10
10
10
10
10
10
10
10
10
10
10
10
10
10
10
10
10
10
10
10
10
10
10
10
10
10
10
10
10
10
10
10
10
10
10
10
10
10
10
10
10
10
10
10
10
10
10
10
10
10
10
10
10
10
10
10
10
10
10
10
10
10
10
10
10
10
10
10
10
10
10
10
10
10
10
10
10
10
10
10
10
10
10
10
10
10
10
10
10
10
10
10
10
10
10
10
10
10
10
10
10
10
10
10
10
10
10
10
10
10
10
10
10
10
10
10
10
10
10
10
10
10
10
10
10
10
10
10
10
10
10
10
10
10
10
10
10
10
10
10
10
10
10
10
10
10
10
10
10
10
10
10
10
10
10
10
10
10
10
10
10
10
10
10
10
10
10
10
10
10
10
10
10
10
10
10
10
10
10
10
10
10
10
10
10
10
10
10
10
10
10
10
10
10
10
10
10
10
10
10
10
10
10
10
10
10
10
10
10
10
10
10
10
10
10
10
10
10
10
10
10
10
10
10
10
10
10
10
10
10
10
10
10
10
10
10
10
10
10
10
10
10
10
10
10
10
10
10
10
10
10
10
10
10
10
10
10
10
10
10
10
10
10
10
10
10
10
10
10
10
10
10
10
10
10
10
10
10
10
10
10
10
10
10
10
10
10
10
10
10
10
10
10
10
10
10
10
10
10
10
10
10
10
10
10
10
10
10
10
10
10
10
10
10
10
10
10
10
10
10
10
10
10
10
10
10
10
10
10
10
10
10
10
10
10
10
10
10
10
10
10
10
10
10
10
10
10
10
10
10
10
10
10
10
10
10
10
10
10
10
10
10
10
10
10
10
10
10
10
10
10
10
10
10
10
10
10
10
10
10
10
10
10
10
10
10
10
10
10
10
10
10
10
10
10
10
10
10
10
10
10
10
10
10
10
10
10
10
10
10
10
10
10
10
10
10
10
10
10
10
10
10
10
10
10
10
10
10
10
10
10
10
10
10
10
10
10
10
10
10
10
10
10
10
10
10
10
10
10
10
10
10
10
10
10
10
10
10
10
10
10
10
10
10
10
10
10
10
10
10
10
10
10
10
10
10
10
10
10
10
10
10
10
10
10
10
10
10
10
10
10
10
10
10
10
10
10
10
10
10
10
10
10
10
10
10
10
10
10
10
10
10
10
10
10
10
10
10
10
10
10
10
10
10
10
10
10
10
10
10
10
10
10
10
10
10
10
10
10
10
10
10
10
10
10
10
10
10
10
10
10
10
10
10
10
10
10
10
10
10
10
10
10
10
10
10
10
10
10
10
10
10
10
10
10
10
10
10
10
10
10
10
10
10
10
10
10
10
10
10
10
10
10
10
10
10
10
10
10
10
10
10
10
10
10
10
10
10
10
10
10
10
10
10
10
10
10
10
10
10
10
10
10
10
10
10
10
10
10
10
10
10
10
10
10
10
10
10
10
10
10
10
10
10
10
10
10
10
10
10
10
10
10
10
10
10
10
10
10
10
10
10
10
10
10
10
10
10
10
10
10
10
10
10
10
10
10
10
10
10
10
10
10
10
10
10
10
10
10
10
10
10
10
10
10
10
10
10
10
10
10
10
10
10
10
10
10
10
10
10
10
10
10
10
10
10
10
10
10
10
10
10
10
10
10
10
10
10
10
10
10
10
10
10
10
10
10
10
10
10
10
10
10
10
10
10
10
10
10
10
10
10
10
10
10
10
10
10
10
10
10
10
10
10
10
10
10
10
10
10
10
10
10
10
10
10
10
10
10
10
10
10
10
10
10
10
10
10
10
10
10
10
10
10
10
10
10
10
10
10
10
10
10
10
10
10
10
10
10
10
10
10
10
10
10
10
10
10
10
10
10
10
10
10
10
10
10
10
10
10
10
10
10
10
10
10
10
10
10
10
10
10
10
10
10
10
10
10
10
10
10
10
10
10
10
10
10
10
10
10
10
10
10
10
10
10
10
10
10
10
10
10
10
10
10
10
10
10
10
10
10
10
10
10
10
10
10
10
10
10
10
10
10
10
10
10
10
10
10
10
10
10
10
10
10
10
10
10
10
10
10
10
10
10
10
10
10
10
10
10
10
10
10
10
10
10
10
10
10
10
10
10
10
10
10
10
10
10
10
10
10
10
10
10
10
10
10
10
10
10
10
10
10
10
10
10
10
10
10
10
10
10
10
10
10
10
10
10
10
10
10
10
10
10
10
10
10
10
10
10
10
10
10
10
10
10
10
10
10
10
10
10
10
10
10
10
10
10
10
10
10
10
10
10
10
10
10
10
10
10
10
10
10
10
10
10
10
10
10
10
10
10
10
10
10
10
10
10
10
10
10
10
10
10
10
10
10
10
10
10
10
10
10
10
10
10
10
10
10
10
10
10
10
10
10
10
10
10
10
10
10
10
10
10
10
10
10
10
10
10
10
10
10
10
10
10
10
10
10
10
10
10
10
10
10
10
10
10
10
10
10
10
10
10
10
10
10
10
10
10
10
10
10
10
10
10
10
10
10
10
10
10
10
10
10
10
10
10
10
10
10
10
10
10
10
10
10
10
10
10
10
10
10
10
10
10
10
10
10
10
10
10
10
10
10
10
10
10
10
10
10
10
10
10
10
10
10
10
10
10
10
10
10
10
10
