# vtk DataFile Version 2.0
, Created by Gmsh 4.11.1 
ASCII
DATASET UNSTRUCTURED_GRID
POINTS 554 double
8.75 0 -44.44368166293084
14.63413920204384 0 -41.7933282335656
14.63413920204384 0 -38.2066717664344
8.75 0 -35.55631833706917
8.75 0 -3
11.75 0 -3
11.75 0 0
-11.75 0 0
-11.75 0 -3
-8.75 0 -3
-8.75 1.071565949253934e-15 -35.55631833706917
-14.63413920204384 1.792165173205979e-15 -38.2066717664344
-14.63413920204384 1.792165173205979e-15 -41.7933282335656
-8.75 1.071565949253934e-15 -44.44368166293084
-8.75 1.071565949253934e-15 -75.55631833706917
-14.63413920204384 1.792165173205979e-15 -78.2066717664344
-14.63413920204384 1.792165173205979e-15 -81.7933282335656
-8.75 1.071565949253934e-15 -84.44368166293083
-8.75 0 -120
8.75 0 -120
8.75 0 -84.44368166293083
14.63413920204384 0 -81.7933282335656
14.63413920204384 0 -78.2066717664344
8.75 0 -75.55631833706917
-8.75 11.12466380259987 -42.00983393151508
8.75 11.12466380259987 -42.00983393151508
8.75 11.12466380259987 -37.99016606848492
-8.75 11.12466380259987 -37.99016606848492
8.75 20 -3
8.75 20 -34.34265540760985
11.75 23 -3
-11.75 23 -3
-8.75 20 -3
11.75 23 0
-11.75 23 0
-8.75 20 -34.34265540760985
-8.75 20 -45.65734459239015
-8.75 20 -74.34265540760984
-8.75 11.12466380259987 -77.99016606848492
8.75 11.12466380259987 -77.99016606848492
-8.75 11.12466380259985 -82.00983393151508
8.75 11.12466380259985 -82.00983393151508
-8.75 20 -85.65734459239016
-8.75 20 -114.3426554076098
-8.75 6.234218372384402 -120
8.75 6.234218372384402 -120
8.75 20 -85.65734459239016
8.75 20 -114.3426554076098
8.75 20 -45.65734459239015
8.75 20 -74.34265540760984
4.864346416002195 2.253424963806612 -84.44368166293083
-4.864346416002195 2.253424963806613 -84.44368166293083
11.01699224124254 2.253424963806612 -81.7933282335656
-11.01699224124254 2.253424963806615 -81.7933282335656
11.01699224124254 2.253424963806612 -78.2066717664344
4.864346416002195 2.253424963806612 -75.55631833706917
-4.864346416002195 2.253424963806613 -75.55631833706917
-11.01699224124254 2.253424963806615 -78.2066717664344
4.864346416002195 2.253424963806612 -44.44368166293084
-4.864346416002195 2.253424963806613 -44.44368166293084
11.01699224124254 2.253424963806612 -41.7933282335656
-11.01699224124254 2.253424963806615 -41.7933282335656
11.01699224124254 2.253424963806612 -38.2066717664344
4.864346416002195 2.253424963806612 -35.55631833706916
-4.864346416002195 2.253424963806613 -35.55631833706916
-11.01699224124254 2.253424963806615 -38.2066717664344
8.75 0 -29.04505466965534
8.75 0 -22.5337910022415
8.75 0 -16.02252733482767
8.75 0 -9.511263667413829
5.875000000000016 0 0
3.730349362740526e-14 0 0
-5.874999999999972 0 0
-8.75 0 -9.511263667413836
-8.75 0 -16.02252733482767
-8.75 0 -22.5337910022415
-8.75 0 -29.04505466965534
-8.75 0 -50.66620899775851
-8.75 0 -56.88873633258619
-8.75 0 -63.11126366741384
-8.75 0 -69.33379100224148
-8.75 0 -90.36973471910902
-8.75 0 -96.29578777528721
-8.75 0 -102.2218408314654
-8.75 0 -108.1478938876436
-8.75 0 -114.0739469438218
2.916666666666666 0 -120
-2.916666666666668 0 -120
8.75 0 -90.36973471910902
8.75 0 -96.29578777528721
8.75 0 -102.2218408314654
8.75 0 -108.1478938876436
8.75 0 -114.0739469438218
8.75 0 -50.66620899775851
8.75 0 -56.88873633258619
8.75 0 -63.11126366741384
8.75 0 -69.33379100224148
13.18490382959186 6.349515035749612 -41.7933282335656
9.124236551455466 11.44143074697743 -41.7933282335656
3.256402322885565 14.26723077882677 -41.7933282335656
-3.256402322885436 14.2672307788268 -41.7933282335656
-9.12423655145539 11.44143074697749 -41.7933282335656
-13.18490382959184 6.349515035749652 -41.7933282335656
-8.749999999999998 5.657984722947316 -43.69149870937809
2.98092766335391 12.5254998596817 -42.58553769514725
-2.980927663353948 12.5254998596817 -42.58553769514725
8.750000000000002 5.657984722947311 -43.69149870937809
13.18490382959186 6.349515035749612 -38.2066717664344
9.124236551455466 11.44143074697743 -38.2066717664344
3.256402322885565 14.26723077882677 -38.2066717664344
-3.256402322885436 14.2672307788268 -38.2066717664344
-9.12423655145539 11.44143074697749 -38.2066717664344
-13.18490382959184 6.349515035749652 -38.2066717664344
8.750000000000002 5.657984722947321 -36.30850129062192
-2.98092766335391 12.5254998596817 -37.41446230485275
2.980927663353948 12.5254998596817 -37.41446230485275
-8.749999999999998 5.65798472294732 -36.30850129062191
8.75 6.666666666666651 -3
8.75 13.33333333333329 -3
8.75 20 -28.07412432608788
8.75 20 -21.80559324456591
8.75 20 -15.53706216304395
8.75 20 -9.268531081521978
8.75 15.56233190129994 -36.16641073804738
-5.875000000000016 23 -3
-3.730349362740526e-14 23 -3
5.874999999999972 23 -3
-11.75 5.749999999999988 -3
-11.75 11.49999999999999 -3
-11.75 17.24999999999999 -3
-8.75 13.33333333333335 -3
-8.75 6.666666666666705 -3
-2.916666666666666 20 -3
2.916666666666668 20 -3
11.75 5.749999999999988 -3
11.75 11.49999999999999 -3
11.75 17.24999999999999 -3
11.75 5.749999999999988 0
11.75 11.49999999999999 0
11.75 17.24999999999999 0
-5.875000000000016 23 0
-3.730349362740526e-14 23 0
5.874999999999972 23 0
-11.75 5.749999999999988 0
-11.75 11.49999999999999 0
-11.75 17.24999999999999 0
-8.75 20 -9.268531081521967
-8.75 20 -15.53706216304393
-8.75 20 -21.8055932445659
-8.75 20 -28.07412432608787
-8.75 15.56233190129994 -36.16641073804738
-8.75 15.56233190129993 -43.83358926195261
-8.75 20 -68.60559324456591
-8.75 20 -62.86853108152197
-8.75 20 -57.13146891847803
-8.75 20 -51.39440675543408
-8.75 15.56233190129994 -76.16641073804739
-8.749999999999998 5.657984722947323 -76.30850129062192
8.750000000000002 5.657984722947321 -76.30850129062192
-2.980927663353934 12.5254998596817 -77.41446230485275
2.980927663353946 12.5254998596817 -77.41446230485275
13.18490382959186 6.349515035749612 -78.2066717664344
9.124236551455466 11.44143074697743 -78.2066717664344
3.256402322885565 14.26723077882677 -78.2066717664344
-3.256402322885436 14.2672307788268 -78.2066717664344
-9.12423655145539 11.44143074697749 -78.2066717664344
-13.18490382959184 6.349515035749652 -78.2066717664344
13.18490382959186 6.349515035749612 -81.7933282335656
9.124236551455466 11.44143074697743 -81.7933282335656
3.256402322885565 14.26723077882677 -81.7933282335656
-3.256402322885436 14.2672307788268 -81.7933282335656
-9.12423655145539 11.44143074697749 -81.7933282335656
-13.18490382959184 6.349515035749652 -81.7933282335656
-8.749999999999998 5.657984722947304 -83.69149870937808
2.980927663353934 12.5254998596817 -82.58553769514724
-2.980927663353946 12.5254998596817 -82.58553769514724
8.750000000000002 5.657984722947303 -83.69149870937808
-8.75 15.56233190129992 -83.83358926195261
-8.75 20 -108.6055932445659
-8.75 20 -102.868531081522
-8.75 20 -97.13146891847802
-8.75 20 -91.39440675543409
-8.75 10.82281224825626 -118.1142184692033
-8.75 15.41140612412813 -116.2284369384066
2.916666666666666 6.234218372384402 -120
-2.916666666666668 6.234218372384402 -120
8.75 15.56233190129992 -83.83358926195261
8.75 20 -108.6055932445659
8.75 20 -102.868531081522
8.75 20 -97.13146891847802
8.75 20 -91.39440675543409
8.75 10.82281224825626 -118.1142184692033
8.75 15.41140612412813 -116.2284369384066
8.75 15.56233190129993 -43.83358926195261
8.75 20 -68.60559324456591
8.75 20 -62.86853108152197
8.75 20 -57.13146891847803
8.75 20 -51.39440675543408
8.75 15.56233190129994 -76.16641073804739
2.916666666666666 20 -45.65734459239015
-2.916666666666668 20 -45.65734459239015
2.916666666666666 20 -34.34265540760985
-2.916666666666668 20 -34.34265540760985
2.916666666666666 20 -74.34265540760984
-2.916666666666668 20 -74.34265540760984
2.916666666666666 20 -85.65734459239016
-2.916666666666668 20 -85.65734459239016
2.916666666666666 20 -114.3426554076098
-2.916666666666668 20 -114.3426554076098
1.983466417582206 4.980527190238383 -84.44368166293083
-1.983466417582203 4.980527190238385 -84.44368166293083
-7.105427357601002e-15 2.253424963806612 -84.44368166293083
7.948623815507634 2.253424963806612 -83.1370385784779
8.232709158352996 7.659930941273284 -81.7933282335656
3.040663544773079 10.82619080372192 -81.7933282335656
-3.040663544773061 10.82619080372193 -81.7933282335656
-8.232709158352982 7.659930941273299 -81.7933282335656
-7.948623815507633 2.253424963806612 -83.1370385784779
7.948623815507633 2.253424963806612 -76.8629614215221
-6.217248937900877e-15 2.253424963806612 -75.55631833706917
-7.948623815507634 2.253424963806612 -76.8629614215221
8.232709158352996 7.659930941273284 -78.2066717664344
3.040663544773079 10.82619080372192 -78.2066717664344
-3.040663544773061 10.82619080372193 -78.2066717664344
-8.232709158352982 7.659930941273299 -78.2066717664344
1.983466417582206 4.980527190238383 -75.55631833706916
-1.983466417582203 4.980527190238385 -75.55631833706916
1.983466417582206 4.980527190238383 -44.44368166293084
-1.983466417582203 4.980527190238385 -44.44368166293084
-7.105427357601002e-15 2.253424963806612 -44.44368166293084
7.948623815507634 2.253424963806612 -43.13703857847791
8.232709158352996 7.659930941273284 -41.7933282335656
3.040663544773079 10.82619080372192 -41.7933282335656
-3.040663544773061 10.82619080372193 -41.7933282335656
-8.232709158352982 7.659930941273299 -41.7933282335656
-7.948623815507633 2.253424963806612 -43.13703857847791
7.948623815507633 2.253424963806612 -36.86296142152209
-6.217248937900877e-15 2.253424963806612 -35.55631833706916
-7.948623815507634 2.253424963806612 -36.86296142152209
8.232709158352996 7.659930941273284 -38.2066717664344
3.040663544773079 10.82619080372192 -38.2066717664344
-3.040663544773061 10.82619080372193 -38.2066717664344
-8.232709158352982 7.659930941273299 -38.2066717664344
1.983466417582206 4.980527190238383 -35.55631833706917
-1.983466417582203 4.980527190238385 -35.55631833706917
8.881784197001252e-16 0 -115.6104382938884
-3.617887509175302 0 -105.1848673595545
2.990819197496162 0 -87.05712679544304
-4.264060492613717 0 -66.06346645436186
-3.361133252296168 0 -53.77747266517235
-2.815939234708888 0 -4.113226296535544
-4.075755292910656 0 -32.33188350870674
3.111080253280991 0 -19.27815916853458
3.617887509175288 0 -99.25881430337631
-3.203595609891711 0 -94.18820493984205
3.361133252296181 0 -60.00000000000001
3.074143552860523 0 -73.4361392581412
3.51151484182428 0 -46.94106187472033
-3.111080253280993 0 -12.76689550112075
-3.702991545932593 0 -38.33761604438374
4.414063257240286 0 -80.2460093699313
3.716814501509844 0 -5.665643875011071
10.23646833226559 0 -80.04920187398626
-10.56500775861532 0 -80
10.17523180221131 0 -40.06996099077841
-10.09425399000406 0 -39.66752320887675
-1.981340647323145 0 -76.77652357647403
4.365527507053875 0 -40.1471803939957
-2.266668824515409 0 -83.31847450720669
-3.111024503524281 0 -25.78942283594842
2.034578467501065 0 -32.42812837510107
-2.361060149888568 0 -48.83113920174659
-3.361133252296178 0 -60.00000000000001
1.784254371025464 0 -66.22777294992638
3.108409115322621 0 -52.85076984533066
-3.489071797956645 0 -19.27815916853459
3.526334031044738 0 -11.97677415376115
3.906926843451555 0 -25.81491121029618
2.450224236379126 0 -105.1848673595545
3.00510482244708 0 -92.83746162849808
-3.206702547087303 0 -100.0661353449027
-3.370648746155962 0 -110.910984979581
3.661914113893694 0 -111.4660398724024
-3.147833869341814 0 -71.23233526303568
-6.056760388988903 0 -80
-0.1778757411556926 0 -43.38093734472517
-0.7489115760274663 0 -8.287211773064776
4.579097182299771 0 -115.8530710996502
-4.563933429293848 0 -115.8241740310943
-5.293958565223661 0 -7.169980129364106
-3.262229271315701 0 -88.69214302623234
-11.02543825770382 3.038864097391988 -43.23359086881675
11.02543825770383 3.038864097391969 -43.23359086881675
-14.26723077882678 3.256402322885524 -40.02863945122076
-11.44143074697742 9.124236551455478 -40.02863945122076
-6.349515035749562 13.18490382959188 -40.02863945122076
14.26723077882678 3.256402322885505 -40.02863945122076
6.588471573731775e-14 14.63413920204384 -40.02863945122076
11.44143074697746 9.124236551455425 -40.02863945122076
6.349515035749663 13.18490382959183 -40.02863945122076
-11.02543825770382 3.038864097391987 -36.76640913118325
11.64455293218814 2.576920116099009 -36.98698841377588
8.750000000000002 14.81383198092049 -18.87360485871481
8.750000000000002 10.6388073684049 -33.5112012037636
8.750000000000002 5.05430363060029 -12.7992453631981
8.750000000000002 5.12681637960565 -25.43025420038495
8.750000000000002 5.173206382128003 -19.239252171691
8.750000000000002 15.20342605358744 -25.13982579983243
8.750000000000002 14.79740274374536 -12.48967196402628
8.750000000000002 9.995160453361386 -8.482758107945775
8.750000000000002 15.55450879979111 -31.04309744224196
8.750000000000002 5.056136345190814 -31.15293867852585
8.750000000000002 9.944961240381993 -15.73638724463624
8.750000000000002 10.10522610358126 -22.09329431280889
8.750000000000002 4.468692416054197 -7.467392493726431
8.750000000000002 10.28082017502686 -28.06176860625961
8.750000000000002 15.36843357693748 -7.514953799669611
10.25 3.10416666666666 -3
-10.25 3.104166666666674 -3
11.75 20.125 -1.5
11.75 8.624999999999988 -1.5
11.75 14.37499999999999 -1.5
11.75 2.874999999999994 -1.5
3.157610638484556 18.22886740495932 0
-2.707174061168084 4.878797530676509 0
7.069955745470663 8.71654637064 0
-6.619519168154191 14.39111856499582 0
7.102873022115112 14.37499999999999 0
0.1126091443291184 11.52691623390895 0
-7.000954855602266 8.644857627020135 0
-2.792058517349995 18.15992185565015 0
2.948495529093417 4.721447277005962 0
-7.528051718759411 18.81262893003678 0
7.528051718759418 4.187371069963204 0
7.820492259183634 19.07601590637069 0
-7.553981076842906 4.160878030182233 0
-11.75 20.125 -1.5
-11.75 14.37499999999999 -1.5
-11.75 8.624999999999988 -1.5
-11.75 2.874999999999994 -1.5
-8.749999999999998 14.81383198092048 -18.87360485871481
-8.749999999999998 10.6388073684049 -33.51120120376359
-8.749999999999998 5.054303630600299 -12.7992453631981
-8.749999999999998 5.126816379605648 -25.43025420038495
-8.749999999999998 5.173206382128001 -19.239252171691
-8.749999999999998 15.20342605358744 -25.13982579983243
-8.749999999999998 14.79740274374537 -12.48967196402627
-8.749999999999998 9.995160453361427 -8.482758107945754
-8.749999999999998 15.55450879979111 -31.04309744224195
-8.749999999999998 5.056136345190817 -31.15293867852585
-8.749999999999998 9.944961240382 -15.73638724463624
-8.749999999999998 10.10522610358126 -22.09329431280889
-8.749999999999998 4.468692416054215 -7.467392493726427
-8.749999999999998 10.28082017502686 -28.06176860625961
-8.749999999999998 15.36843357693749 -7.514953799669614
-8.749999999999998 15.19560557396296 -60.00000000000001
-8.749999999999998 10.5730731468981 -73.58806612858582
-8.749999999999998 9.644703019046379 -48.32133946094902
-8.749999999999998 5.388866747703813 -66.22252733482766
-8.749999999999998 5.106820788403239 -53.63619167551862
-8.749999999999998 5.294023142013341 -59.99141879314544
-8.749999999999998 14.84862929742589 -49.335190771976
-8.749999999999998 15.27243786553074 -65.72696020365422
-8.749999999999998 15.53566726334097 -71.22259916754878
-8.749999999999998 10.86023489360107 -55.522620315137
-8.749999999999998 16.18089395299798 -54.67673735220502
-8.749999999999998 4.869659095142138 -71.35591758949101
-8.749999999999998 4.394553315659691 -48.42669207816701
-8.749999999999998 10.35947818130557 -62.62762925818333
-8.749999999999998 10.14570086502151 -68.30224890233568
-11.02543825770382 3.038864097391988 -76.76640913118325
11.64455293218813 2.576920116099006 -76.98698841377589
-14.26723077882678 3.256402322885524 -80.02863945122076
-11.44143074697742 9.124236551455478 -79.97136054877923
-6.349515035749562 13.18490382959188 -79.97136054877924
14.27123006682956 3.238830431562677 -80
6.588471573731775e-14 14.63413920204384 -80.02863945122077
11.45265813887225 9.110140050455843 -80
6.34951503574966 13.18490382959183 -79.97136054877923
-11.02543825770383 3.038864097391969 -83.23359086881675
11.02543825770382 3.038864097391967 -83.23359086881675
-8.749999999999998 11.2148574610396 -113.2597388310778
-8.749999999999998 14.98496622138438 -99.8235272150896
-8.749999999999998 10.83590005996532 -86.43662079966967
-8.749999999999998 5.016360241931913 -105.142311496893
-8.749999999999998 5.132112490824724 -93.33276124719811
-8.749999999999998 5.17201002181626 -111.4400074490566
-8.749999999999998 5.092660916094477 -99.25696803000663
-8.749999999999998 15.1255783356461 -94.07962957936456
-8.749999999999998 15.03155842371345 -105.7370621630439
-8.749999999999998 15.2029442690973 -88.78471702113291
-8.749999999999998 16.13931712348897 -111.4741243260879
-8.749999999999998 7.312201457937745 -115.9818905358538
-8.749999999999998 9.887736234350678 -102.2218408314654
-8.749999999999998 9.946429121693614 -96.56325341688095
-8.749999999999998 4.877820284243432 -88.36193902217853
-8.749999999999998 10.27770477044764 -108.1210983340052
-8.749999999999998 3.345453495315919 -116.8052842330711
-8.749999999999998 9.693855317672471 -91.30671113798634
-5.52964042759961 3.117109186192199 -120
5.529640427599611 3.1171091861922 -120
0 3.1171091861922 -120
8.750000000000002 11.2148574610396 -113.2597388310778
8.750000000000002 15.18613169450723 -99.75293810112544
8.750000000000002 9.596937028877132 -88.13759141867649
8.750000000000002 5.016360241931913 -105.142311496893
8.750000000000002 5.132112490824724 -93.33276124719811
8.750000000000002 14.84862929742588 -89.335190771976
8.750000000000002 5.17201002181626 -111.4400074490566
8.750000000000002 5.061272880341683 -99.25172165959938
8.750000000000002 15.03155842371345 -105.7370621630439
8.750000000000002 16.13931712348897 -111.4741243260879
8.750000000000002 10.79698383148054 -95.18499740957098
8.750000000000002 7.312201457937745 -115.9818905358538
8.750000000000002 16.16634896468273 -94.55980039131691
8.750000000000002 10.17308455126103 -102.1602649236513
8.750000000000002 4.2948771294619 -88.22497584466825
8.750000000000002 10.31167480817506 -108.1137678687893
8.750000000000002 3.345453495315919 -116.8052842330711
8.750000000000002 15.19560557396296 -60.00000000000001
8.750000000000002 10.5730731468981 -73.58806612858582
8.750000000000002 9.644703019046377 -48.32133946094902
8.750000000000002 5.388866747703813 -66.22252733482766
8.750000000000002 5.106820788403239 -53.63619167551862
8.750000000000002 5.294023142013341 -59.99141879314544
8.750000000000002 14.84862929742588 -49.335190771976
8.750000000000002 15.27243786553074 -65.72696020365422
8.750000000000002 15.53566726334097 -71.22259916754878
8.750000000000002 10.86023489360107 -55.522620315137
8.750000000000002 16.18089395299798 -54.67673735220502
8.750000000000002 4.86965909514214 -71.35591758949101
8.750000000000002 4.394553315659689 -48.42669207816701
8.750000000000002 10.35947818130557 -62.62762925818333
8.750000000000002 10.14570086502151 -68.30224890233568
-7.105427357601002e-15 16.26653637414 -44.12299726464579
4.626288365186041 16.7003695229426 -44.30129034561799
-4.626288365186049 16.7003695229426 -44.30129034561799
8.881784197001252e-15 16.26653637414001 -35.8770027353542
-4.626288365186044 16.70036952294262 -35.69870965438201
4.626288365186054 16.70036952294262 -35.69870965438201
-1.77635683940025e-15 20 -29.4153563329005
0 20 -7.927299074709346
3.321292838989635 20 -18.67132770380493
-3.321292838989636 20 -18.67132770380492
3.215004324555096 20 -12.61973514033851
-3.215004324555096 20 -24.72292026727134
-3.694662288978024 20 -11.8902639396589
3.694662288978023 20 -25.45239146795095
-4.561685219433603 20 -30.02502693307511
4.561685219433604 20 -7.317628474534734
-4.822265791128938 20 -7.017218819178042
4.82226579112894 20 -30.32543658843181
8.812499999999986 23 -1.5
2.937499999999966 23 -1.5
-8.812500000000007 23 -1.5
-2.937500000000027 23 -1.499999999999999
-3.781558423713449 20 -60
0 20 -49.91119431042303
0 20 -70.08880568957696
3.78155842371345 20 -59.99999999999999
2.563376284092092 20 -65.35524166811227
3.620865402059684 20 -53.75221805386902
-2.635184326462507 20 -54.57179836287528
-3.880889637819767 20 -66.18414519697571
4.596008590151752 20 -70.54699028349496
-4.567155687297253 20 -70.18669949807712
-4.610370198625837 20 -49.43841772270254
4.567155687297253 20 -49.81330050192287
3.552713678800501e-15 16.26653637414 -75.87700273535421
-4.626288365186046 16.70036952294261 -75.69870965438201
4.626288365186047 16.70036952294261 -75.69870965438201
0 16.26653637414 -84.1229972646458
4.626288365186047 16.7003695229426 -84.30129034561799
-4.626288365186049 16.7003695229426 -84.30129034561799
-3.781558423713449 20 -100
0 20 -89.91119431042303
0 20 -110.088805689577
3.78155842371345 20 -100
2.563376284092092 20 -105.3552416681123
3.620865402059684 20 -93.75221805386902
-2.635184326462507 20 -94.57179836287528
-3.880889637819767 20 -106.1841451969757
4.596008590151752 20 -110.546990283495
-4.567155687297253 20 -110.1866994980771
4.567155687297253 20 -89.81330050192287
-4.610370198625837 20 -89.43841772270254
-4.861111111111111 13.1171091861922 -117.1713277038049
4.861111111111111 13.1171091861922 -117.1713277038049
0 16.00361474920799 -115.9850560426977
1.77635683940025e-15 10.25190006957169 -118.3488471313587
-5.055555555555557 16.90642601190567 -115.6140263000258
-5.055555555555555 9.332051649757791 -118.7268786608734
5.055555555555555 16.90642601190567 -115.6140263000258
5.055555555555555 9.332051649757791 -118.7268786608734
-4.587474677419566 6.16213025805997 -83.39811988681618
4.695504985705252 6.698573316311767 -83.17374394943717
-0.3025279055715125 7.928256456919944 -83.28470834275274
-5.059418762695284 2.253424963806612 -80.91884686666444
5.818944410086353 2.253424963806612 -80
-8.598130175239126 2.253424963806612 -80.18376937333289
8.75003530471734 2.253424963806612 -80
0.8844794771206477 2.253424963806612 -80
-2.259821425394211 2.253424963806612 -78.0078708852007
-9.99726601199014 5.148467189039073 -80.03592185694558
9.997266011990142 5.148467189039068 -80.03592185694558
8.179297646627145e-15 11.24508968888666 -80.03592185694558
5.85478722115803 9.600703552660594 -80.03592185694558
-5.854787221158008 9.600703552660606 -80.03592185694558
-4.58747467741869 6.162130258059443 -76.6018801131834
4.695504985705541 6.698573316311488 -76.82625605056279
-0.30252790557089 7.928256456919707 -76.71529165724715
-4.587474677419566 6.16213025805997 -43.39811988681619
4.695504985705257 6.698573316311763 -43.17374394943718
-0.302527905571509 7.928256456919945 -43.28470834275274
-5.059418762695284 2.253424963806612 -40.91884686666444
5.818944410086353 2.253424963806612 -40.00000000000001
-8.598130175239126 2.253424963806612 -40.18376937333289
8.75003530471734 2.253424963806612 -40.00000000000001
0.8844794771206477 2.253424963806612 -40
-2.259821425394211 2.253424963806612 -38.0078708852007
-9.997266011990137 5.148467189039077 -40.03592185694558
9.997266011990142 5.148467189039068 -40.03592185694558
1.067620914394252e-14 11.24508968888666 -40.03592185694558
5.85478722115803 9.600703552660594 -40.03592185694558
-5.855784739179314 9.600095166168915 -40
-4.587474677418694 6.162130258059444 -36.60188011318339
4.695504985705527 6.698573316311498 -36.8262560505628
-0.3025279055708971 7.928256456919708 -36.71529165724715
2.886579864025407e-15 9.021995681704595 -27.94760185163892
3.108624468950438e-15 9.017566633731345 -67.95886667897109
-1.77635683940025e-15 9.008683496336642 -92.01853997601981
3.552713678800501e-15 9.224942921968506 -52.56857355059145
-0.001832205864374714 11.32336537334298 -108.5103884851844
0 11.03562504731025 -12.1169469827565
-0.7499183417076996 11.96102173167972 -100.012447603342
1.052904473504027 8.144773608646933 -19.79262850432153
-2.310979402843199 6.419369020062208 -113.2307636554745
-1.036261363181515 12.18972185122815 -60.23193729696733
-2.292994940187356 14.19716966498504 -49.55593137723266
1.044567706835594e-15 4.338279992868696 -70.60265900104318
-2.081792768471201 6.813515886705055 -6.802300712961735
2.313398845180475 14.27550408352738 -30.42195382377168
-2.290814651087339 14.23013255671014 -89.53466987623581
-2.104212395387858 13.97367031629065 -5.845971353511831
2.322045445899549 14.20867709883564 -70.48370555889932
2.836096796997566 9.509754603771281 -47.69895891007432
-2.17327291249556 6.601877302308067 -104.0414375246472
3.526846025292738 8.109913269317833 -112.9669145198759
-2.587440100336888 13.02880841083287 -22.98988483051727
-3.194602580130591 9.145953790323231 -47.73432155784515
8.881784197001252e-16 4.338279992868721 -89.38400686525478
-3.187139857754434 9.125144192157574 -32.30778181351485
-3.186207959422878 9.122545619031666 -72.31303942053137
-3.184339186248883 9.117334595912784 -87.67641728883015

CELLS 3050 13452
1 0
1 1
1 2
1 3
1 4
1 5
1 6
1 7
1 8
1 9
1 10
1 11
1 12
1 13
1 14
1 15
1 16
1 17
1 18
1 19
1 20
1 21
1 22
1 23
1 24
1 25
1 26
1 27
1 28
1 29
1 30
1 31
1 32
1 33
1 34
1 35
1 36
1 37
1 38
1 39
1 40
1 41
1 42
1 43
1 44
1 45
1 46
1 47
1 48
1 49
1 50
1 51
1 52
1 53
1 54
1 55
1 56
1 57
1 58
1 59
1 60
1 61
1 62
1 63
1 64
1 65
2 0 1
2 1 2
2 2 3
2 3 66
2 66 67
2 67 68
2 68 69
2 69 4
2 4 5
2 5 6
2 6 70
2 70 71
2 71 72
2 72 7
2 8 7
2 8 9
2 9 73
2 73 74
2 74 75
2 75 76
2 76 10
2 11 10
2 12 11
2 13 12
2 13 77
2 77 78
2 78 79
2 79 80
2 80 14
2 15 14
2 16 15
2 17 16
2 17 81
2 81 82
2 82 83
2 83 84
2 84 85
2 85 18
2 19 86
2 86 87
2 87 18
2 20 88
2 88 89
2 89 90
2 90 91
2 91 92
2 92 19
2 20 21
2 21 22
2 22 23
2 0 93
2 93 94
2 94 95
2 95 96
2 96 23
2 1 97
2 97 98
2 98 99
2 99 100
2 100 101
2 101 102
2 102 12
2 24 103
2 103 13
2 25 104
2 104 105
2 105 24
2 25 106
2 106 0
2 2 107
2 107 108
2 108 109
2 109 110
2 110 111
2 111 112
2 112 11
2 3 113
2 113 26
2 27 114
2 114 115
2 115 26
2 10 116
2 116 27
2 4 117
2 117 118
2 118 28
2 29 119
2 119 120
2 120 121
2 121 122
2 122 28
2 26 123
2 123 29
2 31 124
2 124 125
2 125 126
2 126 30
2 8 127
2 127 128
2 128 129
2 129 31
2 32 130
2 130 131
2 131 9
2 32 132
2 132 133
2 133 28
2 5 134
2 134 135
2 135 136
2 136 30
2 6 137
2 137 138
2 138 139
2 139 33
2 30 33
2 34 140
2 140 141
2 141 142
2 142 33
2 7 143
2 143 144
2 144 145
2 145 34
2 31 34
2 32 146
2 146 147
2 147 148
2 148 149
2 149 35
2 27 150
2 150 35
2 36 151
2 151 24
2 37 152
2 152 153
2 153 154
2 154 155
2 155 36
2 38 156
2 156 37
2 14 157
2 157 38
2 23 158
2 158 39
2 38 159
2 159 160
2 160 39
2 22 161
2 161 162
2 162 163
2 163 164
2 164 165
2 165 166
2 166 15
2 21 167
2 167 168
2 168 169
2 169 170
2 170 171
2 171 172
2 172 16
2 40 173
2 173 17
2 41 174
2 174 175
2 175 40
2 41 176
2 176 20
2 42 177
2 177 40
2 43 178
2 178 179
2 179 180
2 180 181
2 181 42
2 44 182
2 182 183
2 183 43
2 18 44
2 45 184
2 184 185
2 185 44
2 19 45
2 46 186
2 186 41
2 47 187
2 187 188
2 188 189
2 189 190
2 190 46
2 45 191
2 191 192
2 192 47
2 48 193
2 193 25
2 49 194
2 194 195
2 195 196
2 196 197
2 197 48
2 39 198
2 198 49
2 48 199
2 199 200
2 200 36
2 29 201
2 201 202
2 202 35
2 49 203
2 203 204
2 204 37
2 46 205
2 205 206
2 206 42
2 47 207
2 207 208
2 208 43
2 50 209
2 209 210
2 210 51
2 51 211
2 211 50
2 50 212
2 212 52
2 52 213
2 213 214
2 214 215
2 215 216
2 216 53
2 53 217
2 217 51
2 52 54
2 54 218
2 218 55
2 55 219
2 219 56
2 56 220
2 220 57
2 53 57
2 54 221
2 221 222
2 222 223
2 223 224
2 224 57
2 55 225
2 225 226
2 226 56
2 58 227
2 227 228
2 228 59
2 59 229
2 229 58
2 58 230
2 230 60
2 60 231
2 231 232
2 232 233
2 233 234
2 234 61
2 61 235
2 235 59
2 60 62
2 62 236
2 236 63
2 63 237
2 237 64
2 64 238
2 238 65
2 61 65
2 62 239
2 239 240
2 240 241
2 241 242
2 242 65
2 63 243
2 243 244
2 244 64
3 1 264 0
3 0 257 93
3 0 267 257
3 264 267 0
3 2 264 1
3 3 264 2
3 66 270 3
3 3 267 264
3 3 270 267
3 6 4 5
3 70 4 6
3 4 261 69
3 70 261 4
3 7 8 9
3 9 72 7
3 9 250 72
3 73 289 9
3 9 289 250
3 11 265 10
3 10 251 76
3 10 259 251
3 10 265 259
3 12 265 11
3 13 265 12
3 77 271 13
3 259 265 13
3 13 285 259
3 271 285 13
3 15 263 14
3 14 283 80
3 263 284 14
3 266 283 14
3 14 284 266
3 16 263 15
3 17 263 16
3 81 290 17
3 17 284 263
3 268 284 17
3 17 290 268
3 18 288 85
3 87 288 18
3 19 287 86
3 92 287 19
3 21 262 20
3 20 247 88
3 20 260 247
3 20 262 260
3 22 262 21
3 23 262 22
3 96 256 23
3 256 260 23
3 260 262 23
3 67 277 66
3 66 277 270
3 68 252 67
3 252 277 67
3 69 276 68
3 68 276 252
3 261 276 69
3 71 261 70
3 72 250 71
3 250 261 71
3 74 258 73
3 258 289 73
3 75 275 74
3 74 275 258
3 76 269 75
3 269 275 75
3 251 269 76
3 78 249 77
3 249 271 77
3 79 272 78
3 78 272 249
3 80 248 79
3 248 272 79
3 80 283 248
3 82 254 81
3 254 290 81
3 83 280 82
3 82 280 254
3 84 246 83
3 246 280 83
3 85 281 84
3 84 281 246
3 85 288 281
3 86 245 87
3 86 287 245
3 245 288 87
3 88 279 89
3 247 279 88
3 89 253 90
3 89 279 253
3 90 278 91
3 253 278 90
3 91 282 92
3 278 282 91
3 282 287 92
3 93 274 94
3 257 274 93
3 94 255 95
3 94 274 255
3 95 273 96
3 255 273 95
3 96 273 256
3 245 282 281
3 281 288 245
3 245 287 282
3 278 280 246
3 246 281 278
3 260 268 247
3 268 290 247
3 247 290 279
3 248 273 272
3 248 283 273
3 249 272 255
3 255 274 249
3 249 274 271
3 250 286 261
3 250 289 286
3 259 270 251
3 251 270 269
3 258 275 252
3 252 276 258
3 252 275 269
3 269 277 252
3 253 279 254
3 254 280 253
3 253 280 278
3 279 290 254
3 272 273 255
3 256 266 260
3 256 283 266
3 273 283 256
3 267 285 257
3 271 274 257
3 257 285 271
3 276 286 258
3 286 289 258
3 267 270 259
3 259 285 267
3 266 268 260
3 261 286 276
3 266 284 268
3 270 277 269
3 281 282 278
3 0 292 1
3 106 292 0
3 1 292 97
3 12 291 13
3 102 291 12
3 13 291 103
3 100 24 101
3 105 24 100
3 24 102 101
3 103 102 24
3 97 25 98
3 25 97 106
3 98 25 99
3 104 99 25
3 97 292 106
3 100 99 104
3 105 100 104
3 103 291 102
3 1 296 2
3 97 296 1
3 2 296 107
3 11 293 12
3 112 293 11
3 12 293 102
3 98 298 97
3 107 296 97
3 97 298 107
3 99 299 98
3 108 298 98
3 98 299 108
3 100 297 99
3 99 297 109
3 109 299 99
3 101 295 100
3 100 295 110
3 110 297 100
3 102 294 101
3 101 294 111
3 111 295 101
3 102 293 112
3 112 294 102
3 107 298 108
3 108 299 109
3 109 297 110
3 110 295 111
3 111 294 112
3 2 301 3
3 107 301 2
3 3 301 113
3 10 300 11
3 116 300 10
3 11 300 112
3 107 108 26
3 107 26 113
3 108 109 26
3 26 109 115
3 110 111 27
3 114 110 27
3 27 111 112
3 27 112 116
3 113 301 107
3 115 109 110
3 115 110 114
3 112 300 116
3 3 311 66
3 113 311 3
3 69 314 4
3 4 314 117
3 26 303 113
3 123 303 26
3 118 316 28
3 28 316 122
3 119 310 29
3 29 310 123
3 66 305 67
3 66 311 305
3 67 306 68
3 305 306 67
3 68 304 69
3 68 306 304
3 304 314 69
3 303 311 113
3 117 309 118
3 117 314 309
3 309 316 118
3 120 307 119
3 307 310 119
3 121 302 120
3 302 307 120
3 122 308 121
3 121 308 302
3 122 316 308
3 123 310 303
3 302 313 307
3 308 312 302
3 312 313 302
3 310 315 303
3 303 315 311
3 306 312 304
3 304 312 309
3 309 314 304
3 305 313 306
3 311 315 305
3 305 315 313
3 306 313 312
3 307 315 310
3 313 315 307
3 309 312 308
3 308 316 309
3 5 4 317
3 4 117 317
3 134 5 317
3 9 8 318
3 8 127 318
3 131 9 318
3 30 28 126
3 136 28 30
3 28 136 118
3 28 133 126
3 31 124 32
3 129 31 32
3 124 132 32
3 129 32 130
3 135 117 118
3 135 134 117
3 117 134 317
3 136 135 118
3 132 124 125
3 126 133 125
3 133 132 125
3 127 128 131
3 127 131 318
3 128 129 130
3 128 130 131
3 5 322 6
3 134 322 5
3 6 322 137
3 33 319 30
3 30 319 136
3 139 319 33
3 135 320 134
3 134 320 137
3 137 322 134
3 136 321 135
3 138 320 135
3 135 321 138
3 136 319 139
3 139 321 136
3 137 320 138
3 138 321 139
3 6 333 70
3 137 333 6
3 72 335 7
3 7 335 143
3 33 334 139
3 142 334 33
3 34 332 140
3 145 332 34
3 70 331 71
3 70 333 331
3 71 324 72
3 71 331 324
3 324 335 72
3 138 325 137
3 325 333 137
3 139 327 138
3 138 327 325
3 139 334 327
3 140 330 141
3 140 332 330
3 141 323 142
3 141 330 323
3 323 334 142
3 143 329 144
3 143 335 329
3 144 326 145
3 144 329 326
3 326 332 145
3 323 328 327
3 327 334 323
3 323 330 328
3 328 329 324
3 324 331 328
3 329 335 324
3 327 328 325
3 328 331 325
3 331 333 325
3 326 329 328
3 328 330 326
3 330 332 326
3 8 7 339
3 7 143 339
3 127 8 339
3 34 31 336
3 31 129 336
3 145 34 336
3 128 127 338
3 127 143 338
3 143 127 339
3 129 128 337
3 128 144 337
3 144 128 338
3 129 145 336
3 145 129 337
3 143 144 338
3 144 145 337
3 73 9 352
3 9 131 352
3 10 76 349
3 116 10 349
3 27 116 341
3 150 27 341
3 130 32 354
3 32 146 354
3 149 35 348
3 35 150 348
3 74 73 342
3 342 73 352
3 75 74 344
3 74 342 344
3 76 75 343
3 343 75 344
3 76 343 349
3 341 116 349
3 131 130 347
3 347 130 354
3 131 347 352
3 146 147 346
3 146 346 354
3 147 148 340
3 147 340 346
3 148 149 345
3 340 148 345
3 345 149 348
3 150 341 348
3 340 345 351
3 346 340 350
3 350 340 351
3 348 341 353
3 341 349 353
3 344 342 350
3 342 347 350
3 347 342 352
3 343 344 351
3 349 343 353
3 343 351 353
3 344 350 351
3 345 348 353
3 351 345 353
3 347 346 350
3 346 347 354
3 77 13 367
3 13 103 367
3 14 80 366
3 157 14 366
3 103 24 357
3 24 151 357
3 151 36 361
3 36 155 361
3 152 37 363
3 37 156 363
3 156 38 356
3 38 157 356
3 78 77 359
3 359 77 367
3 79 78 360
3 78 359 360
3 80 79 358
3 358 79 360
3 80 358 366
3 103 357 367
3 357 151 361
3 153 152 362
3 362 152 363
3 154 153 355
3 355 153 362
3 155 154 365
3 154 355 365
3 361 155 365
3 156 356 363
3 356 157 366
3 355 362 368
3 355 364 365
3 364 355 368
3 363 356 369
3 356 366 369
3 359 357 364
3 357 359 367
3 357 361 364
3 358 360 368
3 366 358 369
3 358 368 369
3 360 359 364
3 360 364 368
3 364 361 365
3 362 363 369
3 368 362 369
3 14 370 15
3 157 370 14
3 15 370 166
3 22 371 23
3 161 371 22
3 23 371 158
3 38 166 157
3 159 164 38
3 164 165 38
3 38 165 166
3 161 39 158
3 39 163 160
3 161 162 39
3 162 163 39
3 166 370 157
3 158 371 161
3 159 160 163
3 159 163 164
3 15 372 16
3 166 372 15
3 16 372 172
3 21 375 22
3 167 375 21
3 22 375 161
3 161 377 162
3 161 375 167
3 167 377 161
3 162 378 163
3 162 377 168
3 168 378 162
3 163 376 164
3 169 376 163
3 163 378 169
3 164 374 165
3 170 374 164
3 164 376 170
3 165 373 166
3 171 373 165
3 165 374 171
3 172 372 166
3 166 373 172
3 168 377 167
3 169 378 168
3 170 376 169
3 171 374 170
3 172 373 171
3 16 379 17
3 172 379 16
3 17 379 173
3 20 380 21
3 176 380 20
3 21 380 167
3 170 40 171
3 175 40 170
3 40 172 171
3 173 172 40
3 167 41 168
3 41 167 176
3 168 41 169
3 174 169 41
3 167 380 176
3 170 169 174
3 175 170 174
3 173 379 172
3 81 17 395
3 17 173 395
3 44 18 397
3 18 85 397
3 173 40 383
3 40 177 383
3 177 42 390
3 42 181 390
3 178 43 391
3 43 183 391
3 182 44 392
3 392 44 397
3 82 81 385
3 385 81 395
3 83 82 387
3 82 385 387
3 84 83 384
3 384 83 387
3 85 84 386
3 84 384 386
3 85 386 397
3 173 383 395
3 383 177 390
3 179 178 389
3 389 178 391
3 180 179 382
3 382 179 389
3 181 180 388
3 180 382 388
3 181 388 390
3 183 182 381
3 381 182 392
3 183 381 391
3 386 381 392
3 381 386 396
3 391 381 396
3 388 382 394
3 382 389 393
3 382 393 394
3 383 390 398
3 395 383 398
3 386 384 396
3 384 387 393
3 384 393 396
3 387 385 394
3 394 385 398
3 385 395 398
3 386 392 397
3 393 387 394
3 390 388 398
3 388 394 398
3 389 391 396
3 393 389 396
3 44 399 18
3 18 399 87
3 19 400 45
3 86 400 19
3 185 399 44
3 45 400 184
3 87 401 86
3 86 401 400
3 399 401 87
3 184 401 185
3 400 401 184
3 185 401 399
3 45 418 19
3 19 418 92
3 88 416 20
3 20 416 176
3 176 404 41
3 41 404 186
3 191 413 45
3 413 418 45
3 186 407 46
3 46 407 190
3 187 411 47
3 47 411 192
3 89 406 88
3 406 416 88
3 90 409 89
3 89 409 406
3 91 405 90
3 405 409 90
3 92 408 91
3 91 408 405
3 92 418 408
3 176 416 404
3 404 407 186
3 188 410 187
3 410 411 187
3 189 403 188
3 403 410 188
3 190 414 189
3 189 414 403
3 407 414 190
3 192 402 191
3 402 413 191
3 192 411 402
3 408 413 402
3 402 417 408
3 411 417 402
3 403 415 410
3 403 414 412
3 412 415 403
3 406 412 404
3 404 416 406
3 404 412 407
3 408 417 405
3 405 415 409
3 405 417 415
3 409 412 406
3 412 414 407
3 408 418 413
3 409 415 412
3 410 417 411
3 415 417 410
3 93 431 0
3 0 431 106
3 23 430 96
3 158 430 23
3 106 421 25
3 25 421 193
3 39 420 158
3 198 420 39
3 193 425 48
3 48 425 197
3 194 427 49
3 49 427 198
3 94 423 93
3 423 431 93
3 95 424 94
3 94 424 423
3 96 422 95
3 422 424 95
3 96 430 422
3 106 431 421
3 420 430 158
3 421 425 193
3 195 426 194
3 426 427 194
3 196 419 195
3 419 426 195
3 197 429 196
3 196 429 419
3 425 429 197
3 198 427 420
3 419 432 426
3 419 429 428
3 428 432 419
3 427 433 420
3 420 433 430
3 423 428 421
3 421 431 423
3 421 428 425
3 422 432 424
3 430 433 422
3 422 433 432
3 424 428 423
3 424 432 428
3 428 429 425
3 426 433 427
3 432 433 426
3 151 24 105
3 104 25 193
3 151 436 36
3 36 436 200
3 48 435 193
3 199 435 48
3 104 434 105
3 193 435 104
3 104 435 434
3 105 436 151
3 434 436 105
3 200 434 199
3 434 435 199
3 200 436 434
3 123 26 115
3 114 27 150
3 123 439 29
3 29 439 201
3 35 438 150
3 202 438 35
3 114 437 115
3 150 438 114
3 114 438 437
3 115 439 123
3 437 439 115
3 201 437 202
3 201 439 437
3 437 438 202
3 122 449 28
3 28 449 133
3 29 451 119
3 201 451 29
3 132 450 32
3 32 450 146
3 149 448 35
3 35 448 202
3 119 447 120
3 119 451 447
3 120 442 121
3 120 447 442
3 121 444 122
3 442 444 121
3 444 449 122
3 133 441 132
3 441 450 132
3 133 449 441
3 146 446 147
3 146 450 446
3 147 443 148
3 147 446 443
3 148 445 149
3 443 445 148
3 445 448 149
3 202 440 201
3 440 451 201
3 202 448 440
3 445 447 440
3 440 448 445
3 447 451 440
3 444 446 441
3 441 449 444
3 446 450 441
3 443 444 442
3 442 445 443
3 442 447 445
3 443 446 444
3 30 452 33
3 126 452 30
3 34 454 31
3 31 454 124
3 33 452 142
3 140 454 34
3 124 455 125
3 124 454 140
3 140 455 124
3 125 453 126
3 141 453 125
3 125 455 141
3 142 452 126
3 126 453 142
3 141 455 140
3 142 453 141
3 36 466 155
3 200 466 36
3 152 465 37
3 37 465 204
3 197 467 48
3 48 467 199
3 49 464 194
3 203 464 49
3 153 463 152
3 463 465 152
3 154 456 153
3 456 463 153
3 155 462 154
3 154 462 456
3 155 466 462
3 194 460 195
3 194 464 460
3 195 459 196
3 195 460 459
3 196 461 197
3 459 461 196
3 461 467 197
3 199 457 200
3 199 467 457
3 457 466 200
3 204 458 203
3 458 464 203
3 204 465 458
3 459 460 456
3 456 462 459
3 460 463 456
3 461 462 457
3 457 467 461
3 462 466 457
3 458 463 460
3 460 464 458
3 458 465 463
3 459 462 461
3 37 469 156
3 204 469 37
3 38 156 159
3 198 39 160
3 198 470 49
3 49 470 203
3 156 469 159
3 159 468 160
3 159 469 468
3 160 470 198
3 468 470 160
3 203 468 204
3 203 470 468
3 468 469 204
3 177 40 175
3 174 41 186
3 177 473 42
3 42 473 206
3 46 472 186
3 205 472 46
3 174 471 175
3 186 472 174
3 174 472 471
3 175 473 177
3 471 473 175
3 206 471 205
3 471 472 205
3 206 473 471
3 42 485 181
3 206 485 42
3 178 483 43
3 43 483 208
3 190 484 46
3 46 484 205
3 47 482 187
3 207 482 47
3 179 481 178
3 481 483 178
3 180 474 179
3 474 481 179
3 181 480 180
3 180 480 474
3 181 485 480
3 187 478 188
3 187 482 478
3 188 477 189
3 188 478 477
3 189 479 190
3 477 479 189
3 479 484 190
3 205 475 206
3 205 484 475
3 475 485 206
3 208 476 207
3 476 482 207
3 208 483 476
3 477 478 474
3 474 480 477
3 478 481 474
3 479 480 475
3 475 484 479
3 480 485 475
3 476 481 478
3 478 482 476
3 476 483 481
3 477 480 479
3 43 490 183
3 208 490 43
3 182 491 44
3 44 491 185
3 184 493 45
3 45 493 191
3 192 492 47
3 47 492 207
3 183 486 182
3 486 491 182
3 183 490 486
3 185 489 184
3 489 493 184
3 185 491 489
3 191 487 192
3 191 493 487
3 487 492 192
3 207 488 208
3 207 492 488
3 488 490 208
3 488 489 486
3 486 490 488
3 489 491 486
3 487 489 488
3 488 492 487
3 487 493 489
3 209 211 50
3 211 210 51
3 210 211 209
3 209 50 495
3 50 212 495
3 51 210 494
3 217 51 494
3 52 213 212
3 216 53 217
3 210 209 496
3 209 495 496
3 494 210 496
3 212 213 495
3 213 214 495
3 214 215 496
3 495 214 496
3 215 216 494
3 215 494 496
3 216 217 494
3 211 501 50
3 50 498 212
3 50 501 498
3 51 497 211
3 217 497 51
3 52 500 54
3 212 500 52
3 57 499 53
3 53 499 217
3 54 500 218
3 218 498 55
3 55 501 219
3 498 501 55
3 219 502 56
3 56 497 220
3 56 502 497
3 220 499 57
3 497 501 211
3 498 500 212
3 217 499 497
3 218 500 498
3 501 502 219
3 497 499 220
3 497 502 501
3 52 54 504
3 213 52 504
3 57 53 503
3 53 216 503
3 54 221 504
3 224 57 503
3 214 213 506
3 221 213 504
3 213 221 506
3 215 214 505
3 214 222 505
3 222 214 506
3 216 215 507
3 223 215 505
3 215 223 507
3 216 224 503
3 224 216 507
3 221 222 506
3 222 223 505
3 223 224 507
3 54 218 221
3 218 55 509
3 55 225 509
3 56 220 508
3 226 56 508
3 224 220 57
3 221 218 509
3 220 224 508
3 222 221 509
3 223 222 510
3 222 509 510
3 224 223 508
3 508 223 510
3 225 226 510
3 509 225 510
3 226 508 510
3 219 225 55
3 226 219 56
3 219 226 225
3 227 229 58
3 229 228 59
3 228 229 227
3 227 58 512
3 58 230 512
3 59 228 511
3 235 59 511
3 60 231 230
3 234 61 235
3 228 227 513
3 227 512 513
3 511 228 513
3 230 231 512
3 231 232 512
3 232 233 513
3 512 232 513
3 233 234 511
3 233 511 513
3 234 235 511
3 229 518 58
3 58 515 230
3 58 518 515
3 59 514 229
3 235 514 59
3 60 517 62
3 230 517 60
3 65 516 61
3 61 516 235
3 62 517 236
3 236 515 63
3 63 518 237
3 515 518 63
3 237 519 64
3 64 514 238
3 64 519 514
3 238 516 65
3 514 518 229
3 515 517 230
3 235 516 514
3 236 517 515
3 518 519 237
3 514 516 238
3 514 519 518
3 60 62 521
3 231 60 521
3 65 61 520
3 61 234 520
3 62 239 521
3 242 65 520
3 232 231 523
3 239 231 521
3 231 239 523
3 233 232 522
3 232 240 522
3 240 232 523
3 234 233 524
3 241 233 522
3 233 241 524
3 234 242 520
3 242 234 524
3 239 240 523
3 240 241 522
3 241 242 524
3 62 236 239
3 236 63 526
3 63 243 526
3 64 238 525
3 244 64 525
3 242 238 65
3 239 236 526
3 238 242 525
3 240 239 526
3 241 240 527
3 240 526 527
3 242 241 525
3 525 241 527
3 243 244 527
3 526 243 527
3 244 525 527
3 237 243 63
3 244 237 64
3 244 243 237
4 527 243 526 541
4 479 414 530 534
4 510 225 509 544
4 387 534 530 546
4 387 394 385 530
4 429 531 461 537
4 362 363 465 544
4 394 530 387 534
4 280 387 530 546
4 463 362 465 544
4 307 313 302 548
4 358 272 248 529
4 271 228 227 531
4 412 530 414 534
4 244 237 243 270
4 227 531 228 549
4 428 531 429 537
4 432 529 424 537
4 314 533 304 540
4 527 528 243 541
4 313 535 302 548
4 362 529 463 537
4 362 369 363 552
4 461 429 425 531
4 463 529 362 544
4 360 272 358 529
4 360 358 368 529
4 432 422 424 529
4 510 529 225 544
4 307 528 313 548
4 276 314 304 540
4 419 428 429 537
4 344 275 343 535
4 363 469 465 544
4 350 342 344 535
4 360 272 529 537
4 387 385 254 530
4 348 541 448 548
4 426 529 537 544
4 530 534 253 546
4 403 412 414 534
4 448 348 438 541
4 253 530 409 534
4 426 529 432 537
4 350 533 342 535
4 424 529 255 537
4 409 530 412 534
4 360 531 272 537
4 449 316 133 543
4 228 229 271 227
4 479 534 530 542
4 362 529 369 552
4 387 254 280 530
4 430 529 225 539
4 243 244 270 528
4 428 424 531 537
4 360 529 368 537
4 276 304 533 540
4 351 344 343 535
4 304 276 533 535
4 424 255 531 537
4 405 546 532 547
4 486 490 381 532
4 415 405 409 546
4 307 315 313 528
4 280 530 253 546
4 459 429 461 537
4 492 482 488 532
4 314 309 304 533
4 426 432 419 537
4 424 422 255 529
4 415 532 405 546
4 415 409 534 546
4 351 535 343 548
4 309 117 325 540
4 492 411 482 532
4 118 133 316 543
4 419 429 459 537
4 345 348 448 548
4 350 340 533 548
4 353 348 548 551
4 307 541 528 548
4 244 251 528 551
4 309 540 328 543
4 541 548 348 551
4 316 449 533 543
4 528 535 313 548
4 227 431 257 545
4 488 483 490 532
4 407 414 412 530
4 309 533 314 540
4 118 316 309 543
4 479 477 414 534
4 118 309 328 543
4 410 532 415 534
4 463 537 529 544
4 255 529 272 537
4 391 490 483 532
4 348 438 541 551
4 441 533 449 543
4 477 403 414 534
4 363 469 544 552
4 342 258 344 535
4 253 534 409 546
4 117 309 314 540
4 307 302 442 548
4 417 405 415 532
4 275 344 258 535
4 312 533 302 535
4 302 533 442 535
4 410 415 403 534
4 343 535 528 548
4 342 533 258 535
4 345 353 348 548
4 255 272 531 537
4 309 533 540 543
4 482 476 488 532
4 308 302 312 533
4 346 350 340 533
4 407 472 484 542
4 404 495 209 416
4 433 529 426 544
4 481 389 532 534
4 472 471 205 475
4 434 457 199 435
4 426 433 432 529
4 369 362 368 529
4 411 492 402 532
4 487 402 492 547
4 488 490 486 532
4 278 546 405 547
4 381 490 391 532
4 406 412 409 530
4 322 5 317 134
4 8 127 339 318
4 307 447 541 548
4 365 364 537 538
4 364 531 360 537
4 488 476 483 532
4 460 426 419 537
4 426 537 460 544
4 309 325 328 540
4 467 435 538 545
4 482 411 410 532
4 406 409 253 530
4 202 448 438 437
4 282 405 408 547
4 468 204 469 458
4 270 311 243 528
4 316 533 309 543
4 457 435 434 538
4 272 273 248 529
4 174 471 472 542
4 442 535 533 548
4 471 475 472 542
4 308 442 302 533
4 443 346 340 533
4 389 393 532 534
4 402 532 492 547
4 244 528 243 551
4 398 394 388 542
4 442 447 307 548
4 255 422 273 529
4 468 458 469 544
4 307 315 528 541
4 416 209 404 550
4 340 443 533 548
4 359 360 364 531
4 428 424 423 531
4 420 430 433 529
4 448 541 440 548
4 368 529 362 537
4 276 261 314 540
4 428 432 424 537
4 118 309 325 328
4 251 270 244 528
4 405 532 417 547
4 415 409 412 534
4 428 425 429 531
4 415 534 532 546
4 410 403 477 534
4 350 533 535 548
4 255 423 424 531
4 448 202 440 437
4 467 425 435 545
4 478 532 410 534
4 393 396 389 532
4 359 249 360 531
4 479 480 534 542
4 305 528 277 535
4 488 490 483 208
4 483 481 389 532
4 117 331 325 540
4 394 387 393 534
4 391 483 389 532
4 409 405 253 546
4 311 315 303 528
4 302 535 442 548
4 269 343 275 535
4 313 315 305 528
4 465 458 463 544
4 279 406 253 530
4 304 533 312 535
4 258 533 276 535
4 528 548 541 551
4 457 461 467 538
4 475 479 484 542
4 448 438 437 541
4 274 423 255 531
4 482 488 207 492
4 353 351 343 548
4 205 484 472 475
4 467 199 457 435
4 209 530 404 550
4 394 382 388 534
4 365 537 462 538
4 457 467 435 538
4 305 313 528 535
4 269 528 343 535
4 398 530 394 542
4 276 286 261 540
4 244 251 237 270
4 472 475 484 542
4 311 277 305 528
4 532 534 393 546
4 346 443 446 533
4 208 483 488 476
4 469 458 465 544
4 204 465 469 458
4 367 59 271 228
4 486 489 488 532
4 417 415 410 532
4 255 273 272 529
4 254 253 280 530
4 463 460 537 544
4 271 228 531 549
4 59 367 511 228
4 476 488 207 482
4 99 98 299 25
4 164 165 374 38
4 162 163 378 39
4 101 100 295 24
4 536 546 278 547
4 398 385 394 530
4 344 351 350 535
4 272 360 249 531
4 396 532 393 546
4 257 227 58 431
4 431 423 274 545
4 282 536 278 547
4 174 530 496 553
4 353 343 528 548
4 437 541 438 551
4 282 278 405 547
4 448 437 440 541
4 468 544 469 552
4 353 548 528 551
4 419 432 428 537
4 225 529 510 539
4 243 528 527 551
4 227 545 531 549
4 480 388 534 542
4 496 530 209 550
4 482 410 478 532
4 531 537 364 538
4 393 534 387 546
4 389 382 393 534
4 481 483 476 532
4 257 431 274 545
4 449 444 316 533
4 331 328 325 540
4 51 395 210 550
4 449 441 444 533
4 486 532 381 536
4 315 303 528 541
4 420 529 433 544
4 253 405 278 546
4 358 529 248 539
4 443 442 533 548
4 403 415 412 534
4 382 480 388 534
4 251 64 349 244
4 433 430 422 529
4 411 417 410 532
4 350 535 351 548
4 486 489 532 536
4 416 530 406 550
4 305 315 311 528
4 434 538 435 545
4 184 401 245 547
4 304 306 252 535
4 109 108 26 299
4 168 169 41 378
4 111 110 27 295
4 170 40 374 171
4 342 258 533 540
4 210 395 51 494
4 369 368 358 529
4 433 422 432 529
4 304 312 306 535
4 227 229 271 257
4 389 474 382 534
4 309 316 308 533
4 481 532 478 534
4 304 252 276 535
4 391 389 396 532
4 316 444 308 533
4 532 546 536 547
4 365 364 355 537
4 258 276 533 540
4 271 359 367 549
4 9 131 318 335
4 410 477 478 534
4 117 4 317 333
4 416 404 406 530
4 481 474 389 534
4 423 531 274 545
4 365 355 456 537
4 401 184 245 287
4 258 286 276 540
4 254 279 253 530
4 411 402 417 532
4 287 184 245 547
4 391 396 381 532
4 416 404 530 550
4 270 277 311 528
4 308 444 442 533
4 50 209 416 550
4 460 419 459 537
4 56 226 366 539
4 226 56 366 508
4 346 533 446 543
4 269 277 528 535
4 430 422 529 539
4 525 349 64 244
4 405 417 408 547
4 328 327 118 543
4 456 355 362 537
4 456 362 463 537
4 482 478 476 532
4 271 367 228 549
4 342 533 347 540
4 425 531 428 545
4 447 440 541 548
4 274 255 249 531
4 448 440 445 548
4 386 396 384 546
4 353 528 343 551
4 244 349 251 551
4 386 536 396 546
4 366 358 248 539
4 441 449 133 543
4 291 12 293 102
4 379 16 372 172
4 292 1 97 296
4 248 529 273 539
4 309 312 304 533
4 350 347 342 533
4 412 404 407 530
4 270 63 243 311
4 305 306 313 535
4 244 243 527 551
4 159 468 469 552
4 114 437 438 551
4 343 344 75 275
4 272 249 255 531
4 267 237 259 270
4 305 252 306 535
4 446 533 441 543
4 349 269 251 551
4 401 536 245 547
4 55 430 225 539
4 174 542 530 553
4 386 384 281 546
4 528 541 527 551
4 287 418 400 547
4 184 536 401 547
4 21 167 380 375
4 353 343 349 551
4 368 362 355 537
4 313 312 302 535
4 402 417 532 547
4 510 529 544 552
4 287 400 184 547
4 488 532 489 547
4 209 495 50 416
4 384 246 281 546
4 309 325 117 118
4 273 529 422 539
4 278 536 281 546
4 269 528 251 551
4 512 58 227 431
4 305 277 252 535
4 346 347 533 543
4 476 478 481 532
4 512 431 227 545
4 282 281 278 536
4 370 372 15 166
4 293 11 300 112
4 367 511 228 549
4 328 323 327 543
4 366 358 539 552
4 395 550 385 553
4 385 530 398 553
4 350 351 340 548
4 386 281 536 546
4 381 532 396 536
4 396 536 532 546
4 443 444 446 533
4 463 458 460 544
4 438 348 341 551
4 385 550 530 553
4 258 276 252 535
4 394 393 382 534
4 529 539 358 552
4 354 346 446 543
4 408 405 282 91
4 254 530 385 550
4 309 308 312 533
4 347 350 346 533
4 461 462 459 537
4 369 529 358 552
4 279 406 530 550
4 364 360 368 537
4 477 479 480 534
4 448 445 345 548
4 366 248 283 539
4 469 363 356 552
4 382 474 480 534
4 225 55 509 430
4 428 531 423 545
4 249 531 359 549
4 258 252 275 535
4 412 406 404 530
4 365 456 462 537
4 430 273 422 539
4 254 279 530 550
4 526 243 63 311
4 210 550 395 553
4 450 132 32 130
4 479 475 480 542
4 457 462 461 538
4 508 366 226 552
4 346 354 347 543
4 366 539 226 552
4 226 225 510 539
4 450 354 446 543
4 494 210 395 553
4 130 450 132 543
4 114 115 437 551
4 160 468 159 552
4 175 471 174 553
4 496 209 210 550
4 395 290 385 550
4 489 532 536 547
4 364 359 531 549
4 131 347 130 540
4 452 33 142 334
4 525 349 244 551
4 481 478 474 534
4 34 332 454 140
4 488 489 487 547
4 446 444 441 533
4 302 307 442 120
4 148 340 345 548
4 434 435 104 545
4 287 245 282 547
4 408 418 287 547
4 316 28 449 133
4 251 269 270 528
4 59 13 271 285
4 115 541 437 551
4 68 306 252 304
4 471 542 174 553
4 527 541 115 551
4 421 428 423 545
4 160 544 468 552
4 246 84 384 281
4 347 130 540 543
4 131 130 329 540
4 279 416 406 550
4 491 381 392 536
4 246 278 281 546
4 442 308 302 121
4 147 443 346 340
4 447 445 440 548
4 384 387 83 280
4 339 143 7 335
4 510 539 529 552
4 175 542 471 553
4 322 333 6 137
4 84 386 384 281
4 443 442 444 533
4 160 510 544 552
4 531 538 364 549
4 139 33 319 334
4 486 381 491 536
4 496 530 550 553
4 28 316 118 133
4 305 306 252 67
4 491 392 185 536
4 271 249 359 549
4 184 401 400 287
4 329 540 130 543
4 288 399 185 401
4 307 451 310 541
4 336 332 34 145
4 250 261 286 540
4 271 531 249 549
4 447 442 307 120
4 421 425 428 545
4 385 398 395 553
4 184 185 401 536
4 269 252 277 535
4 463 460 456 537
4 331 261 250 540
4 246 384 83 280
4 267 259 237 518
4 277 270 269 528
4 273 430 422 96
4 474 389 382 179
4 32 450 130 354
4 275 252 269 535
4 130 354 450 543
4 366 369 358 552
4 185 288 401 536
4 464 427 426 544
4 443 446 147 346
4 455 141 140 330
4 245 401 288 536
4 355 153 456 362
4 250 9 352 289
4 397 288 399 536
4 250 352 131 540
4 527 115 114 551
4 252 276 68 304
4 160 159 510 552
4 245 536 282 547
4 384 387 280 546
4 496 175 174 553
4 364 357 359 549
4 326 145 337 144
4 250 289 352 540
4 105 357 436 549
4 430 256 96 539
4 278 282 405 91
4 348 353 341 551
4 305 252 277 67
4 104 435 421 545
4 269 343 75 275
4 20 176 212 380
4 141 323 453 142
4 463 456 153 362
4 347 540 533 543
4 10 116 238 300
4 307 447 451 541
4 361 364 365 538
4 131 335 250 324
4 474 481 389 179
4 303 310 439 541
4 390 388 485 542
4 438 341 114 551
4 80 366 358 248
4 342 352 73 289
4 159 469 356 552
4 115 303 439 541
4 453 133 125 126
4 124 125 455 132
4 51 290 395 550
4 0 106 230 292
4 421 423 431 545
4 434 105 538 545
4 368 355 364 537
4 451 119 307 310
4 165 166 373 38
4 102 294 24 101
4 98 25 97 298
4 386 381 396 536
4 408 413 418 547
4 288 185 399 536
4 280 246 384 546
4 466 361 365 538
4 427 470 420 544
4 430 96 273 539
4 158 23 218 371
4 356 363 369 552
4 50 416 247 550
4 441 133 132 543
4 160 420 470 544
4 434 104 105 545
4 306 312 313 535
4 486 491 489 536
4 184 489 185 536
4 288 397 386 536
4 282 408 287 547
4 421 435 104 193
4 436 105 151 357
4 56 366 283 539
4 186 174 472 404
4 387 385 82 254
4 450 446 441 543
4 352 342 347 540
4 271 274 249 531
4 14 157 220 370
4 173 17 217 379
4 307 310 315 541
4 390 398 388 542
4 247 416 279 550
4 501 266 268 260
4 360 359 78 249
4 41 377 167 168
4 161 377 39 162
4 466 365 462 538
4 427 433 426 544
4 261 331 333 117
4 361 436 357 549
4 398 530 542 553
4 188 477 410 403
4 361 538 436 549
4 325 137 320 138
4 460 464 426 544
4 175 383 473 542
4 435 425 421 545
4 383 390 473 542
4 418 408 287 92
4 267 3 63 270
4 132 133 330 543
4 250 131 324 540
4 80 366 248 283
4 139 321 138 327
4 329 328 540 543
4 132 326 130 543
4 324 331 250 540
4 41 404 495 214
4 172 40 171 373
4 27 294 112 111
4 26 108 107 298
4 397 392 386 536
4 237 251 259 270
4 338 144 143 329
4 290 254 385 550
4 395 81 385 290
4 152 465 362 363
4 423 274 255 94
4 117 4 333 261
4 315 310 303 541
4 472 407 186 404
4 424 255 422 95
4 386 392 381 536
4 55 256 430 539
4 105 436 538 549
4 384 393 387 546
4 286 258 289 540
4 424 423 255 94
4 85 397 386 288
4 148 443 340 548
4 135 117 134 320
4 338 128 131 127
4 348 448 149 345
4 184 489 536 547
4 436 151 361 357
4 425 435 421 193
4 388 480 485 542
4 327 118 325 328
4 119 307 447 451
4 126 28 30 452
4 32 31 454 124
4 396 393 384 546
4 519 237 259 518
4 445 447 442 548
4 420 433 427 544
4 201 440 202 437
4 512 232 25 545
4 409 90 253 405
4 511 24 233 549
4 353 345 351 548
4 406 89 253 409
4 474 477 480 534
4 464 426 427 194
4 4 117 314 261
4 349 343 76 269
4 440 437 201 541
4 398 390 383 542
4 50 247 209 550
4 113 3 236 301
4 331 250 261 71
4 494 395 173 383
4 508 157 366 356
4 474 478 477 534
4 357 367 359 549
4 273 96 256 539
4 189 479 477 414
4 445 148 345 548
4 456 459 462 537
4 272 360 78 249
4 97 25 231 298
4 166 38 224 373
4 102 24 294 234
4 341 349 116 525
4 444 308 442 121
4 513 105 104 545
4 255 273 422 95
4 414 477 189 403
4 251 349 76 269
4 110 109 115 297
4 163 164 376 159
4 253 279 89 406
4 485 181 388 390
4 492 487 192 402
4 486 183 381 490
4 337 129 130 128
4 135 321 136 118
4 88 279 416 406
4 463 152 465 362
4 481 483 389 178
4 303 439 310 123
4 348 150 438 341
4 483 391 389 178
4 39 377 161 221
4 167 377 41 213
4 423 431 274 93
4 277 311 305 66
4 323 330 133 543
4 34 332 336 454
4 158 420 509 430
4 231 60 97 521
4 213 52 167 504
4 257 274 431 93
4 419 196 459 429
4 401 400 287 86
4 513 105 545 549
4 470 198 427 420
4 363 469 356 156
4 26 113 239 107
4 39 158 221 161
4 157 38 224 166
4 116 27 242 112
4 434 200 457 538
4 399 288 87 401
4 196 461 459 429
4 324 328 331 540
4 411 187 482 410
4 416 247 279 88
4 190 407 484 414
4 146 446 450 354
4 182 392 491 381
4 413 402 191 493
4 336 31 32 129
4 30 28 136 319
4 311 526 303 113
4 471 206 475 542
4 107 239 26 298
4 112 294 27 242
4 172 216 40 373
4 459 456 460 537
4 479 190 484 414
4 40 173 216 172
4 281 282 245 536
4 404 41 174 214
4 130 326 329 543
4 329 328 324 540
4 468 203 458 544
4 408 282 287 92
4 41 167 213 176
4 277 270 311 66
4 90 278 253 405
4 466 365 361 155
4 456 355 365 154
4 27 341 525 241
4 82 387 254 280
4 226 539 510 552
4 507 40 215 216
4 232 231 25 523
4 214 213 41 506
4 97 231 25 106
4 103 24 102 234
4 496 550 210 553
4 383 542 175 553
4 104 25 421 193
4 105 24 151 357
4 280 253 278 546
4 538 545 105 549
4 221 54 504 161
4 239 62 521 107
4 55 225 256 539
4 390 485 473 542
4 494 40 215 383
4 398 542 383 553
4 174 186 41 404
4 477 478 188 410
4 439 310 451 541
4 146 446 354 346
4 525 241 341 551
4 42 485 473 390
4 232 104 25 545
4 508 223 38 356
4 69 276 261 314
4 524 27 242 241
4 524 234 24 233
4 187 478 482 410
4 115 439 303 123
4 438 150 114 341
4 411 492 192 402
4 470 160 198 420
4 356 469 159 156
4 326 328 329 543
4 511 357 24 549
4 383 494 395 553
4 183 391 381 490
4 421 512 25 545
4 331 324 250 71
4 314 69 276 304
4 258 342 73 289
4 261 70 4 333
4 383 215 494 553
4 283 14 56 266
4 103 13 235 291
4 508 356 366 552
4 133 323 327 334
4 367 59 77 271
4 356 508 223 552
4 470 427 464 544
4 426 464 460 194
4 280 278 246 546
4 508 38 223 224
4 525 242 27 241
4 511 24 234 233
4 494 215 40 216
4 507 223 38 224
4 222 221 506 39
4 240 239 523 26
4 177 473 383 390
4 525 341 349 551
4 288 386 281 536
4 184 493 489 547
4 491 182 381 486
4 487 191 402 493
4 105 233 24 549
4 340 351 345 548
4 457 200 434 199
4 205 471 206 475
4 469 465 37 363
4 421 431 512 545
4 20 50 247 260
4 357 105 24 549
4 250 335 9 72
4 413 402 493 547
4 331 70 261 333
4 421 25 104 545
4 35 348 438 448
4 233 232 105 522
4 174 215 214 505
4 404 495 416 176
4 388 480 181 485
4 203 204 468 458
4 290 81 385 254
4 470 427 49 464
4 46 407 472 484
4 323 328 330 543
4 103 367 357 511
4 347 354 130 543
4 251 237 64 244
4 366 80 56 283
4 287 245 401 86
4 245 87 288 401
4 175 473 383 177
4 421 512 431 106
4 281 85 386 288
4 439 29 451 310
4 319 33 452 334
4 84 384 83 246
4 526 26 240 303
4 436 200 434 538
4 436 361 466 538
4 367 103 59 511
4 63 237 267 270
4 435 467 48 425
4 311 63 526 113
4 399 44 397 392
4 400 45 413 418
4 450 441 132 543
4 64 116 349 525
4 285 259 267 518
4 250 286 289 540
4 347 131 352 540
4 470 203 468 544
4 439 201 437 541
4 473 206 471 542
4 185 489 491 536
4 80 56 14 366
4 361 36 436 466
4 489 493 487 547
4 365 466 462 155
4 445 442 443 548
4 223 160 222 505
4 115 241 522 240
4 447 440 451 541
4 95 273 422 96
4 158 509 55 430
4 439 437 115 541
4 148 445 443 548
4 509 420 39 222
4 132 330 326 543
4 487 493 402 547
4 157 366 56 508
4 247 211 268 260
4 434 105 436 538
4 367 357 511 549
4 207 208 488 476
4 431 512 58 106
4 473 471 175 542
4 495 50 416 176
4 256 55 23 260
4 105 232 104 522
4 174 215 505 175
4 466 457 200 538
4 440 201 451 541
4 395 173 51 494
4 468 160 470 544
4 236 62 239 113
4 218 54 221 158
4 358 79 80 248
4 369 366 356 552
4 439 451 201 541
4 4 317 333 322
4 485 475 206 542
4 74 75 344 275
4 353 349 341 551
4 81 17 51 395
4 329 324 131 540
4 387 82 83 280
4 445 149 448 345
4 9 339 335 318
4 17 51 268 290
4 178 389 481 179
4 464 458 203 544
4 129 130 145 337
4 466 200 436 538
4 311 270 63 66
4 219 266 501 260
4 213 52 212 176
4 463 153 152 362
4 395 51 81 290
4 473 485 206 542
4 72 250 335 324
4 464 203 470 544
4 266 219 256 260
4 241 115 522 114
4 223 160 505 159
4 242 116 238 525
4 508 220 157 224
4 446 146 147 346
4 20 50 416 88
4 231 60 230 106
4 37 204 465 469
4 14 56 80 283
4 448 438 35 202
4 217 216 494 173
4 259 13 265 514
4 383 395 398 553
4 456 365 462 154
4 332 132 330 326
4 416 50 247 88
4 236 239 526 113
4 218 221 509 158
4 10 64 349 251
4 460 458 464 544
4 341 241 114 551
4 402 408 417 547
4 189 190 479 414
4 462 457 466 538
4 284 56 14 266
4 235 234 511 103
4 480 475 485 542
4 94 423 274 93
4 219 225 226 539
4 150 27 114 341
4 303 26 115 123
4 405 90 278 91
4 13 59 77 367
4 461 196 197 429
4 356 223 159 552
4 213 212 495 176
4 507 215 40 374
4 378 41 506 214
4 484 472 46 205
4 48 199 467 435
4 478 187 188 410
4 58 0 257 431
4 523 25 232 299
4 224 370 157 166
4 300 242 112 116
4 159 38 356 156
4 160 39 198 420
4 524 295 27 241
4 24 295 524 233
4 229 271 59 228
4 512 227 513 545
4 483 490 43 208
4 383 175 215 553
4 490 43 391 483
4 120 307 447 119
4 288 281 245 536
4 523 240 26 299
4 217 499 263 284
4 341 27 114 241
4 303 26 240 115
4 431 0 257 93
4 507 38 223 374
4 506 39 378 222
4 49 470 464 203
4 430 55 23 96
4 282 408 91 92
4 485 206 42 473
4 231 230 512 106
4 69 68 276 304
4 379 216 173 172
4 386 84 85 281
4 195 426 460 194
4 256 219 55 260
4 413 408 402 547
4 267 58 0 257
4 430 256 55 96
4 484 46 407 190
4 451 201 29 439
4 88 89 279 406
4 330 328 326 543
4 501 55 219 260
4 356 223 38 159
4 420 160 39 222
4 47 482 492 411
4 180 388 480 181
4 260 498 500 212
4 311 63 3 66
4 261 70 331 71
4 77 59 13 271
4 291 234 103 102
4 465 152 37 363
4 40 215 383 175
4 175 383 40 177
4 349 76 10 251
4 360 78 79 272
4 467 197 48 425
4 69 261 4 314
4 50 20 247 88
4 75 76 343 269
4 482 207 47 492
4 308 444 122 121
4 51 17 81 290
4 500 262 260 212
4 81 82 385 254
4 128 338 131 329
4 325 117 135 320
4 120 442 302 121
4 443 147 148 340
4 466 36 436 200
4 515 267 230 517
4 17 51 284 268
4 67 306 252 68
4 485 42 181 390
4 450 32 146 354
4 22 54 23 371
4 270 3 63 66
4 451 29 119 310
4 28 316 449 122
4 225 219 256 539
4 513 228 511 549
4 321 139 136 327
4 342 73 74 258
4 35 348 448 149
4 501 268 211 260
4 333 6 4 322
4 247 50 211 260
4 128 144 338 329
4 177 42 473 390
4 320 135 325 138
4 145 130 326 337
4 499 220 263 284
4 7 9 339 335
4 259 265 516 514
4 66 305 277 67
4 256 23 55 96
4 525 244 527 551
4 268 502 284 266
4 226 510 508 552
4 20 52 21 380
4 60 1 0 292
4 494 496 210 553
4 132 125 141 133
4 513 511 233 549
4 183 381 182 486
4 192 487 191 402
4 445 148 149 345
4 155 462 365 154
4 284 497 502 268
4 527 241 525 551
4 508 510 223 552
4 248 273 283 539
4 215 496 494 553
4 512 513 232 545
4 11 10 65 300
4 330 132 141 133
4 179 382 474 180
4 118 136 28 334
4 245 87 401 86
4 210 209 211 550
4 256 283 273 539
4 46 407 186 472
4 49 198 427 470
4 361 36 466 155
4 310 439 29 123
4 348 150 35 438
4 16 53 17 379
4 115 241 240 527
4 223 160 510 222
4 233 232 513 105
4 174 215 496 214
4 230 267 264 517
4 37 469 363 156
4 427 49 464 194
4 336 332 32 454
4 267 237 63 518
4 73 352 9 289
4 14 57 15 370
4 516 238 265 259
4 266 219 283 256
4 266 268 502 501
4 62 3 2 301
4 17 53 16 263
4 513 104 232 545
4 332 130 145 129
4 48 435 425 193
4 36 151 361 436
4 237 64 519 259
4 287 19 418 92
4 288 18 397 399
4 118 321 136 327
4 77 78 359 249
4 288 87 18 399
4 287 19 400 418
4 130 332 32 129
4 15 57 14 263
4 222 221 39 509
4 240 239 26 526
4 232 231 512 25
4 214 213 495 41
4 287 400 19 86
4 531 545 538 549
4 355 456 153 154
4 247 279 290 550
4 247 211 209 550
4 22 23 54 262
4 483 43 391 178
4 513 233 105 549
4 160 223 510 159
4 115 241 527 114
4 215 174 496 175
4 105 232 513 104
4 262 260 23 218
4 239 62 107 113
4 221 54 161 158
4 397 85 18 288
4 10 64 251 259
4 17 51 217 284
4 527 114 241 551
4 60 0 1 264
4 510 159 223 552
4 283 256 219 539
4 215 175 496 553
4 21 52 20 262
4 419 459 196 195
4 64 237 251 259
4 213 52 176 167
4 317 333 322 137
4 477 188 189 403
4 335 339 143 318
4 47 492 192 411
4 231 60 106 97
4 19 45 400 418
4 18 44 397 399
4 413 191 45 493
4 392 491 44 182
4 43 391 183 490
4 319 452 28 334
4 52 176 167 380
4 136 118 327 334
4 284 497 56 502
4 260 55 23 218
4 323 330 141 133
4 126 142 133 334
4 132 455 140 330
4 293 11 65 300
4 15 57 372 370
4 7 9 335 72
4 139 136 327 334
4 324 72 250 71
4 60 106 97 292
4 268 211 497 501
4 51 211 497 268
4 497 502 268 501
4 220 56 14 284
4 380 52 21 375
4 89 90 253 409
4 13 59 235 514
4 211 268 290 247
4 2 3 62 264
4 60 1 292 296
4 293 61 12 291
4 53 16 372 379
4 70 6 4 333
4 298 107 239 521
4 520 294 112 242
4 133 141 323 453
4 254 290 279 550
4 172 503 216 373
4 221 377 161 504
4 131 335 324 329
4 166 224 503 373
4 262 20 260 212
4 213 167 377 504
4 298 231 97 521
4 102 294 520 234
4 255 424 94 95
4 61 13 12 291
4 337 130 326 144
4 141 455 132 330
4 243 237 63 270
4 501 211 50 260
4 482 47 187 411
4 126 133 28 334
4 11 65 10 265
4 332 124 140 132
4 227 58 229 257
4 130 326 332 145
4 333 331 325 117
4 502 56 284 266
4 522 297 109 99
4 169 163 376 505
4 164 170 376 505
4 110 100 297 522
4 497 217 51 284
4 455 140 124 132
4 133 453 142 126
4 323 133 453 142
4 135 117 325 118
4 260 501 55 498
4 264 0 267 230
4 50 501 260 498
4 131 130 128 329
4 133 125 141 453
4 455 125 141 132
4 247 290 211 550
4 372 57 503 166
4 520 293 65 112
4 521 107 62 296
4 504 161 54 375
4 219 283 56 266
4 225 219 55 256
4 52 167 504 375
4 241 524 295 233
4 232 240 523 299
4 378 506 222 214
4 223 215 507 374
4 53 372 503 172
4 61 293 520 102
4 521 60 97 296
4 264 60 62 296
4 263 17 217 284
4 265 238 10 259
4 124 332 32 132
4 65 61 11 293
4 264 267 3 236
4 504 54 52 375
4 211 50 247 209
4 217 51 173 494
4 521 62 60 296
4 65 61 293 520
4 372 57 53 503
4 263 220 14 284
4 62 2 264 296
4 1 60 264 296
4 12 13 61 265
4 516 238 259 514
4 56 220 497 284
4 55 260 498 218
4 260 20 50 212
4 323 133 142 334
4 144 128 130 329
4 138 135 325 118
4 235 59 103 511
4 262 52 54 375
4 12 11 61 293
4 54 22 262 375
4 132 140 332 330
4 21 52 262 375
4 264 2 1 296
4 157 56 220 508
4 116 64 238 525
4 452 142 28 334
4 236 526 63 113
4 218 509 55 158
4 57 15 372 263
4 113 62 107 301
4 158 54 161 371
4 514 285 229 518
4 372 16 53 263
4 284 51 497 268
4 15 16 372 263
4 515 267 63 518
4 319 28 139 334
4 267 63 3 236
4 58 267 515 518
4 497 220 499 284
4 117 325 137 320
4 267 0 58 230
4 262 22 21 375
4 239 231 298 521
4 224 216 503 373
4 234 294 520 242
4 221 213 377 504
4 143 131 338 329
4 50 495 212 176
4 144 130 326 329
4 504 167 161 375
4 267 285 58 257
4 454 332 32 140
4 172 372 503 166
4 102 293 520 112
4 97 107 521 296
4 124 454 32 140
4 126 142 28 452
4 229 59 285 514
4 28 139 136 319
4 230 58 512 106
4 53 217 499 263
4 372 53 57 263
4 336 32 332 145
4 145 336 32 129
4 118 138 321 327
4 134 317 322 137
4 339 127 143 318
4 240 232 522 109
4 100 522 241 233
4 223 170 505 215
4 214 222 163 505
4 51 211 268 290
4 297 522 109 115
4 159 164 376 505
4 285 271 59 229
4 220 57 499 263
4 325 138 118 327
4 63 267 515 236
4 229 285 58 518
4 143 131 335 318
4 317 333 137 117
4 377 39 213 221
4 242 234 24 524
4 239 231 25 298
4 234 24 294 242
4 38 216 224 373
4 109 232 522 99
4 39 213 221 506
4 231 25 523 239
4 216 507 38 224
4 336 32 31 454
4 452 28 30 319
4 317 4 5 322
4 339 9 8 318
4 163 169 214 505
4 170 223 505 164
4 110 100 522 241
4 30 33 452 319
4 503 172 166 373
4 520 294 102 112
4 97 107 298 521
4 336 31 34 454
4 167 161 377 504
4 109 232 299 240
4 295 100 241 233
4 215 223 170 374
4 222 163 378 214
4 266 502 219 501
4 300 65 293 112
4 57 372 370 166
4 27 24 295 524
4 40 38 507 374
4 378 41 39 506
4 523 26 25 299
4 380 167 52 375
4 377 39 41 213
4 24 27 242 524
4 24 27 294 242
4 239 25 26 298
4 38 40 216 373
4 213 39 41 506
4 38 40 507 216
4 25 26 523 239
4 372 53 379 172
4 293 61 291 102
4 292 97 60 296
4 229 285 271 257
4 176 52 212 380
4 522 240 109 115
4 159 223 164 505
4 502 219 56 266
4 160 163 222 505
4 522 114 110 241
4 232 109 299 99
4 99 232 522 104
4 214 169 174 505
4 164 170 223 374
4 169 378 163 214
4 522 100 105 233
4 175 170 215 505
4 100 110 295 241
4 137 134 317 117
4 131 143 127 318
4 259 64 519 514
4 106 60 230 292
4 235 516 61 265
4 145 32 332 129
4 498 260 50 212
4 238 64 10 259
4 136 139 28 334
4 124 32 332 140
4 61 65 11 265
4 137 333 325 117
4 28 142 126 334
4 500 262 54 218
4 131 143 335 329
4 62 264 236 517
4 515 267 58 230
4 267 58 285 518
4 7 9 8 339
4 4 6 5 322
4 12 61 11 265
4 238 64 259 514
4 52 262 500 212
4 135 138 321 118
4 130 337 128 144
4 230 264 60 517
4 497 499 217 284
4 217 53 17 263
4 117 137 134 320
4 338 131 143 127
4 236 301 62 113
4 158 218 54 371
4 14 57 220 263
4 162 377 41 168
4 41 39 377 162
4 165 171 38 373
4 24 294 111 101
4 27 24 294 111
4 40 38 171 373
4 229 58 285 257
4 23 54 262 218
4 262 52 20 212
4 264 60 0 230
4 3 62 264 236
4 165 38 171 374
4 24 111 295 101
4 41 378 162 168
4 38 40 171 374
4 111 24 295 27
4 39 41 378 162
4 65 516 238 265
4 218 23 54 371
4 61 13 235 265
4 57 53 499 263
4 238 10 65 265
4 301 62 3 236
4 52 20 212 380
4 60 0 230 292
4 300 10 65 238
4 62 60 264 517
4 262 54 52 500
4 379 53 17 217
4 14 57 370 220
4 65 61 516 265
4 61 13 291 235
4 552 362 544 363
4 552 544 362 529
4 541 243 303 528
4 541 303 243 526
4 311 303 243 528
4 311 243 303 526
4 544 225 420 529
4 544 420 225 509
4 430 420 225 529
4 430 225 420 509
4 358 272 79 248
4 79 272 358 360
4 209 404 496 495
4 209 496 404 530
4 174 404 496 530
4 257 545 531 227
4 531 545 257 274
4 531 271 257 227
4 257 271 531 274
4 344 258 74 275
4 74 258 344 342
4 161 22 54 375
4 161 54 22 371
4 542 394 534 530
4 542 534 394 388
4 2 107 62 301
4 2 62 107 296
4 492 547 488 487
4 488 547 492 532
4 537 538 461 462
4 461 538 537 531
4 527 240 541 526
4 527 541 240 115
4 303 541 240 526
4 303 240 541 115
4 420 222 544 160
4 420 544 222 509
4 510 544 222 160
4 510 222 544 509
4 214 496 404 495
4 214 404 496 174
4 327 133 543 323
4 543 133 327 118
4 545 467 531 538
4 545 531 467 425
4 461 531 467 538
4 461 467 531 425
4 551 343 269 528
4 551 269 343 349
4 484 414 530 479
4 530 414 484 407
4 530 542 484 479
4 484 542 530 407
4 419 460 195 426
4 195 460 419 459
4 547 400 413 418
4 399 392 536 185
4 536 392 399 397
4 549 227 513 228
4 549 513 227 545
4 425 461 197 429
4 425 197 461 467
4 261 117 540 331
4 540 117 261 314
4 316 444 122 308
4 122 444 316 449
4 158 39 509 420
4 158 509 39 221
4 38 157 508 356
4 38 508 157 224
4 404 472 530 174
4 404 530 472 407
4 542 530 472 174
4 542 472 530 407
4 113 26 526 303
4 113 526 26 239
4 27 116 525 341
4 27 525 116 242
4 359 271 77 249
4 77 271 359 367
4 285 514 13 259
4 13 514 285 59
4 131 9 250 335
4 131 250 9 352
4 480 382 180 474
4 480 180 382 388
4 173 40 494 383
4 173 494 40 216
4 392 185 44 491
4 392 44 185 399
4 342 289 540 352
4 540 289 342 258
4 550 51 211 210
4 550 211 51 290
4 539 56 219 283
4 539 219 56 226
4 170 174 505 175
4 100 104 522 105
4 38 164 223 374
4 38 223 164 159
4 99 25 232 104
4 99 232 25 299
4 100 24 233 295
4 100 233 24 105
4 163 39 222 378
4 163 222 39 160
4 176 20 50 416
4 176 50 20 212
4 159 163 505 376
4 159 505 163 160
4 115 110 522 114
4 115 522 110 297
4 26 109 240 115
4 26 240 109 299
4 169 41 214 174
4 169 214 41 378
4 170 40 215 374
4 170 215 40 175
4 110 27 241 114
4 110 241 27 295
4 106 0 58 431
4 106 58 0 230
4 23 158 55 430
4 23 55 158 218
4 17 173 51 395
4 17 51 173 217
4 116 10 64 349
4 116 64 10 238
4 157 14 56 366
4 157 56 14 220
4 45 184 413 493
4 45 413 184 400
4 547 413 184 493
4 547 184 413 400
4 370 224 220 57
4 370 220 224 157
4 300 242 238 65
4 300 238 242 116
4 500 260 218 498
4 500 218 260 262
4 3 113 63 311
4 3 63 113 236
4 379 216 217 173
4 379 217 216 53
4 234 291 235 61
4 234 235 291 103
4 13 103 59 367
4 13 59 103 235
4 332 130 132 326
4 132 130 332 32
4 265 235 514 13
4 265 514 235 516
4 41 176 495 404
4 495 176 41 213
4 549 361 364 357
4 549 364 361 538
4 106 25 512 231
4 106 512 25 421
4 24 103 511 234
4 24 511 103 357
4 517 267 236 515
4 517 236 267 264
4 118 334 133 327
4 133 334 118 28
4 518 259 514 285
4 518 514 259 519
4 298 108 25 26
4 298 25 108 98
4 299 25 108 26
4 299 108 25 98
4 216 53 172 379
4 216 172 53 503
4 242 65 112 520
4 242 112 65 300
4 224 57 166 503
4 224 166 57 370
4 234 61 102 291
4 234 102 61 520
4 99 100 522 297
4 99 522 100 104
4 170 169 505 174
4 170 505 169 376

CELL_TYPES 3050
1
1
1
1
1
1
1
1
1
1
1
1
1
1
1
1
1
1
1
1
1
1
1
1
1
1
1
1
1
1
1
1
1
1
1
1
1
1
1
1
1
1
1
1
1
1
1
1
1
1
1
1
1
1
1
1
1
1
1
1
1
1
1
1
1
1
3
3
3
3
3
3
3
3
3
3
3
3
3
3
3
3
3
3
3
3
3
3
3
3
3
3
3
3
3
3
3
3
3
3
3
3
3
3
3
3
3
3
3
3
3
3
3
3
3
3
3
3
3
3
3
3
3
3
3
3
3
3
3
3
3
3
3
3
3
3
3
3
3
3
3
3
3
3
3
3
3
3
3
3
3
3
3
3
3
3
3
3
3
3
3
3
3
3
3
3
3
3
3
3
3
3
3
3
3
3
3
3
3
3
3
3
3
3
3
3
3
3
3
3
3
3
3
3
3
3
3
3
3
3
3
3
3
3
3
3
3
3
3
3
3
3
3
3
3
3
3
3
3
3
3
3
3
3
3
3
3
3
3
3
3
3
3
3
3
3
3
3
3
3
3
3
3
3
3
3
3
3
3
3
3
3
3
3
3
3
3
3
3
3
3
3
3
3
3
3
3
3
3
3
3
3
3
3
3
3
3
3
3
3
3
3
3
3
3
3
3
3
3
3
3
3
3
3
3
3
3
3
3
3
3
3
3
3
3
3
3
3
3
3
3
3
3
3
3
3
3
3
3
3
3
3
3
3
3
3
3
3
3
3
3
3
3
3
3
3
3
3
3
3
3
3
3
3
5
5
5
5
5
5
5
5
5
5
5
5
5
5
5
5
5
5
5
5
5
5
5
5
5
5
5
5
5
5
5
5
5
5
5
5
5
5
5
5
5
5
5
5
5
5
5
5
5
5
5
5
5
5
5
5
5
5
5
5
5
5
5
5
5
5
5
5
5
5
5
5
5
5
5
5
5
5
5
5
5
5
5
5
5
5
5
5
5
5
5
5
5
5
5
5
5
5
5
5
5
5
5
5
5
5
5
5
5
5
5
5
5
5
5
5
5
5
5
5
5
5
5
5
5
5
5
5
5
5
5
5
5
5
5
5
5
5
5
5
5
5
5
5
5
5
5
5
5
5
5
5
5
5
5
5
5
5
5
5
5
5
5
5
5
5
5
5
5
5
5
5
5
5
5
5
5
5
5
5
5
5
5
5
5
5
5
5
5
5
5
5
5
5
5
5
5
5
5
5
5
5
5
5
5
5
5
5
5
5
5
5
5
5
5
5
5
5
5
5
5
5
5
5
5
5
5
5
5
5
5
5
5
5
5
5
5
5
5
5
5
5
5
5
5
5
5
5
5
5
5
5
5
5
5
5
5
5
5
5
5
5
5
5
5
5
5
5
5
5
5
5
5
5
5
5
5
5
5
5
5
5
5
5
5
5
5
5
5
5
5
5
5
5
5
5
5
5
5
5
5
5
5
5
5
5
5
5
5
5
5
5
5
5
5
5
5
5
5
5
5
5
5
5
5
5
5
5
5
5
5
5
5
5
5
5
5
5
5
5
5
5
5
5
5
5
5
5
5
5
5
5
5
5
5
5
5
5
5
5
5
5
5
5
5
5
5
5
5
5
5
5
5
5
5
5
5
5
5
5
5
5
5
5
5
5
5
5
5
5
5
5
5
5
5
5
5
5
5
5
5
5
5
5
5
5
5
5
5
5
5
5
5
5
5
5
5
5
5
5
5
5
5
5
5
5
5
5
5
5
5
5
5
5
5
5
5
5
5
5
5
5
5
5
5
5
5
5
5
5
5
5
5
5
5
5
5
5
5
5
5
5
5
5
5
5
5
5
5
5
5
5
5
5
5
5
5
5
5
5
5
5
5
5
5
5
5
5
5
5
5
5
5
5
5
5
5
5
5
5
5
5
5
5
5
5
5
5
5
5
5
5
5
5
5
5
5
5
5
5
5
5
5
5
5
5
5
5
5
5
5
5
5
5
5
5
5
5
5
5
5
5
5
5
5
5
5
5
5
5
5
5
5
5
5
5
5
5
5
5
5
5
5
5
5
5
5
5
5
5
5
5
5
5
5
5
5
5
5
5
5
5
5
5
5
5
5
5
5
5
5
5
5
5
5
5
5
5
5
5
5
5
5
5
5
5
5
5
5
5
5
5
5
5
5
5
5
5
5
5
5
5
5
5
5
5
5
5
5
5
5
5
5
5
5
5
5
5
5
5
5
5
5
5
5
5
5
5
5
5
5
5
5
5
5
5
5
5
5
5
5
5
5
5
5
5
5
5
5
5
5
5
5
5
5
5
5
5
5
5
5
5
5
5
5
5
5
5
5
5
5
5
5
5
5
5
5
5
5
5
5
5
5
5
5
5
5
5
5
5
5
5
5
5
5
5
5
5
5
5
5
5
5
5
5
5
5
5
5
5
5
5
5
5
5
5
5
5
5
5
5
5
5
5
5
5
5
5
5
5
5
5
5
5
5
5
5
5
5
5
5
5
5
5
5
5
5
5
5
5
5
5
5
5
5
5
5
5
5
5
5
5
5
5
5
5
5
5
5
5
5
5
5
5
5
5
5
5
5
5
5
5
5
5
5
5
5
5
5
5
5
5
5
5
5
5
5
5
5
5
5
5
5
5
5
5
5
5
5
5
5
5
5
5
5
5
5
5
5
5
5
5
5
5
5
5
5
5
5
5
5
5
5
5
5
5
5
5
5
5
5
5
5
5
5
5
5
5
5
5
5
5
5
5
5
5
5
5
5
5
5
5
5
5
5
5
5
5
5
5
5
5
5
5
5
5
5
5
5
5
5
5
5
5
5
5
5
5
5
5
5
5
5
5
5
5
5
5
5
5
5
5
5
5
5
5
5
5
5
5
5
5
5
5
5
5
5
5
5
5
5
5
5
5
5
5
5
5
5
5
5
5
5
5
5
5
5
5
5
5
5
5
5
5
5
5
5
5
5
5
5
5
5
5
5
5
5
5
5
5
5
5
5
5
5
5
5
5
5
5
5
5
5
5
5
5
5
5
5
5
5
5
5
5
5
5
5
5
5
5
5
5
5
5
5
5
5
5
5
5
5
5
5
5
5
5
5
5
5
5
5
5
5
5
5
5
5
5
5
5
5
5
5
5
10
10
10
10
10
10
10
10
10
10
10
10
10
10
10
10
10
10
10
10
10
10
10
10
10
10
10
10
10
10
10
10
10
10
10
10
10
10
10
10
10
10
10
10
10
10
10
10
10
10
10
10
10
10
10
10
10
10
10
10
10
10
10
10
10
10
10
10
10
10
10
10
10
10
10
10
10
10
10
10
10
10
10
10
10
10
10
10
10
10
10
10
10
10
10
10
10
10
10
10
10
10
10
10
10
10
10
10
10
10
10
10
10
10
10
10
10
10
10
10
10
10
10
10
10
10
10
10
10
10
10
10
10
10
10
10
10
10
10
10
10
10
10
10
10
10
10
10
10
10
10
10
10
10
10
10
10
10
10
10
10
10
10
10
10
10
10
10
10
10
10
10
10
10
10
10
10
10
10
10
10
10
10
10
10
10
10
10
10
10
10
10
10
10
10
10
10
10
10
10
10
10
10
10
10
10
10
10
10
10
10
10
10
10
10
10
10
10
10
10
10
10
10
10
10
10
10
10
10
10
10
10
10
10
10
10
10
10
10
10
10
10
10
10
10
10
10
10
10
10
10
10
10
10
10
10
10
10
10
10
10
10
10
10
10
10
10
10
10
10
10
10
10
10
10
10
10
10
10
10
10
10
10
10
10
10
10
10
10
10
10
10
10
10
10
10
10
10
10
10
10
10
10
10
10
10
10
10
10
10
10
10
10
10
10
10
10
10
10
10
10
10
10
10
10
10
10
10
10
10
10
10
10
10
10
10
10
10
10
10
10
10
10
10
10
10
10
10
10
10
10
10
10
10
10
10
10
10
10
10
10
10
10
10
10
10
10
10
10
10
10
10
10
10
10
10
10
10
10
10
10
10
10
10
10
10
10
10
10
10
10
10
10
10
10
10
10
10
10
10
10
10
10
10
10
10
10
10
10
10
10
10
10
10
10
10
10
10
10
10
10
10
10
10
10
10
10
10
10
10
10
10
10
10
10
10
10
10
10
10
10
10
10
10
10
10
10
10
10
10
10
10
10
10
10
10
10
10
10
10
10
10
10
10
10
10
10
10
10
10
10
10
10
10
10
10
10
10
10
10
10
10
10
10
10
10
10
10
10
10
10
10
10
10
10
10
10
10
10
10
10
10
10
10
10
10
10
10
10
10
10
10
10
10
10
10
10
10
10
10
10
10
10
10
10
10
10
10
10
10
10
10
10
10
10
10
10
10
10
10
10
10
10
10
10
10
10
10
10
10
10
10
10
10
10
10
10
10
10
10
10
10
10
10
10
10
10
10
10
10
10
10
10
10
10
10
10
10
10
10
10
10
10
10
10
10
10
10
10
10
10
10
10
10
10
10
10
10
10
10
10
10
10
10
10
10
10
10
10
10
10
10
10
10
10
10
10
10
10
10
10
10
10
10
10
10
10
10
10
10
10
10
10
10
10
10
10
10
10
10
10
10
10
10
10
10
10
10
10
10
10
10
10
10
10
10
10
10
10
10
10
10
10
10
10
10
10
10
10
10
10
10
10
10
10
10
10
10
10
10
10
10
10
10
10
10
10
10
10
10
10
10
10
10
10
10
10
10
10
10
10
10
10
10
10
10
10
10
10
10
10
10
10
10
10
10
10
10
10
10
10
10
10
10
10
10
10
10
10
10
10
10
10
10
10
10
10
10
10
10
10
10
10
10
10
10
10
10
10
10
10
10
10
10
10
10
10
10
10
10
10
10
10
10
10
10
10
10
10
10
10
10
10
10
10
10
10
10
10
10
10
10
10
10
10
10
10
10
10
10
10
10
10
10
10
10
10
10
10
10
10
10
10
10
10
10
10
10
10
10
10
10
10
10
10
10
10
10
10
10
10
10
10
10
10
10
10
10
10
10
10
10
10
10
10
10
10
10
10
10
10
10
10
10
10
10
10
10
10
10
10
10
10
10
10
10
10
10
10
10
10
10
10
10
10
10
10
10
10
10
10
10
10
10
10
10
10
10
10
10
10
10
10
10
10
10
10
10
10
10
10
10
10
10
10
10
10
10
10
10
10
10
10
10
10
10
10
10
10
10
10
10
10
10
10
10
10
10
10
10
10
10
10
10
10
10
10
10
10
10
10
10
10
10
10
10
10
10
10
10
10
10
10
10
10
10
10
10
10
10
10
10
10
10
10
10
10
10
10
10
10
10
10
10
10
10
10
10
10
10
10
10
10
10
10
10
10
10
10
10
10
10
10
10
10
10
10
10
10
10
10
10
10
10
10
10
10
10
10
10
10
10
10
10
10
10
10
10
10
10
10
10
10
10
10
10
10
10
10
10
10
10
10
10
10
10
10
10
10
10
10
10
10
10
10
10
10
10
10
10
10
10
10
10
10
10
10
10
10
10
10
10
10
10
10
10
10
10
10
10
10
10
10
10
10
10
10
10
10
10
10
10
10
10
10
10
10
10
10
10
10
10
10
10
10
10
10
10
10
10
10
10
10
10
10
10
10
10
10
10
10
10
10
10
10
10
10
10
10
10
10
10
10
10
10
10
10
10
10
10
10
10
10
10
10
10
10
10
10
10
10
10
10
10
10
10
10
10
10
10
10
10
10
10
10
10
10
10
10
10
10
10
10
10
10
10
10
10
10
10
10
10
10
10
10
10
10
10
10
10
10
10
10
10
10
10
10
10
10
10
10
10
10
10
10
10
10
10
10
10
10
10
10
10
10
10
10
10
10
10
10
10
10
10
10
10
10
10
10
10
10
10
10
10
10
10
10
10
10
10
10
10
10
10
10
10
10
10
10
10
10
10
10
10
10
10
10
10
10
10
10
10
10
10
10
10
10
10
10
10
10
10
10
10
10
10
10
10
10
10
10
10
10
10
10
10
10
10
10
10
10
10
10
10
10
10
10
10
10
10
10
10
10
10
10
10
10
10
10
10
10
10
10
10
10
10
10
10
10
10
10
10
10
10
10
10
10
10
10
10
10
10
10
10
10
10
10
10
10
10
10
10
10
10
10
10
10
10
10
10
10
10
10
10
10
10
10
10
10
10
10
10
10
10
10
10
10
10
10
10
10
10
10
10
10
10
10
10
10
10
10
10
10
10
10
10
10
10
10
10
10
10
10
10
10
10
10
10
10
10
10
10
10
10
10
10
10
10
10
10
10
10
10
10
10
10
10
10
10
10
10
10
10
10
10
10
10
10
10
10
10
10
10
10
10
10
10
10
10
10
10
10
10
10
10
10
10
10
10
10
10
10
10
10
10
10
10
10
10
10
10
10
10
10
10
10
10
10
10
10
10
10
10
10
10
10
10
10
10
10
10
10
10
10
10
10
10
10
10
10
10
10
10
10
10
10
10
10
10
10
10
10
10
10
10
10
10
10
10
10
10
10
10
10
10
10
10
10
10
10
10
10
10
10
10
10
10
10
10
10
10
10
10
10
10
10
10
10
10
10
10
10
10
10
10
10
10
10
10
10
10
10
10
10
10
10
10
10
10
10
10
10
10
10
10
10
10
10
10
10
10
10
10
10
10
10
10
10
10
10
10
10
10
10
10
10
10
10
10
10
10
10
10
10
10
10
10
10
10
10
10
10
10
10
10
10
10
10
10
10
10
10
10
10
10
10
10
10
10
10
10
10
10
10
10
10
10
10
10
10
10
10
10
10
10
10
10
10
10
10
10
10
10
10
10
10
10
10
10
10
10
10
10
10
10
10
10
10
10
10
10
10
10
10
10
10
10
10
10
10
10
10
10
10
10
10
10
10
10
10
10
10
