# vtk DataFile Version 2.0
, Created by Gmsh 4.13.1 
ASCII
DATASET UNSTRUCTURED_GRID
POINTS 542 double
5.052707164548258 2.312936953133701 -44.29524776481733
-5.052707164548259 2.312936953133701 -44.29524776481733
14.33072372965841 2.312936953133701 -41.7933282335656
-14.33072372965841 2.312936953133701 -41.7933282335656
14.33072372965841 2.312936953133701 -38.2066717664344
5.052707164548258 2.312936953133701 -35.70475223518267
-5.052707164548259 2.312936953133701 -35.70475223518267
-14.33072372965841 2.312936953133701 -38.2066717664344
5.052707164548258 2.312936953133701 -84.29524776481733
-5.052707164548259 2.312936953133701 -84.29524776481733
14.33072372965841 2.312936953133701 -81.7933282335656
-14.33072372965841 2.312936953133701 -81.7933282335656
14.33072372965841 2.312936953133701 -78.2066717664344
5.052707164548258 2.312936953133701 -75.70475223518267
-5.052707164548259 2.312936953133701 -75.70475223518267
-14.33072372965841 2.312936953133701 -78.2066717664344
8.75 0 -44.29524776481733
17.70923938586626 0 -41.7933282335656
17.70923938586626 0 -38.20667176643439
8.75 0 -35.70475223518266
8.75 0 -3
11.75 0 -3
11.75 0 0
-11.75 0 0
-11.75 0 -3
-8.75 0 -3
-8.75 1.071565949253934e-15 -35.70475223518266
-17.70923938586626 2.168756332923536e-15 -38.20667176643439
-17.70923938586626 2.168756332923536e-15 -41.7933282335656
-8.75 1.071565949253934e-15 -44.29524776481733
-8.75 1.071565949253934e-15 -75.70475223518267
-17.70923938586626 2.168756332923536e-15 -78.2066717664344
-17.70923938586626 2.168756332923536e-15 -81.7933282335656
-8.75 1.071565949253934e-15 -84.29524776481733
-8.75 0 -120
8.75 0 -120
8.75 0 -84.29524776481733
17.70923938586626 0 -81.7933282335656
17.70923938586626 0 -78.2066717664344
8.75 0 -75.70475223518267
-8.75 10.30069508942145 -42.96447411134322
8.75 10.30069508942145 -42.96447411134322
8.75 10.30069508942146 -37.03552588865677
-8.75 10.30069508942146 -37.03552588865677
8.75 20 -3
8.75 20 -28.83090183281261
11.75 23 -3
-11.75 23 -3
-8.75 20 -3
11.75 23 0
-11.75 23 0
-8.75 20 -28.83090183281261
-8.75 20 -51.16909816718739
-8.75 20 -68.83090183281261
-8.75 10.30069508942146 -77.03552588865676
8.75 10.30069508942146 -77.03552588865676
-8.75 10.30069508942145 -82.96447411134322
8.75 10.30069508942145 -82.96447411134322
-8.75 20 -91.16909816718739
-8.75 20 -108.8309018328126
-8.75 6.796166654026136 -120
8.75 6.796166654026136 -120
8.75 20 -91.16909816718739
8.75 20 -108.8309018328126
8.75 20 -51.16909816718739
8.75 20 -68.83090183281261
2.063771901723286 5.159493441948169 -44.29524776481733
-2.063771901723304 5.159493441948162 -44.29524776481733
-7.105427357601002e-15 2.312936953133701 -44.29524776481733
9.696790292084572 2.312936953133701 -43.06320265595763
11.72709980533359 8.555375510210574 -41.7933282335656
6.57753741073141 12.94045291229773 -41.7933282335656
5.246067077430175e-14 14.51617442596244 -41.7933282335656
-6.577537410731314 12.94045291229778 -41.7933282335656
-11.72709980533356 8.555375510210613 -41.7933282335656
-9.696790292084572 2.312936953133701 -43.06320265595763
9.696790292084572 2.312936953133701 -36.93679734404237
0 2.312936953133701 -35.70475223518267
-9.696790292084572 2.312936953133701 -36.93679734404237
11.72709980533359 8.555375510210574 -38.20667176643439
6.57753741073141 12.94045291229773 -38.20667176643439
5.246067077430175e-14 14.51617442596244 -38.20667176643439
-6.577537410731314 12.94045291229778 -38.20667176643439
-11.72709980533356 8.555375510210613 -38.20667176643439
2.063771901723286 5.159493441948169 -35.70475223518266
-2.063771901723304 5.159493441948162 -35.70475223518266
2.063771901723286 5.159493441948169 -84.29524776481733
-2.063771901723304 5.159493441948162 -84.29524776481733
-7.105427357601002e-15 2.312936953133701 -84.29524776481733
9.696790292084572 2.312936953133701 -83.06320265595764
11.72709980533359 8.555375510210574 -81.7933282335656
6.57753741073141 12.94045291229773 -81.7933282335656
5.246067077430175e-14 14.51617442596244 -81.7933282335656
-6.577537410731314 12.94045291229778 -81.7933282335656
-11.72709980533356 8.555375510210613 -81.7933282335656
-9.696790292084572 2.312936953133701 -83.06320265595764
9.696790292084572 2.312936953133701 -76.93679734404236
0 2.312936953133701 -75.70475223518267
-9.696790292084572 2.312936953133701 -76.93679734404236
11.72709980533359 8.555375510210574 -78.2066717664344
6.57753741073141 12.94045291229773 -78.2066717664344
5.246067077430175e-14 14.51617442596244 -78.2066717664344
-6.577537410731314 12.94045291229778 -78.2066717664344
-11.72709980533356 8.555375510210613 -78.2066717664344
2.063771901723286 5.159493441948169 -75.70475223518267
-2.063771901723304 5.159493441948162 -75.70475223518267
13.22961969293313 0 -43.04428799919147
13.22961969293313 0 -36.95571200080852
8.75 0 -29.16380178814611
8.75 0 -22.62285134110956
8.75 0 -16.08190089407304
8.75 0 -9.540950447036519
5.875000000000016 0 0
3.730349362740526e-14 0 0
-5.874999999999972 0 0
-8.75 0 -9.540950447036542
-8.75 0 -16.08190089407309
-8.75 0 -22.6228513411096
-8.75 0 -29.16380178814611
-13.22961969293313 1.620161141088735e-15 -36.95571200080852
-13.22961969293313 1.620161141088735e-15 -43.04428799919147
-8.75 0 -50.57714865889041
-8.75 0 -56.8590495529635
-8.75 0 -63.14095044703656
-8.75 0 -69.42285134110961
-13.22961969293313 1.620161141088735e-15 -76.95571200080853
-13.22961969293313 1.620161141088735e-15 -83.04428799919147
-8.75 0 -90.24603980401446
-8.75 0 -96.19683184321156
-8.75 0 -102.1476238824087
-8.75 0 -108.0984159216058
-8.75 0 -114.0492079608029
2.916666666666666 0 -120
-2.916666666666668 0 -120
8.75 0 -90.24603980401446
8.75 0 -96.19683184321156
8.75 0 -102.1476238824087
8.75 0 -108.0984159216058
8.75 0 -114.0492079608029
13.22961969293313 0 -83.04428799919147
13.22961969293313 0 -76.95571200080853
8.75 0 -50.57714865889041
8.75 0 -56.8590495529635
8.75 0 -63.14095044703656
8.75 0 -69.42285134110961
16.36120380494458 6.777032512758346 -41.7933282335656
12.52232325940191 12.52232325940194 -41.7933282335656
6.7770325127583 16.3612038049446 -41.7933282335656
-6.576371990381536e-14 17.70923938586626 -41.7933282335656
-6.777032512758392 16.36120380494457 -41.7933282335656
-12.52232325940196 12.52232325940189 -41.7933282335656
-16.3612038049446 6.777032512758315 -41.7933282335656
-8.750000000000002 5.183344292975394 -43.89869549896376
-2.939917577506161 11.00276838917762 -43.55835661501241
2.939917577506145 11.00276838917762 -43.55835661501242
8.749999999999998 5.183344292975394 -43.89869549896376
16.36120380494458 6.777032512758346 -38.20667176643439
12.52232325940191 12.52232325940194 -38.20667176643439
6.7770325127583 16.3612038049446 -38.20667176643439
-6.576371990381536e-14 17.70923938586626 -38.20667176643439
-6.777032512758392 16.36120380494457 -38.20667176643439
-12.52232325940196 12.52232325940189 -38.20667176643439
-16.3612038049446 6.777032512758315 -38.20667176643439
8.749999999999998 5.183344292975401 -36.10130450103624
2.93991757750615 11.00276838917761 -36.44164338498758
-2.93991757750615 11.00276838917761 -36.44164338498758
-8.750000000000002 5.183344292975402 -36.10130450103624
8.75 6.666666666666651 -3
8.75 13.33333333333329 -3
8.75 20 -22.37317637460948
8.75 20 -15.91545091640634
8.75 20 -9.457725458203178
8.75 15.15034754471072 -32.9332138607347
-5.875000000000016 23 -3
-3.730349362740526e-14 23 -3
5.874999999999972 23 -3
-11.75 5.749999999999988 -3
-11.75 11.49999999999999 -3
-11.75 17.24999999999999 -3
-8.75 13.33333333333335 -3
-8.75 6.666666666666705 -3
-2.916666666666666 20 -3
2.916666666666668 20 -3
11.75 5.749999999999988 -3
11.75 11.49999999999999 -3
11.75 17.24999999999999 -3
11.75 5.749999999999988 0
11.75 11.49999999999999 0
11.75 17.24999999999999 0
-5.875000000000016 23 0
-3.730349362740526e-14 23 0
5.874999999999972 23 0
-11.75 5.749999999999988 0
-11.75 11.49999999999999 0
-11.75 17.24999999999999 0
-8.75 20 -9.457725458203138
-8.75 20 -15.91545091640627
-8.75 20 -22.37317637460944
-8.75 15.15034754471072 -32.9332138607347
-8.75 15.15034754471074 -47.06678613926531
-8.75 20 -62.94363394427086
-8.75 20 -57.05636605572914
-8.75 15.15034754471072 -72.9332138607347
-8.750000000000002 5.183344292975402 -76.10130450103624
8.749999999999998 5.183344292975401 -76.10130450103624
2.939917577506153 11.00276838917761 -76.44164338498759
-2.939917577506145 11.00276838917761 -76.44164338498759
16.36120380494458 6.777032512758346 -78.2066717664344
12.52232325940191 12.52232325940194 -78.2066717664344
6.7770325127583 16.3612038049446 -78.2066717664344
-6.576371990381536e-14 17.70923938586626 -78.2066717664344
-6.777032512758392 16.36120380494457 -78.2066717664344
-12.52232325940196 12.52232325940189 -78.2066717664344
-16.3612038049446 6.777032512758315 -78.2066717664344
16.36120380494458 6.777032512758346 -81.7933282335656
12.52232325940191 12.52232325940194 -81.7933282335656
6.7770325127583 16.3612038049446 -81.7933282335656
-6.576371990381536e-14 17.70923938586626 -81.7933282335656
-6.777032512758392 16.36120380494457 -81.7933282335656
-12.52232325940196 12.52232325940189 -81.7933282335656
-16.3612038049446 6.777032512758315 -81.7933282335656
-8.750000000000002 5.183344292975394 -83.89869549896376
-2.939917577506155 11.00276838917761 -83.55835661501241
2.939917577506149 11.00276838917761 -83.55835661501241
8.749999999999998 5.183344292975392 -83.89869549896376
-8.75 15.15034754471073 -87.06678613926532
-8.75 20 -102.9436339442709
-8.75 20 -97.05636605572913
-8.75 11.19744443601743 -116.2769672776042
-8.75 15.59872221800872 -112.5539345552084
2.916666666666666 6.796166654026136 -120
-2.916666666666668 6.796166654026136 -120
8.75 15.15034754471073 -87.06678613926532
8.75 20 -102.9436339442709
8.75 20 -97.05636605572913
8.75 11.19744443601743 -116.2769672776042
8.75 15.59872221800872 -112.5539345552084
8.75 15.15034754471074 -47.06678613926531
8.75 20 -62.94363394427086
8.75 20 -57.05636605572914
8.75 15.15034754471072 -72.9332138607347
2.916666666666666 20 -51.16909816718739
-2.916666666666668 20 -51.16909816718739
2.916666666666666 20 -28.83090183281261
-2.916666666666668 20 -28.83090183281261
2.916666666666666 20 -68.83090183281261
-2.916666666666668 20 -68.83090183281261
2.916666666666666 20 -91.16909816718739
-2.916666666666668 20 -91.16909816718739
2.916666666666666 20 -108.8309018328126
-2.916666666666668 20 -108.8309018328126
5.479335758534474 7.768614768093182 -43.19229485097949
-5.347882498439581 6.853042307455007 -43.41955111562006
-0.2756460976646666 8.898672002039286 -43.36085642913118
-2.352938634732155 2.312936953133701 -39.90763659103423
2.381841125989144 2.312936953133701 -40.07249422673819
6.376167207850965 2.312936953133701 -40.01449884534764
-6.370386709599563 2.312936953133701 -39.98152731820684
-13.39755767406565 5.587912699304689 -39.96545396102335
-9.411278439112861 11.05202054406593 -40.03454603897664
13.40901294667698 5.560367951926855 -40
9.411278439112927 11.05202054406587 -40.03454603897664
3.410826406502766 14.10976906932461 -40
-3.381822610597534 14.11674876858752 -39.96545396102335
5.479335758534978 7.768614768092858 -36.80770514902051
-5.34788249843925 6.853042307454639 -36.58044888437979
-0.2756460976646077 8.898672002039234 -36.6391435708688
5.479335758534487 7.768614768093175 -83.19229485097949
-5.347882498439581 6.853042307455007 -83.41955111562007
-0.2756460976646646 8.898672002039286 -83.36085642913118
-2.352938634732155 2.312936953133701 -79.90763659103422
2.381841125989144 2.312936953133701 -80.07249422673817
-6.370386709599563 2.312936953133701 -79.98152731820684
6.376167207850965 2.312936953133701 -80.01449884534763
-13.39755767406565 5.587912699304689 -80.03454603897664
-9.41127843911287 11.05202054406592 -80.03454603897664
13.40901294667698 5.560367951926855 -80
9.411278439112928 11.05202054406587 -80.03454603897664
3.381822610597643 14.11674876858749 -79.96545396102336
-3.381822610597534 14.11674876858752 -80.03454603897663
5.479335758534981 7.768614768092853 -76.80770514902051
-5.347882498439249 6.853042307454637 -76.58044888437981
-0.2756460976646096 8.898672002039232 -76.6391435708688
4.159285104893886 0 -87.27064378441591
3.502773676518347 0 -71.61902160274198
3.66897435828082 0 -48.53114792188009
-4.240712897621314 0 -32.28950869557077
-8.881784197001252e-16 0 -115.5972167537124
2.446289108015383 0 -99.1722278628101
-3.309714241676557 0 -60.00000000000003
-2.823475781170725 0 -4.126813182125346
-3.085370747971201 0 -19.35237611759134
-2.675473880222889 0 -37.65347701414322
3.807857749720128 0 -81.30280381011039
-2.563653782852299 0 -105.1230199020072
-3.59646292141711 0 -93.22143582361301
3.085370747971194 0 -12.81142567055477
3.085370747971179 0 -25.89332656462783
3.687935560692458 0 -5.687461057199847
-3.023135358755274 0 -72.12000846209011
-2.789890058716807 0 -47.87035425754459
-3.914714143328036 0 -79.32524978141757
3.158142112780572 0 -42.00164184994468
2.576160903180204 0 -32.18336227440703
-2.08775122776902 0 -84.88220924640721
0.1465140499273359 0 -53.97295006521311
0.07993971962717961 0 -66.05047197549638
3.309714241676557 0 -60.00000000000003
9.701342382144446 0 -39.92717477216662
-10.44465281355572 0 -79.88754163023626
10.42684341462107 0 -80.21713396835173
-9.397808876085794 0 -40.06630279652123
4.117074149594234 0 -19.35237611759131
-4.007287437135442 0 -12.12628779796079
-3.284180833479025 0 -25.89332656462785
4.085526809749187 0 -105.1230199020072
-4.058107634155469 0 -99.1722278628101
3.481771700818886 0 -92.90630648575473
3.139158740487313 0 -110.7948167486373
-3.792343419491688 0 -111.3236115976221
14.31581210794864 0 -39.98543495443332
-14.25510540673692 0 -40.01326055930424
-14.79396335214004 0 -80
14.79396335214004 0 -80
4.878485527564417 0 -66.04665907327691
-4.935988084817794 0 -53.71809910592695
4.925040529976943 0 -53.98805923978942
-4.93598808481779 0 -66.28190089407309
4.245964722432834 0 -37.12801880765373
-4.166714532998245 0 -42.50118697228312
-0.7121347647877698 0 -8.447483206052482
1.69326476828024 0 -76.28789854202476
-4.692663333282177 0 -88.43208948985037
-4.589162438752467 0 -115.8417890025898
4.500254929434051 0 -115.7178383199329
-5.008579596618786 0 -7.448306926635027
-0.2791025172247608 0 -89.51551481039982
-13.26898804978811 3.251784043211602 -42.9236465240484
13.03654019149077 3.659342048555785 -42.95750355819066
-12.38748821901249 7.620962682341356 -42.67723007360937
11.77796934711906 7.869787515813282 -42.78300968610893
3.454901214449301 17.36896131679478 -39.9746496672211
9.838726252205614 14.7246944063392 -40.02535033277889
14.72469440633918 9.83872625220565 -39.9746496672211
17.36896131679477 3.454901214449356 -40.0253503327789
-3.454901214449411 17.36896131679476 -40.02535033277889
-9.838726252205676 14.72469440633916 -40.02535033277889
-17.36896131679477 3.454901214449349 -39.9746496672211
-14.70559128134156 9.867256188629543 -40
-13.26898804978808 3.251784043211651 -37.07635347595159
13.03654020212396 3.659342033146499 -37.04249644350529
-12.38748821091901 7.620962692401371 -37.32276992593766
11.77796937319841 7.869787533238948 -37.21699032265002
8.749999999999998 14.83602751396088 -19.33933724023036
8.749999999999998 5.896633271063012 -26.44296972113687
8.749999999999998 9.999999999999973 -8.773502691896237
8.749999999999998 14.02246734192438 -26.68213562096757
8.749999999999998 8.55081193507745 -32.1381230946887
8.749999999999998 5.553014749780515 -19.36207534288894
8.749999999999998 5.063435073653517 -12.86094864616717
8.749999999999998 14.95053651780315 -12.76992885187579
8.749999999999998 10.05655686277194 -15.67144926830352
8.749999999999998 10.12610000163987 -22.09108550486955
8.749999999999998 3.926157899823173 -31.91019026803812
8.749999999999998 4.660403031444726 -7.657529997750434
8.749999999999998 15.47141091607506 -7.528505880782252
10.25 3.10416666666666 -3
-10.25 3.104166666666674 -3
11.75 20.125 -1.5
11.75 14.37499999999999 -1.5
11.75 8.624999999999988 -1.5
11.75 2.874999999999994 -1.5
-2.707174061168084 4.878797530676509 0
3.157610638484559 18.22886740495932 0
7.069955745470663 8.716546370640001 0
-6.619519168154188 14.39111856499582 0
7.102873022115113 14.37499999999999 0
0.1126091443291184 11.52691623390895 0
-7.000954855602268 8.644857627020135 0
-2.792058517349995 18.15992185565015 0
2.948495529093417 4.721447277005962 0
-7.528051718759411 18.81262893003678 0
7.528051718759418 4.187371069963204 0
7.820492259183635 19.07601590637069 0
-7.553981076842909 4.160878030182232 0
-11.75 20.125 -1.5
-11.75 8.624999999999988 -1.5
-11.75 14.37499999999999 -1.5
-11.75 2.874999999999994 -1.5
-8.750000000000002 14.8360275139609 -19.33933724023031
-8.750000000000002 5.896633271063004 -26.44296972113688
-8.750000000000002 10.00000000000003 -8.773502691896239
-8.750000000000002 14.02246734192438 -26.68213562096757
-8.750000000000002 8.55081193507745 -32.1381230946887
-8.750000000000002 5.553014749780498 -19.36207534288897
-8.750000000000002 5.063435073653538 -12.86094864616718
-8.750000000000002 14.95053651780318 -12.76992885187574
-8.750000000000002 10.056556862772 -15.67144926830342
-8.750000000000002 10.12610000163987 -22.09108550486953
-8.750000000000002 3.926157899823172 -31.91019026803812
-8.750000000000002 4.66040303144475 -7.657529997750444
-8.750000000000002 15.47141091607509 -7.52850588078223
-8.750000000000002 14.81073513706375 -60.00000000000001
-8.750000000000002 5.880221933501026 -66.72029607496265
-8.750000000000002 5.880221933501025 -53.27970392503738
-8.750000000000002 8.646662274661178 -47.88959177147805
-8.750000000000002 8.646662274661182 -72.11040822852195
-8.750000000000002 14.15243473212058 -66.83577987539836
-8.750000000000002 14.15243473212059 -53.16422012460165
-8.750000000000002 5.350367679160666 -60.00000000000001
-8.750000000000002 10.10091468482699 -57.64333686732571
-8.750000000000002 10.0589348333346 -62.23988256353735
-8.750000000000002 3.942045700227523 -72.01192247616262
-8.750000000000002 3.94204570022752 -47.98807752383739
-13.26898804978808 3.251784043211663 -77.07635347595159
13.03654020212396 3.6593420331465 -77.04249644350529
-12.38748821901233 7.620962682341619 -77.32276992639063
11.77796937319842 7.869787533238951 -77.21699032265003
3.454901214449301 17.36896131679478 -79.9746496672211
9.838726252205612 14.7246944063392 -79.97464966722112
17.36896131679477 3.454901214449356 -80.02535033277888
14.7437421812221 9.810159332017445 -80
-3.421219553709532 17.37562707907926 -80
-9.810159332017472 14.74374218122209 -80
-17.36896131679478 3.454901214449333 -79.9746496672211
-14.70559128134155 9.86725618862955 -80
13.03654019149074 3.659342048555821 -82.95750355819067
-13.26898804978811 3.251784043211614 -82.92364652404839
-12.38748821901249 7.620962682341352 -82.67723007360937
11.777969347119 7.869787515813243 -82.78300968610895
-8.750000000000002 14.8123333822215 -99.65037119751099
-8.750000000000002 4.424820503770595 -92.90845591487954
-8.750000000000002 9.549882972794084 -109.4444400847355
-8.750000000000002 5.067098857480777 -105.1259533168525
-8.750000000000002 14.75393210395859 -93.25126895908633
-8.750000000000002 8.696690214870124 -88.33200921269827
-8.750000000000002 14.90147644963848 -105.8872678885417
-8.750000000000002 4.885334745470222 -99.20493402154581
-8.750000000000002 5.772564628306277 -114.3268652704856
-8.750000000000002 9.871037694891154 -102.6693469664501
-8.750000000000002 9.574024774197031 -96.00273104536183
-8.750000000000002 3.660971002323222 -87.93608963907467
-8.750000000000002 4.292437408119663 -109.9461214575645
5.408163265306122 3.398083327013067 -120
0 3.398083327013067 -120
-5.40816326530612 3.398083327013068 -120
8.749999999999998 14.8123333822215 -99.65037119751099
8.749999999999998 4.424820503770595 -92.90845591487954
8.749999999999998 9.549882972794084 -109.4444400847355
8.749999999999998 5.067098857480777 -105.1259533168525
8.749999999999998 14.75393210395859 -93.25126895908633
8.749999999999998 8.696690214870127 -88.33200921269827
8.749999999999998 14.90147644963848 -105.8872678885417
8.749999999999998 4.885334745470222 -99.20493402154581
8.749999999999998 5.772564628306277 -114.3268652704856
8.749999999999998 9.871037694891154 -102.6693469664501
8.749999999999998 9.574024774197031 -96.00273104536184
8.749999999999998 3.660971002323223 -87.93608963907467
8.749999999999998 4.292437408119663 -109.9461214575645
8.749999999999998 14.81073513706375 -60.00000000000001
8.749999999999998 5.880221933501026 -66.72029607496265
8.749999999999998 5.880221933501025 -53.27970392503738
8.749999999999998 8.64666227466118 -47.88959177147806
8.749999999999998 8.646662274661184 -72.11040822852195
8.749999999999998 14.15243473212058 -66.83577987539836
8.749999999999998 14.15243473212059 -53.16422012460165
8.749999999999998 5.350367679160666 -60.00000000000002
8.749999999999998 10.10091468482699 -57.64333686732571
8.749999999999998 10.0589348333346 -62.23988256353735
8.749999999999998 3.942045700227523 -72.01192247616262
8.749999999999998 3.94204570022752 -47.98807752383739
-3.552713678800501e-15 15.7606620820009 -47.58305007574812
-4.144954554313152 14.4647061664706 -46.48680336756631
4.14495455431315 14.4647061664706 -46.48680336756631
-5.175469698235215 17.21800904827042 -48.81581717477246
5.175469698235212 17.21800904827042 -48.81581717477246
0 15.76066208200089 -32.41694992425189
4.144954554313147 14.4647061664706 -33.51319663243369
-4.144954554313147 14.4647061664706 -33.51319663243369
5.175469698235211 17.21800904827042 -31.18418282522754
-5.175469698235215 17.21800904827042 -31.18418282522754
0.1924502380153363 20 -7.890003993190843
-1.77635683940025e-15 20 -23.77908697740339
3.908218423350441 20 -12.2866556392096
-2.657441685105121 20 -13.02563703541666
3.475742196008015 20 -19.03290288484716
-3.774894023737277 20 -19.59077533581231
4.602158873995279 20 -7.340995949891004
-4.57633162275129 20 -7.274673297362128
-4.602158873995279 20 -24.48990588292161
4.602158873995267 20 -24.48990588292161
8.812499999999986 23 -1.5
2.937499999999966 23 -1.5
-8.812500000000007 23 -1.5
-2.937500000000028 23 -1.5
0 20 -63.42598423596021
0 20 -56.44739291506745
4.412997428224769 20 -59.97889619183795
-4.41299742822477 20 -59.97889619183795
-4.488992284674305 20 -55.44475735627066
-4.488992284674303 20 -64.55524264372934
4.488992284674306 20 -55.44475735627066
4.488992284674305 20 -64.55524264372934
0 15.76066208200089 -72.41694992425188
4.144954554313147 14.4647061664706 -73.51319663243369
-4.144954554313147 14.4647061664706 -73.51319663243369
-5.175469698235213 17.21800904827042 -71.18418282522754
5.175469698235211 17.21800904827042 -71.18418282522754
-1.77635683940025e-15 15.76066208200089 -87.58305007574812
-4.144954554313152 14.4647061664706 -86.4868033675663
4.144954554313149 14.4647061664706 -86.4868033675663
-5.175469698235215 17.21800904827042 -88.81581717477246
5.175469698235212 17.21800904827042 -88.81581717477246
-1.77635683940025e-15 20 -103.7790869774034
-1.77635683940025e-15 20 -96.2209130225966
4.412997428224768 20 -100
-4.41299742822477 20 -100
-4.488992284674303 20 -104.5552426437293
-4.488992284674305 20 -95.44475735627066
4.488992284674306 20 -95.44475735627066
4.488992284674305 20 -104.5552426437293
-3.626893329731557 13.39808332701307 -114.4154509164063
3.510951097183037 13.39808332701307 -114.4154509164063
-0.01932370542475326 10.06777372731725 -117.2325536373727
-0.01932370542475326 16.7283929267089 -111.59834819544
-4.523070967625527 16.78709545311361 -111.5486918371009
4.523070967625524 10.00907120091253 -117.2822099957117
-4.523070967625522 10.00907120091253 -117.2822099957117
4.523070967625524 16.78709545311361 -111.5486918371009
-1.4210854715202e-14 8.32321807342035 -92.1815049825947
-1.376676550535194e-14 8.379063375091588 -67.99856224918598
-1.376676550535194e-14 8.377593783340606 -52.00617629301057
-1.332267629550188e-14 8.241137353595166 -27.55383447194888
-6.661338147750939e-16 9.153893949625459 -106.0305110214218
-0.5463382626696891 11.88717856017615 -59.95811520698828
-0.1792269904183073 11.4013015701572 -18.86707660684621
-5.329070518200751e-15 8.747674632084852 -10.30037880385193
-1.184466121629842 12.92926044810908 -99.30392658202061
-2.285562794084503 6.587018137220267 -111.874293875189
-1.965670119870444 14.02929793416585 -5.828753119532004
2.015525622070722 14.22227796672495 -25.98329928721509
-2.295390497472086 6.380858055069455 -100.3512454022704

CELLS 2946 12918
1 0
1 1
1 2
1 3
1 4
1 5
1 6
1 7
1 8
1 9
1 10
1 11
1 12
1 13
1 14
1 15
1 16
1 17
1 18
1 19
1 20
1 21
1 22
1 23
1 24
1 25
1 26
1 27
1 28
1 29
1 30
1 31
1 32
1 33
1 34
1 35
1 36
1 37
1 38
1 39
1 40
1 41
1 42
1 43
1 44
1 45
1 46
1 47
1 48
1 49
1 50
1 51
1 52
1 53
1 54
1 55
1 56
1 57
1 58
1 59
1 60
1 61
1 62
1 63
1 64
1 65
2 0 66
2 66 67
2 67 1
2 1 68
2 68 0
2 0 69
2 69 2
2 2 70
2 70 71
2 71 72
2 72 73
2 73 74
2 74 3
2 3 75
2 75 1
2 2 4
2 4 76
2 76 5
2 5 77
2 77 6
2 6 78
2 78 7
2 3 7
2 4 79
2 79 80
2 80 81
2 81 82
2 82 83
2 83 7
2 5 84
2 84 85
2 85 6
2 8 86
2 86 87
2 87 9
2 9 88
2 88 8
2 8 89
2 89 10
2 10 90
2 90 91
2 91 92
2 92 93
2 93 94
2 94 11
2 11 95
2 95 9
2 10 12
2 12 96
2 96 13
2 13 97
2 97 14
2 14 98
2 98 15
2 11 15
2 12 99
2 99 100
2 100 101
2 101 102
2 102 103
2 103 15
2 13 104
2 104 105
2 105 14
2 16 106
2 106 17
2 17 18
2 18 107
2 107 19
2 19 108
2 108 109
2 109 110
2 110 111
2 111 20
2 20 21
2 21 22
2 22 112
2 112 113
2 113 114
2 114 23
2 24 23
2 24 25
2 25 115
2 115 116
2 116 117
2 117 118
2 118 26
2 27 119
2 119 26
2 28 27
2 29 120
2 120 28
2 29 121
2 121 122
2 122 123
2 123 124
2 124 30
2 31 125
2 125 30
2 32 31
2 33 126
2 126 32
2 33 127
2 127 128
2 128 129
2 129 130
2 130 131
2 131 34
2 35 132
2 132 133
2 133 34
2 36 134
2 134 135
2 135 136
2 136 137
2 137 138
2 138 35
2 36 139
2 139 37
2 37 38
2 38 140
2 140 39
2 16 141
2 141 142
2 142 143
2 143 144
2 144 39
2 17 145
2 145 146
2 146 147
2 147 148
2 148 149
2 149 150
2 150 151
2 151 28
2 40 152
2 152 29
2 40 153
2 153 154
2 154 41
2 41 155
2 155 16
2 18 156
2 156 157
2 157 158
2 158 159
2 159 160
2 160 161
2 161 162
2 162 27
2 19 163
2 163 42
2 42 164
2 164 165
2 165 43
2 26 166
2 166 43
2 20 167
2 167 168
2 168 44
2 45 169
2 169 170
2 170 171
2 171 44
2 42 172
2 172 45
2 47 173
2 173 174
2 174 175
2 175 46
2 24 176
2 176 177
2 177 178
2 178 47
2 48 179
2 179 180
2 180 25
2 48 181
2 181 182
2 182 44
2 21 183
2 183 184
2 184 185
2 185 46
2 22 186
2 186 187
2 187 188
2 188 49
2 46 49
2 50 189
2 189 190
2 190 191
2 191 49
2 23 192
2 192 193
2 193 194
2 194 50
2 47 50
2 48 195
2 195 196
2 196 197
2 197 51
2 43 198
2 198 51
2 52 199
2 199 40
2 53 200
2 200 201
2 201 52
2 54 202
2 202 53
2 30 203
2 203 54
2 39 204
2 204 55
2 55 205
2 205 206
2 206 54
2 38 207
2 207 208
2 208 209
2 209 210
2 210 211
2 211 212
2 212 213
2 213 31
2 37 214
2 214 215
2 215 216
2 216 217
2 217 218
2 218 219
2 219 220
2 220 32
2 56 221
2 221 33
2 56 222
2 222 223
2 223 57
2 57 224
2 224 36
2 58 225
2 225 56
2 59 226
2 226 227
2 227 58
2 60 228
2 228 229
2 229 59
2 34 60
2 61 230
2 230 231
2 231 60
2 35 61
2 62 232
2 232 57
2 63 233
2 233 234
2 234 62
2 61 235
2 235 236
2 236 63
2 64 237
2 237 41
2 65 238
2 238 239
2 239 64
2 55 240
2 240 65
2 64 241
2 241 242
2 242 52
2 45 243
2 243 244
2 244 51
2 65 245
2 245 246
2 246 53
2 62 247
2 247 248
2 248 58
2 63 249
2 249 250
2 250 59
3 66 0 68
3 68 1 67
3 67 66 68
3 66 251 0
3 0 251 69
3 1 252 67
3 75 252 1
3 2 69 70
3 74 75 3
3 67 253 66
3 66 253 251
3 252 253 67
3 69 251 70
3 70 251 71
3 71 253 72
3 251 253 71
3 72 253 73
3 73 252 74
3 73 253 252
3 74 252 75
3 68 0 255
3 0 69 256
3 255 0 256
3 1 68 254
3 75 1 257
3 1 254 257
3 4 69 2
3 3 78 7
3 78 3 75
3 69 4 76
3 76 5 256
3 5 77 255
3 5 255 256
3 77 6 254
3 6 78 257
3 254 6 257
3 254 68 255
3 69 76 256
3 78 75 257
3 77 254 255
3 2 260 4
3 70 260 2
3 7 258 3
3 3 258 74
3 4 260 79
3 83 258 7
3 71 261 70
3 79 260 70
3 70 261 79
3 72 262 71
3 80 261 71
3 71 262 80
3 73 263 72
3 81 262 72
3 72 263 81
3 74 259 73
3 73 259 82
3 82 263 73
3 74 258 83
3 83 259 74
3 79 261 80
3 80 262 81
3 81 263 82
3 82 259 83
3 4 79 76
3 76 264 5
3 5 264 84
3 6 265 78
3 85 265 6
3 83 7 78
3 79 264 76
3 78 265 83
3 80 264 79
3 81 266 80
3 80 266 264
3 82 266 81
3 83 265 82
3 265 266 82
3 84 266 85
3 264 266 84
3 85 266 265
3 77 5 84
3 85 6 77
3 77 84 85
3 86 8 88
3 88 9 87
3 87 86 88
3 86 267 8
3 8 267 89
3 9 268 87
3 95 268 9
3 10 89 90
3 94 95 11
3 87 269 86
3 86 269 267
3 268 269 87
3 89 267 90
3 90 267 91
3 91 269 92
3 267 269 91
3 92 269 93
3 93 268 94
3 93 269 268
3 94 268 95
3 88 8 271
3 8 89 273
3 271 8 273
3 9 88 270
3 95 9 272
3 9 270 272
3 89 10 12
3 95 15 11
3 89 12 96
3 96 13 273
3 13 97 271
3 13 271 273
3 97 14 270
3 14 98 272
3 270 14 272
3 15 95 98
3 270 88 271
3 89 96 273
3 98 95 272
3 97 270 271
3 10 276 12
3 90 276 10
3 15 274 11
3 11 274 94
3 12 276 99
3 103 274 15
3 91 277 90
3 99 276 90
3 90 277 99
3 92 278 91
3 100 277 91
3 91 278 100
3 93 279 92
3 101 278 92
3 92 279 101
3 94 275 93
3 93 275 102
3 102 279 93
3 94 274 103
3 103 275 94
3 99 277 100
3 100 278 101
3 101 279 102
3 102 275 103
3 12 99 96
3 96 280 13
3 13 280 104
3 14 281 98
3 105 281 14
3 103 15 98
3 99 280 96
3 98 281 103
3 100 280 99
3 101 282 100
3 100 282 280
3 102 282 101
3 103 281 102
3 281 282 102
3 104 282 105
3 280 282 104
3 105 282 281
3 97 13 104
3 105 14 97
3 97 104 105
3 106 308 16
3 16 285 141
3 16 302 285
3 16 308 302
3 18 320 17
3 17 320 106
3 107 320 18
3 19 308 107
3 108 303 19
3 303 328 19
3 19 328 308
3 21 22 20
3 20 22 112
3 20 298 111
3 112 298 20
3 23 24 25
3 114 23 25
3 25 290 114
3 115 335 25
3 25 335 290
3 26 286 118
3 119 311 26
3 26 292 286
3 26 311 292
3 28 321 27
3 27 321 119
3 120 321 28
3 29 311 120
3 121 300 29
3 300 329 29
3 29 329 311
3 30 299 124
3 125 309 30
3 30 301 299
3 30 309 301
3 32 322 31
3 31 322 125
3 126 322 32
3 33 309 126
3 127 332 33
3 33 304 301
3 301 309 33
3 33 332 304
3 34 333 131
3 133 333 34
3 35 334 132
3 138 334 35
3 36 283 134
3 139 310 36
3 36 293 283
3 36 310 293
3 38 323 37
3 37 323 139
3 140 323 38
3 39 310 140
3 144 284 39
3 284 331 39
3 293 310 39
3 39 331 293
3 106 320 308
3 308 320 107
3 109 297 108
3 297 303 108
3 110 312 109
3 109 312 297
3 111 296 110
3 296 312 110
3 111 298 296
3 113 298 112
3 114 290 113
3 290 298 113
3 116 313 115
3 313 335 115
3 117 291 116
3 291 313 116
3 118 314 117
3 117 314 291
3 286 314 118
3 119 321 311
3 311 321 120
3 122 325 121
3 121 325 300
3 123 289 122
3 289 325 122
3 124 327 123
3 123 327 289
3 299 327 124
3 125 322 309
3 309 322 126
3 128 295 127
3 295 332 127
3 129 316 128
3 128 316 295
3 130 294 129
3 294 316 129
3 131 319 130
3 130 319 294
3 131 333 319
3 132 287 133
3 132 334 287
3 287 333 133
3 134 317 135
3 283 317 134
3 135 288 136
3 135 317 288
3 136 315 137
3 288 315 136
3 137 318 138
3 315 318 137
3 318 334 138
3 139 323 310
3 310 323 140
3 141 326 142
3 285 326 141
3 142 307 143
3 142 326 307
3 143 324 144
3 307 324 143
3 144 324 284
3 293 304 283
3 304 336 283
3 283 336 317
3 284 306 299
3 299 331 284
3 284 324 306
3 285 302 300
3 300 305 285
3 305 326 285
3 292 303 286
3 303 314 286
3 318 319 287
3 287 334 318
3 319 333 287
3 294 315 288
3 288 316 294
3 295 316 288
3 288 317 295
3 289 307 305
3 305 325 289
3 306 307 289
3 289 327 306
3 290 330 298
3 290 335 330
3 291 312 296
3 296 313 291
3 297 312 291
3 291 314 297
3 302 328 292
3 292 329 302
3 292 328 303
3 311 329 292
3 301 304 293
3 293 331 301
3 294 318 315
3 294 319 318
3 317 336 295
3 295 336 332
3 298 330 296
3 296 330 313
3 297 314 303
3 301 331 299
3 306 327 299
3 302 329 300
3 300 325 305
3 308 328 302
3 332 336 304
3 307 326 305
3 306 324 307
3 330 335 313
3 16 338 106
3 155 338 16
3 106 338 17
3 17 338 145
3 28 337 120
3 151 337 28
3 120 337 29
3 29 337 152
3 149 40 150
3 149 153 40
3 40 339 150
3 152 339 40
3 146 41 147
3 146 340 41
3 154 147 41
3 41 340 155
3 145 340 146
3 338 340 145
3 148 147 154
3 149 148 153
3 148 154 153
3 150 339 151
3 151 339 337
3 337 339 152
3 155 340 338
3 17 344 18
3 145 344 17
3 18 344 156
3 27 347 28
3 162 347 27
3 28 347 151
3 146 343 145
3 145 343 156
3 156 344 145
3 147 342 146
3 146 342 157
3 157 343 146
3 148 341 147
3 147 341 158
3 158 342 147
3 149 345 148
3 159 341 148
3 148 345 159
3 150 346 149
3 160 345 149
3 149 346 160
3 151 348 150
3 161 346 150
3 150 348 161
3 151 347 162
3 162 348 151
3 156 343 157
3 157 342 158
3 158 341 159
3 159 345 160
3 160 346 161
3 161 348 162
3 18 350 107
3 156 350 18
3 107 350 19
3 19 350 163
3 26 349 119
3 166 349 26
3 119 349 27
3 27 349 162
3 157 158 42
3 42 352 157
3 42 158 164
3 163 352 42
3 160 161 43
3 160 43 165
3 161 351 43
3 43 351 166
3 157 352 156
3 156 352 350
3 164 158 159
3 160 165 159
3 164 159 165
3 162 351 161
3 349 351 162
3 350 352 163
3 166 351 349
3 19 363 108
3 163 363 19
3 111 364 20
3 20 364 167
3 42 357 163
3 172 357 42
3 168 365 44
3 44 365 171
3 169 356 45
3 45 356 172
3 108 354 109
3 108 363 354
3 109 358 110
3 354 358 109
3 110 359 111
3 358 359 110
3 359 364 111
3 357 363 163
3 167 355 168
3 167 364 355
3 355 365 168
3 170 353 169
3 353 356 169
3 171 360 170
3 170 360 353
3 171 365 360
3 356 357 172
3 353 362 356
3 360 361 353
3 361 362 353
3 354 357 356
3 356 362 354
3 354 363 357
3 354 362 358
3 359 361 355
3 355 364 359
3 355 361 360
3 360 365 355
3 358 361 359
3 358 362 361
3 21 20 366
3 20 167 366
3 183 21 366
3 25 24 367
3 24 176 367
3 180 25 367
3 46 44 175
3 185 44 46
3 185 168 44
3 44 182 175
3 47 173 48
3 178 47 48
3 173 181 48
3 178 48 179
3 168 184 167
3 184 183 167
3 167 183 366
3 185 184 168
3 181 173 174
3 182 174 175
3 182 181 174
3 176 177 180
3 176 180 367
3 177 178 179
3 180 177 179
3 21 371 22
3 183 371 21
3 22 371 186
3 49 368 46
3 46 368 185
3 188 368 49
3 184 370 183
3 183 370 186
3 186 371 183
3 185 369 184
3 184 369 187
3 187 370 184
3 185 368 188
3 188 369 185
3 186 370 187
3 187 369 188
3 22 382 112
3 186 382 22
3 114 384 23
3 23 384 192
3 49 383 188
3 191 383 49
3 50 381 189
3 194 381 50
3 112 380 113
3 112 382 380
3 113 372 114
3 113 380 372
3 372 384 114
3 187 374 186
3 374 382 186
3 188 376 187
3 187 376 374
3 188 383 376
3 189 379 190
3 189 381 379
3 190 373 191
3 190 379 373
3 373 383 191
3 192 378 193
3 192 384 378
3 193 375 194
3 193 378 375
3 375 381 194
3 377 378 372
3 372 380 377
3 378 384 372
3 373 377 376
3 376 383 373
3 373 379 377
3 376 377 374
3 377 380 374
3 380 382 374
3 375 378 377
3 377 379 375
3 379 381 375
3 24 23 388
3 23 192 388
3 176 24 388
3 50 47 385
3 47 178 385
3 194 50 385
3 177 176 386
3 176 192 386
3 192 176 388
3 178 177 387
3 193 177 386
3 177 193 387
3 178 194 385
3 194 178 387
3 192 193 386
3 193 194 387
3 115 25 400
3 25 180 400
3 26 118 399
3 166 26 399
3 43 166 393
3 198 43 393
3 179 48 401
3 48 195 401
3 197 51 392
3 51 198 392
3 116 115 395
3 395 115 400
3 117 116 394
3 394 116 395
3 118 117 390
3 390 117 394
3 118 390 399
3 393 166 399
3 180 179 391
3 391 179 401
3 180 391 400
3 195 196 396
3 195 396 401
3 196 197 389
3 196 389 396
3 389 197 392
3 392 198 393
3 389 392 398
3 396 389 397
3 397 389 398
3 390 392 393
3 392 390 398
3 390 393 399
3 390 394 398
3 395 391 397
3 391 395 400
3 391 396 397
3 396 391 401
3 394 395 397
3 394 397 398
3 121 29 413
3 29 152 413
3 30 124 412
3 203 30 412
3 152 40 405
3 40 199 405
3 199 52 408
3 52 201 408
3 200 53 407
3 53 202 407
3 202 54 406
3 54 203 406
3 122 121 404
3 404 121 413
3 123 122 409
3 122 404 409
3 124 123 403
3 403 123 409
3 124 403 412
3 152 405 413
3 405 199 408
3 201 200 402
3 402 200 407
3 201 402 408
3 202 406 407
3 406 203 412
3 402 407 411
3 408 402 410
3 410 402 411
3 406 403 407
3 403 406 412
3 407 403 411
3 403 409 411
3 404 405 408
3 405 404 413
3 404 408 410
3 409 404 410
3 409 410 411
3 30 414 125
3 203 414 30
3 125 414 31
3 31 414 213
3 38 415 140
3 207 415 38
3 140 415 39
3 39 415 204
3 54 416 203
3 211 54 206
3 211 212 54
3 212 416 54
3 204 417 55
3 55 209 205
3 208 209 55
3 55 417 208
3 203 416 414
3 415 417 204
3 206 205 210
3 205 209 210
3 211 206 210
3 208 417 207
3 207 417 415
3 213 416 212
3 414 416 213
3 31 424 32
3 213 424 31
3 32 424 220
3 37 420 38
3 214 420 37
3 38 420 207
3 207 421 208
3 207 420 214
3 214 421 207
3 208 419 209
3 215 419 208
3 208 421 215
3 209 418 210
3 216 418 209
3 209 419 216
3 210 422 211
3 210 418 217
3 217 422 210
3 211 423 212
3 211 422 218
3 218 423 211
3 212 425 213
3 212 423 219
3 219 425 212
3 220 424 213
3 213 425 220
3 215 421 214
3 216 419 215
3 217 418 216
3 218 422 217
3 219 423 218
3 220 425 219
3 32 427 126
3 220 427 32
3 126 427 33
3 33 427 221
3 36 426 139
3 224 426 36
3 139 426 37
3 37 426 214
3 218 56 219
3 222 56 218
3 56 428 219
3 221 428 56
3 215 57 216
3 215 429 57
3 223 216 57
3 57 429 224
3 214 429 215
3 426 429 214
3 217 216 223
3 218 217 222
3 222 217 223
3 219 428 220
3 220 428 427
3 427 428 221
3 224 429 426
3 127 33 441
3 33 221 441
3 60 34 438
3 34 131 438
3 221 56 435
3 56 225 435
3 225 58 434
3 58 227 434
3 226 59 436
3 59 229 436
3 228 60 438
3 128 127 431
3 431 127 441
3 129 128 437
3 128 431 437
3 130 129 433
3 433 129 437
3 131 130 442
3 130 433 442
3 438 131 442
3 221 435 441
3 225 434 435
3 227 226 430
3 430 226 436
3 227 430 434
3 229 228 432
3 432 228 438
3 229 432 436
3 434 430 440
3 430 436 439
3 430 439 440
3 431 435 440
3 435 431 441
3 437 431 440
3 432 433 439
3 433 432 442
3 436 432 439
3 432 438 442
3 433 437 439
3 435 434 440
3 439 437 440
3 60 445 34
3 34 445 133
3 35 443 61
3 132 443 35
3 231 445 60
3 61 443 230
3 133 444 132
3 132 444 443
3 133 445 444
3 230 444 231
3 443 444 230
3 444 445 231
3 61 454 35
3 35 454 138
3 134 457 36
3 36 457 224
3 224 451 57
3 57 451 232
3 235 454 61
3 232 450 62
3 62 450 234
3 233 452 63
3 63 452 236
3 135 447 134
3 447 457 134
3 136 453 135
3 135 453 447
3 137 449 136
3 449 453 136
3 138 458 137
3 137 458 449
3 454 458 138
3 224 457 451
3 232 451 450
3 234 446 233
3 446 452 233
3 234 450 446
3 236 448 235
3 448 454 235
3 236 452 448
3 450 456 446
3 446 455 452
3 446 456 455
3 447 456 451
3 451 457 447
3 453 456 447
3 448 455 449
3 449 458 448
3 452 455 448
3 448 458 454
3 449 455 453
3 451 456 450
3 455 456 453
3 141 470 16
3 16 470 155
3 39 469 144
3 204 469 39
3 155 462 41
3 41 462 237
3 55 463 204
3 240 463 55
3 237 465 64
3 64 465 239
3 238 464 65
3 65 464 240
3 142 461 141
3 461 470 141
3 143 466 142
3 142 466 461
3 144 460 143
3 460 466 143
3 144 469 460
3 155 470 462
3 463 469 204
3 462 465 237
3 239 459 238
3 459 464 238
3 239 465 459
3 240 464 463
3 459 468 464
3 465 467 459
3 467 468 459
3 463 464 460
3 460 469 463
3 464 468 460
3 460 468 466
3 461 465 462
3 462 470 461
3 461 467 465
3 466 467 461
3 466 468 467
3 153 472 40
3 40 472 199
3 41 473 154
3 237 473 41
3 199 474 52
3 52 474 242
3 64 475 237
3 241 475 64
3 154 471 153
3 471 472 153
3 154 473 471
3 472 474 199
3 237 475 473
3 242 471 241
3 471 475 241
3 242 474 471
3 471 474 472
3 473 475 471
3 164 477 42
3 42 477 172
3 43 478 165
3 198 478 43
3 172 479 45
3 45 479 243
3 51 480 198
3 244 480 51
3 165 476 164
3 476 477 164
3 165 478 476
3 477 479 172
3 198 480 478
3 243 476 244
3 243 479 476
3 476 480 244
3 476 479 477
3 478 480 476
3 171 487 44
3 44 487 182
3 45 490 169
3 243 490 45
3 181 488 48
3 48 488 195
3 197 489 51
3 51 489 244
3 169 485 170
3 169 490 485
3 170 483 171
3 170 485 483
3 483 487 171
3 182 481 181
3 481 488 181
3 182 487 481
3 195 484 196
3 195 488 484
3 196 486 197
3 484 486 196
3 486 489 197
3 244 482 243
3 482 490 243
3 244 489 482
3 483 484 481
3 481 487 483
3 484 488 481
3 482 486 485
3 485 490 482
3 482 489 486
3 483 485 484
3 485 486 484
3 46 491 49
3 175 491 46
3 50 493 47
3 47 493 173
3 49 491 191
3 189 493 50
3 173 494 174
3 173 493 189
3 189 494 173
3 174 492 175
3 190 492 174
3 174 494 190
3 191 491 175
3 175 492 191
3 190 494 189
3 191 492 190
3 52 499 201
3 242 499 52
3 200 500 53
3 53 500 246
3 239 501 64
3 64 501 241
3 65 502 238
3 245 502 65
3 201 498 200
3 498 500 200
3 201 499 498
3 238 497 239
3 238 502 497
3 497 501 239
3 241 496 242
3 241 501 496
3 496 499 242
3 246 495 245
3 495 502 245
3 246 500 495
3 496 497 495
3 495 498 496
3 497 502 495
3 495 500 498
3 496 501 497
3 498 499 496
3 53 506 202
3 246 506 53
3 202 505 54
3 54 505 206
3 205 504 55
3 55 504 240
3 240 507 65
3 65 507 245
3 202 506 505
3 206 503 205
3 503 504 205
3 206 505 503
3 504 507 240
3 245 503 246
3 245 507 503
3 503 506 246
3 503 507 504
3 505 506 503
3 222 509 56
3 56 509 225
3 57 510 223
3 232 510 57
3 225 511 58
3 58 511 248
3 62 512 232
3 247 512 62
3 223 508 222
3 508 509 222
3 223 510 508
3 509 511 225
3 232 512 510
3 248 508 247
3 508 512 247
3 248 511 508
3 508 511 509
3 510 512 508
3 58 518 227
3 248 518 58
3 226 517 59
3 59 517 250
3 234 519 62
3 62 519 247
3 63 520 233
3 249 520 63
3 227 516 226
3 516 517 226
3 227 518 516
3 233 515 234
3 233 520 515
3 515 519 234
3 247 514 248
3 247 519 514
3 514 518 248
3 250 513 249
3 513 520 249
3 250 517 513
3 514 515 513
3 513 516 514
3 515 520 513
3 513 517 516
3 514 519 515
3 516 518 514
3 59 525 229
3 250 525 59
3 228 527 60
3 60 527 231
3 230 526 61
3 61 526 235
3 236 528 63
3 63 528 249
3 229 521 228
3 521 527 228
3 229 525 521
3 231 523 230
3 523 526 230
3 231 527 523
3 235 522 236
3 235 526 522
3 522 528 236
3 249 524 250
3 249 528 524
3 524 525 250
3 522 523 521
3 521 524 522
3 523 527 521
3 521 525 524
3 522 526 523
3 524 528 522
4 33 221 427 95
4 224 36 426 89
4 332 441 87 529
4 495 245 502 530
4 246 495 500 530
4 85 77 84 532
4 501 241 496 531
4 496 242 499 531
4 155 16 338 69
4 519 529 247 537
4 88 336 87 86
4 512 508 247 529
4 242 471 474 531
4 471 241 475 531
4 507 245 503 530
4 506 503 246 530
4 466 530 307 534
4 248 508 511 537
4 466 307 531 534
4 19 163 350 76
4 249 528 520 533
4 512 247 450 529
4 66 68 67 531
4 105 97 104 530
4 524 250 525 533
4 524 528 249 533
4 289 307 530 534
4 502 495 530 534
4 289 531 307 534
4 501 531 496 534
4 466 531 467 534
4 466 468 530 534
4 500 530 495 534
4 496 531 499 534
4 466 307 326 531
4 307 466 324 530
4 305 307 289 531
4 306 289 307 530
4 365 487 483 539
4 519 450 247 529
4 409 289 530 534
4 361 358 359 535
4 39 204 415 96
4 409 531 289 534
4 359 361 535 536
4 86 457 283 529
4 241 465 475 531
4 242 474 408 531
4 507 464 245 530
4 506 246 407 530
4 336 332 87 529
4 360 483 535 536
4 358 532 312 535
4 519 247 514 537
4 508 529 511 537
4 409 410 531 534
4 87 86 336 529
4 409 289 327 530
4 409 530 411 534
4 325 289 409 531
4 495 503 245 530
4 246 503 495 530
4 360 365 483 536
4 241 471 496 531
4 496 471 242 531
4 502 245 464 530
4 246 500 407 530
4 501 465 241 531
4 408 499 242 531
4 452 520 528 533
4 395 394 397 535
4 487 481 483 539
4 85 286 77 532
4 397 395 535 536
4 449 315 453 541
4 362 532 358 535
4 519 450 529 537
4 365 483 536 539
4 334 526 230 538
4 520 446 515 537
4 452 446 520 537
4 452 520 533 537
4 394 532 398 535
4 85 399 286 532
4 395 291 535 536
4 464 502 530 534
4 501 465 531 534
4 359 535 296 536
4 359 358 296 535
4 449 453 533 541
4 407 530 500 534
4 264 76 163 5
4 408 499 531 534
4 455 449 453 533
4 470 285 66 531
4 326 307 305 531
4 284 469 104 530
4 69 251 155 0
4 280 96 204 13
4 306 307 324 530
4 395 291 394 535
4 453 317 447 529
4 283 336 86 529
4 334 230 287 538
4 250 524 513 533
4 524 249 513 533
4 335 400 290 536
4 434 511 529 537
4 335 290 330 536
4 456 455 453 541
4 105 412 299 530
4 249 520 513 533
4 250 513 517 533
4 395 313 291 536
4 446 452 455 537
4 332 431 441 529
4 449 533 315 541
4 461 466 326 531
4 460 324 466 530
4 441 435 87 529
4 289 306 327 530
4 89 267 224 8
4 325 305 289 531
4 365 182 487 539
4 374 355 167 536
4 409 327 403 530
4 325 409 404 531
4 312 296 358 535
4 455 533 453 541
4 68 66 285 531
4 139 10 37 426
4 140 38 12 415
4 107 18 4 350
4 436 533 517 537
4 168 365 355 539
4 106 2 17 338
4 291 312 532 535
4 456 453 529 541
4 86 451 457 529
4 441 9 332 87
4 360 535 361 536
4 97 284 104 530
4 452 533 455 537
4 398 535 532 540
4 456 537 455 541
4 380 298 330 536
4 466 461 467 531
4 409 410 404 531
4 489 482 535 540
4 458 533 448 538
4 502 459 497 534
4 526 523 230 538
4 483 484 535 536
4 444 287 230 538
4 397 535 396 536
4 468 460 466 530
4 409 403 411 530
4 489 480 244 540
4 497 459 501 534
4 365 168 182 539
4 393 399 85 532
4 458 315 449 533
4 291 532 394 535
4 380 374 167 536
4 508 248 514 537
4 355 374 168 377
4 405 67 413 531
4 466 467 468 534
4 406 412 105 530
4 365 360 355 536
4 526 448 522 538
4 520 513 533 537
4 374 377 355 536
4 372 536 180 539
4 483 481 484 539
4 396 535 484 536
4 363 357 84 532
4 365 536 355 539
4 515 446 519 537
4 105 299 97 530
4 462 470 66 531
4 104 469 463 530
4 380 290 330 298
4 354 358 362 532
4 390 398 394 532
4 519 446 450 537
4 300 413 67 531
4 317 457 447 529
4 366 371 21 183
4 176 24 367 388
4 288 529 453 541
4 455 537 533 541
4 489 482 486 535
4 456 453 447 529
4 456 529 537 541
4 230 444 334 287
4 518 514 248 537
4 464 530 468 534
4 467 531 465 534
4 334 454 526 538
4 517 533 513 537
4 391 180 536 539
4 283 457 317 529
4 355 364 167 536
4 180 400 391 536
4 312 358 297 532
4 288 453 315 541
4 296 535 291 536
4 454 458 448 538
4 454 448 526 538
4 398 532 392 540
4 363 84 303 532
4 502 464 459 534
4 483 484 536 539
4 380 377 374 536
4 459 465 501 534
4 453 288 317 529
4 444 230 523 538
4 478 480 532 540
4 296 312 291 535
4 528 448 452 533
4 432 525 436 533
4 389 489 486 535
4 214 37 10 426
4 145 17 2 338
4 207 12 38 415
4 156 4 18 350
4 396 536 484 539
4 318 533 458 538
4 512 510 508 529
4 509 511 508 529
4 502 497 495 534
4 464 468 459 534
4 360 483 485 535
4 459 467 465 534
4 448 533 522 538
4 86 8 283 457
4 456 529 450 537
4 495 503 246 245
4 473 471 475 531
4 474 471 472 531
4 504 507 503 530
4 505 503 506 530
4 496 497 501 534
4 498 402 500 534
4 318 315 458 533
4 498 499 402 534
4 392 532 480 540
4 407 411 530 534
4 408 531 410 534
4 532 535 362 540
4 512 450 510 529
4 509 434 511 529
4 67 68 300 531
4 390 394 314 532
4 299 14 412 105
4 446 455 456 537
4 372 180 378 539
4 335 330 313 536
4 399 286 6 85
4 520 515 513 537
4 489 392 480 540
4 283 317 336 529
4 446 456 450 537
4 449 448 458 533
4 447 457 451 529
4 441 431 435 529
4 242 496 241 471
4 77 303 84 532
4 360 353 361 535
4 524 525 521 533
4 81 158 159 164
4 101 209 210 205
4 216 92 217 223
4 147 72 148 154
4 81 160 165 159
4 101 211 206 210
4 92 218 217 222
4 153 148 149 72
4 522 528 524 533
4 478 480 392 532
4 522 448 528 533
4 521 525 432 533
4 297 358 354 532
4 396 391 536 539
4 167 355 374 168
4 380 372 377 536
4 335 313 400 536
4 394 291 314 532
4 391 397 396 536
4 355 360 361 536
4 372 377 536 539
4 478 476 480 540
4 436 439 533 537
4 313 296 291 536
4 409 411 410 534
4 285 66 0 470
4 13 104 284 469
4 291 312 297 532
4 360 485 353 535
4 299 284 97 530
4 430 517 516 537
4 500 402 407 534
4 430 436 517 537
4 473 475 465 531
4 474 472 408 531
4 504 464 507 530
4 407 505 506 530
4 522 533 524 538
4 521 524 533 538
4 357 164 84 532
4 408 402 499 534
4 318 334 287 538
4 488 401 396 539
4 454 318 458 538
4 389 396 397 535
4 389 484 396 535
4 521 522 524 538
4 333 445 231 444
4 25 180 367 384
4 526 522 523 538
4 284 460 469 530
4 314 286 399 532
4 167 20 366 382
4 470 461 285 531
4 412 327 299 403
4 334 318 454 538
4 395 400 313 536
4 412 403 299 530
4 87 441 268 435
4 230 444 443 334
4 498 500 495 534
4 426 36 139 89
4 451 86 223 529
4 300 413 1 67
4 231 333 444 538
4 336 87 332 88
4 333 287 444 538
4 462 66 154 531
4 286 303 77 532
4 205 104 463 530
4 498 496 499 534
4 266 85 84 532
4 336 295 332 529
4 362 358 361 535
4 440 529 431 541
4 459 468 467 534
4 295 431 332 529
4 514 248 508 247
4 397 391 395 536
4 359 355 361 536
4 389 486 484 535
4 445 333 231 538
4 411 407 402 534
4 434 529 440 537
4 408 410 402 534
4 431 529 295 541
4 441 9 87 268
4 432 436 439 533
4 448 455 452 533
4 406 105 412 281
4 413 405 252 67
4 88 283 336 86
4 68 285 300 531
4 460 284 324 530
4 78 265 166 6
4 478 532 476 540
4 325 404 413 300
4 66 154 251 462
4 280 463 205 104
4 433 533 294 538
4 377 376 168 539
4 285 461 326 531
4 98 281 203 14
4 180 391 179 539
4 442 433 294 538
4 451 267 223 86
4 264 164 84 357
4 305 285 326 531
4 252 75 152 1
4 521 533 432 538
4 269 86 87 529
4 444 523 231 538
4 306 324 284 530
4 403 327 299 530
4 338 16 106 69
4 436 430 439 537
4 514 515 519 537
4 395 391 400 536
4 359 364 355 536
4 353 362 535 540
4 397 394 398 535
4 300 404 413 531
4 510 450 451 529
4 434 509 435 529
4 396 401 391 539
4 182 481 487 539
4 298 296 330 536
4 477 532 357 540
4 265 393 399 85
4 15 31 414 213
4 349 7 27 162
4 32 11 427 220
4 337 28 3 151
4 485 483 484 535
4 314 399 390 532
4 359 296 364 536
4 448 449 455 533
4 439 433 432 533
4 363 84 5 303
4 432 533 433 538
4 298 364 296 536
4 354 532 362 540
4 66 67 253 531
4 268 95 221 9
4 105 104 282 530
4 372 378 377 539
4 437 440 431 541
4 19 350 107 76
4 315 533 294 541
4 478 392 393 532
4 294 315 318 533
4 414 30 125 98
4 297 354 363 532
4 516 518 430 537
4 105 14 412 281
4 433 294 533 541
4 327 306 299 530
4 437 431 295 541
4 464 460 468 530
4 407 411 403 530
4 461 465 467 531
4 408 404 410 531
4 306 284 299 530
4 349 26 119 78
4 484 488 396 539
4 399 6 265 85
4 363 354 357 532
4 393 390 399 532
4 378 180 179 539
4 418 101 278 209
4 252 1 413 67
4 442 432 433 538
4 135 447 453 317
4 430 518 434 537
4 33 427 126 95
4 92 218 279 422
4 462 461 470 531
4 404 405 413 531
4 463 469 460 530
4 406 403 412 530
4 81 263 160 345
4 294 533 318 538
4 398 390 392 532
4 291 297 314 532
4 86 267 8 457
4 433 533 439 541
4 362 361 353 535
4 39 415 140 96
4 295 529 288 541
4 341 81 262 158
4 377 373 376 539
4 496 495 497 534
4 473 465 462 531
4 472 405 408 531
4 504 463 464 530
4 505 407 406 530
4 300 325 404 531
4 414 31 15 125
4 11 32 427 126
4 295 316 437 541
4 440 537 529 541
4 297 363 303 532
4 450 456 451 529
4 434 435 440 529
4 29 337 120 75
4 147 72 262 341
4 72 149 263 345
4 480 476 244 540
4 164 266 84 532
4 451 267 86 457
4 288 295 317 529
4 211 101 279 422
4 216 92 278 418
4 244 482 489 540
4 337 3 28 120
4 324 284 460 469
4 349 27 7 119
4 451 456 447 529
4 440 435 431 529
4 49 383 191 491
4 498 495 496 534
4 74 73 40 150
4 94 93 56 219
4 83 82 161 43
4 103 102 212 54
4 50 493 189 381
4 478 393 165 532
4 357 477 164 532
4 533 537 439 541
4 488 181 48 401
4 485 535 482 540
4 487 365 44 182
4 485 353 535 540
4 401 488 181 539
4 294 319 442 538
4 356 354 362 540
4 330 296 313 536
4 397 398 389 535
4 356 477 357 540
4 123 327 409 289
4 325 122 409 289
4 388 192 23 384
4 223 86 269 529
4 300 305 325 531
4 371 382 22 186
4 485 486 482 535
4 305 300 285 531
4 401 181 48 179
4 168 44 365 182
4 249 250 524 513
4 383 49 188 368
4 129 433 437 541
4 392 390 393 532
4 517 513 516 537
4 336 317 295 529
4 280 463 104 469
4 251 470 66 462
4 522 521 523 538
4 136 453 449 315
4 179 401 181 539
4 50 385 381 194
4 104 13 280 469
4 470 66 0 251
4 510 451 223 529
4 222 435 509 529
4 363 5 84 264
4 394 116 291 395
4 462 154 473 531
4 153 405 472 531
4 406 206 505 530
4 205 463 504 530
4 324 466 307 143
4 486 485 484 535
4 445 438 333 538
4 2 17 145 344
4 10 37 214 420
4 31 15 424 213
4 347 27 7 162
4 462 465 461 531
4 408 405 404 531
4 464 463 460 530
4 406 407 403 530
4 470 326 285 461
4 466 142 326 307
4 410 411 402 534
4 316 129 437 541
4 165 476 478 532
4 477 476 164 532
4 66 253 154 531
4 205 282 104 530
4 313 291 116 395
4 379 494 189 190
4 485 360 170 483
4 485 490 353 540
4 387 193 375 194
4 297 312 109 358
4 141 326 285 470
4 84 363 264 357
4 286 314 303 532
4 284 324 144 469
4 82 81 263 160
4 218 92 279 93
4 373 492 190 191
4 25 180 384 290
4 207 38 12 420
4 156 18 4 344
4 347 3 28 151
4 11 32 424 220
4 25 290 335 400
4 372 290 384 180
4 226 430 517 516
4 515 520 233 446
4 295 288 316 541
4 174 492 182 175
4 173 494 181 174
4 304 336 332 88
4 68 329 300 302
4 222 509 508 529
4 510 223 508 529
4 288 135 453 317
4 430 434 440 537
4 353 360 170 485
4 476 532 477 540
4 164 476 266 532
4 165 266 476 532
4 209 101 278 100
4 484 481 488 539
4 430 440 439 537
4 457 317 447 134
4 180 25 400 290
4 439 537 440 541
4 314 117 394 390
4 101 211 279 102
4 73 72 149 263
4 452 233 520 446
4 430 436 226 517
4 353 490 356 540
4 109 354 297 358
4 300 68 302 285
4 472 471 153 531
4 471 473 154 531
4 374 186 370 187
4 206 503 505 530
4 504 503 205 530
4 118 286 399 314
4 294 318 319 538
4 181 375 179 539
4 488 195 396 401
4 369 187 188 376
4 72 147 262 71
4 158 81 262 80
4 182 181 481 539
4 527 521 432 538
4 436 525 59 250
4 288 315 294 541
4 403 123 327 409
4 122 409 404 325
4 192 386 193 378
4 72 148 149 345
4 341 81 158 159
4 418 101 209 210
4 515 514 513 537
4 380 167 382 298
4 508 223 269 529
4 485 482 490 540
4 517 436 59 250
4 181 182 379 539
4 528 236 452 448
4 229 432 525 436
4 222 508 269 529
4 90 10 214 276
4 12 99 207 276
4 70 2 145 260
4 4 79 156 260
4 294 130 433 442
4 92 216 278 91
4 457 283 317 134
4 92 218 422 217
4 101 211 210 422
4 370 183 167 184
4 177 386 176 180
4 324 460 466 143
4 523 527 231 538
4 150 149 346 73
4 376 168 374 377
4 327 124 412 299
4 175 44 46 491
4 48 47 493 173
4 93 219 218 56
4 149 40 73 150
4 43 160 82 161
4 54 211 102 212
4 466 326 142 461
4 167 20 382 298
4 522 526 235 448
4 453 136 288 315
4 527 228 432 521
4 353 356 362 540
4 81 160 159 345
4 147 72 341 148
4 216 92 418 217
4 471 154 253 531
4 282 205 503 530
4 8 267 224 457
4 291 117 394 314
4 253 153 471 531
4 516 514 518 537
4 282 503 206 530
4 94 93 219 275
4 74 73 150 259
4 445 333 133 444
4 93 219 423 218
4 211 212 423 102
4 356 479 477 540
4 243 479 490 540
4 444 443 334 132
4 441 332 127 431
4 230 523 231 444
4 513 514 516 537
4 161 160 82 346
4 141 326 470 461
4 179 177 387 178
4 369 185 184 168
4 57 216 91 215
4 41 147 71 146
4 80 157 158 42
4 209 55 100 208
4 147 146 342 71
4 208 209 419 100
4 378 179 375 539
4 144 324 460 469
4 236 528 522 448
4 314 399 118 390
4 380 290 298 113
4 130 294 319 442
4 493 50 385 381
4 299 30 14 301
4 525 521 432 229
4 363 163 5 264
4 137 449 458 315
4 230 61 526 443
4 231 60 445 527
4 138 458 454 334
4 334 138 458 318
4 432 438 527 538
4 401 179 391 539
4 385 47 48 178
4 46 44 185 368
4 319 287 333 538
4 234 519 515 446
4 518 430 227 516
4 487 171 365 483
4 20 167 364 298
4 0 155 470 251
4 469 13 280 204
4 103 102 275 212
4 83 82 259 161
4 301 270 331 271
4 482 244 243 540
4 373 379 182 539
4 108 297 354 363
4 215 216 91 419
4 80 157 342 158
4 433 439 437 541
4 402 201 499 498
4 497 239 501 459
4 402 500 200 498
4 459 497 238 502
4 265 83 166 43
4 526 235 448 454
4 228 432 438 527
4 413 121 325 300
4 318 287 319 538
4 281 103 203 54
4 74 252 152 40
4 511 225 434 509
4 510 512 232 450
4 298 364 111 296
4 378 375 377 539
4 490 479 356 540
4 360 365 171 483
4 297 303 314 532
4 195 484 488 396
4 437 439 440 541
4 286 77 6 85
4 364 359 111 296
4 444 333 133 287
4 380 372 290 113
4 450 232 510 451
4 435 434 225 509
4 389 197 489 392
4 356 353 169 490
4 244 476 243 540
4 68 66 0 285
4 45 356 490 479
4 489 51 480 392
4 413 1 29 121
4 373 383 376 182
4 58 518 248 511
4 243 45 490 479
4 244 51 480 489
4 327 412 124 403
4 94 268 221 56
4 132 334 444 287
4 434 430 227 518
4 446 234 519 450
4 404 413 121 325
4 363 108 297 303
4 445 131 333 438
4 334 458 454 318
4 239 501 459 465
4 201 408 402 499
4 407 500 200 402
4 238 464 459 502
4 114 290 25 384
4 292 77 303 328
4 112 382 20 298
4 108 19 5 363
4 392 198 478 393
4 357 356 172 477
4 438 319 333 538
4 273 39 293 310
4 318 137 458 315
4 115 335 313 400
4 104 97 13 284
4 49 383 491 368
4 373 377 379 539
4 505 202 406 407
4 464 504 240 463
4 473 237 462 465
4 408 472 199 405
4 293 13 39 273
4 380 382 112 298
4 518 58 434 511
4 478 480 198 392
4 479 172 356 477
4 197 489 486 389
4 375 181 379 539
4 138 454 443 334
4 438 445 60 527
4 454 526 61 443
4 319 333 131 438
4 412 30 14 299
4 131 333 34 445
4 442 319 438 538
4 395 115 313 400
4 316 288 294 541
4 505 506 202 407
4 240 504 464 507
4 473 475 237 465
4 408 472 474 199
4 371 20 382 366
4 442 319 131 438
4 331 39 13 284
4 388 25 367 384
4 179 387 194 178
4 236 522 235 448
4 304 293 283 88
4 292 77 286 303
4 523 521 527 538
4 488 481 181 539
4 384 114 290 372
4 121 413 1 300
4 301 33 9 304
4 224 267 451 457
4 521 228 432 229
4 9 441 221 268
4 301 14 299 97
4 0 16 302 285
4 479 243 476 540
4 236 452 63 528
4 229 525 59 436
4 88 8 283 86
4 381 181 379 375
4 34 131 445 438
4 399 265 6 166
4 490 353 169 485
4 129 294 130 433
4 479 476 477 540
4 5 108 363 303
4 138 443 35 334
4 293 301 331 271
4 14 203 412 281
4 272 309 33 301
4 331 13 39 293
4 466 142 307 143
4 105 299 14 97
4 1 252 413 152
4 285 0 16 470
4 292 329 311 257
4 122 123 409 289
4 331 301 299 97
4 226 436 59 517
4 233 520 63 452
4 295 127 332 431
4 292 311 26 257
4 430 226 227 516
4 233 234 515 446
4 35 454 443 138
4 30 412 124 299
4 56 428 94 219
4 339 40 150 74
4 103 416 54 212
4 351 161 43 83
4 264 363 163 357
4 490 482 243 540
4 375 379 377 539
4 42 163 264 79
4 155 470 251 462
4 280 463 469 204
4 170 360 171 483
4 256 328 302 308
4 251 155 41 70
4 280 99 55 204
4 445 60 34 438
4 454 61 35 443
4 195 196 484 396
4 453 136 135 288
4 332 9 33 304
4 45 356 169 490
4 51 489 197 392
4 141 285 16 470
4 272 33 9 301
4 68 254 329 302
4 254 292 329 302
4 432 442 438 538
4 328 292 77 255
4 39 13 284 469
4 121 1 29 300
4 20 364 111 298
4 177 386 180 378
4 370 167 374 184
4 138 137 458 318
4 267 57 90 224
4 26 6 292 257
4 298 112 380 113
4 255 328 292 302
4 201 52 408 499
4 238 65 464 502
4 501 239 64 465
4 500 200 53 407
4 336 304 283 88
4 115 313 116 395
4 108 5 19 303
4 359 111 296 110
4 316 129 128 437
4 171 365 44 487
4 369 188 185 376
4 116 117 394 291
4 382 22 20 371
4 177 193 386 378
4 137 136 449 315
4 292 6 26 286
4 292 254 255 302
4 187 370 374 184
4 115 25 335 400
4 375 179 387 194
4 388 23 25 384
4 312 110 109 358
4 144 39 284 469
4 314 118 117 390
4 132 444 133 287
4 36 283 457 134
4 319 131 130 442
4 317 135 447 134
4 190 182 181 174
4 164 165 266 476
4 282 206 503 205
4 222 269 508 223
4 154 253 153 471
4 227 58 434 518
4 62 519 234 450
4 57 510 232 451
4 56 435 225 509
4 441 221 268 435
4 332 33 9 441
4 273 293 36 310
4 68 255 254 302
4 15 95 98 309
4 108 354 297 109
4 181 379 182 190
4 202 406 54 505
4 237 462 41 473
4 240 504 55 463
4 199 472 40 405
4 67 1 300 68
4 185 44 168 383
4 42 357 172 477
4 43 478 198 393
4 15 95 309 11
4 435 56 222 509
4 57 510 451 223
4 460 324 144 143
4 172 356 45 479
4 198 480 51 392
4 195 488 48 401
4 326 141 142 461
4 493 385 48 381
4 302 16 256 308
4 259 73 150 346
4 8 36 283 457
4 275 93 219 423
4 127 295 128 431
4 43 478 393 165
4 357 42 164 477
4 267 57 451 223
4 89 10 12 310
4 327 124 123 403
4 406 206 54 505
4 405 472 40 153
4 462 154 41 473
4 463 504 55 205
4 497 239 459 238
4 201 402 200 498
4 6 26 286 399
4 82 259 161 346
4 332 127 33 441
4 121 122 404 325
4 26 286 399 118
4 102 275 212 423
4 381 179 194 178
4 89 12 96 310
4 506 53 202 407
4 240 464 65 507
4 474 52 408 199
4 64 237 475 465
4 168 369 185 376
4 179 381 48 178
4 271 13 293 273
4 26 166 399 6
4 272 30 309 301
4 196 197 486 389
4 293 8 36 283
4 225 434 58 511
4 232 512 62 450
4 218 92 93 222
4 73 72 153 149
4 101 211 102 206
4 82 81 160 165
4 268 56 222 435
4 413 252 405 152
4 412 203 406 281
4 270 331 271 97
4 393 265 399 166
4 299 331 97 284
4 292 254 77 255
4 36 224 457 8
4 264 42 164 357
4 55 280 463 205
4 251 154 41 462
4 30 203 412 14
4 302 68 0 285
4 382 371 366 186
4 388 367 192 384
4 353 170 169 485
4 92 216 91 223
4 81 158 164 80
4 101 209 205 100
4 72 147 71 154
4 84 77 5 303
4 26 166 6 78
4 304 9 270 88
4 152 29 413 1
4 283 293 8 88
4 491 383 44 368
4 4 69 2 308
4 376 185 168 383
4 379 373 182 190
4 182 383 175 191
4 252 405 40 153
4 54 206 406 281
4 16 155 470 0
4 265 43 393 165
4 300 1 29 329
4 181 494 189 379
4 372 114 290 113
4 69 4 76 308
4 114 25 23 384
4 376 188 185 383
4 30 203 14 98
4 221 33 441 9
4 492 182 373 190
4 382 20 22 112
4 384 372 180 378
4 78 3 75 311
4 301 270 14 97
4 3 78 7 311
4 163 19 363 5
4 152 29 1 75
4 254 329 1 68
4 303 5 19 328
4 36 224 8 89
4 13 97 271 331
4 228 438 60 527
4 235 526 61 454
4 375 179 193 387
4 379 181 494 190
4 328 77 5 255
4 95 98 309 272
4 334 443 35 132
4 97 331 13 284
4 182 383 44 175
4 181 189 173 381
4 179 375 381 194
4 75 78 311 257
4 77 6 254 292
4 380 167 374 382
4 16 155 0 69
4 333 133 34 445
4 221 33 9 95
4 76 308 256 69
4 494 189 173 181
4 175 492 182 191
4 373 182 492 191
4 270 301 331 97
4 79 42 163 352
4 204 39 469 13
4 184 167 374 168
4 340 41 155 70
4 417 55 99 204
4 180 179 177 378
4 190 492 182 174
4 190 181 494 174
4 6 292 77 286
4 0 16 256 302
4 96 310 273 89
4 272 14 30 301
4 163 19 5 76
4 173 48 181 381
4 429 90 57 224
4 293 36 8 273
4 293 331 13 271
4 270 272 9 301
4 182 373 383 191
4 193 177 179 378
4 374 187 184 168
4 204 39 13 96
4 78 6 26 257
4 189 181 379 381
4 81 263 345 72
4 418 101 92 278
4 191 383 44 491
4 341 81 72 262
4 273 36 8 89
4 271 8 293 88
4 311 7 3 321
4 7 311 119 321
4 101 422 92 279
4 98 14 30 272
4 1 329 254 257
4 383 188 44 368
4 120 311 3 321
4 301 9 270 304
4 328 256 19 308
4 186 167 374 370
4 180 386 192 378
4 268 221 56 435
4 75 29 1 257
4 95 33 9 272
4 193 179 375 378
4 328 5 256 255
4 189 493 48 381
4 173 493 48 189
4 44 175 191 491
4 188 185 44 368
4 106 320 2 308
4 68 0 255 302
4 381 385 48 194
4 194 385 48 178
4 187 369 168 376
4 4 320 107 308
4 254 292 6 257
4 70 145 343 260
4 36 273 310 89
4 320 4 2 308
4 183 366 371 186
4 367 192 176 388
4 156 79 343 260
4 329 1 29 257
4 267 451 57 224
4 99 421 207 276
4 90 214 421 276
4 256 16 0 69
4 90 57 215 429
4 70 340 41 146
4 99 208 55 417
4 352 79 42 157
4 258 3 347 151
4 424 15 274 213
4 11 424 274 220
4 33 95 309 272
4 276 207 12 420
4 260 156 4 344
4 258 347 7 162
4 276 10 214 420
4 2 145 260 344
4 309 98 30 272
4 19 5 256 328
4 406 203 54 281
4 40 405 252 152
4 329 300 1 68
4 374 187 168 376
4 265 393 43 166
4 384 367 192 180
4 366 167 382 186
4 385 48 47 493
4 491 44 46 368
4 371 21 20 366
4 367 24 25 388
4 256 5 19 76
4 46 49 491 368
4 83 43 351 166
4 385 47 50 493
4 14 272 270 301
4 74 339 40 152
4 416 54 203 103
4 251 41 155 462
4 463 280 55 204
4 273 13 39 96
4 310 273 39 96
4 163 42 264 357
4 15 98 414 125
4 95 11 427 126
4 329 29 311 257
4 311 78 7 119
4 221 56 428 94
4 271 293 8 273
4 311 3 75 120
4 211 218 422 279
4 149 160 263 345
4 209 216 278 418
4 75 3 337 120
4 341 147 158 262
4 424 15 11 274
4 347 7 3 258
4 343 79 70 260
4 167 366 183 186
4 176 192 367 180
4 78 349 7 119
4 421 99 90 276
4 303 77 5 328
4 276 12 10 420
4 260 4 2 344
4 103 94 274 425
4 83 258 348 74
4 82 43 265 165
4 54 206 281 102
4 268 222 56 93
4 252 40 73 153
4 329 292 254 257
4 194 48 381 178
4 308 2 106 69
4 213 274 424 220
4 347 258 151 162
4 140 310 12 323
4 220 213 274 425
4 151 258 348 162
4 255 0 256 302
4 260 145 156 344
4 276 214 207 420
4 16 256 308 69
4 79 70 261 157
4 90 99 215 277
4 126 11 322 309
4 343 145 156 260
4 44 185 188 383
4 48 173 189 381
4 70 79 343 157
4 275 94 103 219
4 150 83 74 259
4 308 107 4 76
4 215 421 99 90
4 382 167 374 186
4 175 383 44 191
4 214 207 421 276
4 157 70 261 146
4 208 215 99 277
4 348 150 83 74
4 425 103 94 219
4 83 150 161 259
4 212 275 103 219
4 343 70 157 146
4 205 282 280 104
4 164 84 266 264
4 253 66 154 251
4 223 267 269 86
4 208 215 421 99
4 192 384 180 378
4 348 150 161 83
4 103 425 212 219
4 18 17 320 344
4 311 78 26 257
4 125 322 15 309
4 27 28 347 321
4 24 23 25 388
4 22 21 20 371
4 320 4 18 344
4 308 256 19 76
4 320 17 2 344
4 139 10 310 323
4 347 28 3 321
4 212 423 275 219
4 347 7 27 321
4 29 75 311 257
4 369 184 187 168
4 161 150 346 259
4 419 215 208 277
4 261 342 157 146
4 95 11 126 309
4 12 310 140 96
4 179 177 193 387
4 322 11 15 309
4 10 12 310 323
4 26 78 311 119
4 256 328 255 302
4 15 98 125 309
4 308 106 16 69
4 81 345 159 72
4 81 341 72 159
4 101 418 92 217
4 322 11 32 424
4 420 38 12 323
4 322 32 31 424
4 217 101 422 92
4 31 15 322 424
4 37 38 420 323
4 126 33 95 309
4 10 37 420 323
4 186 183 167 370
4 192 176 386 180
4 96 140 12 415
4 76 107 4 350
4 89 10 139 426
4 2 106 69 338
4 2 4 320 344
4 347 3 7 321
4 36 310 139 89
4 139 310 10 89
4 311 75 29 120
4 125 98 30 309
4 322 32 11 126
4 322 15 31 125
4 140 12 38 323
4 139 37 10 323
4 153 253 154 72
4 269 222 92 223
4 266 165 164 81
4 206 282 101 205
4 140 310 39 96
4 346 73 82 259
4 148 159 345 72
4 159 148 341 72
4 101 418 217 210
4 102 93 275 423
4 320 18 4 107
4 2 17 320 106
4 19 107 308 76
4 101 217 422 210
4 263 73 160 149
4 279 211 218 93
4 15 11 322 424
4 420 12 10 323
4 3 28 120 321
4 27 7 119 321
4 278 100 216 209
4 160 73 346 149
4 147 158 262 80
4 93 211 218 423
4 264 164 42 80
4 280 55 100 205
4 251 41 154 71
4 267 91 57 223
4 93 279 211 102
4 73 82 263 160
4 261 71 80 342
4 419 100 91 277
4 147 158 80 342
4 216 100 419 209
4 82 73 346 160
4 211 93 102 423
4 100 91 278 216
4 71 147 262 80
4 80 71 147 342
4 91 100 419 216
4 203 30 414 98
4 166 26 349 78
4 81 82 266 165
4 102 281 282 206
4 103 98 281 203
4 102 103 281 54
4 93 92 269 222
4 93 269 268 222
4 82 83 265 43
4 148 153 154 72
4 160 165 43 82
4 70 69 251 155
4 29 152 337 75
4 42 164 158 80
4 73 72 253 153
4 252 73 253 153
4 265 83 78 166
4 71 70 251 41
4 76 79 264 163
4 154 41 147 71
4 79 80 264 42
4 80 81 266 164
4 164 165 159 81
4 72 71 253 154
4 80 266 264 164
4 280 100 282 205
4 102 282 101 206
4 100 101 282 205
4 55 205 209 100
4 206 210 205 101
4 91 90 267 57
4 99 100 280 55
4 269 91 267 223
4 222 223 217 92
4 223 57 216 91
4 90 89 267 224
4 96 99 280 204
4 211 206 54 102
4 91 269 92 223
4 75 74 252 152
4 222 218 56 93
4 95 94 268 221
4 266 82 265 165
4 71 251 253 154
4 149 40 153 73
4 74 73 252 40
4 94 93 268 56
4 90 91 215 57
4 79 157 80 42
4 70 71 146 41
4 99 208 100 55
4 355 539 377 168
4 377 539 355 536
4 537 247 508 529
4 537 508 247 514
4 536 290 380 372
4 536 380 290 330
4 407 246 53 500
4 407 53 246 506
4 245 464 65 502
4 245 65 464 507
4 242 408 52 499
4 242 52 408 474
4 465 241 64 501
4 465 64 241 475
4 450 247 62 519
4 450 62 247 512
4 518 511 537 248
4 537 511 518 434
4 489 540 389 392
4 489 389 540 535
4 398 389 540 392
4 398 540 389 535
4 296 358 110 312
4 110 358 296 359
4 214 426 90 429
4 214 90 426 10
4 89 426 90 10
4 145 338 70 340
4 145 70 338 2
4 69 338 70 2
4 76 79 350 4
4 156 79 350 352
4 156 350 79 4
4 96 99 415 12
4 207 99 415 417
4 207 415 99 12
4 376 182 539 373
4 539 182 376 168
4 520 528 63 452
4 63 528 520 249
4 436 250 533 525
4 533 250 436 517
4 180 290 536 372
4 180 536 290 400
4 298 167 536 380
4 298 536 167 364
4 437 295 128 316
4 437 128 295 431
4 389 484 196 396
4 389 196 484 486
4 540 354 357 356
4 540 357 354 532
4 541 129 294 316
4 541 294 129 433
4 163 350 79 352
4 163 79 350 76
4 204 415 99 417
4 204 99 415 96
4 338 155 70 340
4 338 70 155 69
4 224 426 90 89
4 224 90 426 429
4 527 445 538 438
4 527 538 445 231
4 443 526 334 454
4 443 334 526 230
4 271 88 304 270
4 304 88 271 293
4 304 301 271 270
4 271 301 304 293
4 70 146 145 340
4 145 146 70 343
4 215 90 214 421
4 215 214 90 429
4 99 208 207 421
4 99 207 208 417
4 157 79 156 352
4 157 156 79 343
4 381 179 181 375
4 181 179 381 48
4 168 383 182 376
4 182 383 168 44
4 9 88 332 87
4 332 88 9 304
4 281 282 406 105
4 281 406 282 206
4 530 406 282 105
4 530 282 406 206
4 532 266 393 165
4 532 393 266 85
4 265 393 266 165
4 265 266 393 85
4 253 531 405 153
4 405 531 253 67
4 405 252 253 153
4 253 252 405 67
4 268 269 435 222
4 268 435 269 87
4 529 435 269 222
4 529 269 435 87
4 11 94 220 274
4 425 220 94 274
4 425 103 213 274
4 15 213 103 274
4 348 83 162 258
4 7 162 83 258
4 157 261 80 342
4 157 80 261 79
4 208 277 100 419
4 208 100 277 99
4 3 74 151 258
4 348 151 74 258
4 261 146 71 342
4 261 71 146 70
4 277 215 91 419
4 277 91 215 90
4 162 349 83 351
4 162 83 349 7
4 78 349 83 7
4 213 414 103 416
4 213 103 414 15
4 98 414 103 15
4 220 427 94 11
4 220 94 427 428
4 95 94 427 11
4 151 337 74 3
4 151 74 337 339
4 75 74 337 3
4 349 166 83 351
4 349 83 166 78
4 414 203 103 416
4 414 103 203 98
4 337 152 74 75
4 337 74 152 339
4 221 427 94 428
4 221 94 427 95
4 220 94 219 425
4 220 219 94 428
4 103 213 212 425
4 103 212 213 416
4 83 162 161 348
4 83 161 162 351
4 151 74 150 348
4 151 150 74 339

CELL_TYPES 2946
1
1
1
1
1
1
1
1
1
1
1
1
1
1
1
1
1
1
1
1
1
1
1
1
1
1
1
1
1
1
1
1
1
1
1
1
1
1
1
1
1
1
1
1
1
1
1
1
1
1
1
1
1
1
1
1
1
1
1
1
1
1
1
1
1
1
3
3
3
3
3
3
3
3
3
3
3
3
3
3
3
3
3
3
3
3
3
3
3
3
3
3
3
3
3
3
3
3
3
3
3
3
3
3
3
3
3
3
3
3
3
3
3
3
3
3
3
3
3
3
3
3
3
3
3
3
3
3
3
3
3
3
3
3
3
3
3
3
3
3
3
3
3
3
3
3
3
3
3
3
3
3
3
3
3
3
3
3
3
3
3
3
3
3
3
3
3
3
3
3
3
3
3
3
3
3
3
3
3
3
3
3
3
3
3
3
3
3
3
3
3
3
3
3
3
3
3
3
3
3
3
3
3
3
3
3
3
3
3
3
3
3
3
3
3
3
3
3
3
3
3
3
3
3
3
3
3
3
3
3
3
3
3
3
3
3
3
3
3
3
3
3
3
3
3
3
3
3
3
3
3
3
3
3
3
3
3
3
3
3
3
3
3
3
3
3
3
3
3
3
3
3
3
3
3
3
3
3
3
3
3
3
3
3
3
3
3
3
3
3
3
3
3
3
3
3
3
3
3
3
3
3
3
3
3
3
3
3
3
3
3
3
3
3
3
3
3
3
3
3
3
3
3
3
3
3
3
3
3
3
3
3
3
3
3
3
3
3
3
3
3
3
3
3
3
3
3
3
3
3
5
5
5
5
5
5
5
5
5
5
5
5
5
5
5
5
5
5
5
5
5
5
5
5
5
5
5
5
5
5
5
5
5
5
5
5
5
5
5
5
5
5
5
5
5
5
5
5
5
5
5
5
5
5
5
5
5
5
5
5
5
5
5
5
5
5
5
5
5
5
5
5
5
5
5
5
5
5
5
5
5
5
5
5
5
5
5
5
5
5
5
5
5
5
5
5
5
5
5
5
5
5
5
5
5
5
5
5
5
5
5
5
5
5
5
5
5
5
5
5
5
5
5
5
5
5
5
5
5
5
5
5
5
5
5
5
5
5
5
5
5
5
5
5
5
5
5
5
5
5
5
5
5
5
5
5
5
5
5
5
5
5
5
5
5
5
5
5
5
5
5
5
5
5
5
5
5
5
5
5
5
5
5
5
5
5
5
5
5
5
5
5
5
5
5
5
5
5
5
5
5
5
5
5
5
5
5
5
5
5
5
5
5
5
5
5
5
5
5
5
5
5
5
5
5
5
5
5
5
5
5
5
5
5
5
5
5
5
5
5
5
5
5
5
5
5
5
5
5
5
5
5
5
5
5
5
5
5
5
5
5
5
5
5
5
5
5
5
5
5
5
5
5
5
5
5
5
5
5
5
5
5
5
5
5
5
5
5
5
5
5
5
5
5
5
5
5
5
5
5
5
5
5
5
5
5
5
5
5
5
5
5
5
5
5
5
5
5
5
5
5
5
5
5
5
5
5
5
5
5
5
5
5
5
5
5
5
5
5
5
5
5
5
5
5
5
5
5
5
5
5
5
5
5
5
5
5
5
5
5
5
5
5
5
5
5
5
5
5
5
5
5
5
5
5
5
5
5
5
5
5
5
5
5
5
5
5
5
5
5
5
5
5
5
5
5
5
5
5
5
5
5
5
5
5
5
5
5
5
5
5
5
5
5
5
5
5
5
5
5
5
5
5
5
5
5
5
5
5
5
5
5
5
5
5
5
5
5
5
5
5
5
5
5
5
5
5
5
5
5
5
5
5
5
5
5
5
5
5
5
5
5
5
5
5
5
5
5
5
5
5
5
5
5
5
5
5
5
5
5
5
5
5
5
5
5
5
5
5
5
5
5
5
5
5
5
5
5
5
5
5
5
5
5
5
5
5
5
5
5
5
5
5
5
5
5
5
5
5
5
5
5
5
5
5
5
5
5
5
5
5
5
5
5
5
5
5
5
5
5
5
5
5
5
5
5
5
5
5
5
5
5
5
5
5
5
5
5
5
5
5
5
5
5
5
5
5
5
5
5
5
5
5
5
5
5
5
5
5
5
5
5
5
5
5
5
5
5
5
5
5
5
5
5
5
5
5
5
5
5
5
5
5
5
5
5
5
5
5
5
5
5
5
5
5
5
5
5
5
5
5
5
5
5
5
5
5
5
5
5
5
5
5
5
5
5
5
5
5
5
5
5
5
5
5
5
5
5
5
5
5
5
5
5
5
5
5
5
5
5
5
5
5
5
5
5
5
5
5
5
5
5
5
5
5
5
5
5
5
5
5
5
5
5
5
5
5
5
5
5
5
5
5
5
5
5
5
5
5
5
5
5
5
5
5
5
5
5
5
5
5
5
5
5
5
5
5
5
5
5
5
5
5
5
5
5
5
5
5
5
5
5
5
5
5
5
5
5
5
5
5
5
5
5
5
5
5
5
5
5
5
5
5
5
5
5
5
5
5
5
5
5
5
5
5
5
5
5
5
5
5
5
5
5
5
5
5
5
5
5
5
5
5
5
5
5
5
5
5
5
5
5
5
5
5
5
5
5
5
5
5
5
5
5
5
5
5
5
5
5
5
5
5
5
5
5
5
5
5
5
5
5
5
5
5
5
5
5
5
5
5
5
5
5
5
5
5
5
5
5
5
5
5
5
5
5
5
5
5
5
5
5
5
5
5
5
5
5
5
5
5
5
5
5
5
5
5
5
5
5
5
5
5
5
5
5
5
5
5
5
5
5
5
5
5
5
5
5
5
5
5
5
5
5
5
5
5
5
5
5
5
5
5
5
5
5
5
5
5
5
5
5
5
5
5
5
5
5
5
5
5
5
5
5
5
5
5
5
5
5
5
5
5
5
5
5
5
5
5
5
5
5
5
5
5
5
5
5
5
5
5
5
5
5
5
5
5
5
5
5
5
5
5
5
5
5
5
5
5
5
5
5
5
5
5
5
5
5
5
5
5
5
5
5
5
5
5
5
5
5
5
5
5
5
5
5
5
5
5
5
5
5
5
5
5
5
5
5
5
5
5
5
5
5
5
5
5
5
5
5
5
5
5
5
5
5
5
5
5
5
5
5
5
5
5
5
5
5
5
5
5
5
5
5
5
5
10
10
10
10
10
10
10
10
10
10
10
10
10
10
10
10
10
10
10
10
10
10
10
10
10
10
10
10
10
10
10
10
10
10
10
10
10
10
10
10
10
10
10
10
10
10
10
10
10
10
10
10
10
10
10
10
10
10
10
10
10
10
10
10
10
10
10
10
10
10
10
10
10
10
10
10
10
10
10
10
10
10
10
10
10
10
10
10
10
10
10
10
10
10
10
10
10
10
10
10
10
10
10
10
10
10
10
10
10
10
10
10
10
10
10
10
10
10
10
10
10
10
10
10
10
10
10
10
10
10
10
10
10
10
10
10
10
10
10
10
10
10
10
10
10
10
10
10
10
10
10
10
10
10
10
10
10
10
10
10
10
10
10
10
10
10
10
10
10
10
10
10
10
10
10
10
10
10
10
10
10
10
10
10
10
10
10
10
10
10
10
10
10
10
10
10
10
10
10
10
10
10
10
10
10
10
10
10
10
10
10
10
10
10
10
10
10
10
10
10
10
10
10
10
10
10
10
10
10
10
10
10
10
10
10
10
10
10
10
10
10
10
10
10
10
10
10
10
10
10
10
10
10
10
10
10
10
10
10
10
10
10
10
10
10
10
10
10
10
10
10
10
10
10
10
10
10
10
10
10
10
10
10
10
10
10
10
10
10
10
10
10
10
10
10
10
10
10
10
10
10
10
10
10
10
10
10
10
10
10
10
10
10
10
10
10
10
10
10
10
10
10
10
10
10
10
10
10
10
10
10
10
10
10
10
10
10
10
10
10
10
10
10
10
10
10
10
10
10
10
10
10
10
10
10
10
10
10
10
10
10
10
10
10
10
10
10
10
10
10
10
10
10
10
10
10
10
10
10
10
10
10
10
10
10
10
10
10
10
10
10
10
10
10
10
10
10
10
10
10
10
10
10
10
10
10
10
10
10
10
10
10
10
10
10
10
10
10
10
10
10
10
10
10
10
10
10
10
10
10
10
10
10
10
10
10
10
10
10
10
10
10
10
10
10
10
10
10
10
10
10
10
10
10
10
10
10
10
10
10
10
10
10
10
10
10
10
10
10
10
10
10
10
10
10
10
10
10
10
10
10
10
10
10
10
10
10
10
10
10
10
10
10
10
10
10
10
10
10
10
10
10
10
10
10
10
10
10
10
10
10
10
10
10
10
10
10
10
10
10
10
10
10
10
10
10
10
10
10
10
10
10
10
10
10
10
10
10
10
10
10
10
10
10
10
10
10
10
10
10
10
10
10
10
10
10
10
10
10
10
10
10
10
10
10
10
10
10
10
10
10
10
10
10
10
10
10
10
10
10
10
10
10
10
10
10
10
10
10
10
10
10
10
10
10
10
10
10
10
10
10
10
10
10
10
10
10
10
10
10
10
10
10
10
10
10
10
10
10
10
10
10
10
10
10
10
10
10
10
10
10
10
10
10
10
10
10
10
10
10
10
10
10
10
10
10
10
10
10
10
10
10
10
10
10
10
10
10
10
10
10
10
10
10
10
10
10
10
10
10
10
10
10
10
10
10
10
10
10
10
10
10
10
10
10
10
10
10
10
10
10
10
10
10
10
10
10
10
10
10
10
10
10
10
10
10
10
10
10
10
10
10
10
10
10
10
10
10
10
10
10
10
10
10
10
10
10
10
10
10
10
10
10
10
10
10
10
10
10
10
10
10
10
10
10
10
10
10
10
10
10
10
10
10
10
10
10
10
10
10
10
10
10
10
10
10
10
10
10
10
10
10
10
10
10
10
10
10
10
10
10
10
10
10
10
10
10
10
10
10
10
10
10
10
10
10
10
10
10
10
10
10
10
10
10
10
10
10
10
10
10
10
10
10
10
10
10
10
10
10
10
10
10
10
10
10
10
10
10
10
10
10
10
10
10
10
10
10
10
10
10
10
10
10
10
10
10
10
10
10
10
10
10
10
10
10
10
10
10
10
10
10
10
10
10
10
10
10
10
10
10
10
10
10
10
10
10
10
10
10
10
10
10
10
10
10
10
10
10
10
10
10
10
10
10
10
10
10
10
10
10
10
10
10
10
10
10
10
10
10
10
10
10
10
10
10
10
10
10
10
10
10
10
10
10
10
10
10
10
10
10
10
10
10
10
10
10
10
10
10
10
10
10
10
10
10
10
10
10
10
10
10
10
10
10
10
10
10
10
10
10
10
10
10
10
10
10
10
10
10
10
10
10
10
10
10
10
10
10
10
10
10
10
10
10
10
10
10
10
10
10
10
10
10
10
10
10
10
10
10
10
10
10
10
10
10
10
10
10
10
10
10
10
10
10
10
10
10
10
10
10
10
10
10
10
10
10
10
10
10
10
10
10
10
10
10
10
10
10
10
10
10
10
10
10
10
10
10
10
10
10
10
10
10
10
10
10
10
10
10
10
10
10
10
10
10
10
10
10
10
10
10
10
10
10
10
10
10
10
10
10
10
10
10
10
10
10
10
10
10
10
10
10
10
10
10
10
10
10
10
10
10
10
10
10
10
10
10
10
10
10
10
10
10
10
10
10
10
10
10
10
10
10
10
10
10
10
10
10
10
10
10
10
10
10
10
10
10
10
10
10
10
10
10
10
10
10
10
10
10
10
10
10
10
10
10
10
10
10
10
10
10
10
10
10
10
10
10
10
10
10
10
10
10
10
10
10
10
10
10
10
10
10
10
10
10
10
10
10
10
10
10
10
10
10
10
10
10
10
10
10
10
10
10
10
10
10
10
10
10
10
10
10
10
10
10
10
10
10
10
10
10
10
10
10
10
10
10
10
10
10
10
10
10
10
10
10
10
10
10
10
10
10
10
10
10
10
10
10
10
10
10
10
10
10
10
10
10
10
10
10
10
10
10
10
10
10
10
10
10
10
10
10
10
10
10
10
10
10
10
10
10
10
10
10
10
10
10
10
10
10
10
10
10
10
10
10
10
10
10
10
10
10
10
10
10
10
10
10
10
10
10
10
10
10
10
10
10
10
10
10
10
10
10
10
10
10
10
10
10
10
10
10
10
10
10
10
10
10
10
10
10
10
10
10
10
10
10
10
10
10
10
10
10
10
10
10
10
10
10
10
10
10
10
10
10
10
10
10
10
10
10
10
10
10
10
10
10
10
10
10
10
10
10
10
10
10
10
10
10
10
10
10
10
10
10
10
10
10
10
10
10
10
10
10
10
10
10
10
10
10
10
10
10
10
10
10
10
10
10
10
10
10
10
10
10
10
10
10
10
10
10
10
10
10
10
10
10
10
10
10
10
10
10
10
10
10
10
10
10
10
10
10
10
10
10
10
10
10
10
10
10
10
10
10
10
10
10
10
10
10
10
10
10
10
10
10
10
10
10
10
10
10
10
10
10
10
10
10
10
10
10
10
10
10
10
10
10
10
10
10
10
10
10
10
10
10
10
10
10
10
10
10
10
10
10
10
10
10
10
10
10
10
10
10
10
10
10
10
10
10
10
10
10
10
10
10
10
10
10
10
10
10
10
10
10
10
10
10
10
