# vtk DataFile Version 2.0
, Created by Gmsh 4.11.1 
ASCII
DATASET UNSTRUCTURED_GRID
POINTS 524 double
8.75 0 -44.08871347546398
14.12349064332649 0 -41.40306137483757
14.12349064332649 0 -38.59693862516243
8.75 0 -35.91128652453602
8.75 0 -3
11.75 0 -3
11.75 0 0
-11.75 0 0
-11.75 0 -3
-8.75 0 -3
-8.75 1.071565949253934e-15 -35.91128652453602
-14.12349064332649 1.729628760913738e-15 -38.59693862516243
-14.12349064332649 1.729628760913738e-15 -41.40306137483757
-8.75 1.071565949253934e-15 -44.08871347546398
-8.75 1.071565949253934e-15 -75.91128652453602
-14.12349064332649 1.729628760913738e-15 -78.59693862516242
-14.12349064332649 1.729628760913738e-15 -81.40306137483758
-8.75 1.071565949253934e-15 -84.08871347546398
-8.75 0 -120
8.75 0 -120
8.75 0 -84.08871347546398
14.12349064332649 0 -81.40306137483758
14.12349064332649 0 -78.59693862516242
8.75 0 -75.91128652453602
-8.75 10.14312637472072 -41.76679493372306
8.75 10.14312637472072 -41.76679493372306
8.75 10.14312637472071 -38.23320506627694
-8.75 10.14312637472071 -38.23320506627694
8.75 20 -3
8.75 20 -33.77797757740203
11.75 23 -3
-11.75 23 -3
-8.75 20 -3
11.75 23 0
-11.75 23 0
-8.75 20 -33.77797757740203
-8.75 20 -46.22202242259797
-8.75 20 -73.77797757740203
-8.75 10.14312637472073 -78.23320506627694
8.75 10.14312637472073 -78.23320506627694
-8.75 10.14312637472072 -81.76679493372305
8.75 10.14312637472072 -81.76679493372305
-8.75 20 -86.22202242259796
-8.75 20 -113.777977577402
-8.75 6.234218372384402 -120
8.75 6.234218372384402 -120
8.75 20 -86.22202242259796
8.75 20 -113.777977577402
8.75 20 -46.22202242259797
8.75 20 -73.77797757740203
6.330021152080012 2.218309896897432 -84.08871347546398
-6.330021152080011 2.218309896897434 -84.08871347546398
11.87554437403106 2.218309896897432 -81.40306137483756
-11.87554437403106 2.218309896897436 -81.40306137483756
11.87554437403106 2.218309896897432 -78.59693862516244
6.330021152080012 2.218309896897432 -75.91128652453602
-6.330021152080011 2.218309896897434 -75.91128652453602
-11.87554437403106 2.218309896897436 -78.59693862516244
6.330021152080012 2.218309896897432 -44.08871347546398
-6.330021152080011 2.218309896897434 -44.08871347546398
11.87554437403106 2.218309896897432 -41.40306137483757
-11.87554437403106 2.218309896897436 -41.40306137483757
11.87554437403106 2.218309896897432 -38.59693862516243
6.330021152080012 2.218309896897432 -35.91128652453602
-6.330021152080011 2.218309896897434 -35.91128652453602
-11.87554437403106 2.218309896897436 -38.59693862516243
8.75 0 -29.3290292196288
8.75 0 -22.74677191472158
8.75 0 -16.16451460981439
8.75 0 -9.582257304907195
5.875000000000016 0 0
3.730349362740526e-14 0 0
-5.874999999999972 0 0
-8.75 0 -9.582257304907213
-8.75 0 -16.16451460981444
-8.75 0 -22.74677191472163
-8.75 0 -29.32902921962882
-8.75 0 -50.45322808527839
-8.75 0 -56.8177426950928
-8.75 0 -63.1822573049072
-8.75 0 -69.54677191472162
-8.75 0 -90.07392789621998
-8.75 0 -96.05914231697598
-8.75 0 -102.044356737732
-8.75 0 -108.029571158488
-8.75 0 -114.014785579244
2.916666666666666 0 -120
-2.916666666666668 0 -120
8.75 0 -90.07392789621998
8.75 0 -96.05914231697598
8.75 0 -102.044356737732
8.75 0 -108.029571158488
8.75 0 -114.014785579244
8.75 0 -50.45322808527839
8.75 0 -56.8177426950928
8.75 0 -63.1822573049072
8.75 0 -69.54677191472162
12.72482537574828 6.12795292971834 -41.40306137483757
8.805852382761316 11.04218962729529 -41.40306137483757
3.14277232867631 13.76938524561781 -41.40306137483757
-3.142772328676219 13.76938524561783 -41.40306137483757
-8.805852382761266 11.04218962729533 -41.40306137483757
-12.72482537574826 6.127952929718374 -41.40306137483757
-8.749999999999998 5.169915251372958 -43.38240370475356
2.9932492418433 11.65245534731619 -42.4489994728192
-2.993249241843287 11.65245534731619 -42.4489994728192
8.750000000000002 5.169915251372959 -43.38240370475356
12.72482537574828 6.12795292971834 -38.59693862516243
8.805852382761316 11.04218962729529 -38.59693862516243
3.14277232867631 13.76938524561781 -38.59693862516243
-3.142772328676219 13.76938524561783 -38.59693862516243
-8.805852382761266 11.04218962729533 -38.59693862516243
-12.72482537574826 6.127952929718374 -38.59693862516243
8.750000000000002 5.16991525137295 -36.61759629524644
-2.993249241843322 11.65245534731622 -37.55100052718077
2.993249241843286 11.65245534731622 -37.55100052718077
-8.749999999999998 5.169915251372949 -36.61759629524644
8.75 6.666666666666651 -3
8.75 13.33333333333329 -3
8.75 20 -27.62238206192163
8.75 20 -21.46678654644125
8.75 20 -15.31119103096084
8.75 20 -9.155595515480417
8.75 15.07156318736035 -36.0055913218395
-5.875000000000016 23 -3
-3.730349362740526e-14 23 -3
5.874999999999972 23 -3
-11.75 5.749999999999988 -3
-11.75 11.49999999999999 -3
-11.75 17.24999999999999 -3
-8.75 13.33333333333335 -3
-8.75 6.666666666666705 -3
-2.916666666666666 20 -3
2.916666666666668 20 -3
11.75 5.749999999999988 -3
11.75 11.49999999999999 -3
11.75 17.24999999999999 -3
11.75 5.749999999999988 0
11.75 11.49999999999999 0
11.75 17.24999999999999 0
-5.875000000000016 23 0
-3.730349362740526e-14 23 0
5.874999999999972 23 0
-11.75 5.749999999999988 0
-11.75 11.49999999999999 0
-11.75 17.24999999999999 0
-8.75 20 -9.1555955154804
-8.75 20 -15.31119103096079
-8.75 20 -21.4667865464412
-8.75 20 -27.62238206192162
-8.75 15.07156318736035 -36.0055913218395
-8.75 15.07156318736037 -43.99440867816052
-8.75 20 -66.88898878870103
-8.75 20 -60
-8.75 20 -53.11101121129899
-8.75 15.07156318736035 -76.00559132183949
-8.749999999999998 5.169915251372963 -76.61759629524643
8.750000000000002 5.169915251372963 -76.61759629524643
-2.993249241843325 11.65245534731621 -77.55100052718078
2.993249241843289 11.65245534731621 -77.55100052718078
12.72482537574828 6.12795292971834 -78.59693862516242
8.805852382761316 11.04218962729529 -78.59693862516242
3.14277232867631 13.76938524561781 -78.59693862516242
-3.142772328676219 13.76938524561783 -78.59693862516242
-8.805852382761266 11.04218962729533 -78.59693862516242
-12.72482537574826 6.127952929718374 -78.59693862516242
12.72482537574828 6.12795292971834 -81.40306137483756
8.805852382761316 11.04218962729529 -81.40306137483756
3.14277232867631 13.76938524561781 -81.40306137483756
-3.142772328676219 13.76938524561783 -81.40306137483756
-8.805852382761266 11.04218962729533 -81.40306137483756
-12.72482537574826 6.127952929718374 -81.40306137483756
-8.749999999999998 5.169915251372958 -83.38240370475356
2.993249241843321 11.65245534731618 -82.4489994728192
-2.993249241843285 11.65245534731618 -82.4489994728192
8.750000000000002 5.169915251372959 -83.38240370475356
-8.75 15.07156318736037 -83.99440867816051
-8.75 20 -106.888988788701
-8.75 20 -100
-8.75 20 -93.11101121129899
-8.75 10.82281224825627 -117.9259925258007
-8.75 15.41140612412814 -115.8519850516014
2.916666666666666 6.234218372384402 -120
-2.916666666666668 6.234218372384402 -120
8.75 15.07156318736037 -83.99440867816051
8.75 20 -106.888988788701
8.75 20 -100
8.75 20 -93.11101121129899
8.75 10.82281224825627 -117.9259925258007
8.75 15.41140612412814 -115.8519850516014
8.75 15.07156318736037 -43.99440867816052
8.75 20 -66.88898878870103
8.75 20 -60
8.75 20 -53.11101121129899
8.75 15.07156318736035 -76.00559132183949
2.916666666666666 20 -46.22202242259797
-2.916666666666668 20 -46.22202242259797
2.916666666666666 20 -33.77797757740203
-2.916666666666668 20 -33.77797757740203
2.916666666666666 20 -73.77797757740203
-2.916666666666668 20 -73.77797757740203
2.916666666666666 20 -86.22202242259796
-2.916666666666668 20 -86.22202242259796
2.916666666666666 20 -113.777977577402
-2.916666666666668 20 -113.777977577402
2.68129803509879 6.148227991171832 -84.08871347546398
-2.681298035098788 6.148227991171834 -84.08871347546398
-1.953992523340276e-14 2.218309896897432 -84.08871347546398
9.107680900180352 2.218309896897432 -82.75601773683132
8.928574141810968 8.138182645556594 -81.40306137483756
3.306415238211532 11.61968464506574 -81.40306137483756
-3.306415238211476 11.61968464506575 -81.40306137483756
-8.928574141810952 8.13818264555661 -81.40306137483756
-9.107680900180361 2.218309896897432 -82.75601773683132
9.107680900180361 2.218309896897432 -77.24398226316868
1.598721155460225e-14 2.218309896897432 -75.91128652453602
-9.107680900180352 2.218309896897432 -77.24398226316868
8.928574141810968 8.138182645556594 -78.59693862516242
3.306415238211532 11.61968464506574 -78.59693862516242
-3.306415238211476 11.61968464506575 -78.59693862516242
-8.928574141810952 8.13818264555661 -78.59693862516242
2.68129803509879 6.148227991171832 -75.91128652453601
-2.681298035098788 6.148227991171834 -75.91128652453601
2.68129803509879 6.148227991171832 -44.08871347546398
-2.681298035098788 6.148227991171834 -44.08871347546398
-1.953992523340276e-14 2.218309896897432 -44.08871347546398
9.107680900180352 2.218309896897432 -42.75601773683132
8.928574141810968 8.138182645556594 -41.40306137483757
3.306415238211532 11.61968464506574 -41.40306137483757
-3.306415238211476 11.61968464506575 -41.40306137483757
-8.928574141810952 8.13818264555661 -41.40306137483757
-9.107680900180361 2.218309896897432 -42.75601773683132
9.107680900180361 2.218309896897432 -37.24398226316868
1.598721155460225e-14 2.218309896897432 -35.91128652453602
-9.107680900180352 2.218309896897432 -37.24398226316868
8.928574141810968 8.138182645556594 -38.59693862516243
3.306415238211532 11.61968464506574 -38.59693862516243
-3.306415238211476 11.61968464506575 -38.59693862516243
-8.928574141810952 8.13818264555661 -38.59693862516243
2.68129803509879 6.148227991171832 -35.91128652453602
-2.681298035098788 6.148227991171834 -35.91128652453602
8.881784197001252e-16 0 -115.3986266602203
-3.210211566421294 0 -92.45545576488496
3.432121956139053 0 -104.7772972111273
-4.138989378728207 0 -72.74282943516096
3.467691866540363 0 -46.88223067649702
-3.202389530202429 0 -32.3296011101114
-3.23816866514352 0 -60
-2.830949252551396 0 -4.136265943158485
-3.04959795970468 0 -19.45564326226804
3.398764944976412 0 -87.28786432848321
3.887786570775794 0 -66.36451460981441
3.049597959704679 0 -12.87338595736079
3.04959795970467 0 -26.03790056717519
-3.553108529952183 0 -39.4783216364916
-4.0617906133466 0 -78.75215479092932
3.672675977271059 0 -5.708751449193358
10.06436025189515 0 -40
-10.67418337163834 0 -39.94676751392772
-10.40761665389581 0 -79.82173639870419
10.06436025189516 0 -80
-3.566652264528327 0 -105.03696394811
-3.392866027880799 0 -47.27097078037119
4.054199301919487 0 -80.32358435627742
4.165411683736771 0 -40.32176952222159
3.080488714723109 0 -33.53527231823362
2.000433887925279 0 -72.85795089160774
3.235935075862156 0 -53.63548539018559
-2.53241236555398 0 -66.3790780677237
-3.483079967280369 0 -53.63548539018559
3.213184657832302 0 -60.27675439346989
-2.886506322145334 0 -85.49695010204314
2.855469565694362 0 -93.47713662921278
-2.008986436918387 0 -98.98601459077099
4.109919591940933 0 -19.45564326226799
-4.140477906040489 0 -25.97978921478102
-4.01327869853506 0 -12.18427075943373
3.926367250687504 0 -99.05174952735399
-3.59452890672348 0 -111.5360595242464
3.009611226938858 0 -110.7520035657971
-0.7344724099360089 0 -8.483626291493046
0.01366825156875073 0 -43.38882442812956
4.506502245102288 0 -115.7142314305501
-4.583484978748619 0 -115.8380503919704
-5.015740072204493 0 -7.477284059798492
-10.86127532010431 2.756973304295555 -42.86135213316505
10.86127532015653 2.756973304286685 -42.86135213314085
13.76938524561782 3.142772328676276 -40.03685014956395
11.0421896272953 8.805852382761305 -40.03685014956395
6.127952929718361 12.72482537574827 -40.03685014956395
-13.76938524561781 3.142772328676299 -40.03685014956395
0.03409685249170612 14.12344948505078 -40
-6.127952929718292 12.7248253757483 -40.03685014956395
-11.02089840865552 8.832484713727231 -40
-10.86127532012694 2.756973304292988 -37.1386478668456
10.86127532015431 2.756973304287957 -37.13864786685824
8.750000000000002 14.82600762416473 -18.74454027989002
8.750000000000002 5.436411251173117 -25.7951412426561
8.750000000000002 5.064024703240413 -12.89440041290973
8.750000000000002 10.40078908102482 -33.29331234261885
8.750000000000002 5.35311238394202 -19.43678740606304
8.750000000000002 15.1541341391856 -24.84534721729052
8.750000000000002 14.66909790817239 -12.23339327322063
8.750000000000002 15.22049766372798 -30.55600553369656
8.750000000000002 9.99242388400152 -8.462946893570138
8.750000000000002 5.185637434557811 -31.41247425190677
8.750000000000002 4.651196371139818 -7.652325339425428
8.750000000000002 9.944292346415176 -15.75314003006252
8.750000000000002 10.23507621994629 -22.06106314284484
8.750000000000002 15.43760917334159 -7.408898315202295
8.750000000000002 10.39335056775341 -27.93604263877024
10.25 3.10416666666666 -3
-10.25 3.104166666666674 -3
11.75 20.125 -1.5
11.75 8.624999999999988 -1.5
11.75 14.37499999999999 -1.5
11.75 2.874999999999994 -1.5
3.157610638484556 18.22886740495932 0
-2.707174061168084 4.878797530676509 0
7.069955745470663 8.71654637064 0
-6.619519168154191 14.39111856499582 0
7.102873022115112 14.37499999999999 0
0.1126091443291184 11.52691623390895 0
-7.000954855602266 8.644857627020135 0
-2.792058517349995 18.15992185565015 0
2.948495529093417 4.721447277005962 0
-7.528051718759411 18.81262893003678 0
7.528051718759418 4.187371069963204 0
7.820492259183634 19.07601590637069 0
-7.553981076842906 4.160878030182233 0
-11.75 20.125 -1.5
-11.75 14.37499999999999 -1.5
-11.75 8.624999999999988 -1.5
-11.75 2.874999999999994 -1.5
-8.749999999999998 14.82600762416472 -18.74454027989001
-8.749999999999998 5.436411251173113 -25.79514124265614
-8.749999999999998 5.064024703240421 -12.89440041290975
-8.749999999999998 10.40078908102482 -33.29331234261885
-8.749999999999998 5.353112383942016 -19.43678740606309
-8.749999999999998 15.1541341391856 -24.84534721729052
-8.749999999999998 14.66909790817242 -12.23339327322059
-8.749999999999998 15.22049766372799 -30.55600553369656
-8.749999999999998 9.992423884001562 -8.462946893570118
-8.749999999999998 5.185637434557815 -31.41247425190678
-8.749999999999998 4.65119637113984 -7.652325339425436
-8.749999999999998 9.944292346415184 -15.75314003006253
-8.749999999999998 10.2350762199463 -22.06106314284485
-8.749999999999998 15.43760917334161 -7.408898315202286
-8.749999999999998 10.39335056775343 -27.93604263877025
-8.749999999999998 4.499021046936049 -65.29944002272173
-8.749999999999998 4.49902104693605 -54.70055997727827
-8.749999999999998 10.37816223828638 -46.71905319313523
-8.749999999999998 10.37819436904513 -73.28101789388091
-8.749999999999998 14.73796205648302 -63.61052880252433
-8.749999999999998 14.85525063240149 -56.4172431206606
-8.749999999999998 9.057333405351724 -60.00396741759785
-8.749999999999998 15.49188012491445 -49.49006409441144
-8.749999999999998 15.43914508255707 -70.46676659518232
-8.749999999999998 5.123646802433368 -48.62481883067374
-8.749999999999998 5.123652157559826 -71.37519301716229
-8.749999999999998 10.12771091875417 -52.58661875586623
-8.749999999999998 10.10747447442195 -67.4125027182798
-8.749999999999998 3.611075099844764 -60.00079348351957
-10.86127532012664 2.756973304292571 -77.13864786684539
10.86127532015541 2.756973304289573 -77.13864786685896
13.76938524561782 3.142772328676279 -80.03685014956393
11.0421896272953 8.805852382761307 -80.03685014956395
-13.76938524561781 3.142772328676292 -80.03685014956395
6.127952929718361 12.72482537574827 -79.96314985043605
0.03409685249170612 14.12344948505078 -80
-6.127952929718287 12.7248253757483 -80.03685014956395
-11.04218962729527 8.805852382761346 -79.96314985043605
-10.86127532010408 2.756973304295224 -82.8613521331652
10.86127532015658 2.75697330428677 -82.8613521331408
-8.749999999999998 11.06424714173236 -113.0093579244836
-8.749999999999998 5.140261437611874 -98.23322257677717
-8.749999999999998 9.228405099539088 -87.68557274007746
-8.749999999999998 14.93978342883322 -103.7192013338642
-8.749999999999998 14.69916867092164 -96.66859401902792
-8.749999999999998 14.87431446393368 -90.14565773706832
-8.749999999999998 5.436607552346131 -110.5818867119927
-8.749999999999998 5.045341493098324 -104.486434723913
-8.749999999999998 5.093220735707041 -92.84879142505488
-8.749999999999998 15.14708222239645 -110.2128469724234
-8.749999999999998 5.592980885786526 -115.9220037902535
-8.749999999999998 4.147599909797018 -87.87068404319427
-8.749999999999998 10.31019752789224 -107.0016212777795
-8.749999999999998 10.22812332894692 -100
-8.749999999999998 10.11209207444317 -93.58275367720206
-5.52964042759961 3.117109186192199 -120
5.529640427599611 3.1171091861922 -120
0 3.1171091861922 -120
8.750000000000002 11.06424714173236 -113.0093579244836
8.750000000000002 5.140261437611874 -98.23322257677717
8.750000000000002 9.228405099539088 -87.68557274007746
8.750000000000002 14.93978342883322 -103.7192013338642
8.750000000000002 14.69916867092164 -96.66859401902792
8.750000000000002 14.87431446393368 -90.14565773706832
8.750000000000002 5.436607552346131 -110.5818867119927
8.750000000000002 5.045341493098324 -104.486434723913
8.750000000000002 5.09322073570704 -92.84879142505488
8.750000000000002 15.14708222239645 -110.2128469724234
8.750000000000002 5.592980885786526 -115.9220037902535
8.750000000000002 4.147599909797016 -87.87068404319427
8.750000000000002 10.31019752789224 -107.0016212777795
8.750000000000002 10.22812332894692 -100
8.750000000000002 10.11209207444317 -93.58275367720206
8.750000000000002 4.49902104693605 -65.29944002272174
8.750000000000002 4.49902104693605 -54.70055997727827
8.750000000000002 10.37816223828638 -46.71905319313523
8.750000000000002 10.37819436904513 -73.28101789388093
8.750000000000002 14.73796205648302 -63.61052880252433
8.750000000000002 14.85525063240149 -56.4172431206606
8.750000000000002 9.057333405351725 -60.00396741759785
8.750000000000002 15.49188012491445 -49.49006409441144
8.750000000000002 15.43914508255707 -70.46676659518232
8.750000000000002 5.123646802433369 -48.62481883067374
8.750000000000002 5.123652157559826 -71.37519301716229
8.750000000000002 10.12771091875417 -52.58661875586623
8.750000000000002 10.10747447442195 -67.4125027182798
8.750000000000002 3.611075099844764 -60.00079348351957
0 15.80371697275389 -44.32533629220676
-4.44936229491759 16.17558682587873 -44.49341847068541
4.449362294917591 16.17558682587873 -44.49341847068541
0 15.80371697275391 -35.67466370779323
-4.449362294917597 16.17558682587873 -35.50658152931459
4.449362294917596 16.17558682587873 -35.50658152931459
0 20 -29.00126160716333
0 20 -7.776715970238705
3.419097908172409 20 -18.38898878870104
-3.419097908172409 20 -18.38898878870099
2.968339215324164 20 -12.53192289597192
3.590143943771681 20 -25.08291850626771
-3.748275417153317 20 -11.74481400825953
-3.00170494102236 20 -24.30098674286749
-4.832988416763996 20 -6.935425098795726
4.726371175797381 20 -29.74421896979314
4.538893810071665 20 -7.304469848204407
-4.538893810071663 20 -29.47350772919763
8.812499999999986 23 -1.5
2.937499999999966 23 -1.5
-8.812500000000007 23 -1.5
-2.937500000000027 23 -1.499999999999999
0.07240384962440771 20 -69.11271674955412
-0.07611134875519454 20 -50.89100087736024
-3.905281612812212 20 -55.61513911118232
2.826623352787482 20 -56.53386385617253
-2.982953177190584 20 -63.13266944043029
3.874901226425774 20 -64.33362033631825
4.63343573413979 20 -50.59598415800554
-4.879611925646817 20 -50.4122392090075
-4.665443198846569 20 -69.3380660266979
4.872794348543369 20 -69.57825620587549
0 15.80371697275389 -75.67466370779324
-4.449362294917595 16.17558682587873 -75.50658152931459
4.449362294917593 16.17558682587873 -75.50658152931459
0 15.80371697275389 -84.32533629220676
-4.44936229491759 16.17558682587873 -84.4934184706854
4.449362294917591 16.17558682587873 -84.4934184706854
0.07611134875519987 20 -109.1089991226398
-0.07240384962440416 20 -90.88728325044588
3.905281612812215 20 -104.3848608888177
-2.826623352787475 20 -103.4661361438275
2.982953177190589 20 -96.86733055956971
-3.874901226425772 20 -95.66637966368175
-4.872794348543369 20 -90.4217437941245
4.66544319884657 20 -90.6619339733021
-4.633435734139789 20 -109.4040158419945
4.879611925646816 20 -109.5877607909925
4.861111111111111 13.1171091861922 -116.888988788701
-4.861111111111109 13.1171091861922 -116.888988788701
0 10.23848014298206 -118.1901059310262
0 15.9834435199278 -115.5934287560337
5.055555555555555 9.329367664439864 -118.6010174491056
-5.055555555555555 16.90239176604963 -115.178071550228
5.055555555555555 16.90239176604963 -115.178071550228
-5.055555555555555 9.329367664439864 -118.6010174491056
7.505396516419157 4.840353585228259 -82.97747486140283
-7.505396516414591 4.840353585225402 -82.97747486140553
-0.04029798801130676 9.255427124281791 -82.81520619223714
6.333821992762289 2.218309896897432 -79.47447311710481
-6.333821992762292 2.218309896897432 -80.52552688289521
9.660054508237025 2.218309896897432 -79.89489462342097
-9.660054508237026 2.218309896897432 -80.10510537657905
1.855984067710544 2.218309896897432 -80.3739014726653
-2.161571815426354 2.218309896897432 -79.3621429760193
10.81499237842448 5.383808394888723 -79.93655920736916
2.7564851986541e-14 12.08095414188192 -79.93655920736916
-10.81499237842448 5.383808394888733 -80.06344079263083
-6.360342390584165 10.2711001189158 -80.06344079263084
6.360342390584202 10.27110011891577 -80.06344079263084
-7.505396516414588 4.840353585225396 -77.02252513859446
7.505396516419165 4.840353585228266 -77.02252513859716
1.458123854157845e-14 9.025587267810108 -77.06987679362724
7.505396516419158 4.840353585228262 -42.97747486140283
-7.505396516414588 4.840353585225404 -42.97747486140553
1.458123854157845e-14 9.025587267810106 -42.93012320637276
-6.333821992762292 2.218309896897432 -40.5255268828952
6.333821992762289 2.218309896897432 -39.47447311710481
9.660054508237025 2.218309896897432 -39.89489462342097
-9.660054508237025 2.218309896897432 -40.10510537657904
1.855984067710546 2.218309896897432 -40.3739014726653
-2.161571815426353 2.218309896897432 -39.36214297601931
10.81499237842448 5.383808394888724 -40.06344079263085
-10.81499237842448 5.383808394888729 -39.93655920736919
2.7564851986541e-14 12.08095414188192 -39.93655920736916
-6.329449992267914 10.29016597405667 -40
6.391177358340479 10.25194152112125 -40
-7.505396516414586 4.840353585225395 -37.02252513859447
7.505396516419158 4.840353585228271 -37.02252513859717
1.257715558248116e-14 9.025587267810106 -37.06987679362724
1.77635683940025e-15 10.78875171689077 -28.47343104585966
1.908195823574488e-15 10.66004055023838 -91.67647491825601
8.126904739176408e-16 10.7762658284629 -68.41277294846591
1.77635683940025e-15 10.77657596713784 -51.58572035683157
-3.552713678800501e-15 10.90691310203235 -12.11424001844787
3.552713678800501e-15 9.620870316214148 -109.170188346208
0.5596540856959944 8.049590168412465 -20.27362400833147
8.881784197001252e-15 9.91592475826641 -100.4099939498123
1.77635683940025e-15 8.237178474689024 -59.99919985198201
-2.232522879461033 13.71413558678313 -6.299205029526446
-2.074140068492171 6.709594485040832 -6.87061099445201
-2.91596876888142 13.59061034706064 -21.87021249792852
-2.814629708106446 6.026157502436055 -113.6252252296076

CELLS 2853 12509
1 0
1 1
1 2
1 3
1 4
1 5
1 6
1 7
1 8
1 9
1 10
1 11
1 12
1 13
1 14
1 15
1 16
1 17
1 18
1 19
1 20
1 21
1 22
1 23
1 24
1 25
1 26
1 27
1 28
1 29
1 30
1 31
1 32
1 33
1 34
1 35
1 36
1 37
1 38
1 39
1 40
1 41
1 42
1 43
1 44
1 45
1 46
1 47
1 48
1 49
1 50
1 51
1 52
1 53
1 54
1 55
1 56
1 57
1 58
1 59
1 60
1 61
1 62
1 63
1 64
1 65
2 0 1
2 1 2
2 2 3
2 3 66
2 66 67
2 67 68
2 68 69
2 69 4
2 4 5
2 5 6
2 6 70
2 70 71
2 71 72
2 72 7
2 8 7
2 8 9
2 9 73
2 73 74
2 74 75
2 75 76
2 76 10
2 11 10
2 12 11
2 13 12
2 13 77
2 77 78
2 78 79
2 79 80
2 80 14
2 15 14
2 16 15
2 17 16
2 17 81
2 81 82
2 82 83
2 83 84
2 84 85
2 85 18
2 19 86
2 86 87
2 87 18
2 20 88
2 88 89
2 89 90
2 90 91
2 91 92
2 92 19
2 20 21
2 21 22
2 22 23
2 0 93
2 93 94
2 94 95
2 95 96
2 96 23
2 1 97
2 97 98
2 98 99
2 99 100
2 100 101
2 101 102
2 102 12
2 24 103
2 103 13
2 25 104
2 104 105
2 105 24
2 25 106
2 106 0
2 2 107
2 107 108
2 108 109
2 109 110
2 110 111
2 111 112
2 112 11
2 3 113
2 113 26
2 27 114
2 114 115
2 115 26
2 10 116
2 116 27
2 4 117
2 117 118
2 118 28
2 29 119
2 119 120
2 120 121
2 121 122
2 122 28
2 26 123
2 123 29
2 31 124
2 124 125
2 125 126
2 126 30
2 8 127
2 127 128
2 128 129
2 129 31
2 32 130
2 130 131
2 131 9
2 32 132
2 132 133
2 133 28
2 5 134
2 134 135
2 135 136
2 136 30
2 6 137
2 137 138
2 138 139
2 139 33
2 30 33
2 34 140
2 140 141
2 141 142
2 142 33
2 7 143
2 143 144
2 144 145
2 145 34
2 31 34
2 32 146
2 146 147
2 147 148
2 148 149
2 149 35
2 27 150
2 150 35
2 36 151
2 151 24
2 37 152
2 152 153
2 153 154
2 154 36
2 38 155
2 155 37
2 14 156
2 156 38
2 23 157
2 157 39
2 38 158
2 158 159
2 159 39
2 22 160
2 160 161
2 161 162
2 162 163
2 163 164
2 164 165
2 165 15
2 21 166
2 166 167
2 167 168
2 168 169
2 169 170
2 170 171
2 171 16
2 40 172
2 172 17
2 41 173
2 173 174
2 174 40
2 41 175
2 175 20
2 42 176
2 176 40
2 43 177
2 177 178
2 178 179
2 179 42
2 44 180
2 180 181
2 181 43
2 18 44
2 45 182
2 182 183
2 183 44
2 19 45
2 46 184
2 184 41
2 47 185
2 185 186
2 186 187
2 187 46
2 45 188
2 188 189
2 189 47
2 48 190
2 190 25
2 49 191
2 191 192
2 192 193
2 193 48
2 39 194
2 194 49
2 48 195
2 195 196
2 196 36
2 29 197
2 197 198
2 198 35
2 49 199
2 199 200
2 200 37
2 46 201
2 201 202
2 202 42
2 47 203
2 203 204
2 204 43
2 50 205
2 205 206
2 206 51
2 51 207
2 207 50
2 50 208
2 208 52
2 52 209
2 209 210
2 210 211
2 211 212
2 212 53
2 53 213
2 213 51
2 52 54
2 54 214
2 214 55
2 55 215
2 215 56
2 56 216
2 216 57
2 53 57
2 54 217
2 217 218
2 218 219
2 219 220
2 220 57
2 55 221
2 221 222
2 222 56
2 58 223
2 223 224
2 224 59
2 59 225
2 225 58
2 58 226
2 226 60
2 60 227
2 227 228
2 228 229
2 229 230
2 230 61
2 61 231
2 231 59
2 60 62
2 62 232
2 232 63
2 63 233
2 233 64
2 64 234
2 234 65
2 61 65
2 62 235
2 235 236
2 236 237
2 237 238
2 238 65
2 63 239
2 239 240
2 240 64
3 1 257 0
3 0 245 93
3 0 264 245
3 257 264 0
3 2 257 1
3 3 257 2
3 66 265 3
3 3 264 257
3 3 265 264
3 6 4 5
3 70 4 6
3 4 256 69
3 70 256 4
3 7 8 9
3 9 72 7
3 9 248 72
3 73 284 9
3 9 284 248
3 11 258 10
3 10 246 76
3 10 254 246
3 10 258 254
3 12 258 11
3 13 258 12
3 77 262 13
3 254 258 13
3 13 262 254
3 15 259 14
3 14 244 80
3 14 255 244
3 14 259 255
3 16 259 15
3 17 259 16
3 81 271 17
3 255 259 17
3 17 271 255
3 18 283 85
3 87 283 18
3 19 282 86
3 92 282 19
3 21 260 20
3 20 250 88
3 20 263 250
3 260 263 20
3 22 260 21
3 23 260 22
3 96 266 23
3 23 263 260
3 23 266 263
3 67 253 66
3 253 265 66
3 68 274 67
3 67 274 253
3 69 252 68
3 252 274 68
3 69 256 252
3 71 256 70
3 72 248 71
3 248 256 71
3 74 276 73
3 276 284 73
3 75 249 74
3 249 276 74
3 76 275 75
3 75 275 249
3 246 275 76
3 78 269 77
3 77 269 262
3 79 247 78
3 247 269 78
3 80 268 79
3 79 268 247
3 244 268 80
3 82 242 81
3 242 271 81
3 83 273 82
3 82 273 242
3 84 261 83
3 261 273 83
3 85 278 84
3 84 278 261
3 85 283 278
3 86 241 87
3 86 282 241
3 241 283 87
3 88 272 89
3 250 272 88
3 89 277 90
3 272 277 89
3 90 243 91
3 90 277 243
3 91 279 92
3 243 279 91
3 279 282 92
3 93 267 94
3 245 267 93
3 94 270 95
3 267 270 94
3 95 251 96
3 95 270 251
3 251 266 96
3 241 279 278
3 278 283 241
3 241 282 279
3 250 271 242
3 242 272 250
3 242 273 272
3 243 273 261
3 261 279 243
3 243 277 273
3 255 266 244
3 266 268 244
3 262 267 245
3 245 281 262
3 264 281 245
3 246 265 253
3 253 275 246
3 254 265 246
3 267 269 247
3 247 270 267
3 268 270 247
3 248 280 256
3 248 284 280
3 249 274 252
3 252 276 249
3 253 274 249
3 249 275 253
3 263 271 250
3 251 268 266
3 251 270 268
3 256 280 252
3 252 280 276
3 262 281 254
3 264 265 254
3 254 281 264
3 263 266 255
3 255 271 263
3 278 279 261
3 262 269 267
3 273 277 272
3 280 284 276
3 0 286 1
3 106 286 0
3 1 286 97
3 12 285 13
3 102 285 12
3 13 285 103
3 101 24 102
3 101 105 24
3 103 102 24
3 97 25 98
3 25 97 106
3 104 98 25
3 97 286 106
3 99 98 104
3 100 99 105
3 105 99 104
3 101 100 105
3 103 285 102
3 1 287 2
3 97 287 1
3 2 287 107
3 11 290 12
3 112 290 11
3 12 290 102
3 98 288 97
3 107 287 97
3 97 288 107
3 99 289 98
3 108 288 98
3 98 289 108
3 100 291 99
3 109 289 99
3 99 291 109
3 101 292 100
3 110 291 100
3 100 292 110
3 102 293 101
3 111 292 101
3 101 293 111
3 102 290 112
3 112 293 102
3 107 288 108
3 108 289 109
3 109 291 110
3 110 292 111
3 111 293 112
3 2 295 3
3 107 295 2
3 3 295 113
3 10 294 11
3 116 294 10
3 11 294 112
3 107 108 26
3 107 26 113
3 26 108 115
3 111 112 27
3 111 27 114
3 27 112 116
3 113 295 107
3 115 108 109
3 115 109 110
3 111 114 110
3 115 110 114
3 112 294 116
3 3 305 66
3 113 305 3
3 69 306 4
3 4 306 117
3 26 299 113
3 123 299 26
3 118 309 28
3 28 309 122
3 119 303 29
3 29 303 123
3 66 297 67
3 66 305 297
3 67 300 68
3 297 300 67
3 68 298 69
3 68 300 298
3 298 306 69
3 299 305 113
3 117 304 118
3 117 306 304
3 304 309 118
3 120 301 119
3 301 303 119
3 121 296 120
3 296 301 120
3 122 302 121
3 121 302 296
3 122 309 302
3 123 303 299
3 296 308 301
3 302 307 296
3 307 308 296
3 297 308 300
3 305 310 297
3 297 310 308
3 300 307 298
3 304 306 298
3 298 307 304
3 303 310 299
3 299 310 305
3 300 308 307
3 301 310 303
3 308 310 301
3 304 307 302
3 302 309 304
3 5 4 311
3 4 117 311
3 134 5 311
3 9 8 312
3 8 127 312
3 131 9 312
3 30 28 126
3 136 28 30
3 28 136 118
3 28 133 126
3 31 124 32
3 129 31 32
3 124 132 32
3 129 32 130
3 135 117 118
3 135 134 117
3 117 134 311
3 136 135 118
3 132 124 125
3 126 133 125
3 133 132 125
3 127 128 131
3 127 131 312
3 128 129 130
3 128 130 131
3 5 316 6
3 134 316 5
3 6 316 137
3 33 313 30
3 30 313 136
3 139 313 33
3 135 314 134
3 134 314 137
3 137 316 134
3 136 315 135
3 138 314 135
3 135 315 138
3 136 313 139
3 139 315 136
3 137 314 138
3 138 315 139
3 6 327 70
3 137 327 6
3 72 329 7
3 7 329 143
3 33 328 139
3 142 328 33
3 34 326 140
3 145 326 34
3 70 325 71
3 70 327 325
3 71 318 72
3 71 325 318
3 318 329 72
3 138 319 137
3 319 327 137
3 139 321 138
3 138 321 319
3 139 328 321
3 140 324 141
3 140 326 324
3 141 317 142
3 141 324 317
3 317 328 142
3 143 323 144
3 143 329 323
3 144 320 145
3 144 323 320
3 320 326 145
3 317 322 321
3 321 328 317
3 317 324 322
3 322 323 318
3 318 325 322
3 323 329 318
3 321 322 319
3 322 325 319
3 325 327 319
3 320 323 322
3 322 324 320
3 324 326 320
3 8 7 333
3 7 143 333
3 127 8 333
3 34 31 330
3 31 129 330
3 145 34 330
3 128 127 332
3 127 143 332
3 143 127 333
3 129 128 331
3 128 144 331
3 144 128 332
3 129 145 330
3 145 129 331
3 143 144 332
3 144 145 331
3 73 9 344
3 9 131 344
3 10 76 343
3 116 10 343
3 27 116 337
3 150 27 337
3 130 32 347
3 32 146 347
3 149 35 341
3 35 150 341
3 74 73 336
3 336 73 344
3 75 74 338
3 74 336 338
3 76 75 335
3 335 75 338
3 76 335 343
3 337 116 343
3 131 130 342
3 342 130 347
3 131 342 344
3 146 147 340
3 146 340 347
3 147 148 334
3 147 334 340
3 148 149 339
3 334 148 339
3 339 149 341
3 150 337 341
3 334 339 346
3 340 334 345
3 345 334 346
3 335 338 346
3 343 335 348
3 335 346 348
3 338 336 345
3 342 336 344
3 336 342 345
3 341 337 348
3 337 343 348
3 338 345 346
3 339 341 348
3 346 339 348
3 342 340 345
3 340 342 347
3 77 13 358
3 13 103 358
3 14 80 359
3 156 14 359
3 103 24 351
3 24 151 351
3 151 36 356
3 36 154 356
3 152 37 357
3 37 155 357
3 155 38 352
3 38 156 352
3 78 77 350
3 350 77 358
3 79 78 362
3 78 350 362
3 80 79 349
3 349 79 362
3 80 349 359
3 103 351 358
3 351 151 356
3 153 152 353
3 353 152 357
3 154 153 354
3 153 353 354
3 154 354 356
3 155 352 357
3 352 156 359
3 349 355 361
3 355 349 362
3 359 349 361
3 355 350 360
3 350 355 362
3 350 358 360
3 351 356 360
3 358 351 360
3 357 352 361
3 352 359 361
3 354 353 355
3 355 353 361
3 353 357 361
3 354 355 360
3 356 354 360
3 14 363 15
3 156 363 14
3 15 363 165
3 22 364 23
3 160 364 22
3 23 364 157
3 38 165 156
3 164 38 158
3 164 165 38
3 160 39 157
3 39 161 159
3 160 161 39
3 165 363 156
3 157 364 160
3 159 163 158
3 164 158 163
3 159 161 162
3 159 162 163
3 15 367 16
3 165 367 15
3 16 367 171
3 21 365 22
3 166 365 21
3 22 365 160
3 160 366 161
3 160 365 166
3 166 366 160
3 161 368 162
3 161 366 167
3 167 368 161
3 162 369 163
3 162 368 168
3 168 369 162
3 163 370 164
3 163 369 169
3 169 370 163
3 164 371 165
3 164 370 170
3 170 371 164
3 171 367 165
3 165 371 171
3 167 366 166
3 168 368 167
3 169 369 168
3 170 370 169
3 171 371 170
3 16 372 17
3 171 372 16
3 17 372 172
3 20 373 21
3 175 373 20
3 21 373 166
3 170 40 171
3 170 174 40
3 172 171 40
3 166 41 167
3 41 166 175
3 173 167 41
3 166 373 175
3 168 167 173
3 169 168 173
3 170 169 174
3 174 169 173
3 172 372 171
3 81 17 385
3 17 172 385
3 44 18 384
3 18 85 384
3 172 40 376
3 40 176 376
3 176 42 379
3 42 179 379
3 177 43 383
3 43 181 383
3 180 44 384
3 82 81 382
3 382 81 385
3 83 82 375
3 375 82 382
3 84 83 381
3 83 375 381
3 85 84 380
3 380 84 381
3 85 380 384
3 172 376 385
3 376 176 379
3 178 177 377
3 377 177 383
3 179 178 378
3 178 377 378
3 179 378 379
3 181 180 374
3 374 180 384
3 181 374 383
3 380 374 384
3 374 380 386
3 383 374 386
3 381 375 387
3 375 382 388
3 387 375 388
3 376 379 388
3 376 382 385
3 382 376 388
3 378 377 387
3 377 383 386
3 377 386 387
3 379 378 388
3 378 387 388
3 380 381 386
3 386 381 387
3 44 389 18
3 18 389 87
3 19 390 45
3 86 390 19
3 183 389 44
3 45 390 182
3 87 391 86
3 86 391 390
3 389 391 87
3 182 391 183
3 390 391 182
3 183 391 389
3 45 402 19
3 19 402 92
3 88 403 20
3 20 403 175
3 175 394 41
3 41 394 184
3 188 402 45
3 184 397 46
3 46 397 187
3 185 401 47
3 47 401 189
3 89 400 88
3 400 403 88
3 90 393 89
3 393 400 89
3 91 399 90
3 90 399 393
3 92 398 91
3 398 399 91
3 92 402 398
3 175 403 394
3 394 397 184
3 186 395 185
3 395 401 185
3 187 396 186
3 186 396 395
3 187 397 396
3 189 392 188
3 392 402 188
3 189 401 392
3 398 402 392
3 392 404 398
3 401 404 392
3 399 405 393
3 393 406 400
3 405 406 393
3 394 406 397
3 394 403 400
3 400 406 394
3 396 405 395
3 395 404 401
3 395 405 404
3 397 406 396
3 396 406 405
3 398 404 399
3 404 405 399
3 93 416 0
3 0 416 106
3 23 417 96
3 157 417 23
3 106 409 25
3 25 409 190
3 39 410 157
3 194 410 39
3 190 414 48
3 48 414 193
3 191 415 49
3 49 415 194
3 94 408 93
3 408 416 93
3 95 420 94
3 94 420 408
3 96 407 95
3 407 420 95
3 96 417 407
3 106 416 409
3 410 417 157
3 409 414 190
3 192 411 191
3 411 415 191
3 193 412 192
3 192 412 411
3 193 414 412
3 194 415 410
3 407 419 413
3 413 420 407
3 417 419 407
3 413 418 408
3 408 420 413
3 408 418 416
3 409 418 414
3 416 418 409
3 415 419 410
3 410 419 417
3 412 413 411
3 413 419 411
3 411 419 415
3 412 418 413
3 414 418 412
3 105 151 24
3 104 25 190
3 151 422 36
3 36 422 196
3 48 423 190
3 195 423 48
3 104 421 105
3 190 423 104
3 104 423 421
3 105 422 151
3 421 422 105
3 196 421 195
3 421 423 195
3 196 422 421
3 123 26 115
3 114 27 150
3 123 426 29
3 29 426 197
3 35 425 150
3 198 425 35
3 114 424 115
3 150 425 114
3 114 425 424
3 115 426 123
3 424 426 115
3 197 424 198
3 197 426 424
3 424 425 198
3 122 437 28
3 28 437 133
3 29 436 119
3 197 436 29
3 132 435 32
3 32 435 146
3 149 438 35
3 35 438 198
3 119 432 120
3 119 436 432
3 120 429 121
3 120 432 429
3 121 431 122
3 429 431 121
3 431 437 122
3 133 428 132
3 428 435 132
3 133 437 428
3 146 433 147
3 146 435 433
3 147 430 148
3 147 433 430
3 148 434 149
3 430 434 148
3 434 438 149
3 198 427 197
3 427 436 197
3 198 438 427
3 427 434 432
3 432 436 427
3 427 438 434
3 431 433 428
3 428 437 431
3 433 435 428
3 430 431 429
3 429 434 430
3 432 434 429
3 430 433 431
3 30 439 33
3 126 439 30
3 34 441 31
3 31 441 124
3 33 439 142
3 140 441 34
3 124 442 125
3 124 441 140
3 140 442 124
3 125 440 126
3 141 440 125
3 125 442 141
3 142 439 126
3 126 440 142
3 141 442 140
3 142 440 141
3 36 450 154
3 196 450 36
3 152 451 37
3 37 451 200
3 193 449 48
3 48 449 195
3 49 452 191
3 199 452 49
3 153 447 152
3 447 451 152
3 154 445 153
3 445 447 153
3 154 450 445
3 191 448 192
3 191 452 448
3 192 446 193
3 192 448 446
3 446 449 193
3 195 444 196
3 195 449 444
3 444 450 196
3 200 443 199
3 443 452 199
3 200 451 443
3 447 448 443
3 443 451 447
3 448 452 443
3 444 446 445
3 445 450 444
3 444 449 446
3 446 447 445
3 446 448 447
3 37 454 155
3 200 454 37
3 158 38 155
3 194 39 159
3 194 455 49
3 49 455 199
3 155 454 158
3 158 453 159
3 158 454 453
3 159 455 194
3 453 455 159
3 199 453 200
3 199 455 453
3 453 454 200
3 174 176 40
3 173 41 184
3 176 457 42
3 42 457 202
3 46 458 184
3 201 458 46
3 173 456 174
3 184 458 173
3 173 458 456
3 174 457 176
3 456 457 174
3 202 456 201
3 456 458 201
3 202 457 456
3 42 465 179
3 202 465 42
3 177 467 43
3 43 467 204
3 187 466 46
3 46 466 201
3 47 468 185
3 203 468 47
3 178 462 177
3 462 467 177
3 179 464 178
3 178 464 462
3 179 465 464
3 185 461 186
3 185 468 461
3 186 463 187
3 461 463 186
3 463 466 187
3 201 460 202
3 201 466 460
3 460 465 202
3 204 459 203
3 459 468 203
3 204 467 459
3 459 462 461
3 461 468 459
3 459 467 462
3 463 464 460
3 460 466 463
3 464 465 460
3 462 463 461
3 462 464 463
3 43 474 181
3 204 474 43
3 180 476 44
3 44 476 183
3 182 473 45
3 45 473 188
3 189 475 47
3 47 475 203
3 181 470 180
3 470 476 180
3 181 474 470
3 183 471 182
3 471 473 182
3 183 476 471
3 188 469 189
3 188 473 469
3 469 475 189
3 203 472 204
3 203 475 472
3 472 474 204
3 471 472 469
3 469 473 471
3 472 475 469
3 470 472 471
3 471 476 470
3 470 474 472
3 205 207 50
3 51 207 206
3 207 205 206
3 205 50 477
3 50 208 477
3 51 206 478
3 213 51 478
3 208 52 477
3 52 209 477
3 212 53 478
3 53 213 478
3 206 205 479
3 210 205 209
3 209 205 477
3 205 210 479
3 212 206 211
3 211 206 479
3 206 212 478
3 210 211 479
3 207 484 50
3 50 480 208
3 50 484 480
3 51 481 207
3 213 481 51
3 52 482 54
3 208 482 52
3 57 483 53
3 53 483 213
3 54 482 214
3 214 480 55
3 55 480 215
3 215 485 56
3 56 481 216
3 56 485 481
3 216 483 57
3 481 485 207
3 207 485 484
3 480 482 208
3 213 483 481
3 214 482 480
3 480 484 215
3 484 485 215
3 481 483 216
3 52 54 486
3 209 52 486
3 57 53 488
3 53 212 488
3 54 217 486
3 220 57 488
3 210 209 490
3 217 209 486
3 209 217 490
3 211 210 487
3 210 218 487
3 218 210 490
3 212 211 489
3 219 211 487
3 211 219 489
3 212 220 488
3 220 212 489
3 217 218 490
3 218 219 487
3 219 220 489
3 54 214 492
3 217 54 492
3 214 55 492
3 55 221 492
3 56 216 491
3 222 56 491
3 216 57 491
3 57 220 491
3 217 221 218
3 221 217 492
3 219 218 493
3 218 221 493
3 220 219 222
3 222 219 493
3 220 222 491
3 221 222 493
3 215 221 55
3 222 215 56
3 222 221 215
3 223 225 58
3 225 224 59
3 224 225 223
3 223 58 494
3 58 226 494
3 59 224 495
3 231 59 495
3 226 60 494
3 60 227 494
3 230 61 495
3 61 231 495
3 224 223 496
3 228 223 227
3 227 223 494
3 223 228 496
3 230 224 229
3 229 224 496
3 224 230 495
3 228 229 496
3 225 501 58
3 58 498 226
3 58 501 498
3 59 497 225
3 231 497 59
3 60 499 62
3 226 499 60
3 65 500 61
3 61 500 231
3 62 499 232
3 232 498 63
3 63 498 233
3 233 502 64
3 64 497 234
3 64 502 497
3 234 500 65
3 497 502 225
3 225 502 501
3 498 499 226
3 231 500 497
3 232 499 498
3 498 501 233
3 501 502 233
3 497 500 234
3 60 62 503
3 227 60 503
3 65 61 504
3 61 230 504
3 62 235 503
3 238 65 504
3 228 227 507
3 235 227 503
3 227 235 507
3 229 228 505
3 228 236 505
3 236 228 507
3 230 229 506
3 237 229 505
3 229 237 506
3 230 238 504
3 238 230 506
3 235 236 507
3 236 237 505
3 237 238 506
3 62 232 509
3 235 62 509
3 232 63 509
3 63 239 509
3 64 234 508
3 240 64 508
3 234 65 508
3 65 238 508
3 235 239 236
3 239 235 509
3 237 236 510
3 236 239 510
3 238 237 240
3 240 237 510
3 238 240 508
3 239 240 510
3 233 239 63
3 240 233 64
3 240 239 233
4 301 308 296 522
4 472 475 468 516
4 475 401 468 516
4 182 402 473 523
4 301 296 432 522
4 272 393 277 518
4 400 393 272 512
4 474 472 467 516
4 402 516 473 523
4 308 517 296 522
4 272 512 393 518
4 383 474 467 516
4 336 515 276 517
4 383 467 377 516
4 382 242 375 512
4 375 512 242 518
4 282 402 182 523
4 445 514 354 519
4 437 309 133 520
4 306 515 298 521
4 472 468 459 516
4 301 436 303 511
4 468 461 459 516
4 400 406 393 512
4 375 388 382 512
4 301 432 511 522
4 448 513 411 519
4 469 473 392 516
4 388 512 375 518
4 393 512 406 518
4 118 133 309 520
4 251 407 513 519
4 275 511 335 517
4 350 514 269 519
4 424 426 427 511
4 427 425 424 511
4 339 341 438 511
4 395 461 516 518
4 345 515 336 517
4 335 275 343 511
4 398 516 402 523
4 345 336 338 517
4 426 436 427 511
4 426 303 436 511
4 459 467 472 516
4 225 223 245 514
4 437 302 309 515
4 411 412 446 519
4 375 242 273 518
4 403 394 400 512
4 382 376 385 512
4 335 511 346 517
4 427 197 426 424
4 425 198 427 424
4 309 437 515 520
4 277 393 399 518
4 304 117 319 521
4 118 309 304 520
4 301 432 436 511
4 445 354 447 519
4 358 269 350 514
4 417 251 407 513
4 470 472 474 516
4 475 472 469 516
4 307 515 296 517
4 445 446 514 519
4 471 473 469 516
4 447 354 353 519
4 182 241 282 523
4 428 515 437 520
4 473 516 471 523
4 438 341 425 511
4 272 277 273 518
4 446 448 411 519
4 304 322 520 521
4 438 425 427 511
4 427 197 436 426
4 308 310 297 511
4 348 346 335 511
4 465 457 379 512
4 118 304 322 520
4 274 298 300 517
4 444 423 421 514
4 383 377 386 516
4 401 404 395 516
4 447 513 448 519
4 385 376 206 512
4 403 205 394 512
4 466 396 397 512
4 444 421 422 514
4 182 473 471 523
4 467 459 462 516
4 346 517 511 522
4 204 467 474 472
4 456 460 458 512
4 450 444 422 514
4 377 467 462 516
4 411 452 415 513
4 301 310 308 511
4 450 356 354 514
4 460 456 457 512
4 446 412 514 519
4 353 513 447 519
4 465 460 457 512
4 425 198 438 427
4 386 516 377 518
4 404 395 516 518
4 304 520 515 521
4 341 337 425 511
4 426 299 303 511
4 117 304 306 521
4 268 244 359 222
4 399 516 243 518
4 432 296 429 522
4 316 5 311 134
4 8 127 333 312
4 454 453 443 513
4 304 319 322 521
4 464 512 378 518
4 336 249 338 517
4 355 353 354 519
4 411 413 412 519
4 308 511 297 517
4 298 515 307 517
4 309 515 304 520
4 377 516 462 518
4 455 443 453 513
4 251 417 266 513
4 432 427 436 511
4 339 511 438 522
4 462 459 461 516
4 277 399 243 518
4 452 443 455 513
4 423 195 444 421
4 452 455 415 513
4 302 296 307 515
4 340 345 334 515
4 304 515 306 521
4 450 422 356 514
4 252 306 298 521
4 251 513 268 519
4 306 304 298 515
4 276 515 252 517
4 336 276 249 517
4 461 462 516 518
4 430 340 334 515
4 458 466 397 512
4 444 449 423 514
4 386 381 516 518
4 404 516 399 518
4 225 224 223 514
4 359 268 222 513
4 360 354 514 519
4 418 514 412 519
4 339 348 341 511
4 301 303 310 511
4 302 429 296 515
4 233 239 240 511
4 450 354 445 514
4 465 379 464 512
4 349 268 513 519
4 412 414 449 514
4 419 411 513 519
4 361 513 353 519
4 118 304 319 322
4 422 444 196 421
4 349 513 361 519
4 419 513 407 519
4 298 252 515 517
4 418 408 514 519
4 360 514 350 519
4 338 335 346 517
4 262 225 245 514
4 345 334 515 522
4 266 417 221 513
4 250 400 272 512
4 445 447 446 519
4 279 402 282 523
4 252 298 515 521
4 388 378 512 518
4 406 512 396 518
4 458 460 456 201
4 453 200 454 443
4 205 207 206 512
4 117 325 319 521
4 348 346 511 522
4 276 515 336 521
4 381 261 516 518
4 444 450 422 196
4 353 357 451 513
4 458 460 466 512
4 297 310 305 511
4 343 348 335 511
4 448 452 411 513
4 447 448 446 519
4 449 414 423 514
4 399 398 243 516
4 334 430 515 522
4 398 402 279 523
4 268 359 349 513
4 305 253 297 511
4 269 514 267 519
4 269 358 262 514
4 457 376 379 512
4 458 397 394 512
4 273 381 375 518
4 298 307 300 517
4 443 455 453 199
4 460 202 457 456
4 233 265 239 511
4 432 427 511 522
4 357 454 451 513
4 454 443 451 513
4 430 433 340 515
4 449 195 444 423
4 246 343 275 511
4 456 173 479 512
4 415 455 410 513
4 352 454 357 513
4 174 456 479 512
4 388 375 387 518
4 405 393 406 518
4 253 511 275 517
4 351 356 422 514
4 409 423 414 514
4 206 207 242 512
4 396 512 463 518
4 465 460 202 457
4 443 452 455 199
4 418 412 413 519
4 360 355 354 519
4 158 454 352 513
4 455 159 410 513
4 409 104 423 514
4 422 105 351 514
4 250 207 205 512
4 450 445 444 514
4 305 310 299 511
4 348 343 337 511
4 467 204 459 472
4 297 511 253 517
4 408 267 514 519
4 355 361 353 519
4 419 413 411 519
4 310 303 299 511
4 348 337 341 511
4 425 337 114 511
4 299 426 115 511
4 173 458 394 512
4 376 457 174 512
4 359 361 349 513
4 417 407 419 513
4 377 378 387 518
4 395 405 396 518
4 428 431 437 515
4 463 395 396 518
4 418 408 416 514
4 360 358 350 514
4 377 462 378 518
4 398 279 516 523
4 224 262 358 514
4 243 516 261 518
4 158 493 453 513
4 453 493 159 513
4 421 104 496 514
4 496 105 421 514
4 463 512 464 518
4 274 300 297 517
4 378 464 379 512
4 182 391 241 523
4 437 431 302 515
4 246 240 343 511
4 388 387 378 518
4 405 406 396 518
4 114 510 424 511
4 424 510 115 511
4 222 352 359 513
4 410 221 417 513
4 351 224 358 514
4 223 409 416 514
4 200 451 454 443
4 201 458 460 466
4 465 464 460 512
4 463 396 466 512
4 225 262 224 514
4 270 408 420 519
4 457 456 174 512
4 173 456 458 512
4 463 461 395 518
4 267 416 408 514
4 325 322 319 521
4 349 361 355 519
4 413 419 407 519
4 343 240 337 511
4 305 299 239 511
4 380 381 261 516
4 360 350 355 519
4 418 413 408 519
4 386 387 381 518
4 404 399 405 518
4 396 406 397 512
4 378 379 388 512
4 464 378 462 518
4 233 240 246 511
4 413 407 420 519
4 355 362 349 519
4 338 249 335 517
4 277 243 273 518
4 413 420 408 519
4 350 362 355 519
4 345 515 517 522
4 222 268 244 266
4 266 268 251 513
4 268 266 222 513
4 222 266 221 513
4 443 452 448 513
4 399 404 398 516
4 380 386 381 516
4 252 298 274 517
4 250 242 207 512
4 252 280 256 521
4 446 412 449 514
4 270 420 407 519
4 158 453 454 513
4 455 453 159 513
4 423 104 421 514
4 422 421 105 514
4 304 309 302 515
4 261 380 516 523
4 437 133 428 520
4 353 451 447 513
4 272 242 250 512
4 114 424 425 511
4 424 115 426 511
4 381 387 375 518
4 405 399 393 518
4 252 256 306 521
4 206 174 479 512
4 276 280 252 521
4 282 182 391 241
4 322 321 118 520
4 387 386 377 518
4 404 405 395 518
4 41 175 166 209
4 172 40 171 212
4 173 205 479 512
4 262 245 267 514
4 262 267 269 514
4 308 307 296 517
4 276 252 515 521
4 9 131 312 329
4 275 335 249 517
4 410 417 419 513
4 361 359 352 513
4 117 4 311 327
4 418 416 409 514
4 360 351 358 514
4 493 158 222 513
4 493 221 159 513
4 496 104 223 514
4 224 105 496 514
4 233 246 265 511
4 251 270 407 519
4 282 241 279 523
4 302 431 429 515
4 338 346 345 517
4 275 253 246 511
4 348 511 339 522
4 160 157 39 217
4 38 156 165 220
4 25 106 97 227
4 103 24 102 230
4 470 471 472 516
4 472 471 469 516
4 107 113 26 235
4 27 116 112 238
4 362 247 349 519
4 350 247 362 519
4 376 382 388 512
4 406 400 394 512
4 240 510 114 511
4 239 115 510 511
4 381 273 261 518
4 430 429 515 522
4 444 446 449 514
4 352 222 158 513
4 159 221 410 513
4 409 223 104 514
4 224 351 105 514
4 460 463 466 512
4 243 398 279 516
4 433 515 428 520
4 296 301 432 120
4 337 240 114 511
4 299 115 239 511
4 215 222 244 266
4 412 418 414 514
4 356 360 354 514
4 470 516 374 523
4 386 374 383 516
4 404 401 392 516
4 415 419 411 513
4 353 361 357 513
4 451 443 447 513
4 215 221 222 266
4 175 20 373 208
4 300 308 297 517
4 322 317 321 520
4 261 278 380 523
4 345 517 346 522
4 276 252 249 517
4 17 172 372 213
4 247 350 269 519
4 433 340 515 520
4 3 113 295 232
4 342 336 515 521
4 227 60 97 503
4 217 54 486 160
4 53 212 171 488
4 65 238 504 112
4 392 398 404 516
4 339 438 434 522
4 394 205 173 512
4 206 376 174 512
4 13 103 285 231
4 445 446 444 514
4 282 390 182 402
4 464 463 460 512
4 432 434 427 522
4 304 307 298 515
4 345 342 336 515
4 415 410 419 513
4 352 357 361 513
4 351 360 356 514
4 409 414 418 514
4 470 471 516 523
4 443 448 447 513
4 273 243 261 518
4 462 463 464 518
4 430 431 433 515
4 246 253 265 511
4 461 463 462 518
4 253 274 297 517
4 406 394 397 512
4 376 388 379 512
4 374 386 380 523
4 479 205 206 512
4 319 117 304 118
4 23 157 364 214
4 222 221 493 513
4 224 496 223 514
4 251 268 270 519
4 374 516 386 523
4 433 431 428 515
4 239 510 240 511
4 156 14 363 216
4 106 0 286 226
4 116 10 294 234
4 274 297 300 67
4 68 300 274 298
4 304 302 307 515
4 342 345 340 515
4 130 435 132 520
4 446 412 411 192
4 386 516 380 523
4 349 247 268 519
4 131 342 130 520
4 435 132 32 130
4 173 169 369 168
4 429 431 430 515
4 408 270 267 519
4 61 230 102 504
4 57 220 488 165
4 209 52 166 486
4 235 62 503 107
4 342 515 340 520
4 439 33 142 328
4 377 378 462 178
4 261 243 279 516
4 34 326 441 140
4 336 74 338 249
4 342 520 131 521
4 131 130 323 520
4 428 133 132 520
4 300 307 308 517
4 186 463 395 396
4 448 446 411 192
4 385 271 242 206
4 340 147 430 334
4 433 435 347 520
4 130 347 435 520
4 433 347 340 520
4 269 267 247 519
4 333 143 7 329
4 249 252 274 517
4 309 28 437 133
4 316 327 6 137
4 323 131 520 521
4 139 33 313 328
4 28 309 118 133
4 391 389 283 183
4 132 133 324 520
4 147 430 433 340
4 330 326 34 145
4 429 302 296 121
4 130 32 435 347
4 429 296 432 120
4 390 182 391 282
4 398 399 243 91
4 447 353 354 153
4 462 378 464 178
4 266 255 215 263
4 83 381 375 273
4 391 182 183 523
4 470 374 476 523
4 484 255 485 207
4 249 336 74 276
4 186 463 461 395
4 344 276 336 521
4 276 344 284 521
4 442 141 140 324
4 249 253 275 517
4 320 145 331 144
4 277 90 399 393
4 348 339 346 522
4 271 242 206 207
4 141 317 440 142
4 447 354 445 153
4 325 256 248 521
4 9 131 329 248
4 277 272 89 393
4 187 397 466 396
4 248 284 344 521
4 248 344 131 521
4 131 329 248 318
4 452 411 415 191
4 401 185 468 395
4 436 119 301 303
4 248 9 344 284
4 440 133 125 126
4 124 125 442 132
4 197 427 198 424
4 450 354 356 154
4 213 172 53 478
4 20 175 50 208
4 317 324 133 520
4 470 476 471 523
4 248 256 280 521
4 172 17 51 213
4 297 274 253 67
4 380 84 278 261
4 179 464 465 379
4 342 515 520 521
4 113 3 63 232
4 183 182 471 523
4 342 344 336 521
4 131 9 344 248
4 103 13 59 231
4 132 320 130 520
4 274 252 68 298
4 54 492 214 157
4 231 103 61 495
4 323 520 322 521
4 232 113 62 509
4 400 89 272 393
4 397 184 458 394
4 376 457 379 176
4 270 408 94 420
4 283 241 391 523
4 319 137 314 138
4 345 346 334 522
4 283 391 183 523
4 207 484 255 263
4 248 131 318 521
4 433 428 435 520
4 315 138 139 321
4 318 325 248 521
4 467 383 377 177
4 265 264 254 233
4 274 253 249 517
4 84 380 381 261
4 412 193 449 414
4 276 284 280 521
4 267 270 247 519
4 354 450 445 154
4 347 342 340 520
4 332 144 143 323
4 484 485 255 215
4 166 366 41 209
4 97 25 227 288
4 38 220 165 371
4 256 325 327 117
4 389 283 183 523
4 309 302 437 122
4 90 243 277 399
4 77 350 358 269
4 247 270 268 519
4 157 23 55 214
4 174 457 376 176
4 458 184 173 394
4 271 385 51 206
4 452 448 411 191
4 135 117 134 314
4 332 128 131 127
4 152 451 353 357
4 477 52 208 175
4 375 382 82 242
4 148 334 339 522
4 321 118 319 322
4 119 301 432 436
4 244 359 80 268
4 243 279 398 91
4 126 28 30 439
4 32 31 441 124
4 185 461 468 395
4 112 293 27 238
4 24 293 102 230
4 438 149 341 339
4 117 4 327 256
4 14 156 56 216
4 0 106 58 226
4 343 335 76 275
4 10 116 64 234
4 409 25 223 494
4 24 495 351 224
4 221 39 410 492
4 38 491 222 352
4 299 239 26 509
4 337 508 27 240
4 175 41 477 209
4 40 172 478 212
4 195 196 444 421
4 273 83 381 261
4 431 302 429 121
4 39 366 160 217
4 107 235 26 288
4 171 212 40 371
4 434 432 429 522
4 491 57 216 156
4 494 60 226 106
4 508 65 234 116
4 265 254 246 233
4 172 213 53 372
4 359 349 80 268
4 205 394 41 477
4 478 40 206 376
4 179 378 464 379
4 35 341 425 438
4 278 283 85 523
4 156 38 491 220
4 39 157 492 217
4 106 25 494 227
4 24 103 495 230
4 331 129 130 128
4 135 315 136 118
4 433 435 146 347
4 116 27 508 238
4 26 113 509 235
4 130 320 323 520
4 318 322 325 521
4 384 476 374 523
4 420 270 407 95
4 256 325 248 71
4 330 34 326 441
4 426 29 436 303
4 273 375 82 242
4 323 322 318 521
4 389 283 87 391
4 443 453 200 199
4 460 202 456 201
4 492 410 221 417
4 222 491 359 352
4 409 223 416 494
4 495 358 351 224
4 317 322 324 520
4 391 390 282 86
4 350 78 362 247
4 54 157 214 364
4 103 231 61 285
4 466 463 187 396
4 330 31 32 129
4 136 30 28 313
4 113 232 62 295
4 297 253 305 66
4 189 475 469 392
4 470 181 374 474
4 223 58 245 416
4 509 299 239 305
4 343 508 337 240
4 278 85 380 523
4 4 117 306 256
4 85 283 384 523
4 55 221 266 417
4 215 244 255 266
4 244 56 359 222
4 320 322 323 520
4 394 205 403 477
4 206 385 478 376
4 69 252 256 306
4 181 383 374 474
4 189 401 475 392
4 245 267 416 93
4 457 42 465 379
4 417 251 266 96
4 207 271 250 263
4 174 376 40 176
4 184 41 173 394
4 85 384 380 523
4 394 41 173 205
4 376 40 206 174
4 449 446 193 412
4 340 433 146 347
4 306 69 252 298
4 492 157 410 417
4 491 156 359 352
4 494 416 409 106
4 103 495 358 351
4 435 428 132 520
4 349 362 79 247
4 279 241 278 523
4 175 52 208 373
4 53 212 478 172
4 209 52 477 175
4 325 318 248 71
4 341 150 425 337
4 123 426 299 303
4 205 41 209 477
4 221 217 39 492
4 227 223 25 494
4 235 26 239 509
4 222 491 38 220
4 27 508 238 240
4 40 478 206 212
4 230 495 24 224
4 451 447 152 353
4 299 509 113 305
4 508 116 343 337
4 198 35 425 438
4 223 25 409 104
4 351 105 24 224
4 222 38 352 158
4 410 159 39 221
4 27 114 337 240
4 299 26 239 115
4 40 172 376 478
4 175 41 394 477
4 462 467 377 177
4 133 317 321 328
4 269 358 77 262
4 458 46 397 466
4 220 57 491 156
4 54 217 492 157
4 61 230 495 103
4 227 60 494 106
4 238 65 508 116
4 62 235 509 113
4 246 343 76 275
4 156 57 216 363
4 106 60 226 286
4 389 384 283 523
4 180 384 476 374
4 473 188 392 402
4 391 283 87 241
4 116 65 234 294
4 132 324 320 520
4 251 417 407 96
4 247 350 78 269
4 248 329 9 72
4 4 256 70 327
4 204 203 459 472
4 270 251 407 95
4 431 437 302 122
4 250 205 50 403
4 408 416 267 93
4 86 282 391 241
4 24 103 351 495
4 106 25 409 494
4 156 38 352 491
4 39 157 410 492
4 207 255 271 263
4 253 265 305 66
4 116 27 337 508
4 26 113 299 509
4 148 339 434 522
4 276 344 73 284
4 436 197 29 426
4 476 180 374 470
4 188 392 469 473
4 313 33 439 328
4 239 265 63 305
4 70 256 325 327
4 430 334 148 522
4 384 183 476 523
4 389 183 384 523
4 242 271 250 207
4 219 489 164 370
4 455 194 415 410
4 357 454 352 155
4 414 423 409 190
4 422 151 356 351
4 175 394 403 477
4 385 172 478 376
4 48 195 449 423
4 384 374 380 523
4 85 384 283 389
4 84 85 380 278
4 342 347 130 520
4 342 131 344 521
4 46 458 201 466
4 37 200 451 454
4 283 18 85 389
4 47 468 475 401
4 323 318 131 521
4 382 385 81 242
4 104 409 423 190
4 422 105 151 351
4 352 454 158 155
4 455 159 194 410
4 403 205 50 477
4 385 478 51 206
4 43 383 474 467
4 248 280 284 521
4 501 264 254 281
4 425 150 114 337
4 115 426 299 123
4 55 23 266 263
4 49 455 452 199
4 202 42 465 457
4 450 36 422 196
4 73 336 344 276
4 4 311 327 316
4 246 343 240 64
4 433 146 147 340
4 402 282 390 92
4 455 415 49 452
4 329 9 333 312
4 438 434 149 339
4 267 408 94 270
4 145 129 130 331
4 255 484 215 263
4 434 429 430 522
4 72 248 329 318
4 422 356 36 450
4 301 432 120 119
4 282 19 390 92
4 423 449 48 414
4 454 451 37 357
4 416 223 58 494
4 358 495 59 224
4 492 221 55 417
4 491 359 56 222
4 183 471 476 523
4 324 322 320 520
4 334 346 339 522
4 89 272 88 400
4 59 358 224 262
4 239 63 509 305
4 343 508 240 64
4 233 264 254 501
4 417 266 55 96
4 171 53 172 212
4 209 52 175 166
4 375 82 83 273
4 326 132 324 320
4 271 81 385 242
4 190 25 104 409
4 151 24 351 105
4 39 194 159 410
4 38 155 352 158
4 26 123 115 299
4 27 150 337 114
4 424 510 114 115
4 159 158 493 453
4 105 496 421 104
4 384 85 18 389
4 436 29 119 303
4 156 57 165 220
4 217 54 160 157
4 102 61 103 230
4 227 60 106 97
4 90 277 89 393
4 112 116 65 238
4 235 62 107 113
4 268 349 79 247
4 402 390 19 92
4 92 398 279 91
4 278 241 283 523
4 58 245 416 93
4 254 502 233 501
4 302 431 122 121
4 341 35 149 438
4 379 457 42 176
4 397 184 46 458
4 75 76 335 275
4 262 59 13 254
4 74 75 338 249
4 179 465 42 379
4 81 385 51 271
4 350 77 78 269
4 67 300 274 68
4 434 430 148 522
4 341 150 35 425
4 29 426 123 303
4 253 297 67 66
4 467 474 43 204
4 69 256 4 306
4 479 174 173 456
4 128 332 131 323
4 319 117 135 314
4 434 148 149 339
4 325 256 70 71
4 86 391 87 241
4 166 52 175 373
4 53 171 172 372
4 187 397 46 466
4 463 186 187 396
4 468 203 47 475
4 468 47 185 401
4 32 146 435 347
4 69 68 252 298
4 377 462 177 178
4 147 148 430 334
4 412 446 193 192
4 181 43 383 474
4 475 47 401 189
4 315 139 136 321
4 343 76 10 64
4 327 6 4 316
4 128 144 332 323
4 353 447 152 153
4 314 135 319 138
4 145 130 320 331
4 336 73 74 276
4 333 7 9 329
4 399 90 243 91
4 73 344 9 284
4 121 296 429 120
4 43 383 467 177
4 54 160 157 364
4 57 156 165 363
4 97 60 106 286
4 61 102 103 285
4 62 107 113 295
4 116 112 65 294
4 349 79 80 268
4 305 265 63 66
4 125 141 132 133
4 416 0 58 93
4 266 23 55 96
4 28 309 437 122
4 77 13 59 358
4 178 378 464 179
4 58 0 264 245
4 420 94 270 95
4 324 132 141 133
4 63 3 305 66
4 118 136 28 328
4 245 58 0 93
4 154 445 354 153
4 359 80 56 244
4 461 185 186 395
4 246 254 10 64
4 254 13 258 497
4 191 448 411 192
4 211 210 479 174
4 250 20 50 263
4 17 259 255 481
4 76 343 246 64
4 58 501 225 281
4 330 326 32 441
4 415 49 452 191
4 384 18 44 389
4 19 45 390 402
4 88 50 20 403
4 56 14 80 359
4 258 500 234 497
4 174 210 479 173
4 356 36 450 154
4 129 130 326 145
4 264 3 63 265
4 219 159 493 218
4 229 228 496 105
4 254 502 501 281
4 118 315 136 321
4 254 262 59 281
4 130 326 32 129
4 449 193 48 414
4 451 152 37 357
4 181 374 180 470
4 469 189 392 188
4 501 58 264 281
4 105 228 496 104
4 159 219 493 158
4 358 59 77 262
4 14 56 80 244
4 407 251 96 95
4 231 500 258 497
4 267 408 93 94
4 37 454 357 155
4 49 194 415 455
4 81 82 382 242
4 498 233 501 264
4 14 156 359 56
4 0 106 416 58
4 311 327 316 137
4 113 3 305 63
4 10 116 343 64
4 329 333 143 312
4 78 79 362 247
4 282 390 19 86
4 103 13 358 59
4 414 48 423 190
4 356 36 151 422
4 246 10 76 64
4 3 63 265 66
4 313 439 28 328
4 283 87 18 389
4 136 118 321 328
4 84 381 83 261
4 317 324 141 133
4 133 126 142 328
4 417 55 23 96
4 318 72 248 71
4 132 442 140 324
4 7 9 329 72
4 139 136 321 328
4 281 225 58 245
4 20 52 21 373
4 502 254 225 281
4 88 250 50 403
4 222 244 56 215
4 259 213 483 481
4 157 23 417 55
4 44 384 476 180
4 473 45 188 402
4 141 317 133 440
4 51 17 81 271
4 131 329 318 323
4 281 58 264 245
4 70 6 4 327
4 259 483 216 481
4 497 225 502 254
4 51 17 385 81
4 480 215 484 263
4 331 130 320 144
4 141 442 132 324
4 173 210 479 205
4 126 133 28 328
4 124 140 326 132
4 206 479 174 211
4 130 320 326 145
4 225 254 59 281
4 250 50 20 88
4 327 325 319 117
4 0 60 1 286
4 294 10 11 65
4 2 62 3 295
4 77 59 13 262
4 105 229 224 496
4 219 222 493 158
4 228 223 496 104
4 240 237 114 510
4 218 159 493 221
4 510 239 236 115
4 498 233 264 63
4 20 480 260 208
4 12 61 13 285
4 254 258 10 497
4 140 124 442 132
4 126 440 133 142
4 317 133 440 142
4 117 319 135 118
4 266 215 55 263
4 16 53 17 372
4 131 130 128 323
4 125 141 133 440
4 125 141 442 132
4 20 175 403 50
4 124 326 32 132
4 264 498 3 257
4 22 54 23 364
4 257 0 498 226
4 254 59 13 497
4 499 257 498 226
4 245 225 58 223
4 481 207 271 51
4 56 14 255 244
4 494 58 416 106
4 59 103 495 358
4 492 55 157 417
4 156 359 56 491
4 259 216 14 481
4 480 260 208 482
4 113 509 63 305
4 343 116 508 64
4 317 133 142 328
4 480 215 263 55
4 480 20 50 208
4 234 10 258 497
4 144 128 130 323
4 138 135 319 118
4 132 140 326 324
4 497 225 254 59
4 439 142 28 328
4 215 55 221 266
4 240 246 64 233
4 313 28 139 328
4 52 20 21 260
4 117 319 137 314
4 225 59 262 281
4 50 484 207 263
4 172 17 385 51
4 64 254 502 233
4 143 131 332 323
4 262 225 281 245
4 50 205 250 207
4 144 130 320 323
4 23 263 480 260
4 441 326 32 140
4 32 441 140 124
4 28 126 142 439
4 498 0 58 226
4 64 10 234 497
4 28 139 136 313
4 330 32 326 145
4 499 498 257 232
4 32 330 129 145
4 138 315 118 321
4 0 1 60 257
4 137 316 311 134
4 127 143 333 312
4 3 62 2 257
4 480 260 482 214
4 63 264 265 233
4 258 13 231 497
4 259 17 213 481
4 295 62 3 232
4 207 250 50 263
4 262 224 59 225
4 231 13 61 285
4 244 255 56 215
4 52 20 208 373
4 118 319 138 321
4 485 56 255 215
4 329 143 131 312
4 311 327 137 117
4 330 32 31 441
4 439 28 30 313
4 311 4 5 316
4 333 9 8 312
4 439 30 33 313
4 372 53 17 213
4 63 498 3 264
4 330 31 34 441
4 22 23 54 260
4 498 3 257 232
4 17 53 16 259
4 64 246 254 233
4 480 263 20 260
4 0 498 264 257
4 214 23 54 364
4 0 60 286 226
4 175 403 50 477
4 172 478 51 385
4 225 501 502 281
4 255 259 14 481
4 233 265 63 239
4 258 11 10 65
4 143 127 131 312
4 134 311 137 117
4 260 480 23 214
4 13 61 12 258
4 55 23 263 480
4 129 326 32 145
4 136 139 28 328
4 140 326 32 124
4 137 327 319 117
4 142 126 28 328
4 51 271 206 207
4 257 3 62 232
4 131 143 329 323
4 264 498 58 501
4 8 7 9 333
4 260 52 20 208
4 6 5 4 316
4 64 254 10 497
4 138 315 135 118
4 213 53 17 259
4 263 20 50 480
4 260 23 54 214
4 58 0 498 264
4 130 331 128 144
4 60 0 257 226
4 263 50 484 480
4 137 134 117 314
4 127 131 332 143
4 288 107 235 503
4 166 366 209 486
4 165 220 488 371
4 102 293 504 230
4 217 366 160 486
4 171 488 212 371
4 288 227 97 503
4 504 293 112 238
4 231 61 13 258
4 56 255 481 485
4 62 107 287 503
4 367 57 488 165
4 486 52 166 365
4 61 290 504 102
4 3 498 63 232
4 100 110 505 291
4 99 291 505 109
4 504 290 65 112
4 486 160 54 365
4 172 51 478 213
4 231 13 59 497
4 287 97 60 503
4 367 488 53 171
4 213 483 53 259
4 17 51 213 481
4 157 214 55 492
4 495 103 59 231
4 487 169 163 369
4 509 63 232 113
4 499 257 62 232
4 55 23 480 214
4 482 260 54 214
4 64 502 254 497
4 50 208 175 477
4 166 160 486 365
4 107 97 287 503
4 102 290 504 112
4 171 367 488 165
4 287 60 62 503
4 54 52 486 365
4 488 53 57 367
4 504 290 61 65
4 228 236 507 289
4 56 156 491 216
4 494 226 58 106
4 234 508 116 64
4 504 293 102 112
4 366 166 160 486
4 288 97 107 503
4 488 171 165 371
4 61 231 500 258
4 167 161 368 490
4 170 164 489 370
4 111 101 292 506
4 499 60 257 226
4 507 108 98 289
4 208 260 52 482
4 54 21 365 22
4 2 1 60 287
4 61 12 11 290
4 16 57 367 15
4 220 212 488 371
4 235 227 288 503
4 209 366 217 486
4 238 504 293 230
4 60 1 2 257
4 21 54 365 52
4 2 60 62 287
4 57 16 367 53
4 290 11 61 65
4 237 100 110 505
4 505 99 109 228
4 54 21 22 260
4 236 505 109 228
4 100 237 229 505
4 483 216 57 259
4 62 60 2 257
4 234 500 258 65
4 163 169 487 219
4 21 54 52 260
4 211 487 169 219
4 238 24 27 506
4 38 40 489 212
4 217 41 490 39
4 41 39 366 161
4 98 26 25 288
4 40 38 164 371
4 25 26 507 227
4 174 487 169 211
4 168 210 368 162
4 101 27 293 24
4 161 366 41 167
4 98 108 26 288
4 40 164 170 371
4 292 237 100 110
4 228 99 109 289
4 27 101 293 111
4 109 236 228 289
4 57 15 16 259
4 227 25 26 288
4 39 41 366 217
4 38 40 212 371
4 293 24 27 238
4 219 163 169 370
4 53 57 16 259
4 101 27 24 506
4 24 238 230 506
4 41 161 490 39
4 164 40 489 38
4 212 489 38 220
4 41 217 490 209
4 26 25 507 98
4 26 507 227 235
4 111 27 101 506
4 161 41 490 167
4 40 164 489 170
4 108 26 507 98
4 217 41 366 209
4 220 38 212 371
4 235 227 26 288
4 238 293 24 230
4 11 12 61 258
4 258 61 11 65
4 257 62 60 499
4 54 52 260 482
4 57 53 483 259
4 258 500 61 65
4 164 165 371 38
4 166 167 41 366
4 112 111 27 293
4 102 101 293 24
4 98 97 288 25
4 108 107 26 288
4 211 210 174 487
4 160 161 366 39
4 170 171 40 371
4 160 22 54 365
4 160 54 22 364
4 2 107 62 295
4 2 62 107 287
4 11 112 65 290
4 65 112 11 294
4 165 15 57 363
4 165 57 15 367
4 522 308 511 301
4 522 511 308 517
4 516 402 392 398
4 516 392 402 473
4 392 475 516 401
4 392 516 475 469
4 374 474 516 470
4 516 474 374 383
4 512 403 250 400
4 512 250 403 205
4 385 512 242 382
4 242 512 385 206
4 468 472 203 475
4 203 472 468 459
4 53 16 171 372
4 53 171 16 367
4 12 61 102 290
4 12 102 61 285
4 1 60 97 286
4 1 97 60 287
4 52 21 166 365
4 52 166 21 373
4 518 242 272 512
4 518 272 242 273
4 522 296 515 517
4 522 515 296 429
4 514 245 416 223
4 514 416 245 267
4 279 402 92 282
4 92 402 279 398
4 321 133 520 317
4 520 133 321 118
4 468 395 516 401
4 516 395 468 461
4 164 163 219 370
4 164 219 163 158
4 511 265 305 253
4 511 305 265 239
4 249 335 75 338
4 249 75 335 275
4 523 261 279 516
4 523 279 261 278
4 256 117 521 325
4 521 117 256 306
4 522 427 438 434
4 522 438 427 511
4 250 400 88 272
4 88 400 250 403
4 183 44 384 476
4 183 384 44 389
4 45 182 402 473
4 402 182 45 390
4 207 255 481 271
4 207 481 255 485
4 289 108 236 507
4 108 236 26 115
4 108 26 236 507
4 26 235 236 507
4 218 39 161 159
4 161 39 218 490
4 39 217 218 490
4 237 111 292 506
4 27 237 111 114
4 27 111 237 506
4 238 27 237 506
4 98 289 228 507
4 228 98 25 104
4 25 98 228 507
4 227 25 228 507
4 210 167 368 490
4 41 210 167 173
4 41 167 210 490
4 209 41 210 490
4 24 229 101 506
4 24 101 229 105
4 230 229 24 506
4 326 130 132 320
4 132 130 326 32
4 40 211 170 489
4 40 170 211 174
4 212 211 40 489
4 240 27 237 238
4 240 237 27 114
4 239 26 236 115
4 239 236 26 235
4 221 39 218 159
4 221 218 39 217
4 24 224 229 230
4 24 229 224 105
4 41 205 210 173
4 41 210 205 209
4 25 223 228 104
4 25 228 223 227
4 206 40 211 174
4 206 211 40 212
4 109 505 110 291
4 220 38 219 489
4 164 38 219 158
4 164 219 38 489
4 118 328 133 321
4 133 328 118 28
4 99 100 505 291
4 369 162 210 168
4 210 173 369 168
4 271 481 17 255
4 271 17 481 51
4 14 481 56 255
4 56 481 14 216
4 234 65 10 294
4 10 65 234 258
4 57 15 14 363
4 14 15 57 259
4 14 216 57 363
4 57 216 14 259
4 510 115 237 114
4 510 237 115 236
4 159 163 219 158
4 228 105 99 104
4 210 174 369 173
4 210 369 174 487
4 169 369 174 173
4 169 174 369 487
4 100 229 101 105
4 162 218 161 159
4 170 169 211 174
4 98 99 228 289
4 98 228 99 104
4 168 167 210 173
4 168 210 167 368
4 108 109 236 115
4 108 236 109 289
4 110 111 237 114
4 110 237 111 292
4 38 222 219 158
4 38 219 222 220
4 218 162 163 159
4 163 219 218 159
4 218 219 163 487
4 228 229 99 105
4 228 99 229 505
4 100 99 229 105
4 100 229 99 505
4 115 110 237 114
4 236 109 110 115
4 110 109 236 505
4 110 237 236 115
4 236 237 110 505
4 100 237 506 229
4 506 237 100 292
4 506 101 100 229
4 100 101 506 292
4 162 210 490 218
4 490 210 162 368
4 490 161 162 218
4 162 161 490 368
4 169 219 489 211
4 489 219 169 370
4 489 170 169 211
4 169 170 489 370
4 218 210 369 162
4 369 210 218 487
4 369 163 218 162
4 218 163 369 487

CELL_TYPES 2853
1
1
1
1
1
1
1
1
1
1
1
1
1
1
1
1
1
1
1
1
1
1
1
1
1
1
1
1
1
1
1
1
1
1
1
1
1
1
1
1
1
1
1
1
1
1
1
1
1
1
1
1
1
1
1
1
1
1
1
1
1
1
1
1
1
1
3
3
3
3
3
3
3
3
3
3
3
3
3
3
3
3
3
3
3
3
3
3
3
3
3
3
3
3
3
3
3
3
3
3
3
3
3
3
3
3
3
3
3
3
3
3
3
3
3
3
3
3
3
3
3
3
3
3
3
3
3
3
3
3
3
3
3
3
3
3
3
3
3
3
3
3
3
3
3
3
3
3
3
3
3
3
3
3
3
3
3
3
3
3
3
3
3
3
3
3
3
3
3
3
3
3
3
3
3
3
3
3
3
3
3
3
3
3
3
3
3
3
3
3
3
3
3
3
3
3
3
3
3
3
3
3
3
3
3
3
3
3
3
3
3
3
3
3
3
3
3
3
3
3
3
3
3
3
3
3
3
3
3
3
3
3
3
3
3
3
3
3
3
3
3
3
3
3
3
3
3
3
3
3
3
3
3
3
3
3
3
3
3
3
3
3
3
3
3
3
3
3
3
3
3
3
3
3
3
3
3
3
3
3
3
3
3
3
3
3
3
3
3
3
3
3
3
3
3
3
3
3
3
3
3
3
3
3
3
3
3
3
3
3
3
3
3
3
3
3
3
3
3
3
3
3
3
3
3
3
3
3
3
3
3
3
3
3
3
3
3
3
3
3
5
5
5
5
5
5
5
5
5
5
5
5
5
5
5
5
5
5
5
5
5
5
5
5
5
5
5
5
5
5
5
5
5
5
5
5
5
5
5
5
5
5
5
5
5
5
5
5
5
5
5
5
5
5
5
5
5
5
5
5
5
5
5
5
5
5
5
5
5
5
5
5
5
5
5
5
5
5
5
5
5
5
5
5
5
5
5
5
5
5
5
5
5
5
5
5
5
5
5
5
5
5
5
5
5
5
5
5
5
5
5
5
5
5
5
5
5
5
5
5
5
5
5
5
5
5
5
5
5
5
5
5
5
5
5
5
5
5
5
5
5
5
5
5
5
5
5
5
5
5
5
5
5
5
5
5
5
5
5
5
5
5
5
5
5
5
5
5
5
5
5
5
5
5
5
5
5
5
5
5
5
5
5
5
5
5
5
5
5
5
5
5
5
5
5
5
5
5
5
5
5
5
5
5
5
5
5
5
5
5
5
5
5
5
5
5
5
5
5
5
5
5
5
5
5
5
5
5
5
5
5
5
5
5
5
5
5
5
5
5
5
5
5
5
5
5
5
5
5
5
5
5
5
5
5
5
5
5
5
5
5
5
5
5
5
5
5
5
5
5
5
5
5
5
5
5
5
5
5
5
5
5
5
5
5
5
5
5
5
5
5
5
5
5
5
5
5
5
5
5
5
5
5
5
5
5
5
5
5
5
5
5
5
5
5
5
5
5
5
5
5
5
5
5
5
5
5
5
5
5
5
5
5
5
5
5
5
5
5
5
5
5
5
5
5
5
5
5
5
5
5
5
5
5
5
5
5
5
5
5
5
5
5
5
5
5
5
5
5
5
5
5
5
5
5
5
5
5
5
5
5
5
5
5
5
5
5
5
5
5
5
5
5
5
5
5
5
5
5
5
5
5
5
5
5
5
5
5
5
5
5
5
5
5
5
5
5
5
5
5
5
5
5
5
5
5
5
5
5
5
5
5
5
5
5
5
5
5
5
5
5
5
5
5
5
5
5
5
5
5
5
5
5
5
5
5
5
5
5
5
5
5
5
5
5
5
5
5
5
5
5
5
5
5
5
5
5
5
5
5
5
5
5
5
5
5
5
5
5
5
5
5
5
5
5
5
5
5
5
5
5
5
5
5
5
5
5
5
5
5
5
5
5
5
5
5
5
5
5
5
5
5
5
5
5
5
5
5
5
5
5
5
5
5
5
5
5
5
5
5
5
5
5
5
5
5
5
5
5
5
5
5
5
5
5
5
5
5
5
5
5
5
5
5
5
5
5
5
5
5
5
5
5
5
5
5
5
5
5
5
5
5
5
5
5
5
5
5
5
5
5
5
5
5
5
5
5
5
5
5
5
5
5
5
5
5
5
5
5
5
5
5
5
5
5
5
5
5
5
5
5
5
5
5
5
5
5
5
5
5
5
5
5
5
5
5
5
5
5
5
5
5
5
5
5
5
5
5
5
5
5
5
5
5
5
5
5
5
5
5
5
5
5
5
5
5
5
5
5
5
5
5
5
5
5
5
5
5
5
5
5
5
5
5
5
5
5
5
5
5
5
5
5
5
5
5
5
5
5
5
5
5
5
5
5
5
5
5
5
5
5
5
5
5
5
5
5
5
5
5
5
5
5
5
5
5
5
5
5
5
5
5
5
5
5
5
5
5
5
5
5
5
5
5
5
5
5
5
5
5
5
5
5
5
5
5
5
5
5
5
5
5
5
5
5
5
5
5
5
5
5
5
5
5
5
5
5
5
5
5
5
5
5
5
5
5
5
5
5
5
5
5
5
5
5
5
5
5
5
5
5
5
5
5
5
5
5
5
5
5
5
5
5
5
5
5
5
5
5
5
5
5
5
5
5
5
5
5
5
5
5
5
5
5
5
5
5
5
5
5
5
5
5
5
5
5
5
5
5
5
5
5
5
5
5
5
5
5
5
5
5
5
5
5
5
5
5
5
5
5
5
5
5
5
5
5
5
5
5
5
5
5
5
5
5
5
5
5
5
5
5
5
5
5
5
5
5
5
5
5
5
5
5
5
5
5
5
5
5
5
5
5
5
5
5
5
5
5
5
5
5
5
5
5
5
5
5
5
5
5
5
5
5
5
5
5
5
5
5
5
5
5
5
5
5
5
5
5
5
5
5
5
5
5
5
5
5
5
5
5
5
5
5
5
5
5
5
5
5
5
5
5
5
5
5
5
5
5
5
5
5
5
5
5
5
5
5
5
5
5
5
5
5
5
5
5
5
5
5
5
5
5
5
5
5
5
5
5
5
5
10
10
10
10
10
10
10
10
10
10
10
10
10
10
10
10
10
10
10
10
10
10
10
10
10
10
10
10
10
10
10
10
10
10
10
10
10
10
10
10
10
10
10
10
10
10
10
10
10
10
10
10
10
10
10
10
10
10
10
10
10
10
10
10
10
10
10
10
10
10
10
10
10
10
10
10
10
10
10
10
10
10
10
10
10
10
10
10
10
10
10
10
10
10
10
10
10
10
10
10
10
10
10
10
10
10
10
10
10
10
10
10
10
10
10
10
10
10
10
10
10
10
10
10
10
10
10
10
10
10
10
10
10
10
10
10
10
10
10
10
10
10
10
10
10
10
10
10
10
10
10
10
10
10
10
10
10
10
10
10
10
10
10
10
10
10
10
10
10
10
10
10
10
10
10
10
10
10
10
10
10
10
10
10
10
10
10
10
10
10
10
10
10
10
10
10
10
10
10
10
10
10
10
10
10
10
10
10
10
10
10
10
10
10
10
10
10
10
10
10
10
10
10
10
10
10
10
10
10
10
10
10
10
10
10
10
10
10
10
10
10
10
10
10
10
10
10
10
10
10
10
10
10
10
10
10
10
10
10
10
10
10
10
10
10
10
10
10
10
10
10
10
10
10
10
10
10
10
10
10
10
10
10
10
10
10
10
10
10
10
10
10
10
10
10
10
10
10
10
10
10
10
10
10
10
10
10
10
10
10
10
10
10
10
10
10
10
10
10
10
10
10
10
10
10
10
10
10
10
10
10
10
10
10
10
10
10
10
10
10
10
10
10
10
10
10
10
10
10
10
10
10
10
10
10
10
10
10
10
10
10
10
10
10
10
10
10
10
10
10
10
10
10
10
10
10
10
10
10
10
10
10
10
10
10
10
10
10
10
10
10
10
10
10
10
10
10
10
10
10
10
10
10
10
10
10
10
10
10
10
10
10
10
10
10
10
10
10
10
10
10
10
10
10
10
10
10
10
10
10
10
10
10
10
10
10
10
10
10
10
10
10
10
10
10
10
10
10
10
10
10
10
10
10
10
10
10
10
10
10
10
10
10
10
10
10
10
10
10
10
10
10
10
10
10
10
10
10
10
10
10
10
10
10
10
10
10
10
10
10
10
10
10
10
10
10
10
10
10
10
10
10
10
10
10
10
10
10
10
10
10
10
10
10
10
10
10
10
10
10
10
10
10
10
10
10
10
10
10
10
10
10
10
10
10
10
10
10
10
10
10
10
10
10
10
10
10
10
10
10
10
10
10
10
10
10
10
10
10
10
10
10
10
10
10
10
10
10
10
10
10
10
10
10
10
10
10
10
10
10
10
10
10
10
10
10
10
10
10
10
10
10
10
10
10
10
10
10
10
10
10
10
10
10
10
10
10
10
10
10
10
10
10
10
10
10
10
10
10
10
10
10
10
10
10
10
10
10
10
10
10
10
10
10
10
10
10
10
10
10
10
10
10
10
10
10
10
10
10
10
10
10
10
10
10
10
10
10
10
10
10
10
10
10
10
10
10
10
10
10
10
10
10
10
10
10
10
10
10
10
10
10
10
10
10
10
10
10
10
10
10
10
10
10
10
10
10
10
10
10
10
10
10
10
10
10
10
10
10
10
10
10
10
10
10
10
10
10
10
10
10
10
10
10
10
10
10
10
10
10
10
10
10
10
10
10
10
10
10
10
10
10
10
10
10
10
10
10
10
10
10
10
10
10
10
10
10
10
10
10
10
10
10
10
10
10
10
10
10
10
10
10
10
10
10
10
10
10
10
10
10
10
10
10
10
10
10
10
10
10
10
10
10
10
10
10
10
10
10
10
10
10
10
10
10
10
10
10
10
10
10
10
10
10
10
10
10
10
10
10
10
10
10
10
10
10
10
10
10
10
10
10
10
10
10
10
10
10
10
10
10
10
10
10
10
10
10
10
10
10
10
10
10
10
10
10
10
10
10
10
10
10
10
10
10
10
10
10
10
10
10
10
10
10
10
10
10
10
10
10
10
10
10
10
10
10
10
10
10
10
10
10
10
10
10
10
10
10
10
10
10
10
10
10
10
10
10
10
10
10
10
10
10
10
10
10
10
10
10
10
10
10
10
10
10
10
10
10
10
10
10
10
10
10
10
10
10
10
10
10
10
10
10
10
10
10
10
10
10
10
10
10
10
10
10
10
10
10
10
10
10
10
10
10
10
10
10
10
10
10
10
10
10
10
10
10
10
10
10
10
10
10
10
10
10
10
10
10
10
10
10
10
10
10
10
10
10
10
10
10
10
10
10
10
10
10
10
10
10
10
10
10
10
10
10
10
10
10
10
10
10
10
10
10
10
10
10
10
10
10
10
10
10
10
10
10
10
10
10
10
10
10
10
10
10
10
10
10
10
10
10
10
10
10
10
10
10
10
10
10
10
10
10
10
10
10
10
10
10
10
10
10
10
10
10
10
10
10
10
10
10
10
10
10
10
10
10
10
10
10
10
10
10
10
10
10
10
10
10
10
10
10
10
10
10
10
10
10
10
10
10
10
10
10
10
10
10
10
10
10
10
10
10
10
10
10
10
10
10
10
10
10
10
10
10
10
10
10
10
10
10
10
10
10
10
10
10
10
10
10
10
10
10
10
10
10
10
10
10
10
10
10
10
10
10
10
10
10
10
10
10
10
10
10
10
10
10
10
10
10
10
10
10
10
10
10
10
10
10
10
10
10
10
10
10
10
10
10
10
10
10
10
10
10
10
10
10
10
10
10
10
10
10
10
10
10
10
10
10
10
10
10
10
10
10
10
10
10
10
10
10
10
10
10
10
10
10
10
10
10
10
10
10
10
10
10
10
10
10
10
10
10
10
10
10
10
10
10
10
10
10
10
10
10
10
10
10
10
10
10
10
10
10
10
10
10
10
10
10
10
10
10
10
10
10
10
10
10
10
10
10
10
10
10
10
10
10
10
10
10
10
10
10
10
10
10
10
10
10
10
10
10
10
10
10
10
10
10
10
10
10
10
10
10
10
10
10
10
10
10
10
10
10
10
10
10
10
10
10
10
10
10
10
10
10
10
10
10
10
10
10
10
10
10
10
10
10
10
10
10
10
10
10
10
10
10
10
10
10
10
10
10
10
10
10
10
10
10
10
10
10
10
10
10
10
10
10
10
10
10
10
10
10
10
10
10
10
10
10
10
10
10
10
10
10
10
10
10
10
10
10
10
10
10
10
10
10
10
10
10
10
10
10
10
10
10
10
10
10
10
10
10
10
10
10
10
10
10
10
10
10
10
10
10
10
10
10
10
10
10
10
10
10
10
10
10
10
10
10
10
10
10
10
10
10
10
10
10
10
10
10
10
10
10
10
10
10
10
10
10
10
10
10
10
10
10
10
10
10
10
10
10
10
10
10
10
10
10
10
10
10
10
10
