# vtk DataFile Version 2.0
, Created by Gmsh 4.11.1 
ASCII
DATASET UNSTRUCTURED_GRID
POINTS 544 double
8.75 0 -43.49035078965129
14.63413920204384 0 -41.86287787305692
14.63413920204384 0 -38.13712212694308
8.75 0 -36.50964921034871
8.75 0 -3
11.75 0 -3
11.75 0 0
-11.75 0 0
-11.75 0 -3
-8.75 0 -3
-8.75 1.071565949253934e-15 -36.50964921034871
-14.63413920204384 1.792165173205979e-15 -38.13712212694308
-14.63413920204384 1.792165173205979e-15 -41.86287787305692
-8.75 1.071565949253934e-15 -43.49035078965129
-8.75 1.071565949253934e-15 -76.50964921034871
-14.63413920204384 1.792165173205979e-15 -78.13712212694307
-14.63413920204384 1.792165173205979e-15 -81.86287787305693
-8.75 1.071565949253934e-15 -83.49035078965129
-8.75 0 -120
8.75 0 -120
8.75 0 -83.49035078965129
14.63413920204384 0 -81.86287787305693
14.63413920204384 0 -78.13712212694307
8.75 0 -76.50964921034871
-8.75 11.10236690727601 -42.00067054191615
8.75 11.10236690727596 -42.00067054191613
8.75 11.10236690727596 -37.99932945808387
-8.75 11.10236690727596 -37.99932945808387
8.75 20 -3
8.75 20 -34.34265540760985
11.75 23 -3
-11.75 23 -3
-8.75 20 -3
11.75 23 0
-11.75 23 0
-8.75 20 -34.34265540760985
-8.75 20 -45.65734459239015
-8.75 20 -74.34265540760984
-8.75 11.10236690727599 -77.99932945808386
8.75 11.10236690727599 -77.99932945808386
-8.75 11.10236690727595 -82.00067054191614
8.75 11.10236690727595 -82.00067054191614
-8.75 20 -85.65734459239016
-8.75 20 -114.3426554076098
-8.75 6.234218372384402 -120
8.75 6.234218372384402 -120
8.75 20 -85.65734459239016
8.75 20 -114.3426554076098
8.75 20 -45.65734459239015
8.75 20 -74.34265540760984
4.70466587473708 2.312936953133701 -83.49035078965129
-4.704665874737079 2.312936953133703 -83.49035078965129
10.88356083388747 2.312936953133701 -81.86287787305693
-10.88356083388747 2.312936953133703 -81.86287787305693
10.88356083388747 2.312936953133701 -78.13712212694307
4.70466587473708 2.312936953133701 -76.50964921034871
-4.704665874737079 2.312936953133703 -76.50964921034871
-10.88356083388747 2.312936953133703 -78.13712212694307
4.70466587473708 2.312936953133701 -43.49035078965129
-4.704665874737079 2.312936953133703 -43.49035078965129
10.88356083388747 2.312936953133701 -41.86287787305692
-10.88356083388747 2.312936953133703 -41.86287787305692
10.88356083388747 2.312936953133701 -38.13712212694308
4.70466587473708 2.312936953133701 -36.50964921034871
-4.704665874737079 2.312936953133703 -36.50964921034871
-10.88356083388747 2.312936953133703 -38.13712212694308
8.75 0 -29.80771936827897
8.75 0 -23.10578952620923
8.75 0 -16.40385968413948
8.75 0 -9.701929842069738
5.875000000000016 0 0
3.730349362740526e-14 0 0
-5.874999999999972 0 0
-8.75 0 -9.701929842069749
-8.75 0 -16.4038596841395
-8.75 0 -23.10578952620924
-8.75 0 -29.80771936827899
-8.75 0 -50.09421047379077
-8.75 0 -56.69807015793026
-8.75 0 -63.30192984206973
-8.75 0 -69.90578952620919
-8.75 0 -89.57529232470942
-8.75 0 -95.66023385976753
-8.75 0 -101.7451753948257
-8.75 0 -107.8301169298838
-8.75 0 -113.9150584649419
2.916666666666666 0 -120
-2.916666666666668 0 -120
8.75 0 -89.57529232470942
8.75 0 -95.66023385976753
8.75 0 -101.7451753948257
8.75 0 -107.8301169298838
8.75 0 -113.9150584649419
8.75 0 -50.09421047379077
8.75 0 -56.69807015793026
8.75 0 -63.30192984206973
8.75 0 -69.90578952620919
13.18490382959186 6.349515035749612 -41.86287787305692
9.124236551455466 11.44143074697743 -41.86287787305692
3.256402322885565 14.26723077882677 -41.86287787305692
-3.256402322885436 14.2672307788268 -41.86287787305692
-9.12423655145539 11.44143074697749 -41.86287787305692
-13.18490382959184 6.349515035749652 -41.86287787305692
-8.749999999999998 5.588406539294689 -43.03887034879921
-2.954593457692714 12.18060588752002 -42.44379608532522
2.954593457692726 12.18060588752002 -42.44379608532522
8.750000000000002 5.588406539294663 -43.03887034879921
13.18490382959186 6.349515035749612 -38.13712212694308
9.124236551455466 11.44143074697743 -38.13712212694308
3.256402322885565 14.26723077882677 -38.13712212694308
-3.256402322885436 14.2672307788268 -38.13712212694308
-9.12423655145539 11.44143074697749 -38.13712212694308
-13.18490382959184 6.349515035749652 -38.13712212694308
8.750000000000002 5.588406539294666 -36.96112965120079
2.954593457692722 12.18060588752002 -37.55620391467478
-2.954593457692719 12.18060588752002 -37.55620391467478
-8.749999999999998 5.588406539294667 -36.96112965120079
8.75 6.666666666666651 -3
8.75 13.33333333333329 -3
8.75 20 -28.07412432608788
8.75 20 -21.80559324456591
8.75 20 -15.53706216304395
8.75 20 -9.268531081521978
8.75 15.55118345363798 -36.17099243284686
-5.875000000000016 23 -3
-3.730349362740526e-14 23 -3
5.874999999999972 23 -3
-11.75 5.749999999999988 -3
-11.75 11.49999999999999 -3
-11.75 17.24999999999999 -3
-8.75 13.33333333333335 -3
-8.75 6.666666666666705 -3
-2.916666666666666 20 -3
2.916666666666668 20 -3
11.75 5.749999999999988 -3
11.75 11.49999999999999 -3
11.75 17.24999999999999 -3
11.75 5.749999999999988 0
11.75 11.49999999999999 0
11.75 17.24999999999999 0
-5.875000000000016 23 0
-3.730349362740526e-14 23 0
5.874999999999972 23 0
-11.75 5.749999999999988 0
-11.75 11.49999999999999 0
-11.75 17.24999999999999 0
-8.75 20 -9.268531081521967
-8.75 20 -15.53706216304393
-8.75 20 -21.8055932445659
-8.75 20 -28.07412432608787
-8.75 15.55118345363798 -36.17099243284686
-8.75 15.55118345363801 -43.82900756715316
-8.75 20 -68.60559324456591
-8.75 20 -62.86853108152197
-8.75 20 -57.13146891847803
-8.75 20 -51.39440675543408
-8.75 15.55118345363799 -76.17099243284686
-8.749999999999998 5.58840653929468 -76.96112965120078
8.750000000000002 5.588406539294677 -76.96112965120078
2.954593457692727 12.18060588752005 -77.55620391467478
-2.954593457692726 12.18060588752005 -77.55620391467478
13.18490382959186 6.349515035749612 -78.13712212694307
9.124236551455466 11.44143074697743 -78.13712212694307
3.256402322885565 14.26723077882677 -78.13712212694307
-3.256402322885436 14.2672307788268 -78.13712212694307
-9.12423655145539 11.44143074697749 -78.13712212694307
-13.18490382959184 6.349515035749652 -78.13712212694307
13.18490382959186 6.349515035749612 -81.86287787305693
9.124236551455466 11.44143074697743 -81.86287787305693
3.256402322885565 14.26723077882677 -81.86287787305693
-3.256402322885436 14.2672307788268 -81.86287787305693
-9.12423655145539 11.44143074697749 -81.86287787305693
-13.18490382959184 6.349515035749652 -81.86287787305693
-8.749999999999998 5.588406539294657 -83.03887034879922
-2.954593457692721 12.18060588752003 -82.44379608532522
2.954593457692721 12.18060588752003 -82.44379608532522
8.750000000000002 5.588406539294659 -83.03887034879922
-8.75 15.55118345363798 -83.82900756715316
-8.75 20 -108.6055932445659
-8.75 20 -102.868531081522
-8.75 20 -97.13146891847802
-8.75 20 -91.39440675543409
-8.75 10.82281224825626 -118.1142184692033
-8.75 15.41140612412813 -116.2284369384066
2.916666666666666 6.234218372384402 -120
-2.916666666666668 6.234218372384402 -120
8.75 15.55118345363798 -83.82900756715316
8.75 20 -108.6055932445659
8.75 20 -102.868531081522
8.75 20 -97.13146891847802
8.75 20 -91.39440675543409
8.75 10.82281224825626 -118.1142184692033
8.75 15.41140612412813 -116.2284369384066
8.75 15.55118345363799 -43.82900756715314
8.75 20 -68.60559324456591
8.75 20 -62.86853108152197
8.75 20 -57.13146891847803
8.75 20 -51.39440675543408
8.75 15.55118345363799 -76.17099243284686
2.916666666666666 20 -45.65734459239015
-2.916666666666668 20 -45.65734459239015
2.916666666666666 20 -34.34265540760985
-2.916666666666668 20 -34.34265540760985
2.916666666666666 20 -74.34265540760984
-2.916666666666668 20 -74.34265540760984
2.916666666666666 20 -85.65734459239016
-2.916666666666668 20 -85.65734459239016
2.916666666666666 20 -114.3426554076098
-2.916666666666668 20 -114.3426554076098
1.902064203670218 4.885254354401969 -83.49035078965129
-1.902064203670199 4.885254354401977 -83.49035078965129
-5.329070518200751e-15 2.312936953133701 -83.49035078965129
7.797809111143993 2.312936953133701 -82.69070434985639
8.111128558604895 7.616506238419608 -81.86287787305693
2.992249483451227 10.71671669882556 -81.86287787305693
-2.992249483451226 10.71671669882556 -81.86287787305693
-8.111128558604896 7.616506238419606 -81.86287787305693
-7.797809111143991 2.312936953133701 -82.69070434985639
7.797809111143991 2.312936953133701 -77.30929565014361
4.440892098500626e-15 2.312936953133701 -76.50964921034871
-7.797809111143993 2.312936953133701 -77.30929565014361
8.111128558604895 7.616506238419608 -78.13712212694307
2.992249483451227 10.71671669882556 -78.13712212694307
-2.992249483451226 10.71671669882556 -78.13712212694307
-8.111128558604896 7.616506238419606 -78.13712212694307
1.902064203670218 4.885254354401969 -76.50964921034871
-1.902064203670199 4.885254354401977 -76.50964921034871
1.902064203670218 4.885254354401969 -43.49035078965129
-1.902064203670199 4.885254354401977 -43.49035078965129
-5.329070518200751e-15 2.312936953133701 -43.49035078965129
7.797809111143993 2.312936953133701 -42.6907043498564
8.111128558604895 7.616506238419608 -41.86287787305692
2.992249483451227 10.71671669882556 -41.86287787305692
-2.992249483451226 10.71671669882556 -41.86287787305692
-8.111128558604896 7.616506238419606 -41.86287787305692
-7.797809111143991 2.312936953133701 -42.6907043498564
7.797809111143991 2.312936953133701 -37.3092956501436
4.440892098500626e-15 2.312936953133701 -36.50964921034871
-7.797809111143993 2.312936953133701 -37.3092956501436
8.111128558604895 7.616506238419608 -38.13712212694308
2.992249483451227 10.71671669882556 -38.13712212694308
-2.992249483451226 10.71671669882556 -38.13712212694308
-8.111128558604896 7.616506238419606 -38.13712212694308
1.902064203670218 4.885254354401969 -36.50964921034871
-1.902064203670199 4.885254354401977 -36.50964921034871
8.881784197001252e-16 0 -115.3604440379829
4.35042507398351 0 -92.88513607568032
3.775719637919895 0 -104.7876461623547
-1.998004411280994 0 -73.05579056655301
3.740416184937823 0 -47.85305250987177
-3.139750426358431 0 -32.86056435617617
-2.853509306927873 0 -4.16348515129458
-2.778622455617685 0 -59.92261687747879
-2.945958502386575 0 -19.75482460517436
-2.958892933284864 0 -86.19172907839325
-4.196057210019325 0 -98.70270462729658
2.281464188286003 0 -66.57110083781845
2.752159891213203 0 -13.30765993248666
2.945958502386573 0 -26.4567544472441
3.607820019602125 0 -5.796269416910981
-3.006916232284161 0 -39.48086110692083
-2.726544309577275 0 -80.19916528858906
4.324823620537543 0 -72.89945070718315
-2.941591005467472 0 -46.80058847590871
0.2237479638267921 0 -53.56142308249672
3.157969674019409 0 -33.44737984772183
2.231469290547627 0 -83.24117100520195
-2.467842087987072 0 -104.7876461623547
2.211708480542914 0 -98.74090076778828
-1.977241602694312 0 -92.80366902971785
3.701306106054379 0 -58.90854685227575
-3.999032535722535 0 -66.55144553002583
3.159603546935705 0 -40.77249705766098
-4.127950085271686 0 -26.39713046061657
3.859467671321479 0 -19.7912196293718
-4.064207611026265 0 -12.39448376098069
11.40754007761339 0 -80.00000000000001
-11.40754007761341 0 -40
-11.40754007761339 0 -80
3.34944469957696 0 -110.664777250011
-3.6470279269385 0 -111.2328224294728
3.840658325682709 0 -78.45492339498639
-1.068244472759916 0 -8.529741477809395
-4.981246939831153 0 -53.39614031586052
5.033094050963799 0 -53.42306061527305
-4.730575632477495 0 -115.9878907299443
4.64152193542991 0 -115.8486596100252
3.494150085280255 0 -87.98507093355825
-5.097192278142811 0 -7.557928046430881
-10.99922681304503 3.046279774274659 -42.75372555562679
10.99922681304504 3.046279774274628 -42.75372555562678
-14.26723077882678 3.256402322885518 -40.02708734122024
-11.44143074697742 9.124236551455478 -40.02708734122024
-6.349515035749556 13.18490382959189 -40.02708734122024
14.26723077882678 3.256402322885505 -39.97291265877976
5.938585242224628e-14 14.63413920204384 -39.97291265877976
11.44143074697746 9.124236551455427 -40.02708734122024
6.34951503574966 13.18490382959183 -40.02708734122024
-10.99922681304504 3.04627977427464 -37.24627444437322
11.67152881399677 2.613580852891737 -37.39765102135458
8.750000000000002 10.66946957021191 -33.74193421863372
8.750000000000002 14.90273615047699 -18.85726040859796
8.750000000000002 9.999999999999973 -8.773502691896237
8.750000000000002 5.363751219850844 -26.09362520174121
8.750000000000002 5.121749085205984 -19.51907013526043
8.750000000000002 15.24307071092903 -25.24485461476105
8.750000000000002 5.132496801373987 -12.97083676908349
8.750000000000002 14.83259230234298 -12.40279662228296
8.750000000000002 15.58921254554657 -31.09125848417474
8.750000000000002 5.109906793864033 -31.76507763294632
8.750000000000002 9.954781398247095 -15.93820935888838
8.750000000000002 4.867698663235111 -7.877256965325534
8.750000000000002 15.63318512713525 -7.288966079140234
8.750000000000002 10.20174286890674 -22.31255735467533
8.750000000000002 10.36285895155152 -28.37488458448873
10.25 3.10416666666666 -3
-10.25 3.104166666666674 -3
11.75 20.125 -1.5
11.75 8.624999999999988 -1.5
11.75 14.37499999999999 -1.5
11.75 2.874999999999994 -1.5
3.157610638484556 18.22886740495932 0
-2.707174061168084 4.878797530676509 0
7.069955745470663 8.71654637064 0
-6.619519168154191 14.39111856499582 0
7.102873022115112 14.37499999999999 0
0.1126091443291184 11.52691623390895 0
-7.000954855602266 8.644857627020135 0
-2.792058517349995 18.15992185565015 0
2.948495529093417 4.721447277005962 0
-7.528051718759411 18.81262893003678 0
7.528051718759418 4.187371069963204 0
7.820492259183634 19.07601590637069 0
-7.553981076842906 4.160878030182233 0
-11.75 20.125 -1.5
-11.75 14.37499999999999 -1.5
-11.75 8.624999999999988 -1.5
-11.75 2.874999999999994 -1.5
-8.749999999999998 10.66946957021191 -33.74193421863372
-8.749999999999998 14.902736150477 -18.85726040859795
-8.749999999999998 10.00000000000003 -8.773502691896239
-8.749999999999998 5.363751219850841 -26.09362520174122
-8.749999999999998 5.121749085205993 -19.51907013526043
-8.749999999999998 15.24307071092903 -25.24485461476104
-8.749999999999998 5.132496801374008 -12.97083676908349
-8.749999999999998 14.83259230234301 -12.40279662228295
-8.749999999999998 15.58921254554657 -31.09125848417474
-8.749999999999998 5.109906793864033 -31.76507763294632
-8.749999999999998 9.954781398247114 -15.93820935888839
-8.749999999999998 4.867698663235124 -7.877256965325534
-8.749999999999998 15.63318512713528 -7.288966079140232
-8.749999999999998 10.20174286890674 -22.31255735467533
-8.749999999999998 10.36285895155152 -28.37488458448873
-8.749999999999998 10.18733674440817 -47.37477356332196
-8.749999999999998 10.63630430549899 -73.78693524399748
-8.749999999999998 14.80727934817417 -59.96927780609892
-8.749999999999998 5.528855203319365 -66.42179740894979
-8.749999999999998 5.844701142731513 -53.35476017485937
-8.749999999999998 13.36630279315084 -53.34237051200388
-8.749999999999998 5.309537289013554 -60.12313388309284
-8.749999999999998 15.26679742038322 -65.76043778242558
-8.749999999999998 15.31974124754525 -71.16829741760912
-8.749999999999998 16.11687476418016 -48.4721753730345
-8.749999999999998 5.065232007690751 -71.85129573032077
-8.749999999999998 10.29199431720744 -63.04635552457573
-8.749999999999998 4.333629317110779 -47.67374093479411
-8.749999999999998 10.0529262233548 -57.87950423514102
-8.749999999999998 10.46416230575128 -68.34317039420908
-10.99922681304503 3.046279774274654 -77.24627444437321
11.67152881399677 2.613580852891743 -77.39765102135458
-14.26723077882678 3.25640232288553 -80.02708734122027
-11.44143074697742 9.124236551455473 -79.97291265877976
-6.349515035749556 13.18490382959189 -79.97291265877976
14.26848388952748 3.250907208625163 -80
11.44494400142898 9.119829328937641 -80
6.588471573731775e-14 14.63413920204384 -79.97291265877976
6.349515035749657 13.18490382959184 -79.97291265877976
10.99922681304505 3.046279774274626 -82.75372555562679
-10.99922681304505 3.046279774274633 -82.75372555562679
-8.749999999999998 10.38495185080283 -88.46675729788431
-8.749999999999998 11.11213256868223 -113.2519408017107
-8.749999999999998 14.94535730740472 -99.56756820909887
-8.749999999999998 5.211342246463104 -104.7876461623547
-8.749999999999998 5.269713949903399 -92.61776309223848
-8.749999999999998 5.189760084277681 -111.4304982509144
-8.749999999999998 5.269713949903405 -98.70270462729658
-8.749999999999998 15.16709236989452 -93.68778113372255
-8.749999999999998 15.03155842371345 -105.7370621630439
-8.749999999999998 16.22064553486707 -88.60705946931685
-8.749999999999998 16.13931712348897 -111.4741243260879
-8.749999999999998 7.067106989425794 -115.4807539529995
-8.749999999999998 10.08987183311173 -107.9179294614456
-8.749999999999998 9.945545892831412 -101.9069179215309
-8.749999999999998 4.538859000603013 -87.79869946233181
-8.749999999999998 9.877311307164454 -95.70310181075871
-8.749999999999998 3.328883203329728 -116.7547789941769
-5.52964042759961 3.117109186192199 -120
5.529640427599611 3.1171091861922 -120
0 3.1171091861922 -120
8.750000000000002 9.348791741617852 -87.21851522107077
8.750000000000002 11.11213256868223 -113.2519408017107
8.750000000000002 15.33427196619964 -99.45790740156184
8.750000000000002 5.211342246463104 -104.7876461623547
8.750000000000002 5.269713949903399 -92.61776309223848
8.750000000000002 14.89017729687841 -89.57221681062448
8.750000000000002 5.189760084277681 -111.4304982509144
8.750000000000002 5.242051207878419 -98.59304381975957
8.750000000000002 15.03155842371345 -105.7370621630439
8.750000000000002 16.13931712348897 -111.4741243260879
8.750000000000002 11.13874076895032 -95.00226901454539
8.750000000000002 7.067106989425794 -115.4807539529995
8.750000000000002 16.27263800640567 -94.51165378012877
8.750000000000002 10.08987183311173 -107.9179294614456
8.750000000000002 10.19593584797685 -101.867176067892
8.750000000000002 4.152605051821975 -87.33616869185651
8.750000000000002 3.328883203329728 -116.7547789941769
8.750000000000002 10.18733674440815 -47.37477356332195
8.750000000000002 10.63630430549899 -73.78693524399748
8.750000000000002 14.80727934817417 -59.96927780609892
8.750000000000002 5.528855203319365 -66.42179740894979
8.750000000000002 5.844701142731511 -53.35476017485937
8.750000000000002 13.36630279315083 -53.34237051200387
8.750000000000002 5.309537289013554 -60.12313388309284
8.750000000000002 15.26679742038322 -65.76043778242558
8.750000000000002 15.31974124754525 -71.16829741760912
8.750000000000002 16.11687476418014 -48.4721753730345
8.750000000000002 5.065232007690751 -71.85129573032077
8.750000000000002 10.29199431720744 -63.04635552457573
8.750000000000002 4.333629317110764 -47.67374093479411
8.750000000000002 10.0529262233548 -57.87950423514101
8.750000000000002 10.46416230575128 -68.3431703942091
-1.77635683940025e-15 16.07812152564503 -44.04556412259154
4.399843197201919 16.16757510558343 -44.08232699886143
-4.399843197201919 16.16757510558343 -44.08232699886143
0 16.07812152564503 -35.95443587740846
-4.399843197201921 16.16757510558343 -35.91767300113857
4.39984319720192 16.16757510558343 -35.91767300113857
-1.77635683940025e-15 20 -29.4153563329005
0 20 -7.927299074709346
3.321292838989635 20 -18.67132770380493
-3.321292838989636 20 -18.67132770380492
3.215004324555096 20 -12.61973514033851
-3.215004324555096 20 -24.72292026727134
-3.694662288978024 20 -11.8902639396589
3.694662288978023 20 -25.45239146795095
-4.561685219433603 20 -30.02502693307511
4.561685219433604 20 -7.317628474534734
-4.822265791128938 20 -7.017218819178042
4.82226579112894 20 -30.32543658843181
8.812499999999986 23 -1.5
2.937499999999966 23 -1.5
-8.812500000000007 23 -1.5
-2.937500000000027 23 -1.499999999999999
-3.781558423713449 20 -60
0 20 -49.91119431042303
0 20 -70.08880568957696
3.78155842371345 20 -59.99999999999999
2.563376284092092 20 -65.35524166811227
3.620865402059684 20 -53.75221805386902
-2.635184326462507 20 -54.57179836287528
-3.880889637819767 20 -66.18414519697571
4.596008590151752 20 -70.54699028349496
-4.567155687297253 20 -70.18669949807712
-4.610370198625837 20 -49.43841772270254
4.567155687297253 20 -49.81330050192287
0 16.07812152564504 -75.95443587740846
4.399843197201921 16.16757510558343 -75.91767300113857
-4.399843197201921 16.16757510558343 -75.91767300113857
-1.77635683940025e-15 16.07812152564503 -84.04556412259154
-4.399843197201925 16.16757510558343 -84.08232699886145
4.399843197201919 16.16757510558343 -84.08232699886145
-3.781558423713449 20 -100
0 20 -89.91119431042303
0 20 -110.088805689577
3.78155842371345 20 -100
2.563376284092092 20 -105.3552416681123
3.620865402059684 20 -93.75221805386902
-2.635184326462507 20 -94.57179836287528
-3.880889637819767 20 -106.1841451969757
4.596008590151752 20 -110.546990283495
-4.567155687297253 20 -110.1866994980771
4.567155687297253 20 -89.81330050192287
-4.610370198625837 20 -89.43841772270254
-4.861111111111111 13.1171091861922 -117.1713277038049
4.861111111111111 13.1171091861922 -117.1713277038049
0 16.00361474920799 -115.9850560426977
1.77635683940025e-15 10.25190006957169 -118.3488471313587
-5.055555555555557 16.90642601190567 -115.6140263000258
-5.055555555555555 9.332051649757791 -118.7268786608734
5.055555555555555 16.90642601190567 -115.6140263000258
5.055555555555555 9.332051649757791 -118.7268786608734
1.388604704763733e-14 7.556665659345899 -82.85027748650181
-4.505944206322585 6.137232367568383 -82.83448936483548
4.505944206322101 6.137232367568749 -82.83448936483548
2.173848450501616 2.312936953133701 -79.93980780894363
-2.195096603700065 2.312936953133701 -80.06133200776493
-8.584093802497286 2.312936953133701 -80.08158821858044
8.584093802497282 2.312936953133701 -79.91841178141956
-5.765022119312828 2.312936953133701 -80.21196096270934
5.763215303564653 2.312936953133701 -79.78813596048016
9.860604346097277 5.15461499084347 -79.9678195931703
-5.764033068165567 9.51722105255492 -80.03218040682971
5.764033068165564 9.517221052554921 -80.03218040682971
-9.860604346097276 5.154614990843474 -79.96781959317029
6.813087064184657e-16 11.12661555793588 -80.03218040682971
1.388604704763733e-14 7.556665659345905 -77.14972251349819
-4.505944206322299 6.137232367568543 -77.16551063516449
4.505944206322172 6.137232367568662 -77.16551063516451
1.388604704763733e-14 7.556665659345901 -42.85027748650181
-4.505944206322583 6.137232367568386 -42.83448936483548
4.505944206322103 6.137232367568748 -42.83448936483548
2.17384845050162 2.312936953133701 -39.93980780894362
-2.195096603700065 2.312936953133701 -40.06133200776492
8.584093802497282 2.312936953133701 -39.91841178141956
-8.584093802497282 2.312936953133701 -40.08158821858044
5.763215303564653 2.312936953133701 -39.78813596048016
-5.765022119312825 2.312936953133701 -40.21196096270934
9.860604346097277 5.15461499084347 -40.0321804068297
-5.764033068165563 9.517221052554921 -40.0321804068297
5.764033068165569 9.51722105255492 -40.0321804068297
-9.860604346097283 5.154614990843461 -39.9678195931703
-0.001229162347689975 11.12661549004281 -40
1.388604704763733e-14 7.556665659345903 -37.14972251349819
-4.505944206322299 6.137232367568543 -37.16551063516451
4.505944206322171 6.137232367568661 -37.16551063516452
1.465494392505207e-14 7.355589353852578 -50.73192584421481
1.457297343647299e-14 7.357729814861558 -90.74085927685299
2.309263891220326e-14 7.470584237098705 -28.78813126548988
1.48769885299771e-14 7.416017167352474 -69.01587250431439
1.77635683940025e-15 10.56902184944872 -60.44458113794264
1.548874315001817e-15 11.29438747516061 -108.4907477240295
-0.3793742598294969 11.53303852677332 -98.78717408902128
1.77635683940025e-15 11.23237467732299 -19.08066955526073
7.105427357601002e-15 11.32234788630422 -10.12861221740758
-2.474315942012932 6.355711551872646 -113.3502797461977
2.314867375282722 13.33447895768077 -70.20197916406796
0.6121833218498209 13.50453911894183 -29.15862066007612
0.4778827181754431 13.99922825259484 -90.18516793128329
-0.7487395018372186 13.3365746079777 -50.32755331678784
3.315598624950677 8.307109755822106 -112.9461865809387
1.954143851060838 6.718385316863295 -103.4396674035516
-2.937618481405432 14.24910016421554 -5.450638667063458
2.845619029267127 6.029733932133849 -22.77737966189511
-3.270420734978429 12.10550322579781 -65.63861463626264

CELLS 2952 12968
1 0
1 1
1 2
1 3
1 4
1 5
1 6
1 7
1 8
1 9
1 10
1 11
1 12
1 13
1 14
1 15
1 16
1 17
1 18
1 19
1 20
1 21
1 22
1 23
1 24
1 25
1 26
1 27
1 28
1 29
1 30
1 31
1 32
1 33
1 34
1 35
1 36
1 37
1 38
1 39
1 40
1 41
1 42
1 43
1 44
1 45
1 46
1 47
1 48
1 49
1 50
1 51
1 52
1 53
1 54
1 55
1 56
1 57
1 58
1 59
1 60
1 61
1 62
1 63
1 64
1 65
2 0 1
2 1 2
2 2 3
2 3 66
2 66 67
2 67 68
2 68 69
2 69 4
2 4 5
2 5 6
2 6 70
2 70 71
2 71 72
2 72 7
2 8 7
2 8 9
2 9 73
2 73 74
2 74 75
2 75 76
2 76 10
2 11 10
2 12 11
2 13 12
2 13 77
2 77 78
2 78 79
2 79 80
2 80 14
2 15 14
2 16 15
2 17 16
2 17 81
2 81 82
2 82 83
2 83 84
2 84 85
2 85 18
2 19 86
2 86 87
2 87 18
2 20 88
2 88 89
2 89 90
2 90 91
2 91 92
2 92 19
2 20 21
2 21 22
2 22 23
2 0 93
2 93 94
2 94 95
2 95 96
2 96 23
2 1 97
2 97 98
2 98 99
2 99 100
2 100 101
2 101 102
2 102 12
2 24 103
2 103 13
2 24 104
2 104 105
2 105 25
2 25 106
2 106 0
2 2 107
2 107 108
2 108 109
2 109 110
2 110 111
2 111 112
2 112 11
2 3 113
2 113 26
2 26 114
2 114 115
2 115 27
2 10 116
2 116 27
2 4 117
2 117 118
2 118 28
2 29 119
2 119 120
2 120 121
2 121 122
2 122 28
2 26 123
2 123 29
2 31 124
2 124 125
2 125 126
2 126 30
2 8 127
2 127 128
2 128 129
2 129 31
2 32 130
2 130 131
2 131 9
2 32 132
2 132 133
2 133 28
2 5 134
2 134 135
2 135 136
2 136 30
2 6 137
2 137 138
2 138 139
2 139 33
2 30 33
2 34 140
2 140 141
2 141 142
2 142 33
2 7 143
2 143 144
2 144 145
2 145 34
2 31 34
2 32 146
2 146 147
2 147 148
2 148 149
2 149 35
2 27 150
2 150 35
2 36 151
2 151 24
2 37 152
2 152 153
2 153 154
2 154 155
2 155 36
2 38 156
2 156 37
2 14 157
2 157 38
2 23 158
2 158 39
2 39 159
2 159 160
2 160 38
2 22 161
2 161 162
2 162 163
2 163 164
2 164 165
2 165 166
2 166 15
2 21 167
2 167 168
2 168 169
2 169 170
2 170 171
2 171 172
2 172 16
2 40 173
2 173 17
2 40 174
2 174 175
2 175 41
2 41 176
2 176 20
2 42 177
2 177 40
2 43 178
2 178 179
2 179 180
2 180 181
2 181 42
2 44 182
2 182 183
2 183 43
2 18 44
2 45 184
2 184 185
2 185 44
2 19 45
2 46 186
2 186 41
2 47 187
2 187 188
2 188 189
2 189 190
2 190 46
2 45 191
2 191 192
2 192 47
2 48 193
2 193 25
2 49 194
2 194 195
2 195 196
2 196 197
2 197 48
2 39 198
2 198 49
2 48 199
2 199 200
2 200 36
2 29 201
2 201 202
2 202 35
2 49 203
2 203 204
2 204 37
2 46 205
2 205 206
2 206 42
2 47 207
2 207 208
2 208 43
2 50 209
2 209 210
2 210 51
2 51 211
2 211 50
2 50 212
2 212 52
2 52 213
2 213 214
2 214 215
2 215 216
2 216 53
2 53 217
2 217 51
2 52 54
2 54 218
2 218 55
2 55 219
2 219 56
2 56 220
2 220 57
2 53 57
2 54 221
2 221 222
2 222 223
2 223 224
2 224 57
2 55 225
2 225 226
2 226 56
2 58 227
2 227 228
2 228 59
2 59 229
2 229 58
2 58 230
2 230 60
2 60 231
2 231 232
2 232 233
2 233 234
2 234 61
2 61 235
2 235 59
2 60 62
2 62 236
2 236 63
2 63 237
2 237 64
2 64 238
2 238 65
2 61 65
2 62 239
2 239 240
2 240 241
2 241 242
2 242 65
2 63 243
2 243 244
2 244 64
3 3 0 1
3 3 272 0
3 0 249 93
3 0 272 249
3 3 1 2
3 66 265 3
3 265 272 3
3 6 4 5
3 70 4 6
3 4 259 69
3 70 259 4
3 7 8 9
3 9 72 7
3 9 251 72
3 73 288 9
3 9 288 251
3 11 277 10
3 13 260 10
3 10 277 13
3 10 250 76
3 10 260 250
3 12 277 11
3 13 277 12
3 77 263 13
3 13 263 260
3 15 278 14
3 17 261 14
3 14 278 17
3 14 248 80
3 14 261 248
3 16 278 15
3 17 278 16
3 81 254 17
3 254 261 17
3 18 285 85
3 87 285 18
3 19 286 86
3 92 286 19
3 21 276 20
3 20 276 23
3 23 281 20
3 20 287 88
3 20 281 266
3 266 287 20
3 22 276 21
3 23 276 22
3 96 262 23
3 262 281 23
3 67 258 66
3 258 265 66
3 68 274 67
3 67 274 258
3 69 257 68
3 257 274 68
3 69 259 257
3 71 259 70
3 72 251 71
3 251 259 71
3 74 275 73
3 275 288 73
3 75 253 74
3 253 275 74
3 76 273 75
3 75 273 253
3 250 273 76
3 78 283 77
3 77 283 263
3 79 252 78
3 252 283 78
3 80 271 79
3 79 271 252
3 248 271 80
3 82 269 81
3 81 269 254
3 83 255 82
3 255 269 82
3 84 267 83
3 83 267 255
3 85 280 84
3 84 280 267
3 85 285 280
3 86 245 87
3 86 286 245
3 245 285 87
3 88 246 89
3 88 287 246
3 89 268 90
3 246 268 89
3 90 247 91
3 90 268 247
3 91 279 92
3 247 279 91
3 279 286 92
3 93 284 94
3 249 284 93
3 94 270 95
3 94 284 270
3 95 256 96
3 95 270 256
3 256 262 96
3 279 280 245
3 245 286 279
3 280 285 245
3 246 269 268
3 246 287 269
3 247 268 267
3 267 279 247
3 248 262 256
3 256 271 248
3 261 281 248
3 248 281 262
3 263 264 249
3 249 272 263
3 264 284 249
3 250 265 258
3 258 273 250
3 260 265 250
3 251 282 259
3 251 288 282
3 256 270 252
3 252 271 256
3 252 270 264
3 264 283 252
3 253 274 257
3 257 275 253
3 253 273 258
3 258 274 253
3 254 266 261
3 254 287 266
3 269 287 254
3 267 268 255
3 268 269 255
3 259 282 257
3 257 282 275
3 263 272 260
3 260 272 265
3 266 281 261
3 263 283 264
3 270 284 264
3 267 280 279
3 282 288 275
3 0 290 1
3 106 290 0
3 1 290 97
3 12 289 13
3 102 289 12
3 13 289 103
3 100 24 101
3 104 24 100
3 24 102 101
3 103 102 24
3 97 25 98
3 25 97 106
3 98 25 99
3 105 99 25
3 97 290 106
3 100 99 105
3 104 100 105
3 103 289 102
3 1 294 2
3 97 294 1
3 2 294 107
3 11 291 12
3 112 291 11
3 12 291 102
3 98 296 97
3 107 294 97
3 97 296 107
3 99 297 98
3 108 296 98
3 98 297 108
3 100 295 99
3 99 295 109
3 109 297 99
3 101 293 100
3 100 293 110
3 110 295 100
3 102 292 101
3 101 292 111
3 111 293 101
3 102 291 112
3 112 292 102
3 107 296 108
3 108 297 109
3 109 295 110
3 110 293 111
3 111 292 112
3 2 299 3
3 107 299 2
3 3 299 113
3 10 298 11
3 116 298 10
3 11 298 112
3 107 108 26
3 107 26 113
3 108 109 26
3 26 109 114
3 110 111 27
3 115 110 27
3 27 111 112
3 27 112 116
3 113 299 107
3 115 109 110
3 115 114 109
3 112 298 116
3 3 309 66
3 113 309 3
3 69 311 4
3 4 311 117
3 26 300 113
3 123 300 26
3 118 312 28
3 28 312 122
3 119 308 29
3 29 308 123
3 66 303 67
3 66 309 303
3 67 304 68
3 303 304 67
3 68 306 69
3 304 306 68
3 306 311 69
3 300 309 113
3 117 302 118
3 117 311 302
3 302 312 118
3 120 305 119
3 305 308 119
3 121 301 120
3 301 305 120
3 122 307 121
3 121 307 301
3 122 312 307
3 123 308 300
3 308 314 300
3 300 314 309
3 301 313 305
3 307 310 301
3 310 313 301
3 306 310 302
3 302 311 306
3 302 310 307
3 307 312 302
3 303 313 304
3 309 314 303
3 303 314 313
3 304 310 306
3 304 313 310
3 305 314 308
3 313 314 305
3 5 4 315
3 4 117 315
3 134 5 315
3 9 8 316
3 8 127 316
3 131 9 316
3 30 28 126
3 136 28 30
3 28 136 118
3 28 133 126
3 31 124 32
3 129 31 32
3 124 132 32
3 129 32 130
3 135 117 118
3 135 134 117
3 117 134 315
3 136 135 118
3 132 124 125
3 126 133 125
3 133 132 125
3 127 128 131
3 127 131 316
3 128 129 130
3 128 130 131
3 5 320 6
3 134 320 5
3 6 320 137
3 33 317 30
3 30 317 136
3 139 317 33
3 135 318 134
3 134 318 137
3 137 320 134
3 136 319 135
3 138 318 135
3 135 319 138
3 136 317 139
3 139 319 136
3 137 318 138
3 138 319 139
3 6 331 70
3 137 331 6
3 72 333 7
3 7 333 143
3 33 332 139
3 142 332 33
3 34 330 140
3 145 330 34
3 70 329 71
3 70 331 329
3 71 322 72
3 71 329 322
3 322 333 72
3 138 323 137
3 323 331 137
3 139 325 138
3 138 325 323
3 139 332 325
3 140 328 141
3 140 330 328
3 141 321 142
3 141 328 321
3 321 332 142
3 143 327 144
3 143 333 327
3 144 324 145
3 144 327 324
3 324 330 145
3 321 326 325
3 325 332 321
3 321 328 326
3 326 327 322
3 322 329 326
3 327 333 322
3 325 326 323
3 326 329 323
3 329 331 323
3 324 327 326
3 326 328 324
3 328 330 324
3 8 7 337
3 7 143 337
3 127 8 337
3 34 31 334
3 31 129 334
3 145 34 334
3 128 127 336
3 127 143 336
3 143 127 337
3 129 128 335
3 128 144 335
3 144 128 336
3 129 145 334
3 145 129 335
3 143 144 336
3 144 145 335
3 73 9 349
3 9 131 349
3 10 76 347
3 116 10 347
3 27 116 338
3 150 27 338
3 130 32 350
3 32 146 350
3 149 35 346
3 35 150 346
3 74 73 344
3 344 73 349
3 75 74 342
3 342 74 344
3 76 75 341
3 341 75 342
3 76 341 347
3 338 116 347
3 131 130 340
3 340 130 350
3 131 340 349
3 146 147 345
3 146 345 350
3 147 148 339
3 147 339 345
3 148 149 343
3 339 148 343
3 343 149 346
3 150 338 346
3 346 338 352
3 338 347 352
3 339 343 351
3 345 339 348
3 348 339 351
3 344 340 348
3 340 344 349
3 340 345 348
3 345 340 350
3 341 342 351
3 347 341 352
3 341 351 352
3 342 344 348
3 342 348 351
3 343 346 352
3 351 343 352
3 77 13 365
3 13 103 365
3 14 80 363
3 157 14 363
3 103 24 353
3 24 151 353
3 151 36 362
3 36 155 362
3 152 37 361
3 37 156 361
3 156 38 354
3 38 157 354
3 78 77 357
3 357 77 365
3 79 78 359
3 78 357 359
3 80 79 356
3 356 79 359
3 80 356 363
3 103 353 365
3 353 151 362
3 153 152 360
3 360 152 361
3 154 153 355
3 355 153 360
3 155 154 358
3 154 355 358
3 155 358 362
3 156 354 361
3 354 157 363
3 357 353 358
3 353 357 365
3 358 353 362
3 361 354 367
3 354 363 367
3 358 355 366
3 355 360 364
3 355 364 366
3 356 359 364
3 363 356 367
3 356 364 367
3 357 358 366
3 359 357 366
3 364 359 366
3 360 361 367
3 364 360 367
3 14 368 15
3 157 368 14
3 15 368 166
3 22 369 23
3 161 369 22
3 23 369 158
3 38 166 157
3 160 164 38
3 164 165 38
3 38 165 166
3 161 39 158
3 39 163 159
3 161 162 39
3 162 163 39
3 166 368 157
3 158 369 161
3 160 159 163
3 160 163 164
3 15 370 16
3 166 370 15
3 16 370 172
3 21 373 22
3 167 373 21
3 22 373 161
3 161 374 162
3 161 373 167
3 167 374 161
3 162 376 163
3 162 374 168
3 168 376 162
3 163 375 164
3 169 375 163
3 163 376 169
3 164 372 165
3 170 372 164
3 164 375 170
3 165 371 166
3 171 371 165
3 165 372 171
3 172 370 166
3 166 371 172
3 168 374 167
3 169 376 168
3 170 375 169
3 171 372 170
3 172 371 171
3 16 378 17
3 172 378 16
3 17 378 173
3 20 377 21
3 176 377 20
3 21 377 167
3 170 40 171
3 174 40 170
3 40 172 171
3 173 172 40
3 167 41 168
3 41 167 176
3 168 41 169
3 175 169 41
3 167 377 176
3 170 169 174
3 174 169 175
3 173 378 172
3 81 17 393
3 17 173 393
3 44 18 395
3 18 85 395
3 173 40 379
3 40 177 379
3 177 42 388
3 42 181 388
3 178 43 389
3 43 183 389
3 182 44 390
3 390 44 395
3 82 81 383
3 383 81 393
3 83 82 385
3 82 383 385
3 84 83 382
3 382 83 385
3 85 84 384
3 84 382 384
3 85 384 395
3 173 379 393
3 379 177 388
3 179 178 387
3 387 178 389
3 180 179 381
3 381 179 387
3 181 180 386
3 180 381 386
3 181 386 388
3 183 182 380
3 380 182 390
3 183 380 389
3 379 383 393
3 383 379 394
3 386 379 388
3 379 386 394
3 384 380 390
3 380 384 391
3 389 380 391
3 386 381 394
3 381 387 392
3 381 392 394
3 384 382 391
3 382 385 392
3 391 382 392
3 385 383 394
3 384 390 395
3 392 385 394
3 387 389 391
3 387 391 392
3 44 396 18
3 18 396 87
3 19 397 45
3 86 397 19
3 185 396 44
3 45 397 184
3 87 398 86
3 86 398 397
3 396 398 87
3 184 398 185
3 397 398 184
3 185 398 396
3 45 415 19
3 19 415 92
3 88 414 20
3 20 414 176
3 176 399 41
3 41 399 186
3 191 410 45
3 410 415 45
3 186 404 46
3 46 404 190
3 187 408 47
3 47 408 192
3 89 403 88
3 403 414 88
3 90 406 89
3 89 406 403
3 91 402 90
3 402 406 90
3 92 405 91
3 91 405 402
3 92 415 405
3 176 414 399
3 399 404 186
3 188 407 187
3 407 408 187
3 189 401 188
3 401 407 188
3 190 411 189
3 189 411 401
3 404 411 190
3 192 400 191
3 400 410 191
3 192 408 400
3 403 409 399
3 399 414 403
3 399 409 404
3 405 410 400
3 400 412 405
3 408 412 400
3 401 413 407
3 401 411 409
3 409 413 401
3 405 412 402
3 402 413 406
3 412 413 402
3 406 409 403
3 409 411 404
3 405 415 410
3 406 413 409
3 407 412 408
3 407 413 412
3 93 428 0
3 0 428 106
3 23 426 96
3 158 426 23
3 106 416 25
3 25 416 193
3 39 417 158
3 198 417 39
3 193 425 48
3 48 425 197
3 194 424 49
3 49 424 198
3 94 420 93
3 420 428 93
3 95 422 94
3 94 422 420
3 96 419 95
3 419 422 95
3 96 426 419
3 106 428 416
3 417 426 158
3 416 425 193
3 195 423 194
3 423 424 194
3 196 418 195
3 418 423 195
3 197 421 196
3 196 421 418
3 197 425 421
3 198 424 417
3 420 421 416
3 416 428 420
3 421 425 416
3 424 430 417
3 417 430 426
3 421 429 418
3 418 427 423
3 418 429 427
3 419 427 422
3 426 430 419
3 419 430 427
3 420 429 421
3 422 429 420
3 427 429 422
3 423 430 424
3 427 430 423
3 151 24 104
3 105 25 193
3 151 433 36
3 36 433 200
3 48 432 193
3 199 432 48
3 105 431 104
3 104 433 151
3 431 433 104
3 193 432 105
3 105 432 431
3 200 431 199
3 431 432 199
3 200 433 431
3 123 26 114
3 115 27 150
3 123 436 29
3 29 436 201
3 35 435 150
3 202 435 35
3 115 434 114
3 114 436 123
3 434 436 114
3 150 435 115
3 115 435 434
3 201 434 202
3 201 436 434
3 434 435 202
3 122 446 28
3 28 446 133
3 29 448 119
3 201 448 29
3 132 447 32
3 32 447 146
3 149 445 35
3 35 445 202
3 119 444 120
3 119 448 444
3 120 439 121
3 120 444 439
3 121 441 122
3 439 441 121
3 441 446 122
3 133 438 132
3 438 447 132
3 133 446 438
3 146 443 147
3 146 447 443
3 147 440 148
3 147 443 440
3 148 442 149
3 440 442 148
3 442 445 149
3 202 437 201
3 437 448 201
3 202 445 437
3 442 444 437
3 437 445 442
3 444 448 437
3 441 443 438
3 438 446 441
3 443 447 438
3 440 441 439
3 439 442 440
3 439 444 442
3 440 443 441
3 30 449 33
3 126 449 30
3 34 451 31
3 31 451 124
3 33 449 142
3 140 451 34
3 124 452 125
3 124 451 140
3 140 452 124
3 125 450 126
3 141 450 125
3 125 452 141
3 142 449 126
3 126 450 142
3 141 452 140
3 142 450 141
3 36 463 155
3 200 463 36
3 152 462 37
3 37 462 204
3 197 464 48
3 48 464 199
3 49 461 194
3 203 461 49
3 153 460 152
3 460 462 152
3 154 453 153
3 453 460 153
3 155 459 154
3 154 459 453
3 155 463 459
3 194 457 195
3 194 461 457
3 195 456 196
3 195 457 456
3 196 458 197
3 456 458 196
3 458 464 197
3 199 454 200
3 199 464 454
3 454 463 200
3 204 455 203
3 455 461 203
3 204 462 455
3 456 457 453
3 453 459 456
3 457 460 453
3 458 459 454
3 454 464 458
3 459 463 454
3 455 460 457
3 457 461 455
3 455 462 460
3 456 459 458
3 37 467 156
3 204 467 37
3 38 156 160
3 198 39 159
3 198 466 49
3 49 466 203
3 156 467 160
3 160 465 159
3 159 466 198
3 465 466 159
3 160 467 465
3 203 465 204
3 203 466 465
3 465 467 204
3 177 40 174
3 175 41 186
3 177 469 42
3 42 469 206
3 46 470 186
3 205 470 46
3 175 468 174
3 174 469 177
3 468 469 174
3 186 470 175
3 175 470 468
3 206 468 205
3 468 470 205
3 206 469 468
3 42 482 181
3 206 482 42
3 178 480 43
3 43 480 208
3 190 481 46
3 46 481 205
3 47 479 187
3 207 479 47
3 179 478 178
3 478 480 178
3 180 471 179
3 471 478 179
3 181 477 180
3 180 477 471
3 181 482 477
3 187 475 188
3 187 479 475
3 188 474 189
3 188 475 474
3 189 476 190
3 474 476 189
3 476 481 190
3 205 472 206
3 205 481 472
3 472 482 206
3 208 473 207
3 473 479 207
3 208 480 473
3 474 475 471
3 471 477 474
3 475 478 471
3 476 477 472
3 472 481 476
3 477 482 472
3 473 478 475
3 475 479 473
3 473 480 478
3 474 477 476
3 43 487 183
3 208 487 43
3 182 488 44
3 44 488 185
3 184 490 45
3 45 490 191
3 192 489 47
3 47 489 207
3 183 483 182
3 483 488 182
3 183 487 483
3 185 486 184
3 486 490 184
3 185 488 486
3 191 484 192
3 191 490 484
3 484 489 192
3 207 485 208
3 207 489 485
3 485 487 208
3 485 486 483
3 483 487 485
3 486 488 483
3 484 486 485
3 485 489 484
3 484 490 486
3 209 211 50
3 211 210 51
3 210 211 209
3 209 50 493
3 50 212 493
3 51 210 492
3 217 51 492
3 52 213 212
3 216 53 217
3 210 209 491
3 491 209 493
3 210 491 492
3 212 213 493
3 213 214 493
3 214 215 491
3 214 491 493
3 215 216 492
3 491 215 492
3 216 217 492
3 211 494 50
3 50 499 212
3 494 499 50
3 51 495 211
3 217 498 51
3 51 498 495
3 52 497 54
3 212 497 52
3 57 496 53
3 53 496 217
3 54 497 218
3 218 499 55
3 55 494 219
3 55 499 494
3 219 495 56
3 56 498 220
3 495 498 56
3 220 496 57
3 211 495 494
3 212 499 497
3 496 498 217
3 497 499 218
3 494 495 219
3 220 498 496
3 52 54 500
3 213 52 500
3 57 53 503
3 53 216 503
3 54 221 500
3 224 57 503
3 214 213 502
3 221 213 500
3 213 221 502
3 215 214 504
3 222 214 502
3 214 222 504
3 216 215 501
3 215 223 501
3 223 215 504
3 224 216 501
3 216 224 503
3 221 222 502
3 222 223 504
3 223 224 501
3 54 218 221
3 218 55 507
3 55 225 507
3 56 220 506
3 226 56 506
3 224 220 57
3 221 218 507
3 220 224 506
3 222 221 507
3 223 222 505
3 505 222 507
3 224 223 506
3 223 505 506
3 225 226 505
3 225 505 507
3 505 226 506
3 219 225 55
3 226 219 56
3 219 226 225
3 227 229 58
3 229 228 59
3 228 229 227
3 227 58 510
3 58 230 510
3 59 228 509
3 235 59 509
3 60 231 230
3 234 61 235
3 228 227 508
3 508 227 510
3 228 508 509
3 230 231 510
3 231 232 510
3 232 233 508
3 232 508 510
3 233 234 509
3 508 233 509
3 234 235 509
3 229 511 58
3 58 515 230
3 511 515 58
3 59 512 229
3 235 516 59
3 59 516 512
3 60 513 62
3 230 513 60
3 65 514 61
3 61 514 235
3 62 513 236
3 236 515 63
3 63 511 237
3 63 515 511
3 237 512 64
3 64 516 238
3 512 516 64
3 238 514 65
3 229 512 511
3 230 515 513
3 514 516 235
3 513 515 236
3 511 512 237
3 238 516 514
3 60 62 517
3 231 60 517
3 65 61 520
3 61 234 520
3 62 239 517
3 242 65 520
3 232 231 519
3 239 231 517
3 231 239 519
3 233 232 521
3 240 232 519
3 232 240 521
3 234 233 518
3 233 241 518
3 241 233 521
3 242 234 518
3 234 242 520
3 239 240 519
3 240 241 521
3 241 242 518
3 62 236 239
3 236 63 524
3 63 243 524
3 64 238 523
3 244 64 523
3 242 238 65
3 239 236 524
3 238 242 523
3 240 239 524
3 241 240 522
3 522 240 524
3 242 241 523
3 241 522 523
3 243 244 522
3 243 522 524
3 522 244 523
3 237 243 63
3 244 237 64
3 244 243 237
4 275 532 344 533
4 343 532 527 536
4 351 352 343 527
4 523 244 522 527
4 524 522 243 527
4 351 527 343 532
4 349 251 282 322
4 346 338 435 536
4 255 385 526 531
4 282 349 322 533
4 352 338 346 536
4 244 237 243 527
4 226 505 506 528
4 505 225 507 528
4 343 346 445 536
4 446 312 133 541
4 343 352 346 536
4 282 322 329 533
4 282 251 349 288
4 352 343 527 536
4 342 341 351 542
4 458 529 421 538
4 259 282 329 533
4 118 133 312 541
4 492 491 210 526
4 493 209 491 526
4 467 361 354 543
4 356 271 528 529
4 508 228 509 525
4 227 508 510 525
4 493 414 209 526
4 348 344 342 532
4 219 225 226 528
4 310 532 306 533
4 348 344 532 533
4 435 338 115 536
4 259 311 282 533
4 275 257 532 533
4 352 527 338 536
4 341 527 351 542
4 131 322 349 533
4 306 532 257 533
4 342 351 532 542
4 478 387 530 531
4 469 388 482 537
4 482 388 386 537
4 401 411 476 531
4 255 526 268 531
4 509 228 365 525
4 510 428 227 525
4 255 385 531 540
4 429 422 420 529
4 359 366 357 529
4 467 354 160 543
4 210 209 211 526
4 228 227 229 525
4 343 442 532 536
4 421 529 525 538
4 422 427 419 529
4 322 533 131 541
4 446 533 312 541
4 385 255 382 540
4 356 529 528 543
4 509 233 508 525
4 403 406 246 526
4 313 532 305 536
4 382 392 385 540
4 282 275 349 533
4 458 418 421 529
4 118 312 533 541
4 525 529 366 538
4 306 257 532 542
4 268 526 406 531
4 492 210 393 526
4 385 394 526 531
4 462 361 467 543
4 385 394 383 526
4 464 425 432 538
4 407 530 413 531
4 445 346 435 536
4 429 525 421 529
4 306 304 257 542
4 527 532 351 542
4 345 532 443 533
4 429 420 525 529
4 366 525 357 529
4 311 257 282 533
4 427 528 419 529
4 423 427 529 535
4 407 413 401 531
4 117 302 311 533
4 340 131 349 533
4 411 476 531 537
4 422 419 256 529
4 432 425 416 538
4 338 527 115 536
4 356 252 271 529
4 444 305 532 536
4 359 252 356 529
4 392 531 385 540
4 469 379 388 537
4 493 50 209 414
4 380 483 487 530
4 251 282 322 329
4 387 392 530 531
4 526 531 386 537
4 382 534 530 540
4 420 270 525 529
4 523 347 244 527
4 243 309 524 527
4 131 533 340 541
4 359 357 252 529
4 349 275 344 533
4 357 525 252 529
4 420 422 270 529
4 419 528 256 529
4 386 388 379 537
4 246 406 268 526
4 359 529 356 543
4 364 359 356 543
4 406 268 531 540
4 506 363 226 528
4 225 426 507 528
4 423 427 418 529
4 255 531 268 540
4 485 489 479 530
4 354 528 160 543
4 284 420 270 525
4 244 243 522 527
4 313 532 536 542
4 458 459 529 538
4 509 59 365 228
4 510 58 227 428
4 392 382 530 540
4 467 160 535 543
4 269 268 255 526
4 464 421 425 538
4 386 526 394 531
4 487 485 480 530
4 210 51 393 254
4 413 531 530 540
4 252 357 283 525
4 407 475 530 531
4 458 456 418 529
4 210 393 51 492
4 387 381 392 531
4 386 379 526 537
4 474 407 401 531
4 489 408 479 530
4 257 311 306 533
4 273 527 341 542
4 251 282 329 259
4 392 382 391 530
4 264 525 270 529
4 305 313 301 532
4 339 351 343 532
4 264 284 270 525
4 354 361 367 543
4 358 366 529 538
4 485 479 473 530
4 528 529 427 535
4 364 529 359 543
4 275 282 257 533
4 507 528 417 535
4 406 526 409 531
4 322 326 329 533
4 464 458 421 538
4 389 487 480 530
4 483 485 487 530
4 225 505 226 528
4 430 528 427 535
4 358 366 355 529
4 429 421 418 529
4 257 282 259 311
4 421 416 425 538
4 523 338 347 527
4 300 524 309 527
4 478 471 387 531
4 480 485 473 530
4 462 467 535 543
4 275 257 253 532
4 256 270 422 529
4 320 5 315 134
4 8 127 337 316
4 416 105 432 538
4 252 525 264 529
4 393 210 254 526
4 489 485 484 539
4 267 534 382 540
4 304 274 257 542
4 392 530 531 540
4 487 389 380 530
4 506 354 363 528
4 507 426 417 528
4 342 253 341 542
4 403 409 406 526
4 226 56 363 506
4 55 507 225 426
4 348 532 345 533
4 307 532 310 533
4 445 442 343 536
4 174 379 469 537
4 523 347 64 244
4 524 243 63 309
4 118 533 326 541
4 287 209 414 526
4 209 50 287 414
4 345 348 339 532
4 307 301 310 532
4 467 465 455 535
4 307 312 446 533
4 252 283 264 525
4 478 530 475 531
4 528 535 160 543
4 341 352 351 527
4 233 525 509 538
4 202 445 434 437
4 391 530 382 534
4 457 423 418 529
4 431 454 432 538
4 423 529 457 535
4 430 419 427 528
4 118 312 302 533
4 326 533 322 541
4 314 313 536 542
4 489 484 400 539
4 387 471 381 531
4 469 472 468 537
4 445 434 437 536
4 432 199 454 431
4 349 282 288 275
4 434 435 445 202
4 227 428 249 525
4 445 435 434 536
4 379 394 386 526
4 249 227 58 428
4 354 367 528 543
4 133 438 446 541
4 479 408 407 530
4 491 209 210 526
4 382 255 267 540
4 439 301 307 532
4 440 345 339 532
4 411 531 409 537
4 435 115 434 536
4 227 228 508 525
4 204 455 467 465
4 208 480 487 485
4 345 440 443 532
4 225 262 426 528
4 353 233 509 538
4 401 409 411 531
4 438 533 446 541
4 392 391 387 530
4 311 302 306 533
4 340 349 344 533
4 314 313 305 536
4 459 358 355 529
4 210 211 254 526
4 387 480 478 530
4 253 532 257 542
4 273 341 253 542
4 442 444 532 536
4 421 525 416 538
4 455 462 467 535
4 305 301 439 532
4 459 358 529 538
4 307 441 532 533
4 489 400 408 539
4 382 280 384 534
4 464 454 458 538
4 489 479 207 485
4 477 386 531 537
4 262 55 225 426
4 160 465 467 535
4 416 525 105 538
4 469 482 472 537
4 527 536 532 542
4 386 477 482 537
4 454 464 432 538
4 489 408 530 539
4 174 526 379 537
4 508 525 233 538
4 227 249 229 525
4 522 115 527 536
4 389 480 387 530
4 420 421 429 525
4 483 486 485 530
4 56 363 248 226
4 480 208 473 485
4 423 430 427 535
4 107 2 299 294
4 441 443 532 533
4 252 264 270 529
4 489 530 485 539
4 442 339 343 532
4 342 532 253 542
4 439 444 305 532
4 407 474 475 531
4 464 199 454 432
4 327 322 131 541
4 412 413 407 530
4 509 365 353 525
4 416 428 510 525
4 473 207 479 485
4 492 393 379 526
4 22 161 373 369
4 476 474 401 531
4 160 528 505 535
4 384 391 382 534
4 432 105 431 538
4 204 455 462 467
4 211 209 287 526
4 174 469 468 537
4 249 428 284 525
4 445 437 442 536
4 458 459 456 529
4 353 509 525 538
4 253 257 274 542
4 480 473 478 530
4 352 347 338 527
4 309 314 300 527
4 483 530 380 534
4 477 472 482 537
4 184 398 245 534
4 302 310 306 533
4 348 340 344 533
4 267 280 382 534
4 363 248 226 528
4 491 526 174 537
4 256 252 270 529
4 105 525 508 538
4 263 365 59 228
4 479 407 475 530
4 399 414 493 526
4 483 486 530 534
4 363 354 367 528
4 417 426 430 528
4 365 228 263 525
4 314 300 527 536
4 420 284 428 525
4 243 237 265 527
4 478 475 471 531
4 286 184 245 539
4 412 413 530 540
4 314 536 527 542
4 355 453 459 529
4 398 184 245 286
4 406 531 413 540
4 462 535 455 543
4 213 52 212 176
4 427 422 429 529
4 366 359 364 529
4 534 539 530 540
4 514 10 13 516
4 430 417 528 535
4 279 539 534 540
4 351 348 342 532
4 244 250 237 527
4 265 309 243 527
4 184 415 410 539
4 460 462 455 543
4 9 131 316 333
4 409 531 526 537
4 219 226 248 528
4 117 4 315 331
4 251 349 131 322
4 218 54 221 158
4 220 224 57 157
4 457 535 529 543
4 385 392 394 531
4 236 62 239 113
4 238 242 65 116
4 265 63 243 309
4 268 269 246 526
4 344 74 342 275
4 479 475 473 530
4 408 412 407 530
4 413 406 409 531
4 389 391 380 530
4 360 361 462 543
4 175 491 174 537
4 307 441 439 532
4 244 347 250 527
4 402 405 279 540
4 389 387 391 530
4 418 456 457 529
4 476 477 531 537
4 405 539 279 540
4 267 279 534 540
4 340 348 345 533
4 307 310 302 533
4 307 446 441 533
4 496 14 17 498
4 231 60 230 106
4 61 234 235 103
4 312 307 302 533
4 287 414 403 526
4 393 254 269 526
4 393 269 383 526
4 418 427 429 529
4 355 366 364 529
4 440 441 443 532
4 104 233 353 538
4 279 247 402 540
4 250 64 347 244
4 357 365 283 525
4 529 535 528 543
4 381 477 386 531
4 345 533 443 541
4 271 363 356 528
4 228 229 263 525
4 379 383 394 526
4 485 530 486 539
4 184 534 245 539
4 267 279 280 534
4 515 3 0 513
4 341 273 347 527
4 157 38 354 224
4 39 158 417 221
4 394 381 386 531
4 453 457 529 543
4 416 421 420 525
4 473 475 478 530
4 327 326 322 541
4 115 114 434 536
4 310 532 313 542
4 116 27 338 242
4 26 113 300 239
4 357 353 525 538
4 401 413 409 531
4 352 341 347 527
4 303 314 309 527
4 419 422 256 95
4 446 438 441 533
4 301 313 310 532
4 351 339 348 532
4 211 287 254 526
4 184 410 490 539
4 339 442 440 532
4 383 379 393 526
4 363 367 356 528
4 426 419 430 528
4 414 399 403 526
4 287 403 246 526
4 391 380 530 534
4 357 353 365 525
4 420 428 416 525
4 160 159 465 535
4 53 216 217 173
4 355 529 364 543
4 405 410 415 539
4 84 384 382 280
4 442 444 439 532
4 460 360 462 543
4 350 345 443 541
4 365 263 283 525
4 355 453 529 543
4 303 314 527 542
4 99 98 297 25
4 164 165 372 38
4 363 271 248 528
4 256 419 426 528
4 530 534 486 539
4 162 163 376 39
4 101 100 293 24
4 409 403 399 526
4 310 313 304 542
4 443 533 438 541
4 443 447 350 541
4 453 456 459 529
4 256 426 262 528
4 13 10 514 277
4 444 442 437 536
4 382 385 83 255
4 396 390 395 534
4 23 20 497 276
4 431 105 104 538
4 468 175 174 537
4 409 526 399 537
4 405 415 286 539
4 458 454 459 538
4 345 340 533 541
4 453 460 457 543
4 449 33 142 332
4 530 539 412 540
4 90 402 247 540
4 185 390 396 534
4 439 301 305 120
4 34 330 451 140
4 131 340 130 541
4 385 383 82 255
4 381 394 392 531
4 357 358 353 538
4 111 110 27 293
4 170 171 40 372
4 68 304 257 306
4 488 380 390 534
4 499 281 20 497
4 261 219 248 281
4 285 396 185 398
4 248 14 56 261
4 474 476 477 531
4 26 297 109 108
4 168 169 41 376
4 381 471 477 531
4 461 424 423 535
4 481 476 411 537
4 267 247 279 540
4 367 356 528 543
4 460 453 360 543
4 257 274 304 68
4 439 307 301 121
4 345 147 440 339
4 184 398 397 286
4 270 256 422 95
4 441 438 443 533
4 253 342 74 275
4 488 390 185 534
4 453 457 456 529
4 3 62 60 513
4 337 143 7 333
4 355 360 453 543
4 345 350 340 541
4 320 331 6 137
4 303 309 258 527
4 28 312 118 133
4 139 33 317 332
4 14 17 278 496
4 444 439 305 120
4 402 247 279 91
4 334 330 34 145
4 483 380 488 534
4 481 411 404 537
4 406 402 90 540
4 263 229 272 249
4 131 130 327 541
4 14 17 498 261
4 184 185 398 534
4 185 285 398 534
4 305 448 308 536
4 474 471 475 531
4 286 245 279 539
4 312 28 446 133
4 421 458 196 418
4 303 313 314 542
4 245 398 285 534
4 440 443 147 345
4 485 486 484 539
4 405 402 279 91
4 347 273 250 527
4 452 141 140 328
4 269 82 383 255
4 133 132 438 541
4 267 84 382 280
4 324 145 335 144
4 476 472 477 537
4 440 439 441 532
4 284 270 420 94
4 148 442 339 343
4 229 249 263 525
4 255 268 267 540
4 249 284 264 525
4 360 460 153 453
4 141 321 450 142
4 443 438 447 541
4 466 417 424 535
4 131 333 251 322
4 396 395 285 534
4 176 41 213 167
4 81 383 393 269
4 201 437 434 536
4 254 81 393 269
4 450 133 125 126
4 124 125 452 132
4 396 285 185 534
4 358 463 362 538
4 471 387 381 179
4 355 360 153 453
4 9 131 333 251
4 229 260 263 272
4 176 41 399 213
4 444 448 305 536
4 225 219 55 262
4 471 478 387 179
4 184 486 185 534
4 60 0 3 513
4 483 488 486 534
4 454 431 200 538
4 152 462 360 361
4 300 308 436 536
4 260 237 265 272
4 267 382 83 255
4 39 158 221 161
4 157 38 224 166
4 132 133 328 541
4 446 312 307 122
4 465 203 455 535
4 116 27 242 112
4 26 113 239 107
4 448 119 305 308
4 159 417 466 535
4 468 472 205 537
4 245 534 279 539
4 300 436 114 536
4 419 256 426 96
4 323 137 318 138
4 461 423 457 535
4 418 458 196 456
4 395 384 285 534
4 391 384 380 534
4 269 254 287 526
4 463 358 362 155
4 442 439 440 532
4 447 132 32 541
4 266 20 50 499
4 2 3 62 60
4 139 319 138 325
4 227 58 229 249
4 256 262 426 96
4 188 474 407 401
4 94 270 420 422
4 395 384 85 285
4 265 258 309 527
4 403 89 246 406
4 258 527 273 542
4 106 25 231 97
4 24 103 234 102
4 428 249 284 93
4 437 434 202 201
4 250 265 237 527
4 258 303 527 542
4 360 367 361 543
4 423 424 461 194
4 336 144 143 327
4 260 237 250 265
4 279 405 286 539
4 89 268 246 406
4 20 176 414 212
4 447 32 350 541
4 404 411 409 537
4 477 381 386 180
4 287 211 50 209
4 470 399 175 537
4 184 486 534 539
4 355 358 459 154
4 459 463 358 538
4 135 117 134 318
4 336 128 131 127
4 509 353 234 233
4 232 510 416 231
4 470 404 399 537
4 106 25 416 231
4 24 103 353 234
4 259 329 331 117
4 395 390 384 534
4 384 390 380 534
4 367 364 356 543
4 325 118 323 326
4 126 28 30 449
4 32 31 451 124
4 489 484 192 400
4 483 183 380 487
4 213 52 176 167
4 471 474 477 531
4 410 400 191 490
4 182 390 488 380
4 433 353 362 538
4 213 212 493 176
4 424 461 466 535
4 287 246 269 526
4 242 338 523 241
4 300 524 240 239
4 102 292 24 101
4 165 38 166 371
4 98 25 97 296
4 321 328 133 541
4 447 146 443 350
4 346 445 149 343
4 353 433 104 538
4 430 424 417 535
4 224 506 223 354
4 417 221 507 222
4 415 405 286 92
4 307 439 441 121
4 404 481 190 411
4 260 13 10 516
4 284 420 428 93
4 311 69 257 306
4 396 285 87 398
4 379 40 215 174
4 424 430 423 535
4 314 308 300 536
4 459 358 463 155
4 305 308 314 536
4 256 262 248 528
4 41 374 167 168
4 161 374 39 162
4 347 64 10 238
4 398 397 286 86
4 436 308 448 536
4 119 305 444 448
4 221 54 161 158
4 117 4 331 259
4 335 129 130 128
4 135 319 136 118
4 464 458 197 421
4 355 364 360 543
4 454 200 463 538
4 409 399 404 537
4 271 80 363 248
4 421 197 464 425
4 239 62 107 113
4 69 257 259 311
4 23 20 281 497
4 224 220 506 157
4 218 221 507 158
4 263 264 283 525
4 462 460 152 360
4 34 330 334 451
4 467 462 37 361
4 258 66 309 303
4 76 347 341 273
4 242 238 523 116
4 236 239 524 113
4 433 362 463 538
4 216 40 173 172
4 396 44 395 390
4 174 469 379 177
4 412 402 413 540
4 478 480 387 178
4 201 448 437 536
4 27 292 112 111
4 26 108 107 296
4 172 40 171 371
4 466 203 465 535
4 130 350 32 541
4 388 379 469 177
4 481 404 470 537
4 461 455 203 535
4 334 31 32 129
4 136 30 28 317
4 434 436 201 536
4 506 157 363 354
4 158 417 507 426
4 433 200 431 538
4 280 279 245 534
4 97 25 231 296
4 102 24 292 234
4 166 38 224 371
4 476 190 481 411
4 347 10 64 76
4 466 424 49 461
4 280 85 384 285
4 347 116 338 523
4 309 524 300 113
4 59 13 263 260
4 384 280 285 534
4 345 443 146 350
4 231 60 106 97
4 259 329 251 71
4 173 492 379 216
4 161 39 374 221
4 167 374 41 213
4 492 393 173 379
4 468 205 470 537
4 254 51 17 261
4 363 356 80 271
4 46 404 470 481
4 235 234 509 103
4 231 230 510 106
4 480 389 387 178
4 271 256 248 528
4 0 106 428 230
4 481 205 472 537
4 103 13 365 235
4 410 400 490 539
4 303 67 304 542
4 213 399 493 214
4 264 263 249 525
4 442 440 148 339
4 107 239 26 296
4 112 292 27 242
4 172 216 40 371
4 406 413 402 540
4 477 471 381 180
4 158 23 426 218
4 379 40 174 177
4 231 60 97 517
4 221 54 500 161
4 80 56 363 248
4 283 365 77 263
4 250 273 258 527
4 201 436 448 536
4 338 116 242 523
4 239 300 524 113
4 200 454 199 431
4 472 206 468 205
4 262 248 219 281
4 404 186 470 399
4 329 322 251 71
4 10 116 347 238
4 157 506 224 354
4 507 221 417 158
4 435 35 346 445
4 363 56 14 220
4 433 463 200 538
4 408 187 479 407
4 253 258 273 542
4 274 304 67 542
4 408 489 192 400
4 183 389 380 487
4 459 453 355 154
4 110 109 115 295
4 461 203 466 535
4 204 455 465 203
4 247 267 268 540
4 103 365 353 509
4 416 510 428 106
4 245 87 285 398
4 133 321 325 332
4 436 29 448 308
4 4 117 311 259
4 474 475 188 407
4 379 40 173 216
4 357 365 77 283
4 470 205 481 537
4 236 63 3 309
4 3 2 1 60
4 457 423 461 194
4 518 234 24 233
4 41 213 502 214
4 519 232 25 231
4 501 40 215 216
4 58 0 272 249
4 187 475 479 407
4 321 326 328 541
4 484 191 400 490
4 380 488 182 483
4 436 434 114 536
4 437 448 444 536
4 239 62 517 107
4 213 52 167 500
4 466 198 424 417
4 361 467 354 156
4 515 0 3 272
4 184 490 486 539
4 466 465 159 535
4 286 245 398 86
4 472 476 481 537
4 24 234 353 233
4 416 25 232 231
4 346 150 435 338
4 300 436 308 123
4 425 432 416 193
4 433 151 362 353
4 470 186 175 399
4 105 100 295 99
4 169 170 174 375
4 347 76 250 273
4 66 3 63 309
4 499 20 50 212
4 14 157 363 220
4 218 55 262 426
4 17 51 393 217
4 445 435 35 202
4 265 258 66 309
4 441 446 307 122
4 37 204 462 467
4 48 199 464 432
4 433 431 104 538
4 432 464 48 425
4 518 27 242 241
4 519 26 240 239
4 501 223 38 224
4 502 221 39 222
4 0 3 1 60
4 251 333 9 72
4 164 38 372 160
4 25 99 105 297
4 175 468 470 537
4 42 482 469 388
4 317 33 449 332
4 100 24 104 293
4 39 163 376 159
4 217 216 492 173
4 230 515 0 513
4 10 514 238 516
4 100 105 295 104
4 259 70 4 331
4 498 56 14 261
4 498 17 51 261
4 20 499 497 212
4 279 286 405 92
4 484 490 400 539
4 511 63 237 272
4 81 393 51 254
4 173 17 393 217
4 324 326 327 541
4 416 432 105 193
4 433 104 151 353
4 113 3 309 236
4 130 324 327 541
4 433 362 36 463
4 265 63 3 272
4 329 70 259 331
4 288 73 349 275
4 428 58 0 230
4 274 258 253 542
4 175 186 41 399
4 80 56 14 363
4 482 181 386 388
4 59 13 235 365
4 258 265 250 527
4 81 82 383 269
4 481 470 46 205
4 196 197 458 421
4 27 110 115 293
4 170 40 174 372
4 338 242 27 241
4 240 26 300 239
4 488 185 486 534
4 207 473 208 485
4 459 454 463 538
4 304 313 303 542
4 297 26 109 114
4 41 169 175 376
4 224 223 38 354
4 221 417 39 222
4 362 353 358 538
4 66 63 265 309
4 56 14 220 498
4 340 350 130 541
4 448 201 29 436
4 285 280 245 534
4 447 438 132 541
4 486 490 484 539
4 303 258 67 542
4 50 20 287 414
4 461 457 455 535
4 49 466 461 203
4 155 459 358 154
4 463 36 433 200
4 482 206 42 469
4 59 13 260 516
4 399 493 414 176
4 64 347 76 250
4 399 213 41 214
4 14 56 80 248
4 96 419 256 95
4 353 234 103 509
4 510 416 231 106
4 129 130 145 335
4 393 51 17 81
4 72 251 333 322
4 76 10 64 250
4 153 152 460 360
4 104 24 151 353
4 105 25 416 193
4 4 315 331 320
4 73 344 349 275
4 496 220 14 498
4 58 0 249 428
4 89 90 268 406
4 9 337 333 316
4 20 50 212 414
4 59 13 365 263
4 442 149 445 343
4 416 232 25 105
4 353 104 24 233
4 178 387 478 179
4 272 229 58 249
4 20 266 281 499
4 462 152 37 361
4 443 146 147 345
4 330 132 328 324
4 376 41 502 214
4 501 215 40 372
4 466 159 198 417
4 354 467 160 156
4 519 25 232 297
4 24 293 518 233
4 274 67 258 542
4 181 386 477 482
4 435 150 115 338
4 114 436 300 123
4 476 189 190 411
4 518 293 27 241
4 519 240 26 297
4 481 46 404 190
4 515 3 63 272
4 38 223 501 372
4 502 39 376 222
4 51 17 81 254
4 266 50 20 287
4 496 17 217 498
4 235 514 13 516
4 410 405 400 539
4 17 51 217 498
4 13 59 235 516
4 400 405 412 539
4 219 248 56 261
4 399 41 175 214
4 84 382 83 267
4 78 79 359 252
4 265 3 63 66
4 260 64 10 250
4 480 487 43 208
4 404 186 46 470
4 324 132 328 541
4 261 495 219 494
4 194 457 423 195
4 475 187 188 407
4 367 360 364 543
4 159 39 198 417
4 160 38 354 156
4 258 66 303 67
4 69 68 257 306
4 218 262 23 426
4 305 444 120 119
4 420 284 94 93
4 150 27 115 338
4 114 300 26 123
4 384 84 85 280
4 402 90 247 91
4 487 43 389 480
4 68 274 304 67
4 521 104 295 105
4 88 287 20 414
4 219 261 494 281
4 49 198 424 466
4 37 467 361 156
4 76 341 75 273
4 91 279 405 92
4 511 512 229 272
4 52 176 167 377
4 211 51 210 254
4 479 207 47 489
4 74 75 342 253
4 47 479 489 408
4 128 336 131 327
4 261 211 495 494
4 323 117 135 318
4 226 248 56 219
4 338 27 115 241
4 26 240 300 114
4 265 237 63 272
4 356 79 80 271
4 354 223 38 160
4 417 159 39 222
4 261 254 211 266
4 10 11 298 65
4 16 53 17 378
4 122 307 441 121
4 61 13 12 289
4 229 59 260 512
4 20 52 21 377
4 260 238 64 516
4 448 29 119 308
4 494 266 50 499
4 250 237 64 244
4 35 346 445 149
4 301 439 121 120
4 147 148 440 339
4 461 424 49 194
4 324 328 326 541
4 139 136 319 325
4 260 263 59 229
4 515 63 3 236
4 245 87 398 86
4 128 144 336 327
4 73 349 9 288
4 23 22 276 369
4 183 380 182 483
4 192 484 191 400
4 3 515 236 513
4 318 135 323 138
4 145 130 324 335
4 259 70 329 71
4 0 249 428 93
4 266 211 50 287
4 410 191 45 490
4 390 488 44 182
4 344 73 74 275
4 69 259 4 311
4 365 13 77 263
4 493 399 213 176
4 447 32 146 350
4 125 141 132 133
4 308 436 29 123
4 346 150 35 435
4 180 386 477 181
4 89 246 88 403
4 422 94 270 95
4 28 312 446 122
4 261 266 494 281
4 331 6 4 320
4 7 9 337 333
4 60 106 97 290
4 385 82 83 255
4 14 57 15 368
4 442 148 149 343
4 357 77 78 283
4 276 54 23 369
4 328 132 141 133
4 118 136 28 332
4 229 263 59 228
4 495 219 56 261
4 254 211 266 287
4 426 262 23 96
4 334 330 32 451
4 262 219 55 281
4 179 381 471 180
4 330 130 145 129
4 243 237 63 265
4 118 319 136 325
4 395 85 18 285
4 130 330 32 129
4 19 397 286 415
4 286 397 19 86
4 286 19 415 92
4 388 469 42 177
4 60 1 0 290
4 285 87 18 396
4 285 18 395 396
4 48 432 425 193
4 36 151 362 433
4 480 43 389 178
4 107 239 296 517
4 172 503 216 371
4 213 167 374 500
4 520 292 112 242
4 221 374 161 500
4 315 331 320 137
4 102 292 520 234
4 231 97 296 517
4 224 503 166 371
4 333 337 143 316
4 211 261 266 494
4 18 44 395 396
4 397 19 45 415
4 272 58 515 230
4 474 188 189 401
4 464 197 48 425
4 317 449 28 332
4 482 42 181 388
4 453 153 355 154
4 136 118 325 332
4 211 51 254 261
4 321 328 141 133
4 463 362 36 155
4 126 142 133 332
4 322 72 251 71
4 132 452 140 328
4 260 10 238 516
4 325 139 136 332
4 60 62 2 294
4 51 211 495 261
4 17 53 16 278
4 65 10 11 277
4 47 489 192 408
4 12 13 61 277
4 21 52 20 276
4 141 321 133 450
4 43 389 183 487
4 131 333 322 327
4 7 9 333 72
4 376 502 222 214
4 519 232 240 297
4 223 215 501 372
4 241 518 293 233
4 169 163 375 504
4 335 130 324 144
4 141 452 132 328
4 223 38 160 372
4 105 232 25 297
4 159 376 39 222
4 293 24 104 233
4 52 167 500 373
4 500 54 52 373
4 115 27 293 241
4 114 26 240 297
4 41 376 175 214
4 174 40 215 372
4 517 62 60 294
4 370 57 53 503
4 520 291 61 65
4 62 107 294 517
4 60 97 517 294
4 54 161 373 500
4 456 196 418 195
4 70 6 4 331
4 126 133 28 332
4 330 124 140 132
4 130 324 330 145
4 276 373 54 369
4 272 515 0 230
4 331 329 323 117
4 54 161 369 373
4 62 107 299 294
4 14 15 57 278
4 452 140 124 132
4 133 450 142 126
4 479 47 187 408
4 321 133 450 142
4 260 229 512 272
4 22 373 276 369
4 117 323 135 118
4 238 64 10 260
4 64 260 237 250
4 266 50 211 494
4 131 130 128 327
4 125 141 133 450
4 125 141 452 132
4 3 2 62 299
4 124 330 32 132
4 221 213 374 500
4 296 239 231 517
4 234 292 520 242
4 224 216 503 371
4 266 494 281 499
4 500 167 161 373
4 517 97 107 294
4 172 370 503 166
4 520 291 112 102
4 321 133 142 332
4 144 128 130 327
4 138 135 323 118
4 132 140 330 328
4 56 498 495 261
4 449 142 28 332
4 0 58 272 230
4 317 28 139 332
4 117 323 137 318
4 143 131 336 327
4 144 130 324 327
4 451 330 32 140
4 124 451 32 140
4 126 142 28 449
4 139 136 28 317
4 60 2 1 294
4 334 32 330 145
4 145 334 32 129
4 118 138 319 325
4 213 374 39 221
4 242 234 24 518
4 216 501 38 224
4 39 213 221 502
4 231 25 519 239
4 234 24 292 242
4 224 38 216 371
4 239 231 25 296
4 137 320 315 134
4 127 143 337 316
4 299 2 62 294
4 511 515 63 272
4 296 97 107 517
4 112 292 520 102
4 166 503 172 371
4 167 161 374 500
4 494 55 219 281
4 512 64 260 237
4 158 54 161 369
4 514 10 65 277
4 113 62 107 299
4 497 20 52 276
4 323 138 118 325
4 511 229 58 272
4 143 131 333 316
4 315 331 137 117
4 334 32 31 451
4 449 28 30 317
4 39 41 374 213
4 24 27 242 518
4 213 39 41 502
4 25 26 519 239
4 501 38 40 216
4 24 27 292 242
4 239 25 26 296
4 216 38 40 371
4 497 54 23 276
4 278 17 53 496
4 449 30 33 317
4 278 15 57 370
4 11 291 65 277
4 514 61 13 277
4 373 52 21 276
4 27 24 293 518
4 376 41 39 502
4 519 26 25 297
4 501 40 38 372
4 278 53 16 370
4 12 61 291 277
4 334 31 34 451
4 222 175 376 214
4 105 240 232 297
4 215 223 174 372
4 241 293 104 233
4 495 498 51 261
4 315 4 5 320
4 337 9 8 316
4 373 54 52 276
4 57 53 278 370
4 65 291 61 277
4 59 260 512 516
4 278 57 14 496
4 521 240 232 105
4 104 521 241 233
4 223 215 174 504
4 214 222 175 504
4 175 163 169 504
4 143 127 131 316
4 134 315 137 117
4 160 174 164 504
4 278 16 15 370
4 291 11 12 277
4 21 22 373 276
4 145 32 330 129
4 105 109 521 114
4 163 175 159 504
4 240 105 114 297
4 376 159 175 222
4 104 115 293 241
4 160 174 223 372
4 139 28 136 332
4 124 32 330 140
4 137 331 323 117
4 28 142 126 332
4 174 164 170 372
4 105 99 109 297
4 293 115 100 110
4 131 143 333 327
4 376 175 163 169
4 521 240 105 114
4 521 115 104 241
4 159 175 222 504
4 160 223 174 504
4 55 281 499 218
4 164 174 160 372
4 175 159 376 163
4 114 105 109 297
4 293 115 104 100
4 7 9 8 337
4 4 6 5 320
4 135 138 319 118
4 512 260 64 516
4 130 335 128 144
4 511 58 515 272
4 281 494 55 499
4 137 134 117 318
4 127 131 336 143
4 0 60 230 513
4 514 65 10 238
4 497 52 20 212
4 53 57 278 496
4 514 65 61 277
4 497 52 54 276
4 220 14 57 496
4 41 39 374 162
4 162 374 41 168
4 217 53 17 496
4 23 54 497 218
4 27 24 292 111
4 171 40 38 371
4 24 292 111 101
4 171 38 165 371
4 514 13 61 235
4 111 24 293 27
4 39 41 376 162
4 171 38 40 372
4 24 111 293 101
4 171 165 38 372
4 41 376 162 168
4 62 3 236 513
4 370 166 57 503
4 224 57 166 503
4 291 112 65 520
4 242 65 112 520
4 176 20 52 212
4 176 52 20 377
4 234 102 61 520
4 291 61 102 520
4 216 172 53 503
4 370 53 172 503
4 255 383 526 385
4 255 526 383 269
4 116 10 65 238
4 116 65 10 298
4 106 0 60 230
4 106 60 0 290
4 13 103 61 235
4 13 61 103 289
4 157 14 57 220
4 157 57 14 368
4 356 252 79 271
4 79 252 356 359
4 533 323 329 117
4 533 329 323 326
4 542 310 306 304
4 542 306 310 532
4 529 271 256 252
4 529 256 271 528
4 17 173 53 217
4 17 53 173 378
4 401 476 189 474
4 401 189 476 411
4 115 522 338 241
4 115 338 522 527
4 523 338 522 241
4 523 522 338 527
4 469 472 206 468
4 206 472 469 482
4 118 533 323 326
4 505 506 354 223
4 354 506 505 528
4 354 160 505 223
4 505 160 354 528
4 535 505 507 528
4 524 522 300 240
4 492 491 379 215
4 492 379 491 526
4 174 379 491 215
4 174 491 379 526
4 526 491 175 537
4 175 399 526 537
4 105 508 416 232
4 105 416 508 525
4 510 416 508 232
4 510 508 416 525
4 23 158 54 218
4 23 54 158 369
4 325 133 541 321
4 541 133 325 118
4 541 326 325 321
4 325 326 541 118
4 528 219 262 248
4 528 262 219 225
4 117 118 533 323
4 533 118 117 302
4 252 357 78 283
4 252 78 357 359
4 3 113 62 236
4 3 62 113 299
4 540 405 412 402
4 540 412 405 539
4 539 408 412 400
4 539 412 408 530
4 157 166 57 368
4 157 57 166 224
4 455 543 457 460
4 457 543 455 535
4 184 415 286 397
4 184 286 415 539
4 116 112 65 298
4 116 65 112 242
4 538 357 366 525
4 538 366 357 358
4 457 418 195 456
4 457 195 418 423
4 259 117 533 329
4 533 117 259 311
4 102 103 61 289
4 102 61 103 234
4 215 216 379 492
4 379 216 215 40
4 275 342 532 253
4 275 532 342 344
4 172 173 53 378
4 172 53 173 216
4 253 341 75 342
4 253 75 341 273
4 90 540 268 406
4 268 540 90 247
4 251 349 9 131
4 251 9 349 288
4 287 403 88 246
4 88 403 287 414
4 497 281 218 499
4 497 218 281 23
4 109 115 521 114
4 109 521 115 295
4 160 504 163 159
4 45 415 184 397
4 44 185 390 396
4 390 185 44 488
4 130 541 132 324
4 132 541 130 32
4 132 330 130 324
4 130 330 132 32
4 504 222 160 223
4 504 160 222 159
4 505 160 222 223
4 240 522 115 241
4 115 521 240 241
4 240 521 115 114
4 508 105 233 232
4 521 105 233 104
4 521 233 105 232
4 218 262 281 23
4 218 281 262 55
4 118 332 133 325
4 133 332 118 28
4 212 493 414 50
4 212 414 493 176
4 506 220 363 157
4 506 363 220 56
4 507 218 426 55
4 507 426 218 158
4 523 238 347 116
4 523 347 238 64
4 524 236 309 63
4 524 309 236 113
4 509 235 365 59
4 509 365 235 103
4 230 510 428 58
4 428 510 230 106
4 504 164 163 375
4 504 163 164 160
4 295 100 115 110
4 105 295 109 99
4 105 109 295 521
4 375 174 164 170
4 375 164 174 504
4 104 295 115 521
4 115 295 104 100
4 504 169 174 375
4 504 174 169 175
4 272 512 237 511
4 272 237 512 260
4 492 217 393 51
4 492 393 217 173
4 52 167 21 377
4 52 21 167 373
4 97 60 1 294
4 97 1 60 290
4 296 25 108 98
4 296 108 25 26
4 297 108 25 98
4 297 25 108 26
4 233 538 105 508
4 105 538 233 104
4 166 57 15 370
4 166 15 57 368
4 112 65 11 291
4 112 11 65 298
4 61 102 12 291
4 61 12 102 289
4 53 172 16 370
4 53 16 172 378
4 522 300 527 524
4 522 527 300 536
4 240 115 536 114
4 536 115 240 522
4 536 300 240 114
4 240 300 536 522
4 160 222 535 505
4 160 535 222 159
4 417 222 535 159
4 507 535 222 505
4 222 535 507 417
4 493 491 399 526
4 493 399 491 214
4 175 399 491 526
4 175 491 399 214
4 184 410 45 490
4 45 410 184 415
4 504 175 215 174
4 504 215 175 214
4 491 215 175 174
4 491 175 215 214

CELL_TYPES 2952
1
1
1
1
1
1
1
1
1
1
1
1
1
1
1
1
1
1
1
1
1
1
1
1
1
1
1
1
1
1
1
1
1
1
1
1
1
1
1
1
1
1
1
1
1
1
1
1
1
1
1
1
1
1
1
1
1
1
1
1
1
1
1
1
1
1
3
3
3
3
3
3
3
3
3
3
3
3
3
3
3
3
3
3
3
3
3
3
3
3
3
3
3
3
3
3
3
3
3
3
3
3
3
3
3
3
3
3
3
3
3
3
3
3
3
3
3
3
3
3
3
3
3
3
3
3
3
3
3
3
3
3
3
3
3
3
3
3
3
3
3
3
3
3
3
3
3
3
3
3
3
3
3
3
3
3
3
3
3
3
3
3
3
3
3
3
3
3
3
3
3
3
3
3
3
3
3
3
3
3
3
3
3
3
3
3
3
3
3
3
3
3
3
3
3
3
3
3
3
3
3
3
3
3
3
3
3
3
3
3
3
3
3
3
3
3
3
3
3
3
3
3
3
3
3
3
3
3
3
3
3
3
3
3
3
3
3
3
3
3
3
3
3
3
3
3
3
3
3
3
3
3
3
3
3
3
3
3
3
3
3
3
3
3
3
3
3
3
3
3
3
3
3
3
3
3
3
3
3
3
3
3
3
3
3
3
3
3
3
3
3
3
3
3
3
3
3
3
3
3
3
3
3
3
3
3
3
3
3
3
3
3
3
3
3
3
3
3
3
3
3
3
3
3
3
3
3
3
3
3
3
3
3
3
3
3
3
3
3
3
3
3
3
3
5
5
5
5
5
5
5
5
5
5
5
5
5
5
5
5
5
5
5
5
5
5
5
5
5
5
5
5
5
5
5
5
5
5
5
5
5
5
5
5
5
5
5
5
5
5
5
5
5
5
5
5
5
5
5
5
5
5
5
5
5
5
5
5
5
5
5
5
5
5
5
5
5
5
5
5
5
5
5
5
5
5
5
5
5
5
5
5
5
5
5
5
5
5
5
5
5
5
5
5
5
5
5
5
5
5
5
5
5
5
5
5
5
5
5
5
5
5
5
5
5
5
5
5
5
5
5
5
5
5
5
5
5
5
5
5
5
5
5
5
5
5
5
5
5
5
5
5
5
5
5
5
5
5
5
5
5
5
5
5
5
5
5
5
5
5
5
5
5
5
5
5
5
5
5
5
5
5
5
5
5
5
5
5
5
5
5
5
5
5
5
5
5
5
5
5
5
5
5
5
5
5
5
5
5
5
5
5
5
5
5
5
5
5
5
5
5
5
5
5
5
5
5
5
5
5
5
5
5
5
5
5
5
5
5
5
5
5
5
5
5
5
5
5
5
5
5
5
5
5
5
5
5
5
5
5
5
5
5
5
5
5
5
5
5
5
5
5
5
5
5
5
5
5
5
5
5
5
5
5
5
5
5
5
5
5
5
5
5
5
5
5
5
5
5
5
5
5
5
5
5
5
5
5
5
5
5
5
5
5
5
5
5
5
5
5
5
5
5
5
5
5
5
5
5
5
5
5
5
5
5
5
5
5
5
5
5
5
5
5
5
5
5
5
5
5
5
5
5
5
5
5
5
5
5
5
5
5
5
5
5
5
5
5
5
5
5
5
5
5
5
5
5
5
5
5
5
5
5
5
5
5
5
5
5
5
5
5
5
5
5
5
5
5
5
5
5
5
5
5
5
5
5
5
5
5
5
5
5
5
5
5
5
5
5
5
5
5
5
5
5
5
5
5
5
5
5
5
5
5
5
5
5
5
5
5
5
5
5
5
5
5
5
5
5
5
5
5
5
5
5
5
5
5
5
5
5
5
5
5
5
5
5
5
5
5
5
5
5
5
5
5
5
5
5
5
5
5
5
5
5
5
5
5
5
5
5
5
5
5
5
5
5
5
5
5
5
5
5
5
5
5
5
5
5
5
5
5
5
5
5
5
5
5
5
5
5
5
5
5
5
5
5
5
5
5
5
5
5
5
5
5
5
5
5
5
5
5
5
5
5
5
5
5
5
5
5
5
5
5
5
5
5
5
5
5
5
5
5
5
5
5
5
5
5
5
5
5
5
5
5
5
5
5
5
5
5
5
5
5
5
5
5
5
5
5
5
5
5
5
5
5
5
5
5
5
5
5
5
5
5
5
5
5
5
5
5
5
5
5
5
5
5
5
5
5
5
5
5
5
5
5
5
5
5
5
5
5
5
5
5
5
5
5
5
5
5
5
5
5
5
5
5
5
5
5
5
5
5
5
5
5
5
5
5
5
5
5
5
5
5
5
5
5
5
5
5
5
5
5
5
5
5
5
5
5
5
5
5
5
5
5
5
5
5
5
5
5
5
5
5
5
5
5
5
5
5
5
5
5
5
5
5
5
5
5
5
5
5
5
5
5
5
5
5
5
5
5
5
5
5
5
5
5
5
5
5
5
5
5
5
5
5
5
5
5
5
5
5
5
5
5
5
5
5
5
5
5
5
5
5
5
5
5
5
5
5
5
5
5
5
5
5
5
5
5
5
5
5
5
5
5
5
5
5
5
5
5
5
5
5
5
5
5
5
5
5
5
5
5
5
5
5
5
5
5
5
5
5
5
5
5
5
5
5
5
5
5
5
5
5
5
5
5
5
5
5
5
5
5
5
5
5
5
5
5
5
5
5
5
5
5
5
5
5
5
5
5
5
5
5
5
5
5
5
5
5
5
5
5
5
5
5
5
5
5
5
5
5
5
5
5
5
5
5
5
5
5
5
5
5
5
5
5
5
5
5
5
5
5
5
5
5
5
5
5
5
5
5
5
5
5
5
5
5
5
5
5
5
5
5
5
5
5
5
5
5
5
5
5
5
5
5
5
5
5
5
5
5
5
5
5
5
5
5
5
5
5
5
5
5
5
5
5
5
5
5
5
5
5
5
5
5
5
5
5
5
5
5
5
5
5
5
5
5
5
5
5
5
5
5
5
5
5
5
5
5
5
5
5
5
5
5
5
5
5
5
5
5
5
5
5
5
5
5
5
5
5
5
5
5
5
5
5
5
5
5
5
5
5
5
5
5
5
5
5
5
5
5
5
5
5
5
5
5
5
5
5
5
5
5
5
5
5
5
5
5
5
5
5
5
5
5
5
5
5
5
5
10
10
10
10
10
10
10
10
10
10
10
10
10
10
10
10
10
10
10
10
10
10
10
10
10
10
10
10
10
10
10
10
10
10
10
10
10
10
10
10
10
10
10
10
10
10
10
10
10
10
10
10
10
10
10
10
10
10
10
10
10
10
10
10
10
10
10
10
10
10
10
10
10
10
10
10
10
10
10
10
10
10
10
10
10
10
10
10
10
10
10
10
10
10
10
10
10
10
10
10
10
10
10
10
10
10
10
10
10
10
10
10
10
10
10
10
10
10
10
10
10
10
10
10
10
10
10
10
10
10
10
10
10
10
10
10
10
10
10
10
10
10
10
10
10
10
10
10
10
10
10
10
10
10
10
10
10
10
10
10
10
10
10
10
10
10
10
10
10
10
10
10
10
10
10
10
10
10
10
10
10
10
10
10
10
10
10
10
10
10
10
10
10
10
10
10
10
10
10
10
10
10
10
10
10
10
10
10
10
10
10
10
10
10
10
10
10
10
10
10
10
10
10
10
10
10
10
10
10
10
10
10
10
10
10
10
10
10
10
10
10
10
10
10
10
10
10
10
10
10
10
10
10
10
10
10
10
10
10
10
10
10
10
10
10
10
10
10
10
10
10
10
10
10
10
10
10
10
10
10
10
10
10
10
10
10
10
10
10
10
10
10
10
10
10
10
10
10
10
10
10
10
10
10
10
10
10
10
10
10
10
10
10
10
10
10
10
10
10
10
10
10
10
10
10
10
10
10
10
10
10
10
10
10
10
10
10
10
10
10
10
10
10
10
10
10
10
10
10
10
10
10
10
10
10
10
10
10
10
10
10
10
10
10
10
10
10
10
10
10
10
10
10
10
10
10
10
10
10
10
10
10
10
10
10
10
10
10
10
10
10
10
10
10
10
10
10
10
10
10
10
10
10
10
10
10
10
10
10
10
10
10
10
10
10
10
10
10
10
10
10
10
10
10
10
10
10
10
10
10
10
10
10
10
10
10
10
10
10
10
10
10
10
10
10
10
10
10
10
10
10
10
10
10
10
10
10
10
10
10
10
10
10
10
10
10
10
10
10
10
10
10
10
10
10
10
10
10
10
10
10
10
10
10
10
10
10
10
10
10
10
10
10
10
10
10
10
10
10
10
10
10
10
10
10
10
10
10
10
10
10
10
10
10
10
10
10
10
10
10
10
10
10
10
10
10
10
10
10
10
10
10
10
10
10
10
10
10
10
10
10
10
10
10
10
10
10
10
10
10
10
10
10
10
10
10
10
10
10
10
10
10
10
10
10
10
10
10
10
10
10
10
10
10
10
10
10
10
10
10
10
10
10
10
10
10
10
10
10
10
10
10
10
10
10
10
10
10
10
10
10
10
10
10
10
10
10
10
10
10
10
10
10
10
10
10
10
10
10
10
10
10
10
10
10
10
10
10
10
10
10
10
10
10
10
10
10
10
10
10
10
10
10
10
10
10
10
10
10
10
10
10
10
10
10
10
10
10
10
10
10
10
10
10
10
10
10
10
10
10
10
10
10
10
10
10
10
10
10
10
10
10
10
10
10
10
10
10
10
10
10
10
10
10
10
10
10
10
10
10
10
10
10
10
10
10
10
10
10
10
10
10
10
10
10
10
10
10
10
10
10
10
10
10
10
10
10
10
10
10
10
10
10
10
10
10
10
10
10
10
10
10
10
10
10
10
10
10
10
10
10
10
10
10
10
10
10
10
10
10
10
10
10
10
10
10
10
10
10
10
10
10
10
10
10
10
10
10
10
10
10
10
10
10
10
10
10
10
10
10
10
10
10
10
10
10
10
10
10
10
10
10
10
10
10
10
10
10
10
10
10
10
10
10
10
10
10
10
10
10
10
10
10
10
10
10
10
10
10
10
10
10
10
10
10
10
10
10
10
10
10
10
10
10
10
10
10
10
10
10
10
10
10
10
10
10
10
10
10
10
10
10
10
10
10
10
10
10
10
10
10
10
10
10
10
10
10
10
10
10
10
10
10
10
10
10
10
10
10
10
10
10
10
10
10
10
10
10
10
10
10
10
10
10
10
10
10
10
10
10
10
10
10
10
10
10
10
10
10
10
10
10
10
10
10
10
10
10
10
10
10
10
10
10
10
10
10
10
10
10
10
10
10
10
10
10
10
10
10
10
10
10
10
10
10
10
10
10
10
10
10
10
10
10
10
10
10
10
10
10
10
10
10
10
10
10
10
10
10
10
10
10
10
10
10
10
10
10
10
10
10
10
10
10
10
10
10
10
10
10
10
10
10
10
10
10
10
10
10
10
10
10
10
10
10
10
10
10
10
10
10
10
10
10
10
10
10
10
10
10
10
10
10
10
10
10
10
10
10
10
10
10
10
10
10
10
10
10
10
10
10
10
10
10
10
10
10
10
10
10
10
10
10
10
10
10
10
10
10
10
10
10
10
10
10
10
10
10
10
10
10
10
10
10
10
10
10
10
10
10
10
10
10
10
10
10
10
10
10
10
10
10
10
10
10
10
10
10
10
10
10
10
10
10
10
10
10
10
10
10
10
10
10
10
10
10
10
10
10
10
10
10
10
10
10
10
10
10
10
10
10
10
10
10
10
10
10
10
10
10
10
10
10
10
10
10
10
10
10
10
10
10
10
10
10
10
10
10
10
10
10
10
10
10
10
10
10
10
10
10
10
10
10
10
10
10
10
10
10
10
10
10
10
10
10
10
10
10
10
10
10
10
10
10
10
10
10
10
10
10
10
10
10
10
10
10
10
10
10
10
10
10
10
10
10
10
10
10
10
10
10
10
10
10
10
10
10
10
10
10
10
10
10
10
10
10
10
10
10
10
10
10
10
10
10
10
10
10
10
10
10
10
10
10
10
10
10
10
10
10
10
10
10
10
10
10
10
10
10
10
10
10
10
10
10
10
10
10
10
10
10
10
10
10
10
10
10
10
10
10
10
10
10
10
10
10
10
10
10
10
10
10
10
10
10
10
10
10
10
10
10
10
10
10
10
10
10
10
10
10
10
10
10
10
10
10
10
10
10
10
10
10
10
10
10
10
10
10
10
10
10
10
10
10
10
10
10
10
10
10
10
10
10
10
10
10
10
10
10
10
10
10
10
10
10
10
10
10
10
10
10
10
10
10
10
10
10
10
10
10
10
10
10
10
10
10
10
10
10
10
10
10
10
10
10
10
10
10
10
10
10
10
10
10
10
10
10
10
10
10
10
10
10
10
10
10
10
10
10
10
10
10
10
10
10
10
10
10
10
10
10
10
10
10
10
10
10
10
10
10
10
10
10
10
10
10
10
10
10
10
10
10
10
10
10
10
10
10
10
10
10
10
10
10
10
10
10
10
10
10
10
10
10
10
10
10
10
10
10
10
10
10
10
10
10
10
10
10
10
10
10
10
10
10
10
10
10
10
10
10
10
10
10
10
10
10
10
10
10
10
10
10
10
10
10
10
10
10
10
10
10
10
10
10
10
10
10
10
10
10
10
10
10
10
10
10
10
10
10
10
10
10
10
10
10
10
10
10
10
10
10
10
10
10
10
10
10
10
10
10
