# vtk DataFile Version 2.0
, Created by Gmsh 4.11.1 
ASCII
DATASET UNSTRUCTURED_GRID
POINTS 555 double
8.75 0 -44.40742602607934
17.26367502235105 0 -41.50750983764988
17.26367502235105 0 -38.49249016235012
8.75 0 -35.59257397392065
8.75 0 -3
11.75 0 -3
11.75 0 0
-11.75 0 0
-11.75 0 -3
-8.75 0 -3
-8.75 1.071565949253934e-15 -35.59257397392065
-17.26367502235105 2.114190435764233e-15 -38.49249016235012
-17.26367502235105 2.114190435764233e-15 -41.50750983764988
-8.75 1.071565949253934e-15 -44.40742602607934
-8.75 1.071565949253934e-15 -75.59257397392065
-17.26367502235105 2.114190435764233e-15 -78.49249016235012
-17.26367502235105 2.114190435764233e-15 -81.50750983764988
-8.75 1.071565949253934e-15 -84.40742602607935
-8.75 0 -120
8.75 0 -120
8.75 0 -84.40742602607935
17.26367502235105 0 -81.50750983764988
17.26367502235105 0 -78.49249016235012
8.75 0 -75.59257397392065
-8.75 10.04507246078822 -42.85024177041776
8.75 10.04507246078827 -42.85024177041778
8.75 10.04507246078826 -37.14975822958222
-8.75 10.04507246078827 -37.14975822958221
8.75 20 -3
8.75 20 -30.92221708061134
11.75 23 -3
-11.75 23 -3
-8.75 20 -3
11.75 23 0
-11.75 23 0
-8.75 20 -30.92221708061134
-8.75 20 -49.07778291938866
-8.75 20 -70.92221708061135
-8.75 10.04507246078827 -77.1497582295822
8.75 10.04507246078827 -77.1497582295822
-8.75 10.04507246078826 -82.8502417704178
8.75 10.04507246078826 -82.8502417704178
-8.75 20 -89.07778291938867
-8.75 20 -110.9222170806113
-8.75 5.488868075300976 -120
8.75 5.488868075300976 -120
8.75 20 -89.07778291938867
8.75 20 -110.9222170806113
8.75 20 -49.07778291938866
8.75 20 -70.92221708061135
5.881870083069854 2.70380620564788 -84.40742602607935
-5.881870083069855 2.70380620564788 -84.40742602607935
14.74132320926789 2.70380620564788 -81.50750983764988
-14.74132320926789 2.703806205647885 -81.50750983764988
14.74132320926789 2.70380620564788 -78.49249016235012
5.881870083069854 2.70380620564788 -75.59257397392065
-5.881870083069855 2.70380620564788 -75.59257397392065
-14.74132320926789 2.703806205647885 -78.49249016235012
5.881870083069854 2.70380620564788 -44.40742602607934
-5.881870083069855 2.70380620564788 -44.40742602607934
14.74132320926789 2.70380620564788 -41.50750983764988
-14.74132320926789 2.703806205647885 -41.50750983764988
14.74132320926789 2.70380620564788 -38.49249016235012
5.881870083069854 2.70380620564788 -35.59257397392066
-5.881870083069855 2.70380620564788 -35.59257397392066
-14.74132320926789 2.703806205647885 -38.49249016235012
13.00683751117553 0 -42.95746793186461
13.00683751117552 0 -37.04253206813539
8.75 0 -29.07405917913653
8.75 0 -22.55554438435242
8.75 0 -16.03702958956828
8.75 0 -9.518514794784142
5.875000000000016 0 0
3.730349362740526e-14 0 0
-5.874999999999972 0 0
-8.75 0 -9.518514794784126
-8.75 0 -16.03702958956824
-8.75 0 -22.55554438435238
-8.75 0 -29.07405917913653
-13.00683751117552 1.592878192509083e-15 -37.04253206813539
-13.00683751117553 1.592878192509084e-15 -42.95746793186461
-8.75 0 -50.6444556156476
-8.75 0 -56.88148520521586
-8.75 0 -63.11851479478413
-8.75 0 -69.35554438435241
-13.00683751117552 1.592878192509083e-15 -77.04253206813539
-13.00683751117553 1.592878192509084e-15 -82.95746793186461
-8.75 0 -90.33952168839946
-8.75 0 -96.27161735071957
-8.75 0 -102.2037130130397
-8.75 0 -108.1358086753598
-8.75 0 -114.0679043376799
2.916666666666666 0 -120
-2.916666666666668 0 -120
8.75 0 -90.33952168839946
8.75 0 -96.27161735071957
8.75 0 -102.2037130130397
8.75 0 -108.1358086753598
8.75 0 -114.0679043376799
13.00683751117553 0 -82.95746793186461
13.00683751117552 0 -77.04253206813539
8.75 0 -50.6444556156476
8.75 0 -56.88148520521586
8.75 0 -63.11851479478413
8.75 0 -69.35554438435241
15.94955600907647 6.606522412788771 -41.50750983764988
12.20726167650525 12.20726167650525 -41.50750983764988
6.606522412788755 15.94955600907647 -41.50750983764988
-1.427612838168616e-14 17.26367502235105 -41.50750983764988
-6.606522412788775 15.94955600907647 -41.50750983764988
-12.20726167650525 12.20726167650525 -41.50750983764988
-15.94955600907647 6.60652241278877 -41.50750983764988
-8.750000000000002 5.068876439643172 -43.94344512615621
-2.956579329828674 11.06331055149137 -43.4872247704774
2.956579329828659 11.06331055149138 -43.4872247704774
8.749999999999998 5.068876439643189 -43.9434451261562
15.94955600907647 6.606522412788771 -38.49249016235012
12.20726167650525 12.20726167650525 -38.49249016235012
6.606522412788755 15.94955600907647 -38.49249016235012
-1.427612838168616e-14 17.26367502235105 -38.49249016235012
-6.606522412788775 15.94955600907647 -38.49249016235012
-12.20726167650525 12.20726167650525 -38.49249016235012
-15.94955600907647 6.60652241278877 -38.49249016235012
8.749999999999998 5.068876439643192 -36.05655487384379
2.956579329828667 11.0633105514914 -36.51277522952259
-2.956579329828668 11.0633105514914 -36.51277522952259
-8.750000000000002 5.0688764396432 -36.05655487384379
8.75 6.666666666666651 -3
8.75 13.33333333333329 -3
8.75 20 -23.94166281045852
8.75 20 -16.96110854030568
8.75 20 -9.980554270152847
8.75 15.02253623039411 -34.03598765509679
-5.875000000000016 23 -3
-3.730349362740526e-14 23 -3
5.874999999999972 23 -3
-11.75 5.749999999999988 -3
-11.75 11.49999999999999 -3
-11.75 17.24999999999999 -3
-8.75 13.33333333333335 -3
-8.75 6.666666666666705 -3
-2.916666666666666 20 -3
2.916666666666668 20 -3
11.75 5.749999999999988 -3
11.75 11.49999999999999 -3
11.75 17.24999999999999 -3
11.75 5.749999999999988 0
11.75 11.49999999999999 0
11.75 17.24999999999999 0
-5.875000000000016 23 0
-3.730349362740526e-14 23 0
5.874999999999972 23 0
-11.75 5.749999999999988 0
-11.75 11.49999999999999 0
-11.75 17.24999999999999 0
-8.75 20 -9.980554270152822
-8.75 20 -16.96110854030566
-8.75 20 -23.94166281045849
-8.75 15.02253623039412 -34.03598765509678
-8.75 15.02253623039412 -45.96401234490322
-8.75 20 -65.46110854030567
-8.75 20 -60.00000000000001
-8.75 20 -54.53889145969434
-8.75 15.02253623039412 -74.03598765509679
-8.750000000000002 5.068876439643199 -76.05655487384379
8.749999999999998 5.068876439643196 -76.05655487384379
2.956579329828658 11.06331055149138 -76.51277522952257
-2.956579329828665 11.06331055149138 -76.51277522952257
15.94955600907647 6.606522412788771 -78.49249016235012
12.20726167650525 12.20726167650525 -78.49249016235012
6.606522412788755 15.94955600907647 -78.49249016235012
-1.427612838168616e-14 17.26367502235105 -78.49249016235012
-6.606522412788775 15.94955600907647 -78.49249016235012
-12.20726167650525 12.20726167650525 -78.49249016235012
-15.94955600907647 6.60652241278877 -78.49249016235012
15.94955600907647 6.606522412788771 -81.50750983764988
12.20726167650525 12.20726167650525 -81.50750983764988
6.606522412788755 15.94955600907647 -81.50750983764988
-1.427612838168616e-14 17.26367502235105 -81.50750983764988
-6.606522412788775 15.94955600907647 -81.50750983764988
-12.20726167650525 12.20726167650525 -81.50750983764988
-15.94955600907647 6.60652241278877 -81.50750983764988
-8.750000000000002 5.06887643964319 -83.94344512615621
-2.956579329828661 11.06331055149136 -83.48722477047741
2.95657932982866 11.06331055149136 -83.48722477047741
8.749999999999998 5.068876439643187 -83.94344512615621
-8.75 15.02253623039415 -85.96401234490324
-8.75 20 -105.4611085403057
-8.75 20 -100
-8.75 20 -94.53889145969434
-8.75 10.32591205020065 -116.9740723602038
-8.75 15.16295602510034 -113.9481447204076
2.916666666666666 5.488868075300976 -120
-2.916666666666668 5.488868075300976 -120
8.75 15.02253623039415 -85.96401234490324
8.75 20 -105.4611085403057
8.75 20 -100
8.75 20 -94.53889145969434
8.75 10.32591205020065 -116.9740723602038
8.75 15.16295602510034 -113.9481447204076
8.75 15.02253623039415 -45.96401234490323
8.75 20 -65.46110854030567
8.75 20 -60.00000000000001
8.75 20 -54.53889145969434
8.75 15.02253623039412 -74.03598765509679
2.916666666666666 20 -49.07778291938866
-2.916666666666668 20 -49.07778291938866
2.916666666666666 20 -30.92221708061134
-2.916666666666668 20 -30.92221708061134
2.916666666666666 20 -70.92221708061135
-2.916666666666668 20 -70.92221708061135
2.916666666666666 20 -89.07778291938867
-2.916666666666668 20 -89.07778291938867
2.916666666666666 20 -110.9222170806113
-2.916666666666668 20 -110.9222170806113
2.401010706361168 6.011830940716083 -84.40742602607935
-2.40101070636117 6.011830940716082 -84.40742602607935
1.243449787580175e-14 2.70380620564788 -84.40742602607935
10.31863546816784 2.70380620564788 -82.97906322548542
11.98050648493141 9.00470112343084 -81.50750983764988
6.695581252842563 13.40844396805175 -81.50750983764988
4.750738521146498e-14 14.98723383275914 -81.50750983764988
-6.695581252842481 13.40844396805179 -81.50750983764988
-11.98050648493138 9.004701123430879 -81.50750983764988
-10.31863546816784 2.70380620564788 -82.97906322548542
10.31863546816784 2.70380620564788 -77.02093677451458
0 2.70380620564788 -75.59257397392065
-10.31863546816784 2.70380620564788 -77.02093677451458
11.98050648493141 9.00470112343084 -78.49249016235012
6.695581252842563 13.40844396805175 -78.49249016235012
4.750738521146498e-14 14.98723383275914 -78.49249016235012
-6.695581252842481 13.40844396805179 -78.49249016235012
-11.98050648493138 9.004701123430879 -78.49249016235012
2.401010706361168 6.011830940716083 -75.59257397392066
-2.40101070636117 6.011830940716082 -75.59257397392066
2.401010706361168 6.011830940716083 -44.40742602607934
-2.40101070636117 6.011830940716082 -44.40742602607934
1.243449787580175e-14 2.70380620564788 -44.40742602607934
10.31863546816784 2.70380620564788 -42.97906322548541
11.98050648493141 9.00470112343084 -41.50750983764988
6.695581252842563 13.40844396805175 -41.50750983764988
4.750738521146498e-14 14.98723383275914 -41.50750983764988
-6.695581252842481 13.40844396805179 -41.50750983764988
-11.98050648493138 9.004701123430879 -41.50750983764988
-10.31863546816784 2.70380620564788 -42.97906322548542
10.31863546816784 2.70380620564788 -37.02093677451458
0 2.70380620564788 -35.59257397392066
-10.31863546816784 2.70380620564788 -37.02093677451459
11.98050648493141 9.00470112343084 -38.49249016235012
6.695581252842563 13.40844396805175 -38.49249016235012
4.750738521146498e-14 14.98723383275914 -38.49249016235012
-6.695581252842481 13.40844396805179 -38.49249016235012
-11.98050648493138 9.004701123430879 -38.49249016235012
2.401010706361168 6.011830940716083 -35.59257397392065
-2.40101070636117 6.011830940716082 -35.59257397392065
-4.234067420461638 0 -87.37347385723942
4.102027156725324 0 -72.47405917913653
4.10202715672531 0 -47.52594082086348
2.984873266762496 0 -30.95442986496517
1.77635683940025e-15 0 -115.60720980571
-3.612654458751313 0 -99.23766518187963
2.864994617959762 0 -60
3.502763954359386 0 -42.04287973147071
3.912097496529316 0 -79.15852957953228
-2.817172188267775 0 -4.114445958393169
3.104800592772243 0 -19.29628698696035
3.753943230078562 0 -92.99776444784752
2.449263063852281 0 -105.1697608441997
-3.348573931278662 0 -66.23702958956827
-3.348573931278659 0 -53.76297041043173
-3.104800592772251 0 -12.77777219217619
-2.457541662010166 0 -25.67409905607472
3.715298507194741 0 -5.668959496524906
-3.93264146542553 0 -80.91975662601089
2.04426616064172 0 -85.05982752099314
-2.717590478021447 0 -32.74425650671499
-3.463152600839281 0 -39.57681381579866
-2.126677726188047 0 -74.84646542431142
-2.126677726188047 0 -45.15353457568857
10.34639398491865 0 -79.85975492992205
-10.30352424737471 0 -80.15329277100182
9.624108768500058 0 -40
-10.27156983563698 0 -39.92946896929978
3.390893854529602 0 -66.47773964790858
3.390893854529613 0 -53.52226035209142
-3.816868174972972 0 -60
4.226426439504915 0 -25.51088389429784
-3.458284885435416 0 -19.28896177217117
3.525279825467521 0 -11.98628541131778
-2.542372220845961 0 -93.59192708345594
-3.612654458751357 0 -105.1697608441997
3.121255989921045 0 -98.52891004257776
-14.40255444670628 0 -39.99280295605099
-14.37482899647167 0 -80
14.41018956397992 0 -79.98568927856346
14.03302676711064 0 -40
-3.36918347010369 0 -110.9020808781409
3.661257719587817 0 -111.4579753651605
3.430656007226391 0 -36.89807333868922
4.69634560703632 0 -88.49806431190918
-0.7500515469708544 0 -8.292145610227088
-4.661100139359488 0 -71.24633867244717
-4.661100139359488 0 -48.75366132755283
-4.564653471209927 0 -115.8227680412057
4.57985933592693 0 -115.8517088204133
-5.293639838755559 0 -7.174484764337812
0.1835186444613157 0 -89.68578187622641
-0.3302490393307398 0 -70.2000799900831
-0.3302490393307362 0 -49.7999200099169
-13.08093896246982 3.095098384927006 -42.80920251161529
12.89153642120811 3.441076012370749 -42.8430021749297
11.70648095796065 7.822020501318354 -42.59217918847027
-12.29288699980032 7.386885355261444 -42.50282707377089
-16.93195834758682 3.367975919292248 -40.03023428106884
-14.35422117775137 9.591183954942252 -40.03023428106884
16.93864520977964 3.334182618657371 -40
-3.367975919292271 16.93195834758682 -39.96976571893116
9.591183954942254 14.35422117775137 -39.96976571893116
3.367975919292247 16.93195834758682 -39.96976571893116
-9.562521967525392 14.37333116914593 -40
14.35422117775136 9.591183954942261 -40.03023428106884
12.89153648781691 3.441075910936912 -37.15699783808065
-13.08093896246984 3.095098384926924 -37.19079748838471
-12.29288694103897 7.386885431297128 -37.4971729224129
11.70648114238839 7.822020624549037 -37.40782088708213
8.749999999999998 4.581504201479071 -26.62528889172431
8.749999999999998 6.370228134609842 -13.04572952458128
8.749999999999998 14.27980223993418 -20.4668856277777
8.749999999999998 8.806402042441055 -31.45485534180423
8.749999999999998 14.76588083108233 -27.50307709040803
8.749999999999998 13.72388328401298 -13.36929718962828
8.749999999999998 5.273851034772011 -19.90359249287193
8.749999999999998 9.999999999999973 -8.290469244956203
8.749999999999998 3.691356536712664 -31.7606664520859
8.749999999999998 15.31391510694307 -7.700061090353721
8.749999999999998 4.786905466670929 -7.745866110265025
8.749999999999998 10.13997241434047 -17.41131379978312
8.749999999999998 9.882752321546214 -23.98065034624386
10.25 3.10416666666666 -3
-10.25 3.104166666666674 -3
11.75 20.125 -1.5
11.75 14.37499999999999 -1.5
11.75 8.624999999999989 -1.5
11.75 2.874999999999994 -1.5
-2.707174061168084 4.878797530676509 0
3.157610638484558 18.22886740495932 0
7.069955745470663 8.71654637064 0
-6.619519168154191 14.39111856499583 0
7.102873022115113 14.37499999999999 0
0.1126091443291166 11.52691623390895 0
-7.000954855602266 8.644857627020135 0
-2.792058517349997 18.15992185565015 0
2.948495529093417 4.721447277005962 0
-7.528051718759411 18.81262893003678 0
7.528051718759419 4.187371069963204 0
7.820492259183635 19.07601590637069 0
-7.553981076842906 4.160878030182232 0
-11.75 20.125 -1.5
-11.75 8.624999999999988 -1.5
-11.75 14.37499999999999 -1.5
-11.75 2.874999999999994 -1.5
-8.750000000000002 4.581504201479078 -26.62528889172429
-8.750000000000002 6.370228134609851 -13.04572952458126
-8.750000000000002 14.27980223993418 -20.46688562777767
-8.750000000000002 8.806402042441061 -31.45485534180423
-8.750000000000002 14.76588083108233 -27.50307709040802
-8.750000000000002 13.72388328401299 -13.36929718962826
-8.750000000000002 5.273851034772017 -19.9035924928719
-8.750000000000002 10.00000000000003 -8.290469244956222
-8.750000000000002 3.691356536712667 -31.7606664520859
-8.750000000000002 15.31391510694309 -7.70006109035371
-8.750000000000002 4.786905466670923 -7.745866110264997
-8.750000000000002 10.13997241434048 -17.41131379978309
-8.750000000000002 9.882752321546221 -23.98065034624384
-8.750000000000002 15.27054127127114 -57.26944572984716
-8.750000000000002 5.685479838693885 -66.87761678973438
-8.750000000000002 8.876058790278883 -48.5838097656044
-8.750000000000002 8.503270844432532 -72.29567219666831
-8.750000000000002 13.47660915348553 -67.92023876105048
-8.750000000000002 4.494919347430001 -53.41952943542453
-8.750000000000002 5.100819186288892 -60.03537455061415
-8.750000000000002 14.89035595153464 -51.84124924797153
-8.750000000000002 15.71986123727014 -62.75386156519749
-8.750000000000002 10.56540335321581 -62.28838787013589
-8.750000000000002 9.858784263313096 -56.21387341680621
-8.750000000000002 3.687970915470411 -48.19973319378241
-8.750000000000002 3.851525424553924 -72.03559244370391
-13.08093896246984 3.095098384926924 -77.1907974883847
12.89153648781691 3.441075910936929 -77.15699783808064
-12.29288699980039 7.38688535526134 -77.49717292622911
11.70648114238837 7.822020624549025 -77.40782088708212
-16.93195834758682 3.36797591929224 -80.03023428106884
-14.35422117775136 9.59118395494226 -80.03023428106884
16.93864520977964 3.334182618657371 -80
9.591183954942254 14.35422117775137 -79.96976571893116
3.367975919292247 16.93195834758682 -79.96976571893116
-3.367975919292271 16.93195834758682 -80.03023428106884
-9.591183954942268 14.35422117775136 -80.03023428106883
14.35422117775136 9.591183954942265 -80.03023428106883
12.89153642120811 3.441076012370755 -82.84300217492971
-13.08093896246978 3.095098384927118 -82.8092025116153
11.70648095796062 7.82202050131834 -82.59217918847028
-12.29288699980028 7.3868853552615 -82.5028270737709
-8.750000000000002 15.26993095499957 -97.89431637820209
-8.750000000000002 5.137345541248688 -105.1697608441997
-8.750000000000002 8.677331839938029 -88.0895416476299
-8.750000000000002 9.534326648449399 -110.1301544814791
-8.750000000000002 4.410138477769067 -92.93057284609792
-8.750000000000002 15.25860183897632 -107.565982017666
-8.750000000000002 5.438794568467678 -114.5409058083621
-8.750000000000002 5.09598451537193 -99.20577770964648
-8.750000000000002 10.85689976059684 -102.7097375788665
-8.750000000000002 14.84045736813031 -91.8722446811896
-8.750000000000002 16.27708651091454 -102.7262289030081
-8.750000000000002 9.8391223911811 -95.85261112089943
-8.750000000000002 3.631269351470057 -87.94210146687257
-8.750000000000002 4.283593047198226 -110.0745437581916
5.833333333333333 2.744434037650489 -120
-1.77635683940025e-15 2.744434037650488 -120
-5.833333333333334 2.744434037650488 -120
8.749999999999998 15.26993095499957 -97.89431637820209
8.749999999999998 5.137345541248688 -105.1697608441997
8.749999999999998 8.677331839938029 -88.0895416476299
8.749999999999998 9.534326648449399 -110.1301544814791
8.749999999999998 4.410138477769067 -92.93057284609792
8.749999999999998 15.25860183897632 -107.565982017666
8.749999999999998 5.438794568467676 -114.5409058083621
8.749999999999998 5.09598451537193 -99.20577770964648
8.749999999999998 10.85689976059684 -102.7097375788665
8.749999999999998 14.84045736813031 -91.8722446811896
8.749999999999998 16.27708651091454 -102.7262289030081
8.749999999999998 9.8391223911811 -95.85261112089943
8.749999999999998 3.631269351470057 -87.94210146687257
8.749999999999998 4.283593047198226 -110.0745437581916
8.749999999999998 15.27054127127114 -57.26944572984716
8.749999999999998 5.685479838693885 -66.87761678973438
8.749999999999998 8.876058790278904 -48.5838097656044
8.749999999999998 8.503270844432537 -72.29567219666831
8.749999999999998 13.47660915348553 -67.92023876105048
8.749999999999998 4.494919347430004 -53.41952943542453
8.749999999999998 5.100819186288892 -60.03537455061415
8.749999999999998 14.89035595153465 -51.84124924797153
8.749999999999998 15.71986123727014 -62.75386156519749
8.749999999999998 10.56540335321581 -62.28838787013589
8.749999999999998 9.858784263313099 -56.21387341680621
8.749999999999998 3.687970915470419 -48.19973319378241
8.749999999999998 3.851525424553923 -72.03559244370391
0 15.71717428724732 -46.39855966487667
4.486194551836153 16.37655264290931 -46.81104944207006
-4.486194551836158 16.37655264290931 -46.81104944207006
-3.552713678800501e-15 15.71717428724732 -33.60144033512332
-4.486194551836162 16.37655264290931 -33.18895055792993
4.48619455183616 16.37655264290931 -33.18895055792994
-0.0780112486365141 20 -26.19538504446094
0.04946445471989591 20 -7.702282901945416
3.872136913665011 20 -12.48485752047698
2.94525619581187 20 -20.17552161041565
-2.840122025121984 20 -13.463712521965
-3.884368401879994 20 -21.36155507885677
4.867653607010315 20 -7.233538938515046
-4.875809263436635 20 -26.66860741899978
4.656782322768406 20 -26.43140072531155
-4.641464847413751 20 -7.429309938812647
8.812499999999986 23 -1.5
2.937499999999966 23 -1.5
-8.812500000000007 23 -1.5
-2.937500000000027 23 -1.5
0.9722222222222232 20 -54.05643338579766
-4.595172521664342 20 -62.85283230932391
4.595172521664343 20 -62.8528323093239
4.816788012869983 20 -57.1820500285217
-4.006602827684798 20 -56.72695765016289
0 20 -66.35897094855927
5.531191520587639 20 -52.30744481863166
5.002367837666202 20 -67.30346919188231
-5.002367837666199 20 -67.30346919188231
0.07732921210812371 20 -59.87985178293049
0 15.71717428724732 -73.60144033512331
-4.486194551836157 16.37655264290931 -73.18895055792993
4.48619455183616 16.37655264290931 -73.18895055792993
-1.77635683940025e-15 15.71717428724732 -86.39855966487669
-4.486194551836155 16.37655264290931 -86.81104944207007
4.486194551836152 16.37655264290931 -86.81104944207007
0 20 -106.2647232136675
4.595172521664344 20 -97.14716769067611
-4.595172521664342 20 -97.14716769067611
-4.654750975832943 20 -102.8714760713892
4.654750975832947 20 -102.8714760713892
-1.77635683940025e-15 20 -93.64102905144074
5.002367837666202 20 -92.6965308081177
-5.002367837666203 20 -92.6965308081177
-5.01428352849992 20 -107.288348397317
5.014283528499922 20 -107.288348397317
0 20 -100.1189818810345
-3.665675905463562 12.74443403765049 -115.4611085403057
3.615858774588274 12.74443403765049 -115.4611085403057
-0.008302855145879917 9.081371772063029 -117.7526240636818
-0.008302855145881693 16.40749630323795 -113.1695930169295
4.560301165496965 9.010813203237625 -117.7967636507398
-4.560301165496965 16.47805487206336 -113.1254534298716
4.560301165496965 16.47805487206336 -113.1254534298716
-4.560301165496961 9.010813203237621 -117.7967636507398
7.701359272910938 6.888010097622113 -83.0930802270754
-5.685835616887267 7.841862159830773 -83.31312202726669
-1.013654772044912 9.821413605620929 -83.24931415400141
3.742103100947395 9.537184537526933 -83.12278301393134
2.675675450719286 2.70380620564788 -80
-2.690211903742158 2.70380620564788 -80.07348687170519
11.79350152110354 2.70380620564788 -80
7.811698012383037 2.70380620564788 -80
-7.018244601243509 2.70380620564788 -80.01469737434104
9.594128467851847 11.51389929173236 -80.04423019299593
13.72732183430853 6.014799515787415 -80.04423019299593
-13.72732183430852 6.014799515787435 -79.95576980700406
3.439599749619138 14.58719752112174 -79.95576980700407
-9.594128467851796 11.5138992917324 -79.95576980700407
-3.404850833048879 14.59534750399889 -80
7.916290398085986 6.507791538620269 -76.87817736060568
-5.685835616887503 7.841862159830723 -76.68687797273336
-0.9028846693162494 9.837989428442713 -76.75264433807519
4.09321121336821 9.545385060873214 -76.92522030196871
7.70135927291094 6.888010097622113 -43.0930802270754
-5.685835616887267 7.841862159830774 -43.31312202726667
-1.013654772044908 9.821413605620933 -43.2493141540014
3.742103100947391 9.537184537526937 -43.12278301393133
2.675675450719286 2.70380620564788 -40
-2.690211903742158 2.70380620564788 -40.07348687170519
11.79350152110354 2.70380620564788 -40
7.811698012383037 2.70380620564788 -40
-7.018244601243509 2.70380620564788 -40.01469737434103
9.594128467851851 11.51389929173236 -40.04423019299593
13.74160705000562 5.982091075956302 -40
3.439599749619138 14.58719752112174 -39.95576980700407
-9.594128467851796 11.5138992917324 -40.04423019299593
-13.72732183430852 6.014799515787441 -40.04423019299591
-3.404850833048879 14.59534750399889 -40
7.916290398085986 6.507791538620267 -36.87817736060568
-5.685835616887505 7.84186215983072 -36.68687797273336
-0.9028846693162517 9.837989428442713 -36.75264433807519
4.093211213368208 9.545385060873214 -36.92522030196871
0.1235899054480984 9.725494495430159 -52.27021699213591
0.3853022323611264 8.154568923015793 -68.58069010701458
-1.332267629550188e-15 9.029183831721397 -27.09877979537734
-2.220446049250313e-15 8.237186725480029 -92.46191366931571
-1.77635683940025e-15 8.800473312264829 -11.13781366813481
-1.77635683940025e-15 10.7216593131041 -105.8243407112011
-0.5306917241777107 12.11143207863367 -19.07249143133303
1.989161909458053 13.33465661028075 -61.89379034597867
-1.652226753394509 13.24322820494369 -97.63518659863502
2.30476225156141 6.937253619131205 -111.4265635524867
-1.617723117839795 7.06259857828483 -60.0376768769857
2.301155407158365 13.96300998913974 -5.849969162164959
-3.174391942213314 14.40811691923998 -65.22676750527431
1.724158586997116 7.088067770136928 -99.70817099982463
2.361681156572182 14.18089742614167 -92.42992823139556

CELLS 3020 13258
1 0
1 1
1 2
1 3
1 4
1 5
1 6
1 7
1 8
1 9
1 10
1 11
1 12
1 13
1 14
1 15
1 16
1 17
1 18
1 19
1 20
1 21
1 22
1 23
1 24
1 25
1 26
1 27
1 28
1 29
1 30
1 31
1 32
1 33
1 34
1 35
1 36
1 37
1 38
1 39
1 40
1 41
1 42
1 43
1 44
1 45
1 46
1 47
1 48
1 49
1 50
1 51
1 52
1 53
1 54
1 55
1 56
1 57
1 58
1 59
1 60
1 61
1 62
1 63
1 64
1 65
2 0 66
2 66 1
2 1 2
2 2 67
2 67 3
2 3 68
2 68 69
2 69 70
2 70 71
2 71 4
2 4 5
2 5 6
2 6 72
2 72 73
2 73 74
2 74 7
2 8 7
2 8 9
2 9 75
2 75 76
2 76 77
2 77 78
2 78 10
2 11 79
2 79 10
2 12 11
2 13 80
2 80 12
2 13 81
2 81 82
2 82 83
2 83 84
2 84 14
2 15 85
2 85 14
2 16 15
2 17 86
2 86 16
2 17 87
2 87 88
2 88 89
2 89 90
2 90 91
2 91 18
2 19 92
2 92 93
2 93 18
2 20 94
2 94 95
2 95 96
2 96 97
2 97 98
2 98 19
2 20 99
2 99 21
2 21 22
2 22 100
2 100 23
2 0 101
2 101 102
2 102 103
2 103 104
2 104 23
2 1 105
2 105 106
2 106 107
2 107 108
2 108 109
2 109 110
2 110 111
2 111 12
2 24 112
2 112 13
2 24 113
2 113 114
2 114 25
2 25 115
2 115 0
2 2 116
2 116 117
2 117 118
2 118 119
2 119 120
2 120 121
2 121 122
2 122 11
2 3 123
2 123 26
2 26 124
2 124 125
2 125 27
2 10 126
2 126 27
2 4 127
2 127 128
2 128 28
2 29 129
2 129 130
2 130 131
2 131 28
2 26 132
2 132 29
2 31 133
2 133 134
2 134 135
2 135 30
2 8 136
2 136 137
2 137 138
2 138 31
2 32 139
2 139 140
2 140 9
2 32 141
2 141 142
2 142 28
2 5 143
2 143 144
2 144 145
2 145 30
2 6 146
2 146 147
2 147 148
2 148 33
2 30 33
2 34 149
2 149 150
2 150 151
2 151 33
2 7 152
2 152 153
2 153 154
2 154 34
2 31 34
2 32 155
2 155 156
2 156 157
2 157 35
2 27 158
2 158 35
2 36 159
2 159 24
2 37 160
2 160 161
2 161 162
2 162 36
2 38 163
2 163 37
2 14 164
2 164 38
2 23 165
2 165 39
2 39 166
2 166 167
2 167 38
2 22 168
2 168 169
2 169 170
2 170 171
2 171 172
2 172 173
2 173 174
2 174 15
2 21 175
2 175 176
2 176 177
2 177 178
2 178 179
2 179 180
2 180 181
2 181 16
2 40 182
2 182 17
2 40 183
2 183 184
2 184 41
2 41 185
2 185 20
2 42 186
2 186 40
2 43 187
2 187 188
2 188 189
2 189 42
2 44 190
2 190 191
2 191 43
2 18 44
2 45 192
2 192 193
2 193 44
2 19 45
2 46 194
2 194 41
2 47 195
2 195 196
2 196 197
2 197 46
2 45 198
2 198 199
2 199 47
2 48 200
2 200 25
2 49 201
2 201 202
2 202 203
2 203 48
2 39 204
2 204 49
2 48 205
2 205 206
2 206 36
2 29 207
2 207 208
2 208 35
2 49 209
2 209 210
2 210 37
2 46 211
2 211 212
2 212 42
2 47 213
2 213 214
2 214 43
2 50 215
2 215 216
2 216 51
2 51 217
2 217 50
2 50 218
2 218 52
2 52 219
2 219 220
2 220 221
2 221 222
2 222 223
2 223 53
2 53 224
2 224 51
2 52 54
2 54 225
2 225 55
2 55 226
2 226 56
2 56 227
2 227 57
2 53 57
2 54 228
2 228 229
2 229 230
2 230 231
2 231 232
2 232 57
2 55 233
2 233 234
2 234 56
2 58 235
2 235 236
2 236 59
2 59 237
2 237 58
2 58 238
2 238 60
2 60 239
2 239 240
2 240 241
2 241 242
2 242 243
2 243 61
2 61 244
2 244 59
2 60 62
2 62 245
2 245 63
2 63 246
2 246 64
2 64 247
2 247 65
2 61 65
2 62 248
2 248 249
2 249 250
2 250 251
2 251 252
2 252 65
2 63 253
2 253 254
2 254 64
3 66 281 0
3 0 257 101
3 0 262 257
3 0 281 262
3 2 295 1
3 1 295 66
3 67 295 2
3 3 281 67
3 68 258 3
3 258 298 3
3 3 298 281
3 5 6 4
3 4 6 72
3 4 272 71
3 72 272 4
3 8 9 7
3 7 9 74
3 9 264 74
3 75 305 9
3 9 305 264
3 10 275 78
3 79 282 10
3 10 276 275
3 10 282 276
3 12 292 11
3 11 292 79
3 80 292 12
3 13 282 80
3 81 302 13
3 13 278 276
3 276 282 13
3 13 302 278
3 14 301 84
3 85 280 14
3 273 277 14
3 14 280 273
3 277 301 14
3 16 293 15
3 15 293 85
3 86 293 16
3 17 280 86
3 87 255 17
3 255 273 17
3 273 280 17
3 18 303 91
3 93 303 18
3 19 304 92
3 98 304 19
3 20 299 94
3 99 279 20
3 263 274 20
3 20 279 263
3 274 299 20
3 22 294 21
3 21 294 99
3 100 294 22
3 23 279 100
3 104 256 23
3 256 263 23
3 263 279 23
3 66 295 281
3 281 295 67
3 69 286 68
3 68 286 258
3 70 265 69
3 265 286 69
3 71 288 70
3 70 288 265
3 272 288 71
3 73 272 72
3 74 264 73
3 264 272 73
3 76 270 75
3 270 305 75
3 77 287 76
3 76 287 270
3 78 271 77
3 271 287 77
3 78 275 271
3 79 292 282
3 282 292 80
3 82 269 81
3 269 302 81
3 83 285 82
3 82 285 269
3 84 268 83
3 268 285 83
3 84 301 268
3 85 293 280
3 280 293 86
3 88 289 87
3 87 289 255
3 89 260 88
3 260 289 88
3 90 290 89
3 89 290 260
3 91 296 90
3 90 296 290
3 91 303 296
3 92 259 93
3 92 304 259
3 259 303 93
3 94 266 95
3 94 299 266
3 95 291 96
3 266 291 95
3 96 267 97
3 96 291 267
3 97 297 98
3 267 297 97
3 297 304 98
3 99 294 279
3 279 294 100
3 101 284 102
3 257 284 101
3 102 261 103
3 102 284 261
3 103 283 104
3 261 283 103
3 104 283 256
3 255 274 273
3 255 306 274
3 289 306 255
3 256 277 263
3 256 307 277
3 283 307 256
3 262 278 257
3 278 308 257
3 257 308 284
3 271 275 258
3 258 286 271
3 275 298 258
3 259 297 296
3 296 303 259
3 259 304 297
3 260 290 267
3 267 291 260
3 260 291 289
3 268 283 261
3 261 285 268
3 261 284 269
3 269 285 261
3 276 278 262
3 262 298 276
3 281 298 262
3 273 274 263
3 263 277 273
3 264 300 272
3 264 305 300
3 270 287 265
3 265 288 270
3 271 286 265
3 265 287 271
3 289 291 266
3 266 306 289
3 299 306 266
3 290 296 267
3 296 297 267
3 268 307 283
3 301 307 268
3 284 308 269
3 269 308 302
3 288 300 270
3 300 305 270
3 272 300 288
3 274 306 299
3 276 298 275
3 277 307 301
3 302 308 278
3 0 310 66
3 115 310 0
3 66 310 1
3 1 310 105
3 12 309 80
3 111 309 12
3 80 309 13
3 13 309 112
3 109 24 110
3 109 113 24
3 24 312 110
3 112 312 24
3 106 25 107
3 106 311 25
3 114 107 25
3 25 311 115
3 105 311 106
3 310 311 105
3 108 107 114
3 109 108 113
3 108 114 113
3 110 312 111
3 111 312 309
3 309 312 112
3 115 311 310
3 1 315 2
3 105 315 1
3 2 315 116
3 11 313 12
3 122 313 11
3 12 313 111
3 106 320 105
3 116 315 105
3 105 320 116
3 107 317 106
3 106 317 117
3 117 320 106
3 108 318 107
3 118 317 107
3 107 318 118
3 109 316 108
3 108 316 119
3 119 318 108
3 110 319 109
3 120 316 109
3 109 319 120
3 111 314 110
3 110 314 121
3 121 319 110
3 111 313 122
3 122 314 111
3 116 320 117
3 117 317 118
3 118 318 119
3 119 316 120
3 120 319 121
3 121 314 122
3 2 321 67
3 116 321 2
3 67 321 3
3 3 321 123
3 10 322 79
3 126 322 10
3 79 322 11
3 11 322 122
3 117 118 26
3 26 324 117
3 26 118 124
3 123 324 26
3 120 121 27
3 120 27 125
3 121 323 27
3 27 323 126
3 117 324 116
3 116 324 321
3 124 118 119
3 120 125 119
3 125 124 119
3 122 323 121
3 322 323 122
3 321 324 123
3 126 323 322
3 3 333 68
3 123 333 3
3 71 335 4
3 4 335 127
3 26 328 123
3 132 328 26
3 128 334 28
3 28 334 131
3 129 329 29
3 29 329 132
3 68 325 69
3 68 333 325
3 69 331 70
3 325 331 69
3 70 326 71
3 70 331 326
3 326 335 71
3 328 333 123
3 127 332 128
3 127 335 332
3 332 334 128
3 130 327 129
3 327 329 129
3 131 330 130
3 130 330 327
3 131 334 330
3 132 329 328
3 325 333 328
3 328 337 325
3 325 337 331
3 330 332 326
3 326 336 330
3 331 336 326
3 332 335 326
3 327 337 329
3 330 336 327
3 336 337 327
3 329 337 328
3 330 334 332
3 331 337 336
3 5 4 338
3 4 127 338
3 143 5 338
3 9 8 339
3 8 136 339
3 140 9 339
3 30 28 135
3 145 28 30
3 145 128 28
3 28 142 135
3 31 133 32
3 138 31 32
3 133 141 32
3 138 32 139
3 127 128 144
3 143 127 144
3 127 143 338
3 128 145 144
3 134 141 133
3 142 134 135
3 142 141 134
3 136 137 140
3 136 140 339
3 137 138 139
3 137 139 140
3 5 343 6
3 143 343 5
3 6 343 146
3 33 340 30
3 30 340 145
3 148 340 33
3 144 342 143
3 143 342 146
3 146 343 143
3 145 341 144
3 144 341 147
3 147 342 144
3 145 340 148
3 148 341 145
3 146 342 147
3 147 341 148
3 6 354 72
3 146 354 6
3 74 356 7
3 7 356 152
3 33 355 148
3 151 355 33
3 34 353 149
3 154 353 34
3 72 352 73
3 72 354 352
3 73 344 74
3 73 352 344
3 344 356 74
3 147 346 146
3 346 354 146
3 148 348 147
3 147 348 346
3 148 355 348
3 149 351 150
3 149 353 351
3 150 345 151
3 150 351 345
3 345 355 151
3 152 350 153
3 152 356 350
3 153 347 154
3 153 350 347
3 347 353 154
3 349 350 344
3 344 352 349
3 350 356 344
3 345 349 348
3 348 355 345
3 345 351 349
3 348 349 346
3 349 352 346
3 352 354 346
3 347 350 349
3 349 351 347
3 351 353 347
3 8 7 360
3 7 152 360
3 136 8 360
3 34 31 357
3 31 138 357
3 154 34 357
3 137 136 358
3 136 152 358
3 152 136 360
3 138 137 359
3 153 137 358
3 137 153 359
3 138 154 357
3 154 138 359
3 152 153 358
3 153 154 359
3 75 9 371
3 9 140 371
3 10 78 369
3 126 10 369
3 27 126 364
3 158 27 364
3 139 32 370
3 32 155 370
3 157 35 365
3 35 158 365
3 76 75 362
3 362 75 371
3 77 76 367
3 76 362 367
3 78 77 361
3 361 77 367
3 78 361 369
3 364 126 369
3 140 139 368
3 368 139 370
3 140 368 371
3 155 156 366
3 155 366 370
3 156 157 363
3 156 363 366
3 363 157 365
3 158 364 365
3 361 364 369
3 364 361 373
3 361 367 373
3 366 362 368
3 362 366 372
3 367 362 372
3 368 362 371
3 363 365 373
3 366 363 372
3 372 363 373
3 365 364 373
3 366 368 370
3 367 372 373
3 81 13 385
3 13 112 385
3 14 84 386
3 164 14 386
3 112 24 376
3 24 159 376
3 159 36 381
3 36 162 381
3 160 37 378
3 37 163 378
3 163 38 377
3 38 164 377
3 82 81 379
3 379 81 385
3 83 82 380
3 82 379 380
3 84 83 375
3 375 83 380
3 84 375 386
3 112 376 385
3 376 159 381
3 161 160 382
3 160 378 382
3 162 161 374
3 374 161 382
3 162 374 381
3 163 377 378
3 377 164 386
3 381 374 384
3 374 382 383
3 374 383 384
3 377 375 378
3 375 377 386
3 378 375 383
3 375 380 383
3 379 376 384
3 376 379 385
3 376 381 384
3 382 378 383
3 380 379 384
3 383 380 384
3 14 387 85
3 164 387 14
3 85 387 15
3 15 387 174
3 22 388 100
3 168 388 22
3 100 388 23
3 23 388 165
3 38 389 164
3 172 38 167
3 172 173 38
3 173 389 38
3 165 390 39
3 39 170 166
3 169 170 39
3 39 390 169
3 164 389 387
3 388 390 165
3 167 166 171
3 166 170 171
3 172 167 171
3 169 390 168
3 168 390 388
3 174 389 173
3 387 389 174
3 15 391 16
3 174 391 15
3 16 391 181
3 21 393 22
3 175 393 21
3 22 393 168
3 168 398 169
3 168 393 175
3 175 398 168
3 169 394 170
3 176 394 169
3 169 398 176
3 170 395 171
3 170 394 177
3 177 395 170
3 171 396 172
3 171 395 178
3 178 396 171
3 172 397 173
3 172 396 179
3 179 397 172
3 173 392 174
3 180 392 173
3 173 397 180
3 181 391 174
3 174 392 181
3 176 398 175
3 177 394 176
3 178 395 177
3 179 396 178
3 180 397 179
3 181 392 180
3 16 400 86
3 181 400 16
3 86 400 17
3 17 400 182
3 20 399 99
3 185 399 20
3 99 399 21
3 21 399 175
3 179 40 180
3 179 183 40
3 40 402 180
3 182 402 40
3 176 41 177
3 176 401 41
3 184 177 41
3 41 401 185
3 175 401 176
3 399 401 175
3 178 177 184
3 179 178 183
3 178 184 183
3 180 402 181
3 181 402 400
3 400 402 182
3 185 401 399
3 87 17 415
3 17 182 415
3 44 18 409
3 18 91 409
3 182 40 405
3 40 186 405
3 186 42 412
3 42 189 412
3 187 43 408
3 43 191 408
3 190 44 409
3 88 87 407
3 407 87 415
3 89 88 410
3 88 407 410
3 90 89 404
3 404 89 410
3 91 90 416
3 90 404 416
3 409 91 416
3 182 405 415
3 405 186 412
3 188 187 413
3 187 408 413
3 189 188 403
3 403 188 413
3 189 403 412
3 191 190 406
3 406 190 409
3 191 406 408
3 411 403 413
3 403 411 414
3 412 403 414
3 406 404 411
3 404 406 416
3 404 410 411
3 407 405 414
3 405 407 415
3 405 412 414
3 408 406 411
3 406 409 416
3 410 407 414
3 408 411 413
3 411 410 414
3 44 419 18
3 18 419 93
3 19 417 45
3 92 417 19
3 193 419 44
3 45 417 192
3 93 418 92
3 192 417 92
3 92 418 192
3 193 418 93
3 93 419 193
3 192 418 193
3 45 426 19
3 19 426 98
3 94 432 20
3 20 432 185
3 185 422 41
3 41 422 194
3 198 426 45
3 194 429 46
3 46 429 197
3 195 425 47
3 47 425 199
3 95 424 94
3 424 432 94
3 96 427 95
3 95 427 424
3 97 421 96
3 421 427 96
3 98 433 97
3 97 433 421
3 426 433 98
3 185 432 422
3 422 429 194
3 196 430 195
3 195 430 425
3 197 420 196
3 420 430 196
3 197 429 420
3 199 423 198
3 423 426 198
3 199 425 423
3 428 430 420
3 420 431 428
3 429 431 420
3 423 428 421
3 421 433 423
3 421 428 427
3 424 431 422
3 422 432 424
3 422 431 429
3 425 428 423
3 423 433 426
3 427 431 424
3 425 430 428
3 428 431 427
3 101 445 0
3 0 445 115
3 23 446 104
3 165 446 23
3 115 436 25
3 25 436 200
3 39 437 165
3 204 437 39
3 200 441 48
3 48 441 203
3 201 438 49
3 49 438 204
3 102 439 101
3 439 445 101
3 103 440 102
3 102 440 439
3 104 435 103
3 435 440 103
3 104 446 435
3 115 445 436
3 437 446 165
3 436 441 200
3 202 442 201
3 201 442 438
3 203 434 202
3 434 442 202
3 203 441 434
3 204 438 437
3 441 444 434
3 434 443 442
3 434 444 443
3 437 438 435
3 435 446 437
3 438 443 435
3 435 443 440
3 439 444 436
3 436 445 439
3 436 444 441
3 442 443 438
3 440 444 439
3 443 444 440
3 24 113 159
3 114 25 200
3 159 449 36
3 36 449 206
3 48 448 200
3 205 448 48
3 114 447 113
3 113 449 159
3 447 449 113
3 200 448 114
3 114 448 447
3 206 447 205
3 447 448 205
3 206 449 447
3 132 26 124
3 27 158 125
3 132 452 29
3 29 452 207
3 35 451 158
3 208 451 35
3 125 450 124
3 124 452 132
3 450 452 124
3 158 451 125
3 125 451 450
3 207 450 208
3 207 452 450
3 450 451 208
3 131 459 28
3 28 459 142
3 29 461 129
3 207 461 29
3 141 462 32
3 32 462 155
3 157 460 35
3 35 460 208
3 129 456 130
3 129 461 456
3 130 455 131
3 130 456 455
3 455 459 131
3 142 454 141
3 454 462 141
3 142 459 454
3 155 457 156
3 155 462 457
3 156 458 157
3 457 458 156
3 458 460 157
3 208 453 207
3 453 461 207
3 208 460 453
3 453 458 456
3 456 461 453
3 453 460 458
3 455 457 454
3 454 459 455
3 457 462 454
3 456 457 455
3 456 458 457
3 30 463 33
3 135 463 30
3 34 465 31
3 31 465 133
3 33 463 151
3 149 465 34
3 133 466 134
3 133 465 149
3 149 466 133
3 134 464 135
3 150 464 134
3 134 466 150
3 151 463 135
3 135 464 151
3 150 466 149
3 151 464 150
3 206 162 36
3 160 475 37
3 37 475 210
3 203 473 48
3 48 473 205
3 49 474 201
3 209 474 49
3 161 468 160
3 468 475 160
3 162 471 161
3 161 471 468
3 206 471 162
3 201 469 202
3 201 474 469
3 202 470 203
3 469 470 202
3 470 473 203
3 205 467 206
3 205 473 467
3 467 471 206
3 210 472 209
3 472 474 209
3 210 475 472
3 467 473 470
3 470 476 467
3 467 476 471
3 471 476 468
3 472 475 468
3 468 476 472
3 469 476 470
3 469 474 472
3 472 476 469
3 37 478 163
3 210 478 37
3 167 38 163
3 204 39 166
3 204 479 49
3 49 479 209
3 163 478 167
3 167 477 166
3 166 479 204
3 477 479 166
3 167 478 477
3 209 477 210
3 209 479 477
3 477 478 210
3 183 186 40
3 184 41 194
3 186 481 42
3 42 481 212
3 46 482 194
3 211 482 46
3 184 480 183
3 183 481 186
3 480 481 183
3 194 482 184
3 184 482 480
3 212 480 211
3 480 482 211
3 212 481 480
3 42 490 189
3 212 490 42
3 187 491 43
3 43 491 214
3 197 489 46
3 46 489 211
3 47 492 195
3 213 492 47
3 188 486 187
3 486 491 187
3 189 485 188
3 485 486 188
3 189 490 485
3 195 487 196
3 195 492 487
3 196 484 197
3 196 487 484
3 484 489 197
3 211 488 212
3 211 489 488
3 488 490 212
3 214 483 213
3 483 492 213
3 214 491 483
3 483 491 486
3 486 493 483
3 487 492 483
3 483 493 487
3 487 493 484
3 488 489 484
3 484 493 488
3 485 493 486
3 485 490 488
3 488 493 485
3 43 499 191
3 214 499 43
3 190 501 44
3 44 501 193
3 192 498 45
3 45 498 198
3 199 500 47
3 47 500 213
3 191 494 190
3 494 501 190
3 191 499 494
3 193 496 192
3 496 498 192
3 193 501 496
3 198 495 199
3 198 498 495
3 495 500 199
3 213 497 214
3 213 500 497
3 497 499 214
3 495 496 494
3 494 497 495
3 496 501 494
3 494 499 497
3 495 498 496
3 497 500 495
3 215 217 50
3 217 216 51
3 216 217 215
3 215 50 502
3 50 218 502
3 51 216 503
3 224 51 503
3 52 219 218
3 223 53 224
3 216 215 504
3 215 502 505
3 504 215 505
3 503 216 504
3 218 219 502
3 219 220 502
3 220 221 505
3 502 220 505
3 221 222 504
3 221 504 505
3 222 223 503
3 222 503 504
3 223 224 503
3 217 506 50
3 50 509 218
3 506 509 50
3 51 507 217
3 224 510 51
3 51 510 507
3 52 508 54
3 218 508 52
3 57 227 53
3 53 227 224
3 54 508 225
3 225 509 55
3 55 506 226
3 55 509 506
3 226 507 56
3 56 510 227
3 507 510 56
3 217 507 506
3 218 509 508
3 227 510 224
3 508 509 225
3 506 507 226
3 52 54 512
3 219 52 512
3 57 53 513
3 53 223 513
3 54 228 512
3 232 57 513
3 220 219 511
3 219 228 511
3 228 219 512
3 221 220 514
3 229 220 511
3 220 229 514
3 222 221 516
3 230 221 514
3 221 230 516
3 223 222 515
3 222 231 515
3 231 222 516
3 223 232 513
3 232 223 515
3 228 229 511
3 229 230 514
3 230 231 516
3 231 232 515
3 54 225 228
3 225 55 517
3 55 233 517
3 56 227 518
3 234 56 518
3 232 227 57
3 228 225 517
3 227 232 518
3 229 228 517
3 230 229 520
3 229 517 520
3 231 230 519
3 519 230 520
3 232 231 518
3 518 231 519
3 233 234 519
3 517 233 520
3 233 519 520
3 234 518 519
3 226 233 55
3 234 226 56
3 234 233 226
3 235 237 58
3 237 236 59
3 236 237 235
3 235 58 521
3 58 238 521
3 59 236 522
3 244 59 522
3 60 239 238
3 243 61 244
3 236 235 523
3 235 521 524
3 523 235 524
3 522 236 523
3 238 239 521
3 239 240 521
3 240 241 524
3 521 240 524
3 241 242 523
3 241 523 524
3 242 243 522
3 242 522 523
3 243 244 522
3 237 525 58
3 58 528 238
3 525 528 58
3 59 526 237
3 244 529 59
3 59 529 526
3 60 527 62
3 238 527 60
3 65 247 61
3 61 247 244
3 62 527 245
3 245 528 63
3 63 525 246
3 63 528 525
3 246 526 64
3 64 529 247
3 526 529 64
3 237 526 525
3 238 528 527
3 247 529 244
3 527 528 245
3 525 526 246
3 60 62 531
3 239 60 531
3 65 61 534
3 61 243 534
3 62 248 531
3 252 65 534
3 240 239 530
3 239 248 530
3 248 239 531
3 241 240 532
3 249 240 530
3 240 249 532
3 242 241 535
3 250 241 532
3 241 250 535
3 243 242 533
3 242 251 533
3 251 242 535
3 252 243 533
3 243 252 534
3 248 249 530
3 249 250 532
3 250 251 535
3 251 252 533
3 62 245 248
3 245 63 536
3 63 253 536
3 64 247 537
3 254 64 537
3 252 247 65
3 248 245 536
3 247 252 537
3 249 248 536
3 250 249 539
3 249 536 539
3 251 250 538
3 538 250 539
3 252 251 537
3 537 251 538
3 253 254 538
3 536 253 539
3 253 538 539
3 254 537 538
3 246 253 63
3 254 246 64
3 254 253 246
4 236 302 385 540
4 250 251 538 125
4 230 231 519 167
4 487 545 430 548
4 237 308 236 235
4 259 193 501 496
4 287 367 544 546
4 242 241 523 113
4 222 221 504 183
4 301 234 386 541
4 416 404 290 545
4 336 331 544 546
4 264 371 300 305
4 193 303 259 501
4 487 430 420 548
4 287 542 367 546
4 460 542 453 546
4 467 470 434 547
4 236 308 302 540
4 362 287 367 544
4 472 479 474 547
4 467 473 448 441
4 369 275 254 542
4 460 365 542 546
4 307 234 301 541
4 368 349 140 544
4 326 336 331 544
4 470 473 467 441
4 461 542 329 546
4 257 235 445 540
4 415 216 255 543
4 474 479 472 209
4 432 299 215 543
4 453 542 461 546
4 462 370 544 551
4 362 544 367 546
4 99 52 21 399
4 66 60 1 310
4 22 54 100 388
4 67 2 62 321
4 372 362 367 546
4 467 434 540 547
4 327 461 329 546
4 264 300 371 544
4 236 235 308 540
4 501 259 496 549
4 234 377 386 541
4 434 441 467 540
4 521 240 25 524
4 502 220 41 505
4 460 451 453 542
4 374 547 540 550
4 300 352 272 544
4 303 259 501 549
4 447 467 448 540
4 416 290 296 545
4 127 332 335 544
4 368 140 371 544
4 140 368 350 349
4 213 500 492 545
4 499 214 491 545
4 446 233 256 541
4 487 420 484 548
4 473 205 467 448
4 127 332 544 551
4 467 441 448 540
4 430 428 420 548
4 374 471 540 547
4 140 349 344 544
4 430 545 428 548
4 368 349 544 551
4 369 254 364 542
4 287 544 265 546
4 208 451 453 460
4 460 365 451 542
4 471 467 540 547
4 287 265 542 546
4 471 467 381 540
4 308 235 257 540
4 493 487 484 548
4 327 329 542 546
4 408 491 486 545
4 491 214 483 545
4 483 213 492 545
4 290 545 404 553
4 385 302 379 540
4 368 370 139 551
4 140 344 371 544
4 246 253 254 542
4 376 236 385 540
4 307 226 234 541
4 265 544 331 546
4 368 139 349 551
4 109 24 242 110
4 179 40 222 180
4 408 486 413 545
4 264 371 344 544
4 496 259 418 192
4 193 259 418 496
4 492 487 483 545
4 491 483 486 545
4 206 381 467 540
4 486 413 545 548
4 497 214 499 545
4 450 452 453 542
4 497 500 213 545
4 27 120 251 121
4 38 172 231 173
4 461 453 452 542
4 447 206 467 540
4 352 127 544 551
4 255 216 306 543
4 207 453 450 452
4 453 451 450 542
4 460 453 458 546
4 438 474 479 547
4 284 439 440 540
4 432 424 299 543
4 500 425 492 545
4 491 408 499 545
4 447 449 206 540
4 437 233 446 541
4 306 215 299 543
4 207 461 453 452
4 370 462 141 551
4 257 445 284 540
4 206 449 381 540
4 256 233 307 541
4 250 539 124 538
4 230 520 166 519
4 493 545 487 548
4 368 544 370 551
4 477 479 472 552
4 286 331 325 542
4 265 331 542 546
4 439 284 445 540
4 472 479 547 552
4 479 477 472 209
4 350 344 140 349
4 253 258 333 542
4 416 545 296 549
4 502 218 401 219
4 521 238 311 239
4 497 483 214 545
4 483 497 213 545
4 208 451 450 453
4 234 226 233 541
4 477 541 479 552
4 370 141 139 551
4 327 542 337 546
4 461 452 329 542
4 337 327 329 542
4 457 462 370 544
4 471 381 374 540
4 232 227 164 389
4 331 337 542 546
4 457 454 462 551
4 333 328 253 542
4 447 467 205 448
4 436 445 235 540
4 287 271 367 542
4 290 296 545 549
4 407 415 255 543
4 541 547 479 552
4 416 406 545 549
4 326 331 265 544
4 415 405 216 543
4 384 374 540 550
4 275 246 254 542
4 434 470 467 441
4 487 493 483 545
4 483 493 486 545
4 307 233 226 541
4 308 257 284 540
4 350 368 139 349
4 547 550 374 552
4 228 225 390 517
4 248 245 324 536
4 216 217 306 543
4 223 224 402 182
4 471 476 467 547
4 457 462 544 551
4 404 411 410 553
4 362 270 287 544
4 373 367 542 546
4 303 501 296 549
4 323 65 247 322
4 53 402 224 400
4 61 312 244 309
4 389 57 227 387
4 416 406 404 545
4 241 240 524 114
4 221 220 505 184
4 310 0 66 238
4 23 388 100 225
4 330 544 455 546
4 249 250 539 124
4 230 520 229 166
4 404 545 411 553
4 53 16 391 181
4 313 61 12 111
4 256 307 283 541
4 286 265 331 542
4 373 542 365 546
4 383 374 550 552
4 338 343 5 143
4 136 8 339 360
4 440 443 541 550
4 344 349 352 544
4 301 386 375 541
4 352 264 300 272
4 139 141 347 551
4 440 435 283 541
4 412 490 481 554
4 352 544 349 551
4 247 252 323 126
4 486 545 493 548
4 215 422 432 543
4 258 325 333 542
4 260 290 404 553
4 244 243 112 312
4 306 299 266 543
4 438 479 541 547
4 446 256 435 541
4 52 21 175 393
4 105 60 1 315
4 116 2 62 315
4 168 22 54 393
4 367 361 373 542
4 331 337 325 542
4 481 490 212 554
4 370 366 457 544
4 327 456 461 546
4 366 370 368 544
4 363 373 365 546
4 367 271 361 542
4 320 105 239 106
4 175 398 176 219
4 223 181 392 180
4 243 111 314 110
4 409 406 416 549
4 303 409 296 501
4 406 501 494 549
4 215 306 217 543
4 453 461 456 546
4 420 548 428 553
4 501 406 409 549
4 299 424 266 543
4 333 325 328 542
4 361 369 364 542
4 313 11 65 122
4 391 15 57 174
4 428 548 545 553
4 412 548 490 554
4 377 234 167 541
4 444 440 439 540
4 444 540 434 547
4 376 385 379 540
4 439 445 436 540
4 215 217 216 543
4 17 400 86 224
4 412 481 543 554
4 479 166 437 541
4 478 377 167 541
4 471 206 381 467
4 57 389 232 174
4 312 61 243 111
4 402 53 223 181
4 65 323 252 122
4 303 296 259 549
4 374 382 468 552
4 287 265 271 542
4 504 221 505 184
4 523 241 524 114
4 443 547 541 550
4 331 336 337 546
4 330 336 544 546
4 440 540 444 550
4 404 410 260 553
4 401 175 176 219
4 105 311 239 106
4 390 169 168 228
4 116 248 324 117
4 288 326 265 544
4 381 384 374 540
4 434 444 441 540
4 399 20 99 218
4 467 476 470 547
4 246 258 253 542
4 411 545 413 548
4 411 548 410 553
4 471 547 374 552
4 290 545 267 549
4 288 300 272 544
4 455 544 330 551
4 414 543 410 553
4 406 499 408 545
4 425 500 423 545
4 169 398 168 228
4 320 248 116 117
4 232 174 173 392
4 252 122 121 314
4 438 479 437 541
4 478 378 377 541
4 59 385 236 302
4 437 446 435 541
4 386 377 375 541
4 3 321 67 245
4 523 235 236 540
4 497 499 494 545
4 455 544 457 546
4 410 543 260 553
4 270 265 287 544
4 440 443 435 541
4 407 405 415 543
4 422 424 432 543
4 381 449 376 540
4 436 448 441 540
4 267 545 290 553
4 480 543 481 554
4 447 113 449 540
4 447 448 114 540
4 255 306 289 543
4 410 414 407 543
4 301 56 386 234
4 296 501 409 549
4 479 477 166 541
4 477 478 167 541
4 266 543 424 553
4 412 543 548 554
4 296 409 416 549
4 425 428 430 545
4 408 413 411 545
4 481 405 412 543
4 299 215 50 432
4 322 10 79 247
4 283 435 256 541
4 127 352 346 551
4 233 437 166 541
4 423 545 500 549
4 300 371 270 305
4 255 415 51 216
4 481 480 183 543
4 288 272 335 544
4 306 216 255 217
4 141 351 347 551
4 457 544 366 546
4 329 452 328 542
4 365 364 451 542
4 236 376 113 540
4 374 383 382 552
4 471 476 547 552
4 384 383 374 550
4 234 233 519 541
4 494 499 406 545
4 254 125 364 542
4 494 545 406 549
4 455 457 544 551
4 490 488 212 554
4 254 253 538 542
4 420 484 548 554
4 474 442 469 547
4 414 410 548 553
4 478 541 477 552
4 411 545 548 553
4 431 548 420 553
4 414 548 543 553
4 540 547 444 550
4 455 454 457 551
4 124 452 450 542
4 451 125 450 542
4 269 302 308 540
4 378 541 478 552
4 234 307 301 226
4 236 302 308 237
4 178 184 177 221
4 241 107 114 108
4 183 178 179 221
4 113 108 109 241
4 407 255 289 543
4 449 113 376 540
4 436 114 448 540
4 259 192 496 549
4 494 497 545 549
4 170 230 166 171
4 118 250 124 119
4 171 167 172 230
4 119 125 120 250
4 258 246 275 542
4 139 347 349 551
4 13 309 80 244
4 254 369 64 275
4 481 183 405 543
4 170 230 395 514
4 118 250 318 532
4 330 327 336 546
4 328 452 124 542
4 364 125 451 542
4 217 306 215 299
4 471 468 476 552
4 268 307 301 541
4 420 548 431 554
4 421 267 545 549
4 265 286 271 542
4 267 421 545 553
4 471 374 468 552
4 496 494 501 549
4 308 237 257 235
4 490 548 488 554
4 221 179 516 396
4 403 485 490 548
4 286 325 258 542
4 9 140 339 356
4 127 4 338 354
4 113 523 236 540
4 250 120 316 535
4 330 544 332 551
4 495 423 500 549
4 226 233 307 256
4 405 183 216 543
4 241 109 535 316
4 179 180 222 397
4 371 300 270 544
4 269 379 302 540
4 330 456 327 546
4 230 172 396 516
4 192 259 304 549
4 253 328 124 542
4 504 215 216 543
4 234 519 167 541
4 373 372 367 546
4 409 303 193 501
4 170 230 514 229
4 118 250 532 249
4 266 424 291 553
4 241 107 318 532
4 395 221 177 514
4 456 330 455 546
4 235 58 257 445
4 474 438 442 547
4 486 403 413 548
4 538 125 254 542
4 270 288 265 544
4 326 330 336 544
4 371 140 264 344
4 222 221 179 516
4 242 241 109 535
4 289 260 543 553
4 462 454 141 551
4 442 470 469 547
4 548 553 431 554
4 336 327 337 546
4 411 414 410 548
4 231 230 516 172
4 251 250 535 120
4 288 335 326 544
4 243 242 110 533
4 57 232 513 174
4 61 243 111 534
4 219 52 175 512
4 55 233 256 446
4 172 173 397 231
4 518 232 164 38
4 431 420 428 553
4 332 127 128 551
4 232 231 515 173
4 421 545 423 549
4 412 543 414 548
4 220 221 514 177
4 107 241 240 532
4 102 284 439 440
4 362 76 367 287
4 192 259 418 304
4 303 259 418 193
4 486 485 403 548
4 424 427 291 553
4 474 469 472 547
4 183 504 216 543
4 428 545 421 553
4 232 174 389 173
4 243 111 110 312
4 223 181 180 402
4 252 122 323 121
4 304 417 192 426
4 457 366 363 546
4 352 349 346 551
4 362 366 368 544
4 332 330 326 544
4 303 419 409 193
4 424 543 431 553
4 384 540 379 550
4 284 269 540 550
4 233 166 519 541
4 253 258 63 333
4 412 403 490 548
4 436 441 444 540
4 381 376 384 540
4 223 503 182 40
4 470 442 469 202
4 480 481 212 554
4 239 60 105 531
4 248 62 531 116
4 268 283 541 550
4 371 362 368 544
4 335 332 326 544
4 423 421 428 545
4 406 411 404 545
4 520 233 437 166
4 124 538 253 542
4 405 414 412 543
4 268 301 375 541
4 494 495 497 549
4 140 368 139 350
4 330 332 334 551
4 290 267 296 549
4 184 543 480 554
4 379 540 269 550
4 422 543 184 554
4 173 38 389 232
4 312 24 110 243
4 40 180 402 223
4 121 27 323 252
4 485 488 490 548
4 375 541 383 550
4 218 50 502 185
4 337 329 328 542
4 373 364 365 542
4 351 349 347 551
4 423 428 425 545
4 411 406 408 545
4 455 330 334 551
4 537 252 126 27
4 375 383 541 552
4 442 434 470 547
4 438 541 443 547
4 210 477 472 552
4 65 252 534 122
4 53 223 181 513
4 228 54 512 168
4 366 372 363 546
4 458 457 363 546
4 243 522 112 24
4 243 242 24 110
4 223 222 40 180
4 223 222 180 515
4 541 383 550 552
4 266 289 306 543
4 252 251 121 27
4 232 231 173 38
4 421 433 267 549
4 456 330 327 130
4 252 251 533 121
4 271 258 275 542
4 178 179 221 396
4 362 371 270 544
4 543 431 553 554
4 366 156 457 363
4 230 170 395 171
4 250 118 318 119
4 120 119 250 316
4 377 378 375 541
4 437 435 438 541
4 346 128 127 551
4 489 484 420 554
4 543 553 548 554
4 325 337 328 542
4 373 361 364 542
4 192 304 426 549
4 128 142 459 551
4 238 58 521 115
4 151 33 355 463
4 384 376 379 540
4 444 439 436 540
4 424 431 427 553
4 149 34 465 353
4 459 128 28 142
4 438 435 443 541
4 431 424 422 543
4 405 407 414 543
4 253 539 124 328
4 271 286 258 542
4 269 308 284 540
4 411 413 403 548
4 486 493 485 548
4 192 426 498 549
4 379 269 380 550
4 435 440 283 103
4 422 184 482 554
4 334 459 455 551
4 330 456 455 130
4 267 427 421 553
4 488 493 484 548
4 380 269 285 550
4 518 234 167 377
4 283 307 268 541
4 365 460 157 363
4 431 543 422 554
4 468 382 374 161
4 458 457 156 363
4 210 478 477 552
4 360 152 7 356
4 285 268 380 550
4 496 192 498 549
4 343 354 6 146
4 420 487 196 430
4 486 413 403 188
4 375 541 378 552
4 107 241 318 108
4 221 395 177 178
4 109 108 316 241
4 470 434 442 202
4 484 488 548 554
4 384 379 380 550
4 33 148 355 340
4 268 541 375 550
4 462 141 32 370
4 427 96 267 421
4 290 404 89 260
4 369 361 78 271
4 171 172 396 230
4 375 378 383 552
4 34 357 353 154
4 291 266 95 424
4 287 362 76 270
4 70 331 265 326
4 216 415 51 503
4 139 347 350 349
4 424 95 291 427
4 139 32 141 370
4 369 64 537 254
4 522 59 385 236
4 403 490 485 189
4 197 489 484 420
4 450 208 453 207
4 254 537 364 125
4 265 288 70 326
4 403 485 486 188
4 484 487 196 420
4 372 373 363 546
4 267 433 297 549
4 287 77 367 271
4 284 102 261 440
4 351 466 149 150
4 376 522 236 113
4 77 361 367 271
4 268 375 380 550
4 482 184 480 554
4 375 383 380 550
4 154 359 347 153
4 210 472 477 209
4 415 87 407 255
4 284 439 445 101
4 334 128 459 551
4 270 300 288 544
4 267 291 427 553
4 284 261 269 550
4 345 464 150 151
4 460 458 157 363
4 260 267 290 553
4 456 455 457 546
4 476 469 470 547
4 261 283 440 103
4 275 369 78 271
4 257 284 445 101
4 453 456 458 546
4 28 334 128 459
4 404 410 89 260
4 268 261 283 550
4 356 264 140 344
4 496 495 494 549
4 9 140 356 264
4 210 475 478 552
4 183 216 503 405
4 134 464 142 135
4 133 466 141 134
4 96 267 291 427
4 193 419 409 501
4 498 192 417 426
4 385 376 522 236
4 467 206 447 205
4 327 329 461 129
4 537 364 369 254
4 421 423 433 549
4 90 416 404 290
4 429 422 482 554
4 489 420 429 554
4 141 142 351 551
4 268 380 83 285
4 325 331 286 69
4 304 259 297 549
4 304 418 192 92
4 303 418 93 193
4 410 407 88 260
4 234 56 386 518
4 352 354 272 127
4 459 454 455 551
4 346 146 342 147
4 308 302 278 237
4 341 147 148 348
4 386 234 518 377
4 142 141 454 551
4 428 421 427 553
4 503 216 415 405
4 152 358 153 350
4 289 291 260 553
4 155 457 462 370
4 197 489 420 429
4 490 403 412 189
4 431 422 429 554
4 127 4 354 272
4 444 434 443 547
4 297 296 267 549
4 185 41 502 401
4 269 261 285 550
4 233 55 437 446
4 469 476 472 547
4 143 127 342 144
4 136 137 358 140
4 192 417 304 92
4 93 419 303 193
4 39 165 517 390
4 285 261 268 550
4 468 374 471 161
4 442 443 434 547
4 213 214 497 483
4 438 443 442 547
4 348 142 128 551
4 485 493 488 548
4 541 550 547 552
4 375 380 83 268
4 289 88 407 260
4 475 378 478 552
4 210 472 475 552
4 352 264 272 73
4 378 478 377 163
4 204 438 479 437
4 274 306 217 299
4 167 377 478 163
4 437 479 204 166
4 296 297 259 549
4 433 421 267 97
4 192 45 498 417
4 44 419 193 501
4 325 258 333 68
4 307 277 301 226
4 327 461 456 129
4 406 191 408 499
4 425 500 199 423
4 403 412 414 548
4 195 487 492 430
4 472 547 476 552
4 135 28 30 463
4 32 31 465 133
4 458 456 457 546
4 115 25 521 311
4 137 359 139 138
4 341 128 145 144
4 417 45 498 426
4 419 44 409 501
4 499 43 408 491
4 47 492 500 425
4 299 432 94 424
4 386 375 84 301
4 259 418 304 92
4 290 90 416 296
4 93 259 418 303
4 457 155 366 370
4 452 329 328 132
4 158 451 365 364
4 34 357 465 353
4 218 502 401 185
4 423 495 498 549
4 472 476 468 552
4 87 407 255 289
4 414 411 403 548
4 4 127 335 272
4 81 379 385 302
4 267 297 433 97
4 484 489 488 554
4 425 195 492 430
4 345 351 142 551
4 55 225 517 165
4 481 412 405 186
4 194 482 429 422
4 297 426 304 549
4 26 123 536 324
4 260 291 267 553
4 426 304 417 98
4 418 193 496 192
4 415 182 51 503
4 495 198 423 498
4 449 159 381 376
4 441 448 436 200
4 331 265 286 69
4 406 501 190 494
4 348 128 346 551
4 357 31 32 138
4 145 30 28 340
4 468 382 475 552
4 452 328 124 132
4 158 451 364 125
4 238 521 311 115
4 298 276 275 246
4 498 426 423 549
4 500 495 199 423
4 428 427 431 553
4 191 406 494 499
4 273 507 506 217
4 207 29 461 452
4 384 380 383 550
4 369 64 126 537
4 419 409 91 303
4 442 474 469 201
4 352 344 264 73
4 376 449 159 113
4 114 436 448 200
4 345 355 348 142
4 378 475 382 552
4 478 475 37 378
4 479 438 49 474
4 385 112 59 522
4 72 354 4 272
4 481 405 183 186
4 194 482 422 184
4 35 451 208 460
4 409 501 190 406
4 198 423 498 426
4 164 386 56 518
4 420 431 429 554
4 442 438 474 201
4 475 160 378 382
4 433 426 297 549
4 348 346 349 551
4 63 245 536 123
4 345 142 348 551
4 94 266 299 424
4 352 354 72 272
4 286 258 325 68
4 35 451 460 365
4 371 75 270 305
4 491 499 43 214
4 492 213 47 500
4 74 264 9 356
4 128 334 332 551
4 160 475 468 382
4 211 489 482 554
4 55 437 517 233
4 490 42 412 481
4 489 46 482 429
4 471 381 206 162
4 448 473 48 441
4 489 429 482 554
4 90 404 89 290
4 29 329 461 452
4 455 459 334 131
4 463 33 355 340
4 345 349 351 551
4 46 482 211 489
4 42 490 212 481
4 71 288 272 335
4 369 10 64 275
4 417 19 426 98
4 506 274 273 217
4 335 71 288 326
4 19 417 304 98
4 362 371 75 270
4 334 330 455 131
4 246 258 63 253
4 297 304 426 98
4 409 18 44 419
4 417 19 45 426
4 381 36 206 162
4 521 235 524 436
4 426 433 297 98
4 409 416 91 296
4 296 91 409 303
4 409 91 18 419
4 343 4 354 338
4 216 51 255 217
4 359 139 138 154
4 377 167 38 163
4 9 339 360 356
4 496 498 495 549
4 381 36 449 206
4 419 91 18 303
4 356 74 264 344
4 518 164 386 377
4 276 526 246 525
4 71 70 288 326
4 232 164 38 389
4 364 27 158 125
4 525 526 237 262
4 301 375 84 268
4 141 351 353 347
4 103 283 435 104
4 258 3 63 333
4 142 454 459 551
4 64 10 276 275
4 436 114 25 200
4 376 159 24 113
4 457 155 156 366
4 211 488 489 554
4 114 25 524 436
4 364 369 126 537
4 369 78 10 275
4 226 277 263 256
4 48 205 473 448
4 503 415 182 405
4 276 13 282 529
4 418 259 93 92
4 539 253 536 328
4 471 374 381 162
4 37 210 475 478
4 49 479 474 209
4 263 274 273 506
4 199 47 500 425
4 408 191 43 499
4 223 40 182 402
4 257 237 58 235
4 112 385 376 522
4 95 96 291 427
4 27 364 537 125
4 349 345 348 551
4 330 455 131 130
4 333 258 3 68
4 199 495 198 423
4 405 40 183 186
4 422 41 194 184
4 226 55 233 256
4 211 482 480 554
4 215 502 422 505
4 191 406 190 494
4 475 160 37 378
4 474 438 49 201
4 76 77 367 287
4 522 376 24 113
4 468 475 472 552
4 255 273 274 217
4 94 95 266 424
4 231 515 173 397
4 421 96 267 97
4 518 167 38 377
4 362 75 76 270
4 276 237 526 262
4 272 72 352 73
4 515 222 180 397
4 81 379 302 269
4 323 27 126 252
4 41 422 505 184
4 407 87 88 289
4 525 298 276 262
4 312 112 24 243
4 59 13 278 276
4 525 276 526 262
4 456 327 129 130
4 491 43 408 187
4 492 47 195 425
4 14 280 510 273
4 439 284 102 101
4 484 196 197 420
4 188 403 485 189
4 59 13 276 529
4 225 390 517 165
4 276 282 10 529
4 285 380 83 82
4 137 358 140 350
4 342 127 346 144
4 246 298 276 525
4 437 517 233 520
4 125 124 538 250
4 167 166 519 230
4 383 378 382 552
4 412 42 490 189
4 489 197 46 429
4 77 78 361 271
4 433 423 426 549
4 460 157 35 365
4 90 91 416 296
4 71 272 4 335
4 148 145 341 348
4 510 56 14 273
4 40 183 503 405
4 358 137 153 350
4 147 342 346 144
4 139 359 347 154
4 473 203 48 441
4 297 433 97 98
4 156 157 458 363
4 6 4 354 343
4 274 20 50 263
4 440 102 261 103
4 7 9 360 356
4 28 334 459 131
4 237 276 278 262
4 277 14 56 273
4 134 141 142 150
4 445 0 257 101
4 278 276 237 526
4 64 254 275 246
4 446 256 23 104
4 69 331 265 70
4 509 263 20 279
4 187 413 486 188
4 487 195 196 430
4 434 470 203 202
4 461 329 29 129
4 114 113 523 241
4 184 183 504 221
4 375 83 84 268
4 141 351 142 150
4 32 155 462 370
4 245 324 536 123
4 37 478 378 163
4 438 49 204 479
4 245 62 321 67
4 225 54 388 100
4 60 238 310 66
4 52 218 399 99
4 278 308 237 257
4 68 325 286 69
4 262 278 237 257
4 39 165 437 517
4 258 298 275 246
4 452 29 329 132
4 451 35 158 365
4 128 145 28 355
4 410 88 89 260
4 176 41 401 219
4 25 239 311 106
4 390 39 169 228
4 324 248 26 117
4 20 50 263 509
4 263 23 55 256
4 528 298 262 281
4 276 10 64 529
4 138 139 353 154
4 255 274 306 217
4 18 93 419 303
4 379 81 82 269
4 341 145 128 348
4 159 381 36 449
4 441 48 448 200
4 201 469 442 202
4 58 0 257 445
4 304 417 19 92
4 13 81 385 302
4 256 23 55 446
4 432 20 299 94
4 386 84 14 301
4 465 357 32 353
4 226 263 55 256
4 75 371 9 305
4 521 524 25 436
4 526 64 276 246
4 481 42 412 186
4 46 194 482 429
4 298 3 63 258
4 302 59 13 278
4 510 280 17 273
4 51 17 415 255
4 139 353 32 138
4 385 59 13 302
4 26 123 328 536
4 307 277 226 256
4 415 17 87 255
4 51 17 255 273
4 115 25 436 521
4 14 56 386 301
4 275 276 64 246
4 237 59 278 526
4 338 354 343 146
4 360 339 152 356
4 274 50 20 299
4 273 255 51 217
4 539 124 26 249
4 39 229 520 166
4 50 20 299 432
4 382 468 160 161
4 145 128 348 355
4 351 345 142 150
4 498 45 198 426
4 44 409 501 190
4 142 355 135 151
4 507 56 510 273
4 141 466 149 351
4 63 246 525 298
4 348 148 145 355
4 344 74 264 73
4 506 50 274 217
4 507 56 277 226
4 185 41 422 502
4 23 263 509 279
4 9 7 74 356
4 258 63 298 246
4 301 14 56 277
4 220 221 177 184
4 107 241 114 240
4 59 276 526 529
4 222 221 183 179
4 242 241 113 109
4 525 237 58 262
4 464 142 345 150
4 140 356 344 350
4 4 6 354 72
4 463 355 28 340
4 528 58 0 262
4 536 26 539 328
4 231 230 172 167
4 251 250 120 125
4 298 528 3 281
4 262 0 528 281
4 298 63 528 525
4 506 263 55 226
4 506 263 50 509
4 139 347 359 153
4 351 141 466 150
4 170 230 229 166
4 118 250 249 124
4 41 422 502 505
4 273 51 507 217
4 141 149 133 353
4 347 353 139 154
4 354 352 346 127
4 528 298 525 262
4 528 3 63 298
4 466 149 133 141
4 135 464 142 151
4 507 277 56 273
4 345 142 464 151
4 276 278 59 526
4 128 346 127 144
4 17 51 510 273
4 142 355 28 135
4 263 50 274 506
4 58 0 262 257
4 140 139 137 350
4 142 464 134 150
4 134 466 141 150
4 58 528 525 262
4 51 17 182 415
4 262 237 58 257
4 165 55 23 446
4 162 471 374 161
4 55 23 263 509
4 526 276 64 529
4 58 0 445 115
4 142 345 355 151
4 133 32 141 353
4 137 139 153 350
4 364 126 27 537
4 128 147 346 144
4 227 53 280 57
4 24 112 376 522
4 224 53 280 227
4 517 437 39 520
4 281 67 295 527
4 281 295 66 527
4 149 141 351 353
4 65 323 122 322
4 402 53 181 400
4 312 61 111 309
4 57 389 174 387
4 165 225 390 388
4 126 10 64 369
4 508 279 99 294
4 506 55 263 509
4 224 227 280 510
4 65 247 282 61
4 146 127 346 342
4 61 247 282 244
4 358 152 140 350
4 153 139 347 350
4 151 355 28 463
4 227 387 164 389
4 100 279 508 294
4 56 14 386 164
4 228 390 39 517
4 26 536 248 324
4 293 53 57 280
4 218 401 399 185
4 355 148 28 340
4 244 247 282 529
4 17 51 224 510
4 341 128 147 348
4 50 20 432 185
4 114 524 25 240
4 505 220 41 184
4 41 401 219 502
4 521 25 239 311
4 146 343 338 143
4 339 152 136 360
4 149 465 32 353
4 112 59 13 385
4 151 28 135 463
4 133 465 32 149
4 518 38 164 377
4 148 145 28 340
4 333 3 63 123
4 224 182 400 402
4 282 65 61 292
4 353 357 32 154
4 138 32 357 154
4 324 245 321 123
4 280 17 224 510
4 503 182 40 405
4 310 238 311 115
4 128 346 147 348
4 507 510 51 273
4 339 140 152 356
4 354 338 127 146
4 463 30 33 340
4 247 64 10 529
4 343 5 4 338
4 339 8 9 360
4 247 322 126 323
4 357 31 34 465
4 244 112 309 312
4 509 55 23 225
4 0 58 528 238
4 357 32 31 465
4 463 28 30 340
4 508 99 52 294
4 508 54 100 294
4 227 56 14 510
4 280 227 14 510
4 13 59 244 529
4 146 338 127 143
4 140 152 136 339
4 282 247 10 529
4 225 55 23 165
4 282 13 244 529
4 346 354 127 146
4 509 20 50 218
4 67 62 295 527
4 295 60 66 527
4 138 353 32 154
4 238 281 66 527
4 67 281 245 527
4 356 140 152 350
4 17 51 182 224
4 252 534 122 314
4 512 168 398 228
4 513 223 181 392
4 513 232 392 174
4 116 531 248 320
4 314 243 534 111
4 398 175 512 219
4 239 531 105 320
4 148 28 145 355
4 32 133 149 353
4 279 509 23 225
4 528 63 3 245
4 135 355 28 151
4 7 9 8 360
4 4 6 5 343
4 508 99 279 218
4 503 183 40 222
4 522 24 242 113
4 147 128 341 144
4 225 54 100 508
4 245 62 67 527
4 60 238 66 527
4 52 218 99 508
4 537 251 27 125
4 518 38 167 231
4 139 359 137 153
4 0 58 238 115
4 20 509 279 218
4 295 2 1 315
4 281 66 0 238
4 164 56 14 227
4 279 100 508 225
4 0 528 281 238
4 20 50 218 185
4 86 17 224 280
4 1 60 295 315
4 295 62 2 315
4 127 146 143 342
4 152 136 358 140
4 100 279 23 225
4 99 20 279 218
4 126 64 10 247
4 532 318 241 250
4 514 221 230 395
4 16 15 293 391
4 316 535 241 250
4 396 516 221 230
4 512 168 54 393
4 122 65 313 534
4 11 12 313 292
4 100 54 22 294
4 21 52 99 294
4 513 53 391 181
4 512 52 175 393
4 513 391 57 174
4 539 124 538 253
4 519 233 520 166
4 21 22 393 294
4 62 531 116 315
4 105 531 60 315
4 111 313 61 534
4 245 63 3 123
4 512 175 168 393
4 508 279 509 218
4 293 15 57 391
4 13 59 112 244
4 60 62 295 315
4 295 2 62 67
4 66 1 60 295
4 53 16 293 391
4 105 116 531 315
4 313 111 122 534
4 181 391 513 174
4 313 65 11 292
4 3 67 281 245
4 282 10 247 79
4 313 12 61 292
4 512 54 52 393
4 509 279 508 225
4 65 61 313 534
4 57 53 391 513
4 282 244 13 80
4 393 52 21 294
4 393 22 54 294
4 281 528 3 245
4 537 254 538 125
4 234 167 519 518
4 531 62 60 315
4 113 522 236 523
4 216 504 183 503
4 535 316 109 120
4 396 172 179 516
4 514 395 170 177
4 107 118 318 532
4 238 528 281 527
4 245 281 528 527
4 531 239 248 320
4 512 398 219 228
4 232 513 392 223
4 243 314 534 252
4 293 57 53 391
4 531 116 105 320
4 175 168 398 512
4 513 181 174 392
4 122 111 314 534
4 61 65 313 292
4 121 110 319 533
4 515 231 222 397
4 54 52 393 294
4 515 397 180 173
4 52 54 508 294
4 180 232 515 173
4 121 110 533 243
4 243 533 121 252
4 223 232 515 180
4 398 169 176 219
4 320 239 117 106
4 110 121 314 243
4 180 392 232 173
4 516 172 179 222
4 242 535 109 120
4 320 239 248 117
4 219 398 169 228
4 232 223 392 180
4 243 121 314 252
4 241 108 316 250
4 171 396 221 230
4 318 108 241 250
4 171 221 395 230
4 170 220 514 177
4 107 118 532 240
4 171 221 396 178
4 221 171 395 178
4 535 242 251 120
4 222 516 172 231
4 108 316 250 119
4 250 318 108 119
4 295 62 60 527
4 249 532 118 240
4 514 229 220 170
4 107 118 240 317
4 170 394 220 177
4 222 172 179 397
4 172 222 231 397
4 16 53 400 181
4 164 14 387 227
4 120 125 27 251
4 108 113 114 241
4 244 243 522 112
4 247 64 537 126
4 26 124 118 249
4 522 243 242 24
4 229 517 39 520
4 503 223 222 40
4 126 10 322 247
4 51 224 503 182
4 17 182 400 224
4 227 56 518 164
4 309 12 61 111
4 172 167 38 231
4 57 389 227 232
4 387 57 15 174
4 402 53 224 223
4 231 232 518 38
4 231 518 519 167
4 167 171 166 230
4 222 504 503 183
4 242 523 522 113
4 251 537 538 125
4 322 65 11 122
4 251 252 537 27
4 59 244 522 112
4 13 112 309 244
4 312 61 244 243
4 65 323 247 252
4 23 165 388 225
4 248 249 536 26
4 114 25 107 240
4 249 536 26 539
4 116 62 2 321
4 109 24 113 242
4 105 1 60 310
4 115 0 310 238
4 3 123 321 245
4 125 119 124 250
4 228 229 517 39
4 220 219 502 41
4 184 41 177 220
4 39 166 170 229
4 175 21 52 399
4 185 20 399 218
4 54 22 168 388
4 232 227 518 164
4 247 537 252 126
4 240 239 521 25
4 179 40 183 222
4 224 223 503 182
4 178 183 184 221
4 544 264 352 344
4 544 352 264 300
4 546 362 366 372
4 546 366 362 544
4 470 441 203 473
4 203 441 470 434
4 492 430 545 425
4 545 430 492 487
4 408 486 187 413
4 187 486 408 491
4 435 256 104 283
4 435 104 256 446
4 550 283 440 261
4 550 440 283 541
4 550 443 444 440
4 550 444 443 547
4 550 284 440 540
4 550 440 284 261
4 500 549 497 495
4 497 549 500 545
4 369 271 542 361
4 542 271 369 275
4 127 272 544 335
4 127 544 272 352
4 242 120 533 251
4 121 533 120 251
4 121 120 533 319
4 553 266 289 291
4 553 289 266 543
4 460 363 546 458
4 546 363 460 365
4 436 524 540 235
4 436 540 524 114
4 523 540 524 235
4 523 524 540 114
4 505 504 543 215
4 543 504 505 184
4 543 422 505 215
4 505 422 543 184
4 380 269 82 285
4 82 269 380 379
4 260 407 543 410
4 260 543 407 289
4 264 371 9 140
4 9 371 264 305
4 175 399 219 401
4 175 219 399 52
4 218 219 399 401
4 218 399 219 52
4 105 310 239 311
4 105 239 310 60
4 238 239 310 311
4 238 310 239 60
4 225 388 228 390
4 225 228 388 54
4 168 228 388 390
4 168 388 228 54
4 245 321 248 324
4 245 248 321 62
4 116 248 321 324
4 116 321 248 62
4 212 554 211 480
4 211 554 212 488
4 437 165 55 517
4 55 165 437 446
4 185 422 50 502
4 185 50 422 432
4 215 50 422 502
4 215 422 50 432
4 123 328 63 333
4 123 63 328 536
4 253 63 328 333
4 253 328 63 536
4 115 436 58 521
4 115 58 436 445
4 235 58 436 521
4 235 436 58 445
4 226 506 277 507
4 226 277 506 263
4 273 277 506 507
4 273 506 277 263
4 166 167 541 477
4 166 541 167 519
4 124 125 542 450
4 124 542 125 538
4 353 139 141 347
4 141 139 353 32
4 166 39 437 520
4 166 437 39 204
4 124 26 328 539
4 124 328 26 132
4 237 59 302 278
4 237 302 59 236
4 113 114 540 447
4 113 540 114 523
4 183 184 543 480
4 183 543 184 504
4 217 50 299 215
4 217 299 50 274
4 226 56 301 234
4 226 301 56 277
4 128 355 142 348
4 142 355 128 28
4 57 227 293 280
4 14 227 85 387
4 14 85 227 280
4 227 85 293 280
4 248 117 249 26
4 118 249 117 26
4 228 169 229 39
4 170 229 169 39
4 219 220 176 41
4 177 176 220 41
4 177 220 176 394
4 239 240 106 25
4 107 106 240 25
4 107 240 106 317
4 239 117 530 248
4 249 530 117 248
4 219 169 511 228
4 229 511 169 228
4 120 109 533 319
4 120 533 109 242
4 110 533 109 319
4 110 109 533 242
4 117 530 106 239
4 117 106 530 317
4 240 106 530 239
4 240 530 106 317
4 169 511 176 219
4 169 176 511 394
4 220 176 511 219
4 220 511 176 394
4 61 12 80 292
4 80 12 61 309
4 61 244 80 309
4 282 61 80 292
4 282 80 61 244
4 79 247 65 322
4 79 11 65 292
4 65 11 79 322
4 282 65 79 247
4 282 79 65 292
4 53 16 86 293
4 86 16 53 400
4 53 224 86 400
4 280 53 86 293
4 280 86 53 224
4 57 227 85 293
4 85 227 57 387
4 85 15 57 293
4 57 15 85 387
4 118 240 530 249
4 530 240 118 317
4 530 117 118 249
4 118 117 530 317
4 170 220 511 229
4 511 220 170 394
4 511 169 170 229
4 170 169 511 394

CELL_TYPES 3020
1
1
1
1
1
1
1
1
1
1
1
1
1
1
1
1
1
1
1
1
1
1
1
1
1
1
1
1
1
1
1
1
1
1
1
1
1
1
1
1
1
1
1
1
1
1
1
1
1
1
1
1
1
1
1
1
1
1
1
1
1
1
1
1
1
1
3
3
3
3
3
3
3
3
3
3
3
3
3
3
3
3
3
3
3
3
3
3
3
3
3
3
3
3
3
3
3
3
3
3
3
3
3
3
3
3
3
3
3
3
3
3
3
3
3
3
3
3
3
3
3
3
3
3
3
3
3
3
3
3
3
3
3
3
3
3
3
3
3
3
3
3
3
3
3
3
3
3
3
3
3
3
3
3
3
3
3
3
3
3
3
3
3
3
3
3
3
3
3
3
3
3
3
3
3
3
3
3
3
3
3
3
3
3
3
3
3
3
3
3
3
3
3
3
3
3
3
3
3
3
3
3
3
3
3
3
3
3
3
3
3
3
3
3
3
3
3
3
3
3
3
3
3
3
3
3
3
3
3
3
3
3
3
3
3
3
3
3
3
3
3
3
3
3
3
3
3
3
3
3
3
3
3
3
3
3
3
3
3
3
3
3
3
3
3
3
3
3
3
3
3
3
3
3
3
3
3
3
3
3
3
3
3
3
3
3
3
3
3
3
3
3
3
3
3
3
3
3
3
3
3
3
3
3
3
3
3
3
3
3
3
3
3
3
3
3
3
3
3
3
3
3
3
3
3
3
3
3
3
3
3
3
3
3
3
3
3
3
3
3
3
3
3
3
3
3
3
3
3
3
3
3
3
3
5
5
5
5
5
5
5
5
5
5
5
5
5
5
5
5
5
5
5
5
5
5
5
5
5
5
5
5
5
5
5
5
5
5
5
5
5
5
5
5
5
5
5
5
5
5
5
5
5
5
5
5
5
5
5
5
5
5
5
5
5
5
5
5
5
5
5
5
5
5
5
5
5
5
5
5
5
5
5
5
5
5
5
5
5
5
5
5
5
5
5
5
5
5
5
5
5
5
5
5
5
5
5
5
5
5
5
5
5
5
5
5
5
5
5
5
5
5
5
5
5
5
5
5
5
5
5
5
5
5
5
5
5
5
5
5
5
5
5
5
5
5
5
5
5
5
5
5
5
5
5
5
5
5
5
5
5
5
5
5
5
5
5
5
5
5
5
5
5
5
5
5
5
5
5
5
5
5
5
5
5
5
5
5
5
5
5
5
5
5
5
5
5
5
5
5
5
5
5
5
5
5
5
5
5
5
5
5
5
5
5
5
5
5
5
5
5
5
5
5
5
5
5
5
5
5
5
5
5
5
5
5
5
5
5
5
5
5
5
5
5
5
5
5
5
5
5
5
5
5
5
5
5
5
5
5
5
5
5
5
5
5
5
5
5
5
5
5
5
5
5
5
5
5
5
5
5
5
5
5
5
5
5
5
5
5
5
5
5
5
5
5
5
5
5
5
5
5
5
5
5
5
5
5
5
5
5
5
5
5
5
5
5
5
5
5
5
5
5
5
5
5
5
5
5
5
5
5
5
5
5
5
5
5
5
5
5
5
5
5
5
5
5
5
5
5
5
5
5
5
5
5
5
5
5
5
5
5
5
5
5
5
5
5
5
5
5
5
5
5
5
5
5
5
5
5
5
5
5
5
5
5
5
5
5
5
5
5
5
5
5
5
5
5
5
5
5
5
5
5
5
5
5
5
5
5
5
5
5
5
5
5
5
5
5
5
5
5
5
5
5
5
5
5
5
5
5
5
5
5
5
5
5
5
5
5
5
5
5
5
5
5
5
5
5
5
5
5
5
5
5
5
5
5
5
5
5
5
5
5
5
5
5
5
5
5
5
5
5
5
5
5
5
5
5
5
5
5
5
5
5
5
5
5
5
5
5
5
5
5
5
5
5
5
5
5
5
5
5
5
5
5
5
5
5
5
5
5
5
5
5
5
5
5
5
5
5
5
5
5
5
5
5
5
5
5
5
5
5
5
5
5
5
5
5
5
5
5
5
5
5
5
5
5
5
5
5
5
5
5
5
5
5
5
5
5
5
5
5
5
5
5
5
5
5
5
5
5
5
5
5
5
5
5
5
5
5
5
5
5
5
5
5
5
5
5
5
5
5
5
5
5
5
5
5
5
5
5
5
5
5
5
5
5
5
5
5
5
5
5
5
5
5
5
5
5
5
5
5
5
5
5
5
5
5
5
5
5
5
5
5
5
5
5
5
5
5
5
5
5
5
5
5
5
5
5
5
5
5
5
5
5
5
5
5
5
5
5
5
5
5
5
5
5
5
5
5
5
5
5
5
5
5
5
5
5
5
5
5
5
5
5
5
5
5
5
5
5
5
5
5
5
5
5
5
5
5
5
5
5
5
5
5
5
5
5
5
5
5
5
5
5
5
5
5
5
5
5
5
5
5
5
5
5
5
5
5
5
5
5
5
5
5
5
5
5
5
5
5
5
5
5
5
5
5
5
5
5
5
5
5
5
5
5
5
5
5
5
5
5
5
5
5
5
5
5
5
5
5
5
5
5
5
5
5
5
5
5
5
5
5
5
5
5
5
5
5
5
5
5
5
5
5
5
5
5
5
5
5
5
5
5
5
5
5
5
5
5
5
5
5
5
5
5
5
5
5
5
5
5
5
5
5
5
5
5
5
5
5
5
5
5
5
5
5
5
5
5
5
5
5
5
5
5
5
5
5
5
5
5
5
5
5
5
5
5
5
5
5
5
5
5
5
5
5
5
5
5
5
5
5
5
5
5
5
5
5
5
5
5
5
5
5
5
5
5
5
5
5
5
5
5
5
5
5
5
5
5
5
5
5
5
5
5
5
5
5
5
5
5
5
5
5
5
5
5
5
5
5
5
5
5
5
5
5
5
5
5
5
5
5
5
5
5
5
5
5
5
5
5
5
5
5
5
5
5
5
5
5
5
5
5
5
5
5
5
5
5
5
5
5
5
5
5
5
5
5
5
5
5
5
5
5
5
5
5
5
5
5
5
5
5
5
5
5
5
5
5
5
5
5
5
5
5
5
5
5
5
5
5
5
5
5
5
5
5
5
5
5
5
5
5
5
5
5
5
5
5
5
5
5
5
5
5
5
5
5
5
5
5
5
5
5
5
5
5
5
5
5
5
5
5
5
5
5
5
5
5
5
5
5
5
5
5
5
5
5
5
5
5
5
5
5
5
5
5
5
5
10
10
10
10
10
10
10
10
10
10
10
10
10
10
10
10
10
10
10
10
10
10
10
10
10
10
10
10
10
10
10
10
10
10
10
10
10
10
10
10
10
10
10
10
10
10
10
10
10
10
10
10
10
10
10
10
10
10
10
10
10
10
10
10
10
10
10
10
10
10
10
10
10
10
10
10
10
10
10
10
10
10
10
10
10
10
10
10
10
10
10
10
10
10
10
10
10
10
10
10
10
10
10
10
10
10
10
10
10
10
10
10
10
10
10
10
10
10
10
10
10
10
10
10
10
10
10
10
10
10
10
10
10
10
10
10
10
10
10
10
10
10
10
10
10
10
10
10
10
10
10
10
10
10
10
10
10
10
10
10
10
10
10
10
10
10
10
10
10
10
10
10
10
10
10
10
10
10
10
10
10
10
10
10
10
10
10
10
10
10
10
10
10
10
10
10
10
10
10
10
10
10
10
10
10
10
10
10
10
10
10
10
10
10
10
10
10
10
10
10
10
10
10
10
10
10
10
10
10
10
10
10
10
10
10
10
10
10
10
10
10
10
10
10
10
10
10
10
10
10
10
10
10
10
10
10
10
10
10
10
10
10
10
10
10
10
10
10
10
10
10
10
10
10
10
10
10
10
10
10
10
10
10
10
10
10
10
10
10
10
10
10
10
10
10
10
10
10
10
10
10
10
10
10
10
10
10
10
10
10
10
10
10
10
10
10
10
10
10
10
10
10
10
10
10
10
10
10
10
10
10
10
10
10
10
10
10
10
10
10
10
10
10
10
10
10
10
10
10
10
10
10
10
10
10
10
10
10
10
10
10
10
10
10
10
10
10
10
10
10
10
10
10
10
10
10
10
10
10
10
10
10
10
10
10
10
10
10
10
10
10
10
10
10
10
10
10
10
10
10
10
10
10
10
10
10
10
10
10
10
10
10
10
10
10
10
10
10
10
10
10
10
10
10
10
10
10
10
10
10
10
10
10
10
10
10
10
10
10
10
10
10
10
10
10
10
10
10
10
10
10
10
10
10
10
10
10
10
10
10
10
10
10
10
10
10
10
10
10
10
10
10
10
10
10
10
10
10
10
10
10
10
10
10
10
10
10
10
10
10
10
10
10
10
10
10
10
10
10
10
10
10
10
10
10
10
10
10
10
10
10
10
10
10
10
10
10
10
10
10
10
10
10
10
10
10
10
10
10
10
10
10
10
10
10
10
10
10
10
10
10
10
10
10
10
10
10
10
10
10
10
10
10
10
10
10
10
10
10
10
10
10
10
10
10
10
10
10
10
10
10
10
10
10
10
10
10
10
10
10
10
10
10
10
10
10
10
10
10
10
10
10
10
10
10
10
10
10
10
10
10
10
10
10
10
10
10
10
10
10
10
10
10
10
10
10
10
10
10
10
10
10
10
10
10
10
10
10
10
10
10
10
10
10
10
10
10
10
10
10
10
10
10
10
10
10
10
10
10
10
10
10
10
10
10
10
10
10
10
10
10
10
10
10
10
10
10
10
10
10
10
10
10
10
10
10
10
10
10
10
10
10
10
10
10
10
10
10
10
10
10
10
10
10
10
10
10
10
10
10
10
10
10
10
10
10
10
10
10
10
10
10
10
10
10
10
10
10
10
10
10
10
10
10
10
10
10
10
10
10
10
10
10
10
10
10
10
10
10
10
10
10
10
10
10
10
10
10
10
10
10
10
10
10
10
10
10
10
10
10
10
10
10
10
10
10
10
10
10
10
10
10
10
10
10
10
10
10
10
10
10
10
10
10
10
10
10
10
10
10
10
10
10
10
10
10
10
10
10
10
10
10
10
10
10
10
10
10
10
10
10
10
10
10
10
10
10
10
10
10
10
10
10
10
10
10
10
10
10
10
10
10
10
10
10
10
10
10
10
10
10
10
10
10
10
10
10
10
10
10
10
10
10
10
10
10
10
10
10
10
10
10
10
10
10
10
10
10
10
10
10
10
10
10
10
10
10
10
10
10
10
10
10
10
10
10
10
10
10
10
10
10
10
10
10
10
10
10
10
10
10
10
10
10
10
10
10
10
10
10
10
10
10
10
10
10
10
10
10
10
10
10
10
10
10
10
10
10
10
10
10
10
10
10
10
10
10
10
10
10
10
10
10
10
10
10
10
10
10
10
10
10
10
10
10
10
10
10
10
10
10
10
10
10
10
10
10
10
10
10
10
10
10
10
10
10
10
10
10
10
10
10
10
10
10
10
10
10
10
10
10
10
10
10
10
10
10
10
10
10
10
10
10
10
10
10
10
10
10
10
10
10
10
10
10
10
10
10
10
10
10
10
10
10
10
10
10
10
10
10
10
10
10
10
10
10
10
10
10
10
10
10
10
10
10
10
10
10
10
10
10
10
10
10
10
10
10
10
10
10
10
10
10
10
10
10
10
10
10
10
10
10
10
10
10
10
10
10
10
10
10
10
10
10
10
10
10
10
10
10
10
10
10
10
10
10
10
10
10
10
10
10
10
10
10
10
10
10
10
10
10
10
10
10
10
10
10
10
10
10
10
10
10
10
10
10
10
10
10
10
10
10
10
10
10
10
10
10
10
10
10
10
10
10
10
10
10
10
10
10
10
10
10
10
10
10
10
10
10
10
10
10
10
10
10
10
10
10
10
10
10
10
10
10
10
10
10
10
10
10
10
10
10
10
10
10
10
10
10
10
10
10
10
10
10
10
10
10
10
10
10
10
10
10
10
10
10
10
10
10
10
10
10
10
10
10
10
10
10
10
10
10
10
10
10
10
10
10
10
10
10
10
10
10
10
10
10
10
10
10
10
10
10
10
10
10
10
10
10
10
10
10
10
10
10
10
10
10
10
10
10
10
10
10
10
10
10
10
10
10
10
10
10
10
10
10
10
10
10
10
10
10
10
10
10
10
10
10
10
10
10
10
10
10
10
10
10
10
10
10
10
10
10
10
10
10
10
10
10
10
10
10
10
10
10
10
10
10
10
10
10
10
10
10
10
10
10
10
10
10
10
10
10
10
10
10
10
10
10
10
10
10
10
10
10
10
10
10
10
10
10
10
10
10
10
10
10
10
10
10
10
10
10
10
10
10
10
10
10
10
10
10
10
10
10
10
10
10
10
10
10
10
10
10
10
10
10
10
10
10
10
10
10
10
10
10
10
10
10
10
10
10
10
10
10
10
10
10
10
10
10
10
10
10
10
10
10
10
10
10
10
10
10
10
10
10
10
10
10
10
10
10
10
10
10
10
10
10
10
10
10
10
10
10
10
10
10
10
10
10
10
10
10
10
10
10
10
10
10
10
10
10
10
10
10
10
10
10
10
10
10
10
10
10
10
10
10
10
10
10
10
10
10
10
10
10
10
10
10
10
10
10
10
10
10
10
10
10
10
10
10
10
10
10
10
10
10
10
10
10
10
10
10
10
10
10
10
10
10
10
10
10
10
10
10
10
10
10
10
10
10
10
10
10
10
10
10
10
10
10
10
10
10
10
10
10
10
10
10
10
10
10
10
10
10
10
10
10
10
10
10
10
10
10
10
10
10
10
10
10
10
10
10
10
10
10
10
10
10
10
10
10
10
10
10
10
10
10
10
10
10
10
10
10
10
10
10
10
