# vtk DataFile Version 2.0
, Created by Gmsh 4.11.1 
ASCII
DATASET UNSTRUCTURED_GRID
POINTS 554 double
8.75 0 -44.40742602607934
17.70923938586626 0 -41.42579912541123
17.70923938586626 0 -38.57420087458877
8.75 0 -35.59257397392065
8.75 0 -3
11.75 0 -3
11.75 0 0
-11.75 0 0
-11.75 0 -3
-8.75 0 -3
-8.75 1.071565949253934e-15 -35.59257397392065
-17.70923938586626 2.168756332923536e-15 -38.57420087458877
-17.70923938586626 2.168756332923536e-15 -41.42579912541123
-8.75 1.071565949253934e-15 -44.40742602607934
-8.75 1.071565949253934e-15 -75.59257397392065
-17.70923938586626 2.168756332923536e-15 -78.57420087458877
-17.70923938586626 2.168756332923536e-15 -81.42579912541123
-8.75 1.071565949253934e-15 -84.40742602607935
-8.75 0 -120
8.75 0 -120
8.75 0 -84.40742602607935
17.70923938586626 0 -81.42579912541123
17.70923938586626 0 -78.57420087458877
8.75 0 -75.59257397392065
-8.75 9.507070819386444 -43.0193897753874
8.75 9.507070819386422 -43.01938977538737
8.75 9.507070819386424 -36.98061022461263
-8.75 9.507070819386424 -36.98061022461263
8.75 20 -3
8.75 20 -26.73466183075378
11.75 23 -3
-11.75 23 -3
-8.75 20 -3
11.75 23 0
-11.75 23 0
-8.75 20 -26.73466183075378
-8.75 20 -53.26533816924622
-8.75 20 -66.73466183075378
-8.75 9.507070819386417 -76.98061022461263
8.75 9.507070819386417 -76.98061022461263
-8.75 9.507070819386431 -83.01938977538738
8.75 9.507070819386431 -83.01938977538738
-8.75 20 -93.26533816924622
-8.75 20 -106.7346618307538
-8.75 6.414898004930523 -120
8.75 6.414898004930523 -120
8.75 20 -93.26533816924622
8.75 20 -106.7346618307538
8.75 20 -53.26533816924622
8.75 20 -66.73466183075378
4.69685256270723 3.287868292131325 -84.40742602607935
-4.696852562707229 3.287868292131326 -84.40742602607935
14.31991808650022 3.287868292131325 -81.42579912541123
-14.31991808650022 3.28786829213133 -81.42579912541123
14.31991808650022 3.287868292131325 -78.57420087458877
4.69685256270723 3.287868292131325 -75.59257397392065
-4.696852562707229 3.287868292131326 -75.59257397392065
-14.31991808650022 3.28786829213133 -78.57420087458877
4.69685256270723 3.287868292131325 -44.40742602607934
-4.696852562707229 3.287868292131326 -44.40742602607934
14.31991808650022 3.287868292131325 -41.42579912541123
-14.31991808650022 3.28786829213133 -41.42579912541123
14.31991808650022 3.287868292131325 -38.57420087458877
4.69685256270723 3.287868292131325 -35.59257397392066
-4.696852562707229 3.287868292131326 -35.59257397392066
-14.31991808650022 3.28786829213133 -38.57420087458877
13.22961969293313 0 -42.91661257574528
13.22961969293313 0 -37.08338742425471
8.75 0 -29.07405917913653
8.75 0 -22.55554438435242
8.75 0 -16.03702958956828
8.75 0 -9.518514794784142
5.875000000000016 0 0
3.730349362740526e-14 0 0
-5.874999999999972 0 0
-8.75 0 -9.518514794784126
-8.75 0 -16.03702958956824
-8.75 0 -22.55554438435238
-8.75 0 -29.07405917913653
-13.22961969293313 1.620161141088735e-15 -37.08338742425471
-13.22961969293313 1.620161141088735e-15 -42.91661257574528
-8.75 0 -50.6444556156476
-8.75 0 -56.88148520521586
-8.75 0 -63.11851479478413
-8.75 0 -69.35554438435241
-13.22961969293313 1.620161141088735e-15 -77.08338742425471
-13.22961969293313 1.620161141088735e-15 -82.91661257574529
-8.75 0 -90.33952168839946
-8.75 0 -96.27161735071957
-8.75 0 -102.2037130130397
-8.75 0 -108.1358086753598
-8.75 0 -114.0679043376799
2.916666666666666 0 -120
-2.916666666666668 0 -120
8.75 0 -90.33952168839946
8.75 0 -96.27161735071957
8.75 0 -102.2037130130397
8.75 0 -108.1358086753598
8.75 0 -114.0679043376799
13.22961969293313 0 -82.91661257574529
13.22961969293313 0 -77.08338742425471
8.75 0 -50.6444556156476
8.75 0 -56.88148520521586
8.75 0 -63.11851479478413
8.75 0 -69.35554438435241
16.36120380494458 6.777032512758346 -41.42579912541123
12.52232325940191 12.52232325940194 -41.42579912541123
6.7770325127583 16.3612038049446 -41.42579912541123
-6.576371990381536e-14 17.70923938586626 -41.42579912541123
-6.777032512758392 16.36120380494457 -41.42579912541123
-12.52232325940196 12.52232325940189 -41.42579912541123
-16.3612038049446 6.777032512758315 -41.42579912541123
-8.750000000000002 4.793309611206523 -43.99911840933895
-2.947701032449672 10.26939327641266 -43.76376881576072
2.947701032449633 10.26939327641267 -43.76376881576072
8.749999999999998 4.793309611206515 -43.99911840933895
16.36120380494458 6.777032512758346 -38.57420087458877
12.52232325940191 12.52232325940194 -38.57420087458877
6.7770325127583 16.3612038049446 -38.57420087458877
-6.576371990381536e-14 17.70923938586626 -38.57420087458877
-6.777032512758392 16.36120380494457 -38.57420087458877
-12.52232325940196 12.52232325940189 -38.57420087458877
-16.3612038049446 6.777032512758315 -38.57420087458877
8.749999999999998 4.793309611206523 -36.00088159066105
2.947701032449668 10.26939327641268 -36.23623118423928
-2.947701032449626 10.26939327641268 -36.23623118423928
-8.750000000000002 4.793309611206519 -36.00088159066105
8.75 6.666666666666651 -3
8.75 13.33333333333329 -3
8.75 20 -20.80099637306535
8.75 20 -14.86733091537693
8.75 20 -8.933665457688473
8.75 13.00471387959096 -33.56529409332634
8.75 16.50235693979548 -30.14997796204006
-5.875000000000016 23 -3
-3.730349362740526e-14 23 -3
5.874999999999972 23 -3
-11.75 5.749999999999988 -3
-11.75 11.49999999999999 -3
-11.75 17.24999999999999 -3
-8.75 13.33333333333335 -3
-8.75 6.666666666666705 -3
-2.916666666666666 20 -3
2.916666666666668 20 -3
11.75 5.749999999999988 -3
11.75 11.49999999999999 -3
11.75 17.24999999999999 -3
11.75 5.749999999999988 0
11.75 11.49999999999999 0
11.75 17.24999999999999 0
-5.875000000000016 23 0
-3.730349362740526e-14 23 0
5.874999999999972 23 0
-11.75 5.749999999999988 0
-11.75 11.49999999999999 0
-11.75 17.24999999999999 0
-8.75 20 -8.933665457688431
-8.75 20 -14.86733091537685
-8.75 20 -20.80099637306531
-8.75 13.00471387959096 -33.56529409332634
-8.75 16.50235693979548 -30.14997796204006
-8.75 16.50235693979548 -49.85002203795995
-8.75 13.00471387959096 -46.43470590667367
-8.75 20 -59.99999999999999
-8.75 13.00471387959095 -73.56529409332634
-8.75 16.50235693979548 -70.14997796204005
-8.750000000000002 4.793309611206516 -76.00088159066105
8.749999999999998 4.793309611206515 -76.00088159066105
2.947701032449674 10.26939327641267 -76.23623118423929
-2.947701032449626 10.26939327641268 -76.23623118423929
16.36120380494458 6.777032512758346 -78.57420087458877
12.52232325940191 12.52232325940194 -78.57420087458877
6.7770325127583 16.3612038049446 -78.57420087458877
-6.576371990381536e-14 17.70923938586626 -78.57420087458877
-6.777032512758392 16.36120380494457 -78.57420087458877
-12.52232325940196 12.52232325940189 -78.57420087458877
-16.3612038049446 6.777032512758315 -78.57420087458877
16.36120380494458 6.777032512758346 -81.42579912541123
12.52232325940191 12.52232325940194 -81.42579912541123
6.7770325127583 16.3612038049446 -81.42579912541123
-6.576371990381536e-14 17.70923938586626 -81.42579912541123
-6.777032512758392 16.36120380494457 -81.42579912541123
-12.52232325940196 12.52232325940189 -81.42579912541123
-16.3612038049446 6.777032512758315 -81.42579912541123
-8.750000000000002 4.79330961120652 -83.99911840933896
-2.947701032449678 10.26939327641267 -83.76376881576073
2.947701032449618 10.26939327641268 -83.76376881576073
8.749999999999998 4.793309611206515 -83.99911840933896
-8.75 16.50235693979547 -89.85002203795993
-8.75 13.00471387959095 -86.43470590667366
-8.75 20 -100
-8.75 10.94326533662035 -115.5782206102513
-8.75 15.47163266831016 -111.1564412205025
2.916666666666666 6.414898004930523 -120
-2.916666666666668 6.414898004930523 -120
8.75 16.50235693979547 -89.85002203795993
8.75 13.00471387959095 -86.43470590667366
8.75 20 -100
8.75 10.94326533662035 -115.5782206102513
8.75 15.47163266831016 -111.1564412205025
8.75 16.50235693979547 -49.85002203795993
8.75 13.00471387959094 -46.43470590667366
8.75 20 -59.99999999999999
8.75 13.00471387959095 -73.56529409332634
8.75 16.50235693979548 -70.14997796204005
2.916666666666666 20 -53.26533816924622
-2.916666666666668 20 -53.26533816924622
2.916666666666666 20 -26.73466183075378
-2.916666666666668 20 -26.73466183075378
2.916666666666666 20 -66.73466183075378
-2.916666666666668 20 -66.73466183075378
2.916666666666666 20 -93.26533816924622
-2.916666666666668 20 -93.26533816924622
2.916666666666666 20 -106.7346618307538
-2.916666666666668 20 -106.7346618307538
-9.219817753644943e-16 5.733280204404109 -84.40742602607935
5.329070518200751e-15 3.287868292131325 -84.40742602607935
9.52254555152088 3.287868292131325 -82.96278092811171
11.47919211251293 9.170511455447818 -81.42579912541123
6.36915271831791 13.24024265492224 -81.42579912541123
7.424446769931455e-15 14.69251959027037 -81.42579912541123
-6.369152718317896 13.24024265492224 -81.42579912541123
-11.47919211251292 9.170511455447828 -81.42579912541123
-9.522545551520892 3.287868292131325 -82.96278092811171
9.522545551520896 3.287868292131325 -77.03721907188829
0 3.287868292131325 -75.59257397392065
-9.52254555152088 3.287868292131325 -77.03721907188829
11.47919211251293 9.170511455447818 -78.57420087458877
6.36915271831791 13.24024265492224 -78.57420087458877
7.424446769931455e-15 14.69251959027037 -78.57420087458877
-6.369152718317896 13.24024265492224 -78.57420087458877
-11.47919211251292 9.170511455447828 -78.57420087458877
-9.219817753644943e-16 5.733280204404109 -75.59257397392066
-9.219817753644943e-16 5.733280204404109 -44.40742602607934
5.329070518200751e-15 3.287868292131325 -44.40742602607934
9.52254555152088 3.287868292131325 -42.96278092811171
11.47919211251293 9.170511455447818 -41.42579912541123
6.36915271831791 13.24024265492224 -41.42579912541123
7.424446769931455e-15 14.69251959027037 -41.42579912541123
-6.369152718317896 13.24024265492224 -41.42579912541123
-11.47919211251292 9.170511455447828 -41.42579912541123
-9.522545551520892 3.287868292131325 -42.96278092811171
9.522545551520896 3.287868292131325 -37.03721907188829
0 3.287868292131325 -35.59257397392066
-9.52254555152088 3.287868292131325 -37.03721907188829
11.47919211251293 9.170511455447818 -38.57420087458877
6.36915271831791 13.24024265492224 -38.57420087458877
7.424446769931455e-15 14.69251959027037 -38.57420087458877
-6.369152718317896 13.24024265492224 -38.57420087458877
-11.47919211251292 9.170511455447828 -38.57420087458877
-9.219817753644943e-16 5.733280204404109 -35.59257397392065
-4.136997387914254 0 -87.37347385723942
-3.507012156494523 0 -71.54688264258243
4.004957124177924 0 -47.52594082086348
3.005844347462341 0 -30.94582390738061
8.881784197001252e-16 0 -115.60720980571
-2.449263063852283 0 -99.23766518187961
2.725715589795203 0 -60.02763869588392
-2.817172188267773 0 -4.114445958393169
3.104800592772243 0 -19.29628698696035
3.522880361259774 0 -42.03497556720319
-3.790423141305809 0 -81.34587777410198
3.612654458751312 0 -93.3055695195595
2.150105276592528 0 -105.1697608441997
-3.348573931278659 0 -53.76297041043173
-3.104800592772251 0 -12.77777219217619
-2.445496650454325 0 -25.67322089713752
3.715298507194742 0 -5.668959496524906
3.012592577126713 0 -72.05766092040156
3.880168661344848 0 -79.3321894588438
-2.696629292278433 0 -32.75185900736854
-3.477312190276334 0 -39.55474788506015
2.091297194901838 0 -84.95542293737196
-2.148644585491607 0 -45.05101046964037
-0.1862129868085463 0 -66.01770690633407
3.377265801374649 0 -53.42179764624839
-3.872942398022853 0 -61.00755760036967
-10.49822423107313 0 -80.22431296235033
9.771093079550946 0 -40
10.51318181774631 0 -79.88869824314062
-10.44603907256822 0 -39.92579131417669
4.233029657956052 0 -25.50898707099349
-3.45765780236816 0 -19.28891605377586
3.525279825467522 0 -11.98628541131777
14.90807913775187 0 -40
-14.69361544388649 0 -80.03204470890719
14.69575224198265 0 -79.98409974902009
-14.68616042124293 0 -39.9893987591681
-3.432784824042945 0 -92.86370293077802
-3.887305403695078 0 -105.1697608441997
3.755835652927453 0 -99.23766518187963
-3.411006263996073 0 -110.9020808781409
3.738282129792946 0 -111.3562271198346
4.76625447626223 0 -66.17498038078406
-5.013233508265185 0 -66.20924126568454
3.462071349955098 0 -36.8796329409327
-1.714490317292609 0 -76.25827341855896
-0.7500515469708526 0 -8.292145610227088
4.702507165142148 0 -88.52036606904105
-4.566830834490452 0 -115.8227680412057
4.583869353117949 0 -115.8464116397945
-4.690091463892789 0 -48.71780050591013
-5.293639838755554 0 -7.174484764337812
-0.4532388026936749 0 -49.72314000775165
0.3085841720575893 0 -89.59389017379492
-12.57002634265591 3.992629948016498 -42.93016944132115
12.57002634269848 3.992629948030985 -42.9301694413062
-12.11564513299022 8.095415262474951 -42.47008176093066
0.2623756775131563 13.76282896361671 -42.73832875780267
-17.36896131679477 3.454901214449341 -40.03450740095119
17.36896131679477 3.454901214449355 -40.03450740095118
-14.72469440633921 9.838726252205609 -40.03450740095119
3.454901214449298 17.36896131679478 -40.03450740095118
-9.838726252205676 14.72469440633916 -40.03450740095119
9.838726252205612 14.7246944063392 -39.96549259904882
-3.454901214449411 17.36896131679476 -39.96549259904882
14.72469440633918 9.83872625220565 -40.03450740095118
-12.57002634265585 3.992629948016442 -37.06983055867882
12.57002634269847 3.992629948030983 -37.0698305586938
12.11564513299036 8.095415262475102 -37.5299182390694
5.26671730771708e-12 13.62955605581398 -37.21648589018052
8.749999999999998 15.00557877915866 -18.32153809180088
8.749999999999998 11.41176977480446 -28.04393012275316
8.749999999999998 5.047376102834761 -12.79806135411164
8.749999999999998 5.393307281077329 -26.6098307210328
8.749999999999998 15.48764781388858 -24.43444146079428
8.749999999999998 5.049836086099142 -19.43217333716431
8.749999999999998 15.07155851454163 -12.25172630778159
8.749999999999998 7.946777732351267 -32.36991852221689
8.749999999999998 10.01225725858786 -8.337877856856846
8.749999999999998 3.359535783371341 -32.04484244857501
8.749999999999998 10.10003131064311 -22.44906431602148
8.749999999999998 10.04777300864419 -15.59840687728946
8.749999999999998 4.345260005617853 -7.330890801150524
8.749999999999998 15.68342982129256 -7.104653924465381
10.25 3.10416666666666 -3
-10.25 3.104166666666674 -3
11.75 20.125 -1.5
11.75 14.37499999999999 -1.5
11.75 8.624999999999989 -1.5
11.75 2.874999999999994 -1.5
-2.707174061168086 4.878797530676509 0
3.157610638484556 18.22886740495932 0
7.069955745470661 8.71654637064 0
-6.619519168154191 14.39111856499582 0
7.102873022115111 14.37499999999999 0
0.1126091443291184 11.52691623390895 0
-7.000954855602266 8.644857627020135 0
-2.792058517349995 18.15992185565015 0
2.948495529093417 4.721447277005962 0
-7.528051718759411 18.81262893003678 0
7.528051718759418 4.187371069963205 0
7.820492259183634 19.07601590637069 0
-7.553981076842909 4.160878030182232 0
-11.75 20.125 -1.5
-11.75 14.37499999999999 -1.5
-11.75 8.624999999999988 -1.5
-11.75 2.874999999999994 -1.5
-8.750000000000002 15.00557877915865 -18.32153809180083
-8.750000000000002 11.41176977480446 -28.04393012275315
-8.750000000000002 5.047376102834768 -12.7980613541116
-8.750000000000002 5.393307281077329 -26.60983072103278
-8.750000000000002 15.48764781388857 -24.43444146079425
-8.750000000000002 5.049836086099141 -19.43217333716427
-8.750000000000002 15.07155851454164 -12.25172630778155
-8.750000000000002 7.946777732351265 -32.3699185222169
-8.750000000000002 10.0122572585879 -8.337877856856805
-8.750000000000002 3.35953578337134 -32.04484244857501
-8.750000000000002 10.10003131064311 -22.44906431602144
-8.750000000000002 10.0477730086442 -15.59840687728941
-8.750000000000002 4.345260005617876 -7.330890801150506
-8.750000000000002 15.68342982129258 -7.104653924465355
-8.750000000000002 11.4417884497237 -52.37837233775706
-8.750000000000002 11.44178844972369 -67.62162766224296
-8.750000000000002 4.315952103748852 -60
-8.750000000000002 15.61467612221658 -63.52315608994332
-8.750000000000002 15.72262164883955 -56.50281477248442
-8.750000000000002 5.316094354187141 -66.42569706195174
-8.750000000000002 5.316094354187144 -53.57430293804827
-8.750000000000002 7.998322466454099 -72.41013341314613
-8.750000000000002 7.998322466454113 -47.58986658685389
-8.750000000000002 3.352443512573043 -72.10470696890071
-8.750000000000002 3.352443512573045 -47.89529303109929
-8.750000000000002 10.31995916945869 -60.00189292000202
-12.57002634265586 3.992629948016436 -77.06983055867882
12.57002634269848 3.992629948030978 -77.06983055869379
12.11564513299037 8.095415262475104 -77.5299182390694
-0.2623756774964045 13.76282896354468 -77.26167124217325
-17.36896131679477 3.454901214449349 -80.0345074009512
17.36896131679477 3.454901214449356 -80.03450740095118
-14.72469440633921 9.838726252205609 -80.03450740095118
3.454901214449301 17.36896131679478 -79.96549259904882
-9.838726252205676 14.72469440633916 -79.96549259904883
9.838726252205612 14.7246944063392 -80.03450740095118
14.72469440633918 9.83872625220565 -80.03450740095118
-3.454901214449407 17.36896131679476 -80.03450740095118
-12.57002634265591 3.992629948016497 -82.93016944132117
12.57002634269848 3.992629948030986 -82.93016944130621
-12.11564513299022 8.095415262474956 -82.47008176093067
0.2623756775076698 13.76282896361916 -82.7383287578019
-8.750000000000002 11.92290227815878 -91.57577813411825
-8.750000000000002 4.890508644477084 -105.1582596627873
-8.750000000000002 14.65138263586169 -104.5631491021934
-8.750000000000002 5.137345541248688 -93.30556951955951
-8.750000000000002 11.73753283221106 -97.83012747009867
-8.750000000000002 9.430130053576484 -109.260071074324
-8.750000000000002 5.241109380539577 -99.44308653003755
-8.750000000000002 7.838673940361784 -87.61800593371953
-8.750000000000002 5.204519716638975 -114.7996965493581
-8.750000000000002 15.63248456365897 -94.23949818891933
-8.750000000000002 3.553865818563398 -87.93392831541937
-8.750000000000002 9.330457439609592 -102.8618797382117
-8.750000000000002 4.438824904706497 -109.8919832738934
5.529640427599611 3.207449002465261 -120
-5.529640427599611 3.207449002465261 -120
0 3.207449002465261 -120
8.749999999999998 11.92290227815878 -91.57577813411825
8.749999999999998 4.890508644477084 -105.1582596627873
8.749999999999998 14.65138263586169 -104.5631491021934
8.749999999999998 5.137345541248688 -93.30556951955951
8.749999999999998 11.73753283221106 -97.83012747009867
8.749999999999998 9.430130053576484 -109.260071074324
8.749999999999998 5.241109380539577 -99.44308653003755
8.749999999999998 7.838673940361782 -87.61800593371953
8.749999999999998 5.204519716638975 -114.7996965493581
8.749999999999998 15.63248456365897 -94.23949818891933
8.749999999999998 3.553865818563397 -87.93392831541937
8.749999999999998 9.330457439609592 -102.8618797382117
8.749999999999998 4.438824904706497 -109.8919832738934
8.749999999999998 11.44178844972369 -52.37837233775706
8.749999999999998 11.44178844972369 -67.62162766224296
8.749999999999998 4.315952103748852 -60
8.749999999999998 15.61467612221657 -63.52315608994332
8.749999999999998 15.72262164883955 -56.50281477248442
8.749999999999998 5.316094354187141 -66.42569706195174
8.749999999999998 5.316094354187141 -53.57430293804827
8.749999999999998 7.998322466454099 -72.41013341314613
8.749999999999998 7.998322466454102 -47.58986658685388
8.749999999999998 3.352443512573042 -47.89529303109929
8.749999999999998 3.352443512573043 -72.10470696890071
8.749999999999998 10.31995916945869 -60.00189292000203
-1.77635683940025e-15 16.9961819448553 -50.33222347383622
4.380172394297157 14.66461172755955 -48.05553336072582
-4.380172394297171 14.66461172755955 -48.05553336072583
-2.131628207280301e-14 13.07030996761098 -46.49875800510333
-4.959367812192767 17.63263012244207 -50.95369104220289
4.959367812192763 17.63263012244206 -50.95369104220288
3.552713678800501e-15 16.9961819448553 -29.66777652616378
-4.380172394297151 14.66461172755956 -31.94446663927417
4.380172394297171 14.66461172755956 -31.94446663927417
1.953992523340276e-14 13.07030996761099 -33.50124199489666
-4.959367812192765 17.63263012244207 -29.04630895779711
4.959367812192768 17.63263012244207 -29.04630895779712
-0.3152918561200053 20 -21.93625000616705
1.77635683940025e-15 20 -8.051814855409225
-4.031556174724206 20 -17.83416364422108
2.2197073056684 20 -16.0851175933539
-3.968172196708814 20 -12.17541355397515
4.832971045491263 20 -10.79656987669798
-4.497184311197076 20 -7.280388857801404
-4.497184311197082 20 -22.45427297295238
4.464216423243011 20 -22.45833752681877
5.049927542431588 20 -6.756410037959135
8.812499999999986 23 -1.5
2.937499999999966 23 -1.5
-8.812500000000007 23 -1.5
-2.937500000000027 23 -1.499999999999999
-3.552713678800501e-15 20 -58.31715302465544
0 20 -63.70422770338335
-5.833333333333332 20 -56.6326690846231
-4.375 20 -62.0205622456949
5.833333333333334 20 -56.6326690846231
4.375 20 -62.0205622456949
5.329070518200751e-15 16.9961819448553 -69.66777652616378
4.380172394297173 14.66461172755955 -71.94446663927417
-4.380172394297157 14.66461172755956 -71.94446663927417
2.131628207280301e-14 13.07030996761099 -73.50124199489666
-4.959367812192765 17.63263012244207 -69.04630895779711
4.959367812192768 17.63263012244207 -69.04630895779711
-5.329070518200751e-15 16.9961819448553 -90.33222347383622
4.380172394297152 14.66461172755955 -88.05553336072583
-4.380172394297171 14.66461172755955 -88.05553336072583
-3.019806626980426e-14 13.07030996761099 -86.49875800510334
-4.959367812192767 17.63263012244207 -90.95369104220289
4.959367812192762 17.63263012244207 -90.95369104220289
-3.552713678800501e-15 20 -98.31715302465544
0 20 -103.7042277033834
4.375 20 -102.0205622456949
4.958333333333332 20 -97.37367832176855
-5.833333333333332 20 -96.6326690846231
-4.375 20 -102.0205622456949
0 16.38554250128859 -110.2640428421129
-1.77635683940025e-15 10.02935550364194 -116.4706189886409
3.819793472151704 13.20744900246526 -113.3673309153769
-3.819793472151709 13.20744900246526 -113.3673309153769
-4.574345643382399 16.90560621520042 -109.7562202996617
4.574345643382399 16.90560621520041 -109.7562202996617
-4.574345643382395 9.509291789730106 -116.9784415310921
4.574345643382395 9.509291789730108 -116.9784415310921
4.667468557430954 8.49229806606564 -83.09049085551915
-4.999765019285322 8.009357904875735 -83.17323610260541
-0.5860505074731827 9.606680071750125 -83.11241845137238
2.348426281353618 3.287868292131325 -80.33983238894484
-6.792047693078283 3.287868292131325 -80.1561076950872
-11.1682425841317 3.287868292131325 -80.02230109929818
11.13212498076403 3.287868292131325 -80
6.85874835921248 3.287868292131325 -80.04045623677915
-2.306221089523188 3.287868292131325 -80.082656680672
9.153225186187397 11.49298049251905 -79.96054535994855
-3.266313466516966 14.32485002535554 -79.96054535994855
3.266313466516984 14.32485002535553 -80.03945464005145
13.2453078813967 6.358612351566106 -80
-9.126756692344003 11.51401077771046 -80
-13.23064225243561 6.389071724323037 -80.03945464005143
3.247938739240375 8.713498371886329 -76.77929171997737
-3.81188170733059 8.422413514668369 -76.76122559977364
4.667468557430949 8.492298066065644 -43.09049085551915
-4.999765019285317 8.009357904875737 -43.1732361026054
-0.5860505074731827 9.606680071750125 -43.11241845137238
2.348426281353618 3.287868292131325 -40.33983238894484
-6.716793384494153 3.287868292131325 -40.1561076950872
-11.21822536779401 3.287868292131325 -39.99999999999999
11.13212498076403 3.287868292131325 -40
6.85874835921248 3.287868292131325 -40.04045623677914
-2.293678704759166 3.287868292131325 -40.082656680672
9.153225186187399 11.49298049251905 -39.96054535994855
-3.266313466516966 14.32485002535554 -39.96054535994855
3.26631346651698 14.32485002535554 -40.03945464005144
13.23064225243562 6.389071724323029 -40.03945464005145
-9.126756692344003 11.51401077771046 -40
-13.23064225243562 6.389071724323031 -40.03945464005143
-4.667468557431157 8.492298066065301 -36.90950914448079
4.999765019285149 8.009357904875781 -36.82676389739458
0.5860505074730187 9.606680071750084 -36.8875815486276
-1.80839511100937e-15 11.2567293259042 -101.0106903640194
-0.579533730209338 9.200502646990291 -25.61116642100682
0.3168007828577775 9.013891418513825 -65.42005688878582
0.08228375106120289 8.745648257355313 -54.85465233138818
-3.552713678800501e-15 11.25204509438194 -11.96216466069307
-0.7449113728946307 7.488978195644071 -92.16383645833228
-1.77635683940025e-15 7.648927190237816 -108.5029499147714
1.412016327578663 13.02549573815186 -19.27966593462245
-2.286085759986755 13.9863593303189 -95.59615808499819
-1.474894036440111 13.90517541179975 -61.0106903640194
-2.104677504904933 6.822126493721893 -6.813469996545612
-3.154676551620525 6.05912262536588 -49.92801790185193
2.468633590769306 13.94709453745133 -5.738380660414761
-3.186190045768511 6.119649947984235 -70.20170644323804
-2.002928151499908 6.877843108371389 -17.41866793699679
2.286085759986756 14.34044323661817 -55.23353891008411
3.169073283206213 6.086774132788202 -49.86875419191171
3.184606538966644 6.116608538909928 -70.19518798540366
-3.372038772395369 5.806746171440422 -30.04003610659828
2.286085759986761 14.46721344638224 -24.89628712281521

CELLS 3011 13233
1 0
1 1
1 2
1 3
1 4
1 5
1 6
1 7
1 8
1 9
1 10
1 11
1 12
1 13
1 14
1 15
1 16
1 17
1 18
1 19
1 20
1 21
1 22
1 23
1 24
1 25
1 26
1 27
1 28
1 29
1 30
1 31
1 32
1 33
1 34
1 35
1 36
1 37
1 38
1 39
1 40
1 41
1 42
1 43
1 44
1 45
1 46
1 47
1 48
1 49
1 50
1 51
1 52
1 53
1 54
1 55
1 56
1 57
1 58
1 59
1 60
1 61
1 62
1 63
1 64
1 65
2 0 66
2 66 1
2 1 2
2 2 67
2 67 3
2 3 68
2 68 69
2 69 70
2 70 71
2 71 4
2 4 5
2 5 6
2 6 72
2 72 73
2 73 74
2 74 7
2 8 7
2 8 9
2 9 75
2 75 76
2 76 77
2 77 78
2 78 10
2 11 79
2 79 10
2 12 11
2 13 80
2 80 12
2 13 81
2 81 82
2 82 83
2 83 84
2 84 14
2 15 85
2 85 14
2 16 15
2 17 86
2 86 16
2 17 87
2 87 88
2 88 89
2 89 90
2 90 91
2 91 18
2 19 92
2 92 93
2 93 18
2 20 94
2 94 95
2 95 96
2 96 97
2 97 98
2 98 19
2 20 99
2 99 21
2 21 22
2 22 100
2 100 23
2 0 101
2 101 102
2 102 103
2 103 104
2 104 23
2 1 105
2 105 106
2 106 107
2 107 108
2 108 109
2 109 110
2 110 111
2 111 12
2 24 112
2 112 13
2 24 113
2 113 114
2 114 25
2 25 115
2 115 0
2 2 116
2 116 117
2 117 118
2 118 119
2 119 120
2 120 121
2 121 122
2 122 11
2 3 123
2 123 26
2 26 124
2 124 125
2 125 27
2 10 126
2 126 27
2 4 127
2 127 128
2 128 28
2 29 129
2 129 130
2 130 131
2 131 28
2 26 132
2 132 133
2 133 29
2 31 134
2 134 135
2 135 136
2 136 30
2 8 137
2 137 138
2 138 139
2 139 31
2 32 140
2 140 141
2 141 9
2 32 142
2 142 143
2 143 28
2 5 144
2 144 145
2 145 146
2 146 30
2 6 147
2 147 148
2 148 149
2 149 33
2 30 33
2 34 150
2 150 151
2 151 152
2 152 33
2 7 153
2 153 154
2 154 155
2 155 34
2 31 34
2 32 156
2 156 157
2 157 158
2 158 35
2 27 159
2 159 160
2 160 35
2 36 161
2 161 162
2 162 24
2 37 163
2 163 36
2 38 164
2 164 165
2 165 37
2 14 166
2 166 38
2 23 167
2 167 39
2 39 168
2 168 169
2 169 38
2 22 170
2 170 171
2 171 172
2 172 173
2 173 174
2 174 175
2 175 176
2 176 15
2 21 177
2 177 178
2 178 179
2 179 180
2 180 181
2 181 182
2 182 183
2 183 16
2 40 184
2 184 17
2 40 185
2 185 186
2 186 41
2 41 187
2 187 20
2 42 188
2 188 189
2 189 40
2 43 190
2 190 42
2 44 191
2 191 192
2 192 43
2 18 44
2 45 193
2 193 194
2 194 44
2 19 45
2 46 195
2 195 196
2 196 41
2 47 197
2 197 46
2 45 198
2 198 199
2 199 47
2 48 200
2 200 201
2 201 25
2 49 202
2 202 48
2 39 203
2 203 204
2 204 49
2 48 205
2 205 206
2 206 36
2 29 207
2 207 208
2 208 35
2 49 209
2 209 210
2 210 37
2 46 211
2 211 212
2 212 42
2 47 213
2 213 214
2 214 43
2 50 215
2 215 51
2 51 216
2 216 50
2 50 217
2 217 52
2 52 218
2 218 219
2 219 220
2 220 221
2 221 222
2 222 53
2 53 223
2 223 51
2 52 54
2 54 224
2 224 55
2 55 225
2 225 56
2 56 226
2 226 57
2 53 57
2 54 227
2 227 228
2 228 229
2 229 230
2 230 231
2 231 57
2 55 232
2 232 56
2 58 233
2 233 59
2 59 234
2 234 58
2 58 235
2 235 60
2 60 236
2 236 237
2 237 238
2 238 239
2 239 240
2 240 61
2 61 241
2 241 59
2 60 62
2 62 242
2 242 63
2 63 243
2 243 64
2 64 244
2 244 65
2 61 65
2 62 245
2 245 246
2 246 247
2 247 248
2 248 249
2 249 65
2 63 250
2 250 64
3 66 278 0
3 0 253 101
3 0 260 253
3 0 278 260
3 2 284 1
3 1 284 66
3 67 284 2
3 3 278 67
3 68 254 3
3 254 295 3
3 3 295 278
3 5 6 4
3 4 6 72
3 4 267 71
3 72 267 4
3 8 9 7
3 7 9 74
3 9 258 74
3 75 302 9
3 9 302 258
3 10 270 78
3 79 280 10
3 10 271 270
3 10 280 271
3 12 287 11
3 11 287 79
3 80 287 12
3 13 280 80
3 81 301 13
3 13 273 271
3 271 280 13
3 13 301 273
3 14 252 84
3 85 277 14
3 14 296 252
3 14 277 261
3 261 296 14
3 16 285 15
3 15 285 85
3 86 285 16
3 17 277 86
3 87 251 17
3 251 261 17
3 261 277 17
3 18 299 91
3 93 299 18
3 19 300 92
3 98 300 19
3 20 298 94
3 99 279 20
3 269 272 20
3 20 279 269
3 272 298 20
3 22 286 21
3 21 286 99
3 100 286 22
3 23 279 100
3 104 268 23
3 268 269 23
3 269 279 23
3 66 284 278
3 278 284 67
3 69 281 68
3 68 281 254
3 70 259 69
3 259 281 69
3 71 283 70
3 70 283 259
3 267 283 71
3 73 267 72
3 74 258 73
3 258 267 73
3 76 265 75
3 265 302 75
3 77 282 76
3 76 282 265
3 78 266 77
3 266 282 77
3 78 270 266
3 79 287 280
3 280 287 80
3 82 264 81
3 264 301 81
3 83 276 82
3 82 276 264
3 84 294 83
3 83 294 276
3 252 294 84
3 85 285 277
3 277 285 86
3 88 288 87
3 87 288 251
3 89 256 88
3 256 288 88
3 90 289 89
3 89 289 256
3 91 291 90
3 90 291 289
3 91 299 291
3 92 255 93
3 92 300 255
3 255 299 93
3 94 262 95
3 94 298 262
3 95 290 96
3 262 290 95
3 96 263 97
3 96 290 263
3 97 292 98
3 263 292 97
3 292 300 98
3 99 286 279
3 279 286 100
3 101 275 102
3 253 275 101
3 102 257 103
3 102 275 257
3 103 293 104
3 257 293 103
3 104 293 268
3 251 272 261
3 251 304 272
3 288 304 251
3 268 274 252
3 252 296 268
3 274 294 252
3 260 273 253
3 273 303 253
3 253 303 275
3 266 270 254
3 254 281 266
3 270 295 254
3 255 292 291
3 291 299 255
3 255 300 292
3 262 288 256
3 256 290 262
3 256 289 263
3 263 290 256
3 257 275 264
3 264 276 257
3 257 276 274
3 274 293 257
3 258 297 267
3 258 302 297
3 265 282 259
3 259 283 265
3 266 281 259
3 259 282 266
3 271 273 260
3 260 295 271
3 278 295 260
3 261 272 269
3 269 296 261
3 262 304 288
3 298 304 262
3 289 291 263
3 291 292 263
3 275 303 264
3 264 303 301
3 283 297 265
3 297 302 265
3 267 297 283
3 268 296 269
3 268 293 274
3 271 295 270
3 272 304 298
3 301 303 273
3 276 294 274
3 0 306 66
3 115 306 0
3 66 306 1
3 1 306 105
3 12 305 80
3 111 305 12
3 80 305 13
3 13 305 112
3 110 109 24
3 113 24 109
3 24 307 110
3 112 307 24
3 25 106 105
3 105 306 25
3 107 106 25
3 114 107 25
3 25 306 115
3 107 308 108
3 114 308 107
3 108 308 109
3 109 308 113
3 110 307 111
3 111 307 305
3 305 307 112
3 113 308 114
3 1 310 2
3 105 310 1
3 2 310 116
3 11 309 12
3 122 309 11
3 12 309 111
3 106 316 105
3 116 310 105
3 105 316 116
3 107 314 106
3 106 314 117
3 117 316 106
3 108 312 107
3 107 312 118
3 118 314 107
3 109 315 108
3 119 312 108
3 108 315 119
3 110 313 109
3 109 313 120
3 120 315 109
3 111 311 110
3 110 311 121
3 121 313 110
3 111 309 122
3 122 311 111
3 116 316 117
3 117 314 118
3 118 312 119
3 119 315 120
3 120 313 121
3 121 311 122
3 2 318 67
3 116 318 2
3 67 318 3
3 3 318 123
3 10 317 79
3 126 317 10
3 79 317 11
3 11 317 122
3 118 26 117
3 26 319 117
3 26 118 124
3 123 319 26
3 121 27 120
3 120 27 125
3 122 27 121
3 122 317 27
3 27 317 126
3 117 319 116
3 116 319 318
3 119 320 118
3 118 320 124
3 120 320 119
3 125 320 120
3 318 319 123
3 124 320 125
3 3 330 68
3 123 330 3
3 71 333 4
3 4 333 127
3 26 328 123
3 132 328 26
3 128 334 28
3 28 334 131
3 129 325 29
3 29 325 133
3 68 324 69
3 68 330 324
3 69 326 70
3 324 326 69
3 70 323 71
3 70 326 323
3 323 333 71
3 328 330 123
3 127 329 128
3 127 333 329
3 329 334 128
3 130 321 129
3 321 325 129
3 131 327 130
3 130 327 321
3 131 334 327
3 133 322 132
3 322 328 132
3 133 325 322
3 321 331 325
3 327 332 321
3 321 332 331
3 324 328 322
3 322 331 324
3 325 331 322
3 326 332 323
3 323 332 329
3 329 333 323
3 324 331 326
3 324 330 328
3 331 332 326
3 329 332 327
3 327 334 329
3 5 4 335
3 4 127 335
3 144 5 335
3 9 8 336
3 8 137 336
3 141 9 336
3 30 28 136
3 146 28 30
3 128 28 146
3 28 143 136
3 31 134 32
3 31 32 139
3 134 142 32
3 139 32 140
3 128 145 127
3 127 145 144
3 127 144 335
3 145 128 146
3 142 134 135
3 143 135 136
3 143 142 135
3 137 138 141
3 137 141 336
3 138 139 140
3 138 140 141
3 5 340 6
3 144 340 5
3 6 340 147
3 33 337 30
3 30 337 146
3 149 337 33
3 145 339 144
3 144 339 147
3 147 340 144
3 146 338 145
3 145 338 148
3 148 339 145
3 146 337 149
3 149 338 146
3 147 339 148
3 148 338 149
3 6 351 72
3 147 351 6
3 74 353 7
3 7 353 153
3 33 352 149
3 152 352 33
3 34 350 150
3 155 350 34
3 72 349 73
3 72 351 349
3 73 341 74
3 73 349 341
3 341 353 74
3 148 343 147
3 343 351 147
3 149 345 148
3 148 345 343
3 149 352 345
3 150 348 151
3 150 350 348
3 151 342 152
3 151 348 342
3 342 352 152
3 153 347 154
3 153 353 347
3 154 344 155
3 154 347 344
3 344 350 155
3 346 347 341
3 341 349 346
3 347 353 341
3 342 346 345
3 345 352 342
3 342 348 346
3 345 346 343
3 346 349 343
3 349 351 343
3 344 347 346
3 346 348 344
3 348 350 344
3 8 7 357
3 7 153 357
3 137 8 357
3 34 31 354
3 31 139 354
3 155 34 354
3 138 137 356
3 137 153 356
3 153 137 357
3 139 138 355
3 138 154 355
3 154 138 356
3 139 155 354
3 155 139 355
3 153 154 356
3 154 155 355
3 75 9 370
3 9 141 370
3 10 78 367
3 126 10 367
3 27 126 365
3 159 27 365
3 140 32 371
3 32 156 371
3 158 35 362
3 35 160 362
3 76 75 360
3 360 75 370
3 77 76 363
3 76 360 363
3 78 77 361
3 361 77 363
3 78 361 367
3 365 126 367
3 141 140 366
3 366 140 371
3 141 366 370
3 156 157 364
3 156 364 371
3 157 158 358
3 157 358 364
3 358 158 362
3 160 159 359
3 359 159 365
3 160 359 362
3 358 362 368
3 364 358 369
3 358 368 369
3 361 359 365
3 359 361 368
3 362 359 368
3 363 360 369
3 360 366 369
3 366 360 370
3 361 363 368
3 361 365 367
3 368 363 369
3 366 364 369
3 364 366 371
3 81 13 382
3 13 112 382
3 14 84 381
3 166 14 381
3 112 24 380
3 24 162 380
3 161 36 376
3 36 163 376
3 163 37 375
3 37 165 375
3 164 38 379
3 38 166 379
3 82 81 378
3 378 81 382
3 83 82 374
3 374 82 378
3 84 83 377
3 83 374 377
3 84 377 381
3 112 380 382
3 162 161 372
3 372 161 376
3 162 372 380
3 163 375 376
3 165 164 373
3 373 164 379
3 165 373 375
3 379 166 381
3 372 376 383
3 372 378 380
3 378 372 383
3 375 373 383
3 377 373 379
3 373 377 383
3 377 374 383
3 374 378 383
3 376 375 383
3 377 379 381
3 380 378 382
3 14 384 85
3 166 384 14
3 85 384 15
3 15 384 176
3 22 385 100
3 170 385 22
3 100 385 23
3 23 385 167
3 38 384 166
3 174 38 169
3 175 38 174
3 176 38 175
3 176 384 38
3 167 386 39
3 39 172 168
3 172 39 171
3 39 386 171
3 385 386 167
3 168 387 169
3 172 387 168
3 169 387 174
3 171 386 170
3 170 386 385
3 173 387 172
3 174 387 173
3 15 388 16
3 176 388 15
3 16 388 183
3 21 389 22
3 177 389 21
3 22 389 170
3 170 394 171
3 170 389 177
3 177 394 170
3 171 393 172
3 178 393 171
3 171 394 178
3 172 391 173
3 179 391 172
3 172 393 179
3 173 395 174
3 173 391 180
3 180 395 173
3 174 392 175
3 181 392 174
3 174 395 181
3 175 390 176
3 182 390 175
3 175 392 182
3 183 388 176
3 176 390 183
3 178 394 177
3 179 393 178
3 180 391 179
3 181 395 180
3 182 392 181
3 183 390 182
3 16 396 86
3 183 396 16
3 86 396 17
3 17 396 184
3 20 397 99
3 187 397 20
3 99 397 21
3 21 397 177
3 182 181 40
3 185 40 181
3 40 398 182
3 184 398 40
3 41 178 177
3 177 397 41
3 179 178 41
3 186 179 41
3 41 397 187
3 179 399 180
3 186 399 179
3 180 399 181
3 181 399 185
3 182 398 183
3 183 398 396
3 396 398 184
3 185 399 186
3 87 17 410
3 17 184 410
3 44 18 408
3 18 91 408
3 184 40 407
3 40 189 407
3 188 42 409
3 42 190 409
3 190 43 402
3 43 192 402
3 191 44 408
3 88 87 403
3 403 87 410
3 89 88 406
3 88 403 406
3 90 89 401
3 401 89 406
3 91 90 412
3 90 401 412
3 408 91 412
3 184 407 410
3 189 188 400
3 400 188 409
3 189 400 407
3 190 402 404
3 190 404 409
3 192 191 405
3 405 191 408
3 402 192 405
3 403 400 404
3 400 403 407
3 404 400 409
3 405 401 411
3 401 405 412
3 401 406 411
3 404 402 411
3 402 405 411
3 403 404 406
3 407 403 410
3 406 404 411
3 405 408 412
3 44 414 18
3 18 414 93
3 19 413 45
3 92 413 19
3 194 414 44
3 45 413 193
3 93 415 92
3 92 415 413
3 414 415 93
3 193 415 194
3 413 415 193
3 194 415 414
3 45 424 19
3 19 424 98
3 94 426 20
3 20 426 187
3 187 423 41
3 41 423 196
3 198 424 45
3 195 425 46
3 46 425 197
3 197 418 47
3 47 418 199
3 95 419 94
3 419 426 94
3 96 422 95
3 95 422 419
3 97 417 96
3 417 422 96
3 98 428 97
3 97 428 417
3 424 428 98
3 187 426 423
3 196 416 195
3 416 425 195
3 196 423 416
3 197 420 418
3 197 425 420
3 199 421 198
3 421 424 198
3 418 421 199
3 419 420 416
3 416 423 419
3 420 425 416
3 421 427 417
3 417 428 421
3 417 427 422
3 420 427 418
3 418 427 421
3 419 422 420
3 423 426 419
3 422 427 420
3 421 428 424
3 101 438 0
3 0 438 115
3 23 439 104
3 167 439 23
3 115 437 25
3 25 437 201
3 39 436 167
3 203 436 39
3 200 433 48
3 48 433 202
3 202 432 49
3 49 432 204
3 102 435 101
3 435 438 101
3 103 431 102
3 431 435 102
3 104 434 103
3 103 434 431
3 104 439 434
3 115 438 437
3 436 439 167
3 201 429 200
3 429 433 200
3 201 437 429
3 202 433 432
3 204 430 203
3 430 436 203
3 204 432 430
3 429 440 433
3 429 437 435
3 435 440 429
3 432 440 430
3 434 436 430
3 430 440 434
3 434 440 431
3 431 440 435
3 433 440 432
3 434 439 436
3 437 438 435
3 24 113 162
3 114 25 201
3 161 445 36
3 36 445 206
3 48 446 200
3 205 446 48
3 114 444 113
3 113 443 162
3 113 444 443
3 201 442 114
3 442 444 114
3 162 443 161
3 443 445 161
3 200 442 201
3 200 446 442
3 206 441 205
3 441 446 205
3 206 445 441
3 441 444 442
3 442 446 441
3 443 444 441
3 441 445 443
3 132 26 124
3 27 159 125
3 133 452 29
3 29 452 207
3 35 451 160
3 208 451 35
3 125 450 124
3 124 449 132
3 124 450 449
3 159 448 125
3 448 450 125
3 132 449 133
3 449 452 133
3 160 448 159
3 160 451 448
3 207 447 208
3 207 452 447
3 447 451 208
3 447 450 448
3 448 451 447
3 449 450 447
3 447 452 449
3 131 462 28
3 28 462 143
3 29 461 129
3 207 461 29
3 142 459 32
3 32 459 156
3 158 460 35
3 35 460 208
3 129 456 130
3 129 461 456
3 130 458 131
3 456 458 130
3 458 462 131
3 143 454 142
3 454 459 142
3 143 462 454
3 156 457 157
3 156 459 457
3 157 455 158
3 157 457 455
3 455 460 158
3 208 453 207
3 453 461 207
3 208 460 453
3 455 456 453
3 453 460 455
3 456 461 453
3 456 457 454
3 454 458 456
3 457 459 454
3 454 462 458
3 455 457 456
3 30 463 33
3 136 463 30
3 34 465 31
3 31 465 134
3 33 463 152
3 150 465 34
3 134 466 135
3 134 465 150
3 150 466 134
3 135 464 136
3 151 464 135
3 135 466 151
3 152 463 136
3 136 464 152
3 151 466 150
3 152 464 151
3 36 469 163
3 206 469 36
3 163 470 37
3 37 470 210
3 202 471 48
3 48 471 205
3 49 472 202
3 209 472 49
3 469 470 163
3 202 472 471
3 205 467 206
3 205 471 467
3 467 469 206
3 210 468 209
3 468 472 209
3 210 470 468
3 468 470 467
3 467 472 468
3 467 470 469
3 471 472 467
3 37 477 165
3 210 477 37
3 164 169 38
3 203 39 168
3 204 478 49
3 49 478 209
3 165 475 164
3 164 475 169
3 165 477 475
3 169 476 168
3 168 474 203
3 168 476 474
3 475 476 169
3 203 474 204
3 474 478 204
3 209 473 210
3 209 478 473
3 473 477 210
3 474 476 473
3 473 478 474
3 473 476 475
3 475 477 473
3 185 189 40
3 186 41 196
3 188 483 42
3 42 483 212
3 46 484 195
3 211 484 46
3 186 482 185
3 185 481 189
3 185 482 481
3 196 480 186
3 480 482 186
3 189 481 188
3 481 483 188
3 195 480 196
3 195 484 480
3 212 479 211
3 479 484 211
3 212 483 479
3 479 482 480
3 480 484 479
3 481 482 479
3 479 483 481
3 42 489 190
3 212 489 42
3 190 490 43
3 43 490 214
3 197 488 46
3 46 488 211
3 47 487 197
3 213 487 47
3 489 490 190
3 487 488 197
3 211 485 212
3 211 488 485
3 485 489 212
3 214 486 213
3 486 487 213
3 214 490 486
3 485 487 486
3 486 490 485
3 485 488 487
3 485 490 489
3 43 495 192
3 214 495 43
3 191 497 44
3 44 497 194
3 193 498 45
3 45 498 198
3 199 496 47
3 47 496 213
3 192 494 191
3 494 497 191
3 192 495 494
3 194 492 193
3 492 498 193
3 194 497 492
3 198 493 199
3 198 498 493
3 493 496 199
3 213 491 214
3 213 496 491
3 491 495 214
3 493 494 491
3 491 496 493
3 494 495 491
3 492 494 493
3 493 498 492
3 492 497 494
3 215 216 50
3 216 215 51
3 215 50 499
3 50 217 499
3 51 215 500
3 223 51 500
3 52 218 217
3 222 53 223
3 215 499 501
3 500 215 501
3 217 218 499
3 218 219 499
3 219 220 501
3 499 219 501
3 220 221 501
3 221 222 500
3 221 500 501
3 222 223 500
3 216 502 50
3 50 506 217
3 502 506 50
3 51 507 216
3 223 503 51
3 503 507 51
3 52 505 54
3 217 505 52
3 57 504 53
3 53 504 223
3 54 505 224
3 224 506 55
3 55 502 225
3 55 506 502
3 225 507 56
3 56 503 226
3 56 507 503
3 226 504 57
3 216 507 502
3 217 506 505
3 223 504 503
3 505 506 224
3 502 507 225
3 503 504 226
3 52 54 511
3 218 52 511
3 57 53 513
3 53 222 513
3 54 227 511
3 231 57 513
3 219 218 508
3 218 227 508
3 227 218 511
3 220 219 510
3 228 219 508
3 219 228 510
3 221 220 509
3 220 229 509
3 229 220 510
3 222 221 512
3 230 221 509
3 221 230 512
3 231 222 512
3 222 231 513
3 227 228 508
3 228 229 510
3 229 230 509
3 230 231 512
3 54 224 227
3 224 55 514
3 55 232 514
3 56 226 515
3 232 56 515
3 231 226 57
3 227 224 514
3 226 231 515
3 228 227 514
3 229 228 514
3 230 229 515
3 229 514 515
3 231 230 515
3 514 232 515
3 225 232 55
3 232 225 56
3 233 234 58
3 234 233 59
3 233 58 516
3 58 235 516
3 59 233 517
3 241 59 517
3 60 236 235
3 240 61 241
3 233 516 518
3 517 233 518
3 235 236 516
3 236 237 516
3 237 238 518
3 516 237 518
3 238 239 518
3 239 240 517
3 239 517 518
3 240 241 517
3 234 519 58
3 58 523 235
3 519 523 58
3 59 524 234
3 241 520 59
3 520 524 59
3 60 522 62
3 235 522 60
3 65 521 61
3 61 521 241
3 62 522 242
3 242 523 63
3 63 519 243
3 63 523 519
3 243 524 64
3 64 520 244
3 64 524 520
3 244 521 65
3 234 524 519
3 235 523 522
3 241 521 520
3 522 523 242
3 519 524 243
3 520 521 244
3 60 62 528
3 236 60 528
3 65 61 530
3 61 240 530
3 62 245 528
3 249 65 530
3 237 236 525
3 236 245 525
3 245 236 528
3 238 237 527
3 246 237 525
3 237 246 527
3 239 238 526
3 238 247 526
3 247 238 527
3 240 239 529
3 248 239 526
3 239 248 529
3 249 240 529
3 240 249 530
3 245 246 525
3 246 247 527
3 247 248 526
3 248 249 529
3 62 242 245
3 242 63 532
3 63 250 532
3 64 244 531
3 250 64 531
3 249 244 65
3 245 242 532
3 244 249 531
3 246 245 532
3 247 246 533
3 246 532 533
3 248 247 533
3 249 248 531
3 531 248 533
3 250 531 533
3 532 250 533
3 243 250 63
3 250 243 64
4 254 63 250 328
4 289 401 406 534
4 384 57 15 176
4 317 65 11 122
4 105 1 60 306
4 177 21 52 397
4 401 534 289 540
4 290 422 534 539
4 497 255 492 540
4 245 246 532 26
4 500 222 221 40
4 517 240 239 24
4 305 61 12 80
4 53 16 396 86
4 67 2 62 318
4 100 22 54 385
4 11 65 317 79
4 384 15 57 85
4 66 60 1 306
4 99 52 21 397
4 392 231 512 230
4 250 254 328 535
4 478 209 473 543
4 125 124 250 533
4 114 113 233 518
4 186 185 215 501
4 498 492 255 292
4 497 255 194 492
4 498 255 492 193
4 484 480 479 542
4 193 498 255 300
4 194 299 255 497
4 401 411 406 534
4 427 417 422 534
4 484 416 480 542
4 426 298 50 539
4 371 459 142 546
4 300 498 255 292
4 323 333 538 544
4 254 330 63 328
4 374 276 536 537
4 214 491 486 534
4 486 491 213 534
4 254 535 250 552
4 328 124 250 535
4 314 236 525 237
4 478 473 536 543
4 432 209 478 543
4 214 495 491 534
4 213 491 496 534
4 140 371 142 546
4 426 50 423 539
4 362 451 208 553
4 323 283 333 544
4 492 255 292 540
4 445 441 443 537
4 299 291 255 497
4 393 218 508 219
4 371 140 544 546
4 496 534 491 540
4 491 534 495 540
4 449 328 322 535
4 492 292 498 540
4 124 450 250 535
4 358 362 460 541
4 484 425 416 542
4 124 449 450 535
4 459 371 538 546
4 250 535 450 552
4 215 423 50 539
4 406 256 289 534
4 417 534 427 540
4 411 534 401 540
4 329 323 333 538
4 445 537 376 549
4 358 455 364 538
4 255 415 194 492
4 255 415 492 193
4 371 544 538 546
4 486 213 487 534
4 486 490 214 534
4 432 478 536 543
4 324 328 254 535
4 417 263 534 540
4 477 475 473 536
4 362 460 541 553
4 425 484 211 542
4 206 445 376 549
4 329 538 333 544
4 323 538 283 544
4 290 534 256 539
4 418 534 496 540
4 402 495 534 540
4 371 364 459 538
4 374 536 383 537
4 497 291 255 540
4 362 535 451 553
4 441 537 445 549
4 358 368 362 541
4 248 249 531 27
4 236 516 237 25
4 219 218 499 41
4 371 366 538 544
4 358 455 538 541
4 290 419 422 539
4 215 50 298 539
4 477 536 473 543
4 124 328 449 535
4 460 362 208 553
4 324 330 254 328
4 371 140 366 544
4 473 209 468 543
4 326 541 535 548
4 359 451 362 535
4 213 496 418 534
4 495 214 402 534
4 416 539 480 542
4 211 488 425 542
4 532 250 63 328
4 368 535 362 541
4 331 535 326 541
4 323 283 538 548
4 372 376 445 537
4 324 281 326 535
4 329 333 127 544
4 431 440 536 537
4 362 541 535 553
4 418 496 421 540
4 402 405 495 540
4 420 534 422 539
4 478 473 474 536
4 344 140 142 546
4 328 324 322 535
4 431 536 257 537
4 406 256 534 539
4 418 427 534 540
4 402 534 411 540
4 432 472 209 543
4 332 323 538 548
4 468 209 472 543
4 364 455 457 538
4 335 340 5 144
4 336 137 8 357
4 514 224 167 55
4 51 215 216 539
4 333 283 267 544
4 332 326 323 548
4 418 421 427 540
4 402 411 405 540
4 248 533 125 531
4 237 518 114 516
4 219 501 186 499
4 213 418 487 534
4 402 214 490 534
4 388 53 16 183
4 309 61 12 111
4 383 537 536 543
4 127 329 544 546
4 283 544 538 548
4 488 485 534 542
4 372 445 443 537
4 376 469 206 543
4 499 423 50 215
4 324 326 331 535
4 485 487 488 534
4 424 498 300 292
4 263 256 290 534
4 257 536 276 537
4 459 364 457 538
4 373 475 477 536
4 358 364 369 538
4 448 451 359 535
4 448 447 451 535
4 120 247 526 315
4 455 358 460 541
4 478 430 432 536
4 498 292 424 540
4 420 539 416 542
4 419 298 426 539
4 127 544 349 546
4 410 407 51 539
4 291 299 408 497
4 488 534 420 542
4 477 473 210 543
4 443 441 444 537
4 226 515 166 56
4 484 479 211 542
4 373 536 477 543
4 368 541 358 548
4 346 544 140 546
4 259 326 281 535
4 451 535 447 553
4 416 423 480 539
4 259 326 535 548
4 537 543 376 549
4 276 274 294 536
4 488 420 425 542
4 534 539 420 542
4 228 171 172 39
4 406 534 404 539
4 297 267 283 544
4 420 422 419 539
4 206 376 543 549
4 324 254 281 535
4 410 51 251 539
4 216 304 251 539
4 431 434 293 536
4 290 262 419 539
4 423 215 186 539
4 487 420 488 534
4 116 2 62 310
4 170 22 54 389
4 251 51 216 539
4 423 419 426 539
4 332 541 326 548
4 500 215 51 539
4 408 291 497 540
4 181 220 395 509
4 532 124 250 328
4 142 348 344 546
4 364 371 366 538
4 435 431 275 537
4 469 467 206 543
4 412 401 289 540
4 26 118 117 246
4 247 118 527 312
4 206 441 445 549
4 475 476 473 536
4 40 181 182 221
4 24 109 110 239
4 478 474 430 536
4 229 230 515 169
4 109 238 315 526
4 424 292 428 540
4 536 537 440 543
4 472 543 432 549
4 425 420 416 542
4 423 186 480 539
4 235 58 516 115
4 217 50 499 187
4 244 64 531 126
4 431 293 257 536
4 404 539 534 542
4 451 447 208 553
4 402 534 490 542
4 480 186 482 539
4 105 60 1 310
4 177 52 21 389
4 323 326 259 548
4 343 127 349 546
4 255 415 193 300
4 538 544 329 546
4 299 255 415 194
4 407 500 51 539
4 344 346 140 546
4 488 211 485 542
4 332 538 541 548
4 460 453 541 553
4 257 275 431 537
4 323 259 283 548
4 473 476 474 536
4 266 535 363 548
4 374 264 276 537
4 485 486 487 534
4 490 486 485 534
4 282 266 363 548
4 405 494 495 540
4 493 421 496 540
4 294 536 274 547
4 373 477 375 543
4 458 538 327 546
4 535 541 368 548
4 215 499 423 186
4 174 229 509 395
4 360 538 544 548
4 417 427 421 540
4 405 411 401 540
4 281 535 254 552
4 479 482 481 542
4 408 412 291 540
4 266 361 363 535
4 369 368 358 548
4 432 536 440 543
4 283 265 544 548
4 458 456 327 538
4 444 443 537 545
4 494 491 495 540
4 493 496 491 540
4 467 206 543 549
4 9 141 336 353
4 377 536 294 547
4 449 535 322 553
4 210 473 468 543
4 127 4 335 351
4 440 543 537 549
4 362 368 359 535
4 361 368 363 535
4 454 459 538 546
4 363 535 368 548
4 297 283 265 544
4 444 537 442 550
4 498 193 424 300
4 376 537 383 543
4 229 172 510 391
4 456 538 455 541
4 441 444 537 549
4 309 11 65 122
4 388 15 57 176
4 327 332 538 541
4 472 432 433 549
4 447 448 450 535
4 169 229 514 515
4 324 331 322 535
4 432 543 440 549
4 383 374 377 536
4 246 118 117 314
4 360 538 366 544
4 420 419 416 539
4 442 537 444 549
4 475 476 536 547
4 327 538 456 541
4 239 109 110 313
4 416 419 423 539
4 63 250 243 254
4 455 456 457 538
4 428 263 417 540
4 477 210 375 543
4 229 174 509 230
4 453 455 460 541
4 410 251 288 539
4 304 298 262 539
4 493 498 421 540
4 497 494 405 540
4 441 442 444 549
4 349 544 346 546
4 327 321 332 541
4 487 418 420 534
4 332 323 329 538
4 360 369 366 538
4 360 369 538 548
4 193 413 424 300
4 406 403 256 539
4 303 275 545 550
4 393 228 171 172
4 248 121 27 120
4 331 326 332 541
4 372 383 376 537
4 449 447 450 553
4 378 264 374 537
4 59 241 517 112
4 51 223 500 184
4 63 242 532 123
4 532 246 533 124
4 517 239 518 113
4 500 221 501 185
4 476 474 536 551
4 276 257 274 536
4 407 400 481 539
4 402 490 404 542
4 117 245 246 525
4 118 247 527 246
4 331 322 535 553
4 490 534 485 542
4 460 208 453 553
4 247 248 120 526
4 181 221 220 509
4 239 238 109 526
4 327 456 321 541
4 448 450 535 552
4 421 428 417 540
4 412 405 401 540
4 406 404 403 539
4 243 254 250 552
4 281 266 259 535
4 259 535 266 548
4 459 457 454 538
4 289 291 412 540
4 17 184 396 223
4 274 257 293 536
4 236 60 235 306
4 218 52 217 397
4 244 249 65 317
4 420 427 422 534
4 411 404 406 534
4 185 407 481 539
4 447 535 450 553
4 482 539 481 542
4 378 374 383 537
4 290 256 262 539
4 462 334 28 143
4 449 450 535 553
4 122 311 121 249
4 140 346 347 544
4 221 181 182 392
4 334 458 327 546
4 281 266 535 552
4 402 404 534 542
4 288 256 403 539
4 348 346 344 546
4 537 549 442 550
4 343 349 346 546
4 372 537 443 545
4 360 544 265 548
4 359 448 535 552
4 440 431 435 537
4 431 440 434 536
4 240 239 110 529
4 222 221 182 512
4 490 489 404 542
4 334 143 462 546
4 327 538 329 546
4 228 229 172 510
4 482 186 215 539
4 373 475 536 547
4 262 298 419 539
4 291 292 255 540
4 364 366 369 538
4 329 327 332 538
4 282 259 266 548
4 428 292 263 540
4 185 481 482 539
4 432 440 433 549
4 185 215 500 539
4 383 536 373 543
4 498 493 492 540
4 492 494 497 540
4 430 440 432 536
4 251 304 288 539
4 433 471 472 549
4 293 274 536 551
4 114 107 308 237
4 186 179 399 219
4 429 442 549 550
4 537 545 275 550
4 115 0 306 235
4 535 541 331 553
4 403 407 410 539
4 403 410 288 539
4 444 545 537 550
4 232 476 547 551
4 413 193 415 300
4 415 414 299 194
4 264 257 276 537
4 293 536 434 551
4 185 500 407 539
4 171 228 508 227
4 390 176 231 175
4 401 89 289 406
4 458 454 456 538
4 359 365 448 552
4 141 366 140 544
4 33 352 152 463
4 454 538 458 546
4 470 375 210 543
4 233 545 444 550
4 150 34 465 350
4 467 543 472 549
4 229 169 514 387
4 248 121 120 313
4 329 127 128 546
4 400 539 404 542
4 400 481 539 542
4 377 373 383 536
4 303 275 264 545
4 430 536 474 551
4 126 10 317 244
4 334 462 458 546
4 13 112 305 241
4 435 537 275 550
4 281 254 266 552
4 96 422 417 290
4 226 231 57 384
4 125 120 320 248
4 536 547 476 551
4 343 128 127 546
4 266 363 77 282
4 185 482 215 539
4 459 454 142 546
4 347 141 140 544
4 357 153 7 353
4 157 455 364 358
4 340 351 6 147
4 3 123 318 242
4 402 404 411 534
4 418 427 420 534
4 236 60 105 528
4 363 360 76 548
4 440 537 429 549
4 371 142 32 140
4 334 128 28 143
4 352 33 149 337
4 363 76 282 548
4 334 327 329 546
4 258 267 297 544
4 361 535 266 552
4 435 102 275 431
4 187 20 397 217
4 275 257 264 537
4 249 248 529 121
4 321 461 325 553
4 34 354 350 155
4 429 549 537 550
4 359 368 361 535
4 77 361 363 266
4 95 419 422 290
4 467 472 471 549
4 349 267 258 544
4 276 294 83 374
4 378 383 372 537
4 334 128 143 546
4 140 344 347 346
4 197 488 487 420
4 404 400 403 539
4 370 141 258 544
4 490 485 489 542
4 448 125 450 552
4 348 466 150 151
4 288 262 256 539
4 70 259 323 326
4 429 440 435 537
4 218 52 177 511
4 344 355 154 155
4 125 250 450 552
4 259 323 283 70
4 469 376 470 543
4 489 404 190 490
4 464 151 342 152
4 457 456 454 538
4 459 142 32 371
4 257 275 102 431
4 302 370 258 544
4 263 96 417 290
4 383 373 375 543
4 341 258 353 141
4 359 535 361 552
4 321 541 461 553
4 275 537 264 545
4 272 304 216 298
4 430 434 440 536
4 302 75 370 360
4 464 143 135 136
4 135 466 134 142
4 470 210 468 543
4 400 407 403 539
4 9 258 302 370
4 157 455 457 364
4 324 281 69 326
4 373 536 377 547
4 65 249 530 122
4 448 365 125 552
4 415 194 492 193
4 142 143 348 546
4 452 449 322 553
4 212 211 479 542
4 232 168 476 551
4 444 113 443 545
4 232 476 169 547
4 377 83 294 374
4 467 468 472 543
4 124 125 320 533
4 23 167 385 224
4 371 156 459 364
4 360 366 370 544
4 444 442 114 550
4 375 470 376 543
4 233 113 444 545
4 166 14 384 226
4 403 256 88 406
4 393 228 508 171
4 321 327 130 456
4 349 127 351 267
4 332 321 331 541
4 233 444 114 550
4 476 168 474 551
4 97 417 428 263
4 475 169 476 547
4 378 264 537 545
4 343 147 339 148
4 469 470 467 543
4 485 211 212 542
4 380 372 443 545
4 272 216 50 298
4 341 258 141 544
4 265 76 360 548
4 265 282 76 548
4 140 142 32 344
4 341 349 258 544
4 338 148 149 345
4 437 442 429 550
4 225 252 268 547
4 401 289 90 412
4 89 256 289 406
4 322 325 452 553
4 274 547 536 551
4 378 537 372 545
4 303 545 234 550
4 191 405 408 497
4 498 198 421 424
4 185 186 399 501
4 113 114 308 518
4 436 430 474 551
4 373 379 475 547
4 289 263 291 540
4 400 483 481 542
4 153 356 154 347
4 82 276 374 264
4 288 256 88 403
4 262 288 304 539
4 443 113 380 545
4 493 491 494 540
4 117 246 314 525
4 437 114 442 550
4 302 297 265 544
4 461 321 456 541
4 339 144 127 145
4 138 356 137 141
4 274 268 252 547
4 474 168 436 551
4 68 324 330 254
4 475 379 169 547
4 405 402 495 192
4 418 496 199 421
4 350 32 142 344
4 225 547 268 551
4 239 110 529 313
4 429 537 435 550
4 404 402 190 490
4 418 197 487 420
4 136 28 30 463
4 32 31 465 134
4 57 231 513 176
4 290 95 419 262
4 479 481 483 542
4 493 494 492 540
4 486 214 213 491
4 246 247 533 124
4 239 238 518 113
4 221 220 501 185
4 130 327 458 456
4 128 345 143 546
4 221 182 512 392
4 273 234 303 545
4 460 158 362 358
4 73 258 349 267
4 497 191 405 494
4 493 498 198 421
4 294 252 84 547
4 234 253 303 550
4 274 268 547 551
4 291 263 292 540
4 206 205 441 549
4 273 59 234 545
4 374 378 82 264
4 206 467 205 549
4 452 325 322 133
4 362 160 451 359
4 288 251 410 87
4 292 97 428 263
4 140 355 139 138
4 145 338 146 128
4 470 163 376 469
4 433 471 202 472
4 519 243 524 295
4 431 103 293 434
4 331 325 322 553
4 283 259 265 548
4 415 413 300 92
4 470 163 375 376
4 202 432 433 472
4 369 363 368 548
4 216 507 261 502
4 414 299 93 415
4 426 419 94 298
4 34 354 465 350
4 349 341 346 544
4 429 442 446 549
4 434 536 430 551
4 453 456 455 541
4 354 31 32 139
4 30 28 146 337
4 156 457 459 364
4 447 207 208 553
4 489 409 404 542
4 143 342 348 546
4 449 322 328 132
4 448 159 365 359
4 103 293 257 431
4 524 234 519 260
4 84 252 381 547
4 253 438 101 550
4 341 347 346 544
4 324 68 281 254
4 210 37 477 375
4 478 432 49 209
4 281 259 69 326
4 243 270 254 552
4 495 494 405 192
4 493 199 496 421
4 289 291 90 412
4 87 410 288 403
4 160 448 451 359
4 133 322 452 449
4 375 376 383 543
4 489 212 483 542
4 378 382 81 301
4 234 545 233 550
4 265 259 282 548
4 452 461 207 553
4 283 71 333 267
4 71 333 323 283
4 207 452 29 461
4 452 325 29 461
4 225 232 547 551
4 481 407 185 189
4 196 480 423 186
4 208 207 453 553
4 454 143 142 546
4 275 253 101 550
4 446 442 441 549
4 325 461 452 553
4 158 460 455 358
4 234 524 273 260
4 294 274 252 547
4 454 458 462 546
4 273 303 301 545
4 433 440 429 549
4 73 258 341 349
4 72 351 4 267
4 481 400 407 189
4 196 480 416 423
4 248 529 121 313
4 143 345 352 342
4 367 365 64 126
4 496 47 213 418
4 495 43 402 214
4 268 104 439 551
4 449 328 124 132
4 159 448 365 125
4 377 294 84 547
4 273 301 59 545
4 330 123 63 328
4 75 302 265 360
4 234 58 253 550
4 409 483 400 542
4 343 345 128 546
4 187 50 423 426
4 490 402 43 214
4 487 213 47 418
4 51 410 184 407
4 360 363 369 548
4 74 258 9 353
4 349 351 72 267
4 433 429 446 549
4 452 447 449 553
4 233 234 59 545
4 268 293 104 551
4 489 485 212 542
4 300 255 415 92
4 436 474 203 168
4 169 379 475 164
4 114 437 442 201
4 380 443 162 113
4 255 93 299 415
4 382 301 378 545
4 56 166 381 379
4 438 58 115 437
4 241 240 112 307
4 223 222 184 398
4 242 245 123 319
4 345 342 143 546
4 461 456 453 541
4 461 541 453 553
4 234 233 58 550
4 381 377 84 547
4 471 433 446 549
4 471 446 205 549
4 59 380 382 112
4 488 197 425 420
4 194 44 414 497
4 33 352 463 337
4 343 346 345 546
4 252 225 56 547
4 348 342 346 546
4 435 101 438 550
4 434 439 104 551
4 272 216 261 502
4 531 64 365 126
4 270 271 243 295
4 141 370 366 544
4 302 258 297 544
4 489 483 409 542
4 56 225 232 547
4 531 64 250 552
4 499 50 423 187
4 291 299 91 408
4 435 275 101 550
4 367 64 365 552
4 531 365 64 552
4 468 467 470 543
4 517 233 59 545
4 359 361 365 552
4 98 424 413 300
4 203 474 436 430
4 379 373 475 164
4 437 429 442 201
4 380 162 443 372
4 472 49 432 209
4 37 210 470 375
4 382 380 59 545
4 78 270 367 552
4 479 483 212 542
4 64 243 250 552
4 516 115 58 437
4 532 63 123 328
4 293 268 274 551
4 128 334 329 546
4 471 205 467 549
4 434 104 293 551
4 412 291 91 408
4 299 91 408 414
4 55 436 439 167
4 516 58 233 550
4 438 58 437 550
4 98 413 19 300
4 461 321 129 456
4 4 351 340 335
4 517 59 380 545
4 516 437 58 550
4 269 507 296 502
4 131 334 462 458
4 55 232 225 551
4 190 409 404 489
4 56 379 381 547
4 300 98 424 292
4 44 408 414 497
4 500 51 184 407
4 341 141 347 544
4 517 380 59 112
4 357 9 336 353
4 382 59 301 545
4 327 334 131 458
4 303 253 275 550
4 269 261 507 502
4 139 355 140 155
4 91 299 18 414
4 98 428 424 292
4 524 271 519 295
4 271 524 243 295
4 400 483 188 481
4 484 195 480 416
4 166 56 515 379
4 503 56 14 261
4 266 254 270 552
4 353 74 258 341
4 429 446 200 433
4 161 376 445 372
4 321 130 129 456
4 514 436 55 167
4 531 125 365 552
4 478 204 432 430
4 375 477 373 165
4 361 266 78 552
4 55 439 436 551
4 367 361 78 552
4 476 232 169 168
4 350 142 348 344
4 325 321 129 461
4 97 96 417 263
4 252 56 381 547
4 380 113 517 545
4 367 270 64 552
4 473 210 468 209
4 271 524 519 260
4 262 94 419 298
4 455 157 158 358
4 301 81 378 264
4 165 477 373 475
4 478 474 204 430
4 78 266 270 552
4 438 253 58 550
4 200 446 429 442
4 445 443 161 372
4 515 379 56 547
4 125 124 450 250
4 186 185 482 215
4 114 113 444 233
4 271 59 13 520
4 361 77 78 266
4 225 296 507 502
4 114 437 516 550
4 304 216 251 272
4 234 273 303 253
4 436 514 55 551
4 64 270 243 552
4 89 289 90 401
4 225 269 55 268
4 55 225 268 551
4 424 413 19 98
4 10 64 270 271
4 330 63 3 254
4 256 89 88 406
4 269 272 261 502
4 96 95 422 290
4 48 446 471 433
4 323 71 283 70
4 408 91 18 414
4 524 271 273 260
4 158 35 460 362
4 55 268 439 551
4 446 441 205 549
4 345 346 342 546
4 378 301 264 545
4 270 64 10 367
4 73 349 72 267
4 10 270 367 78
4 76 77 363 282
4 515 56 232 547
4 56 503 507 261
4 483 409 400 188
4 195 484 425 416
4 261 251 216 272
4 271 519 295 260
4 71 4 333 267
4 23 55 269 268
4 462 143 454 546
4 101 102 275 435
4 250 125 531 552
4 269 20 50 506
4 451 35 160 362
4 273 59 13 271
4 291 91 90 412
4 138 356 141 347
4 29 325 452 133
4 339 127 343 145
4 156 157 457 364
4 514 387 169 168
4 198 199 493 421
4 494 191 405 192
4 281 69 68 324
4 517 113 233 545
4 296 261 507 269
4 3 68 330 254
4 380 378 372 545
4 14 277 503 261
4 429 435 437 550
4 436 434 430 551
4 379 373 377 547
4 271 13 280 520
4 447 452 207 553
4 261 56 14 296
4 515 169 379 547
4 407 500 185 189
4 19 45 413 424
4 18 44 408 414
4 156 459 32 371
4 338 149 146 345
4 23 268 104 439
4 496 199 47 418
4 495 402 43 192
4 204 432 49 478
4 37 477 375 165
4 351 6 4 340
4 356 138 154 347
4 200 446 48 433
4 376 36 161 445
4 223 396 17 86
4 55 514 232 551
4 458 131 327 130
4 251 216 51 261
4 148 339 343 145
4 355 344 140 155
4 357 7 9 353
4 273 234 260 253
4 296 269 225 268
4 75 265 76 360
4 328 532 124 132
4 271 10 64 520
4 367 365 361 552
4 143 135 142 151
4 409 400 404 542
4 233 114 516 550
4 271 64 270 243
4 272 20 50 269
4 207 461 453 553
4 28 334 462 131
4 288 88 87 403
4 268 23 55 439
4 252 14 56 296
4 301 303 264 545
4 271 280 10 520
4 142 348 143 151
4 517 380 162 113
4 524 273 59 234
4 146 28 128 352
4 17 51 410 184
4 382 378 380 545
4 392 38 231 230
4 438 437 435 550
4 506 269 20 279
4 434 436 439 551
4 381 379 377 547
4 377 83 84 294
4 255 93 415 92
4 20 50 426 298
4 523 295 260 278
4 98 97 428 292
4 64 271 524 243
4 514 436 168 551
4 410 51 17 251
4 14 56 381 252
4 83 276 374 82
4 159 448 160 359
4 449 133 322 132
4 103 257 102 431
4 254 270 243 295
4 465 354 32 350
4 17 410 251 87
4 259 70 69 326
4 252 296 225 268
4 515 232 169 547
4 514 168 232 551
4 75 9 302 370
4 224 227 167 386
4 197 487 47 418
4 190 402 43 490
4 407 40 500 189
4 84 14 381 252
4 306 0 66 235
4 514 39 436 167
4 37 470 163 375
4 49 432 202 472
4 345 146 338 128
4 81 82 378 264
4 59 13 301 273
4 307 24 110 240
4 398 222 40 182
4 26 117 319 245
4 101 253 0 438
4 328 26 532 132
4 241 61 305 80
4 223 53 396 86
4 242 62 318 67
4 314 25 236 237
4 63 3 254 295
4 393 41 218 219
4 50 20 272 298
4 59 13 382 301
4 436 203 39 168
4 198 498 45 424
4 408 44 191 497
4 523 58 0 260
4 240 307 24 112
4 222 40 184 398
4 245 26 123 319
4 260 234 58 253
4 483 409 42 489
4 95 94 419 262
4 17 51 223 503
4 305 13 241 80
4 503 277 17 261
4 162 24 380 517
4 58 0 253 438
4 124 247 533 320
4 520 271 59 524
4 244 10 317 79
4 225 269 296 502
4 0 58 115 438
4 254 243 63 295
4 261 507 56 296
4 351 340 335 147
4 67 3 318 242
4 515 169 232 514
4 197 46 488 425
4 357 336 153 353
4 489 42 483 212
4 446 205 48 471
4 56 252 296 225
4 367 64 10 126
4 17 51 503 261
4 225 55 269 502
4 20 50 187 426
4 426 94 20 298
4 65 244 317 79
4 60 235 306 66
4 52 217 397 99
4 103 104 293 434
4 376 163 36 469
4 433 471 48 202
4 217 99 20 397
4 463 352 28 337
4 128 345 146 352
4 295 523 3 278
4 23 269 506 279
4 244 64 10 520
4 0 523 260 278
4 342 143 348 151
4 502 269 50 506
4 143 352 136 152
4 505 99 52 286
4 142 466 150 348
4 523 0 58 235
4 63 519 523 295
4 505 54 100 286
4 74 9 7 353
4 345 149 146 352
4 73 258 74 341
4 379 169 38 164
4 190 42 409 489
4 279 99 505 286
4 523 3 63 295
4 505 100 279 286
4 55 23 269 506
4 272 50 216 502
4 507 51 216 261
4 129 29 325 461
4 57 285 504 85
4 278 67 284 522
4 284 66 278 522
4 4 6 351 72
4 151 342 143 464
4 81 382 13 301
4 353 341 141 347
4 474 203 204 430
4 475 373 165 164
4 299 93 18 414
4 442 429 200 201
4 161 443 162 372
4 51 17 251 261
4 523 63 3 242
4 300 413 19 92
4 504 285 53 86
4 57 226 384 85
4 271 273 59 524
4 247 248 320 120
4 481 188 400 189
4 196 480 195 416
4 85 285 504 277
4 63 243 519 295
4 140 344 355 154
4 348 142 466 151
4 296 507 56 225
4 123 63 3 330
4 80 521 61 287
4 86 504 285 277
4 65 521 79 287
4 64 271 520 524
4 143 352 28 136
4 150 134 142 350
4 39 171 386 227
4 13 59 382 112
4 241 13 59 520
4 23 55 439 167
4 62 284 67 522
4 66 284 60 522
4 349 127 343 351
4 385 100 23 224
4 260 58 0 253
4 162 24 517 113
4 40 185 500 189
4 26 124 532 132
4 20 50 506 217
4 150 134 466 142
4 136 464 143 152
4 464 342 143 152
4 224 54 385 100
4 145 127 343 128
4 227 386 39 167
4 384 226 14 85
4 50 272 269 502
4 80 280 521 287
4 141 140 138 347
4 151 143 135 464
4 142 135 466 151
4 14 56 166 381
4 79 521 280 287
4 515 38 166 379
4 142 134 32 350
4 515 169 38 379
4 222 221 40 182
4 240 239 24 110
4 26 117 245 246
4 519 234 58 260
4 277 17 223 503
4 226 56 14 503
4 314 25 106 236
4 393 41 178 218
4 352 143 342 152
4 51 17 223 184
4 311 122 530 249
4 140 154 138 347
4 145 343 148 128
4 514 436 39 168
4 519 523 295 260
4 307 241 305 112
4 396 223 184 398
4 318 123 319 242
4 242 62 67 522
4 523 519 58 260
4 150 142 348 350
4 152 352 28 463
4 55 269 502 506
4 531 365 27 126
4 483 42 409 188
4 484 46 195 425
4 223 53 86 504
4 55 23 506 224
4 499 423 41 187
4 352 149 28 337
4 241 61 80 521
4 147 127 343 339
4 532 123 26 328
4 280 244 10 520
4 356 153 141 347
4 500 184 40 407
4 140 344 154 347
4 516 25 115 437
4 150 465 32 350
4 32 465 150 134
4 28 136 152 463
4 522 278 67 242
4 507 503 51 261
4 149 146 28 337
4 228 171 39 227
4 392 38 175 231
4 350 354 32 155
4 52 217 99 505
4 60 235 66 522
4 517 24 380 112
4 139 32 354 155
4 338 148 345 128
4 279 20 506 217
4 236 60 306 105
4 218 52 397 177
4 65 249 122 317
4 115 58 0 235
4 13 241 280 520
4 144 335 340 147
4 153 137 336 357
4 176 231 513 390
4 238 315 526 247
4 247 238 312 527
4 65 244 79 521
4 185 220 501 399
4 238 113 308 518
4 521 241 280 80
4 279 99 217 505
4 86 223 504 277
4 278 66 235 522
4 345 148 343 128
4 59 13 241 112
4 16 53 285 86
4 54 22 100 286
4 244 10 64 126
4 278 0 523 235
4 353 336 153 141
4 335 127 351 147
4 21 52 99 286
4 354 32 31 465
4 463 28 30 337
4 5 4 340 335
4 8 9 336 357
4 79 11 65 287
4 30 33 463 337
4 285 57 15 85
4 80 61 12 287
4 57 226 85 504
4 354 31 34 465
4 277 226 14 503
4 123 3 63 242
4 249 248 121 27
4 57 231 176 384
4 278 523 3 242
4 50 20 187 217
4 279 506 23 224
4 241 521 280 520
4 385 167 386 224
4 277 223 504 503
4 506 279 217 505
4 504 226 85 277
4 280 244 521 79
4 224 54 100 505
4 514 169 232 168
4 52 54 505 286
4 220 395 509 229
4 229 510 220 391
4 319 62 116 318
4 386 54 170 385
4 307 61 111 305
4 398 53 183 396
4 127 335 144 147
4 336 137 153 141
4 280 521 244 520
4 15 57 285 388
4 389 22 54 286
4 284 60 1 66
4 284 2 62 67
4 389 52 21 286
4 17 223 86 277
4 309 65 11 287
4 285 53 16 388
4 277 504 226 503
4 309 12 61 287
4 53 57 285 504
4 139 350 32 155
4 284 62 60 522
4 28 146 149 352
4 134 150 32 350
4 351 127 343 147
4 136 352 28 152
4 141 153 353 347
4 505 279 100 224
4 499 219 41 186
4 516 25 114 237
4 531 248 27 125
4 278 66 0 235
4 521 65 61 287
4 226 14 56 166
4 9 8 7 357
4 500 185 40 221
4 517 24 239 113
4 532 124 26 246
4 523 278 522 242
4 5 4 6 340
4 23 55 167 224
4 280 241 13 80
4 250 531 125 533
4 518 233 114 516
4 215 501 499 186
4 148 338 145 128
4 99 20 279 217
4 506 279 505 224
4 3 67 278 242
4 154 355 140 138
4 389 54 52 286
4 57 53 285 388
4 61 65 309 287
4 284 62 2 310
4 284 1 60 310
4 10 244 280 79
4 235 523 278 522
4 221 230 392 512
4 147 144 127 339
4 356 153 137 141
4 111 65 61 530
4 514 39 228 168
4 21 22 389 286
4 285 16 15 388
4 309 11 12 287
4 65 61 309 111
4 85 226 14 277
4 185 501 500 215
4 113 517 233 518
4 533 124 250 532
4 119 315 238 247
4 119 238 312 247
4 529 110 121 313
4 106 314 525 117
4 178 171 393 508
4 100 279 23 224
4 107 118 312 527
4 311 530 240 249
4 174 181 395 509
4 120 526 109 315
4 119 315 108 238
4 238 119 312 108
4 38 169 515 230
4 284 60 62 310
4 393 228 219 508
4 62 60 528 105
4 513 53 57 176
4 52 54 177 511
4 180 395 220 229
4 229 220 180 391
4 237 246 525 314
4 62 60 105 310
4 54 52 177 389
4 388 57 53 176
4 239 248 313 529
4 116 62 528 105
4 53 513 183 176
4 65 111 122 530
4 170 177 54 511
4 2 1 284 310
4 180 395 229 173
4 173 229 180 391
4 105 116 62 310
4 170 54 177 389
4 111 309 65 122
4 183 388 53 176
4 394 177 170 511
4 528 116 105 316
4 513 183 176 390
4 122 111 311 530
4 121 110 529 240
4 106 525 245 117
4 240 529 121 249
4 525 245 236 106
4 110 121 311 240
4 106 245 316 117
4 221 509 181 230
4 240 121 311 249
4 509 174 181 230
4 181 221 230 392
4 222 231 512 182
4 527 107 118 246
4 510 228 219 172
4 109 239 526 120
4 231 182 390 175
4 230 174 181 392
4 227 171 178 508
4 239 248 526 120
4 246 527 107 237
4 178 218 227 508
4 246 107 118 314
4 228 393 219 172
4 394 171 178 227
4 109 313 239 120
4 248 239 313 120
4 107 246 237 314
4 172 393 219 179
4 122 121 27 249
4 38 176 231 384
4 396 16 53 183
4 186 41 179 219
4 174 169 38 230
4 176 175 38 231
4 185 181 40 221
4 230 231 515 38
4 120 125 27 248
4 305 12 61 111
4 27 122 249 317
4 116 62 2 318
4 114 25 107 237
4 25 105 236 306
4 113 109 24 239
4 26 124 118 246
4 514 227 228 39
4 39 168 172 228
4 170 54 22 385
4 41 177 218 397
4 41 177 178 218
4 25 105 106 236
4 393 218 178 508
4 314 236 106 525
4 514 227 167 224
4 514 167 227 39
4 216 298 215 50
4 116 117 245 319
4 245 117 116 316
4 116 528 245 316
4 170 511 227 394
4 227 171 170 394
4 170 171 227 386
4 527 238 107 237
4 527 107 238 312
4 308 107 238 237
4 425 211 46 488
4 425 46 211 484
4 417 290 534 263
4 534 290 417 422
4 534 289 263 256
4 534 263 289 540
4 237 518 308 114
4 237 308 518 238
4 219 501 399 186
4 219 399 501 220
4 248 533 320 125
4 248 320 533 247
4 540 408 405 497
4 540 405 408 412
4 424 540 421 498
4 421 540 424 428
4 206 376 36 469
4 206 36 376 445
4 358 548 538 369
4 538 548 358 541
4 539 216 298 215
4 539 298 216 304
4 38 174 392 175
4 38 392 174 230
4 112 517 240 241
4 112 240 517 24
4 123 532 245 242
4 123 245 532 26
4 184 500 222 223
4 184 222 500 40
4 62 242 319 245
4 62 319 242 318
4 61 241 307 240
4 307 241 61 305
4 53 223 398 222
4 398 223 53 396
4 178 227 511 394
4 511 227 178 218
4 511 177 178 394
4 178 177 511 218
4 106 245 528 316
4 528 245 106 236
4 528 105 106 316
4 106 105 528 236
4 542 482 480 479
4 542 480 482 539
4 174 169 229 387
4 174 229 169 230
4 25 107 314 106
4 25 314 107 237
4 179 41 393 219
4 179 393 41 178
4 108 107 238 308
4 108 238 107 312
4 119 120 247 320
4 119 247 120 315
4 267 127 544 349
4 267 544 127 333
4 180 181 220 395
4 180 220 181 399
4 173 172 229 391
4 173 229 172 387
4 362 208 35 460
4 362 35 208 451
4 124 118 247 320
4 124 247 118 246
4 180 179 220 399
4 180 220 179 391
4 219 220 179 399
4 173 174 229 387
4 173 229 174 395
4 181 185 220 221
4 181 220 185 399
4 113 109 238 308
4 113 238 109 239
4 360 302 544 370
4 360 544 302 265
4 553 321 331 325
4 553 331 321 541
4 238 108 109 315
4 238 109 108 308
4 224 54 386 385
4 224 386 54 227
4 516 25 235 115
4 516 235 25 236
4 306 235 25 115
4 306 25 235 236
4 499 41 217 187
4 499 217 41 218
4 397 217 41 187
4 397 41 217 218
4 531 27 244 126
4 531 244 27 249
4 317 244 27 126
4 317 27 244 249
4 228 514 387 229
4 387 514 228 168
4 387 172 228 229
4 228 172 387 168
4 374 294 536 276
4 374 536 294 377
4 414 497 299 194
4 299 497 414 408
4 193 424 45 498
4 45 424 193 413
4 141 9 258 353
4 141 258 9 370
4 4 127 267 351
4 4 267 127 333
4 515 38 226 166
4 515 226 38 231
4 384 226 38 166
4 384 38 226 231
4 247 119 118 312
4 118 119 247 320
4 155 344 139 350
4 155 139 344 140
4 32 139 344 350
4 32 344 139 140
4 352 128 143 28
4 352 143 128 345
4 27 125 365 531
4 365 125 27 159
4 41 186 423 499
4 423 186 41 196
4 25 114 437 516
4 25 437 114 201
4 183 182 222 398
4 111 530 240 311
4 240 110 111 311
4 111 110 240 307
4 62 245 116 528
4 62 116 245 319
4 53 222 183 513
4 53 183 222 398
4 54 227 170 511
4 54 170 227 386
4 61 240 111 530
4 61 111 240 307
4 231 392 182 175
4 231 182 392 512
4 220 510 179 391
4 220 179 510 219
4 172 179 510 391
4 172 510 179 219
4 183 182 513 222
4 183 513 182 390
4 231 513 182 222
4 231 182 513 390

CELL_TYPES 3011
1
1
1
1
1
1
1
1
1
1
1
1
1
1
1
1
1
1
1
1
1
1
1
1
1
1
1
1
1
1
1
1
1
1
1
1
1
1
1
1
1
1
1
1
1
1
1
1
1
1
1
1
1
1
1
1
1
1
1
1
1
1
1
1
1
1
3
3
3
3
3
3
3
3
3
3
3
3
3
3
3
3
3
3
3
3
3
3
3
3
3
3
3
3
3
3
3
3
3
3
3
3
3
3
3
3
3
3
3
3
3
3
3
3
3
3
3
3
3
3
3
3
3
3
3
3
3
3
3
3
3
3
3
3
3
3
3
3
3
3
3
3
3
3
3
3
3
3
3
3
3
3
3
3
3
3
3
3
3
3
3
3
3
3
3
3
3
3
3
3
3
3
3
3
3
3
3
3
3
3
3
3
3
3
3
3
3
3
3
3
3
3
3
3
3
3
3
3
3
3
3
3
3
3
3
3
3
3
3
3
3
3
3
3
3
3
3
3
3
3
3
3
3
3
3
3
3
3
3
3
3
3
3
3
3
3
3
3
3
3
3
3
3
3
3
3
3
3
3
3
3
3
3
3
3
3
3
3
3
3
3
3
3
3
3
3
3
3
3
3
3
3
3
3
3
3
3
3
3
3
3
3
3
3
3
3
3
3
3
3
3
3
3
3
3
3
3
3
3
3
3
3
3
3
3
3
3
3
3
3
3
3
3
3
3
3
3
3
3
3
3
3
3
3
3
3
3
3
3
3
3
3
3
3
3
3
3
3
3
3
3
3
3
3
3
3
3
3
3
3
5
5
5
5
5
5
5
5
5
5
5
5
5
5
5
5
5
5
5
5
5
5
5
5
5
5
5
5
5
5
5
5
5
5
5
5
5
5
5
5
5
5
5
5
5
5
5
5
5
5
5
5
5
5
5
5
5
5
5
5
5
5
5
5
5
5
5
5
5
5
5
5
5
5
5
5
5
5
5
5
5
5
5
5
5
5
5
5
5
5
5
5
5
5
5
5
5
5
5
5
5
5
5
5
5
5
5
5
5
5
5
5
5
5
5
5
5
5
5
5
5
5
5
5
5
5
5
5
5
5
5
5
5
5
5
5
5
5
5
5
5
5
5
5
5
5
5
5
5
5
5
5
5
5
5
5
5
5
5
5
5
5
5
5
5
5
5
5
5
5
5
5
5
5
5
5
5
5
5
5
5
5
5
5
5
5
5
5
5
5
5
5
5
5
5
5
5
5
5
5
5
5
5
5
5
5
5
5
5
5
5
5
5
5
5
5
5
5
5
5
5
5
5
5
5
5
5
5
5
5
5
5
5
5
5
5
5
5
5
5
5
5
5
5
5
5
5
5
5
5
5
5
5
5
5
5
5
5
5
5
5
5
5
5
5
5
5
5
5
5
5
5
5
5
5
5
5
5
5
5
5
5
5
5
5
5
5
5
5
5
5
5
5
5
5
5
5
5
5
5
5
5
5
5
5
5
5
5
5
5
5
5
5
5
5
5
5
5
5
5
5
5
5
5
5
5
5
5
5
5
5
5
5
5
5
5
5
5
5
5
5
5
5
5
5
5
5
5
5
5
5
5
5
5
5
5
5
5
5
5
5
5
5
5
5
5
5
5
5
5
5
5
5
5
5
5
5
5
5
5
5
5
5
5
5
5
5
5
5
5
5
5
5
5
5
5
5
5
5
5
5
5
5
5
5
5
5
5
5
5
5
5
5
5
5
5
5
5
5
5
5
5
5
5
5
5
5
5
5
5
5
5
5
5
5
5
5
5
5
5
5
5
5
5
5
5
5
5
5
5
5
5
5
5
5
5
5
5
5
5
5
5
5
5
5
5
5
5
5
5
5
5
5
5
5
5
5
5
5
5
5
5
5
5
5
5
5
5
5
5
5
5
5
5
5
5
5
5
5
5
5
5
5
5
5
5
5
5
5
5
5
5
5
5
5
5
5
5
5
5
5
5
5
5
5
5
5
5
5
5
5
5
5
5
5
5
5
5
5
5
5
5
5
5
5
5
5
5
5
5
5
5
5
5
5
5
5
5
5
5
5
5
5
5
5
5
5
5
5
5
5
5
5
5
5
5
5
5
5
5
5
5
5
5
5
5
5
5
5
5
5
5
5
5
5
5
5
5
5
5
5
5
5
5
5
5
5
5
5
5
5
5
5
5
5
5
5
5
5
5
5
5
5
5
5
5
5
5
5
5
5
5
5
5
5
5
5
5
5
5
5
5
5
5
5
5
5
5
5
5
5
5
5
5
5
5
5
5
5
5
5
5
5
5
5
5
5
5
5
5
5
5
5
5
5
5
5
5
5
5
5
5
5
5
5
5
5
5
5
5
5
5
5
5
5
5
5
5
5
5
5
5
5
5
5
5
5
5
5
5
5
5
5
5
5
5
5
5
5
5
5
5
5
5
5
5
5
5
5
5
5
5
5
5
5
5
5
5
5
5
5
5
5
5
5
5
5
5
5
5
5
5
5
5
5
5
5
5
5
5
5
5
5
5
5
5
5
5
5
5
5
5
5
5
5
5
5
5
5
5
5
5
5
5
5
5
5
5
5
5
5
5
5
5
5
5
5
5
5
5
5
5
5
5
5
5
5
5
5
5
5
5
5
5
5
5
5
5
5
5
5
5
5
5
5
5
5
5
5
5
5
5
5
5
5
5
5
5
5
5
5
5
5
5
5
5
5
5
5
5
5
5
5
5
5
5
5
5
5
5
5
5
5
5
5
5
5
5
5
5
5
5
5
5
5
5
5
5
5
5
5
5
5
5
5
5
5
5
5
5
5
5
5
5
5
5
5
5
5
5
5
5
5
5
5
5
5
5
5
5
5
5
5
5
5
5
5
5
5
5
5
5
5
5
5
5
5
5
5
5
5
5
5
5
5
5
5
5
5
5
5
5
5
5
5
5
5
5
5
5
5
5
5
5
5
5
5
5
5
5
5
5
5
5
5
5
5
5
5
5
5
5
5
5
5
5
5
5
5
5
5
5
5
5
5
5
5
5
5
5
5
5
5
5
5
5
5
5
5
5
5
5
5
5
5
5
5
5
5
5
5
5
5
5
5
5
5
5
5
5
5
5
5
5
5
5
5
5
5
5
5
5
5
5
5
5
5
5
5
5
5
5
5
5
5
5
5
5
5
5
5
5
5
5
5
5
10
10
10
10
10
10
10
10
10
10
10
10
10
10
10
10
10
10
10
10
10
10
10
10
10
10
10
10
10
10
10
10
10
10
10
10
10
10
10
10
10
10
10
10
10
10
10
10
10
10
10
10
10
10
10
10
10
10
10
10
10
10
10
10
10
10
10
10
10
10
10
10
10
10
10
10
10
10
10
10
10
10
10
10
10
10
10
10
10
10
10
10
10
10
10
10
10
10
10
10
10
10
10
10
10
10
10
10
10
10
10
10
10
10
10
10
10
10
10
10
10
10
10
10
10
10
10
10
10
10
10
10
10
10
10
10
10
10
10
10
10
10
10
10
10
10
10
10
10
10
10
10
10
10
10
10
10
10
10
10
10
10
10
10
10
10
10
10
10
10
10
10
10
10
10
10
10
10
10
10
10
10
10
10
10
10
10
10
10
10
10
10
10
10
10
10
10
10
10
10
10
10
10
10
10
10
10
10
10
10
10
10
10
10
10
10
10
10
10
10
10
10
10
10
10
10
10
10
10
10
10
10
10
10
10
10
10
10
10
10
10
10
10
10
10
10
10
10
10
10
10
10
10
10
10
10
10
10
10
10
10
10
10
10
10
10
10
10
10
10
10
10
10
10
10
10
10
10
10
10
10
10
10
10
10
10
10
10
10
10
10
10
10
10
10
10
10
10
10
10
10
10
10
10
10
10
10
10
10
10
10
10
10
10
10
10
10
10
10
10
10
10
10
10
10
10
10
10
10
10
10
10
10
10
10
10
10
10
10
10
10
10
10
10
10
10
10
10
10
10
10
10
10
10
10
10
10
10
10
10
10
10
10
10
10
10
10
10
10
10
10
10
10
10
10
10
10
10
10
10
10
10
10
10
10
10
10
10
10
10
10
10
10
10
10
10
10
10
10
10
10
10
10
10
10
10
10
10
10
10
10
10
10
10
10
10
10
10
10
10
10
10
10
10
10
10
10
10
10
10
10
10
10
10
10
10
10
10
10
10
10
10
10
10
10
10
10
10
10
10
10
10
10
10
10
10
10
10
10
10
10
10
10
10
10
10
10
10
10
10
10
10
10
10
10
10
10
10
10
10
10
10
10
10
10
10
10
10
10
10
10
10
10
10
10
10
10
10
10
10
10
10
10
10
10
10
10
10
10
10
10
10
10
10
10
10
10
10
10
10
10
10
10
10
10
10
10
10
10
10
10
10
10
10
10
10
10
10
10
10
10
10
10
10
10
10
10
10
10
10
10
10
10
10
10
10
10
10
10
10
10
10
10
10
10
10
10
10
10
10
10
10
10
10
10
10
10
10
10
10
10
10
10
10
10
10
10
10
10
10
10
10
10
10
10
10
10
10
10
10
10
10
10
10
10
10
10
10
10
10
10
10
10
10
10
10
10
10
10
10
10
10
10
10
10
10
10
10
10
10
10
10
10
10
10
10
10
10
10
10
10
10
10
10
10
10
10
10
10
10
10
10
10
10
10
10
10
10
10
10
10
10
10
10
10
10
10
10
10
10
10
10
10
10
10
10
10
10
10
10
10
10
10
10
10
10
10
10
10
10
10
10
10
10
10
10
10
10
10
10
10
10
10
10
10
10
10
10
10
10
10
10
10
10
10
10
10
10
10
10
10
10
10
10
10
10
10
10
10
10
10
10
10
10
10
10
10
10
10
10
10
10
10
10
10
10
10
10
10
10
10
10
10
10
10
10
10
10
10
10
10
10
10
10
10
10
10
10
10
10
10
10
10
10
10
10
10
10
10
10
10
10
10
10
10
10
10
10
10
10
10
10
10
10
10
10
10
10
10
10
10
10
10
10
10
10
10
10
10
10
10
10
10
10
10
10
10
10
10
10
10
10
10
10
10
10
10
10
10
10
10
10
10
10
10
10
10
10
10
10
10
10
10
10
10
10
10
10
10
10
10
10
10
10
10
10
10
10
10
10
10
10
10
10
10
10
10
10
10
10
10
10
10
10
10
10
10
10
10
10
10
10
10
10
10
10
10
10
10
10
10
10
10
10
10
10
10
10
10
10
10
10
10
10
10
10
10
10
10
10
10
10
10
10
10
10
10
10
10
10
10
10
10
10
10
10
10
10
10
10
10
10
10
10
10
10
10
10
10
10
10
10
10
10
10
10
10
10
10
10
10
10
10
10
10
10
10
10
10
10
10
10
10
10
10
10
10
10
10
10
10
10
10
10
10
10
10
10
10
10
10
10
10
10
10
10
10
10
10
10
10
10
10
10
10
10
10
10
10
10
10
10
10
10
10
10
10
10
10
10
10
10
10
10
10
10
10
10
10
10
10
10
10
10
10
10
10
10
10
10
10
10
10
10
10
10
10
10
10
10
10
10
10
10
10
10
10
10
10
10
10
10
10
10
10
10
10
10
10
10
10
10
10
10
10
10
10
10
10
10
10
10
10
10
10
10
10
10
10
10
10
10
10
10
10
10
10
10
10
10
10
10
10
10
10
10
10
10
10
10
10
10
10
10
10
10
10
10
10
10
10
10
10
10
10
10
10
10
10
10
10
10
10
10
10
10
10
10
10
10
10
10
10
10
10
10
10
10
10
10
10
10
10
10
10
10
10
10
10
10
10
10
10
10
10
10
10
10
10
10
10
10
10
10
10
10
10
10
10
10
10
10
10
10
10
10
10
10
10
10
10
10
10
10
10
10
10
10
10
10
10
10
10
10
10
10
10
10
10
10
10
10
10
10
10
10
10
10
10
10
10
10
10
10
10
10
10
10
10
10
10
10
10
10
10
10
10
10
10
10
10
10
10
10
10
10
10
10
10
10
10
10
10
10
10
10
10
10
10
10
10
10
10
10
10
10
10
10
10
10
10
10
10
10
10
10
10
10
10
10
10
10
10
10
10
10
10
10
10
10
10
10
10
10
10
10
10
10
10
10
10
10
10
10
10
10
10
10
10
10
10
10
10
10
10
10
10
10
10
10
10
10
10
10
10
10
10
10
10
10
10
10
10
10
10
10
10
10
10
10
10
10
10
10
10
10
10
10
10
10
10
10
10
10
10
10
10
10
10
10
10
10
10
10
10
10
10
10
10
10
10
10
10
10
10
10
10
10
10
10
10
10
10
10
10
10
10
10
10
10
10
10
10
10
10
10
10
10
10
10
10
10
10
10
10
10
10
10
10
10
10
10
10
10
10
10
10
10
10
10
10
10
10
10
10
10
10
10
10
10
10
10
10
10
10
10
10
10
10
10
10
10
10
10
10
10
10
10
10
10
10
10
10
10
10
10
10
10
10
10
10
10
10
10
10
10
10
10
10
10
10
10
10
10
10
10
10
10
10
10
10
10
10
10
10
10
10
10
10
10
10
10
10
10
10
10
10
10
10
10
10
10
10
10
10
10
10
10
10
10
10
10
10
10
10
10
10
10
10
10
10
10
10
10
10
10
10
10
10
10
10
10
10
10
10
10
10
10
10
10
10
10
10
10
10
10
10
10
10
10
10
10
10
10
10
10
10
10
10
10
10
10
10
10
10
10
10
10
10
10
10
10
10
10
10
10
10
10
10
10
10
10
10
10
10
10
10
10
10
10
10
10
10
10
10
10
10
10
10
10
10
10
10
10
10
10
10
10
10
10
10
10
10
10
10
