# vtk DataFile Version 2.0
, Created by Gmsh 4.11.1 
ASCII
DATASET UNSTRUCTURED_GRID
POINTS 575 double
8.75 0 -44.08871347546398
17.26367502235105 0 -41.651058923362
17.26367502235105 0 -38.348941076638
8.75 0 -35.91128652453602
8.75 0 -3
11.75 0 -3
11.75 0 0
-11.75 0 0
-11.75 0 -3
-8.75 0 -3
-8.75 1.071565949253934e-15 -35.91128652453602
-17.26367502235105 2.114190435764233e-15 -38.348941076638
-17.26367502235105 2.114190435764233e-15 -41.651058923362
-8.75 1.071565949253934e-15 -44.08871347546398
-8.75 1.071565949253934e-15 -75.91128652453602
-17.26367502235105 2.114190435764233e-15 -78.348941076638
-17.26367502235105 2.114190435764233e-15 -81.651058923362
-8.75 1.071565949253934e-15 -84.08871347546398
-8.75 0 -120
8.75 0 -120
8.75 0 -84.08871347546398
17.26367502235105 0 -81.651058923362
17.26367502235105 0 -78.348941076638
8.75 0 -75.91128652453602
-8.75 12.05137426595059 -42.32986790403042
8.75 12.05137426595059 -42.32986790403042
8.75 12.05137426595059 -37.67013209596958
-8.75 12.05137426595059 -37.67013209596958
8.75 20 -3
8.75 20 -34.84815411364042
11.75 23 -3
-11.75 23 -3
-8.75 20 -3
11.75 23 0
-11.75 23 0
-8.75 20 -34.84815411364042
-8.75 20 -45.15184588635958
-8.75 20 -74.84815411364042
-8.75 12.05137426595047 -77.67013209596962
8.75 12.0513742659506 -77.67013209596958
-8.75 12.05137426595059 -82.32986790403042
8.75 12.05137426595059 -82.32986790403042
-8.75 20 -85.15184588635958
-8.75 20 -114.8481541136404
-8.75 5.488868075300976 -120
8.75 5.488868075300976 -120
8.75 20 -85.15184588635958
8.75 20 -114.8481541136404
8.75 20 -45.15184588635958
8.75 20 -74.84815411364042
4.956319588471279 4.519398491103584 -84.08871347546398
-4.956319588471278 4.519398491103585 -84.08871347546398
14.53472033274923 4.519398491103583 -81.651058923362
-14.53472033274923 4.519398491103582 -81.651058923362
14.53472033274923 4.519398491103583 -78.348941076638
4.956319588471279 4.519398491103584 -75.91128652453602
-4.956319588471278 4.519398491103585 -75.91128652453602
-14.53472033274923 4.519398491103582 -78.348941076638
4.956319588471279 4.519398491103584 -44.08871347546398
-4.956319588471278 4.519398491103585 -44.08871347546398
14.53472033274923 4.519398491103583 -41.651058923362
-14.53472033274923 4.519398491103582 -41.651058923362
14.53472033274923 4.519398491103583 -38.348941076638
4.956319588471279 4.519398491103584 -35.91128652453602
-4.956319588471278 4.519398491103585 -35.91128652453602
-14.53472033274923 4.519398491103582 -38.348941076638
13.00683751117553 0 -42.86988619941299
13.00683751117552 0 -37.130113800587
8.75 0 -29.3290292196288
8.75 0 -22.74677191472158
8.75 0 -16.16451460981439
8.75 0 -9.582257304907195
5.875000000000016 0 0
3.730349362740526e-14 0 0
-5.874999999999972 0 0
-8.75 0 -9.582257304907213
-8.75 0 -16.16451460981444
-8.75 0 -22.74677191472163
-8.75 0 -29.32902921962882
-13.00683751117552 1.592878192509083e-15 -37.130113800587
-13.00683751117553 1.592878192509084e-15 -42.86988619941299
-8.75 0 -50.45322808527839
-8.75 0 -56.8177426950928
-8.75 0 -63.1822573049072
-8.75 0 -69.54677191472162
-13.00683751117552 1.592878192509083e-15 -77.13011380058701
-13.00683751117553 1.592878192509084e-15 -82.86988619941299
-8.75 0 -90.07392789621998
-8.75 0 -96.05914231697598
-8.75 0 -102.044356737732
-8.75 0 -108.029571158488
-8.75 0 -114.014785579244
2.916666666666666 0 -120
-2.916666666666668 0 -120
8.75 0 -90.07392789621998
8.75 0 -96.05914231697598
8.75 0 -102.044356737732
8.75 0 -108.029571158488
8.75 0 -114.014785579244
13.00683751117553 0 -82.86988619941299
13.00683751117552 0 -77.13011380058701
8.75 0 -50.45322808527839
8.75 0 -56.8177426950928
8.75 0 -63.1822573049072
8.75 0 -69.54677191472162
15.94955600907647 6.606522412788771 -41.651058923362
12.20726167650525 12.20726167650525 -41.651058923362
6.606522412788755 15.94955600907647 -41.651058923362
-1.427612838168616e-14 17.26367502235105 -41.651058923362
-6.606522412788775 15.94955600907647 -41.651058923362
-12.20726167650525 12.20726167650525 -41.651058923362
-15.94955600907647 6.60652241278877 -41.651058923362
-8.75 6.071711410885507 -43.54462486416791
-2.956438548981605 13.17364876738888 -42.72830582766063
2.956438548981597 13.17364876738888 -42.72830582766063
8.75 6.071711410885511 -43.54462486416791
15.94955600907647 6.606522412788771 -38.348941076638
12.20726167650525 12.20726167650525 -38.348941076638
6.606522412788755 15.94955600907647 -38.348941076638
-1.427612838168616e-14 17.26367502235105 -38.348941076638
-6.606522412788775 15.94955600907647 -38.348941076638
-12.20726167650525 12.20726167650525 -38.348941076638
-15.94955600907647 6.60652241278877 -38.348941076638
8.75 6.071711410885492 -36.45537513583209
2.956438548981608 13.1736487673889 -37.27169417233937
-2.956438548981601 13.1736487673889 -37.27169417233937
-8.75 6.071711410885501 -36.45537513583209
8.75 6.666666666666651 -3
8.75 13.33333333333329 -3
8.75 20 -28.47852329091234
8.75 20 -22.10889246818424
8.75 20 -15.73926164545616
8.75 20 -9.369630822728062
8.75 16.02568713297529 -36.259143104805
-5.875000000000016 23 -3
-3.730349362740526e-14 23 -3
5.874999999999972 23 -3
-11.75 5.749999999999988 -3
-11.75 11.49999999999999 -3
-11.75 17.24999999999999 -3
-8.75 13.33333333333335 -3
-8.75 6.666666666666705 -3
-2.916666666666666 20 -3
2.916666666666668 20 -3
11.75 5.749999999999988 -3
11.75 11.49999999999999 -3
11.75 17.24999999999999 -3
11.75 5.749999999999988 0
11.75 11.49999999999999 0
11.75 17.24999999999999 0
-5.875000000000016 23 0
-3.730349362740526e-14 23 0
5.874999999999972 23 0
-11.75 5.749999999999988 0
-11.75 11.49999999999999 0
-11.75 17.24999999999999 0
-8.75 20 -9.36963082272808
-8.75 20 -15.73926164545617
-8.75 20 -22.10889246818426
-8.75 20 -28.47852329091236
-8.75 16.02568713297529 -36.259143104805
-8.75 16.0256871329753 -43.740856895195
-8.75 20 -68.90889246818425
-8.75 20 -62.96963082272809
-8.75 20 -57.03036917727191
-8.75 20 -51.09110753181575
-8.75 16.02568713297524 -76.25914310480502
-8.75 6.07171141088545 -76.45537513583207
8.75 6.0717114108855 -76.45537513583209
2.956438548981591 13.17364876738891 -77.27169417233935
-2.956438548981624 13.1736487673889 -77.27169417233937
15.94955600907647 6.606522412788771 -78.348941076638
12.20726167650525 12.20726167650525 -78.348941076638
6.606522412788755 15.94955600907647 -78.348941076638
-1.427612838168616e-14 17.26367502235105 -78.348941076638
-6.606522412788775 15.94955600907647 -78.348941076638
-12.20726167650525 12.20726167650525 -78.348941076638
-15.94955600907647 6.60652241278877 -78.348941076638
15.94955600907647 6.606522412788771 -81.65105892336199
12.20726167650525 12.20726167650525 -81.65105892336199
6.606522412788755 15.94955600907647 -81.65105892336199
-1.427612838168616e-14 17.26367502235105 -81.65105892336199
-6.606522412788775 15.94955600907647 -81.65105892336199
-12.20726167650525 12.20726167650525 -81.65105892336199
-15.94955600907647 6.60652241278877 -81.65105892336199
-8.75 6.071711410885505 -83.5446248641679
-2.956438548981603 13.17364876738885 -82.72830582766062
2.956438548981598 13.17364876738885 -82.72830582766062
8.75 6.071711410885502 -83.5446248641679
-8.75 16.02568713297529 -83.74085689519501
-8.75 20 -108.9088924681842
-8.75 20 -102.9696308227281
-8.75 20 -97.03036917727192
-8.75 20 -91.09110753181575
-8.75 10.32591205020065 -118.2827180378801
-8.75 15.16295602510032 -116.5654360757603
2.916666666666666 5.488868075300976 -120
-2.916666666666668 5.488868075300976 -120
8.75 16.02568713297529 -83.74085689519501
8.75 20 -108.9088924681842
8.75 20 -102.9696308227281
8.75 20 -97.03036917727192
8.75 20 -91.09110753181575
8.75 10.32591205020065 -118.2827180378801
8.75 15.16295602510032 -116.5654360757603
8.75 16.0256871329753 -43.740856895195
8.75 20 -68.90889246818425
8.75 20 -62.96963082272809
8.75 20 -57.03036917727191
8.75 20 -51.09110753181575
8.75 16.0256871329753 -76.25914310480499
2.916666666666666 20 -45.15184588635958
-2.916666666666668 20 -45.15184588635958
2.916666666666666 20 -34.84815411364042
-2.916666666666668 20 -34.84815411364042
2.916666666666666 20 -74.84815411364042
-2.916666666666668 20 -74.84815411364042
2.916666666666666 20 -85.15184588635958
-2.916666666666668 20 -85.15184588635958
2.916666666666666 20 -114.8481541136404
-2.916666666666668 20 -114.8481541136404
-7.036066727733864e-15 6.70746349855543 -84.08871347546398
-7.105427357601002e-15 4.519398491103583 -84.08871347546398
9.760499906016634 4.519398491103583 -82.92951696225204
11.39732255242409 10.08881046053638 -81.65105892336199
6.249795050304793 13.87887314236314 -81.65105892336199
-1.93466042078528e-14 15.22113852090648 -81.65105892336199
-6.249795050304834 13.87887314236312 -81.65105892336199
-11.39732255242412 10.08881046053635 -81.65105892336199
-9.76049990601663 4.519398491103583 -82.92951696225204
9.76049990601663 4.519398491103583 -77.07048303774796
5.329070518200751e-15 4.519398491103583 -75.91128652453602
-9.760499906016634 4.519398491103583 -77.07048303774796
11.39732255242409 10.08881046053638 -78.348941076638
6.249795050304793 13.87887314236314 -78.348941076638
-1.93466042078528e-14 15.22113852090648 -78.348941076638
-6.249795050304834 13.87887314236312 -78.348941076638
-11.39732255242412 10.08881046053635 -78.348941076638
-7.036066727733864e-15 6.70746349855543 -75.91128652453601
-7.036066727733864e-15 6.70746349855543 -44.08871347546398
-7.105427357601002e-15 4.519398491103583 -44.08871347546398
9.760499906016634 4.519398491103583 -42.92951696225203
11.39732255242409 10.08881046053638 -41.651058923362
6.249795050304793 13.87887314236314 -41.651058923362
-1.93466042078528e-14 15.22113852090648 -41.651058923362
-6.249795050304834 13.87887314236312 -41.651058923362
-11.39732255242412 10.08881046053635 -41.651058923362
-9.76049990601663 4.519398491103583 -42.92951696225204
9.76049990601663 4.519398491103583 -37.07048303774796
5.329070518200751e-15 4.519398491103583 -35.91128652453602
-9.760499906016634 4.519398491103583 -37.07048303774797
11.39732255242409 10.08881046053638 -38.348941076638
6.249795050304793 13.87887314236314 -38.348941076638
-1.93466042078528e-14 15.22113852090648 -38.348941076638
-6.249795050304834 13.87887314236312 -38.348941076638
-11.39732255242412 10.08881046053635 -38.348941076638
-7.036066727733864e-15 6.70746349855543 -35.91128652453602
-4.240993731241352 0 -87.08132068584197
-2.763831843860561 0 -72.40482729560321
3.666644013268917 0 -48.39520317832416
-4.262919164771191 0 -32.4472864660053
-2.664535259100376e-15 0 -115.3986266602203
-4.071093913138871 0 -99.13386983187695
-3.741408133562714 0 -58.88885810114371
-2.830949252551394 0 -4.136265943158485
-2.933074086785516 0 -37.9017424615876
-3.049597959704678 0 -19.45564326226804
-3.866477625765657 0 -81.82826711443828
3.731596485426018 0 -92.75595065069857
4.192924042454335 0 -105.0956213084836
3.216568644325783 0 -66.62657176854118
3.049597959704679 0 -12.87338595736079
3.04959795970467 0 -26.03790056717519
-2.797798732093841 0 -47.75200599617119
3.672675977271059 0 -5.708751449193358
3.294827995160936 0 -41.84335082061774
2.538918864158808 0 -32.35537670806102
0.8252407051258634 0 -84.11396764131604
1.101013598730175 0 -77.92719414714504
0.06093430212598161 0 -53.7178396760017
-3.014536602892668 0 -65.46715731529423
2.710001001624667 0 -59.76227317873806
9.621084761175531 0 -39.91884202250094
-9.337962191710258 0 -40.09576185241257
-9.882217812447056 0 -80
10.51295699980373 0 -80.23099232396753
2.133043540645539 0 -99.08614877472712
-2.17787519000557 0 -105.0619892212914
-2.825539402340277 0 -93.37206029450877
4.109919591940934 0 -19.45564326226799
-3.309179700776887 0 -26.03790056717523
-4.013278698535061 0 -12.18427075943373
4.054949431090333 0 -72.63948880799639
3.420973966026845 0 -110.8167669362918
-3.727708709880097 0 -111.2690236726832
14.48803268649956 0 -79.99999999999999
-13.97579745175268 0 -40.01915237048252
-14.38302849277834 0 -80
14.03242196564574 0 -39.98376840450019
-4.948448801376283 0 -53.63548539018559
4.948448801376284 0 -53.63548539018559
4.296243519672512 0 -37.04316172809515
-0.7344724099360098 0 -8.483626291493046
5.689604693165713 0 -81.50949574564325
5.405870538901499 0 -87.05824840690919
-4.312093435821853 0 -42.61105567146303
4.639678715222904 0 -115.8835193920813
-4.623985054944515 0 -115.8681147220514
-4.508842329241404 0 -77.11702729068773
-5.015740072204491 0 -7.477284059798492
0.1686718019267177 0 -89.41406190522093
12.64222071654976 3.917591233114668 -42.80447122892708
-12.64222071654977 3.917591233114657 -42.80447122892708
-11.85496505177358 7.921234400874964 -42.51169485778541
11.85496505177358 7.921234400874964 -42.51169485778541
16.93195834758682 3.367975919292259 -40.02674333353894
-16.93195834758682 3.367975919292255 -39.97325666646106
3.367975919292239 16.93195834758682 -39.97325666646107
-3.367975919292267 16.93195834758682 -39.97325666646105
9.591183954942254 14.35422117775137 -40.02674333353895
-9.557708400919692 14.37653245397988 -40
-14.35422117775136 9.591183954942265 -40.02674333353894
14.35422117775136 9.591183954942265 -40.02674333353894
-12.70719835098514 3.772337678242841 -37.20125892722182
12.64222071654976 3.917591233114654 -37.19552877107292
11.85496505177358 7.921234400874963 -37.48830514221459
-12.20063391201358 7.810199565773419 -37.55373458592974
8.75 12.37746383832022 -33.26472519057639
8.75 14.76449679845723 -18.97406814188608
8.75 9.999999999999973 -8.773502691896237
8.75 4.447465393399845 -26.35181547580147
8.75 4.955171608428328 -19.40076119764866
8.75 14.50930069073688 -26.98051976043882
8.75 5.137103144895494 -12.87119812018032
8.75 14.85659772730826 -12.58198669054329
8.75 8.24914765021696 -30.15265410464738
8.75 16.73664278543934 -32.07389713639364
8.75 10.0843427357654 -15.61764065010462
8.75 4.682476535299824 -7.687161393954728
8.75 9.501654146167441 -22.91290988842117
8.75 15.63798621212831 -7.345024041033518
8.75 3.456658283664597 -32.38991672056221
10.25 3.10416666666666 -3
-10.25 3.104166666666674 -3
11.75 20.125 -1.5
11.75 14.37499999999999 -1.5
11.75 8.624999999999989 -1.5
11.75 2.874999999999994 -1.5
-2.707174061168084 4.878797530676509 0
3.157610638484558 18.22886740495932 0
7.069955745470663 8.71654637064 0
-6.619519168154191 14.39111856499583 0
7.102873022115113 14.37499999999999 0
0.1126091443291166 11.52691623390895 0
-7.000954855602266 8.644857627020135 0
-2.792058517349997 18.15992185565015 0
2.948495529093417 4.721447277005962 0
-7.528051718759411 18.81262893003678 0
7.528051718759419 4.187371069963204 0
7.820492259183635 19.07601590637069 0
-7.553981076842906 4.160878030182232 0
-11.75 20.125 -1.5
-11.75 14.37499999999999 -1.5
-11.75 8.624999999999988 -1.5
-11.75 2.874999999999994 -1.5
-8.75 12.37746383832022 -33.2647251905764
-8.75 14.76449679845724 -18.9740681418861
-8.75 10.00000000000003 -8.773502691896239
-8.75 4.447465393399842 -26.35181547580149
-8.75 4.955171608428337 -19.4007611976487
-8.75 14.50930069073688 -26.98051976043884
-8.75 5.13710314489552 -12.87119812018035
-8.75 14.85659772730828 -12.58198669054331
-8.75 8.249147650216962 -30.1526541046474
-8.75 16.73664278543934 -32.07389713639365
-8.75 10.08434273576543 -15.61764065010463
-8.75 4.682476535299849 -7.687161393954741
-8.75 9.501654146167446 -22.91290988842119
-8.75 15.63798621212833 -7.345024041033525
-8.75 3.456658283664599 -32.38991672056222
-8.75 12.53896293959809 -73.40334235787958
-8.75 12.53896293959817 -46.59665764212041
-8.75 14.8564485353124 -59.99999999999999
-8.75 4.457471180185522 -53.34388422932926
-8.75 4.4574711801855 -66.65611577067075
-8.75 4.83548991723669 -60
-8.75 14.58198590747674 -67.41032779105009
-8.75 14.58198590747677 -52.58967220894989
-8.75 16.7908912556789 -72.11179270379191
-8.75 16.79089125567895 -47.88820729620804
-8.75 8.316329435085153 -49.64907656052004
-8.75 8.3163294350851 -70.35092343947996
-8.75 9.516120591136849 -56.46081505061773
-8.75 9.427307594405546 -63.47969700863642
-8.75 3.455691085546474 -47.51694502614917
-8.75 3.455691085546441 -72.48305497385083
-12.70719835098516 3.772337678242815 -77.20125892722182
12.64222071654976 3.917591233114652 -77.19552877107292
-12.20063391201356 7.810199565773418 -77.55373458592973
11.85496505177358 7.92123440087496 -77.48830514221459
9.591183954942254 14.35422117775137 -80.02674333353892
-14.35422117775136 9.59118395494226 -79.97325666646105
16.93976073912487 3.32851038432375 -80
-16.9240640110516 3.407423165263709 -80
-3.367975919292271 16.93195834758682 -80.02674333353893
-9.591183954942261 14.35422117775136 -79.97325666646107
3.367975919292243 16.93195834758682 -79.97325666646105
14.35422117775136 9.591183954942263 -79.97325666646105
-12.64222071654976 3.917591233114662 -82.80447122892707
12.64222071654976 3.917591233114663 -82.80447122892707
11.85496505177358 7.921234400874964 -82.51169485778541
-11.85496505177358 7.921234400874964 -82.51169485778541
-8.75 12.54577611668 -86.58098756236355
-8.75 10.75036835649196 -113.4470888381071
-8.75 14.87488648730125 -99.68391650911799
-8.75 5.132482968803414 -105.034576635425
-8.75 4.365647136124461 -92.80743728759461
-8.75 5.002641146129623 -111.5679896626806
-8.75 4.83909199301843 -99.00816867207259
-8.75 14.94874149304622 -105.8071123811195
-8.75 14.5562409201574 -92.40758162513615
-8.75 15.93235451148421 -111.7171360515399
-8.75 16.79089125567894 -87.88820729620805
-8.75 6.862444733154739 -116.061037865658
-8.75 8.290014628917902 -89.39613246420949
-8.75 9.833259302802878 -102.1550132551081
-8.75 9.459856744720387 -95.90970830220648
-8.75 10.26664129645972 -108.2881528039967
-8.75 3.480396718256262 -87.40961751954796
-8.75 3.009141309249095 -116.7600785884174
5.833333333333333 2.744434037650489 -120
-1.77635683940025e-15 2.744434037650488 -120
-5.833333333333334 2.744434037650488 -120
8.75 12.54577611668 -86.58098756236355
8.75 10.75036835649196 -113.4470888381071
8.75 14.87488648730125 -99.68391650911799
8.75 5.132482968803414 -105.034576635425
8.75 4.36564713612446 -92.80743728759461
8.75 5.002641146129623 -111.5679896626806
8.75 4.839091993018431 -99.00816867207259
8.75 14.94874149304622 -105.8071123811195
8.75 14.5562409201574 -92.40758162513615
8.75 15.93235451148421 -111.7171360515399
8.75 16.79089125567894 -87.88820729620805
8.75 6.862444733154739 -116.061037865658
8.75 8.2900146289179 -89.39613246420949
8.75 9.83325930280288 -102.1550132551081
8.75 9.459856744720385 -95.90970830220648
8.75 10.26664129645972 -108.2881528039967
8.75 3.480396718256261 -87.40961751954796
8.75 3.009141309249097 -116.7600785884174
8.75 12.53896293959817 -73.40334235787959
8.75 12.53896293959817 -46.59665764212041
8.75 14.8564485353124 -59.99999999999999
8.75 4.45747118018552 -66.65611577067074
8.75 4.457471180185522 -53.34388422932926
8.75 4.835489917236694 -60
8.75 14.58198590747677 -67.41032779105009
8.75 14.58198590747677 -52.58967220894989
8.75 16.79089125567895 -72.11179270379195
8.75 16.79089125567895 -47.88820729620804
8.75 8.31632943508515 -70.35092343947996
8.75 8.316329435085153 -49.64907656052004
8.75 9.516120591136849 -56.46081505061773
8.75 9.427307594405564 -63.47969700863642
8.75 3.455691085546472 -47.51694502614917
8.75 3.455691085546463 -72.48305497385083
-1.77635683940025e-15 16.58994597271169 -43.94118410587869
-4.90459527165398 16.52085253902839 -43.9166540606732
4.904595271653978 16.52085253902839 -43.9166540606732
0 16.5899459727117 -36.0588158941213
-4.904595271653985 16.5208525390284 -36.0833459393268
4.904595271653987 16.5208525390284 -36.0833459393268
-1.77635683940025e-15 20 -29.79633925823119
0 20 -8.051814855409225
-3.233737894789102 20 -18.92407705682022
3.233737894789101 20 -18.9240770568202
-3.192178459616533 20 -12.77398674626635
3.192178459616532 20 -25.07416736737407
3.68741999810174 20 -12.03144715350487
-3.687419998101744 20 -25.81670696013555
4.582960553437886 20 -30.51824231929121
4.582960553437884 20 -7.329911794349208
-4.582960553437889 20 -7.329911794349208
-4.582960553437884 20 -30.51824231929121
8.812499999999986 23 -1.5
2.937499999999966 23 -1.5
-8.812500000000007 23 -1.5
-2.937500000000027 23 -1.499999999999999
0 20 -70.45153444399233
0 20 -49.54846555600768
3.810474306767301 20 -60
-1.955646527604671 20 -60
-3.667598877754212 20 -66.21145017270993
3.444534332476227 20 -65.7595141208426
-3.667598877754216 20 -53.78854982729007
3.444534332476232 20 -54.2404858791574
4.569523733849339 20 -70.67028583380802
-4.581136840121621 20 -70.69381436628758
4.569523733849342 20 -49.32971416619198
-4.581136840121625 20 -49.30618563371242
-5.329070518200751e-15 16.5899459727117 -76.05881589412131
4.904595271653985 16.5208525390284 -76.0833459393268
-4.90459527165399 16.52085253902839 -76.0833459393268
0 16.58994597271168 -83.94118410587869
4.904595271653971 16.52085253902838 -83.9166540606732
-4.904595271653971 16.52085253902838 -83.9166540606732
0 20 -110.4515344439923
0 20 -89.54846555600767
-3.606448535312403 20 -100
3.606448535312403 20 -100
3.595970717959071 20 -106.4727511588735
-2.628887738496145 20 -105.6242852095227
-3.595970717959066 20 -93.52724884112646
2.628887738496149 20 -94.37571479047735
4.498184887432094 20 -110.5671875728804
-4.609110881032564 20 -110.936204069796
-4.4981848874321 20 -89.43281242711961
4.609110881032563 20 -89.06379593020399
-4.861111111111109 12.74443403765049 -117.4240770568202
4.861111111111111 12.74443403765049 -117.4240770568202
0 9.720015217438348 -118.4978278667772
0 15.76740561683424 -116.3508400567285
5.055555555555555 16.73495913591701 -116.007332283318
5.055555555555555 8.753619491178288 -118.8409245922955
-5.055555555555555 16.73495913591701 -116.007332283318
-5.055555555555555 8.753619491178288 -118.8409245922955
3.201884827411533 9.549827286000172 -83.12528535822777
-3.703670981980529 9.317046683085858 -83.13848751197877
-2.357174614176788 4.519398491103583 -80
2.37733881085326 4.519398491103583 -80
11.51486061818004 4.519398491103583 -80
-11.51486061818004 4.519398491103583 -80
7.074571707578357 4.519398491103583 -80
-7.217612370222106 4.519398491103583 -80
-3.196154506483193 14.88178934951407 -79.97265427615613
3.196154506483152 14.88178934951408 -79.97265427615615
9.024762251947688 12.25710912770394 -79.97265427615615
-9.024762251947726 12.25710912770391 -79.97265427615615
13.26168539330248 7.470659837102128 -80.02734572384385
-13.24508067148366 7.500059724996411 -80
3.201884827411654 9.549827286000109 -76.87471464177221
-3.703670981980206 9.317046683085932 -76.86151248802121
3.201884827411534 9.549827286000173 -43.12528535822778
-3.703670981980529 9.317046683085858 -43.13848751197878
-2.336664876575567 4.519398491103583 -39.94901586618545
2.380757100453458 4.519398491103583 -39.99150264436425
11.51486061818004 4.519398491103583 -40
7.074978646816476 4.519398491103583 -39.99898841004337
-6.354060773110275 4.519398491103583 -39.98980317323709
-3.196154506483196 14.88178934951407 -40.02734572384385
3.196154506483148 14.88178934951408 -39.97265427615615
9.02476225194769 12.25710912770394 -40.02734572384385
13.26168539330248 7.470659837102128 -40.02734572384385
-8.997550220406174 12.27709851324375 -40
-13.26168539330249 7.470659837102116 -40.02734572384384
3.201884827411654 9.549827286000109 -36.87471464177221
-3.703670981980205 9.31704668308593 -36.86151248802121
-0.8901839757878407 11.7488869719102 -90.72581047881407
-0.8901839757878007 11.74888697191021 -50.72581047881404
-0.8901839757878127 11.74888697191022 -69.27418952118597
-0.8524845560563712 11.74757050244438 -29.36237525979806
-1.77635683940025e-15 11.34674278080748 -108.7110928371966
0 10.27011701540827 -99.66785292343965
-1.77635683940025e-15 10.1858339566513 -60.00000000000001
0.2488571423623488 8.592298250794764 -12.01778396971588
-1.77635683940025e-15 9.414166916684874 -20.67993036470649
-2.478159794235642 5.613430994829507 -89.67872121212331
2.478159794235642 5.613430994829484 -70.20137510233774
-2.478159794235635 5.613430994829491 -30.23041380514488
-2.093391366642908 13.44718074850255 -6.433307137738316
-3.160864238422481 5.705066127708806 -113.9086730457275
3.16086423842248 5.705066127708805 -113.9086730457275
1.126048661863119 5.613430994829508 -50.36368414242628
2.42582268402905 6.548975220117045 -94.41336581838499

CELLS 3104 13638
1 0
1 1
1 2
1 3
1 4
1 5
1 6
1 7
1 8
1 9
1 10
1 11
1 12
1 13
1 14
1 15
1 16
1 17
1 18
1 19
1 20
1 21
1 22
1 23
1 24
1 25
1 26
1 27
1 28
1 29
1 30
1 31
1 32
1 33
1 34
1 35
1 36
1 37
1 38
1 39
1 40
1 41
1 42
1 43
1 44
1 45
1 46
1 47
1 48
1 49
1 50
1 51
1 52
1 53
1 54
1 55
1 56
1 57
1 58
1 59
1 60
1 61
1 62
1 63
1 64
1 65
2 0 66
2 66 1
2 1 2
2 2 67
2 67 3
2 3 68
2 68 69
2 69 70
2 70 71
2 71 4
2 4 5
2 5 6
2 6 72
2 72 73
2 73 74
2 74 7
2 8 7
2 8 9
2 9 75
2 75 76
2 76 77
2 77 78
2 78 10
2 11 79
2 79 10
2 12 11
2 13 80
2 80 12
2 13 81
2 81 82
2 82 83
2 83 84
2 84 14
2 15 85
2 85 14
2 16 15
2 17 86
2 86 16
2 17 87
2 87 88
2 88 89
2 89 90
2 90 91
2 91 18
2 19 92
2 92 93
2 93 18
2 20 94
2 94 95
2 95 96
2 96 97
2 97 98
2 98 19
2 20 99
2 99 21
2 21 22
2 22 100
2 100 23
2 0 101
2 101 102
2 102 103
2 103 104
2 104 23
2 1 105
2 105 106
2 106 107
2 107 108
2 108 109
2 109 110
2 110 111
2 111 12
2 24 112
2 112 13
2 24 113
2 113 114
2 114 25
2 25 115
2 115 0
2 2 116
2 116 117
2 117 118
2 118 119
2 119 120
2 120 121
2 121 122
2 122 11
2 3 123
2 123 26
2 26 124
2 124 125
2 125 27
2 10 126
2 126 27
2 4 127
2 127 128
2 128 28
2 29 129
2 129 130
2 130 131
2 131 132
2 132 28
2 26 133
2 133 29
2 31 134
2 134 135
2 135 136
2 136 30
2 8 137
2 137 138
2 138 139
2 139 31
2 32 140
2 140 141
2 141 9
2 32 142
2 142 143
2 143 28
2 5 144
2 144 145
2 145 146
2 146 30
2 6 147
2 147 148
2 148 149
2 149 33
2 30 33
2 34 150
2 150 151
2 151 152
2 152 33
2 7 153
2 153 154
2 154 155
2 155 34
2 31 34
2 32 156
2 156 157
2 157 158
2 158 159
2 159 35
2 27 160
2 160 35
2 36 161
2 161 24
2 37 162
2 162 163
2 163 164
2 164 165
2 165 36
2 38 166
2 166 37
2 14 167
2 167 38
2 23 168
2 168 39
2 39 169
2 169 170
2 170 38
2 22 171
2 171 172
2 172 173
2 173 174
2 174 175
2 175 176
2 176 177
2 177 15
2 21 178
2 178 179
2 179 180
2 180 181
2 181 182
2 182 183
2 183 184
2 184 16
2 40 185
2 185 17
2 40 186
2 186 187
2 187 41
2 41 188
2 188 20
2 42 189
2 189 40
2 43 190
2 190 191
2 191 192
2 192 193
2 193 42
2 44 194
2 194 195
2 195 43
2 18 44
2 45 196
2 196 197
2 197 44
2 19 45
2 46 198
2 198 41
2 47 199
2 199 200
2 200 201
2 201 202
2 202 46
2 45 203
2 203 204
2 204 47
2 48 205
2 205 25
2 49 206
2 206 207
2 207 208
2 208 209
2 209 48
2 39 210
2 210 49
2 48 211
2 211 212
2 212 36
2 29 213
2 213 214
2 214 35
2 49 215
2 215 216
2 216 37
2 46 217
2 217 218
2 218 42
2 47 219
2 219 220
2 220 43
2 50 221
2 221 51
2 51 222
2 222 50
2 50 223
2 223 52
2 52 224
2 224 225
2 225 226
2 226 227
2 227 228
2 228 53
2 53 229
2 229 51
2 52 54
2 54 230
2 230 55
2 55 231
2 231 56
2 56 232
2 232 57
2 53 57
2 54 233
2 233 234
2 234 235
2 235 236
2 236 237
2 237 57
2 55 238
2 238 56
2 58 239
2 239 59
2 59 240
2 240 58
2 58 241
2 241 60
2 60 242
2 242 243
2 243 244
2 244 245
2 245 246
2 246 61
2 61 247
2 247 59
2 60 62
2 62 248
2 248 63
2 63 249
2 249 64
2 64 250
2 250 65
2 61 65
2 62 251
2 251 252
2 252 253
2 253 254
2 254 255
2 255 65
2 63 256
2 256 64
3 66 282 0
3 0 259 101
3 0 275 259
3 0 282 275
3 2 298 1
3 1 298 66
3 67 298 2
3 3 282 67
3 68 276 3
3 276 301 3
3 3 301 282
3 5 6 4
3 4 6 72
3 4 274 71
3 72 274 4
3 8 9 7
3 7 9 74
3 9 264 74
3 75 309 9
3 9 309 264
3 10 260 78
3 79 283 10
3 10 265 260
3 10 283 265
3 12 296 11
3 11 296 79
3 80 296 12
3 13 283 80
3 81 273 13
3 273 305 13
3 13 305 283
3 14 258 84
3 85 284 14
3 14 308 258
3 284 308 14
3 16 297 15
3 15 297 85
3 86 297 16
3 17 284 86
3 87 257 17
3 257 267 17
3 267 284 17
3 18 307 91
3 93 307 18
3 19 306 92
3 98 306 19
3 20 304 94
3 99 285 20
3 285 303 20
3 303 304 20
3 22 295 21
3 21 295 99
3 100 295 22
3 23 285 100
3 104 292 23
3 23 292 278
3 278 303 23
3 23 303 285
3 66 298 282
3 282 298 67
3 69 272 68
3 272 276 68
3 70 289 69
3 69 289 272
3 71 271 70
3 271 289 70
3 71 274 271
3 73 274 72
3 74 264 73
3 264 274 73
3 76 291 75
3 291 309 75
3 77 266 76
3 266 291 76
3 78 290 77
3 77 290 266
3 260 290 78
3 79 296 283
3 283 296 80
3 82 299 81
3 81 299 273
3 83 263 82
3 263 299 82
3 84 280 83
3 83 280 263
3 258 280 84
3 85 297 284
3 284 297 86
3 88 288 87
3 87 288 257
3 89 262 88
3 262 288 88
3 90 287 89
3 89 287 262
3 91 294 90
3 90 294 287
3 91 307 294
3 92 261 93
3 92 306 261
3 261 307 93
3 94 268 95
3 94 304 268
3 95 286 96
3 268 286 95
3 96 269 97
3 96 286 269
3 97 293 98
3 269 293 97
3 293 306 98
3 99 295 285
3 285 295 100
3 101 300 102
3 259 300 101
3 102 281 103
3 102 300 281
3 103 270 104
3 103 281 270
3 270 292 104
3 257 277 267
3 257 310 277
3 288 310 257
3 270 280 258
3 258 292 270
3 278 292 258
3 258 308 278
3 259 275 273
3 273 279 259
3 279 300 259
3 265 276 260
3 276 290 260
3 293 294 261
3 261 306 293
3 294 307 261
3 262 287 286
3 286 288 262
3 263 281 279
3 279 299 263
3 280 281 263
3 264 302 274
3 264 309 302
3 275 301 265
3 265 305 275
3 265 301 276
3 283 305 265
3 266 289 271
3 271 291 266
3 272 289 266
3 266 290 272
3 277 278 267
3 278 308 267
3 267 308 284
3 268 288 286
3 268 310 288
3 304 310 268
3 286 287 269
3 287 293 269
3 270 281 280
3 274 302 271
3 271 302 291
3 272 290 276
3 275 305 273
3 273 299 279
3 282 301 275
3 277 303 278
3 277 304 303
3 277 310 304
3 281 300 279
3 287 294 293
3 302 309 291
3 0 311 66
3 115 311 0
3 66 311 1
3 1 311 105
3 12 312 80
3 111 312 12
3 80 312 13
3 13 312 112
3 109 24 110
3 113 24 109
3 24 313 110
3 112 313 24
3 106 25 107
3 106 314 25
3 114 107 25
3 25 314 115
3 105 314 106
3 311 314 105
3 108 107 114
3 109 108 113
3 113 108 114
3 110 313 111
3 111 313 312
3 312 313 112
3 115 314 311
3 1 315 2
3 105 315 1
3 2 315 116
3 11 316 12
3 122 316 11
3 12 316 111
3 106 322 105
3 116 315 105
3 105 322 116
3 107 319 106
3 106 319 117
3 117 322 106
3 108 317 107
3 107 317 118
3 118 319 107
3 109 318 108
3 119 317 108
3 108 318 119
3 110 320 109
3 120 318 109
3 109 320 120
3 111 321 110
3 121 320 110
3 110 321 121
3 111 316 122
3 122 321 111
3 116 322 117
3 117 319 118
3 118 317 119
3 119 318 120
3 120 320 121
3 121 321 122
3 2 324 67
3 116 324 2
3 67 324 3
3 3 324 123
3 10 323 79
3 126 323 10
3 79 323 11
3 11 323 122
3 117 118 26
3 26 325 117
3 26 118 124
3 123 325 26
3 120 121 27
3 120 27 125
3 121 326 27
3 27 326 126
3 117 325 116
3 116 325 324
3 124 118 119
3 120 125 119
3 124 119 125
3 122 326 121
3 323 326 122
3 324 325 123
3 126 326 323
3 3 341 68
3 123 341 3
3 71 338 4
3 4 338 127
3 26 327 123
3 133 327 26
3 128 340 28
3 28 340 132
3 129 336 29
3 29 336 133
3 68 330 69
3 68 341 330
3 69 331 70
3 330 331 69
3 70 333 71
3 331 333 70
3 333 338 71
3 327 335 123
3 335 341 123
3 127 329 128
3 127 338 329
3 329 340 128
3 130 332 129
3 332 336 129
3 131 328 130
3 328 332 130
3 132 334 131
3 131 334 328
3 132 340 334
3 133 336 327
3 332 335 327
3 327 336 332
3 328 339 332
3 334 337 328
3 337 339 328
3 333 337 329
3 329 338 333
3 329 337 334
3 334 340 329
3 330 339 331
3 335 339 330
3 330 341 335
3 331 337 333
3 331 339 337
3 332 339 335
3 5 4 342
3 4 127 342
3 144 5 342
3 9 8 343
3 8 137 343
3 141 9 343
3 30 28 136
3 146 28 30
3 128 28 146
3 28 143 136
3 31 134 32
3 31 32 139
3 134 142 32
3 139 32 140
3 128 145 127
3 127 145 144
3 127 144 342
3 145 128 146
3 142 134 135
3 143 135 136
3 143 142 135
3 137 138 141
3 137 141 343
3 138 139 140
3 138 140 141
3 5 347 6
3 144 347 5
3 6 347 147
3 33 344 30
3 30 344 146
3 149 344 33
3 145 346 144
3 144 346 147
3 147 347 144
3 146 345 145
3 145 345 148
3 148 346 145
3 146 344 149
3 149 345 146
3 147 346 148
3 148 345 149
3 6 358 72
3 147 358 6
3 74 360 7
3 7 360 153
3 33 359 149
3 152 359 33
3 34 357 150
3 155 357 34
3 72 356 73
3 72 358 356
3 73 348 74
3 73 356 348
3 348 360 74
3 148 350 147
3 350 358 147
3 149 352 148
3 148 352 350
3 149 359 352
3 150 355 151
3 150 357 355
3 151 349 152
3 151 355 349
3 349 359 152
3 153 354 154
3 153 360 354
3 154 351 155
3 154 354 351
3 351 357 155
3 353 354 348
3 348 356 353
3 354 360 348
3 349 353 352
3 352 359 349
3 349 355 353
3 352 353 350
3 353 356 350
3 356 358 350
3 351 354 353
3 353 355 351
3 355 357 351
3 8 7 364
3 7 153 364
3 137 8 364
3 34 31 361
3 31 139 361
3 155 34 361
3 138 137 363
3 137 153 363
3 153 137 364
3 139 138 362
3 138 154 362
3 154 138 363
3 139 155 361
3 155 139 362
3 153 154 363
3 154 155 362
3 75 9 376
3 9 141 376
3 10 78 379
3 126 10 379
3 27 126 365
3 160 27 365
3 140 32 378
3 32 156 378
3 159 35 374
3 35 160 374
3 76 75 371
3 371 75 376
3 77 76 369
3 369 76 371
3 78 77 368
3 368 77 369
3 78 368 379
3 365 126 373
3 373 126 379
3 141 140 367
3 367 140 378
3 141 367 376
3 156 157 372
3 156 372 378
3 157 158 366
3 157 366 372
3 158 159 370
3 366 158 370
3 370 159 374
3 160 365 374
3 370 365 373
3 365 370 374
3 366 370 377
3 372 366 375
3 375 366 377
3 371 367 375
3 367 371 376
3 367 372 375
3 372 367 378
3 368 369 377
3 373 368 377
3 368 373 379
3 369 371 375
3 369 375 377
3 370 373 377
3 81 13 394
3 13 112 394
3 14 84 395
3 167 14 395
3 112 24 381
3 24 161 381
3 161 36 389
3 36 165 389
3 162 37 388
3 37 166 388
3 166 38 380
3 38 167 380
3 82 81 383
3 383 81 394
3 83 82 385
3 82 383 385
3 84 83 384
3 384 83 385
3 84 384 395
3 112 381 390
3 112 390 394
3 381 161 389
3 163 162 386
3 386 162 388
3 164 163 382
3 382 163 386
3 165 164 387
3 164 382 387
3 165 387 389
3 166 380 388
3 380 167 391
3 391 167 395
3 380 386 388
3 386 380 391
3 387 381 389
3 381 387 390
3 382 386 393
3 387 382 392
3 392 382 393
3 385 383 392
3 383 390 392
3 390 383 394
3 384 385 393
3 391 384 393
3 384 391 395
3 385 392 393
3 386 391 393
3 390 387 392
3 14 396 85
3 167 396 14
3 85 396 15
3 15 396 177
3 22 397 100
3 171 397 22
3 100 397 23
3 23 397 168
3 38 398 167
3 175 38 170
3 175 176 38
3 176 398 38
3 168 399 39
3 39 173 169
3 172 173 39
3 39 399 172
3 167 398 396
3 397 399 168
3 169 174 170
3 169 173 174
3 175 170 174
3 172 399 171
3 171 399 397
3 177 398 176
3 396 398 177
3 15 403 16
3 177 403 15
3 16 403 184
3 21 402 22
3 178 402 21
3 22 402 171
3 171 407 172
3 171 402 178
3 178 407 171
3 172 400 173
3 179 400 172
3 172 407 179
3 173 406 174
3 173 400 180
3 180 406 173
3 174 404 175
3 181 404 174
3 174 406 181
3 175 405 176
3 175 404 182
3 182 405 175
3 176 401 177
3 183 401 176
3 176 405 183
3 177 401 184
3 184 403 177
3 179 407 178
3 180 400 179
3 181 406 180
3 182 404 181
3 183 405 182
3 184 401 183
3 16 408 86
3 184 408 16
3 86 408 17
3 17 408 185
3 20 409 99
3 188 409 20
3 99 409 21
3 21 409 178
3 182 40 183
3 186 40 182
3 40 411 183
3 185 411 40
3 179 41 180
3 179 410 41
3 187 180 41
3 41 410 188
3 178 410 179
3 409 410 178
3 181 180 187
3 182 181 186
3 186 181 187
3 183 411 184
3 184 411 408
3 408 411 185
3 188 410 409
3 87 17 428
3 17 185 428
3 44 18 429
3 18 91 429
3 185 40 412
3 40 189 412
3 189 42 422
3 42 193 422
3 190 43 421
3 43 195 421
3 194 44 423
3 423 44 429
3 88 87 416
3 416 87 428
3 89 88 418
3 88 416 418
3 90 89 415
3 415 89 418
3 91 90 417
3 90 415 417
3 91 417 429
3 185 412 424
3 185 424 428
3 412 189 422
3 191 190 419
3 419 190 421
3 192 191 414
3 414 191 419
3 193 192 420
3 192 414 420
3 193 420 422
3 195 194 413
3 413 194 423
3 195 413 421
3 420 412 422
3 412 420 424
3 417 413 423
3 413 417 427
3 421 413 427
3 414 419 425
3 420 414 426
3 414 425 426
3 417 415 427
3 415 418 425
3 415 425 427
3 418 416 426
3 416 424 426
3 424 416 428
3 417 423 429
3 425 418 426
3 419 421 427
3 425 419 427
3 424 420 426
3 44 432 18
3 18 432 93
3 19 430 45
3 92 430 19
3 197 432 44
3 45 430 196
3 93 431 92
3 196 430 92
3 92 431 196
3 197 431 93
3 93 432 197
3 196 431 197
3 45 450 19
3 19 450 98
3 94 449 20
3 20 449 188
3 188 433 41
3 41 433 198
3 203 444 45
3 444 450 45
3 198 443 46
3 46 443 202
3 199 442 47
3 47 442 204
3 95 437 94
3 437 449 94
3 96 439 95
3 95 439 437
3 97 436 96
3 436 439 96
3 98 438 97
3 97 438 436
3 98 450 438
3 188 445 433
3 188 449 445
3 433 443 198
3 200 440 199
3 440 442 199
3 201 435 200
3 435 440 200
3 202 441 201
3 201 441 435
3 202 443 441
3 204 434 203
3 434 444 203
3 204 442 434
3 441 443 433
3 433 445 441
3 438 444 434
3 434 448 438
3 442 448 434
3 435 446 440
3 441 447 435
3 435 447 446
3 438 448 436
3 436 446 439
3 436 448 446
3 439 447 437
3 437 447 445
3 445 449 437
3 438 450 444
3 446 447 439
3 440 448 442
3 446 448 440
3 445 447 441
3 101 465 0
3 0 465 115
3 23 466 104
3 168 466 23
3 115 452 25
3 25 452 205
3 39 451 168
3 210 451 39
3 205 460 48
3 48 460 209
3 206 459 49
3 49 459 210
3 102 455 101
3 455 465 101
3 103 456 102
3 102 456 455
3 104 454 103
3 454 456 103
3 104 466 454
3 115 462 452
3 115 465 462
3 451 461 168
3 461 466 168
3 452 460 205
3 207 457 206
3 457 459 206
3 208 453 207
3 453 457 207
3 209 458 208
3 208 458 453
3 209 460 458
3 210 459 451
3 451 459 457
3 457 461 451
3 458 460 452
3 452 462 458
3 453 464 457
3 458 463 453
3 463 464 453
3 454 464 456
3 461 464 454
3 454 466 461
3 456 463 455
3 455 463 462
3 462 465 455
3 456 464 463
3 457 464 461
3 462 463 458
3 113 468 24
3 24 468 161
3 25 469 114
3 205 469 25
3 161 468 36
3 36 468 212
3 48 469 205
3 211 469 48
3 114 467 113
3 467 468 113
3 114 469 467
3 212 467 211
3 467 469 211
3 212 468 467
3 124 472 26
3 26 472 133
3 27 471 125
3 160 471 27
3 133 472 29
3 29 472 213
3 35 471 160
3 214 471 35
3 125 470 124
3 470 472 124
3 125 471 470
3 213 470 214
3 213 472 470
3 470 471 214
3 132 482 28
3 28 482 143
3 29 481 129
3 213 481 29
3 142 483 32
3 32 483 156
3 159 484 35
3 35 484 214
3 129 478 130
3 129 481 478
3 130 476 131
3 130 478 476
3 131 479 132
3 476 479 131
3 479 482 132
3 143 474 142
3 474 483 142
3 143 482 474
3 156 477 157
3 156 483 477
3 157 475 158
3 157 477 475
3 158 480 159
3 475 480 158
3 480 484 159
3 214 473 213
3 473 481 213
3 214 484 473
3 473 480 478
3 478 481 473
3 473 484 480
3 474 479 477
3 477 483 474
3 474 482 479
3 475 477 476
3 476 478 475
3 478 480 475
3 477 479 476
3 30 485 33
3 136 485 30
3 34 487 31
3 31 487 134
3 33 485 152
3 150 487 34
3 134 488 135
3 134 487 150
3 150 488 134
3 135 486 136
3 151 486 135
3 135 488 151
3 152 485 136
3 136 486 152
3 151 488 150
3 152 486 151
3 36 500 165
3 212 500 36
3 162 498 37
3 37 498 216
3 209 499 48
3 48 499 211
3 49 497 206
3 215 497 49
3 163 493 162
3 493 498 162
3 164 492 163
3 492 493 163
3 165 495 164
3 164 495 492
3 165 500 495
3 206 494 207
3 206 497 494
3 207 491 208
3 207 494 491
3 208 496 209
3 491 496 208
3 496 499 209
3 211 490 212
3 211 499 490
3 490 500 212
3 216 489 215
3 489 497 215
3 216 498 489
3 493 494 489
3 489 498 493
3 494 497 489
3 490 496 495
3 495 500 490
3 490 499 496
3 491 494 492
3 492 496 491
3 492 494 493
3 495 496 492
3 37 503 166
3 216 503 37
3 166 503 38
3 38 503 170
3 169 502 39
3 39 502 210
3 210 502 49
3 49 502 215
3 170 501 169
3 501 502 169
3 170 503 501
3 215 501 216
3 215 502 501
3 501 503 216
3 186 506 40
3 40 506 189
3 41 505 187
3 198 505 41
3 189 506 42
3 42 506 218
3 46 505 198
3 217 505 46
3 187 504 186
3 504 506 186
3 187 505 504
3 218 504 217
3 504 505 217
3 218 506 504
3 42 517 193
3 218 517 42
3 190 516 43
3 43 516 220
3 202 518 46
3 46 518 217
3 47 515 199
3 219 515 47
3 191 512 190
3 512 516 190
3 192 509 191
3 509 512 191
3 193 513 192
3 192 513 509
3 193 517 513
3 199 511 200
3 199 515 511
3 200 510 201
3 200 511 510
3 201 514 202
3 510 514 201
3 514 518 202
3 217 508 218
3 217 518 508
3 508 517 218
3 220 507 219
3 507 515 219
3 220 516 507
3 507 512 511
3 511 515 507
3 507 516 512
3 508 514 513
3 513 517 508
3 508 518 514
3 510 512 509
3 509 514 510
3 513 514 509
3 511 512 510
3 43 525 195
3 220 525 43
3 194 526 44
3 44 526 197
3 196 524 45
3 45 524 203
3 204 523 47
3 47 523 219
3 195 519 194
3 519 526 194
3 195 525 519
3 197 521 196
3 521 524 196
3 197 526 521
3 203 520 204
3 203 524 520
3 520 523 204
3 219 522 220
3 219 523 522
3 522 525 220
3 519 522 521
3 521 526 519
3 519 525 522
3 521 522 520
3 520 524 521
3 522 523 520
3 221 222 50
3 222 221 51
3 221 50 527
3 50 223 527
3 51 221 528
3 229 51 528
3 52 224 223
3 228 53 229
3 221 527 528
3 223 224 527
3 224 225 527
3 225 226 527
3 226 227 528
3 527 226 528
3 227 228 528
3 228 229 528
3 222 530 50
3 50 533 223
3 530 533 50
3 51 529 222
3 229 534 51
3 51 534 529
3 52 531 54
3 223 531 52
3 57 532 53
3 53 532 229
3 54 531 230
3 230 533 55
3 55 530 231
3 55 533 530
3 231 529 56
3 56 534 232
3 529 534 56
3 232 532 57
3 529 530 222
3 223 533 531
3 532 534 229
3 531 533 230
3 231 530 529
3 232 534 532
3 52 54 539
3 224 52 539
3 57 53 540
3 53 228 540
3 54 233 539
3 237 57 540
3 225 224 537
3 224 233 537
3 233 224 539
3 226 225 536
3 225 234 536
3 234 225 537
3 227 226 535
3 226 235 535
3 235 226 536
3 228 227 538
3 236 227 535
3 227 236 538
3 237 228 538
3 228 237 540
3 233 234 537
3 234 235 536
3 235 236 535
3 236 237 538
3 54 230 233
3 230 55 541
3 55 238 541
3 56 232 542
3 238 56 542
3 237 232 57
3 233 230 541
3 232 237 542
3 234 233 541
3 235 234 541
3 236 235 542
3 235 541 542
3 237 236 542
3 541 238 542
3 231 238 55
3 238 231 56
3 239 240 58
3 239 59 240
3 239 58 543
3 58 241 543
3 59 239 544
3 247 59 544
3 60 242 241
3 246 61 247
3 239 543 544
3 241 242 543
3 242 243 543
3 243 244 543
3 244 245 544
3 543 244 544
3 245 246 544
3 246 247 544
3 240 546 58
3 58 548 241
3 546 548 58
3 59 545 240
3 247 549 59
3 59 549 545
3 60 547 62
3 241 547 60
3 65 250 61
3 61 250 247
3 62 547 248
3 248 548 63
3 63 546 249
3 63 548 546
3 249 545 64
3 64 549 250
3 545 549 64
3 545 546 240
3 241 548 547
3 250 549 247
3 547 548 248
3 249 546 545
3 60 62 553
3 242 60 553
3 65 61 555
3 61 246 555
3 62 251 553
3 255 65 555
3 243 242 552
3 242 251 552
3 251 242 553
3 244 243 551
3 243 252 551
3 252 243 552
3 245 244 550
3 244 253 550
3 253 244 551
3 246 245 554
3 254 245 550
3 245 254 554
3 255 246 554
3 246 255 555
3 251 252 552
3 252 253 551
3 253 254 550
3 254 255 554
3 62 248 251
3 248 63 556
3 63 256 556
3 64 250 557
3 256 64 557
3 255 250 65
3 251 248 556
3 250 255 557
3 252 251 556
3 253 252 556
3 254 253 557
3 253 556 557
3 255 254 557
3 556 256 557
3 249 256 63
3 256 249 64
4 264 302 309 565
4 436 562 269 563
4 383 299 263 564
4 299 279 263 573
4 383 299 564 573
4 299 263 564 573
4 65 255 122 326
4 57 237 177 398
4 264 309 376 565
4 279 564 263 573
4 262 415 418 563
4 366 372 375 565
4 334 328 337 565
4 384 560 393 564
4 334 479 476 565
4 440 511 562 563
4 269 562 287 563
4 418 426 416 574
4 269 562 436 572
4 340 479 334 570
4 127 329 338 565
4 330 566 561 569
4 340 334 565 570
4 383 385 392 263
4 505 518 443 558
4 302 356 274 565
4 383 564 392 573
4 24 110 313 246
4 40 183 411 228
4 464 454 456 564
4 263 392 383 564
4 482 479 340 570
4 366 565 375 566
4 337 565 328 566
4 264 376 348 565
4 463 456 455 564
4 384 280 560 564
4 385 392 263 564
4 251 556 123 26
4 348 565 376 570
4 527 224 188 41
4 242 543 25 115
4 233 541 168 39
4 415 562 425 563
4 446 562 436 563
4 499 460 469 559
4 502 459 497 560
4 141 348 376 570
4 464 454 564 568
4 329 340 334 565
4 287 562 415 563
4 463 564 455 573
4 26 117 325 251
4 39 172 399 233
4 106 25 314 242
4 179 41 410 224
4 334 476 328 565
4 63 335 256 569
4 482 340 143 570
4 418 262 563 574
4 479 565 334 570
4 366 477 372 565
4 304 50 449 574
4 426 567 416 574
4 221 445 50 574
4 286 439 436 563
4 513 558 420 563
4 418 563 426 574
4 330 339 561 566
4 286 436 269 563
4 560 564 280 568
4 238 560 56 568
4 348 356 565 570
4 519 525 413 562
4 520 434 523 562
4 392 564 559 573
4 270 456 454 564
4 340 565 329 570
4 414 513 420 563
4 107 106 319 25
4 38 175 405 176
4 128 143 340 570
4 518 504 508 558
4 328 565 476 566
4 481 472 336 561
4 440 562 446 563
4 419 425 562 563
4 415 425 418 563
4 446 436 439 563
4 366 477 565 566
4 262 287 415 563
4 238 56 231 568
4 128 340 329 570
4 221 50 567 574
4 495 559 387 564
4 493 386 560 564
4 440 510 511 563
4 249 63 256 569
4 518 441 443 558
4 330 561 335 569
4 270 564 454 568
4 383 392 559 573
4 110 109 320 24
4 121 120 27 320
4 221 50 222 567
4 504 518 505 558
4 448 436 446 562
4 415 427 425 562
4 369 375 371 565
4 333 337 331 565
4 330 339 335 561
4 415 562 287 571
4 447 441 563 574
4 505 443 433 558
4 476 565 477 566
4 482 474 479 570
4 499 467 490 559
4 501 497 489 560
4 469 467 499 559
4 502 497 501 560
4 421 525 516 562
4 280 384 560 568
4 172 173 400 39
4 40 405 182 183
4 319 118 26 117
4 495 387 382 564
4 493 382 386 564
4 463 559 458 564
4 457 560 464 564
4 469 460 452 559
4 502 451 459 560
4 523 434 442 562
4 413 525 421 562
4 416 567 288 574
4 522 516 525 562
4 370 561 480 566
4 499 458 460 559
4 457 497 459 560
4 472 481 470 561
4 436 562 448 572
4 427 562 415 571
4 369 375 565 566
4 331 565 337 566
4 458 559 496 564
4 457 494 560 564
4 420 558 426 563
4 348 353 356 570
4 476 479 477 565
4 258 56 395 391
4 391 56 560 568
4 558 563 441 574
4 330 272 566 569
4 287 571 562 572
4 367 141 376 570
4 494 453 491 564
4 496 491 453 564
4 367 376 565 570
4 523 442 515 562
4 473 470 481 561
4 387 559 392 564
4 419 414 425 563
4 440 446 435 563
4 256 335 561 569
4 493 560 494 564
4 496 559 495 564
4 391 560 384 568
4 445 221 558 574
4 393 560 386 564
4 419 562 512 563
4 512 562 511 563
4 127 356 350 353
4 435 447 441 563
4 414 420 426 563
4 445 449 50 574
4 356 264 302 274
4 523 515 522 562
4 464 564 560 568
4 385 263 280 564
4 281 564 279 573
4 53 228 411 184
4 472 327 336 561
4 369 371 266 565
4 286 269 287 563
4 463 458 453 564
4 387 392 382 564
4 342 347 5 144
4 343 137 8 364
4 522 507 516 562
4 463 559 564 573
4 457 464 453 564
4 393 386 382 564
4 480 366 370 566
4 436 448 438 572
4 417 427 415 571
4 61 246 313 111
4 270 281 456 564
4 269 436 293 572
4 391 258 56 568
4 300 281 279 573
4 522 525 519 562
4 520 523 522 562
4 441 558 514 563
4 369 565 266 566
4 496 453 458 564
4 494 457 453 564
4 421 516 419 562
4 304 449 268 574
4 448 446 440 562
4 425 427 419 562
4 310 304 268 574
4 510 440 435 563
4 414 419 509 563
4 335 276 63 341
4 515 507 522 562
4 509 513 414 563
4 480 561 478 566
4 514 558 513 563
4 187 504 505 558
4 469 114 467 559
4 502 501 169 560
4 279 281 263 564
4 366 475 477 566
4 493 492 382 564
4 492 495 382 564
4 221 567 558 574
4 390 59 394 573
4 443 441 433 558
4 302 291 309 565
4 270 280 564 568
4 492 496 495 564
4 492 493 494 564
4 426 563 558 574
4 336 332 481 561
4 472 470 124 561
4 395 384 258 391
4 426 558 567 574
4 371 291 266 565
4 56 238 542 560
4 435 441 514 563
4 511 515 440 562
4 515 442 440 562
4 294 417 415 571
4 496 492 491 564
4 494 491 492 564
4 451 457 459 560
4 452 460 458 559
4 221 50 445 527
4 508 504 517 558
4 256 63 556 335
4 276 335 63 569
4 245 318 550 244
4 287 293 571 572
4 339 332 561 566
4 258 391 384 568
4 377 369 368 566
4 331 339 330 566
4 377 566 368 569
4 475 476 477 566
4 500 490 467 559
4 489 498 501 560
4 262 286 287 563
4 517 506 422 558
4 463 462 559 573
4 468 389 500 559
4 498 388 503 560
4 376 309 291 565
4 461 464 560 568
4 239 59 544 573
4 480 475 366 566
4 557 255 126 27
4 505 433 187 558
4 477 565 479 570
4 415 287 294 571
4 469 452 114 559
4 502 169 451 560
4 512 511 510 563
4 468 500 467 559
4 498 503 501 560
4 478 561 332 566
4 229 53 408 532
4 470 473 484 561
4 228 528 185 40
4 542 237 167 38
4 24 544 246 112
4 449 437 268 574
4 59 390 559 573
4 419 512 509 563
4 477 479 474 570
4 124 327 472 561
4 470 484 471 561
4 221 527 445 558
4 366 377 370 566
4 339 328 332 566
4 394 383 390 573
4 517 504 506 558
4 377 561 566 569
4 369 290 368 566
4 377 561 370 566
4 372 565 477 570
4 383 559 390 573
4 439 563 286 574
4 461 464 457 560
4 383 392 390 559
4 286 563 262 574
4 520 434 562 572
4 519 562 413 571
4 384 391 393 560
4 263 281 280 564
4 462 458 463 559
4 290 368 566 569
4 556 256 335 561
4 519 521 522 562
4 520 522 521 562
4 471 484 374 561
4 522 525 516 220
4 341 335 276 330
4 436 438 293 572
4 276 330 335 569
4 515 522 219 523
4 336 327 332 561
4 281 270 280 564
4 509 514 513 563
4 449 445 437 574
4 508 504 518 217
4 60 241 311 547
4 248 62 324 547
4 517 508 218 504
4 480 478 475 566
4 470 471 484 214
4 481 470 213 472
4 254 318 253 550
4 419 516 512 562
4 521 520 562 572
4 521 562 519 571
4 316 11 65 122
4 105 60 1 315
4 515 511 507 562
4 442 434 448 562
4 421 427 413 562
4 220 516 522 507
4 418 425 426 563
4 446 439 447 563
4 339 332 335 561
4 328 478 332 566
4 258 231 56 568
4 372 367 565 570
4 219 507 522 515
4 390 544 59 559
4 473 470 213 481
4 214 484 470 473
4 442 448 440 562
4 421 419 427 562
4 212 467 500 490
4 498 216 489 501
4 500 468 467 212
4 216 498 503 501
4 211 467 490 499
4 497 501 489 215
4 56 542 391 560
4 371 376 291 565
4 499 211 467 469
4 497 502 501 215
4 59 559 544 573
4 354 348 141 570
4 353 352 128 570
4 482 143 474 570
4 506 517 218 504
4 9 141 343 360
4 287 293 294 571
4 504 505 518 217
4 403 53 16 184
4 178 52 21 402
4 403 15 57 177
4 171 22 54 402
4 127 4 342 358
4 514 518 508 558
4 280 258 384 568
4 249 276 63 569
4 239 240 59 573
4 441 445 558 574
4 506 412 422 558
4 116 2 62 315
4 271 302 274 565
4 59 273 394 573
4 422 420 517 558
4 337 329 334 565
4 372 367 375 565
4 468 381 389 559
4 503 388 380 560
4 497 494 489 560
4 499 490 496 559
4 387 500 389 559
4 498 386 388 560
4 504 187 186 558
4 467 114 113 559
4 501 170 169 560
4 497 457 494 560
4 499 496 458 559
4 514 441 518 558
4 316 61 12 111
4 378 372 483 570
4 239 544 559 573
4 447 563 439 574
4 338 329 333 565
4 376 371 367 565
4 435 514 510 563
4 506 504 186 558
4 468 467 113 559
4 503 170 501 560
4 271 274 338 565
4 461 560 451 568
4 516 507 512 562
4 394 273 383 573
4 376 141 264 348
4 353 349 352 570
4 445 433 441 558
4 125 124 470 561
4 462 452 458 559
4 461 457 451 560
4 434 448 562 572
4 413 562 427 571
4 125 470 471 561
4 471 374 365 561
4 478 473 481 561
4 369 266 290 566
4 441 447 445 574
4 272 330 276 569
4 271 338 333 565
4 463 455 462 573
4 377 373 561 569
4 272 290 566 569
4 406 235 536 173
4 435 446 447 563
4 414 426 425 563
4 328 476 478 566
4 431 196 197 571
4 404 235 175 535
4 463 464 456 564
4 392 385 393 564
4 273 299 383 573
4 418 416 88 262
4 484 370 374 561
4 291 271 266 565
4 229 228 185 411
4 247 246 112 313
4 433 527 187 558
4 169 541 451 560
4 452 543 114 559
4 509 512 510 563
4 513 508 517 558
4 490 495 496 559
4 489 494 493 560
4 332 327 335 561
4 406 226 180 536
4 317 244 107 551
4 478 481 332 561
4 299 383 394 273
4 484 473 480 561
4 476 475 478 566
4 124 556 327 561
4 473 478 480 561
4 329 337 333 565
4 375 367 371 565
4 141 367 140 570
4 462 543 452 559
4 424 426 558 567
4 512 507 511 562
4 445 527 433 558
4 331 337 339 566
4 369 377 375 566
4 451 560 541 568
4 462 543 559 573
4 70 331 289 333
4 471 365 125 561
4 422 412 420 558
4 186 412 506 558
4 468 113 381 559
4 503 380 170 560
4 513 517 420 558
4 453 464 463 564
4 382 392 393 564
4 514 509 510 563
4 562 571 521 572
4 495 490 500 559
4 489 493 498 560
4 461 451 541 568
4 377 368 373 569
4 266 289 272 566
4 474 143 142 570
4 513 514 508 558
4 354 353 348 570
4 330 331 289 69
4 335 327 556 561
4 378 483 142 570
4 288 286 262 574
4 381 387 389 559
4 380 388 386 560
4 152 33 359 485
4 142 140 378 570
4 248 251 123 325
4 150 34 487 357
4 142 143 355 570
4 224 223 188 410
4 230 233 168 399
4 242 241 115 314
4 495 500 387 559
4 493 386 498 560
4 461 454 464 568
4 366 375 377 566
4 337 328 339 566
4 270 454 456 103
4 484 480 370 561
4 196 571 431 572
4 371 76 369 266
4 141 140 354 570
4 386 393 391 560
4 424 416 426 567
4 89 415 418 262
4 277 310 222 304
4 90 417 415 294
4 246 111 321 110
4 237 177 176 401
4 390 392 387 559
4 430 450 444 572
4 432 423 429 571
4 364 153 7 360
4 288 88 416 262
4 347 358 6 147
4 424 426 420 558
4 140 32 142 378
4 28 340 128 143
4 33 149 359 344
4 269 293 436 97
4 334 476 479 131
4 34 361 357 155
4 266 371 76 291
4 197 423 432 571
4 430 444 196 572
4 438 436 293 97
4 58 462 465 573
4 370 377 373 561
4 300 455 102 456
4 483 142 32 378
4 340 28 482 143
4 483 372 477 570
4 368 369 77 290
4 268 304 94 449
4 374 370 365 561
4 372 378 367 570
4 266 272 290 566
4 222 50 277 304
4 513 414 420 192
4 526 519 413 571
4 520 524 434 572
4 355 488 150 151
4 261 306 431 572
4 228 184 401 183
4 255 122 121 321
4 307 261 431 571
4 449 94 268 437
4 299 82 383 263
4 543 462 58 573
4 362 154 351 155
4 437 439 95 574
4 196 431 306 572
4 417 413 427 571
4 434 438 448 572
4 302 271 291 565
4 307 431 197 571
4 349 355 143 570
4 261 431 571 572
4 510 511 200 440
4 385 383 82 263
4 349 486 151 152
4 158 480 366 370
4 273 59 240 573
4 9 141 360 264
4 526 413 423 571
4 524 444 434 572
4 406 235 173 174
4 253 318 120 119
4 264 9 376 309
4 360 264 141 348
4 235 175 535 236
4 173 235 536 234
4 465 455 259 573
4 378 156 483 372
4 486 143 135 136
4 134 135 488 142
4 84 395 384 258
4 142 351 140 570
4 521 519 526 571
4 521 524 520 572
4 383 394 81 299
4 286 95 439 574
4 222 529 277 530
4 289 271 70 333
4 431 196 306 92
4 281 270 456 103
4 287 90 415 294
4 57 232 396 532
4 519 195 413 525
4 523 520 204 434
4 307 431 93 197
4 437 95 268 574
4 533 55 530 303
4 476 334 328 131
4 280 384 83 385
4 197 196 521 571
4 262 89 415 287
4 102 281 300 456
4 494 491 453 207
4 453 496 208 491
4 141 9 376 264
4 58 465 259 573
4 372 157 477 366
4 404 235 174 175
4 406 226 181 180
4 317 244 108 107
4 186 528 412 558
4 386 493 163 382
4 382 387 495 164
4 113 544 381 559
4 542 170 380 560
4 180 226 225 536
4 244 107 551 243
4 350 147 346 148
4 289 272 330 69
4 365 557 125 561
4 286 268 95 574
4 345 148 149 352
4 83 280 385 263
4 239 559 543 573
4 390 381 544 559
4 465 462 455 573
4 200 510 440 435
4 542 380 391 560
4 153 363 154 354
4 424 412 528 558
4 424 558 528 567
4 356 358 274 127
4 513 509 414 192
4 158 480 475 366
4 300 259 455 573
4 455 465 259 101
4 430 306 196 92
4 326 27 126 255
4 432 307 93 197
4 557 561 373 569
4 441 514 201 435
4 365 373 557 561
4 543 58 239 573
4 493 163 382 492
4 382 495 492 164
4 420 412 424 558
4 306 450 430 572
4 442 199 515 440
4 261 571 293 572
4 444 524 196 572
4 526 423 197 571
4 239 58 240 573
4 432 429 307 571
4 398 38 167 237
4 381 390 387 559
4 199 511 515 440
4 144 127 346 145
4 137 138 363 141
4 391 380 386 560
4 58 259 240 573
4 294 293 261 571
4 238 541 560 568
4 516 421 419 190
4 430 45 444 450
4 432 44 429 423
4 352 128 350 353
4 195 421 413 525
4 442 523 204 434
4 136 28 30 485
4 32 31 487 134
4 509 419 414 191
4 255 250 126 326
4 127 4 358 274
4 453 457 494 207
4 458 496 208 453
4 237 232 167 398
4 290 369 77 266
4 196 306 430 572
4 416 428 87 567
4 432 307 197 571
4 483 477 474 570
4 261 431 306 92
4 429 417 91 307
4 229 53 411 408
4 93 261 431 307
4 268 288 310 574
4 349 353 355 570
4 140 351 354 570
4 545 240 546 275
4 139 140 362 138
4 345 128 146 145
4 479 482 340 132
4 466 104 454 568
4 196 521 571 572
4 428 257 87 567
4 450 438 306 98
4 259 300 455 101
4 461 541 55 568
4 313 247 61 312
4 73 264 356 274
4 288 567 310 574
4 444 434 203 524
4 526 423 413 194
4 365 370 373 561
4 34 361 487 357
4 249 265 545 546
4 340 334 479 132
4 361 31 32 139
4 146 30 28 344
4 528 558 221 567
4 299 394 81 273
4 256 561 557 569
4 4 127 338 274
4 64 557 373 569
4 288 268 286 574
4 410 52 223 409
4 248 62 325 324
4 314 60 241 311
4 230 54 399 397
4 292 104 466 568
4 351 353 354 570
4 258 384 84 280
4 328 332 478 130
4 222 310 257 567
4 483 474 142 570
4 428 424 51 567
4 419 509 512 191
4 142 355 351 570
4 55 466 461 568
4 379 368 78 569
4 437 447 439 574
4 470 214 473 213
4 71 271 274 338
4 424 528 51 567
4 447 437 445 574
4 512 516 419 190
4 273 279 299 573
4 338 71 271 333
4 367 378 140 570
4 379 78 260 569
4 254 318 120 253
4 438 450 306 572
4 73 264 348 356
4 310 222 257 277
4 429 417 307 571
4 546 249 265 301
4 444 438 434 572
4 417 423 413 571
4 51 222 257 567
4 349 359 352 143
4 260 249 64 569
4 335 63 556 123
4 373 379 64 569
4 156 477 483 372
4 475 477 157 366
4 87 288 416 567
4 462 543 58 115
4 194 413 526 519
4 434 520 203 524
4 277 50 222 530
4 61 246 111 555
4 53 228 184 540
4 57 237 540 177
4 55 461 168 541
4 529 56 308 231
4 74 264 9 360
4 72 358 4 274
4 294 91 417 307
4 231 292 55 568
4 240 545 305 275
4 514 510 201 435
4 222 51 257 267
4 533 23 55 303
4 278 277 529 530
4 65 255 555 122
4 386 162 498 388
4 500 387 389 165
4 64 126 373 557
4 257 288 87 567
4 517 193 420 422
4 258 292 231 568
4 222 529 267 277
4 390 112 59 544
4 485 33 359 344
4 376 75 291 309
4 56 542 167 391
4 356 358 72 274
4 507 522 220 219
4 428 51 257 567
4 50 188 445 527
4 497 457 459 206
4 458 209 499 460
4 55 278 530 303
4 185 17 51 229
4 202 443 518 441
4 231 55 238 568
4 511 199 200 440
4 113 24 544 245
4 186 40 528 227
4 38 170 542 236
4 27 125 557 254
4 438 293 306 98
4 193 420 513 517
4 530 277 50 303
4 64 249 256 569
4 514 202 518 441
4 534 56 308 529
4 260 276 249 569
4 273 240 259 573
4 58 462 115 465
4 59 394 112 390
4 326 65 250 323
4 57 232 398 396
4 168 461 55 466
4 167 395 56 391
4 454 104 270 568
4 371 376 75 291
4 17 51 534 267
4 51 222 529 267
4 355 353 351 570
4 504 508 218 217
4 347 4 358 342
4 478 476 328 130
4 123 335 63 341
4 126 379 64 373
4 428 416 424 567
4 192 420 513 193
4 51 528 424 185
4 267 257 222 277
4 546 265 545 275
4 417 294 307 571
4 222 51 221 567
4 9 343 364 360
4 275 240 58 259
4 10 126 64 250
4 155 140 362 139
4 424 428 51 185
4 445 188 50 449
4 42 517 506 422
4 498 493 162 386
4 387 500 495 165
4 431 261 93 92
4 273 240 275 259
4 308 534 529 267
4 175 235 170 236
4 254 253 120 125
4 173 235 234 169
4 107 244 114 243
4 180 226 187 225
4 532 396 297 85
4 360 74 264 348
4 20 188 50 223
4 374 484 159 370
4 95 96 286 439
4 64 256 557 569
4 55 292 466 568
4 438 444 450 572
4 429 423 417 571
4 368 290 78 569
4 86 532 297 284
4 85 297 532 284
4 238 55 541 568
4 270 104 292 568
4 490 212 467 211
4 501 216 489 215
4 280 270 258 568
4 502 459 49 497
4 469 499 48 460
4 466 454 461 568
4 481 129 332 336
4 503 498 37 388
4 468 389 36 500
4 534 308 284 267
4 293 438 306 572
4 259 58 0 465
4 260 78 290 569
4 132 334 479 131
4 142 355 357 351
4 47 515 523 442
4 528 221 51 567
4 265 10 64 549
4 457 497 494 206
4 499 496 209 458
4 14 167 56 232
4 556 335 123 327
4 505 46 443 518
4 89 90 415 287
4 480 159 484 370
4 112 13 59 247
4 408 532 297 86
4 379 260 64 569
4 278 55 23 303
4 196 524 521 572
4 521 526 197 571
4 115 462 543 452
4 168 461 451 541
4 525 43 421 516
4 515 219 47 523
4 529 534 51 267
4 301 3 63 341
4 298 67 324 547
4 397 100 285 295
4 0 115 58 241
4 290 276 260 569
4 529 267 277 278
4 534 284 17 267
4 270 292 258 568
4 546 63 249 301
4 311 66 298 547
4 282 298 66 547
4 67 298 282 547
4 533 530 50 303
4 201 202 514 441
4 368 379 373 569
4 278 529 308 231
4 260 265 64 249
4 240 305 273 275
4 471 35 374 484
4 472 29 481 336
4 307 93 18 432
4 190 419 512 191
4 300 279 259 573
4 430 19 306 92
4 492 163 382 164
4 385 82 83 263
4 373 126 365 557
4 548 63 546 301
4 123 3 63 248
4 517 218 42 506
4 445 188 433 527
4 285 99 409 295
4 545 305 59 240
4 249 260 265 276
4 381 112 390 544
4 499 48 211 469
4 497 49 502 215
4 332 478 129 481
4 542 167 391 380
4 303 533 23 285
4 456 102 281 103
4 500 36 468 212
4 37 216 498 503
4 516 525 43 220
4 87 88 416 288
4 231 278 55 292
4 293 438 97 98
4 308 14 56 534
4 169 39 541 234
4 124 26 556 252
4 25 114 543 243
4 41 187 527 225
4 493 163 162 386
4 165 495 387 164
4 480 158 159 370
4 326 323 250 126
4 481 213 29 472
4 484 471 35 214
4 71 274 4 338
4 555 246 111 321
4 23 55 278 292
4 232 396 167 398
4 138 363 141 354
4 127 350 346 145
4 307 18 429 432
4 208 209 496 458
4 206 494 457 207
4 265 283 10 549
4 71 70 271 333
4 477 156 157 372
4 50 277 304 303
4 237 540 177 401
4 430 306 19 450
4 471 27 365 160
4 26 472 327 133
4 73 356 72 274
4 273 259 279 573
4 471 27 125 365
4 124 26 472 327
4 265 305 545 275
4 540 228 184 401
4 371 75 76 291
4 51 17 428 257
4 258 308 56 231
4 395 14 56 258
4 528 424 185 412
4 518 505 46 217
4 255 555 122 321
4 345 149 146 352
4 301 265 546 275
4 204 520 203 434
4 413 194 195 519
4 59 13 394 273
4 288 257 310 567
4 301 249 265 276
4 6 4 358 347
4 506 189 422 412
4 433 198 443 505
4 503 38 380 166
4 469 25 452 205
4 39 502 451 210
4 24 468 381 161
4 363 138 154 354
4 548 58 0 275
4 75 376 9 309
4 40 506 412 189
4 505 41 433 198
4 168 23 55 230
4 148 346 350 145
4 517 42 193 422
4 530 278 277 303
4 308 56 14 258
4 140 362 351 155
4 7 9 364 360
4 465 0 259 101
4 530 529 278 231
4 272 276 290 569
4 530 278 55 231
4 123 26 556 327
4 482 28 340 132
4 543 25 115 452
4 451 39 168 541
4 188 41 433 527
4 307 294 261 571
4 417 90 91 294
4 258 278 231 292
4 276 301 63 341
4 503 380 388 166
4 451 459 210 502
4 381 389 161 468
4 469 452 460 205
4 143 135 142 151
4 25 114 469 452
4 169 39 502 451
4 468 113 24 381
4 503 38 170 380
4 308 284 14 534
4 365 160 374 471
4 133 336 472 327
4 483 32 156 378
4 398 57 396 177
4 122 323 65 326
4 436 96 269 97
4 498 162 37 388
4 500 389 36 165
4 41 187 505 433
4 506 186 40 412
4 275 58 0 259
4 83 84 384 280
4 76 77 369 266
4 491 208 453 207
4 142 355 143 151
4 246 111 110 313
4 228 184 183 411
4 306 261 293 572
4 497 459 49 206
4 499 209 48 460
4 128 146 28 359
4 50 20 304 449
4 276 68 3 341
4 267 529 308 278
4 88 89 418 262
4 268 94 95 437
4 64 10 250 549
4 64 265 549 545
4 332 478 130 129
4 167 542 38 380
4 381 24 112 544
4 532 396 85 284
4 185 40 528 412
4 394 13 81 273
4 126 27 365 557
4 35 374 484 159
4 305 59 13 549
4 257 51 17 267
4 3 63 548 301
4 70 289 331 69
4 17 51 229 534
4 80 283 312 296
4 487 361 32 357
4 515 47 199 442
4 429 91 18 307
4 79 323 283 296
4 481 29 129 336
4 443 198 46 505
4 379 10 64 260
4 548 546 58 275
4 64 265 545 249
4 395 84 14 258
4 189 42 506 422
4 357 140 155 139
4 549 305 59 545
4 247 13 59 549
4 104 454 270 103
4 275 0 548 282
4 388 37 503 166
4 49 210 459 502
4 36 161 389 468
4 48 469 460 205
4 86 408 532 284
4 146 128 345 352
4 423 526 44 194
4 444 203 45 524
4 27 125 365 557
4 306 19 450 98
4 140 357 32 139
4 546 240 58 275
4 124 26 327 556
4 305 273 59 240
4 518 46 443 202
4 43 421 195 525
4 311 282 66 547
4 285 533 230 531
4 113 24 381 544
4 38 170 380 542
4 186 40 412 528
4 324 67 282 547
4 368 77 78 290
4 283 265 305 549
4 47 523 204 442
4 169 39 451 541
4 25 114 452 543
4 185 17 428 51
4 20 188 449 50
4 330 272 68 69
4 41 187 433 527
4 304 20 50 303
4 308 258 278 231
4 546 548 301 275
4 185 408 229 411
4 313 247 312 112
4 548 301 275 282
4 342 358 347 147
4 63 249 301 276
4 232 56 14 534
4 364 343 153 360
4 379 78 10 260
4 265 64 10 260
4 533 285 223 531
4 87 428 17 257
4 548 0 58 241
4 383 81 82 299
4 3 301 276 341
4 510 200 201 435
4 301 548 3 282
4 475 157 158 366
4 131 328 476 130
4 485 359 28 344
4 146 128 352 359
4 516 43 421 190
4 355 349 143 151
4 143 359 136 152
4 237 177 398 176
4 255 122 326 121
4 73 264 74 348
4 142 488 150 355
4 292 23 55 466
4 9 7 74 360
4 123 325 324 248
4 149 146 352 359
4 59 13 273 305
4 265 305 549 545
4 336 472 29 133
4 374 160 35 471
4 429 18 44 432
4 19 45 430 450
4 409 410 188 223
4 399 168 230 397
4 311 314 115 241
4 531 52 54 295
4 50 533 303 223
4 102 455 300 101
4 191 414 509 192
4 52 21 402 295
4 22 54 402 295
4 486 143 349 151
4 94 304 20 449
4 548 63 3 248
4 305 13 283 549
4 141 360 348 354
4 358 4 6 72
4 10 126 379 64
4 396 297 57 532
4 1 60 298 315
4 0 115 465 58
4 532 297 53 408
4 173 235 169 174
4 120 253 119 125
4 175 235 174 170
4 107 244 108 114
4 226 180 187 181
4 351 154 362 140
4 298 62 2 315
4 283 250 10 549
4 355 142 488 151
4 316 65 11 296
4 143 359 28 136
4 150 134 142 357
4 351 357 140 155
4 14 167 395 56
4 358 356 350 127
4 297 53 57 532
4 466 292 23 104
4 112 13 394 59
4 411 408 53 184
4 410 178 52 409
4 116 325 62 324
4 399 54 171 397
4 60 314 105 311
4 284 17 229 534
4 285 533 23 230
4 15 57 297 403
4 53 16 297 403
4 150 134 488 142
4 136 486 143 152
4 349 143 486 152
4 13 247 283 549
4 350 127 128 145
4 245 318 254 550
4 123 3 341 63
4 316 12 61 296
4 65 61 323 296
4 533 55 23 230
4 111 61 312 313
4 141 140 138 354
4 135 143 486 151
4 135 488 142 151
4 311 298 60 547
4 62 298 324 547
4 298 62 60 547
4 228 40 185 411
4 24 313 112 246
4 142 134 32 357
4 402 54 52 295
4 284 229 532 534
4 284 532 232 534
4 303 20 50 223
4 251 26 123 325
4 143 349 359 152
4 138 140 154 354
4 188 410 41 224
4 39 399 168 233
4 115 25 242 314
4 128 148 350 145
4 298 60 62 315
4 284 232 14 534
4 168 23 466 55
4 150 142 355 357
4 152 359 28 485
4 297 57 53 403
4 282 0 548 241
4 359 149 28 344
4 147 127 350 346
4 247 250 283 549
4 363 153 141 354
4 241 548 282 547
4 61 65 316 296
4 351 154 140 354
4 150 487 32 357
4 150 32 487 134
4 28 136 152 485
4 248 282 548 547
4 28 149 146 344
4 357 361 32 155
4 155 361 32 139
4 345 128 148 352
4 282 548 3 248
4 144 342 347 147
4 153 137 343 364
4 350 148 128 352
4 343 141 153 360
4 358 342 127 147
4 361 32 31 487
4 485 28 30 344
4 347 5 4 342
4 343 8 9 364
4 396 532 232 284
4 485 30 33 344
4 408 229 532 284
4 361 31 34 487
4 241 282 311 547
4 153 137 141 343
4 144 127 342 147
4 324 282 248 547
4 155 32 357 139
4 146 149 28 359
4 134 150 32 357
4 350 358 127 147
4 136 359 28 152
4 360 141 153 354
4 7 9 8 364
4 4 6 5 347
4 175 38 405 236
4 25 107 243 319
4 298 2 1 315
4 405 40 182 227
4 118 319 26 252
4 39 173 400 234
4 27 120 254 320
4 109 24 245 320
4 316 11 12 296
4 345 148 128 145
4 154 362 140 138
4 147 144 127 346
4 363 153 137 141
4 243 252 552 319
4 236 227 538 405
4 225 537 400 234
4 402 21 22 295
4 107 118 317 551
4 536 406 173 180
4 404 175 182 535
4 297 16 15 403
4 244 317 253 551
4 235 404 226 535
4 226 406 235 536
4 253 318 244 550
4 318 245 254 109
4 320 554 245 254
4 400 172 39 537
4 318 109 254 120
4 320 110 24 554
4 27 121 320 554
4 26 552 319 117
4 40 538 405 183
4 405 538 38 176
4 319 552 25 106
4 121 110 320 554
4 176 405 538 183
4 106 319 552 117
4 179 172 400 537
4 39 400 537 234
4 552 252 26 319
4 538 227 40 405
4 321 122 111 555
4 116 105 553 322
4 407 178 171 539
4 540 184 177 401
4 538 38 236 405
4 552 25 243 319
4 554 24 320 245
4 554 320 27 254
4 243 107 551 252
4 236 182 535 227
4 536 234 225 180
4 252 243 107 319
4 182 236 405 227
4 400 225 234 180
4 107 118 551 252
4 535 175 182 236
4 234 536 173 180
4 254 245 320 109
4 53 57 540 184
4 54 52 178 402
4 244 119 317 108
4 406 226 174 181
4 244 318 119 108
4 181 404 226 174
4 62 60 553 105
4 52 54 178 539
4 62 60 105 315
4 173 400 234 180
4 107 118 252 319
4 236 182 405 175
4 57 53 403 184
4 320 254 109 120
4 65 61 111 555
4 65 61 316 111
4 184 57 540 177
4 54 178 171 402
4 119 244 317 253
4 406 226 235 174
4 318 253 244 119
4 404 235 226 174
4 111 122 65 555
4 105 553 62 116
4 171 178 54 539
4 122 65 316 111
4 116 62 105 315
4 184 403 57 177
4 555 321 255 246
4 540 237 228 401
4 121 110 554 255
4 538 228 176 183
4 176 228 401 183
4 110 121 321 255
4 242 251 553 322
4 539 407 224 233
4 251 106 552 117
4 179 172 537 224
4 106 251 322 117
4 172 179 407 224
4 110 554 255 246
4 538 228 237 176
4 255 321 110 246
4 401 237 228 176
4 554 110 24 246
4 554 27 121 255
4 538 40 228 183
4 172 537 224 233
4 106 251 552 242
4 242 251 322 106
4 224 407 172 233
4 538 237 38 176
4 552 26 251 117
4 537 172 39 233
4 552 242 25 106
4 120 125 27 254
4 17 185 408 229
4 13 112 312 247
4 556 248 123 63
4 246 247 61 313
4 312 12 61 111
4 126 10 323 250
4 248 62 251 325
4 225 224 527 41
4 234 235 541 169
4 236 237 542 38
4 237 232 542 167
4 396 57 15 177
4 237 236 538 38
4 188 20 409 223
4 528 229 185 51
4 229 228 528 185
4 237 57 232 398
4 16 53 408 184
4 53 228 229 411
4 176 38 398 237
4 228 227 40 538
4 169 170 174 235
4 186 182 40 227
4 175 170 38 236
4 244 243 543 114
4 3 123 324 248
4 323 65 11 122
4 241 543 115 58
4 252 253 556 124
4 65 326 250 255
4 255 254 554 27
4 246 245 24 554
4 121 27 326 255
4 255 250 557 126
4 243 242 25 552
4 544 24 246 245
4 250 557 126 64
4 252 251 26 556
4 115 0 311 241
4 253 254 557 125
4 242 60 241 314
4 26 124 118 252
4 105 1 60 311
4 62 2 116 324
4 124 125 119 253
4 113 114 108 244
4 114 25 107 243
4 243 242 543 25
4 242 241 543 115
4 252 251 552 26
4 187 41 180 225
4 227 226 528 186
4 39 169 173 234
4 186 187 181 226
4 224 223 527 188
4 541 230 168 55
4 233 230 54 399
4 234 233 537 39
4 226 225 527 187
4 54 22 171 397
4 234 233 39 541
4 23 168 397 230
4 178 21 52 409
4 223 527 188 50
4 167 14 396 232
4 232 542 167 56
4 113 109 24 245
4 254 255 557 27
4 247 246 544 112
4 235 236 542 170
4 245 244 544 113
4 544 247 112 59
4 223 224 52 410
4 230 233 541 168
4 228 227 528 40
4 248 251 556 123
4 565 264 356 348
4 565 356 264 302
4 436 286 96 439
4 436 96 286 269
4 572 269 287 293
4 572 287 269 562
4 329 127 570 565
4 356 127 570 353
4 356 570 127 565
4 564 384 385 393
4 564 385 384 280
4 300 456 564 455
4 564 456 300 281
4 564 573 300 455
4 300 573 564 281
4 54 171 233 399
4 172 233 171 399
4 172 171 233 407
4 105 106 242 322
4 242 106 105 314
4 105 60 242 314
4 127 128 353 350
4 352 143 570 349
4 570 143 352 128
4 223 52 285 409
4 223 285 52 531
4 295 285 52 409
4 295 52 285 531
4 295 54 285 397
4 295 285 54 531
4 230 285 54 397
4 230 54 285 531
4 304 574 567 50
4 567 574 304 310
4 567 222 304 50
4 304 222 567 310
4 289 333 565 271
4 565 333 289 331
4 289 566 565 331
4 262 416 574 418
4 262 574 416 288
4 127 274 565 338
4 127 565 274 356
4 330 289 566 272
4 330 566 289 331
4 408 16 297 53
4 408 297 16 86
4 409 21 295 99
4 409 295 21 52
4 324 2 298 62
4 324 298 2 67
4 397 22 295 54
4 397 295 22 100
4 311 1 298 66
4 311 298 1 60
4 312 12 296 61
4 296 12 312 80
4 330 276 68 272
4 330 68 276 341
4 542 541 560 238
4 556 561 557 256
4 543 544 559 239
4 527 528 558 221
4 15 396 297 57
4 15 297 396 85
4 11 323 296 65
4 11 296 323 79
4 44 197 423 432
4 423 197 44 526
4 45 196 444 524
4 45 444 196 430
4 62 116 251 325
4 117 116 251 322
4 117 251 116 325
4 52 224 178 410
4 179 178 224 410
4 179 224 178 407
4 357 140 142 351
4 142 140 357 32
4 250 61 323 65
4 128 359 143 352
4 143 359 128 28
4 223 303 285 533
4 223 285 303 20
4 17 408 284 229
4 284 408 17 86
4 323 10 283 250
4 283 10 323 79
4 396 14 284 232
4 396 284 14 85
4 20 409 285 99
4 285 409 20 223
4 13 312 283 247
4 13 283 312 80
4 0 311 282 66
4 0 282 311 241
4 324 3 282 67
4 324 282 3 248
4 397 23 285 100
4 397 285 23 230
4 116 553 251 322
4 116 251 553 62
4 252 118 253 124
4 119 118 253 317
4 119 253 118 124
4 171 539 233 407
4 171 233 539 54
4 553 105 242 322
4 553 242 105 60
4 181 226 182 186
4 181 182 226 404
4 227 182 226 186
4 539 178 224 407
4 539 224 178 52
4 108 244 109 113
4 108 109 244 318
4 245 109 244 113
4 245 244 109 318
4 118 551 253 317
4 118 253 551 252
4 180 179 225 41
4 180 225 179 400
4 224 225 179 41
4 226 528 187 527
4 226 187 528 186
4 558 187 528 527
4 558 528 187 186
4 244 544 114 543
4 244 114 544 113
4 559 114 544 543
4 559 544 114 113
4 561 557 124 556
4 561 124 557 125
4 253 124 557 556
4 253 557 124 125
4 560 542 169 541
4 560 169 542 170
4 235 169 542 541
4 235 542 169 170
4 535 182 226 227
4 535 226 182 404
4 127 570 128 329
4 127 128 570 353
4 565 289 266 566
4 266 289 565 271
4 61 296 283 323
4 283 296 61 312
4 61 247 283 312
4 250 61 283 323
4 250 283 61 247
4 537 179 225 400
4 537 225 179 224

CELL_TYPES 3104
1
1
1
1
1
1
1
1
1
1
1
1
1
1
1
1
1
1
1
1
1
1
1
1
1
1
1
1
1
1
1
1
1
1
1
1
1
1
1
1
1
1
1
1
1
1
1
1
1
1
1
1
1
1
1
1
1
1
1
1
1
1
1
1
1
1
3
3
3
3
3
3
3
3
3
3
3
3
3
3
3
3
3
3
3
3
3
3
3
3
3
3
3
3
3
3
3
3
3
3
3
3
3
3
3
3
3
3
3
3
3
3
3
3
3
3
3
3
3
3
3
3
3
3
3
3
3
3
3
3
3
3
3
3
3
3
3
3
3
3
3
3
3
3
3
3
3
3
3
3
3
3
3
3
3
3
3
3
3
3
3
3
3
3
3
3
3
3
3
3
3
3
3
3
3
3
3
3
3
3
3
3
3
3
3
3
3
3
3
3
3
3
3
3
3
3
3
3
3
3
3
3
3
3
3
3
3
3
3
3
3
3
3
3
3
3
3
3
3
3
3
3
3
3
3
3
3
3
3
3
3
3
3
3
3
3
3
3
3
3
3
3
3
3
3
3
3
3
3
3
3
3
3
3
3
3
3
3
3
3
3
3
3
3
3
3
3
3
3
3
3
3
3
3
3
3
3
3
3
3
3
3
3
3
3
3
3
3
3
3
3
3
3
3
3
3
3
3
3
3
3
3
3
3
3
3
3
3
3
3
3
3
3
3
3
3
3
3
3
3
3
3
3
3
3
3
3
3
3
3
3
3
3
3
3
3
3
3
3
3
3
3
3
3
3
3
3
3
3
3
3
3
3
3
3
3
5
5
5
5
5
5
5
5
5
5
5
5
5
5
5
5
5
5
5
5
5
5
5
5
5
5
5
5
5
5
5
5
5
5
5
5
5
5
5
5
5
5
5
5
5
5
5
5
5
5
5
5
5
5
5
5
5
5
5
5
5
5
5
5
5
5
5
5
5
5
5
5
5
5
5
5
5
5
5
5
5
5
5
5
5
5
5
5
5
5
5
5
5
5
5
5
5
5
5
5
5
5
5
5
5
5
5
5
5
5
5
5
5
5
5
5
5
5
5
5
5
5
5
5
5
5
5
5
5
5
5
5
5
5
5
5
5
5
5
5
5
5
5
5
5
5
5
5
5
5
5
5
5
5
5
5
5
5
5
5
5
5
5
5
5
5
5
5
5
5
5
5
5
5
5
5
5
5
5
5
5
5
5
5
5
5
5
5
5
5
5
5
5
5
5
5
5
5
5
5
5
5
5
5
5
5
5
5
5
5
5
5
5
5
5
5
5
5
5
5
5
5
5
5
5
5
5
5
5
5
5
5
5
5
5
5
5
5
5
5
5
5
5
5
5
5
5
5
5
5
5
5
5
5
5
5
5
5
5
5
5
5
5
5
5
5
5
5
5
5
5
5
5
5
5
5
5
5
5
5
5
5
5
5
5
5
5
5
5
5
5
5
5
5
5
5
5
5
5
5
5
5
5
5
5
5
5
5
5
5
5
5
5
5
5
5
5
5
5
5
5
5
5
5
5
5
5
5
5
5
5
5
5
5
5
5
5
5
5
5
5
5
5
5
5
5
5
5
5
5
5
5
5
5
5
5
5
5
5
5
5
5
5
5
5
5
5
5
5
5
5
5
5
5
5
5
5
5
5
5
5
5
5
5
5
5
5
5
5
5
5
5
5
5
5
5
5
5
5
5
5
5
5
5
5
5
5
5
5
5
5
5
5
5
5
5
5
5
5
5
5
5
5
5
5
5
5
5
5
5
5
5
5
5
5
5
5
5
5
5
5
5
5
5
5
5
5
5
5
5
5
5
5
5
5
5
5
5
5
5
5
5
5
5
5
5
5
5
5
5
5
5
5
5
5
5
5
5
5
5
5
5
5
5
5
5
5
5
5
5
5
5
5
5
5
5
5
5
5
5
5
5
5
5
5
5
5
5
5
5
5
5
5
5
5
5
5
5
5
5
5
5
5
5
5
5
5
5
5
5
5
5
5
5
5
5
5
5
5
5
5
5
5
5
5
5
5
5
5
5
5
5
5
5
5
5
5
5
5
5
5
5
5
5
5
5
5
5
5
5
5
5
5
5
5
5
5
5
5
5
5
5
5
5
5
5
5
5
5
5
5
5
5
5
5
5
5
5
5
5
5
5
5
5
5
5
5
5
5
5
5
5
5
5
5
5
5
5
5
5
5
5
5
5
5
5
5
5
5
5
5
5
5
5
5
5
5
5
5
5
5
5
5
5
5
5
5
5
5
5
5
5
5
5
5
5
5
5
5
5
5
5
5
5
5
5
5
5
5
5
5
5
5
5
5
5
5
5
5
5
5
5
5
5
5
5
5
5
5
5
5
5
5
5
5
5
5
5
5
5
5
5
5
5
5
5
5
5
5
5
5
5
5
5
5
5
5
5
5
5
5
5
5
5
5
5
5
5
5
5
5
5
5
5
5
5
5
5
5
5
5
5
5
5
5
5
5
5
5
5
5
5
5
5
5
5
5
5
5
5
5
5
5
5
5
5
5
5
5
5
5
5
5
5
5
5
5
5
5
5
5
5
5
5
5
5
5
5
5
5
5
5
5
5
5
5
5
5
5
5
5
5
5
5
5
5
5
5
5
5
5
5
5
5
5
5
5
5
5
5
5
5
5
5
5
5
5
5
5
5
5
5
5
5
5
5
5
5
5
5
5
5
5
5
5
5
5
5
5
5
5
5
5
5
5
5
5
5
5
5
5
5
5
5
5
5
5
5
5
5
5
5
5
5
5
5
5
5
5
5
5
5
5
5
5
5
5
5
5
5
5
5
5
5
5
5
5
5
5
5
5
5
5
5
5
5
5
5
5
5
5
5
5
5
5
5
5
5
5
5
5
5
5
5
5
5
5
5
5
5
5
5
5
5
5
5
5
5
5
5
5
5
5
5
5
5
5
5
5
5
5
5
5
5
5
5
5
5
5
5
5
5
5
5
5
5
5
5
5
5
5
5
5
5
5
5
5
5
5
5
5
5
5
5
5
5
5
5
5
5
5
5
5
5
5
5
5
5
5
5
5
5
5
5
5
5
5
5
5
5
5
5
5
5
5
5
5
5
5
5
5
5
5
5
5
5
5
5
5
5
5
5
5
5
5
5
5
5
5
5
5
5
5
5
5
5
5
5
5
5
5
5
5
5
5
5
5
5
5
5
5
5
5
5
5
5
5
5
5
5
5
5
5
5
5
5
5
5
5
5
5
5
5
5
5
5
5
5
5
5
5
5
5
5
5
5
5
5
5
5
5
5
5
5
10
10
10
10
10
10
10
10
10
10
10
10
10
10
10
10
10
10
10
10
10
10
10
10
10
10
10
10
10
10
10
10
10
10
10
10
10
10
10
10
10
10
10
10
10
10
10
10
10
10
10
10
10
10
10
10
10
10
10
10
10
10
10
10
10
10
10
10
10
10
10
10
10
10
10
10
10
10
10
10
10
10
10
10
10
10
10
10
10
10
10
10
10
10
10
10
10
10
10
10
10
10
10
10
10
10
10
10
10
10
10
10
10
10
10
10
10
10
10
10
10
10
10
10
10
10
10
10
10
10
10
10
10
10
10
10
10
10
10
10
10
10
10
10
10
10
10
10
10
10
10
10
10
10
10
10
10
10
10
10
10
10
10
10
10
10
10
10
10
10
10
10
10
10
10
10
10
10
10
10
10
10
10
10
10
10
10
10
10
10
10
10
10
10
10
10
10
10
10
10
10
10
10
10
10
10
10
10
10
10
10
10
10
10
10
10
10
10
10
10
10
10
10
10
10
10
10
10
10
10
10
10
10
10
10
10
10
10
10
10
10
10
10
10
10
10
10
10
10
10
10
10
10
10
10
10
10
10
10
10
10
10
10
10
10
10
10
10
10
10
10
10
10
10
10
10
10
10
10
10
10
10
10
10
10
10
10
10
10
10
10
10
10
10
10
10
10
10
10
10
10
10
10
10
10
10
10
10
10
10
10
10
10
10
10
10
10
10
10
10
10
10
10
10
10
10
10
10
10
10
10
10
10
10
10
10
10
10
10
10
10
10
10
10
10
10
10
10
10
10
10
10
10
10
10
10
10
10
10
10
10
10
10
10
10
10
10
10
10
10
10
10
10
10
10
10
10
10
10
10
10
10
10
10
10
10
10
10
10
10
10
10
10
10
10
10
10
10
10
10
10
10
10
10
10
10
10
10
10
10
10
10
10
10
10
10
10
10
10
10
10
10
10
10
10
10
10
10
10
10
10
10
10
10
10
10
10
10
10
10
10
10
10
10
10
10
10
10
10
10
10
10
10
10
10
10
10
10
10
10
10
10
10
10
10
10
10
10
10
10
10
10
10
10
10
10
10
10
10
10
10
10
10
10
10
10
10
10
10
10
10
10
10
10
10
10
10
10
10
10
10
10
10
10
10
10
10
10
10
10
10
10
10
10
10
10
10
10
10
10
10
10
10
10
10
10
10
10
10
10
10
10
10
10
10
10
10
10
10
10
10
10
10
10
10
10
10
10
10
10
10
10
10
10
10
10
10
10
10
10
10
10
10
10
10
10
10
10
10
10
10
10
10
10
10
10
10
10
10
10
10
10
10
10
10
10
10
10
10
10
10
10
10
10
10
10
10
10
10
10
10
10
10
10
10
10
10
10
10
10
10
10
10
10
10
10
10
10
10
10
10
10
10
10
10
10
10
10
10
10
10
10
10
10
10
10
10
10
10
10
10
10
10
10
10
10
10
10
10
10
10
10
10
10
10
10
10
10
10
10
10
10
10
10
10
10
10
10
10
10
10
10
10
10
10
10
10
10
10
10
10
10
10
10
10
10
10
10
10
10
10
10
10
10
10
10
10
10
10
10
10
10
10
10
10
10
10
10
10
10
10
10
10
10
10
10
10
10
10
10
10
10
10
10
10
10
10
10
10
10
10
10
10
10
10
10
10
10
10
10
10
10
10
10
10
10
10
10
10
10
10
10
10
10
10
10
10
10
10
10
10
10
10
10
10
10
10
10
10
10
10
10
10
10
10
10
10
10
10
10
10
10
10
10
10
10
10
10
10
10
10
10
10
10
10
10
10
10
10
10
10
10
10
10
10
10
10
10
10
10
10
10
10
10
10
10
10
10
10
10
10
10
10
10
10
10
10
10
10
10
10
10
10
10
10
10
10
10
10
10
10
10
10
10
10
10
10
10
10
10
10
10
10
10
10
10
10
10
10
10
10
10
10
10
10
10
10
10
10
10
10
10
10
10
10
10
10
10
10
10
10
10
10
10
10
10
10
10
10
10
10
10
10
10
10
10
10
10
10
10
10
10
10
10
10
10
10
10
10
10
10
10
10
10
10
10
10
10
10
10
10
10
10
10
10
10
10
10
10
10
10
10
10
10
10
10
10
10
10
10
10
10
10
10
10
10
10
10
10
10
10
10
10
10
10
10
10
10
10
10
10
10
10
10
10
10
10
10
10
10
10
10
10
10
10
10
10
10
10
10
10
10
10
10
10
10
10
10
10
10
10
10
10
10
10
10
10
10
10
10
10
10
10
10
10
10
10
10
10
10
10
10
10
10
10
10
10
10
10
10
10
10
10
10
10
10
10
10
10
10
10
10
10
10
10
10
10
10
10
10
10
10
10
10
10
10
10
10
10
10
10
10
10
10
10
10
10
10
10
10
10
10
10
10
10
10
10
10
10
10
10
10
10
10
10
10
10
10
10
10
10
10
10
10
10
10
10
10
10
10
10
10
10
10
10
10
10
10
10
10
10
10
10
10
10
10
10
10
10
10
10
10
10
10
10
10
10
10
10
10
10
10
10
10
10
10
10
10
10
10
10
10
10
10
10
10
10
10
10
10
10
10
10
10
10
10
10
10
10
10
10
10
10
10
10
10
10
10
10
10
10
10
10
10
10
10
10
10
10
10
10
10
10
10
10
10
10
10
10
10
10
10
10
10
10
10
10
10
10
10
10
10
10
10
10
10
10
10
10
10
10
10
10
10
10
10
10
10
10
10
10
10
10
10
10
10
10
10
10
10
10
10
10
10
10
10
10
10
10
10
10
10
10
10
10
10
10
10
10
10
10
10
10
10
10
10
10
10
10
10
10
10
10
10
10
10
10
10
10
10
10
10
10
10
10
10
10
10
10
10
10
10
10
10
10
10
10
10
10
10
10
10
10
10
10
10
10
10
10
10
10
10
10
10
10
10
10
10
10
10
10
10
10
10
10
10
10
10
10
10
10
10
10
10
10
10
10
10
10
10
10
10
10
10
10
10
10
10
10
10
10
10
10
10
10
10
10
10
10
10
10
10
10
10
10
10
10
10
10
10
10
10
10
10
10
10
10
10
10
10
10
10
10
10
10
10
10
10
10
10
10
10
10
10
10
10
10
10
10
10
10
10
10
10
10
10
10
10
10
10
10
10
10
10
10
10
10
10
10
10
10
10
10
10
10
10
10
10
10
10
10
10
10
10
10
10
10
10
10
10
10
10
10
10
10
10
10
10
10
10
10
10
10
10
10
10
10
10
10
10
10
10
10
10
10
10
10
10
10
10
10
10
10
10
10
10
10
10
10
10
10
10
10
10
10
10
10
10
10
10
10
10
10
10
10
10
10
10
10
10
10
10
10
10
10
10
10
10
10
10
10
10
10
10
10
10
10
10
10
10
10
10
10
10
10
10
10
10
10
10
10
10
10
10
10
10
10
10
10
10
10
10
10
10
10
10
10
10
10
10
10
10
10
10
10
10
10
10
10
10
10
10
10
10
10
10
10
10
10
10
10
10
10
10
10
10
10
10
10
10
10
10
10
10
10
10
10
10
10
10
10
10
10
10
10
10
10
10
10
10
10
10
10
10
10
10
10
10
10
10
10
10
10
10
10
10
10
10
10
10
10
10
10
10
10
10
10
10
10
10
10
10
10
10
10
10
10
10
10
10
10
10
10
10
10
10
10
10
10
10
10
10
10
10
10
10
10
10
10
10
10
10
10
10
