# vtk DataFile Version 2.0
, Created by Gmsh 4.11.1 
ASCII
DATASET UNSTRUCTURED_GRID
POINTS 483 double
8.75 0 -44.55704346749944
10.05250884169098 0 -41.35738010433979
10.05250884169098 0 -38.64261989566022
8.75 0 -35.44295653250057
8.75 0 -3
11.75 0 -3
11.75 0 0
-11.75 0 0
-11.75 0 -3
-8.75 0 -3
-8.75 1.071565949253934e-15 -35.44295653250057
-10.05250884169098 1.231077277637733e-15 -38.64261989566022
-10.05250884169098 1.231077277637733e-15 -41.35738010433979
-8.75 1.071565949253934e-15 -44.55704346749944
-8.75 1.071565949253934e-15 -75.44295653250056
-10.05250884169098 1.231077277637733e-15 -78.64261989566022
-10.05250884169098 1.231077277637733e-15 -81.35738010433978
-8.75 1.071565949253934e-15 -84.55704346749944
-8.75 0 -120
8.75 0 -120
8.75 0 -84.55704346749944
10.05250884169098 0 -81.35738010433978
10.05250884169098 0 -78.64261989566022
8.75 0 -75.44295653250056
8.749999999999998 4.948781063279665 -41.35738010433979
8.749999999999998 4.948781063279665 -38.64261989566022
8.749999999999998 4.948781063279665 -78.64261989566022
8.749999999999998 4.948781063279665 -81.35738010433978
8.75 7.762845232161697 -120
8.75 20 -103.1327823092456
8.75 20 -96.86721769075442
8.75 7.762845232161697 -80
8.75 20 -63.13278230924558
8.75 20 -56.86721769075442
8.75 7.762845232161697 -40
8.75 20 -23.13278230924558
8.75 20 -3
11.75 23 -3
-11.75 23 -3
-8.75 20 -3
11.75 23 0
-11.75 23 0
-8.750000000000002 4.948781063279658 -41.35738010433979
-8.750000000000002 4.948781063279658 -78.64261989566022
-8.750000000000002 4.948781063279658 -81.35738010433978
-8.75 7.762845232161697 -120
-8.75 20 -103.1327823092456
-8.75 20 -96.86721769075442
-8.75 7.762845232161697 -80
-8.75 20 -63.13278230924558
-8.75 20 -56.86721769075442
-8.75 7.762845232161697 -40
-8.75 20 -23.13278230924558
-8.750000000000002 4.948781063279658 -38.64261989566022
6.386796373282914 7.762845232161697 -80
4.95298052516299 8.74762355898055 -81.35738010433978
-4.952980525162989 8.747623558980552 -81.35738010433978
-6.386796373282914 7.762845232161697 -80
-4.952980525162996 8.747623558980546 -78.64261989566022
4.952980525162995 8.747623558980546 -78.64261989566022
6.386796373282914 7.762845232161697 -40
4.952980525162982 8.747623558980555 -41.35738010433979
-4.952980525162981 8.747623558980555 -41.35738010433979
-6.386796373282914 7.762845232161697 -40
-4.952980525162996 8.747623558980546 -38.64261989566022
4.952980525162995 8.747623558980546 -38.64261989566022
6.043079355677387 2.441323480532891 -84.55704346749944
-6.043079355677387 2.441323480532891 -84.55704346749944
7.42924978765703 2.44132348053289 -81.35738010433978
-7.429249787657029 2.441323480532893 -81.35738010433978
7.42924978765703 2.44132348053289 -78.64261989566022
6.043079355677387 2.441323480532891 -75.44295653250056
-6.043079355677387 2.441323480532891 -75.44295653250056
-7.429249787657029 2.441323480532893 -78.64261989566022
6.043079355677387 2.441323480532891 -44.55704346749944
-6.043079355677387 2.441323480532891 -44.55704346749944
7.42924978765703 2.44132348053289 -41.35738010433978
-7.429249787657029 2.441323480532893 -41.35738010433978
7.42924978765703 2.44132348053289 -38.64261989566022
6.043079355677387 2.441323480532891 -35.44295653250056
-6.043079355677387 2.441323480532891 -35.44295653250056
-7.429249787657029 2.441323480532893 -38.64261989566022
8.75 0 -28.95436522600045
8.75 0 -22.46577391950034
8.75 0 -15.97718261300023
8.75 0 -9.488591306500112
5.875000000000016 0 0
3.730349362740526e-14 0 0
-5.874999999999972 0 0
-8.75 0 -9.488591306500108
-8.75 0 -15.97718261300021
-8.75 0 -22.46577391950033
-8.75 0 -28.95436522600043
-8.75 0 -50.73422608049965
-8.75 0 -56.91140869349985
-8.75 0 -63.08859130650008
-8.75 0 -69.26577391950033
-8.75 0 -90.46420288958288
-8.75 0 -96.37136231166633
-8.75 0 -102.2785217337498
-8.75 0 -108.1856811558332
-8.75 0 -114.0928405779166
2.916666666666666 0 -120
-2.916666666666668 0 -120
8.75 0 -90.46420288958288
8.75 0 -96.37136231166633
8.75 0 -102.2785217337498
8.75 0 -108.1856811558332
8.75 0 -114.0928405779166
8.75 0 -50.73422608049965
8.75 0 -56.91140869349985
8.75 0 -63.08859130650008
8.75 0 -69.26577391950033
8.749999999999998 2.790919830384106 -43.49011963234753
8.749999999999998 4.948781063279665 -40.00000000000001
8.749999999999998 2.790919830384107 -36.50988036765247
8.749999999999998 2.790919830384107 -76.50988036765247
8.749999999999998 2.790919830384106 -83.49011963234753
8.75 3.881422616080841 -120
8.75 11.84189682144113 -114.3775941030819
8.75 15.92094841072058 -108.7551882061637
8.75 15.92094841072057 -91.24481179383628
8.75 11.84189682144111 -85.62240589691811
8.75 11.84189682144113 -74.37759410308186
8.75 15.92094841072058 -68.75518820616369
8.75 15.92094841072057 -51.24481179383628
8.75 11.84189682144111 -45.62240589691811
8.75 11.84189682144113 -34.37759410308186
8.75 15.92094841072058 -28.75518820616369
8.75 20 -16.42185487283041
8.75 20 -9.710927436415203
8.75 6.666666666666651 -3
8.75 13.33333333333329 -3
-5.875000000000016 23 -3
-3.730349362740526e-14 23 -3
5.874999999999972 23 -3
-11.75 5.749999999999988 -3
-11.75 11.49999999999999 -3
-11.75 17.24999999999999 -3
-8.75 13.33333333333335 -3
-8.75 6.666666666666705 -3
-2.916666666666666 20 -3
2.916666666666668 20 -3
11.75 5.749999999999988 -3
11.75 11.49999999999999 -3
11.75 17.24999999999999 -3
11.75 5.749999999999988 0
11.75 11.49999999999999 0
11.75 17.24999999999999 0
-5.875000000000016 23 0
-3.730349362740526e-14 23 0
5.874999999999972 23 0
-11.75 5.749999999999988 0
-11.75 11.49999999999999 0
-11.75 17.24999999999999 0
-8.750000000000002 2.790919830384105 -43.49011963234752
-8.750000000000002 2.790919830384103 -76.50988036765249
-8.750000000000002 4.948781063279658 -80
-8.750000000000002 2.790919830384105 -83.49011963234753
-8.75 3.881422616080841 -120
-8.75 11.84189682144113 -114.3775941030819
-8.75 15.92094841072058 -108.7551882061637
-8.75 15.92094841072057 -91.24481179383628
-8.75 11.84189682144111 -85.62240589691811
-8.75 11.84189682144113 -74.37759410308186
-8.75 15.92094841072058 -68.75518820616369
-8.75 15.92094841072057 -51.24481179383628
-8.75 11.84189682144111 -45.62240589691811
-8.75 11.84189682144113 -34.37759410308186
-8.75 15.92094841072058 -28.75518820616369
-8.75 20 -9.710927436415179
-8.75 20 -16.42185487283038
-8.750000000000002 2.790919830384103 -36.50988036765248
-8.750000000000002 4.948781063279658 -40.00000000000001
2.916666666666666 7.762845232161697 -120
-2.916666666666668 7.762845232161697 -120
2.916666666666666 20 -103.1327823092456
-2.916666666666668 20 -103.1327823092456
2.916666666666666 20 -96.86721769075442
-2.916666666666668 20 -96.86721769075442
2.213435320521788e-15 9.583499693102841 -82.50951922362277
2.916666666666666 20 -63.13278230924558
-2.916666666666668 20 -63.13278230924558
-2.213435320521787e-15 9.583499693102842 -77.49048077637721
2.916666666666666 20 -56.86721769075442
-2.916666666666668 20 -56.86721769075442
2.213435320521788e-15 9.583499693102841 -42.50951922362278
2.916666666666666 20 -23.13278230924558
-2.916666666666668 20 -23.13278230924558
-2.213435320521788e-15 9.583499693102848 -37.49048077637721
5.079749347336184e-15 10.05250884169098 -78.64261989566022
5.079749347336184e-15 10.05250884169098 -81.35738010433978
5.079749347336184e-15 10.05250884169098 -38.64261989566022
2.847643993077525e-15 10.05250884169098 -41.35738010433979
2.511743773074002 6.014150950386882 -84.55704346749944
-2.511743773074 6.014150950386882 -84.55704346749944
2.664535259100376e-15 2.441323480532891 -84.55704346749944
6.73967760460515 2.441323480532891 -82.95873565319916
3.172775942232685 7.147538426926626 -81.35738010433978
-3.172775942232632 7.14753842692665 -81.35738010433978
-6.73967760460515 2.441323480532891 -82.95873565319916
6.73967760460515 2.441323480532891 -77.04126434680084
-1.77635683940025e-15 2.441323480532891 -75.44295653250056
-6.73967760460515 2.441323480532891 -77.04126434680084
3.172775942232685 7.147538426926626 -78.64261989566022
-3.172775942232632 7.14753842692665 -78.64261989566022
2.511743773074002 6.014150950386882 -75.44295653250057
-2.511743773074 6.014150950386882 -75.44295653250057
2.511743773074002 6.014150950386882 -44.55704346749944
-2.511743773074 6.014150950386882 -44.55704346749944
2.664535259100376e-15 2.441323480532891 -44.55704346749944
6.73967760460515 2.441323480532891 -42.95873565319916
3.172775942232685 7.147538426926626 -41.35738010433979
-3.172775942232632 7.14753842692665 -41.35738010433979
-6.73967760460515 2.441323480532891 -42.95873565319916
6.73967760460515 2.441323480532891 -37.04126434680085
-1.77635683940025e-15 2.441323480532891 -35.44295653250056
-6.73967760460515 2.441323480532891 -37.04126434680085
3.172775942232685 7.147538426926626 -38.64261989566022
-3.172775942232632 7.14753842692665 -38.64261989566022
2.511743773074002 6.014150950386882 -35.44295653250057
-2.511743773074 6.014150950386882 -35.44295653250057
6.595857497727177 0 -80.67599614512827
-6.926988502007147 0 -81.94999544151045
-7.648691339213102 0 -39.974725039744
6.776446476748899 0 -40.77950219967843
-3.585225908743807 0 -47.93029478416819
-4.606138896574429 0 -72.40919063422859
4.249973198330504 0 -31.55317845516725
4.459981048091146 0 -86.47875509012194
-1.77635683940025e-15 0 -115.6205290286523
3.465254366247777 0 -104.9758211005736
3.736558763406361 0 -58.98963702891812
-2.814128460154706 0 -4.114794567289316
-3.066890500459999 0 -18.59112027841289
-3.650400430161495 0 -92.93423785978098
4.579308657153387 0 -47.64563477399955
4.368349325712226 0 -72.26127925282385
-3.814024609521606 0 -36.70637731701148
2.823847192287963 0 -12.91424895667026
3.921470641892963 0 -5.840473967288965
-4.818084014504402 0 -86.61049751604503
-0.6033530702925489 0 -80.36332275880915
-3.634249876271163 0 -105.2321014447915
-2.877951227586262 0 -59.90863691994154
3.19169644535153 0 -26.04990745943186
-2.041617133531656 0 -30.13460887542555
2.583116933337776 0 -93.47037498223649
3.020343276236924 0 -19.68534004956634
-4.04037644896979 0 -11.97790666978965
3.074144434413888 0 -65.92048104312711
4.440892098500626e-15 0 -53.93782217350891
0.3573611507749934 0 -42.28794567757824
-3.491968050538924 0 -66.39321819712039
-2.15743273293942 0 -99.22676592221522
4.278187713329227 0 -99.26456921008827
2.969748220099872 0 -110.8324990633647
-3.776163886043314 0 -111.6143295816067
-5.219587963515671 0 -77.34473561982465
-3.189079568086717 0 -24.54476745203117
2.660768031388131 0 -37.52389206915928
3.746463056523588 0 -76.80077662910014
-4.529074713367773 0 -42.92052986016235
-5.854076313599245 0 -32.42129794502456
-4.919352580438169 0 -53.82281738699976
5.163173484111951 0 -53.64374575008522
-0.2277620845652244 0 -89.39418267908729
-0.6979587483007323 0 -8.430747512921343
0 0 -70.02723171165847
4.492481660088592 0 -115.722326219082
-4.492481660088595 0 -115.722326219082
-0.3857112580244717 0 -74.86775610107415
-5.418429033218686 0 -7.07151876614293
9.664330118332767 2.76652442175404 -40
8.749999999999998 4.709956568056395 -59.99999999999998
8.749999999999998 14.16779827231414 -99.9010076434605
8.749999999999998 4.837267227294729 -19.22144531395701
8.749999999999998 5.113799411118796 -105.9599401018304
8.749999999999998 4.447840394280076 -92.92927294240343
8.749999999999998 9.999999999999972 -8.77350269189624
8.749999999999998 6.173777389293363 -115.4009609950009
8.749999999999998 6.412163922221014 -44.22801158678225
8.749999999999998 6.532725866385142 -34.9604306834341
8.749999999999998 8.508724380493764 -29.78556529937735
8.749999999999998 15.29422595990809 -59.99999999999999
8.749999999999998 8.379750268471028 -70.03890695665382
8.749999999999998 8.439981754903306 -49.77503825894635
8.749999999999998 6.109406443578957 -84.39767198835904
8.749999999999998 5.901486782027455 -75.6379761543588
8.749999999999998 15.01778832304494 -19.9698292269339
8.749999999999998 3.26371830389964 -47.40028698536416
8.749999999999998 2.977930489725532 -72.30865880105873
8.749999999999998 2.839635972081924 -32.1986608792505
8.749999999999998 2.935428505334854 -87.4977136369003
8.749999999999998 6.563768434106001 -99.631745173518
8.749999999999998 14.998990614394 -13.08202457767654
8.749999999999998 4.904350230301948 -12.81358857632886
8.749999999999998 4.185784334389034 -110.6930370105509
8.749999999999998 10.14192663118226 -94.65542623957327
8.749999999999998 10.28153187995851 -104.8147286694292
8.749999999999998 4.330824126221451 -53.71983218566562
8.749999999999998 4.254919604575663 -66.21017297807077
8.749999999999998 4.313499360031114 -25.88954316494487
8.749999999999998 9.848900676692987 -15.73131046715734
8.749999999999998 9.776277714802251 -56.24813560432774
8.749999999999998 9.722679754422336 -63.54206729086933
8.749999999999998 9.741188063046353 -23.22548027975569
8.749999999999998 15.12725468662608 -7.884722770826102
8.749999999999998 4.584784025043284 -7.589512713232949
8.749999999999998 8.566241201089637 -89.39121708299839
8.749999999999998 6.092118638415396 -40.72213868429883
8.749999999999998 9.641344871533011 -109.8257622221733
10.25 3.10416666666666 -3
-10.25 3.104166666666674 -3
11.75 20.125 -1.5
11.75 14.37499999999999 -1.5
11.75 8.624999999999988 -1.5
11.75 2.874999999999994 -1.5
-2.707174061168084 4.878797530676509 0
3.157610638484556 18.22886740495932 0
7.069955745470663 8.71654637064 0
-6.619519168154188 14.39111856499582 0
7.102873022115112 14.37499999999999 0
0.1126091443291166 11.52691623390895 0
-7.00095485560227 8.644857627020135 0
-2.792058517349997 18.15992185565015 0
2.948495529093417 4.721447277005962 0
-7.528051718759411 18.81262893003678 0
7.528051718759418 4.187371069963204 0
7.820492259183635 19.07601590637069 0
-7.553981076842909 4.160878030182232 0
-11.75 20.125 -1.5
-11.75 8.624999999999988 -1.5
-11.75 14.37499999999999 -1.5
-11.75 2.874999999999994 -1.5
-8.750000000000002 4.709956568056395 -59.99999999999998
-8.750000000000002 14.16779827231414 -99.9010076434605
-8.750000000000002 4.837267227294743 -19.22144531395699
-8.750000000000002 5.113799411118799 -105.9599401018304
-8.750000000000002 4.444186683492671 -92.92612038215123
-8.750000000000002 10.00000000000003 -8.77350269189624
-8.750000000000002 6.173777389293365 -115.4009609950009
-8.750000000000002 6.412163922221018 -75.77198841321774
-8.750000000000002 6.307245720659859 -84.48158030511382
-8.750000000000002 6.532725866385142 -34.9604306834341
-8.750000000000002 6.412163922221013 -44.22801158678225
-8.750000000000002 8.508724380493765 -29.78556529937735
-8.750000000000002 15.29422595990809 -59.99999999999999
-8.750000000000002 8.439981754903311 -70.22496174105362
-8.750000000000002 8.439981754903306 -49.77503825894635
-8.750000000000002 15.01778832304496 -19.96982922693389
-8.750000000000002 3.263718303899642 -47.40028698536416
-8.750000000000002 3.263718303899645 -72.59971301463582
-8.750000000000002 2.839635972081931 -32.1986608792505
-8.750000000000002 2.942902097135544 -87.50039656393545
-8.750000000000002 6.563246475422086 -99.63129480776769
-8.750000000000002 14.99899061439402 -13.08202457767652
-8.750000000000002 4.90435023030196 -12.81358857632885
-8.750000000000002 4.185784334389039 -110.6930370105509
-8.750000000000002 10.13819835486858 -94.65220934135674
-8.750000000000002 10.28142748822173 -104.8146385962791
-8.750000000000002 4.330824126221452 -53.71983218566561
-8.750000000000002 4.330824126221452 -66.28016781433435
-8.750000000000002 4.313499360031119 -25.88954316494485
-8.750000000000002 9.848900676693038 -15.73131046715735
-8.750000000000002 9.776277714802251 -56.24813560432774
-8.750000000000002 9.745369089102013 -63.58474222764657
-8.750000000000002 9.741188063046367 -23.22548027975569
-8.750000000000002 15.12725468662611 -7.884722770826102
-8.750000000000002 4.584784025043259 -7.589512713232921
-8.750000000000002 8.599229681386388 -89.40458738055193
-8.750000000000002 6.09211863841539 -40.72213868429884
-8.750000000000002 6.092118638415391 -79.27786131570116
-8.750000000000002 9.641344871533029 -109.8257622221733
-9.664330118332769 2.766524421754037 -40
-9.664330118332771 2.766524421754033 -80
0 3.881422616080849 -120
-4.835454543811041 3.881422616080848 -120
4.835454543811039 3.881422616080848 -120
9.72773402407682 2.534585719421141 -80
0 17.28063227381372 -106.881052907191
1.77635683940025e-15 10.48221295834799 -116.2517294020546
3.678383816794002 13.88142261608085 -111.5663911546228
-3.641183264267521 13.88142261608085 -111.5663911546228
-4.811569986186838 10.34624457203867 -116.4391429319518
4.819010096692134 10.34624457203867 -116.4391429319518
4.819010096692134 17.41660066012303 -106.6936393772937
-4.811569986186839 17.41660066012303 -106.6936393772937
5.52964042759961 20 -100
-1.77635683940025e-15 20 -100
-5.529640427599613 20 -100
0 16.93763797957267 -92.6461771117628
-3.752485150958151 11.55298504247549 -85.22418114927956
3.752485150958153 11.55298504247549 -85.22418114927956
0 13.41450693076261 -87.79003044362412
4.781311480182608 14.25046289616993 -88.94227959924226
-4.781311480182609 14.25046289616993 -88.94227959924226
-5.039595629369854 17.42180985729263 -93.31354077727003
5.039595629369855 17.42180985729263 -93.31354077727003
0 16.93763797957267 -67.3538228882372
-3.752485150958156 11.5529850424755 -74.77581885072043
3.752485150958153 11.5529850424755 -74.77581885072043
0 13.41450693076261 -72.20996955637588
4.781311480182608 14.25046289616995 -71.05772040075773
-4.781311480182609 14.25046289616994 -71.05772040075773
-5.039595629369856 17.42180985729264 -66.68645922272997
5.039595629369855 17.42180985729264 -66.68645922272997
5.52964042759961 20 -60
-1.77635683940025e-15 20 -60
-5.529640427599613 20 -60
-1.77635683940025e-15 16.93763797957267 -52.64617711176279
3.752485150958147 11.55298504247549 -45.22418114927956
-3.75248515095816 11.55298504247549 -45.22418114927956
-7.105427357601002e-15 13.13037036243348 -47.39838766040892
4.781311480182603 14.22630162335282 -48.90897664148586
-4.781311480182612 14.22630162335283 -48.90897664148586
-5.039595629369856 17.41697760272921 -53.30688018571875
5.039595629369853 17.41697760272921 -53.30688018571875
-1.77635683940025e-15 16.93763797957267 -27.35382288823721
3.752485150958151 11.5529850424755 -34.77581885072042
-3.752485150958158 11.5529850424755 -34.77581885072043
-3.552713678800501e-15 12.89832549829804 -32.92145394588347
4.781311480182605 14.20656991721888 -31.11822077401518
-4.781311480182609 14.20656991721888 -31.11822077401518
-5.039595629369856 17.41303126150243 -26.69855929738145
5.039595629369854 17.41303126150243 -26.69855929738145
-1.77635683940025e-15 20 -7.473951624276797
0 20 -18.65883068496879
3.655028615208924 20 -13.0663911546228
-3.644519721636821 20 -13.06639115462279
4.814339056375118 20 -7.250254043062959
-4.812237277660698 20 -18.88252826618263
4.814339056375116 20 -18.88252826618263
-4.812237277660698 20 -7.250254043062952
8.812499999999986 23 -1.5
2.937499999999966 23 -1.5
-8.812500000000007 23 -1.5
-2.937500000000027 23 -1.499999999999999
-2.560993053664836 9.720815222570371 -79.9588493933893
2.560993053664839 9.720815222570369 -79.9588493933893
-2.560993053664836 9.720815222570371 -39.95884939338929
2.560993053664839 9.720815222570369 -39.9588493933893
5.518589734611914 4.426812438420634 -83.1884392890062
-5.323110489252746 4.510895260002181 -83.42755709483851
2.592985235956687e-14 7.174941801836622 -82.94221242032886
5.364717547538028 2.441323480532891 -80.96561086588798
-5.364717547538034 2.441323480532891 -79.03438913411203
3.172088692564474 2.441323480532891 -77.64518912621696
-3.172088692564491 2.441323480532891 -82.35481087378305
5.799814839693232 5.245565800681318 -80.13679603662554
-5.799814839693215 5.245565800681336 -79.86320396337447
3.173420204345723e-14 7.820090328378775 -80.13679603662554
-5.323110489252727 4.510895260002186 -76.57244290516148
5.518589734611914 4.426812438420634 -76.8115607109938
2.592985235956687e-14 7.174941801836622 -77.05778757967114
5.518589734611924 4.426812438420627 -43.1884392890062
-5.323110489252739 4.510895260002183 -43.42755709483851
2.592985235956685e-14 7.174941801836616 -42.94221242032887
5.364717547538032 2.441323480532891 -40.96561086588797
-5.364717547538032 2.441323480532891 -39.03438913411203
3.172088692564474 2.441323480532891 -37.64518912621696
-3.172088692564484 2.441323480532891 -42.35481087378304
5.833363944224811 5.208231738145033 -40
-5.799814839693215 5.245565800681336 -40.13679603662555
2.999779317601431e-14 7.820090328378775 -40.13679603662554
5.518589734611915 4.426812438420633 -36.8115607109938
-5.323110489252723 4.510895260002187 -36.57244290516147
2.592985235956685e-14 7.174941801836616 -37.05778757967114
-0.000333519279111627 9.09671753601787 -97.67737185402014
-1.77635683940025e-15 10.60257777782963 -59.59883760465825
2.220446049250313e-15 11.60514365691663 -11.45771431497679
1.332267629550188e-15 7.086598614709985 -68.78724959837342
-0.003437115680433589 8.274029133818523 -25.31745539757145
1.53197383023957e-15 6.948732540197885 -51.4382202633038
1.038965451654451e-15 7.196533920482993 -90.96110682757579
-1.961480207778815 6.669232745748808 -108.7224389482586
1.679442542626884 7.583606626934801 -17.82175465563491
-2.069368535317564 6.729889522682138 -6.785658317428514
-2.5446565100737 13.89868586206789 -5.713742540771863
1.130609208664777 13.63771838292719 -21.10945700354014
2.263573018720094 5.217042445725095 -114.9065289127483
1.695508298196995 10.87838860824819 -104.3334578963157
-2.375402957754626 14.14925140329295 -100.7125857699754

CELLS 2721 11909
1 0
1 1
1 2
1 3
1 4
1 5
1 6
1 7
1 8
1 9
1 10
1 11
1 12
1 13
1 14
1 15
1 16
1 17
1 18
1 19
1 20
1 21
1 22
1 23
1 24
1 25
1 26
1 27
1 28
1 29
1 30
1 31
1 32
1 33
1 34
1 35
1 36
1 37
1 38
1 39
1 40
1 41
1 42
1 43
1 44
1 45
1 46
1 47
1 48
1 49
1 50
1 51
1 52
1 53
1 54
1 55
1 56
1 57
1 58
1 59
1 60
1 61
1 62
1 63
1 64
1 65
1 66
1 67
1 68
1 69
1 70
1 71
1 72
1 73
1 74
1 75
1 76
1 77
1 78
1 79
1 80
1 81
2 0 1
2 1 2
2 2 3
2 3 82
2 82 83
2 83 84
2 84 85
2 85 4
2 4 5
2 5 6
2 6 86
2 86 87
2 87 88
2 88 7
2 8 7
2 8 9
2 9 89
2 89 90
2 90 91
2 91 92
2 92 10
2 11 10
2 12 11
2 13 12
2 13 93
2 93 94
2 94 95
2 95 96
2 96 14
2 15 14
2 16 15
2 17 16
2 17 97
2 97 98
2 98 99
2 99 100
2 100 101
2 101 18
2 19 102
2 102 103
2 103 18
2 20 104
2 104 105
2 105 106
2 106 107
2 107 108
2 108 19
2 20 21
2 21 22
2 22 23
2 0 109
2 109 110
2 110 111
2 111 112
2 112 23
2 1 24
2 24 113
2 113 0
2 24 114
2 114 25
2 2 25
2 3 115
2 115 25
2 23 116
2 116 26
2 26 27
2 27 117
2 117 20
2 19 118
2 118 28
2 28 119
2 119 120
2 120 29
2 29 30
2 30 121
2 121 122
2 122 31
2 31 123
2 123 124
2 124 32
2 32 33
2 33 125
2 125 126
2 126 34
2 34 127
2 127 128
2 128 35
2 35 129
2 129 130
2 130 36
2 4 131
2 131 132
2 132 36
2 38 133
2 133 134
2 134 135
2 135 37
2 8 136
2 136 137
2 137 138
2 138 38
2 39 139
2 139 140
2 140 9
2 39 141
2 141 142
2 142 36
2 5 143
2 143 144
2 144 145
2 145 37
2 6 146
2 146 147
2 147 148
2 148 40
2 37 40
2 41 149
2 149 150
2 150 151
2 151 40
2 7 152
2 152 153
2 153 154
2 154 41
2 38 41
2 42 155
2 155 13
2 14 156
2 156 43
2 44 157
2 157 43
2 44 158
2 158 17
2 18 159
2 159 45
2 45 160
2 160 161
2 161 46
2 46 47
2 47 162
2 162 163
2 163 48
2 48 164
2 164 165
2 165 49
2 49 50
2 50 166
2 166 167
2 167 51
2 51 168
2 168 169
2 169 52
2 39 170
2 170 171
2 171 52
2 10 172
2 172 53
2 42 173
2 173 53
2 53 11
2 42 12
2 43 15
2 44 16
2 28 174
2 174 175
2 175 45
2 21 27
2 22 26
2 29 176
2 176 177
2 177 46
2 30 178
2 178 179
2 179 47
2 31 54
2 54 55
2 55 180
2 180 56
2 56 57
2 57 48
2 32 181
2 181 182
2 182 49
2 57 58
2 58 183
2 183 59
2 59 54
2 33 184
2 184 185
2 185 50
2 34 60
2 60 61
2 61 186
2 186 62
2 62 63
2 63 51
2 35 187
2 187 188
2 188 52
2 63 64
2 64 189
2 189 65
2 65 60
2 59 190
2 190 58
2 55 191
2 191 56
2 65 192
2 192 64
2 61 193
2 193 62
2 66 194
2 194 195
2 195 67
2 67 196
2 196 66
2 66 197
2 197 68
2 68 198
2 198 199
2 199 69
2 69 200
2 200 67
2 68 70
2 70 201
2 201 71
2 71 202
2 202 72
2 72 203
2 203 73
2 69 73
2 70 204
2 204 205
2 205 73
2 71 206
2 206 207
2 207 72
2 74 208
2 208 209
2 209 75
2 75 210
2 210 74
2 74 211
2 211 76
2 76 212
2 212 213
2 213 77
2 77 214
2 214 75
2 76 78
2 78 215
2 215 79
2 79 216
2 216 80
2 80 217
2 217 81
2 77 81
2 78 218
2 218 219
2 219 81
2 79 220
2 220 221
2 221 80
3 1 225 0
3 0 236 109
3 225 236 0
3 2 225 1
3 3 225 2
3 82 228 3
3 3 260 225
3 228 260 3
3 6 4 5
3 86 4 6
3 4 240 85
3 86 240 4
3 8 9 7
3 7 9 88
3 9 233 88
3 89 272 9
3 9 272 233
3 11 224 10
3 10 263 92
3 224 238 10
3 238 263 10
3 12 224 11
3 13 224 12
3 93 226 13
3 13 262 224
3 226 262 13
3 15 258 14
3 14 227 96
3 14 258 227
3 16 223 15
3 223 258 15
3 17 223 16
3 97 241 17
3 17 241 223
3 18 270 101
3 103 270 18
3 19 269 102
3 108 269 19
3 21 222 20
3 20 229 104
3 222 229 20
3 22 222 21
3 23 222 22
3 112 237 23
3 23 261 222
3 237 261 23
3 83 245 82
3 82 245 228
3 84 248 83
3 83 248 245
3 85 239 84
3 239 248 84
3 85 240 239
3 87 240 86
3 88 233 87
3 233 240 87
3 90 249 89
3 249 272 89
3 91 234 90
3 234 249 90
3 92 259 91
3 91 259 234
3 246 259 92
3 92 263 246
3 94 264 93
3 93 264 226
3 95 244 94
3 244 264 94
3 96 253 95
3 95 253 244
3 227 253 96
3 98 235 97
3 235 241 97
3 99 254 98
3 98 254 235
3 100 243 99
3 243 254 99
3 101 257 100
3 100 257 243
3 101 270 257
3 102 230 103
3 102 269 230
3 230 270 103
3 104 247 105
3 229 247 104
3 105 255 106
3 247 255 105
3 106 231 107
3 106 255 231
3 107 256 108
3 231 256 107
3 256 269 108
3 109 265 110
3 236 265 109
3 110 232 111
3 110 265 232
3 111 250 112
3 232 250 111
3 112 250 237
3 222 242 229
3 222 261 242
3 241 242 223
3 242 258 223
3 224 262 238
3 225 252 236
3 225 260 252
3 226 251 236
3 236 252 226
3 226 264 251
3 252 262 226
3 227 268 253
3 258 271 227
3 227 271 268
3 245 246 228
3 246 260 228
3 242 266 229
3 229 266 247
3 256 257 230
3 230 269 256
3 257 270 230
3 231 254 243
3 243 256 231
3 231 255 254
3 244 250 232
3 232 251 244
3 232 265 251
3 233 267 240
3 233 272 267
3 234 248 239
3 239 249 234
3 234 259 248
3 235 266 241
3 235 254 247
3 247 266 235
3 251 265 236
3 250 268 237
3 237 271 261
3 268 271 237
3 238 260 246
3 246 263 238
3 252 260 238
3 238 262 252
3 240 267 239
3 239 267 249
3 241 266 242
3 242 271 258
3 261 271 242
3 243 257 256
3 244 253 250
3 251 264 244
3 245 259 246
3 248 259 245
3 254 255 247
3 267 272 249
3 253 268 250
3 0 113 1
3 1 113 24
3 1 273 2
3 24 273 1
3 2 273 25
3 114 273 24
3 25 273 114
3 2 115 3
3 2 25 115
3 109 290 0
3 0 290 113
3 3 292 82
3 115 292 3
3 85 308 4
3 4 308 131
3 19 118 108
3 104 293 20
3 20 293 117
3 23 291 112
3 116 291 23
3 113 281 24
3 24 310 114
3 281 310 24
3 34 282 25
3 25 310 34
3 114 310 25
3 25 282 115
3 27 31 26
3 31 288 26
3 26 288 116
3 27 287 31
3 117 287 27
3 28 280 118
3 119 280 28
3 30 275 29
3 29 275 120
3 121 275 30
3 31 287 122
3 123 288 31
3 33 284 32
3 32 284 124
3 125 284 33
3 34 281 126
3 127 282 34
3 34 310 281
3 35 289 128
3 129 289 35
3 36 307 130
3 132 307 36
3 82 302 83
3 292 302 82
3 83 276 84
3 83 302 276
3 84 296 85
3 276 296 84
3 296 308 85
3 105 278 104
3 278 293 104
3 106 294 105
3 105 294 278
3 107 277 106
3 277 294 106
3 108 297 107
3 107 297 277
3 118 280 108
3 280 297 108
3 110 300 109
3 109 300 290
3 111 274 110
3 274 300 110
3 112 301 111
3 111 301 274
3 291 301 112
3 113 290 281
3 282 292 115
3 288 291 116
3 117 293 287
3 120 311 119
3 119 311 280
3 275 299 120
3 299 311 120
3 122 309 121
3 121 298 275
3 121 309 298
3 287 309 122
3 124 285 123
3 285 288 123
3 284 305 124
3 124 305 285
3 126 286 125
3 125 304 284
3 286 304 125
3 281 286 126
3 128 283 127
3 127 283 282
3 128 306 283
3 289 306 128
3 130 295 129
3 129 295 289
3 130 307 295
3 131 279 132
3 131 308 279
3 279 307 132
3 274 304 300
3 301 305 274
3 274 305 304
3 275 298 294
3 294 299 275
3 276 303 296
3 302 306 276
3 276 306 303
3 277 299 294
3 297 311 277
3 277 311 299
3 278 309 293
3 294 298 278
3 298 309 278
3 279 303 295
3 295 307 279
3 296 303 279
3 279 308 296
3 280 311 297
3 281 290 286
3 283 292 282
3 283 302 292
3 283 306 302
3 304 305 284
3 285 291 288
3 285 301 291
3 285 305 301
3 290 300 286
3 300 304 286
3 293 309 287
3 295 303 289
3 303 306 289
3 5 4 312
3 4 131 312
3 143 5 312
3 9 8 313
3 8 136 313
3 140 9 313
3 36 135 37
3 145 36 37
3 145 132 36
3 36 142 135
3 38 133 39
3 138 38 39
3 133 141 39
3 139 138 39
3 132 144 131
3 144 143 131
3 131 143 312
3 145 144 132
3 141 133 134
3 142 134 135
3 142 141 134
3 136 137 140
3 136 140 313
3 137 138 139
3 137 139 140
3 5 317 6
3 143 317 5
3 6 317 146
3 40 314 37
3 37 314 145
3 148 314 40
3 144 316 143
3 143 316 146
3 146 317 143
3 145 315 144
3 144 315 147
3 147 316 144
3 145 314 148
3 148 315 145
3 146 316 147
3 147 315 148
3 6 328 86
3 146 328 6
3 88 330 7
3 7 330 152
3 40 329 148
3 151 329 40
3 41 327 149
3 154 327 41
3 86 326 87
3 86 328 326
3 87 318 88
3 87 326 318
3 318 330 88
3 147 320 146
3 320 328 146
3 148 322 147
3 147 322 320
3 148 329 322
3 149 325 150
3 149 327 325
3 150 319 151
3 150 325 319
3 319 329 151
3 152 324 153
3 152 330 324
3 153 321 154
3 153 324 321
3 321 327 154
3 323 324 318
3 318 326 323
3 324 330 318
3 319 323 322
3 322 329 319
3 319 325 323
3 322 323 320
3 323 326 320
3 326 328 320
3 321 324 323
3 323 325 321
3 325 327 321
3 8 7 334
3 7 152 334
3 136 8 334
3 41 38 331
3 38 138 331
3 154 41 331
3 137 136 332
3 136 152 332
3 152 136 334
3 138 137 333
3 153 137 332
3 137 153 333
3 138 154 331
3 154 138 333
3 152 153 332
3 153 154 333
3 89 9 369
3 9 140 369
3 10 92 353
3 172 10 353
3 93 13 351
3 13 155 351
3 14 96 352
3 156 14 352
3 97 17 354
3 17 158 354
3 101 159 18
3 139 39 368
3 39 170 368
3 155 42 345
3 42 173 371
3 345 42 371
3 43 156 342
3 157 43 372
3 43 342 372
3 44 48 343
3 48 44 372
3 44 157 372
3 158 44 343
3 45 159 341
3 160 45 341
3 47 46 336
3 46 161 336
3 162 47 336
3 48 163 343
3 164 48 342
3 342 48 372
3 50 49 347
3 49 165 347
3 166 50 347
3 51 53 344
3 53 51 371
3 51 167 345
3 168 51 344
3 51 345 371
3 52 169 350
3 171 52 350
3 53 172 344
3 173 53 371
3 90 89 357
3 357 89 369
3 91 90 337
3 337 90 357
3 92 91 363
3 91 337 363
3 353 92 363
3 94 93 361
3 93 351 361
3 95 94 335
3 335 94 361
3 96 95 362
3 95 335 362
3 352 96 362
3 98 97 339
3 339 97 354
3 99 98 355
3 98 339 355
3 100 99 338
3 338 99 355
3 101 100 358
3 100 338 358
3 159 101 341
3 341 101 358
3 140 139 340
3 340 139 368
3 140 340 369
3 155 345 351
3 342 156 352
3 158 343 354
3 161 160 373
3 160 341 373
3 336 161 360
3 360 161 373
3 163 162 370
3 162 336 359
3 162 359 370
3 343 163 370
3 165 164 348
3 164 342 348
3 347 165 366
3 165 348 366
3 167 166 349
3 166 347 365
3 349 166 365
3 345 167 349
3 169 168 346
3 168 344 346
3 169 346 367
3 350 169 367
3 170 171 356
3 170 356 368
3 171 350 356
3 344 172 353
3 335 361 365
3 362 335 366
3 335 365 366
3 336 355 359
3 355 336 360
3 337 357 364
3 363 337 367
3 337 364 367
3 338 355 360
3 358 338 373
3 338 360 373
3 339 354 370
3 355 339 359
3 359 339 370
3 340 356 364
3 356 340 368
3 357 340 364
3 340 357 369
3 341 358 373
3 348 342 352
3 354 343 370
3 346 344 353
3 345 349 351
3 346 353 363
3 346 363 367
3 365 347 366
3 348 352 362
3 348 362 366
3 351 349 361
3 361 349 365
3 356 350 364
3 364 350 367
3 172 11 10
3 53 11 172
3 11 374 12
3 53 374 11
3 12 374 42
3 42 374 173
3 173 374 53
3 155 13 12
3 42 155 12
3 156 15 14
3 43 15 156
3 15 375 16
3 43 375 15
3 16 375 44
3 157 375 43
3 44 375 157
3 158 17 16
3 44 158 16
3 18 377 103
3 159 377 18
3 102 378 19
3 19 378 118
3 118 378 28
3 28 378 174
3 45 377 159
3 175 377 45
3 103 376 102
3 376 378 102
3 103 377 376
3 174 376 175
3 174 378 376
3 376 377 175
3 21 20 117
3 21 117 27
3 21 379 22
3 27 379 21
3 22 379 26
3 26 379 27
3 22 116 23
3 22 26 116
3 28 385 119
3 174 385 28
3 120 386 29
3 29 386 176
3 160 384 45
3 45 384 175
3 46 387 161
3 177 387 46
3 119 382 120
3 119 385 382
3 382 386 120
3 161 383 160
3 383 384 160
3 161 387 383
3 175 381 174
3 381 385 174
3 175 384 381
3 176 380 177
3 176 386 380
3 380 387 177
3 382 383 380
3 380 386 382
3 383 387 380
3 381 383 382
3 382 385 381
3 381 384 383
3 29 388 30
3 176 388 29
3 30 388 178
3 47 390 46
3 46 390 177
3 179 390 47
3 177 389 176
3 176 389 388
3 177 390 389
3 178 389 179
3 388 389 178
3 389 390 179
3 30 398 121
3 178 398 30
3 31 55 54
3 122 55 31
3 162 397 47
3 47 397 179
3 56 48 57
3 56 163 48
3 122 393 55
3 55 393 180
3 56 392 163
3 180 392 56
3 121 395 122
3 121 398 395
3 122 395 393
3 163 396 162
3 396 397 162
3 392 396 163
3 179 391 178
3 391 398 178
3 179 397 391
3 180 394 392
3 393 394 180
3 394 395 391
3 391 396 394
3 395 398 391
3 391 397 396
3 394 396 392
3 393 395 394
3 31 54 59
3 31 59 123
3 124 406 32
3 32 406 181
3 57 48 58
3 48 164 58
3 49 405 165
3 182 405 49
3 164 400 58
3 58 400 183
3 59 401 123
3 183 401 59
3 123 403 124
3 401 403 123
3 403 406 124
3 165 404 164
3 164 404 400
3 165 405 404
3 181 399 182
3 181 406 399
3 399 405 182
3 400 402 183
3 183 402 401
3 399 403 402
3 402 404 399
3 399 406 403
3 404 405 399
3 400 404 402
3 402 403 401
3 32 407 33
3 181 407 32
3 33 407 184
3 50 409 49
3 49 409 182
3 185 409 50
3 182 408 181
3 181 408 407
3 182 409 408
3 184 408 185
3 407 408 184
3 408 409 185
3 33 417 125
3 184 417 33
3 60 34 61
3 34 126 61
3 166 416 50
3 50 416 185
3 63 62 51
3 51 62 167
3 126 411 61
3 61 411 186
3 62 412 167
3 186 412 62
3 125 414 126
3 125 417 414
3 126 414 411
3 167 415 166
3 415 416 166
3 412 415 167
3 185 410 184
3 410 417 184
3 185 416 410
3 411 413 186
3 186 413 412
3 413 414 410
3 410 415 413
3 414 417 410
3 410 416 415
3 411 414 413
3 413 415 412
3 60 65 34
3 34 65 127
3 128 425 35
3 35 425 187
3 63 51 64
3 51 168 64
3 52 424 169
3 188 424 52
3 168 420 64
3 64 420 189
3 65 419 127
3 189 419 65
3 127 422 128
3 419 422 127
3 422 425 128
3 169 423 168
3 168 423 420
3 169 424 423
3 187 418 188
3 187 425 418
3 418 424 188
3 189 421 419
3 420 421 189
3 418 422 421
3 421 423 418
3 418 425 422
3 423 424 418
3 421 422 419
3 420 423 421
3 35 432 129
3 187 432 35
3 130 430 36
3 36 430 142
3 141 433 39
3 39 433 170
3 171 431 52
3 52 431 188
3 129 428 130
3 129 432 428
3 428 430 130
3 142 426 141
3 426 433 141
3 142 430 426
3 170 429 171
3 170 433 429
3 429 431 171
3 188 427 187
3 427 432 187
3 188 431 427
3 428 429 426
3 426 430 428
3 429 433 426
3 427 429 428
3 428 432 427
3 427 431 429
3 37 434 40
3 135 434 37
3 41 436 38
3 38 436 133
3 40 434 151
3 149 436 41
3 133 437 134
3 133 436 149
3 149 437 133
3 134 435 135
3 150 435 134
3 134 437 150
3 151 434 135
3 135 435 151
3 150 437 149
3 151 435 150
3 55 439 54
3 54 439 59
3 191 439 55
3 57 438 56
3 56 438 191
3 58 438 57
3 190 438 58
3 59 439 190
3 191 438 190
3 190 439 191
3 55 180 191
3 191 180 56
3 190 58 183
3 59 190 183
3 61 441 60
3 60 441 65
3 193 441 61
3 63 440 62
3 62 440 193
3 64 440 63
3 192 440 64
3 65 441 192
3 193 440 192
3 192 441 193
3 61 186 193
3 186 62 193
3 189 192 64
3 65 192 189
3 194 196 66
3 195 67 196
3 194 195 196
3 194 66 442
3 66 197 442
3 67 195 443
3 200 67 443
3 197 68 442
3 68 198 442
3 199 69 443
3 69 200 443
3 195 194 444
3 198 194 442
3 194 198 444
3 195 199 443
3 199 195 444
3 198 199 444
3 196 445 66
3 66 445 197
3 67 448 196
3 200 448 67
3 68 445 70
3 197 445 68
3 73 446 69
3 69 446 200
3 70 445 201
3 201 447 71
3 71 447 202
3 202 446 72
3 72 446 203
3 203 446 73
3 196 447 445
3 196 448 447
3 446 448 200
3 445 447 201
3 202 448 446
3 447 448 202
3 68 70 449
3 198 68 449
3 73 69 450
3 69 199 450
3 70 204 449
3 205 73 450
3 199 198 451
3 204 198 449
3 198 204 451
3 199 205 450
3 205 199 451
3 204 205 451
3 70 201 453
3 204 70 453
3 201 71 453
3 71 206 453
3 72 203 452
3 207 72 452
3 203 73 452
3 73 205 452
3 205 204 454
3 206 204 453
3 204 206 454
3 205 207 452
3 207 205 454
3 206 207 454
3 202 206 71
3 207 202 72
3 207 206 202
3 208 210 74
3 210 209 75
3 209 210 208
3 208 74 455
3 74 211 455
3 75 209 456
3 214 75 456
3 211 76 455
3 76 212 455
3 213 77 456
3 77 214 456
3 209 208 457
3 212 208 455
3 208 212 457
3 209 213 456
3 213 209 457
3 212 213 457
3 210 458 74
3 74 458 211
3 75 461 210
3 214 461 75
3 76 458 78
3 211 458 76
3 81 459 77
3 77 459 214
3 78 458 215
3 215 460 79
3 79 460 216
3 216 459 80
3 80 459 217
3 217 459 81
3 210 460 458
3 210 461 460
3 459 461 214
3 458 460 215
3 216 461 459
3 460 461 216
3 76 78 462
3 212 76 462
3 81 77 463
3 77 213 463
3 78 218 462
3 219 81 463
3 213 212 464
3 218 212 462
3 212 218 464
3 213 219 463
3 219 213 464
3 218 219 464
3 78 215 465
3 218 78 465
3 215 79 465
3 79 220 465
3 80 217 466
3 221 80 466
3 217 81 466
3 81 219 466
3 219 218 467
3 220 218 465
3 218 220 467
3 219 221 466
3 221 219 467
3 220 221 467
3 216 220 79
3 221 216 80
3 221 220 216
4 362 335 253 471
4 399 469 405 471
4 406 469 399 471
4 431 470 356 479
4 300 274 232 469
4 399 403 406 471
4 405 404 399 471
4 416 410 415 469
4 417 414 410 469
4 274 305 301 471
4 356 431 429 470
4 362 366 335 471
4 283 419 220 472
4 420 346 221 472
4 300 469 232 473
4 274 301 250 471
4 308 470 296 477
4 421 220 419 472
4 420 221 421 472
4 430 307 142 478
4 220 228 283 472
4 431 429 470 479
4 335 244 253 471
4 220 421 221 472
4 279 470 477 478
4 366 469 335 471
4 405 469 366 471
4 274 469 305 471
4 406 305 469 471
4 335 469 244 471
4 366 404 405 471
4 274 250 469 471
4 431 427 429 479
4 403 305 406 471
4 300 304 274 469
4 409 182 408 469
4 408 181 407 469
4 365 416 415 469
4 304 414 417 469
4 132 307 279 478
4 361 244 335 473
4 277 311 297 475
4 132 279 323 478
4 308 279 296 470
4 409 408 185 469
4 184 408 407 469
4 320 279 131 477
4 279 477 323 478
4 410 469 414 473
4 415 469 410 473
4 132 142 307 478
4 250 232 274 469
4 398 391 178 468
4 265 300 232 473
4 431 356 350 479
4 307 470 279 478
4 388 178 389 482
4 244 469 335 473
4 264 244 361 473
4 209 413 457 208
4 220 221 246 472
4 239 308 296 477
4 389 176 388 482
4 304 469 300 473
4 279 470 308 477
4 176 481 388 482
4 239 296 470 477
4 245 302 228 472
4 131 279 308 477
4 297 475 311 480
4 320 323 279 477
4 398 298 395 468
4 397 396 359 468
4 254 475 468 481
4 360 355 475 481
4 182 405 399 469
4 399 406 181 469
4 427 470 429 479
4 279 320 132 323
4 255 468 294 481
4 360 468 355 481
4 364 470 357 476
4 468 475 355 481
4 398 395 391 468
4 397 391 396 468
4 365 469 415 473
4 304 414 469 473
4 470 476 364 479
4 231 468 255 481
4 283 228 220 292
4 307 430 470 478
4 5 312 317 143
4 136 8 313 334
4 364 357 337 476
4 283 228 302 472
4 296 239 470 476
4 246 228 220 472
4 295 428 432 479
4 468 481 360 482
4 391 178 468 482
4 398 178 275 468
4 311 475 277 481
4 399 181 408 469
4 399 408 182 469
4 295 470 428 479
4 360 355 338 475
4 254 231 475 481
4 419 422 421 472
4 220 467 221 421
4 420 421 423 472
4 419 283 422 472
4 346 420 423 472
4 249 239 476 477
4 270 341 475 480
4 357 234 337 476
4 254 468 231 481
4 251 232 469 473
4 234 357 249 476
4 207 206 454 471
4 246 221 346 472
4 384 475 341 480
4 410 184 417 469
4 185 410 416 469
4 131 326 320 477
4 247 278 255 468
4 295 303 470 479
4 352 227 207 471
4 244 469 250 471
4 239 267 240 477
4 364 476 367 479
4 397 468 359 482
4 270 341 257 475
4 353 80 221 263
4 235 468 339 474
4 221 246 216 220
4 338 355 243 475
4 232 250 244 469
4 470 476 239 477
4 298 395 468 474
4 359 468 396 474
4 255 278 294 468
4 237 291 206 471
4 337 472 367 476
4 239 240 308 477
4 426 470 430 478
4 231 254 255 468
4 267 239 249 477
4 185 408 410 469
4 410 408 184 469
4 235 254 339 468
4 377 376 175 480
4 388 275 178 482
4 360 383 387 481
4 270 376 377 480
4 276 302 248 472
4 367 476 472 479
4 337 367 364 476
4 360 481 387 482
4 395 391 468 474
4 396 468 391 474
4 428 470 427 479
4 303 476 470 479
4 424 367 472 479
4 275 468 178 482
4 257 270 475 480
4 355 468 360 482
4 227 352 362 471
4 245 248 302 472
4 402 207 454 471
4 402 454 206 471
4 265 232 251 473
4 276 472 248 476
4 221 346 353 246
4 354 195 241 474
4 291 237 301 471
4 426 430 142 478
4 402 454 207 183
4 206 454 402 183
4 394 195 444 180
4 444 194 394 180
4 425 422 306 472
4 382 311 475 480
4 185 416 347 469
4 184 284 417 469
4 424 367 423 472
4 337 259 363 472
4 131 279 320 132
4 354 370 195 474
4 194 309 293 474
4 357 470 340 477
4 307 430 428 470
4 195 444 194 474
4 326 323 320 477
4 347 409 185 469
4 184 407 284 469
4 391 468 397 482
4 322 132 323 478
4 227 362 253 471
4 232 244 251 469
4 418 424 472 479
4 428 427 432 479
4 257 341 358 475
4 246 353 221 263
4 251 469 244 473
4 382 475 311 481
4 353 344 221 466
4 425 418 422 472
4 293 229 194 474
4 418 424 423 472
4 292 283 228 302
4 394 444 195 474
4 394 194 444 474
4 251 244 264 473
4 278 468 247 474
4 275 298 398 468
4 231 277 475 481
4 270 230 376 480
4 254 231 243 475
4 296 470 303 476
4 360 475 383 481
4 207 227 268 471
4 298 468 278 474
4 359 339 468 474
4 247 468 235 474
4 254 355 339 468
4 425 472 306 479
4 206 291 285 471
4 349 412 209 473
4 286 208 411 473
4 235 339 354 474
4 279 303 296 470
4 364 340 357 470
4 207 452 352 342
4 209 345 351 456
4 244 250 253 471
4 9 140 313 330
4 351 349 209 473
4 286 290 208 473
4 131 4 312 328
4 256 475 297 480
4 402 403 399 471
4 404 402 399 471
4 295 432 289 479
4 418 472 425 479
4 352 207 348 471
4 246 245 228 472
4 186 209 413 457
4 457 413 186 208
4 394 396 391 474
4 395 394 391 474
4 285 401 206 471
4 388 481 275 482
4 322 323 319 478
4 400 348 207 471
4 430 426 428 470
4 405 347 366 469
4 246 346 363 472
4 276 306 302 472
4 367 337 363 472
4 406 305 284 469
4 428 429 427 470
4 442 194 287 293
4 415 410 413 473
4 410 414 413 473
4 247 293 278 474
4 235 354 241 474
4 359 339 355 468
4 294 278 298 468
4 370 392 195 474
4 221 80 353 466
4 309 194 393 474
4 194 442 66 293
4 206 268 237 471
4 208 290 236 473
4 351 209 226 473
4 295 307 428 470
4 306 472 276 476
4 291 301 285 471
4 283 282 220 419
4 420 346 344 221
4 216 246 228 220
4 235 247 254 468
4 354 67 241 195
4 305 403 285 471
4 188 350 424 479
4 404 366 348 471
4 365 347 416 469
4 417 284 304 469
4 253 268 227 471
4 350 364 367 479
4 365 415 349 473
4 304 286 414 473
4 352 348 362 471
4 413 208 209 473
4 95 362 335 253
4 71 453 206 291
4 349 351 361 473
4 290 286 300 473
4 453 288 206 291
4 66 229 194 293
4 72 352 227 207
4 424 350 367 479
4 236 300 265 473
4 429 356 470 478
4 382 385 311 480
4 207 400 402 183
4 206 402 401 183
4 194 393 394 180
4 195 394 392 180
4 206 237 71 291
4 248 472 259 476
4 346 363 353 246
4 247 229 293 474
4 383 380 387 481
4 220 282 283 292
4 344 346 353 221
4 290 300 236 473
4 257 230 270 480
4 275 481 468 482
4 351 226 361 473
4 309 278 293 474
4 339 370 354 474
4 402 206 401 471
4 400 207 402 471
4 79 220 228 292
4 368 429 433 478
4 467 189 221 421
4 189 467 220 421
4 341 373 358 475
4 391 389 178 482
4 255 254 247 468
4 202 207 227 268
4 286 411 414 473
4 412 349 415 473
4 295 289 303 479
4 429 368 356 478
4 282 220 465 79
4 413 411 208 473
4 413 209 412 473
4 390 179 397 482
4 381 475 384 480
4 341 384 373 475
4 306 422 283 472
4 346 423 367 472
4 359 396 370 474
4 393 194 394 474
4 394 195 392 474
4 298 309 395 474
4 311 277 299 481
4 352 72 452 207
4 351 75 209 456
4 359 468 355 482
4 401 285 403 471
4 250 301 237 471
4 400 404 348 471
4 264 361 226 473
4 350 188 431 479
4 268 202 206 237
4 295 279 307 470
4 384 175 381 480
4 254 339 98 235
4 391 179 389 482
4 296 276 239 476
4 370 396 392 474
4 234 249 239 476
4 395 309 393 474
4 408 399 182 181
4 389 179 391 178
4 288 285 401 206
4 365 335 366 469
4 381 382 475 480
4 373 383 360 475
4 285 301 305 471
4 408 184 185 410
4 295 303 279 470
4 364 356 340 470
4 412 415 413 473
4 413 414 411 473
4 305 274 304 469
4 348 207 342 400
4 281 286 208 411
4 412 345 349 209
4 208 413 186 411
4 209 413 412 186
4 9 140 330 272
4 106 255 294 277
4 299 277 294 481
4 366 362 348 471
4 139 140 340 478
4 387 481 380 482
4 233 330 140 272
4 248 245 259 472
4 280 297 311 480
4 234 248 259 476
4 434 40 151 329
4 421 422 418 472
4 41 327 436 149
4 423 421 418 472
4 202 268 206 471
4 202 207 268 471
4 84 276 239 296
4 429 428 426 470
4 361 365 349 473
4 304 300 286 473
4 195 370 343 392
4 429 470 426 478
4 352 362 96 227
4 246 363 259 472
4 140 477 340 478
4 429 426 433 478
4 370 354 195 343
4 253 96 362 227
4 282 220 79 292
4 336 397 359 482
4 249 369 272 477
4 380 386 176 481
4 369 249 357 477
4 233 9 330 272
4 231 255 106 277
4 401 403 402 471
4 400 402 404 471
4 359 370 339 474
4 309 287 393 194
4 391 397 179 482
4 254 98 339 355
4 298 278 309 474
4 334 152 7 330
4 317 328 6 146
4 148 40 314 329
4 418 188 424 479
4 248 302 276 83
4 280 311 385 480
4 194 309 287 293
4 331 327 41 154
4 176 380 481 482
4 301 237 291 112
4 275 294 468 481
4 433 141 39 478
4 253 335 95 244
4 301 274 250 111
4 188 427 431 479
4 383 475 382 481
4 139 324 140 478
4 302 248 245 83
4 294 298 275 468
4 268 250 237 471
4 382 299 386 481
4 247 293 104 278
4 394 392 396 474
4 395 393 394 474
4 178 388 398 275
4 325 437 149 150
4 206 288 285 291
4 75 351 209 226
4 140 9 369 272
4 249 272 267 477
4 324 477 140 478
4 381 385 382 480
4 321 154 333 153
4 383 373 384 475
4 357 90 337 234
4 276 248 239 476
4 381 382 383 475
4 290 208 236 74
4 306 476 303 479
4 233 240 267 477
4 369 357 340 477
4 319 435 150 151
4 302 306 283 472
4 367 363 346 472
4 220 189 421 419
4 189 420 221 421
4 390 387 177 482
4 233 326 240 477
4 472 476 306 479
4 246 92 353 263
4 435 142 134 135
4 134 437 133 141
4 297 277 231 107
4 141 142 325 478
4 352 207 342 348
4 349 345 351 209
4 281 208 286 290
4 239 248 276 84
4 141 139 39 478
4 232 250 274 111
4 234 357 90 249
4 140 330 233 318
4 433 39 139 478
4 425 128 306 422
4 169 423 424 367
4 232 300 110 274
4 340 477 470 478
4 359 355 336 482
4 371 63 463 456
4 57 450 452 372
4 382 311 299 481
4 241 195 266 474
4 59 288 401 206
4 300 265 232 110
4 380 383 382 481
4 383 384 381 475
4 105 294 255 278
4 55 393 287 194
4 316 320 146 147
4 293 229 247 104
4 406 403 124 305
4 426 142 141 478
4 139 368 433 478
4 139 39 433 368
4 343 56 195 392
4 243 338 99 355
4 366 405 404 165
4 315 147 148 322
4 354 97 339 235
4 228 292 302 82
4 377 270 103 376
4 153 332 324 152
4 416 415 166 365
4 304 417 414 125
4 275 299 294 481
4 429 171 431 356
4 432 428 295 129
4 210 208 236 473
4 240 326 328 131
4 324 323 477 478
4 420 344 64 221
4 282 65 220 419
4 139 141 321 478
4 269 297 280 480
4 281 208 61 411
4 62 345 412 209
4 207 58 342 400
4 233 140 318 477
4 210 209 208 473
4 241 266 235 474
4 255 247 105 278
4 363 337 91 259
4 275 386 299 481
4 302 245 228 82
4 289 425 306 479
4 390 397 336 482
4 144 131 143 316
4 332 137 140 136
4 233 318 326 477
4 376 270 103 230
4 319 325 142 478
4 308 85 239 296
4 320 322 132 323
4 365 366 347 469
4 296 303 276 476
4 176 389 380 482
4 195 443 56 343
4 289 187 425 479
4 246 259 245 472
4 304 284 305 469
4 253 250 268 471
4 429 433 170 368
4 338 243 358 475
4 428 430 307 130
4 194 229 266 474
4 100 358 338 243
4 251 236 265 473
4 26 22 70 379
4 21 27 68 379
4 85 239 240 308
4 202 206 207 471
4 131 4 328 240
4 250 237 301 112
4 221 344 64 466
4 135 36 37 434
4 39 38 436 133
4 358 100 257 243
4 99 254 243 355
4 257 358 243 475
4 336 355 360 482
4 297 269 280 108
4 289 306 303 479
4 176 389 177 380
4 59 288 206 453
4 333 138 139 137
4 144 315 145 132
4 62 345 209 456
4 452 207 58 342
4 251 210 236 473
4 226 210 251 473
4 25 2 78 273
4 15 43 73 375
4 11 53 81 374
4 1 24 76 273
4 44 16 69 375
4 42 12 77 374
4 174 381 175 376
4 331 41 327 436
4 353 363 92 246
4 177 380 389 482
4 318 323 326 477
4 97 354 241 235
4 194 287 55 442
4 60 462 455 310
4 383 161 360 387
4 242 266 196 229
4 386 382 120 299
4 285 401 123 288
4 318 324 323 477
4 194 196 195 474
4 336 360 387 482
4 234 239 248 476
4 240 326 233 87
4 373 360 338 475
4 65 220 465 282
4 303 306 276 476
4 358 373 338 475
4 209 210 226 473
4 4 131 308 240
4 168 420 346 344
4 283 282 419 127
4 241 242 266 196
4 247 266 229 474
4 331 38 39 138
4 145 37 36 314
4 432 187 289 479
4 390 336 387 482
4 418 187 188 479
4 297 231 256 107
4 171 431 356 350
4 432 295 289 129
4 170 429 368 356
4 428 307 295 130
4 390 387 46 177
4 388 176 29 386
4 256 230 257 480
4 256 257 475 480
4 249 369 89 272
4 46 336 387 390
4 386 29 388 275
4 405 182 49 409
4 388 30 178 398
4 181 32 407 406
4 47 397 390 179
4 455 208 61 281
4 397 336 47 390
4 398 388 30 275
4 281 286 411 126
4 400 342 348 164
4 345 167 412 349
4 367 169 423 346
4 283 306 128 422
4 427 188 187 479
4 142 319 322 329
4 319 323 325 478
4 380 382 386 481
4 376 230 102 480
4 397 162 359 396
4 395 398 121 298
4 226 251 264 473
4 376 102 378 480
4 226 251 210 236
4 418 425 187 479
4 378 269 280 480
4 376 381 175 480
4 369 340 140 477
4 246 238 216 260
4 174 378 280 480
4 267 272 233 477
4 99 98 254 355
4 360 373 161 383
4 376 174 381 480
4 259 337 91 234
4 269 256 297 480
4 311 120 382 299
4 393 122 287 309
4 86 4 240 328
4 139 321 324 478
4 425 289 35 187
4 424 188 52 350
4 384 341 373 160
4 326 318 233 87
4 280 311 119 385
4 194 266 196 474
4 377 159 270 341
4 269 378 280 118
4 370 343 392 163
4 233 330 9 88
4 321 323 324 478
4 86 240 326 328
4 314 40 434 329
4 452 450 43 372
4 42 371 463 456
4 243 256 257 475
4 288 401 123 59
4 305 403 124 285
4 404 348 366 165
4 373 384 160 383
4 382 119 311 385
4 427 187 432 479
4 60 465 25 282
4 357 369 89 249
4 216 228 246 260
4 347 405 49 409
4 284 407 32 406
4 174 280 385 480
4 57 452 342 372
4 63 371 345 456
4 393 122 55 287
4 175 45 377 341
4 28 280 174 378
4 414 286 304 125
4 365 415 166 349
4 195 196 266 474
4 449 54 27 442
4 390 389 179 482
4 231 256 243 475
4 312 328 4 317
4 318 140 324 477
4 392 343 56 163
4 340 368 139 478
4 281 60 455 310
4 334 9 313 330
4 154 138 139 333
4 390 177 389 482
4 266 194 196 229
4 141 325 321 478
4 432 35 289 187
4 431 52 188 350
4 269 102 230 480
4 124 284 406 305
4 378 102 269 480
4 416 166 347 365
4 304 417 125 284
4 366 405 165 347
4 359 336 162 397
4 275 121 398 298
4 177 387 380 482
4 168 420 423 346
4 422 283 419 127
4 419 282 65 127
4 168 420 344 64
4 25 462 465 60
4 246 363 92 259
4 28 280 385 174
4 45 175 384 341
4 88 233 330 318
4 306 289 128 425
4 424 350 169 367
4 327 141 325 321
4 411 61 281 126
4 345 412 167 62
4 58 342 400 164
4 403 401 123 285
4 161 336 360 387
4 275 386 120 299
4 266 247 235 474
4 297 256 269 108
4 252 226 210 236
4 230 103 376 102
4 159 101 270 341
4 118 280 269 108
4 228 216 220 79
4 241 266 195 196
4 29 386 120 275
4 46 336 161 387
4 348 404 400 164
4 449 26 54 453
4 227 271 202 268
4 162 336 47 397
4 121 398 30 275
4 433 426 141 478
4 411 286 414 126
4 415 412 167 349
4 350 52 424 169
4 128 289 35 425
4 269 19 378 118
4 270 18 159 377
4 462 24 455 310
4 105 255 294 106
4 165 405 49 347
4 124 284 32 406
4 125 417 33 284
4 50 166 347 416
4 245 302 83 82
4 225 236 252 74
4 60 65 465 282
4 274 110 232 111
4 227 72 207 202
4 85 84 239 296
4 118 269 19 108
4 159 101 18 270
4 325 323 321 478
4 57 157 450 372
4 63 173 371 463
4 326 240 86 87
4 84 248 276 83
4 269 378 19 102
4 270 103 18 377
4 122 393 395 309
4 392 396 370 163
4 332 137 324 140
4 95 96 362 253
4 144 320 131 316
4 357 89 90 249
4 337 90 91 234
4 94 95 335 244
4 287 27 54 442
4 237 202 206 71
4 429 170 171 356
4 39 170 433 368
4 36 307 430 130
4 130 295 428 129
4 315 148 145 322
4 89 369 9 272
4 328 6 4 317
4 332 137 153 324
4 316 144 320 147
4 174 376 378 480
4 154 139 321 333
4 334 7 9 330
4 210 460 461 252
4 288 54 26 453
4 263 238 80 216
4 74 458 225 211
4 189 220 218 419
4 221 219 420 189
4 0 236 225 74
4 142 134 141 150
4 203 43 156 452
4 104 105 247 278
4 358 100 101 257
4 277 106 231 107
4 298 121 395 309
4 370 359 162 396
4 141 325 142 150
4 371 42 345 456
4 342 452 43 372
4 85 240 4 308
4 66 222 20 197
4 66 445 222 197
4 63 62 463 456
4 452 450 57 58
4 344 51 168 64
4 34 65 282 127
4 108 297 256 107
4 212 208 186 411
4 412 213 209 186
4 252 458 225 74
4 112 301 250 111
4 210 458 460 252
4 132 145 36 329
4 445 242 229 222
4 48 56 343 163
4 217 10 224 238
4 447 202 448 242
4 91 92 363 259
4 122 31 55 287
4 288 123 31 59
4 287 54 55 442
4 98 339 97 235
4 196 447 448 242
4 53 172 217 466
4 260 228 3 79
4 138 139 327 154
4 145 315 322 132
4 331 327 39 436
4 54 288 59 453
4 342 58 48 164
4 345 167 51 62
4 61 34 281 126
4 449 55 54 442
4 206 401 204 183
4 198 393 194 180
4 400 207 205 183
4 392 199 195 180
4 100 338 99 243
4 448 223 241 242
4 271 202 268 237
4 281 455 24 310
4 139 327 39 138
4 25 462 310 114
4 74 225 0 211
4 258 72 227 271
4 62 63 345 456
4 57 452 58 342
4 341 384 45 160
4 280 119 28 385
4 195 67 241 196
4 210 236 208 74
4 292 228 3 82
4 403 123 124 285
4 222 261 23 201
4 265 300 109 110
4 65 218 220 419
4 204 59 401 206
4 393 55 198 194
4 208 212 61 411
4 207 205 58 400
4 219 420 64 221
4 213 62 412 209
4 199 195 56 392
4 317 312 328 146
4 455 61 60 281
4 216 238 461 252
4 334 313 152 330
4 353 92 10 263
4 164 348 404 165
4 168 423 169 346
4 422 128 283 127
4 415 167 166 349
4 126 286 414 125
4 225 260 3 215
4 461 460 216 252
4 220 467 189 218
4 189 221 219 467
4 336 46 47 390
4 29 30 388 275
4 242 196 445 229
4 211 455 24 113
4 461 459 238 216
4 132 322 145 329
4 75 351 345 456
4 452 72 352 342
4 197 442 27 117
4 325 319 142 150
4 142 135 151 329
4 122 395 121 309
4 141 437 149 325
4 7 9 330 88
4 148 145 322 329
4 396 162 370 163
4 174 385 381 480
4 13 93 351 226
4 93 94 361 264
4 344 53 51 63
4 60 25 34 282
4 34 65 60 282
4 51 344 63 64
4 226 209 75 210
4 314 434 36 329
4 208 186 457 212
4 213 209 186 457
4 435 142 319 150
4 352 96 14 227
4 330 140 324 318
4 160 161 373 383
4 229 196 445 66
4 24 1 76 113
4 12 42 77 155
4 43 15 73 156
4 431 171 52 350
4 432 289 35 129
4 86 6 4 328
4 371 53 173 63
4 157 57 44 372
4 382 119 120 311
4 224 238 262 459
4 27 21 68 117
4 269 230 256 480
4 16 44 69 158
4 44 57 157 450
4 63 53 173 463
4 215 260 3 79
4 291 237 23 112
4 333 139 321 153
4 325 141 437 150
4 28 280 378 118
4 377 45 159 341
4 318 88 233 87
4 202 72 446 258
4 258 72 271 202
4 65 189 218 419
4 219 64 420 189
4 238 262 461 252
4 448 202 446 242
4 22 26 70 116
4 133 149 327 141
4 242 445 261 222
4 139 321 327 154
4 172 53 344 466
4 326 328 131 320
4 72 227 271 202
4 2 25 78 115
4 53 11 81 172
4 444 198 194 180
4 206 204 454 183
4 444 195 199 180
4 207 454 205 183
4 246 238 263 216
4 149 133 437 141
4 135 435 142 151
4 371 345 51 63
4 281 34 60 310
4 48 57 342 372
4 72 203 156 452
4 319 142 435 151
4 288 31 54 59
4 135 142 36 329
4 214 155 42 456
4 144 131 320 132
4 229 194 196 66
4 57 48 56 343
4 55 31 54 287
4 61 212 186 411
4 412 62 213 186
4 200 158 44 443
4 55 198 194 442
4 212 455 208 61
4 218 220 465 65
4 206 204 59 453
4 324 137 139 140
4 435 134 142 150
4 141 134 437 150
4 216 80 459 238
4 261 202 237 71
4 282 465 25 115
4 242 241 448 196
4 252 216 238 260
4 351 75 13 226
4 445 196 242 447
4 195 56 443 199
4 209 213 62 456
4 64 219 221 466
4 452 207 205 58
4 222 229 445 66
4 80 217 172 466
4 252 210 458 74
4 79 465 282 115
4 133 327 39 141
4 401 59 204 183
4 55 393 198 180
4 205 58 400 183
4 56 199 392 180
4 211 74 455 113
4 319 142 151 329
4 139 153 137 324
4 147 144 320 132
4 197 66 442 117
4 210 252 236 74
4 17 97 354 241
4 215 3 225 78
4 237 23 261 71
4 60 61 34 281
4 63 345 51 62
4 48 57 58 342
4 141 149 327 325
4 238 224 217 459
4 70 222 23 201
4 345 155 75 456
4 156 72 452 342
4 74 281 455 113
4 258 223 446 242
4 443 158 44 343
4 320 146 131 316
4 242 445 447 261
4 228 3 79 292
4 434 151 36 329
4 140 324 332 152
4 347 49 50 409
4 32 33 407 284
4 293 20 229 104
4 153 139 321 324
4 210 262 226 252
4 290 0 236 109
4 238 262 459 461
4 314 36 148 329
4 443 67 158 343
4 44 48 57 343
4 452 43 156 342
4 345 42 155 456
4 271 202 237 261
4 25 462 60 310
4 258 271 242 202
4 223 73 15 258
4 242 446 258 202
4 282 79 115 292
4 315 147 322 132
4 226 75 13 262
4 436 327 39 149
4 36 135 151 434
4 149 39 436 133
4 26 31 54 288
4 354 158 67 343
4 460 216 252 260
4 146 317 312 143
4 313 152 136 334
4 27 54 31 287
4 73 203 14 258
4 36 148 145 314
4 71 23 261 201
4 331 39 327 154
4 217 10 81 224
4 39 331 138 154
4 261 447 202 71
4 71 237 23 291
4 62 213 463 456
4 450 452 205 58
4 260 216 228 79
4 15 16 375 69
4 322 147 320 132
4 201 26 453 116
4 140 152 313 330
4 146 312 328 131
4 20 229 222 66
4 312 4 5 317
4 313 8 9 334
4 197 68 20 117
4 434 37 40 314
4 3 2 225 78
4 449 198 55 442
4 215 25 465 115
4 74 290 281 113
4 155 75 351 345
4 72 156 352 342
4 281 24 455 113
4 10 217 80 238
4 23 22 222 70
4 258 72 14 227
4 331 38 41 436
4 72 352 14 227
4 217 81 53 466
4 43 203 73 452
4 458 215 225 78
4 260 252 458 225
4 155 214 75 456
4 440 63 219 64
4 60 441 218 65
4 54 439 204 59
4 76 0 211 113
4 331 39 38 436
4 434 36 37 314
4 158 200 67 443
4 203 14 156 73
4 438 57 56 199
4 442 287 27 117
4 224 81 217 459
4 238 80 10 263
4 312 146 143 131
4 152 136 140 313
4 438 57 199 58
4 450 43 73 452
4 463 77 42 456
4 310 462 24 114
4 441 192 464 218
4 219 440 192 464
4 446 223 448 242
4 450 157 43 372
4 173 42 371 463
4 131 328 146 320
4 138 327 39 154
4 260 460 216 79
4 54 439 55 204
4 60 441 61 218
4 440 63 62 219
4 81 172 10 217
4 73 15 375 69
4 152 140 324 330
4 145 148 36 329
4 201 453 71 116
4 149 327 39 133
4 151 135 36 329
4 8 7 9 334
4 6 5 4 317
4 79 215 465 115
4 26 288 453 116
4 453 449 26 70
4 448 241 67 196
4 81 173 53 463
4 69 44 157 450
4 201 445 261 447
4 14 15 73 258
4 68 442 27 197
4 211 24 455 76
4 147 315 144 132
4 262 226 75 461
4 20 229 66 293
4 461 226 75 210
4 290 236 0 74
4 153 333 139 137
4 465 462 25 78
4 462 455 24 76
4 458 215 460 225
4 76 24 462 114
4 78 462 25 114
4 73 157 43 450
4 42 173 77 463
4 67 223 241 448
4 222 22 21 379
4 442 27 449 68
4 214 42 77 456
4 69 200 44 443
4 203 72 258 446
4 77 12 13 224
4 273 1 2 225
4 77 13 155 214
4 146 143 131 316
4 136 140 332 152
4 69 157 73 450
4 173 81 77 463
4 80 353 10 263
4 293 66 20 117
4 17 354 158 67
4 446 200 223 69
4 68 20 222 197
4 464 192 189 218
4 189 219 192 464
4 116 71 23 291
4 14 203 72 258
4 462 78 76 114
4 23 70 201 116
4 459 214 262 77
4 461 262 226 210
4 67 17 354 241
4 15 16 69 223
4 252 458 460 260
4 68 21 20 117
4 27 26 449 70
4 81 10 11 224
4 13 155 75 351
4 74 0 290 113
4 156 352 14 72
4 76 1 0 113
4 14 15 156 73
4 155 12 13 77
4 76 211 24 113
4 115 79 3 292
4 172 353 10 80
4 197 20 66 117
4 27 68 197 117
4 78 215 3 115
4 203 156 43 73
4 23 22 70 116
4 26 54 31 449
4 262 77 224 459
4 258 223 73 446
4 75 214 13 262
4 0 74 211 113
4 211 225 0 76
4 12 11 224 374
4 223 67 200 448
4 22 222 70 379
4 27 26 70 379
4 27 31 54 449
4 203 156 14 72
4 460 260 225 215
4 225 2 273 78
4 53 172 81 217
4 217 80 238 459
4 3 2 78 115
4 172 10 11 81
4 223 17 67 241
4 215 465 25 78
4 70 26 453 201
4 51 53 371 63
4 57 48 44 372
4 60 34 25 310
4 461 262 210 252
4 69 73 15 223
4 27 26 31 449
4 212 218 462 60
4 70 449 27 68
4 200 446 223 448
4 214 459 262 461
4 68 222 21 379
4 217 172 10 80
4 158 16 17 223
4 192 440 193 464
4 438 190 451 191
4 439 451 190 191
4 193 441 192 464
4 225 273 1 76
4 224 77 12 374
4 224 11 81 374
4 76 78 273 114
4 77 81 173 374
4 375 157 73 69
4 204 198 451 439
4 218 464 441 212
4 440 219 213 464
4 438 205 199 451
4 78 25 273 114
4 76 273 24 114
4 53 173 81 374
4 77 173 42 374
4 157 375 44 69
4 157 43 375 73
4 68 27 70 379
4 222 21 20 68
4 77 155 42 214
4 200 17 158 67
4 16 158 69 223
4 200 158 17 223
4 44 158 200 69
4 67 200 17 223
4 13 155 214 75
4 201 70 26 116
4 25 215 78 115
4 215 460 260 79
4 201 71 23 116
4 68 70 222 379
4 225 1 0 76
4 78 273 225 76
4 260 458 460 225
4 3 215 79 115
4 158 200 69 223
4 258 73 203 446
4 81 77 224 374
4 223 69 73 446
4 261 447 71 201
4 218 212 61 60
4 262 75 214 461
4 441 218 212 61
4 198 204 55 439
4 213 62 219 440
4 199 205 438 58
4 68 222 445 197
4 211 458 225 76
4 77 81 224 459
4 78 225 458 76
4 70 222 445 68
4 198 68 442 449
4 77 213 456 463
4 218 78 462 465
4 204 70 449 453
4 73 205 450 452
4 212 76 455 462
4 335 473 365 361
4 365 473 335 469
4 307 142 36 430
4 36 142 307 132
4 476 477 357 249
4 357 477 476 470
4 479 356 364 470
4 479 364 356 350
4 480 341 377 270
4 244 361 94 264
4 244 94 361 335
4 475 254 355 243
4 475 355 254 468
4 481 388 386 176
4 481 386 388 275
4 142 322 478 132
4 142 478 322 319
4 240 131 477 326
4 477 131 240 308
4 259 476 337 234
4 337 476 259 472
4 341 257 101 270
4 341 101 257 358
4 442 293 117 66
4 117 293 442 287
4 478 356 340 368
4 478 340 356 470
4 140 272 477 233
4 477 272 140 369
4 453 291 116 288
4 116 291 453 71
4 277 255 481 231
4 277 481 255 294
4 353 466 172 344
4 172 466 353 80
4 236 300 109 265
4 109 300 236 290
4 361 226 93 264
4 93 226 361 351
4 405 409 469 182
4 469 409 405 347
4 406 407 469 284
4 406 469 407 181
4 185 347 50 409
4 185 50 347 416
4 284 184 33 407
4 284 33 184 417
4 221 263 216 246
4 216 263 221 80
4 231 297 475 277
4 475 297 231 256
4 175 341 480 384
4 480 341 175 377
4 343 67 195 443
4 343 195 67 354
4 327 139 141 321
4 141 139 327 39
4 281 74 208 290
4 208 74 281 455
4 329 132 142 36
4 329 142 132 322
4 261 202 242 271
4 261 242 202 447
4 222 201 445 261
4 445 201 222 70
4 77 262 13 214
4 13 262 77 224
4 54 204 453 59
4 453 204 54 449
4 218 192 65 441
4 218 65 192 189
4 192 219 64 440
4 192 64 219 189
4 212 60 455 61
4 455 60 212 462
4 60 218 465 65
4 60 465 218 462
4 55 449 204 198
4 204 449 55 54
4 62 463 219 63
4 219 463 62 213
4 58 450 199 205
4 58 199 450 57
4 57 44 199 450
4 69 44 199 443
4 69 199 44 450
4 218 219 189 464
4 218 189 219 467
4 212 213 186 457
4 212 186 213 464
4 464 193 212 186
4 464 212 193 441
4 61 212 193 186
4 61 193 212 441
4 204 205 183 451
4 204 183 205 454
4 56 191 199 180
4 56 199 191 438
4 451 199 191 180
4 451 191 199 438
4 451 190 205 183
4 451 205 190 438
4 58 205 190 183
4 58 190 205 438
4 451 191 198 180
4 451 198 191 439
4 55 198 191 180
4 55 191 198 439
4 59 190 204 183
4 59 204 190 439
4 451 204 190 183
4 451 190 204 439
4 198 199 180 444
4 198 180 199 451
4 63 219 53 463
4 81 53 219 463
4 81 219 53 466
4 62 193 213 186
4 62 213 193 440
4 464 213 193 186
4 464 193 213 440
4 343 44 56 57
4 343 56 44 443
4 199 56 44 57
4 199 44 56 443
4 219 53 64 63
4 219 64 53 466
4 344 64 53 63
4 344 53 64 466

CELL_TYPES 2721
1
1
1
1
1
1
1
1
1
1
1
1
1
1
1
1
1
1
1
1
1
1
1
1
1
1
1
1
1
1
1
1
1
1
1
1
1
1
1
1
1
1
1
1
1
1
1
1
1
1
1
1
1
1
1
1
1
1
1
1
1
1
1
1
1
1
1
1
1
1
1
1
1
1
1
1
1
1
1
1
1
1
3
3
3
3
3
3
3
3
3
3
3
3
3
3
3
3
3
3
3
3
3
3
3
3
3
3
3
3
3
3
3
3
3
3
3
3
3
3
3
3
3
3
3
3
3
3
3
3
3
3
3
3
3
3
3
3
3
3
3
3
3
3
3
3
3
3
3
3
3
3
3
3
3
3
3
3
3
3
3
3
3
3
3
3
3
3
3
3
3
3
3
3
3
3
3
3
3
3
3
3
3
3
3
3
3
3
3
3
3
3
3
3
3
3
3
3
3
3
3
3
3
3
3
3
3
3
3
3
3
3
3
3
3
3
3
3
3
3
3
3
3
3
3
3
3
3
3
3
3
3
3
3
3
3
3
3
3
3
3
3
3
3
3
3
3
3
3
3
3
3
3
3
3
3
3
3
3
3
3
3
3
3
3
3
3
3
3
3
3
3
3
3
3
3
3
3
3
3
3
3
3
3
3
3
3
3
3
3
3
3
3
3
3
3
3
3
3
3
3
3
3
3
3
3
3
3
3
3
3
3
3
3
3
3
3
3
3
3
3
3
3
3
3
3
3
3
3
3
3
3
3
3
3
3
3
3
3
3
3
3
3
3
3
5
5
5
5
5
5
5
5
5
5
5
5
5
5
5
5
5
5
5
5
5
5
5
5
5
5
5
5
5
5
5
5
5
5
5
5
5
5
5
5
5
5
5
5
5
5
5
5
5
5
5
5
5
5
5
5
5
5
5
5
5
5
5
5
5
5
5
5
5
5
5
5
5
5
5
5
5
5
5
5
5
5
5
5
5
5
5
5
5
5
5
5
5
5
5
5
5
5
5
5
5
5
5
5
5
5
5
5
5
5
5
5
5
5
5
5
5
5
5
5
5
5
5
5
5
5
5
5
5
5
5
5
5
5
5
5
5
5
5
5
5
5
5
5
5
5
5
5
5
5
5
5
5
5
5
5
5
5
5
5
5
5
5
5
5
5
5
5
5
5
5
5
5
5
5
5
5
5
5
5
5
5
5
5
5
5
5
5
5
5
5
5
5
5
5
5
5
5
5
5
5
5
5
5
5
5
5
5
5
5
5
5
5
5
5
5
5
5
5
5
5
5
5
5
5
5
5
5
5
5
5
5
5
5
5
5
5
5
5
5
5
5
5
5
5
5
5
5
5
5
5
5
5
5
5
5
5
5
5
5
5
5
5
5
5
5
5
5
5
5
5
5
5
5
5
5
5
5
5
5
5
5
5
5
5
5
5
5
5
5
5
5
5
5
5
5
5
5
5
5
5
5
5
5
5
5
5
5
5
5
5
5
5
5
5
5
5
5
5
5
5
5
5
5
5
5
5
5
5
5
5
5
5
5
5
5
5
5
5
5
5
5
5
5
5
5
5
5
5
5
5
5
5
5
5
5
5
5
5
5
5
5
5
5
5
5
5
5
5
5
5
5
5
5
5
5
5
5
5
5
5
5
5
5
5
5
5
5
5
5
5
5
5
5
5
5
5
5
5
5
5
5
5
5
5
5
5
5
5
5
5
5
5
5
5
5
5
5
5
5
5
5
5
5
5
5
5
5
5
5
5
5
5
5
5
5
5
5
5
5
5
5
5
5
5
5
5
5
5
5
5
5
5
5
5
5
5
5
5
5
5
5
5
5
5
5
5
5
5
5
5
5
5
5
5
5
5
5
5
5
5
5
5
5
5
5
5
5
5
5
5
5
5
5
5
5
5
5
5
5
5
5
5
5
5
5
5
5
5
5
5
5
5
5
5
5
5
5
5
5
5
5
5
5
5
5
5
5
5
5
5
5
5
5
5
5
5
5
5
5
5
5
5
5
5
5
5
5
5
5
5
5
5
5
5
5
5
5
5
5
5
5
5
5
5
5
5
5
5
5
5
5
5
5
5
5
5
5
5
5
5
5
5
5
5
5
5
5
5
5
5
5
5
5
5
5
5
5
5
5
5
5
5
5
5
5
5
5
5
5
5
5
5
5
5
5
5
5
5
5
5
5
5
5
5
5
5
5
5
5
5
5
5
5
5
5
5
5
5
5
5
5
5
5
5
5
5
5
5
5
5
5
5
5
5
5
5
5
5
5
5
5
5
5
5
5
5
5
5
5
5
5
5
5
5
5
5
5
5
5
5
5
5
5
5
5
5
5
5
5
5
5
5
5
5
5
5
5
5
5
5
5
5
5
5
5
5
5
5
5
5
5
5
5
5
5
5
5
5
5
5
5
5
5
5
5
5
5
5
5
5
5
5
5
5
5
5
5
5
5
5
5
5
5
5
5
5
5
5
5
5
5
5
5
5
5
5
5
5
5
5
5
5
5
5
5
5
5
5
5
5
5
5
5
5
5
5
5
5
5
5
5
5
5
5
5
5
5
5
5
5
5
5
5
5
5
5
5
5
5
5
5
5
5
5
5
5
5
5
5
5
5
5
5
5
5
5
5
5
5
5
5
5
5
5
5
5
5
5
5
5
5
5
5
5
5
5
5
5
5
5
5
5
5
5
5
5
5
5
5
5
5
5
5
5
5
5
5
5
5
5
5
5
5
5
5
5
5
5
5
5
5
5
5
5
5
5
5
5
5
5
5
5
5
5
5
5
5
5
5
5
5
5
5
5
5
5
5
5
5
5
5
5
5
5
5
5
5
5
5
5
5
5
5
5
5
5
5
5
5
5
5
5
5
10
10
10
10
10
10
10
10
10
10
10
10
10
10
10
10
10
10
10
10
10
10
10
10
10
10
10
10
10
10
10
10
10
10
10
10
10
10
10
10
10
10
10
10
10
10
10
10
10
10
10
10
10
10
10
10
10
10
10
10
10
10
10
10
10
10
10
10
10
10
10
10
10
10
10
10
10
10
10
10
10
10
10
10
10
10
10
10
10
10
10
10
10
10
10
10
10
10
10
10
10
10
10
10
10
10
10
10
10
10
10
10
10
10
10
10
10
10
10
10
10
10
10
10
10
10
10
10
10
10
10
10
10
10
10
10
10
10
10
10
10
10
10
10
10
10
10
10
10
10
10
10
10
10
10
10
10
10
10
10
10
10
10
10
10
10
10
10
10
10
10
10
10
10
10
10
10
10
10
10
10
10
10
10
10
10
10
10
10
10
10
10
10
10
10
10
10
10
10
10
10
10
10
10
10
10
10
10
10
10
10
10
10
10
10
10
10
10
10
10
10
10
10
10
10
10
10
10
10
10
10
10
10
10
10
10
10
10
10
10
10
10
10
10
10
10
10
10
10
10
10
10
10
10
10
10
10
10
10
10
10
10
10
10
10
10
10
10
10
10
10
10
10
10
10
10
10
10
10
10
10
10
10
10
10
10
10
10
10
10
10
10
10
10
10
10
10
10
10
10
10
10
10
10
10
10
10
10
10
10
10
10
10
10
10
10
10
10
10
10
10
10
10
10
10
10
10
10
10
10
10
10
10
10
10
10
10
10
10
10
10
10
10
10
10
10
10
10
10
10
10
10
10
10
10
10
10
10
10
10
10
10
10
10
10
10
10
10
10
10
10
10
10
10
10
10
10
10
10
10
10
10
10
10
10
10
10
10
10
10
10
10
10
10
10
10
10
10
10
10
10
10
10
10
10
10
10
10
10
10
10
10
10
10
10
10
10
10
10
10
10
10
10
10
10
10
10
10
10
10
10
10
10
10
10
10
10
10
10
10
10
10
10
10
10
10
10
10
10
10
10
10
10
10
10
10
10
10
10
10
10
10
10
10
10
10
10
10
10
10
10
10
10
10
10
10
10
10
10
10
10
10
10
10
10
10
10
10
10
10
10
10
10
10
10
10
10
10
10
10
10
10
10
10
10
10
10
10
10
10
10
10
10
10
10
10
10
10
10
10
10
10
10
10
10
10
10
10
10
10
10
10
10
10
10
10
10
10
10
10
10
10
10
10
10
10
10
10
10
10
10
10
10
10
10
10
10
10
10
10
10
10
10
10
10
10
10
10
10
10
10
10
10
10
10
10
10
10
10
10
10
10
10
10
10
10
10
10
10
10
10
10
10
10
10
10
10
10
10
10
10
10
10
10
10
10
10
10
10
10
10
10
10
10
10
10
10
10
10
10
10
10
10
10
10
10
10
10
10
10
10
10
10
10
10
10
10
10
10
10
10
10
10
10
10
10
10
10
10
10
10
10
10
10
10
10
10
10
10
10
10
10
10
10
10
10
10
10
10
10
10
10
10
10
10
10
10
10
10
10
10
10
10
10
10
10
10
10
10
10
10
10
10
10
10
10
10
10
10
10
10
10
10
10
10
10
10
10
10
10
10
10
10
10
10
10
10
10
10
10
10
10
10
10
10
10
10
10
10
10
10
10
10
10
10
10
10
10
10
10
10
10
10
10
10
10
10
10
10
10
10
10
10
10
10
10
10
10
10
10
10
10
10
10
10
10
10
10
10
10
10
10
10
10
10
10
10
10
10
10
10
10
10
10
10
10
10
10
10
10
10
10
10
10
10
10
10
10
10
10
10
10
10
10
10
10
10
10
10
10
10
10
10
10
10
10
10
10
10
10
10
10
10
10
10
10
10
10
10
10
10
10
10
10
10
10
10
10
10
10
10
10
10
10
10
10
10
10
10
10
10
10
10
10
10
10
10
10
10
10
10
10
10
10
10
10
10
10
10
10
10
10
10
10
10
10
10
10
10
10
10
10
10
10
10
10
10
10
10
10
10
10
10
10
10
10
10
10
10
10
10
10
10
10
10
10
10
10
10
10
10
10
10
10
10
10
10
10
10
10
10
10
10
10
10
10
10
10
10
10
10
10
10
10
10
10
10
10
10
10
10
10
10
10
10
10
10
10
10
10
10
10
10
10
10
10
10
10
10
10
10
10
10
10
10
10
10
10
10
10
10
10
10
10
10
10
10
10
10
10
10
10
10
10
10
10
10
10
10
10
10
10
10
10
10
10
10
10
10
10
10
10
10
10
10
10
10
10
10
10
10
10
10
10
10
10
10
10
10
10
10
10
10
10
10
10
10
10
10
10
10
10
10
10
10
10
10
10
10
10
10
10
10
10
10
10
10
10
10
10
10
10
10
10
10
10
10
10
10
10
10
10
10
10
10
10
10
10
10
10
10
10
10
10
10
10
10
10
10
10
10
10
10
10
10
10
10
10
10
10
10
10
10
10
10
10
10
10
10
10
10
10
10
10
10
10
10
10
10
10
10
10
10
10
10
10
10
10
10
10
10
10
10
10
10
10
10
10
10
10
10
10
10
10
10
10
10
10
10
10
10
10
10
10
10
10
10
10
10
10
10
10
10
10
10
10
10
10
10
10
10
10
10
10
10
10
10
10
10
10
10
10
10
10
10
10
10
10
10
10
10
10
10
10
10
10
10
10
10
10
10
10
10
10
10
10
10
10
10
10
10
10
10
10
10
10
10
10
10
10
10
10
10
10
10
10
10
10
10
10
10
10
10
10
10
10
10
10
10
10
10
10
10
10
10
10
10
10
10
10
10
10
10
10
10
10
10
10
10
10
10
10
10
10
10
10
10
10
10
10
10
10
10
10
10
10
10
10
10
10
10
10
10
10
10
10
10
10
10
10
10
10
10
10
10
10
10
10
10
10
10
10
10
10
10
10
10
10
10
10
10
10
10
10
10
10
10
10
10
10
10
10
10
10
10
10
10
10
10
10
10
10
10
10
10
10
10
10
10
10
10
10
10
10
10
10
10
10
10
10
10
10
10
10
10
10
10
10
10
10
10
10
10
10
10
10
10
10
10
10
10
10
10
10
10
10
10
10
10
10
10
10
10
10
10
10
10
10
10
10
10
10
10
10
10
10
10
10
10
10
10
10
10
10
10
10
10
10
10
10
10
10
10
10
10
10
10
10
10
10
10
10
10
10
10
10
10
10
10
10
10
10
10
10
10
10
10
10
10
10
10
10
10
10
10
10
10
10
10
10
10
10
10
10
10
10
10
10
10
10
10
10
