# vtk DataFile Version 2.0
, Created by Gmsh 4.11.1 
ASCII
DATASET UNSTRUCTURED_GRID
POINTS 487 double
-8.75 1.071565949253934e-15 -43.47539827318907
-9.85847329755201 1.207314776832672e-15 -41.95981694343192
-9.85847329755201 1.207314776832672e-15 -38.04018305656808
-8.75 1.071565949253934e-15 -36.52460172681092
-8.75 0 -3
-11.75 0 -3
-11.75 0 0
11.75 0 0
11.75 0 -3
8.75 0 -3
8.75 0 -36.52460172681092
9.85847329755201 0 -38.04018305656808
9.85847329755201 0 -41.95981694343192
8.75 0 -43.47539827318907
8.75 0 -76.52460172681093
9.85847329755201 0 -78.04018305656808
9.85847329755201 0 -81.95981694343192
8.75 0 -83.47539827318907
8.75 0 -120
-8.75 0 -120
-8.75 1.071565949253934e-15 -83.47539827318907
-9.85847329755201 1.207314776832672e-15 -81.95981694343192
-9.85847329755201 1.207314776832672e-15 -78.04018305656808
-8.75 1.071565949253934e-15 -76.52460172681093
-8.749999999999996 4.541695251615423 -41.95981694343192
-8.749999999999996 4.541695251615423 -38.04018305656808
-8.749999999999996 4.541695251615423 -78.04018305656808
-8.749999999999996 4.541695251615423 -81.95981694343192
-8.75 5.238061696819718 -120
-8.75 20 -103.0680574754916
-8.75 20 -96.93194252450844
-8.75 5.238061696819718 -80
-8.75 20 -63.06805747549156
-8.75 20 -56.93194252450844
-8.75 5.238061696819718 -40
-8.75 20 -23.06805747549156
-8.75 20 -3
11.75 23 -3
-11.75 23 -3
8.75 20 -3
-11.75 23 0
11.75 23 0
8.750000000000002 4.541695251615408 -41.95981694343192
8.750000000000002 4.541695251615408 -78.04018305656808
8.750000000000002 4.541695251615408 -81.95981694343192
8.75 5.238061696819718 -120
8.75 20 -103.0680574754916
8.75 20 -96.93194252450844
8.75 5.238061696819718 -80
8.75 20 -63.06805747549156
8.75 20 -56.93194252450844
8.75 5.238061696819718 -40
8.75 20 -23.06805747549156
8.750000000000002 4.541695251615408 -38.04018305656808
8.351778578174599 5.238061696819718 -80
6.995194576567238 6.946707752202498 -81.95981694343192
2.863882459593549 8.268051599840945 -83.47539827318907
-2.86388245959355 8.268051599840945 -83.47539827318907
-6.995194576567238 6.946707752202498 -81.95981694343192
-8.351778578174599 5.238061696819718 -80
-6.995194576567235 6.946707752202501 -78.04018305656808
-2.863882459593539 8.268051599840948 -76.52460172681093
2.86388245959354 8.268051599840948 -76.52460172681093
6.995194576567235 6.946707752202502 -78.04018305656808
8.351778578174599 5.238061696819718 -40
6.995194576567241 6.946707752202496 -41.95981694343192
2.863882459593549 8.268051599840945 -43.47539827318907
-2.86388245959355 8.268051599840945 -43.47539827318907
-6.995194576567242 6.946707752202495 -41.95981694343192
-8.351778578174599 5.238061696819718 -40
-6.995194576567235 6.946707752202501 -38.04018305656808
-2.863882459593516 8.268051599840955 -36.52460172681092
2.863882459593517 8.268051599840955 -36.52460172681092
6.995194576567236 6.9467077522025 -38.04018305656808
2.525862600487646 4.265543203084317 -83.47539827318907
-2.525862600487647 4.265543203084317 -83.47539827318907
4.312628916963184 4.265543203084317 -81.95981694343192
-4.312628916963184 4.265543203084317 -81.95981694343192
4.312628916963184 4.265543203084317 -78.04018305656808
2.525862600487646 4.265543203084317 -76.52460172681093
-2.525862600487647 4.265543203084317 -76.52460172681093
-4.312628916963184 4.265543203084317 -78.04018305656808
2.525862600487646 4.265543203084317 -43.47539827318907
-2.525862600487647 4.265543203084317 -43.47539827318907
4.312628916963184 4.265543203084317 -41.95981694343192
-4.312628916963184 4.265543203084317 -41.95981694343192
4.312628916963184 4.265543203084317 -38.04018305656808
2.525862600487646 4.265543203084317 -36.52460172681093
-2.525862600487647 4.265543203084317 -36.52460172681093
-4.312628916963184 4.265543203084317 -38.04018305656808
-8.75 0 -9.704920345362194
-8.75 0 -16.40984069072439
-8.75 0 -23.11476103608655
-8.75 0 -29.81968138144871
5.875000000000016 0 0
3.730349362740526e-14 0 0
-5.874999999999972 0 0
8.75 0 -29.81968138144873
8.75 0 -23.11476103608654
8.75 0 -16.40984069072438
8.75 0 -9.704920345362225
8.75 0 -50.08523896391345
8.75 0 -56.69507965463785
8.75 0 -63.30492034536221
8.75 0 -69.91476103608656
8.75 0 -89.56283189432422
8.75 0 -95.65026551545935
8.75 0 -101.7376991365945
8.75 0 -107.8251327577297
8.75 0 -113.9125663788648
2.916666666666666 0 -120
-2.916666666666668 0 -120
-8.75 0 -89.56283189432422
-8.75 0 -95.65026551545935
-8.75 0 -101.7376991365945
-8.75 0 -107.8251327577297
-8.75 0 -113.9125663788648
-8.75 0 -50.08523896391345
-8.75 0 -56.69507965463785
-8.75 0 -63.30492034536221
-8.75 0 -69.91476103608656
-8.749999999999996 2.375328659903169 -43.04241148112815
-8.749999999999996 2.375328659903165 -36.95758851887185
-8.749999999999996 2.375328659903165 -76.95758851887186
-8.749999999999996 4.541695251615423 -80
-8.749999999999996 2.375328659903169 -83.04241148112814
-8.75 8.928546272614788 -115.7670143688729
-8.75 12.61903084840986 -111.5340287377458
-8.75 16.30951542420493 -107.3010431066187
-8.75 16.30951542420493 -92.69895689338134
-8.75 12.61903084840986 -88.46597126225423
-8.75 8.928546272614785 -84.23298563112711
-8.75 8.928546272614788 -75.76701436887289
-8.75 12.61903084840986 -71.53402873774579
-8.75 16.30951542420493 -67.30104310661866
-8.75 16.30951542420493 -52.69895689338134
-8.75 12.61903084840986 -48.46597126225422
-8.75 8.928546272614785 -44.23298563112711
-8.75 8.928546272614788 -35.76701436887289
-8.75 12.61903084840986 -31.53402873774578
-8.75 16.30951542420493 -27.30104310661867
-8.75 20 -9.689352491830522
-8.75 20 -16.37870498366102
-8.75 13.33333333333335 -3
-8.75 6.666666666666705 -3
-5.875000000000016 23 -3
-3.730349362740526e-14 23 -3
5.874999999999972 23 -3
-11.75 5.749999999999988 -3
-11.75 11.49999999999999 -3
-11.75 17.24999999999999 -3
-2.916666666666666 20 -3
2.916666666666668 20 -3
8.75 6.666666666666651 -3
8.75 13.33333333333329 -3
11.75 5.749999999999988 -3
11.75 11.49999999999999 -3
11.75 17.24999999999999 -3
-11.75 5.749999999999988 0
-11.75 11.49999999999999 0
-11.75 17.24999999999999 0
11.75 5.749999999999988 0
11.75 11.49999999999999 0
11.75 17.24999999999999 0
-5.875000000000016 23 0
-3.730349362740526e-14 23 0
5.874999999999972 23 0
8.750000000000004 2.375328659903158 -43.04241148112814
8.750000000000004 2.375328659903156 -76.95758851887186
8.750000000000004 2.375328659903158 -83.04241148112814
8.75 8.928546272614788 -115.7670143688729
8.75 12.61903084840986 -111.5340287377458
8.75 16.30951542420493 -107.3010431066187
8.75 16.30951542420493 -92.69895689338134
8.75 12.61903084840986 -88.46597126225423
8.75 8.928546272614785 -84.23298563112711
8.75 8.928546272614788 -75.76701436887289
8.75 12.61903084840986 -71.53402873774579
8.75 16.30951542420493 -67.30104310661866
8.75 16.30951542420493 -52.69895689338134
8.75 12.61903084840986 -48.46597126225422
8.75 8.928546272614785 -44.23298563112711
8.75 8.928546272614788 -35.76701436887289
8.75 12.61903084840986 -31.53402873774578
8.75 16.30951542420493 -27.30104310661867
8.75 20 -16.37870498366104
8.75 20 -9.689352491830544
8.750000000000004 2.375328659903156 -36.95758851887186
2.916666666666666 5.238061696819718 -120
-2.916666666666668 5.238061696819718 -120
2.916666666666666 20 -103.0680574754916
-2.916666666666668 20 -103.0680574754916
2.916666666666666 20 -96.93194252450844
-2.916666666666668 20 -96.93194252450844
3.552713678800501e-15 8.268051599840945 -83.47539827318907
2.916666666666666 20 -63.06805747549156
-2.916666666666668 20 -63.06805747549156
0 8.268051599840948 -76.52460172681093
2.916666666666666 20 -56.93194252450844
-2.916666666666668 20 -56.93194252450844
2.664535259100376e-15 8.268051599840945 -43.47539827318907
2.916666666666666 20 -23.06805747549156
-2.916666666666668 20 -23.06805747549156
2.664535259100376e-15 8.268051599840955 -36.52460172681092
2.562597989309778 9.519589660470217 -78.04018305656808
-2.562597989309764 9.519589660470222 -78.04018305656808
2.56259798930978 9.519589660470217 -81.95981694343192
-2.562597989309766 9.519589660470221 -81.95981694343192
2.478673267720991e-15 8.75 -83.47539827318907
4.421563560815015e-15 8.75 -76.52460172681093
2.56259798930978 9.519589660470217 -38.04018305656808
-2.562597989309764 9.519589660470222 -38.04018305656808
2.562597989309782 9.519589660470217 -41.95981694343192
-2.562597989309766 9.519589660470221 -41.95981694343192
2.478673267720991e-15 8.75 -43.47539827318907
2.478673267720991e-15 8.75 -36.52460172681092
3.605773515661243e-15 4.957301755382764 -83.47539827318907
-6.217248937900877e-15 4.265543203084317 -83.47539827318907
3.449150571574622 4.265543203084317 -82.75311088125331
-6.362941525818842e-15 6.065775052934773 -81.95981694343192
-3.449150571574622 4.265543203084317 -82.75311088125331
3.449150571574621 4.265543203084317 -77.24688911874669
5.329070518200751e-15 4.265543203084317 -76.52460172681093
-3.449150571574621 4.265543203084317 -77.24688911874669
-6.362941525818842e-15 6.065775052934773 -78.04018305656808
3.605773515661243e-15 4.957301755382764 -76.52460172681093
3.605773515661243e-15 4.957301755382764 -43.47539827318907
-6.217248937900877e-15 4.265543203084317 -43.47539827318907
3.449150571574622 4.265543203084317 -42.75311088125331
-6.362941525818842e-15 6.065775052934773 -41.95981694343192
-3.449150571574622 4.265543203084317 -42.75311088125331
3.449150571574621 4.265543203084317 -37.24688911874669
5.329070518200751e-15 4.265543203084317 -36.52460172681093
-3.449150571574621 4.265543203084317 -37.24688911874669
-6.362941525818842e-15 6.065775052934773 -38.04018305656808
3.605773515661243e-15 4.957301755382764 -36.52460172681092
4.796095880184106 -5.873523468071272e-16 -86.51911508375665
4.456782535148472 -5.457984466165403e-16 -73.21968138144874
-3.089741481208042 3.783842015154231e-16 -47.11345154739062
4.395026487923909 -5.382355120603848e-16 -33.17214155412982
6.733810256990477 -8.246539177289004e-16 -80.7859188187042
-6.246915683236056 7.650265296018436e-16 -79.34641396179157
6.649699990373106 -8.14353380850061e-16 -40.83217930177142
-6.860070585676403 8.401163484673515e-16 -38.74870400924534
0 0 -115.359488422214
3.641961562112622 -4.460116569658917e-16 -97.6568399226109
-2.874457863254552 3.520195621518627e-16 -4.202712540105416
2.779470514744469 -3.40386966920626e-16 -59.92176244796669
2.943368650565241 -3.604586996625387e-16 -19.76230086340546
-4.796095880184106 5.873523468071273e-16 -86.51911508375665
-4.538588048134966 5.558167325796919e-16 -73.22761373139609
4.456782535148454 -5.457984466165381e-16 -46.78031861855126
-4.63362598211161 5.674555227438994e-16 -33.07599385305245
-3.813695190154293 4.670429607546112e-16 -104.8041881553833
-2.943368650565221 3.604586996625362e-16 -13.05738051804329
3.67348136979596 -4.498717201248057e-16 -5.760616793725902
0.848610942405057 -1.039248674337771e-16 -81.0855299894707
1.244176106311398 -1.523676286169871e-16 -41.83551056660265
0.03560123376037883 -4.359893697034454e-18 -52.99611614179221
-4.440892098500626e-15 5.916456789157589e-31 -92.15869320873631
-2.943368650565243 3.604586996625389e-16 -26.46722120876763
-2.885706198857205 3.533970859710152e-16 -66.42287115974833
-2.803954385466104 3.433853763116249e-16 -98.5297264696618
2.321208386354336 -2.842660420502829e-16 -104.7504150389442
3.641757808505956 -4.459867043456698e-16 -67.25146016485925
-3.758773016738048 4.603169343669692e-16 -58.78848484313048
-4.088673730113045 5.007181196340809e-16 -19.76230086340546
3.649171081320649 -4.468945684280418e-16 -27.15836533365073
3.497182625492304 -4.282813508342887e-16 -12.23286698379283
3.670524860612664 -4.495096521740083e-16 -111.1415140570523
-3.383012248168856 4.142995121196281e-16 -110.6804047770145
4.108117185636083 -5.030992561911462e-16 -37.72922039665814
-3.590790523400211 4.397450120890718e-16 -41.49094664608072
4.066060235166979 -4.979487652137576e-16 -77.57220645417092
-5.020010053130044 6.147739243253243e-16 -92.48412643438766
5.187611488459346 -6.352991804561774e-16 -92.30954912497748
4.982003650075931 -6.10119482340592e-16 -53.39015930927565
-4.98200365007593 6.101194823405918e-16 -53.39015930927565
-0.7844570135959126 9.60682770768926e-17 -8.430046055905706
1.77635683940025e-15 -1.97215226305253e-31 -70.72476461854305
4.734068653207006 -5.797562023093779e-16 -115.9742754458738
-4.692995422857889 5.747261823016093e-16 -115.9084026915827
-0.001619831313012909 1.98372123263974e-19 -30.77469408974287
-0.2356750031084189 2.886186381957684e-17 -75.86270168947017
-4.820456705483137 5.90335687479832e-16 -7.67901189188332
-0.7626838775185503 9.340183693643852e-17 -36.68960158793028
-9.577346634431846 2.337504481810247 -39.9883017416527
-8.749999999999996 5.271872159754527 -98.69398232602694
-8.749999999999996 6.987906815733192 -20.18358113372629
-8.749999999999996 6.418189609936156 -59.98704712172071
-8.749999999999996 9.738713089389012 -8.319296479987756
-8.749999999999996 3.82558094237252 -74.60976947760108
-8.749999999999996 3.736746546165784 -85.27633699449248
-8.749999999999996 3.862301037506574 -34.6259369022107
-8.749999999999996 3.862301037506574 -45.35821648868299
-8.749999999999996 15.13652564331502 -100
-8.749999999999996 14.37628865001995 -59.99814958881724
-8.749999999999996 10.79840004589682 -106.2214825272691
-8.749999999999996 14.52990442897971 -21.37480358384498
-8.749999999999996 10.4848243898099 -54.0517422558387
-8.749999999999996 10.44987101137354 -65.90675429316644
-8.749999999999996 6.704736689816508 -89.25358101461623
-8.749999999999996 6.899517659655222 -30.56088298484378
-8.749999999999996 5.523834683949328 -110.839864379179
-8.749999999999996 13.10509856753981 -13.84081345580847
-8.749999999999996 10.08263943375584 -94.85557009938171
-8.749999999999996 6.833301123185834 -49.44279585180426
-8.749999999999996 7.030142000578322 -70.47251446926271
-8.749999999999996 5.573950820409791 -12.88680569520008
-8.749999999999996 5.166438639307644 -104.5822989143805
-8.749999999999996 10.52986464769507 -26.10512519092153
-8.749999999999996 5.188827753503263 -25.39715399151554
-8.749999999999996 4.050224162843875 -115.9266518032318
-8.749999999999996 5.105104190773886 -54.46262050900904
-8.749999999999996 5.03181638271276 -65.4104412838538
-8.749999999999996 15.12353463767969 -7.882574999565477
-8.749999999999996 4.696898371158855 -7.698505713600369
-8.749999999999996 9.488424812045269 -100.9158243383401
-8.749999999999996 4.555246389646555 -93.84778094873199
10.25 3.10416666666666 -3
-10.25 3.104166666666673 -3
-11.75 20.125 -1.5
-11.75 14.37499999999999 -1.5
-11.75 8.624999999999988 -1.5
-11.75 2.874999999999994 -1.5
3.157610638484556 18.22886740495932 0
-2.707174061168084 4.878797530676509 0
7.069955745470662 8.71654637064 0
-6.619519168154191 14.39111856499582 0
7.102873022115111 14.37499999999999 0
0.1126091443291184 11.52691623390895 0
-7.000954855602266 8.644857627020134 0
-2.792058517349995 18.15992185565015 0
2.948495529093417 4.721447277005962 0
-7.528051718759411 18.81262893003678 0
7.528051718759418 4.187371069963205 0
7.820492259183634 19.07601590637069 0
-7.553981076842906 4.160878030182232 0
11.75 20.125 -1.5
11.75 14.37499999999999 -1.5
11.75 8.624999999999988 -1.5
11.75 2.874999999999994 -1.5
8.750000000000004 5.223145442875277 -98.62785484452077
8.750000000000004 6.987906815733195 -20.18358113372629
8.750000000000004 6.418189609936157 -59.98704712172071
8.750000000000004 9.738713089388998 -8.319296479987784
8.750000000000004 3.825580942372516 -74.60976947760108
8.750000000000004 3.86230103750657 -45.35821648868299
8.750000000000004 3.86230103750657 -34.6259369022107
8.750000000000004 3.862301037506569 -85.27114864375145
8.750000000000004 15.13652564331502 -100
8.750000000000004 14.37628865001995 -59.99814958881724
8.750000000000004 10.79840004589682 -106.2214825272691
8.750000000000004 14.52990442897971 -21.37480358384498
8.750000000000004 10.4848243898099 -54.0517422558387
8.750000000000004 10.44987101137354 -65.90675429316644
8.750000000000004 10.17998487230418 -94.8340020751364
8.750000000000004 6.899517659655226 -30.56088298484378
8.750000000000004 5.523834683949328 -110.839864379179
8.750000000000004 13.10509856753981 -13.8408134558085
8.750000000000004 6.708625809351668 -89.33833419040371
8.750000000000004 6.833301123185833 -49.44279585180426
8.750000000000004 7.030142000578322 -70.47251446926271
8.750000000000004 5.573950820409796 -12.8868056952001
8.750000000000004 5.134856828667488 -104.6351730057737
8.750000000000004 10.52986464769508 -26.10512519092152
8.750000000000004 5.188827753503285 -25.39715399151552
8.750000000000004 4.050224162843875 -115.9266518032318
8.750000000000004 5.105104190773885 -54.46262050900904
8.750000000000004 5.03181638271276 -65.4104412838538
8.750000000000004 15.12353463767966 -7.882574999565492
8.750000000000004 4.696898371158868 -7.698505713600383
8.750000000000004 4.422351224906226 -93.60265770396889
8.750000000000004 9.490858656477972 -100.9108498505747
9.577516767408344 2.336807293843037 -40
9.577516767408344 2.336807293843037 -80
5.833333333333333 2.619030848409859 -120
-1.77635683940025e-15 2.619030848409859 -120
-5.833333333333332 2.619030848409859 -120
-9.552877641425772 2.435574783597005 -80
0 7.97014655993441 -116.8662987932708
2.604261589655803 14.17703039691793 -109.7470033304613
-3.947985200623863 14.69636357975395 -109.1513281946998
-3.163178429924848 10.94184730714785 -113.4577581789928
3.7621425923241 10.52289087532447 -113.9383011861654
-0.05829704684541426 17.04734706356692 -106.4547502517197
4.592526241895411 17.50677857693796 -105.9277823279566
-4.616356770905632 17.32404586237118 -106.1373767427852
4.638956161807381 7.898589422471185 -116.9483748265032
-4.667022071978998 7.812854467732159 -117.0467128154697
-5.529640427599613 20 -100
5.529640427599611 20 -100
0 20 -100
1.332746426637725 10.2023998489354 -85.69409562196438
0 17.26791513688531 -93.79824131777929
-5.241662540174094 10.77378856051232 -86.34947844669067
-5.962684894083718 8.729273546292637 -84.00441982360969
5.738364692559703 9.392947264400698 -84.76565354639334
-3.424932766921614 14.23228163380249 -90.31636983559072
3.34112830358725 14.66176919443109 -90.80899204699693
-4.63895616180738 17.33947227434853 -93.88031735101163
4.638956161807381 17.33947227434853 -93.88031735101163
-1.332746426637735 10.2023998489354 -74.30590437803562
0 17.26791513688531 -66.20175868222071
5.241662540174088 10.77378856051233 -73.65052155330933
-5.738364692559703 9.392947264400696 -75.23434645360666
5.962684894083716 8.729273546292637 -75.99558017639031
3.424932766921613 14.2322816338025 -69.68363016440928
-3.341128303587249 14.66176919443109 -69.19100795300308
4.638956161807381 17.33947227434853 -66.11968264898837
-4.638956161807377 17.33947227434853 -66.11968264898837
-5.529640427599613 20 -60
5.529640427599611 20 -60
0 20 -60
1.332746426637733 10.20239984893539 -45.69409562196438
0 17.26791513688531 -53.79824131777929
-5.241662540174092 10.77378856051232 -46.34947844669067
-5.96268489408372 8.729273546292632 -44.00441982360969
5.738364692559704 9.392947264400693 -44.76565354639334
-3.424932766921614 14.23228163380249 -50.31636983559072
3.341128303587253 14.66176919443109 -50.80899204699693
-4.63895616180738 17.33947227434853 -53.88031735101163
4.638956161807381 17.33947227434853 -53.88031735101163
-1.332746426637733 10.20239984893539 -34.30590437803563
0 17.26791513688531 -26.20175868222072
5.241662540174085 10.77378856051232 -33.65052155330933
5.76966805960093 8.741745693577496 -35.9812746240538
-5.738364692559703 9.392947264400698 -35.23434645360666
-3.686104324448436 14.58476359984881 -29.2793333662892
3.474903348354772 14.24457657906182 -29.66952786278754
4.638956161807381 17.33947227434853 -26.11968264898838
-4.638956161807377 17.33947227434853 -26.11968264898837
0 20 -7.459568327887018
0 20 -18.60848914760454
-3.652977654253257 20 -13.03402873774578
3.644812716059057 20 -13.03402873774579
-4.813928864183985 20 -18.83146756399889
4.812295876545145 20 -7.23658991149267
-4.813928864183984 20 -7.236589911492663
4.812295876545143 20 -18.8314675639989
8.812499999999986 23 -1.5
2.937499999999966 23 -1.5
-8.812500000000007 23 -1.5
-2.937500000000027 23 -1.499999999999999
-4.949018085595994 8.526236904226259 -79.97047845683343
4.949018085596004 8.526236904226252 -80.02952154316655
4.981699005454149e-15 9.85847329755201 -80.01826511303788
-4.949018085595994 8.526236904226259 -39.97047845683345
4.949018085596006 8.52623690422625 -40.02952154316655
9.359740622491961e-15 9.85847329755201 -40.01826511303788
-2.082585032017818 5.084270331270105 -82.74122284480107
2.082585032017821 5.084270331270112 -82.74122284480107
2.645965394994926 4.265543203084317 -81.463009185372
-2.593018139849223 4.265543203084317 -81.13836253706964
-2.190706695136349 4.265543203084317 -77.85299925082155
1.275521363980943 4.265543203084317 -79.0741476846006
2.336643045516527 5.597653639753455 -80.03181285697855
-2.336643045516532 5.597653639753453 -80.03181285697855
2.082585032017825 5.084270331270115 -77.25877715519894
-2.08258503201782 5.084270331270107 -77.25877715519893
2.082585032017822 5.084270331270114 -42.74122284480107
-2.082585032017818 5.084270331270107 -42.74122284480108
-2.593018139849223 4.265543203084317 -41.13836253706965
2.645965394994926 4.265543203084317 -41.46300918537201
-2.190706695136349 4.265543203084317 -37.85299925082155
1.275521363980943 4.265543203084317 -39.0741476846006
2.338326741885165 5.596950512644414 -40
-2.334959137719934 5.598356260366433 -40
2.082585032017821 5.084270331270112 -37.25877715519893
-2.082585032017818 5.084270331270107 -37.25877715519892
-0.0004496918551975422 10.89192886882982 -100.0174340506455
-1.262931300243821 4.611422479233537 -71.80173673352898
-1.262931300243821 4.611422479233489 -31.81122742439487
1.77635683940025e-15 10.08720809283798 -60.00000000000001
1.26293130024382 4.611422479233522 -49.34160493462001
-2.997602166487923e-15 8.805425273939143 -11.61333339686737
-1.262931300243827 4.611422479233559 -89.03464717942968
-0.2526777387362591 8.587345207319782 -23.24695972878847
-5.277360866174829 5.429234091703922 -86.04133725373386
-1.517999991324658 7.223901382983824 -106.7663286600363
3.911368240241772 6.164061899671224 -32.04393330736369
-4.062306800062407 6.151314835663667 -47.84230580505783
4.062306800062391 6.151314835663673 -72.15769419494215
2.097883807561769 6.369704230795123 -95.00255383375111
-2.335416620517544 13.90607727413077 -5.803418067391894
2.285585234796679 14.00076457192599 -21.36546478102775
3.53492637065222 6.195853170321227 -88.12447963800032

CELLS 2731 11895
1 0
1 1
1 2
1 3
1 4
1 5
1 6
1 7
1 8
1 9
1 10
1 11
1 12
1 13
1 14
1 15
1 16
1 17
1 18
1 19
1 20
1 21
1 22
1 23
1 24
1 25
1 26
1 27
1 28
1 29
1 30
1 31
1 32
1 33
1 34
1 35
1 36
1 37
1 38
1 39
1 40
1 41
1 42
1 43
1 44
1 45
1 46
1 47
1 48
1 49
1 50
1 51
1 52
1 53
1 54
1 55
1 56
1 57
1 58
1 59
1 60
1 61
1 62
1 63
1 64
1 65
1 66
1 67
1 68
1 69
1 70
1 71
1 72
1 73
1 74
1 75
1 76
1 77
1 78
1 79
1 80
1 81
1 82
1 83
1 84
1 85
1 86
1 87
1 88
1 89
2 0 1
2 1 2
2 2 3
2 4 90
2 90 91
2 91 92
2 92 93
2 93 3
2 5 4
2 5 6
2 7 94
2 94 95
2 95 96
2 96 6
2 8 7
2 9 8
2 10 97
2 97 98
2 98 99
2 99 100
2 100 9
2 11 10
2 12 11
2 13 12
2 13 101
2 101 102
2 102 103
2 103 104
2 104 14
2 15 14
2 16 15
2 17 16
2 17 105
2 105 106
2 106 107
2 107 108
2 108 109
2 109 18
2 18 110
2 110 111
2 111 19
2 20 112
2 112 113
2 113 114
2 114 115
2 115 116
2 116 19
2 20 21
2 21 22
2 22 23
2 0 117
2 117 118
2 118 119
2 119 120
2 120 23
2 24 121
2 121 0
2 24 1
2 25 24
2 25 2
2 3 122
2 122 25
2 23 123
2 123 26
2 27 124
2 124 26
2 27 125
2 125 20
2 19 28
2 28 126
2 126 127
2 127 128
2 128 29
2 29 30
2 30 129
2 129 130
2 130 131
2 131 31
2 31 132
2 132 133
2 133 134
2 134 32
2 32 33
2 33 135
2 135 136
2 136 137
2 137 34
2 34 138
2 138 139
2 139 140
2 140 35
2 36 141
2 141 142
2 142 35
2 36 143
2 143 144
2 144 4
2 38 145
2 145 146
2 146 147
2 147 37
2 5 148
2 148 149
2 149 150
2 150 38
2 36 151
2 151 152
2 152 39
2 9 153
2 153 154
2 154 39
2 8 155
2 155 156
2 156 157
2 157 37
2 6 158
2 158 159
2 159 160
2 160 40
2 38 40
2 7 161
2 161 162
2 162 163
2 163 41
2 40 164
2 164 165
2 165 166
2 166 41
2 37 41
2 42 167
2 167 13
2 14 168
2 168 43
2 43 44
2 44 169
2 169 17
2 18 45
2 45 170
2 170 171
2 171 172
2 172 46
2 46 47
2 47 173
2 173 174
2 174 175
2 175 48
2 48 176
2 176 177
2 177 178
2 178 49
2 49 50
2 50 179
2 179 180
2 180 181
2 181 51
2 51 182
2 182 183
2 183 184
2 184 52
2 52 185
2 185 186
2 186 39
2 10 187
2 187 53
2 53 42
2 11 53
2 12 42
2 15 43
2 16 44
2 45 188
2 188 189
2 189 28
2 27 21
2 26 22
2 46 190
2 190 191
2 191 29
2 47 192
2 192 193
2 193 30
2 48 54
2 54 55
2 55 56
2 56 194
2 194 57
2 57 58
2 58 59
2 59 31
2 49 195
2 195 196
2 196 32
2 59 60
2 60 61
2 61 197
2 197 62
2 62 63
2 63 54
2 50 198
2 198 199
2 199 33
2 51 64
2 64 65
2 65 66
2 67 200
2 200 66
2 67 68
2 68 69
2 69 34
2 52 201
2 201 202
2 202 35
2 69 70
2 70 71
2 72 203
2 203 71
2 72 73
2 73 64
2 63 204
2 204 205
2 205 60
2 55 206
2 206 207
2 207 58
2 56 208
2 208 57
2 62 209
2 209 61
2 73 210
2 210 211
2 211 70
2 65 212
2 212 213
2 213 68
2 66 214
2 214 67
2 72 215
2 215 71
2 74 216
2 216 75
2 75 217
2 217 74
2 74 218
2 218 76
2 76 219
2 219 77
2 77 220
2 220 75
2 76 78
2 78 221
2 221 79
2 79 222
2 222 80
2 80 223
2 223 81
2 77 81
2 78 224
2 224 81
2 79 225
2 225 80
2 82 226
2 226 83
2 83 227
2 227 82
2 82 228
2 228 84
2 84 229
2 229 85
2 85 230
2 230 83
2 84 86
2 86 231
2 231 87
2 87 232
2 232 88
2 88 233
2 233 89
2 85 89
2 86 234
2 234 89
2 87 235
2 235 88
3 1 0 243
3 0 117 238
3 0 238 272
3 243 0 272
3 2 1 243
3 3 2 243
3 93 3 252
3 3 243 252
3 6 5 4
3 6 4 96
3 4 90 284
3 96 4 246
3 246 4 284
3 8 7 9
3 7 94 9
3 9 94 255
3 100 9 255
3 11 10 242
3 10 97 239
3 10 239 271
3 242 10 271
3 12 11 242
3 13 12 242
3 101 13 251
3 13 242 251
3 15 14 240
3 14 104 237
3 14 237 273
3 240 14 273
3 16 15 240
3 17 16 240
3 105 17 236
3 236 17 240
3 18 109 280
3 110 18 280
3 19 111 281
3 116 19 281
3 21 20 241
3 20 112 249
3 241 20 249
3 22 21 241
3 23 22 241
3 120 23 250
3 23 241 250
3 90 91 254
3 90 254 284
3 91 92 266
3 254 91 266
3 92 93 260
3 92 260 266
3 93 252 260
3 94 95 255
3 95 96 246
3 95 246 255
3 97 98 267
3 239 97 267
3 98 99 248
3 98 248 267
3 99 100 268
3 248 99 268
3 100 255 268
3 102 101 276
3 101 251 276
3 103 102 247
3 247 102 276
3 104 103 264
3 103 247 264
3 237 104 264
3 106 105 275
3 105 236 275
3 107 106 245
3 245 106 275
3 108 107 263
3 107 245 263
3 109 108 269
3 108 263 269
3 109 269 280
3 111 110 244
3 244 110 280
3 111 244 281
3 112 113 274
3 249 112 274
3 113 114 262
3 113 262 274
3 114 115 253
3 114 253 262
3 115 116 270
3 253 115 270
3 270 116 281
3 117 118 277
3 238 117 277
3 118 119 265
3 118 265 277
3 119 120 261
3 119 261 265
3 120 250 261
3 236 240 256
3 249 236 256
3 236 249 259
3 236 259 275
3 237 264 279
3 273 237 283
3 237 279 283
3 238 251 257
3 251 238 258
3 238 257 272
3 258 238 277
3 239 267 282
3 271 239 285
3 239 282 285
3 256 240 273
3 241 249 256
3 250 241 283
3 241 256 283
3 251 242 257
3 257 242 271
3 252 243 285
3 243 272 285
3 244 269 270
3 269 244 280
3 244 270 281
3 245 259 262
3 259 245 275
3 245 262 263
3 255 246 278
3 278 246 284
3 247 258 265
3 258 247 276
3 247 261 264
3 261 247 265
3 248 254 266
3 254 248 268
3 260 248 266
3 248 260 267
3 259 249 274
3 261 250 279
3 279 250 283
3 251 258 276
3 260 252 282
3 282 252 285
3 262 253 263
3 263 253 270
3 254 268 278
3 254 278 284
3 268 255 278
3 256 273 283
3 257 271 285
3 272 257 285
3 265 258 277
3 262 259 274
3 267 260 282
3 264 261 279
3 269 263 270
3 121 0 1
3 24 121 1
3 2 286 1
3 1 286 24
3 25 286 2
3 24 286 25
3 122 2 3
3 25 2 122
3 117 0 294
3 0 121 294
3 3 93 293
3 122 3 293
3 90 4 316
3 4 144 316
3 28 19 312
3 19 116 312
3 112 20 292
3 20 125 292
3 23 120 291
3 123 23 291
3 34 24 25
3 24 34 137
3 121 24 294
3 24 137 294
3 34 25 138
3 25 122 293
3 138 25 293
3 31 124 26
3 132 31 26
3 26 123 291
3 132 26 291
3 27 124 31
3 131 27 31
3 125 27 292
3 27 131 292
3 126 28 312
3 30 29 295
3 29 128 295
3 129 30 295
3 33 32 296
3 32 134 296
3 135 33 296
3 35 140 298
3 142 35 298
3 36 141 315
3 143 36 315
3 91 90 308
3 308 90 316
3 92 91 288
3 288 91 308
3 93 92 311
3 92 288 311
3 293 93 302
3 302 93 311
3 113 112 318
3 112 292 301
3 112 301 318
3 114 113 287
3 287 113 318
3 115 114 309
3 114 287 309
3 116 115 303
3 303 115 309
3 116 303 312
3 118 117 313
3 117 294 306
3 117 306 313
3 119 118 289
3 289 118 313
3 120 119 314
3 119 289 314
3 291 120 307
3 307 120 314
3 127 126 303
3 303 126 312
3 128 127 297
3 297 127 303
3 295 128 297
3 130 129 305
3 129 295 305
3 131 130 301
3 301 130 305
3 292 131 301
3 133 132 307
3 132 291 307
3 134 133 300
3 300 133 307
3 296 134 300
3 136 135 299
3 135 296 299
3 137 136 306
3 136 299 306
3 294 137 306
3 139 138 302
3 138 293 302
3 140 139 310
3 139 302 310
3 298 140 310
3 141 142 304
3 141 304 315
3 142 298 304
3 144 143 290
3 290 143 315
3 144 290 316
3 287 305 317
3 305 287 318
3 309 287 317
3 298 288 304
3 288 298 310
3 304 288 308
3 288 310 311
3 296 289 299
3 289 296 300
3 299 289 313
3 289 300 314
3 290 304 308
3 304 290 315
3 290 308 316
3 295 297 317
3 305 295 317
3 297 303 309
3 297 309 317
3 306 299 313
3 300 307 314
3 301 305 318
3 310 302 311
3 4 5 320
3 144 4 320
3 5 148 320
3 8 9 319
3 155 8 319
3 9 153 319
3 38 145 36
3 150 38 36
3 150 36 143
3 145 151 36
3 37 39 147
3 157 39 37
3 147 39 152
3 39 157 154
3 149 143 144
3 149 150 143
3 148 149 144
3 148 144 320
3 151 145 146
3 146 147 152
3 151 146 152
3 156 153 154
3 156 155 153
3 153 155 319
3 157 156 154
3 5 6 324
3 148 5 324
3 6 158 324
3 40 38 321
3 38 150 321
3 160 40 321
3 149 148 323
3 148 158 323
3 158 148 324
3 150 149 322
3 149 159 322
3 159 149 323
3 150 160 321
3 160 150 322
3 158 159 323
3 159 160 322
3 96 337 6
3 6 337 158
3 7 335 94
3 161 335 7
3 160 334 40
3 40 334 164
3 41 336 163
3 166 336 41
3 94 333 95
3 94 335 333
3 95 326 96
3 95 333 326
3 326 337 96
3 158 331 159
3 158 337 331
3 159 328 160
3 159 331 328
3 328 334 160
3 162 327 161
3 327 335 161
3 163 329 162
3 162 329 327
3 163 336 329
3 164 332 165
3 164 334 332
3 165 325 166
3 165 332 325
3 325 336 166
3 325 330 329
3 329 336 325
3 325 332 330
3 330 331 326
3 326 333 330
3 331 337 326
3 329 330 327
3 330 333 327
3 333 335 327
3 328 331 330
3 330 332 328
3 332 334 328
3 8 341 7
3 7 341 161
3 155 341 8
3 41 338 37
3 37 338 157
3 163 338 41
3 156 340 155
3 155 340 161
3 161 341 155
3 157 339 156
3 156 339 162
3 162 340 156
3 157 338 163
3 163 339 157
3 161 340 162
3 162 339 163
3 100 371 9
3 9 371 153
3 10 348 97
3 187 348 10
3 101 347 13
3 13 347 167
3 14 346 104
3 168 346 14
3 105 349 17
3 17 349 169
3 45 367 18
3 18 367 109
3 154 370 39
3 39 370 186
3 51 53 42
3 181 51 42
3 167 347 42
3 42 347 181
3 48 43 44
3 43 48 176
3 43 346 168
3 176 346 43
3 44 175 48
3 169 349 44
3 44 349 175
3 170 367 45
3 47 350 46
3 46 350 172
3 173 350 47
3 50 351 49
3 49 351 178
3 179 351 50
3 182 53 51
3 52 353 184
3 185 353 52
3 182 348 53
3 53 348 187
3 97 366 98
3 348 357 97
3 357 366 97
3 98 343 99
3 98 366 343
3 99 363 100
3 343 363 99
3 363 371 100
3 102 368 101
3 101 361 347
3 101 368 361
3 103 344 102
3 344 368 102
3 104 369 103
3 103 369 344
3 346 362 104
3 362 369 104
3 106 372 105
3 105 360 349
3 105 372 360
3 107 342 106
3 342 372 106
3 108 364 107
3 107 364 342
3 109 358 108
3 358 364 108
3 109 367 358
3 153 345 154
3 153 371 345
3 345 370 154
3 171 358 170
3 358 367 170
3 172 352 171
3 352 358 171
3 350 352 172
3 174 356 173
3 173 356 350
3 175 360 174
3 174 360 356
3 349 360 175
3 177 362 176
3 176 362 346
3 178 355 177
3 355 362 177
3 351 355 178
3 180 354 179
3 179 354 351
3 181 361 180
3 180 361 354
3 347 361 181
3 183 357 182
3 182 357 348
3 184 365 183
3 183 365 357
3 353 365 184
3 186 359 185
3 185 359 353
3 186 370 359
3 356 372 342
3 342 373 356
3 364 373 342
3 353 359 343
3 343 365 353
3 359 363 343
3 343 366 365
3 351 354 344
3 344 355 351
3 354 368 344
3 344 369 355
3 345 363 359
3 359 370 345
3 345 371 363
3 350 373 352
3 356 373 350
3 352 364 358
3 352 373 364
3 361 368 354
3 355 369 362
3 360 372 356
3 365 366 357
3 11 187 10
3 11 53 187
3 12 374 11
3 11 374 53
3 42 374 12
3 53 374 42
3 13 167 12
3 12 167 42
3 14 15 168
3 15 43 168
3 16 375 15
3 15 375 43
3 44 375 16
3 43 375 44
3 16 17 169
3 16 169 44
3 18 376 45
3 110 376 18
3 28 378 19
3 19 378 111
3 189 378 28
3 45 376 188
3 111 377 110
3 188 376 110
3 110 377 188
3 189 377 111
3 111 378 189
3 188 377 189
3 125 20 21
3 27 125 21
3 22 379 21
3 21 379 27
3 26 379 22
3 124 379 26
3 27 379 124
3 123 22 23
3 26 22 123
3 126 389 28
3 28 389 189
3 29 387 128
3 191 387 29
3 45 388 170
3 188 388 45
3 172 386 46
3 46 386 190
3 127 383 126
3 383 389 126
3 128 382 127
3 382 383 127
3 128 387 382
3 170 384 171
3 170 388 384
3 171 381 172
3 171 384 381
3 381 386 172
3 189 380 188
3 380 388 188
3 189 389 380
3 190 385 191
3 190 386 385
3 385 387 191
3 383 384 380
3 380 389 383
3 384 388 380
3 381 383 382
3 382 385 381
3 381 384 383
3 385 386 381
3 382 387 385
3 30 390 29
3 29 390 191
3 193 390 30
3 46 391 47
3 190 391 46
3 47 391 192
3 191 392 190
3 190 392 391
3 390 392 191
3 192 392 193
3 391 392 192
3 193 392 390
3 129 400 30
3 30 400 193
3 31 59 58
3 58 131 31
3 47 401 173
3 192 401 47
3 54 48 55
3 48 175 55
3 55 397 56
3 175 397 55
3 56 393 194
3 56 397 393
3 57 396 58
3 194 393 57
3 393 395 57
3 395 396 57
3 58 396 131
3 130 398 129
3 398 400 129
3 131 395 130
3 395 398 130
3 131 396 395
3 173 399 174
3 173 401 399
3 174 397 175
3 393 397 174
3 174 399 393
3 193 394 192
3 394 401 192
3 193 400 394
3 393 398 395
3 393 399 398
3 398 399 394
3 394 400 398
3 399 401 394
3 59 31 60
3 60 31 132
3 32 410 134
3 196 410 32
3 54 63 48
3 63 176 48
3 178 409 49
3 49 409 195
3 60 405 61
3 132 405 60
3 61 402 197
3 61 405 402
3 62 406 63
3 197 402 62
3 402 404 62
3 404 406 62
3 63 406 176
3 133 405 132
3 134 408 133
3 402 405 133
3 133 408 402
3 134 410 408
3 176 404 177
3 176 406 404
3 177 407 178
3 404 407 177
3 407 409 178
3 195 403 196
3 195 409 403
3 403 410 196
3 402 407 404
3 402 408 407
3 407 408 403
3 403 409 407
3 408 410 403
3 33 411 32
3 32 411 196
3 199 411 33
3 49 412 50
3 195 412 49
3 50 412 198
3 196 413 195
3 195 413 412
3 411 413 196
3 198 413 199
3 412 413 198
3 199 413 411
3 135 421 33
3 33 421 199
3 68 34 69
3 137 34 68
3 50 422 179
3 198 422 50
3 51 65 64
3 51 181 65
3 65 418 66
3 181 418 65
3 66 414 200
3 66 418 414
3 67 417 68
3 200 414 67
3 414 416 67
3 416 417 67
3 68 417 137
3 136 419 135
3 419 421 135
3 137 416 136
3 416 419 136
3 137 417 416
3 179 420 180
3 179 422 420
3 180 418 181
3 414 418 180
3 180 420 414
3 199 415 198
3 415 422 198
3 199 421 415
3 414 419 416
3 414 420 419
3 419 420 415
3 415 421 419
3 420 422 415
3 70 69 34
3 138 70 34
3 35 431 140
3 202 431 35
3 64 73 51
3 51 73 182
3 184 430 52
3 52 430 201
3 70 427 71
3 138 427 70
3 71 423 203
3 71 427 423
3 72 426 73
3 203 423 72
3 423 425 72
3 425 426 72
3 73 426 182
3 139 427 138
3 140 428 139
3 423 427 139
3 139 428 423
3 140 431 428
3 182 425 183
3 182 426 425
3 183 429 184
3 425 429 183
3 429 430 184
3 201 424 202
3 201 430 424
3 424 431 202
3 423 429 425
3 428 429 423
3 424 429 428
3 428 431 424
3 424 430 429
3 142 436 35
3 35 436 202
3 36 438 141
3 151 438 36
3 39 437 152
3 186 437 39
3 52 439 185
3 201 439 52
3 141 434 142
3 141 438 434
3 434 436 142
3 152 432 151
3 432 438 151
3 152 437 432
3 185 435 186
3 185 439 435
3 435 437 186
3 202 433 201
3 433 439 201
3 202 436 433
3 432 435 434
3 434 438 432
3 432 437 435
3 434 435 433
3 433 436 434
3 435 439 433
3 37 440 41
3 147 440 37
3 40 442 38
3 38 442 145
3 164 442 40
3 41 440 166
3 145 443 146
3 145 442 164
3 164 443 145
3 146 441 147
3 165 441 146
3 146 443 165
3 166 440 147
3 147 441 166
3 165 443 164
3 166 441 165
3 55 445 54
3 54 445 63
3 206 445 55
3 59 444 58
3 58 444 207
3 60 444 59
3 205 444 60
3 63 445 204
3 204 446 205
3 204 445 206
3 206 446 204
3 207 444 205
3 205 446 207
3 207 446 206
3 55 56 206
3 56 208 206
3 207 57 58
3 208 57 207
3 206 208 207
3 208 56 194
3 194 57 208
3 205 60 61
3 209 205 61
3 63 204 62
3 62 204 209
3 204 205 209
3 209 61 197
3 197 62 209
3 65 448 64
3 64 448 73
3 212 448 65
3 69 447 68
3 68 447 213
3 70 447 69
3 211 447 70
3 73 448 210
3 210 449 211
3 210 448 212
3 212 449 210
3 213 447 211
3 211 449 213
3 213 449 212
3 65 66 212
3 66 214 212
3 213 67 68
3 214 67 213
3 212 214 213
3 214 66 200
3 200 67 214
3 211 70 71
3 215 211 71
3 73 210 72
3 72 210 215
3 210 211 215
3 215 71 203
3 203 72 215
3 216 217 74
3 216 75 217
3 216 74 451
3 74 218 451
3 75 216 450
3 220 75 450
3 218 76 451
3 76 219 451
3 219 77 450
3 77 220 450
3 216 219 450
3 219 216 451
3 217 452 74
3 74 452 218
3 75 453 217
3 220 453 75
3 76 452 78
3 218 452 76
3 81 453 77
3 77 453 220
3 78 455 221
3 452 455 78
3 221 455 79
3 79 455 222
3 222 454 80
3 80 454 223
3 223 454 81
3 81 454 453
3 217 455 452
3 453 455 217
3 222 455 454
3 454 455 453
3 76 78 456
3 219 76 456
3 81 77 457
3 77 219 457
3 78 224 456
3 224 81 457
3 224 219 456
3 219 224 457
3 78 221 458
3 224 78 458
3 221 79 458
3 79 225 458
3 80 223 459
3 225 80 459
3 223 81 459
3 81 224 459
3 225 224 458
3 224 225 459
3 222 225 79
3 80 225 222
3 226 227 82
3 227 226 83
3 226 82 460
3 82 228 460
3 83 226 461
3 230 83 461
3 228 84 460
3 84 229 460
3 229 85 461
3 85 230 461
3 229 226 460
3 226 229 461
3 227 463 82
3 82 463 228
3 83 462 227
3 230 462 83
3 84 463 86
3 228 463 84
3 89 462 85
3 85 462 230
3 86 465 231
3 463 465 86
3 231 465 87
3 87 465 232
3 232 464 88
3 88 464 233
3 233 464 89
3 89 464 462
3 462 465 227
3 227 465 463
3 232 465 464
3 464 465 462
3 84 86 466
3 229 84 466
3 89 85 467
3 85 229 467
3 86 234 466
3 234 89 467
3 234 229 466
3 229 234 467
3 86 231 468
3 234 86 468
3 231 87 468
3 87 235 468
3 88 233 469
3 235 88 469
3 233 89 469
3 89 234 469
3 235 234 468
3 234 235 469
3 232 235 87
3 235 232 88
4 80 223 291 405
4 246 278 284 475
4 233 427 293 88
4 369 264 473 482
4 471 473 264 482
4 300 314 471 473
4 313 474 473 481
4 300 471 408 473
4 153 345 371 475
4 290 144 316 475
4 355 369 473 482
4 299 313 473 481
4 436 433 304 485
4 228 82 66 418
4 223 80 61 405
4 233 71 427 88
4 246 284 316 475
4 255 278 333 475
4 290 144 475 484
4 407 473 471 482
4 196 413 411 473
4 199 411 413 473
4 413 195 412 473
4 412 198 413 473
4 407 408 471 473
4 437 435 370 484
4 373 364 342 470
4 436 434 304 433
4 475 477 304 485
4 437 432 435 484
4 226 460 82 66
4 473 474 419 481
4 326 475 144 484
4 244 269 380 479
4 304 433 434 485
4 345 475 330 484
4 407 355 473 482
4 299 473 419 481
4 304 434 475 485
4 437 154 152 484
4 368 354 473 474
4 263 342 364 470
4 420 473 354 474
4 287 253 309 479
4 261 471 314 473
4 435 475 370 484
4 261 264 471 473
4 266 288 475 477
4 419 473 420 474
4 298 436 304 485
4 154 370 345 484
4 298 304 477 485
4 154 345 330 484
4 266 475 248 477
4 415 198 422 473
4 403 196 410 473
4 421 199 415 473
4 403 409 195 473
4 263 342 470 483
4 384 380 269 479
4 309 317 287 479
4 370 475 345 484
4 247 276 368 473
4 287 305 318 483
4 199 413 415 473
4 198 415 413 473
4 403 195 413 473
4 403 413 196 473
4 326 330 475 484
4 391 192 392 470
4 193 390 392 470
4 392 190 391 470
4 352 364 373 470
4 191 392 390 470
4 326 330 333 475
4 317 470 287 479
4 437 370 154 484
4 388 384 380 269
4 263 470 364 479
4 270 244 380 479
4 263 245 342 483
4 313 277 474 481
4 343 477 475 485
4 87 468 235 72
4 434 435 432 484
4 434 475 435 484
4 333 246 278 255
4 287 470 305 483
4 380 244 388 269
4 288 308 266 475
4 264 247 369 473
4 288 304 475 477
4 327 153 333 330
4 262 287 470 479
4 247 258 276 473
4 196 411 296 473
4 412 195 351 473
4 199 296 411 473
4 412 351 198 473
4 314 289 265 473
4 8 319 341 155
4 320 148 5 324
4 364 470 352 479
4 308 254 266 475
4 262 253 287 479
4 382 385 387 470
4 435 359 475 485
4 305 476 318 483
4 352 373 386 470
4 350 386 373 470
4 89 293 122 233
4 190 385 386 470
4 248 475 343 477
4 351 195 409 473
4 196 296 410 473
4 198 351 422 473
4 421 296 199 473
4 387 385 191 470
4 380 244 270 389
4 410 408 403 473
4 415 422 420 473
4 297 387 317 470
4 317 387 295 470
4 415 420 419 473
4 407 403 408 473
4 421 415 419 473
4 403 407 409 473
4 280 388 244 269
4 381 386 385 470
4 300 408 410 473
4 75 453 220 256
4 354 420 422 473
4 202 436 298 485
4 293 252 233 88
4 314 265 261 473
4 190 392 385 470
4 191 385 392 470
4 226 66 82 474
4 270 380 389 383
4 300 314 307 471
4 394 192 401 470
4 394 400 193 470
4 262 287 318 483
4 250 223 291 80
4 262 470 287 483
4 298 431 202 485
4 281 312 303 389
4 394 470 399 483
4 300 307 408 471
4 288 298 304 477
4 352 350 386 373
4 269 358 384 479
4 407 355 409 473
4 359 370 435 475
4 305 398 476 483
4 391 350 192 470
4 193 295 390 470
4 190 350 391 470
4 191 390 295 470
4 421 419 299 473
4 297 382 387 470
4 305 470 398 483
4 190 386 350 470
4 394 398 470 483
4 364 352 358 479
4 80 223 454 283
4 401 356 399 470
4 192 394 392 470
4 193 392 394 470
4 281 270 244 389
4 255 268 278 475
4 270 269 244 479
4 192 350 401 470
4 295 193 400 470
4 318 476 274 483
4 254 248 266 475
4 387 191 295 470
4 263 470 262 483
4 264 261 247 473
4 305 287 317 470
4 268 363 248 475
4 66 418 82 474
4 398 400 394 470
4 317 297 295 387
4 298 477 431 485
4 289 313 265 473
4 394 401 399 470
4 394 399 398 483
4 311 472 302 477
4 226 200 66 474
4 262 470 263 479
4 311 302 310 477
4 381 352 386 470
4 382 385 470 479
4 359 343 475 485
4 364 358 263 479
4 305 400 398 470
4 409 355 351 473
4 410 296 300 473
4 363 343 248 475
4 421 299 296 473
4 422 351 354 473
4 380 189 244 389
4 255 371 268 475
4 384 358 352 479
4 388 244 380 188
4 225 222 79 471
4 235 232 87 472
4 269 280 388 367
4 247 368 344 473
4 305 301 318 476
4 244 189 380 377
4 188 244 380 377
4 431 477 424 485
4 373 470 342 483
4 262 318 274 483
4 344 369 247 473
4 245 263 262 483
4 188 388 244 280
4 356 401 350 470
4 305 295 400 470
4 189 281 244 389
4 383 270 380 479
4 269 388 384 358
4 326 144 331 484
4 304 475 434 484
4 469 71 233 88
4 223 80 459 61
4 56 451 74 218
4 228 82 460 66
4 402 407 408 471
4 87 232 285 239
4 310 431 298 477
4 381 352 470 479
4 74 56 218 486
4 435 433 439 485
4 344 368 354 473
4 289 299 313 473
4 366 477 365 480
4 361 420 354 474
4 297 382 470 479
4 263 358 269 479
4 428 431 310 477
4 355 369 344 473
4 314 300 289 473
4 202 433 436 485
4 305 398 301 476
4 265 258 247 473
4 381 470 385 479
4 366 267 477 480
4 252 122 293 233
4 356 399 470 483
4 431 424 202 485
4 384 352 381 479
4 437 152 432 484
4 329 154 330 484
4 291 80 405 471
4 301 398 395 476
4 144 4 337 320
4 428 424 431 477
4 153 9 319 335
4 370 359 345 475
4 389 303 270 383
4 427 293 88 472
4 278 254 284 475
4 359 435 439 485
4 265 247 261 473
4 423 477 472 480
4 363 359 343 475
4 308 288 304 475
4 358 269 388 367
4 61 405 80 471
4 427 88 71 472
4 361 354 368 474
4 297 470 317 479
4 365 477 429 480
4 472 477 267 480
4 262 263 253 479
4 402 407 471 482
4 384 383 380 479
4 329 330 325 484
4 239 231 87 480
4 423 428 472 477
4 281 303 270 389
4 254 268 248 475
4 114 309 287 253
4 305 317 295 470
4 356 350 373 470
4 268 371 363 475
4 79 237 221 482
4 402 408 307 471
4 423 429 477 480
4 414 419 420 474
4 342 107 263 364
4 428 302 423 472
4 222 283 79 471
4 115 303 309 253
4 280 244 188 377
4 373 356 470 483
4 83 67 230 461
4 450 220 57 75
4 290 475 304 484
4 316 308 290 475
4 371 345 363 475
4 244 281 189 377
4 270 383 303 479
4 290 143 144 484
4 248 366 267 477
4 280 376 388 367
4 230 294 417 481
4 253 303 309 479
4 438 315 434 484
4 388 188 376 280
4 220 249 75 256
4 233 252 285 88
4 423 429 428 477
4 304 434 315 484
4 200 474 226 481
4 378 312 281 389
4 311 260 472 477
4 393 476 398 483
4 189 378 281 389
4 80 250 223 283
4 382 381 385 479
4 414 420 361 474
4 399 393 398 483
4 266 260 311 477
4 266 311 288 477
4 88 285 233 464
4 393 476 483 486
4 326 331 330 484
4 399 483 356 486
4 230 272 238 83
4 393 483 399 486
4 274 476 259 483
4 354 351 344 473
4 299 289 296 473
4 351 355 344 473
4 300 296 289 473
4 107 263 245 342
4 227 226 82 474
4 283 79 279 237
4 399 356 360 486
4 440 41 166 336
4 279 237 79 471
4 315 290 304 484
4 40 334 442 164
4 362 369 355 482
4 221 79 455 273
4 438 151 36 143
4 154 39 437 152
4 143 438 151 484
4 428 429 424 477
4 203 235 72 480
4 419 474 414 481
4 221 237 79 273
4 218 397 349 486
4 365 429 477 485
4 262 114 287 253
4 426 231 348 480
4 331 144 143 484
4 299 306 313 481
4 267 472 260 477
4 231 87 465 271
4 324 158 6 337
4 464 285 462 465
4 341 335 7 161
4 230 67 83 481
4 438 434 432 484
4 248 343 366 477
4 262 274 259 483
4 163 41 338 336
4 406 221 346 482
4 373 342 356 483
4 414 180 418 361
4 216 476 194 486
4 87 72 235 480
4 285 232 88 472
4 357 366 365 480
4 321 334 40 160
4 252 88 293 472
4 288 310 298 477
4 297 317 309 479
4 139 423 302 427
4 87 231 239 271
4 80 291 250 471
4 345 359 363 475
4 304 290 308 475
4 365 477 343 485
4 230 417 67 481
4 353 359 439 485
4 116 312 303 281
4 424 477 429 485
4 443 165 164 332
4 397 218 56 486
4 82 251 227 474
4 303 115 270 253
4 343 365 366 477
4 282 285 232 239
4 82 228 257 251
4 328 160 322 159
4 253 270 303 479
4 133 402 307 405
4 418 414 361 474
4 225 197 471 482
4 165 325 441 166
4 361 347 418 474
4 283 279 79 471
4 217 74 236 476
4 75 216 217 476
4 174 399 360 486
4 272 230 462 83
4 423 302 427 472
4 203 472 235 480
4 144 337 246 326
4 174 399 356 360
4 146 441 152 147
4 151 145 443 146
4 233 89 71 469
4 459 81 223 61
4 451 56 76 218
4 84 228 460 66
4 144 4 246 337
4 356 483 360 486
4 306 299 416 481
4 365 430 429 485
4 254 278 268 475
4 238 83 227 474
4 256 74 452 218
4 260 266 248 477
4 151 152 332 484
4 110 280 188 377
4 227 82 257 251
4 402 307 405 471
4 365 425 357 480
4 252 302 93 472
4 189 281 111 377
4 465 232 285 87
4 261 307 314 471
4 248 268 99 363
4 359 353 343 485
4 468 87 231 72
4 79 458 62 221
4 260 248 267 477
4 255 333 335 153
4 372 483 275 486
4 143 315 438 484
4 261 120 314 307
4 261 314 119 265
4 274 318 301 476
4 72 87 231 480
4 303 383 297 479
4 59 124 77 81
4 279 261 264 471
4 161 327 162 340
4 419 416 299 481
4 154 39 370 437
4 143 36 438 315
4 144 4 316 246
4 261 120 307 471
4 365 429 425 480
4 289 119 314 265
4 163 339 162 329
4 283 454 222 455
4 311 260 302 472
4 361 368 276 474
4 361 354 420 180
4 153 9 335 255
4 398 393 395 476
4 288 308 91 266
4 159 323 331 158
4 328 143 151 484
4 356 372 360 483
4 297 383 382 479
4 72 231 426 480
4 310 288 311 477
4 432 152 151 484
4 276 101 361 474
4 222 225 80 471
4 384 171 352 358
4 143 151 36 328
4 250 307 120 471
4 79 471 237 482
4 232 235 88 472
4 302 260 93 472
4 414 180 361 420
4 311 93 302 260
4 291 405 307 471
4 384 381 383 479
4 266 308 91 254
4 222 283 455 79
4 252 285 243 233
4 155 153 340 156
4 144 323 149 148
4 367 269 280 109
4 62 221 406 482
4 272 285 462 464
4 301 476 395 478
4 244 280 110 377
4 246 4 316 284
4 427 302 293 472
4 424 201 202 485
4 269 270 263 479
4 327 329 154 330
4 363 99 248 343
4 79 221 62 482
4 78 455 452 273
4 20 125 241 77
4 362 355 177 404
4 281 244 111 377
4 95 246 333 255
4 306 299 136 416
4 75 217 249 476
4 439 435 359 185
4 434 142 436 304
4 225 471 79 482
4 113 287 318 262
4 325 332 152 484
4 227 83 238 257
4 151 334 36 328
4 365 357 425 183
4 249 217 75 256
4 239 87 472 480
4 313 306 277 481
4 353 430 365 485
4 368 276 247 102
4 360 372 275 486
4 297 383 303 127
4 463 82 228 257
4 362 104 369 482
4 147 39 37 440
4 36 38 442 145
4 369 247 264 103
4 291 307 250 471
4 87 235 472 480
4 245 372 342 483
4 78 273 240 168
4 307 300 408 133
4 402 133 307 408
4 237 346 221 482
4 139 428 310 302
4 303 297 309 479
4 274 476 301 478
4 322 150 143 149
4 156 339 157 154
4 275 372 245 483
4 9 153 371 255
4 97 357 267 366
4 188 376 280 110
4 67 85 230 461
4 77 220 57 450
4 105 275 360 372
4 277 306 117 481
4 353 365 343 485
4 239 348 231 480
4 378 281 111 189
4 366 357 267 480
4 260 267 282 472
4 283 222 80 471
4 308 316 90 284
4 360 483 372 486
4 239 285 87 271
4 264 369 104 482
4 262 318 113 274
4 423 139 302 428
4 321 40 334 442
4 279 471 264 482
4 259 275 483 486
4 117 313 306 277
4 381 171 352 384
4 355 407 177 404
4 267 357 97 480
4 382 383 381 479
4 112 274 301 478
4 252 293 302 472
4 250 291 120 307
4 419 136 299 416
4 365 425 429 183
4 57 393 194 476
4 248 267 366 98
4 465 463 86 271
4 439 359 353 185
4 142 436 304 298
4 433 202 201 485
4 295 129 305 400
4 275 105 360 486
4 251 361 101 474
4 253 263 270 479
4 256 74 218 236
4 127 297 383 382
4 121 243 272 85
4 238 474 277 481
4 173 401 350 356
4 368 361 276 101
4 282 232 285 472
4 247 344 368 102
4 321 38 36 150
4 157 37 39 338
4 424 429 430 485
4 270 116 303 281
4 252 93 260 472
4 274 318 112 301
4 74 256 217 236
4 86 271 242 187
4 367 358 269 109
4 245 106 342 372
4 392 385 191 190
4 369 344 247 103
4 361 251 347 474
4 393 174 397 486
4 81 123 241 250
4 95 246 326 333
4 350 386 172 352
4 221 455 78 273
4 279 264 237 482
4 87 285 465 271
4 356 342 372 483
4 77 124 241 81
4 302 93 293 252
4 419 414 416 481
4 402 404 407 482
4 261 250 120 471
4 255 94 9 335
4 106 245 275 372
4 143 328 331 484
4 282 472 267 480
4 466 229 234 449
4 234 229 467 449
4 219 446 457 224
4 224 219 446 456
4 152 325 329 336
4 462 89 272 464
4 222 80 454 283
4 439 201 353 485
4 268 255 100 371
4 83 272 238 257
4 251 228 257 242
4 435 437 370 186
4 141 434 438 315
4 430 353 201 485
4 383 389 303 126
4 251 101 276 474
4 128 295 297 387
4 365 353 184 430
4 140 431 298 310
4 105 349 360 486
4 178 351 409 355
4 300 410 134 296
4 238 258 277 474
4 358 388 170 367
4 325 330 332 484
4 347 251 361 101
4 285 464 232 465
4 425 429 423 480
4 57 476 75 478
4 351 422 354 179
4 421 135 296 299
4 353 52 430 201
4 202 35 431 298
4 266 92 311 260
4 35 202 436 298
4 333 94 255 335
4 52 353 439 201
4 217 236 249 476
4 328 330 331 484
4 83 474 238 481
4 312 303 389 126
4 79 283 455 273
4 376 45 388 367
4 237 14 273 168
4 86 231 465 271
4 66 414 418 474
4 426 182 357 348
4 414 66 200 474
4 246 337 4 96
4 449 234 466 210
4 204 224 446 456
4 446 205 457 224
4 211 234 467 449
4 449 466 229 212
4 467 229 213 449
4 176 362 406 346
4 399 401 173 356
4 264 104 237 482
4 428 431 140 310
4 206 446 219 456
4 457 207 446 219
4 267 97 239 480
4 74 236 476 486
4 239 97 348 480
4 75 217 453 256
4 170 384 388 358
4 290 315 143 484
4 28 312 378 389
4 294 137 417 306
4 338 41 440 336
4 346 237 104 482
4 277 117 238 481
4 398 305 129 400
4 395 393 57 476
4 465 285 462 257
4 395 476 57 478
4 220 396 57 478
4 271 239 10 187
4 259 483 476 486
4 98 366 248 343
4 19 312 281 378
4 227 251 238 474
4 288 92 311 266
4 18 376 280 367
4 25 24 34 69
4 53 42 64 51
4 43 44 54 48
4 254 308 90 284
4 429 365 184 430
4 240 76 44 169
4 240 44 54 375
4 89 243 69 85
4 468 231 86 72
4 78 62 458 221
4 256 249 217 236
4 259 245 262 483
4 257 238 227 251
4 86 84 466 448
4 212 449 466 210
4 447 89 85 467
4 239 282 267 480
4 467 213 211 449
4 54 78 76 240
4 285 88 252 472
4 77 81 457 444
4 78 456 445 76
4 205 457 207 446
4 446 206 204 456
4 243 25 69 286
4 169 76 44 349
4 237 283 79 273
4 151 332 328 484
4 110 111 244 377
4 219 216 450 194
4 235 234 469 203
4 224 197 225 458
4 197 225 459 224
4 226 461 229 200
4 194 219 216 451
4 174 360 397 486
4 125 20 249 77
4 279 237 471 482
4 43 78 168 346
4 26 291 123 81
4 464 88 285 232
4 357 348 97 480
4 371 100 268 363
4 319 335 9 341
4 27 59 124 77
4 124 59 26 81
4 242 374 42 64
4 4 320 324 337
4 160 150 143 322
4 306 294 117 481
4 42 84 347 167
4 24 121 294 85
4 393 399 174 486
4 453 454 256 455
4 242 84 42 167
4 84 86 242 64
4 187 53 86 348
4 122 25 293 89
4 241 124 26 81
4 96 246 337 326
4 113 114 287 262
4 277 118 313 265
4 259 275 245 483
4 370 359 435 186
4 434 141 304 315
4 465 463 271 257
4 294 238 117 481
4 126 303 383 127
4 346 104 362 482
4 414 200 67 481
4 197 62 402 482
4 25 122 243 89
4 289 313 118 265
4 386 381 172 352
4 45 388 188 376
4 414 474 200 481
4 384 170 171 358
4 300 410 408 134
4 364 107 263 108
4 334 151 332 328
4 413 199 415 198
4 392 193 394 192
4 413 403 196 195
4 188 380 189 377
4 447 69 89 70
4 445 54 76 55
4 426 348 357 480
4 444 59 58 77
4 448 64 73 86
4 420 354 422 179
4 203 72 423 480
4 115 309 114 253
4 189 28 378 389
4 285 272 462 257
4 406 346 362 482
4 131 31 27 58
4 68 24 34 137
4 34 25 70 138
4 42 51 181 65
4 44 55 48 175
4 182 51 53 73
4 132 26 31 60
4 63 43 48 176
4 46 386 172 350
4 433 201 439 485
4 402 405 61 471
4 427 71 423 472
4 29 295 128 387
4 306 417 294 481
4 134 410 32 296
4 178 351 49 409
4 50 422 351 179
4 296 33 135 421
4 30 129 295 400
4 47 401 350 173
4 462 227 465 257
4 102 247 344 103
4 73 182 426 348
4 245 106 107 342
4 75 220 57 478
4 409 407 178 355
4 112 301 292 478
4 438 432 151 484
4 236 218 256 240
4 13 251 242 167
4 281 111 19 378
4 243 122 3 252
4 421 419 135 299
4 182 425 426 357
4 280 376 18 110
4 137 417 306 416
4 176 406 63 346
4 463 271 257 242
4 259 236 275 486
4 256 452 273 240
4 100 255 9 371
4 239 472 282 480
4 396 131 395 301
4 259 249 236 476
4 241 26 123 81
4 168 237 14 346
4 332 330 328 484
4 44 54 76 240
4 95 333 94 255
4 289 118 119 265
4 455 256 452 273
4 241 123 23 250
4 115 116 303 270
4 137 68 294 417
4 197 402 471 482
4 85 89 272 462
4 220 75 249 478
4 176 406 362 404
4 429 184 365 183
4 187 239 10 348
4 186 359 435 185
4 434 141 142 304
4 463 465 227 257
4 382 128 297 387
4 236 105 275 486
4 243 69 25 89
4 112 249 274 478
4 80 250 283 471
4 109 358 269 108
4 261 279 250 471
4 360 175 397 349
4 331 323 149 144
4 398 129 305 130
4 340 153 327 156
4 448 86 84 65
4 78 445 63 76
4 77 81 444 60
4 89 68 447 85
4 430 201 424 485
4 448 64 86 65
4 444 59 77 60
4 445 54 63 76
4 447 69 68 89
4 397 175 55 349
4 242 42 84 64
4 203 423 472 480
4 258 238 251 474
4 0 117 294 238
4 353 52 439 185
4 436 142 35 298
4 78 63 54 76
4 65 86 84 64
4 81 77 59 60
4 89 69 68 85
4 105 236 349 486
4 248 99 98 343
4 91 92 288 266
4 132 405 291 60
4 163 157 339 329
4 291 405 132 307
4 90 316 4 284
4 149 159 323 331
4 241 77 81 453
4 340 327 162 156
4 7 9 335 341
4 418 361 181 347
4 143 328 160 322
4 274 249 476 478
4 65 418 181 347
4 312 116 19 281
4 314 119 120 261
4 89 272 243 85
4 194 476 393 486
4 367 280 18 109
4 324 6 4 337
4 0 121 243 272
4 138 293 70 427
4 454 283 256 455
4 360 349 397 486
4 152 151 165 146
4 302 293 138 427
4 396 131 301 478
4 425 426 357 480
4 173 174 399 356
4 103 264 369 104
4 78 43 63 346
4 26 291 81 60
4 366 267 97 98
4 76 55 44 349
4 271 285 465 257
4 82 463 227 257
4 259 476 236 486
4 74 217 256 452
4 376 18 45 367
4 312 19 28 378
4 197 402 61 471
4 71 203 423 472
4 49 50 412 351
4 33 32 411 296
4 417 306 416 481
4 332 151 165 152
4 93 311 92 260
4 100 99 268 363
4 42 84 65 347
4 68 24 294 85
4 73 86 53 348
4 70 293 25 89
4 240 273 14 168
4 404 406 362 482
4 416 414 67 481
4 62 404 402 482
4 184 353 52 430
4 35 431 298 140
4 122 293 3 252
4 407 177 178 355
4 154 157 39 336
4 123 291 23 250
4 258 251 276 474
4 396 301 395 478
4 136 135 419 299
4 381 171 172 352
4 230 85 272 462
4 308 90 91 254
4 252 260 282 472
4 72 425 423 480
4 97 10 239 348
4 346 237 14 104
4 45 170 388 367
4 466 212 210 448
4 213 211 447 467
4 157 339 329 154
4 275 105 106 372
4 205 207 457 444
4 204 206 445 456
4 321 334 36 442
4 249 20 241 77
4 194 393 56 486
4 217 453 256 455
4 282 285 252 472
4 117 118 313 277
4 347 251 13 167
4 39 370 437 186
4 36 141 438 315
4 46 47 391 350
4 29 30 295 390
4 242 271 10 187
4 306 136 137 416
4 396 395 57 478
4 396 58 131 478
4 101 276 368 102
4 240 17 236 169
4 455 256 217 452
4 389 28 312 126
4 357 182 425 183
4 292 125 249 478
4 341 319 335 161
4 324 320 158 337
4 140 139 428 310
4 93 3 293 252
4 121 1 0 243
4 112 113 318 274
4 154 329 157 336
4 325 332 165 152
4 152 147 166 336
4 95 246 96 326
4 133 300 408 134
4 75 476 249 478
4 176 362 177 404
4 151 443 164 332
4 329 163 157 336
4 337 6 4 96
4 354 420 180 179
4 174 360 175 397
4 291 120 23 250
4 338 440 39 336
4 152 165 325 441
4 301 131 395 130
4 337 144 331 326
4 94 7 9 335
4 426 425 72 480
4 361 418 181 180
4 283 256 455 273
4 347 13 251 101
4 77 27 58 478
4 143 328 322 159
4 165 443 151 332
4 250 279 283 471
4 131 27 292 58
4 138 139 302 427
4 249 112 292 478
4 334 145 164 151
4 406 404 62 482
4 67 417 416 481
4 333 335 153 327
4 259 274 249 476
4 405 132 307 133
4 443 164 145 151
4 147 441 152 166
4 325 152 441 166
4 147 152 39 336
4 156 153 327 154
4 331 149 143 144
4 127 128 297 382
4 441 152 165 146
4 443 165 151 146
4 175 44 55 349
4 176 63 43 346
4 132 291 26 60
4 240 14 15 168
4 65 181 42 347
4 68 294 24 137
4 73 53 182 348
4 25 293 70 138
4 242 10 11 187
4 292 301 131 478
4 145 334 36 151
4 325 152 166 336
4 159 149 143 331
4 156 327 162 154
4 131 58 292 478
4 125 21 20 241
4 151 164 334 332
4 169 17 236 349
4 327 161 153 340
4 240 15 16 375
4 125 20 292 249
4 374 12 11 242
4 440 166 39 336
4 144 331 323 158
4 379 22 21 241
4 143 328 159 331
4 243 1 2 286
4 292 58 27 478
4 338 39 163 336
4 54 43 63 78
4 53 86 73 64
4 81 59 26 60
4 70 25 69 89
4 65 84 42 64
4 77 27 59 58
4 44 54 55 76
4 69 24 68 85
4 329 339 162 154
4 442 334 36 164
4 39 147 166 440
4 145 442 36 164
4 161 341 319 155
4 320 158 148 324
4 163 157 39 338
4 321 36 334 160
4 36 321 150 160
4 329 162 327 154
4 105 236 17 349
4 144 158 320 337
4 161 319 335 153
4 440 37 41 338
4 319 9 8 341
4 320 5 4 324
4 112 292 20 249
4 321 38 40 442
4 321 36 38 442
4 440 39 37 338
4 319 161 155 153
4 158 148 144 320
4 393 397 56 486
4 153 335 161 327
4 150 334 36 160
4 158 144 331 337
4 163 39 157 336
4 145 36 334 164
4 166 147 39 336
4 5 6 4 324
4 9 7 8 341
4 339 156 162 154
4 149 143 322 159
4 161 155 153 340
4 148 144 323 158
4 194 56 208 206
4 214 212 200 66
4 71 211 215 203
4 205 61 197 209
4 23 22 123 241
4 210 215 203 72
4 208 207 57 194
4 209 62 197 204
4 214 213 67 200
4 240 16 17 169
4 12 13 242 167
4 3 2 122 243
4 48 54 43 63
4 73 51 53 64
4 55 48 54 44
4 65 42 51 64
4 59 31 26 60
4 34 25 69 70
4 59 27 31 58
4 69 24 34 68
4 59 31 27 124
4 59 26 31 124
4 25 24 69 286
4 53 42 374 64
4 43 44 375 54
4 485 434 435 433
4 485 435 434 475
4 475 153 330 333
4 475 330 153 345
4 475 246 333 326
4 475 333 246 278
4 473 276 474 258
4 473 474 276 368
4 277 474 473 313
4 473 474 277 258
4 473 265 277 313
4 277 265 473 258
4 233 122 243 252
4 233 243 122 89
4 81 291 250 223
4 81 250 291 123
4 486 218 236 349
4 486 236 218 74
4 85 294 272 121
4 85 272 294 230
4 238 294 272 230
4 239 232 472 87
4 239 472 232 282
4 481 230 238 83
4 481 238 230 294
4 453 77 256 241
4 453 256 77 220
4 249 256 77 241
4 249 77 256 220
4 477 302 428 472
4 477 428 302 310
4 263 358 108 269
4 108 358 263 364
4 474 251 418 82
4 474 418 251 347
4 228 418 251 82
4 228 251 418 347
4 152 329 484 154
4 152 484 329 325
4 226 83 474 227
4 226 474 83 481
4 379 26 241 124
4 77 27 241 124
4 77 241 27 125
4 379 241 27 124
4 77 478 249 125
4 249 478 77 220
4 237 346 273 221
4 237 273 346 168
4 78 273 346 221
4 78 346 273 168
4 239 348 271 231
4 239 271 348 187
4 86 271 348 231
4 86 348 271 187
4 272 464 243 285
4 272 243 464 89
4 233 243 464 285
4 233 464 243 89
4 350 190 46 386
4 350 46 190 391
4 454 81 283 223
4 250 283 81 223
4 250 81 283 241
4 351 195 49 409
4 49 195 351 412
4 296 196 32 411
4 296 32 196 410
4 351 198 50 412
4 351 50 198 422
4 199 296 33 411
4 199 33 296 421
4 246 144 475 316
4 475 144 246 326
4 255 153 475 333
4 475 153 255 371
4 74 216 476 217
4 74 476 216 486
4 308 284 475 316
4 475 284 308 254
4 350 192 47 391
4 350 47 192 401
4 193 295 30 390
4 193 30 295 400
4 191 295 29 387
4 191 29 295 390
4 154 153 330 345
4 154 330 153 327
4 451 194 74 216
4 451 74 194 56
4 486 74 194 216
4 486 194 74 56
4 197 471 80 225
4 80 471 197 61
4 80 459 197 225
4 197 459 80 61
4 203 472 88 235
4 88 472 203 71
4 88 469 203 235
4 203 469 88 71
4 200 481 83 67
4 83 481 200 226
4 83 461 200 67
4 200 461 83 226
4 476 194 75 216
4 476 75 194 57
4 450 75 194 216
4 450 194 75 57
4 458 197 79 62
4 458 79 197 225
4 482 79 197 62
4 482 197 79 225
4 457 81 205 444
4 60 81 205 61
4 60 205 81 444
4 456 76 206 445
4 55 76 206 56
4 55 206 76 445
4 466 84 212 448
4 65 84 212 66
4 65 212 84 448
4 467 89 211 447
4 70 89 211 71
4 70 211 89 447
4 301 398 130 395
4 130 398 301 305
4 228 242 167 84
4 167 242 228 251
4 167 347 228 84
4 228 347 167 251
4 355 404 482 407
4 482 404 355 362
4 240 218 452 76
4 240 452 218 256
4 242 228 463 84
4 242 463 228 257
4 452 240 78 273
4 78 240 452 76
4 347 84 418 228
4 347 418 84 65
4 66 418 84 228
4 66 84 418 65
4 56 76 397 55
4 56 397 76 218
4 349 397 76 55
4 349 76 397 218
4 291 81 405 223
4 291 405 81 60
4 61 405 81 223
4 61 81 405 60
4 71 89 427 70
4 71 427 89 233
4 293 427 89 70
4 293 89 427 233
4 68 213 85 67
4 68 85 213 447
4 467 213 85 447
4 58 207 77 57
4 58 77 207 444
4 457 207 77 444
4 63 204 78 62
4 63 78 204 445
4 456 204 78 445
4 73 210 86 72
4 73 86 210 448
4 466 210 86 448
4 463 242 86 271
4 86 242 463 84
4 478 125 27 292
4 478 27 125 77
4 83 257 462 272
4 462 257 83 227
4 218 240 169 76
4 169 240 218 236
4 169 349 218 76
4 218 349 169 236
4 197 204 205 209
4 211 203 210 215
4 206 194 207 208
4 200 213 212 214
4 328 160 150 143
4 150 160 328 334
4 150 36 328 143
4 328 36 150 334
4 478 77 396 58
4 478 396 77 220
4 57 396 77 58
4 57 77 396 220
4 336 154 152 39
4 336 152 154 329
4 1 24 243 121
4 1 243 24 286
4 85 243 24 121
4 27 21 241 379
4 27 241 21 125
4 22 26 241 379
4 22 241 26 123
4 25 2 243 122
4 25 243 2 286
4 15 43 240 168
4 15 240 43 375
4 78 240 43 168
4 44 16 240 169
4 44 240 16 375
4 12 42 242 374
4 12 242 42 167
4 86 242 53 187
4 11 242 53 374
4 11 53 242 187
4 294 272 0 238
4 294 0 272 121
4 453 81 256 454
4 453 256 81 241
4 283 256 81 454
4 283 81 256 241
4 85 294 417 230
4 417 294 85 68
4 417 67 85 230
4 85 67 417 68
4 81 205 224 457
4 76 206 219 456
4 84 212 229 466
4 89 211 234 467
4 86 348 426 231
4 426 348 86 73
4 426 72 86 231
4 86 72 426 73
4 78 346 406 221
4 406 346 78 63
4 406 62 78 221
4 78 62 406 63
4 213 85 229 467
4 207 77 219 457
4 204 78 224 456
4 210 86 234 466
4 204 205 224 197
4 204 224 205 446
4 210 211 234 203
4 234 211 210 449
4 207 206 219 194
4 219 206 207 446
4 213 212 229 200
4 213 229 212 449
4 243 24 69 85
4 243 69 24 286
4 240 43 54 78
4 240 54 43 375
4 459 197 205 61
4 205 197 459 224
4 205 81 459 61
4 459 81 205 224
4 468 86 210 72
4 468 210 86 234
4 203 468 210 72
4 203 210 468 234
4 235 468 203 72
4 235 203 468 234
4 242 53 64 86
4 242 64 53 374
4 194 451 206 219
4 194 206 451 56
4 76 206 451 219
4 76 451 206 56
4 197 458 204 62
4 197 204 458 224
4 78 204 458 62
4 78 458 204 224
4 460 84 212 229
4 460 212 84 66
4 200 460 212 229
4 200 212 460 66
4 226 460 200 229
4 226 200 460 66
4 461 200 213 229
4 213 200 461 67
4 213 85 461 229
4 461 85 213 67
4 450 194 207 219
4 207 194 450 57
4 207 77 450 219
4 450 77 207 57
4 469 203 211 71
4 211 203 469 234
4 211 89 469 71
4 469 89 211 234

CELL_TYPES 2731
1
1
1
1
1
1
1
1
1
1
1
1
1
1
1
1
1
1
1
1
1
1
1
1
1
1
1
1
1
1
1
1
1
1
1
1
1
1
1
1
1
1
1
1
1
1
1
1
1
1
1
1
1
1
1
1
1
1
1
1
1
1
1
1
1
1
1
1
1
1
1
1
1
1
1
1
1
1
1
1
1
1
1
1
1
1
1
1
1
1
3
3
3
3
3
3
3
3
3
3
3
3
3
3
3
3
3
3
3
3
3
3
3
3
3
3
3
3
3
3
3
3
3
3
3
3
3
3
3
3
3
3
3
3
3
3
3
3
3
3
3
3
3
3
3
3
3
3
3
3
3
3
3
3
3
3
3
3
3
3
3
3
3
3
3
3
3
3
3
3
3
3
3
3
3
3
3
3
3
3
3
3
3
3
3
3
3
3
3
3
3
3
3
3
3
3
3
3
3
3
3
3
3
3
3
3
3
3
3
3
3
3
3
3
3
3
3
3
3
3
3
3
3
3
3
3
3
3
3
3
3
3
3
3
3
3
3
3
3
3
3
3
3
3
3
3
3
3
3
3
3
3
3
3
3
3
3
3
3
3
3
3
3
3
3
3
3
3
3
3
3
3
3
3
3
3
3
3
3
3
3
3
3
3
3
3
3
3
3
3
3
3
3
3
3
3
3
3
3
3
3
3
3
3
3
3
3
3
3
3
3
3
3
3
3
3
3
3
3
3
3
3
3
3
3
3
3
3
3
3
3
3
3
3
3
3
3
3
3
3
3
3
3
3
3
3
3
3
3
3
3
3
3
3
3
3
3
3
3
3
3
3
3
3
3
3
3
3
3
3
3
5
5
5
5
5
5
5
5
5
5
5
5
5
5
5
5
5
5
5
5
5
5
5
5
5
5
5
5
5
5
5
5
5
5
5
5
5
5
5
5
5
5
5
5
5
5
5
5
5
5
5
5
5
5
5
5
5
5
5
5
5
5
5
5
5
5
5
5
5
5
5
5
5
5
5
5
5
5
5
5
5
5
5
5
5
5
5
5
5
5
5
5
5
5
5
5
5
5
5
5
5
5
5
5
5
5
5
5
5
5
5
5
5
5
5
5
5
5
5
5
5
5
5
5
5
5
5
5
5
5
5
5
5
5
5
5
5
5
5
5
5
5
5
5
5
5
5
5
5
5
5
5
5
5
5
5
5
5
5
5
5
5
5
5
5
5
5
5
5
5
5
5
5
5
5
5
5
5
5
5
5
5
5
5
5
5
5
5
5
5
5
5
5
5
5
5
5
5
5
5
5
5
5
5
5
5
5
5
5
5
5
5
5
5
5
5
5
5
5
5
5
5
5
5
5
5
5
5
5
5
5
5
5
5
5
5
5
5
5
5
5
5
5
5
5
5
5
5
5
5
5
5
5
5
5
5
5
5
5
5
5
5
5
5
5
5
5
5
5
5
5
5
5
5
5
5
5
5
5
5
5
5
5
5
5
5
5
5
5
5
5
5
5
5
5
5
5
5
5
5
5
5
5
5
5
5
5
5
5
5
5
5
5
5
5
5
5
5
5
5
5
5
5
5
5
5
5
5
5
5
5
5
5
5
5
5
5
5
5
5
5
5
5
5
5
5
5
5
5
5
5
5
5
5
5
5
5
5
5
5
5
5
5
5
5
5
5
5
5
5
5
5
5
5
5
5
5
5
5
5
5
5
5
5
5
5
5
5
5
5
5
5
5
5
5
5
5
5
5
5
5
5
5
5
5
5
5
5
5
5
5
5
5
5
5
5
5
5
5
5
5
5
5
5
5
5
5
5
5
5
5
5
5
5
5
5
5
5
5
5
5
5
5
5
5
5
5
5
5
5
5
5
5
5
5
5
5
5
5
5
5
5
5
5
5
5
5
5
5
5
5
5
5
5
5
5
5
5
5
5
5
5
5
5
5
5
5
5
5
5
5
5
5
5
5
5
5
5
5
5
5
5
5
5
5
5
5
5
5
5
5
5
5
5
5
5
5
5
5
5
5
5
5
5
5
5
5
5
5
5
5
5
5
5
5
5
5
5
5
5
5
5
5
5
5
5
5
5
5
5
5
5
5
5
5
5
5
5
5
5
5
5
5
5
5
5
5
5
5
5
5
5
5
5
5
5
5
5
5
5
5
5
5
5
5
5
5
5
5
5
5
5
5
5
5
5
5
5
5
5
5
5
5
5
5
5
5
5
5
5
5
5
5
5
5
5
5
5
5
5
5
5
5
5
5
5
5
5
5
5
5
5
5
5
5
5
5
5
5
5
5
5
5
5
5
5
5
5
5
5
5
5
5
5
5
5
5
5
5
5
5
5
5
5
5
5
5
5
5
5
5
5
5
5
5
5
5
5
5
5
5
5
5
5
5
5
5
5
5
5
5
5
5
5
5
5
5
5
5
5
5
5
5
5
5
5
5
5
5
5
5
5
5
5
5
5
5
5
5
5
5
5
5
5
5
5
5
5
5
5
5
5
5
5
5
5
5
5
5
5
5
5
5
5
5
5
5
5
5
5
5
5
5
5
5
5
5
5
5
5
5
5
5
5
5
5
5
5
5
5
5
5
5
5
5
5
5
5
5
5
5
5
5
5
5
5
5
5
5
5
5
5
5
5
5
5
5
5
5
5
5
5
5
5
5
5
5
5
5
5
5
5
5
5
5
5
5
5
5
5
5
5
5
5
5
5
5
5
5
5
5
5
5
5
5
5
5
5
5
5
5
5
5
5
5
5
5
5
5
5
5
5
5
5
5
5
5
5
5
5
5
5
5
5
5
5
5
5
5
5
5
5
5
5
5
5
5
5
5
5
5
5
5
5
5
5
5
5
5
5
5
5
5
5
5
5
5
5
5
5
5
5
5
5
5
5
5
5
5
5
5
5
5
5
5
5
5
5
5
5
5
5
5
5
5
5
5
5
10
10
10
10
10
10
10
10
10
10
10
10
10
10
10
10
10
10
10
10
10
10
10
10
10
10
10
10
10
10
10
10
10
10
10
10
10
10
10
10
10
10
10
10
10
10
10
10
10
10
10
10
10
10
10
10
10
10
10
10
10
10
10
10
10
10
10
10
10
10
10
10
10
10
10
10
10
10
10
10
10
10
10
10
10
10
10
10
10
10
10
10
10
10
10
10
10
10
10
10
10
10
10
10
10
10
10
10
10
10
10
10
10
10
10
10
10
10
10
10
10
10
10
10
10
10
10
10
10
10
10
10
10
10
10
10
10
10
10
10
10
10
10
10
10
10
10
10
10
10
10
10
10
10
10
10
10
10
10
10
10
10
10
10
10
10
10
10
10
10
10
10
10
10
10
10
10
10
10
10
10
10
10
10
10
10
10
10
10
10
10
10
10
10
10
10
10
10
10
10
10
10
10
10
10
10
10
10
10
10
10
10
10
10
10
10
10
10
10
10
10
10
10
10
10
10
10
10
10
10
10
10
10
10
10
10
10
10
10
10
10
10
10
10
10
10
10
10
10
10
10
10
10
10
10
10
10
10
10
10
10
10
10
10
10
10
10
10
10
10
10
10
10
10
10
10
10
10
10
10
10
10
10
10
10
10
10
10
10
10
10
10
10
10
10
10
10
10
10
10
10
10
10
10
10
10
10
10
10
10
10
10
10
10
10
10
10
10
10
10
10
10
10
10
10
10
10
10
10
10
10
10
10
10
10
10
10
10
10
10
10
10
10
10
10
10
10
10
10
10
10
10
10
10
10
10
10
10
10
10
10
10
10
10
10
10
10
10
10
10
10
10
10
10
10
10
10
10
10
10
10
10
10
10
10
10
10
10
10
10
10
10
10
10
10
10
10
10
10
10
10
10
10
10
10
10
10
10
10
10
10
10
10
10
10
10
10
10
10
10
10
10
10
10
10
10
10
10
10
10
10
10
10
10
10
10
10
10
10
10
10
10
10
10
10
10
10
10
10
10
10
10
10
10
10
10
10
10
10
10
10
10
10
10
10
10
10
10
10
10
10
10
10
10
10
10
10
10
10
10
10
10
10
10
10
10
10
10
10
10
10
10
10
10
10
10
10
10
10
10
10
10
10
10
10
10
10
10
10
10
10
10
10
10
10
10
10
10
10
10
10
10
10
10
10
10
10
10
10
10
10
10
10
10
10
10
10
10
10
10
10
10
10
10
10
10
10
10
10
10
10
10
10
10
10
10
10
10
10
10
10
10
10
10
10
10
10
10
10
10
10
10
10
10
10
10
10
10
10
10
10
10
10
10
10
10
10
10
10
10
10
10
10
10
10
10
10
10
10
10
10
10
10
10
10
10
10
10
10
10
10
10
10
10
10
10
10
10
10
10
10
10
10
10
10
10
10
10
10
10
10
10
10
10
10
10
10
10
10
10
10
10
10
10
10
10
10
10
10
10
10
10
10
10
10
10
10
10
10
10
10
10
10
10
10
10
10
10
10
10
10
10
10
10
10
10
10
10
10
10
10
10
10
10
10
10
10
10
10
10
10
10
10
10
10
10
10
10
10
10
10
10
10
10
10
10
10
10
10
10
10
10
10
10
10
10
10
10
10
10
10
10
10
10
10
10
10
10
10
10
10
10
10
10
10
10
10
10
10
10
10
10
10
10
10
10
10
10
10
10
10
10
10
10
10
10
10
10
10
10
10
10
10
10
10
10
10
10
10
10
10
10
10
10
10
10
10
10
10
10
10
10
10
10
10
10
10
10
10
10
10
10
10
10
10
10
10
10
10
10
10
10
10
10
10
10
10
10
10
10
10
10
10
10
10
10
10
10
10
10
10
10
10
10
10
10
10
10
10
10
10
10
10
10
10
10
10
10
10
10
10
10
10
10
10
10
10
10
10
10
10
10
10
10
10
10
10
10
10
10
10
10
10
10
10
10
10
10
10
10
10
10
10
10
10
10
10
10
10
10
10
10
10
10
10
10
10
10
10
10
10
10
10
10
10
10
10
10
10
10
10
10
10
10
10
10
10
10
10
10
10
10
10
10
10
10
10
10
10
10
10
10
10
10
10
10
10
10
10
10
10
10
10
10
10
10
10
10
10
10
10
10
10
10
10
10
10
10
10
10
10
10
10
10
10
10
10
10
10
10
10
10
10
10
10
10
10
10
10
10
10
10
10
10
10
10
10
10
10
10
10
10
10
10
10
10
10
10
10
10
10
10
10
10
10
10
10
10
10
10
10
10
10
10
10
10
10
10
10
10
10
10
10
10
10
10
10
10
10
10
10
10
10
10
10
10
10
10
10
10
10
10
10
10
10
10
10
10
10
10
10
10
10
10
10
10
10
10
10
10
10
10
10
10
10
10
10
10
10
10
10
10
10
10
10
10
10
10
10
10
10
10
10
10
10
10
10
10
10
10
10
10
10
10
10
10
10
10
10
10
10
10
10
10
10
10
10
10
10
10
10
10
10
10
10
10
10
10
10
10
10
10
10
10
10
10
10
10
10
10
10
10
10
10
10
10
10
10
10
10
10
10
10
10
10
10
10
10
10
10
10
10
10
10
10
10
10
10
10
10
10
10
10
10
10
10
10
10
10
10
10
10
10
10
10
10
10
10
10
10
10
10
10
10
10
10
10
10
10
10
10
10
10
10
10
10
10
10
10
10
10
10
10
10
10
10
10
10
10
10
10
10
10
10
10
10
10
10
10
10
10
10
10
10
10
10
10
10
10
10
10
10
10
10
10
10
10
10
10
10
10
10
10
10
10
10
10
10
10
10
10
10
10
10
10
10
10
10
10
10
10
10
10
10
10
10
10
10
10
10
10
10
10
10
10
10
10
10
10
10
10
10
10
10
10
10
10
10
10
10
10
10
10
10
10
10
10
10
10
10
10
10
10
10
10
10
10
10
10
10
10
10
10
10
10
10
10
10
10
10
10
10
10
10
10
10
10
10
10
10
10
10
10
10
10
10
10
10
10
10
10
10
10
10
10
10
10
10
10
10
10
10
10
10
10
10
10
10
10
10
10
10
10
10
10
10
10
10
10
10
10
10
10
10
10
10
10
10
10
10
10
10
10
10
10
10
10
10
10
10
10
10
10
10
10
10
10
10
10
10
10
10
10
10
10
10
10
10
10
10
10
10
10
10
10
10
10
10
10
10
10
10
10
10
10
10
10
10
10
10
10
10
10
10
10
10
10
10
10
10
10
10
