# vtk DataFile Version 2.0
, Created by Gmsh 4.11.1 
ASCII
DATASET UNSTRUCTURED_GRID
POINTS 637 double
8.75 0 -44.19641298499991
13.18966194507641 0 -41.40306137483758
13.18966194507641 0 -38.59693862516243
8.75 0 -35.8035870150001
8.75 0 -3
11.75 0 -3
11.75 0 0
-11.75 0 0
-11.75 0 -3
-8.75 0 -3
-8.75 1.071565949253934e-15 -35.8035870150001
-13.18966194507641 1.615267728287348e-15 -38.59693862516243
-13.18966194507641 1.615267728287348e-15 -41.40306137483758
-8.75 1.071565949253934e-15 -44.19641298499991
-8.75 1.071565949253934e-15 -75.80358701500009
-13.18966194507641 1.615267728287348e-15 -78.59693862516242
-13.18966194507641 1.615267728287348e-15 -81.40306137483758
-8.75 1.071565949253934e-15 -84.19641298499991
-8.75 0 -120
8.75 0 -120
8.75 0 -84.19641298499991
13.18966194507641 0 -81.40306137483758
13.18966194507641 0 -78.59693862516242
8.75 0 -75.80358701500009
-8.75 9.766179693080774 -41.45153561335651
8.75 9.766179693080774 -41.45153561335651
8.75 9.766179693080733 -38.5484643866435
-8.75 9.766179693080767 -38.54846438664349
8.75 20 -3
8.75 20 -34.34265540760985
11.75 23 -3
-11.75 23 -3
-8.75 20 -3
11.75 23 0
-11.75 23 0
-8.75 20 -34.34265540760985
-8.75 20 -45.65734459239015
-8.75 20 -74.34265540760984
-8.75 9.766179693080733 -78.5484643866435
8.75 9.766179693080733 -78.5484643866435
-8.75 9.766179693080751 -81.45153561335651
8.75 9.766179693080751 -81.45153561335651
-8.75 20 -85.65734459239016
-8.75 20 -114.3426554076098
-8.75 6.234218372384402 -120
8.75 6.234218372384402 -120
8.75 20 -85.65734459239016
8.75 20 -114.3426554076098
8.75 20 -45.65734459239015
8.75 20 -74.34265540760984
4.733459017946621 2.253424963806612 -84.19641298499991
-4.733459017946621 2.253424963806613 -84.19641298499991
9.416256050659054 2.253424963806612 -81.40306137483756
-9.416256050659054 2.253424963806615 -81.40306137483756
9.416256050659054 2.253424963806612 -78.59693862516244
4.733459017946621 2.253424963806612 -75.80358701500009
-4.733459017946621 2.253424963806613 -75.80358701500009
-9.416256050659054 2.253424963806615 -78.59693862516244
4.733459017946621 2.253424963806612 -44.19641298499991
-4.733459017946621 2.253424963806613 -44.19641298499991
9.416256050659054 2.253424963806612 -41.40306137483757
-9.416256050659054 2.253424963806615 -41.40306137483757
9.416256050659054 2.253424963806612 -38.59693862516243
4.733459017946621 2.253424963806612 -35.80358701500009
-4.733459017946621 2.253424963806613 -35.80358701500009
-9.416256050659054 2.253424963806615 -38.59693862516243
10.9698309725382 0 -42.79973717991874
10.9698309725382 0 -37.20026282008126
8.75 0 -29.24286961200006
8.75 0 -22.68215220900002
8.75 0 -16.12143480600001
8.75 0 -9.560717403000002
5.875000000000016 0 0
3.730349362740526e-14 0 0
-5.874999999999972 0 0
-8.75 0 -9.560717403000027
-8.75 0 -16.12143480600005
-8.75 0 -22.68215220900006
-8.75 0 -29.24286961200007
-10.9698309725382 1.343416838770641e-15 -37.20026282008126
-10.9698309725382 1.343416838770641e-15 -42.79973717991874
-8.75 0 -50.51784779099995
-8.75 0 -56.83928259700001
-8.75 0 -63.16071740300005
-8.75 0 -69.48215220900006
-10.9698309725382 1.343416838770641e-15 -77.20026282008126
-10.9698309725382 1.343416838770641e-15 -82.79973717991874
-8.75 0 -90.16367748749992
-8.75 0 -96.13094198999994
-8.75 0 -102.0982064925
-8.75 0 -108.065470995
-8.75 0 -114.0327354975
2.916666666666666 0 -120
-2.916666666666668 0 -120
8.75 0 -90.16367748749992
8.75 0 -96.13094198999994
8.75 0 -102.0982064925
8.75 0 -108.065470995
8.75 0 -114.0327354975
10.9698309725382 0 -82.79973717991874
10.9698309725382 0 -77.20026282008126
8.75 0 -50.51784779099995
8.75 0 -56.83928259700001
8.75 0 -63.16071740300005
8.75 0 -69.48215220900006
12.74023511277141 3.41373570984973 -41.40306137483758
11.42258231176505 6.594830972538198 -41.40306137483758
9.326499402921682 9.326499402921673 -41.40306137483758
6.594830972538209 11.42258231176504 -41.40306137483758
3.413735709849752 12.7402351127714 -41.40306137483758
3.595195317241421e-14 13.18966194507641 -41.40306137483758
-3.413735709849683 12.74023511277142 -41.40306137483758
-6.594830972538146 11.42258231176507 -41.40306137483758
-9.326499402921643 9.326499402921712 -41.40306137483758
-11.42258231176502 6.594830972538234 -41.40306137483758
-12.7402351127714 3.413735709849753 -41.40306137483758
-8.749999999999998 7.238666207228847 -42.55671004874048
-8.749999999999998 5.023431319555761 -43.35364503952101
-8.749999999999998 2.420779213637236 -43.98960535755249
5.924465247489517 10.87780482400138 -41.90838191480899
3.021217381642474 11.55546124664236 -42.18687942420109
3.152475003672693e-15 11.79041735103409 -42.28343969826231
-3.021217381642467 11.55546124664236 -42.18687942420109
-5.92446524748951 10.87780482400138 -41.90838191480899
8.750000000000002 7.238666207228848 -42.55671004874048
8.750000000000002 5.023431319555762 -43.353645039521
8.750000000000002 2.420779213637236 -43.98960535755249
12.74023511277141 3.41373570984973 -38.59693862516243
11.42258231176505 6.594830972538198 -38.59693862516243
9.326499402921682 9.326499402921673 -38.59693862516243
6.594830972538209 11.42258231176504 -38.59693862516243
3.413735709849752 12.7402351127714 -38.59693862516243
3.595195317241421e-14 13.18966194507641 -38.59693862516243
-3.413735709849683 12.74023511277142 -38.59693862516243
-6.594830972538146 11.42258231176507 -38.59693862516243
-9.326499402921643 9.326499402921712 -38.59693862516243
-11.42258231176502 6.594830972538234 -38.59693862516243
-12.7402351127714 3.413735709849753 -38.59693862516243
8.750000000000002 2.420779213637225 -36.01039464244752
8.750000000000002 5.023431319555739 -36.646354960479
8.750000000000002 7.23866620722882 -37.44328995125952
-5.924465247489514 10.87780482400138 -38.09161808519102
-3.021217381642472 11.55546124664236 -37.81312057579892
-3.152475003672692e-15 11.79041735103409 -37.71656030173769
3.021217381642466 11.55546124664236 -37.81312057579892
5.924465247489518 10.87780482400138 -38.09161808519102
-8.749999999999998 2.420779213637232 -36.01039464244752
-8.749999999999998 5.023431319555753 -36.646354960479
-8.749999999999998 7.238666207228839 -37.44328995125952
8.75 6.666666666666651 -3
8.75 13.33333333333329 -3
8.75 20 -28.07412432608788
8.75 20 -21.80559324456591
8.75 20 -15.53706216304395
8.75 20 -9.268531081521978
8.75 14.88308984654037 -36.44555989712668
-5.875000000000016 23 -3
-3.730349362740526e-14 23 -3
5.874999999999972 23 -3
-11.75 5.749999999999988 -3
-11.75 11.49999999999999 -3
-11.75 17.24999999999999 -3
-8.75 13.33333333333335 -3
-8.75 6.666666666666705 -3
-2.916666666666666 20 -3
2.916666666666668 20 -3
11.75 5.749999999999988 -3
11.75 11.49999999999999 -3
11.75 17.24999999999999 -3
11.75 5.749999999999988 0
11.75 11.49999999999999 0
11.75 17.24999999999999 0
-5.875000000000016 23 0
-3.730349362740526e-14 23 0
5.874999999999972 23 0
-11.75 5.749999999999988 0
-11.75 11.49999999999999 0
-11.75 17.24999999999999 0
-8.75 20 -9.268531081521967
-8.75 20 -15.53706216304393
-8.75 20 -21.8055932445659
-8.75 20 -28.07412432608787
-8.75 14.88308984654039 -36.44555989712667
-8.75 14.88308984654039 -43.55444010287334
-8.75 20 -68.60559324456591
-8.75 20 -62.86853108152197
-8.75 20 -57.13146891847803
-8.75 20 -51.39440675543408
-8.75 14.88308984654037 -76.44555989712667
-8.749999999999998 2.420779213637227 -76.01039464244752
-8.749999999999998 5.02343131955574 -76.64635496047902
-8.749999999999998 7.23866620722882 -77.44328995125953
8.750000000000002 2.420779213637224 -76.01039464244754
8.750000000000002 5.023431319555737 -76.64635496047902
8.750000000000002 7.238666207228818 -77.44328995125953
-5.924465247489517 10.87780482400136 -78.09161808519102
-3.021217381642479 11.55546124664233 -77.81312057579892
-3.152475003672688e-15 11.79041735103407 -77.71656030173769
3.021217381642462 11.55546124664233 -77.81312057579892
5.92446524748951 10.87780482400136 -78.09161808519102
12.74023511277141 3.41373570984973 -78.59693862516244
11.42258231176505 6.594830972538198 -78.59693862516244
9.326499402921682 9.326499402921673 -78.59693862516244
6.594830972538209 11.42258231176504 -78.59693862516244
3.413735709849752 12.7402351127714 -78.59693862516244
3.595195317241421e-14 13.18966194507641 -78.59693862516244
-3.413735709849683 12.74023511277142 -78.59693862516244
-6.594830972538146 11.42258231176507 -78.59693862516244
-9.326499402921643 9.326499402921712 -78.59693862516244
-11.42258231176502 6.594830972538234 -78.59693862516244
-12.7402351127714 3.413735709849753 -78.59693862516244
12.74023511277141 3.41373570984973 -81.40306137483758
11.42258231176505 6.594830972538198 -81.40306137483758
9.326499402921682 9.326499402921673 -81.40306137483758
6.594830972538209 11.42258231176504 -81.40306137483758
3.413735709849752 12.7402351127714 -81.40306137483758
3.595195317241421e-14 13.18966194507641 -81.40306137483758
-3.413735709849683 12.74023511277142 -81.40306137483758
-6.594830972538146 11.42258231176507 -81.40306137483758
-9.326499402921643 9.326499402921712 -81.40306137483758
-11.42258231176502 6.594830972538234 -81.40306137483758
-12.7402351127714 3.413735709849753 -81.40306137483758
-8.749999999999998 7.23866620722883 -82.55671004874048
-8.749999999999998 5.023431319555749 -83.353645039521
-8.749999999999998 2.42077921363723 -83.98960535755249
5.924465247489517 10.87780482400136 -81.90838191480898
3.021217381642479 11.55546124664233 -82.18687942420109
3.152475003672688e-15 11.79041735103407 -82.28343969826233
-3.021217381642462 11.55546124664233 -82.18687942420109
-5.92446524748951 10.87780482400136 -81.908381914809
8.750000000000002 7.23866620722883 -82.55671004874048
8.750000000000002 5.023431319555748 -83.353645039521
8.750000000000002 2.420779213637229 -83.98960535755248
-8.75 14.88308984654038 -83.55444010287334
-8.75 20 -108.6055932445659
-8.75 20 -102.868531081522
-8.75 20 -97.13146891847802
-8.75 20 -91.39440675543409
-8.75 10.82281224825626 -118.1142184692033
-8.75 15.41140612412813 -116.2284369384066
2.916666666666666 6.234218372384402 -120
-2.916666666666668 6.234218372384402 -120
8.75 14.88308984654038 -83.55444010287334
8.75 20 -108.6055932445659
8.75 20 -102.868531081522
8.75 20 -97.13146891847802
8.75 20 -91.39440675543409
8.75 10.82281224825626 -118.1142184692033
8.75 15.41140612412813 -116.2284369384066
8.75 14.88308984654039 -43.55444010287334
8.75 20 -68.60559324456591
8.75 20 -62.86853108152197
8.75 20 -57.13146891847803
8.75 20 -51.39440675543408
8.75 14.88308984654037 -76.44555989712667
2.916666666666666 20 -45.65734459239015
-2.916666666666668 20 -45.65734459239015
2.916666666666666 20 -34.34265540760985
-2.916666666666668 20 -34.34265540760985
2.916666666666666 20 -74.34265540760984
-2.916666666666668 20 -74.34265540760984
2.916666666666666 20 -85.65734459239016
-2.916666666666668 20 -85.65734459239016
2.916666666666666 20 -114.3426554076098
-2.916666666666668 20 -114.3426554076098
1.922583009955606 4.877215692576766 -84.19641298499991
-1.922583009955591 4.877215692576772 -84.19641298499991
7.105427357601002e-15 2.253424963806612 -84.19641298499991
7.085131753966579 2.253424963806612 -82.81701190299964
5.996908784059069 7.601374028079086 -81.40306137483758
-1.557006589908902e-15 9.682138300968443 -81.40306137483758
-5.996908784059065 7.601374028079089 -81.40306137483758
-7.085131753966582 2.253424963806612 -82.81701190299964
7.085131753966582 2.253424963806612 -77.18298809700036
-1.06581410364015e-14 2.253424963806612 -75.80358701500009
-7.085131753966579 2.253424963806612 -77.18298809700036
5.996908784059069 7.601374028079086 -78.59693862516244
-1.557006589908902e-15 9.682138300968443 -78.59693862516244
-5.996908784059065 7.601374028079089 -78.59693862516244
1.922583009955606 4.877215692576766 -75.80358701500009
-1.922583009955591 4.877215692576772 -75.80358701500009
1.922583009955606 4.877215692576766 -44.19641298499991
-1.922583009955591 4.877215692576772 -44.19641298499991
7.105427357601002e-15 2.253424963806612 -44.19641298499991
7.085131753966579 2.253424963806612 -42.81701190299964
5.996908784059069 7.601374028079086 -41.40306137483758
-1.557006589908902e-15 9.682138300968443 -41.40306137483758
-5.996908784059065 7.601374028079089 -41.40306137483758
-7.085131753966582 2.253424963806612 -42.81701190299964
7.085131753966582 2.253424963806612 -37.18298809700036
-1.06581410364015e-14 2.253424963806612 -35.80358701500009
-7.085131753966579 2.253424963806612 -37.18298809700036
5.996908784059069 7.601374028079086 -38.59693862516243
-1.557006589908902e-15 9.682138300968443 -38.59693862516243
-5.996908784059065 7.601374028079089 -38.59693862516243
1.922583009955606 4.877215692576766 -35.8035870150001
-1.922583009955591 4.877215692576772 -35.8035870150001
-4.844352690953755 0 -85.67151681520801
4.434069723922479 0 -72.58968140549862
4.981511094838616 0 -47.87080102839232
-4.48868904646349 0 -32.52322831350008
4.01324997219683 0 -77.70959178790011
-4.896122071486772 0 -37.303239447636
-9.365561264914856 0 -80.51904873203083
0 0 -115.5884075997122
4.202886195889123 0 -105.1429432810777
8.937810098146278 0 -39.82809408578965
-9.364083263542469 0 -39.97913388411892
-3.275476869636826 0 -60.00000000000003
-2.827006596220302 0 -4.131341354979092
-3.068252061951325 0 -19.40179350750006
4.549425602285931 0 -87.0923238692162
-4.436125333306768 0 -72.63399126347105
-4.99460701425212 0 -48.08468652104891
4.488689046463474 0 -32.52322831350008
-3.582197349733871 0 -99.11457424124997
3.068252061951327 0 -12.8410761045
3.680676926259471 0 -5.697653812007935
9.296428283555642 0 -80.00099508155411
-4.629697444876527 0 -78.85095935085671
3.580486354164675 0 -42.95637089778607
3.06825206195131 0 -25.96251091050004
3.584482660308507 0 -53.19373144686538
2.839788580537633 0 -66.08096690430797
2.638175464650298 0 -93.41143923588587
-3.275476869636806 0 -53.67856519399999
-3.728635603734325 0 -66.94955002694971
3.13702061864993 0 -59.57199122601881
4.113650412390262 0 -19.40179350750003
-4.010090742452363 0 -12.15404144224979
-3.664781507743918 0 -26.64558117272486
3.582197349733871 0 -99.11457424124998
-1.899587686301553 0 -105.0905679633682
-3.881395762672886 0 -92.2681371421798
0.3311908693456935 0 -82.53992124905514
-3.759739962086364 0 -111.2463691219313
3.464088310853272 0 -110.8697221447723
-3.730144651072667 0 -42.6250170665805
5.145525092774605 0 -82.30514038597016
1.580253716218937 0 -36.70296220295516
-0.1231588283004763 0 -88.64728256235446
-0.7226212546350093 0 -8.46479984122756
-0.2546096025329554 0 -70.71589568811366
0.1967448540852628 0 -30.87150218263604
0.0243752623917004 0 -48.0681953591122
-4.589667105704326 0 -115.8351800721863
4.602692225300594 0 -115.8553518763232
-0.3821453800837951 0 -75.32528884034096
-5.011943718661534 0 -7.462180008291291
10.92645645973476 1.383640834903367 -42.7721263305558
-10.92645645973301 1.383640834909298 -42.77212633055643
-1.622220099227184 12.33340941047717 -41.87496250158085
10.68961513307396 4.427783564667905 -42.42189812448415
-10.68961513306132 4.4277835646627 -42.42189812449275
-13.0768225587037 1.721596350360548 -40.00269799034632
-12.18565871179909 5.04746510487707 -39.99730200965369
-8.029357453826616 10.46406236143859 -39.99730200965369
-10.46406236143854 8.029357453826687 -40.00269799034632
10.46406236143856 8.029357453826652 -39.99730200965369
8.029357453826659 10.46406236143856 -40.00269799034632
12.1856587117991 5.047465104877042 -40.00269799034632
5.047465104877057 12.1856587117991 -40.00269799034632
-5.047465104876994 12.18565871179912 -40.00269799034632
13.07684485372411 1.721426994393372 -40
-1.721596350360499 13.07682255870371 -39.99730200965369
1.721596350360568 13.0768225587037 -40.00269799034632
10.92645645973511 1.383640834902479 -37.22787366944434
-10.9340734721052 1.356552666860445 -37.23050915666715
-1.622220099227207 12.33340941047717 -38.12503749841915
1.622220099227207 12.33340941047462 -38.12503749841756
10.68961513307609 4.427783564668792 -37.57810187551731
-10.76352325929168 4.45839731291689 -37.62843484452756
8.750000000000002 7.225675104450522 -34.25704411527214
8.750000000000002 14.80625625002576 -18.91481630503662
8.750000000000002 4.848948489408259 -25.83645646747647
8.750000000000002 5.063691390558034 -12.86858036358415
8.750000000000002 4.934598617023598 -19.38536847684345
8.750000000000002 14.87474917779931 -25.24826763885431
8.750000000000002 14.79526506624455 -12.50158683796286
8.750000000000002 15.09867636388289 -31.31364489239726
8.750000000000002 9.994736912466427 -8.603578228206903
8.750000000000002 4.015540040347569 -32.07350087261676
8.750000000000002 10.66254656110596 -34.55535303919763
8.750000000000002 9.900419909833547 -15.82601373677234
8.750000000000002 4.642719801481754 -7.646675152483432
8.750000000000002 9.50487242281106 -29.42377417640208
8.750000000000002 9.811640811150255 -22.43911613356421
8.750000000000002 15.62466706240885 -7.274739229538348
10.25 3.10416666666666 -3
-10.25 3.104166666666674 -3
11.75 20.125 -1.5
11.75 8.624999999999988 -1.5
11.75 14.37499999999999 -1.500000000000001
11.75 2.874999999999994 -1.5
3.157610638484556 18.22886740495932 0
-2.707174061168084 4.878797530676509 0
7.069955745470663 8.71654637064 0
-6.619519168154191 14.39111856499582 0
7.102873022115112 14.37499999999999 0
0.1126091443291184 11.52691623390895 0
-7.000954855602266 8.644857627020135 0
-2.792058517349995 18.15992185565015 0
2.948495529093417 4.721447277005962 0
-7.528051718759411 18.81262893003678 0
7.528051718759418 4.187371069963204 0
7.820492259183634 19.07601590637069 0
-7.553981076842906 4.160878030182233 0
-11.75 20.125 -1.5
-11.75 14.37499999999999 -1.5
-11.75 8.624999999999988 -1.5
-11.75 2.874999999999994 -1.5
-8.749999999999998 7.225675104450534 -34.25704411527215
-8.749999999999998 14.80625625002575 -18.91481630503663
-8.749999999999998 4.848948489408256 -25.83645646747649
-8.749999999999998 5.063691390558043 -12.86858036358417
-8.749999999999998 4.934598617023594 -19.38536847684349
-8.749999999999998 14.8747491777993 -25.24826763885432
-8.749999999999998 14.79526506624455 -12.50158683796285
-8.749999999999998 15.0986763638829 -31.31364489239727
-8.749999999999998 9.994736912466463 -8.603578228206894
-8.749999999999998 4.015540040347578 -32.07350087261677
-8.749999999999998 10.66254656110597 -34.55535303919763
-8.749999999999998 9.90041990983355 -15.82601373677235
-8.749999999999998 4.642719801481771 -7.646675152483441
-8.749999999999998 9.504872422811061 -29.4237741764021
-8.749999999999998 9.811640811150253 -22.43911613356423
-8.749999999999998 15.62466706240887 -7.274739229538344
-8.749999999999998 7.138758242580145 -46.44510381833362
-8.749999999999998 8.765126448548427 -75.11742645364421
-8.749999999999998 15.21129013311895 -59.99999999999999
-8.749999999999998 5.474523130363166 -66.32143480600006
-8.749999999999998 5.379560717631401 -52.56231006387115
-8.749999999999998 10.87257049689436 -50.6235126470413
-8.749999999999998 11.82249159097848 -69.85598551144759
-8.749999999999998 5.227959768942907 -59.81395747831187
-8.749999999999998 15.50089344772407 -65.97395092542092
-8.749999999999998 15.3921174378562 -54.01120992937643
-8.749999999999998 3.856900033906421 -71.76490401490902
-8.749999999999998 2.964314676666505 -47.15637903811415
-8.749999999999998 10.98521185010282 -45.4526051285921
-8.749999999999998 10.58233257565984 -63.13314523921304
-8.749999999999998 10.44430518835061 -56.6906892263023
-8.749999999999998 15.35549827189896 -48.44891985928457
-8.749999999999998 16.44129497704859 -71.04474899723418
10.92645645973483 1.383640834903265 -77.22787366944424
-10.93407347210574 1.356552666858953 -77.23050915666738
-1.62222009922724 12.33340941047715 -78.12503749841915
1.622220099227231 12.33340941047461 -78.12503749841756
-10.76352325929626 4.458397312918776 -77.62843484453069
10.68961513307406 4.42778356466795 -77.57810187551593
-12.18565871179909 5.04746510487707 -79.99730200965369
-10.46406236143854 8.029357453826687 -80.00269799034632
-13.0768225587037 1.72159635036056 -79.99730200965369
8.029357453826659 10.46406236143856 -80.00269799034632
-8.029357453826611 10.46406236143859 -80.00269799034632
-1.721596350360499 13.07682255870371 -79.99730200965369
-5.047307289950438 12.1857240796848 -80
1.721596350360568 13.0768225587037 -79.99730200965369
10.46406236143856 8.029357453826652 -80.00269799034632
12.18565871179911 5.047465104877041 -80.00269799034632
13.07684485372411 1.721426994393371 -80
5.047622918957059 12.18559334186958 -80
10.92645645973462 1.383640834903828 -82.77212633055585
-10.9264564597328 1.383640834909868 -82.77212633055652
-1.622220099227195 12.33340941047717 -81.87496250158085
10.68961513307286 4.427783564667453 -82.4218981244849
-10.68961513305983 4.427783564662083 -82.42189812449377
-8.749999999999998 7.10019269340338 -86.3568554740106
-8.749999999999998 11.21581942560816 -113.2543717924028
-8.749999999999998 15.04659450663175 -99.78918434315476
-8.749999999999998 5.064882185866501 -105.0606247345643
-8.749999999999998 5.293514534391416 -92.14105058176624
-8.749999999999998 10.81451810978665 -90.42244108079041
-8.749999999999998 5.185230836117723 -111.3980845288503
-8.749999999999998 5.103194190803245 -99.02720407405867
-8.749999999999998 15.03155842371345 -105.7370621630439
-8.749999999999998 16.13931712348897 -111.4741243260879
-8.749999999999998 15.31463592046877 -93.82640846368083
-8.749999999999998 2.94182054219853 -86.91417880076726
-8.749999999999998 10.9687198656702 -85.40533166899985
-8.749999999999998 7.315038013711749 -115.9723280144299
-8.749999999999998 10.24067511628736 -96.21741583932514
-8.749999999999998 10.0135492777749 -102.2326738159508
-8.749999999999998 10.29697165562935 -108.1055234909185
-8.749999999999998 15.33016062374433 -88.37672877736145
-8.749999999999998 3.346623857566316 -116.7981957213662
-5.52964042759961 3.117109186192199 -120
5.529640427599611 3.1171091861922 -120
0 3.1171091861922 -120
8.750000000000002 7.100192693403379 -86.3568554740106
8.750000000000002 11.21581942560816 -113.2543717924028
8.750000000000002 15.04659450663175 -99.78918434315476
8.750000000000002 5.064882185866501 -105.0606247345643
8.750000000000002 5.293514534391415 -92.14105058176624
8.750000000000002 10.81451810978665 -90.42244108079041
8.750000000000002 5.185230836117723 -111.3980845288503
8.750000000000002 5.103194190803245 -99.02720407405867
8.750000000000002 15.03155842371345 -105.7370621630439
8.750000000000002 16.13931712348897 -111.4741243260879
8.750000000000002 15.31463592046877 -93.82640846368083
8.750000000000002 2.94182054219853 -86.91417880076727
8.750000000000002 10.9687198656702 -85.40533166899985
8.750000000000002 7.315038013711749 -115.9723280144299
8.750000000000002 10.24067511628735 -96.21741583932514
8.750000000000002 10.0135492777749 -102.2326738159508
8.750000000000002 10.29697165562935 -108.1055234909185
8.750000000000002 15.33016062374433 -88.37672877736145
8.750000000000002 3.346623857566316 -116.7981957213662
8.750000000000002 7.138758242580144 -46.44510381833361
8.750000000000002 8.765126448548425 -75.11742645364421
8.750000000000002 15.21129013311895 -59.99999999999999
8.750000000000002 5.379560717631399 -52.56231006387115
8.750000000000002 5.474523130363166 -66.32143480600006
8.750000000000002 10.87257049689436 -50.6235126470413
8.750000000000002 11.82249159097847 -69.85598551144759
8.750000000000002 5.227959768942906 -59.81395747831187
8.750000000000002 15.50089344772407 -65.97395092542092
8.750000000000002 15.3921174378562 -54.01120992937643
8.750000000000002 2.964314676666501 -47.15637903811414
8.750000000000002 3.85690003390642 -71.76490401490902
8.750000000000002 10.98521185010282 -45.4526051285921
8.750000000000002 10.58233257565984 -63.13314523921304
8.750000000000002 10.44430518835061 -56.6906892263023
8.750000000000002 15.35549827189896 -48.44891985928457
8.750000000000002 16.44129497704858 -71.04474899723418
-1.882875219504271 14.40545496017166 -43.35814575398476
5.061204552263156 13.87227906736602 -43.13902563167325
-5.20753741921715 15.2869684795593 -43.72042273010808
1.718982863962099 15.58073679264062 -43.84115314864763
5.551931535651227 17.03131365044106 -44.43729896617686
-1.7292354849543 14.07797848101343 -36.77643776176593
3.633296746251835 13.43771611208363 -37.03956737899808
4.855342084947267 16.75455346945397 -35.67644159397813
-5.536475537905243 17.24026708188845 -35.47682711852807
-1.77635683940025e-15 20 -29.4153563329005
0 20 -7.927299074709346
-3.321292838989636 20 -18.67132770380492
3.321292838989635 20 -18.67132770380493
3.215004324555096 20 -12.61973514033851
-3.215004324555096 20 -24.72292026727134
-3.694662288978024 20 -11.8902639396589
3.694662288978023 20 -25.45239146795095
-4.561685219433603 20 -30.02502693307511
4.561685219433604 20 -7.317628474534734
-4.822265791128938 20 -7.017218819178042
4.82226579112894 20 -30.32543658843181
8.812499999999986 23 -1.5
2.937499999999966 23 -1.5
-8.812500000000007 23 -1.5
-2.937500000000027 23 -1.499999999999999
-3.781558423713449 20 -60
0 20 -49.91119431042303
0 20 -70.08880568957696
3.78155842371345 20 -59.99999999999999
2.563376284092092 20 -65.35524166811227
3.620865402059684 20 -53.75221805386902
-2.635184326462507 20 -54.57179836287528
-3.880889637819767 20 -66.18414519697571
4.596008590151752 20 -70.54699028349496
-4.567155687297253 20 -70.18669949807712
-4.610370198625837 20 -49.43841772270254
4.567155687297253 20 -49.81330050192287
-1.729235484954303 14.07797848101341 -76.77643776176593
3.633296746251834 13.43771611208362 -77.03956737899809
4.855342084947265 16.75455346945397 -75.67644159397813
-5.536475537905243 17.24026708188844 -75.47682711852808
1.729235484954302 14.07797848101341 -83.22356223823407
-3.633296746251832 13.43771611208362 -82.96043262100193
-4.855342084947267 16.75455346945397 -84.32355840602187
5.536475537905241 17.24026708188845 -84.52317288147194
-3.781558423713449 20 -100
0 20 -89.91119431042303
0 20 -110.088805689577
3.78155842371345 20 -100
2.563376284092092 20 -105.3552416681123
3.620865402059684 20 -93.75221805386902
-2.635184326462507 20 -94.57179836287528
-3.880889637819767 20 -106.1841451969757
4.596008590151752 20 -110.546990283495
-4.567155687297253 20 -110.1866994980771
4.567155687297253 20 -89.81330050192287
-4.610370198625837 20 -89.43841772270254
-4.861111111111111 13.1171091861922 -117.1713277038049
4.861111111111111 13.1171091861922 -117.1713277038049
0 16.00361474920799 -115.9850560426977
1.77635683940025e-15 10.25190006957169 -118.3488471313587
-5.055555555555557 16.90642601190567 -115.6140263000258
-5.055555555555555 9.332051649757791 -118.7268786608734
5.055555555555555 9.332051649757791 -118.7268786608734
5.055555555555555 16.90642601190567 -115.6140263000258
-5.592514438339747 4.530004527924572 -82.96664826132017
5.592514438301007 4.530004527888898 -82.96664826135323
5.398586357225575 2.253424963806612 -80.52455162312499
-4.822047636533073 2.253424963806612 -79.81876610177878
0.7189972126600939 2.253424963806612 -80
-2.209127360454898 2.253424963806612 -82.05289801794466
3.173818477940159 9.147167777414259 -80.0835704766385
-8.15730055557971 5.215577602243021 -80.08357047663849
8.179931144585778 5.180012408181633 -80
-3.17381847794016 9.147167777414259 -79.9164295233615
-5.592514438339741 4.530004527924566 -77.03335173867984
5.592514438301001 4.530004527888895 -77.03335173864677
-5.592514438339745 4.530004527924571 -42.96664826132017
5.592514438301005 4.530004527888896 -42.96664826135324
5.398586357225575 2.253424963806612 -40.52455162312499
-4.822047636533073 2.253424963806612 -39.81876610177878
0.7189972126600939 2.253424963806612 -40
-2.209127360454898 2.253424963806612 -42.05289801794465
-8.15730055557971 5.215577602243021 -40.0835704766385
3.173818477940163 9.147167777414257 -40.08357047663851
8.157300555579711 5.215577602243019 -40.08357047663851
-3.17381847794016 9.147167777414259 -39.9164295233615
5.592514438301007 4.530004527888901 -37.03335173864677
-5.592514438339743 4.530004527924568 -37.03335173867983
1.77635683940025e-15 10.19256607302216 -90.92329196785985
1.509903313490213e-14 10.19110480298102 -50.91801115471831
1.48769885299771e-14 10.19176598062151 -29.07959944737819
1.451877210312112e-14 10.20772404676919 -69.02192936378491
1.77635683940025e-15 11.32316123179981 -108.5102501212746
5.329070518200751e-15 11.03377292919201 -12.22898047899312
0.9098158069979432 11.69172555209645 -99.28412194812022
-0.3645706665387358 8.851130847185997 -59.94752903533777
0.7137359826997791 7.842345598877311 -20.16285673182069
2.310979402843201 6.416659753488055 -113.2241713096448
-2.10421239538786 13.97367031629065 -5.845971353511832
-2.006526593454536 6.824955268527631 -6.828444206728143
-3.910592620003102 9.042061070111622 -33.27769604893714
3.910592620003121 9.042061070111608 -33.27769604893719
2.017647751061864 6.515111794726811 -103.8518593409383
2.983085360514752 13.78956106093131 -56.95994687849134
-3.523079444983825 8.118294650077992 -112.966995477501
-3.82375476027061 9.338053728150136 -87.11540318436704
3.831446149261502 10.96421894393806 -47.36973034446415
-2.567900880659177 13.79450325981425 -63.94295814965824
4.122726503418489 10.26060343386966 -72.61503469227226
-2.893194244557423 13.3117111357703 -22.09807504461367
-2.807205484909282 5.955261041509446 -95.60504680630572

CELLS 3538 15616
1 0
1 1
1 2
1 3
1 4
1 5
1 6
1 7
1 8
1 9
1 10
1 11
1 12
1 13
1 14
1 15
1 16
1 17
1 18
1 19
1 20
1 21
1 22
1 23
1 24
1 25
1 26
1 27
1 28
1 29
1 30
1 31
1 32
1 33
1 34
1 35
1 36
1 37
1 38
1 39
1 40
1 41
1 42
1 43
1 44
1 45
1 46
1 47
1 48
1 49
1 50
1 51
1 52
1 53
1 54
1 55
1 56
1 57
1 58
1 59
1 60
1 61
1 62
1 63
1 64
1 65
2 0 66
2 66 1
2 1 2
2 2 67
2 67 3
2 3 68
2 68 69
2 69 70
2 70 71
2 71 4
2 4 5
2 5 6
2 6 72
2 72 73
2 73 74
2 74 7
2 8 7
2 8 9
2 9 75
2 75 76
2 76 77
2 77 78
2 78 10
2 11 79
2 79 10
2 12 11
2 13 80
2 80 12
2 13 81
2 81 82
2 82 83
2 83 84
2 84 14
2 15 85
2 85 14
2 16 15
2 17 86
2 86 16
2 17 87
2 87 88
2 88 89
2 89 90
2 90 91
2 91 18
2 19 92
2 92 93
2 93 18
2 20 94
2 94 95
2 95 96
2 96 97
2 97 98
2 98 19
2 20 99
2 99 21
2 21 22
2 22 100
2 100 23
2 0 101
2 101 102
2 102 103
2 103 104
2 104 23
2 1 105
2 105 106
2 106 107
2 107 108
2 108 109
2 109 110
2 110 111
2 111 112
2 112 113
2 113 114
2 114 115
2 115 12
2 24 116
2 116 117
2 117 118
2 118 13
2 25 119
2 119 120
2 120 121
2 121 122
2 122 123
2 123 24
2 25 124
2 124 125
2 125 126
2 126 0
2 2 127
2 127 128
2 128 129
2 129 130
2 130 131
2 131 132
2 132 133
2 133 134
2 134 135
2 135 136
2 136 137
2 137 11
2 3 138
2 138 139
2 139 140
2 140 26
2 27 141
2 141 142
2 142 143
2 143 144
2 144 145
2 145 26
2 10 146
2 146 147
2 147 148
2 148 27
2 4 149
2 149 150
2 150 28
2 29 151
2 151 152
2 152 153
2 153 154
2 154 28
2 26 155
2 155 29
2 31 156
2 156 157
2 157 158
2 158 30
2 8 159
2 159 160
2 160 161
2 161 31
2 32 162
2 162 163
2 163 9
2 32 164
2 164 165
2 165 28
2 5 166
2 166 167
2 167 168
2 168 30
2 6 169
2 169 170
2 170 171
2 171 33
2 30 33
2 34 172
2 172 173
2 173 174
2 174 33
2 7 175
2 175 176
2 176 177
2 177 34
2 31 34
2 32 178
2 178 179
2 179 180
2 180 181
2 181 35
2 27 182
2 182 35
2 36 183
2 183 24
2 37 184
2 184 185
2 185 186
2 186 187
2 187 36
2 38 188
2 188 37
2 14 189
2 189 190
2 190 191
2 191 38
2 23 192
2 192 193
2 193 194
2 194 39
2 38 195
2 195 196
2 196 197
2 197 198
2 198 199
2 199 39
2 22 200
2 200 201
2 201 202
2 202 203
2 203 204
2 204 205
2 205 206
2 206 207
2 207 208
2 208 209
2 209 210
2 210 15
2 21 211
2 211 212
2 212 213
2 213 214
2 214 215
2 215 216
2 216 217
2 217 218
2 218 219
2 219 220
2 220 221
2 221 16
2 40 222
2 222 223
2 223 224
2 224 17
2 41 225
2 225 226
2 226 227
2 227 228
2 228 229
2 229 40
2 41 230
2 230 231
2 231 232
2 232 20
2 42 233
2 233 40
2 43 234
2 234 235
2 235 236
2 236 237
2 237 42
2 44 238
2 238 239
2 239 43
2 18 44
2 45 240
2 240 241
2 241 44
2 19 45
2 46 242
2 242 41
2 47 243
2 243 244
2 244 245
2 245 246
2 246 46
2 45 247
2 247 248
2 248 47
2 48 249
2 249 25
2 49 250
2 250 251
2 251 252
2 252 253
2 253 48
2 39 254
2 254 49
2 48 255
2 255 256
2 256 36
2 29 257
2 257 258
2 258 35
2 49 259
2 259 260
2 260 37
2 46 261
2 261 262
2 262 42
2 47 263
2 263 264
2 264 43
2 50 265
2 265 266
2 266 51
2 51 267
2 267 50
2 50 268
2 268 52
2 52 269
2 269 270
2 270 271
2 271 53
2 53 272
2 272 51
2 52 54
2 54 273
2 273 55
2 55 274
2 274 56
2 56 275
2 275 57
2 53 57
2 54 276
2 276 277
2 277 278
2 278 57
2 55 279
2 279 280
2 280 56
2 58 281
2 281 282
2 282 59
2 59 283
2 283 58
2 58 284
2 284 60
2 60 285
2 285 286
2 286 287
2 287 61
2 61 288
2 288 59
2 60 62
2 62 289
2 289 63
2 63 290
2 290 64
2 64 291
2 291 65
2 61 65
2 62 292
2 292 293
2 293 294
2 294 65
2 63 295
2 295 296
2 296 64
3 0 299 101
3 66 306 0
3 0 320 299
3 306 320 0
3 2 306 1
3 1 306 66
3 67 306 2
3 68 314 3
3 3 306 67
3 3 339 306
3 314 339 3
3 4 5 6
3 72 4 6
3 4 317 71
3 72 317 4
3 8 9 7
3 7 9 74
3 9 309 74
3 75 348 9
3 9 348 309
3 10 300 78
3 79 307 10
3 10 302 300
3 10 307 302
3 12 307 11
3 11 307 79
3 80 307 12
3 81 313 13
3 13 307 80
3 13 337 307
3 313 337 13
3 14 312 84
3 85 303 14
3 303 319 14
3 14 319 312
3 16 303 15
3 15 303 85
3 86 303 16
3 87 297 17
3 17 303 86
3 297 303 17
3 18 345 91
3 93 345 18
3 19 346 92
3 98 346 19
3 20 311 94
3 99 318 20
3 20 338 311
3 318 338 20
3 22 318 21
3 21 318 99
3 100 318 22
3 104 298 23
3 23 318 100
3 298 301 23
3 301 318 23
3 69 321 68
3 68 321 314
3 70 328 69
3 69 328 321
3 71 316 70
3 316 328 70
3 71 317 316
3 73 317 72
3 74 309 73
3 309 317 73
3 76 329 75
3 329 348 75
3 77 310 76
3 310 329 76
3 78 330 77
3 77 330 310
3 300 330 78
3 82 325 81
3 81 325 313
3 83 308 82
3 308 325 82
3 84 326 83
3 83 326 308
3 312 326 84
3 88 333 87
3 87 333 297
3 89 315 88
3 315 333 88
3 90 332 89
3 89 332 315
3 91 335 90
3 90 335 332
3 91 345 335
3 92 304 93
3 92 346 304
3 304 345 93
3 94 324 95
3 311 324 94
3 95 331 96
3 324 331 95
3 96 305 97
3 96 331 305
3 97 336 98
3 305 336 97
3 336 346 98
3 101 322 102
3 299 322 101
3 102 327 103
3 322 327 102
3 103 323 104
3 103 327 323
3 104 323 298
3 297 319 303
3 297 334 319
3 333 340 297
3 297 340 334
3 298 347 301
3 323 342 298
3 342 347 298
3 320 344 299
3 299 344 322
3 302 339 300
3 300 343 330
3 339 343 300
3 301 338 318
3 334 338 301
3 301 347 334
3 307 337 302
3 337 339 302
3 304 336 335
3 335 345 304
3 304 346 336
3 331 332 305
3 332 336 305
3 306 339 320
3 308 326 323
3 323 327 308
3 308 327 325
3 309 341 317
3 309 348 341
3 310 328 316
3 316 329 310
3 321 328 310
3 310 330 321
3 311 340 324
3 311 338 334
3 334 340 311
3 319 347 312
3 312 342 326
3 312 347 342
3 325 344 313
3 313 344 337
3 321 343 314
3 314 343 339
3 315 331 324
3 324 333 315
3 315 332 331
3 317 341 316
3 316 341 329
3 334 347 319
3 320 339 337
3 337 344 320
3 330 343 321
3 325 327 322
3 322 344 325
3 326 342 323
3 324 340 333
3 341 348 329
3 335 336 332
3 0 349 66
3 126 349 0
3 66 349 1
3 1 349 105
3 115 350 12
3 12 350 80
3 13 350 118
3 80 350 13
3 112 24 113
3 123 24 112
3 116 113 24
3 107 25 108
3 25 119 108
3 107 124 25
3 105 352 106
3 107 106 124
3 106 352 124
3 108 119 109
3 110 109 120
3 121 110 120
3 110 351 111
3 121 351 110
3 111 123 112
3 114 113 116
3 114 353 115
3 116 353 114
3 117 353 116
3 118 353 117
3 120 109 119
3 122 123 111
3 111 351 122
3 122 351 121
3 124 352 125
3 125 352 126
3 349 352 105
3 115 353 350
3 126 352 349
3 350 353 118
3 1 363 2
3 105 363 1
3 2 363 127
3 11 354 12
3 137 354 11
3 12 354 115
3 106 358 128
3 128 360 106
3 106 360 105
3 107 358 106
3 130 359 108
3 108 361 130
3 108 359 107
3 109 361 108
3 110 364 132
3 132 365 110
3 110 365 109
3 111 364 110
3 112 356 134
3 134 362 112
3 112 362 111
3 113 356 112
3 114 355 136
3 136 357 114
3 114 357 113
3 115 355 114
3 127 360 128
3 128 358 129
3 129 359 130
3 130 361 131
3 131 365 132
3 132 364 133
3 133 362 134
3 134 356 135
3 135 357 136
3 136 355 137
3 105 360 127
3 127 363 105
3 129 358 107
3 107 359 129
3 131 361 109
3 109 365 131
3 111 362 133
3 133 364 111
3 135 356 113
3 113 357 135
3 115 354 137
3 137 355 115
3 2 366 67
3 127 366 2
3 67 366 3
3 3 366 138
3 10 367 79
3 146 367 10
3 11 367 137
3 79 367 11
3 129 130 26
3 26 130 145
3 129 26 140
3 134 135 27
3 141 134 27
3 27 135 148
3 129 140 128
3 140 370 128
3 128 370 127
3 130 131 145
3 132 369 131
3 133 368 132
3 132 368 143
3 143 369 132
3 133 134 141
3 148 135 136
3 137 371 136
3 136 371 148
3 138 370 139
3 139 370 140
3 133 141 142
3 142 368 133
3 143 368 142
3 145 131 144
3 131 369 144
3 144 369 143
3 147 371 146
3 148 371 147
3 366 370 138
3 127 370 366
3 367 371 137
3 146 371 367
3 3 381 68
3 138 381 3
3 71 384 4
3 4 384 149
3 155 382 26
3 26 382 140
3 150 387 28
3 28 387 154
3 151 379 29
3 29 379 155
3 68 374 69
3 68 381 374
3 69 376 70
3 374 376 69
3 70 375 71
3 70 376 375
3 375 384 71
3 139 381 138
3 140 372 139
3 372 381 139
3 149 380 150
3 149 384 380
3 380 387 150
3 152 377 151
3 377 379 151
3 153 373 152
3 373 377 152
3 154 378 153
3 153 378 373
3 154 387 378
3 379 382 155
3 140 382 372
3 372 385 381
3 382 385 372
3 373 386 377
3 378 383 373
3 383 386 373
3 374 386 376
3 381 385 374
3 385 386 374
3 376 383 375
3 375 383 380
3 380 384 375
3 376 386 383
3 377 385 379
3 377 386 385
3 380 383 378
3 378 387 380
3 379 385 382
3 5 4 388
3 4 149 388
3 166 5 388
3 9 8 389
3 8 159 389
3 163 9 389
3 30 28 158
3 168 28 30
3 168 150 28
3 28 165 158
3 31 156 32
3 31 32 161
3 156 164 32
3 161 32 162
3 150 167 149
3 167 166 149
3 149 166 388
3 168 167 150
3 164 156 157
3 165 157 158
3 165 164 157
3 159 160 163
3 159 163 389
3 160 161 162
3 160 162 163
3 5 393 6
3 166 393 5
3 6 393 169
3 33 390 30
3 30 390 168
3 171 390 33
3 167 391 166
3 166 391 169
3 169 393 166
3 168 392 167
3 170 391 167
3 167 392 170
3 168 390 171
3 171 392 168
3 169 391 170
3 170 392 171
3 6 404 72
3 169 404 6
3 74 406 7
3 7 406 175
3 33 405 171
3 174 405 33
3 34 403 172
3 177 403 34
3 72 402 73
3 72 404 402
3 73 395 74
3 73 402 395
3 395 406 74
3 170 396 169
3 396 404 169
3 171 398 170
3 170 398 396
3 171 405 398
3 172 401 173
3 172 403 401
3 173 394 174
3 173 401 394
3 394 405 174
3 175 400 176
3 175 406 400
3 176 397 177
3 176 400 397
3 397 403 177
3 394 399 398
3 398 405 394
3 394 401 399
3 399 400 395
3 395 402 399
3 400 406 395
3 398 399 396
3 399 402 396
3 402 404 396
3 397 400 399
3 399 401 397
3 401 403 397
3 8 7 410
3 7 175 410
3 159 8 410
3 34 31 407
3 31 161 407
3 177 34 407
3 160 159 409
3 159 175 409
3 175 159 410
3 161 160 408
3 160 176 408
3 176 160 409
3 161 177 407
3 177 161 408
3 175 176 409
3 176 177 408
3 75 9 423
3 9 163 423
3 10 78 420
3 146 10 420
3 182 27 421
3 27 148 421
3 162 32 426
3 32 178 426
3 181 35 418
3 35 182 418
3 76 75 414
3 414 75 423
3 77 76 415
3 76 414 415
3 78 77 413
3 413 77 415
3 78 413 420
3 147 146 420
3 148 147 411
3 411 147 420
3 163 162 419
3 419 162 426
3 163 419 423
3 178 179 417
3 178 417 426
3 179 180 412
3 179 412 417
3 180 181 416
3 412 180 416
3 416 181 418
3 418 182 421
3 148 411 421
3 411 420 424
3 421 411 424
3 412 416 425
3 417 412 422
3 422 412 425
3 413 415 425
3 420 413 424
3 424 413 425
3 415 414 422
3 414 419 422
3 419 414 423
3 415 422 425
3 416 418 424
3 416 424 425
3 419 417 422
3 417 419 426
3 418 421 424
3 81 13 438
3 13 118 438
3 14 84 437
3 189 14 437
3 24 183 439
3 116 24 439
3 183 36 442
3 36 187 442
3 184 37 443
3 37 188 443
3 188 38 428
3 38 191 428
3 82 81 431
3 431 81 438
3 83 82 434
3 82 431 434
3 84 83 430
3 430 83 434
3 84 430 437
3 117 116 427
3 118 117 438
3 117 427 438
3 439 183 442
3 185 184 435
3 435 184 443
3 186 185 429
3 429 185 435
3 187 186 436
3 186 429 436
3 187 436 442
3 188 428 433
3 188 433 443
3 190 189 437
3 191 190 428
3 428 190 437
3 427 116 439
3 431 427 432
3 427 431 438
3 432 427 439
3 433 428 437
3 429 435 440
3 436 429 441
3 429 440 441
3 430 433 437
3 433 430 440
3 430 434 440
3 431 432 441
3 434 431 441
3 432 436 441
3 436 432 442
3 432 439 442
3 435 433 440
3 433 435 443
3 440 434 441
3 14 445 85
3 189 445 14
3 15 445 210
3 85 445 15
3 22 444 100
3 200 444 22
3 100 444 23
3 23 444 192
3 207 208 38
3 195 207 38
3 38 208 191
3 202 203 39
3 39 203 199
3 202 39 194
3 190 448 189
3 191 448 190
3 192 449 193
3 193 449 194
3 206 195 196
3 196 446 206
3 197 446 196
3 199 204 198
3 204 447 198
3 198 447 197
3 202 194 201
3 194 449 201
3 201 449 200
3 203 204 199
3 205 447 204
3 206 446 205
3 205 446 197
3 197 447 205
3 206 207 195
3 191 208 209
3 210 448 209
3 209 448 191
3 444 449 192
3 200 449 444
3 445 448 210
3 189 448 445
3 15 452 16
3 210 452 15
3 16 452 221
3 21 460 22
3 211 460 21
3 22 460 200
3 212 458 201
3 201 459 212
3 200 459 201
3 201 458 202
3 203 453 214
3 214 461 203
3 202 453 203
3 203 461 204
3 216 455 205
3 205 457 216
3 204 457 205
3 205 455 206
3 218 454 207
3 207 456 218
3 206 456 207
3 207 454 208
3 220 450 209
3 209 451 220
3 208 451 209
3 209 450 210
3 212 459 211
3 213 458 212
3 214 453 213
3 215 461 214
3 216 457 215
3 217 455 216
3 218 456 217
3 219 454 218
3 220 451 219
3 221 450 220
3 211 459 200
3 200 460 211
3 213 453 202
3 202 458 213
3 215 457 204
3 204 461 215
3 206 455 217
3 217 456 206
3 219 451 208
3 208 454 219
3 210 450 221
3 221 452 210
3 221 463 16
3 16 463 86
3 17 463 224
3 86 463 17
3 20 462 99
3 232 462 20
3 99 462 21
3 21 462 211
3 218 40 219
3 229 40 218
3 222 219 40
3 213 41 214
3 41 225 214
3 213 230 41
3 211 465 212
3 213 212 230
3 212 465 230
3 214 225 215
3 216 215 226
3 227 216 226
3 216 464 217
3 227 464 216
3 217 229 218
3 220 219 222
3 220 466 221
3 222 466 220
3 223 466 222
3 224 466 223
3 226 215 225
3 228 229 217
3 217 464 228
3 228 464 227
3 230 465 231
3 231 465 232
3 462 465 211
3 221 466 463
3 232 465 462
3 463 466 224
3 87 17 478
3 17 224 478
3 44 18 485
3 18 91 485
3 40 233 479
3 222 40 479
3 233 42 484
3 42 237 484
3 234 43 476
3 43 239 476
3 238 44 480
3 480 44 485
3 88 87 471
3 471 87 478
3 89 88 474
3 88 471 474
3 90 89 470
3 470 89 474
3 91 90 473
3 90 470 473
3 91 473 485
3 223 222 467
3 224 223 478
3 223 467 478
3 479 233 484
3 235 234 475
3 475 234 476
3 236 235 469
3 469 235 475
3 237 236 477
3 236 469 477
3 237 477 484
3 239 238 468
3 468 238 480
3 239 468 476
3 467 222 479
3 471 467 472
3 467 471 478
3 472 467 479
3 473 468 480
3 468 473 483
3 476 468 483
3 469 475 482
3 477 469 481
3 481 469 482
3 473 470 483
3 470 474 482
3 470 482 483
3 471 472 481
3 474 471 481
3 472 477 481
3 477 472 484
3 472 479 484
3 473 480 485
3 474 481 482
3 475 476 483
3 482 475 483
3 44 486 18
3 18 486 93
3 19 487 45
3 92 487 19
3 241 486 44
3 45 487 240
3 93 488 92
3 92 488 487
3 486 488 93
3 240 488 241
3 487 488 240
3 241 488 486
3 45 507 19
3 19 507 98
3 94 500 20
3 20 500 232
3 41 501 242
3 230 501 41
3 247 502 45
3 502 507 45
3 242 506 46
3 46 506 246
3 243 498 47
3 47 498 248
3 95 493 94
3 493 500 94
3 96 496 95
3 95 496 493
3 97 492 96
3 492 496 96
3 98 495 97
3 97 495 492
3 98 507 495
3 231 489 230
3 232 500 231
3 231 500 489
3 501 506 242
3 244 497 243
3 497 498 243
3 245 491 244
3 491 497 244
3 246 499 245
3 245 499 491
3 246 506 499
3 248 490 247
3 490 502 247
3 248 498 490
3 489 501 230
3 493 494 489
3 489 500 493
3 494 501 489
3 495 502 490
3 490 505 495
3 498 505 490
3 491 504 497
3 499 503 491
3 503 504 491
3 495 505 492
3 492 504 496
3 492 505 504
3 493 503 494
3 496 503 493
3 494 503 499
3 499 506 494
3 494 506 501
3 495 507 502
3 496 504 503
3 497 505 498
3 504 505 497
3 101 518 0
3 0 518 126
3 23 519 104
3 192 519 23
3 25 520 249
3 124 520 25
3 254 509 39
3 39 509 194
3 249 523 48
3 48 523 253
3 250 524 49
3 49 524 254
3 102 511 101
3 511 518 101
3 103 515 102
3 102 515 511
3 104 512 103
3 512 515 103
3 104 519 512
3 125 508 124
3 126 518 125
3 125 518 508
3 193 519 192
3 194 509 193
3 509 519 193
3 520 523 249
3 251 516 250
3 516 524 250
3 252 510 251
3 510 516 251
3 253 517 252
3 252 517 510
3 253 523 517
3 254 514 509
3 254 524 514
3 508 520 124
3 511 513 508
3 508 518 511
3 513 520 508
3 514 519 509
3 510 521 516
3 517 522 510
3 510 522 521
3 511 522 513
3 515 522 511
3 512 519 514
3 514 521 512
3 512 521 515
3 513 522 517
3 517 523 513
3 513 523 520
3 516 521 514
3 514 524 516
3 521 522 515
3 24 123 183
3 119 25 249
3 183 527 36
3 36 527 256
3 48 529 249
3 255 529 48
3 119 526 120
3 120 528 121
3 526 528 120
3 121 525 122
3 122 527 123
3 525 527 122
3 123 527 183
3 249 526 119
3 249 529 526
3 256 528 255
3 528 529 255
3 256 527 525
3 525 528 256
3 121 528 525
3 526 529 528
3 155 26 145
3 141 27 182
3 155 532 29
3 29 532 257
3 35 533 182
3 258 533 35
3 141 530 142
3 142 530 143
3 143 531 144
3 144 531 145
3 145 531 155
3 531 532 155
3 182 530 141
3 182 533 530
3 257 530 258
3 257 532 530
3 530 533 258
3 530 531 143
3 530 532 531
3 154 543 28
3 28 543 165
3 29 545 151
3 257 545 29
3 164 544 32
3 32 544 178
3 181 542 35
3 35 542 258
3 151 541 152
3 151 545 541
3 152 537 153
3 152 541 537
3 153 538 154
3 537 538 153
3 538 543 154
3 165 535 164
3 535 544 164
3 165 543 535
3 178 540 179
3 178 544 540
3 179 536 180
3 179 540 536
3 180 539 181
3 536 539 180
3 539 542 181
3 258 534 257
3 534 545 257
3 258 542 534
3 539 541 534
3 534 542 539
3 541 545 534
3 538 540 535
3 535 543 538
3 540 544 535
3 536 538 537
3 537 539 536
3 536 540 538
3 537 541 539
3 30 546 33
3 158 546 30
3 34 548 31
3 31 548 156
3 33 546 174
3 172 548 34
3 156 549 157
3 156 548 172
3 172 549 156
3 157 547 158
3 173 547 157
3 157 549 173
3 174 546 158
3 158 547 174
3 173 549 172
3 174 547 173
3 36 560 187
3 256 560 36
3 184 559 37
3 37 559 260
3 253 561 48
3 48 561 255
3 49 558 250
3 259 558 49
3 185 557 184
3 557 559 184
3 186 550 185
3 550 557 185
3 187 556 186
3 186 556 550
3 187 560 556
3 250 554 251
3 250 558 554
3 251 553 252
3 251 554 553
3 252 555 253
3 553 555 252
3 555 561 253
3 255 551 256
3 255 561 551
3 551 560 256
3 260 552 259
3 552 558 259
3 260 559 552
3 553 554 550
3 550 556 553
3 554 557 550
3 555 556 551
3 551 561 555
3 556 560 551
3 552 557 554
3 554 558 552
3 552 559 557
3 553 556 555
3 37 565 188
3 260 565 37
3 195 38 188
3 254 39 199
3 254 564 49
3 49 564 259
3 188 562 195
3 188 565 562
3 195 562 196
3 196 562 197
3 197 563 198
3 198 563 199
3 199 563 254
3 563 564 254
3 259 562 260
3 259 564 562
3 562 565 260
3 562 563 197
3 562 564 563
3 233 40 229
3 225 41 242
3 233 568 42
3 42 568 262
3 46 569 242
3 261 569 46
3 225 566 226
3 226 566 227
3 227 567 228
3 228 567 229
3 229 567 233
3 567 568 233
3 242 566 225
3 242 569 566
3 262 566 261
3 566 569 261
3 262 568 566
3 566 567 227
3 566 568 567
3 42 581 237
3 262 581 42
3 234 579 43
3 43 579 264
3 246 580 46
3 46 580 261
3 47 578 243
3 263 578 47
3 235 577 234
3 577 579 234
3 236 570 235
3 570 577 235
3 237 576 236
3 236 576 570
3 237 581 576
3 243 574 244
3 243 578 574
3 244 573 245
3 244 574 573
3 245 575 246
3 573 575 245
3 575 580 246
3 261 571 262
3 261 580 571
3 571 581 262
3 264 572 263
3 572 578 263
3 264 579 572
3 573 574 570
3 570 576 573
3 574 577 570
3 575 576 571
3 571 580 575
3 576 581 571
3 572 577 574
3 574 578 572
3 572 579 577
3 573 576 575
3 43 586 239
3 264 586 43
3 238 587 44
3 44 587 241
3 240 588 45
3 45 588 247
3 248 589 47
3 47 589 263
3 239 582 238
3 582 587 238
3 239 586 582
3 241 585 240
3 585 588 240
3 241 587 585
3 247 583 248
3 247 588 583
3 583 589 248
3 263 584 264
3 263 589 584
3 584 586 264
3 584 585 582
3 582 586 584
3 585 587 582
3 583 585 584
3 584 589 583
3 583 588 585
3 265 267 50
3 51 267 266
3 267 265 266
3 265 50 591
3 50 268 591
3 51 266 590
3 272 51 590
3 268 52 591
3 52 269 591
3 271 53 590
3 53 272 590
3 266 265 270
3 270 265 269
3 269 265 591
3 271 266 270
3 266 271 590
3 267 592 50
3 50 592 268
3 51 595 267
3 272 593 51
3 593 595 51
3 52 592 54
3 268 592 52
3 57 593 53
3 53 593 272
3 54 592 273
3 273 592 55
3 55 594 274
3 592 594 55
3 274 593 56
3 56 593 275
3 275 593 57
3 267 594 592
3 267 595 594
3 274 594 593
3 594 595 593
3 52 54 598
3 269 52 598
3 57 53 597
3 53 271 597
3 54 276 598
3 278 57 597
3 270 269 596
3 269 276 596
3 276 269 598
3 271 270 599
3 277 270 596
3 270 277 599
3 271 278 597
3 278 271 599
3 276 277 596
3 277 278 599
3 54 273 601
3 276 54 601
3 273 55 601
3 55 279 601
3 56 275 600
3 280 56 600
3 275 57 600
3 57 278 600
3 276 279 277
3 279 276 601
3 278 277 280
3 280 277 279
3 278 280 600
3 274 279 55
3 280 274 56
3 280 279 274
3 281 283 58
3 283 282 59
3 282 283 281
3 281 58 603
3 58 284 603
3 59 282 602
3 288 59 602
3 284 60 603
3 60 285 603
3 287 61 602
3 61 288 602
3 282 281 286
3 286 281 285
3 285 281 603
3 287 282 286
3 282 287 602
3 283 604 58
3 58 604 284
3 59 607 283
3 288 605 59
3 605 607 59
3 60 604 62
3 284 604 60
3 65 605 61
3 61 605 288
3 62 604 289
3 289 604 63
3 63 606 290
3 604 606 63
3 290 605 64
3 64 605 291
3 291 605 65
3 283 606 604
3 283 607 606
3 290 606 605
3 606 607 605
3 60 62 610
3 285 60 610
3 65 61 608
3 61 287 608
3 62 292 610
3 294 65 608
3 286 285 609
3 285 292 609
3 292 285 610
3 287 286 611
3 293 286 609
3 286 293 611
3 287 294 608
3 294 287 611
3 292 293 609
3 293 294 611
3 62 289 612
3 292 62 612
3 289 63 612
3 63 295 612
3 64 291 613
3 296 64 613
3 291 65 613
3 65 294 613
3 292 295 293
3 295 292 612
3 294 293 296
3 296 293 295
3 294 296 613
3 290 295 63
3 296 290 64
3 296 295 290
4 489 226 501 614
4 436 441 429 629
4 196 280 197 617
4 428 280 196 617
4 226 489 265 614
4 559 443 565 617
4 312 342 280 617
4 506 569 580 614
4 227 226 265 614
4 475 469 482 620
4 560 442 436 615
4 516 558 524 617
4 581 484 477 614
4 577 475 618 620
4 516 521 510 629
4 436 615 441 629
4 281 299 344 615
4 418 533 542 616
4 342 298 279 617
4 475 482 618 620
4 496 493 503 636
4 280 277 196 197
4 122 427 439 615
4 414 619 329 622
4 506 580 499 614
4 527 442 560 615
4 386 373 377 635
4 494 501 506 614
4 299 281 511 615
4 560 551 525 615
4 312 326 342 617
4 541 377 373 635
4 493 614 503 636
4 313 282 344 615
4 496 503 620 636
4 386 622 373 635
4 384 619 375 625
4 436 429 556 629
4 469 477 481 620
4 521 629 516 633
4 377 545 379 616
4 481 477 614 620
4 322 615 511 621
4 470 482 474 628
4 427 122 282 615
4 227 226 270 265
4 431 282 313 615
4 511 281 299 518
4 524 617 558 634
4 439 442 527 432
4 543 387 165 624
4 527 560 525 615
4 344 299 322 615
4 580 575 499 614
4 614 620 503 636
4 506 499 494 614
4 477 484 472 614
4 482 470 618 628
4 330 616 413 622
4 442 432 436 615
4 378 387 543 619
4 516 617 521 633
4 422 619 414 622
4 499 614 575 620
4 566 501 226 614
4 422 414 415 622
4 615 621 441 629
4 387 543 619 624
4 475 570 469 620
4 534 545 541 616
4 431 438 313 282
4 561 551 555 615
4 575 580 571 614
4 121 282 122 615
4 299 511 322 615
4 511 615 522 621
4 554 516 510 629
4 484 614 581 631
4 416 418 542 616
4 583 490 589 618
4 150 165 387 624
4 482 474 628 636
4 428 196 433 617
4 482 470 483 618
4 430 326 617 621
4 150 387 380 624
4 577 570 475 620
4 618 628 470 630
4 377 541 616 635
4 279 617 298 634
4 418 533 616 626
4 425 413 616 622
4 515 322 511 621
4 568 581 571 614
4 541 545 377 616
4 568 484 581 631
4 589 578 584 618
4 373 619 537 622
4 149 396 380 625
4 517 523 561 632
4 383 619 373 622
4 589 498 578 618
4 443 617 559 633
4 380 399 624 625
4 532 545 534 616
4 497 618 504 620
4 150 380 399 624
4 482 628 620 636
4 439 432 527 615
4 584 579 586 618
4 265 489 493 614
4 278 277 599 196
4 294 293 611 142
4 438 431 427 282
4 511 508 281 518
4 535 619 543 624
4 482 618 620 628
4 340 324 265 311
4 559 565 562 617
4 312 280 437 617
4 387 619 380 624
4 500 265 489 493
4 566 580 569 614
4 506 566 569 614
4 489 501 494 614
4 196 195 428 433
4 476 586 579 618
4 558 617 552 634
4 433 565 443 617
4 515 511 522 621
4 530 542 533 616
4 532 379 545 616
4 384 380 375 619
4 442 527 432 615
4 431 427 282 615
4 496 620 628 636
4 441 615 431 621
4 491 499 575 620
4 542 416 616 635
4 522 621 615 629
4 340 265 324 614
4 425 622 616 635
4 299 281 58 518
4 572 584 578 618
4 380 624 619 625
4 332 470 628 630
4 469 576 477 620
4 511 615 281 632
4 436 556 615 629
4 429 550 629 633
4 279 280 342 617
4 554 516 629 633
4 380 619 384 625
4 576 614 477 620
4 583 589 584 618
4 498 589 490 618
4 468 586 476 618
4 396 399 380 625
4 500 311 265 493
4 558 516 554 617
4 328 375 376 622
4 582 586 468 630
4 5 388 393 166
4 389 159 8 410
4 324 265 311 493
4 566 571 580 614
4 537 622 619 635
4 149 380 384 625
4 521 617 512 621
4 541 534 616 635
4 378 373 383 619
4 417 422 412 619
4 342 323 298 617
4 584 572 579 618
4 414 310 415 622
4 503 614 499 620
4 517 561 629 632
4 496 324 493 636
4 541 373 537 635
4 556 560 436 615
4 555 517 561 629
4 432 441 436 615
4 514 516 524 617
4 472 481 477 614
4 499 503 494 614
4 561 551 615 632
4 576 581 477 614
4 562 552 559 617
4 51 266 340 333
4 270 269 226 596
4 373 622 537 635
4 316 384 375 625
4 375 619 383 622
4 150 380 396 399
4 558 552 564 634
4 322 325 615 621
4 386 616 374 622
4 578 498 497 618
4 311 265 50 500
4 586 618 468 630
4 559 617 552 633
4 506 501 566 614
4 323 617 326 621
4 313 438 59 282
4 556 551 560 615
4 576 571 581 614
4 414 329 310 622
4 621 629 521 633
4 265 493 324 614
4 256 525 560 551
4 329 619 414 625
4 617 621 521 633
4 196 197 562 617
4 329 619 316 622
4 554 552 558 617
4 470 335 473 630
4 282 121 122 286
4 378 537 373 619
4 536 417 412 619
4 422 412 619 635
4 555 561 615 629
4 508 511 281 632
4 505 504 497 618
4 482 483 475 618
4 439 427 432 615
4 530 534 542 616
4 330 616 343 626
4 483 618 470 630
4 316 375 619 625
4 481 482 469 620
4 425 415 413 622
4 443 559 435 633
4 491 497 504 620
4 413 616 330 626
4 555 615 551 629
4 323 512 617 621
4 420 413 330 626
4 551 528 525 615
4 579 577 475 618
4 326 312 437 617
4 375 316 619 622
4 476 579 475 618
4 577 618 574 620
4 584 586 579 264
4 504 620 618 628
4 525 121 122 615
4 568 581 614 631
4 472 614 484 631
4 431 615 325 621
4 322 515 327 621
4 313 344 325 615
4 430 440 621 633
4 298 617 519 634
4 430 621 617 633
4 575 571 576 614
4 496 628 331 636
4 556 429 550 629
4 266 340 333 631
4 441 431 434 621
4 574 618 497 620
4 474 315 470 628
4 396 149 402 625
4 530 533 542 258
4 578 584 263 589
4 437 280 428 617
4 494 493 489 614
4 281 344 282 615
4 615 629 561 632
4 412 536 619 635
4 481 620 614 636
4 554 617 516 633
4 260 559 565 562
4 566 569 580 261
4 196 562 433 617
4 530 616 533 626
4 227 566 226 614
4 514 617 524 634
4 413 424 425 616
4 374 386 385 616
4 431 313 325 615
4 264 579 584 572
4 258 542 530 534
4 343 314 295 627
4 332 335 470 630
4 584 585 583 618
4 297 478 51 333
4 580 571 566 261
4 340 333 631 636
4 387 378 380 619
4 321 374 616 622
4 324 614 493 636
4 497 491 573 620
4 575 614 576 620
4 300 343 296 626
4 536 540 417 619
4 277 276 596 198
4 271 270 228 599
4 293 292 609 144
4 375 383 376 622
4 300 330 343 626
4 195 562 433 196
4 503 493 494 614
4 340 631 614 636
4 260 559 562 552
4 326 323 342 617
4 481 482 620 636
4 280 277 197 634
4 263 572 584 578
4 332 628 623 630
4 521 512 515 621
4 374 381 321 627
4 279 298 519 634
4 286 285 120 609
4 561 523 529 632
4 561 528 551 632
4 415 310 413 622
4 321 616 330 622
4 378 543 538 619
4 571 566 568 614
4 519 617 512 634
4 343 616 321 627
4 418 416 424 616
4 377 379 385 616
4 343 321 314 627
4 532 534 530 616
4 422 619 622 635
4 505 504 618 628
4 323 515 512 621
4 197 617 280 634
4 552 617 562 634
4 441 432 431 615
4 513 522 511 615
4 332 623 335 630
4 340 297 51 333
4 430 308 326 621
4 227 614 265 631
4 374 321 616 627
4 315 628 474 636
4 543 535 538 619
4 569 566 506 501
4 433 617 443 633
4 328 376 374 622
4 577 579 572 618
4 517 513 523 632
4 431 432 427 615
4 478 333 471 631
4 578 497 574 618
4 385 386 377 616
4 326 437 430 617
4 379 616 532 627
4 431 325 434 621
4 121 286 282 632
4 324 496 331 636
4 564 552 562 634
4 321 381 314 627
4 316 341 317 625
4 329 341 316 625
4 491 503 499 620
4 583 490 618 623
4 559 552 557 633
4 329 316 619 625
4 420 330 300 626
4 374 616 385 627
4 424 616 413 626
4 567 568 614 631
4 396 402 399 625
4 585 583 618 623
4 330 413 310 622
4 528 615 551 632
4 623 628 618 630
4 227 265 270 631
4 241 304 488 630
4 316 317 384 625
4 513 517 629 632
4 433 562 565 617
4 455 464 599 228
4 365 369 609 144
4 476 475 483 618
4 498 505 497 618
4 447 457 198 596
4 325 344 322 615
4 323 519 298 617
4 321 343 330 616
4 121 282 615 632
4 561 529 528 632
4 554 510 553 629
4 316 375 328 622
4 568 566 567 614
4 491 575 573 620
4 532 530 531 616
4 142 364 368 611
4 599 446 455 196
4 531 532 616 627
4 9 163 389 406
4 149 4 388 404
4 332 470 315 628
4 560 527 525 256
4 556 551 615 629
4 492 505 495 628
4 564 524 558 634
4 434 308 430 621
4 542 539 416 635
4 513 522 615 629
4 490 505 498 618
4 483 468 476 618
4 577 574 570 620
4 241 345 488 304
4 514 521 516 617
4 415 425 422 622
4 345 304 241 630
4 425 616 424 635
4 505 623 495 628
4 570 576 469 620
4 473 483 470 630
4 378 538 537 619
4 417 619 540 624
4 414 619 419 625
4 323 512 519 617
4 481 614 472 636
4 434 430 440 621
4 443 435 433 633
4 398 150 399 624
4 374 385 381 627
4 420 424 413 626
4 492 495 336 628
4 578 574 572 618
4 380 396 149 150
4 536 537 619 635
4 429 441 440 633
4 554 552 617 633
4 333 471 631 636
4 386 383 373 622
4 336 305 492 628
4 504 496 503 620
4 322 327 325 621
4 340 614 324 636
4 557 435 559 633
4 255 561 529 528
4 422 622 425 635
4 308 323 326 621
4 424 616 416 635
4 380 383 375 619
4 422 419 414 619
4 165 535 543 624
4 561 255 551 528
4 373 377 541 152
4 515 323 327 621
4 437 428 433 617
4 540 619 535 624
4 534 257 545 532
4 329 316 310 622
4 143 531 530 627
4 424 418 616 626
4 385 616 379 627
4 144 531 143 627
4 376 386 374 622
4 495 623 336 628
4 541 539 534 635
4 496 620 504 628
4 497 573 574 620
4 522 521 515 621
4 304 623 488 630
4 287 286 122 611
4 241 488 623 630
4 485 345 486 630
4 345 241 486 630
4 468 618 483 630
4 585 618 584 630
4 618 623 505 628
4 522 521 621 629
4 564 562 563 634
4 556 555 551 629
4 496 96 305 492
4 336 623 332 628
4 441 621 440 633
4 417 419 619 624
4 257 534 530 532
4 280 600 437 428
4 572 574 577 618
4 426 417 540 624
4 513 629 615 632
4 398 399 394 624
4 533 418 421 626
4 554 629 553 633
4 225 566 501 226
4 481 474 482 636
4 567 227 228 631
4 434 325 308 621
4 274 280 342 279
4 490 505 618 623
4 266 51 590 631
4 321 328 374 622
4 540 544 426 624
4 332 336 335 623
4 514 512 521 617
4 376 328 70 375
4 536 538 540 619
4 380 378 383 619
4 419 422 417 619
4 513 615 511 632
4 566 567 614 631
4 581 571 262 568
4 281 282 286 632
4 551 256 525 528
4 544 164 32 426
4 437 433 430 617
4 489 269 265 591
4 280 279 277 634
4 426 544 164 624
4 566 227 567 631
4 197 277 198 634
4 564 558 259 552
4 162 163 419 625
4 425 424 416 635
4 374 328 69 376
4 614 631 472 636
4 312 56 437 280
4 305 496 492 628
4 471 472 631 636
4 297 303 272 17
4 511 322 515 102
4 122 527 439 123
4 296 290 295 343
4 585 623 618 630
4 525 121 615 632
4 417 426 419 624
4 427 287 602 282
4 546 33 174 405
4 538 535 540 619
4 504 503 491 620
4 415 414 76 310
4 34 403 548 172
4 563 197 198 634
4 492 305 336 97
4 582 585 584 630
4 479 484 567 631
4 600 280 278 428
4 471 467 478 631
4 162 419 624 625
4 568 571 262 566
4 281 615 282 632
4 587 480 241 630
4 162 400 163 625
4 345 485 473 630
4 495 492 336 97
4 335 304 345 630
4 259 562 564 552
4 575 576 573 620
4 280 617 279 634
4 441 434 440 621
4 502 490 588 623
4 512 617 514 634
4 410 175 7 406
4 413 415 77 310
4 393 404 6 169
4 537 378 373 153
4 417 179 536 412
4 162 624 400 625
4 487 240 488 346
4 583 588 490 623
4 162 32 164 426
4 150 28 387 165
4 423 329 414 625
4 171 33 390 405
4 600 437 56 280
4 488 486 345 241
4 90 473 470 335
4 373 541 537 152
4 435 185 429 633
4 164 162 426 624
4 407 403 34 177
4 537 538 536 619
4 423 348 329 625
4 531 616 530 627
4 562 188 433 565
4 570 475 469 235
4 488 240 241 623
4 481 472 471 636
4 346 240 488 623
4 526 529 523 632
4 310 414 76 329
4 513 517 522 629
4 326 430 83 308
4 543 387 28 165
4 305 331 96 496
4 325 327 308 621
4 266 267 340 265
4 310 316 328 622
4 401 549 172 173
4 346 488 304 623
4 179 536 540 417
4 613 64 296 626
4 613 420 64 626
4 346 507 487 623
4 530 258 534 257
4 376 383 386 622
4 188 562 433 195
4 397 177 408 176
4 305 336 332 628
4 423 309 348 625
4 419 619 624 625
4 309 423 163 625
4 335 623 304 630
4 358 140 129 610
4 330 413 77 310
4 496 324 95 493
4 434 83 430 308
4 327 323 308 621
4 402 317 309 625
4 310 321 330 622
4 570 577 475 235
4 566 614 227 631
4 394 547 173 174
4 9 163 406 309
4 315 331 628 636
4 351 364 122 611
4 512 515 323 103
4 525 615 528 632
4 163 406 309 395
4 563 562 197 634
4 185 435 557 633
4 309 9 423 348
4 562 617 197 634
4 543 387 378 154
4 515 322 327 102
4 157 547 165 158
4 156 549 164 157
4 346 487 240 623
4 513 511 508 632
4 277 279 198 634
4 309 317 341 625
4 490 495 505 623
4 423 414 419 625
4 599 455 228 217
4 144 609 365 131
4 457 204 198 596
4 570 574 573 620
4 164 535 165 624
4 585 588 583 623
4 485 480 473 630
4 346 495 507 623
4 364 142 133 611
4 455 599 196 206
4 241 240 585 623
4 340 324 333 636
4 244 573 497 491
4 55 279 298 519
4 529 526 523 249
4 339 320 337 606
4 522 510 521 629
4 540 535 544 624
4 533 418 182 421
4 565 433 443 188
4 381 321 68 374
4 545 151 377 379
4 305 331 496 628
4 433 195 428 188
4 341 329 348 625
4 335 345 473 630
4 282 281 283 344
4 163 9 423 309
4 601 279 55 519
4 505 492 504 628
4 328 316 70 375
4 228 227 270 631
4 276 198 279 634
4 279 519 601 634
4 309 163 395 625
4 391 396 169 170
4 332 90 470 335
4 523 526 520 249
4 164 165 401 624
4 567 484 568 631
4 533 421 530 626
4 400 624 399 625
4 485 473 91 345
4 506 242 569 501
4 171 392 170 398
4 395 402 309 625
4 321 68 314 381
4 164 397 162 624
4 603 508 281 632
4 252 517 555 629
4 270 265 266 631
4 554 557 552 633
4 553 629 550 633
4 176 409 400 175
4 517 252 510 629
4 431 82 434 325
4 346 507 495 98
4 502 507 495 623
4 517 253 561 523
4 286 121 120 632
4 404 317 402 149
4 328 69 321 374
4 420 413 78 330
4 455 599 206 217
4 133 111 364 611
4 131 609 365 109
4 457 215 204 596
4 566 571 262 261
4 416 180 412 635
4 143 626 293 627
4 612 63 381 627
4 612 295 63 627
4 87 471 478 333
4 502 495 490 623
4 422 425 412 635
4 391 166 149 167
4 409 160 163 159
4 259 260 562 552
4 246 506 580 499
4 241 623 585 630
4 520 526 523 632
4 500 94 311 493
4 328 321 310 622
4 150 396 398 399
4 285 603 281 632
4 158 28 30 546
4 32 31 548 156
4 418 542 181 416
4 573 576 570 620
4 149 4 404 317
4 295 293 296 627
4 472 484 479 631
4 525 528 121 632
4 142 293 143 626
4 293 144 143 627
4 544 178 540 426
4 143 132 369 365
4 89 470 474 315
4 457 226 215 596
4 515 327 323 103
4 364 132 368 143
4 455 205 446 197
4 447 205 457 197
4 370 610 128 360
4 526 528 529 632
4 228 455 464 217
4 144 365 369 131
4 560 436 442 187
4 151 377 541 545
4 331 324 95 496
4 196 446 455 206
4 133 142 364 368
4 457 198 204 447
4 496 504 492 628
4 182 530 421 141
4 539 541 537 635
4 286 120 281 632
4 299 511 518 101
4 531 532 382 155
4 355 371 608 136
4 450 448 597 209
4 216 455 464 227
4 577 579 475 234
4 378 537 538 153
4 610 106 128 360
4 220 450 597 209
4 136 608 355 114
4 281 120 285 632
4 293 292 144 295
4 294 293 142 296
4 278 277 196 280
4 277 276 198 279
4 271 270 266 228
4 303 297 272 319
4 579 476 475 234
4 336 304 335 623
4 550 429 185 633
4 613 411 420 626
4 612 381 372 627
4 182 530 533 421
4 597 466 450 220
4 608 353 355 114
4 511 299 322 101
4 106 610 352 360
4 527 442 36 560
4 339 63 3 289
4 276 199 198 634
4 449 598 201 459
4 589 583 248 490
4 582 239 468 586
4 465 212 598 459
4 408 161 162 160
4 167 392 168 150
4 581 237 477 484
4 212 201 598 459
4 599 206 217 456
4 204 215 461 596
4 362 111 133 611
4 109 131 609 361
4 285 508 603 632
4 464 599 270 455
4 351 364 611 286
4 369 609 293 365
4 277 457 447 596
4 394 401 165 624
4 344 281 58 299
4 402 73 309 317
4 488 487 346 92
4 271 228 266 631
4 486 345 93 488
4 595 319 297 334
4 34 403 407 548
4 446 277 599 455
4 611 364 368 293
4 443 559 184 435
4 282 59 313 344
4 417 540 178 426
4 395 399 402 625
4 31 32 407 161
4 168 30 28 390
4 228 270 266 631
4 490 247 502 588
4 480 587 238 468
4 204 461 198 596
4 217 228 599 456
4 131 144 609 361
4 395 400 399 625
4 4 149 384 317
4 498 243 578 497
4 162 397 400 624
4 242 566 501 225
4 382 532 379 155
4 358 106 128 610
4 597 451 220 209
4 136 357 608 114
4 279 342 274 298
4 212 201 458 598
4 529 561 48 523
4 566 242 501 569
4 470 89 332 315
4 558 516 524 250
4 599 196 206 456
4 142 362 133 611
4 256 551 255 528
4 283 607 337 606
4 509 601 519 634
4 270 269 265 226
4 285 120 119 632
4 345 473 91 335
4 306 339 3 289
4 297 87 478 333
4 294 296 142 626
4 292 144 295 627
4 440 433 435 633
4 604 339 306 289
4 316 317 71 384
4 185 557 550 633
4 597 191 451 209
4 51 266 267 340
4 88 471 333 636
4 324 311 94 493
4 384 71 316 375
4 253 561 555 517
4 194 458 201 598
4 82 434 325 308
4 431 438 81 313
4 297 51 319 595
4 143 530 142 626
4 346 336 495 623
4 591 50 232 268
4 121 351 364 110
4 284 58 603 126
4 293 626 296 627
4 296 293 142 626
4 293 295 144 627
4 300 420 78 330
4 458 202 213 276
4 129 285 107 358
4 278 208 219 451
4 357 113 135 294
4 573 574 244 497
4 395 73 309 402
4 575 246 580 499
4 419 426 162 624
4 385 379 382 627
4 424 421 418 626
4 397 399 400 624
4 498 589 248 490
4 239 476 468 586
4 88 474 471 636
4 214 276 453 203
4 243 574 578 497
4 283 320 337 344
4 280 342 312 274
4 165 394 398 405
4 536 412 180 635
4 53 590 223 271
4 269 52 591 231
4 495 336 346 98
4 305 332 331 628
4 315 331 332 628
4 471 472 467 631
4 587 241 585 630
4 247 490 583 588
4 587 238 468 582
4 319 272 51 297
4 538 543 378 154
4 557 184 559 435
4 74 9 406 309
4 591 52 268 231
4 72 4 317 404
4 61 287 602 117
4 285 125 60 603
4 587 468 480 630
4 46 506 569 580
4 394 399 401 624
4 279 601 276 634
4 302 337 607 606
4 202 458 194 276
4 440 435 429 633
4 605 302 607 606
4 92 346 488 304
4 555 556 553 629
4 488 345 93 304
4 348 75 423 329
4 416 539 180 635
4 553 510 252 629
4 560 36 527 256
4 603 60 284 125
4 226 461 215 596
4 252 555 553 629
4 390 33 546 405
4 276 458 194 598
4 423 419 163 625
4 317 402 72 404
4 544 535 164 624
4 341 348 309 625
4 524 564 254 634
4 229 228 271 631
4 45 502 487 507
4 44 485 486 480
4 323 298 519 104
4 35 418 533 542
4 240 588 585 623
4 613 65 147 294
4 292 62 139 612
4 554 553 550 633
4 582 587 585 630
4 286 285 281 120
4 339 320 604 306
4 129 107 285 359
4 453 213 202 276
4 135 113 356 294
4 208 454 278 219
4 59 282 283 344
4 436 560 556 187
4 477 576 237 581
4 120 365 609 109
4 287 286 282 122
4 364 111 122 611
4 397 164 401 624
4 550 553 556 629
4 557 554 550 633
4 339 604 63 289
4 516 558 554 250
4 582 468 587 630
4 117 118 438 602
4 126 518 603 125
4 283 281 58 344
4 572 584 264 263
4 323 519 512 104
4 276 601 509 634
4 245 246 575 499
4 81 431 313 325
4 600 190 437 428
4 509 601 193 519
4 563 199 254 634
4 75 414 423 329
4 296 300 290 343
4 395 163 400 625
4 474 481 471 636
4 388 404 4 393
4 57 278 190 600
4 276 54 193 601
4 234 475 577 235
4 314 295 290 343
4 252 253 555 517
4 539 537 536 635
4 531 382 145 155
4 410 9 389 406
4 224 478 223 590
4 591 232 500 231
4 347 334 594 301
4 522 517 510 629
4 539 181 542 416
4 162 177 161 408
4 520 119 285 124
4 123 116 439 287
4 381 385 372 627
4 424 420 411 626
4 519 512 514 634
4 224 272 51 590
4 528 120 121 632
4 288 59 118 602
4 229 567 228 631
4 331 315 324 636
4 309 406 74 395
4 267 297 51 340
4 333 324 315 636
4 294 141 142 611
4 195 278 599 196
4 146 420 64 613
4 580 46 506 246
4 271 229 479 222
4 438 118 59 602
4 518 603 58 126
4 561 253 48 523
4 540 178 179 417
4 333 315 88 636
4 509 254 199 634
4 90 470 89 332
4 267 340 265 311
4 53 590 272 223
4 88 315 474 636
4 337 302 339 606
4 164 401 403 397
4 565 559 37 443
4 271 479 467 222
4 501 489 230 269
4 191 597 448 209
4 609 292 145 144
4 198 199 276 596
4 229 599 271 228
4 147 420 146 613
4 381 138 612 139
4 183 442 527 439
4 492 96 305 97
4 567 479 229 233
4 608 357 136 148
4 479 567 229 631
4 346 304 336 623
4 358 128 140 610
4 225 501 230 269
4 108 145 359 130
4 145 531 144 627
4 382 531 145 627
4 561 48 255 529
4 514 524 254 634
4 50 20 232 268
4 61 602 288 117
4 312 437 84 326
4 51 272 319 593
4 430 83 84 326
4 201 194 598 449
4 285 508 520 124
4 427 439 116 287
4 468 483 473 630
4 593 319 51 595
4 87 88 471 333
4 557 185 184 435
4 102 511 322 101
4 613 65 291 147
4 370 62 610 360
4 371 65 355 608
4 57 450 448 597
4 437 430 84 326
4 51 478 224 590
4 232 50 591 500
4 42 581 568 484
4 145 144 292 627
4 377 541 152 151
4 127 62 360 105
4 221 57 450 210
4 115 137 65 355
4 200 211 54 459
4 355 61 353 608
4 466 450 53 597
4 563 254 564 634
4 352 610 60 360
4 336 495 97 98
4 269 225 226 596
4 579 586 43 264
4 574 243 244 497
4 586 43 476 579
4 324 94 95 493
4 29 151 545 379
4 412 425 416 635
4 449 54 598 459
4 465 598 52 459
4 539 536 180 635
4 35 418 542 181
4 312 56 280 274
4 520 523 513 632
4 509 519 514 634
4 127 363 62 105
4 200 54 211 460
4 452 57 221 210
4 65 137 115 354
4 119 526 520 632
4 473 480 468 630
4 270 226 457 596
4 218 195 207 454
4 397 401 399 624
4 479 229 271 631
4 590 478 223 467
4 500 489 591 231
4 62 612 289 139
4 294 142 141 626
4 230 212 458 598
4 452 463 16 221
4 532 29 545 379
4 364 132 293 110
4 110 132 293 365
4 455 205 277 216
4 277 205 457 216
4 47 578 589 498
4 198 199 563 634
4 600 57 275 190
4 0 58 284 126
4 364 122 111 351
4 411 420 147 613
4 381 612 372 139
4 314 63 3 339
4 36 183 442 527
4 199 198 461 596
4 228 229 599 456
4 145 609 144 361
4 111 362 122 611
4 451 222 597 220
4 477 576 236 237
4 291 146 64 613
4 319 347 334 594
4 230 458 213 269
4 523 48 529 249
4 271 590 467 631
4 358 124 106 610
4 114 357 608 116
4 120 526 119 632
4 609 120 109 361
4 268 232 591 231
4 120 528 526 632
4 103 323 512 104
4 413 77 78 330
4 581 42 237 484
4 350 115 12 354
4 578 263 47 589
4 230 458 269 598
4 154 378 538 153
4 187 556 436 186
4 317 4 71 384
4 250 554 516 251
4 117 438 427 602
4 518 508 603 125
4 271 266 590 631
4 409 160 400 163
4 391 149 396 167
4 455 270 464 227
4 369 293 143 365
4 153 373 537 152
4 179 180 536 412
4 143 368 364 293
4 446 277 455 197
4 447 457 277 197
4 612 63 138 381
4 464 270 599 228
4 369 293 609 144
4 447 198 277 596
4 54 601 273 193
4 11 137 367 354
4 460 211 21 462
4 460 22 200 444
4 402 72 73 317
4 56 14 319 312
4 265 50 267 311
4 411 148 421 294
4 189 56 275 600
4 564 524 49 558
4 71 70 316 375
4 372 382 145 627
4 210 448 450 209
4 371 355 137 136
4 126 603 284 125
4 414 75 76 329
4 189 437 56 600
4 392 171 168 398
4 90 91 473 335
4 404 6 4 393
4 160 176 409 400
4 119 285 609 120
4 201 458 194 202
4 396 391 167 170
4 177 162 397 408
4 360 352 106 105
4 211 212 465 459
4 410 7 9 406
4 560 442 36 187
4 415 76 77 310
4 191 208 451 209
4 431 81 82 325
4 9 75 423 348
4 611 368 142 293
4 446 599 277 196
4 128 370 360 127
4 449 201 200 459
4 115 355 353 114
4 450 466 221 220
4 300 290 64 296
4 64 420 146 300
4 145 130 108 361
4 539 180 181 416
4 14 56 189 312
4 215 226 457 216
4 321 69 68 374
4 254 509 514 634
4 452 15 445 210
4 20 50 232 500
4 479 271 467 631
4 607 337 302 605
4 32 178 544 426
4 173 165 164 157
4 141 421 148 294
4 239 468 238 582
4 583 248 490 247
4 28 387 543 154
4 141 362 142 611
4 118 59 13 438
4 58 0 518 126
4 196 599 195 456
4 343 300 290 339
4 366 2 363 127
4 337 320 283 606
4 328 70 69 376
4 302 290 300 339
4 214 269 213 453
4 294 134 356 135
4 364 351 121 286
4 276 203 202 453
4 287 112 113 356
4 559 184 37 443
4 520 513 508 632
4 612 372 292 627
4 613 294 411 626
4 165 164 401 173
4 318 301 23 273
4 334 595 319 594
4 119 249 520 526
4 95 96 331 496
4 610 128 140 370
4 367 307 11 354
4 150 168 28 405
4 349 363 1 105
4 189 190 437 600
4 601 192 193 519
4 136 371 608 148
4 295 290 63 314
4 509 199 276 634
4 138 63 314 381
4 218 207 195 456
4 469 570 235 236
4 434 82 83 308
4 609 145 119 361
4 559 37 260 565
4 580 569 46 261
4 92 488 93 304
4 327 515 102 103
4 479 467 472 631
4 118 13 59 288
4 542 533 35 258
4 407 403 32 548
4 287 122 123 611
4 145 292 372 627
4 279 274 55 298
4 452 445 15 303
4 365 609 286 120
4 550 185 429 186
4 448 450 57 210
4 355 137 65 371
4 177 403 162 161
4 573 244 245 491
4 360 370 62 127
4 449 200 54 459
4 61 115 355 353
4 53 450 466 221
4 60 352 360 105
4 465 52 211 459
4 58 320 344 299
4 318 22 21 460
4 168 392 398 150
4 461 225 199 596
4 229 195 599 456
4 141 123 362 611
4 485 91 18 345
4 189 56 437 312
4 130 129 145 359
4 403 32 162 161
4 613 296 294 626
4 295 612 292 627
4 108 107 359 119
4 218 219 229 454
4 223 272 224 590
4 337 313 59 344
4 345 93 18 486
4 439 24 116 123
4 25 119 520 124
4 345 18 485 486
4 283 604 320 58
4 346 487 19 92
4 230 212 598 465
4 479 229 40 222
4 346 19 487 507
4 50 334 311 338
4 225 461 226 596
4 132 143 293 365
4 364 132 143 293
4 455 277 205 197
4 205 277 457 197
4 192 601 55 519
4 312 319 56 347
4 140 292 129 610
4 439 527 183 123
4 579 43 476 234
4 300 64 290 302
4 507 346 19 98
4 270 455 216 227
4 216 457 270 227
4 605 290 302 606
4 553 252 510 251
4 276 213 458 269
4 271 278 219 451
4 357 113 294 287
4 307 13 288 337
4 466 597 222 220
4 518 0 299 101
4 269 214 276 453
4 0 320 306 284
4 114 608 353 116
4 124 106 610 352
4 612 63 289 138
4 269 458 276 598
4 288 118 117 602
4 484 568 42 233
4 294 608 357 287
4 278 271 597 451
4 146 10 64 300
4 501 230 41 225
4 302 64 290 605
4 379 532 29 155
4 226 457 216 227
4 207 208 454 195
4 393 388 404 169
4 224 51 272 297
4 410 389 175 406
4 275 56 14 319
4 593 319 595 594
4 372 385 382 627
4 424 411 421 626
4 382 145 26 140
4 53 463 452 221
4 52 211 460 462
4 60 363 349 105
4 460 200 54 444
4 366 363 62 127
4 16 463 452 303
4 61 115 350 354
4 13 81 438 313
4 145 108 359 119
4 47 589 248 498
4 24 183 123 439
4 119 249 25 520
4 233 229 40 479
4 55 601 192 273
4 146 420 10 300
4 367 137 65 354
4 155 145 26 382
4 138 314 3 381
4 558 524 49 250
4 452 445 57 210
4 43 476 239 586
4 347 312 342 274
4 298 23 55 192
4 502 247 45 588
4 480 587 44 238
4 487 19 45 507
4 485 18 44 486
4 20 50 338 268
4 390 546 28 405
4 51 297 267 595
4 457 226 270 227
4 254 199 39 509
4 150 398 168 405
4 604 283 320 606
4 165 401 394 173
4 339 302 290 606
4 165 158 174 405
4 307 12 11 354
4 286 121 364 110
4 286 121 110 365
4 283 337 59 344
4 309 74 73 395
4 401 172 549 164
4 421 148 27 141
4 74 9 7 406
4 37 565 443 188
4 171 168 398 405
4 593 56 319 274
4 592 301 318 273
4 318 20 338 268
4 418 182 35 533
4 340 267 297 334
4 14 56 275 189
4 146 64 10 291
4 88 89 474 315
4 46 506 242 569
4 592 301 338 318
4 58 320 283 344
4 110 365 120 109
4 195 188 38 428
4 140 129 128 358
4 357 136 148 135
4 218 229 195 454
4 122 362 123 611
4 547 165 394 173
4 87 478 17 297
4 406 163 400 395
4 337 288 307 605
4 72 6 4 404
4 285 292 129 359
4 276 453 213 269
4 271 278 454 219
4 294 113 356 287
4 420 78 10 300
4 611 122 351 286
4 314 68 3 381
4 109 119 108 361
4 362 111 123 112
4 199 461 204 203
4 217 218 229 456
4 130 145 131 361
4 59 13 313 337
4 58 0 299 518
4 438 59 13 313
4 408 162 397 176
4 549 401 164 173
4 594 593 319 274
4 189 437 14 312
4 120 609 119 361
4 79 307 11 367
4 320 58 0 299
4 219 222 451 220
4 230 458 212 213
4 306 320 604 284
4 578 47 243 498
4 334 340 267 311
4 158 165 28 405
4 156 172 403 164
4 116 114 357 113
4 162 397 403 177
4 106 107 124 358
4 224 478 51 297
4 15 16 452 303
4 314 3 63 138
4 402 404 149 396
4 192 55 298 519
4 214 461 215 225
4 195 207 206 456
4 141 133 362 134
4 172 156 549 164
4 158 547 165 174
4 394 165 547 174
4 208 195 191 278
4 55 594 592 301
4 167 149 396 150
4 143 293 369 144
4 447 277 198 197
4 143 142 368 293
4 196 277 446 197
4 228 464 270 227
4 192 298 23 519
4 65 61 355 608
4 62 60 610 360
4 450 57 53 597
4 274 342 347 298
4 49 254 524 564
4 320 0 58 284
4 277 270 599 455
4 286 293 609 365
4 457 277 270 596
4 364 611 286 293
4 400 160 162 163
4 173 547 165 157
4 173 164 549 157
4 302 337 307 605
4 54 52 598 459
4 437 84 14 312
4 145 108 119 361
4 94 311 20 500
4 297 267 595 334
4 445 85 15 303
4 147 146 291 613
4 56 312 347 274
4 403 32 156 164
4 145 285 119 359
4 463 16 86 303
4 224 272 17 297
4 267 50 334 311
4 62 60 360 105
4 52 54 211 459
4 65 61 115 355
4 450 53 57 221
4 319 347 594 274
4 49 564 558 259
4 195 229 218 456
4 363 1 2 306
4 581 262 42 568
4 303 275 14 319
4 394 165 174 405
4 274 594 55 301
4 545 257 29 532
4 311 20 50 338
4 55 23 298 301
4 176 160 162 400
4 138 289 612 139
4 170 167 396 150
4 50 20 311 500
4 271 195 229 454
4 318 338 592 268
4 60 62 363 105
4 54 52 211 460
4 61 65 115 354
4 452 57 53 221
4 293 286 110 365
4 457 270 277 216
4 293 286 364 110
4 455 277 270 216
4 401 403 172 164
4 546 174 28 405
4 359 129 145 292
4 107 359 119 285
4 454 219 229 271
4 225 242 41 501
4 141 182 27 421
4 23 55 192 273
4 129 145 292 140
4 302 307 291 605
4 390 28 171 405
4 519 298 23 104
4 169 149 396 391
4 189 275 190 600
4 286 121 365 120
4 191 195 38 428
4 163 400 409 175
4 604 320 339 606
4 65 307 367 354
4 55 23 301 273
4 176 162 397 400
4 548 403 32 172
4 452 57 445 303
4 121 110 365 120
4 219 229 271 222
4 172 32 548 156
4 174 28 158 546
4 224 17 478 297
4 208 454 195 278
4 107 119 124 285
4 28 171 168 390
4 131 145 144 361
4 198 461 204 199
4 229 228 217 456
4 347 319 56 274
4 32 403 407 177
4 177 407 32 161
4 398 392 170 150
4 601 192 273 193
4 388 393 166 169
4 389 175 159 410
4 319 272 303 593
4 349 363 60 306
4 145 285 609 119
4 289 63 3 138
4 307 291 10 302
4 142 133 362 141
4 298 347 55 301
4 206 196 195 456
4 145 292 285 359
4 13 59 288 337
4 343 290 314 339
4 398 170 396 150
4 287 123 141 611
4 599 271 195 229
4 276 199 225 596
4 163 175 389 406
4 62 363 366 306
4 169 388 404 149
4 407 32 31 548
4 546 28 30 390
4 388 4 5 393
4 389 8 9 410
4 24 287 116 123
4 546 30 33 390
4 294 27 148 141
4 195 271 278 454
4 407 31 34 548
4 339 63 604 606
4 63 290 606 339
4 452 463 53 303
4 269 41 230 225
4 65 291 307 605
4 274 347 55 298
4 288 61 307 605
4 191 195 428 278
4 57 275 303 593
4 347 594 274 301
4 319 303 275 593
4 226 215 461 225
4 275 14 57 303
4 59 607 337 283
4 276 39 509 194
4 169 166 388 149
4 175 159 163 389
4 290 63 314 339
4 291 64 10 302
4 274 55 347 301
4 121 351 122 286
4 268 52 232 231
4 292 285 609 145
4 32 403 177 161
4 300 10 64 302
4 272 53 303 593
4 168 171 28 405
4 172 403 32 156
4 149 404 169 396
4 214 269 276 225
4 174 158 28 405
4 52 20 318 268
4 126 284 60 125
4 141 294 287 611
4 269 276 225 596
4 599 271 278 195
4 175 163 400 406
4 463 53 466 221
4 353 61 115 350
4 465 211 52 462
4 352 60 349 105
4 54 200 449 444
4 370 366 62 127
4 8 7 9 410
4 371 137 65 367
4 448 57 445 210
4 6 5 4 393
4 52 232 465 462
4 53 463 466 224
4 126 60 349 352
4 61 353 118 350
4 318 54 592 273
4 318 592 52 268
4 167 170 392 150
4 301 592 55 273
4 109 120 119 361
4 362 111 122 123
4 162 408 160 176
4 287 24 112 123
4 276 39 203 199
4 272 53 223 224
4 39 276 509 199
4 52 54 318 460
4 149 169 166 391
4 159 163 409 175
4 294 27 141 134
4 41 269 214 225
4 276 39 194 202
4 118 117 61 288
4 318 23 54 273
4 146 371 65 367
4 462 52 20 99
4 232 20 52 268
4 288 61 13 307
4 223 53 466 224
4 52 232 231 465
4 307 61 65 605
4 307 65 61 354
4 291 10 65 307
4 448 445 57 189
4 138 366 62 370
4 60 126 125 352
4 117 61 353 118
4 13 61 350 80
4 444 23 54 100
4 284 60 0 126
4 303 53 57 593
4 50 592 338 268
4 449 192 54 444
4 53 57 452 303
4 58 604 320 284
4 318 20 52 99
4 337 59 288 605
4 27 294 148 135
4 363 62 60 306
4 337 607 59 605
4 319 275 56 593
4 60 0 306 284
4 272 17 53 224
4 146 65 147 291
4 41 269 230 213
4 318 54 23 100
4 287 24 116 113
4 463 53 17 224
4 52 20 232 462
4 302 291 64 605
4 62 289 138 139
4 61 13 307 80
4 61 13 118 288
4 13 61 118 350
4 349 0 60 126
4 275 190 57 189
4 147 371 65 146
4 306 604 60 284
4 52 54 592 318
4 62 604 306 289
4 273 192 54 193
4 139 138 62 370
4 267 595 334 594
4 57 14 275 189
4 146 10 65 291
4 190 448 57 189
4 272 53 17 303
4 193 192 54 449
4 192 54 23 273
4 192 23 54 444
4 14 57 445 189
4 146 65 10 367
4 3 62 289 138
4 62 3 366 138
4 3 62 306 289
4 604 60 62 306
4 218 219 40 229
4 208 195 38 191
4 207 208 195 38
4 204 205 457 447
4 205 206 455 446
4 216 217 464 455
4 133 132 368 364
4 108 107 119 25
4 287 24 113 112
4 130 129 26 145
4 107 119 25 124
4 111 110 364 351
4 132 131 369 365
4 41 269 213 214
4 276 39 202 203
4 219 229 222 40
4 294 27 134 135
4 129 145 140 26
4 527 122 615 525
4 615 122 527 439
4 51 631 333 478
4 333 631 51 266
4 635 386 616 377
4 635 616 386 622
4 278 196 428 280
4 428 196 278 195
4 226 489 269 265
4 630 586 584 582
4 630 584 586 618
4 427 122 287 282
4 633 430 433 617
4 633 433 430 440
4 500 265 591 489
4 500 591 265 50
4 165 398 624 150
4 165 624 398 394
4 633 441 629 429
4 633 629 441 621
4 141 626 530 421
4 530 626 141 142
4 635 534 542 539
4 635 542 534 616
4 623 487 502 507
4 486 480 630 241
4 630 480 486 485
4 149 317 625 384
4 149 625 317 402
4 575 491 245 499
4 245 491 575 573
4 590 478 631 51
4 590 631 478 467
4 510 554 251 516
4 251 554 510 553
4 556 429 186 550
4 556 186 429 436
4 603 518 281 508
4 281 518 603 58
4 438 602 282 427
4 282 602 438 59
4 530 627 626 143
4 626 627 530 616
4 626 64 300 420
4 626 300 64 296
4 631 265 340 614
4 631 340 265 266
4 366 2 306 363
4 306 2 366 67
4 484 567 233 479
4 484 233 567 568
4 627 532 382 531
4 627 382 532 379
4 241 480 44 486
4 44 480 241 587
4 627 63 314 295
4 627 314 63 381
4 349 1 306 66
4 349 306 1 363
4 469 576 236 477
4 236 576 469 570
4 616 627 296 626
4 296 343 616 626
4 285 358 124 107
4 285 124 358 610
4 451 271 222 219
4 451 222 271 597
4 357 287 116 113
4 116 287 357 608
4 294 357 148 135
4 294 148 357 608
4 278 451 191 208
4 191 451 278 597
4 129 610 285 358
4 285 610 129 292
4 501 269 226 489
4 226 269 501 225
4 287 439 122 427
4 287 122 439 123
4 520 285 632 508
4 520 632 285 119
4 45 240 502 588
4 45 502 240 487
4 623 502 240 588
4 623 240 502 487
4 162 403 164 32
4 162 164 403 397
4 145 372 140 382
4 140 372 145 292
4 294 421 626 141
4 294 626 421 411
4 405 150 165 28
4 405 165 150 398
4 141 134 287 294
4 356 287 134 294
4 356 134 287 112
4 276 214 199 203
4 276 199 214 225
4 461 199 214 203
4 461 214 199 225
4 276 193 509 601
4 509 193 276 194
4 190 278 428 600
4 428 278 190 191
4 271 223 467 590
4 271 467 223 222
4 269 231 489 230
4 489 231 269 591
4 287 117 427 602
4 287 427 117 116
4 125 285 508 603
4 125 508 285 124
4 294 147 411 148
4 411 147 294 613
4 292 139 372 612
4 372 139 292 140
4 303 445 14 57
4 303 14 445 85
4 306 349 0 60
4 306 0 349 66
4 303 463 17 86
4 303 17 463 53
4 100 54 22 318
4 100 22 54 444
4 460 22 54 318
4 460 54 22 444
4 99 52 21 462
4 99 21 52 318
4 460 21 52 462
4 460 52 21 318
4 61 80 12 350
4 12 80 61 307
4 12 354 61 350
4 61 354 12 307
4 307 367 10 65
4 10 367 307 79
4 306 366 3 67
4 306 3 366 62
4 278 57 191 597
4 278 191 57 190
4 448 191 57 597
4 448 57 191 190
4 271 53 222 223
4 271 222 53 597
4 466 222 53 223
4 466 53 222 597
4 50 334 592 267
4 50 592 334 338
4 594 592 334 267
4 287 61 116 117
4 287 116 61 608
4 353 116 61 117
4 353 61 116 608
4 294 65 148 608
4 294 148 65 147
4 371 148 65 608
4 371 65 148 147
4 285 60 124 610
4 285 124 60 125
4 352 124 60 610
4 352 60 124 125
4 370 62 140 610
4 370 140 62 139
4 292 140 62 610
4 292 62 140 139
4 465 52 230 231
4 465 230 52 598
4 269 230 52 231
4 269 52 230 598
4 449 54 194 598
4 449 194 54 193
4 276 194 54 598
4 276 54 194 193
4 627 296 343 616
4 627 343 296 295
4 362 134 123 141
4 362 123 134 112
4 287 123 134 141
4 287 134 123 112
4 592 334 301 594
4 592 301 334 338

CELL_TYPES 3538
1
1
1
1
1
1
1
1
1
1
1
1
1
1
1
1
1
1
1
1
1
1
1
1
1
1
1
1
1
1
1
1
1
1
1
1
1
1
1
1
1
1
1
1
1
1
1
1
1
1
1
1
1
1
1
1
1
1
1
1
1
1
1
1
1
1
3
3
3
3
3
3
3
3
3
3
3
3
3
3
3
3
3
3
3
3
3
3
3
3
3
3
3
3
3
3
3
3
3
3
3
3
3
3
3
3
3
3
3
3
3
3
3
3
3
3
3
3
3
3
3
3
3
3
3
3
3
3
3
3
3
3
3
3
3
3
3
3
3
3
3
3
3
3
3
3
3
3
3
3
3
3
3
3
3
3
3
3
3
3
3
3
3
3
3
3
3
3
3
3
3
3
3
3
3
3
3
3
3
3
3
3
3
3
3
3
3
3
3
3
3
3
3
3
3
3
3
3
3
3
3
3
3
3
3
3
3
3
3
3
3
3
3
3
3
3
3
3
3
3
3
3
3
3
3
3
3
3
3
3
3
3
3
3
3
3
3
3
3
3
3
3
3
3
3
3
3
3
3
3
3
3
3
3
3
3
3
3
3
3
3
3
3
3
3
3
3
3
3
3
3
3
3
3
3
3
3
3
3
3
3
3
3
3
3
3
3
3
3
3
3
3
3
3
3
3
3
3
3
3
3
3
3
3
3
3
3
3
3
3
3
3
3
3
3
3
3
3
3
3
3
3
3
3
3
3
3
3
3
3
3
3
3
3
3
3
3
3
3
3
3
3
3
3
3
3
3
3
3
3
3
3
3
3
3
3
3
3
3
3
3
3
3
3
3
3
3
3
3
3
3
3
3
3
3
3
3
3
3
3
3
3
3
3
3
3
3
3
3
3
3
3
3
3
3
3
5
5
5
5
5
5
5
5
5
5
5
5
5
5
5
5
5
5
5
5
5
5
5
5
5
5
5
5
5
5
5
5
5
5
5
5
5
5
5
5
5
5
5
5
5
5
5
5
5
5
5
5
5
5
5
5
5
5
5
5
5
5
5
5
5
5
5
5
5
5
5
5
5
5
5
5
5
5
5
5
5
5
5
5
5
5
5
5
5
5
5
5
5
5
5
5
5
5
5
5
5
5
5
5
5
5
5
5
5
5
5
5
5
5
5
5
5
5
5
5
5
5
5
5
5
5
5
5
5
5
5
5
5
5
5
5
5
5
5
5
5
5
5
5
5
5
5
5
5
5
5
5
5
5
5
5
5
5
5
5
5
5
5
5
5
5
5
5
5
5
5
5
5
5
5
5
5
5
5
5
5
5
5
5
5
5
5
5
5
5
5
5
5
5
5
5
5
5
5
5
5
5
5
5
5
5
5
5
5
5
5
5
5
5
5
5
5
5
5
5
5
5
5
5
5
5
5
5
5
5
5
5
5
5
5
5
5
5
5
5
5
5
5
5
5
5
5
5
5
5
5
5
5
5
5
5
5
5
5
5
5
5
5
5
5
5
5
5
5
5
5
5
5
5
5
5
5
5
5
5
5
5
5
5
5
5
5
5
5
5
5
5
5
5
5
5
5
5
5
5
5
5
5
5
5
5
5
5
5
5
5
5
5
5
5
5
5
5
5
5
5
5
5
5
5
5
5
5
5
5
5
5
5
5
5
5
5
5
5
5
5
5
5
5
5
5
5
5
5
5
5
5
5
5
5
5
5
5
5
5
5
5
5
5
5
5
5
5
5
5
5
5
5
5
5
5
5
5
5
5
5
5
5
5
5
5
5
5
5
5
5
5
5
5
5
5
5
5
5
5
5
5
5
5
5
5
5
5
5
5
5
5
5
5
5
5
5
5
5
5
5
5
5
5
5
5
5
5
5
5
5
5
5
5
5
5
5
5
5
5
5
5
5
5
5
5
5
5
5
5
5
5
5
5
5
5
5
5
5
5
5
5
5
5
5
5
5
5
5
5
5
5
5
5
5
5
5
5
5
5
5
5
5
5
5
5
5
5
5
5
5
5
5
5
5
5
5
5
5
5
5
5
5
5
5
5
5
5
5
5
5
5
5
5
5
5
5
5
5
5
5
5
5
5
5
5
5
5
5
5
5
5
5
5
5
5
5
5
5
5
5
5
5
5
5
5
5
5
5
5
5
5
5
5
5
5
5
5
5
5
5
5
5
5
5
5
5
5
5
5
5
5
5
5
5
5
5
5
5
5
5
5
5
5
5
5
5
5
5
5
5
5
5
5
5
5
5
5
5
5
5
5
5
5
5
5
5
5
5
5
5
5
5
5
5
5
5
5
5
5
5
5
5
5
5
5
5
5
5
5
5
5
5
5
5
5
5
5
5
5
5
5
5
5
5
5
5
5
5
5
5
5
5
5
5
5
5
5
5
5
5
5
5
5
5
5
5
5
5
5
5
5
5
5
5
5
5
5
5
5
5
5
5
5
5
5
5
5
5
5
5
5
5
5
5
5
5
5
5
5
5
5
5
5
5
5
5
5
5
5
5
5
5
5
5
5
5
5
5
5
5
5
5
5
5
5
5
5
5
5
5
5
5
5
5
5
5
5
5
5
5
5
5
5
5
5
5
5
5
5
5
5
5
5
5
5
5
5
5
5
5
5
5
5
5
5
5
5
5
5
5
5
5
5
5
5
5
5
5
5
5
5
5
5
5
5
5
5
5
5
5
5
5
5
5
5
5
5
5
5
5
5
5
5
5
5
5
5
5
5
5
5
5
5
5
5
5
5
5
5
5
5
5
5
5
5
5
5
5
5
5
5
5
5
5
5
5
5
5
5
5
5
5
5
5
5
5
5
5
5
5
5
5
5
5
5
5
5
5
5
5
5
5
5
5
5
5
5
5
5
5
5
5
5
5
5
5
5
5
5
5
5
5
5
5
5
5
5
5
5
5
5
5
5
5
5
5
5
5
5
5
5
5
5
5
5
5
5
5
5
5
5
5
5
5
5
5
5
5
5
5
5
5
5
5
5
5
5
5
5
5
5
5
5
5
5
5
5
5
5
5
5
5
5
5
5
5
5
5
5
5
5
5
5
5
5
5
5
5
5
5
5
5
5
5
5
5
5
5
5
5
5
5
5
5
5
5
5
5
5
5
5
5
5
5
5
5
5
5
5
5
5
5
5
5
5
5
5
5
5
5
5
5
5
5
5
5
5
5
5
5
5
5
5
5
5
5
5
5
5
5
5
5
5
5
5
5
5
5
5
5
5
5
5
5
5
5
5
5
5
5
5
5
5
5
5
5
5
5
5
5
5
5
5
5
5
5
5
5
5
5
5
5
5
5
5
5
5
5
5
5
5
5
5
5
5
5
5
5
5
5
5
5
5
5
5
5
5
5
5
5
5
5
5
5
5
5
5
5
5
5
5
5
5
5
5
5
5
5
5
5
5
5
5
5
5
5
5
5
5
5
5
5
5
5
5
5
5
5
5
5
5
5
5
5
5
5
5
5
5
5
5
5
5
5
5
5
5
5
5
5
5
5
5
5
5
5
5
5
5
5
5
5
5
5
5
5
5
5
5
5
5
5
5
5
5
5
5
5
5
5
5
5
5
5
5
5
5
5
5
5
5
5
5
5
5
5
5
5
5
5
5
5
5
5
5
5
5
5
5
5
5
5
5
5
5
10
10
10
10
10
10
10
10
10
10
10
10
10
10
10
10
10
10
10
10
10
10
10
10
10
10
10
10
10
10
10
10
10
10
10
10
10
10
10
10
10
10
10
10
10
10
10
10
10
10
10
10
10
10
10
10
10
10
10
10
10
10
10
10
10
10
10
10
10
10
10
10
10
10
10
10
10
10
10
10
10
10
10
10
10
10
10
10
10
10
10
10
10
10
10
10
10
10
10
10
10
10
10
10
10
10
10
10
10
10
10
10
10
10
10
10
10
10
10
10
10
10
10
10
10
10
10
10
10
10
10
10
10
10
10
10
10
10
10
10
10
10
10
10
10
10
10
10
10
10
10
10
10
10
10
10
10
10
10
10
10
10
10
10
10
10
10
10
10
10
10
10
10
10
10
10
10
10
10
10
10
10
10
10
10
10
10
10
10
10
10
10
10
10
10
10
10
10
10
10
10
10
10
10
10
10
10
10
10
10
10
10
10
10
10
10
10
10
10
10
10
10
10
10
10
10
10
10
10
10
10
10
10
10
10
10
10
10
10
10
10
10
10
10
10
10
10
10
10
10
10
10
10
10
10
10
10
10
10
10
10
10
10
10
10
10
10
10
10
10
10
10
10
10
10
10
10
10
10
10
10
10
10
10
10
10
10
10
10
10
10
10
10
10
10
10
10
10
10
10
10
10
10
10
10
10
10
10
10
10
10
10
10
10
10
10
10
10
10
10
10
10
10
10
10
10
10
10
10
10
10
10
10
10
10
10
10
10
10
10
10
10
10
10
10
10
10
10
10
10
10
10
10
10
10
10
10
10
10
10
10
10
10
10
10
10
10
10
10
10
10
10
10
10
10
10
10
10
10
10
10
10
10
10
10
10
10
10
10
10
10
10
10
10
10
10
10
10
10
10
10
10
10
10
10
10
10
10
10
10
10
10
10
10
10
10
10
10
10
10
10
10
10
10
10
10
10
10
10
10
10
10
10
10
10
10
10
10
10
10
10
10
10
10
10
10
10
10
10
10
10
10
10
10
10
10
10
10
10
10
10
10
10
10
10
10
10
10
10
10
10
10
10
10
10
10
10
10
10
10
10
10
10
10
10
10
10
10
10
10
10
10
10
10
10
10
10
10
10
10
10
10
10
10
10
10
10
10
10
10
10
10
10
10
10
10
10
10
10
10
10
10
10
10
10
10
10
10
10
10
10
10
10
10
10
10
10
10
10
10
10
10
10
10
10
10
10
10
10
10
10
10
10
10
10
10
10
10
10
10
10
10
10
10
10
10
10
10
10
10
10
10
10
10
10
10
10
10
10
10
10
10
10
10
10
10
10
10
10
10
10
10
10
10
10
10
10
10
10
10
10
10
10
10
10
10
10
10
10
10
10
10
10
10
10
10
10
10
10
10
10
10
10
10
10
10
10
10
10
10
10
10
10
10
10
10
10
10
10
10
10
10
10
10
10
10
10
10
10
10
10
10
10
10
10
10
10
10
10
10
10
10
10
10
10
10
10
10
10
10
10
10
10
10
10
10
10
10
10
10
10
10
10
10
10
10
10
10
10
10
10
10
10
10
10
10
10
10
10
10
10
10
10
10
10
10
10
10
10
10
10
10
10
10
10
10
10
10
10
10
10
10
10
10
10
10
10
10
10
10
10
10
10
10
10
10
10
10
10
10
10
10
10
10
10
10
10
10
10
10
10
10
10
10
10
10
10
10
10
10
10
10
10
10
10
10
10
10
10
10
10
10
10
10
10
10
10
10
10
10
10
10
10
10
10
10
10
10
10
10
10
10
10
10
10
10
10
10
10
10
10
10
10
10
10
10
10
10
10
10
10
10
10
10
10
10
10
10
10
10
10
10
10
10
10
10
10
10
10
10
10
10
10
10
10
10
10
10
10
10
10
10
10
10
10
10
10
10
10
10
10
10
10
10
10
10
10
10
10
10
10
10
10
10
10
10
10
10
10
10
10
10
10
10
10
10
10
10
10
10
10
10
10
10
10
10
10
10
10
10
10
10
10
10
10
10
10
10
10
10
10
10
10
10
10
10
10
10
10
10
10
10
10
10
10
10
10
10
10
10
10
10
10
10
10
10
10
10
10
10
10
10
10
10
10
10
10
10
10
10
10
10
10
10
10
10
10
10
10
10
10
10
10
10
10
10
10
10
10
10
10
10
10
10
10
10
10
10
10
10
10
10
10
10
10
10
10
10
10
10
10
10
10
10
10
10
10
10
10
10
10
10
10
10
10
10
10
10
10
10
10
10
10
10
10
10
10
10
10
10
10
10
10
10
10
10
10
10
10
10
10
10
10
10
10
10
10
10
10
10
10
10
10
10
10
10
10
10
10
10
10
10
10
10
10
10
10
10
10
10
10
10
10
10
10
10
10
10
10
10
10
10
10
10
10
10
10
10
10
10
10
10
10
10
10
10
10
10
10
10
10
10
10
10
10
10
10
10
10
10
10
10
10
10
10
10
10
10
10
10
10
10
10
10
10
10
10
10
10
10
10
10
10
10
10
10
10
10
10
10
10
10
10
10
10
10
10
10
10
10
10
10
10
10
10
10
10
10
10
10
10
10
10
10
10
10
10
10
10
10
10
10
10
10
10
10
10
10
10
10
10
10
10
10
10
10
10
10
10
10
10
10
10
10
10
10
10
10
10
10
10
10
10
10
10
10
10
10
10
10
10
10
10
10
10
10
10
10
10
10
10
10
10
10
10
10
10
10
10
10
10
10
10
10
10
10
10
10
10
10
10
10
10
10
10
10
10
10
10
10
10
10
10
10
10
10
10
10
10
10
10
10
10
10
10
10
10
10
10
10
10
10
10
10
10
10
10
10
10
10
10
10
10
10
10
10
10
10
10
10
10
10
10
10
10
10
10
10
10
10
10
10
10
10
10
10
10
10
10
10
10
10
10
10
10
10
10
10
10
10
10
10
10
10
10
10
10
10
10
10
10
10
10
10
10
10
10
10
10
10
10
10
10
10
10
10
10
10
10
10
10
10
10
10
10
10
10
10
10
10
10
10
10
10
10
10
10
10
10
10
10
10
10
10
10
10
10
10
10
10
10
10
10
10
10
10
10
10
10
10
10
10
10
10
10
10
10
10
10
10
10
10
10
10
10
10
10
10
10
10
10
10
10
10
10
10
10
10
10
10
10
10
10
10
10
10
10
10
10
10
10
10
10
10
10
10
10
10
10
10
10
10
10
10
10
10
10
10
10
10
10
10
10
10
10
10
10
10
10
10
10
10
10
10
10
10
10
10
10
10
10
10
10
10
10
10
10
10
10
10
10
10
10
10
10
10
10
10
10
10
10
10
10
10
10
10
10
10
10
10
10
10
10
10
10
10
10
10
10
10
10
10
10
10
10
10
10
10
10
10
10
10
10
10
10
10
10
10
10
10
10
10
10
10
10
10
10
10
10
10
10
10
10
10
10
10
10
10
10
10
10
10
10
10
10
10
10
10
10
10
10
10
10
10
10
10
10
10
10
10
10
10
10
10
10
10
10
10
10
10
10
10
10
10
10
10
10
10
10
10
10
10
10
10
10
10
10
10
10
10
10
10
10
10
10
10
10
10
10
10
10
10
10
10
10
10
10
10
10
10
10
10
10
10
10
10
10
10
10
10
10
10
10
10
10
10
10
10
10
10
10
10
10
10
10
10
10
10
10
10
10
10
10
10
10
10
10
10
10
10
10
10
10
10
10
10
10
10
10
10
10
10
10
10
10
10
10
10
10
10
10
10
10
10
10
10
10
10
10
10
10
10
10
10
10
10
10
10
10
10
10
10
10
10
10
10
10
10
10
10
10
10
10
10
10
10
10
10
10
10
10
10
10
10
10
10
10
10
10
10
10
10
10
10
10
10
10
10
10
10
10
10
10
10
10
10
10
10
10
10
10
10
10
10
10
10
10
10
10
10
10
10
10
10
10
10
10
10
10
10
10
10
10
10
10
10
10
10
10
10
10
10
10
10
10
10
10
10
10
10
10
10
10
10
10
10
10
10
10
10
10
10
10
10
10
10
10
10
10
10
10
10
10
10
10
10
10
10
10
10
10
10
10
10
10
10
10
10
10
10
10
10
10
10
10
10
10
10
10
10
10
10
10
10
10
10
10
10
10
10
10
10
10
10
10
10
10
10
10
10
10
10
10
10
10
10
10
10
10
10
10
10
10
10
10
10
10
10
10
10
10
10
10
10
10
10
10
10
10
10
10
10
10
10
10
10
10
10
10
10
10
10
10
10
10
10
10
10
10
10
10
10
10
10
10
10
10
10
10
10
10
10
10
10
10
10
10
10
10
10
10
10
10
10
10
10
10
10
10
10
10
10
10
10
10
10
