# vtk DataFile Version 2.0
, Created by Gmsh 4.11.1 
ASCII
DATASET UNSTRUCTURED_GRID
POINTS 542 double
8.75 0 -44.28818059140875
11.57359666873795 0 -41.12155302289232
11.57359666873795 0 -38.87844697710768
8.75 0 -35.71181940859125
8.75 0 -3
11.75 0 -3
11.75 0 0
-11.75 0 0
-11.75 0 -3
-8.75 0 -3
-8.75 1.071565949253934e-15 -35.71181940859125
-11.57359666873795 1.41735681149924e-15 -38.87844697710768
-11.57359666873795 1.41735681149924e-15 -41.12155302289232
-8.75 1.071565949253934e-15 -44.28818059140875
-8.75 1.071565949253934e-15 -75.71181940859125
-11.57359666873795 1.41735681149924e-15 -78.87844697710767
-11.57359666873795 1.41735681149924e-15 -81.12155302289233
-8.75 1.071565949253934e-15 -84.28818059140875
-8.75 0 -120
8.75 0 -120
8.75 0 -84.28818059140875
11.57359666873795 0 -81.12155302289233
11.57359666873795 0 -78.87844697710767
8.75 0 -75.71181940859125
8.749999999999998 7.575331006010374 -41.12155302289232
8.749999999999998 7.575331006010374 -38.87844697710768
8.75 7.575331006010372 -39.11474354749596
8.13209414279558 8.235118985377923 -38.87844697710768
-8.132094142795578 8.235118985377925 -38.87844697710768
-8.75 7.575331006010372 -39.11474354749596
-8.75 7.575331006010373 -38.87844697710768
-8.75 7.575331006010373 -41.12155302289232
-8.75 7.575331006010375 -40.88525645250405
-8.132094142795594 8.235118985377909 -41.12155302289232
8.132094142795596 8.235118985377907 -41.12155302289232
8.75 7.575331006010375 -40.88525645250405
8.75 20 -3
8.75 20 -34.66497064574717
11.75 23 -3
-11.75 23 -3
-8.75 20 -3
11.75 23 0
-11.75 23 0
-8.75 20 -34.66497064574717
-8.75 20 -45.33502935425283
-8.75 20 -74.66497064574716
-8.75 7.575331006010372 -79.11474354749595
-8.75 7.575331006010373 -78.87844697710767
8.749999999999998 7.575331006010374 -78.87844697710767
8.75 7.575331006010372 -79.11474354749595
8.132094142795571 8.235118985377932 -78.87844697710767
-8.132094142795573 8.23511898537793 -78.87844697710767
-8.75 7.575331006010373 -81.12155302289231
-8.75 7.575331006010375 -80.88525645250404
-8.132094142795609 8.235118985377895 -81.12155302289231
8.132094142795607 8.235118985377897 -81.12155302289231
8.75 7.575331006010375 -80.88525645250404
8.749999999999998 7.575331006010374 -81.12155302289231
-8.75 20 -85.33502935425282
-8.75 20 -114.6649706457472
-8.75 5.103515333611985 -120
8.75 5.103515333611985 -120
8.75 20 -85.33502935425282
8.75 20 -114.6649706457472
8.75 20 -45.33502935425283
8.75 20 -74.66497064574716
4.120896888102894 3.284186608868401 -84.28818059140875
-4.120896888102894 3.284186608868401 -84.28818059140875
7.396782910529891 3.284186608868401 -81.12155302289233
-7.39678291052989 3.284186608868403 -81.12155302289233
7.396782910529891 3.284186608868401 -78.87844697710767
4.120896888102894 3.284186608868401 -75.71181940859125
-4.120896888102894 3.284186608868401 -75.71181940859125
-7.39678291052989 3.284186608868403 -78.87844697710767
4.120896888102894 3.284186608868401 -44.28818059140875
-4.120896888102894 3.284186608868401 -44.28818059140875
7.396782910529891 3.284186608868401 -41.12155302289232
-7.39678291052989 3.284186608868403 -41.12155302289232
7.396782910529891 3.284186608868401 -38.87844697710768
4.120896888102894 3.284186608868401 -35.71181940859125
-4.120896888102894 3.284186608868401 -35.71181940859125
-7.39678291052989 3.284186608868403 -38.87844697710768
8.75 0 -29.169455526873
8.75 0 -22.62709164515476
8.75 0 -16.08472776343652
8.75 0 -9.542363881718291
5.875000000000016 0 0
3.730349362740526e-14 0 0
-5.874999999999972 0 0
-8.75 0 -9.542363881718257
-8.75 0 -16.0847277634365
-8.75 0 -22.62709164515475
-8.75 0 -29.16945552687299
-8.75 0 -50.57290835484524
-8.75 0 -56.85763611828174
-8.75 0 -63.14236388171825
-8.75 0 -69.42709164515475
-8.75 0 -90.24015049284061
-8.75 0 -96.19212039427248
-8.75 0 -102.1440902957044
-8.75 0 -108.0960601971362
-8.75 0 -114.0480300985681
2.916666666666666 0 -120
-2.916666666666668 0 -120
8.75 0 -90.24015049284061
8.75 0 -96.19212039427248
8.75 0 -102.1440902957044
8.75 0 -108.0960601971362
8.75 0 -114.0480300985681
8.75 0 -50.57290835484524
8.75 0 -56.85763611828174
8.75 0 -63.14236388171825
8.75 0 -69.42709164515475
10.8447478233032 4.042225191597138 -41.12155302289232
8.749999999999998 4.021809725100322 -43.30123961333184
10.8447478233032 4.042225191597138 -38.87844697710768
2.972004748343615 11.18549630666629 -38.87844697710768
-2.972004748343629 11.18549630666628 -38.87844697710768
-10.8447478233032 4.042225191597153 -38.87844697710768
-10.8447478233032 4.042225191597153 -41.12155302289232
2.97200474834362 11.18549630666628 -41.12155302289232
-2.972004748343638 11.18549630666628 -41.12155302289232
8.749999999999998 4.021809725100328 -36.69876038666816
8.75 6.666666666666651 -3
8.75 13.33333333333329 -3
8.75 20 -28.33197651659773
8.75 20 -21.9989823874483
8.75 20 -15.66598825829886
8.75 20 -9.332994129149444
8.75 13.78766550300519 -36.88985709662155
-5.875000000000016 23 -3
-3.730349362740526e-14 23 -3
5.874999999999972 23 -3
-11.75 5.749999999999988 -3
-11.75 11.49999999999999 -3
-11.75 17.24999999999999 -3
-8.75 13.33333333333335 -3
-8.75 6.666666666666705 -3
-2.916666666666666 20 -3
2.916666666666668 20 -3
11.75 5.749999999999988 -3
11.75 11.49999999999999 -3
11.75 17.24999999999999 -3
11.75 5.749999999999988 0
11.75 11.49999999999999 0
11.75 17.24999999999999 0
-5.875000000000016 23 0
-3.730349362740526e-14 23 0
5.874999999999972 23 0
-11.75 5.749999999999988 0
-11.75 11.49999999999999 0
-11.75 17.24999999999999 0
-8.75 20 -9.332994129149441
-8.75 20 -15.66598825829887
-8.75 20 -21.9989823874483
-8.75 20 -28.33197651659772
-8.75 13.78766550300519 -36.88985709662155
-8.750000000000002 4.021809725100327 -36.69876038666816
-8.750000000000002 4.021809725100324 -43.30123961333184
-8.75 13.78766550300519 -43.11014290337844
-8.75 20 -68.79898238744829
-8.75 20 -62.93299412914943
-8.75 20 -57.06700587085056
-8.75 20 -51.20101761255168
-8.75 13.78766550300519 -76.88985709662155
-8.750000000000002 4.021809725100327 -76.69876038666816
-10.8447478233032 4.042225191597153 -78.87844697710767
10.8447478233032 4.042225191597138 -78.87844697710767
2.97200474834361 11.18549630666629 -78.87844697710767
-2.972004748343629 11.18549630666628 -78.87844697710767
-10.8447478233032 4.042225191597153 -81.12155302289231
2.972004748343625 11.18549630666628 -81.12155302289231
-2.972004748343648 11.18549630666628 -81.12155302289231
10.8447478233032 4.042225191597138 -81.12155302289231
-8.750000000000002 4.021809725100324 -83.30123961333184
-8.75 13.78766550300518 -83.11014290337843
-8.75 20 -108.7989823874483
-8.75 20 -102.9329941291494
-8.75 20 -97.06700587085055
-8.75 20 -91.20101761255168
-8.75 10.06901022240798 -118.2216568819157
-8.75 15.03450511120399 -116.4433137638314
2.916666666666666 5.103515333611985 -120
-2.916666666666668 5.103515333611985 -120
8.749999999999998 4.021809725100322 -83.30123961333186
8.75 13.78766550300518 -83.11014290337843
8.75 20 -108.7989823874483
8.75 20 -102.9329941291494
8.75 20 -97.06700587085055
8.75 20 -91.20101761255168
8.75 10.06901022240798 -118.2216568819157
8.75 15.03450511120399 -116.4433137638314
8.749999999999998 4.021809725100328 -76.69876038666814
8.75 13.78766550300519 -43.11014290337844
8.75 20 -68.79898238744829
8.75 20 -62.93299412914943
8.75 20 -57.06700587085056
8.75 20 -51.20101761255168
8.75 13.78766550300519 -76.88985709662155
2.916666666666666 20 -34.66497064574717
-2.916666666666668 20 -34.66497064574717
-2.879857405032623 10.47082397247492 -38.07775124246064
2.87985740503262 10.47082397247492 -38.07775124246064
2.879857405032628 10.47082397247491 -41.92224875753936
-2.879857405032618 10.47082397247492 -41.92224875753936
2.916666666666666 20 -45.33502935425283
-2.916666666666668 20 -45.33502935425283
2.916666666666666 20 -74.66497064574716
-2.916666666666668 20 -74.66497064574716
-2.879857405032618 10.47082397247493 -78.07775124246064
2.879857405032614 10.47082397247493 -78.07775124246064
2.879857405032638 10.47082397247492 -81.92224875753936
-2.879857405032634 10.47082397247492 -81.92224875753936
2.916666666666666 20 -85.33502935425282
-2.916666666666668 20 -85.33502935425282
2.916666666666666 20 -114.6649706457472
-2.916666666666668 20 -114.6649706457472
-1.137798536775795e-14 5.269504041581773 -84.28818059140875
8.881784197001252e-16 3.284186608868401 -84.28818059140875
5.787686454282366 3.284186608868401 -82.73485573264034
3.034290486599164 7.502756850005961 -81.12155302289231
-3.034290486599141 7.502756850005971 -81.12155302289231
-5.787686454282363 3.284186608868401 -82.73485573264034
5.787686454282363 3.284186608868401 -77.26514426735966
0 3.284186608868401 -75.71181940859125
-5.787686454282364 3.284186608868401 -77.26514426735966
3.034290486599164 7.502756850005961 -78.87844697710767
-3.034290486599141 7.502756850005971 -78.87844697710767
-1.137798536775795e-14 5.269504041581773 -75.71181940859125
-1.137798536775795e-14 5.269504041581773 -44.28818059140875
8.881784197001252e-16 3.284186608868401 -44.28818059140875
5.787686454282366 3.284186608868401 -42.73485573264034
3.034290486599164 7.502756850005961 -41.12155302289232
-3.034290486599141 7.502756850005971 -41.12155302289232
-5.787686454282363 3.284186608868401 -42.73485573264034
5.787686454282363 3.284186608868401 -37.26514426735966
0 3.284186608868401 -35.71181940859125
-5.787686454282364 3.284186608868401 -37.26514426735966
3.034290486599164 7.502756850005961 -38.87844697710768
-3.034290486599141 7.502756850005971 -38.87844697710768
-1.137798536775795e-14 5.269504041581773 -35.71181940859125
-3.717832094641571 0 -86.7221442287521
-3.807321232578705 0 -73.02206930460757
-4.250185151734346 0 -47.65215917803687
4.139582798501869 0 -32.0861478161974
7.471561444711186 0 -39.83889709083289
-9.013816373690164 0 -39.76712508844452
-9.013816373690162 0 -79.76712508844452
9.01381637369016 0 -79.76712508844452
0 0 -115.5965870038067
-3.757782958010047 0 -99.1681053449884
-3.529618016655892 0 -59.99999999999999
-2.821234869289592 0 -4.118472486415087
3.084146677630239 0 -19.35590970429564
4.937424957749615 0 -78.86125134606027
-4.622477836411138 0 -38.82696268889111
3.780018559407015 0 -105.1200752464203
3.865468637942703 0 -92.73376334828376
3.460769477639327 0 -53.47595667308047
3.743075855690699 0 -66.28472776343651
-3.084146677630228 0 -12.81354582257739
-3.084146677630239 0 -25.89827358601387
3.582456941589459 0 -42.37065470623235
3.710306946349115 0 -5.679879059332563
2.005393660431777 0 -83.50750245587521
-4.016929514753544 0 -32.87495269384652
-4.532128972164122 0 -79.60699606365642
3.094596940900106 0 -72.46509628338623
-2.61218717442899 0 -54.04769158908907
2.731749434397555 0 -60.00678599045499
-2.502843071533797 0 -66.32095638840616
3.521801155044088 0 -12.01759156461718
-3.879173792967745 0 -19.35590970429563
3.578798410824903 0 -26.50569853964928
-1.983188790829054 0 -105.1200752464203
-2.439617402288486 0 -93.34122842819869
2.423556863746019 0 -99.11706547204118
-3.667599205987079 0 -111.3457052388589
3.437404901695177 0 -110.8927399627074
4.644418830292627 0 -47.43054447312699
1.704192998514444 0 -36.83308787491247
-0.7538223388380878 0 -8.308416740926674
0.9273811750476924 0 -88.84246052710924
-1.280689455498017 0 -43.47858835142284
4.570840646175224 0 -115.8191724310005
-4.582824939401583 0 -115.8427545465852
0.3395930708677346 0 -77.49258309071715
5.157889625377367 0 -87.73434121425242
0.05929160911104425 0 -49.3764716947878
-4.831840777151584 0 -7.556559786327483
0.06319743927697097 0 -30.240723725674
9.92933859655135 1.790347303527553 -42.78599858530944
-11.41056854284557 1.935733809087703 -40
11.41056854284559 1.935733809087592 -40
9.929338596551217 1.790347303527529 -37.21400141469041
8.749999999999998 14.8635548162526 -19.00696011668094
8.749999999999998 7.993246500889062 -35.13043027233519
8.749999999999998 5.038513937067488 -26.16077257045945
8.749999999999998 5.06339869621594 -12.84557719180355
8.749999999999998 10.11951176436437 -30.02777216061028
8.749999999999998 4.999729427752899 -19.40499809657426
8.749999999999998 14.8740473080263 -12.60744646583117
8.749999999999998 15.22753390107707 -25.58187606794407
8.749999999999998 9.998589551142468 -8.618107893937486
8.749999999999998 3.714205600326601 -32.43022629617424
8.749999999999998 9.983804029705745 -22.62709164515476
8.749999999999998 9.96385397151599 -15.85169690166369
8.749999999999998 4.635644268965958 -7.63409458837107
8.749999999999998 15.64119403850041 -7.311709697783618
8.749999999999998 15.99019668010372 -31.21334280712367
10.25 3.10416666666666 -3
-10.25 3.104166666666674 -3
11.75 20.125 -1.5
11.75 14.37499999999999 -1.500000000000001
11.75 8.624999999999988 -1.5
11.75 2.874999999999994 -1.5
3.157610638484556 18.22886740495932 0
-2.707174061168084 4.878797530676509 0
7.069955745470662 8.716546370640001 0
-6.619519168154188 14.39111856499582 0
7.102873022115113 14.37499999999999 0
0.1126091443291166 11.52691623390895 0
-7.000954855602265 8.644857627020135 0
-2.792058517349997 18.15992185565015 0
2.948495529093417 4.721447277005963 0
-7.528051718759411 18.81262893003678 0
7.528051718759418 4.187371069963205 0
7.820492259183636 19.07601590637069 0
-7.553981076842906 4.160878030182232 0
-11.75 20.125 -1.5
-11.75 14.37499999999999 -1.5
-11.75 8.624999999999989 -1.5
-11.75 2.874999999999994 -1.5
-8.750000000000002 14.8635548162526 -19.00696011668093
-8.750000000000002 8.007070366958118 -35.07409766458051
-8.750000000000002 5.050033825458369 -26.11382873066388
-8.750000000000002 5.063398696215954 -12.84557719180352
-8.750000000000002 10.13300649076511 -29.97278080542118
-8.750000000000002 5.001649409151383 -19.39717412327499
-8.750000000000002 14.8740473080263 -12.60744646583116
-8.750000000000002 15.22978302214386 -25.57271084207922
-8.750000000000002 9.998589551142505 -8.618107893937466
-8.750000000000002 4.07801152058954 -32.21408005301846
-8.750000000000002 9.983804029705745 -22.62709164515475
-8.750000000000002 9.964173968415748 -15.8503929061138
-8.750000000000002 4.635644268965967 -7.634094588371052
-8.750000000000002 15.64119403850043 -7.311709697783613
-8.750000000000002 15.99244580117051 -31.20417758125882
-10.13326607263511 1.884740327666726 -37.4580336740423
-10.13326607263512 1.88474032766681 -42.54196632595767
-8.750000000000002 15.08228415622942 -60
-8.750000000000002 7.99324650088906 -75.13043027233519
-8.750000000000002 8.000748047904134 -44.90013884359131
-8.750000000000002 5.034460380777126 -53.54265644496044
-8.750000000000002 5.028209091597899 -66.48281771831164
-8.750000000000002 10.17896323434635 -49.74902200120604
-8.750000000000002 10.17164029559354 -70.28081917862696
-8.750000000000002 5.05880970548004 -60.00424569387867
-8.750000000000002 15.28103824236702 -53.85711751438205
-8.750000000000002 15.27981775257489 -66.14785601559011
-8.750000000000002 3.717762036190509 -72.50103652441834
-8.750000000000002 3.737925329471233 -47.58112942300639
-8.750000000000002 10.1276425636214 -63.29556245411485
-8.750000000000002 10.12719971380356 -56.74143401809035
-8.750000000000002 15.84953339594371 -48.6504658771542
-8.750000000000002 15.84782471023473 -71.35649706480682
-10.1332660726351 1.884740327666747 -77.4580336740423
-11.41056854284557 1.935733809087713 -80
11.41056854284559 1.935733809087604 -80
-10.13326607263511 1.884740327666827 -82.54196632595767
-8.750000000000002 15.06660198709238 -105.6481017961253
-8.750000000000002 15.42997960131713 -93.60582587425078
-8.750000000000002 7.965770537882662 -84.740777913231
-8.750000000000002 5.154557137200357 -99.16810534498842
-8.750000000000002 5.389812095368504 -110.5994685253098
-8.750000000000002 10.46905950846541 -113.3828034484291
-8.750000000000002 5.037961146233854 -104.9849090995798
-8.750000000000002 4.899874909237317 -92.9939083421544
-8.750000000000002 15.01939550197655 -99.59835639339217
-8.750000000000002 10.14625940125747 -89.45356635040201
-8.750000000000002 15.59941295429173 -111.4176867955629
-8.750000000000002 3.700727927483467 -87.38600483214344
-8.750000000000002 6.206279431970776 -115.2503917908445
-8.750000000000002 9.819145560523701 -102.1440902957044
-8.750000000000002 9.901796065425861 -96.18064871274049
-8.750000000000002 10.12573788741916 -107.951832834933
-8.750000000000002 15.98843771995442 -88.4630898659486
5.833333333333333 2.551757666805993 -120
-1.77635683940025e-15 2.551757666805992 -120
-5.833333333333334 2.551757666805991 -120
8.749999999999998 15.06660198709238 -105.6481017961253
8.749999999999998 15.42997960131713 -93.60582587425078
8.749999999999998 7.965770537882663 -84.740777913231
8.749999999999998 5.154557137200357 -99.16810534498842
8.749999999999998 4.984375748431003 -111.5172608858775
8.749999999999998 10.40148678397583 -113.535768841857
8.749999999999998 4.97038842174427 -105.1378744930078
8.749999999999998 4.899874909237318 -92.9939083421544
8.749999999999998 15.01939550197655 -99.59835639339217
8.749999999999998 10.14625940125747 -89.45356635040201
8.749999999999998 15.59366697431812 -111.4306940569088
8.749999999999998 3.700727927483465 -87.38600483214344
8.749999999999998 6.622029151046558 -116.0597403317869
8.749999999999998 9.900860495226764 -102.1983127945305
8.749999999999998 9.906759314618224 -96.18394211038543
8.749999999999998 10.01151976330078 -108.0061240573852
8.749999999999998 15.98843771995442 -88.4630898659486
8.749999999999998 2.954934391199828 -116.6673779135506
9.929338596551567 1.790347303527598 -82.78599858530919
9.929338596551144 1.790347303527516 -77.21400141469032
8.749999999999998 15.08228415622942 -60
8.749999999999998 8.000748047904134 -44.90013872359131
8.749999999999998 7.993246500889063 -75.13043027233519
8.749999999999998 5.034460380777126 -53.54265644496044
8.749999999999998 5.028209091597899 -66.48281771831164
8.749999999999998 10.17164029559354 -70.28081917862696
8.749999999999998 10.17896323434635 -49.74902198406319
8.749999999999998 5.05880970548004 -60.00424569387867
8.749999999999998 15.27981775257489 -66.14785601559011
8.749999999999998 15.28103824236702 -53.8571175115249
8.749999999999998 3.737925329471233 -47.58112941134458
8.749999999999998 3.717762036190509 -72.50103652441834
8.749999999999998 10.1276425636214 -63.29556245411485
8.749999999999998 10.12719971380356 -56.74143401475701
8.749999999999998 15.84953339594371 -48.65046587315421
8.749999999999998 15.84782471023473 -71.35649706480682
0 15.7882189079925 -36.17337858646405
5.201869536371881 15.69103491745712 -36.20818407607327
-5.201869536371884 15.69103491745712 -36.20818407607327
-6.399180033824521 11.21278631956098 -37.81202473113235
6.399180033824516 11.21278631956098 -37.81202473113235
0 15.7882189079925 -43.82662141353595
-5.201869536371881 15.69103491745712 -43.79181592392673
5.201869536371882 15.69103491745712 -43.79181592392673
-6.399180033824518 11.21278631956097 -42.18797526886764
6.399180033824527 11.21278631956097 -42.18797526886764
-1.77635683940025e-15 20 -29.61315579033794
1.77635683940025e-15 20 -8.051814855409225
-3.265466202138891 20 -18.83248532287359
3.265466202138892 20 -18.83248532287358
3.587176376687299 20 -11.95136331970223
-3.5871763766873 20 -25.71360732604494
3.217347934782437 20 -24.98354803722739
-3.217347934782437 20 -12.68142260851978
-4.800768608670793 20 -30.59773618489499
4.800768608670792 20 -7.067234460852179
-4.575156563673696 20 -7.325406158758103
4.575156563673691 20 -30.33956448698907
8.812499999999986 23 -1.5
2.937499999999966 23 -1.5
-8.812500000000007 23 -1.5
-2.937500000000027 23 -1.499999999999999
1.77635683940025e-15 20 -49.69108116167637
0 20 -70.30891883832362
-3.66990515001195 20 -60
3.669905150011949 20 -59.99999999999999
2.560780522203137 20 -65.47181160344928
3.599228134238986 20 -53.61621979597582
-2.627206625870686 20 -54.45421811858994
-3.911060143682267 20 -66.18891385585866
4.595489437773961 20 -70.7819308241431
-4.489674515333807 20 -70.39579761092482
-4.608774658507469 20 -49.20327512026473
4.489674515333801 20 -49.60420238907516
0 15.78821890799251 -76.17337858646405
5.20186953637188 15.69103491745713 -76.20818407607327
-5.201869536371879 15.69103491745713 -76.20818407607327
6.399180033824509 11.21278631956099 -77.81202473113235
-6.399180033824514 11.21278631956099 -77.81202473113235
0 15.7882189079925 -83.82662141353593
5.201869536371886 15.69103491745712 -83.79181592392673
-5.201869536371888 15.69103491745712 -83.79181592392673
6.399180033824537 11.21278631956096 -82.18797526886763
-6.399180033824537 11.21278631956095 -82.18797526886763
0 20 -110.3089188383236
1.77635683940025e-15 20 -89.69108116167638
-1.975727835712581 20 -100
3.94599678547901 20 -100
-3.682912078590711 20 -106.1301678224444
-3.682912078590707 20 -93.86983217755557
3.468551630110575 20 -105.6841327903833
3.468551630110576 20 -94.31586720961668
-4.489674515333796 20 -89.60420238907517
-4.489674515333807 20 -110.3957976109248
4.489674515333805 20 -110.3957976109248
4.489674515333801 20 -89.60420238907517
-4.861111111111109 12.55175766680599 -117.3324853228736
4.861111111111111 12.55175766680599 -117.3324853228736
-1.77635683940025e-15 15.74130958877863 -116.1901786974029
0 9.362205744833355 -118.4747919483443
-5.055555555555555 8.43800086025426 -118.8057868306267
5.055555555555555 8.43800086025426 -118.8057868306267
5.055555555555555 16.66551447335772 -115.8591838151204
-5.055555555555557 16.66551447335772 -115.8591838151204
-4.292767896071977 5.006590574093021 -82.80167249134816
4.292767896071977 5.006590574093021 -82.80167249134816
2.060448444051449 3.284186608868401 -81.5172133519085
-2.060448444051447 3.284186608868401 -78.4827866480915
5.254611269727638 3.284186608868401 -79.99954687623304
-5.081639269621233 3.284186608868401 -80.03898618306036
2.527199102018814 3.284186608868401 -78.11472166012919
-2.498370435334417 3.284186608868401 -81.89170051641969
5.656979588199794 5.787647280723702 -80
-4.292767896071982 5.006590574093027 -77.19832750865184
4.292767896071981 5.006590574093025 -77.19832750865184
-4.292767896071977 5.006590574093021 -42.80167249134816
4.292767896071977 5.006590574093021 -42.80167249134816
2.060448444051449 3.284186608868401 -41.51721335190849
-2.060448444051447 3.284186608868401 -38.4827866480915
5.081639269621229 3.284186608868401 -39.96101381693964
-5.254611269727641 3.284186608868401 -40.00045312376696
-2.527199102018816 3.284186608868401 -41.8852783398708
2.498370435334413 3.284186608868401 -38.1082994835803
5.656979588199794 5.787647280723702 -40
-4.292767896071979 5.006590574093023 -37.19832750865184
4.292767896071975 5.006590574093021 -37.19832750865184
-0.1665534126752555 9.568024686429032 -39.91428087641244
0.000813823862108265 9.284230774412716 -92.79234028392112
-0.01583068860633574 11.39109037968448 -104.9730707123815
0.3171191533413507 8.22995506785416 -52.62344534478389
0.008175517889146097 8.770887257991774 -27.06596189745221
-1.750171008669373e-15 10.84373853418067 -68.76670007813223
-7.549516567451064e-15 8.703824982309436 -11.55359574945216
-0.905394339987458 11.72203665537117 -60.32036430368926
-1.293518834361167 11.29779637441702 -19.29939353839986
1.974916817861526 8.119251455683582 -111.3823906624901
-3.015069664189298 7.279507591523407 -71.74515745334654
3.142681181143483 7.302917827616736 -71.7327618769455
3.339424411851019 7.790038943928537 -32.0821175851539
3.599799615845662 7.836042868934118 -47.77097130820275
-3.439259708377297 7.133871991580444 -47.78347108472923
-3.322332667958895 7.064245107307626 -32.07296757753086
2.151965463821278 13.58443464676525 -6.348245845414645
-1.719057125851408 6.969290673196042 -99.46298224214331
1.907034482948038 13.34179804354982 -98.36570618678694
-2.838394591506612 12.73127312223396 -111.0740694223674
3.111162533165983 8.136891305895418 -87.56929098616455
-3.348550741425928 6.49413033109872 -88.04552763959643
-2.322303019883165 13.91521246228442 -49.61644496826043
2.383194515154296 6.465303207109492 -63.73858247324895
-2.349915147505035 13.93513021138782 -30.35153126938392
-2.847220413678782 13.88691396508996 -89.38780375567059

CELLS 2987 13105
1 0
1 1
1 2
1 3
1 4
1 5
1 6
1 7
1 8
1 9
1 10
1 11
1 12
1 13
1 14
1 15
1 16
1 17
1 18
1 19
1 20
1 21
1 22
1 23
1 24
1 25
1 26
1 27
1 28
1 29
1 30
1 31
1 32
1 33
1 34
1 35
1 36
1 37
1 38
1 39
1 40
1 41
1 42
1 43
1 44
1 45
1 46
1 47
1 48
1 49
1 50
1 51
1 52
1 53
1 54
1 55
1 56
1 57
1 58
1 59
1 60
1 61
1 62
1 63
1 64
1 65
1 66
1 67
1 68
1 69
1 70
1 71
1 72
1 73
1 74
1 75
1 76
1 77
1 78
1 79
1 80
1 81
2 0 1
2 1 2
2 2 3
2 3 82
2 82 83
2 83 84
2 84 85
2 85 4
2 4 5
2 5 6
2 6 86
2 86 87
2 87 88
2 88 7
2 8 7
2 8 9
2 9 89
2 89 90
2 90 91
2 91 92
2 92 10
2 11 10
2 12 11
2 13 12
2 13 93
2 93 94
2 94 95
2 95 96
2 96 14
2 15 14
2 16 15
2 17 16
2 17 97
2 97 98
2 98 99
2 99 100
2 100 101
2 101 18
2 19 102
2 102 103
2 103 18
2 20 104
2 104 105
2 105 106
2 106 107
2 107 108
2 108 19
2 20 21
2 21 22
2 22 23
2 0 109
2 109 110
2 110 111
2 111 112
2 112 23
2 1 113
2 113 24
2 24 114
2 114 0
2 2 115
2 115 25
2 26 25
2 27 26
2 27 116
2 116 117
2 117 28
2 29 28
2 29 30
2 30 118
2 118 11
2 31 119
2 119 12
2 31 32
2 33 32
2 34 120
2 120 121
2 121 33
2 35 34
2 24 35
2 3 122
2 122 25
2 4 123
2 123 124
2 124 36
2 37 125
2 125 126
2 126 127
2 127 128
2 128 36
2 26 129
2 129 37
2 39 130
2 130 131
2 131 132
2 132 38
2 8 133
2 133 134
2 134 135
2 135 39
2 40 136
2 136 137
2 137 9
2 40 138
2 138 139
2 139 36
2 5 140
2 140 141
2 141 142
2 142 38
2 6 143
2 143 144
2 144 145
2 145 41
2 38 41
2 42 146
2 146 147
2 147 148
2 148 41
2 7 149
2 149 150
2 150 151
2 151 42
2 39 42
2 40 152
2 152 153
2 153 154
2 154 155
2 155 43
2 29 156
2 156 43
2 10 157
2 157 30
2 31 158
2 158 13
2 44 159
2 159 32
2 45 160
2 160 161
2 161 162
2 162 163
2 163 44
2 46 164
2 164 45
2 46 47
2 14 165
2 165 47
2 47 166
2 166 15
2 22 167
2 167 48
2 49 48
2 50 49
2 50 168
2 168 169
2 169 51
2 46 51
2 52 170
2 170 16
2 52 53
2 54 53
2 55 171
2 171 172
2 172 54
2 56 55
2 57 56
2 21 173
2 173 57
2 52 174
2 174 17
2 58 175
2 175 53
2 59 176
2 176 177
2 177 178
2 178 179
2 179 58
2 60 180
2 180 181
2 181 59
2 18 60
2 61 182
2 182 183
2 183 60
2 19 61
2 57 184
2 184 20
2 62 185
2 185 56
2 63 186
2 186 187
2 187 188
2 188 189
2 189 62
2 61 190
2 190 191
2 191 63
2 23 192
2 192 48
2 64 193
2 193 35
2 65 194
2 194 195
2 195 196
2 196 197
2 197 64
2 49 198
2 198 65
2 37 199
2 199 200
2 200 43
2 28 201
2 201 202
2 202 27
2 34 203
2 203 204
2 204 33
2 64 205
2 205 206
2 206 44
2 65 207
2 207 208
2 208 45
2 51 209
2 209 210
2 210 50
2 55 211
2 211 212
2 212 54
2 62 213
2 213 214
2 214 58
2 63 215
2 215 216
2 216 59
2 66 217
2 217 67
2 67 218
2 218 66
2 66 219
2 219 68
2 68 220
2 220 221
2 221 69
2 69 222
2 222 67
2 68 70
2 70 223
2 223 71
2 71 224
2 224 72
2 72 225
2 225 73
2 69 73
2 70 226
2 226 227
2 227 73
2 71 228
2 228 72
2 74 229
2 229 75
2 75 230
2 230 74
2 74 231
2 231 76
2 76 232
2 232 233
2 233 77
2 77 234
2 234 75
2 76 78
2 78 235
2 235 79
2 79 236
2 236 80
2 80 237
2 237 81
2 77 81
2 78 238
2 238 239
2 239 81
2 79 240
2 240 80
3 1 245 0
3 0 279 109
3 245 262 0
3 262 279 0
3 2 245 1
3 3 245 2
3 82 244 3
3 244 280 3
3 3 280 245
3 6 4 5
3 86 4 6
3 4 263 85
3 86 263 4
3 8 9 7
3 7 9 88
3 9 252 88
3 89 289 9
3 9 289 252
3 11 246 10
3 10 265 92
3 246 255 10
3 255 265 10
3 12 246 11
3 13 246 12
3 93 243 13
3 243 283 13
3 13 255 246
3 13 283 255
3 15 247 14
3 14 242 96
3 14 266 242
3 247 266 14
3 16 247 15
3 17 247 16
3 97 241 17
3 241 266 17
3 17 266 247
3 18 285 101
3 103 285 18
3 19 284 102
3 108 284 19
3 21 248 20
3 20 287 104
3 248 254 20
3 254 264 20
3 264 287 20
3 22 248 21
3 23 248 22
3 112 267 23
3 23 254 248
3 23 267 254
3 83 273 82
3 82 273 244
3 84 253 83
3 253 273 83
3 85 271 84
3 84 271 253
3 263 271 85
3 87 263 86
3 88 252 87
3 252 263 87
3 90 260 89
3 260 289 89
3 91 272 90
3 90 272 260
3 92 261 91
3 261 272 91
3 92 265 261
3 94 268 93
3 93 268 243
3 95 251 94
3 251 268 94
3 96 270 95
3 95 270 251
3 242 270 96
3 98 275 97
3 97 275 241
3 99 250 98
3 250 275 98
3 100 274 99
3 99 274 250
3 101 277 100
3 100 277 274
3 101 285 277
3 102 249 103
3 102 284 249
3 249 285 103
3 104 257 105
3 104 287 257
3 105 276 106
3 257 276 105
3 106 256 107
3 106 276 256
3 107 278 108
3 256 278 107
3 278 284 108
3 109 258 110
3 109 279 258
3 110 269 111
3 258 269 110
3 111 259 112
3 111 269 259
3 259 267 112
3 264 266 241
3 241 282 264
3 275 282 241
3 266 286 242
3 267 270 242
3 242 286 267
3 268 288 243
3 243 288 283
3 273 290 244
3 244 290 280
3 245 280 262
3 249 278 277
3 277 285 249
3 249 284 278
3 274 276 250
3 250 276 275
3 251 269 268
3 251 270 269
3 252 281 263
3 252 289 281
3 253 271 260
3 260 272 253
3 253 272 261
3 261 273 253
3 254 286 264
3 267 286 254
3 255 280 265
3 255 283 280
3 256 276 274
3 274 278 256
3 275 276 257
3 257 282 275
3 257 287 282
3 268 269 258
3 258 288 268
3 279 288 258
3 259 270 267
3 269 270 259
3 271 281 260
3 281 289 260
3 265 290 261
3 261 290 273
3 262 283 279
3 280 283 262
3 263 281 271
3 264 286 266
3 282 287 264
3 280 290 265
3 277 278 274
3 283 288 279
3 0 291 1
3 114 291 0
3 1 291 113
3 113 114 24
3 113 291 114
3 1 293 2
3 113 293 1
3 2 293 115
3 11 292 12
3 118 292 11
3 12 292 119
3 113 24 35
3 115 26 25
3 26 34 27
3 34 26 35
3 35 26 113
3 26 293 113
3 115 293 26
3 27 34 120
3 27 120 116
3 28 32 29
3 28 33 32
3 28 117 33
3 29 118 30
3 118 29 32
3 31 119 32
3 32 292 118
3 119 292 32
3 33 117 121
3 116 120 117
3 120 121 117
3 2 294 3
3 115 294 2
3 3 294 122
3 115 25 122
3 122 294 115
3 3 304 82
3 122 304 3
3 85 307 4
3 4 307 123
3 25 26 129
3 25 296 122
3 129 296 25
3 124 308 36
3 36 308 128
3 125 309 37
3 37 309 129
3 82 297 83
3 82 304 297
3 83 300 84
3 297 300 83
3 84 298 85
3 84 300 298
3 298 307 85
3 296 304 122
3 123 303 124
3 123 307 303
3 303 308 124
3 126 302 125
3 302 309 125
3 127 295 126
3 295 302 126
3 128 301 127
3 127 301 295
3 128 308 301
3 129 299 296
3 129 309 299
3 301 306 295
3 295 305 302
3 295 306 305
3 299 304 296
3 297 304 299
3 299 305 297
3 297 305 300
3 300 306 298
3 298 306 303
3 303 307 298
3 302 305 299
3 299 309 302
3 305 306 300
3 303 306 301
3 301 308 303
3 5 4 310
3 4 123 310
3 140 5 310
3 9 8 311
3 8 133 311
3 137 9 311
3 36 132 38
3 142 36 38
3 36 142 124
3 36 139 132
3 39 130 40
3 39 40 135
3 130 138 40
3 135 40 136
3 141 123 124
3 141 140 123
3 123 140 310
3 142 141 124
3 138 130 131
3 139 131 132
3 139 138 131
3 133 134 137
3 133 137 311
3 134 135 136
3 134 136 137
3 5 315 6
3 140 315 5
3 6 315 143
3 41 312 38
3 38 312 142
3 145 312 41
3 141 314 140
3 140 314 143
3 143 315 140
3 142 313 141
3 141 313 144
3 144 314 141
3 142 312 145
3 145 313 142
3 143 314 144
3 144 313 145
3 6 326 86
3 143 326 6
3 88 328 7
3 7 328 149
3 41 327 145
3 148 327 41
3 42 325 146
3 151 325 42
3 86 324 87
3 86 326 324
3 87 317 88
3 87 324 317
3 317 328 88
3 144 318 143
3 318 326 143
3 145 320 144
3 144 320 318
3 145 327 320
3 146 323 147
3 146 325 323
3 147 316 148
3 147 323 316
3 316 327 148
3 149 322 150
3 149 328 322
3 150 319 151
3 150 322 319
3 319 325 151
3 316 321 320
3 320 327 316
3 316 323 321
3 321 322 317
3 317 324 321
3 322 328 317
3 320 321 318
3 321 324 318
3 324 326 318
3 319 322 321
3 321 323 319
3 323 325 319
3 8 7 332
3 7 149 332
3 133 8 332
3 42 39 329
3 39 135 329
3 151 42 329
3 134 133 331
3 133 149 331
3 149 133 332
3 135 134 330
3 134 150 330
3 150 134 331
3 135 151 329
3 151 135 330
3 149 150 331
3 150 151 330
3 89 9 345
3 9 137 345
3 10 92 342
3 157 10 342
3 30 156 29
3 156 30 334
3 30 157 334
3 136 40 346
3 40 152 346
3 155 43 347
3 43 156 347
3 90 89 336
3 336 89 345
3 91 90 338
3 90 336 338
3 92 91 335
3 335 91 338
3 92 335 342
3 137 136 341
3 341 136 346
3 137 341 345
3 152 153 339
3 152 339 346
3 153 154 333
3 153 333 339
3 154 155 340
3 333 154 340
3 340 155 347
3 156 334 337
3 156 337 347
3 334 157 342
3 339 333 344
3 333 340 343
3 333 343 344
3 337 334 342
3 335 337 342
3 337 335 343
3 335 338 343
3 338 336 344
3 336 341 344
3 341 336 345
3 340 337 343
3 337 340 347
3 343 338 344
3 341 339 344
3 339 341 346
3 10 348 11
3 157 348 10
3 11 348 118
3 30 118 157
3 118 348 157
3 12 349 13
3 119 349 12
3 13 349 158
3 31 158 119
3 158 349 119
3 93 13 361
3 13 158 361
3 14 96 360
3 165 14 360
3 31 32 159
3 158 31 352
3 31 159 352
3 159 44 364
3 44 163 364
3 160 45 365
3 45 164 365
3 47 164 46
3 164 47 351
3 47 165 351
3 94 93 353
3 353 93 361
3 95 94 357
3 94 353 357
3 96 95 354
3 354 95 357
3 96 354 360
3 158 352 361
3 352 159 355
3 355 159 364
3 161 160 359
3 359 160 365
3 162 161 350
3 350 161 359
3 163 162 358
3 162 350 358
3 163 358 364
3 164 351 356
3 164 356 365
3 351 165 360
3 358 350 363
3 350 359 362
3 350 362 363
3 356 351 360
3 352 355 361
3 355 353 361
3 353 355 363
3 357 353 363
3 354 356 360
3 356 354 362
3 354 357 362
3 355 358 363
3 358 355 364
3 359 356 362
3 356 359 365
3 362 357 363
3 14 366 15
3 165 366 14
3 15 366 166
3 47 166 165
3 166 366 165
3 15 367 16
3 166 367 15
3 16 367 170
3 21 368 22
3 173 368 21
3 22 368 167
3 46 166 47
3 53 46 51
3 166 46 53
3 167 49 48
3 50 49 55
3 55 49 56
3 56 49 173
3 167 368 49
3 49 368 173
3 55 171 50
3 50 171 168
3 53 51 54
3 51 169 54
3 52 170 53
3 53 367 166
3 170 367 53
3 54 169 172
3 173 57 56
3 168 171 169
3 171 172 169
3 16 369 17
3 170 369 16
3 17 369 174
3 52 174 170
3 174 369 170
3 97 17 381
3 17 174 381
3 60 18 101
3 52 53 175
3 174 52 372
3 52 175 372
3 175 58 386
3 58 179 386
3 176 59 380
3 59 181 380
3 60 101 382
3 180 60 382
3 98 97 377
3 377 97 381
3 99 98 373
3 373 98 377
3 100 99 376
3 99 373 376
3 101 100 374
3 374 100 376
3 101 374 382
3 174 372 381
3 372 175 379
3 379 175 386
3 177 176 370
3 370 176 380
3 178 177 378
3 177 370 378
3 179 178 371
3 371 178 378
3 179 371 386
3 181 180 375
3 375 180 382
3 181 375 380
3 378 370 383
3 370 380 385
3 383 370 385
3 371 378 384
3 379 371 384
3 371 379 386
3 372 379 381
3 376 373 383
3 373 377 384
3 383 373 384
3 374 375 382
3 375 374 385
3 374 376 385
3 380 375 385
3 376 383 385
3 379 377 381
3 377 379 384
3 378 383 384
3 60 389 18
3 18 389 103
3 19 387 61
3 102 387 19
3 183 389 60
3 61 387 182
3 103 388 102
3 182 387 102
3 102 388 182
3 183 388 103
3 103 389 183
3 182 388 183
3 61 407 19
3 19 407 108
3 104 401 20
3 20 401 184
3 56 57 185
3 184 392 57
3 57 392 185
3 190 402 61
3 402 407 61
3 185 406 62
3 62 406 189
3 186 400 63
3 63 400 191
3 105 397 104
3 397 401 104
3 106 393 105
3 393 397 105
3 107 396 106
3 106 396 393
3 108 394 107
3 394 396 107
3 108 407 394
3 184 401 392
3 392 399 185
3 399 406 185
3 187 390 186
3 390 400 186
3 188 398 187
3 187 398 390
3 189 391 188
3 391 398 188
3 189 406 391
3 191 395 190
3 395 402 190
3 191 400 395
3 398 403 390
3 390 405 400
3 403 405 390
3 391 404 398
3 399 404 391
3 391 406 399
3 392 401 399
3 396 403 393
3 393 404 397
3 403 404 393
3 394 402 395
3 395 405 394
3 394 405 396
3 394 407 402
3 400 405 395
3 396 405 403
3 399 401 397
3 397 404 399
3 398 404 403
3 20 408 21
3 184 408 20
3 21 408 173
3 173 184 57
3 173 408 184
3 22 409 23
3 167 409 22
3 23 409 192
3 167 48 192
3 192 409 167
3 109 420 0
3 0 420 114
3 23 421 112
3 192 421 23
3 35 24 193
3 114 411 24
3 24 411 193
3 49 198 48
3 48 412 192
3 198 412 48
3 193 424 64
3 64 424 197
3 194 425 65
3 65 425 198
3 110 413 109
3 413 420 109
3 111 417 110
3 110 417 413
3 112 414 111
3 414 417 111
3 112 421 414
3 114 420 411
3 412 421 192
3 411 416 193
3 416 424 193
3 195 418 194
3 418 425 194
3 196 410 195
3 410 418 195
3 197 419 196
3 196 419 410
3 197 424 419
3 198 415 412
3 198 425 415
3 410 422 418
3 419 423 410
3 410 423 422
3 411 420 416
3 415 421 412
3 416 420 413
3 413 423 416
3 417 423 413
3 414 421 415
3 415 422 414
3 414 422 417
3 418 422 415
3 415 425 418
3 416 423 419
3 419 424 416
3 422 423 417
3 129 26 27
3 27 430 129
3 202 430 27
3 29 156 28
3 156 429 28
3 28 429 201
3 129 427 37
3 37 427 199
3 43 428 156
3 200 428 43
3 129 430 427
3 428 429 156
3 199 426 200
3 199 427 426
3 426 428 200
3 201 426 202
3 201 428 426
3 201 429 428
3 426 427 202
3 427 430 202
3 27 116 202
3 117 28 201
3 117 201 116
3 116 201 202
3 159 32 33
3 33 434 159
3 204 434 33
3 34 35 193
3 193 435 34
3 34 435 203
3 159 432 44
3 44 432 206
3 64 433 193
3 205 433 64
3 159 434 432
3 433 435 193
3 203 431 204
3 203 433 431
3 203 435 433
3 431 432 204
3 432 434 204
3 206 431 205
3 431 433 205
3 206 432 431
3 121 204 33
3 34 203 120
3 203 121 120
3 203 204 121
3 128 445 36
3 36 445 139
3 37 447 125
3 199 447 37
3 138 446 40
3 40 446 152
3 155 444 43
3 43 444 200
3 125 442 126
3 125 447 442
3 126 439 127
3 126 442 439
3 127 440 128
3 439 440 127
3 440 445 128
3 139 437 138
3 437 446 138
3 139 445 437
3 152 443 153
3 152 446 443
3 153 438 154
3 153 443 438
3 154 441 155
3 438 441 154
3 441 444 155
3 200 436 199
3 436 447 199
3 200 444 436
3 441 442 436
3 436 444 441
3 442 447 436
3 440 443 437
3 437 445 440
3 443 446 437
3 439 442 438
3 438 443 439
3 438 442 441
3 439 443 440
3 38 448 41
3 132 448 38
3 42 450 39
3 39 450 130
3 41 448 148
3 146 450 42
3 130 451 131
3 130 450 146
3 146 451 130
3 131 449 132
3 147 449 131
3 131 451 147
3 148 448 132
3 132 449 148
3 147 451 146
3 148 449 147
3 44 462 163
3 206 462 44
3 160 461 45
3 45 461 208
3 197 463 64
3 64 463 205
3 65 460 194
3 207 460 65
3 161 459 160
3 459 461 160
3 162 454 161
3 454 459 161
3 163 458 162
3 162 458 454
3 163 462 458
3 194 456 195
3 194 460 456
3 195 455 196
3 195 456 455
3 196 457 197
3 455 457 196
3 457 463 197
3 205 452 206
3 205 463 452
3 452 462 206
3 208 453 207
3 453 460 207
3 208 461 453
3 457 458 452
3 452 463 457
3 458 462 452
3 453 459 456
3 456 460 453
3 453 461 459
3 455 456 454
3 454 458 455
3 456 459 454
3 455 458 457
3 45 466 164
3 208 466 45
3 164 51 46
3 198 49 50
3 50 467 198
3 210 467 50
3 164 468 51
3 51 468 209
3 198 465 65
3 65 465 207
3 466 468 164
3 198 467 465
3 207 464 208
3 207 465 464
3 464 466 208
3 209 464 210
3 209 466 464
3 209 468 466
3 464 465 210
3 465 467 210
3 50 168 210
3 169 51 209
3 169 209 168
3 168 209 210
3 54 175 53
3 54 473 175
3 212 473 54
3 55 56 185
3 185 472 55
3 55 472 211
3 175 471 58
3 58 471 214
3 62 470 185
3 213 470 62
3 175 473 471
3 470 472 185
3 211 469 212
3 211 470 469
3 211 472 470
3 469 471 212
3 471 473 212
3 214 469 213
3 469 470 213
3 214 471 469
3 172 212 54
3 55 211 171
3 171 212 172
3 171 211 212
3 58 482 179
3 214 482 58
3 176 483 59
3 59 483 216
3 189 485 62
3 62 485 213
3 63 484 186
3 215 484 63
3 177 478 176
3 478 483 176
3 178 476 177
3 476 478 177
3 179 479 178
3 178 479 476
3 179 482 479
3 186 480 187
3 186 484 480
3 187 477 188
3 187 480 477
3 188 481 189
3 477 481 188
3 481 485 189
3 213 475 214
3 213 485 475
3 475 482 214
3 216 474 215
3 474 484 215
3 216 483 474
3 478 480 474
3 474 483 478
3 480 484 474
3 475 481 479
3 479 482 475
3 475 485 481
3 477 480 476
3 476 481 477
3 476 480 478
3 479 481 476
3 59 493 181
3 216 493 59
3 180 490 60
3 60 490 183
3 182 491 61
3 61 491 190
3 191 492 63
3 63 492 215
3 181 486 180
3 486 490 180
3 181 493 486
3 183 489 182
3 489 491 182
3 183 490 489
3 190 487 191
3 190 491 487
3 487 492 191
3 215 488 216
3 215 492 488
3 488 493 216
3 488 489 486
3 486 493 488
3 489 490 486
3 487 489 488
3 488 492 487
3 487 491 489
3 217 218 66
3 218 217 67
3 217 66 495
3 66 219 495
3 67 217 494
3 222 67 494
3 219 68 495
3 68 220 495
3 221 69 494
3 69 222 494
3 221 217 220
3 220 217 495
3 217 221 494
3 218 496 66
3 66 496 219
3 67 501 218
3 222 501 67
3 68 498 70
3 219 498 68
3 73 499 69
3 69 499 222
3 70 498 223
3 223 500 71
3 71 500 224
3 224 497 72
3 72 497 225
3 225 499 73
3 218 501 496
3 496 498 219
3 499 501 222
3 498 500 223
3 224 500 497
3 497 499 225
3 497 500 496
3 496 501 497
3 496 500 498
3 497 501 499
3 68 70 502
3 220 68 502
3 221 73 69
3 70 226 502
3 221 227 73
3 220 226 221
3 226 220 502
3 226 227 221
3 70 223 504
3 226 70 504
3 223 71 504
3 71 228 504
3 72 225 503
3 228 72 503
3 225 73 503
3 73 227 503
3 227 226 228
3 228 226 504
3 227 228 503
3 224 228 71
3 228 224 72
3 229 230 74
3 229 75 230
3 229 74 506
3 74 231 506
3 75 229 505
3 234 75 505
3 231 76 506
3 76 232 506
3 233 77 505
3 77 234 505
3 233 229 232
3 232 229 506
3 229 233 505
3 230 507 74
3 74 507 231
3 75 511 230
3 234 511 75
3 76 509 78
3 231 509 76
3 81 510 77
3 77 510 234
3 78 509 235
3 235 512 79
3 79 512 236
3 236 508 80
3 80 508 237
3 237 510 81
3 230 511 507
3 507 509 231
3 510 511 234
3 509 512 235
3 236 512 508
3 508 510 237
3 507 511 508
3 508 512 507
3 507 512 509
3 508 511 510
3 76 78 513
3 232 76 513
3 239 81 77
3 239 77 233
3 78 238 513
3 232 238 233
3 238 232 513
3 238 239 233
3 78 235 515
3 238 78 515
3 235 79 515
3 79 240 515
3 80 237 514
3 240 80 514
3 237 81 514
3 81 239 514
3 239 238 240
3 240 238 515
3 239 240 514
3 236 240 79
3 240 236 80
4 490 382 183 525
4 367 53 69 170
4 281 289 252 522
4 374 518 376 525
4 374 385 376 518
4 440 301 522 524
4 183 382 285 525
4 492 400 484 535
4 419 519 457 523
4 224 228 526 527
4 252 289 345 522
4 285 249 183 525
4 391 406 485 517
4 251 357 519 523
4 346 522 339 532
4 406 470 485 541
4 263 281 324 522
4 406 485 517 541
4 302 447 309 540
4 272 338 336 522
4 256 393 396 533
4 463 419 424 538
4 396 393 403 533
4 396 518 256 533
4 376 518 274 525
4 272 338 522 524
4 251 523 519 539
4 272 520 338 524
4 457 523 519 538
4 232 76 34 513
4 220 68 55 502
4 406 536 470 541
4 492 525 400 535
4 484 400 518 535
4 345 341 137 522
4 385 518 374 525
4 306 300 522 524
4 301 295 306 524
4 357 251 354 539
4 346 446 138 532
4 400 390 484 518
4 301 306 522 524
4 413 417 258 519
4 285 382 277 525
4 256 518 396 525
4 457 419 463 538
4 396 403 518 533
4 385 525 374 535
4 457 519 419 538
4 305 520 300 524
4 338 336 522 524
4 419 423 519 523
4 339 346 341 522
4 354 362 357 539
4 406 517 536 541
4 183 489 490 525
4 419 410 423 523
4 488 492 484 535
4 285 277 249 525
4 416 424 419 538
4 138 136 346 532
4 338 344 336 524
4 298 306 300 522
4 490 382 525 535
4 384 378 371 534
4 317 324 522 532
4 463 424 433 538
4 427 309 447 540
4 363 353 357 519
4 484 518 474 535
4 305 302 520 524
4 363 519 357 523
4 425 460 465 521
4 357 523 251 539
4 344 522 336 524
4 385 518 525 535
4 305 295 302 524
4 251 357 268 519
4 317 137 322 321
4 238 78 513 27
4 226 70 502 50
4 276 393 256 533
4 490 375 382 535
4 400 525 518 535
4 341 522 346 532
4 300 253 522 524
4 424 529 433 538
4 427 528 309 540
4 300 520 253 524
4 440 439 301 524
4 400 405 390 518
4 341 346 136 532
4 404 393 397 517
4 338 335 343 520
4 417 519 423 539
4 402 491 182 525
4 353 268 357 519
4 301 439 295 524
4 461 365 466 521
4 277 382 374 525
4 123 303 307 532
4 391 399 406 517
4 362 523 357 539
4 251 519 269 539
4 440 522 301 532
4 338 520 343 524
4 300 305 297 520
4 418 422 410 523
4 354 521 362 539
4 418 460 425 521
4 384 371 517 534
4 303 522 307 532
4 419 455 410 523
4 485 481 391 517
4 378 479 371 534
4 406 517 399 536
4 272 522 253 524
4 272 253 520 524
4 317 321 324 532
4 469 485 470 541
4 464 460 453 521
4 349 119 12 292
4 367 369 16 170
4 393 517 404 533
4 464 465 460 521
4 419 457 455 523
4 422 418 521 523
4 274 518 256 525
4 298 300 253 522
4 424 416 529 538
4 378 383 518 533
4 416 419 519 538
4 405 518 400 525
4 340 441 524 540
4 440 522 443 524
4 492 487 400 525
4 402 182 284 525
4 272 336 260 522
4 488 525 492 535
4 442 520 302 524
4 374 525 382 535
4 376 274 518 533
4 354 526 521 539
4 423 417 413 519
4 256 518 274 533
4 485 481 517 541
4 403 533 393 534
4 299 309 528 540
4 461 466 464 521
4 453 461 464 521
4 517 534 371 541
4 359 365 461 521
4 339 522 443 532
4 484 474 488 535
4 457 458 523 538
4 378 384 533 534
4 270 354 251 539
4 269 519 417 539
4 253 300 297 520
4 359 521 459 523
4 5 310 315 140
4 311 133 8 332
4 252 281 324 263
4 269 258 417 519
4 519 523 423 539
4 319 136 138 532
4 374 382 375 535
4 378 533 518 534
4 295 442 302 524
4 224 526 267 527
4 456 418 410 523
4 485 475 481 541
4 437 446 443 532
4 484 390 480 518
4 479 371 534 541
4 363 523 358 538
4 492 488 487 525
4 393 533 404 534
4 443 522 339 524
4 242 270 224 526
4 470 536 469 541
4 370 476 378 518
4 521 523 362 539
4 273 253 297 520
4 456 521 418 523
4 183 249 489 525
4 519 529 416 538
4 333 340 441 524
4 370 378 383 518
4 442 447 302 540
4 459 359 461 521
4 441 442 524 540
4 475 485 469 541
4 474 484 480 518
4 520 524 442 540
4 403 393 404 534
4 398 477 390 534
4 298 253 271 522
4 339 522 344 524
4 299 528 520 540
4 383 376 385 518
4 306 305 300 524
4 263 271 281 522
4 400 487 395 525
4 363 519 523 538
4 466 521 365 526
4 465 425 521 527
4 459 461 453 521
4 426 427 447 540
4 402 284 394 525
4 407 402 284 394
4 376 518 383 533
4 378 518 476 534
4 405 396 403 518
4 422 523 521 539
4 354 270 526 539
4 284 182 249 525
4 452 457 463 538
4 431 463 433 538
4 396 518 405 525
4 378 384 383 533
4 442 302 520 540
4 443 522 440 532
4 403 518 533 534
4 263 307 271 522
4 526 527 521 539
4 404 533 517 534
4 489 490 525 535
4 517 533 384 534
4 378 476 479 534
4 481 391 517 534
4 375 490 486 535
4 268 269 251 519
4 270 267 224 526
4 362 521 359 523
4 138 323 319 532
4 182 489 249 525
4 443 440 437 532
4 458 358 523 538
4 270 259 527 539
4 478 476 370 518
4 377 250 373 533
4 418 456 460 521
4 398 390 403 534
4 442 436 447 540
4 257 275 517 533
4 431 452 463 538
4 236 244 79 528
4 459 521 456 523
4 384 517 371 541
4 410 422 423 523
4 270 527 526 539
4 358 363 350 523
4 458 358 350 523
4 453 460 456 521
4 390 518 403 534
4 427 447 199 426
4 224 270 242 267
4 260 253 272 522
4 318 123 324 532
4 295 305 306 524
4 452 205 431 463
4 272 253 261 520
4 492 484 215 488
4 477 480 390 534
4 333 438 339 524
4 183 389 285 382
4 257 517 282 536
4 447 436 199 426
4 319 321 136 532
4 307 298 271 522
4 489 486 490 535
4 460 464 453 207
4 466 208 461 464
4 469 470 485 213
4 463 205 431 433
4 410 455 456 523
4 208 453 461 464
4 454 350 359 523
4 9 137 311 328
4 123 4 310 326
4 481 534 517 541
4 373 250 376 533
4 395 405 400 525
4 218 66 282 536
4 460 465 464 207
4 469 485 475 213
4 275 377 517 533
4 446 437 138 532
4 301 522 303 532
4 230 243 75 530
4 397 517 257 536
4 257 276 275 533
4 426 447 436 540
4 295 439 442 524
4 416 419 423 519
4 418 425 415 521
4 359 356 365 521
4 257 275 282 517
4 356 362 354 521
4 470 406 399 536
4 422 423 523 539
4 469 211 212 541
4 278 256 396 525
4 404 517 391 534
4 480 518 390 534
4 454 359 459 523
4 440 443 439 524
4 260 289 281 522
4 333 339 344 524
4 466 464 521 526
4 464 465 521 527
4 356 521 354 526
4 333 441 438 524
4 453 456 459 521
4 201 202 426 540
4 384 517 377 533
4 404 399 391 517
4 339 341 344 522
4 303 301 306 522
4 340 441 154 333
4 484 474 215 488
4 282 517 275 537
4 275 250 377 533
4 362 359 350 523
4 282 536 517 537
4 267 270 259 527
4 431 203 204 538
4 110 258 413 417
4 405 403 390 518
4 211 536 212 541
4 228 210 209 527
4 204 203 229 530
4 212 211 217 536
4 201 240 202 531
4 241 218 282 537
4 224 72 242 526
4 236 80 265 531
4 365 521 356 526
4 415 521 425 527
4 201 531 202 540
4 383 385 370 518
4 470 211 469 536
4 224 228 72 526
4 240 236 79 528
4 224 71 228 527
4 466 209 464 526
4 464 210 465 527
4 274 256 278 525
4 396 394 278 525
4 203 530 204 538
4 457 458 455 523
4 95 354 357 251
4 258 269 268 519
4 275 517 377 537
4 469 536 211 541
4 74 230 229 529
4 75 229 230 530
4 267 526 270 527
4 341 345 336 522
4 67 218 241 537
4 217 218 67 537
4 217 66 218 536
4 307 303 298 522
4 475 479 481 541
4 80 236 240 531
4 491 402 395 525
4 299 305 302 520
4 474 518 478 535
4 359 362 356 521
4 422 418 415 521
4 363 355 519 538
4 479 534 481 541
4 174 222 67 494
4 287 257 282 536
4 253 273 261 520
4 376 250 274 533
4 91 335 338 272
4 353 363 355 519
4 333 343 340 524
4 504 71 223 192
4 282 66 287 536
4 433 424 416 529
4 234 75 158 505
4 466 365 356 526
4 465 415 425 527
4 79 235 515 122
4 187 477 390 398
4 98 373 377 250
4 259 414 527 539
4 287 397 257 536
4 260 271 253 522
4 536 537 212 541
4 343 337 340 540
4 244 297 304 528
4 458 350 454 523
4 228 209 526 527
4 379 377 384 517
4 259 414 421 527
4 404 397 399 517
4 478 518 370 535
4 203 529 229 530
4 240 528 202 531
4 212 536 217 537
4 202 531 528 540
4 273 520 297 528
4 236 290 244 528
4 343 520 337 540
4 323 321 319 532
4 413 519 258 529
4 363 357 362 523
4 529 530 203 538
4 299 309 427 528
4 373 384 377 533
4 336 90 338 272
4 288 258 519 529
4 318 324 321 532
4 230 288 243 530
4 396 256 106 393
4 273 297 244 528
4 474 480 478 518
4 100 374 376 277
4 445 308 139 532
4 401 397 287 536
4 377 517 379 537
4 399 517 397 536
4 355 353 519 530
4 344 341 336 522
4 413 258 420 529
4 303 306 298 522
4 385 374 375 535
4 422 417 423 539
4 480 477 476 534
4 438 443 339 524
4 268 519 353 530
4 274 278 277 525
4 182 491 489 525
4 243 353 361 530
4 428 337 429 531
4 308 440 301 532
4 441 442 438 524
4 299 427 430 528
4 470 399 472 536
4 396 405 394 525
4 370 518 385 535
4 432 434 355 530
4 435 433 416 529
4 219 66 495 184
4 468 466 356 526
4 467 415 465 527
4 428 429 201 531
4 470 472 211 536
4 445 440 308 532
4 432 204 434 530
4 435 203 433 529
4 363 358 355 538
4 415 422 521 539
4 467 465 210 527
4 209 466 468 526
4 430 427 202 528
4 268 353 243 530
4 381 275 377 537
4 256 274 276 533
4 376 373 99 250
4 165 503 72 225
4 308 36 445 139
4 506 231 74 114
4 303 123 124 532
4 273 290 520 528
4 284 249 278 525
4 436 442 441 540
4 273 244 290 528
4 454 459 456 523
4 297 300 253 83
4 379 517 384 541
4 268 243 288 530
4 288 279 258 529
4 268 288 519 530
4 258 110 269 417
4 448 41 148 327
4 42 325 450 146
4 318 124 123 532
4 480 476 518 534
4 237 157 80 514
4 277 278 249 525
4 183 249 285 388
4 241 282 275 537
4 343 335 337 520
4 487 491 395 525
4 376 383 373 533
4 284 249 182 388
4 437 139 138 532
4 297 305 299 520
4 279 420 258 529
4 452 458 457 538
4 423 413 416 519
4 124 139 308 532
4 290 520 528 531
4 354 270 360 526
4 256 276 106 393
4 253 273 297 83
4 278 394 284 525
4 259 421 414 112
4 441 438 154 333
4 396 256 278 107
4 275 98 377 250
4 236 265 290 531
4 138 139 323 532
4 354 95 270 251
4 380 483 370 535
4 332 149 7 328
4 359 454 161 350
4 84 300 253 298
4 315 326 6 143
4 394 396 278 107
4 335 520 261 531
4 136 40 138 346
4 36 308 124 139
4 478 480 476 518
4 145 41 312 327
4 415 521 527 539
4 379 471 473 541
4 381 241 275 537
4 339 153 438 333
4 329 325 42 151
4 301 295 439 127
4 478 370 483 535
4 360 270 242 526
4 342 335 261 531
4 258 413 420 109
4 377 381 97 275
4 322 136 319 321
4 274 100 376 277
4 438 439 443 524
4 446 138 40 346
4 379 384 371 541
4 161 459 454 359
4 188 481 477 398
4 486 181 375 493
4 415 527 414 539
4 487 488 489 525
4 187 477 480 390
4 473 471 212 541
4 355 530 519 538
4 419 196 410 455
4 415 414 422 539
4 439 440 301 127
4 451 147 146 323
4 402 394 395 525
4 253 271 84 298
4 494 67 174 372
4 66 392 495 184
4 267 259 421 527
4 297 520 299 528
4 335 337 520 531
4 274 376 99 250
4 308 301 303 532
4 335 91 261 272
4 360 354 96 270
4 319 151 330 150
4 261 265 342 531
4 72 503 165 351
4 412 71 504 192
4 457 196 419 455
4 296 79 515 122
4 411 506 74 114
4 75 352 158 505
4 261 520 290 531
4 337 156 428 429
4 257 287 104 397
4 147 316 449 148
4 427 299 430 129
4 9 137 328 252
4 481 477 398 534
4 55 56 57 185
4 362 350 363 523
4 346 152 446 339
4 434 159 432 355
4 435 416 433 193
4 415 465 198 467
4 468 356 466 164
4 137 328 252 317
4 508 80 255 236
4 224 267 71 527
4 413 416 519 529
4 483 474 478 535
4 338 343 344 524
4 399 185 470 472
4 471 379 473 175
4 93 353 361 243
4 449 139 131 132
4 130 131 451 138
4 442 295 302 126
4 157 334 80 514
4 271 260 281 522
4 272 336 90 260
4 46 47 51 164
4 181 380 375 493
4 34 35 24 193
4 275 276 250 533
4 279 258 420 109
4 364 432 355 538
4 444 340 347 540
4 428 347 337 540
4 242 360 96 270
4 401 104 287 397
4 241 97 381 275
4 342 335 92 261
4 398 188 481 391
4 268 288 258 519
4 492 487 191 400
4 54 52 53 175
4 473 212 537 541
4 379 473 537 541
4 378 371 479 178
4 428 337 531 540
4 216 474 483 535
4 454 455 458 523
4 137 9 345 252
4 462 364 358 538
4 28 29 30 156
4 439 438 442 524
4 483 493 216 535
4 481 398 391 534
4 414 259 111 539
4 432 530 355 538
4 414 111 417 539
4 263 324 326 123
4 398 403 404 534
4 489 525 488 535
4 314 318 143 144
4 489 491 487 525
4 49 50 48 198
4 486 493 375 535
4 201 428 531 540
4 31 32 33 159
4 316 323 139 532
4 367 53 166 69
4 204 530 432 538
4 252 9 345 289
4 320 139 124 532
4 445 437 440 532
4 429 337 334 531
4 401 287 66 536
4 441 340 444 540
4 136 138 40 319
4 265 342 92 261
4 261 290 265 531
4 145 313 144 320
4 243 93 353 268
4 379 537 517 541
4 150 331 322 149
4 183 285 103 388
4 430 296 299 528
4 388 182 284 102
4 26 27 25 129
4 61 402 387 407
4 476 378 479 178
4 123 4 326 263
4 261 273 290 520
4 398 404 391 534
4 216 488 474 535
4 386 471 379 541
4 483 380 370 176
4 456 455 454 523
4 487 191 400 395
4 421 259 267 112
4 373 383 384 533
4 314 140 123 141
4 331 134 137 133
4 440 445 308 128
4 138 325 40 319
4 503 468 351 526
4 467 504 412 527
4 430 515 296 528
4 89 336 345 289
4 392 495 472 536
4 473 494 372 537
4 411 506 435 529
4 434 505 352 530
4 334 514 429 531
4 132 36 38 448
4 40 39 450 130
4 201 426 428 540
4 352 355 434 530
4 416 411 435 529
4 375 493 380 535
4 80 265 255 236
4 431 204 432 538
4 476 481 479 534
4 250 276 274 533
4 390 484 186 400
4 467 412 415 527
4 468 356 351 526
4 381 67 241 537
4 79 244 304 528
4 263 324 252 87
4 509 235 512 280
4 347 444 155 340
4 159 364 432 355
4 424 433 416 193
4 365 466 356 164
4 198 425 465 415
4 368 49 173 68
4 293 26 113 76
4 493 488 216 535
4 320 124 318 532
4 428 347 156 337
4 299 427 309 129
4 394 284 407 108
4 486 489 488 535
4 443 153 438 339
4 395 394 405 525
4 379 471 386 175
4 470 406 185 399
4 517 537 536 541
4 75 13 283 234
4 360 242 72 526
4 4 123 307 263
4 380 493 483 535
4 308 301 440 128
4 520 531 337 540
4 134 136 135 330
4 141 313 142 124
4 269 417 111 539
4 200 426 436 540
4 249 103 285 388
4 458 462 358 538
4 388 284 249 102
4 344 343 333 524
4 199 436 200 426
4 42 325 329 450
4 80 342 265 531
4 251 269 270 539
4 269 111 259 539
4 101 285 389 382
4 472 399 392 536
4 473 372 379 537
4 329 39 40 135
4 38 36 142 312
4 471 469 212 541
4 501 241 67 218
4 395 190 402 491
4 316 139 320 532
4 432 364 462 538
4 483 370 478 176
4 528 531 520 540
4 441 155 444 340
4 347 428 444 540
4 380 370 385 535
4 243 361 75 530
4 431 206 452 538
4 519 530 529 538
4 316 321 323 532
4 67 372 494 537
4 392 66 495 536
4 445 139 437 532
4 442 439 295 126
4 337 334 156 429
4 200 444 428 540
4 447 125 302 309
4 503 351 72 526
4 71 412 504 527
4 79 296 515 528
4 234 510 255 511
4 320 318 321 532
4 429 334 28 514
4 506 411 74 529
4 505 75 352 530
4 506 34 411 435
4 334 80 514 531
4 419 197 463 424
4 182 387 284 102
4 51 503 468 351
4 389 285 103 183
4 359 160 461 365
4 334 342 157 80
4 469 214 475 541
4 430 299 296 129
4 57 55 185 392
4 472 392 55 495
4 482 386 371 541
4 462 358 364 163
4 444 200 436 540
4 462 206 432 538
4 509 235 280 245
4 79 235 3 280
4 462 452 206 538
4 477 481 476 534
4 401 392 66 184
4 381 174 67 372
4 420 411 74 114
4 158 361 352 75
4 79 296 304 122
4 490 180 375 486
4 324 317 252 87
4 263 86 4 326
4 165 360 72 351
4 192 412 71 421
4 460 418 425 194
4 218 501 241 264
4 271 263 85 307
4 139 316 320 327
4 51 47 351 164
4 411 34 24 193
4 279 74 420 529
4 255 283 13 234
4 443 446 152 339
4 355 434 159 352
4 411 416 435 193
4 262 230 74 279
4 352 434 33 505
4 372 52 54 175
4 482 471 386 541
4 50 412 467 504
4 430 515 27 296
4 468 351 356 164
4 412 415 198 467
4 480 484 186 390
4 371 479 482 541
4 421 71 267 527
4 463 457 197 419
4 324 86 263 326
4 252 328 9 88
4 473 494 54 372
4 298 271 85 307
4 30 28 156 334
4 355 358 364 538
4 340 337 347 540
4 269 259 270 539
4 124 308 303 532
4 190 395 487 491
4 501 497 286 496
4 198 50 48 412
4 33 31 159 352
4 422 414 417 539
4 471 482 214 541
4 501 266 241 264
4 382 490 180 375
4 160 461 459 359
4 466 461 45 365
4 13 246 255 234
4 433 463 64 424
4 255 246 77 234
4 255 508 236 280
4 312 41 448 327
4 205 431 206 452
4 482 179 371 386
4 441 444 436 540
4 37 447 427 309
4 336 89 260 289
4 482 475 214 541
4 68 254 219 248
4 25 27 296 129
4 62 406 470 485
4 471 58 482 386
4 447 199 37 427
4 101 18 60 389
4 200 428 426 540
4 482 214 58 471
4 45 208 461 466
4 485 470 62 213
4 64 205 463 433
4 473 379 372 175
4 399 392 185 472
4 432 206 431 538
4 278 284 394 108
4 20 219 254 248
4 425 465 460 65
4 67 266 241 501
4 477 187 188 398
4 385 375 380 535
4 432 364 44 462
4 208 453 464 207
4 493 59 380 483
4 189 406 485 391
4 43 347 428 444
4 67 222 266 501
4 219 20 68 248
4 418 460 456 194
4 492 63 484 400
4 475 214 469 213
4 276 105 106 393
4 389 60 101 382
4 358 462 458 163
4 479 475 482 541
4 100 376 99 274
4 222 174 69 494
4 310 326 4 315
4 18 101 285 389
4 234 283 75 511
4 504 70 192 223
4 321 316 320 532
4 444 428 43 200
4 515 78 122 235
4 9 311 332 328
4 212 220 217 211
4 471 214 469 541
4 371 386 379 541
4 151 135 136 330
4 266 72 225 242
4 283 511 508 507
4 378 476 177 178
4 474 216 215 488
4 220 212 217 221
4 227 209 228 226
4 203 233 229 232
4 71 223 23 254
4 335 342 337 531
4 88 252 328 317
4 264 501 286 496
4 128 301 440 127
4 71 504 228 527
4 79 515 240 528
4 503 72 228 526
4 458 452 462 538
4 207 460 465 65
4 236 265 255 280
4 342 80 334 531
4 507 512 508 280
4 229 506 74 529
4 505 229 75 530
4 462 44 432 206
4 280 235 3 245
4 495 66 217 536
4 67 494 217 537
4 262 509 512 280
4 80 240 514 531
4 97 98 377 275
4 249 103 388 102
4 486 488 493 535
4 264 282 218 66
4 413 258 110 109
4 304 297 299 528
4 355 361 353 530
4 413 420 416 529
4 325 138 323 319
4 415 421 414 527
4 360 356 354 526
4 246 13 77 234
4 226 209 228 210
4 229 204 233 203
4 239 201 240 202
4 457 196 197 419
4 483 493 59 216
4 484 215 63 492
4 284 387 19 102
4 0 231 74 262
4 381 372 67 537
4 392 401 66 536
4 411 420 74 529
4 352 75 361 530
4 264 20 66 219
4 296 79 304 528
4 234 158 77 505
4 285 103 18 389
4 412 71 421 527
4 351 360 72 526
4 232 76 506 34
4 220 68 495 55
4 264 20 219 254
4 498 264 496 219
4 240 239 202 238
4 507 508 283 280
4 495 68 219 184
4 286 266 501 264
4 302 442 125 447
4 93 94 353 268
4 234 255 283 511
4 371 479 179 482
4 512 507 509 262
4 497 224 72 286
4 506 76 231 114
4 377 379 381 537
4 401 399 397 536
4 244 236 79 280
4 230 283 288 279
4 244 79 3 280
4 112 414 259 111
4 417 110 269 111
4 224 242 72 286
4 95 96 354 270
4 80 255 10 237
4 85 84 271 298
4 396 106 256 107
4 280 262 509 245
4 161 160 459 359
4 236 265 280 290
4 220 209 226 210
4 94 95 357 251
4 73 227 51 503
4 81 239 28 514
4 81 157 237 514
4 283 230 262 279
4 480 186 187 390
4 108 394 278 107
4 280 244 236 290
4 82 297 273 83
4 226 221 209 220
4 221 226 209 227
4 441 154 155 340
4 85 263 4 307
4 263 86 324 87
4 481 189 485 391
4 19 387 284 407
4 503 165 73 225
4 283 243 13 75
4 257 104 105 397
4 508 255 283 280
4 255 77 510 234
4 69 221 494 54
4 226 70 50 504
4 238 78 27 515
4 331 134 322 137
4 314 123 318 141
4 286 224 242 267
4 338 90 91 272
4 195 418 456 194
4 262 507 283 280
4 443 152 153 339
4 181 375 180 486
4 98 99 373 250
4 336 89 90 260
4 162 358 458 163
4 153 154 438 333
4 501 497 266 286
4 127 295 439 126
4 225 14 266 242
4 145 142 313 320
4 483 59 380 176
4 6 4 326 315
4 20 264 66 287
4 487 191 395 190
4 134 150 331 322
4 89 345 9 289
4 318 314 141 144
4 136 319 151 330
4 7 9 332 328
4 335 91 92 261
4 77 233 505 33
4 66 264 282 287
4 370 478 176 177
4 138 131 147 139
4 36 308 445 128
4 264 218 501 496
4 446 40 152 346
4 253 300 84 83
4 192 23 223 409
4 219 498 264 254
4 188 189 481 391
4 63 186 484 400
4 224 286 500 71
4 75 283 243 230
4 461 160 45 365
4 463 197 64 424
4 323 138 147 139
4 10 342 265 80
4 59 380 181 493
4 350 454 161 162
4 266 72 242 286
4 124 142 36 327
4 3 79 244 304
4 72 266 497 286
4 191 63 492 400
4 282 218 241 264
4 230 283 243 288
4 254 219 498 68
4 500 286 497 496
4 58 179 482 386
4 126 302 442 125
4 329 325 40 450
4 512 235 79 280
4 291 0 231 114
4 71 267 23 421
4 70 192 223 409
4 511 255 283 508
4 122 294 235 78
4 287 66 20 401
4 23 267 71 254
4 455 196 410 195
4 402 190 61 491
4 284 19 407 108
4 392 55 185 472
4 447 37 125 309
4 62 406 485 189
4 43 347 444 155
4 374 100 101 277
4 399 401 392 536
4 379 372 381 537
4 124 313 142 320
4 266 17 69 222
4 50 55 502 220
4 351 468 51 164
4 34 411 435 193
4 81 239 33 28
4 69 51 221 54
4 412 421 415 527
4 351 356 360 526
4 499 266 222 501
4 416 420 411 529
4 352 361 355 530
4 74 507 230 262
4 342 92 10 265
4 371 479 178 179
4 238 34 513 232
4 73 227 221 51
4 69 51 73 221
4 512 507 262 280
4 235 3 294 122
4 465 425 198 65
4 45 466 365 164
4 296 304 299 528
4 64 433 424 193
4 44 159 364 432
4 496 500 286 254
4 334 28 156 429
4 381 17 241 67
4 54 473 372 175
4 184 219 20 408
4 386 471 58 175
4 406 185 62 470
4 309 427 37 129
4 369 247 17 69
4 347 156 43 428
4 267 23 421 112
4 198 50 412 467
4 434 33 159 352
4 219 184 68 408
4 315 310 326 143
4 34 238 513 27
4 332 311 149 328
4 286 500 71 254
4 286 224 267 71
4 304 244 3 82
4 77 239 33 81
4 114 231 291 76
4 226 50 502 220
4 462 364 44 163
4 342 334 337 531
4 71 267 286 254
4 296 27 430 129
4 231 509 262 245
4 194 425 460 65
4 312 448 36 327
4 142 124 320 327
4 316 323 147 139
4 132 148 139 327
4 279 74 0 420
4 138 451 146 323
4 498 496 264 254
4 328 7 9 88
4 262 74 0 279
4 247 17 16 369
4 320 145 142 327
4 317 88 252 87
4 243 361 13 75
4 239 77 33 233
4 360 96 14 242
4 53 51 69 54
4 32 28 81 33
4 70 223 23 409
4 265 255 10 80
4 139 147 316 449
4 86 6 4 326
4 328 137 322 317
4 46 69 51 73
4 55 171 220 50
4 500 496 498 254
4 50 168 171 220
4 262 0 231 245
4 69 247 17 266
4 51 53 69 46
4 28 32 81 29
4 291 0 1 245
4 136 319 330 150
4 147 451 138 323
4 291 231 0 76
4 132 139 36 327
4 325 130 146 138
4 512 236 508 280
4 33 81 32 77
4 97 381 17 241
4 324 326 123 318
4 54 169 51 221
4 496 286 264 254
4 451 146 130 138
4 139 449 148 132
4 316 139 449 148
4 141 123 318 124
4 507 231 509 262
4 348 81 10 246
4 387 19 61 407
4 322 134 136 137
4 139 131 147 449
4 451 131 147 138
4 294 3 235 78
4 511 283 230 507
4 104 287 20 401
4 66 496 264 219
4 14 247 366 73
4 511 510 255 508
4 382 490 60 180
4 231 509 245 76
4 130 325 40 138
4 17 369 69 174
4 420 0 279 109
4 68 20 219 408
4 211 55 171 220
4 15 14 247 366
4 13 77 349 246
4 497 224 286 500
4 316 139 148 327
4 150 134 136 322
4 144 141 318 124
4 71 500 223 254
4 509 235 245 78
4 349 12 13 246
4 225 72 266 497
4 69 266 222 499
4 138 146 325 323
4 174 69 17 222
4 448 148 36 327
4 366 14 73 165
4 10 11 348 246
4 283 230 507 262
4 157 81 10 348
4 361 13 93 243
4 498 223 500 254
4 312 36 145 327
4 73 14 266 225
4 143 123 318 314
4 137 322 331 149
4 136 319 150 322
4 450 325 40 146
4 130 450 40 146
4 132 148 36 448
4 499 225 266 497
4 145 142 36 312
4 294 2 3 245
4 120 202 116 516
4 245 0 231 76
4 329 40 325 151
4 40 329 135 151
4 124 144 313 320
4 310 315 140 143
4 149 133 311 332
4 237 255 510 508
4 254 223 23 70
4 14 247 73 266
4 81 10 255 237
4 245 291 0 76
4 318 144 124 320
4 80 255 237 508
4 137 149 311 328
4 143 310 326 123
4 329 40 39 450
4 448 36 38 312
4 310 4 5 315
4 311 8 9 332
4 14 73 165 225
4 38 41 448 312
4 10 81 157 237
4 246 81 10 255
4 329 39 42 450
4 266 499 497 501
4 74 231 507 262
4 13 77 158 349
4 236 512 79 280
4 30 29 28 81
4 367 247 369 69
4 283 75 511 230
4 69 170 52 174
4 23 254 70 248
4 48 192 70 167
4 25 122 78 115
4 170 367 369 69
4 245 235 3 78
4 143 140 310 123
4 137 149 133 311
4 158 77 13 234
4 51 47 46 73
4 53 52 54 69
4 255 77 81 510
4 135 325 40 151
4 292 349 77 246
4 145 36 142 327
4 68 184 57 173
4 130 40 325 146
4 77 119 31 158
4 3 294 245 78
4 123 326 143 318
4 33 32 31 77
4 36 148 132 327
4 77 119 349 292
4 76 114 24 113
4 149 137 322 328
4 192 70 167 409
4 78 122 294 115
4 7 9 8 332
4 496 264 218 66
4 30 118 81 157
4 4 6 5 315
4 69 46 166 73
4 369 170 69 174
4 73 47 166 165
4 56 49 68 173
4 46 69 166 53
4 76 26 113 35
4 81 32 118 29
4 77 81 246 255
4 141 144 313 124
4 70 254 498 68
4 173 68 184 408
4 330 134 136 150
4 76 291 114 113
4 68 70 254 248
4 158 77 119 349
4 293 1 2 245
4 510 81 255 237
4 254 498 223 70
4 225 266 73 499
4 123 143 140 314
4 331 137 149 133
4 118 81 157 348
4 166 366 73 165
4 369 16 247 367
4 12 349 292 246
4 266 69 73 499
4 69 73 247 266
4 70 49 48 167
4 52 53 170 69
4 78 26 25 115
4 70 68 368 248
4 31 32 119 77
4 68 57 56 173
4 76 24 35 113
4 118 29 30 81
4 166 46 47 73
4 78 293 245 76
4 78 245 509 76
4 16 15 247 367
4 11 12 292 246
4 21 22 368 248
4 116 202 201 516
4 116 201 117 516
4 120 116 117 516
4 522 252 324 317
4 522 324 252 281
4 321 136 137 322
4 341 532 137 522
4 317 137 532 522
4 317 532 137 321
4 540 299 302 520
4 540 302 299 309
4 339 446 532 443
4 339 532 446 346
4 276 397 105 393
4 105 397 276 257
4 537 218 536 217
4 537 536 218 282
4 81 118 246 348
4 11 246 118 348
4 11 118 246 292
4 247 73 166 366
4 247 15 166 367
4 166 15 247 366
4 393 533 397 517
4 393 397 533 276
4 257 397 533 517
4 257 533 397 276
4 204 516 121 117
4 204 121 516 203
4 120 121 516 117
4 120 516 121 203
4 530 519 230 288
4 529 230 519 288
4 531 236 528 290
4 531 528 236 240
4 376 277 525 274
4 525 277 376 374
4 402 387 284 182
4 284 387 402 407
4 540 343 524 340
4 540 524 343 520
4 370 476 177 378
4 177 476 370 478
4 357 268 94 251
4 94 268 357 353
4 263 123 532 324
4 532 123 263 307
4 532 522 263 324
4 263 522 532 307
4 252 137 522 345
4 522 137 252 317
4 527 209 464 210
4 526 464 527 209
4 526 527 464 521
4 289 336 522 260
4 289 522 336 345
4 115 2 78 293
4 115 78 2 294
4 245 78 2 293
4 245 2 78 294
4 167 22 70 368
4 167 70 22 409
4 248 70 22 368
4 76 34 35 24
4 68 55 56 57
4 272 335 520 261
4 272 520 335 338
4 279 230 529 288
4 279 529 230 74
4 297 244 82 273
4 297 82 244 304
4 182 183 249 489
4 249 183 182 388
4 78 26 27 25
4 70 49 50 48
4 248 21 68 368
4 173 68 21 368
4 173 21 68 408
4 113 1 76 291
4 113 76 1 293
4 245 76 1 291
4 245 1 76 293
4 350 458 162 358
4 162 458 350 454
4 382 277 101 285
4 382 101 277 374
4 456 410 195 455
4 456 195 410 418
4 80 157 10 342
4 10 157 80 237
4 174 67 17 381
4 17 67 174 222
4 158 75 13 361
4 13 75 158 234
4 71 192 23 223
4 71 23 192 421
4 122 79 3 304
4 122 3 79 235
4 184 66 20 219
4 184 20 66 401
4 114 74 0 231
4 114 0 74 420
4 72 165 242 360
4 72 242 165 225
4 14 242 165 360
4 14 165 242 225
4 67 17 266 222
4 67 266 17 241
4 61 182 402 491
4 61 402 182 387
4 319 151 135 136
4 135 151 319 325
4 135 40 319 136
4 319 40 135 325
4 212 171 220 211
4 169 221 220 209
4 60 183 382 389
4 60 382 183 490
4 124 327 139 320
4 139 327 124 36
4 81 157 334 30
4 334 157 81 514
4 334 28 81 30
4 81 28 334 514
4 114 76 411 506
4 114 411 76 24
4 34 411 76 506
4 34 76 411 24
4 184 68 392 495
4 184 392 68 57
4 55 392 68 495
4 55 68 392 57
4 73 165 351 47
4 351 165 73 503
4 351 51 73 47
4 73 51 351 503
4 192 70 412 48
4 192 412 70 504
4 50 412 70 48
4 50 70 412 504
4 122 78 296 25
4 122 296 78 515
4 27 296 78 25
4 27 78 296 515
4 69 54 372 52
4 372 54 69 494
4 372 174 69 52
4 69 174 372 494
4 158 77 352 31
4 158 352 77 505
4 33 352 77 31
4 33 77 352 505
4 168 209 220 210
4 220 210 50 168
4 220 50 210 226
4 238 233 203 232
4 27 120 202 116
4 204 33 117 121
4 221 209 51 227
4 51 209 221 169
4 51 209 503 227
4 51 503 209 468
4 526 209 503 468
4 528 515 202 430
4 27 515 202 238
4 27 202 515 430
4 516 203 233 204
4 32 77 292 119
4 530 505 204 434
4 33 505 204 233
4 33 204 505 434
4 28 201 514 239
4 28 514 201 429
4 531 201 514 429
4 34 203 506 232
4 34 506 203 435
4 529 203 506 435
4 26 293 78 76
4 26 78 293 115
4 527 504 210 467
4 50 504 210 226
4 50 210 504 467
4 55 211 495 220
4 55 495 211 472
4 536 211 495 472
4 49 368 70 68
4 49 70 368 167
4 537 494 212 473
4 54 494 212 221
4 54 212 494 473
4 540 202 427 528
4 540 427 202 426
4 538 203 433 431
4 538 433 203 529
4 529 530 230 229
4 230 530 529 519
4 171 172 220 169
4 171 220 172 212
4 220 172 221 169
4 220 221 172 212
4 221 172 54 169
4 221 54 172 212
4 168 169 220 209
4 220 169 168 171
4 532 137 136 341
4 532 136 137 321
4 32 118 77 81
4 32 77 118 292
4 246 77 118 81
4 246 118 77 292
4 166 247 69 73
4 69 247 166 367
4 70 22 23 248
4 70 23 22 409
4 76 34 26 35
4 68 55 49 56
4 27 78 76 26
4 76 78 27 513
4 76 34 27 26
4 27 34 76 513
4 50 70 68 49
4 68 70 50 502
4 68 55 50 49
4 50 55 68 502
4 21 68 20 248
4 21 20 68 408
4 34 238 203 232
4 33 233 201 239
4 33 28 201 117
4 201 28 33 239
4 209 503 228 526
4 209 228 503 227
4 515 202 240 528
4 515 240 202 238
4 516 203 238 233
4 239 516 238 233
4 239 238 516 202
4 201 516 239 233
4 201 239 516 202
4 505 204 229 530
4 505 229 204 233
4 201 514 240 531
4 201 240 514 239
4 203 506 229 529
4 203 229 506 232
4 504 210 228 527
4 504 228 210 226
4 211 495 217 536
4 211 217 495 220
4 494 212 217 537
4 494 217 212 221
4 120 516 238 202
4 238 516 120 203
4 238 27 120 202
4 120 34 238 203
4 120 238 34 27
4 117 516 233 204
4 233 516 117 201
4 233 33 117 204
4 117 33 233 201

CELL_TYPES 2987
1
1
1
1
1
1
1
1
1
1
1
1
1
1
1
1
1
1
1
1
1
1
1
1
1
1
1
1
1
1
1
1
1
1
1
1
1
1
1
1
1
1
1
1
1
1
1
1
1
1
1
1
1
1
1
1
1
1
1
1
1
1
1
1
1
1
1
1
1
1
1
1
1
1
1
1
1
1
1
1
1
1
3
3
3
3
3
3
3
3
3
3
3
3
3
3
3
3
3
3
3
3
3
3
3
3
3
3
3
3
3
3
3
3
3
3
3
3
3
3
3
3
3
3
3
3
3
3
3
3
3
3
3
3
3
3
3
3
3
3
3
3
3
3
3
3
3
3
3
3
3
3
3
3
3
3
3
3
3
3
3
3
3
3
3
3
3
3
3
3
3
3
3
3
3
3
3
3
3
3
3
3
3
3
3
3
3
3
3
3
3
3
3
3
3
3
3
3
3
3
3
3
3
3
3
3
3
3
3
3
3
3
3
3
3
3
3
3
3
3
3
3
3
3
3
3
3
3
3
3
3
3
3
3
3
3
3
3
3
3
3
3
3
3
3
3
3
3
3
3
3
3
3
3
3
3
3
3
3
3
3
3
3
3
3
3
3
3
3
3
3
3
3
3
3
3
3
3
3
3
3
3
3
3
3
3
3
3
3
3
3
3
3
3
3
3
3
3
3
3
3
3
3
3
3
3
3
3
3
3
3
3
3
3
3
3
3
3
3
3
3
3
3
3
3
3
3
3
3
3
3
3
3
3
3
3
3
3
3
3
3
3
3
3
3
3
3
3
3
3
3
3
3
3
3
3
3
3
3
3
3
3
3
3
5
5
5
5
5
5
5
5
5
5
5
5
5
5
5
5
5
5
5
5
5
5
5
5
5
5
5
5
5
5
5
5
5
5
5
5
5
5
5
5
5
5
5
5
5
5
5
5
5
5
5
5
5
5
5
5
5
5
5
5
5
5
5
5
5
5
5
5
5
5
5
5
5
5
5
5
5
5
5
5
5
5
5
5
5
5
5
5
5
5
5
5
5
5
5
5
5
5
5
5
5
5
5
5
5
5
5
5
5
5
5
5
5
5
5
5
5
5
5
5
5
5
5
5
5
5
5
5
5
5
5
5
5
5
5
5
5
5
5
5
5
5
5
5
5
5
5
5
5
5
5
5
5
5
5
5
5
5
5
5
5
5
5
5
5
5
5
5
5
5
5
5
5
5
5
5
5
5
5
5
5
5
5
5
5
5
5
5
5
5
5
5
5
5
5
5
5
5
5
5
5
5
5
5
5
5
5
5
5
5
5
5
5
5
5
5
5
5
5
5
5
5
5
5
5
5
5
5
5
5
5
5
5
5
5
5
5
5
5
5
5
5
5
5
5
5
5
5
5
5
5
5
5
5
5
5
5
5
5
5
5
5
5
5
5
5
5
5
5
5
5
5
5
5
5
5
5
5
5
5
5
5
5
5
5
5
5
5
5
5
5
5
5
5
5
5
5
5
5
5
5
5
5
5
5
5
5
5
5
5
5
5
5
5
5
5
5
5
5
5
5
5
5
5
5
5
5
5
5
5
5
5
5
5
5
5
5
5
5
5
5
5
5
5
5
5
5
5
5
5
5
5
5
5
5
5
5
5
5
5
5
5
5
5
5
5
5
5
5
5
5
5
5
5
5
5
5
5
5
5
5
5
5
5
5
5
5
5
5
5
5
5
5
5
5
5
5
5
5
5
5
5
5
5
5
5
5
5
5
5
5
5
5
5
5
5
5
5
5
5
5
5
5
5
5
5
5
5
5
5
5
5
5
5
5
5
5
5
5
5
5
5
5
5
5
5
5
5
5
5
5
5
5
5
5
5
5
5
5
5
5
5
5
5
5
5
5
5
5
5
5
5
5
5
5
5
5
5
5
5
5
5
5
5
5
5
5
5
5
5
5
5
5
5
5
5
5
5
5
5
5
5
5
5
5
5
5
5
5
5
5
5
5
5
5
5
5
5
5
5
5
5
5
5
5
5
5
5
5
5
5
5
5
5
5
5
5
5
5
5
5
5
5
5
5
5
5
5
5
5
5
5
5
5
5
5
5
5
5
5
5
5
5
5
5
5
5
5
5
5
5
5
5
5
5
5
5
5
5
5
5
5
5
5
5
5
5
5
5
5
5
5
5
5
5
5
5
5
5
5
5
5
5
5
5
5
5
5
5
5
5
5
5
5
5
5
5
5
5
5
5
5
5
5
5
5
5
5
5
5
5
5
5
5
5
5
5
5
5
5
5
5
5
5
5
5
5
5
5
5
5
5
5
5
5
5
5
5
5
5
5
5
5
5
5
5
5
5
5
5
5
5
5
5
5
5
5
5
5
5
5
5
5
5
5
5
5
5
5
5
5
5
5
5
5
5
5
5
5
5
5
5
5
5
5
5
5
5
5
5
5
5
5
5
5
5
5
5
5
5
5
5
5
5
5
5
5
5
5
5
5
5
5
5
5
5
5
5
5
5
5
5
5
5
5
5
5
5
5
5
5
5
5
5
5
5
5
5
5
5
5
5
5
5
5
5
5
5
5
5
5
5
5
5
5
5
5
5
5
5
5
5
5
5
5
5
5
5
5
5
5
5
5
5
5
5
5
5
5
5
5
5
5
5
5
5
5
5
5
5
5
5
5
5
5
5
5
5
5
5
5
5
5
5
5
5
5
5
5
5
5
5
5
5
5
5
5
5
5
5
5
5
5
5
5
5
5
5
5
5
5
5
5
5
5
5
5
5
5
5
5
5
5
5
5
5
5
5
5
5
5
5
5
5
5
5
5
5
5
5
5
5
5
5
5
5
5
5
5
5
5
5
5
5
5
5
5
5
5
5
5
5
5
5
5
5
5
5
5
5
5
5
5
5
5
5
5
5
5
5
5
5
5
5
5
5
5
5
5
5
5
5
5
5
5
5
5
5
5
5
5
5
5
5
5
5
5
5
5
5
5
5
5
5
5
5
5
5
5
5
5
5
5
5
5
5
5
5
5
5
5
5
5
5
5
5
5
5
5
5
5
5
5
5
5
5
5
5
5
5
5
5
5
5
5
5
5
5
5
5
5
5
5
5
5
5
5
5
5
5
5
5
5
5
5
5
5
5
5
5
10
10
10
10
10
10
10
10
10
10
10
10
10
10
10
10
10
10
10
10
10
10
10
10
10
10
10
10
10
10
10
10
10
10
10
10
10
10
10
10
10
10
10
10
10
10
10
10
10
10
10
10
10
10
10
10
10
10
10
10
10
10
10
10
10
10
10
10
10
10
10
10
10
10
10
10
10
10
10
10
10
10
10
10
10
10
10
10
10
10
10
10
10
10
10
10
10
10
10
10
10
10
10
10
10
10
10
10
10
10
10
10
10
10
10
10
10
10
10
10
10
10
10
10
10
10
10
10
10
10
10
10
10
10
10
10
10
10
10
10
10
10
10
10
10
10
10
10
10
10
10
10
10
10
10
10
10
10
10
10
10
10
10
10
10
10
10
10
10
10
10
10
10
10
10
10
10
10
10
10
10
10
10
10
10
10
10
10
10
10
10
10
10
10
10
10
10
10
10
10
10
10
10
10
10
10
10
10
10
10
10
10
10
10
10
10
10
10
10
10
10
10
10
10
10
10
10
10
10
10
10
10
10
10
10
10
10
10
10
10
10
10
10
10
10
10
10
10
10
10
10
10
10
10
10
10
10
10
10
10
10
10
10
10
10
10
10
10
10
10
10
10
10
10
10
10
10
10
10
10
10
10
10
10
10
10
10
10
10
10
10
10
10
10
10
10
10
10
10
10
10
10
10
10
10
10
10
10
10
10
10
10
10
10
10
10
10
10
10
10
10
10
10
10
10
10
10
10
10
10
10
10
10
10
10
10
10
10
10
10
10
10
10
10
10
10
10
10
10
10
10
10
10
10
10
10
10
10
10
10
10
10
10
10
10
10
10
10
10
10
10
10
10
10
10
10
10
10
10
10
10
10
10
10
10
10
10
10
10
10
10
10
10
10
10
10
10
10
10
10
10
10
10
10
10
10
10
10
10
10
10
10
10
10
10
10
10
10
10
10
10
10
10
10
10
10
10
10
10
10
10
10
10
10
10
10
10
10
10
10
10
10
10
10
10
10
10
10
10
10
10
10
10
10
10
10
10
10
10
10
10
10
10
10
10
10
10
10
10
10
10
10
10
10
10
10
10
10
10
10
10
10
10
10
10
10
10
10
10
10
10
10
10
10
10
10
10
10
10
10
10
10
10
10
10
10
10
10
10
10
10
10
10
10
10
10
10
10
10
10
10
10
10
10
10
10
10
10
10
10
10
10
10
10
10
10
10
10
10
10
10
10
10
10
10
10
10
10
10
10
10
10
10
10
10
10
10
10
10
10
10
10
10
10
10
10
10
10
10
10
10
10
10
10
10
10
10
10
10
10
10
10
10
10
10
10
10
10
10
10
10
10
10
10
10
10
10
10
10
10
10
10
10
10
10
10
10
10
10
10
10
10
10
10
10
10
10
10
10
10
10
10
10
10
10
10
10
10
10
10
10
10
10
10
10
10
10
10
10
10
10
10
10
10
10
10
10
10
10
10
10
10
10
10
10
10
10
10
10
10
10
10
10
10
10
10
10
10
10
10
10
10
10
10
10
10
10
10
10
10
10
10
10
10
10
10
10
10
10
10
10
10
10
10
10
10
10
10
10
10
10
10
10
10
10
10
10
10
10
10
10
10
10
10
10
10
10
10
10
10
10
10
10
10
10
10
10
10
10
10
10
10
10
10
10
10
10
10
10
10
10
10
10
10
10
10
10
10
10
10
10
10
10
10
10
10
10
10
10
10
10
10
10
10
10
10
10
10
10
10
10
10
10
10
10
10
10
10
10
10
10
10
10
10
10
10
10
10
10
10
10
10
10
10
10
10
10
10
10
10
10
10
10
10
10
10
10
10
10
10
10
10
10
10
10
10
10
10
10
10
10
10
10
10
10
10
10
10
10
10
10
10
10
10
10
10
10
10
10
10
10
10
10
10
10
10
10
10
10
10
10
10
10
10
10
10
10
10
10
10
10
10
10
10
10
10
10
10
10
10
10
10
10
10
10
10
10
10
10
10
10
10
10
10
10
10
10
10
10
10
10
10
10
10
10
10
10
10
10
10
10
10
10
10
10
10
10
10
10
10
10
10
10
10
10
10
10
10
10
10
10
10
10
10
10
10
10
10
10
10
10
10
10
10
10
10
10
10
10
10
10
10
10
10
10
10
10
10
10
10
10
10
10
10
10
10
10
10
10
10
10
10
10
10
10
10
10
10
10
10
10
10
10
10
10
10
10
10
10
10
10
10
10
10
10
10
10
10
10
10
10
10
10
10
10
10
10
10
10
10
10
10
10
10
10
10
10
10
10
10
10
10
10
10
10
10
10
10
10
10
10
10
10
10
10
10
10
10
10
10
10
10
10
10
10
10
10
10
10
10
10
10
10
10
10
10
10
10
10
10
10
10
10
10
10
10
10
10
10
10
10
10
10
10
10
10
10
10
10
10
10
10
10
10
10
10
10
10
10
10
10
10
10
10
10
10
10
10
10
10
10
10
10
10
10
10
10
10
10
10
10
10
10
10
10
10
10
10
10
10
10
10
10
10
10
10
10
10
10
10
10
10
10
10
10
10
10
10
10
10
10
10
10
10
10
10
10
10
10
10
10
10
10
10
10
10
10
10
10
10
10
10
10
10
10
10
10
10
10
10
10
10
10
10
10
10
10
10
10
10
10
10
10
10
10
10
10
10
10
10
10
10
10
10
10
10
10
10
10
10
10
10
10
10
10
10
10
10
10
10
10
10
10
10
10
10
10
10
10
10
10
10
10
10
10
10
10
10
10
10
10
10
10
10
10
10
10
10
10
10
10
10
10
10
10
10
10
10
10
10
10
10
10
10
10
10
10
10
10
10
10
10
10
10
10
10
10
10
10
10
10
10
10
10
10
10
10
10
10
10
10
10
10
10
10
10
10
10
10
10
10
10
10
10
10
10
10
10
10
10
10
10
10
10
10
10
10
10
10
10
10
10
10
10
10
10
10
10
10
10
10
10
10
10
10
10
10
10
10
10
10
10
10
10
10
10
10
10
10
10
10
10
10
10
10
10
10
10
10
10
10
10
10
10
10
10
10
10
10
10
10
10
10
10
10
10
10
10
10
10
10
10
10
10
10
10
10
10
10
10
10
10
10
10
10
10
10
10
10
10
10
10
10
10
10
10
10
10
10
10
10
10
10
10
10
10
10
10
10
10
10
10
10
10
10
10
10
10
10
10
10
10
10
10
10
10
10
10
10
10
10
10
10
10
10
10
10
10
10
10
10
10
10
10
10
10
10
10
10
10
10
10
10
10
10
10
10
10
10
10
10
10
10
10
10
10
10
10
10
10
10
10
10
10
10
10
10
10
10
10
10
10
10
10
10
10
10
10
10
10
10
10
10
10
10
10
10
10
10
10
10
10
10
10
10
10
10
10
10
10
10
10
10
10
10
10
10
10
10
10
10
10
10
10
10
10
10
10
10
10
10
10
10
10
10
10
10
10
10
10
10
10
10
10
10
10
10
10
10
10
10
10
10
10
10
10
10
10
10
10
10
10
10
10
10
10
10
10
10
10
10
10
10
10
10
10
10
10
10
10
10
10
10
10
10
10
10
10
10
10
10
10
10
10
10
10
10
10
10
10
10
10
10
10
10
10
10
10
10
10
10
10
10
