# vtk DataFile Version 2.0
, Created by Gmsh 4.11.1 
ASCII
DATASET UNSTRUCTURED_GRID
POINTS 461 double
8.75 0 -44.85516045351613
8.809925786357672 0 -41.34433305822439
8.809925786357672 0 -38.65566694177561
8.75 0 -35.14483954648387
8.75 0 -3
11.75 0 -3
11.75 0 0
-11.75 0 0
-11.75 0 -3
-8.75 0 -3
-8.75 1.071565949253934e-15 -35.14483954648387
-8.809925786357672 1.078904741498865e-15 -38.65566694177561
-8.809925786357672 1.078904741498865e-15 -41.34433305822439
-8.75 1.071565949253934e-15 -44.85516045351613
-8.75 1.071565949253934e-15 -75.14483954648387
-8.809925786357672 1.078904741498865e-15 -78.65566694177562
-8.809925786357672 1.078904741498865e-15 -81.34433305822439
-8.75 1.071565949253934e-15 -84.85516045351613
-8.75 0 -120
8.75 0 -120
8.75 0 -84.85516045351613
8.809925786357672 0 -81.34433305822439
8.809925786357672 0 -78.65566694177562
8.75 0 -75.14483954648387
8.749999999999998 1.025813024449325 -41.34433305822439
8.749999999999998 1.025813024449325 -38.65566694177561
8.749999999999998 1.025813024449325 -78.65566694177561
8.749999999999998 1.025813024449325 -81.34433305822438
8.75 6.593336258696391 -120
8.75 20 -101.4145647933616
8.75 20 -98.58543520663844
8.75 6.593336258696392 -80
8.75 20 -61.41456479336156
8.75 20 -58.58543520663844
8.75 6.593336258696392 -40
8.75 20 -21.41456479336156
8.75 20 -3
11.75 23 -3
-11.75 23 -3
-8.75 20 -3
11.75 23 0
-11.75 23 0
-8.750000000000002 1.025813024449301 -41.34433305822439
-8.750000000000002 1.025813024449301 -78.65566694177561
-8.750000000000002 1.025813024449301 -81.34433305822438
-8.75 6.593336258696391 -120
-8.75 20 -101.4145647933616
-8.75 20 -98.58543520663844
-8.75 6.593336258696392 -80
-8.75 20 -61.41456479336156
-8.75 20 -58.58543520663844
-8.75 6.593336258696392 -40
-8.75 20 -21.41456479336156
-8.750000000000002 1.025813024449301 -38.65566694177561
5.843176305819405 6.593336258696391 -80
4.518261287345234 7.563075254181149 -81.34433305822438
-4.518261287345234 7.563075254181148 -81.34433305822438
-5.843176305819405 6.593336258696391 -80
-4.518261287345214 7.56307525418116 -78.65566694177561
4.518261287345215 7.563075254181159 -78.65566694177561
5.843176305819405 6.593336258696391 -40
4.51826128734522 7.563075254181157 -41.34433305822439
-4.518261287345221 7.563075254181157 -41.34433305822439
-5.843176305819405 6.593336258696391 -40
-4.518261287345227 7.563075254181151 -38.65566694177561
4.518261287345227 7.563075254181152 -38.65566694177561
4.739986805076454 3.117160333020418 -84.85516045351613
-4.739986805076454 3.117160333020418 -84.85516045351613
4.811548298002157 3.117160333020418 -81.34433305822438
-4.811548298002157 3.117160333020418 -81.34433305822438
4.811548298002157 3.117160333020418 -78.65566694177562
4.739986805076454 3.117160333020418 -75.14483954648387
-4.739986805076454 3.117160333020418 -75.14483954648387
-4.811548298002157 3.117160333020418 -78.65566694177562
4.739986805076454 3.117160333020418 -44.85516045351613
-4.739986805076454 3.117160333020418 -44.85516045351613
4.811548298002157 3.117160333020418 -41.34433305822439
-4.811548298002157 3.117160333020418 -41.34433305822439
4.811548298002157 3.117160333020418 -38.65566694177561
4.739986805076454 3.117160333020418 -35.14483954648387
-4.739986805076454 3.117160333020418 -35.14483954648387
-4.811548298002157 3.117160333020418 -38.65566694177561
8.75 0 -28.71587163718709
8.75 0 -22.28690372789031
8.75 0 -15.85793581859353
8.75 0 -9.428967909296748
5.875000000000016 0 0
3.730349362740526e-14 0 0
-5.874999999999972 0 0
-8.75 0 -9.428967909296778
-8.75 0 -15.85793581859356
-8.75 0 -22.28690372789033
-8.75 0 -28.71587163718712
-8.75 0 -50.91309627210968
-8.75 0 -56.97103209070323
-8.75 0 -63.02896790929677
-8.75 0 -69.0869037278903
-8.75 0 -90.71263371126344
-8.75 0 -96.57010696901074
-8.75 0 -102.427580226758
-8.75 0 -108.2850534845053
-8.75 0 -114.1425267422526
2.916666666666666 0 -120
-2.916666666666668 0 -120
8.75 0 -90.71263371126344
8.75 0 -96.57010696901074
8.75 0 -102.427580226758
8.75 0 -108.2850534845053
8.75 0 -114.1425267422526
8.75 0 -50.91309627210968
8.75 0 -56.97103209070323
8.75 0 -63.02896790929677
8.75 0 -69.0869037278903
8.749999999999998 0.7061170671063101 -43.18865873362347
8.749999999999998 1.025813024449325 -40
8.749999999999998 0.7061170685153534 -36.81134123907808
8.749999999999998 0.7061170685153536 -76.81134123907808
8.749999999999998 0.7061170671063137 -83.18865873362346
8.75 9.945002194022287 -115.3536411983404
8.75 13.29666812934818 -110.7072823966808
8.75 16.64833406467408 -106.0609235950212
8.75 16.64833406467411 -93.93907640497883
8.75 13.29666812934821 -89.29271760331923
8.75 9.945002194022312 -84.64635880165963
8.75 9.945002194022287 -75.3536411983404
8.75 13.29666812934818 -70.7072823966808
8.75 16.64833406467408 -66.06092359502119
8.75 16.64833406467411 -53.93907640497883
8.75 13.29666812934821 -49.29271760331924
8.75 9.945002194022312 -44.64635880165963
8.75 9.945002194022287 -35.3536411983404
8.75 13.29666812934818 -30.7072823966808
8.75 16.64833406467408 -26.06092359502119
8.75 20 -15.2763765289077
8.75 20 -9.138188264453852
8.75 6.666666666666651 -3
8.75 13.33333333333329 -3
-5.875000000000016 23 -3
-3.730349362740526e-14 23 -3
5.874999999999972 23 -3
-11.75 5.749999999999988 -3
-11.75 11.49999999999999 -3
-11.75 17.24999999999999 -3
-8.75 13.33333333333335 -3
-8.75 6.666666666666705 -3
-2.916666666666666 20 -3
2.916666666666668 20 -3
11.75 5.749999999999988 -3
11.75 11.49999999999999 -3
11.75 17.24999999999999 -3
11.75 5.749999999999988 0
11.75 11.49999999999999 0
11.75 17.24999999999999 0
-5.875000000000016 23 0
-3.730349362740526e-14 23 0
5.874999999999972 23 0
-11.75 5.749999999999988 0
-11.75 11.49999999999999 0
-11.75 17.24999999999999 0
-8.750000000000002 0.7061170670915808 -43.18865873369268
-8.750000000000002 0.7061170682043265 -76.81134123761254
-8.750000000000002 1.025813024449301 -79.99999999999999
-8.750000000000002 0.7061170670915835 -83.18865873369268
-8.75 9.945002194022287 -115.3536411983404
-8.75 13.29666812934818 -110.7072823966808
-8.75 16.64833406467408 -106.0609235950212
-8.75 16.64833406467411 -93.93907640497883
-8.75 13.29666812934821 -89.29271760331923
-8.75 9.945002194022312 -84.64635880165963
-8.75 9.945002194022287 -75.3536411983404
-8.75 13.29666812934818 -70.7072823966808
-8.75 16.64833406467408 -66.06092359502119
-8.75 16.64833406467411 -53.93907640497883
-8.75 13.29666812934821 -49.29271760331924
-8.75 9.945002194022312 -44.64635880165963
-8.75 9.945002194022287 -35.3536411983404
-8.75 13.29666812934818 -30.7072823966808
-8.75 16.64833406467408 -26.06092359502119
-8.75 20 -9.138188264453857
-8.75 20 -15.27637652890771
-8.750000000000002 0.7061170682048483 -36.811341237615
-8.750000000000002 1.025813024449301 -40
2.916666666666666 6.593336258696391 -120
-2.916666666666668 6.593336258696391 -120
2.916666666666666 20 -101.4145647933616
-2.916666666666668 20 -101.4145647933616
2.916666666666666 20 -98.58543520663844
-2.916666666666668 20 -98.58543520663844
-6.884840642256118e-15 8.78110445868505 -83.03286670812554
2.916666666666666 20 -61.41456479336156
-2.916666666666668 20 -61.41456479336156
2.891855689916029e-15 8.78110445868505 -76.96713329187448
2.916666666666666 20 -58.58543520663844
-2.916666666666668 20 -58.58543520663844
-6.884840642256118e-15 8.78110445868505 -43.03286670812551
2.916666666666666 20 -21.41456479336156
-2.916666666666668 20 -21.41456479336156
2.891855689916029e-15 8.78110445868505 -36.96713329187448
1.032043482400261e-14 8.809925786357672 -78.65566694177561
1.032043482400261e-14 8.809925786357672 -81.34433305822438
1.032043482400261e-14 8.809925786357672 -38.65566694177561
8.364238333351972e-15 8.809925786357672 -41.34433305822439
6.645793737353684e-15 5.673108799772383 -84.85516045351613
0 3.117160333020418 -84.85516045351613
4.775807579282946 3.117160333020418 -83.09974757177838
4.170015321861628e-15 5.733034586130056 -81.34433305822438
-4.775807579281844 3.117160333020418 -83.09974757183238
4.775807579283589 3.117160333020418 -76.90025242825321
-8.881784197001252e-16 3.117160333020418 -75.14483954648387
-4.775807579284689 3.117160333020418 -76.90025242830721
4.170015321861628e-15 5.733034586130056 -78.65566694177561
6.645793737353684e-15 5.673108799772383 -75.14483954648387
6.645793737353684e-15 5.673108799772383 -44.85516045351613
0 3.117160333020418 -44.85516045351613
4.775807579282946 3.117160333020418 -43.09974757177839
4.170015321861628e-15 5.733034586130056 -41.34433305822439
-4.775807579281844 3.117160333020418 -43.09974757183239
4.775807579283589 3.117160333020418 -36.90025242825321
-8.881784197001252e-16 3.117160333020418 -35.14483954648387
-4.775807579284689 3.117160333020418 -36.9002524283072
4.170015321861628e-15 5.733034586130056 -38.65566694177561
6.645793737353684e-15 5.673108799772383 -35.14483954648387
-6.069008412490787 0 -80.75595027623585
-4.534256541818574 0 -39.85081186140068
-4.354083408418178 0 -87.75223130804471
-4.606382546507663 0 -72.11587163718708
-3.618331760746861 0 -48.16215463295212
-4.445720938423546 0 -31.93035559183549
5.69530689343379 0 -39.81069031444594
6.117555885687176 0 -81.36781242508738
-8.881784197001252e-16 0 -115.6506874632687
2.668619471732802 0 -99.44699526923782
-2.699370114982679 0 -59.99939399887178
-2.80349336845665 0 -4.101064590769724
-3.182350470434063 0 -19.07241977324194
4.693185381607928 0 -87.78389708238979
4.04290828914205 0 -72.22884675535229
4.606382546507658 0 -47.88412836281291
-3.408227455794797 0 -104.8538235234553
4.445720938423536 0 -31.93035559183548
3.182350470434072 0 -12.64345186394514
3.729037407622046 0 -5.629625739017371
3.867261343850117 0 -58.98953602873012
0.6069042491060217 0 -81.81971059104896
5.329070518200751e-15 0 -93.27843203961123
3.182350470434061 0 -25.5013876825387
-3.531672529094246 0 -25.97329106433905
-3.991434524643593 0 -11.96892535417817
4.136470094086814 0 -19.07241977324193
-3.515823001786715 0 -66.2213437373812
8.881784197001252e-16 0 -53.93782217350893
0.7403132493055726 0 -42.93732561478004
3.305440090110024 0 -65.94542579345438
3.677279356802846 0 -105.3563168556317
-3.849537273832403 0 -98.36971806136836
-2.964144440708713 0 -110.8815390588144
3.784660145666018 0 -111.6757326468166
0.5439426635704381 0 -35.85299693326384
-1.429525748660851 0 -75.44750137474847
-5.140724136450115 0 -93.3366244178597
4.972360970668147 0 -93.5584130143026
-4.863934390394236 0 -53.95628628996089
5.194728778071555 0 -53.73912298557298
-0.6528171270039893 0 -8.348954792674103
-0.3147689882433076 0 -70.22986389533476
4.494825957901978 0 -115.7382722764271
-4.494825957901994 0 -115.7382722764271
-5.738276286361653 0 -36.02601336550661
-8.881784197001252e-15 0 -29.46537608966146
-5.401500903634484 0 -7.03955436517365
5.891406066115482 0 -43.5834883134354
-4.7688981801244 0 -43.75773816767872
4.564657630229839 0 -77.10069119429377
8.749999999999998 17.04883297366066 -100
8.749999999999998 14.84937285134294 -62.08947157666212
8.749999999999998 14.30030227500239 -20.83511634920021
8.749999999999998 10.57634540293615 -105.4792324071002
8.749999999999998 9.626881977503716 -94.4856600776524
8.749999999999998 3.51560205099522 -84.30636480589439
8.749999999999998 5.41907816861624 -12.68626578530531
8.749999999999998 11.26449755811591 -54.21905123628814
8.749999999999998 3.329331052469489 -75.53872388044623
8.749999999999998 3.667906642426768 -44.86685391975001
8.749999999999998 2.86082043482941 -35.0841799302308
8.749999999999998 4.852498877322228 -65.61292433517934
8.749999999999998 4.919888858106023 -25.20704350774646
8.749999999999998 14.78416293797546 -12.37826026804311
8.749999999999998 5.973177518891445 -99.8283493867167
8.749999999999998 5.072720643197158 -111.213790113379
8.749999999999998 2.244981381075735 -40.91648829045211
8.749999999999998 6.207274419199688 -89.7037736888681
8.749999999999998 6.893256636740849 -49.7904462150012
8.749999999999998 6.631072970562455 -19.83241926417994
8.749999999999998 5.217068605966263 -60.33978253089478
8.749999999999998 4.690949250241927 -105.4024822985195
8.749999999999998 3.367021218836824 -79.98419272309594
8.749999999999998 10.71065570728044 -65.23421064296974
8.749999999999998 10.07606587361531 -8.565615869613509
8.749999999999998 10.61851148999228 -25.49998139619561
8.749999999999998 7.661092176687819 -30.28878886757939
8.749999999999998 8.067531733536967 -70.46727488784977
8.749999999999998 10.66124937350889 -16.35075052445577
8.749999999999998 11.94749673895508 -100
8.749999999999998 5.202877475500639 -55.06625856744608
8.749999999999998 4.588797869648064 -94.47954917086378
8.749999999999998 4.322211819183167 -116.1419916107944
8.749999999999998 4.730919387645093 -7.663743072679587
8.749999999999998 16.03116950127752 -57.92931477568775
8.749999999999998 10.51678187062549 -59.30459092560684
8.749999999999998 15.63871242898481 -7.216412880422098
10.25 3.10416666666666 -3
-10.25 3.104166666666674 -3
11.75 20.125 -1.5
11.75 8.624999999999988 -1.5
11.75 14.37499999999999 -1.5
11.75 2.874999999999994 -1.5
3.157610638484556 18.22886740495932 0
-2.707174061168084 4.878797530676509 0
7.069955745470661 8.71654637064 0
-6.619519168154188 14.39111856499582 0
7.10287302211511 14.37499999999999 0
0.1126091443291184 11.52691623390895 0
-7.000954855602265 8.644857627020135 0
-2.792058517349997 18.15992185565015 0
2.948495529093417 4.721447277005962 0
-7.528051718759411 18.81262893003678 0
7.528051718759418 4.187371069963205 0
7.820492259183634 19.07601590637069 0
-7.553981076842909 4.160878030182232 0
-11.75 20.125 -1.5
-11.75 14.37499999999999 -1.500000000000001
-11.75 8.624999999999988 -1.5
-11.75 2.874999999999994 -1.5
-8.750000000000002 17.04883297366066 -100
-8.750000000000002 14.84937285134294 -62.08947157666212
-8.750000000000002 14.30030227500239 -20.83511634920021
-8.750000000000002 10.57634540293615 -105.4792324071002
-8.750000000000002 9.626881977503976 -94.48566007765326
-8.750000000000002 2.699515094634329 -84.85855604139041
-8.750000000000002 5.419078168616249 -12.68626578530534
-8.750000000000002 11.26449755811623 -54.2190512362892
-8.750000000000002 3.458421598162965 -75.16751214249891
-8.750000000000002 3.667906642423606 -44.86685391977314
-8.750000000000002 2.860820434257588 -35.08417992964694
-8.750000000000002 4.852498877322228 -65.61292433517934
-8.750000000000002 4.919888858106019 -25.20704350774648
-8.750000000000002 14.78416293797546 -12.37826026804311
-8.750000000000002 5.973177518891367 -99.82834938671701
-8.750000000000002 5.072720643197158 -111.213790113379
-8.750000000000002 2.232257556782351 -79.08559905366137
-8.750000000000002 2.244981381066833 -40.9164882905222
-8.750000000000002 6.207274419202045 -89.70377368887196
-8.750000000000002 6.893256636741222 -49.7904462150056
-8.750000000000002 6.631072970562454 -19.83241926417996
-8.750000000000002 5.217068605966202 -60.33978253089489
-8.750000000000002 4.690949250241919 -105.4024822985196
-8.750000000000002 10.71065570728044 -65.23421064296974
-8.750000000000002 10.07606587361535 -8.565615869613488
-8.750000000000002 10.61851148999228 -25.49998139619561
-8.750000000000002 7.661092176663012 -30.28878886755406
-8.750000000000002 8.067531733536967 -70.46727488784977
-8.750000000000002 10.66124937350889 -16.35075052445577
-8.750000000000002 11.94749673895508 -100
-8.750000000000002 5.2028774755002 -55.06625856744741
-8.750000000000002 4.588797869647257 -94.47954917086518
-8.750000000000002 4.322211819183167 -116.1419916107944
-8.750000000000002 4.730919387645115 -7.663743072679601
-8.750000000000002 16.03116950127754 -57.92931477568779
-8.750000000000002 10.51678187062546 -59.30459092560714
-8.750000000000002 15.63871242898483 -7.216412880422091
5.408163265306122 3.296668129348196 -120
-1.77635683940025e-15 3.296668129348196 -120
-5.408163265306122 3.296668129348195 -120
0 17.51509212843188 -104.8593512915276
2.608149752858692 11.8785503615712 -112.6731954975817
-3.927407251478684 11.40584443897887 -113.3284998645487
3.425499532522361 15.31398684488683 -107.9107069770054
-3.476646512586623 14.88676812158093 -108.5029531953247
-0.08012982863338003 9.227542301074937 -116.348243928075
4.588937318178395 8.847553474812242 -116.8750161247994
-4.545522698995637 9.036283955994872 -116.6133821942988
-4.571918005010614 17.57277528828452 -104.7793860853703
4.623072533026859 17.65677865128797 -104.6629336188681
5.833333333333333 20 -100
-5.833333333333336 20 -100
0 20 -100
0 17.5150921284319 -95.1406487084724
4.257176050217939 11.09666197897271 -86.2428856278934
0.08387105419065399 11.99983174922016 -87.49493487515052
-4.34357679931496 11.09303048041134 -86.23785134177139
3.183699220954867 14.72883777656325 -91.27811059122759
-3.541196133146787 14.77322170291477 -91.33963929093541
4.571918005010631 17.57277528828453 -95.22061391462972
-4.57191800501063 17.57277528828453 -95.22061391462972
0 17.51509212843188 -64.85935129152762
-4.257176050217932 11.0966619789727 -73.75711437210661
-0.0838710541906611 11.99983174922015 -72.50506512484949
4.343576799314951 11.09303048041133 -73.76214865822863
3.444933751332468 14.79808530704209 -68.6258927077461
-3.281147336869534 14.70392123513908 -68.75643079618601
-4.571918005010614 17.57277528828452 -64.77938608537028
4.571918005010619 17.57277528828452 -64.77938608537028
0 20 -60
5.833333333333333 20 -60.00000000000001
-5.833333333333336 20 -60
0 17.5150921284319 -55.1406487084724
4.257176050217931 11.09666197897271 -46.2428856278934
0.0838710541906611 11.99983174922015 -47.49493487515051
-4.343576799314954 11.09303048041134 -46.23785134177138
3.183699220954865 14.72883777656325 -51.27811059122759
-3.541196133146787 14.77322170291477 -51.33963929093541
4.571918005010631 17.57277528828453 -55.22061391462973
-4.57191800501063 17.57277528828453 -55.22061391462972
0 17.51509212843188 -24.85935129152761
-4.257176050217932 11.0966619789727 -33.75711437210661
-0.08387105419065755 11.99983174922015 -32.50506512484949
4.343576799314954 11.09303048041132 -33.76214865822863
3.44493375133247 14.79808530704209 -28.6258927077461
-3.281147336869532 14.70392123513908 -28.75643079618602
-4.571918005010614 17.57277528828452 -24.77938608537028
4.571918005010619 17.57277528828452 -24.77938608537028
-1.77635683940025e-15 20 -7.771939524365527
-3.552713678800501e-15 20 -16.64262526899604
3.674472798579259 20 -12.20728239668078
-3.755855967337504 20 -12.20728239668078
4.535473658908947 20 -17.11206957035161
4.53547365890895 20 -7.302495223009945
-4.535473658908952 20 -7.302495223009947
-4.535473658908949 20 -17.11206957035161
8.812499999999986 23 -1.5
2.937499999999966 23 -1.5
-8.812500000000007 23 -1.5
-2.937500000000027 23 -1.499999999999999
2.343572129800541 8.492494452959743 -79.96198570839123
-2.343572129800532 8.492494452959745 -79.96198570839123
-2.343572129800538 8.492494452959743 -39.96198570839124
2.343572129800548 8.492494452959741 -39.96198570839123
2.769623167479223 3.117160333020418 -80.00000000001714
-2.807624370169409 3.117160333020418 -80.000000000055
-2.738329560703451 5.03678834007754 -79.86420091783458
2.793177062060757 5.006580416386124 -80
2.769623167479223 3.117160333020418 -40.00000000001714
-2.807624370169407 3.117160333020418 -40.000000000055
-2.738329560703446 5.036788340077543 -40.13579908216543
2.738329560703451 5.03678834007754 -40.13579908216543
-3.374880194654255e-14 8.60403360953698 -57.32038077776787
0.05401451111903555 8.436045064995735 -22.69937377179547
-0.1655652529998493 8.711237896229051 -97.10658136601823
-0.04069158437912357 11.48649136780514 -11.5453859011152
-0.4955199292090966 7.647884312767569 -65.50375070656932
1.80136079983928 14.00620392299407 -100
-1.801360799839284 14.00620392299406 -60
-2.0846979207204 13.6711750086546 -18.64575348344247
0.2030704308401412 7.776295941408241 -105.5882383864129
-2.084697920720401 14.02901192274155 -5.768811309919096
-2.052848160345488 6.719103511638018 -6.767111533268918
2.135028560018506 6.71763228205625 -51.18674522656317
-2.319347363979415 6.903390433445155 -90.88306505284754
4.031972533494049 15.15498477203091 -60
-2.209591219014897 6.727736241735903 -28.83983984897348
2.4330186043015 6.424289718645817 -16.1344682553733

CELLS 2576 11230
1 0
1 1
1 2
1 3
1 4
1 5
1 6
1 7
1 8
1 9
1 10
1 11
1 12
1 13
1 14
1 15
1 16
1 17
1 18
1 19
1 20
1 21
1 22
1 23
1 24
1 25
1 26
1 27
1 28
1 29
1 30
1 31
1 32
1 33
1 34
1 35
1 36
1 37
1 38
1 39
1 40
1 41
1 42
1 43
1 44
1 45
1 46
1 47
1 48
1 49
1 50
1 51
1 52
1 53
1 54
1 55
1 56
1 57
1 58
1 59
1 60
1 61
1 62
1 63
1 64
1 65
1 66
1 67
1 68
1 69
1 70
1 71
1 72
1 73
1 74
1 75
1 76
1 77
1 78
1 79
1 80
1 81
2 0 1
2 1 2
2 2 3
2 3 82
2 82 83
2 83 84
2 84 85
2 85 4
2 4 5
2 5 6
2 6 86
2 86 87
2 87 88
2 88 7
2 8 7
2 8 9
2 9 89
2 89 90
2 90 91
2 91 92
2 92 10
2 11 10
2 12 11
2 13 12
2 13 93
2 93 94
2 94 95
2 95 96
2 96 14
2 15 14
2 16 15
2 17 16
2 17 97
2 97 98
2 98 99
2 99 100
2 100 101
2 101 18
2 19 102
2 102 103
2 103 18
2 20 104
2 104 105
2 105 106
2 106 107
2 107 108
2 108 19
2 20 21
2 21 22
2 22 23
2 0 109
2 109 110
2 110 111
2 111 112
2 112 23
2 1 24
2 0 113
2 113 24
2 24 114
2 114 25
2 2 25
2 25 115
2 115 3
2 26 116
2 116 23
2 26 27
2 20 117
2 117 27
2 19 28
2 28 118
2 118 119
2 119 120
2 120 29
2 29 30
2 30 121
2 121 122
2 122 123
2 123 31
2 31 124
2 124 125
2 125 126
2 126 32
2 32 33
2 33 127
2 127 128
2 128 129
2 129 34
2 34 130
2 130 131
2 131 132
2 132 35
2 35 133
2 133 134
2 134 36
2 4 135
2 135 136
2 136 36
2 38 137
2 137 138
2 138 139
2 139 37
2 8 140
2 140 141
2 141 142
2 142 38
2 39 143
2 143 144
2 144 9
2 39 145
2 145 146
2 146 36
2 5 147
2 147 148
2 148 149
2 149 37
2 6 150
2 150 151
2 151 152
2 152 40
2 37 40
2 41 153
2 153 154
2 154 155
2 155 40
2 7 156
2 156 157
2 157 158
2 158 41
2 38 41
2 13 159
2 159 42
2 43 160
2 160 14
2 44 161
2 161 43
2 17 162
2 162 44
2 18 45
2 45 163
2 163 164
2 164 165
2 165 46
2 46 47
2 47 166
2 166 167
2 167 168
2 168 48
2 48 169
2 169 170
2 170 171
2 171 49
2 49 50
2 50 172
2 172 173
2 173 174
2 174 51
2 51 175
2 175 176
2 176 177
2 177 52
2 39 178
2 178 179
2 179 52
2 53 180
2 180 10
2 42 181
2 181 53
2 53 11
2 42 12
2 43 15
2 44 16
2 28 182
2 182 183
2 183 45
2 21 27
2 22 26
2 29 184
2 184 185
2 185 46
2 30 186
2 186 187
2 187 47
2 31 54
2 54 55
2 55 188
2 188 56
2 56 57
2 57 48
2 32 189
2 189 190
2 190 49
2 57 58
2 58 191
2 191 59
2 59 54
2 33 192
2 192 193
2 193 50
2 34 60
2 60 61
2 61 194
2 194 62
2 62 63
2 63 51
2 35 195
2 195 196
2 196 52
2 63 64
2 64 197
2 197 65
2 65 60
2 59 198
2 198 58
2 55 199
2 199 56
2 65 200
2 200 64
2 61 201
2 201 62
2 66 202
2 202 67
2 67 203
2 203 66
2 68 204
2 204 66
2 68 205
2 205 69
2 67 206
2 206 69
2 68 70
2 71 207
2 207 70
2 71 208
2 208 72
2 73 209
2 209 72
2 69 73
2 70 210
2 210 73
2 71 211
2 211 72
2 74 212
2 212 75
2 75 213
2 213 74
2 76 214
2 214 74
2 76 215
2 215 77
2 75 216
2 216 77
2 76 78
2 79 217
2 217 78
2 79 218
2 218 80
2 81 219
2 219 80
2 77 81
2 78 220
2 220 81
2 79 221
2 221 80
3 1 270 0
3 0 237 109
3 0 270 237
3 2 228 1
3 228 270 1
3 3 228 2
3 82 239 3
3 3 257 228
3 239 257 3
3 6 4 5
3 86 4 6
3 4 241 85
3 86 241 4
3 8 9 7
3 7 9 88
3 9 233 88
3 89 269 9
3 9 269 233
3 11 267 10
3 10 227 92
3 10 267 227
3 12 223 11
3 223 267 11
3 13 271 12
3 12 271 223
3 93 226 13
3 226 271 13
3 15 222 14
3 14 225 96
3 222 258 14
3 14 258 225
3 16 222 15
3 17 222 16
3 97 224 17
3 17 224 222
3 18 266 101
3 103 266 18
3 19 265 102
3 108 265 19
3 21 229 20
3 20 235 104
3 229 235 20
3 22 229 21
3 23 272 22
3 22 272 229
3 112 236 23
3 236 272 23
3 83 245 82
3 82 245 239
3 84 248 83
3 83 248 245
3 85 240 84
3 240 248 84
3 85 241 240
3 87 241 86
3 88 233 87
3 233 241 87
3 90 247 89
3 247 269 89
3 91 234 90
3 234 247 90
3 92 246 91
3 91 246 234
3 227 246 92
3 94 261 93
3 93 261 226
3 95 232 94
3 232 261 94
3 96 249 95
3 95 249 232
3 225 249 96
3 98 259 97
3 97 259 224
3 99 254 98
3 254 259 98
3 100 238 99
3 238 254 99
3 101 255 100
3 100 255 238
3 101 266 255
3 102 230 103
3 102 265 230
3 230 266 103
3 104 260 105
3 235 260 104
3 105 231 106
3 105 260 231
3 106 253 107
3 231 253 106
3 107 256 108
3 253 256 107
3 256 265 108
3 109 262 110
3 237 262 109
3 110 242 111
3 110 262 242
3 111 252 112
3 242 252 111
3 112 252 236
3 224 243 222
3 243 258 222
3 251 257 223
3 223 271 251
3 257 267 223
3 235 243 224
3 224 244 235
3 224 259 244
3 225 264 249
3 258 264 225
3 226 250 237
3 237 251 226
3 226 261 250
3 251 271 226
3 227 268 246
3 227 267 257
3 257 268 227
3 228 257 251
3 251 270 228
3 229 243 235
3 229 272 243
3 230 256 255
3 255 266 230
3 230 265 256
3 238 253 231
3 231 254 238
3 244 254 231
3 231 260 244
3 242 250 232
3 232 252 242
3 249 252 232
3 250 261 232
3 233 263 241
3 233 269 263
3 240 247 234
3 234 248 240
3 234 246 245
3 245 248 234
3 244 260 235
3 252 264 236
3 236 264 258
3 258 272 236
3 250 262 237
3 237 270 251
3 238 255 253
3 245 268 239
3 239 268 257
3 241 263 240
3 240 263 247
3 242 262 250
3 243 272 258
3 244 259 254
3 246 268 245
3 263 269 247
3 249 264 252
3 255 256 253
3 0 113 1
3 1 113 24
3 1 114 2
3 1 24 114
3 2 114 25
3 2 115 3
3 2 25 115
3 109 282 0
3 0 282 113
3 3 283 82
3 115 283 3
3 85 306 4
3 4 306 135
3 28 305 19
3 19 305 108
3 104 278 20
3 20 278 117
3 23 281 112
3 116 281 23
3 113 289 24
3 24 289 114
3 34 283 25
3 25 289 34
3 114 289 25
3 25 283 115
3 27 295 26
3 26 281 116
3 26 295 281
3 117 278 27
3 278 295 27
3 118 305 28
3 30 273 29
3 29 273 120
3 121 273 30
3 31 278 123
3 124 281 31
3 31 295 278
3 281 295 31
3 33 307 32
3 32 274 126
3 32 307 274
3 127 307 33
3 34 282 129
3 130 283 34
3 34 289 282
3 35 275 132
3 133 275 35
3 36 309 134
3 136 309 36
3 82 285 83
3 283 299 82
3 82 299 285
3 83 292 84
3 285 292 83
3 84 279 85
3 84 292 279
3 279 306 85
3 105 304 104
3 104 290 278
3 104 304 290
3 106 287 105
3 287 304 105
3 107 294 106
3 106 294 287
3 108 288 107
3 288 294 107
3 108 305 288
3 110 303 109
3 109 291 282
3 109 303 291
3 111 293 110
3 293 303 110
3 112 284 111
3 284 293 111
3 281 300 112
3 112 300 284
3 282 289 113
3 119 288 118
3 288 305 118
3 120 276 119
3 276 288 119
3 273 302 120
3 120 302 276
3 122 277 121
3 121 302 273
3 277 302 121
3 123 290 122
3 122 290 277
3 278 290 123
3 125 300 124
3 124 300 281
3 126 296 125
3 296 300 125
3 274 296 126
3 128 280 127
3 280 307 127
3 129 291 128
3 128 291 280
3 282 291 129
3 131 299 130
3 130 299 283
3 132 298 131
3 298 299 131
3 275 298 132
3 134 286 133
3 133 286 275
3 134 309 286
3 135 297 136
3 135 306 297
3 297 309 136
3 274 308 296
3 307 308 274
3 286 301 275
3 292 298 275
3 275 301 292
3 287 294 276
3 276 302 287
3 276 294 288
3 287 302 277
3 277 304 287
3 290 304 277
3 292 301 279
3 279 301 297
3 297 306 279
3 291 303 280
3 303 308 280
3 280 308 307
3 284 296 293
3 284 300 296
3 285 298 292
3 285 299 298
3 297 301 286
3 286 309 297
3 296 308 293
3 293 308 303
3 5 4 310
3 4 135 310
3 147 5 310
3 9 8 311
3 8 140 311
3 144 9 311
3 37 36 139
3 149 36 37
3 149 136 36
3 36 146 139
3 38 137 39
3 142 38 39
3 137 145 39
3 142 39 143
3 136 148 135
3 148 147 135
3 135 147 310
3 148 136 149
3 145 137 138
3 146 138 139
3 146 145 138
3 140 141 144
3 140 144 311
3 141 142 143
3 141 143 144
3 5 315 6
3 147 315 5
3 6 315 150
3 40 312 37
3 37 312 149
3 152 312 40
3 148 313 147
3 147 313 150
3 150 315 147
3 149 314 148
3 151 313 148
3 148 314 151
3 149 312 152
3 152 314 149
3 150 313 151
3 151 314 152
3 6 326 86
3 150 326 6
3 88 328 7
3 7 328 156
3 40 327 152
3 155 327 40
3 41 325 153
3 158 325 41
3 86 324 87
3 86 326 324
3 87 317 88
3 87 324 317
3 317 328 88
3 151 318 150
3 318 326 150
3 152 320 151
3 151 320 318
3 152 327 320
3 153 323 154
3 153 325 323
3 154 316 155
3 154 323 316
3 316 327 155
3 156 322 157
3 156 328 322
3 157 319 158
3 157 322 319
3 319 325 158
3 316 321 320
3 320 327 316
3 316 323 321
3 321 322 317
3 317 324 321
3 322 328 317
3 320 321 318
3 321 324 318
3 324 326 318
3 319 322 321
3 321 323 319
3 323 325 319
3 8 7 332
3 7 156 332
3 140 8 332
3 41 38 329
3 38 142 329
3 158 41 329
3 141 140 331
3 140 156 331
3 156 140 332
3 142 141 330
3 141 157 330
3 157 141 331
3 142 158 329
3 158 142 330
3 156 157 331
3 157 158 330
3 89 9 366
3 9 144 366
3 10 92 343
3 180 10 343
3 93 13 342
3 13 159 342
3 14 96 341
3 160 14 341
3 97 17 338
3 17 162 338
3 45 18 365
3 18 101 365
3 143 39 369
3 39 178 369
3 159 42 350
3 42 181 350
3 43 160 349
3 161 43 349
3 44 48 338
3 48 44 349
3 44 161 349
3 162 44 338
3 163 45 365
3 47 46 333
3 46 165 333
3 166 47 333
3 48 168 338
3 169 48 341
3 341 48 349
3 50 49 367
3 49 171 334
3 49 334 367
3 172 50 367
3 51 53 343
3 53 51 350
3 51 174 342
3 175 51 343
3 51 342 350
3 52 177 335
3 179 52 335
3 53 180 343
3 181 53 350
3 90 89 339
3 339 89 366
3 91 90 353
3 90 339 353
3 92 91 345
3 345 91 353
3 343 92 359
3 92 345 359
3 94 93 363
3 93 342 352
3 93 352 363
3 95 94 354
3 354 94 363
3 96 95 344
3 344 95 354
3 341 96 360
3 96 344 360
3 98 97 364
3 97 338 351
3 97 351 364
3 99 98 347
3 347 98 364
3 100 99 355
3 99 347 355
3 101 100 348
3 348 100 355
3 101 348 365
3 144 143 357
3 357 143 369
3 144 357 366
3 342 159 350
3 160 341 349
3 164 163 348
3 348 163 365
3 165 164 336
3 336 164 348
3 333 165 362
3 165 336 362
3 167 166 337
3 166 333 362
3 337 166 362
3 168 167 351
3 167 337 351
3 338 168 351
3 170 169 360
3 169 341 360
3 171 170 356
3 356 170 360
3 334 171 356
3 173 172 340
3 340 172 367
3 174 173 352
3 173 340 352
3 342 174 352
3 176 175 359
3 175 343 359
3 177 176 358
3 358 176 359
3 335 177 358
3 178 179 346
3 178 346 369
3 179 335 346
3 334 356 368
3 367 334 368
3 346 335 361
3 353 335 358
3 335 353 361
3 347 336 355
3 336 347 362
3 336 348 355
3 347 337 362
3 337 347 364
3 351 337 364
3 353 339 361
3 339 357 361
3 357 339 366
3 352 340 363
3 363 340 368
3 340 367 368
3 344 354 356
3 344 356 360
3 345 353 358
3 345 358 359
3 357 346 361
3 346 357 369
3 356 354 368
3 354 363 368
3 180 11 10
3 53 11 180
3 181 12 11
3 181 11 53
3 42 12 181
3 159 13 12
3 42 159 12
3 160 15 14
3 43 15 160
3 161 16 15
3 43 161 15
3 44 16 161
3 162 17 16
3 44 162 16
3 45 372 18
3 18 372 103
3 19 370 28
3 102 370 19
3 28 370 182
3 183 372 45
3 103 371 102
3 102 371 370
3 103 372 371
3 182 371 183
3 370 371 182
3 371 372 183
3 20 117 21
3 21 117 27
3 22 21 26
3 21 27 26
3 22 116 23
3 22 26 116
3 28 379 118
3 182 379 28
3 120 382 29
3 29 382 184
3 163 380 45
3 45 380 183
3 46 381 165
3 185 381 46
3 118 374 119
3 118 379 374
3 119 376 120
3 374 376 119
3 376 382 120
3 164 375 163
3 375 380 163
3 165 377 164
3 164 377 375
3 165 381 377
3 183 378 182
3 378 379 182
3 183 380 378
3 184 373 185
3 184 382 373
3 373 381 185
3 376 377 373
3 373 382 376
3 377 381 373
3 375 377 374
3 374 378 375
3 374 377 376
3 374 379 378
3 378 380 375
3 29 383 30
3 184 383 29
3 30 383 186
3 47 384 46
3 46 384 185
3 187 384 47
3 185 385 184
3 186 383 184
3 184 385 186
3 185 384 187
3 187 385 185
3 186 385 187
3 30 392 121
3 186 392 30
3 54 31 55
3 31 123 55
3 166 393 47
3 47 393 187
3 56 48 57
3 56 168 48
3 123 387 55
3 55 387 188
3 56 389 168
3 188 389 56
3 121 390 122
3 121 392 390
3 122 387 123
3 122 390 387
3 167 391 166
3 391 393 166
3 168 389 167
3 389 391 167
3 187 386 186
3 386 392 186
3 187 393 386
3 387 388 188
3 388 389 188
3 386 391 390
3 390 392 386
3 386 393 391
3 387 390 388
3 388 391 389
3 390 391 388
3 31 54 59
3 31 59 124
3 126 401 32
3 32 401 189
3 57 48 58
3 48 169 58
3 49 400 171
3 190 400 49
3 169 395 58
3 58 395 191
3 59 397 124
3 191 397 59
3 124 397 125
3 125 398 126
3 397 398 125
3 398 401 126
3 170 395 169
3 171 399 170
3 170 399 395
3 171 400 399
3 189 394 190
3 189 401 394
3 394 400 190
3 395 396 191
3 396 397 191
3 398 399 394
3 394 401 398
3 399 400 394
3 395 399 396
3 396 398 397
3 396 399 398
3 32 403 33
3 189 403 32
3 33 403 192
3 50 404 49
3 49 404 190
3 193 404 50
3 190 402 189
3 189 402 192
3 192 403 189
3 193 402 190
3 190 404 193
3 192 402 193
3 33 411 127
3 192 411 33
3 60 34 61
3 34 129 61
3 172 412 50
3 50 412 193
3 62 51 63
3 62 174 51
3 129 406 61
3 61 406 194
3 62 408 174
3 194 408 62
3 127 409 128
3 127 411 409
3 128 406 129
3 128 409 406
3 173 410 172
3 410 412 172
3 174 408 173
3 408 410 173
3 193 405 192
3 405 411 192
3 193 412 405
3 406 407 194
3 407 408 194
3 405 410 409
3 409 411 405
3 405 412 410
3 406 409 407
3 407 410 408
3 409 410 407
3 65 34 60
3 130 34 65
3 132 420 35
3 35 420 195
3 64 63 51
3 51 175 64
3 52 419 177
3 196 419 52
3 175 414 64
3 64 414 197
3 65 416 130
3 197 416 65
3 130 416 131
3 131 417 132
3 416 417 131
3 417 420 132
3 176 414 175
3 177 418 176
3 176 418 414
3 177 419 418
3 195 413 196
3 195 420 413
3 413 419 196
3 414 415 197
3 415 416 197
3 417 418 413
3 413 420 417
3 418 419 413
3 414 418 415
3 415 417 416
3 415 418 417
3 35 425 133
3 195 425 35
3 134 426 36
3 36 426 146
3 145 427 39
3 39 427 178
3 179 428 52
3 52 428 196
3 133 423 134
3 133 425 423
3 423 426 134
3 146 421 145
3 421 427 145
3 146 426 421
3 178 424 179
3 178 427 424
3 424 428 179
3 196 422 195
3 422 425 195
3 196 428 422
3 423 424 421
3 421 426 423
3 424 427 421
3 422 424 423
3 423 425 422
3 422 428 424
3 37 429 40
3 139 429 37
3 41 431 38
3 38 431 137
3 40 429 155
3 153 431 41
3 137 432 138
3 137 431 153
3 153 432 137
3 138 430 139
3 154 430 138
3 138 432 154
3 155 429 139
3 139 430 155
3 154 432 153
3 155 430 154
3 55 433 54
3 54 433 59
3 199 433 55
3 57 434 56
3 56 434 199
3 58 434 57
3 198 434 58
3 59 433 198
3 198 433 199
3 199 434 198
3 55 188 199
3 199 188 56
3 198 58 191
3 59 198 191
3 61 436 60
3 60 436 65
3 201 436 61
3 63 435 62
3 62 435 201
3 64 435 63
3 200 435 64
3 65 436 200
3 201 435 200
3 200 436 201
3 61 194 201
3 194 62 201
3 197 200 64
3 65 200 197
3 202 203 66
3 203 202 67
3 204 202 66
3 202 206 67
3 68 205 204
3 205 69 206
3 202 204 205
3 206 202 205
3 66 203 204
3 67 206 203
3 68 437 70
3 204 437 68
3 73 438 69
3 69 438 206
3 70 437 207
3 71 207 208
3 72 208 209
3 209 438 73
3 203 437 204
3 206 438 203
3 203 438 437
3 207 437 208
3 208 438 209
3 437 438 208
3 68 70 440
3 205 68 440
3 73 69 439
3 69 205 439
3 70 210 440
3 210 73 439
3 205 210 439
3 210 205 440
3 70 207 210
3 207 71 211
3 211 72 209
3 210 209 73
3 210 207 211
3 209 210 211
3 208 211 71
3 211 208 72
3 212 213 74
3 213 212 75
3 214 212 74
3 212 216 75
3 76 215 214
3 215 77 216
3 212 214 215
3 216 212 215
3 214 74 213
3 75 216 213
3 76 441 78
3 214 441 76
3 81 442 77
3 77 442 216
3 78 441 217
3 218 79 217
3 218 219 80
3 219 442 81
3 213 441 214
3 216 442 213
3 213 442 441
3 217 441 218
3 218 442 219
3 441 442 218
3 76 78 444
3 215 76 444
3 81 77 443
3 77 215 443
3 78 220 444
3 220 81 443
3 215 220 443
3 220 215 444
3 78 217 220
3 217 79 221
3 221 80 219
3 220 219 81
3 220 217 221
3 219 220 221
3 218 221 79
3 221 218 80
4 236 71 211 449
4 384 333 185 187
4 264 236 211 449
4 378 379 256 230
4 379 374 378 256
4 211 71 300 449
4 378 256 374 453
4 265 256 379 230
4 256 255 378 230
4 426 309 146 454
4 182 379 378 230
4 255 256 378 453
4 304 447 260 457
4 378 380 183 230
4 290 304 260 457
4 236 300 71 449
4 66 202 290 457
4 352 212 75 456
4 333 185 187 450
4 306 455 448 460
4 333 187 393 450
4 333 381 185 450
4 378 375 255 453
4 182 378 371 230
4 277 387 390 457
4 136 146 309 454
4 375 255 380 378
4 378 183 371 230
4 425 301 448 452
4 381 450 362 453
4 425 448 422 452
4 72 211 360 449
4 79 299 221 459
4 290 387 277 457
4 239 79 221 459
4 379 182 265 230
4 390 387 388 457
4 380 266 183 230
4 72 360 225 449
4 225 249 264 449
4 397 396 211 449
4 75 352 408 212
4 136 309 297 454
4 309 426 448 454
4 318 297 135 455
4 239 299 79 459
4 202 290 387 66
4 416 417 415 459
4 360 72 395 211
4 363 340 352 445
4 363 352 261 456
4 297 321 454 455
4 297 454 448 455
4 397 211 300 449
4 277 390 447 457
4 5 310 315 147
4 311 140 8 332
4 211 264 208 236
4 136 297 321 454
4 448 455 339 460
4 290 202 387 457
4 211 397 300 71
4 408 410 407 456
4 416 221 79 299
4 352 408 212 456
4 254 347 447 453
4 363 261 445 456
4 299 285 446 459
4 247 339 455 460
4 363 445 352 456
4 423 422 425 448
4 309 448 297 454
4 413 446 420 452
4 336 381 362 453
4 364 259 254 457
4 396 395 211 449
4 221 218 79 239
4 318 321 297 455
4 339 361 448 460
4 135 297 306 455
4 360 211 395 449
4 298 417 299 446
4 299 446 417 459
4 299 417 416 459
4 297 448 306 455
4 377 373 381 450
4 221 299 416 459
4 249 225 344 360
4 135 324 318 455
4 266 371 183 230
4 265 182 371 230
4 425 301 286 448
4 353 446 452 460
4 362 333 393 450
4 333 362 381 450
4 297 318 136 321
4 285 298 299 446
4 308 449 445 458
4 264 252 236 449
4 247 455 263 460
4 426 423 309 448
4 208 211 236 71
4 256 379 374 288
4 362 450 447 453
4 339 353 361 460
4 195 413 420 452
4 361 452 448 460
4 242 445 293 449
4 421 448 426 454
4 293 445 308 449
4 260 447 244 457
4 377 450 381 453
4 418 419 358 446
4 226 75 212 456
4 446 301 452 460
4 225 360 249 449
4 353 452 361 460
4 226 352 75 456
4 425 275 301 452
4 275 425 195 452
4 296 449 308 458
4 420 417 298 446
4 377 381 336 453
4 195 420 275 452
4 418 413 419 446
4 378 374 375 453
4 358 446 419 452
4 360 344 249 449
4 279 240 306 460
4 254 238 347 453
4 394 449 398 458
4 420 446 275 452
4 374 256 288 453
4 420 413 417 446
4 337 393 391 447
4 447 450 287 453
4 160 14 15 222
4 262 303 242 445
4 226 261 352 456
4 364 254 447 457
4 254 447 231 453
4 393 447 362 450
4 303 445 262 456
4 260 304 231 447
4 419 446 413 452
4 296 293 308 449
4 347 362 447 453
4 448 452 301 460
4 300 252 236 284
4 66 290 235 457
4 324 321 318 455
4 203 202 66 235
4 66 235 202 457
4 252 284 300 449
4 296 284 293 449
4 394 451 449 458
4 300 236 252 449
4 426 421 423 448
4 245 446 285 459
4 373 450 377 453
4 299 245 285 459
4 396 397 398 449
4 286 423 425 448
4 238 355 347 453
4 339 234 353 460
4 239 268 245 459
4 362 393 337 447
4 365 348 266 380
4 380 348 255 375
4 379 182 370 265
4 348 255 375 453
4 183 372 266 380
4 368 445 354 449
4 259 244 254 457
4 287 450 302 453
4 254 347 364 447
4 445 449 368 451
4 260 235 290 457
4 247 234 339 460
4 9 144 311 328
4 398 449 296 458
4 231 447 287 453
4 135 4 310 326
4 386 447 393 450
4 250 445 261 456
4 285 248 292 446
4 275 446 301 452
4 393 386 391 447
4 239 245 299 459
4 252 293 284 449
4 372 365 266 380
4 392 277 390 450
4 298 275 420 446
4 265 370 379 305
4 280 445 409 458
4 231 304 287 447
4 425 422 195 452
4 287 294 253 453
4 202 235 203 457
4 345 446 246 459
4 355 336 347 453
4 262 242 250 445
4 262 445 250 456
4 252 242 293 449
4 321 320 136 454
4 398 397 300 449
4 340 412 410 451
4 415 417 418 459
4 340 410 445 451
4 407 410 409 456
4 415 221 416 459
4 246 345 234 446
4 232 445 242 449
4 347 336 362 453
4 280 409 411 458
4 299 245 239 285
4 348 336 355 453
4 408 407 212 456
4 254 231 238 453
4 234 446 353 460
4 348 375 336 453
4 277 447 390 450
4 388 387 202 457
4 344 232 249 449
4 385 187 185 450
4 368 449 356 451
4 418 417 413 446
4 232 363 261 445
4 426 146 421 454
4 309 423 286 448
4 371 372 266 183
4 370 182 371 265
4 363 368 340 445
4 280 308 303 445
4 409 445 280 456
4 287 304 277 447
4 244 447 254 457
4 334 356 400 451
4 411 409 405 458
4 390 388 391 457
4 394 398 401 458
4 348 355 255 453
4 396 399 395 449
4 247 263 240 460
4 303 293 242 445
4 354 445 232 449
4 405 409 410 445
4 409 445 405 458
4 399 398 394 449
4 353 446 358 452
4 368 354 356 449
4 449 451 445 458
4 399 449 394 451
4 244 235 260 457
4 276 294 287 453
4 417 446 418 459
4 280 445 303 456
4 285 245 248 446
4 135 297 318 136
4 354 232 344 449
4 367 412 340 451
4 404 367 334 451
4 410 445 409 456
4 340 410 173 408
4 422 448 424 452
4 308 445 280 458
4 266 348 255 380
4 353 234 345 446
4 276 287 302 453
4 260 231 244 447
4 345 358 446 459
4 427 369 424 454
4 356 449 399 451
4 238 255 355 453
4 400 356 399 451
4 294 276 288 453
4 300 284 296 449
4 253 294 288 453
4 354 344 356 449
4 340 445 368 451
4 300 296 398 449
4 321 316 320 454
4 301 446 292 460
4 276 302 450 453
4 15 43 160 222
4 352 340 173 408
4 358 418 446 459
4 185 381 373 450
4 424 422 423 448
4 373 376 450 453
4 386 390 391 447
4 358 419 335 452
4 358 353 345 446
4 357 339 448 455
4 337 364 347 447
4 390 391 447 457
4 363 232 354 445
4 187 386 393 450
4 226 212 213 456
4 233 328 144 269
4 395 399 360 449
4 292 446 248 460
4 337 364 447 457
4 297 448 301 460
4 292 298 285 446
4 392 302 277 450
4 226 75 213 212
4 336 375 377 453
4 424 423 421 448
4 405 445 410 451
4 233 269 144 455
4 361 357 339 448
4 144 269 366 455
4 409 280 128 456
4 253 288 256 453
4 368 363 354 445
4 303 308 293 445
4 253 231 287 453
4 398 296 401 458
4 276 450 376 453
4 9 144 328 269
4 277 122 390 387
4 409 128 406 456
4 429 40 155 327
4 41 325 431 153
4 391 337 447 457
4 226 250 261 456
4 297 309 286 448
4 275 298 292 446
4 424 448 421 454
4 274 401 296 458
4 9 328 233 269
4 367 340 368 451
4 374 288 276 453
4 322 144 143 455
4 292 301 275 446
4 297 301 279 460
4 74 212 406 456
4 80 221 414 459
4 386 390 447 450
4 291 128 280 456
4 357 143 144 455
4 225 344 96 249
4 181 42 350 77
4 232 261 250 445
4 332 156 7 328
4 322 143 454 455
4 203 235 244 457
4 406 128 291 456
4 315 326 6 150
4 143 39 145 369
4 36 309 136 146
4 152 40 312 327
4 252 232 242 449
4 231 254 244 447
4 334 368 356 451
4 405 445 451 458
4 376 276 382 450
4 145 143 369 454
4 329 325 41 158
4 353 358 335 452
4 424 448 346 452
4 357 454 143 455
4 285 239 299 82
4 247 366 269 455
4 373 377 376 453
4 236 300 284 112
4 369 427 145 454
4 400 399 394 451
4 428 422 424 452
4 389 202 67 457
4 122 277 290 387
4 412 405 410 451
4 74 406 291 456
4 356 360 399 449
4 398 399 396 449
4 432 154 153 323
4 413 195 196 452
4 427 145 39 369
4 309 36 426 146
4 58 395 72 211
4 64 414 80 221
4 291 406 74 129
4 386 392 390 450
4 234 248 446 460
4 195 422 196 452
4 319 158 330 157
4 387 55 202 66
4 61 74 212 406
4 406 61 74 129
4 389 56 67 202
4 75 408 62 212
4 174 352 408 75
4 346 448 424 454
4 59 397 211 71
4 221 79 65 416
4 376 374 276 453
4 253 256 255 453
4 174 408 62 75
4 154 316 430 155
4 233 324 241 455
4 344 95 249 232
4 225 96 344 360
4 337 347 362 447
4 72 395 58 169
4 55 387 123 66
4 144 328 233 317
4 290 123 387 66
4 233 241 263 455
4 247 269 263 455
4 225 72 341 360
4 146 138 430 139
4 145 137 432 138
4 359 227 80 459
4 280 411 307 458
4 428 424 346 452
4 144 9 366 269
4 366 247 339 455
4 417 299 416 131
4 369 346 424 454
4 356 344 360 449
4 359 176 418 414
4 227 218 80 459
4 427 424 421 454
4 351 389 67 457
4 252 236 284 112
4 106 253 287 294
4 237 250 213 456
4 238 355 99 347
4 246 446 245 459
4 250 226 213 456
4 397 59 124 71
4 391 389 167 457
4 246 345 91 234
4 361 346 448 452
4 252 284 293 111
4 95 344 354 232
4 80 414 359 459
4 232 250 242 445
4 297 286 301 448
4 74 213 212 456
4 291 303 262 456
4 300 236 71 112
4 313 318 150 151
4 421 146 145 454
4 221 80 218 459
4 286 275 301 425
4 382 276 302 450
4 234 245 246 446
4 64 414 175 80
4 322 454 321 455
4 259 364 351 457
4 298 299 417 131
4 99 254 238 347
4 391 167 337 457
4 357 361 346 448
4 105 231 260 304
4 285 245 239 82
4 143 145 39 319
4 152 314 151 320
4 233 144 317 455
4 345 246 92 459
4 83 285 248 292
4 319 143 145 454
4 358 176 418 359
4 234 248 245 446
4 157 331 322 156
4 241 324 326 135
4 79 65 416 130
4 359 414 418 459
4 145 146 323 454
4 233 317 324 455
4 351 167 389 457
4 390 392 121 277
4 357 448 454 455
4 346 357 448 454
4 249 232 252 449
4 249 252 264 449
4 67 56 389 168
4 168 389 67 351
4 203 67 202 457
4 377 375 374 453
4 274 296 308 458
4 227 343 359 80
4 391 337 166 393
4 228 3 2 115
4 338 206 56 57
4 313 147 135 148
4 331 141 144 140
4 353 91 345 234
4 145 325 39 319
4 268 218 227 459
4 287 231 105 304
4 227 92 246 459
4 320 136 318 321
4 423 426 309 134
4 139 36 37 429
4 39 38 431 137
4 94 363 261 232
4 302 121 392 277
4 337 362 166 393
4 293 242 252 111
4 352 174 342 75
4 74 291 129 282
4 237 291 262 456
4 135 4 326 241
4 299 239 79 283
4 234 339 90 247
4 261 352 93 226
4 358 359 418 459
4 72 395 169 360
4 288 294 253 107
4 353 339 90 234
4 359 345 92 459
4 346 369 357 454
4 427 178 424 369
4 401 126 274 296
4 93 363 352 261
4 238 231 253 453
4 428 346 335 452
4 337 167 351 457
4 359 175 414 80
4 359 92 227 459
4 190 193 404 451
4 367 368 334 451
4 399 395 360 170
4 60 65 217 283
4 237 262 291 109
4 300 398 125 397
4 382 302 273 450
4 291 280 303 456
4 273 302 392 450
4 356 400 171 334
4 330 142 143 141
4 148 314 149 136
4 371 370 265 102
4 372 266 103 371
4 124 300 397 71
4 241 324 233 87
4 303 291 262 109
4 56 48 338 57
4 130 416 79 299
4 250 213 226 237
4 419 413 196 452
4 329 41 325 431
4 34 65 60 283
4 100 348 355 255
4 162 16 17 222
4 203 244 224 457
4 355 100 255 238
4 268 246 245 459
4 248 245 285 83
4 329 38 39 142
4 149 37 36 312
4 317 321 324 455
4 374 376 377 453
4 172 367 412 340
4 280 307 308 458
4 317 322 321 455
4 417 298 132 420
4 376 382 373 450
4 414 221 415 459
4 316 323 146 454
4 238 253 255 453
4 206 67 338 56
4 143 319 322 454
4 374 119 276 288
4 212 407 406 456
4 4 135 306 241
4 418 419 177 358
4 74 237 213 456
4 363 94 354 232
4 379 118 374 288
4 74 291 237 456
4 357 366 339 455
4 364 97 259 351
4 62 342 174 75
4 129 61 74 282
4 288 253 256 107
4 360 356 399 170
4 296 398 125 300
4 336 375 348 164
4 335 361 353 452
4 407 409 406 456
4 247 240 234 460
4 253 287 231 106
4 196 428 335 452
4 418 414 415 459
4 127 280 411 307
4 65 79 217 283
4 343 64 80 219
4 281 300 71 112
4 290 123 66 278
4 428 52 196 335
4 35 275 425 195
4 303 262 242 110
4 58 341 72 169
4 43 349 160 209
4 389 388 202 457
4 240 241 85 306
4 319 321 322 454
4 42 181 223 77
4 324 317 233 87
4 335 419 196 452
4 146 316 320 327
4 279 292 84 460
4 401 398 126 296
4 356 400 399 171
4 414 64 197 221
4 395 58 191 211
4 247 366 89 269
4 84 292 248 460
4 263 269 233 455
4 391 388 389 457
4 188 56 389 202
4 212 408 62 194
4 272 23 22 116
4 123 55 66 278
4 371 266 103 230
4 102 265 371 230
4 55 188 387 202
4 212 194 61 406
4 341 96 225 360
4 59 397 191 211
4 197 221 65 416
4 412 410 172 340
4 254 98 364 347
4 273 382 120 302
4 203 243 224 235
4 113 214 24 289
4 159 350 42 216
4 265 305 288 108
4 188 389 388 202
4 194 212 408 407
4 259 98 364 254
4 409 280 411 127
4 233 328 9 88
4 191 397 396 211
4 221 197 415 416
4 71 59 124 281
4 121 392 273 302
4 333 166 362 393
4 165 333 362 381
4 228 79 217 257
4 241 86 4 326
4 169 341 72 360
4 351 224 259 457
4 367 334 49 404
4 274 307 32 403
4 191 396 395 211
4 415 414 197 221
4 79 65 130 283
4 104 260 290 304
4 175 343 64 80
4 12 42 181 223
4 357 369 143 454
4 164 336 375 377
4 159 42 12 271
4 387 188 388 202
4 212 194 406 407
4 376 374 119 276
4 159 12 13 271
4 54 31 59 281
4 179 428 346 335
4 425 286 275 133
4 275 35 420 195
4 419 196 52 335
4 56 67 338 168
4 246 268 227 459
4 312 40 429 327
4 316 321 323 454
4 196 422 428 452
4 359 92 343 227
4 371 183 378 182
4 324 86 241 326
4 345 359 358 459
4 250 237 262 456
4 203 224 67 457
4 375 380 348 163
4 283 299 239 82
4 271 159 42 216
4 259 97 224 351
4 346 361 335 452
4 302 382 120 276
4 168 67 338 351
4 279 240 85 306
4 79 130 299 283
4 175 359 343 80
4 71 124 300 281
4 298 275 132 420
4 307 403 274 458
4 145 323 319 454
4 242 303 110 293
4 165 362 336 381
4 309 286 423 134
4 234 240 248 460
4 365 348 101 266
4 119 374 118 288
4 337 351 364 457
4 310 326 4 315
4 335 177 419 358
4 21 20 229 117
4 178 424 369 346
4 351 67 224 457
4 55 31 54 278
4 317 144 322 455
4 177 176 418 358
4 9 311 332 328
4 256 265 288 108
4 257 3 79 239
4 224 244 259 457
4 105 231 287 106
4 158 142 143 330
4 357 144 366 455
4 417 132 298 131
4 257 3 228 79
4 45 365 372 380
4 88 233 328 317
4 380 365 348 163
4 163 348 375 164
4 222 17 162 206
4 99 98 254 347
4 203 224 244 235
4 291 74 237 282
4 270 214 24 113
4 118 379 305 288
4 170 356 399 171
4 51 63 77 216
4 81 63 51 219
4 72 209 341 58
4 427 421 145 454
4 402 193 190 451
4 186 385 184 450
4 121 122 390 277
4 130 65 34 283
4 325 145 323 319
4 175 343 51 64
4 270 1 0 113
4 89 339 366 247
4 56 338 48 168
4 437 438 258 208
4 398 125 126 296
4 59 71 207 281
4 207 54 59 281
4 382 376 120 276
4 84 240 279 460
4 123 122 290 387
4 28 379 370 305
4 281 70 54 295
4 235 260 290 104
4 84 248 240 460
4 280 409 128 127
4 75 62 342 216
4 214 74 61 282
4 216 75 62 212
4 206 67 56 202
4 79 217 221 65
4 71 211 59 207
4 214 74 212 61
4 66 55 202 204
4 219 64 80 221
4 72 209 58 211
4 183 45 372 380
4 54 31 281 295
4 428 179 52 335
4 275 35 425 133
4 265 19 370 305
4 266 18 365 372
4 291 406 129 128
4 391 166 337 167
4 204 66 55 278
4 31 124 59 281
4 373 382 184 450
4 251 226 213 237
4 222 438 258 243
4 323 321 319 454
4 58 48 341 169
4 192 402 189 458
4 173 174 352 408
4 85 241 4 306
4 258 437 208 272
4 400 394 190 451
4 248 84 83 292
4 410 173 172 340
4 279 301 292 460
4 78 34 25 289
4 51 53 350 81
4 14 72 225 258
4 243 66 204 229
4 193 405 412 451
4 392 386 186 450
4 174 51 342 62
4 204 55 54 278
4 34 61 129 282
4 241 86 324 87
4 90 91 353 234
4 293 110 242 111
4 331 141 322 144
4 313 135 318 148
4 349 44 48 69
4 75 13 342 226
4 181 350 81 77
4 351 168 389 167
4 55 123 31 278
4 54 68 278 295
4 305 265 19 108
4 24 228 114 289
4 89 366 9 269
4 237 291 282 109
4 94 95 354 232
4 377 165 336 381
4 161 349 43 222
4 255 101 348 266
4 314 152 149 320
4 182 28 379 370
4 39 178 427 369
4 426 36 309 134
4 6 4 326 315
4 32 126 274 401
4 331 141 157 322
4 10 11 180 267
4 151 313 318 148
4 425 423 286 133
4 143 319 158 330
4 332 7 9 328
4 278 31 54 295
4 179 428 424 346
4 100 355 99 238
4 146 145 154 138
4 73 222 438 258
4 102 371 103 230
4 171 400 49 334
4 108 288 256 107
4 207 70 54 281
4 345 91 92 246
4 441 228 257 251
4 257 442 441 251
4 394 401 189 458
4 223 442 257 251
4 220 221 217 65
4 205 206 56 202
4 220 64 219 221
4 323 145 154 146
4 181 11 12 223
4 405 192 411 458
4 222 73 209 258
4 136 149 36 327
4 42 12 271 223
4 71 236 208 272
4 243 438 258 437
4 365 101 18 266
4 19 28 370 305
4 365 18 45 372
4 110 303 262 109
4 307 274 308 458
4 258 243 437 272
4 367 49 50 404
4 307 33 32 403
4 214 76 24 289
4 77 42 350 216
4 349 43 73 209
4 67 224 338 351
4 229 20 66 117
4 13 93 342 226
4 77 271 42 216
4 329 325 39 431
4 95 96 344 249
4 225 264 258 208
4 207 208 437 272
4 290 66 235 278
4 181 350 53 81
4 114 78 25 289
4 161 44 349 69
4 200 65 220 436
4 198 59 210 433
4 45 365 380 163
4 58 198 210 434
4 64 200 220 435
4 339 89 90 247
4 136 314 149 320
4 265 370 19 102
4 266 103 18 372
4 24 1 270 113
4 213 441 442 251
4 223 271 42 77
4 54 68 204 278
4 85 84 240 279
4 78 25 34 283
4 294 106 253 107
4 441 218 442 257
4 100 101 348 255
4 236 258 208 272
4 363 93 94 261
4 66 204 229 117
4 199 56 205 434
4 201 62 215 435
4 364 97 98 259
4 55 199 205 433
4 61 201 215 436
4 48 44 338 69
4 111 252 284 112
4 258 72 225 208
4 272 26 207 116
4 271 216 442 251
4 218 268 227 257
4 97 338 224 351
4 132 275 35 420
4 379 28 118 305
4 315 310 326 150
4 264 258 208 236
4 332 311 156 328
4 442 216 213 251
4 214 24 76 270
4 66 243 235 229
4 245 285 83 82
4 419 52 177 335
4 216 271 213 251
4 312 429 36 327
4 203 437 438 243
4 172 367 50 412
4 58 439 434 210
4 149 136 320 327
4 213 75 271 216
4 243 203 66 235
4 316 323 154 146
4 46 333 165 381
4 47 166 333 393
4 30 392 273 121
4 146 139 155 327
4 218 227 80 257
4 443 62 435 215
4 175 176 359 414
4 436 444 215 61
4 29 382 120 273
4 114 228 78 289
4 145 432 153 323
4 272 22 26 116
4 7 9 328 88
4 317 88 233 87
4 152 149 320 327
4 343 92 10 227
4 268 218 239 257
4 210 433 59 440
4 81 223 181 77
4 228 1 24 114
4 442 219 223 257
4 86 6 4 326
4 278 235 290 104
4 205 55 433 440
4 299 130 416 131
4 220 444 436 65
4 435 220 64 443
4 146 154 316 430
4 328 144 322 317
4 127 411 33 307
4 56 434 439 205
4 20 235 278 104
4 243 206 438 203
4 219 442 218 257
4 271 226 213 251
4 205 56 188 202
4 194 62 212 215
4 220 197 221 65
4 191 210 59 211
4 434 57 439 58
4 227 267 80 257
4 205 188 55 202
4 212 194 215 61
4 64 220 197 221
4 58 210 191 211
4 442 223 271 251
4 282 0 237 109
4 54 433 440 59
4 43 15 161 222
4 134 286 423 133
4 435 63 62 443
4 60 436 61 444
4 143 319 330 157
4 154 432 145 323
4 60 436 444 65
4 26 207 116 281
4 435 63 443 64
4 229 26 27 295
4 272 71 23 116
4 54 433 55 440
4 424 178 179 346
4 207 71 208 272
4 139 146 36 327
4 325 137 153 145
4 434 57 56 439
4 213 75 226 271
4 219 267 223 257
4 395 169 360 170
4 324 326 135 318
4 341 96 14 225
4 376 119 120 276
4 219 80 267 257
4 80 219 218 257
4 260 104 105 304
4 216 77 271 442
4 117 204 27 278
4 432 153 137 145
4 139 430 146 155
4 316 146 430 155
4 272 207 71 116
4 229 204 27 117
4 148 135 318 136
4 26 70 281 295
4 223 181 53 81
4 270 24 76 228
4 203 243 66 204
4 403 192 189 458
4 322 141 143 144
4 154 146 138 430
4 432 154 145 138
4 213 251 237 74
4 219 223 81 442
4 70 68 54 295
4 222 161 349 69
4 75 159 13 271
4 228 24 76 289
4 124 300 125 397
4 53 343 180 219
4 226 75 13 271
4 137 325 39 145
4 278 68 27 295
4 271 75 159 216
4 1 24 270 228
4 160 349 341 209
4 228 76 270 251
4 229 70 26 295
4 237 251 270 74
4 228 2 1 114
4 113 282 214 289
4 350 159 342 216
4 23 236 71 272
4 76 214 270 251
4 2 25 228 115
4 316 146 155 327
4 349 43 222 73
4 181 53 11 223
4 143 157 141 322
4 318 151 148 136
4 258 438 209 208
4 239 218 79 257
4 438 209 73 258
4 235 66 20 278
4 235 20 66 229
4 272 243 437 229
4 164 165 336 377
4 145 153 325 323
4 429 155 36 327
4 239 3 283 82
4 72 341 14 225
4 312 36 152 327
4 214 270 251 74
4 441 76 228 251
4 318 150 135 313
4 214 441 213 251
4 77 223 271 442
4 144 322 331 156
4 343 227 267 80
4 17 97 338 224
4 63 62 77 216
4 206 69 56 57
4 217 78 65 60
4 70 54 59 207
4 76 214 61 60
4 68 55 54 204
4 81 64 63 219
4 73 209 58 57
4 143 319 157 322
4 431 325 39 153
4 228 78 25 114
4 137 431 39 153
4 36 139 155 429
4 36 152 149 312
4 267 53 180 219
4 65 78 444 60
4 69 439 56 57
4 81 63 64 443
4 440 54 59 70
4 440 55 54 68
4 77 62 63 443
4 39 325 329 158
4 243 203 437 204
4 58 439 73 57
4 61 444 76 60
4 142 39 329 158
4 26 22 272 229
4 136 151 314 320
4 74 0 237 282
4 198 59 191 210
4 200 65 197 220
4 199 56 188 205
4 201 62 194 215
4 64 200 197 220
4 58 198 191 210
4 55 199 188 205
4 61 201 194 215
4 218 441 217 257
4 20 66 117 278
4 150 315 310 147
4 311 156 140 332
4 217 79 115 283
4 26 70 207 281
4 116 71 23 281
4 272 70 26 229
4 207 70 26 272
4 342 159 13 75
4 341 160 209 72
4 318 151 136 320
4 229 27 68 295
4 116 207 71 281
4 144 156 311 328
4 150 310 326 135
4 251 213 214 74
4 78 76 444 60
4 63 81 77 443
4 439 69 73 57
4 329 39 38 431
4 429 36 37 312
4 310 4 5 315
4 311 8 9 332
4 214 270 282 113
4 204 68 27 278
4 429 37 40 312
4 44 161 222 69
4 75 342 159 216
4 66 204 117 278
4 68 54 440 70
4 329 38 41 431
4 227 10 343 267
4 272 437 70 229
4 237 270 0 74
4 204 68 243 229
4 161 15 16 222
4 68 70 229 295
4 433 210 205 440
4 215 220 444 436
4 435 220 443 215
4 439 434 210 205
4 282 270 0 113
4 310 150 147 135
4 156 140 144 311
4 68 437 243 229
4 214 76 441 251
4 437 70 207 272
4 180 11 53 267
4 160 341 14 72
4 325 39 142 158
4 201 220 436 200
4 201 435 220 200
4 205 434 198 199
4 205 198 433 199
4 27 68 204 229
4 149 152 36 327
4 239 3 79 283
4 137 39 325 153
4 135 326 150 318
4 155 139 36 327
4 218 217 79 257
4 156 144 322 328
4 437 68 70 229
4 209 72 258 208
4 68 243 437 204
4 21 26 27 229
4 8 7 9 332
4 115 79 3 283
4 4 6 5 315
4 267 180 343 219
4 76 78 228 289
4 74 270 0 282
4 314 148 151 136
4 157 330 143 141
4 338 17 224 67
4 223 53 11 267
4 214 270 74 282
4 21 26 229 22
4 210 198 433 205
4 210 434 198 205
4 220 435 201 215
4 220 201 436 215
4 150 147 135 313
4 140 144 331 156
4 73 222 349 69
4 29 30 383 273
4 46 47 333 384
4 25 2 228 114
4 69 73 222 438
4 44 16 162 222
4 229 27 21 117
4 80 267 343 219
4 180 343 10 267
4 441 76 78 228
4 16 44 161 222
4 77 81 223 442
4 380 230 255 266
4 255 230 380 378
4 187 333 47 384
4 187 47 333 393
4 333 185 46 384
4 46 185 333 381
4 277 457 304 290
4 304 457 277 447
4 320 146 454 316
4 454 146 320 136
4 225 208 211 264
4 211 208 225 72
4 211 449 225 264
4 225 449 211 72
4 218 459 239 221
4 239 459 218 268
4 450 287 277 447
4 450 277 287 302
4 306 460 241 455
4 306 241 460 240
4 263 241 460 455
4 263 460 241 240
4 241 135 455 324
4 455 135 241 306
4 184 185 450 385
4 184 450 185 373
4 29 184 273 383
4 29 273 184 382
4 450 184 273 382
4 340 408 456 410
4 456 408 340 352
4 456 445 340 410
4 340 445 456 352
4 189 458 451 394
4 451 458 189 402
4 451 190 189 394
4 189 190 451 402
4 458 192 451 405
4 458 451 192 402
4 193 451 192 405
4 193 192 451 402
4 186 187 450 386
4 186 450 187 385
4 460 297 306 279
4 460 306 297 448
4 458 189 274 401
4 458 274 189 403
4 32 274 189 401
4 32 189 274 403
4 30 186 273 392
4 30 273 186 383
4 450 273 186 392
4 451 193 367 412
4 451 367 193 404
4 50 367 193 412
4 50 193 367 404
4 49 190 334 400
4 49 334 190 404
4 451 334 190 400
4 451 190 334 404
4 33 192 307 411
4 33 307 192 403
4 458 307 192 411
4 458 192 307 403
4 265 288 379 256
4 379 288 265 305
4 43 209 222 73
4 222 209 43 160
4 220 81 64 443
4 220 64 81 219
4 78 220 65 444
4 78 65 220 217
4 205 69 56 206
4 205 56 69 439
4 338 57 69 206
4 69 57 338 48
4 206 17 338 67
4 206 338 17 162
4 219 51 64 63
4 219 64 51 343
4 283 60 78 217
4 283 78 60 34
4 210 207 59 211
4 55 204 205 202
4 71 112 23 281
4 23 112 71 236
4 228 79 115 217
4 228 115 79 3
4 34 76 78 60
4 34 78 76 289
4 51 77 81 350
4 81 77 51 63
4 58 209 210 211
4 214 215 61 212
4 215 216 62 212
4 73 48 69 349
4 73 69 48 57
4 342 226 352 75
4 352 226 342 93
4 319 158 142 143
4 142 158 319 325
4 142 39 319 143
4 319 39 142 325
4 160 72 258 209
4 258 72 160 14
4 258 222 160 209
4 160 222 258 14
4 438 206 222 69
4 222 206 438 243
4 57 209 48 73
4 349 48 209 73
4 349 209 48 341
4 51 216 62 63
4 62 216 51 342
4 350 216 51 77
4 51 216 350 342
4 214 289 34 76
4 34 289 214 282
4 34 60 214 76
4 243 206 224 222
4 17 224 206 222
4 17 206 224 67
4 136 327 146 320
4 146 327 136 36
4 441 217 228 78
4 441 228 217 257
4 53 219 51 343
4 51 219 53 81
4 283 78 115 217
4 283 115 78 25
4 228 115 78 217
4 228 78 115 25
4 69 222 162 206
4 162 222 69 44
4 162 338 69 206
4 69 338 162 44
4 219 223 53 81
4 219 53 223 267
4 210 73 58 439
4 210 58 73 209
4 215 76 61 444
4 215 61 76 214
4 215 77 62 216
4 215 62 77 443
4 70 210 59 440
4 70 59 210 207
4 68 205 55 204
4 68 55 205 440
4 184 273 186 450
4 184 186 273 383
4 209 48 58 57
4 209 58 48 341
4 214 34 61 60
4 61 34 214 282
4 206 224 203 243
4 206 203 224 67

CELL_TYPES 2576
1
1
1
1
1
1
1
1
1
1
1
1
1
1
1
1
1
1
1
1
1
1
1
1
1
1
1
1
1
1
1
1
1
1
1
1
1
1
1
1
1
1
1
1
1
1
1
1
1
1
1
1
1
1
1
1
1
1
1
1
1
1
1
1
1
1
1
1
1
1
1
1
1
1
1
1
1
1
1
1
1
1
3
3
3
3
3
3
3
3
3
3
3
3
3
3
3
3
3
3
3
3
3
3
3
3
3
3
3
3
3
3
3
3
3
3
3
3
3
3
3
3
3
3
3
3
3
3
3
3
3
3
3
3
3
3
3
3
3
3
3
3
3
3
3
3
3
3
3
3
3
3
3
3
3
3
3
3
3
3
3
3
3
3
3
3
3
3
3
3
3
3
3
3
3
3
3
3
3
3
3
3
3
3
3
3
3
3
3
3
3
3
3
3
3
3
3
3
3
3
3
3
3
3
3
3
3
3
3
3
3
3
3
3
3
3
3
3
3
3
3
3
3
3
3
3
3
3
3
3
3
3
3
3
3
3
3
3
3
3
3
3
3
3
3
3
3
3
3
3
3
3
3
3
3
3
3
3
3
3
3
3
3
3
3
3
3
3
3
3
3
3
3
3
3
3
3
3
3
3
3
3
3
3
3
3
3
3
3
3
3
3
3
3
3
3
3
3
3
3
3
3
3
3
3
3
3
3
3
3
3
3
3
3
3
3
3
3
3
3
3
3
3
3
3
3
3
3
3
3
3
3
3
3
3
3
3
3
3
3
3
3
3
3
3
5
5
5
5
5
5
5
5
5
5
5
5
5
5
5
5
5
5
5
5
5
5
5
5
5
5
5
5
5
5
5
5
5
5
5
5
5
5
5
5
5
5
5
5
5
5
5
5
5
5
5
5
5
5
5
5
5
5
5
5
5
5
5
5
5
5
5
5
5
5
5
5
5
5
5
5
5
5
5
5
5
5
5
5
5
5
5
5
5
5
5
5
5
5
5
5
5
5
5
5
5
5
5
5
5
5
5
5
5
5
5
5
5
5
5
5
5
5
5
5
5
5
5
5
5
5
5
5
5
5
5
5
5
5
5
5
5
5
5
5
5
5
5
5
5
5
5
5
5
5
5
5
5
5
5
5
5
5
5
5
5
5
5
5
5
5
5
5
5
5
5
5
5
5
5
5
5
5
5
5
5
5
5
5
5
5
5
5
5
5
5
5
5
5
5
5
5
5
5
5
5
5
5
5
5
5
5
5
5
5
5
5
5
5
5
5
5
5
5
5
5
5
5
5
5
5
5
5
5
5
5
5
5
5
5
5
5
5
5
5
5
5
5
5
5
5
5
5
5
5
5
5
5
5
5
5
5
5
5
5
5
5
5
5
5
5
5
5
5
5
5
5
5
5
5
5
5
5
5
5
5
5
5
5
5
5
5
5
5
5
5
5
5
5
5
5
5
5
5
5
5
5
5
5
5
5
5
5
5
5
5
5
5
5
5
5
5
5
5
5
5
5
5
5
5
5
5
5
5
5
5
5
5
5
5
5
5
5
5
5
5
5
5
5
5
5
5
5
5
5
5
5
5
5
5
5
5
5
5
5
5
5
5
5
5
5
5
5
5
5
5
5
5
5
5
5
5
5
5
5
5
5
5
5
5
5
5
5
5
5
5
5
5
5
5
5
5
5
5
5
5
5
5
5
5
5
5
5
5
5
5
5
5
5
5
5
5
5
5
5
5
5
5
5
5
5
5
5
5
5
5
5
5
5
5
5
5
5
5
5
5
5
5
5
5
5
5
5
5
5
5
5
5
5
5
5
5
5
5
5
5
5
5
5
5
5
5
5
5
5
5
5
5
5
5
5
5
5
5
5
5
5
5
5
5
5
5
5
5
5
5
5
5
5
5
5
5
5
5
5
5
5
5
5
5
5
5
5
5
5
5
5
5
5
5
5
5
5
5
5
5
5
5
5
5
5
5
5
5
5
5
5
5
5
5
5
5
5
5
5
5
5
5
5
5
5
5
5
5
5
5
5
5
5
5
5
5
5
5
5
5
5
5
5
5
5
5
5
5
5
5
5
5
5
5
5
5
5
5
5
5
5
5
5
5
5
5
5
5
5
5
5
5
5
5
5
5
5
5
5
5
5
5
5
5
5
5
5
5
5
5
5
5
5
5
5
5
5
5
5
5
5
5
5
5
5
5
5
5
5
5
5
5
5
5
5
5
5
5
5
5
5
5
5
5
5
5
5
5
5
5
5
5
5
5
5
5
5
5
5
5
5
5
5
5
5
5
5
5
5
5
5
5
5
5
5
5
5
5
5
5
5
5
5
5
5
5
5
5
5
5
5
5
5
5
5
5
5
5
5
5
5
5
5
5
5
5
5
5
5
5
5
5
5
5
5
5
5
5
5
5
5
5
5
5
5
5
5
5
5
5
5
5
5
5
5
5
5
5
5
5
5
5
5
5
5
5
5
5
5
5
5
5
5
5
5
5
5
5
5
5
5
5
5
5
5
5
5
5
5
5
5
5
5
5
5
5
5
5
5
5
5
5
5
5
5
5
5
5
5
5
5
5
5
5
5
5
5
5
5
5
5
5
5
5
5
5
5
5
5
5
5
5
5
5
5
5
5
5
5
5
5
5
5
5
5
5
5
5
5
5
5
5
5
5
5
5
5
5
5
5
5
5
5
5
5
5
5
5
5
5
5
5
5
5
5
5
5
5
5
5
5
5
5
5
5
5
5
5
5
5
5
5
5
5
5
5
5
10
10
10
10
10
10
10
10
10
10
10
10
10
10
10
10
10
10
10
10
10
10
10
10
10
10
10
10
10
10
10
10
10
10
10
10
10
10
10
10
10
10
10
10
10
10
10
10
10
10
10
10
10
10
10
10
10
10
10
10
10
10
10
10
10
10
10
10
10
10
10
10
10
10
10
10
10
10
10
10
10
10
10
10
10
10
10
10
10
10
10
10
10
10
10
10
10
10
10
10
10
10
10
10
10
10
10
10
10
10
10
10
10
10
10
10
10
10
10
10
10
10
10
10
10
10
10
10
10
10
10
10
10
10
10
10
10
10
10
10
10
10
10
10
10
10
10
10
10
10
10
10
10
10
10
10
10
10
10
10
10
10
10
10
10
10
10
10
10
10
10
10
10
10
10
10
10
10
10
10
10
10
10
10
10
10
10
10
10
10
10
10
10
10
10
10
10
10
10
10
10
10
10
10
10
10
10
10
10
10
10
10
10
10
10
10
10
10
10
10
10
10
10
10
10
10
10
10
10
10
10
10
10
10
10
10
10
10
10
10
10
10
10
10
10
10
10
10
10
10
10
10
10
10
10
10
10
10
10
10
10
10
10
10
10
10
10
10
10
10
10
10
10
10
10
10
10
10
10
10
10
10
10
10
10
10
10
10
10
10
10
10
10
10
10
10
10
10
10
10
10
10
10
10
10
10
10
10
10
10
10
10
10
10
10
10
10
10
10
10
10
10
10
10
10
10
10
10
10
10
10
10
10
10
10
10
10
10
10
10
10
10
10
10
10
10
10
10
10
10
10
10
10
10
10
10
10
10
10
10
10
10
10
10
10
10
10
10
10
10
10
10
10
10
10
10
10
10
10
10
10
10
10
10
10
10
10
10
10
10
10
10
10
10
10
10
10
10
10
10
10
10
10
10
10
10
10
10
10
10
10
10
10
10
10
10
10
10
10
10
10
10
10
10
10
10
10
10
10
10
10
10
10
10
10
10
10
10
10
10
10
10
10
10
10
10
10
10
10
10
10
10
10
10
10
10
10
10
10
10
10
10
10
10
10
10
10
10
10
10
10
10
10
10
10
10
10
10
10
10
10
10
10
10
10
10
10
10
10
10
10
10
10
10
10
10
10
10
10
10
10
10
10
10
10
10
10
10
10
10
10
10
10
10
10
10
10
10
10
10
10
10
10
10
10
10
10
10
10
10
10
10
10
10
10
10
10
10
10
10
10
10
10
10
10
10
10
10
10
10
10
10
10
10
10
10
10
10
10
10
10
10
10
10
10
10
10
10
10
10
10
10
10
10
10
10
10
10
10
10
10
10
10
10
10
10
10
10
10
10
10
10
10
10
10
10
10
10
10
10
10
10
10
10
10
10
10
10
10
10
10
10
10
10
10
10
10
10
10
10
10
10
10
10
10
10
10
10
10
10
10
10
10
10
10
10
10
10
10
10
10
10
10
10
10
10
10
10
10
10
10
10
10
10
10
10
10
10
10
10
10
10
10
10
10
10
10
10
10
10
10
10
10
10
10
10
10
10
10
10
10
10
10
10
10
10
10
10
10
10
10
10
10
10
10
10
10
10
10
10
10
10
10
10
10
10
10
10
10
10
10
10
10
10
10
10
10
10
10
10
10
10
10
10
10
10
10
10
10
10
10
10
10
10
10
10
10
10
10
10
10
10
10
10
10
10
10
10
10
10
10
10
10
10
10
10
10
10
10
10
10
10
10
10
10
10
10
10
10
10
10
10
10
10
10
10
10
10
10
10
10
10
10
10
10
10
10
10
10
10
10
10
10
10
10
10
10
10
10
10
10
10
10
10
10
10
10
10
10
10
10
10
10
10
10
10
10
10
10
10
10
10
10
10
10
10
10
10
10
10
10
10
10
10
10
10
10
10
10
10
10
10
10
10
10
10
10
10
10
10
10
10
10
10
10
10
10
10
10
10
10
10
10
10
10
10
10
10
10
10
10
10
10
10
10
10
10
10
10
10
10
10
10
10
10
10
10
10
10
10
10
10
10
10
10
10
10
10
10
10
10
10
10
10
10
10
10
10
10
10
10
10
10
10
10
10
10
10
10
10
10
10
10
10
10
10
10
10
10
10
10
10
10
10
10
10
10
10
10
10
10
10
10
10
10
10
10
10
10
10
10
10
10
10
10
10
10
10
10
10
10
10
10
10
10
10
10
10
10
10
10
10
10
10
10
10
10
10
10
10
10
10
10
10
10
10
10
10
10
10
10
10
10
10
10
10
10
10
10
10
10
10
10
10
10
10
10
10
10
10
10
10
10
10
10
10
10
10
10
10
10
10
10
10
10
10
10
10
10
10
10
10
10
10
10
10
10
10
10
10
10
10
10
10
10
10
10
10
10
10
10
10
10
10
10
10
10
10
10
10
10
10
10
10
10
10
10
10
10
10
10
10
10
10
10
10
10
10
10
10
10
10
10
10
10
10
10
10
10
10
10
10
10
10
10
10
10
10
10
10
10
10
10
10
10
10
10
10
10
10
10
10
10
10
10
10
10
10
10
10
10
10
10
10
10
10
10
10
10
10
10
10
10
10
10
10
10
10
10
10
10
10
10
10
10
10
10
10
10
10
10
10
10
10
10
10
10
10
10
10
10
10
10
10
10
10
10
10
10
10
10
10
10
10
10
10
10
10
10
10
10
10
10
10
10
10
10
10
10
10
10
10
10
10
10
10
10
10
10
10
10
10
10
10
10
10
10
10
10
10
10
10
10
10
10
10
10
10
10
10
10
10
10
10
10
10
10
10
10
10
10
10
10
10
10
10
10
10
10
10
10
10
10
10
10
10
10
10
10
10
10
10
10
10
10
10
10
10
10
10
10
10
10
10
10
10
10
10
10
10
10
10
10
10
10
10
10
10
10
10
10
10
10
10
10
10
10
10
10
10
10
10
10
10
10
10
10
10
10
10
10
10
10
10
10
10
10
10
10
10
10
10
10
10
10
10
10
10
10
10
10
10
10
10
10
10
10
10
10
10
10
10
10
10
10
10
10
10
10
10
10
10
10
10
10
10
10
10
10
10
10
10
10
