# vtk DataFile Version 2.0
, Created by Gmsh 4.11.1 
ASCII
DATASET UNSTRUCTURED_GRID
POINTS 473 double
8.75 0 -43.18476617689235
10.19193796935487 0 -41.3249215745868
10.19193796935487 0 -38.67507842541319
8.75 0 -36.81523382310764
8.75 0 -3
11.75 0 -3
11.75 0 0
-11.75 0 0
-11.75 0 -3
-8.75 0 -3
-8.75 1.071565949253934e-15 -36.81523382310764
-10.19193796935487 1.248152421127882e-15 -38.67507842541319
-10.19193796935487 1.248152421127882e-15 -41.3249215745868
-8.75 1.071565949253934e-15 -43.18476617689235
-8.75 1.071565949253934e-15 -76.81523382310765
-10.19193796935487 1.248152421127882e-15 -78.67507842541319
-10.19193796935487 1.248152421127882e-15 -81.32492157458681
-8.75 1.071565949253934e-15 -83.18476617689235
-8.75 0 -120
8.75 0 -120
8.75 0 -83.18476617689235
10.19193796935487 0 -81.32492157458681
10.19193796935487 0 -78.67507842541319
8.75 0 -76.81523382310765
8.75 5.226193602534975 -41.3249215745868
8.75 5.226193602534975 -38.67507842541319
8.75 5.226193602534975 -78.67507842541319
8.75 5.226193602534975 -81.3249215745868
8.75 7.965515536522199 -120
8.75 20 -100.8991253877353
8.75 20 -99.10087461226468
8.75 7.9655155365222 -80
8.75 20 -60.89912538773533
8.75 20 -59.10087461226467
8.75 7.9655155365222 -40
8.75 20 -20.89912538773533
8.75 20 -3
11.75 23 -3
-11.75 23 -3
-8.75 20 -3
11.75 23 0
-11.75 23 0
-8.75 5.226193602534975 -41.3249215745868
-8.75 5.226193602534975 -78.67507842541319
-8.75 5.226193602534975 -81.3249215745868
-8.75 7.965515536522199 -120
-8.75 20 -100.8991253877353
-8.75 20 -99.10087461226468
-8.75 7.9655155365222 -80
-8.75 20 -60.89912538773533
-8.75 20 -59.10087461226467
-8.75 7.9655155365222 -40
-8.75 20 -20.89912538773533
-8.75 5.226193602534975 -38.67507842541319
6.358157107889122 7.965515536522199 -80
5.141075378941835 8.800280877291108 -81.3249215745868
-5.141075378941836 8.800280877291108 -81.3249215745868
-6.358157107889122 7.965515536522199 -80
-5.141075378941816 8.800280877291121 -78.67507842541319
5.141075378941816 8.800280877291121 -78.67507842541319
6.358157107889122 7.965515536522199 -40
5.141075378941829 8.800280877291112 -41.3249215745868
-5.141075378941832 8.80028087729111 -41.3249215745868
-6.358157107889122 7.965515536522199 -40
-5.141075378941816 8.800280877291121 -38.67507842541319
5.141075378941818 8.800280877291119 -38.67507842541319
3.528023259673872 3.970487498338097 -83.18476617689235
-3.528023259673872 3.970487498338097 -83.18476617689235
5.462943827543232 3.970487498338098 -81.3249215745868
-5.462943827543231 3.970487498338098 -81.3249215745868
5.462943827543232 3.970487498338098 -78.6750784254132
3.528023259673872 3.970487498338097 -76.81523382310765
-3.528023259673872 3.970487498338097 -76.81523382310765
-5.462943827543231 3.970487498338098 -78.6750784254132
3.528023259673872 3.970487498338097 -43.18476617689235
-3.528023259673872 3.970487498338097 -43.18476617689235
5.462943827543232 3.970487498338098 -41.3249215745868
-5.462943827543231 3.970487498338098 -41.3249215745868
5.462943827543232 3.970487498338098 -38.6750784254132
3.528023259673872 3.970487498338097 -36.81523382310765
-3.528023259673872 3.970487498338097 -36.81523382310765
-5.462943827543231 3.970487498338098 -38.6750784254132
8.75 0 -30.05218705848612
8.75 0 -23.2891402938646
8.75 0 -16.52609352924308
8.75 0 -9.763046764621567
5.875000000000016 0 0
3.730349362740526e-14 0 0
-5.874999999999972 0 0
-8.75 0 -9.763046764621519
-8.75 0 -16.52609352924303
-8.75 0 -23.28914029386456
-8.75 0 -30.05218705848607
-8.75 0 -49.9108597061354
-8.75 0 -56.63695323537844
-8.75 0 -63.36304676462152
-8.75 0 -70.08914029386459
-8.75 0 -89.32063848074363
-8.75 0 -95.45651078459491
-8.75 0 -101.5923830884462
-8.75 0 -107.7282553922974
-8.75 0 -113.8641276961487
2.916666666666666 0 -120
-2.916666666666668 0 -120
8.75 0 -89.32063848074363
8.75 0 -95.45651078459491
8.75 0 -101.5923830884462
8.75 0 -107.7282553922974
8.75 0 -113.8641276961487
8.75 0 -49.9108597061354
8.75 0 -56.63695323537844
8.75 0 -63.36304676462152
8.75 0 -70.08914029386459
8.75 2.745227334393662 -42.64234622188517
8.75 5.226193602534975 -40
8.75 2.745227334393663 -37.35765377811482
8.75 2.745227334393663 -77.35765377811482
8.75 2.745227334393662 -82.64234622188516
8.75 3.982757768261092 -120
8.75 10.97413665239165 -115.2247813469338
8.75 13.98275776826111 -110.4495626938676
8.75 16.99137888413056 -105.6743440408015
8.75 16.99137888413055 -94.32565595919851
8.75 13.98275776826109 -89.55043730613232
8.75 10.97413665239164 -84.77521865306616
8.75 10.97413665239165 -75.22478134693384
8.75 13.98275776826111 -70.44956269386765
8.75 16.99137888413056 -65.67434404080149
8.75 16.99137888413055 -54.3256559591985
8.75 13.98275776826109 -49.55043730613232
8.75 10.97413665239164 -44.77521865306615
8.75 10.97413665239165 -35.22478134693383
8.75 13.98275776826111 -30.44956269386765
8.75 16.99137888413056 -25.67434404080148
8.75 20 -14.93275025849023
8.75 20 -8.966375129245122
8.75 6.666666666666651 -3
8.75 13.33333333333329 -3
-5.875000000000016 23 -3
-3.730349362740526e-14 23 -3
5.874999999999972 23 -3
-11.75 5.749999999999988 -3
-11.75 11.49999999999999 -3
-11.75 17.24999999999999 -3
-8.75 13.33333333333335 -3
-8.75 6.666666666666705 -3
-2.916666666666666 20 -3
2.916666666666668 20 -3
11.75 5.749999999999988 -3
11.75 11.49999999999999 -3
11.75 17.24999999999999 -3
11.75 5.749999999999988 0
11.75 11.49999999999999 0
11.75 17.24999999999999 0
-5.875000000000016 23 0
-3.730349362740526e-14 23 0
5.874999999999972 23 0
-11.75 5.749999999999988 0
-11.75 11.49999999999999 0
-11.75 17.24999999999999 0
-8.75 2.745227334393663 -42.64234622188517
-8.75 2.745227334393663 -77.35765377811482
-8.75 5.226193602534975 -80
-8.75 2.745227334393663 -82.64234622188516
-8.75 3.982757768261092 -120
-8.75 10.97413665239165 -115.2247813469338
-8.75 13.98275776826111 -110.4495626938676
-8.75 16.99137888413056 -105.6743440408015
-8.75 16.99137888413055 -94.32565595919851
-8.75 13.98275776826109 -89.55043730613232
-8.75 10.97413665239164 -84.77521865306616
-8.75 10.97413665239165 -75.22478134693384
-8.75 13.98275776826111 -70.44956269386765
-8.75 16.99137888413056 -65.67434404080149
-8.75 16.99137888413055 -54.3256559591985
-8.75 13.98275776826109 -49.55043730613232
-8.75 10.97413665239164 -44.77521865306615
-8.75 10.97413665239165 -35.22478134693383
-8.75 13.98275776826111 -30.44956269386765
-8.75 16.99137888413056 -25.67434404080148
-8.75 20 -8.966375129245103
-8.75 20 -14.93275025849021
-8.75 2.745227334393663 -37.35765377811482
-8.75 5.226193602534975 -40
2.916666666666666 7.965515536522199 -120
-2.916666666666668 7.965515536522199 -120
2.916666666666666 20 -100.8991253877353
-2.916666666666668 20 -100.8991253877353
2.916666666666666 20 -99.10087461226468
-2.916666666666668 20 -99.10087461226468
-4.031594362109145e-15 9.424191314217836 -82.31517878595193
2.916666666666666 20 -60.89912538773533
-2.916666666666668 20 -60.89912538773533
1.147343764068902e-15 9.424191314217829 -77.68482121404809
2.916666666666666 20 -59.10087461226467
-2.916666666666668 20 -59.10087461226467
-2.47735933512633e-15 9.424191314217836 -42.31517878595193
2.916666666666666 20 -20.89912538773533
-2.916666666666668 20 -20.89912538773533
-3.072150882349331e-15 9.424191314217829 -37.68482121404809
-3.902053469087715e-15 10.19193796935487 -78.67507842541319
-3.902053469087715e-15 10.19193796935487 -81.3249215745868
-1.638988629261887e-15 10.19193796935487 -38.67507842541319
-3.902053469087715e-15 10.19193796935487 -41.3249215745868
-5.571683098397506e-15 5.311470520981828 -83.18476617689235
-1.77635683940025e-15 3.970487498338097 -83.18476617689235
4.517656005822277 3.970487498338097 -82.27800662466775
1.540910620589291e-14 6.7534084903367 -81.3249215745868
-4.517656005822277 3.970487498338097 -82.27800662466775
4.517656005822277 3.970487498338097 -77.72199337533226
-2.664535259100376e-15 3.970487498338097 -76.81523382310765
-4.517656005822277 3.970487498338097 -77.72199337533226
1.540910620589291e-14 6.7534084903367 -78.67507842541319
-5.571683098397506e-15 5.311470520981828 -76.81523382310765
-5.571683098397506e-15 5.311470520981828 -43.18476617689235
-1.77635683940025e-15 3.970487498338097 -43.18476617689235
4.517656005822277 3.970487498338097 -42.27800662466775
1.540910620589291e-14 6.7534084903367 -41.3249215745868
-4.517656005822277 3.970487498338097 -42.27800662466775
4.517656005822277 3.970487498338097 -37.72199337533225
-2.664535259100376e-15 3.970487498338097 -36.81523382310765
-4.517656005822277 3.970487498338097 -37.72199337533225
1.540910620589291e-14 6.7534084903367 -38.67507842541319
-5.571683098397506e-15 5.311470520981828 -36.81523382310764
-5.006839734796565 0 -86.88942954511401
-2.996348072721797 0 -47.09738958160672
-4.381274101584036 0 -73.45218705848612
2.996051568590778 0 -32.88473902579704
-8.881784197001252e-16 0 -115.2286957764946
-2.718910431533092 0 -98.51754458240475
7.435580757207754 0 -79.71633364509617
4.772750419768834 0 -38.81531236338046
-4.777278231329324 0 -41.1840874560154
-4.12549781580011 0 -80.67724781146001
-2.88170977661788 0 -4.210051614451757
2.791865978133562 0 -59.9529903936275
2.801044599646576 0 -20.00774104557246
4.764634032865587 0 -86.252702328818
3.411422974584272 0 -48.15346687298331
4.381274101584035 0 -73.45218705848612
2.760365197007486 0 -104.6598161533371
-3.414418099861218 0 -31.82626713630901
-2.893029694855612 0 -13.14457014693228
3.661427905805399 0 -5.787373243165831
-0.1728100932189527 0 -26.32794857859717
-0.03165226752942285 0 -53.62527663162189
-2.788850223517711 0 -66.5746604701858
3.158706989737227 0 -92.39399109339485
-4.277259691188527 0 -104.6588381521417
3.436178710487492 0 -98.52444693652052
-3.677840529432072 0 -91.81117947912352
3.648028609590487 0 -67.41826699734635
-3.754123223396744 0 -58.90447232769868
-3.794189513468265 0 -20.99435954506414
3.457754498056688 0 -12.56025200818121
3.606457168172114 0 -111.1768705564023
-3.157466005268475 0 -110.5350720873255
8.531325271695716 0 -39.76306247267609
-8.532230834007812 0 -40.23681749120308
3.0737583051703 0 -81.67796412917554
-8.401874750901975 0 -80.135449562292
-0.3021797920426055 0 -86.61708573118098
-4.996102827466895 0 -53.27390647075692
4.996102827466894 0 -53.27390647075692
-4.976283541309688 0 -26.49798052246419
5.000341892381626 0 -26.67066367617537
-1.025107715680748 0 -8.416754079008363
0.4337777919800123 0 -76.24327337406126
4.804624766967756 0 -116.0539388058091
-4.535020505654443 0 -115.6977664051435
0.9687830927605354 0 -42.84388853450351
-0.9822182753764945 0 -37.16324661998221
-4.859969437430849 0 -7.706884521002785
4.691591161918867 0 -77.56816746222978
0.2585912356105586 0 -71.42811499171313
9.79045281497698 2.832425329798975 -40
8.75 16.97638957629654 -99.99999999999999
8.75 16.0180530143294 -60.82366696999883
8.75 13.86268654932731 -19.39421714383995
8.75 4.947985270320954 -44.60639135114955
8.75 6.327793560117819 -35.8854081472087
8.75 11.58648883323982 -105.4178393067264
8.75 11.35160766401521 -94.54358894937064
8.75 14.55590813618333 -12.44314045809165
8.75 10.72974683806271 -53.51368890500731
8.75 6.324524538259345 -75.91257101817276
8.75 5.886790231888364 -84.23378309080366
8.75 4.702108272047242 -67.18775177794835
8.75 4.621143650750676 -27.28539248259366
8.75 9.303430072294367 -15.03394677212408
8.75 4.185850694970323 -110.7737419969709
8.75 5.605992289950247 -97.77671863820822
8.75 6.923797160500627 -48.66952353342059
8.75 5.30989233320953 -61.12961093093584
8.75 6.129039269484689 -115.1546380167539
8.75 9.67590455525648 -8.73285463028644
8.75 6.229208573138412 -90.23869977896719
8.75 5.762431011793607 -104.8370417710368
8.75 11.35160766401523 -65.45641105062934
8.75 10.62164652083375 -25.71312560445938
8.75 2.707162901187264 -33.27669134074362
8.75 2.511905024153476 -86.08502091098146
8.75 2.692981025142854 -73.37418401322508
8.75 6.069199177950068 -20.05521228186529
8.75 8.205773508923711 -31.30582693596781
8.75 8.338019320019573 -71.2675436501295
8.75 10.61791993110221 -99.99999999999997
8.75 5.453980234316677 -54.82157331555456
8.75 7.559371318528417 -43.16167163641045
8.75 4.369467105274072 -13.05488419175447
8.75 15.55203431251993 -7.228647697451706
8.75 2.474025208660115 -46.30646304050484
8.75 4.244471913353412 -7.279677337405296
8.75 9.432775882850994 -110.8684943748475
8.75 10.87692400113745 -58.90370833017509
10.25 3.10416666666666 -3
-10.25 3.104166666666674 -3
11.75 20.125 -1.5
11.75 14.37499999999999 -1.5
11.75 8.624999999999988 -1.5
11.75 2.874999999999994 -1.5
3.157610638484556 18.22886740495932 0
-2.707174061168084 4.878797530676509 0
7.069955745470662 8.716546370640001 0
-6.619519168154188 14.39111856499582 0
7.102873022115112 14.37499999999999 0
0.1126091443291166 11.52691623390895 0
-7.000954855602265 8.644857627020135 0
-2.792058517349995 18.15992185565015 0
2.948495529093417 4.721447277005963 0
-7.528051718759414 18.81262893003679 0
7.528051718759418 4.187371069963205 0
7.820492259183634 19.07601590637069 0
-7.553981076842909 4.160878030182232 0
-11.75 20.125 -1.5
-11.75 8.624999999999988 -1.5
-11.75 14.37499999999999 -1.5
-11.75 2.874999999999994 -1.5
-8.75 17.20746696717468 -59.99999999999999
-8.75 16.97638957629654 -99.99999999999999
-8.75 13.86268654932731 -19.39421714383994
-8.75 4.947985270320956 -44.60639135114955
-8.75 5.999397942939017 -75.85056523873311
-8.75 6.327793560117814 -35.88540814720869
-8.75 4.911191054628223 -84.53787709383418
-8.75 11.58648883323982 -105.4178393067264
-8.75 11.13331589844264 -94.7478184214268
-8.75 14.55590813618334 -12.44314045809163
-8.75 10.72615532427791 -65.38657090951972
-8.75 10.72615532427789 -54.61342909048025
-8.75 4.62114365075067 -27.28539248259364
-8.75 9.30343007229437 -15.03394677212405
-8.75 4.185850694970323 -110.7737419969709
-8.75 6.110221281215342 -59.99999999999998
-8.75 5.313821289512527 -98.52444693652052
-8.75 6.88696833495358 -88.88238451951887
-8.75 6.945283295586894 -48.45126106890562
-8.75 6.8689594747272 -70.44115149733167
-8.75 6.129039269484689 -115.1546380167539
-8.75 9.675904555256503 -8.732854630286425
-8.75 5.910007959083964 -105.0145491116331
-8.75 10.62164652083374 -25.71312560445936
-8.75 2.70716290118726 -33.2766913407436
-8.75 2.260490331733394 -86.11237021973761
-8.75 6.069199177950068 -20.05521228186527
-8.75 8.205773508923707 -31.3058269359678
-8.75 10.50496823915429 -100.1928703548681
-8.75 12.0545770676123 -59.99999999999999
-8.75 5.03168540949466 -65.35208801232621
-8.75 4.835004388581347 -54.12976101089246
-8.75 7.511409537617333 -43.24620521159491
-8.75 7.555538382187321 -83.16918656398141
-8.75 4.36946710527408 -13.05488419175443
-8.75 15.55203431251995 -7.228647697451699
-8.75 2.863756409455529 -73.90902820005172
-8.75 2.579285732062308 -46.16866713049627
-8.75 4.244471913353426 -7.279677337405246
-8.75 4.624037500689374 -93.49556377478055
-8.75 9.348459864474625 -110.8006028446093
-9.790452814976979 2.832425329798977 -40
-9.790452814976979 2.832425329798977 -80
0 3.9827577682611 -120
-4.79204060652847 3.982757768261099 -120
4.792040606528471 3.982757768261099 -120
9.824842411027074 2.710732589109668 -80.04001666223471
0 10.19365355644389 -116.4635473113532
2.60523653267188 15.25362600446607 -108.432467993872
-3.942928325622102 15.67724874986772 -107.7601030938735
3.42727396961289 12.16993651906203 -113.3268335466811
-3.499618028885095 12.55419259667411 -112.7169505741496
-0.05803535822531636 17.59864454445025 -104.7105050604694
4.592773568222646 17.96872988660937 -104.1231135741227
-4.598825366202334 17.81553552423316 -104.3662603674843
4.660497454054012 10.06326657036555 -116.6704947281463
-4.622388405207625 10.13699792248308 -116.553469913659
0 17.77186198007831 -95.56442192361791
2.952651555571533 12.3245825174517 -86.91861725210421
-3.688956290793685 12.64753790614345 -87.4312050911161
-3.607893929299857 15.78485374647472 -92.41068523977565
3.003809885433844 15.37706956427829 -91.76345896625831
2.735030638885728 10.40714678702398 -83.87530454725803
-2.321062672795428 10.69142597994787 -84.32650636112831
4.653871520111949 17.93032601794642 -95.81593263245281
-4.622388405207625 17.82851761403912 -95.65434452592363
0 17.77186198007832 -64.43557807638209
4.17689661470278 12.68699050618853 -72.50617659159114
-2.487520855945064 12.71252641996757 -72.46564653908385
-3.407654690158418 15.79568516544542 -67.57212336525767
2.91487278197242 15.39567404830152 -68.20701239729432
2.0686462329358 10.85177805730406 -75.41898627441483
-3.16857374008474 10.51254257376765 -75.95741352941893
4.644796305473035 17.9322244346835 -64.18105424137909
-4.659476042170716 17.90225449239496 -64.22862188846256
0 17.77186198007831 -55.5644219236179
2.952651555571533 12.3245825174517 -46.9186172521042
-3.688956290793685 12.64753790614345 -47.4312050911161
2.947066294525445 15.34668329690289 -51.71523053696135
-3.810713066912644 15.76145624159257 -52.37354922382497
-1.90980106234654 10.78054530687723 -44.46795463790104
2.986785174433363 10.4607473336459 -43.96037818072203
-4.622388405207625 17.82851761403912 -55.65434452592363
4.658358538801052 17.96670848417 -55.87367809945062
1.77635683940025e-15 17.77186198007832 -24.43557807638208
4.17689661470278 12.68699050618853 -32.50617659159114
-2.487520855945064 12.71252641996757 -32.46564653908384
3.194584712278496 15.39029518491933 -28.21554961343611
-3.739152290161837 15.6959883136031 -27.73036006181553
2.068646232935798 10.85177805730406 -35.41898627441483
-3.168573740084742 10.51254257376765 -35.95741352941894
4.622388405207637 17.82851761403914 -24.34565547407635
-4.622388405207632 17.82851761403914 -24.34565547407635
0 20 -8.198751643142678
-1.77635683940025e-15 20 -15.64924879978944
4.417690199321138 20 -11.9410418697338
-4.417690199321139 20 -11.94104186973379
4.503070597963415 20 -7.283787307050476
-4.503070597963417 20 -16.61533808068486
4.50307059796341 20 -16.61533808068486
-4.503070597963412 20 -7.283787307050474
8.812499999999986 23 -1.5
2.937499999999966 23 -1.5
-8.812500000000007 23 -1.5
-2.937500000000028 23 -1.5
2.663051140790064 9.837873662164718 -79.95181475104177
-2.663051140790068 9.837873662164718 -79.95181475104177
2.663051140790067 9.837873662164718 -39.95181475104177
-2.663051140790066 9.837873662164718 -39.95181475104174
-4.188958088102297 3.970487498338097 -79.03371243727715
4.188958088102297 3.970487498338097 -80.96628756272285
2.332443547149667 3.970487498338097 -79.36845923195753
-2.331621900331308 3.970487498338097 -80.64225827501599
-3.065469152943765 6.017592966436169 -79.83474830948104
3.116507119164822 5.991319521903902 -80
-4.188958088102297 3.970487498338097 -39.03371243727715
4.188958088102297 3.970487498338097 -40.96628756272285
2.332443547149667 3.970487498338097 -39.36845923195753
-2.331621900331307 3.970487498338097 -40.642258275016
-3.065469152943762 6.017592966436171 -39.83474830948103
3.065469152943778 6.017592966436163 -40.16525169051896
0.5754626743226543 18.06705251818758 -59.97714796824316
-3.552713678800501e-15 9.880025396010696 -18.95756339225717
0.001112899278886081 10.21791527125035 -99.99623095790494
-0.1512463731239113 8.690477045050624 -62.59145774213768
-2.664535259100376e-15 8.689422542047437 -10.12294594351434
2.365174444551614 6.222592167582762 -70.7122310257168
-0.3424343031617326 6.70277298352963 -50.46290772765366
1.094219795676405 12.98357653538643 -58.19884637051503
1.279381025677612 6.365411921671019 -29.67025454586451
-0.3885911476852835 6.659165009323985 -90.58131434776797
2.163721071673621 6.766477192124171 -108.2813738411934
2.265301335314996 5.207873009077673 -114.9294390325953
-2.555805299796631 13.91018572316468 -5.569274958068389
2.987892510696255 14.27295723151885 -9.585419799686338

CELLS 2627 11453
1 0
1 1
1 2
1 3
1 4
1 5
1 6
1 7
1 8
1 9
1 10
1 11
1 12
1 13
1 14
1 15
1 16
1 17
1 18
1 19
1 20
1 21
1 22
1 23
1 24
1 25
1 26
1 27
1 28
1 29
1 30
1 31
1 32
1 33
1 34
1 35
1 36
1 37
1 38
1 39
1 40
1 41
1 42
1 43
1 44
1 45
1 46
1 47
1 48
1 49
1 50
1 51
1 52
1 53
1 54
1 55
1 56
1 57
1 58
1 59
1 60
1 61
1 62
1 63
1 64
1 65
1 66
1 67
1 68
1 69
1 70
1 71
1 72
1 73
1 74
1 75
1 76
1 77
1 78
1 79
1 80
1 81
2 0 1
2 1 2
2 2 3
2 3 82
2 82 83
2 83 84
2 84 85
2 85 4
2 4 5
2 5 6
2 6 86
2 86 87
2 87 88
2 88 7
2 8 7
2 8 9
2 9 89
2 89 90
2 90 91
2 91 92
2 92 10
2 11 10
2 12 11
2 13 12
2 13 93
2 93 94
2 94 95
2 95 96
2 96 14
2 15 14
2 16 15
2 17 16
2 17 97
2 97 98
2 98 99
2 99 100
2 100 101
2 101 18
2 19 102
2 102 103
2 103 18
2 20 104
2 104 105
2 105 106
2 106 107
2 107 108
2 108 19
2 20 21
2 21 22
2 22 23
2 0 109
2 109 110
2 110 111
2 111 112
2 112 23
2 1 24
2 24 113
2 113 0
2 24 114
2 114 25
2 2 25
2 3 115
2 115 25
2 23 116
2 116 26
2 26 27
2 27 117
2 117 20
2 19 118
2 118 28
2 28 119
2 119 120
2 120 121
2 121 29
2 29 30
2 30 122
2 122 123
2 123 124
2 124 31
2 31 125
2 125 126
2 126 127
2 127 32
2 32 33
2 33 128
2 128 129
2 129 130
2 130 34
2 34 131
2 131 132
2 132 133
2 133 35
2 35 134
2 134 135
2 135 36
2 4 136
2 136 137
2 137 36
2 38 138
2 138 139
2 139 140
2 140 37
2 8 141
2 141 142
2 142 143
2 143 38
2 39 144
2 144 145
2 145 9
2 39 146
2 146 147
2 147 36
2 5 148
2 148 149
2 149 150
2 150 37
2 6 151
2 151 152
2 152 153
2 153 40
2 37 40
2 41 154
2 154 155
2 155 156
2 156 40
2 7 157
2 157 158
2 158 159
2 159 41
2 38 41
2 42 160
2 160 13
2 14 161
2 161 43
2 44 162
2 162 43
2 44 163
2 163 17
2 18 164
2 164 45
2 45 165
2 165 166
2 166 167
2 167 46
2 46 47
2 47 168
2 168 169
2 169 170
2 170 48
2 48 171
2 171 172
2 172 173
2 173 49
2 49 50
2 50 174
2 174 175
2 175 176
2 176 51
2 51 177
2 177 178
2 178 179
2 179 52
2 39 180
2 180 181
2 181 52
2 10 182
2 182 53
2 42 183
2 183 53
2 53 11
2 42 12
2 43 15
2 44 16
2 28 184
2 184 185
2 185 45
2 21 27
2 22 26
2 29 186
2 186 187
2 187 46
2 30 188
2 188 189
2 189 47
2 31 54
2 54 55
2 56 190
2 190 55
2 56 57
2 57 48
2 32 191
2 191 192
2 192 49
2 57 58
2 59 193
2 193 58
2 59 54
2 33 194
2 194 195
2 195 50
2 34 60
2 60 61
2 62 196
2 196 61
2 62 63
2 63 51
2 35 197
2 197 198
2 198 52
2 63 64
2 65 199
2 199 64
2 65 60
2 59 200
2 200 58
2 55 201
2 201 56
2 65 202
2 202 64
2 61 203
2 203 62
2 66 204
2 204 67
2 67 205
2 205 66
2 66 206
2 206 68
2 68 207
2 207 69
2 69 208
2 208 67
2 68 70
2 70 209
2 209 71
2 71 210
2 210 72
2 72 211
2 211 73
2 69 73
2 70 212
2 212 73
2 71 213
2 213 72
2 74 214
2 214 75
2 75 215
2 215 74
2 74 216
2 216 76
2 76 217
2 217 77
2 77 218
2 218 75
2 76 78
2 78 219
2 219 79
2 79 220
2 220 80
2 80 221
2 221 81
2 77 81
2 78 222
2 222 81
2 79 223
2 223 80
3 1 257 0
3 0 238 109
3 0 257 231
3 231 270 0
3 0 270 238
3 2 257 1
3 3 257 2
3 82 227 3
3 227 231 3
3 231 257 3
3 6 4 5
3 86 4 6
3 4 243 85
3 86 243 4
3 8 9 7
3 7 9 88
3 9 234 88
3 89 272 9
3 9 272 234
3 11 258 10
3 10 241 92
3 10 258 232
3 232 271 10
3 10 271 241
3 12 258 11
3 13 258 12
3 93 225 13
3 225 232 13
3 232 258 13
3 15 260 14
3 14 226 96
3 14 233 226
3 14 260 233
3 16 260 15
3 17 260 16
3 97 224 17
3 224 233 17
3 233 260 17
3 18 269 101
3 103 269 18
3 19 268 102
3 108 268 19
3 21 230 20
3 20 237 104
3 230 259 20
3 20 259 237
3 22 230 21
3 23 230 22
3 112 239 23
3 23 273 230
3 239 273 23
3 83 265 82
3 82 265 227
3 84 236 83
3 236 265 83
3 85 254 84
3 84 254 236
3 243 254 85
3 87 243 86
3 88 234 87
3 234 243 87
3 90 242 89
3 242 272 89
3 91 253 90
3 90 253 242
3 92 264 91
3 91 264 253
3 241 264 92
3 94 262 93
3 93 262 225
3 95 252 94
3 252 262 94
3 96 246 95
3 246 252 95
3 226 246 96
3 98 250 97
3 97 250 224
3 99 229 98
3 229 250 98
3 100 248 99
3 99 248 229
3 101 256 100
3 100 256 248
3 101 269 256
3 102 228 103
3 102 268 228
3 228 269 103
3 104 247 105
3 237 247 104
3 105 249 106
3 247 249 105
3 106 240 107
3 106 249 240
3 107 255 108
3 240 255 107
3 255 268 108
3 109 263 110
3 238 263 109
3 110 235 111
3 110 263 235
3 111 251 112
3 235 251 111
3 112 251 239
3 224 261 233
3 250 261 224
3 225 270 232
3 225 245 238
3 238 270 225
3 225 262 245
3 233 267 226
3 226 274 246
3 267 274 226
3 227 271 231
3 227 244 241
3 241 271 227
3 227 265 244
3 255 256 228
3 228 268 255
3 256 269 228
3 229 248 240
3 240 249 229
3 229 249 247
3 247 250 229
3 230 273 259
3 231 271 270
3 270 271 232
3 233 261 259
3 259 267 233
3 234 266 243
3 234 272 266
3 245 252 235
3 235 263 245
3 246 251 235
3 235 252 246
3 242 253 236
3 236 254 242
3 236 253 244
3 244 265 236
3 237 261 247
3 259 261 237
3 245 263 238
3 251 274 239
3 267 273 239
3 239 274 267
3 248 256 240
3 240 256 255
3 244 264 241
3 254 266 242
3 266 272 242
3 243 266 254
3 253 264 244
3 245 262 252
3 246 274 251
3 247 261 250
3 259 273 267
3 0 113 1
3 1 113 24
3 1 275 2
3 24 275 1
3 2 275 25
3 114 275 24
3 25 275 114
3 2 115 3
3 2 25 115
3 109 311 0
3 0 311 113
3 3 300 82
3 115 300 3
3 85 312 4
3 4 312 136
3 19 118 108
3 104 301 20
3 20 301 117
3 23 302 112
3 116 302 23
3 114 24 34
3 24 308 34
3 113 279 24
3 279 308 24
3 114 34 25
3 34 280 25
3 25 280 115
3 27 31 26
3 31 285 26
3 26 285 116
3 27 286 31
3 117 286 27
3 28 294 118
3 119 294 28
3 30 276 29
3 29 276 121
3 122 276 30
3 31 286 124
3 125 285 31
3 33 277 32
3 32 277 127
3 128 277 33
3 34 308 130
3 131 280 34
3 35 278 133
3 134 278 35
3 36 310 135
3 137 310 36
3 82 288 83
3 82 300 288
3 83 303 84
3 288 303 83
3 84 309 85
3 303 309 84
3 309 312 85
3 105 296 104
3 296 301 104
3 106 291 105
3 291 296 105
3 107 297 106
3 106 297 291
3 108 290 107
3 290 297 107
3 118 294 108
3 108 294 290
3 110 307 109
3 109 307 292
3 292 311 109
3 111 293 110
3 293 307 110
3 112 287 111
3 287 293 111
3 112 302 287
3 113 311 279
3 280 300 115
3 285 302 116
3 117 301 286
3 120 313 119
3 119 313 294
3 121 281 120
3 281 313 120
3 276 281 121
3 123 282 122
3 122 282 276
3 124 296 123
3 123 296 282
3 286 296 124
3 126 305 125
3 125 305 285
3 127 298 126
3 298 305 126
3 277 298 127
3 129 284 128
3 128 314 277
3 284 314 128
3 130 292 129
3 129 292 284
3 130 308 292
3 132 304 131
3 131 304 280
3 133 299 132
3 299 304 132
3 278 299 133
3 135 283 134
3 134 283 278
3 135 310 283
3 136 295 137
3 136 312 295
3 295 310 137
3 276 306 281
3 282 306 276
3 277 314 298
3 283 289 278
3 289 303 278
3 278 303 299
3 292 308 279
3 279 311 292
3 280 304 300
3 281 306 297
3 297 313 281
3 282 296 291
3 291 306 282
3 283 295 289
3 283 310 295
3 292 307 284
3 307 314 284
3 285 305 302
3 286 301 296
3 287 298 293
3 287 305 298
3 302 305 287
3 299 303 288
3 288 304 299
3 300 304 288
3 295 309 289
3 289 309 303
3 294 313 290
3 290 313 297
3 297 306 291
3 298 314 293
3 293 314 307
3 295 312 309
3 5 4 315
3 4 136 315
3 148 5 315
3 9 8 316
3 8 141 316
3 145 9 316
3 37 36 140
3 150 36 37
3 150 137 36
3 36 147 140
3 38 138 39
3 143 38 39
3 138 146 39
3 143 39 144
3 136 137 149
3 148 136 149
3 136 148 315
3 137 150 149
3 146 138 139
3 147 139 140
3 147 146 139
3 141 142 145
3 141 145 316
3 142 143 144
3 142 144 145
3 5 320 6
3 148 320 5
3 6 320 151
3 40 317 37
3 37 317 150
3 153 317 40
3 149 319 148
3 148 319 151
3 151 320 148
3 150 318 149
3 149 318 152
3 152 319 149
3 150 317 153
3 153 318 150
3 151 319 152
3 152 318 153
3 6 331 86
3 151 331 6
3 88 333 7
3 7 333 157
3 40 332 153
3 156 332 40
3 41 330 154
3 159 330 41
3 86 329 87
3 86 331 329
3 87 322 88
3 87 329 322
3 322 333 88
3 152 323 151
3 323 331 151
3 153 325 152
3 152 325 323
3 153 332 325
3 154 328 155
3 154 330 328
3 155 321 156
3 155 328 321
3 321 332 156
3 157 327 158
3 157 333 327
3 158 324 159
3 158 327 324
3 324 330 159
3 321 326 325
3 325 332 321
3 321 328 326
3 326 327 322
3 322 329 326
3 327 333 322
3 325 326 323
3 326 329 323
3 329 331 323
3 324 327 326
3 326 328 324
3 328 330 324
3 8 7 337
3 7 157 337
3 141 8 337
3 41 38 334
3 38 143 334
3 159 41 334
3 142 141 335
3 141 157 335
3 157 141 337
3 143 142 336
3 158 142 335
3 142 158 336
3 143 159 334
3 159 143 336
3 157 158 335
3 158 159 336
3 89 9 376
3 9 145 376
3 10 92 362
3 182 10 362
3 93 13 375
3 13 160 375
3 14 96 374
3 161 14 374
3 97 17 363
3 17 163 363
3 18 101 164
3 144 39 373
3 39 180 373
3 183 51 42
3 42 51 370
3 160 42 341
3 341 42 370
3 162 43 48
3 48 43 342
3 43 161 342
3 44 162 48
3 44 48 371
3 163 44 344
3 344 44 371
3 45 164 358
3 165 45 358
3 47 46 339
3 46 167 339
3 168 47 339
3 48 170 371
3 171 48 342
3 50 49 338
3 49 173 338
3 174 50 338
3 183 53 51
3 51 53 343
3 51 176 370
3 177 51 343
3 52 179 340
3 181 52 340
3 53 182 343
3 90 89 372
3 372 89 376
3 91 90 364
3 364 90 372
3 92 91 350
3 350 91 364
3 92 350 362
3 94 93 369
3 93 356 369
3 356 93 375
3 95 94 353
3 353 94 369
3 96 95 368
3 95 353 368
3 357 96 368
3 96 357 374
3 98 97 377
3 355 97 363
3 97 355 377
3 99 98 354
3 354 98 377
3 100 99 360
3 99 354 360
3 101 100 352
3 352 100 360
3 164 101 358
3 101 352 358
3 145 144 359
3 359 144 373
3 145 359 376
3 160 341 375
3 342 161 374
3 163 344 363
3 166 165 378
3 165 358 378
3 167 166 345
3 345 166 378
3 339 167 345
3 169 168 346
3 168 339 346
3 170 169 355
3 169 346 355
3 170 355 371
3 172 171 357
3 171 342 357
3 173 172 348
3 348 172 357
3 338 173 367
3 173 348 367
3 175 174 349
3 174 338 367
3 349 174 367
3 176 175 356
3 175 349 356
3 176 356 370
3 178 177 365
3 177 343 365
3 179 178 361
3 361 178 365
3 340 179 361
3 180 181 347
3 180 347 373
3 181 340 347
3 343 182 362
3 339 345 366
3 346 339 366
3 347 340 351
3 351 340 364
3 340 361 364
3 356 341 370
3 341 356 375
3 357 342 374
3 343 362 365
3 344 355 363
3 355 344 371
3 345 360 366
3 360 345 378
3 354 346 366
3 346 354 377
3 355 346 377
3 347 351 359
3 347 359 373
3 348 353 367
3 353 348 368
3 348 357 368
3 353 349 367
3 349 353 369
3 356 349 369
3 361 350 364
3 350 361 365
3 362 350 365
3 359 351 372
3 351 364 372
3 358 352 378
3 352 360 378
3 360 354 366
3 359 372 376
3 182 11 10
3 53 11 182
3 11 379 12
3 53 379 11
3 12 379 42
3 42 379 183
3 183 379 53
3 160 13 12
3 42 160 12
3 161 15 14
3 43 15 161
3 15 380 16
3 43 380 15
3 16 380 44
3 162 380 43
3 44 380 162
3 163 17 16
3 44 163 16
3 18 382 103
3 164 382 18
3 102 383 19
3 19 383 118
3 118 383 28
3 28 383 184
3 45 382 164
3 185 382 45
3 103 381 102
3 381 383 102
3 103 382 381
3 184 381 185
3 184 383 381
3 381 382 185
3 21 20 117
3 21 117 27
3 21 384 22
3 27 384 21
3 22 384 26
3 26 384 27
3 22 116 23
3 22 26 116
3 28 393 119
3 184 393 28
3 121 391 29
3 29 391 186
3 165 394 45
3 45 394 185
3 46 392 167
3 187 392 46
3 119 388 120
3 119 393 388
3 120 386 121
3 120 388 386
3 386 391 121
3 166 389 165
3 389 394 165
3 167 387 166
3 387 389 166
3 167 392 387
3 185 385 184
3 385 393 184
3 185 394 385
3 186 390 187
3 186 391 390
3 390 392 187
3 385 389 388
3 388 393 385
3 385 394 389
3 386 389 387
3 387 390 386
3 388 389 386
3 390 391 386
3 387 392 390
3 30 29 186
3 30 186 188
3 187 46 47
3 47 189 187
3 188 186 187
3 187 189 188
3 30 402 122
3 188 402 30
3 55 54 31
3 31 124 55
3 168 403 47
3 47 403 189
3 56 48 57
3 56 170 48
3 124 400 55
3 55 400 190
3 56 401 170
3 190 401 56
3 122 399 123
3 122 402 399
3 123 396 124
3 123 399 396
3 396 400 124
3 169 398 168
3 398 403 168
3 170 397 169
3 397 398 169
3 170 401 397
3 189 395 188
3 395 402 188
3 189 403 395
3 400 401 190
3 398 399 395
3 395 403 398
3 399 402 395
3 396 399 397
3 397 401 396
3 396 401 400
3 397 399 398
3 54 59 31
3 31 59 125
3 127 411 32
3 32 411 191
3 57 48 58
3 58 48 171
3 49 412 173
3 192 412 49
3 171 410 58
3 58 410 193
3 59 409 125
3 193 409 59
3 125 405 126
3 125 409 405
3 126 408 127
3 405 408 126
3 408 411 127
3 172 406 171
3 406 410 171
3 173 407 172
3 172 407 406
3 173 412 407
3 191 404 192
3 191 411 404
3 404 412 192
3 193 410 409
3 404 408 407
3 407 412 404
3 404 411 408
3 406 408 405
3 405 409 406
3 407 408 406
3 409 410 406
3 33 32 191
3 33 191 194
3 192 49 50
3 195 192 50
3 191 192 195
3 194 191 195
3 33 421 128
3 194 421 33
3 60 34 61
3 34 130 61
3 174 420 50
3 50 420 195
3 62 51 63
3 176 51 62
3 130 419 61
3 61 419 196
3 62 418 176
3 196 418 62
3 128 416 129
3 128 421 416
3 129 414 130
3 129 416 414
3 414 419 130
3 175 417 174
3 417 420 174
3 176 415 175
3 415 417 175
3 176 418 415
3 195 413 194
3 413 421 194
3 195 420 413
3 196 419 418
3 413 417 416
3 416 421 413
3 413 420 417
3 414 416 415
3 415 418 414
3 418 419 414
3 416 417 415
3 65 34 60
3 131 34 65
3 133 429 35
3 35 429 197
3 64 63 51
3 64 51 177
3 52 430 179
3 198 430 52
3 177 428 64
3 64 428 199
3 65 427 131
3 199 427 65
3 131 423 132
3 131 427 423
3 132 425 133
3 423 425 132
3 425 429 133
3 178 424 177
3 424 428 177
3 179 426 178
3 178 426 424
3 179 430 426
3 197 422 198
3 197 429 422
3 422 430 198
3 199 428 427
3 425 426 422
3 422 429 425
3 426 430 422
3 424 425 423
3 423 427 424
3 424 426 425
3 427 428 424
3 35 437 134
3 197 437 35
3 135 435 36
3 36 435 147
3 146 438 39
3 39 438 180
3 181 436 52
3 52 436 198
3 134 433 135
3 134 437 433
3 433 435 135
3 147 431 146
3 431 438 146
3 147 435 431
3 180 434 181
3 180 438 434
3 434 436 181
3 198 432 197
3 432 437 197
3 198 436 432
3 431 433 432
3 432 434 431
3 431 435 433
3 434 438 431
3 433 437 432
3 432 436 434
3 37 439 40
3 140 439 37
3 41 441 38
3 38 441 138
3 40 439 156
3 154 441 41
3 138 442 139
3 138 441 154
3 154 442 138
3 139 440 140
3 155 440 139
3 139 442 155
3 156 439 140
3 140 440 156
3 155 442 154
3 156 440 155
3 55 443 54
3 54 443 59
3 201 443 55
3 57 444 56
3 56 444 201
3 58 444 57
3 200 444 58
3 59 443 200
3 200 443 201
3 201 444 200
3 55 190 201
3 201 190 56
3 200 58 193
3 59 200 193
3 61 445 60
3 60 445 65
3 203 445 61
3 63 446 62
3 62 446 203
3 64 446 63
3 202 446 64
3 65 445 202
3 202 445 203
3 203 446 202
3 61 196 203
3 196 62 203
3 199 202 64
3 65 202 199
3 204 205 66
3 205 204 67
3 66 207 204
3 66 206 207
3 67 204 207
3 67 207 208
3 68 207 206
3 207 69 208
3 205 449 66
3 66 448 206
3 66 449 448
3 67 450 205
3 208 450 67
3 68 448 70
3 206 448 68
3 73 447 69
3 69 450 208
3 447 450 69
3 70 449 209
3 448 449 70
3 209 449 71
3 71 449 210
3 210 450 72
3 72 447 211
3 72 450 447
3 211 447 73
3 205 450 449
3 449 450 210
3 68 70 452
3 207 68 452
3 73 69 451
3 69 207 451
3 70 212 452
3 212 73 451
3 207 212 451
3 212 207 452
3 70 209 212
3 212 209 71
3 213 212 71
3 72 211 212
3 72 212 213
3 212 211 73
3 210 213 71
3 213 210 72
3 214 215 74
3 215 214 75
3 74 217 214
3 74 216 217
3 75 214 217
3 75 217 218
3 76 217 216
3 217 77 218
3 215 455 74
3 74 454 216
3 74 455 454
3 75 456 215
3 218 456 75
3 76 454 78
3 216 454 76
3 81 453 77
3 77 456 218
3 453 456 77
3 78 455 219
3 454 455 78
3 219 455 79
3 79 455 220
3 220 456 80
3 80 453 221
3 80 456 453
3 221 453 81
3 215 456 455
3 455 456 220
3 76 78 458
3 217 76 458
3 81 77 457
3 77 217 457
3 78 222 458
3 222 81 457
3 217 222 457
3 222 217 458
3 78 219 222
3 222 219 79
3 223 222 79
3 80 221 222
3 80 222 223
3 222 221 81
3 220 223 79
3 223 220 80
4 195 194 413 459
4 350 253 264 467
4 404 191 192 459
4 347 432 434 472
4 410 72 213 464
4 253 244 264 467
4 349 369 462 465
4 353 349 369 462
4 434 436 432 347
4 349 417 465 466
4 349 465 462 466
4 252 462 369 465
4 307 462 465 466
4 307 465 284 466
4 352 358 394 470
4 361 460 350 467
4 347 436 432 460
4 252 353 369 462
4 347 460 432 463
4 347 463 432 472
4 432 463 460 472
4 350 460 253 467
4 210 213 72 464
4 426 460 361 467
4 253 460 244 467
4 80 223 428 467
4 394 389 352 470
4 410 357 72 464
4 365 80 428 467
4 283 437 460 472
4 291 461 249 468
4 197 198 422 460
4 361 364 350 460
4 351 460 347 463
4 220 223 80 467
4 307 462 235 465
4 253 350 364 460
4 248 360 461 469
4 347 434 471 472
4 252 245 462 465
4 360 352 378 469
4 234 272 376 463
4 307 284 314 466
4 425 422 426 460
4 425 460 426 467
4 197 422 429 460
4 430 422 198 460
4 351 372 460 463
4 289 460 309 463
4 357 462 368 464
4 307 314 462 466
4 389 469 352 470
4 387 461 345 469
4 347 340 436 460
4 283 437 278 460
4 245 235 462 465
4 349 462 367 466
4 354 248 360 461
4 345 461 360 469
4 145 322 376 463
4 234 376 322 463
4 420 413 417 466
4 426 422 430 460
4 303 460 299 467
4 204 66 205 468
4 249 291 297 461
4 309 460 254 463
4 358 352 394 378
4 432 460 437 472
4 420 367 412 466
4 234 329 266 463
4 352 394 378 389
4 357 406 462 464
4 252 369 262 465
4 357 226 72 464
4 288 265 303 467
4 365 241 80 467
4 360 378 345 469
4 215 214 74 465
4 243 266 329 463
4 283 460 289 472
4 429 422 425 460
4 426 430 361 460
4 329 234 266 243
4 338 367 412 420
4 299 460 425 467
4 210 72 274 464
4 416 284 465 466
4 378 352 389 469
4 234 266 272 463
4 245 307 235 465
4 352 469 256 470
4 347 471 463 472
4 74 214 419 465
4 204 400 66 468
4 249 461 229 468
4 395 390 186 461
4 354 346 377 468
4 241 362 365 80
4 187 390 395 461
4 323 136 329 463
4 136 295 312 463
4 359 145 376 463
4 249 297 240 461
4 403 189 395 461
4 357 406 348 462
4 315 320 5 148
4 8 141 337 316
4 263 307 245 465
4 365 343 428 80
4 256 358 352 470
4 236 460 303 467
4 429 425 299 460
4 323 463 326 472
4 372 364 351 460
4 309 289 303 460
4 354 461 346 468
4 322 463 145 471
4 188 402 395 461
4 436 340 198 460
4 278 437 197 460
4 404 459 192 466
4 436 198 432 460
4 432 197 437 460
4 416 465 417 466
4 229 461 354 468
4 390 391 186 461
4 67 204 205 468
4 303 299 288 467
4 392 390 187 461
4 404 412 407 462
4 244 460 236 467
4 197 432 198 460
4 282 461 291 468
4 340 347 351 460
4 278 289 283 460
4 192 459 195 466
4 344 67 401 371
4 137 323 326 472
4 187 395 189 461
4 322 329 234 463
4 197 429 278 460
4 340 430 198 460
4 368 357 348 462
4 412 462 404 466
4 75 214 215 465
4 339 392 403 461
4 195 459 413 466
4 236 303 265 467
4 145 463 359 471
4 248 461 240 469
4 299 278 429 460
4 361 430 340 460
4 460 463 289 472
4 252 262 245 465
4 360 256 352 469
4 229 354 377 468
4 368 462 246 464
4 269 358 256 470
4 385 389 394 470
4 280 427 79 304
4 367 462 412 466
4 382 185 394 470
4 407 412 348 462
4 376 272 372 463
4 307 314 293 462
4 398 346 461 468
4 348 406 407 462
4 350 365 361 467
4 395 186 188 461
4 247 291 249 468
4 323 329 326 463
4 354 229 248 461
4 367 349 353 462
4 357 368 246 464
4 242 460 372 463
4 361 365 424 467
4 387 390 392 461
4 410 406 357 464
4 72 410 342 357
4 307 293 235 462
4 309 236 254 460
4 356 370 341 75
4 424 426 361 467
4 413 416 417 466
4 187 395 390 186
4 226 274 72 464
4 242 254 460 463
4 263 235 245 307
4 240 461 297 469
4 343 365 362 80
4 79 280 304 300
4 245 235 252 462
4 352 256 269 358
4 292 74 419 465
4 390 387 386 461
4 386 461 387 469
4 74 419 308 279
4 403 395 398 461
4 244 236 265 467
4 296 66 400 468
4 401 204 67 468
4 382 381 185 470
4 354 360 366 461
4 381 382 269 470
4 296 286 400 66
4 418 62 370 75
4 236 309 303 460
4 243 312 254 463
4 311 292 74 279
4 372 242 364 460
4 339 403 366 461
4 339 366 392 461
4 386 391 390 461
4 276 306 402 461
4 276 391 306 461
4 281 306 391 461
4 341 375 356 75
4 345 387 392 461
4 412 404 192 466
4 412 367 348 462
4 248 256 360 469
4 345 392 366 461
4 306 282 402 461
4 226 72 374 357
4 366 403 346 461
4 419 74 292 279
4 398 461 399 468
4 399 461 282 468
4 359 351 347 463
4 398 346 403 461
4 251 293 287 462
4 322 145 327 471
4 322 326 329 463
4 424 365 428 467
4 321 471 147 472
4 75 418 214 465
4 322 326 463 471
4 229 240 248 461
4 66 296 237 468
4 249 240 229 461
4 246 274 226 464
4 401 67 344 355
4 67 363 344 355
4 65 427 79 280
4 325 147 137 472
4 365 350 241 467
4 420 195 413 466
4 137 147 310 472
4 79 223 220 467
4 254 312 309 463
4 269 228 381 470
4 225 356 375 75
4 435 310 147 472
4 251 462 287 464
4 409 59 285 71
4 297 291 306 461
4 366 360 345 461
4 242 253 364 460
4 395 399 398 461
4 250 229 377 468
4 253 236 244 460
4 463 471 326 472
4 9 145 316 333
4 386 281 391 461
4 237 296 66 301
4 136 4 315 331
4 368 353 252 462
4 342 374 72 357
4 287 462 298 464
4 395 402 399 461
4 427 79 304 467
4 205 66 261 468
4 347 359 463 471
4 224 355 67 468
4 220 80 241 467
4 304 79 300 467
4 292 414 284 465
4 406 408 407 462
4 376 372 359 463
4 312 295 309 463
4 297 461 281 469
4 321 147 325 472
4 246 226 357 464
4 406 408 462 464
4 187 189 395 188
4 355 401 67 468
4 74 238 292 311
4 243 254 266 463
4 401 67 56 371
4 297 306 281 461
4 264 241 350 467
4 74 292 238 465
4 282 291 296 468
4 298 462 408 464
4 434 438 373 471
4 433 437 283 472
4 385 469 389 470
4 354 366 346 461
4 242 254 236 460
4 410 213 193 409
4 428 223 199 427
4 79 427 223 467
4 67 224 363 355
4 186 187 395 188
4 185 385 394 470
4 373 347 434 471
4 370 356 418 75
4 326 325 137 472
4 292 284 307 465
4 295 289 309 463
4 351 359 372 463
4 402 282 399 461
4 326 471 321 472
4 401 344 371 355
4 281 461 386 469
4 350 362 365 241
4 223 427 428 467
4 75 356 418 465
4 215 74 238 465
4 298 287 293 462
4 424 425 426 467
4 249 229 247 468
4 433 432 437 472
4 266 242 272 463
4 434 431 471 472
4 75 225 356 465
4 295 289 463 472
4 326 321 325 472
4 416 284 414 465
4 213 409 410 464
4 407 408 404 462
4 400 190 401 204
4 261 66 237 468
4 372 272 242 463
4 308 419 292 279
4 396 282 296 468
4 396 296 400 468
4 296 286 66 301
4 251 235 293 462
4 409 71 285 464
4 278 299 303 460
4 364 361 340 460
4 368 252 246 462
4 261 67 205 468
4 297 249 106 291
4 369 356 262 465
4 247 296 291 468
4 306 291 282 461
4 74 419 61 308
4 256 228 269 470
4 396 399 282 468
4 292 307 263 465
4 242 236 253 460
4 292 419 414 465
4 356 375 93 225
4 349 356 369 465
4 80 64 343 428
4 225 262 356 465
4 225 75 215 465
4 298 408 405 464
4 238 292 263 465
4 400 204 401 468
4 417 415 349 465
4 421 314 284 466
4 72 410 58 342
4 304 299 423 467
4 389 386 387 469
4 418 196 214 419
4 297 249 240 106
4 346 355 377 468
4 246 462 251 464
4 421 284 416 466
4 224 67 261 468
4 322 327 326 471
4 359 144 145 471
4 439 40 156 332
4 303 289 278 460
4 340 351 364 460
4 227 300 79 467
4 364 372 90 242
4 419 214 418 465
4 305 298 405 464
4 41 330 441 154
4 274 71 210 464
4 400 286 55 66
4 408 462 298 466
4 404 462 408 466
4 368 348 353 462
4 224 250 355 468
4 398 397 346 468
4 425 423 299 467
4 298 293 314 462
4 432 431 434 472
4 337 157 7 333
4 285 71 302 464
4 320 331 6 151
4 262 356 93 225
4 347 373 359 471
4 406 405 408 464
4 153 40 317 332
4 298 462 314 466
4 434 431 438 471
4 253 91 350 264
4 334 330 41 159
4 253 364 90 242
4 255 107 290 469
4 280 131 427 304
4 409 285 305 464
4 349 415 356 465
4 75 370 341 218
4 264 244 241 467
4 348 367 353 462
4 137 36 310 147
4 144 39 146 373
4 83 288 265 303
4 408 298 411 466
4 290 107 297 469
4 427 65 131 280
4 296 286 124 400
4 442 155 154 328
4 285 125 59 409
4 305 287 298 464
4 79 220 227 467
4 213 71 409 464
4 327 145 144 471
4 374 96 226 357
4 355 250 377 468
4 210 71 213 464
4 438 146 39 373
4 435 310 36 147
4 250 247 229 468
4 324 159 336 158
4 251 246 235 462
4 137 310 295 472
4 251 287 293 111
4 295 283 289 472
4 389 385 388 469
4 248 99 354 360
4 215 238 225 465
4 373 146 144 471
4 155 321 440 156
4 346 397 355 468
4 438 146 373 471
4 348 407 406 172
4 309 84 236 303
4 216 74 308 279
4 333 9 376 234
4 247 237 296 468
4 84 236 254 309
4 93 369 356 262
4 357 348 406 172
4 125 285 305 409
4 300 288 304 467
4 62 370 176 418
4 178 424 361 365
4 242 266 254 463
4 300 227 288 467
4 353 95 368 252
4 409 213 59 71
4 79 223 427 65
4 304 423 427 467
4 252 235 246 462
4 241 227 220 467
4 440 147 139 140
4 138 139 442 146
4 124 396 296 400
4 339 346 366 403
4 304 288 299 467
4 431 435 147 472
4 410 171 342 357
4 431 147 471 472
4 388 469 385 470
4 227 265 82 300
4 246 226 96 357
4 277 411 298 466
4 265 82 300 288
4 265 236 83 303
4 243 329 331 136
4 371 170 401 355
4 233 447 72 450
4 421 284 314 128
4 227 265 300 288
4 281 276 391 306
4 450 267 449 210
4 319 323 151 152
4 208 67 344 371
4 146 147 328 471
4 311 238 292 109
4 75 418 62 214
4 356 176 370 418
4 414 292 284 129
4 302 239 112 464
4 75 62 370 218
4 153 318 152 325
4 366 345 339 392
4 246 368 95 252
4 382 269 103 381
4 224 97 363 355
4 425 424 423 467
4 401 56 67 204
4 294 313 393 470
4 158 335 327 157
4 235 251 293 111
4 239 71 274 464
4 381 385 185 470
4 417 416 415 465
4 404 408 411 466
4 268 290 294 470
4 381 269 103 228
4 306 276 402 282
4 397 398 399 468
4 216 74 61 308
4 104 296 237 301
4 265 288 227 467
4 294 290 313 470
4 222 199 223 65
4 212 213 59 193
4 196 217 62 214
4 166 345 378 387
4 59 213 212 71
4 222 223 79 65
4 75 62 217 214
4 207 67 56 204
4 65 79 219 280
4 64 80 343 221
4 97 224 250 355
4 290 469 313 470
4 123 396 282 296
4 319 148 136 149
4 335 142 145 141
4 246 96 368 357
4 388 393 313 470
4 178 424 426 361
4 130 419 292 308
4 140 36 37 439
4 39 38 441 138
4 209 285 59 71
4 285 302 305 464
4 229 99 354 248
4 388 386 389 469
4 386 388 313 469
4 208 56 67 371
4 364 91 350 253
4 193 213 59 409
4 427 223 199 65
4 71 239 302 464
4 144 146 324 471
4 329 234 243 87
4 325 137 323 326
4 365 343 177 428
4 436 52 198 340
4 437 35 278 197
4 401 355 397 468
4 389 166 378 387
4 410 409 406 464
4 430 198 52 340
4 429 278 35 197
4 238 263 292 109
4 450 72 267 210
4 254 243 85 312
4 240 107 255 469
4 313 281 386 469
4 72 212 410 213
4 80 222 428 223
4 248 240 256 469
4 268 255 290 470
4 297 107 240 469
4 302 112 287 464
4 410 171 357 406
4 432 433 431 472
4 375 160 13 218
4 9 145 333 376
4 58 211 72 342
4 321 328 147 471
4 261 237 247 468
4 423 299 304 132
4 314 421 277 466
4 431 147 146 471
4 255 256 469 470
4 250 377 97 355
4 418 356 415 465
4 224 261 250 468
4 75 375 13 218
4 388 313 469 470
4 62 418 196 214
4 251 112 239 464
4 298 405 126 305
4 170 401 56 371
4 341 160 375 218
4 334 41 330 441
4 299 278 133 429
4 340 179 430 361
4 150 149 318 137
4 336 143 144 142
4 399 396 397 468
4 113 311 216 279
4 290 268 294 108
4 433 435 310 135
4 434 438 180 373
4 404 191 459 466
4 255 469 290 470
4 428 427 424 467
4 225 245 262 465
4 334 38 39 143
4 150 37 36 317
4 229 377 98 250
4 416 414 415 465
4 307 263 235 110
4 255 228 256 470
4 449 267 450 259
4 74 217 419 214
4 413 459 194 466
4 394 45 382 358
4 312 85 254 309
4 400 401 396 468
4 224 363 163 208
4 206 55 286 66
4 123 396 399 282
4 346 339 168 403
4 292 419 130 414
4 450 205 449 259
4 304 131 427 423
4 28 294 393 383
4 45 382 185 394
4 310 435 433 472
4 249 247 105 291
4 98 354 377 229
4 294 383 268 470
4 381 185 385 184
4 416 284 421 128
4 235 307 110 293
4 329 322 234 87
4 414 284 416 129
4 367 412 348 173
4 287 112 251 464
4 245 238 263 465
4 234 9 376 272
4 348 412 407 173
4 412 367 338 173
4 167 339 345 392
4 409 305 405 464
4 274 246 251 464
4 307 292 263 109
4 269 101 352 358
4 243 86 4 331
4 237 247 296 104
4 128 314 421 277
4 75 341 375 218
4 184 28 393 383
4 433 310 283 135
4 347 434 180 373
4 367 338 174 420
4 277 421 194 466
4 451 444 58 193
4 372 376 89 272
4 426 430 179 361
4 74 216 311 279
4 124 286 55 400
4 415 175 349 356
4 386 388 120 313
4 305 405 125 409
4 276 122 402 282
4 255 256 240 469
4 102 381 228 470
4 204 400 207 66
4 281 386 120 313
4 353 369 94 252
4 359 373 144 471
4 219 3 115 300
4 255 268 290 108
4 408 405 126 298
4 311 216 0 113
4 419 418 414 465
4 420 174 367 349
4 147 321 325 332
4 56 401 207 204
4 433 283 310 472
4 421 416 413 466
4 423 425 299 132
4 313 290 297 469
4 344 163 363 208
4 277 298 314 466
4 329 86 243 331
4 437 283 278 134
4 181 436 347 340
4 350 92 241 264
4 225 238 245 465
4 105 247 296 291
4 321 326 328 471
4 411 127 277 298
4 280 79 219 300
4 80 362 343 221
4 294 393 383 470
4 273 448 70 230
4 287 305 302 464
4 163 17 224 208
4 397 346 355 169
4 406 171 357 172
4 164 269 382 358
4 381 102 383 470
4 414 130 292 129
4 92 362 350 241
4 381 184 385 470
4 225 375 13 75
4 205 450 233 259
4 417 415 175 349
4 425 299 133 429
4 234 333 9 88
4 268 383 294 118
4 262 94 369 252
4 3 219 79 300
4 409 405 406 464
4 171 58 410 342
4 313 297 281 469
4 123 396 296 124
4 437 433 283 134
4 181 436 434 347
4 13 232 75 218
4 317 40 439 332
4 277 194 191 466
4 79 219 3 231
4 115 280 219 300
4 362 182 343 221
4 374 161 211 226
4 277 191 411 466
4 67 233 261 205
4 363 163 17 224
4 276 391 121 281
4 71 209 285 302
4 64 177 343 428
4 397 398 346 169
4 327 144 324 471
4 327 324 326 471
4 398 346 168 403
4 420 417 174 349
4 244 227 241 467
4 102 228 268 470
4 401 190 207 204
4 67 344 363 208
4 199 223 428 222
4 212 410 213 193
4 71 209 239 273
4 421 194 33 277
4 355 170 401 397
4 427 423 424 467
4 102 381 103 228
4 271 10 80 221
4 206 237 301 117
4 182 362 10 221
4 211 374 72 342
4 411 408 127 298
4 184 383 393 470
4 313 119 294 393
4 177 424 365 428
4 116 285 209 302
4 383 102 268 470
4 13 93 375 225
4 394 358 378 165
4 244 265 227 467
4 233 67 450 205
4 205 233 261 259
4 320 4 331 315
4 267 233 450 259
4 444 451 212 193
4 316 337 9 333
4 247 250 261 468
4 88 234 333 322
4 80 10 362 221
4 415 176 356 418
4 59 452 212 443
4 144 159 143 336
4 116 273 23 302
4 274 251 239 464
4 241 10 362 80
4 237 206 20 117
4 211 161 374 342
4 55 207 452 443
4 387 167 345 392
4 146 328 324 471
4 273 259 448 230
4 106 240 297 107
4 72 447 233 211
4 445 222 458 65
4 3 79 227 300
4 450 72 233 267
4 146 328 330 324
4 241 271 10 80
4 80 241 271 220
4 61 419 130 308
4 363 224 67 208
4 401 397 396 468
4 232 225 13 75
4 194 459 191 466
4 214 196 217 419
4 437 278 35 134
4 436 181 52 340
4 448 70 449 273
4 286 206 66 301
4 215 74 270 238
4 207 444 56 451
4 62 457 217 446
4 269 164 101 358
4 353 94 95 252
4 191 33 277 32
4 33 191 277 194
4 3 79 231 227
4 391 386 121 281
4 118 294 268 108
4 411 191 404 466
4 178 424 365 177
4 211 233 72 226
4 301 286 206 117
4 310 283 295 472
4 233 72 226 267
4 411 277 32 191
4 104 247 296 105
4 239 209 71 302
4 194 421 413 466
4 270 225 215 238
4 232 271 453 221
4 454 216 231 270
4 84 83 236 303
4 256 101 352 269
4 430 52 179 340
4 133 278 35 429
4 220 241 271 227
4 211 161 14 226
4 242 372 89 272
4 211 72 451 58
4 163 17 208 69
4 82 3 227 300
4 248 100 99 360
4 311 0 238 109
4 206 68 20 117
4 221 453 232 81
4 232 13 160 218
4 122 399 402 282
4 231 454 76 216
4 20 68 230 117
4 260 161 14 73
4 243 86 329 87
4 438 431 146 471
4 354 98 99 229
4 388 385 393 470
4 415 414 418 465
4 119 313 388 393
4 269 18 164 382
4 231 216 0 270
4 10 271 232 221
4 368 95 96 246
4 412 192 49 338
4 269 103 18 382
4 425 133 299 132
4 164 101 18 269
4 259 448 449 273
4 161 374 14 226
4 85 243 4 312
4 293 110 235 111
4 211 72 374 226
4 455 220 271 79
4 335 142 327 145
4 319 136 323 149
4 90 91 364 253
4 67 233 224 261
4 56 401 190 207
4 118 268 19 108
4 215 456 75 270
4 271 456 220 455
4 237 66 206 301
4 455 456 215 270
4 328 326 324 471
4 453 271 232 456
4 455 454 231 270
4 408 126 127 298
4 105 106 249 291
4 400 207 190 204
4 172 348 407 173
4 301 237 20 117
4 153 150 318 325
4 448 68 70 230
4 268 383 19 102
4 205 261 66 259
4 142 158 335 327
4 231 219 3 115
4 152 319 323 149
4 257 0 76 113
4 6 4 331 320
4 217 218 62 75
4 207 208 56 67
4 222 219 65 79
4 211 14 161 73
4 77 379 258 81
4 257 76 78 275
4 267 449 71 273
4 337 7 9 333
4 159 144 324 336
4 184 381 383 470
4 14 233 211 226
4 268 228 255 470
4 60 65 78 280
4 343 63 64 81
4 39 180 438 373
4 435 36 310 135
4 63 343 53 81
4 60 78 25 280
4 224 233 67 208
4 453 80 271 456
4 10 362 92 241
4 454 74 270 455
4 268 19 383 118
4 192 50 49 338
4 135 283 433 134
4 434 180 181 347
4 446 63 457 64
4 444 57 451 58
4 398 168 346 169
4 294 119 28 393
4 165 378 394 389
4 89 376 9 272
4 355 170 397 169
4 54 285 59 70
4 139 155 146 147
4 97 98 377 250
4 166 167 345 387
4 435 431 433 472
4 74 454 270 216
4 285 54 26 70
4 54 443 452 59
4 258 182 10 81
4 428 64 199 222
4 386 120 121 281
4 60 445 61 458
4 215 75 225 270
4 453 271 80 221
4 45 164 382 358
4 383 28 294 118
4 221 232 10 81
4 287 251 112 111
4 79 220 271 227
4 179 178 426 361
4 216 0 76 231
4 358 394 45 165
4 137 150 36 332
4 60 445 458 65
4 449 267 259 273
4 54 443 55 452
4 79 271 455 231
4 232 75 456 270
4 146 155 328 147
4 334 330 39 441
4 239 23 273 302
4 444 57 56 451
4 446 63 62 457
4 302 239 23 112
4 233 224 17 208
4 48 58 342 57
4 128 421 33 277
4 175 415 176 356
4 284 416 129 128
4 51 343 63 64
4 60 34 65 280
4 69 380 260 73
4 66 448 449 259
4 75 232 225 270
4 304 131 423 132
4 263 307 109 110
4 65 219 78 280
4 343 64 221 81
4 231 79 271 227
4 159 330 144 143
4 34 61 130 308
4 218 370 341 77
4 31 54 55 286
4 85 84 254 309
4 31 54 285 59
4 137 318 150 325
4 393 385 184 470
4 68 448 259 230
4 114 78 76 275
4 77 183 379 81
4 69 162 380 73
4 330 39 144 143
4 239 267 71 273
4 369 93 94 262
4 271 456 455 270
4 285 59 70 209
4 92 350 91 264
4 107 255 290 108
4 417 175 174 349
4 374 96 14 226
4 232 258 10 81
4 131 65 34 280
4 0 76 231 257
4 114 25 78 275
4 114 76 24 275
4 183 379 42 77
4 53 379 183 81
4 162 380 44 69
4 43 380 162 73
4 372 89 90 242
4 100 101 352 256
4 160 258 232 77
4 211 233 14 73
4 216 76 0 113
4 419 196 217 61
4 267 449 210 71
4 125 31 285 59
4 56 48 170 371
4 403 339 47 189
4 280 219 78 115
4 182 343 221 81
4 58 73 211 342
4 315 331 320 151
4 218 62 370 77
4 157 337 316 333
4 218 160 232 77
4 97 363 17 224
4 209 70 285 116
4 76 216 308 279
4 176 51 370 62
4 388 120 313 119
4 70 209 273 116
4 391 29 186 276
4 104 237 20 301
4 70 273 230 116
4 261 66 259 237
4 343 51 177 64
4 48 58 171 342
4 317 439 36 332
4 188 30 402 276
4 233 260 14 73
4 221 10 182 81
4 322 88 234 87
4 76 216 61 308
4 378 165 166 389
4 325 153 150 332
4 150 137 325 332
4 68 55 286 206
4 305 405 126 125
4 321 328 155 147
4 147 140 156 332
4 7 9 333 88
4 154 442 328 146
4 66 449 205 259
4 341 160 218 77
4 259 206 20 237
4 69 56 208 371
4 69 208 344 371
4 78 231 257 115
4 333 145 327 322
4 42 341 370 77
4 231 271 455 270
4 29 30 186 276
4 271 232 456 270
4 78 219 231 115
4 286 55 31 124
4 161 211 73 342
4 155 321 147 440
4 71 449 209 273
4 86 6 4 331
4 338 49 412 173
4 207 190 55 400
4 123 399 122 282
4 259 20 68 230
4 456 80 271 220
4 74 455 215 270
4 188 186 30 276
4 167 46 339 392
4 336 144 324 158
4 113 216 76 279
4 328 442 155 146
4 288 265 82 83
4 174 338 50 420
4 32 127 277 411
4 329 331 136 323
4 308 24 76 279
4 54 31 27 286
4 140 147 36 332
4 330 138 154 146
4 65 78 458 60
4 63 62 457 77
4 451 56 69 57
4 144 324 330 159
4 342 43 48 57
4 20 68 206 259
4 54 59 452 70
4 452 55 54 68
4 344 163 208 69
4 209 449 70 273
4 61 458 76 60
4 58 451 73 57
4 457 64 63 81
4 442 154 138 146
4 140 440 147 156
4 321 147 440 156
4 149 136 323 137
4 168 339 47 403
4 286 68 206 117
4 211 447 233 73
4 327 142 144 145
4 343 53 51 63
4 25 34 60 280
4 139 155 147 440
4 139 155 442 146
4 69 344 44 371
4 280 78 25 115
4 343 182 53 81
4 138 330 39 146
4 259 66 206 237
4 31 54 26 285
4 208 17 233 69
4 26 285 70 116
4 60 76 24 114
4 25 78 60 114
4 63 183 42 77
4 63 53 183 81
4 69 44 162 57
4 73 162 43 57
4 230 273 23 116
4 13 160 258 232
4 27 26 70 384
4 77 258 232 81
4 231 76 78 257
4 321 147 156 332
4 158 142 144 327
4 149 323 152 137
4 160 341 42 77
4 122 402 30 276
4 78 76 60 114
4 63 183 77 81
4 73 69 162 57
4 439 156 36 332
4 453 232 77 456
4 121 29 391 276
4 454 455 231 78
4 328 330 154 146
4 451 73 211 58
4 317 36 153 332
4 323 151 136 319
4 145 327 335 157
4 441 330 39 154
4 257 231 3 115
4 113 76 24 279
4 138 441 39 154
4 36 140 156 439
4 153 150 36 317
4 158 144 324 327
4 218 232 75 456
4 231 219 455 79
4 39 330 334 159
4 159 334 39 143
4 73 43 161 342
4 320 315 151 148
4 141 157 337 316
4 137 152 318 325
4 163 344 44 69
4 212 452 207 443
4 145 157 316 333
4 151 315 331 136
4 78 76 458 60
4 77 457 63 81
4 69 73 451 57
4 334 39 38 441
4 439 36 37 317
4 451 207 444 212
4 457 217 446 222
4 217 445 222 458
4 439 37 40 317
4 323 152 137 325
4 70 452 54 68
4 5 4 320 315
4 337 9 8 316
4 334 38 41 441
4 69 260 233 73
4 68 286 27 117
4 70 27 54 26
4 232 453 77 81
4 315 151 148 136
4 157 141 145 316
4 454 231 76 78
4 39 330 159 143
4 447 233 69 450
4 27 70 54 68
4 448 206 68 259
4 153 36 150 332
4 138 39 330 154
4 136 331 151 323
4 156 140 36 332
4 203 446 217 202
4 212 201 444 200
4 217 445 203 202
4 201 212 443 200
4 157 145 327 333
4 208 233 67 450
4 206 448 66 259
4 8 7 9 337
4 4 6 5 320
4 230 21 20 117
4 162 48 43 57
4 51 53 183 63
4 60 34 25 114
4 162 44 48 57
4 24 34 60 114
4 183 42 51 63
4 152 318 149 137
4 233 447 69 73
4 144 336 142 158
4 202 446 217 222
4 217 445 202 222
4 201 444 207 212
4 212 201 443 207
4 77 232 218 456
4 219 231 455 78
4 151 148 136 319
4 141 145 335 157
4 22 21 230 384
4 193 212 444 200
4 54 31 26 27
4 161 14 15 260
4 163 16 17 260
4 257 1 0 113
4 69 233 208 450
4 11 12 379 258
4 257 2 1 275
4 182 10 11 258
4 380 15 16 260
4 23 22 230 116
4 160 12 13 258
4 257 3 2 115
4 195 192 191 459
4 194 195 191 459
4 58 200 193 444
4 73 212 451 211
4 212 211 72 451
4 201 55 207 190
4 201 207 55 443
4 56 201 207 190
4 56 207 201 444
4 62 203 217 196
4 62 217 203 446
4 466 192 420 195
4 466 420 192 412
4 338 192 420 412
4 189 461 392 187
4 392 461 189 403
4 189 339 392 403
4 358 470 382 394
4 382 470 358 269
4 349 420 466 367
4 349 466 420 417
4 137 136 472 295
4 137 472 136 323
4 463 472 136 295
4 463 136 472 323
4 276 188 461 402
4 276 186 461 188
4 276 461 186 391
4 256 360 100 248
4 100 360 256 352
4 376 322 333 234
4 333 322 376 145
4 243 136 463 329
4 463 136 243 312
4 72 274 267 210
4 267 274 72 226
4 274 71 267 210
4 267 71 274 239
4 378 387 469 389
4 469 387 378 345
4 4 136 243 331
4 4 243 136 312
4 302 273 209 116
4 302 209 273 239
4 238 270 311 74
4 238 311 270 0
4 216 311 270 74
4 216 270 311 0
4 222 64 80 428
4 55 66 207 400
4 446 222 64 457
4 451 193 410 212
4 410 193 451 58
4 410 72 451 212
4 451 72 410 58
4 217 61 445 458
4 144 330 146 39
4 144 146 330 324
4 61 74 217 419
4 57 342 73 58
4 57 73 342 43
4 286 54 68 27
4 286 68 54 55
4 137 332 147 325
4 147 332 137 36
4 69 17 260 163
4 69 260 17 233
4 77 62 42 63
4 77 42 62 370
4 51 42 62 63
4 51 62 42 370
4 34 61 24 60
4 34 24 61 308
4 76 24 61 60
4 76 61 24 308
4 48 56 44 371
4 48 44 56 57
4 69 44 56 371
4 69 56 44 57
4 15 43 260 380
4 15 260 43 161
4 73 260 43 380
4 73 43 260 161
4 207 69 56 208
4 207 56 69 451
4 209 59 212 71
4 11 53 258 379
4 11 258 53 182
4 81 258 53 379
4 81 53 258 182
4 207 55 206 66
4 217 77 62 218
4 217 62 77 457
4 202 64 222 199
4 202 222 64 446
4 65 202 222 199
4 65 222 202 445
4 222 64 221 80
4 222 78 65 219
4 222 65 78 458
4 70 212 59 452
4 70 59 212 209
4 59 200 212 193
4 59 212 200 443
4 217 61 216 74
4 68 207 55 206
4 68 55 207 452
4 22 26 230 116
4 22 230 26 384
4 70 230 26 116
4 70 26 230 384
4 16 44 260 163
4 16 260 44 380
4 69 260 44 163
4 69 44 260 380
4 12 42 258 160
4 12 258 42 379
4 77 258 42 160
4 77 42 258 379
4 21 27 230 384
4 21 230 27 117
4 68 27 230 117
4 2 25 257 115
4 2 257 25 275
4 78 257 25 115
4 78 25 257 275
4 1 24 257 275
4 1 257 24 113
4 76 257 24 275
4 76 24 257 113
4 203 61 217 196
4 203 217 61 445
4 222 81 64 457
4 222 64 81 221
4 76 217 61 216
4 76 61 217 458
4 192 420 50 338
4 192 50 420 195
4 392 189 47 339
4 47 189 392 187
4 47 46 392 339
4 392 46 47 187
4 27 230 70 68
4 27 70 230 384

CELL_TYPES 2627
1
1
1
1
1
1
1
1
1
1
1
1
1
1
1
1
1
1
1
1
1
1
1
1
1
1
1
1
1
1
1
1
1
1
1
1
1
1
1
1
1
1
1
1
1
1
1
1
1
1
1
1
1
1
1
1
1
1
1
1
1
1
1
1
1
1
1
1
1
1
1
1
1
1
1
1
1
1
1
1
1
1
3
3
3
3
3
3
3
3
3
3
3
3
3
3
3
3
3
3
3
3
3
3
3
3
3
3
3
3
3
3
3
3
3
3
3
3
3
3
3
3
3
3
3
3
3
3
3
3
3
3
3
3
3
3
3
3
3
3
3
3
3
3
3
3
3
3
3
3
3
3
3
3
3
3
3
3
3
3
3
3
3
3
3
3
3
3
3
3
3
3
3
3
3
3
3
3
3
3
3
3
3
3
3
3
3
3
3
3
3
3
3
3
3
3
3
3
3
3
3
3
3
3
3
3
3
3
3
3
3
3
3
3
3
3
3
3
3
3
3
3
3
3
3
3
3
3
3
3
3
3
3
3
3
3
3
3
3
3
3
3
3
3
3
3
3
3
3
3
3
3
3
3
3
3
3
3
3
3
3
3
3
3
3
3
3
3
3
3
3
3
3
3
3
3
3
3
3
3
3
3
3
3
3
3
3
3
3
3
3
3
3
3
3
3
3
3
3
3
3
3
3
3
3
3
3
3
3
3
3
3
3
3
3
3
3
3
3
3
3
3
3
3
3
3
3
3
3
3
3
3
3
3
3
3
3
3
3
3
3
3
3
3
3
3
3
5
5
5
5
5
5
5
5
5
5
5
5
5
5
5
5
5
5
5
5
5
5
5
5
5
5
5
5
5
5
5
5
5
5
5
5
5
5
5
5
5
5
5
5
5
5
5
5
5
5
5
5
5
5
5
5
5
5
5
5
5
5
5
5
5
5
5
5
5
5
5
5
5
5
5
5
5
5
5
5
5
5
5
5
5
5
5
5
5
5
5
5
5
5
5
5
5
5
5
5
5
5
5
5
5
5
5
5
5
5
5
5
5
5
5
5
5
5
5
5
5
5
5
5
5
5
5
5
5
5
5
5
5
5
5
5
5
5
5
5
5
5
5
5
5
5
5
5
5
5
5
5
5
5
5
5
5
5
5
5
5
5
5
5
5
5
5
5
5
5
5
5
5
5
5
5
5
5
5
5
5
5
5
5
5
5
5
5
5
5
5
5
5
5
5
5
5
5
5
5
5
5
5
5
5
5
5
5
5
5
5
5
5
5
5
5
5
5
5
5
5
5
5
5
5
5
5
5
5
5
5
5
5
5
5
5
5
5
5
5
5
5
5
5
5
5
5
5
5
5
5
5
5
5
5
5
5
5
5
5
5
5
5
5
5
5
5
5
5
5
5
5
5
5
5
5
5
5
5
5
5
5
5
5
5
5
5
5
5
5
5
5
5
5
5
5
5
5
5
5
5
5
5
5
5
5
5
5
5
5
5
5
5
5
5
5
5
5
5
5
5
5
5
5
5
5
5
5
5
5
5
5
5
5
5
5
5
5
5
5
5
5
5
5
5
5
5
5
5
5
5
5
5
5
5
5
5
5
5
5
5
5
5
5
5
5
5
5
5
5
5
5
5
5
5
5
5
5
5
5
5
5
5
5
5
5
5
5
5
5
5
5
5
5
5
5
5
5
5
5
5
5
5
5
5
5
5
5
5
5
5
5
5
5
5
5
5
5
5
5
5
5
5
5
5
5
5
5
5
5
5
5
5
5
5
5
5
5
5
5
5
5
5
5
5
5
5
5
5
5
5
5
5
5
5
5
5
5
5
5
5
5
5
5
5
5
5
5
5
5
5
5
5
5
5
5
5
5
5
5
5
5
5
5
5
5
5
5
5
5
5
5
5
5
5
5
5
5
5
5
5
5
5
5
5
5
5
5
5
5
5
5
5
5
5
5
5
5
5
5
5
5
5
5
5
5
5
5
5
5
5
5
5
5
5
5
5
5
5
5
5
5
5
5
5
5
5
5
5
5
5
5
5
5
5
5
5
5
5
5
5
5
5
5
5
5
5
5
5
5
5
5
5
5
5
5
5
5
5
5
5
5
5
5
5
5
5
5
5
5
5
5
5
5
5
5
5
5
5
5
5
5
5
5
5
5
5
5
5
5
5
5
5
5
5
5
5
5
5
5
5
5
5
5
5
5
5
5
5
5
5
5
5
5
5
5
5
5
5
5
5
5
5
5
5
5
5
5
5
5
5
5
5
5
5
5
5
5
5
5
5
5
5
5
5
5
5
5
5
5
5
5
5
5
5
5
5
5
5
5
5
5
5
5
5
5
5
5
5
5
5
5
5
5
5
5
5
5
5
5
5
5
5
5
5
5
5
5
5
5
5
5
5
5
5
5
5
5
5
5
5
5
5
5
5
5
5
5
5
5
5
5
5
5
5
5
5
5
5
5
5
5
5
5
5
5
5
5
5
5
5
5
5
5
5
5
5
5
5
5
5
5
5
5
5
5
5
5
5
5
5
5
5
5
5
5
5
5
5
5
5
5
5
5
5
5
5
5
5
5
5
5
5
5
5
5
5
5
5
5
5
5
5
5
5
5
5
5
5
5
5
5
5
5
5
5
5
5
5
5
5
5
5
5
5
5
5
5
5
5
5
5
5
5
5
5
5
5
5
5
5
5
5
5
5
5
5
5
5
5
5
5
5
5
5
5
5
5
5
5
5
5
5
5
5
5
5
5
5
5
5
5
5
5
5
5
5
5
5
5
5
5
5
5
5
5
5
5
5
5
5
5
5
5
5
5
5
5
5
5
5
5
5
5
5
5
10
10
10
10
10
10
10
10
10
10
10
10
10
10
10
10
10
10
10
10
10
10
10
10
10
10
10
10
10
10
10
10
10
10
10
10
10
10
10
10
10
10
10
10
10
10
10
10
10
10
10
10
10
10
10
10
10
10
10
10
10
10
10
10
10
10
10
10
10
10
10
10
10
10
10
10
10
10
10
10
10
10
10
10
10
10
10
10
10
10
10
10
10
10
10
10
10
10
10
10
10
10
10
10
10
10
10
10
10
10
10
10
10
10
10
10
10
10
10
10
10
10
10
10
10
10
10
10
10
10
10
10
10
10
10
10
10
10
10
10
10
10
10
10
10
10
10
10
10
10
10
10
10
10
10
10
10
10
10
10
10
10
10
10
10
10
10
10
10
10
10
10
10
10
10
10
10
10
10
10
10
10
10
10
10
10
10
10
10
10
10
10
10
10
10
10
10
10
10
10
10
10
10
10
10
10
10
10
10
10
10
10
10
10
10
10
10
10
10
10
10
10
10
10
10
10
10
10
10
10
10
10
10
10
10
10
10
10
10
10
10
10
10
10
10
10
10
10
10
10
10
10
10
10
10
10
10
10
10
10
10
10
10
10
10
10
10
10
10
10
10
10
10
10
10
10
10
10
10
10
10
10
10
10
10
10
10
10
10
10
10
10
10
10
10
10
10
10
10
10
10
10
10
10
10
10
10
10
10
10
10
10
10
10
10
10
10
10
10
10
10
10
10
10
10
10
10
10
10
10
10
10
10
10
10
10
10
10
10
10
10
10
10
10
10
10
10
10
10
10
10
10
10
10
10
10
10
10
10
10
10
10
10
10
10
10
10
10
10
10
10
10
10
10
10
10
10
10
10
10
10
10
10
10
10
10
10
10
10
10
10
10
10
10
10
10
10
10
10
10
10
10
10
10
10
10
10
10
10
10
10
10
10
10
10
10
10
10
10
10
10
10
10
10
10
10
10
10
10
10
10
10
10
10
10
10
10
10
10
10
10
10
10
10
10
10
10
10
10
10
10
10
10
10
10
10
10
10
10
10
10
10
10
10
10
10
10
10
10
10
10
10
10
10
10
10
10
10
10
10
10
10
10
10
10
10
10
10
10
10
10
10
10
10
10
10
10
10
10
10
10
10
10
10
10
10
10
10
10
10
10
10
10
10
10
10
10
10
10
10
10
10
10
10
10
10
10
10
10
10
10
10
10
10
10
10
10
10
10
10
10
10
10
10
10
10
10
10
10
10
10
10
10
10
10
10
10
10
10
10
10
10
10
10
10
10
10
10
10
10
10
10
10
10
10
10
10
10
10
10
10
10
10
10
10
10
10
10
10
10
10
10
10
10
10
10
10
10
10
10
10
10
10
10
10
10
10
10
10
10
10
10
10
10
10
10
10
10
10
10
10
10
10
10
10
10
10
10
10
10
10
10
10
10
10
10
10
10
10
10
10
10
10
10
10
10
10
10
10
10
10
10
10
10
10
10
10
10
10
10
10
10
10
10
10
10
10
10
10
10
10
10
10
10
10
10
10
10
10
10
10
10
10
10
10
10
10
10
10
10
10
10
10
10
10
10
10
10
10
10
10
10
10
10
10
10
10
10
10
10
10
10
10
10
10
10
10
10
10
10
10
10
10
10
10
10
10
10
10
10
10
10
10
10
10
10
10
10
10
10
10
10
10
10
10
10
10
10
10
10
10
10
10
10
10
10
10
10
10
10
10
10
10
10
10
10
10
10
10
10
10
10
10
10
10
10
10
10
10
10
10
10
10
10
10
10
10
10
10
10
10
10
10
10
10
10
10
10
10
10
10
10
10
10
10
10
10
10
10
10
10
10
10
10
10
10
10
10
10
10
10
10
10
10
10
10
10
10
10
10
10
10
10
10
10
10
10
10
10
10
10
10
10
10
10
10
10
10
10
10
10
10
10
10
10
10
10
10
10
10
10
10
10
10
10
10
10
10
10
10
10
10
10
10
10
10
10
10
10
10
10
10
10
10
10
10
10
10
10
10
10
10
10
10
10
10
10
10
10
10
10
10
10
10
10
10
10
10
10
10
10
10
10
10
10
10
10
10
10
10
10
10
10
10
10
10
10
10
10
10
10
10
10
10
10
10
10
10
10
10
10
10
10
10
10
10
10
10
10
10
10
10
10
10
10
10
10
10
10
10
10
10
10
10
10
10
10
10
10
10
10
10
10
10
10
10
10
10
10
10
10
10
10
10
10
10
10
10
10
10
10
10
10
10
10
10
10
10
10
10
10
10
10
10
10
10
10
10
10
10
10
10
10
10
10
10
10
10
10
10
10
10
10
10
10
10
10
10
10
10
10
10
10
10
10
10
10
10
10
10
10
10
10
10
10
10
10
10
10
10
10
10
10
10
10
10
10
10
10
10
10
10
10
10
10
10
10
10
10
10
10
10
10
10
10
10
10
10
10
10
10
10
10
10
10
10
10
10
10
10
10
10
10
10
10
10
10
10
10
10
10
10
10
10
10
10
10
10
10
10
10
10
10
10
10
10
10
10
10
10
10
10
10
10
10
10
10
10
10
10
10
10
10
10
10
10
10
10
10
10
10
10
10
10
10
10
10
10
10
10
10
10
10
10
10
10
10
10
10
10
10
10
10
10
10
10
10
10
10
10
10
10
10
10
10
10
10
10
10
10
10
10
10
10
10
10
10
10
10
10
10
10
10
10
10
10
10
10
10
10
10
10
10
10
10
10
10
10
10
10
10
10
10
10
10
10
10
10
10
10
10
10
10
10
10
10
10
10
10
10
10
10
10
10
10
10
10
10
10
10
10
10
10
10
10
10
10
10
10
10
10
10
10
10
10
10
10
10
10
10
10
10
10
10
10
10
10
10
10
10
10
10
10
10
10
10
10
10
10
10
10
10
10
10
10
10
10
10
10
10
10
10
10
10
10
10
10
10
10
10
10
10
10
10
10
10
10
10
10
10
10
10
10
10
10
10
10
10
10
10
10
10
10
10
10
10
10
10
10
10
10
10
10
10
10
10
10
10
10
10
10
10
10
10
10
10
10
10
10
10
10
10
10
10
10
10
10
10
10
10
10
10
10
10
10
10
10
10
10
10
10
10
10
10
