# vtk DataFile Version 2.0
, Created by Gmsh 4.11.1 
ASCII
DATASET UNSTRUCTURED_GRID
POINTS 533 double
8.75 0 -44.68363840972849
16.82719759184632 0 -41.7933282335656
16.82719759184632 0 -38.2066717664344
8.75 0 -35.31636159027151
8.75 0 -3
11.75 0 -3
11.75 0 0
-11.75 0 0
-11.75 0 -3
-8.75 0 -3
-8.75 1.071565949253934e-15 -35.31636159027151
-16.82719759184632 2.060737366947465e-15 -38.2066717664344
-16.82719759184632 2.060737366947465e-15 -41.7933282335656
-8.75 1.071565949253934e-15 -44.68363840972849
-8.75 1.071565949253934e-15 -75.31636159027151
-16.82719759184632 2.060737366947465e-15 -78.2066717664344
-16.82719759184632 2.060737366947465e-15 -81.7933282335656
-8.75 1.071565949253934e-15 -84.68363840972849
-8.75 0 -120
8.75 0 -120
8.75 0 -84.68363840972849
16.82719759184632 0 -81.7933282335656
16.82719759184632 0 -78.2066717664344
8.75 0 -75.31636159027151
-8.75 10.68641697301299 -42.87239471105325
8.75 10.68641697301299 -42.87239471105325
8.75 10.68641697301298 -37.12760528894675
-8.75 10.68641697301298 -37.12760528894675
8.75 20 -3
8.75 20 -30.25085329766613
11.75 23 -3
-11.75 23 -3
-8.75 20 -3
11.75 23 0
-11.75 23 0
-8.75 20 -30.25085329766613
-8.75 20 -49.74914670233387
-8.75 20 -70.25085329766614
-8.75 10.686416973013 -77.12760528894674
8.75 10.686416973013 -77.12760528894674
-8.75 10.68641697301297 -82.87239471105325
8.75 10.68641697301297 -82.87239471105325
-8.75 20 -89.74914670233387
-8.75 20 -110.2508532976661
-8.75 6.796166654026136 -120
8.75 6.796166654026136 -120
8.75 20 -89.74914670233387
8.75 20 -110.2508532976661
8.75 20 -49.74914670233387
8.75 20 -70.25085329766614
4.363540133702371 3.114371144219796 -84.6836384097285
-4.36354013370237 3.114371144219798 -84.6836384097285
13.07228044989962 3.114371144219797 -81.7933282335656
-13.07228044989962 3.114371144219795 -81.7933282335656
13.07228044989962 3.114371144219797 -78.2066717664344
4.363540133702371 3.114371144219796 -75.3163615902715
-4.36354013370237 3.114371144219798 -75.3163615902715
-13.07228044989962 3.114371144219795 -78.2066717664344
4.363540133702371 3.114371144219796 -44.68363840972849
-4.36354013370237 3.114371144219798 -44.68363840972849
13.07228044989962 3.114371144219797 -41.7933282335656
-13.07228044989962 3.114371144219795 -41.7933282335656
13.07228044989962 3.114371144219797 -38.2066717664344
4.363540133702371 3.114371144219796 -35.31636159027151
-4.36354013370237 3.114371144219798 -35.31636159027151
-13.07228044989962 3.114371144219795 -38.2066717664344
12.78859879592316 0 -43.23848332164705
12.78859879592317 0 -36.76151667835295
8.75 0 -28.85308927221719
8.75 0 -22.38981695416289
8.75 0 -15.92654463610859
8.75 0 -9.463272318054294
5.875000000000016 0 0
3.730349362740526e-14 0 0
-5.874999999999972 0 0
-8.75 0 -9.463272318054308
-8.75 0 -15.9265446361086
-8.75 0 -22.3898169541629
-8.75 0 -28.85308927221719
-12.78859879592317 1.5661516581007e-15 -36.76151667835295
-12.78859879592316 1.566151658100699e-15 -43.23848332164705
-8.75 0 -50.81018304583709
-8.75 0 -56.9367276819457
-8.75 0 -63.0632723180543
-8.75 0 -69.18981695416291
-12.78859879592317 1.5661516581007e-15 -76.76151667835293
-12.78859879592316 1.566151658100699e-15 -83.23848332164704
-8.75 0 -90.56969867477375
-8.75 0 -96.45575893981901
-8.75 0 -102.3418192048643
-8.75 0 -108.2278794699095
-8.75 0 -114.1139397349548
2.916666666666666 0 -120
-2.916666666666668 0 -120
8.75 0 -90.56969867477375
8.75 0 -96.45575893981901
8.75 0 -102.3418192048643
8.75 0 -108.2278794699095
8.75 0 -114.1139397349548
12.78859879592316 0 -83.23848332164704
12.78859879592317 0 -76.76151667835293
8.75 0 -50.81018304583709
8.75 0 -56.9367276819457
8.75 0 -63.0632723180543
8.75 0 -69.18981695416291
15.54630344463003 6.439489731533335 -41.7933282335656
11.89862552556047 11.89862552556049 -41.7933282335656
6.439489731533291 15.54630344463005 -41.7933282335656
-6.248823481823451e-14 16.82719759184632 -41.7933282335656
-6.439489731533381 15.54630344463001 -41.7933282335656
-11.89862552556052 11.89862552556044 -41.7933282335656
-15.54630344463004 6.439489731533305 -41.7933282335656
-8.750000000000002 5.40049512460003 -44.13528918174897
-2.951268546922138 11.5858312027873 -43.53648377083452
2.951268546922126 11.5858312027873 -43.53648377083452
8.749999999999998 5.400495124600031 -44.13528918174897
15.54630344463003 6.439489731533335 -38.2066717664344
11.89862552556047 11.89862552556049 -38.2066717664344
6.439489731533291 15.54630344463005 -38.2066717664344
-6.248823481823451e-14 16.82719759184632 -38.2066717664344
-6.439489731533381 15.54630344463001 -38.2066717664344
-11.89862552556052 11.89862552556044 -38.2066717664344
-15.54630344463004 6.439489731533305 -38.2066717664344
8.749999999999998 5.400495124600033 -35.86471081825104
2.951268546922146 11.5858312027873 -36.46351622916548
-2.951268546922127 11.5858312027873 -36.46351622916548
-8.750000000000002 5.400495124600035 -35.86471081825104
8.75 6.666666666666651 -3
8.75 13.33333333333329 -3
8.75 20 -23.43813997324961
8.75 20 -16.62542664883308
8.75 20 -9.812713324416549
8.75 15.3432084865065 -33.68922929330643
-5.875000000000016 23 -3
-3.730349362740526e-14 23 -3
5.874999999999972 23 -3
-11.75 5.749999999999988 -3
-11.75 11.49999999999999 -3
-11.75 17.24999999999999 -3
-8.75 13.33333333333335 -3
-8.75 6.666666666666705 -3
-2.916666666666666 20 -3
2.916666666666668 20 -3
11.75 5.749999999999988 -3
11.75 11.49999999999999 -3
11.75 17.24999999999999 -3
11.75 5.749999999999988 0
11.75 11.49999999999999 0
11.75 17.24999999999999 0
-5.875000000000016 23 0
-3.730349362740526e-14 23 0
5.874999999999972 23 0
-11.75 5.749999999999988 0
-11.75 11.49999999999999 0
-11.75 17.24999999999999 0
-8.75 20 -9.812713324416524
-8.75 20 -16.62542664883305
-8.75 20 -23.43813997324958
-8.75 15.3432084865065 -33.68922929330643
-8.75 15.34320848650648 -46.31077070669355
-8.75 20 -63.41695109922205
-8.75 20 -56.58304890077795
-8.75 15.34320848650651 -73.68922929330643
-8.750000000000002 5.400495124600046 -75.86471081825103
8.749999999999998 5.400495124600044 -75.86471081825103
2.951268546922143 11.5858312027873 -76.46351622916546
-2.951268546922137 11.5858312027873 -76.46351622916546
15.54630344463003 6.439489731533335 -78.20667176643438
11.89862552556047 11.89862552556049 -78.20667176643438
6.439489731533291 15.54630344463005 -78.20667176643438
-6.248823481823451e-14 16.82719759184632 -78.20667176643438
-6.439489731533381 15.54630344463001 -78.20667176643438
-11.89862552556052 11.89862552556044 -78.20667176643438
-15.54630344463004 6.439489731533305 -78.20667176643438
15.54630344463003 6.439489731533335 -81.7933282335656
11.89862552556047 11.89862552556049 -81.7933282335656
6.439489731533291 15.54630344463005 -81.7933282335656
-6.248823481823451e-14 16.82719759184632 -81.7933282335656
-6.439489731533381 15.54630344463001 -81.7933282335656
-11.89862552556052 11.89862552556044 -81.7933282335656
-15.54630344463004 6.439489731533305 -81.7933282335656
-8.750000000000002 5.400495124600026 -84.13528918174896
-2.951268546922141 11.5858312027873 -83.53648377083451
2.951268546922148 11.5858312027873 -83.53648377083451
8.749999999999998 5.400495124600027 -84.13528918174896
-8.75 15.34320848650647 -86.31077070669355
-8.75 20 -103.416951099222
-8.75 20 -96.58304890077795
-8.75 11.19744443601742 -116.7502844325554
-8.75 15.5987222180087 -113.5005688651108
2.916666666666666 6.796166654026136 -120
-2.916666666666668 6.796166654026136 -120
8.75 15.34320848650647 -86.31077070669355
8.75 20 -103.416951099222
8.75 20 -96.58304890077795
8.75 11.19744443601742 -116.7502844325554
8.75 15.5987222180087 -113.5005688651108
8.75 15.34320848650648 -46.31077070669355
8.75 20 -63.41695109922205
8.75 20 -56.58304890077795
8.75 15.34320848650651 -73.68922929330643
2.916666666666666 20 -49.74914670233387
-2.916666666666668 20 -49.74914670233387
2.916666666666666 20 -30.25085329766613
-2.916666666666668 20 -30.25085329766613
2.916666666666666 20 -70.25085329766614
-2.916666666666668 20 -70.25085329766614
2.916666666666666 20 -89.74914670233387
-2.916666666666668 20 -89.74914670233387
2.916666666666666 20 -110.2508532976661
-2.916666666666668 20 -110.2508532976661
9.851224605694314e-15 5.360950486842817 -84.68363840972849
0 3.114371144219796 -84.68363840972849
8.732945197629803 3.114371144219796 -83.28424744716517
10.45318876005181 8.444801272469547 -81.7933282335656
5.792293750761776 12.12572294296974 -81.7933282335656
-3.199970184007085e-14 13.43814807868914 -81.7933282335656
-5.792293750761829 12.12572294296972 -81.7933282335656
-10.45318876005182 8.44480127246953 -81.7933282335656
-8.732945197629796 3.114371144219796 -83.28424744716517
8.732945197629798 3.114371144219796 -76.71575255283483
0 3.114371144219796 -75.31636159027151
-8.732945197629803 3.114371144219796 -76.71575255283483
10.45318876005181 8.444801272469547 -78.20667176643438
5.792293750761776 12.12572294296974 -78.20667176643438
-3.199970184007085e-14 13.43814807868914 -78.20667176643438
-5.792293750761829 12.12572294296972 -78.20667176643438
-10.45318876005182 8.44480127246953 -78.20667176643438
9.851224605694314e-15 5.360950486842817 -75.3163615902715
9.851224605694314e-15 5.360950486842817 -44.68363840972849
0 3.114371144219796 -44.68363840972849
8.732945197629803 3.114371144219796 -43.28424744716517
10.45318876005181 8.444801272469547 -41.7933282335656
5.792293750761776 12.12572294296974 -41.7933282335656
-3.199970184007085e-14 13.43814807868914 -41.7933282335656
-5.792293750761829 12.12572294296972 -41.7933282335656
-10.45318876005182 8.44480127246953 -41.7933282335656
-8.732945197629796 3.114371144219796 -43.28424744716517
8.732945197629798 3.114371144219796 -36.71575255283483
0 3.114371144219796 -35.31636159027151
-8.732945197629803 3.114371144219796 -36.71575255283483
10.45318876005181 8.444801272469547 -38.2066717664344
5.792293750761776 12.12572294296974 -38.2066717664344
-3.199970184007085e-14 13.43814807868914 -38.2066717664344
-5.792293750761829 12.12572294296972 -38.2066717664344
-10.45318876005182 8.44480127246953 -38.2066717664344
9.851224605694314e-15 5.360950486842817 -35.31636159027151
-4.34390649693538 0 -87.62666854225114
2.54212257468136 0 -47.94716248945131
-4.338044150315288 0 -72.01276520629642
3.734803621159736 0 -30.83838303374405
-8.881784197001252e-16 0 -115.6317906949036
-2.456585725313915 0 -105.2848493373869
2.849018504263019 0 -41.77724818373484
-3.818408683982494 0 -82.17073717281903
-3.813876729317646 0 -58.8915708015471
-2.809611111114431 0 -4.108969940031159
-2.758562129027552 0 -19.21548000821621
3.75897130751529 0 -93.21792102411774
4.093729756458197 0 -66.07162616335464
2.865147592946443 0 -12.94532239386053
-3.997812378930697 0 -48.94317206915055
3.934218773571957 0 -5.832547592637766
-2.617456970517144 0 -31.64291645310539
-3.195292640648709 0 -37.93395168075881
0.7681976691679555 0 -84.66422418872725
2.082295274200255 0 -78.49930514898425
10.3345077348852 0 -80.33602940815703
-9.280732165154948 0 -39.93435089980319
9.237119170757957 0 -40.02114879287276
-9.351343634249943 0 -80.06598362726236
0.2660279146357398 0 -25.34964441943025
1.671929060150868 0 -72.05634761112859
3.88617286204697 0 -105.2848493373869
-0.2739187799138083 0 -53.80379344517712
-3.978521559197278 0 -12.06844147427475
3.805865043789291 0 -20.24137692082809
-2.920045069719282 0 -65.9898824085586
2.968648782290985 0 -59.72540763623023
-2.577854979851955 0 -93.81620208610866
-3.776383684580236 0 -99.45948372810409
2.33347425425945 0 -99.40869766539819
-13.71658728195778 0 -80.01319672545247
13.69374238925938 0 -40.00422975857455
-13.70246498813878 0 -39.98687017996064
13.91047578740244 0 -80.03428871511805
3.134358369788063 0 -110.8895130149043
-3.798104387619687 0 -111.4129994935669
3.387464111761147 0 -36.50560721337838
-3.538562221483379 0 -43.30344118710588
-4.190220751576434 0 -77.1780135787219
-5.117121577632431 0 -53.87708940873151
4.72383513667269 0 -53.8587612291143
5.757783409189081 0 -81.90060128161679
-4.802016152694475 0 -25.5736164908272
5.061339315916953 0 -25.53446212007649
5.369438489306377 0 -87.5972477107648
-0.6762743872241908 0 -8.428898525067705
4.488781543693716 0 -115.7244624822786
-4.488781543693723 0 -115.7244624822786
0.3231232219788698 0 -89.70837266144132
-5.405013672932836 0 -7.076122082211747
-12.52544486312024 3.638860217119911 -43.14733666471009
12.52544486312022 3.638860217119941 -43.14733666471009
11.48362129674377 7.673110436439321 -42.8725479070541
-11.48362129674379 7.673110436439289 -42.8725479070541
3.282823396822268 16.50386770851957 -40.02235411668183
9.348690087168931 13.9913034578308 -40.02235411668182
16.50386770851956 3.282823396822323 -40.02235411668183
13.99130345783078 9.348690087168963 -40.02235411668183
-3.263475192201638 16.50770451834304 -40
-9.348690087168999 13.99130345783076 -40.02235411668183
-16.50386770851956 3.282823396822308 -40.02235411668182
-13.980335245384 9.365084368104355 -40
-12.60873845093263 3.480940630582648 -36.86593863040365
12.52544486312023 3.638860217119947 -36.85266333528991
11.48362129674378 7.673110436439325 -37.12745209294591
-11.81412516061573 7.674759820454794 -37.22653649627289
8.749999999999998 4.974795372929282 -26.28064256440419
8.749999999999998 9.893092827130017 -8.990498574486731
8.749999999999998 13.95924935575631 -20.04948299451737
8.749999999999998 14.69388328326614 -27.93714154467313
8.749999999999998 9.459100801888846 -30.89442497098331
8.749999999999998 6.356530858697262 -19.61440019379905
8.749999999999998 14.75408545263262 -13.17951482612866
8.749999999999998 5.083577857151985 -12.89426702746926
8.749999999999998 4.32682374947235 -31.10607761165831
8.749999999999998 9.888711934507569 -24.95521845367541
8.749999999999998 15.14527942753638 -7.895129359842731
8.749999999999998 4.621796145567856 -7.61565292650609
8.749999999999998 9.871474080302029 -15.16226281796459
10.25 3.10416666666666 -3
-10.25 3.104166666666674 -3
11.75 20.125 -1.5
11.75 14.37499999999999 -1.5
11.75 8.624999999999989 -1.5
11.75 2.874999999999994 -1.5
-2.707174061168084 4.878797530676509 0
3.157610638484559 18.22886740495932 0
7.069955745470663 8.716546370640001 0
-6.619519168154188 14.39111856499582 0
7.102873022115113 14.37499999999999 0
0.1126091443291184 11.52691623390895 0
-7.000954855602268 8.644857627020135 0
-2.792058517349995 18.15992185565015 0
2.948495529093417 4.721447277005962 0
-7.528051718759411 18.81262893003678 0
7.528051718759418 4.187371069963204 0
7.820492259183635 19.07601590637069 0
-7.553981076842909 4.160878030182232 0
-11.75 20.125 -1.5
-11.75 8.624999999999988 -1.5
-11.75 14.37499999999999 -1.5
-11.75 2.874999999999994 -1.5
-8.750000000000002 4.974795372929282 -26.28064256440419
-8.750000000000002 9.893092827130053 -8.990498574486733
-8.750000000000002 13.95924935575631 -20.04948299451735
-8.750000000000002 14.69388328326614 -27.93714154467313
-8.750000000000002 9.459100801888848 -30.89442497098331
-8.750000000000002 6.356530858697269 -19.61440019379906
-8.750000000000002 14.75408545263263 -13.17951482612865
-8.750000000000002 5.083577857151997 -12.89426702746927
-8.750000000000002 4.326823749472352 -31.10607761165831
-8.750000000000002 9.888711934507569 -24.95521845367541
-8.750000000000002 15.1452794275364 -7.895129359842718
-8.750000000000002 4.621796145567869 -7.615652926506089
-8.750000000000002 9.871474080302045 -15.1622628179646
-8.750000000000002 5.214417356410781 -59.90653412080656
-8.750000000000002 9.430702857206892 -70.62145559760725
-8.750000000000002 9.380808395946914 -48.82111665930994
-8.750000000000002 14.98702138977923 -59.72266089643505
-8.750000000000002 14.87083866152214 -52.44922847800785
-8.750000000000002 14.98378226862062 -66.90103942932286
-8.750000000000002 5.20512198655679 -53.77823240055909
-8.750000000000002 5.096261071404793 -66.18862015670157
-8.750000000000002 4.584067744285024 -71.00311055649361
-8.750000000000002 10.38576728818258 -55.90670913506121
-8.750000000000002 4.108545494474939 -48.55755170722216
-8.750000000000002 10.09604823016368 -63.52387289472099
-12.60873845093262 3.480940630582658 -76.86593863040363
12.52544486312023 3.638860217119947 -76.8526633352899
11.48362129674379 7.673110436439329 -77.1274520929459
-11.81412516061573 7.674759820454787 -77.22653649627289
3.282823396822271 16.50386770851957 -80.02235411668183
16.50770451834305 3.263475192201579 -80
9.348690087168929 13.9913034578308 -79.97764588331816
13.99130345783078 9.348690087168965 -79.97764588331816
-3.263475192201638 16.50770451834304 -80
-9.348690087169004 13.99130345783075 -79.97764588331816
-16.50386770851956 3.282823396822301 -80.02235411668183
-13.98033524538401 9.36508436810435 -80
-12.52544486312023 3.638860217119916 -83.14733666471008
12.52544486312023 3.63886021711994 -83.14733666471008
11.48362129674377 7.673110436439319 -82.87254790705408
-11.48362129674379 7.673110436439289 -82.87254790705408
-8.750000000000002 5.097477717735348 -105.2848493373869
-8.750000000000002 5.097477717735361 -93.51272880729638
-8.750000000000002 15.11326086584334 -100.0519605983269
-8.750000000000002 15.32630516766716 -107.16664234609
-8.750000000000002 14.69388328326611 -92.06285845532688
-8.750000000000002 6.182469308540977 -114.5635238479612
-8.750000000000002 9.343253876278931 -88.7787012172748
-8.750000000000002 5.199268745790179 -99.62999478515489
-8.750000000000002 9.788861665727968 -110.2562910278932
-8.750000000000002 10.25516682452239 -95.90076753795655
-8.750000000000002 10.39064981100423 -103.7426025835397
-8.750000000000002 4.190310429371145 -88.56193596368901
-8.750000000000002 4.368681717349117 -110.2180104585738
5.408163265306122 3.398083327013068 -120
0 3.398083327013067 -120
-5.40816326530612 3.398083327013068 -120
8.749999999999998 5.097477717735348 -105.2848493373869
8.749999999999998 5.097477717735361 -93.51272880729638
8.749999999999998 15.11326086584334 -100.0519605983269
8.749999999999998 15.32630516766716 -107.16664234609
8.749999999999998 14.69388328326611 -92.06285845532688
8.749999999999998 6.182469308540977 -114.5635238479612
8.749999999999998 9.343253876278933 -88.7787012172748
8.749999999999998 5.199268745790179 -99.62999478515489
8.749999999999998 9.788861665727968 -110.2562910278932
8.749999999999998 10.25516682452239 -95.90076753795655
8.749999999999998 10.39064981100423 -103.7426025835397
8.749999999999998 4.190310429371145 -88.561935963689
8.749999999999998 4.368681717349117 -110.2180104585738
8.749999999999998 5.214417356410781 -59.90653412080656
8.749999999999998 9.430702857206892 -70.62145559760725
8.749999999999998 9.380808395946914 -48.82111665930994
8.749999999999998 14.98702138977923 -59.72266089643505
8.749999999999998 14.87083866152214 -52.44922847800785
8.749999999999998 14.98378226862062 -66.90103942932286
8.749999999999998 5.20512198655679 -53.77823240055909
8.749999999999998 5.096261071404793 -66.18862015670157
8.749999999999998 4.584067744285025 -71.00311055649361
8.749999999999998 10.38576728818258 -55.90670913506121
8.749999999999998 4.10854549447494 -48.55755170722216
8.749999999999998 10.09604823016368 -63.52387289472099
0 15.93594963626003 -46.74842545997923
-4.4721958305282 16.56814750636007 -47.21521337065728
4.472195830528198 16.56814750636007 -47.21521337065728
0 15.93594963626003 -33.25157454002077
4.472195830528194 16.56814750636007 -32.78478662934272
-4.472195830528193 16.56814750636007 -32.78478662934272
0.0977727608032577 20 -7.641593160287631
-0.07166607520052359 20 -25.63705368738009
3.932417618517022 20 -12.3172840655702
-2.819019915030886 20 -13.20499944562118
2.979429431841838 20 -19.72845482387905
-3.874098315287152 20 -20.91309520240347
4.889371409197388 20 -7.154318110054879
-4.87248621143087 20 -26.09799909167308
-4.627582764178858 20 -7.331861186065064
4.664886004661597 20 -25.8610710159682
8.812499999999986 23 -1.5
2.937499999999966 23 -1.5
-8.812500000000007 23 -1.5
-2.937500000000027 23 -1.5
1.77635683940025e-15 20 -54.3050815012966
1.77635683940025e-15 20 -65.69491849870342
3.667009082255161 20 -60.00000000000001
-3.642808226344499 20 -60.00000000000001
-4.811894978602233 20 -54.07728476134846
4.816735149784366 20 -54.07728476134846
-4.811894978602233 20 -65.92271523865155
4.816735149784366 20 -65.92271523865155
-1.77635683940025e-15 15.93594963626003 -73.25157454002077
4.472195830528192 16.56814750636007 -72.78478662934272
-4.472195830528191 16.56814750636007 -72.78478662934272
0 15.93594963626003 -86.74842545997923
4.4721958305282 16.56814750636007 -87.21521337065728
-4.4721958305282 16.56814750636007 -87.21521337065728
1.77635683940025e-15 20 -94.3050815012966
1.77635683940025e-15 20 -105.6949184987034
3.667009082255161 20 -100
-3.642808226344499 20 -100
-4.811894978602233 20 -105.9227152386515
4.816735149784366 20 -105.9227152386515
-4.811894978602233 20 -94.07728476134847
4.816735149784366 20 -94.07728476134847
-4.861111111111109 13.39808332701307 -115.1254266488331
4.861111111111111 13.39808332701307 -115.1254266488331
-1.77635683940025e-15 16.32707353612746 -112.9627853544348
-1.77635683940025e-15 10.46909311789867 -117.2880679432313
-5.055555555555557 9.731390837796287 -117.8327558049239
5.055555555555555 17.06477581622985 -112.4180974927422
-5.055555555555557 17.06477581622985 -112.4180974927422
5.055555555555555 9.731390837796287 -117.8327558049239
-3.054109555451979 8.018397201885213 -83.53162477696507
3.506118856046101 7.768753217458457 -83.55204183664145
-0.7862363434240613 3.114371144219796 -80.5482223645793
5.365983228941328 3.114371144219796 -79.70749892582867
9.795286904800037 3.114371144219796 -79.94149978516573
-9.787444364530792 3.114371144219796 -80.27880008151838
-6.127775228436533 3.114371144219796 -80.13783707434962
2.506790728314972 3.114371144219796 -82.50012315351432
8.328638639560308 10.54597563985427 -79.97762473916318
12.06056422839545 5.926770982375203 -80
2.968817733862934 13.10610335102992 -80
-12.06089949900634 5.926088681385499 -80.02237526083682
-8.328638639560339 10.54597563985425 -80.02237526083681
-2.970300594567147 13.10576736260379 -80
-3.054109555451467 8.018397201885302 -76.46837522303487
3.506118856046126 7.768753217458425 -76.44795816335852
-3.054109555451977 8.018397201885213 -43.53162477696508
3.506118856046103 7.76875321745846 -43.55204183664146
0.8235469447513033 3.114371144219796 -39.79171272737154
-5.365983228941332 3.114371144219796 -40.29250107417133
9.83967920638894 3.114371144219796 -40.19710904721279
-9.795286904800033 3.114371144219796 -40.05850021483427
5.984198116944125 3.114371144219796 -40.28025361204021
-2.226494104473101 3.114371144219796 -37.67923424552147
8.328638639560307 10.54597563985427 -40.02237526083682
12.06089949900634 5.926088681385508 -39.97762473916318
2.968817733862937 13.10610335102992 -40
-2.970300594567147 13.10576736260379 -40
-12.06089949900634 5.926088681385499 -40.02237526083682
-8.329235234273874 10.54550445435909 -40
-3.054109555451467 8.018397201885302 -36.46837522303488
3.506118856046125 7.768753217458423 -36.44795816335854
-3.552713678800501e-15 9.256320742726531 -27.15404812465431
0.02761053168878308 9.209367046388621 -53.08642960343638
0.5357745628775876 8.083794741485674 -92.93680892019407
-1.77635683940025e-15 9.178631624804712 -66.75615607286015
0 8.795605618148866 -17.92645424669684
-5.329070518200751e-15 8.770538743305544 -9.104045716350829
-1.77635683940025e-15 9.14735434218807 -106.9123800088998
0.01210042795533139 12.73386771917182 -99.60138088649663
0.01210042795533051 13.05375533514652 -59.92996778542258
2.333360476707858 14.03324455738981 -5.822521544333767
2.29366902256095 5.66987420145834 -113.7330040338966
-2.194112719635428 6.442851819710341 -101.0467999622349
2.515111338044729 14.62441207389977 -107.4934314893439
2.897079538394507 6.517108103770409 -70.96427760213582
-1.964106431172332 6.443872263210476 -60.6871635412622

CELLS 2909 12763
1 0
1 1
1 2
1 3
1 4
1 5
1 6
1 7
1 8
1 9
1 10
1 11
1 12
1 13
1 14
1 15
1 16
1 17
1 18
1 19
1 20
1 21
1 22
1 23
1 24
1 25
1 26
1 27
1 28
1 29
1 30
1 31
1 32
1 33
1 34
1 35
1 36
1 37
1 38
1 39
1 40
1 41
1 42
1 43
1 44
1 45
1 46
1 47
1 48
1 49
1 50
1 51
1 52
1 53
1 54
1 55
1 56
1 57
1 58
1 59
1 60
1 61
1 62
1 63
1 64
1 65
2 0 66
2 66 1
2 1 2
2 2 67
2 67 3
2 3 68
2 68 69
2 69 70
2 70 71
2 71 4
2 4 5
2 5 6
2 6 72
2 72 73
2 73 74
2 74 7
2 8 7
2 8 9
2 9 75
2 75 76
2 76 77
2 77 78
2 78 10
2 11 79
2 79 10
2 12 11
2 13 80
2 80 12
2 13 81
2 81 82
2 82 83
2 83 84
2 84 14
2 15 85
2 85 14
2 16 15
2 17 86
2 86 16
2 17 87
2 87 88
2 88 89
2 89 90
2 90 91
2 91 18
2 19 92
2 92 93
2 93 18
2 20 94
2 94 95
2 95 96
2 96 97
2 97 98
2 98 19
2 20 99
2 99 21
2 21 22
2 22 100
2 100 23
2 0 101
2 101 102
2 102 103
2 103 104
2 104 23
2 1 105
2 105 106
2 106 107
2 107 108
2 108 109
2 109 110
2 110 111
2 111 12
2 24 112
2 112 13
2 24 113
2 113 114
2 114 25
2 25 115
2 115 0
2 2 116
2 116 117
2 117 118
2 118 119
2 119 120
2 120 121
2 121 122
2 122 11
2 3 123
2 123 26
2 26 124
2 124 125
2 125 27
2 10 126
2 126 27
2 4 127
2 127 128
2 128 28
2 29 129
2 129 130
2 130 131
2 131 28
2 26 132
2 132 29
2 31 133
2 133 134
2 134 135
2 135 30
2 8 136
2 136 137
2 137 138
2 138 31
2 32 139
2 139 140
2 140 9
2 32 141
2 141 142
2 142 28
2 5 143
2 143 144
2 144 145
2 145 30
2 6 146
2 146 147
2 147 148
2 148 33
2 30 33
2 34 149
2 149 150
2 150 151
2 151 33
2 7 152
2 152 153
2 153 154
2 154 34
2 31 34
2 32 155
2 155 156
2 156 157
2 157 35
2 27 158
2 158 35
2 36 159
2 159 24
2 37 160
2 160 161
2 161 36
2 38 162
2 162 37
2 14 163
2 163 38
2 23 164
2 164 39
2 39 165
2 165 166
2 166 38
2 22 167
2 167 168
2 168 169
2 169 170
2 170 171
2 171 172
2 172 173
2 173 15
2 21 174
2 174 175
2 175 176
2 176 177
2 177 178
2 178 179
2 179 180
2 180 16
2 40 181
2 181 17
2 40 182
2 182 183
2 183 41
2 41 184
2 184 20
2 42 185
2 185 40
2 43 186
2 186 187
2 187 42
2 44 188
2 188 189
2 189 43
2 18 44
2 45 190
2 190 191
2 191 44
2 19 45
2 46 192
2 192 41
2 47 193
2 193 194
2 194 46
2 45 195
2 195 196
2 196 47
2 48 197
2 197 25
2 49 198
2 198 199
2 199 48
2 39 200
2 200 49
2 48 201
2 201 202
2 202 36
2 29 203
2 203 204
2 204 35
2 49 205
2 205 206
2 206 37
2 46 207
2 207 208
2 208 42
2 47 209
2 209 210
2 210 43
2 50 211
2 211 51
2 51 212
2 212 50
2 50 213
2 213 52
2 52 214
2 214 215
2 215 216
2 216 217
2 217 218
2 218 53
2 53 219
2 219 51
2 52 54
2 54 220
2 220 55
2 55 221
2 221 56
2 56 222
2 222 57
2 53 57
2 54 223
2 223 224
2 224 225
2 225 226
2 226 227
2 227 57
2 55 228
2 228 56
2 58 229
2 229 59
2 59 230
2 230 58
2 58 231
2 231 60
2 60 232
2 232 233
2 233 234
2 234 235
2 235 236
2 236 61
2 61 237
2 237 59
2 60 62
2 62 238
2 238 63
2 63 239
2 239 64
2 64 240
2 240 65
2 61 65
2 62 241
2 241 242
2 242 243
2 243 244
2 244 245
2 245 65
2 63 246
2 246 64
3 66 269 0
3 0 248 101
3 0 253 248
3 0 269 253
3 2 283 1
3 1 283 66
3 67 283 2
3 3 269 67
3 68 250 3
3 250 288 3
3 3 288 269
3 5 6 4
3 4 6 72
3 4 262 71
3 72 262 4
3 8 9 7
3 7 9 74
3 9 256 74
3 75 301 9
3 9 301 256
3 10 263 78
3 79 268 10
3 10 264 263
3 10 268 264
3 12 284 11
3 11 284 79
3 80 284 12
3 13 268 80
3 81 261 13
3 261 289 13
3 13 289 268
3 14 249 84
3 85 270 14
3 14 290 249
3 270 290 14
3 16 282 15
3 15 282 85
3 86 282 16
3 17 270 86
3 87 247 17
3 247 254 17
3 254 270 17
3 18 299 91
3 93 299 18
3 19 298 92
3 98 298 19
3 20 296 94
3 99 267 20
3 267 293 20
3 293 296 20
3 22 285 21
3 21 285 99
3 100 285 22
3 23 267 100
3 104 272 23
3 23 272 266
3 266 293 23
3 23 293 267
3 66 283 269
3 269 283 67
3 69 295 68
3 68 295 250
3 70 276 69
3 276 295 69
3 71 260 70
3 260 276 70
3 71 262 260
3 73 262 72
3 74 256 73
3 256 262 73
3 76 275 75
3 275 301 75
3 77 257 76
3 257 275 76
3 78 294 77
3 77 294 257
3 263 294 78
3 79 284 268
3 268 284 80
3 82 291 81
3 81 291 261
3 83 255 82
3 255 291 82
3 84 277 83
3 83 277 255
3 249 277 84
3 85 282 270
3 270 282 86
3 88 279 87
3 87 279 247
3 89 280 88
3 88 280 279
3 90 252 89
3 252 280 89
3 91 287 90
3 90 287 252
3 91 299 287
3 92 251 93
3 92 298 251
3 251 299 93
3 94 258 95
3 94 296 258
3 95 281 96
3 258 281 95
3 96 273 97
3 96 281 273
3 97 286 98
3 273 286 97
3 286 298 98
3 99 285 267
3 267 285 100
3 101 292 102
3 248 292 101
3 102 278 103
3 102 292 278
3 103 259 104
3 103 278 259
3 259 272 104
3 247 265 254
3 247 300 265
3 279 300 247
3 253 289 248
3 261 274 248
3 248 289 261
3 274 292 248
3 272 277 249
3 249 290 272
3 250 271 263
3 263 288 250
3 250 295 271
3 286 287 251
3 251 298 286
3 287 299 251
3 273 281 252
3 252 286 273
3 252 281 280
3 252 287 286
3 253 288 264
3 264 289 253
3 269 288 253
3 265 266 254
3 266 290 254
3 254 290 270
3 255 278 274
3 274 291 255
3 277 278 255
3 256 297 262
3 256 301 297
3 260 275 257
3 257 276 260
3 271 276 257
3 257 294 271
3 279 281 258
3 258 300 279
3 296 300 258
3 259 277 272
3 259 278 277
3 262 297 260
3 260 297 275
3 261 291 274
3 264 288 263
3 271 294 263
3 268 289 264
3 265 293 266
3 265 296 293
3 265 300 296
3 272 290 266
3 271 295 276
3 278 292 274
3 297 301 275
3 280 281 279
3 0 303 66
3 115 303 0
3 66 303 1
3 1 303 105
3 12 302 80
3 111 302 12
3 80 302 13
3 13 302 112
3 109 24 110
3 109 113 24
3 24 305 110
3 112 305 24
3 106 25 107
3 106 304 25
3 114 107 25
3 25 304 115
3 105 304 106
3 303 304 105
3 108 107 114
3 109 108 113
3 108 114 113
3 110 305 111
3 111 305 302
3 302 305 112
3 115 304 303
3 1 308 2
3 105 308 1
3 2 308 116
3 11 312 12
3 122 312 11
3 12 312 111
3 106 309 105
3 116 308 105
3 105 309 116
3 107 307 106
3 106 307 117
3 117 309 106
3 108 306 107
3 107 306 118
3 118 307 107
3 109 310 108
3 119 306 108
3 108 310 119
3 110 311 109
3 120 310 109
3 109 311 120
3 111 313 110
3 121 311 110
3 110 313 121
3 111 312 122
3 122 313 111
3 116 309 117
3 117 307 118
3 118 306 119
3 119 310 120
3 120 311 121
3 121 313 122
3 2 315 67
3 116 315 2
3 67 315 3
3 3 315 123
3 10 314 79
3 126 314 10
3 79 314 11
3 11 314 122
3 117 118 26
3 26 316 117
3 26 118 124
3 123 316 26
3 120 121 27
3 120 27 125
3 121 317 27
3 27 317 126
3 117 316 116
3 116 316 315
3 124 118 119
3 120 125 119
3 125 124 119
3 122 317 121
3 314 317 122
3 315 316 123
3 126 317 314
3 3 326 68
3 123 326 3
3 71 329 4
3 4 329 127
3 26 322 123
3 132 322 26
3 128 328 28
3 28 328 131
3 129 321 29
3 29 321 132
3 68 318 69
3 68 326 318
3 69 323 70
3 318 323 69
3 70 325 71
3 323 325 70
3 325 329 71
3 322 326 123
3 127 319 128
3 127 329 319
3 319 328 128
3 130 320 129
3 320 321 129
3 131 324 130
3 130 324 320
3 131 328 324
3 321 322 132
3 318 326 322
3 322 327 318
3 318 327 323
3 324 328 319
3 319 330 324
3 319 329 325
3 325 330 319
3 320 327 321
3 323 327 320
3 320 330 323
3 324 330 320
3 321 327 322
3 323 330 325
3 5 4 331
3 4 127 331
3 143 5 331
3 9 8 332
3 8 136 332
3 140 9 332
3 30 28 135
3 145 28 30
3 145 128 28
3 28 142 135
3 31 133 32
3 138 31 32
3 133 141 32
3 138 32 139
3 127 128 144
3 143 127 144
3 127 143 331
3 128 145 144
3 134 141 133
3 142 134 135
3 142 141 134
3 136 137 140
3 136 140 332
3 137 138 139
3 137 139 140
3 5 336 6
3 143 336 5
3 6 336 146
3 33 333 30
3 30 333 145
3 148 333 33
3 144 335 143
3 143 335 146
3 146 336 143
3 145 334 144
3 144 334 147
3 147 335 144
3 145 333 148
3 148 334 145
3 146 335 147
3 147 334 148
3 6 347 72
3 146 347 6
3 74 349 7
3 7 349 152
3 33 348 148
3 151 348 33
3 34 346 149
3 154 346 34
3 72 345 73
3 72 347 345
3 73 337 74
3 73 345 337
3 337 349 74
3 147 339 146
3 339 347 146
3 148 341 147
3 147 341 339
3 148 348 341
3 149 344 150
3 149 346 344
3 150 338 151
3 150 344 338
3 338 348 151
3 152 343 153
3 152 349 343
3 153 340 154
3 153 343 340
3 340 346 154
3 342 343 337
3 337 345 342
3 343 349 337
3 338 342 341
3 341 348 338
3 338 344 342
3 341 342 339
3 342 345 339
3 345 347 339
3 340 343 342
3 342 344 340
3 344 346 340
3 8 7 353
3 7 152 353
3 136 8 353
3 34 31 350
3 31 138 350
3 154 34 350
3 137 136 351
3 136 152 351
3 152 136 353
3 138 137 352
3 153 137 351
3 137 153 352
3 138 154 350
3 154 138 352
3 152 153 351
3 153 154 352
3 75 9 365
3 9 140 365
3 10 78 362
3 126 10 362
3 27 126 358
3 158 27 358
3 139 32 364
3 32 155 364
3 157 35 357
3 35 158 357
3 76 75 361
3 361 75 365
3 77 76 359
3 359 76 361
3 78 77 354
3 354 77 359
3 78 354 362
3 358 126 362
3 140 139 355
3 355 139 364
3 140 355 365
3 155 156 360
3 155 360 364
3 156 157 356
3 156 356 360
3 356 157 357
3 357 158 358
3 354 358 362
3 358 354 363
3 354 359 363
3 360 355 364
3 355 360 366
3 355 361 365
3 361 355 366
3 356 357 363
3 359 356 363
3 356 359 366
3 360 356 366
3 357 358 363
3 359 361 366
3 81 13 377
3 13 112 377
3 14 84 375
3 163 14 375
3 112 24 369
3 24 159 369
3 159 36 371
3 36 161 371
3 160 37 372
3 37 162 372
3 162 38 368
3 38 163 368
3 82 81 373
3 373 81 377
3 83 82 367
3 367 82 373
3 84 83 374
3 83 367 374
3 84 374 375
3 112 369 377
3 369 159 371
3 161 160 370
3 370 160 372
3 161 370 371
3 162 368 372
3 368 163 375
3 367 373 376
3 374 367 378
3 367 376 378
3 372 368 378
3 374 368 375
3 368 374 378
3 369 371 376
3 373 369 376
3 369 373 377
3 371 370 376
3 370 372 378
3 376 370 378
3 14 379 85
3 163 379 14
3 85 379 15
3 15 379 173
3 22 380 100
3 167 380 22
3 100 380 23
3 23 380 164
3 38 382 163
3 171 38 166
3 171 172 38
3 172 382 38
3 164 381 39
3 39 169 165
3 168 169 39
3 39 381 168
3 163 382 379
3 380 381 164
3 166 165 170
3 165 169 170
3 171 166 170
3 168 381 167
3 167 381 380
3 173 382 172
3 379 382 173
3 15 389 16
3 173 389 15
3 16 389 180
3 21 384 22
3 174 384 21
3 22 384 167
3 167 386 168
3 167 384 174
3 174 386 167
3 168 385 169
3 175 385 168
3 168 386 175
3 169 383 170
3 176 383 169
3 169 385 176
3 170 387 171
3 170 383 177
3 177 387 170
3 171 388 172
3 171 387 178
3 178 388 171
3 172 390 173
3 172 388 179
3 179 390 172
3 180 389 173
3 173 390 180
3 175 386 174
3 176 385 175
3 177 383 176
3 178 387 177
3 179 388 178
3 180 390 179
3 16 391 86
3 180 391 16
3 86 391 17
3 17 391 181
3 20 392 99
3 184 392 20
3 99 392 21
3 21 392 174
3 178 40 179
3 182 40 178
3 40 394 179
3 181 394 40
3 175 41 176
3 175 393 41
3 183 176 41
3 41 393 184
3 174 393 175
3 392 393 174
3 177 176 183
3 178 177 182
3 182 177 183
3 179 394 180
3 180 394 391
3 391 394 181
3 184 393 392
3 87 17 406
3 17 181 406
3 44 18 400
3 18 91 400
3 181 40 401
3 40 185 401
3 185 42 399
3 42 187 399
3 186 43 398
3 43 189 398
3 188 44 400
3 88 87 396
3 396 87 406
3 89 88 402
3 88 396 402
3 90 89 395
3 395 89 402
3 91 90 407
3 90 395 407
3 400 91 407
3 181 401 406
3 185 399 401
3 187 186 397
3 397 186 398
3 187 397 399
3 189 188 403
3 188 400 403
3 398 189 403
3 395 402 405
3 403 395 405
3 395 403 407
3 396 401 404
3 401 396 406
3 402 396 404
3 397 398 405
3 399 397 404
3 404 397 405
3 398 403 405
3 401 399 404
3 403 400 407
3 402 404 405
3 44 410 18
3 18 410 93
3 19 408 45
3 92 408 19
3 191 410 44
3 45 408 190
3 93 409 92
3 92 409 408
3 93 410 409
3 190 409 191
3 408 409 190
3 409 410 191
3 45 416 19
3 19 416 98
3 94 422 20
3 20 422 184
3 184 417 41
3 41 417 192
3 195 416 45
3 192 415 46
3 46 415 194
3 193 414 47
3 47 414 196
3 95 412 94
3 412 422 94
3 96 418 95
3 95 418 412
3 97 411 96
3 411 418 96
3 98 423 97
3 97 423 411
3 416 423 98
3 184 422 417
3 192 417 415
3 194 413 193
3 413 414 193
3 194 415 413
3 196 419 195
3 195 419 416
3 414 419 196
3 411 421 418
3 419 421 411
3 411 423 419
3 412 420 417
3 417 422 412
3 418 420 412
3 413 421 414
3 415 420 413
3 420 421 413
3 414 421 419
3 417 420 415
3 419 423 416
3 418 421 420
3 101 434 0
3 0 434 115
3 23 432 104
3 164 432 23
3 115 426 25
3 25 426 197
3 39 425 164
3 200 425 39
3 197 428 48
3 48 428 199
3 198 429 49
3 49 429 200
3 102 430 101
3 430 434 101
3 103 424 102
3 424 430 102
3 104 431 103
3 103 431 424
3 104 432 431
3 115 434 426
3 425 432 164
3 426 428 197
3 199 427 198
3 427 429 198
3 199 428 427
3 200 429 425
3 424 433 430
3 431 435 424
3 424 435 433
3 429 435 425
3 431 432 425
3 425 435 431
3 426 433 428
3 430 433 426
3 426 434 430
3 428 433 427
3 427 435 429
3 433 435 427
3 24 113 159
3 114 25 197
3 159 437 36
3 36 437 202
3 48 438 197
3 201 438 48
3 114 436 113
3 113 437 159
3 436 437 113
3 197 438 114
3 114 438 436
3 202 436 201
3 436 438 201
3 202 437 436
3 132 26 124
3 27 158 125
3 132 440 29
3 29 440 203
3 35 441 158
3 204 441 35
3 125 439 124
3 124 440 132
3 439 440 124
3 158 441 125
3 125 441 439
3 203 439 204
3 203 440 439
3 439 441 204
3 131 448 28
3 28 448 142
3 29 451 129
3 203 451 29
3 141 450 32
3 32 450 155
3 157 449 35
3 35 449 204
3 129 446 130
3 129 451 446
3 130 444 131
3 130 446 444
3 444 448 131
3 142 442 141
3 442 450 141
3 142 448 442
3 155 445 156
3 155 450 445
3 156 447 157
3 445 447 156
3 447 449 157
3 204 443 203
3 443 451 203
3 204 449 443
3 444 445 442
3 442 448 444
3 445 450 442
3 443 447 446
3 446 451 443
3 443 449 447
3 444 446 445
3 446 447 445
3 30 452 33
3 135 452 30
3 34 454 31
3 31 454 133
3 33 452 151
3 149 454 34
3 133 455 134
3 133 454 149
3 149 455 133
3 134 453 135
3 150 453 134
3 134 455 150
3 151 452 135
3 135 453 151
3 150 455 149
3 151 453 150
3 36 460 161
3 202 460 36
3 160 462 37
3 37 462 206
3 199 461 48
3 48 461 201
3 49 463 198
3 205 463 49
3 161 459 160
3 459 462 160
3 161 460 459
3 198 458 199
3 198 463 458
3 458 461 199
3 201 456 202
3 201 461 456
3 456 460 202
3 206 457 205
3 457 463 205
3 206 462 457
3 458 459 456
3 456 461 458
3 459 460 456
3 457 459 458
3 458 463 457
3 457 462 459
3 37 466 162
3 206 466 37
3 162 166 38
3 200 39 165
3 200 465 49
3 49 465 205
3 162 466 166
3 166 464 165
3 165 465 200
3 464 465 165
3 166 466 464
3 205 464 206
3 205 465 464
3 464 466 206
3 182 185 40
3 183 41 192
3 185 469 42
3 42 469 208
3 46 468 192
3 207 468 46
3 183 467 182
3 182 469 185
3 467 469 182
3 192 468 183
3 183 468 467
3 208 467 207
3 467 468 207
3 208 469 467
3 42 476 187
3 208 476 42
3 186 474 43
3 43 474 210
3 194 477 46
3 46 477 207
3 47 475 193
3 209 475 47
3 187 473 186
3 473 474 186
3 187 476 473
3 193 472 194
3 193 475 472
3 472 477 194
3 207 470 208
3 207 477 470
3 470 476 208
3 210 471 209
3 471 475 209
3 210 474 471
3 472 473 470
3 470 477 472
3 473 476 470
3 471 473 472
3 472 475 471
3 471 474 473
3 43 484 189
3 210 484 43
3 188 482 44
3 44 482 191
3 190 485 45
3 45 485 195
3 196 483 47
3 47 483 209
3 189 478 188
3 478 482 188
3 189 484 478
3 191 481 190
3 481 485 190
3 191 482 481
3 195 479 196
3 195 485 479
3 479 483 196
3 209 480 210
3 209 483 480
3 480 484 210
3 480 481 478
3 478 484 480
3 481 482 478
3 479 481 480
3 480 483 479
3 479 485 481
3 211 212 50
3 212 211 51
3 211 50 487
3 50 213 487
3 51 211 486
3 219 51 486
3 52 214 213
3 218 53 219
3 486 211 487
3 213 214 487
3 214 215 487
3 215 216 487
3 216 217 486
3 216 486 487
3 217 218 486
3 218 219 486
3 212 493 50
3 50 489 213
3 50 493 489
3 51 488 212
3 219 492 51
3 51 492 488
3 52 490 54
3 213 490 52
3 57 491 53
3 53 491 219
3 54 490 220
3 220 489 55
3 55 489 221
3 221 488 56
3 56 492 222
3 488 492 56
3 222 491 57
3 488 493 212
3 489 490 213
3 491 492 219
3 220 490 489
3 221 489 488
3 222 492 491
3 489 493 488
3 52 54 495
3 214 52 495
3 57 53 497
3 53 218 497
3 54 223 495
3 227 57 497
3 215 214 494
3 214 223 494
3 223 214 495
3 216 215 496
3 224 215 494
3 215 224 496
3 217 216 499
3 225 216 496
3 216 225 499
3 218 217 498
3 217 226 498
3 226 217 499
3 218 227 497
3 227 218 498
3 223 224 494
3 224 225 496
3 225 226 499
3 226 227 498
3 54 220 223
3 220 55 501
3 55 228 501
3 56 222 500
3 228 56 500
3 227 222 57
3 223 220 501
3 222 227 500
3 224 223 501
3 225 224 501
3 226 225 500
3 500 225 501
3 227 226 500
3 228 500 501
3 221 228 55
3 228 221 56
3 229 230 58
3 230 229 59
3 229 58 503
3 58 231 503
3 59 229 502
3 237 59 502
3 60 232 231
3 236 61 237
3 502 229 503
3 231 232 503
3 232 233 503
3 233 234 503
3 234 235 502
3 234 502 503
3 235 236 502
3 236 237 502
3 230 504 58
3 58 508 231
3 504 508 58
3 59 505 230
3 237 505 59
3 60 506 62
3 231 506 60
3 65 507 61
3 61 507 237
3 62 506 238
3 238 508 63
3 63 504 239
3 63 508 504
3 239 509 64
3 64 505 240
3 64 509 505
3 240 507 65
3 230 505 504
3 231 508 506
3 237 507 505
3 506 508 238
3 504 509 239
3 505 507 240
3 505 509 504
3 60 62 511
3 232 60 511
3 65 61 514
3 61 236 514
3 62 241 511
3 245 65 514
3 233 232 510
3 232 241 510
3 241 232 511
3 234 233 512
3 242 233 510
3 233 242 512
3 235 234 513
3 243 234 512
3 234 243 513
3 236 235 515
3 244 235 513
3 235 244 515
3 236 245 514
3 245 236 515
3 241 242 510
3 242 243 512
3 243 244 513
3 244 245 515
3 62 238 241
3 238 63 517
3 63 246 517
3 64 240 516
3 246 64 516
3 245 240 65
3 241 238 517
3 240 245 516
3 242 241 517
3 243 242 517
3 244 243 516
3 516 243 517
3 245 244 516
3 246 516 517
3 239 246 63
3 246 239 64
4 470 467 469 520
4 403 482 478 524
4 476 470 520 525
4 478 524 482 528
4 476 470 208 469
4 261 59 229 519
4 443 447 449 518
4 443 447 518 522
4 468 467 470 520
4 204 449 441 518
4 444 522 324 523
4 468 470 467 207
4 470 208 469 467
4 465 463 205 521
4 206 462 466 521
4 249 228 56 521
4 212 211 50 300
4 261 377 59 519
4 295 276 318 518
4 204 443 449 518
4 482 524 403 528
4 451 446 443 518
4 463 457 205 521
4 206 457 462 521
4 59 502 229 519
4 447 356 449 518
4 460 456 202 519
4 300 211 50 520
4 481 478 482 528
4 461 201 456 519
4 212 247 211 300
4 476 520 399 525
4 205 464 465 521
4 464 206 466 521
4 443 518 446 522
4 296 300 50 520
4 203 440 451 518
4 63 246 250 518
4 211 51 247 212
4 247 51 211 520
4 202 436 437 519
4 364 523 450 527
4 438 436 201 519
4 211 300 247 520
4 296 50 422 520
4 247 406 51 520
4 295 271 276 518
4 516 64 246 518
4 356 357 449 518
4 203 439 440 518
4 441 439 204 518
4 203 451 443 518
4 228 521 249 531
4 366 522 360 523
4 324 522 330 523
4 294 518 359 522
4 205 457 464 521
4 464 457 206 521
4 447 356 518 522
4 246 63 517 518
4 292 434 430 519
4 503 58 229 519
4 456 436 202 519
4 210 474 484 530
4 64 263 246 518
4 201 436 456 519
4 294 354 359 518
4 211 51 486 520
4 443 439 203 518
4 204 439 443 518
4 444 445 522 523
4 246 263 239 250
4 451 320 446 518
4 249 56 375 521
4 259 424 431 532
4 463 465 429 521
4 372 466 462 521
4 139 450 141 527
4 424 521 431 532
4 445 360 522 523
4 63 250 326 518
4 400 482 403 528
4 443 446 447 522
4 446 518 320 522
4 324 444 523 527
4 182 183 177 216
4 108 113 114 234
4 166 170 165 225
4 125 119 124 243
4 457 521 463 526
4 462 521 457 526
4 248 229 58 519
4 373 261 291 519
4 456 519 460 526
4 503 434 58 519
4 403 478 484 524
4 320 451 321 518
4 456 461 519 526
4 371 460 519 526
4 372 521 462 526
4 261 229 274 519
4 463 521 429 526
4 406 486 51 520
4 356 363 357 518
4 327 320 321 518
4 428 519 461 526
4 287 407 524 528
4 373 377 261 519
4 363 518 356 522
4 320 518 327 522
4 398 484 474 530
4 445 442 450 527
4 273 418 411 529
4 418 524 411 529
4 520 525 418 529
4 259 431 521 532
4 248 58 434 519
4 516 362 64 518
4 318 276 323 518
4 64 362 263 518
4 449 357 441 518
4 323 518 276 522
4 373 519 291 532
4 324 444 446 522
4 63 326 517 518
4 258 300 296 520
4 248 434 292 519
4 445 450 523 527
4 433 424 519 532
4 487 50 211 520
4 398 524 484 530
4 433 526 424 532
4 276 518 271 522
4 258 296 422 520
4 257 294 359 522
4 487 422 50 520
4 484 398 403 524
4 139 364 450 527
4 363 359 354 518
4 323 327 318 518
4 364 139 523 527
4 474 471 525 530
4 481 524 478 528
4 273 411 524 529
4 256 297 301 523
4 291 261 274 519
4 467 182 469 520
4 435 431 424 521
4 250 295 318 518
4 291 519 274 532
4 331 336 5 143
4 332 136 8 353
4 433 519 526 532
4 451 440 321 518
4 409 299 251 191
4 359 518 363 522
4 323 327 518 522
4 273 411 423 524
4 421 411 418 524
4 356 360 366 522
4 324 320 330 522
4 281 418 273 529
4 426 434 503 519
4 275 522 361 523
4 478 480 484 524
4 356 445 360 522
4 297 275 301 523
4 418 421 524 529
4 279 406 247 520
4 514 317 65 245
4 497 382 57 227
4 141 340 139 527
4 444 445 523 527
4 248 274 229 519
4 418 525 421 529
4 424 278 519 532
4 281 520 418 529
4 406 279 396 520
4 433 424 430 519
4 424 526 435 532
4 366 361 522 523
4 330 522 325 523
4 418 520 420 525
4 355 364 139 523
4 183 41 176 215
4 182 178 40 217
4 322 517 326 518
4 326 250 318 518
4 324 446 320 522
4 114 25 107 233
4 109 24 113 235
4 424 435 521 532
4 371 370 460 526
4 469 182 401 520
4 461 427 428 526
4 256 345 297 523
4 246 263 250 518
4 366 360 355 523
4 319 324 330 523
4 398 474 397 525
4 482 400 191 528
4 342 523 139 527
4 377 373 369 519
4 364 355 360 523
4 250 271 295 518
4 405 524 398 525
4 516 358 362 518
4 120 125 27 244
4 26 124 118 242
4 430 434 426 519
4 396 401 406 520
4 469 401 399 520
4 221 228 249 531
4 262 297 345 523
4 287 400 407 528
4 356 447 445 522
4 486 406 401 520
4 446 444 445 522
4 279 247 300 520
4 372 462 370 526
4 122 313 121 317
4 390 173 382 172
4 345 256 297 262
4 365 301 275 523
4 463 429 427 526
4 273 423 286 524
4 39 165 169 224
4 171 166 38 226
4 251 409 191 528
4 399 520 404 525
4 239 63 246 250
4 468 183 467 520
4 465 521 464 531
4 277 249 375 521
4 421 525 524 529
4 259 278 424 532
4 484 524 480 530
4 371 519 376 526
4 258 422 412 520
4 242 243 517 124
4 224 225 501 165
4 216 215 487 183
4 234 233 503 114
4 433 519 428 526
4 191 400 299 528
4 343 139 342 523
4 292 278 274 519
4 500 368 375 521
4 407 252 287 524
4 324 523 319 527
4 166 464 466 521
4 372 368 466 521
4 465 425 429 521
4 396 280 402 529
4 299 251 191 528
4 407 395 252 524
4 326 318 322 518
4 354 362 358 518
4 435 526 521 532
4 372 378 521 526
4 325 522 260 523
4 340 141 344 527
4 306 242 243 512
4 383 224 225 496
4 433 435 424 526
4 440 124 322 518
4 358 125 441 518
4 429 521 435 526
4 447 446 445 522
4 468 417 183 520
4 375 374 277 521
4 166 466 368 521
4 127 523 339 527
4 465 464 165 531
4 397 476 399 525
4 255 373 291 532
4 462 459 370 526
4 396 520 279 529
4 413 415 477 525
4 437 436 113 519
4 427 458 463 526
4 255 291 274 532
4 420 520 415 525
4 465 425 521 531
4 369 371 437 519
4 444 442 445 527
4 438 114 436 519
4 234 233 306 512
4 216 215 383 496
4 286 524 423 528
4 438 428 426 519
4 437 113 369 519
4 426 114 438 519
4 260 522 275 523
4 474 473 397 525
4 274 248 292 519
4 396 279 280 529
4 127 345 339 523
4 375 368 374 521
4 417 422 487 520
4 479 419 524 528
4 319 523 127 527
4 473 474 471 525
4 343 337 140 523
4 366 355 361 523
4 319 330 325 523
4 274 519 278 532
4 337 345 256 523
4 345 339 523 527
4 257 361 275 522
4 371 376 370 526
4 479 524 419 530
4 415 417 468 520
4 127 319 329 523
4 355 140 365 523
4 433 428 427 526
4 481 479 524 528
4 411 419 423 524
4 407 403 395 524
4 439 124 440 518
4 125 439 441 518
4 299 400 287 528
4 340 342 139 527
4 459 460 370 526
4 260 325 323 522
4 440 322 321 518
4 358 441 357 518
4 458 427 461 526
4 277 249 521 531
4 398 397 405 525
4 479 480 481 524
4 478 481 480 524
4 275 361 365 523
4 228 249 56 221
4 423 524 419 528
4 214 213 487 184
4 404 520 396 529
4 412 420 418 520
4 9 140 332 349
4 431 259 521 531
4 232 231 503 115
4 421 418 420 525
4 219 218 486 181
4 359 363 356 522
4 323 320 327 522
4 127 4 331 347
4 484 480 210 530
4 409 410 299 191
4 237 236 502 112
4 271 250 263 518
4 294 271 263 518
4 182 467 183 520
4 191 410 299 400
4 287 524 286 528
4 480 524 479 530
4 361 359 366 522
4 325 330 323 522
4 343 342 337 523
4 345 523 342 527
4 238 241 517 123
4 260 323 276 522
4 372 370 378 526
4 210 471 474 530
4 230 261 59 229
4 397 473 476 525
4 429 435 427 526
4 245 240 516 126
4 361 257 359 522
4 413 477 472 525
4 260 329 325 523
4 450 442 141 527
4 220 223 501 164
4 401 182 486 520
4 227 222 500 163
4 191 481 482 528
4 257 276 271 522
4 422 417 412 520
4 260 297 262 523
4 217 216 486 182
4 235 234 502 113
4 243 244 516 125
4 225 226 500 166
4 260 262 329 523
4 376 519 373 532
4 322 124 517 518
4 462 457 459 526
4 457 463 458 526
4 363 354 358 518
4 318 327 322 518
4 401 404 399 520
4 436 114 113 519
4 404 525 520 529
4 397 399 404 525
4 297 260 275 523
4 401 396 404 520
4 345 342 339 527
4 413 420 415 525
4 465 165 425 531
4 329 319 325 523
4 355 365 361 523
4 412 95 258 418
4 503 114 426 519
4 470 476 473 525
4 299 287 251 528
4 239 64 263 246
4 477 470 472 525
4 459 456 460 526
4 456 458 461 526
4 252 286 287 524
4 166 368 500 521
4 324 319 328 527
4 516 125 358 518
4 279 520 281 529
4 374 367 83 532
4 322 327 321 518
4 357 363 358 518
4 273 524 252 529
4 376 526 519 532
4 402 404 396 529
4 502 369 113 519
4 286 252 273 524
4 417 487 183 520
4 405 403 398 524
4 279 258 281 520
4 125 124 439 518
4 373 255 367 532
4 337 342 345 523
4 340 344 342 527
4 275 260 257 522
4 402 396 88 280
4 127 128 319 527
4 378 368 372 521
4 435 429 425 521
4 524 525 421 530
4 395 252 524 529
4 356 366 359 522
4 330 320 323 522
4 405 524 525 529
4 376 378 526 532
4 371 369 376 519
4 259 521 277 532
4 378 521 526 532
4 276 295 318 69
4 368 378 374 521
4 376 369 373 519
4 479 485 419 528
4 324 328 444 527
4 426 428 433 519
4 360 156 445 356
4 374 277 521 532
4 221 249 272 531
4 433 430 426 519
4 203 443 204 439
4 431 424 259 103
4 376 378 370 526
4 281 258 95 418
4 472 413 525 530
4 374 521 378 532
4 427 435 433 526
4 483 479 419 530
4 33 348 151 452
4 424 430 292 102
4 279 281 280 529
4 405 525 404 529
4 149 34 454 346
4 9 140 349 301
4 376 373 367 532
4 301 256 140 349
4 472 475 413 530
4 291 82 373 255
4 421 419 411 524
4 395 403 405 524
4 339 128 127 527
4 202 456 201 436
4 470 208 467 207
4 205 206 464 457
4 279 88 396 280
4 448 128 28 142
4 448 128 142 527
4 431 521 435 531
4 301 9 256 349
4 277 272 249 531
4 513 234 109 310
4 499 216 178 387
4 243 513 120 310
4 225 499 171 387
4 421 525 413 530
4 353 152 7 349
4 472 525 471 530
4 377 112 59 502
4 141 32 450 139
4 336 347 6 146
4 447 445 156 356
4 33 148 348 333
4 110 109 311 24
4 107 106 307 25
4 259 277 521 531
4 83 367 255 532
4 34 350 346 154
4 258 279 300 520
4 257 260 276 522
4 328 448 444 527
4 425 435 521 531
4 420 417 415 520
4 359 77 354 294
4 455 150 149 344
4 406 181 51 486
4 175 176 41 385
4 178 179 40 388
4 20 184 213 392
4 139 340 343 342
4 406 87 396 279
4 277 374 83 532
4 425 431 435 531
4 404 405 397 525
4 417 420 412 520
4 395 524 405 529
4 352 153 340 154
4 402 280 89 529
4 419 524 421 530
4 444 324 446 130
4 421 420 413 525
4 475 414 413 530
4 516 362 126 64
4 87 406 247 279
4 168 169 385 39
4 171 172 388 38
4 453 150 338 151
4 190 408 485 528
4 140 9 365 301
4 475 472 471 530
4 411 273 96 418
4 257 361 76 275
4 359 361 76 257
4 118 117 26 307
4 121 120 27 311
4 155 450 364 360
4 446 324 320 130
4 453 142 134 135
4 133 134 455 141
4 478 189 403 484
4 196 483 479 419
4 357 449 157 356
4 482 188 403 478
4 195 419 479 485
4 372 462 160 370
4 427 429 463 198
4 473 471 472 525
4 82 367 373 255
4 181 17 219 391
4 273 281 96 418
4 487 50 422 184
4 294 359 77 257
4 449 447 157 356
4 483 419 414 530
4 105 60 1 308
4 389 53 16 180
4 312 61 12 111
4 422 296 258 94
4 349 256 140 337
4 395 402 89 529
4 141 142 344 527
4 448 442 444 527
4 370 462 160 459
4 174 52 21 384
4 22 54 167 384
4 458 427 463 198
4 69 318 276 323
4 273 252 281 529
4 339 146 335 147
4 502 237 112 59
4 424 292 278 102
4 300 50 212 265
4 32 450 139 364
4 2 62 116 308
4 334 147 148 341
4 258 422 94 412
4 142 141 442 527
4 376 367 378 532
4 424 278 259 103
4 448 328 128 527
4 486 219 181 51
4 409 191 481 190
4 470 473 472 525
4 152 351 153 343
4 112 13 237 302
4 240 516 126 64
4 408 409 298 528
4 416 419 485 528
4 320 321 451 129
4 28 328 128 448
4 90 407 395 252
4 20 184 50 213
4 235 234 109 513
4 217 216 178 499
4 244 243 513 120
4 226 225 499 171
4 123 3 238 315
4 362 126 358 516
4 0 115 231 303
4 14 163 222 379
4 189 398 403 484
4 196 414 483 419
4 83 255 277 532
4 345 347 262 127
4 90 407 252 287
4 457 458 459 526
4 112 377 369 502
4 434 503 58 115
4 405 404 402 529
4 278 259 277 532
4 229 58 230 248
4 459 458 456 526
4 143 127 335 144
4 136 137 351 140
4 423 411 273 97
4 460 370 371 161
4 428 461 199 427
4 517 63 123 326
4 486 406 181 401
4 274 278 255 532
4 374 378 367 532
4 234 109 310 108
4 216 178 387 177
4 243 120 119 310
4 225 171 170 387
4 37 206 462 466
4 135 28 30 452
4 32 31 454 133
4 463 49 465 205
4 408 190 409 528
4 341 142 128 527
4 410 299 93 409
4 409 408 298 92
4 481 485 479 528
4 476 397 399 187
4 415 477 194 413
4 272 432 55 531
4 215 214 487 41
4 414 421 413 530
4 127 4 347 262
4 251 298 409 528
4 123 322 517 326
4 375 84 249 277
4 71 260 262 329
4 233 232 503 25
4 124 440 322 132
4 158 125 441 358
4 10 126 240 314
4 34 350 454 346
4 320 451 446 129
4 450 155 445 360
4 259 272 277 531
4 35 441 204 449
4 84 375 374 277
4 370 460 459 161
4 329 71 260 325
4 461 458 199 427
4 474 398 397 186
4 414 193 475 413
4 263 362 78 294
4 163 375 56 500
4 426 503 434 115
4 248 292 434 101
4 218 217 486 40
4 465 165 200 425
4 368 466 166 162
4 502 24 236 235
4 128 144 145 334
4 138 139 352 137
4 181 17 51 219
4 242 241 26 517
4 483 480 479 530
4 292 430 434 101
4 273 286 423 97
4 73 256 345 262
4 409 481 191 528
4 409 190 481 528
4 338 344 142 527
4 397 476 473 187
4 477 472 194 413
4 422 417 487 184
4 362 354 78 294
4 286 423 298 528
4 432 272 55 104
4 350 31 32 138
4 145 30 28 333
4 245 244 27 516
4 423 298 416 98
4 222 500 163 56
4 286 298 423 98
4 473 474 397 186
4 193 472 475 413
4 500 163 375 368
4 224 223 39 501
4 112 13 59 237
4 176 177 183 383
4 108 107 306 114
4 164 23 220 380
4 465 200 429 425
4 368 466 162 372
4 210 209 471 530
4 4 127 329 262
4 213 487 184 50
4 416 485 408 528
4 38 500 227 226
4 339 341 128 527
4 298 423 416 528
4 419 195 416 485
4 188 400 482 403
4 287 286 251 528
4 437 113 159 369
4 426 438 114 197
4 192 183 468 417
4 182 469 401 185
4 365 75 275 301
4 475 209 483 530
4 124 306 119 118
4 165 383 170 169
4 419 421 414 530
4 338 348 341 142
4 265 300 50 296
4 48 201 461 428
4 465 429 49 463
4 466 462 37 372
4 251 93 299 409
4 298 251 409 92
4 36 371 460 202
4 174 21 52 392
4 116 62 2 315
4 105 1 60 303
4 391 16 53 180
4 167 54 22 380
4 302 12 61 111
4 501 220 164 55
4 266 23 55 272
4 91 407 287 400
4 280 281 252 529
4 342 341 339 527
4 437 159 371 369
4 428 438 426 197
4 210 480 209 530
4 125 158 27 358
4 124 322 26 132
4 123 3 63 238
4 425 165 501 531
4 128 328 319 527
4 371 36 437 202
4 201 48 438 428
4 338 142 341 527
4 410 91 299 400
4 299 91 287 400
4 72 347 4 262
4 73 256 337 345
4 483 414 475 530
4 416 408 298 528
4 74 256 9 349
4 164 55 432 531
4 474 484 43 210
4 475 209 47 483
4 33 348 452 333
4 345 347 72 262
4 0 115 58 231
4 277 255 278 532
4 166 38 368 162
4 165 39 200 425
4 298 408 416 98
4 338 342 344 527
4 263 10 362 64
4 272 104 432 531
4 358 126 27 516
4 10 126 64 240
4 444 448 328 131
4 164 23 55 220
4 477 46 207 415
4 239 263 264 288
4 517 238 123 63
4 440 321 322 132
4 357 158 441 358
4 483 47 475 414
4 484 43 398 474
4 231 503 115 58
4 416 423 419 528
4 432 55 23 104
4 114 25 426 197
4 113 24 159 369
4 182 401 40 185
4 183 192 41 417
4 26 517 322 124
4 509 239 264 504
4 395 405 402 529
4 35 441 449 357
4 46 468 207 415
4 336 4 347 331
4 322 517 26 123
4 164 501 55 531
4 75 361 365 275
4 425 164 432 531
4 259 104 272 531
4 14 163 56 222
4 500 38 163 368
4 415 192 468 417
4 469 399 401 185
4 353 9 332 349
4 27 125 358 516
4 87 88 396 279
4 425 165 39 501
4 485 190 45 408
4 272 23 55 104
4 377 59 13 261
4 95 96 281 418
4 24 112 369 502
4 486 181 40 401
4 58 0 248 434
4 250 3 63 326
4 368 500 38 166
4 485 45 416 408
4 359 76 77 257
4 425 501 164 531
4 154 139 352 138
4 501 39 425 164
4 346 141 344 340
4 349 74 256 337
4 444 328 324 131
4 392 21 52 99
4 142 442 448 527
4 54 22 380 100
4 373 81 82 291
4 18 91 410 400
4 18 91 299 410
4 426 25 503 115
4 263 239 250 288
4 426 503 25 114
4 487 417 41 184
4 300 212 247 265
4 362 78 10 263
4 367 82 83 255
4 417 41 183 487
4 95 258 94 412
4 434 0 248 101
4 70 69 276 323
4 19 416 408 98
4 50 20 296 422
4 90 395 89 252
4 218 486 181 40
4 16 53 86 391
4 369 113 24 502
4 298 19 408 98
4 24 502 236 112
4 342 338 341 527
4 40 486 401 182
4 503 502 234 114
4 225 165 500 501
4 516 517 243 124
4 216 486 183 487
4 184 20 50 422
4 66 60 1 303
4 302 61 12 80
4 67 2 62 315
4 326 250 3 68
4 51 17 406 247
4 83 84 374 277
4 278 424 102 103
4 45 19 416 408
4 410 44 18 400
4 383 165 170 225
4 306 124 119 243
4 108 306 234 114
4 177 216 183 383
4 129 446 320 130
4 189 403 188 478
4 479 196 419 195
4 13 81 377 261
4 98 423 286 97
4 402 88 89 280
4 317 65 240 314
4 222 382 57 379
4 425 432 431 531
4 445 155 156 360
4 73 345 72 262
4 14 56 375 249
4 17 181 51 406
4 516 245 126 27
4 28 328 448 131
4 137 351 140 343
4 127 339 335 144
4 447 156 157 356
4 481 190 485 528
4 212 51 247 265
4 263 264 10 64
4 13 112 59 377
4 148 145 334 341
4 450 32 155 364
4 75 365 9 301
4 6 4 347 336
4 411 96 273 97
4 351 137 153 343
4 339 335 144 147
4 353 7 9 349
4 55 228 221 531
4 500 38 227 163
4 375 84 14 249
4 324 444 131 130
4 251 93 409 92
4 141 134 150 142
4 71 70 260 325
4 449 157 35 357
4 487 41 214 184
4 371 36 460 161
4 461 199 48 428
4 289 230 253 248
4 253 58 0 248
4 68 318 295 69
4 139 352 340 154
4 290 266 221 272
4 459 160 370 161
4 232 503 25 115
4 427 458 199 198
4 162 466 37 372
4 429 49 200 465
4 344 141 150 142
4 407 90 91 287
4 430 292 102 101
4 228 55 501 531
4 462 160 37 372
4 463 429 49 198
4 239 264 64 509
4 71 262 4 329
4 399 42 476 187
4 477 194 46 415
4 266 55 23 489
4 126 10 64 362
4 451 321 29 129
4 3 123 63 326
4 483 209 480 530
4 55 266 221 489
4 289 505 509 504
4 508 288 253 269
4 163 14 56 375
4 422 20 296 94
4 221 249 290 272
4 213 393 392 184
4 250 239 63 288
4 230 289 261 248
4 361 75 76 275
4 489 267 490 220
4 241 26 517 123
4 23 164 55 432
4 231 304 303 115
4 490 267 54 100
4 11 65 314 79
4 43 398 189 484
4 483 47 414 196
4 128 145 28 348
4 85 57 15 379
4 406 17 87 247
4 454 350 32 346
4 474 43 398 186
4 47 193 475 414
4 298 251 286 528
4 54 52 495 384
4 382 222 57 227
4 65 317 240 245
4 475 471 209 530
4 265 488 254 266
4 389 57 53 497
4 312 65 61 514
4 511 62 60 308
4 317 240 126 314
4 264 289 509 504
4 316 238 315 123
4 288 264 504 253
4 266 265 488 493
4 346 139 154 138
4 253 0 508 269
4 213 393 184 214
4 104 431 259 103
4 508 58 0 253
4 334 145 128 341
4 64 263 264 239
4 231 304 115 232
4 501 223 39 164
4 187 473 397 186
4 382 222 163 379
4 51 212 254 265
4 504 239 264 288
4 394 219 391 181
4 193 194 472 413
4 267 490 220 100
4 381 220 380 164
4 269 508 3 238
4 305 237 302 112
4 493 266 265 293
4 55 221 272 531
4 505 289 59 230
4 489 23 266 293
4 354 77 78 294
4 293 489 23 267
4 115 0 58 434
4 264 289 504 253
4 139 346 32 138
4 293 265 50 296
4 331 347 336 146
4 238 316 241 123
4 353 332 152 349
4 221 266 488 489
4 36 159 371 437
4 48 438 428 197
4 506 67 62 238
4 495 52 174 384
4 167 54 495 384
4 381 220 164 223
4 288 508 3 269
4 389 57 497 173
4 65 312 122 514
4 234 109 108 113
4 225 171 166 170
4 216 178 177 182
4 243 120 125 119
4 105 511 60 308
4 62 511 116 308
4 383 165 224 169
4 306 124 242 118
4 497 53 389 180
4 111 312 61 514
4 338 344 150 142
4 383 165 225 224
4 306 124 243 242
4 261 59 13 289
4 491 57 282 270
4 142 348 135 151
4 216 215 183 383
4 234 233 114 306
4 508 0 58 231
4 306 233 114 107
4 383 215 183 176
4 267 489 23 220
4 141 455 149 344
4 74 9 7 349
4 341 148 145 348
4 488 266 493 489
4 250 63 3 288
4 491 282 53 270
4 145 128 341 348
4 53 86 491 270
4 452 348 28 333
4 142 150 338 453
4 394 219 181 218
4 3 508 288 238
4 493 265 50 293
4 305 237 112 236
4 347 4 6 72
4 254 247 51 265
4 497 382 390 173
4 514 317 313 122
4 265 212 488 493
4 505 289 230 504
4 140 349 337 343
4 289 261 59 230
4 264 289 505 509
4 150 455 141 344
4 317 240 245 126
4 73 256 74 337
4 495 174 167 384
4 54 267 285 100
4 220 490 54 100
4 111 122 312 514
4 173 497 389 180
4 105 116 511 308
4 56 492 488 290
4 149 133 141 346
4 85 282 57 270
4 488 290 254 266
4 382 222 227 163
4 298 408 19 92
4 299 93 18 410
4 41 215 183 487
4 268 264 289 505
4 182 216 486 183
4 113 234 502 114
4 243 125 516 124
4 165 500 166 225
4 247 51 17 254
4 503 25 114 233
4 340 153 352 139
4 506 269 67 238
4 86 53 282 270
4 269 283 60 506
4 63 504 508 288
4 215 385 41 176
4 217 178 40 388
4 66 60 231 506
4 508 504 58 253
4 25 107 233 307
4 235 24 311 109
4 347 345 339 127
4 149 133 455 141
4 135 453 142 151
4 440 29 321 132
4 441 35 158 357
4 338 142 453 151
4 142 348 28 135
4 217 216 182 178
4 235 234 113 109
4 226 225 171 166
4 244 243 120 125
4 219 491 86 270
4 340 346 139 154
4 244 311 235 515
4 489 55 23 220
4 46 192 468 415
4 42 399 469 185
4 226 217 498 388
4 385 224 215 494
4 233 242 510 307
4 267 293 489 490
4 182 40 486 217
4 124 26 517 242
4 113 235 24 502
4 488 492 51 254
4 212 488 51 254
4 142 134 150 453
4 455 134 150 141
4 60 66 269 506
4 290 270 492 254
4 53 57 282 491
4 288 508 63 238
4 317 27 126 245
4 384 22 54 285
4 242 118 26 307
4 311 27 244 120
4 52 21 384 285
4 492 270 219 254
4 225 496 216 383
4 234 306 243 512
4 514 317 122 65
4 497 382 173 57
4 217 40 498 388
4 41 385 215 494
4 165 224 39 501
4 125 27 244 516
4 231 269 66 506
4 310 513 234 243
4 499 216 387 225
4 127 339 144 128
4 507 240 65 79
4 290 56 249 221
4 265 50 212 493
4 140 139 137 343
4 235 311 24 515
4 233 510 25 307
4 224 39 385 169
4 38 171 226 388
4 62 60 283 506
4 491 86 53 219
4 254 212 488 265
4 141 133 32 346
4 500 38 166 226
4 142 338 348 151
4 13 268 289 505
4 382 38 163 227
4 27 311 244 515
4 289 230 504 253
4 242 26 510 307
4 491 222 57 270
4 387 171 178 499
4 120 310 513 109
4 400 482 44 188
4 416 195 45 485
4 60 66 283 269
4 99 21 52 285
4 17 219 270 254
4 237 507 61 80
4 22 54 285 100
4 0 508 269 231
4 221 266 55 272
4 54 52 384 285
4 149 141 344 346
4 293 50 20 296
4 137 139 153 343
4 63 239 504 288
4 147 144 339 128
4 52 267 99 285
4 264 268 240 505
4 264 240 10 64
4 268 13 237 505
4 282 15 57 389
4 240 507 268 79
4 507 65 61 284
4 268 240 10 264
4 505 240 264 64
4 282 53 16 389
4 312 65 11 284
4 312 12 61 284
4 392 213 20 99
4 283 62 2 308
4 507 237 268 80
4 151 348 28 452
4 224 385 39 494
4 226 498 38 388
4 1 60 283 308
4 146 127 339 335
4 393 214 41 184
4 348 148 28 333
4 351 152 140 343
4 267 52 54 285
4 304 232 25 115
4 213 267 20 99
4 340 153 139 343
4 266 488 290 221
4 149 454 32 346
4 290 488 56 221
4 393 52 392 174
4 316 62 116 315
4 381 54 167 380
4 304 60 303 105
4 53 394 391 180
4 61 305 302 111
4 28 135 151 452
4 149 32 454 133
4 222 85 57 270
4 146 336 331 143
4 152 136 332 353
4 148 145 28 333
4 504 508 288 253
4 217 499 171 226
4 235 244 513 120
4 57 53 282 389
4 222 270 492 290
4 346 350 32 154
4 154 350 32 138
4 334 128 147 341
4 54 380 220 100
4 61 65 312 284
4 394 181 40 218
4 60 62 283 308
4 219 17 51 254
4 112 24 305 236
4 492 219 51 254
4 492 488 290 254
4 41 175 385 494
4 388 40 498 179
4 26 241 316 123
4 23 267 220 100
4 121 110 311 515
4 172 388 498 179
4 106 307 510 117
4 175 168 385 494
4 311 110 24 515
4 171 217 226 388
4 215 224 385 169
4 244 235 311 120
4 107 242 233 307
4 504 230 58 253
4 336 5 4 331
4 8 9 332 353
4 510 25 307 106
4 391 86 17 219
4 452 30 33 333
4 289 237 13 505
4 213 267 52 490
4 65 240 314 79
4 282 16 53 86
4 219 86 17 270
4 293 267 213 490
4 253 230 58 248
4 222 57 85 379
4 332 140 152 349
4 347 331 127 146
4 350 31 34 454
4 382 497 390 227
4 317 514 313 245
4 128 339 147 341
4 66 60 303 231
4 282 57 15 85
4 315 62 67 238
4 288 63 3 238
4 264 505 64 509
4 79 11 65 284
4 307 26 510 117
4 27 121 311 515
4 180 173 497 390
4 313 122 111 514
4 499 171 178 217
4 120 513 235 109
4 174 167 386 495
4 511 116 105 309
4 350 32 31 454
4 452 28 30 333
4 284 12 61 80
4 1 60 66 283
4 222 14 85 270
4 249 14 56 290
4 283 2 62 67
4 381 39 223 164
4 54 52 267 490
4 508 269 506 238
4 270 491 222 492
4 13 59 237 289
4 270 222 14 290
4 67 3 315 238
4 391 53 86 219
4 498 38 388 172
4 65 317 122 314
4 57 382 173 379
4 385 168 39 494
4 169 385 215 176
4 120 235 311 109
4 217 171 178 388
4 242 107 118 307
4 13 237 302 80
4 302 237 61 80
4 222 85 14 379
4 303 0 66 231
4 270 219 491 492
4 489 493 50 293
4 59 237 289 505
4 152 136 140 332
4 146 331 127 143
4 225 177 170 383
4 234 119 306 108
4 177 170 387 225
4 310 119 234 108
4 220 380 23 100
4 266 493 489 293
4 268 237 13 80
4 231 508 269 506
4 384 21 22 285
4 3 67 269 238
4 154 32 346 138
4 216 177 225 383
4 119 234 306 243
4 339 347 127 146
4 216 177 387 225
4 234 119 310 243
4 148 28 145 348
4 133 149 32 346
4 293 20 50 213
4 135 348 28 151
4 9 8 7 353
4 349 140 152 343
4 268 507 240 505
4 16 15 282 389
4 4 6 5 336
4 11 12 312 284
4 223 168 175 494
4 510 241 106 117
4 283 2 1 308
4 314 240 10 79
4 269 66 0 231
4 121 27 317 245
4 213 489 293 490
4 386 168 175 223
4 241 309 106 117
4 214 41 175 393
4 50 489 293 213
4 25 232 304 106
4 227 382 38 172
4 386 223 214 495
4 232 241 511 309
4 245 110 121 515
4 498 218 172 179
4 268 237 507 505
4 268 10 240 79
4 20 293 267 213
4 56 222 492 290
4 147 144 128 334
4 316 241 26 117
4 214 223 175 494
4 510 241 232 106
4 218 390 172 179
4 313 110 121 245
4 153 352 139 137
4 218 40 394 179
4 305 24 110 236
4 309 232 241 106
4 175 386 223 214
4 168 39 223 381
4 127 146 143 335
4 351 152 136 140
4 382 227 390 172
4 317 313 121 245
4 245 514 313 236
4 218 497 227 390
4 110 245 236 515
4 218 227 498 172
4 227 218 390 172
4 313 110 245 236
4 222 56 14 290
4 214 175 41 494
4 25 510 232 106
4 241 510 26 117
4 236 24 110 515
4 218 498 40 179
4 39 168 223 494
4 245 121 27 515
4 38 498 227 172
4 227 226 498 38
4 218 217 40 498
4 236 235 24 515
4 233 232 25 510
4 224 223 494 39
4 242 241 510 26
4 245 244 515 27
4 215 214 41 494
4 521 56 500 228
4 521 500 56 375
4 520 476 469 470
4 520 469 476 399
4 530 398 525 474
4 530 525 398 524
4 377 502 519 369
4 519 502 377 59
4 522 294 271 257
4 522 271 294 518
4 248 229 261 230
4 248 261 229 274
4 403 528 407 400
4 407 528 403 524
4 140 139 523 355
4 523 139 140 343
4 418 258 520 281
4 418 520 258 412
4 292 424 519 430
4 519 424 292 278
4 362 294 518 354
4 518 294 362 263
4 373 261 81 291
4 81 261 373 377
4 323 260 70 325
4 323 70 260 276
4 531 464 166 521
4 531 166 464 165
4 256 523 140 337
4 127 262 523 329
4 127 523 262 345
4 140 301 523 256
4 523 301 140 365
4 165 500 531 166
4 521 531 500 166
4 521 500 531 228
4 518 124 516 125
4 486 183 520 182
4 114 519 502 113
4 89 529 252 395
4 252 529 89 280
4 250 318 68 326
4 68 318 250 295
4 191 400 44 410
4 44 400 191 482
4 57 15 173 389
4 57 173 15 379
4 65 11 122 312
4 65 122 11 314
4 450 360 523 364
4 523 360 450 445
4 371 202 519 460
4 519 202 371 437
4 428 201 519 438
4 428 519 201 461
4 451 440 29 321
4 29 440 451 203
4 469 476 42 208
4 469 42 476 399
4 470 520 415 468
4 470 207 415 477
4 415 207 470 468
4 531 104 431 259
4 531 431 104 432
4 52 393 213 214
4 52 213 393 392
4 60 304 231 232
4 60 231 304 303
4 381 54 220 223
4 381 220 54 380
4 316 62 238 241
4 316 238 62 315
4 394 53 219 218
4 394 219 53 391
4 305 61 237 236
4 305 237 61 302
4 516 517 518 246
4 518 517 516 124
4 501 500 531 165
4 501 531 500 228
4 486 487 520 183
4 520 487 486 211
4 503 502 519 229
4 519 502 503 114
4 346 139 141 340
4 141 139 346 32
4 67 506 283 269
4 283 506 67 62
4 128 348 142 341
4 142 348 128 28
4 507 79 284 268
4 284 79 507 65
4 80 507 284 268
4 80 284 507 61
4 52 213 99 267
4 52 99 213 392
4 62 241 116 511
4 62 116 241 316
4 309 116 241 511
4 60 232 105 304
4 60 105 232 511
4 309 232 105 511
4 242 107 306 118
4 54 223 167 495
4 54 167 223 381
4 386 167 223 495
4 52 214 174 393
4 52 174 214 495
4 386 214 174 495
4 53 218 180 497
4 53 180 218 394
4 390 180 218 497
4 61 236 111 514
4 61 111 236 305
4 313 111 236 514
4 233 306 242 107
4 233 242 306 512
4 215 383 169 176
4 224 383 215 496
4 224 215 383 169
4 415 470 525 520
4 525 470 415 477
4 116 241 117 309
4 116 117 241 316
4 232 105 106 309
4 232 106 105 304
4 167 223 168 386
4 167 168 223 381
4 214 174 175 386
4 214 175 174 393
4 180 218 179 390
4 180 179 218 394
4 111 236 110 313
4 111 110 236 305

CELL_TYPES 2909
1
1
1
1
1
1
1
1
1
1
1
1
1
1
1
1
1
1
1
1
1
1
1
1
1
1
1
1
1
1
1
1
1
1
1
1
1
1
1
1
1
1
1
1
1
1
1
1
1
1
1
1
1
1
1
1
1
1
1
1
1
1
1
1
1
1
3
3
3
3
3
3
3
3
3
3
3
3
3
3
3
3
3
3
3
3
3
3
3
3
3
3
3
3
3
3
3
3
3
3
3
3
3
3
3
3
3
3
3
3
3
3
3
3
3
3
3
3
3
3
3
3
3
3
3
3
3
3
3
3
3
3
3
3
3
3
3
3
3
3
3
3
3
3
3
3
3
3
3
3
3
3
3
3
3
3
3
3
3
3
3
3
3
3
3
3
3
3
3
3
3
3
3
3
3
3
3
3
3
3
3
3
3
3
3
3
3
3
3
3
3
3
3
3
3
3
3
3
3
3
3
3
3
3
3
3
3
3
3
3
3
3
3
3
3
3
3
3
3
3
3
3
3
3
3
3
3
3
3
3
3
3
3
3
3
3
3
3
3
3
3
3
3
3
3
3
3
3
3
3
3
3
3
3
3
3
3
3
3
3
3
3
3
3
3
3
3
3
3
3
3
3
3
3
3
3
3
3
3
3
3
3
3
3
3
3
3
3
3
3
3
3
3
3
3
3
3
3
3
3
3
3
3
3
3
3
3
3
3
3
3
3
3
3
3
3
3
3
3
3
3
3
3
3
3
3
3
3
3
3
3
3
3
3
3
3
3
3
3
3
3
3
3
3
3
3
5
5
5
5
5
5
5
5
5
5
5
5
5
5
5
5
5
5
5
5
5
5
5
5
5
5
5
5
5
5
5
5
5
5
5
5
5
5
5
5
5
5
5
5
5
5
5
5
5
5
5
5
5
5
5
5
5
5
5
5
5
5
5
5
5
5
5
5
5
5
5
5
5
5
5
5
5
5
5
5
5
5
5
5
5
5
5
5
5
5
5
5
5
5
5
5
5
5
5
5
5
5
5
5
5
5
5
5
5
5
5
5
5
5
5
5
5
5
5
5
5
5
5
5
5
5
5
5
5
5
5
5
5
5
5
5
5
5
5
5
5
5
5
5
5
5
5
5
5
5
5
5
5
5
5
5
5
5
5
5
5
5
5
5
5
5
5
5
5
5
5
5
5
5
5
5
5
5
5
5
5
5
5
5
5
5
5
5
5
5
5
5
5
5
5
5
5
5
5
5
5
5
5
5
5
5
5
5
5
5
5
5
5
5
5
5
5
5
5
5
5
5
5
5
5
5
5
5
5
5
5
5
5
5
5
5
5
5
5
5
5
5
5
5
5
5
5
5
5
5
5
5
5
5
5
5
5
5
5
5
5
5
5
5
5
5
5
5
5
5
5
5
5
5
5
5
5
5
5
5
5
5
5
5
5
5
5
5
5
5
5
5
5
5
5
5
5
5
5
5
5
5
5
5
5
5
5
5
5
5
5
5
5
5
5
5
5
5
5
5
5
5
5
5
5
5
5
5
5
5
5
5
5
5
5
5
5
5
5
5
5
5
5
5
5
5
5
5
5
5
5
5
5
5
5
5
5
5
5
5
5
5
5
5
5
5
5
5
5
5
5
5
5
5
5
5
5
5
5
5
5
5
5
5
5
5
5
5
5
5
5
5
5
5
5
5
5
5
5
5
5
5
5
5
5
5
5
5
5
5
5
5
5
5
5
5
5
5
5
5
5
5
5
5
5
5
5
5
5
5
5
5
5
5
5
5
5
5
5
5
5
5
5
5
5
5
5
5
5
5
5
5
5
5
5
5
5
5
5
5
5
5
5
5
5
5
5
5
5
5
5
5
5
5
5
5
5
5
5
5
5
5
5
5
5
5
5
5
5
5
5
5
5
5
5
5
5
5
5
5
5
5
5
5
5
5
5
5
5
5
5
5
5
5
5
5
5
5
5
5
5
5
5
5
5
5
5
5
5
5
5
5
5
5
5
5
5
5
5
5
5
5
5
5
5
5
5
5
5
5
5
5
5
5
5
5
5
5
5
5
5
5
5
5
5
5
5
5
5
5
5
5
5
5
5
5
5
5
5
5
5
5
5
5
5
5
5
5
5
5
5
5
5
5
5
5
5
5
5
5
5
5
5
5
5
5
5
5
5
5
5
5
5
5
5
5
5
5
5
5
5
5
5
5
5
5
5
5
5
5
5
5
5
5
5
5
5
5
5
5
5
5
5
5
5
5
5
5
5
5
5
5
5
5
5
5
5
5
5
5
5
5
5
5
5
5
5
5
5
5
5
5
5
5
5
5
5
5
5
5
5
5
5
5
5
5
5
5
5
5
5
5
5
5
5
5
5
5
5
5
5
5
5
5
5
5
5
5
5
5
5
5
5
5
5
5
5
5
5
5
5
5
5
5
5
5
5
5
5
5
5
5
5
5
5
5
5
5
5
5
5
5
5
5
5
5
5
5
5
5
5
5
5
5
5
5
5
5
5
5
5
5
5
5
5
5
5
5
5
5
5
5
5
5
5
5
5
5
5
5
5
5
5
5
5
5
5
5
5
5
5
5
5
5
5
5
5
5
5
5
5
5
5
5
5
5
5
5
5
5
5
5
5
5
5
5
5
5
5
5
5
5
5
5
5
5
5
5
5
5
5
5
5
5
5
5
5
5
5
5
5
5
5
5
5
5
5
5
5
5
5
5
5
5
5
5
5
5
5
5
5
5
5
5
5
5
5
5
5
5
5
5
5
5
5
5
5
5
5
5
5
5
5
5
5
5
5
5
5
5
5
5
5
5
5
5
5
5
5
5
5
5
5
5
5
5
5
5
5
5
5
5
5
5
5
5
5
5
5
5
5
5
5
5
5
5
5
5
5
5
5
5
5
5
5
5
5
5
5
5
5
5
5
5
5
5
5
5
5
5
5
5
5
5
5
5
5
5
5
5
5
5
5
5
5
5
5
5
5
5
5
5
5
5
5
5
5
5
5
5
5
5
5
5
5
5
5
5
5
5
5
5
5
5
5
5
5
5
5
5
5
5
5
5
5
5
5
5
5
5
5
5
5
5
5
5
5
5
5
5
5
5
5
5
10
10
10
10
10
10
10
10
10
10
10
10
10
10
10
10
10
10
10
10
10
10
10
10
10
10
10
10
10
10
10
10
10
10
10
10
10
10
10
10
10
10
10
10
10
10
10
10
10
10
10
10
10
10
10
10
10
10
10
10
10
10
10
10
10
10
10
10
10
10
10
10
10
10
10
10
10
10
10
10
10
10
10
10
10
10
10
10
10
10
10
10
10
10
10
10
10
10
10
10
10
10
10
10
10
10
10
10
10
10
10
10
10
10
10
10
10
10
10
10
10
10
10
10
10
10
10
10
10
10
10
10
10
10
10
10
10
10
10
10
10
10
10
10
10
10
10
10
10
10
10
10
10
10
10
10
10
10
10
10
10
10
10
10
10
10
10
10
10
10
10
10
10
10
10
10
10
10
10
10
10
10
10
10
10
10
10
10
10
10
10
10
10
10
10
10
10
10
10
10
10
10
10
10
10
10
10
10
10
10
10
10
10
10
10
10
10
10
10
10
10
10
10
10
10
10
10
10
10
10
10
10
10
10
10
10
10
10
10
10
10
10
10
10
10
10
10
10
10
10
10
10
10
10
10
10
10
10
10
10
10
10
10
10
10
10
10
10
10
10
10
10
10
10
10
10
10
10
10
10
10
10
10
10
10
10
10
10
10
10
10
10
10
10
10
10
10
10
10
10
10
10
10
10
10
10
10
10
10
10
10
10
10
10
10
10
10
10
10
10
10
10
10
10
10
10
10
10
10
10
10
10
10
10
10
10
10
10
10
10
10
10
10
10
10
10
10
10
10
10
10
10
10
10
10
10
10
10
10
10
10
10
10
10
10
10
10
10
10
10
10
10
10
10
10
10
10
10
10
10
10
10
10
10
10
10
10
10
10
10
10
10
10
10
10
10
10
10
10
10
10
10
10
10
10
10
10
10
10
10
10
10
10
10
10
10
10
10
10
10
10
10
10
10
10
10
10
10
10
10
10
10
10
10
10
10
10
10
10
10
10
10
10
10
10
10
10
10
10
10
10
10
10
10
10
10
10
10
10
10
10
10
10
10
10
10
10
10
10
10
10
10
10
10
10
10
10
10
10
10
10
10
10
10
10
10
10
10
10
10
10
10
10
10
10
10
10
10
10
10
10
10
10
10
10
10
10
10
10
10
10
10
10
10
10
10
10
10
10
10
10
10
10
10
10
10
10
10
10
10
10
10
10
10
10
10
10
10
10
10
10
10
10
10
10
10
10
10
10
10
10
10
10
10
10
10
10
10
10
10
10
10
10
10
10
10
10
10
10
10
10
10
10
10
10
10
10
10
10
10
10
10
10
10
10
10
10
10
10
10
10
10
10
10
10
10
10
10
10
10
10
10
10
10
10
10
10
10
10
10
10
10
10
10
10
10
10
10
10
10
10
10
10
10
10
10
10
10
10
10
10
10
10
10
10
10
10
10
10
10
10
10
10
10
10
10
10
10
10
10
10
10
10
10
10
10
10
10
10
10
10
10
10
10
10
10
10
10
10
10
10
10
10
10
10
10
10
10
10
10
10
10
10
10
10
10
10
10
10
10
10
10
10
10
10
10
10
10
10
10
10
10
10
10
10
10
10
10
10
10
10
10
10
10
10
10
10
10
10
10
10
10
10
10
10
10
10
10
10
10
10
10
10
10
10
10
10
10
10
10
10
10
10
10
10
10
10
10
10
10
10
10
10
10
10
10
10
10
10
10
10
10
10
10
10
10
10
10
10
10
10
10
10
10
10
10
10
10
10
10
10
10
10
10
10
10
10
10
10
10
10
10
10
10
10
10
10
10
10
10
10
10
10
10
10
10
10
10
10
10
10
10
10
10
10
10
10
10
10
10
10
10
10
10
10
10
10
10
10
10
10
10
10
10
10
10
10
10
10
10
10
10
10
10
10
10
10
10
10
10
10
10
10
10
10
10
10
10
10
10
10
10
10
10
10
10
10
10
10
10
10
10
10
10
10
10
10
10
10
10
10
10
10
10
10
10
10
10
10
10
10
10
10
10
10
10
10
10
10
10
10
10
10
10
10
10
10
10
10
10
10
10
10
10
10
10
10
10
10
10
10
10
10
10
10
10
10
10
10
10
10
10
10
10
10
10
10
10
10
10
10
10
10
10
10
10
10
10
10
10
10
10
10
10
10
10
10
10
10
10
10
10
10
10
10
10
10
10
10
10
10
10
10
10
10
10
10
10
10
10
10
10
10
10
10
10
10
10
10
10
10
10
10
10
10
10
10
10
10
10
10
10
10
10
10
10
10
10
10
10
10
10
10
10
10
10
10
10
10
10
10
10
10
10
10
10
10
10
10
10
10
10
10
10
10
10
10
10
10
10
10
10
10
10
10
10
10
10
10
10
10
10
10
10
10
10
10
10
10
10
10
10
10
10
10
10
10
10
10
10
10
10
10
10
10
10
10
10
10
10
10
10
10
10
10
10
10
10
10
10
10
10
10
10
10
10
10
10
10
10
10
10
10
10
10
10
10
10
10
10
10
10
10
10
10
10
10
10
10
10
10
10
10
10
10
10
10
10
10
10
10
10
10
10
10
10
10
10
10
10
10
10
10
10
10
10
10
10
10
10
10
10
10
10
10
10
10
10
10
10
10
10
10
10
10
10
10
10
10
10
10
10
10
10
10
10
10
10
10
10
10
10
10
10
10
10
10
10
10
10
10
10
10
10
10
10
10
10
10
10
10
10
10
10
10
10
10
10
10
10
10
10
10
10
10
10
10
10
10
10
10
10
10
10
10
10
10
10
10
10
10
10
10
10
10
10
10
10
10
10
10
10
10
10
10
10
10
10
10
10
10
10
10
10
10
10
10
10
10
10
10
10
10
10
10
10
10
10
10
10
10
10
10
10
10
10
10
10
10
10
10
10
10
10
10
10
10
10
10
10
10
10
10
10
10
10
10
10
10
10
10
10
10
10
10
10
10
10
10
10
10
10
10
10
10
10
10
10
10
10
10
10
10
10
10
10
10
10
10
10
10
10
10
10
10
10
10
10
10
10
10
10
10
10
10
10
10
10
10
10
10
10
10
10
10
10
10
10
10
10
10
10
10
10
10
10
10
10
10
10
10
10
10
10
10
10
10
10
10
10
10
10
10
10
10
10
10
10
10
10
10
10
10
10
10
10
10
10
10
10
10
10
10
10
10
10
10
10
10
10
10
10
10
10
10
10
10
10
10
10
10
10
10
10
10
10
10
10
10
10
10
10
10
10
10
10
10
10
10
10
10
10
10
10
10
10
10
10
10
10
10
10
10
10
10
10
10
10
10
10
10
10
10
10
10
10
10
10
10
10
10
10
10
10
10
10
10
10
10
10
10
10
10
10
10
10
10
10
10
10
10
10
10
10
10
10
10
10
10
10
10
10
10
10
10
10
10
10
10
10
10
10
10
10
10
10
10
10
10
10
10
10
10
10
10
10
10
10
10
10
10
10
10
10
10
10
10
10
10
