# vtk DataFile Version 2.0
, Created by Gmsh 4.11.1 
ASCII
DATASET UNSTRUCTURED_GRID
POINTS 572 double
8.75 0 -44.48306890278249
17.70923938586626 0 -41.42579912541123
17.70923938586626 0 -38.57420087458877
8.75 0 -35.51693109721751
8.75 0 -3
11.75 0 -3
11.75 0 0
-11.75 0 0
-11.75 0 -3
-8.75 0 -3
-8.75 1.071565949253934e-15 -35.51693109721751
-17.70923938586626 2.168756332923536e-15 -38.57420087458877
-17.70923938586626 2.168756332923536e-15 -41.42579912541123
-8.75 1.071565949253934e-15 -44.48306890278249
-8.75 1.071565949253934e-15 -75.51693109721751
-17.70923938586626 2.168756332923536e-15 -78.57420087458877
-17.70923938586626 2.168756332923536e-15 -81.42579912541123
-8.75 1.071565949253934e-15 -84.48306890278249
-8.75 0 -120
8.75 0 -120
8.75 0 -84.48306890278249
17.70923938586626 0 -81.42579912541123
17.70923938586626 0 -78.57420087458877
8.75 0 -75.51693109721751
-8.75 12.33699113411834 -42.30767045409101
8.75 12.33699113411834 -42.30767045409101
8.75 12.33699113411833 -37.69232954590899
-8.75 12.33699113411834 -37.69232954590899
8.75 20 -3
8.75 20 -34.22871125834057
11.75 23 -3
-11.75 23 -3
-8.75 20 -3
11.75 23 0
-11.75 23 0
-8.75 20 -34.22871125834057
-8.75 20 -45.77128874165943
-8.75 20 -74.22871125834058
-8.75 12.33699113411833 -77.69232954590899
8.75 12.33699113411833 -77.69232954590899
-8.75 12.33699113411835 -82.30767045409101
8.75 12.33699113411835 -82.30767045409101
-8.75 20 -85.77128874165942
-8.75 20 -114.2287112583406
-8.75 7.231434551078368 -120
8.75 7.231434551078368 -120
8.75 20 -85.77128874165942
8.75 20 -114.2287112583406
8.75 20 -45.77128874165943
8.75 20 -74.22871125834058
4.606876424113203 3.757373570937087 -84.48306890278249
-4.606876424113202 3.757373570937087 -84.48306890278249
14.42268478062473 3.757373570937086 -81.42579912541123
-14.42268478062473 3.757373570937086 -81.42579912541123
14.42268478062473 3.757373570937086 -78.57420087458877
4.606876424113203 3.757373570937087 -75.51693109721751
-4.606876424113202 3.757373570937087 -75.51693109721751
-14.42268478062473 3.757373570937086 -78.57420087458877
4.606876424113203 3.757373570937087 -44.48306890278249
-4.606876424113202 3.757373570937087 -44.48306890278249
14.42268478062473 3.757373570937086 -41.42579912541123
-14.42268478062473 3.757373570937086 -41.42579912541123
14.42268478062473 3.757373570937086 -38.57420087458877
4.606876424113203 3.757373570937087 -35.51693109721751
-4.606876424113202 3.757373570937087 -35.51693109721751
-14.42268478062473 3.757373570937086 -38.57420087458877
13.22961969293314 0 -42.95443401409686
13.22961969293312 0 -37.04556598590314
8.75 0 -29.013544877774
8.75 0 -22.5101586583305
8.75 0 -16.006772438887
8.75 0 -9.503386219443502
5.875000000000016 0 0
3.730349362740526e-14 0 0
-5.874999999999972 0 0
-8.75 0 -9.503386219443499
-8.75 0 -16.00677243888699
-8.75 0 -22.5101586583305
-8.75 0 -29.01354487777399
-13.22961969293312 1.620161141088734e-15 -37.04556598590314
-13.22961969293314 1.620161141088736e-15 -42.95443401409686
-8.75 0 -50.68984134166949
-8.75 0 -56.89661378055646
-8.75 0 -63.10338621944348
-8.75 0 -69.31015865833049
-13.22961969293312 1.620161141088734e-15 -77.04556598590314
-13.22961969293314 1.620161141088736e-15 -82.95443401409686
-8.75 0 -90.40255741898542
-8.75 0 -96.32204593518836
-8.75 0 -102.2415344513913
-8.75 0 -108.1610229675942
-8.75 0 -114.0805114837971
2.916666666666666 0 -120
-2.916666666666668 0 -120
8.75 0 -90.40255741898542
8.75 0 -96.32204593518836
8.75 0 -102.2415344513913
8.75 0 -108.1610229675942
8.75 0 -114.0805114837971
13.22961969293314 0 -82.95443401409686
13.22961969293312 0 -77.04556598590314
8.75 0 -50.68984134166949
8.75 0 -56.89661378055646
8.75 0 -63.10338621944348
8.75 0 -69.31015865833049
16.36120380494458 6.777032512758346 -41.42579912541123
12.52232325940191 12.52232325940194 -41.42579912541123
6.7770325127583 16.3612038049446 -41.42579912541123
-6.576371990381536e-14 17.70923938586626 -41.42579912541123
-6.777032512758392 16.36120380494457 -41.42579912541123
-12.52232325940196 12.52232325940189 -41.42579912541123
-16.3612038049446 6.777032512758315 -41.42579912541123
-8.750000000000002 6.235783519396221 -43.80241044187092
-2.954649114191538 13.3978511423179 -42.78717063336259
2.954649114191561 13.3978511423179 -42.78717063336259
8.749999999999998 6.235783519396217 -43.80241044187092
16.36120380494458 6.777032512758346 -38.57420087458877
12.52232325940191 12.52232325940194 -38.57420087458877
6.7770325127583 16.3612038049446 -38.57420087458877
-6.576371990381536e-14 17.70923938586626 -38.57420087458877
-6.777032512758392 16.36120380494457 -38.57420087458877
-12.52232325940196 12.52232325940189 -38.57420087458877
-16.3612038049446 6.777032512758315 -38.57420087458877
8.749999999999998 6.235783519396218 -36.19758955812907
2.954649114191543 13.39785114231793 -37.21282936663739
-2.954649114191563 13.39785114231793 -37.21282936663739
-8.750000000000002 6.235783519396221 -36.19758955812907
8.75 6.666666666666651 -3
8.75 13.33333333333329 -3
8.75 20 -27.98296900667246
8.75 20 -21.73722675500433
8.75 20 -15.49148450333622
8.75 20 -9.245742251668098
8.75 16.16849556705917 -35.96052040212479
-5.875000000000016 23 -3
-3.730349362740526e-14 23 -3
5.874999999999972 23 -3
-11.75 5.749999999999988 -3
-11.75 11.49999999999999 -3
-11.75 17.24999999999999 -3
-8.75 13.33333333333335 -3
-8.75 6.666666666666705 -3
-2.916666666666666 20 -3
2.916666666666668 20 -3
11.75 5.749999999999988 -3
11.75 11.49999999999999 -3
11.75 17.24999999999999 -3
11.75 5.749999999999988 0
11.75 11.49999999999999 0
11.75 17.24999999999999 0
-5.875000000000016 23 0
-3.730349362740526e-14 23 0
5.874999999999972 23 0
-11.75 5.749999999999988 0
-11.75 11.49999999999999 0
-11.75 17.24999999999999 0
-8.75 20 -9.245742251668121
-8.75 20 -15.49148450333624
-8.75 20 -21.73722675500435
-8.75 20 -27.98296900667248
-8.75 16.16849556705917 -35.96052040212479
-8.75 16.16849556705917 -44.03947959787521
-8.75 20 -68.53722675500434
-8.75 20 -62.8457422516681
-8.75 20 -57.15425774833186
-8.75 20 -51.46277324499565
-8.75 16.16849556705917 -75.96052040212479
-8.750000000000002 6.23578351939622 -76.19758955812908
8.749999999999998 6.235783519396218 -76.19758955812908
2.954649114191543 13.39785114231793 -77.21282936663739
-2.954649114191563 13.39785114231793 -77.21282936663739
16.36120380494458 6.777032512758346 -78.57420087458877
12.52232325940191 12.52232325940194 -78.57420087458877
6.7770325127583 16.3612038049446 -78.57420087458877
-6.576371990381536e-14 17.70923938586626 -78.57420087458877
-6.777032512758392 16.36120380494457 -78.57420087458877
-12.52232325940196 12.52232325940189 -78.57420087458877
-16.3612038049446 6.777032512758315 -78.57420087458877
16.36120380494458 6.777032512758346 -81.42579912541123
12.52232325940191 12.52232325940194 -81.42579912541123
6.7770325127583 16.3612038049446 -81.42579912541123
-6.576371990381536e-14 17.70923938586626 -81.42579912541123
-6.777032512758392 16.36120380494457 -81.42579912541123
-12.52232325940196 12.52232325940189 -81.42579912541123
-16.3612038049446 6.777032512758315 -81.42579912541123
-8.750000000000002 6.235783519396232 -83.80241044187092
-2.954649114191554 13.39785114231792 -82.78717063336261
2.954649114191545 13.39785114231792 -82.78717063336261
8.749999999999998 6.235783519396227 -83.80241044187092
-8.75 16.16849556705917 -84.03947959787521
-8.75 20 -108.5372267550043
-8.75 20 -102.8457422516681
-8.75 20 -97.15425774833186
-8.75 20 -91.46277324499565
-8.75 13.61571727553918 -117.1143556291703
-8.75 3.615717275539183 -120
2.916666666666666 7.231434551078368 -120
-2.916666666666668 7.231434551078368 -120
8.75 3.615717275539183 -120
8.75 16.16849556705917 -84.03947959787521
8.75 20 -108.5372267550043
8.75 20 -102.8457422516681
8.75 20 -97.15425774833186
8.75 20 -91.46277324499565
8.75 13.61571727553918 -117.1143556291703
8.75 16.16849556705917 -44.03947959787521
8.75 20 -68.53722675500434
8.75 20 -62.8457422516681
8.75 20 -57.15425774833186
8.75 20 -51.46277324499565
8.75 16.16849556705917 -75.96052040212479
2.916666666666666 20 -45.77128874165943
-2.916666666666668 20 -45.77128874165943
2.916666666666666 20 -34.22871125834057
-2.916666666666668 20 -34.22871125834057
2.916666666666666 20 -74.22871125834058
-2.916666666666668 20 -74.22871125834058
2.916666666666666 20 -85.77128874165942
-2.916666666666668 20 -85.77128874165942
2.916666666666666 20 -114.2287112583406
-2.916666666666668 20 -114.2287112583406
1.35642213823848e-14 5.944843693372145 -84.48306890278249
3.552713678800501e-15 3.757373570937086 -84.48306890278249
9.533392444864136 3.757373570937086 -83.01495172253502
11.46142930115016 9.527189029696906 -81.42579912541123
6.329995087779675 13.49306690939928 -81.42579912541123
4.724380922925148e-14 14.90408307923841 -81.42579912541123
-6.329995087779589 13.49306690939932 -81.42579912541123
-11.46142930115013 9.527189029696945 -81.42579912541123
-9.533392444864127 3.757373570937086 -83.01495172253502
9.533392444864129 3.757373570937086 -76.98504827746498
-3.552713678800501e-15 3.757373570937086 -75.51693109721751
-9.533392444864136 3.757373570937086 -76.98504827746498
11.46142930115016 9.527189029696906 -78.57420087458877
6.329995087779675 13.49306690939928 -78.57420087458877
4.724380922925148e-14 14.90408307923841 -78.57420087458877
-6.329995087779589 13.49306690939932 -78.57420087458877
-11.46142930115013 9.527189029696945 -78.57420087458877
1.35642213823848e-14 5.944843693372145 -75.51693109721751
1.35642213823848e-14 5.944843693372145 -44.48306890278249
3.552713678800501e-15 3.757373570937086 -44.48306890278249
9.533392444864136 3.757373570937086 -43.01495172253502
11.46142930115016 9.527189029696906 -41.42579912541123
6.329995087779675 13.49306690939928 -41.42579912541123
4.724380922925148e-14 14.90408307923841 -41.42579912541123
-6.329995087779589 13.49306690939932 -41.42579912541123
-11.46142930115013 9.527189029696945 -41.42579912541123
-9.533392444864127 3.757373570937086 -43.01495172253502
9.533392444864129 3.757373570937086 -36.98504827746498
-3.552713678800501e-15 3.757373570937086 -35.51693109721751
-9.533392444864136 3.757373570937086 -36.98504827746498
11.46142930115016 9.527189029696906 -38.57420087458877
6.329995087779675 13.49306690939928 -38.57420087458877
4.724380922925148e-14 14.90408307923841 -38.57420087458877
-6.329995087779589 13.49306690939932 -38.57420087458877
-11.46142930115013 9.527189029696945 -38.57420087458877
1.35642213823848e-14 5.944843693372145 -35.51693109721751
-4.137226092410743 0 -87.44281316088396
4.012828504839129 0 -47.58645512222598
4.012828504839122 0 -72.413544877774
2.995409172584195 0 -30.89312106243793
2.664535259100376e-15 0 -115.6139449609801
-3.79841451703414 0 -104.2146972901256
3.374777392414764 0 -59.99999999999997
-2.814600977762871 0 -4.111903714070806
3.11790232334029 0 -19.25846554860875
3.925675063764216 0 -79.1442769598691
3.509755642382658 0 -42.05598267453134
3.623572567558008 0 -93.36230167708689
-3.780579791517233 0 -53.31553640532162
-3.374777392414749 0 -66.20677243888699
-3.117902323340291 0 -12.75507932916525
-2.44910265099288 0 -25.6218398369239
3.718460574721894 0 -5.662044193961833
-3.926627144998938 0 -80.9280913954664
2.090139332094737 0 -85.02136238524426
-2.705773382319758 0 -32.69999935980007
-3.478251880391467 0 -39.55815766401425
-2.144163076737049 0 -45.11181273773246
-2.14416307673705 0 -74.88818726226752
2.653880261430754 0 -105.060338506726
9.720815241703733 0 -40
-10.43465601077681 0 -80.15468189924439
10.52076621814954 0 -79.85737949331151
-10.44619568758741 0 -39.92635961066904
2.469626320397375 0 -54.03843835746272
3.472313068582649 0 -66.68446359467835
-3.252523065597692 0 -59.45244448993802
-3.451099225858987 0 -19.25117629771702
4.23284176898632 0 -25.45942599681501
3.52747747870582 0 -11.96644514349865
14.69683572775454 0 -79.97962564190165
15.00020551144129 0 -40
-14.6861827948171 0 -39.98947994438129
-14.72206953379566 0 -80
-3.225685708176209 0 -93.67906572688622
-0.1244412327035986 0 -99.14666393123406
-3.370212858211361 0 -110.838477102685
3.686986777484194 0 -111.4482385738925
4.837838418115524 0 -99.26741772011081
-4.929708291582789 0 -99.1208014669651
3.440918302796383 0 -36.85934918577228
-0.7476765579822731 0 -8.28185882175276
4.704628362864282 0 -88.58589037871567
-4.563048254468302 0 -115.8214214296956
4.494661553135503 0 -115.7210676572446
-4.773921467758911 0 -48.67617624799432
-4.692760987938418 0 -71.22828552084738
-5.294305480791206 0 -7.16508775769654
0.3094299146686668 0 -89.66016150947931
-0.4448644705402733 0 -49.78062185246556
-0.4448644705402875 0 -70.21937814753443
-12.94669205596768 3.846871856221519 -42.8600807074665
12.94669205596767 3.84687185622154 -42.8600807074665
12.05398873334057 8.054217773338086 -42.52187916623667
-12.05398873334059 8.054217773338054 -42.52187916623667
-17.36896131679477 3.454901214449341 -40.03450740095119
17.36896131679477 3.454901214449355 -40.03450740095118
-14.72469440633921 9.838726252205609 -40.03450740095119
3.454901214449298 17.36896131679478 -40.03450740095118
-9.838726252205676 14.72469440633916 -40.03450740095119
9.838726252205612 14.7246944063392 -39.96549259904882
-3.454901214449411 17.36896131679476 -39.96549259904882
14.72469440633918 9.83872625220565 -40.03450740095118
-13.01161379088235 3.681951477456035 -37.14551985451073
12.94669205596767 3.84687185622152 -37.13991929253349
12.05398873334056 8.054217773338086 -37.47812083376333
-12.40488043905703 7.903785874375729 -37.55034887095423
8.749999999999998 11.04668164977978 -33.25225727984107
8.749999999999998 14.8187734376796 -18.82905893564977
8.749999999999998 5.051742105698341 -12.78727430869197
8.749999999999998 5.266219967305044 -25.4378614317555
8.749999999999998 15.80957660579549 -30.86507609945881
8.749999999999998 5.313726890094364 -19.23365301827116
8.749999999999998 14.74627516187355 -12.43367852434597
8.749999999999998 15.13196990495981 -24.90726489894944
8.749999999999998 9.992649732747125 -8.473392447705315
8.749999999999998 4.923646238435576 -31.0381641017963
8.749999999999998 9.958802761578713 -15.71120264883245
8.749999999999998 10.137218851087 -21.93969014533985
8.749999999999998 4.466557118434088 -7.461161031759344
8.749999999999998 15.38244384150494 -7.493642630020203
8.749999999999998 10.34737319345785 -27.62000035879008
10.25 3.10416666666666 -3
-10.25 3.104166666666674 -3
11.75 20.125 -1.5
11.75 14.37499999999999 -1.5
11.75 8.624999999999989 -1.5
11.75 2.874999999999994 -1.5
-2.707174061168084 4.878797530676509 0
3.157610638484556 18.22886740495932 0
7.069955745470663 8.716546370640001 0
-6.619519168154188 14.39111856499582 0
7.102873022115113 14.37499999999999 0
0.1126091443291148 11.52691623390895 0
-7.000954855602265 8.644857627020135 0
-2.792058517349995 18.15992185565015 0
2.948495529093417 4.721447277005962 0
-7.528051718759414 18.81262893003678 0
7.528051718759418 4.187371069963205 0
7.820492259183636 19.07601590637069 0
-7.553981076842909 4.160878030182232 0
-11.75 20.125 -1.5
-11.75 14.37499999999999 -1.5
-11.75 8.624999999999988 -1.5
-11.75 2.874999999999994 -1.5
-8.750000000000002 12.29451368001771 -32.89263912691126
-8.750000000000002 14.8187734376796 -18.82905893564978
-8.750000000000002 4.46686316432441 -26.10293495969996
-8.750000000000002 5.05174210569835 -12.78727430869196
-8.750000000000002 4.874864801161531 -19.32067857713782
-8.750000000000002 14.48253138200623 -26.65676426529067
-8.750000000000002 14.74627516187354 -12.43367852434599
-8.750000000000002 9.992649732747166 -8.473392447705304
-8.750000000000002 8.290384499675746 -29.86925892720712
-8.750000000000002 16.58910812581662 -31.54432081186796
-8.750000000000002 9.900934295567113 -16.00677243888699
-8.750000000000002 9.472391930069104 -22.79757801731206
-8.750000000000002 4.466557118434105 -7.461161031759339
-8.750000000000002 15.38244384150494 -7.493642630020229
-8.750000000000002 3.601897519231209 -32.04958049652585
-8.750000000000002 15.67556086363166 -59.50072125473482
-8.750000000000002 12.38495357418625 -73.05650234882242
-8.750000000000002 10.36596115776746 -47.46162897325156
-8.750000000000002 4.471765191578312 -66.49185506697228
-8.750000000000002 5.375222607585221 -53.79322756111297
-8.750000000000002 16.05009238406163 -49.24113116040443
-8.750000000000002 5.364001057573775 -59.54823502608237
-8.750000000000002 11.62147024520362 -54.88566136293846
-8.750000000000002 14.66140340375751 -67.12009555901552
-8.750000000000002 16.64297050900058 -71.78061126466153
-8.750000000000002 8.367550509243326 -70.09911241125931
-8.750000000000002 10.07188799880625 -63.10338621944346
-8.750000000000002 4.395393456949781 -48.04603544413749
-8.750000000000002 3.560193342850782 -72.18176241229288
-8.750000000000002 16.66942469857938 -54.44890895428104
-13.01161379088235 3.681951477456042 -77.14551985451074
12.94669205596767 3.846871856221523 -77.13991929253349
12.05398873334056 8.054217773338088 -77.47812083376333
-12.40488043905704 7.903785874375738 -77.55034887095424
-17.36896131679477 3.454901214449349 -80.0345074009512
17.36896131679477 3.454901214449356 -80.03450740095118
-14.72469440633921 9.838726252205609 -80.03450740095118
3.454901214449301 17.36896131679478 -79.96549259904882
-9.838726252205676 14.72469440633916 -79.96549259904883
9.838726252205612 14.7246944063392 -80.03450740095118
14.72469440633918 9.83872625220565 -80.03450740095118
-3.454901214449407 17.36896131679476 -80.03450740095118
-12.94669205596768 3.846871856221509 -82.86008070746651
12.94669205596767 3.84687185622154 -82.86008070746651
12.05398873334056 8.054217773338085 -82.52187916623667
-12.05398873334059 8.054217773338056 -82.52187916623667
-8.750000000000002 14.98796523521388 -105.6099659761335
-8.750000000000002 14.46541898147413 -92.78356970972794
-8.750000000000002 8.908704354770967 -114.0865472574206
-8.750000000000002 4.702137284449489 -99.17691908571965
-8.750000000000002 12.18219760889093 -86.93608544815723
-8.750000000000002 8.256165915149159 -90.00333328791571
-8.750000000000002 4.809387297696729 -105.2656835956428
-8.750000000000002 14.81261418146489 -111.3771285498782
-8.750000000000002 14.81862430752537 -99.38798157116999
-8.750000000000002 4.503127538160181 -111.0442049403564
-8.750000000000002 9.718129051477302 -108.3798382037831
-8.750000000000002 16.58445707050629 -88.22356434340676
-8.750000000000002 9.368473605723764 -96.02600072362536
-8.750000000000002 4.043163953258116 -116.5352106135957
-8.750000000000002 9.734119463681088 -102.3077315260124
-8.750000000000002 3.53127370832787 -87.79555411745989
-8.750000000000002 3.805471245076901 -93.34289138390926
0 3.615717275539184 -120
5.165945933560927 3.615717275539184 -120
-5.165945933560927 3.615717275539184 -120
8.749999999999998 14.98796523521388 -105.6099659761335
8.749999999999998 14.46541898147413 -92.78356970972796
8.749999999999998 8.908704354770967 -114.0865472574206
8.749999999999998 4.70213728444949 -99.17691908571965
8.749999999999998 12.18219760889093 -86.93608544815723
8.749999999999998 8.256165915149159 -90.00333328791571
8.749999999999998 4.809387297696729 -105.2656835956428
8.749999999999998 14.81261418146489 -111.3771285498782
8.749999999999998 14.81862430752537 -99.38798157116999
8.749999999999998 4.503127538160181 -111.0442049403564
8.749999999999998 9.718129051477302 -108.3798382037831
8.749999999999998 16.58445707050629 -88.22356434340676
8.749999999999998 9.368473605723764 -96.02600072362536
8.749999999999998 4.043163953258116 -116.5352106135957
8.749999999999998 9.734119463681088 -102.3077315260124
8.749999999999998 3.531273708327868 -87.79555411745989
8.749999999999998 3.805471245076903 -93.34289138390926
8.749999999999998 15.67556086363166 -59.50072125473482
8.749999999999998 12.38495357418625 -73.05650234882243
8.749999999999998 10.36596115776746 -47.46162897325156
8.749999999999998 4.471765191578314 -66.49185506697228
8.749999999999998 5.375222607585221 -53.79322756111297
8.749999999999998 16.05009238406162 -49.24113116040443
8.749999999999998 5.364001057573775 -59.54823502608237
8.749999999999998 11.62147024520362 -54.88566136293846
8.749999999999998 14.66140340375751 -67.12009555901552
8.749999999999998 16.64297050900058 -71.78061126466153
8.749999999999998 8.367550509243328 -70.09911241125931
8.749999999999998 10.07188799880625 -63.10338621944346
8.749999999999998 4.395393456949779 -48.04603544413749
8.749999999999998 3.560193342850785 -72.18176241229288
8.749999999999998 16.66942469857938 -54.44890895428104
5.329070518200751e-15 16.70180567720111 -44.28053147224497
-4.902933393508068 16.63640405502298 -44.25097046578164
4.902933393508073 16.63640405502298 -44.25097046578164
-1.77635683940025e-15 16.70180567720113 -35.71946852775503
-4.902933393508082 16.63640405502299 -35.74902953421835
4.902933393508079 16.63640405502299 -35.74902953421835
-3.552713678800501e-15 20 -29.30461281694809
0 20 -7.924098441392482
3.341028544565598 20 -18.61435562917028
-3.341028544565596 20 -18.6143556291703
2.961059374430059 20 -24.55466101857414
-2.961059374430057 20 -12.67405023976643
3.739495323174509 20 -11.87744268763314
-3.739495323174512 20 -25.35126857070743
-4.831232397968236 20 -30.21925458220183
-4.557002768911528 20 -7.314925060465352
4.831232397968234 20 -7.009456676138745
4.557002768911524 20 -29.91378619787523
8.812499999999986 23 -1.5
2.937499999999966 23 -1.5
-8.812500000000007 23 -1.5
-2.937500000000027 23 -1.499999999999999
-1.954138595019232 20 -59.99999999999998
3.475745023688861 20 -54.46862918078554
3.475745023688845 20 -65.53137081921443
-3.717832007056481 20 -65.79803330134587
-3.717832007056499 20 -54.2019666986541
4.305630160298459 20 -59.99999999999999
-0.04034783056127189 20 -69.99355257248391
-0.04034783056127189 20 -50.00644742751609
-4.56911678599826 20 -70.08724439883098
-4.569116785998281 20 -49.91275560116901
4.569116785998281 20 -49.91275560116901
4.56911678599826 20 -70.08724439883098
-1.77635683940025e-15 16.70180567720113 -75.71946852775503
-4.902933393508082 16.63640405502299 -75.74902953421835
4.902933393508079 16.63640405502299 -75.74902953421835
0 16.70180567720113 -84.28053147224496
4.902933393508074 16.63640405502299 -84.25097046578163
-4.902933393508077 16.63640405502299 -84.25097046578163
3.821029834865369 20 -99.99999999999997
-3.860661719322794 20 -93.81990214983639
-2.606869564447557 20 -105.252132554106
3.880546176069346 20 -106.0542626549187
-3.492389325723222 20 -99.55621481234139
2.631059782229084 20 -93.6214859664466
0.05525807873550015 20 -109.703835911175
0.005769101706892599 20 -89.58562536568307
-4.643355402943884 20 -89.74861046570405
4.56911678599826 20 -110.087244398831
-4.593655630475745 20 -110.3901235473933
5.209540362306393 20 -88.93614396208331
-1.77635683940025e-15 11.83485533400944 -117.9192908832296
0 17.09011452190973 -115.5439560574843
-4.375 15.49404384079452 -116.2653671501918
-4.958333333333332 11.08149711049998 -118.2598027325183
5.833333333333332 10.42357591330878 -118.5571778145851
4.375 15.49404384079452 -116.2653671501918
-3.282794423155967 9.050344256249614 -83.22644971742113
3.759650746249055 8.80810197207969 -83.24364728050845
-2.240087421501931 3.757373570937086 -79.77535785996382
6.76477458738978 3.757373570937086 -79.83954132854559
11.22616936377398 3.757373570937086 -79.97707733264937
-11.1926601216957 3.757373570937086 -80
-6.745518219721166 3.757373570937086 -79.98089777720782
2.289740002352374 3.757373570937086 -79.93581653141824
3.242676535011734 14.54705266788173 -80.03712004332931
13.27506480368077 6.775274672728536 -80
9.114040941642187 11.79262270009987 -80.03712004332931
-13.25969581312558 6.805303768107686 -80.03712004332932
-9.114040941642138 11.7926227000999 -80.03712004332931
-3.209742793753301 14.55435479953644 -80
3.282794423155659 9.050344256249678 -76.77355028257885
-3.759650746249795 8.808101972079312 -76.75635271949153
-3.282794423155967 9.050344256249614 -43.22644971742114
3.759650746249057 8.808101972079688 -43.24364728050845
-2.240087421501931 3.757373570937086 -39.77535785996382
6.76477458738978 3.757373570937086 -39.83954132854559
11.22616936377398 3.757373570937086 -39.97707733264937
-6.31281965766297 3.757373570937086 -39.97707733264937
2.289740002352374 3.757373570937086 -39.93581653141824
3.24267653501174 14.54705266788173 -40.03712004332932
13.25969581312559 6.805303768107664 -40.03712004332931
9.114040941642186 11.79262270009987 -40.03712004332932
-13.25969581312557 6.805303768107692 -40.03712004332932
-9.114040941642131 11.79262270009991 -40.03712004332932
-3.209742793753301 14.55435479953644 -40
3.282794423155664 9.050344256249678 -36.77355028257885
-3.759650746249792 8.808101972079314 -36.75635271949152
0.3621170221335356 11.44862758106044 -28.96323987384532
1.77635683940025e-15 10.7202566931275 -92.66229607610894
-3.552713678800501e-15 11.14932088502555 -108.9386511488558
-0.7581390459456959 11.45006778502251 -68.88674922602854
0.931915832416742 11.45028960820649 -51.12503202127447
-0.06404644666164394 10.87169385452261 -12.25134269788798
-0.2012145351256933 8.150218856834408 -20.72013309156378
0.4345576165641092 8.356908788242922 -100.8684296133452
-0.06187706052812736 8.744039318459471 -59.99170156397822
-2.86580599250246 6.035471720292675 -50.34718080105993
-0.1708193497827852 6.462166276580226 -113.9701167215888
2.72282382436011 5.73434706824468 -90.0896342400484
2.255391329949974 13.77615089879077 -6.620453229782857
-2.715398485338497 5.718709085842629 -69.99565548786762
-2.085657731810603 6.807583374236384 -6.798961175743262
-2.769193080411649 5.832002085479739 -29.67127195562635
3.408500928477715 14.3945698448235 -89.51825586915233
3.220695822695172 13.51392587681663 -21.9434669765101
-3.349121570663913 5.953073787603106 -95.99873450496025

CELLS 3081 13533
1 0
1 1
1 2
1 3
1 4
1 5
1 6
1 7
1 8
1 9
1 10
1 11
1 12
1 13
1 14
1 15
1 16
1 17
1 18
1 19
1 20
1 21
1 22
1 23
1 24
1 25
1 26
1 27
1 28
1 29
1 30
1 31
1 32
1 33
1 34
1 35
1 36
1 37
1 38
1 39
1 40
1 41
1 42
1 43
1 44
1 45
1 46
1 47
1 48
1 49
1 50
1 51
1 52
1 53
1 54
1 55
1 56
1 57
1 58
1 59
1 60
1 61
1 62
1 63
1 64
1 65
2 0 66
2 66 1
2 1 2
2 2 67
2 67 3
2 3 68
2 68 69
2 69 70
2 70 71
2 71 4
2 4 5
2 5 6
2 6 72
2 72 73
2 73 74
2 74 7
2 8 7
2 8 9
2 9 75
2 75 76
2 76 77
2 77 78
2 78 10
2 11 79
2 79 10
2 12 11
2 13 80
2 80 12
2 13 81
2 81 82
2 82 83
2 83 84
2 84 14
2 15 85
2 85 14
2 16 15
2 17 86
2 86 16
2 17 87
2 87 88
2 88 89
2 89 90
2 90 91
2 91 18
2 19 92
2 92 93
2 93 18
2 20 94
2 94 95
2 95 96
2 96 97
2 97 98
2 98 19
2 20 99
2 99 21
2 21 22
2 22 100
2 100 23
2 0 101
2 101 102
2 102 103
2 103 104
2 104 23
2 1 105
2 105 106
2 106 107
2 107 108
2 108 109
2 109 110
2 110 111
2 111 12
2 24 112
2 112 13
2 24 113
2 113 114
2 114 25
2 25 115
2 115 0
2 2 116
2 116 117
2 117 118
2 118 119
2 119 120
2 120 121
2 121 122
2 122 11
2 3 123
2 123 26
2 26 124
2 124 125
2 125 27
2 10 126
2 126 27
2 4 127
2 127 128
2 128 28
2 29 129
2 129 130
2 130 131
2 131 132
2 132 28
2 26 133
2 133 29
2 31 134
2 134 135
2 135 136
2 136 30
2 8 137
2 137 138
2 138 139
2 139 31
2 32 140
2 140 141
2 141 9
2 32 142
2 142 143
2 143 28
2 5 144
2 144 145
2 145 146
2 146 30
2 6 147
2 147 148
2 148 149
2 149 33
2 30 33
2 34 150
2 150 151
2 151 152
2 152 33
2 7 153
2 153 154
2 154 155
2 155 34
2 31 34
2 32 156
2 156 157
2 157 158
2 158 159
2 159 35
2 27 160
2 160 35
2 36 161
2 161 24
2 37 162
2 162 163
2 163 164
2 164 165
2 165 36
2 38 166
2 166 37
2 14 167
2 167 38
2 23 168
2 168 39
2 39 169
2 169 170
2 170 38
2 22 171
2 171 172
2 172 173
2 173 174
2 174 175
2 175 176
2 176 177
2 177 15
2 21 178
2 178 179
2 179 180
2 180 181
2 181 182
2 182 183
2 183 184
2 184 16
2 40 185
2 185 17
2 40 186
2 186 187
2 187 41
2 41 188
2 188 20
2 42 189
2 189 40
2 43 190
2 190 191
2 191 192
2 192 193
2 193 42
2 44 194
2 194 43
2 18 195
2 195 44
2 45 196
2 196 197
2 197 44
2 19 198
2 198 45
2 46 199
2 199 41
2 47 200
2 200 201
2 201 202
2 202 203
2 203 46
2 45 204
2 204 47
2 48 205
2 205 25
2 49 206
2 206 207
2 207 208
2 208 209
2 209 48
2 39 210
2 210 49
2 48 211
2 211 212
2 212 36
2 29 213
2 213 214
2 214 35
2 49 215
2 215 216
2 216 37
2 46 217
2 217 218
2 218 42
2 47 219
2 219 220
2 220 43
2 50 221
2 221 51
2 51 222
2 222 50
2 50 223
2 223 52
2 52 224
2 224 225
2 225 226
2 226 227
2 227 228
2 228 53
2 53 229
2 229 51
2 52 54
2 54 230
2 230 55
2 55 231
2 231 56
2 56 232
2 232 57
2 53 57
2 54 233
2 233 234
2 234 235
2 235 236
2 236 237
2 237 57
2 55 238
2 238 56
2 58 239
2 239 59
2 59 240
2 240 58
2 58 241
2 241 60
2 60 242
2 242 243
2 243 244
2 244 245
2 245 246
2 246 61
2 61 247
2 247 59
2 60 62
2 62 248
2 248 63
2 63 249
2 249 64
2 64 250
2 250 65
2 61 65
2 62 251
2 251 252
2 252 253
2 253 254
2 254 255
2 255 65
2 63 256
2 256 64
3 66 281 0
3 0 258 101
3 0 267 258
3 0 281 267
3 2 292 1
3 1 292 66
3 67 292 2
3 3 281 67
3 68 260 3
3 260 301 3
3 3 301 281
3 5 6 4
3 4 6 72
3 4 273 71
3 72 273 4
3 8 9 7
3 7 9 74
3 9 264 74
3 75 308 9
3 9 308 264
3 10 276 78
3 79 284 10
3 10 277 276
3 10 284 277
3 12 293 11
3 11 293 79
3 80 293 12
3 13 284 80
3 81 306 13
3 13 278 277
3 277 284 13
3 13 306 278
3 14 307 84
3 85 282 14
3 274 279 14
3 14 282 274
3 279 307 14
3 16 294 15
3 15 294 85
3 86 294 16
3 17 282 86
3 87 257 17
3 257 274 17
3 274 282 17
3 18 304 91
3 93 304 18
3 19 305 92
3 98 305 19
3 20 303 94
3 99 283 20
3 266 275 20
3 20 283 266
3 275 303 20
3 22 291 21
3 21 291 99
3 100 291 22
3 23 283 100
3 104 259 23
3 259 266 23
3 266 283 23
3 66 292 281
3 281 292 67
3 69 289 68
3 68 289 260
3 70 265 69
3 265 289 69
3 71 290 70
3 70 290 265
3 273 290 71
3 73 273 72
3 74 264 73
3 264 273 73
3 76 271 75
3 271 308 75
3 77 288 76
3 76 288 271
3 78 272 77
3 272 288 77
3 78 276 272
3 79 293 284
3 284 293 80
3 82 269 81
3 269 306 81
3 83 287 82
3 82 287 269
3 84 270 83
3 270 287 83
3 84 307 270
3 85 294 282
3 282 294 86
3 88 295 87
3 87 295 257
3 89 300 88
3 88 300 295
3 90 262 89
3 262 300 89
3 91 297 90
3 90 297 262
3 91 304 297
3 92 261 93
3 92 305 261
3 261 304 93
3 94 268 95
3 94 303 268
3 95 299 96
3 268 299 95
3 96 280 97
3 96 299 280
3 97 298 98
3 280 298 97
3 298 305 98
3 99 291 283
3 283 291 100
3 101 285 102
3 258 285 101
3 102 263 103
3 102 285 263
3 103 286 104
3 263 286 103
3 104 286 259
3 257 275 274
3 257 309 275
3 295 309 257
3 267 278 258
3 278 310 258
3 258 310 285
3 259 279 266
3 259 311 279
3 286 311 259
3 272 276 260
3 260 289 272
3 276 301 260
3 261 298 297
3 297 304 261
3 261 305 298
3 280 296 262
3 262 297 280
3 296 300 262
3 270 286 263
3 263 287 270
3 285 287 263
3 264 302 273
3 264 308 302
3 271 288 265
3 265 290 271
3 265 288 272
3 272 289 265
3 274 275 266
3 266 279 274
3 277 278 267
3 267 301 277
3 281 301 267
3 295 296 268
3 268 309 295
3 296 299 268
3 303 309 268
3 269 287 285
3 285 310 269
3 269 310 306
3 270 311 286
3 307 311 270
3 290 302 271
3 302 308 271
3 273 302 290
3 275 309 303
3 277 301 276
3 306 310 278
3 279 311 307
3 280 299 296
3 297 298 280
3 295 300 296
3 0 313 66
3 115 313 0
3 66 313 1
3 1 313 105
3 12 312 80
3 111 312 12
3 80 312 13
3 13 312 112
3 109 24 110
3 113 24 109
3 24 315 110
3 112 315 24
3 106 25 107
3 106 314 25
3 114 107 25
3 25 314 115
3 105 314 106
3 313 314 105
3 108 107 114
3 109 108 113
3 113 108 114
3 110 315 111
3 111 315 312
3 312 315 112
3 115 314 313
3 1 317 2
3 105 317 1
3 2 317 116
3 11 316 12
3 122 316 11
3 12 316 111
3 106 323 105
3 116 317 105
3 105 323 116
3 107 321 106
3 106 321 117
3 117 323 106
3 108 319 107
3 107 319 118
3 118 321 107
3 109 322 108
3 119 319 108
3 108 322 119
3 110 320 109
3 109 320 120
3 120 322 109
3 111 318 110
3 110 318 121
3 121 320 110
3 111 316 122
3 122 318 111
3 116 323 117
3 117 321 118
3 118 319 119
3 119 322 120
3 120 320 121
3 121 318 122
3 2 325 67
3 116 325 2
3 67 325 3
3 3 325 123
3 10 324 79
3 126 324 10
3 79 324 11
3 11 324 122
3 117 118 26
3 26 326 117
3 26 118 124
3 123 326 26
3 120 121 27
3 120 27 125
3 121 327 27
3 27 327 126
3 117 326 116
3 116 326 325
3 124 118 119
3 120 125 119
3 124 119 125
3 122 327 121
3 324 327 122
3 325 326 123
3 126 327 324
3 3 337 68
3 123 337 3
3 71 340 4
3 4 340 127
3 26 328 123
3 133 328 26
3 128 341 28
3 28 341 132
3 129 332 29
3 29 332 133
3 68 331 69
3 68 337 331
3 69 333 70
3 331 333 69
3 70 330 71
3 70 333 330
3 330 340 71
3 328 337 123
3 127 336 128
3 127 340 336
3 336 341 128
3 130 335 129
3 129 335 332
3 131 329 130
3 329 335 130
3 132 334 131
3 131 334 329
3 132 341 334
3 133 332 328
3 332 342 328
3 328 342 337
3 334 338 329
3 329 339 335
3 338 339 329
3 333 338 330
3 330 338 336
3 336 340 330
3 331 339 333
3 337 342 331
3 331 342 339
3 335 342 332
3 333 339 338
3 336 338 334
3 334 341 336
3 339 342 335
3 5 4 343
3 4 127 343
3 144 5 343
3 9 8 344
3 8 137 344
3 141 9 344
3 30 28 136
3 146 28 30
3 128 28 146
3 28 143 136
3 31 134 32
3 31 32 139
3 134 142 32
3 139 32 140
3 128 145 127
3 127 145 144
3 127 144 343
3 145 128 146
3 142 134 135
3 143 135 136
3 143 142 135
3 137 138 141
3 137 141 344
3 138 139 140
3 138 140 141
3 5 348 6
3 144 348 5
3 6 348 147
3 33 345 30
3 30 345 146
3 149 345 33
3 145 347 144
3 144 347 147
3 147 348 144
3 146 346 145
3 145 346 148
3 148 347 145
3 146 345 149
3 149 346 146
3 147 347 148
3 148 346 149
3 6 359 72
3 147 359 6
3 74 361 7
3 7 361 153
3 33 360 149
3 152 360 33
3 34 358 150
3 155 358 34
3 72 357 73
3 72 359 357
3 73 349 74
3 73 357 349
3 349 361 74
3 148 351 147
3 351 359 147
3 149 353 148
3 148 353 351
3 149 360 353
3 150 356 151
3 150 358 356
3 151 350 152
3 151 356 350
3 350 360 152
3 153 355 154
3 153 361 355
3 154 352 155
3 154 355 352
3 352 358 155
3 354 355 349
3 349 357 354
3 355 361 349
3 350 354 353
3 353 360 350
3 350 356 354
3 353 354 351
3 354 357 351
3 357 359 351
3 352 355 354
3 354 356 352
3 356 358 352
3 8 7 365
3 7 153 365
3 137 8 365
3 34 31 362
3 31 139 362
3 155 34 362
3 138 137 364
3 137 153 364
3 153 137 365
3 139 138 363
3 138 154 363
3 154 138 364
3 139 155 362
3 155 139 363
3 153 154 364
3 154 155 363
3 75 9 378
3 9 141 378
3 10 78 380
3 126 10 380
3 27 126 366
3 160 27 366
3 140 32 379
3 32 156 379
3 159 35 375
3 35 160 375
3 76 75 369
3 369 75 378
3 77 76 370
3 76 369 370
3 78 77 368
3 368 77 370
3 78 368 380
3 366 126 374
3 374 126 380
3 141 140 373
3 373 140 379
3 141 373 378
3 156 157 372
3 156 372 379
3 157 158 367
3 157 367 372
3 158 159 371
3 367 158 371
3 371 159 375
3 160 366 375
3 371 366 374
3 366 371 375
3 367 371 377
3 372 367 376
3 376 367 377
3 368 370 377
3 374 368 377
3 368 374 380
3 370 369 376
3 369 373 376
3 373 369 378
3 370 376 377
3 371 374 377
3 373 372 376
3 372 373 379
3 81 13 393
3 13 112 393
3 14 84 394
3 167 14 394
3 112 24 383
3 24 161 383
3 161 36 386
3 36 165 386
3 162 37 390
3 37 166 390
3 166 38 382
3 38 167 382
3 82 81 385
3 385 81 393
3 83 82 387
3 82 385 387
3 84 83 384
3 384 83 387
3 84 384 394
3 112 383 393
3 383 161 386
3 163 162 389
3 389 162 390
3 164 163 381
3 381 163 389
3 165 164 395
3 164 381 395
3 386 165 395
3 166 382 390
3 382 167 391
3 391 167 394
3 388 381 392
3 381 388 395
3 381 389 392
3 382 389 390
3 389 382 391
3 385 383 388
3 383 385 393
3 383 386 388
3 384 387 392
3 391 384 392
3 384 391 394
3 387 385 388
3 388 386 395
3 387 388 392
3 389 391 392
3 14 396 85
3 167 396 14
3 85 396 15
3 15 396 177
3 22 397 100
3 171 397 22
3 100 397 23
3 23 397 168
3 38 399 167
3 175 38 170
3 175 176 38
3 176 399 38
3 168 398 39
3 39 173 169
3 172 173 39
3 39 398 172
3 167 399 396
3 397 398 168
3 169 174 170
3 169 173 174
3 175 170 174
3 172 398 171
3 171 398 397
3 177 399 176
3 396 399 177
3 15 400 16
3 177 400 15
3 16 400 184
3 21 401 22
3 178 401 21
3 22 401 171
3 171 406 172
3 171 401 178
3 178 406 171
3 172 405 173
3 179 405 172
3 172 406 179
3 173 403 174
3 180 403 173
3 173 405 180
3 174 407 175
3 174 403 181
3 181 407 174
3 175 404 176
3 182 404 175
3 175 407 182
3 176 402 177
3 183 402 176
3 176 404 183
3 184 400 177
3 177 402 184
3 179 406 178
3 180 405 179
3 181 403 180
3 182 407 181
3 183 404 182
3 184 402 183
3 16 408 86
3 184 408 16
3 86 408 17
3 17 408 185
3 20 409 99
3 188 409 20
3 99 409 21
3 21 409 178
3 182 40 183
3 186 40 182
3 40 411 183
3 185 411 40
3 179 41 180
3 179 410 41
3 187 180 41
3 41 410 188
3 178 410 179
3 409 410 178
3 181 180 187
3 182 181 186
3 186 181 187
3 183 411 184
3 184 411 408
3 408 411 185
3 188 410 409
3 87 17 427
3 17 185 427
3 18 91 425
3 195 18 425
3 185 40 416
3 40 189 416
3 189 42 423
3 42 193 423
3 190 43 419
3 43 194 419
3 194 44 414
3 44 195 425
3 414 44 425
3 88 87 428
3 87 427 428
3 89 88 415
3 415 88 428
3 90 89 418
3 89 415 418
3 91 90 421
3 90 418 421
3 91 421 425
3 185 416 417
3 185 417 427
3 416 189 423
3 191 190 412
3 412 190 419
3 192 191 420
3 191 412 420
3 193 192 413
3 413 192 420
3 193 413 423
3 194 414 419
3 412 419 422
3 420 412 426
3 412 422 426
3 416 413 417
3 413 416 423
3 417 413 424
3 413 420 424
3 419 414 422
3 414 421 422
3 421 414 425
3 418 415 426
3 415 424 426
3 424 415 428
3 417 424 428
3 427 417 428
3 421 418 422
3 422 418 426
3 424 420 426
3 18 431 93
3 195 431 18
3 92 430 19
3 19 430 198
3 44 431 195
3 197 431 44
3 45 430 196
3 198 430 45
3 93 429 92
3 429 430 92
3 93 431 429
3 196 429 197
3 196 430 429
3 429 431 197
3 19 445 98
3 198 445 19
3 94 447 20
3 20 447 188
3 188 436 41
3 41 436 199
3 45 445 198
3 204 434 45
3 434 445 45
3 199 443 46
3 46 443 203
3 200 439 47
3 47 439 204
3 95 448 94
3 94 448 447
3 96 435 95
3 435 448 95
3 97 438 96
3 96 438 435
3 98 441 97
3 97 441 438
3 98 445 441
3 188 437 436
3 188 447 437
3 436 443 199
3 201 432 200
3 432 439 200
3 202 440 201
3 201 440 432
3 203 433 202
3 433 440 202
3 203 443 433
3 204 439 434
3 432 442 439
3 440 446 432
3 432 446 442
3 436 437 433
3 433 443 436
3 437 444 433
3 433 444 440
3 439 442 434
3 434 442 441
3 441 445 434
3 438 446 435
3 435 446 444
3 444 448 435
3 437 448 444
3 447 448 437
3 441 442 438
3 442 446 438
3 444 446 440
3 101 461 0
3 0 461 115
3 23 462 104
3 168 462 23
3 115 451 25
3 25 451 205
3 39 450 168
3 210 450 39
3 205 454 48
3 48 454 209
3 206 458 49
3 49 458 210
3 102 453 101
3 453 461 101
3 103 455 102
3 102 455 453
3 104 452 103
3 452 455 103
3 104 462 452
3 115 461 451
3 450 459 168
3 459 462 168
3 451 454 205
3 207 457 206
3 457 458 206
3 208 449 207
3 449 457 207
3 209 463 208
3 208 463 449
3 454 463 209
3 210 458 450
3 456 460 449
3 449 463 456
3 449 460 457
3 450 458 457
3 457 459 450
3 453 456 451
3 451 461 453
3 451 456 454
3 452 460 455
3 459 460 452
3 452 462 459
3 455 456 453
3 456 463 454
3 455 460 456
3 457 460 459
3 113 465 24
3 24 465 161
3 25 466 114
3 205 466 25
3 161 465 36
3 36 465 212
3 48 466 205
3 211 466 48
3 114 464 113
3 464 465 113
3 114 466 464
3 212 464 211
3 464 466 211
3 212 465 464
3 124 469 26
3 26 469 133
3 27 468 125
3 160 468 27
3 133 469 29
3 29 469 213
3 35 468 160
3 214 468 35
3 125 467 124
3 467 469 124
3 125 468 467
3 213 467 214
3 213 469 467
3 467 468 214
3 132 480 28
3 28 480 143
3 29 481 129
3 213 481 29
3 142 479 32
3 32 479 156
3 159 478 35
3 35 478 214
3 129 474 130
3 129 481 474
3 130 472 131
3 130 474 472
3 131 476 132
3 472 476 131
3 476 480 132
3 143 471 142
3 471 479 142
3 143 480 471
3 156 475 157
3 156 479 475
3 157 473 158
3 157 475 473
3 158 477 159
3 473 477 158
3 477 478 159
3 214 470 213
3 470 481 213
3 214 478 470
3 470 477 474
3 474 481 470
3 470 478 477
3 471 476 475
3 475 479 471
3 471 480 476
3 472 474 473
3 473 475 472
3 475 476 472
3 474 477 473
3 30 482 33
3 136 482 30
3 34 484 31
3 31 484 134
3 33 482 152
3 150 484 34
3 134 485 135
3 134 484 150
3 150 485 134
3 135 483 136
3 151 483 135
3 135 485 151
3 152 482 136
3 136 483 152
3 151 485 150
3 152 483 151
3 36 495 165
3 212 495 36
3 162 494 37
3 37 494 216
3 209 496 48
3 48 496 211
3 49 497 206
3 215 497 49
3 163 489 162
3 489 494 162
3 164 486 163
3 486 489 163
3 165 490 164
3 164 490 486
3 165 495 490
3 206 488 207
3 206 497 488
3 207 491 208
3 488 491 207
3 208 487 209
3 208 491 487
3 487 496 209
3 211 493 212
3 211 496 493
3 493 495 212
3 216 492 215
3 492 497 215
3 216 494 492
3 486 490 487
3 487 491 486
3 488 489 486
3 486 491 488
3 490 493 487
3 493 496 487
3 488 492 489
3 488 497 492
3 492 494 489
3 490 495 493
3 37 499 166
3 216 499 37
3 166 499 38
3 38 499 170
3 169 500 39
3 39 500 210
3 210 500 49
3 49 500 215
3 170 498 169
3 498 500 169
3 170 499 498
3 215 498 216
3 215 500 498
3 498 499 216
3 186 503 40
3 40 503 189
3 41 502 187
3 199 502 41
3 189 503 42
3 42 503 218
3 46 502 199
3 217 502 46
3 187 501 186
3 501 503 186
3 187 502 501
3 218 501 217
3 501 502 217
3 218 503 501
3 42 512 193
3 218 512 42
3 190 514 43
3 43 514 220
3 203 515 46
3 46 515 217
3 47 513 200
3 219 513 47
3 191 506 190
3 506 514 190
3 192 508 191
3 191 508 506
3 193 505 192
3 505 508 192
3 193 512 505
3 200 507 201
3 200 513 507
3 201 504 202
3 201 507 504
3 202 509 203
3 504 509 202
3 509 515 203
3 217 511 218
3 217 515 511
3 511 512 218
3 220 510 219
3 510 513 219
3 220 514 510
3 504 507 506
3 506 508 504
3 508 509 504
3 505 509 508
3 505 511 509
3 505 512 511
3 507 510 506
3 510 514 506
3 507 513 510
3 511 515 509
3 43 518 194
3 220 518 43
3 194 519 44
3 44 519 197
3 196 520 45
3 45 520 204
3 204 521 47
3 47 521 219
3 518 519 194
3 197 516 196
3 516 520 196
3 197 519 516
3 520 521 204
3 219 517 220
3 219 521 517
3 517 518 220
3 516 518 517
3 517 521 516
3 516 519 518
3 516 521 520
3 221 222 50
3 222 221 51
3 221 50 523
3 50 223 523
3 51 221 522
3 229 51 522
3 52 224 223
3 228 53 229
3 522 221 523
3 223 224 523
3 224 225 523
3 225 226 523
3 226 227 522
3 226 522 523
3 227 228 522
3 228 229 522
3 222 529 50
3 50 525 223
3 50 529 525
3 51 524 222
3 229 528 51
3 51 528 524
3 52 526 54
3 223 526 52
3 57 527 53
3 53 527 229
3 54 526 230
3 230 525 55
3 55 529 231
3 525 529 55
3 231 524 56
3 56 528 232
3 524 528 56
3 232 527 57
3 524 529 222
3 525 526 223
3 527 528 229
3 230 526 525
3 231 529 524
3 232 528 527
3 52 54 531
3 224 52 531
3 57 53 533
3 53 228 533
3 54 233 531
3 237 57 533
3 225 224 532
3 233 224 531
3 224 233 532
3 226 225 530
3 225 234 530
3 234 225 532
3 227 226 535
3 235 226 530
3 226 235 535
3 228 227 534
3 227 236 534
3 236 227 535
3 228 237 533
3 237 228 534
3 233 234 532
3 234 235 530
3 235 236 535
3 236 237 534
3 54 230 233
3 230 55 536
3 55 238 536
3 56 232 537
3 238 56 537
3 237 232 57
3 233 230 536
3 232 237 537
3 234 233 536
3 235 234 536
3 236 235 537
3 235 536 537
3 237 236 537
3 536 238 537
3 231 238 55
3 238 231 56
3 239 240 58
3 239 59 240
3 239 58 539
3 58 241 539
3 59 239 538
3 247 59 538
3 60 242 241
3 246 61 247
3 538 239 539
3 241 242 539
3 242 243 539
3 243 244 539
3 244 245 538
3 244 538 539
3 245 246 538
3 246 247 538
3 240 544 58
3 58 541 241
3 58 544 541
3 59 540 240
3 247 543 59
3 59 543 540
3 60 542 62
3 241 542 60
3 65 250 61
3 61 250 247
3 62 542 248
3 248 541 63
3 63 544 249
3 541 544 63
3 249 540 64
3 64 543 250
3 540 543 64
3 540 544 240
3 541 542 241
3 250 543 247
3 248 542 541
3 249 544 540
3 60 62 546
3 242 60 546
3 65 61 548
3 61 246 548
3 62 251 546
3 255 65 548
3 243 242 547
3 251 242 546
3 242 251 547
3 244 243 545
3 243 252 545
3 252 243 547
3 245 244 550
3 253 244 545
3 244 253 550
3 246 245 549
3 245 254 549
3 254 245 550
3 246 255 548
3 255 246 549
3 251 252 547
3 252 253 545
3 253 254 550
3 254 255 549
3 62 248 251
3 248 63 551
3 63 256 551
3 64 250 552
3 256 64 552
3 255 250 65
3 251 248 551
3 250 255 552
3 252 251 551
3 253 252 551
3 254 253 552
3 253 551 552
3 255 254 552
3 551 256 552
3 249 256 63
3 256 249 64
4 512 503 423 554
4 432 507 555 560
4 501 512 511 569
4 113 114 108 244
4 186 187 181 226
4 169 170 174 235
4 124 125 119 253
4 412 420 426 560
4 58 461 258 562
4 442 441 438 555
4 221 51 417 564
4 58 557 461 562
4 239 557 58 562
4 262 555 418 560
4 63 553 256 568
4 427 51 257 571
4 55 459 238 566
4 330 290 558 559
4 427 417 51 571
4 105 1 60 313
4 116 62 2 325
4 171 54 22 397
4 178 21 52 409
4 16 53 408 184
4 55 459 259 462
4 503 416 423 554
4 412 426 555 560
4 432 504 507 560
4 312 12 61 111
4 422 426 418 555
4 441 280 438 555
4 331 289 559 568
4 298 555 441 563
4 458 497 500 556
4 432 446 440 560
4 413 512 423 554
4 444 435 448 564
4 506 555 507 560
4 369 288 370 559
4 330 340 558 567
4 435 299 268 560
4 488 449 491 561
4 331 559 553 568
4 412 555 506 560
4 435 268 448 564
4 396 57 15 177
4 324 65 11 122
4 379 479 142 565
4 444 560 435 564
4 504 432 440 560
4 420 554 424 560
4 338 333 330 559
4 330 290 340 567
4 493 464 495 557
4 459 55 259 566
4 262 297 418 555
4 337 331 553 568
4 449 487 491 561
4 435 560 268 564
4 55 238 231 566
4 426 418 555 560
4 490 486 557 561
4 338 330 558 559
4 465 495 464 557
4 488 491 486 561
4 468 478 375 553
4 487 486 491 561
4 221 417 554 564
4 504 440 554 560
4 489 392 556 561
4 551 248 123 63
4 538 247 112 59
4 498 497 492 556
4 113 109 24 245
4 114 25 107 243
4 39 169 173 234
4 26 124 118 252
4 186 182 40 227
4 175 170 38 236
4 120 125 27 254
4 187 41 180 225
4 417 564 51 571
4 221 222 51 564
4 140 379 142 565
4 441 298 280 555
4 477 367 371 570
4 420 508 554 560
4 257 51 564 571
4 438 446 442 560
4 486 381 489 561
4 432 555 446 560
4 371 559 553 570
4 286 259 459 462
4 371 553 477 570
4 444 554 440 560
4 498 500 497 556
4 467 470 478 553
4 413 420 505 554
4 438 442 555 560
4 449 557 487 561
4 258 461 285 562
4 367 559 371 570
4 468 467 478 553
4 487 557 486 561
4 63 337 553 568
4 458 500 450 556
4 503 186 416 554
4 330 558 290 567
4 238 459 556 566
4 381 486 490 561
4 522 229 185 51
4 337 260 331 568
4 488 556 460 561
4 423 416 413 554
4 506 507 504 560
4 339 342 331 570
4 452 286 459 462
4 331 260 289 568
4 424 560 554 571
4 536 230 168 55
4 392 489 381 561
4 369 376 558 559
4 280 555 262 560
4 330 340 336 558
4 428 427 257 571
4 367 377 371 559
4 379 565 140 567
4 453 461 557 562
4 379 558 479 565
4 342 553 331 559
4 449 456 557 561
4 336 558 340 567
4 459 259 286 566
4 265 330 333 559
4 479 558 471 565
4 438 555 280 560
4 412 426 422 555
4 442 446 432 555
4 460 556 452 561
4 214 478 467 470
4 257 309 295 564
4 428 417 427 571
4 457 497 458 556
4 330 265 290 559
4 517 510 514 555
4 420 424 426 560
4 331 342 337 553
4 508 505 420 554
4 369 370 376 559
4 336 340 127 567
4 342 559 331 570
4 508 504 554 560
4 465 464 113 557
4 339 331 559 570
4 467 468 478 214
4 240 258 310 562
4 142 352 140 565
4 395 490 386 557
4 513 510 517 555
4 296 268 299 560
4 369 558 271 559
4 377 553 371 559
4 413 424 420 554
4 488 460 449 561
4 488 457 460 556
4 418 415 262 560
4 334 329 338 558
4 389 489 392 556
4 310 258 285 562
4 239 539 58 557
4 63 260 337 568
4 268 564 560 571
4 178 52 21 401
4 105 60 1 317
4 53 16 400 184
4 446 555 442 560
4 412 419 514 555
4 300 262 415 560
4 444 554 560 564
4 334 472 329 558
4 256 260 63 568
4 63 551 256 553
4 343 348 5 144
4 344 137 8 365
4 435 438 299 560
4 271 558 290 559
4 369 271 288 559
4 494 498 492 556
4 498 169 500 556
4 316 61 12 111
4 490 486 487 557
4 241 539 115 58
4 470 467 481 553
4 521 516 520 563
4 366 468 375 553
4 496 464 493 557
4 501 512 218 511
4 553 559 342 570
4 418 426 415 560
4 499 494 390 556
4 521 520 434 563
4 467 469 481 553
4 461 58 539 557
4 465 386 495 557
4 298 280 555 563
4 453 285 461 562
4 336 127 565 567
4 262 280 297 555
4 55 231 259 566
4 513 439 432 555
4 333 331 289 559
4 257 51 222 564
4 414 519 518 555
4 493 212 495 464
4 494 216 492 498
4 513 432 507 555
4 498 494 499 556
4 290 273 340 567
4 329 338 558 570
4 496 211 493 464
4 497 498 492 215
4 467 213 481 469
4 417 522 51 221
4 477 473 367 570
4 257 222 309 564
4 495 386 490 557
4 503 512 218 501
4 496 466 464 557
4 385 269 561 562
4 478 371 375 553
4 470 467 213 481
4 223 523 188 50
4 379 140 373 567
4 554 564 417 571
4 518 517 514 555
4 465 495 212 464
4 211 496 466 464
4 216 494 499 498
4 497 500 498 215
4 296 268 560 571
4 300 560 415 571
4 329 558 472 570
4 481 332 335 553
4 422 421 414 563
4 127 357 565 567
4 269 285 561 562
4 63 256 249 260
4 334 476 472 558
4 259 311 286 566
4 367 558 376 559
4 250 552 126 64
4 513 517 521 555
4 232 537 167 56
4 457 458 450 556
4 413 505 512 554
4 478 470 477 553
4 450 500 169 556
4 467 468 125 553
4 116 2 62 317
4 171 22 54 401
4 316 11 65 122
4 400 15 57 177
4 238 459 55 536
4 389 392 489 381
4 522 221 417 554
4 257 295 428 571
4 440 509 504 554
4 140 565 354 567
4 519 516 518 555
4 519 555 414 563
4 514 419 518 555
4 113 383 465 557
4 297 555 280 563
4 403 226 180 530
4 459 452 460 556
4 535 226 182 407
4 395 386 388 557
4 521 434 555 563
4 290 302 273 567
4 521 555 516 563
4 352 142 356 565
4 186 501 187 569
4 513 521 439 555
4 231 311 259 566
4 295 257 564 571
4 513 507 510 555
4 434 439 521 555
4 518 419 414 555
4 238 459 536 556
4 475 471 479 558
4 441 445 305 563
4 504 508 506 560
4 244 322 109 550
4 235 535 175 407
4 446 444 440 560
4 475 479 379 558
4 385 269 287 561
4 342 328 337 553
4 414 419 422 555
4 434 442 439 555
4 63 337 551 553
4 519 516 555 563
4 463 454 496 557
4 560 564 554 571
4 357 351 127 565
4 196 430 445 563
4 372 367 473 558
4 490 493 495 557
4 332 481 469 553
4 426 560 424 571
4 339 331 333 559
4 286 270 561 566
4 553 559 377 568
4 506 412 514 555
4 125 468 366 553
4 464 114 113 557
4 263 452 286 561
4 336 565 558 567
4 430 305 445 563
4 499 390 382 556
4 269 285 287 561
4 379 372 475 558
4 422 414 555 563
4 384 392 561 566
4 488 457 449 460
4 498 170 169 556
4 352 354 140 565
4 425 421 304 563
4 372 376 367 558
4 338 559 558 570
4 469 467 124 553
4 441 434 445 563
4 328 469 124 553
4 219 510 517 513
4 508 509 505 554
4 439 442 432 555
4 419 412 422 555
4 388 561 557 562
4 249 260 256 568
4 463 496 487 557
4 186 522 416 554
4 478 477 371 553
4 465 383 386 557
4 438 435 446 560
4 509 508 504 554
4 125 124 467 553
4 170 498 499 556
4 270 384 561 566
4 479 471 142 565
4 517 219 513 521
4 328 332 469 553
4 375 371 366 553
4 335 332 342 553
4 434 196 445 563
4 466 114 464 557
4 556 561 392 566
4 431 197 425 563
4 372 473 475 558
4 514 517 220 510
4 374 553 377 568
4 272 559 289 568
4 497 488 492 556
4 438 280 299 560
4 271 290 265 559
4 522 221 554 569
4 372 379 373 558
4 494 389 390 556
4 506 514 510 555
4 9 141 344 361
4 431 425 304 563
4 473 472 558 570
4 127 4 343 359
4 226 180 530 225
4 300 296 262 560
4 517 518 514 220
4 302 290 271 567
4 368 377 559 568
4 453 557 456 561
4 369 271 558 567
4 357 354 565 567
4 520 434 196 445
4 476 471 558 565
4 474 481 335 553
4 290 558 271 567
4 425 414 421 563
4 506 510 507 555
4 339 333 338 559
4 455 452 263 561
4 368 377 370 559
4 226 182 407 181
4 337 328 551 553
4 384 387 270 561
4 460 452 455 561
4 245 244 109 550
4 227 226 182 535
4 254 253 550 120
4 236 235 535 175
4 476 558 334 565
4 497 457 488 556
4 426 415 560 571
4 285 453 455 561
4 399 232 57 237
4 250 65 327 255
4 333 289 265 559
4 496 454 466 557
4 237 236 38 537
4 255 254 27 552
4 243 242 539 25
4 225 224 523 41
4 490 487 493 557
4 377 374 371 553
4 539 451 461 557
4 518 516 517 555
4 516 521 517 555
4 413 416 417 554
4 392 387 384 561
4 492 488 489 556
4 387 385 287 561
4 444 446 435 560
4 410 223 52 224
4 60 314 241 242
4 470 474 477 553
4 357 354 351 565
4 271 265 288 559
4 388 385 561 562
4 338 330 336 558
4 305 298 441 563
4 370 76 288 369
4 186 522 554 569
4 417 416 522 554
4 352 356 354 565
4 520 196 434 563
4 300 296 560 571
4 170 499 382 556
4 339 559 338 570
4 173 235 530 234
4 272 368 559 568
4 369 558 373 567
4 538 24 246 245
4 228 227 522 40
4 252 251 26 551
4 234 233 39 536
4 461 451 453 557
4 522 523 221 569
4 472 476 475 558
4 169 536 450 556
4 429 305 430 563
4 368 370 77 288
4 298 297 280 563
4 332 328 342 553
4 457 450 459 556
4 492 489 494 556
4 342 335 553 570
4 403 226 181 180
4 244 322 108 109
4 174 235 175 407
4 459 460 457 556
4 474 553 335 570
4 140 354 355 567
4 413 417 424 554
4 444 554 437 569
4 387 287 270 561
4 366 552 125 553
4 466 451 114 557
4 304 429 431 563
4 333 69 289 331
4 369 376 373 558
4 474 470 481 553
4 475 476 471 558
4 389 382 390 556
4 127 128 336 565
4 477 553 474 570
4 336 334 338 558
4 433 444 437 569
4 377 367 376 559
4 386 383 388 557
4 53 228 229 411
4 248 62 251 326
4 230 54 233 398
4 196 429 430 563
4 285 455 263 561
4 315 61 247 246
4 286 270 263 561
4 538 383 113 557
4 496 493 487 557
4 127 351 128 565
4 336 334 558 565
4 480 128 143 565
4 459 450 536 556
4 437 554 444 564
4 453 456 455 561
4 424 554 417 571
4 473 472 475 558
4 480 128 28 143
4 371 374 366 553
4 366 553 374 568
4 383 388 557 562
4 1 66 60 313
4 99 52 21 409
4 62 67 2 325
4 489 389 494 556
4 372 373 376 558
4 143 142 471 565
4 387 388 385 561
4 152 33 360 482
4 142 143 356 565
4 150 34 484 358
4 449 460 456 561
4 329 334 131 472
4 366 552 553 568
4 299 438 435 96
4 454 463 456 557
4 197 431 429 563
4 176 38 399 237
4 121 27 327 255
4 479 142 32 379
4 141 373 140 567
4 429 261 305 563
4 392 381 388 561
4 70 265 330 333
4 466 454 451 557
4 355 141 140 567
4 328 124 551 553
4 297 304 421 563
4 268 295 309 564
4 365 153 7 361
4 296 280 262 560
4 472 334 131 476
4 376 370 377 559
4 348 359 6 147
4 480 341 128 565
4 87 427 257 428
4 360 33 149 345
4 261 429 304 563
4 379 142 32 140
4 262 89 300 415
4 272 368 77 288
4 391 556 392 566
4 264 273 302 567
4 34 362 358 155
4 415 262 89 418
4 299 280 296 560
4 426 424 415 571
4 537 170 382 556
4 271 288 76 369
4 355 140 352 354
4 357 273 264 567
4 197 44 425 519
4 476 334 341 565
4 341 128 28 480
4 476 341 480 565
4 295 564 268 571
4 356 485 150 151
4 287 263 270 561
4 455 456 460 561
4 308 271 378 567
4 9 378 264 308
4 378 141 264 567
4 418 297 90 421
4 308 378 264 567
4 352 363 154 155
4 265 330 290 70
4 374 377 368 568
4 437 444 448 564
4 383 557 538 562
4 0 115 58 241
4 191 420 412 508
4 387 392 388 561
4 350 483 151 152
4 285 263 287 561
4 349 264 361 141
4 295 268 296 571
4 239 538 539 557
4 369 378 271 567
4 483 143 135 136
4 134 135 485 142
4 50 437 188 447
4 272 265 289 559
4 238 536 537 556
4 509 202 433 440
4 256 553 552 568
4 436 437 523 569
4 516 196 520 563
4 350 356 143 565
4 384 391 392 566
4 256 551 552 553
4 367 158 477 371
4 447 50 437 564
4 259 286 104 462
4 537 382 391 556
4 551 251 26 123
4 24 538 246 112
4 192 413 420 505
4 384 83 270 387
4 157 473 372 367
4 452 104 286 462
4 538 557 239 562
4 414 425 44 519
4 310 285 269 562
4 269 82 385 287
4 262 297 90 418
4 554 564 437 569
4 437 564 523 569
4 185 51 427 417
4 222 524 274 529
4 98 441 445 305
4 81 393 306 562
4 391 537 556 566
4 69 289 265 333
4 257 295 87 428
4 357 127 359 273
4 366 374 552 568
4 351 147 347 148
4 477 474 473 570
4 551 337 63 123
4 539 114 451 557
4 270 286 311 566
4 369 373 378 567
4 306 269 81 562
4 353 143 128 565
4 304 91 421 425
4 201 504 507 432
4 349 264 141 567
4 58 461 539 115
4 432 201 504 440
4 148 149 346 353
4 286 263 103 452
4 128 351 353 565
4 64 374 126 380
4 374 380 64 568
4 96 299 438 280
4 349 357 264 567
4 228 522 185 40
4 288 265 272 559
4 389 392 391 556
4 207 449 491 488
4 329 339 338 570
4 289 260 272 568
4 431 304 93 429
4 153 364 154 355
4 60 241 313 66
4 52 223 409 99
4 336 341 334 565
4 127 4 359 273
4 238 556 537 566
4 429 430 305 92
4 233 536 168 39
4 451 456 453 557
4 10 126 64 250
4 112 383 59 393
4 513 200 432 439
4 391 382 389 556
4 308 302 271 567
4 56 391 394 566
4 45 196 430 445
4 431 44 425 197
4 391 56 394 167
4 278 240 310 562
4 540 544 249 301
4 347 144 127 145
4 138 364 137 141
4 59 393 383 562
4 83 270 387 287
4 157 473 475 372
4 28 30 136 482
4 484 32 31 134
4 481 129 335 332
4 185 17 51 229
4 489 163 389 381
4 103 263 455 452
4 314 60 241 313
4 223 410 52 409
4 4 127 340 273
4 477 473 158 367
4 20 188 50 223
4 207 457 449 488
4 342 339 335 570
4 73 264 357 273
4 476 480 471 565
4 188 437 50 523
4 55 168 459 462
4 168 23 55 230
4 248 62 325 67
4 123 551 337 328
4 514 419 412 190
4 506 191 412 508
4 202 509 504 440
4 50 523 437 564
4 185 522 51 417
4 453 102 285 455
4 544 540 240 267
4 130 335 329 570
4 64 552 374 568
4 14 167 56 232
4 414 519 194 518
4 140 363 139 138
4 145 346 146 128
4 278 59 240 562
4 351 354 353 565
4 447 448 303 564
4 480 132 341 476
4 126 374 64 552
4 350 354 356 565
4 447 448 94 303
4 200 507 513 432
4 34 362 484 358
4 306 278 310 562
4 112 13 59 247
4 196 45 520 445
4 357 349 354 567
4 230 54 398 397
4 248 62 326 325
4 229 53 411 408
4 82 387 385 287
4 31 32 362 139
4 146 30 28 345
4 203 443 515 433
4 451 454 456 557
4 300 415 88 571
4 518 194 414 419
4 204 439 521 434
4 353 350 143 565
4 123 3 63 248
4 519 197 516 563
4 61 315 247 312
4 508 192 420 505
4 470 467 214 213
4 349 355 354 567
4 261 93 304 429
4 56 537 391 566
4 515 433 443 569
4 305 261 298 563
4 520 204 521 434
4 391 537 56 167
4 305 261 429 92
4 512 193 413 423
4 513 219 47 521
4 540 278 240 267
4 163 489 486 381
4 459 168 55 536
4 132 334 341 476
4 278 306 59 562
4 501 511 217 569
4 179 41 410 224
4 106 25 314 242
4 424 417 428 571
4 164 395 381 490
4 195 425 18 431
4 290 71 340 273
4 84 394 384 307
4 539 242 115 25
4 143 471 480 565
4 305 98 441 298
4 300 88 295 571
4 455 102 285 263
4 307 394 384 566
4 428 88 415 571
4 340 330 71 290
4 275 222 274 529
4 73 264 349 357
4 64 249 256 568
4 19 430 445 198
4 72 359 4 273
4 350 360 353 143
4 249 276 260 568
4 439 513 47 521
4 412 514 190 506
4 40 183 411 228
4 24 110 315 246
4 26 117 326 251
4 39 172 398 233
4 465 113 24 383
4 25 114 466 451
4 196 197 429 563
4 514 518 43 220
4 81 385 393 562
4 196 516 197 563
4 74 264 9 361
4 419 518 43 514
4 505 193 413 512
4 523 224 188 41
4 78 276 380 568
4 357 359 72 273
4 447 303 50 564
4 239 240 59 562
4 297 298 261 563
4 380 368 78 568
4 81 269 385 562
4 327 27 126 255
4 268 303 448 564
4 399 38 167 237
4 88 428 295 571
4 436 523 187 569
4 552 255 126 27
4 537 237 167 38
4 515 509 203 433
4 275 309 222 564
4 474 129 335 481
4 275 222 50 564
4 306 393 59 562
4 482 33 360 345
4 304 297 261 563
4 130 474 335 570
4 64 256 552 568
4 383 538 59 562
4 311 231 279 566
4 308 264 302 567
4 112 59 383 538
4 249 276 277 301
4 353 354 350 565
4 159 375 478 371
4 329 472 130 570
4 56 394 307 566
4 478 477 159 371
4 515 509 433 569
4 124 26 469 328
4 474 472 473 570
4 232 399 57 396
4 65 250 327 324
4 337 63 3 260
4 245 244 113 109
4 180 226 187 225
4 227 226 186 182
4 236 235 175 170
4 254 253 120 125
4 235 173 169 234
4 461 539 115 451
4 249 277 540 301
4 383 385 388 562
4 56 279 231 566
4 276 64 380 568
4 128 341 336 565
4 268 94 448 303
4 187 502 436 569
4 390 37 494 499
4 458 49 500 497
4 417 185 522 416
4 141 378 373 567
4 389 162 494 390
4 297 304 91 421
4 544 540 277 301
4 463 209 496 454
4 423 512 42 503
4 238 56 231 566
4 221 50 222 564
4 4 359 348 343
4 328 332 133 469
4 436 433 437 569
4 275 50 303 564
4 275 303 309 564
4 349 141 355 567
4 383 393 385 562
4 365 9 344 361
4 131 334 132 476
4 50 221 523 564
4 413 192 193 505
4 368 272 78 568
4 239 59 538 562
4 447 437 448 564
4 544 277 540 267
4 139 363 140 155
4 231 266 55 259
4 164 381 486 490
4 458 457 206 497
4 187 501 502 569
4 361 74 264 349
4 502 501 217 569
4 212 493 211 464
4 498 216 492 215
4 434 520 45 445
4 332 481 29 469
4 269 306 310 562
4 56 238 537 566
4 242 241 115 314
4 425 304 18 431
4 509 202 203 433
4 445 430 19 305
4 188 436 437 523
4 276 249 64 568
4 27 125 552 254
4 38 170 537 236
4 41 187 523 225
4 114 539 25 243
4 277 59 13 543
4 217 511 515 569
4 300 295 296 571
4 26 469 328 133
4 78 272 276 568
4 358 142 356 352
4 161 465 24 383
4 205 451 25 466
4 262 90 89 418
4 278 310 240 258
4 528 56 14 274
4 515 443 502 569
4 337 3 68 260
4 375 468 35 478
4 311 279 307 566
4 200 201 507 432
4 266 275 274 529
4 279 266 231 259
4 450 168 459 536
4 126 366 374 552
4 224 223 188 410
4 51 222 274 257
4 339 329 335 570
4 56 307 279 566
4 277 278 540 267
4 266 20 50 525
4 415 424 428 571
4 162 494 489 389
4 495 36 465 212
4 48 211 496 466
4 497 49 500 215
4 37 216 494 499
4 481 213 29 469
4 113 245 24 538
4 186 40 522 227
4 169 39 536 234
4 124 26 551 252
4 277 10 64 543
4 272 260 276 568
4 276 277 64 249
4 27 125 468 366
4 191 412 190 506
4 189 423 503 416
4 443 502 436 199
4 503 186 40 416
4 41 187 502 436
4 330 71 290 70
4 540 64 277 249
4 68 289 69 331
4 436 502 443 569
4 36 465 386 495
4 454 48 496 466
4 465 161 386 383
4 205 454 451 466
4 64 10 276 380
4 81 82 385 269
4 156 157 475 372
4 158 159 477 371
4 222 274 257 275
4 517 220 510 219
4 64 10 277 276
4 512 218 42 503
4 497 457 206 488
4 209 496 487 463
4 277 544 301 267
4 240 59 278 540
4 315 246 247 112
4 248 251 123 326
4 167 391 537 382
4 40 503 416 189
4 502 41 436 199
4 468 27 366 160
4 97 96 438 280
4 73 357 72 273
4 76 77 370 288
4 58 0 258 461
4 231 311 279 259
4 169 39 500 450
4 499 38 170 382
4 71 4 340 273
4 380 374 368 568
4 380 10 276 78
4 69 265 70 333
4 98 445 19 305
4 499 38 382 166
4 39 500 450 210
4 285 101 102 453
4 335 130 129 474
4 217 501 218 511
4 366 468 160 375
4 309 222 257 275
4 200 513 47 439
4 277 13 284 543
4 390 166 499 382
4 210 500 450 458
4 270 307 384 566
4 394 391 384 566
4 474 130 472 570
4 443 502 46 515
4 131 130 329 472
4 138 364 141 355
4 347 127 351 145
4 478 468 35 214
4 229 228 185 411
4 451 539 25 114
4 305 430 19 92
4 82 83 387 287
4 304 93 18 431
4 278 59 13 277
4 309 303 268 564
4 217 515 502 569
4 541 58 0 267
4 88 87 295 428
4 261 93 429 92
4 27 125 366 552
4 132 341 28 480
4 59 13 393 306
4 230 233 168 398
4 91 304 18 425
4 307 384 84 270
4 89 88 300 415
4 98 97 441 298
4 286 103 104 452
4 0 115 461 58
4 346 149 146 353
4 277 284 10 543
4 75 271 76 369
4 42 193 512 423
4 457 207 206 488
4 359 6 4 348
4 524 56 528 274
4 364 138 154 355
4 41 187 436 523
4 148 347 351 145
4 352 140 363 155
4 365 7 9 361
4 436 443 433 569
4 37 494 162 390
4 383 113 24 538
4 38 170 382 537
4 229 53 408 282
4 267 278 240 258
4 95 94 448 268
4 163 162 489 389
4 44 414 519 194
4 529 266 50 525
4 123 3 337 63
4 275 50 222 529
4 368 77 78 272
4 47 439 521 204
4 518 43 194 419
4 20 50 447 303
4 230 54 397 283
4 143 135 142 151
4 520 45 204 434
4 275 20 50 266
4 279 14 56 274
4 156 479 32 379
4 186 40 416 522
4 40 522 185 416
4 14 56 394 307
4 450 39 168 536
4 276 249 260 301
4 169 39 450 536
4 44 425 195 431
4 445 430 45 198
4 297 91 90 421
4 124 26 328 551
4 14 282 528 274
4 529 266 55 231
4 142 356 143 151
4 486 163 381 164
4 49 458 206 497
4 146 28 128 360
4 267 240 58 258
4 35 375 478 159
4 255 327 250 126
4 237 232 167 399
4 525 266 20 283
4 515 511 509 569
4 247 61 312 284
4 126 27 366 552
4 260 249 63 301
4 543 277 59 540
4 208 209 487 463
4 188 41 436 523
4 537 38 167 382
4 541 0 58 241
4 514 43 419 190
4 484 362 32 358
4 526 99 52 291
4 101 258 0 461
4 75 9 308 378
4 185 17 427 51
4 23 259 104 462
4 541 301 267 281
4 283 99 526 291
4 17 51 528 274
4 56 279 524 231
4 51 222 524 274
4 140 358 139 155
4 81 393 13 306
4 95 299 435 96
4 259 23 55 462
4 26 551 123 328
4 481 29 129 332
4 353 146 346 128
4 133 332 29 469
4 59 13 306 278
4 140 358 32 139
4 260 63 3 301
4 427 51 17 257
4 37 390 166 499
4 210 49 500 458
4 281 292 66 542
4 42 189 423 503
4 443 46 502 199
4 266 55 23 525
4 67 292 281 542
4 250 64 10 543
4 192 420 191 508
4 168 23 462 55
4 277 278 59 540
4 23 55 266 259
4 515 502 46 217
4 50 20 275 303
4 112 13 393 59
4 0 541 267 281
4 528 282 17 274
4 50 275 266 529
4 10 126 380 64
4 201 202 504 440
4 165 36 386 495
4 314 25 115 242
4 20 188 447 50
4 226 182 181 186
4 108 113 244 109
4 125 119 253 120
4 170 174 235 175
4 226 180 187 181
4 235 173 174 169
4 160 468 35 375
4 23 266 525 283
4 14 56 307 279
4 524 279 56 274
4 292 60 66 542
4 359 348 343 147
4 365 344 153 361
4 292 67 62 542
4 544 240 58 267
4 17 427 257 87
4 525 20 50 223
4 455 102 263 103
4 307 270 311 566
4 301 541 3 281
4 274 17 51 257
4 541 3 63 301
4 48 496 209 454
4 482 360 28 345
4 112 383 24 538
4 128 353 146 360
4 17 51 229 528
4 356 350 143 151
4 53 282 527 294
4 395 164 165 490
4 360 143 152 136
4 224 41 410 188
4 24 315 112 246
4 26 326 123 251
4 14 167 394 56
4 447 94 20 303
4 541 544 58 267
4 84 14 394 307
4 142 485 150 356
4 473 157 158 367
4 74 9 7 361
4 63 544 541 301
4 353 149 146 360
4 73 264 74 349
4 515 46 443 203
4 232 56 14 528
4 384 83 84 270
4 64 277 543 540
4 54 283 526 291
4 4 6 359 72
4 483 143 350 151
4 267 58 0 258
4 361 349 141 355
4 313 0 66 241
4 249 544 63 301
4 228 40 185 411
4 115 539 25 451
4 363 140 352 154
4 356 142 485 151
4 233 398 39 168
4 525 55 23 230
4 247 13 59 543
4 161 36 465 386
4 48 454 205 466
4 229 53 282 527
4 143 360 28 136
4 142 150 134 358
4 140 352 358 155
4 357 127 351 359
4 230 54 283 526
4 544 541 301 267
4 485 150 134 142
4 143 483 152 136
4 350 143 483 152
4 491 208 449 207
4 145 127 351 128
4 284 250 10 543
4 141 140 138 355
4 135 143 483 151
4 135 485 142 151
4 524 528 51 274
4 223 99 20 409
4 142 134 32 358
4 143 350 360 152
4 282 17 229 528
4 20 525 283 223
4 55 266 529 525
4 140 154 138 355
4 145 351 148 128
4 541 63 3 248
4 21 52 99 291
4 281 0 541 241
4 150 142 356 358
4 52 223 99 526
4 60 241 66 542
4 152 360 28 482
4 13 247 284 543
4 282 232 14 528
4 67 3 325 248
4 360 149 28 345
4 147 127 351 347
4 283 525 23 230
4 364 153 141 355
4 283 99 223 526
4 154 140 352 355
4 150 484 32 358
4 65 61 284 293
4 66 281 542 241
4 134 484 32 150
4 136 152 28 482
4 149 146 28 345
4 248 62 67 542
4 358 362 32 155
4 139 32 362 155
4 346 148 353 128
4 294 53 57 527
4 52 54 526 291
4 144 343 348 147
4 153 137 344 365
4 525 283 223 526
4 527 232 282 528
4 401 52 21 291
4 401 22 54 291
4 2 67 62 292
4 60 66 1 292
4 281 67 542 248
4 62 60 292 542
4 316 65 11 293
4 15 57 294 400
4 353 148 351 128
4 53 16 294 400
4 361 344 153 141
4 343 127 359 147
4 316 12 61 293
4 362 32 31 484
4 482 28 30 345
4 348 5 4 343
4 8 9 344 365
4 482 30 33 345
4 31 34 362 484
4 282 229 527 528
4 525 283 526 230
4 284 247 250 543
4 127 343 144 147
4 344 137 153 141
4 281 66 0 241
4 139 358 32 155
4 281 541 3 248
4 292 62 2 317
4 1 60 292 317
4 149 28 146 360
4 401 54 52 291
4 150 32 134 358
4 542 281 541 241
4 359 127 351 147
4 152 28 360 136
4 20 283 99 223
4 294 57 53 400
4 141 153 361 355
4 316 61 65 293
4 9 8 7 365
4 5 4 6 348
4 148 346 145 128
4 154 363 140 138
4 541 281 542 248
4 109 120 550 322
4 407 175 182 535
4 407 226 235 535
4 244 545 319 253
4 245 320 549 254
4 321 252 243 547
4 173 180 530 403
4 319 107 118 545
4 3 67 281 248
4 147 144 127 347
4 364 153 137 141
4 326 62 116 325
4 398 54 171 397
4 314 60 313 105
4 410 52 409 178
4 411 53 184 408
4 21 22 401 291
4 61 315 312 111
4 11 12 316 293
4 292 60 62 317
4 122 324 65 327
4 399 57 396 177
4 294 16 15 400
4 404 534 176 183
4 549 110 121 320
4 172 179 532 405
4 321 547 106 117
4 327 324 250 126
4 167 232 396 399
4 314 115 313 241
4 546 116 105 323
4 177 533 184 402
4 318 122 111 548
4 178 171 406 531
4 188 410 223 409
4 175 227 535 236
4 245 254 550 120
4 62 60 546 105
4 53 57 533 184
4 247 312 315 112
4 325 123 326 248
4 52 54 178 531
4 530 234 225 180
4 243 107 545 252
4 54 52 178 401
4 62 60 105 317
4 57 53 400 184
4 111 65 61 548
4 316 65 61 111
4 227 175 535 182
4 550 245 120 109
4 408 229 185 411
4 116 62 546 105
4 184 57 533 177
4 111 122 65 548
4 54 171 178 531
4 530 234 180 173
4 107 118 545 252
4 178 171 54 401
4 105 116 62 317
4 65 316 122 111
4 184 400 57 177
4 245 120 320 254
4 252 243 107 321
4 397 168 398 230
4 292 2 1 317
4 244 322 119 108
4 407 174 226 181
4 403 226 174 181
4 244 119 319 108
4 175 182 227 404
4 120 245 320 109
4 107 118 252 321
4 180 234 405 173
4 226 407 235 174
4 119 244 319 253
4 406 531 233 224
4 121 110 549 255
4 532 179 172 224
4 533 237 228 402
4 110 121 318 255
4 406 172 179 224
4 176 534 228 183
4 251 106 547 117
4 176 228 402 183
4 106 251 323 117
4 255 110 549 246
4 534 228 237 176
4 106 251 547 242
4 233 532 172 224
4 402 237 228 176
4 172 406 233 224
4 17 185 408 229
4 229 228 522 185
4 167 14 396 232
4 235 536 234 169
4 227 226 522 186
4 235 236 537 170
4 245 244 538 113
4 13 112 312 247
4 255 250 552 126
4 552 253 254 125
4 126 10 324 250
4 115 0 313 241
4 251 551 248 123
4 242 241 539 115
4 3 123 325 248
4 539 244 243 114
4 252 253 551 124
4 224 223 523 188
4 226 225 523 187
4 188 20 409 223
4 230 233 536 168
4 23 168 397 230
4 247 246 538 112
4 237 232 537 167
4 178 179 224 406
4 224 179 178 410
4 224 531 178 406
4 110 246 111 315
4 242 106 105 314
4 184 183 228 411
4 228 183 184 402
4 184 533 228 402
4 240 58 562 239
4 240 562 58 258
4 177 176 237 402
4 237 176 177 399
4 237 533 177 402
4 122 121 255 318
4 255 121 122 327
4 255 548 122 318
4 116 117 251 326
4 251 117 116 323
4 116 546 251 323
4 172 171 233 406
4 172 233 171 398
4 531 233 171 406
4 561 489 488 556
4 561 488 489 486
4 61 250 284 247
4 509 569 505 554
4 509 505 569 511
4 512 505 569 554
4 512 569 505 511
4 252 118 253 124
4 119 118 253 319
4 119 253 118 124
4 107 243 244 114
4 244 108 107 114
4 107 108 244 319
4 490 386 165 395
4 490 165 386 495
4 512 569 503 554
4 512 503 569 501
4 186 503 569 554
4 186 569 503 501
4 561 286 556 452
4 561 556 286 566
4 459 556 286 452
4 459 286 556 566
4 563 422 297 555
4 563 297 422 421
4 418 297 422 555
4 418 422 297 421
4 555 441 434 442
4 555 434 441 563
4 561 557 381 388
4 561 381 557 490
4 395 381 557 388
4 395 557 381 490
4 567 379 558 373
4 567 558 379 565
4 280 441 97 298
4 280 97 441 438
4 557 463 449 487
4 557 449 463 456
4 331 260 68 289
4 68 260 331 337
4 379 475 156 479
4 379 156 475 372
4 570 367 558 473
4 570 558 367 559
4 268 435 95 299
4 268 95 435 448
4 562 453 561 557
4 562 561 453 285
4 412 508 560 506
4 560 508 412 420
4 226 174 530 403
4 226 530 174 235
4 173 530 174 403
4 173 174 530 235
4 244 119 550 253
4 244 550 119 322
4 120 550 119 253
4 120 119 550 322
4 569 221 564 523
4 569 564 221 554
4 285 461 101 453
4 101 461 285 258
4 368 288 559 370
4 559 288 368 272
4 273 127 567 357
4 273 567 127 340
4 519 425 563 414
4 519 563 425 197
4 569 444 509 433
4 569 509 444 554
4 440 509 444 433
4 440 444 509 554
4 397 283 291 100
4 291 283 397 54
4 291 22 397 100
4 397 22 291 54
4 282 408 294 53
4 282 294 408 86
4 16 294 408 53
4 16 408 294 86
4 312 12 293 61
4 293 12 312 80
4 293 284 312 61
4 312 284 293 80
4 141 9 264 361
4 141 264 9 378
4 378 271 75 369
4 378 75 271 308
4 487 449 208 463
4 208 449 487 491
4 15 396 294 57
4 15 294 396 85
4 324 284 293 65
4 293 284 324 79
4 293 11 324 65
4 324 11 293 79
4 552 253 124 551
4 124 253 552 125
4 124 553 552 551
4 552 553 124 125
4 235 537 169 170
4 235 169 537 536
4 556 169 537 170
4 556 537 169 536
4 557 539 113 538
4 557 113 539 114
4 244 113 539 538
4 244 539 113 114
4 569 523 186 522
4 569 186 523 187
4 226 186 523 522
4 226 523 186 187
4 231 529 279 524
4 231 279 529 266
4 274 279 529 524
4 274 529 279 266
4 358 140 142 352
4 142 140 358 32
4 360 128 143 28
4 360 143 128 353
4 294 282 396 85
4 17 408 282 229
4 17 282 408 86
4 397 23 283 100
4 283 23 397 230
4 284 65 250 61
4 284 250 65 324
4 324 10 284 250
4 324 284 10 79
4 13 312 284 247
4 13 284 312 80
4 396 14 282 232
4 396 282 14 85
4 61 246 111 548
4 61 111 246 315
4 53 228 184 533
4 53 184 228 411
4 534 227 183 404
4 182 227 183 40
4 182 183 227 404
4 237 57 177 533
4 237 177 57 399
4 175 176 236 38
4 118 545 253 319
4 118 253 545 252
4 109 110 245 320
4 109 245 110 24
4 549 245 110 320
4 120 121 254 27
4 120 254 121 320
4 549 121 254 320
4 255 65 122 548
4 255 122 65 327
4 245 246 110 24
4 245 110 246 549
4 52 224 178 410
4 52 178 224 531
4 62 251 116 546
4 62 116 251 326
4 60 242 105 314
4 60 105 242 546
4 547 252 117 321
4 118 252 117 26
4 118 117 252 321
4 107 545 244 243
4 107 244 545 319
4 547 106 243 321
4 107 243 106 321
4 107 106 243 25
4 242 243 106 25
4 242 106 243 547
4 173 172 234 405
4 173 234 172 39
4 532 234 172 405
4 233 234 172 532
4 233 172 234 39
4 180 179 225 41
4 54 233 171 531
4 54 171 233 398
4 232 57 282 396
4 232 282 57 527
4 294 282 57 396
4 294 57 282 527
4 251 252 117 547
4 251 117 252 26
4 236 237 176 534
4 236 176 237 38
4 227 228 183 40
4 227 183 228 534
4 254 255 121 549
4 254 121 255 27
4 224 225 179 41
4 224 179 225 532
4 110 255 548 246
4 548 255 110 318
4 548 111 110 246
4 110 111 548 318
4 251 106 546 242
4 251 546 106 323
4 105 546 106 242
4 105 106 546 323
4 175 176 534 236
4 534 176 175 404
4 534 227 175 236
4 175 227 534 404
4 180 179 532 225
4 532 179 180 405
4 532 234 180 225
4 180 234 532 405

CELL_TYPES 3081
1
1
1
1
1
1
1
1
1
1
1
1
1
1
1
1
1
1
1
1
1
1
1
1
1
1
1
1
1
1
1
1
1
1
1
1
1
1
1
1
1
1
1
1
1
1
1
1
1
1
1
1
1
1
1
1
1
1
1
1
1
1
1
1
1
1
3
3
3
3
3
3
3
3
3
3
3
3
3
3
3
3
3
3
3
3
3
3
3
3
3
3
3
3
3
3
3
3
3
3
3
3
3
3
3
3
3
3
3
3
3
3
3
3
3
3
3
3
3
3
3
3
3
3
3
3
3
3
3
3
3
3
3
3
3
3
3
3
3
3
3
3
3
3
3
3
3
3
3
3
3
3
3
3
3
3
3
3
3
3
3
3
3
3
3
3
3
3
3
3
3
3
3
3
3
3
3
3
3
3
3
3
3
3
3
3
3
3
3
3
3
3
3
3
3
3
3
3
3
3
3
3
3
3
3
3
3
3
3
3
3
3
3
3
3
3
3
3
3
3
3
3
3
3
3
3
3
3
3
3
3
3
3
3
3
3
3
3
3
3
3
3
3
3
3
3
3
3
3
3
3
3
3
3
3
3
3
3
3
3
3
3
3
3
3
3
3
3
3
3
3
3
3
3
3
3
3
3
3
3
3
3
3
3
3
3
3
3
3
3
3
3
3
3
3
3
3
3
3
3
3
3
3
3
3
3
3
3
3
3
3
3
3
3
3
3
3
3
3
3
3
3
3
3
3
3
3
3
3
3
3
3
3
3
3
3
3
3
3
3
3
3
3
3
3
3
3
3
3
3
3
3
3
3
3
3
5
5
5
5
5
5
5
5
5
5
5
5
5
5
5
5
5
5
5
5
5
5
5
5
5
5
5
5
5
5
5
5
5
5
5
5
5
5
5
5
5
5
5
5
5
5
5
5
5
5
5
5
5
5
5
5
5
5
5
5
5
5
5
5
5
5
5
5
5
5
5
5
5
5
5
5
5
5
5
5
5
5
5
5
5
5
5
5
5
5
5
5
5
5
5
5
5
5
5
5
5
5
5
5
5
5
5
5
5
5
5
5
5
5
5
5
5
5
5
5
5
5
5
5
5
5
5
5
5
5
5
5
5
5
5
5
5
5
5
5
5
5
5
5
5
5
5
5
5
5
5
5
5
5
5
5
5
5
5
5
5
5
5
5
5
5
5
5
5
5
5
5
5
5
5
5
5
5
5
5
5
5
5
5
5
5
5
5
5
5
5
5
5
5
5
5
5
5
5
5
5
5
5
5
5
5
5
5
5
5
5
5
5
5
5
5
5
5
5
5
5
5
5
5
5
5
5
5
5
5
5
5
5
5
5
5
5
5
5
5
5
5
5
5
5
5
5
5
5
5
5
5
5
5
5
5
5
5
5
5
5
5
5
5
5
5
5
5
5
5
5
5
5
5
5
5
5
5
5
5
5
5
5
5
5
5
5
5
5
5
5
5
5
5
5
5
5
5
5
5
5
5
5
5
5
5
5
5
5
5
5
5
5
5
5
5
5
5
5
5
5
5
5
5
5
5
5
5
5
5
5
5
5
5
5
5
5
5
5
5
5
5
5
5
5
5
5
5
5
5
5
5
5
5
5
5
5
5
5
5
5
5
5
5
5
5
5
5
5
5
5
5
5
5
5
5
5
5
5
5
5
5
5
5
5
5
5
5
5
5
5
5
5
5
5
5
5
5
5
5
5
5
5
5
5
5
5
5
5
5
5
5
5
5
5
5
5
5
5
5
5
5
5
5
5
5
5
5
5
5
5
5
5
5
5
5
5
5
5
5
5
5
5
5
5
5
5
5
5
5
5
5
5
5
5
5
5
5
5
5
5
5
5
5
5
5
5
5
5
5
5
5
5
5
5
5
5
5
5
5
5
5
5
5
5
5
5
5
5
5
5
5
5
5
5
5
5
5
5
5
5
5
5
5
5
5
5
5
5
5
5
5
5
5
5
5
5
5
5
5
5
5
5
5
5
5
5
5
5
5
5
5
5
5
5
5
5
5
5
5
5
5
5
5
5
5
5
5
5
5
5
5
5
5
5
5
5
5
5
5
5
5
5
5
5
5
5
5
5
5
5
5
5
5
5
5
5
5
5
5
5
5
5
5
5
5
5
5
5
5
5
5
5
5
5
5
5
5
5
5
5
5
5
5
5
5
5
5
5
5
5
5
5
5
5
5
5
5
5
5
5
5
5
5
5
5
5
5
5
5
5
5
5
5
5
5
5
5
5
5
5
5
5
5
5
5
5
5
5
5
5
5
5
5
5
5
5
5
5
5
5
5
5
5
5
5
5
5
5
5
5
5
5
5
5
5
5
5
5
5
5
5
5
5
5
5
5
5
5
5
5
5
5
5
5
5
5
5
5
5
5
5
5
5
5
5
5
5
5
5
5
5
5
5
5
5
5
5
5
5
5
5
5
5
5
5
5
5
5
5
5
5
5
5
5
5
5
5
5
5
5
5
5
5
5
5
5
5
5
5
5
5
5
5
5
5
5
5
5
5
5
5
5
5
5
5
5
5
5
5
5
5
5
5
5
5
5
5
5
5
5
5
5
5
5
5
5
5
5
5
5
5
5
5
5
5
5
5
5
5
5
5
5
5
5
5
5
5
5
5
5
5
5
5
5
5
5
5
5
5
5
5
5
5
5
5
5
5
5
5
5
5
5
5
5
5
5
5
5
5
5
5
5
5
5
5
5
5
5
5
5
5
5
5
5
5
5
5
5
5
5
5
5
5
5
5
5
5
5
5
5
5
5
5
5
5
5
5
5
5
5
5
5
5
5
5
5
5
5
5
5
5
5
5
5
5
5
5
5
5
5
5
5
5
5
5
5
5
5
5
5
5
5
5
5
5
5
5
5
5
5
5
5
5
5
5
5
5
5
5
5
5
5
5
5
5
5
5
5
5
5
5
5
5
5
5
5
5
5
5
5
5
5
5
5
5
5
5
5
5
5
5
5
5
5
5
5
5
5
5
5
5
5
5
5
5
5
5
5
5
5
5
5
5
5
5
5
5
5
5
5
5
5
5
5
5
5
5
5
5
5
5
5
5
5
5
5
5
5
5
5
5
5
5
5
5
5
5
5
5
5
5
5
5
5
5
5
5
5
5
5
5
5
5
5
5
5
5
5
5
5
5
5
5
5
5
5
5
5
5
5
5
5
5
5
5
5
5
5
5
5
5
5
5
5
5
5
5
5
5
5
5
5
5
5
5
5
5
5
5
5
5
5
5
5
5
5
5
5
5
5
5
5
5
10
10
10
10
10
10
10
10
10
10
10
10
10
10
10
10
10
10
10
10
10
10
10
10
10
10
10
10
10
10
10
10
10
10
10
10
10
10
10
10
10
10
10
10
10
10
10
10
10
10
10
10
10
10
10
10
10
10
10
10
10
10
10
10
10
10
10
10
10
10
10
10
10
10
10
10
10
10
10
10
10
10
10
10
10
10
10
10
10
10
10
10
10
10
10
10
10
10
10
10
10
10
10
10
10
10
10
10
10
10
10
10
10
10
10
10
10
10
10
10
10
10
10
10
10
10
10
10
10
10
10
10
10
10
10
10
10
10
10
10
10
10
10
10
10
10
10
10
10
10
10
10
10
10
10
10
10
10
10
10
10
10
10
10
10
10
10
10
10
10
10
10
10
10
10
10
10
10
10
10
10
10
10
10
10
10
10
10
10
10
10
10
10
10
10
10
10
10
10
10
10
10
10
10
10
10
10
10
10
10
10
10
10
10
10
10
10
10
10
10
10
10
10
10
10
10
10
10
10
10
10
10
10
10
10
10
10
10
10
10
10
10
10
10
10
10
10
10
10
10
10
10
10
10
10
10
10
10
10
10
10
10
10
10
10
10
10
10
10
10
10
10
10
10
10
10
10
10
10
10
10
10
10
10
10
10
10
10
10
10
10
10
10
10
10
10
10
10
10
10
10
10
10
10
10
10
10
10
10
10
10
10
10
10
10
10
10
10
10
10
10
10
10
10
10
10
10
10
10
10
10
10
10
10
10
10
10
10
10
10
10
10
10
10
10
10
10
10
10
10
10
10
10
10
10
10
10
10
10
10
10
10
10
10
10
10
10
10
10
10
10
10
10
10
10
10
10
10
10
10
10
10
10
10
10
10
10
10
10
10
10
10
10
10
10
10
10
10
10
10
10
10
10
10
10
10
10
10
10
10
10
10
10
10
10
10
10
10
10
10
10
10
10
10
10
10
10
10
10
10
10
10
10
10
10
10
10
10
10
10
10
10
10
10
10
10
10
10
10
10
10
10
10
10
10
10
10
10
10
10
10
10
10
10
10
10
10
10
10
10
10
10
10
10
10
10
10
10
10
10
10
10
10
10
10
10
10
10
10
10
10
10
10
10
10
10
10
10
10
10
10
10
10
10
10
10
10
10
10
10
10
10
10
10
10
10
10
10
10
10
10
10
10
10
10
10
10
10
10
10
10
10
10
10
10
10
10
10
10
10
10
10
10
10
10
10
10
10
10
10
10
10
10
10
10
10
10
10
10
10
10
10
10
10
10
10
10
10
10
10
10
10
10
10
10
10
10
10
10
10
10
10
10
10
10
10
10
10
10
10
10
10
10
10
10
10
10
10
10
10
10
10
10
10
10
10
10
10
10
10
10
10
10
10
10
10
10
10
10
10
10
10
10
10
10
10
10
10
10
10
10
10
10
10
10
10
10
10
10
10
10
10
10
10
10
10
10
10
10
10
10
10
10
10
10
10
10
10
10
10
10
10
10
10
10
10
10
10
10
10
10
10
10
10
10
10
10
10
10
10
10
10
10
10
10
10
10
10
10
10
10
10
10
10
10
10
10
10
10
10
10
10
10
10
10
10
10
10
10
10
10
10
10
10
10
10
10
10
10
10
10
10
10
10
10
10
10
10
10
10
10
10
10
10
10
10
10
10
10
10
10
10
10
10
10
10
10
10
10
10
10
10
10
10
10
10
10
10
10
10
10
10
10
10
10
10
10
10
10
10
10
10
10
10
10
10
10
10
10
10
10
10
10
10
10
10
10
10
10
10
10
10
10
10
10
10
10
10
10
10
10
10
10
10
10
10
10
10
10
10
10
10
10
10
10
10
10
10
10
10
10
10
10
10
10
10
10
10
10
10
10
10
10
10
10
10
10
10
10
10
10
10
10
10
10
10
10
10
10
10
10
10
10
10
10
10
10
10
10
10
10
10
10
10
10
10
10
10
10
10
10
10
10
10
10
10
10
10
10
10
10
10
10
10
10
10
10
10
10
10
10
10
10
10
10
10
10
10
10
10
10
10
10
10
10
10
10
10
10
10
10
10
10
10
10
10
10
10
10
10
10
10
10
10
10
10
10
10
10
10
10
10
10
10
10
10
10
10
10
10
10
10
10
10
10
10
10
10
10
10
10
10
10
10
10
10
10
10
10
10
10
10
10
10
10
10
10
10
10
10
10
10
10
10
10
10
10
10
10
10
10
10
10
10
10
10
10
10
10
10
10
10
10
10
10
10
10
10
10
10
10
10
10
10
10
10
10
10
10
10
10
10
10
10
10
10
10
10
10
10
10
10
10
10
10
10
10
10
10
10
10
10
10
10
10
10
10
10
10
10
10
10
10
10
10
10
10
10
10
10
10
10
10
10
10
10
10
10
10
10
10
10
10
10
10
10
10
10
10
10
10
10
10
10
10
10
10
10
10
10
10
10
10
10
10
10
10
10
10
10
10
10
10
10
10
10
10
10
10
10
10
10
10
10
10
10
10
10
10
10
10
10
10
10
10
10
10
10
10
10
10
10
10
10
10
10
10
10
10
10
10
10
10
10
10
10
10
10
10
10
10
10
10
10
10
10
10
10
10
10
10
10
10
10
10
10
10
10
10
10
10
10
10
10
10
10
10
10
10
10
10
10
10
10
10
10
10
10
10
10
10
10
10
10
10
10
10
10
10
10
10
10
10
10
10
10
10
10
10
10
10
10
10
10
10
10
10
10
10
10
10
10
10
10
10
10
10
10
10
10
10
10
10
10
10
10
10
10
10
10
10
10
10
10
10
10
10
10
10
10
10
10
10
10
10
10
10
10
10
10
10
10
10
10
10
10
10
10
10
10
10
10
10
10
10
10
10
10
10
10
10
10
10
10
10
10
10
10
10
10
10
10
10
10
10
10
10
10
10
10
10
10
10
10
10
10
10
10
10
10
10
10
10
10
10
10
10
10
10
10
10
10
10
10
10
10
10
10
10
10
10
10
10
10
10
10
10
10
10
10
10
10
10
10
10
10
10
10
10
10
10
10
10
10
10
10
10
10
10
10
10
10
10
10
10
10
10
10
10
10
10
10
10
10
10
10
10
10
10
10
10
10
10
10
10
10
10
10
10
10
10
10
10
10
10
10
10
10
10
10
10
10
10
10
10
10
10
10
10
10
10
10
10
10
10
10
10
10
10
10
10
10
10
10
10
10
10
10
10
10
10
10
10
10
10
10
10
10
10
10
10
10
10
10
10
10
10
10
10
10
10
10
10
10
10
10
10
10
10
10
10
10
10
10
10
10
10
10
10
10
10
10
10
10
10
10
10
10
10
10
10
10
10
10
10
10
10
10
10
10
10
10
10
10
10
10
10
10
10
10
10
10
10
10
10
10
10
10
10
10
10
10
10
10
10
10
10
10
10
10
10
10
10
10
10
10
10
10
10
10
10
10
10
10
10
10
10
10
10
10
10
10
10
10
10
10
10
10
10
10
10
10
10
10
10
10
10
10
10
10
10
10
10
10
10
10
10
10
10
10
10
10
10
10
10
10
10
10
10
10
10
10
10
10
10
10
10
10
10
10
10
10
10
10
10
10
10
10
10
10
10
10
10
10
10
10
10
10
10
10
10
10
10
10
10
10
10
10
10
10
10
10
10
10
10
10
10
10
10
10
10
10
10
10
10
10
10
10
10
10
10
