# vtk DataFile Version 2.0
, Created by Gmsh 4.13.1 
ASCII
DATASET UNSTRUCTURED_GRID
POINTS 577 double
5.052707164548258 2.312936953133701 -44.32200699310773
-5.052707164548259 2.312936953133701 -44.32200699310773
14.33072372965841 2.312936953133701 -41.49284571237884
-14.33072372965841 2.312936953133701 -41.49284571237884
14.33072372965841 2.312936953133701 -38.50715428762116
5.052707164548258 2.312936953133701 -35.67799300689227
-5.052707164548259 2.312936953133701 -35.67799300689227
-14.33072372965841 2.312936953133701 -38.50715428762116
5.052707164548258 2.312936953133701 -84.32200699310772
-5.052707164548259 2.312936953133701 -84.32200699310772
14.33072372965841 2.312936953133701 -81.49284571237884
-14.33072372965841 2.312936953133701 -81.49284571237884
14.33072372965841 2.312936953133701 -78.50715428762116
5.052707164548258 2.312936953133701 -75.67799300689228
-5.052707164548259 2.312936953133701 -75.67799300689228
-14.33072372965841 2.312936953133701 -78.50715428762116
8.75 0 -44.32200699310773
17.70923938586626 0 -41.49284571237884
17.70923938586626 0 -38.50715428762116
8.75 0 -35.67799300689228
8.75 0 -3
11.75 0 -3
11.75 0 0
-11.75 0 0
-11.75 0 -3
-8.75 0 -3
-8.75 1.071565949253934e-15 -35.67799300689228
-17.70923938586626 2.168756332923536e-15 -38.50715428762116
-17.70923938586626 2.168756332923536e-15 -41.49284571237884
-8.75 1.071565949253934e-15 -44.32200699310773
-8.75 1.071565949253934e-15 -75.67799300689228
-17.70923938586626 2.168756332923536e-15 -78.50715428762116
-17.70923938586626 2.168756332923536e-15 -81.49284571237884
-8.75 1.071565949253934e-15 -84.32200699310772
-8.75 0 -120
8.75 0 -120
8.75 0 -84.32200699310772
17.70923938586626 0 -81.49284571237884
17.70923938586626 0 -78.50715428762116
8.75 0 -75.67799300689228
-8.75 12.65161507521961 -42.22753998338271
8.75 12.65161507521961 -42.22753998338271
8.75 12.65161507521957 -37.7724600166173
-8.75 12.65161507521965 -37.77246001661727
8.75 20 -3
8.75 20 -34.7524828847987
11.75 23 -3
-11.75 23 -3
-8.75 20 -3
11.75 23 0
-11.75 23 0
-8.75 20 -34.7524828847987
-8.75 20 -45.2475171152013
-8.75 20 -74.7524828847987
-8.75 12.65161507521962 -77.77246001661729
8.75 12.65161507521962 -77.77246001661729
-8.75 12.6516150752196 -82.2275399833827
8.75 12.6516150752196 -82.22753998338271
-8.75 20 -85.2475171152013
-8.75 20 -114.7524828847987
-8.75 7.231434551078368 -120
8.75 7.231434551078368 -120
8.75 20 -85.2475171152013
8.75 20 -114.7524828847987
8.75 20 -45.2475171152013
8.75 20 -74.7524828847987
2.063771901723286 5.159493441948169 -44.32200699310773
-2.063771901723304 5.159493441948162 -44.32200699310773
-7.105427357601002e-15 2.312936953133701 -44.32200699310773
9.698084631474559 2.312936953133701 -42.92841739985966
11.72709980533359 8.555375510210574 -41.49284571237884
6.57753741073141 12.94045291229773 -41.49284571237884
5.246067077430175e-14 14.51617442596244 -41.49284571237884
-6.577537410731314 12.94045291229778 -41.49284571237884
-11.72709980533356 8.555375510210613 -41.49284571237884
-9.698084631474559 2.312936953133701 -42.92841739985966
9.698084631474554 2.312936953133701 -37.07158260014033
0 2.312936953133701 -35.67799300689227
-9.698084631474554 2.312936953133701 -37.07158260014033
11.72709980533359 8.555375510210574 -38.50715428762116
6.57753741073141 12.94045291229773 -38.50715428762116
5.246067077430175e-14 14.51617442596244 -38.50715428762116
-6.577537410731314 12.94045291229778 -38.50715428762116
-11.72709980533356 8.555375510210613 -38.50715428762116
2.063771901723286 5.159493441948169 -35.67799300689228
-2.063771901723304 5.159493441948162 -35.67799300689228
2.063771901723286 5.159493441948169 -84.32200699310772
-2.063771901723304 5.159493441948162 -84.32200699310772
-7.105427357601002e-15 2.312936953133701 -84.32200699310772
9.698084631474559 2.312936953133701 -82.92841739985967
11.72709980533359 8.555375510210574 -81.49284571237884
6.57753741073141 12.94045291229773 -81.49284571237884
5.246067077430175e-14 14.51617442596244 -81.49284571237884
-6.577537410731314 12.94045291229778 -81.49284571237884
-11.72709980533356 8.555375510210613 -81.49284571237884
-9.698084631474559 2.312936953133701 -82.92841739985967
9.698084631474554 2.312936953133701 -77.07158260014033
0 2.312936953133701 -75.67799300689228
-9.698084631474554 2.312936953133701 -77.07158260014033
11.72709980533359 8.555375510210574 -78.50715428762116
6.57753741073141 12.94045291229773 -78.50715428762116
5.246067077430175e-14 14.51617442596244 -78.50715428762116
-6.577537410731314 12.94045291229778 -78.50715428762116
-11.72709980533356 8.555375510210613 -78.50715428762116
2.063771901723286 5.159493441948169 -75.67799300689227
-2.063771901723304 5.159493441948162 -75.67799300689227
13.22961969293313 0 -42.90742635274329
13.22961969293313 0 -37.09257364725672
8.75 0 -29.14239440551383
8.75 0 -22.60679580413538
8.75 0 -16.07119720275691
8.75 0 -9.535598601378425
5.875000000000016 0 0
3.730349362740526e-14 0 0
-5.874999999999972 0 0
-8.75 0 -9.535598601378446
-8.75 0 -16.07119720275689
-8.75 0 -22.60679580413536
-8.75 0 -29.14239440551384
-13.22961969293313 1.620161141088735e-15 -37.09257364725672
-13.22961969293313 1.620161141088734e-15 -42.90742635274329
-8.75 0 -50.59320419586464
-8.75 0 -56.86440139862153
-8.75 0 -63.13559860137845
-8.75 0 -69.40679580413538
-13.22961969293313 1.620161141088735e-15 -77.09257364725671
-13.22961969293313 1.620161141088734e-15 -82.90742635274327
-8.75 0 -90.26833916092311
-8.75 0 -96.21467132873849
-8.75 0 -102.1610034965539
-8.75 0 -108.1073356643693
-8.75 0 -114.0536678321847
2.916666666666666 0 -120
-2.916666666666668 0 -120
8.75 0 -90.26833916092311
8.75 0 -96.21467132873849
8.75 0 -102.1610034965539
8.75 0 -108.1073356643693
8.75 0 -114.0536678321847
13.22961969293313 0 -82.90742635274327
13.22961969293313 0 -77.09257364725671
8.75 0 -50.59320419586464
8.75 0 -56.86440139862153
8.75 0 -63.13559860137845
8.75 0 -69.40679580413538
16.36120380494458 6.777032512758346 -41.49284571237884
12.52232325940191 12.52232325940194 -41.49284571237884
6.7770325127583 16.3612038049446 -41.49284571237884
-6.576371990381536e-14 17.70923938586626 -41.49284571237884
-6.777032512758392 16.36120380494457 -41.49284571237884
-12.52232325940196 12.52232325940189 -41.49284571237884
-16.3612038049446 6.777032512758315 -41.49284571237884
-8.750000000000002 6.386210989720452 -43.66434651079446
-2.952825658670466 13.70159230977691 -42.65905075340243
2.952825658670491 13.70159230977691 -42.65905075340243
8.749999999999998 6.386210989720458 -43.66434651079446
16.36120380494458 6.777032512758346 -38.50715428762116
12.52232325940191 12.52232325940194 -38.50715428762116
6.7770325127583 16.3612038049446 -38.50715428762116
-6.576371990381536e-14 17.70923938586626 -38.50715428762116
-6.777032512758392 16.36120380494457 -38.50715428762116
-12.52232325940196 12.52232325940189 -38.50715428762116
-16.3612038049446 6.777032512758315 -38.50715428762116
8.749999999999998 6.386210989720421 -36.33565348920553
2.952825658670484 13.70159230977698 -37.34094924659756
-2.952825658670482 13.70159230977698 -37.34094924659756
-8.750000000000002 6.386210989720451 -36.33565348920554
8.75 6.666666666666651 -3
8.75 13.33333333333329 -3
8.75 20 -28.40198630783896
8.75 20 -22.05148973087923
8.75 20 -15.70099315391948
8.75 20 -9.350496576959728
8.75 16.32580753760978 -36.262471450708
-5.875000000000016 23 -3
-3.730349362740526e-14 23 -3
5.874999999999972 23 -3
-11.75 5.749999999999988 -3
-11.75 11.49999999999999 -3
-11.75 17.24999999999999 -3
-8.75 13.33333333333335 -3
-8.75 6.666666666666705 -3
-2.916666666666666 20 -3
2.916666666666668 20 -3
11.75 5.749999999999988 -3
11.75 11.49999999999999 -3
11.75 17.24999999999999 -3
11.75 5.749999999999988 0
11.75 11.49999999999999 0
11.75 17.24999999999999 0
-5.875000000000016 23 0
-3.730349362740526e-14 23 0
5.874999999999972 23 0
-11.75 5.749999999999988 0
-11.75 11.49999999999999 0
-11.75 17.24999999999999 0
-8.75 20 -9.350496576959733
-8.75 20 -15.70099315391947
-8.75 20 -22.05148973087922
-8.75 20 -28.40198630783897
-8.75 16.32580753760982 -36.26247145070798
-8.75 16.3258075376098 -43.73752854929201
-8.75 20 -68.85148973087922
-8.75 20 -62.95049657695974
-8.75 20 -57.04950342304026
-8.75 20 -51.14851026912078
-8.75 16.3258075376098 -76.26247145070799
-8.750000000000002 6.38621098972044 -76.33565348920554
8.749999999999998 6.386210989720437 -76.33565348920554
2.95282565867048 13.70159230977698 -77.34094924659756
-2.952825658670476 13.70159230977698 -77.34094924659756
16.36120380494458 6.777032512758346 -78.50715428762116
12.52232325940191 12.52232325940194 -78.50715428762116
6.7770325127583 16.3612038049446 -78.50715428762116
-6.576371990381536e-14 17.70923938586626 -78.50715428762116
-6.777032512758392 16.36120380494457 -78.50715428762116
-12.52232325940196 12.52232325940189 -78.50715428762116
-16.3612038049446 6.777032512758315 -78.50715428762116
16.36120380494458 6.777032512758346 -81.49284571237884
12.52232325940191 12.52232325940194 -81.49284571237884
6.7770325127583 16.3612038049446 -81.49284571237884
-6.576371990381536e-14 17.70923938586626 -81.49284571237884
-6.777032512758392 16.36120380494457 -81.49284571237884
-12.52232325940196 12.52232325940189 -81.49284571237884
-16.3612038049446 6.777032512758315 -81.49284571237884
-8.750000000000002 6.386210989720444 -83.66434651079446
-2.952825658670466 13.70159230977692 -82.65905075340241
2.952825658670496 13.70159230977692 -82.65905075340241
8.749999999999998 6.386210989720448 -83.66434651079446
-8.75 16.3258075376098 -83.73752854929201
-8.75 20 -108.8514897308792
-8.75 20 -102.9504965769598
-8.75 20 -97.04950342304026
-8.75 20 -91.14851026912078
-8.75 13.61571727553918 -117.3762414423993
-8.75 3.615717275539183 -120
2.916666666666666 7.231434551078368 -120
-2.916666666666668 7.231434551078368 -120
8.75 3.615717275539183 -120
8.75 16.3258075376098 -83.73752854929201
8.75 20 -108.8514897308792
8.75 20 -102.9504965769598
8.75 20 -97.04950342304026
8.75 20 -91.14851026912078
8.75 13.61571727553918 -117.3762414423993
8.75 16.3258075376098 -43.73752854929201
8.75 20 -68.85148973087922
8.75 20 -62.95049657695974
8.75 20 -57.04950342304026
8.75 20 -51.14851026912078
8.75 16.3258075376098 -76.26247145070799
2.916666666666666 20 -45.2475171152013
-2.916666666666668 20 -45.2475171152013
2.916666666666666 20 -34.7524828847987
-2.916666666666668 20 -34.7524828847987
2.916666666666666 20 -74.7524828847987
-2.916666666666668 20 -74.7524828847987
2.916666666666666 20 -85.2475171152013
-2.916666666666668 20 -85.2475171152013
2.916666666666666 20 -114.7524828847987
-2.916666666666668 20 -114.7524828847987
5.422875959744445 7.786986564561622 -43.0802736862606
-5.331356584300242 6.848619911331054 -43.33608203654073
-1.475395548015526e-14 8.602265016299238 -43.36034838743317
2.381512699503968 2.312936953133701 -40.00567468727915
-2.405652846632339 2.312936953133701 -40.00094578121319
11.34120611129189 2.312936953133701 -40
-11.34120611129189 2.312936953133701 -40
-7.065771384577783 2.312936953133701 -40.00011259300157
7.062897557538683 2.312936953133701 -40.00067555800943
3.381822610597643 14.11674876858749 -40.04437902830114
13.39755767406566 5.587912699304658 -39.95562097169886
9.411278439112925 11.05202054406587 -40.04437902830113
-13.39755767406565 5.587912699304684 -40.04437902830114
-9.411278439112866 11.05202054406593 -39.95562097169886
-3.346912343054317 14.1250662912737 -40
5.422875959745681 7.786986564560698 -36.91972631373939
-5.331356584299913 6.848619911330718 -36.66391796345913
-1.475395548015526e-14 8.602265016299242 -36.63965161256683
5.42287595974444 7.786986564561624 -83.0802736862606
-5.331356584300238 6.848619911331054 -83.33608203654072
-1.475395548015526e-14 8.602265016299238 -83.36034838743316
-2.340753307807333 2.312936953133701 -79.89565230111781
2.371686686885123 2.312936953133701 -80.08128172845602
-6.368467379970593 2.312936953133701 -79.97913046022356
6.374654055786152 2.312936953133701 -80.0162563456912
3.381822610597643 14.11674876858749 -80.04437902830114
13.39755767406566 5.587912699304658 -80.04437902830114
9.411278439112925 11.05202054406587 -80.04437902830114
-13.39755767406565 5.587912699304684 -80.04437902830114
-9.411278439112866 11.05202054406593 -80.04437902830114
-3.38182261059754 14.11674876858752 -80.04437902830114
5.422875959745698 7.786986564560687 -76.91972631373939
-5.331356584299909 6.84861991133072 -76.66391796345913
-1.475395548015525e-14 8.602265016299237 -76.63965161256684
4.141015201332462 0 -87.29517307701542
4.000344514802128 0 -47.45760559448618
-2.949379509581432 0 -72.24008031550954
-3.679968942476666 0 -31.28363367639159
0 0 -115.599601039335
-3.857154851914759 0 -105.1341695804616
2.730763845384295 0 -60.02985991089512
-2.820081237706024 0 -4.117327943477129
2.768912549794252 0 -19.40662804271577
-2.676913578391087 0 -38.42473527257671
-3.902392368259619 0 -79.37748730218948
-3.401312818948709 0 -93.32434440358388
3.430997432279415 0 -98.9334515226931
-3.318983910270617 0 -53.72880279724308
-3.090005582268219 0 -12.80339790206767
3.711723754135569 0 -5.676779261720071
3.476299216877845 0 -71.17348308289428
3.838314999570118 0 -81.21755128255778
2.915841969552596 0 -31.97229062139552
3.677403445575038 0 -42.04095871323107
-2.091611323615524 0 -84.88558300965076
-2.152742644514435 0 -44.98673741535819
-0.2126936844073128 0 -25.6251231755997
-0.01021672626498393 0 -65.99763628580213
3.3518321780533 0 -53.48358816154156
-3.838794603185333 0 -61.00458269944954
3.469274223969801 0 -12.01997921444041
-3.834363357951549 0 -20.39795620535
-10.23513673942078 0 -39.73745587876279
9.848349504645682 0 -40
-10.49753108638177 0 -79.89624788369824
10.48685152493352 0 -80.20292521375963
1.924788185290474 0 -105.0978287390397
-3.413312558272285 0 -99.67580038842792
3.56139824566977 0 -92.59313282597171
-14.79268490938484 0 -79.98941304935698
14.79159515821665 0 -80.02070665446527
14.66287708809968 0 -40
-14.68301386625332 0 -39.98633152221797
-3.42249972949578 0 -110.8784531867213
3.714934625999778 0 -111.3332379167902
4.795072570274074 0 -66.04082401294561
-4.934330827960693 0 -66.27119720275692
4.349410727639014 0 -37.20265964207125
4.874001806546423 0 -25.84233024253999
-5.045405196967105 0 -25.8111806533981
-0.7603944004490888 0 -8.305404596343109
1.70836147205465 0 -76.23083230973444
-4.659046896641756 0 -88.46461820602835
-4.569314517461457 0 -115.8193121573998
4.584539158054129 0 -115.8429889967412
-4.685826732460615 0 -48.65849610514637
-4.834096244084666 0 -7.552345808653271
-0.4574071075180246 0 -49.66172912415821
-0.436311181927552 0 -89.37264092114324
-12.89272871716343 3.955162362135251 -42.82654153250127
12.89272871716341 3.955162362135286 -42.82654153250127
12.0912956361515 8.079145448843283 -42.49297653460701
-12.09129563615151 8.079145448843247 -42.49297653460701
-17.36896131679478 3.454901214449333 -40.03251773434575
17.36896131679477 3.454901214449356 -40.03251773434574
-9.838726252205685 14.72469440633915 -40.03251773434575
-14.72469440633921 9.838726252205609 -40.03251773434575
9.83872625220561 14.7246944063392 -39.96748226565426
3.454901214449305 17.36896131679478 -40.03251773434574
-3.454901214449411 17.36896131679476 -40.03251773434574
14.74303745798718 9.811218381949496 -40
-12.95402544709963 3.797381151782013 -37.17768429896871
12.89272871716342 3.955162362135278 -37.17345846749873
12.09129563615149 8.079145448843279 -37.50702346539299
-12.44478015252436 7.908235466828576 -37.57107812849479
8.749999999999998 10.8521031396595 -32.26600563507201
8.749999999999998 14.83750038502574 -19.05069755008497
8.749999999999998 5.063138364450545 -12.83686039361112
8.749999999999998 6.580732149568737 -26.06980066778959
8.749999999999998 16.30766440087016 -31.48352937814763
8.749999999999998 5.65999441773179 -19.33899650344615
8.749999999999998 14.11729648820569 -25.93479557214379
8.749999999999998 14.86634272814685 -12.6272765230902
8.749999999999998 9.997532628238329 -8.620922759432307
8.749999999999998 4.881854390016658 -31.44157525218682
8.749999999999998 10.23300939660181 -21.74711981889318
8.749999999999998 10.05576365803764 -15.80866033752077
8.749999999999998 4.632846975086522 -7.629250485026176
8.749999999999998 15.6394417379437 -7.319739171896446
10.25 3.10416666666666 -3
-10.25 3.104166666666674 -3
11.75 20.125 -1.5
11.75 14.37499999999999 -1.5
11.75 8.624999999999988 -1.5
11.75 2.874999999999994 -1.5
3.157610638484556 18.22886740495932 0
-2.707174061168084 4.878797530676509 0
7.069955745470663 8.716546370640001 0
-6.619519168154188 14.39111856499582 0
7.102873022115113 14.37499999999999 0
0.1126091443291148 11.52691623390895 0
-7.000954855602265 8.644857627020135 0
-2.792058517349995 18.15992185565015 0
2.948495529093417 4.721447277005962 0
-7.528051718759414 18.81262893003678 0
7.528051718759418 4.187371069963205 0
7.820492259183636 19.07601590637069 0
-7.553981076842909 4.160878030182232 0
-11.75 20.125 -1.5
-11.75 8.624999999999988 -1.5
-11.75 14.37499999999999 -1.500000000000001
-11.75 2.874999999999994 -1.5
-8.750000000000002 12.49683164476845 -33.14542761694069
-8.750000000000002 14.79770600277477 -19.03049312941494
-8.750000000000002 4.558288275137441 -26.17581429870965
-8.750000000000002 5.063138364450555 -12.83686039361111
-8.750000000000002 4.901174230137192 -19.39477678435088
-8.750000000000002 14.61085671629743 -26.93020504499478
-8.750000000000002 14.86160530168841 -12.62487123491519
-8.750000000000002 9.997187334764718 -8.620747446883097
-8.750000000000002 8.489105726534227 -29.98611820540084
-8.750000000000002 16.68669917973514 -31.89851466105623
-8.750000000000002 9.921207003050453 -16.07119720275689
-8.750000000000002 9.546389658988586 -22.931434110938
-8.750000000000002 4.632821807923729 -7.629237707143574
-8.750000000000002 15.6384251939573 -7.319223051751603
-8.750000000000002 3.647630552186163 -32.16378621321612
-8.750000000000002 12.56943740457036 -73.27879977310623
-8.750000000000002 10.5247659671536 -47.33211143754792
-8.750000000000002 14.7091891116185 -60.08610035846485
-8.750000000000002 4.555650098428236 -66.54934579727717
-8.750000000000002 6.231601382899964 -53.5808010526754
-8.750000000000002 15.91989168359837 -48.22347052633867
-8.750000000000002 5.16182483896552 -60.21678524110109
-8.750000000000002 13.93204623767526 -53.63649472320905
-8.750000000000002 14.64097847913171 -67.38624365271079
-8.750000000000002 8.534121566914338 -70.21543873931056
-8.750000000000002 16.80129015567622 -72.24563677992957
-8.750000000000002 9.743834820849424 -63.57313290802955
-8.750000000000002 4.723311680151343 -48.33750983785161
-8.750000000000002 3.639766488311366 -72.30672462257192
-8.750000000000002 9.955699278401735 -58.21866285669599
-12.95402544709964 3.797381151781996 -77.17768429896871
12.89272871716342 3.955162362135287 -77.17345846749873
12.09129563615149 8.079145448843283 -77.50702346539299
-12.44478015252435 7.908235466828565 -77.57107812849479
-17.36896131679478 3.454901214449333 -79.96748226565425
17.36896131679477 3.454901214449355 -80.03251773434573
-14.72469440633921 9.838726252205609 -80.03251773434575
-9.838726252205676 14.72469440633916 -79.96748226565427
9.83872625220561 14.7246944063392 -79.96748226565425
3.487322712251386 17.36248081140862 -80
-3.454901214449411 17.36896131679476 -80.03251773434573
14.74303745798718 9.811218381949496 -80
-12.89272871716343 3.955162362135251 -82.82654153250127
12.89272871716342 3.955162362135279 -82.82654153250127
12.09129563615149 8.079145448843281 -82.49297653460701
-12.09129563615151 8.079145448843246 -82.49297653460701
-8.750000000000002 10.52476596715359 -87.33211143754792
-8.750000000000002 14.92075560206726 -105.7353910329989
-8.750000000000002 5.149674716668715 -99.18783741264619
-8.750000000000002 8.841857973911003 -114.4156262801823
-8.750000000000002 15.34419891476723 -93.23654388358622
-8.750000000000002 16.43895448390612 -88.14044225094965
-8.750000000000002 5.112473265074622 -93.15763916690996
-8.750000000000002 4.871526828470458 -105.2241753173603
-8.750000000000002 14.92169720339953 -99.83889757907419
-8.750000000000002 14.91794989922228 -111.7571561854067
-8.750000000000002 4.818364134239705 -111.1691186625297
-8.750000000000002 9.773224089747991 -108.6473700857615
-8.750000000000002 4.901474786953652 -115.9276825549793
-8.750000000000002 9.80557606964739 -102.1610034965539
-8.750000000000002 10.14306435611851 -95.81900549605307
-8.750000000000002 4.404690044389731 -87.74888865385662
0 3.615717275539184 -120
5.165945933560927 3.615717275539184 -120
-5.165945933560927 3.615717275539184 -120
8.749999999999998 10.52476596715359 -87.33211143754792
8.749999999999998 14.92075560206726 -105.7353910329989
8.749999999999998 5.149674716668715 -99.18783741264619
8.749999999999998 8.841857973911003 -114.4156262801823
8.749999999999998 15.34419891476723 -93.23654388358622
8.749999999999998 16.43895448390612 -88.14044225094965
8.749999999999998 5.112473265074622 -93.15763916690996
8.749999999999998 4.871526828470458 -105.2241753173603
8.749999999999998 14.92169720339953 -99.83889757907419
8.749999999999998 14.91794989922228 -111.7571561854067
8.749999999999998 4.818364134239705 -111.1691186625297
8.749999999999998 9.773224089747991 -108.6473700857615
8.749999999999998 4.901474786953652 -115.9276825549793
8.749999999999998 9.80557606964739 -102.1610034965539
8.749999999999998 10.14306435611851 -95.81900549605307
8.749999999999998 4.404690044389733 -87.74888865385662
8.749999999999998 12.56943740457036 -73.27879977310623
8.749999999999998 10.5247659671536 -47.33211143754792
8.749999999999998 14.7091891116185 -60.08610035846485
8.749999999999998 4.555650098428235 -66.54934579727717
8.749999999999998 6.231601382899965 -53.5808010526754
8.749999999999998 15.91989168359837 -48.22347052633867
8.749999999999998 5.161824838965522 -60.21678524110109
8.749999999999998 13.93204623767526 -53.63649472320905
8.749999999999998 14.64097847913171 -67.38624365271079
8.749999999999998 8.534121566914337 -70.21543873931056
8.749999999999998 16.80129015567622 -72.24563677992957
8.749999999999998 9.743834820849424 -63.57313290802955
8.749999999999998 4.723311680151344 -48.33750983785161
8.749999999999998 3.639766488311365 -72.30672462257192
8.749999999999998 9.955699278401736 -58.21866285669599
4.673898465067431 17.37275643297905 -44.16779475806609
-4.673898465067424 17.37275643297905 -44.16779475806609
7.105427357601002e-15 17.02478291425199 -44.02478754222327
-4.673898465067431 17.37275643297907 -35.83220524193391
4.673898465067429 17.37275643297907 -35.83220524193391
1.77635683940025e-15 17.02478291425201 -35.97521245777672
-1.77635683940025e-15 20 -29.70066802938947
0 20 -8.051814855409225
3.250308637706745 20 -18.87624144239935
-3.250308637706745 20 -18.87624144239934
3.586971428319352 20 -25.78034257536197
3.196568679621389 20 -12.74650792964824
-3.212631370013955 20 -25.04632514144804
-3.688768571800018 20 -12.0089341534715
4.800727618997204 20 -30.67759253643756
4.578871472714749 20 -7.327550962492968
-4.578871472714749 20 -7.327550962492966
-4.578871472714749 20 -30.42493192230573
8.812499999999986 23 -1.5
2.937499999999966 23 -1.5
-8.812500000000007 23 -1.5
-2.937500000000028 23 -1.5
0 20 -70.37630392122497
1.77635683940025e-15 20 -49.62369607877503
-3.639590021147676 20 -60.00000000000001
3.639590021147675 20 -60
-3.597255810364731 20 -66.42578651799003
-2.563420691577244 20 -54.49218298457998
3.902553476301797 20 -53.77096112632769
2.627734358597577 20 -65.58278749600153
4.608880205052849 20 -70.86310938354062
4.49139632054776 20 -49.52456427504326
-4.491396320547762 20 -70.47543572495675
-4.596017471648786 20 -49.15188471257568
4.673898465067428 17.37275643297907 -75.83220524193391
-4.673898465067431 17.37275643297907 -75.83220524193391
0 17.02478291425201 -75.97521245777672
4.673898465067432 17.37275643297905 -84.16779475806609
-4.673898465067428 17.37275643297905 -84.16779475806609
7.105427357601002e-15 17.02478291425199 -84.02478754222327
0 20 -110.376303921225
0 20 -89.62369607877503
3.639590021147675 20 -100
-3.639590021147676 20 -100
2.563420691577245 20 -94.49218298457998
-3.902553476301797 20 -93.77096112632769
-2.563420691577244 20 -105.50781701542
3.902553476301797 20 -106.2290388736723
-4.491396320547761 20 -89.52456427504325
4.491396320547761 20 -110.4754357249567
-4.596017471648782 20 -110.8481152874243
4.596017471648783 20 -89.15188471257568
-1.77635683940025e-15 15.32739370588983 -116.6727911292156
-1.77635683940025e-15 10.12748292693282 -118.809806514323
-5.833333333333334 16.80785863776959 -116.064362163599
-4.375 11.72355360804803 -118.1538668749228
5.833333333333333 16.80785863776959 -116.064362163599
4.375 11.72355360804803 -118.1538668749228
-1.465494392505207e-14 8.743761053859361 -92.74139556146784
-1.465494392505207e-14 8.683146662236938 -52.51003635413723
-1.376676550535194e-14 8.60602912872268 -27.76824147429327
-1.451120128208531e-14 8.58055074430222 -67.85945498512312
-1.77635683940025e-15 9.536158728853147 -109.97609074622
0.03793157757344368 10.56778849742275 -18.76525276121663
-3.552713678800501e-15 11.71142115877593 -101.2405153634597
1.073431401721336e-05 8.750228419725115 -10.00565264639177
-0.8378142857624171 11.91824405461356 -60.20671202261548
2.433384021170684 13.80704413334542 -89.19746213592609
-2.433384021170688 13.80704413334546 -49.19746213592605
2.425087676678082 13.90045397561848 -30.75867909615632
2.430404629107841 13.85516040205383 -70.82224184421561
-1.996309444509185 14.01559809942674 -5.836508080309579
2.886822072943108 5.696867736044808 -113.9546106883885
-1.128834634142548 6.161423273825748 -103.7279501425691
-3.461856635732085 14.23316341743407 -30.98534081771153
-7.549516567451064e-15 4.484339199133558 -30.94728122910997
-3.528012803372309 13.1752398441554 -70.16009232384805
-7.734872401815824e-15 4.484339199133522 -70.99722673684937

CELLS 3145 13837
1 0
1 1
1 2
1 3
1 4
1 5
1 6
1 7
1 8
1 9
1 10
1 11
1 12
1 13
1 14
1 15
1 16
1 17
1 18
1 19
1 20
1 21
1 22
1 23
1 24
1 25
1 26
1 27
1 28
1 29
1 30
1 31
1 32
1 33
1 34
1 35
1 36
1 37
1 38
1 39
1 40
1 41
1 42
1 43
1 44
1 45
1 46
1 47
1 48
1 49
1 50
1 51
1 52
1 53
1 54
1 55
1 56
1 57
1 58
1 59
1 60
1 61
1 62
1 63
1 64
1 65
2 0 66
2 66 67
2 67 1
2 1 68
2 68 0
2 0 69
2 69 2
2 2 70
2 70 71
2 71 72
2 72 73
2 73 74
2 74 3
2 3 75
2 75 1
2 2 4
2 4 76
2 76 5
2 5 77
2 77 6
2 6 78
2 78 7
2 3 7
2 4 79
2 79 80
2 80 81
2 81 82
2 82 83
2 83 7
2 5 84
2 84 85
2 85 6
2 8 86
2 86 87
2 87 9
2 9 88
2 88 8
2 8 89
2 89 10
2 10 90
2 90 91
2 91 92
2 92 93
2 93 94
2 94 11
2 11 95
2 95 9
2 10 12
2 12 96
2 96 13
2 13 97
2 97 14
2 14 98
2 98 15
2 11 15
2 12 99
2 99 100
2 100 101
2 101 102
2 102 103
2 103 15
2 13 104
2 104 105
2 105 14
2 16 106
2 106 17
2 17 18
2 18 107
2 107 19
2 19 108
2 108 109
2 109 110
2 110 111
2 111 20
2 20 21
2 21 22
2 22 112
2 112 113
2 113 114
2 114 23
2 24 23
2 24 25
2 25 115
2 115 116
2 116 117
2 117 118
2 118 26
2 27 119
2 119 26
2 28 27
2 29 120
2 120 28
2 29 121
2 121 122
2 122 123
2 123 124
2 124 30
2 31 125
2 125 30
2 32 31
2 33 126
2 126 32
2 33 127
2 127 128
2 128 129
2 129 130
2 130 131
2 131 34
2 35 132
2 132 133
2 133 34
2 36 134
2 134 135
2 135 136
2 136 137
2 137 138
2 138 35
2 36 139
2 139 37
2 37 38
2 38 140
2 140 39
2 16 141
2 141 142
2 142 143
2 143 144
2 144 39
2 17 145
2 145 146
2 146 147
2 147 148
2 148 149
2 149 150
2 150 151
2 151 28
2 40 152
2 152 29
2 40 153
2 153 154
2 154 41
2 41 155
2 155 16
2 18 156
2 156 157
2 157 158
2 158 159
2 159 160
2 160 161
2 161 162
2 162 27
2 19 163
2 163 42
2 42 164
2 164 165
2 165 43
2 26 166
2 166 43
2 20 167
2 167 168
2 168 44
2 45 169
2 169 170
2 170 171
2 171 172
2 172 44
2 42 173
2 173 45
2 47 174
2 174 175
2 175 176
2 176 46
2 24 177
2 177 178
2 178 179
2 179 47
2 48 180
2 180 181
2 181 25
2 48 182
2 182 183
2 183 44
2 21 184
2 184 185
2 185 186
2 186 46
2 22 187
2 187 188
2 188 189
2 189 49
2 46 49
2 50 190
2 190 191
2 191 192
2 192 49
2 23 193
2 193 194
2 194 195
2 195 50
2 47 50
2 48 196
2 196 197
2 197 198
2 198 199
2 199 51
2 43 200
2 200 51
2 52 201
2 201 40
2 53 202
2 202 203
2 203 204
2 204 205
2 205 52
2 54 206
2 206 53
2 30 207
2 207 54
2 39 208
2 208 55
2 55 209
2 209 210
2 210 54
2 38 211
2 211 212
2 212 213
2 213 214
2 214 215
2 215 216
2 216 217
2 217 31
2 37 218
2 218 219
2 219 220
2 220 221
2 221 222
2 222 223
2 223 224
2 224 32
2 56 225
2 225 33
2 56 226
2 226 227
2 227 57
2 57 228
2 228 36
2 58 229
2 229 56
2 59 230
2 230 231
2 231 232
2 232 233
2 233 58
2 60 234
2 234 59
2 34 235
2 235 60
2 61 236
2 236 237
2 237 60
2 35 238
2 238 61
2 62 239
2 239 57
2 63 240
2 240 241
2 241 242
2 242 243
2 243 62
2 61 244
2 244 63
2 64 245
2 245 41
2 65 246
2 246 247
2 247 248
2 248 249
2 249 64
2 55 250
2 250 65
2 64 251
2 251 252
2 252 52
2 45 253
2 253 254
2 254 51
2 65 255
2 255 256
2 256 53
2 62 257
2 257 258
2 258 58
2 63 259
2 259 260
2 260 59
3 66 0 68
3 68 1 67
3 67 66 68
3 66 261 0
3 0 261 69
3 1 262 67
3 75 262 1
3 2 69 70
3 74 75 3
3 67 263 66
3 66 263 261
3 262 263 67
3 69 261 70
3 70 261 71
3 71 263 72
3 261 263 71
3 72 263 73
3 73 262 74
3 73 263 262
3 74 262 75
3 68 0 264
3 0 69 269
3 264 0 269
3 1 68 265
3 75 1 268
3 1 265 268
3 2 4 266
3 69 2 266
3 7 3 267
3 3 75 267
3 4 76 266
3 76 5 269
3 5 77 264
3 5 264 269
3 77 6 265
3 6 78 268
3 265 6 268
3 78 7 267
3 68 264 265
3 69 266 269
3 267 75 268
3 266 76 269
3 264 77 265
3 78 267 268
3 2 271 4
3 70 271 2
3 7 273 3
3 3 273 74
3 4 271 79
3 83 273 7
3 71 272 70
3 79 271 70
3 70 272 79
3 72 270 71
3 71 270 80
3 80 272 71
3 73 275 72
3 81 270 72
3 72 275 81
3 74 274 73
3 73 274 82
3 82 275 73
3 74 273 83
3 83 274 74
3 79 272 80
3 80 270 81
3 81 275 82
3 82 274 83
3 4 79 76
3 76 276 5
3 5 276 84
3 6 277 78
3 85 277 6
3 83 7 78
3 79 276 76
3 78 277 83
3 80 276 79
3 81 278 80
3 80 278 276
3 82 278 81
3 83 277 82
3 277 278 82
3 84 278 85
3 276 278 84
3 85 278 277
3 77 5 84
3 85 6 77
3 77 84 85
3 86 8 88
3 88 9 87
3 87 86 88
3 86 279 8
3 8 279 89
3 9 280 87
3 95 280 9
3 10 89 90
3 94 95 11
3 87 281 86
3 86 281 279
3 280 281 87
3 89 279 90
3 90 279 91
3 91 281 92
3 279 281 91
3 92 281 93
3 93 280 94
3 93 281 280
3 94 280 95
3 88 8 283
3 8 89 285
3 283 8 285
3 9 88 282
3 95 9 284
3 9 282 284
3 89 10 12
3 95 15 11
3 89 12 96
3 96 13 285
3 13 97 283
3 13 283 285
3 97 14 282
3 14 98 284
3 282 14 284
3 15 95 98
3 282 88 283
3 89 96 285
3 98 95 284
3 97 282 283
3 10 287 12
3 90 287 10
3 15 289 11
3 11 289 94
3 12 287 99
3 103 289 15
3 91 288 90
3 99 287 90
3 90 288 99
3 92 286 91
3 91 286 100
3 100 288 91
3 93 291 92
3 101 286 92
3 92 291 101
3 94 290 93
3 93 290 102
3 102 291 93
3 94 289 103
3 103 290 94
3 99 288 100
3 100 286 101
3 101 291 102
3 102 290 103
3 12 99 96
3 96 292 13
3 13 292 104
3 14 293 98
3 105 293 14
3 103 15 98
3 99 292 96
3 98 293 103
3 100 292 99
3 101 294 100
3 100 294 292
3 102 294 101
3 103 293 102
3 293 294 102
3 104 294 105
3 292 294 104
3 105 294 293
3 97 13 104
3 105 14 97
3 97 104 105
3 106 324 16
3 16 296 141
3 16 314 296
3 16 324 314
3 18 332 17
3 17 332 106
3 107 332 18
3 19 324 107
3 108 313 19
3 313 338 19
3 19 338 324
3 21 22 20
3 20 22 112
3 20 310 111
3 112 310 20
3 23 24 25
3 114 23 25
3 25 302 114
3 115 347 25
3 25 347 302
3 26 298 118
3 119 323 26
3 26 304 298
3 26 323 304
3 28 333 27
3 27 333 119
3 120 333 28
3 29 323 120
3 121 346 29
3 29 316 304
3 304 323 29
3 29 346 316
3 30 297 124
3 125 325 30
3 30 305 297
3 30 325 305
3 32 330 31
3 31 330 125
3 126 330 32
3 33 325 126
3 127 343 33
3 33 315 305
3 305 325 33
3 33 343 315
3 34 344 131
3 133 344 34
3 35 345 132
3 138 345 35
3 36 295 134
3 139 326 36
3 36 312 295
3 36 326 312
3 38 331 37
3 37 331 139
3 140 331 38
3 39 326 140
3 144 311 39
3 311 342 39
3 312 326 39
3 39 342 312
3 106 332 324
3 324 332 107
3 109 339 108
3 108 339 313
3 110 303 109
3 303 339 109
3 111 321 110
3 110 321 303
3 310 321 111
3 113 310 112
3 114 302 113
3 302 310 113
3 116 309 115
3 309 347 115
3 117 322 116
3 116 322 309
3 118 340 117
3 117 340 322
3 298 340 118
3 119 333 323
3 323 333 120
3 122 308 121
3 308 346 121
3 123 320 122
3 122 320 308
3 124 337 123
3 123 337 320
3 297 337 124
3 125 330 325
3 325 330 126
3 128 306 127
3 306 343 127
3 129 328 128
3 128 328 306
3 130 300 129
3 300 328 129
3 131 334 130
3 130 334 300
3 131 344 334
3 132 299 133
3 132 345 299
3 299 344 133
3 134 329 135
3 295 329 134
3 135 307 136
3 135 329 307
3 136 327 137
3 307 327 136
3 137 335 138
3 327 335 137
3 335 345 138
3 139 331 326
3 326 331 140
3 141 319 142
3 296 319 141
3 142 301 143
3 142 319 301
3 143 336 144
3 301 336 143
3 144 336 311
3 312 315 295
3 315 349 295
3 295 349 329
3 314 316 296
3 316 348 296
3 296 348 319
3 305 342 297
3 311 318 297
3 297 342 311
3 318 337 297
3 304 313 298
3 313 317 298
3 317 340 298
3 299 335 334
3 334 344 299
3 299 345 335
3 327 328 300
3 300 334 327
3 301 319 308
3 308 320 301
3 301 320 318
3 318 336 301
3 302 341 310
3 302 347 341
3 303 321 309
3 309 322 303
3 303 322 317
3 317 339 303
3 304 338 313
3 304 316 314
3 314 338 304
3 305 315 312
3 312 342 305
3 306 328 307
3 307 329 306
3 329 349 306
3 306 349 343
3 307 328 327
3 319 348 308
3 308 348 346
3 321 341 309
3 341 347 309
3 310 341 321
3 311 336 318
3 313 339 317
3 324 338 314
3 343 349 315
3 346 348 316
3 322 340 317
3 320 337 318
3 334 335 327
3 16 351 106
3 155 351 16
3 106 351 17
3 17 351 145
3 28 350 120
3 151 350 28
3 120 350 29
3 29 350 152
3 149 40 150
3 149 153 40
3 40 353 150
3 152 353 40
3 146 41 147
3 146 352 41
3 154 147 41
3 41 352 155
3 145 352 146
3 351 352 145
3 148 147 154
3 149 148 153
3 148 154 153
3 150 353 151
3 151 353 350
3 350 353 152
3 155 352 351
3 17 355 18
3 145 355 17
3 18 355 156
3 27 354 28
3 162 354 27
3 28 354 151
3 146 361 145
3 156 355 145
3 145 361 156
3 147 358 146
3 146 358 157
3 157 361 146
3 148 359 147
3 158 358 147
3 147 359 158
3 149 360 148
3 159 359 148
3 148 360 159
3 150 356 149
3 149 356 160
3 160 360 149
3 151 357 150
3 161 356 150
3 150 357 161
3 151 354 162
3 162 357 151
3 156 361 157
3 157 358 158
3 158 359 159
3 159 360 160
3 160 356 161
3 161 357 162
3 18 363 107
3 156 363 18
3 107 363 19
3 19 363 163
3 26 362 119
3 166 362 26
3 119 362 27
3 27 362 162
3 157 158 42
3 42 364 157
3 42 158 164
3 163 364 42
3 160 161 43
3 160 43 165
3 161 365 43
3 43 365 166
3 157 364 156
3 156 364 363
3 164 158 159
3 160 165 159
3 164 159 165
3 162 365 161
3 362 365 162
3 363 364 163
3 166 365 362
3 19 375 108
3 163 375 19
3 111 378 20
3 20 378 167
3 42 366 163
3 173 366 42
3 168 379 44
3 44 379 172
3 169 370 45
3 45 370 173
3 108 369 109
3 108 375 369
3 109 371 110
3 369 371 109
3 110 368 111
3 110 371 368
3 368 378 111
3 366 375 163
3 167 374 168
3 167 378 374
3 374 379 168
3 170 372 169
3 169 372 370
3 171 367 170
3 367 372 170
3 172 373 171
3 171 373 367
3 172 379 373
3 173 370 366
3 366 372 369
3 369 375 366
3 370 372 366
3 367 376 372
3 373 377 367
3 367 377 376
3 371 377 368
3 368 377 374
3 374 378 368
3 369 376 371
3 372 376 369
3 376 377 371
3 374 377 373
3 373 379 374
3 21 20 380
3 20 167 380
3 184 21 380
3 25 24 381
3 24 177 381
3 181 25 381
3 46 44 176
3 186 44 46
3 186 168 44
3 44 183 176
3 47 174 48
3 47 48 179
3 174 182 48
3 48 180 179
3 168 185 167
3 185 184 167
3 167 184 380
3 186 185 168
3 182 174 175
3 176 183 175
3 183 182 175
3 177 178 181
3 177 181 381
3 180 178 179
3 178 180 181
3 21 385 22
3 184 385 21
3 22 385 187
3 49 382 46
3 46 382 186
3 189 382 49
3 185 384 184
3 184 384 187
3 187 385 184
3 186 383 185
3 185 383 188
3 188 384 185
3 186 382 189
3 189 383 186
3 187 384 188
3 188 383 189
3 22 396 112
3 187 396 22
3 114 398 23
3 23 398 193
3 49 397 189
3 192 397 49
3 50 395 190
3 195 395 50
3 112 394 113
3 112 396 394
3 113 387 114
3 113 394 387
3 387 398 114
3 188 388 187
3 388 396 187
3 189 390 188
3 188 390 388
3 189 397 390
3 190 393 191
3 190 395 393
3 191 386 192
3 191 393 386
3 386 397 192
3 193 392 194
3 193 398 392
3 194 389 195
3 194 392 389
3 389 395 195
3 386 391 390
3 390 397 386
3 386 393 391
3 391 392 387
3 387 394 391
3 392 398 387
3 390 391 388
3 391 394 388
3 394 396 388
3 389 392 391
3 391 393 389
3 393 395 389
3 24 23 402
3 23 193 402
3 177 24 402
3 50 47 399
3 47 179 399
3 195 50 399
3 178 177 400
3 177 193 400
3 193 177 402
3 179 178 401
3 194 178 400
3 178 194 401
3 179 195 399
3 195 179 401
3 193 194 400
3 194 195 401
3 115 25 415
3 25 181 415
3 26 118 417
3 166 26 417
3 43 166 403
3 200 43 403
3 180 48 416
3 48 196 416
3 199 51 412
3 51 200 412
3 116 115 406
3 406 115 415
3 117 116 407
3 116 406 407
3 118 117 405
3 405 117 407
3 118 405 417
3 403 166 411
3 411 166 417
3 181 180 410
3 410 180 416
3 181 410 415
3 196 197 409
3 196 409 416
3 197 198 404
3 197 404 409
3 198 199 408
3 404 198 408
3 408 199 412
3 200 403 412
3 408 403 411
3 403 408 412
3 404 408 414
3 409 404 413
3 413 404 414
3 405 407 414
3 411 405 414
3 405 411 417
3 407 406 413
3 406 410 413
3 410 406 415
3 407 413 414
3 408 411 414
3 410 409 413
3 409 410 416
3 121 29 430
3 29 152 430
3 30 124 431
3 207 30 431
3 152 40 419
3 40 201 419
3 201 52 423
3 52 205 423
3 202 53 428
3 53 206 428
3 206 54 418
3 54 207 418
3 122 121 422
3 422 121 430
3 123 122 424
3 122 422 424
3 124 123 421
3 421 123 424
3 124 421 431
3 152 419 430
3 419 201 423
3 203 202 426
3 426 202 428
3 204 203 420
3 420 203 426
3 205 204 425
3 204 420 425
3 423 205 425
3 206 418 428
3 418 207 427
3 427 207 431
3 426 418 427
3 418 426 428
3 422 419 425
3 419 422 430
3 419 423 425
3 425 420 432
3 420 426 429
3 420 429 432
3 421 424 429
3 427 421 429
3 421 427 431
3 424 422 432
3 422 425 432
3 429 424 432
3 426 427 429
3 30 433 125
3 207 433 30
3 125 433 31
3 31 433 217
3 38 434 140
3 211 434 38
3 140 434 39
3 39 434 208
3 54 436 207
3 215 54 210
3 215 216 54
3 216 436 54
3 208 435 55
3 55 213 209
3 212 213 55
3 55 435 212
3 207 436 433
3 434 435 208
3 210 209 214
3 209 213 214
3 215 210 214
3 212 435 211
3 211 435 434
3 217 436 216
3 433 436 217
3 31 437 32
3 217 437 31
3 32 437 224
3 37 438 38
3 218 438 37
3 38 438 211
3 211 444 212
3 211 438 218
3 218 444 211
3 212 441 213
3 219 441 212
3 212 444 219
3 213 442 214
3 213 441 220
3 220 442 213
3 214 443 215
3 214 442 221
3 221 443 214
3 215 440 216
3 222 440 215
3 215 443 222
3 216 439 217
3 223 439 216
3 216 440 223
3 224 437 217
3 217 439 224
3 219 444 218
3 220 441 219
3 221 442 220
3 222 443 221
3 223 440 222
3 224 439 223
3 32 445 126
3 224 445 32
3 126 445 33
3 33 445 225
3 36 446 139
3 228 446 36
3 139 446 37
3 37 446 218
3 222 56 223
3 226 56 222
3 56 448 223
3 225 448 56
3 219 57 220
3 219 447 57
3 227 220 57
3 57 447 228
3 218 447 219
3 446 447 218
3 221 220 227
3 222 221 226
3 226 221 227
3 223 448 224
3 224 448 445
3 445 448 225
3 228 447 446
3 127 33 464
3 33 225 464
3 34 131 235
3 225 56 449
3 56 229 449
3 229 58 454
3 58 233 454
3 230 59 458
3 59 234 458
3 234 60 452
3 60 235 461
3 452 60 461
3 128 127 455
3 455 127 464
3 129 128 451
3 451 128 455
3 130 129 456
3 129 451 456
3 131 130 459
3 130 456 459
3 235 131 461
3 131 459 461
3 225 449 464
3 449 229 454
3 231 230 450
3 450 230 458
3 232 231 457
3 231 450 457
3 233 232 453
3 453 232 457
3 233 453 454
3 234 452 458
3 453 449 454
3 449 453 463
3 455 449 463
3 449 455 464
3 457 450 462
3 450 458 460
3 450 460 462
3 451 455 463
3 456 451 462
3 462 451 463
3 458 452 460
3 452 459 460
3 459 452 461
3 453 457 463
3 459 456 460
3 460 456 462
3 457 462 463
3 34 467 133
3 235 467 34
3 132 466 35
3 35 466 238
3 60 467 235
3 237 467 60
3 61 466 236
3 238 466 61
3 133 465 132
3 465 466 132
3 133 467 465
3 236 465 237
3 236 466 465
3 465 467 237
3 238 138 35
3 134 483 36
3 36 483 228
3 228 468 57
3 57 468 239
3 61 480 238
3 244 471 61
3 471 480 61
3 239 473 62
3 62 473 243
3 240 477 63
3 63 477 244
3 135 474 134
3 474 483 134
3 136 470 135
3 470 474 135
3 137 475 136
3 136 475 470
3 138 478 137
3 137 478 475
3 238 480 138
3 138 480 478
3 228 483 468
3 468 473 239
3 241 469 240
3 469 477 240
3 242 476 241
3 241 476 469
3 243 472 242
3 472 476 242
3 243 473 472
3 244 477 471
3 472 473 468
3 468 482 472
3 474 482 468
3 468 483 474
3 476 481 469
3 469 479 477
3 469 481 479
3 470 482 474
3 475 481 470
3 481 482 470
3 477 479 471
3 471 479 478
3 478 480 471
3 472 482 476
3 478 479 475
3 479 481 475
3 476 482 481
3 141 496 16
3 16 496 155
3 39 497 144
3 208 497 39
3 155 485 41
3 41 485 245
3 55 484 208
3 250 484 55
3 245 489 64
3 64 489 249
3 246 494 65
3 65 494 250
3 142 488 141
3 488 496 141
3 143 490 142
3 142 490 488
3 144 487 143
3 487 490 143
3 144 497 487
3 155 496 485
3 484 493 208
3 493 497 208
3 485 489 245
3 247 492 246
3 492 494 246
3 248 486 247
3 486 492 247
3 249 491 248
3 248 491 486
3 489 491 249
3 250 494 484
3 492 493 484
3 484 494 492
3 488 491 485
3 485 496 488
3 485 491 489
3 491 498 486
3 486 495 492
3 486 498 495
3 487 495 490
3 493 495 487
3 487 497 493
3 490 498 488
3 488 498 491
3 495 498 490
3 492 495 493
3 201 40 153
3 154 41 245
3 201 500 52
3 52 500 252
3 64 499 245
3 251 499 64
3 154 501 153
3 153 500 201
3 153 501 500
3 245 499 154
3 499 501 154
3 252 501 251
3 251 501 499
3 500 501 252
3 173 42 164
3 165 43 200
3 173 503 45
3 45 503 253
3 51 502 200
3 254 502 51
3 165 504 164
3 164 503 173
3 164 504 503
3 200 502 165
3 502 504 165
3 253 504 254
3 503 504 253
3 254 504 502
3 172 514 44
3 44 514 183
3 45 513 169
3 253 513 45
3 182 515 48
3 48 515 196
3 199 516 51
3 51 516 254
3 169 509 170
3 169 513 509
3 170 507 171
3 170 509 507
3 171 510 172
3 507 510 171
3 510 514 172
3 183 506 182
3 506 515 182
3 183 514 506
3 196 512 197
3 196 515 512
3 197 508 198
3 197 512 508
3 198 511 199
3 508 511 198
3 511 516 199
3 254 505 253
3 505 513 253
3 254 516 505
3 505 511 509
3 509 513 505
3 505 516 511
3 510 512 506
3 506 514 510
3 512 515 506
3 508 510 507
3 507 511 508
3 509 511 507
3 508 512 510
3 46 517 49
3 176 517 46
3 50 519 47
3 47 519 174
3 49 517 192
3 190 519 50
3 174 520 175
3 174 519 190
3 190 520 174
3 175 518 176
3 191 518 175
3 175 520 191
3 192 517 176
3 176 518 192
3 191 520 190
3 192 518 191
3 52 532 205
3 252 532 52
3 202 531 53
3 53 531 256
3 249 530 64
3 64 530 251
3 65 529 246
3 255 529 65
3 203 525 202
3 525 531 202
3 204 523 203
3 523 525 203
3 205 526 204
3 204 526 523
3 205 532 526
3 246 528 247
3 246 529 528
3 247 524 248
3 247 528 524
3 248 527 249
3 524 527 248
3 527 530 249
3 251 522 252
3 251 530 522
3 522 532 252
3 256 521 255
3 521 529 255
3 256 531 521
3 525 528 521
3 521 531 525
3 528 529 521
3 522 527 526
3 526 532 522
3 522 530 527
3 523 526 524
3 524 528 523
3 523 528 525
3 526 527 524
3 53 534 206
3 256 534 53
3 210 54 206
3 250 55 209
3 250 533 65
3 65 533 255
3 206 534 210
3 210 535 209
3 209 533 250
3 209 535 533
3 534 535 210
3 255 535 256
3 533 535 255
3 256 535 534
3 56 226 229
3 227 57 239
3 229 537 58
3 58 537 258
3 62 536 239
3 257 536 62
3 227 538 226
3 226 537 229
3 226 538 537
3 239 536 227
3 536 538 227
3 258 538 257
3 257 538 536
3 537 538 258
3 58 547 233
3 258 547 58
3 230 549 59
3 59 549 260
3 243 550 62
3 62 550 257
3 63 548 240
3 259 548 63
3 231 545 230
3 545 549 230
3 232 542 231
3 542 545 231
3 233 544 232
3 232 544 542
3 233 547 544
3 240 546 241
3 240 548 546
3 241 541 242
3 241 546 541
3 242 543 243
3 541 543 242
3 543 550 243
3 257 540 258
3 257 550 540
3 540 547 258
3 260 539 259
3 539 548 259
3 260 549 539
3 545 546 539
3 539 549 545
3 546 548 539
3 543 544 540
3 540 550 543
3 544 547 540
3 542 543 541
3 541 545 542
3 541 546 545
3 542 544 543
3 59 553 234
3 260 553 59
3 234 554 60
3 60 554 237
3 236 556 61
3 61 556 244
3 244 555 63
3 63 555 259
3 553 554 234
3 237 552 236
3 552 556 236
3 237 554 552
3 244 556 555
3 259 551 260
3 259 555 551
3 551 553 260
3 552 554 551
3 551 556 552
3 551 554 553
3 555 556 551
4 349 343 87 557
4 87 86 349 557
4 19 163 363 76
4 344 237 461 571
4 343 464 87 557
4 88 349 87 86
4 537 226 454 566
4 67 66 68 348
4 237 452 461 561
4 481 475 470 572
4 547 537 454 566
4 514 564 379 570
4 67 66 348 558
4 490 558 498 565
4 461 561 459 571
4 237 561 461 571
4 499 489 154 567
4 499 530 489 567
4 346 67 348 558
4 39 208 434 96
4 409 562 512 564
4 461 452 459 561
4 346 430 67 558
4 424 558 320 565
4 487 336 490 560
4 93 281 226 92
4 92 91 281 227
4 73 72 263 153
4 72 71 263 154
4 278 82 165 81
4 81 80 164 278
4 294 102 210 101
4 101 100 209 294
4 450 458 549 561
4 539 549 551 561
4 295 329 349 86
4 29 152 350 75
4 553 551 549 561
4 86 295 329 483
4 467 461 344 237
4 451 563 557 572
4 548 469 546 561
4 349 86 329 557
4 481 470 563 572
4 368 562 321 564
4 414 407 559 562
4 495 560 490 565
4 548 546 539 561
4 548 551 555 561
4 329 86 483 557
4 432 558 424 565
4 539 551 548 561
4 334 344 461 571
4 461 459 334 571
4 477 469 548 561
4 328 451 557 572
4 544 557 453 563
4 372 562 509 568
4 469 546 561 563
4 369 371 376 562
4 237 344 465 299
4 372 559 562 568
4 458 553 549 561
4 322 340 405 559
4 296 348 66 558
4 66 496 296 558
4 407 322 559 562
4 424 320 560 565
4 91 90 57 288
4 71 70 41 272
4 106 2 17 351
4 139 10 37 446
4 140 38 12 434
4 107 18 4 363
4 11 32 445 126
4 350 3 28 120
4 94 93 56 290
4 83 82 274 43
4 369 376 559 562
4 457 544 453 563
4 489 530 491 567
4 547 454 453 566
4 548 555 477 561
4 487 490 495 560
4 421 429 424 560
4 320 421 424 560
4 424 560 429 565
4 11 94 95 445
4 3 74 75 350
4 379 514 510 564
4 301 490 560 565
4 301 558 490 565
4 320 337 421 560
4 527 491 558 565
4 545 450 549 561
4 547 538 537 566
4 530 499 501 567
4 379 183 514 570
4 372 559 376 562
4 307 557 470 563
4 489 558 485 567
4 545 549 539 561
4 80 79 272 42
4 100 99 288 55
4 409 564 512 570
4 367 509 372 562
4 414 559 408 562
4 543 557 544 563
4 489 491 558 567
4 498 490 488 558
4 432 422 424 558
4 419 67 430 558
4 320 558 301 565
4 74 73 40 274
4 103 102 290 54
4 335 475 478 571
4 475 561 478 571
4 545 539 546 561
4 322 317 340 559
4 479 481 469 563
4 373 379 510 564
4 489 485 154 567
4 465 467 344 237
4 347 415 302 564
4 226 227 221 92
4 148 153 154 72
4 164 165 159 81
4 210 214 209 101
4 479 469 561 563
4 237 299 465 571
4 78 83 7 362
4 98 103 15 433
4 406 407 413 562
4 377 373 562 564
4 367 372 376 562
4 525 569 565 575
4 168 379 374 570
4 495 490 498 565
4 406 309 407 562
4 368 371 303 562
4 347 302 341 564
4 379 168 183 570
4 510 512 562 564
4 322 317 559 562
4 377 371 368 562
4 527 491 530 567
4 499 154 501 567
4 537 538 226 566
4 394 310 341 564
4 379 373 374 564
4 464 449 87 557
4 510 562 373 564
4 368 303 321 562
4 301 490 336 560
4 554 237 552 561
4 377 562 368 564
4 453 544 547 566
4 409 413 562 564
4 320 301 560 565
4 424 308 320 558
4 557 563 307 572
4 309 562 406 564
4 514 510 564 570
4 262 419 67 430
4 344 299 237 571
4 406 562 413 564
4 479 478 475 561
4 554 452 237 561
4 362 27 7 119
4 433 31 15 125
4 321 562 309 564
4 86 468 483 557
4 307 563 470 572
4 544 457 542 563
4 514 506 510 570
4 489 491 485 558
4 85 277 559 573
4 553 554 551 561
4 555 551 556 561
4 460 561 450 572
4 167 388 374 564
4 543 472 557 563
4 561 563 450 572
4 379 564 374 570
4 459 561 334 571
4 453 557 544 566
4 450 561 545 563
4 498 558 491 565
4 549 260 539 551
4 320 301 318 560
4 539 259 548 551
4 458 450 460 561
4 477 479 469 561
4 527 558 491 567
4 492 495 486 565
4 544 557 543 566
4 394 302 341 310
4 454 226 449 566
4 85 277 411 559
4 385 21 380 184
4 381 177 24 402
4 408 559 511 562
4 538 547 540 566
4 501 522 530 567
4 453 454 449 566
4 486 491 527 565
4 482 470 557 563
4 463 557 451 563
4 545 561 546 563
4 555 548 259 551
4 552 561 237 571
4 387 564 181 570
4 328 557 307 572
4 522 527 530 567
4 544 540 547 566
4 260 549 553 551
4 543 557 472 566
4 168 374 388 391
4 67 558 419 567
4 404 414 408 562
4 388 167 394 564
4 327 561 475 571
4 320 318 337 560
4 292 104 493 569
4 375 366 84 574
4 104 560 493 569
4 476 472 543 563
4 482 557 472 563
4 453 557 463 563
4 555 556 477 561
4 553 458 554 561
4 67 419 262 567
4 409 508 512 562
4 426 525 565 575
4 309 322 407 562
4 388 391 374 564
4 565 569 560 575
4 510 506 512 570
4 303 559 317 562
4 87 464 280 449
4 335 327 475 571
4 507 509 367 562
4 105 560 427 576
4 296 496 319 558
4 317 303 339 559
4 145 17 2 351
4 218 37 10 446
4 211 12 38 434
4 156 4 18 363
4 350 28 3 151
4 445 32 11 224
4 475 561 327 572
4 296 319 348 558
4 148 154 147 359
4 149 148 360 153
4 222 226 221 443
4 85 559 411 574
4 485 558 154 567
4 476 482 472 563
4 457 453 463 563
4 462 563 451 572
4 464 9 343 87
4 525 528 565 569
4 366 559 84 574
4 537 547 258 538
4 530 499 251 501
4 67 1 430 346
4 486 527 524 565
4 373 367 377 562
4 301 336 318 560
4 510 512 564 570
4 528 492 565 569
4 408 511 559 573
4 343 455 464 557
4 422 308 424 558
4 84 375 276 366
4 104 493 560 576
4 261 66 263 558
4 486 498 491 565
4 462 450 563 572
4 373 507 367 562
4 281 91 279 227
4 278 80 164 276
4 294 100 209 292
4 453 449 557 566
4 462 460 450 572
4 105 427 431 576
4 281 557 226 566
4 374 378 167 564
4 388 394 391 564
4 213 214 442 209
4 220 221 227 442
4 422 430 346 558
4 468 557 86 566
4 511 568 559 573
4 181 564 410 570
4 528 492 486 565
4 322 303 317 562
4 306 328 451 557
4 226 557 449 566
4 362 7 27 162
4 15 31 433 217
4 181 415 410 564
4 309 321 303 562
4 471 477 556 561
4 554 458 452 561
4 87 449 281 557
4 449 280 87 281
4 525 420 426 565
4 104 497 493 576
4 392 387 181 570
4 281 86 87 557
4 425 558 432 565
4 154 558 263 567
4 164 159 158 359
4 215 214 210 443
4 160 159 165 360
4 511 404 408 562
4 308 301 320 558
4 417 85 411 574
4 427 105 431 293
4 463 451 462 563
4 482 481 470 563
4 508 409 404 562
4 14 105 431 576
4 538 547 258 540
4 530 251 522 501
4 558 565 425 567
4 334 299 344 571
4 105 560 294 575
4 349 306 343 557
4 263 154 485 558
4 85 559 278 573
4 293 105 294 575
4 409 413 404 562
4 468 86 279 566
4 329 483 474 557
4 145 2 17 355
4 218 10 37 438
4 354 3 28 151
4 31 15 437 217
4 377 374 373 564
4 496 488 319 558
4 85 278 277 573
4 451 455 306 557
4 452 458 460 561
4 471 479 477 561
4 417 6 85 574
4 470 307 474 557
4 542 543 544 563
4 277 411 417 85
4 391 564 387 570
4 66 67 263 558
4 468 279 86 483
4 409 410 413 564
4 410 564 409 570
4 310 321 341 564
4 469 541 546 563
4 394 387 391 564
4 543 541 476 563
4 310 378 321 564
4 226 281 449 557
4 469 481 476 563
4 450 457 462 563
4 309 303 322 562
4 25 181 381 398
4 86 8 295 483
4 167 20 380 396
4 340 405 559 574
4 526 425 565 567
4 432 424 429 565
4 507 511 509 562
4 478 561 479 571
4 486 495 498 565
4 346 348 308 558
4 541 469 476 563
4 457 450 542 563
4 296 66 0 496
4 368 321 378 564
4 459 452 460 561
4 376 372 369 559
4 521 569 525 575
4 508 510 512 562
4 373 510 507 562
4 67 263 558 567
4 459 334 561 572
4 431 421 337 576
4 211 38 12 438
4 156 18 4 355
4 437 11 32 224
4 354 27 7 162
4 459 561 460 572
4 66 68 348 296
4 13 497 104 576
4 493 560 495 569
4 374 388 167 168
4 487 493 497 576
4 431 427 421 576
4 375 559 366 574
4 292 493 104 497
4 277 411 559 573
4 429 560 427 575
4 86 557 281 566
4 67 262 263 567
4 278 559 84 568
4 429 426 420 565
4 421 560 337 576
4 482 470 474 557
4 451 463 455 557
4 336 560 487 576
4 276 278 84 568
4 88 295 349 86
4 319 301 308 558
4 347 341 309 564
4 525 523 420 565
4 554 552 551 561
4 552 556 551 561
4 377 368 374 564
4 294 560 104 569
4 391 390 168 570
4 292 294 104 569
4 527 522 526 567
4 544 543 540 566
4 3 74 151 273
4 11 94 224 289
4 493 495 492 569
4 471 561 556 571
4 307 329 474 557
4 279 86 281 566
4 493 487 495 560
4 421 427 429 560
4 488 491 498 558
4 432 425 422 558
4 406 413 410 564
4 261 263 485 558
4 416 409 512 570
4 485 488 496 558
4 419 430 422 558
4 426 429 427 575
4 509 511 505 568
4 340 559 317 574
4 528 486 524 565
4 85 278 559 574
4 487 497 311 576
4 487 560 493 576
4 427 560 421 576
4 527 526 524 565
4 422 346 308 558
4 417 411 405 574
4 474 483 468 557
4 464 455 449 557
4 368 378 374 564
4 306 455 343 557
4 521 528 525 569
4 375 84 5 574
4 376 371 377 562
4 183 506 514 570
4 511 508 404 562
4 512 515 416 570
4 431 337 297 576
4 392 391 387 570
4 84 559 278 574
4 446 36 139 89
4 351 16 106 69
4 414 413 407 562
4 294 560 105 576
4 410 180 181 570
4 339 369 375 574
4 526 425 420 565
4 340 298 405 574
4 414 411 408 559
4 369 559 372 568
4 339 559 369 574
4 406 410 415 564
4 14 431 105 293
4 488 142 319 490
4 375 369 366 559
4 425 432 420 565
4 300 334 456 572
4 459 460 456 572
4 450 545 542 563
4 459 456 334 572
4 306 307 328 557
4 411 408 559 573
4 411 414 405 559
4 505 568 511 573
4 417 405 298 574
4 180 392 181 570
4 411 559 405 574
4 33 445 126 95
4 391 386 390 570
4 417 6 277 85
4 366 559 369 568
4 294 104 560 576
4 376 377 367 562
4 422 558 425 567
4 419 558 422 567
4 337 560 318 576
4 15 103 289 217
4 7 83 273 162
4 488 485 491 558
4 369 559 375 574
4 416 410 409 570
4 129 328 300 456
4 336 487 311 576
4 463 462 457 563
4 476 481 482 563
4 19 107 76 363
4 471 479 561 571
4 336 318 560 576
4 307 306 329 557
4 300 334 130 456
4 328 129 451 456
4 552 556 561 571
4 226 222 56 93
4 149 40 153 73
4 215 210 54 102
4 42 164 158 80
4 227 57 220 91
4 154 41 147 71
4 160 165 43 82
4 55 209 213 100
4 362 26 119 78
4 110 303 368 371
4 372 367 170 509
4 433 30 125 98
4 423 500 153 567
4 456 334 130 459
4 49 397 192 517
4 190 50 519 395
4 366 369 372 568
4 137 475 478 335
4 453 449 463 557
4 426 525 203 420
4 511 507 508 562
4 525 528 523 565
4 317 559 339 574
4 349 329 306 557
4 407 116 309 406
4 523 526 420 565
4 39 434 140 96
4 348 319 308 558
4 419 422 425 567
4 453 457 232 544
4 301 319 142 490
4 456 328 300 572
4 402 193 23 398
4 508 507 510 562
4 385 396 22 187
4 67 1 262 430
4 168 44 379 183
4 182 48 416 180
4 397 49 189 382
4 180 416 182 570
4 456 451 328 572
4 545 546 541 563
4 303 368 321 110
4 416 515 182 570
4 418 427 293 575
4 277 403 411 573
4 50 399 395 195
4 104 13 292 497
4 341 321 309 564
4 514 379 44 183
4 182 48 515 416
4 543 542 541 563
4 197 508 512 409
4 297 14 431 576
4 493 484 292 569
4 404 413 414 562
4 367 373 171 507
4 393 520 190 191
4 89 279 228 8
4 69 261 155 0
4 276 76 163 5
4 544 457 232 542
4 241 541 546 469
4 165 164 504 568
4 87 464 9 280
4 417 298 6 574
4 195 401 389 194
4 136 470 475 307
4 311 497 13 576
4 491 527 248 486
4 29 350 120 75
4 469 241 541 476
4 431 421 124 337
4 405 117 340 322
4 538 227 226 566
4 501 154 153 567
4 109 369 339 371
4 386 518 191 192
4 407 116 322 309
4 535 210 209 569
4 25 181 398 302
4 304 77 298 313
4 507 170 367 509
4 304 77 313 338
4 280 449 226 281
4 387 302 398 181
4 336 143 487 490
4 525 203 420 523
4 175 518 183 176
4 174 520 182 175
4 474 468 482 557
4 463 449 455 557
4 292 96 208 13
4 513 370 372 568
4 421 123 337 320
4 122 320 424 308
4 300 327 334 572
4 225 33 9 95
4 532 423 425 567
4 335 137 475 327
4 339 375 313 574
4 26 166 6 78
4 30 207 14 98
4 36 228 8 89
4 16 155 0 69
4 512 506 515 570
4 370 503 366 568
4 262 419 153 567
4 424 422 122 308
4 123 421 424 320
4 181 25 415 302
4 197 508 409 404
4 422 430 121 346
4 527 248 486 524
4 471 478 479 571
4 496 66 0 261
4 247 492 486 528
4 141 319 296 496
4 420 432 429 565
4 337 124 431 297
4 5 84 375 276
4 183 182 506 570
4 394 167 396 310
4 466 465 345 571
4 388 187 384 188
4 513 169 372 370
4 165 568 504 573
4 109 339 303 371
4 503 164 366 568
4 231 457 450 542
4 25 302 347 415
4 548 240 469 477
4 509 513 372 568
4 389 180 182 570
4 182 48 180 389
4 383 188 189 390
4 471 236 480 571
4 173 503 366 370
4 472 543 242 476
4 210 569 535 575
4 465 466 345 132
4 456 462 451 572
4 467 344 133 465
4 254 504 505 573
4 204 425 420 526
4 193 400 194 392
4 306 328 128 451
4 487 144 311 497
4 345 478 480 571
4 182 183 393 570
4 167 20 396 310
4 163 19 5 76
4 117 405 407 322
4 262 153 263 567
4 505 504 253 568
4 173 164 366 503
4 460 462 456 572
4 549 458 450 230
4 60 461 237 452
4 236 61 471 480
4 484 209 292 569
4 523 524 526 565
4 138 478 480 345
4 236 466 480 571
4 256 535 521 575
4 304 1 29 268
4 548 240 546 469
4 86 279 8 483
4 473 468 536 566
4 384 184 167 185
4 178 400 177 181
4 259 539 260 551
4 48 182 395 389
4 347 115 415 406
4 390 168 388 391
4 560 569 294 575
4 176 44 46 517
4 519 48 47 174
4 118 298 405 340
4 535 255 521 569
4 205 423 425 532
4 455 306 128 451
4 278 559 568 573
4 29 323 304 268
4 141 319 496 488
4 529 533 494 569
4 526 532 425 567
4 524 523 528 565
4 93 281 280 226
4 73 263 262 153
4 509 169 372 513
4 257 538 540 566
4 522 501 252 567
4 327 136 475 307
4 458 554 234 553
4 555 477 556 244
4 394 302 310 113
4 264 265 68 314
4 535 569 521 575
4 483 295 329 134
4 504 568 505 573
4 419 423 153 567
4 366 164 276 568
4 135 474 470 307
4 345 465 299 571
4 507 373 171 510
4 477 556 244 471
4 554 234 452 458
4 536 473 239 468
4 327 328 307 572
4 227 536 468 566
4 538 257 536 566
4 252 501 500 567
4 405 417 298 118
4 543 541 242 476
4 545 541 542 563
4 20 167 378 310
4 196 512 515 416
4 180 401 179 178
4 383 186 185 168
4 6 26 304 298
4 503 253 504 568
4 530 249 489 491
4 311 336 144 487
4 535 533 255 569
4 420 204 526 523
4 532 500 423 567
4 143 336 301 490
4 152 29 1 75
4 335 299 334 571
4 316 68 265 314
4 297 30 14 305
4 180 389 392 570
4 50 399 519 395
4 492 529 494 569
4 61 236 466 480
4 467 60 461 237
4 512 196 409 416
4 276 164 278 568
4 227 239 468 536
4 47 48 399 179
4 46 44 186 382
4 513 503 370 568
4 208 39 13 96
4 386 393 183 570
4 132 345 465 299
4 466 345 480 571
4 465 344 133 299
4 536 550 473 566
4 209 294 292 569
4 328 327 300 572
4 524 247 486 528
4 494 533 484 569
4 227 279 281 566
4 471 556 236 571
4 450 549 230 545
4 529 492 528 569
4 542 450 231 545
4 404 198 511 408
4 375 5 313 574
4 466 236 465 571
4 534 535 256 575
4 210 294 569 575
4 11 94 445 224
4 3 74 350 151
4 305 282 342 283
4 425 205 532 526
4 278 164 165 568
4 249 530 527 491
4 278 568 165 573
4 307 135 474 329
4 254 502 504 573
4 483 329 474 134
4 389 391 392 570
4 316 1 29 304
4 265 1 304 268
4 416 180 410 570
4 473 550 472 566
4 227 281 226 566
4 153 154 263 567
4 210 294 209 569
4 550 543 472 566
4 452 237 60 554
4 471 556 61 236
4 394 387 302 113
4 112 396 20 310
4 310 378 111 321
4 40 262 74 152
4 280 94 56 225
4 386 397 390 183
4 505 253 513 568
4 484 533 209 569
4 340 317 298 574
4 253 505 254 504
4 227 468 279 566
4 503 513 253 568
4 536 257 550 566
4 252 500 532 567
4 505 513 509 568
4 529 521 255 569
4 164 42 173 366
4 464 343 127 455
4 7 83 162 362
4 15 103 217 433
4 419 201 40 153
4 41 154 245 485
4 529 255 533 569
4 378 368 111 321
4 345 335 478 571
4 346 121 422 308
4 521 525 531 575
4 257 540 550 566
4 522 252 532 567
4 114 302 25 398
4 394 396 112 310
4 375 108 339 313
4 108 339 369 375
4 345 138 478 335
4 277 43 83 166
4 293 54 103 207
4 115 347 309 406
4 39 312 285 326
4 492 484 493 569
4 386 391 393 570
4 552 236 556 571
4 49 397 517 382
4 503 504 164 568
4 227 538 536 566
4 500 501 153 567
4 300 130 129 456
4 516 254 505 573
4 209 533 535 569
4 493 292 208 497
4 433 103 217 436
4 362 83 162 365
4 426 202 531 428
4 550 540 543 566
4 526 522 532 567
4 64 499 530 489
4 389 182 393 570
4 529 528 521 569
4 372 370 366 568
4 39 13 342 311
4 525 426 531 575
4 52 423 532 500
4 531 256 521 575
4 419 425 423 567
4 502 516 412 573
4 312 13 39 285
4 534 210 535 575
4 57 227 239 468
4 226 56 229 449
4 202 531 525 426
4 336 311 318 576
4 344 235 461 467
4 502 403 165 573
4 238 480 466 345
4 165 504 502 573
4 315 312 295 88
4 380 396 20 385
4 494 492 246 529
4 529 492 246 528
4 319 141 142 488
4 402 25 381 398
4 516 505 511 573
4 515 506 182 570
4 304 323 26 268
4 428 534 531 575
4 240 241 546 469
4 511 508 198 404
4 179 401 180 195
4 516 408 412 573
4 203 202 525 426
4 94 95 445 225
4 74 75 350 152
4 200 165 502 403
4 502 412 403 573
4 137 136 475 327
4 85 84 278 574
4 531 426 428 575
4 534 418 210 575
4 328 129 128 451
4 398 114 302 387
4 80 79 42 276
4 100 99 55 292
4 91 90 279 57
4 71 70 261 41
4 94 280 56 93
4 262 40 74 73
4 54 293 103 102
4 43 277 83 82
4 53 534 531 428
4 108 19 5 375
4 473 472 468 566
4 431 30 14 297
4 304 316 1 265
4 199 412 516 408
4 294 105 104 576
4 337 318 297 576
4 492 494 484 569
4 535 256 521 255
4 516 511 408 573
4 51 412 502 516
4 372 170 169 509
4 88 8 295 86
4 395 182 393 389
4 305 33 9 315
4 196 197 512 409
4 43 166 365 83
4 68 66 0 296
4 54 207 436 103
4 206 210 534 418
4 250 209 484 533
4 205 425 204 526
4 58 547 537 454
4 276 375 5 163
4 428 418 534 575
4 13 208 292 497
4 529 65 494 533
4 312 305 342 283
4 305 14 297 97
4 252 522 251 501
4 257 538 258 540
4 0 496 261 155
4 314 316 68 296
4 284 325 33 305
4 403 200 412 502
4 503 45 513 370
4 62 473 536 550
4 231 450 230 545
4 264 338 304 314
4 304 265 264 314
4 254 516 502 573
4 342 13 39 312
4 431 427 293 207
4 248 249 527 491
4 235 131 344 461
4 138 238 345 480
4 547 233 453 454
4 411 166 277 417
4 531 534 256 575
4 296 0 16 496
4 494 250 484 533
4 534 428 206 418
4 492 247 246 528
4 342 305 297 97
4 265 304 316 314
4 235 344 34 467
4 78 83 362 166
4 98 103 433 207
4 389 393 391 570
4 238 466 35 345
4 427 293 207 418
4 471 480 478 571
4 166 403 411 277
4 368 111 321 110
4 20 378 111 310
4 63 548 555 477
4 306 127 343 455
4 310 112 394 113
4 427 418 426 575
4 550 543 243 472
4 303 110 109 371
4 30 431 124 297
4 243 473 550 472
4 499 251 64 530
4 547 258 58 537
4 534 256 53 531
4 544 233 453 547
4 411 403 408 573
4 343 9 33 315
4 516 511 199 408
4 436 54 103 216
4 365 161 43 83
4 284 33 9 305
4 269 338 314 324
4 178 400 181 392
4 384 167 388 185
4 131 235 344 34
4 553 59 458 549
4 5 108 375 313
4 238 138 345 35
4 108 369 339 109
4 548 63 240 477
4 317 339 313 574
4 516 502 51 254
4 132 465 133 299
4 171 373 172 510
4 344 133 34 467
4 115 309 116 406
4 228 8 279 483
4 163 276 375 366
4 345 466 35 132
4 143 301 142 490
4 334 131 130 459
4 77 6 304 298
4 329 135 474 134
4 43 165 200 403
4 121 122 422 308
4 298 6 26 417
4 424 123 320 122
4 189 186 383 390
4 22 20 396 385
4 400 178 194 392
4 500 532 52 252
4 550 536 62 257
4 115 25 347 415
4 533 529 65 255
4 141 296 16 496
4 166 43 403 277
4 188 384 388 185
4 311 39 13 497
4 401 389 180 195
4 402 23 25 398
4 349 315 295 88
4 292 208 484 493
4 316 348 68 296
4 196 515 48 416
4 16 155 496 0
4 207 293 54 418
4 496 261 155 485
4 175 182 183 191
4 54 210 206 418
4 209 55 250 484
4 343 33 9 464
4 172 379 44 514
4 513 253 45 503
4 232 233 453 544
4 116 117 407 322
4 262 75 152 1
4 39 311 144 497
4 345 299 335 571
4 163 19 375 5
4 202 53 531 428
4 108 5 19 313
4 84 85 77 574
4 280 95 225 9
4 182 393 183 191
4 338 304 77 264
4 234 452 60 554
4 244 556 61 471
4 168 186 44 397
4 483 36 295 134
4 477 555 63 244
4 458 234 59 553
4 249 64 530 489
4 318 311 297 576
4 430 1 29 346
4 26 298 417 118
4 51 412 516 199
4 97 104 105 576
4 241 242 541 476
4 543 242 243 472
4 457 231 232 542
4 198 199 511 408
4 304 26 6 268
4 519 399 48 395
4 285 312 36 326
4 98 293 207 14
4 78 277 166 6
4 547 58 233 454
4 367 171 170 507
4 548 259 63 555
4 262 152 419 430
4 284 30 325 305
4 8 36 295 483
4 1 152 262 430
4 412 408 403 573
4 228 279 468 483
4 405 117 118 340
4 549 59 458 230
4 165 278 81 164
4 101 209 210 294
4 92 226 227 281
4 72 263 153 154
4 343 127 33 464
4 346 1 29 316
4 470 136 135 307
4 513 45 169 370
4 168 383 186 390
4 205 52 423 532
4 36 228 483 8
4 297 311 97 576
4 138 137 478 335
4 225 33 464 9
4 314 16 269 324
4 421 123 124 337
4 282 342 283 97
4 30 207 431 14
4 312 8 36 295
4 26 166 417 6
4 298 317 313 574
4 426 418 428 575
4 316 68 1 265
4 152 419 40 262
4 143 144 336 487
4 295 312 8 88
4 97 297 342 311
4 484 55 208 292
4 464 225 280 449
4 65 494 246 529
4 283 13 312 285
4 385 380 396 187
4 402 381 193 398
4 549 553 59 260
4 423 52 201 500
4 127 306 128 455
4 152 29 430 1
4 277 166 6 417
4 41 70 261 155
4 57 90 279 228
4 79 42 276 163
4 508 197 198 404
4 489 64 499 245
4 293 14 431 207
4 97 342 13 311
4 15 95 98 325
4 41 155 352 70
4 79 42 163 364
4 447 90 57 228
4 15 95 325 11
4 517 397 44 382
4 315 9 282 88
4 186 168 390 397
4 163 42 276 366
4 393 386 183 191
4 397 183 192 176
4 353 40 74 152
4 94 56 225 448
4 182 520 190 393
4 247 486 248 524
4 114 25 23 398
4 189 186 390 397
4 387 114 302 113
4 204 420 203 523
4 550 62 473 243
4 305 282 14 97
4 45 503 173 370
4 121 430 29 346
4 89 12 326 10
4 20 22 396 112
4 518 183 386 191
4 99 55 292 208
4 398 387 181 392
4 0 16 314 296
4 435 55 99 208
4 280 225 56 449
4 298 313 77 574
4 225 9 464 280
4 89 12 96 326
4 13 97 283 342
4 180 389 401 194
4 393 182 520 191
4 445 94 225 448
4 350 74 152 353
4 208 39 497 13
4 183 397 44 176
4 190 174 182 395
4 412 200 51 502
4 282 305 342 97
4 394 167 388 396
4 338 77 5 264
4 362 83 365 166
4 433 103 436 207
4 473 239 62 536
4 190 174 520 182
4 183 518 192 176
4 386 183 518 192
4 284 14 30 305
4 155 261 41 485
4 185 167 388 168
4 94 445 224 448
4 74 350 151 353
4 229 58 537 454
4 68 0 264 314
4 181 180 178 392
4 304 265 77 264
4 65 250 494 533
4 183 518 175 191
4 175 520 182 191
4 313 5 19 338
4 461 235 60 467
4 480 466 61 238
4 314 68 0 296
4 428 53 534 206
4 182 174 48 395
4 338 5 269 264
4 165 275 160 360
4 291 443 215 210
4 359 158 164 270
4 264 0 269 314
4 0 16 269 314
4 220 227 286 442
4 443 222 226 291
4 270 359 147 154
4 183 386 397 192
4 282 284 9 305
4 338 269 19 324
4 180 194 178 392
4 388 188 185 168
4 149 275 153 360
4 213 286 209 442
4 6 304 265 77
4 324 107 332 266
4 332 106 324 266
4 279 468 57 228
4 190 182 393 395
4 192 397 44 517
4 283 8 312 88
4 312 342 13 283
4 165 275 360 81
4 312 36 8 285
4 98 14 30 284
4 92 286 227 442
4 70 352 41 146
4 90 57 219 447
4 212 55 99 435
4 364 79 42 157
4 210 291 443 101
4 164 81 359 270
4 95 98 325 284
4 397 189 44 382
4 209 286 101 442
4 448 94 56 223
4 74 150 40 353
4 187 167 388 384
4 226 92 443 291
4 270 72 359 154
4 360 275 153 72
4 95 33 9 284
4 400 193 181 392
4 180 389 194 392
4 265 304 6 268
4 190 519 48 395
4 48 519 190 174
4 176 192 44 517
4 186 44 189 382
4 305 9 282 315
4 33 95 325 284
4 78 6 26 268
4 395 399 48 195
4 285 36 8 89
4 179 48 399 195
4 188 383 168 390
4 380 385 184 187
4 193 177 381 402
4 325 98 30 284
4 96 326 285 89
4 101 286 92 442
4 291 92 443 101
4 81 72 359 270
4 72 360 275 81
4 36 285 326 89
4 83 162 357 273
4 103 217 439 289
4 287 211 12 438
4 273 354 7 162
4 271 2 145 355
4 437 15 289 217
4 156 4 271 355
4 11 437 289 224
4 94 224 289 439
4 74 151 273 357
4 287 10 218 438
4 273 3 354 151
4 269 16 0 69
4 388 188 168 390
4 398 381 193 181
4 167 396 380 187
4 399 48 47 519
4 517 44 46 382
4 380 20 21 385
4 24 25 381 402
4 46 49 517 382
4 326 285 39 96
4 14 284 282 305
4 399 47 50 519
4 313 77 5 338
4 285 13 39 96
4 19 5 269 338
4 269 5 19 76
4 283 312 8 285
4 120 323 267 333
4 381 177 193 181
4 184 167 380 187
4 269 338 264 314
4 179 395 48 195
4 359 159 81 164
4 159 165 360 81
4 101 443 210 214
4 227 221 92 442
4 442 101 209 214
4 70 41 272 146
4 90 219 57 288
4 120 267 3 333
4 72 148 359 154
4 148 360 153 72
4 443 221 92 226
4 354 7 3 273
4 437 15 11 289
4 4 2 271 355
4 12 10 287 438
4 7 267 119 333
4 186 189 44 397
4 174 190 48 395
4 75 29 1 268
4 119 267 323 333
4 94 290 56 223
4 83 161 43 274
4 396 167 388 187
4 192 44 397 176
4 99 55 212 288
4 79 272 42 157
4 361 79 70 271
4 444 99 90 287
4 181 193 398 392
4 40 150 74 274
4 54 290 103 216
4 224 437 289 217
4 162 273 354 151
4 218 211 287 438
4 271 145 156 355
4 149 160 275 360
4 25 24 23 402
4 273 357 83 74
4 103 94 289 439
4 222 443 215 291
4 158 359 147 270
4 20 22 21 385
4 213 220 286 442
4 289 224 217 439
4 162 357 273 151
4 106 332 2 266
4 4 332 107 266
4 7 78 119 267
4 75 3 120 267
4 361 145 156 271
4 444 218 211 287
4 324 16 269 69
4 140 326 12 331
4 383 185 188 168
4 126 11 330 325
4 107 324 76 266
4 69 324 106 266
4 76 4 107 266
4 2 69 106 266
4 194 401 180 178
4 324 106 16 69
4 125 330 15 325
4 324 269 19 76
4 126 95 11 325
4 10 326 139 331
4 187 184 167 384
4 400 193 177 181
4 12 326 140 96
4 358 42 272 157
4 356 150 40 274
4 290 54 440 216
4 441 212 55 288
4 57 219 441 288
4 358 272 41 146
4 440 56 290 223
4 356 43 161 274
4 126 33 95 325
4 330 15 31 125
4 139 37 10 331
4 330 32 11 126
4 140 12 38 331
4 324 19 107 76
4 223 290 440 216
4 146 358 272 157
4 219 212 441 288
4 161 150 356 274
4 15 98 125 325
4 101 92 221 442
4 323 78 26 268
4 79 70 272 157
4 90 99 219 288
4 354 7 27 333
4 330 11 32 437
4 438 38 12 331
4 354 28 3 333
4 72 159 360 81
4 221 101 443 92
4 359 159 72 81
4 27 7 119 333
4 3 28 120 333
4 31 15 330 437
4 70 79 361 157
4 99 219 444 90
4 438 10 37 331
4 221 101 442 214
4 27 28 354 333
4 146 272 70 157
4 99 212 219 288
4 267 75 323 120
4 98 433 15 125
4 7 78 362 119
4 101 221 443 214
4 360 148 159 72
4 359 159 148 72
4 74 150 83 274
4 103 290 94 216
4 146 70 361 157
4 444 212 219 99
4 223 94 290 216
4 83 150 161 274
4 330 32 31 437
4 37 38 438 331
4 125 98 30 325
4 439 103 94 216
4 83 357 150 74
4 73 356 40 274
4 290 54 102 440
4 42 272 80 358
4 100 441 55 288
4 93 56 290 440
4 43 356 82 274
4 57 441 91 288
4 71 272 41 358
4 140 326 39 96
4 223 439 94 216
4 357 150 161 83
4 332 4 18 355
4 332 17 2 355
4 139 326 10 89
4 332 18 4 107
4 2 17 332 106
4 18 17 332 355
4 139 36 326 89
4 330 11 15 325
4 326 10 12 331
4 11 445 95 126
4 75 3 350 120
4 76 324 269 266
4 69 269 324 266
4 354 3 7 333
4 29 75 323 268
4 15 11 330 437
4 12 10 438 331
4 76 4 363 107
4 96 140 12 434
4 89 10 139 446
4 2 69 351 106
4 2 4 332 355
4 323 78 267 119
4 75 267 323 268
4 323 26 78 119
4 323 267 78 268
4 323 75 29 120
4 215 291 210 102
4 158 164 270 80
4 286 209 100 213
4 275 153 73 149
4 82 165 275 160
4 222 226 291 93
4 147 270 154 71
4 227 286 91 220
4 73 82 356 274
4 102 93 290 440
4 272 71 80 358
4 100 91 441 288
4 275 73 160 149
4 215 222 291 93
4 147 158 270 80
4 286 100 220 213
4 160 73 356 149
4 215 222 93 440
4 147 158 80 358
4 220 100 441 213
4 267 7 3 333
4 275 73 82 160
4 93 291 215 102
4 71 147 270 80
4 286 100 91 220
4 332 4 2 266
4 356 82 73 160
4 215 93 102 440
4 80 71 147 358
4 441 91 100 220
4 91 441 57 220
4 41 147 71 358
4 93 222 56 440
4 82 356 43 160
4 80 158 42 358
4 55 441 100 213
4 40 356 73 149
4 102 54 215 440
4 207 30 433 98
4 228 36 446 89
4 96 99 292 208
4 103 98 293 207
4 93 92 226 291
4 83 78 277 166
4 166 26 362 78
4 155 16 351 69
4 70 69 261 155
4 75 74 262 152
4 147 146 358 41
4 81 80 270 164
4 212 213 441 55
4 219 220 57 441
4 101 100 286 209
4 90 89 279 228
4 82 81 275 165
4 215 216 440 54
4 161 160 43 356
4 72 71 154 270
4 158 157 42 358
4 222 223 56 440
4 150 149 356 40
4 33 225 445 95
4 102 101 291 210
4 280 95 94 225
4 73 72 153 275
4 92 91 227 286
4 76 79 276 163
4 461 334 131 344
4 461 131 334 459
4 562 568 511 509
4 511 568 562 559
4 150 151 74 357
4 150 74 151 353
4 224 223 94 448
4 94 223 224 439
4 559 407 405 322
4 559 405 407 414
4 145 146 70 361
4 70 146 145 352
4 70 271 145 361
4 156 157 79 364
4 79 157 156 361
4 156 271 79 361
4 218 219 90 444
4 90 219 218 447
4 90 287 218 444
4 211 287 99 444
4 99 212 211 444
4 211 212 99 435
4 162 161 83 357
4 83 161 162 365
4 217 216 103 439
4 103 216 217 436
4 379 510 172 373
4 172 510 379 514
4 564 302 394 387
4 564 394 302 341
4 374 570 391 168
4 391 570 374 564
4 563 479 572 561
4 563 572 479 481
4 475 572 479 561
4 475 479 572 481
4 371 339 562 369
4 371 562 339 303
4 559 562 339 369
4 559 339 562 303
4 569 495 565 560
4 569 565 495 492
4 558 261 496 485
4 558 496 261 66
4 565 567 527 526
4 527 567 565 558
4 366 84 568 276
4 366 568 84 559
4 475 307 572 327
4 572 307 475 470
4 490 319 558 301
4 490 558 319 488
4 390 183 570 386
4 570 183 390 168
4 226 454 229 537
4 226 229 454 449
4 557 472 468 482
4 557 468 472 566
4 575 429 565 426
4 575 565 429 560
4 310 167 564 394
4 310 564 167 378
4 181 302 564 387
4 181 564 302 415
4 42 164 276 366
4 42 276 164 80
4 406 347 564 415
4 406 564 347 309
4 40 153 262 419
4 40 262 153 73
4 263 154 261 485
4 263 261 154 71
4 41 261 154 485
4 41 154 261 71
4 56 226 280 449
4 56 280 226 93
4 227 57 279 468
4 227 279 57 91
4 153 423 201 500
4 153 201 423 419
4 154 489 245 485
4 154 245 489 499
4 576 14 97 297
4 576 97 14 105
4 574 6 77 298
4 574 77 6 85
4 575 418 294 293
4 575 294 418 210
4 237 236 571 465
4 571 236 237 552
4 13 576 97 311
4 97 576 13 104
4 283 88 315 282
4 315 88 283 312
4 315 305 283 282
4 283 305 315 312
4 574 5 77 84
4 574 77 5 313
4 389 195 179 180
4 179 195 389 395
4 179 48 389 180
4 389 48 179 395
4 168 397 183 390
4 183 397 168 44
4 68 348 346 67
4 346 348 68 316
4 346 1 68 67
4 68 1 346 316
4 88 349 343 87
4 343 349 88 315
4 343 9 88 87
4 88 9 343 315
4 12 99 211 287
4 278 277 165 82
4 43 277 165 403
4 43 165 277 82
4 55 209 292 484
4 55 292 209 100
4 4 79 156 271
4 2 145 70 271
4 10 218 90 287
4 294 210 293 418
4 294 293 210 102
4 54 293 210 418
4 54 210 293 102
4 575 105 427 293
4 575 427 105 560
4 96 99 434 12
4 211 99 434 435
4 211 434 99 12
4 145 351 70 352
4 145 70 351 2
4 69 351 70 2
4 218 446 90 447
4 218 90 446 10
4 89 446 90 10
4 76 79 363 4
4 156 79 363 364
4 156 363 79 4
4 434 208 99 96
4 434 99 208 435
4 363 163 79 76
4 363 79 163 364
4 446 228 90 447
4 446 90 228 89
4 351 155 70 352
4 351 70 155 69
4 334 571 327 335
4 561 327 334 571
4 561 334 327 572
4 277 573 165 403
4 277 165 573 278

CELL_TYPES 3145
1
1
1
1
1
1
1
1
1
1
1
1
1
1
1
1
1
1
1
1
1
1
1
1
1
1
1
1
1
1
1
1
1
1
1
1
1
1
1
1
1
1
1
1
1
1
1
1
1
1
1
1
1
1
1
1
1
1
1
1
1
1
1
1
1
1
3
3
3
3
3
3
3
3
3
3
3
3
3
3
3
3
3
3
3
3
3
3
3
3
3
3
3
3
3
3
3
3
3
3
3
3
3
3
3
3
3
3
3
3
3
3
3
3
3
3
3
3
3
3
3
3
3
3
3
3
3
3
3
3
3
3
3
3
3
3
3
3
3
3
3
3
3
3
3
3
3
3
3
3
3
3
3
3
3
3
3
3
3
3
3
3
3
3
3
3
3
3
3
3
3
3
3
3
3
3
3
3
3
3
3
3
3
3
3
3
3
3
3
3
3
3
3
3
3
3
3
3
3
3
3
3
3
3
3
3
3
3
3
3
3
3
3
3
3
3
3
3
3
3
3
3
3
3
3
3
3
3
3
3
3
3
3
3
3
3
3
3
3
3
3
3
3
3
3
3
3
3
3
3
3
3
3
3
3
3
3
3
3
3
3
3
3
3
3
3
3
3
3
3
3
3
3
3
3
3
3
3
3
3
3
3
3
3
3
3
3
3
3
3
3
3
3
3
3
3
3
3
3
3
3
3
3
3
3
3
3
3
3
3
3
3
3
3
3
3
3
3
3
3
3
3
3
3
3
3
3
3
3
3
3
3
3
3
3
3
3
3
3
3
3
3
3
3
3
3
3
3
3
3
3
3
3
3
3
3
3
3
3
3
5
5
5
5
5
5
5
5
5
5
5
5
5
5
5
5
5
5
5
5
5
5
5
5
5
5
5
5
5
5
5
5
5
5
5
5
5
5
5
5
5
5
5
5
5
5
5
5
5
5
5
5
5
5
5
5
5
5
5
5
5
5
5
5
5
5
5
5
5
5
5
5
5
5
5
5
5
5
5
5
5
5
5
5
5
5
5
5
5
5
5
5
5
5
5
5
5
5
5
5
5
5
5
5
5
5
5
5
5
5
5
5
5
5
5
5
5
5
5
5
5
5
5
5
5
5
5
5
5
5
5
5
5
5
5
5
5
5
5
5
5
5
5
5
5
5
5
5
5
5
5
5
5
5
5
5
5
5
5
5
5
5
5
5
5
5
5
5
5
5
5
5
5
5
5
5
5
5
5
5
5
5
5
5
5
5
5
5
5
5
5
5
5
5
5
5
5
5
5
5
5
5
5
5
5
5
5
5
5
5
5
5
5
5
5
5
5
5
5
5
5
5
5
5
5
5
5
5
5
5
5
5
5
5
5
5
5
5
5
5
5
5
5
5
5
5
5
5
5
5
5
5
5
5
5
5
5
5
5
5
5
5
5
5
5
5
5
5
5
5
5
5
5
5
5
5
5
5
5
5
5
5
5
5
5
5
5
5
5
5
5
5
5
5
5
5
5
5
5
5
5
5
5
5
5
5
5
5
5
5
5
5
5
5
5
5
5
5
5
5
5
5
5
5
5
5
5
5
5
5
5
5
5
5
5
5
5
5
5
5
5
5
5
5
5
5
5
5
5
5
5
5
5
5
5
5
5
5
5
5
5
5
5
5
5
5
5
5
5
5
5
5
5
5
5
5
5
5
5
5
5
5
5
5
5
5
5
5
5
5
5
5
5
5
5
5
5
5
5
5
5
5
5
5
5
5
5
5
5
5
5
5
5
5
5
5
5
5
5
5
5
5
5
5
5
5
5
5
5
5
5
5
5
5
5
5
5
5
5
5
5
5
5
5
5
5
5
5
5
5
5
5
5
5
5
5
5
5
5
5
5
5
5
5
5
5
5
5
5
5
5
5
5
5
5
5
5
5
5
5
5
5
5
5
5
5
5
5
5
5
5
5
5
5
5
5
5
5
5
5
5
5
5
5
5
5
5
5
5
5
5
5
5
5
5
5
5
5
5
5
5
5
5
5
5
5
5
5
5
5
5
5
5
5
5
5
5
5
5
5
5
5
5
5
5
5
5
5
5
5
5
5
5
5
5
5
5
5
5
5
5
5
5
5
5
5
5
5
5
5
5
5
5
5
5
5
5
5
5
5
5
5
5
5
5
5
5
5
5
5
5
5
5
5
5
5
5
5
5
5
5
5
5
5
5
5
5
5
5
5
5
5
5
5
5
5
5
5
5
5
5
5
5
5
5
5
5
5
5
5
5
5
5
5
5
5
5
5
5
5
5
5
5
5
5
5
5
5
5
5
5
5
5
5
5
5
5
5
5
5
5
5
5
5
5
5
5
5
5
5
5
5
5
5
5
5
5
5
5
5
5
5
5
5
5
5
5
5
5
5
5
5
5
5
5
5
5
5
5
5
5
5
5
5
5
5
5
5
5
5
5
5
5
5
5
5
5
5
5
5
5
5
5
5
5
5
5
5
5
5
5
5
5
5
5
5
5
5
5
5
5
5
5
5
5
5
5
5
5
5
5
5
5
5
5
5
5
5
5
5
5
5
5
5
5
5
5
5
5
5
5
5
5
5
5
5
5
5
5
5
5
5
5
5
5
5
5
5
5
5
5
5
5
5
5
5
5
5
5
5
5
5
5
5
5
5
5
5
5
5
5
5
5
5
5
5
5
5
5
5
5
5
5
5
5
5
5
5
5
5
5
5
5
5
5
5
5
5
5
5
5
5
5
5
5
5
5
5
5
5
5
5
5
5
5
5
5
5
5
5
5
5
5
5
5
5
5
5
5
5
5
5
5
5
5
5
5
5
5
5
5
5
5
5
5
5
5
5
5
5
5
5
5
5
5
5
5
5
5
5
5
5
5
5
5
5
5
5
5
5
5
5
5
5
5
5
5
5
5
5
5
5
5
5
5
5
5
5
5
5
5
5
5
5
5
5
5
5
5
5
5
5
5
5
5
5
5
5
5
5
5
5
5
5
5
5
5
5
5
5
5
5
5
5
5
5
5
5
5
5
5
5
5
5
5
5
5
5
5
5
5
5
5
5
5
5
5
5
5
5
5
5
5
5
5
5
5
5
5
5
5
5
5
5
5
5
5
5
5
5
5
5
5
5
5
5
5
5
5
5
5
5
5
5
5
5
5
5
5
5
5
5
5
5
5
5
5
5
5
5
5
5
5
5
5
5
5
5
5
5
5
5
5
5
5
5
5
5
5
5
5
5
5
5
5
5
5
5
5
5
5
5
5
5
5
5
5
5
5
5
5
5
5
5
5
5
5
5
5
5
5
5
5
5
5
5
5
5
5
5
5
5
10
10
10
10
10
10
10
10
10
10
10
10
10
10
10
10
10
10
10
10
10
10
10
10
10
10
10
10
10
10
10
10
10
10
10
10
10
10
10
10
10
10
10
10
10
10
10
10
10
10
10
10
10
10
10
10
10
10
10
10
10
10
10
10
10
10
10
10
10
10
10
10
10
10
10
10
10
10
10
10
10
10
10
10
10
10
10
10
10
10
10
10
10
10
10
10
10
10
10
10
10
10
10
10
10
10
10
10
10
10
10
10
10
10
10
10
10
10
10
10
10
10
10
10
10
10
10
10
10
10
10
10
10
10
10
10
10
10
10
10
10
10
10
10
10
10
10
10
10
10
10
10
10
10
10
10
10
10
10
10
10
10
10
10
10
10
10
10
10
10
10
10
10
10
10
10
10
10
10
10
10
10
10
10
10
10
10
10
10
10
10
10
10
10
10
10
10
10
10
10
10
10
10
10
10
10
10
10
10
10
10
10
10
10
10
10
10
10
10
10
10
10
10
10
10
10
10
10
10
10
10
10
10
10
10
10
10
10
10
10
10
10
10
10
10
10
10
10
10
10
10
10
10
10
10
10
10
10
10
10
10
10
10
10
10
10
10
10
10
10
10
10
10
10
10
10
10
10
10
10
10
10
10
10
10
10
10
10
10
10
10
10
10
10
10
10
10
10
10
10
10
10
10
10
10
10
10
10
10
10
10
10
10
10
10
10
10
10
10
10
10
10
10
10
10
10
10
10
10
10
10
10
10
10
10
10
10
10
10
10
10
10
10
10
10
10
10
10
10
10
10
10
10
10
10
10
10
10
10
10
10
10
10
10
10
10
10
10
10
10
10
10
10
10
10
10
10
10
10
10
10
10
10
10
10
10
10
10
10
10
10
10
10
10
10
10
10
10
10
10
10
10
10
10
10
10
10
10
10
10
10
10
10
10
10
10
10
10
10
10
10
10
10
10
10
10
10
10
10
10
10
10
10
10
10
10
10
10
10
10
10
10
10
10
10
10
10
10
10
10
10
10
10
10
10
10
10
10
10
10
10
10
10
10
10
10
10
10
10
10
10
10
10
10
10
10
10
10
10
10
10
10
10
10
10
10
10
10
10
10
10
10
10
10
10
10
10
10
10
10
10
10
10
10
10
10
10
10
10
10
10
10
10
10
10
10
10
10
10
10
10
10
10
10
10
10
10
10
10
10
10
10
10
10
10
10
10
10
10
10
10
10
10
10
10
10
10
10
10
10
10
10
10
10
10
10
10
10
10
10
10
10
10
10
10
10
10
10
10
10
10
10
10
10
10
10
10
10
10
10
10
10
10
10
10
10
10
10
10
10
10
10
10
10
10
10
10
10
10
10
10
10
10
10
10
10
10
10
10
10
10
10
10
10
10
10
10
10
10
10
10
10
10
10
10
10
10
10
10
10
10
10
10
10
10
10
10
10
10
10
10
10
10
10
10
10
10
10
10
10
10
10
10
10
10
10
10
10
10
10
10
10
10
10
10
10
10
10
10
10
10
10
10
10
10
10
10
10
10
10
10
10
10
10
10
10
10
10
10
10
10
10
10
10
10
10
10
10
10
10
10
10
10
10
10
10
10
10
10
10
10
10
10
10
10
10
10
10
10
10
10
10
10
10
10
10
10
10
10
10
10
10
10
10
10
10
10
10
10
10
10
10
10
10
10
10
10
10
10
10
10
10
10
10
10
10
10
10
10
10
10
10
10
10
10
10
10
10
10
10
10
10
10
10
10
10
10
10
10
10
10
10
10
10
10
10
10
10
10
10
10
10
10
10
10
10
10
10
10
10
10
10
10
10
10
10
10
10
10
10
10
10
10
10
10
10
10
10
10
10
10
10
10
10
10
10
10
10
10
10
10
10
10
10
10
10
10
10
10
10
10
10
10
10
10
10
10
10
10
10
10
10
10
10
10
10
10
10
10
10
10
10
10
10
10
10
10
10
10
10
10
10
10
10
10
10
10
10
10
10
10
10
10
10
10
10
10
10
10
10
10
10
10
10
10
10
10
10
10
10
10
10
10
10
10
10
10
10
10
10
10
10
10
10
10
10
10
10
10
10
10
10
10
10
10
10
10
10
10
10
10
10
10
10
10
10
10
10
10
10
10
10
10
10
10
10
10
10
10
10
10
10
10
10
10
10
10
10
10
10
10
10
10
10
10
10
10
10
10
10
10
10
10
10
10
10
10
10
10
10
10
10
10
10
10
10
10
10
10
10
10
10
10
10
10
10
10
10
10
10
10
10
10
10
10
10
10
10
10
10
10
10
10
10
10
10
10
10
10
10
10
10
10
10
10
10
10
10
10
10
10
10
10
10
10
10
10
10
10
10
10
10
10
10
10
10
10
10
10
10
10
10
10
10
10
10
10
10
10
10
10
10
10
10
10
10
10
10
10
10
10
10
10
10
10
10
10
10
10
10
10
10
10
10
10
10
10
10
10
10
10
10
10
10
10
10
10
10
10
10
10
10
10
10
10
10
10
10
10
10
10
10
10
10
10
10
10
10
10
10
10
10
10
10
10
10
10
10
10
10
10
10
10
10
10
10
10
10
10
10
10
10
10
10
10
10
10
10
10
10
10
10
10
10
10
10
10
10
10
10
10
10
10
10
10
10
10
10
10
10
10
10
10
10
10
10
10
10
10
10
10
10
10
10
10
10
10
10
10
10
10
10
10
10
10
10
10
10
10
10
10
10
10
10
10
10
10
10
10
10
10
10
10
10
10
10
10
10
10
10
10
10
10
10
10
10
10
10
10
10
10
10
10
10
10
10
10
10
10
10
10
10
10
10
10
10
10
10
10
10
10
10
10
10
10
10
10
10
10
10
10
10
10
10
10
10
10
10
10
10
10
10
10
10
10
10
10
10
10
10
10
10
10
10
10
10
10
10
10
10
10
10
10
10
10
10
10
10
10
10
10
10
10
10
10
10
10
10
10
10
10
10
10
10
10
10
10
10
10
10
10
10
10
10
10
10
10
10
10
10
10
10
10
10
10
10
10
10
10
10
10
10
10
10
10
10
10
10
10
10
10
10
10
10
10
10
10
10
10
10
10
10
10
10
10
10
10
10
10
10
10
10
10
10
10
10
10
10
10
10
10
10
10
10
10
10
10
10
10
10
10
10
10
10
10
10
10
10
10
10
10
10
10
10
10
10
10
10
10
10
10
10
10
10
10
10
10
10
10
10
10
10
10
10
10
10
10
10
10
10
10
10
10
10
10
10
10
10
10
10
10
10
10
10
10
10
10
10
10
10
10
10
10
10
10
10
10
10
10
10
10
10
10
10
10
10
10
10
10
10
10
10
10
10
10
10
10
10
10
10
10
10
10
10
10
10
10
10
10
10
10
10
10
10
10
10
10
10
10
10
10
10
10
10
10
10
10
10
10
10
10
10
10
10
10
10
10
10
10
10
10
10
10
10
10
10
10
10
10
10
10
10
10
10
10
10
10
10
10
10
10
10
10
10
10
10
10
10
10
10
10
10
10
10
10
10
10
10
10
10
10
10
10
10
10
10
10
10
10
10
10
10
10
10
10
10
10
10
10
10
10
10
10
10
10
10
10
10
10
10
10
10
10
10
10
10
10
10
10
10
10
10
10
10
10
10
10
10
10
10
10
10
10
10
10
10
10
10
10
10
10
10
10
10
10
10
10
10
10
10
10
10
10
10
10
10
10
10
10
10
10
10
10
10
10
10
10
10
10
10
10
10
10
10
10
10
10
10
10
10
10
10
10
10
10
10
10
10
10
10
10
10
10
10
10
10
10
10
10
10
10
10
10
