# vtk DataFile Version 2.0
, Created by Gmsh 4.11.1 
ASCII
DATASET UNSTRUCTURED_GRID
POINTS 510 double
8.75 0 -44.68363840972849
14.63413920204384 0 -41.64817328316104
14.63413920204384 0 -38.35182671683896
8.75 0 -35.31636159027151
8.75 0 -3
11.75 0 -3
11.75 0 0
-11.75 0 0
-11.75 0 -3
-8.75 0 -3
-8.75 1.071565949253934e-15 -35.31636159027151
-14.63413920204384 1.792165173205979e-15 -38.35182671683896
-14.63413920204384 1.792165173205979e-15 -41.64817328316104
-8.75 1.071565949253934e-15 -44.68363840972849
-8.75 1.071565949253934e-15 -75.31636159027151
-14.63413920204384 1.792165173205979e-15 -78.35182671683896
-14.63413920204384 1.792165173205979e-15 -81.64817328316104
-8.75 1.071565949253934e-15 -84.68363840972849
-8.75 0 -120
8.75 0 -120
8.75 0 -84.68363840972849
14.63413920204384 0 -81.64817328316104
14.63413920204384 0 -78.35182671683896
8.75 0 -75.31636159027151
8.750000000000004 11.73011211305316 -41.64817328316104
8.750000000000004 11.73011211305316 -38.35182671683896
8.75 11.73011211305316 -39.20776256295425
-8.75 11.73011211305316 -39.20776256295425
-8.749999999999995 11.73011211305316 -38.35182671683896
-8.749999999999995 11.73011211305316 -41.64817328316104
-8.75 11.73011211305316 -40.79223743704575
8.75 11.73011211305316 -40.79223743704575
8.75 20 -3
8.75 20 -37.52347803609486
11.75 23 -3
-11.75 23 -3
-8.75 20 -3
11.75 23 0
-11.75 23 0
-8.75 20 -37.52347803609486
-8.75 20 -42.47652196390514
-8.75 20 -77.52347803609486
-8.75 11.73011211305316 -79.20776256295424
-8.749999999999995 11.73011211305316 -78.35182671683896
8.750000000000004 11.73011211305316 -78.35182671683896
8.75 11.73011211305316 -79.20776256295424
-8.749999999999995 11.73011211305316 -81.64817328316103
-8.75 11.73011211305316 -80.79223743704576
8.75 11.73011211305316 -80.79223743704576
8.750000000000004 11.73011211305316 -81.64817328316103
-8.75 20 -82.47652196390514
-8.75 20 -117.5234780360949
-8.75 7.840202374092867 -120
8.75 7.840202374092867 -120
8.75 20 -82.47652196390514
8.75 20 -117.5234780360949
8.75 20 -42.47652196390514
8.75 20 -77.52347803609486
4.599219258002173 2.754445922359372 -84.6836384097285
-4.599219258002173 2.754445922359372 -84.6836384097285
10.90252584367049 2.754445922359372 -81.64817328316104
-10.90252584367049 2.754445922359374 -81.64817328316104
10.90252584367049 2.754445922359372 -78.35182671683896
4.599219258002173 2.754445922359372 -75.3163615902715
-4.599219258002173 2.754445922359372 -75.3163615902715
-10.90252584367049 2.754445922359374 -78.35182671683896
4.599219258002173 2.754445922359372 -44.68363840972849
-4.599219258002173 2.754445922359372 -44.68363840972849
10.90252584367049 2.754445922359372 -41.64817328316104
-10.90252584367049 2.754445922359374 -41.64817328316104
10.90252584367049 2.754445922359372 -38.35182671683896
4.599219258002173 2.754445922359372 -35.31636159027151
-4.599219258002173 2.754445922359372 -35.31636159027151
-10.90252584367049 2.754445922359374 -38.35182671683896
8.75 0 -28.85308927221719
8.75 0 -22.38981695416289
8.75 0 -15.92654463610859
8.75 0 -9.463272318054294
5.875000000000016 0 0
3.730349362740526e-14 0 0
-5.874999999999972 0 0
-8.75 0 -9.463272318054308
-8.75 0 -15.9265446361086
-8.75 0 -22.3898169541629
-8.75 0 -28.85308927221719
-8.75 0 -50.81018304583709
-8.75 0 -56.9367276819457
-8.75 0 -63.0632723180543
-8.75 0 -69.18981695416291
-8.75 0 -90.56969867477375
-8.75 0 -96.45575893981901
-8.75 0 -102.3418192048643
-8.75 0 -108.2278794699095
-8.75 0 -114.1139397349548
2.916666666666666 0 -120
-2.916666666666668 0 -120
8.75 0 -90.56969867477375
8.75 0 -96.45575893981901
8.75 0 -102.3418192048643
8.75 0 -108.2278794699095
8.75 0 -114.1139397349548
8.75 0 -50.81018304583709
8.75 0 -56.9367276819457
8.75 0 -63.0632723180543
8.75 0 -69.18981695416291
13.0806488409918 6.561604688142706 -41.64817328316104
8.750000000000004 6.000146907020565 -43.72430623786953
13.0806488409918 6.561604688142706 -38.35182671683896
-3.109623011088544 14.29993968217017 -38.68437931150869
3.10962301108855 14.29993968217017 -38.68437931150869
-13.08064884099179 6.561604688142717 -38.35182671683896
-13.08064884099179 6.561604688142717 -41.64817328316104
3.109623011088536 14.29993968217017 -41.31562068849131
-3.109623011088539 14.29993968217017 -41.31562068849131
8.750000000000004 6.000146907020565 -36.27569376213047
8.75 13.33333333333335 -3
8.75 6.666666666666705 -3
8.75 20 -30.61878242887589
8.75 20 -23.71408682165693
8.75 20 -16.80939121443796
8.75 20 -9.904695607218994
8.75 15.86505605652658 -38.36562029952455
-5.875000000000016 23 -3
-3.730349362740526e-14 23 -3
5.874999999999972 23 -3
11.75 5.749999999999988 -3
11.75 11.49999999999999 -3
11.75 17.24999999999999 -3
-2.916666666666666 20 -3
2.916666666666668 20 -3
-8.75 13.33333333333335 -3
-8.75 6.666666666666705 -3
-11.75 5.749999999999988 -3
-11.75 11.49999999999999 -3
-11.75 17.24999999999999 -3
11.75 5.749999999999988 0
11.75 11.49999999999999 0
11.75 17.24999999999999 0
-5.875000000000016 23 0
-3.730349362740526e-14 23 0
5.874999999999972 23 0
-11.75 5.749999999999988 0
-11.75 11.49999999999999 0
-11.75 17.24999999999999 0
-8.75 20 -9.904695607218967
-8.75 20 -16.80939121443793
-8.75 20 -23.7140868216569
-8.75 20 -30.61878242887586
-8.75 15.86505605652658 -38.36562029952455
-8.749999999999996 6.00014690702057 -36.27569376213047
-8.749999999999996 6.000146907020566 -43.72430623786953
-8.75 15.86505605652658 -41.63437970047545
-8.75 20 -70.51408682165692
-8.75 20 -63.50469560721899
-8.75 20 -56.49530439278104
-8.75 20 -49.48591317834308
-8.75 15.86505605652658 -78.36562029952455
-8.749999999999996 6.00014690702057 -76.27569376213046
-13.08064884099179 6.561604688142717 -78.35182671683896
13.0806488409918 6.561604688142706 -78.35182671683896
-3.109623011088544 14.29993968217017 -78.68437931150869
3.10962301108855 14.29993968217017 -78.68437931150869
-13.08064884099179 6.561604688142717 -81.64817328316103
3.109623011088536 14.29993968217017 -81.31562068849129
-3.109623011088539 14.29993968217017 -81.31562068849129
13.0806488409918 6.561604688142706 -81.64817328316103
-8.749999999999996 6.000146907020566 -83.72430623786953
-8.75 15.86505605652658 -81.63437970047545
-8.75 20 -110.5140868216569
-8.75 20 -103.504695607219
-8.75 20 -96.49530439278104
-8.75 20 -89.48591317834308
-8.75 13.92010118704644 -118.7617390180474
-8.75 3.920101187046427 -120
2.916666666666666 7.840202374092867 -120
-2.916666666666668 7.840202374092867 -120
8.75 3.920101187046427 -120
8.750000000000004 6.000146907020565 -83.72430623786953
8.75 15.86505605652658 -81.63437970047545
8.75 20 -110.5140868216569
8.75 20 -103.504695607219
8.75 20 -96.49530439278104
8.75 20 -89.48591317834308
8.75 13.92010118704644 -118.7617390180474
8.750000000000004 6.000146907020565 -76.27569376213046
8.75 15.86505605652658 -41.63437970047545
8.75 20 -70.51408682165692
8.75 20 -63.50469560721899
8.75 20 -56.49530439278104
8.75 20 -49.48591317834308
8.75 15.86505605652658 -78.36562029952455
2.916666666666666 20 -37.52347803609486
-2.916666666666668 20 -37.52347803609486
2.916666666666666 20 -42.47652196390514
-2.916666666666668 20 -42.47652196390514
2.916666666666666 20 -77.52347803609486
-2.916666666666668 20 -77.52347803609486
2.916666666666666 20 -82.47652196390514
-2.916666666666668 20 -82.47652196390514
2.916666666666666 20 -117.5234780360949
-2.916666666666668 20 -117.5234780360949
-8.621065901686924e-16 5.360950486842817 -84.68363840972849
-4.440892098500626e-15 2.754445922359372 -84.68363840972849
7.76635393243715 2.754445922359372 -83.19824007300608
8.019574064224658 7.882796073698743 -81.64817328316103
2.941572123769539 10.85353378175823 -81.64817328316103
-2.94157212376955 10.85353378175822 -81.64817328316103
-8.01957406422466 7.882796073698739 -81.64817328316103
-7.76635393243715 2.754445922359372 -83.19824007300608
7.76635393243715 2.754445922359372 -76.80175992699392
-2.664535259100376e-15 2.754445922359372 -75.31636159027151
-7.766353932437145 2.754445922359372 -76.80175992699392
8.019574064224658 7.882796073698743 -78.35182671683896
2.941572123769539 10.85353378175823 -78.35182671683896
-2.94157212376955 10.85353378175822 -78.35182671683896
-8.01957406422466 7.882796073698739 -78.35182671683896
-8.621065901686924e-16 5.360950486842817 -75.3163615902715
-8.621065901686924e-16 5.360950486842817 -44.68363840972849
-4.440892098500626e-15 2.754445922359372 -44.68363840972849
7.76635393243715 2.754445922359372 -43.19824007300607
8.019574064224658 7.882796073698743 -41.64817328316104
2.941572123769539 10.85353378175823 -41.64817328316104
-2.94157212376955 10.85353378175822 -41.64817328316104
-8.01957406422466 7.882796073698739 -41.64817328316104
-7.76635393243715 2.754445922359372 -43.19824007300607
7.76635393243715 2.754445922359372 -36.80175992699393
-2.664535259100376e-15 2.754445922359372 -35.31636159027151
-7.766353932437145 2.754445922359372 -36.80175992699393
8.019574064224658 7.882796073698743 -38.35182671683896
2.941572123769539 10.85353378175823 -38.35182671683896
-2.94157212376955 10.85353378175822 -38.35182671683896
-8.01957406422466 7.882796073698739 -38.35182671683896
-8.621065901686924e-16 5.360950486842817 -35.31636159027151
0 0 -115.6317906949036
-3.652522282264652 0 -105.2848493373869
3.652522282264639 0 -87.62666854225114
2.642111615290363 0 -47.76090411989448
-4.24615119991598 0 -72.37351689726302
-3.81442983717354 0 -58.92241603175068
-2.809611111114432 0 -4.108969940031159
-4.204769947676935 0 -25.46350783562135
3.152641980988244 0 -12.69490847708144
3.652522282264646 0 -99.39878907234163
-2.318428089037537 0 -93.25499965540864
-4.116108339643437 0 -78.69173831307015
3.588558942108723 0 -66.1265446361086
3.068704314152724 0 -33.18751866717083
3.917715647549619 0 -40.34948375233984
3.716449850749347 0 -5.647359725594349
-10.09907191222526 0 -40.42204648150658
10.6029072638855 0 -40.04992625033427
-10.17687734874623 0 -79.73834766261402
10.15975565774907 0 -80.16800936089795
3.980891562272158 0 -80.58786010085106
-1.819850383786417 0 -36.45171909214319
-3.915990106561633 0 -48.8412503168597
-0.3532765910256357 0 -53.83281480541964
-2.716853764024028 0 -85.9024339493472
-3.152641980988246 0 -19.15818079513575
1.834297804013016 0 -25.64361333754924
3.866859560802602 0 -19.16261284000758
-3.996285803183758 0 -12.01715595263149
-2.855694577712425 0 -66.05678105424246
2.968648782290985 0 -59.72540763623023
1.978785198158435 0 -72.62037422085281
3.478418576125657 0 -105.0294843737847
-3.313897149813505 0 -99.72513541281511
4.49732329509835 0 -93.46118297691882
-3.597778105854522 0 -111.6923052203109
3.0173345169416 0 -110.9166590000346
-3.825012162819045 0 -41.97505768039197
-3.1036030355496 0 -30.81930163249555
-5.116739306952161 0 -53.86867837636256
4.654203714542693 0 -53.83042114530141
-0.6709722217922822 0 -8.379216146958953
4.48878154369372 0 -115.7244624822786
-4.488781543693721 0 -115.7244624822786
-5.4067939698692 0 -7.061698096532893
10.95716770623161 2.864347834533435 -43.35507589689266
3.198830131936841e-11 14.63413920204384 -39.96442040383689
11.62674747629538 2.70615742428145 -36.96071872634316
8.750000000000004 9.597763850300447 -32.67744985696632
8.750000000000004 5.099826425334843 -19.34242931507068
8.750000000000004 9.832612456915712 -9.101708239750584
8.750000000000004 14.66919508084005 -20.14151374264439
8.750000000000004 13.8978170879784 -28.29290318886517
8.750000000000004 6.265075713398178 -26.60715273032422
8.750000000000004 14.85308925406422 -13.26166542215154
8.750000000000004 4.85198094116623 -12.86812813081661
8.750000000000004 17.21054490670164 -34.39959023933456
8.750000000000004 4.540344942559621 -31.67004780265292
8.750000000000004 15.16223357359438 -7.904917840633169
8.750000000000004 13.66025880291205 -34.41747806030591
8.750000000000004 4.606590122754449 -7.620081850319661
8.750000000000004 9.934518787482588 -16.40492194534846
8.750000000000004 10.18119502883116 -23.14692113754382
10.25 3.104166666666673 -3
-10.25 3.104166666666674 -3
11.75 20.125 -1.5
11.75 8.624999999999988 -1.5
11.75 14.37499999999999 -1.5
11.75 2.874999999999994 -1.5
3.157610638484556 18.22886740495932 0
-2.707174061168086 4.878797530676509 0
7.069955745470661 8.716546370640001 0
-6.619519168154191 14.39111856499582 0
7.102873022115112 14.37499999999999 0
0.1126091443291166 11.52691623390895 0
-7.000954855602266 8.644857627020135 0
-2.792058517349995 18.15992185565015 0
2.948495529093417 4.721447277005963 0
-7.528051718759414 18.81262893003678 0
7.528051718759418 4.187371069963205 0
7.820492259183636 19.07601590637069 0
-7.553981076842906 4.160878030182233 0
-11.75 20.125 -1.5
-11.75 14.37499999999999 -1.5
-11.75 8.624999999999988 -1.5
-11.75 2.874999999999994 -1.5
-8.749999999999996 9.597763850300449 -32.67744985696631
-8.749999999999996 5.099826425334842 -19.34242931507069
-8.749999999999996 9.832612456915715 -9.101708239750586
-8.749999999999996 14.66919508084005 -20.14151374264437
-8.749999999999996 13.8978170879784 -28.29290318886515
-8.749999999999996 6.265075713398176 -26.60715273032422
-8.749999999999996 14.85308925406422 -13.26166542215154
-8.749999999999996 4.851980941166234 -12.86812813081662
-8.749999999999996 17.21054490670164 -34.39959023933456
-8.749999999999996 4.54034494255962 -31.67004780265292
-8.749999999999996 15.16223357359437 -7.904917840633166
-8.749999999999996 13.66025880291205 -34.41747806030591
-8.749999999999996 4.606590122754453 -7.620081850319666
-8.749999999999996 9.934518787482588 -16.40492194534845
-8.749999999999996 10.18119502883115 -23.14692113754381
-10.95716770623159 2.86434783453344 -36.64492410310733
-10.95716770623161 2.864347834533438 -43.35507589689266
-8.749999999999996 5.305743292289341 -59.99999999999999
-8.749999999999996 9.805556925642898 -47.82563553999638
-8.749999999999996 9.525704055679062 -72.75223327422528
-8.749999999999996 13.92968914323329 -60.00000000000001
-8.749999999999996 13.87753309410873 -52.96169854503663
-8.749999999999996 13.71372869113089 -68.28218858207656
-8.749999999999996 6.172960029041917 -66.86507924594581
-8.749999999999996 6.236400533418212 -53.395085886281
-8.749999999999996 17.21054490670165 -74.39959023933456
-8.749999999999996 15.21304303155523 -46.00538703515295
-8.749999999999996 4.533182662887508 -71.68021788107748
-8.749999999999996 4.615769660303094 -48.49979756162537
-8.749999999999996 9.892910901458549 -57.24881031715697
-8.749999999999996 9.930881850744953 -63.50409559147176
-8.749999999999996 13.60902916461827 -74.43029182239998
-10.95716770623161 2.864347834533444 -76.64492410310733
3.254070470114948e-11 14.63413920204384 -79.96442040383695
-10.95716770623161 2.864347834533439 -83.35507589689266
-8.749999999999996 10.00521193338181 -115.0848884389145
-8.749999999999996 6.220913114548972 -92.97708555188815
-8.749999999999996 5.034368591119064 -105.7872403987151
-8.749999999999996 9.944667077060943 -87.57824088001185
-8.749999999999996 14.10514207321217 -99.99981994296537
-8.749999999999996 14.42504698775444 -106.917731642136
-8.749999999999996 13.88756483585267 -92.66172544277656
-8.749999999999996 5.150305320925627 -111.5826974482355
-8.749999999999996 5.097477717735354 -99.39878907234163
-8.749999999999996 15.23790001374889 -85.91415907477885
-8.749999999999996 5.880151780569647 -116.2022586741836
-8.749999999999996 14.72207662144432 -113.1469836549308
-8.749999999999996 4.524318268302956 -88.30208771410616
-8.749999999999996 9.801260234025049 -97.11417838421718
-8.749999999999996 9.95412075390457 -103.429156225267
-8.749999999999996 9.910496344963047 -109.5405529693766
0 3.920101187046433 -120
-4.819015920570177 3.920101187046432 -120
4.819015920570177 3.920101187046432 -120
8.750000000000004 10.00521193338181 -115.0848884389145
8.750000000000004 6.220913114548972 -92.97708555188815
8.750000000000004 5.034368591119064 -105.7872403987151
8.750000000000004 9.931740890079313 -87.64170884842162
8.750000000000004 14.10514207321217 -99.99981994296537
8.750000000000004 14.42504698775444 -106.917731642136
8.750000000000004 13.87463864887104 -92.72519341118634
8.750000000000004 5.150305320925627 -111.5826974482355
8.750000000000004 5.097477717735354 -99.39878907234163
8.750000000000004 15.23359128475501 -85.93531506424877
8.750000000000004 5.880151780569647 -116.2022586741836
8.750000000000004 14.72207662144432 -113.1469836549308
8.750000000000004 4.523376126394674 -88.30671365932554
8.750000000000004 9.799941235353453 -97.1206547075243
8.750000000000004 9.954063529541822 -103.429437198616
8.750000000000004 9.910489532538911 -109.5405864185848
10.95716770623162 2.864347834533436 -83.35507589689266
11.62674747629539 2.706157424281451 -76.96071872634316
8.750000000000004 5.305743292289341 -59.99999999999999
8.750000000000004 9.818483112624527 -47.7621675715866
8.750000000000004 9.525723583581438 -72.74637933594703
8.750000000000004 13.92968914323329 -60.00000000000001
8.750000000000004 13.74225265189802 -52.8160792371498
8.750000000000004 13.70405699617997 -68.22770922829226
8.750000000000004 6.171581148034983 -66.85646020422259
8.750000000000004 6.218921354099773 -53.36521627538148
8.750000000000004 15.19265065568371 -45.97053915577018
8.750000000000004 17.13298778481187 -74.01878242887588
8.750000000000004 4.533043953387041 -71.67874104638345
8.750000000000004 4.615437809549683 -48.49299453106347
8.750000000000004 13.5915873068306 -74.34206360189573
8.750000000000004 9.892747448822085 -57.02073217267155
8.750000000000004 9.930881850744953 -63.50409559147176
-5.845890363244171 17.83067486979049 -37.96529306436219
5.845890363244171 17.83067486979049 -37.96529306436219
0 17.14996984108508 -38.10392867380178
5.84589036324417 17.83067486979049 -42.03470693563781
-5.845890363244168 17.83067486979049 -42.03470693563781
0 17.14996984108508 -41.89607132619822
0.05292729502908955 20 -32.83015637101623
0.05292729502908955 20 -7.693321665078628
-2.770358198749559 20 -20.26173901804742
-3.785838827807051 20 -28.09173337269505
-3.785838827807051 20 -12.43174466339981
3.335731270211483 20 -13.46897267200639
3.33573127021148 20 -27.05450536408848
4.280220868334681 20 -20.26173901804743
4.761065046381448 20 -7.413397988860801
-4.829915639888924 20 -33.31752564895537
4.761065046381448 20 -33.11008004723406
-4.829915639888924 20 -7.205952387139479
8.812499999999986 23 -1.5
2.937499999999966 23 -1.5
-8.812500000000007 23 -1.5
-2.937500000000028 23 -1.5
-0.08318836712066791 20 -72.77853755201089
-0.08318836712066968 20 -47.22146244798912
3.012226312698095 20 -60.00000000000001
2.751658883417666 20 -66.83221337488581
2.751658883417665 20 -53.1677866251142
-4.03955703157715 20 -67.94138596410809
-4.03955703157715 20 -52.05861403589193
-3.572479372426571 20 -60.00000000000001
4.617027436592733 20 -73.03435876414866
-4.907882413072898 20 -73.25619328199312
4.617027436592733 20 -46.96564123585134
-4.907882413072898 20 -46.74380671800688
-5.845890363244171 17.83067486979049 -77.96529306436219
5.84589036324417 17.8306748697905 -77.96529306436219
1.77635683940025e-15 17.14996984108508 -78.10392867380178
-5.845890363244168 17.83067486979049 -82.03470693563781
0 17.14996984108508 -81.89607132619822
-0.08318836712066791 20 -112.7785375520109
-0.08318836712066968 20 -87.22146244798913
3.012226312698095 20 -100
2.751658883417666 20 -106.8322133748858
2.751658883417665 20 -93.1677866251142
-4.03955703157715 20 -107.9413859641081
-4.03955703157715 20 -92.05861403589194
-3.572479372426571 20 -100
4.617027436592733 20 -113.0343587641487
-4.907882413072898 20 -86.74380671800688
-4.907882413072898 20 -113.2561932819931
4.617027436592733 20 -86.96564123585134
0 13.52192360369403 -118.8428337501346
4.521921149461373 15.47561105244174 -118.4449365131673
-4.521921149461374 15.47561105244174 -118.4449365131673
-4.98771756322561 11.71960811827359 -119.2099018562699
4.987717563225609 11.71960811827359 -119.2099018562699
4.802821589933199 6.418123235282908 -83.31387039323525
-4.274648810979292 5.973613305555136 -83.65985323086846
2.299609629001086 2.754445922359372 -81.17736867538535
-4.948018773054574 2.754445922359372 -78.77760647673196
8.451508921269337 2.754445922359372 -79.75040114509675
-8.457155665053969 2.754445922359372 -79.7555212953464
-2.299609629001088 2.754445922359372 -81.61906447898126
4.978976335036855 2.754445922359372 -78.71072338861551
5.678292179094569 9.706134144958979 -80.03493277125365
-5.678292179094577 9.706134144958973 -80.03493277125365
-9.802370124096363 5.510497442275803 -80.03493277125366
9.802370124096367 5.510497442275796 -79.96506722874634
-6.802171337265148e-15 11.24508968888666 -80.03493277125365
4.274648810979269 5.973613305555059 -76.34014676913148
-4.274648810979197 5.973613305555212 -76.34014676913152
4.802821589933201 6.418123235282909 -43.31387039323526
-4.274648810979289 5.973613305555139 -43.65985323086847
2.299609629001086 2.754445922359372 -41.17736867538535
-4.948018773054574 2.754445922359372 -38.77760647673196
8.451508921269337 2.754445922359372 -39.75040114509674
-8.457155665053969 2.754445922359372 -39.7555212953464
-2.299609629001088 2.754445922359372 -41.61906447898126
4.978976335036851 2.754445922359372 -38.71072338861551
9.802370124096367 5.510497442275794 -40.03493277125367
5.678292179094569 9.706134144958979 -40.03493277125367
-9.802370124096367 5.510497442275794 -40.03493277125366
-6.802171337265148e-15 11.24508968888666 -40.03493277125367
-5.667266620754002 9.712575928166153 -40
4.274648810979271 5.973613305555061 -36.34014676913149
-4.274648810979196 5.97361330555521 -36.34014676913154
5.384907906069714e-05 10.82116412771433 -100.2519802705124
1.77635683940025e-15 9.613569810184305 -66.93066980732495
-5.890811424769105e-07 11.47953441130228 -110.1683243443665
-0.03813024287795841 9.237018822610073 -54.20958059177904
-2.539794967118259e-15 10.10985414613622 -27.01233211275034
1.77635683940025e-15 11.05413685946632 -12.73698137642595
0.8847243604511772 12.03514611581137 -89.70539689689187
1.196893208518818 7.429682382216551 -19.66613824008671
-1.901337798869574 7.053313780160852 -6.927641138207731
0.9639807368821353 6.247964158580149 -113.9678528471254
-2.49300417861374 13.85380467090148 -32.02677881624071
2.240146111789984 13.28206700394012 -48.39466397023022
-2.583973619631905 13.93669646798906 -72.12407057578125
-2.228928221705336 13.92730823730063 -5.850981734492047
-2.838687555920903 8.654708472895893 -60.38408435976155
1.638699498488541 6.619889379369843 -94.52557430885301
-3.396663357596053 7.466422237210091 -89.67691174084497
-2.901667189996173 5.785461913136555 -108.6711031247663

CELLS 2806 12296
1 0
1 1
1 2
1 3
1 4
1 5
1 6
1 7
1 8
1 9
1 10
1 11
1 12
1 13
1 14
1 15
1 16
1 17
1 18
1 19
1 20
1 21
1 22
1 23
1 24
1 25
1 26
1 27
1 28
1 29
1 30
1 31
1 32
1 33
1 34
1 35
1 36
1 37
1 38
1 39
1 40
1 41
1 42
1 43
1 44
1 45
1 46
1 47
1 48
1 49
1 50
1 51
1 52
1 53
1 54
1 55
1 56
1 57
1 58
1 59
1 60
1 61
1 62
1 63
1 64
1 65
1 66
1 67
1 68
1 69
1 70
1 71
1 72
1 73
2 0 1
2 1 2
2 2 3
2 3 74
2 74 75
2 75 76
2 76 77
2 77 4
2 4 5
2 5 6
2 6 78
2 78 79
2 79 80
2 80 7
2 8 7
2 8 9
2 9 81
2 81 82
2 82 83
2 83 84
2 84 10
2 11 10
2 12 11
2 13 12
2 13 85
2 85 86
2 86 87
2 87 88
2 88 14
2 15 14
2 16 15
2 17 16
2 17 89
2 89 90
2 90 91
2 91 92
2 92 93
2 93 18
2 19 94
2 94 95
2 95 18
2 20 96
2 96 97
2 97 98
2 98 99
2 99 100
2 100 19
2 20 21
2 21 22
2 22 23
2 0 101
2 101 102
2 102 103
2 103 104
2 104 23
2 1 105
2 105 24
2 24 106
2 106 0
2 2 107
2 107 25
2 26 25
2 27 108
2 108 109
2 109 26
2 27 28
2 28 110
2 110 11
2 29 111
2 111 12
2 29 30
2 31 112
2 112 113
2 113 30
2 24 31
2 3 114
2 114 25
2 32 115
2 115 116
2 116 4
2 33 117
2 117 118
2 118 119
2 119 120
2 120 32
2 26 121
2 121 33
2 35 122
2 122 123
2 123 124
2 124 34
2 5 125
2 125 126
2 126 127
2 127 34
2 36 128
2 128 129
2 129 32
2 36 130
2 130 131
2 131 9
2 8 132
2 132 133
2 133 134
2 134 35
2 6 135
2 135 136
2 136 137
2 137 37
2 34 37
2 38 138
2 138 139
2 139 140
2 140 37
2 7 141
2 141 142
2 142 143
2 143 38
2 35 38
2 36 144
2 144 145
2 145 146
2 146 147
2 147 39
2 27 148
2 148 39
2 10 149
2 149 28
2 29 150
2 150 13
2 40 151
2 151 30
2 41 152
2 152 153
2 153 154
2 154 155
2 155 40
2 42 156
2 156 41
2 42 43
2 14 157
2 157 43
2 43 158
2 158 15
2 22 159
2 159 44
2 45 44
2 42 160
2 160 161
2 161 45
2 46 162
2 162 16
2 46 47
2 48 163
2 163 164
2 164 47
2 49 48
2 21 165
2 165 49
2 46 166
2 166 17
2 50 167
2 167 47
2 51 168
2 168 169
2 169 170
2 170 171
2 171 50
2 52 172
2 172 51
2 18 173
2 173 52
2 53 174
2 174 175
2 175 52
2 19 176
2 176 53
2 49 177
2 177 20
2 54 178
2 178 48
2 55 179
2 179 180
2 180 181
2 181 182
2 182 54
2 53 183
2 183 55
2 23 184
2 184 44
2 56 185
2 185 31
2 57 186
2 186 187
2 187 188
2 188 189
2 189 56
2 45 190
2 190 57
2 33 191
2 191 192
2 192 39
2 56 193
2 193 194
2 194 40
2 57 195
2 195 196
2 196 41
2 54 197
2 197 198
2 198 50
2 55 199
2 199 200
2 200 51
2 58 201
2 201 59
2 59 202
2 202 58
2 58 203
2 203 60
2 60 204
2 204 205
2 205 206
2 206 207
2 207 61
2 61 208
2 208 59
2 60 62
2 62 209
2 209 63
2 63 210
2 210 64
2 64 211
2 211 65
2 61 65
2 62 212
2 212 213
2 213 214
2 214 215
2 215 65
2 63 216
2 216 64
2 66 217
2 217 67
2 67 218
2 218 66
2 66 219
2 219 68
2 68 220
2 220 221
2 221 222
2 222 223
2 223 69
2 69 224
2 224 67
2 68 70
2 70 225
2 225 71
2 71 226
2 226 72
2 72 227
2 227 73
2 69 73
2 70 228
2 228 229
2 229 230
2 230 231
2 231 73
2 71 232
2 232 72
3 1 250 0
3 0 236 101
3 0 247 236
3 0 250 247
3 2 250 1
3 3 250 2
3 74 246 3
3 246 247 3
3 247 250 3
3 6 4 5
3 6 78 4
3 4 248 77
3 78 248 4
3 8 9 7
3 7 9 80
3 9 239 80
3 81 277 9
3 9 277 239
3 11 249 10
3 10 271 84
3 249 270 10
3 10 270 254
3 254 271 10
3 12 249 11
3 13 249 12
3 85 255 13
3 13 270 249
3 255 270 13
3 15 251 14
3 14 237 88
3 14 244 237
3 14 251 244
3 16 251 15
3 17 251 16
3 89 257 17
3 244 251 17
3 17 257 244
3 18 276 93
3 95 276 18
3 19 275 94
3 100 275 19
3 21 252 20
3 20 235 96
3 20 253 235
3 252 253 20
3 22 252 21
3 23 252 22
3 104 264 23
3 23 253 252
3 23 264 253
3 75 259 74
3 74 259 246
3 76 260 75
3 75 260 259
3 77 241 76
3 241 260 76
3 77 248 241
3 79 248 78
3 80 239 79
3 239 248 79
3 82 261 81
3 261 277 81
3 83 258 82
3 258 261 82
3 84 240 83
3 240 258 83
3 84 271 240
3 86 272 85
3 85 272 255
3 87 238 86
3 238 272 86
3 88 262 87
3 87 262 238
3 237 262 88
3 90 243 89
3 243 257 89
3 91 266 90
3 90 266 243
3 92 234 91
3 234 266 91
3 93 268 92
3 92 268 234
3 93 276 268
3 94 233 95
3 94 275 233
3 233 276 95
3 96 267 97
3 235 267 96
3 97 242 98
3 97 267 242
3 98 265 99
3 242 265 98
3 99 269 100
3 265 269 99
3 269 275 100
3 101 273 102
3 236 273 101
3 102 263 103
3 102 273 263
3 103 245 104
3 103 263 245
3 245 264 104
3 233 269 268
3 268 276 233
3 233 275 269
3 265 266 234
3 234 269 265
3 268 269 234
3 235 257 243
3 243 267 235
3 253 257 235
3 247 270 236
3 255 256 236
3 236 270 255
3 256 273 236
3 244 264 237
3 237 264 262
3 238 263 256
3 256 272 238
3 262 263 238
3 239 274 248
3 239 277 274
3 240 259 258
3 240 271 259
3 248 274 241
3 258 260 241
3 241 261 258
3 241 274 261
3 243 266 242
3 242 267 243
3 242 266 265
3 244 257 253
3 253 264 244
3 245 263 262
3 262 264 245
3 246 254 247
3 246 271 254
3 259 271 246
3 254 270 247
3 255 272 256
3 263 273 256
3 259 260 258
3 274 277 261
3 0 278 1
3 106 278 0
3 1 278 105
3 105 106 24
3 105 278 106
3 1 31 2
3 1 105 31
3 31 107 2
3 27 12 11
3 27 11 110
3 12 27 111
3 105 24 31
3 107 26 25
3 26 107 31
3 109 26 31
3 27 110 28
3 111 27 30
3 27 113 30
3 27 108 113
3 29 111 30
3 112 109 31
3 109 279 108
3 108 279 113
3 112 279 109
3 113 279 112
3 2 280 3
3 107 280 2
3 3 280 114
3 107 25 114
3 114 280 107
3 3 290 74
3 114 290 3
3 77 293 4
3 4 293 116
3 25 26 121
3 25 281 114
3 121 292 25
3 25 292 281
3 115 291 32
3 32 291 120
3 117 289 33
3 33 289 121
3 74 286 75
3 74 290 286
3 75 282 76
3 75 286 282
3 76 288 77
3 282 288 76
3 288 293 77
3 281 290 114
3 116 283 115
3 283 291 115
3 116 293 283
3 118 285 117
3 285 289 117
3 119 284 118
3 284 285 118
3 120 287 119
3 119 287 284
3 120 291 287
3 289 292 121
3 285 286 281
3 281 292 285
3 286 290 281
3 286 295 282
3 282 294 288
3 282 295 294
3 287 291 283
3 283 294 287
3 283 293 288
3 288 294 283
3 284 295 285
3 287 294 284
3 294 295 284
3 285 295 286
3 285 292 289
3 5 4 296
3 4 116 296
3 125 5 296
3 9 8 297
3 8 132 297
3 131 9 297
3 34 32 124
3 127 32 34
3 127 115 32
3 32 129 124
3 35 122 36
3 134 35 36
3 122 128 36
3 134 36 130
3 126 116 115
3 127 126 115
3 116 126 125
3 116 125 296
3 128 122 123
3 124 129 123
3 129 128 123
3 133 130 131
3 133 134 130
3 132 133 131
3 132 131 297
3 5 301 6
3 125 301 5
3 6 301 135
3 37 298 34
3 34 298 127
3 137 298 37
3 126 299 125
3 125 299 135
3 135 301 125
3 127 300 126
3 136 299 126
3 126 300 136
3 127 298 137
3 137 300 127
3 135 299 136
3 136 300 137
3 6 312 78
3 135 312 6
3 80 314 7
3 7 314 141
3 37 313 137
3 140 313 37
3 38 311 138
3 143 311 38
3 78 310 79
3 78 312 310
3 79 303 80
3 79 310 303
3 303 314 80
3 136 304 135
3 304 312 135
3 137 306 136
3 136 306 304
3 137 313 306
3 138 309 139
3 138 311 309
3 139 302 140
3 139 309 302
3 302 313 140
3 141 308 142
3 141 314 308
3 142 305 143
3 142 308 305
3 305 311 143
3 302 307 306
3 306 313 302
3 302 309 307
3 307 308 303
3 303 310 307
3 308 314 303
3 306 307 304
3 307 310 304
3 310 312 304
3 305 308 307
3 307 309 305
3 309 311 305
3 8 7 318
3 7 141 318
3 132 8 318
3 38 35 315
3 35 134 315
3 143 38 315
3 133 132 317
3 132 141 317
3 141 132 318
3 134 133 316
3 133 142 316
3 142 133 317
3 134 143 315
3 143 134 316
3 141 142 317
3 142 143 316
3 81 9 331
3 9 131 331
3 10 84 328
3 149 10 328
3 148 27 28
3 148 28 330
3 28 149 319
3 28 319 330
3 130 36 329
3 36 144 329
3 147 39 327
3 39 148 327
3 82 81 326
3 326 81 331
3 83 82 320
3 320 82 326
3 84 83 324
3 83 320 324
3 84 324 328
3 131 130 321
3 321 130 329
3 131 321 331
3 144 145 325
3 144 325 329
3 145 146 322
3 145 322 325
3 146 147 323
3 322 146 323
3 323 147 327
3 327 148 330
3 319 149 328
3 323 319 324
3 319 323 330
3 324 319 328
3 324 320 333
3 320 326 332
3 320 332 333
3 325 321 329
3 321 325 332
3 321 326 331
3 326 321 332
3 322 323 333
3 325 322 332
3 332 322 333
3 323 324 333
3 323 327 330
3 10 334 11
3 149 334 10
3 11 334 110
3 28 110 149
3 110 334 149
3 12 335 13
3 111 335 12
3 13 335 150
3 29 150 111
3 150 335 111
3 85 13 347
3 13 150 347
3 14 88 346
3 157 14 346
3 151 29 30
3 150 29 337
3 29 151 345
3 337 29 345
3 151 40 345
3 40 155 345
3 152 41 344
3 41 156 344
3 156 42 43
3 156 43 350
3 43 157 338
3 43 338 350
3 86 85 343
3 343 85 347
3 87 86 336
3 336 86 343
3 88 87 342
3 87 336 342
3 88 342 346
3 150 337 347
3 153 152 341
3 341 152 344
3 154 153 339
3 339 153 341
3 155 154 340
3 154 339 340
3 155 340 345
3 344 156 350
3 338 157 346
3 342 336 349
3 336 343 348
3 336 348 349
3 337 340 343
3 340 337 345
3 337 343 347
3 341 338 342
3 338 341 350
3 342 338 346
3 340 339 348
3 339 341 349
3 348 339 349
3 343 340 348
3 341 342 349
3 341 344 350
3 14 351 15
3 157 351 14
3 15 351 158
3 43 158 157
3 158 351 157
3 15 42 16
3 42 15 158
3 162 16 42
3 21 48 22
3 21 165 48
3 48 159 22
3 42 158 43
3 162 42 47
3 42 164 47
3 42 160 164
3 159 45 44
3 45 159 48
3 45 48 161
3 47 46 162
3 165 49 48
3 163 161 48
3 161 352 160
3 160 352 164
3 163 352 161
3 164 352 163
3 16 353 17
3 162 353 16
3 17 353 166
3 46 166 162
3 166 353 162
3 89 17 366
3 17 166 366
3 173 18 93
3 46 47 167
3 166 46 357
3 46 167 363
3 357 46 363
3 167 50 363
3 50 171 363
3 168 51 365
3 51 172 365
3 172 52 354
3 52 173 364
3 354 52 364
3 90 89 355
3 355 89 366
3 91 90 362
3 90 355 362
3 92 91 356
3 356 91 362
3 93 92 361
3 92 356 361
3 173 93 364
3 93 361 364
3 166 357 366
3 169 168 359
3 359 168 365
3 170 169 358
3 358 169 359
3 171 170 360
3 170 358 360
3 171 360 363
3 172 354 365
3 361 354 364
3 354 361 369
3 365 354 369
3 355 357 360
3 357 355 366
3 355 360 367
3 362 355 367
3 361 356 369
3 356 362 368
3 356 368 369
3 360 357 363
3 358 359 368
3 360 358 367
3 367 358 368
3 359 365 369
3 368 359 369
3 362 367 368
3 18 371 95
3 173 371 18
3 94 372 19
3 19 372 176
3 52 371 173
3 175 371 52
3 53 372 174
3 176 372 53
3 95 370 94
3 370 372 94
3 95 371 370
3 174 370 175
3 174 372 370
3 370 371 175
3 176 100 19
3 96 385 20
3 20 385 177
3 178 48 49
3 177 376 49
3 49 382 178
3 376 382 49
3 53 383 176
3 183 373 53
3 373 383 53
3 178 382 54
3 54 382 182
3 179 384 55
3 55 384 183
3 97 374 96
3 374 385 96
3 98 381 97
3 97 381 374
3 99 375 98
3 375 381 98
3 100 380 99
3 99 380 375
3 176 383 100
3 100 383 380
3 177 385 376
3 180 378 179
3 378 384 179
3 181 377 180
3 377 378 180
3 182 379 181
3 181 379 377
3 182 382 379
3 183 384 373
3 380 383 373
3 373 388 380
3 384 388 373
3 374 379 376
3 376 385 374
3 374 386 379
3 381 386 374
3 380 388 375
3 375 387 381
3 375 388 387
3 379 382 376
3 377 387 378
3 379 386 377
3 386 387 377
3 378 388 384
3 387 388 378
3 381 387 386
3 20 389 21
3 177 389 20
3 21 389 165
3 165 177 49
3 165 389 177
3 22 390 23
3 159 390 22
3 23 390 184
3 159 44 184
3 184 390 159
3 101 402 0
3 0 402 106
3 23 401 104
3 184 401 23
3 31 24 185
3 106 392 24
3 24 399 185
3 392 399 24
3 45 190 44
3 44 393 184
3 190 403 44
3 44 403 393
3 185 399 56
3 56 399 189
3 186 400 57
3 57 400 190
3 102 398 101
3 398 402 101
3 103 391 102
3 391 398 102
3 104 397 103
3 103 397 391
3 104 401 397
3 106 402 392
3 393 401 184
3 187 396 186
3 396 400 186
3 188 394 187
3 394 396 187
3 189 395 188
3 188 395 394
3 189 399 395
3 400 403 190
3 397 405 391
3 391 404 398
3 391 405 404
3 392 398 395
3 395 399 392
3 392 402 398
3 396 397 393
3 393 403 396
3 397 401 393
3 395 404 394
3 394 405 396
3 404 405 394
3 398 404 395
3 396 405 397
3 396 403 400
3 121 26 109
3 148 108 27
3 121 407 33
3 33 407 191
3 39 406 148
3 192 406 39
3 108 408 109
3 148 406 108
3 108 406 192
3 192 408 108
3 109 407 121
3 191 407 109
3 109 408 191
3 191 408 192
3 151 30 113
3 112 31 185
3 151 410 40
3 40 410 194
3 56 409 185
3 193 409 56
3 112 411 113
3 185 409 112
3 112 409 193
3 193 411 112
3 113 410 151
3 194 410 113
3 113 411 194
3 194 411 193
3 120 420 32
3 32 420 129
3 33 422 117
3 191 422 33
3 128 423 36
3 36 423 144
3 147 421 39
3 39 421 192
3 117 418 118
3 117 422 418
3 118 419 119
3 418 419 118
3 119 417 120
3 119 419 417
3 417 420 120
3 129 413 128
3 413 423 128
3 129 420 413
3 144 416 145
3 144 423 416
3 145 414 146
3 145 416 414
3 146 415 147
3 414 415 146
3 415 421 147
3 192 412 191
3 412 422 191
3 192 421 412
3 415 418 412
3 412 421 415
3 418 422 412
3 413 417 416
3 416 423 413
3 413 420 417
3 414 418 415
3 416 417 414
3 417 419 414
3 414 419 418
3 34 424 37
3 124 424 34
3 38 426 35
3 35 426 122
3 37 424 140
3 138 426 38
3 122 427 123
3 122 426 138
3 138 427 122
3 123 425 124
3 139 425 123
3 123 427 139
3 140 424 124
3 124 425 140
3 139 427 138
3 140 425 139
3 40 439 155
3 194 439 40
3 152 437 41
3 41 437 196
3 189 438 56
3 56 438 193
3 57 436 186
3 195 436 57
3 153 433 152
3 433 437 152
3 154 435 153
3 153 435 433
3 155 434 154
3 434 435 154
3 155 439 434
3 186 431 187
3 186 436 431
3 187 430 188
3 187 431 430
3 188 432 189
3 430 432 188
3 432 438 189
3 193 429 194
3 193 438 429
3 429 439 194
3 196 428 195
3 428 436 195
3 196 437 428
3 428 433 431
3 431 436 428
3 428 437 433
3 432 434 429
3 429 438 432
3 434 439 429
3 431 435 430
3 430 435 432
3 433 435 431
3 432 435 434
3 41 440 156
3 196 440 41
3 160 42 156
3 190 45 161
3 190 441 57
3 57 441 195
3 156 440 160
3 160 442 161
3 160 440 196
3 196 442 160
3 161 441 190
3 195 441 161
3 161 442 195
3 195 442 196
3 164 167 47
3 163 48 178
3 167 443 50
3 50 443 198
3 197 178 54
3 163 444 164
3 163 178 197
3 197 444 163
3 164 443 167
3 198 443 164
3 164 444 198
3 198 444 197
3 50 454 171
3 198 454 50
3 168 455 51
3 51 455 200
3 182 456 54
3 54 456 197
3 55 453 179
3 199 453 55
3 169 450 168
3 450 455 168
3 170 452 169
3 169 452 450
3 171 451 170
3 451 452 170
3 171 454 451
3 179 448 180
3 179 453 448
3 180 447 181
3 180 448 447
3 181 449 182
3 447 449 181
3 449 456 182
3 197 446 198
3 197 456 446
3 446 454 198
3 200 445 199
3 445 453 199
3 200 455 445
3 445 450 448
3 448 453 445
3 445 455 450
3 449 451 446
3 446 456 449
3 451 454 446
3 448 452 447
3 447 452 449
3 450 452 448
3 449 452 451
3 51 459 172
3 200 459 51
3 172 460 52
3 52 460 175
3 174 461 53
3 53 461 183
3 183 458 55
3 55 458 199
3 459 460 172
3 175 457 174
3 457 461 174
3 175 460 457
3 183 461 458
3 199 457 200
3 199 458 457
3 457 459 200
3 458 461 457
3 457 460 459
3 201 202 58
3 59 202 201
3 201 58 462
3 58 203 462
3 59 201 463
3 208 59 463
3 60 204 203
3 207 61 208
3 206 201 205
3 205 201 462
3 201 206 463
3 203 204 462
3 204 205 462
3 206 207 463
3 207 208 463
3 202 464 58
3 58 464 203
3 59 468 202
3 208 468 59
3 60 466 62
3 203 466 60
3 65 467 61
3 61 467 208
3 62 466 209
3 209 469 63
3 63 469 210
3 210 465 64
3 64 465 211
3 211 467 65
3 202 468 464
3 464 469 203
3 203 469 466
3 208 467 465
3 465 468 208
3 466 469 209
3 464 468 210
3 210 469 464
3 210 468 465
3 465 467 211
3 60 62 473
3 204 60 473
3 65 61 472
3 61 207 472
3 62 212 473
3 215 65 472
3 205 204 470
3 204 212 470
3 212 204 473
3 206 205 474
3 213 205 470
3 205 213 474
3 207 206 471
3 206 214 471
3 214 206 474
3 215 207 471
3 207 215 472
3 212 213 470
3 213 214 474
3 214 215 471
3 62 209 212
3 209 63 475
3 63 216 475
3 64 211 476
3 216 64 476
3 215 211 65
3 212 209 475
3 211 215 476
3 213 212 475
3 213 216 214
3 216 213 475
3 215 214 476
3 214 216 476
3 210 216 63
3 216 210 64
3 217 218 66
3 218 217 67
3 217 66 477
3 66 219 477
3 67 217 478
3 224 67 478
3 68 220 219
3 223 69 224
3 222 217 221
3 221 217 477
3 217 222 478
3 219 220 477
3 220 221 477
3 222 223 478
3 223 224 478
3 218 479 66
3 66 479 219
3 67 483 218
3 224 483 67
3 68 481 70
3 219 481 68
3 73 482 69
3 69 482 224
3 70 481 225
3 225 484 71
3 71 484 226
3 226 480 72
3 72 480 227
3 227 482 73
3 218 483 479
3 479 484 219
3 219 484 481
3 224 482 480
3 480 483 224
3 481 484 225
3 479 483 226
3 226 484 479
3 226 483 480
3 480 482 227
3 68 70 485
3 220 68 485
3 73 69 487
3 69 223 487
3 70 228 485
3 231 73 487
3 221 220 486
3 228 220 485
3 220 228 486
3 222 221 488
3 229 221 486
3 221 229 488
3 223 222 489
3 230 222 488
3 222 230 489
3 223 231 487
3 231 223 489
3 228 229 486
3 229 230 488
3 230 231 489
3 70 225 228
3 225 71 490
3 71 232 490
3 72 227 491
3 232 72 491
3 231 227 73
3 228 225 490
3 227 231 491
3 229 228 490
3 229 232 230
3 232 229 490
3 231 230 491
3 230 232 491
3 226 232 71
3 232 226 72
4 375 492 387 494
4 492 494 375 509
4 478 347 337 495
4 237 64 346 216
4 476 346 64 216
4 63 475 216 401
4 72 491 328 232
4 490 232 71 290
4 392 477 217 402
4 478 217 347 495
4 67 347 478 217
4 246 71 232 290
4 430 493 394 506
4 201 462 58 385
4 491 328 232 496
4 232 290 490 496
4 388 375 387 494
4 404 405 391 506
4 430 394 495 506
4 381 387 375 492
4 356 368 362 492
4 375 388 380 501
4 492 498 367 508
4 491 319 328 496
4 490 290 281 496
4 346 216 476 493
4 66 217 477 402
4 216 401 475 493
4 326 497 261 499
4 462 385 201 498
4 213 475 393 493
4 403 393 493 504
4 338 346 476 493
4 475 401 393 493
4 376 385 462 498
4 284 419 496 499
4 293 497 288 500
4 237 216 346 493
4 405 493 391 506
4 414 496 419 499
4 375 494 388 501
4 356 368 492 509
4 222 478 337 503
4 217 477 392 503
4 490 281 229 496
4 284 497 419 499
4 360 367 492 498
4 392 402 217 503
4 246 290 232 496
4 356 492 362 509
4 265 492 375 509
4 414 419 497 499
4 347 217 255 495
4 67 255 347 217
4 402 495 217 503
4 213 216 475 493
4 394 405 404 506
4 360 367 498 508
4 403 213 393 504
4 281 496 292 502
4 328 271 72 232
4 322 333 496 499
4 404 391 495 506
4 494 501 375 509
4 273 402 398 495
4 394 493 405 506
4 490 229 232 496
4 451 360 492 498
4 293 283 288 497
4 201 385 58 507
4 420 291 129 505
4 11 487 73 69
4 21 473 60 62
4 450 492 359 494
4 332 497 326 499
4 307 283 500 505
4 216 264 63 401
4 435 493 430 506
4 349 493 339 506
4 109 292 422 502
4 115 283 307 505
4 271 232 328 496
4 492 367 507 508
4 387 492 378 494
4 368 359 492 494
4 281 292 229 502
4 381 375 265 492
4 394 404 495 506
4 245 391 397 493
4 68 2 485 70
4 403 436 161 504
4 378 377 447 492
4 283 116 304 500
4 255 256 272 495
4 283 497 293 500
4 213 493 393 504
4 396 403 393 493
4 492 507 498 508
4 245 397 401 493
4 435 430 495 506
4 285 422 292 502
4 367 362 492 507
4 240 496 324 499
4 246 259 290 496
4 322 497 332 499
4 396 403 493 504
4 396 436 403 504
4 291 420 497 505
4 115 291 283 505
4 322 496 414 499
4 332 326 320 499
4 434 439 345 503
4 379 492 386 507
4 283 304 307 500
4 403 161 213 504
4 322 414 497 499
4 115 129 291 505
4 115 283 304 307
4 497 500 283 505
4 236 402 273 495
4 281 229 496 502
4 284 496 295 499
4 397 391 405 493
4 337 495 340 503
4 460 494 354 501
4 109 229 292 502
4 222 217 478 503
4 345 337 340 503
4 362 492 266 509
4 320 240 324 499
4 413 497 420 505
4 285 292 496 502
4 201 498 385 507
4 439 113 345 503
4 285 292 281 496
4 259 286 290 496
4 444 164 446 498
4 262 237 346 493
4 291 497 283 505
4 5 296 301 125
4 318 8 132 297
4 368 494 492 509
4 341 339 349 493
4 319 496 491 502
4 245 401 264 493
4 217 66 236 402
4 476 338 493 504
4 398 391 273 495
4 461 373 384 494
4 460 365 354 494
4 261 497 326 500
4 217 402 236 495
4 444 454 446 164
4 439 113 429 411
4 358 360 367 492
4 442 428 161 436
4 164 352 474 163
4 279 488 113 112
4 377 386 379 492
4 396 405 394 493
4 379 498 492 507
4 337 345 222 503
4 164 363 454 498
4 271 328 324 496
4 343 337 347 495
4 116 283 293 500
4 293 288 241 500
4 213 216 493 504
4 444 456 163 498
4 385 498 376 507
4 356 362 234 509
4 458 461 384 494
4 460 459 365 494
4 324 496 333 499
4 343 495 272 506
4 367 355 362 507
4 264 401 216 493
4 256 255 217 495
4 455 459 445 494
4 377 378 387 492
4 258 326 261 499
4 428 442 161 504
4 455 365 459 494
4 359 358 368 492
4 388 387 378 494
4 429 411 113 503
4 288 497 241 500
4 368 369 359 494
4 232 496 229 502
4 408 422 412 109
4 341 433 339 493
4 491 496 232 502
4 451 492 449 498
4 361 364 354 509
4 320 324 333 499
4 113 222 345 503
4 431 394 430 493
4 164 454 446 498
4 369 494 368 509
4 391 263 495 506
4 348 339 495 506
4 339 493 435 506
4 322 332 333 499
4 446 456 444 498
4 375 380 269 501
4 476 493 216 504
4 408 109 412 502
4 461 373 494 501
4 375 501 269 509
4 294 497 284 499
4 58 385 235 507
4 261 497 241 499
4 304 116 283 115
4 451 454 363 498
4 284 285 295 496
4 322 333 323 496
4 404 395 394 495
4 378 492 448 494
4 273 391 263 495
4 245 493 262 506
4 394 432 430 495
4 449 447 377 492
4 322 323 415 496
4 439 429 113 503
4 343 272 238 506
4 326 258 320 499
4 379 449 492 498
4 271 324 240 496
4 378 447 448 492
4 340 348 339 495
4 434 345 340 503
4 393 401 397 493
4 290 286 281 496
4 324 328 319 496
4 246 232 259 496
4 338 342 346 493
4 358 452 360 492
4 342 262 346 493
4 287 284 294 497
4 325 332 322 497
4 452 451 360 492
4 458 453 445 494
4 450 448 492 494
4 419 418 284 496
4 362 266 492 507
4 435 339 433 493
4 384 378 453 494
4 242 381 265 492
4 259 496 240 499
4 458 384 453 494
4 434 340 435 495
4 430 435 431 493
4 288 497 294 499
4 271 259 232 496
4 359 450 452 492
4 116 310 304 500
4 434 340 495 503
4 444 163 164 498
4 241 497 288 499
4 371 364 276 501
4 364 501 354 509
4 339 435 495 506
4 262 216 237 493
4 449 377 379 492
4 218 255 217 236
4 414 325 322 497
4 357 363 206 498
4 109 407 422 292
4 414 416 325 497
4 359 452 358 492
4 419 284 417 497
4 404 391 398 495
4 164 206 363 498
4 340 339 435 495
4 322 415 414 496
4 256 236 273 495
4 432 394 395 495
4 435 430 432 495
4 374 385 376 507
4 387 381 386 492
4 367 362 368 492
4 354 501 494 509
4 287 417 284 497
4 261 241 497 500
4 403 161 436 441
4 458 457 461 494
4 460 457 459 494
4 419 414 418 496
4 354 494 369 509
4 232 271 226 246
4 237 262 210 216
4 242 381 492 507
4 355 507 367 508
4 201 58 235 507
4 271 240 259 496
4 434 429 439 503
4 261 274 241 500
4 320 333 332 499
4 436 400 403 441
4 241 274 248 500
4 234 362 266 509
4 109 422 412 502
4 320 258 240 499
4 291 420 417 497
4 236 256 217 495
4 457 458 445 494
4 241 248 293 500
4 362 355 243 507
4 360 363 357 498
4 445 459 457 494
4 365 369 354 494
4 388 384 373 494
4 419 417 414 497
4 206 357 498 508
4 460 457 494 501
4 431 396 394 493
4 310 307 304 500
4 365 455 450 494
4 175 364 371 501
4 373 388 494 501
4 386 492 381 507
4 260 288 282 499
4 263 245 262 506
4 256 495 263 506
4 420 413 417 497
4 289 422 407 292
4 265 375 269 509
4 273 263 256 495
4 418 422 285 502
4 9 131 297 314
4 428 161 436 504
4 321 326 497 500
4 116 4 296 312
4 164 443 454 363
4 396 431 436 504
4 433 431 435 493
4 180 447 378 377
4 284 418 285 496
4 451 363 360 498
4 434 435 432 495
4 286 496 259 499
4 345 113 439 410
4 271 232 259 246
4 354 369 361 509
4 265 266 242 492
4 444 198 454 164
4 113 439 194 411
4 256 263 238 506
4 307 306 115 505
4 452 449 451 492
4 276 370 371 501
4 457 461 494 501
4 163 456 382 498
4 332 321 326 497
4 283 294 288 497
4 433 493 341 504
4 129 413 420 505
4 287 291 417 497
4 373 380 388 501
4 396 493 431 504
4 451 446 454 498
4 357 360 498 508
4 291 287 283 497
4 460 175 457 501
4 418 412 422 502
4 376 462 205 498
4 362 243 266 507
4 434 495 432 503
4 336 343 238 506
4 242 492 266 507
4 369 365 359 494
4 384 388 378 494
4 233 370 276 501
4 455 445 450 494
4 392 395 398 503
4 418 285 496 502
4 202 235 243 508
4 452 447 449 492
4 340 337 343 495
4 259 260 282 499
4 307 302 306 505
4 443 454 198 164
4 113 439 410 194
4 365 450 359 494
4 264 216 262 493
4 408 191 422 109
4 321 497 325 505
4 286 295 496 499
4 416 325 497 505
4 210 262 237 264
4 411 438 193 112
4 450 448 452 492
4 432 495 395 503
4 428 436 431 504
4 415 418 414 496
4 395 495 398 503
4 453 378 448 494
4 255 256 217 236
4 14 157 211 351
4 264 262 245 493
4 329 321 325 505
4 241 288 260 499
4 286 259 282 499
4 396 400 403 436
4 279 108 230 109
4 415 496 323 502
4 411 112 113 503
4 262 210 216 264
4 436 161 442 195
4 448 447 452 492
4 235 385 267 507
4 382 456 379 498
4 407 422 191 109
4 150 13 224 335
4 288 294 282 499
4 438 409 193 112
4 342 262 493 506
4 474 206 164 163
4 488 221 113 112
4 163 382 205 498
4 498 507 201 508
4 217 67 255 218
4 258 261 241 499
4 446 198 454 444
4 429 194 439 411
4 177 20 389 203
4 387 386 377 492
4 376 205 382 498
4 431 493 433 504
4 416 497 413 505
4 367 368 358 492
4 206 164 163 498
4 411 438 112 503
4 267 385 374 507
4 338 341 493 504
4 461 174 373 501
4 398 395 404 495
4 161 436 441 195
4 0 106 219 278
4 414 417 416 497
4 408 108 109 502
4 343 348 340 495
4 416 329 325 505
4 442 160 161 504
4 474 206 163 205
4 476 216 214 504
4 371 370 175 501
4 314 131 239 277
4 319 323 496 502
4 321 332 325 497
4 283 287 294 497
4 282 260 259 75
4 396 393 397 493
4 181 449 447 377
4 447 448 180 378
4 462 201 205 498
4 163 205 206 498
4 491 232 230 502
4 424 37 140 313
4 262 238 263 506
4 342 338 341 493
4 331 277 261 500
4 38 311 426 138
4 239 9 314 277
4 342 336 262 506
4 257 366 59 508
4 262 336 238 506
4 146 415 322 323
4 341 433 153 339
4 9 131 314 277
4 331 261 326 500
4 355 243 507 508
4 286 285 281 496
4 323 324 319 496
4 221 113 222 488
4 112 438 409 503
4 418 496 415 502
4 374 379 386 507
4 358 360 452 170
4 271 328 84 240
4 406 192 421 502
4 217 221 477 503
4 348 495 343 506
4 130 423 128 505
4 213 214 216 504
4 349 342 493 506
4 412 191 422 408
4 75 259 282 286
4 423 128 36 130
4 64 237 210 216
4 318 141 7 314
4 301 312 6 135
4 290 259 246 74
4 444 163 456 197
4 383 275 380 501
4 166 17 208 353
4 286 282 295 499
4 131 321 130 500
4 294 284 295 499
4 137 37 298 313
4 383 380 373 501
4 290 259 74 286
4 341 349 342 493
4 230 232 229 502
4 411 429 438 503
4 192 108 408 502
4 274 261 277 500
4 221 392 477 503
4 76 282 260 288
4 289 285 422 292
4 315 311 38 143
4 416 145 414 325
4 476 214 338 504
4 321 130 500 505
4 181 449 377 379
4 206 463 357 508
4 258 259 240 499
4 394 432 188 430
4 453 448 445 494
4 397 405 396 493
4 239 248 274 500
4 383 372 275 501
4 416 423 329 505
4 68 2 1 485
4 487 12 69 11
4 473 22 62 21
4 319 491 230 502
4 452 360 451 170
4 321 500 497 505
4 437 440 196 504
4 235 507 243 508
4 310 248 239 500
4 243 362 90 355
4 131 130 308 500
4 108 192 406 502
4 415 414 146 322
4 174 383 373 501
4 114 3 225 280
4 325 145 414 322
4 433 435 153 339
4 10 149 227 334
4 384 179 453 378
4 295 285 286 496
4 323 333 324 496
4 457 174 461 501
4 427 139 138 309
4 308 500 130 505
4 370 275 372 501
4 324 84 328 240
4 391 245 397 103
4 442 196 160 504
4 452 359 358 169
4 454 171 451 363
4 305 143 316 142
4 436 442 428 195
4 438 193 429 411
4 112 409 399 503
4 435 340 434 154
4 370 233 275 501
4 271 324 328 240
4 139 302 425 140
4 417 413 416 497
4 459 455 445 200
4 431 430 394 187
4 184 23 209 390
4 217 222 221 503
4 440 160 196 504
4 395 432 188 394
4 336 348 343 506
4 438 399 409 503
4 218 247 270 236
4 449 379 456 498
4 131 9 331 277
4 356 369 368 509
4 452 450 359 169
4 189 399 438 503
4 382 379 376 498
4 425 129 123 124
4 122 123 427 128
4 237 346 88 262
4 356 362 91 234
4 374 381 267 507
4 321 331 326 500
4 360 355 367 508
4 482 227 249 480
4 258 326 82 261
4 206 205 201 498
4 131 314 239 303
4 196 442 428 504
4 202 243 257 508
4 381 98 265 375
4 206 498 201 508
4 345 439 434 155
4 258 241 260 499
4 326 82 320 258
4 340 435 339 154
4 382 456 182 379
4 202 58 235 201
4 445 199 453 458
4 330 108 406 502
4 128 129 309 505
4 206 201 463 508
4 276 268 233 501
4 303 310 239 500
4 239 131 303 500
4 113 112 221 503
4 87 262 336 238
4 273 398 102 391
4 87 262 342 336
4 304 135 299 136
4 445 199 458 457
4 90 362 243 266
4 59 201 202 508
4 380 375 269 99
4 130 329 423 505
4 394 396 431 187
4 137 300 136 306
4 200 445 459 457
4 160 440 350 504
4 263 245 391 103
4 308 307 500 505
4 462 204 49 205
4 24 221 477 220
4 383 174 372 501
4 317 142 141 308
4 267 381 242 507
4 230 109 108 502
4 370 372 275 94
4 371 276 95 370
4 260 241 76 288
4 160 213 161 504
4 255 85 347 272
4 257 59 202 508
4 189 395 399 503
4 36 423 130 329
4 418 419 284 118
4 320 83 324 240
4 128 413 129 505
4 349 336 342 506
4 416 413 423 505
4 233 95 276 370
4 275 233 370 94
4 445 448 450 494
4 248 310 312 116
4 221 399 392 503
4 406 421 327 502
4 235 267 243 507
4 477 221 24 392
4 262 346 88 342
4 128 305 130 505
4 152 344 437 504
4 221 222 113 503
4 267 374 97 381
4 337 345 29 222
4 438 432 189 503
4 376 49 382 205
4 160 214 213 504
4 49 376 462 205
4 392 221 24 399
4 282 294 295 499
4 46 206 357 363
4 355 366 243 508
4 299 125 116 126
4 317 133 131 132
4 102 263 273 391
4 406 327 330 502
4 456 446 444 197
4 218 270 255 236
4 302 309 129 505
4 116 4 312 248
4 284 285 418 118
4 124 32 34 424
4 36 35 426 122
4 449 456 446 498
4 306 115 304 307
4 174 457 175 501
4 354 364 52 460
4 401 397 245 104
4 415 147 421 502
4 401 245 264 104
4 229 109 230 502
4 202 464 468 253
4 257 243 366 508
4 239 274 277 500
4 179 448 453 378
4 360 451 171 363
4 221 112 399 503
4 79 239 310 248
4 214 350 338 504
4 269 380 275 501
4 437 344 440 504
4 72 271 226 232
4 386 381 374 507
4 319 230 330 502
4 260 259 258 499
4 315 38 311 426
4 264 244 210 253
4 92 268 361 509
4 434 432 429 503
4 450 455 365 168
4 303 307 310 500
4 221 24 486 220
4 470 49 204 205
4 471 46 206 207
4 434 340 345 155
4 71 232 226 246
4 451 449 446 498
4 308 307 303 500
4 343 347 85 272
4 437 433 152 504
4 364 175 52 460
4 350 440 344 504
4 196 428 437 504
4 449 182 456 379
4 92 361 356 509
4 418 415 412 502
4 89 366 243 355
4 316 134 130 133
4 126 300 127 115
4 4 116 293 248
4 63 23 264 253
4 432 395 189 503
4 202 468 257 253
4 489 28 231 230
4 489 223 29 222
4 315 35 36 134
4 34 32 127 298
4 235 243 257 202
4 97 242 267 381
4 462 376 177 385
4 266 91 362 234
4 461 183 384 373
4 172 365 354 460
4 456 163 382 197
4 436 396 400 186
4 217 66 218 236
4 163 382 49 205
4 357 366 463 166
4 236 273 402 101
4 471 214 43 215
4 470 212 44 213
4 486 25 229 228
4 77 241 248 293
4 265 242 98 381
4 174 370 372 501
4 89 366 257 243
4 273 398 402 101
4 112 24 221 399
4 240 320 83 258
4 79 239 303 310
4 130 305 308 505
4 458 461 183 384
4 365 172 459 460
4 277 81 331 261
4 463 59 366 508
4 380 275 383 100
4 276 93 361 364
4 129 302 306 313
4 402 0 66 101
4 450 365 359 168
4 305 307 308 505
4 108 148 330 406
4 241 77 288 293
4 440 160 350 156
4 428 431 433 504
4 357 463 366 508
4 337 150 347 478
4 206 46 164 363
4 257 468 244 253
4 477 392 106 402
4 202 257 235 253
4 422 117 285 289
4 445 200 199 457
4 302 307 309 505
4 161 403 190 441
4 357 355 360 508
4 113 29 345 222
4 239 314 9 80
4 321 131 331 500
4 248 78 4 312
4 108 330 230 502
4 409 112 399 185
4 385 267 374 96
4 223 111 29 150
4 207 162 46 166
4 228 107 25 114
4 212 159 44 184
4 407 109 121 292
4 265 269 375 99
4 321 329 130 505
4 393 403 44 213
4 396 436 431 186
4 338 214 43 350
4 281 25 229 292
4 319 28 330 230
4 459 51 365 455
4 175 370 174 501
4 160 350 214 504
4 298 37 424 313
4 310 78 248 312
4 267 242 243 507
4 163 178 382 197
4 75 74 259 286
4 385 235 267 96
4 447 180 181 377
4 268 93 361 276
4 264 63 401 104
4 443 164 167 363
4 113 345 151 410
4 66 247 479 218
4 392 399 395 503
4 243 242 266 507
4 308 303 131 500
4 55 453 458 384
4 479 247 270 218
4 423 144 416 329
4 341 344 152 504
4 208 467 251 244
4 269 501 268 509
4 285 418 117 422
4 305 128 309 505
4 81 326 331 261
4 268 269 233 501
4 225 3 247 481
4 247 484 225 481
4 210 237 244 264
4 253 252 466 209
4 371 173 276 364
4 275 372 383 176
4 328 149 319 491
4 114 281 490 290
4 475 184 393 401
4 157 346 476 338
4 401 63 23 104
4 466 469 253 209
4 361 369 356 509
4 4 296 312 301
4 106 66 477 402
4 415 323 147 502
4 246 3 71 290
4 9 318 314 297
4 270 10 254 480
4 234 269 268 509
4 247 66 0 236
4 80 239 314 303
4 462 177 58 385
4 433 341 152 504
4 479 270 483 218
4 327 323 330 502
4 271 10 328 72
4 128 309 311 305
4 255 347 13 67
4 463 201 59 508
4 210 216 264 63
4 67 270 255 218
4 66 236 402 101
4 130 143 134 316
4 144 416 329 325
4 423 413 128 505
4 234 92 356 509
4 270 249 10 480
4 348 336 349 506
4 250 247 3 481
4 233 95 370 94
4 438 429 432 503
4 243 90 89 355
4 269 275 380 100
4 174 53 383 372
4 52 371 175 364
4 92 93 361 268
4 478 150 347 67
4 399 112 24 185
4 350 344 341 504
4 234 268 92 509
4 66 247 218 236
4 17 59 208 244
4 247 250 219 481
4 262 88 87 342
4 430 188 394 187
4 83 84 324 240
4 3 71 247 246
4 269 234 265 509
4 491 328 149 72
4 490 71 114 290
4 184 475 63 401
4 476 64 346 157
4 188 189 432 395
4 108 330 28 230
4 343 85 86 272
4 366 59 463 166
4 183 55 458 384
4 51 365 172 459
4 167 164 46 363
4 275 19 372 176
4 276 18 173 371
4 271 254 10 72
4 345 151 29 113
4 442 196 428 195
4 194 429 193 411
4 160 43 214 350
4 348 349 339 506
4 173 93 276 364
4 176 383 275 100
4 437 428 433 504
4 305 309 307 505
4 270 482 249 480
4 449 181 182 379
4 161 44 403 213
4 319 330 323 502
4 338 350 341 504
4 455 51 365 168
4 191 412 192 408
4 421 412 415 502
4 103 245 397 104
4 109 229 25 292
4 202 235 58 253
4 448 179 180 378
4 176 275 19 100
4 173 93 18 276
4 264 210 63 253
4 148 330 28 108
4 275 372 19 94
4 276 95 18 371
4 236 66 0 101
4 249 227 10 480
4 350 160 43 156
4 77 248 4 293
4 79 310 78 248
4 275 233 269 501
4 58 464 202 253
4 63 264 23 104
4 403 190 44 161
4 186 431 396 187
4 328 84 10 271
4 398 273 102 101
4 100 380 269 99
4 56 409 438 399
4 423 36 144 329
4 453 55 179 384
4 155 434 340 154
4 443 50 454 363
4 225 70 228 114
4 209 62 212 184
4 290 246 3 74
4 64 346 14 237
4 121 109 25 292
4 133 317 131 308
4 116 304 299 126
4 439 40 345 410
4 360 451 170 171
4 137 127 300 306
4 81 331 9 277
4 312 6 4 301
4 133 142 317 308
4 13 85 347 255
4 172 354 52 460
4 183 461 53 373
4 304 299 126 136
4 326 81 82 261
4 318 7 9 314
4 63 210 469 253
4 96 267 374 97
4 415 146 147 323
4 178 382 49 163
4 32 291 420 120
4 168 359 450 169
4 375 98 265 99
4 128 123 139 129
4 453 199 55 458
4 61 207 208 166
4 69 223 224 150
4 455 459 51 200
4 77 76 241 288
4 421 406 39 192
4 433 153 152 341
4 244 17 59 257
4 454 198 50 443
4 440 196 41 437
4 410 439 40 194
4 480 10 254 72
4 422 191 33 407
4 58 20 235 385
4 416 144 145 325
4 139 309 128 129
4 143 130 305 316
4 441 436 57 195
4 409 193 56 438
4 50 171 454 363
4 403 400 190 441
4 92 356 91 234
4 247 71 226 246
4 355 357 366 508
4 346 88 14 237
4 118 285 418 117
4 270 255 13 67
4 439 345 40 155
4 484 71 226 247
4 362 90 91 266
4 446 198 444 197
4 251 17 208 244
4 391 102 263 103
4 358 452 169 170
4 208 467 244 465
4 336 86 87 238
4 120 287 417 119
4 227 10 480 72
4 54 382 456 182
4 244 64 237 210
4 438 189 56 399
4 489 108 28 230
4 24 221 486 112
4 470 163 49 205
4 440 350 344 156
4 289 407 121 292
4 148 327 330 406
4 471 43 214 160
4 315 311 36 426
4 20 58 235 253
4 215 211 476 157
4 231 227 491 149
4 209 212 475 184
4 225 228 490 114
4 115 127 32 313
4 437 152 41 344
4 39 327 421 147
4 75 282 260 76
4 145 146 414 322
4 97 98 242 381
4 385 20 235 96
4 143 311 130 134
4 29 113 489 222
4 25 26 486 109
4 161 45 44 470
4 471 206 46 164
4 486 229 25 109
4 44 161 470 213
4 30 29 113 489
4 471 46 47 164
4 436 400 57 186
4 466 252 253 203
4 252 253 23 209
4 115 300 127 306
4 150 223 224 478
4 208 463 166 207
4 251 467 211 244
4 247 226 254 246
4 296 312 301 135
4 314 318 141 297
4 422 33 117 289
4 82 83 320 258
4 224 482 249 270
4 483 226 254 479
4 311 36 130 134
4 27 487 223 231
4 31 485 228 220
4 435 153 339 154
4 309 139 302 129
4 462 177 204 203
4 220 477 106 219
4 129 124 140 313
4 0 247 250 219
4 244 59 208 468
4 138 427 309 128
4 79 239 80 303
4 7 9 314 80
4 306 137 127 313
4 118 419 284 119
4 468 244 59 257
4 210 464 469 253
4 78 6 4 312
4 298 424 32 313
4 129 139 302 425
4 127 115 306 313
4 247 0 66 219
4 247 254 226 479
4 247 226 484 479
4 131 314 303 308
4 309 427 139 128
4 159 212 44 45
4 107 228 25 26
4 111 29 30 223
4 162 207 46 47
4 254 226 483 480
4 311 122 138 128
4 436 57 400 441
4 14 244 64 237
4 427 138 122 128
4 124 425 129 140
4 302 129 425 140
4 316 130 305 142
4 124 129 32 313
4 312 310 304 116
4 73 482 227 249
4 130 305 311 143
4 129 123 139 425
4 427 123 139 128
4 465 244 208 468
4 56 409 399 185
4 40 151 345 410
4 33 422 407 289
4 164 46 47 167
4 151 30 29 113
4 109 25 26 121
4 190 45 44 161
4 50 443 167 363
4 252 20 253 203
4 39 327 406 421
4 371 52 173 364
4 372 53 383 176
4 271 254 226 246
4 116 304 126 115
4 122 311 36 128
4 211 64 476 157
4 491 149 227 72
4 114 71 490 225
4 475 184 63 209
4 253 20 58 203
4 302 129 140 313
4 131 130 133 308
4 219 484 247 481
4 41 440 437 344
4 58 177 462 203
4 106 477 66 219
4 206 471 160 164
4 109 486 221 112
4 470 161 163 205
4 489 113 108 230
4 309 311 138 128
4 465 244 468 210
4 226 254 271 72
4 224 482 270 480
4 463 59 208 166
4 478 224 150 67
4 252 62 466 209
4 160 352 474 164
4 488 279 109 112
4 163 352 474 161
4 142 133 130 308
4 136 126 304 115
4 480 254 226 72
4 251 211 14 244
4 244 467 211 465
4 424 140 32 313
4 471 214 206 160
4 249 13 224 270
4 116 304 135 299
4 298 32 137 313
4 141 131 317 308
4 426 311 36 138
4 32 124 140 424
4 122 426 36 138
4 142 130 305 308
4 205 470 161 213
4 486 221 229 109
4 208 467 61 251
4 125 296 301 135
4 318 132 141 297
4 137 127 32 298
4 489 113 230 222
4 466 253 469 203
4 36 311 315 143
4 143 315 36 134
4 23 252 62 390
4 479 247 66 219
4 115 136 300 306
4 244 465 64 210
4 9 8 318 297
4 296 4 5 301
4 34 37 424 298
4 250 219 481 68
4 315 35 38 426
4 141 131 314 297
4 296 312 135 116
4 304 136 115 306
4 244 211 14 64
4 315 36 35 426
4 424 32 34 298
4 484 247 479 219
4 253 58 464 203
4 22 159 62 390
4 280 107 2 70
4 250 3 280 70
4 65 467 211 251
4 483 270 67 218
4 114 107 280 70
4 159 184 62 390
4 135 125 296 116
4 131 141 132 297
4 464 469 253 203
4 113 27 489 108
4 161 163 48 470
4 160 471 42 164
4 109 31 486 112
4 36 311 143 134
4 69 335 12 111
4 61 353 16 162
4 224 483 270 67
4 60 252 466 203
4 137 32 127 313
4 122 36 311 138
4 135 312 304 116
4 57 190 400 441
4 270 13 224 67
4 9 8 7 318
4 140 124 32 313
4 6 5 4 301
4 131 141 314 308
4 27 113 489 30
4 471 47 42 164
4 48 45 161 470
4 26 31 486 109
4 27 223 111 30
4 228 107 31 26
4 252 23 22 390
4 270 483 224 480
4 351 14 15 251
4 252 21 20 389
4 2 3 280 250
4 270 254 483 480
4 16 353 61 251
4 62 252 23 209
4 126 136 300 115
4 109 221 488 112
4 474 163 161 205
4 474 206 160 164
4 12 13 335 249
4 42 43 471 160
4 108 28 27 489
4 49 48 163 470
4 486 31 24 112
4 209 62 184 390
4 114 280 225 70
4 130 316 133 142
4 69 224 482 249
4 227 10 73 249
4 250 1 0 278
4 353 16 17 251
4 334 10 11 73
4 474 206 214 160
4 317 131 141 132
4 116 135 125 299
4 121 33 407 289
4 39 327 148 406
4 211 244 465 64
4 59 468 257 202
4 41 440 344 156
4 229 221 488 109
4 113 230 222 488
4 205 161 474 213
4 225 280 3 70
4 23 62 209 390
4 335 69 224 150
4 61 208 353 166
4 31 24 112 185
4 42 43 160 156
4 28 27 148 108
4 73 10 11 249
4 60 21 252 389
4 73 334 10 227
4 65 351 15 251
4 26 25 486 228
4 212 44 45 470
4 29 30 223 489
4 49 48 178 163
4 471 47 46 207
4 1 250 68 278
4 69 12 335 249
4 62 252 22 390
4 21 60 252 62
4 11 69 73 249
4 65 61 467 251
4 60 252 62 466
4 482 73 69 249
4 2 68 250 70
4 70 250 481 68
4 27 223 489 231
4 228 486 31 220
4 250 280 2 70
4 223 27 489 30
4 31 26 486 228
4 43 42 471 215
4 231 27 28 489
4 48 49 204 470
4 486 24 31 220
4 252 22 21 62
4 69 11 12 249
4 68 2 250 1
4 42 472 15 16
4 487 12 11 27
4 2 485 31 1
4 473 22 21 48
4 503 478 495 217
4 503 495 478 337
4 472 61 15 16
4 472 15 61 65
4 251 15 61 16
4 251 61 15 65
4 129 291 32 115
4 129 32 291 420
4 24 31 106 105
4 24 106 31 220
4 28 149 27 231
4 28 27 149 110
4 43 157 42 215
4 43 42 157 158
4 506 245 391 263
4 506 391 245 493
4 508 235 201 202
4 508 201 235 507
4 268 509 276 361
4 268 276 509 501
4 364 276 509 361
4 364 509 276 501
4 306 129 505 302
4 505 129 306 115
4 266 509 265 234
4 265 509 266 492
4 506 256 272 238
4 506 272 256 495
4 398 503 402 392
4 402 503 398 495
4 272 347 495 343
4 272 495 347 255
4 238 343 86 272
4 238 86 343 336
4 248 116 500 310
4 500 116 248 293
4 376 507 379 374
4 379 507 376 498
4 213 160 474 214
4 131 277 500 239
4 500 277 131 331
4 109 230 488 229
4 109 488 230 279
4 279 230 113 488
4 279 113 230 108
4 502 192 412 408
4 502 412 192 421
4 161 474 160 352
4 160 474 161 213
4 417 284 119 287
4 417 119 284 419
4 157 14 64 346
4 157 64 14 211
4 3 114 71 290
4 3 71 114 225
4 20 177 58 203
4 20 58 177 385
4 373 174 53 383
4 53 174 373 461
4 364 460 501 175
4 501 460 364 354
4 291 417 120 287
4 120 417 291 420
4 23 184 63 401
4 23 63 184 209
4 13 150 67 347
4 13 67 150 224
4 257 366 17 59
4 257 17 366 89
4 106 0 66 402
4 106 66 0 219
4 502 147 327 323
4 502 327 147 421
4 17 166 59 366
4 17 59 166 208
4 149 10 72 328
4 149 72 10 227
4 157 43 476 215
4 157 476 43 338
4 214 476 43 215
4 214 43 476 338
4 184 44 475 393
4 184 475 44 212
4 213 475 44 393
4 213 44 475 212
4 28 230 491 231
4 491 230 28 319
4 491 149 28 231
4 28 149 491 319
4 25 229 490 281
4 490 229 25 228
4 490 114 25 281
4 25 114 490 228
4 46 206 463 357
4 463 206 46 207
4 463 166 46 357
4 46 166 463 207
4 177 49 462 204
4 462 49 177 376
4 24 106 477 392
4 477 106 24 220
4 382 197 54 456
4 54 197 382 178
4 29 150 478 223
4 478 150 29 337
4 478 222 29 223
4 29 222 478 337
4 130 311 128 36
4 130 128 311 305
4 253 468 210 464
4 253 210 468 244
4 270 479 254 247
4 254 479 270 483
4 225 247 71 484
4 225 71 247 3
4 209 253 63 469
4 209 63 253 23
4 481 3 70 225
4 481 70 3 250
4 115 313 129 306
4 129 313 115 32
4 470 48 212 204
4 470 212 48 45
4 473 212 48 204
4 472 207 42 215
4 471 207 42 47
4 471 42 207 215
4 353 251 208 61
4 208 251 353 17
4 166 61 162 353
4 150 69 111 335
4 250 278 219 68
4 219 278 250 0
4 389 252 203 20
4 389 203 252 60
4 351 251 211 14
4 211 251 351 65
4 335 249 224 69
4 224 249 335 13
4 215 65 42 472
4 15 42 65 472
4 231 73 27 487
4 11 27 73 487
4 70 107 228 114
4 2 31 70 107
4 2 70 31 485
4 228 70 31 107
4 228 31 70 485
4 105 278 31 106
4 105 31 278 1
4 48 21 389 165
4 177 48 389 165
4 49 48 177 165
4 49 177 48 204
4 62 159 212 184
4 22 48 62 159
4 22 62 48 473
4 223 69 111 150
4 207 61 162 166
4 278 31 68 1
4 485 68 31 1
4 485 31 68 220
4 389 48 60 21
4 473 60 48 21
4 473 48 60 204
4 223 69 27 111
4 223 27 69 487
4 12 27 69 111
4 12 69 27 487
4 16 61 42 472
4 16 42 61 162
4 158 351 42 157
4 158 42 351 15
4 65 351 42 15
4 110 334 27 149
4 110 27 334 11
4 73 334 27 11
4 212 48 62 473
4 207 42 61 472
4 215 211 351 65
4 351 211 215 157
4 351 42 215 65
4 215 42 351 157
4 231 227 334 73
4 334 227 231 149
4 334 27 231 73
4 231 27 334 149
4 159 212 48 62
4 159 48 212 45
4 207 162 42 47
4 42 162 207 61
4 203 389 204 60
4 203 204 389 177
4 48 204 389 60
4 48 389 204 177
4 220 219 278 68
4 278 219 220 106
4 278 31 220 68
4 220 31 278 106

CELL_TYPES 2806
1
1
1
1
1
1
1
1
1
1
1
1
1
1
1
1
1
1
1
1
1
1
1
1
1
1
1
1
1
1
1
1
1
1
1
1
1
1
1
1
1
1
1
1
1
1
1
1
1
1
1
1
1
1
1
1
1
1
1
1
1
1
1
1
1
1
1
1
1
1
1
1
1
1
3
3
3
3
3
3
3
3
3
3
3
3
3
3
3
3
3
3
3
3
3
3
3
3
3
3
3
3
3
3
3
3
3
3
3
3
3
3
3
3
3
3
3
3
3
3
3
3
3
3
3
3
3
3
3
3
3
3
3
3
3
3
3
3
3
3
3
3
3
3
3
3
3
3
3
3
3
3
3
3
3
3
3
3
3
3
3
3
3
3
3
3
3
3
3
3
3
3
3
3
3
3
3
3
3
3
3
3
3
3
3
3
3
3
3
3
3
3
3
3
3
3
3
3
3
3
3
3
3
3
3
3
3
3
3
3
3
3
3
3
3
3
3
3
3
3
3
3
3
3
3
3
3
3
3
3
3
3
3
3
3
3
3
3
3
3
3
3
3
3
3
3
3
3
3
3
3
3
3
3
3
3
3
3
3
3
3
3
3
3
3
3
3
3
3
3
3
3
3
3
3
3
3
3
3
3
3
3
3
3
3
3
3
3
3
3
3
3
3
3
3
3
3
3
3
3
3
3
3
3
3
3
3
3
3
3
3
3
3
3
3
3
3
3
3
3
3
3
3
3
3
3
3
3
3
3
3
3
3
3
3
3
3
3
3
3
3
3
3
3
5
5
5
5
5
5
5
5
5
5
5
5
5
5
5
5
5
5
5
5
5
5
5
5
5
5
5
5
5
5
5
5
5
5
5
5
5
5
5
5
5
5
5
5
5
5
5
5
5
5
5
5
5
5
5
5
5
5
5
5
5
5
5
5
5
5
5
5
5
5
5
5
5
5
5
5
5
5
5
5
5
5
5
5
5
5
5
5
5
5
5
5
5
5
5
5
5
5
5
5
5
5
5
5
5
5
5
5
5
5
5
5
5
5
5
5
5
5
5
5
5
5
5
5
5
5
5
5
5
5
5
5
5
5
5
5
5
5
5
5
5
5
5
5
5
5
5
5
5
5
5
5
5
5
5
5
5
5
5
5
5
5
5
5
5
5
5
5
5
5
5
5
5
5
5
5
5
5
5
5
5
5
5
5
5
5
5
5
5
5
5
5
5
5
5
5
5
5
5
5
5
5
5
5
5
5
5
5
5
5
5
5
5
5
5
5
5
5
5
5
5
5
5
5
5
5
5
5
5
5
5
5
5
5
5
5
5
5
5
5
5
5
5
5
5
5
5
5
5
5
5
5
5
5
5
5
5
5
5
5
5
5
5
5
5
5
5
5
5
5
5
5
5
5
5
5
5
5
5
5
5
5
5
5
5
5
5
5
5
5
5
5
5
5
5
5
5
5
5
5
5
5
5
5
5
5
5
5
5
5
5
5
5
5
5
5
5
5
5
5
5
5
5
5
5
5
5
5
5
5
5
5
5
5
5
5
5
5
5
5
5
5
5
5
5
5
5
5
5
5
5
5
5
5
5
5
5
5
5
5
5
5
5
5
5
5
5
5
5
5
5
5
5
5
5
5
5
5
5
5
5
5
5
5
5
5
5
5
5
5
5
5
5
5
5
5
5
5
5
5
5
5
5
5
5
5
5
5
5
5
5
5
5
5
5
5
5
5
5
5
5
5
5
5
5
5
5
5
5
5
5
5
5
5
5
5
5
5
5
5
5
5
5
5
5
5
5
5
5
5
5
5
5
5
5
5
5
5
5
5
5
5
5
5
5
5
5
5
5
5
5
5
5
5
5
5
5
5
5
5
5
5
5
5
5
5
5
5
5
5
5
5
5
5
5
5
5
5
5
5
5
5
5
5
5
5
5
5
5
5
5
5
5
5
5
5
5
5
5
5
5
5
5
5
5
5
5
5
5
5
5
5
5
5
5
5
5
5
5
5
5
5
5
5
5
5
5
5
5
5
5
5
5
5
5
5
5
5
5
5
5
5
5
5
5
5
5
5
5
5
5
5
5
5
5
5
5
5
5
5
5
5
5
5
5
5
5
5
5
5
5
5
5
5
5
5
5
5
5
5
5
5
5
5
5
5
5
5
5
5
5
5
5
5
5
5
5
5
5
5
5
5
5
5
5
5
5
5
5
5
5
5
5
5
5
5
5
5
5
5
5
5
5
5
5
5
5
5
5
5
5
5
5
5
5
5
5
5
5
5
5
5
5
5
5
5
5
5
5
5
5
5
5
5
5
5
5
5
5
5
5
5
5
5
5
5
5
5
5
5
5
5
5
5
5
5
5
5
5
5
5
5
5
5
5
5
5
5
5
5
5
5
5
5
5
5
5
5
5
5
5
5
5
5
5
5
5
5
5
5
5
5
5
5
5
5
5
5
5
5
5
5
5
5
5
5
5
5
5
5
5
5
5
5
5
5
5
5
5
5
5
5
5
5
5
5
5
5
5
5
5
5
5
5
5
5
5
5
5
5
5
5
5
5
5
5
5
5
5
5
5
5
5
5
5
5
5
5
5
5
5
5
5
5
5
5
5
5
5
5
5
5
5
5
5
5
5
5
5
5
5
5
5
5
5
5
5
5
5
5
5
5
5
5
5
5
5
5
5
5
5
5
5
5
5
5
5
5
5
5
5
5
5
5
5
5
5
5
5
5
5
5
5
5
5
5
5
5
5
5
5
5
5
5
5
5
5
5
5
5
5
5
5
5
5
5
5
5
5
5
5
5
5
5
5
5
5
5
5
5
5
5
5
5
5
5
5
5
5
5
5
5
5
5
5
5
5
5
5
5
5
5
5
5
5
5
5
5
5
5
5
5
5
5
5
5
5
5
5
5
5
5
5
5
5
5
5
5
5
5
5
5
5
5
5
5
5
5
5
5
5
5
5
5
5
5
5
5
5
5
5
5
10
10
10
10
10
10
10
10
10
10
10
10
10
10
10
10
10
10
10
10
10
10
10
10
10
10
10
10
10
10
10
10
10
10
10
10
10
10
10
10
10
10
10
10
10
10
10
10
10
10
10
10
10
10
10
10
10
10
10
10
10
10
10
10
10
10
10
10
10
10
10
10
10
10
10
10
10
10
10
10
10
10
10
10
10
10
10
10
10
10
10
10
10
10
10
10
10
10
10
10
10
10
10
10
10
10
10
10
10
10
10
10
10
10
10
10
10
10
10
10
10
10
10
10
10
10
10
10
10
10
10
10
10
10
10
10
10
10
10
10
10
10
10
10
10
10
10
10
10
10
10
10
10
10
10
10
10
10
10
10
10
10
10
10
10
10
10
10
10
10
10
10
10
10
10
10
10
10
10
10
10
10
10
10
10
10
10
10
10
10
10
10
10
10
10
10
10
10
10
10
10
10
10
10
10
10
10
10
10
10
10
10
10
10
10
10
10
10
10
10
10
10
10
10
10
10
10
10
10
10
10
10
10
10
10
10
10
10
10
10
10
10
10
10
10
10
10
10
10
10
10
10
10
10
10
10
10
10
10
10
10
10
10
10
10
10
10
10
10
10
10
10
10
10
10
10
10
10
10
10
10
10
10
10
10
10
10
10
10
10
10
10
10
10
10
10
10
10
10
10
10
10
10
10
10
10
10
10
10
10
10
10
10
10
10
10
10
10
10
10
10
10
10
10
10
10
10
10
10
10
10
10
10
10
10
10
10
10
10
10
10
10
10
10
10
10
10
10
10
10
10
10
10
10
10
10
10
10
10
10
10
10
10
10
10
10
10
10
10
10
10
10
10
10
10
10
10
10
10
10
10
10
10
10
10
10
10
10
10
10
10
10
10
10
10
10
10
10
10
10
10
10
10
10
10
10
10
10
10
10
10
10
10
10
10
10
10
10
10
10
10
10
10
10
10
10
10
10
10
10
10
10
10
10
10
10
10
10
10
10
10
10
10
10
10
10
10
10
10
10
10
10
10
10
10
10
10
10
10
10
10
10
10
10
10
10
10
10
10
10
10
10
10
10
10
10
10
10
10
10
10
10
10
10
10
10
10
10
10
10
10
10
10
10
10
10
10
10
10
10
10
10
10
10
10
10
10
10
10
10
10
10
10
10
10
10
10
10
10
10
10
10
10
10
10
10
10
10
10
10
10
10
10
10
10
10
10
10
10
10
10
10
10
10
10
10
10
10
10
10
10
10
10
10
10
10
10
10
10
10
10
10
10
10
10
10
10
10
10
10
10
10
10
10
10
10
10
10
10
10
10
10
10
10
10
10
10
10
10
10
10
10
10
10
10
10
10
10
10
10
10
10
10
10
10
10
10
10
10
10
10
10
10
10
10
10
10
10
10
10
10
10
10
10
10
10
10
10
10
10
10
10
10
10
10
10
10
10
10
10
10
10
10
10
10
10
10
10
10
10
10
10
10
10
10
10
10
10
10
10
10
10
10
10
10
10
10
10
10
10
10
10
10
10
10
10
10
10
10
10
10
10
10
10
10
10
10
10
10
10
10
10
10
10
10
10
10
10
10
10
10
10
10
10
10
10
10
10
10
10
10
10
10
10
10
10
10
10
10
10
10
10
10
10
10
10
10
10
10
10
10
10
10
10
10
10
10
10
10
10
10
10
10
10
10
10
10
10
10
10
10
10
10
10
10
10
10
10
10
10
10
10
10
10
10
10
10
10
10
10
10
10
10
10
10
10
10
10
10
10
10
10
10
10
10
10
10
10
10
10
10
10
10
10
10
10
10
10
10
10
10
10
10
10
10
10
10
10
10
10
10
10
10
10
10
10
10
10
10
10
10
10
10
10
10
10
10
10
10
10
10
10
10
10
10
10
10
10
10
10
10
10
10
10
10
10
10
10
10
10
10
10
10
10
10
10
10
10
10
10
10
10
10
10
10
10
10
10
10
10
10
10
10
10
10
10
10
10
10
10
10
10
10
10
10
10
10
10
10
10
10
10
10
10
10
10
10
10
10
10
10
10
10
10
10
10
10
10
10
10
10
10
10
10
10
10
10
10
10
10
10
10
10
10
10
10
10
10
10
10
10
10
10
10
10
10
10
10
10
10
10
10
10
10
10
10
10
10
10
10
10
10
10
10
10
10
10
10
10
10
10
10
10
10
10
10
10
10
10
10
10
10
10
10
10
10
10
10
10
10
10
10
10
10
10
10
10
10
10
10
10
10
10
10
10
10
10
10
10
10
10
10
10
10
10
10
10
10
10
10
10
10
10
10
10
10
10
10
10
10
10
10
10
10
10
10
10
10
10
10
10
10
10
10
10
10
10
10
10
10
10
10
10
10
10
10
10
10
10
10
10
10
10
10
10
10
10
10
10
10
10
10
10
10
10
10
10
10
10
10
10
10
10
10
10
10
10
10
10
10
10
10
10
10
10
10
10
10
10
10
10
10
10
10
10
10
10
10
10
10
10
10
10
10
10
10
10
10
10
10
10
10
10
10
10
10
10
10
10
10
10
10
10
10
10
10
10
10
10
10
10
10
10
10
10
10
10
10
10
10
10
10
10
10
10
10
10
10
10
10
10
10
10
10
10
10
10
10
10
10
10
10
10
10
10
10
10
10
10
10
10
10
10
10
10
10
10
10
10
10
10
10
10
10
10
10
10
10
10
10
10
10
10
10
10
10
10
10
10
10
10
10
10
10
10
10
10
10
10
10
10
10
10
10
10
10
10
10
10
10
10
10
10
10
10
10
10
10
10
10
10
10
10
10
10
10
10
10
10
10
10
10
10
10
10
10
10
10
10
10
10
10
10
10
10
10
10
10
10
10
10
10
10
10
10
10
10
10
10
10
10
10
10
10
10
10
10
10
10
10
10
10
10
10
10
10
10
10
10
10
10
10
10
10
10
10
10
10
10
10
10
10
10
10
10
10
10
10
10
10
10
10
10
10
10
10
10
10
10
10
10
10
10
10
10
10
10
10
10
10
10
10
10
10
10
10
10
10
10
10
10
10
10
10
10
10
10
10
10
10
10
10
10
10
10
10
10
10
10
10
10
10
10
10
10
10
10
10
10
10
10
10
10
10
10
10
10
10
10
10
10
10
10
10
10
10
10
10
10
10
10
10
10
10
10
10
10
10
10
10
10
10
10
10
10
10
10
10
10
10
10
10
10
10
10
10
10
10
10
10
10
10
10
10
10
10
10
10
10
10
10
10
10
10
10
10
10
10
10
10
10
10
10
10
10
10
10
10
10
10
10
10
10
10
10
10
10
10
10
10
10
10
10
10
10
10
10
10
10
10
10
10
10
10
10
10
10
10
10
10
10
10
10
10
10
10
10
10
10
10
