# vtk DataFile Version 2.0
, Created by Gmsh 4.11.1 
ASCII
DATASET UNSTRUCTURED_GRID
POINTS 533 double
8.75 0 -44.68363840972849
17.70923938586626 0 -41.7933282335656
17.70923938586626 0 -38.2066717664344
8.75 0 -35.31636159027151
8.75 0 -3
11.75 0 -3
11.75 0 0
-11.75 0 0
-11.75 0 -3
-8.75 0 -3
-8.75 1.071565949253934e-15 -35.31636159027151
-17.70923938586626 2.168756332923536e-15 -38.2066717664344
-17.70923938586626 2.168756332923536e-15 -41.7933282335656
-8.75 1.071565949253934e-15 -44.68363840972849
-8.75 1.071565949253934e-15 -75.31636159027151
-17.70923938586626 2.168756332923536e-15 -78.2066717664344
-17.70923938586626 2.168756332923536e-15 -81.7933282335656
-8.75 1.071565949253934e-15 -84.68363840972849
-8.75 0 -120
8.75 0 -120
8.75 0 -84.68363840972849
17.70923938586626 0 -81.7933282335656
17.70923938586626 0 -78.2066717664344
8.75 0 -75.31636159027151
-8.75 10.46709270172855 -43.10522954334132
8.75 10.46709270172855 -43.10522954334132
8.75 10.46709270172854 -36.89477045665868
-8.75 10.46709270172851 -36.8947704566587
8.75 20 -3
8.75 20 -28.83090183281261
11.75 23 -3
-11.75 23 -3
-8.75 20 -3
11.75 23 0
-11.75 23 0
-8.75 20 -28.83090183281261
-8.75 20 -51.16909816718739
-8.75 20 -68.83090183281261
-8.75 10.46709270172856 -76.89477045665866
8.75 10.46709270172856 -76.89477045665866
-8.75 10.46709270172854 -83.10522954334132
8.75 10.46709270172854 -83.10522954334132
-8.75 20 -91.16909816718739
-8.75 20 -108.8309018328126
-8.75 6.796166654026136 -120
8.75 6.796166654026136 -120
8.75 20 -91.16909816718739
8.75 20 -108.8309018328126
8.75 20 -51.16909816718739
8.75 20 -68.83090183281261
4.836332574710802 2.312936953133701 -84.6836384097285
-4.836332574710802 2.312936953133702 -84.6836384097285
14.1321675846725 2.312936953133702 -81.7933282335656
-14.1321675846725 2.312936953133704 -81.7933282335656
14.1321675846725 2.312936953133702 -78.2066717664344
4.836332574710802 2.312936953133701 -75.3163615902715
-4.836332574710802 2.312936953133702 -75.3163615902715
-14.1321675846725 2.312936953133704 -78.2066717664344
4.836332574710802 2.312936953133701 -44.68363840972849
-4.836332574710802 2.312936953133702 -44.68363840972849
14.1321675846725 2.312936953133702 -41.7933282335656
-14.1321675846725 2.312936953133704 -41.7933282335656
14.1321675846725 2.312936953133702 -38.2066717664344
4.836332574710802 2.312936953133701 -35.31636159027151
-4.836332574710802 2.312936953133702 -35.31636159027151
-14.1321675846725 2.312936953133704 -38.2066717664344
13.22961969293312 0 -43.23848332164705
13.22961969293314 0 -36.76151667835295
8.75 0 -28.85308927221719
8.75 0 -22.38981695416289
8.75 0 -15.92654463610859
8.75 0 -9.463272318054294
5.875000000000016 0 0
3.730349362740526e-14 0 0
-5.874999999999972 0 0
-8.75 0 -9.463272318054308
-8.75 0 -15.9265446361086
-8.75 0 -22.3898169541629
-8.75 0 -28.85308927221719
-13.22961969293314 1.620161141088735e-15 -36.76151667835295
-13.22961969293312 1.620161141088734e-15 -43.23848332164705
-8.75 0 -50.81018304583709
-8.75 0 -56.9367276819457
-8.75 0 -63.0632723180543
-8.75 0 -69.18981695416291
-13.22961969293314 1.620161141088735e-15 -76.76151667835293
-13.22961969293312 1.620161141088734e-15 -83.23848332164704
-8.75 0 -90.56969867477375
-8.75 0 -96.45575893981901
-8.75 0 -102.3418192048643
-8.75 0 -108.2278794699095
-8.75 0 -114.1139397349548
2.916666666666666 0 -120
-2.916666666666668 0 -120
8.75 0 -90.56969867477375
8.75 0 -96.45575893981901
8.75 0 -102.3418192048643
8.75 0 -108.2278794699095
8.75 0 -114.1139397349548
13.22961969293312 0 -83.23848332164704
13.22961969293314 0 -76.76151667835293
8.75 0 -50.81018304583709
8.75 0 -56.9367276819457
8.75 0 -63.0632723180543
8.75 0 -69.18981695416291
16.36120380494458 6.777032512758346 -41.7933282335656
12.52232325940191 12.52232325940194 -41.7933282335656
6.7770325127583 16.3612038049446 -41.7933282335656
-6.576371990381536e-14 17.70923938586626 -41.7933282335656
-6.777032512758392 16.36120380494457 -41.7933282335656
-12.52232325940196 12.52232325940189 -41.7933282335656
-16.3612038049446 6.777032512758315 -41.7933282335656
-8.750000000000002 5.278630536032913 -44.20975324881277
-2.944845028115984 11.23907668872825 -43.75824936783989
2.944845028115978 11.23907668872825 -43.75824936783989
8.749999999999998 5.27863053603291 -44.20975324881277
16.36120380494458 6.777032512758346 -38.2066717664344
12.52232325940191 12.52232325940194 -38.2066717664344
6.7770325127583 16.3612038049446 -38.2066717664344
-6.576371990381536e-14 17.70923938586626 -38.2066717664344
-6.777032512758392 16.36120380494457 -38.2066717664344
-12.52232325940196 12.52232325940189 -38.2066717664344
-16.3612038049446 6.777032512758315 -38.2066717664344
8.749999999999998 5.278630536032907 -35.79024675118723
2.944845028115983 11.23907668872824 -36.2417506321601
-2.944845028115985 11.23907668872824 -36.2417506321601
-8.750000000000002 5.278630536032895 -35.79024675118723
8.75 6.666666666666651 -3
8.75 13.33333333333329 -3
8.75 20 -22.37317637460948
8.75 20 -15.91545091640634
8.75 20 -9.457725458203178
8.75 15.23354635086427 -32.86283614473565
-5.875000000000016 23 -3
-3.730349362740526e-14 23 -3
5.874999999999972 23 -3
-11.75 5.749999999999988 -3
-11.75 11.49999999999999 -3
-11.75 17.24999999999999 -3
-8.75 13.33333333333335 -3
-8.75 6.666666666666705 -3
-2.916666666666666 20 -3
2.916666666666668 20 -3
11.75 5.749999999999988 -3
11.75 11.49999999999999 -3
11.75 17.24999999999999 -3
11.75 5.749999999999988 0
11.75 11.49999999999999 0
11.75 17.24999999999999 0
-5.875000000000016 23 0
-3.730349362740526e-14 23 0
5.874999999999972 23 0
-11.75 5.749999999999988 0
-11.75 11.49999999999999 0
-11.75 17.24999999999999 0
-8.75 20 -9.457725458203138
-8.75 20 -15.91545091640627
-8.75 20 -22.37317637460944
-8.75 15.23354635086425 -32.86283614473566
-8.75 15.23354635086427 -47.13716385526435
-8.75 20 -62.94363394427086
-8.75 20 -57.05636605572914
-8.75 15.23354635086428 -72.86283614473564
-8.750000000000002 5.278630536032918 -75.79024675118723
8.749999999999998 5.278630536032916 -75.79024675118723
2.944845028115978 11.23907668872825 -76.24175063216009
-2.944845028115978 11.23907668872825 -76.24175063216009
16.36120380494458 6.777032512758346 -78.20667176643438
12.52232325940191 12.52232325940194 -78.20667176643438
6.7770325127583 16.3612038049446 -78.20667176643438
-6.576371990381536e-14 17.70923938586626 -78.20667176643438
-6.777032512758392 16.36120380494457 -78.20667176643438
-12.52232325940196 12.52232325940189 -78.20667176643438
-16.3612038049446 6.777032512758315 -78.20667176643438
16.36120380494458 6.777032512758346 -81.7933282335656
12.52232325940191 12.52232325940194 -81.7933282335656
6.7770325127583 16.3612038049446 -81.7933282335656
-6.576371990381536e-14 17.70923938586626 -81.7933282335656
-6.777032512758392 16.36120380494457 -81.7933282335656
-12.52232325940196 12.52232325940189 -81.7933282335656
-16.3612038049446 6.777032512758315 -81.7933282335656
-8.750000000000002 5.278630536032909 -84.20975324881276
-2.944845028115985 11.23907668872824 -83.75824936783991
2.944845028115975 11.23907668872824 -83.75824936783991
8.749999999999998 5.278630536032902 -84.20975324881276
-8.75 15.23354635086427 -87.13716385526435
-8.75 20 -102.9436339442709
-8.75 20 -97.05636605572913
-8.75 11.19744443601743 -116.2769672776042
-8.75 15.59872221800872 -112.5539345552084
2.916666666666666 6.796166654026136 -120
-2.916666666666668 6.796166654026136 -120
8.75 15.23354635086427 -87.13716385526435
8.75 20 -102.9436339442709
8.75 20 -97.05636605572913
8.75 11.19744443601743 -116.2769672776042
8.75 15.59872221800872 -112.5539345552084
8.75 15.23354635086427 -47.13716385526435
8.75 20 -62.94363394427086
8.75 20 -57.05636605572914
8.75 15.23354635086428 -72.86283614473564
2.916666666666666 20 -51.16909816718739
-2.916666666666668 20 -51.16909816718739
2.916666666666666 20 -28.83090183281261
-2.916666666666668 20 -28.83090183281261
2.916666666666666 20 -68.83090183281261
-2.916666666666668 20 -68.83090183281261
2.916666666666666 20 -91.16909816718739
-2.916666666666668 20 -91.16909816718739
2.916666666666666 20 -108.8309018328126
-2.916666666666668 20 -108.8309018328126
1.963080359020231 4.98859756107959 -84.68363840972849
-1.963080359020249 4.988597561079583 -84.68363840972849
-5.329070518200751e-15 2.312936953133701 -84.68363840972849
9.491375836348348 2.312936953133701 -83.26153053621267
11.55632776138123 8.456898170249493 -81.7933282335656
6.479330615823712 12.77051732551541 -81.7933282335656
8.768587345397758e-16 14.32018987270908 -81.7933282335656
-6.47933061582371 12.77051732551541 -81.7933282335656
-11.55632776138123 8.456898170249495 -81.7933282335656
-9.491375836348348 2.312936953133701 -83.26153053621267
9.491375836348345 2.312936953133701 -76.73846946378733
3.552713678800501e-15 2.312936953133701 -75.31636159027151
-9.491375836348345 2.312936953133701 -76.73846946378733
11.55632776138123 8.456898170249493 -78.20667176643438
6.479330615823712 12.77051732551541 -78.20667176643438
8.768587345397758e-16 14.32018987270908 -78.20667176643438
-6.47933061582371 12.77051732551541 -78.20667176643438
-11.55632776138123 8.456898170249495 -78.20667176643438
1.963080359020231 4.98859756107959 -75.3163615902715
-1.963080359020249 4.988597561079583 -75.3163615902715
1.963080359020231 4.98859756107959 -44.68363840972849
-1.963080359020249 4.988597561079583 -44.68363840972849
-5.329070518200751e-15 2.312936953133701 -44.68363840972849
9.491375836348348 2.312936953133701 -43.26153053621267
11.55632776138123 8.456898170249493 -41.7933282335656
6.479330615823712 12.77051732551541 -41.7933282335656
8.768587345397758e-16 14.32018987270908 -41.7933282335656
-6.47933061582371 12.77051732551541 -41.7933282335656
-11.55632776138123 8.456898170249495 -41.7933282335656
-9.491375836348348 2.312936953133701 -43.26153053621267
9.491375836348345 2.312936953133701 -36.73846946378731
3.552713678800501e-15 2.312936953133701 -35.31636159027151
-9.491375836348345 2.312936953133701 -36.73846946378731
11.55632776138123 8.456898170249493 -38.2066717664344
6.479330615823712 12.77051732551541 -38.2066717664344
8.768587345397758e-16 14.32018987270908 -38.2066717664344
-6.47933061582371 12.77051732551541 -38.2066717664344
-11.55632776138123 8.456898170249495 -38.2066717664344
1.963080359020231 4.98859756107959 -35.31636159027151
-1.963080359020249 4.988597561079583 -35.31636159027151
-4.163087978319512 0 -87.62666854225114
2.54322397526029 0 -47.93996514524003
-4.05895519104252 0 -72.25308927221721
3.775291500007699 0 -30.82254798975403
1.77635683940025e-15 0 -115.6317906949036
-2.673916623847385 0 -105.2848493373869
-3.814131947074383 0 -58.90177614536478
2.906321785210924 0 -41.74456489899398
-2.809611111114428 0 -4.108969940031159
-2.758562129027551 0 -19.21548000821621
-3.769612777621937 0 -82.1666495081387
3.652522282264639 0 -93.51272880729636
4.093729756458198 0 -66.07162616335464
2.865147592946444 0 -12.94532239386053
3.934218773571958 0 -5.832547592637766
-4.007741887985091 0 -48.96699835639217
-2.585765132829087 0 -31.65552715130988
-3.040980629665949 0 -38.08024451546769
0.8906540016568902 0 -84.56575600067512
0.8810687847843752 0 -77.92197198953943
0.2780578673917411 0 -25.34910702846599
3.958442869363369 0 -104.3038392932127
3.197226234133051 0 -71.96505281919202
-0.2750001282747832 0 -53.82448287825122
-9.61699703373748 0 -39.9944613937749
9.605916731412778 0 -39.98843215469486
-9.738268827779702 0 -80.08159641231464
10.62974467833893 0 -80.3025455795179
-3.978521559197272 0 -12.06844147427476
3.807870035915291 0 -20.24128735566738
-2.159068909319235 0 -65.88143447265372
2.968648782290984 0 -59.72540763623023
-3.228598032962305 0 -93.83156453956414
-8.881784197001252e-16 0 -99.39878907234161
-14.3231973970757 0 -80.01631928246292
14.29672697780231 0 -39.99768643093898
14.65778161281852 0 -79.99999999999999
-14.29894303826726 0 -39.99889227875498
3.386721653116942 0 -110.8984098501037
-3.691321544335612 0 -111.5108945970684
3.659876456544524 0 -36.64468003734144
-3.745391589856126 0 -43.1966485204707
-4.800902308877685 0 -99.42202782833782
5.022193030325601 0 -99.20258706350678
-5.087153602331956 0 -77.5479337544963
-5.119374792666852 0 -53.88803362155819
4.724587210510652 0 -53.86013797287581
-4.798829433274353 0 -25.57449646948902
5.072243880662946 0 -25.5311697200535
-0.6762743872241828 0 -8.428898525067709
5.704877188446442 0 -81.75876172107637
5.141909231395929 0 -87.55771369770767
4.488781543693715 0 -115.7244624822786
-4.488781543693714 0 -115.7244624822786
-5.40501367293283 0 -7.076122082211754
0.4586799008071285 0 -89.41888631749887
11.96082567669954 8.011012647522364 -42.86228130109283
-13.66842810885622 5.438545812711339 -42.76068779226972
13.1104573493471 3.544649209022101 -43.12506549516795
3.454901214449301 17.36896131679478 -40.02535033277889
9.838726252205614 14.7246944063392 -40.02535033277889
17.37562707907927 3.421219553709474 -40
14.72469440633918 9.838726252205651 -40.02535033277889
-3.421219553709532 17.37562707907926 -40
-9.838726252205676 14.72469440633916 -40.02535033277889
-17.36896131679477 3.454901214449341 -39.9746496672211
-14.72469440633921 9.838726252205602 -40.02535033277888
12.28431028154857 8.259739815104457 -37.26908624121811
-11.96082567666262 8.011012647525202 -37.13771869889779
-13.11045734933703 3.544649209043426 -36.8749345048307
12.49024116213093 4.138630672123963 -36.73842914766067
8.749999999999998 14.80447327465756 -19.40073675481968
8.749999999999998 5.971299805925815 -26.26281462909937
8.749999999999998 5.057834491002589 -12.74038179440263
8.749999999999998 14.12501563491666 -26.71899904266155
8.749999999999998 8.828968465089226 -31.85122953644651
8.749999999999998 5.220585434571094 -19.33829400361824
8.749999999999998 15.00882353764052 -12.7771855404954
8.749999999999998 10.00351149282283 -8.528731344437615
8.749999999999998 10.15760721022814 -22.14377180113049
8.749999999999998 10.00899136704526 -15.89920504766682
8.749999999999998 4.015779761409591 -31.61474835584436
8.749999999999998 4.345602530098415 -7.346477091378906
8.749999999999998 15.54970742296935 -7.449145258579023
10.25 3.10416666666666 -3
-10.25 3.104166666666674 -3
11.75 20.125 -1.5
11.75 14.37499999999999 -1.5
11.75 8.624999999999989 -1.5
11.75 2.874999999999994 -1.5
-2.707174061168084 4.878797530676509 0
3.157610638484559 18.22886740495932 0
7.069955745470663 8.716546370640001 0
-6.619519168154188 14.39111856499582 0
7.102873022115113 14.37499999999999 0
0.1126091443291184 11.52691623390895 0
-7.000954855602268 8.644857627020135 0
-2.792058517349995 18.15992185565015 0
2.948495529093417 4.721447277005962 0
-7.528051718759411 18.81262893003678 0
7.528051718759418 4.187371069963204 0
7.820492259183635 19.07601590637069 0
-7.553981076842909 4.160878030182232 0
-11.75 20.125 -1.5
-11.75 8.624999999999988 -1.5
-11.75 14.37499999999999 -1.5
-11.75 2.874999999999994 -1.5
-8.750000000000002 14.80447327465756 -19.40073675481965
-8.750000000000002 5.971299805925807 -26.26281462909937
-8.750000000000002 5.057834491002595 -12.74038179440263
-8.750000000000002 14.12501563491664 -26.71899904266154
-8.750000000000002 8.828968465089204 -31.85122953644652
-8.750000000000002 5.220585434571087 -19.33829400361824
-8.750000000000002 15.00882353764053 -12.77718554049536
-8.750000000000002 10.00351149282287 -8.528731344437581
-8.750000000000002 10.15760721022813 -22.14377180113048
-8.750000000000002 10.00899136704524 -15.89920504766682
-8.750000000000002 4.015779761409582 -31.61474835584436
-8.750000000000002 4.345602530098434 -7.346477091378905
-8.750000000000002 15.54970742296937 -7.449145258579001
-8.750000000000002 14.77603948370634 -60.00000000000001
-8.750000000000002 4.528985208903713 -53.44430922478893
-8.750000000000002 4.52898520890371 -66.55569077521108
-8.750000000000002 8.899608670490371 -48.78934040724771
-8.750000000000002 8.899608670490375 -71.21065959275228
-8.750000000000002 14.83546739600415 -66.47079468082616
-8.750000000000002 14.83546739600415 -53.52920531917385
-8.750000000000002 4.87753169328921 -60
-8.750000000000002 9.670207053892952 -63.54340141306734
-8.750000000000002 9.59797325104779 -56.55104272737964
-8.750000000000002 3.741444883085399 -48.387444867283
-8.750000000000002 3.741444883085401 -71.61255513271701
12.28431028154854 8.259739815104494 -77.2690862412181
-11.96082574539335 8.011012567892042 -77.13771870302419
-13.11045736101882 3.54464916147073 -76.8749345044631
12.49024116213093 4.138630672123974 -76.73842914766065
17.37562707907927 3.421219553709474 -80
3.454901214449298 17.36896131679478 -79.9746496672211
9.83872625220561 14.7246944063392 -79.97464966722109
14.72469440633918 9.838726252205651 -79.9746496672211
-3.421219553709529 17.37562707907926 -80
-17.36896131679478 3.454901214449333 -80.0253503327789
-14.72469440633921 9.838726252205609 -79.9746496672211
-9.838726252205676 14.72469440633916 -79.97464966722109
11.96082567669956 8.011012647522328 -82.86228130109282
-13.66842810885634 5.43854581271107 -82.76068779226971
13.11045734934711 3.544649209022077 -83.12506549516795
-8.750000000000002 5.086791911099736 -99.59267975588369
-8.750000000000002 10.45492158513079 -109.5455863789163
-8.750000000000002 14.90147644963848 -100
-8.750000000000002 9.124966612796749 -89.15091838392844
-8.750000000000002 14.90399023055812 -93.58847246062902
-8.750000000000002 15.04672352583114 -106.0143157902619
-8.750000000000002 5.24602036426922 -106.1630773373884
-8.750000000000002 4.769010623423101 -93.58387338691409
-8.750000000000002 5.423054041118628 -114.0165463047096
-8.750000000000002 9.824679981432448 -96.47659632193769
-8.750000000000002 10.09343563623363 -102.9653759307313
-8.750000000000002 4.238353246592927 -88.71689626541496
5.408163265306122 3.398083327013068 -120
0 3.398083327013067 -120
-5.40816326530612 3.398083327013068 -120
8.749999999999998 5.086791911099736 -99.59267975588369
8.749999999999998 10.45492158513079 -109.5455863789163
8.749999999999998 14.90147644963848 -100
8.749999999999998 9.124966612796747 -89.15091838392844
8.749999999999998 14.90399023055812 -93.58847246062902
8.749999999999998 15.04672352583114 -106.0143157902619
8.749999999999998 5.24602036426922 -106.1630773373884
8.749999999999998 4.769010623423101 -93.58387338691409
8.749999999999998 5.423054041118628 -114.0165463047096
8.749999999999998 9.824679981432448 -96.47659632193769
8.749999999999998 10.09343563623363 -102.9653759307313
8.749999999999998 4.238353246592929 -88.71689626541496
8.749999999999998 14.77603948370634 -60.00000000000001
8.749999999999998 4.528985208903712 -53.44430922478893
8.749999999999998 4.52898520890371 -66.55569077521108
8.749999999999998 8.899608670490371 -48.78934040724771
8.749999999999998 8.899608670490377 -71.21065959275228
8.749999999999998 14.83546739600415 -66.47079468082616
8.749999999999998 14.83546739600415 -53.52920531917385
8.749999999999998 4.877531693289209 -60
8.749999999999998 9.670207053892952 -63.54340141306734
8.749999999999998 9.597973251047788 -56.55104272737964
8.749999999999998 3.741444883085399 -48.387444867283
8.749999999999998 3.741444883085401 -71.61255513271701
0 15.98165002260819 -47.76998336532648
4.556450746725358 16.70587337909634 -48.38260256095217
-4.556450746725355 16.70587337909634 -48.38260256095217
0 15.98165002260819 -32.23001663467351
4.556450746725359 16.70587337909634 -31.61739743904783
-4.556450746725364 16.70587337909634 -31.61739743904783
0.1924502380153363 20 -7.890003993190843
-1.77635683940025e-15 20 -23.77908697740339
3.908218423350441 20 -12.2866556392096
-2.657441685105121 20 -13.02563703541666
3.475742196008015 20 -19.03290288484716
-3.774894023737277 20 -19.59077533581231
4.602158873995279 20 -7.340995949891004
-4.57633162275129 20 -7.274673297362128
-4.602158873995279 20 -24.48990588292161
4.602158873995267 20 -24.48990588292161
8.812499999999986 23 -1.5
2.937499999999966 23 -1.5
-8.812500000000007 23 -1.5
-2.937500000000027 23 -1.5
0 20 -63.65040522031768
0 20 -56.39436809907815
-4.41299742822477 20 -60.00746221989931
4.412997428224769 20 -60.00746221989931
-4.488992284674305 20 -55.44475735627066
-4.488992284674303 20 -64.55524264372934
4.488992284674306 20 -55.44475735627066
4.488992284674306 20 -64.55524264372934
1.77635683940025e-15 15.9816500226082 -72.2300166346735
-4.556450746725357 16.70587337909634 -71.61739743904783
4.556450746725357 16.70587337909634 -71.61739743904783
-1.77635683940025e-15 15.98165002260819 -87.76998336532648
-4.556450746725364 16.70587337909634 -88.38260256095217
4.556450746725358 16.70587337909634 -88.38260256095217
0 20 -103.6504052203177
0 20 -96.39436809907815
4.412997428224769 20 -100.0074622198993
-4.41299742822477 20 -100.0074622198993
-4.488992284674303 20 -104.5552426437293
-4.488992284674305 20 -95.44475735627066
4.488992284674306 20 -95.44475735627066
4.488992284674306 20 -104.5552426437293
-3.626893329731557 13.39808332701307 -114.4154509164063
3.510951097183037 13.39808332701307 -114.4154509164063
-0.01932370542475326 10.06777372731725 -117.2325536373727
-0.01932370542475326 16.7283929267089 -111.59834819544
-4.523070967625527 16.78709545311361 -111.5486918371009
4.523070967625524 10.00907120091253 -117.2822099957117
-4.523070967625522 10.00907120091253 -117.2822099957117
4.523070967625524 16.78709545311361 -111.5486918371009
5.415556302400423 7.518486158919179 -83.42389347389344
-5.275049195629273 6.519855935852396 -83.70755134618356
-0.3017213108758314 8.557930142759572 -83.6505561773544
1.735304076783706 2.312936953133701 -80
-5.635601606537968 2.312936953133701 -80
-10.85341287978559 2.312936953133701 -80
6.078144179780402 2.312936953133701 -80
-13.20650457711698 5.536792830242779 -79.96682748741733
13.20650457711698 5.536792830242782 -80.03317251258267
-9.27216645822215 10.91305489592441 -80.03317251258265
-3.33103625890939 13.92738437152758 -79.96682748741732
9.272166458222152 10.91305489592441 -80.03317251258265
3.331036258909391 13.92738437152758 -79.96682748741733
5.415556302400403 7.518486158919059 -76.5761065261065
-5.275049195630233 6.519855935852931 -76.29244865381675
-0.3017213108757581 8.557930142759705 -76.34944382264563
5.415556302400431 7.518486158919179 -43.42389347389345
-5.27504919562927 6.519855935852399 -43.70755134618356
-0.3017213108758297 8.557930142759576 -43.6505561773544
1.735304076783702 2.312936953133701 -40
-5.636052602861154 2.312936953133701 -40
-10.90904840001065 2.312936953133701 -40
6.078144179780402 2.312936953133701 -40
-13.20650457711698 5.53679283024279 -39.96682748741734
9.272166458222152 10.91305489592441 -40.03317251258266
3.331036258909385 13.92738437152758 -40.03317251258266
-3.33103625890939 13.92738437152758 -40.03317251258266
13.20650457711698 5.536792830242782 -40.03317251258266
-9.27216645822215 10.91305489592441 -40.03317251258266
5.415556302400399 7.518486158919059 -36.57610652610651
-5.27504919563023 6.519855935852928 -36.29244865381676
-0.301721310875758 8.557930142759702 -36.34944382264564
-1.376676550535194e-14 8.299644182679909 -92.7825110375265
-1.532107773982716e-14 8.546650652630484 -27.49297904344088
-1.371125435412068e-14 8.584765404314433 -52.37126248793435
-1.378168622799787e-14 8.513159254496625 -67.37368819877113
-1.925543058334256e-15 8.975081119261933 -106.2567806140871
-0.3162195004815478 8.517383143262672 -11.79323527767674
-0.7151885387297262 12.51770315926701 -60.02238665969791
0.7456032318350108 11.80016595431725 -19.61881235316678
-1.157941022637614 12.83801313591936 -99.48161315436184
-2.050895176070032 13.41506307798766 -6.489243007071297
-0.2286209858205854 5.718640376460611 -112.1228679308562
2.015525622070721 14.38593076871187 -25.98329928721509
-2.759899189310842 5.523622399821152 -6.771144044041555
1.97868325483612 6.646067105692417 -100.0029124689841

CELLS 2907 12743
1 0
1 1
1 2
1 3
1 4
1 5
1 6
1 7
1 8
1 9
1 10
1 11
1 12
1 13
1 14
1 15
1 16
1 17
1 18
1 19
1 20
1 21
1 22
1 23
1 24
1 25
1 26
1 27
1 28
1 29
1 30
1 31
1 32
1 33
1 34
1 35
1 36
1 37
1 38
1 39
1 40
1 41
1 42
1 43
1 44
1 45
1 46
1 47
1 48
1 49
1 50
1 51
1 52
1 53
1 54
1 55
1 56
1 57
1 58
1 59
1 60
1 61
1 62
1 63
1 64
1 65
2 0 66
2 66 1
2 1 2
2 2 67
2 67 3
2 3 68
2 68 69
2 69 70
2 70 71
2 71 4
2 4 5
2 5 6
2 6 72
2 72 73
2 73 74
2 74 7
2 8 7
2 8 9
2 9 75
2 75 76
2 76 77
2 77 78
2 78 10
2 11 79
2 79 10
2 12 11
2 13 80
2 80 12
2 13 81
2 81 82
2 82 83
2 83 84
2 84 14
2 15 85
2 85 14
2 16 15
2 17 86
2 86 16
2 17 87
2 87 88
2 88 89
2 89 90
2 90 91
2 91 18
2 19 92
2 92 93
2 93 18
2 20 94
2 94 95
2 95 96
2 96 97
2 97 98
2 98 19
2 20 99
2 99 21
2 21 22
2 22 100
2 100 23
2 0 101
2 101 102
2 102 103
2 103 104
2 104 23
2 1 105
2 105 106
2 106 107
2 107 108
2 108 109
2 109 110
2 110 111
2 111 12
2 24 112
2 112 13
2 24 113
2 113 114
2 114 25
2 25 115
2 115 0
2 2 116
2 116 117
2 117 118
2 118 119
2 119 120
2 120 121
2 121 122
2 122 11
2 3 123
2 123 26
2 26 124
2 124 125
2 125 27
2 10 126
2 126 27
2 4 127
2 127 128
2 128 28
2 29 129
2 129 130
2 130 131
2 131 28
2 26 132
2 132 29
2 31 133
2 133 134
2 134 135
2 135 30
2 8 136
2 136 137
2 137 138
2 138 31
2 32 139
2 139 140
2 140 9
2 32 141
2 141 142
2 142 28
2 5 143
2 143 144
2 144 145
2 145 30
2 6 146
2 146 147
2 147 148
2 148 33
2 30 33
2 34 149
2 149 150
2 150 151
2 151 33
2 7 152
2 152 153
2 153 154
2 154 34
2 31 34
2 32 155
2 155 156
2 156 157
2 157 35
2 27 158
2 158 35
2 36 159
2 159 24
2 37 160
2 160 161
2 161 36
2 38 162
2 162 37
2 14 163
2 163 38
2 23 164
2 164 39
2 39 165
2 165 166
2 166 38
2 22 167
2 167 168
2 168 169
2 169 170
2 170 171
2 171 172
2 172 173
2 173 15
2 21 174
2 174 175
2 175 176
2 176 177
2 177 178
2 178 179
2 179 180
2 180 16
2 40 181
2 181 17
2 40 182
2 182 183
2 183 41
2 41 184
2 184 20
2 42 185
2 185 40
2 43 186
2 186 187
2 187 42
2 44 188
2 188 189
2 189 43
2 18 44
2 45 190
2 190 191
2 191 44
2 19 45
2 46 192
2 192 41
2 47 193
2 193 194
2 194 46
2 45 195
2 195 196
2 196 47
2 48 197
2 197 25
2 49 198
2 198 199
2 199 48
2 39 200
2 200 49
2 48 201
2 201 202
2 202 36
2 29 203
2 203 204
2 204 35
2 49 205
2 205 206
2 206 37
2 46 207
2 207 208
2 208 42
2 47 209
2 209 210
2 210 43
2 50 211
2 211 212
2 212 51
2 51 213
2 213 50
2 50 214
2 214 52
2 52 215
2 215 216
2 216 217
2 217 218
2 218 219
2 219 53
2 53 220
2 220 51
2 52 54
2 54 221
2 221 55
2 55 222
2 222 56
2 56 223
2 223 57
2 53 57
2 54 224
2 224 225
2 225 226
2 226 227
2 227 228
2 228 57
2 55 229
2 229 230
2 230 56
2 58 231
2 231 232
2 232 59
2 59 233
2 233 58
2 58 234
2 234 60
2 60 235
2 235 236
2 236 237
2 237 238
2 238 239
2 239 61
2 61 240
2 240 59
2 60 62
2 62 241
2 241 63
2 63 242
2 242 64
2 64 243
2 243 65
2 61 65
2 62 244
2 244 245
2 245 246
2 246 247
2 247 248
2 248 65
2 63 249
2 249 250
2 250 64
3 66 276 0
3 0 252 101
3 0 258 252
3 0 276 258
3 2 286 1
3 1 286 66
3 67 286 2
3 3 276 67
3 68 254 3
3 254 291 3
3 3 291 276
3 5 6 4
3 4 6 72
3 4 265 71
3 72 265 4
3 8 9 7
3 7 9 74
3 9 259 74
3 75 305 9
3 9 305 259
3 10 267 78
3 79 275 10
3 10 268 267
3 10 275 268
3 12 288 11
3 11 288 79
3 80 288 12
3 13 275 80
3 81 266 13
3 266 292 13
3 13 292 275
3 14 253 84
3 85 277 14
3 14 295 253
3 277 295 14
3 16 285 15
3 15 285 85
3 86 285 16
3 17 277 86
3 87 251 17
3 251 261 17
3 261 277 17
3 18 304 91
3 93 304 18
3 19 303 92
3 98 303 19
3 20 302 94
3 99 278 20
3 278 301 20
3 301 302 20
3 22 287 21
3 21 287 99
3 100 287 22
3 23 278 100
3 104 273 23
3 23 273 270
3 270 301 23
3 23 301 278
3 66 286 276
3 276 286 67
3 69 299 68
3 68 299 254
3 70 280 69
3 280 299 69
3 71 264 70
3 264 280 70
3 71 265 264
3 73 265 72
3 74 259 73
3 259 265 73
3 76 279 75
3 279 305 75
3 77 260 76
3 260 279 76
3 78 298 77
3 77 298 260
3 267 298 78
3 79 288 275
3 275 288 80
3 82 296 81
3 81 296 266
3 83 257 82
3 257 296 82
3 84 281 83
3 83 281 257
3 253 281 84
3 85 285 277
3 277 285 86
3 88 283 87
3 87 283 251
3 89 293 88
3 88 293 283
3 90 256 89
3 256 293 89
3 91 290 90
3 90 290 256
3 91 304 290
3 92 255 93
3 92 303 255
3 255 304 93
3 94 262 95
3 94 302 262
3 95 294 96
3 262 294 95
3 96 272 97
3 96 294 272
3 97 289 98
3 272 289 97
3 289 303 98
3 99 287 278
3 278 287 100
3 101 297 102
3 252 297 101
3 102 282 103
3 102 297 282
3 103 263 104
3 103 282 263
3 263 273 104
3 251 269 261
3 251 306 269
3 283 306 251
3 258 292 252
3 266 274 252
3 252 292 266
3 274 297 252
3 270 273 253
3 253 295 270
3 273 281 253
3 254 271 267
3 267 291 254
3 254 299 271
3 289 290 255
3 255 303 289
3 290 304 255
3 272 284 256
3 256 289 272
3 284 293 256
3 256 290 289
3 257 282 274
3 274 296 257
3 281 282 257
3 258 291 268
3 268 292 258
3 276 291 258
3 259 300 265
3 259 305 300
3 264 279 260
3 260 280 264
3 271 280 260
3 260 298 271
3 269 270 261
3 270 295 261
3 261 295 277
3 283 284 262
3 262 306 283
3 284 294 262
3 302 306 262
3 263 281 273
3 263 282 281
3 265 300 264
3 264 300 279
3 266 296 274
3 268 291 267
3 271 298 267
3 275 292 268
3 269 301 270
3 269 302 301
3 269 306 302
3 271 299 280
3 272 294 284
3 282 297 274
3 300 305 279
3 283 293 284
3 0 309 66
3 115 309 0
3 66 309 1
3 1 309 105
3 12 308 80
3 111 308 12
3 112 13 80
3 109 24 110
3 109 113 24
3 24 308 110
3 112 308 24
3 106 25 107
3 106 307 25
3 114 107 25
3 25 307 115
3 80 308 112
3 105 307 106
3 105 309 307
3 108 107 114
3 109 108 113
3 108 114 113
3 110 308 111
3 307 309 115
3 1 312 2
3 105 312 1
3 2 312 116
3 11 316 12
3 122 316 11
3 12 316 111
3 106 313 105
3 116 312 105
3 105 313 116
3 107 311 106
3 106 311 117
3 117 313 106
3 108 310 107
3 107 310 118
3 118 311 107
3 109 314 108
3 119 310 108
3 108 314 119
3 110 315 109
3 120 314 109
3 109 315 120
3 111 317 110
3 121 315 110
3 110 317 121
3 111 316 122
3 122 317 111
3 116 313 117
3 117 311 118
3 118 310 119
3 119 314 120
3 120 315 121
3 121 317 122
3 2 321 67
3 116 321 2
3 67 321 3
3 3 321 123
3 10 320 79
3 126 320 10
3 79 320 11
3 11 320 122
3 117 118 26
3 26 318 117
3 26 118 124
3 123 318 26
3 120 121 27
3 120 27 125
3 121 319 27
3 27 319 126
3 117 318 116
3 318 321 116
3 124 118 119
3 120 125 119
3 125 124 119
3 122 319 121
3 122 320 319
3 123 321 318
3 319 320 126
3 3 332 68
3 123 332 3
3 71 333 4
3 4 333 127
3 26 326 123
3 132 326 26
3 128 334 28
3 28 334 131
3 129 325 29
3 29 325 132
3 68 323 69
3 68 332 323
3 69 327 70
3 323 327 69
3 70 324 71
3 70 327 324
3 324 333 71
3 326 332 123
3 127 329 128
3 127 333 329
3 329 334 128
3 130 322 129
3 322 325 129
3 131 328 130
3 130 328 322
3 131 334 328
3 325 326 132
3 322 330 325
3 328 331 322
3 322 331 330
3 323 326 325
3 325 330 323
3 323 332 326
3 323 330 327
3 327 331 324
3 324 331 329
3 329 333 324
3 330 331 327
3 329 331 328
3 328 334 329
3 5 4 335
3 4 127 335
3 143 5 335
3 9 8 336
3 8 136 336
3 140 9 336
3 30 28 135
3 145 28 30
3 145 128 28
3 28 142 135
3 31 133 32
3 138 31 32
3 133 141 32
3 138 32 139
3 127 128 144
3 143 127 144
3 127 143 335
3 128 145 144
3 134 141 133
3 142 134 135
3 142 141 134
3 136 137 140
3 136 140 336
3 137 138 139
3 137 139 140
3 5 340 6
3 143 340 5
3 6 340 146
3 33 337 30
3 30 337 145
3 148 337 33
3 144 339 143
3 143 339 146
3 146 340 143
3 145 338 144
3 144 338 147
3 147 339 144
3 145 337 148
3 148 338 145
3 146 339 147
3 147 338 148
3 6 351 72
3 146 351 6
3 74 353 7
3 7 353 152
3 33 352 148
3 151 352 33
3 34 350 149
3 154 350 34
3 72 349 73
3 72 351 349
3 73 341 74
3 73 349 341
3 341 353 74
3 147 343 146
3 343 351 146
3 148 345 147
3 147 345 343
3 148 352 345
3 149 348 150
3 149 350 348
3 150 342 151
3 150 348 342
3 342 352 151
3 152 347 153
3 152 353 347
3 153 344 154
3 153 347 344
3 344 350 154
3 346 347 341
3 341 349 346
3 347 353 341
3 342 346 345
3 345 352 342
3 342 348 346
3 345 346 343
3 346 349 343
3 349 351 343
3 344 347 346
3 346 348 344
3 348 350 344
3 8 7 357
3 7 152 357
3 136 8 357
3 34 31 354
3 31 138 354
3 154 34 354
3 137 136 355
3 136 152 355
3 152 136 357
3 138 137 356
3 153 137 355
3 137 153 356
3 138 154 354
3 154 138 356
3 152 153 355
3 153 154 356
3 75 9 369
3 9 140 369
3 10 78 368
3 126 10 368
3 27 126 362
3 158 27 362
3 139 32 370
3 32 155 370
3 157 35 361
3 35 158 361
3 76 75 360
3 360 75 369
3 77 76 363
3 76 360 363
3 78 77 359
3 359 77 363
3 78 359 368
3 362 126 368
3 140 139 365
3 365 139 370
3 140 365 369
3 155 156 364
3 155 364 370
3 156 157 358
3 156 358 364
3 358 157 361
3 361 158 362
3 358 361 366
3 364 358 367
3 358 366 367
3 359 361 362
3 361 359 366
3 359 362 368
3 359 363 366
3 363 360 367
3 360 365 367
3 365 360 369
3 366 363 367
3 365 364 367
3 364 365 370
3 81 13 381
3 13 112 381
3 14 84 382
3 163 14 382
3 112 24 374
3 24 159 374
3 159 36 377
3 36 161 377
3 160 37 376
3 37 162 376
3 162 38 375
3 38 163 375
3 82 81 372
3 372 81 381
3 83 82 378
3 82 372 378
3 84 83 373
3 373 83 378
3 84 373 382
3 112 374 381
3 374 159 377
3 161 160 371
3 371 160 376
3 161 371 377
3 162 375 376
3 375 163 382
3 371 376 379
3 377 371 380
3 371 379 380
3 372 374 380
3 374 372 381
3 378 372 380
3 375 373 379
3 373 375 382
3 373 378 379
3 374 377 380
3 376 375 379
3 379 378 380
3 14 385 85
3 163 385 14
3 85 385 15
3 15 385 173
3 22 386 100
3 167 386 22
3 100 386 23
3 23 386 164
3 38 384 163
3 171 38 166
3 171 172 38
3 172 384 38
3 164 383 39
3 39 169 165
3 168 169 39
3 39 383 168
3 384 385 163
3 164 386 383
3 166 165 170
3 165 169 170
3 171 166 170
3 168 383 167
3 383 386 167
3 173 384 172
3 173 385 384
3 15 392 16
3 173 392 15
3 16 392 180
3 21 387 22
3 174 387 21
3 22 387 167
3 167 390 168
3 167 387 174
3 174 390 167
3 168 389 169
3 175 389 168
3 168 390 175
3 169 388 170
3 176 388 169
3 169 389 176
3 170 391 171
3 170 388 177
3 177 391 170
3 171 394 172
3 171 391 178
3 178 394 171
3 172 393 173
3 179 393 172
3 172 394 179
3 180 392 173
3 173 393 180
3 175 390 174
3 176 389 175
3 177 388 176
3 178 391 177
3 179 394 178
3 180 393 179
3 16 396 86
3 180 396 16
3 181 17 86
3 20 397 99
3 184 397 20
3 99 397 21
3 21 397 174
3 178 40 179
3 178 182 40
3 40 396 179
3 181 396 40
3 175 41 176
3 175 395 41
3 183 176 41
3 41 395 184
3 86 396 181
3 174 395 175
3 174 397 395
3 177 176 183
3 178 177 182
3 177 183 182
3 179 396 180
3 395 397 184
3 87 17 409
3 17 181 409
3 44 18 406
3 18 91 406
3 181 40 401
3 40 185 401
3 185 42 402
3 42 187 402
3 186 43 403
3 43 189 403
3 188 44 406
3 88 87 405
3 405 87 409
3 89 88 398
3 398 88 405
3 90 89 404
3 89 398 404
3 91 90 406
3 90 404 406
3 181 401 409
3 401 185 402
3 187 186 400
3 400 186 403
3 187 400 402
3 189 188 399
3 399 188 406
3 189 399 403
3 404 398 408
3 398 405 407
3 398 407 408
3 403 399 408
3 404 399 406
3 399 404 408
3 402 400 407
3 400 403 408
3 407 400 408
3 401 402 407
3 405 401 407
3 401 405 409
3 44 412 18
3 18 412 93
3 19 410 45
3 92 410 19
3 191 412 44
3 45 410 190
3 93 411 92
3 92 411 410
3 93 412 411
3 190 411 191
3 410 411 190
3 411 412 191
3 45 421 19
3 19 421 98
3 94 424 20
3 20 424 184
3 184 416 41
3 41 416 192
3 195 421 45
3 192 417 46
3 46 417 194
3 193 418 47
3 47 418 196
3 95 420 94
3 420 424 94
3 96 413 95
3 413 420 95
3 97 419 96
3 96 419 413
3 98 421 97
3 97 421 419
3 184 424 416
3 416 417 192
3 194 415 193
3 415 418 193
3 194 417 415
3 196 414 195
3 414 421 195
3 196 418 414
3 419 423 413
3 413 422 420
3 413 423 422
3 418 423 414
3 419 421 414
3 414 423 419
3 417 422 415
3 415 423 418
3 422 423 415
3 416 422 417
3 420 422 416
3 416 424 420
3 101 435 0
3 0 435 115
3 23 436 104
3 164 436 23
3 115 428 25
3 25 428 197
3 39 429 164
3 200 429 39
3 197 431 48
3 48 431 199
3 198 430 49
3 49 430 200
3 102 426 101
3 426 435 101
3 103 432 102
3 102 432 426
3 104 427 103
3 427 432 103
3 104 436 427
3 115 435 428
3 429 436 164
3 428 431 197
3 199 425 198
3 425 430 198
3 199 431 425
3 200 430 429
3 425 433 430
3 431 434 425
3 425 434 433
3 426 434 428
3 428 435 426
3 432 434 426
3 429 433 427
3 427 436 429
3 427 433 432
3 428 434 431
3 430 433 429
3 433 434 432
3 24 113 159
3 114 25 197
3 159 439 36
3 36 439 202
3 48 438 197
3 201 438 48
3 114 437 113
3 113 439 159
3 437 439 113
3 197 438 114
3 114 438 437
3 202 437 201
3 437 438 201
3 202 439 437
3 132 26 124
3 27 158 125
3 132 441 29
3 29 441 203
3 35 442 158
3 204 442 35
3 125 440 124
3 124 441 132
3 440 441 124
3 158 442 125
3 125 442 440
3 203 440 204
3 203 441 440
3 440 442 204
3 131 449 28
3 28 449 142
3 29 452 129
3 203 452 29
3 141 450 32
3 32 450 155
3 157 451 35
3 35 451 204
3 129 447 130
3 129 452 447
3 130 445 131
3 130 447 445
3 445 449 131
3 142 443 141
3 443 450 141
3 142 449 443
3 155 446 156
3 155 450 446
3 156 448 157
3 446 448 156
3 448 451 157
3 204 444 203
3 444 452 203
3 204 451 444
3 445 446 443
3 443 449 445
3 446 450 443
3 444 448 447
3 447 452 444
3 444 451 448
3 445 447 446
3 447 448 446
3 30 453 33
3 135 453 30
3 34 455 31
3 31 455 133
3 33 453 151
3 149 455 34
3 133 456 134
3 133 455 149
3 149 456 133
3 134 454 135
3 150 454 134
3 134 456 150
3 151 453 135
3 135 454 151
3 150 456 149
3 151 454 150
3 36 461 161
3 202 461 36
3 160 462 37
3 37 462 206
3 199 463 48
3 48 463 201
3 49 464 198
3 205 464 49
3 161 459 160
3 459 462 160
3 161 461 459
3 198 460 199
3 198 464 460
3 460 463 199
3 201 458 202
3 201 463 458
3 458 461 202
3 206 457 205
3 457 464 205
3 206 462 457
3 457 459 458
3 458 460 457
3 457 462 459
3 460 464 457
3 459 461 458
3 458 463 460
3 37 466 162
3 206 466 37
3 162 166 38
3 200 39 165
3 200 467 49
3 49 467 205
3 162 466 166
3 166 465 165
3 165 467 200
3 465 467 165
3 166 466 465
3 205 465 206
3 205 467 465
3 465 466 206
3 182 185 40
3 183 41 192
3 185 469 42
3 42 469 208
3 46 470 192
3 207 470 46
3 183 468 182
3 182 469 185
3 468 469 182
3 192 470 183
3 183 470 468
3 208 468 207
3 468 470 207
3 208 469 468
3 42 476 187
3 208 476 42
3 186 475 43
3 43 475 210
3 194 477 46
3 46 477 207
3 47 478 193
3 209 478 47
3 187 474 186
3 474 475 186
3 187 476 474
3 193 473 194
3 193 478 473
3 473 477 194
3 207 472 208
3 207 477 472
3 472 476 208
3 210 471 209
3 471 478 209
3 210 475 471
3 472 473 471
3 471 474 472
3 473 478 471
3 471 475 474
3 472 477 473
3 474 476 472
3 43 483 189
3 210 483 43
3 188 485 44
3 44 485 191
3 190 484 45
3 45 484 195
3 196 486 47
3 47 486 209
3 189 479 188
3 479 485 188
3 189 483 479
3 191 481 190
3 481 484 190
3 191 485 481
3 195 480 196
3 195 484 480
3 480 486 196
3 209 482 210
3 209 486 482
3 482 483 210
3 480 481 479
3 479 482 480
3 481 485 479
3 479 483 482
3 480 484 481
3 482 486 480
3 211 213 50
3 213 212 51
3 212 213 211
3 211 50 487
3 50 214 487
3 51 212 488
3 220 51 488
3 52 215 214
3 219 53 220
3 212 211 489
3 211 487 489
3 488 212 489
3 214 215 487
3 215 216 487
3 216 217 489
3 487 216 489
3 217 218 489
3 218 219 488
3 218 488 489
3 219 220 488
3 213 490 50
3 50 493 214
3 490 493 50
3 51 491 213
3 220 491 51
3 54 52 214
3 57 492 53
3 53 492 220
3 214 221 54
3 221 493 55
3 55 490 222
3 55 493 490
3 222 491 56
3 56 491 223
3 223 492 57
3 213 491 490
3 214 493 221
3 220 492 491
3 490 491 222
3 491 492 223
3 52 54 495
3 215 52 495
3 57 53 494
3 53 219 494
3 54 224 495
3 228 57 494
3 216 215 498
3 224 215 495
3 215 224 498
3 217 216 499
3 225 216 498
3 216 225 499
3 218 217 497
3 217 226 497
3 226 217 499
3 219 218 496
3 218 227 496
3 227 218 497
3 219 228 494
3 228 219 496
3 224 225 498
3 225 226 499
3 226 227 497
3 227 228 496
3 54 221 224
3 221 55 500
3 55 229 500
3 56 223 501
3 230 56 501
3 228 223 57
3 224 221 500
3 223 228 501
3 225 224 500
3 226 225 502
3 225 500 502
3 227 226 502
3 228 227 501
3 501 227 502
3 229 230 502
3 500 229 502
3 230 501 502
3 222 229 55
3 230 222 56
3 230 229 222
3 231 233 58
3 233 232 59
3 232 233 231
3 231 58 503
3 58 234 503
3 59 232 504
3 240 59 504
3 60 235 234
3 239 61 240
3 232 231 505
3 231 503 505
3 504 232 505
3 234 235 503
3 235 236 503
3 236 237 505
3 503 236 505
3 237 238 505
3 238 239 504
3 238 504 505
3 239 240 504
3 233 506 58
3 58 509 234
3 506 509 58
3 59 507 233
3 240 507 59
3 234 62 60
3 65 508 61
3 61 508 240
3 241 62 234
3 241 509 63
3 63 506 242
3 63 509 506
3 242 507 64
3 64 507 243
3 243 508 65
3 233 507 506
3 234 509 241
3 240 508 507
3 506 507 242
3 507 508 243
3 60 62 514
3 235 60 514
3 65 61 510
3 61 239 510
3 62 244 514
3 248 65 510
3 236 235 511
3 235 244 511
3 244 235 514
3 237 236 512
3 245 236 511
3 236 245 512
3 238 237 513
3 246 237 512
3 237 246 513
3 239 238 515
3 247 238 513
3 238 247 515
3 239 248 510
3 248 239 515
3 244 245 511
3 245 246 512
3 246 247 513
3 247 248 515
3 62 241 244
3 241 63 516
3 63 249 516
3 64 243 517
3 250 64 517
3 248 243 65
3 244 241 516
3 243 248 517
3 245 244 516
3 246 245 518
3 245 516 518
3 247 246 518
3 248 247 517
3 517 247 518
3 249 250 518
3 516 249 518
3 250 517 518
3 242 249 63
3 250 242 64
3 250 249 242
4 241 244 516 123
4 424 211 306 302
4 238 237 505 113
4 218 217 489 182
4 226 227 502 166
4 246 247 518 125
4 248 243 517 126
4 26 124 118 245
4 39 165 169 225
4 183 41 176 216
4 114 25 107 236
4 257 522 378 525
4 109 24 113 238
4 178 40 182 218
4 482 210 483 523
4 209 486 478 523
4 482 486 209 523
4 221 224 500 164
4 211 424 306 519
4 235 234 503 115
4 228 223 501 163
4 100 22 54 386
4 464 457 205 522
4 206 457 462 522
4 201 458 463 521
4 458 202 461 521
4 181 86 17 220
4 40 396 181 219
4 24 308 112 239
4 206 462 466 522
4 67 2 62 321
4 363 520 366 526
4 438 201 463 521
4 381 232 266 521
4 257 378 521 525
4 409 212 251 519
4 432 282 521 525
4 418 478 486 523
4 215 214 487 184
4 432 522 282 525
4 328 334 445 528
4 257 282 522 525
4 328 524 334 528
4 112 80 13 240
4 334 449 445 528
4 327 280 524 526
4 329 333 127 531
4 247 248 517 27
4 227 228 501 38
4 477 417 519 527
4 280 520 271 526
4 328 524 445 526
4 253 230 382 522
4 478 523 418 527
4 330 520 327 526
4 434 432 521 525
4 257 521 282 525
4 328 445 524 528
4 127 346 329 531
4 458 463 521 525
4 210 482 471 523
4 478 418 415 527
4 482 209 471 523
4 432 427 263 522
4 457 522 464 525
4 469 476 208 527
4 372 296 257 521
4 462 522 457 525
4 458 521 461 525
4 212 211 306 519
4 329 528 524 531
4 219 488 220 181
4 240 239 504 112
4 463 431 521 525
4 207 470 468 519
4 433 522 432 525
4 209 478 471 523
4 210 471 475 523
4 212 306 251 519
4 349 346 127 531
4 327 520 280 526
4 464 522 430 525
4 346 528 329 531
4 334 328 329 524
4 334 142 449 528
4 329 524 333 531
4 465 205 457 522
4 206 465 457 522
4 332 249 254 520
4 239 238 504 24
4 219 218 488 40
4 201 437 458 521
4 458 437 202 521
4 363 260 520 526
4 461 521 377 525
4 462 376 522 525
4 478 415 473 527
4 469 208 468 527
4 230 375 382 522
4 372 257 378 521
4 418 423 415 527
4 229 230 222 522
4 449 443 445 528
4 380 521 378 525
4 403 523 475 527
4 293 398 519 532
4 280 299 271 520
4 334 524 329 528
4 283 293 398 519
4 467 205 465 522
4 206 466 465 522
4 250 242 249 520
4 271 520 260 526
4 462 376 466 522
4 463 431 438 521
4 438 437 201 521
4 439 202 437 521
4 435 252 231 521
4 381 374 232 521
4 418 523 423 527
4 334 128 142 528
4 472 468 208 527
4 378 257 281 522
4 232 231 233 521
4 362 368 250 520
4 229 436 429 522
4 260 524 280 526
4 398 405 283 519
4 472 208 476 527
4 432 263 282 522
4 227 502 166 501
4 247 518 125 517
4 505 238 113 504
4 489 218 182 488
4 363 524 260 526
4 260 298 363 520
4 273 436 229 522
4 379 378 522 525
4 298 359 363 520
4 280 271 260 526
4 471 523 478 527
4 366 526 520 530
4 409 401 212 519
4 250 368 267 520
4 363 367 524 526
4 364 524 367 526
4 296 274 257 521
4 231 428 435 521
4 323 327 330 520
4 363 359 366 520
4 116 62 2 321
4 167 54 22 386
4 402 476 469 527
4 332 326 249 520
4 327 524 331 526
4 426 434 432 521
4 372 378 380 521
4 424 306 262 302
4 477 473 415 527
4 308 61 12 80
4 53 16 396 86
4 469 468 519 527
4 331 327 324 524
4 283 293 519 532
4 475 523 471 527
4 280 264 327 524
4 463 460 425 525
4 445 524 446 526
4 460 464 425 525
4 266 381 59 232
4 415 417 477 527
4 211 416 424 519
4 446 524 364 526
4 408 398 523 532
4 244 245 516 26
4 224 225 500 39
4 216 215 487 41
4 236 235 503 25
4 373 378 281 522
4 274 282 257 521
4 324 327 264 524
4 349 343 127 346
4 306 424 262 519
4 346 128 329 528
4 212 51 409 251
4 128 334 329 528
4 433 427 432 522
4 379 378 373 522
4 241 62 244 321
4 221 54 224 386
4 463 425 431 525
4 257 282 281 522
4 464 430 425 525
4 408 527 398 532
4 402 469 519 527
4 340 5 335 143
4 336 136 8 357
4 163 14 385 223
4 451 444 526 530
4 372 381 266 521
4 260 271 298 520
4 333 524 265 531
4 331 524 328 526
4 407 519 398 532
4 168 390 167 383
4 366 520 361 530
4 358 364 367 526
4 360 260 363 524
4 253 382 373 522
4 486 414 418 523
4 399 483 403 523
4 409 251 283 519
4 398 407 405 519
4 445 446 524 528
4 398 293 256 532
4 266 232 233 521
4 422 519 417 527
4 360 363 367 524
4 184 20 397 214
4 372 266 296 521
4 56 382 253 230
4 398 256 523 532
4 126 10 320 243
4 50 211 424 302
4 451 444 448 526
4 408 523 527 532
4 409 283 405 519
4 230 253 222 522
4 407 398 527 532
4 358 451 448 526
4 435 426 252 521
4 265 524 300 531
4 297 282 274 521
4 318 116 313 117
4 358 446 364 526
4 363 366 367 526
4 415 422 417 527
4 262 424 420 519
4 283 284 293 532
4 434 433 432 525
4 404 408 398 523
4 407 527 519 532
4 360 279 260 524
4 434 521 431 525
4 403 408 523 527
4 430 522 433 525
4 445 443 446 528
4 264 280 260 524
4 478 473 471 527
4 115 0 309 234
4 267 64 368 250
4 446 364 524 528
4 283 251 306 519
4 212 213 306 211
4 423 415 527 532
4 488 212 409 401
4 404 398 256 523
4 482 483 479 523
4 274 296 266 521
4 480 486 482 523
4 328 445 447 526
4 427 429 436 522
4 382 375 373 522
4 231 58 252 435
4 358 448 446 526
4 375 230 382 501
4 430 433 425 525
4 434 431 425 525
4 332 249 63 254
4 324 264 333 524
4 479 483 399 523
4 480 414 486 523
4 265 333 264 524
4 297 252 426 521
4 381 374 504 232
4 423 527 523 532
4 461 371 459 525
4 435 428 426 521
4 381 372 374 521
4 403 475 400 527
4 265 264 300 524
4 333 329 324 524
4 371 462 459 525
4 517 362 368 250
4 142 443 449 528
4 480 484 414 529
4 204 451 361 530
4 282 263 281 522
4 422 527 415 532
4 299 254 271 520
4 230 56 382 501
4 504 59 381 232
4 461 377 371 525
4 400 475 474 527
4 462 371 376 525
4 332 254 323 520
4 299 323 254 520
4 458 460 463 525
4 414 423 418 523
4 399 403 408 523
4 377 521 380 525
4 402 519 407 527
4 329 328 331 524
4 345 128 346 528
4 9 140 336 353
4 458 201 202 437
4 468 472 208 207
4 460 457 464 525
4 423 422 415 532
4 127 4 335 351
4 379 522 376 525
4 420 424 416 519
4 409 405 401 519
4 470 417 416 519
4 402 469 401 519
4 408 407 398 527
4 519 527 422 532
4 273 55 229 436
4 190 411 303 529
4 479 480 482 523
4 420 262 519 532
4 205 206 465 457
4 520 526 330 530
4 489 211 212 519
4 421 190 410 303
4 3 123 321 241
4 190 411 410 303
4 304 412 191 411
4 480 414 523 529
4 229 222 273 522
4 477 472 473 527
4 250 267 242 520
4 243 248 65 320
4 223 228 57 385
4 420 294 262 532
4 328 447 322 526
4 411 255 303 529
4 414 419 523 529
4 485 479 399 529
4 416 487 211 424
4 230 229 502 522
4 368 359 267 520
4 420 413 294 532
4 365 524 364 528
4 191 304 411 529
4 326 441 520 530
4 479 523 399 529
4 484 421 414 529
4 370 364 450 528
4 328 322 331 526
4 403 400 408 527
4 231 252 233 521
4 345 346 342 528
4 298 267 368 359
4 518 250 249 520
4 281 253 373 522
4 467 429 430 522
4 375 466 376 522
4 368 64 517 250
4 367 366 358 526
4 416 183 470 519
4 469 182 401 519
4 425 433 434 525
4 417 422 416 519
4 402 401 407 519
4 500 429 229 436
4 409 51 212 488
4 304 255 411 529
4 474 476 400 527
4 361 442 204 530
4 435 231 503 428
4 399 523 404 529
4 447 445 446 526
4 231 232 505 521
4 470 183 468 519
4 469 468 182 519
4 379 380 378 525
4 438 431 428 521
4 374 377 439 521
4 361 520 442 530
4 124 326 441 520
4 125 442 362 520
4 190 303 421 529
4 323 520 330 530
4 420 519 422 532
4 365 367 364 524
4 256 523 272 529
4 400 476 402 527
4 229 55 500 436
4 231 58 435 503
4 442 361 362 520
4 480 523 479 529
4 332 323 326 520
4 362 359 368 520
4 324 329 331 524
4 485 399 406 529
4 293 284 256 532
4 484 190 421 529
4 359 298 267 520
4 330 327 331 526
4 467 165 429 522
4 466 375 166 522
4 414 421 419 529
4 252 297 274 521
4 107 310 237 512
4 499 226 169 388
4 266 252 274 521
4 279 264 260 524
4 391 171 497 226
4 109 513 237 314
4 249 332 516 326
4 441 440 520 530
4 465 165 467 522
4 466 166 465 522
4 353 305 9 369
4 419 523 272 532
4 416 422 420 519
4 407 401 405 519
4 124 441 440 520
4 125 440 442 520
4 438 428 114 521
4 374 439 113 521
4 314 120 513 246
4 497 178 391 217
4 222 253 273 522
4 310 118 246 512
4 176 217 499 388
4 433 430 429 522
4 379 375 376 522
4 442 520 440 530
4 366 359 361 520
4 259 305 353 369
4 266 233 252 521
4 516 241 123 63
4 306 262 283 519
4 438 114 437 521
4 439 437 113 521
4 377 380 371 525
4 370 450 141 528
4 379 376 371 525
4 480 479 481 529
4 434 428 431 521
4 374 380 377 521
4 142 141 443 528
4 256 404 523 529
4 461 459 458 525
4 204 444 451 530
4 298 271 267 520
4 271 254 267 520
4 209 210 482 471
4 70 264 324 327
4 462 457 459 525
4 411 190 481 529
4 140 365 139 528
4 363 76 260 360
4 141 142 348 528
4 373 83 281 378
4 332 63 249 516
4 211 487 50 424
4 33 352 151 453
4 272 523 256 532
4 325 323 330 530
4 139 370 141 528
4 149 34 455 350
4 406 399 404 529
4 23 164 386 221
4 411 481 191 529
4 429 427 433 522
4 373 375 379 522
4 450 364 446 528
4 140 365 528 531
4 296 82 372 257
4 99 52 21 397
4 434 426 428 521
4 372 380 374 521
4 414 419 423 523
4 408 404 399 523
4 332 68 299 254
4 281 273 253 522
4 475 471 474 527
4 347 140 139 528
4 256 89 293 398
4 279 260 76 360
4 103 263 432 427
4 385 15 57 85
4 500 221 164 55
4 140 528 347 531
4 9 259 305 353
4 79 11 320 65
4 322 330 526 530
4 367 365 360 524
4 60 1 66 309
4 423 523 419 532
4 426 102 297 432
4 450 141 32 370
4 190 484 481 529
4 360 279 524 531
4 256 272 289 529
4 449 334 28 142
4 357 152 7 353
4 256 290 404 529
4 340 351 6 146
4 370 141 32 139
4 334 128 28 142
4 263 273 281 522
4 352 33 148 337
4 234 503 115 58
4 359 362 361 520
4 448 447 446 526
4 34 354 350 154
4 70 280 264 327
4 406 404 290 529
4 326 325 441 530
4 83 281 378 257
4 413 420 422 532
4 299 323 332 254
4 284 262 294 532
4 300 524 279 531
4 421 289 419 529
4 407 400 402 527
4 360 524 365 531
4 348 456 149 150
4 305 369 259 531
4 294 413 420 95
4 347 528 346 531
4 316 11 65 122
4 214 487 184 50
4 342 348 142 528
4 420 294 95 262
4 154 356 344 153
4 65 11 320 122
4 1 60 105 309
4 174 21 52 397
4 385 57 15 173
4 369 140 353 531
4 365 364 370 528
4 413 272 294 532
4 300 264 279 524
4 69 299 280 327
4 447 328 130 445
4 481 485 191 529
4 447 452 322 530
4 342 454 150 151
4 105 60 1 312
4 52 21 174 387
4 427 104 263 436
4 227 226 497 171
4 238 237 109 513
4 124 119 118 246
4 177 183 176 217
4 108 114 107 237
4 165 170 169 226
4 119 125 120 246
4 182 177 178 217
4 113 108 109 237
4 170 166 171 226
4 484 480 481 529
4 283 251 409 87
4 344 139 141 528
4 460 458 457 525
4 87 409 283 405
4 369 353 259 531
4 468 183 489 519
4 134 454 142 135
4 133 456 141 134
4 349 341 346 531
4 392 15 57 173
4 182 468 489 519
4 2 62 116 312
4 22 54 167 387
4 447 448 444 526
4 419 272 413 532
4 248 247 121 27
4 228 227 172 38
4 263 432 282 103
4 378 372 82 257
4 472 471 473 527
4 447 322 526 530
4 407 408 400 527
4 380 379 371 525
4 282 297 102 432
4 322 328 130 447
4 349 265 259 531
4 310 237 108 107
4 169 226 170 388
4 226 225 499 169
4 237 236 107 512
4 474 472 476 527
4 68 299 323 332
4 247 246 513 120
4 218 217 178 497
4 398 256 89 404
4 458 459 457 525
4 341 347 346 531
4 502 165 465 522
4 84 382 373 253
4 147 146 343 339
4 69 323 299 327
4 284 272 256 532
4 502 465 166 522
4 212 213 251 306
4 447 526 444 530
4 481 479 485 529
4 186 400 475 474
4 473 478 193 415
4 139 141 32 344
4 147 148 338 345
4 214 99 20 397
4 9 140 353 369
4 177 391 178 217
4 108 109 237 314
4 120 314 119 246
4 171 391 170 226
4 330 331 322 526
4 524 528 365 531
4 370 155 450 364
4 305 279 369 531
4 322 452 325 530
4 124 440 518 520
4 262 94 424 302
4 355 153 152 347
4 446 443 450 528
4 485 188 399 479
4 14 385 223 85
4 518 440 125 520
4 480 484 195 414
4 333 324 71 264
4 119 310 118 246
4 177 217 176 388
4 160 462 459 371
4 198 464 425 460
4 461 459 371 161
4 463 199 425 460
4 65 248 510 122
4 57 228 494 173
4 349 127 351 265
4 442 440 204 530
4 418 193 478 415
4 400 403 186 475
4 476 400 187 474
4 194 477 473 415
4 262 94 420 424
4 259 265 300 531
4 246 245 512 118
4 217 216 176 499
4 339 143 127 144
4 137 355 136 140
4 505 437 114 521
4 350 32 141 344
4 96 294 413 272
4 474 471 472 527
4 423 419 413 532
4 113 437 505 521
4 128 343 345 346
4 360 369 279 531
4 298 363 77 260
4 135 28 30 453
4 32 31 455 133
4 322 325 330 530
4 403 483 43 210
4 78 267 368 298
4 447 444 452 530
4 265 333 71 264
4 484 195 414 421
4 188 399 406 485
4 172 171 227 394
4 475 403 43 210
4 342 346 348 528
4 139 344 347 528
4 360 365 369 531
4 298 77 363 359
4 104 273 263 436
4 493 23 55 301
4 296 372 81 266
4 411 410 303 92
4 412 304 93 411
4 190 481 191 411
4 435 58 115 503
4 55 500 436 164
4 372 381 81 266
4 187 402 400 476
4 477 194 417 415
4 290 304 406 529
4 137 356 139 138
4 144 338 145 128
4 341 349 259 531
4 303 289 421 529
4 449 131 334 445
4 34 354 455 350
4 247 121 120 315
4 444 204 203 530
4 191 44 412 485
4 75 305 279 369
4 371 377 461 161
4 371 160 462 376
4 425 199 463 431
4 425 430 464 198
4 354 31 32 138
4 30 28 145 337
4 270 23 55 273
4 298 368 78 359
4 413 422 423 532
4 368 10 64 78
4 344 346 347 528
4 349 259 265 73
4 332 123 63 516
4 344 141 348 528
4 243 10 320 79
4 241 3 67 321
4 268 242 267 291
4 413 419 96 272
4 450 443 141 528
4 234 66 0 309
4 55 270 493 301
4 341 259 353 531
4 35 204 451 361
4 29 325 452 203
4 267 268 10 64
4 328 334 131 445
4 248 247 515 121
4 228 227 496 172
4 244 241 321 123
4 294 272 284 532
4 325 452 203 530
4 403 483 399 189
4 196 418 486 414
4 155 446 450 364
4 204 440 203 530
4 292 233 258 252
4 46 207 477 417
4 342 352 345 142
4 358 157 451 361
4 325 322 129 452
4 253 373 84 281
4 464 49 430 205
4 461 36 377 202
4 92 303 411 255
4 411 304 93 255
4 341 353 140 531
4 368 64 267 78
4 44 406 412 485
4 50 487 184 424
4 360 75 279 369
4 256 289 290 529
4 224 221 386 164
4 404 290 90 406
4 362 158 442 125
4 132 124 326 441
4 58 0 258 252
4 304 91 406 412
4 185 182 401 469
4 416 192 470 183
4 270 55 23 301
4 72 351 4 265
4 58 0 101 435
4 349 341 259 73
4 361 158 442 362
4 326 325 132 441
4 162 376 375 466
4 467 200 430 429
4 74 259 9 353
4 375 166 162 466
4 467 200 429 165
4 439 159 377 374
4 197 431 428 438
4 33 352 453 337
4 370 139 365 528
4 480 196 486 414
4 439 159 374 113
4 428 114 197 438
4 349 351 72 265
4 242 64 507 268
4 417 192 470 416
4 401 402 185 469
4 483 479 399 189
4 157 451 448 358
4 98 421 410 303
4 290 255 304 529
4 305 300 279 531
4 509 291 258 276
4 51 213 491 261
4 232 59 266 233
4 54 214 278 221
4 214 54 278 52
4 204 35 442 361
4 203 29 325 441
4 344 348 346 528
4 517 27 248 126
4 23 100 221 386
4 303 255 289 529
4 140 369 365 531
4 256 290 90 404
4 335 351 4 340
4 500 429 436 164
4 203 441 325 530
4 357 9 336 353
4 468 182 489 183
4 505 113 114 437
4 124 125 518 440
4 502 166 465 165
4 115 435 503 428
4 97 419 421 289
4 207 46 470 417
4 138 356 139 154
4 341 140 347 531
4 101 252 58 435
4 91 304 18 412
4 88 87 283 405
4 243 517 126 64
4 49 467 430 205
4 36 439 377 202
4 289 97 419 272
4 501 163 38 228
4 409 51 17 251
4 41 192 416 183
4 65 248 122 320
4 57 228 173 385
4 350 141 348 344
4 353 74 259 341
4 10 267 64 78
4 43 483 403 189
4 47 196 418 486
4 59 13 381 266
4 452 322 129 447
4 243 248 320 126
4 406 91 18 412
4 193 194 473 415
4 400 186 187 474
4 290 91 90 406
4 94 420 95 262
4 516 332 123 326
4 98 410 19 303
4 242 507 506 268
4 195 196 480 414
4 248 320 126 319
4 222 253 270 273
4 198 425 199 460
4 459 160 371 161
4 186 403 43 475
4 193 478 47 418
4 375 166 38 162
4 429 200 39 165
4 56 163 382 501
4 421 410 19 98
4 479 188 399 189
4 223 501 163 56
4 41 416 487 183
4 428 114 25 197
4 63 3 332 254
4 410 19 45 421
4 18 44 406 412
4 249 242 63 254
4 401 40 182 185
4 290 304 91 406
4 491 56 295 222
4 223 228 385 163
4 27 158 362 125
4 326 26 124 132
4 517 64 368 126
4 184 487 416 424
4 233 292 266 252
4 242 267 291 254
4 303 98 421 289
4 491 213 490 261
4 452 444 203 530
4 324 71 264 70
4 385 228 384 163
4 130 328 131 445
4 432 102 282 103
4 258 0 509 276
4 98 97 421 289
4 83 84 373 281
4 155 156 446 364
4 332 3 68 254
4 247 121 27 120
4 38 171 227 172
4 51 212 213 251
4 265 72 349 73
4 68 323 299 69
4 35 451 157 361
4 29 325 129 452
4 81 381 13 266
4 374 159 24 113
4 301 493 23 278
4 137 355 140 347
4 339 127 343 144
4 76 77 363 260
4 289 255 290 529
4 58 0 252 101
4 40 182 488 401
4 42 402 187 476
4 46 477 194 417
4 17 409 251 87
4 39 500 429 165
4 221 278 493 214
4 251 51 17 261
4 503 114 25 428
4 148 145 338 345
4 382 163 375 501
4 351 6 4 340
4 153 355 137 347
4 131 334 28 449
4 160 37 462 376
4 464 430 49 198
4 199 48 463 431
4 461 377 36 161
4 343 147 339 144
4 59 233 507 292
4 356 344 139 154
4 357 7 9 353
4 38 166 375 501
4 134 141 142 150
4 75 279 76 360
4 280 70 69 327
4 488 220 181 51
4 504 240 112 59
4 59 504 381 112
4 82 83 378 257
4 504 239 24 112
4 488 40 181 219
4 14 163 382 56
4 81 82 372 296
4 75 9 305 369
4 95 294 413 96
4 92 411 93 255
4 241 234 62 276
4 234 62 276 60
4 275 268 292 507
4 141 348 142 150
4 128 145 28 352
4 51 409 181 488
4 227 496 172 394
4 247 515 121 315
4 14 56 382 253
4 263 103 104 427
4 20 50 424 302
4 155 450 32 370
4 509 58 0 258
4 455 354 32 350
4 17 51 409 181
4 516 26 124 326
4 516 26 123 244
4 20 50 184 424
4 504 374 24 113
4 298 78 77 359
4 4 333 71 265
4 424 94 20 302
4 241 276 509 234
4 89 88 293 398
4 362 517 368 126
4 385 228 173 384
4 320 248 122 319
4 305 259 300 531
4 441 203 440 530
4 256 90 89 404
4 27 362 517 125
4 295 253 270 222
4 345 145 338 128
4 156 157 448 358
4 253 295 56 222
4 406 44 188 485
4 195 484 45 421
4 14 163 56 223
4 230 253 56 222
4 10 126 368 64
4 409 181 488 401
4 59 13 266 292
4 381 504 374 112
4 506 291 268 258
4 500 224 39 164
4 503 115 25 235
4 123 3 332 63
4 322 130 129 447
4 487 416 41 184
4 340 335 351 146
4 273 23 55 436
4 357 336 152 353
4 10 126 64 243
4 3 63 291 254
4 507 233 506 292
4 23 273 104 436
4 97 96 419 272
4 487 41 215 184
4 453 352 28 337
4 491 295 270 222
4 128 345 145 352
4 348 342 142 150
4 142 352 135 151
4 112 13 381 59
4 141 456 149 348
4 213 269 306 302
4 123 3 63 241
4 302 50 269 301
4 74 9 7 353
4 148 145 345 352
4 278 493 23 221
4 297 101 102 426
4 291 509 3 276
4 51 17 220 181
4 0 115 435 58
4 491 295 261 270
4 375 163 38 501
4 84 14 382 253
4 454 142 342 150
4 353 341 140 347
4 185 402 42 469
4 192 470 46 417
4 351 4 6 72
4 269 213 50 302
4 491 295 277 261
4 222 270 491 490
4 184 50 20 214
4 247 246 120 125
4 218 217 182 178
4 227 226 171 166
4 238 237 113 109
4 139 344 356 153
4 348 141 456 150
4 64 267 242 250
4 488 181 40 401
4 341 74 259 73
4 303 410 19 92
4 304 93 18 412
4 490 270 269 301
4 36 439 159 377
4 49 467 200 430
4 37 376 162 466
4 197 48 431 438
4 429 500 39 164
4 506 268 292 258
4 142 352 28 135
4 149 133 141 350
4 268 292 507 506
4 112 13 59 240
4 270 261 491 490
4 251 213 51 261
4 503 25 115 428
4 349 127 343 351
4 268 275 10 507
4 509 63 3 241
4 491 17 51 261
4 149 133 456 141
4 135 454 142 151
4 158 442 35 361
4 132 325 29 441
4 342 142 454 151
4 246 245 118 124
4 226 225 169 165
4 217 216 183 176
4 237 236 114 107
4 144 127 343 128
4 277 17 491 261
4 499 217 226 388
4 237 310 246 512
4 140 139 137 347
4 142 454 134 150
4 134 456 141 150
4 517 362 27 126
4 314 513 237 246
4 391 497 217 226
4 0 115 58 234
4 64 268 10 507
4 141 133 32 350
4 220 17 51 491
4 0 58 509 234
4 270 269 261 490
4 56 14 295 253
4 292 266 59 233
4 164 23 436 55
4 142 342 352 151
4 123 26 516 326
4 137 139 153 347
4 343 147 144 128
4 509 3 63 291
4 244 26 123 318
4 149 141 348 350
4 55 270 490 493
4 240 13 59 507
4 151 352 28 453
4 85 285 492 277
4 494 392 57 173
4 352 148 28 337
4 514 60 105 312
4 52 174 495 387
4 24 374 504 112
4 122 510 317 248
4 510 316 65 122
4 146 127 343 339
4 261 251 213 269
4 228 173 393 494
4 229 222 55 273
4 140 355 152 347
4 20 50 302 301
4 164 23 55 221
4 139 344 153 347
4 149 455 32 350
4 495 167 54 387
4 514 116 62 312
4 276 509 3 241
4 149 32 455 133
4 28 135 151 453
4 28 148 145 337
4 267 242 268 64
4 17 220 277 491
4 224 383 39 164
4 251 213 269 306
4 350 354 32 154
4 138 32 354 154
4 345 338 147 128
4 493 55 23 221
4 27 319 248 126
4 213 261 269 490
4 291 63 242 254
4 233 231 58 252
4 146 340 335 143
4 336 152 136 357
4 506 58 509 258
4 64 10 243 507
4 79 508 275 288
4 292 13 275 507
4 292 233 506 258
4 61 308 316 510
4 276 0 509 234
4 392 53 396 494
4 66 286 60 276
4 292 59 13 507
4 270 490 493 301
4 307 25 115 235
4 147 343 345 128
4 510 316 61 65
4 57 53 392 494
4 308 316 510 111
4 517 247 27 125
4 501 38 166 227
4 353 336 152 140
4 291 268 242 506
4 127 351 335 146
4 493 490 50 301
4 354 32 31 455
4 453 28 30 337
4 4 5 335 340
4 8 9 336 357
4 30 33 453 337
4 396 392 494 180
4 391 171 178 497
4 109 120 513 314
4 169 176 499 388
4 310 107 118 512
4 163 38 228 384
4 67 62 286 276
4 85 223 14 277
4 244 235 313 514
4 215 390 224 495
4 354 31 34 455
4 514 62 60 312
4 495 54 52 387
4 100 278 54 287
4 490 269 50 301
4 395 215 41 184
4 62 60 286 276
4 495 174 167 387
4 514 105 116 312
4 13 240 275 507
4 54 278 100 221
4 122 510 316 111
4 180 392 494 173
4 244 235 511 106
4 215 224 175 498
4 278 301 493 214
4 20 278 99 214
4 235 244 313 106
4 175 390 224 215
4 228 219 494 393
4 317 510 239 248
4 504 24 238 113
4 182 40 488 218
4 50 493 301 214
4 295 223 56 491
4 494 180 173 393
4 313 105 116 514
4 122 317 510 111
4 174 167 390 495
4 57 285 492 85
4 224 168 175 498
4 511 244 106 117
4 277 223 14 295
4 390 168 175 224
4 106 244 313 117
4 291 63 509 506
4 248 239 121 515
4 146 335 127 143
4 136 152 336 140
4 258 233 58 252
4 100 278 23 221
4 123 244 318 321
4 239 121 317 248
4 85 492 223 277
4 138 350 32 154
4 269 50 213 490
4 99 52 278 287
4 275 243 10 507
4 288 79 508 65
4 496 219 228 179
4 145 148 28 352
4 223 56 14 295
4 133 149 32 350
4 179 228 496 172
4 110 121 239 515
4 215 41 175 395
4 235 307 25 106
4 233 58 506 258
4 60 66 276 234
4 351 127 343 146
4 393 228 219 179
4 276 67 62 241
4 135 352 28 151
4 106 311 511 117
4 175 168 389 498
4 393 228 179 172
4 110 121 317 239
4 285 15 57 392
4 152 353 140 347
4 16 15 285 392
4 384 38 228 172
4 319 121 27 248
4 12 61 316 288
4 222 270 55 273
4 285 53 16 392
4 316 11 12 288
4 164 224 383 386
4 226 217 177 388
4 310 108 237 246
4 387 52 21 287
4 316 11 288 65
4 3 67 276 241
4 9 8 7 357
4 99 278 52 214
4 314 237 108 246
4 177 391 217 226
4 5 4 6 340
4 1 60 286 312
4 286 2 1 312
4 275 243 508 79
4 86 492 285 277
4 315 121 110 515
4 496 394 179 172
4 20 301 278 214
4 387 22 54 287
4 52 54 278 287
4 295 277 223 491
4 286 62 2 312
4 144 147 338 128
4 387 21 22 287
4 10 243 275 79
4 276 66 0 234
4 80 275 508 288
4 137 139 356 153
4 57 223 85 492
4 277 492 223 491
4 277 220 492 491
4 99 21 52 287
4 65 243 79 508
4 226 177 170 388
4 310 119 108 246
4 63 242 506 291
4 285 57 53 392
4 288 61 316 65
4 244 318 313 117
4 391 177 170 226
4 119 314 108 246
4 100 54 22 287
4 168 390 383 224
4 387 54 52 287
4 57 223 385 85
4 65 243 320 79
4 214 52 99 397
4 127 146 143 339
4 152 136 355 140
4 275 240 508 507
4 508 243 275 507
4 318 244 26 117
4 39 168 383 224
4 86 17 220 277
4 60 62 286 312
4 238 247 315 515
4 218 496 227 394
4 55 270 222 490
4 60 66 234 309
4 285 57 15 85
4 171 178 497 227
4 120 513 238 109
4 11 79 288 65
4 286 60 1 66
4 286 2 62 67
4 275 240 13 80
4 285 53 492 86
4 171 178 227 394
4 120 238 315 109
4 301 20 50 214
4 500 39 225 165
4 124 26 516 245
4 25 114 503 236
4 487 216 41 183
4 107 118 512 236
4 176 499 216 169
4 509 291 506 258
4 178 497 227 218
4 513 238 247 120
4 80 508 61 288
4 220 492 86 277
4 107 118 236 311
4 216 389 176 169
4 245 511 236 311
4 225 216 389 498
4 275 508 240 80
4 217 489 182 183
4 113 237 505 114
4 518 125 124 246
4 166 502 226 165
4 315 247 238 120
4 218 227 178 394
4 221 100 54 386
4 492 53 220 86
4 241 67 62 321
4 61 240 508 80
4 499 225 216 169
4 118 512 236 245
4 389 216 225 169
4 245 236 118 311
4 285 16 53 86
4 285 53 57 492
4 80 61 12 288
4 288 508 61 65
4 53 219 396 494
4 225 226 502 165
4 40 179 396 219
4 171 166 38 227
4 108 113 114 237
4 61 239 308 510
4 120 125 27 247
4 24 110 308 239
4 125 119 124 246
4 236 503 505 114
4 236 505 237 114
4 245 246 518 124
4 177 182 183 217
4 166 170 165 226
4 225 502 500 165
4 217 216 489 183
4 489 216 487 183
4 245 518 516 124
4 432 297 521 282
4 432 521 297 426
4 62 244 116 514
4 313 116 244 514
4 313 244 116 318
4 54 224 167 495
4 390 167 224 495
4 390 224 167 383
4 477 527 207 472
4 477 207 527 519
4 468 207 527 472
4 468 527 207 519
4 451 530 358 361
4 451 358 530 526
4 366 358 530 361
4 366 530 358 526
4 426 252 101 435
4 426 101 252 297
4 86 181 53 220
4 86 53 181 396
4 219 53 181 220
4 219 181 53 396
4 80 112 61 240
4 80 61 112 308
4 239 61 112 240
4 239 112 61 308
4 398 283 88 293
4 398 88 283 405
4 476 469 42 402
4 42 469 476 208
4 207 417 519 477
4 519 417 207 470
4 179 396 393 180
4 179 393 396 219
4 494 393 396 180
4 494 396 393 219
4 110 308 317 111
4 110 317 308 239
4 510 317 308 111
4 510 308 317 239
4 438 463 48 431
4 438 48 463 201
4 430 205 522 464
4 522 205 430 467
4 462 466 37 206
4 37 466 462 376
4 377 202 521 461
4 521 202 377 439
4 403 210 523 483
4 523 210 403 475
4 478 486 47 418
4 47 486 478 209
4 142 345 528 128
4 142 528 345 342
4 327 299 520 323
4 327 520 299 280
4 263 436 522 427
4 522 436 263 273
4 244 117 245 26
4 118 117 245 311
4 118 245 117 26
4 176 216 175 389
4 176 175 216 41
4 215 216 175 41
4 224 168 225 39
4 169 168 225 389
4 169 225 168 39
4 107 236 106 311
4 107 106 236 25
4 235 236 106 25
4 219 179 218 40
4 178 179 218 394
4 178 218 179 40
4 239 110 238 24
4 109 110 238 315
4 109 238 110 24
4 520 242 254 267
4 520 254 242 249
4 532 283 262 519
4 532 262 283 284
4 128 127 346 329
4 128 346 127 343
4 529 272 419 523
4 529 419 272 289
4 358 446 156 364
4 358 156 446 448
4 265 127 531 349
4 265 531 127 333
4 386 167 224 383
4 386 224 167 54
4 321 116 244 318
4 321 244 116 62
4 530 323 326 325
4 530 326 323 520
4 12 308 316 61
4 316 308 12 111
4 16 396 392 53
4 16 392 396 180
4 421 190 45 410
4 421 45 190 484
4 485 529 304 191
4 304 529 485 406
4 304 412 485 191
4 485 412 304 406
4 302 211 213 50
4 302 213 211 306
4 4 127 265 351
4 4 265 127 333
4 504 505 374 113
4 504 374 505 232
4 521 374 505 113
4 521 505 374 232
4 488 489 401 182
4 488 401 489 212
4 519 401 489 182
4 519 489 401 212
4 501 502 375 230
4 501 375 502 166
4 522 375 502 230
4 522 502 375 166
4 520 518 362 125
4 520 362 518 250
4 517 362 518 125
4 517 518 362 250
4 154 344 138 350
4 154 138 344 139
4 32 138 344 350
4 32 344 138 139
4 352 128 142 28
4 352 142 128 345
4 500 502 429 165
4 500 429 502 229
4 522 429 502 165
4 522 502 429 229
4 516 518 326 124
4 516 326 518 249
4 520 326 518 124
4 520 518 326 249
4 505 503 428 114
4 428 503 505 231
4 428 521 505 114
4 505 521 428 231
4 519 489 416 183
4 519 416 489 211
4 487 416 489 183
4 487 489 416 211
4 173 228 172 384
4 173 172 228 393
4 122 248 121 319
4 121 248 122 317
4 515 110 238 239
4 515 238 110 315
4 52 174 215 495
4 390 215 174 495
4 498 175 216 389
4 498 216 175 215
4 496 179 218 219
4 496 218 179 394
4 511 106 236 311
4 511 236 106 235
4 313 235 105 514
4 60 105 235 514
4 117 511 245 311
4 117 245 511 244
4 168 498 225 389
4 168 225 498 224
4 234 309 235 60
4 105 235 309 60
4 105 309 235 307
4 174 397 215 395
4 174 215 397 52
4 214 397 215 52
4 309 115 235 307
4 309 235 115 234
4 397 184 215 395
4 397 215 184 214
4 215 174 175 390
4 215 175 174 395
4 235 105 106 313
4 235 106 105 307

CELL_TYPES 2907
1
1
1
1
1
1
1
1
1
1
1
1
1
1
1
1
1
1
1
1
1
1
1
1
1
1
1
1
1
1
1
1
1
1
1
1
1
1
1
1
1
1
1
1
1
1
1
1
1
1
1
1
1
1
1
1
1
1
1
1
1
1
1
1
1
1
3
3
3
3
3
3
3
3
3
3
3
3
3
3
3
3
3
3
3
3
3
3
3
3
3
3
3
3
3
3
3
3
3
3
3
3
3
3
3
3
3
3
3
3
3
3
3
3
3
3
3
3
3
3
3
3
3
3
3
3
3
3
3
3
3
3
3
3
3
3
3
3
3
3
3
3
3
3
3
3
3
3
3
3
3
3
3
3
3
3
3
3
3
3
3
3
3
3
3
3
3
3
3
3
3
3
3
3
3
3
3
3
3
3
3
3
3
3
3
3
3
3
3
3
3
3
3
3
3
3
3
3
3
3
3
3
3
3
3
3
3
3
3
3
3
3
3
3
3
3
3
3
3
3
3
3
3
3
3
3
3
3
3
3
3
3
3
3
3
3
3
3
3
3
3
3
3
3
3
3
3
3
3
3
3
3
3
3
3
3
3
3
3
3
3
3
3
3
3
3
3
3
3
3
3
3
3
3
3
3
3
3
3
3
3
3
3
3
3
3
3
3
3
3
3
3
3
3
3
3
3
3
3
3
3
3
3
3
3
3
3
3
3
3
3
3
3
3
3
3
3
3
3
3
3
3
3
3
3
3
3
3
3
3
3
3
3
3
3
3
3
3
3
3
3
3
3
3
3
3
3
3
3
3
5
5
5
5
5
5
5
5
5
5
5
5
5
5
5
5
5
5
5
5
5
5
5
5
5
5
5
5
5
5
5
5
5
5
5
5
5
5
5
5
5
5
5
5
5
5
5
5
5
5
5
5
5
5
5
5
5
5
5
5
5
5
5
5
5
5
5
5
5
5
5
5
5
5
5
5
5
5
5
5
5
5
5
5
5
5
5
5
5
5
5
5
5
5
5
5
5
5
5
5
5
5
5
5
5
5
5
5
5
5
5
5
5
5
5
5
5
5
5
5
5
5
5
5
5
5
5
5
5
5
5
5
5
5
5
5
5
5
5
5
5
5
5
5
5
5
5
5
5
5
5
5
5
5
5
5
5
5
5
5
5
5
5
5
5
5
5
5
5
5
5
5
5
5
5
5
5
5
5
5
5
5
5
5
5
5
5
5
5
5
5
5
5
5
5
5
5
5
5
5
5
5
5
5
5
5
5
5
5
5
5
5
5
5
5
5
5
5
5
5
5
5
5
5
5
5
5
5
5
5
5
5
5
5
5
5
5
5
5
5
5
5
5
5
5
5
5
5
5
5
5
5
5
5
5
5
5
5
5
5
5
5
5
5
5
5
5
5
5
5
5
5
5
5
5
5
5
5
5
5
5
5
5
5
5
5
5
5
5
5
5
5
5
5
5
5
5
5
5
5
5
5
5
5
5
5
5
5
5
5
5
5
5
5
5
5
5
5
5
5
5
5
5
5
5
5
5
5
5
5
5
5
5
5
5
5
5
5
5
5
5
5
5
5
5
5
5
5
5
5
5
5
5
5
5
5
5
5
5
5
5
5
5
5
5
5
5
5
5
5
5
5
5
5
5
5
5
5
5
5
5
5
5
5
5
5
5
5
5
5
5
5
5
5
5
5
5
5
5
5
5
5
5
5
5
5
5
5
5
5
5
5
5
5
5
5
5
5
5
5
5
5
5
5
5
5
5
5
5
5
5
5
5
5
5
5
5
5
5
5
5
5
5
5
5
5
5
5
5
5
5
5
5
5
5
5
5
5
5
5
5
5
5
5
5
5
5
5
5
5
5
5
5
5
5
5
5
5
5
5
5
5
5
5
5
5
5
5
5
5
5
5
5
5
5
5
5
5
5
5
5
5
5
5
5
5
5
5
5
5
5
5
5
5
5
5
5
5
5
5
5
5
5
5
5
5
5
5
5
5
5
5
5
5
5
5
5
5
5
5
5
5
5
5
5
5
5
5
5
5
5
5
5
5
5
5
5
5
5
5
5
5
5
5
5
5
5
5
5
5
5
5
5
5
5
5
5
5
5
5
5
5
5
5
5
5
5
5
5
5
5
5
5
5
5
5
5
5
5
5
5
5
5
5
5
5
5
5
5
5
5
5
5
5
5
5
5
5
5
5
5
5
5
5
5
5
5
5
5
5
5
5
5
5
5
5
5
5
5
5
5
5
5
5
5
5
5
5
5
5
5
5
5
5
5
5
5
5
5
5
5
5
5
5
5
5
5
5
5
5
5
5
5
5
5
5
5
5
5
5
5
5
5
5
5
5
5
5
5
5
5
5
5
5
5
5
5
5
5
5
5
5
5
5
5
5
5
5
5
5
5
5
5
5
5
5
5
5
5
5
5
5
5
5
5
5
5
5
5
5
5
5
5
5
5
5
5
5
5
5
5
5
5
5
5
5
5
5
5
5
5
5
5
5
5
5
5
5
5
5
5
5
5
5
5
5
5
5
5
5
5
5
5
5
5
5
5
5
5
5
5
5
5
5
5
5
5
5
5
5
5
5
5
5
5
5
5
5
5
5
5
5
5
5
5
5
5
5
5
5
5
5
5
5
5
5
5
5
5
5
5
5
5
5
5
5
5
5
5
5
5
5
5
5
5
5
5
5
5
5
5
5
5
5
5
5
5
5
5
5
5
5
5
5
5
5
5
5
5
5
5
5
5
5
5
5
5
5
5
5
5
5
5
5
5
5
5
5
5
5
5
5
5
5
5
5
5
5
5
5
5
5
5
5
5
5
5
5
5
5
5
5
5
5
5
5
5
5
5
5
5
5
5
5
5
5
5
5
5
5
5
5
5
5
5
5
5
5
5
5
5
5
5
5
5
5
5
5
5
5
5
5
5
5
5
5
5
5
5
5
5
5
5
5
5
5
5
5
5
5
5
5
5
5
5
5
5
5
5
5
5
5
5
5
5
5
5
5
5
5
5
5
5
5
5
5
5
5
5
5
5
5
5
5
5
5
5
5
5
5
5
5
5
5
5
5
5
5
5
5
5
5
5
5
5
5
5
5
5
5
5
5
5
5
5
5
10
10
10
10
10
10
10
10
10
10
10
10
10
10
10
10
10
10
10
10
10
10
10
10
10
10
10
10
10
10
10
10
10
10
10
10
10
10
10
10
10
10
10
10
10
10
10
10
10
10
10
10
10
10
10
10
10
10
10
10
10
10
10
10
10
10
10
10
10
10
10
10
10
10
10
10
10
10
10
10
10
10
10
10
10
10
10
10
10
10
10
10
10
10
10
10
10
10
10
10
10
10
10
10
10
10
10
10
10
10
10
10
10
10
10
10
10
10
10
10
10
10
10
10
10
10
10
10
10
10
10
10
10
10
10
10
10
10
10
10
10
10
10
10
10
10
10
10
10
10
10
10
10
10
10
10
10
10
10
10
10
10
10
10
10
10
10
10
10
10
10
10
10
10
10
10
10
10
10
10
10
10
10
10
10
10
10
10
10
10
10
10
10
10
10
10
10
10
10
10
10
10
10
10
10
10
10
10
10
10
10
10
10
10
10
10
10
10
10
10
10
10
10
10
10
10
10
10
10
10
10
10
10
10
10
10
10
10
10
10
10
10
10
10
10
10
10
10
10
10
10
10
10
10
10
10
10
10
10
10
10
10
10
10
10
10
10
10
10
10
10
10
10
10
10
10
10
10
10
10
10
10
10
10
10
10
10
10
10
10
10
10
10
10
10
10
10
10
10
10
10
10
10
10
10
10
10
10
10
10
10
10
10
10
10
10
10
10
10
10
10
10
10
10
10
10
10
10
10
10
10
10
10
10
10
10
10
10
10
10
10
10
10
10
10
10
10
10
10
10
10
10
10
10
10
10
10
10
10
10
10
10
10
10
10
10
10
10
10
10
10
10
10
10
10
10
10
10
10
10
10
10
10
10
10
10
10
10
10
10
10
10
10
10
10
10
10
10
10
10
10
10
10
10
10
10
10
10
10
10
10
10
10
10
10
10
10
10
10
10
10
10
10
10
10
10
10
10
10
10
10
10
10
10
10
10
10
10
10
10
10
10
10
10
10
10
10
10
10
10
10
10
10
10
10
10
10
10
10
10
10
10
10
10
10
10
10
10
10
10
10
10
10
10
10
10
10
10
10
10
10
10
10
10
10
10
10
10
10
10
10
10
10
10
10
10
10
10
10
10
10
10
10
10
10
10
10
10
10
10
10
10
10
10
10
10
10
10
10
10
10
10
10
10
10
10
10
10
10
10
10
10
10
10
10
10
10
10
10
10
10
10
10
10
10
10
10
10
10
10
10
10
10
10
10
10
10
10
10
10
10
10
10
10
10
10
10
10
10
10
10
10
10
10
10
10
10
10
10
10
10
10
10
10
10
10
10
10
10
10
10
10
10
10
10
10
10
10
10
10
10
10
10
10
10
10
10
10
10
10
10
10
10
10
10
10
10
10
10
10
10
10
10
10
10
10
10
10
10
10
10
10
10
10
10
10
10
10
10
10
10
10
10
10
10
10
10
10
10
10
10
10
10
10
10
10
10
10
10
10
10
10
10
10
10
10
10
10
10
10
10
10
10
10
10
10
10
10
10
10
10
10
10
10
10
10
10
10
10
10
10
10
10
10
10
10
10
10
10
10
10
10
10
10
10
10
10
10
10
10
10
10
10
10
10
10
10
10
10
10
10
10
10
10
10
10
10
10
10
10
10
10
10
10
10
10
10
10
10
10
10
10
10
10
10
10
10
10
10
10
10
10
10
10
10
10
10
10
10
10
10
10
10
10
10
10
10
10
10
10
10
10
10
10
10
10
10
10
10
10
10
10
10
10
10
10
10
10
10
10
10
10
10
10
10
10
10
10
10
10
10
10
10
10
10
10
10
10
10
10
10
10
10
10
10
10
10
10
10
10
10
10
10
10
10
10
10
10
10
10
10
10
10
10
10
10
10
10
10
10
10
10
10
10
10
10
10
10
10
10
10
10
10
10
10
10
10
10
10
10
10
10
10
10
10
10
10
10
10
10
10
10
10
10
10
10
10
10
10
10
10
10
10
10
10
10
10
10
10
10
10
10
10
10
10
10
10
10
10
10
10
10
10
10
10
10
10
10
10
10
10
10
10
10
10
10
10
10
10
10
10
10
10
10
10
10
10
10
10
10
10
10
10
10
10
10
10
10
10
10
10
10
10
10
10
10
10
10
10
10
10
10
10
10
10
10
10
10
10
10
10
10
10
10
10
10
10
10
10
10
10
10
10
10
10
10
10
10
10
10
10
10
10
10
10
10
10
10
10
10
10
10
10
10
10
10
10
10
10
10
10
10
10
10
10
10
10
10
10
10
10
10
10
10
10
10
10
10
10
10
10
10
10
10
10
10
10
10
10
10
10
10
10
10
10
10
10
10
10
10
10
10
10
10
10
10
10
10
10
10
10
10
10
10
10
10
10
10
10
10
10
10
10
10
10
10
10
10
10
10
10
10
10
10
10
10
10
10
10
10
10
10
10
10
10
10
10
10
10
10
10
10
10
10
10
10
10
10
10
10
10
10
10
10
10
10
10
10
10
10
10
10
10
10
10
10
10
10
10
10
10
10
10
10
10
10
10
10
10
10
10
10
10
10
10
10
10
10
10
10
10
10
10
10
10
10
10
10
10
10
10
10
10
10
10
10
10
10
10
10
10
10
10
10
10
10
10
10
10
10
10
10
10
10
10
10
10
10
10
10
10
10
10
10
10
10
10
10
10
10
10
10
10
10
10
10
10
10
10
10
10
10
10
10
10
10
10
10
10
10
10
10
10
10
10
10
10
10
10
10
10
10
10
10
10
10
10
10
10
10
10
10
10
10
10
10
10
10
10
10
10
10
10
10
10
10
10
10
10
10
10
10
10
10
10
10
10
10
10
10
10
10
10
10
10
10
10
10
10
10
10
10
10
10
10
10
10
10
10
10
10
10
10
10
10
10
10
10
10
10
10
10
10
10
10
10
10
10
10
10
10
10
10
10
10
10
10
10
10
10
10
10
10
10
10
10
10
10
10
10
10
10
10
10
10
10
10
10
10
10
10
10
10
10
10
10
10
10
10
10
10
10
10
10
10
10
10
10
10
10
10
10
10
10
10
10
10
10
10
10
10
10
10
10
10
10
10
10
10
10
10
10
10
10
10
10
10
10
10
10
10
10
10
10
10
10
10
10
10
10
10
10
10
10
10
10
10
10
10
10
10
10
10
10
10
10
10
10
10
10
10
10
10
10
10
10
10
10
10
10
10
10
10
10
10
10
10
10
10
10
10
10
10
10
10
10
10
10
10
10
10
10
10
10
10
10
10
10
10
10
10
10
10
10
10
10
10
10
10
10
10
10
10
10
10
10
10
10
10
10
10
10
10
10
10
10
10
10
10
10
10
10
10
10
10
10
10
10
10
10
10
10
10
10
10
10
10
10
10
10
10
10
10
10
10
10
10
10
10
10
10
10
10
10
10
10
10
10
10
10
10
10
10
10
10
10
10
10
10
10
10
