# vtk DataFile Version 2.0
, Created by Gmsh 4.11.1 
ASCII
DATASET UNSTRUCTURED_GRID
POINTS 587 double
8.75 0 -44.40742602607934
17.26367502235105 0 -41.5184967753727
17.26367502235105 0 -38.4815032246273
8.75 0 -35.59257397392065
8.75 0 -3
11.75 0 -3
11.75 0 0
-11.75 0 0
-11.75 0 -3
-8.75 0 -3
-8.75 1.071565949253934e-15 -35.59257397392065
-17.26367502235105 2.114190435764233e-15 -38.4815032246273
-17.26367502235105 2.114190435764233e-15 -41.5184967753727
-8.75 1.071565949253934e-15 -44.40742602607934
-8.75 1.071565949253934e-15 -75.59257397392065
-17.26367502235105 2.114190435764233e-15 -78.4815032246273
-17.26367502235105 2.114190435764233e-15 -81.5184967753727
-8.75 1.071565949253934e-15 -84.40742602607935
-8.75 0 -120
8.75 0 -120
8.75 0 -84.40742602607935
17.26367502235105 0 -81.5184967753727
17.26367502235105 0 -78.4815032246273
8.75 0 -75.59257397392065
-8.75 11.8430447007017 -42.38000299000807
8.75 11.84304470070161 -42.38000299000804
8.75 11.8430447007017 -37.61999700999193
-8.75 11.8430447007017 -37.61999700999193
8.75 20 -3
8.75 20 -34.5534600037336
11.75 23 -3
-11.75 23 -3
-8.75 20 -3
11.75 23 0
-11.75 23 0
-8.75 20 -34.5534600037336
-8.75 20 -45.4465399962664
-8.75 20 -74.55346000373359
-8.75 11.84304470070167 -77.61999700999193
8.75 11.84304470070169 -77.61999700999193
-8.75 11.84304470070171 -82.38000299000807
8.75 11.84304470070171 -82.38000299000807
-8.75 20 -85.4465399962664
-8.75 20 -114.5534600037336
-8.75 5.512262465864165 -120
8.75 5.512262465864165 -120
8.75 20 -85.4465399962664
8.75 20 -114.5534600037336
8.75 20 -45.4465399962664
8.75 20 -74.55346000373359
5.631719735276243 2.70380620564788 -84.40742602607935
-5.631719735276244 2.703806205647879 -84.40742602607935
14.51107418665211 2.70380620564788 -81.5184967753727
-14.51107418665211 2.703806205647883 -81.5184967753727
14.51107418665211 2.70380620564788 -78.4815032246273
5.631719735276243 2.70380620564788 -75.59257397392065
-5.631719735276244 2.703806205647879 -75.59257397392065
-14.51107418665211 2.703806205647883 -78.4815032246273
5.631719735276243 2.70380620564788 -44.40742602607934
-5.631719735276244 2.703806205647879 -44.40742602607934
14.51107418665211 2.70380620564788 -41.5184967753727
-14.51107418665211 2.703806205647883 -41.5184967753727
14.51107418665211 2.70380620564788 -38.4815032246273
5.631719735276243 2.70380620564788 -35.59257397392066
-5.631719735276244 2.703806205647879 -35.59257397392066
-14.51107418665211 2.703806205647883 -38.4815032246273
13.00683751117553 0 -42.96296140072602
13.00683751117552 0 -37.03703859927398
8.75 0 -29.07405917913653
8.75 0 -22.55554438435242
8.75 0 -16.03702958956828
8.75 0 -9.518514794784142
5.875000000000016 0 0
3.730349362740526e-14 0 0
-5.874999999999972 0 0
-8.75 0 -9.518514794784126
-8.75 0 -16.03702958956824
-8.75 0 -22.55554438435238
-8.75 0 -29.07405917913653
-13.00683751117552 1.592878192509083e-15 -37.03703859927398
-13.00683751117553 1.592878192509084e-15 -42.96296140072602
-8.75 0 -50.6444556156476
-8.75 0 -56.88148520521586
-8.75 0 -63.11851479478413
-8.75 0 -69.35554438435241
-13.00683751117552 1.592878192509083e-15 -77.03703859927398
-13.00683751117553 1.592878192509084e-15 -82.96296140072602
-8.75 0 -90.33952168839946
-8.75 0 -96.27161735071957
-8.75 0 -102.2037130130397
-8.75 0 -108.1358086753598
-8.75 0 -114.0679043376799
2.916666666666666 0 -120
-2.916666666666668 0 -120
8.75 0 -90.33952168839946
8.75 0 -96.27161735071957
8.75 0 -102.2037130130397
8.75 0 -108.1358086753598
8.75 0 -114.0679043376799
13.00683751117553 0 -82.96296140072602
13.00683751117552 0 -77.03703859927398
8.75 0 -50.6444556156476
8.75 0 -56.88148520521586
8.75 0 -63.11851479478413
8.75 0 -69.35554438435241
15.94955600907647 6.606522412788771 -41.5184967753727
12.20726167650525 12.20726167650525 -41.5184967753727
6.606522412788755 15.94955600907647 -41.5184967753727
-1.427612838168616e-14 17.26367502235105 -41.5184967753727
-6.606522412788775 15.94955600907647 -41.5184967753727
-12.20726167650525 12.20726167650525 -41.5184967753727
-15.94955600907647 6.60652241278877 -41.5184967753727
-8.75 5.983624480175498 -43.7795687962413
-2.963496875561731 13.05257969104188 -42.83471723964501
2.963496875561773 13.05257969104188 -42.83471723964501
8.75 5.983624480175465 -43.77956879624131
15.94955600907647 6.606522412788771 -38.4815032246273
12.20726167650525 12.20726167650525 -38.4815032246273
6.606522412788755 15.94955600907647 -38.4815032246273
-1.427612838168616e-14 17.26367502235105 -38.4815032246273
-6.606522412788775 15.94955600907647 -38.4815032246273
-12.20726167650525 12.20726167650525 -38.4815032246273
-15.94955600907647 6.60652241278877 -38.4815032246273
8.75 5.983624480175498 -36.2204312037587
2.963496875561739 13.05257969104186 -37.16528276035501
-2.963496875561747 13.05257969104186 -37.16528276035501
-8.75 5.983624480175498 -36.2204312037587
8.75 6.666666666666651 -3
8.75 13.33333333333329 -3
8.75 20 -28.24276800298687
8.75 20 -21.93207600224013
8.75 20 -15.62138400149342
8.75 20 -9.310692000746712
8.75 15.92152235035084 -36.08672850686277
-5.875000000000016 23 -3
-3.730349362740526e-14 23 -3
5.874999999999972 23 -3
-11.75 5.749999999999988 -3
-11.75 11.49999999999999 -3
-11.75 17.24999999999999 -3
-8.75 13.33333333333335 -3
-8.75 6.666666666666705 -3
-2.916666666666666 20 -3
2.916666666666668 20 -3
11.75 5.749999999999988 -3
11.75 11.49999999999999 -3
11.75 17.24999999999999 -3
11.75 5.749999999999988 0
11.75 11.49999999999999 0
11.75 17.24999999999999 0
-5.875000000000016 23 0
-3.730349362740526e-14 23 0
5.874999999999972 23 0
-11.75 5.749999999999988 0
-11.75 11.49999999999999 0
-11.75 17.24999999999999 0
-8.75 20 -9.310692000746727
-8.75 20 -15.62138400149347
-8.75 20 -21.93207600224018
-8.75 20 -28.24276800298689
-8.75 15.92152235035084 -36.08672850686277
-8.75 15.92152235035086 -43.91327149313724
-8.75 20 -68.73207600224015
-8.75 20 -62.91069200074671
-8.75 20 -57.08930799925328
-8.75 20 -51.26792399775984
-8.75 15.92152235035083 -76.08672850686277
-8.75 5.983624480175484 -76.22043120375871
8.75 5.983624480175491 -76.22043120375871
2.963496875561739 13.05257969104186 -77.16528276035501
-2.963496875561747 13.05257969104186 -77.16528276035501
15.94955600907647 6.606522412788771 -78.48150322462732
12.20726167650525 12.20726167650525 -78.48150322462732
6.606522412788755 15.94955600907647 -78.48150322462732
-1.427612838168616e-14 17.26367502235105 -78.48150322462732
-6.606522412788775 15.94955600907647 -78.48150322462732
-12.20726167650525 12.20726167650525 -78.48150322462732
-15.94955600907647 6.60652241278877 -78.48150322462732
15.94955600907647 6.606522412788771 -81.5184967753727
12.20726167650525 12.20726167650525 -81.5184967753727
6.606522412788755 15.94955600907647 -81.5184967753727
-1.427612838168616e-14 17.26367502235105 -81.5184967753727
-6.606522412788775 15.94955600907647 -81.5184967753727
-12.20726167650525 12.20726167650525 -81.5184967753727
-15.94955600907647 6.60652241278877 -81.5184967753727
-8.75 5.983624480175509 -83.77956879624131
-2.963496875561748 13.05257969104188 -82.83471723964502
2.963496875561744 13.05257969104188 -82.83471723964502
8.75 5.98362448017551 -83.77956879624131
-8.75 15.92152235035086 -83.91327149313723
-8.75 20 -108.7320760022401
-8.75 20 -102.9106920007467
-8.75 20 -97.08930799925328
-8.75 20 -91.26792399775984
-8.75 10.34150831057611 -118.1844866679112
-8.75 15.17075415528805 -116.3689733358224
2.916666666666666 5.512262465864165 -120
-2.916666666666668 5.512262465864165 -120
8.75 15.92152235035086 -83.91327149313723
8.75 20 -108.7320760022401
8.75 20 -102.9106920007467
8.75 20 -97.08930799925328
8.75 20 -91.26792399775984
8.75 10.34150831057611 -118.1844866679112
8.75 15.17075415528805 -116.3689733358224
8.75 15.92152235035081 -43.91327149313722
8.75 20 -68.73207600224015
8.75 20 -62.91069200074671
8.75 20 -57.08930799925328
8.75 20 -51.26792399775984
8.75 15.92152235035084 -76.08672850686277
2.916666666666666 20 -45.4465399962664
-2.916666666666668 20 -45.4465399962664
2.916666666666666 20 -34.5534600037336
-2.916666666666668 20 -34.5534600037336
2.916666666666666 20 -74.55346000373359
-2.916666666666668 20 -74.55346000373359
2.916666666666666 20 -85.4465399962664
-2.916666666666668 20 -85.4465399962664
2.916666666666666 20 -114.5534600037336
-2.916666666666668 20 -114.5534600037336
2.284655356378691 5.814394644068293 -84.40742602607935
-2.28465535637871 5.814394644068286 -84.40742602607935
-1.4210854715202e-14 2.70380620564788 -84.40742602607935
10.07894281565832 2.70380620564788 -82.98626493479289
11.78285751105114 8.890787980965857 -81.5184967753727
6.582040354997904 13.2120621711147 -81.5184967753727
-2.531664604586354e-14 14.76082118475192 -81.5184967753727
-6.582040354997947 13.21206217111468 -81.5184967753727
-11.78285751105114 8.890787980965843 -81.5184967753727
-10.07894281565832 2.70380620564788 -82.98626493479289
10.07894281565832 2.70380620564788 -77.01373506520711
-5.329070518200751e-15 2.70380620564788 -75.59257397392065
-10.07894281565832 2.70380620564788 -77.01373506520711
11.78285751105114 8.890787980965857 -78.48150322462732
6.582040354997904 13.2120621711147 -78.48150322462732
-2.531664604586354e-14 14.76082118475192 -78.48150322462732
-6.582040354997947 13.21206217111468 -78.48150322462732
-11.78285751105114 8.890787980965843 -78.48150322462732
2.284655356378691 5.814394644068293 -75.59257397392066
-2.28465535637871 5.814394644068286 -75.59257397392066
2.284655356378691 5.814394644068293 -44.40742602607934
-2.28465535637871 5.814394644068286 -44.40742602607934
-1.4210854715202e-14 2.70380620564788 -44.40742602607934
10.07894281565832 2.70380620564788 -42.98626493479289
11.78285751105114 8.890787980965857 -41.5184967753727
6.582040354997904 13.2120621711147 -41.5184967753727
-2.531664604586354e-14 14.76082118475192 -41.5184967753727
-6.582040354997947 13.21206217111468 -41.5184967753727
-11.78285751105114 8.890787980965843 -41.5184967753727
-10.07894281565832 2.70380620564788 -42.98626493479289
10.07894281565832 2.70380620564788 -37.01373506520711
-5.329070518200751e-15 2.70380620564788 -35.59257397392066
-10.07894281565832 2.70380620564788 -37.01373506520711
11.78285751105114 8.890787980965857 -38.4815032246273
6.582040354997904 13.2120621711147 -38.4815032246273
-2.531664604586354e-14 14.76082118475192 -38.4815032246273
-6.582040354997947 13.21206217111468 -38.4815032246273
-11.78285751105114 8.890787980965843 -38.4815032246273
2.284655356378691 5.814394644068293 -35.59257397392065
-2.28465535637871 5.814394644068286 -35.59257397392065
-4.234833090042316 0 -87.37347385723942
4.102792826306002 0 -72.47405917913653
4.102792826305988 0 -47.52594082086348
2.984706136783568 0 -30.95449720522298
-8.881784197001252e-16 0 -115.60720980571
-3.612654458751313 0 -99.23766518187963
3.56232363321979 0 -60
3.503432993111747 0 -42.042942783219
3.912615318834029 0 -79.15864999727866
-2.817172188267775 0 -4.114445958393169
3.104800592772243 0 -19.29628698696035
3.753849044692696 0 -92.99783222107079
2.449263063852278 0 -105.1697608441997
-3.763531658532572 0 -66.70874816150507
-3.763531658532572 0 -53.29125183849492
-3.104800592772251 0 -12.77777219217619
-2.457636845638699 0 -25.6741059275296
3.715298507194741 0 -5.668959496524906
-3.933291413963592 0 -80.91977244588918
2.043611559707554 0 -85.06063430617856
-2.717758294865029 0 -32.74419584978479
-3.463635897973627 0 -39.57698851581989
-2.126504746772441 0 -74.84564896052768
-2.126504746772444 0 -45.15435103947227
-10.26847872943345 0 -39.92949808596998
-10.30364672293392 0 -80.1532954076482
10.30020070707899 0 -79.85977499954643
9.627928939471978 0 -40
2.531961654279811 0 -65.97947601623081
2.531961654279803 0 -54.02052398376919
-2.630288100292446 0 -59.99999999999999
4.226373976783422 0 -25.51089873664038
-3.45828984085131 0 -19.28896212991039
3.525279825467522 0 -11.98628541131778
-2.542642705296914 0 -93.5920506243601
-3.612654458751359 0 -105.1697608441997
3.121212576845228 0 -98.52893281806912
14.37491390128887 0 -79.99999999999997
14.47743623372007 0 -40
-14.3929182435318 0 -39.99280592713979
-14.37491390128887 0 -80.00000000000003
3.58231224327577 0 -111.4817581780627
-3.149846386822683 0 -110.8609361034773
3.431025281162641 0 -36.8982178785475
4.695989142534291 0 -88.49839862621209
-0.7500515469708562 0 -8.292145610227088
-4.74386313901219 0 -48.65960378517133
-4.743863139012181 0 -71.34039621482866
4.496904120089376 0 -115.7197729106101
-4.49690412008938 0 -115.7197729106101
-5.293639838755559 0 -7.174484764337812
0.1824851082712025 0 -89.68657888933228
-0.3292792897559327 0 -49.80053440616249
-0.3292792897558892 0 -70.19946559383747
12.37578507811445 3.929191570197438 -42.97052334359505
-12.3757849028772 3.929191910556221 -42.97052336532126
11.63154847209478 8.020521643505395 -42.58226362711176
-11.63154842740117 8.020521083094449 -42.5822637475477
-16.93195834758682 3.367975919292255 -39.97005506691337
16.93872827633513 3.333760587959544 -40
-3.367975919292264 16.93195834758682 -39.97005506691337
3.367975919292243 16.93195834758682 -39.97005506691337
-14.35422117775136 9.59118395494226 -39.97005506691337
9.591183954942254 14.35422117775137 -40.02994493308663
-9.562163850196148 14.37356941679239 -40
14.35422117775136 9.591183954942263 -40.02994493308663
-12.37578507812934 3.929191570175683 -37.02947665640752
12.37578490286232 3.929191910577949 -37.02947663467616
11.63154842741654 8.020521083005098 -37.41773625243938
-11.63154847207944 8.02052164359479 -37.41773637290116
8.75 10.62991529283863 -33.10807967452617
8.75 14.80621796252095 -18.94991566356464
8.75 5.057798068161786 -12.81117730961034
8.75 5.372007447158476 -25.58115750125575
8.75 5.332814715330749 -19.27925984724483
8.75 15.23530798137264 -25.11392471129955
8.75 14.87462147421546 -12.57429915489799
8.75 15.9025702691742 -31.08530848384838
8.75 9.998774179580948 -8.497657398515948
8.75 5.019253370286423 -31.09163495451893
8.75 9.987214969345889 -15.77797562636436
8.75 10.16663384432672 -22.05122726017035
8.75 4.471007121107322 -7.474154531920069
8.75 15.64134579742594 -7.276529710832129
8.75 10.2978348232772 -27.70927741201931
10.25 3.10416666666666 -3
-10.25 3.104166666666674 -3
11.75 20.125 -1.5
11.75 14.37499999999999 -1.5
11.75 8.624999999999989 -1.5
11.75 2.874999999999994 -1.5
-2.707174061168084 4.878797530676509 0
3.157610638484556 18.22886740495932 0
7.069955745470663 8.71654637064 0
-6.619519168154191 14.39111856499582 0
7.102873022115112 14.37499999999999 0
0.1126091443291184 11.52691623390895 0
-7.000954855602265 8.644857627020135 0
-2.792058517349995 18.15992185565015 0
2.948495529093417 4.721447277005962 0
-7.528051718759411 18.81262893003678 0
7.528051718759418 4.187371069963204 0
7.820492259183634 19.07601590637069 0
-7.553981076842909 4.160878030182233 0
-11.75 20.125 -1.5
-11.75 14.37499999999999 -1.5
-11.75 8.624999999999988 -1.5
-11.75 2.874999999999994 -1.5
-8.75 12.21834810590713 -33.06353195255507
-8.75 14.80621796252096 -18.94991566356465
-8.75 5.0577980681618 -12.81117730961031
-8.75 4.405133923632164 -26.16374600448685
-8.75 4.871779823855253 -19.36001187698973
-8.75 14.87462147421546 -12.574299154898
-8.75 14.44259141554371 -26.78454452454012
-8.75 9.998774179580989 -8.497657398515932
-8.75 16.63291170064302 -31.78802900193498
-8.75 8.149754794366769 -29.95628148709739
-8.75 9.914683535072086 -16.03702958956824
-8.75 9.431693575831824 -22.87525485770783
-8.75 4.471007121107335 -7.47415453192005
-8.75 15.64134579742596 -7.276529710832131
-8.75 3.477143395998191 -32.12576058748707
-8.75 12.35619512537323 -73.21271167512933
-8.75 10.2452591140399 -48.32020303149851
-8.75 15.04837249563086 -60.07163844669756
-8.75 4.409435229959554 -66.53945450070964
-8.75 5.166316343739087 -53.62774300817179
-8.75 4.950126091588013 -60.02786625148023
-8.75 15.92002877675754 -48.85490337502555
-8.75 14.53522125117735 -67.27827255254893
-8.75 16.63291170064301 -71.78802900193497
-8.75 15.2120648920446 -53.99353977194181
-8.75 8.221144075321586 -70.18731929548827
-8.75 10.07161327850632 -56.88148520521586
-8.75 9.539318737030612 -63.49767270869008
-8.75 4.403696065767654 -48.31542327567095
-8.75 3.444180452390839 -72.28239500250375
-12.37578507812933 3.929191570175688 -77.02947665640754
12.37578490286232 3.929191910577946 -77.02947663467617
-11.63154828546161 8.02052195685809 -77.41773638111208
11.63154842741655 8.020521083005084 -77.4177362524394
-16.93195834758682 3.367975919292263 -79.97005506691339
-14.35422117775136 9.591183954942265 -80.02994493308663
9.591183954942254 14.35422117775137 -79.97005506691339
-9.591183954942261 14.35422117775136 -80.02994493308663
16.93872827633513 3.333760587959544 -80
3.367975919292239 16.93195834758682 -79.97005506691339
-3.367975919292267 16.93195834758682 -80.02994493308664
14.35422117775136 9.591183954942263 -80.02994493308663
-12.37578490287719 3.929191910556247 -82.97052336532126
12.37578507811445 3.929191570197462 -82.97052334359506
11.63154847209476 8.020521643505459 -82.58226362711177
-11.63154842740122 8.02052108309435 -82.58226374754771
-8.75 10.2860359186836 -88.14395254986972
-8.75 15.05197965562202 -105.6827923729239
-8.75 5.137345541248688 -99.23766518187962
-8.75 5.465228651867205 -110.6292320867124
-8.75 15.28342678734323 -93.49746214927791
-8.75 10.59958852493464 -113.355483056207
-8.75 5.137345541248688 -93.30556951955951
-8.75 5.057383964150647 -105.0365582346667
-8.75 14.9888409456913 -99.72090296261442
-8.75 16.29819701127554 -88.45383003726222
-8.75 15.77435215101856 -111.4390140058401
-8.75 6.383717590648422 -115.2474212297021
-8.75 9.847297398777645 -102.2037130130397
-8.75 10.11338202216552 -96.01821089604015
-8.75 9.999823921643749 -107.8739252047667
-8.75 4.348413351243515 -88.12508360159023
-5.833333333333334 2.756131232932083 -120
5.833333333333333 2.756131232932082 -120
0 2.756131232932082 -120
8.75 10.12305247871696 -87.80819634398929
8.75 15.05197965562202 -105.6827923729239
8.75 5.137345541248688 -99.23766518187962
8.75 5.078214734876473 -111.5441920984449
8.75 15.24716127735719 -93.46571294812252
8.75 10.53508620543618 -113.5079763914958
8.75 5.084214383527178 -93.24244365680448
8.75 4.992881644652192 -105.1890515699555
8.75 14.97709789348777 -99.797945211293
8.75 16.258347221285 -88.38032895585506
8.75 15.61866242896987 -111.370479527329
8.75 6.844640589937002 -116.0541214653384
8.75 9.847297398777645 -102.2037130130397
8.75 10.06936149551924 -95.95927939252144
8.75 10.0438819302784 -108.0339538618956
8.75 4.23817826848393 -87.91543130230278
8.75 3.129035480484861 -116.6764477869281
8.75 12.35619512537324 -73.21271167512933
8.75 10.24525911403986 -48.32020303149852
8.75 15.04837249563086 -60.07163844669756
8.75 4.409435229959556 -66.53945450070964
8.75 5.166316343739082 -53.62774300817179
8.75 4.950126091588011 -60.02786625148023
8.75 15.92002877675752 -48.85490337502555
8.75 14.53522125117735 -67.27827255254893
8.75 16.63291170064302 -71.78802900193497
8.75 15.21206489204459 -53.99353977194181
8.75 8.221144075321593 -70.18731929548827
8.75 10.07161327850632 -56.88148520521587
8.75 9.539318737030614 -63.49767270869008
8.75 4.403696065767643 -48.31542327567096
8.75 3.444180452390842 -72.28239500250375
1.06581410364015e-14 16.5297484718382 -44.14192885869548
-4.696930377041188 16.53666572447271 -44.14452934017504
4.696930377041201 16.53666572447272 -44.14452934017504
0 16.52974847183819 -35.85807114130452
-4.696930377041188 16.53666572447271 -35.85547065982496
4.696930377041188 16.53666572447271 -35.85547065982496
0 20 -8.051814855409225
-1.77635683940025e-15 20 -29.50164514832437
3.284780411894104 20 -18.77673000186677
-3.284780411894105 20 -18.77673000186682
-3.205596577977273 20 -12.6893482384287
3.205596577977271 20 -24.8641117653049
3.691607018350247 20 -11.9621104498594
-3.69160701835025 20 -25.5913495538742
4.570458276184658 20 -7.322693601211574
-4.570458276184659 20 -30.23076640252202
4.570458276184661 20 -30.23076640252202
-4.570458276184663 20 -7.322693601211578
8.812499999999986 23 -1.5
2.937499999999966 23 -1.5
-8.812500000000007 23 -1.5
-2.937500000000027 23 -1.499999999999999
-1.97020949006823 20 -59.99999999999999
0 20 -70.23272740472902
3.552713678800501e-15 20 -49.76727259527098
3.977038532392827 20 -59.99999999999999
3.454121900665972 20 -65.62244301080213
-3.693212500503639 20 -53.91569817459425
3.482689526886396 20 -54.35839388249872
-3.843525974271053 20 -65.99709905363856
4.516606334354764 20 -70.32333820896002
-4.516606334354764 20 -70.32333820896002
-4.516606334354753 20 -49.67666179103998
4.516606334354758 20 -49.67666179103996
0 16.52974847183819 -75.85807114130452
4.696930377041189 16.53666572447271 -75.85547065982496
-4.696930377041193 16.53666572447271 -75.85547065982496
0 16.5297484718382 -84.14192885869548
4.696930377041194 16.53666572447272 -84.14452934017503
-4.696930377041198 16.53666572447272 -84.14452934017503
-3.957740511749893 20 -100
3.552713678800501e-15 20 -89.76727259527098
0 20 -110.232727404729
1.934608498321444 20 -100
-3.45531016386596 20 -105.6224430108021
3.841291447124142 20 -105.9970990536386
-3.45531016386596 20 -94.37755698919787
3.841291447124144 20 -94.00290094636142
4.516606334354764 20 -110.32333820896
-4.516606334354753 20 -89.67666179103998
-4.516606334354764 20 -110.32333820896
4.516606334354758 20 -89.67666179103996
-4.861111111111109 12.75613123293208 -117.2767300018668
4.861111111111111 12.75613123293208 -117.2767300018668
-1.77635683940025e-15 15.7836811301049 -116.138548724991
-1.77635683940025e-15 9.728581335759266 -118.4149112787426
-5.055555555555555 16.742113303665 -115.7782344140295
5.055555555555555 16.74211330366501 -115.7782344140295
-5.055555555555557 8.770149162199155 -118.7752255897041
5.055555555555555 8.770149162199155 -118.7752255897041
7.54991829013079 6.640166503155423 -83.11548203824455
-5.572550618684968 7.696682675906487 -83.30288690865044
-1.087439469366124 9.685428901685411 -83.2200700975965
3.498661835108619 9.304912886867553 -83.15402220631029
2.584815384093183 2.70380620564788 -80
-2.623322798017348 2.70380620564788 -80
-11.55815894745262 2.70380620564788 -80
11.55815894745263 2.70380620564788 -80
7.441839275876472 2.70380620564788 -80
-7.446423491819827 2.70380620564788 -80
-13.50601336082932 5.955622985492036 -79.95811192707441
-3.380898908468887 14.36841552221173 -80.04188807292562
9.433224319617063 11.35324275191922 -79.95811192707441
13.50601336082931 5.955622985492041 -79.95811192707441
-9.433224319617086 11.3532427519192 -80.04188807292559
3.416529887692863 14.35998487376371 -80
7.675673420657464 6.406616030131401 -76.86535578118087
-5.572550618686029 7.6966826759072 -76.69711309134999
-0.951038744803117 9.707578337716493 -76.78256607543379
3.667910878144326 9.44521955671132 -76.91095337913359
7.549918290130782 6.640166503155427 -43.11548203824455
-5.572550618684966 7.696682675906486 -43.30288690865043
-1.087439469366138 9.685428901685407 -43.22007009759649
3.498661835108624 9.304912886867555 -43.15402220631027
2.584815384093183 2.70380620564788 -40
-2.623322798017348 2.70380620564788 -40
11.55815894745263 2.70380620564788 -40
-11.55815894745262 2.70380620564788 -40
7.441839275876472 2.70380620564788 -40
-7.446423491819827 2.70380620564788 -40
-13.50601336082932 5.955622985492024 -40.04188807292559
-3.380898908468889 14.36841552221173 -40.0418880729256
-9.433224319617082 11.3532427519192 -39.95811192707441
9.433224319617063 11.35324275191922 -39.95811192707441
3.38089890846884 14.36841552221174 -39.95811192707441
13.52074494992754 5.922102502256283 -40
7.675673420657469 6.406616030131405 -36.86535578118085
-5.572550618686024 7.696682675907208 -36.69711309134998
-0.9510387448031128 9.707578337716495 -36.78256607543378
3.667910878144318 9.445219556711326 -36.91095337913358
-1.643130076445232e-14 8.497643510326034 -52.65726148567158
-1.953992523340276e-14 9.846879562472724 -67.55024160749063
-1.243449787580175e-14 8.27038385975694 -92.46274039508256
-1.554312234475219e-14 9.692152797458142 -28.05644641150549
-0.008135134854857404 11.31224928658306 -108.4882973633338
0.252938209193811 8.731569702431404 -18.95307941953946
1.77635683940025e-15 11.2618783501759 -10.29693231093917
-0.8250703978111575 11.97730963673109 -100.0495582004964
1.010792115715585 12.36140053128501 -59.81483010359183
2.257911316574789 13.81058273991425 -89.70243492072068
2.257280291329149 13.8615706369085 -49.67098069574389
3.259708118326045 5.603268725868183 -114.0281604628378
2.735104382725392 6.529935318427665 -102.2489154445538
-3.065624414627343 7.828161400591016 -112.8229708522232
-2.782308570735821 5.265017382350039 -69.81910344423117
-2.401822974029333 6.185756920214732 -6.509185878199041
2.25002202498853 14.4480507168854 -70.69081646529774
2.525260464047941 6.266920667006837 -62.3740564631081
-2.864852820248259 14.20034843806289 -5.497526688051979
2.157201100910767 14.58113380759702 -30.66874280030263
3.209859529461061 13.57722075521748 -22.13240828733474

CELLS 3185 14019
1 0
1 1
1 2
1 3
1 4
1 5
1 6
1 7
1 8
1 9
1 10
1 11
1 12
1 13
1 14
1 15
1 16
1 17
1 18
1 19
1 20
1 21
1 22
1 23
1 24
1 25
1 26
1 27
1 28
1 29
1 30
1 31
1 32
1 33
1 34
1 35
1 36
1 37
1 38
1 39
1 40
1 41
1 42
1 43
1 44
1 45
1 46
1 47
1 48
1 49
1 50
1 51
1 52
1 53
1 54
1 55
1 56
1 57
1 58
1 59
1 60
1 61
1 62
1 63
1 64
1 65
2 0 66
2 66 1
2 1 2
2 2 67
2 67 3
2 3 68
2 68 69
2 69 70
2 70 71
2 71 4
2 4 5
2 5 6
2 6 72
2 72 73
2 73 74
2 74 7
2 8 7
2 8 9
2 9 75
2 75 76
2 76 77
2 77 78
2 78 10
2 11 79
2 79 10
2 12 11
2 13 80
2 80 12
2 13 81
2 81 82
2 82 83
2 83 84
2 84 14
2 15 85
2 85 14
2 16 15
2 17 86
2 86 16
2 17 87
2 87 88
2 88 89
2 89 90
2 90 91
2 91 18
2 19 92
2 92 93
2 93 18
2 20 94
2 94 95
2 95 96
2 96 97
2 97 98
2 98 19
2 20 99
2 99 21
2 21 22
2 22 100
2 100 23
2 0 101
2 101 102
2 102 103
2 103 104
2 104 23
2 1 105
2 105 106
2 106 107
2 107 108
2 108 109
2 109 110
2 110 111
2 111 12
2 24 112
2 112 13
2 24 113
2 113 114
2 114 25
2 25 115
2 115 0
2 2 116
2 116 117
2 117 118
2 118 119
2 119 120
2 120 121
2 121 122
2 122 11
2 3 123
2 123 26
2 26 124
2 124 125
2 125 27
2 10 126
2 126 27
2 4 127
2 127 128
2 128 28
2 29 129
2 129 130
2 130 131
2 131 132
2 132 28
2 26 133
2 133 29
2 31 134
2 134 135
2 135 136
2 136 30
2 8 137
2 137 138
2 138 139
2 139 31
2 32 140
2 140 141
2 141 9
2 32 142
2 142 143
2 143 28
2 5 144
2 144 145
2 145 146
2 146 30
2 6 147
2 147 148
2 148 149
2 149 33
2 30 33
2 34 150
2 150 151
2 151 152
2 152 33
2 7 153
2 153 154
2 154 155
2 155 34
2 31 34
2 32 156
2 156 157
2 157 158
2 158 159
2 159 35
2 27 160
2 160 35
2 36 161
2 161 24
2 37 162
2 162 163
2 163 164
2 164 165
2 165 36
2 38 166
2 166 37
2 14 167
2 167 38
2 23 168
2 168 39
2 39 169
2 169 170
2 170 38
2 22 171
2 171 172
2 172 173
2 173 174
2 174 175
2 175 176
2 176 177
2 177 15
2 21 178
2 178 179
2 179 180
2 180 181
2 181 182
2 182 183
2 183 184
2 184 16
2 40 185
2 185 17
2 40 186
2 186 187
2 187 41
2 41 188
2 188 20
2 42 189
2 189 40
2 43 190
2 190 191
2 191 192
2 192 193
2 193 42
2 44 194
2 194 195
2 195 43
2 18 44
2 45 196
2 196 197
2 197 44
2 19 45
2 46 198
2 198 41
2 47 199
2 199 200
2 200 201
2 201 202
2 202 46
2 45 203
2 203 204
2 204 47
2 48 205
2 205 25
2 49 206
2 206 207
2 207 208
2 208 209
2 209 48
2 39 210
2 210 49
2 48 211
2 211 212
2 212 36
2 29 213
2 213 214
2 214 35
2 49 215
2 215 216
2 216 37
2 46 217
2 217 218
2 218 42
2 47 219
2 219 220
2 220 43
2 50 221
2 221 222
2 222 51
2 51 223
2 223 50
2 50 224
2 224 52
2 52 225
2 225 226
2 226 227
2 227 228
2 228 229
2 229 53
2 53 230
2 230 51
2 52 54
2 54 231
2 231 55
2 55 232
2 232 56
2 56 233
2 233 57
2 53 57
2 54 234
2 234 235
2 235 236
2 236 237
2 237 238
2 238 57
2 55 239
2 239 240
2 240 56
2 58 241
2 241 242
2 242 59
2 59 243
2 243 58
2 58 244
2 244 60
2 60 245
2 245 246
2 246 247
2 247 248
2 248 249
2 249 61
2 61 250
2 250 59
2 60 62
2 62 251
2 251 63
2 63 252
2 252 64
2 64 253
2 253 65
2 61 65
2 62 254
2 254 255
2 255 256
2 256 257
2 257 258
2 258 65
2 63 259
2 259 260
2 260 64
3 66 288 0
3 0 263 101
3 0 268 263
3 0 288 268
3 2 299 1
3 1 299 66
3 67 299 2
3 3 288 67
3 68 264 3
3 264 304 3
3 3 304 288
3 5 6 4
3 4 6 72
3 4 278 71
3 72 278 4
3 8 9 7
3 7 9 74
3 9 270 74
3 75 311 9
3 9 311 270
3 10 281 78
3 79 285 10
3 10 282 281
3 10 285 282
3 12 300 11
3 11 300 79
3 80 300 12
3 13 285 80
3 81 307 13
3 13 284 282
3 282 285 13
3 13 307 284
3 14 308 84
3 85 286 14
3 279 283 14
3 14 286 279
3 283 308 14
3 16 301 15
3 15 301 85
3 86 301 16
3 17 286 86
3 87 261 17
3 261 279 17
3 279 286 17
3 18 310 91
3 93 310 18
3 19 309 92
3 98 309 19
3 20 305 94
3 99 287 20
3 269 280 20
3 20 287 269
3 280 305 20
3 22 298 21
3 21 298 99
3 100 298 22
3 23 287 100
3 104 262 23
3 262 269 23
3 269 287 23
3 66 299 288
3 288 299 67
3 69 292 68
3 68 292 264
3 70 271 69
3 271 292 69
3 71 294 70
3 70 294 271
3 278 294 71
3 73 278 72
3 74 270 73
3 270 278 73
3 76 276 75
3 276 311 75
3 77 293 76
3 76 293 276
3 78 277 77
3 277 293 77
3 78 281 277
3 79 300 285
3 285 300 80
3 82 275 81
3 275 307 81
3 83 291 82
3 82 291 275
3 84 274 83
3 274 291 83
3 84 308 274
3 85 301 286
3 286 301 86
3 88 295 87
3 87 295 261
3 89 266 88
3 266 295 88
3 90 296 89
3 89 296 266
3 91 303 90
3 90 303 296
3 91 310 303
3 92 265 93
3 92 309 265
3 265 310 93
3 94 272 95
3 94 305 272
3 95 297 96
3 272 297 95
3 96 273 97
3 96 297 273
3 97 302 98
3 273 302 97
3 302 309 98
3 99 298 287
3 287 298 100
3 101 290 102
3 263 290 101
3 102 267 103
3 102 290 267
3 103 289 104
3 267 289 103
3 104 289 262
3 261 280 279
3 261 312 280
3 295 312 261
3 262 283 269
3 262 314 283
3 289 314 262
3 268 284 263
3 284 313 263
3 263 313 290
3 277 281 264
3 264 292 277
3 281 304 264
3 302 303 265
3 265 309 302
3 303 310 265
3 266 296 273
3 273 297 266
3 266 297 295
3 267 291 289
3 290 291 267
3 282 284 268
3 268 304 282
3 288 304 268
3 279 280 269
3 269 283 279
3 270 306 278
3 270 311 306
3 276 293 271
3 271 294 276
3 277 292 271
3 271 293 277
3 295 297 272
3 272 312 295
3 305 312 272
3 296 303 273
3 273 303 302
3 289 291 274
3 274 314 289
3 308 314 274
3 275 291 290
3 290 313 275
3 275 313 307
3 294 306 276
3 306 311 276
3 278 306 294
3 280 312 305
3 282 304 281
3 283 314 308
3 307 313 284
3 0 315 66
3 115 315 0
3 66 315 1
3 1 315 105
3 12 316 80
3 111 316 12
3 80 316 13
3 13 316 112
3 109 24 110
3 113 24 109
3 24 318 110
3 112 318 24
3 106 25 107
3 106 317 25
3 114 107 25
3 25 317 115
3 105 317 106
3 315 317 105
3 108 107 114
3 109 108 113
3 113 108 114
3 110 318 111
3 111 318 316
3 316 318 112
3 115 317 315
3 1 320 2
3 105 320 1
3 2 320 116
3 11 319 12
3 122 319 11
3 12 319 111
3 106 326 105
3 116 320 105
3 105 326 116
3 107 324 106
3 106 324 117
3 117 326 106
3 108 322 107
3 107 322 118
3 118 324 107
3 109 321 108
3 108 321 119
3 119 322 108
3 110 325 109
3 120 321 109
3 109 325 120
3 111 323 110
3 110 323 121
3 121 325 110
3 111 319 122
3 122 323 111
3 116 326 117
3 117 324 118
3 118 322 119
3 119 321 120
3 120 325 121
3 121 323 122
3 2 328 67
3 116 328 2
3 67 328 3
3 3 328 123
3 10 327 79
3 126 327 10
3 79 327 11
3 11 327 122
3 117 118 26
3 26 329 117
3 26 118 124
3 123 329 26
3 120 121 27
3 120 27 125
3 121 330 27
3 27 330 126
3 117 329 116
3 116 329 328
3 124 118 119
3 120 125 119
3 124 119 125
3 122 330 121
3 327 330 122
3 328 329 123
3 126 330 327
3 3 340 68
3 123 340 3
3 71 343 4
3 4 343 127
3 26 331 123
3 133 331 26
3 128 344 28
3 28 344 132
3 129 338 29
3 29 338 133
3 68 334 69
3 68 340 334
3 69 335 70
3 334 335 69
3 70 333 71
3 70 335 333
3 333 343 71
3 331 340 123
3 127 339 128
3 127 343 339
3 339 344 128
3 130 336 129
3 336 338 129
3 131 332 130
3 332 336 130
3 132 337 131
3 131 337 332
3 132 344 337
3 133 338 331
3 338 345 331
3 331 345 340
3 332 342 336
3 337 341 332
3 341 342 332
3 335 341 333
3 333 341 339
3 339 343 333
3 334 342 335
3 340 345 334
3 334 345 342
3 335 342 341
3 336 345 338
3 342 345 336
3 339 341 337
3 337 344 339
3 5 4 346
3 4 127 346
3 144 5 346
3 9 8 347
3 8 137 347
3 141 9 347
3 30 28 136
3 146 28 30
3 128 28 146
3 28 143 136
3 31 134 32
3 31 32 139
3 134 142 32
3 139 32 140
3 128 145 127
3 127 145 144
3 127 144 346
3 145 128 146
3 142 134 135
3 143 135 136
3 143 142 135
3 137 138 141
3 137 141 347
3 138 139 140
3 138 140 141
3 5 351 6
3 144 351 5
3 6 351 147
3 33 348 30
3 30 348 146
3 149 348 33
3 145 350 144
3 144 350 147
3 147 351 144
3 146 349 145
3 145 349 148
3 148 350 145
3 146 348 149
3 149 349 146
3 147 350 148
3 148 349 149
3 6 362 72
3 147 362 6
3 74 364 7
3 7 364 153
3 33 363 149
3 152 363 33
3 34 361 150
3 155 361 34
3 72 360 73
3 72 362 360
3 73 352 74
3 73 360 352
3 352 364 74
3 148 354 147
3 354 362 147
3 149 356 148
3 148 356 354
3 149 363 356
3 150 359 151
3 150 361 359
3 151 353 152
3 151 359 353
3 353 363 152
3 153 358 154
3 153 364 358
3 154 355 155
3 154 358 355
3 355 361 155
3 357 358 352
3 352 360 357
3 358 364 352
3 353 357 356
3 356 363 353
3 353 359 357
3 356 357 354
3 357 360 354
3 360 362 354
3 355 358 357
3 357 359 355
3 359 361 355
3 8 7 368
3 7 153 368
3 137 8 368
3 34 31 365
3 31 139 365
3 155 34 365
3 138 137 367
3 137 153 367
3 153 137 368
3 139 138 366
3 138 154 366
3 154 138 367
3 139 155 365
3 155 139 366
3 153 154 367
3 154 155 366
3 75 9 381
3 9 141 381
3 10 78 383
3 126 10 383
3 27 126 369
3 160 27 369
3 140 32 382
3 32 156 382
3 159 35 377
3 35 160 377
3 76 75 371
3 371 75 381
3 77 76 373
3 76 371 373
3 78 77 372
3 372 77 373
3 78 372 383
3 369 126 378
3 378 126 383
3 141 140 376
3 376 140 382
3 141 376 381
3 156 157 374
3 156 374 382
3 157 158 370
3 157 370 374
3 158 159 375
3 370 158 375
3 375 159 377
3 160 369 377
3 369 375 377
3 375 369 378
3 374 370 379
3 370 375 380
3 379 370 380
3 373 371 379
3 371 376 379
3 376 371 381
3 372 373 380
3 378 372 380
3 372 378 383
3 373 379 380
3 376 374 379
3 374 376 382
3 375 378 380
3 81 13 397
3 13 112 397
3 14 84 398
3 167 14 398
3 112 24 385
3 24 161 385
3 161 36 390
3 36 165 390
3 162 37 392
3 37 166 392
3 166 38 384
3 38 167 384
3 82 81 388
3 388 81 397
3 83 82 389
3 82 388 389
3 84 83 387
3 387 83 389
3 84 387 398
3 112 385 397
3 385 161 390
3 163 162 391
3 391 162 392
3 164 163 386
3 386 163 391
3 165 164 393
3 164 386 393
3 390 165 393
3 166 384 392
3 384 167 394
3 394 167 398
3 384 391 392
3 391 384 394
3 388 385 395
3 385 388 397
3 385 390 393
3 385 393 395
3 386 391 396
3 393 386 395
3 395 386 396
3 387 389 396
3 394 387 396
3 387 394 398
3 389 388 395
3 389 395 396
3 391 394 396
3 14 399 85
3 167 399 14
3 85 399 15
3 15 399 177
3 22 400 100
3 171 400 22
3 100 400 23
3 23 400 168
3 38 401 167
3 175 38 170
3 175 176 38
3 176 401 38
3 168 402 39
3 39 173 169
3 172 173 39
3 39 402 172
3 167 401 399
3 400 402 168
3 169 174 170
3 169 173 174
3 175 170 174
3 172 402 171
3 171 402 400
3 177 401 176
3 399 401 177
3 15 403 16
3 177 403 15
3 16 403 184
3 21 407 22
3 178 407 21
3 22 407 171
3 171 410 172
3 171 407 178
3 178 410 171
3 172 405 173
3 179 405 172
3 172 410 179
3 173 408 174
3 173 405 180
3 180 408 173
3 174 409 175
3 174 408 181
3 181 409 174
3 175 406 176
3 182 406 175
3 175 409 182
3 176 404 177
3 183 404 176
3 176 406 183
3 184 403 177
3 177 404 184
3 179 410 178
3 180 405 179
3 181 408 180
3 182 409 181
3 183 406 182
3 184 404 183
3 16 411 86
3 184 411 16
3 86 411 17
3 17 411 185
3 20 412 99
3 188 412 20
3 99 412 21
3 21 412 178
3 182 40 183
3 186 40 182
3 40 414 183
3 185 414 40
3 179 41 180
3 179 413 41
3 187 180 41
3 41 413 188
3 178 413 179
3 412 413 178
3 181 180 187
3 182 181 186
3 186 181 187
3 183 414 184
3 184 414 411
3 411 414 185
3 188 413 412
3 87 17 430
3 17 185 430
3 44 18 91
3 185 40 415
3 40 189 415
3 189 42 424
3 42 193 424
3 190 43 425
3 43 195 425
3 44 91 426
3 194 44 426
3 88 87 421
3 421 87 430
3 89 88 417
3 417 88 421
3 90 89 422
3 89 417 422
3 91 90 418
3 418 90 422
3 91 418 426
3 185 415 430
3 415 189 424
3 191 190 416
3 416 190 425
3 192 191 423
3 191 416 423
3 193 192 419
3 419 192 423
3 193 419 424
3 195 194 420
3 420 194 426
3 195 420 425
3 419 415 424
3 415 419 428
3 421 415 428
3 415 421 430
3 423 416 427
3 416 425 429
3 427 416 429
3 417 421 428
3 422 417 427
3 427 417 428
3 418 420 426
3 420 418 429
3 418 422 429
3 419 423 428
3 425 420 429
3 422 427 429
3 423 427 428
3 44 431 18
3 18 431 93
3 19 432 45
3 92 432 19
3 197 431 44
3 45 432 196
3 93 433 92
3 196 432 92
3 92 433 196
3 93 431 197
3 197 433 93
3 196 433 197
3 45 450 19
3 19 450 98
3 94 449 20
3 20 449 188
3 188 434 41
3 41 434 198
3 203 445 45
3 445 450 45
3 198 443 46
3 46 443 202
3 199 444 47
3 47 444 204
3 95 440 94
3 440 449 94
3 96 436 95
3 436 440 95
3 97 441 96
3 96 441 436
3 98 437 97
3 437 441 97
3 98 450 437
3 188 449 434
3 434 443 198
3 200 435 199
3 435 444 199
3 201 442 200
3 200 442 435
3 202 438 201
3 438 442 201
3 202 443 438
3 204 439 203
3 439 445 203
3 204 444 439
3 438 443 434
3 434 447 438
3 440 447 434
3 434 449 440
3 442 446 435
3 435 448 444
3 446 448 435
3 436 447 440
3 441 446 436
3 446 447 436
3 437 445 439
3 439 448 437
3 437 448 441
3 437 450 445
3 438 447 442
3 444 448 439
3 441 448 446
3 442 447 446
3 101 464 0
3 0 464 115
3 23 465 104
3 168 465 23
3 115 452 25
3 25 452 205
3 39 451 168
3 210 451 39
3 205 457 48
3 48 457 209
3 206 459 49
3 49 459 210
3 102 455 101
3 455 464 101
3 103 456 102
3 102 456 455
3 104 454 103
3 454 456 103
3 104 465 454
3 115 464 452
3 451 461 168
3 461 465 168
3 452 457 205
3 207 458 206
3 458 459 206
3 208 453 207
3 453 458 207
3 209 460 208
3 208 460 453
3 457 460 209
3 210 459 451
3 451 459 458
3 458 461 451
3 455 462 452
3 452 464 455
3 452 460 457
3 452 462 460
3 453 463 458
3 460 462 453
3 462 463 453
3 454 463 456
3 461 463 454
3 454 465 461
3 456 462 455
3 456 463 462
3 458 463 461
3 113 467 24
3 24 467 161
3 25 468 114
3 205 468 25
3 161 467 36
3 36 467 212
3 48 468 205
3 211 468 48
3 114 466 113
3 466 467 113
3 114 468 466
3 212 466 211
3 466 468 211
3 212 467 466
3 124 471 26
3 26 471 133
3 27 470 125
3 160 470 27
3 133 471 29
3 29 471 213
3 35 470 160
3 214 470 35
3 125 469 124
3 469 471 124
3 125 470 469
3 213 469 214
3 213 471 469
3 469 470 214
3 132 480 28
3 28 480 143
3 29 482 129
3 213 482 29
3 142 483 32
3 32 483 156
3 159 481 35
3 35 481 214
3 129 477 130
3 129 482 477
3 130 474 131
3 130 477 474
3 131 478 132
3 474 478 131
3 478 480 132
3 143 472 142
3 472 483 142
3 143 480 472
3 156 476 157
3 156 483 476
3 157 475 158
3 157 476 475
3 158 479 159
3 475 479 158
3 479 481 159
3 214 473 213
3 473 482 213
3 214 481 473
3 472 478 476
3 476 483 472
3 472 480 478
3 473 479 477
3 477 482 473
3 473 481 479
3 475 476 474
3 474 477 475
3 476 478 474
3 477 479 475
3 30 484 33
3 136 484 30
3 34 486 31
3 31 486 134
3 33 484 152
3 150 486 34
3 134 487 135
3 134 486 150
3 150 487 134
3 135 485 136
3 151 485 135
3 135 487 151
3 152 484 136
3 136 485 152
3 151 487 150
3 152 485 151
3 36 498 165
3 212 498 36
3 162 497 37
3 37 497 216
3 209 499 48
3 48 499 211
3 49 496 206
3 215 496 49
3 163 495 162
3 495 497 162
3 164 488 163
3 488 495 163
3 165 493 164
3 164 493 488
3 165 498 493
3 206 492 207
3 206 496 492
3 207 491 208
3 207 492 491
3 208 494 209
3 491 494 208
3 494 499 209
3 211 490 212
3 211 499 490
3 490 498 212
3 216 489 215
3 489 496 215
3 216 497 489
3 491 492 488
3 488 494 491
3 492 495 488
3 493 494 488
3 489 495 492
3 492 496 489
3 489 497 495
3 490 494 493
3 493 498 490
3 490 499 494
3 37 502 166
3 216 502 37
3 166 502 38
3 38 502 170
3 169 501 39
3 39 501 210
3 210 501 49
3 49 501 215
3 170 500 169
3 500 501 169
3 170 502 500
3 215 500 216
3 215 501 500
3 500 502 216
3 186 505 40
3 40 505 189
3 41 504 187
3 198 504 41
3 189 505 42
3 42 505 218
3 46 504 198
3 217 504 46
3 187 503 186
3 503 505 186
3 187 504 503
3 218 503 217
3 503 504 217
3 218 505 503
3 42 515 193
3 218 515 42
3 190 516 43
3 43 516 220
3 202 517 46
3 46 517 217
3 47 514 199
3 219 514 47
3 191 510 190
3 510 516 190
3 192 506 191
3 506 510 191
3 193 512 192
3 192 512 506
3 193 515 512
3 199 511 200
3 199 514 511
3 200 509 201
3 200 511 509
3 201 513 202
3 509 513 201
3 513 517 202
3 217 507 218
3 217 517 507
3 507 515 218
3 220 508 219
3 508 514 219
3 220 516 508
3 509 510 506
3 506 512 509
3 507 513 512
3 512 515 507
3 507 517 513
3 510 511 508
3 508 516 510
3 511 514 508
3 509 511 510
3 512 513 509
3 43 522 195
3 220 522 43
3 194 524 44
3 44 524 197
3 196 525 45
3 45 525 203
3 204 523 47
3 47 523 219
3 195 518 194
3 518 524 194
3 195 522 518
3 197 521 196
3 521 525 196
3 197 524 521
3 203 519 204
3 203 525 519
3 519 523 204
3 219 520 220
3 219 523 520
3 520 522 220
3 520 521 518
3 518 522 520
3 521 524 518
3 519 521 520
3 520 523 519
3 519 525 521
3 221 223 50
3 223 222 51
3 222 223 221
3 221 50 526
3 50 224 526
3 51 222 527
3 230 51 527
3 52 225 224
3 229 53 230
3 222 221 528
3 221 526 529
3 528 221 529
3 527 222 528
3 224 225 526
3 225 226 526
3 226 227 529
3 526 226 529
3 227 228 528
3 227 528 529
3 228 229 527
3 228 527 528
3 229 230 527
3 223 530 50
3 50 534 224
3 530 534 50
3 51 531 223
3 230 535 51
3 51 535 531
3 52 533 54
3 224 533 52
3 57 532 53
3 53 532 230
3 54 533 231
3 231 534 55
3 55 530 232
3 55 534 530
3 232 531 56
3 56 535 233
3 531 535 56
3 233 532 57
3 223 531 530
3 224 534 533
3 532 535 230
3 533 534 231
3 530 531 232
3 233 535 532
3 52 54 539
3 225 52 539
3 57 53 536
3 53 229 536
3 54 234 539
3 238 57 536
3 226 225 538
3 225 234 538
3 234 225 539
3 227 226 541
3 235 226 538
3 226 235 541
3 228 227 537
3 227 236 537
3 236 227 541
3 229 228 540
3 237 228 537
3 228 237 540
3 229 238 536
3 238 229 540
3 234 235 538
3 235 236 541
3 236 237 537
3 237 238 540
3 54 231 234
3 231 55 542
3 55 239 542
3 56 233 543
3 240 56 543
3 238 233 57
3 234 231 542
3 233 238 543
3 235 234 542
3 236 235 545
3 235 542 545
3 237 236 544
3 544 236 545
3 238 237 543
3 543 237 544
3 239 240 544
3 542 239 545
3 239 544 545
3 240 543 544
3 232 239 55
3 240 232 56
3 240 239 232
3 241 243 58
3 243 242 59
3 242 243 241
3 241 58 546
3 58 244 546
3 59 242 547
3 250 59 547
3 60 245 244
3 249 61 250
3 242 241 548
3 241 546 549
3 548 241 549
3 547 242 548
3 244 245 546
3 245 246 546
3 246 247 549
3 546 246 549
3 247 248 548
3 247 548 549
3 248 249 547
3 248 547 548
3 249 250 547
3 243 550 58
3 58 554 244
3 550 554 58
3 59 551 243
3 250 555 59
3 59 555 551
3 60 552 62
3 244 552 60
3 65 553 61
3 61 553 250
3 62 552 251
3 251 554 63
3 63 550 252
3 63 554 550
3 252 551 64
3 64 555 253
3 551 555 64
3 253 553 65
3 243 551 550
3 244 554 552
3 553 555 250
3 552 554 251
3 550 551 252
3 253 555 553
3 60 62 561
3 245 60 561
3 65 61 556
3 61 249 556
3 62 254 561
3 258 65 556
3 246 245 559
3 245 254 559
3 254 245 561
3 247 246 560
3 255 246 559
3 246 255 560
3 248 247 557
3 247 256 557
3 256 247 560
3 249 248 558
3 257 248 557
3 248 257 558
3 249 258 556
3 258 249 558
3 254 255 559
3 255 256 560
3 256 257 557
3 257 258 558
3 62 251 254
3 251 63 562
3 63 259 562
3 64 253 563
3 260 64 563
3 258 253 65
3 254 251 562
3 253 258 563
3 255 254 562
3 256 255 565
3 255 562 565
3 257 256 564
3 564 256 565
3 258 257 563
3 563 257 564
3 259 260 564
3 562 259 565
3 259 564 565
3 260 563 564
3 252 259 63
3 260 252 64
3 252 260 259
4 126 10 327 253
4 422 427 417 578
4 400 234 54 231
4 328 254 62 251
4 245 60 244 315
4 225 52 224 412
4 296 570 422 578
4 167 14 399 233
4 229 411 230 53
4 316 249 61 250
4 233 238 57 399
4 253 258 65 327
4 24 249 547 248
4 229 228 527 40
4 113 109 24 248
4 186 182 40 228
4 38 543 238 237
4 563 258 27 257
4 114 25 107 246
4 187 41 180 226
4 175 170 38 237
4 120 125 27 257
4 480 344 143 584
4 422 570 427 578
4 422 570 296 579
4 260 378 383 569
4 246 245 546 25
4 526 226 225 41
4 26 124 118 255
4 39 169 173 235
4 242 313 307 566
4 260 383 281 569
4 337 571 572 586
4 389 574 566 583
4 497 392 502 582
4 397 242 307 566
4 128 143 344 584
4 322 246 560 247
4 255 254 26 562
4 235 542 234 39
4 337 332 341 586
4 427 573 417 578
4 252 259 260 569
4 497 391 392 582
4 262 239 461 465
4 337 341 571 586
4 341 337 571 572
4 502 392 384 582
4 387 396 389 583
4 570 573 427 578
4 294 333 571 572
4 461 239 262 567
4 470 481 377 585
4 292 334 569 571
4 274 387 389 583
4 389 566 291 583
4 261 222 312 568
4 343 333 294 572
4 389 396 574 583
4 262 567 239 580
4 128 344 572 584
4 430 222 261 568
4 498 390 393 576
4 243 313 242 566
4 380 571 569 586
4 391 384 392 582
4 429 427 422 570
4 480 572 344 584
4 281 252 260 569
4 449 305 221 568
4 380 569 375 586
4 337 572 474 586
4 294 343 572 581
4 312 221 305 568
4 334 292 335 571
4 387 580 396 583
4 515 424 419 575
4 380 372 569 571
4 390 566 393 576
4 370 571 380 586
4 470 377 369 585
4 465 461 262 454
4 377 569 369 585
4 481 375 377 585
4 422 417 266 578
4 418 422 296 579
4 337 478 474 572
4 370 375 479 586
4 435 570 446 573
4 505 424 515 575
4 373 371 293 571
4 274 580 387 583
4 375 569 479 586
4 380 373 372 571
4 337 474 332 586
4 370 380 375 586
4 467 390 498 576
4 523 519 444 570
4 475 374 370 572
4 243 242 241 566
4 266 296 422 578
4 222 223 312 568
4 372 383 378 569
4 389 395 566 574
4 263 241 464 566
4 441 448 577 578
4 296 570 273 579
4 435 446 442 573
4 313 241 263 566
4 396 567 391 574
4 342 569 334 571
4 273 570 296 578
4 441 448 437 577
4 396 580 567 583
4 391 567 495 574
4 523 444 514 570
4 386 396 391 574
4 527 230 185 51
4 493 566 393 574
4 475 370 571 572
4 566 574 493 576
4 547 250 112 59
4 127 360 354 581
4 243 241 313 566
4 274 389 291 583
4 435 511 570 573
4 379 371 571 572
4 375 569 377 585
4 277 569 372 571
4 520 523 514 570
4 386 391 495 574
4 522 520 516 570
4 384 170 502 582
4 419 424 415 575
4 505 415 424 575
4 444 519 439 570
4 425 522 516 570
4 570 577 448 578
4 341 571 333 572
4 276 571 371 572
4 377 375 369 569
4 343 339 333 572
4 302 441 437 577
4 512 568 419 573
4 369 125 470 585
4 294 278 343 581
4 568 573 512 575
4 415 505 186 575
4 221 223 222 568
4 397 307 275 566
4 385 566 390 576
4 346 351 5 144
4 137 8 347 368
4 297 568 436 578
4 429 570 422 579
4 428 568 417 573
4 335 342 334 571
4 373 277 372 571
4 513 442 438 573
4 374 475 476 572
4 357 128 572 584
4 262 314 289 580
4 446 573 570 578
4 569 571 342 586
4 340 331 259 569
4 523 520 519 570
4 373 293 277 571
4 512 419 568 575
4 384 567 170 582
4 312 305 272 568
4 128 344 339 572
4 430 415 222 568
4 260 564 563 569
4 493 498 393 576
4 567 574 396 583
4 292 569 277 571
4 221 312 223 568
4 276 294 571 572
4 296 273 303 579
4 493 393 566 576
4 307 313 275 566
4 423 416 506 573
4 390 467 385 576
4 570 577 273 579
4 448 446 435 570
4 513 573 438 575
4 186 528 415 575
4 253 563 126 64
4 416 427 570 573
4 369 569 125 585
4 507 503 515 575
4 233 543 167 56
4 440 436 297 568
4 264 259 252 569
4 260 563 378 569
4 498 490 466 576
4 294 306 278 581
4 389 396 395 574
4 520 514 508 570
4 508 516 520 570
4 419 415 568 575
4 113 385 467 576
4 385 393 390 566
4 360 357 354 581
4 444 435 514 570
4 391 567 384 582
4 427 429 416 570
4 262 289 567 580
4 385 242 397 566
4 425 522 570 579
4 497 495 391 582
4 565 259 331 569
4 290 456 267 583
4 544 170 384 567
4 479 475 370 586
4 449 440 305 568
4 236 545 169 544
4 256 565 124 564
4 292 334 264 569
4 528 222 415 568
4 371 276 572 581
4 481 479 375 585
4 480 472 572 584
4 340 264 334 569
4 344 480 478 572
4 505 515 503 575
4 273 577 570 578
4 425 516 416 570
4 197 265 433 577
4 340 259 264 569
4 512 515 419 575
4 442 513 509 573
4 342 345 334 569
4 439 570 519 577
4 529 227 187 528
4 549 247 114 548
4 467 498 466 576
4 319 11 65 122
4 403 15 57 177
4 481 473 479 585
4 385 113 548 576
4 273 441 577 578
4 371 276 293 571
4 567 574 458 582
4 480 143 472 584
4 447 573 568 575
4 59 397 242 307
4 505 503 186 575
4 442 447 438 573
4 113 467 466 576
4 373 379 371 571
4 447 438 573 575
4 221 434 449 568
4 513 512 573 575
4 344 478 337 572
4 436 568 447 578
4 263 464 290 566
4 271 335 292 571
4 461 545 239 567
4 276 294 572 581
4 569 585 479 586
4 386 493 393 574
4 419 568 428 573
4 430 261 295 568
4 242 385 548 566
4 305 440 272 568
4 261 312 295 568
4 22 54 171 407
4 105 60 1 320
4 116 2 62 320
4 178 52 21 407
4 290 566 455 583
4 302 273 441 577
4 418 296 303 579
4 523 514 219 520
4 220 516 522 520
4 528 568 415 575
4 418 429 422 579
4 417 428 421 568
4 272 440 297 568
4 369 564 125 569
4 500 489 497 582
4 313 263 290 566
4 389 395 388 566
4 519 520 521 570
4 481 214 473 469
4 416 570 510 573
4 514 435 511 570
4 242 307 313 243
4 281 264 252 569
4 333 335 271 571
4 216 497 500 489
4 507 218 515 503
4 466 498 212 490
4 439 448 444 570
4 397 275 388 566
4 548 241 242 566
4 340 345 331 569
4 448 446 570 578
4 303 273 577 579
4 241 452 464 566
4 312 222 261 223
4 333 341 335 571
4 170 500 502 582
4 458 567 463 574
4 494 493 574 576
4 393 566 395 574
4 495 567 391 582
4 260 383 64 281
4 53 16 403 184
4 319 61 12 111
4 488 386 495 574
4 290 455 456 583
4 479 569 375 585
4 492 458 574 582
4 474 478 476 572
4 488 493 386 574
4 416 510 506 573
4 543 240 544 580
4 521 519 570 577
4 544 567 384 580
4 475 571 370 586
4 276 306 294 581
4 497 502 500 582
4 423 506 512 573
4 440 447 436 568
4 333 271 294 571
4 125 469 470 585
4 240 239 544 580
4 197 431 310 426
4 266 568 297 578
4 214 481 470 469
4 290 291 566 583
4 510 570 511 573
4 261 430 51 222
4 464 455 290 566
4 537 227 182 409
4 472 478 480 572
4 385 548 566 576
4 416 516 510 570
4 421 430 295 568
4 302 303 273 577
4 528 221 222 568
4 305 221 50 449
4 345 569 342 586
4 493 490 498 576
4 508 219 514 520
4 516 220 508 520
4 528 222 527 415
4 497 489 495 582
4 369 563 564 569
4 444 448 435 570
4 170 567 544 582
4 109 247 321 557
4 216 497 502 500
4 498 467 466 212
4 505 515 218 503
4 544 384 543 580
4 334 345 340 569
4 481 470 469 585
4 439 448 570 577
4 507 515 512 575
4 9 141 347 364
4 339 341 333 572
4 127 4 346 362
4 313 243 263 241
4 416 423 427 573
4 223 312 221 305
4 290 267 291 583
4 394 384 567 580
4 262 55 239 465
4 475 474 476 572
4 423 512 419 573
4 382 374 483 584
4 228 227 182 537
4 248 247 109 557
4 462 455 566 583
4 442 446 447 573
4 369 378 563 569
4 256 557 120 321
4 568 573 447 578
4 481 469 473 585
4 425 416 429 570
4 371 572 376 581
4 331 565 569 585
4 379 376 371 572
4 17 411 86 230
4 461 545 567 582
4 236 175 409 537
4 462 456 455 583
4 275 290 291 566
4 385 547 242 548
4 427 428 417 573
4 23 400 100 231
4 315 0 66 244
4 514 511 508 570
4 543 384 394 580
4 339 344 337 572
4 458 463 453 574
4 295 297 266 568
4 544 239 545 567
4 394 384 391 567
4 492 458 453 574
4 393 395 386 574
4 271 292 277 571
4 241 58 263 464
4 221 434 568 575
4 462 574 566 576
4 259 564 260 569
4 371 76 373 293
4 241 566 548 576
4 90 418 422 296
4 516 508 510 570
4 125 569 564 585
4 221 529 434 575
4 492 453 491 574
4 513 512 509 573
4 241 452 566 576
4 421 415 430 568
4 446 447 573 578
4 295 272 297 568
4 566 574 462 583
4 241 548 549 576
4 387 389 83 274
4 341 339 337 572
4 310 265 197 579
4 434 440 449 568
4 277 292 264 569
4 494 574 460 576
4 310 265 433 197
4 510 511 509 573
4 345 331 569 585
4 380 372 378 569
4 221 568 528 575
4 521 570 520 579
4 327 10 79 253
4 221 528 529 575
4 461 454 463 583
4 543 544 170 384
4 415 428 419 568
4 428 423 419 573
4 510 508 511 570
4 527 222 430 415
4 491 453 494 574
4 521 577 570 579
4 376 379 374 572
4 506 416 423 191
4 396 386 395 574
4 433 196 197 577
4 241 549 452 576
4 237 236 537 175
4 257 256 557 120
4 462 460 574 576
4 495 492 488 574
4 229 230 414 185
4 477 479 473 585
4 277 264 281 569
4 463 574 567 583
4 563 125 369 564
4 564 257 563 125
4 544 237 543 170
4 461 463 567 583
4 250 249 112 318
4 412 20 99 224
4 234 54 539 171
4 61 249 111 556
4 57 238 536 177
4 437 441 302 97
4 458 461 463 567
4 391 396 394 567
4 334 292 69 335
4 452 455 464 566
4 385 397 388 566
4 227 182 409 181
4 256 120 119 321
4 13 316 80 250
4 370 379 380 571
4 399 14 85 233
4 378 369 375 569
4 492 495 489 582
4 388 82 389 275
4 293 271 277 571
4 265 577 197 579
4 251 3 67 328
4 400 234 231 402
4 328 254 251 329
4 244 317 245 315
4 224 413 225 412
4 276 294 271 571
4 572 581 357 584
4 397 385 547 242
4 312 272 295 568
4 488 494 493 574
4 254 62 561 116
4 245 60 105 561
4 259 565 564 569
4 336 585 345 586
4 229 411 414 230
4 316 249 250 318
4 330 253 327 258
4 401 233 399 238
4 244 317 546 245
4 224 413 526 225
4 477 479 585 586
4 506 509 512 573
4 394 567 396 580
4 490 493 494 576
4 239 567 544 580
4 375 380 378 569
4 276 271 293 571
4 373 380 379 571
4 544 567 545 582
4 461 567 458 582
4 563 378 383 260
4 510 509 506 573
4 513 507 512 575
4 439 437 448 577
4 82 291 389 275
4 374 572 476 584
4 175 174 236 409
4 247 109 321 108
4 335 341 342 571
4 374 376 572 584
4 330 253 258 126
4 33 363 152 484
4 259 264 63 340
4 150 34 486 361
4 274 389 83 291
4 461 451 545 582
4 313 290 275 566
4 401 233 238 167
4 56 398 240 543
4 197 426 310 579
4 225 52 178 539
4 53 229 184 536
4 65 258 556 122
4 422 417 89 266
4 234 231 402 542
4 254 251 329 562
4 345 585 569 586
4 70 335 271 333
4 563 383 64 260
4 296 422 89 266
4 460 494 453 574
4 413 224 526 188
4 483 374 476 584
4 374 382 376 584
4 567 580 289 583
4 393 385 395 566
4 474 337 332 131
4 476 478 472 572
4 56 240 398 580
4 368 153 7 364
4 228 528 527 186
4 248 548 547 113
4 186 503 528 575
4 351 362 6 147
4 466 548 113 576
4 28 344 128 143
4 492 491 488 574
4 383 372 78 277
4 33 149 363 348
4 141 376 140 584
4 342 571 341 586
4 447 568 434 575
4 394 396 387 580
4 317 244 546 115
4 435 200 511 442
4 512 506 423 192
4 415 421 428 568
4 34 365 361 155
4 416 506 510 191
4 90 418 296 303
4 141 581 376 584
4 141 140 358 584
4 293 371 76 276
4 432 450 445 577
4 310 426 418 579
4 452 462 566 576
4 518 521 520 579
4 263 290 464 101
4 439 519 525 577
4 255 562 26 565
4 235 542 39 545
4 503 187 528 575
4 125 564 469 585
4 141 358 581 584
4 344 28 480 143
4 466 114 548 576
4 170 544 500 582
4 494 488 491 574
4 487 151 150 359
4 415 527 528 186
4 337 474 478 131
4 274 289 580 583
4 447 440 434 568
4 565 564 569 585
4 87 430 261 295
4 432 445 196 577
4 518 195 420 522
4 270 9 381 311
4 271 294 70 333
4 284 313 307 243
4 472 143 142 584
4 440 95 297 436
4 366 154 355 155
4 262 465 454 104
4 259 562 331 340
4 524 426 197 579
4 281 383 78 277
4 482 338 336 585
4 151 353 485 152
4 273 302 441 97
4 9 141 364 270
4 476 572 472 584
4 462 455 452 566
4 395 385 388 566
4 469 564 124 585
4 428 427 423 573
4 382 156 483 374
4 371 381 75 311
4 544 169 500 582
4 135 485 143 136
4 142 134 487 135
4 547 385 113 548
4 360 278 270 581
4 364 270 141 581
4 448 441 446 578
4 239 542 461 465
4 479 158 375 370
4 455 464 290 101
4 331 124 565 585
4 525 445 439 577
4 55 542 239 465
4 521 525 519 577
4 270 311 381 581
4 297 272 95 440
4 398 240 543 580
4 430 87 421 295
4 59 397 547 242
4 265 309 433 577
4 565 259 562 331
4 9 270 381 141
4 336 338 345 585
4 446 436 447 578
4 142 143 359 584
4 523 519 204 444
4 270 278 306 581
4 196 433 309 577
4 381 141 270 581
4 197 196 521 577
4 509 511 200 442
4 271 69 292 335
4 310 433 93 197
4 309 433 196 92
4 342 341 332 586
4 374 157 475 370
4 381 371 376 581
4 360 362 278 127
4 239 240 232 580
4 354 147 350 148
4 222 430 51 527
4 521 197 577 579
4 548 466 113 114
4 528 186 187 503
4 483 476 472 584
4 303 577 265 579
4 124 331 471 585
4 512 423 419 192
4 358 357 581 584
4 248 247 113 109
4 228 227 186 182
4 310 303 265 579
4 417 421 88 266
4 148 149 349 356
4 461 542 239 545
4 257 256 120 125
4 237 236 175 170
4 291 289 274 583
4 310 418 303 579
4 142 32 483 584
4 195 425 420 522
4 153 367 154 358
4 96 436 441 578
4 127 4 362 278
4 452 460 462 576
4 45 445 432 450
4 266 273 296 578
4 452 546 241 464
4 565 124 564 585
4 492 491 453 207
4 432 309 196 92
4 431 310 93 197
4 144 127 350 145
4 137 138 367 141
4 507 217 503 575
4 32 382 483 584
4 280 312 223 305
4 434 526 221 449
4 345 338 331 585
4 513 509 201 442
4 364 352 270 581
4 356 128 354 357
4 267 456 103 583
4 435 514 199 444
4 519 204 444 439
4 185 17 51 230
4 482 129 336 338
4 136 28 30 484
4 32 31 486 134
4 460 453 462 574
4 463 462 574 583
4 466 490 211 576
4 445 525 196 577
4 488 386 493 164
4 96 297 436 578
4 454 103 456 583
4 386 393 493 164
4 170 500 544 169
4 469 564 125 124
4 58 241 546 464
4 479 477 475 586
4 4 127 343 278
4 303 302 265 577
4 376 581 572 584
4 158 479 475 370
4 386 163 495 391
4 353 359 143 584
4 0 115 58 244
4 360 270 278 73
4 454 289 262 104
4 544 545 169 582
4 453 458 492 207
4 477 482 336 585
4 251 329 562 123
4 477 585 336 586
4 475 476 157 374
4 352 360 270 581
4 478 480 344 132
4 32 140 382 584
4 332 130 336 586
4 305 449 94 440
4 138 366 140 139
4 349 128 146 145
4 457 499 460 576
4 201 513 442 438
4 331 338 471 585
4 352 357 360 581
4 336 345 342 586
4 221 526 50 449
4 478 344 337 132
4 213 473 214 469
4 93 265 433 310
4 265 433 309 92
4 34 365 486 361
4 451 461 458 582
4 309 450 432 577
4 169 545 451 582
4 548 114 549 576
4 504 434 187 575
4 187 529 528 575
4 196 309 432 577
4 364 141 352 581
4 516 425 416 190
4 447 434 438 575
4 365 31 32 139
4 30 28 146 348
4 495 488 163 386
4 358 357 352 581
4 91 418 310 426
4 398 387 84 308
4 267 103 289 583
4 94 272 305 440
4 505 186 40 415
4 289 103 454 583
4 279 531 530 223
4 306 276 311 581
4 114 468 452 576
4 453 463 462 574
4 458 496 459 582
4 274 289 314 580
4 295 88 421 266
4 224 413 412 188
4 329 251 328 123
4 282 252 281 304
4 473 469 213 585
4 445 439 203 525
4 20 188 50 224
4 450 309 98 577
4 431 91 310 426
4 468 457 452 576
4 398 543 394 580
4 168 23 55 231
4 562 259 63 340
4 199 511 514 435
4 244 317 315 115
4 113 24 467 385
4 25 114 468 452
4 434 529 187 575
4 443 434 504 575
4 546 241 549 452
4 524 518 420 579
4 414 230 411 185
4 123 3 63 251
4 71 294 278 343
4 450 98 437 577
4 463 456 462 583
4 549 114 452 576
4 318 250 316 112
4 41 187 504 434
4 112 13 59 250
4 360 352 270 73
4 276 371 75 311
4 294 71 333 343
4 72 362 4 278
4 308 398 387 580
4 194 420 524 518
4 503 217 504 575
4 353 363 356 143
4 231 402 542 168
4 521 524 197 579
4 445 437 439 577
4 273 96 441 578
4 124 26 471 331
4 391 162 497 392
4 353 357 359 584
4 221 526 434 529
4 156 476 483 374
4 499 457 468 576
4 266 297 273 578
4 90 422 89 296
4 267 289 291 583
4 211 468 466 576
4 10 126 64 253
4 331 471 338 133
4 74 270 9 364
4 498 393 390 165
4 360 362 72 278
4 500 215 489 582
4 517 217 507 575
4 510 516 416 190
4 438 443 517 575
4 546 246 25 549
4 526 226 41 529
4 492 496 458 582
4 494 460 499 576
4 519 203 439 525
4 496 458 459 206
4 26 471 331 133
4 490 499 211 576
4 308 387 84 274
4 501 459 496 582
4 33 363 484 348
4 457 499 209 460
4 415 505 424 189
4 402 231 400 168
4 415 40 527 186
4 457 460 452 576
4 463 454 456 583
4 517 443 504 575
4 124 26 565 255
4 169 39 545 235
4 530 280 279 223
4 400 234 171 54
4 328 254 116 62
4 411 229 184 53
4 316 249 111 61
4 105 245 315 60
4 225 412 178 52
4 57 238 177 399
4 65 258 122 327
4 451 458 459 582
4 222 51 261 223
4 40 505 415 189
4 91 44 431 18
4 140 355 358 584
4 330 253 126 327
4 355 357 358 584
4 524 420 426 579
4 303 91 418 310
4 457 468 452 205
4 161 390 467 385
4 513 438 517 575
4 401 233 167 399
4 14 167 56 233
4 96 273 297 578
4 129 336 477 482
4 524 426 420 194
4 542 461 451 545
4 521 518 524 579
4 252 282 551 550
4 63 252 264 259
4 474 130 332 586
4 385 113 24 547
4 191 423 506 192
4 446 441 436 578
4 451 501 169 582
4 452 549 25 114
4 274 308 387 580
4 550 551 243 268
4 418 420 429 579
4 443 198 504 434
4 438 434 443 575
4 41 226 187 529
4 114 549 25 246
4 523 47 514 444
4 477 336 130 586
4 219 508 220 520
4 377 481 159 375
4 451 459 501 582
4 542 168 461 465
4 504 217 517 575
4 504 41 434 198
4 351 4 362 346
4 468 25 452 205
4 24 467 385 161
4 467 390 36 498
4 468 499 48 457
4 513 517 507 575
4 91 44 426 431
4 215 216 500 489
4 507 218 503 217
4 490 212 466 211
4 187 503 504 575
4 9 347 368 364
4 499 468 211 576
4 501 459 49 496
4 502 497 37 392
4 474 475 477 586
4 366 140 139 155
4 64 10 282 281
4 68 63 264 340
4 95 96 297 436
4 466 468 114 576
4 509 200 201 442
4 56 398 308 580
4 376 141 381 581
4 364 74 270 352
4 434 41 187 529
4 483 472 142 584
4 479 159 481 375
4 490 494 499 576
4 497 495 162 391
4 522 43 425 516
4 283 269 232 262
4 458 496 492 206
4 132 337 478 131
4 361 142 359 355
4 124 26 331 565
4 167 398 543 394
4 376 382 140 584
4 18 91 310 431
4 437 445 450 577
4 263 243 58 241
4 433 265 93 92
4 269 280 279 530
4 393 498 493 165
4 383 126 378 563
4 516 522 43 220
4 514 219 47 523
4 314 232 283 580
4 342 332 336 586
4 515 193 419 424
4 471 338 482 585
4 55 239 232 262
4 126 383 64 563
4 113 248 24 547
4 186 40 527 228
4 98 437 302 97
4 443 517 202 438
4 543 56 398 167
4 68 3 63 340
4 123 331 562 340
4 27 257 125 563
4 38 170 543 237
4 310 93 18 431
4 432 19 309 92
4 142 359 355 584
4 125 369 27 563
4 69 68 292 334
4 10 64 383 281
4 95 272 94 440
4 358 352 141 581
4 291 389 83 82
4 35 377 470 481
4 42 515 505 424
4 261 279 280 223
4 196 525 521 577
4 421 87 88 295
4 112 59 397 547
4 71 70 294 333
4 432 309 19 450
4 38 170 384 543
4 190 416 510 191
4 284 59 13 282
4 68 63 3 264
4 46 443 504 517
4 470 27 369 160
4 29 482 471 338
4 13 285 282 555
4 492 489 496 582
4 501 215 500 582
4 550 282 551 268
4 283 56 308 580
4 473 213 482 585
4 398 394 387 580
4 386 488 163 164
4 456 102 267 103
4 441 96 273 97
4 550 304 282 268
4 102 455 290 101
4 479 158 159 375
4 308 314 283 580
4 278 72 360 73
4 502 384 392 166
4 451 459 210 501
4 499 494 209 460
4 473 482 477 585
4 502 38 384 166
4 39 501 451 210
4 515 218 42 505
4 517 504 46 217
4 497 37 216 502
4 49 501 496 215
4 36 467 498 212
4 48 211 499 468
4 76 77 373 293
4 282 252 304 550
4 471 213 469 585
4 206 492 458 207
4 527 430 51 185
4 496 489 215 582
4 71 278 4 343
4 471 469 124 585
4 335 271 69 70
4 169 501 500 582
4 481 470 35 214
4 482 213 29 471
4 383 78 10 281
4 270 306 311 581
4 131 332 474 130
4 282 59 13 555
4 369 160 377 470
4 390 36 498 165
4 138 367 141 358
4 350 127 354 145
4 104 454 289 103
4 58 0 263 464
4 420 194 195 518
4 163 162 495 391
4 476 156 157 374
4 471 482 213 585
4 496 215 501 582
4 193 419 512 515
4 115 58 546 464
4 280 20 50 269
4 513 202 517 438
4 535 14 286 279
4 418 90 91 303
4 123 562 63 340
4 283 14 56 279
4 359 357 355 584
4 204 519 203 439
4 497 162 37 392
4 234 400 171 402
4 254 328 116 329
4 229 411 184 414
4 249 316 111 318
4 245 105 315 317
4 412 225 178 413
4 258 122 327 330
4 238 177 399 401
4 371 75 76 276
4 149 146 349 356
4 470 27 125 369
4 534 269 20 287
4 282 285 10 555
4 499 209 48 457
4 417 88 89 266
4 388 81 82 275
4 6 4 362 351
4 47 199 514 444
4 367 138 154 358
4 354 350 145 148
4 477 130 474 586
4 140 366 355 155
4 7 9 368 364
4 418 426 420 579
4 28 344 480 132
4 188 413 41 526
4 55 168 542 465
4 535 56 14 279
4 252 260 64 281
4 130 336 477 129
4 415 430 527 185
4 143 142 151 135
4 243 284 313 263
4 491 208 453 207
4 51 17 430 261
4 77 78 372 277
4 483 32 156 382
4 496 459 49 206
4 269 20 50 534
4 115 25 546 317
4 309 265 302 577
4 38 170 502 384
4 169 39 501 451
4 169 39 451 545
4 554 304 268 288
4 59 13 397 307
4 49 210 459 501
4 37 502 392 166
4 359 142 151 143
4 284 243 268 263
4 264 281 252 304
4 185 229 40 414
4 128 146 28 363
4 35 377 481 159
4 192 419 512 193
4 546 452 115 464
4 112 24 318 249
4 23 55 269 262
4 387 83 84 274
4 309 19 450 98
4 204 47 523 444
4 451 39 542 545
4 526 434 188 449
4 232 269 55 262
4 397 13 81 307
4 464 0 263 101
4 511 199 200 435
4 188 50 526 449
4 378 126 369 563
4 385 112 397 547
4 486 365 32 361
4 261 280 312 223
4 494 208 209 460
4 517 46 443 202
4 75 381 9 311
4 168 461 451 542
4 282 10 64 555
4 123 3 340 63
4 543 167 394 384
4 139 140 361 155
4 516 43 425 190
4 307 59 13 284
4 308 274 314 580
4 449 20 305 94
4 349 146 128 356
4 515 42 193 424
4 314 283 232 262
4 0 115 464 58
4 445 203 45 525
4 264 63 3 304
4 64 282 551 252
4 279 261 51 223
4 140 361 32 139
4 482 29 129 338
4 305 50 20 449
4 185 17 430 51
4 252 64 282 281
4 243 59 284 551
4 430 17 87 261
4 51 17 261 279
4 546 549 25 452
4 43 425 195 522
4 280 50 20 305
4 126 330 27 258
4 167 38 238 401
4 346 362 351 147
4 368 347 153 364
4 377 160 35 470
4 535 286 17 279
4 164 393 493 165
4 59 282 551 555
4 227 182 181 186
4 108 113 247 109
4 170 174 236 175
4 256 120 125 119
4 338 471 29 133
4 14 56 308 283
4 23 269 534 287
4 432 19 45 450
4 484 363 28 348
4 146 128 356 363
4 157 158 475 370
4 353 359 151 143
4 36 161 390 467
4 457 48 468 205
4 143 363 136 152
4 126 27 369 563
4 229 527 185 40
4 167 543 38 384
4 465 262 23 104
4 531 56 535 279
4 530 50 280 223
4 142 487 150 359
4 9 7 74 364
4 356 149 146 363
4 352 74 270 73
4 26 565 562 331
4 249 24 547 112
4 112 13 397 59
4 304 554 3 288
4 398 84 14 308
4 531 56 283 232
4 58 0 554 268
4 562 26 123 329
4 41 434 526 529
4 264 252 63 304
4 268 0 554 288
4 63 252 550 304
4 513 201 202 438
4 4 6 362 72
4 530 269 50 534
4 151 353 143 485
4 141 364 352 358
4 550 243 58 268
4 530 269 55 232
4 415 527 40 185
4 279 51 531 223
4 262 23 55 465
4 451 39 168 542
4 366 355 154 140
4 151 487 142 359
4 304 63 554 550
4 398 14 56 308
4 143 363 28 136
4 150 134 142 361
4 24 112 385 547
4 355 361 140 155
4 554 3 63 304
4 362 360 354 127
4 20 188 449 50
4 58 0 268 263
4 531 283 56 279
4 282 284 59 551
4 258 563 27 126
4 543 38 238 167
4 150 134 487 142
4 136 485 143 152
4 353 143 485 152
4 535 17 51 279
4 452 25 546 115
4 551 282 64 555
4 128 354 127 145
4 269 50 280 530
4 268 243 58 263
4 269 55 23 534
4 141 140 138 358
4 485 143 151 135
4 487 151 142 135
4 168 39 402 542
4 550 58 554 268
4 142 134 32 361
4 562 26 331 123
4 256 125 564 124
4 544 170 169 236
4 554 304 550 268
4 247 548 113 114
4 186 227 528 187
4 67 299 288 552
4 288 299 66 552
4 168 23 465 55
4 424 505 42 189
4 434 188 41 526
4 143 353 363 152
4 140 154 138 358
4 145 128 354 148
4 426 524 44 194
4 46 443 198 504
4 10 126 383 64
4 150 142 359 361
4 85 301 532 286
4 152 363 28 484
4 533 287 99 298
4 55 269 530 534
4 363 149 28 348
4 531 535 51 279
4 147 127 354 350
4 86 532 301 286
4 100 287 533 298
4 367 153 141 358
4 355 154 140 358
4 150 486 32 361
4 32 486 150 134
4 28 136 152 484
4 17 51 230 535
4 149 146 28 348
4 534 55 23 231
4 0 58 554 244
4 80 285 553 300
4 402 39 172 234
4 329 254 26 117
4 414 229 40 183
4 318 24 110 249
4 317 25 245 106
4 413 179 41 225
4 330 121 27 258
4 38 238 401 176
4 14 167 398 56
4 361 365 32 155
4 139 32 365 155
4 148 349 128 356
4 79 553 285 300
4 147 351 346 144
4 347 153 137 368
4 26 562 254 329
4 234 402 39 542
4 224 526 188 50
4 244 546 115 58
4 148 128 354 356
4 225 41 413 526
4 245 546 25 317
4 253 64 10 555
4 347 141 153 364
4 362 346 127 147
4 365 32 31 486
4 484 28 30 348
4 351 5 4 346
4 347 8 9 368
4 30 33 484 348
4 365 31 34 486
4 532 57 301 85
4 301 53 532 86
4 533 99 52 298
4 54 100 533 298
4 80 553 61 300
4 65 553 79 300
4 534 20 50 224
4 250 13 59 555
4 233 56 14 535
4 286 17 230 535
4 554 63 3 251
4 287 534 23 231
4 118 246 322 107
4 539 171 410 234
4 238 536 177 404
4 556 111 323 249
4 410 178 539 225
4 323 122 556 258
4 184 536 229 404
4 116 561 254 326
4 105 245 561 326
4 147 346 127 144
4 141 153 137 347
4 299 67 62 552
4 299 60 66 552
4 139 361 32 155
4 149 28 146 363
4 20 534 287 224
4 134 150 32 361
4 354 362 127 147
4 244 288 66 552
4 67 288 251 552
4 136 363 28 152
4 286 233 14 535
4 364 141 153 358
4 533 99 287 224
4 7 9 8 368
4 60 244 315 66
4 52 224 412 99
4 231 54 400 100
4 251 62 328 67
4 285 253 10 555
4 4 6 5 351
4 85 532 233 286
4 288 0 554 244
4 256 247 322 560
4 321 557 247 256
4 227 409 537 236
4 236 541 227 408
4 60 244 66 552
4 52 224 99 533
4 251 62 67 552
4 231 54 100 533
4 57 233 399 85
4 65 253 327 79
4 250 61 316 80
4 230 53 411 86
4 65 253 79 553
4 57 233 85 532
4 250 61 80 553
4 230 53 86 532
4 13 250 285 555
4 145 349 128 148
4 287 100 533 231
4 539 52 178 407
4 536 53 403 184
4 366 154 138 140
4 288 66 0 244
4 539 171 54 407
4 122 65 319 556
4 111 319 61 556
4 105 561 60 320
4 116 62 561 320
4 536 403 57 177
4 230 532 86 286
4 553 250 285 80
4 533 287 534 224
4 123 63 562 251
4 86 17 230 286
4 100 287 23 231
4 286 532 233 535
4 178 171 539 407
4 285 253 553 79
4 20 287 99 224
4 54 52 539 407
4 127 147 144 350
4 153 137 367 141
4 111 122 319 556
4 403 536 184 177
4 534 287 533 231
4 105 116 561 320
4 57 53 403 536
4 65 61 319 556
4 233 14 85 286
4 301 57 15 85
4 16 53 301 86
4 54 22 100 298
4 99 21 52 298
4 16 15 301 403
4 79 11 65 300
4 286 230 532 535
4 61 12 80 300
4 62 60 561 320
4 288 554 3 251
4 319 11 12 300
4 407 21 22 298
4 250 553 285 555
4 53 16 301 403
4 301 15 57 403
4 12 61 319 300
4 285 553 253 555
4 120 321 557 109
4 409 175 182 537
4 52 21 407 298
4 407 22 54 298
4 319 65 11 300
4 10 253 285 79
4 285 250 13 80
4 3 67 288 251
4 542 168 55 231
4 251 288 554 552
4 244 554 288 552
4 67 62 2 299
4 66 1 60 299
4 245 254 561 326
4 556 323 258 249
4 536 238 229 404
4 539 410 225 234
4 237 228 540 406
4 561 116 105 326
4 325 248 257 558
4 323 122 111 556
4 536 184 177 404
4 410 178 171 539
4 299 2 1 320
4 301 57 53 403
4 121 110 325 558
4 235 226 405 538
4 246 255 559 324
4 61 65 319 300
4 106 324 559 117
4 405 179 172 538
4 176 406 540 183
4 54 52 407 298
4 62 2 299 320
4 1 60 299 320
4 174 227 181 408
4 108 256 322 119
4 256 108 321 119
4 174 227 409 181
4 227 174 236 408
4 256 108 322 247
4 247 108 321 256
4 409 227 174 236
4 558 121 110 249
4 540 229 176 183
4 172 179 225 538
4 254 106 559 117
4 121 558 258 249
4 540 229 238 176
4 172 225 234 538
4 106 254 559 245
4 323 110 121 249
4 106 254 326 117
4 229 404 176 183
4 172 179 410 225
4 301 53 57 532
4 533 52 54 298
4 258 323 121 249
4 404 238 229 176
4 225 410 172 234
4 326 245 254 106
4 553 65 61 300
4 120 557 248 109
4 537 175 182 228
4 299 60 62 320
4 228 537 175 237
4 248 257 557 120
4 62 60 299 552
4 175 228 406 182
4 107 118 246 324
4 120 248 325 109
4 228 175 406 237
4 257 248 325 120
4 173 405 235 180
4 118 255 246 324
4 405 226 235 180
4 115 0 315 244
4 250 249 547 112
4 3 123 328 251
4 66 60 1 315
4 399 15 57 85
4 53 16 411 86
4 543 238 233 167
4 17 185 411 230
4 230 229 527 185
4 16 53 411 184
4 399 57 15 177
4 228 227 528 186
4 237 544 236 170
4 316 12 61 111
4 563 258 253 126
4 327 65 11 122
4 61 12 316 80
4 327 11 65 79
4 247 246 549 114
4 169 170 174 236
4 62 2 116 328
4 2 62 67 328
4 105 1 60 315
4 113 114 108 247
4 124 125 119 256
4 255 256 565 124
4 548 248 247 113
4 256 257 564 125
4 178 21 52 412
4 186 187 181 227
4 99 52 21 412
4 235 236 545 169
4 529 227 226 187
4 23 168 400 231
4 188 20 412 224
4 54 22 171 400
4 22 54 100 400
4 13 112 316 250
4 572 370 379 374
4 572 379 370 571
4 173 172 235 405
4 173 235 172 39
4 538 235 172 405
4 540 228 183 406
4 182 228 183 40
4 182 183 228 406
4 246 559 106 324
4 246 107 106 25
4 106 107 246 324
4 122 121 258 323
4 258 121 122 330
4 178 179 225 410
4 225 179 178 413
4 105 106 245 326
4 245 106 105 317
4 184 183 229 414
4 229 183 184 404
4 120 121 257 27
4 120 257 121 325
4 558 121 257 325
4 109 110 248 325
4 109 248 110 24
4 558 248 110 325
4 180 179 226 41
4 180 226 179 405
4 538 179 226 405
4 559 255 117 324
4 118 255 117 26
4 118 117 255 324
4 237 540 176 406
4 237 175 176 38
4 176 175 237 406
4 572 127 343 339
4 572 343 127 581
4 177 176 238 404
4 238 176 177 401
4 110 111 249 323
4 249 111 110 318
4 172 171 234 410
4 234 171 172 402
4 116 117 254 329
4 254 117 116 326
4 572 354 581 127
4 572 581 354 357
4 572 586 475 474
4 475 586 572 571
4 578 417 568 573
4 578 568 417 266
4 128 572 354 357
4 579 522 520 518
4 579 520 522 570
4 580 262 232 239
4 580 232 262 314
4 442 511 573 509
4 442 573 511 435
4 356 143 584 353
4 584 143 356 128
4 584 357 356 353
4 356 357 584 128
4 334 264 68 292
4 334 68 264 340
4 579 425 429 570
4 579 429 425 420
4 290 456 102 267
4 102 456 290 455
4 574 582 495 492
4 495 582 574 567
4 389 275 566 388
4 566 275 389 291
4 275 397 81 307
4 275 81 397 388
4 266 421 568 417
4 266 568 421 295
4 383 277 569 372
4 569 277 383 281
4 420 522 579 518
4 579 522 420 425
4 127 278 581 343
4 127 581 278 360
4 277 373 77 293
4 277 77 373 372
4 128 127 572 339
4 128 572 127 354
4 583 461 289 567
4 583 289 461 454
4 262 289 461 567
4 262 461 289 454
4 371 311 581 381
4 581 311 371 276
4 453 494 208 491
4 453 208 494 460
4 98 577 302 437
4 302 577 98 309
4 45 196 445 525
4 45 445 196 432
4 232 530 283 531
4 232 283 530 269
4 279 283 530 531
4 279 530 283 269
4 140 584 142 355
4 142 584 140 32
4 142 361 140 355
4 140 361 142 32
4 551 284 268 282
4 551 268 284 243
4 243 59 307 284
4 243 307 59 242
4 44 197 426 431
4 426 197 44 524
4 232 56 580 240
4 232 580 56 283
4 223 50 305 221
4 223 305 50 280
4 128 363 143 356
4 143 363 128 28
4 228 229 183 40
4 228 183 229 540
4 257 258 121 558
4 257 121 258 27
4 255 118 256 124
4 119 118 256 322
4 119 256 118 124
4 174 236 173 169
4 174 173 236 408
4 235 173 236 169
4 181 227 180 408
4 181 180 227 187
4 226 227 180 187
4 225 226 179 41
4 225 179 226 538
4 234 235 172 538
4 234 172 235 39
4 248 249 110 24
4 248 110 249 558
4 245 246 106 25
4 245 106 246 559
4 237 238 176 540
4 237 176 238 38
4 254 255 117 559
4 254 117 255 26
4 108 247 107 322
4 108 107 247 114
4 246 107 247 322
4 246 247 107 114
4 246 560 118 322
4 246 118 560 255
4 256 118 560 322
4 256 560 118 255
4 227 541 180 408
4 227 180 541 226
4 235 541 180 226
4 236 541 173 235
4 236 173 541 408
4 180 173 541 235
4 180 541 173 408

CELL_TYPES 3185
1
1
1
1
1
1
1
1
1
1
1
1
1
1
1
1
1
1
1
1
1
1
1
1
1
1
1
1
1
1
1
1
1
1
1
1
1
1
1
1
1
1
1
1
1
1
1
1
1
1
1
1
1
1
1
1
1
1
1
1
1
1
1
1
1
1
3
3
3
3
3
3
3
3
3
3
3
3
3
3
3
3
3
3
3
3
3
3
3
3
3
3
3
3
3
3
3
3
3
3
3
3
3
3
3
3
3
3
3
3
3
3
3
3
3
3
3
3
3
3
3
3
3
3
3
3
3
3
3
3
3
3
3
3
3
3
3
3
3
3
3
3
3
3
3
3
3
3
3
3
3
3
3
3
3
3
3
3
3
3
3
3
3
3
3
3
3
3
3
3
3
3
3
3
3
3
3
3
3
3
3
3
3
3
3
3
3
3
3
3
3
3
3
3
3
3
3
3
3
3
3
3
3
3
3
3
3
3
3
3
3
3
3
3
3
3
3
3
3
3
3
3
3
3
3
3
3
3
3
3
3
3
3
3
3
3
3
3
3
3
3
3
3
3
3
3
3
3
3
3
3
3
3
3
3
3
3
3
3
3
3
3
3
3
3
3
3
3
3
3
3
3
3
3
3
3
3
3
3
3
3
3
3
3
3
3
3
3
3
3
3
3
3
3
3
3
3
3
3
3
3
3
3
3
3
3
3
3
3
3
3
3
3
3
3
3
3
3
3
3
3
3
3
3
3
3
3
3
3
3
3
3
3
3
3
3
3
3
3
3
3
3
3
3
3
3
3
3
3
3
3
3
3
3
3
3
3
3
3
3
5
5
5
5
5
5
5
5
5
5
5
5
5
5
5
5
5
5
5
5
5
5
5
5
5
5
5
5
5
5
5
5
5
5
5
5
5
5
5
5
5
5
5
5
5
5
5
5
5
5
5
5
5
5
5
5
5
5
5
5
5
5
5
5
5
5
5
5
5
5
5
5
5
5
5
5
5
5
5
5
5
5
5
5
5
5
5
5
5
5
5
5
5
5
5
5
5
5
5
5
5
5
5
5
5
5
5
5
5
5
5
5
5
5
5
5
5
5
5
5
5
5
5
5
5
5
5
5
5
5
5
5
5
5
5
5
5
5
5
5
5
5
5
5
5
5
5
5
5
5
5
5
5
5
5
5
5
5
5
5
5
5
5
5
5
5
5
5
5
5
5
5
5
5
5
5
5
5
5
5
5
5
5
5
5
5
5
5
5
5
5
5
5
5
5
5
5
5
5
5
5
5
5
5
5
5
5
5
5
5
5
5
5
5
5
5
5
5
5
5
5
5
5
5
5
5
5
5
5
5
5
5
5
5
5
5
5
5
5
5
5
5
5
5
5
5
5
5
5
5
5
5
5
5
5
5
5
5
5
5
5
5
5
5
5
5
5
5
5
5
5
5
5
5
5
5
5
5
5
5
5
5
5
5
5
5
5
5
5
5
5
5
5
5
5
5
5
5
5
5
5
5
5
5
5
5
5
5
5
5
5
5
5
5
5
5
5
5
5
5
5
5
5
5
5
5
5
5
5
5
5
5
5
5
5
5
5
5
5
5
5
5
5
5
5
5
5
5
5
5
5
5
5
5
5
5
5
5
5
5
5
5
5
5
5
5
5
5
5
5
5
5
5
5
5
5
5
5
5
5
5
5
5
5
5
5
5
5
5
5
5
5
5
5
5
5
5
5
5
5
5
5
5
5
5
5
5
5
5
5
5
5
5
5
5
5
5
5
5
5
5
5
5
5
5
5
5
5
5
5
5
5
5
5
5
5
5
5
5
5
5
5
5
5
5
5
5
5
5
5
5
5
5
5
5
5
5
5
5
5
5
5
5
5
5
5
5
5
5
5
5
5
5
5
5
5
5
5
5
5
5
5
5
5
5
5
5
5
5
5
5
5
5
5
5
5
5
5
5
5
5
5
5
5
5
5
5
5
5
5
5
5
5
5
5
5
5
5
5
5
5
5
5
5
5
5
5
5
5
5
5
5
5
5
5
5
5
5
5
5
5
5
5
5
5
5
5
5
5
5
5
5
5
5
5
5
5
5
5
5
5
5
5
5
5
5
5
5
5
5
5
5
5
5
5
5
5
5
5
5
5
5
5
5
5
5
5
5
5
5
5
5
5
5
5
5
5
5
5
5
5
5
5
5
5
5
5
5
5
5
5
5
5
5
5
5
5
5
5
5
5
5
5
5
5
5
5
5
5
5
5
5
5
5
5
5
5
5
5
5
5
5
5
5
5
5
5
5
5
5
5
5
5
5
5
5
5
5
5
5
5
5
5
5
5
5
5
5
5
5
5
5
5
5
5
5
5
5
5
5
5
5
5
5
5
5
5
5
5
5
5
5
5
5
5
5
5
5
5
5
5
5
5
5
5
5
5
5
5
5
5
5
5
5
5
5
5
5
5
5
5
5
5
5
5
5
5
5
5
5
5
5
5
5
5
5
5
5
5
5
5
5
5
5
5
5
5
5
5
5
5
5
5
5
5
5
5
5
5
5
5
5
5
5
5
5
5
5
5
5
5
5
5
5
5
5
5
5
5
5
5
5
5
5
5
5
5
5
5
5
5
5
5
5
5
5
5
5
5
5
5
5
5
5
5
5
5
5
5
5
5
5
5
5
5
5
5
5
5
5
5
5
5
5
5
5
5
5
5
5
5
5
5
5
5
5
5
5
5
5
5
5
5
5
5
5
5
5
5
5
5
5
5
5
5
5
5
5
5
5
5
5
5
5
5
5
5
5
5
5
5
5
5
5
5
5
5
5
5
5
5
5
5
5
5
5
5
5
5
5
5
5
5
5
5
5
5
5
5
5
5
5
5
5
5
5
5
5
5
5
5
5
5
5
5
5
5
5
5
5
5
5
5
5
5
5
5
5
5
5
5
5
5
5
5
5
5
5
5
5
5
5
5
5
5
5
5
5
5
5
5
5
5
5
5
5
5
5
5
5
5
5
5
5
5
5
5
5
5
5
5
5
5
5
5
5
5
5
5
5
5
5
5
5
5
5
5
5
5
5
5
5
5
5
5
5
5
5
5
5
5
5
5
5
5
5
5
5
5
5
5
5
5
5
5
5
5
5
5
5
5
5
5
5
5
5
5
5
5
5
5
5
5
5
5
5
5
5
5
5
5
5
5
5
5
5
5
5
5
5
5
5
5
5
5
5
5
5
5
5
5
5
5
5
5
5
5
5
5
5
5
5
5
5
5
5
5
5
5
5
5
5
5
5
5
5
5
5
5
5
5
5
5
5
5
5
5
5
5
5
5
5
5
5
5
5
5
5
5
5
5
5
5
5
5
5
5
5
5
5
10
10
10
10
10
10
10
10
10
10
10
10
10
10
10
10
10
10
10
10
10
10
10
10
10
10
10
10
10
10
10
10
10
10
10
10
10
10
10
10
10
10
10
10
10
10
10
10
10
10
10
10
10
10
10
10
10
10
10
10
10
10
10
10
10
10
10
10
10
10
10
10
10
10
10
10
10
10
10
10
10
10
10
10
10
10
10
10
10
10
10
10
10
10
10
10
10
10
10
10
10
10
10
10
10
10
10
10
10
10
10
10
10
10
10
10
10
10
10
10
10
10
10
10
10
10
10
10
10
10
10
10
10
10
10
10
10
10
10
10
10
10
10
10
10
10
10
10
10
10
10
10
10
10
10
10
10
10
10
10
10
10
10
10
10
10
10
10
10
10
10
10
10
10
10
10
10
10
10
10
10
10
10
10
10
10
10
10
10
10
10
10
10
10
10
10
10
10
10
10
10
10
10
10
10
10
10
10
10
10
10
10
10
10
10
10
10
10
10
10
10
10
10
10
10
10
10
10
10
10
10
10
10
10
10
10
10
10
10
10
10
10
10
10
10
10
10
10
10
10
10
10
10
10
10
10
10
10
10
10
10
10
10
10
10
10
10
10
10
10
10
10
10
10
10
10
10
10
10
10
10
10
10
10
10
10
10
10
10
10
10
10
10
10
10
10
10
10
10
10
10
10
10
10
10
10
10
10
10
10
10
10
10
10
10
10
10
10
10
10
10
10
10
10
10
10
10
10
10
10
10
10
10
10
10
10
10
10
10
10
10
10
10
10
10
10
10
10
10
10
10
10
10
10
10
10
10
10
10
10
10
10
10
10
10
10
10
10
10
10
10
10
10
10
10
10
10
10
10
10
10
10
10
10
10
10
10
10
10
10
10
10
10
10
10
10
10
10
10
10
10
10
10
10
10
10
10
10
10
10
10
10
10
10
10
10
10
10
10
10
10
10
10
10
10
10
10
10
10
10
10
10
10
10
10
10
10
10
10
10
10
10
10
10
10
10
10
10
10
10
10
10
10
10
10
10
10
10
10
10
10
10
10
10
10
10
10
10
10
10
10
10
10
10
10
10
10
10
10
10
10
10
10
10
10
10
10
10
10
10
10
10
10
10
10
10
10
10
10
10
10
10
10
10
10
10
10
10
10
10
10
10
10
10
10
10
10
10
10
10
10
10
10
10
10
10
10
10
10
10
10
10
10
10
10
10
10
10
10
10
10
10
10
10
10
10
10
10
10
10
10
10
10
10
10
10
10
10
10
10
10
10
10
10
10
10
10
10
10
10
10
10
10
10
10
10
10
10
10
10
10
10
10
10
10
10
10
10
10
10
10
10
10
10
10
10
10
10
10
10
10
10
10
10
10
10
10
10
10
10
10
10
10
10
10
10
10
10
10
10
10
10
10
10
10
10
10
10
10
10
10
10
10
10
10
10
10
10
10
10
10
10
10
10
10
10
10
10
10
10
10
10
10
10
10
10
10
10
10
10
10
10
10
10
10
10
10
10
10
10
10
10
10
10
10
10
10
10
10
10
10
10
10
10
10
10
10
10
10
10
10
10
10
10
10
10
10
10
10
10
10
10
10
10
10
10
10
10
10
10
10
10
10
10
10
10
10
10
10
10
10
10
10
10
10
10
10
10
10
10
10
10
10
10
10
10
10
10
10
10
10
10
10
10
10
10
10
10
10
10
10
10
10
10
10
10
10
10
10
10
10
10
10
10
10
10
10
10
10
10
10
10
10
10
10
10
10
10
10
10
10
10
10
10
10
10
10
10
10
10
10
10
10
10
10
10
10
10
10
10
10
10
10
10
10
10
10
10
10
10
10
10
10
10
10
10
10
10
10
10
10
10
10
10
10
10
10
10
10
10
10
10
10
10
10
10
10
10
10
10
10
10
10
10
10
10
10
10
10
10
10
10
10
10
10
10
10
10
10
10
10
10
10
10
10
10
10
10
10
10
10
10
10
10
10
10
10
10
10
10
10
10
10
10
10
10
10
10
10
10
10
10
10
10
10
10
10
10
10
10
10
10
10
10
10
10
10
10
10
10
10
10
10
10
10
10
10
10
10
10
10
10
10
10
10
10
10
10
10
10
10
10
10
10
10
10
10
10
10
10
10
10
10
10
10
10
10
10
10
10
10
10
10
10
10
10
10
10
10
10
10
10
10
10
10
10
10
10
10
10
10
10
10
10
10
10
10
10
10
10
10
10
10
10
10
10
10
10
10
10
10
10
10
10
10
10
10
10
10
10
10
10
10
10
10
10
10
10
10
10
10
10
10
10
10
10
10
10
10
10
10
10
10
10
10
10
10
10
10
10
10
10
10
10
10
10
10
10
10
10
10
10
10
10
10
10
10
10
10
10
10
10
10
10
10
10
10
10
10
10
10
10
10
10
10
10
10
10
10
10
10
10
10
10
10
10
10
10
10
10
10
10
10
10
10
10
10
10
10
10
10
10
10
10
10
10
10
10
10
10
10
10
10
10
10
10
10
10
10
10
10
10
10
10
10
10
10
10
10
10
10
10
10
10
10
10
10
10
10
10
10
10
10
10
10
10
10
10
10
10
10
10
10
10
10
10
10
10
10
10
10
10
10
10
10
10
10
10
10
10
10
10
10
10
10
10
10
10
10
10
10
10
10
10
10
10
10
10
10
10
10
10
10
10
10
10
10
10
10
10
10
10
10
10
10
10
10
10
10
10
10
10
10
10
10
10
10
10
10
10
10
10
10
10
10
10
10
10
10
10
10
10
10
10
10
10
10
10
10
10
10
10
10
10
10
10
10
10
10
10
10
10
10
10
10
10
10
10
10
10
10
10
10
10
10
10
10
10
10
10
10
10
10
10
10
10
10
10
10
10
10
10
10
10
10
10
10
10
10
10
10
10
10
10
10
10
10
10
10
10
10
10
10
10
10
10
10
10
10
10
10
10
10
10
10
10
10
10
10
10
10
10
10
10
10
10
10
10
10
10
10
10
10
10
10
10
10
10
10
10
10
10
10
10
10
10
10
10
10
10
10
10
10
10
10
10
10
10
10
10
10
10
10
10
10
10
10
10
10
10
10
10
10
10
10
10
10
10
10
10
10
10
10
10
10
10
10
10
10
10
10
10
10
10
10
10
10
10
10
10
10
10
10
10
10
10
10
10
10
10
10
10
10
10
10
10
10
10
10
10
10
10
10
10
10
10
10
10
10
10
10
10
10
10
10
10
10
10
10
10
10
10
10
10
10
10
10
10
10
10
10
10
10
10
10
10
10
10
10
10
10
10
10
10
10
10
10
10
10
10
10
10
10
10
10
10
10
10
10
10
10
10
10
10
10
10
10
10
10
10
10
10
10
10
10
10
10
10
10
10
10
10
10
10
10
10
10
10
10
10
10
10
10
10
10
10
10
10
10
10
10
10
10
10
10
10
10
10
10
10
10
10
10
10
10
10
10
10
10
10
10
10
10
10
10
10
10
10
10
10
10
10
10
10
10
10
10
10
10
10
10
10
10
10
10
10
10
10
10
10
10
10
10
10
10
10
10
10
10
10
10
10
10
10
10
10
10
10
10
10
10
10
10
10
10
10
10
10
10
10
10
10
10
10
10
10
10
10
10
10
10
10
10
10
10
10
10
10
10
10
10
10
10
10
10
10
10
10
10
10
10
10
10
10
10
10
10
10
10
10
10
10
10
10
10
10
10
10
10
10
10
10
10
10
10
10
10
10
10
10
10
10
10
10
10
10
10
10
10
10
10
10
10
10
10
10
10
10
10
10
10
10
10
10
10
10
10
10
10
10
10
10
10
10
10
10
10
10
10
10
10
10
10
10
10
10
10
10
10
10
10
10
10
10
10
