# vtk DataFile Version 2.0
, Created by Gmsh 4.11.1 
ASCII
DATASET UNSTRUCTURED_GRID
POINTS 510 double
8.75 0 -44.37025150740157
9.999345278917962 0 -41.05936716121319
9.999345278917962 0 -38.94063283878681
8.75 0 -35.62974849259843
8.75 0 -3
11.75 0 -3
11.75 0 0
-11.75 0 0
-11.75 0 -3
-8.75 0 -3
-8.75 1.071565949253934e-15 -35.62974849259843
-9.999345278917962 1.224566618939608e-15 -38.94063283878681
-9.999345278917962 1.224566618939608e-15 -41.05936716121319
-8.75 1.071565949253934e-15 -44.37025150740157
-8.75 1.071565949253934e-15 -75.62974849259842
-9.999345278917962 1.224566618939608e-15 -78.94063283878681
-9.999345278917962 1.224566618939608e-15 -81.05936716121319
-8.75 1.071565949253934e-15 -84.37025150740158
-8.75 0 -120
8.75 0 -120
8.75 0 -84.37025150740158
9.999345278917962 0 -81.05936716121319
9.999345278917962 0 -78.94063283878681
8.75 0 -75.62974849259842
8.749999999999998 4.839876652045894 -41.05936716121319
8.749999999999998 4.839876652045894 -38.94063283878681
8.749999999999998 4.839876652045894 -78.94063283878681
8.749999999999998 4.839876652045894 -81.0593671612132
8.75 5.812879127580286 -120
8.75 20 -113.5875356323233
8.75 20 -86.41246436767666
8.75 5.812879127580286 -80
8.75 20 -73.58753563232334
8.75 20 -46.41246436767666
8.75 5.812879127580286 -40
8.75 20 -33.58753563232334
8.75 20 -3
11.75 23 -3
-11.75 23 -3
-8.75 20 -3
11.75 23 0
-11.75 23 0
-8.75 4.83987665204589 -41.05936716121319
-8.75 4.83987665204589 -78.94063283878681
-8.75 4.83987665204589 -81.0593671612132
-8.75 5.812879127580286 -120
-8.75 20 -113.5875356323233
-8.75 20 -86.41246436767666
-8.75 5.812879127580286 -80
-8.75 20 -73.58753563232334
-8.75 20 -46.41246436767666
-8.75 5.812879127580286 -40
-8.75 20 -33.58753563232334
-8.75 4.83987665204589 -38.94063283878681
8.136174915472282 5.812879127580286 -80
5.784108305141595 8.156653549183694 -81.0593671612132
-5.784108305141596 8.156653549183694 -81.0593671612132
-8.136174915472282 5.812879127580286 -80
-5.784108305141647 8.156653549183657 -78.94063283878681
5.784108305141645 8.156653549183661 -78.94063283878681
8.136174915472282 5.812879127580286 -40
5.784108305141631 8.15665354918367 -41.05936716121319
-5.784108305141632 8.15665354918367 -41.05936716121319
-8.136174915472282 5.812879127580286 -40
-5.784108305141647 8.156653549183657 -38.94063283878681
5.784108305141645 8.156653549183661 -38.94063283878681
4.981911295212903 3.862920212896855 -84.37025150740158
-4.981911295212903 3.862920212896855 -84.37025150740158
6.490938473051243 3.862920212896855 -81.05936716121319
-6.490938473051243 3.862920212896855 -81.05936716121319
6.490938473051243 3.862920212896855 -78.94063283878681
4.981911295212903 3.862920212896855 -75.62974849259842
-4.981911295212903 3.862920212896855 -75.62974849259842
-6.490938473051243 3.862920212896855 -78.94063283878681
4.981911295212903 3.862920212896855 -44.37025150740157
-4.981911295212903 3.862920212896855 -44.37025150740157
6.490938473051243 3.862920212896855 -41.05936716121319
-6.490938473051243 3.862920212896855 -41.05936716121319
6.490938473051243 3.862920212896855 -38.94063283878681
4.981911295212903 3.862920212896855 -35.62974849259843
-4.981911295212903 3.862920212896855 -35.62974849259843
-6.490938473051243 3.862920212896855 -38.94063283878681
8.75 0 -29.10379879407875
8.75 0 -22.57784909555905
8.75 0 -16.05189939703937
8.75 0 -9.525949698519717
5.875000000000016 0 0
3.730349362740526e-14 0 0
-5.874999999999972 0 0
-8.75 0 -9.525949698519693
-8.75 0 -16.0518993970394
-8.75 0 -22.57784909555908
-8.75 0 -29.10379879407874
-8.75 0 -50.62215090444094
-8.75 0 -56.87405030148031
-8.75 0 -63.12594969851968
-8.75 0 -69.37784909555906
-8.75 0 -90.30854292283463
-8.75 0 -96.24683433826769
-8.75 0 -102.1851257537008
-8.75 0 -108.1234171691338
-8.75 0 -114.0617085845669
2.916666666666666 0 -120
-2.916666666666668 0 -120
8.75 0 -90.30854292283463
8.75 0 -96.24683433826769
8.75 0 -102.1851257537008
8.75 0 -108.1234171691338
8.75 0 -114.0617085845669
8.75 0 -50.62215090444094
8.75 0 -56.87405030148031
8.75 0 -63.12594969851968
8.75 0 -69.37784909555906
8.749999999999998 2.753705006105705 -43.24904987191159
8.749999999999998 4.839876652045894 -40
8.749999999999998 2.753705006105704 -36.75095012808841
8.749999999999998 2.753705006105704 -76.75095012808841
8.749999999999998 2.753705006105705 -83.24904987191159
8.75 10.54191941838687 -117.8625118774411
8.75 15.27095970919343 -115.7250237548822
8.75 20 -106.7937678161617
8.75 20 -99.99999999999997
8.75 20 -93.20623218383831
8.75 15.27095970919342 -84.27497624511777
8.75 10.54191941838685 -82.13748812255889
8.75 10.54191941838687 -77.86251187744111
8.75 15.27095970919343 -75.72502375488223
8.75 20 -66.79376781616166
8.75 20 -59.99999999999996
8.75 20 -53.20623218383831
8.75 15.27095970919342 -44.27497624511777
8.75 10.54191941838685 -42.13748812255889
8.75 10.54191941838687 -37.86251187744111
8.75 15.27095970919343 -35.72502375488222
8.75 20 -27.47002850585866
8.75 20 -21.35252137939399
8.75 20 -15.23501425292933
8.75 20 -9.117507126464655
8.75 6.666666666666651 -3
8.75 13.33333333333329 -3
-5.875000000000016 23 -3
-3.730349362740526e-14 23 -3
5.874999999999972 23 -3
-11.75 5.749999999999988 -3
-11.75 11.49999999999999 -3
-11.75 17.24999999999999 -3
-8.75 13.33333333333335 -3
-8.75 6.666666666666705 -3
-2.916666666666666 20 -3
2.916666666666668 20 -3
11.75 5.749999999999988 -3
11.75 11.49999999999999 -3
11.75 17.24999999999999 -3
11.75 5.749999999999988 0
11.75 11.49999999999999 0
11.75 17.24999999999999 0
-5.875000000000016 23 0
-3.730349362740526e-14 23 0
5.874999999999972 23 0
-11.75 5.749999999999988 0
-11.75 11.49999999999999 0
-11.75 17.24999999999999 0
-8.750000000000002 2.753705006105703 -43.24904987191159
-8.750000000000002 2.753705006105704 -76.75095012808841
-8.75 4.83987665204589 -80.00000000000001
-8.750000000000002 2.753705006105703 -83.24904987191159
-8.75 10.54191941838687 -117.8625118774411
-8.75 15.27095970919343 -115.7250237548822
-8.75 20 -106.7937678161617
-8.75 20 -99.99999999999997
-8.75 20 -93.20623218383831
-8.75 15.27095970919342 -84.27497624511777
-8.75 10.54191941838685 -82.13748812255889
-8.75 10.54191941838687 -77.86251187744111
-8.75 15.27095970919343 -75.72502375488223
-8.75 20 -66.79376781616166
-8.75 20 -59.99999999999996
-8.75 20 -53.20623218383831
-8.75 15.27095970919342 -44.27497624511777
-8.75 10.54191941838685 -42.13748812255889
-8.75 10.54191941838687 -37.86251187744111
-8.75 15.27095970919343 -35.72502375488222
-8.75 20 -9.117507126464671
-8.75 20 -15.23501425292934
-8.75 20 -21.35252137939401
-8.75 20 -27.47002850585868
-8.750000000000002 2.753705006105704 -36.75095012808841
-8.75 4.83987665204589 -40
2.916666666666666 5.812879127580286 -120
-2.916666666666668 5.812879127580286 -120
2.916666666666666 20 -113.5875356323233
-2.916666666666668 20 -113.5875356323233
2.916666666666666 20 -86.41246436767666
-2.916666666666668 20 -86.41246436767666
1.168292900699539e-14 9.730854520575225 -81.7708933212697
2.916666666666666 20 -73.58753563232334
-2.916666666666668 20 -73.58753563232334
-6.549303978112171e-15 9.730854520575223 -78.2291066787303
2.916666666666666 20 -46.41246436767666
-2.916666666666668 20 -46.41246436767666
1.415678949228961e-15 9.730854520575225 -41.7708933212697
2.916666666666666 20 -33.58753563232334
-2.916666666666668 20 -33.58753563232334
-6.549303978112169e-15 9.730854520575219 -38.2291066787303
1.171378666930138e-14 9.999345278917962 -78.94063283878681
1.39340873412677e-14 9.999345278917962 -81.0593671612132
1.171378666930138e-14 9.999345278917962 -38.94063283878681
1.171378666930138e-14 9.999345278917962 -41.05936716121319
-9.412515005516551e-15 6.304093330890414 -84.37025150740158
-2.664535259100376e-15 3.862920212896855 -84.37025150740158
5.749334076512835 3.862920212896855 -82.72070099894863
2.552104888875895 7.109233113938496 -81.0593671612132
-2.552104888875888 7.109233113938499 -81.0593671612132
-5.749334076512834 3.862920212896855 -82.72070099894864
5.749334076512834 3.862920212896855 -77.27929900105136
-7.993605777301127e-15 3.862920212896855 -75.62974849259842
-5.749334076512835 3.862920212896855 -77.27929900105137
2.552104888875895 7.109233113938496 -78.94063283878681
-2.552104888875888 7.109233113938499 -78.94063283878681
-9.412515005516551e-15 6.304093330890414 -75.62974849259844
-9.412515005516551e-15 6.304093330890414 -44.37025150740157
-2.664535259100376e-15 3.862920212896855 -44.37025150740157
5.749334076512835 3.862920212896855 -42.72070099894863
2.552104888875895 7.109233113938496 -41.05936716121319
-2.552104888875888 7.109233113938499 -41.05936716121319
-5.749334076512834 3.862920212896855 -42.72070099894864
5.749334076512834 3.862920212896855 -37.27929900105136
-7.993605777301127e-15 3.862920212896855 -35.62974849259843
-5.749334076512835 3.862920212896855 -37.27929900105137
2.552104888875895 7.109233113938496 -38.94063283878681
-2.552104888875888 7.109233113938499 -38.94063283878681
-9.412515005516551e-15 6.304093330890414 -35.62974849259843
7.730484882046081 0 -79.992731470148
-7.379736758315459 0 -40.14482095976673
-4.436998857140424 0 -87.22071504027204
-4.510520338853417 0 -47.49620120592126
4.968244105985446 0 -71.79466764549058
2.802701438263368 0 -32.14977034848715
-7.647519897840184 0 -79.98843375521395
3.835900511604274 0 -37.65126049759848
-8.881784197001252e-16 0 -115.6038988673169
-3.607288779159915 0 -99.21598004598421
2.857480431763126 0 -60
-2.81843748802056 0 -4.115698750505224
2.767535423800186 0 -19.38112737087474
4.515477996371953 0 -87.25338187688907
-3.108459837025003 0 -77.28742782006367
4.653058786521715 0 -47.3509347084068
4.218927399125075 0 -105.2193164306633
-3.660775902644992 0 -31.1966881078267
-3.335696300259291 0 -66.25189939703938
-3.098361777262552 0 -12.78892454777954
3.713743293965282 0 -5.672361278839851
-0.227610163040314 0 -25.62068466052094
7.08265641887099 0 -41.84992873293827
-2.907447913042481 0 -53.99184956475939
2.629741316744576 0 -93.57520475113483
3.513324999552372 0 -53.42797499861308
-3.554729113682986 0 -60.01268997093912
3.619365659384266 0 -66.83484840979945
3.469059506578557 0 -12.00708337515861
-3.838257710061087 0 -20.37688483609877
3.607288779159916 0 -99.2159800459842
-1.897296085839275 0 -105.163563599881
-3.758576117802332 0 -92.85020895348202
-3.767521198846024 0 -111.2874673691819
3.471495812724149 0 -110.9125749473964
-2.296247110269492 0 -38.15139125012943
-5.058188901220791 0 -72.50379879407873
0.6116236265838184 0 -43.58602741928777
3.259208131693499 0 -77.18843119348205
0.1200969871625013 0 -82.70359293030775
-4.452196118224729 0 -82.72172635323295
-4.464976116170907 0 -42.74973846850135
4.604860223588926 0 -82.70127220081999
-5.045328755149279 0 -25.77518109881684
4.971109743863852 0 -25.84082394481889
7.416975552348307 0 -38.5178926404805
-0.03722969241461005 0 -71.5430967087149
-0.759100371155804 0 -8.298788388191419
1.332267629550188e-14 0 -89.50802539743293
4.570798933761228 0 -115.8223466454345
-4.586210501135343 0 -115.8418641601048
0.1387795062002048 0 -49.52048008657392
-5.294438899859332 0 -7.179330154787941
9.656354829906364 2.596481736111954 -40
8.749999999999998 9.428918256065487 -86.56303399011337
8.749999999999998 10.59406669261402 -112.9949307929985
8.749999999999998 9.463574540258216 -73.33499934205508
8.749999999999998 9.313822646928147 -47.42174693464378
8.749999999999998 14.65850812544761 -18.60630250674219
8.749999999999998 4.660803527156236 -99.24448697310217
8.749999999999998 9.760691758882743 -32.07399168662864
8.749999999999998 4.82494378508744 -60.08569820291619
8.749999999999998 5.051588457962007 -12.81411640691604
8.749999999999998 14.45996055470178 -103.4481405865228
8.749999999999998 6.107122641045198 -36.33247669571393
8.749999999999998 6.048304552125912 -76.56548216340835
8.749999999999998 5.939164179892921 -43.35388936654579
8.749999999999998 6.031887756474658 -83.39138939348585
8.749999999999998 5.651638222737439 -25.84082394481889
8.749999999999998 14.64703942808371 -56.52033234579309
8.749999999999998 3.800884228715946 -86.92738549623709
8.749999999999998 3.566791872582204 -72.80039941267479
8.749999999999998 3.466151533406311 -46.87843226778307
8.749999999999998 3.223090785652071 -32.43320203610443
8.749999999999998 12.93930786221799 -25.65593377744403
8.749999999999998 7.189930974327137 -66.71583629362799
8.749999999999998 14.67494738495955 -63.43179118697114
8.749999999999998 14.57363540374139 -96.46446321174633
8.749999999999998 5.168814025086307 -19.08379563088703
8.749999999999998 7.138640137974726 -92.92588291477745
8.749999999999998 5.414303699740709 -53.74810060296063
8.749999999999998 5.426871146757433 -110.5105005984483
8.749999999999998 14.99760381614232 -12.42850336919627
8.749999999999998 5.090235687362012 -104.5551715537358
8.749999999999998 10.00873998664779 -8.45335671706151
8.749999999999998 14.40202558449584 -89.97450881887832
8.749999999999998 15.71505727817818 -30.68533399174824
8.749999999999998 15.20520572108483 -49.89198342255729
8.749999999999998 14.43323543478972 -69.93149233767024
8.749999999999998 15.09008074882823 -109.9694829018197
8.749999999999998 5.395956064223101 -115.9049419755758
8.749999999999998 10.0547649956817 -15.42537669579208
8.749999999999998 11.00174491260213 -53.51643266119095
8.749999999999998 4.472876621045319 -7.471247728520694
8.749999999999998 15.66793542722468 -7.199873442544487
8.749999999999998 10.00870740407168 -100.1694451993923
8.749999999999998 10.1884661352894 -107.1825810274926
8.749999999999998 10.06133101353377 -21.04182889455522
8.749999999999998 10.21935992984162 -59.74048101890963
10.25 3.10416666666666 -3
-10.25 3.104166666666674 -3
11.75 20.125 -1.5
11.75 14.37499999999999 -1.5
11.75 8.624999999999989 -1.5
11.75 2.874999999999994 -1.5
3.157610638484555 18.22886740495932 0
-2.707174061168086 4.878797530676509 0
7.069955745470661 8.71654637064 0
-6.619519168154191 14.39111856499582 0
7.10287302211511 14.37499999999999 0
0.1126091443291166 11.52691623390895 0
-7.000954855602266 8.644857627020135 0
-2.792058517349995 18.15992185565015 0
2.948495529093417 4.721447277005962 0
-7.528051718759411 18.81262893003678 0
7.528051718759418 4.187371069963204 0
7.820492259183634 19.07601590637069 0
-7.553981076842906 4.160878030182232 0
-11.75 20.125 -1.5
-11.75 14.37499999999999 -1.5
-11.75 8.624999999999988 -1.5
-11.75 2.874999999999994 -1.5
-8.750000000000002 9.252972079974558 -87.35187916604085
-8.750000000000002 10.59406669261402 -112.9949307929985
-8.750000000000002 9.582466502672331 -72.12852913128324
-8.750000000000002 9.463574540258206 -46.66500065794492
-8.750000000000002 14.8408087575375 -18.63413662620754
-8.750000000000002 5.160260795044116 -98.52710941516193
-8.750000000000002 10.77279520055528 -33.03596088327146
-8.750000000000002 6.204565076050818 -60.03003653114255
-8.750000000000002 5.051588457962023 -12.81411640691606
-8.750000000000002 14.45996055470178 -103.4481405865228
-8.750000000000002 5.723645998362572 -36.1786633164103
-8.750000000000002 5.983938155850288 -76.57115664444206
-8.750000000000002 6.048304552125906 -43.43451783659164
-8.750000000000002 5.924865647707522 -83.33203558353284
-8.750000000000002 5.430746673646665 -25.32435251950836
-8.750000000000002 14.11642448379088 -56.60311609191914
-8.750000000000002 3.417746880927651 -86.75667591821508
-8.750000000000002 3.565391486427172 -73.09486039907137
-8.750000000000002 3.566791872582198 -47.1996005873252
-8.750000000000002 2.985066582904114 -33.68685038553261
-8.750000000000002 7.019388116122188 -52.49044920114413
-8.750000000000002 13.08890262515737 -64.66692799406464
-8.750000000000002 14.86214303126754 -96.49839137116479
-8.750000000000002 5.42163284731898 -19.28503462250344
-8.750000000000002 5.557634431726452 -66.9225617359196
-8.750000000000002 5.426871146757433 -110.5105005984483
-8.750000000000002 15.18500491780016 -24.69933316038838
-8.750000000000002 14.70208342064926 -12.176260689697
-8.750000000000002 5.173478565343325 -104.4356086274124
-8.750000000000002 4.718499858137051 -91.97274809226357
-8.750000000000002 9.99335470991454 -8.440224549240831
-8.750000000000002 15.20816193211038 -89.88612434856115
-8.750000000000002 15.32320932328781 -30.35308910429848
-8.750000000000002 14.73247772211671 -49.79836823198274
-8.750000000000002 15.58846576740463 -70.58035686574303
-8.750000000000002 15.09008074882823 -109.9694829018197
-8.750000000000002 5.395956064223101 -115.9049419755758
-8.750000000000002 9.906713268388645 -94.03937539886536
-8.750000000000002 9.963971998382425 -15.65460366502067
-8.750000000000002 4.470678724369161 -7.469371704546305
-8.750000000000002 10.25877688447729 -21.86635221378253
-8.750000000000002 15.46079286439213 -7.372876867977247
-8.750000000000002 10.16659651728012 -100.1829152882113
-8.750000000000002 10.18302041118499 -107.0920384391892
-8.750000000000002 10.60996494988652 -27.65377922994008
-8.750000000000002 6.447981910052297 -30.77109119648718
-9.656354829906366 2.596481736111952 -40
-9.656354829906366 2.596481736111952 -80
0 2.906439563790142 -120
-5.833333333333332 2.906439563790142 -120
5.833333333333333 2.906439563790142 -120
9.689438448649627 2.470159621734849 -80
4.861111111111111 12.90643956379015 -116.7937678161617
-4.861111111111109 12.90643956379015 -116.7937678161617
0 9.921732554969136 -118.1428313445642
0 15.89114657261115 -115.4447042877592
5.055555555555555 16.81370916911895 -115.0277134246899
5.055555555555555 8.999169958461344 -118.5598222076334
-5.055555555555555 8.999169958461344 -118.5598222076334
-5.055555555555555 16.81370916911894 -115.0277134246899
-0.07733607554965971 20 -91.01345715170567
0.1030787254928054 20 -108.9526906926486
3.939091824846813 20 -104.2889995498631
-2.82216846232738 20 -103.4090324866117
2.971983531423497 20 -96.9043122485279
-3.876809056631146 20 -95.7237303910735
-4.627151280700247 20 -109.2661124520137
4.891767443401257 20 -109.442105864664
4.662262824508101 20 -90.78978606388503
-4.874162359769498 20 -90.55366969239415
-4.852906939745816 12.85969358197133 -83.18510337656018
4.852906939745825 12.85969358197134 -83.18510337656018
0 15.8222944398921 -84.52417510280431
-5.053914721282496 16.79058954621137 -84.96183669196712
5.053914721282498 16.79058954621137 -84.96183669196712
4.852906939745829 12.85969358197133 -76.81489662343982
-4.852906939745829 12.85969358197133 -76.81489662343982
0 15.82229443989207 -75.47582489719569
5.053914721282499 16.79058954621136 -75.03816330803288
-5.053914721282496 16.79058954621136 -75.03816330803288
-0.07733607554965971 20 -51.01345715170567
0.1030787254928054 20 -68.95269069264864
3.939091824846813 20 -64.28899954986312
-2.82216846232738 20 -63.40903248661165
2.9719835314235 20 -56.9043122485279
-3.876809056631146 20 -55.7237303910735
4.891767443401257 20 -69.44210586466401
-4.627151280700247 20 -69.26611245201373
4.662262824508102 20 -50.78978606388504
-4.874162359769498 20 -50.55366969239416
-4.852906939745825 12.85969358197133 -43.18510337656018
4.852906939745829 12.85969358197133 -43.18510337656018
0 15.82229443989208 -44.5241751028043
5.053914721282499 16.79058954621136 -44.96183669196711
-5.053914721282496 16.79058954621136 -44.96183669196711
4.852906939745828 12.85969358197133 -36.81489662343982
-4.85290693974583 12.85969358197133 -36.81489662343982
-1.77635683940025e-15 15.82229443989207 -35.4758248971957
-5.053914721282503 16.79058954621136 -35.03816330803289
5.053914721282498 16.79058954621136 -35.03816330803289
0 20 -28.82126769640528
1.77635683940025e-15 20 -7.766267935918062
3.452083420649263 20 -18.29376781616166
-3.452083420649261 20 -18.29376781616168
2.971332970168595 20 -24.11036384064919
-2.971332970168596 20 -12.47717179167415
3.752032203906886 20 -11.69831615217841
-3.752032203906889 20 -24.88921948014492
4.531442772960663 20 -29.2873676424007
-4.531442772960659 20 -7.300167989922629
4.833739774114711 20 -6.916418242912229
-4.833739774114711 20 -29.67111738941111
8.812499999999986 23 -1.5
2.937499999999966 23 -1.5
-8.812500000000007 23 -1.5
-2.937500000000027 23 -1.5
-4.347836601919462 5.326797934036862 -82.85482084232083
4.347836601919434 5.326797934036883 -82.85482084232083
-4.521161032095301 3.862920212896855 -81.39799101877182
4.521161032095298 3.862920212896855 -78.60200898122818
2.623295275596295 3.862920212896855 -81.41272650220969
-2.613649530115991 3.862920212896855 -78.52930234434062
-4.804039464272848 5.828862638444393 -80.07444486123144
4.80403946427285 5.828862638444392 -79.92555513876859
3.81691530468365e-15 7.553438609808376 -80.07444486123143
4.347836601919438 5.326797934036879 -77.14517915767917
-4.347836601919433 5.326797934036881 -77.14517915767917
-4.347836601919434 5.326797934036882 -42.85482084232083
4.347836601919441 5.326797934036877 -42.85482084232083
4.521161032095298 3.862920212896855 -38.60200898122818
-4.521161032095303 3.862920212896855 -41.39799101877182
2.623295275596295 3.862920212896855 -41.41272650220969
-2.613649530115991 3.862920212896855 -38.52930234434062
4.834087596852108 5.803966913939509 -40
-4.804039464272845 5.828862638444396 -40.07444486123142
0.03902149677587639 7.553337815491457 -40
-4.347836601919457 5.326797934036866 -37.14517915767917
4.347836601919428 5.326797934036886 -37.14517915767917
-0.3132938391327293 10.93692302028194 -52.25544754738002
0.1682669112163284 10.9368292355773 -92.2612469290634
0.9149875364634418 7.820286530328767 -27.07552963208046
0.4683150876669213 10.93708132229671 -67.75434140283751
-3.552713678800501e-15 10.92899810858761 -103.6356840557806
-0.0506515902454634 10.96462599278771 -12.05142973416222
-1.357686236797683 12.21155646823739 -19.77075606068588
-1.678605962600127 8.4902285735051 -110.7548965773859
-0.5218398062727458 7.816853466492812 -60.03515157455025
-2.494160646458387 14.03917797292731 -29.85024374289575
-2.110329535712175 6.755979457744209 -6.775623546789967
2.146639035169616 14.0303024253338 -5.804335277665888
2.835785091520392 5.787229784773955 -50.09639513476187
2.486719697273271 14.15841464034271 -109.8843267231434
-2.766715037322211 5.646272602903263 -69.76385023595708
-2.782541997923879 5.678572038452947 -90.03920709989258
2.919357162193741 5.644119083136213 -113.7975245387159
-2.586108660192406 8.142333315293211 -97.90704218708166

CELLS 2825 12361
1 0
1 1
1 2
1 3
1 4
1 5
1 6
1 7
1 8
1 9
1 10
1 11
1 12
1 13
1 14
1 15
1 16
1 17
1 18
1 19
1 20
1 21
1 22
1 23
1 24
1 25
1 26
1 27
1 28
1 29
1 30
1 31
1 32
1 33
1 34
1 35
1 36
1 37
1 38
1 39
1 40
1 41
1 42
1 43
1 44
1 45
1 46
1 47
1 48
1 49
1 50
1 51
1 52
1 53
1 54
1 55
1 56
1 57
1 58
1 59
1 60
1 61
1 62
1 63
1 64
1 65
1 66
1 67
1 68
1 69
1 70
1 71
1 72
1 73
1 74
1 75
1 76
1 77
1 78
1 79
1 80
1 81
2 0 1
2 1 2
2 2 3
2 3 82
2 82 83
2 83 84
2 84 85
2 85 4
2 4 5
2 5 6
2 6 86
2 86 87
2 87 88
2 88 7
2 8 7
2 8 9
2 9 89
2 89 90
2 90 91
2 91 92
2 92 10
2 11 10
2 12 11
2 13 12
2 13 93
2 93 94
2 94 95
2 95 96
2 96 14
2 15 14
2 16 15
2 17 16
2 17 97
2 97 98
2 98 99
2 99 100
2 100 101
2 101 18
2 19 102
2 102 103
2 103 18
2 20 104
2 104 105
2 105 106
2 106 107
2 107 108
2 108 19
2 20 21
2 21 22
2 22 23
2 0 109
2 109 110
2 110 111
2 111 112
2 112 23
2 1 24
2 24 113
2 113 0
2 24 114
2 114 25
2 2 25
2 3 115
2 115 25
2 23 116
2 116 26
2 26 27
2 27 117
2 117 20
2 19 28
2 28 118
2 118 119
2 119 29
2 29 120
2 120 121
2 121 122
2 122 30
2 30 123
2 123 124
2 124 31
2 31 125
2 125 126
2 126 32
2 32 127
2 127 128
2 128 129
2 129 33
2 33 130
2 130 131
2 131 34
2 34 132
2 132 133
2 133 35
2 35 134
2 134 135
2 135 136
2 136 137
2 137 36
2 4 138
2 138 139
2 139 36
2 38 140
2 140 141
2 141 142
2 142 37
2 8 143
2 143 144
2 144 145
2 145 38
2 39 146
2 146 147
2 147 9
2 39 148
2 148 149
2 149 36
2 5 150
2 150 151
2 151 152
2 152 37
2 6 153
2 153 154
2 154 155
2 155 40
2 37 40
2 41 156
2 156 157
2 157 158
2 158 40
2 7 159
2 159 160
2 160 161
2 161 41
2 38 41
2 42 162
2 162 13
2 14 163
2 163 43
2 44 164
2 164 43
2 44 165
2 165 17
2 18 45
2 45 166
2 166 167
2 167 46
2 46 168
2 168 169
2 169 170
2 170 47
2 47 171
2 171 172
2 172 48
2 48 173
2 173 174
2 174 49
2 49 175
2 175 176
2 176 177
2 177 50
2 50 178
2 178 179
2 179 51
2 51 180
2 180 181
2 181 52
2 39 182
2 182 183
2 183 184
2 184 185
2 185 52
2 10 186
2 186 53
2 42 187
2 187 53
2 53 11
2 42 12
2 43 15
2 44 16
2 28 188
2 188 189
2 189 45
2 21 27
2 22 26
2 29 190
2 190 191
2 191 46
2 30 192
2 192 193
2 193 47
2 31 54
2 54 55
2 55 194
2 194 56
2 56 57
2 57 48
2 32 195
2 195 196
2 196 49
2 57 58
2 58 197
2 197 59
2 59 54
2 33 198
2 198 199
2 199 50
2 34 60
2 60 61
2 61 200
2 200 62
2 62 63
2 63 51
2 35 201
2 201 202
2 202 52
2 63 64
2 64 203
2 203 65
2 65 60
2 59 204
2 204 58
2 55 205
2 205 56
2 65 206
2 206 64
2 61 207
2 207 62
2 66 208
2 208 67
2 67 209
2 209 66
2 66 210
2 210 68
2 68 211
2 211 212
2 212 69
2 69 213
2 213 67
2 68 70
2 70 214
2 214 71
2 71 215
2 215 72
2 72 216
2 216 73
2 69 73
2 70 217
2 217 218
2 218 73
2 71 219
2 219 72
2 74 220
2 220 75
2 75 221
2 221 74
2 74 222
2 222 76
2 76 223
2 223 224
2 224 77
2 77 225
2 225 75
2 76 78
2 78 226
2 226 79
2 79 227
2 227 80
2 80 228
2 228 81
2 77 81
2 78 229
2 229 230
2 230 81
2 79 231
2 231 80
3 1 254 0
3 0 247 109
3 0 254 247
3 2 254 1
3 3 277 2
3 2 277 254
3 82 237 3
3 237 239 3
3 239 277 3
3 6 4 5
3 86 4 6
3 4 252 85
3 86 252 4
3 8 9 7
3 7 9 88
3 9 243 88
3 89 284 9
3 9 284 243
3 11 233 10
3 10 249 92
3 233 267 10
3 10 267 249
3 12 233 11
3 13 233 12
3 93 235 13
3 13 273 233
3 235 273 13
3 15 238 14
3 14 268 96
3 238 246 14
3 246 268 14
3 16 238 15
3 17 238 16
3 97 234 17
3 234 272 17
3 17 272 238
3 18 282 101
3 103 282 18
3 19 281 102
3 108 281 19
3 21 232 20
3 20 245 104
3 232 274 20
3 20 274 245
3 22 232 21
3 23 232 22
3 112 236 23
3 23 270 232
3 236 270 23
3 83 276 82
3 82 276 237
3 84 244 83
3 244 276 83
3 85 260 84
3 84 260 244
3 252 260 85
3 87 252 86
3 88 243 87
3 243 252 87
3 90 251 89
3 251 284 89
3 91 261 90
3 90 261 251
3 92 275 91
3 91 275 261
3 249 275 92
3 94 255 93
3 93 255 235
3 95 258 94
3 94 258 255
3 96 250 95
3 250 258 95
3 96 268 250
3 98 264 97
3 97 264 234
3 99 241 98
3 241 264 98
3 100 263 99
3 99 263 241
3 101 265 100
3 100 265 263
3 101 282 265
3 102 240 103
3 102 281 240
3 240 282 103
3 104 256 105
3 245 256 104
3 105 262 106
3 256 262 105
3 106 248 107
3 106 262 248
3 107 266 108
3 248 266 107
3 266 281 108
3 109 257 110
3 247 257 109
3 110 242 111
3 110 257 242
3 111 259 112
3 242 259 111
3 112 259 236
3 270 274 232
3 233 273 267
3 264 280 234
3 271 272 234
3 234 280 271
3 255 283 235
3 269 273 235
3 235 283 269
3 259 278 236
3 236 278 270
3 237 267 239
3 237 253 249
3 249 267 237
3 237 276 253
3 238 272 246
3 239 269 254
3 254 277 239
3 267 269 239
3 240 266 265
3 265 282 240
3 240 281 266
3 241 262 256
3 256 264 241
3 241 263 262
3 242 258 250
3 250 259 242
3 242 257 255
3 255 258 242
3 243 279 252
3 243 284 279
3 244 260 251
3 251 261 244
3 244 261 253
3 253 276 244
3 245 280 256
3 245 274 271
3 271 280 245
3 246 278 268
3 246 271 270
3 270 278 246
3 246 272 271
3 254 269 247
3 247 283 257
3 269 283 247
3 262 263 248
3 263 266 248
3 253 275 249
3 250 278 259
3 268 278 250
3 260 279 251
3 279 284 251
3 252 279 260
3 261 275 253
3 257 283 255
3 256 280 264
3 265 266 263
3 267 273 269
3 271 274 270
3 0 113 1
3 1 113 24
3 1 285 2
3 24 285 1
3 2 285 25
3 114 285 24
3 25 285 114
3 2 115 3
3 2 25 115
3 109 304 0
3 0 304 113
3 3 305 82
3 115 305 3
3 85 325 4
3 4 325 138
3 28 322 19
3 19 322 108
3 104 302 20
3 20 302 117
3 23 303 112
3 116 303 23
3 114 24 34
3 24 298 34
3 113 298 24
3 114 34 25
3 34 296 25
3 25 296 115
3 27 31 26
3 31 297 26
3 26 297 116
3 27 299 31
3 117 299 27
3 118 322 28
3 29 321 119
3 120 321 29
3 30 317 122
3 123 317 30
3 31 299 124
3 125 297 31
3 32 320 126
3 127 320 32
3 33 319 129
3 130 319 33
3 34 298 131
3 132 296 34
3 35 318 133
3 134 318 35
3 36 326 137
3 139 326 36
3 82 300 83
3 82 305 300
3 83 310 84
3 300 310 83
3 84 294 85
3 84 310 294
3 294 325 85
3 105 311 104
3 104 311 302
3 106 291 105
3 291 311 105
3 107 315 106
3 106 315 291
3 108 313 107
3 313 315 107
3 108 322 313
3 110 312 109
3 109 312 304
3 111 293 110
3 293 312 110
3 112 307 111
3 111 307 293
3 303 307 112
3 113 304 298
3 296 305 115
3 297 303 116
3 117 302 299
3 119 287 118
3 287 322 118
3 119 321 287
3 121 295 120
3 295 321 120
3 122 309 121
3 121 309 295
3 122 317 309
3 124 286 123
3 286 317 123
3 124 299 286
3 126 288 125
3 288 297 125
3 126 320 288
3 128 308 127
3 308 320 127
3 129 301 128
3 301 308 128
3 129 319 301
3 131 289 130
3 289 319 130
3 131 298 289
3 133 292 132
3 292 296 132
3 133 318 292
3 135 306 134
3 306 318 134
3 136 290 135
3 290 306 135
3 137 314 136
3 136 314 290
3 137 326 314
3 138 316 139
3 138 325 316
3 316 326 139
3 299 302 286
3 302 311 286
3 311 317 286
3 313 322 287
3 287 328 313
3 321 328 287
3 288 303 297
3 288 307 303
3 288 320 307
3 298 304 289
3 304 312 289
3 312 324 289
3 289 324 319
3 290 329 306
3 314 323 290
3 323 329 290
3 291 327 311
3 315 327 291
3 292 305 296
3 300 305 292
3 292 306 300
3 292 318 306
3 307 330 293
3 293 330 312
3 310 323 294
3 294 323 316
3 316 325 294
3 309 327 295
3 295 328 321
3 327 328 295
3 306 329 300
3 300 329 310
3 301 330 308
3 319 324 301
3 324 330 301
3 307 320 308
3 308 330 307
3 309 317 311
3 311 327 309
3 310 329 323
3 312 330 324
3 313 328 315
3 316 323 314
3 314 326 316
3 315 328 327
3 5 4 331
3 4 138 331
3 150 5 331
3 9 8 332
3 8 143 332
3 147 9 332
3 36 142 37
3 152 36 37
3 152 139 36
3 36 149 142
3 140 39 38
3 39 145 38
3 140 148 39
3 145 39 146
3 139 151 138
3 151 150 138
3 138 150 331
3 151 139 152
3 141 148 140
3 149 141 142
3 149 148 141
3 143 144 147
3 143 147 332
3 144 145 146
3 144 146 147
3 5 336 6
3 150 336 5
3 6 336 153
3 40 333 37
3 37 333 152
3 155 333 40
3 151 335 150
3 150 335 153
3 153 336 150
3 152 334 151
3 151 334 154
3 154 335 151
3 152 333 155
3 155 334 152
3 153 335 154
3 154 334 155
3 6 347 86
3 153 347 6
3 88 349 7
3 7 349 159
3 40 348 155
3 158 348 40
3 41 346 156
3 161 346 41
3 86 345 87
3 86 347 345
3 87 338 88
3 87 345 338
3 338 349 88
3 154 339 153
3 339 347 153
3 155 341 154
3 154 341 339
3 155 348 341
3 156 344 157
3 156 346 344
3 157 337 158
3 157 344 337
3 337 348 158
3 159 343 160
3 159 349 343
3 160 340 161
3 160 343 340
3 340 346 161
3 337 342 341
3 341 348 337
3 337 344 342
3 342 343 338
3 338 345 342
3 343 349 338
3 341 342 339
3 342 345 339
3 345 347 339
3 340 343 342
3 342 344 340
3 344 346 340
3 8 7 353
3 7 159 353
3 143 8 353
3 41 38 350
3 38 145 350
3 161 41 350
3 144 143 352
3 143 159 352
3 159 143 353
3 145 144 351
3 144 160 351
3 160 144 352
3 145 161 350
3 161 145 351
3 159 160 352
3 160 161 351
3 89 9 393
3 9 147 393
3 10 92 373
3 186 10 373
3 93 13 372
3 13 162 372
3 14 96 371
3 163 14 371
3 97 17 370
3 17 165 370
3 45 18 390
3 18 101 390
3 146 39 395
3 39 182 395
3 42 187 51
3 42 51 366
3 162 42 366
3 164 43 48
3 48 43 365
3 43 163 365
3 44 164 48
3 44 48 367
3 165 44 367
3 166 45 390
3 46 167 389
3 168 46 389
3 47 170 385
3 171 47 385
3 48 172 367
3 173 48 365
3 49 174 388
3 175 49 388
3 50 177 387
3 178 50 387
3 51 187 53
3 51 53 364
3 51 179 366
3 180 51 364
3 52 181 386
3 185 52 386
3 53 186 364
3 90 89 362
3 362 89 393
3 91 90 377
3 90 362 377
3 92 91 368
3 368 91 377
3 92 368 399
3 373 92 399
3 94 93 374
3 93 372 374
3 95 94 361
3 361 94 374
3 96 95 378
3 95 361 378
3 371 96 378
3 98 97 383
3 97 370 383
3 99 98 359
3 359 98 383
3 100 99 382
3 99 359 382
3 101 100 379
3 379 100 382
3 101 379 390
3 147 146 384
3 384 146 395
3 147 384 393
3 162 366 372
3 365 163 371
3 165 367 370
3 167 166 355
3 355 166 390
3 167 355 389
3 169 168 363
3 363 168 389
3 170 169 376
3 169 363 376
3 170 376 385
3 172 171 354
3 354 171 385
3 172 354 367
3 174 173 356
3 356 173 365
3 174 356 388
3 176 175 375
3 375 175 388
3 177 176 369
3 369 176 375
3 177 369 387
3 179 178 357
3 357 178 387
3 179 357 366
3 181 180 360
3 360 180 364
3 181 360 386
3 182 183 381
3 182 381 395
3 183 184 358
3 183 358 381
3 184 185 380
3 358 184 380
3 380 185 386
3 364 186 373
3 367 354 370
3 370 354 383
3 383 354 391
3 354 385 391
3 379 355 390
3 355 379 397
3 389 355 397
3 356 365 371
3 356 371 378
3 375 356 378
3 356 375 388
3 366 357 372
3 372 357 374
3 374 357 387
3 358 380 394
3 381 358 392
3 392 358 394
3 382 359 396
3 359 383 391
3 359 391 396
3 360 364 399
3 386 360 398
3 398 360 399
3 369 361 374
3 361 369 375
3 361 375 378
3 377 362 392
3 362 384 392
3 384 362 393
3 376 363 396
3 363 389 397
3 396 363 397
3 364 373 399
3 368 377 394
3 368 394 398
3 368 398 399
3 369 374 387
3 385 376 391
3 391 376 396
3 377 392 394
3 379 382 397
3 380 386 398
3 394 380 398
3 384 381 392
3 381 384 395
3 382 396 397
3 186 11 10
3 53 11 186
3 11 400 12
3 53 400 11
3 12 400 42
3 42 400 187
3 187 400 53
3 162 13 12
3 42 162 12
3 163 15 14
3 43 15 163
3 15 401 16
3 43 401 15
3 16 401 44
3 164 401 43
3 44 401 164
3 165 17 16
3 44 165 16
3 45 403 18
3 18 403 103
3 19 404 28
3 102 404 19
3 28 404 188
3 189 403 45
3 103 402 102
3 102 402 188
3 188 404 102
3 189 402 103
3 103 403 189
3 188 402 189
3 21 20 117
3 21 117 27
3 21 405 22
3 27 405 21
3 22 405 26
3 26 405 27
3 22 116 23
3 22 26 116
3 28 411 118
3 188 411 28
3 119 410 29
3 29 410 190
3 166 412 45
3 45 412 189
3 46 413 167
3 191 413 46
3 118 406 119
3 118 411 406
3 406 410 119
3 167 407 166
3 407 412 166
3 167 413 407
3 189 408 188
3 408 411 188
3 189 412 408
3 190 409 191
3 190 410 409
3 409 413 191
3 408 409 406
3 406 411 408
3 409 410 406
3 407 409 408
3 408 412 407
3 407 413 409
3 29 421 120
3 190 421 29
3 122 422 30
3 30 422 192
3 168 420 46
3 46 420 191
3 47 423 170
3 193 423 47
3 120 416 121
3 120 421 416
3 121 418 122
3 416 418 121
3 418 422 122
3 169 417 168
3 417 420 168
3 170 419 169
3 169 419 417
3 170 423 419
3 191 415 190
3 415 421 190
3 191 420 415
3 192 414 193
3 192 422 414
3 414 423 193
3 418 419 414
3 414 422 418
3 419 423 414
3 415 417 416
3 416 421 415
3 415 420 417
3 417 418 416
3 417 419 418
3 30 428 123
3 192 428 30
3 31 124 54
3 171 427 47
3 47 427 193
3 57 172 48
3 124 55 54
3 124 425 55
3 55 425 194
3 56 172 57
3 56 424 172
3 194 424 56
3 123 425 124
3 123 428 425
3 172 424 171
3 424 427 171
3 193 426 192
3 426 428 192
3 193 427 426
3 194 426 424
3 425 426 194
3 426 427 424
3 425 428 426
3 31 54 125
3 126 432 32
3 32 432 195
3 48 173 57
3 49 433 174
3 196 433 49
3 54 59 125
3 57 173 58
3 173 430 58
3 58 430 197
3 59 429 125
3 197 429 59
3 125 429 126
3 429 432 126
3 174 430 173
3 174 433 430
3 195 431 196
3 195 432 431
3 431 433 196
3 197 431 429
3 430 431 197
3 431 432 429
3 430 433 431
3 32 440 127
3 195 440 32
3 129 442 33
3 33 442 198
3 175 441 49
3 49 441 196
3 50 443 177
3 199 443 50
3 127 436 128
3 127 440 436
3 128 438 129
3 436 438 128
3 438 442 129
3 176 437 175
3 437 441 175
3 177 439 176
3 176 439 437
3 177 443 439
3 196 435 195
3 435 440 195
3 196 441 435
3 198 434 199
3 198 442 434
3 434 443 199
3 438 439 434
3 434 442 438
3 439 443 434
3 435 437 436
3 436 440 435
3 435 441 437
3 437 438 436
3 437 439 438
3 33 447 130
3 198 447 33
3 60 34 131
3 178 448 50
3 50 448 199
3 63 179 51
3 131 61 60
3 131 445 61
3 61 445 200
3 63 62 179
3 62 444 179
3 200 444 62
3 130 445 131
3 130 447 445
3 179 444 178
3 444 448 178
3 199 446 198
3 446 447 198
3 199 448 446
3 200 446 444
3 445 446 200
3 446 448 444
3 445 447 446
3 132 34 60
3 133 453 35
3 35 453 201
3 51 180 63
3 52 452 181
3 202 452 52
3 60 65 132
3 63 180 64
3 180 450 64
3 64 450 203
3 65 449 132
3 203 449 65
3 132 449 133
3 449 453 133
3 181 450 180
3 181 452 450
3 201 451 202
3 201 453 451
3 451 452 202
3 203 451 449
3 450 451 203
3 451 453 449
3 450 452 451
3 35 462 134
3 201 462 35
3 137 464 36
3 36 464 149
3 148 463 39
3 39 463 182
3 185 465 52
3 52 465 202
3 134 458 135
3 134 462 458
3 135 456 136
3 135 458 456
3 136 460 137
3 456 460 136
3 460 464 137
3 149 455 148
3 455 463 148
3 149 464 455
3 182 459 183
3 182 463 459
3 183 457 184
3 183 459 457
3 184 461 185
3 457 461 184
3 461 465 185
3 202 454 201
3 454 462 201
3 202 465 454
3 454 461 458
3 458 462 454
3 454 465 461
3 455 460 459
3 459 463 455
3 455 464 460
3 456 458 457
3 457 459 456
3 459 460 456
3 458 461 457
3 37 466 40
3 142 466 37
3 41 468 38
3 38 468 140
3 40 466 158
3 156 468 41
3 140 469 141
3 140 468 156
3 156 469 140
3 141 467 142
3 157 467 141
3 141 469 157
3 158 466 142
3 142 467 158
3 157 469 156
3 158 467 157
3 54 55 205
3 205 59 54
3 205 56 57
3 58 205 57
3 58 204 205
3 204 59 205
3 55 194 205
3 205 194 56
3 204 58 197
3 59 204 197
3 60 61 207
3 207 65 60
3 207 62 63
3 64 207 63
3 64 206 207
3 206 65 207
3 61 200 207
3 200 62 207
3 203 206 64
3 65 206 203
3 208 209 66
3 208 67 209
3 208 66 471
3 66 210 471
3 67 208 470
3 213 67 470
3 210 68 471
3 68 211 471
3 212 69 470
3 69 213 470
3 212 208 211
3 211 208 471
3 208 212 470
3 209 474 66
3 66 474 210
3 67 472 209
3 213 472 67
3 68 473 70
3 210 474 68
3 68 474 473
3 73 472 69
3 69 472 213
3 70 473 214
3 214 473 71
3 71 473 215
3 215 475 72
3 72 475 216
3 216 475 73
3 73 475 472
3 472 475 209
3 209 475 474
3 473 474 215
3 474 475 215
3 68 70 477
3 211 68 477
3 73 69 476
3 69 212 476
3 70 217 477
3 218 73 476
3 212 211 478
3 217 211 477
3 211 217 478
3 212 218 476
3 218 212 478
3 217 218 478
3 70 214 479
3 217 70 479
3 214 71 479
3 71 219 479
3 72 216 480
3 219 72 480
3 216 73 480
3 73 218 480
3 218 217 219
3 219 217 479
3 218 219 480
3 215 219 71
3 219 215 72
3 220 221 74
3 221 220 75
3 220 74 482
3 74 222 482
3 75 220 481
3 225 75 481
3 222 76 482
3 76 223 482
3 224 77 481
3 77 225 481
3 224 220 223
3 223 220 482
3 220 224 481
3 221 485 74
3 74 485 222
3 75 484 221
3 225 484 75
3 76 483 78
3 222 485 76
3 76 485 483
3 81 484 77
3 77 484 225
3 78 483 226
3 226 483 79
3 79 483 227
3 227 486 80
3 80 486 228
3 228 486 81
3 81 486 484
3 484 486 221
3 221 486 485
3 483 485 227
3 485 486 227
3 76 78 487
3 223 76 487
3 81 77 488
3 77 224 488
3 78 229 487
3 230 81 488
3 224 223 489
3 229 223 487
3 223 229 489
3 224 230 488
3 230 224 489
3 229 230 489
3 78 226 491
3 229 78 491
3 226 79 491
3 79 231 491
3 80 228 490
3 231 80 490
3 228 81 490
3 81 230 490
3 229 231 230
3 231 229 491
3 230 231 490
3 227 231 79
3 231 227 80
4 453 449 494 501
4 392 362 377 497
4 453 494 318 501
4 310 497 323 498
4 294 323 310 497
4 310 329 494 498
4 251 377 497 498
4 357 220 75 492
4 248 496 315 499
4 248 315 313 508
4 208 493 66 507
4 392 497 377 498
4 75 492 220 504
4 286 66 208 493
4 80 399 231 490
4 248 499 315 508
4 71 495 219 506
4 310 244 497 498
4 251 261 377 498
4 362 251 377 497
4 368 394 377 498
4 294 310 244 497
4 399 360 231 490
4 453 318 462 501
4 360 450 231 490
4 430 433 388 495
4 288 219 71 495
4 325 497 294 502
4 368 377 494 498
4 318 494 462 501
4 368 377 261 494
4 261 494 377 498
4 436 495 308 500
4 310 323 329 498
4 330 301 308 500
4 75 220 357 481
4 231 494 449 501
4 441 388 433 495
4 310 494 244 498
4 453 451 449 501
4 294 244 260 497
4 325 294 260 502
4 399 231 360 501
4 445 447 319 492
4 437 495 436 500
4 328 315 496 499
4 420 496 389 505
4 423 414 427 493
4 427 385 423 493
4 261 275 368 494
4 220 357 444 492
4 66 311 245 507
4 389 413 420 505
4 440 435 432 495
4 395 463 148 503
4 262 315 248 496
4 389 420 363 496
4 427 424 385 493
4 292 449 231 494
4 208 286 471 66
4 435 440 432 195
4 419 376 496 509
4 292 231 79 494
4 441 433 431 495
4 301 492 438 500
4 394 398 380 498
4 439 438 492 500
4 208 425 286 493
4 448 443 434 492
4 360 231 450 501
4 368 275 399 494
4 294 497 260 502
4 442 319 447 492
4 438 308 301 500
4 75 235 374 504
4 311 66 493 507
4 71 219 288 479
4 438 436 308 500
4 325 316 294 497
4 148 146 395 503
4 221 75 220 504
4 430 431 433 495
4 463 395 381 497
4 463 395 497 503
4 310 329 300 494
4 442 447 446 492
4 448 443 199 434
4 423 414 193 427
4 316 497 325 502
4 220 444 357 481
4 399 494 231 501
4 79 491 231 292
4 219 215 71 506
4 262 291 315 496
4 389 499 413 505
4 462 318 306 494
4 138 316 325 502
4 420 415 496 505
4 445 446 447 492
4 399 275 249 494
4 263 496 248 499
4 261 253 275 494
4 261 244 494 498
4 75 374 492 504
4 209 208 66 507
4 278 236 71 506
4 282 240 189 508
4 429 219 288 495
4 438 437 436 500
4 455 463 497 503
4 470 208 354 424
4 197 430 219 495
4 286 311 66 493
4 357 75 374 492
4 439 492 369 500
4 427 426 424 493
4 496 499 389 505
4 418 419 496 509
4 200 445 220 492
4 414 426 427 493
4 428 426 422 493
4 398 494 380 498
4 262 291 496 509
4 245 311 66 302
4 424 194 208 493
4 418 493 419 509
4 305 292 79 494
4 380 494 398 501
4 384 497 395 503
4 430 219 495 506
4 432 435 431 495
4 396 363 376 496
4 316 502 138 503
4 491 231 292 449
4 286 425 208 471
4 396 496 376 509
4 196 441 433 431
4 425 208 194 493
4 324 312 492 500
4 305 79 237 494
4 439 437 438 500
4 198 442 447 446
4 192 428 426 422
4 435 432 431 195
4 331 336 5 150
4 8 143 353 332
4 200 220 444 492
4 220 492 445 504
4 442 301 319 492
4 426 428 425 493
4 429 197 219 495
4 448 434 446 492
4 291 327 496 509
4 424 493 208 507
4 429 288 219 479
4 374 372 235 75
4 263 262 248 496
4 327 291 311 509
4 389 496 397 499
4 255 235 283 504
4 448 446 444 492
4 248 266 499 508
4 439 369 437 500
4 431 435 441 495
4 221 235 75 504
4 424 354 385 493
4 220 482 289 445
4 278 71 215 506
4 189 412 390 499
4 148 340 146 503
4 434 199 448 446
4 414 193 427 426
4 363 417 376 496
4 429 432 431 495
4 327 311 493 509
4 252 325 260 502
4 256 311 291 509
4 390 282 189 499
4 389 363 397 496
4 413 191 420 505
4 138 502 345 503
4 248 313 266 508
4 251 260 244 497
4 458 462 494 501
4 384 502 497 503
4 423 385 419 493
4 419 493 376 509
4 419 376 417 496
4 324 319 301 492
4 458 454 462 501
4 257 312 500 504
4 320 440 432 495
4 314 290 323 497
4 317 425 428 493
4 282 189 499 508
4 375 495 437 500
4 307 259 293 500
4 445 319 289 492
4 256 291 262 509
4 443 448 387 492
4 323 497 290 498
4 261 244 253 494
4 221 283 235 504
4 197 431 430 495
4 382 496 263 499
4 430 356 480 219
4 492 500 312 504
4 470 354 208 507
4 256 280 245 507
4 200 446 445 492
4 263 496 382 509
4 428 422 317 493
4 324 330 312 500
4 434 442 446 492
4 327 315 291 496
4 262 496 263 509
4 409 413 499 505
4 424 426 194 493
4 380 498 494 501
4 256 493 311 509
4 314 456 290 497
4 430 388 356 495
4 460 456 314 497
4 236 278 259 506
4 409 191 413 505
4 324 492 312 504
4 402 189 240 508
4 252 260 279 502
4 425 194 426 493
4 363 420 417 496
4 429 320 432 495
4 420 415 417 496
4 409 413 407 499
4 448 444 387 492
4 275 253 249 494
4 196 441 431 435
4 200 444 446 492
4 354 493 424 507
4 342 502 146 503
4 66 311 286 302
4 429 431 197 495
4 414 422 426 493
4 388 441 375 495
4 369 375 437 500
4 290 306 329 498
4 138 345 339 503
4 454 201 462 501
4 380 461 498 501
4 316 497 502 503
4 256 245 311 507
4 25 277 285 2
4 456 290 497 498
4 220 289 482 504
4 463 459 455 497
4 329 306 494 498
4 330 308 495 500
4 253 244 276 494
4 329 323 290 498
4 458 462 306 494
4 442 198 434 446
4 192 426 414 422
4 416 295 418 496
4 328 499 496 505
4 459 463 381 497
4 242 293 259 500
4 305 237 300 494
4 419 385 376 493
4 374 357 372 75
4 445 492 289 504
4 457 381 358 498
4 442 438 301 492
4 381 392 358 498
4 418 295 309 496
4 305 300 292 494
4 255 374 235 504
4 397 496 382 499
4 276 300 237 494
4 381 497 392 498
4 450 231 203 501
4 263 248 266 499
4 459 497 381 498
4 395 384 381 497
4 255 500 492 504
4 257 500 255 504
4 398 494 399 501
4 414 423 419 493
4 436 435 440 495
4 398 399 360 501
4 354 424 208 507
4 249 237 227 494
4 148 344 340 503
4 480 219 356 506
4 295 327 309 496
4 376 385 391 493
4 255 374 492 500
4 499 505 328 508
4 398 368 399 494
4 358 380 461 498
4 317 286 425 493
4 307 330 495 500
4 251 497 362 502
4 357 387 444 492
4 494 498 458 501
4 191 415 420 505
4 458 494 306 498
4 417 418 419 496
4 379 382 263 499
4 436 440 320 495
4 391 385 354 493
4 9 147 332 349
4 259 250 500 506
4 289 319 324 492
4 306 318 292 494
4 138 4 331 347
4 189 408 412 499
4 260 251 279 502
4 340 342 146 503
4 260 497 251 502
4 430 495 356 506
4 402 189 282 240
4 439 443 387 492
4 256 507 493 509
4 441 435 437 495
4 314 460 497 503
4 287 328 505 508
4 439 434 443 492
4 461 458 498 501
4 330 293 312 500
4 311 493 256 507
4 374 255 492 504
4 345 502 342 503
4 316 323 294 497
4 290 458 306 498
4 390 265 282 499
4 390 282 403 189
4 382 496 396 509
4 455 497 460 503
4 220 445 289 504
4 396 382 397 496
4 380 461 184 358
4 369 492 374 500
4 463 455 148 503
4 416 496 415 505
4 249 253 237 494
4 320 429 288 495
4 438 442 434 492
4 450 360 64 490
4 391 376 493 509
4 287 313 328 508
4 441 437 375 495
4 362 497 384 502
4 307 293 330 500
4 430 356 219 506
4 253 276 237 494
4 264 359 383 509
4 422 309 317 493
4 305 237 276 300
4 379 263 265 499
4 314 497 316 503
4 392 384 362 497
4 345 342 339 503
4 354 391 493 507
4 458 461 454 501
4 390 412 355 499
4 414 418 422 493
4 406 287 505 508
4 456 497 459 498
4 316 314 323 497
4 289 492 324 504
4 418 309 422 493
4 241 263 382 509
4 70 22 405 26
4 21 68 405 27
4 460 459 456 497
4 138 139 316 503
4 62 357 444 481
4 343 146 342 502
4 328 315 327 496
4 457 459 381 498
4 408 406 499 508
4 390 379 265 499
4 53 11 400 81
4 43 15 401 73
4 77 12 400 42
4 69 16 401 44
4 394 392 377 498
4 314 326 460 503
4 408 499 406 505
4 264 507 256 509
4 255 258 361 500
4 354 56 470 424
4 264 383 507 509
4 436 437 435 495
4 311 309 327 493
4 407 355 412 499
4 250 378 500 506
4 408 499 189 508
4 416 295 496 505
4 375 356 388 495
4 188 189 402 508
4 241 262 263 509
4 379 397 382 499
4 406 505 499 508
4 326 464 460 503
4 308 307 330 495
4 459 460 455 497
4 417 416 418 496
4 450 203 451 501
4 409 408 406 505
4 314 316 326 503
4 414 419 418 493
4 326 36 464 149
4 138 339 139 503
4 434 439 438 492
4 258 250 361 500
4 55 425 286 471
4 417 363 376 169
4 255 361 374 500
4 241 382 359 509
4 362 90 377 251
4 464 326 149 503
4 384 392 381 497
4 290 456 458 498
4 389 397 355 499
4 67 354 470 507
4 361 378 375 500
4 292 65 491 449
4 417 415 416 496
4 358 394 380 498
4 289 482 61 445
4 361 369 374 500
4 396 397 363 496
4 436 320 308 495
4 146 147 384 502
4 356 495 375 506
4 110 257 312 293
4 328 496 295 505
4 466 40 158 348
4 84 310 244 294
4 344 342 340 503
4 41 346 468 156
4 257 242 255 500
4 358 461 457 498
4 100 379 382 263
4 98 359 383 264
4 465 380 386 501
4 242 259 250 500
4 288 429 59 479
4 302 245 311 104
4 263 266 265 499
4 146 343 147 502
4 249 399 92 275
4 317 311 286 493
4 399 368 92 275
4 376 419 417 169
4 369 361 375 500
4 439 387 369 492
4 329 306 300 494
4 353 159 7 349
4 276 300 310 83
4 336 347 6 153
4 409 499 408 505
4 64 360 364 490
4 72 480 356 506
4 421 321 416 505
4 261 377 90 251
4 36 326 139 149
4 264 256 241 509
4 155 40 333 348
4 482 289 74 504
4 387 357 374 492
4 463 148 39 395
4 146 39 148 395
4 303 259 236 112
4 79 491 292 296
4 361 250 378 500
4 72 219 480 506
4 183 457 381 358
4 350 346 41 161
4 244 260 84 294
4 139 149 326 503
4 418 416 121 295
4 406 411 287 508
4 359 264 241 509
4 313 315 248 107
4 407 412 408 499
4 409 407 408 499
4 243 252 279 502
4 390 355 379 499
4 480 58 356 430
4 146 340 343 342
4 374 372 93 235
4 328 327 295 496
4 100 379 263 265
4 265 499 266 508
4 461 457 184 358
4 243 345 252 502
4 420 389 363 168
4 457 456 459 498
4 344 469 156 157
4 465 461 380 501
4 120 416 421 321
4 258 242 250 500
4 300 306 292 494
4 406 287 410 505
4 257 110 242 293
4 382 396 359 509
4 9 393 243 284
4 160 161 340 351
4 185 386 465 380
4 243 393 147 502
4 452 386 360 501
4 243 284 393 502
4 292 491 65 296
4 320 288 307 495
4 337 467 157 158
4 357 366 75 481
4 309 311 317 493
4 189 282 103 402
4 188 402 281 508
4 402 188 281 102
4 391 507 383 509
4 147 349 243 338
4 403 282 103 189
4 281 188 404 102
4 121 418 295 309
4 493 507 391 509
4 378 356 375 506
4 255 242 258 500
4 452 360 450 501
4 141 467 149 142
4 148 140 469 141
4 249 373 399 80
4 362 393 89 284
4 244 276 310 83
4 232 214 23 116
4 402 240 281 508
4 438 301 308 128
4 386 181 452 360
4 277 25 285 78
4 455 149 148 503
4 220 482 74 504
4 393 362 384 502
4 245 256 311 104
4 106 248 262 315
4 293 259 307 111
4 416 321 295 505
4 67 470 208 507
4 455 460 464 503
4 95 258 250 361
4 456 460 314 136
4 319 442 129 301
4 359 391 383 509
4 320 307 308 495
4 318 449 453 133
4 313 248 266 107
4 262 241 256 509
4 408 411 406 508
4 410 287 321 505
4 380 398 386 501
4 167 355 407 413
4 410 406 119 287
4 252 345 347 138
4 264 98 359 241
4 335 339 153 154
4 275 368 91 261
4 447 445 319 130
4 155 334 154 341
4 436 438 308 128
4 387 374 369 492
4 354 67 470 367
4 461 458 457 498
4 243 147 338 502
4 148 149 344 503
4 286 299 471 66
4 276 305 300 82
4 288 297 71 479
4 385 424 427 171
4 243 338 345 502
4 394 358 392 498
4 160 352 343 159
4 354 470 56 367
4 188 408 189 508
4 456 314 290 136
4 251 284 279 502
4 366 357 62 481
4 138 4 347 252
4 94 258 361 255
4 452 181 450 360
4 119 321 410 287
4 355 167 389 413
4 93 374 235 255
4 281 404 188 508
4 433 430 388 174
4 120 416 321 295
4 465 461 185 380
4 262 106 315 291
4 463 182 381 395
4 335 150 138 151
4 147 352 144 143
4 375 175 441 388
4 391 396 376 509
4 341 149 139 503
4 142 36 37 466
4 39 38 468 140
4 375 437 176 369
4 365 72 480 356
4 265 101 390 282
4 242 259 293 111
4 368 377 91 261
4 460 464 326 137
4 437 176 369 439
4 398 360 386 501
4 116 232 214 70
4 289 482 74 298
4 4 138 325 252
4 417 420 363 168
4 252 345 243 87
4 183 457 459 381
4 289 61 482 298
4 379 355 397 499
4 75 162 273 225
4 283 257 255 504
4 321 328 295 505
4 265 266 240 508
4 386 452 465 501
4 305 276 237 82
4 105 256 311 291
4 277 226 3 115
4 303 307 259 112
4 250 378 95 361
4 134 306 462 318
4 351 145 146 144
4 151 334 152 139
4 165 272 67 213
4 480 58 365 356
4 402 282 103 240
4 272 165 69 213
4 402 281 240 102
4 350 41 346 468
4 286 299 55 471
4 322 287 411 508
4 379 101 390 265
4 460 326 314 137
4 338 342 345 502
4 374 94 361 255
4 350 38 39 145
4 37 36 152 333
4 238 163 14 216
4 441 437 175 375
4 281 322 404 508
4 370 354 67 507
4 442 438 129 301
4 354 383 391 507
4 341 139 339 503
4 338 343 342 502
4 385 354 424 171
4 180 450 360 64
4 404 322 188 508
4 429 320 126 432
4 357 366 372 75
4 297 288 59 479
4 247 109 257 504
4 399 92 373 249
4 234 264 97 507
4 425 123 317 428
4 452 52 386 465
4 337 344 149 503
4 421 410 321 505
4 287 328 321 505
4 139 326 316 503
4 465 454 461 501
4 260 252 85 325
4 251 362 89 284
4 162 233 273 225
4 22 70 405 232
4 97 264 383 507
4 354 172 56 424
4 318 292 449 133
4 68 21 405 232
4 290 306 458 135
4 345 338 243 87
4 294 260 85 325
4 252 86 4 347
4 149 337 341 348
4 180 360 364 64
4 96 268 371 506
4 262 256 105 291
4 458 306 462 134
4 319 445 289 130
4 292 132 65 449
4 99 382 359 241
4 458 456 457 498
4 101 390 282 403
4 341 339 342 503
4 73 15 401 238
4 322 281 404 108
4 12 77 400 233
4 296 292 79 305
4 16 69 401 238
4 122 317 422 309
4 435 431 196 195
4 74 222 485 269
4 355 412 390 166
4 118 287 411 322
4 421 416 415 505
4 337 149 341 503
4 444 387 178 448
4 304 109 247 504
4 243 349 9 88
4 23 214 71 116
4 345 86 252 347
4 312 257 109 504
4 202 465 452 501
4 233 162 77 225
4 233 186 10 228
4 322 108 313 508
4 410 409 406 505
4 166 355 412 407
4 406 118 287 411
4 281 108 322 508
4 463 182 459 381
4 282 18 101 403
4 465 202 454 501
4 65 132 292 296
4 281 19 404 108
4 354 370 67 367
4 289 324 312 504
4 382 99 263 241
4 190 410 421 505
4 268 215 72 506
4 451 452 450 501
4 131 289 61 445
4 269 74 222 254
4 422 418 122 309
4 250 259 278 506
4 81 186 233 228
4 270 214 23 232
4 73 163 238 216
4 333 40 466 348
4 453 35 462 318
4 72 356 371 506
4 383 354 370 507
4 199 434 198 446
4 414 193 426 192
4 29 421 410 321
4 280 256 264 507
4 413 46 389 420
4 464 149 455 503
4 393 384 147 502
4 74 247 221 504
4 221 247 283 504
4 279 284 243 502
4 337 342 344 503
4 81 11 400 233
4 188 322 411 508
4 266 313 108 508
4 266 108 281 508
4 232 270 214 70
4 322 404 19 108
4 390 101 18 403
4 58 173 356 430
4 357 444 179 62
4 388 430 356 174
4 312 109 304 504
4 96 371 378 506
4 277 483 226 78
4 432 320 32 440
4 322 313 287 508
4 239 226 3 277
4 56 172 354 367
4 66 286 299 302
4 178 387 444 357
4 336 4 347 331
4 370 67 234 507
4 71 297 288 303
4 427 47 423 385
4 317 123 425 286
4 332 353 9 349
4 30 317 428 422
4 126 320 429 288
4 338 147 343 502
4 447 442 33 319
4 161 145 146 351
4 74 289 304 504
4 391 359 396 509
4 88 243 349 338
4 201 35 462 453
4 100 382 99 263
4 270 473 214 70
4 202 452 451 501
4 278 215 268 506
4 222 485 269 254
4 104 256 311 105
4 71 214 23 270
4 371 72 365 356
4 67 209 234 507
4 75 366 162 225
4 71 214 297 116
4 290 458 456 135
4 346 148 344 340
4 226 79 3 115
4 461 184 185 380
4 61 289 131 298
4 433 441 49 388
4 190 409 410 505
4 111 259 307 112
4 228 10 267 80
4 286 425 55 124
4 274 66 210 117
4 415 190 421 505
4 374 93 94 255
4 97 98 383 264
4 72 14 163 216
4 137 314 460 136
4 386 181 52 452
4 267 233 10 228
4 365 58 173 356
4 72 215 219 506
4 315 106 248 107
4 72 371 268 506
4 475 271 474 270
4 68 21 232 117
4 246 238 14 216
4 247 257 283 504
4 25 277 2 115
4 289 312 304 504
4 107 266 313 108
4 437 176 175 375
4 386 52 185 465
4 268 96 250 506
4 188 411 408 508
4 91 92 368 275
4 448 387 50 443
4 115 277 226 78
4 363 417 168 169
4 110 312 257 109
4 475 246 271 270
4 117 210 274 68
4 377 90 91 261
4 357 179 366 62
4 240 103 402 102
4 73 15 238 163
4 213 67 165 367
4 69 16 165 238
4 306 458 135 134
4 59 429 288 125
4 75 273 235 221
4 342 337 341 503
4 70 22 116 232
4 249 267 10 80
4 74 221 220 504
4 459 182 183 381
4 247 74 304 504
4 52 452 202 465
4 474 215 475 270
4 25 277 115 78
4 280 234 209 507
4 354 172 424 171
4 49 196 441 433
4 74 289 298 304
4 19 28 404 322
4 390 18 45 403
4 221 486 484 269
4 420 413 46 191
4 252 86 345 87
4 85 84 260 294
4 67 208 209 507
4 33 198 442 447
4 192 30 428 422
4 484 273 221 269
4 215 278 246 270
4 85 252 4 325
4 267 273 484 269
4 301 438 129 128
4 78 285 277 76
4 416 120 121 295
4 373 364 399 80
4 32 432 440 195
4 50 448 443 199
4 47 423 193 427
4 378 250 96 506
4 246 73 238 216
4 421 190 29 410
4 84 244 310 83
4 227 249 267 237
4 228 186 10 80
4 343 352 144 147
4 335 138 339 151
4 72 246 14 216
4 246 72 268 215
4 389 167 46 413
4 321 410 29 119
4 225 75 366 481
4 297 214 71 479
4 209 66 274 245
4 421 29 120 321
4 179 178 444 357
4 254 74 222 113
4 53 11 81 186
4 69 16 44 165
4 362 89 90 251
4 43 15 73 163
4 440 320 32 127
4 74 269 247 254
4 272 234 67 209
4 246 475 215 270
4 227 485 483 239
4 249 10 373 80
4 457 183 184 358
4 55 299 286 124
4 334 155 152 341
4 68 21 117 27
4 225 366 62 481
4 6 4 347 336
4 420 46 389 168
4 238 73 246 472
4 283 221 269 247
4 144 160 352 343
4 131 289 445 130
4 154 335 339 151
4 371 356 378 506
4 161 146 340 351
4 353 7 9 349
4 80 249 267 227
4 254 222 485 76
4 379 100 101 265
4 281 404 19 102
4 221 273 235 269
4 282 103 18 403
4 317 30 122 422
4 141 148 149 157
4 36 326 464 137
4 170 423 47 385
4 81 11 233 186
4 59 288 297 125
4 269 235 221 283
4 292 132 449 133
4 95 258 361 94
4 77 12 42 162
4 70 22 26 116
4 299 210 66 117
4 215 474 473 270
4 373 92 10 249
4 81 233 267 228
4 181 450 360 180
4 486 221 485 269
4 77 12 162 233
4 39 182 463 395
4 278 246 268 215
4 3 79 226 239
4 123 425 286 124
4 213 470 67 367
4 246 272 238 472
4 148 344 149 157
4 271 280 234 209
4 75 484 273 221
4 139 152 36 348
4 239 483 226 277
4 32 126 320 432
4 169 376 419 170
4 214 297 59 479
4 269 485 239 254
4 30 317 123 428
4 121 122 418 309
4 288 429 126 125
4 442 129 33 319
4 229 206 203 65
4 217 197 59 204
4 230 64 203 206
4 218 58 197 204
4 79 226 296 115
4 209 271 280 245
4 118 119 406 287
4 355 166 167 407
4 23 236 71 270
4 238 165 69 272
4 95 96 378 250
4 486 267 484 269
4 443 387 50 177
4 350 346 39 468
4 239 227 267 237
4 234 280 264 507
4 272 472 475 271
4 281 240 266 508
4 485 227 267 239
4 300 276 82 83
4 227 267 486 485
4 89 393 9 284
4 213 56 470 367
4 234 272 271 209
4 430 173 356 174
4 239 267 485 269
4 145 146 346 161
4 221 74 269 247
4 305 237 3 82
4 472 272 67 209
4 271 209 274 245
4 470 69 56 213
4 225 62 77 481
4 139 334 152 341
4 128 308 436 127
4 59 70 297 214
4 441 175 49 388
4 146 346 39 145
4 250 278 268 506
4 485 483 254 76
4 271 472 475 209
4 475 246 272 271
4 134 462 35 318
4 476 204 205 58
4 222 74 298 113
4 69 73 238 472
4 274 232 117 68
4 491 79 226 296
4 33 447 319 130
4 165 17 370 67
4 17 165 272 67
4 98 99 359 241
4 213 69 56 367
4 485 267 486 269
4 385 427 47 171
4 65 491 226 296
4 237 3 79 305
4 59 70 214 479
4 65 78 226 491
4 17 97 370 234
4 285 254 277 76
4 331 347 336 153
4 273 13 162 75
4 159 353 332 349
4 45 390 412 166
4 411 28 118 322
4 471 299 210 66
4 20 66 274 117
4 483 239 254 277
4 293 110 242 111
4 270 271 474 274
4 333 466 36 348
4 163 72 216 365
4 238 17 165 272
4 372 162 13 75
4 439 176 369 177
4 152 139 341 348
4 474 209 66 274
4 50 178 387 448
4 239 3 79 237
4 474 271 475 209
4 344 337 149 157
4 318 453 35 133
4 272 472 271 209
4 149 142 158 348
4 65 78 296 226
4 117 20 66 302
4 148 469 156 344
4 246 73 216 475
4 349 7 9 88
4 155 152 341 348
4 338 88 243 87
4 163 371 14 72
4 472 246 272 475
4 270 474 473 274
4 135 456 290 136
4 472 272 69 213
4 267 233 81 484
4 86 6 4 347
4 467 149 337 157
4 349 147 343 338
4 64 230 207 206
4 205 217 59 204
4 71 236 23 303
4 366 42 162 225
4 233 267 273 484
4 106 262 105 291
4 160 340 146 351
4 344 148 469 157
4 485 483 239 254
4 482 222 74 298
4 273 235 13 75
4 14 246 72 268
4 162 372 366 75
4 232 20 274 117
4 234 370 17 67
4 73 246 472 475
4 142 149 36 348
4 77 81 233 484
4 346 140 156 148
4 146 340 346 161
4 267 81 228 486
4 345 347 138 339
4 49 433 388 174
4 272 69 238 472
4 234 17 272 67
4 233 13 162 273
4 116 71 23 303
4 210 474 274 68
4 239 79 227 237
4 186 373 10 80
4 469 156 140 148
4 142 467 149 158
4 247 0 74 254
4 337 149 467 158
4 304 0 247 109
4 151 138 339 139
4 273 484 75 225
4 235 372 13 75
4 483 79 227 239
4 343 144 146 147
4 149 467 141 157
4 141 469 148 157
4 371 96 14 268
4 304 74 0 113
4 274 66 20 245
4 216 72 480 365
4 254 0 74 113
4 274 474 473 68
4 140 346 39 148
4 13 93 372 235
4 370 165 67 367
4 245 66 20 302
4 228 64 364 490
4 209 474 271 274
4 228 81 64 490
4 58 73 480 216
4 200 62 224 207
4 194 56 212 205
4 228 364 186 80
4 116 297 71 303
4 79 3 115 305
4 337 149 158 348
4 473 71 215 270
4 472 67 272 213
4 146 160 144 343
4 339 154 151 139
4 115 296 79 305
4 216 480 58 365
4 148 156 346 344
4 117 66 299 302
4 466 158 36 348
4 80 228 364 490
4 72 371 14 268
4 232 68 70 405
4 42 77 162 225
4 333 36 155 348
4 73 69 401 164
4 187 77 81 400
4 76 78 285 114
4 81 267 484 486
4 254 2 285 277
4 339 153 138 335
4 236 23 303 112
4 247 74 0 304
4 147 343 352 159
4 204 212 478 218
4 401 69 73 238
4 160 146 340 343
4 20 245 302 104
4 468 346 39 156
4 214 71 473 270
4 210 299 27 117
4 140 468 39 156
4 36 142 158 466
4 58 73 216 365
4 36 155 152 333
4 233 81 77 400
4 350 39 346 161
4 39 350 145 161
4 165 16 17 238
4 139 154 334 341
4 74 485 221 269
4 72 163 371 365
4 336 331 153 150
4 143 159 353 332
4 232 21 20 117
4 2 254 285 1
4 304 298 74 113
4 483 226 79 239
4 60 222 76 482
4 210 54 471 68
4 186 10 11 233
4 339 154 139 341
4 163 14 15 238
4 147 159 332 349
4 153 331 347 138
4 66 210 474 274
4 350 39 38 468
4 466 36 37 333
4 5 4 336 331
4 353 9 8 332
4 81 53 187 400
4 77 187 42 400
4 401 43 73 164
4 76 285 24 114
4 25 285 78 114
4 44 401 69 164
4 486 80 267 227
4 37 40 466 333
4 267 228 80 486
4 350 38 41 468
4 475 72 246 215
4 298 24 222 113
4 373 186 364 80
4 23 22 232 116
4 113 222 254 76
4 186 81 53 228
4 113 24 222 76
4 117 27 210 68
4 162 12 13 233
4 331 153 150 138
4 159 143 147 332
4 364 186 53 228
4 145 346 39 161
4 216 72 246 475
4 152 155 36 348
4 140 39 346 156
4 138 347 153 339
4 158 142 36 348
4 159 147 343 349
4 297 31 54 125
4 63 366 51 179
4 54 31 299 124
4 8 7 9 353
4 4 6 5 336
4 51 364 63 180
4 334 151 154 139
4 146 160 351 144
4 27 26 70 405
4 172 57 48 367
4 70 68 27 405
4 34 60 131 298
4 179 63 366 62
4 299 55 54 124
4 153 150 138 335
4 143 147 352 159
4 54 59 297 125
4 132 60 34 296
4 364 63 180 64
4 56 57 172 367
4 48 57 173 365
4 60 61 131 298
4 230 224 207 489
4 3 2 277 115
4 132 65 60 296
4 212 204 478 205
4 478 217 205 204
4 173 57 58 365
4 206 230 207 489
4 12 11 233 400
4 60 25 296 78
4 297 54 26 70
4 70 59 297 54
4 69 57 56 367
4 15 16 401 238
4 78 65 296 60
4 73 57 58 476
4 254 1 0 113
4 489 206 203 229
4 478 218 197 204
4 217 478 197 204
4 206 203 230 489
4 69 44 57 367
4 73 57 43 365
4 58 57 73 365
4 232 22 21 405
4 364 53 51 63
4 212 478 194 205
4 224 200 207 489
4 25 34 60 296
4 68 54 477 70
4 63 81 77 488
4 73 69 57 476
4 78 487 60 76
4 26 31 54 297
4 51 42 366 63
4 54 31 27 299
4 57 48 43 365
4 60 34 24 298
4 44 48 57 367
4 60 78 76 114
4 57 69 73 164
4 81 77 187 63
4 27 26 54 70
4 68 27 54 70
4 76 24 60 114
4 78 60 25 114
4 73 43 57 164
4 42 187 77 63
4 81 187 53 63
4 69 57 44 164
4 26 54 31 27
4 51 53 187 63
4 187 42 51 63
4 57 48 44 164
4 43 48 57 164
4 24 34 60 114
4 25 60 34 114
4 205 476 58 57
4 212 204 476 218
4 212 204 205 476
4 476 204 58 218
4 318 449 494 453
4 318 494 449 292
4 498 251 244 497
4 498 244 251 261
4 508 315 328 499
4 508 328 315 313
4 399 490 364 360
4 364 490 399 80
4 223 60 76 482
4 223 76 60 487
4 327 509 309 496
4 327 309 509 493
4 418 309 509 496
4 418 509 309 493
4 211 54 68 471
4 211 68 54 477
4 245 507 209 66
4 209 507 245 280
4 355 413 499 407
4 499 413 355 389
4 503 384 146 395
4 503 146 384 502
4 399 494 80 231
4 399 80 494 249
4 227 80 494 231
4 227 494 80 249
4 71 278 270 236
4 71 270 278 215
4 500 324 301 492
4 500 301 324 330
4 203 501 449 451
4 449 501 203 231
4 508 282 265 499
4 508 265 282 240
4 506 307 500 259
4 506 500 307 495
4 494 227 79 237
4 494 79 227 231
4 201 501 453 462
4 453 501 201 451
4 501 201 202 454
4 501 202 201 451
4 276 310 494 244
4 494 310 276 300
4 252 138 502 345
4 502 138 252 325
4 419 385 170 376
4 170 385 419 423
4 505 191 190 409
4 505 190 191 415
4 375 506 500 378
4 500 506 375 495
4 293 257 500 242
4 293 500 257 312
4 71 303 506 236
4 259 506 303 236
4 259 303 506 307
4 147 9 243 349
4 147 243 9 393
4 362 284 502 393
4 502 284 362 251
4 320 436 127 440
4 127 436 320 308
4 387 439 177 443
4 177 439 387 369
4 97 507 370 234
4 370 507 97 383
4 28 188 322 411
4 322 188 28 404
4 45 189 390 403
4 45 390 189 412
4 346 146 148 340
4 148 146 346 39
4 233 225 484 273
4 484 225 233 77
4 200 62 220 224
4 200 220 62 444
4 481 220 62 224
4 481 62 220 444
4 56 194 208 424
4 208 194 56 212
4 208 470 56 424
4 56 470 208 212
4 277 76 483 78
4 483 76 277 254
4 65 491 231 229
4 231 491 65 449
4 231 203 65 229
4 65 203 231 449
4 479 59 219 429
4 479 219 59 217
4 197 219 59 429
4 197 59 219 217
4 480 58 219 218
4 480 219 58 430
4 197 219 58 218
4 197 58 219 430
4 64 203 231 230
4 231 203 64 450
4 231 490 64 230
4 64 490 231 450
4 139 348 149 341
4 149 348 139 36
4 70 68 274 473
4 274 68 70 232
4 274 270 70 473
4 70 270 274 232
4 207 60 200 61
4 60 200 482 223
4 60 482 200 61
4 482 200 220 223
4 205 54 194 55
4 54 194 471 211
4 54 471 194 55
4 471 194 208 211
4 78 296 115 25
4 78 115 296 226
4 54 210 27 68
4 54 27 210 299
4 297 70 116 214
4 116 70 297 26
4 225 62 63 77
4 63 62 225 366
4 63 42 225 77
4 225 42 63 366
4 228 64 63 364
4 63 64 228 81
4 63 53 228 364
4 228 53 63 81
4 222 60 24 298
4 222 24 60 76
4 69 367 165 44
4 165 367 69 213
4 73 365 163 216
4 163 365 73 43
4 54 471 299 210
4 54 299 471 55
4 482 60 298 61
4 482 298 60 222
4 218 73 58 476
4 218 58 73 480
4 229 230 203 489
4 229 203 230 231
4 230 64 81 490
4 223 224 200 220
4 223 200 224 489
4 113 254 24 76
4 113 24 254 1
4 285 24 254 76
4 285 254 24 1
4 78 65 229 491
4 217 218 197 478
4 217 197 218 219
4 70 59 217 479
4 224 77 62 481
4 211 212 194 208
4 211 194 212 478
4 212 69 56 470
4 498 368 398 494
4 498 398 368 394
4 205 57 212 476
4 205 212 57 56
4 69 212 57 476
4 69 57 212 56
4 77 224 63 488
4 77 63 224 62
4 207 224 63 62
4 207 63 230 64
4 81 230 63 64
4 81 63 230 488
4 224 230 63 488
4 224 63 230 207
4 489 229 207 206
4 65 207 229 206
4 205 217 54 59
4 70 217 54 477
4 70 54 217 59
4 217 211 54 477
4 288 303 495 71
4 288 495 303 307
4 506 495 303 71
4 506 303 495 307
4 482 200 445 220
4 445 200 482 61
4 54 194 217 205
4 54 217 194 211
4 478 217 194 205
4 478 194 217 211
4 471 194 425 208
4 425 194 471 55
4 207 229 60 65
4 78 229 60 487
4 78 60 229 65
4 229 223 60 487
4 60 200 229 207
4 60 229 200 223
4 489 229 200 207
4 489 200 229 223

CELL_TYPES 2825
1
1
1
1
1
1
1
1
1
1
1
1
1
1
1
1
1
1
1
1
1
1
1
1
1
1
1
1
1
1
1
1
1
1
1
1
1
1
1
1
1
1
1
1
1
1
1
1
1
1
1
1
1
1
1
1
1
1
1
1
1
1
1
1
1
1
1
1
1
1
1
1
1
1
1
1
1
1
1
1
1
1
3
3
3
3
3
3
3
3
3
3
3
3
3
3
3
3
3
3
3
3
3
3
3
3
3
3
3
3
3
3
3
3
3
3
3
3
3
3
3
3
3
3
3
3
3
3
3
3
3
3
3
3
3
3
3
3
3
3
3
3
3
3
3
3
3
3
3
3
3
3
3
3
3
3
3
3
3
3
3
3
3
3
3
3
3
3
3
3
3
3
3
3
3
3
3
3
3
3
3
3
3
3
3
3
3
3
3
3
3
3
3
3
3
3
3
3
3
3
3
3
3
3
3
3
3
3
3
3
3
3
3
3
3
3
3
3
3
3
3
3
3
3
3
3
3
3
3
3
3
3
3
3
3
3
3
3
3
3
3
3
3
3
3
3
3
3
3
3
3
3
3
3
3
3
3
3
3
3
3
3
3
3
3
3
3
3
3
3
3
3
3
3
3
3
3
3
3
3
3
3
3
3
3
3
3
3
3
3
3
3
3
3
3
3
3
3
3
3
3
3
3
3
3
3
3
3
3
3
3
3
3
3
3
3
3
3
3
3
3
3
3
3
3
3
3
3
3
3
3
3
3
3
3
3
3
3
3
3
3
3
3
3
3
3
3
3
3
3
3
3
3
3
3
5
5
5
5
5
5
5
5
5
5
5
5
5
5
5
5
5
5
5
5
5
5
5
5
5
5
5
5
5
5
5
5
5
5
5
5
5
5
5
5
5
5
5
5
5
5
5
5
5
5
5
5
5
5
5
5
5
5
5
5
5
5
5
5
5
5
5
5
5
5
5
5
5
5
5
5
5
5
5
5
5
5
5
5
5
5
5
5
5
5
5
5
5
5
5
5
5
5
5
5
5
5
5
5
5
5
5
5
5
5
5
5
5
5
5
5
5
5
5
5
5
5
5
5
5
5
5
5
5
5
5
5
5
5
5
5
5
5
5
5
5
5
5
5
5
5
5
5
5
5
5
5
5
5
5
5
5
5
5
5
5
5
5
5
5
5
5
5
5
5
5
5
5
5
5
5
5
5
5
5
5
5
5
5
5
5
5
5
5
5
5
5
5
5
5
5
5
5
5
5
5
5
5
5
5
5
5
5
5
5
5
5
5
5
5
5
5
5
5
5
5
5
5
5
5
5
5
5
5
5
5
5
5
5
5
5
5
5
5
5
5
5
5
5
5
5
5
5
5
5
5
5
5
5
5
5
5
5
5
5
5
5
5
5
5
5
5
5
5
5
5
5
5
5
5
5
5
5
5
5
5
5
5
5
5
5
5
5
5
5
5
5
5
5
5
5
5
5
5
5
5
5
5
5
5
5
5
5
5
5
5
5
5
5
5
5
5
5
5
5
5
5
5
5
5
5
5
5
5
5
5
5
5
5
5
5
5
5
5
5
5
5
5
5
5
5
5
5
5
5
5
5
5
5
5
5
5
5
5
5
5
5
5
5
5
5
5
5
5
5
5
5
5
5
5
5
5
5
5
5
5
5
5
5
5
5
5
5
5
5
5
5
5
5
5
5
5
5
5
5
5
5
5
5
5
5
5
5
5
5
5
5
5
5
5
5
5
5
5
5
5
5
5
5
5
5
5
5
5
5
5
5
5
5
5
5
5
5
5
5
5
5
5
5
5
5
5
5
5
5
5
5
5
5
5
5
5
5
5
5
5
5
5
5
5
5
5
5
5
5
5
5
5
5
5
5
5
5
5
5
5
5
5
5
5
5
5
5
5
5
5
5
5
5
5
5
5
5
5
5
5
5
5
5
5
5
5
5
5
5
5
5
5
5
5
5
5
5
5
5
5
5
5
5
5
5
5
5
5
5
5
5
5
5
5
5
5
5
5
5
5
5
5
5
5
5
5
5
5
5
5
5
5
5
5
5
5
5
5
5
5
5
5
5
5
5
5
5
5
5
5
5
5
5
5
5
5
5
5
5
5
5
5
5
5
5
5
5
5
5
5
5
5
5
5
5
5
5
5
5
5
5
5
5
5
5
5
5
5
5
5
5
5
5
5
5
5
5
5
5
5
5
5
5
5
5
5
5
5
5
5
5
5
5
5
5
5
5
5
5
5
5
5
5
5
5
5
5
5
5
5
5
5
5
5
5
5
5
5
5
5
5
5
5
5
5
5
5
5
5
5
5
5
5
5
5
5
5
5
5
5
5
5
5
5
5
5
5
5
5
5
5
5
5
5
5
5
5
5
5
5
5
5
5
5
5
5
5
5
5
5
5
5
5
5
5
5
5
5
5
5
5
5
5
5
5
5
5
5
5
5
5
5
5
5
5
5
5
5
5
5
5
5
5
5
5
5
5
5
5
5
5
5
5
5
5
5
5
5
5
5
5
5
5
5
5
5
5
5
5
5
5
5
5
5
5
5
5
5
5
5
5
5
5
5
5
5
5
5
5
5
5
5
5
5
5
5
5
5
5
5
5
5
5
5
5
5
5
5
5
5
5
5
5
5
5
5
5
5
5
5
5
5
5
5
5
5
5
5
5
5
5
5
5
5
5
5
5
5
5
5
5
5
5
5
5
5
5
5
5
5
5
5
5
5
5
5
5
5
5
5
5
5
5
5
5
5
5
5
5
5
5
5
5
5
5
5
5
5
5
5
5
5
5
5
5
5
5
5
5
5
5
5
5
5
5
5
5
5
5
5
5
5
5
5
5
5
5
5
5
5
5
5
5
5
5
5
5
5
5
5
5
5
5
5
5
5
5
5
5
5
5
5
5
5
5
5
5
5
5
5
5
5
5
5
5
5
5
5
5
5
5
5
5
5
5
5
5
5
5
5
5
5
5
5
5
5
5
5
5
5
5
10
10
10
10
10
10
10
10
10
10
10
10
10
10
10
10
10
10
10
10
10
10
10
10
10
10
10
10
10
10
10
10
10
10
10
10
10
10
10
10
10
10
10
10
10
10
10
10
10
10
10
10
10
10
10
10
10
10
10
10
10
10
10
10
10
10
10
10
10
10
10
10
10
10
10
10
10
10
10
10
10
10
10
10
10
10
10
10
10
10
10
10
10
10
10
10
10
10
10
10
10
10
10
10
10
10
10
10
10
10
10
10
10
10
10
10
10
10
10
10
10
10
10
10
10
10
10
10
10
10
10
10
10
10
10
10
10
10
10
10
10
10
10
10
10
10
10
10
10
10
10
10
10
10
10
10
10
10
10
10
10
10
10
10
10
10
10
10
10
10
10
10
10
10
10
10
10
10
10
10
10
10
10
10
10
10
10
10
10
10
10
10
10
10
10
10
10
10
10
10
10
10
10
10
10
10
10
10
10
10
10
10
10
10
10
10
10
10
10
10
10
10
10
10
10
10
10
10
10
10
10
10
10
10
10
10
10
10
10
10
10
10
10
10
10
10
10
10
10
10
10
10
10
10
10
10
10
10
10
10
10
10
10
10
10
10
10
10
10
10
10
10
10
10
10
10
10
10
10
10
10
10
10
10
10
10
10
10
10
10
10
10
10
10
10
10
10
10
10
10
10
10
10
10
10
10
10
10
10
10
10
10
10
10
10
10
10
10
10
10
10
10
10
10
10
10
10
10
10
10
10
10
10
10
10
10
10
10
10
10
10
10
10
10
10
10
10
10
10
10
10
10
10
10
10
10
10
10
10
10
10
10
10
10
10
10
10
10
10
10
10
10
10
10
10
10
10
10
10
10
10
10
10
10
10
10
10
10
10
10
10
10
10
10
10
10
10
10
10
10
10
10
10
10
10
10
10
10
10
10
10
10
10
10
10
10
10
10
10
10
10
10
10
10
10
10
10
10
10
10
10
10
10
10
10
10
10
10
10
10
10
10
10
10
10
10
10
10
10
10
10
10
10
10
10
10
10
10
10
10
10
10
10
10
10
10
10
10
10
10
10
10
10
10
10
10
10
10
10
10
10
10
10
10
10
10
10
10
10
10
10
10
10
10
10
10
10
10
10
10
10
10
10
10
10
10
10
10
10
10
10
10
10
10
10
10
10
10
10
10
10
10
10
10
10
10
10
10
10
10
10
10
10
10
10
10
10
10
10
10
10
10
10
10
10
10
10
10
10
10
10
10
10
10
10
10
10
10
10
10
10
10
10
10
10
10
10
10
10
10
10
10
10
10
10
10
10
10
10
10
10
10
10
10
10
10
10
10
10
10
10
10
10
10
10
10
10
10
10
10
10
10
10
10
10
10
10
10
10
10
10
10
10
10
10
10
10
10
10
10
10
10
10
10
10
10
10
10
10
10
10
10
10
10
10
10
10
10
10
10
10
10
10
10
10
10
10
10
10
10
10
10
10
10
10
10
10
10
10
10
10
10
10
10
10
10
10
10
10
10
10
10
10
10
10
10
10
10
10
10
10
10
10
10
10
10
10
10
10
10
10
10
10
10
10
10
10
10
10
10
10
10
10
10
10
10
10
10
10
10
10
10
10
10
10
10
10
10
10
10
10
10
10
10
10
10
10
10
10
10
10
10
10
10
10
10
10
10
10
10
10
10
10
10
10
10
10
10
10
10
10
10
10
10
10
10
10
10
10
10
10
10
10
10
10
10
10
10
10
10
10
10
10
10
10
10
10
10
10
10
10
10
10
10
10
10
10
10
10
10
10
10
10
10
10
10
10
10
10
10
10
10
10
10
10
10
10
10
10
10
10
10
10
10
10
10
10
10
10
10
10
10
10
10
10
10
10
10
10
10
10
10
10
10
10
10
10
10
10
10
10
10
10
10
10
10
10
10
10
10
10
10
10
10
10
10
10
10
10
10
10
10
10
10
10
10
10
10
10
10
10
10
10
10
10
10
10
10
10
10
10
10
10
10
10
10
10
10
10
10
10
10
10
10
10
10
10
10
10
10
10
10
10
10
10
10
10
10
10
10
10
10
10
10
10
10
10
10
10
10
10
10
10
10
10
10
10
10
10
10
10
10
10
10
10
10
10
10
10
10
10
10
10
10
10
10
10
10
10
10
10
10
10
10
10
10
10
10
10
10
10
10
10
10
10
10
10
10
10
10
10
10
10
10
10
10
10
10
10
10
10
10
10
10
10
10
10
10
10
10
10
10
10
10
10
10
10
10
10
10
10
10
10
10
10
10
10
10
10
10
10
10
10
10
10
10
10
10
10
10
10
10
10
10
10
10
10
10
10
10
10
10
10
10
10
10
10
10
10
10
10
10
10
10
10
10
10
10
10
10
10
10
10
10
10
10
10
10
10
10
10
10
10
10
10
10
10
10
10
10
10
10
10
10
10
10
10
10
10
10
10
10
10
10
10
10
10
10
10
10
10
10
10
10
10
10
10
10
10
10
10
10
10
10
10
10
10
10
10
10
10
10
10
10
10
10
10
10
10
10
10
10
10
10
10
10
10
10
10
10
10
10
10
10
10
10
10
10
10
10
10
10
10
10
10
10
10
10
10
10
10
10
10
10
10
10
10
10
10
10
10
10
10
10
10
10
10
10
10
10
10
10
10
10
10
10
10
10
10
10
10
10
10
10
10
10
10
10
10
10
10
10
10
10
10
10
10
10
10
10
10
10
10
10
10
10
10
10
10
10
10
10
10
10
10
10
10
10
10
10
10
10
10
10
10
10
10
10
10
10
10
10
10
10
10
10
10
10
10
10
10
10
10
10
10
10
10
10
10
10
10
10
10
10
10
10
10
10
10
10
10
10
10
10
10
10
10
10
10
10
10
10
10
10
10
10
10
10
10
10
10
10
10
10
10
10
10
10
10
10
10
10
10
10
10
10
10
10
10
10
10
10
10
10
10
10
10
10
10
10
10
10
10
10
10
10
10
10
10
10
10
10
10
10
10
10
10
10
10
10
10
10
10
10
10
10
10
10
10
10
10
10
10
10
10
10
10
10
10
10
10
10
10
10
10
10
10
10
10
10
10
10
10
10
10
10
10
10
10
10
10
10
10
10
10
10
10
10
10
10
10
10
10
10
10
10
10
10
10
10
10
10
10
10
10
10
10
10
10
10
10
10
10
10
10
10
10
10
10
10
10
10
10
10
10
10
10
10
10
10
10
10
10
10
10
10
10
10
10
10
10
10
10
10
10
10
10
10
10
10
10
10
10
10
10
10
10
10
10
10
10
10
10
10
10
10
10
10
10
10
10
10
10
10
10
10
10
10
10
10
10
10
10
10
10
10
10
10
10
10
10
10
10
10
10
10
10
10
10
10
10
10
10
10
10
10
10
10
