# vtk DataFile Version 2.0
, Created by Gmsh 4.11.1 
ASCII
DATASET UNSTRUCTURED_GRID
POINTS 523 double
8.75 0 -43.80891568708574
14.12349064332649 0 -41.50750983764988
14.12349064332649 0 -38.49249016235012
8.75 0 -36.19108431291425
8.75 0 -3
11.75 0 -3
11.75 0 0
-11.75 0 0
-11.75 0 -3
-8.75 0 -3
-8.75 1.071565949253934e-15 -36.19108431291425
-14.12349064332649 1.729628760913738e-15 -38.49249016235012
-14.12349064332649 1.729628760913738e-15 -41.50750983764988
-8.75 1.071565949253934e-15 -43.80891568708574
-8.75 1.071565949253934e-15 -76.19108431291426
-14.12349064332649 1.729628760913738e-15 -78.49249016235012
-14.12349064332649 1.729628760913738e-15 -81.50750983764988
-8.75 1.071565949253934e-15 -83.80891568708574
-8.75 0 -120
8.75 0 -120
8.75 0 -83.80891568708574
14.12349064332649 0 -81.50750983764988
14.12349064332649 0 -78.49249016235012
8.75 0 -76.19108431291426
-8.75 10.47663733299824 -41.7103016774114
8.75 10.47663733299822 -41.71030167741139
8.75 10.47663733299822 -38.28969832258861
-8.75 10.47663733299825 -38.2896983225886
8.75 20 -3
8.75 20 -32.11172564438805
11.75 23 -3
-11.75 23 -3
-8.75 20 -3
11.75 23 0
-11.75 23 0
-8.75 20 -32.11172564438805
-8.75 20 -47.88827435561195
-8.75 20 -72.11172564438806
-8.75 10.47663733299823 -78.28969832258861
8.75 10.47663733299823 -78.28969832258861
-8.75 10.47663733299822 -81.71030167741138
8.75 10.47663733299822 -81.71030167741138
-8.75 20 -87.88827435561194
-8.75 20 -112.1117256443881
-8.75 7.840202374092867 -120
8.75 7.840202374092867 -120
8.75 20 -87.88827435561194
8.75 20 -112.1117256443881
8.75 20 -47.88827435561195
8.75 20 -72.11172564438806
5.726325490456158 3.019297939780737 -83.80891568708574
-5.726325490456158 3.019297939780738 -83.80891568708574
11.45584657325981 3.019297939780737 -81.50750983764988
-11.45584657325981 3.019297939780738 -81.50750983764988
11.45584657325981 3.019297939780737 -78.49249016235012
5.726325490456158 3.019297939780737 -76.19108431291426
-5.726325490456158 3.019297939780738 -76.19108431291426
-11.45584657325981 3.019297939780738 -78.49249016235012
5.726325490456158 3.019297939780737 -43.80891568708574
-5.726325490456158 3.019297939780738 -43.80891568708574
11.45584657325981 3.019297939780737 -41.50750983764988
-11.45584657325981 3.019297939780738 -41.50750983764988
11.45584657325981 3.019297939780737 -38.49249016235012
5.726325490456158 3.019297939780737 -36.19108431291426
-5.726325490456158 3.019297939780738 -36.19108431291426
-11.45584657325981 3.019297939780738 -38.49249016235012
8.75 0 -29.5528674503314
8.75 0 -22.91465058774856
8.75 0 -16.27643372516569
8.75 0 -9.638216862582812
5.875000000000016 0 0
3.730349362740526e-14 0 0
-5.874999999999972 0 0
-8.75 0 -9.638216862582846
-8.75 0 -16.27643372516568
-8.75 0 -22.91465058774854
-8.75 0 -29.55286745033142
-8.75 0 -50.28534941225145
-8.75 0 -56.76178313741714
-8.75 0 -63.23821686258285
-8.75 0 -69.71465058774858
-8.75 0 -89.84076307257146
-8.75 0 -95.87261045805718
-8.75 0 -101.9044578435429
-8.75 0 -107.9363052290286
-8.75 0 -113.9681526145143
2.916666666666666 0 -120
-2.916666666666668 0 -120
8.75 0 -89.84076307257146
8.75 0 -95.87261045805718
8.75 0 -101.9044578435429
8.75 0 -107.9363052290286
8.75 0 -113.9681526145143
8.75 0 -50.28534941225145
8.75 0 -56.76178313741714
8.75 0 -63.23821686258285
8.75 0 -69.71465058774858
12.72482537574828 6.12795292971834 -41.50750983764988
8.805852382761316 11.04218962729529 -41.50750983764988
3.14277232867631 13.76938524561781 -41.50750983764988
-3.142772328676219 13.76938524561783 -41.50750983764988
-8.805852382761266 11.04218962729533 -41.50750983764988
-12.72482537574826 6.127952929718374 -41.50750983764988
-8.75 5.316298277309402 -43.17143614921135
-2.965568397131392 11.59009140708258 -42.43261889756299
2.965568397131419 11.59009140708258 -42.43261889756299
8.75 5.316298277309393 -43.17143614921135
12.72482537574828 6.12795292971834 -38.49249016235012
8.805852382761316 11.04218962729529 -38.49249016235012
3.14277232867631 13.76938524561781 -38.49249016235012
-3.142772328676219 13.76938524561783 -38.49249016235012
-8.805852382761266 11.04218962729533 -38.49249016235012
-12.72482537574826 6.127952929718374 -38.49249016235012
8.75 5.316298277309399 -36.82856385078864
2.965568397131401 11.59009140708257 -37.567381102437
-2.965568397131402 11.59009140708257 -37.567381102437
-8.75 5.316298277309408 -36.82856385078864
8.75 6.666666666666651 -3
8.75 13.33333333333329 -3
8.75 20 -26.28938051551044
8.75 20 -20.46703538663283
8.75 20 -14.64469025775522
8.75 20 -8.8223451288776
8.75 15.23831866649912 -35.20071198348833
-5.875000000000016 23 -3
-3.730349362740526e-14 23 -3
5.874999999999972 23 -3
-11.75 5.749999999999988 -3
-11.75 11.49999999999999 -3
-11.75 17.24999999999999 -3
-8.75 13.33333333333335 -3
-8.75 6.666666666666705 -3
-2.916666666666666 20 -3
2.916666666666668 20 -3
11.75 5.749999999999988 -3
11.75 11.49999999999999 -3
11.75 17.24999999999999 -3
11.75 5.749999999999988 0
11.75 11.49999999999999 0
11.75 17.24999999999999 0
-5.875000000000016 23 0
-3.730349362740526e-14 23 0
5.874999999999972 23 0
-11.75 5.749999999999988 0
-11.75 11.49999999999999 0
-11.75 17.24999999999999 0
-8.75 20 -8.822345128877608
-8.75 20 -14.64469025775522
-8.75 20 -20.46703538663284
-8.75 20 -26.28938051551045
-8.75 15.23831866649913 -35.20071198348832
-8.75 15.23831866649911 -44.79928801651167
-8.75 20 -66.05586282219402
-8.75 20 -60
-8.75 20 -53.94413717780597
-8.75 15.23831866649913 -75.20071198348832
-8.75 5.316298277309403 -76.82856385078864
8.75 5.316298277309403 -76.82856385078864
2.9655683971314 11.5900914070826 -77.56738110243701
-2.965568397131411 11.5900914070826 -77.56738110243701
12.72482537574828 6.12795292971834 -78.49249016235012
8.805852382761316 11.04218962729529 -78.49249016235012
3.14277232867631 13.76938524561781 -78.49249016235012
-3.142772328676219 13.76938524561783 -78.49249016235012
-8.805852382761266 11.04218962729533 -78.49249016235012
-12.72482537574826 6.127952929718374 -78.49249016235012
12.72482537574828 6.12795292971834 -81.50750983764988
8.805852382761316 11.04218962729529 -81.50750983764988
3.14277232867631 13.76938524561781 -81.50750983764988
-3.142772328676219 13.76938524561783 -81.50750983764988
-8.805852382761266 11.04218962729533 -81.50750983764988
-12.72482537574826 6.127952929718374 -81.50750983764988
-8.75 5.316298277309398 -83.17143614921136
-2.9655683971314 11.59009140708258 -82.432618897563
2.965568397131411 11.59009140708258 -82.432618897563
8.75 5.316298277309396 -83.17143614921136
-8.75 15.2383186664991 -84.79928801651165
-8.75 20 -106.055862822194
-8.75 20 -100
-8.75 20 -93.94413717780597
-8.75 11.89346824939525 -117.370575214796
-8.75 15.94673412469762 -114.741150429592
-8.75 3.920101187046427 -120
2.916666666666666 7.840202374092867 -120
-2.916666666666668 7.840202374092867 -120
8.75 3.920101187046427 -120
8.75 15.2383186664991 -84.79928801651165
8.75 20 -106.055862822194
8.75 20 -100
8.75 20 -93.94413717780597
8.75 11.89346824939525 -117.370575214796
8.75 15.94673412469762 -114.741150429592
8.75 15.2383186664991 -44.79928801651166
8.75 20 -66.05586282219402
8.75 20 -60
8.75 20 -53.94413717780597
8.75 15.23831866649913 -75.20071198348832
2.916666666666666 20 -47.88827435561195
-2.916666666666668 20 -47.88827435561195
2.916666666666666 20 -32.11172564438805
-2.916666666666668 20 -32.11172564438805
2.916666666666666 20 -72.11172564438806
-2.916666666666668 20 -72.11172564438806
2.916666666666666 20 -87.88827435561194
-2.916666666666668 20 -87.88827435561194
2.916666666666666 20 -112.1117256443881
-2.916666666666668 20 -112.1117256443881
2.291721746250615 6.054335232672057 -83.80891568708574
-2.291721746250611 6.054335232672057 -83.80891568708574
0 3.019297939780737 -83.80891568708574
8.599070170365644 3.019297939780737 -82.67815774842524
8.397711648661845 8.356495666555562 -81.50750983764988
3.07562468417951 11.44085283365267 -81.50750983764988
-3.07562468417944 11.44085283365269 -81.50750983764988
-8.397711648661819 8.35649566655559 -81.50750983764988
-8.599070170365644 3.019297939780737 -82.67815774842524
8.599070170365644 3.019297939780737 -77.32184225157476
2.664535259100376e-15 3.019297939780737 -76.19108431291426
-8.599070170365644 3.019297939780737 -77.32184225157476
8.397711648661845 8.356495666555562 -78.49249016235012
3.07562468417951 11.44085283365267 -78.49249016235012
-3.07562468417944 11.44085283365269 -78.49249016235012
-8.397711648661819 8.35649566655559 -78.49249016235012
2.291721746250615 6.054335232672057 -76.19108431291426
-2.291721746250611 6.054335232672057 -76.19108431291426
2.291721746250615 6.054335232672057 -43.80891568708574
-2.291721746250611 6.054335232672057 -43.80891568708574
0 3.019297939780737 -43.80891568708574
8.599070170365644 3.019297939780737 -42.67815774842523
8.397711648661845 8.356495666555562 -41.50750983764988
3.07562468417951 11.44085283365267 -41.50750983764988
-3.07562468417944 11.44085283365269 -41.50750983764988
-8.397711648661819 8.35649566655559 -41.50750983764988
-8.599070170365644 3.019297939780737 -42.67815774842523
8.599070170365644 3.019297939780737 -37.32184225157477
2.664535259100376e-15 3.019297939780737 -36.19108431291426
-8.599070170365644 3.019297939780737 -37.32184225157477
8.397711648661845 8.356495666555562 -38.49249016235012
3.07562468417951 11.44085283365267 -38.49249016235012
-3.07562468417944 11.44085283365269 -38.49249016235012
-8.397711648661819 8.35649566655559 -38.49249016235012
2.291721746250615 6.054335232672057 -36.19108431291425
-2.291721746250611 6.054335232672057 -36.19108431291425
3.430441998901527 0 -87.04031024176786
0 0 -115.3807865688988
-3.707715404824715 0 -71.92546356205052
3.844978280499289 0 -46.98889797573973
2.552571378319109 0 -104.9203815362858
-3.238855420466901 0 -32.57362847194099
2.760450390270414 0 -60.05917941409638
-2.841467714621041 0 -4.149018853320612
-3.001135561173019 0 -19.59554215645711
-3.342242196168055 0 -92.83528304522821
-3.099305191024158 0 -53.80711189555058
3.001135561173029 0 -26.23375901903998
3.001135561173026 0 -12.95732529387425
-3.878061782448624 0 -38.92753384331891
3.651625530296363 0 -5.737543293354925
-2.847903396695115 0 -78.51197820762667
10.92002513338644 0 -40
4.084293249291628 0 -40.83364860719286
-9.925008613820321 0 -39.78550676866378
-11.43674532166325 0 -80
-4.138441996821506 0 -103.9150736387048
2.942236170158568 0 -72.90786053551072
-0.2083869350850076 0 -66.30756182699818
-2.25492709267267 0 -46.92928518724955
3.123469073303735 0 -33.47407336589166
4.094876020520105 0 -80.59071183579319
-2.694137928906922 0 -85.43799368167885
3.580411063897643 0 -93.89433918653747
3.201526961351629 0 -53.14031854483544
-3.835273055968639 0 -61.10838114363514
-0.3446340992382471 0 -98.89035761805937
-4.021946745616113 0 -12.26274768780932
-4.147771084093378 0 -26.17408953710361
4.100227112234608 0 -19.59554215645712
-3.38045748577481 0 -110.6691807111955
3.660096662622741 0 -111.2939772102701
9.968371461434616 0 -80.11814236715864
4.598827072866137 0 -98.99460311901254
-5.050275079175673 0 -66.45885479660305
4.964396599973115 0 -66.47643372516572
-0.7664896621721002 0 -8.532354073018034
4.668302878177819 0 -115.9231967719732
-4.639768268295377 0 -115.8594420271696
-5.187456287304409 0 -98.81383384829218
-5.025980824481852 0 -7.516467495346163
-10.66590211630014 2.80886291195052 -42.83260596526544
10.66590211635929 2.808862911937359 -42.83260596524237
13.76938524561782 3.142772328676276 -40.03348709454221
11.0421896272953 8.805852382761305 -40.03348709454221
6.127952929718365 12.72482537574827 -40.03348709454221
-13.76938524561781 3.142772328676299 -39.96651290545779
0.03807589487671042 14.12343931832329 -40
-6.127952929718292 12.7248253757483 -40.03348709454221
-11.01840956763968 8.835589315482991 -40
-10.66590211631426 2.808862911949132 -37.16739403474025
10.66590211636249 2.80886291193699 -37.16739403475891
8.75 15.4946613509223 -18.31594023901762
8.75 6.398979268913385 -27.2321670895043
8.75 5.072458344722055 -12.95975528205016
8.75 9.160806052639437 -33.09382405025699
8.75 14.39015484481961 -28.82278798757567
8.75 5.513857060824419 -19.84253280496639
8.75 11.65636907224883 -23.11347522119814
8.75 14.95770120879141 -11.73351769331641
8.75 9.999999999999973 -8.137793533795071
8.75 4.175216719772444 -32.57970135075912
8.75 4.347825002277736 -7.347153135685609
8.75 10.4491745062515 -15.68383579572396
8.75 16.37504978291748 -23.3843293377114
8.75 15.65820690842494 -6.938731271197817
10.25 3.10416666666666 -3
-10.25 3.104166666666674 -3
11.75 20.125 -1.5
11.75 8.624999999999988 -1.5
11.75 14.37499999999999 -1.5
11.75 2.874999999999994 -1.5
3.157610638484556 18.22886740495932 0
-2.707174061168086 4.878797530676509 0
7.069955745470661 8.716546370640001 0
-6.619519168154191 14.39111856499582 0
7.102873022115112 14.37499999999999 0
0.1126091443291166 11.52691623390895 0
-7.000954855602266 8.644857627020135 0
-2.792058517349995 18.15992185565015 0
2.948495529093417 4.721447277005963 0
-7.528051718759414 18.81262893003678 0
7.528051718759418 4.187371069963205 0
7.820492259183636 19.07601590637069 0
-7.553981076842906 4.160878030182233 0
-11.75 20.125 -1.5
-11.75 14.37499999999999 -1.5
-11.75 8.624999999999988 -1.5
-11.75 2.874999999999994 -1.5
-8.75 15.4946613509223 -18.31594023901762
-8.75 6.39897926891339 -27.2321670895043
-8.75 5.072458344722067 -12.95975528205016
-8.75 9.160806052639455 -33.09382405025698
-8.75 14.39015484481962 -28.82278798757567
-8.75 5.513857060824423 -19.84253280496639
-8.75 11.65636907224884 -23.11347522119814
-8.75 14.95770120879141 -11.73351769331641
-8.75 10.00000000000003 -8.137793533795044
-8.75 4.175216719772451 -32.57970135075912
-8.75 4.34782500227776 -7.347153135685609
-8.75 10.44917450625151 -15.68383579572396
-8.75 16.37504978291748 -23.3843293377114
-8.75 15.65820690842496 -6.93873127119781
-8.75 14.1819707363691 -57.73060172341765
-8.75 6.258959318486978 -66.97303162147723
-8.75 9.535351584326307 -47.89650369526513
-8.75 9.4285360674433 -73.06247620714264
-8.75 5.051256617693014 -52.75784196803686
-8.75 14.34902328144259 -68.66719551407282
-8.75 14.95968048677486 -50.97687962718697
-8.75 11.34691374158207 -63.27975205401294
-8.75 6.805934621083687 -59.19195716592202
-8.75 4.166903954114693 -47.78822165326376
-8.75 4.200758732647937 -72.55396131601427
-8.75 16.15204409284846 -63.088518661935
-8.75 10.30558255902232 -53.67981853840681
-10.66590211631405 2.80886291194846 -77.1673940347401
10.66590211636273 2.808862911937974 -77.16739403475911
13.77780789112878 3.105639655092071 -80
11.0421896272953 8.805852382761309 -80.03348709454221
6.127952929718359 12.72482537574827 -79.96651290545779
-13.76938524561781 3.142772328676292 -80.03348709454221
0.03807589487670728 14.12343931832329 -80
-6.127952929718292 12.7248253757483 -80.03348709454221
-11.04218962729527 8.805852382761346 -80.03348709454221
-10.66590211630014 2.80886291195058 -82.83260596526543
10.66590211635941 2.808862911937859 -82.83260596524227
-8.75 10.79955467731515 -112.5833267919989
-8.75 5.218844958748348 -98.22988709566853
-8.75 15.22572602392277 -103.1431408017198
-8.75 6.556191837787452 -115.8123805905135
-8.75 9.438730814734477 -87.88608219993186
-8.75 14.98206403894502 -90.88583938492923
-8.75 15.05791894882692 -96.96800808912299
-8.75 5.174759658336569 -104.2949997093237
-8.75 5.223733067581382 -92.85668676531432
-8.75 5.511776134466364 -110.223714016885
-8.75 15.41869424321576 -109.2303876093039
-8.75 10.54015063335901 -106.7471191659308
-8.75 4.27571869398675 -87.77380112690292
-8.75 10.45986579829031 -93.82518597081099
-8.75 10.40573781903702 -100
0 3.920101187046433 -120
-4.819015920570177 3.920101187046433 -120
4.819015920570177 3.920101187046432 -120
8.75 10.79955467731515 -112.5833267919989
8.75 5.232051515365934 -98.39071864678641
8.75 15.22572602392277 -103.1431408017198
8.75 6.556191837787452 -115.8123805905135
8.75 9.456332179466674 -87.78915998792691
8.75 14.94401869164562 -90.46751818559974
8.75 14.86834458853499 -96.94247166312523
8.75 5.176960751106167 -104.3218049678434
8.75 5.223733067581382 -92.85668676531432
8.75 5.512142983261297 -110.2281815599716
8.75 15.41869424321576 -109.2303876093039
8.75 10.54015063335901 -106.7471191659308
8.75 4.277001592290843 -87.76673682573639
8.75 10.41918852040987 -93.8068771318797
8.75 10.40573781903702 -100
8.75 14.1819707363691 -57.73060172341765
8.75 6.258959318486978 -66.97303162147723
8.75 9.535351584326298 -47.89650369526512
8.75 9.428536067443298 -73.06247620714264
8.75 5.051256617693011 -52.75784196803686
8.75 14.34902328144259 -68.66719551407282
8.75 14.95968048677486 -50.97687962718697
8.75 11.34691374158207 -63.27975205401294
8.75 6.805934621083686 -59.19195716592203
8.75 4.166903954114686 -47.78822165326376
8.75 4.200758732647937 -72.55396131601427
8.75 16.15204409284846 -63.088518661935
8.75 10.30558255902232 -53.67981853840681
-1.77635683940025e-15 15.78300915856512 -45.15263830839117
4.456492807834573 16.43203387801154 -45.57367204662211
-4.456492807834572 16.43203387801154 -45.57367204662211
-1.77635683940025e-15 15.78300915856511 -34.84736169160884
-4.456492807834568 16.43203387801154 -34.42632795337789
4.45649280783457 16.43203387801154 -34.42632795337789
3.707701208791406 20 -17.55586282219402
0 20 -27.79023155314645
0 20 -7.3214940912416
-3.707701208791406 20 -17.55586282219403
-2.561616241421304 20 -12.12353391371247
2.561616241421303 20 -22.98819173067558
3.924455389171861 20 -11.41182538787484
-3.924455389171863 20 -23.69990025651321
4.595656581617593 20 -28.25825101762172
-4.595656581617594 20 -6.853474626766333
-4.516027399279835 20 -27.88076106397967
4.516027399279835 20 -7.230964580408388
8.812499999999986 23 -1.5
2.937499999999966 23 -1.5
-8.812500000000007 23 -1.5
-2.937500000000027 23 -1.499999999999999
0.2360196235744851 20 -51.98765502349225
-0.2883162639842318 20 -67.29533960861721
-4.006308752868401 20 -63.17092553577749
2.54677667570035 20 -62.48457844905261
-3.341749618060403 20 -57.04815628117157
4.072366558956828 20 -56.07947983099712
-4.519638669320752 20 -67.81837275687947
-4.567754210478022 20 -52.06960938483707
4.535025415676556 20 -68.011846433728
5.380107433591633 20 -51.24342943099206
-1.77635683940025e-15 15.78300915856512 -74.84736169160882
4.45649280783457 16.43203387801154 -74.42632795337789
-4.456492807834575 16.43203387801154 -74.42632795337789
0 15.78300915856512 -85.15263830839116
4.456492807834575 16.43203387801154 -85.57367204662211
-4.456492807834575 16.43203387801154 -85.57367204662211
0.2883162639842354 20 -107.2953396086172
-0.2360196235744851 20 -91.98765502349225
4.006308752868402 20 -103.1709255357775
-2.546776675700348 20 -102.4845784490526
3.341749618060402 20 -97.04815628117157
-4.07236655895683 20 -96.07947983099712
-4.535025415676557 20 -108.011846433728
4.56775421047802 20 -92.06960938483707
4.519638669320754 20 -107.8183727568795
-5.380107433591631 20 -91.24342943099207
4.861111111111111 13.92010118704643 -116.055862822194
-4.861111111111109 13.92010118704643 -116.055862822194
0 16.48304735146997 -114.3932346168888
1.77635683940025e-15 11.39104644246238 -117.6965050680104
5.055555555555555 10.57700412541796 -118.2245886210001
5.055555555555555 17.26997653264281 -113.8827398314902
-5.055555555555552 10.57700412541796 -118.2245886210001
-5.055555555555555 17.26997653264281 -113.8827398314902
5.8895437472793 6.042491256798084 -82.9676035144356
-5.8895437472793 6.042491256798085 -82.9676035144356
-0.1058478957138565 9.128461010705079 -82.67158799418129
5.964748091808275 3.019297939780737 -79.58280130367498
-5.96474809180828 3.019297939780737 -80.417198696325
9.214916315811834 3.019297939780737 -79.916560260735
-9.214916315811838 3.019297939780737 -80.08343973926499
-1.674160719498509 3.019297939780737 -79.68890372843367
2.003382572553186 3.019297939780737 -80.61612414383887
10.27921998069313 5.889840180153611 -80.04352346461594
3.492287696090625e-14 11.84704945373458 -79.95647653538404
-5.940343124364084 10.25011728342916 -80.04352346461596
-10.27921998069312 5.889840180153624 -79.95647653538404
5.940343124364131 10.25011728342913 -80.04352346461594
5.889543747279296 6.042491256798096 -77.0323964855644
-5.889543747279252 6.042491256798139 -77.0323964855644
2.258216364022786e-14 9.019433736538536 -77.28145402523623
5.8895437472793 6.042491256798085 -42.9676035144356
-5.889543747279297 6.042491256798088 -42.9676035144356
1.857673043887347e-14 9.019433736538538 -42.71854597476377
5.964748091808275 3.019297939780737 -39.582801303675
-6.780635402696237 3.019297939780737 -40.20283553463157
-9.378093777989429 3.019297939780737 -40.04056710692631
9.214916315811834 3.019297939780737 -39.916560260735
2.209778686654307 3.019297939780737 -41.18302878062975
-2.792981211310792 3.019297939780737 -40.85767070709241
10.27921998069313 5.889840180153611 -40.04352346461596
3.492287696090625e-14 11.84704945373458 -39.95647653538404
-10.27921998069312 5.889840180153624 -39.95647653538403
-5.904843409234011 10.27060879751821 -40
5.975771728866465 10.22950306729086 -40
5.889543747279297 6.042491256798098 -37.0323964855644
-5.889543747279252 6.042491256798139 -37.0323964855644
2.057944703955066e-14 9.019433736538536 -37.28145402523623
-0.07749910647735937 9.936715208756892 -68.5997046236763
1.77635683940025e-15 9.679461895622497 -51.49850409679554
2.220446049250313e-15 9.679461895622508 -28.50149590320449
1.984523656517467e-15 9.71067527424289 -91.27251639821219
0 9.274184602648241 -108.8570541935122
0.6635616401813245 11.9878319483955 -10.61266076645248
-0.08049125313520555 8.746903847756382 -100.046279538827
-0.3987208481878586 9.30396115159925 -19.3325911797384
-0.05601308991767149 10.27059026085453 -60.36411910518657
-2.112698195835983 6.720955382297104 -6.799860659585306
-1.175625647840009 6.090494331270522 -114.185087101723
-2.669058071031241 13.96881924191316 -5.4003970825438
0.9364431821510907 14.04290224785086 -104.141582844017

CELLS 2852 12502
1 0
1 1
1 2
1 3
1 4
1 5
1 6
1 7
1 8
1 9
1 10
1 11
1 12
1 13
1 14
1 15
1 16
1 17
1 18
1 19
1 20
1 21
1 22
1 23
1 24
1 25
1 26
1 27
1 28
1 29
1 30
1 31
1 32
1 33
1 34
1 35
1 36
1 37
1 38
1 39
1 40
1 41
1 42
1 43
1 44
1 45
1 46
1 47
1 48
1 49
1 50
1 51
1 52
1 53
1 54
1 55
1 56
1 57
1 58
1 59
1 60
1 61
1 62
1 63
1 64
1 65
2 0 1
2 1 2
2 2 3
2 3 66
2 66 67
2 67 68
2 68 69
2 69 4
2 4 5
2 5 6
2 6 70
2 70 71
2 71 72
2 72 7
2 8 7
2 8 9
2 9 73
2 73 74
2 74 75
2 75 76
2 76 10
2 11 10
2 12 11
2 13 12
2 13 77
2 77 78
2 78 79
2 79 80
2 80 14
2 15 14
2 16 15
2 17 16
2 17 81
2 81 82
2 82 83
2 83 84
2 84 85
2 85 18
2 19 86
2 86 87
2 87 18
2 20 88
2 88 89
2 89 90
2 90 91
2 91 92
2 92 19
2 20 21
2 21 22
2 22 23
2 0 93
2 93 94
2 94 95
2 95 96
2 96 23
2 1 97
2 97 98
2 98 99
2 99 100
2 100 101
2 101 102
2 102 12
2 24 103
2 103 13
2 24 104
2 104 105
2 105 25
2 25 106
2 106 0
2 2 107
2 107 108
2 108 109
2 109 110
2 110 111
2 111 112
2 112 11
2 3 113
2 113 26
2 26 114
2 114 115
2 115 27
2 10 116
2 116 27
2 4 117
2 117 118
2 118 28
2 29 119
2 119 120
2 120 121
2 121 122
2 122 28
2 26 123
2 123 29
2 31 124
2 124 125
2 125 126
2 126 30
2 8 127
2 127 128
2 128 129
2 129 31
2 32 130
2 130 131
2 131 9
2 32 132
2 132 133
2 133 28
2 5 134
2 134 135
2 135 136
2 136 30
2 6 137
2 137 138
2 138 139
2 139 33
2 30 33
2 34 140
2 140 141
2 141 142
2 142 33
2 7 143
2 143 144
2 144 145
2 145 34
2 31 34
2 32 146
2 146 147
2 147 148
2 148 149
2 149 35
2 27 150
2 150 35
2 36 151
2 151 24
2 37 152
2 152 153
2 153 154
2 154 36
2 38 155
2 155 37
2 14 156
2 156 38
2 23 157
2 157 39
2 39 158
2 158 159
2 159 38
2 22 160
2 160 161
2 161 162
2 162 163
2 163 164
2 164 165
2 165 15
2 21 166
2 166 167
2 167 168
2 168 169
2 169 170
2 170 171
2 171 16
2 40 172
2 172 17
2 40 173
2 173 174
2 174 41
2 41 175
2 175 20
2 42 176
2 176 40
2 43 177
2 177 178
2 178 179
2 179 42
2 44 180
2 180 181
2 181 43
2 18 182
2 182 44
2 45 183
2 183 184
2 184 44
2 19 185
2 185 45
2 46 186
2 186 41
2 47 187
2 187 188
2 188 189
2 189 46
2 45 190
2 190 191
2 191 47
2 48 192
2 192 25
2 49 193
2 193 194
2 194 195
2 195 48
2 39 196
2 196 49
2 48 197
2 197 198
2 198 36
2 29 199
2 199 200
2 200 35
2 49 201
2 201 202
2 202 37
2 46 203
2 203 204
2 204 42
2 47 205
2 205 206
2 206 43
2 50 207
2 207 208
2 208 51
2 51 209
2 209 50
2 50 210
2 210 52
2 52 211
2 211 212
2 212 213
2 213 214
2 214 53
2 53 215
2 215 51
2 52 54
2 54 216
2 216 55
2 55 217
2 217 56
2 56 218
2 218 57
2 53 57
2 54 219
2 219 220
2 220 221
2 221 222
2 222 57
2 55 223
2 223 224
2 224 56
2 58 225
2 225 226
2 226 59
2 59 227
2 227 58
2 58 228
2 228 60
2 60 229
2 229 230
2 230 231
2 231 232
2 232 61
2 61 233
2 233 59
2 60 62
2 62 234
2 234 63
2 63 235
2 235 64
2 64 236
2 236 65
2 61 65
2 62 237
2 237 238
2 238 239
2 239 240
2 240 65
2 63 241
2 241 242
2 242 64
3 1 259 0
3 0 246 93
3 0 260 246
3 259 260 0
3 2 259 1
3 3 259 2
3 66 267 3
3 3 260 259
3 3 267 260
3 6 4 5
3 70 4 6
3 4 257 69
3 70 257 4
3 7 8 9
3 9 72 7
3 9 250 72
3 73 287 9
3 9 287 250
3 11 261 10
3 10 248 76
3 10 256 248
3 10 261 256
3 12 261 11
3 13 261 12
3 77 266 13
3 256 261 13
3 13 266 256
3 15 262 14
3 17 258 14
3 14 262 17
3 14 245 80
3 14 258 245
3 16 262 15
3 17 262 16
3 81 269 17
3 17 269 258
3 18 285 85
3 87 285 18
3 19 284 86
3 92 284 19
3 21 279 20
3 20 243 88
3 20 268 243
3 20 279 268
3 22 279 21
3 23 279 22
3 96 264 23
3 264 268 23
3 268 279 23
3 67 254 66
3 254 267 66
3 68 276 67
3 67 276 254
3 69 255 68
3 255 276 68
3 69 257 255
3 71 257 70
3 72 250 71
3 250 257 71
3 74 274 73
3 274 287 73
3 75 251 74
3 251 274 74
3 76 275 75
3 75 275 251
3 248 275 76
3 78 253 77
3 253 266 77
3 79 272 78
3 78 272 253
3 80 281 79
3 79 281 272
3 245 281 80
3 82 252 81
3 252 269 81
3 83 286 82
3 82 286 252
3 84 263 83
3 263 286 83
3 85 277 84
3 84 277 263
3 85 285 277
3 86 244 87
3 86 284 244
3 244 285 87
3 88 270 89
3 243 270 88
3 89 280 90
3 270 280 89
3 90 247 91
3 90 280 247
3 91 278 92
3 247 278 91
3 278 284 92
3 93 271 94
3 246 271 93
3 94 249 95
3 94 271 249
3 95 282 96
3 249 282 95
3 96 282 264
3 243 269 252
3 252 270 243
3 268 269 243
3 244 278 277
3 277 285 244
3 244 284 278
3 258 264 245
3 264 265 245
3 265 281 245
3 260 266 246
3 266 271 246
3 247 273 263
3 263 277 247
3 247 280 273
3 277 278 247
3 248 267 254
3 254 275 248
3 256 267 248
3 249 271 253
3 253 272 249
3 249 272 265
3 265 282 249
3 250 283 257
3 250 287 283
3 251 275 254
3 254 276 251
3 255 274 251
3 251 276 255
3 252 273 270
3 252 286 273
3 253 271 266
3 257 283 255
3 255 283 274
3 256 266 260
3 260 267 256
3 258 268 264
3 258 269 268
3 273 286 263
3 264 282 265
3 272 281 265
3 273 280 270
3 283 287 274
3 0 289 1
3 106 289 0
3 1 289 97
3 12 288 13
3 102 288 12
3 13 288 103
3 101 24 102
3 101 104 24
3 103 102 24
3 97 25 98
3 25 97 106
3 105 98 25
3 97 289 106
3 99 98 105
3 100 99 104
3 104 99 105
3 101 100 104
3 103 288 102
3 1 290 2
3 97 290 1
3 2 290 107
3 11 293 12
3 112 293 11
3 12 293 102
3 98 291 97
3 107 290 97
3 97 291 107
3 99 292 98
3 108 291 98
3 98 292 108
3 100 294 99
3 109 292 99
3 99 294 109
3 101 295 100
3 110 294 100
3 100 295 110
3 102 296 101
3 111 295 101
3 101 296 111
3 102 293 112
3 112 296 102
3 107 291 108
3 108 292 109
3 109 294 110
3 110 295 111
3 111 296 112
3 2 298 3
3 107 298 2
3 3 298 113
3 10 297 11
3 116 297 10
3 11 297 112
3 107 108 26
3 107 26 113
3 26 108 114
3 111 112 27
3 111 27 115
3 27 112 116
3 113 298 107
3 114 108 109
3 114 109 110
3 111 115 110
3 114 110 115
3 112 297 116
3 3 308 66
3 113 308 3
3 69 309 4
3 4 309 117
3 26 302 113
3 123 302 26
3 118 312 28
3 28 312 122
3 119 303 29
3 29 303 123
3 66 300 67
3 66 308 300
3 67 304 68
3 300 304 67
3 68 301 69
3 68 304 301
3 301 309 69
3 302 308 113
3 117 307 118
3 117 309 307
3 307 312 118
3 120 311 119
3 119 311 303
3 121 299 120
3 299 311 120
3 122 306 121
3 121 306 299
3 122 312 306
3 123 303 302
3 299 310 305
3 305 311 299
3 306 310 299
3 302 303 300
3 300 308 302
3 303 305 300
3 300 305 304
3 304 310 301
3 307 309 301
3 301 310 307
3 303 311 305
3 305 310 304
3 307 310 306
3 306 312 307
3 5 4 313
3 4 117 313
3 134 5 313
3 9 8 314
3 8 127 314
3 131 9 314
3 30 28 126
3 136 28 30
3 28 136 118
3 28 133 126
3 31 124 32
3 129 31 32
3 124 132 32
3 129 32 130
3 135 117 118
3 135 134 117
3 117 134 313
3 136 135 118
3 132 124 125
3 126 133 125
3 133 132 125
3 127 128 131
3 127 131 314
3 128 129 130
3 128 130 131
3 5 318 6
3 134 318 5
3 6 318 137
3 33 315 30
3 30 315 136
3 139 315 33
3 135 316 134
3 134 316 137
3 137 318 134
3 136 317 135
3 138 316 135
3 135 317 138
3 136 315 139
3 139 317 136
3 137 316 138
3 138 317 139
3 6 329 70
3 137 329 6
3 72 331 7
3 7 331 143
3 33 330 139
3 142 330 33
3 34 328 140
3 145 328 34
3 70 327 71
3 70 329 327
3 71 320 72
3 71 327 320
3 320 331 72
3 138 321 137
3 321 329 137
3 139 323 138
3 138 323 321
3 139 330 323
3 140 326 141
3 140 328 326
3 141 319 142
3 141 326 319
3 319 330 142
3 143 325 144
3 143 331 325
3 144 322 145
3 144 325 322
3 322 328 145
3 319 324 323
3 323 330 319
3 319 326 324
3 324 325 320
3 320 327 324
3 325 331 320
3 323 324 321
3 324 327 321
3 327 329 321
3 322 325 324
3 324 326 322
3 326 328 322
3 8 7 335
3 7 143 335
3 127 8 335
3 34 31 332
3 31 129 332
3 145 34 332
3 128 127 334
3 127 143 334
3 143 127 335
3 129 128 333
3 128 144 333
3 144 128 334
3 129 145 332
3 145 129 333
3 143 144 334
3 144 145 333
3 73 9 346
3 9 131 346
3 10 76 345
3 116 10 345
3 27 116 339
3 150 27 339
3 130 32 349
3 32 146 349
3 149 35 340
3 35 150 340
3 74 73 338
3 338 73 346
3 75 74 341
3 74 338 341
3 76 75 337
3 337 75 341
3 76 337 345
3 339 116 345
3 131 130 344
3 344 130 349
3 131 344 346
3 146 147 343
3 146 343 349
3 147 148 336
3 147 336 343
3 148 149 348
3 336 148 348
3 149 340 348
3 150 339 340
3 336 342 347
3 342 336 348
3 343 336 347
3 339 337 340
3 337 339 345
3 340 337 342
3 337 341 342
3 341 338 347
3 344 338 346
3 338 344 347
3 340 342 348
3 342 341 347
3 344 343 347
3 343 344 349
3 77 13 359
3 13 103 359
3 14 80 360
3 156 14 360
3 103 24 352
3 24 151 352
3 151 36 356
3 36 154 356
3 152 37 355
3 37 155 355
3 155 38 353
3 38 156 353
3 78 77 354
3 354 77 359
3 79 78 358
3 78 354 358
3 80 79 351
3 351 79 358
3 80 351 360
3 103 352 359
3 352 151 356
3 153 152 361
3 152 355 361
3 154 153 350
3 350 153 361
3 154 350 356
3 155 353 355
3 353 156 360
3 356 350 362
3 350 357 358
3 357 350 361
3 350 358 362
3 353 351 355
3 351 353 360
3 355 351 357
3 357 351 358
3 352 354 359
3 354 352 362
3 352 356 362
3 358 354 362
3 355 357 361
3 14 363 15
3 156 363 14
3 15 363 165
3 22 364 23
3 160 364 22
3 23 364 157
3 38 165 156
3 164 38 159
3 164 165 38
3 160 39 157
3 39 161 158
3 160 161 39
3 165 363 156
3 157 364 160
3 158 163 159
3 158 161 162
3 158 162 163
3 164 159 163
3 15 368 16
3 165 368 15
3 16 368 171
3 21 365 22
3 166 365 21
3 22 365 160
3 160 366 161
3 160 365 166
3 166 366 160
3 161 367 162
3 161 366 167
3 167 367 161
3 162 369 163
3 162 367 168
3 168 369 162
3 163 370 164
3 163 369 169
3 169 370 163
3 164 371 165
3 164 370 170
3 170 371 164
3 171 368 165
3 165 371 171
3 167 366 166
3 168 367 167
3 169 369 168
3 170 370 169
3 171 371 170
3 16 372 17
3 171 372 16
3 17 372 172
3 20 373 21
3 175 373 20
3 21 373 166
3 170 40 171
3 170 173 40
3 172 171 40
3 166 41 167
3 41 166 175
3 174 167 41
3 166 373 175
3 168 167 174
3 169 168 174
3 170 169 173
3 173 169 174
3 172 372 171
3 81 17 386
3 17 172 386
3 18 85 182
3 172 40 378
3 40 176 378
3 176 42 379
3 42 179 379
3 177 43 384
3 43 181 384
3 180 44 377
3 44 182 377
3 82 81 382
3 382 81 386
3 83 82 375
3 375 82 382
3 84 83 381
3 83 375 381
3 85 84 383
3 84 381 383
3 182 85 377
3 377 85 383
3 172 378 386
3 378 176 379
3 178 177 376
3 376 177 384
3 179 178 380
3 178 376 380
3 379 179 380
3 181 180 374
3 374 180 377
3 181 374 384
3 374 377 383
3 374 383 385
3 384 374 385
3 381 375 388
3 375 382 387
3 375 387 388
3 380 376 388
3 376 384 385
3 376 385 388
3 378 379 387
3 378 382 386
3 382 378 387
3 379 380 387
3 387 380 388
3 383 381 385
3 385 381 388
3 18 390 87
3 182 390 18
3 86 391 19
3 19 391 185
3 44 390 182
3 184 390 44
3 45 391 183
3 185 391 45
3 87 389 86
3 389 391 86
3 87 390 389
3 183 389 184
3 183 391 389
3 389 390 184
3 19 185 92
3 88 404 20
3 20 404 175
3 175 396 41
3 41 396 186
3 45 395 185
3 190 395 45
3 186 397 46
3 46 397 189
3 187 402 47
3 47 402 191
3 89 400 88
3 400 404 88
3 90 393 89
3 393 400 89
3 91 399 90
3 90 399 393
3 92 401 91
3 91 401 399
3 185 395 92
3 395 401 92
3 175 404 396
3 396 397 186
3 188 394 187
3 394 402 187
3 189 398 188
3 188 398 394
3 397 398 189
3 191 392 190
3 392 395 190
3 191 402 392
3 392 401 395
3 392 403 401
3 402 403 392
3 399 406 393
3 393 405 400
3 393 406 405
3 398 406 394
3 394 403 402
3 394 406 403
3 396 405 397
3 396 404 400
3 400 405 396
3 397 405 398
3 405 406 398
3 401 403 399
3 403 406 399
3 93 416 0
3 0 416 106
3 23 417 96
3 157 417 23
3 106 409 25
3 25 409 192
3 39 410 157
3 196 410 39
3 192 413 48
3 48 413 195
3 193 412 49
3 49 412 196
3 94 411 93
3 411 416 93
3 95 415 94
3 94 415 411
3 96 408 95
3 408 415 95
3 96 417 408
3 106 416 409
3 410 417 157
3 409 413 192
3 194 418 193
3 193 418 412
3 195 407 194
3 407 418 194
3 195 413 407
3 196 412 410
3 413 419 407
3 407 415 414
3 414 418 407
3 407 419 415
3 410 412 408
3 408 417 410
3 412 414 408
3 414 415 408
3 409 416 411
3 411 419 409
3 409 419 413
3 415 419 411
3 412 418 414
3 151 24 104
3 105 25 192
3 151 422 36
3 36 422 198
3 48 421 192
3 197 421 48
3 105 420 104
3 104 422 151
3 420 422 104
3 192 421 105
3 105 421 420
3 198 420 197
3 420 421 197
3 198 422 420
3 123 26 114
3 115 27 150
3 123 425 29
3 29 425 199
3 35 424 150
3 200 424 35
3 115 423 114
3 114 425 123
3 423 425 114
3 150 424 115
3 115 424 423
3 199 423 200
3 199 425 423
3 423 424 200
3 122 437 28
3 28 437 133
3 29 434 119
3 199 434 29
3 132 435 32
3 32 435 146
3 149 436 35
3 35 436 200
3 119 431 120
3 119 434 431
3 120 426 121
3 120 431 426
3 121 432 122
3 426 432 121
3 432 437 122
3 133 428 132
3 428 435 132
3 133 437 428
3 146 430 147
3 146 435 430
3 147 429 148
3 147 430 429
3 148 433 149
3 429 433 148
3 433 436 149
3 200 427 199
3 427 434 199
3 200 436 427
3 429 430 426
3 426 431 429
3 430 432 426
3 427 433 431
3 431 434 427
3 427 436 433
3 428 432 430
3 430 435 428
3 428 437 432
3 431 433 429
3 30 438 33
3 126 438 30
3 34 440 31
3 31 440 124
3 33 438 142
3 140 440 34
3 124 441 125
3 124 440 140
3 140 441 124
3 125 439 126
3 141 439 125
3 125 441 141
3 142 438 126
3 126 439 142
3 141 441 140
3 142 439 141
3 36 449 154
3 198 449 36
3 152 448 37
3 37 448 202
3 195 451 48
3 48 451 197
3 49 450 193
3 201 450 49
3 153 444 152
3 444 448 152
3 154 446 153
3 153 446 444
3 154 449 446
3 193 445 194
3 193 450 445
3 194 447 195
3 445 447 194
3 447 451 195
3 197 442 198
3 197 451 442
3 442 449 198
3 202 443 201
3 443 450 201
3 202 448 443
3 442 447 446
3 446 449 442
3 442 451 447
3 444 445 443
3 443 448 444
3 445 450 443
3 444 446 445
3 446 447 445
3 37 454 155
3 202 454 37
3 159 38 155
3 196 39 158
3 196 453 49
3 49 453 201
3 155 454 159
3 159 452 158
3 158 453 196
3 452 453 158
3 159 454 452
3 201 452 202
3 201 453 452
3 452 454 202
3 173 176 40
3 174 41 186
3 176 457 42
3 42 457 204
3 46 456 186
3 203 456 46
3 174 455 173
3 173 457 176
3 455 457 173
3 186 456 174
3 174 456 455
3 204 455 203
3 455 456 203
3 204 457 455
3 42 467 179
3 204 467 42
3 177 464 43
3 43 464 206
3 189 465 46
3 46 465 203
3 47 466 187
3 205 466 47
3 178 461 177
3 461 464 177
3 179 463 178
3 178 463 461
3 179 467 463
3 187 460 188
3 187 466 460
3 188 462 189
3 460 462 188
3 462 465 189
3 203 459 204
3 203 465 459
3 459 467 204
3 206 458 205
3 458 466 205
3 206 464 458
3 458 461 460
3 460 466 458
3 458 464 461
3 462 463 459
3 459 465 462
3 463 467 459
3 461 462 460
3 461 463 462
3 43 475 181
3 206 475 43
3 180 474 44
3 44 474 184
3 183 472 45
3 45 472 190
3 191 473 47
3 47 473 205
3 181 469 180
3 469 474 180
3 181 475 469
3 184 471 183
3 471 472 183
3 184 474 471
3 190 468 191
3 190 472 468
3 468 473 191
3 205 470 206
3 205 473 470
3 470 475 206
3 468 471 470
3 470 473 468
3 468 472 471
3 470 471 469
3 469 475 470
3 471 474 469
3 207 209 50
3 209 208 51
3 208 209 207
3 207 50 476
3 50 210 476
3 51 208 477
3 215 51 477
3 52 211 210
3 214 53 215
3 208 207 478
3 212 207 476
3 207 212 478
3 208 213 477
3 213 208 478
3 210 211 476
3 211 212 476
3 212 213 478
3 213 214 477
3 214 215 477
3 209 484 50
3 50 479 210
3 50 484 479
3 51 480 209
3 215 480 51
3 52 481 54
3 210 481 52
3 57 482 53
3 53 482 215
3 54 481 216
3 216 479 55
3 55 479 217
3 217 483 56
3 56 480 218
3 56 483 480
3 218 482 57
3 480 483 209
3 483 484 209
3 479 481 210
3 215 482 480
3 216 481 479
3 479 484 217
3 217 484 483
3 480 482 218
3 52 54 485
3 211 52 485
3 57 53 488
3 53 214 488
3 54 219 485
3 222 57 488
3 212 211 489
3 219 211 485
3 211 219 489
3 213 212 486
3 212 220 486
3 220 212 489
3 214 213 487
3 221 213 486
3 213 221 487
3 222 214 487
3 214 222 488
3 219 220 489
3 220 221 486
3 221 222 487
3 54 216 219
3 216 55 490
3 55 223 490
3 56 218 491
3 224 56 491
3 222 218 57
3 219 216 490
3 218 222 491
3 220 219 490
3 221 220 492
3 223 220 490
3 220 223 492
3 222 221 491
3 221 224 491
3 224 221 492
3 223 224 492
3 217 223 55
3 217 56 224
3 223 217 224
3 225 227 58
3 226 59 227
3 225 226 227
3 225 58 493
3 58 228 493
3 59 226 494
3 233 59 494
3 60 229 228
3 232 61 233
3 226 225 495
3 230 225 493
3 225 230 495
3 226 231 494
3 231 226 495
3 228 229 493
3 229 230 493
3 230 231 495
3 231 232 494
3 232 233 494
3 227 500 58
3 58 496 228
3 58 500 496
3 59 501 227
3 233 497 59
3 497 501 59
3 60 499 62
3 228 499 60
3 65 498 61
3 61 498 233
3 62 499 234
3 234 496 63
3 63 496 235
3 235 501 64
3 64 497 236
3 64 501 497
3 236 498 65
3 227 501 500
3 496 499 228
3 233 498 497
3 234 499 496
3 496 500 235
3 500 501 235
3 497 498 236
3 60 62 502
3 229 60 502
3 65 61 504
3 61 232 504
3 62 237 502
3 240 65 504
3 230 229 506
3 237 229 502
3 229 237 506
3 231 230 503
3 230 238 503
3 238 230 506
3 232 231 505
3 239 231 503
3 231 239 505
3 232 240 504
3 240 232 505
3 237 238 506
3 238 239 503
3 239 240 505
3 62 234 237
3 234 63 507
3 63 241 507
3 64 236 508
3 242 64 508
3 240 236 65
3 237 234 507
3 236 240 508
3 238 237 507
3 239 238 509
3 241 238 507
3 238 241 509
3 240 239 508
3 239 242 508
3 242 239 509
3 241 242 509
3 235 241 63
3 242 235 64
3 242 241 235
4 384 475 464 514
4 475 470 464 514
4 206 464 475 470
4 443 444 448 510
4 418 510 414 518
4 454 202 443 452
4 434 427 199 425
4 448 202 443 454
4 463 513 380 516
4 436 427 433 512
4 338 517 515 519
4 424 200 436 427
4 357 510 361 518
4 361 510 444 518
4 442 451 421 511
4 427 199 425 423
4 424 200 427 423
4 450 418 445 510
4 437 312 133 521
4 281 272 265 510
4 465 398 397 513
4 338 274 517 519
4 336 348 433 517
4 459 457 467 513
4 467 457 379 513
4 463 459 467 513
4 467 459 204 457
4 451 197 442 421
4 203 456 459 465
4 422 449 198 442
4 463 467 379 513
4 447 451 442 511
4 468 392 473 514
4 469 475 374 514
4 427 425 434 512
4 225 416 246 511
4 450 443 201 510
4 414 510 408 518
4 450 412 418 510
4 452 201 443 510
4 458 464 470 522
4 118 133 312 521
4 272 265 510 518
4 442 198 422 420
4 456 459 455 203
4 443 444 510 518
4 376 380 388 522
4 464 206 458 470
4 473 466 205 522
4 473 205 470 522
4 309 515 301 519
4 427 431 433 512
4 451 413 421 511
4 443 450 445 510
4 424 427 436 512
4 374 475 384 514
4 473 392 402 514
4 450 201 453 510
4 356 350 449 511
4 453 201 452 510
4 443 454 452 510
4 424 423 427 512
4 427 423 425 512
4 398 513 462 516
4 443 448 454 510
4 281 351 272 510
4 387 380 513 516
4 459 463 462 513
4 473 402 466 522
4 246 227 225 511
4 447 413 451 511
4 380 463 379 513
4 463 516 380 522
4 468 472 392 514
4 380 379 387 513
4 343 347 336 515
4 445 510 418 518
4 398 465 462 513
4 463 462 513 516
4 433 512 431 517
4 336 515 347 517
4 434 431 427 512
4 351 272 510 518
4 449 442 422 511
4 515 517 255 519
4 473 514 402 522
4 465 456 459 513
4 415 414 408 518
4 348 340 433 512
4 442 420 422 511
4 405 513 398 516
4 380 516 388 522
4 470 514 473 522
4 412 414 418 510
4 357 355 361 510
4 384 514 464 522
4 464 514 470 522
4 270 513 400 516
4 415 249 511 518
4 459 462 465 513
4 456 455 459 513
4 465 397 456 513
4 274 255 517 519
4 437 515 312 521
4 118 312 515 521
4 398 405 397 513
4 224 360 245 510
4 442 421 420 511
4 303 311 434 431
4 446 442 449 511
4 270 400 393 516
4 336 342 348 517
4 459 204 457 455
4 421 197 442 420
4 429 343 336 515
4 429 515 336 517
4 395 392 472 520
4 458 470 205 522
4 471 472 468 514
4 449 422 356 511
4 466 458 205 522
4 459 455 457 513
4 473 470 468 514
4 469 470 475 514
4 340 436 433 512
4 253 511 249 518
4 299 310 515 517
4 347 515 338 517
4 392 514 472 520
4 446 449 350 511
4 358 511 253 518
4 311 305 431 512
4 272 249 265 518
4 270 273 513 516
4 447 511 442 518
4 301 255 515 517
4 376 461 380 522
4 431 512 305 517
4 301 515 310 517
4 272 358 253 518
4 113 3 234 298
4 10 116 236 297
4 375 387 382 516
4 405 400 513 516
4 407 419 413 511
4 356 362 350 511
4 387 513 382 516
4 299 515 426 517
4 276 301 304 517
4 271 411 415 511
4 405 393 400 516
4 443 510 445 518
4 351 358 272 518
4 384 464 376 522
4 463 462 516 522
4 381 263 514 516
4 275 512 337 517
4 301 309 307 515
4 299 311 305 431
4 463 380 461 522
4 308 302 241 512
4 345 242 339 512
4 409 416 225 511
4 359 352 226 511
4 272 253 249 518
4 133 118 319 521
4 157 23 216 364
4 357 351 510 518
4 342 340 348 512
4 311 303 305 512
4 407 511 447 518
4 307 117 321 519
4 419 415 511 518
4 264 417 223 510
4 309 301 255 519
4 462 398 516 522
4 117 307 309 519
4 415 411 419 511
4 358 362 354 511
4 309 307 515 519
4 407 413 447 511
4 246 416 271 511
4 336 433 429 517
4 387 388 380 516
4 303 431 434 512
4 20 175 210 373
4 446 442 511 518
4 410 223 417 510
4 224 353 360 510
4 386 378 208 513
4 318 5 313 134
4 8 127 335 314
4 270 393 280 516
4 207 396 404 513
4 311 431 303 512
4 308 241 267 512
4 384 376 385 522
4 388 385 376 522
4 324 515 307 519
4 395 401 392 520
4 358 354 253 511
4 415 249 271 511
4 254 512 275 517
4 386 208 252 513
4 406 405 398 516
4 358 362 511 518
4 350 446 511 518
4 434 425 303 512
4 382 513 252 516
4 401 514 392 520
4 357 358 351 518
4 359 226 266 511
4 341 275 337 517
4 306 299 310 515
4 245 281 265 510
4 419 511 407 518
4 301 515 255 519
4 403 514 399 516
4 350 511 362 518
4 118 307 324 515
4 384 385 514 522
4 299 431 305 517
4 227 226 225 511
4 0 106 228 289
4 471 472 514 520
4 324 118 515 521
4 406 516 398 522
4 411 271 416 511
4 385 381 514 516
4 340 424 436 512
4 412 450 453 510
4 307 321 324 519
4 359 266 354 511
4 117 327 321 519
4 448 355 454 510
4 437 133 428 521
4 300 512 254 517
4 359 354 352 511
4 411 416 409 511
4 242 345 248 512
4 224 245 217 510
4 306 426 299 515
4 388 516 385 522
4 245 351 281 510
4 300 305 512 517
4 457 378 379 513
4 382 378 386 513
4 255 301 276 517
4 404 243 207 513
4 227 246 266 511
4 273 270 280 516
4 338 515 344 519
4 14 156 218 363
4 426 515 429 517
4 396 400 404 513
4 392 403 402 514
4 385 374 384 514
4 118 312 307 515
4 404 400 243 513
4 280 393 399 516
4 276 304 254 517
4 403 514 516 522
4 252 513 273 516
4 360 351 245 510
4 252 270 273 513
4 397 396 456 513
4 403 399 406 516
4 300 254 304 517
4 247 399 514 516
4 385 516 514 522
4 273 286 252 516
4 421 413 409 511
4 352 356 422 511
4 247 514 263 516
4 271 249 253 511
4 433 431 429 517
4 343 429 430 515
4 301 310 304 517
4 103 13 233 288
4 395 391 284 520
4 300 304 305 517
4 118 307 321 324
4 159 224 492 510
4 495 105 225 511
4 223 158 492 510
4 226 104 495 511
4 241 114 509 512
4 509 115 242 512
4 382 386 252 513
4 255 257 309 519
4 347 344 338 515
4 368 53 16 171
4 65 293 11 112
4 97 60 1 290
4 385 388 381 516
4 338 274 251 517
4 437 428 515 521
4 426 431 299 517
4 209 252 208 513
4 339 115 424 512
4 425 114 302 512
4 264 408 417 510
4 324 319 118 521
4 495 420 105 511
4 452 492 158 510
4 159 492 452 510
4 495 104 420 511
4 509 114 423 512
4 509 423 115 512
4 418 414 407 518
4 395 472 183 520
4 224 217 223 510
4 235 241 242 512
4 394 406 398 522
4 403 516 406 522
4 432 426 306 515
4 255 283 257 519
4 409 105 421 511
4 422 104 352 511
4 337 512 342 517
4 327 324 321 519
4 469 374 474 520
4 469 514 374 520
4 341 251 275 517
4 160 22 54 365
4 166 52 21 365
4 353 159 454 510
4 158 410 453 510
4 469 471 470 514
4 470 471 468 514
4 208 173 478 513
4 282 264 408 417
4 274 283 255 519
4 254 300 308 512
4 457 173 378 513
4 399 401 247 514
4 402 514 403 522
4 280 399 247 516
4 456 396 174 513
4 406 393 405 516
4 446 447 442 518
4 209 208 207 513
4 395 183 391 520
4 478 174 207 513
4 217 245 264 510
4 243 400 270 513
4 172 17 215 372
4 443 445 444 518
4 338 251 341 517
4 312 437 432 515
4 337 345 339 512
4 308 300 302 512
4 324 323 118 319
4 387 375 388 516
4 293 61 12 102
4 368 15 57 165
4 107 2 62 290
4 227 266 226 511
4 419 407 415 518
4 478 455 174 513
4 455 478 173 513
4 454 159 452 510
4 420 421 105 511
4 452 158 453 510
4 422 420 104 511
4 423 114 425 512
4 115 423 424 512
4 217 264 223 510
4 224 223 492 510
4 225 226 495 511
4 241 509 242 512
4 269 386 51 208
4 58 246 225 416
4 409 225 105 511
4 226 352 104 511
4 424 340 339 512
4 302 303 425 512
4 264 282 408 510
4 263 286 273 516
4 264 265 282 510
4 288 12 61 102
4 372 16 53 171
4 363 57 15 165
4 297 65 11 112
4 97 1 60 289
4 166 21 52 373
4 107 62 2 298
4 54 22 160 364
4 9 131 314 331
4 247 401 278 514
4 265 264 245 510
4 302 114 241 512
4 115 339 242 512
4 235 267 241 512
4 117 4 313 329
4 278 514 401 520
4 251 254 275 517
4 383 385 381 514
4 267 254 308 512
4 399 403 401 514
4 337 248 345 512
4 360 353 351 510
4 410 417 408 510
4 224 159 353 510
4 410 158 223 510
4 391 389 284 520
4 378 173 208 513
4 341 337 342 517
4 396 207 174 513
4 445 418 407 518
4 456 174 455 513
4 455 173 457 513
4 347 338 341 517
4 515 519 324 521
4 454 355 353 510
4 453 410 412 510
4 463 461 462 522
4 478 207 208 513
4 312 432 306 515
4 299 305 310 517
4 209 207 243 513
4 386 269 252 208
4 378 387 379 513
4 469 471 514 520
4 274 255 251 517
4 343 344 347 515
4 426 429 431 517
4 235 242 248 512
4 356 352 362 511
4 409 413 419 511
4 271 266 246 511
4 392 401 403 514
4 374 385 383 514
4 244 284 389 520
4 383 374 514 520
4 362 352 354 511
4 419 411 409 511
4 252 269 209 208
4 407 414 415 518
4 376 464 461 522
4 399 393 406 516
4 26 113 237 107
4 116 27 240 112
4 435 349 343 521
4 405 396 397 513
4 253 354 266 511
4 56 360 245 224
4 394 188 460 398
4 429 426 430 515
4 381 388 375 516
4 378 382 387 513
4 39 157 219 160
4 156 38 222 165
4 276 254 251 517
4 263 247 277 514
4 452 202 443 201
4 273 247 263 516
4 405 400 396 513
4 466 402 394 522
4 428 432 437 515
4 248 337 275 512
4 273 280 247 516
4 389 391 183 520
4 307 310 301 515
4 84 383 381 263
4 469 474 471 520
4 209 243 252 513
4 432 430 426 515
4 251 255 276 517
4 409 493 225 416
4 494 359 352 226
4 281 245 360 351
4 403 406 394 522
4 407 447 445 518
4 270 252 243 513
4 277 514 278 520
4 264 55 223 417
4 344 515 343 521
4 59 359 226 266
4 310 305 304 517
4 402 403 394 522
4 477 208 386 378
4 383 514 277 520
4 235 248 267 512
4 396 476 207 404
4 474 374 377 520
4 336 347 342 517
4 357 361 350 518
4 175 41 211 166
4 275 254 248 512
4 247 278 277 514
4 282 408 415 95
4 241 267 63 308
4 358 350 362 518
4 40 172 214 171
4 376 380 461 178
4 106 25 229 97
4 24 103 232 102
4 430 343 515 521
4 285 377 383 520
4 360 224 491 353
4 223 490 410 417
4 471 183 472 520
4 438 33 142 330
4 415 249 282 95
4 34 328 440 140
4 351 355 357 510
4 412 408 414 510
4 508 339 345 242
4 241 507 302 308
4 236 240 65 116
4 234 62 237 113
4 274 346 287 519
4 430 435 343 521
4 271 415 411 94
4 199 427 200 423
4 312 306 307 515
4 218 222 57 156
4 216 54 219 157
4 435 132 32 349
4 375 382 82 286
4 335 143 7 331
4 340 337 339 512
4 302 300 303 512
4 68 304 276 301
4 318 329 6 137
4 188 462 460 398
4 248 345 242 64
4 139 33 315 330
4 248 337 345 275
4 28 312 118 133
4 383 84 277 263
4 348 433 148 336
4 243 207 50 404
4 346 274 338 519
4 332 328 34 145
4 349 435 132 521
4 353 355 351 510
4 410 408 412 510
4 466 394 460 522
4 383 377 374 520
4 266 271 253 511
4 245 360 80 281
4 337 340 342 512
4 300 305 303 512
4 444 361 446 153
4 240 236 508 116
4 234 237 507 113
4 244 278 284 520
4 254 267 248 512
4 338 74 341 251
4 131 344 130 521
4 441 141 140 326
4 250 346 131 519
4 251 338 74 274
4 65 240 504 112
4 57 222 488 165
4 229 60 97 502
4 211 52 166 485
4 307 306 310 515
4 428 133 132 521
4 358 357 350 518
4 131 130 325 521
4 211 52 210 175
4 322 145 333 144
4 131 519 344 521
4 58 225 493 416
4 494 59 359 226
4 222 218 491 156
4 216 219 490 157
4 418 407 194 445
4 446 445 447 518
4 53 214 215 172
4 482 14 262 480
4 131 325 519 521
4 181 374 469 475
4 473 468 191 392
4 342 347 341 517
4 401 284 395 92
4 141 319 439 142
4 272 281 79 351
4 401 399 247 91
4 61 232 233 103
4 229 60 228 106
4 402 473 191 392
4 374 181 384 475
4 321 117 307 118
4 426 432 306 121
4 344 519 515 521
4 306 299 426 121
4 250 327 257 519
4 131 331 250 320
4 389 390 285 520
4 390 377 285 520
4 378 477 208 173
4 225 493 409 105
4 494 352 104 226
4 285 85 383 377
4 208 386 51 477
4 207 476 50 404
4 461 380 463 178
4 446 444 445 518
4 439 133 125 126
4 124 125 441 132
4 312 28 437 133
4 507 241 63 308
4 345 508 242 64
4 449 350 356 154
4 247 278 401 91
4 174 396 476 207
4 285 383 277 520
4 358 354 78 253
4 430 432 428 515
4 78 272 358 253
4 278 284 401 92
4 250 287 346 519
4 224 56 360 491
4 55 490 223 417
4 271 415 94 249
4 189 465 398 397
4 361 350 446 153
4 459 204 455 203
4 198 442 197 420
4 389 285 244 520
4 349 344 343 521
4 389 391 284 86
4 322 349 132 521
4 482 262 17 480
4 250 257 283 519
4 390 285 87 389
4 430 515 428 521
4 132 133 326 521
4 337 76 345 275
4 276 255 68 301
4 211 210 476 175
4 464 458 461 522
4 346 338 344 519
4 321 137 316 138
4 219 54 485 160
4 53 214 171 488
4 61 232 102 504
4 237 62 502 107
4 435 430 428 521
4 215 214 477 172
4 206 205 458 470
4 274 287 283 519
4 233 232 494 103
4 229 228 493 106
4 139 317 138 323
4 250 131 320 519
4 250 320 327 519
4 402 187 466 394
4 284 244 389 86
4 147 429 343 336
4 334 144 143 325
4 416 246 271 93
4 244 87 285 389
4 209 269 252 243
4 308 254 66 300
4 304 276 254 67
4 256 227 501 500
4 257 327 329 117
4 457 379 378 176
4 46 456 203 465
4 449 36 422 198
4 325 324 519 521
4 377 184 474 520
4 166 366 41 211
4 316 134 117 135
4 334 128 131 127
4 447 195 451 413
4 281 360 80 351
4 250 9 346 287
4 252 82 382 286
4 112 296 27 240
4 323 118 321 324
4 126 28 30 438
4 32 31 440 124
4 432 437 312 122
4 97 25 229 291
4 171 214 40 371
4 435 146 343 349
4 79 272 351 358
4 460 462 461 522
4 263 381 83 286
4 89 280 270 393
4 248 345 76 275
4 407 447 194 445
4 416 271 411 93
4 184 377 390 520
4 400 89 270 393
4 173 457 378 176
4 341 75 337 275
4 37 202 448 454
4 237 26 107 291
4 39 366 160 219
4 38 222 165 371
4 67 254 304 300
4 35 424 200 436
4 417 282 264 96
4 381 375 83 286
4 115 339 508 242
4 302 507 241 114
4 464 384 376 177
4 350 449 446 154
4 186 174 456 396
4 105 409 421 192
4 422 104 151 352
4 24 296 102 232
4 465 46 456 397
4 326 133 319 521
4 224 491 353 159
4 490 410 158 223
4 397 186 456 396
4 422 356 36 449
4 309 69 255 301
4 333 129 130 128
4 135 317 136 118
4 69 255 257 309
4 130 349 322 521
4 254 267 308 66
4 277 85 383 285
4 413 421 409 192
4 422 151 356 352
4 332 34 328 440
4 320 324 327 519
4 257 327 250 71
4 399 280 90 393
4 227 256 266 260
4 312 306 432 122
4 332 31 32 129
4 136 30 28 315
4 450 49 453 201
4 433 429 148 336
4 42 379 467 457
4 90 247 280 399
4 325 324 320 519
4 187 460 466 394
4 114 425 302 123
4 150 115 424 339
4 389 183 184 520
4 275 341 75 251
4 425 303 302 123
4 340 150 424 339
4 408 282 417 96
4 274 346 73 287
4 421 451 48 413
4 47 466 473 402
4 327 320 250 71
4 29 434 199 425
4 429 430 147 343
4 465 462 189 398
4 378 40 477 173
4 195 447 407 413
4 352 104 24 494
4 409 493 25 105
4 475 43 384 464
4 258 209 483 484
4 396 41 174 476
4 353 454 159 155
4 453 158 196 410
4 266 227 260 246
4 35 424 436 340
4 454 448 37 355
4 277 278 244 520
4 389 184 390 520
4 464 376 461 177
4 453 412 49 450
4 173 378 40 176
4 434 29 303 425
4 435 146 430 343
4 174 186 41 396
4 453 196 412 410
4 355 454 353 155
4 4 257 70 329
4 104 24 151 352
4 105 25 409 192
4 250 331 9 72
4 326 319 324 521
4 390 182 285 377
4 284 391 395 185
4 466 460 458 522
4 338 346 73 274
4 315 33 438 330
4 184 183 471 520
4 70 257 327 329
4 374 474 180 469
4 468 190 392 472
4 184 474 44 377
4 45 395 472 183
4 448 444 152 361
4 184 471 474 520
4 355 448 152 361
4 115 150 27 339
4 114 302 26 123
4 382 386 81 252
4 13 59 77 359
4 256 227 500 260
4 260 235 256 267
4 184 44 390 377
4 183 45 395 391
4 283 287 250 519
4 14 17 262 480
4 269 81 386 252
4 130 322 325 521
4 322 324 325 521
4 474 377 374 180
4 395 392 190 472
4 4 313 329 318
4 344 131 346 519
4 466 205 47 473
4 434 311 303 119
4 204 42 467 457
4 48 197 451 421
4 325 320 131 519
4 266 256 227 501
4 9 335 331 314
4 435 428 132 521
4 418 450 445 193
4 130 145 129 333
4 227 58 246 225
4 418 412 450 193
4 484 258 209 268
4 72 250 331 320
4 224 245 56 217
4 38 353 159 155
4 158 39 196 410
4 26 507 302 114
4 27 115 339 508
4 89 270 88 400
4 244 87 389 86
4 306 432 122 121
4 410 158 39 490
4 353 491 38 159
4 328 132 326 322
4 452 159 158 492
4 420 104 495 105
4 509 115 423 114
4 464 475 43 206
4 249 415 94 95
4 344 349 130 521
4 264 258 217 268
4 132 326 322 521
4 431 311 434 119
4 65 240 112 116
4 237 62 107 113
4 81 386 51 269
4 185 395 284 92
4 182 85 285 377
4 359 59 77 266
4 266 59 13 256
4 465 189 46 397
4 272 79 78 358
4 57 222 165 156
4 219 54 160 157
4 500 227 58 246
4 376 461 177 178
4 264 23 55 417
4 480 14 17 258
4 173 478 455 174
4 285 277 244 520
4 399 90 247 91
4 188 189 462 398
4 416 0 246 93
4 379 42 467 179
4 55 23 264 268
4 461 458 460 522
4 246 58 0 416
4 460 187 188 394
4 245 258 217 264
4 154 446 350 153
4 466 47 187 402
4 430 146 147 343
4 480 17 51 269
4 42 379 457 176
4 84 381 83 263
4 182 85 18 285
4 185 284 19 92
4 211 52 175 166
4 67 66 254 300
4 256 266 59 501
4 128 334 131 325
4 117 321 316 135
4 285 18 182 390
4 258 269 209 268
4 53 214 172 171
4 91 278 401 92
4 285 87 18 390
4 47 473 191 402
4 384 181 43 475
4 75 76 337 275
4 383 84 85 277
4 61 232 103 102
4 229 60 106 97
4 327 257 70 71
4 413 48 421 192
4 356 36 151 422
4 284 391 19 86
4 235 256 501 500
4 284 19 391 185
4 28 312 437 122
4 248 256 235 267
4 436 149 35 340
4 264 23 417 96
4 69 257 4 309
4 448 152 37 355
4 445 194 418 193
4 139 136 317 323
4 329 6 4 318
4 77 59 13 266
4 334 128 144 325
4 326 324 322 521
4 468 190 191 392
4 180 181 374 469
4 321 316 135 138
4 145 130 322 333
4 94 411 271 93
4 335 7 9 331
4 356 36 449 154
4 69 68 255 301
4 409 493 416 106
4 103 359 352 494
4 132 125 141 133
4 360 14 56 245
4 178 380 463 179
4 3 63 267 308
4 80 79 281 351
4 194 195 447 407
4 37 454 355 155
4 49 196 412 453
4 500 235 256 260
4 73 346 9 287
4 280 89 90 393
4 338 73 74 274
4 425 29 303 123
4 424 35 150 340
4 386 172 477 378
4 243 50 20 404
4 326 132 141 133
4 46 186 456 397
4 464 43 384 177
4 118 136 28 330
4 248 10 345 64
4 396 476 404 175
4 311 431 120 119
4 433 148 149 348
4 479 217 484 268
4 51 17 386 81
4 308 267 3 66
4 451 195 48 413
4 375 82 83 286
4 217 258 483 484
4 303 29 434 119
4 332 328 32 440
4 74 75 341 251
4 361 444 152 153
4 450 412 49 193
4 480 209 269 51
4 360 80 14 245
4 264 217 55 268
4 482 218 14 480
4 345 76 10 248
4 354 77 78 253
4 245 14 56 258
4 328 130 145 129
4 10 236 64 497
4 67 304 276 68
4 59 13 256 497
4 118 317 136 323
4 81 82 382 252
4 243 209 269 268
4 130 328 32 129
4 484 217 258 268
4 32 146 435 349
4 499 496 3 234
4 88 243 20 404
4 269 480 17 258
4 282 408 95 96
4 233 498 261 497
4 3 63 260 267
4 227 59 266 501
4 266 226 59 227
4 377 474 44 180
4 395 190 45 472
4 13 261 256 497
4 51 17 81 269
4 313 329 318 137
4 331 335 143 314
4 491 156 360 353
4 410 490 157 417
4 429 147 148 336
4 120 426 299 121
4 481 279 479 210
4 261 498 236 497
4 339 345 116 508
4 308 507 302 113
4 227 500 260 246
4 315 438 28 330
4 55 223 217 264
4 136 118 323 330
4 269 209 483 258
4 133 141 326 319
4 126 142 133 330
4 320 72 250 71
4 132 441 140 326
4 7 9 331 72
4 209 480 269 483
4 323 139 136 330
4 64 242 248 235
4 260 500 58 246
4 231 230 495 104
4 221 158 492 220
4 235 496 260 500
4 319 133 141 439
4 258 56 245 217
4 131 331 320 325
4 70 6 4 329
4 484 209 50 268
4 479 279 481 216
4 333 130 322 144
4 141 441 132 326
4 229 502 97 291
4 166 366 211 485
4 390 44 182 377
4 391 45 395 185
4 165 222 488 371
4 207 50 209 243
4 296 112 504 240
4 126 133 28 330
4 124 140 328 132
4 130 322 328 145
4 488 214 171 371
4 261 236 10 497
4 17 215 482 480
4 329 327 321 117
4 479 217 268 55
4 269 483 480 258
4 107 502 237 291
4 219 366 160 485
4 496 235 260 63
4 504 102 296 232
4 260 63 235 267
4 213 478 208 173
4 279 21 20 373
4 497 256 59 501
4 115 242 239 509
4 159 224 221 492
4 495 230 225 105
4 231 226 104 495
4 241 238 509 114
4 492 158 223 220
4 140 124 441 132
4 133 439 142 126
4 262 15 14 363
4 439 319 133 142
4 174 478 207 212
4 117 321 135 118
4 131 130 128 325
4 133 125 141 439
4 441 125 141 132
4 260 58 0 246
4 104 230 495 105
4 158 221 492 159
4 218 14 262 482
4 213 208 477 173
4 493 225 230 105
4 207 476 174 212
4 223 158 490 220
4 104 494 226 231
4 238 241 507 114
4 491 224 221 159
4 242 508 115 239
4 262 17 16 372
4 23 22 279 364
4 124 328 32 132
4 13 59 233 497
4 416 493 58 106
4 359 103 59 494
4 267 63 235 241
4 297 10 11 261
4 142 319 133 330
4 404 476 50 175
4 130 144 128 325
4 138 135 321 118
4 20 50 243 268
4 172 51 386 477
4 345 116 508 64
4 63 507 308 113
4 132 140 328 326
4 438 142 28 330
4 218 56 14 480
4 63 496 3 260
4 256 261 10 497
4 315 28 139 330
4 288 12 13 261
4 117 321 137 316
4 51 209 269 208
4 156 360 56 491
4 157 490 55 417
4 259 1 0 289
4 143 131 334 325
4 256 10 248 64
4 144 130 322 325
4 440 328 32 140
4 32 440 140 124
4 126 142 28 438
4 139 136 28 315
4 259 3 2 298
4 501 64 256 235
4 261 13 233 497
4 332 32 328 145
4 145 332 32 129
4 118 138 317 323
4 23 55 479 268
4 480 56 14 258
4 134 313 318 137
4 335 127 143 314
4 268 479 23 279
4 64 256 10 497
4 243 50 209 268
4 288 61 12 261
4 279 22 54 364
4 12 61 293 261
4 321 138 118 323
4 279 479 23 216
4 65 293 61 261
4 11 293 65 261
4 143 131 331 314
4 313 329 137 117
4 293 11 12 261
4 279 54 22 365
4 332 32 31 440
4 438 28 30 315
4 313 4 5 318
4 335 9 8 314
4 438 30 33 315
4 279 22 21 365
4 279 21 52 365
4 268 20 50 210
4 54 52 485 365
4 218 262 14 363
4 332 31 34 440
4 52 54 279 365
4 258 483 56 217
4 62 60 502 290
4 368 57 53 488
4 65 61 293 504
4 485 160 54 365
4 485 52 166 365
4 497 64 256 501
4 107 62 502 290
4 102 293 61 504
4 488 53 368 171
4 368 57 488 165
4 97 502 60 290
4 112 65 293 504
4 166 160 485 365
4 279 52 21 373
4 262 16 53 372
4 57 15 262 363
4 248 256 64 235
4 97 107 502 290
4 171 368 488 165
4 102 112 293 504
4 137 134 313 117
4 131 143 127 314
4 11 65 297 261
4 63 3 496 234
4 55 23 479 216
4 145 32 328 129
4 50 479 268 210
4 260 0 58 228
4 139 28 136 330
4 140 328 32 124
4 137 329 321 117
4 28 142 126 330
4 131 143 331 325
4 369 168 162 486
4 8 7 9 335
4 6 5 4 318
4 100 110 503 294
4 503 294 109 99
4 135 138 317 118
4 58 496 260 228
4 56 480 483 258
4 144 333 130 128
4 163 169 369 486
4 215 17 51 480
4 117 137 134 316
4 334 131 143 127
4 259 60 1 289
4 2 62 259 298
4 506 230 238 292
4 212 489 367 220
4 221 213 487 370
4 295 505 231 239
4 0 259 289 228
4 262 15 57 368
4 262 53 16 368
4 298 107 62 113
4 297 116 65 112
4 479 484 50 268
4 364 279 23 216
4 366 219 211 485
4 229 237 502 291
4 222 214 488 371
4 296 504 232 240
4 157 54 160 364
4 156 57 363 165
4 295 111 101 505
4 367 167 161 489
4 487 170 164 370
4 16 15 262 368
4 506 108 98 292
4 296 112 102 504
4 373 20 279 210
4 366 166 160 485
4 502 107 97 291
4 488 171 165 371
4 13 233 288 261
4 57 53 262 368
4 373 52 166 175
4 53 172 372 171
4 289 60 97 106
4 288 61 103 102
4 503 238 230 109
4 162 486 212 220
4 239 231 100 503
4 486 168 162 212
4 262 53 57 482
4 62 2 259 290
4 2 1 259 290
4 259 1 60 290
4 163 221 213 486
4 239 100 110 503
4 109 230 503 99
4 116 65 236 297
4 234 298 62 113
4 236 10 297 261
4 498 65 61 261
4 169 163 213 486
4 363 218 57 156
4 364 157 54 216
4 214 487 38 222
4 219 39 41 489
4 240 24 27 505
4 109 230 292 238
4 367 162 212 220
4 100 295 231 239
4 496 500 58 260
4 367 162 168 212
4 38 40 487 214
4 54 52 279 481
4 211 219 41 489
4 25 26 506 237
4 240 232 24 505
4 259 60 62 290
4 213 221 163 370
4 295 100 110 239
4 230 109 292 99
4 229 25 506 237
4 175 373 52 210
4 38 214 222 371
4 215 53 172 372
4 39 41 366 219
4 61 103 233 288
4 60 289 228 106
4 237 25 26 291
4 38 40 214 371
4 169 213 163 370
4 24 27 296 240
4 41 366 219 211
4 237 229 25 291
4 232 24 296 240
4 508 116 236 64
4 507 63 234 113
4 156 56 218 491
4 157 55 490 216
4 111 24 505 27
4 296 27 24 111
4 476 50 175 210
4 24 111 505 101
4 215 51 172 477
4 259 62 60 499
4 228 58 493 106
4 233 59 103 494
4 111 24 296 101
4 170 171 40 371
4 98 97 291 25
4 164 165 371 38
4 102 101 296 24
4 112 111 27 296
4 108 107 26 291
4 160 161 366 39
4 166 167 41 366
4 113 26 507 302
4 113 507 26 237
4 27 116 508 339
4 27 508 116 240
4 157 39 490 410
4 157 490 39 219
4 38 156 491 353
4 38 491 156 222
4 348 512 517 342
4 517 512 348 433
4 448 361 510 444
4 510 361 448 355
4 213 40 214 487
4 170 213 40 173
4 170 40 213 487
4 370 170 213 487
4 211 41 212 489
4 41 212 167 174
4 41 167 212 489
4 167 367 212 489
4 340 433 149 348
4 340 149 433 436
4 239 240 27 505
4 111 239 27 505
4 111 27 239 115
4 295 239 111 505
4 232 231 24 505
4 237 238 26 506
4 26 238 108 506
4 26 108 238 114
4 108 238 292 506
4 229 25 230 506
4 221 222 38 487
4 164 221 38 487
4 164 38 221 159
4 370 221 164 487
4 219 220 39 489
4 381 286 516 375
4 516 286 381 263
4 263 383 514 277
4 263 514 383 381
4 41 175 476 396
4 41 476 175 211
4 172 40 477 378
4 172 477 40 214
4 25 106 493 409
4 25 493 106 229
4 103 24 494 352
4 103 494 24 232
4 266 354 77 359
4 266 77 354 253
4 243 400 88 270
4 88 400 243 404
4 460 398 522 394
4 522 398 460 462
4 401 284 520 395
4 401 520 284 278
4 510 518 282 408
4 415 518 282 249
4 415 282 518 408
4 170 169 213 173
4 170 213 169 370
4 257 117 519 327
4 519 117 257 309
4 168 167 212 174
4 168 212 167 367
4 108 109 238 114
4 108 238 109 292
4 463 379 179 380
4 463 179 379 467
4 164 163 221 370
4 164 221 163 159
4 110 111 239 115
4 110 239 111 295
4 361 446 518 444
4 518 446 361 350
4 131 9 250 331
4 131 250 9 346
4 4 117 257 329
4 4 257 117 309
4 286 382 516 375
4 286 516 382 252
4 299 431 120 311
4 120 431 299 426
4 505 101 231 24
4 505 231 101 295
4 104 231 101 24
4 105 98 230 25
4 506 230 98 25
4 506 98 230 292
4 489 161 220 39
4 489 220 161 367
4 158 220 161 39
4 328 130 349 322
4 349 130 328 32
4 349 132 328 322
4 328 132 349 32
4 491 38 221 222
4 491 221 38 159
4 27 508 239 115
4 239 508 27 240
4 26 507 238 237
4 26 238 507 114
4 39 490 220 219
4 220 490 39 158
4 476 41 212 211
4 476 212 41 174
4 24 494 231 232
4 231 494 24 104
4 493 25 230 229
4 493 230 25 105
4 40 477 213 214
4 40 213 477 173
4 499 228 260 496
4 260 499 3 259
4 3 499 260 496
4 118 330 319 323
4 109 503 110 294
4 162 486 163 369
4 99 100 503 294
4 486 168 169 369
4 228 259 260 0
4 228 260 259 499
4 210 268 279 479
4 210 279 268 20
4 61 233 261 288
4 61 261 233 498
4 17 215 262 482
4 17 262 215 372
4 53 262 215 482
4 53 215 262 372
4 216 54 279 481
4 216 279 54 364
4 3 234 259 499
4 3 259 234 298
4 62 259 234 499
4 62 234 259 298
4 65 236 261 498
4 65 261 236 297
4 57 218 262 482
4 57 262 218 363
4 52 210 279 481
4 279 210 52 373
4 228 60 259 289
4 228 259 60 499
4 108 291 25 98
4 25 291 108 26
4 25 506 108 98
4 108 506 25 26
4 489 161 41 167
4 489 41 161 39
4 366 41 161 167
4 366 161 41 39
4 487 164 40 38
4 487 40 164 170
4 371 40 164 38
4 371 164 40 170
4 156 14 56 360
4 156 56 14 218
4 17 172 51 386
4 17 51 172 215
4 13 103 59 359
4 13 59 103 233
4 106 0 58 416
4 106 58 0 228
4 3 113 63 308
4 3 63 113 234
4 23 157 55 417
4 23 55 157 216
4 116 10 64 345
4 116 64 10 236
4 175 20 50 404
4 175 50 20 210
4 158 163 221 159
4 168 212 169 174
4 168 169 212 486
4 230 104 99 105
4 100 101 231 295
4 100 231 101 104
4 162 161 220 367
4 162 220 161 158
4 98 99 230 292
4 98 230 99 105
4 230 231 99 104
4 230 99 231 503
4 100 99 231 104
4 100 231 99 503
4 212 169 213 486
4 220 162 163 158
4 163 162 220 486
4 163 221 220 158
4 220 221 163 486
4 330 133 118 319
4 118 133 330 28
4 518 282 265 510
4 518 265 282 249
4 109 238 110 503
4 109 110 238 114
4 238 239 110 503
4 174 478 213 173
4 213 478 174 212
4 213 169 174 173
4 174 169 213 212
4 114 509 239 238
4 239 509 114 115
4 239 110 114 238
4 114 110 239 115

CELL_TYPES 2852
1
1
1
1
1
1
1
1
1
1
1
1
1
1
1
1
1
1
1
1
1
1
1
1
1
1
1
1
1
1
1
1
1
1
1
1
1
1
1
1
1
1
1
1
1
1
1
1
1
1
1
1
1
1
1
1
1
1
1
1
1
1
1
1
1
1
3
3
3
3
3
3
3
3
3
3
3
3
3
3
3
3
3
3
3
3
3
3
3
3
3
3
3
3
3
3
3
3
3
3
3
3
3
3
3
3
3
3
3
3
3
3
3
3
3
3
3
3
3
3
3
3
3
3
3
3
3
3
3
3
3
3
3
3
3
3
3
3
3
3
3
3
3
3
3
3
3
3
3
3
3
3
3
3
3
3
3
3
3
3
3
3
3
3
3
3
3
3
3
3
3
3
3
3
3
3
3
3
3
3
3
3
3
3
3
3
3
3
3
3
3
3
3
3
3
3
3
3
3
3
3
3
3
3
3
3
3
3
3
3
3
3
3
3
3
3
3
3
3
3
3
3
3
3
3
3
3
3
3
3
3
3
3
3
3
3
3
3
3
3
3
3
3
3
3
3
3
3
3
3
3
3
3
3
3
3
3
3
3
3
3
3
3
3
3
3
3
3
3
3
3
3
3
3
3
3
3
3
3
3
3
3
3
3
3
3
3
3
3
3
3
3
3
3
3
3
3
3
3
3
3
3
3
3
3
3
3
3
3
3
3
3
3
3
3
3
3
3
3
3
3
3
3
3
3
3
3
3
3
3
3
3
3
3
3
3
3
3
3
3
3
3
5
5
5
5
5
5
5
5
5
5
5
5
5
5
5
5
5
5
5
5
5
5
5
5
5
5
5
5
5
5
5
5
5
5
5
5
5
5
5
5
5
5
5
5
5
5
5
5
5
5
5
5
5
5
5
5
5
5
5
5
5
5
5
5
5
5
5
5
5
5
5
5
5
5
5
5
5
5
5
5
5
5
5
5
5
5
5
5
5
5
5
5
5
5
5
5
5
5
5
5
5
5
5
5
5
5
5
5
5
5
5
5
5
5
5
5
5
5
5
5
5
5
5
5
5
5
5
5
5
5
5
5
5
5
5
5
5
5
5
5
5
5
5
5
5
5
5
5
5
5
5
5
5
5
5
5
5
5
5
5
5
5
5
5
5
5
5
5
5
5
5
5
5
5
5
5
5
5
5
5
5
5
5
5
5
5
5
5
5
5
5
5
5
5
5
5
5
5
5
5
5
5
5
5
5
5
5
5
5
5
5
5
5
5
5
5
5
5
5
5
5
5
5
5
5
5
5
5
5
5
5
5
5
5
5
5
5
5
5
5
5
5
5
5
5
5
5
5
5
5
5
5
5
5
5
5
5
5
5
5
5
5
5
5
5
5
5
5
5
5
5
5
5
5
5
5
5
5
5
5
5
5
5
5
5
5
5
5
5
5
5
5
5
5
5
5
5
5
5
5
5
5
5
5
5
5
5
5
5
5
5
5
5
5
5
5
5
5
5
5
5
5
5
5
5
5
5
5
5
5
5
5
5
5
5
5
5
5
5
5
5
5
5
5
5
5
5
5
5
5
5
5
5
5
5
5
5
5
5
5
5
5
5
5
5
5
5
5
5
5
5
5
5
5
5
5
5
5
5
5
5
5
5
5
5
5
5
5
5
5
5
5
5
5
5
5
5
5
5
5
5
5
5
5
5
5
5
5
5
5
5
5
5
5
5
5
5
5
5
5
5
5
5
5
5
5
5
5
5
5
5
5
5
5
5
5
5
5
5
5
5
5
5
5
5
5
5
5
5
5
5
5
5
5
5
5
5
5
5
5
5
5
5
5
5
5
5
5
5
5
5
5
5
5
5
5
5
5
5
5
5
5
5
5
5
5
5
5
5
5
5
5
5
5
5
5
5
5
5
5
5
5
5
5
5
5
5
5
5
5
5
5
5
5
5
5
5
5
5
5
5
5
5
5
5
5
5
5
5
5
5
5
5
5
5
5
5
5
5
5
5
5
5
5
5
5
5
5
5
5
5
5
5
5
5
5
5
5
5
5
5
5
5
5
5
5
5
5
5
5
5
5
5
5
5
5
5
5
5
5
5
5
5
5
5
5
5
5
5
5
5
5
5
5
5
5
5
5
5
5
5
5
5
5
5
5
5
5
5
5
5
5
5
5
5
5
5
5
5
5
5
5
5
5
5
5
5
5
5
5
5
5
5
5
5
5
5
5
5
5
5
5
5
5
5
5
5
5
5
5
5
5
5
5
5
5
5
5
5
5
5
5
5
5
5
5
5
5
5
5
5
5
5
5
5
5
5
5
5
5
5
5
5
5
5
5
5
5
5
5
5
5
5
5
5
5
5
5
5
5
5
5
5
5
5
5
5
5
5
5
5
5
5
5
5
5
5
5
5
5
5
5
5
5
5
5
5
5
5
5
5
5
5
5
5
5
5
5
5
5
5
5
5
5
5
5
5
5
5
5
5
5
5
5
5
5
5
5
5
5
5
5
5
5
5
5
5
5
5
5
5
5
5
5
5
5
5
5
5
5
5
5
5
5
5
5
5
5
5
5
5
5
5
5
5
5
5
5
5
5
5
5
5
5
5
5
5
5
5
5
5
5
5
5
5
5
5
5
5
5
5
5
5
5
5
5
5
5
5
5
5
5
5
5
5
5
5
5
5
5
5
5
5
5
5
5
5
5
5
5
5
5
5
5
5
5
5
5
5
5
5
5
5
5
5
5
5
5
5
5
5
5
5
5
5
5
5
5
5
5
5
5
5
5
5
5
5
5
5
5
5
5
5
5
5
5
5
5
5
5
5
5
5
5
5
5
5
5
5
5
5
5
5
5
5
5
5
5
5
5
5
5
5
5
5
5
5
5
5
5
5
5
5
5
5
5
5
5
5
5
5
5
5
5
5
5
5
5
5
5
5
5
5
5
5
5
5
5
5
5
5
5
5
5
5
5
5
5
5
5
5
5
5
5
5
5
5
5
5
5
5
5
5
5
5
5
5
5
5
5
5
5
5
5
5
5
5
5
5
5
5
5
5
5
5
5
5
5
10
10
10
10
10
10
10
10
10
10
10
10
10
10
10
10
10
10
10
10
10
10
10
10
10
10
10
10
10
10
10
10
10
10
10
10
10
10
10
10
10
10
10
10
10
10
10
10
10
10
10
10
10
10
10
10
10
10
10
10
10
10
10
10
10
10
10
10
10
10
10
10
10
10
10
10
10
10
10
10
10
10
10
10
10
10
10
10
10
10
10
10
10
10
10
10
10
10
10
10
10
10
10
10
10
10
10
10
10
10
10
10
10
10
10
10
10
10
10
10
10
10
10
10
10
10
10
10
10
10
10
10
10
10
10
10
10
10
10
10
10
10
10
10
10
10
10
10
10
10
10
10
10
10
10
10
10
10
10
10
10
10
10
10
10
10
10
10
10
10
10
10
10
10
10
10
10
10
10
10
10
10
10
10
10
10
10
10
10
10
10
10
10
10
10
10
10
10
10
10
10
10
10
10
10
10
10
10
10
10
10
10
10
10
10
10
10
10
10
10
10
10
10
10
10
10
10
10
10
10
10
10
10
10
10
10
10
10
10
10
10
10
10
10
10
10
10
10
10
10
10
10
10
10
10
10
10
10
10
10
10
10
10
10
10
10
10
10
10
10
10
10
10
10
10
10
10
10
10
10
10
10
10
10
10
10
10
10
10
10
10
10
10
10
10
10
10
10
10
10
10
10
10
10
10
10
10
10
10
10
10
10
10
10
10
10
10
10
10
10
10
10
10
10
10
10
10
10
10
10
10
10
10
10
10
10
10
10
10
10
10
10
10
10
10
10
10
10
10
10
10
10
10
10
10
10
10
10
10
10
10
10
10
10
10
10
10
10
10
10
10
10
10
10
10
10
10
10
10
10
10
10
10
10
10
10
10
10
10
10
10
10
10
10
10
10
10
10
10
10
10
10
10
10
10
10
10
10
10
10
10
10
10
10
10
10
10
10
10
10
10
10
10
10
10
10
10
10
10
10
10
10
10
10
10
10
10
10
10
10
10
10
10
10
10
10
10
10
10
10
10
10
10
10
10
10
10
10
10
10
10
10
10
10
10
10
10
10
10
10
10
10
10
10
10
10
10
10
10
10
10
10
10
10
10
10
10
10
10
10
10
10
10
10
10
10
10
10
10
10
10
10
10
10
10
10
10
10
10
10
10
10
10
10
10
10
10
10
10
10
10
10
10
10
10
10
10
10
10
10
10
10
10
10
10
10
10
10
10
10
10
10
10
10
10
10
10
10
10
10
10
10
10
10
10
10
10
10
10
10
10
10
10
10
10
10
10
10
10
10
10
10
10
10
10
10
10
10
10
10
10
10
10
10
10
10
10
10
10
10
10
10
10
10
10
10
10
10
10
10
10
10
10
10
10
10
10
10
10
10
10
10
10
10
10
10
10
10
10
10
10
10
10
10
10
10
10
10
10
10
10
10
10
10
10
10
10
10
10
10
10
10
10
10
10
10
10
10
10
10
10
10
10
10
10
10
10
10
10
10
10
10
10
10
10
10
10
10
10
10
10
10
10
10
10
10
10
10
10
10
10
10
10
10
10
10
10
10
10
10
10
10
10
10
10
10
10
10
10
10
10
10
10
10
10
10
10
10
10
10
10
10
10
10
10
10
10
10
10
10
10
10
10
10
10
10
10
10
10
10
10
10
10
10
10
10
10
10
10
10
10
10
10
10
10
10
10
10
10
10
10
10
10
10
10
10
10
10
10
10
10
10
10
10
10
10
10
10
10
10
10
10
10
10
10
10
10
10
10
10
10
10
10
10
10
10
10
10
10
10
10
10
10
10
10
10
10
10
10
10
10
10
10
10
10
10
10
10
10
10
10
10
10
10
10
10
10
10
10
10
10
10
10
10
10
10
10
10
10
10
10
10
10
10
10
10
10
10
10
10
10
10
10
10
10
10
10
10
10
10
10
10
10
10
10
10
10
10
10
10
10
10
10
10
10
10
10
10
10
10
10
10
10
10
10
10
10
10
10
10
10
10
10
10
10
10
10
10
10
10
10
10
10
10
10
10
10
10
10
10
10
10
10
10
10
10
10
10
10
10
10
10
10
10
10
10
10
10
10
10
10
10
10
10
10
10
10
10
10
10
10
10
10
10
10
10
10
10
10
10
10
10
10
10
10
10
10
10
10
10
10
10
10
10
10
10
10
10
10
10
10
10
10
10
10
10
10
10
10
10
10
10
10
10
10
10
10
10
10
10
10
10
10
10
10
10
10
10
10
10
10
10
10
10
10
10
10
10
10
10
10
10
10
10
10
10
10
10
10
10
10
10
10
10
10
10
10
10
10
10
10
10
10
10
10
10
10
10
10
10
10
10
10
10
10
10
10
10
10
10
10
10
10
10
10
10
10
10
10
10
10
10
10
10
10
10
10
10
10
10
10
10
10
10
10
10
10
10
10
10
10
10
10
10
10
10
10
10
10
10
10
10
10
10
10
10
10
10
10
10
10
10
10
10
10
10
10
10
10
10
10
10
10
10
10
10
10
10
10
10
10
10
10
10
10
10
10
10
10
10
10
10
10
10
10
10
10
10
10
10
10
10
10
10
10
10
10
10
10
10
10
10
10
10
10
10
10
10
10
10
10
10
10
10
10
10
10
10
10
10
10
10
10
10
10
10
10
10
10
10
10
10
10
10
10
10
10
10
10
10
10
10
10
10
10
10
10
10
10
10
10
10
10
10
10
10
10
10
10
10
10
10
10
10
10
10
10
10
10
10
10
10
10
10
10
10
10
10
10
10
10
10
10
10
10
10
10
10
10
10
10
10
10
10
10
10
10
10
10
10
10
10
10
10
10
10
10
10
10
10
10
10
10
10
10
10
10
10
10
10
10
10
10
10
10
10
10
10
10
10
10
10
10
10
10
10
10
10
10
10
10
10
10
10
10
10
10
10
10
10
10
10
10
10
10
10
10
10
10
10
10
10
10
10
10
10
10
10
10
10
10
10
10
10
10
10
10
10
10
10
10
10
10
10
10
10
10
10
10
10
10
10
10
10
10
10
10
10
10
10
10
10
10
10
10
10
10
10
10
10
10
10
10
10
10
10
10
10
10
10
10
10
10
10
10
10
10
10
10
10
10
10
10
10
10
10
10
10
10
10
10
10
10
10
10
10
10
10
10
10
10
10
10
10
10
10
10
10
10
10
10
10
10
10
10
10
10
10
10
10
10
10
10
10
10
10
10
10
10
10
10
10
10
10
10
10
10
10
10
10
10
10
10
10
10
10
10
10
10
10
10
10
10
10
10
10
10
10
10
10
10
10
10
10
10
10
10
10
10
10
10
10
10
10
10
10
10
10
10
10
10
10
10
10
10
10
10
10
10
10
10
10
10
10
10
10
10
10
10
10
10
10
10
10
10
10
10
10
10
10
10
10
