# vtk DataFile Version 2.0
, Created by Gmsh 4.11.1 
ASCII
DATASET UNSTRUCTURED_GRID
POINTS 566 double
8.75 0 -43.49035078965129
17.70923938586626 0 -41.42579912541123
17.70923938586626 0 -38.57420087458877
8.75 0 -36.50964921034871
8.75 0 -3
11.75 0 -3
11.75 0 0
-11.75 0 0
-11.75 0 -3
-8.75 0 -3
-8.75 1.071565949253934e-15 -36.50964921034871
-17.70923938586626 2.168756332923536e-15 -38.57420087458877
-17.70923938586626 2.168756332923536e-15 -41.42579912541123
-8.75 1.071565949253934e-15 -43.49035078965129
-8.75 1.071565949253934e-15 -76.50964921034871
-17.70923938586626 2.168756332923536e-15 -78.57420087458877
-17.70923938586626 2.168756332923536e-15 -81.42579912541123
-8.75 1.071565949253934e-15 -83.49035078965129
-8.75 0 -120
8.75 0 -120
8.75 0 -83.49035078965129
17.70923938586626 0 -81.42579912541123
17.70923938586626 0 -78.57420087458877
8.75 0 -76.50964921034871
-8.75 12.20849512906919 -42.04543029292349
8.75 12.20849512906919 -42.04543029292349
8.75 12.20849512906914 -37.95456970707653
-8.75 12.20849512906914 -37.95456970707653
8.75 20 -3
8.75 20 -34.7524828847987
11.75 23 -3
-11.75 23 -3
-8.75 20 -3
11.75 23 0
-11.75 23 0
-8.75 20 -34.7524828847987
-8.75 20 -45.2475171152013
-8.75 20 -74.7524828847987
-8.75 12.2084951290692 -77.9545697070765
8.75 12.2084951290692 -77.9545697070765
-8.75 12.2084951290692 -82.0454302929235
8.75 12.2084951290692 -82.0454302929235
-8.75 20 -85.2475171152013
-8.75 20 -114.7524828847987
-8.75 7.231434551078368 -120
8.75 7.231434551078368 -120
8.75 20 -85.2475171152013
8.75 20 -114.7524828847987
8.75 20 -45.2475171152013
8.75 20 -74.7524828847987
4.679437697709978 2.997063541718703 -83.49035078965129
-4.679437697709977 2.997063541718704 -83.49035078965129
14.20341262133388 2.997063541718703 -81.42579912541123
-14.20341262133388 2.997063541718707 -81.42579912541123
14.20341262133388 2.997063541718703 -78.57420087458877
4.679437697709978 2.997063541718703 -76.50964921034871
-4.679437697709977 2.997063541718704 -76.50964921034871
-14.20341262133388 2.997063541718707 -78.57420087458877
4.679437697709978 2.997063541718703 -43.49035078965129
-4.679437697709977 2.997063541718704 -43.49035078965129
14.20341262133388 2.997063541718703 -41.42579912541123
-14.20341262133388 2.997063541718707 -41.42579912541123
14.20341262133388 2.997063541718703 -38.57420087458877
4.679437697709978 2.997063541718703 -36.50964921034871
-4.679437697709977 2.997063541718704 -36.50964921034871
-14.20341262133388 2.997063541718707 -38.57420087458877
13.22961969293313 0 -42.45807495753126
13.22961969293313 0 -37.54192504246874
8.75 0 -29.80771936827897
8.75 0 -23.10578952620923
8.75 0 -16.40385968413948
8.75 0 -9.701929842069738
5.875000000000016 0 0
3.730349362740526e-14 0 0
-5.874999999999972 0 0
-8.75 0 -9.701929842069749
-8.75 0 -16.4038596841395
-8.75 0 -23.10578952620924
-8.75 0 -29.80771936827899
-13.22961969293313 1.620161141088735e-15 -37.54192504246874
-13.22961969293313 1.620161141088735e-15 -42.45807495753126
-8.75 0 -50.09421047379077
-8.75 0 -56.69807015793026
-8.75 0 -63.30192984206973
-8.75 0 -69.90578952620919
-13.22961969293313 1.620161141088735e-15 -77.54192504246873
-13.22961969293313 1.620161141088735e-15 -82.45807495753125
-8.75 0 -89.57529232470942
-8.75 0 -95.66023385976753
-8.75 0 -101.7451753948257
-8.75 0 -107.8301169298838
-8.75 0 -113.9150584649419
2.916666666666666 0 -120
-2.916666666666668 0 -120
8.75 0 -89.57529232470942
8.75 0 -95.66023385976753
8.75 0 -101.7451753948257
8.75 0 -107.8301169298838
8.75 0 -113.9150584649419
13.22961969293313 0 -82.45807495753125
13.22961969293313 0 -77.54192504246873
8.75 0 -50.09421047379077
8.75 0 -56.69807015793026
8.75 0 -63.30192984206973
8.75 0 -69.90578952620919
16.36120380494458 6.777032512758346 -41.42579912541123
12.52232325940191 12.52232325940194 -41.42579912541123
6.7770325127583 16.3612038049446 -41.42579912541123
-6.576371990381536e-14 17.70923938586626 -41.42579912541123
-6.777032512758392 16.36120380494457 -41.42579912541123
-12.52232325940196 12.52232325940189 -41.42579912541123
-16.3612038049446 6.777032512758315 -41.42579912541123
-8.750000000000002 6.135004486017752 -43.04411248589689
-2.942718731415176 13.10142181360218 -42.41239775520035
2.942718731415186 13.10142181360218 -42.41239775520035
8.749999999999998 6.135004486017749 -43.04411248589689
16.36120380494458 6.777032512758346 -38.57420087458877
12.52232325940191 12.52232325940194 -38.57420087458877
6.7770325127583 16.3612038049446 -38.57420087458877
-6.576371990381536e-14 17.70923938586626 -38.57420087458877
-6.777032512758392 16.36120380494457 -38.57420087458877
-12.52232325940196 12.52232325940189 -38.57420087458877
-16.3612038049446 6.777032512758315 -38.57420087458877
8.749999999999998 6.135004486017709 -36.9558875141031
2.942718731415182 13.10142181360223 -37.58760224479963
-2.942718731415191 13.10142181360223 -37.58760224479963
-8.750000000000002 6.135004486017708 -36.9558875141031
8.75 6.666666666666651 -3
8.75 13.33333333333329 -3
8.75 20 -28.40198630783896
8.75 20 -22.05148973087923
8.75 20 -15.70099315391948
8.75 20 -9.350496576959728
8.75 16.10424756453457 -36.35352629593761
-5.875000000000016 23 -3
-3.730349362740526e-14 23 -3
5.874999999999972 23 -3
-11.75 5.749999999999988 -3
-11.75 11.49999999999999 -3
-11.75 17.24999999999999 -3
-8.75 13.33333333333335 -3
-8.75 6.666666666666705 -3
-2.916666666666666 20 -3
2.916666666666668 20 -3
11.75 5.749999999999988 -3
11.75 11.49999999999999 -3
11.75 17.24999999999999 -3
11.75 5.749999999999988 0
11.75 11.49999999999999 0
11.75 17.24999999999999 0
-5.875000000000016 23 0
-3.730349362740526e-14 23 0
5.874999999999972 23 0
-11.75 5.749999999999988 0
-11.75 11.49999999999999 0
-11.75 17.24999999999999 0
-8.75 20 -9.350496576959733
-8.75 20 -15.70099315391947
-8.75 20 -22.05148973087922
-8.75 20 -28.40198630783897
-8.75 16.10424756453457 -36.35352629593761
-8.75 16.1042475645346 -43.64647370406239
-8.75 20 -68.85148973087922
-8.75 20 -62.95049657695974
-8.75 20 -57.04950342304026
-8.75 20 -51.14851026912078
-8.75 16.1042475645346 -76.3535262959376
-8.750000000000002 6.135004486017732 -76.9558875141031
8.749999999999998 6.135004486017725 -76.9558875141031
2.942718731415171 13.10142181360223 -77.58760224479963
-2.942718731415198 13.10142181360223 -77.58760224479963
16.36120380494458 6.777032512758346 -78.57420087458877
12.52232325940191 12.52232325940194 -78.57420087458877
6.7770325127583 16.3612038049446 -78.57420087458877
-6.576371990381536e-14 17.70923938586626 -78.57420087458877
-6.777032512758392 16.36120380494457 -78.57420087458877
-12.52232325940196 12.52232325940189 -78.57420087458877
-16.3612038049446 6.777032512758315 -78.57420087458877
16.36120380494458 6.777032512758346 -81.42579912541123
12.52232325940191 12.52232325940194 -81.42579912541123
6.7770325127583 16.3612038049446 -81.42579912541123
-6.576371990381536e-14 17.70923938586626 -81.42579912541123
-6.777032512758392 16.36120380494457 -81.42579912541123
-12.52232325940196 12.52232325940189 -81.42579912541123
-16.3612038049446 6.777032512758315 -81.42579912541123
-8.750000000000002 6.135004486017746 -83.04411248589689
-2.942718731415172 13.10142181360219 -82.41239775520036
2.942718731415205 13.10142181360219 -82.41239775520036
8.749999999999998 6.135004486017753 -83.04411248589689
-8.75 16.1042475645346 -83.6464737040624
-8.75 20 -108.8514897308792
-8.75 20 -102.9504965769598
-8.75 20 -97.04950342304026
-8.75 20 -91.14851026912078
-8.75 13.61571727553918 -117.3762414423993
-8.75 3.615717275539183 -120
2.916666666666666 7.231434551078368 -120
-2.916666666666668 7.231434551078368 -120
8.75 3.615717275539183 -120
8.75 16.1042475645346 -83.6464737040624
8.75 20 -108.8514897308792
8.75 20 -102.9504965769598
8.75 20 -97.04950342304026
8.75 20 -91.14851026912078
8.75 13.61571727553918 -117.3762414423993
8.75 16.1042475645346 -43.64647370406239
8.75 20 -68.85148973087922
8.75 20 -62.95049657695974
8.75 20 -57.04950342304026
8.75 20 -51.14851026912078
8.75 16.1042475645346 -76.3535262959376
2.916666666666666 20 -45.2475171152013
-2.916666666666668 20 -45.2475171152013
2.916666666666666 20 -34.7524828847987
-2.916666666666668 20 -34.7524828847987
2.916666666666666 20 -74.7524828847987
-2.916666666666668 20 -74.7524828847987
2.916666666666666 20 -85.2475171152013
-2.916666666666668 20 -85.2475171152013
2.916666666666666 20 -114.7524828847987
-2.916666666666668 20 -114.7524828847987
5.275813917785053e-15 5.556935040096178 -83.49035078965129
7.105427357601002e-15 2.997063541718703 -83.49035078965129
9.447611064395062 2.997063541718703 -82.48687012272457
11.44771431527603 8.925758058607142 -81.42579912541123
6.369908127370603 13.0439100891498 -81.42579912541123
-3.134352282702576e-14 14.51617442596244 -81.42579912541123
-6.369908127370661 13.04391008914977 -81.42579912541123
-11.44771431527604 8.925758058607123 -81.42579912541123
-9.447611064395065 2.997063541718703 -82.48687012272457
9.447611064395065 2.997063541718703 -77.51312987727543
-5.329070518200751e-15 2.997063541718703 -76.50964921034871
-9.447611064395062 2.997063541718703 -77.51312987727543
11.44771431527603 8.925758058607142 -78.57420087458877
6.369908127370603 13.0439100891498 -78.57420087458877
-3.134352282702576e-14 14.51617442596244 -78.57420087458877
-6.369908127370661 13.04391008914977 -78.57420087458877
-11.44771431527604 8.925758058607123 -78.57420087458877
5.275813917785053e-15 5.556935040096178 -76.50964921034871
5.275813917785053e-15 5.556935040096178 -43.49035078965129
7.105427357601002e-15 2.997063541718703 -43.49035078965129
9.447611064395062 2.997063541718703 -42.48687012272457
11.44771431527603 8.925758058607142 -41.42579912541123
6.369908127370603 13.0439100891498 -41.42579912541123
-3.134352282702576e-14 14.51617442596244 -41.42579912541123
-6.369908127370661 13.04391008914977 -41.42579912541123
-11.44771431527604 8.925758058607123 -41.42579912541123
-9.447611064395065 2.997063541718703 -42.48687012272457
9.447611064395065 2.997063541718703 -37.51312987727543
-5.329070518200751e-15 2.997063541718703 -36.50964921034871
-9.447611064395062 2.997063541718703 -37.51312987727543
11.44771431527603 8.925758058607142 -38.57420087458877
6.369908127370603 13.0439100891498 -38.57420087458877
-3.134352282702576e-14 14.51617442596244 -38.57420087458877
-6.369908127370661 13.04391008914977 -38.57420087458877
-11.44771431527604 8.925758058607123 -38.57420087458877
5.275813917785053e-15 5.556935040096178 -36.50964921034871
-4.106675005586007 0 -86.60647961527994
3.680054985476847 0 -72.06370887987882
3.68005498547685 0 -47.93629112012115
-4.280438429540496 0 -32.98200795430808
5.329070518200751e-15 0 -115.3604440379829
-3.666607155865739 0 -98.70270462729658
-2.853509306927874 0 -4.16348515129458
-3.030889750507345 0 -60
-2.945958502386576 0 -19.75482460517436
-4.219976331175339 0 -39.13189698954774
4.004503746097346 0 -78.94577430256545
3.480286050096601 0 -104.7876461623547
3.700149911424017 0 -92.61776309223848
-3.954558639113916 0 -80.75611354904353
2.752159891213203 0 -13.30765993248666
2.945958502386573 0 -26.4567544472441
3.607820019602126 0 -5.796269416910981
-3.027643149464682 0 -73.15429091073001
-3.106312671511974 0 -46.82775918035649
2.072564363921414 0 -33.18157188556548
0.157301190768818 0 -66.40428652648129
3.747252530116335 0 -41.01107416794155
0.1441896037609354 0 -53.59272182203311
1.951876280389267 0 -86.37279096653236
-3.362240523515297 0 -104.5236527943544
2.440418691052395 0 -98.67576652852104
-2.747514103964946 0 -92.60620078291969
3.32228505910808 0 -59.99999999999999
-3.382056904018572 0 -26.45675444724412
3.859467671321479 0 -19.79121962937179
-4.064207611026264 0 -12.39448376098069
-2.961808594493959 0 -110.5547149722748
3.757274145411882 0 -111.3585726093407
-15.03058983684736 0 -80
15.03058983684736 0 -40
-15.03058983684735 0 -40
15.03058983684736 0 -80
-10.46910181282584 0 -39.89665440351759
-10.43750446853282 0 -80.09001351774327
10.44345031460228 0 -79.8744969407816
10.3818572253457 0 -40.08597569455285
-1.068244472759915 0 -8.529741477809395
-4.981246939831154 0 -66.60385968413945
-4.981246939831159 0 -53.39614031586052
4.929305929669173 0 -53.66425871477506
4.931928247070749 0 -66.3351429549278
-4.525167416868639 0 -115.7034550886064
4.746325092259407 0 -116.005855041354
-5.09719227814281 0 -7.557928046430881
-12.89171149963777 3.949435363808582 -42.39966100475057
12.89171149963777 3.949435363808604 -42.39966100475057
12.0423880999261 8.046466477904209 -42.16918893495291
-12.04238809992611 8.04646647790417 -42.16918893495291
-17.36896131679477 3.454901214449349 -40.03450740095119
17.36896131679477 3.454901214449355 -40.03450740095118
-14.7246944063392 9.838726252205616 -40.03450740095119
3.454901214449301 17.36896131679478 -40.03450740095118
-9.838726252205671 14.72469440633916 -40.03450740095118
9.838726252205612 14.7246944063392 -39.96549259904882
-3.454901214449407 17.36896131679476 -39.96549259904882
14.72469440633918 9.83872625220565 -40.03450740095118
-12.96196917487478 3.787895028022544 -37.60517646626508
12.89171149963778 3.949435363808584 -37.60033899524943
12.04238809992609 8.046466477904202 -37.83081106504708
-12.40676808201595 7.918190078744272 -37.88495261949378
8.749999999999998 12.37324784105055 -33.49940956860854
8.749999999999998 14.88227775276243 -19.01715936277181
8.749999999999998 9.999999999999973 -8.773502691896237
8.749999999999998 4.42718544803664 -26.78177295922496
8.749999999999998 4.962435139755229 -19.65705122328528
8.749999999999998 14.48005183415344 -27.12965821640713
8.749999999999998 5.1081260886968 -13.0038986570228
8.749999999999998 14.94051137351963 -12.58922239930639
8.749999999999998 8.20455320892682 -30.55984013331308
8.749999999999998 16.6462984692954 -32.13967668420379
8.749999999999998 10.02449868499354 -15.87236975886546
8.749999999999998 4.86769866323511 -7.877256965325532
8.749999999999998 15.65476894137058 -7.342644333632473
8.749999999999998 9.496833678104682 -23.16964194231128
8.749999999999998 3.432666222247766 -32.96692658740319
10.25 3.10416666666666 -3
-10.25 3.104166666666674 -3
11.75 20.125 -1.5
11.75 14.37499999999999 -1.5
11.75 8.624999999999989 -1.5
11.75 2.874999999999994 -1.5
-2.707174061168084 4.878797530676509 0
3.157610638484556 18.22886740495932 0
7.069955745470663 8.716546370640001 0
-6.619519168154188 14.39111856499582 0
7.102873022115113 14.37499999999999 0
0.1126091443291148 11.52691623390895 0
-7.000954855602265 8.644857627020135 0
-2.792058517349995 18.15992185565015 0
2.948495529093417 4.721447277005962 0
-7.528051718759414 18.81262893003678 0
7.528051718759418 4.187371069963205 0
7.820492259183636 19.07601590637069 0
-7.553981076842909 4.160878030182232 0
-11.75 20.125 -1.5
-11.75 14.37499999999999 -1.5
-11.75 8.624999999999988 -1.5
-11.75 2.874999999999994 -1.5
-8.750000000000002 12.37324784105055 -33.49940956860854
-8.750000000000002 14.88227775276244 -19.0171593627718
-8.750000000000002 10.00000000000003 -8.773502691896239
-8.750000000000002 4.427185448036639 -26.78177295922497
-8.750000000000002 4.962435139755238 -19.65705122328529
-8.750000000000002 14.48005183415344 -27.12965821640713
-8.750000000000002 5.108126088696819 -13.00389865702281
-8.750000000000002 14.94051137351965 -12.58922239930638
-8.750000000000002 8.204553208926818 -30.55984013331308
-8.750000000000002 16.6462984692954 -32.13967668420379
-8.750000000000002 10.02449868499356 -15.87236975886545
-8.750000000000002 4.867698663235124 -7.877256965325531
-8.750000000000002 15.65476894137061 -7.342644333632473
-8.750000000000002 9.496833678104688 -23.16964194231129
-8.750000000000002 3.432666222247765 -32.9669265874032
-8.750000000000002 12.42278297270883 -46.4136527724085
-8.750000000000002 12.42278297270883 -73.58634722759149
-8.750000000000002 14.88959002114768 -60
-8.750000000000002 4.469732560244389 -66.91281421999375
-8.750000000000002 4.469732560244389 -53.08718578000623
-8.750000000000002 4.849314486443075 -59.99999999999999
-8.750000000000002 14.53671981006584 -67.51115108527694
-8.750000000000002 14.53671981006584 -52.48884891472305
-8.750000000000002 16.66557951565932 -72.17918401440001
-8.750000000000002 16.66557951565931 -47.82081598559999
-8.750000000000002 8.267232179477951 -70.66993098639317
-8.750000000000002 8.267232179477952 -49.33006901360681
-8.750000000000002 9.515133326077294 -63.63199440826568
-8.750000000000002 9.42128706390937 -56.42301635276696
-8.750000000000002 3.438429608598222 -72.98066578036526
-8.750000000000002 3.438429608598224 -47.01933421963473
-12.96196917487477 3.78789502802256 -77.60517646626508
12.89171149963777 3.949435363808595 -77.60033899524943
12.04238809992609 8.046466477904202 -77.83081106504709
-12.40676808201595 7.91819007874428 -77.88495261949379
-17.36896131679477 3.454901214449341 -80.03450740095118
17.36896131679477 3.454901214449355 -80.03450740095118
-14.72469440633921 9.838726252205609 -80.03450740095118
3.454901214449298 17.36896131679478 -79.96549259904882
-9.838726252205676 14.72469440633916 -79.96549259904883
9.838726252205612 14.7246944063392 -80.03450740095118
14.72469440633918 9.838726252205651 -80.03450740095118
-3.454901214449411 17.36896131679476 -80.03450740095118
-12.89171149963778 3.949435363808576 -82.39966100475057
12.89171149963777 3.949435363808605 -82.39966100475057
12.0423880999261 8.046466477904209 -82.16918893495291
-12.04238809992611 8.046466477904168 -82.16918893495291
-8.750000000000002 11.76235740506043 -87.89700822579944
-8.750000000000002 14.94251553198192 -105.701445701621
-8.750000000000002 4.813662235871012 -98.78611023511721
-8.750000000000002 8.852227600226744 -114.4158103207989
-8.750000000000002 15.44287430244983 -93.12842185763218
-8.750000000000002 6.574443398029128 -89.59946009727649
-8.750000000000002 4.847236565805435 -104.9731153085479
-8.750000000000002 14.91365665716516 -99.23828936605192
-8.750000000000002 14.92712289873803 -111.7648957914172
-8.750000000000002 4.845928097082782 -111.0933606697858
-8.750000000000002 9.768801230611464 -108.4472221506108
-8.750000000000002 16.66189585440898 -88.21358623436322
-8.750000000000002 4.909061504785416 -115.8848458911053
-8.750000000000002 9.429023272830277 -94.86716385855959
-8.750000000000002 9.756831235727635 -101.7451753948257
-8.750000000000002 3.271796657302783 -86.50535445160017
-8.750000000000002 4.163425781346084 -93.69765207508605
0 3.615717275539184 -120
5.165945933560927 3.615717275539184 -120
-5.165945933560927 3.615717275539184 -120
8.749999999999998 11.76235740506043 -87.89700822579944
8.749999999999998 14.94251553198192 -105.701445701621
8.749999999999998 4.813662235871012 -98.78611023511721
8.749999999999998 8.852227600226744 -114.4158103207989
8.749999999999998 15.44287430244983 -93.12842185763219
8.749999999999998 6.574443398029128 -89.59946009727649
8.749999999999998 4.847236565805435 -104.9731153085479
8.749999999999998 14.91365665716516 -99.23828936605192
8.749999999999998 14.92712289873803 -111.7648957914172
8.749999999999998 4.845928097082782 -111.0933606697858
8.749999999999998 9.768801230611466 -108.4472221506108
8.749999999999998 16.66189585440898 -88.21358623436322
8.749999999999998 4.909061504785416 -115.8848458911053
8.749999999999998 9.429023272830278 -94.86716385855959
8.749999999999998 9.756831235727635 -101.7451753948257
8.749999999999998 3.271796657302785 -86.50535445160017
8.749999999999998 4.163425781346084 -93.69765207508605
8.749999999999998 12.42278297270883 -46.4136527724085
8.749999999999998 12.42278297270882 -73.58634722759149
8.749999999999998 14.88959002114768 -60
8.749999999999998 4.469732560244387 -66.91281421999375
8.749999999999998 4.469732560244389 -53.08718578000623
8.749999999999998 4.849314486443074 -59.99999999999999
8.749999999999998 14.53671981006584 -67.51115108527695
8.749999999999998 14.53671981006584 -52.48884891472305
8.749999999999998 16.66557951565932 -72.17918401440001
8.749999999999998 16.66557951565931 -47.82081598559999
8.749999999999998 8.267232179477947 -70.66993098639317
8.749999999999998 8.267232179477952 -49.33006901360682
8.749999999999998 9.515133326077292 -63.63199440826568
8.749999999999998 9.42128706390937 -56.42301635276696
8.749999999999998 3.438429608598217 -72.98066578036526
8.749999999999998 3.438429608598224 -47.01933421963473
3.552713678800501e-15 16.55258039773084 -43.83072574278322
-4.844197601915427 16.49683151981814 -43.80781454009796
4.844197601915431 16.49683151981814 -43.80781454009796
0 16.55258039773086 -36.16927425721678
4.844197601915444 16.49683151981815 -36.19218545990203
-4.844197601915447 16.49683151981815 -36.19218545990203
-1.77635683940025e-15 20 -29.70066802938947
0 20 -8.051814855409225
3.250308637706745 20 -18.87624144239935
-3.250308637706745 20 -18.87624144239934
3.586971428319352 20 -25.78034257536197
3.196568679621389 20 -12.74650792964824
-3.212631370013957 20 -25.04632514144804
-3.688768571800018 20 -12.0089341534715
4.800727618997204 20 -30.67759253643756
4.578871472714749 20 -7.327550962492968
-4.578871472714749 20 -7.327550962492966
-4.578871472714749 20 -30.42493192230573
8.812499999999986 23 -1.5
2.937499999999966 23 -1.5
-8.812500000000007 23 -1.5
-2.937500000000027 23 -1.499999999999999
0 20 -70.37630392122497
1.77635683940025e-15 20 -49.62369607877503
-3.639590021147676 20 -60.00000000000001
3.639590021147675 20 -60
-3.597255810364731 20 -66.42578651799003
-2.563420691577244 20 -54.49218298457998
3.902553476301797 20 -53.77096112632769
2.627734358597577 20 -65.58278749600153
4.608880205052849 20 -70.86310938354062
4.49139632054776 20 -49.52456427504326
-4.491396320547762 20 -70.47543572495675
-4.596017471648786 20 -49.15188471257568
-5.329070518200751e-15 16.55258039773086 -76.16927425721678
-4.844197601915443 16.49683151981815 -76.19218545990203
4.84419760191544 16.49683151981815 -76.19218545990203
7.105427357601002e-15 16.55258039773084 -83.83072574278322
4.844197601915436 16.49683151981815 -83.80781454009797
-4.844197601915429 16.49683151981814 -83.80781454009797
0 20 -110.376303921225
0 20 -89.62369607877503
3.639590021147675 20 -100
-3.639590021147676 20 -100
2.563420691577245 20 -94.49218298457998
-3.902553476301797 20 -93.77096112632769
-2.563420691577244 20 -105.50781701542
3.902553476301797 20 -106.2290388736723
-4.491396320547761 20 -89.52456427504325
4.491396320547761 20 -110.4754357249567
-4.596017471648782 20 -110.8481152874243
4.596017471648783 20 -89.15188471257568
-1.77635683940025e-15 15.32739370588983 -116.6727911292156
-1.77635683940025e-15 10.12748292693282 -118.809806514323
-5.833333333333334 16.80785863776959 -116.064362163599
-4.375 11.72355360804803 -118.1538668749228
5.833333333333333 16.80785863776959 -116.064362163599
4.375 11.72355360804803 -118.1538668749228
4.528630470208138 7.799738884089381 -82.69253220285292
-5.287524902914275 7.624984543594273 -82.63266358759637
-0.6335192073569846 9.365808097206397 -82.607708882539
-2.339718848854984 2.997063541718703 -80.00000000000001
2.339718848854989 2.997063541718703 -80
11.73385609473436 2.997063541718703 -80
-11.73385609473436 2.997063541718703 -80
6.352355272554572 2.997063541718703 -80
-6.352355272554579 2.997063541718703 -80
-13.16367854925683 6.118569033426156 -80.04057829872195
-3.26891770424837 14.14331987221591 -80.04057829872198
13.17795674435399 6.087756237638063 -80
9.143670565688698 11.2744227591094 -80.04057829872198
-9.14367056568873 11.27442275910938 -79.95942170127802
3.268917704248303 14.14331987221593 -80.04057829872198
3.211587582343821 8.426987966128223 -77.30726339209193
-3.797694493863438 8.113689076725533 -77.2934962614886
4.528630470208137 7.799738884089379 -42.69253220285292
-5.287524902914275 7.624984543594273 -42.63266358759637
-0.6335192073569845 9.365808097206395 -42.60770888253899
2.339718848854989 2.997063541718703 -40
-2.339718848854991 2.997063541718703 -40
11.73385609473436 2.997063541718703 -40.00000000000001
-11.73385609473436 2.997063541718703 -40
6.352355272554572 2.997063541718703 -40
-6.352355272554579 2.997063541718703 -40
-13.16367854925683 6.118569033426161 -40.04057829872196
-3.26891770424837 14.14331987221591 -40.04057829872198
13.16367854925683 6.118569033426172 -40.04057829872198
9.143670565688698 11.2744227591094 -40.04057829872199
-9.143670565688735 11.27442275910937 -39.95942170127802
3.268917704248303 14.14331987221593 -40.04057829872198
-4.528630470208665 7.799738884088992 -37.30746779714707
5.287524902913506 7.624984543594763 -37.36733641240362
0.6335192073568439 9.365808097206399 -37.392291117461
-0.3846166038250208 10.84100320669848 -69.43422740827189
-3.552713678800501e-15 9.525017068205395 -109.9489802061175
-3.035329740713042e-15 10.80536570079094 -52.09359998553626
0 11.23473773064236 -98.22792047795502
-2.352876884497131e-15 10.67418218903461 -27.62242676465213
-5.329070518200751e-15 8.699394465035194 -11.59192670034295
-1.170037802780541 12.13726427627705 -90.3805695639175
0.1456976543003687 8.397429976531862 -60.7763959754968
0.906192225816044 7.804644009350138 -19.83903696632982
-2.092626587057423 13.43566598338925 -6.445435048312539
0.8987772562587868 6.219674848126795 -92.46919372932247
2.846850466120769 5.587901053852645 -113.9812200316828
2.389663348396305 7.50590832135774 -103.6692319070198

CELLS 3053 13393
1 0
1 1
1 2
1 3
1 4
1 5
1 6
1 7
1 8
1 9
1 10
1 11
1 12
1 13
1 14
1 15
1 16
1 17
1 18
1 19
1 20
1 21
1 22
1 23
1 24
1 25
1 26
1 27
1 28
1 29
1 30
1 31
1 32
1 33
1 34
1 35
1 36
1 37
1 38
1 39
1 40
1 41
1 42
1 43
1 44
1 45
1 46
1 47
1 48
1 49
1 50
1 51
1 52
1 53
1 54
1 55
1 56
1 57
1 58
1 59
1 60
1 61
1 62
1 63
1 64
1 65
2 0 66
2 66 1
2 1 2
2 2 67
2 67 3
2 3 68
2 68 69
2 69 70
2 70 71
2 71 4
2 4 5
2 5 6
2 6 72
2 72 73
2 73 74
2 74 7
2 8 7
2 8 9
2 9 75
2 75 76
2 76 77
2 77 78
2 78 10
2 11 79
2 79 10
2 12 11
2 13 80
2 80 12
2 13 81
2 81 82
2 82 83
2 83 84
2 84 14
2 15 85
2 85 14
2 16 15
2 17 86
2 86 16
2 17 87
2 87 88
2 88 89
2 89 90
2 90 91
2 91 18
2 19 92
2 92 93
2 93 18
2 20 94
2 94 95
2 95 96
2 96 97
2 97 98
2 98 19
2 20 99
2 99 21
2 21 22
2 22 100
2 100 23
2 0 101
2 101 102
2 102 103
2 103 104
2 104 23
2 1 105
2 105 106
2 106 107
2 107 108
2 108 109
2 109 110
2 110 111
2 111 12
2 24 112
2 112 13
2 24 113
2 113 114
2 114 25
2 25 115
2 115 0
2 2 116
2 116 117
2 117 118
2 118 119
2 119 120
2 120 121
2 121 122
2 122 11
2 3 123
2 123 26
2 26 124
2 124 125
2 125 27
2 10 126
2 126 27
2 4 127
2 127 128
2 128 28
2 29 129
2 129 130
2 130 131
2 131 132
2 132 28
2 26 133
2 133 29
2 31 134
2 134 135
2 135 136
2 136 30
2 8 137
2 137 138
2 138 139
2 139 31
2 32 140
2 140 141
2 141 9
2 32 142
2 142 143
2 143 28
2 5 144
2 144 145
2 145 146
2 146 30
2 6 147
2 147 148
2 148 149
2 149 33
2 30 33
2 34 150
2 150 151
2 151 152
2 152 33
2 7 153
2 153 154
2 154 155
2 155 34
2 31 34
2 32 156
2 156 157
2 157 158
2 158 159
2 159 35
2 27 160
2 160 35
2 36 161
2 161 24
2 37 162
2 162 163
2 163 164
2 164 165
2 165 36
2 38 166
2 166 37
2 14 167
2 167 38
2 23 168
2 168 39
2 39 169
2 169 170
2 170 38
2 22 171
2 171 172
2 172 173
2 173 174
2 174 175
2 175 176
2 176 177
2 177 15
2 21 178
2 178 179
2 179 180
2 180 181
2 181 182
2 182 183
2 183 184
2 184 16
2 40 185
2 185 17
2 40 186
2 186 187
2 187 41
2 41 188
2 188 20
2 42 189
2 189 40
2 43 190
2 190 191
2 191 192
2 192 193
2 193 42
2 44 194
2 194 43
2 18 195
2 195 44
2 45 196
2 196 197
2 197 44
2 19 198
2 198 45
2 46 199
2 199 41
2 47 200
2 200 201
2 201 202
2 202 203
2 203 46
2 45 204
2 204 47
2 48 205
2 205 25
2 49 206
2 206 207
2 207 208
2 208 209
2 209 48
2 39 210
2 210 49
2 48 211
2 211 212
2 212 36
2 29 213
2 213 214
2 214 35
2 49 215
2 215 216
2 216 37
2 46 217
2 217 218
2 218 42
2 47 219
2 219 220
2 220 43
2 50 221
2 221 51
2 51 222
2 222 50
2 50 223
2 223 52
2 52 224
2 224 225
2 225 226
2 226 227
2 227 228
2 228 53
2 53 229
2 229 51
2 52 54
2 54 230
2 230 55
2 55 231
2 231 56
2 56 232
2 232 57
2 53 57
2 54 233
2 233 234
2 234 235
2 235 236
2 236 237
2 237 57
2 55 238
2 238 56
2 58 239
2 239 59
2 59 240
2 240 58
2 58 241
2 241 60
2 60 242
2 242 243
2 243 244
2 244 245
2 245 246
2 246 61
2 61 247
2 247 59
2 60 62
2 62 248
2 248 63
2 63 249
2 249 64
2 64 250
2 250 65
2 61 65
2 62 251
2 251 252
2 252 253
2 253 254
2 254 255
2 255 65
2 63 256
2 256 64
3 66 297 0
3 0 259 101
3 0 278 259
3 0 297 278
3 2 291 1
3 1 291 66
3 67 291 2
3 3 297 67
3 68 276 3
3 276 278 3
3 278 297 3
3 5 6 4
3 4 6 72
3 4 273 71
3 72 273 4
3 8 9 7
3 7 9 74
3 9 263 74
3 75 305 9
3 9 305 263
3 10 260 78
3 79 294 10
3 10 266 260
3 10 294 266
3 12 292 11
3 11 292 79
3 80 292 12
3 13 294 80
3 81 275 13
3 13 275 266
3 266 294 13
3 14 274 84
3 85 295 14
3 270 274 14
3 14 295 270
3 16 290 15
3 15 290 85
3 86 290 16
3 17 295 86
3 87 257 17
3 257 270 17
3 270 295 17
3 18 303 91
3 93 303 18
3 19 304 92
3 98 304 19
3 20 280 94
3 99 296 20
3 267 280 20
3 20 296 267
3 22 293 21
3 21 293 99
3 100 293 22
3 23 296 100
3 104 258 23
3 258 267 23
3 267 296 23
3 291 297 66
3 67 297 291
3 69 272 68
3 272 276 68
3 70 286 69
3 69 286 272
3 71 271 70
3 271 286 70
3 71 273 271
3 73 273 72
3 74 263 73
3 263 273 73
3 76 287 75
3 287 305 75
3 77 265 76
3 265 287 76
3 78 285 77
3 77 285 265
3 260 285 78
3 292 294 79
3 80 294 292
3 82 300 81
3 81 300 275
3 83 264 82
3 264 300 82
3 84 299 83
3 83 299 264
3 274 299 84
3 290 295 85
3 86 295 290
3 88 283 87
3 87 283 257
3 89 262 88
3 262 283 88
3 90 281 89
3 89 281 262
3 91 288 90
3 90 288 281
3 91 303 288
3 92 261 93
3 92 304 261
3 261 303 93
3 94 269 95
3 94 280 269
3 95 282 96
3 269 282 95
3 96 268 97
3 96 282 268
3 97 289 98
3 268 289 97
3 289 304 98
3 293 296 99
3 100 296 293
3 101 301 102
3 259 301 101
3 102 284 103
3 102 301 284
3 103 302 104
3 284 302 103
3 104 302 258
3 257 280 270
3 257 283 280
3 258 274 267
3 258 277 274
3 258 302 277
3 259 278 275
3 275 279 259
3 279 301 259
3 266 276 260
3 276 285 260
3 261 289 288
3 288 303 261
3 261 304 289
3 281 282 262
3 282 283 262
3 263 298 273
3 263 305 298
3 277 284 264
3 264 299 277
3 264 284 279
3 279 300 264
3 265 286 271
3 271 287 265
3 265 285 272
3 272 286 265
3 275 278 266
3 266 278 276
3 267 274 270
3 270 280 267
3 268 282 281
3 281 288 268
3 288 289 268
3 280 283 269
3 269 283 282
3 273 298 271
3 271 298 287
3 272 285 276
3 277 299 274
3 275 300 279
3 277 302 284
3 284 301 279
3 298 305 287
3 0 307 66
3 115 307 0
3 66 307 1
3 1 307 105
3 12 306 80
3 111 306 12
3 80 306 13
3 13 306 112
3 109 24 110
3 113 24 109
3 24 309 110
3 112 309 24
3 106 25 107
3 106 308 25
3 114 107 25
3 25 308 115
3 105 308 106
3 307 308 105
3 108 107 114
3 109 108 113
3 113 108 114
3 110 309 111
3 111 309 306
3 306 309 112
3 115 308 307
3 1 311 2
3 105 311 1
3 2 311 116
3 11 310 12
3 122 310 11
3 12 310 111
3 106 317 105
3 116 311 105
3 105 317 116
3 107 315 106
3 106 315 117
3 117 317 106
3 108 313 107
3 107 313 118
3 118 315 107
3 109 316 108
3 119 313 108
3 108 316 119
3 110 314 109
3 109 314 120
3 120 316 109
3 111 312 110
3 110 312 121
3 121 314 110
3 111 310 122
3 122 312 111
3 116 317 117
3 117 315 118
3 118 313 119
3 119 316 120
3 120 314 121
3 121 312 122
3 2 319 67
3 116 319 2
3 67 319 3
3 3 319 123
3 10 318 79
3 126 318 10
3 79 318 11
3 11 318 122
3 117 118 26
3 26 320 117
3 26 118 124
3 123 320 26
3 120 121 27
3 120 27 125
3 121 321 27
3 27 321 126
3 117 320 116
3 116 320 319
3 124 118 119
3 120 125 119
3 125 124 119
3 122 321 121
3 318 321 122
3 319 320 123
3 126 321 318
3 3 336 68
3 123 336 3
3 71 333 4
3 4 333 127
3 26 322 123
3 133 322 26
3 128 334 28
3 28 334 132
3 129 331 29
3 29 331 133
3 68 325 69
3 68 336 325
3 69 326 70
3 325 326 69
3 70 328 71
3 326 328 70
3 328 333 71
3 322 330 123
3 330 336 123
3 127 324 128
3 127 333 324
3 324 334 128
3 130 327 129
3 327 331 129
3 131 323 130
3 323 327 130
3 132 329 131
3 131 329 323
3 132 334 329
3 133 331 322
3 327 330 322
3 322 331 327
3 323 335 327
3 329 332 323
3 332 335 323
3 328 332 324
3 324 333 328
3 324 332 329
3 329 334 324
3 325 335 326
3 330 335 325
3 325 336 330
3 326 332 328
3 326 335 332
3 327 335 330
3 5 4 337
3 4 127 337
3 144 5 337
3 9 8 338
3 8 137 338
3 141 9 338
3 30 28 136
3 146 28 30
3 128 28 146
3 28 143 136
3 31 134 32
3 31 32 139
3 134 142 32
3 139 32 140
3 128 145 127
3 127 145 144
3 127 144 337
3 145 128 146
3 142 134 135
3 143 135 136
3 143 142 135
3 137 138 141
3 137 141 338
3 138 139 140
3 138 140 141
3 5 342 6
3 144 342 5
3 6 342 147
3 33 339 30
3 30 339 146
3 149 339 33
3 145 341 144
3 144 341 147
3 147 342 144
3 146 340 145
3 145 340 148
3 148 341 145
3 146 339 149
3 149 340 146
3 147 341 148
3 148 340 149
3 6 353 72
3 147 353 6
3 74 355 7
3 7 355 153
3 33 354 149
3 152 354 33
3 34 352 150
3 155 352 34
3 72 351 73
3 72 353 351
3 73 343 74
3 73 351 343
3 343 355 74
3 148 345 147
3 345 353 147
3 149 347 148
3 148 347 345
3 149 354 347
3 150 350 151
3 150 352 350
3 151 344 152
3 151 350 344
3 344 354 152
3 153 349 154
3 153 355 349
3 154 346 155
3 154 349 346
3 346 352 155
3 348 349 343
3 343 351 348
3 349 355 343
3 344 348 347
3 347 354 344
3 344 350 348
3 347 348 345
3 348 351 345
3 351 353 345
3 346 349 348
3 348 350 346
3 350 352 346
3 8 7 359
3 7 153 359
3 137 8 359
3 34 31 356
3 31 139 356
3 155 34 356
3 138 137 358
3 137 153 358
3 153 137 359
3 139 138 357
3 138 154 357
3 154 138 358
3 139 155 356
3 155 139 357
3 153 154 358
3 154 155 357
3 75 9 371
3 9 141 371
3 10 78 374
3 126 10 374
3 27 126 360
3 160 27 360
3 140 32 372
3 32 156 372
3 159 35 369
3 35 160 369
3 76 75 366
3 366 75 371
3 77 76 364
3 364 76 366
3 78 77 363
3 363 77 364
3 78 363 374
3 360 126 368
3 368 126 374
3 141 140 362
3 362 140 372
3 141 362 371
3 156 157 367
3 156 367 372
3 157 158 361
3 157 361 367
3 158 159 365
3 361 158 365
3 365 159 369
3 160 360 369
3 365 360 368
3 360 365 369
3 361 365 373
3 367 361 370
3 370 361 373
3 366 362 370
3 362 366 371
3 362 367 370
3 367 362 372
3 363 364 373
3 368 363 373
3 363 368 374
3 364 366 370
3 364 370 373
3 365 368 373
3 81 13 390
3 13 112 390
3 14 84 389
3 167 14 389
3 112 24 375
3 24 161 375
3 161 36 384
3 36 165 384
3 162 37 383
3 37 166 383
3 166 38 376
3 38 167 376
3 82 81 379
3 379 81 390
3 83 82 380
3 82 379 380
3 84 83 378
3 378 83 380
3 84 378 389
3 112 375 386
3 112 386 390
3 375 161 384
3 163 162 381
3 381 162 383
3 164 163 377
3 377 163 381
3 165 164 382
3 164 377 382
3 165 382 384
3 166 376 383
3 376 167 385
3 385 167 389
3 382 375 384
3 375 382 386
3 376 381 383
3 381 376 385
3 377 381 387
3 382 377 388
3 377 387 388
3 378 380 387
3 385 378 387
3 378 385 389
3 380 379 388
3 379 386 388
3 386 379 390
3 387 380 388
3 381 385 387
3 386 382 388
3 14 391 85
3 167 391 14
3 85 391 15
3 15 391 177
3 22 392 100
3 171 392 22
3 100 392 23
3 23 392 168
3 38 394 167
3 175 38 170
3 175 176 38
3 176 394 38
3 168 393 39
3 39 173 169
3 172 173 39
3 39 393 172
3 167 394 391
3 392 393 168
3 169 174 170
3 169 173 174
3 175 170 174
3 172 393 171
3 171 393 392
3 177 394 176
3 391 394 177
3 15 395 16
3 177 395 15
3 16 395 184
3 21 396 22
3 178 396 21
3 22 396 171
3 171 401 172
3 171 396 178
3 178 401 171
3 172 400 173
3 179 400 172
3 172 401 179
3 173 398 174
3 180 398 173
3 173 400 180
3 174 402 175
3 174 398 181
3 181 402 174
3 175 399 176
3 182 399 175
3 175 402 182
3 176 397 177
3 183 397 176
3 176 399 183
3 184 395 177
3 177 397 184
3 179 401 178
3 180 400 179
3 181 398 180
3 182 402 181
3 183 399 182
3 184 397 183
3 16 403 86
3 184 403 16
3 86 403 17
3 17 403 185
3 20 404 99
3 188 404 20
3 99 404 21
3 21 404 178
3 182 40 183
3 186 40 182
3 40 406 183
3 185 406 40
3 179 41 180
3 179 405 41
3 187 180 41
3 41 405 188
3 178 405 179
3 404 405 178
3 181 180 187
3 182 181 186
3 186 181 187
3 183 406 184
3 184 406 403
3 403 406 185
3 188 405 404
3 87 17 422
3 17 185 422
3 18 91 195
3 185 40 407
3 40 189 407
3 189 42 418
3 42 193 418
3 190 43 415
3 43 194 415
3 194 44 410
3 44 195 419
3 410 44 419
3 88 87 423
3 412 87 422
3 87 412 423
3 89 88 409
3 409 88 423
3 90 89 413
3 89 409 413
3 91 90 416
3 90 413 416
3 195 91 419
3 91 416 419
3 185 407 412
3 185 412 422
3 407 189 418
3 191 190 408
3 408 190 415
3 192 191 414
3 191 408 414
3 193 192 411
3 411 192 414
3 193 411 418
3 194 410 415
3 411 407 418
3 407 411 420
3 412 407 420
3 414 408 421
3 408 415 417
3 408 417 421
3 413 409 421
3 409 420 421
3 420 409 423
3 415 410 417
3 410 416 417
3 416 410 419
3 411 414 420
3 412 420 423
3 416 413 417
3 417 413 421
3 420 414 421
3 18 426 93
3 195 426 18
3 92 425 19
3 19 425 198
3 44 426 195
3 197 426 44
3 45 425 196
3 198 425 45
3 93 424 92
3 424 425 92
3 93 426 424
3 196 424 197
3 196 425 424
3 424 426 197
3 19 198 98
3 94 442 20
3 20 442 188
3 188 427 41
3 41 427 199
3 45 439 198
3 204 430 45
3 430 439 45
3 199 438 46
3 46 438 203
3 200 435 47
3 47 435 204
3 95 443 94
3 432 442 94
3 94 443 432
3 96 429 95
3 429 443 95
3 97 433 96
3 96 433 429
3 98 436 97
3 97 436 433
3 198 439 98
3 98 439 436
3 188 432 427
3 188 442 432
3 427 438 199
3 201 428 200
3 428 435 200
3 202 434 201
3 201 434 428
3 203 431 202
3 431 434 202
3 203 438 431
3 204 435 430
3 431 438 427
3 427 440 431
3 432 440 427
3 434 441 428
3 428 437 435
3 428 441 437
3 433 441 429
3 429 441 440
3 440 443 429
3 435 437 430
3 430 437 436
3 436 439 430
3 431 440 434
3 432 443 440
3 436 437 433
3 437 441 433
3 440 441 434
3 101 459 0
3 0 459 115
3 23 458 104
3 168 458 23
3 115 444 25
3 25 444 205
3 39 445 168
3 210 445 39
3 205 453 48
3 48 453 209
3 206 452 49
3 49 452 210
3 102 448 101
3 448 459 101
3 103 449 102
3 102 449 448
3 104 447 103
3 447 449 103
3 104 458 447
3 115 455 444
3 115 459 455
3 445 454 168
3 454 458 168
3 444 453 205
3 207 450 206
3 450 452 206
3 208 446 207
3 446 450 207
3 209 451 208
3 208 451 446
3 209 453 451
3 210 452 445
3 451 453 444
3 444 455 451
3 445 452 450
3 450 454 445
3 446 456 450
3 451 457 446
3 446 457 456
3 447 456 449
3 454 456 447
3 447 458 454
3 449 457 448
3 448 457 455
3 455 459 448
3 456 457 449
3 450 456 454
3 455 457 451
3 113 461 24
3 24 461 161
3 25 462 114
3 205 462 25
3 161 461 36
3 36 461 212
3 48 462 205
3 211 462 48
3 114 460 113
3 460 461 113
3 114 462 460
3 212 460 211
3 460 462 211
3 212 461 460
3 124 464 26
3 26 464 133
3 27 465 125
3 160 465 27
3 133 464 29
3 29 464 213
3 35 465 160
3 214 465 35
3 125 463 124
3 463 464 124
3 125 465 463
3 213 463 214
3 213 464 463
3 463 465 214
3 132 475 28
3 28 475 143
3 29 474 129
3 213 474 29
3 142 476 32
3 32 476 156
3 159 477 35
3 35 477 214
3 129 470 130
3 129 474 470
3 130 468 131
3 130 470 468
3 131 471 132
3 468 471 131
3 471 475 132
3 143 467 142
3 467 476 142
3 143 475 467
3 156 473 157
3 156 476 473
3 157 469 158
3 157 473 469
3 158 472 159
3 469 472 158
3 472 477 159
3 214 466 213
3 466 474 213
3 214 477 466
3 466 472 470
3 470 474 466
3 466 477 472
3 471 473 467
3 467 475 471
3 473 476 467
3 469 471 468
3 468 472 469
3 470 472 468
3 469 473 471
3 30 478 33
3 136 478 30
3 34 480 31
3 31 480 134
3 33 478 152
3 150 480 34
3 134 481 135
3 134 480 150
3 150 481 134
3 135 479 136
3 151 479 135
3 135 481 151
3 152 478 136
3 136 479 152
3 151 481 150
3 152 479 151
3 36 493 165
3 212 493 36
3 162 492 37
3 37 492 216
3 209 491 48
3 48 491 211
3 49 490 206
3 215 490 49
3 163 486 162
3 486 492 162
3 164 484 163
3 484 486 163
3 165 487 164
3 164 487 484
3 165 493 487
3 206 489 207
3 206 490 489
3 207 485 208
3 207 489 485
3 208 488 209
3 485 488 208
3 488 491 209
3 211 483 212
3 211 491 483
3 483 493 212
3 216 482 215
3 482 490 215
3 216 492 482
3 486 489 482
3 482 492 486
3 489 490 482
3 483 488 487
3 487 493 483
3 483 491 488
3 484 487 485
3 485 489 484
3 484 489 486
3 487 488 485
3 37 495 166
3 216 495 37
3 166 495 38
3 38 495 170
3 169 496 39
3 39 496 210
3 210 496 49
3 49 496 215
3 170 494 169
3 494 496 169
3 170 495 494
3 215 494 216
3 215 496 494
3 494 495 216
3 186 499 40
3 40 499 189
3 41 498 187
3 199 498 41
3 189 499 42
3 42 499 218
3 46 498 199
3 217 498 46
3 187 497 186
3 497 499 186
3 187 498 497
3 218 497 217
3 497 498 217
3 218 499 497
3 42 508 193
3 218 508 42
3 190 510 43
3 43 510 220
3 203 511 46
3 46 511 217
3 47 509 200
3 219 509 47
3 191 506 190
3 506 510 190
3 192 503 191
3 503 506 191
3 193 505 192
3 192 505 503
3 193 508 505
3 200 507 201
3 200 509 507
3 201 502 202
3 201 507 502
3 202 504 203
3 502 504 202
3 504 511 203
3 217 501 218
3 217 511 501
3 501 508 218
3 220 500 219
3 500 509 219
3 220 510 500
3 506 507 500
3 500 510 506
3 507 509 500
3 504 505 501
3 501 511 504
3 505 508 501
3 503 504 502
3 502 506 503
3 502 507 506
3 503 505 504
3 43 514 194
3 220 514 43
3 194 515 44
3 44 515 197
3 196 517 45
3 45 517 204
3 204 516 47
3 47 516 219
3 514 515 194
3 197 513 196
3 513 517 196
3 197 515 513
3 204 517 516
3 219 512 220
3 219 516 512
3 512 514 220
3 513 515 512
3 512 517 513
3 512 515 514
3 516 517 512
3 221 222 50
3 222 221 51
3 221 50 518
3 50 223 518
3 51 221 519
3 229 51 519
3 52 224 223
3 228 53 229
3 221 518 520
3 519 221 520
3 223 224 518
3 224 225 518
3 225 226 520
3 518 225 520
3 226 227 520
3 227 228 519
3 227 519 520
3 228 229 519
3 222 522 50
3 50 525 223
3 522 525 50
3 51 521 222
3 229 526 51
3 51 526 521
3 52 523 54
3 223 523 52
3 57 524 53
3 53 524 229
3 54 523 230
3 230 525 55
3 55 522 231
3 55 525 522
3 231 521 56
3 56 526 232
3 521 526 56
3 232 524 57
3 521 522 222
3 230 523 223
3 223 525 230
3 229 524 232
3 232 526 229
3 231 522 521
3 52 54 529
3 224 52 529
3 57 53 527
3 53 228 527
3 54 233 529
3 237 57 527
3 225 224 530
3 233 224 529
3 224 233 530
3 226 225 532
3 234 225 530
3 225 234 532
3 227 226 528
3 226 235 528
3 235 226 532
3 228 227 531
3 236 227 528
3 227 236 531
3 228 237 527
3 237 228 531
3 233 234 530
3 234 235 532
3 235 236 528
3 236 237 531
3 54 230 233
3 230 55 533
3 55 238 533
3 56 232 534
3 238 56 534
3 237 232 57
3 233 230 533
3 232 237 534
3 234 233 533
3 235 234 533
3 236 235 534
3 235 533 534
3 237 236 534
3 533 238 534
3 231 238 55
3 238 231 56
3 239 240 58
3 239 59 240
3 239 58 535
3 58 241 535
3 59 239 536
3 247 59 536
3 60 242 241
3 246 61 247
3 239 535 537
3 536 239 537
3 241 242 535
3 242 243 535
3 243 244 537
3 535 243 537
3 244 245 537
3 245 246 536
3 245 536 537
3 246 247 536
3 240 538 58
3 58 542 241
3 538 542 58
3 59 539 240
3 247 543 59
3 59 543 539
3 60 540 62
3 241 540 60
3 65 541 61
3 61 541 247
3 62 540 248
3 248 542 63
3 63 538 249
3 63 542 538
3 249 539 64
3 64 543 250
3 539 543 64
3 250 541 65
3 240 539 538
3 248 540 241
3 241 542 248
3 247 541 250
3 250 543 247
3 538 539 249
3 60 62 546
3 242 60 546
3 65 61 544
3 61 246 544
3 62 251 546
3 255 65 544
3 243 242 547
3 251 242 546
3 242 251 547
3 244 243 549
3 252 243 547
3 243 252 549
3 245 244 545
3 244 253 545
3 253 244 549
3 246 245 548
3 254 245 545
3 245 254 548
3 246 255 544
3 255 246 548
3 251 252 547
3 252 253 549
3 253 254 545
3 254 255 548
3 62 248 251
3 248 63 551
3 63 256 551
3 64 250 550
3 256 64 550
3 255 250 65
3 251 248 551
3 250 255 550
3 252 251 551
3 253 252 552
3 252 551 552
3 254 253 552
3 255 254 550
3 550 254 552
3 256 550 552
3 551 256 552
3 249 256 63
3 256 249 64
4 257 412 221 563
4 51 257 412 221
4 474 466 463 557
4 232 534 167 56
4 463 464 474 557
4 419 416 303 564
4 409 423 262 563
4 61 246 247 306
4 248 62 251 319
4 53 228 229 403
4 179 180 41 400
4 110 109 314 24
4 118 117 26 315
4 175 176 399 38
4 381 553 486 560
4 419 303 197 564
4 464 331 474 557
4 313 252 253 549
4 477 465 463 557
4 483 460 493 555
4 477 463 466 557
4 428 556 507 565
4 384 493 461 555
4 197 410 419 554
4 461 493 460 555
4 369 465 477 557
4 381 486 377 560
4 419 197 554 564
4 491 460 483 555
4 367 370 361 558
4 329 323 332 558
4 391 15 57 85
4 11 65 318 79
4 462 491 453 555
4 428 507 554 565
4 125 463 465 557
4 464 463 124 557
4 419 554 416 564
4 412 559 221 563
4 491 462 460 555
4 262 409 556 565
4 368 260 256 557
4 413 421 409 565
4 370 361 558 561
4 259 239 58 455
4 367 469 473 558
4 409 262 556 563
4 506 507 556 565
4 506 554 507 565
4 510 512 500 554
4 409 420 423 563
4 512 510 514 554
4 448 301 555 560
4 419 410 416 554
4 242 307 60 241
4 224 404 52 223
4 334 329 558 562
4 496 452 490 553
4 182 183 40 399
4 172 173 400 39
4 107 106 315 25
4 121 120 27 314
4 300 379 555 560
4 332 558 323 561
4 510 408 415 554
4 494 490 482 553
4 486 553 489 560
4 516 509 512 554
4 509 507 500 554
4 500 512 509 554
4 426 419 303 197
4 114 460 462 555
4 461 460 113 555
4 381 387 553 560
4 498 511 438 559
4 239 455 259 555
4 511 431 438 559
4 509 428 507 554
4 238 258 454 553
4 408 421 417 554
4 197 261 303 424
4 59 386 536 239
4 484 377 486 560
4 415 514 510 554
4 397 177 394 176
4 122 312 121 321
4 371 343 263 558
4 277 258 238 553
4 412 519 51 221
4 496 490 494 553
4 381 377 387 560
4 302 447 258 553
4 421 413 417 554
4 239 259 279 555
4 324 333 127 558
4 334 143 475 562
4 301 279 555 560
4 435 428 509 554
4 421 556 409 565
4 469 367 361 558
4 260 276 256 557
4 300 555 279 560
4 464 322 331 557
4 369 360 465 557
4 468 323 329 558
4 361 469 558 561
4 535 58 239 455
4 378 299 553 560
4 351 273 298 558
4 421 413 554 565
4 343 558 371 562
4 141 343 371 562
4 462 453 444 555
4 384 461 375 555
4 256 63 551 330
4 379 300 380 560
4 516 435 509 554
4 334 329 324 558
4 388 555 379 560
4 428 502 507 556
4 257 283 412 563
4 301 259 448 555
4 450 456 446 560
4 450 553 456 560
4 448 449 301 560
4 373 557 361 561
4 409 556 420 563
4 413 409 281 565
4 351 558 343 562
4 334 128 143 562
4 468 323 558 561
4 380 300 264 560
4 262 281 409 565
4 448 555 457 560
4 382 493 384 555
4 274 238 56 553
4 492 494 482 553
4 469 468 558 561
4 302 258 277 553
4 185 17 51 229
4 276 63 256 330
4 485 446 555 560
4 361 557 469 561
4 519 221 412 559
4 510 500 506 554
4 277 553 299 560
4 388 377 555 560
4 329 471 468 558
4 283 262 423 563
4 484 486 489 560
4 334 558 324 562
4 112 13 59 247
4 450 489 553 560
4 488 446 451 555
4 488 485 446 555
4 459 259 58 455
4 446 457 555 560
4 386 59 275 239
4 485 555 487 560
4 301 449 284 560
4 334 475 471 562
4 261 424 197 564
4 388 379 380 560
4 258 447 454 553
4 408 510 506 554
4 506 500 507 554
4 491 451 453 555
4 495 492 383 553
4 536 239 386 555
4 335 323 557 561
4 422 51 257 412
4 420 412 423 563
4 366 558 287 561
4 128 334 324 562
4 452 450 490 553
4 448 259 455 555
4 301 279 259 555
4 551 256 330 557
4 360 125 465 557
4 464 124 322 557
4 408 414 421 556
4 428 441 434 565
4 256 260 249 276
4 492 495 494 553
4 327 474 331 557
4 468 557 323 561
4 501 511 497 559
4 323 468 470 557
4 496 445 452 553
4 303 426 197 424
4 473 367 558 562
4 498 497 511 559
4 197 513 515 554
4 428 434 556 565
4 518 50 221 563
4 276 330 256 557
4 334 471 329 562
4 489 450 446 560
4 469 471 473 558
4 323 470 327 557
4 239 535 455 555
4 457 449 448 560
4 469 557 468 561
4 351 343 348 562
4 239 275 386 555
4 363 557 373 561
4 231 238 274 258
4 456 553 447 560
4 10 126 64 250
4 197 515 410 554
4 351 263 298 273
4 264 300 279 560
4 0 115 58 241
4 477 365 369 557
4 256 550 368 557
4 240 275 239 259
4 427 498 438 559
4 351 345 127 348
4 512 514 515 554
4 512 517 516 554
4 441 556 434 565
4 438 431 427 559
4 114 462 444 555
4 461 113 375 555
4 303 261 197 564
4 366 370 558 561
4 123 3 63 248
4 387 378 553 560
4 288 303 416 564
4 220 510 512 500
4 280 432 50 442
4 500 512 219 509
4 276 336 63 330
4 416 417 413 554
4 408 503 414 556
4 502 428 434 556
4 337 342 5 144
4 359 8 137 338
4 470 466 474 557
4 197 513 554 564
4 230 54 233 392
4 471 558 329 562
4 300 379 275 555
4 301 284 279 560
4 239 279 275 555
4 512 219 509 516
4 169 496 494 553
4 368 285 260 557
4 366 364 370 561
4 316 244 545 109
4 431 559 556 563
4 423 412 283 563
4 512 514 510 220
4 551 552 256 557
4 363 373 364 561
4 457 451 446 555
4 382 388 377 555
4 378 380 299 560
4 415 515 514 554
4 435 516 517 554
4 466 213 474 463
4 335 323 327 557
4 361 373 365 557
4 484 485 487 560
4 464 474 213 463
4 420 559 412 563
4 390 386 59 275
4 238 274 277 553
4 222 257 283 280
4 518 432 50 563
4 141 371 362 562
4 14 167 56 232
4 257 51 222 221
4 451 444 453 555
4 382 384 375 555
4 386 275 379 555
4 485 488 487 555
4 360 550 125 557
4 274 56 389 385
4 467 471 475 562
4 435 437 428 554
4 417 415 408 554
4 506 507 502 556
4 363 285 557 561
4 302 449 447 560
4 316 253 120 545
4 277 274 238 258
4 371 558 362 562
4 281 554 413 565
4 274 56 385 553
4 537 239 536 555
4 264 299 380 560
4 414 505 411 556
4 468 472 470 557
4 252 251 26 551
4 536 24 246 245
4 40 228 519 227
4 105 60 1 311
4 178 52 21 396
4 310 61 12 111
4 395 53 16 184
4 505 411 556 559
4 416 413 288 554
4 533 238 454 553
4 20 188 50 223
4 469 468 471 558
4 221 559 518 563
4 495 383 376 553
4 361 472 469 557
4 490 494 482 215
4 260 64 256 249
4 187 497 498 559
4 431 556 440 563
4 489 446 485 560
4 492 216 482 494
4 487 382 377 555
4 535 114 444 555
4 408 506 503 556
4 483 488 491 555
4 214 477 465 463
4 436 564 289 565
4 378 299 274 553
4 492 381 383 553
4 275 239 259 279
4 437 428 554 565
4 305 298 287 558
4 374 260 368 363
4 302 284 449 560
4 275 279 300 555
4 260 285 276 557
4 288 416 554 564
4 366 265 364 561
4 327 331 322 557
4 369 365 360 557
4 366 287 265 561
4 536 386 375 555
4 477 214 466 463
4 452 445 450 553
4 250 550 126 64
4 241 535 115 58
4 491 211 483 460
4 501 218 508 497
4 483 212 493 460
4 511 501 497 217
4 285 363 364 561
4 170 494 495 553
4 368 363 285 557
4 473 558 471 562
4 124 552 322 557
4 482 486 492 553
4 499 508 218 497
4 211 491 462 460
4 216 492 495 494
4 490 496 494 215
4 485 484 489 560
4 378 274 385 553
4 497 498 511 217
4 461 493 212 460
4 431 427 559 563
4 490 489 482 553
4 109 244 545 245
4 454 447 456 553
4 435 517 430 554
4 410 515 415 554
4 260 368 363 285
4 504 556 431 559
4 387 380 378 560
4 223 518 188 50
4 325 335 557 561
4 325 330 272 557
4 113 24 536 245
4 186 40 519 227
4 124 26 551 252
4 472 468 469 557
4 445 496 169 553
4 280 269 432 442
4 168 23 55 230
4 187 498 427 559
4 113 537 375 555
4 325 336 276 330
4 472 361 365 557
4 171 22 54 396
4 116 2 62 311
4 15 57 395 177
4 310 11 65 122
4 299 277 274 553
4 504 431 511 559
4 325 286 326 561
4 427 518 187 559
4 305 287 371 558
4 518 559 427 563
4 536 375 113 537
4 473 471 467 562
4 386 59 536 390
4 432 518 427 563
4 536 375 537 555
4 325 557 272 561
4 390 379 386 275
4 487 483 493 555
4 289 564 554 565
4 124 552 551 322
4 316 253 119 120
4 556 559 420 563
4 456 447 449 560
4 389 378 274 385
4 431 440 427 563
4 470 474 327 557
4 488 451 491 555
4 125 550 552 557
4 497 508 501 559
4 175 235 528 402
4 170 169 494 553
4 231 55 238 258
4 436 554 564 565
4 429 563 556 565
4 441 429 556 565
4 360 368 550 557
4 370 373 361 561
4 447 258 454 458
4 551 63 336 330
4 264 277 299 560
4 332 328 558 561
4 411 420 556 559
4 50 432 280 563
4 240 239 58 259
4 276 272 330 557
4 437 554 436 565
4 459 448 259 455
4 535 444 455 555
4 287 558 271 561
4 410 415 417 554
4 435 430 437 554
4 51 422 519 412
4 436 268 433 565
4 256 552 550 557
4 497 499 508 559
4 281 288 413 554
4 348 347 128 562
4 475 143 467 562
4 421 420 409 556
4 429 440 441 556
4 349 343 141 562
4 362 558 367 562
4 482 489 486 553
4 414 411 420 556
4 434 440 431 556
4 328 271 558 561
4 499 418 508 559
4 486 381 492 553
4 434 431 504 556
4 437 436 433 565
4 440 556 429 563
4 490 450 489 553
4 277 284 302 560
4 38 170 534 236
4 87 422 257 412
4 303 288 261 564
4 537 114 535 555
4 381 376 383 553
4 477 466 472 557
4 520 221 519 559
4 9 141 338 355
4 504 511 501 559
4 127 4 337 353
4 343 371 263 141
4 316 244 109 108
4 385 387 378 553
4 376 170 495 553
4 552 252 124 551
4 537 245 113 536
4 520 227 186 519
4 239 537 535 555
4 367 362 370 558
4 332 324 329 558
4 436 289 268 565
4 418 411 508 559
4 414 503 505 556
4 520 518 221 559
4 366 371 287 558
4 429 282 563 565
4 244 109 113 245
4 487 493 382 555
4 416 410 417 554
4 265 285 364 561
4 328 326 271 561
4 348 344 347 562
4 513 512 515 554
4 512 513 517 554
4 370 364 373 561
4 236 175 235 528
4 50 432 518 442
4 272 557 285 561
4 412 407 519 559
4 505 556 504 559
4 388 387 377 560
4 454 456 450 553
4 448 455 457 555
4 388 386 379 555
4 169 39 533 234
4 321 27 255 121
4 298 273 271 558
4 27 126 321 255
4 264 279 284 560
4 27 125 550 254
4 25 114 535 243
4 41 187 518 225
4 286 271 326 561
4 488 483 487 555
4 325 272 286 561
4 328 271 333 558
4 333 271 273 558
4 517 430 554 564
4 325 326 335 561
4 436 554 437 564
4 332 326 328 561
4 272 325 276 330
4 272 276 285 557
4 255 254 27 550
4 243 242 535 25
4 225 224 518 41
4 254 120 253 545
4 288 554 289 564
4 520 187 518 559
4 170 175 235 236
4 446 456 457 560
4 432 269 280 563
4 237 236 38 534
4 186 519 407 559
4 466 470 472 557
4 174 235 175 402
4 281 288 554 565
4 394 38 237 176
4 38 167 394 237
4 506 502 503 556
4 368 373 363 557
4 325 335 330 557
4 324 328 333 558
4 366 362 371 558
4 287 271 265 561
4 125 120 253 254
4 169 533 445 553
4 442 269 432 94
4 325 286 69 326
4 455 444 451 555
4 382 375 386 555
4 477 472 365 557
4 505 508 411 559
4 450 445 454 553
4 499 407 418 559
4 499 497 186 559
4 328 324 332 558
4 370 362 366 558
4 437 441 428 565
4 388 380 387 560
4 473 372 367 562
4 17 403 86 229
4 420 421 414 556
4 441 440 434 556
4 476 372 473 562
4 362 140 141 562
4 513 517 554 564
4 467 143 142 562
4 262 282 281 565
4 455 451 457 555
4 388 382 386 555
4 372 476 142 562
4 349 348 343 562
4 430 437 554 564
4 381 387 385 553
4 503 504 505 556
4 534 170 376 553
4 140 372 142 562
4 284 277 264 560
4 152 33 354 478
4 142 143 350 562
4 505 504 501 559
4 150 34 480 352
4 327 322 330 557
4 360 365 368 557
4 186 520 519 559
4 364 76 265 366
4 13 306 80 247
4 501 508 505 559
4 456 449 457 560
4 504 502 434 556
4 140 349 141 562
4 445 533 454 553
4 429 282 443 563
4 418 407 411 559
4 359 153 7 355
4 287 265 76 366
4 342 353 6 147
4 372 142 32 140
4 128 28 334 143
4 354 33 149 339
4 283 282 262 563
4 499 186 407 559
4 264 299 83 380
4 82 264 380 300
4 409 281 89 413
4 34 356 352 155
4 381 486 163 377
4 432 443 269 563
4 222 521 270 522
4 262 281 89 409
4 476 142 32 372
4 475 334 28 143
4 378 83 299 380
4 380 379 82 300
4 335 332 323 561
4 274 56 238 231
4 281 268 288 565
4 157 469 473 367
4 433 268 429 565
4 335 327 330 557
4 373 368 365 557
4 283 87 257 412
4 77 363 364 285
4 413 288 90 416
4 350 481 150 151
4 307 0 66 241
4 411 414 192 505
4 534 376 385 553
4 372 362 367 562
4 346 357 154 155
4 239 59 275 240
4 282 269 443 563
4 249 63 256 276
4 344 350 143 562
4 423 87 283 412
4 551 248 123 63
4 536 247 112 59
4 284 301 102 449
4 103 302 284 449
4 374 78 260 363
4 427 440 432 563
4 3 319 67 248
4 448 102 301 449
4 449 103 302 447
4 479 151 344 152
4 385 376 381 553
4 298 271 287 558
4 343 263 355 141
4 69 272 286 325
4 412 420 407 559
4 280 269 283 563
4 479 143 135 136
4 134 135 481 142
4 346 140 142 562
4 265 286 272 561
4 488 208 451 446
4 430 436 437 564
4 519 229 185 51
4 9 141 355 263
4 533 534 238 553
4 411 407 420 559
4 271 286 265 561
4 442 280 269 94
4 96 429 433 268
4 130 327 323 470
4 424 425 304 92
4 404 20 99 223
4 267 270 274 231
4 424 304 425 564
4 486 484 163 377
4 201 502 507 428
4 345 147 341 148
4 476 473 467 562
4 423 262 88 409
4 430 196 439 564
4 140 142 32 346
4 318 10 79 250
4 148 149 340 347
4 367 157 469 361
4 534 237 167 38
4 323 329 131 468
4 164 382 377 487
4 269 443 432 94
4 504 503 502 556
4 95 443 429 282
4 426 303 93 424
4 280 50 222 522
4 153 358 154 349
4 265 272 285 561
4 207 450 446 489
4 428 201 502 434
4 278 249 266 276
4 509 200 428 435
4 240 266 275 278
4 533 55 168 458
4 335 326 332 561
4 44 419 197 410
4 196 45 430 439
4 424 261 304 564
4 196 425 439 564
4 282 429 268 565
4 431 504 202 434
4 341 144 127 145
4 137 138 358 141
4 500 512 220 219
4 352 32 142 346
4 353 351 127 273
4 347 128 345 348
4 136 28 30 478
4 480 32 31 134
4 282 95 443 269
4 23 392 100 230
4 304 261 424 92
4 190 408 415 510
4 285 364 77 265
4 440 429 443 563
4 208 488 485 446
4 414 408 191 503
4 539 266 59 240
4 24 110 309 246
4 40 183 406 228
4 26 117 320 251
4 503 192 414 505
4 509 200 507 428
4 515 194 415 514
4 516 435 517 204
4 468 130 323 470
4 344 348 350 562
4 515 194 410 415
4 435 517 204 430
4 468 329 131 471
4 391 14 85 232
4 447 104 258 458
4 259 101 448 459
4 231 274 267 258
4 140 346 349 562
4 71 333 328 271
4 303 91 416 419
4 213 466 214 463
4 441 433 429 565
4 127 4 353 273
4 140 357 139 138
4 146 145 340 128
4 275 240 278 259
4 186 40 407 519
4 271 71 333 273
4 156 473 476 372
4 282 283 269 563
4 98 439 304 564
4 34 356 480 352
4 44 419 426 197
4 45 196 425 439
4 281 288 90 413
4 283 262 88 423
4 261 93 303 424
4 539 240 538 278
4 31 32 356 139
4 146 30 28 339
4 425 304 439 564
4 518 432 188 442
4 372 156 473 367
4 106 25 308 242
4 179 41 405 224
4 517 196 430 564
4 73 263 351 273
4 346 348 349 562
4 282 268 281 565
4 258 302 104 447
4 168 454 533 458
4 78 260 363 285
4 433 441 437 565
4 101 301 259 448
4 429 96 282 268
4 476 467 142 562
4 240 539 266 278
4 538 63 249 278
4 142 350 346 562
4 270 521 56 231
4 98 436 439 564
4 412 422 519 185
4 73 263 343 351
4 510 190 408 506
4 207 446 485 489
4 196 424 425 564
4 164 377 484 487
4 41 187 427 518
4 499 186 40 407
4 41 187 498 427
4 518 188 50 442
4 408 191 503 506
4 410 197 44 515
4 430 517 45 196
4 260 266 249 276
4 361 158 472 365
4 344 354 347 143
4 4 127 333 273
4 372 140 362 562
4 50 20 280 442
4 288 289 261 564
4 508 193 411 418
4 513 196 517 564
4 26 320 123 251
4 24 309 112 246
4 74 263 9 355
4 504 502 202 434
4 270 257 222 280
4 216 482 494 215
4 478 33 354 339
4 39 172 393 233
4 418 508 42 499
4 72 353 4 273
4 203 438 511 431
4 40 406 185 228
4 381 162 492 383
4 451 209 491 453
4 351 353 72 273
4 75 305 287 371
4 212 483 211 460
4 501 218 497 217
4 453 48 491 462
4 37 492 383 495
4 519 422 51 185
4 124 26 322 551
4 438 498 46 511
4 113 24 375 536
4 493 382 165 487
4 303 195 419 426
4 162 492 486 381
4 308 25 115 242
4 350 348 346 562
4 206 452 450 490
4 490 450 206 489
4 470 129 327 474
4 550 126 64 374
4 36 461 384 493
4 49 496 452 490
4 139 357 140 155
4 384 382 165 493
4 209 491 488 451
4 498 41 427 199
4 40 499 407 189
4 355 74 263 343
4 163 162 486 381
4 499 189 418 407
4 438 498 427 199
4 405 41 188 224
4 474 129 327 331
4 3 63 278 276
4 4 353 342 337
4 432 440 443 563
4 368 126 550 374
4 369 465 35 477
4 338 359 9 355
4 366 75 287 371
4 511 504 203 431
4 536 112 386 390
4 198 439 425 304
4 288 303 91 416
4 266 275 59 240
4 432 188 427 518
4 352 142 350 346
4 505 193 411 508
4 27 125 360 550
4 158 472 469 361
4 89 88 262 409
4 48 211 491 462
4 508 218 42 499
4 492 37 216 495
4 25 114 444 535
4 442 20 280 94
4 123 551 336 330
4 156 157 473 367
4 519 412 185 407
4 159 369 477 365
4 83 264 380 82
4 280 20 50 267
4 331 474 29 464
4 550 255 126 27
4 535 242 115 25
4 454 445 168 533
4 200 201 507 428
4 536 59 112 390
4 477 465 35 214
4 208 209 488 451
4 270 56 274 231
4 261 93 424 92
4 551 336 63 123
4 278 63 249 276
4 195 91 303 419
4 382 164 165 487
4 125 119 253 120
4 244 109 108 113
4 518 224 188 41
4 95 429 96 282
4 411 192 193 505
4 98 198 304 439
4 191 408 190 506
4 195 303 18 426
4 450 207 206 489
4 39 393 168 233
4 430 439 436 564
4 38 170 376 534
4 36 461 493 212
4 511 498 46 217
4 49 496 490 215
4 63 3 336 276
4 327 130 129 470
4 328 71 271 70
4 47 509 516 435
4 167 385 534 376
4 103 284 102 449
4 88 87 283 423
4 278 240 58 259
4 474 213 29 464
4 64 260 266 249
4 274 14 56 270
4 169 39 445 533
4 477 472 159 365
4 98 97 436 289
4 281 90 89 413
4 188 41 427 518
4 50 280 267 522
4 202 203 504 431
4 141 138 358 349
4 341 127 345 145
4 231 267 55 258
4 514 43 415 510
4 27 125 465 360
4 124 26 464 322
4 509 47 200 435
4 185 40 519 407
4 303 93 18 426
4 91 195 303 18
4 59 13 275 266
4 445 39 168 533
4 535 115 455 444
4 304 261 289 564
4 161 461 375 384
4 210 496 445 452
4 453 205 462 444
4 383 166 495 376
4 113 24 461 375
4 25 114 462 444
4 169 39 496 445
4 38 170 495 376
4 131 329 132 471
4 98 198 19 304
4 126 360 368 550
4 149 146 340 347
4 422 17 87 257
4 26 464 322 133
4 465 27 360 160
4 42 193 508 418
4 154 358 138 349
4 75 9 305 371
4 288 91 90 416
4 148 341 345 145
4 357 346 140 155
4 73 351 72 273
4 37 492 162 383
4 48 491 209 453
4 51 17 422 257
4 58 0 259 459
4 170 174 235 175
4 112 386 375 536
4 156 476 32 372
4 222 51 257 270
4 24 461 375 161
4 39 496 445 210
4 495 38 376 166
4 462 25 444 205
4 198 425 19 304
4 71 4 333 273
4 360 465 160 369
4 133 331 464 322
4 330 123 551 322
4 304 425 19 92
4 143 135 142 151
4 286 70 69 326
4 336 3 68 276
4 534 38 167 376
4 75 287 76 366
4 132 334 28 475
4 353 6 4 342
4 359 7 9 355
4 76 77 364 265
4 258 23 55 458
4 23 258 104 458
4 101 259 0 459
4 142 350 143 151
4 194 410 44 515
4 204 517 45 430
4 128 146 28 354
4 194 43 415 514
4 435 516 47 204
4 126 27 360 550
4 161 36 461 384
4 49 496 210 452
4 115 535 25 444
4 35 369 477 159
4 158 159 472 365
4 474 29 129 331
4 480 356 32 352
4 123 26 551 322
4 48 453 205 462
4 37 383 166 495
4 375 24 112 536
4 526 56 14 270
4 509 219 47 516
4 414 191 192 503
4 185 17 422 51
4 190 415 43 510
4 97 96 433 268
4 253 125 552 124
4 186 226 520 187
4 537 113 244 114
4 278 58 0 259
4 128 340 146 347
4 201 202 502 434
4 269 95 443 94
4 526 14 295 270
4 49 452 206 490
4 511 46 438 203
4 542 3 63 278
4 46 498 438 199
4 165 36 384 493
4 84 14 389 274
4 81 390 13 275
4 189 418 42 499
4 266 59 13 543
4 160 465 35 369
4 29 133 331 464
4 78 260 10 374
4 353 342 337 147
4 338 153 359 355
4 510 514 43 220
4 267 20 50 525
4 77 78 363 285
4 267 23 55 258
4 68 272 69 325
4 478 354 28 339
4 14 56 389 274
4 146 128 347 354
4 526 295 17 270
4 350 344 143 151
4 143 354 136 152
4 73 263 74 343
4 59 13 390 275
4 301 101 102 448
4 103 104 302 447
4 142 481 150 350
4 149 146 347 354
4 278 542 3 297
4 266 13 294 543
4 344 143 151 479
4 20 188 442 50
4 355 343 141 349
4 74 9 7 355
4 260 64 10 374
4 157 158 469 361
4 131 130 323 468
4 294 541 80 292
4 81 82 379 300
4 378 83 84 299
4 112 13 390 59
4 541 294 79 292
4 14 167 389 56
4 140 346 357 154
4 350 142 481 151
4 0 115 459 58
4 10 126 374 64
4 523 296 99 293
4 4 6 353 72
4 551 251 26 123
4 24 536 246 112
4 394 57 391 177
4 321 65 318 122
4 290 524 85 295
4 525 267 20 296
4 143 354 28 136
4 150 134 142 352
4 100 296 523 293
4 524 290 86 295
4 351 127 345 353
4 544 321 122 65
4 527 394 177 57
4 0 542 278 297
4 67 291 297 540
4 257 51 17 270
4 485 208 446 207
4 297 291 66 540
4 65 250 318 79
4 229 17 51 526
4 150 134 481 142
4 136 479 143 152
4 344 143 479 152
4 168 23 458 55
4 228 40 519 185
4 484 163 377 164
4 145 127 345 128
4 51 222 521 270
4 141 140 138 349
4 151 143 135 479
4 135 481 142 151
4 539 64 266 249
4 439 425 45 198
4 419 195 44 426
4 229 53 86 524
4 247 61 80 541
4 248 62 67 540
4 142 134 32 352
4 123 3 336 63
4 247 13 59 543
4 526 17 51 270
4 525 23 267 296
4 143 344 354 152
4 138 140 154 349
4 145 345 148 128
4 57 232 391 85
4 266 294 10 543
4 229 53 403 86
4 247 61 306 80
4 248 62 319 67
4 150 142 350 352
4 152 354 28 478
4 57 53 395 527
4 310 65 61 544
4 62 60 546 311
4 65 250 79 541
4 241 60 540 66
4 52 223 99 523
4 10 64 260 266
4 79 65 541 292
4 80 541 61 292
4 541 247 294 80
4 354 149 28 339
4 54 100 523 293
4 523 99 52 293
4 524 57 290 85
4 524 290 53 86
4 147 127 345 341
4 54 52 529 396
4 291 67 62 540
4 291 60 66 540
4 316 244 253 545
4 313 253 244 549
4 250 64 10 543
4 358 153 141 349
4 542 0 58 241
4 140 346 154 349
4 150 480 32 352
4 13 247 294 543
4 17 229 295 526
4 527 395 57 177
4 122 65 310 544
4 116 62 546 311
4 32 480 150 134
4 28 136 152 478
4 52 223 404 99
4 241 60 66 307
4 527 53 395 184
4 111 310 61 544
4 105 546 60 311
4 28 149 146 339
4 63 3 542 248
4 529 171 54 396
4 63 538 542 278
4 529 52 178 396
4 352 356 32 155
4 139 32 356 155
4 128 148 340 347
4 56 526 521 270
4 540 297 67 248
4 229 524 86 295
4 144 337 342 147
4 359 137 153 338
4 522 267 50 525
4 184 395 527 177
4 310 111 122 544
4 546 105 116 311
4 542 58 0 278
4 543 266 59 539
4 57 232 85 524
4 178 171 529 396
4 232 56 14 526
4 538 240 58 278
4 525 20 50 223
4 523 99 296 223
4 294 250 541 79
4 267 55 522 231
4 128 345 148 347
4 355 338 153 141
4 337 127 353 147
4 356 32 31 480
4 478 28 30 339
4 478 30 33 339
4 294 250 10 543
4 266 10 64 543
4 31 34 356 480
4 66 297 540 241
4 342 5 4 337
4 9 8 359 338
4 402 226 235 528
4 226 235 532 398
4 544 321 312 122
4 527 394 397 177
4 230 54 100 523
4 294 247 250 543
4 230 54 392 100
4 541 247 250 294
4 297 0 542 241
4 542 3 297 248
4 267 55 23 525
4 85 524 232 295
4 20 525 296 223
4 127 337 144 147
4 338 137 153 141
4 295 232 14 526
4 80 61 12 292
4 11 65 79 292
4 525 55 23 230
4 21 52 99 293
4 54 22 100 293
4 290 57 15 85
4 16 53 290 86
4 139 352 32 155
4 60 66 1 291
4 2 67 62 291
4 248 297 542 241
4 146 149 28 354
4 134 150 32 352
4 321 312 121 255
4 248 540 297 241
4 353 127 345 147
4 136 354 28 152
4 402 175 182 528
4 109 120 545 316
4 321 544 312 255
4 400 39 234 530
4 141 153 355 349
4 236 531 38 399
4 295 229 232 526
4 521 526 51 270
4 296 100 523 230
4 524 229 232 295
4 9 8 7 359
4 236 227 531 399
4 296 525 23 230
4 40 531 227 399
4 5 4 6 342
4 314 24 245 548
4 252 26 547 315
4 310 65 11 292
4 340 145 148 128
4 396 22 54 293
4 15 57 290 395
4 310 12 61 292
4 397 394 237 176
4 396 52 21 293
4 53 16 290 395
4 291 62 2 311
4 1 60 291 311
4 154 357 140 138
4 86 17 229 295
4 294 247 13 80
4 394 527 397 237
4 399 40 531 183
4 400 172 39 530
4 27 121 314 548
4 315 547 25 106
4 314 110 24 548
4 315 26 547 117
4 543 64 266 539
4 399 531 38 176
4 400 41 179 530
4 65 61 541 292
4 523 52 54 293
4 290 53 57 524
4 401 178 171 529
4 122 111 312 544
4 177 527 184 397
4 116 105 546 317
4 62 60 291 540
4 147 144 127 341
4 358 153 137 141
4 108 253 316 244
4 253 108 313 244
4 542 538 58 278
4 176 399 531 183
4 121 110 314 548
4 400 179 172 530
4 106 315 547 117
4 223 525 296 230
4 402 181 174 226
4 253 108 316 119
4 119 108 313 253
4 226 181 174 398
4 296 523 223 230
4 10 250 294 79
4 234 225 400 530
4 27 314 254 548
4 243 547 25 315
4 527 237 228 397
4 41 400 225 530
4 310 61 65 292
4 522 55 267 525
4 396 54 52 293
4 290 57 53 395
4 291 60 62 311
4 3 67 297 248
4 297 66 0 241
4 39 400 234 173
4 38 175 236 399
4 245 254 314 548
4 547 243 252 315
4 226 174 402 235
4 235 226 174 398
4 20 296 99 223
4 175 227 528 236
4 85 232 14 295
4 531 228 176 183
4 251 106 547 117
4 227 182 40 399
4 252 118 26 315
4 24 314 245 109
4 228 397 176 183
4 106 251 317 117
4 246 548 110 255
4 106 251 547 242
4 110 24 548 246
4 228 531 40 183
4 26 251 547 117
4 227 175 528 182
4 545 245 120 109
4 11 12 310 292
4 21 22 396 293
4 290 16 15 395
4 291 2 1 311
4 175 227 236 399
4 548 121 110 255
4 172 179 224 530
4 224 529 401 233
4 312 110 121 255
4 172 179 401 224
4 175 182 227 399
4 120 245 314 109
4 107 118 252 315
4 531 228 237 176
4 100 296 23 230
4 548 27 121 255
4 547 242 25 106
4 224 179 41 530
4 173 532 225 234
4 397 237 228 176
4 254 314 27 120
4 25 107 243 315
4 225 400 41 180
4 545 245 254 120
4 243 107 549 252
4 225 173 234 400
4 237 38 531 176
4 225 173 400 180
4 245 120 314 254
4 252 243 107 315
4 172 224 233 530
4 233 39 172 530
4 224 401 172 233
4 1 66 60 307
4 403 16 53 184
4 306 12 61 111
4 3 123 319 248
4 229 228 519 185
4 178 21 52 404
4 171 54 22 392
4 167 14 391 232
4 53 16 403 86
4 237 236 531 38
4 17 185 403 229
4 527 394 57 237
4 57 15 391 177
4 169 170 174 235
4 227 226 520 186
4 186 182 40 227
4 235 236 534 170
4 175 170 38 236
4 120 125 27 254
4 113 114 108 244
4 306 61 12 80
4 126 10 318 250
4 318 65 11 122
4 544 321 65 255
4 13 112 306 247
4 255 250 550 126
4 537 245 244 113
4 243 537 114 535
4 254 552 125 550
4 242 241 535 115
4 26 124 118 252
4 116 62 2 319
4 114 25 107 243
4 248 251 551 123
4 1 60 105 307
4 115 0 307 241
4 62 67 2 319
4 234 235 533 169
4 244 243 537 114
4 113 109 24 245
4 243 242 25 547
4 252 253 552 124
4 39 169 173 234
4 225 520 187 518
4 186 187 181 226
4 187 41 180 225
4 226 225 520 187
4 99 52 21 404
4 224 223 518 188
4 188 20 404 223
4 100 22 54 392
4 23 168 392 230
4 533 230 168 55
4 246 245 24 548
4 228 227 40 531
4 237 232 534 167
4 234 233 530 39
4 253 254 552 125
4 230 233 533 168
4 252 251 547 26
4 125 119 124 253
4 247 246 536 112
4 255 254 548 27
4 225 224 41 530
4 553 56 534 238
4 553 534 56 385
4 178 179 224 401
4 224 179 178 405
4 224 529 178 401
4 242 106 105 308
4 110 246 111 309
4 184 183 228 406
4 228 183 184 397
4 184 527 228 397
4 558 263 351 343
4 558 351 263 298
4 421 565 408 556
4 421 408 565 554
4 506 408 565 556
4 506 565 408 554
4 553 302 560 277
4 553 560 302 447
4 280 222 563 283
4 257 222 563 221
4 257 563 222 283
4 471 334 132 475
4 471 132 334 329
4 324 127 562 558
4 351 127 562 348
4 351 562 127 558
4 487 560 377 484
4 377 560 487 555
4 558 305 263 371
4 558 263 305 298
4 234 173 235 169
4 174 235 173 169
4 174 173 235 398
4 107 243 244 114
4 244 108 107 114
4 107 108 244 313
4 227 182 226 186
4 181 226 182 186
4 181 182 226 402
4 347 143 562 344
4 562 143 347 128
4 128 348 127 345
4 557 551 322 330
4 557 322 551 552
4 455 58 115 535
4 455 115 58 459
4 565 289 288 554
4 565 288 289 268
4 260 374 256 64
4 260 256 374 368
4 550 256 374 64
4 550 374 256 368
4 233 533 39 234
4 233 39 533 168
4 273 127 558 351
4 273 558 127 333
4 385 56 167 534
4 385 167 56 389
4 325 276 68 272
4 68 276 325 336
4 268 436 97 289
4 268 97 436 433
4 275 379 81 390
4 275 81 379 300
4 378 274 84 389
4 84 274 378 299
4 271 326 70 286
4 70 326 271 328
4 187 186 559 520
4 187 559 186 497
4 124 125 557 463
4 124 557 125 552
4 114 113 555 537
4 114 555 113 460
4 263 371 9 141
4 263 9 371 305
4 258 458 238 454
4 258 238 458 55
4 533 238 458 454
4 533 458 238 55
4 403 228 185 406
4 403 185 228 229
4 306 246 112 309
4 306 112 246 247
4 319 251 123 320
4 319 123 251 248
4 553 534 169 533
4 553 169 534 170
4 235 169 534 533
4 235 534 169 170
4 404 224 188 223
4 404 188 224 405
4 307 242 115 241
4 307 115 242 308
4 196 197 564 513
4 564 197 196 424
4 564 98 289 304
4 564 289 98 436
4 278 539 249 538
4 278 249 539 266
4 270 522 231 267
4 231 522 270 521
4 255 126 318 250
4 318 126 255 321
4 318 65 255 250
4 255 65 318 321
4 392 233 168 393
4 392 168 233 230
4 280 522 270 267
4 270 522 280 222
4 155 346 139 352
4 155 139 346 140
4 32 139 346 352
4 32 346 139 140
4 237 167 391 232
4 391 167 237 394
4 391 57 237 232
4 237 57 391 394
4 128 354 143 347
4 143 354 128 28
4 226 528 182 227
4 226 182 528 402
4 252 313 107 549
4 252 107 313 118
4 60 105 242 546
4 549 107 244 313
4 549 244 107 243
4 252 253 118 313
4 252 118 253 124
4 119 118 253 313
4 119 253 118 124
4 225 226 180 187
4 181 180 226 187
4 181 226 180 398
4 52 178 224 529
4 53 228 184 527
4 532 173 235 234
4 532 235 173 398
4 54 233 171 529
4 401 171 233 529
4 61 246 111 544
4 62 251 116 546
4 317 116 251 546
4 173 532 180 225
4 173 180 532 398
4 226 180 532 225
4 226 532 180 398
4 116 117 251 320
4 251 117 116 317
4 172 171 233 401
4 233 171 172 393
4 563 565 262 556
4 262 565 563 282
4 403 228 184 53
4 403 184 228 406
4 246 306 111 309
4 246 111 306 61
4 319 251 116 62
4 319 116 251 320
4 307 242 105 308
4 307 105 242 60
4 404 224 178 405
4 404 178 224 52
4 392 233 171 54
4 392 171 233 393
4 251 106 546 242
4 251 546 106 317
4 105 546 106 242
4 105 106 546 317
4 110 255 544 246
4 544 255 110 312
4 544 111 110 246
4 110 111 544 312
4 222 563 50 280
4 222 50 563 221
4 127 562 128 324
4 127 128 562 348

CELL_TYPES 3053
1
1
1
1
1
1
1
1
1
1
1
1
1
1
1
1
1
1
1
1
1
1
1
1
1
1
1
1
1
1
1
1
1
1
1
1
1
1
1
1
1
1
1
1
1
1
1
1
1
1
1
1
1
1
1
1
1
1
1
1
1
1
1
1
1
1
3
3
3
3
3
3
3
3
3
3
3
3
3
3
3
3
3
3
3
3
3
3
3
3
3
3
3
3
3
3
3
3
3
3
3
3
3
3
3
3
3
3
3
3
3
3
3
3
3
3
3
3
3
3
3
3
3
3
3
3
3
3
3
3
3
3
3
3
3
3
3
3
3
3
3
3
3
3
3
3
3
3
3
3
3
3
3
3
3
3
3
3
3
3
3
3
3
3
3
3
3
3
3
3
3
3
3
3
3
3
3
3
3
3
3
3
3
3
3
3
3
3
3
3
3
3
3
3
3
3
3
3
3
3
3
3
3
3
3
3
3
3
3
3
3
3
3
3
3
3
3
3
3
3
3
3
3
3
3
3
3
3
3
3
3
3
3
3
3
3
3
3
3
3
3
3
3
3
3
3
3
3
3
3
3
3
3
3
3
3
3
3
3
3
3
3
3
3
3
3
3
3
3
3
3
3
3
3
3
3
3
3
3
3
3
3
3
3
3
3
3
3
3
3
3
3
3
3
3
3
3
3
3
3
3
3
3
3
3
3
3
3
3
3
3
3
3
3
3
3
3
3
3
3
3
3
3
3
3
3
3
3
3
3
3
3
3
3
3
3
3
3
3
3
3
3
3
3
3
3
3
3
3
3
3
3
3
3
3
3
5
5
5
5
5
5
5
5
5
5
5
5
5
5
5
5
5
5
5
5
5
5
5
5
5
5
5
5
5
5
5
5
5
5
5
5
5
5
5
5
5
5
5
5
5
5
5
5
5
5
5
5
5
5
5
5
5
5
5
5
5
5
5
5
5
5
5
5
5
5
5
5
5
5
5
5
5
5
5
5
5
5
5
5
5
5
5
5
5
5
5
5
5
5
5
5
5
5
5
5
5
5
5
5
5
5
5
5
5
5
5
5
5
5
5
5
5
5
5
5
5
5
5
5
5
5
5
5
5
5
5
5
5
5
5
5
5
5
5
5
5
5
5
5
5
5
5
5
5
5
5
5
5
5
5
5
5
5
5
5
5
5
5
5
5
5
5
5
5
5
5
5
5
5
5
5
5
5
5
5
5
5
5
5
5
5
5
5
5
5
5
5
5
5
5
5
5
5
5
5
5
5
5
5
5
5
5
5
5
5
5
5
5
5
5
5
5
5
5
5
5
5
5
5
5
5
5
5
5
5
5
5
5
5
5
5
5
5
5
5
5
5
5
5
5
5
5
5
5
5
5
5
5
5
5
5
5
5
5
5
5
5
5
5
5
5
5
5
5
5
5
5
5
5
5
5
5
5
5
5
5
5
5
5
5
5
5
5
5
5
5
5
5
5
5
5
5
5
5
5
5
5
5
5
5
5
5
5
5
5
5
5
5
5
5
5
5
5
5
5
5
5
5
5
5
5
5
5
5
5
5
5
5
5
5
5
5
5
5
5
5
5
5
5
5
5
5
5
5
5
5
5
5
5
5
5
5
5
5
5
5
5
5
5
5
5
5
5
5
5
5
5
5
5
5
5
5
5
5
5
5
5
5
5
5
5
5
5
5
5
5
5
5
5
5
5
5
5
5
5
5
5
5
5
5
5
5
5
5
5
5
5
5
5
5
5
5
5
5
5
5
5
5
5
5
5
5
5
5
5
5
5
5
5
5
5
5
5
5
5
5
5
5
5
5
5
5
5
5
5
5
5
5
5
5
5
5
5
5
5
5
5
5
5
5
5
5
5
5
5
5
5
5
5
5
5
5
5
5
5
5
5
5
5
5
5
5
5
5
5
5
5
5
5
5
5
5
5
5
5
5
5
5
5
5
5
5
5
5
5
5
5
5
5
5
5
5
5
5
5
5
5
5
5
5
5
5
5
5
5
5
5
5
5
5
5
5
5
5
5
5
5
5
5
5
5
5
5
5
5
5
5
5
5
5
5
5
5
5
5
5
5
5
5
5
5
5
5
5
5
5
5
5
5
5
5
5
5
5
5
5
5
5
5
5
5
5
5
5
5
5
5
5
5
5
5
5
5
5
5
5
5
5
5
5
5
5
5
5
5
5
5
5
5
5
5
5
5
5
5
5
5
5
5
5
5
5
5
5
5
5
5
5
5
5
5
5
5
5
5
5
5
5
5
5
5
5
5
5
5
5
5
5
5
5
5
5
5
5
5
5
5
5
5
5
5
5
5
5
5
5
5
5
5
5
5
5
5
5
5
5
5
5
5
5
5
5
5
5
5
5
5
5
5
5
5
5
5
5
5
5
5
5
5
5
5
5
5
5
5
5
5
5
5
5
5
5
5
5
5
5
5
5
5
5
5
5
5
5
5
5
5
5
5
5
5
5
5
5
5
5
5
5
5
5
5
5
5
5
5
5
5
5
5
5
5
5
5
5
5
5
5
5
5
5
5
5
5
5
5
5
5
5
5
5
5
5
5
5
5
5
5
5
5
5
5
5
5
5
5
5
5
5
5
5
5
5
5
5
5
5
5
5
5
5
5
5
5
5
5
5
5
5
5
5
5
5
5
5
5
5
5
5
5
5
5
5
5
5
5
5
5
5
5
5
5
5
5
5
5
5
5
5
5
5
5
5
5
5
5
5
5
5
5
5
5
5
5
5
5
5
5
5
5
5
5
5
5
5
5
5
5
5
5
5
5
5
5
5
5
5
5
5
5
5
5
5
5
5
5
5
5
5
5
5
5
5
5
5
5
5
5
5
5
5
5
5
5
5
5
5
5
5
5
5
5
5
5
5
5
5
5
5
5
5
5
5
5
5
5
5
5
5
5
5
5
5
5
5
5
5
5
5
5
5
5
5
5
5
5
5
5
5
5
5
5
5
5
5
5
5
5
5
5
5
5
5
5
5
5
5
5
5
5
5
5
5
5
5
5
5
5
5
5
5
5
5
5
5
5
5
5
5
5
5
5
5
5
5
5
5
5
5
5
5
5
5
5
5
5
5
5
5
5
5
5
5
5
5
5
5
5
5
5
5
5
5
5
5
5
5
5
5
5
5
5
5
5
5
5
5
5
5
5
5
5
5
5
5
5
5
5
5
5
5
5
5
5
5
5
5
5
5
5
5
5
5
5
5
5
5
5
5
5
5
5
5
5
5
5
5
5
5
5
5
5
5
5
5
5
5
5
5
5
10
10
10
10
10
10
10
10
10
10
10
10
10
10
10
10
10
10
10
10
10
10
10
10
10
10
10
10
10
10
10
10
10
10
10
10
10
10
10
10
10
10
10
10
10
10
10
10
10
10
10
10
10
10
10
10
10
10
10
10
10
10
10
10
10
10
10
10
10
10
10
10
10
10
10
10
10
10
10
10
10
10
10
10
10
10
10
10
10
10
10
10
10
10
10
10
10
10
10
10
10
10
10
10
10
10
10
10
10
10
10
10
10
10
10
10
10
10
10
10
10
10
10
10
10
10
10
10
10
10
10
10
10
10
10
10
10
10
10
10
10
10
10
10
10
10
10
10
10
10
10
10
10
10
10
10
10
10
10
10
10
10
10
10
10
10
10
10
10
10
10
10
10
10
10
10
10
10
10
10
10
10
10
10
10
10
10
10
10
10
10
10
10
10
10
10
10
10
10
10
10
10
10
10
10
10
10
10
10
10
10
10
10
10
10
10
10
10
10
10
10
10
10
10
10
10
10
10
10
10
10
10
10
10
10
10
10
10
10
10
10
10
10
10
10
10
10
10
10
10
10
10
10
10
10
10
10
10
10
10
10
10
10
10
10
10
10
10
10
10
10
10
10
10
10
10
10
10
10
10
10
10
10
10
10
10
10
10
10
10
10
10
10
10
10
10
10
10
10
10
10
10
10
10
10
10
10
10
10
10
10
10
10
10
10
10
10
10
10
10
10
10
10
10
10
10
10
10
10
10
10
10
10
10
10
10
10
10
10
10
10
10
10
10
10
10
10
10
10
10
10
10
10
10
10
10
10
10
10
10
10
10
10
10
10
10
10
10
10
10
10
10
10
10
10
10
10
10
10
10
10
10
10
10
10
10
10
10
10
10
10
10
10
10
10
10
10
10
10
10
10
10
10
10
10
10
10
10
10
10
10
10
10
10
10
10
10
10
10
10
10
10
10
10
10
10
10
10
10
10
10
10
10
10
10
10
10
10
10
10
10
10
10
10
10
10
10
10
10
10
10
10
10
10
10
10
10
10
10
10
10
10
10
10
10
10
10
10
10
10
10
10
10
10
10
10
10
10
10
10
10
10
10
10
10
10
10
10
10
10
10
10
10
10
10
10
10
10
10
10
10
10
10
10
10
10
10
10
10
10
10
10
10
10
10
10
10
10
10
10
10
10
10
10
10
10
10
10
10
10
10
10
10
10
10
10
10
10
10
10
10
10
10
10
10
10
10
10
10
10
10
10
10
10
10
10
10
10
10
10
10
10
10
10
10
10
10
10
10
10
10
10
10
10
10
10
10
10
10
10
10
10
10
10
10
10
10
10
10
10
10
10
10
10
10
10
10
10
10
10
10
10
10
10
10
10
10
10
10
10
10
10
10
10
10
10
10
10
10
10
10
10
10
10
10
10
10
10
10
10
10
10
10
10
10
10
10
10
10
10
10
10
10
10
10
10
10
10
10
10
10
10
10
10
10
10
10
10
10
10
10
10
10
10
10
10
10
10
10
10
10
10
10
10
10
10
10
10
10
10
10
10
10
10
10
10
10
10
10
10
10
10
10
10
10
10
10
10
10
10
10
10
10
10
10
10
10
10
10
10
10
10
10
10
10
10
10
10
10
10
10
10
10
10
10
10
10
10
10
10
10
10
10
10
10
10
10
10
10
10
10
10
10
10
10
10
10
10
10
10
10
10
10
10
10
10
10
10
10
10
10
10
10
10
10
10
10
10
10
10
10
10
10
10
10
10
10
10
10
10
10
10
10
10
10
10
10
10
10
10
10
10
10
10
10
10
10
10
10
10
10
10
10
10
10
10
10
10
10
10
10
10
10
10
10
10
10
10
10
10
10
10
10
10
10
10
10
10
10
10
10
10
10
10
10
10
10
10
10
10
10
10
10
10
10
10
10
10
10
10
10
10
10
10
10
10
10
10
10
10
10
10
10
10
10
10
10
10
10
10
10
10
10
10
10
10
10
10
10
10
10
10
10
10
10
10
10
10
10
10
10
10
10
10
10
10
10
10
10
10
10
10
10
10
10
10
10
10
10
10
10
10
10
10
10
10
10
10
10
10
10
10
10
10
10
10
10
10
10
10
10
10
10
10
10
10
10
10
10
10
10
10
10
10
10
10
10
10
10
10
10
10
10
10
10
10
10
10
10
10
10
10
10
10
10
10
10
10
10
10
10
10
10
10
10
10
10
10
10
10
10
10
10
10
10
10
10
10
10
10
10
10
10
10
10
10
10
10
10
10
10
10
10
10
10
10
10
10
10
10
10
10
10
10
10
10
10
10
10
10
10
10
10
10
10
10
10
10
10
10
10
10
10
10
10
10
10
10
10
10
10
10
10
10
10
10
10
10
10
10
10
10
10
10
10
10
10
10
10
10
10
10
10
10
10
10
10
10
10
10
10
10
10
10
10
10
10
10
10
10
10
10
10
10
10
10
10
10
10
10
10
10
10
10
10
10
10
10
10
10
10
10
10
10
10
10
10
10
10
10
10
10
10
10
10
10
10
10
10
10
10
10
10
10
10
10
10
10
10
10
10
10
10
10
10
10
10
10
10
10
10
10
10
10
10
10
10
10
10
10
10
10
10
10
10
10
10
10
10
10
10
10
10
10
10
10
10
10
10
10
10
10
10
10
10
10
10
10
10
10
10
10
10
10
10
10
10
10
10
10
10
10
10
10
10
10
10
10
10
10
10
10
10
10
10
10
10
10
10
10
10
10
10
10
10
10
10
10
10
10
10
10
10
10
10
10
10
10
10
10
10
10
10
10
10
10
10
10
10
10
10
10
10
10
10
10
10
10
10
10
10
10
10
10
10
10
10
10
10
10
10
10
10
10
10
10
10
10
10
10
10
10
10
10
10
10
10
10
10
10
10
10
10
10
10
10
10
10
10
10
10
10
10
10
10
10
10
10
10
10
10
10
10
10
10
10
10
10
10
10
10
10
10
10
10
10
10
10
10
10
10
10
10
10
10
10
10
10
10
10
10
10
10
10
10
10
10
10
10
10
10
10
10
10
10
10
10
10
10
10
10
10
10
10
10
10
10
10
10
10
10
10
10
10
10
10
10
10
10
10
10
10
10
10
10
10
10
10
10
10
10
10
10
10
10
10
10
10
10
10
10
10
10
10
10
10
10
10
10
10
10
10
10
10
10
10
10
10
10
10
10
10
10
10
10
10
10
10
10
10
10
10
10
10
10
10
10
10
10
10
10
10
10
10
10
10
10
10
10
10
10
10
10
10
10
10
10
10
10
10
10
10
10
10
10
10
10
10
10
10
10
10
10
10
10
10
10
10
10
10
10
10
10
10
10
10
10
10
10
10
10
10
10
10
10
10
10
10
10
10
10
10
10
10
10
10
10
10
10
10
10
10
10
10
10
10
10
10
10
10
10
10
10
10
10
10
10
10
10
10
10
10
10
10
10
10
10
10
10
10
10
10
10
10
10
10
10
10
10
10
10
10
10
10
10
10
10
10
10
10
10
10
10
10
10
10
10
10
10
10
10
10
10
10
10
10
10
10
10
10
10
10
10
10
10
10
10
10
10
10
10
10
10
10
10
10
10
10
10
10
10
10
10
10
10
10
10
10
10
10
10
10
10
