# vtk DataFile Version 2.0
, Created by Gmsh 4.11.1 
ASCII
DATASET UNSTRUCTURED_GRID
POINTS 540 double
8.75 0 -43.96394626182879
14.12349064332649 0 -41.40306137483758
14.12349064332649 0 -38.59693862516243
8.75 0 -36.03605373817122
8.75 0 -3
11.75 0 -3
11.75 0 0
-11.75 0 0
-11.75 0 -3
-8.75 0 -3
-8.75 1.071565949253934e-15 -36.03605373817122
-14.12349064332649 1.729628760913738e-15 -38.59693862516243
-14.12349064332649 1.729628760913738e-15 -41.40306137483758
-8.75 1.071565949253934e-15 -43.96394626182879
-8.75 1.071565949253934e-15 -76.03605373817122
-14.12349064332649 1.729628760913738e-15 -78.59693862516242
-14.12349064332649 1.729628760913738e-15 -81.40306137483758
-8.75 1.071565949253934e-15 -83.96394626182878
-8.75 0 -120
8.75 0 -120
8.75 0 -83.96394626182878
14.12349064332649 0 -81.40306137483758
14.12349064332649 0 -78.59693862516242
8.75 0 -76.03605373817122
-8.75 9.05165174624937 -42.13413840660239
8.75 9.05165174624937 -42.13413840660238
8.75 9.051651746249355 -37.86586159339763
-8.75 9.051651746249355 -37.86586159339763
8.75 20 -3
8.75 20 -27.17521370327585
11.75 23 -3
-11.75 23 -3
-8.75 20 -3
11.75 23 0
-11.75 23 0
-8.75 20 -27.17521370327585
-8.75 20 -52.82478629672414
-8.75 20 -67.17521370327586
-8.75 9.051651746249371 -77.86586159339761
8.75 9.051651746249371 -77.86586159339761
-8.75 9.051651746249373 -82.13413840660239
8.75 9.051651746249373 -82.13413840660239
-8.75 20 -92.82478629672414
-8.75 20 -107.1752137032759
-8.75 6.866069474965595 -120
8.75 6.866069474965595 -120
8.75 20 -92.82478629672414
8.75 20 -107.1752137032759
8.75 20 -52.82478629672414
8.75 20 -67.17521370327586
4.69685256270723 3.287868292131325 -83.9639462618288
-4.696852562707229 3.287868292131326 -83.9639462618288
10.60897171066055 3.287868292131325 -81.40306137483756
-10.60897171066055 3.287868292131327 -81.40306137483756
10.60897171066055 3.287868292131325 -78.59693862516244
4.69685256270723 3.287868292131325 -76.0360537381712
-4.696852562707229 3.287868292131326 -76.0360537381712
-10.60897171066055 3.287868292131327 -78.59693862516244
4.69685256270723 3.287868292131325 -43.96394626182879
-4.696852562707229 3.287868292131326 -43.96394626182879
10.60897171066055 3.287868292131325 -41.40306137483757
-10.60897171066055 3.287868292131327 -41.40306137483757
10.60897171066055 3.287868292131325 -38.59693862516243
4.69685256270723 3.287868292131325 -36.03605373817121
-4.696852562707229 3.287868292131326 -36.03605373817121
-10.60897171066055 3.287868292131327 -38.59693862516243
8.75 0 -29.42884299053697
8.75 0 -22.82163224290272
8.75 0 -16.21442149526845
8.75 0 -9.607210747634195
5.875000000000016 0 0
3.730349362740526e-14 0 0
-5.874999999999972 0 0
-8.75 0 -9.607210747634245
-8.75 0 -16.2144214952685
-8.75 0 -22.82163224290275
-8.75 0 -29.42884299053701
-8.75 0 -50.37836775709727
-8.75 0 -56.79278925236575
-8.75 0 -63.20721074763423
-8.75 0 -69.62163224290271
-8.75 0 -89.96995521819065
-8.75 0 -95.9759641745525
-8.75 0 -101.9819731309144
-8.75 0 -107.9879820872762
-8.75 0 -113.9939910436381
2.916666666666666 0 -120
-2.916666666666668 0 -120
8.75 0 -89.96995521819065
8.75 0 -95.9759641745525
8.75 0 -101.9819731309144
8.75 0 -107.9879820872762
8.75 0 -113.9939910436381
8.75 0 -50.37836775709727
8.75 0 -56.79278925236575
8.75 0 -63.20721074763423
8.75 0 -69.62163224290271
12.72482537574828 6.12795292971834 -41.40306137483758
8.805852382761316 11.04218962729529 -41.40306137483758
3.14277232867631 13.76938524561781 -41.40306137483758
-3.142772328676219 13.76938524561783 -41.40306137483758
-8.805852382761266 11.04218962729533 -41.40306137483758
-12.72482537574826 6.127952929718374 -41.40306137483758
-8.750000000000002 4.597894774228788 -43.42327397179267
-2.972170296000678 10.07116854901989 -43.12965799584714
2.972170296000686 10.07116854901989 -43.12965799584714
8.749999999999998 4.59789477422879 -43.42327397179267
12.72482537574828 6.12795292971834 -38.59693862516243
8.805852382761316 11.04218962729529 -38.59693862516243
3.14277232867631 13.76938524561781 -38.59693862516243
-3.142772328676219 13.76938524561783 -38.59693862516243
-8.805852382761266 11.04218962729533 -38.59693862516243
-12.72482537574826 6.127952929718374 -38.59693862516243
8.749999999999998 4.597894774228781 -36.57672602820733
2.972170296000684 10.07116854901988 -36.87034200415286
-2.972170296000685 10.07116854901988 -36.87034200415287
-8.750000000000002 4.59789477422878 -36.57672602820733
8.75 6.666666666666651 -3
8.75 13.33333333333329 -3
8.75 20 -21.1314102774569
8.75 20 -15.08760685163794
8.75 20 -9.043803425818972
8.75 12.70110116416624 -34.30231229669036
8.75 16.35055058208313 -30.7387629999831
-5.875000000000016 23 -3
-3.730349362740526e-14 23 -3
5.874999999999972 23 -3
-11.75 5.749999999999988 -3
-11.75 11.49999999999999 -3
-11.75 17.24999999999999 -3
-8.75 13.33333333333335 -3
-8.75 6.666666666666705 -3
-2.916666666666666 20 -3
2.916666666666668 20 -3
11.75 5.749999999999988 -3
11.75 11.49999999999999 -3
11.75 17.24999999999999 -3
11.75 5.749999999999988 0
11.75 11.49999999999999 0
11.75 17.24999999999999 0
-5.875000000000016 23 0
-3.730349362740526e-14 23 0
5.874999999999972 23 0
-11.75 5.749999999999988 0
-11.75 11.49999999999999 0
-11.75 17.24999999999999 0
-8.75 20 -9.04380342581895
-8.75 20 -15.08760685163792
-8.75 20 -21.13141027745688
-8.75 12.70110116416624 -34.30231229669036
-8.75 16.35055058208313 -30.7387629999831
-8.75 16.35055058208312 -49.26123700001688
-8.75 12.70110116416624 -45.69768770330963
-8.75 20 -62.39173790109194
-8.75 20 -57.60826209890804
-8.75 12.70110116416626 -74.30231229669035
-8.75 16.35055058208313 -70.73876299998309
-8.750000000000002 4.597894774228784 -76.57672602820733
8.749999999999998 4.597894774228783 -76.57672602820733
2.972170296000676 10.07116854901989 -76.87034200415286
-2.972170296000681 10.07116854901989 -76.87034200415286
12.72482537574828 6.12795292971834 -78.59693862516242
8.805852382761316 11.04218962729529 -78.59693862516242
3.14277232867631 13.76938524561781 -78.59693862516242
-3.142772328676219 13.76938524561783 -78.59693862516242
-8.805852382761266 11.04218962729533 -78.59693862516242
-12.72482537574826 6.127952929718374 -78.59693862516242
12.72482537574828 6.12795292971834 -81.40306137483756
8.805852382761316 11.04218962729529 -81.40306137483756
3.14277232867631 13.76938524561781 -81.40306137483756
-3.142772328676219 13.76938524561783 -81.40306137483756
-8.805852382761266 11.04218962729533 -81.40306137483756
-12.72482537574826 6.127952929718374 -81.40306137483756
-8.750000000000002 4.597894774228784 -83.42327397179265
-2.972170296000676 10.07116854901988 -83.12965799584714
2.972170296000678 10.07116854901988 -83.12965799584714
8.749999999999998 4.597894774228789 -83.42327397179265
-8.75 16.35055058208312 -89.26123700001688
-8.75 12.70110116416624 -85.69768770330963
-8.75 20 -102.3917379010919
-8.75 20 -97.60826209890804
-8.75 11.24404631664373 -115.7250712344253
-8.75 15.62202315832186 -111.4501424688506
2.916666666666666 6.866069474965595 -120
-2.916666666666668 6.866069474965595 -120
8.75 16.35055058208312 -89.26123700001688
8.75 12.70110116416624 -85.69768770330963
8.75 20 -102.3917379010919
8.75 20 -97.60826209890804
8.75 11.24404631664373 -115.7250712344253
8.75 15.62202315832186 -111.4501424688506
8.75 16.35055058208312 -49.26123700001688
8.75 12.70110116416624 -45.69768770330963
8.75 20 -62.39173790109194
8.75 20 -57.60826209890804
8.75 12.70110116416626 -74.30231229669035
8.75 16.35055058208313 -70.73876299998309
2.916666666666666 20 -52.82478629672414
-2.916666666666668 20 -52.82478629672414
2.916666666666666 20 -27.17521370327585
-2.916666666666668 20 -27.17521370327585
2.916666666666666 20 -67.17521370327586
-2.916666666666668 20 -67.17521370327586
2.916666666666666 20 -92.82478629672414
-2.916666666666668 20 -92.82478629672414
2.916666666666666 20 -107.1752137032759
-2.916666666666668 20 -107.1752137032759
-9.219817753644943e-16 5.733280204404109 -83.96394626182878
5.329070518200751e-15 3.287868292131325 -83.96394626182878
7.668569527545472 3.287868292131325 -82.7198872219719
7.66907608299705 8.034029542962919 -81.40306137483756
2.791461665528057 10.75026048214115 -81.40306137483756
-2.791461665528037 10.75026048214116 -81.40306137483756
-7.66907608299704 8.03402954296293 -81.40306137483756
-7.668569527545472 3.287868292131325 -82.7198872219719
7.668569527545469 3.287868292131325 -77.2801127780281
5.329070518200751e-15 3.287868292131325 -76.03605373817122
-7.668569527545472 3.287868292131325 -77.2801127780281
7.66907608299705 8.034029542962919 -78.59693862516242
2.791461665528057 10.75026048214115 -78.59693862516242
-2.791461665528037 10.75026048214116 -78.59693862516242
-7.66907608299704 8.03402954296293 -78.59693862516242
-9.219817753644943e-16 5.733280204404109 -76.0360537381712
-9.219817753644943e-16 5.733280204404109 -43.96394626182879
5.329070518200751e-15 3.287868292131325 -43.96394626182879
7.668569527545472 3.287868292131325 -42.7198872219719
7.66907608299705 8.034029542962919 -41.40306137483758
2.791461665528057 10.75026048214115 -41.40306137483758
-2.791461665528037 10.75026048214116 -41.40306137483758
-7.66907608299704 8.03402954296293 -41.40306137483758
-7.668569527545472 3.287868292131325 -42.7198872219719
7.668569527545469 3.287868292131325 -37.2801127780281
5.329070518200751e-15 3.287868292131325 -36.03605373817121
-7.668569527545472 3.287868292131325 -37.2801127780281
7.66907608299705 8.034029542962919 -38.59693862516243
2.791461665528057 10.75026048214115 -38.59693862516243
-2.791461665528037 10.75026048214116 -38.59693862516243
-7.66907608299704 8.03402954296293 -38.59693862516243
-9.219817753644943e-16 5.733280204404109 -36.03605373817122
0 0 -115.3906745431674
3.523974994587716 0 -86.57021963830098
-3.548643668433772 0 -98.97896865273344
-4.140772319049929 0 -72.82900872228271
3.421105510048944 0 -46.77588927799384
-3.213206582400526 0 -32.43877322559086
-3.194948034516535 0 -59.99999999999999
-2.835632997056325 0 -4.141958192312003
-3.02798764439116 0 -19.51802686908562
4.181360081384279 0 -105.0407942602446
3.194948034516535 0 -66.41442149526847
3.027987644391186 0 -12.91081612145133
3.027987644391165 0 -26.12523761671984
-3.118934601243047 0 -39.17777538118494
3.66329554717439 0 -5.721595543678198
-3.190716651252802 0 -79.24409314453419
-11.43674532166325 0 -80
10.69006252722805 0 -80
10.34769855183486 0 -40
-11.43674532166325 0 -40
4.242935930695079 0 -80.19443781029949
4.463911359341072 0 -40.28080814644468
-3.571803656601403 0 -86.96695074000971
-3.394955839642782 0 -47.17115700946303
3.259019374302441 0 -33.04016740991341
2.38205678704508 0 -72.92600296145211
3.191212946540266 0 -53.58557850473152
-3.20809297851338 0 -66.41442149526847
3.450218554001376 0 -59.99999999999999
-3.462501224531212 0 -53.58557850473151
2.432610706299887 0 -92.93247693089108
-4.437567323747058 0 -92.96486314327548
3.548643668433773 0 -98.97896865273344
-1.902662845516528 0 -104.9929514164023
-4.142641316480106 0 -26.06650258896722
-4.017134651427775 0 -12.21927280453628
4.105597528878238 0 -19.51802686908559
-3.8195474604613 0 -111.1264635631289
3.44892004993597 0 -110.794774852483
-0.7487199235536233 0 -8.505379376694606
-4.847242825425593 0 -116.1022258299869
4.698033826378744 0 -115.9433555891375
0.3427816071260468 0 -43.35140745377163
0.1212426132205353 0 -83.24918517165092
-5.020297514407544 0 -7.494764224235425
5.416543731209368 11.24756895332597 -42.18447262993647
-5.416543731203494 11.24756895331393 -42.18447262994286
-11.16905802559141 2.549264609426183 -42.67418870924563
11.08553713572422 2.692729254459261 -42.69725623922157
6.127952929718361 12.72482537574827 -40.03685014956395
13.76938524561782 3.142772328676276 -40.03685014956395
11.0421896272953 8.805852382761307 -40.03685014956395
-13.76938524561781 3.142772328676299 -39.96314985043605
0.03409685249170298 14.12344948505078 -40
-11.04218962729527 8.805852382761346 -39.96314985043606
-6.127952929718287 12.7248253757483 -39.96314985043605
5.416543731214519 11.24756895333667 -37.81552737006919
-5.416543731206207 11.24756895331957 -37.81552737006013
-11.08553713564653 2.692729254468359 -37.30274376074349
8.749999999999998 14.73063806956036 -18.18965271822742
8.749999999999998 11.03833279583686 -28.36124053795877
8.749999999999998 4.777041664467587 -12.89485346160733
8.749999999999998 8.005067884158382 -33.14356486416288
8.749999999999998 14.76591269776136 -24.15331199036638
8.749999999999998 9.636547998888016 -21.86497615232648
8.749999999999998 15.03019415936367 -12.30445802147741
8.749999999999998 5.039085780016176 -26.83867600304679
8.749999999999998 10.00373677397764 -8.364268731268059
8.749999999999998 3.297210266197898 -32.49839433611906
8.749999999999998 4.69871211903373 -7.708577414881475
8.749999999999998 4.39749460301358 -19.48031430442172
8.749999999999998 9.945086292131306 -16.0301020989147
8.749999999999998 15.67345285333492 -7.142506035712886
10.25 3.10416666666666 -3
-10.25 3.104166666666674 -3
11.75 20.125 -1.5
11.75 8.624999999999988 -1.5
11.75 14.37499999999999 -1.5
11.75 2.874999999999994 -1.5
3.157610638484556 18.22886740495932 0
-2.707174061168084 4.878797530676509 0
7.069955745470662 8.71654637064 0
-6.619519168154191 14.39111856499582 0
7.102873022115112 14.37499999999999 0
0.1126091443291166 11.52691623390895 0
-7.000954855602266 8.644857627020135 0
-2.792058517349997 18.15992185565015 0
2.948495529093417 4.721447277005962 0
-7.528051718759411 18.81262893003679 0
7.528051718759419 4.187371069963204 0
7.820492259183635 19.07601590637069 0
-7.553981076842906 4.160878030182232 0
-11.75 20.125 -1.5
-11.75 14.37499999999999 -1.5
-11.75 8.624999999999988 -1.5
-11.75 2.874999999999994 -1.5
-8.750000000000002 14.73063806956035 -18.1896527182274
-8.750000000000002 11.03833279583686 -28.36124053795876
-8.750000000000002 4.7770416644676 -12.89485346160736
-8.750000000000002 8.005067884158381 -33.14356486416288
-8.750000000000002 14.76591269776135 -24.15331199036637
-8.750000000000002 9.636547998888011 -21.86497615232647
-8.750000000000002 15.03019415936369 -12.30445802147739
-8.750000000000002 5.039085780016172 -26.8386760030468
-8.750000000000002 10.00373677397769 -8.364268731268034
-8.750000000000002 3.297210266197897 -32.49839433611906
-8.750000000000002 4.698712119033751 -7.708577414881493
-8.750000000000002 4.397494603013573 -19.48031430442175
-8.750000000000002 9.945086292131315 -16.03010209891471
-8.750000000000002 15.67345285333495 -7.142506035712877
-8.750000000000002 15.37767628781558 -59.91539603118844
-8.750000000000002 11.42361900424176 -68.97096710640901
-8.750000000000002 11.29507715388685 -51.02894691663565
-8.750000000000002 5.325096259984546 -59.86517340365825
-8.750000000000002 8.005067884158386 -73.14356486416287
-8.750000000000002 7.940354711395067 -46.63286148527722
-8.750000000000002 5.343236871270502 -52.66601215383756
-8.750000000000002 5.452554270782208 -67.14794893212684
-8.750000000000002 15.64301101255708 -65.26505481858869
-8.750000000000002 15.4013714315971 -54.46665282448926
-8.750000000000002 10.55936837718658 -62.9928882573895
-8.750000000000002 3.328177064095977 -47.34382509267994
-8.750000000000002 3.353038574420977 -72.59765882666356
-8.750000000000002 10.55030439695686 -56.82251159786644
5.416543731212862 11.24756895333323 -77.81552737006736
-5.416543731205643 11.24756895331839 -77.8155273700595
-11.08553713564687 2.692729254468132 -77.30274376074361
13.76938524561782 3.142772328676279 -80.03685014956393
11.0421896272953 8.805852382761307 -80.03685014956395
-13.76938524561781 3.142772328676292 -80.03685014956395
6.127952929718361 12.72482537574827 -79.96314985043605
0.03409685249170612 14.12344948505078 -80
-6.127952929718287 12.7248253757483 -80.03685014956395
-11.04218962729527 8.805852382761346 -79.96314985043605
5.416543731212654 11.24756895333279 -82.18447262993286
-5.416543731206787 11.24756895332077 -82.18447262993924
-11.16905802559212 2.54926460942635 -82.67418870924529
11.08553713572445 2.692729254459099 -82.69725623922147
-8.750000000000002 15.21546631207191 -99.75901617735454
-8.750000000000002 11.19922020573706 -90.82796854403342
-8.750000000000002 5.201356331566228 -104.9849776090953
-8.750000000000002 7.892470727944491 -86.89480318765131
-8.750000000000002 5.260715019482305 -92.22722495596051
-8.750000000000002 14.67633014942546 -105.7960808537781
-8.750000000000002 9.653515906750254 -109.4493178346173
-8.750000000000002 5.102046873584607 -98.83456023566654
-8.750000000000002 5.690217109295855 -114.416584620813
-8.750000000000002 15.26588788071648 -94.29162865674147
-8.750000000000002 10.21031868013131 -102.0188467705415
-8.750000000000002 3.302686837703615 -87.20187215363477
-8.750000000000002 10.04033726193243 -96.1037253682468
-8.750000000000002 4.387277952301737 -109.858858626611
5.238095238095238 3.433034737482798 -120
-1.77635683940025e-15 3.433034737482798 -120
-5.238095238095241 3.433034737482797 -120
8.749999999999998 15.21546631207191 -99.75901617735454
8.749999999999998 11.18843467694318 -90.79070626894011
8.749999999999998 5.201356331566228 -104.9849776090953
8.749999999999998 7.940354711395072 -86.6328614852772
8.749999999999998 5.266014798718976 -92.18448153060801
8.749999999999998 14.67633014942546 -105.7960808537781
8.749999999999998 9.653515906750254 -109.4493178346173
8.749999999999998 5.102930170124052 -98.82743633144112
8.749999999999998 5.690217109295853 -114.416584620813
8.749999999999998 15.26497074391428 -94.28846009593421
8.749999999999998 10.21035700168741 -102.018537702088
8.749999999999998 3.31028451808751 -87.15834570681668
8.749999999999998 10.22423806945764 -96.21558953872524
8.749999999999998 4.387277952301737 -109.858858626611
8.749999999999998 15.37767628781558 -59.91539603118844
8.749999999999998 11.42361900424176 -68.97096710640899
8.749999999999998 11.29507715388685 -51.02894691663565
8.749999999999998 5.325096259984546 -59.86517340365825
8.749999999999998 8.005067884158388 -73.14356486416287
8.749999999999998 7.940354711395072 -46.63286148527722
8.749999999999998 5.343236871270503 -52.66601215383756
8.749999999999998 5.452554270782208 -67.14794893212684
8.749999999999998 15.4013714315971 -54.46665282448926
8.749999999999998 15.64301101255708 -65.26505481858868
8.749999999999998 10.55936837718658 -62.9928882573895
8.749999999999998 3.353038574420975 -72.59765882666355
8.749999999999998 3.328177064095977 -47.34382509267994
8.749999999999998 10.55030439695686 -56.82251159786644
0 16.8960684516334 -49.7939145625098
4.36060837059819 14.52582587312468 -47.47946235166326
-4.360608370598193 14.52582587312468 -47.47946235166326
3.552713678800501e-15 12.87027683310131 -45.86288134405275
-4.955455007452972 17.55448898136824 -50.43683730152765
4.955455007452971 17.55448898136824 -50.43683730152765
1.77635683940025e-15 16.8960684516334 -30.2060854374902
-4.360608370598195 14.52582587312468 -32.52053764833673
4.360608370598196 14.52582587312468 -32.52053764833673
-1.77635683940025e-15 12.8702768331013 -34.13711865594725
-4.955455007452976 17.55448898136824 -29.56316269847235
4.955455007452972 17.55448898136824 -29.56316269847235
0.2365041842050104 20 -7.089384965907797
-0.2910213490984077 20 -22.36070551888323
-4.009086003451443 20 -18.24442538667298
2.545759653340923 20 -17.5613839473786
-3.344377215740317 20 -12.13971181147815
4.079234049257149 20 -11.15666184940185
4.534280994181836 20 -23.08078543005409
-4.566185132470803 20 -7.178166392781113
-4.517366577019796 20 -22.88317260886885
5.510136411574017 20 -6.253705042106368
8.812499999999986 23 -1.5
2.937499999999966 23 -1.5
-8.812500000000007 23 -1.5
-2.937500000000027 23 -1.499999999999999
-4.861111111111109 20 -60
4.375 20 -60.39862298351532
-1.05324074074074 20 -62.80522993522758
0 20 -57.29885341911452
-5.266203703703704 20 -63.90947904857425
-5.055555555555555 20 -56.11133762229417
4.958333333333334 20 -56.19106221899724
0 16.8960684516334 -70.2060854374902
4.360608370598198 14.52582587312469 -72.52053764833673
-4.3606083705982 14.52582587312469 -72.52053764833673
-1.77635683940025e-15 12.87027683310131 -74.13711865594725
4.955455007452972 17.55448898136824 -69.56316269847235
-4.955455007452976 17.55448898136824 -69.56316269847235
1.77635683940025e-15 16.8960684516334 -89.7939145625098
4.360608370598191 14.52582587312468 -87.47946235166326
-4.36060837059819 14.52582587312468 -87.47946235166326
1.77635683940025e-15 12.8702768331013 -85.86288134405274
4.955455007452972 17.55448898136824 -90.43683730152765
-4.955455007452972 17.55448898136824 -90.43683730152765
4.861111111111111 20 -100
-4.861111111111109 20 -100
0 20 -96.96910965285228
0 20 -102.9837840948245
5.055555555555555 20 -96.04538886904172
5.055555555555555 20 -103.9451898804936
-5.055555555555555 20 -103.9451898804936
-5.055555555555555 20 -96.04538886904172
0 10.27651011340636 -116.6698337346693
0 16.58955936155923 -110.5053799686065
3.753427846340301 13.4330347374828 -113.5876068516379
-3.760246595130894 13.4330347374828 -113.5876068516379
-4.531725199283386 9.942857570191228 -116.9956328209319
4.531725199283387 16.92321190477437 -110.1795808823439
-4.531725199283388 16.92321190477437 -110.1795808823439
4.531725199283384 9.942857570191229 -116.9956328209319
4.514474888993912 6.633836925837154 -82.87213081069912
-4.214030233211687 6.744228385783413 -82.90630366031168
-6.152790057436626 5.586591271787333 -82.73563191223403
6.687163720973308 5.313974724580292 -82.62563235349728
-3.824747572405244 3.287868292131325 -80.06689380966046
3.640207411023791 3.287868292131325 -80.00836172620757
8.039057977487165 3.287868292131325 -80.00167234524152
-8.075966009763455 3.287868292131325 -80.0133787619321
-5.403720026594337 9.703616260867989 -80.03546642977909
-9.442100901893156 5.848682691210627 -80.03546642977911
5.403720026594358 9.703616260867976 -80.03546642977911
9.442100901893163 5.848682691210618 -80.03546642977911
8.078689203008411e-15 11.1067708477306 -80.03546642977911
4.514474888993907 6.633836925837156 -77.12786918930087
-4.514474888994049 6.633836925837073 -77.12786918930087
6.68716372097331 5.313974724580294 -77.37436764650272
-6.687163720973533 5.313974724579988 -77.37436764650271
-4.214030233211683 6.744228385783413 -42.90630366031169
4.514474888993907 6.633836925837156 -42.87213081069913
6.687163720973309 5.313974724580294 -42.62563235349728
-6.152790057436628 5.586591271787335 -42.73563191223403
3.824747572405247 3.287868292131325 -40.06689380966045
-3.640207411023791 3.287868292131325 -40.00836172620755
8.075966009763455 3.287868292131325 -40.01337876193209
-8.039057977487165 3.287868292131325 -40.00167234524151
-9.442100901893163 5.848682691210618 -40.03546642977911
-5.403720026594345 9.703616260867983 -40.03546642977911
1.054488774788561e-14 11.1067708477306 -40.03546642977911
9.442100901893163 5.848682691210618 -40.03546642977911
5.403720026594358 9.703616260867976 -39.96453357022089
4.514474888993909 6.633836925837157 -37.12786918930087
-4.514474888994052 6.633836925837067 -37.12786918930088
-6.687163720973529 5.31397472457999 -37.37436764650271
6.687163720973309 5.313974724580292 -37.37436764650272
0.02728949468798274 8.836337646978667 -94.02099320502964
-1.77635683940025e-15 11.2289006008473 -60.15277180838437
-1.77635683940025e-15 11.06890275291255 -23.35853193694701
-0.5758391505827323 8.985660831183434 -105.6631745205597
0.04651827488054927 11.05026565211684 -12.20541666138297
-0.7630195025206089 7.855909465359161 -52.52612901062285
-1.423789740973979 8.59344510409079 -67.55060107317723
1.500364678997962 13.34186157621644 -99.97644687383841
-2.314136297044405 7.800610897846128 -29.44456696753824
-2.825703114467346 14.49113809310709 -64.63171379442132
2.960446311290357 14.57585612710254 -55.1005132178397
2.735928191907188 14.3626780711427 -5.804519941829502
-2.993952138582947 14.61014247186123 -95.09400707223327
-1.994334023921281 6.824105837463201 -6.829153811797796
-3.36897017444005 6.470711996653562 -88.68492671380982
-3.06838629304016 14.70021134037355 -55.06531763026582
3.259750310352675 12.57792502654882 -66.03024510589894
3.430154782517455 6.588228019947782 -88.60163770680752
-2.37565158237033 6.529805389376124 -111.6394435448662
2.057814616071558 6.799501962122007 -17.7975788714147
3.430154782517459 6.58822801994776 -48.60163770680753
3.443394038248289 5.957197238998287 -70.5003612956674
-2.336918146206929 14.63514040820986 -104.4681230018191

CELLS 2985 13161
1 0
1 1
1 2
1 3
1 4
1 5
1 6
1 7
1 8
1 9
1 10
1 11
1 12
1 13
1 14
1 15
1 16
1 17
1 18
1 19
1 20
1 21
1 22
1 23
1 24
1 25
1 26
1 27
1 28
1 29
1 30
1 31
1 32
1 33
1 34
1 35
1 36
1 37
1 38
1 39
1 40
1 41
1 42
1 43
1 44
1 45
1 46
1 47
1 48
1 49
1 50
1 51
1 52
1 53
1 54
1 55
1 56
1 57
1 58
1 59
1 60
1 61
1 62
1 63
1 64
1 65
2 0 1
2 1 2
2 2 3
2 3 66
2 66 67
2 67 68
2 68 69
2 69 4
2 4 5
2 5 6
2 6 70
2 70 71
2 71 72
2 72 7
2 8 7
2 8 9
2 9 73
2 73 74
2 74 75
2 75 76
2 76 10
2 11 10
2 12 11
2 13 12
2 13 77
2 77 78
2 78 79
2 79 80
2 80 14
2 15 14
2 16 15
2 17 16
2 17 81
2 81 82
2 82 83
2 83 84
2 84 85
2 85 18
2 19 86
2 86 87
2 87 18
2 20 88
2 88 89
2 89 90
2 90 91
2 91 92
2 92 19
2 20 21
2 21 22
2 22 23
2 0 93
2 93 94
2 94 95
2 95 96
2 96 23
2 1 97
2 97 98
2 98 99
2 99 100
2 100 101
2 101 102
2 102 12
2 24 103
2 103 13
2 24 104
2 104 105
2 105 25
2 25 106
2 106 0
2 2 107
2 107 108
2 108 109
2 109 110
2 110 111
2 111 112
2 112 11
2 3 113
2 113 26
2 26 114
2 114 115
2 115 27
2 10 116
2 116 27
2 4 117
2 117 118
2 118 28
2 29 119
2 119 120
2 120 121
2 121 28
2 26 122
2 122 123
2 123 29
2 31 124
2 124 125
2 125 126
2 126 30
2 8 127
2 127 128
2 128 129
2 129 31
2 32 130
2 130 131
2 131 9
2 32 132
2 132 133
2 133 28
2 5 134
2 134 135
2 135 136
2 136 30
2 6 137
2 137 138
2 138 139
2 139 33
2 30 33
2 34 140
2 140 141
2 141 142
2 142 33
2 7 143
2 143 144
2 144 145
2 145 34
2 31 34
2 32 146
2 146 147
2 147 148
2 148 35
2 27 149
2 149 150
2 150 35
2 36 151
2 151 152
2 152 24
2 37 153
2 153 154
2 154 36
2 38 155
2 155 156
2 156 37
2 14 157
2 157 38
2 23 158
2 158 39
2 39 159
2 159 160
2 160 38
2 22 161
2 161 162
2 162 163
2 163 164
2 164 165
2 165 166
2 166 15
2 21 167
2 167 168
2 168 169
2 169 170
2 170 171
2 171 172
2 172 16
2 40 173
2 173 17
2 40 174
2 174 175
2 175 41
2 41 176
2 176 20
2 42 177
2 177 178
2 178 40
2 43 179
2 179 180
2 180 42
2 44 181
2 181 182
2 182 43
2 18 44
2 45 183
2 183 184
2 184 44
2 19 45
2 46 185
2 185 186
2 186 41
2 47 187
2 187 188
2 188 46
2 45 189
2 189 190
2 190 47
2 48 191
2 191 192
2 192 25
2 49 193
2 193 194
2 194 48
2 39 195
2 195 196
2 196 49
2 48 197
2 197 198
2 198 36
2 29 199
2 199 200
2 200 35
2 49 201
2 201 202
2 202 37
2 46 203
2 203 204
2 204 42
2 47 205
2 205 206
2 206 43
2 50 207
2 207 51
2 51 208
2 208 50
2 50 209
2 209 52
2 52 210
2 210 211
2 211 212
2 212 213
2 213 53
2 53 214
2 214 51
2 52 54
2 54 215
2 215 55
2 55 216
2 216 56
2 56 217
2 217 57
2 53 57
2 54 218
2 218 219
2 219 220
2 220 221
2 221 57
2 55 222
2 222 56
2 58 223
2 223 59
2 59 224
2 224 58
2 58 225
2 225 60
2 60 226
2 226 227
2 227 228
2 228 229
2 229 61
2 61 230
2 230 59
2 60 62
2 62 231
2 231 63
2 63 232
2 232 64
2 64 233
2 233 65
2 61 65
2 62 234
2 234 235
2 235 236
2 236 237
2 237 65
2 63 238
2 238 64
3 1 257 0
3 0 243 93
3 0 260 243
3 257 260 0
3 2 257 1
3 3 257 2
3 66 263 3
3 3 260 257
3 3 263 260
3 6 4 5
3 70 4 6
3 4 253 69
3 70 253 4
3 7 8 9
3 9 72 7
3 9 246 72
3 73 283 9
3 9 283 246
3 11 258 10
3 13 252 10
3 10 258 13
3 10 244 76
3 10 252 244
3 12 258 11
3 13 258 12
3 77 262 13
3 13 262 252
3 15 255 14
3 17 254 14
3 14 255 17
3 14 242 80
3 14 254 242
3 16 255 15
3 17 255 16
3 81 261 17
3 17 261 254
3 18 279 85
3 87 279 18
3 19 280 86
3 92 280 19
3 21 256 20
3 20 240 88
3 20 259 240
3 256 259 20
3 22 256 21
3 23 256 22
3 96 264 23
3 23 259 256
3 23 264 259
3 67 251 66
3 251 263 66
3 68 275 67
3 67 275 251
3 69 250 68
3 250 275 68
3 69 253 250
3 71 253 70
3 72 246 71
3 246 253 71
3 74 274 73
3 274 283 73
3 75 247 74
3 247 274 74
3 76 273 75
3 75 273 247
3 244 273 76
3 78 268 77
3 77 268 262
3 79 245 78
3 245 268 78
3 80 266 79
3 79 266 245
3 242 266 80
3 82 270 81
3 81 270 261
3 83 241 82
3 241 270 82
3 84 272 83
3 83 272 241
3 85 276 84
3 84 276 272
3 85 279 276
3 86 239 87
3 86 280 239
3 239 279 87
3 88 269 89
3 240 269 88
3 89 271 90
3 269 271 89
3 90 248 91
3 90 271 248
3 91 277 92
3 248 277 91
3 277 280 92
3 93 265 94
3 243 265 93
3 94 267 95
3 265 267 94
3 95 249 96
3 95 267 249
3 249 264 96
3 239 277 276
3 276 279 239
3 239 280 277
3 259 282 240
3 261 269 240
3 240 282 261
3 269 270 241
3 241 271 269
3 241 272 271
3 254 264 242
3 264 266 242
3 260 281 243
3 262 265 243
3 243 281 262
3 244 263 251
3 251 273 244
3 252 263 244
3 245 266 249
3 249 267 245
3 245 267 265
3 265 268 245
3 246 278 253
3 246 283 278
3 250 274 247
3 247 275 250
3 247 273 251
3 251 275 247
3 271 272 248
3 272 277 248
3 249 266 264
3 253 278 250
3 250 278 274
3 260 263 252
3 252 281 260
3 262 281 252
3 259 264 254
3 254 282 259
3 261 282 254
3 261 270 269
3 262 268 265
3 276 277 272
3 278 283 274
3 0 287 1
3 106 287 0
3 1 287 97
3 12 286 13
3 102 286 12
3 13 286 103
3 101 24 102
3 101 285 24
3 103 102 24
3 24 285 104
3 97 25 98
3 25 97 106
3 25 284 98
3 105 284 25
3 97 287 106
3 98 284 99
3 100 99 104
3 105 104 99
3 99 284 105
3 100 285 101
3 104 285 100
3 103 286 102
3 1 289 2
3 97 289 1
3 2 289 107
3 11 291 12
3 112 291 11
3 12 291 102
3 98 290 97
3 107 289 97
3 97 290 107
3 99 288 98
3 98 288 108
3 108 290 98
3 100 292 99
3 109 288 99
3 99 292 109
3 101 294 100
3 110 292 100
3 100 294 110
3 102 293 101
3 101 293 111
3 111 294 101
3 102 291 112
3 112 293 102
3 107 290 108
3 108 288 109
3 109 292 110
3 110 294 111
3 111 293 112
3 3 2 113
3 107 113 2
3 10 297 11
3 116 297 10
3 11 297 112
3 107 108 26
3 26 113 107
3 108 295 26
3 26 295 114
3 111 112 27
3 27 296 111
3 116 27 112
3 115 296 27
3 109 295 108
3 110 115 109
3 115 114 109
3 114 295 109
3 111 296 110
3 110 296 115
3 112 297 116
3 3 307 66
3 113 307 3
3 69 308 4
3 4 308 117
3 26 301 113
3 122 301 26
3 118 311 28
3 28 311 121
3 119 302 29
3 29 302 123
3 66 305 67
3 66 307 305
3 67 309 68
3 305 309 67
3 68 300 69
3 68 309 300
3 300 308 69
3 301 307 113
3 117 306 118
3 117 308 306
3 306 311 118
3 120 298 119
3 298 302 119
3 121 304 120
3 120 304 298
3 121 311 304
3 123 299 122
3 299 301 122
3 123 302 299
3 298 303 302
3 298 310 303
3 304 310 298
3 299 305 301
3 302 303 299
3 303 305 299
3 306 308 300
3 300 310 306
3 309 310 300
3 305 307 301
3 303 309 305
3 303 310 309
3 306 310 304
3 304 311 306
3 5 4 312
3 4 117 312
3 134 5 312
3 9 8 313
3 8 127 313
3 131 9 313
3 30 28 126
3 136 28 30
3 28 136 118
3 28 133 126
3 31 124 32
3 129 31 32
3 124 132 32
3 129 32 130
3 135 117 118
3 135 134 117
3 117 134 312
3 136 135 118
3 132 124 125
3 126 133 125
3 133 132 125
3 127 128 131
3 127 131 313
3 128 129 130
3 128 130 131
3 5 317 6
3 134 317 5
3 6 317 137
3 33 314 30
3 30 314 136
3 139 314 33
3 135 315 134
3 134 315 137
3 137 317 134
3 136 316 135
3 138 315 135
3 135 316 138
3 136 314 139
3 139 316 136
3 137 315 138
3 138 316 139
3 6 328 70
3 137 328 6
3 72 330 7
3 7 330 143
3 33 329 139
3 142 329 33
3 34 327 140
3 145 327 34
3 70 326 71
3 70 328 326
3 71 319 72
3 71 326 319
3 319 330 72
3 138 320 137
3 320 328 137
3 139 322 138
3 138 322 320
3 139 329 322
3 140 325 141
3 140 327 325
3 141 318 142
3 141 325 318
3 318 329 142
3 143 324 144
3 143 330 324
3 144 321 145
3 144 324 321
3 321 327 145
3 318 323 322
3 322 329 318
3 318 325 323
3 323 324 319
3 319 326 323
3 324 330 319
3 322 323 320
3 323 326 320
3 326 328 320
3 321 324 323
3 323 325 321
3 325 327 321
3 8 7 334
3 7 143 334
3 127 8 334
3 34 31 331
3 31 129 331
3 145 34 331
3 128 127 333
3 127 143 333
3 143 127 334
3 129 128 332
3 128 144 332
3 144 128 333
3 129 145 331
3 145 129 332
3 143 144 333
3 144 145 332
3 73 9 345
3 9 131 345
3 10 76 344
3 116 10 344
3 27 116 338
3 149 27 338
3 130 32 348
3 32 146 348
3 148 35 339
3 35 150 339
3 74 73 337
3 337 73 345
3 75 74 346
3 74 337 346
3 76 75 342
3 342 75 346
3 76 342 344
3 338 116 344
3 131 130 343
3 343 130 348
3 131 343 345
3 146 147 341
3 146 341 348
3 147 148 335
3 147 335 341
3 335 148 339
3 150 149 336
3 336 149 338
3 150 336 339
3 335 339 340
3 335 340 347
3 341 335 347
3 336 338 342
3 339 336 340
3 340 336 342
3 343 337 345
3 337 343 347
3 346 337 347
3 342 338 344
3 340 342 346
3 340 346 347
3 343 341 347
3 341 343 348
3 77 13 360
3 13 103 360
3 14 80 361
3 157 14 361
3 103 24 354
3 24 152 354
3 151 36 358
3 36 154 358
3 153 37 357
3 37 156 357
3 155 38 353
3 38 157 353
3 78 77 355
3 355 77 360
3 79 78 352
3 352 78 355
3 80 79 356
3 79 352 356
3 80 356 361
3 103 354 360
3 152 151 351
3 351 151 358
3 152 351 354
3 154 153 349
3 349 153 357
3 154 349 358
3 156 155 350
3 350 155 353
3 156 350 357
3 353 157 361
3 349 357 359
3 358 349 362
3 349 359 362
3 350 353 356
3 350 356 359
3 357 350 359
3 354 351 355
3 355 351 362
3 351 358 362
3 352 355 362
3 356 352 359
3 359 352 362
3 356 353 361
3 354 355 360
3 14 365 15
3 157 365 14
3 15 365 166
3 23 22 158
3 161 158 22
3 157 38 166
3 160 364 38
3 165 166 38
3 38 364 165
3 39 158 161
3 39 363 159
3 161 162 39
3 162 363 39
3 166 365 157
3 160 159 163
3 159 363 163
3 164 160 163
3 164 364 160
3 163 363 162
3 165 364 164
3 15 368 16
3 166 368 15
3 16 368 172
3 21 366 22
3 167 366 21
3 22 366 161
3 161 367 162
3 161 366 167
3 167 367 161
3 162 369 163
3 162 367 168
3 168 369 162
3 163 370 164
3 163 369 169
3 169 370 163
3 164 371 165
3 164 370 170
3 170 371 164
3 165 372 166
3 165 371 171
3 171 372 165
3 172 368 166
3 166 372 172
3 168 367 167
3 169 369 168
3 170 370 169
3 171 371 170
3 172 372 171
3 16 375 17
3 172 375 16
3 17 375 173
3 20 376 21
3 176 376 20
3 21 376 167
3 171 40 172
3 171 374 40
3 173 172 40
3 40 374 174
3 167 41 168
3 41 167 176
3 41 373 168
3 175 373 41
3 167 376 176
3 168 373 169
3 170 169 174
3 175 174 169
3 169 373 175
3 170 374 171
3 174 374 170
3 173 375 172
3 81 17 388
3 17 173 388
3 44 18 385
3 18 85 385
3 173 40 380
3 40 178 380
3 177 42 386
3 42 180 386
3 179 43 382
3 43 182 382
3 181 44 385
3 82 81 381
3 381 81 388
3 83 82 384
3 82 381 384
3 84 83 379
3 379 83 384
3 85 84 390
3 84 379 390
3 385 85 390
3 173 380 388
3 178 177 378
3 378 177 386
3 178 378 380
3 180 179 377
3 377 179 382
3 180 377 386
3 182 181 383
3 383 181 385
3 382 182 383
3 377 382 387
3 386 377 389
3 377 387 389
3 380 378 381
3 381 378 389
3 378 386 389
3 383 379 387
3 379 383 390
3 379 384 387
3 380 381 388
3 384 381 389
3 382 383 387
3 383 385 390
3 387 384 389
3 44 393 18
3 18 393 87
3 19 391 45
3 86 391 19
3 184 393 44
3 45 391 183
3 87 392 86
3 86 392 391
3 87 393 392
3 183 392 184
3 391 392 183
3 392 393 184
3 45 402 19
3 19 402 92
3 88 405 20
3 20 405 176
3 176 397 41
3 41 397 186
3 189 402 45
3 185 403 46
3 46 403 188
3 187 399 47
3 47 399 190
3 89 398 88
3 398 405 88
3 90 401 89
3 89 401 398
3 91 396 90
3 396 401 90
3 92 407 91
3 91 407 396
3 402 407 92
3 176 405 397
3 186 395 185
3 395 403 185
3 186 397 395
3 188 394 187
3 394 399 187
3 188 403 394
3 190 400 189
3 400 402 189
3 399 400 190
3 394 404 399
3 403 406 394
3 394 406 404
3 397 398 395
3 398 406 395
3 395 406 403
3 400 404 396
3 396 407 400
3 396 404 401
3 397 405 398
3 401 406 398
3 399 404 400
3 400 407 402
3 404 406 401
3 93 420 0
3 0 420 106
3 23 419 96
3 158 419 23
3 106 413 25
3 25 413 192
3 39 412 158
3 195 412 39
3 191 416 48
3 48 416 194
3 193 417 49
3 49 417 196
3 94 414 93
3 414 420 93
3 95 411 94
3 411 414 94
3 96 415 95
3 95 415 411
3 96 419 415
3 106 420 413
3 412 419 158
3 192 410 191
3 410 416 191
3 192 413 410
3 194 408 193
3 408 417 193
3 194 416 408
3 196 409 195
3 409 412 195
3 196 417 409
3 416 421 408
3 408 418 417
3 408 421 418
3 409 415 412
3 409 418 415
3 417 418 409
3 413 414 410
3 414 421 410
3 410 421 416
3 411 421 414
3 415 418 411
3 418 421 411
3 415 419 412
3 413 420 414
3 104 152 24
3 105 25 192
3 151 426 36
3 36 426 198
3 48 427 191
3 197 427 48
3 105 425 104
3 104 424 152
3 104 425 424
3 192 423 105
3 423 425 105
3 152 424 151
3 424 426 151
3 191 423 192
3 191 427 423
3 198 422 197
3 422 427 197
3 198 426 422
3 422 425 423
3 423 427 422
3 424 425 422
3 422 426 424
3 122 26 114
3 27 149 115
3 123 433 29
3 29 433 199
3 35 432 150
3 200 432 35
3 115 431 114
3 114 430 122
3 114 431 430
3 149 429 115
3 429 431 115
3 122 430 123
3 430 433 123
3 150 429 149
3 150 432 429
3 199 428 200
3 199 433 428
3 428 432 200
3 428 431 429
3 429 432 428
3 430 431 428
3 428 433 430
3 121 443 28
3 28 443 133
3 29 440 119
3 199 440 29
3 132 441 32
3 32 441 146
3 148 442 35
3 35 442 200
3 119 437 120
3 119 440 437
3 120 439 121
3 437 439 120
3 439 443 121
3 133 434 132
3 434 441 132
3 133 443 434
3 146 438 147
3 146 441 438
3 147 436 148
3 147 438 436
3 436 442 148
3 200 435 199
3 435 440 199
3 200 442 435
3 434 439 438
3 438 441 434
3 434 443 439
3 436 437 435
3 435 442 436
3 437 440 435
3 436 438 437
3 438 439 437
3 30 444 33
3 126 444 30
3 34 446 31
3 31 446 124
3 33 444 142
3 140 446 34
3 124 447 125
3 124 446 140
3 140 447 124
3 125 445 126
3 141 445 125
3 125 447 141
3 142 444 126
3 126 445 142
3 141 447 140
3 142 445 141
3 36 453 154
3 198 453 36
3 153 452 37
3 37 452 202
3 194 454 48
3 48 454 197
3 201 193 49
3 154 448 153
3 448 452 153
3 154 453 448
3 193 449 194
3 201 449 193
3 449 454 194
3 197 451 198
3 197 454 451
3 451 453 198
3 202 450 201
3 201 450 449
3 202 452 450
3 448 451 450
3 450 452 448
3 448 453 451
3 450 451 449
3 451 454 449
3 37 460 156
3 202 460 37
3 160 38 155
3 195 39 159
3 196 459 49
3 49 459 201
3 156 457 155
3 155 457 160
3 156 460 457
3 160 458 159
3 159 456 195
3 159 458 456
3 457 458 160
3 195 456 196
3 456 459 196
3 201 455 202
3 201 459 455
3 455 460 202
3 456 458 455
3 455 459 456
3 455 458 457
3 457 460 455
3 174 178 40
3 175 41 186
3 177 466 42
3 42 466 204
3 46 465 185
3 203 465 46
3 175 464 174
3 174 463 178
3 174 464 463
3 186 462 175
3 462 464 175
3 178 463 177
3 463 466 177
3 185 462 186
3 185 465 462
3 204 461 203
3 461 465 203
3 204 466 461
3 461 464 462
3 462 465 461
3 463 464 461
3 461 466 463
3 42 474 180
3 204 474 42
3 179 473 43
3 43 473 206
3 188 471 46
3 46 471 203
3 47 472 187
3 205 472 47
3 180 468 179
3 468 473 179
3 180 474 468
3 187 467 188
3 187 472 467
3 467 471 188
3 203 469 204
3 203 471 469
3 469 474 204
3 206 470 205
3 470 472 205
3 206 473 470
3 467 470 469
3 469 471 467
3 467 472 470
3 469 470 468
3 468 474 469
3 470 473 468
3 43 481 182
3 206 481 43
3 181 479 44
3 44 479 184
3 183 482 45
3 45 482 189
3 190 480 47
3 47 480 205
3 182 478 181
3 478 479 181
3 182 481 478
3 184 475 183
3 475 482 183
3 184 479 475
3 189 477 190
3 189 482 477
3 477 480 190
3 205 476 206
3 205 480 476
3 476 481 206
3 475 478 477
3 477 482 475
3 475 479 478
3 477 478 476
3 476 480 477
3 478 481 476
3 207 208 50
3 208 207 51
3 207 50 483
3 50 209 486
3 483 50 486
3 51 207 484
3 214 51 485
3 51 484 485
3 209 52 486
3 52 210 486
3 213 53 214
3 212 207 211
3 211 207 483
3 207 212 484
3 210 211 483
3 210 483 486
3 212 213 484
3 213 214 485
3 484 213 485
3 208 488 50
3 50 488 209
3 51 487 208
3 214 487 51
3 52 489 54
3 209 489 52
3 57 490 53
3 53 490 214
3 54 489 215
3 215 488 55
3 55 488 216
3 216 487 56
3 56 487 217
3 217 490 57
3 487 488 208
3 488 489 209
3 214 490 487
3 215 489 488
3 216 488 487
3 487 490 217
3 52 54 494
3 210 52 494
3 57 53 492
3 53 213 492
3 54 218 494
3 221 57 492
3 211 210 493
3 210 218 493
3 218 210 494
3 212 211 495
3 219 211 493
3 211 219 495
3 213 212 491
3 212 220 491
3 220 212 495
3 221 213 491
3 213 221 492
3 218 219 493
3 219 220 495
3 220 221 491
3 54 215 498
3 218 54 498
3 215 55 498
3 55 222 496
3 55 496 498
3 56 217 499
3 222 56 497
3 497 56 499
3 217 57 499
3 57 221 499
3 219 218 496
3 496 218 498
3 220 219 222
3 222 219 496
3 221 220 497
3 220 222 497
3 221 497 499
3 216 222 55
3 222 216 56
3 223 224 58
3 224 223 59
3 223 58 501
3 58 225 502
3 501 58 502
3 59 223 500
3 230 59 503
3 59 500 503
3 225 60 502
3 60 226 502
3 229 61 230
3 228 223 227
3 227 223 501
3 223 228 500
3 226 227 501
3 226 501 502
3 228 229 500
3 229 230 503
3 500 229 503
3 224 504 58
3 58 504 225
3 59 505 224
3 230 505 59
3 60 506 62
3 225 506 60
3 65 507 61
3 61 507 230
3 62 506 231
3 231 504 63
3 63 504 232
3 232 505 64
3 64 505 233
3 233 507 65
3 224 505 504
3 504 506 225
3 230 507 505
3 231 506 504
3 504 505 232
3 505 507 233
3 60 62 511
3 226 60 511
3 65 61 508
3 61 229 508
3 62 234 511
3 237 65 508
3 227 226 512
3 234 226 511
3 226 234 512
3 228 227 510
3 227 235 510
3 235 227 512
3 229 228 509
3 228 236 509
3 236 228 510
3 229 237 508
3 237 229 509
3 234 235 512
3 235 236 510
3 236 237 509
3 62 231 516
3 234 62 516
3 231 63 516
3 63 238 513
3 63 513 516
3 64 233 515
3 238 64 514
3 514 64 515
3 233 65 515
3 65 237 515
3 235 234 513
3 513 234 516
3 236 235 238
3 238 235 513
3 237 236 514
3 236 238 514
3 237 514 515
3 232 238 63
3 64 238 232
4 513 238 63 301
4 482 183 280 239
4 307 301 63 525
4 335 519 436 521
4 401 520 517 524
4 411 267 518 523
4 441 132 348 528
4 471 403 465 524
4 203 471 465 524
4 298 521 519 536
4 482 239 280 535
4 301 238 63 525
4 348 132 130 528
4 271 517 401 520
4 183 239 482 535
4 348 521 441 528
4 411 523 518 533
4 114 238 513 301
4 348 528 130 530
4 465 403 517 524
4 403 395 465 517
4 2 113 107 62
4 22 158 161 54
4 384 387 517 520
4 500 59 354 522
4 411 415 523 533
4 411 518 267 522
4 521 528 348 530
4 437 519 298 521
4 500 223 59 522
4 396 407 248 520
4 347 519 335 521
4 341 335 436 521
4 307 305 301 525
4 307 63 263 525
4 418 411 518 533
4 436 519 437 521
4 384 517 241 520
4 308 521 300 530
4 418 415 411 533
4 56 222 497 523
4 384 387 389 517
4 56 497 353 523
4 465 517 461 529
4 465 461 203 529
4 114 430 431 525
4 517 520 387 524
4 392 239 183 535
4 465 203 524 529
4 401 404 520 524
4 411 249 267 523
4 465 395 462 517
4 433 428 430 519
4 396 401 404 520
4 183 482 475 535
4 436 335 442 519
4 411 421 518 522
4 346 273 342 519
4 132 321 130 528
4 346 342 340 519
4 299 430 301 525
4 360 354 59 522
4 480 399 205 539
4 389 517 524 529
4 343 521 348 530
4 465 524 517 529
4 389 517 387 524
4 183 392 280 239
4 433 430 299 519
4 342 519 273 525
4 361 242 56 523
4 465 462 461 517
4 432 428 200 519
4 433 199 428 519
4 433 302 199 519
4 432 200 339 519
4 298 440 302 519
4 280 402 482 535
4 435 437 436 519
4 441 521 434 528
4 305 299 301 525
4 392 183 475 535
4 431 430 428 525
4 337 521 274 536
4 407 520 400 535
4 435 436 442 519
4 343 348 130 530
4 241 517 271 520
4 56 353 361 523
4 267 245 518 523
4 480 520 399 539
4 299 519 430 525
4 305 519 299 525
4 339 442 335 519
4 519 521 347 536
4 411 414 421 522
4 248 407 277 520
4 249 411 415 523
4 114 301 430 525
4 429 432 336 525
4 389 524 387 529
4 401 517 406 524
4 317 5 312 134
4 334 8 127 313
4 440 298 437 519
4 238 301 114 525
4 130 528 323 530
4 406 395 403 517
4 302 433 299 519
4 339 336 432 519
4 432 519 336 525
4 251 519 273 536
4 247 273 519 536
4 267 518 245 522
4 347 521 337 536
4 346 519 340 536
4 280 239 277 535
4 341 436 438 521
4 303 519 305 536
4 523 533 415 538
4 304 437 298 521
4 440 199 302 519
4 307 263 305 525
4 277 520 407 535
4 220 370 219 495
4 430 519 428 525
4 482 400 477 535
4 238 263 63 525
4 340 519 347 536
4 480 400 399 520
4 471 203 469 524
4 241 379 384 520
4 402 407 400 535
4 402 400 482 535
4 442 339 200 519
4 308 300 250 530
4 117 320 528 530
4 428 199 435 519
4 346 247 273 519
4 406 517 403 524
4 310 521 298 536
4 117 528 306 530
4 306 521 308 530
4 384 381 270 517
4 346 347 337 536
4 335 347 340 519
4 200 428 435 519
4 183 392 391 280
4 274 521 337 530
4 117 306 308 530
4 440 435 199 519
4 352 518 362 522
4 321 132 325 528
4 300 521 250 530
4 359 518 352 523
4 442 200 435 519
4 520 524 399 539
4 346 340 347 536
4 440 437 435 519
4 265 411 267 522
4 251 273 519 525
4 308 306 300 521
4 354 104 500 522
4 396 400 407 520
4 303 298 519 536
4 117 326 320 530
4 280 183 482 402
4 216 222 523 538
4 438 434 441 521
4 379 387 384 520
4 249 523 415 538
4 321 323 130 528
4 352 518 245 523
4 476 520 480 539
4 340 519 342 525
4 216 523 242 538
4 352 245 518 522
4 348 343 341 521
4 341 347 335 521
4 355 268 352 522
4 392 279 239 535
4 346 247 519 536
4 305 519 251 536
4 500 104 223 522
4 404 401 406 524
4 422 423 425 522
4 277 402 280 535
4 170 169 370 495
4 100 99 292 510
4 280 391 183 402
4 441 434 132 528
4 304 298 310 521
4 384 389 381 517
4 251 519 305 525
4 309 303 305 536
4 400 520 477 535
4 248 272 271 520
4 518 522 421 527
4 356 242 361 523
4 277 407 402 535
4 411 265 414 522
4 472 470 205 539
4 398 406 401 517
4 303 299 305 519
4 353 497 160 523
4 480 476 477 520
4 346 337 247 536
4 497 222 160 523
4 302 303 298 519
4 335 340 339 519
4 247 337 274 536
4 250 278 253 530
4 247 251 273 536
4 278 250 274 530
4 424 354 351 522
4 480 477 400 520
4 464 463 461 517
4 274 521 250 536
4 250 521 274 530
4 464 461 462 517
4 355 354 360 522
4 398 401 269 517
4 471 394 403 524
4 399 520 404 524
4 59 262 360 522
4 469 524 203 529
4 241 272 379 520
4 477 475 482 535
4 439 437 304 521
4 250 253 308 530
4 270 241 384 517
4 300 250 521 536
4 267 249 245 523
4 306 528 521 530
4 9 131 313 330
4 117 4 312 328
4 387 524 520 539
4 450 449 451 518
4 436 437 438 521
4 359 352 356 523
4 449 408 518 533
4 355 352 362 522
4 399 394 472 524
4 400 404 399 520
4 200 435 428 199
4 424 422 425 522
4 352 268 245 522
4 356 352 266 523
4 224 522 223 537
4 241 271 272 520
4 377 529 387 539
4 354 424 104 522
4 410 423 527 537
4 392 475 184 535
4 476 480 205 539
4 425 104 424 522
4 387 529 524 539
4 423 522 422 527
4 229 228 285 509
4 213 212 374 491
4 211 210 373 493
4 235 234 512 295
4 303 310 298 536
4 472 524 470 539
4 389 378 381 531
4 406 398 395 517
4 362 359 349 518
4 421 408 418 518
4 450 449 518 533
4 321 325 323 528
4 361 353 356 523
4 500 354 59 503
4 309 305 251 536
4 448 349 526 532
4 378 517 463 531
4 463 517 378 529
4 449 518 408 527
4 421 418 411 518
4 352 359 362 518
4 400 396 404 520
4 395 462 517 534
4 337 521 343 530
4 238 114 431 525
4 248 277 272 520
4 396 248 90 401
4 220 370 495 164
4 236 292 510 110
4 389 517 378 531
4 476 478 477 520
4 449 417 408 533
4 251 275 309 536
4 381 270 517 531
4 251 305 263 525
4 472 394 467 524
4 390 379 272 535
4 431 428 429 525
4 271 269 401 517
4 336 519 340 525
4 221 220 491 364
4 237 236 509 296
4 227 226 284 512
4 219 218 493 363
4 463 517 464 531
4 522 527 423 537
4 418 518 408 533
4 450 518 526 533
4 439 434 521 528
4 362 522 518 532
4 299 303 302 519
4 339 340 336 519
4 463 461 517 529
4 462 464 517 534
4 377 389 387 529
4 395 517 398 534
4 362 518 349 532
4 408 518 421 527
4 304 439 521 528
4 300 521 310 536
4 394 406 403 524
4 324 130 323 530
4 223 104 425 522
4 266 352 245 523
4 232 263 238 525
4 349 518 359 526
4 379 520 272 535
4 457 350 353 523
4 389 381 517 531
4 347 343 337 521
4 425 522 423 537
4 467 394 471 524
4 422 522 424 532
4 457 353 160 523
4 451 518 449 527
4 306 310 300 521
4 468 529 377 539
4 267 245 265 522
4 456 533 458 538
4 272 520 277 535
4 481 383 478 539
4 439 434 438 521
4 378 517 389 529
4 355 351 354 522
4 266 242 523 538
4 470 469 468 524
4 457 160 458 523
4 458 160 222 523
4 424 522 351 532
4 245 249 266 523
4 223 522 425 537
4 360 262 355 522
4 147 436 341 335
4 481 478 476 539
4 304 521 306 528
4 458 455 457 523
4 22 54 161 366
4 2 62 107 289
4 320 118 117 528
4 232 238 64 525
4 341 343 347 521
4 477 520 478 535
4 481 382 383 539
4 222 458 523 538
4 518 526 349 532
4 266 242 356 523
4 245 268 265 522
4 80 361 356 242
4 212 169 170 495
4 228 99 100 510
4 169 212 211 495
4 99 228 227 510
4 393 385 279 535
4 518 523 359 526
4 117 118 306 528
4 439 438 437 521
4 514 338 64 525
4 362 351 522 532
4 478 520 476 539
4 306 304 310 521
4 458 533 523 538
4 352 355 78 268
4 444 33 142 329
4 455 523 458 533
4 383 520 478 539
4 34 327 446 140
4 216 242 264 538
4 336 340 342 525
4 514 64 238 525
4 468 524 469 529
4 131 130 324 530
4 362 351 355 522
4 131 343 130 530
4 390 272 276 535
4 393 184 385 535
4 422 527 522 532
4 261 531 208 534
4 398 517 269 534
4 270 269 241 517
4 468 524 529 539
4 263 63 232 238
4 248 271 90 401
4 240 261 208 534
4 275 251 247 536
4 472 467 470 524
4 334 143 7 330
4 387 383 382 539
4 469 467 471 524
4 317 328 6 137
4 398 89 269 401
4 390 383 379 535
4 383 520 379 535
4 468 470 524 539
4 51 388 485 380
4 130 32 132 348
4 139 33 314 329
4 262 522 224 537
4 370 219 495 163
4 450 201 449 533
4 452 448 349 526
4 304 298 437 120
4 331 327 34 145
4 456 455 458 533
4 283 274 345 530
4 268 355 262 522
4 269 517 270 531
4 130 321 324 323
4 464 531 517 534
4 241 269 271 517
4 441 132 32 348
4 457 460 350 526
4 457 523 455 526
4 25 60 511 226
4 41 52 494 210
4 344 64 338 525
4 383 387 379 520
4 417 449 201 533
4 325 447 140 141
4 411 267 249 95
4 477 478 475 535
4 387 520 383 539
4 478 520 383 535
4 458 159 456 538
4 266 356 79 352
4 68 300 309 536
4 399 404 394 524
4 17 14 490 255
4 345 274 337 530
4 204 461 469 203
4 321 145 332 144
4 456 409 533 538
4 246 283 345 530
4 456 412 409 538
4 13 10 507 258
4 384 381 82 270
4 457 350 523 526
4 246 345 131 530
4 417 418 408 533
4 463 378 466 529
4 318 445 141 142
4 326 253 246 530
4 9 131 330 246
4 452 349 357 526
4 436 438 147 341
4 468 377 473 539
4 68 309 275 536
4 350 356 353 523
4 460 357 350 526
4 131 330 246 319
4 246 9 345 283
4 247 337 74 274
4 479 385 184 535
4 337 74 346 247
4 378 386 466 529
4 448 453 349 532
4 304 306 311 528
4 183 475 184 392
4 304 311 439 528
4 415 411 249 95
4 445 133 125 126
4 124 125 447 132
4 427 410 423 527
4 518 527 451 532
4 348 146 441 341
4 243 420 93 537
4 75 342 346 273
4 344 342 76 273
4 350 359 523 526
4 424 351 426 532
4 427 416 410 527
4 218 54 494 39
4 62 26 511 234
4 84 390 379 272
4 246 253 278 530
4 456 159 412 538
4 275 251 309 67
4 262 224 243 537
4 414 522 265 537
4 309 251 305 67
4 283 278 274 530
4 381 388 81 270
4 132 133 325 528
4 380 378 463 531
4 517 531 269 534
4 426 351 358 532
4 265 267 411 94
4 479 184 475 535
4 393 279 87 392
4 345 337 343 530
4 416 454 408 527
4 222 159 458 538
4 350 359 356 523
4 451 197 198 532
4 131 9 345 246
4 457 455 460 526
4 354 360 59 503
4 133 132 434 528
4 198 197 422 532
4 403 185 465 395
4 357 452 153 349
4 266 264 242 538
4 246 131 319 530
4 483 50 397 486
4 138 137 320 315
4 377 382 473 539
4 466 386 378 177
4 78 245 352 268
4 311 118 443 528
4 443 322 28 133
4 89 271 269 401
4 427 410 416 191
4 426 151 358 351
4 454 449 408 527
4 443 322 133 528
4 461 469 203 529
4 232 244 263 525
4 28 311 118 443
4 496 412 55 498
4 497 499 56 353
4 405 398 88 534
4 139 316 138 322
4 319 326 246 530
4 414 93 420 537
4 414 265 411 94
4 83 379 384 241
4 437 439 304 120
4 468 474 377 529
4 339 442 148 335
4 262 265 268 522
4 484 40 485 213
4 115 292 110 109
4 160 370 164 163
4 395 397 462 534
4 392 391 280 86
4 333 144 143 324
4 416 454 194 408
4 358 349 453 532
4 484 485 380 531
4 484 51 485 531
4 244 64 344 525
4 467 469 470 524
4 253 326 328 117
4 60 25 511 97
4 52 41 494 167
4 461 204 469 529
4 409 415 533 538
4 250 300 68 536
4 240 405 88 534
4 349 452 153 448
4 442 436 148 335
4 394 404 406 524
4 51 380 485 531
4 448 451 453 532
4 455 526 523 533
4 357 460 350 156
4 196 417 459 409
4 232 64 244 525
4 262 265 522 537
4 409 415 418 533
4 315 134 117 135
4 131 333 128 127
4 349 358 453 154
4 450 526 201 533
4 502 58 501 413
4 272 277 276 535
4 247 274 250 536
4 388 270 381 531
4 407 396 248 91
4 464 207 531 534
4 459 417 201 533
4 126 28 30 444
4 32 31 446 124
4 413 423 410 537
4 275 250 68 536
4 117 4 328 253
4 276 239 279 535
4 63 516 513 301
4 338 514 64 515
4 484 485 40 380
4 242 356 80 266
4 338 514 115 525
4 279 87 392 239
4 84 390 272 276
4 206 476 205 539
4 182 382 383 481
4 190 399 480 400
4 399 187 472 394
4 251 244 273 525
4 485 388 173 380
4 269 531 261 534
4 427 423 422 527
4 463 466 461 529
4 245 266 79 352
4 159 370 160 163
4 322 28 118 443
4 468 469 474 529
4 336 338 429 525
4 422 424 426 532
4 39 54 494 161
4 26 62 511 107
4 439 311 443 528
4 185 462 465 395
4 462 397 175 534
4 240 269 261 534
4 262 243 265 537
4 440 298 302 119
4 443 118 322 528
4 481 43 382 473
4 463 174 380 531
4 463 466 378 177
4 452 357 460 526
4 85 385 279 393
4 159 370 219 220
4 279 18 85 393
4 473 382 377 179
4 332 129 130 128
4 135 316 136 118
4 382 481 473 539
4 338 115 429 525
4 133 322 28 329
4 481 206 473 539
4 474 386 377 529
4 48 427 454 416
4 350 357 359 526
4 241 384 82 270
4 412 159 496 538
4 244 344 76 273
4 463 378 380 178
4 522 527 518 532
4 326 246 253 71
4 378 389 386 529
4 34 327 331 446
4 186 462 395 397
4 451 527 197 532
4 241 83 379 272
4 188 471 394 403
4 417 459 409 533
4 197 527 422 532
4 410 427 423 191
4 426 424 151 351
4 319 323 326 530
4 360 103 59 503
4 86 280 392 239
4 331 31 32 129
4 136 30 28 314
4 514 238 115 525
4 397 186 462 175
4 324 323 319 530
4 470 206 205 539
4 413 105 423 537
4 437 298 440 119
4 273 346 75 247
4 388 173 51 485
4 50 397 486 405
4 460 452 37 357
4 357 349 359 526
4 318 325 133 528
4 276 277 239 535
4 4 117 308 253
4 454 416 427 527
4 349 453 448 154
4 453 36 358 426
4 410 416 421 527
4 377 386 474 180
4 463 380 174 178
4 450 448 452 526
4 389 377 386 529
4 425 423 105 537
4 462 175 464 534
4 362 358 351 532
4 451 449 454 527
4 416 408 421 527
4 115 238 431 525
4 201 526 455 533
4 429 115 431 525
4 473 481 43 206
4 423 413 410 192
4 351 424 152 354
4 263 244 251 525
4 322 118 320 528
4 477 189 400 482
4 383 479 181 478
4 466 386 42 474
4 402 280 391 92
4 465 471 46 403
4 69 250 253 308
4 455 201 202 526
4 146 438 441 341
4 407 248 277 91
4 358 362 349 532
4 187 467 472 394
4 463 464 174 531
4 479 478 383 535
4 423 105 413 192
4 261 269 270 531
4 412 456 195 159
4 496 55 412 538
4 115 292 236 110
4 160 370 220 164
4 249 266 523 538
4 342 344 338 525
4 468 473 470 539
4 103 360 354 503
4 19 391 280 92
4 326 319 246 71
4 261 81 388 270
4 150 432 339 336
4 433 302 299 123
4 350 460 457 156
4 459 456 196 409
4 385 479 181 383
4 189 400 482 402
4 468 473 377 179
4 223 425 105 537
4 464 175 207 534
4 474 466 386 529
4 426 358 453 532
4 202 201 450 526
4 361 56 499 353
4 498 412 55 419
4 276 279 385 535
4 133 318 322 329
4 382 377 387 539
4 471 467 188 394
4 353 350 457 155
4 409 456 195 412
4 190 480 477 400
4 478 182 383 481
4 250 69 300 308
4 456 409 459 533
4 88 398 269 534
4 479 383 385 535
4 322 320 323 528
4 408 417 449 193
4 230 229 503 103
4 424 152 354 104
4 202 452 460 526
4 370 159 160 220
4 430 301 114 122
4 174 464 207 531
4 246 330 9 72
4 207 208 531 534
4 253 70 4 328
4 457 160 353 155
4 413 502 58 420
4 214 213 485 173
4 201 449 417 193
4 459 417 49 201
4 377 474 468 180
4 432 150 429 336
4 430 433 299 123
4 247 250 275 536
4 260 232 252 263
4 159 370 163 219
4 388 261 270 531
4 243 93 265 537
4 318 323 325 528
4 496 159 222 538
4 264 254 216 259
4 174 484 380 531
4 279 385 85 276
4 402 277 280 92
4 149 429 336 338
4 430 299 301 122
4 455 456 459 533
4 314 33 444 329
4 64 344 338 515
4 63 516 301 307
4 326 70 253 328
4 283 73 345 274
4 408 454 194 449
4 246 278 283 530
4 116 344 64 515
4 269 240 88 534
4 300 310 309 536
4 149 429 338 115
4 265 93 414 537
4 397 50 483 534
4 397 486 405 176
4 459 201 455 533
4 174 40 380 484
4 201 417 49 193
4 439 443 311 121
4 496 222 55 538
4 483 175 397 534
4 318 133 322 528
4 277 402 407 92
4 378 380 381 531
4 439 443 434 528
4 454 427 197 527
4 388 380 51 531
4 324 319 131 530
4 420 502 58 106
4 405 240 50 534
4 336 342 338 525
4 55 419 412 538
4 4 312 328 317
4 58 420 243 537
4 396 90 248 91
4 439 311 304 121
4 276 385 390 535
4 9 334 330 313
4 14 17 490 254
4 157 361 56 499
4 309 310 303 536
4 501 413 58 537
4 41 175 397 483
4 130 145 129 332
4 83 84 379 272
4 343 131 345 530
4 159 39 412 496
4 499 157 361 353
4 501 105 413 537
4 460 455 202 526
4 298 437 120 119
4 249 264 266 538
4 420 413 502 106
4 397 395 398 534
4 405 50 397 534
4 72 246 330 319
4 405 486 50 176
4 523 526 518 533
4 385 390 85 276
4 436 147 148 335
4 242 254 216 264
4 58 243 224 537
4 385 85 18 393
4 487 282 208 488
4 474 204 466 529
4 504 505 224 281
4 432 35 150 339
4 433 29 302 123
4 118 311 306 528
4 344 116 338 515
4 391 19 402 92
4 77 78 355 268
4 240 208 50 534
4 10 13 507 252
4 337 345 73 274
4 419 96 415 538
4 426 453 198 532
4 327 132 325 321
4 55 222 216 538
4 427 197 48 454
4 442 148 35 339
4 412 415 409 538
4 25 105 413 501
4 410 414 413 537
4 61 229 230 103
4 454 197 451 527
4 114 26 301 513
4 264 96 419 538
4 38 160 353 497
4 53 213 214 173
4 417 409 418 533
4 269 88 89 398
4 37 202 452 460
4 479 475 478 535
4 422 197 427 527
4 104 24 354 500
4 481 476 206 539
4 204 461 466 529
4 207 483 175 211
4 223 105 227 501
4 219 222 496 159
4 235 114 238 513
4 413 420 58 537
4 198 453 451 532
4 228 105 99 227
4 212 175 169 211
4 267 411 94 95
4 454 194 48 416
4 422 426 198 532
4 426 453 36 198
4 63 232 260 263
4 388 381 380 531
4 391 19 45 402
4 18 44 385 393
4 323 318 322 528
4 27 115 338 514
4 17 214 490 254
4 473 43 382 179
4 47 187 472 399
4 438 146 147 341
4 264 419 55 538
4 405 397 398 534
4 244 252 232 263
4 46 203 471 465
4 474 42 466 204
4 174 40 178 380
4 264 216 55 259
4 133 434 443 528
4 416 48 427 191
4 36 151 358 426
4 485 173 40 380
4 417 49 196 459
4 37 460 357 156
4 264 55 23 259
4 175 186 41 397
4 86 392 87 239
4 474 386 42 180
4 471 188 46 403
4 453 358 36 154
4 169 174 212 170
4 100 104 99 228
4 236 115 514 238
4 497 220 160 222
4 43 382 182 481
4 480 47 399 190
4 420 0 243 93
4 448 153 349 154
4 13 230 507 252
4 69 253 4 308
4 92 407 277 91
4 195 159 39 412
4 474 469 204 529
4 131 128 333 324
4 117 320 315 135
4 189 190 477 400
4 182 383 181 478
4 484 207 51 531
4 253 70 326 71
4 254 261 51 282
4 356 79 80 266
4 440 302 29 119
4 466 42 386 177
4 81 82 381 270
4 465 46 185 403
4 414 420 413 537
4 212 174 207 484
4 228 223 500 104
4 388 51 261 531
4 223 58 224 537
4 50 208 207 534
4 105 192 25 413
4 452 202 450 526
4 264 23 55 419
4 41 52 176 167
4 25 60 106 97
4 104 223 425 105
4 174 207 464 175
4 114 431 115 238
4 222 160 458 159
4 385 383 390 535
4 470 473 206 539
4 207 208 51 531
4 139 136 316 322
4 415 96 249 538
4 501 58 223 537
4 207 483 50 534
4 452 153 37 357
4 328 6 4 317
4 252 262 59 281
4 73 345 9 283
4 144 333 128 324
4 229 103 24 503
4 320 138 315 135
4 145 130 321 332
4 334 7 9 330
4 122 114 26 301
4 174 169 212 175
4 228 105 104 99
4 51 208 261 531
4 160 155 38 353
4 40 173 485 213
4 133 125 132 141
4 261 282 240 208
4 32 146 441 348
4 55 216 264 538
4 415 412 419 538
4 104 24 152 354
4 419 264 23 96
4 304 439 121 120
4 214 17 51 254
4 414 265 94 93
4 132 325 133 141
4 51 17 261 254
4 58 0 243 420
4 271 89 90 401
4 230 13 59 252
4 251 305 67 66
4 262 59 13 252
4 174 207 484 531
4 175 212 207 211
4 105 228 223 227
4 219 220 222 159
4 490 217 14 254
4 501 223 105 537
4 483 207 175 534
4 27 115 149 338
4 56 242 254 216
4 50 20 240 405
4 69 68 250 300
4 63 516 307 113
4 224 505 59 281
4 192 410 423 191
4 424 152 151 351
4 63 232 504 260
4 331 327 32 446
4 88 240 20 405
4 378 463 177 178
4 245 79 78 352
4 96 415 249 95
4 487 490 214 254
4 60 225 502 106
4 462 185 186 395
4 75 76 342 273
4 337 73 74 274
4 28 311 443 121
4 354 24 103 503
4 249 96 264 538
4 405 50 20 209
4 3 63 260 263
4 327 130 145 129
4 282 487 254 488
4 429 150 149 336
4 299 430 123 122
4 118 316 136 322
4 238 115 235 236
4 254 282 488 259
4 130 327 32 129
4 52 209 486 176
4 488 216 254 259
4 390 84 85 276
4 412 498 158 419
4 240 20 50 259
4 57 217 499 157
4 260 58 0 243
4 155 350 457 156
4 456 195 196 409
4 507 233 10 252
4 38 492 166 372
4 112 293 27 508
4 58 0 420 225
4 51 487 282 208
4 504 232 252 260
4 158 498 55 419
4 467 187 188 394
4 488 55 216 259
4 167 367 41 494
4 97 25 511 290
4 39 367 161 494
4 107 511 26 290
4 65 233 515 116
4 252 505 504 281
4 260 252 504 281
4 307 516 301 113
4 492 40 172 372
4 24 293 102 508
4 216 254 487 488
4 230 507 252 505
4 307 263 3 66
4 179 377 468 180
4 260 63 3 231
4 487 214 51 254
4 231 63 3 307
4 252 505 232 504
4 74 75 346 247
4 225 420 58 106
4 262 224 281 243
4 312 328 317 137
4 115 238 235 114
4 228 105 223 104
4 212 175 207 174
4 159 220 222 160
4 330 334 143 313
4 20 50 259 209
4 384 82 83 241
4 116 344 233 64
4 252 59 230 505
4 55 23 259 215
4 314 444 28 329
4 59 103 230 503
4 217 361 56 157
4 230 103 59 360
4 50 405 176 209
4 325 318 133 141
4 58 260 281 243
4 133 126 142 329
4 208 282 50 488
4 173 214 51 485
4 319 72 246 71
4 255 17 16 375
4 286 12 13 258
4 173 51 214 388
4 482 45 189 402
4 44 385 479 181
4 132 447 140 325
4 287 0 1 257
4 330 7 9 72
4 322 139 136 329
4 67 309 275 68
4 256 21 20 376
4 50 282 240 259
4 499 38 157 353
4 445 133 318 141
4 55 23 215 419
4 131 330 319 324
4 70 6 4 328
4 15 14 255 365
4 297 10 11 258
4 263 3 63 307
4 486 397 41 176
4 194 408 449 193
4 504 224 58 281
4 332 130 321 144
4 325 132 447 141
4 361 80 14 242
4 280 391 19 86
4 344 76 10 244
4 0 58 260 225
4 126 133 28 329
4 124 140 327 132
4 130 321 327 145
4 14 56 242 254
4 240 282 50 208
4 328 326 320 117
4 338 116 27 515
4 279 87 18 393
4 255 57 14 490
4 281 224 58 243
4 39 54 161 158
4 26 62 107 113
4 17 53 255 490
4 140 124 447 132
4 126 445 133 142
4 318 133 445 142
4 65 507 10 258
4 507 61 13 258
4 117 320 135 118
4 413 25 502 106
4 282 261 51 208
4 244 10 344 64
4 131 130 128 324
4 445 125 133 141
4 125 447 132 141
4 56 14 361 217
4 225 58 502 106
4 14 56 361 242
4 233 344 10 64
4 505 252 59 281
4 489 52 256 209
4 51 17 214 388
4 489 256 54 215
4 81 388 17 261
4 59 13 230 360
4 51 487 254 282
4 124 327 32 132
4 360 13 77 262
4 224 59 262 281
4 364 220 491 371
4 235 295 512 288
4 369 373 493 211
4 285 294 509 228
4 252 10 244 64
4 60 257 506 225
4 176 486 50 209
4 56 217 157 499
4 209 20 176 376
4 493 363 369 219
4 512 284 227 288
4 296 509 294 236
4 374 491 212 371
4 506 257 62 231
4 217 56 14 254
4 217 490 487 254
4 64 233 116 515
4 244 252 64 232
4 318 133 142 329
4 128 130 144 324
4 135 320 138 118
4 225 287 0 106
4 286 61 103 102
4 51 17 388 261
4 132 140 327 325
4 176 405 20 209
4 364 491 165 371
4 444 142 28 329
4 173 375 53 172
4 509 294 111 296
4 284 512 98 288
4 363 369 162 493
4 488 282 50 259
4 233 10 252 64
4 509 101 294 285
4 373 168 369 493
4 108 512 295 288
4 225 0 420 106
4 171 491 374 371
4 314 28 139 329
4 59 13 360 262
4 217 14 57 490
4 117 320 137 315
4 143 131 333 324
4 507 233 252 505
4 144 130 321 324
4 446 327 32 140
4 140 32 446 124
4 142 28 126 444
4 13 61 286 258
4 53 17 255 375
4 507 10 233 65
4 139 136 28 314
4 231 62 516 113
4 53 17 214 490
4 100 110 510 292
4 164 170 370 495
4 230 61 13 507
4 52 20 209 376
4 331 32 327 145
4 215 54 498 158
4 145 331 32 129
4 118 138 316 322
4 134 312 317 137
4 334 127 143 313
4 260 504 58 281
4 307 231 63 113
4 287 0 60 225
4 176 167 52 376
4 60 97 287 106
4 255 14 57 365
4 297 65 10 258
4 157 57 365 166
4 116 65 297 112
4 320 138 118 322
4 215 158 55 419
4 52 20 256 209
4 143 131 330 313
4 312 328 137 117
4 498 39 412 158
4 331 32 31 446
4 444 28 30 314
4 312 4 5 317
4 9 8 334 313
4 53 57 255 490
4 444 30 33 314
4 511 226 234 290
4 367 218 210 494
4 293 508 229 237
4 492 221 213 372
4 65 61 507 258
4 488 259 489 215
4 331 31 34 446
4 504 260 506 231
4 60 62 257 289
4 301 516 26 113
4 211 493 369 219
4 512 227 235 288
4 220 212 491 371
4 228 294 509 236
4 257 60 0 225
4 259 488 55 215
4 56 217 487 254
4 20 52 256 376
4 230 103 13 286
4 489 259 488 209
4 217 365 14 157
4 17 375 214 173
4 260 504 63 231
4 287 60 0 257
4 367 39 218 494
4 511 234 26 290
4 137 134 312 117
4 131 143 127 313
4 344 10 116 233
4 14 361 217 157
4 221 492 38 372
4 508 293 27 237
4 233 10 116 297
4 65 291 61 258
4 57 53 255 368
4 230 13 103 360
4 24 293 508 229
4 40 492 213 372
4 64 252 233 505
4 210 41 367 494
4 511 25 226 290
4 145 32 327 129
4 254 487 56 216
4 173 214 17 388
4 512 108 98 288
4 168 162 369 493
4 111 101 294 509
4 171 165 491 371
4 257 62 2 289
4 491 364 165 221
4 509 111 237 296
4 98 512 284 226
4 363 162 218 493
4 139 28 136 329
4 140 327 32 124
4 229 101 509 285
4 171 374 491 213
4 210 168 373 493
4 295 512 108 234
4 506 260 504 225
4 137 328 320 117
4 142 126 28 329
4 131 143 330 324
4 511 62 60 107
4 492 53 57 166
4 112 65 61 508
4 52 54 167 494
4 516 63 231 113
4 259 50 488 209
4 230 13 61 286
4 375 53 17 214
4 14 57 365 217
4 9 8 7 334
4 4 6 5 317
4 158 55 498 215
4 107 62 60 289
4 368 57 53 166
4 54 52 167 366
4 61 291 65 112
4 10 233 65 297
4 505 64 252 232
4 511 107 97 290
4 167 161 367 494
4 293 112 102 508
4 172 166 492 372
4 168 210 218 493
4 512 98 234 226
4 101 237 229 509
4 165 491 221 213
4 316 135 138 118
4 3 231 307 113
4 52 54 256 366
4 510 292 109 99
4 370 169 163 495
4 144 332 130 128
4 58 504 260 225
4 256 54 22 366
4 60 511 107 97
4 166 492 53 172
4 102 112 61 508
4 54 161 167 494
4 97 107 60 289
4 166 53 368 172
4 112 61 291 102
4 167 161 54 366
4 164 220 364 371
4 100 294 285 228
4 117 137 134 315
4 333 131 143 127
4 100 110 228 510
4 170 164 212 495
4 220 212 164 495
4 236 228 110 510
4 170 374 212 371
4 296 294 110 236
4 2 1 257 289
4 215 23 158 419
4 98 108 512 234
4 168 218 162 493
4 237 101 111 509
4 491 165 171 213
4 41 367 218 210
4 24 293 229 237
4 213 221 38 372
4 39 41 367 218
4 213 38 40 372
4 293 24 27 237
4 164 212 371 170
4 110 228 294 100
4 228 110 294 236
4 212 164 371 220
4 219 163 211 495
4 235 227 510 109
4 367 41 39 168
4 165 40 38 372
4 98 26 25 290
4 101 27 293 24
4 109 295 235 288
4 373 369 169 211
4 163 369 363 219
4 99 227 284 288
4 255 16 15 368
4 11 12 291 258
4 162 367 39 168
4 98 108 26 290
4 40 165 171 372
4 27 101 293 111
4 62 60 257 506
4 54 52 256 489
4 109 235 227 288
4 163 211 369 219
4 22 21 256 366
4 108 26 295 234
4 162 218 39 363
4 41 210 168 373
4 284 25 98 226
4 40 374 171 213
4 27 237 111 296
4 165 364 38 221
4 101 229 24 285
4 109 227 510 99
4 211 163 169 495
4 99 109 227 288
4 211 163 369 169
4 61 103 230 286
4 214 375 53 173
4 221 38 165 213
4 210 218 41 168
4 237 229 24 101
4 212 174 374 170
4 115 296 110 236
4 364 160 220 164
4 228 285 100 104
4 38 40 165 213
4 218 39 41 168
4 24 27 237 101
4 225 60 287 106
4 235 114 295 109
4 373 169 175 211
4 219 363 163 159
4 105 227 284 99
4 171 165 40 213
4 98 26 108 234
4 27 237 101 111
4 39 218 162 168
4 209 176 52 376
4 217 57 365 157
4 65 233 116 297
4 108 107 26 290
4 170 171 374 371
4 171 172 40 372
4 165 166 372 38
4 164 165 371 364
4 168 169 373 369
4 111 110 296 294
4 112 111 27 293
4 102 101 293 24
4 101 100 294 285
4 99 98 288 284
4 109 108 295 288
4 98 97 290 25
4 167 168 41 367
4 161 162 367 39
4 162 163 369 363
4 15 166 57 368
4 57 166 15 365
4 57 255 15 368
4 15 255 57 365
4 24 104 229 500
4 24 229 104 285
4 228 229 104 500
4 228 104 229 285
4 40 174 213 484
4 40 213 174 374
4 212 213 174 484
4 212 174 213 374
4 492 40 53 172
4 492 53 40 213
4 173 53 40 172
4 173 40 53 213
4 508 24 61 102
4 508 61 24 229
4 103 61 24 102
4 103 24 61 229
4 199 302 29 440
4 199 29 302 433
4 539 472 399 205
4 539 399 472 524
4 257 2 231 3
4 257 231 2 62
4 113 231 2 3
4 113 2 231 62
4 525 432 428 429
4 525 428 432 519
4 256 22 215 23
4 256 215 22 54
4 158 215 22 23
4 158 22 215 54
4 116 27 65 112
4 508 65 27 112
4 508 27 65 237
4 157 38 57 166
4 492 57 38 166
4 492 38 57 221
4 523 216 56 222
4 523 56 216 242
4 339 200 35 442
4 339 35 200 432
4 399 205 47 480
4 399 47 205 472
4 530 320 323 326
4 530 323 320 528
4 535 393 392 279
4 535 392 393 184
4 441 341 521 348
4 521 341 441 438
4 253 117 530 326
4 530 117 253 308
4 537 414 421 410
4 421 414 537 522
4 421 527 537 410
4 537 527 421 522
4 248 401 520 271
4 520 401 248 396
4 532 451 450 448
4 450 451 532 518
4 450 526 532 448
4 532 526 450 518
4 522 224 59 262
4 522 59 224 223
4 184 385 44 393
4 184 44 385 479
4 402 183 45 391
4 402 45 183 482
4 355 262 77 268
4 77 262 355 360
4 305 263 66 251
4 305 66 263 307
4 344 273 525 342
4 525 273 344 244
4 109 115 235 114
4 327 130 132 321
4 132 130 327 32
4 24 500 503 354
4 503 500 24 229
4 483 41 486 397
4 483 486 41 210
4 496 39 498 218
4 496 498 39 412
4 38 497 499 221
4 38 499 497 353
4 501 25 502 413
4 501 502 25 226
4 26 513 516 301
4 26 516 513 234
4 514 27 515 338
4 514 515 27 237
4 322 28 136 118
4 136 28 322 329
4 257 225 260 506
4 260 225 257 0
4 257 231 260 3
4 260 231 257 506
4 25 502 60 226
4 25 60 502 106
4 41 486 52 210
4 41 52 486 176
4 256 209 259 489
4 259 209 256 20
4 499 38 57 157
4 57 38 499 221
4 27 515 65 237
4 65 515 27 116
4 256 215 259 23
4 259 215 256 489
4 498 39 54 218
4 498 54 39 158
4 516 26 62 234
4 516 62 26 113
4 98 234 25 26
4 98 25 234 226
4 290 25 234 26
4 290 234 25 226
4 172 16 53 368
4 172 53 16 375
4 255 53 16 368
4 255 16 53 375
4 220 160 221 497
4 220 221 160 364
4 38 221 160 497
4 38 160 221 364
4 102 12 61 291
4 102 61 12 286
4 258 61 12 291
4 258 12 61 286
4 112 11 65 297
4 112 65 11 291
4 258 65 11 297
4 258 11 65 291
4 236 115 237 514
4 236 237 115 296
4 27 237 115 514
4 27 115 237 296
4 26 114 234 513
4 26 234 114 295
4 235 234 114 513
4 235 114 234 295
4 97 1 60 287
4 97 60 1 289
4 257 60 1 287
4 257 1 60 289
4 39 159 218 496
4 39 218 159 363
4 219 218 159 496
4 219 159 218 363
4 256 21 52 366
4 256 52 21 376
4 167 52 21 366
4 167 21 52 376
4 211 175 210 483
4 211 210 175 373
4 41 210 175 483
4 41 175 210 373
4 227 105 226 501
4 227 226 105 284
4 25 226 105 501
4 25 105 226 284
4 510 109 236 235
4 510 236 109 292
4 115 236 109 235
4 115 109 236 292

CELL_TYPES 2985
1
1
1
1
1
1
1
1
1
1
1
1
1
1
1
1
1
1
1
1
1
1
1
1
1
1
1
1
1
1
1
1
1
1
1
1
1
1
1
1
1
1
1
1
1
1
1
1
1
1
1
1
1
1
1
1
1
1
1
1
1
1
1
1
1
1
3
3
3
3
3
3
3
3
3
3
3
3
3
3
3
3
3
3
3
3
3
3
3
3
3
3
3
3
3
3
3
3
3
3
3
3
3
3
3
3
3
3
3
3
3
3
3
3
3
3
3
3
3
3
3
3
3
3
3
3
3
3
3
3
3
3
3
3
3
3
3
3
3
3
3
3
3
3
3
3
3
3
3
3
3
3
3
3
3
3
3
3
3
3
3
3
3
3
3
3
3
3
3
3
3
3
3
3
3
3
3
3
3
3
3
3
3
3
3
3
3
3
3
3
3
3
3
3
3
3
3
3
3
3
3
3
3
3
3
3
3
3
3
3
3
3
3
3
3
3
3
3
3
3
3
3
3
3
3
3
3
3
3
3
3
3
3
3
3
3
3
3
3
3
3
3
3
3
3
3
3
3
3
3
3
3
3
3
3
3
3
3
3
3
3
3
3
3
3
3
3
3
3
3
3
3
3
3
3
3
3
3
3
3
3
3
3
3
3
3
3
3
3
3
3
3
3
3
3
3
3
3
3
3
3
3
3
3
3
3
3
3
3
3
3
3
3
3
3
3
3
3
3
3
3
3
3
3
3
3
3
3
3
3
3
3
3
3
3
3
3
3
5
5
5
5
5
5
5
5
5
5
5
5
5
5
5
5
5
5
5
5
5
5
5
5
5
5
5
5
5
5
5
5
5
5
5
5
5
5
5
5
5
5
5
5
5
5
5
5
5
5
5
5
5
5
5
5
5
5
5
5
5
5
5
5
5
5
5
5
5
5
5
5
5
5
5
5
5
5
5
5
5
5
5
5
5
5
5
5
5
5
5
5
5
5
5
5
5
5
5
5
5
5
5
5
5
5
5
5
5
5
5
5
5
5
5
5
5
5
5
5
5
5
5
5
5
5
5
5
5
5
5
5
5
5
5
5
5
5
5
5
5
5
5
5
5
5
5
5
5
5
5
5
5
5
5
5
5
5
5
5
5
5
5
5
5
5
5
5
5
5
5
5
5
5
5
5
5
5
5
5
5
5
5
5
5
5
5
5
5
5
5
5
5
5
5
5
5
5
5
5
5
5
5
5
5
5
5
5
5
5
5
5
5
5
5
5
5
5
5
5
5
5
5
5
5
5
5
5
5
5
5
5
5
5
5
5
5
5
5
5
5
5
5
5
5
5
5
5
5
5
5
5
5
5
5
5
5
5
5
5
5
5
5
5
5
5
5
5
5
5
5
5
5
5
5
5
5
5
5
5
5
5
5
5
5
5
5
5
5
5
5
5
5
5
5
5
5
5
5
5
5
5
5
5
5
5
5
5
5
5
5
5
5
5
5
5
5
5
5
5
5
5
5
5
5
5
5
5
5
5
5
5
5
5
5
5
5
5
5
5
5
5
5
5
5
5
5
5
5
5
5
5
5
5
5
5
5
5
5
5
5
5
5
5
5
5
5
5
5
5
5
5
5
5
5
5
5
5
5
5
5
5
5
5
5
5
5
5
5
5
5
5
5
5
5
5
5
5
5
5
5
5
5
5
5
5
5
5
5
5
5
5
5
5
5
5
5
5
5
5
5
5
5
5
5
5
5
5
5
5
5
5
5
5
5
5
5
5
5
5
5
5
5
5
5
5
5
5
5
5
5
5
5
5
5
5
5
5
5
5
5
5
5
5
5
5
5
5
5
5
5
5
5
5
5
5
5
5
5
5
5
5
5
5
5
5
5
5
5
5
5
5
5
5
5
5
5
5
5
5
5
5
5
5
5
5
5
5
5
5
5
5
5
5
5
5
5
5
5
5
5
5
5
5
5
5
5
5
5
5
5
5
5
5
5
5
5
5
5
5
5
5
5
5
5
5
5
5
5
5
5
5
5
5
5
5
5
5
5
5
5
5
5
5
5
5
5
5
5
5
5
5
5
5
5
5
5
5
5
5
5
5
5
5
5
5
5
5
5
5
5
5
5
5
5
5
5
5
5
5
5
5
5
5
5
5
5
5
5
5
5
5
5
5
5
5
5
5
5
5
5
5
5
5
5
5
5
5
5
5
5
5
5
5
5
5
5
5
5
5
5
5
5
5
5
5
5
5
5
5
5
5
5
5
5
5
5
5
5
5
5
5
5
5
5
5
5
5
5
5
5
5
5
5
5
5
5
5
5
5
5
5
5
5
5
5
5
5
5
5
5
5
5
5
5
5
5
5
5
5
5
5
5
5
5
5
5
5
5
5
5
5
5
5
5
5
5
5
5
5
5
5
5
5
5
5
5
5
5
5
5
5
5
5
5
5
5
5
5
5
5
5
5
5
5
5
5
5
5
5
5
5
5
5
5
5
5
5
5
5
5
5
5
5
5
5
5
5
5
5
5
5
5
5
5
5
5
5
5
5
5
5
5
5
5
5
5
5
5
5
5
5
5
5
5
5
5
5
5
5
5
5
5
5
5
5
5
5
5
5
5
5
5
5
5
5
5
5
5
5
5
5
5
5
5
5
5
5
5
5
5
5
5
5
5
5
5
5
5
5
5
5
5
5
5
5
5
5
5
5
5
5
5
5
5
5
5
5
5
5
5
5
5
5
5
5
5
5
5
5
5
5
5
5
5
5
5
5
5
5
5
5
5
5
5
5
5
5
5
5
5
5
5
5
5
5
5
5
5
5
5
5
5
5
5
5
5
5
5
5
5
5
5
5
5
5
5
5
5
5
5
5
5
5
5
5
5
5
5
5
5
5
5
5
5
5
5
5
5
5
5
5
5
5
5
5
5
5
5
5
5
5
5
5
5
5
5
5
5
5
5
5
5
5
5
5
5
5
5
5
5
5
5
5
5
5
5
5
5
5
5
5
5
5
5
5
5
5
5
5
5
5
5
5
5
5
5
5
5
5
5
5
5
5
5
5
5
5
5
5
5
5
5
5
5
5
5
5
5
5
5
5
10
10
10
10
10
10
10
10
10
10
10
10
10
10
10
10
10
10
10
10
10
10
10
10
10
10
10
10
10
10
10
10
10
10
10
10
10
10
10
10
10
10
10
10
10
10
10
10
10
10
10
10
10
10
10
10
10
10
10
10
10
10
10
10
10
10
10
10
10
10
10
10
10
10
10
10
10
10
10
10
10
10
10
10
10
10
10
10
10
10
10
10
10
10
10
10
10
10
10
10
10
10
10
10
10
10
10
10
10
10
10
10
10
10
10
10
10
10
10
10
10
10
10
10
10
10
10
10
10
10
10
10
10
10
10
10
10
10
10
10
10
10
10
10
10
10
10
10
10
10
10
10
10
10
10
10
10
10
10
10
10
10
10
10
10
10
10
10
10
10
10
10
10
10
10
10
10
10
10
10
10
10
10
10
10
10
10
10
10
10
10
10
10
10
10
10
10
10
10
10
10
10
10
10
10
10
10
10
10
10
10
10
10
10
10
10
10
10
10
10
10
10
10
10
10
10
10
10
10
10
10
10
10
10
10
10
10
10
10
10
10
10
10
10
10
10
10
10
10
10
10
10
10
10
10
10
10
10
10
10
10
10
10
10
10
10
10
10
10
10
10
10
10
10
10
10
10
10
10
10
10
10
10
10
10
10
10
10
10
10
10
10
10
10
10
10
10
10
10
10
10
10
10
10
10
10
10
10
10
10
10
10
10
10
10
10
10
10
10
10
10
10
10
10
10
10
10
10
10
10
10
10
10
10
10
10
10
10
10
10
10
10
10
10
10
10
10
10
10
10
10
10
10
10
10
10
10
10
10
10
10
10
10
10
10
10
10
10
10
10
10
10
10
10
10
10
10
10
10
10
10
10
10
10
10
10
10
10
10
10
10
10
10
10
10
10
10
10
10
10
10
10
10
10
10
10
10
10
10
10
10
10
10
10
10
10
10
10
10
10
10
10
10
10
10
10
10
10
10
10
10
10
10
10
10
10
10
10
10
10
10
10
10
10
10
10
10
10
10
10
10
10
10
10
10
10
10
10
10
10
10
10
10
10
10
10
10
10
10
10
10
10
10
10
10
10
10
10
10
10
10
10
10
10
10
10
10
10
10
10
10
10
10
10
10
10
10
10
10
10
10
10
10
10
10
10
10
10
10
10
10
10
10
10
10
10
10
10
10
10
10
10
10
10
10
10
10
10
10
10
10
10
10
10
10
10
10
10
10
10
10
10
10
10
10
10
10
10
10
10
10
10
10
10
10
10
10
10
10
10
10
10
10
10
10
10
10
10
10
10
10
10
10
10
10
10
10
10
10
10
10
10
10
10
10
10
10
10
10
10
10
10
10
10
10
10
10
10
10
10
10
10
10
10
10
10
10
10
10
10
10
10
10
10
10
10
10
10
10
10
10
10
10
10
10
10
10
10
10
10
10
10
10
10
10
10
10
10
10
10
10
10
10
10
10
10
10
10
10
10
10
10
10
10
10
10
10
10
10
10
10
10
10
10
10
10
10
10
10
10
10
10
10
10
10
10
10
10
10
10
10
10
10
10
10
10
10
10
10
10
10
10
10
10
10
10
10
10
10
10
10
10
10
10
10
10
10
10
10
10
10
10
10
10
10
10
10
10
10
10
10
10
10
10
10
10
10
10
10
10
10
10
10
10
10
10
10
10
10
10
10
10
10
10
10
10
10
10
10
10
10
10
10
10
10
10
10
10
10
10
10
10
10
10
10
10
10
10
10
10
10
10
10
10
10
10
10
10
10
10
10
10
10
10
10
10
10
10
10
10
10
10
10
10
10
10
10
10
10
10
10
10
10
10
10
10
10
10
10
10
10
10
10
10
10
10
10
10
10
10
10
10
10
10
10
10
10
10
10
10
10
10
10
10
10
10
10
10
10
10
10
10
10
10
10
10
10
10
10
10
10
10
10
10
10
10
10
10
10
10
10
10
10
10
10
10
10
10
10
10
10
10
10
10
10
10
10
10
10
10
10
10
10
10
10
10
10
10
10
10
10
10
10
10
10
10
10
10
10
10
10
10
10
10
10
10
10
10
10
10
10
10
10
10
10
10
10
10
10
10
10
10
10
10
10
10
10
10
10
10
10
10
10
10
10
10
10
10
10
10
10
10
10
10
10
10
10
10
10
10
10
10
10
10
10
10
10
10
10
10
10
10
10
10
10
10
10
10
10
10
10
10
10
10
10
10
10
10
10
10
10
10
10
10
10
10
10
10
10
10
10
10
10
10
10
10
10
10
10
10
10
10
10
10
10
10
10
10
10
10
10
10
10
10
10
10
10
10
10
10
10
10
10
10
10
10
10
10
10
10
10
10
10
10
10
10
10
10
10
10
10
10
10
10
10
10
10
10
10
10
10
10
10
10
10
10
10
10
10
10
10
10
10
10
10
10
10
10
10
10
10
10
10
10
10
10
10
10
10
10
10
10
10
10
10
10
10
10
10
10
10
10
10
10
10
10
10
10
10
10
10
10
10
10
10
10
10
10
10
10
10
10
10
10
10
10
10
10
10
10
10
10
10
10
10
10
10
10
10
10
10
10
10
10
10
10
10
10
10
10
10
10
10
10
10
10
10
10
10
10
10
10
10
10
10
10
10
10
10
10
10
10
10
10
10
10
10
10
10
10
10
10
10
10
10
10
10
10
10
10
10
10
10
10
10
10
10
10
10
10
10
10
10
10
10
10
10
10
10
10
10
10
10
10
10
10
10
10
10
10
10
10
10
10
10
10
10
10
10
10
10
10
10
10
10
10
10
10
10
10
10
10
10
10
10
10
10
10
10
10
10
10
10
10
10
10
10
10
10
10
10
10
10
10
10
10
10
10
10
10
10
10
10
10
10
10
10
10
10
10
10
10
10
10
10
10
10
10
10
10
10
10
10
10
10
10
10
10
10
10
10
10
10
10
10
10
10
10
10
10
10
10
10
10
10
10
10
10
10
10
10
10
10
10
10
10
10
10
10
10
10
10
10
10
10
10
10
10
10
10
10
10
10
10
10
10
10
10
10
10
10
10
10
10
10
10
10
10
10
10
10
10
10
10
10
10
10
10
10
10
10
10
10
10
10
10
10
10
10
10
10
10
10
10
10
10
10
10
10
10
10
10
10
10
10
10
10
10
10
10
10
10
10
10
10
10
10
10
10
10
10
10
10
10
10
10
10
10
10
10
10
10
10
10
10
10
10
10
10
10
10
10
10
10
10
10
10
10
10
10
10
10
10
10
10
10
10
10
10
10
10
10
10
10
10
10
10
10
10
10
10
10
10
10
10
10
10
10
10
10
10
10
10
10
10
10
10
10
10
10
10
10
10
10
10
10
10
10
10
10
10
10
10
10
10
10
10
10
10
10
10
10
10
10
10
10
10
10
10
10
10
10
10
10
10
10
10
10
10
10
10
10
10
10
10
10
10
10
10
10
10
10
10
10
10
10
10
10
10
10
10
10
10
10
10
10
10
10
10
10
10
10
10
10
10
10
10
10
10
10
10
10
10
10
10
10
10
10
10
10
10
10
10
10
10
10
10
10
10
10
10
10
10
10
10
10
10
10
10
10
10
10
10
10
10
10
10
10
10
10
10
10
10
10
10
10
10
10
10
10
10
10
10
10
10
10
10
10
10
10
10
10
10
10
10
10
10
10
10
10
10
10
10
10
10
