# vtk DataFile Version 2.0
, Created by Gmsh 4.11.1 
ASCII
DATASET UNSTRUCTURED_GRID
POINTS 556 double
8.75 0 -44.28168521080261
16.51718738572515 0 -41.83089559985147
16.51718738572515 0 -38.16910440014853
8.75 0 -35.71831478919738
8.75 0 -3
11.75 0 -3
11.75 0 0
-11.75 0 0
-11.75 0 -3
-8.75 0 -3
-8.75 1.071565949253934e-15 -35.71831478919738
-16.51718738572515 2.022772066284535e-15 -38.16910440014853
-16.51718738572515 2.022772066284535e-15 -41.83089559985147
-8.75 1.071565949253934e-15 -44.28168521080261
-8.75 1.071565949253934e-15 -75.71831478919738
-16.51718738572515 2.022772066284535e-15 -78.16910440014853
-16.51718738572515 2.022772066284535e-15 -81.83089559985147
-8.75 1.071565949253934e-15 -84.28168521080262
-8.75 0 -120
8.75 0 -120
8.75 0 -84.28168521080262
16.51718738572515 0 -81.83089559985147
16.51718738572515 0 -78.16910440014853
8.75 0 -75.71831478919738
8.750000000000002 14.00910343794913 -41.83089559985147
8.750000000000002 14.00910343794913 -38.16910440014853
8.75 14.00910343794913 -38.5360662527354
3.887670368727221 16.05314605425611 -38.16910440014853
-3.887670368727222 16.05314605425611 -38.16910440014853
-8.75 14.00910343794913 -38.5360662527354
-8.750000000000002 14.00910343794913 -38.16910440014853
-8.750000000000002 14.00910343794913 -41.83089559985147
-8.75 14.00910343794913 -41.4639337472646
-3.887670368727251 16.0531460542561 -41.83089559985147
3.88767036872725 16.0531460542561 -41.83089559985147
8.75 14.00910343794913 -41.4639337472646
8.75 20 -3
8.75 20 -37.46053559426093
11.75 23 -3
-11.75 23 -3
-8.75 20 -3
11.75 23 0
-11.75 23 0
-8.75 20 -37.46053559426093
-8.75 20 -42.53946440573907
-8.75 20 -77.46053559426093
-8.75 14.00910343794913 -78.5360662527354
-8.750000000000002 14.00910343794913 -78.16910440014853
8.750000000000002 14.00910343794913 -78.16910440014853
8.75 14.00910343794913 -78.5360662527354
3.88767036872731 16.05314605425609 -78.16910440014853
-3.887670368727308 16.05314605425609 -78.16910440014853
-8.750000000000002 14.00910343794913 -81.83089559985147
-8.75 14.00910343794913 -81.4639337472646
-3.887670368727162 16.05314605425612 -81.83089559985147
3.887670368727164 16.05314605425612 -81.83089559985147
8.75 14.00910343794913 -81.4639337472646
8.750000000000002 14.00910343794913 -81.83089559985147
-8.75 20 -82.53946440573907
-8.75 20 -117.4605355942609
-8.75 5.854732770359247 -120
8.75 5.854732770359247 -120
8.75 20 -82.53946440573907
8.75 20 -117.4605355942609
8.75 20 -42.53946440573907
8.75 20 -77.46053559426093
3.131829601721365 4.871029054886996 -84.28168521080261
-3.131829601721364 4.871029054886996 -84.28168521080261
12.65292788039608 4.871029054886996 -81.83089559985147
-12.65292788039608 4.871029054886997 -81.83089559985147
12.65292788039608 4.871029054886996 -78.16910440014853
3.131829601721365 4.871029054886996 -75.71831478919739
-3.131829601721364 4.871029054886996 -75.71831478919739
-12.65292788039608 4.871029054886997 -78.16910440014853
3.131829601721365 4.871029054886996 -44.28168521080261
-3.131829601721364 4.871029054886996 -44.28168521080261
12.65292788039608 4.871029054886996 -41.83089559985147
-12.65292788039608 4.871029054886997 -41.83089559985147
12.65292788039608 4.871029054886996 -38.16910440014853
3.131829601721365 4.871029054886996 -35.71831478919739
-3.131829601721364 4.871029054886996 -35.71831478919739
-12.65292788039608 4.871029054886997 -38.16910440014853
12.63359369286258 0 -43.05629040532704
12.63359369286258 0 -36.94370959467295
8.75 0 -29.1746518313579
8.75 0 -22.63098887351839
8.75 0 -16.08732591567893
8.75 0 -9.543662957839466
5.875000000000016 0 0
3.730349362740526e-14 0 0
-5.874999999999972 0 0
-8.75 0 -9.543662957839484
-8.75 0 -16.08732591567898
-8.75 0 -22.63098887351845
-8.75 0 -29.17465183135791
-12.63359369286258 1.547169007769235e-15 -36.94370959467295
-12.63359369286258 1.547169007769235e-15 -43.05629040532704
-8.75 0 -50.56901112648157
-8.75 0 -56.85633704216052
-8.75 0 -63.14366295783947
-8.75 0 -69.43098887351843
-12.63359369286258 1.547169007769235e-15 -76.94370959467295
-12.63359369286258 1.547169007769235e-15 -83.05629040532705
-8.75 0 -90.23473767566885
-8.75 0 -96.18779014053507
-8.75 0 -102.1408426054013
-8.75 0 -108.0938950702676
-8.75 0 -114.0469475351338
2.916666666666666 0 -120
-2.916666666666668 0 -120
8.75 0 -90.23473767566885
8.75 0 -96.18779014053507
8.75 0 -102.1408426054013
8.75 0 -108.0938950702676
8.75 0 -114.0469475351338
12.63359369286258 0 -83.05629040532705
12.63359369286258 0 -76.94370959467295
8.75 0 -50.56901112648157
8.75 0 -56.85633704216052
8.75 0 -63.14366295783947
8.75 0 -69.43098887351843
15.58539730074297 5.469265957434492 -41.83089559985147
12.89515787009421 10.32145254508809 -41.83089559985147
8.75 9.398915061048845 -42.99071427950094
8.75 4.734494011901345 -43.9034373699927
15.58539730074297 5.469265957434492 -38.16910440014853
12.89515787009421 10.32145254508809 -38.16910440014853
-2.656166314393785e-15 16.51718738572515 -38.16910440014853
-12.89515787009421 10.32145254508809 -38.16910440014853
-15.58539730074297 5.469265957434491 -38.16910440014853
-12.89515787009421 10.32145254508809 -41.83089559985147
-15.58539730074297 5.469265957434491 -41.83089559985147
-2.656166314393785e-15 16.51718738572515 -41.83089559985147
8.75 4.734494011901353 -36.0965626300073
8.75 9.398915061048852 -37.00928572049906
8.75 13.33333333333335 -3
8.75 6.666666666666705 -3
8.75 20 -30.56842847540875
8.75 20 -23.67632135655657
8.75 20 -16.78421423770438
8.75 20 -9.892107118852206
-5.875000000000016 23 -3
-3.730349362740526e-14 23 -3
5.874999999999972 23 -3
11.75 5.749999999999988 -3
11.75 11.49999999999999 -3
11.75 17.24999999999999 -3
-2.916666666666666 20 -3
2.916666666666668 20 -3
-8.75 13.33333333333335 -3
-8.75 6.666666666666705 -3
-11.75 5.749999999999988 -3
-11.75 11.49999999999999 -3
-11.75 17.24999999999999 -3
11.75 5.749999999999988 0
11.75 11.49999999999999 0
11.75 17.24999999999999 0
-5.875000000000016 23 0
-3.730349362740526e-14 23 0
5.874999999999972 23 0
-11.75 5.749999999999988 0
-11.75 11.49999999999999 0
-11.75 17.24999999999999 0
-8.75 20 -9.892107118852183
-8.75 20 -16.78421423770436
-8.75 20 -23.67632135655655
-8.75 20 -30.56842847540873
-8.75 4.734494011901353 -36.0965626300073
-8.75 9.398915061048854 -37.00928572049906
-8.75 9.398915061048847 -42.99071427950094
-8.75 4.734494011901345 -43.9034373699927
-8.75 20 -70.47632135655657
-8.75 20 -63.49210711885221
-8.75 20 -56.50789288114782
-8.75 20 -49.52367864344343
-8.75 4.734494011901353 -76.0965626300073
-8.75 9.398915061048854 -77.00928572049905
-12.89515787009421 10.32145254508809 -78.16910440014853
-15.58539730074297 5.469265957434491 -78.16910440014853
15.58539730074297 5.469265957434492 -78.16910440014853
12.89515787009421 10.32145254508809 -78.16910440014853
1.011386033142267e-15 16.51718738572515 -78.16910440014853
-12.89515787009421 10.32145254508809 -81.83089559985147
-15.58539730074297 5.469265957434491 -81.83089559985147
1.011386033142267e-15 16.51718738572515 -81.83089559985147
15.58539730074297 5.469265957434492 -81.83089559985147
12.89515787009421 10.32145254508809 -81.83089559985147
-8.75 9.398915061048847 -82.99071427950093
-8.75 4.734494011901345 -83.9034373699927
-8.75 20 -110.4763213565566
-8.75 20 -103.4921071188522
-8.75 20 -96.50789288114782
-8.75 20 -89.52367864344343
-8.75 10.56982184690617 -119.1535118647536
-8.75 15.28491092345309 -118.3070237295073
2.916666666666666 5.854732770359247 -120
-2.916666666666668 5.854732770359247 -120
8.75 9.398915061048845 -82.99071427950095
8.75 4.734494011901345 -83.9034373699927
8.75 20 -110.4763213565566
8.75 20 -103.4921071188522
8.75 20 -96.50789288114782
8.75 20 -89.52367864344343
8.75 10.56982184690617 -119.1535118647536
8.75 15.28491092345309 -118.3070237295073
8.75 4.734494011901353 -76.0965626300073
8.75 9.398915061048852 -77.00928572049905
8.75 20 -70.47632135655657
8.75 20 -63.49210711885221
8.75 20 -56.50789288114782
8.75 20 -49.52367864344343
2.916666666666666 20 -37.46053559426093
-2.916666666666668 20 -37.46053559426093
-3.819905605186567e-15 16.3489079747537 -38.11600700315465
3.819905605186567e-15 16.34890797475371 -41.88399299684536
2.916666666666666 20 -42.53946440573907
-2.916666666666668 20 -42.53946440573907
2.916666666666666 20 -77.46053559426093
-2.916666666666668 20 -77.46053559426093
-3.819905605186563e-15 16.34890797475368 -78.11600700315465
3.81990560518657e-15 16.34890797475373 -81.88399299684536
2.916666666666666 20 -82.53946440573907
-2.916666666666668 20 -82.53946440573907
2.916666666666666 20 -117.4605355942609
-2.916666666666668 20 -117.4605355942609
6.783857528827376e-15 5.790965438316094 -84.28168521080262
0 4.871029054886996 -84.28168521080262
7.921991261736838 4.871029054886996 -83.17456251432492
8.960272853011068 10.17531416712283 -81.83089559985147
3.231529889354195 13.16741138471295 -81.83089559985147
-3.231529889354234 13.16741138471294 -81.83089559985147
-8.960272853011098 10.1753141671228 -81.83089559985147
-7.921991261736833 4.871029054886996 -83.17456251432492
7.921991261736836 4.871029054886996 -76.82543748567508
1.77635683940025e-15 4.871029054886996 -75.71831478919738
-7.921991261736838 4.871029054886996 -76.82543748567508
8.960272853011068 10.17531416712283 -78.16910440014853
3.231529889354195 13.16741138471295 -78.16910440014853
-3.231529889354234 13.16741138471294 -78.16910440014853
-8.960272853011098 10.1753141671228 -78.16910440014853
6.783857528827376e-15 5.790965438316094 -75.71831478919739
6.783857528827376e-15 5.790965438316094 -44.28168521080261
0 4.871029054886996 -44.28168521080261
7.921991261736838 4.871029054886996 -43.17456251432491
8.960272853011068 10.17531416712283 -41.83089559985147
3.231529889354195 13.16741138471295 -41.83089559985147
-3.231529889354234 13.16741138471294 -41.83089559985147
-8.960272853011098 10.1753141671228 -41.83089559985147
-7.921991261736833 4.871029054886996 -43.17456251432491
7.921991261736836 4.871029054886996 -36.82543748567508
1.77635683940025e-15 4.871029054886996 -35.71831478919739
-7.921991261736838 4.871029054886996 -36.82543748567509
8.960272853011068 10.17531416712283 -38.16910440014853
3.231529889354195 13.16741138471295 -38.16910440014853
-3.231529889354234 13.16741138471294 -38.16910440014853
-8.960272853011098 10.1753141671228 -38.16910440014853
6.783857528827376e-15 5.790965438316094 -35.71831478919738
-4.262043626411007 0 -87.29648087095374
4.264136296950135 0 -47.42534816864209
4.264136296950135 0 -72.5746518313579
-3.6652867669911 0 -31.26917679222313
0 0 -115.5960081857603
-3.594505335364273 0 -99.16431637296819
-2.56164945338074 0 -38.13878550663716
3.378656323200666 0 -78.92793872424059
2.97256050020904 0 -60
-2.821456497211262 0 -4.118692473803449
2.770062649080443 0 -19.42794098479131
2.445929551393437 0 -105.1173688378344
3.72823798583281 0 -92.91708242021232
-3.305016035149771 0 -53.71267408432104
-3.305016035149768 0 -66.28732591567895
-3.083021644707792 0 -12.81549443675924
2.925736733948167 0 -31.96951602404918
-4.020940519088747 0 -80.91881701034015
3.715020621654172 0 -41.99555803296613
3.710034812085578 0 -5.680474488128695
0.9570155415404509 0 -84.38878779199661
-2.02657009860644 0 -74.76533108892019
-0.9118114331607874 0 -44.49110402138279
-0.2092179001686034 0 -25.63857198342311
9.522961856148804 0 -39.743910091004
-9.163581471968152 0 -40.03447453963869
-9.630573815223952 0 -80.30569701206882
9.279556802048653 0 -80.15821825956144
3.431836860054859 0 -53.38498478978487
-3.545144699994712 0 -60
3.431836860054855 0 -66.61501521021513
-3.832606180677805 0 -20.41719042443488
3.469451333528761 0 -12.03076179291358
-4.265656481274545 0 -105.1173688378344
-2.576257948654025 0 -93.53091620911803
3.110740125962166 0 -98.45865189061823
-3.169388270413217 0 -110.7915094562932
3.779249549444693 0 -111.320489714577
-13.58642719447988 0 -80.06113940241377
13.51622379184482 0 -80.03164365191229
13.56490480266485 0 -39.9487820182008
-13.49302872582872 0 -40.00689490792774
4.233633169738123 0 -37.19855741270393
4.848487353962954 0 -87.28253324591138
-4.588351556796633 0 -71.26858253734787
-4.473145294606695 0 -47.50267644906621
4.875546847033153 0 -25.86781243568206
-5.041422169567502 0 -25.8261159809915
-0.7614800888137108 0 -8.310942659870332
-4.500662074568005 0 -115.7176032545802
4.588781912305991 0 -115.8412719948223
-5.126276135903099 0 -42.66482832417069
-0.1332423163440657 0 -49.71439718977584
-0.1101716502269561 0 -70.14095201942445
-4.833191646146553 0 -7.557758505654505
0.2750448271705412 0 -89.41060312945788
5.318157457206453 0 -82.77119163112741
12.58602227153991 2.879459347125195 -42.96869504422432
11.71225505987435 6.506178524295187 -42.81508611331759
-6.296015558416022 15.27015609688852 -39.98639768822514
6.296015558416117 15.27015609688848 -40.01360231177597
-1.95763347266485 16.40076676018107 -39.9980348034717
1.957740359849419 16.40075400152611 -40.00000000000001
12.58602227153991 2.879459347125216 -37.03130495577568
11.71225505987424 6.506178524295404 -37.18491388668241
8.75 8.155438184201456 -32.19545334132512
8.75 5.119551382486511 -19.49381010007656
8.75 9.852793247065907 -9.146154327386739
8.75 12.93908164156517 -27.26354368545165
8.75 14.08375638746077 -33.77772520284901
8.75 14.03126014947044 -20.23026779713048
8.75 5.588640467638425 -26.69732178550912
8.75 14.75832603023713 -13.30103500408772
8.75 4.875170984298631 -12.97651189848747
8.75 3.695714532748246 -31.97646087547936
8.75 15.15987631707013 -7.903556877944343
8.75 4.772654808423038 -7.738208424434987
8.75 9.816627410569104 -16.47068341395426
8.75 9.984371686069537 -23.07676013201861
10.25 3.104166666666673 -3
-10.25 3.104166666666673 -3
11.75 20.125 -1.5
11.75 14.37499999999999 -1.5
11.75 8.624999999999989 -1.5
11.75 2.874999999999994 -1.5
3.157610638484559 18.22886740495932 0
-2.707174061168084 4.878797530676509 0
7.069955745470663 8.71654637064 0
-6.619519168154188 14.39111856499582 0
7.102873022115113 14.37499999999999 0
0.1126091443291184 11.52691623390895 0
-7.000954855602265 8.644857627020135 0
-2.792058517349995 18.15992185565015 0
2.948495529093417 4.721447277005962 0
-7.528051718759411 18.81262893003678 0
7.528051718759418 4.187371069963205 0
7.820492259183634 19.07601590637069 0
-7.553981076842909 4.160878030182232 0
-11.75 20.125 -1.5
-11.75 14.37499999999999 -1.5
-11.75 8.624999999999988 -1.5
-11.75 2.874999999999994 -1.5
-8.75 8.155438184201454 -32.19545334132513
-8.75 5.11955138248651 -19.4938101000766
-8.75 9.852793247065913 -9.146154327386752
-8.75 12.93908164156516 -27.26354368545165
-8.75 14.08375638746077 -33.777725202849
-8.75 14.03126014947044 -20.23026779713046
-8.75 5.58864046763842 -26.69732178550913
-8.75 14.75832603023714 -13.30103500408772
-8.75 4.875170984298636 -12.9765118984875
-8.75 3.695714532748244 -31.97646087547937
-8.75 15.15987631707012 -7.903556877944341
-8.75 4.772654808423051 -7.738208424435008
-8.75 9.816627410569103 -16.47068341395426
-8.75 9.984371686069522 -23.0767601320186
-12.58602227153991 2.879459347125196 -37.03130495577567
-11.71225505987432 6.506178524295268 -37.18491388668241
-12.47436204976914 3.146263715399608 -42.98326887808965
-11.40497672821589 6.702538509982547 -42.86852759605507
-8.75 8.007842823272615 -72.31306414143319
-8.75 7.683357876723743 -47.95725814852279
-8.75 6.54488405736379 -59.48720127557316
-8.75 13.92286039887605 -59.46125165702727
-8.75 12.57215281777374 -47.32142838370422
-8.75 14.13229722108192 -73.7906128075347
-8.75 13.37792200422094 -67.31536563230993
-8.75 10.84352828226186 -53.27642023697346
-8.75 5.774526699624143 -66.80344436252605
-8.75 4.617546663637938 -52.59526266639227
-8.75 16.66185204740651 -45.08268280869271
-8.75 3.407079710452605 -47.86133090443839
-8.75 3.703372706959622 -72.07247495933647
-8.75 9.905048290021231 -63.2668157318591
-8.75 15.86520867024456 -52.19181433815458
-12.58602227153991 2.879459347125202 -77.03130495577568
-11.71225505987429 6.50617852429531 -77.18491388668241
6.296015558416075 15.2701560968885 -80.01360231177598
-6.296015558416067 15.2701560968885 -79.98639768822508
1.95763347266483 16.40076676018107 -79.99803480347167
-1.957526585397138 16.40077951813942 -79.99999999999999
-12.47436204976914 3.146263715399607 -82.98326887808966
-11.40497672821586 6.702538509982583 -82.86852759605509
-8.75 5.549028893153129 -92.80823369876296
-8.75 5.07852913236191 -105.6811746006369
-8.75 12.19428615605417 -114.6468808757343
-8.75 12.26039327006473 -86.01938296410108
-8.75 13.95149304467505 -100
-8.75 13.26371230580848 -91.761578065922
-8.75 14.74935813327946 -108.0287585827193
-8.75 4.258122342929711 -111.7440541863695
-8.75 5.092809903559298 -99.49215242177436
-8.75 7.856871301008228 -87.48517952478508
-8.75 7.644661826993069 -115.4488976380093
-8.75 16.93954226732697 -113.9684284754087
-8.75 16.65915454609651 -85.10549044867784
-8.75 3.628078841212541 -87.74265469600245
-8.75 9.832757391470219 -96.64276636645772
-8.75 2.927366385179624 -117.0234737675669
-8.75 9.794764844312571 -103.3283861842033
-8.75 9.497134119777273 -109.9660570780093
5.833333333333333 2.927366385179623 -120
0 2.927366385179623 -120
-5.833333333333334 2.927366385179623 -120
8.75 5.54902889315313 -92.80823369876296
8.75 5.07852913236191 -105.6811746006369
8.75 12.19428615605417 -114.6468808757343
8.75 12.26039327006473 -86.01938296410108
8.75 13.95149304467505 -100
8.75 13.26371230580848 -91.761578065922
8.75 14.74935813327946 -108.0287585827193
8.75 4.258122342929711 -111.7440541863695
8.75 5.092809903559299 -99.49215242177436
8.75 7.856871301008228 -87.48517952478507
8.75 7.644661826993069 -115.4488976380093
8.75 16.93954226732697 -113.9684284754087
8.75 16.65915454609652 -85.10549044867784
8.75 3.628078841212541 -87.74265469600245
8.75 9.832757391470221 -96.64276636645772
8.75 2.927366385179624 -117.0234737675669
8.75 9.794764844312571 -103.3283861842033
8.75 9.497134119777273 -109.9660570780093
12.58602227153992 2.879459347125201 -82.96869504422433
11.71225505987434 6.506178524295246 -82.81508611331759
12.58602227153991 2.879459347125217 -77.03130495577568
11.71225505987427 6.506178524295357 -77.18491388668241
8.75 7.68335797116305 -47.95725821915293
8.75 8.007842823272615 -72.31306414143319
8.75 6.544884040042497 -59.48720130239725
8.75 13.9228603800871 -59.46125168768337
8.75 14.13229722108192 -73.7906128075347
8.75 12.5721527744853 -47.32142823706151
8.75 13.37792200422094 -67.31536563230993
8.75 10.84352824057785 -53.27642032736591
8.75 5.774526697149674 -66.80344436635806
8.75 4.617546669543607 -52.59526269770004
8.75 16.66185180743793 -45.08268227043762
8.75 3.703372706464727 -72.07247496010288
8.75 3.407079730521601 -47.86133092482597
8.75 9.905048280375052 -63.26681574718716
8.75 15.86520861719643 -52.19181427102966
-0.04893590073317178 20 -32.77191155335034
-0.04893590073317355 20 -7.688624040910593
2.781260149470438 20 -20.23026779713048
3.790539411473709 20 -12.41899695272654
3.790539411473709 20 -28.04153864153441
-3.32242111322835 20 -26.98782063192548
-3.322421113228351 20 -13.47271496233545
-4.27271641539725 20 -20.23026779713047
4.83165403548144 20 -7.199945622497868
-4.757604736125638 20 -33.04984636984128
-4.757604736125638 20 -7.410689224419642
4.83165403548144 20 -33.26058997176307
8.812499999999986 23 -1.5
2.937499999999966 23 -1.5
-8.812500000000007 23 -1.5
-2.937500000000027 23 -1.5
0.077032276179688 20 -47.26753081368899
0.07703227617968089 20 -72.73246918631102
-3.031413571042089 20 -60.00000000000002
-2.759738390393121 20 -53.19235137502389
-2.759738390393126 20 -66.80764862497614
4.034555968903211 20 -67.91282912701746
4.034555968903212 20 -52.08717087298257
3.556708594299375 20 -60.00000000000002
-4.619874556176022 20 -47.01249792872689
4.905650982349914 20 -46.79146182831863
-4.619874556176022 20 -72.98750207127311
4.905650982349911 20 -73.20853817168138
-0.07703227617967912 20 -112.732469186311
-0.07703227617968444 20 -87.26753081368899
3.968915738766678 20 -100
2.893667271496638 20 -93.19235137502389
2.893667271496642 20 -106.8076486249761
-4.01223448871929 20 -107.9128291270175
-4.01223448871929 20 -92.08717087298257
-2.891348429254403 20 -100
-4.901186686313128 20 -113.2085381716814
-4.901186686313128 20 -86.79146182831863
4.646660332396724 20 -87.01249792872689
4.646660332396726 20 -112.9875020712731
4.861111111111111 12.92736638517963 -118.7302677971305
-4.861111111111109 12.92736638517963 -118.7302677971305
0 9.940717040207721 -119.2664534754107
0 15.86862296200287 -118.2022313688517
5.055555555555555 16.81618005412712 -118.0321188168023
5.055555555555555 9.029474162602403 -119.430046627459
-5.055555555555555 16.81618005412712 -118.0321188168023
-5.055555555555555 9.029474162602403 -119.430046627459
2.409438987157489 8.62867046014769 -83.28214787109056
-2.674661796712713 8.604299500612196 -83.26584494341688
1.591464335410389 4.871029054886996 -79.00718355056723
-5.5416997069379 4.871029054886996 -80.22338544184942
-9.57664171385032 4.871029054886996 -80
4.601492343260858 4.871029054886996 -80.47544211660014
-1.235425682015652 4.871029054886996 -80.11374727332712
1.579439717253514 4.871029054886996 -81.58291690617794
6.276796552945137 12.01770914246945 -80.03136848308991
-6.276796552945167 12.01770914246943 -80.03136848308993
0.009330500370783857 13.55814961349153 -80
11.13261333284312 7.738761424250094 -80
-11.12728500684734 7.74642087524606 -79.96863151691009
2.409438987158053 8.628670460147498 -76.71785212890944
-2.674661796705537 8.604299500617403 -76.73415505658403
2.409438987157479 8.628670460147692 -43.28214787109055
-2.674661796712717 8.604299500612196 -43.26584494341687
1.591464335410389 4.871029054886996 -39.00718355056724
-5.541699706937901 4.871029054886996 -40.22338544184942
-9.57664171385032 4.871029054886996 -40
4.601492343260858 4.871029054886996 -40.47544211660014
-1.235425682015654 4.871029054886996 -40.11374727332712
1.579439717253514 4.871029054886996 -41.58291690617795
6.276796552945137 12.01770914246945 -40.03136848308991
-6.276796552945167 12.01770914246943 -40.03136848308991
-1.723289070104898e-14 13.55815282404125 -40.03136848308992
11.13261333284312 7.738761424250094 -40
-11.12728500684734 7.74642087524606 -39.96863151691009
2.409438987158047 8.628670460147497 -36.71785212890943
-2.674661796705536 8.604299500617401 -36.73415505658403
-3.464741382686043e-09 9.48786073863581 -66.95995813264584
-1.77635683940025e-15 9.116923121332542 -93.13241795717228
-3.939412562119447e-09 8.474554016906495 -52.94665138708913
0.1362476990901842 9.261098008817394 -27.01630136843361
0.1474135416768024 11.43660004257607 -110.556932324052
-1.77635683940025e-15 10.95854768489061 -12.81396796708181
-1.77635683940025e-15 9.000231454253182 -102.0152395988265
1.565914800860712 5.330997246601621 -70.3688229717655
-0.1650116803889508 13.18267509461916 -47.96407697592426
-2.642068475680957 13.83290317234743 -88.57947716463502
-1.05488834859285 12.92261152444835 -20.2620899826655
-1.870408635951824 7.082425561153763 -6.912939607252984
-1.027057984408651 12.38682886760336 -59.7070431736848
1.565914800860706 5.330997246601533 -89.50481965564011
-0.3732455072453131 13.39663736438286 -32.1829433420496
-2.641823051343868 6.163025934956135 -113.4030247182248
-0.4234060135748718 13.44807530576249 -72.21221896980074
-0.181109008718882 5.253337004742667 -30.61912613739484
2.231617971867254 13.9864015229984 -5.848898676401747
1.565914800860682 5.330997246601533 -49.17218423613116

CELLS 3088 13538
1 0
1 1
1 2
1 3
1 4
1 5
1 6
1 7
1 8
1 9
1 10
1 11
1 12
1 13
1 14
1 15
1 16
1 17
1 18
1 19
1 20
1 21
1 22
1 23
1 24
1 25
1 26
1 27
1 28
1 29
1 30
1 31
1 32
1 33
1 34
1 35
1 36
1 37
1 38
1 39
1 40
1 41
1 42
1 43
1 44
1 45
1 46
1 47
1 48
1 49
1 50
1 51
1 52
1 53
1 54
1 55
1 56
1 57
1 58
1 59
1 60
1 61
1 62
1 63
1 64
1 65
1 66
1 67
1 68
1 69
1 70
1 71
1 72
1 73
1 74
1 75
1 76
1 77
1 78
1 79
1 80
1 81
2 0 82
2 82 1
2 1 2
2 2 83
2 83 3
2 3 84
2 84 85
2 85 86
2 86 87
2 87 4
2 4 5
2 5 6
2 6 88
2 88 89
2 89 90
2 90 7
2 8 7
2 8 9
2 9 91
2 91 92
2 92 93
2 93 94
2 94 10
2 11 95
2 95 10
2 12 11
2 13 96
2 96 12
2 13 97
2 97 98
2 98 99
2 99 100
2 100 14
2 15 101
2 101 14
2 16 15
2 17 102
2 102 16
2 17 103
2 103 104
2 104 105
2 105 106
2 106 107
2 107 18
2 19 108
2 108 109
2 109 18
2 20 110
2 110 111
2 111 112
2 112 113
2 113 114
2 114 19
2 20 115
2 115 21
2 21 22
2 22 116
2 116 23
2 0 117
2 117 118
2 118 119
2 119 120
2 120 23
2 1 121
2 121 122
2 122 24
2 24 123
2 123 124
2 124 0
2 2 125
2 125 126
2 126 25
2 26 25
2 27 26
2 27 127
2 127 28
2 29 28
2 29 30
2 30 128
2 128 129
2 129 11
2 31 130
2 130 131
2 131 12
2 31 32
2 33 32
2 34 132
2 132 33
2 35 34
2 24 35
2 3 133
2 133 134
2 134 25
2 36 135
2 135 136
2 136 4
2 37 137
2 137 138
2 138 139
2 139 140
2 140 36
2 26 37
2 39 141
2 141 142
2 142 143
2 143 38
2 5 144
2 144 145
2 145 146
2 146 38
2 40 147
2 147 148
2 148 36
2 40 149
2 149 150
2 150 9
2 8 151
2 151 152
2 152 153
2 153 39
2 6 154
2 154 155
2 155 156
2 156 41
2 38 41
2 42 157
2 157 158
2 158 159
2 159 41
2 7 160
2 160 161
2 161 162
2 162 42
2 39 42
2 40 163
2 163 164
2 164 165
2 165 166
2 166 43
2 29 43
2 10 167
2 167 168
2 168 30
2 31 169
2 169 170
2 170 13
2 44 32
2 45 171
2 171 172
2 172 173
2 173 174
2 174 44
2 46 45
2 46 47
2 14 175
2 175 176
2 176 47
2 47 177
2 177 178
2 178 15
2 22 179
2 179 180
2 180 48
2 49 48
2 50 49
2 50 181
2 181 51
2 46 51
2 52 182
2 182 183
2 183 16
2 52 53
2 54 53
2 55 184
2 184 54
2 56 55
2 57 56
2 21 185
2 185 186
2 186 57
2 52 187
2 187 188
2 188 17
2 58 53
2 59 189
2 189 190
2 190 191
2 191 192
2 192 58
2 60 193
2 193 194
2 194 59
2 18 60
2 61 195
2 195 196
2 196 60
2 19 61
2 57 197
2 197 198
2 198 20
2 62 56
2 63 199
2 199 200
2 200 201
2 201 202
2 202 62
2 61 203
2 203 204
2 204 63
2 23 205
2 205 206
2 206 48
2 64 35
2 65 207
2 207 208
2 208 209
2 209 210
2 210 64
2 49 65
2 37 211
2 211 212
2 212 43
2 28 213
2 213 27
2 34 214
2 214 33
2 64 215
2 215 216
2 216 44
2 65 217
2 217 218
2 218 45
2 51 219
2 219 50
2 55 220
2 220 54
2 62 221
2 221 222
2 222 58
2 63 223
2 223 224
2 224 59
2 66 225
2 225 67
2 67 226
2 226 66
2 66 227
2 227 68
2 68 228
2 228 229
2 229 230
2 230 231
2 231 69
2 69 232
2 232 67
2 68 70
2 70 233
2 233 71
2 71 234
2 234 72
2 72 235
2 235 73
2 69 73
2 70 236
2 236 237
2 237 238
2 238 239
2 239 73
2 71 240
2 240 72
2 74 241
2 241 75
2 75 242
2 242 74
2 74 243
2 243 76
2 76 244
2 244 245
2 245 246
2 246 247
2 247 77
2 77 248
2 248 75
2 76 78
2 78 249
2 249 79
2 79 250
2 250 80
2 80 251
2 251 81
2 77 81
2 78 252
2 252 253
2 253 254
2 254 255
2 255 81
2 79 256
2 256 80
3 82 281 0
3 0 258 117
3 0 275 258
3 0 281 275
3 2 297 1
3 1 297 82
3 83 297 2
3 3 281 83
3 84 273 3
3 273 299 3
3 3 299 281
3 5 6 4
3 4 6 88
3 4 276 87
3 88 276 4
3 9 7 8
3 9 90 7
3 9 266 90
3 91 311 9
3 9 311 266
3 10 260 94
3 95 282 10
3 10 263 260
3 10 282 263
3 12 298 11
3 11 298 95
3 96 298 12
3 13 282 96
3 97 302 13
3 13 308 282
3 302 308 13
3 14 301 100
3 101 283 14
3 274 278 14
3 14 283 274
3 278 301 14
3 16 295 15
3 15 295 101
3 102 295 16
3 17 283 102
3 103 257 17
3 257 274 17
3 274 283 17
3 18 306 107
3 109 306 18
3 19 307 108
3 114 307 19
3 20 300 110
3 115 284 20
3 284 313 20
3 20 313 300
3 22 296 21
3 21 296 115
3 116 296 22
3 23 284 116
3 120 259 23
3 259 264 23
3 264 284 23
3 82 297 281
3 281 297 83
3 85 303 84
3 84 303 273
3 86 267 85
3 267 303 85
3 87 289 86
3 86 289 267
3 276 289 87
3 89 276 88
3 90 266 89
3 266 276 89
3 92 272 91
3 272 311 91
3 93 288 92
3 92 288 272
3 94 304 93
3 93 304 288
3 260 304 94
3 95 298 282
3 282 298 96
3 98 270 97
3 270 302 97
3 99 286 98
3 98 286 270
3 100 271 99
3 271 286 99
3 100 301 271
3 101 295 283
3 283 295 102
3 104 291 103
3 103 291 257
3 105 262 104
3 262 291 104
3 106 290 105
3 105 290 262
3 107 293 106
3 106 293 290
3 107 306 293
3 108 261 109
3 108 307 261
3 261 306 109
3 110 269 111
3 110 300 269
3 111 292 112
3 269 292 111
3 112 268 113
3 112 292 268
3 113 294 114
3 268 294 113
3 294 307 114
3 115 296 284
3 284 296 116
3 117 285 118
3 258 285 117
3 118 265 119
3 118 285 265
3 119 287 120
3 265 287 119
3 120 287 259
3 257 277 274
3 257 312 277
3 291 312 257
3 275 279 258
3 279 309 258
3 258 309 285
3 259 278 264
3 259 310 278
3 287 310 259
3 263 273 260
3 273 280 260
3 280 304 260
3 261 294 293
3 293 306 261
3 261 307 294
3 262 290 268
3 268 292 262
3 262 292 291
3 263 299 273
3 263 279 275
3 275 299 263
3 263 308 279
3 282 308 263
3 274 277 264
3 264 278 274
3 277 313 264
3 264 313 284
3 265 285 270
3 270 286 265
3 265 286 271
3 271 287 265
3 266 305 276
3 266 311 305
3 272 288 267
3 267 289 272
3 267 288 280
3 280 303 267
3 290 293 268
3 293 294 268
3 291 292 269
3 269 312 291
3 300 312 269
3 285 309 270
3 270 309 302
3 271 310 287
3 301 310 271
3 289 305 272
3 305 311 272
3 273 303 280
3 281 299 275
3 276 305 289
3 277 312 300
3 300 313 277
3 278 310 301
3 279 308 302
3 302 309 279
3 288 304 280
3 0 314 82
3 124 314 0
3 82 314 1
3 1 314 121
3 122 123 24
3 121 315 122
3 314 315 121
3 122 315 123
3 123 315 124
3 124 315 314
3 1 26 2
3 121 26 1
3 2 26 125
3 32 12 11
3 129 32 11
3 32 131 12
3 122 24 35
3 126 26 25
3 26 317 27
3 122 35 26
3 35 317 26
3 122 26 121
3 125 26 126
3 27 317 34
3 34 319 27
3 27 319 127
3 28 316 29
3 33 316 28
3 28 318 33
3 127 318 28
3 29 128 30
3 128 29 32
3 29 316 32
3 31 130 32
3 32 316 33
3 128 32 129
3 32 130 131
3 33 318 132
3 34 317 35
3 132 319 34
3 132 318 127
3 127 319 132
3 2 320 83
3 125 320 2
3 83 320 3
3 3 320 133
3 126 25 134
3 126 321 125
3 125 321 320
3 134 321 126
3 133 321 134
3 320 321 133
3 3 331 84
3 133 331 3
3 87 333 4
3 4 333 136
3 26 37 25
3 37 326 25
3 25 326 134
3 135 332 36
3 36 332 140
3 137 326 37
3 84 328 85
3 84 331 328
3 85 323 86
3 85 328 323
3 86 330 87
3 323 330 86
3 330 333 87
3 134 322 133
3 322 331 133
3 134 326 322
3 136 324 135
3 324 332 135
3 136 333 324
3 138 325 137
3 325 326 137
3 139 327 138
3 138 327 325
3 140 329 139
3 139 329 327
3 140 332 329
3 322 326 325
3 325 328 322
3 328 331 322
3 328 335 323
3 323 334 330
3 323 335 334
3 329 332 324
3 324 334 329
3 324 333 330
3 330 334 324
3 327 335 325
3 325 335 328
3 329 334 327
3 334 335 327
3 5 4 336
3 4 136 336
3 144 5 336
3 9 8 337
3 8 151 337
3 150 9 337
3 36 143 38
3 146 36 38
3 146 135 36
3 148 143 36
3 39 141 40
3 153 39 40
3 141 147 40
3 153 40 149
3 145 136 135
3 146 145 135
3 145 144 136
3 136 144 336
3 142 147 141
3 148 142 143
3 148 147 142
3 152 149 150
3 152 153 149
3 151 152 150
3 151 150 337
3 5 341 6
3 144 341 5
3 6 341 154
3 41 338 38
3 38 338 146
3 156 338 41
3 145 340 144
3 144 340 154
3 154 341 144
3 146 339 145
3 145 339 155
3 155 340 145
3 146 338 156
3 156 339 146
3 154 340 155
3 155 339 156
3 6 352 88
3 154 352 6
3 90 354 7
3 7 354 160
3 41 353 156
3 159 353 41
3 42 351 157
3 162 351 42
3 88 350 89
3 88 352 350
3 89 343 90
3 89 350 343
3 343 354 90
3 155 344 154
3 344 352 154
3 156 346 155
3 155 346 344
3 156 353 346
3 157 349 158
3 157 351 349
3 158 342 159
3 158 349 342
3 342 353 159
3 160 348 161
3 160 354 348
3 161 345 162
3 161 348 345
3 345 351 162
3 342 347 346
3 346 353 342
3 342 349 347
3 347 348 343
3 343 350 347
3 348 354 343
3 346 347 344
3 347 350 344
3 350 352 344
3 345 348 347
3 347 349 345
3 349 351 345
3 8 7 358
3 7 160 358
3 151 8 358
3 42 39 355
3 39 153 355
3 162 42 355
3 152 151 357
3 151 160 357
3 160 151 358
3 153 152 356
3 152 161 356
3 161 152 357
3 153 162 355
3 162 153 356
3 160 161 357
3 161 162 356
3 91 9 370
3 9 150 370
3 10 94 368
3 167 10 368
3 43 29 30
3 43 30 363
3 30 168 363
3 149 40 369
3 40 163 369
3 166 43 363
3 92 91 367
3 367 91 370
3 93 92 360
3 360 92 367
3 94 93 365
3 93 360 365
3 94 365 368
3 150 149 361
3 361 149 369
3 150 361 370
3 163 164 366
3 163 366 369
3 164 165 364
3 164 364 366
3 165 166 362
3 165 362 364
3 362 166 363
3 168 167 359
3 359 167 368
3 168 359 363
3 359 362 363
3 362 359 365
3 365 359 368
3 365 360 372
3 360 367 371
3 360 371 372
3 366 361 369
3 361 366 371
3 361 367 370
3 367 361 371
3 364 362 372
3 362 365 372
3 366 364 371
3 371 364 372
3 10 373 95
3 167 373 10
3 95 373 11
3 11 373 129
3 30 128 168
3 129 374 128
3 128 374 168
3 373 374 129
3 168 374 167
3 167 374 373
3 12 375 96
3 131 375 12
3 96 375 13
3 13 375 170
3 31 169 130
3 130 376 131
3 169 376 130
3 131 376 375
3 170 376 169
3 375 376 170
3 97 13 388
3 13 170 388
3 14 100 389
3 175 14 389
3 32 44 31
3 31 44 387
3 169 31 381
3 381 31 387
3 44 174 387
3 45 46 47
3 45 47 382
3 171 45 382
3 47 176 382
3 98 97 386
3 386 97 388
3 99 98 379
3 379 98 386
3 100 99 385
3 99 379 385
3 100 385 389
3 170 169 378
3 378 169 381
3 170 378 388
3 172 171 383
3 171 382 383
3 173 172 380
3 380 172 383
3 174 173 391
3 173 380 391
3 387 174 391
3 176 175 377
3 377 175 389
3 176 377 382
3 382 377 383
3 383 377 385
3 385 377 389
3 378 381 384
3 378 384 386
3 378 386 388
3 380 379 384
3 379 380 390
3 384 379 386
3 385 379 390
3 380 383 390
3 380 384 391
3 384 381 391
3 381 387 391
3 383 385 390
3 14 392 101
3 175 392 14
3 101 392 15
3 15 392 178
3 47 177 176
3 176 393 175
3 175 393 392
3 177 393 176
3 178 393 177
3 392 393 178
3 53 16 15
3 178 53 15
3 53 183 16
3 21 49 22
3 185 49 21
3 22 49 179
3 47 46 177
3 51 395 46
3 177 46 53
3 46 395 53
3 180 49 48
3 49 394 50
3 186 56 49
3 56 394 49
3 179 49 180
3 186 49 185
3 50 394 55
3 55 396 50
3 50 396 181
3 54 395 51
3 51 397 54
3 181 397 51
3 52 182 53
3 53 395 54
3 177 53 178
3 53 182 183
3 54 397 184
3 55 394 56
3 184 396 55
3 186 57 56
3 181 396 184
3 184 397 181
3 16 398 102
3 183 398 16
3 102 398 17
3 17 398 188
3 52 187 182
3 182 399 183
3 187 399 182
3 183 399 398
3 188 399 187
3 398 399 188
3 103 17 413
3 17 188 413
3 60 18 415
3 18 107 415
3 53 58 52
3 52 58 412
3 187 52 403
3 403 52 412
3 58 192 412
3 189 59 411
3 59 194 411
3 193 60 410
3 410 60 415
3 104 103 400
3 400 103 413
3 105 104 408
3 104 400 408
3 106 105 401
3 401 105 408
3 107 106 407
3 106 401 407
3 107 407 415
3 188 187 409
3 187 403 409
3 188 409 413
3 190 189 406
3 406 189 411
3 191 190 404
3 404 190 406
3 192 191 405
3 191 404 405
3 192 405 412
3 194 193 402
3 402 193 410
3 194 402 411
3 405 400 409
3 400 405 414
3 408 400 414
3 409 400 413
3 407 401 417
3 401 408 416
3 401 416 417
3 402 406 411
3 406 402 417
3 402 410 417
3 403 405 409
3 405 403 412
3 405 404 414
3 404 406 416
3 414 404 416
3 416 406 417
3 407 410 415
3 410 407 417
3 408 414 416
3 60 420 18
3 18 420 109
3 19 418 61
3 108 418 19
3 196 420 60
3 61 418 195
3 109 419 108
3 108 419 418
3 109 420 419
3 195 419 196
3 418 419 195
3 419 420 196
3 61 436 19
3 19 436 114
3 110 434 20
3 20 434 198
3 62 56 57
3 57 433 62
3 197 424 57
3 424 433 57
3 203 431 61
3 431 436 61
3 62 433 202
3 199 432 63
3 63 432 204
3 111 421 110
3 421 434 110
3 112 429 111
3 111 429 421
3 113 422 112
3 422 429 112
3 114 428 113
3 113 428 422
3 114 436 428
3 198 430 197
3 197 430 424
3 198 434 430
3 200 427 199
3 427 432 199
3 201 425 200
3 425 427 200
3 202 426 201
3 201 426 425
3 202 433 426
3 204 423 203
3 423 431 203
3 204 432 423
3 426 430 421
3 421 435 426
3 429 435 421
3 430 434 421
3 428 438 422
3 422 437 429
3 422 438 437
3 423 432 427
3 427 438 423
3 423 438 431
3 424 430 426
3 426 433 424
3 426 435 425
3 425 437 427
3 435 437 425
3 437 438 427
3 428 436 431
3 431 438 428
3 429 437 435
3 20 439 115
3 198 439 20
3 115 439 21
3 21 439 185
3 186 197 57
3 185 440 186
3 439 440 185
3 186 440 197
3 197 440 198
3 198 440 439
3 22 441 116
3 179 441 22
3 116 441 23
3 23 441 205
3 180 48 206
3 180 442 179
3 179 442 441
3 206 442 180
3 205 442 206
3 441 442 205
3 117 455 0
3 0 455 124
3 23 454 120
3 205 454 23
3 35 24 64
3 24 453 64
3 123 448 24
3 448 453 24
3 65 48 49
3 65 447 48
3 48 447 206
3 64 453 210
3 207 447 65
3 118 452 117
3 452 455 117
3 119 445 118
3 445 452 118
3 120 451 119
3 119 451 445
3 120 454 451
3 124 443 123
3 443 448 123
3 124 455 443
3 206 444 205
3 444 454 205
3 206 447 444
3 208 449 207
3 207 449 447
3 209 446 208
3 446 449 208
3 210 457 209
3 209 457 446
3 453 457 210
3 443 450 448
3 443 452 450
3 443 455 452
3 447 449 444
3 449 451 444
3 451 454 444
3 446 450 445
3 445 456 446
3 450 452 445
3 451 456 445
3 446 456 449
3 446 457 450
3 450 457 448
3 448 457 453
3 449 456 451
3 37 26 27
3 211 37 27
3 211 27 213
3 43 28 29
3 212 28 43
3 213 28 212
3 211 213 212
3 27 127 213
3 213 127 28
3 33 44 32
3 216 44 33
3 216 33 214
3 34 35 64
3 34 64 215
3 34 215 214
3 214 215 216
3 132 214 33
3 34 214 132
3 140 466 36
3 36 466 148
3 37 469 137
3 211 469 37
3 147 468 40
3 40 468 163
3 166 467 43
3 43 467 212
3 137 462 138
3 137 469 462
3 138 460 139
3 138 462 460
3 139 461 140
3 460 461 139
3 461 466 140
3 148 459 147
3 459 468 147
3 148 466 459
3 163 464 164
3 163 468 464
3 164 465 165
3 464 465 164
3 165 463 166
3 165 465 463
3 463 467 166
3 212 458 211
3 458 469 211
3 212 467 458
3 458 463 462
3 462 469 458
3 458 467 463
3 461 464 459
3 459 466 461
3 464 468 459
3 460 464 461
3 462 463 460
3 463 465 460
3 460 465 464
3 38 470 41
3 143 470 38
3 42 472 39
3 39 472 141
3 41 470 159
3 157 472 42
3 141 473 142
3 141 472 157
3 157 473 141
3 142 471 143
3 158 471 142
3 142 473 158
3 159 470 143
3 143 471 159
3 158 473 157
3 159 471 158
3 44 482 174
3 216 482 44
3 171 484 45
3 45 484 218
3 210 483 64
3 64 483 215
3 65 485 207
3 217 485 65
3 172 478 171
3 478 484 171
3 173 476 172
3 476 478 172
3 174 477 173
3 173 477 476
3 174 482 477
3 207 479 208
3 207 485 479
3 208 481 209
3 479 481 208
3 209 480 210
3 209 481 480
3 480 483 210
3 215 474 216
3 215 483 474
3 474 482 216
3 218 475 217
3 475 485 217
3 218 484 475
3 474 480 477
3 477 482 474
3 474 483 480
3 478 479 475
3 475 484 478
3 479 485 475
3 477 481 476
3 476 481 478
3 480 481 477
3 478 481 479
3 45 51 46
3 45 218 51
3 65 49 50
3 217 65 50
3 217 50 219
3 51 218 219
3 219 218 217
3 50 181 219
3 181 51 219
3 54 58 53
3 222 58 54
3 220 222 54
3 55 56 62
3 55 62 221
3 55 221 220
3 220 221 222
3 220 54 184
3 55 220 184
3 58 495 192
3 222 495 58
3 189 494 59
3 59 494 224
3 202 496 62
3 62 496 221
3 63 497 199
3 223 497 63
3 190 491 189
3 491 494 189
3 191 493 190
3 190 493 491
3 192 492 191
3 492 493 191
3 192 495 492
3 199 490 200
3 199 497 490
3 200 488 201
3 200 490 488
3 201 489 202
3 488 489 201
3 489 496 202
3 221 487 222
3 221 496 487
3 487 495 222
3 224 486 223
3 486 497 223
3 224 494 486
3 486 491 490
3 490 497 486
3 486 494 491
3 489 492 487
3 487 496 489
3 492 495 487
3 488 493 489
3 490 493 488
3 489 493 492
3 491 493 490
3 59 504 194
3 224 504 59
3 193 505 60
3 60 505 196
3 195 503 61
3 61 503 203
3 204 502 63
3 63 502 223
3 194 499 193
3 499 505 193
3 194 504 499
3 196 500 195
3 500 503 195
3 196 505 500
3 203 498 204
3 203 503 498
3 498 502 204
3 223 501 224
3 223 502 501
3 501 504 224
3 500 501 498
3 498 503 500
3 501 502 498
3 499 501 500
3 500 505 499
3 499 504 501
3 225 226 66
3 226 225 67
3 225 66 506
3 66 227 506
3 67 225 507
3 232 67 507
3 68 228 227
3 231 69 232
3 225 506 507
3 227 228 506
3 228 229 506
3 229 230 507
3 506 229 507
3 230 231 507
3 231 232 507
3 226 513 66
3 66 511 227
3 66 513 511
3 67 512 226
3 232 509 67
3 509 512 67
3 70 68 227
3 73 510 69
3 69 510 232
3 227 233 70
3 233 511 71
3 71 508 234
3 71 511 508
3 234 512 72
3 72 509 235
3 72 512 509
3 235 510 73
3 512 513 226
3 227 511 233
3 232 510 509
3 508 512 234
3 509 510 235
3 511 513 508
3 508 513 512
3 68 70 517
3 228 68 517
3 73 69 518
3 69 231 518
3 70 236 517
3 239 73 518
3 229 228 514
3 228 236 514
3 236 228 517
3 230 229 516
3 237 229 514
3 229 237 516
3 231 230 515
3 230 238 515
3 238 230 516
3 239 231 515
3 231 239 518
3 236 237 514
3 237 238 516
3 238 239 515
3 70 233 236
3 233 71 519
3 71 240 519
3 72 235 520
3 240 72 520
3 239 235 73
3 236 233 519
3 235 239 520
3 237 236 519
3 238 237 520
3 237 519 520
3 239 238 520
3 519 240 520
3 234 240 71
3 234 72 240
3 241 242 74
3 242 241 75
3 241 74 521
3 74 243 521
3 75 241 522
3 248 75 522
3 76 244 243
3 247 77 248
3 241 521 522
3 243 244 521
3 244 245 521
3 245 246 522
3 521 245 522
3 246 247 522
3 247 248 522
3 242 528 74
3 74 526 243
3 74 528 526
3 75 527 242
3 248 524 75
3 524 527 75
3 78 76 243
3 81 525 77
3 77 525 248
3 249 78 243
3 249 526 79
3 79 523 250
3 79 526 523
3 250 527 80
3 80 524 251
3 80 527 524
3 251 525 81
3 527 528 242
3 243 526 249
3 248 525 524
3 523 527 250
3 524 525 251
3 526 528 523
3 523 528 527
3 76 78 532
3 244 76 532
3 81 77 533
3 77 247 533
3 78 252 532
3 255 81 533
3 245 244 529
3 244 252 529
3 252 244 532
3 246 245 531
3 253 245 529
3 245 253 531
3 247 246 530
3 246 254 530
3 254 246 531
3 255 247 530
3 247 255 533
3 252 253 529
3 253 254 531
3 254 255 530
3 78 249 252
3 249 79 534
3 79 256 534
3 80 251 535
3 256 80 535
3 255 251 81
3 252 249 534
3 251 255 535
3 253 252 534
3 254 253 535
3 253 534 535
3 255 254 535
3 534 256 535
3 250 256 79
3 256 250 80
4 428 294 422 540
4 288 360 541 546
4 195 431 503 551
4 428 422 438 540
4 431 195 307 551
4 431 307 428 551
4 378 75 388 555
4 323 335 539 546
4 334 323 541 546
4 290 401 542 551
4 431 540 503 551
4 288 541 267 546
4 425 537 488 542
4 286 536 379 548
4 302 388 75 555
4 267 541 323 546
4 371 367 360 541
4 330 334 323 541
4 428 540 431 551
4 488 537 493 542
4 445 456 536 548
4 288 539 360 546
4 77 247 248 376
4 232 231 399 69
4 371 541 360 546
4 413 409 67 549
4 267 323 539 546
4 411 504 494 540
4 540 542 401 551
4 372 360 539 546
4 286 265 536 548
4 268 422 294 540
4 286 379 538 548
4 294 428 307 551
4 268 422 540 542
4 417 401 540 542
4 367 272 360 541
4 333 541 330 547
4 288 267 539 546
4 288 304 365 539
4 449 536 456 548
4 330 323 267 541
4 413 67 257 549
4 331 322 79 553
4 417 540 401 551
4 379 536 390 548
4 286 538 265 548
4 501 494 504 540
4 72 389 301 543
4 431 428 438 540
4 288 360 272 541
4 438 540 422 542
4 195 503 500 551
4 438 422 437 542
4 417 416 401 542
4 294 540 428 551
4 445 456 451 536
4 390 379 385 536
4 333 330 289 547
4 379 286 385 536
4 369 468 147 554
4 450 538 457 548
4 330 267 289 541
4 323 328 303 539
4 424 496 426 545
4 323 334 335 546
4 288 280 304 539
4 330 541 289 547
4 457 538 480 548
4 290 542 268 551
4 503 540 500 551
4 360 365 372 539
4 445 536 265 548
4 449 456 446 548
4 499 501 504 540
4 389 72 377 543
4 538 544 480 548
4 424 537 430 549
4 268 542 540 551
4 468 369 541 554
4 502 432 497 540
4 378 388 386 555
4 235 239 73 393
4 251 255 81 374
4 294 268 540 551
4 406 540 491 542
4 504 402 499 540
4 333 324 330 541
4 424 426 537 545
4 414 404 537 542
4 425 435 537 542
4 479 536 449 548
4 424 430 506 549
4 328 323 335 539
4 445 265 538 548
4 195 261 307 551
4 411 402 504 540
4 468 541 459 554
4 502 501 498 540
4 489 488 425 537
4 360 288 365 539
4 500 503 498 540
4 195 431 307 436
4 493 537 404 542
4 147 149 369 554
4 425 435 426 537
4 414 404 405 537
4 431 423 503 540
4 429 537 435 542
4 414 537 408 542
4 502 497 501 540
4 292 537 429 542
4 488 489 493 537
4 302 386 388 555
4 424 506 229 545
4 329 541 461 546
4 324 541 333 547
4 272 267 288 541
4 329 327 541 546
4 337 151 8 358
4 336 341 5 144
4 498 423 502 540
4 323 303 267 539
4 498 503 423 540
4 406 491 404 542
4 404 492 405 537
4 369 547 541 554
4 491 540 490 542
4 423 432 502 540
4 280 288 267 539
4 385 286 271 536
4 446 450 457 548
4 440 228 227 68
4 244 243 315 76
4 369 149 547 554
4 325 462 539 546
4 391 538 384 548
4 425 427 437 542
4 406 404 416 542
4 404 493 492 537
4 401 408 290 542
4 501 486 494 540
4 321 249 252 78
4 236 442 233 70
4 329 327 334 541
4 450 445 538 548
4 480 538 457 544
4 262 408 537 542
4 451 287 265 536
4 136 324 333 547
4 389 385 301 543
4 147 345 149 554
4 334 541 327 546
4 405 537 492 545
4 331 328 322 553
4 335 325 539 546
4 428 307 431 436
4 335 327 325 546
4 290 268 293 551
4 324 547 136 554
4 55 220 487 545
4 285 452 445 538
4 534 256 79 553
4 424 426 430 537
4 493 404 491 542
4 280 267 303 539
4 425 488 490 542
4 427 490 540 542
4 294 307 261 551
4 400 413 257 549
4 445 451 265 536
4 331 79 273 553
4 443 448 450 544
4 361 541 369 547
4 304 365 539 553
4 400 409 413 549
4 136 547 350 554
4 272 289 267 541
4 429 292 421 537
4 429 421 435 537
4 408 414 400 537
4 289 276 333 547
4 304 539 280 553
4 269 421 292 537
4 445 446 456 548
4 411 494 406 540
4 523 527 528 275
4 384 538 391 544
4 289 305 276 547
4 477 480 544 548
4 67 507 225 549
4 450 446 445 548
4 240 520 72 543
4 389 377 385 543
4 390 536 383 548
4 329 460 327 546
4 457 538 450 544
4 290 293 401 551
4 386 538 378 555
4 327 460 325 546
4 481 479 449 548
4 489 425 426 537
4 379 270 286 538
4 487 496 55 545
4 491 490 493 542
4 493 489 492 537
4 493 490 488 542
4 334 327 335 546
4 347 547 149 554
4 425 490 427 542
4 136 350 344 554
4 292 262 537 542
4 378 384 381 544
4 445 265 285 538
4 433 424 55 496
4 286 265 271 536
4 147 349 345 554
4 497 486 501 540
4 460 329 461 546
4 478 536 479 548
4 268 429 422 542
4 522 241 75 555
4 492 537 489 545
4 328 539 322 553
4 229 220 55 545
4 449 446 481 548
4 307 418 195 436
4 56 236 228 517
4 367 272 541 547
4 325 460 462 546
4 500 501 499 540
4 541 547 324 554
4 423 431 438 540
4 521 448 443 544
4 468 464 459 541
4 463 539 462 546
4 483 457 448 544
4 401 416 408 542
4 437 422 429 542
4 287 536 451 543
4 378 538 384 544
4 234 278 512 508
4 322 534 539 550
4 489 426 496 545
4 501 500 498 540
4 447 479 485 552
4 331 273 328 553
4 272 289 541 547
4 384 538 379 548
4 366 364 465 546
4 378 522 538 544
4 56 517 228 186
4 265 287 271 536
4 303 539 328 553
4 361 369 149 547
4 291 269 292 537
4 469 326 462 550
4 497 432 427 540
4 345 347 149 554
4 272 305 289 547
4 400 537 409 549
4 9 150 337 354
4 372 371 360 546
4 367 541 361 547
4 444 543 536 552
4 136 4 336 352
4 444 536 449 552
4 377 536 385 543
4 290 408 262 542
4 390 383 380 548
4 419 261 195 551
4 407 417 401 551
4 421 537 269 549
4 462 325 539 550
4 325 322 539 550
4 521 544 443 555
4 291 292 262 537
4 500 540 499 551
4 350 547 347 554
4 489 537 426 545
4 462 539 463 550
4 402 411 406 540
4 379 386 270 538
4 366 541 371 546
4 294 293 268 551
4 478 383 536 548
4 437 429 435 542
4 414 408 416 542
4 500 499 505 551
4 449 536 479 552
4 226 312 67 549
4 359 550 539 553
4 444 449 447 552
4 369 361 366 541
4 402 499 540 551
4 362 539 463 546
4 476 380 478 548
4 468 459 147 554
4 293 407 401 551
4 257 291 400 549
4 501 504 494 224
4 72 310 278 234
4 325 326 322 550
4 268 292 429 542
4 448 453 483 544
4 324 334 330 541
4 371 361 367 541
4 491 494 486 540
4 491 406 494 540
4 467 362 363 550
4 270 265 286 538
4 519 543 444 552
4 450 445 452 538
4 379 384 386 538
4 234 72 310 543
4 359 362 539 550
4 322 326 534 550
4 372 539 362 546
4 269 537 291 549
4 483 453 34 544
4 464 461 541 546
4 448 457 450 544
4 520 377 536 552
4 461 541 329 554
4 489 496 487 545
4 444 447 519 552
4 350 347 344 554
4 423 427 432 540
4 324 329 541 554
4 377 383 536 552
4 391 384 380 548
4 273 303 328 553
4 378 381 522 544
4 280 539 303 553
4 464 541 366 546
4 381 391 482 544
4 309 75 242 555
4 365 359 539 553
4 491 406 404 190
4 447 485 50 552
4 271 536 287 543
4 463 539 362 550
4 402 505 499 551
4 324 332 329 554
4 430 537 421 549
4 302 309 270 555
4 75 279 309 242
4 256 534 550 553
4 27 326 469 550
4 479 536 478 552
4 512 264 513 508
4 277 226 512 513
4 382 484 383 552
4 459 541 461 554
4 478 380 383 548
4 285 445 452 118
4 386 302 270 555
4 240 520 543 552
4 291 537 400 549
4 301 385 271 543
4 285 265 270 538
4 72 301 310 543
4 480 457 483 544
4 463 465 364 546
4 381 384 391 544
4 291 257 312 549
4 366 371 364 546
4 462 326 325 550
4 449 451 456 536
4 385 383 390 536
4 348 149 347 547
4 478 476 172 380
4 386 384 378 538
4 405 409 537 545
4 449 479 447 552
4 366 465 464 546
4 379 99 385 286
4 164 465 366 364
4 195 419 307 261
4 496 433 424 426
4 425 437 435 542
4 414 416 404 542
4 362 365 359 539
4 501 223 497 502
4 349 347 345 554
4 452 538 285 555
4 273 303 331 328
4 478 479 481 548
4 404 493 491 190
4 383 478 536 552
4 364 362 463 546
4 332 461 329 554
4 444 451 536 543
4 402 406 417 540
4 410 505 402 551
4 460 329 327 139
4 364 372 362 546
4 324 136 135 554
4 159 41 353 470
4 381 482 387 544
4 477 391 380 548
4 157 42 472 351
4 361 371 366 541
4 324 329 334 541
4 359 363 362 550
4 477 380 476 548
4 377 382 383 552
4 402 540 417 551
4 536 543 520 552
4 386 270 538 555
4 451 449 444 536
4 377 383 385 536
4 430 426 421 537
4 409 400 405 537
4 310 278 301 72
4 225 226 67 549
4 367 92 360 272
4 328 325 322 539
4 266 276 305 547
4 240 543 519 552
4 262 268 290 542
4 522 544 241 555
4 224 494 501 486
4 385 536 271 543
4 387 482 33 544
4 362 372 365 539
4 497 490 486 540
4 488 490 200 425
4 539 550 534 553
4 497 427 490 540
4 344 135 136 554
4 467 463 362 550
4 358 160 7 354
4 234 240 72 543
4 466 135 36 148
4 302 75 309 555
4 528 527 279 275
4 359 535 550 553
4 383 478 172 380
4 466 135 148 554
4 341 352 6 154
4 264 277 512 513
4 400 413 103 257
4 380 384 379 548
4 67 312 257 549
4 79 256 250 553
4 522 538 544 555
4 41 156 353 338
4 451 265 287 119
4 350 276 266 547
4 404 405 492 191
4 423 438 427 540
4 214 474 34 544
4 150 361 149 547
4 260 368 94 304
4 42 355 351 162
4 450 452 443 555
4 429 112 268 422
4 479 481 449 208
4 228 227 506 197
4 481 480 477 548
4 446 209 481 457
4 329 460 461 139
4 300 434 269 549
4 33 474 214 544
4 294 428 422 113
4 481 446 449 208
4 269 300 110 434
4 480 481 209 457
4 285 445 118 265
4 86 323 267 330
4 332 466 461 554
4 213 27 458 550
4 452 455 258 117
4 237 519 447 552
4 166 363 467 362
4 479 447 485 207
4 464 460 461 546
4 264 512 278 508
4 435 421 426 537
4 414 405 400 537
4 493 404 492 191
4 219 50 475 552
4 401 408 105 290
4 292 269 111 421
4 455 443 74 124
4 150 149 348 547
4 476 478 481 548
4 379 390 380 548
4 335 325 328 539
4 349 473 157 158
4 464 461 459 541
4 455 452 258 555
4 463 462 460 546
4 123 443 521 448
4 419 195 196 551
4 301 271 310 543
4 359 535 363 550
4 292 268 262 542
4 99 271 385 286
4 267 289 86 330
4 75 241 242 555
4 74 443 455 555
4 266 311 370 547
4 521 443 74 555
4 242 527 279 528
4 253 534 326 550
4 365 368 260 304
4 383 484 478 552
4 356 161 345 162
4 368 365 94 304
4 450 538 452 555
4 407 401 106 293
4 265 451 445 119
4 195 500 196 551
4 34 474 483 544
4 229 230 220 545
4 511 513 66 313
4 149 345 348 347
4 477 476 380 173
4 429 292 111 421
4 370 150 266 547
4 28 467 363 550
4 469 137 462 326
4 98 379 270 286
4 288 360 92 272
4 471 158 342 159
4 322 134 534 326
4 165 463 465 364
4 520 382 377 552
4 427 200 490 425
4 370 367 361 547
4 232 231 507 187
4 218 51 219 475
4 474 216 33 214
4 485 475 50 552
4 242 279 309 258
4 244 243 521 123
4 471 148 142 143
4 473 141 142 147
4 521 241 544 555
4 220 55 487 221
4 287 259 454 120
4 486 501 223 497
4 465 464 164 366
4 171 484 383 382
4 249 252 534 134
4 469 458 27 550
4 201 489 488 425
4 256 550 535 553
4 233 236 519 206
4 206 444 447 519
4 510 295 392 398
4 484 382 51 552
4 51 219 475 552
4 430 66 506 549
4 9 150 354 266
4 354 266 150 343
4 163 468 369 366
4 245 448 521 544
4 104 408 400 262
4 27 458 211 213
4 371 372 364 546
4 278 234 264 508
4 477 476 481 548
4 458 28 213 550
4 486 490 491 540
4 279 309 302 75
4 97 386 388 302
4 266 9 370 311
4 453 448 483 457
4 277 66 513 313
4 219 50 217 475
4 215 474 34 214
4 512 72 278 234
4 343 350 266 547
4 505 410 196 551
4 391 477 482 544
4 237 447 50 552
4 150 343 266 547
4 287 454 259 543
4 475 485 479 552
4 455 258 74 555
4 401 106 293 290
4 300 66 434 549
4 54 487 222 220
4 305 272 311 547
4 147 148 349 554
4 522 381 246 544
4 477 380 391 173
4 458 28 212 213
4 463 165 362 364
4 474 480 483 544
4 379 386 98 270
4 27 253 326 550
4 487 220 54 545
4 344 154 340 155
4 451 287 454 120
4 519 71 444 543
4 242 258 309 555
4 328 323 303 85
4 250 523 79 299
4 248 247 522 169
4 155 156 339 346
4 382 520 238 552
4 112 268 292 429
4 75 524 308 527
4 363 535 254 550
4 466 332 135 554
4 434 66 430 549
4 420 415 306 551
4 419 306 261 551
4 287 451 454 543
4 350 352 276 136
4 419 196 306 551
4 510 392 295 283
4 160 357 161 348
4 150 9 370 266
4 368 80 359 553
4 201 489 425 426
4 234 310 278 259
4 304 260 365 553
4 270 309 285 555
4 368 365 260 553
4 410 402 417 551
4 469 462 458 550
4 310 259 234 543
4 36 332 135 466
4 235 509 72 274
4 74 258 242 555
4 378 381 169 522
4 328 303 331 84
4 255 251 535 168
4 279 242 74 258
4 291 104 400 262
4 424 430 197 506
4 434 421 269 549
4 239 235 520 176
4 420 60 415 410
4 33 482 474 544
4 246 214 531 245
4 363 359 168 535
4 409 403 507 545
4 240 519 520 552
4 459 461 466 554
4 459 148 147 554
4 463 166 467 362
4 254 28 363 550
4 381 391 387 482
4 398 510 295 283
4 434 110 269 421
4 268 294 422 113
4 136 4 352 276
4 257 103 400 291
4 74 528 242 275
4 67 226 512 274
4 10 368 260 80
4 301 14 389 72
4 277 226 66 549
4 211 458 27 469
4 256 534 535 550
4 238 51 382 552
4 434 430 66 198
4 67 413 188 409
4 367 370 91 311
4 270 285 538 555
4 273 280 303 553
4 294 261 293 551
4 217 50 485 475
4 34 474 215 483
4 301 389 100 385
4 535 359 80 553
4 443 452 455 555
4 238 237 516 219
4 516 229 230 220
4 71 454 444 543
4 415 407 306 551
4 350 266 276 89
4 258 285 452 117
4 222 487 54 495
4 340 144 136 145
4 151 152 357 150
4 520 176 377 382
4 381 246 169 522
4 258 452 285 555
4 246 31 381 169
4 143 36 38 470
4 40 39 472 141
4 206 447 237 519
4 245 123 521 448
4 75 308 279 527
4 465 460 464 546
4 277 312 226 549
4 267 303 323 85
4 507 230 229 545
4 449 447 479 207
4 299 3 79 331
4 420 306 196 551
4 346 148 135 554
4 531 213 254 253
4 463 460 465 546
4 253 534 134 326
4 303 273 331 84
4 368 10 251 80
4 271 287 310 543
4 325 462 137 326
4 176 520 238 382
4 484 478 171 383
4 248 302 388 75
4 467 28 458 550
4 52 182 187 231
4 234 259 71 543
4 495 487 54 545
4 42 355 472 351
4 168 254 363 535
4 262 105 408 290
4 71 259 454 543
4 495 412 192 545
4 508 234 264 71
4 263 527 523 275
4 415 410 407 551
4 343 347 350 547
4 522 521 241 544
4 80 260 263 250
4 51 218 484 475
4 33 482 216 474
4 348 347 343 547
4 496 487 55 221
4 249 79 3 331
4 51 475 484 552
4 500 505 196 551
4 195 419 418 307
4 312 269 291 549
4 368 260 80 553
4 523 250 263 299
4 212 467 28 458
4 419 418 307 108
4 248 308 302 75
4 230 403 54 545
4 306 420 196 419
4 4 136 333 276
4 229 506 507 545
4 342 349 148 554
4 434 300 20 198
4 420 306 109 419
4 365 368 359 553
4 339 135 146 145
4 153 149 356 152
4 355 39 40 153
4 146 38 36 338
4 279 75 527 242
4 80 260 250 553
4 489 202 496 426
4 235 283 510 509
4 274 226 512 277
4 31 130 169 247
4 405 403 409 545
4 79 250 273 553
4 433 496 202 426
4 468 163 464 366
4 66 300 277 549
4 458 462 463 550
4 477 474 482 544
4 344 346 135 554
4 439 441 284 296
4 409 187 507 403
4 526 523 528 275
4 519 240 71 543
4 350 343 266 89
4 72 14 235 274
4 436 428 307 114
4 512 72 509 274
4 477 480 474 544
4 33 214 246 544
4 67 188 232 409
4 342 353 346 148
4 87 289 276 333
4 492 495 192 545
4 88 352 4 276
4 388 170 13 248
4 277 300 312 549
4 494 411 406 189
4 467 458 463 550
4 266 305 311 547
4 475 479 478 552
4 274 67 226 277
4 245 24 123 448
4 230 54 220 545
4 197 229 424 506
4 230 507 187 403
4 347 346 344 554
4 273 299 79 331
4 264 513 511 313
4 230 507 403 545
4 14 301 278 72
4 205 233 23 454
4 72 278 14 274
4 342 148 346 554
4 225 506 66 549
4 368 10 167 251
4 231 232 399 187
4 434 430 421 549
4 350 352 88 276
4 513 264 277 313
4 187 52 230 403
4 410 417 407 551
4 378 522 248 75
4 90 266 9 354
4 186 57 197 228
4 278 72 512 274
4 361 150 370 547
4 71 259 233 454
4 412 54 403 545
4 492 489 487 545
4 126 134 25 252
4 135 332 324 554
4 180 206 48 236
4 27 37 469 326
4 289 87 330 333
4 228 440 227 197
4 444 454 451 543
4 375 525 77 298
4 65 50 447 485
4 227 66 430 198
4 274 512 278 264
4 484 475 478 552
4 381 387 31 246
4 250 260 263 273
4 483 210 453 457
4 66 226 277 513
4 282 373 525 298
4 272 367 91 311
4 470 41 353 338
4 214 34 245 544
4 279 242 528 275
4 412 495 54 545
4 251 10 282 524
4 263 527 250 523
4 28 43 363 467
4 3 249 331 133
4 342 347 349 554
4 107 415 407 306
4 255 374 251 168
4 238 47 176 382
4 512 274 277 264
4 239 393 235 176
4 484 45 51 382
4 254 363 30 168
4 193 410 505 402
4 423 203 431 503
4 302 388 13 248
4 232 510 283 509
4 169 378 522 248
4 430 197 506 227
4 67 17 257 274
4 525 375 282 298
4 461 466 332 140
4 348 343 150 547
4 432 199 497 427
4 213 253 27 550
4 275 74 0 258
4 230 52 54 403
4 71 519 444 233
4 23 71 259 233
4 312 300 269 549
4 219 237 50 552
4 203 423 498 503
4 402 505 193 499
4 108 307 419 261
4 376 247 248 169
4 526 79 523 299
4 423 498 502 204
4 194 402 499 504
4 260 273 250 553
4 506 66 430 227
4 122 24 123 244
4 535 80 256 553
4 379 98 99 286
4 254 213 28 550
4 232 17 67 274
4 30 168 128 255
4 308 302 13 248
4 245 246 214 544
4 249 3 79 299
4 313 227 511 284
4 47 176 177 239
4 260 263 10 80
4 97 386 302 270
4 243 244 315 123
4 419 306 109 261
4 304 280 260 553
4 192 412 405 545
4 341 4 352 336
4 482 391 387 174
4 299 79 250 273
4 71 264 23 259
4 476 172 380 173
4 51 238 219 552
4 249 321 252 134
4 358 9 337 354
4 313 511 264 284
4 442 236 233 206
4 299 250 263 273
4 187 52 231 230
4 271 301 100 385
4 264 513 508 511
4 491 494 406 189
4 407 293 306 551
4 241 521 74 555
4 251 535 359 80
4 354 90 266 343
4 253 213 254 550
4 402 194 411 504
4 502 423 204 432
4 263 523 299 275
4 237 219 238 552
4 277 66 313 300
4 23 264 71 233
4 33 31 387 246
4 428 294 307 114
4 285 309 258 555
4 197 229 57 424
4 526 249 299 281
4 405 492 192 545
4 351 147 349 345
4 412 403 405 545
4 257 67 274 277
4 448 245 24 453
4 519 206 444 233
4 30 28 43 363
4 37 27 25 326
4 214 216 215 474
4 219 217 218 475
4 461 332 329 140
4 162 149 356 153
4 485 447 65 207
4 220 222 221 487
4 199 490 497 427
4 103 104 400 291
4 524 263 308 527
4 187 507 232 409
4 65 50 48 447
4 47 51 45 382
4 524 251 263 80
4 507 67 232 409
4 466 148 459 554
4 237 48 447 206
4 263 279 527 275
4 211 212 213 458
4 233 264 511 284
4 111 269 110 421
4 264 508 71 511
4 251 263 10 524
4 422 112 268 113
4 233 259 23 454
4 263 279 308 527
4 253 134 25 326
4 55 57 424 433
4 412 54 52 403
4 74 0 243 275
4 247 246 169 31
4 287 451 119 120
4 359 168 535 251
4 483 480 210 457
4 57 55 424 229
4 235 72 520 377
4 347 342 346 554
4 526 243 249 281
4 265 445 118 119
4 3 299 273 331
4 522 246 245 544
4 511 71 264 233
4 484 171 45 382
4 310 287 259 543
4 227 233 511 284
4 489 201 202 426
4 486 501 224 223
4 37 137 469 326
4 172 171 478 383
4 253 254 535 550
4 237 238 520 552
4 325 462 138 137
4 87 276 4 333
4 251 10 263 80
4 275 243 526 281
4 308 248 524 75
4 227 511 66 313
4 263 282 10 524
4 255 254 30 168
4 282 263 308 524
4 239 238 47 176
4 526 299 275 281
4 276 88 350 89
4 111 112 292 429
4 245 521 522 544
4 106 401 105 290
4 293 107 407 306
4 487 495 492 545
4 67 509 232 274
4 535 534 253 550
4 365 93 94 304
4 520 519 237 552
4 64 34 215 483
4 65 50 485 217
4 222 54 58 495
4 242 279 74 275
4 218 45 51 484
4 251 282 525 524
4 28 43 467 212
4 43 363 467 166
4 27 37 211 469
4 56 236 517 49
4 34 24 245 453
4 138 460 327 139
4 87 86 289 330
4 523 526 299 275
4 260 280 273 553
4 227 70 284 68
4 293 261 306 551
4 207 479 449 208
4 455 0 258 117
4 279 74 275 258
4 176 235 520 377
4 463 165 166 362
4 228 229 57 197
4 67 512 509 274
4 405 492 191 192
4 36 332 466 140
4 368 94 10 260
4 234 71 240 543
4 509 283 232 274
4 79 526 249 299
4 70 227 284 233
4 281 243 78 76
4 32 533 247 255
4 91 370 9 311
4 152 357 150 348
4 331 273 3 84
4 340 136 344 145
4 225 66 226 549
4 156 146 339 346
4 118 452 285 117
4 248 525 282 524
4 357 152 161 348
4 367 91 92 272
4 340 344 155 145
4 391 482 477 174
4 465 164 165 364
4 6 4 352 341
4 528 74 526 275
4 106 107 407 293
4 281 243 249 78
4 392 101 295 283
4 308 279 302 75
4 358 7 9 354
4 40 163 468 369
4 263 524 80 527
4 148 142 147 158
4 482 387 33 216
4 532 26 244 252
4 85 323 267 86
4 140 329 461 139
4 295 102 398 283
4 431 203 61 503
4 410 505 60 193
4 23 264 233 284
4 51 47 238 382
4 282 308 248 524
4 80 250 256 553
4 30 28 363 254
4 245 244 123 24
4 378 169 170 248
4 147 349 148 158
4 388 13 97 302
4 55 433 496 221
4 149 356 345 162
4 527 80 263 250
4 84 328 303 85
4 231 230 507 187
4 243 526 74 275
4 116 284 441 296
4 307 19 436 114
4 490 199 200 427
4 488 200 201 425
4 92 93 360 288
4 229 228 506 197
4 283 17 232 274
4 284 227 68 439
4 271 100 99 385
4 404 493 190 191
4 253 252 25 134
4 294 428 113 114
4 237 236 48 206
4 115 439 284 296
4 464 163 164 366
4 44 33 387 216
4 483 64 34 453
4 297 82 281 314
4 0 243 275 281
4 104 105 408 262
4 494 59 411 189
4 482 44 387 216
4 108 419 109 261
4 497 223 63 502
4 494 504 59 224
4 454 259 23 120
4 43 29 28 30
4 472 355 40 351
4 55 62 56 57
4 34 64 35 24
4 45 46 51 47
4 110 300 20 434
4 306 109 18 420
4 433 55 62 221
4 415 107 18 306
4 247 246 522 169
4 446 481 209 208
4 135 146 36 353
4 54 58 495 412
4 307 418 19 108
4 496 433 62 221
4 63 497 502 432
4 193 194 402 499
4 204 423 498 203
4 59 411 504 494
4 245 244 521 123
4 389 100 14 301
4 497 63 199 432
4 281 83 297 320
4 242 241 74 555
4 351 149 162 153
4 306 18 415 420
4 254 255 535 168
4 339 146 135 346
4 96 282 375 298
4 50 48 447 237
4 238 239 520 176
4 406 491 189 190
4 253 25 27 326
4 20 227 313 284
4 336 352 341 154
4 252 253 534 134
4 358 337 160 354
4 236 237 519 206
4 95 373 282 298
4 103 413 17 257
4 307 19 418 436
4 149 351 40 153
4 386 97 98 270
4 173 391 477 174
4 398 102 17 283
4 23 284 441 116
4 183 69 398 399
4 131 77 375 376
4 213 254 318 531
4 516 230 397 220
4 397 238 516 219
4 281 82 0 314
4 214 318 246 531
4 349 342 148 158
4 148 353 143 159
4 392 14 101 283
4 439 284 20 115
4 483 210 64 453
4 147 473 157 349
4 346 156 146 353
4 343 90 266 89
4 168 359 167 251
4 90 9 7 354
4 470 353 36 338
4 342 148 158 471
4 299 249 3 281
4 4 6 352 88
4 146 135 346 353
4 187 232 188 409
4 249 134 322 133
4 482 387 44 174
4 33 31 44 387
4 34 64 24 453
4 58 192 495 412
4 349 147 473 158
4 150 354 343 348
4 308 13 282 248
4 397 516 220 219
4 516 396 220 219
4 319 213 214 531
4 184 181 397 219
4 318 214 213 531
4 184 396 181 219
4 147 157 141 351
4 54 52 58 412
4 55 62 57 433
4 62 433 496 202
4 209 210 480 457
4 430 197 227 198
4 194 59 411 504
4 204 63 502 432
4 418 19 61 436
4 473 157 141 147
4 143 471 148 159
4 342 148 471 159
4 148 353 36 143
4 415 18 60 420
4 345 161 356 149
4 125 78 320 321
4 70 442 441 179
4 352 350 344 136
4 392 73 178 393
4 373 81 129 374
4 185 68 440 439
4 76 121 314 315
4 158 148 142 471
4 142 473 147 158
4 345 351 149 162
4 176 175 235 377
4 282 375 13 96
4 233 206 444 205
4 531 319 213 253
4 141 40 147 351
4 229 516 396 220
4 396 516 237 219
4 10 373 282 95
4 214 319 531 245
4 135 344 136 145
4 281 3 83 320
4 148 342 353 159
4 150 149 152 348
4 157 147 349 351
4 397 220 184 219
4 184 220 396 219
4 227 197 440 198
4 152 149 161 348
4 155 344 135 145
4 159 353 36 470
4 353 156 36 338
4 154 136 344 340
4 357 160 150 348
4 157 472 40 351
4 159 36 143 470
4 141 472 40 157
4 397 238 230 516
4 160 151 337 358
4 154 341 336 144
4 345 161 149 348
4 156 146 36 338
4 254 246 318 531
4 530 254 246 316
4 230 238 395 515
4 351 355 40 162
4 188 232 187 399
4 162 355 40 153
4 155 339 135 346
4 176 235 175 393
4 315 243 124 76
4 315 243 123 124
4 470 38 41 338
4 167 374 168 251
4 341 5 4 336
4 8 9 337 358
4 355 39 42 472
4 442 206 233 205
4 205 233 442 70
4 337 150 160 354
4 352 336 136 154
4 155 135 344 346
4 355 40 39 472
4 470 36 38 338
4 134 249 321 133
4 2 76 297 78
4 12 81 298 77
4 133 249 321 78
4 238 397 51 219
4 230 54 397 220
4 318 246 33 214
4 318 28 254 213
4 169 376 170 248
4 396 50 181 219
4 318 28 213 127
4 397 181 51 219
4 132 214 34 319
4 127 27 213 319
4 54 397 220 184
4 214 33 318 132
4 220 396 55 184
4 228 440 197 186
4 154 336 136 144
4 160 151 150 337
4 231 187 399 182
4 252 321 126 134
4 236 442 180 206
4 314 315 124 76
4 162 40 351 153
4 128 29 30 255
4 47 46 239 177
4 156 36 146 353
4 40 141 157 351
4 143 353 36 159
4 344 352 136 154
4 9 8 7 358
4 186 56 57 228
4 24 35 244 122
4 4 6 5 341
4 354 150 160 348
4 441 205 442 70
4 315 244 122 123
4 397 51 54 238
4 33 28 246 318
4 247 376 130 169
4 54 51 395 238
4 28 33 246 316
4 374 255 128 168
4 393 239 177 176
4 56 517 186 49
4 56 236 514 228
4 320 133 321 78
4 319 27 213 253
4 319 214 34 245
4 396 55 229 220
4 396 237 50 219
4 238 54 397 230
4 246 28 254 318
4 246 254 28 316
4 238 395 54 230
4 135 339 155 145
4 253 531 319 245
4 516 237 229 396
4 514 229 237 394
4 317 253 245 529
4 161 356 149 152
4 76 1 297 314
4 78 2 320 297
4 11 81 373 298
4 136 154 144 340
4 357 160 151 150
4 319 34 27 253
4 237 55 50 394
4 317 27 34 253
4 237 50 55 396
4 77 12 375 298
4 32 246 316 530
4 53 230 395 515
4 237 229 55 394
4 34 317 253 245
4 319 34 253 245
4 55 229 237 396
4 37 27 26 25
4 54 53 58 52
4 33 32 44 31
4 65 50 49 48
4 246 32 316 33
4 230 53 395 54
4 49 237 394 514
4 26 253 317 529
4 70 22 179 441
4 78 125 320 2
4 253 26 317 27
4 237 49 394 50
4 255 32 128 29
4 102 16 295 398
4 121 76 314 1
4 73 15 392 178
4 11 81 129 373
4 21 68 185 439
4 244 26 122 35
4 76 2 297 1
4 96 375 12 298
4 81 12 298 11
4 77 131 375 12
4 69 183 398 16
4 2 297 83 320
4 101 295 15 392
4 116 441 22 296
4 82 297 1 314
4 21 439 115 296
4 11 373 95 298
4 230 53 54 52
4 246 32 33 31
4 130 31 32 247
4 53 52 231 182
4 26 25 252 126
4 48 49 180 236
4 253 26 27 25
4 237 49 50 48
4 29 32 530 255
4 236 56 514 49
4 244 26 35 529
4 32 530 255 247
4 26 244 252 529
4 32 29 530 316
4 395 46 53 515
4 49 56 514 394
4 317 35 26 529
4 21 517 68 22
4 183 69 53 16
4 517 22 70 68
4 178 518 73 15
4 518 178 53 15
4 53 15 16 518
4 53 69 231 518
4 518 178 177 53
4 81 12 11 533
4 81 12 533 77
4 32 77 247 533
4 32 11 12 533
4 76 2 532 78
4 78 26 532 252
4 1 2 26 532
4 49 21 517 185
4 49 22 179 70
4 49 185 517 186
4 78 26 2 532
4 185 21 517 68
4 131 77 32 12
4 32 77 533 12
4 125 78 26 2
4 76 2 1 532
4 53 69 518 16
4 70 49 517 236
4 49 22 70 517
4 21 22 49 517
4 32 247 131 130
4 32 131 247 77
4 376 131 247 130
4 376 247 131 77
4 53 231 183 182
4 53 183 231 69
4 399 183 231 182
4 399 231 183 69
4 542 438 427 437
4 542 427 438 540
4 542 417 406 540
4 542 406 417 416
4 26 252 125 126
4 26 125 252 78
4 321 125 252 126
4 321 252 125 78
4 442 236 179 70
4 442 179 236 180
4 49 179 236 70
4 49 236 179 180
4 378 555 522 75
4 522 555 378 538
4 549 507 409 67
4 369 147 40 149
4 369 40 147 468
4 553 322 534 539
4 553 534 322 79
4 543 377 520 72
4 543 520 377 536
4 544 548 391 477
4 391 548 544 538
4 545 55 424 496
4 545 424 55 229
4 288 365 93 360
4 288 93 365 304
4 549 507 506 545
4 549 506 507 225
4 136 276 547 333
4 136 547 276 350
4 312 67 277 226
4 312 277 67 257
4 325 460 138 462
4 138 460 325 327
4 545 549 424 506
4 424 549 545 537
4 555 450 544 443
4 555 544 450 538
4 549 545 409 507
4 549 409 545 537
4 436 61 503 431
4 503 195 436 431
4 420 410 551 196
4 551 410 420 415
4 400 262 537 291
4 537 262 400 408
4 367 311 547 370
4 547 311 367 272
4 457 481 548 480
4 457 548 481 446
4 234 259 264 71
4 264 259 234 278
4 67 257 188 413
4 17 188 257 413
4 246 387 544 381
4 246 544 387 33
4 198 300 66 434
4 534 249 322 79
4 534 322 249 134
4 248 378 388 170
4 388 378 248 75
4 60 196 410 420
4 410 196 60 505
4 61 195 436 503
4 61 436 195 418
4 468 366 541 369
4 541 366 468 464
4 124 74 123 443
4 124 123 74 243
4 521 123 74 443
4 521 74 123 243
4 359 251 368 167
4 359 368 251 80
4 124 0 258 455
4 258 74 124 455
4 322 249 331 79
4 331 249 322 133
4 453 245 544 448
4 453 544 245 34
4 454 233 444 205
4 454 444 233 71
4 235 377 389 72
4 389 377 235 175
4 389 14 235 72
4 235 14 389 175
4 510 398 73 69
4 510 73 398 392
4 284 70 439 68
4 284 439 70 441
4 235 274 283 509
4 283 274 235 14
4 78 281 297 320
4 518 53 239 231
4 515 239 53 231
4 515 53 239 46
4 351 149 147 345
4 147 149 351 40
4 298 81 525 77
4 298 525 81 373
4 439 227 20 284
4 439 20 227 198
4 76 297 281 314
4 76 281 297 78
4 227 439 440 68
4 440 439 227 198
4 124 76 281 314
4 281 76 124 243
4 281 0 124 314
4 124 0 281 243
4 205 70 284 233
4 284 70 205 441
4 284 23 205 233
4 205 23 284 441
4 133 78 281 249
4 281 78 133 320
4 281 3 133 249
4 133 3 281 320
4 135 353 148 346
4 148 353 135 36
4 319 132 213 127
4 319 213 132 214
4 318 213 132 127
4 318 132 213 214
4 316 29 254 28
4 316 254 29 530
4 30 254 29 28
4 395 46 238 51
4 395 238 46 515
4 47 238 46 51
4 394 56 229 55
4 394 229 56 514
4 57 229 56 55
4 34 35 245 24
4 244 245 35 24
4 244 35 245 529
4 46 239 238 47
4 238 239 46 515
4 255 29 254 530
4 255 254 29 30
4 228 56 229 514
4 228 229 56 57
4 53 230 231 52
4 53 231 230 515
4 32 246 247 31
4 32 247 246 530
4 49 237 236 48
4 49 236 237 514
4 26 253 252 25
4 26 252 253 529
4 518 16 73 15
4 518 73 16 69
4 239 73 177 518
4 239 177 73 393
4 178 177 73 518
4 178 73 177 393
4 283 392 235 510
4 73 235 392 510
4 255 81 32 533
4 282 373 251 525
4 81 251 373 525
4 244 76 26 532
4 228 68 186 517
4 228 186 68 440
4 185 186 68 517
4 185 68 186 440
4 26 1 76 121
4 26 76 1 532
4 77 375 248 525
4 282 248 375 525
4 69 398 232 510
4 283 232 398 510
4 317 245 35 529
4 317 35 245 34
4 11 81 32 129
4 32 81 11 533
4 188 67 17 257
4 17 67 188 232
4 66 198 20 300
4 20 198 66 227
4 20 313 66 300
4 66 313 20 227
4 74 124 0 258
4 74 0 124 243
4 398 16 73 69
4 392 15 16 295
4 16 15 392 73
4 16 398 392 295
4 392 398 16 73
4 70 22 439 68
4 21 22 439 296
4 21 439 22 68
4 439 441 22 70
4 22 441 439 296
4 53 239 177 518
4 53 177 239 46
4 122 121 76 315
4 76 121 122 26
4 76 244 122 315
4 122 244 76 26
4 392 235 14 283
4 392 14 235 175
4 235 392 393 73
4 235 393 392 175
4 129 128 81 32
4 129 81 128 374
4 255 81 128 32
4 255 128 81 374
4 373 251 10 282
4 373 10 251 167
4 251 373 374 81
4 251 374 373 167
4 375 248 376 77
4 375 376 248 170
4 248 375 13 282
4 248 13 375 170
4 398 232 399 69
4 398 399 232 188
4 232 398 17 283
4 232 17 398 188

CELL_TYPES 3088
1
1
1
1
1
1
1
1
1
1
1
1
1
1
1
1
1
1
1
1
1
1
1
1
1
1
1
1
1
1
1
1
1
1
1
1
1
1
1
1
1
1
1
1
1
1
1
1
1
1
1
1
1
1
1
1
1
1
1
1
1
1
1
1
1
1
1
1
1
1
1
1
1
1
1
1
1
1
1
1
1
1
3
3
3
3
3
3
3
3
3
3
3
3
3
3
3
3
3
3
3
3
3
3
3
3
3
3
3
3
3
3
3
3
3
3
3
3
3
3
3
3
3
3
3
3
3
3
3
3
3
3
3
3
3
3
3
3
3
3
3
3
3
3
3
3
3
3
3
3
3
3
3
3
3
3
3
3
3
3
3
3
3
3
3
3
3
3
3
3
3
3
3
3
3
3
3
3
3
3
3
3
3
3
3
3
3
3
3
3
3
3
3
3
3
3
3
3
3
3
3
3
3
3
3
3
3
3
3
3
3
3
3
3
3
3
3
3
3
3
3
3
3
3
3
3
3
3
3
3
3
3
3
3
3
3
3
3
3
3
3
3
3
3
3
3
3
3
3
3
3
3
3
3
3
3
3
3
3
3
3
3
3
3
3
3
3
3
3
3
3
3
3
3
3
3
3
3
3
3
3
3
3
3
3
3
3
3
3
3
3
3
3
3
3
3
3
3
3
3
3
3
3
3
3
3
3
3
3
3
3
3
3
3
3
3
3
3
3
3
3
3
3
3
3
3
3
3
3
3
3
3
3
3
3
3
3
3
3
3
3
3
3
3
3
3
3
3
3
3
3
3
3
3
3
3
3
3
3
3
3
3
3
3
3
3
3
3
3
3
3
3
3
3
3
3
3
3
3
3
5
5
5
5
5
5
5
5
5
5
5
5
5
5
5
5
5
5
5
5
5
5
5
5
5
5
5
5
5
5
5
5
5
5
5
5
5
5
5
5
5
5
5
5
5
5
5
5
5
5
5
5
5
5
5
5
5
5
5
5
5
5
5
5
5
5
5
5
5
5
5
5
5
5
5
5
5
5
5
5
5
5
5
5
5
5
5
5
5
5
5
5
5
5
5
5
5
5
5
5
5
5
5
5
5
5
5
5
5
5
5
5
5
5
5
5
5
5
5
5
5
5
5
5
5
5
5
5
5
5
5
5
5
5
5
5
5
5
5
5
5
5
5
5
5
5
5
5
5
5
5
5
5
5
5
5
5
5
5
5
5
5
5
5
5
5
5
5
5
5
5
5
5
5
5
5
5
5
5
5
5
5
5
5
5
5
5
5
5
5
5
5
5
5
5
5
5
5
5
5
5
5
5
5
5
5
5
5
5
5
5
5
5
5
5
5
5
5
5
5
5
5
5
5
5
5
5
5
5
5
5
5
5
5
5
5
5
5
5
5
5
5
5
5
5
5
5
5
5
5
5
5
5
5
5
5
5
5
5
5
5
5
5
5
5
5
5
5
5
5
5
5
5
5
5
5
5
5
5
5
5
5
5
5
5
5
5
5
5
5
5
5
5
5
5
5
5
5
5
5
5
5
5
5
5
5
5
5
5
5
5
5
5
5
5
5
5
5
5
5
5
5
5
5
5
5
5
5
5
5
5
5
5
5
5
5
5
5
5
5
5
5
5
5
5
5
5
5
5
5
5
5
5
5
5
5
5
5
5
5
5
5
5
5
5
5
5
5
5
5
5
5
5
5
5
5
5
5
5
5
5
5
5
5
5
5
5
5
5
5
5
5
5
5
5
5
5
5
5
5
5
5
5
5
5
5
5
5
5
5
5
5
5
5
5
5
5
5
5
5
5
5
5
5
5
5
5
5
5
5
5
5
5
5
5
5
5
5
5
5
5
5
5
5
5
5
5
5
5
5
5
5
5
5
5
5
5
5
5
5
5
5
5
5
5
5
5
5
5
5
5
5
5
5
5
5
5
5
5
5
5
5
5
5
5
5
5
5
5
5
5
5
5
5
5
5
5
5
5
5
5
5
5
5
5
5
5
5
5
5
5
5
5
5
5
5
5
5
5
5
5
5
5
5
5
5
5
5
5
5
5
5
5
5
5
5
5
5
5
5
5
5
5
5
5
5
5
5
5
5
5
5
5
5
5
5
5
5
5
5
5
5
5
5
5
5
5
5
5
5
5
5
5
5
5
5
5
5
5
5
5
5
5
5
5
5
5
5
5
5
5
5
5
5
5
5
5
5
5
5
5
5
5
5
5
5
5
5
5
5
5
5
5
5
5
5
5
5
5
5
5
5
5
5
5
5
5
5
5
5
5
5
5
5
5
5
5
5
5
5
5
5
5
5
5
5
5
5
5
5
5
5
5
5
5
5
5
5
5
5
5
5
5
5
5
5
5
5
5
5
5
5
5
5
5
5
5
5
5
5
5
5
5
5
5
5
5
5
5
5
5
5
5
5
5
5
5
5
5
5
5
5
5
5
5
5
5
5
5
5
5
5
5
5
5
5
5
5
5
5
5
5
5
5
5
5
5
5
5
5
5
5
5
5
5
5
5
5
5
5
5
5
5
5
5
5
5
5
5
5
5
5
5
5
5
5
5
5
5
5
5
5
5
5
5
5
5
5
5
5
5
5
5
5
5
5
5
5
5
5
5
5
5
5
5
5
5
5
5
5
5
5
5
5
5
5
5
5
5
5
5
5
5
5
5
5
5
5
5
5
5
5
5
5
5
5
5
5
5
5
5
5
5
5
5
5
5
5
5
5
5
5
5
5
5
5
5
5
5
5
5
5
5
5
5
5
5
5
5
5
5
5
5
5
5
5
5
5
5
5
5
5
5
5
5
5
5
5
5
5
5
5
5
5
5
5
5
5
5
5
5
5
5
5
5
5
5
5
5
5
5
5
5
5
5
5
5
5
5
5
5
5
5
5
5
5
5
5
5
5
5
5
5
5
5
5
5
5
5
5
5
5
5
5
5
5
5
5
5
5
5
5
5
5
5
5
5
5
5
5
5
5
5
5
5
5
5
5
5
5
5
5
5
5
5
5
5
5
5
5
5
5
5
5
5
5
5
5
5
5
5
5
5
5
5
5
5
5
5
5
5
5
5
5
5
5
5
5
5
5
5
5
5
5
5
5
5
5
5
5
5
5
5
5
5
5
5
5
5
5
5
5
5
5
5
5
5
5
5
5
5
5
5
5
5
5
5
5
5
5
5
5
5
5
5
5
5
5
5
5
5
5
5
5
5
5
5
5
5
5
5
5
5
5
5
5
5
5
5
5
10
10
10
10
10
10
10
10
10
10
10
10
10
10
10
10
10
10
10
10
10
10
10
10
10
10
10
10
10
10
10
10
10
10
10
10
10
10
10
10
10
10
10
10
10
10
10
10
10
10
10
10
10
10
10
10
10
10
10
10
10
10
10
10
10
10
10
10
10
10
10
10
10
10
10
10
10
10
10
10
10
10
10
10
10
10
10
10
10
10
10
10
10
10
10
10
10
10
10
10
10
10
10
10
10
10
10
10
10
10
10
10
10
10
10
10
10
10
10
10
10
10
10
10
10
10
10
10
10
10
10
10
10
10
10
10
10
10
10
10
10
10
10
10
10
10
10
10
10
10
10
10
10
10
10
10
10
10
10
10
10
10
10
10
10
10
10
10
10
10
10
10
10
10
10
10
10
10
10
10
10
10
10
10
10
10
10
10
10
10
10
10
10
10
10
10
10
10
10
10
10
10
10
10
10
10
10
10
10
10
10
10
10
10
10
10
10
10
10
10
10
10
10
10
10
10
10
10
10
10
10
10
10
10
10
10
10
10
10
10
10
10
10
10
10
10
10
10
10
10
10
10
10
10
10
10
10
10
10
10
10
10
10
10
10
10
10
10
10
10
10
10
10
10
10
10
10
10
10
10
10
10
10
10
10
10
10
10
10
10
10
10
10
10
10
10
10
10
10
10
10
10
10
10
10
10
10
10
10
10
10
10
10
10
10
10
10
10
10
10
10
10
10
10
10
10
10
10
10
10
10
10
10
10
10
10
10
10
10
10
10
10
10
10
10
10
10
10
10
10
10
10
10
10
10
10
10
10
10
10
10
10
10
10
10
10
10
10
10
10
10
10
10
10
10
10
10
10
10
10
10
10
10
10
10
10
10
10
10
10
10
10
10
10
10
10
10
10
10
10
10
10
10
10
10
10
10
10
10
10
10
10
10
10
10
10
10
10
10
10
10
10
10
10
10
10
10
10
10
10
10
10
10
10
10
10
10
10
10
10
10
10
10
10
10
10
10
10
10
10
10
10
10
10
10
10
10
10
10
10
10
10
10
10
10
10
10
10
10
10
10
10
10
10
10
10
10
10
10
10
10
10
10
10
10
10
10
10
10
10
10
10
10
10
10
10
10
10
10
10
10
10
10
10
10
10
10
10
10
10
10
10
10
10
10
10
10
10
10
10
10
10
10
10
10
10
10
10
10
10
10
10
10
10
10
10
10
10
10
10
10
10
10
10
10
10
10
10
10
10
10
10
10
10
10
10
10
10
10
10
10
10
10
10
10
10
10
10
10
10
10
10
10
10
10
10
10
10
10
10
10
10
10
10
10
10
10
10
10
10
10
10
10
10
10
10
10
10
10
10
10
10
10
10
10
10
10
10
10
10
10
10
10
10
10
10
10
10
10
10
10
10
10
10
10
10
10
10
10
10
10
10
10
10
10
10
10
10
10
10
10
10
10
10
10
10
10
10
10
10
10
10
10
10
10
10
10
10
10
10
10
10
10
10
10
10
10
10
10
10
10
10
10
10
10
10
10
10
10
10
10
10
10
10
10
10
10
10
10
10
10
10
10
10
10
10
10
10
10
10
10
10
10
10
10
10
10
10
10
10
10
10
10
10
10
10
10
10
10
10
10
10
10
10
10
10
10
10
10
10
10
10
10
10
10
10
10
10
10
10
10
10
10
10
10
10
10
10
10
10
10
10
10
10
10
10
10
10
10
10
10
10
10
10
10
10
10
10
10
10
10
10
10
10
10
10
10
10
10
10
10
10
10
10
10
10
10
10
10
10
10
10
10
10
10
10
10
10
10
10
10
10
10
10
10
10
10
10
10
10
10
10
10
10
10
10
10
10
10
10
10
10
10
10
10
10
10
10
10
10
10
10
10
10
10
10
10
10
10
10
10
10
10
10
10
10
10
10
10
10
10
10
10
10
10
10
10
10
10
10
10
10
10
10
10
10
10
10
10
10
10
10
10
10
10
10
10
10
10
10
10
10
10
10
10
10
10
10
10
10
10
10
10
10
10
10
10
10
10
10
10
10
10
10
10
10
10
10
10
10
10
10
10
10
10
10
10
10
10
10
10
10
10
10
10
10
10
10
10
10
10
10
10
10
10
10
10
10
10
10
10
10
10
10
10
10
10
10
10
10
10
10
10
10
10
10
10
10
10
10
10
10
10
10
10
10
10
10
10
10
10
10
10
10
10
10
10
10
10
10
10
10
10
10
10
10
10
10
10
10
10
10
10
10
10
10
10
10
10
10
10
10
10
10
10
10
10
10
10
10
10
10
10
10
10
10
10
10
10
10
10
10
10
10
10
10
10
10
10
10
10
10
10
10
10
10
10
10
10
10
10
10
10
10
10
10
10
10
10
10
10
10
10
10
10
10
10
10
10
10
10
10
10
10
10
10
10
10
10
10
10
10
10
10
10
10
10
10
10
10
10
10
10
10
10
10
10
10
10
10
10
10
10
10
10
10
10
10
10
10
10
10
10
10
10
10
10
10
10
10
10
10
10
10
10
10
10
10
10
10
10
10
10
10
10
10
10
10
10
10
10
10
10
10
10
10
10
10
10
10
10
10
10
10
10
10
10
10
10
10
10
10
10
10
10
10
10
10
10
10
10
10
10
10
10
10
10
10
10
10
10
10
10
10
10
10
10
10
10
10
10
10
10
10
10
10
10
10
10
10
10
10
10
10
10
10
10
10
10
10
10
10
10
10
10
10
10
10
10
10
10
10
10
10
10
10
10
10
10
10
10
10
10
10
10
10
10
10
10
10
10
10
10
10
10
10
10
10
10
10
10
10
10
10
10
10
10
10
10
10
10
10
10
10
10
10
10
10
10
10
10
10
10
10
10
10
10
10
10
10
10
10
10
10
10
10
10
10
10
10
10
10
10
10
10
10
10
10
10
10
10
10
10
10
10
10
10
10
10
10
10
10
10
10
10
10
10
10
10
10
10
10
10
10
10
10
10
10
10
10
10
10
10
10
10
10
10
10
10
10
10
10
10
10
10
10
10
10
10
10
10
10
10
10
10
10
10
10
10
10
10
10
10
10
10
10
10
10
10
10
10
10
10
10
10
10
10
10
10
10
10
10
10
10
10
10
10
10
10
10
10
10
10
10
10
10
10
10
10
10
10
10
10
10
10
10
10
10
10
10
10
10
10
10
10
10
10
10
10
10
10
10
10
10
10
10
10
10
10
10
10
10
10
10
10
10
10
10
10
10
10
10
10
10
10
10
10
10
10
10
10
10
10
10
10
10
10
10
10
10
10
10
10
10
10
10
10
10
10
10
10
10
10
10
10
10
10
10
10
10
10
10
10
10
10
10
10
10
10
10
10
10
10
10
10
10
10
10
10
10
10
10
10
10
10
10
10
10
10
10
10
10
10
10
10
10
10
10
10
10
10
10
10
10
10
10
10
10
10
10
10
10
10
10
10
10
10
10
10
10
10
10
10
10
10
10
10
10
10
10
10
10
10
10
10
10
10
10
10
10
10
10
10
10
10
10
10
10
10
10
10
10
10
10
10
10
10
10
10
10
10
10
10
10
10
10
10
10
10
10
10
10
10
10
10
10
10
10
10
10
10
10
10
10
10
10
10
10
10
10
10
10
10
10
10
10
10
10
10
10
10
10
10
10
10
10
10
10
10
10
10
10
10
10
10
10
10
10
10
10
10
10
10
10
10
10
10
10
10
10
10
10
10
10
10
10
10
10
