# vtk DataFile Version 2.0
, Created by Gmsh 4.11.1 
ASCII
DATASET UNSTRUCTURED_GRID
POINTS 502 double
8.75 0 -43.06123203525242
10.1062927255745 0 -41.81772485298552
10.1062927255745 0 -38.18227514701447
8.75 0 -36.93876796474758
8.75 0 -3
11.75 0 -3
11.75 0 0
-11.75 0 0
-11.75 0 -3
-8.75 0 -3
-8.75 1.071565949253934e-15 -36.93876796474758
-10.1062927255745 1.237663903762099e-15 -38.18227514701447
-10.1062927255745 1.237663903762099e-15 -41.81772485298552
-8.75 1.071565949253934e-15 -43.06123203525242
-8.75 1.071565949253934e-15 -76.93876796474758
-10.1062927255745 1.237663903762099e-15 -78.18227514701448
-10.1062927255745 1.237663903762099e-15 -81.81772485298552
-8.75 1.071565949253934e-15 -83.06123203525242
-8.75 0 -120
8.75 0 -120
8.75 0 -83.06123203525242
10.1062927255745 0 -81.81772485298552
10.1062927255745 0 -78.18227514701448
8.75 0 -76.93876796474758
8.749999999999998 5.057138781465271 -41.81772485298552
8.749999999999998 5.057138781465271 -38.18227514701447
8.749999999999998 5.057138781465271 -78.18227514701448
8.749999999999998 5.057138781465271 -81.81772485298552
8.75 5.226222943771313 -120
8.75 20 -114.5422421379473
8.75 20 -85.45775786205266
8.75 5.226222943771313 -80
8.75 20 -74.54224213794734
8.75 20 -45.45775786205267
8.75 5.226222943771313 -40
8.75 20 -34.54224213794733
8.75 20 -3
11.75 23 -3
-11.75 23 -3
-8.75 20 -3
11.75 23 0
-11.75 23 0
-8.75 5.057138781465267 -41.81772485298552
-8.75 5.057138781465267 -78.18227514701448
-8.75 5.057138781465267 -81.81772485298552
-8.75 5.226222943771313 -120
-8.75 20 -114.5422421379473
-8.75 20 -85.45775786205266
-8.75 5.226222943771313 -80
-8.75 20 -74.54224213794734
-8.75 20 -45.45775786205267
-8.75 5.226222943771313 -40
-8.75 20 -34.54224213794733
-8.75 5.057138781465267 -38.18227514701447
8.650072045769233 5.226222943771313 -80
-8.650072045769235 5.226222943771313 -80
8.650072045769233 5.226222943771313 -40
-8.650072045769235 5.226222943771313 -40
2.54494624749493 4.123493111713508 -83.06123203525242
-2.544946247494929 4.123493111713508 -83.06123203525242
4.632538775595071 4.123493111713508 -81.81772485298552
-4.632538775595071 4.123493111713508 -81.81772485298552
4.632538775595071 4.123493111713508 -78.18227514701448
2.54494624749493 4.123493111713508 -76.93876796474758
-2.544946247494929 4.123493111713508 -76.93876796474758
-4.632538775595071 4.123493111713508 -78.18227514701448
2.54494624749493 4.123493111713508 -43.06123203525242
-2.544946247494929 4.123493111713508 -43.06123203525242
4.632538775595071 4.123493111713508 -41.81772485298552
-4.632538775595071 4.123493111713508 -41.81772485298552
4.632538775595071 4.123493111713508 -38.18227514701448
2.54494624749493 4.123493111713508 -36.93876796474758
-2.544946247494929 4.123493111713508 -36.93876796474758
-4.632538775595071 4.123493111713508 -38.18227514701448
8.75 0 -30.15101437179808
8.75 0 -23.36326077884856
8.75 0 -16.57550718589903
8.75 0 -9.787753592949514
5.875000000000016 0 0
3.730349362740526e-14 0 0
-5.874999999999972 0 0
-8.75 0 -9.787753592949514
-8.75 0 -16.57550718589904
-8.75 0 -23.36326077884857
-8.75 0 -30.15101437179809
-8.75 0 -49.83673922115145
-8.75 0 -56.61224640705046
-8.75 0 -63.38775359294949
-8.75 0 -70.16326077884851
-8.75 0 -89.21769336271035
-8.75 0 -95.37415469016828
-8.75 0 -101.5306160176262
-8.75 0 -107.6870773450841
-8.75 0 -113.8435386725421
2.916666666666666 0 -120
-2.916666666666668 0 -120
8.75 0 -89.21769336271035
8.75 0 -95.37415469016828
8.75 0 -101.5306160176262
8.75 0 -107.6870773450841
8.75 0 -113.8435386725421
8.75 0 -49.83673922115145
8.75 0 -56.61224640705046
8.75 0 -63.38775359294949
8.75 0 -70.16326077884851
8.749999999999998 2.594567629339377 -42.7159764913753
8.749999999999998 5.057138781465271 -40
8.749999999999998 2.594567629339375 -37.2840235086247
8.749999999999998 2.594567629339375 -77.2840235086247
8.749999999999998 2.594567629339377 -82.7159764913753
8.75 10.15081529584754 -118.1807473793158
8.75 15.07540764792376 -116.3614947586316
8.75 20 -108.7253452827684
8.75 20 -102.9084484275895
8.75 20 -97.09155157241057
8.75 20 -91.27465471723161
8.75 15.07540764792378 -83.63850524136843
8.75 10.15081529584755 -81.81925262068422
8.75 10.15081529584754 -78.18074737931578
8.75 15.07540764792376 -76.36149475863157
8.75 20 -68.72534528276842
8.75 20 -62.9084484275895
8.75 20 -57.09155157241057
8.75 20 -51.27465471723161
8.75 15.07540764792378 -43.63850524136845
8.75 10.15081529584755 -41.81925262068422
8.75 10.15081529584754 -38.18074737931578
8.75 15.07540764792376 -36.36149475863156
8.75 20 -28.23379371035787
8.75 20 -21.92534528276843
8.75 20 -15.61689685517896
8.75 20 -9.308448427589468
8.75 6.666666666666651 -3
8.75 13.33333333333329 -3
-5.875000000000016 23 -3
-3.730349362740526e-14 23 -3
5.874999999999972 23 -3
-11.75 5.749999999999988 -3
-11.75 11.49999999999999 -3
-11.75 17.24999999999999 -3
-8.75 13.33333333333335 -3
-8.75 6.666666666666705 -3
-2.916666666666666 20 -3
2.916666666666668 20 -3
11.75 5.749999999999988 -3
11.75 11.49999999999999 -3
11.75 17.24999999999999 -3
11.75 5.749999999999988 0
11.75 11.49999999999999 0
11.75 17.24999999999999 0
-5.875000000000016 23 0
-3.730349362740526e-14 23 0
5.874999999999972 23 0
-11.75 5.749999999999988 0
-11.75 11.49999999999999 0
-11.75 17.24999999999999 0
-8.750000000000002 2.594567629339374 -42.71597649137529
-8.750000000000002 2.594567629339374 -77.2840235086247
-8.75 5.057138781465267 -80
-8.750000000000002 2.594567629339374 -82.7159764913753
-8.75 10.15081529584754 -118.1807473793158
-8.75 15.07540764792376 -116.3614947586316
-8.75 20 -108.7253452827684
-8.75 20 -102.9084484275895
-8.75 20 -97.09155157241057
-8.75 20 -91.27465471723161
-8.75 15.07540764792378 -83.63850524136843
-8.75 10.15081529584755 -81.81925262068422
-8.75 10.15081529584754 -78.18074737931578
-8.75 15.07540764792376 -76.36149475863157
-8.75 20 -68.72534528276842
-8.75 20 -62.9084484275895
-8.75 20 -57.09155157241057
-8.75 20 -51.27465471723161
-8.75 15.07540764792378 -43.63850524136845
-8.75 10.15081529584755 -41.81925262068422
-8.75 10.15081529584754 -38.18074737931578
-8.75 15.07540764792376 -36.36149475863156
-8.75 20 -9.308448427589461
-8.75 20 -15.61689685517891
-8.75 20 -21.92534528276838
-8.75 20 -28.23379371035787
-8.750000000000002 2.594567629339374 -37.2840235086247
-8.75 5.057138781465267 -40
2.916666666666666 5.226222943771313 -120
-2.916666666666668 5.226222943771313 -120
2.916666666666666 20 -114.5422421379473
-2.916666666666668 20 -114.5422421379473
2.916666666666666 20 -85.45775786205266
-2.916666666666668 20 -85.45775786205266
5.025570255864886 8.768169493022256 -81.30847288087338
1.237663903762099e-15 10.1062927255745 -81.80280500495118
-5.025570255864875 8.768169493022262 -81.30847288087338
2.916666666666666 20 -74.54224213794734
-2.916666666666668 20 -74.54224213794734
-5.02557025586489 8.768169493022254 -78.69152711912662
-1.145151890955183e-14 10.1062927255745 -78.19719499504882
5.025570255864871 8.768169493022263 -78.6915271191266
2.916666666666666 20 -45.45775786205267
-2.916666666666668 20 -45.45775786205267
5.025570255864886 8.768169493022256 -41.30847288087339
1.237663903762099e-15 10.1062927255745 -41.80280500495118
-5.025570255864875 8.768169493022262 -41.30847288087339
2.916666666666666 20 -34.54224213794733
-2.916666666666668 20 -34.54224213794733
-5.02557025586489 8.768169493022254 -38.69152711912661
-1.145151890955183e-14 10.1062927255745 -38.19719499504882
5.025570255864871 8.768169493022263 -38.69152711912661
-2.931117295324367e-15 4.845611090975757 -83.06123203525242
2.664535259100376e-15 4.123493111713508 -83.06123203525242
3.611638559394001 4.123493111713508 -82.47819794377406
-7.882838613495771e-15 6.201903816550256 -81.81772485298552
-3.611638559394001 4.123493111713508 -82.47819794377406
3.611638559394001 4.123493111713508 -77.52180205622594
0 4.123493111713508 -76.93876796474758
-3.611638559394001 4.123493111713508 -77.52180205622594
-7.882838613495771e-15 6.201903816550256 -78.18227514701448
-2.931117295324367e-15 4.845611090975757 -76.93876796474758
-2.931117295324367e-15 4.845611090975757 -43.06123203525242
2.664535259100376e-15 4.123493111713508 -43.06123203525242
3.611638559394001 4.123493111713508 -42.47819794377407
-7.882838613495771e-15 6.201903816550256 -41.81772485298552
-3.611638559394001 4.123493111713508 -42.47819794377407
3.611638559394001 4.123493111713508 -37.52180205622594
0 4.123493111713508 -36.93876796474758
-3.611638559394001 4.123493111713508 -37.52180205622594
-7.882838613495771e-15 6.201903816550256 -38.18227514701447
-2.931117295324367e-15 4.845611090975757 -36.93876796474758
5.096961794777507 0 -86.92161175925864
3.119104212524553 0 -46.37090042651064
-3.071920473939237 0 -73.23479377543518
-3.909775492116627 0 -33.71550661311681
8.881784197001252e-16 0 -115.2230463921511
-7.799653036273487 0 -80.71039931851269
2.700652411952513 0 -104.6088466813552
7.129548655839004 0 -79.28002128583211
-8.512749487269765 0 -40
7.177522759957197 0 -39.26833766126978
-2.884808588185154 0 -4.21319842241418
-3.746257051594347 0 -61.39847025140573
2.871632953876618 0 -19.9693839823738
-4.581268363391046 0 -84.45702440879538
-3.356641482615259 0 -42.41264969237296
-2.763370978214906 0 -98.44487241485365
4.349178990115567 0 -73.55101437179806
4.945293397581237 0 -33.91345469585949
-2.871632953876619 0 -13.18163038942427
3.65628828978925 0 -5.79878171987518
0.7095586766549431 0 -79.76236079425595
0.1140719003573052 0 -67.10815481894925
-2.90378031357172 0 -27.11707417023365
3.083442076850345 0 -52.55209130224979
3.27554504493733 0 -92.19284650276131
-2.557294519782034 0 -48.6246406746192
3.606867773015919 0 -98.4466278329309
-3.594849049444769 0 -91.31239065274929
-4.295875631950877 0 -104.6073440935465
3.735524339647688 0 -27.60921103675133
2.650000272012939 0 -60.28010019081889
3.470349029849143 0 -12.58233252678565
-4.080756062714346 0 -20.04137130135587
0.9431732755698539 0 -37.77689469437216
3.597981002124862 0 -111.1499985573465
-3.378736097751255 0 -110.5800403150046
-3.123489168800346 0 -54.66759937055284
-4.428976148698735 0 -78.35662126922061
-6.036672010697756 0 -46.44898562820193
0.9358686720806961 0 -86.09912807936381
-5.001744893231364 0 -66.775507185899
5.001744893231361 0 -66.775507185899
-1.020528092549941 0 -8.433963970994807
4.52438755987043 0 -83.02487079079259
3.326631753087269 0 -41.77800290195559
4.802929533758306 0 -116.0433167244079
-4.696218844918998 0 -115.8624983572751
-4.717198637286359 0 -38.1687637929219
-4.855393926922344 0 -7.723309275156552
0.4014907438729152 0 -31.77347109330318
9.707119677807061 2.812290919469565 -40
8.749999999999998 10.83734078488073 -88.53591316813193
8.749999999999998 15.04140029601485 -105.6112553498988
8.749999999999998 15.15806301009408 -60.40284402733323
8.749999999999998 10.73232359503904 -72.55257021612985
8.749999999999998 10.73212953095311 -47.44689775409225
8.749999999999998 10.78455199247983 -32.45713382486252
8.749999999999998 14.79138260656309 -18.89286527152211
8.749999999999998 5.331651906995031 -98.45238535389726
8.749999999999998 4.708282431241987 -35.08699832300259
8.749999999999998 4.703688541946249 -44.90377540595722
8.749999999999998 4.704272997342061 -75.09462230028016
8.749999999999998 4.672852279435664 -84.87191332203463
8.749999999999998 5.421569342892967 -110.3708618914019
8.749999999999998 9.999999999999973 -8.77350269189624
8.749999999999998 15.27595492863861 -93.4404134062641
8.749999999999998 5.806370907157295 -59.26268261838185
8.749999999999998 5.353838011720982 -19.51722558040197
8.749999999999998 6.353321462261402 -26.9293185376215
8.749999999999998 13.34017427208624 -26.07976733299463
8.749999999999998 5.654966880101403 -51.93736949670972
8.749999999999998 5.989412326159028 -66.83071795255641
8.749999999999998 10.48919784558435 -113.2710512333907
8.749999999999998 12.98673048757795 -54.72455332655843
8.749999999999998 14.06030178622998 -66.43827710762876
8.749999999999998 5.095098513848391 -91.97103576451846
8.749999999999998 5.33165190699502 -104.6088466813552
8.749999999999998 14.97047135512293 -99.32607324399291
8.749999999999998 5.174689702908255 -13.04822831284726
8.749999999999998 14.94962568251821 -12.52792256922786
8.749999999999998 15.89614145812913 -31.49292394472845
8.749999999999998 16.23774067228862 -88.46944887900975
8.749999999999998 16.0174970392992 -71.69821670340309
8.749999999999998 15.58977656195429 -111.3271151466782
8.749999999999998 15.75885353329097 -48.50847378026068
8.749999999999998 5.214634238016028 -115.9443665294417
8.749999999999998 9.836961390863102 -107.6848335906376
8.749999999999998 9.845297277174257 -101.6119125609152
8.749999999999998 10.26073401130014 -15.51061217335327
8.749999999999998 9.858177342515521 -95.42156572362268
8.749999999999998 4.859212616883426 -7.892535876787719
8.749999999999998 15.6565918031703 -7.321974737742721
8.749999999999998 10.4077484876127 -21.69454226050794
8.749999999999998 10.69015134513601 -61.6696450436844
10.25 3.10416666666666 -3
-10.25 3.104166666666674 -3
11.75 20.125 -1.5
11.75 14.37499999999999 -1.5
11.75 8.624999999999989 -1.5
11.75 2.874999999999994 -1.5
3.157610638484556 18.22886740495933 0
-2.707174061168088 4.878797530676509 0
7.069955745470663 8.716546370640001 0
-6.619519168154191 14.39111856499582 0
7.102873022115112 14.37499999999999 0
0.1126091443291166 11.52691623390895 0
-7.000954855602268 8.644857627020135 0
-2.792058517349997 18.15992185565015 0
2.948495529093417 4.721447277005962 0
-7.528051718759414 18.81262893003678 0
7.528051718759418 4.187371069963205 0
7.820492259183636 19.07601590637069 0
-7.553981076842913 4.160878030182232 0
-11.75 20.125 -1.5
-11.75 14.37499999999999 -1.5
-11.75 8.624999999999988 -1.5
-11.75 2.874999999999994 -1.5
-8.750000000000002 10.83717444423565 -88.53545714260801
-8.750000000000002 15.04140029601485 -105.6112553498988
-8.750000000000002 15.15806301009408 -60.40284402733323
-8.750000000000002 10.73212953095311 -72.55310224590775
-8.750000000000002 10.73212953095311 -47.44689775409225
-8.750000000000002 10.78455199247983 -32.45713382486252
-8.750000000000002 14.79138260656311 -18.89286527152207
-8.750000000000002 5.331651906995031 -98.45238535389726
-8.750000000000002 4.703688541946246 -44.90377540595722
-8.750000000000002 4.708282431241983 -35.08699832300259
-8.750000000000002 4.672269844698801 -84.87031656794068
-8.750000000000002 4.703688541946244 -75.09622459404278
-8.750000000000002 5.421569342892967 -110.3708618914019
-8.750000000000002 10.00000000000003 -8.77350269189624
-8.750000000000002 15.27592720519777 -93.4403374020101
-8.750000000000002 5.806370907157294 -59.26268261838185
-8.750000000000002 5.353838011720999 -19.51722558040197
-8.750000000000002 6.353321462261405 -26.9293185376215
-8.750000000000002 13.34017427208624 -26.07976733299461
-8.750000000000002 5.654966880101401 -51.93736949670972
-8.750000000000002 5.989383375443488 -66.83079732140349
-8.750000000000002 10.48919784558436 -113.2710512333907
-8.750000000000002 12.98673048757795 -54.72455332655843
-8.750000000000002 14.06026992697262 -66.43836445028947
-8.750000000000002 5.0949737179514 -91.97069363458215
-8.750000000000002 5.33165190699502 -104.6088466813552
-8.750000000000002 14.97046673454945 -99.32606057661725
-8.750000000000002 5.174689702908282 -13.04822831284727
-8.750000000000002 14.94962568251825 -12.52792256922783
-8.750000000000002 15.89614145812913 -31.49292394472844
-8.750000000000002 16.23770185947144 -88.46934247305417
-8.750000000000002 15.75885353329097 -48.50847378026068
-8.750000000000002 16.01746476453587 -71.69830518518005
-8.750000000000002 15.5897765619543 -111.3271151466782
-8.750000000000002 5.21463423801603 -115.9443665294417
-8.750000000000002 9.836961390863102 -107.6848335906376
-8.750000000000002 9.845297076712059 -101.6119120113449
-8.750000000000002 10.2607340113002 -15.51061217335321
-8.750000000000002 9.85816329971137 -95.42152722505176
-8.750000000000002 4.859212616883455 -7.892535876787726
-8.750000000000002 15.65659180317033 -7.321974737742707
-8.750000000000002 10.40774848761272 -21.69454226050792
-8.750000000000002 10.69014265799703 -61.66966885961408
-9.707119677807063 2.812290919469561 -40
-9.707119677807061 2.812290919469565 -80
5.833333333333333 2.613111471885656 -120
-5.833333333333334 2.613111471885656 -120
0 2.613111471885656 -120
9.761028825514819 2.619058785607688 -80
-4.861111111111109 12.61311147188565 -117.2711210689737
4.861111111111111 12.61311147188565 -117.2711210689737
-1.77635683940025e-15 15.76086248994948 -116.1082726787999
-1.77635683940025e-15 9.46536045382183 -118.4339694591475
5.055555555555555 8.536346621819529 -118.7771675814874
5.055555555555555 16.68987632195178 -115.76507455646
-5.055555555555557 16.68987632195178 -115.76507455646
-5.055555555555557 8.536346621819529 -118.7771675814874
3.889427465374086 20 -100
1.77635683940025e-15 20 -89.77493508121066
1.77635683940025e-15 20 -110.2250649187894
-1.944367504946559 20 -100
3.4506848613205 20 -105.6181747896772
3.450684861320495 20 -94.38182521032287
-3.84365270492351 20 -105.9925350992869
-3.843652704923503 20 -94.00746490071319
-4.519308352671185 20 -89.68394423675817
4.51930835267119 20 -89.68394423675818
-4.519308352671207 20 -110.3160557632419
4.519308352671207 20 -110.3160557632419
-4.726483931533032 12.97945302844558 -82.86421355147591
4.726483931533036 12.97945302844558 -82.86421355147591
-1.77635683940025e-15 16.23832918434352 -84.06811400926773
5.54007414466956 17.29023084589362 -84.45670959600098
-5.540074144669559 17.29023084589362 -84.45670959600098
4.726483931533032 12.97945302844558 -77.13578644852407
-4.726483931533036 12.97945302844558 -77.13578644852409
-1.77635683940025e-15 16.23832918434353 -75.93188599073225
-5.54007414466956 17.29023084589362 -75.54329040399902
5.54007414466956 17.29023084589362 -75.54329040399902
3.889427465374086 20 -60.00000000000003
1.77635683940025e-15 20 -49.77493508121065
1.77635683940025e-15 20 -70.22506491878939
-1.944367504946559 20 -60.00000000000003
3.4506848613205 20 -65.61817478967717
3.450684861320495 20 -54.38182521032287
-3.843652704923503 20 -54.00746490071318
-3.84365270492351 20 -65.99253509928687
4.51930835267119 20 -49.68394423675817
-4.519308352671207 20 -70.31605576324186
-4.519308352671185 20 -49.68394423675817
4.519308352671207 20 -70.31605576324186
-4.726483931533034 12.97945302844558 -42.86421355147592
4.726483931533036 12.97945302844558 -42.86421355147592
-1.77635683940025e-15 16.23832918434352 -44.06811400926774
5.54007414466956 17.29023084589362 -44.45670959600098
-5.540074144669559 17.29023084589362 -44.45670959600098
4.726483931533032 12.97945302844558 -37.13578644852408
-4.726483931533036 12.97945302844558 -37.13578644852408
-1.77635683940025e-15 16.23832918434353 -35.93188599073226
5.54007414466956 17.29023084589362 -35.54329040399902
-5.54007414466956 17.29023084589362 -35.54329040399902
1.77635683940025e-15 20 -8.051814855409225
1.77635683940025e-15 20 -29.49042728253811
3.286723403243533 20 -18.77112106897369
-3.286723403243533 20 -18.77112106897364
-3.206101212161835 20 -24.85611553024355
3.206101212161833 20 -12.68612660770378
-3.691768337165819 20 -11.95947163415664
3.691768337165819 20 -25.58277050379069
4.569987831913215 20 -30.21982014786251
-4.569987831913211 20 -7.322421990084818
-4.569987831913215 20 -30.21982014786251
4.569987831913215 20 -7.322421990084818
8.812499999999986 23 -1.5
2.937499999999966 23 -1.5
-8.812500000000007 23 -1.5
-2.937500000000027 23 -1.499999999999999
-2.465305068164052 4.123493111713508 -81.48019462495861
2.56156537174015 4.123493111713508 -81.82433501924113
-2.387323666091429 4.123493111713508 -78.23603858027522
1.901238038727813 4.123493111713508 -79.38376944627144
2.538710625759254 5.658494438311103 -79.9481541660795
-2.538710625759262 5.6584944383111 -80.0518458339205
2.561565371740151 4.123493111713508 -41.82433501924114
-2.391499890562836 4.123493111713508 -41.69556103526085
1.901238038727813 4.123493111713508 -39.38376944627144
-2.45645118013941 4.123493111713508 -38.44893724241761
2.541588170337291 5.657202535011644 -40
-2.535832424499914 5.659784877943288 -40
-1.619355588555152 6.85003313798984 -79.96500118609355
1.636514823966779 6.846333128179764 -40.033001147983
-5.058006104263768e-05 9.515665933643037 -90.95876330125759
-3.552713678800501e-15 9.624393239797957 -51.41328289508075
0.1003855664165374 9.607213852300255 -68.65853317857845
0.2342138180878457 9.547314301426837 -28.90893503709945
1.272473123747465 4.484552101344637 -71.23674430450586
-1.77635683940025e-15 11.28660322853358 -108.4154948101222
3.552713678800501e-15 11.39309624885385 -11.47799031548243
0.6267066040413121 8.020208977580602 -99.41538075679929
-1.272473123747463 4.484552101344622 -88.40493726670439
-1.272473123747465 4.484552101344628 -32.30746563150004
1.209841219389174 12.3506859032717 -59.01383093818379
-0.1328198315493871 8.477802292533855 -19.98584311126243
1.272473123747466 4.484552101344643 -48.00517255654317
-2.612092380015393 5.632193782443385 -113.604047016709
-3.663846072182642 8.302494890648971 -46.47927578201364
-3.618626979293169 8.126244254316315 -73.16609147483663
2.38408708403432 8.402191404253632 -33.69596428032509
3.837175064215891 8.060623317534155 -86.70071022999075
1.988949021338889 14.13106895583155 -5.832258538010857
2.817100484207139 13.72240692856111 -102.4831490554994
-2.317500499651838 8.167521609394292 -85.32303082206391
2.317500499651832 8.167521609394289 -74.6769691779361
2.31750049965183 8.167521609394282 -45.32303082206388
-2.735128762155379 13.24531877353069 -96.28573984272148
0.9892173608578099 6.476769779601113 -6.533075323764158
3.356043260108821 7.350706857174259 -112.8775348427512

CELLS 2749 12057
1 0
1 1
1 2
1 3
1 4
1 5
1 6
1 7
1 8
1 9
1 10
1 11
1 12
1 13
1 14
1 15
1 16
1 17
1 18
1 19
1 20
1 21
1 22
1 23
1 24
1 25
1 26
1 27
1 28
1 29
1 30
1 31
1 32
1 33
1 34
1 35
1 36
1 37
1 38
1 39
1 40
1 41
1 42
1 43
1 44
1 45
1 46
1 47
1 48
1 49
1 50
1 51
1 52
1 53
1 54
1 55
1 56
1 57
1 58
1 59
1 60
1 61
1 62
1 63
1 64
1 65
1 66
1 67
1 68
1 69
1 70
1 71
1 72
1 73
2 0 1
2 1 2
2 2 3
2 3 74
2 74 75
2 75 76
2 76 77
2 77 4
2 4 5
2 5 6
2 6 78
2 78 79
2 79 80
2 80 7
2 8 7
2 8 9
2 9 81
2 81 82
2 82 83
2 83 84
2 84 10
2 11 10
2 12 11
2 13 12
2 13 85
2 85 86
2 86 87
2 87 88
2 88 14
2 15 14
2 16 15
2 17 16
2 17 89
2 89 90
2 90 91
2 91 92
2 92 93
2 93 18
2 19 94
2 94 95
2 95 18
2 20 96
2 96 97
2 97 98
2 98 99
2 99 100
2 100 19
2 20 21
2 21 22
2 22 23
2 0 101
2 101 102
2 102 103
2 103 104
2 104 23
2 1 24
2 24 105
2 105 0
2 24 106
2 106 25
2 2 25
2 3 107
2 107 25
2 23 108
2 108 26
2 26 27
2 27 109
2 109 20
2 19 28
2 28 110
2 110 111
2 111 29
2 29 112
2 112 113
2 113 114
2 114 115
2 115 30
2 30 116
2 116 117
2 117 31
2 31 118
2 118 119
2 119 32
2 32 120
2 120 121
2 121 122
2 122 123
2 123 33
2 33 124
2 124 125
2 125 34
2 34 126
2 126 127
2 127 35
2 35 128
2 128 129
2 129 130
2 130 131
2 131 36
2 4 132
2 132 133
2 133 36
2 38 134
2 134 135
2 135 136
2 136 37
2 8 137
2 137 138
2 138 139
2 139 38
2 39 140
2 140 141
2 141 9
2 39 142
2 142 143
2 143 36
2 5 144
2 144 145
2 145 146
2 146 37
2 6 147
2 147 148
2 148 149
2 149 40
2 37 40
2 41 150
2 150 151
2 151 152
2 152 40
2 7 153
2 153 154
2 154 155
2 155 41
2 38 41
2 42 156
2 156 13
2 14 157
2 157 43
2 44 158
2 158 43
2 44 159
2 159 17
2 18 45
2 45 160
2 160 161
2 161 46
2 46 162
2 162 163
2 163 164
2 164 165
2 165 47
2 47 166
2 166 167
2 167 48
2 48 168
2 168 169
2 169 49
2 49 170
2 170 171
2 171 172
2 172 173
2 173 50
2 50 174
2 174 175
2 175 51
2 51 176
2 176 177
2 177 52
2 39 178
2 178 179
2 179 180
2 180 181
2 181 52
2 10 182
2 182 53
2 42 183
2 183 53
2 53 11
2 42 12
2 43 15
2 44 16
2 28 184
2 184 185
2 185 45
2 21 27
2 22 26
2 29 186
2 186 187
2 187 46
2 30 188
2 188 189
2 189 47
2 31 54
2 54 190
2 190 191
2 191 192
2 192 55
2 55 48
2 32 193
2 193 194
2 194 49
2 55 195
2 195 196
2 196 197
2 197 54
2 33 198
2 198 199
2 199 50
2 34 56
2 56 200
2 200 201
2 201 202
2 202 57
2 57 51
2 35 203
2 203 204
2 204 52
2 57 205
2 205 206
2 206 207
2 207 56
2 58 208
2 208 59
2 59 209
2 209 58
2 58 210
2 210 60
2 60 211
2 211 61
2 61 212
2 212 59
2 60 62
2 62 213
2 213 63
2 63 214
2 214 64
2 64 215
2 215 65
2 61 65
2 62 216
2 216 65
2 63 217
2 217 64
2 66 218
2 218 67
2 67 219
2 219 66
2 66 220
2 220 68
2 68 221
2 221 69
2 69 222
2 222 67
2 68 70
2 70 223
2 223 71
2 71 224
2 224 72
2 72 225
2 225 73
2 69 73
2 70 226
2 226 73
2 71 227
2 227 72
3 1 237 0
3 0 229 101
3 0 272 229
3 237 272 0
3 2 237 1
3 3 237 2
3 74 245 3
3 3 245 237
3 6 4 5
3 6 78 4
3 4 247 77
3 78 247 4
3 8 9 7
3 7 9 80
3 9 238 80
3 81 276 9
3 9 276 238
3 11 236 10
3 10 231 84
3 10 275 231
3 236 275 10
3 12 236 11
3 13 236 12
3 85 266 13
3 13 242 236
3 13 266 242
3 15 233 14
3 14 230 88
3 14 265 230
3 233 265 14
3 16 233 15
3 17 233 16
3 89 241 17
3 17 241 233
3 18 274 93
3 95 274 18
3 19 273 94
3 100 273 19
3 21 235 20
3 20 228 96
3 20 271 228
3 235 271 20
3 22 235 21
3 23 235 22
3 104 244 23
3 23 244 235
3 75 257 74
3 74 257 245
3 76 240 75
3 240 257 75
3 77 259 76
3 76 259 240
3 247 259 77
3 79 247 78
3 80 238 79
3 238 247 79
3 82 246 81
3 246 276 81
3 83 260 82
3 82 260 246
3 84 250 83
3 250 260 83
3 231 250 84
3 86 264 85
3 85 264 253
3 253 266 85
3 87 239 86
3 239 264 86
3 88 268 87
3 87 268 239
3 230 268 88
3 90 255 89
3 89 255 241
3 91 243 90
3 243 255 90
3 92 256 91
3 91 256 243
3 93 263 92
3 92 263 256
3 93 274 263
3 94 232 95
3 94 273 232
3 232 274 95
3 96 252 97
3 228 252 96
3 97 254 98
3 252 254 97
3 98 234 99
3 98 254 234
3 99 262 100
3 234 262 99
3 262 273 100
3 101 251 102
3 229 251 101
3 102 258 103
3 251 258 102
3 103 269 104
3 258 269 103
3 104 269 244
3 228 267 252
3 228 271 267
3 242 253 229
3 229 272 242
3 229 253 251
3 230 248 244
3 244 249 230
3 230 265 248
3 249 268 230
3 231 277 250
3 231 275 261
3 261 277 231
3 262 263 232
3 232 273 262
3 263 274 232
3 241 265 233
3 234 254 243
3 243 256 234
3 256 263 234
3 234 263 262
3 244 248 235
3 248 271 235
3 242 275 236
3 245 261 237
3 261 272 237
3 238 270 247
3 238 276 270
3 249 258 239
3 239 268 249
3 258 264 239
3 240 259 246
3 246 260 240
3 250 257 240
3 240 260 250
3 248 265 241
3 241 267 248
3 255 267 241
3 242 266 253
3 242 272 261
3 261 275 242
3 243 254 252
3 252 255 243
3 244 269 249
3 257 277 245
3 245 277 261
3 259 270 246
3 270 276 246
3 247 270 259
3 267 271 248
3 249 269 258
3 250 277 257
3 253 264 251
3 251 264 258
3 252 267 255
3 0 105 1
3 1 105 24
3 1 278 2
3 24 278 1
3 2 278 25
3 106 278 24
3 25 278 106
3 2 107 3
3 2 25 107
3 101 288 0
3 0 288 105
3 3 287 74
3 107 287 3
3 77 318 4
3 4 318 132
3 28 313 19
3 19 313 100
3 96 290 20
3 20 290 109
3 23 289 104
3 108 289 23
3 24 34 106
3 24 125 34
3 105 288 24
3 24 288 125
3 34 25 106
3 126 25 34
3 25 287 107
3 126 287 25
3 31 26 27
3 118 26 31
3 26 289 108
3 118 289 26
3 27 117 31
3 109 290 27
3 27 290 117
3 110 313 28
3 29 311 111
3 112 311 29
3 30 309 115
3 116 309 30
3 32 310 119
3 120 310 32
3 33 312 123
3 124 312 33
3 35 308 127
3 128 308 35
3 36 319 131
3 133 319 36
3 74 296 75
3 287 296 74
3 75 295 76
3 75 296 295
3 76 306 77
3 295 306 76
3 306 318 77
3 97 303 96
3 96 303 290
3 98 286 97
3 286 303 97
3 99 304 98
3 98 304 286
3 100 291 99
3 291 304 99
3 100 313 291
3 102 298 101
3 101 298 288
3 103 294 102
3 294 298 102
3 104 299 103
3 103 299 294
3 289 299 104
3 111 300 110
3 300 313 110
3 111 311 300
3 113 280 112
3 280 311 112
3 114 305 113
3 113 305 280
3 115 293 114
3 293 305 114
3 115 309 293
3 117 279 116
3 279 309 116
3 117 290 279
3 119 282 118
3 282 289 118
3 119 310 282
3 121 302 120
3 302 310 120
3 122 281 121
3 281 302 121
3 123 301 122
3 122 301 281
3 123 312 301
3 125 283 124
3 283 312 124
3 125 288 283
3 127 284 126
3 284 287 126
3 127 308 284
3 129 297 128
3 297 308 128
3 130 285 129
3 285 297 129
3 131 307 130
3 130 307 285
3 131 319 307
3 132 292 133
3 132 318 292
3 292 319 133
3 290 303 279
3 293 309 279
3 279 317 293
3 303 317 279
3 305 315 280
3 280 314 311
3 280 315 314
3 301 321 281
3 281 321 302
3 282 299 289
3 282 302 299
3 282 310 302
3 288 298 283
3 298 301 283
3 301 312 283
3 284 296 287
3 284 297 296
3 284 308 297
3 285 320 297
3 307 316 285
3 316 320 285
3 286 317 303
3 304 315 286
3 315 317 286
3 291 313 300
3 300 314 291
3 291 314 304
3 306 316 292
3 292 318 306
3 292 316 307
3 307 319 292
3 293 317 305
3 294 301 298
3 299 321 294
3 294 321 301
3 296 320 295
3 295 316 306
3 295 320 316
3 297 320 296
3 302 321 299
3 311 314 300
3 314 315 304
3 305 317 315
3 5 4 322
3 4 132 322
3 144 5 322
3 9 8 323
3 8 137 323
3 141 9 323
3 36 136 37
3 146 36 37
3 146 133 36
3 36 143 136
3 38 134 39
3 139 38 39
3 134 142 39
3 139 39 140
3 133 145 132
3 145 144 132
3 132 144 322
3 146 145 133
3 142 134 135
3 143 135 136
3 143 142 135
3 138 141 137
3 137 141 323
3 138 139 140
3 141 138 140
3 5 327 6
3 144 327 5
3 6 327 147
3 40 324 37
3 37 324 146
3 149 324 40
3 145 326 144
3 144 326 147
3 147 327 144
3 146 325 145
3 145 325 148
3 148 326 145
3 146 324 149
3 149 325 146
3 147 326 148
3 148 325 149
3 6 338 78
3 147 338 6
3 80 340 7
3 7 340 153
3 40 339 149
3 152 339 40
3 41 337 150
3 155 337 41
3 78 336 79
3 78 338 336
3 79 329 80
3 79 336 329
3 329 340 80
3 148 330 147
3 330 338 147
3 149 332 148
3 148 332 330
3 149 339 332
3 150 335 151
3 150 337 335
3 151 328 152
3 151 335 328
3 328 339 152
3 153 334 154
3 153 340 334
3 154 331 155
3 154 334 331
3 331 337 155
3 328 333 332
3 332 339 328
3 328 335 333
3 333 334 329
3 329 336 333
3 334 340 329
3 332 333 330
3 333 336 330
3 336 338 330
3 331 334 333
3 333 335 331
3 335 337 331
3 8 7 344
3 7 153 344
3 137 8 344
3 41 38 341
3 38 139 341
3 155 41 341
3 138 137 343
3 137 153 343
3 153 137 344
3 139 138 342
3 138 154 342
3 154 138 343
3 139 155 341
3 155 139 342
3 153 154 343
3 154 155 342
3 81 9 384
3 9 141 384
3 10 84 354
3 182 10 354
3 85 13 353
3 13 156 353
3 14 88 356
3 157 14 356
3 89 17 355
3 17 159 355
3 45 18 379
3 18 93 379
3 140 39 385
3 39 178 385
3 175 42 51
3 42 183 51
3 156 42 353
3 42 175 353
3 158 43 48
3 43 168 48
3 43 157 356
3 168 43 356
3 44 158 48
3 167 44 48
3 159 44 355
3 44 167 355
3 160 45 379
3 46 161 378
3 162 46 378
3 47 165 375
3 166 47 375
3 49 169 377
3 170 49 377
3 50 173 376
3 174 50 376
3 176 51 53
3 51 183 53
3 52 177 374
3 181 52 374
3 176 53 354
3 53 182 354
3 82 81 372
3 372 81 384
3 83 82 361
3 361 82 372
3 84 83 362
3 83 361 362
3 354 84 362
3 86 85 364
3 85 353 364
3 87 86 360
3 360 86 364
3 88 87 365
3 87 360 365
3 356 88 365
3 90 89 369
3 89 355 369
3 91 90 352
3 352 90 369
3 92 91 370
3 91 352 370
3 93 92 357
3 357 92 370
3 93 357 379
3 141 140 358
3 358 140 385
3 141 358 384
3 161 160 366
3 366 160 379
3 161 366 378
3 163 162 346
3 346 162 378
3 164 163 371
3 163 346 371
3 165 164 359
3 359 164 371
3 165 359 375
3 167 166 345
3 345 166 375
3 167 345 355
3 169 168 348
3 348 168 356
3 169 348 377
3 171 170 368
3 368 170 377
3 172 171 347
3 347 171 368
3 173 172 367
3 172 347 367
3 173 367 376
3 175 174 349
3 349 174 376
3 175 349 353
3 177 176 350
3 350 176 354
3 177 350 374
3 178 179 373
3 178 373 385
3 179 180 351
3 179 351 373
3 180 181 363
3 351 180 363
3 363 181 374
3 355 345 369
3 359 345 375
3 345 359 383
3 369 345 383
3 371 346 381
3 346 378 380
3 346 380 381
3 367 347 387
3 347 368 387
3 348 356 365
3 348 365 368
3 348 368 377
3 353 349 364
3 364 349 367
3 367 349 376
3 350 354 362
3 350 362 363
3 350 363 374
3 351 363 386
3 373 351 382
3 382 351 386
3 352 369 383
3 370 352 381
3 381 352 383
3 357 366 379
3 366 357 380
3 357 370 380
3 372 358 382
3 358 372 384
3 358 373 382
3 373 358 385
3 359 371 383
3 360 364 367
3 365 360 387
3 360 367 387
3 362 361 386
3 361 372 382
3 361 382 386
3 363 362 386
3 368 365 387
3 378 366 380
3 380 370 381
3 371 381 383
3 182 11 10
3 53 11 182
3 11 388 12
3 53 388 11
3 12 388 42
3 42 388 183
3 183 388 53
3 156 13 12
3 42 156 12
3 157 15 14
3 43 15 157
3 15 389 16
3 43 389 15
3 16 389 44
3 158 389 43
3 44 389 158
3 159 17 16
3 44 159 16
3 45 391 18
3 18 391 95
3 19 390 28
3 94 390 19
3 28 390 184
3 185 391 45
3 95 392 94
3 184 390 94
3 94 392 184
3 95 391 185
3 185 392 95
3 184 392 185
3 21 20 109
3 21 109 27
3 21 393 22
3 27 393 21
3 22 393 26
3 26 393 27
3 22 108 23
3 22 26 108
3 28 398 110
3 184 398 28
3 111 399 29
3 29 399 186
3 160 401 45
3 45 401 185
3 46 400 161
3 187 400 46
3 110 395 111
3 110 398 395
3 395 399 111
3 161 394 160
3 394 401 160
3 161 400 394
3 185 397 184
3 397 398 184
3 185 401 397
3 186 396 187
3 186 399 396
3 396 400 187
3 396 397 394
3 394 400 396
3 397 401 394
3 395 397 396
3 396 399 395
3 395 398 397
3 29 413 112
3 186 413 29
3 115 411 30
3 30 411 188
3 162 412 46
3 46 412 187
3 47 410 165
3 189 410 47
3 112 406 113
3 112 413 406
3 113 402 114
3 113 406 402
3 114 407 115
3 402 407 114
3 407 411 115
3 163 408 162
3 408 412 162
3 164 405 163
3 405 408 163
3 165 409 164
3 164 409 405
3 165 410 409
3 187 404 186
3 404 413 186
3 187 412 404
3 188 403 189
3 188 411 403
3 403 410 189
3 402 406 405
3 405 407 402
3 407 409 403
3 403 411 407
3 409 410 403
3 404 408 406
3 406 413 404
3 404 412 408
3 406 408 405
3 405 409 407
3 30 417 116
3 188 417 30
3 117 54 31
3 166 418 47
3 47 418 189
3 48 55 167
3 190 54 117
3 167 55 192
3 116 415 117
3 116 417 415
3 117 415 190
3 167 414 166
3 414 418 166
3 192 414 167
3 189 416 188
3 416 417 188
3 189 418 416
3 190 415 191
3 191 414 192
3 191 416 414
3 415 416 191
3 416 418 414
3 415 417 416
3 31 54 118
3 119 423 32
3 32 423 193
3 48 168 55
3 49 422 169
3 194 422 49
3 54 197 118
3 55 168 195
3 118 419 119
3 197 419 118
3 419 423 119
3 169 420 168
3 168 420 195
3 169 422 420
3 193 421 194
3 193 423 421
3 421 422 194
3 195 420 196
3 196 419 197
3 196 421 419
3 420 421 196
3 421 423 419
3 420 422 421
3 32 435 120
3 193 435 32
3 123 432 33
3 33 432 198
3 170 433 49
3 49 433 194
3 50 434 173
3 199 434 50
3 120 428 121
3 120 435 428
3 121 424 122
3 121 428 424
3 122 429 123
3 424 429 122
3 429 432 123
3 171 431 170
3 431 433 170
3 172 427 171
3 427 431 171
3 173 430 172
3 172 430 427
3 173 434 430
3 194 426 193
3 426 435 193
3 194 433 426
3 198 425 199
3 198 432 425
3 425 434 199
3 424 428 427
3 427 429 424
3 429 430 425
3 425 432 429
3 430 434 425
3 426 431 428
3 428 435 426
3 426 433 431
3 428 431 427
3 427 430 429
3 33 439 124
3 198 439 33
3 125 56 34
3 174 440 50
3 50 440 199
3 57 175 51
3 125 200 56
3 202 175 57
3 124 437 125
3 124 439 437
3 125 437 200
3 175 436 174
3 436 440 174
3 202 436 175
3 199 438 198
3 438 439 198
3 199 440 438
3 200 437 201
3 201 436 202
3 201 438 436
3 437 438 201
3 438 440 436
3 437 439 438
3 34 56 126
3 127 444 35
3 35 444 203
3 51 176 57
3 52 445 177
3 204 445 52
3 56 207 126
3 57 176 205
3 126 441 127
3 207 441 126
3 441 444 127
3 177 442 176
3 176 442 205
3 177 445 442
3 203 443 204
3 203 444 443
3 443 445 204
3 205 442 206
3 206 441 207
3 206 443 441
3 442 443 206
3 443 444 441
3 442 445 443
3 35 454 128
3 203 454 35
3 131 457 36
3 36 457 143
3 142 455 39
3 39 455 178
3 181 456 52
3 52 456 204
3 128 453 129
3 128 454 453
3 129 448 130
3 129 453 448
3 130 451 131
3 448 451 130
3 451 457 131
3 143 446 142
3 446 455 142
3 143 457 446
3 178 452 179
3 178 455 452
3 179 449 180
3 179 452 449
3 180 450 181
3 449 450 180
3 450 456 181
3 204 447 203
3 447 454 203
3 204 456 447
3 451 452 446
3 446 457 451
3 452 455 446
3 450 453 447
3 447 456 450
3 453 454 447
3 448 450 449
3 449 451 448
3 448 453 450
3 449 452 451
3 37 458 40
3 136 458 37
3 41 460 38
3 38 460 134
3 40 458 152
3 150 460 41
3 134 461 135
3 134 460 150
3 150 461 134
3 135 459 136
3 151 459 135
3 135 461 151
3 152 458 136
3 136 459 152
3 151 461 150
3 152 459 151
3 54 190 195
3 197 54 195
3 192 55 190
3 195 190 55
3 190 191 192
3 197 195 196
3 56 200 205
3 207 56 205
3 202 57 200
3 205 200 57
3 200 201 202
3 207 205 206
3 208 209 58
3 209 208 59
3 58 211 208
3 58 210 211
3 59 208 211
3 59 211 212
3 60 211 210
3 211 61 212
3 209 463 58
3 58 463 210
3 59 462 209
3 212 462 59
3 60 465 62
3 210 463 60
3 463 465 60
3 65 462 61
3 61 462 212
3 62 465 213
3 213 465 63
3 63 465 214
3 214 464 64
3 64 464 215
3 215 464 65
3 65 464 462
3 462 465 209
3 209 465 463
3 214 465 464
3 464 465 462
3 60 62 466
3 211 60 466
3 65 61 467
3 61 211 467
3 62 216 466
3 216 65 467
3 216 211 466
3 211 216 467
3 62 213 216
3 216 213 63
3 217 216 63
3 64 215 216
3 64 216 217
3 216 215 65
3 214 217 63
3 217 214 64
3 218 219 66
3 219 218 67
3 66 221 218
3 66 220 221
3 67 218 221
3 67 221 222
3 68 221 220
3 221 69 222
3 219 468 66
3 66 468 220
3 67 469 219
3 222 469 67
3 68 470 70
3 220 468 68
3 468 470 68
3 73 471 69
3 69 469 222
3 69 471 469
3 70 470 223
3 223 470 71
3 71 470 224
3 224 471 72
3 72 471 225
3 225 471 73
3 219 470 468
3 469 470 219
3 470 471 224
3 469 471 470
3 68 70 472
3 221 68 472
3 73 69 473
3 69 221 473
3 70 226 472
3 226 73 473
3 226 221 472
3 221 226 473
3 70 223 226
3 226 223 71
3 227 226 71
3 72 225 226
3 72 226 227
3 226 225 73
3 224 227 71
3 224 72 227
4 309 417 411 476
4 375 410 418 476
4 422 433 377 478
4 258 478 239 486
4 423 310 435 478
4 418 414 375 476
4 360 239 478 486
4 445 456 374 479
4 310 423 419 478
4 285 453 320 487
4 415 417 309 493
4 442 445 374 479
4 444 308 454 479
4 256 481 370 483
4 360 478 387 486
4 445 443 456 479
4 320 453 297 487
4 422 421 433 478
4 440 434 438 477
4 438 432 439 477
4 423 435 421 478
4 293 309 411 476
4 416 411 417 476
4 410 416 418 476
4 377 422 478 491
4 453 479 297 487
4 441 308 444 492
4 285 297 320 453
4 443 445 442 479
4 432 312 439 477
4 440 376 434 477
4 256 370 481 489
4 346 371 381 499
4 437 438 439 477
4 444 454 443 479
4 417 476 309 493
4 377 420 422 491
4 239 264 258 486
4 419 423 421 478
4 437 439 312 477
4 306 259 482 487
4 346 381 495 499
4 410 476 375 499
4 421 426 433 478
4 346 381 481 495
4 418 416 414 476
4 432 438 425 477
4 434 425 438 477
4 443 447 456 479
4 264 477 258 486
4 239 360 264 486
4 416 417 415 493
4 410 375 359 499
4 305 317 293 495
4 321 478 294 486
4 370 256 357 489
4 421 435 426 478
4 381 370 481 483
4 403 411 416 476
4 410 403 416 476
4 450 479 453 487
4 258 294 478 486
4 358 494 140 500
4 258 249 239 478
4 375 414 345 476
4 447 443 454 479
4 360 477 264 486
4 306 482 316 487
4 358 385 140 494
4 421 478 422 491
4 317 293 495 499
4 365 360 239 478
4 453 447 454 479
4 440 477 438 490
4 420 421 422 491
4 308 479 444 492
4 436 440 438 490
4 382 482 372 487
4 258 477 294 486
4 455 142 385 494
4 309 279 415 493
4 374 350 442 479
4 448 453 285 487
4 352 383 369 483
4 316 482 285 487
4 376 477 440 490
4 380 381 370 481
4 368 431 347 486
4 239 249 268 478
4 381 483 481 495
4 368 478 431 486
4 317 476 293 499
4 433 426 431 478
4 351 482 382 487
4 419 282 310 478
4 403 476 410 499
4 456 363 374 479
4 376 440 436 490
4 430 425 434 477
4 387 360 365 478
4 258 269 249 478
4 140 494 333 500
4 234 481 256 483
4 416 476 417 493
4 433 368 377 478
4 239 268 365 478
4 358 482 385 494
4 305 293 407 495
4 411 403 407 476
4 234 304 481 483
4 483 495 381 499
4 385 142 140 494
4 431 478 428 486
4 351 386 450 487
4 383 476 369 483
4 368 347 387 486
4 294 321 299 478
4 394 400 378 481
4 358 482 494 500
4 427 347 431 486
4 373 382 351 482
4 307 285 316 482
4 302 435 310 478
4 481 483 304 495
4 293 279 309 476
4 429 432 425 477
4 317 495 483 499
4 304 234 481 501
4 435 428 426 478
4 454 308 297 479
4 368 387 478 486
4 309 476 279 493
4 295 259 306 487
4 384 372 482 500
4 294 258 251 477
4 372 482 246 487
4 363 479 450 487
4 411 407 293 476
4 352 256 370 483
4 378 400 412 481
4 399 311 413 481
4 306 482 259 500
4 314 481 304 495
4 386 363 450 487
4 293 407 495 499
4 456 447 450 479
4 251 258 264 477
4 384 372 358 482
4 400 396 412 481
4 396 399 413 481
4 234 489 481 501
4 385 482 455 494
4 285 482 448 487
4 304 481 314 501
4 428 431 426 478
4 64 214 217 480
4 327 5 322 144
4 8 137 344 323
4 408 346 481 495
4 449 482 351 487
4 243 352 369 483
4 430 429 425 477
4 315 304 483 495
4 320 297 479 487
4 450 453 448 487
4 317 483 476 499
4 140 333 334 500
4 447 453 450 479
4 408 405 346 495
4 314 304 315 495
4 246 482 259 487
4 394 378 366 481
4 453 454 297 479
4 293 476 407 499
4 399 396 395 481
4 394 396 400 481
4 301 312 432 477
4 386 479 363 487
4 306 316 295 487
4 385 452 455 482
4 358 384 482 500
4 283 437 312 477
4 263 357 256 489
4 370 381 352 483
4 381 380 346 481
4 441 284 308 492
4 253 266 67 490
4 449 373 351 482
4 286 304 254 483
4 251 298 294 477
4 395 300 481 501
4 348 377 478 491
4 449 452 373 482
4 296 479 257 487
4 403 407 476 499
4 331 140 142 494
4 262 489 234 501
4 404 412 396 481
4 413 404 396 481
4 450 351 363 386
4 246 482 372 500
4 317 303 476 483
4 433 431 368 478
4 427 430 347 486
4 360 367 477 486
4 270 246 276 500
4 304 314 291 501
4 302 428 478 486
4 348 420 377 491
4 382 372 361 487
4 304 291 234 501
4 317 286 303 483
4 452 385 373 482
4 430 429 477 486
4 438 477 437 498
4 383 476 483 499
4 455 482 446 494
4 249 478 269 480
4 311 280 413 481
4 346 378 412 481
4 449 448 482 487
4 284 479 308 492
4 476 483 252 484
4 394 481 366 489
4 429 301 432 477
4 421 419 478 497
4 292 482 306 500
4 452 446 455 482
4 456 450 363 479
4 362 479 386 487
4 402 305 407 495
4 435 302 428 478
4 430 477 367 486
4 428 281 424 486
4 298 294 477 486
4 351 450 449 487
4 437 477 283 498
4 347 430 367 486
4 442 479 350 485
4 246 259 482 500
4 296 320 479 487
4 252 476 303 483
4 298 477 301 486
4 282 478 419 497
4 364 264 360 477
4 374 363 350 479
4 372 246 361 487
4 361 260 362 487
4 409 403 410 499
4 187 412 400 396
4 399 413 186 396
4 345 476 414 496
4 250 257 479 487
4 346 412 408 481
4 358 141 384 500
4 385 358 373 482
4 382 358 372 482
4 292 316 306 482
4 414 476 416 496
4 396 394 397 481
4 377 368 348 478
4 302 478 321 486
4 442 479 485 492
4 184 392 232 489
4 431 428 427 486
4 269 478 299 480
4 442 485 206 492
4 394 397 481 489
4 320 316 285 487
4 262 263 234 489
4 295 240 259 487
4 448 449 450 487
4 402 495 407 499
4 310 282 302 478
4 413 280 406 481
4 352 243 256 483
4 360 387 367 486
4 443 203 454 444
4 443 445 456 204
4 307 319 457 494
4 142 335 331 494
4 234 291 262 501
4 380 366 378 481
4 300 314 311 481
4 250 479 362 487
4 252 483 243 484
4 442 443 479 492
4 412 187 404 396
4 404 186 413 396
4 228 484 58 493
4 238 384 141 500
4 381 383 352 483
4 428 302 281 486
4 297 308 284 479
4 268 480 230 491
4 416 417 411 188
4 432 198 438 439
4 418 410 189 416
4 194 433 422 421
4 435 423 421 193
4 434 440 438 199
4 9 141 323 340
4 255 252 243 484
4 254 304 234 483
4 132 4 322 338
4 331 333 140 494
4 296 295 320 487
4 386 351 382 487
4 246 260 361 487
4 349 477 376 490
4 387 347 367 486
4 317 279 293 476
4 367 364 360 477
4 209 208 58 484
4 424 281 429 486
4 240 296 257 487
4 366 481 380 489
4 318 292 306 500
4 412 404 408 481
4 238 141 329 500
4 429 301 477 486
4 268 478 249 480
4 238 276 384 500
4 132 133 292 494
4 260 250 362 487
4 298 301 294 486
4 442 206 443 492
4 132 494 292 500
4 436 349 376 490
4 363 386 362 479
4 296 240 295 487
4 71 485 245 492
4 364 266 253 490
4 311 314 280 481
4 346 380 378 481
4 383 483 381 499
4 286 98 254 304
4 361 362 386 487
4 268 365 478 480
4 273 390 184 313
4 204 456 443 447
4 447 443 203 454
4 254 97 286 303
4 404 413 406 481
4 268 365 480 491
4 403 416 411 188
4 198 438 425 432
4 410 189 416 403
4 193 421 435 426
4 438 434 199 425
4 421 194 433 426
4 396 395 481 501
4 286 315 304 483
4 211 216 466 474
4 232 184 273 392
4 227 224 71 485
4 253 264 364 488
4 364 488 477 490
4 358 382 373 482
4 307 316 292 482
4 364 353 266 490
4 318 306 259 500
4 264 477 364 488
4 300 314 481 501
4 76 295 259 306
4 329 141 334 500
4 404 406 408 481
4 307 482 292 494
4 302 321 281 486
4 364 253 488 490
4 359 409 410 499
4 257 485 479 492
4 319 307 292 494
4 245 257 296 492
4 246 270 259 500
4 406 481 280 495
4 388 183 73 69
4 389 158 65 61
4 268 230 365 491
4 132 330 133 494
4 184 232 273 501
4 449 451 452 482
4 132 330 494 500
4 428 424 427 486
4 478 480 365 491
4 396 481 397 501
4 315 483 317 495
4 267 58 228 484
4 305 315 317 495
4 245 485 257 492
4 320 297 296 479
4 252 254 243 483
4 283 312 301 477
4 376 349 367 477
4 257 245 277 485
4 290 303 228 493
4 228 303 252 493
4 251 298 477 488
4 455 446 142 494
4 67 218 219 488
4 295 316 320 487
4 228 252 484 493
4 366 380 357 489
4 345 476 383 499
4 368 387 365 478
4 251 477 264 488
4 250 240 257 487
4 397 481 489 501
4 405 495 402 499
4 257 479 296 492
4 317 303 279 476
4 383 345 369 476
4 246 259 240 487
4 214 63 217 480
4 282 480 478 497
4 64 230 265 214
4 277 224 71 261
4 329 334 333 500
4 245 296 287 492
4 370 352 91 256
4 396 397 395 501
4 302 299 321 478
4 408 481 406 495
4 345 383 359 499
4 362 350 479 485
4 71 245 287 492
4 386 382 361 487
4 314 280 481 495
4 245 257 74 296
4 92 357 370 256
4 88 268 230 365
4 458 40 152 339
4 438 490 477 498
4 41 337 460 150
4 291 304 234 99
4 451 449 448 482
4 294 258 269 103
4 90 352 369 243
4 403 409 407 499
4 307 451 482 494
4 421 478 491 497
4 405 402 407 499
4 307 457 451 494
4 224 277 71 485
4 394 366 401 489
4 361 83 362 260
4 184 489 232 501
4 71 277 245 485
4 292 494 482 500
4 67 488 253 490
4 279 476 303 493
4 269 299 294 103
4 429 424 122 281
4 344 153 7 340
4 98 234 254 304
4 260 240 250 487
4 327 338 6 147
4 335 333 331 494
4 140 39 142 385
4 133 36 319 143
4 217 64 480 491
4 248 63 214 244
4 149 40 324 339
4 274 232 392 489
4 363 362 350 479
4 430 427 429 486
4 429 281 301 486
4 133 143 319 494
4 341 337 41 155
4 457 319 143 494
4 274 392 185 489
4 365 348 368 478
4 250 479 257 485
4 298 477 488 498
4 287 245 74 296
4 246 240 260 487
4 282 299 478 480
4 97 254 252 303
4 455 142 39 385
4 457 319 36 143
4 140 331 334 333
4 315 286 317 483
4 476 493 416 496
4 75 240 295 296
4 247 318 259 500
4 365 348 478 491
4 243 369 90 255
4 356 365 230 491
4 234 262 291 99
4 372 82 361 246
4 461 151 150 335
4 362 479 250 485
4 298 283 477 498
4 179 449 452 373
4 257 240 75 296
4 243 234 256 483
4 364 477 349 490
4 333 494 330 500
4 282 299 302 478
4 399 395 111 300
4 273 313 184 501
4 331 155 342 154
4 298 283 301 477
4 349 364 367 477
4 451 446 452 482
4 214 244 63 480
4 219 468 470 272
4 230 356 88 365
4 151 328 459 152
4 230 214 64 480
4 259 240 295 76
4 251 294 102 258
4 238 270 276 500
4 224 231 72 261
4 448 307 285 130
4 179 449 373 351
4 453 285 297 129
4 262 273 313 100
4 141 340 238 329
4 459 143 135 136
4 134 135 461 142
4 58 484 208 493
4 94 273 184 392
4 247 132 318 500
4 429 427 424 486
4 427 347 430 172
4 253 67 219 488
4 274 185 391 489
4 369 355 484 496
4 296 297 284 479
4 251 294 298 102
4 407 402 114 305
4 260 361 82 246
4 369 345 355 496
4 457 319 307 131
4 83 362 260 250
4 132 292 318 500
4 9 141 340 238
4 185 274 95 392
4 262 313 273 501
4 67 242 253 219
4 273 232 262 501
4 446 482 451 494
4 230 480 64 491
4 113 305 402 495
4 289 480 282 497
4 469 219 470 261
4 247 336 338 132
4 336 132 247 500
4 296 479 284 492
4 379 274 391 489
4 116 309 415 417
4 375 414 418 166
4 326 330 147 148
4 109 271 60 290
4 301 321 294 486
4 462 59 209 248
4 424 281 428 121
4 369 355 89 484
4 394 401 397 489
4 364 266 85 253
4 254 234 243 483
4 140 142 39 331
4 379 391 185 489
4 149 325 148 332
4 248 58 209 463
4 347 367 430 172
4 311 399 111 300
4 243 91 352 256
4 247 259 270 500
4 67 218 488 490
4 446 143 142 494
4 154 343 334 153
4 273 94 232 392
4 313 291 262 100
4 362 354 350 485
4 141 9 384 238
4 238 9 384 276
4 357 92 263 256
4 132 4 338 247
4 293 407 114 305
4 224 72 231 485
4 419 310 119 423
4 422 420 377 169
4 184 313 398 501
4 379 401 366 489
4 123 432 301 312
4 142 143 335 494
4 156 266 353 69
4 326 144 132 145
4 343 138 141 137
4 374 456 181 363
4 454 128 297 308
4 332 143 133 494
4 337 39 142 331
4 232 489 262 501
4 136 36 37 458
4 39 38 460 134
4 291 313 262 501
4 232 95 274 392
4 275 182 231 73
4 453 448 285 129
4 298 488 288 498
4 177 374 442 445
4 308 441 444 127
4 239 268 87 365
4 113 280 305 495
4 241 89 355 484
4 336 238 247 79
4 228 271 109 290
4 298 101 288 488
4 336 247 238 500
4 301 429 122 281
4 282 289 299 480
4 133 319 292 494
4 457 446 451 494
4 371 405 409 499
4 290 279 303 493
4 405 408 406 495
4 371 409 359 499
4 369 89 255 484
4 65 233 389 61
4 84 354 362 485
4 438 437 201 498
4 421 196 419 497
4 414 416 191 496
4 372 384 81 276
4 448 451 307 130
4 67 221 218 490
4 431 427 171 347
4 336 333 330 500
4 214 230 248 244
4 84 231 354 485
4 217 216 64 491
4 330 332 133 494
4 229 288 101 488
4 184 390 273 94
4 314 315 280 495
4 71 227 485 492
4 184 397 489 501
4 376 434 430 173
4 342 139 140 138
4 145 325 146 133
4 391 274 95 185
4 415 309 116 279
4 375 345 414 166
4 269 299 104 480
4 209 59 208 484
4 452 455 178 385
4 463 248 58 271
4 290 96 228 303
4 297 453 128 454
4 378 346 412 162
4 206 441 443 492
4 341 41 337 460
4 289 104 299 480
4 371 383 381 499
4 73 236 388 69
4 210 60 271 290
4 298 288 283 498
4 405 407 409 499
4 405 371 409 164
4 341 38 39 139
4 37 36 146 324
4 93 274 379 489
4 371 359 409 164
4 178 452 385 373
4 113 402 406 495
4 123 432 429 301
4 87 239 365 360
4 4 132 318 247
4 281 321 301 486
4 259 247 77 318
4 280 413 112 311
4 209 58 267 484
4 329 336 238 500
4 93 379 357 489
4 132 336 330 500
4 241 255 89 484
4 277 231 224 261
4 248 63 244 213
4 287 296 284 492
4 274 18 379 391
4 180 450 351 363
4 219 66 468 272
4 471 469 470 261
4 289 244 104 480
4 463 465 248 60
4 19 390 273 313
4 72 471 224 261
4 281 302 428 121
4 222 353 266 69
4 336 329 238 79
4 330 333 332 494
4 225 205 354 72
4 368 431 171 347
4 435 302 310 120
4 368 170 433 377
4 230 244 214 480
4 226 227 71 492
4 365 356 348 491
4 248 463 60 271
4 436 376 174 440
4 439 437 312 124
4 395 398 300 501
4 408 412 346 162
4 353 266 85 364
4 208 211 58 493
4 251 101 298 488
4 398 110 300 313
4 160 379 401 366
4 362 250 84 485
4 265 157 14 230
4 113 406 280 495
4 71 245 277 261
4 415 279 117 493
4 442 374 177 350
4 308 284 441 127
4 143 328 332 339
4 328 335 143 494
4 247 78 4 338
4 306 259 77 318
4 119 310 419 282
4 377 420 348 169
4 222 242 266 67
4 366 401 160 394
4 110 300 395 398
4 266 156 242 69
4 463 210 271 58
4 442 350 205 485
4 268 249 230 480
4 185 401 379 489
4 332 328 143 494
4 235 62 23 108
4 406 402 405 495
4 262 232 263 489
4 238 247 270 500
4 336 78 247 338
4 379 366 357 489
4 410 165 359 375
4 450 181 456 363
4 59 462 241 248
4 272 470 219 261
4 442 205 206 485
4 184 398 397 501
4 288 229 0 105
4 269 104 244 480
4 167 355 345 496
4 248 265 230 214
4 246 372 81 276
4 451 457 307 131
4 219 469 242 261
4 253 251 264 488
4 20 228 271 109
4 398 313 300 501
4 462 241 212 59
4 360 364 86 264
4 86 239 360 264
4 447 443 204 203
4 209 267 59 484
4 406 413 112 280
4 353 364 349 490
4 309 411 115 293
4 470 224 471 261
4 324 40 458 339
4 430 367 376 173
4 242 253 266 67
4 231 84 250 485
4 238 340 9 80
4 264 364 85 253
4 329 333 336 500
4 466 190 211 474
4 224 231 277 485
4 397 398 395 501
4 229 101 251 488
4 232 94 95 392
4 182 354 231 73
4 271 60 62 235
4 471 72 275 261
4 72 224 227 485
4 252 228 96 303
4 263 274 93 489
4 217 480 63 497
4 219 218 66 488
4 475 472 226 221
4 263 93 357 489
4 265 233 157 65
4 219 242 253 229
4 250 257 277 485
4 225 275 231 73
4 275 236 182 73
4 210 463 271 60
4 280 315 305 495
4 402 113 114 305
4 328 333 335 494
4 245 71 223 261
4 300 291 314 501
4 58 209 267 248
4 205 226 206 72
4 170 433 431 368
4 435 428 302 120
4 62 244 23 108
4 157 356 14 230
4 231 275 72 261
4 399 29 413 311
4 400 46 378 412
4 140 155 139 342
4 186 404 187 396
4 97 98 254 286
4 450 449 180 351
4 371 405 163 164
4 267 228 252 484
4 62 248 465 60
4 229 272 0 105
4 80 238 340 329
4 347 427 171 172
4 322 338 4 327
4 228 58 267 271
4 109 20 228 290
4 219 229 253 488
4 261 223 245 237
4 323 344 9 340
4 206 205 72 485
4 60 62 248 271
4 446 457 143 494
4 142 335 337 331
4 174 376 436 349
4 312 437 283 124
4 383 371 359 499
4 129 297 453 128
4 219 66 272 229
4 235 271 60 109
4 304 98 234 99
4 100 291 262 99
4 412 400 46 187
4 413 186 29 399
4 452 178 179 373
4 231 10 182 275
4 242 219 272 229
4 156 236 242 69
4 471 275 69 469
4 397 401 185 489
4 208 484 59 496
4 225 231 354 73
4 359 409 165 410
4 205 354 72 485
4 272 219 242 261
4 77 76 259 306
4 332 333 328 494
4 222 266 242 69
4 248 267 58 271
4 59 267 241 484
4 17 355 159 241
4 90 91 352 243
4 92 93 357 263
4 407 115 411 293
4 101 251 298 102
4 30 309 417 411
4 47 410 418 375
4 275 236 73 69
4 422 433 49 377
4 423 310 32 435
4 379 93 18 274
4 273 19 313 100
4 62 244 108 289
4 77 247 4 318
4 237 272 68 105
4 265 215 230 64
4 372 81 82 246
4 247 78 336 79
4 116 415 279 117
4 390 19 28 313
4 18 45 379 391
4 345 167 414 166
4 403 189 416 188
4 425 199 438 198
4 194 421 193 426
4 275 225 72 471
4 219 66 229 488
4 266 13 156 353
4 288 0 229 101
4 182 354 10 231
4 291 300 313 501
4 462 265 241 248
4 92 370 91 256
4 429 122 123 301
4 258 294 102 103
4 450 180 181 363
4 63 465 248 214
4 69 73 275 471
4 465 248 62 213
4 406 112 113 280
4 274 95 18 391
4 85 86 364 264
4 271 62 248 235
4 266 85 13 353
4 343 138 334 141
4 35 454 444 308
4 52 374 445 456
4 231 275 225 72
4 326 132 330 145
4 202 69 353 222
4 173 430 367 172
4 156 13 266 242
4 75 74 257 296
4 249 244 230 480
4 89 90 369 255
4 407 114 115 293
4 167 192 355 496
4 120 428 302 121
4 131 307 451 130
4 273 390 19 94
4 474 467 211 216
4 362 83 84 250
4 248 465 63 213
4 410 47 165 375
4 237 245 3 107
4 149 146 325 332
4 343 138 154 334
4 395 111 300 110
4 161 366 160 394
4 81 384 9 276
4 217 491 480 497
4 440 376 50 434
4 439 432 33 312
4 239 87 86 360
4 148 326 330 145
4 140 331 155 342
4 39 178 455 385
4 465 248 209 463
4 66 488 218 498
4 265 233 65 61
4 135 151 142 143
4 30 309 411 115
4 6 4 338 327
4 36 319 457 131
4 412 46 378 162
4 344 7 9 340
4 464 248 465 214
4 433 170 49 377
4 435 310 32 120
4 281 424 122 121
4 142 151 335 143
4 97 252 96 303
4 205 350 354 485
4 356 88 14 230
4 244 62 213 289
4 241 267 255 484
4 133 146 36 339
4 202 222 353 490
4 68 470 468 272
4 171 170 431 368
4 75 295 240 76
4 284 126 441 127
4 177 442 350 176
4 59 211 208 496
4 216 217 63 497
4 66 218 221 498
4 411 417 30 188
4 434 50 440 199
4 410 189 47 418
4 32 423 435 193
4 49 194 433 422
4 33 198 432 439
4 29 112 413 311
4 218 490 221 498
4 216 491 217 497
4 96 228 20 290
4 341 337 39 460
4 244 249 269 480
4 462 464 265 248
4 456 445 52 204
4 454 203 35 444
4 111 29 399 311
4 161 46 378 400
4 89 355 17 241
4 268 88 87 365
4 82 83 361 260
4 346 408 162 163
4 208 493 484 496
4 67 469 242 219
4 252 255 267 484
4 146 325 332 133
4 454 35 128 308
4 52 374 456 181
4 269 299 103 104
4 71 287 207 492
4 464 265 65 462
4 263 232 274 489
4 215 265 464 64
4 69 202 221 222
4 282 419 119 118
4 420 168 348 169
4 13 156 236 242
4 248 209 462 465
4 359 409 164 165
4 205 226 473 475
4 175 174 436 349
4 125 283 437 124
4 211 493 208 496
4 462 464 248 465
4 245 3 107 287
4 218 488 490 498
4 223 71 470 261
4 10 354 84 231
4 25 71 287 207
4 108 244 23 289
4 0 272 237 105
4 224 470 71 261
4 398 28 110 313
4 45 379 401 160
4 327 322 338 147
4 153 344 323 340
4 20 271 235 109
4 272 66 220 229
4 61 65 265 462
4 23 244 62 235
4 284 441 207 492
4 275 242 236 69
4 202 353 349 490
4 130 285 448 129
4 449 179 180 351
4 324 458 36 339
4 133 332 146 339
4 328 335 151 143
4 284 126 207 441
4 136 152 143 339
4 329 80 238 79
4 253 229 251 488
4 17 159 233 241
4 335 150 461 142
4 332 149 146 339
4 349 175 353 202
4 151 328 143 459
4 340 141 334 329
4 470 68 70 272
4 7 9 340 80
4 250 277 231 485
4 284 207 287 492
4 202 349 436 490
4 282 419 197 497
4 3 245 74 287
4 140 331 342 154
4 335 461 151 142
4 473 226 221 475
4 207 126 284 287
4 118 282 419 197
4 233 157 14 265
4 71 207 226 492
4 78 6 4 338
4 68 70 272 237
4 136 143 36 339
4 134 150 337 142
4 275 242 69 469
4 349 436 175 202
4 432 123 33 312
4 434 376 50 173
4 132 336 338 330
4 49 422 377 169
4 32 119 310 423
4 353 42 156 69
4 24 68 288 105
4 220 468 66 272
4 244 23 289 104
4 150 134 461 142
4 143 459 152 136
4 328 143 459 152
4 145 132 330 133
4 197 289 282 497
4 374 177 52 445
4 308 444 35 127
4 60 27 109 290
4 477 490 488 498
4 334 138 140 141
4 135 151 143 459
4 135 151 461 142
4 415 117 190 493
4 197 118 282 289
4 309 116 30 417
4 375 418 47 166
4 480 491 478 497
4 337 39 134 142
4 50 174 376 440
4 33 439 312 124
4 69 202 353 42
4 190 60 210 290
4 328 143 152 339
4 140 154 138 334
4 330 148 145 133
4 73 225 275 471
4 335 337 150 142
4 458 152 36 339
4 73 473 205 226
4 175 42 353 202
4 324 36 149 339
4 484 493 476 496
4 330 147 132 326
4 141 334 343 153
4 190 466 211 60
4 140 331 154 334
4 460 337 39 150
4 473 57 69 73
4 150 39 460 134
4 136 152 36 458
4 182 53 354 73
4 472 56 70 68
4 466 54 62 60
4 467 55 61 65
4 149 146 36 324
4 108 26 62 289
4 157 43 356 65
4 190 290 210 493
4 236 182 10 275
4 341 39 337 155
4 220 68 468 272
4 192 355 44 167
4 155 341 39 139
4 332 325 148 133
4 65 215 265 464
4 147 327 322 144
4 137 153 344 323
4 354 205 225 73
4 356 215 65 195
4 148 330 332 133
4 141 153 323 340
4 147 322 338 132
4 341 39 38 460
4 458 36 37 324
4 37 40 458 324
4 126 207 25 287
4 215 195 356 491
4 197 26 118 289
4 341 38 41 460
4 210 211 60 190
4 226 73 225 205
4 65 216 195 215
4 283 288 200 498
4 322 4 5 327
4 344 9 8 323
4 176 442 350 205
4 200 283 125 288
4 207 441 206 492
4 195 420 348 491
4 226 207 206 492
4 176 350 354 205
4 195 348 356 491
4 200 437 283 498
4 322 147 144 132
4 153 137 141 323
4 195 168 348 420
4 125 283 200 437
4 155 39 337 139
4 235 21 20 109
4 356 195 168 348
4 149 36 146 339
4 150 337 39 134
4 14 15 157 233
4 132 338 147 330
4 36 152 136 339
4 226 225 72 205
4 153 141 334 340
4 69 242 222 469
4 389 15 16 233
4 8 7 9 344
4 192 414 191 496
4 196 197 419 497
4 4 6 5 327
4 325 145 148 133
4 2 1 237 278
4 237 1 0 105
4 154 342 140 138
4 22 21 235 393
4 242 222 469 67
4 200 24 68 288
4 60 190 27 290
4 125 24 200 288
4 147 144 132 326
4 137 141 343 153
4 190 117 27 290
4 388 11 12 236
4 205 354 53 73
4 65 43 356 195
4 176 354 53 205
4 43 356 195 168
4 70 68 56 106
4 65 158 55 61
4 73 183 57 69
4 201 437 200 498
4 159 16 17 233
4 12 13 156 236
4 182 10 11 236
4 235 23 22 108
4 237 3 2 107
4 70 56 25 106
4 24 56 68 106
4 44 55 158 61
4 55 43 158 65
4 183 42 57 69
4 183 57 53 73
4 473 73 205 57
4 466 54 60 190
4 51 57 42 175
4 24 56 34 125
4 43 55 48 168
4 31 54 26 118
4 53 57 51 176
4 34 56 25 126
4 44 48 55 167
4 54 31 27 117
4 69 202 42 57
4 175 57 42 202
4 118 54 26 197
4 207 25 56 126
4 192 44 55 167
4 53 57 205 73
4 27 54 190 60
4 56 24 68 200
4 55 43 65 195
4 56 24 200 125
4 55 43 195 168
4 53 57 176 205
4 27 54 117 190
4 48 55 43 158
4 55 48 44 158
4 51 57 53 183
4 57 51 42 183
4 25 56 34 106
4 34 56 24 106
4 195 54 466 190
4 56 226 205 475
4 26 27 54 31
4 200 205 473 475
4 57 200 205 473
4 200 57 221 473
4 69 221 57 473
4 69 202 57 221
4 205 207 206 226
4 195 55 190 474
4 55 211 190 474
4 216 466 54 62
4 56 226 207 205
4 200 57 202 221
4 466 216 54 195
4 195 474 190 466
4 195 474 466 216
4 55 211 192 190
4 221 200 473 475
4 56 205 200 475
4 227 72 492 226
4 227 492 72 485
4 206 492 72 226
4 206 72 492 485
4 499 346 405 495
4 499 405 346 371
4 444 492 443 441
4 443 492 444 479
4 489 256 234 481
4 489 234 256 263
4 266 222 490 353
4 266 490 222 67
4 489 380 370 481
4 489 370 380 357
4 141 140 500 358
4 141 500 140 334
4 499 345 375 359
4 499 375 345 476
4 265 65 356 215
4 356 65 265 157
4 356 230 265 215
4 265 230 356 157
4 372 276 500 384
4 500 276 372 246
4 430 376 477 434
4 430 477 376 367
4 346 405 163 371
4 163 405 346 408
4 72 231 354 225
4 72 354 231 485
4 184 185 489 397
4 489 185 184 392
4 210 493 228 58
4 228 493 210 290
4 228 271 210 58
4 210 271 228 290
4 498 220 488 288
4 498 488 220 66
4 229 488 220 288
4 229 220 488 66
4 303 254 483 286
4 303 483 254 252
4 307 448 482 451
4 482 448 307 285
4 493 252 476 303
4 493 476 252 484
4 65 55 216 467
4 65 216 55 195
4 474 216 55 467
4 474 55 216 195
4 496 369 476 484
4 496 476 369 345
4 215 491 230 64
4 230 491 215 356
4 214 265 464 248
4 214 464 265 64
4 480 497 244 63
4 480 244 497 289
4 213 244 497 63
4 213 497 244 289
4 269 294 478 258
4 269 478 294 299
4 378 394 161 400
4 161 394 378 366
4 399 300 481 395
4 481 300 399 311
4 59 267 248 241
4 248 267 59 209
4 237 223 107 70
4 237 107 223 245
4 223 237 272 70
4 272 237 223 261
4 272 470 223 70
4 223 470 272 261
4 44 389 61 158
4 389 43 65 158
4 388 53 73 183
4 278 70 25 106
4 42 388 69 183
4 62 248 244 213
4 62 244 248 235
4 45 185 379 391
4 45 379 185 401
4 28 184 313 398
4 28 313 184 390
4 155 331 139 337
4 155 139 331 140
4 39 139 331 337
4 39 331 139 140
4 496 167 414 345
4 496 414 167 192
4 490 222 221 202
4 490 221 222 67
4 339 133 143 36
4 339 143 133 332
4 275 469 261 242
4 261 469 275 471
4 213 497 216 63
4 493 117 290 279
4 493 290 117 190
4 491 215 216 64
4 491 216 215 195
4 211 210 493 190
4 211 493 210 58
4 221 498 220 66
4 393 62 60 235
4 11 53 236 388
4 11 236 53 182
4 73 236 53 388
4 73 53 236 182
4 15 43 233 389
4 15 233 43 157
4 65 233 43 389
4 65 43 233 157
4 27 26 60 393
4 27 60 26 54
4 62 60 26 393
4 62 26 60 54
4 241 159 212 355
4 44 61 192 55
4 211 192 61 55
4 12 42 236 156
4 12 236 42 388
4 69 236 42 156
4 69 42 236 388
4 200 202 498 221
4 200 498 202 201
4 490 498 202 221
4 223 25 107 70
4 192 190 496 191
4 192 496 190 211
4 493 190 496 211
4 197 195 497 196
4 491 195 497 216
4 22 26 235 108
4 22 235 26 393
4 62 235 26 108
4 62 26 235 393
4 21 27 235 393
4 21 235 27 109
4 60 235 27 393
4 60 27 235 109
4 2 25 237 107
4 2 237 25 278
4 70 237 25 107
4 70 25 237 278
4 472 56 226 70
4 472 226 56 475
4 16 44 233 159
4 16 233 44 389
4 61 233 44 159
4 61 44 233 389
4 1 24 237 278
4 1 237 24 105
4 68 24 237 105
4 475 56 221 200
4 475 221 56 472
4 68 221 56 200
4 68 56 221 472
4 467 55 211 61
4 467 211 55 474
4 241 212 484 355
4 241 484 212 59
4 484 212 496 355
4 484 496 212 59
4 245 71 25 223
4 25 71 245 287
4 25 107 245 223
4 245 107 25 287
4 25 207 223 71
4 226 223 207 71
4 62 289 497 213
4 497 216 62 213
4 221 68 498 200
4 221 498 68 220
4 288 498 68 200
4 288 68 498 220
4 216 54 26 62
4 289 497 26 62
4 289 26 497 197
4 497 216 26 62
4 26 54 497 197
4 26 497 54 216
4 195 497 54 197
4 195 54 497 216
4 25 70 207 56
4 25 207 70 223
4 226 207 70 56
4 226 70 207 223
4 369 243 484 255
4 483 484 369 243
4 483 369 484 476
4 288 220 272 68
4 272 220 288 229
4 272 105 288 68
4 288 105 272 229
4 496 211 212 59
4 212 462 265 241
4 212 265 462 61
4 233 212 265 241
4 233 265 212 61
4 159 212 233 241
4 159 233 212 61
4 61 192 355 44
4 355 159 61 44
4 61 159 355 212
4 61 211 496 192
4 496 211 61 212
4 496 355 61 192
4 61 355 496 212
4 438 498 436 490
4 438 436 498 201
4 202 436 498 490
4 202 498 436 201
4 190 496 415 493
4 190 415 496 191
4 416 415 496 493
4 416 496 415 191
4 195 497 420 491
4 195 420 497 196
4 421 420 497 491
4 421 497 420 196
4 24 237 106 68
4 24 106 237 278
4 70 106 237 68
4 70 237 106 278

CELL_TYPES 2749
1
1
1
1
1
1
1
1
1
1
1
1
1
1
1
1
1
1
1
1
1
1
1
1
1
1
1
1
1
1
1
1
1
1
1
1
1
1
1
1
1
1
1
1
1
1
1
1
1
1
1
1
1
1
1
1
1
1
1
1
1
1
1
1
1
1
1
1
1
1
1
1
1
1
3
3
3
3
3
3
3
3
3
3
3
3
3
3
3
3
3
3
3
3
3
3
3
3
3
3
3
3
3
3
3
3
3
3
3
3
3
3
3
3
3
3
3
3
3
3
3
3
3
3
3
3
3
3
3
3
3
3
3
3
3
3
3
3
3
3
3
3
3
3
3
3
3
3
3
3
3
3
3
3
3
3
3
3
3
3
3
3
3
3
3
3
3
3
3
3
3
3
3
3
3
3
3
3
3
3
3
3
3
3
3
3
3
3
3
3
3
3
3
3
3
3
3
3
3
3
3
3
3
3
3
3
3
3
3
3
3
3
3
3
3
3
3
3
3
3
3
3
3
3
3
3
3
3
3
3
3
3
3
3
3
3
3
3
3
3
3
3
3
3
3
3
3
3
3
3
3
3
3
3
3
3
3
3
3
3
3
3
3
3
3
3
3
3
3
3
3
3
3
3
3
3
3
3
3
3
3
3
3
3
3
3
3
3
3
3
3
3
3
3
3
3
3
3
3
3
3
3
3
3
3
3
3
3
3
3
3
3
3
3
3
3
3
3
3
3
3
3
3
3
3
3
3
3
3
3
3
3
3
3
3
3
3
3
3
5
5
5
5
5
5
5
5
5
5
5
5
5
5
5
5
5
5
5
5
5
5
5
5
5
5
5
5
5
5
5
5
5
5
5
5
5
5
5
5
5
5
5
5
5
5
5
5
5
5
5
5
5
5
5
5
5
5
5
5
5
5
5
5
5
5
5
5
5
5
5
5
5
5
5
5
5
5
5
5
5
5
5
5
5
5
5
5
5
5
5
5
5
5
5
5
5
5
5
5
5
5
5
5
5
5
5
5
5
5
5
5
5
5
5
5
5
5
5
5
5
5
5
5
5
5
5
5
5
5
5
5
5
5
5
5
5
5
5
5
5
5
5
5
5
5
5
5
5
5
5
5
5
5
5
5
5
5
5
5
5
5
5
5
5
5
5
5
5
5
5
5
5
5
5
5
5
5
5
5
5
5
5
5
5
5
5
5
5
5
5
5
5
5
5
5
5
5
5
5
5
5
5
5
5
5
5
5
5
5
5
5
5
5
5
5
5
5
5
5
5
5
5
5
5
5
5
5
5
5
5
5
5
5
5
5
5
5
5
5
5
5
5
5
5
5
5
5
5
5
5
5
5
5
5
5
5
5
5
5
5
5
5
5
5
5
5
5
5
5
5
5
5
5
5
5
5
5
5
5
5
5
5
5
5
5
5
5
5
5
5
5
5
5
5
5
5
5
5
5
5
5
5
5
5
5
5
5
5
5
5
5
5
5
5
5
5
5
5
5
5
5
5
5
5
5
5
5
5
5
5
5
5
5
5
5
5
5
5
5
5
5
5
5
5
5
5
5
5
5
5
5
5
5
5
5
5
5
5
5
5
5
5
5
5
5
5
5
5
5
5
5
5
5
5
5
5
5
5
5
5
5
5
5
5
5
5
5
5
5
5
5
5
5
5
5
5
5
5
5
5
5
5
5
5
5
5
5
5
5
5
5
5
5
5
5
5
5
5
5
5
5
5
5
5
5
5
5
5
5
5
5
5
5
5
5
5
5
5
5
5
5
5
5
5
5
5
5
5
5
5
5
5
5
5
5
5
5
5
5
5
5
5
5
5
5
5
5
5
5
5
5
5
5
5
5
5
5
5
5
5
5
5
5
5
5
5
5
5
5
5
5
5
5
5
5
5
5
5
5
5
5
5
5
5
5
5
5
5
5
5
5
5
5
5
5
5
5
5
5
5
5
5
5
5
5
5
5
5
5
5
5
5
5
5
5
5
5
5
5
5
5
5
5
5
5
5
5
5
5
5
5
5
5
5
5
5
5
5
5
5
5
5
5
5
5
5
5
5
5
5
5
5
5
5
5
5
5
5
5
5
5
5
5
5
5
5
5
5
5
5
5
5
5
5
5
5
5
5
5
5
5
5
5
5
5
5
5
5
5
5
5
5
5
5
5
5
5
5
5
5
5
5
5
5
5
5
5
5
5
5
5
5
5
5
5
5
5
5
5
5
5
5
5
5
5
5
5
5
5
5
5
5
5
5
5
5
5
5
5
5
5
5
5
5
5
5
5
5
5
5
5
5
5
5
5
5
5
5
5
5
5
5
5
5
5
5
5
5
5
5
5
5
5
5
5
5
5
5
5
5
5
5
5
5
5
5
5
5
5
5
5
5
5
5
5
5
5
5
5
5
5
5
5
5
5
5
5
5
5
5
5
5
5
5
5
5
5
5
5
5
5
5
5
5
5
5
5
5
5
5
5
5
5
5
5
5
5
5
5
5
5
5
5
5
5
5
5
5
5
5
5
5
5
5
5
5
5
5
5
5
5
5
5
5
5
5
5
5
5
5
5
5
5
5
5
5
5
5
5
5
5
5
5
5
5
5
5
5
5
5
5
5
5
5
5
5
5
5
5
5
5
5
5
5
5
5
5
5
5
5
5
5
5
5
5
5
5
5
5
5
5
5
5
5
5
5
5
5
5
5
5
5
5
5
5
5
5
5
5
5
5
5
5
5
5
5
5
5
5
5
5
5
5
5
5
5
5
5
5
5
5
5
5
5
5
5
5
5
5
5
5
5
5
5
5
5
5
5
5
5
5
5
5
5
5
5
5
5
5
5
5
5
5
5
5
5
5
5
5
5
5
5
5
5
5
5
5
5
5
5
5
5
5
5
5
10
10
10
10
10
10
10
10
10
10
10
10
10
10
10
10
10
10
10
10
10
10
10
10
10
10
10
10
10
10
10
10
10
10
10
10
10
10
10
10
10
10
10
10
10
10
10
10
10
10
10
10
10
10
10
10
10
10
10
10
10
10
10
10
10
10
10
10
10
10
10
10
10
10
10
10
10
10
10
10
10
10
10
10
10
10
10
10
10
10
10
10
10
10
10
10
10
10
10
10
10
10
10
10
10
10
10
10
10
10
10
10
10
10
10
10
10
10
10
10
10
10
10
10
10
10
10
10
10
10
10
10
10
10
10
10
10
10
10
10
10
10
10
10
10
10
10
10
10
10
10
10
10
10
10
10
10
10
10
10
10
10
10
10
10
10
10
10
10
10
10
10
10
10
10
10
10
10
10
10
10
10
10
10
10
10
10
10
10
10
10
10
10
10
10
10
10
10
10
10
10
10
10
10
10
10
10
10
10
10
10
10
10
10
10
10
10
10
10
10
10
10
10
10
10
10
10
10
10
10
10
10
10
10
10
10
10
10
10
10
10
10
10
10
10
10
10
10
10
10
10
10
10
10
10
10
10
10
10
10
10
10
10
10
10
10
10
10
10
10
10
10
10
10
10
10
10
10
10
10
10
10
10
10
10
10
10
10
10
10
10
10
10
10
10
10
10
10
10
10
10
10
10
10
10
10
10
10
10
10
10
10
10
10
10
10
10
10
10
10
10
10
10
10
10
10
10
10
10
10
10
10
10
10
10
10
10
10
10
10
10
10
10
10
10
10
10
10
10
10
10
10
10
10
10
10
10
10
10
10
10
10
10
10
10
10
10
10
10
10
10
10
10
10
10
10
10
10
10
10
10
10
10
10
10
10
10
10
10
10
10
10
10
10
10
10
10
10
10
10
10
10
10
10
10
10
10
10
10
10
10
10
10
10
10
10
10
10
10
10
10
10
10
10
10
10
10
10
10
10
10
10
10
10
10
10
10
10
10
10
10
10
10
10
10
10
10
10
10
10
10
10
10
10
10
10
10
10
10
10
10
10
10
10
10
10
10
10
10
10
10
10
10
10
10
10
10
10
10
10
10
10
10
10
10
10
10
10
10
10
10
10
10
10
10
10
10
10
10
10
10
10
10
10
10
10
10
10
10
10
10
10
10
10
10
10
10
10
10
10
10
10
10
10
10
10
10
10
10
10
10
10
10
10
10
10
10
10
10
10
10
10
10
10
10
10
10
10
10
10
10
10
10
10
10
10
10
10
10
10
10
10
10
10
10
10
10
10
10
10
10
10
10
10
10
10
10
10
10
10
10
10
10
10
10
10
10
10
10
10
10
10
10
10
10
10
10
10
10
10
10
10
10
10
10
10
10
10
10
10
10
10
10
10
10
10
10
10
10
10
10
10
10
10
10
10
10
10
10
10
10
10
10
10
10
10
10
10
10
10
10
10
10
10
10
10
10
10
10
10
10
10
10
10
10
10
10
10
10
10
10
10
10
10
10
10
10
10
10
10
10
10
10
10
10
10
10
10
10
10
10
10
10
10
10
10
10
10
10
10
10
10
10
10
10
10
10
10
10
10
10
10
10
10
10
10
10
10
10
10
10
10
10
10
10
10
10
10
10
10
10
10
10
10
10
10
10
10
10
10
10
10
10
10
10
10
10
10
10
10
10
10
10
10
10
10
10
10
10
10
10
10
10
10
10
10
10
10
10
10
10
10
10
10
10
10
10
10
10
10
10
10
10
10
10
10
10
10
10
10
10
10
10
10
10
10
10
10
10
10
10
10
10
10
10
10
10
10
10
10
10
10
10
10
10
10
10
10
10
10
10
10
10
10
10
10
10
10
10
10
10
10
10
10
10
10
10
10
10
10
10
10
10
10
10
10
10
10
10
10
10
10
10
10
10
10
10
10
10
10
10
10
10
10
10
10
10
10
10
10
10
10
10
10
10
10
10
10
10
10
10
10
10
10
10
10
10
10
10
10
10
10
10
10
10
10
10
10
10
10
10
10
10
10
10
10
10
10
10
10
10
10
10
10
10
10
10
10
10
10
10
10
10
10
10
10
10
10
10
10
10
10
10
10
10
10
10
10
10
10
10
10
10
10
10
10
10
10
10
10
10
10
10
10
10
10
10
10
10
10
10
10
10
10
10
10
10
10
10
10
10
10
10
10
10
10
10
10
10
10
10
10
10
10
10
10
10
10
10
10
10
10
10
10
10
10
10
10
10
10
10
10
10
10
10
10
10
10
10
10
10
10
10
10
10
10
10
10
10
10
10
10
10
10
10
10
10
10
10
10
10
10
10
10
10
10
10
10
10
10
10
10
10
10
10
10
10
10
10
10
10
10
10
10
10
10
10
10
10
10
10
10
10
10
10
10
10
10
10
10
10
10
10
10
10
10
10
10
10
10
10
10
10
10
10
10
10
10
10
10
10
10
10
10
10
10
10
10
10
10
10
10
10
10
10
10
10
10
10
10
10
10
10
10
10
10
10
10
10
10
10
10
10
10
10
10
10
10
10
10
10
10
10
10
10
10
10
10
10
10
10
10
10
10
10
10
10
10
10
10
10
10
10
10
10
10
10
10
10
10
10
10
10
10
10
10
10
10
10
10
10
10
10
10
10
10
10
10
10
10
10
10
10
10
10
10
10
10
10
10
10
10
10
10
10
10
10
10
10
10
10
10
10
10
10
10
10
10
10
10
10
10
10
10
10
10
10
10
10
10
10
10
10
10
10
10
10
10
10
10
10
10
10
10
10
10
10
10
10
10
10
10
10
10
10
10
10
10
10
10
10
10
10
10
10
10
10
10
10
10
10
10
10
10
10
10
10
10
10
10
10
10
10
10
10
10
10
10
10
10
10
10
10
10
10
10
10
10
10
10
10
10
10
10
10
10
10
10
10
10
10
10
10
10
10
10
10
10
10
10
10
10
10
10
10
10
10
10
10
10
10
10
10
10
10
10
10
10
10
10
10
10
10
10
10
10
10
10
10
10
10
10
10
10
10
10
10
10
10
10
10
10
10
10
10
10
10
10
10
10
10
10
10
10
10
10
10
10
10
10
10
10
10
10
10
10
10
10
10
10
10
10
10
10
10
10
10
10
10
10
10
10
10
10
10
10
10
10
10
10
10
10
10
10
10
10
10
10
10
10
10
10
10
10
10
10
10
10
10
10
10
10
10
10
10
10
10
10
10
10
10
10
10
10
10
10
10
10
10
10
10
10
10
10
10
10
10
10
10
10
10
10
10
10
10
10
10
10
10
10
10
10
10
10
10
10
10
10
10
10
10
10
10
10
10
10
10
10
10
10
10
10
10
10
