# vtk DataFile Version 2.0
, Created by Gmsh 4.11.1 
ASCII
DATASET UNSTRUCTURED_GRID
POINTS 556 double
8.75 0 -43.57694002863072
16.09276337529358 0 -41.51790957350613
16.09276337529358 0 -38.48209042649387
8.75 0 -36.42305997136928
8.75 0 -3
11.75 0 -3
11.75 0 0
-11.75 0 0
-11.75 0 -3
-8.75 0 -3
-8.75 1.071565949253934e-15 -36.42305997136928
-16.09276337529358 1.970795115698904e-15 -38.48209042649387
-16.09276337529358 1.970795115698904e-15 -41.51790957350613
-8.75 1.071565949253934e-15 -43.57694002863072
-8.75 1.071565949253934e-15 -76.42305997136927
-16.09276337529358 1.970795115698904e-15 -78.48209042649387
-16.09276337529358 1.970795115698904e-15 -81.51790957350613
-8.75 1.071565949253934e-15 -83.57694002863073
-8.75 0 -120
8.75 0 -120
8.75 0 -83.57694002863073
16.09276337529358 0 -81.51790957350613
16.09276337529358 0 -78.48209042649387
8.75 0 -76.42305997136927
-8.75 8.856204549859754 -42.53948581149851
8.75 8.856204549859754 -42.53948581149851
8.75 8.856204549859761 -37.46051418850148
-8.75 8.856204549859761 -37.46051418850148
8.75 20 -3
8.75 20 -27.83810713180747
11.75 23 -3
-11.75 23 -3
-8.75 20 -3
11.75 23 0
-11.75 23 0
-8.75 20 -27.83810713180747
-8.75 20 -52.16189286819253
-8.75 20 -67.83810713180748
-8.75 8.856204549859751 -77.46051418850149
8.75 8.856204549859751 -77.46051418850149
-8.75 8.856204549859758 -82.53948581149852
8.75 8.856204549859758 -82.53948581149852
-8.75 20 -92.16189286819254
-8.75 20 -107.8381071318075
-8.75 5.915203377789644 -120
8.75 5.915203377789644 -120
8.75 20 -92.16189286819254
8.75 20 -107.8381071318075
8.75 20 -52.16189286819253
8.75 20 -67.83810713180748
5.016386024454466 4.284318716175947 -83.57694002863073
-5.016386024454465 4.284318716175948 -83.57694002863073
13.26498127832456 4.284318716175947 -81.51790957350613
-13.26498127832456 4.28431871617595 -81.51790957350613
13.26498127832456 4.284318716175947 -78.48209042649387
5.016386024454466 4.284318716175947 -76.42305997136927
-5.016386024454465 4.284318716175948 -76.42305997136927
-13.26498127832456 4.28431871617595 -78.48209042649387
5.016386024454466 4.284318716175947 -43.57694002863072
-5.016386024454465 4.284318716175948 -43.57694002863072
13.26498127832456 4.284318716175947 -41.51790957350613
-13.26498127832456 4.28431871617595 -41.51790957350613
13.26498127832456 4.284318716175947 -38.48209042649387
5.016386024454466 4.284318716175947 -36.42305997136928
-5.016386024454465 4.284318716175948 -36.42305997136928
-13.26498127832456 4.28431871617595 -38.48209042649387
12.4213816876468 0 -42.54742480106842
12.42138168764678 0 -37.45257519893157
8.75 0 -29.73844797709542
8.75 0 -23.05383598282155
8.75 0 -16.36922398854772
8.75 0 -9.68461199427389
5.875000000000016 0 0
3.730349362740526e-14 0 0
-5.874999999999972 0 0
-8.75 0 -9.684611994273862
-8.75 0 -16.36922398854773
-8.75 0 -23.05383598282156
-8.75 0 -29.73844797709539
-12.42138168764678 1.521180532476418e-15 -37.45257519893157
-12.4213816876468 1.52118053247642e-15 -42.54742480106842
-8.75 0 -50.14616401717844
-8.75 0 -56.71538800572615
-8.75 0 -63.28461199427386
-8.75 0 -69.85383598282156
-12.42138168764678 1.521180532476418e-15 -77.45257519893157
-12.4213816876468 1.52118053247642e-15 -82.54742480106843
-8.75 0 -89.64745002385894
-8.75 0 -95.71796001908713
-8.75 0 -101.7884700143153
-8.75 0 -107.8589800095436
-8.75 0 -113.9294900047718
2.916666666666666 0 -120
-2.916666666666668 0 -120
8.75 0 -89.64745002385894
8.75 0 -95.71796001908713
8.75 0 -101.7884700143153
8.75 0 -107.8589800095436
8.75 0 -113.9294900047718
12.4213816876468 0 -82.54742480106843
12.42138168764678 0 -77.45257519893157
8.75 0 -50.14616401717844
8.75 0 -56.71538800572615
8.75 0 -63.28461199427386
8.75 0 -69.85383598282156
14.867774703981 6.158433924696547 -41.51790957350613
11.37930211070061 11.3793021107006 -41.51790957350613
6.158433924696582 14.86777470398098 -41.51790957350613
5.458506684513561e-14 16.09276337529358 -41.51790957350613
-6.158433924696499 14.86777470398101 -41.51790957350613
-11.37930211070057 11.37930211070064 -41.51790957350613
-14.86777470398098 6.158433924696577 -41.51790957350613
-8.75 4.452723284696213 -43.27751083269004
-2.945060765854425 9.629183014715053 -43.2069346594404
2.945060765854452 9.629183014715053 -43.20693465944039
8.75 4.452723284696213 -43.27751083269004
14.867774703981 6.158433924696547 -38.48209042649387
11.37930211070061 11.3793021107006 -38.48209042649387
6.158433924696582 14.86777470398098 -38.48209042649387
5.458506684513561e-14 16.09276337529358 -38.48209042649387
-6.158433924696499 14.86777470398101 -38.48209042649387
-11.37930211070057 11.37930211070064 -38.48209042649387
-14.86777470398098 6.158433924696577 -38.48209042649387
8.75 4.452723284696211 -36.72248916730996
2.945060765854419 9.629183014715048 -36.79306534055961
-2.945060765854454 9.629183014715046 -36.79306534055961
-8.75 4.452723284696212 -36.72248916730996
8.75 6.666666666666651 -3
8.75 13.33333333333329 -3
8.75 20 -21.62858034885561
8.75 20 -15.41905356590375
8.75 20 -9.209526782951883
8.75 12.57080303323984 -34.25304516960347
8.75 16.28540151661992 -31.04557615070547
-5.875000000000016 23 -3
-3.730349362740526e-14 23 -3
5.874999999999972 23 -3
-11.75 5.749999999999988 -3
-11.75 11.49999999999999 -3
-11.75 17.24999999999999 -3
-8.75 13.33333333333335 -3
-8.75 6.666666666666705 -3
-2.916666666666666 20 -3
2.916666666666668 20 -3
11.75 5.749999999999988 -3
11.75 11.49999999999999 -3
11.75 17.24999999999999 -3
11.75 5.749999999999988 0
11.75 11.49999999999999 0
11.75 17.24999999999999 0
-5.875000000000016 23 0
-3.730349362740526e-14 23 0
5.874999999999972 23 0
-11.75 5.749999999999988 0
-11.75 11.49999999999999 0
-11.75 17.24999999999999 0
-8.75 20 -9.209526782951857
-8.75 20 -15.41905356590372
-8.75 20 -21.62858034885559
-8.75 12.57080303323984 -34.25304516960347
-8.75 16.28540151661992 -31.04557615070547
-8.75 16.28540151661992 -48.95442384929452
-8.75 12.57080303323984 -45.74695483039652
-8.75 20 -62.61270237726916
-8.75 20 -57.38729762273085
-8.75 12.57080303323984 -74.25304516960348
-8.75 16.28540151661992 -71.04557615070547
-8.75 4.452723284696207 -76.72248916730996
8.75 4.452723284696207 -76.72248916730996
2.945060765854429 9.629183014715046 -76.79306534055961
-2.945060765854446 9.629183014715046 -76.79306534055961
14.867774703981 6.158433924696547 -78.48209042649387
11.37930211070061 11.3793021107006 -78.48209042649387
6.158433924696582 14.86777470398098 -78.48209042649387
5.458506684513561e-14 16.09276337529358 -78.48209042649387
-6.158433924696499 14.86777470398101 -78.48209042649387
-11.37930211070057 11.37930211070064 -78.48209042649387
-14.86777470398098 6.158433924696577 -78.48209042649387
14.867774703981 6.158433924696547 -81.51790957350613
11.37930211070061 11.3793021107006 -81.51790957350613
6.158433924696582 14.86777470398098 -81.51790957350613
5.458506684513561e-14 16.09276337529358 -81.51790957350613
-6.158433924696499 14.86777470398101 -81.51790957350613
-11.37930211070057 11.37930211070064 -81.51790957350613
-14.86777470398098 6.158433924696577 -81.51790957350613
-8.75 4.452723284696214 -83.27751083269006
-2.945060765854421 9.629183014715062 -83.20693465944042
2.945060765854463 9.629183014715061 -83.20693465944041
8.75 4.452723284696213 -83.27751083269006
-8.75 16.28540151661992 -88.95442384929453
-8.75 12.57080303323984 -85.74695483039653
-8.75 20 -102.6127023772692
-8.75 20 -97.38729762273084
-8.75 10.61013558519309 -115.9460357106025
-8.75 15.30506779259655 -111.892071421205
2.916666666666666 5.915203377789644 -120
-2.916666666666668 5.915203377789644 -120
8.75 16.28540151661992 -88.95442384929453
8.75 12.57080303323984 -85.74695483039653
8.75 20 -102.6127023772692
8.75 20 -97.38729762273084
8.75 10.61013558519309 -115.9460357106025
8.75 15.30506779259655 -111.892071421205
8.75 16.28540151661992 -48.95442384929452
8.75 12.57080303323984 -45.74695483039652
8.75 20 -62.61270237726916
8.75 20 -57.38729762273085
8.75 12.57080303323984 -74.25304516960348
8.75 16.28540151661992 -71.04557615070547
2.916666666666666 20 -52.16189286819253
-2.916666666666668 20 -52.16189286819253
2.916666666666666 20 -27.83810713180747
-2.916666666666668 20 -27.83810713180747
2.916666666666666 20 -67.83810713180748
-2.916666666666668 20 -67.83810713180748
2.916666666666666 20 -92.16189286819254
-2.916666666666668 20 -92.16189286819254
2.916666666666666 20 -107.8381071318075
-2.916666666666668 20 -107.8381071318075
-9.849746964217391e-15 6.596932287671111 -83.57694002863073
5.329070518200751e-15 4.284318716175947 -83.57694002863073
9.151985598119369 4.284318716175947 -82.59317626866165
10.37012377180961 9.315344767287252 -81.51790957350613
5.677237185660887 12.73122512226635 -81.51790957350613
-2.700354776258661e-14 13.93969566296469 -81.51790957350613
-5.677237185660934 12.73122512226633 -81.51790957350613
-10.37012377180964 9.315344767287218 -81.51790957350613
-9.151985598119369 4.284318716175947 -82.59317626866165
9.151985598119369 4.284318716175947 -77.40682373133835
-1.77635683940025e-15 4.284318716175947 -76.42305997136927
-9.151985598119369 4.284318716175947 -77.40682373133835
10.37012377180961 9.315344767287252 -78.48209042649387
5.677237185660887 12.73122512226635 -78.48209042649387
-2.700354776258661e-14 13.93969566296469 -78.48209042649387
-5.677237185660934 12.73122512226633 -78.48209042649387
-10.37012377180964 9.315344767287218 -78.48209042649387
-9.849746964217391e-15 6.596932287671111 -76.42305997136928
-9.849746964217391e-15 6.596932287671111 -43.57694002863072
5.329070518200751e-15 4.284318716175947 -43.57694002863072
9.151985598119369 4.284318716175947 -42.59317626866164
10.37012377180961 9.315344767287252 -41.51790957350613
5.677237185660887 12.73122512226635 -41.51790957350613
-2.700354776258661e-14 13.93969566296469 -41.51790957350613
-5.677237185660934 12.73122512226633 -41.51790957350613
-10.37012377180964 9.315344767287218 -41.51790957350613
-9.151985598119369 4.284318716175947 -42.59317626866164
9.151985598119369 4.284318716175947 -37.40682373133836
-1.77635683940025e-15 4.284318716175947 -36.42305997136928
-9.151985598119369 4.284318716175947 -37.40682373133836
10.37012377180961 9.315344767287252 -38.48209042649387
5.677237185660887 12.73122512226635 -38.48209042649387
-2.700354776258661e-14 13.93969566296469 -38.48209042649387
-5.677237185660934 12.73122512226633 -38.48209042649387
-10.37012377180964 9.315344767287218 -38.48209042649387
-9.849746964217391e-15 6.596932287671111 -36.42305997136928
-4.47031598984673 0 -86.61219502624483
2.98180084789275 0 -72.67136416324388
2.977850198785718 0 -47.32281185947485
3.514614735042349 0 -32.04207322687042
-1.77635683940025e-15 0 -115.3659765585511
-3.492784130205026 0 -98.75321501670123
5.038795881713694 0 -41.21788578699339
5.014505612468092 0 -78.77001249031838
-2.871936708817483 0 -4.200169900576128
-3.060885142767551 0 -60.00000000000001
2.790035523356997 0 -19.80044915251075
-5.303182198978247 0 -81.09348430081853
4.398546471370717 0 -87.27799085207494
3.825716967984885 0 -104.8476871510893
-3.430804198439517 0 -71.61185151171489
-3.436071730582229 0 -48.3803831852434
-3.076392816837629 0 -32.46357725149486
-2.960956198516689 0 -13.02691799141079
-5.045912959379955 0 -38.74134668566339
3.677680217659272 0 -5.751296559179984
-0.02386856604457233 0 -26.13498559607961
-0.03630387928125067 0 -53.76079117793714
-0.034767515739623 0 -66.23694394200903
10.17405808837303 0 -79.79500208171973
-10.22217085279139 0 -80.18224738346976
10.17810646658063 0 -40.2029809644989
-10.17929264619167 0 -39.79022444761056
2.629394620166531 0 -93.11080440328638
3.492784130205028 0 -98.75321501670123
-2.230579047649705 0 -104.9201017136768
-3.716236596711571 0 -92.28847754926451
3.301283398876554 0 -60.00000000000001
-3.780999017203319 0 -20.79692578188816
3.471747588277274 0 -12.22084154794045
3.373329133627712 0 -110.6946628322258
-3.71621436015978 0 -111.1585926126909
-13.68707954247652 0 -80
13.68707954247649 0 -79.99999999999999
-13.68707954247652 0 -40
13.68707954247651 0 -40
-4.976804579569775 0 -66.56922398854772
-4.976804579569789 0 -53.43077601145231
4.976804579569791 0 -53.43077601145231
4.976804579569796 0 -66.56922398854772
-4.991204862015653 0 -26.39614197995848
4.991204862015663 0 -26.39614197995849
-0.7852759941164216 0 -8.418090171383351
0.9680492704066319 0 -82.87135596496381
4.69068931689287 0 -115.9143168751493
-4.739672920683166 0 -115.9805925580729
-1.117476002709324 0 -42.88187734532841
1.287211836523419 0 -37.24001446534486
-1.258248492369093 0 -77.1604330041969
-1.06581410364015e-14 0 -88.94309487310829
-4.82363378029012 0 -7.665958011528829
11.73107333063166 5.001928363675717 -42.45445165675958
-11.42751388992292 6.074024000473894 -42.40158144860806
10.5594518260486 2.306213380012395 -42.99974239366247
13.38064372453196 8.940660298341168 -40.02534001431627
15.79074087919646 3.103149293744056 -40
8.940660298341193 13.38064372453194 -40.02534001431628
-3.139542389015323 15.78354543950017 -40.02534001431628
-15.78354543950015 3.139542389015392 -40.02534001431628
-13.38064372453194 8.940660298341204 -40.02534001431628
3.139542389015423 15.78354543950014 -40.02534001431628
-8.909791038055589 13.40121847860764 -40
11.42751388992431 6.074024000474521 -37.59841855139236
-11.42751384313335 6.074024056174584 -37.59841854713718
8.75 11.31726112400709 -28.97963137394092
8.75 15.06037906375078 -18.73865953664203
8.75 10.11076708743188 -8.842263785444588
8.75 5.234749494783527 -19.53046822217867
8.75 7.566594679893036 -32.81542930892445
8.75 5.229544494914331 -27.18325505281308
8.75 15.44834345659656 -25.21912884540829
8.75 5.158008366720305 -12.95306561277332
8.75 14.85511898602983 -12.31429017442781
8.75 3.449772491900715 -32.57653629550244
8.75 10.07434033898632 -15.91049431032744
8.75 10.12257400196148 -22.95650812156794
8.75 4.857227458560505 -7.862109117629764
8.75 15.659843881359 -7.27321614856486
10.25 3.10416666666666 -3
-10.25 3.104166666666674 -3
11.75 20.125 -1.5
11.75 14.37499999999999 -1.5
11.75 8.624999999999989 -1.5
11.75 2.874999999999994 -1.5
-2.707174061168086 4.878797530676508 0
3.157610638484556 18.22886740495932 0
7.069955745470663 8.71654637064 0
-6.619519168154191 14.39111856499582 0
7.102873022115112 14.37499999999999 0
0.1126091443291166 11.52691623390895 0
-7.000954855602266 8.644857627020134 0
-2.792058517349997 18.15992185565015 0
2.948495529093417 4.721447277005962 0
-7.528051718759411 18.81262893003678 0
7.528051718759418 4.187371069963205 0
7.820492259183635 19.07601590637069 0
-7.553981076842906 4.160878030182232 0
-11.75 20.125 -1.5
-11.75 14.37499999999999 -1.5
-11.75 8.624999999999988 -1.5
-11.75 2.874999999999994 -1.5
-8.75 11.31726112400709 -28.97963137394092
-8.75 15.06037906375079 -18.73865953664201
-8.75 10.11076708743192 -8.842263785444574
-8.75 5.234749494783536 -19.53046822217867
-8.75 7.156396824807191 -32.25837830940162
-8.75 5.656519044725709 -26.18996680331389
-8.75 15.44834345659656 -25.21912884540827
-8.75 5.158008366720319 -12.9530656127733
-8.75 14.85511898602986 -12.31429017442779
-8.75 10.07434033898633 -15.91049431032742
-8.75 10.465265420475 -22.42805818196853
-8.75 4.857227458560516 -7.862109117629752
-8.75 15.65984388135903 -7.273216148564845
-8.75 15.26780279149877 -60
-8.75 11.25609054995993 -68.9427904011373
-8.75 11.29130557845335 -51.0572095988627
-8.75 5.689114857232447 -60.00000000000001
-8.75 7.137489379164694 -72.30031648298691
-8.75 7.143358550580268 -47.69968351701309
-8.75 5.736770184388562 -53.72230552408443
-8.75 5.717631889643213 -66.27769447591558
-8.75 15.50539856826347 -65.62063134253221
-8.75 15.52355866777289 -54.37936865746779
-8.75 10.46270911925378 -56.89831043262512
-8.75 10.44079795174357 -63.11724419551255
11.42751388992432 6.074024000474506 -77.59841855139236
-11.42751387529931 6.074024000133706 -77.59841854772618
13.38064372453196 8.94066029834117 -79.97465998568373
15.79074087919646 3.103149293744056 -80
8.940660298341193 13.38064372453194 -79.97465998568373
-15.78354543950015 3.139542389015392 -80.02534001431627
-3.13954238901533 15.78354543950016 -79.97465998568373
-13.38064372453194 8.940660298341198 -79.97465998568373
3.139542389015423 15.78354543950014 -80.02534001431627
-8.940660298341125 13.38064372453199 -80.02534001431627
11.73107333063123 5.001928363676667 -82.4544516567596
-11.42751388992293 6.074024000473887 -82.40158144860807
10.55945182604861 2.30621338001247 -82.99974239366246
-8.75 15.03858413294305 -99.77527700435949
-8.75 11.41619341793422 -90.6903376316385
-8.75 4.988519298827462 -104.9266324670011
-8.75 5.219531443007634 -92.01590337271681
-8.75 14.41834867926264 -106.119550525738
-8.75 7.345315351310213 -86.74522721020031
-8.75 9.379353662291992 -109.561955063965
-8.75 5.068165920053243 -98.7010803546796
-8.75 15.51652350097005 -94.33301235785308
-8.75 5.365814091345218 -114.6181437862431
-8.75 10.07163365362021 -101.7884700143153
-8.75 10.38843867808807 -96.21734678926047
-8.75 3.12837832123309 -86.92677450294093
-8.75 4.522461169407006 -109.7782177244095
5.833333333333333 2.957601688894822 -120
-5.833333333333336 2.957601688894822 -120
0 2.957601688894822 -120
8.75 15.03858413294305 -99.77527700435949
8.75 11.41619341793422 -90.6903376316385
8.75 4.988519298827462 -104.9266324670011
8.75 5.219531443007634 -92.01590337271681
8.75 14.41834867926264 -106.119550525738
8.75 7.345315351310212 -86.74522721020031
8.75 9.379353662291992 -109.561955063965
8.75 5.068165920053243 -98.7010803546796
8.75 15.51652350097005 -94.33301235785308
8.75 5.365814091345218 -114.6181437862431
8.75 10.07163365362021 -101.7884700143153
8.75 10.38843867808807 -96.21734678926047
8.75 3.12837832123309 -86.92677450294093
8.75 4.522461169407006 -109.7782177244095
8.75 15.26780279149877 -60
8.75 11.25609054995993 -68.9427904011373
8.75 11.29130557845335 -51.0572095988627
8.75 5.689114857232447 -60.00000000000001
8.75 7.547040616148043 -72.8477518153659
8.75 7.552909787563613 -47.15224818463411
8.75 5.326782823602114 -52.66399283357602
8.75 5.310378570963245 -67.33600716642398
8.75 15.50539856826347 -65.62063134253221
8.75 15.52355866777289 -54.37936865746779
8.75 10.55361021167696 -56.89753051403007
8.75 10.59706592493247 -63.13282657068726
8.75 3.462028494361499 -72.63662882065813
8.75 3.466483179172388 -47.36337117934187
3.552713678800501e-15 16.80927512631317 -49.40677647379148
-4.379732349864621 14.32678054448509 -47.26320039244061
4.379732349864634 14.32678054448509 -47.26320039244061
1.4210854715202e-14 12.63288891163961 -45.800564536094
4.959279803306261 17.48429143748363 -49.98963729038233
-4.959279803306258 17.48429143748363 -49.98963729038233
-1.77635683940025e-15 16.80927512631317 -30.59322352620852
-4.379732349864632 14.32678054448508 -32.73679960755939
4.379732349864622 14.32678054448508 -32.73679960755939
-1.598721155460225e-14 12.6328889116396 -34.199435463906
4.959279803306258 17.48429143748364 -30.01036270961766
-4.959279803306259 17.48429143748364 -30.01036270961766
0.2292012094490534 20 -7.225383064925083
-0.2529954720131915 20 -22.99597046374691
-3.970102726638117 20 -18.76770963290787
2.559724548026054 20 -18.03937121594693
-3.5915511634434 20 -12.36613828329938
3.755117987894174 20 -11.39403938408383
-4.549648055736357 20 -23.52742831697362
4.544679148535906 20 -23.66802725843288
-4.696901818876245 20 -7.060343680120573
5.152521790096651 20 -6.576925144987523
8.812499999999986 23 -1.5
2.937499999999966 23 -1.5
-8.812500000000007 23 -1.5
-2.937500000000027 23 -1.499999999999999
-4.861111111111109 20 -60.00000000000001
4.861111111111111 20 -60.00000000000001
-1.77635683940025e-15 20 -56.67680870297912
-1.77635683940025e-15 20 -63.32319129702088
-5.055555555555557 20 -64.322421587581
5.055555555555555 20 -55.67757841241901
-5.055555555555555 20 -55.67757841241901
5.055555555555555 20 -64.322421587581
0.9722222222222205 16.58703752098038 -70.78512050703387
4.499755942308714 14.42810227492988 -72.64931066015448
-3.731584201716483 14.59929081721129 -72.50149335278878
-1.06581410364015e-14 12.52331981771256 -74.29404581702281
5.177728966239521 17.46010826250604 -70.03124431630175
-0.9722222222222179 16.58703752098038 -89.21487949296615
3.73158420171649 14.5992908172113 -87.49850664721123
-4.49975594230872 14.42810227492988 -87.35068933984553
2.309263891220326e-14 12.52331981771257 -85.70595418297721
-5.177728966239522 17.46010826250604 -89.96875568369826
-4.861111111111109 20 -100
4.224666737513835 20 -100
-1.078296284488433 20 -102.9297379535221
-1.77635683940025e-15 20 -96.67680870297913
-5.431820104133269 20 -104.5242091576404
-5.055555555555555 20 -95.67757841241901
4.928266680836099 20 -95.67757841241901
0 16.31805843405532 -111.0173776653522
-1.77635683940025e-15 9.597144943734317 -116.8207294664552
3.72265911807049 12.95760168889482 -113.9190535659037
-3.72892795128188 12.95760168889482 -113.9190535659037
4.548330778320856 16.73789695236356 -110.6548569120491
4.548330778320855 9.177306425426083 -117.1832502197584
-4.54833077832086 9.17730642542608 -117.1832502197584
-4.548330778320858 16.73789695236356 -110.6548569120491
4.727550851676575 8.077034570906937 -82.80245104874756
-4.727550851677006 8.077034570906649 -82.80245104874756
2.508193012227238 4.284318716175947 -80
-2.508193012227236 4.284318716175947 -80
6.919339332324274 4.284318716175947 -80
-6.919339332324274 4.284318716175947 -80
10.67109973657074 4.284318716175947 -80
-10.67109973657074 4.284318716175947 -80
2.902215666951124 13.63423116272348 -80.02388063046359
8.203444890698057 11.27025319597375 -80.02388063046359
-2.90221566695117 13.63423116272347 -80.02388063046358
-8.203444890698101 11.27025319597372 -79.97611936953641
12.08231573269212 6.952176760671228 -80.02388063046359
-12.08231573269214 6.9521767606712 -80.02388063046357
4.727550851676732 8.077034570906722 -77.19754895125241
-4.727550851676702 8.077034570906747 -77.19754895125243
4.727550851676575 8.077034570906937 -42.80245104874755
-4.727550851677001 8.077034570906649 -42.80245104874756
2.508193012227238 4.284318716175947 -40
-2.508193012227235 4.284318716175947 -40
6.919339332324274 4.284318716175947 -40
-6.919339332324274 4.284318716175947 -40
-10.67109973657074 4.284318716175947 -40
10.67109973657074 4.284318716175947 -40
2.902215666951121 13.63423116272348 -40.02388063046359
8.203444890698059 11.27025319597375 -40.02388063046359
-2.902215666951176 13.63423116272347 -40.02388063046359
-8.203444890698101 11.27025319597372 -39.97611936953641
12.08231573269212 6.952176760671228 -40.02388063046359
-12.08231573269214 6.9521767606712 -40.02388063046357
4.727550851676732 8.077034570906722 -37.19754895125242
-4.727550851676703 8.077034570906749 -37.19754895125242
-0.2097827131295486 9.06946787783437 -54.14885525766977
-1.77635683940025e-15 8.944069628035789 -94.09337967265368
-0.3421003646211645 9.071103461563034 -25.85303892643681
-0.2684069154892103 9.041768300316001 -65.94539819927958
-8.881784197001252e-15 11.16301312520693 -12.38189575473146
0.4772154858891761 8.916449131058952 -105.6031618007021
1.533133917751395 13.30105958434739 -60.06590277436458
-1.585950328862682 13.4375140350878 -99.67819629700429
-0.6487725459477216 13.27610496841831 -19.59589824956248
2.535976737572174 13.97767858425917 -5.725214519786711
1.246674630534195 6.761964224909283 -6.750778356736288
-2.822281928005734 14.47222430474018 -54.75912944449156
-2.479910991609767 6.653167983659388 -111.2542863771322
-1.741227650403081 6.291233912353966 -17.597974307874
2.283439689601838 14.47581168683099 -25.53914470622122
-3.087098881993973 6.137978976568184 -89.32230756219043
3.048924846457317 14.71928309367426 -65.43666609048066
3.041814922747006 14.68130230827579 -54.66294085600196
-3.599594601665462 14.42507056749237 -62.85096154892879
3.174621679407215 6.062664743704111 -89.29193161433251
2.894533443809273 6.093896832638807 -49.36961616489153
2.919914908587476 6.074633549855307 -70.64170029477869

CELLS 3022 13280
1 0
1 1
1 2
1 3
1 4
1 5
1 6
1 7
1 8
1 9
1 10
1 11
1 12
1 13
1 14
1 15
1 16
1 17
1 18
1 19
1 20
1 21
1 22
1 23
1 24
1 25
1 26
1 27
1 28
1 29
1 30
1 31
1 32
1 33
1 34
1 35
1 36
1 37
1 38
1 39
1 40
1 41
1 42
1 43
1 44
1 45
1 46
1 47
1 48
1 49
1 50
1 51
1 52
1 53
1 54
1 55
1 56
1 57
1 58
1 59
1 60
1 61
1 62
1 63
1 64
1 65
2 0 66
2 66 1
2 1 2
2 2 67
2 67 3
2 3 68
2 68 69
2 69 70
2 70 71
2 71 4
2 4 5
2 5 6
2 6 72
2 72 73
2 73 74
2 74 7
2 8 7
2 8 9
2 9 75
2 75 76
2 76 77
2 77 78
2 78 10
2 11 79
2 79 10
2 12 11
2 13 80
2 80 12
2 13 81
2 81 82
2 82 83
2 83 84
2 84 14
2 15 85
2 85 14
2 16 15
2 17 86
2 86 16
2 17 87
2 87 88
2 88 89
2 89 90
2 90 91
2 91 18
2 19 92
2 92 93
2 93 18
2 20 94
2 94 95
2 95 96
2 96 97
2 97 98
2 98 19
2 20 99
2 99 21
2 21 22
2 22 100
2 100 23
2 0 101
2 101 102
2 102 103
2 103 104
2 104 23
2 1 105
2 105 106
2 106 107
2 107 108
2 108 109
2 109 110
2 110 111
2 111 12
2 24 112
2 112 13
2 24 113
2 113 114
2 114 25
2 25 115
2 115 0
2 2 116
2 116 117
2 117 118
2 118 119
2 119 120
2 120 121
2 121 122
2 122 11
2 3 123
2 123 26
2 26 124
2 124 125
2 125 27
2 10 126
2 126 27
2 4 127
2 127 128
2 128 28
2 29 129
2 129 130
2 130 131
2 131 28
2 26 132
2 132 133
2 133 29
2 31 134
2 134 135
2 135 136
2 136 30
2 8 137
2 137 138
2 138 139
2 139 31
2 32 140
2 140 141
2 141 9
2 32 142
2 142 143
2 143 28
2 5 144
2 144 145
2 145 146
2 146 30
2 6 147
2 147 148
2 148 149
2 149 33
2 30 33
2 34 150
2 150 151
2 151 152
2 152 33
2 7 153
2 153 154
2 154 155
2 155 34
2 31 34
2 32 156
2 156 157
2 157 158
2 158 35
2 27 159
2 159 160
2 160 35
2 36 161
2 161 162
2 162 24
2 37 163
2 163 164
2 164 36
2 38 165
2 165 166
2 166 37
2 14 167
2 167 38
2 23 168
2 168 39
2 39 169
2 169 170
2 170 38
2 22 171
2 171 172
2 172 173
2 173 174
2 174 175
2 175 176
2 176 177
2 177 15
2 21 178
2 178 179
2 179 180
2 180 181
2 181 182
2 182 183
2 183 184
2 184 16
2 40 185
2 185 17
2 40 186
2 186 187
2 187 41
2 41 188
2 188 20
2 42 189
2 189 190
2 190 40
2 43 191
2 191 192
2 192 42
2 44 193
2 193 194
2 194 43
2 18 44
2 45 195
2 195 196
2 196 44
2 19 45
2 46 197
2 197 198
2 198 41
2 47 199
2 199 200
2 200 46
2 45 201
2 201 202
2 202 47
2 48 203
2 203 204
2 204 25
2 49 205
2 205 206
2 206 48
2 39 207
2 207 208
2 208 49
2 48 209
2 209 210
2 210 36
2 29 211
2 211 212
2 212 35
2 49 213
2 213 214
2 214 37
2 46 215
2 215 216
2 216 42
2 47 217
2 217 218
2 218 43
2 50 219
2 219 51
2 51 220
2 220 50
2 50 221
2 221 52
2 52 222
2 222 223
2 223 224
2 224 225
2 225 226
2 226 53
2 53 227
2 227 51
2 52 54
2 54 228
2 228 55
2 55 229
2 229 56
2 56 230
2 230 57
2 53 57
2 54 231
2 231 232
2 232 233
2 233 234
2 234 235
2 235 57
2 55 236
2 236 56
2 58 237
2 237 59
2 59 238
2 238 58
2 58 239
2 239 60
2 60 240
2 240 241
2 241 242
2 242 243
2 243 244
2 244 61
2 61 245
2 245 59
2 60 62
2 62 246
2 246 63
2 63 247
2 247 64
2 64 248
2 248 65
2 61 65
2 62 249
2 249 250
2 250 251
2 251 252
2 252 253
2 253 65
2 63 254
2 254 64
3 66 280 0
3 0 257 101
3 0 261 257
3 0 280 261
3 2 294 1
3 1 294 66
3 67 294 2
3 3 280 67
3 68 258 3
3 258 306 3
3 261 280 3
3 3 306 261
3 5 6 4
3 4 6 72
3 4 274 71
3 72 274 4
3 8 9 7
3 7 9 74
3 9 263 74
3 75 309 9
3 9 309 263
3 10 271 78
3 79 281 10
3 10 273 271
3 10 281 273
3 12 293 11
3 11 293 79
3 80 293 12
3 13 281 80
3 81 270 13
3 270 305 13
3 273 281 13
3 13 305 273
3 14 269 84
3 85 279 14
3 14 279 266
3 266 307 14
3 14 307 269
3 16 291 15
3 15 291 85
3 86 291 16
3 17 279 86
3 87 255 17
3 255 266 17
3 266 279 17
3 18 304 91
3 93 304 18
3 19 303 92
3 98 303 19
3 20 267 94
3 99 278 20
3 20 278 262
3 262 302 20
3 20 302 267
3 22 292 21
3 21 292 99
3 100 292 22
3 23 278 100
3 104 256 23
3 256 262 23
3 262 278 23
3 66 294 280
3 280 294 67
3 69 300 68
3 68 300 258
3 70 265 69
3 265 300 69
3 71 288 70
3 70 288 265
3 274 288 71
3 73 274 72
3 74 263 73
3 263 274 73
3 76 272 75
3 272 309 75
3 77 287 76
3 76 287 272
3 78 299 77
3 77 299 287
3 271 299 78
3 79 293 281
3 281 293 80
3 82 296 81
3 81 296 270
3 83 264 82
3 264 296 82
3 84 295 83
3 83 295 264
3 269 295 84
3 85 291 279
3 279 291 86
3 88 285 87
3 87 285 255
3 89 260 88
3 260 285 88
3 90 284 89
3 89 284 260
3 91 290 90
3 90 290 284
3 91 304 290
3 92 259 93
3 92 303 259
3 259 304 93
3 94 282 95
3 267 282 94
3 95 283 96
3 282 283 95
3 96 268 97
3 96 283 268
3 97 289 98
3 268 289 97
3 289 303 98
3 99 292 278
3 278 292 100
3 101 297 102
3 257 297 101
3 102 286 103
3 102 297 286
3 103 298 104
3 286 298 103
3 104 298 256
3 255 302 266
3 285 308 255
3 255 308 302
3 256 307 262
3 256 277 269
3 269 307 256
3 256 298 277
3 261 305 257
3 270 276 257
3 257 305 270
3 276 297 257
3 258 275 271
3 271 306 258
3 258 300 275
3 289 290 259
3 259 303 289
3 290 304 259
3 260 283 282
3 282 285 260
3 260 284 283
3 261 306 305
3 262 307 302
3 263 301 274
3 263 309 301
3 264 286 276
3 276 296 264
3 277 286 264
3 264 295 277
3 272 287 265
3 265 288 272
3 265 287 275
3 275 300 265
3 302 307 266
3 267 308 282
3 302 308 267
3 283 284 268
3 284 289 268
3 277 295 269
3 270 296 276
3 273 306 271
3 275 299 271
3 288 301 272
3 301 309 272
3 305 306 273
3 274 301 288
3 287 299 275
3 286 297 276
3 277 298 286
3 282 308 285
3 284 290 289
3 0 312 66
3 115 312 0
3 66 105 1
3 111 80 12
3 112 13 80
3 109 24 110
3 109 113 24
3 24 311 110
3 112 311 24
3 106 25 107
3 106 310 25
3 114 107 25
3 25 310 115
3 66 310 105
3 66 312 310
3 111 311 80
3 80 311 112
3 105 310 106
3 108 107 114
3 109 108 113
3 108 114 113
3 110 311 111
3 310 312 115
3 1 314 2
3 105 314 1
3 2 314 116
3 11 317 12
3 122 317 11
3 12 317 111
3 106 313 105
3 105 313 116
3 116 314 105
3 107 315 106
3 117 313 106
3 106 315 117
3 108 319 107
3 118 315 107
3 107 319 118
3 109 316 108
3 108 316 119
3 119 319 108
3 110 320 109
3 120 316 109
3 109 320 120
3 111 318 110
3 110 318 121
3 121 320 110
3 111 317 122
3 122 318 111
3 116 313 117
3 117 315 118
3 118 319 119
3 119 316 120
3 120 320 121
3 121 318 122
3 67 2 116
3 67 123 3
3 126 79 10
3 122 11 79
3 117 118 26
3 26 321 117
3 26 118 124
3 123 321 26
3 120 121 27
3 120 27 125
3 121 322 27
3 27 322 126
3 116 321 67
3 67 321 123
3 79 322 122
3 126 322 79
3 117 321 116
3 124 118 119
3 120 125 119
3 125 124 119
3 122 322 121
3 3 332 68
3 123 332 3
3 71 335 4
3 4 335 127
3 26 327 123
3 132 327 26
3 128 336 28
3 28 336 131
3 129 329 29
3 29 329 133
3 68 328 69
3 68 332 328
3 69 326 70
3 69 328 326
3 70 330 71
3 326 330 70
3 330 335 71
3 327 332 123
3 127 325 128
3 127 335 325
3 325 336 128
3 130 324 129
3 324 329 129
3 131 331 130
3 130 331 324
3 131 336 331
3 133 323 132
3 323 327 132
3 133 329 323
3 323 328 327
3 323 334 328
3 329 334 323
3 324 334 329
3 331 333 324
3 333 334 324
3 330 333 325
3 325 335 330
3 325 333 331
3 331 336 325
3 328 334 326
3 326 333 330
3 326 334 333
3 328 332 327
3 5 4 337
3 4 127 337
3 144 5 337
3 9 8 338
3 8 137 338
3 141 9 338
3 30 28 136
3 146 28 30
3 128 28 146
3 28 143 136
3 31 134 32
3 31 32 139
3 134 142 32
3 139 32 140
3 128 145 127
3 127 145 144
3 127 144 337
3 145 128 146
3 142 134 135
3 143 135 136
3 143 142 135
3 137 138 141
3 137 141 338
3 138 139 140
3 138 140 141
3 5 342 6
3 144 342 5
3 6 342 147
3 33 339 30
3 30 339 146
3 149 339 33
3 145 341 144
3 144 341 147
3 147 342 144
3 146 340 145
3 145 340 148
3 148 341 145
3 146 339 149
3 149 340 146
3 147 341 148
3 148 340 149
3 6 353 72
3 147 353 6
3 74 355 7
3 7 355 153
3 33 354 149
3 152 354 33
3 34 352 150
3 155 352 34
3 72 351 73
3 72 353 351
3 73 343 74
3 73 351 343
3 343 355 74
3 148 345 147
3 345 353 147
3 149 347 148
3 148 347 345
3 149 354 347
3 150 350 151
3 150 352 350
3 151 344 152
3 151 350 344
3 344 354 152
3 153 349 154
3 153 355 349
3 154 346 155
3 154 349 346
3 346 352 155
3 348 349 343
3 343 351 348
3 349 355 343
3 344 348 347
3 347 354 344
3 344 350 348
3 347 348 345
3 348 351 345
3 351 353 345
3 346 349 348
3 348 350 346
3 350 352 346
3 8 7 359
3 7 153 359
3 137 8 359
3 34 31 356
3 31 139 356
3 155 34 356
3 138 137 358
3 137 153 358
3 153 137 359
3 139 138 357
3 138 154 357
3 154 138 358
3 139 155 356
3 155 139 357
3 153 154 358
3 154 155 357
3 75 9 371
3 9 141 371
3 126 10 78
3 27 126 364
3 159 27 364
3 140 32 372
3 32 156 372
3 158 35 366
3 35 160 366
3 76 75 367
3 367 75 371
3 77 76 363
3 363 76 367
3 78 77 365
3 77 363 365
3 126 78 364
3 364 78 365
3 141 140 362
3 362 140 372
3 141 362 371
3 156 157 368
3 156 368 372
3 157 158 361
3 157 361 368
3 361 158 366
3 160 159 360
3 360 159 364
3 160 360 366
3 360 364 365
3 360 365 370
3 366 360 370
3 361 366 370
3 368 361 369
3 369 361 370
3 367 362 369
3 362 367 371
3 362 368 369
3 368 362 372
3 365 363 370
3 363 367 369
3 363 369 370
3 81 13 112
3 167 14 84
3 112 24 378
3 24 162 378
3 161 36 382
3 36 164 382
3 163 37 381
3 37 166 381
3 165 38 377
3 38 167 377
3 82 81 379
3 81 112 378
3 81 378 379
3 83 82 376
3 376 82 379
3 84 83 380
3 83 376 380
3 167 84 377
3 377 84 380
3 162 161 375
3 375 161 382
3 162 375 378
3 164 163 373
3 373 163 381
3 164 373 382
3 166 165 374
3 374 165 377
3 166 374 381
3 373 381 384
3 382 373 383
3 383 373 384
3 374 377 380
3 374 380 384
3 381 374 384
3 378 375 379
3 379 375 383
3 375 382 383
3 376 379 383
3 380 376 384
3 376 383 384
3 167 85 14
3 177 15 85
3 100 22 171
3 100 168 23
3 38 386 167
3 175 38 170
3 175 176 38
3 176 386 38
3 168 385 39
3 39 173 169
3 172 173 39
3 39 385 172
3 167 386 85
3 85 386 177
3 100 385 168
3 171 385 100
3 170 169 174
3 169 173 174
3 175 170 174
3 172 385 171
3 177 386 176
3 15 390 16
3 177 390 15
3 16 390 184
3 21 388 22
3 178 388 21
3 22 388 171
3 171 387 172
3 178 387 171
3 171 388 178
3 172 389 173
3 172 387 179
3 179 389 172
3 173 393 174
3 173 389 180
3 180 393 173
3 174 391 175
3 181 391 174
3 174 393 181
3 175 394 176
3 175 391 182
3 182 394 175
3 176 392 177
3 183 392 176
3 176 394 183
3 184 390 177
3 177 392 184
3 179 387 178
3 180 389 179
3 181 393 180
3 182 391 181
3 183 394 182
3 184 392 183
3 184 86 16
3 185 17 86
3 20 397 99
3 188 397 20
3 99 178 21
3 182 40 183
3 186 40 182
3 40 396 183
3 185 396 40
3 179 41 180
3 179 395 41
3 187 180 41
3 41 395 188
3 184 396 86
3 86 396 185
3 99 395 178
3 99 397 395
3 178 395 179
3 181 180 187
3 182 181 186
3 186 181 187
3 183 396 184
3 395 397 188
3 87 17 410
3 17 185 410
3 44 18 407
3 18 91 407
3 185 40 403
3 40 190 403
3 189 42 406
3 42 192 406
3 191 43 402
3 43 194 402
3 193 44 407
3 88 87 401
3 401 87 410
3 89 88 405
3 88 401 405
3 90 89 400
3 400 89 405
3 91 90 411
3 90 400 411
3 407 91 411
3 185 403 410
3 190 189 399
3 399 189 406
3 190 399 403
3 192 191 398
3 398 191 402
3 192 398 406
3 194 193 404
3 404 193 407
3 402 194 404
3 398 402 408
3 406 398 409
3 398 408 409
3 399 401 403
3 401 399 409
3 399 406 409
3 404 400 408
3 400 404 411
3 400 405 408
3 403 401 410
3 405 401 409
3 402 404 408
3 404 407 411
3 408 405 409
3 44 413 18
3 18 413 93
3 19 412 45
3 92 412 19
3 196 413 44
3 45 412 195
3 93 414 92
3 92 414 412
3 413 414 93
3 195 414 196
3 412 414 195
3 196 414 413
3 45 424 19
3 19 424 98
3 94 427 20
3 20 427 188
3 188 420 41
3 41 420 198
3 201 424 45
3 197 423 46
3 46 423 200
3 199 419 47
3 47 419 202
3 95 418 94
3 418 427 94
3 96 422 95
3 95 422 418
3 97 417 96
3 417 422 96
3 98 428 97
3 97 428 417
3 424 428 98
3 188 427 420
3 198 416 197
3 416 423 197
3 198 420 416
3 200 415 199
3 415 419 199
3 200 423 415
3 202 421 201
3 421 424 201
3 419 421 202
3 415 425 419
3 423 426 415
3 415 426 425
3 416 420 418
3 418 426 416
3 416 426 423
3 421 425 417
3 417 428 421
3 417 425 422
3 420 427 418
3 422 426 418
3 419 425 421
3 421 428 424
3 425 426 422
3 101 442 0
3 0 442 115
3 23 441 104
3 168 441 23
3 115 434 25
3 25 434 204
3 39 433 168
3 207 433 39
3 203 438 48
3 48 438 206
3 205 437 49
3 49 437 208
3 102 435 101
3 435 442 101
3 103 432 102
3 432 435 102
3 104 436 103
3 103 436 432
3 104 441 436
3 115 442 434
3 433 441 168
3 204 431 203
3 431 438 203
3 204 434 431
3 206 429 205
3 429 437 205
3 206 438 429
3 208 430 207
3 430 433 207
3 208 437 430
3 429 440 437
3 438 439 429
3 439 440 429
3 430 436 433
3 430 440 436
3 437 440 430
3 434 435 431
3 435 439 431
3 431 439 438
3 432 439 435
3 436 440 432
3 432 440 439
3 436 441 433
3 434 442 435
3 24 113 162
3 114 25 204
3 161 448 36
3 36 448 210
3 48 447 203
3 209 447 48
3 114 446 113
3 113 444 162
3 113 446 444
3 204 445 114
3 445 446 114
3 162 444 161
3 444 448 161
3 203 445 204
3 203 447 445
3 210 443 209
3 443 447 209
3 210 448 443
3 444 446 443
3 443 448 444
3 443 446 445
3 445 447 443
3 132 26 124
3 27 159 125
3 133 453 29
3 29 453 211
3 35 454 160
3 212 454 35
3 125 452 124
3 124 451 132
3 124 452 451
3 159 450 125
3 450 452 125
3 132 451 133
3 451 453 133
3 160 450 159
3 160 454 450
3 211 449 212
3 211 453 449
3 449 454 212
3 449 452 450
3 450 454 449
3 451 452 449
3 449 453 451
3 131 464 28
3 28 464 143
3 29 462 129
3 211 462 29
3 142 463 32
3 32 463 156
3 158 461 35
3 35 461 212
3 129 458 130
3 129 462 458
3 130 460 131
3 458 460 130
3 460 464 131
3 143 455 142
3 455 463 142
3 143 464 455
3 156 459 157
3 156 463 459
3 157 457 158
3 157 459 457
3 457 461 158
3 212 456 211
3 456 462 211
3 212 461 456
3 455 460 459
3 459 463 455
3 455 464 460
3 457 458 456
3 456 461 457
3 458 462 456
3 457 459 458
3 459 460 458
3 30 465 33
3 136 465 30
3 34 467 31
3 31 467 134
3 33 465 152
3 150 467 34
3 134 468 135
3 134 467 150
3 150 468 134
3 135 466 136
3 151 466 135
3 135 468 151
3 152 465 136
3 136 466 152
3 151 468 150
3 152 466 151
3 36 475 164
3 210 475 36
3 163 473 37
3 37 473 214
3 206 474 48
3 48 474 209
3 49 476 205
3 213 476 49
3 164 469 163
3 469 473 163
3 164 475 469
3 205 470 206
3 205 476 470
3 470 474 206
3 209 471 210
3 209 474 471
3 471 475 210
3 214 472 213
3 472 476 213
3 214 473 472
3 471 472 469
3 469 475 471
3 472 473 469
3 470 472 471
3 471 474 470
3 470 476 472
3 214 166 37
3 170 38 165
3 207 39 169
3 208 481 49
3 49 481 213
3 166 479 165
3 165 479 170
3 214 479 166
3 170 480 169
3 169 478 207
3 169 480 478
3 479 480 170
3 207 478 208
3 478 481 208
3 213 477 214
3 213 481 477
3 477 479 214
3 478 480 477
3 477 481 478
3 477 480 479
3 186 190 40
3 187 41 198
3 189 486 42
3 42 486 216
3 215 197 46
3 187 485 186
3 186 484 190
3 186 485 484
3 198 483 187
3 483 485 187
3 190 484 189
3 484 486 189
3 197 483 198
3 215 483 197
3 216 482 215
3 482 483 215
3 216 486 482
3 482 485 483
3 484 485 482
3 482 486 484
3 42 492 192
3 216 492 42
3 191 491 43
3 43 491 218
3 200 493 46
3 46 493 215
3 217 199 47
3 192 487 191
3 487 491 191
3 192 492 487
3 199 488 200
3 217 488 199
3 488 493 200
3 215 490 216
3 215 493 490
3 490 492 216
3 218 489 217
3 217 489 488
3 218 491 489
3 487 490 489
3 489 491 487
3 487 492 490
3 489 490 488
3 490 493 488
3 43 501 194
3 218 501 43
3 193 500 44
3 44 500 196
3 195 499 45
3 45 499 201
3 202 498 47
3 47 498 217
3 194 497 193
3 497 500 193
3 194 501 497
3 196 495 195
3 495 499 195
3 196 500 495
3 201 496 202
3 201 499 496
3 496 498 202
3 217 494 218
3 217 498 494
3 494 501 218
3 496 497 494
3 494 498 496
3 497 501 494
3 495 497 496
3 496 499 495
3 495 500 497
3 219 220 50
3 51 220 219
3 219 50 502
3 50 221 502
3 51 219 503
3 227 51 503
3 52 222 221
3 226 53 227
3 224 219 502
3 219 224 503
3 221 222 502
3 222 223 502
3 223 224 502
3 224 225 503
3 225 226 503
3 226 227 503
3 220 504 50
3 50 506 221
3 504 506 50
3 51 505 220
3 227 507 51
3 51 507 505
3 52 508 54
3 221 508 52
3 57 509 53
3 53 509 227
3 54 508 228
3 228 506 55
3 55 504 229
3 55 506 504
3 229 505 56
3 56 507 230
3 505 507 56
3 230 509 57
3 220 505 504
3 506 508 221
3 227 509 507
3 228 508 506
3 504 505 229
3 507 509 230
3 52 54 514
3 222 52 514
3 57 53 515
3 53 226 515
3 54 231 514
3 235 57 515
3 223 222 511
3 222 231 511
3 231 222 514
3 224 223 510
3 223 232 510
3 232 223 511
3 225 224 512
3 233 224 510
3 224 233 512
3 226 225 513
3 234 225 512
3 225 234 513
3 235 226 513
3 226 235 515
3 231 232 511
3 232 233 510
3 233 234 512
3 234 235 513
3 54 228 231
3 228 55 516
3 55 236 516
3 56 230 517
3 236 56 517
3 235 230 57
3 231 228 516
3 230 235 517
3 232 231 516
3 233 232 516
3 234 233 517
3 236 233 516
3 233 236 517
3 235 234 517
3 229 236 55
3 236 229 56
3 237 238 58
3 238 237 59
3 237 58 518
3 58 239 518
3 59 237 519
3 245 59 519
3 60 240 239
3 244 61 245
3 242 237 518
3 237 242 519
3 239 240 518
3 240 241 518
3 241 242 518
3 242 243 519
3 243 244 519
3 244 245 519
3 238 520 58
3 58 522 239
3 520 522 58
3 59 521 238
3 245 523 59
3 59 523 521
3 60 525 62
3 239 525 60
3 65 524 61
3 61 524 245
3 62 525 246
3 246 522 63
3 63 520 247
3 63 522 520
3 247 521 64
3 64 523 248
3 521 523 64
3 248 524 65
3 238 521 520
3 522 525 239
3 245 524 523
3 246 525 522
3 520 521 247
3 523 524 248
3 60 62 530
3 240 60 530
3 65 61 531
3 61 244 531
3 62 249 530
3 253 65 531
3 241 240 527
3 240 249 527
3 249 240 530
3 242 241 526
3 241 250 526
3 250 241 527
3 243 242 528
3 251 242 526
3 242 251 528
3 244 243 529
3 252 243 528
3 243 252 529
3 253 244 529
3 244 253 531
3 249 250 527
3 250 251 526
3 251 252 528
3 252 253 529
3 62 246 249
3 246 63 532
3 63 254 532
3 64 248 533
3 254 64 533
3 253 248 65
3 249 246 532
3 248 253 533
3 250 249 532
3 251 250 532
3 252 251 533
3 254 251 532
3 251 254 533
3 253 252 533
3 247 254 63
3 254 247 64
4 423 535 493 541
4 174 170 175 233
4 120 251 119 125
4 242 109 108 113
4 182 224 186 181
4 169 174 173 233
4 124 119 118 251
4 242 107 114 108
4 181 187 180 224
4 486 406 492 541
4 222 52 221 395
4 240 60 239 310
4 415 423 493 541
4 492 216 486 541
4 234 235 517 38
4 252 253 533 27
4 231 232 516 39
4 241 240 518 25
4 249 250 532 26
4 223 222 502 41
4 244 243 519 24
4 226 225 503 40
4 402 218 491 541
4 376 534 264 537
4 493 423 215 535
4 535 539 405 541
4 489 491 218 541
4 286 537 534 540
4 372 463 142 543
4 493 535 490 541
4 264 534 286 537
4 486 535 406 541
4 216 482 486 541
4 218 494 489 541
4 486 399 406 535
4 271 258 247 536
4 383 534 376 552
4 432 537 286 540
4 432 286 534 540
4 376 534 537 540
4 327 258 63 332
4 376 540 537 552
4 534 540 376 552
4 423 415 426 541
4 482 535 486 541
4 501 218 402 541
4 362 372 140 543
4 493 215 490 535
4 463 372 538 543
4 195 499 495 259
4 499 195 303 259
4 383 376 384 552
4 422 417 268 539
4 405 535 260 539
4 362 543 140 544
4 142 140 372 543
4 124 451 452 536
4 423 426 535 541
4 24 110 311 244
4 40 183 396 226
4 39 172 385 231
4 26 117 321 249
4 176 38 386 235
4 121 27 322 253
4 323 451 327 536
4 376 537 384 552
4 495 259 499 546
4 327 258 328 536
4 362 538 372 543
4 454 212 461 548
4 499 303 289 259
4 283 535 422 539
4 422 535 425 539
4 501 402 539 541
4 327 451 124 536
4 140 543 348 544
4 461 366 454 548
4 113 444 446 534
4 484 486 482 535
4 332 327 258 328
4 499 428 421 546
4 428 499 424 546
4 484 399 486 535
4 234 176 38 175
4 24 109 110 243
4 252 121 27 120
4 183 225 40 182
4 232 172 173 39
4 117 250 26 118
4 450 125 452 536
4 217 539 419 541
4 408 405 539 541
4 405 260 400 539
4 366 536 454 548
4 251 254 124 125
4 233 236 169 170
4 237 242 114 113
4 219 224 187 186
4 334 542 536 547
4 124 254 327 536
4 362 538 543 544
4 463 538 455 543
4 415 419 425 541
4 419 415 488 541
4 482 490 215 535
4 215 423 483 535
4 490 535 482 541
4 425 539 535 541
4 366 360 454 536
4 142 346 140 543
4 380 376 264 537
4 56 377 269 555
4 498 419 217 539
4 367 538 371 544
4 494 498 217 539
4 400 408 405 539
4 423 416 483 535
4 275 258 271 536
4 59 270 378 554
4 450 449 454 536
4 490 482 216 541
4 270 237 59 238
4 289 499 259 546
4 432 298 286 537
4 479 170 480 537
4 334 536 326 547
4 260 535 283 539
4 297 432 286 534
4 337 342 5 144
4 359 8 137 338
4 405 401 285 535
4 349 140 348 544
4 113 534 446 554
4 124 452 254 536
4 419 539 425 541
4 295 380 264 537
4 371 367 362 538
4 425 422 426 535
4 422 268 283 539
4 426 416 423 535
4 399 409 406 535
4 488 489 217 541
4 330 538 333 547
4 490 216 492 541
4 330 288 538 547
4 417 428 268 539
4 450 454 360 536
4 495 414 195 259
4 454 536 449 548
4 480 537 170 555
4 488 217 419 541
4 432 436 298 537
4 459 463 372 538
4 236 377 56 555
4 331 324 333 538
4 328 323 327 536
4 493 488 415 541
4 409 535 405 541
4 237 59 378 554
4 215 483 482 535
4 432 297 435 534
4 362 371 538 544
4 425 535 426 541
4 375 444 378 534
4 366 461 542 548
4 428 539 421 546
4 270 534 378 554
4 299 275 271 536
4 379 270 296 534
4 378 270 379 534
4 331 458 324 538
4 406 535 409 541
4 326 328 300 536
4 499 421 496 546
4 330 538 288 544
4 377 537 269 555
4 300 328 258 536
4 275 300 258 536
4 269 380 295 537
4 377 380 269 537
4 452 125 254 536
4 534 383 545 552
4 301 272 309 544
4 428 499 421 424
4 324 333 538 542
4 277 264 286 537
4 173 169 233 232
4 118 124 251 250
4 242 107 241 114
4 224 187 180 223
4 252 251 120 125
4 233 170 175 234
4 242 109 113 243
4 224 182 186 225
4 113 378 444 534
4 264 276 286 534
4 289 303 499 424
4 286 298 277 537
4 330 333 326 547
4 362 368 372 538
4 432 440 537 540
4 400 260 284 539
4 113 378 534 554
4 297 286 276 534
4 450 364 125 536
4 501 402 404 539
4 432 534 439 540
4 377 170 537 555
4 415 425 426 541
4 366 542 536 548
4 333 538 542 547
4 324 538 458 542
4 428 424 289 546
4 459 372 368 538
4 450 360 364 536
4 346 142 350 543
4 425 417 422 539
4 459 455 463 538
4 289 424 499 546
4 289 539 428 546
4 479 374 377 537
4 288 544 538 547
4 270 237 238 554
4 363 287 365 547
4 380 384 376 537
4 376 383 379 534
4 296 276 264 534
4 361 368 369 542
4 295 264 277 537
4 365 287 299 536
4 366 370 536 542
4 287 536 365 547
4 364 254 125 536
4 285 535 401 549
4 268 428 289 539
4 454 449 212 548
4 260 405 285 535
4 326 300 265 536
4 446 443 445 534
4 362 141 371 544
4 368 538 369 542
4 398 402 491 541
4 534 545 540 552
4 328 326 334 536
4 346 348 140 543
4 326 536 265 547
4 237 270 59 554
4 377 236 170 555
4 463 455 142 543
4 495 414 259 546
4 479 377 170 537
4 324 334 333 542
4 408 409 405 541
4 113 237 378 554
4 432 440 436 537
4 496 495 499 546
4 444 443 446 534
4 450 452 449 536
4 361 459 368 542
4 432 435 439 534
4 495 196 414 546
4 196 259 414 546
4 418 426 422 535
4 405 409 401 535
4 296 270 276 534
4 263 309 371 544
4 196 304 259 546
4 418 422 282 535
4 331 460 458 538
4 421 539 496 546
4 459 538 368 542
4 361 457 459 542
4 325 538 330 544
4 487 398 491 541
4 493 490 488 541
4 283 268 284 539
4 236 480 170 555
4 277 269 295 537
4 478 477 480 537
4 270 276 534 554
4 482 485 484 535
4 366 370 360 536
4 498 421 419 539
4 378 379 375 534
4 263 371 343 544
4 330 265 288 547
4 330 326 265 547
4 141 343 371 544
4 275 265 300 536
4 461 361 366 542
4 277 269 537 555
4 498 494 496 539
4 451 536 323 548
4 196 500 304 546
4 298 537 436 555
4 374 380 377 537
4 402 408 539 541
4 113 446 237 554
4 275 299 287 536
4 406 398 492 541
4 9 141 338 355
4 435 534 297 554
4 127 4 337 353
4 536 542 334 548
4 431 445 551 554
4 456 542 461 548
4 371 141 263 343
4 334 542 324 548
4 325 333 330 538
4 369 362 367 538
4 478 430 550 555
4 349 343 141 544
4 287 275 536 547
4 212 456 461 548
4 369 538 367 547
4 452 451 449 548
4 370 536 542 547
4 494 496 539 546
4 260 283 284 539
4 480 478 537 555
4 446 534 445 554
4 365 364 360 536
4 422 96 268 417
4 272 544 288 547
4 452 449 536 548
4 440 430 436 537
4 484 535 485 549
4 61 244 311 111
4 53 226 396 184
4 65 253 122 322
4 57 235 177 386
4 445 534 443 551
4 435 431 439 534
4 479 381 374 552
4 479 374 537 552
4 399 535 484 549
4 498 496 421 539
4 452 536 451 548
4 265 536 275 547
4 361 370 366 542
4 479 537 477 552
4 405 401 88 285
4 483 485 482 535
4 431 551 534 554
4 460 538 331 543
4 444 534 375 545
4 272 301 288 544
4 408 404 402 539
4 537 550 430 555
4 304 407 500 196
4 443 534 444 545
4 487 491 489 541
4 379 383 375 534
4 282 418 535 553
4 304 414 196 259
4 346 350 348 543
4 264 376 82 296
4 534 551 445 554
4 432 439 440 540
4 298 277 537 555
4 303 195 414 259
4 379 82 376 296
4 282 422 283 535
4 195 499 303 424
4 276 297 534 554
4 436 537 430 555
4 400 539 284 546
4 380 374 384 537
4 400 404 408 539
4 426 416 535 553
4 480 477 479 537
4 334 323 328 536
4 489 218 217 494
4 430 537 440 550
4 409 535 399 549
4 462 324 458 548
4 478 550 537 555
4 426 418 416 553
4 331 538 325 543
4 431 534 435 554
4 349 348 343 544
4 404 539 400 546
4 537 550 477 552
4 417 421 428 539
4 431 439 534 551
4 409 399 401 549
4 323 536 334 548
4 325 331 333 538
4 362 369 368 538
4 460 455 538 543
4 457 361 461 542
4 284 268 289 539
4 416 483 535 553
4 370 542 369 547
4 494 497 496 546
4 374 384 537 552
4 477 537 478 550
4 370 365 360 536
4 426 535 418 553
4 409 401 535 549
4 487 492 398 541
4 369 542 538 547
4 335 325 330 544
4 464 128 28 143
4 285 282 260 535
4 483 485 535 553
4 375 534 383 545
4 324 462 329 548
4 263 301 309 544
4 244 111 318 110
4 235 177 176 392
4 127 543 325 544
4 335 330 288 544
4 398 406 409 541
4 458 538 459 542
4 407 304 500 546
4 128 143 464 543
4 325 127 128 543
4 411 400 284 546
4 383 373 545 552
4 142 32 463 372
4 432 286 298 103
4 105 106 240 313
4 432 297 286 102
4 33 354 152 465
4 407 304 413 196
4 364 365 78 299
4 150 34 467 352
4 369 370 361 542
4 324 542 458 548
4 460 455 459 538
4 284 539 289 546
4 303 412 195 424
4 368 157 459 361
4 394 225 183 182
4 389 232 172 173
4 70 265 288 330
4 500 196 495 546
4 70 326 265 330
4 458 331 324 130
4 458 460 459 538
4 457 459 157 361
4 475 373 469 545
4 127 345 543 544
4 271 364 78 299
4 336 460 331 543
4 226 184 392 183
4 253 122 121 318
4 252 529 121 320
4 234 513 176 394
4 429 470 476 550
4 393 510 224 180
4 107 242 526 319
4 316 242 528 109
4 359 153 7 355
4 416 420 483 553
4 285 88 405 260
4 367 76 363 547
4 434 445 431 554
4 342 353 6 147
4 537 540 440 550
4 320 243 110 109
4 252 121 120 320
4 478 433 430 555
4 32 142 140 372
4 381 479 214 552
4 33 149 354 339
4 345 128 127 543
4 439 540 534 551
4 403 399 484 549
4 325 543 538 544
4 479 477 214 552
4 391 224 512 182
4 470 429 474 551
4 334 324 329 548
4 389 232 511 172
4 394 225 513 183
4 387 178 222 179
4 96 268 283 422
4 34 356 352 155
4 287 265 275 547
4 485 549 535 553
4 436 432 298 103
4 320 243 529 110
4 297 432 435 102
4 315 250 527 117
4 234 176 175 394
4 315 250 117 118
4 475 382 373 545
4 140 346 349 348
4 175 391 233 512
4 336 331 325 543
4 28 336 128 464
4 421 425 419 539
4 418 95 282 422
4 282 535 285 549
4 336 128 464 543
4 384 373 383 552
4 198 483 416 420
4 460 336 464 543
4 319 118 251 526
4 393 233 510 173
4 251 528 120 316
4 476 437 429 550
4 350 468 150 151
4 370 369 363 547
4 283 260 282 535
4 469 471 545 552
4 474 429 438 551
4 429 437 476 205
4 438 474 206 429
4 421 417 425 539
4 357 154 346 155
4 402 398 408 541
4 312 280 294 525
4 278 397 508 292
4 462 458 456 548
4 373 382 475 164
4 466 151 344 152
4 328 326 300 69
4 411 284 290 546
4 487 490 492 541
4 472 471 469 552
4 331 458 460 130
4 457 458 459 542
4 373 469 545 552
4 420 187 483 553
4 466 143 135 136
4 135 468 134 142
4 374 381 384 552
4 484 186 403 549
4 355 263 141 343
4 253 252 529 121
4 235 234 513 176
4 335 274 127 544
4 142 143 350 543
4 471 209 210 443
4 400 405 89 260
4 453 451 323 548
4 448 444 375 545
4 288 274 335 544
4 375 382 448 545
4 478 169 433 555
4 238 257 270 554
4 429 440 439 540
4 456 457 461 542
4 348 543 345 544
4 229 269 256 555
4 365 77 299 287
4 428 417 268 97
4 114 445 434 554
4 9 141 355 263
4 429 540 470 550
4 411 404 400 546
4 534 545 443 551
4 77 365 363 287
4 143 142 455 543
4 495 496 497 546
4 198 483 420 187
4 474 470 206 429
4 470 540 429 551
4 470 429 476 205
4 351 127 274 544
4 290 259 304 546
4 484 399 403 190
4 214 477 550 552
4 200 493 415 423
4 345 147 341 148
4 482 490 216 215
4 351 353 274 127
4 419 199 488 415
4 469 373 475 164
4 431 445 447 551
4 438 447 431 203
4 148 149 340 347
4 250 117 249 527
4 172 232 511 231
4 244 243 110 529
4 226 225 183 513
4 448 161 382 375
4 492 398 406 192
4 265 300 326 69
4 540 545 471 552
4 481 430 437 550
4 447 438 431 551
4 480 169 478 555
4 312 294 60 525
4 508 397 52 292
4 263 9 371 309
4 351 274 263 544
4 287 363 76 547
4 382 383 373 545
4 153 358 154 349
4 481 208 437 430
4 282 535 549 553
4 308 282 285 549
4 491 402 398 191
4 258 300 68 332
4 458 542 456 548
4 488 217 199 419
4 379 81 296 270
4 84 295 269 380
4 329 453 323 548
4 478 430 481 550
4 472 540 471 552
4 446 445 114 554
4 141 9 371 263
4 484 485 186 549
4 90 411 400 284
4 158 461 361 366
4 367 272 76 547
4 214 473 381 552
4 487 491 398 191
4 127 4 353 274
4 255 87 410 549
4 486 406 399 189
4 288 301 274 544
4 81 379 378 270
4 377 84 269 380
4 484 403 186 190
4 136 28 30 465
4 32 31 467 134
4 50 267 220 553
4 258 300 332 328
4 341 144 127 145
4 138 358 137 141
4 401 410 87 549
4 439 429 540 551
4 73 263 351 274
4 220 267 308 553
4 284 289 290 546
4 127 325 335 544
4 263 274 301 544
4 440 540 429 550
4 377 374 479 165
4 347 143 128 543
4 471 443 210 545
4 209 443 471 551
4 283 282 95 422
4 381 479 374 166
4 475 469 471 545
4 343 351 263 544
4 472 476 470 550
4 222 52 178 514
4 240 60 105 530
4 61 244 111 531
4 53 226 184 515
4 414 413 304 196
4 381 473 163 552
4 437 440 429 550
4 483 187 485 553
4 25 114 518 241
4 41 187 502 223
4 113 24 519 243
4 186 40 503 225
4 169 39 516 232
4 124 26 532 250
4 38 170 517 234
4 27 125 533 252
4 398 492 487 192
4 223 180 224 510
4 242 107 526 241
4 109 242 528 243
4 182 224 512 225
4 212 449 211 548
4 367 371 75 309
4 412 195 414 303
4 282 549 308 553
4 430 478 207 433
4 197 483 423 416
4 439 438 429 551
4 212 211 456 548
4 434 431 445 204
4 382 375 383 545
4 448 443 444 545
4 470 471 472 540
4 340 128 146 145
4 139 140 357 138
4 369 367 363 547
4 351 348 345 544
4 220 308 549 553
4 471 470 474 551
4 215 197 483 423
4 220 308 255 549
4 463 156 459 372
4 500 193 407 546
4 300 68 332 328
4 42 406 492 486
4 289 259 290 546
4 268 289 428 97
4 284 90 411 290
4 220 255 51 549
4 34 356 467 352
4 214 479 381 166
4 413 304 93 414
4 284 400 89 260
4 324 329 462 129
4 194 402 404 501
4 202 419 498 421
4 257 442 101 554
4 414 412 303 92
4 461 457 158 361
4 476 49 437 481
4 495 414 196 195
4 323 334 329 548
4 441 256 104 555
4 356 31 32 139
4 30 28 146 339
4 433 478 207 169
4 447 445 443 551
4 344 350 143 543
4 48 447 474 438
4 382 475 448 545
4 364 78 64 271
4 475 36 382 448
4 448 444 161 375
4 479 170 377 165
4 57 235 515 177
4 65 253 531 122
4 445 431 447 203
4 435 101 442 554
4 445 114 434 204
4 526 118 251 250
4 233 232 510 173
4 512 233 175 234
4 528 251 120 252
4 451 323 327 132
4 460 464 455 543
4 270 257 276 554
4 407 290 304 546
4 427 94 267 553
4 277 256 269 555
4 453 329 323 133
4 441 104 436 555
4 64 271 273 247
4 487 489 490 541
4 4 127 335 274
4 485 219 549 553
4 381 163 373 552
4 255 285 87 549
4 451 327 124 132
4 401 87 285 549
4 35 454 461 366
4 490 489 488 541
4 462 453 329 548
4 201 421 496 499
4 212 35 454 461
4 520 238 58 261
4 481 478 208 430
4 493 46 215 423
4 481 437 476 550
4 211 453 462 548
4 37 214 473 381
4 73 263 343 351
4 366 160 454 360
4 156 459 372 368
4 29 329 462 453
4 499 201 421 424
4 375 444 162 378
4 474 438 447 551
4 398 409 408 541
4 261 238 58 257
4 127 351 345 544
4 471 540 470 551
4 431 438 439 551
4 378 59 81 270
4 269 56 84 377
4 472 470 540 550
4 229 504 55 262
4 460 464 336 131
4 174 175 391 233
4 316 242 109 108
4 107 242 319 108
4 180 181 224 393
4 437 430 440 550
4 264 376 83 82
4 256 229 55 262
4 521 64 273 247
4 287 76 272 547
4 378 444 162 113
4 453 449 451 548
4 443 545 471 551
4 159 450 364 125
4 344 354 347 143
4 202 498 496 421
4 497 194 404 501
4 427 418 94 553
4 72 353 4 274
4 78 10 64 271
4 47 199 217 419
4 451 453 323 133
4 214 550 472 552
4 214 477 213 550
4 71 288 274 335
4 399 403 401 549
4 240 530 105 313
4 531 244 111 318
4 347 128 345 543
4 211 29 462 453
4 351 353 72 274
4 343 348 351 544
4 416 418 420 553
4 257 101 297 554
4 387 178 514 222
4 515 226 184 392
4 159 450 360 364
4 298 104 256 555
4 46 197 215 423
4 173 174 393 233
4 120 251 316 119
4 118 119 319 251
4 391 224 182 181
4 272 288 265 547
4 235 515 177 392
4 160 450 454 360
4 458 324 462 129
4 381 37 214 166
4 434 431 435 554
4 297 101 435 554
4 414 304 93 259
4 128 336 325 543
4 272 367 75 309
4 253 531 122 318
4 484 486 399 189
4 433 436 430 555
4 58 257 238 554
4 289 303 424 98
4 436 104 298 555
4 55 229 256 555
4 74 263 9 355
4 235 177 386 176
4 244 111 110 311
4 226 184 183 396
4 253 122 322 121
4 344 143 347 543
4 33 354 465 339
4 336 331 460 131
4 344 348 350 543
4 347 345 348 543
4 92 303 414 259
4 407 411 290 546
4 91 407 290 304
4 498 47 217 419
4 282 267 94 553
4 288 71 330 335
4 58 442 257 554
4 410 403 51 549
4 404 407 193 546
4 427 267 50 553
4 210 448 475 545
4 55 256 441 555
4 456 458 457 542
4 214 213 472 550
4 58 434 442 554
4 220 51 255 302
4 493 488 200 415
4 55 441 433 555
4 278 397 221 508
4 14 56 84 269
4 410 51 255 549
4 424 428 289 98
4 503 403 186 549
4 502 187 420 553
4 427 50 420 553
4 276 257 297 554
4 59 13 81 270
4 126 10 64 78
4 298 256 277 555
4 477 478 481 550
4 417 96 268 97
4 282 94 418 553
4 91 407 411 290
4 509 291 53 279
4 78 64 126 364
4 81 112 59 378
4 167 84 56 377
4 155 140 357 139
4 63 520 522 261
4 506 504 50 262
4 87 88 401 285
4 91 407 304 413
4 523 273 59 521
4 114 434 518 554
4 516 433 169 555
4 481 476 213 550
4 355 74 263 343
4 485 187 219 553
4 342 4 353 337
4 271 273 247 306
4 286 432 102 103
4 338 359 9 355
4 237 446 114 554
4 447 209 474 551
4 143 455 464 543
4 307 504 229 262
4 273 521 247 306
4 424 303 412 98
4 186 485 219 549
4 56 266 507 505
4 236 169 480 555
4 56 269 307 229
4 352 142 350 346
4 210 443 448 545
4 60 239 310 312
4 52 221 395 397
4 256 23 55 441
4 257 58 0 442
4 302 308 220 267
4 471 545 540 551
4 280 312 239 525
4 272 265 287 547
4 56 14 84 167
4 305 238 520 261
4 305 270 59 238
4 279 509 230 507
4 472 469 473 552
4 304 18 91 413
4 307 229 256 262
4 381 373 384 552
4 112 59 13 81
4 258 271 247 306
4 410 401 403 549
4 216 42 492 486
4 481 476 49 213
4 220 50 302 267
4 214 472 473 552
4 472 550 540 552
4 448 475 36 210
4 447 209 48 474
4 540 550 537 552
4 522 3 63 261
4 305 238 261 257
4 282 94 95 418
4 442 0 257 101
4 441 256 23 104
4 209 447 443 551
4 308 220 255 302
4 303 19 412 98
4 427 420 418 553
4 279 227 509 507
4 90 400 89 284
4 491 43 402 191
4 429 470 206 205
4 281 245 524 523
4 493 200 46 423
4 258 247 63 306
4 308 285 255 549
4 246 280 522 525
4 269 307 229 256
4 280 294 66 312
4 504 505 307 229
4 506 278 221 508
4 457 157 158 361
4 48 447 438 203
4 273 59 13 523
4 397 278 99 292
4 269 14 56 307
4 462 456 211 548
4 36 161 382 448
4 373 469 163 164
4 266 255 51 302
4 58 518 434 554
4 59 13 270 305
4 520 247 521 306
4 506 50 20 262
4 238 305 270 257
4 500 495 497 546
4 435 442 434 554
4 42 406 486 189
4 258 3 63 332
4 516 55 433 555
4 71 274 4 335
4 406 42 492 192
4 458 324 129 130
4 436 433 441 555
4 476 437 49 205
4 348 344 347 543
4 71 70 288 330
4 211 449 453 548
4 473 163 37 381
4 73 351 72 274
4 437 49 208 481
4 474 206 48 438
4 521 305 238 520
4 85 291 509 279
4 331 460 131 130
4 475 382 36 164
4 302 50 20 267
4 419 498 47 202
4 43 402 194 501
4 239 522 280 525
4 281 524 248 523
4 63 3 258 306
4 503 51 403 549
4 14 56 266 507
4 540 545 534 551
4 278 506 228 508
4 367 75 76 272
4 302 20 50 262
4 219 220 549 553
4 97 289 428 98
4 210 475 471 545
4 502 420 50 553
4 407 91 18 413
4 305 59 13 273
4 76 77 363 287
4 220 505 302 504
4 237 58 238 554
4 3 63 261 306
4 459 156 157 368
4 55 236 229 555
4 51 219 220 549
4 222 52 395 178
4 240 60 310 105
4 524 281 293 80
4 67 294 280 525
4 138 358 141 349
4 293 281 524 79
4 341 127 345 145
4 278 508 100 292
4 424 412 19 98
4 219 50 220 553
4 421 496 202 201
4 404 193 194 497
4 60 66 294 312
4 99 52 397 292
4 266 56 14 307
4 461 158 35 366
4 453 29 329 133
4 454 35 160 366
4 340 149 146 347
4 75 371 9 309
4 442 434 58 115
4 504 302 50 262
4 358 138 154 349
4 10 64 271 273
4 420 50 427 188
4 148 341 345 145
4 140 357 346 155
4 521 305 520 306
4 471 474 209 551
4 221 50 502 188
4 273 305 59 521
4 261 58 0 257
4 463 32 156 372
4 185 86 17 227
4 19 45 412 424
4 407 18 44 413
4 476 472 213 550
4 407 404 411 546
4 256 55 23 262
4 464 28 336 131
4 253 248 27 322
4 235 230 38 386
4 245 244 24 311
4 227 226 40 396
4 228 231 39 385
4 246 249 26 321
4 143 135 142 151
4 53 57 291 509
4 267 282 308 553
4 6 4 353 342
4 505 307 302 504
4 63 520 261 306
4 312 0 280 239
4 524 65 61 293
4 294 62 60 525
4 508 52 54 292
4 505 56 266 307
4 90 91 411 290
4 70 265 326 69
4 7 9 359 355
4 3 258 68 332
4 414 93 92 259
4 261 522 3 280
4 95 96 283 422
4 142 350 143 151
4 55 228 262 506
4 239 58 261 522
4 85 291 57 509
4 128 146 28 354
4 477 481 213 550
4 524 65 293 79
4 293 61 524 80
4 294 67 62 525
4 100 508 54 292
4 239 58 518 115
4 397 20 278 221
4 273 13 281 523
4 442 58 0 115
4 248 64 273 523
4 191 398 487 192
4 467 356 32 352
4 20 506 262 278
4 78 365 77 299
4 266 279 14 507
4 462 329 29 129
4 101 297 435 102
4 521 273 305 306
4 352 140 155 139
4 103 298 436 104
4 433 55 168 441
4 51 227 266 507
4 444 162 161 375
4 168 23 228 100
4 307 302 504 262
4 431 445 204 203
4 146 128 340 347
4 332 63 327 123
4 140 352 32 139
4 81 82 379 296
4 51 17 410 255
4 84 83 295 380
4 307 266 505 302
4 88 89 405 260
4 261 520 305 306
4 63 246 3 522
4 230 56 14 507
4 507 266 51 505
4 478 207 208 430
4 522 520 58 261
4 55 504 506 262
4 50 20 267 427
4 279 230 14 507
4 434 518 58 115
4 59 245 13 523
4 55 228 516 168
4 63 246 532 123
4 51 227 503 185
4 523 64 273 521
4 237 518 58 554
4 302 50 220 504
4 337 353 342 147
4 85 509 230 279
4 236 55 516 555
4 410 185 51 403
4 300 68 328 69
4 153 359 338 355
4 87 410 17 255
4 521 305 59 238
4 44 407 500 193
4 499 45 201 424
4 307 505 56 229
4 67 3 123 246
4 168 55 23 441
4 221 50 20 506
4 520 63 247 306
4 219 51 503 549
4 323 451 133 132
4 280 522 3 246
4 221 50 188 20
4 502 50 219 553
4 185 51 17 410
4 502 50 420 188
4 524 245 281 80
4 67 280 246 525
4 465 354 28 339
4 146 128 347 354
4 221 502 41 188
4 350 344 143 151
4 143 354 136 152
4 13 245 281 523
4 73 263 74 343
4 142 468 150 350
4 450 160 159 360
4 149 146 347 354
4 20 506 278 221
4 86 53 291 279
4 281 248 524 79
4 344 143 151 466
4 9 7 74 355
4 508 228 278 100
4 332 3 63 123
4 255 51 17 266
4 427 50 20 188
4 141 355 343 349
4 374 479 165 166
4 239 518 25 115
4 516 433 55 168
4 63 532 327 123
4 350 142 468 151
4 346 154 357 140
4 399 484 189 190
4 353 4 6 72
4 143 354 28 136
4 150 134 142 352
4 346 352 140 155
4 199 200 488 415
4 353 351 345 127
4 63 246 123 3
4 150 134 468 142
4 136 466 143 152
4 344 143 466 152
4 245 524 61 80
4 54 228 508 100
4 57 85 509 230
4 246 62 67 525
4 65 524 248 79
4 434 25 518 115
4 151 143 135 466
4 142 135 468 151
4 128 345 127 145
4 303 412 19 92
4 141 140 138 349
4 304 93 18 413
4 532 246 26 123
4 516 228 39 168
4 503 227 40 185
4 142 134 32 352
4 503 51 185 403
4 502 420 41 188
4 237 114 518 554
4 236 516 169 555
4 483 197 198 416
4 219 503 186 549
4 502 219 187 553
4 126 248 10 79
4 143 344 354 152
4 94 267 20 427
4 138 140 154 349
4 128 148 345 145
4 150 142 350 352
4 152 354 28 465
4 39 433 516 168
4 327 532 26 123
4 230 56 517 167
4 59 245 519 112
4 167 14 85 230
4 354 149 28 339
4 248 64 533 126
4 244 243 24 110
4 226 225 40 183
4 250 117 26 249
4 232 172 39 231
4 253 252 121 27
4 235 234 176 38
4 13 245 112 80
4 147 127 345 341
4 346 154 140 349
4 150 467 32 352
4 150 32 467 134
4 28 136 152 465
4 358 153 141 349
4 28 149 146 339
4 352 356 32 155
4 155 356 32 139
4 340 128 148 347
4 147 342 337 144
4 137 153 359 338
4 503 185 40 403
4 227 86 17 279
4 128 345 148 347
4 356 32 31 467
4 465 28 30 339
4 30 33 465 339
4 237 113 114 446
4 452 254 125 124
4 60 239 312 525
4 52 221 397 508
4 338 141 153 355
4 353 337 127 147
4 517 167 56 377
4 378 112 59 519
4 364 64 126 533
4 356 31 34 467
4 230 56 167 14
4 342 5 4 337
4 359 9 8 338
4 59 245 112 13
4 230 517 38 167
4 519 245 24 112
4 186 219 485 187
4 480 236 170 169
4 248 533 27 126
4 230 14 85 279
4 153 137 141 338
4 147 337 127 144
4 115 0 312 239
4 228 23 278 100
4 10 248 281 79
4 155 32 352 139
4 3 67 280 246
4 146 149 28 354
4 281 245 13 80
4 134 150 32 352
4 517 38 167 377
4 24 112 378 519
4 364 126 27 533
4 136 354 28 152
4 222 221 41 395
4 240 239 25 310
4 345 353 127 147
4 355 141 153 349
4 188 20 397 221
4 394 225 234 513
4 320 243 252 529
4 7 9 8 359
4 4 6 5 342
4 148 128 340 145
4 154 357 140 138
4 221 188 41 395
4 239 115 25 310
4 397 188 221 395
4 358 153 137 141
4 127 147 144 341
4 291 16 15 390
4 11 12 317 293
4 515 235 226 392
4 244 318 531 253
4 530 240 249 313
4 387 514 231 222
4 320 529 121 110
4 319 107 118 526
4 510 393 173 180
4 175 182 391 512
4 120 316 528 109
4 513 183 176 394
4 294 2 1 314
4 388 21 22 292
4 312 115 239 310
4 397 278 20 99
4 107 526 241 250
4 232 223 510 180
4 182 512 234 225
4 528 243 252 120
4 319 251 242 526
4 224 233 510 393
4 391 224 233 512
4 316 242 251 528
4 116 105 530 313
4 178 171 387 514
4 318 122 111 531
4 515 184 177 392
4 225 394 234 182
4 280 66 0 312
4 320 243 120 252
4 513 176 226 235
4 244 529 110 253
4 240 249 117 527
4 172 222 231 511
4 176 226 235 392
4 244 110 318 253
4 117 240 313 249
4 222 231 387 172
4 515 53 57 184
4 530 62 60 105
4 111 65 61 531
4 178 52 54 514
4 176 183 513 226
4 529 121 110 253
4 123 26 321 246
4 228 385 39 168
4 185 227 40 396
4 526 107 118 250
4 173 232 510 180
4 175 182 512 234
4 528 243 120 109
4 226 176 183 392
4 110 121 318 253
4 387 222 172 179
4 240 117 313 106
4 250 315 107 118
4 232 389 180 173
4 175 182 234 394
4 243 320 120 109
4 178 171 54 388
4 178 54 171 514
4 105 530 62 116
4 184 57 515 177
4 111 122 65 531
4 112 245 24 311
4 230 167 38 386
4 27 248 126 322
4 224 181 174 393
4 242 119 319 108
4 224 391 174 181
4 242 316 119 108
4 233 224 174 393
4 119 242 319 251
4 224 391 233 174
4 242 316 251 119
4 230 235 57 386
4 248 253 65 322
4 79 122 322 65
4 116 67 321 62
4 85 177 386 57
4 184 86 396 53
4 395 179 222 178
4 227 226 503 40
4 236 233 517 170
4 224 219 503 186
4 53 226 227 396
4 61 244 245 311
4 178 99 52 395
4 516 233 169 232
4 503 224 186 225
4 233 234 517 170
4 170 174 169 233
4 186 182 40 225
4 109 24 113 243
4 120 125 27 252
4 246 62 249 321
4 125 119 124 251
4 111 80 311 61
4 245 244 519 24
4 242 237 519 113
4 254 251 533 125
4 108 113 114 242
4 237 242 518 114
4 240 239 518 25
4 310 106 240 105
4 312 60 66 310
4 246 249 532 26
4 242 241 518 114
4 532 251 124 250
4 251 254 532 124
4 26 124 118 250
4 114 25 107 241
4 106 25 310 240
4 39 169 173 232
4 175 170 38 234
4 179 41 395 222
4 233 236 516 169
4 187 41 180 223
4 186 187 181 224
4 219 224 502 187
4 228 231 516 39
4 228 54 231 385
4 395 52 397 99
4 519 242 113 243
4 253 248 533 27
4 171 100 385 54
4 251 252 533 125
4 235 230 517 38
4 224 223 502 187
4 105 66 60 310
4 222 221 502 41
4 541 494 501 218
4 541 501 494 539
4 327 536 63 258
4 327 63 536 254
4 247 63 536 258
4 247 536 63 254
4 218 402 43 501
4 218 43 402 491
4 536 364 64 271
4 64 364 536 254
4 64 247 536 271
4 536 247 64 254
4 541 494 217 539
4 541 217 494 489
4 547 334 333 326
4 547 333 334 542
4 365 547 370 363
4 370 547 365 536
4 327 532 254 124
4 327 254 532 63
4 56 555 229 236
4 229 555 56 269
4 296 376 534 264
4 296 534 376 379
4 380 264 83 295
4 380 83 264 376
4 141 140 544 362
4 544 140 141 349
4 547 544 367 272
4 547 367 544 538
4 321 67 246 62
4 321 246 67 123
4 385 100 228 54
4 385 228 100 168
4 396 86 227 53
4 396 227 86 185
4 377 517 236 56
4 377 236 517 170
4 519 378 237 59
4 237 378 519 113
4 364 533 254 64
4 364 254 533 125
4 364 299 536 365
4 536 299 364 271
4 404 546 501 539
4 404 501 546 497
4 494 501 546 539
4 494 546 501 497
4 367 309 544 371
4 544 309 367 272
4 54 171 231 385
4 172 171 231 387
4 172 231 171 385
4 62 116 249 321
4 117 116 249 313
4 117 249 116 321
4 311 80 245 61
4 311 245 80 112
4 386 85 230 167
4 386 230 85 57
4 322 79 248 126
4 322 248 79 65
4 407 196 44 500
4 44 196 407 413
4 195 424 45 499
4 45 424 195 412
4 552 163 469 473
4 552 469 163 373
4 193 546 497 404
4 497 546 193 500
4 302 51 505 220
4 302 505 51 266
4 352 140 142 346
4 142 140 352 32
4 58 239 0 115
4 58 0 239 261
4 128 354 143 347
4 143 354 128 28
4 114 25 434 204
4 114 434 25 518
4 187 41 420 198
4 187 420 41 502
4 24 113 378 162
4 24 378 113 519
4 40 186 403 190
4 40 403 186 503
4 26 124 327 132
4 26 327 124 532
4 39 169 433 207
4 39 433 169 516
4 170 38 377 165
4 170 377 38 517
4 125 27 364 159
4 125 364 27 533
4 227 266 279 17
4 279 266 227 507
4 228 55 23 168
4 228 23 55 262
4 228 262 278 23
4 228 278 262 506
4 239 261 280 522
4 239 280 261 0
4 273 248 281 10
4 281 248 273 523
4 279 53 227 86
4 279 227 53 509
4 227 51 17 185
4 227 17 51 266
4 64 248 10 126
4 64 10 248 273
4 184 86 390 16
4 291 390 86 16
4 105 314 66 1
4 294 66 314 1
4 171 514 231 387
4 171 231 514 54
4 171 100 388 22
4 171 388 100 54
4 292 388 100 22
4 292 100 388 54
4 111 80 317 12
4 293 317 80 12
4 116 67 314 2
4 294 314 67 2
4 291 85 390 15
4 177 390 85 15
4 222 389 172 179
4 222 172 389 511
4 179 222 180 41
4 179 180 222 389
4 223 180 222 41
4 116 530 249 313
4 116 249 530 62
4 178 388 99 21
4 292 99 388 21
4 293 79 317 11
4 122 317 79 11
4 240 315 117 106
4 240 117 315 527
4 106 240 107 25
4 106 107 240 315
4 241 107 240 25
4 184 86 291 390
4 291 86 184 53
4 184 57 291 53
4 294 62 105 60
4 294 66 105 314
4 105 66 294 60
4 111 80 293 317
4 293 80 111 61
4 111 65 293 61
4 116 67 294 314
4 294 67 116 62
4 294 105 116 314
4 116 105 294 62
4 177 184 291 390
4 291 184 177 57
4 291 85 177 390
4 177 85 291 57
4 232 180 511 223
4 232 511 180 389
4 222 511 180 223
4 222 180 511 389
4 178 54 292 388
4 292 54 178 52
4 292 99 178 388
4 178 99 292 52
4 122 111 293 317
4 293 111 122 65
4 293 79 122 317
4 122 79 293 65
4 250 107 527 241
4 250 527 107 315
4 240 527 107 241
4 240 107 527 315

CELL_TYPES 3022
1
1
1
1
1
1
1
1
1
1
1
1
1
1
1
1
1
1
1
1
1
1
1
1
1
1
1
1
1
1
1
1
1
1
1
1
1
1
1
1
1
1
1
1
1
1
1
1
1
1
1
1
1
1
1
1
1
1
1
1
1
1
1
1
1
1
3
3
3
3
3
3
3
3
3
3
3
3
3
3
3
3
3
3
3
3
3
3
3
3
3
3
3
3
3
3
3
3
3
3
3
3
3
3
3
3
3
3
3
3
3
3
3
3
3
3
3
3
3
3
3
3
3
3
3
3
3
3
3
3
3
3
3
3
3
3
3
3
3
3
3
3
3
3
3
3
3
3
3
3
3
3
3
3
3
3
3
3
3
3
3
3
3
3
3
3
3
3
3
3
3
3
3
3
3
3
3
3
3
3
3
3
3
3
3
3
3
3
3
3
3
3
3
3
3
3
3
3
3
3
3
3
3
3
3
3
3
3
3
3
3
3
3
3
3
3
3
3
3
3
3
3
3
3
3
3
3
3
3
3
3
3
3
3
3
3
3
3
3
3
3
3
3
3
3
3
3
3
3
3
3
3
3
3
3
3
3
3
3
3
3
3
3
3
3
3
3
3
3
3
3
3
3
3
3
3
3
3
3
3
3
3
3
3
3
3
3
3
3
3
3
3
3
3
3
3
3
3
3
3
3
3
3
3
3
3
3
3
3
3
3
3
3
3
3
3
3
3
3
3
3
3
3
3
3
3
3
3
3
3
3
3
3
3
3
3
3
3
3
3
3
3
3
3
3
3
3
3
3
3
3
3
3
3
5
5
5
5
5
5
5
5
5
5
5
5
5
5
5
5
5
5
5
5
5
5
5
5
5
5
5
5
5
5
5
5
5
5
5
5
5
5
5
5
5
5
5
5
5
5
5
5
5
5
5
5
5
5
5
5
5
5
5
5
5
5
5
5
5
5
5
5
5
5
5
5
5
5
5
5
5
5
5
5
5
5
5
5
5
5
5
5
5
5
5
5
5
5
5
5
5
5
5
5
5
5
5
5
5
5
5
5
5
5
5
5
5
5
5
5
5
5
5
5
5
5
5
5
5
5
5
5
5
5
5
5
5
5
5
5
5
5
5
5
5
5
5
5
5
5
5
5
5
5
5
5
5
5
5
5
5
5
5
5
5
5
5
5
5
5
5
5
5
5
5
5
5
5
5
5
5
5
5
5
5
5
5
5
5
5
5
5
5
5
5
5
5
5
5
5
5
5
5
5
5
5
5
5
5
5
5
5
5
5
5
5
5
5
5
5
5
5
5
5
5
5
5
5
5
5
5
5
5
5
5
5
5
5
5
5
5
5
5
5
5
5
5
5
5
5
5
5
5
5
5
5
5
5
5
5
5
5
5
5
5
5
5
5
5
5
5
5
5
5
5
5
5
5
5
5
5
5
5
5
5
5
5
5
5
5
5
5
5
5
5
5
5
5
5
5
5
5
5
5
5
5
5
5
5
5
5
5
5
5
5
5
5
5
5
5
5
5
5
5
5
5
5
5
5
5
5
5
5
5
5
5
5
5
5
5
5
5
5
5
5
5
5
5
5
5
5
5
5
5
5
5
5
5
5
5
5
5
5
5
5
5
5
5
5
5
5
5
5
5
5
5
5
5
5
5
5
5
5
5
5
5
5
5
5
5
5
5
5
5
5
5
5
5
5
5
5
5
5
5
5
5
5
5
5
5
5
5
5
5
5
5
5
5
5
5
5
5
5
5
5
5
5
5
5
5
5
5
5
5
5
5
5
5
5
5
5
5
5
5
5
5
5
5
5
5
5
5
5
5
5
5
5
5
5
5
5
5
5
5
5
5
5
5
5
5
5
5
5
5
5
5
5
5
5
5
5
5
5
5
5
5
5
5
5
5
5
5
5
5
5
5
5
5
5
5
5
5
5
5
5
5
5
5
5
5
5
5
5
5
5
5
5
5
5
5
5
5
5
5
5
5
5
5
5
5
5
5
5
5
5
5
5
5
5
5
5
5
5
5
5
5
5
5
5
5
5
5
5
5
5
5
5
5
5
5
5
5
5
5
5
5
5
5
5
5
5
5
5
5
5
5
5
5
5
5
5
5
5
5
5
5
5
5
5
5
5
5
5
5
5
5
5
5
5
5
5
5
5
5
5
5
5
5
5
5
5
5
5
5
5
5
5
5
5
5
5
5
5
5
5
5
5
5
5
5
5
5
5
5
5
5
5
5
5
5
5
5
5
5
5
5
5
5
5
5
5
5
5
5
5
5
5
5
5
5
5
5
5
5
5
5
5
5
5
5
5
5
5
5
5
5
5
5
5
5
5
5
5
5
5
5
5
5
5
5
5
5
5
5
5
5
5
5
5
5
5
5
5
5
5
5
5
5
5
5
5
5
5
5
5
5
5
5
5
5
5
5
5
5
5
5
5
5
5
5
5
5
5
5
5
5
5
5
5
5
5
5
5
5
5
5
5
5
5
5
5
5
5
5
5
5
5
5
5
5
5
5
5
5
5
5
5
5
5
5
5
5
5
5
5
5
5
5
5
5
5
5
5
5
5
5
5
5
5
5
5
5
5
5
5
5
5
5
5
5
5
5
5
5
5
5
5
5
5
5
5
5
5
5
5
5
5
5
5
5
5
5
5
5
5
5
5
5
5
5
5
5
5
5
5
5
5
5
5
5
5
5
5
5
5
5
5
5
5
5
5
5
5
5
5
5
5
5
5
5
5
5
5
5
5
5
5
5
5
5
5
5
5
5
5
5
5
5
5
5
5
5
5
5
5
5
5
5
5
5
5
5
5
5
5
5
5
5
5
5
5
5
5
5
5
5
5
5
5
5
5
5
5
5
5
5
5
5
5
5
5
5
5
5
5
5
5
5
5
5
5
5
5
5
5
5
5
5
5
5
5
5
5
5
5
5
5
5
5
5
5
5
5
5
5
5
5
5
5
5
5
5
5
5
5
5
5
5
5
5
5
5
5
5
5
5
5
5
5
5
5
5
5
5
5
5
5
5
5
5
5
5
5
5
5
5
5
5
5
5
5
5
5
5
5
5
5
5
5
5
5
5
5
5
5
5
5
5
5
5
5
5
5
5
5
5
5
5
5
5
5
5
5
5
5
5
5
5
5
5
5
5
5
5
5
5
5
5
5
5
5
5
5
5
5
5
5
5
5
5
10
10
10
10
10
10
10
10
10
10
10
10
10
10
10
10
10
10
10
10
10
10
10
10
10
10
10
10
10
10
10
10
10
10
10
10
10
10
10
10
10
10
10
10
10
10
10
10
10
10
10
10
10
10
10
10
10
10
10
10
10
10
10
10
10
10
10
10
10
10
10
10
10
10
10
10
10
10
10
10
10
10
10
10
10
10
10
10
10
10
10
10
10
10
10
10
10
10
10
10
10
10
10
10
10
10
10
10
10
10
10
10
10
10
10
10
10
10
10
10
10
10
10
10
10
10
10
10
10
10
10
10
10
10
10
10
10
10
10
10
10
10
10
10
10
10
10
10
10
10
10
10
10
10
10
10
10
10
10
10
10
10
10
10
10
10
10
10
10
10
10
10
10
10
10
10
10
10
10
10
10
10
10
10
10
10
10
10
10
10
10
10
10
10
10
10
10
10
10
10
10
10
10
10
10
10
10
10
10
10
10
10
10
10
10
10
10
10
10
10
10
10
10
10
10
10
10
10
10
10
10
10
10
10
10
10
10
10
10
10
10
10
10
10
10
10
10
10
10
10
10
10
10
10
10
10
10
10
10
10
10
10
10
10
10
10
10
10
10
10
10
10
10
10
10
10
10
10
10
10
10
10
10
10
10
10
10
10
10
10
10
10
10
10
10
10
10
10
10
10
10
10
10
10
10
10
10
10
10
10
10
10
10
10
10
10
10
10
10
10
10
10
10
10
10
10
10
10
10
10
10
10
10
10
10
10
10
10
10
10
10
10
10
10
10
10
10
10
10
10
10
10
10
10
10
10
10
10
10
10
10
10
10
10
10
10
10
10
10
10
10
10
10
10
10
10
10
10
10
10
10
10
10
10
10
10
10
10
10
10
10
10
10
10
10
10
10
10
10
10
10
10
10
10
10
10
10
10
10
10
10
10
10
10
10
10
10
10
10
10
10
10
10
10
10
10
10
10
10
10
10
10
10
10
10
10
10
10
10
10
10
10
10
10
10
10
10
10
10
10
10
10
10
10
10
10
10
10
10
10
10
10
10
10
10
10
10
10
10
10
10
10
10
10
10
10
10
10
10
10
10
10
10
10
10
10
10
10
10
10
10
10
10
10
10
10
10
10
10
10
10
10
10
10
10
10
10
10
10
10
10
10
10
10
10
10
10
10
10
10
10
10
10
10
10
10
10
10
10
10
10
10
10
10
10
10
10
10
10
10
10
10
10
10
10
10
10
10
10
10
10
10
10
10
10
10
10
10
10
10
10
10
10
10
10
10
10
10
10
10
10
10
10
10
10
10
10
10
10
10
10
10
10
10
10
10
10
10
10
10
10
10
10
10
10
10
10
10
10
10
10
10
10
10
10
10
10
10
10
10
10
10
10
10
10
10
10
10
10
10
10
10
10
10
10
10
10
10
10
10
10
10
10
10
10
10
10
10
10
10
10
10
10
10
10
10
10
10
10
10
10
10
10
10
10
10
10
10
10
10
10
10
10
10
10
10
10
10
10
10
10
10
10
10
10
10
10
10
10
10
10
10
10
10
10
10
10
10
10
10
10
10
10
10
10
10
10
10
10
10
10
10
10
10
10
10
10
10
10
10
10
10
10
10
10
10
10
10
10
10
10
10
10
10
10
10
10
10
10
10
10
10
10
10
10
10
10
10
10
10
10
10
10
10
10
10
10
10
10
10
10
10
10
10
10
10
10
10
10
10
10
10
10
10
10
10
10
10
10
10
10
10
10
10
10
10
10
10
10
10
10
10
10
10
10
10
10
10
10
10
10
10
10
10
10
10
10
10
10
10
10
10
10
10
10
10
10
10
10
10
10
10
10
10
10
10
10
10
10
10
10
10
10
10
10
10
10
10
10
10
10
10
10
10
10
10
10
10
10
10
10
10
10
10
10
10
10
10
10
10
10
10
10
10
10
10
10
10
10
10
10
10
10
10
10
10
10
10
10
10
10
10
10
10
10
10
10
10
10
10
10
10
10
10
10
10
10
10
10
10
10
10
10
10
10
10
10
10
10
10
10
10
10
10
10
10
10
10
10
10
10
10
10
10
10
10
10
10
10
10
10
10
10
10
10
10
10
10
10
10
10
10
10
10
10
10
10
10
10
10
10
10
10
10
10
10
10
10
10
10
10
10
10
10
10
10
10
10
10
10
10
10
10
10
10
10
10
10
10
10
10
10
10
10
10
10
10
10
10
10
10
10
10
10
10
10
10
10
10
10
10
10
10
10
10
10
10
10
10
10
10
10
10
10
10
10
10
10
10
10
10
10
10
10
10
10
10
10
10
10
10
10
10
10
10
10
10
10
10
10
10
10
10
10
10
10
10
10
10
10
10
10
10
10
10
10
10
10
10
10
10
10
10
10
10
10
10
10
10
10
10
10
10
10
10
10
10
10
10
10
10
10
10
10
10
10
10
10
10
10
10
10
10
10
10
10
10
10
10
10
10
10
10
10
10
10
10
10
10
10
10
10
10
10
10
10
10
10
10
10
10
10
10
10
10
10
10
10
10
10
10
10
10
10
10
10
10
10
10
10
10
10
10
10
10
10
10
10
10
10
10
10
10
10
10
10
10
10
10
10
10
10
10
10
10
10
10
10
10
10
10
10
10
10
10
10
10
10
10
10
10
10
10
10
10
10
10
10
10
10
10
10
10
10
10
10
10
10
10
10
10
10
10
10
10
10
10
10
10
10
10
10
10
10
10
10
10
10
10
10
10
10
10
10
10
10
10
10
10
10
10
10
10
10
10
10
10
10
10
10
10
10
10
10
10
10
10
10
10
10
10
10
10
10
10
10
10
10
10
10
10
10
10
10
10
10
10
10
10
10
10
10
10
10
10
10
10
10
10
10
10
10
10
10
10
10
10
10
10
10
10
10
10
10
10
10
10
10
10
10
10
10
10
10
10
10
10
10
10
10
10
10
10
10
10
10
10
10
10
10
10
10
10
10
10
10
10
10
10
10
10
10
10
10
10
10
10
10
10
10
10
10
10
10
10
10
10
10
10
10
10
10
10
10
10
10
10
10
10
10
10
10
10
10
10
10
10
10
10
10
10
10
10
10
10
10
10
10
10
10
10
10
10
10
10
10
10
10
10
10
10
10
10
10
10
10
10
10
10
10
10
10
10
10
10
10
10
10
10
10
10
10
10
10
10
10
10
10
10
10
10
10
10
10
10
10
10
10
10
10
10
10
10
10
10
10
10
10
10
10
10
10
10
10
10
10
10
10
10
10
10
10
10
10
10
10
10
10
10
10
10
10
10
10
10
10
10
10
10
10
10
10
10
10
10
10
10
10
10
10
10
10
10
10
10
10
10
10
10
10
10
10
10
10
10
10
10
10
10
10
10
10
10
10
10
10
10
10
10
10
10
10
10
10
10
10
10
10
10
10
10
10
10
10
10
10
10
10
10
10
10
10
10
10
10
10
10
10
10
10
10
10
10
10
10
10
10
10
10
10
10
10
10
10
10
10
10
10
10
10
10
10
10
10
10
10
10
10
10
10
10
10
10
10
10
10
10
10
10
10
10
10
10
10
10
10
10
10
10
10
10
10
10
10
10
10
10
10
10
10
10
10
10
10
10
10
10
10
10
10
10
10
10
10
10
10
10
10
10
10
10
10
