# vtk DataFile Version 2.0
, Created by Gmsh 4.11.1 
ASCII
DATASET UNSTRUCTURED_GRID
POINTS 508 double
8.75 0 -44.21782721119178
9.677310172389667 0 -41.21186032404118
9.677310172389667 0 -38.78813967595882
8.75 0 -35.78217278880822
8.75 0 -3
11.75 0 -3
11.75 0 0
-11.75 0 0
-11.75 0 -3
-8.75 0 -3
-8.75 1.071565949253934e-15 -35.78217278880822
-9.677310172389667 1.185128692697313e-15 -38.78813967595882
-9.677310172389667 1.185128692697313e-15 -41.21186032404118
-8.75 1.071565949253934e-15 -44.21782721119178
-8.75 1.071565949253934e-15 -75.78217278880823
-9.677310172389667 1.185128692697313e-15 -78.78813967595883
-9.677310172389667 1.185128692697313e-15 -81.21186032404117
-8.75 1.071565949253934e-15 -84.21782721119177
-8.75 0 -120
8.75 0 -120
8.75 0 -84.21782721119177
9.677310172389667 0 -81.21186032404117
9.677310172389667 0 -78.78813967595883
8.75 0 -75.78217278880823
8.75 4.133743118849615 -41.21186032404118
8.75 4.133743118849615 -38.78813967595882
8.75 4.133743118849615 -78.78813967595882
8.75 4.133743118849615 -81.21186032404117
8.75 6.470868318807629 -120
8.75 20 -116.6194506845377
8.75 20 -83.3805493154623
8.75 6.470868318807629 -80
8.75 20 -76.6194506845377
8.75 20 -43.3805493154623
8.75 6.470868318807629 -40
8.75 20 -36.6194506845377
8.75 20 -3
11.75 23 -3
-11.75 23 -3
-8.75 20 -3
11.75 23 0
-11.75 23 0
-8.75 4.133743118849614 -41.21186032404118
-8.75 4.133743118849614 -78.78813967595882
-8.75 4.133743118849614 -81.21186032404117
-8.75 6.470868318807629 -120
-8.75 20 -116.6194506845377
-8.75 20 -83.3805493154623
-8.75 6.470868318807629 -80
-8.75 20 -76.6194506845377
-8.75 20 -43.3805493154623
-8.75 6.470868318807629 -40
-8.75 20 -36.6194506845377
-8.75 4.133743118849614 -38.78813967595882
7.195706732023496 6.470868318807629 -80
-7.195706732023496 6.470868318807629 -80
7.195706732023496 6.470868318807629 -40
-7.195706732023496 6.470868318807629 -40
3.866336967930683 3.580378652413626 -84.21782721119177
-3.866336967930682 3.580378652413628 -84.21782721119177
5.057805364762396 3.580378652413627 -81.21186032404117
-5.057805364762396 3.580378652413627 -81.21186032404117
5.057805364762396 3.580378652413627 -78.78813967595883
3.866336967930683 3.580378652413626 -75.78217278880823
-3.866336967930682 3.580378652413628 -75.78217278880823
-5.057805364762396 3.580378652413627 -78.78813967595883
3.866336967930683 3.580378652413626 -44.21782721119178
-3.866336967930682 3.580378652413628 -44.21782721119178
5.057805364762396 3.580378652413627 -41.21186032404118
-5.057805364762396 3.580378652413627 -41.21186032404118
5.057805364762396 3.580378652413627 -38.78813967595882
3.866336967930683 3.580378652413626 -35.78217278880822
-3.866336967930682 3.580378652413628 -35.78217278880822
-5.057805364762396 3.580378652413627 -38.78813967595882
8.75 0 -29.22573823104657
8.75 0 -22.66930367328494
8.75 0 -16.11286911552328
8.75 0 -9.556434557761612
5.875000000000016 0 0
3.730349362740526e-14 0 0
-5.874999999999972 0 0
-8.75 0 -9.556434557761641
-8.75 0 -16.11286911552327
-8.75 0 -22.66930367328492
-8.75 0 -29.22573823104658
-8.75 0 -50.53069632671507
-8.75 0 -56.84356544223836
-8.75 0 -63.15643455776166
-8.75 0 -69.46930367328497
-8.75 0 -90.18152267599315
-8.75 0 -96.14521814079453
-8.75 0 -102.1089136055959
-8.75 0 -108.0726090703973
-8.75 0 -114.0363045351986
2.916666666666666 0 -120
-2.916666666666668 0 -120
8.75 0 -90.18152267599315
8.75 0 -96.14521814079453
8.75 0 -102.1089136055959
8.75 0 -108.0726090703973
8.75 0 -114.0363045351986
8.75 0 -50.53069632671507
8.75 0 -56.84356544223836
8.75 0 -63.15643455776166
8.75 0 -69.46930367328497
8.75 2.379448662977251 -43.18777619261404
8.75 4.133743118849615 -40
8.75 2.379448662977251 -36.81222380738596
8.75 2.379448662977251 -76.81222380738596
8.75 2.379448662977251 -83.18777619261402
8.75 13.23543415940383 -118.3097253422688
8.75 20 -109.9716704107226
8.75 20 -103.3238901369076
8.75 20 -96.67610986309249
8.75 20 -90.02832958927743
8.75 13.2354341594038 -81.69027465773115
8.75 13.23543415940383 -78.30972534226885
8.75 20 -69.97167041072262
8.75 20 -63.32389013690756
8.75 20 -56.67610986309249
8.75 20 -50.02832958927743
8.75 13.2354341594038 -41.69027465773114
8.75 13.23543415940383 -38.30972534226884
8.75 20 -29.89556054763015
8.75 20 -23.1716704107226
8.75 20 -16.44778027381505
8.75 20 -9.723890136907489
8.75 6.666666666666651 -3
8.75 13.33333333333329 -3
-5.875000000000016 23 -3
-3.730349362740526e-14 23 -3
5.874999999999972 23 -3
-11.75 5.749999999999988 -3
-11.75 11.49999999999999 -3
-11.75 17.24999999999999 -3
-8.75 13.33333333333335 -3
-8.75 6.666666666666705 -3
-2.916666666666666 20 -3
2.916666666666668 20 -3
11.75 5.749999999999988 -3
11.75 11.49999999999999 -3
11.75 17.24999999999999 -3
11.75 5.749999999999988 0
11.75 11.49999999999999 0
11.75 17.24999999999999 0
-5.875000000000016 23 0
-3.730349362740526e-14 23 0
5.874999999999972 23 0
-11.75 5.749999999999988 0
-11.75 11.49999999999999 0
-11.75 17.24999999999999 0
-8.75 2.37944866297725 -43.18777619261405
-8.75 2.379448662977251 -76.81222380738596
-8.75 4.133743118849614 -79.99999999999999
-8.75 2.37944866297725 -83.18777619261404
-8.75 13.23543415940383 -118.3097253422688
-8.75 20 -109.9716704107226
-8.75 20 -103.3238901369076
-8.75 20 -96.67610986309249
-8.75 20 -90.02832958927743
-8.75 13.2354341594038 -81.69027465773115
-8.75 13.23543415940383 -78.30972534226885
-8.75 20 -69.97167041072262
-8.75 20 -63.32389013690756
-8.75 20 -56.67610986309249
-8.75 20 -50.02832958927743
-8.75 13.2354341594038 -41.69027465773114
-8.75 13.23543415940383 -38.30972534226884
-8.75 20 -9.72389013690754
-8.75 20 -16.44778027381509
-8.75 20 -23.17167041072265
-8.75 20 -29.89556054763021
-8.75 2.379448662977251 -36.81222380738596
-8.75 4.133743118849614 -40
2.916666666666666 6.470868318807629 -120
-2.916666666666668 6.470868318807629 -120
2.916666666666666 20 -116.6194506845377
-2.916666666666668 20 -116.6194506845377
2.916666666666666 20 -83.3805493154623
-2.916666666666668 20 -83.3805493154623
2.683683501170987 9.297751074221075 -80.7063584558786
-2.683683501170976 9.297751074221079 -80.7063584558786
2.916666666666666 20 -76.6194506845377
-2.916666666666668 20 -76.6194506845377
-2.683683501170988 9.297751074221075 -79.29364154412141
2.683683501170975 9.297751074221079 -79.29364154412141
2.916666666666666 20 -43.3805493154623
-2.916666666666668 20 -43.3805493154623
2.683683501170987 9.297751074221075 -40.70635845587859
-2.683683501170976 9.297751074221079 -40.70635845587859
2.916666666666666 20 -36.6194506845377
-2.916666666666668 20 -36.6194506845377
-2.683683501170979 9.297751074221079 -39.29364154412141
2.683683501170983 9.297751074221077 -39.29364154412141
1.492729005944739e-15 5.269504041581773 -84.21782721119177
-5.329070518200751e-15 3.580378652413626 -84.21782721119177
4.475600717695738 3.580378652413626 -82.7202161028944
1.13871987460834e-14 6.19681421397144 -81.21186032404117
-4.475600717695738 3.580378652413626 -82.7202161028944
4.475600717695738 3.580378652413626 -77.2797838971056
1.77635683940025e-15 3.580378652413626 -75.78217278880823
-4.475600717695738 3.580378652413626 -77.2797838971056
1.13871987460834e-14 6.19681421397144 -78.78813967595882
1.492729005944739e-15 5.269504041581773 -75.78217278880821
1.492729005944739e-15 5.269504041581773 -44.21782721119178
-5.329070518200751e-15 3.580378652413626 -44.21782721119178
4.475600717695738 3.580378652413626 -42.72021610289439
1.13871987460834e-14 6.19681421397144 -41.21186032404118
-4.475600717695738 3.580378652413626 -42.72021610289439
4.475600717695738 3.580378652413626 -37.27978389710561
1.77635683940025e-15 3.580378652413626 -35.78217278880822
-4.475600717695738 3.580378652413626 -37.27978389710561
1.13871987460834e-14 6.19681421397144 -38.78813967595882
1.492729005944739e-15 5.269504041581773 -35.78217278880822
7.293900334127112 0 -79.83386988665453
7.263056872061525 0 -40.06960507708222
4.805494542822636 0 -87.19967494359247
-4.580208846579156 0 -72.44287925519126
3.857468010959014 0 -47.226135928536
-7.271319572844563 0 -39.83885886570174
-3.99360516316394 0 -32.56143021121393
-6.834019779280272 0 -79.95625777339426
-8.881784197001252e-16 0 -115.5903166298927
3.846971174290142 0 -105.0907613379966
3.28289497519063 0 -60.00000000000001
-2.826241494055003 0 -4.130360671550477
-3.071961114728231 0 -19.39108639440409
-4.805494542822636 0 -87.19967494359246
4.028617543419077 0 -72.72600265151699
-4.649671231392977 0 -47.37426176895342
4.491470836046174 0 -32.50395550992739
-3.419428600804615 0 -98.86833272967856
3.071961114728232 0 -12.83465183664245
3.682249719795927 0 -5.695445783903821
3.071961114728238 0 -25.94752095216576
-3.436803381330338 0 -66.7339200210846
-2.863151243544501 0 -53.92159099429801
2.698009420288286 0 -93.41397572739189
3.101108715587279 0 -66.25272219419845
3.629535290434191 0 -53.03232658949827
-3.144324827167861 0 -60.41959628338078
-4.009483231018061 0 -12.14802873644149
-3.582267527193988 0 -26.63993053655126
4.114392222945647 0 -19.3910863944041
-1.926738457066643 0 -105.0537994603513
3.414435710916974 0 -99.48655358958476
-3.837818953889824 0 -92.50356158959099
3.418259472235793 0 -110.85282001737
-3.711516621899536 0 -111.3091848626026
-4.184976239390835 0 -37.56582552643715
-1.878922162358526 0 -43.30994534918911
1.347626091146018 0 -37.49107905516113
3.867845762361606 0 -42.46291852423205
4.226223707508617 0 -77.56742842975348
2.789400112456637 0 -82.41225475367062
-1.504850029505763 0 -76.71415854968171
-2.918812973571003 0 -82.33927273083474
-0.1510979041328415 0 -87.99747184010739
-0.7203487719945789 0 -8.461049779338261
-0.3809482671805604 0 -48.97285212609496
0.2670370703125 0 -31.02878325300389
-0.4784271996817804 0 -70.9739365343346
4.598940730916045 0 -115.8547566253685
-4.586677953789946 0 -115.8390118599587
-5.011214699413529 0 -7.459174749018374
9.398181880862797 2.307489871453122 -40
8.75 5.094843660279041 -44.15364008983883
8.75 5.146177612393383 -75.40407997752183
8.75 5.371362566409367 -83.81054560870766
8.75 6.576297517153264 -36.38793134752854
8.75 4.390782895270479 -92.93813639266314
8.75 4.748935958274277 -105.3461619507433
8.75 5.46710502480937 -60.00000000000001
8.75 5.420073625347976 -19.4169698660273
8.75 9.784162868704266 -30.88231739735027
8.75 9.989441277697761 -8.8475814447972
8.75 13.38725326767467 -67.57224868319307
8.75 14.04728765588009 -53.42625073096917
8.75 14.37953107234094 -100
8.75 8.65194738083143 -114.353901401034
8.75 14.64440666904097 -19.74628626257351
8.75 2.703502670346622 -87.19967494359246
8.75 2.471368657497689 -46.28380523050257
8.75 6.810772988392032 -49.76529952713245
8.75 2.476606815876698 -73.67106416412608
8.75 5.646088472153812 -69.59657309741726
8.75 2.831799514055494 -32.50395550992739
8.75 14.58735333961646 -93.18679579890639
8.75 13.01038789853482 -60.14264277345176
8.75 14.72096917761747 -106.2614147135731
8.75 4.703599177340676 -26.32237536865626
8.75 15.05205253949234 -26.69821796144358
8.75 4.876916341974758 -99.42307168163282
8.75 14.94116790623775 -13.08369266838374
8.75 5.012239513540105 -12.92232172232939
8.75 14.09714196646578 -47.13478282635307
8.75 14.2567162563854 -86.6590634048712
8.75 14.66810603703359 -112.5590013813352
8.75 15.0551352056554 -73.02204900736555
8.75 8.534032941639783 -88.51286337256425
8.75 9.085534670689807 -64.33963545786696
8.75 9.085534670689809 -55.66036454213307
8.75 15.63828897916364 -32.70289759505691
8.75 4.481238848080983 -111.0015336395293
8.75 9.141812218669656 -44.5487994202111
8.75 9.959415622661941 -16.0333542527038
8.75 9.484827491728872 -96.23079289711234
8.75 15.12950676938509 -7.886023011413265
8.75 9.82349283934812 -73.98411268462776
8.75 4.664015821607074 -7.675497512986723
8.75 9.558168273122632 -102.6085795764379
8.75 10.0010776472423 -23.19831466560444
8.75 9.573682848529195 -84.13454940877486
8.75 9.224702605188494 -108.4677111153151
8.75 4.130399110215047 -115.8449637922548
10.25 3.10416666666666 -3
-10.25 3.104166666666674 -3
11.75 20.125 -1.5
11.75 14.37499999999999 -1.500000000000001
11.75 8.624999999999988 -1.5
11.75 2.874999999999994 -1.5
3.157610638484559 18.22886740495932 0
-2.707174061168084 4.878797530676509 0
7.069955745470664 8.71654637064 0
-6.619519168154188 14.39111856499582 0
7.102873022115114 14.37499999999999 0
0.1126091443291184 11.52691623390895 0
-7.000954855602266 8.644857627020135 0
-2.792058517349995 18.15992185565015 0
2.948495529093417 4.721447277005962 0
-7.528051718759411 18.81262893003678 0
7.528051718759418 4.187371069963205 0
7.820492259183636 19.07601590637069 0
-7.553981076842906 4.160878030182232 0
-11.75 20.125 -1.5
-11.75 14.37499999999999 -1.5
-11.75 8.624999999999988 -1.5
-11.75 2.874999999999994 -1.5
-8.75 5.09484366027904 -75.84635991016117
-8.75 5.665279429552158 -83.81402182695328
-8.75 5.63717746782888 -43.77390525545567
-8.75 8.646168027986292 -34.9657613248818
-8.75 4.491688118043712 -92.86164298179563
-8.75 4.748935958274277 -105.3461619507433
-8.75 5.181969647686709 -59.34950505528627
-8.75 5.130573126055451 -19.60171448594325
-8.75 9.989441277697807 -8.8475814447972
-8.75 14.04728765588009 -66.57374926903086
-8.75 13.31626909666249 -53.00813766296675
-8.75 14.61558155998205 -26.4260568733449
-8.75 14.37953107234094 -100
-8.75 8.65194738083143 -114.353901401034
-8.75 2.703502670346614 -87.19967494359246
-8.75 2.471368657497683 -73.71619476949745
-8.75 6.810772988392036 -70.23470047286756
-8.75 2.779080404000388 -47.37426176895342
-8.75 3.69058975836286 -32.70600515402938
-8.75 5.470869746122756 -26.72168302770251
-8.75 5.71617034347492 -52.7618572628721
-8.75 14.50238825834221 -19.74500599485191
-8.75 14.71075523303427 -93.14926776459643
-8.75 14.24285340409908 -60.00000000000003
-8.75 14.72096917761747 -106.2614147135731
-8.75 9.020754323266914 -88.20983698250154
-8.75 4.893733879103631 -99.41032277982156
-8.75 14.91749817112131 -13.08347929043016
-8.75 4.963989430324688 -12.95311249231538
-8.75 5.064163577396728 -36.65442599245119
-8.75 14.57362787807009 -32.54054864630567
-8.75 8.564495901056164 -47.95038158526066
-8.75 14.66810603703359 -112.5590013813352
-8.75 14.09714196646579 -72.86521717364694
-8.75 14.24167636504803 -46.82487184107963
-8.75 14.3617623493077 -86.65046856948916
-8.75 8.890701315056699 -63.89712163675123
-8.75 4.481238848080983 -111.0015336395293
-8.75 9.141812218669665 -75.4512005797889
-8.75 9.809643447286566 -23.09208538202049
-8.75 9.641133117912387 -56.99000795171827
-8.75 9.885588951804673 -16.22049651505974
-8.75 9.606135164220047 -96.15916010760377
-8.75 15.12950676938515 -7.886023011413243
-8.75 4.661503843097286 -7.677100530999297
-8.75 9.203630380141206 -83.44455310736612
-8.75 9.58118914139264 -102.594515961218
-8.75 9.629930442428901 -44.04788666790542
-8.75 9.225701358670984 -108.4671009695763
-8.75 10.1974890256861 -29.81140331339297
-8.75 4.130399110215047 -115.8449637922548
-9.398181880862797 2.307489871453124 -40
-9.398181880862797 2.307489871453124 -80
-5.529640427599613 3.235434159403813 -120
5.529640427599611 3.235434159403815 -120
-1.77635683940025e-15 3.235434159403815 -120
9.443489048037229 2.114437696466238 -80
0 11.3719963476125 -118.7753460167882
0 16.92148610140327 -117.388684682534
-5.833333333333334 9.853151239105728 -119.1548626711344
5.833333333333333 9.853151239105731 -119.1548626711344
-4.375 15.23034464125422 -117.8112533469668
4.375 15.23034464125422 -117.8112533469668
-0.0004083742210916341 20 -112.0497534831643
-0.0004083742210916341 20 -87.95024651683573
2.992853404099088 20 -100
-3.953536431038687 20 -100
3.848495280796072 20 -92.52059597432168
3.848495280796072 20 -107.4794040256784
-2.920847064813991 20 -93.41138877084246
-2.920847064813991 20 -106.5886112291576
4.85295071464833 20 -87.45205414227189
-4.667584421140347 20 -87.63021270157606
-4.667584421140351 20 -112.369787298424
4.85295071464833 20 -112.5479458577281
8.881784197001252e-15 14.10446828159822 -81.90742183140983
6.467009384638321 10.17881561852285 -80.92651169352192
-6.46700938463831 10.17881561852285 -80.92651169352192
-4.726031807919895 14.99784432298865 -82.13065136574656
4.726031807919907 14.99784432298866 -82.13065136574656
-7.105427357601002e-15 14.10446828159822 -78.09257816859017
6.46700938463832 10.17881561852286 -79.07348830647808
-6.467009384638327 10.17881561852286 -79.07348830647808
-4.726031807919902 14.99784432298866 -77.86934863425343
4.726031807919894 14.99784432298866 -77.86934863425344
0.0004083742210934105 20 -72.04975348316428
0.0004083742210951868 20 -47.95024651683573
-2.992853404099085 20 -60.00000000000002
3.953536431038685 20 -60.00000000000001
-3.848495280796069 20 -52.52059597432167
-3.848495280796069 20 -67.47940402567836
2.920847064813996 20 -53.41138877084246
2.920847064813995 20 -66.58861122915758
4.667584421140352 20 -47.63021270157604
-4.85295071464833 20 -47.45205414227188
4.667584421140352 20 -72.36978729842397
-4.852950714648328 20 -72.54794585772814
1.06581410364015e-14 14.10446828159822 -41.90742183140983
6.467009384638319 10.17881561852284 -40.92651169352192
-6.467009384638313 10.17881561852285 -40.92651169352192
-4.726031807919897 14.99784432298865 -42.13065136574657
4.726031807919907 14.99784432298866 -42.13065136574657
1.77635683940025e-15 14.10446828159822 -38.09257816859017
-6.46700938463832 10.17881561852286 -39.07348830647808
6.467009384638326 10.17881561852286 -39.07348830647808
4.726031807919899 14.99784432298866 -37.86934863425343
-4.726031807919895 14.99784432298866 -37.86934863425343
-7.351538673994185e-05 20 -7.622593929426781
-7.351538674527092e-05 20 -31.99685675511092
2.926940329182431 20 -19.80972534226882
-4.182612778394732 20 -19.80972534226886
3.848366339425159 20 -27.37419374708464
3.848366339425164 20 -12.24525693745303
-2.96295899407246 20 -13.14584529008484
-2.962958994072461 20 -26.47360539445286
-4.675939835225173 20 -7.298465871283835
4.852991898141017 20 -32.50110248378022
4.85299189814102 20 -7.11834820075746
-4.675939835225176 20 -32.32098481325387
8.812499999999986 23 -1.5
2.937499999999966 23 -1.5
-8.812500000000007 23 -1.5
-2.937500000000027 23 -1.499999999999999
3.03420073670553 4.80156686033706 -82.88744439137456
-2.82824249812148 4.915322463769826 -82.91659317408561
3.657600181584066 3.580378652413626 -80
-3.657600181584067 3.580378652413626 -80
1.419293174582023 3.580378652413626 -82.22421758890273
-1.585224114310904 3.580378652413626 -77.66779981590885
2.40820675349836 3.580378652413626 -77.20827322878037
-2.296351172243612 3.580378652413626 -82.73708709063196
-2.847241215440109 5.503973461380206 -79.84288049089612
2.898510152017953 5.477147551520531 -80
-2.82824249812149 4.915322463769824 -77.08340682591439
3.034200736705537 4.801566860337058 -77.11255560862544
-2.828242498121479 4.915322463769826 -42.91659317408561
3.03420073670553 4.80156686033706 -42.88744439137457
3.957847900903333 3.580378652413626 -40.05518823514748
-3.073676627135178 3.580378652413626 -39.60339818364216
2.152250420196291 3.580378652413626 -42.19971595185737
1.678018194257669 3.580378652413626 -38.04021350968398
-1.687904989761883 3.580378652413626 -42.13507428508964
-2.847241215440109 5.503973461380206 -40.15711950910388
2.84724121544012 5.5039734613802 -40.15711950910388
-2.828242498121487 4.915322463769824 -37.08340682591439
3.034200736705533 4.80156686033706 -37.11255560862544
-0.2597281692761569 11.30733928797473 -91.32282176779714
-0.130023939338417 11.5687945807796 -29.74136120536367
0.1453866049171928 11.32523672119208 -51.25219964526973
7.172232201035911e-05 11.24174422714949 -109.7111874975257
-0.1883338242179935 11.33888196714856 -68.80161664415132
0.0006376807484080871 8.498352361268521 -100.0543879367386
0.0101454749143759 10.90745001384398 -19.66800434049219
-1.77635683940025e-15 8.715302956262205 -10.86696808307926
3.818080812914622 7.883030504908493 -47.76182066242581
-0.5873988813746944 10.94681576465237 -60.01644602615956
-3.698217111094705 7.516864472224892 -32.99839506522156
-2.539237897562449 5.812208742271759 -49.9284165364889
-3.294318413479723 9.469906569766252 -73.53767184401103
-2.379438830258737 5.44643539867087 -89.93553955550935
2.545622412471488 5.826822628353522 -30.00232587168066
3.59631803511719 8.231820714302948 -72.82953105476057
-1.093352561873842e-15 6.167803929490249 -114.4567085473611
3.552587690483625 8.131723794819473 -87.10594047097598
2.265420769302849 13.98524434312304 -5.820571974265423
-3.12891513832794 9.3056817022403 -86.1475230266001
-1.933168483965345 4.424941346997665 -71.58467859981459
2.364088793222924 6.401579934897135 -105.8682804364667
-2.651435219392091 14.03193072961064 -103.1589715750788
-3.022893064394219 9.2004149774393 -45.94573565163937

CELLS 2802 12330
1 0
1 1
1 2
1 3
1 4
1 5
1 6
1 7
1 8
1 9
1 10
1 11
1 12
1 13
1 14
1 15
1 16
1 17
1 18
1 19
1 20
1 21
1 22
1 23
1 24
1 25
1 26
1 27
1 28
1 29
1 30
1 31
1 32
1 33
1 34
1 35
1 36
1 37
1 38
1 39
1 40
1 41
1 42
1 43
1 44
1 45
1 46
1 47
1 48
1 49
1 50
1 51
1 52
1 53
1 54
1 55
1 56
1 57
1 58
1 59
1 60
1 61
1 62
1 63
1 64
1 65
1 66
1 67
1 68
1 69
1 70
1 71
1 72
1 73
2 0 1
2 1 2
2 2 3
2 3 74
2 74 75
2 75 76
2 76 77
2 77 4
2 4 5
2 5 6
2 6 78
2 78 79
2 79 80
2 80 7
2 8 7
2 8 9
2 9 81
2 81 82
2 82 83
2 83 84
2 84 10
2 11 10
2 12 11
2 13 12
2 13 85
2 85 86
2 86 87
2 87 88
2 88 14
2 15 14
2 16 15
2 17 16
2 17 89
2 89 90
2 90 91
2 91 92
2 92 93
2 93 18
2 19 94
2 94 95
2 95 18
2 20 96
2 96 97
2 97 98
2 98 99
2 99 100
2 100 19
2 20 21
2 21 22
2 22 23
2 0 101
2 101 102
2 102 103
2 103 104
2 104 23
2 1 24
2 24 105
2 105 0
2 24 106
2 106 25
2 2 25
2 3 107
2 107 25
2 23 108
2 108 26
2 26 27
2 27 109
2 109 20
2 19 28
2 28 110
2 110 29
2 29 111
2 111 112
2 112 113
2 113 114
2 114 30
2 30 115
2 115 31
2 31 116
2 116 32
2 32 117
2 117 118
2 118 119
2 119 120
2 120 33
2 33 121
2 121 34
2 34 122
2 122 35
2 35 123
2 123 124
2 124 125
2 125 126
2 126 36
2 4 127
2 127 128
2 128 36
2 38 129
2 129 130
2 130 131
2 131 37
2 8 132
2 132 133
2 133 134
2 134 38
2 39 135
2 135 136
2 136 9
2 39 137
2 137 138
2 138 36
2 5 139
2 139 140
2 140 141
2 141 37
2 6 142
2 142 143
2 143 144
2 144 40
2 37 40
2 41 145
2 145 146
2 146 147
2 147 40
2 7 148
2 148 149
2 149 150
2 150 41
2 38 41
2 42 151
2 151 13
2 14 152
2 152 43
2 44 153
2 153 43
2 44 154
2 154 17
2 18 45
2 45 155
2 155 46
2 46 156
2 156 157
2 157 158
2 158 159
2 159 47
2 47 160
2 160 48
2 48 161
2 161 49
2 49 162
2 162 163
2 163 164
2 164 165
2 165 50
2 50 166
2 166 51
2 51 167
2 167 52
2 39 168
2 168 169
2 169 170
2 170 171
2 171 52
2 10 172
2 172 53
2 42 173
2 173 53
2 53 11
2 42 12
2 43 15
2 44 16
2 28 174
2 174 175
2 175 45
2 21 27
2 22 26
2 29 176
2 176 177
2 177 46
2 30 178
2 178 179
2 179 47
2 31 54
2 54 180
2 180 181
2 181 55
2 55 48
2 32 182
2 182 183
2 183 49
2 55 184
2 184 185
2 185 54
2 33 186
2 186 187
2 187 50
2 34 56
2 56 188
2 188 189
2 189 57
2 57 51
2 35 190
2 190 191
2 191 52
2 57 192
2 192 193
2 193 56
2 58 194
2 194 59
2 59 195
2 195 58
2 58 196
2 196 60
2 60 197
2 197 61
2 61 198
2 198 59
2 60 62
2 62 199
2 199 63
2 63 200
2 200 64
2 64 201
2 201 65
2 61 65
2 62 202
2 202 65
2 63 203
2 203 64
2 66 204
2 204 67
2 67 205
2 205 66
2 66 206
2 206 68
2 68 207
2 207 69
2 69 208
2 208 67
2 68 70
2 70 209
2 209 71
2 71 210
2 210 72
2 72 211
2 211 73
2 69 73
2 70 212
2 212 73
2 71 213
2 213 72
3 1 215 0
3 0 218 101
3 215 252 0
3 0 252 218
3 2 215 1
3 3 215 2
3 74 230 3
3 3 251 215
3 230 251 3
3 6 4 5
3 6 78 4
3 4 233 77
3 78 233 4
3 8 9 7
3 7 9 80
3 9 225 80
3 81 264 9
3 9 264 225
3 11 219 10
3 10 220 84
3 219 249 10
3 10 249 220
3 12 219 11
3 13 219 12
3 85 229 13
3 13 250 219
3 229 250 13
3 15 221 14
3 14 217 88
3 14 255 217
3 221 255 14
3 16 221 15
3 17 221 16
3 89 227 17
3 17 256 221
3 227 256 17
3 18 263 93
3 95 263 18
3 19 262 94
3 100 262 19
3 21 214 20
3 20 216 96
3 214 254 20
3 20 254 216
3 22 214 21
3 23 214 22
3 104 228 23
3 23 253 214
3 228 253 23
3 75 234 74
3 74 234 230
3 76 243 75
3 75 243 234
3 77 232 76
3 232 243 76
3 77 233 232
3 79 233 78
3 80 225 79
3 225 233 79
3 82 241 81
3 241 264 81
3 83 226 82
3 226 241 82
3 84 242 83
3 83 242 226
3 220 242 84
3 86 236 85
3 85 236 229
3 87 240 86
3 86 240 236
3 88 235 87
3 235 240 87
3 217 235 88
3 90 246 89
3 89 246 227
3 91 231 90
3 231 246 90
3 92 244 91
3 91 244 231
3 93 248 92
3 92 248 244
3 93 263 248
3 94 222 95
3 94 262 222
3 222 263 95
3 96 237 97
3 216 237 96
3 97 245 98
3 237 245 97
3 98 223 99
3 98 245 223
3 99 247 100
3 223 247 99
3 247 262 100
3 101 239 102
3 218 239 101
3 102 224 103
3 102 239 224
3 103 238 104
3 224 238 103
3 104 238 228
3 253 254 214
3 251 252 215
3 216 257 237
3 254 257 216
3 217 261 235
3 255 261 217
3 218 259 239
3 218 252 250
3 250 259 218
3 219 250 249
3 220 260 242
3 249 251 220
3 251 260 220
3 221 256 255
3 247 248 222
3 222 262 247
3 248 263 222
3 223 245 244
3 244 247 223
3 224 239 236
3 236 240 224
3 224 240 238
3 225 258 233
3 225 264 258
3 232 241 226
3 226 243 232
3 226 242 234
3 234 243 226
3 246 257 227
3 227 257 256
3 238 261 228
3 228 255 253
3 228 261 255
3 236 259 229
3 229 259 250
3 234 260 230
3 230 260 251
3 231 245 237
3 237 246 231
3 244 245 231
3 233 258 232
3 232 258 241
3 242 260 234
3 238 240 235
3 235 261 238
3 239 259 236
3 237 257 246
3 258 264 241
3 244 248 247
3 250 251 249
3 250 252 251
3 253 255 254
3 255 256 254
3 256 257 254
3 0 105 1
3 1 105 24
3 1 265 2
3 24 265 1
3 2 265 25
3 106 265 24
3 25 265 106
3 2 107 3
3 2 25 107
3 101 282 0
3 0 282 105
3 3 286 74
3 107 286 3
3 77 309 4
3 4 309 127
3 28 314 19
3 19 314 100
3 96 281 20
3 20 281 109
3 23 284 104
3 108 284 23
3 106 24 34
3 24 266 34
3 105 266 24
3 106 34 25
3 34 269 25
3 25 269 107
3 27 31 26
3 31 267 26
3 26 267 108
3 27 268 31
3 109 268 27
3 110 279 28
3 279 314 28
3 29 297 110
3 111 297 29
3 30 296 114
3 115 296 30
3 31 312 115
3 116 308 31
3 31 308 267
3 268 312 31
3 32 298 116
3 117 298 32
3 33 295 120
3 121 295 33
3 34 304 121
3 122 269 34
3 266 304 34
3 35 302 122
3 123 302 35
3 36 307 126
3 128 307 36
3 74 290 75
3 286 290 74
3 75 273 76
3 75 290 273
3 76 294 77
3 273 294 76
3 294 309 77
3 97 270 96
3 270 281 96
3 98 292 97
3 97 292 270
3 99 271 98
3 271 292 98
3 100 303 99
3 99 303 271
3 100 314 303
3 102 283 101
3 101 283 282
3 103 272 102
3 272 301 102
3 102 301 283
3 104 285 103
3 103 300 272
3 285 300 103
3 284 285 104
3 105 282 266
3 269 286 107
3 267 284 108
3 109 281 268
3 110 297 279
3 112 289 111
3 289 297 111
3 113 278 112
3 278 289 112
3 114 287 113
3 113 287 278
3 114 296 287
3 115 312 296
3 298 308 116
3 118 276 117
3 276 298 117
3 119 288 118
3 118 288 276
3 120 277 119
3 277 288 119
3 120 295 277
3 121 304 295
3 122 274 269
3 122 302 274
3 124 291 123
3 291 302 123
3 125 280 124
3 280 291 124
3 126 293 125
3 125 293 280
3 126 307 293
3 127 275 128
3 127 309 275
3 275 307 128
3 282 283 266
3 283 304 266
3 267 285 284
3 267 308 285
3 281 299 268
3 299 312 268
3 274 286 269
3 270 299 281
3 292 306 270
3 270 306 299
3 271 310 292
3 303 313 271
3 271 313 310
3 272 300 288
3 288 301 272
3 290 311 273
3 273 305 294
3 273 311 305
3 274 290 286
3 274 311 290
3 274 302 291
3 291 311 274
3 275 305 293
3 293 307 275
3 294 305 275
3 275 309 294
3 276 300 285
3 285 308 276
3 288 300 276
3 276 308 298
3 277 295 283
3 283 301 277
3 277 301 288
3 287 306 278
3 278 310 289
3 306 310 278
3 297 313 279
3 279 313 303
3 303 314 279
3 280 311 291
3 293 305 280
3 305 311 280
3 295 304 283
3 296 299 287
3 299 306 287
3 289 313 297
3 310 313 289
3 292 310 306
3 296 312 299
3 5 4 315
3 4 127 315
3 139 5 315
3 9 8 316
3 8 132 316
3 136 9 316
3 36 131 37
3 141 36 37
3 141 128 36
3 36 138 131
3 129 39 38
3 39 134 38
3 129 137 39
3 134 39 135
3 128 140 127
3 140 139 127
3 127 139 315
3 141 140 128
3 137 129 130
3 138 130 131
3 138 137 130
3 132 133 136
3 132 136 316
3 133 134 135
3 133 135 136
3 5 320 6
3 139 320 5
3 6 320 142
3 40 317 37
3 37 317 141
3 144 317 40
3 140 319 139
3 139 319 142
3 142 320 139
3 141 318 140
3 140 318 143
3 143 319 140
3 141 317 144
3 144 318 141
3 142 319 143
3 143 318 144
3 6 331 78
3 142 331 6
3 80 333 7
3 7 333 148
3 40 332 144
3 147 332 40
3 41 330 145
3 150 330 41
3 78 329 79
3 78 331 329
3 79 322 80
3 79 329 322
3 322 333 80
3 143 323 142
3 323 331 142
3 144 325 143
3 143 325 323
3 144 332 325
3 145 328 146
3 145 330 328
3 146 321 147
3 146 328 321
3 321 332 147
3 148 327 149
3 148 333 327
3 149 324 150
3 149 327 324
3 324 330 150
3 321 326 325
3 325 332 321
3 321 328 326
3 326 327 322
3 322 329 326
3 327 333 322
3 325 326 323
3 326 329 323
3 329 331 323
3 324 327 326
3 326 328 324
3 328 330 324
3 8 7 337
3 7 148 337
3 132 8 337
3 41 38 334
3 38 134 334
3 150 41 334
3 133 132 336
3 132 148 336
3 148 132 337
3 134 133 335
3 133 149 335
3 149 133 336
3 134 150 334
3 150 134 335
3 148 149 336
3 149 150 335
3 81 9 382
3 9 136 382
3 10 84 356
3 172 10 356
3 85 13 355
3 13 151 355
3 14 88 353
3 152 14 353
3 89 17 352
3 17 154 352
3 45 18 388
3 18 93 388
3 135 39 381
3 39 168 381
3 173 51 42
3 42 51 340
3 151 42 340
3 153 43 48
3 48 43 338
3 43 152 338
3 44 153 48
3 44 48 339
3 154 44 339
3 155 45 351
3 351 45 388
3 46 155 370
3 156 46 370
3 47 159 373
3 160 47 373
3 48 160 383
3 161 48 376
3 48 338 376
3 339 48 383
3 49 161 371
3 162 49 371
3 50 165 372
3 166 50 372
3 173 53 51
3 51 53 367
3 51 166 385
3 167 51 341
3 340 51 385
3 341 51 367
3 52 167 368
3 171 52 368
3 53 172 367
3 82 81 366
3 366 81 382
3 83 82 345
3 345 82 366
3 84 83 357
3 83 345 357
3 356 84 357
3 86 85 358
3 85 355 358
3 87 86 344
3 344 86 358
3 88 87 354
3 87 344 374
3 354 87 374
3 353 88 354
3 90 89 342
3 342 89 352
3 91 90 364
3 90 342 364
3 92 91 343
3 343 91 364
3 93 92 375
3 92 343 375
3 93 375 388
3 136 135 346
3 346 135 381
3 136 346 382
3 151 340 355
3 338 152 353
3 154 339 352
3 155 351 370
3 157 156 362
3 362 156 370
3 158 157 350
3 350 157 362
3 159 158 360
3 158 350 360
3 159 360 373
3 160 373 383
3 371 161 376
3 163 162 347
3 347 162 371
3 164 163 361
3 163 347 361
3 165 164 348
3 348 164 361
3 165 348 372
3 166 372 385
3 167 341 368
3 168 169 365
3 168 365 381
3 169 170 359
3 169 359 365
3 170 171 349
3 170 349 359
3 349 171 368
3 172 356 367
3 338 353 354
3 338 354 376
3 352 339 363
3 363 339 383
3 355 340 369
3 369 340 385
3 356 341 367
3 341 356 387
3 368 341 387
3 342 352 363
3 342 363 380
3 364 342 380
3 343 364 384
3 375 343 386
3 343 384 386
3 344 358 378
3 374 344 378
3 357 345 377
3 345 366 379
3 377 345 379
3 346 365 379
3 365 346 381
3 366 346 379
3 346 366 382
3 354 347 371
3 347 354 374
3 361 347 374
3 348 358 369
3 358 348 378
3 348 361 378
3 348 369 372
3 359 349 377
3 349 368 387
3 377 349 387
3 360 350 380
3 350 362 384
3 380 350 384
3 370 351 386
3 351 375 386
3 375 351 388
3 354 371 376
3 358 355 369
3 356 357 387
3 357 377 387
3 365 359 379
3 359 377 379
3 360 363 373
3 363 360 380
3 361 374 378
3 362 370 386
3 384 362 386
3 373 363 383
3 364 380 384
3 372 369 385
3 172 11 10
3 53 11 172
3 11 389 12
3 53 389 11
3 12 389 42
3 42 389 173
3 173 389 53
3 151 13 12
3 42 151 12
3 152 15 14
3 43 15 152
3 15 390 16
3 43 390 15
3 16 390 44
3 153 390 43
3 44 390 153
3 154 17 16
3 44 154 16
3 45 391 18
3 18 391 95
3 19 392 28
3 94 392 19
3 28 392 174
3 175 391 45
3 95 393 94
3 94 393 392
3 391 393 95
3 174 393 175
3 392 393 174
3 175 393 391
3 21 20 109
3 21 109 27
3 21 394 22
3 27 394 21
3 22 394 26
3 26 394 27
3 22 108 23
3 22 26 108
3 28 398 110
3 174 398 28
3 110 400 29
3 29 400 176
3 155 397 45
3 45 397 175
3 46 399 155
3 177 399 46
3 398 400 110
3 155 399 397
3 175 395 174
3 395 398 174
3 175 397 395
3 176 396 177
3 176 400 396
3 396 399 177
3 395 399 396
3 396 400 395
3 397 399 395
3 395 400 398
3 29 412 111
3 176 412 29
3 114 409 30
3 30 409 178
3 156 411 46
3 46 411 177
3 47 410 159
3 179 410 47
3 111 406 112
3 111 412 406
3 112 403 113
3 112 406 403
3 113 405 114
3 403 405 113
3 405 409 114
3 157 408 156
3 408 411 156
3 158 404 157
3 404 408 157
3 159 407 158
3 158 407 404
3 159 410 407
3 177 401 176
3 401 412 176
3 177 411 401
3 178 402 179
3 178 409 402
3 402 410 179
3 401 408 406
3 406 412 401
3 401 411 408
3 405 407 402
3 402 409 405
3 407 410 402
3 404 407 403
3 403 408 404
3 403 407 405
3 406 408 403
3 30 417 115
3 178 417 30
3 31 414 54
3 115 414 31
3 160 416 47
3 47 416 179
3 55 415 48
3 48 415 160
3 54 414 180
3 181 415 55
3 115 417 414
3 415 416 160
3 179 413 178
3 413 417 178
3 179 416 413
3 180 413 181
3 180 417 413
3 414 417 180
3 413 416 181
3 181 416 415
3 54 419 31
3 31 419 116
3 116 422 32
3 32 422 182
3 48 420 55
3 161 420 48
3 49 421 161
3 183 421 49
3 185 419 54
3 55 420 184
3 419 422 116
3 161 421 420
3 182 418 183
3 182 422 418
3 418 421 183
3 184 418 185
3 184 421 418
3 420 421 184
3 418 422 185
3 185 422 419
3 32 433 117
3 182 433 32
3 120 431 33
3 33 431 186
3 162 434 49
3 49 434 183
3 50 432 165
3 187 432 50
3 117 430 118
3 117 433 430
3 118 426 119
3 118 430 426
3 119 429 120
3 426 429 119
3 429 431 120
3 163 428 162
3 428 434 162
3 164 425 163
3 425 428 163
3 165 427 164
3 164 427 425
3 165 432 427
3 183 423 182
3 423 433 182
3 183 434 423
3 186 424 187
3 186 431 424
3 424 432 187
3 428 430 423
3 423 434 428
3 430 433 423
3 424 429 427
3 427 432 424
3 424 431 429
3 425 429 426
3 426 430 425
3 427 429 425
3 425 430 428
3 33 439 121
3 186 439 33
3 34 436 56
3 121 436 34
3 166 438 50
3 50 438 187
3 57 437 51
3 51 437 166
3 56 436 188
3 189 437 57
3 121 439 436
3 437 438 166
3 187 435 186
3 435 439 186
3 187 438 435
3 188 435 189
3 188 439 435
3 436 439 188
3 435 438 189
3 189 438 437
3 56 442 34
3 34 442 122
3 122 443 35
3 35 443 190
3 51 441 57
3 167 441 51
3 52 444 167
3 191 444 52
3 193 442 56
3 57 441 192
3 442 443 122
3 167 444 441
3 190 440 191
3 190 443 440
3 440 444 191
3 192 440 193
3 192 444 440
3 441 444 192
3 440 443 193
3 193 443 442
3 35 454 123
3 190 454 35
3 126 455 36
3 36 455 138
3 137 453 39
3 39 453 168
3 171 456 52
3 52 456 191
3 123 449 124
3 123 454 449
3 124 447 125
3 124 449 447
3 125 450 126
3 447 450 125
3 450 455 126
3 138 445 137
3 445 453 137
3 138 455 445
3 168 451 169
3 168 453 451
3 169 448 170
3 169 451 448
3 170 452 171
3 448 452 170
3 452 456 171
3 191 446 190
3 446 454 190
3 191 456 446
3 450 451 445
3 445 455 450
3 451 453 445
3 446 452 449
3 449 454 446
3 446 456 452
3 448 451 447
3 447 452 448
3 449 452 447
3 447 451 450
3 37 457 40
3 131 457 37
3 41 459 38
3 38 459 129
3 40 457 147
3 145 459 41
3 129 460 130
3 129 459 145
3 145 460 129
3 130 458 131
3 146 458 130
3 130 460 146
3 147 457 131
3 131 458 147
3 146 460 145
3 147 458 146
3 54 180 185
3 184 181 55
3 185 180 181
3 185 181 184
3 56 188 193
3 192 189 57
3 193 188 189
3 193 189 192
3 194 195 58
3 195 194 59
3 194 58 461
3 58 196 461
3 59 194 462
3 198 59 462
3 196 60 461
3 60 197 461
3 197 61 462
3 61 198 462
3 197 194 461
3 194 197 462
3 195 465 58
3 58 465 196
3 59 468 195
3 198 468 59
3 60 463 62
3 196 463 60
3 65 464 61
3 61 464 198
3 62 463 199
3 199 467 63
3 63 467 200
3 200 466 64
3 64 466 201
3 201 464 65
3 195 468 465
3 196 465 463
3 464 468 198
3 463 467 199
3 200 467 466
3 201 466 464
3 465 466 463
3 466 467 463
3 464 466 465
3 465 468 464
3 60 62 470
3 197 60 470
3 65 61 469
3 61 197 469
3 62 202 470
3 202 65 469
3 197 202 469
3 202 197 470
3 62 199 472
3 202 62 472
3 199 63 472
3 63 203 472
3 64 201 471
3 203 64 471
3 201 65 471
3 65 202 471
3 202 203 471
3 203 202 472
3 200 203 63
3 203 200 64
3 204 205 66
3 205 204 67
3 204 66 474
3 66 206 474
3 67 204 473
3 208 67 473
3 206 68 474
3 68 207 474
3 207 69 473
3 69 208 473
3 204 207 473
3 207 204 474
3 205 477 66
3 66 477 206
3 67 479 205
3 208 479 67
3 68 475 70
3 206 475 68
3 73 476 69
3 69 476 208
3 70 475 209
3 209 478 71
3 71 478 210
3 210 211 72
3 211 476 73
3 205 479 477
3 206 477 475
3 476 479 208
3 475 478 209
3 210 476 211
3 210 478 476
3 477 478 475
3 478 479 476
3 477 479 478
3 68 70 481
3 207 68 481
3 73 69 480
3 69 207 480
3 70 212 481
3 212 73 480
3 207 212 480
3 212 207 481
3 70 209 483
3 212 70 483
3 209 71 483
3 71 213 483
3 72 211 482
3 213 72 482
3 211 73 482
3 73 212 482
3 212 213 482
3 213 212 483
3 210 213 71
3 213 210 72
4 357 485 490 498
4 193 213 483 498
4 486 493 239 495
4 357 490 242 498
4 375 386 343 505
4 248 375 343 505
4 357 485 377 490
4 273 490 243 491
4 345 242 357 490
4 238 488 235 493
4 377 345 357 490
4 294 305 273 491
4 289 310 278 506
4 225 258 264 491
4 384 343 386 505
4 289 505 310 506
4 379 366 490 491
4 450 490 293 491
4 379 366 345 490
4 344 493 378 495
4 205 204 66 492
4 225 264 382 491
4 442 193 483 274
4 236 239 493 495
4 375 248 500 505
4 305 490 273 491
4 239 486 301 493
4 278 306 484 489
4 235 488 374 493
4 278 484 403 489
4 384 489 343 505
4 273 311 290 490
4 235 488 238 504
4 417 402 409 484
4 310 489 278 506
4 290 490 311 498
4 135 453 137 502
4 237 484 270 489
4 306 270 484 489
4 449 485 291 490
4 310 505 489 506
4 234 242 490 498
4 289 487 505 506
4 366 226 490 491
4 322 136 327 491
4 359 349 448 490
4 258 329 233 491
4 136 346 327 491
4 366 226 345 490
4 384 505 386 506
4 417 409 296 484
4 278 306 287 484
4 380 350 484 506
4 403 489 484 506
4 346 135 326 502
4 242 345 226 490
4 433 422 298 488
4 274 483 442 269
4 273 290 234 490
4 346 326 491 502
4 380 484 489 506
4 329 127 491 502
4 290 234 490 498
4 344 378 358 495
4 484 497 270 501
4 278 287 403 484
4 357 494 485 498
4 344 236 493 495
4 293 490 305 491
4 433 423 422 488
4 374 488 235 504
4 350 407 484 506
4 377 485 349 490
4 453 451 445 502
4 384 489 505 506
4 240 238 235 493
4 421 423 434 496
4 424 431 439 486
4 365 379 490 491
4 416 410 402 503
4 386 505 487 506
4 193 485 213 498
4 346 381 135 502
4 273 234 243 490
4 346 326 327 491
4 451 365 490 491
4 343 244 248 505
4 322 327 326 491
4 236 239 224 493
4 127 275 309 491
4 399 397 395 487
4 395 398 400 487
4 274 442 193 443
4 193 483 274 498
4 399 351 397 487
4 135 381 453 502
4 400 398 279 487
4 239 492 486 495
4 350 407 360 484
4 380 350 360 484
4 484 489 237 497
4 311 291 485 490
4 292 270 306 489
4 346 136 382 491
4 432 438 372 507
4 413 402 417 484
4 275 491 127 502
4 66 218 205 492
4 423 488 434 496
4 451 490 450 491
4 366 241 226 491
4 346 135 327 326
4 270 484 237 497
4 350 404 407 506
4 329 225 258 233
4 410 484 402 503
4 231 364 342 489
4 300 488 238 493
4 432 372 486 507
4 315 320 5 139
4 8 132 337 316
4 443 302 454 485
4 422 423 418 488
4 364 380 342 489
4 362 370 411 487
4 359 377 349 490
4 427 486 348 493
4 450 491 293 502
4 395 487 397 500
4 395 398 487 500
4 400 412 401 487
4 311 490 485 498
4 424 439 435 486
4 324 135 137 502
4 231 489 342 497
4 346 491 381 502
4 452 349 485 490
4 351 386 375 500
4 279 303 313 500
4 240 235 374 493
4 402 413 416 503
4 397 487 351 500
4 279 487 398 500
4 443 454 446 485
4 287 405 403 484
4 406 487 289 506
4 378 493 486 495
4 400 401 396 487
4 401 399 396 487
4 357 242 494 498
4 409 287 296 484
4 380 342 489 497
4 238 224 272 493
4 298 488 422 499
4 226 234 242 490
4 322 326 329 491
4 403 484 407 506
4 427 432 372 486
4 359 365 379 490
4 205 204 492 495
4 359 451 365 490
4 400 297 412 487
4 329 491 326 502
4 403 289 278 506
4 449 452 485 490
4 280 447 291 490
4 421 418 423 496
4 411 399 401 487
4 293 280 305 490
4 280 291 311 490
4 416 373 410 503
4 343 384 364 489
4 193 213 485 494
4 426 288 277 493
4 402 484 413 503
4 449 291 447 490
4 373 484 410 503
4 399 370 351 487
4 448 349 452 490
4 279 297 400 487
4 293 447 280 490
4 238 272 300 493
4 211 367 72 482
4 270 497 237 501
4 428 347 488 493
4 244 343 489 505
4 296 417 484 501
4 303 313 500 505
4 430 488 276 493
4 344 236 240 493
4 450 447 293 490
4 344 358 236 495
4 431 295 439 486
4 381 346 365 491
4 444 446 456 485
4 246 231 342 497
4 359 448 451 490
4 456 349 368 485
4 454 302 449 485
4 426 430 288 493
4 411 370 399 487
4 241 264 258 491
4 193 274 443 485
4 433 298 276 488
4 338 64 201 471
4 418 488 423 496
4 409 405 287 484
4 427 429 486 493
4 238 488 499 504
4 428 488 430 493
4 226 243 234 490
4 409 402 405 484
4 377 357 387 485
4 404 403 407 506
4 360 410 373 484
4 200 63 203 504
4 429 426 277 493
4 403 278 489 506
4 241 382 264 491
4 306 484 270 501
4 430 276 288 493
4 451 491 450 502
4 193 443 440 485
4 368 444 456 485
4 323 127 329 502
4 198 59 339 462
4 351 487 386 500
4 279 313 487 500
4 412 297 406 487
4 417 413 484 501
4 429 277 486 493
4 427 424 432 486
4 440 443 446 485
4 71 483 213 498
4 224 238 240 493
4 406 289 403 506
4 137 328 324 502
4 205 218 259 492
4 208 67 340 473
4 380 489 484 497
4 262 303 314 500
4 313 310 289 505
4 205 492 259 495
4 344 240 374 493
4 444 440 446 485
4 193 274 485 498
4 275 293 491 502
4 371 434 488 496
4 72 210 213 494
4 313 289 487 505
4 451 450 445 502
4 399 395 396 487
4 400 396 395 487
4 418 422 488 499
4 236 224 240 493
4 371 421 434 496
4 201 55 338 471
4 362 411 408 487
4 434 423 428 488
4 435 486 439 492
4 346 327 135 136
4 412 406 401 487
4 377 387 349 485
4 387 485 357 494
4 348 486 378 493
4 487 500 313 505
4 274 302 443 485
4 324 326 135 502
4 297 289 406 487
4 237 489 231 497
4 371 434 428 488
4 449 302 291 485
4 474 206 66 266
4 472 63 199 267
4 9 136 316 333
4 127 4 315 331
4 405 407 403 484
4 276 488 300 493
4 275 293 305 491
4 439 486 295 492
4 279 314 303 500
4 388 351 375 500
4 382 241 366 491
4 428 425 347 493
4 370 386 351 487
4 427 372 348 486
4 279 313 297 487
4 246 237 231 497
4 449 447 452 490
4 241 232 226 491
4 472 199 54 267
4 348 378 361 493
4 210 72 220 494
4 292 271 223 505
4 365 346 379 491
4 58 216 257 501
4 425 361 347 493
4 239 259 492 495
4 453 445 137 502
4 239 259 218 492
4 211 57 367 482
4 454 449 446 485
4 198 339 55 462
4 277 295 431 486
4 427 425 429 493
4 370 362 386 487
4 297 313 289 487
4 428 430 425 493
4 451 447 450 490
4 409 402 417 178
4 183 434 421 423
4 187 438 432 424
4 454 446 190 443
4 461 196 58 268
4 206 474 56 266
4 276 300 288 493
4 452 349 456 485
4 210 213 494 498
4 208 340 57 473
4 378 486 348 495
4 233 232 258 491
4 341 367 57 482
4 296 484 287 501
4 277 301 486 493
4 174 314 279 500
4 175 351 388 500
4 281 270 216 501
4 292 98 223 271
4 193 485 440 494
4 278 310 306 489
4 262 314 392 500
4 235 240 374 344
4 391 388 263 500
4 391 175 388 500
4 392 314 174 500
4 233 309 232 491
4 402 179 410 416
4 422 433 182 423
4 431 186 424 439
4 275 307 293 502
4 472 54 419 267
4 323 329 326 502
4 444 485 368 494
4 191 456 444 446
4 312 414 461 268
4 306 270 299 501
4 275 305 294 491
4 433 430 423 488
4 309 294 232 491
4 309 275 294 491
4 420 55 471 376
4 247 303 500 505
4 311 485 274 498
4 311 291 274 485
4 361 348 427 164
4 386 487 362 506
4 298 276 488 499
4 426 429 425 493
4 276 430 433 488
4 357 345 83 242
4 425 430 426 493
4 200 467 63 253
4 408 411 401 487
4 174 398 279 314
4 397 388 175 351
4 380 384 350 506
4 291 302 274 485
4 379 346 366 491
4 407 410 360 484
4 382 366 346 491
4 452 447 448 490
4 424 429 431 486
4 380 489 384 506
4 175 397 351 500
4 279 398 174 500
4 292 489 310 505
4 377 379 345 490
4 407 402 410 484
4 247 303 262 500
4 242 260 494 498
4 359 170 448 349
4 277 431 429 486
4 199 63 253 108
4 358 378 348 495
4 216 270 237 501
4 304 474 56 436
4 66 206 0 105
4 448 447 451 490
4 461 414 54 268
4 275 127 128 502
4 245 489 292 505
4 362 487 408 506
4 348 486 372 507
4 446 190 443 440
4 444 191 446 440
4 417 402 413 178
4 187 438 424 435
4 418 183 421 423
4 439 186 424 435
4 402 179 416 413
4 182 418 422 423
4 237 257 216 501
4 328 326 324 502
4 228 63 200 504
4 245 292 223 505
4 277 288 301 493
4 202 184 203 185
4 212 192 213 193
4 307 450 293 502
4 349 387 368 485
4 54 196 461 268
4 247 500 248 505
4 338 64 471 496
4 292 245 97 270
4 281 216 58 501
4 374 488 347 493
4 379 377 359 490
4 305 311 273 490
4 242 260 220 494
4 440 485 444 494
4 441 341 57 482
4 310 292 306 489
4 55 338 471 376
4 245 231 237 489
4 67 340 473 507
4 323 128 127 502
4 354 374 235 504
4 369 348 486 495
4 457 40 147 332
4 373 363 484 503
4 237 497 257 501
4 280 291 447 124
4 472 267 419 499
4 41 330 459 145
4 347 371 428 488
4 293 280 447 125
4 415 462 55 383
4 455 128 36 138
4 455 128 138 502
4 76 273 243 294
4 427 425 361 164
4 303 271 247 99
4 296 287 299 501
4 411 370 362 156
4 380 364 384 489
4 369 495 486 507
4 92 375 343 248
4 446 452 456 485
4 484 501 413 503
4 430 426 288 118
4 312 461 414 501
4 271 223 247 99
4 403 113 287 278
4 453 137 39 135
4 348 369 486 507
4 210 494 260 498
4 340 355 369 67
4 417 312 414 501
4 360 373 363 484
4 59 339 462 503
4 292 310 271 505
4 238 499 228 504
4 337 148 7 333
4 462 339 55 383
4 320 331 6 142
4 228 499 63 504
4 289 112 403 278
4 444 341 441 494
4 91 343 364 231
4 304 56 474 266
4 144 40 317 332
4 354 488 374 504
4 348 372 369 507
4 63 499 203 504
4 305 280 311 490
4 71 209 483 269
4 380 484 363 497
4 210 220 260 494
4 488 496 418 499
4 334 330 41 150
4 304 474 436 492
4 245 244 489 505
4 447 450 293 125
4 420 376 471 496
4 486 492 435 507
4 98 223 245 292
4 447 291 449 124
4 63 284 267 499
4 261 238 228 504
4 271 303 247 505
4 171 368 456 349
4 241 258 232 491
4 213 485 494 498
4 240 235 87 344
4 352 339 59 363
4 135 324 327 326
4 242 345 83 226
4 307 455 450 502
4 374 87 235 344
4 21 27 214 394
4 247 223 271 505
4 288 272 301 493
4 347 425 163 361
4 384 386 362 506
4 203 185 496 499
4 405 403 113 287
4 300 272 288 493
4 408 401 406 487
4 328 460 145 146
4 203 185 184 496
4 436 439 304 492
4 204 205 67 495
4 112 403 406 289
4 406 408 487 506
4 461 312 268 501
4 90 364 342 231
4 474 266 66 492
4 366 82 345 226
4 341 482 441 494
4 324 150 335 149
4 374 347 361 493
4 369 358 348 495
4 441 482 192 494
4 288 276 430 118
4 66 266 282 492
4 296 312 417 501
4 230 71 209 251
4 444 441 192 494
4 321 458 146 147
4 226 366 82 241
4 363 380 360 484
4 163 428 425 347
4 225 9 382 264
4 9 136 333 225
4 244 247 248 505
4 245 223 244 505
4 170 452 448 349
4 136 333 225 322
4 231 342 90 246
4 405 402 407 484
4 20 196 214 109
4 130 458 138 131
4 137 129 460 130
4 180 194 197 503
4 424 427 429 486
4 64 14 152 201
4 381 168 453 365
4 443 274 442 122
4 444 368 341 494
4 162 434 428 371
4 423 430 428 488
4 296 409 114 287
4 462 194 59 503
4 344 374 378 493
4 482 213 192 494
4 245 237 97 270
4 59 194 195 497
4 368 485 387 494
4 369 340 67 507
4 351 397 155 399
4 400 110 279 398
4 192 440 444 494
4 338 471 376 496
4 415 462 383 503
4 188 436 474 492
4 472 63 267 499
4 355 369 67 495
4 380 363 342 497
4 395 174 398 500
4 175 395 397 500
4 461 268 58 501
4 433 276 298 117
4 298 422 308 499
4 290 311 274 498
4 417 414 180 501
4 446 449 452 485
4 231 245 244 489
4 59 363 339 503
4 343 91 244 231
4 277 295 486 492
4 419 422 185 499
4 277 426 119 288
4 180 501 194 503
4 393 222 262 500
4 137 138 328 502
4 93 388 375 263
4 371 488 347 496
4 276 300 488 499
4 455 307 128 502
4 136 9 382 225
4 393 263 222 500
4 238 285 228 499
4 319 323 142 143
4 39 453 135 381
4 244 92 343 248
4 214 196 60 109
4 66 206 105 266
4 185 472 419 499
4 436 188 439 492
4 352 363 59 497
4 188 492 204 507
4 243 232 76 294
4 474 204 188 492
4 111 406 412 297
4 144 318 143 325
4 473 204 67 507
4 445 138 137 502
4 339 383 462 503
4 445 450 455 502
4 235 217 88 504
4 262 314 303 100
4 199 63 108 267
4 227 89 352 497
4 417 180 413 501
4 204 207 188 507
4 414 461 180 501
4 257 59 195 497
4 36 307 128 455
4 408 411 362 156
4 149 336 327 148
4 418 185 422 499
4 155 370 351 399
4 400 110 297 279
4 255 463 466 467
4 167 444 341 441
4 71 213 210 498
4 410 159 360 373
4 26 22 214 394
4 454 123 449 302
4 252 0 206 105
4 233 329 331 127
4 304 266 474 492
4 281 96 216 270
4 420 471 184 496
4 227 246 89 497
4 201 64 14 255
4 64 152 338 201
4 271 313 303 505
4 135 137 39 324
4 277 486 301 492
4 435 439 188 492
4 356 357 84 242
4 71 210 260 498
4 185 418 496 499
4 340 151 67 208
4 356 220 72 494
4 218 283 239 492
4 274 443 302 122
4 140 127 139 319
4 136 336 133 132
4 184 55 471 420
4 192 441 57 482
4 181 462 55 415
4 57 437 189 473
4 352 59 227 497
4 405 114 409 287
4 61 198 55 462
4 185 203 472 499
4 277 120 431 295
4 406 111 289 297
4 127 4 331 233
4 325 138 128 502
4 119 429 426 277
4 281 58 268 501
4 483 56 442 269
4 298 308 276 499
4 452 171 456 349
4 419 308 422 499
4 137 330 39 324
4 413 501 180 503
4 201 65 55 471
4 220 356 84 242
4 59 497 363 503
4 356 72 367 494
4 358 86 344 236
4 188 435 492 507
4 383 416 415 503
4 363 497 484 503
4 378 374 361 493
4 131 36 37 457
4 39 38 459 129
4 235 238 261 504
4 347 488 354 496
4 415 181 462 503
4 194 180 461 501
4 67 495 369 507
4 354 496 488 504
4 420 421 376 496
4 239 301 102 272
4 281 299 270 501
4 217 64 353 504
4 228 200 261 504
4 393 392 262 94
4 391 263 95 393
4 483 56 193 442
4 185 54 419 472
4 180 414 54 461
4 188 56 474 436
4 464 465 256 468
4 221 17 154 198
4 79 225 329 233
4 140 318 141 128
4 335 134 135 133
4 44 16 221 390
4 334 41 330 459
4 63 228 200 253
4 437 189 473 507
4 418 184 185 496
4 438 437 385 507
4 151 13 67 208
4 439 295 304 492
4 108 63 23 284
4 56 474 206 68
4 204 474 66 492
4 102 224 239 272
4 217 200 64 504
4 342 352 89 497
4 42 12 219 389
4 13 250 67 208
4 223 247 244 505
4 257 59 256 195
4 248 93 375 263
4 184 203 471 202
4 212 192 482 213
4 431 429 120 277
4 259 239 236 495
4 4 127 309 233
4 168 451 453 365
4 15 43 221 390
4 276 433 430 117
4 54 62 199 472
4 362 157 350 506
4 321 328 138 502
4 444 368 167 341
4 59 468 256 195
4 0 206 66 252
4 416 383 415 160
4 342 89 246 497
4 471 203 184 496
4 291 449 123 302
4 334 38 39 134
4 37 36 141 317
4 69 208 57 473
4 66 477 205 252
4 439 436 304 121
4 420 376 421 161
4 392 28 174 314
4 391 45 388 175
4 385 372 438 507
4 325 128 323 502
4 190 446 191 440
4 482 72 213 494
4 232 233 77 309
4 402 179 413 178
4 186 187 424 435
4 182 183 418 423
4 174 28 398 314
4 45 388 175 397
4 389 173 53 73
4 389 42 173 69
4 153 43 390 65
4 153 390 44 61
4 203 202 185 472
4 483 212 213 193
4 188 204 474 207
4 194 180 197 461
4 237 216 96 270
4 255 64 217 200
4 25 2 215 265
4 355 229 85 495
4 247 222 248 500
4 72 172 367 211
4 294 232 77 309
4 238 300 272 103
4 196 60 54 461
4 404 350 157 506
4 282 66 0 105
4 355 67 229 495
4 79 225 322 329
4 221 152 14 201
4 371 428 162 347
4 406 403 408 506
4 180 197 181 503
4 64 338 353 354
4 313 271 310 505
4 257 227 59 497
4 206 68 252 105
4 86 240 344 236
4 138 321 325 332
4 248 222 263 500
4 88 87 235 354
4 416 383 373 503
4 58 257 254 195
4 152 221 65 201
4 374 354 347 488
4 181 413 180 503
4 247 262 303 100
4 325 323 326 502
4 225 333 9 80
4 340 151 355 67
4 233 78 4 331
4 360 407 159 410
4 321 138 325 502
4 262 222 247 500
4 438 372 50 432
4 94 262 393 222
4 52 368 444 456
4 1 24 215 265
4 393 263 95 222
4 358 355 85 495
4 283 218 239 101
4 253 63 23 108
4 29 412 400 297
4 30 296 417 409
4 63 472 203 499
4 218 283 282 101
4 290 286 74 498
4 422 298 32 433
4 230 74 286 498
4 47 410 416 373
4 234 260 242 498
4 399 46 370 411
4 205 66 252 218
4 101 239 283 102
4 235 88 354 504
4 35 454 443 302
4 209 3 251 215
4 276 285 300 499
4 67 250 229 205
4 338 354 64 496
4 194 497 59 503
4 241 382 81 264
4 317 40 457 332
4 151 219 208 69
4 215 70 209 107
4 72 249 172 211
4 11 53 219 389
4 260 230 71 498
4 354 87 235 374
4 312 31 115 414
4 329 78 233 331
4 201 14 221 255
4 437 51 166 385
4 154 221 198 61
4 160 416 383 373
4 188 189 435 507
4 128 307 275 502
4 48 160 415 383
4 189 188 207 507
4 419 267 308 499
4 271 98 223 99
4 321 326 328 502
4 255 467 200 253
4 371 347 354 496
4 450 455 307 126
4 230 209 3 251
4 204 495 67 507
4 300 238 285 103
4 286 71 230 498
4 64 354 353 504
4 194 461 58 501
4 255 463 465 466
4 13 151 219 208
4 115 417 312 414
4 492 495 204 507
4 174 395 175 500
4 308 116 31 419
4 362 350 384 506
4 421 434 49 371
4 362 408 157 506
4 43 338 152 201
4 224 238 272 103
4 376 420 48 161
4 436 34 304 121
4 439 431 33 295
4 353 88 217 354
4 421 371 376 496
4 63 108 267 284
4 65 43 152 201
4 320 4 331 315
4 411 399 46 177
4 283 277 301 492
4 152 353 14 64
4 366 382 81 241
4 352 342 363 497
4 301 283 239 102
4 408 403 404 506
4 437 166 438 385
4 368 387 341 494
4 316 337 9 333
4 367 356 172 72
4 256 227 59 257
4 194 501 497 503
4 51 167 341 441
4 412 176 29 400
4 238 228 285 104
4 261 200 217 504
4 220 249 72 210
4 479 477 478 251
4 250 13 219 208
4 217 353 354 504
4 442 274 269 122
4 341 356 367 494
4 62 199 253 108
4 217 354 88 504
4 135 150 134 335
4 80 225 333 322
4 276 308 285 499
4 355 151 13 67
4 85 229 236 495
4 299 312 296 501
4 475 478 477 251
4 57 211 73 482
4 234 290 74 498
4 203 499 496 504
4 91 92 343 244
4 254 20 196 214
4 184 421 420 496
4 209 3 215 107
4 211 210 72 249
4 172 356 10 72
4 234 74 230 498
4 252 475 477 251
4 254 257 256 195
4 250 205 252 218
4 409 30 296 114
4 385 369 372 507
4 85 236 358 495
4 455 138 445 502
4 205 250 259 218
4 450 307 293 126
4 284 285 228 104
4 267 284 285 499
4 255 256 466 465
4 357 356 387 494
4 64 496 354 504
4 217 261 255 200
4 269 209 25 107
4 330 137 328 324
4 246 257 237 497
4 286 290 274 498
4 296 115 417 312
4 308 422 116 419
4 444 52 456 191
4 369 385 340 507
4 295 439 304 121
4 371 421 376 161
4 277 283 295 492
4 404 157 408 506
4 217 14 64 255
4 410 179 47 416
4 32 422 433 182
4 105 282 66 266
4 152 338 353 64
4 415 416 181 503
4 33 186 431 439
4 166 372 438 385
4 454 190 35 443
4 221 17 198 256
4 409 417 30 178
4 432 50 438 187
4 228 255 200 253
4 49 183 434 421
4 438 189 437 507
4 410 47 159 373
4 200 261 255 228
4 28 279 398 314
4 45 388 397 351
4 251 70 209 215
4 157 350 404 158
4 477 479 250 251
4 250 205 477 252
4 199 62 54 267
4 426 119 288 118
4 112 113 403 278
4 468 256 195 465
4 393 174 175 500
4 357 83 84 242
4 184 418 421 496
4 165 427 348 164
4 463 255 465 254
4 355 358 369 495
4 326 321 325 502
4 372 50 432 165
4 496 499 488 504
4 156 362 408 157
4 250 259 229 205
4 465 464 256 466
4 208 219 250 69
4 117 430 276 118
4 196 60 254 214
4 477 250 252 251
4 52 368 456 171
4 452 170 171 349
4 116 298 422 308
4 412 29 111 297
4 434 162 49 371
4 406 111 112 289
4 68 206 56 266
4 55 339 198 61
4 281 268 299 501
4 100 303 247 99
4 416 413 181 503
4 155 46 370 399
4 110 29 400 297
4 169 170 448 359
4 475 70 251 215
4 431 120 33 295
4 263 18 388 391
4 249 172 10 72
4 19 392 262 314
4 125 280 447 124
4 358 85 86 236
4 285 238 104 103
4 251 252 475 215
4 154 17 352 227
4 411 46 370 156
4 256 255 254 465
4 77 233 4 309
4 211 210 249 476
4 368 167 52 444
4 189 438 435 507
4 221 65 201 255
4 57 340 208 69
4 89 90 342 246
4 257 246 227 497
4 419 54 31 267
4 351 397 45 155
4 279 110 28 398
4 97 98 245 292
4 476 479 478 251
4 79 329 78 233
4 327 336 133 136
4 140 323 127 319
4 269 34 442 122
4 63 228 23 284
4 36 307 455 126
4 25 209 70 107
4 76 243 273 75
4 475 70 209 251
4 451 168 169 365
4 497 501 484 503
4 475 209 478 251
4 428 163 162 347
4 54 60 196 268
4 425 163 361 164
4 77 76 232 294
4 363 373 383 503
4 453 39 168 381
4 318 144 141 325
4 479 476 250 251
4 356 341 387 494
4 6 4 331 320
4 336 133 149 327
4 388 93 18 263
4 254 257 58 216
4 486 495 492 507
4 319 140 323 143
4 81 382 9 264
4 337 7 9 333
4 32 116 298 422
4 252 475 206 477
4 283 282 266 492
4 433 298 32 117
4 220 249 210 251
4 260 220 210 251
4 293 450 126 125
4 135 324 150 335
4 250 229 13 67
4 360 407 158 159
4 130 137 138 146
4 366 81 82 241
4 354 376 371 496
4 218 66 0 282
4 211 367 57 73
4 237 96 97 270
4 229 259 236 495
4 50 166 372 438
4 405 113 114 287
4 284 228 23 104
4 476 249 250 251
4 314 262 19 100
4 338 376 354 496
4 64 353 14 217
4 137 328 138 146
4 30 296 115 417
4 401 396 177 176
4 160 47 416 373
4 454 35 123 302
4 252 66 0 218
4 345 82 83 226
4 63 23 228 253
4 119 120 429 277
4 375 92 93 248
4 94 393 95 222
4 109 20 216 281
4 217 235 261 504
4 291 449 124 123
4 479 250 205 477
4 339 363 383 503
4 33 439 295 121
4 49 421 371 161
4 304 295 283 492
4 74 290 234 75
4 128 141 36 332
4 250 249 476 69
4 201 65 464 255
4 282 0 218 101
4 22 26 214 108
4 31 308 419 267
4 64 200 203 504
4 62 26 54 267
4 70 209 25 269
4 312 299 268 501
4 214 26 62 108
4 302 443 35 122
4 334 330 39 459
4 392 19 28 314
4 388 18 45 391
4 220 10 356 72
4 128 318 141 325
4 476 208 479 250
4 90 91 364 231
4 234 230 260 498
4 229 355 13 67
4 249 476 210 251
4 263 95 18 391
4 62 253 214 108
4 262 392 19 94
4 221 198 61 256
4 43 15 221 152
4 389 219 42 69
4 478 210 476 251
4 10 220 249 72
4 221 44 390 61
4 27 21 214 109
4 214 60 27 109
4 467 466 255 200
4 315 331 320 142
4 148 337 316 333
4 195 256 254 465
4 476 208 250 69
4 249 250 219 69
4 221 390 43 65
4 215 252 68 105
4 328 321 138 146
4 138 131 147 332
4 141 128 325 332
4 79 225 80 322
4 137 460 145 328
4 333 7 9 80
4 144 141 325 332
4 89 352 17 227
4 189 192 57 480
4 181 55 469 184
4 481 56 188 193
4 185 180 54 470
4 353 88 14 217
4 65 221 464 255
4 317 457 36 332
4 221 43 152 65
4 458 138 321 146
4 78 6 4 331
4 256 464 221 255
4 333 136 327 322
4 16 44 221 154
4 53 219 389 73
4 214 253 23 108
4 267 285 308 499
4 328 137 460 146
4 356 84 10 220
4 135 324 335 149
4 68 56 24 266
4 0 252 215 105
4 24 1 215 105
4 53 367 172 73
4 215 68 24 105
4 330 129 145 137
4 475 252 206 68
4 466 201 464 255
4 283 266 304 492
4 211 249 172 73
4 329 331 127 323
4 256 466 464 255
4 240 87 86 344
4 340 57 42 69
4 460 145 129 137
4 131 458 138 147
4 321 138 458 147
4 131 138 36 332
4 195 254 58 465
4 211 172 367 73
4 66 206 477 252
4 252 68 475 215
4 138 458 130 146
4 130 460 137 146
4 140 127 323 128
4 221 154 44 61
4 367 53 57 73
4 327 133 135 136
4 339 55 44 61
4 367 57 51 341
4 63 467 199 253
4 463 199 467 253
4 219 151 42 69
4 12 42 219 151
4 129 330 39 137
4 13 85 355 229
4 214 21 20 109
4 60 54 27 268
4 321 138 147 332
4 68 70 215 106
4 135 149 133 327
4 143 140 323 128
4 286 230 3 74
4 25 70 215 107
4 137 145 330 328
4 2 25 215 107
4 468 198 59 256
4 96 216 20 281
4 463 254 60 214
4 341 57 51 441
4 254 463 253 214
4 73 476 249 69
4 70 25 56 269
4 253 463 62 214
4 53 172 219 73
4 457 147 36 332
4 142 127 323 319
4 60 62 463 214
4 464 198 468 256
4 136 327 336 148
4 53 11 219 172
4 68 70 475 215
4 478 209 71 251
4 135 324 149 327
4 317 36 144 332
4 56 34 304 436
4 48 55 420 376
4 459 330 39 145
4 129 459 39 145
4 36 131 147 457
4 128 143 318 325
4 249 219 172 73
4 51 57 340 385
4 188 212 189 207
4 197 184 202 185
4 139 315 320 142
4 337 132 148 316
4 36 144 141 317
4 214 23 22 108
4 334 39 330 150
4 150 334 39 134
4 70 56 25 106
4 68 24 56 106
4 44 55 153 61
4 42 57 173 69
4 173 57 53 73
4 153 55 43 65
4 304 34 56 266
4 55 48 338 376
4 154 16 17 221
4 57 51 437 385
4 323 143 128 325
4 5 4 320 315
4 337 9 8 316
4 37 40 457 317
4 136 148 316 333
4 315 331 142 127
4 466 64 201 255
4 189 193 212 188
4 193 189 212 192
4 181 184 197 185
4 180 181 197 185
4 250 67 479 205
4 272 102 224 103
4 334 38 41 459
4 27 26 54 60
4 334 39 38 459
4 457 36 37 317
4 249 219 73 69
4 70 68 481 56
4 55 65 61 469
4 69 57 73 480
4 210 478 71 251
4 26 31 54 267
4 255 466 64 200
4 215 1 0 105
4 219 172 10 249
4 60 54 470 62
4 208 250 67 479
4 14 15 152 221
4 136 148 132 316
4 142 139 315 127
4 70 68 56 106
4 73 173 57 69
4 65 153 55 61
4 61 464 221 256
4 62 199 463 253
4 151 12 13 219
4 185 202 197 470
4 189 212 480 207
4 188 481 212 207
4 197 184 469 202
4 150 39 330 134
4 127 331 142 323
4 141 144 36 332
4 148 136 327 333
4 129 39 330 145
4 147 131 36 332
4 8 7 9 337
4 4 6 5 320
4 465 254 58 196
4 61 198 464 256
4 197 180 185 470
4 189 212 192 480
4 184 197 469 181
4 188 212 481 193
4 140 143 318 128
4 60 26 54 62
4 149 335 135 133
4 56 34 442 269
4 465 254 196 463
4 65 464 221 61
4 15 16 390 221
4 127 142 139 319
4 336 136 148 132
4 3 2 215 107
4 24 56 34 266
4 55 48 43 338
4 172 10 11 219
4 196 254 60 463
4 415 55 48 383
4 339 48 55 383
4 22 21 214 394
4 211 476 249 73
4 219 12 11 389
4 51 57 42 340
4 1 2 265 215
4 27 54 31 268
4 53 57 51 367
4 44 48 55 339
4 34 56 25 269
4 25 56 34 106
4 24 34 56 106
4 55 43 48 153
4 55 48 44 153
4 51 42 57 173
4 51 57 53 173
4 26 54 31 27
4 491 225 329 322
4 491 329 225 258
4 491 243 226 490
4 491 226 243 232
4 399 401 177 411
4 177 401 399 396
4 435 507 424 486
4 435 424 507 438
4 432 424 507 486
4 432 507 424 438
4 401 400 176 412
4 176 400 401 396
4 243 294 491 232
4 491 294 243 273
4 500 386 505 487
4 500 505 386 375
4 257 58 497 195
4 257 497 58 501
4 194 497 58 195
4 194 58 497 501
4 239 272 493 301
4 493 272 239 224
4 494 193 192 440
4 494 192 193 213
4 359 451 169 365
4 359 169 451 448
4 274 286 71 269
4 71 286 274 498
4 71 483 274 269
4 274 483 71 498
4 427 361 493 348
4 427 493 361 425
4 407 350 158 404
4 407 158 350 360
4 225 136 491 382
4 491 136 225 322
4 233 127 491 329
4 491 127 233 309
4 231 343 489 244
4 231 489 343 364
4 501 306 287 299
4 501 287 306 484
4 301 492 239 283
4 239 492 301 486
4 234 273 75 290
4 75 273 234 243
4 499 300 238 285
4 499 238 300 488
4 372 427 165 432
4 165 427 372 348
4 245 270 489 237
4 489 270 245 292
4 392 500 393 262
4 393 500 392 174
4 500 391 393 263
4 500 393 391 175
4 375 263 500 248
4 500 263 375 388
4 356 242 494 357
4 494 242 356 220
4 107 286 230 3
4 230 209 107 3
4 365 491 502 381
4 502 491 365 451
4 502 453 365 381
4 365 453 502 451
4 499 284 228 63
4 499 228 284 285
4 367 494 482 341
4 482 494 367 72
4 229 205 495 67
4 495 205 229 259
4 463 255 253 467
4 463 253 255 254
4 256 227 198 59
4 256 198 227 17
4 154 227 198 17
4 492 282 218 283
4 492 218 282 66
4 71 260 251 230
4 251 260 71 210
4 268 414 31 312
4 268 31 414 54
4 203 64 496 471
4 496 64 203 504
4 503 197 462 194
4 503 462 197 181
4 62 267 108 26
4 108 267 62 199
4 109 196 216 20
4 254 196 216 58
4 254 216 196 20
4 507 385 473 437
4 507 473 385 340
4 57 473 385 437
4 57 385 473 340
4 61 390 65 153
4 61 65 390 221
4 69 389 73 173
4 69 73 389 219
4 106 215 25 70
4 106 25 215 265
4 106 215 24 265
4 106 24 215 68
4 324 150 134 135
4 134 150 324 330
4 134 39 324 135
4 324 39 134 330
4 214 26 60 62
4 207 507 473 189
4 473 507 207 204
4 339 61 154 198
4 154 61 339 44
4 340 69 151 208
4 151 69 340 42
4 269 70 483 56
4 269 483 70 209
4 266 68 105 24
4 266 105 68 206
4 43 201 55 338
4 55 201 43 65
4 60 268 109 196
4 109 268 60 27
4 128 332 138 325
4 138 332 128 36
4 54 62 185 470
4 54 185 62 472
4 202 185 62 470
4 202 62 185 472
4 197 61 181 462
4 197 181 61 469
4 55 181 61 462
4 55 61 181 469
4 202 65 184 469
4 202 184 65 471
4 55 184 65 469
4 55 65 184 471
4 197 60 180 470
4 197 180 60 461
4 54 180 60 470
4 54 60 180 461
4 207 69 189 473
4 207 189 69 480
4 57 189 69 473
4 57 69 189 480
4 212 73 192 480
4 212 192 73 482
4 57 192 73 480
4 57 73 192 482
4 56 70 193 481
4 56 193 70 483
4 212 193 70 481
4 212 70 193 483
4 56 68 188 474
4 56 188 68 481
4 207 188 68 474
4 207 68 188 481
4 27 214 26 60
4 27 26 214 394
4 230 209 286 107
4 230 286 209 71
4 269 286 209 107
4 269 209 286 71
4 227 198 352 154
4 227 352 198 59
4 339 352 198 154
4 339 198 352 59
4 268 196 281 109
4 268 281 196 58
4 216 281 196 109
4 216 196 281 58

CELL_TYPES 2802
1
1
1
1
1
1
1
1
1
1
1
1
1
1
1
1
1
1
1
1
1
1
1
1
1
1
1
1
1
1
1
1
1
1
1
1
1
1
1
1
1
1
1
1
1
1
1
1
1
1
1
1
1
1
1
1
1
1
1
1
1
1
1
1
1
1
1
1
1
1
1
1
1
1
3
3
3
3
3
3
3
3
3
3
3
3
3
3
3
3
3
3
3
3
3
3
3
3
3
3
3
3
3
3
3
3
3
3
3
3
3
3
3
3
3
3
3
3
3
3
3
3
3
3
3
3
3
3
3
3
3
3
3
3
3
3
3
3
3
3
3
3
3
3
3
3
3
3
3
3
3
3
3
3
3
3
3
3
3
3
3
3
3
3
3
3
3
3
3
3
3
3
3
3
3
3
3
3
3
3
3
3
3
3
3
3
3
3
3
3
3
3
3
3
3
3
3
3
3
3
3
3
3
3
3
3
3
3
3
3
3
3
3
3
3
3
3
3
3
3
3
3
3
3
3
3
3
3
3
3
3
3
3
3
3
3
3
3
3
3
3
3
3
3
3
3
3
3
3
3
3
3
3
3
3
3
3
3
3
3
3
3
3
3
3
3
3
3
3
3
3
3
3
3
3
3
3
3
3
3
3
3
3
3
3
3
3
3
3
3
3
3
3
3
3
3
3
3
3
3
3
3
3
3
3
3
3
3
3
3
3
3
3
3
3
3
3
3
3
3
3
3
3
3
3
5
5
5
5
5
5
5
5
5
5
5
5
5
5
5
5
5
5
5
5
5
5
5
5
5
5
5
5
5
5
5
5
5
5
5
5
5
5
5
5
5
5
5
5
5
5
5
5
5
5
5
5
5
5
5
5
5
5
5
5
5
5
5
5
5
5
5
5
5
5
5
5
5
5
5
5
5
5
5
5
5
5
5
5
5
5
5
5
5
5
5
5
5
5
5
5
5
5
5
5
5
5
5
5
5
5
5
5
5
5
5
5
5
5
5
5
5
5
5
5
5
5
5
5
5
5
5
5
5
5
5
5
5
5
5
5
5
5
5
5
5
5
5
5
5
5
5
5
5
5
5
5
5
5
5
5
5
5
5
5
5
5
5
5
5
5
5
5
5
5
5
5
5
5
5
5
5
5
5
5
5
5
5
5
5
5
5
5
5
5
5
5
5
5
5
5
5
5
5
5
5
5
5
5
5
5
5
5
5
5
5
5
5
5
5
5
5
5
5
5
5
5
5
5
5
5
5
5
5
5
5
5
5
5
5
5
5
5
5
5
5
5
5
5
5
5
5
5
5
5
5
5
5
5
5
5
5
5
5
5
5
5
5
5
5
5
5
5
5
5
5
5
5
5
5
5
5
5
5
5
5
5
5
5
5
5
5
5
5
5
5
5
5
5
5
5
5
5
5
5
5
5
5
5
5
5
5
5
5
5
5
5
5
5
5
5
5
5
5
5
5
5
5
5
5
5
5
5
5
5
5
5
5
5
5
5
5
5
5
5
5
5
5
5
5
5
5
5
5
5
5
5
5
5
5
5
5
5
5
5
5
5
5
5
5
5
5
5
5
5
5
5
5
5
5
5
5
5
5
5
5
5
5
5
5
5
5
5
5
5
5
5
5
5
5
5
5
5
5
5
5
5
5
5
5
5
5
5
5
5
5
5
5
5
5
5
5
5
5
5
5
5
5
5
5
5
5
5
5
5
5
5
5
5
5
5
5
5
5
5
5
5
5
5
5
5
5
5
5
5
5
5
5
5
5
5
5
5
5
5
5
5
5
5
5
5
5
5
5
5
5
5
5
5
5
5
5
5
5
5
5
5
5
5
5
5
5
5
5
5
5
5
5
5
5
5
5
5
5
5
5
5
5
5
5
5
5
5
5
5
5
5
5
5
5
5
5
5
5
5
5
5
5
5
5
5
5
5
5
5
5
5
5
5
5
5
5
5
5
5
5
5
5
5
5
5
5
5
5
5
5
5
5
5
5
5
5
5
5
5
5
5
5
5
5
5
5
5
5
5
5
5
5
5
5
5
5
5
5
5
5
5
5
5
5
5
5
5
5
5
5
5
5
5
5
5
5
5
5
5
5
5
5
5
5
5
5
5
5
5
5
5
5
5
5
5
5
5
5
5
5
5
5
5
5
5
5
5
5
5
5
5
5
5
5
5
5
5
5
5
5
5
5
5
5
5
5
5
5
5
5
5
5
5
5
5
5
5
5
5
5
5
5
5
5
5
5
5
5
5
5
5
5
5
5
5
5
5
5
5
5
5
5
5
5
5
5
5
5
5
5
5
5
5
5
5
5
5
5
5
5
5
5
5
5
5
5
5
5
5
5
5
5
5
5
5
5
5
5
5
5
5
5
5
5
5
5
5
5
5
5
5
5
5
5
5
5
5
5
5
5
5
5
5
5
5
5
5
5
5
5
5
5
5
5
5
5
5
5
5
5
5
5
5
5
5
5
5
5
5
5
5
5
5
5
5
5
5
5
5
5
5
5
5
5
5
5
5
5
5
5
5
5
5
5
5
5
5
5
5
5
5
5
5
5
5
5
5
5
5
5
5
5
5
5
5
5
5
5
5
5
5
5
5
5
5
5
5
5
5
5
5
5
5
5
5
5
5
5
5
5
5
5
5
5
5
5
5
5
5
5
5
5
5
5
5
5
5
5
5
5
5
5
5
5
5
5
5
5
5
5
5
5
5
5
5
5
5
5
5
5
5
5
5
5
5
5
5
5
5
5
5
5
5
5
5
5
5
5
5
5
5
5
5
5
5
5
5
5
5
5
5
5
5
5
5
5
5
5
5
5
5
5
5
5
5
5
5
5
5
5
5
5
5
5
5
5
5
5
5
5
5
5
5
5
5
5
5
5
5
5
5
5
5
5
5
10
10
10
10
10
10
10
10
10
10
10
10
10
10
10
10
10
10
10
10
10
10
10
10
10
10
10
10
10
10
10
10
10
10
10
10
10
10
10
10
10
10
10
10
10
10
10
10
10
10
10
10
10
10
10
10
10
10
10
10
10
10
10
10
10
10
10
10
10
10
10
10
10
10
10
10
10
10
10
10
10
10
10
10
10
10
10
10
10
10
10
10
10
10
10
10
10
10
10
10
10
10
10
10
10
10
10
10
10
10
10
10
10
10
10
10
10
10
10
10
10
10
10
10
10
10
10
10
10
10
10
10
10
10
10
10
10
10
10
10
10
10
10
10
10
10
10
10
10
10
10
10
10
10
10
10
10
10
10
10
10
10
10
10
10
10
10
10
10
10
10
10
10
10
10
10
10
10
10
10
10
10
10
10
10
10
10
10
10
10
10
10
10
10
10
10
10
10
10
10
10
10
10
10
10
10
10
10
10
10
10
10
10
10
10
10
10
10
10
10
10
10
10
10
10
10
10
10
10
10
10
10
10
10
10
10
10
10
10
10
10
10
10
10
10
10
10
10
10
10
10
10
10
10
10
10
10
10
10
10
10
10
10
10
10
10
10
10
10
10
10
10
10
10
10
10
10
10
10
10
10
10
10
10
10
10
10
10
10
10
10
10
10
10
10
10
10
10
10
10
10
10
10
10
10
10
10
10
10
10
10
10
10
10
10
10
10
10
10
10
10
10
10
10
10
10
10
10
10
10
10
10
10
10
10
10
10
10
10
10
10
10
10
10
10
10
10
10
10
10
10
10
10
10
10
10
10
10
10
10
10
10
10
10
10
10
10
10
10
10
10
10
10
10
10
10
10
10
10
10
10
10
10
10
10
10
10
10
10
10
10
10
10
10
10
10
10
10
10
10
10
10
10
10
10
10
10
10
10
10
10
10
10
10
10
10
10
10
10
10
10
10
10
10
10
10
10
10
10
10
10
10
10
10
10
10
10
10
10
10
10
10
10
10
10
10
10
10
10
10
10
10
10
10
10
10
10
10
10
10
10
10
10
10
10
10
10
10
10
10
10
10
10
10
10
10
10
10
10
10
10
10
10
10
10
10
10
10
10
10
10
10
10
10
10
10
10
10
10
10
10
10
10
10
10
10
10
10
10
10
10
10
10
10
10
10
10
10
10
10
10
10
10
10
10
10
10
10
10
10
10
10
10
10
10
10
10
10
10
10
10
10
10
10
10
10
10
10
10
10
10
10
10
10
10
10
10
10
10
10
10
10
10
10
10
10
10
10
10
10
10
10
10
10
10
10
10
10
10
10
10
10
10
10
10
10
10
10
10
10
10
10
10
10
10
10
10
10
10
10
10
10
10
10
10
10
10
10
10
10
10
10
10
10
10
10
10
10
10
10
10
10
10
10
10
10
10
10
10
10
10
10
10
10
10
10
10
10
10
10
10
10
10
10
10
10
10
10
10
10
10
10
10
10
10
10
10
10
10
10
10
10
10
10
10
10
10
10
10
10
10
10
10
10
10
10
10
10
10
10
10
10
10
10
10
10
10
10
10
10
10
10
10
10
10
10
10
10
10
10
10
10
10
10
10
10
10
10
10
10
10
10
10
10
10
10
10
10
10
10
10
10
10
10
10
10
10
10
10
10
10
10
10
10
10
10
10
10
10
10
10
10
10
10
10
10
10
10
10
10
10
10
10
10
10
10
10
10
10
10
10
10
10
10
10
10
10
10
10
10
10
10
10
10
10
10
10
10
10
10
10
10
10
10
10
10
10
10
10
10
10
10
10
10
10
10
10
10
10
10
10
10
10
10
10
10
10
10
10
10
10
10
10
10
10
10
10
10
10
10
10
10
10
10
10
10
10
10
10
10
10
10
10
10
10
10
10
10
10
10
10
10
10
10
10
10
10
10
10
10
10
10
10
10
10
10
10
10
10
10
10
10
10
10
10
10
10
10
10
10
10
10
10
10
10
10
10
10
10
10
10
10
10
10
10
10
10
10
10
10
10
10
10
10
10
10
10
10
10
10
10
10
10
10
10
10
10
10
10
10
10
10
10
10
10
10
10
10
10
10
10
10
10
10
10
10
10
10
10
10
10
10
10
10
10
10
10
10
10
10
10
10
10
10
10
10
10
10
10
10
10
10
10
10
10
10
10
10
10
10
10
10
10
10
10
10
10
10
10
10
10
10
10
10
10
10
10
10
10
10
10
10
10
10
10
10
10
10
10
10
10
10
10
10
10
10
10
10
10
10
10
10
10
10
10
10
10
10
10
10
10
10
10
10
10
10
10
10
10
10
10
10
10
10
10
10
10
10
10
10
10
10
10
10
10
10
10
10
10
10
10
10
10
10
10
10
10
10
10
10
10
10
10
10
10
10
10
10
10
10
10
10
10
10
10
10
10
10
10
10
10
10
10
10
10
10
10
10
10
10
10
10
10
10
10
10
10
10
10
10
10
10
10
10
10
10
10
10
10
10
10
10
10
10
10
10
10
10
10
10
10
10
10
10
10
10
10
10
10
10
10
10
10
10
10
10
10
10
10
10
10
10
10
10
10
10
10
10
10
10
10
10
10
10
10
10
10
10
10
10
10
10
10
10
10
10
10
10
10
10
10
10
10
10
10
10
10
10
10
10
10
10
10
10
10
10
10
10
10
10
10
10
10
10
10
10
10
10
10
10
10
10
10
10
10
10
10
10
10
10
10
10
10
10
10
10
10
10
10
10
10
10
10
10
10
10
10
10
10
10
10
10
10
10
10
10
10
10
10
10
10
10
10
10
10
10
10
10
10
10
10
10
10
10
10
10
10
10
10
10
10
10
10
10
10
10
10
10
10
10
10
10
10
10
10
10
10
10
10
10
10
10
10
10
10
10
10
10
10
10
10
10
10
10
10
10
10
10
10
10
10
10
10
10
10
10
10
10
10
10
10
10
10
10
10
10
10
10
10
10
10
10
10
10
10
10
10
10
10
10
10
10
10
10
10
10
10
10
10
10
10
10
10
10
10
10
10
10
10
10
10
10
10
10
10
10
10
10
10
10
10
10
10
10
10
10
10
10
10
10
10
10
10
10
10
10
10
10
10
10
10
10
10
10
10
10
10
10
10
10
10
10
10
10
10
10
10
10
10
10
10
10
10
10
10
10
10
10
10
10
10
10
10
10
10
10
10
10
10
10
10
10
10
10
10
10
10
10
10
10
10
10
10
10
10
10
10
10
10
10
10
10
10
10
10
10
10
10
10
10
10
10
10
10
10
10
10
10
10
10
10
10
10
10
10
10
10
10
10
10
10
10
10
10
10
10
10
10
10
10
10
10
10
10
10
10
10
10
10
10
10
10
10
10
10
10
10
10
10
10
10
10
10
10
10
10
10
10
10
10
10
10
10
10
10
10
10
10
10
10
10
10
10
10
10
10
10
10
10
10
10
