# vtk DataFile Version 2.0
, Created by Gmsh 4.11.1 
ASCII
DATASET UNSTRUCTURED_GRID
POINTS 485 double
8.75 0 -44.68363840972849
14.63413920204384 0 -41.18529253073486
14.63413920204384 0 -38.81470746926514
8.75 0 -35.31636159027151
8.75 0 -3
11.75 0 -3
11.75 0 0
-11.75 0 0
-11.75 0 -3
-8.75 0 -3
-8.75 1.071565949253934e-15 -35.31636159027151
-14.63413920204384 1.792165173205979e-15 -38.81470746926514
-14.63413920204384 1.792165173205979e-15 -41.18529253073486
-8.75 1.071565949253934e-15 -44.68363840972849
-8.75 1.071565949253934e-15 -75.31636159027151
-14.63413920204384 1.792165173205979e-15 -78.81470746926513
-14.63413920204384 1.792165173205979e-15 -81.18529253073487
-8.75 1.071565949253934e-15 -84.68363840972849
-8.75 0 -120
8.75 0 -120
8.75 0 -84.68363840972849
14.63413920204384 0 -81.18529253073487
14.63413920204384 0 -78.81470746926513
8.75 0 -75.31636159027151
-8.75 9.678881674690222 -42.12847367132554
8.75 9.678881674690222 -42.12847367132554
8.75 9.678881674690226 -37.87152632867446
-8.75 9.678881674690226 -37.87152632867446
8.75 20 -3
8.75 20 -30.25085329766613
11.75 23 -3
-11.75 23 -3
-8.75 20 -3
11.75 23 0
-11.75 23 0
-8.75 20 -30.25085329766613
-8.75 20 -49.74914670233387
-8.75 20 -70.25085329766614
-8.75 9.678881674690221 -77.87152632867446
8.75 9.678881674690221 -77.87152632867446
-8.75 9.678881674690215 -82.12847367132554
8.75 9.678881674690215 -82.12847367132554
-8.75 20 -89.74914670233387
-8.75 20 -110.2508532976661
-8.75 6.796166654026136 -120
8.75 6.796166654026136 -120
8.75 20 -89.74914670233387
8.75 20 -110.2508532976661
8.75 20 -49.74914670233387
8.75 20 -70.25085329766614
6.046262177795532 2.312936953133701 -84.6836384097285
-6.04626217779553 2.312936953133703 -84.6836384097285
12.13931723029706 2.312936953133701 -81.18529253073487
-12.13931723029706 2.312936953133703 -81.18529253073487
12.13931723029706 2.312936953133701 -78.81470746926513
6.046262177795532 2.312936953133701 -75.3163615902715
-6.04626217779553 2.312936953133703 -75.3163615902715
-12.13931723029706 2.312936953133703 -78.81470746926513
6.046262177795532 2.312936953133701 -44.68363840972849
-6.04626217779553 2.312936953133703 -44.68363840972849
12.13931723029706 2.312936953133701 -41.18529253073486
-12.13931723029706 2.312936953133703 -41.18529253073486
12.13931723029706 2.312936953133701 -38.81470746926514
6.046262177795532 2.312936953133701 -35.31636159027151
-6.04626217779553 2.312936953133703 -35.31636159027151
-12.13931723029706 2.312936953133703 -38.81470746926514
8.75 0 -28.85308927221719
8.75 0 -22.38981695416289
8.75 0 -15.92654463610859
8.75 0 -9.463272318054294
5.875000000000016 0 0
3.730349362740526e-14 0 0
-5.874999999999972 0 0
-8.75 0 -9.463272318054308
-8.75 0 -15.9265446361086
-8.75 0 -22.3898169541629
-8.75 0 -28.85308927221719
-8.75 0 -50.81018304583709
-8.75 0 -56.9367276819457
-8.75 0 -63.0632723180543
-8.75 0 -69.18981695416291
-8.75 0 -90.56969867477375
-8.75 0 -96.45575893981901
-8.75 0 -102.3418192048643
-8.75 0 -108.2278794699095
-8.75 0 -114.1139397349548
2.916666666666666 0 -120
-2.916666666666668 0 -120
8.75 0 -90.56969867477375
8.75 0 -96.45575893981901
8.75 0 -102.3418192048643
8.75 0 -108.2278794699095
8.75 0 -114.1139397349548
8.75 0 -50.81018304583709
8.75 0 -56.9367276819457
8.75 0 -63.0632723180543
8.75 0 -69.18981695416291
13.18490382959186 6.349515035749612 -41.18529253073486
9.124236551455466 11.44143074697743 -41.18529253073486
3.256402322885565 14.26723077882677 -41.18529253073486
-3.256402322885436 14.2672307788268 -41.18529253073486
-9.12423655145539 11.44143074697749 -41.18529253073486
-13.18490382959184 6.349515035749652 -41.18529253073486
-8.750000000000002 4.963825678195699 -43.9048386380613
-2.99160989201995 11.0033906976422 -43.10643457366161
2.991609892019967 11.0033906976422 -43.10643457366161
8.749999999999998 4.963825678195697 -43.90483863806131
13.18490382959186 6.349515035749612 -38.81470746926514
9.124236551455466 11.44143074697743 -38.81470746926514
3.256402322885565 14.26723077882677 -38.81470746926514
-3.256402322885436 14.2672307788268 -38.81470746926514
-9.12423655145539 11.44143074697749 -38.81470746926514
-13.18490382959184 6.349515035749652 -38.81470746926514
8.749999999999998 4.963825678195692 -36.09516136193869
2.991609892019968 11.00339069764223 -36.89356542633838
-2.991609892019978 11.00339069764222 -36.89356542633838
-8.750000000000002 4.963825678195694 -36.0951613619387
8.75 6.666666666666651 -3
8.75 13.33333333333329 -3
8.75 20 -23.43813997324961
8.75 20 -16.62542664883308
8.75 20 -9.812713324416549
8.75 14.8394408373451 -34.0611898131703
-5.875000000000016 23 -3
-3.730349362740526e-14 23 -3
5.874999999999972 23 -3
-11.75 5.749999999999988 -3
-11.75 11.49999999999999 -3
-11.75 17.24999999999999 -3
-8.75 13.33333333333335 -3
-8.75 6.666666666666705 -3
-2.916666666666666 20 -3
2.916666666666668 20 -3
11.75 5.749999999999988 -3
11.75 11.49999999999999 -3
11.75 17.24999999999999 -3
11.75 5.749999999999988 0
11.75 11.49999999999999 0
11.75 17.24999999999999 0
-5.875000000000016 23 0
-3.730349362740526e-14 23 0
5.874999999999972 23 0
-11.75 5.749999999999988 0
-11.75 11.49999999999999 0
-11.75 17.24999999999999 0
-8.75 20 -9.812713324416524
-8.75 20 -16.62542664883305
-8.75 20 -23.43813997324958
-8.75 14.8394408373451 -34.0611898131703
-8.75 14.83944083734512 -45.93881018682971
-8.75 20 -63.41695109922205
-8.75 20 -56.58304890077795
-8.75 14.8394408373451 -74.0611898131703
-8.750000000000002 4.963825678195697 -76.09516136193868
8.749999999999998 4.963825678195695 -76.09516136193868
2.991609892019964 11.00339069764222 -76.89356542633837
-2.991609892019967 11.00339069764222 -76.89356542633837
13.18490382959186 6.349515035749612 -78.81470746926513
9.124236551455466 11.44143074697743 -78.81470746926513
3.256402322885565 14.26723077882677 -78.81470746926513
-3.256402322885436 14.2672307788268 -78.81470746926513
-9.12423655145539 11.44143074697749 -78.81470746926513
-13.18490382959184 6.349515035749652 -78.81470746926513
13.18490382959186 6.349515035749612 -81.18529253073486
9.124236551455466 11.44143074697743 -81.18529253073486
3.256402322885565 14.26723077882677 -81.18529253073486
-3.256402322885436 14.2672307788268 -81.18529253073486
-9.12423655145539 11.44143074697749 -81.18529253073486
-13.18490382959184 6.349515035749652 -81.18529253073486
-8.750000000000002 4.963825678195695 -83.90483863806131
-2.991609892019961 11.0033906976422 -83.1064345736616
2.991609892019965 11.0033906976422 -83.1064345736616
8.749999999999998 4.963825678195697 -83.90483863806131
-8.75 14.83944083734512 -85.93881018682971
-8.75 20 -103.416951099222
-8.75 20 -96.58304890077795
-8.75 11.19744443601742 -116.7502844325554
-8.75 15.5987222180087 -113.5005688651108
2.916666666666666 6.796166654026136 -120
-2.916666666666668 6.796166654026136 -120
8.75 14.83944083734512 -85.93881018682971
8.75 20 -103.416951099222
8.75 20 -96.58304890077795
8.75 11.19744443601742 -116.7502844325554
8.75 15.5987222180087 -113.5005688651108
8.75 14.83944083734512 -45.93881018682971
8.75 20 -63.41695109922205
8.75 20 -56.58304890077795
8.75 14.8394408373451 -74.0611898131703
2.916666666666666 20 -49.74914670233387
-2.916666666666668 20 -49.74914670233387
2.916666666666666 20 -30.25085329766613
-2.916666666666668 20 -30.25085329766613
2.916666666666666 20 -70.25085329766614
-2.916666666666668 20 -70.25085329766614
2.916666666666666 20 -89.74914670233387
-2.916666666666668 20 -89.74914670233387
2.916666666666666 20 -110.2508532976661
-2.916666666666668 20 -110.2508532976661
2.531714009869745 5.957968432615385 -84.68363840972849
-2.531714009869752 5.957968432615382 -84.68363840972849
2.664535259100376e-15 2.312936953133701 -84.68363840972849
9.101312147677307 2.312936953133701 -82.94933974681754
9.115063506873037 8.344358419472991 -81.18529253073486
3.373579533976574 11.8882993440985 -81.18529253073486
-3.373579533976573 11.8882993440985 -81.18529253073486
-9.115063506873035 8.344358419472993 -81.18529253073486
-9.101312147677312 2.312936953133701 -82.94933974681754
9.101312147677312 2.312936953133701 -77.05066025318244
1.509903313490213e-14 2.312936953133701 -75.31636159027151
-9.101312147677312 2.312936953133701 -77.05066025318244
9.115063506873037 8.344358419472991 -78.81470746926513
3.373579533976574 11.8882993440985 -78.81470746926513
-3.373579533976573 11.8882993440985 -78.81470746926513
-9.115063506873035 8.344358419472993 -78.81470746926513
2.531714009869745 5.957968432615385 -75.3163615902715
-2.531714009869752 5.957968432615382 -75.3163615902715
2.531714009869745 5.957968432615385 -44.68363840972849
-2.531714009869752 5.957968432615382 -44.68363840972849
2.664535259100376e-15 2.312936953133701 -44.68363840972849
9.101312147677307 2.312936953133701 -42.94933974681756
9.115063506873037 8.344358419472991 -41.18529253073486
3.373579533976574 11.8882993440985 -41.18529253073486
-3.373579533976573 11.8882993440985 -41.18529253073486
-9.115063506873035 8.344358419472993 -41.18529253073486
-9.101312147677312 2.312936953133701 -42.94933974681756
9.101312147677312 2.312936953133701 -37.05066025318245
1.509903313490213e-14 2.312936953133701 -35.31636159027151
-9.101312147677312 2.312936953133701 -37.05066025318245
9.115063506873037 8.344358419472991 -38.81470746926514
3.373579533976574 11.8882993440985 -38.81470746926514
-3.373579533976573 11.8882993440985 -38.81470746926514
-9.115063506873035 8.344358419472993 -38.81470746926514
2.531714009869745 5.957968432615385 -35.31636159027151
-2.531714009869752 5.957968432615382 -35.31636159027151
1.77635683940025e-15 0 -115.6317906949036
-2.45658572531392 0 -105.2848493373869
3.652522282264639 0 -87.62666854225114
2.642111615290363 0 -47.76090411989449
-2.616714711040308 0 -72.11949072742181
-3.81442983717354 0 -58.92241603175068
-2.809611111114426 0 -4.108969940031159
-4.204769947676935 0 -25.46350783562135
3.152641980988244 0 -12.69490847708144
2.149059182098012 0 -99.39878907234161
-1.999570854627644 0 -93.15190799465354
-3.479958551575796 0 -78.85491250872306
3.322189245584927 0 -66.37463370175587
3.068704314152725 0 -33.18751866717083
3.922776849823726 0 -39.97214912118981
3.71644985074935 0 -5.647359725594349
10.1422069632011 0 -80.19194700358
-10.84325532855257 0 -79.8831543376248
10.13821105078228 0 -39.99442982423796
-10.86847192094673 0 -40.21532983750335
3.832457032425455 0 -81.21675333088243
-1.818838143331593 0 -36.37625216591318
-3.915990106561635 0 -48.8412503168597
-0.3532765910256384 0 -53.83281480541964
-2.582425015252221 0 -86.01726324350206
-3.152641980988244 0 -19.15818079513575
-3.996285803183754 0 -12.01715595263149
1.834297804013017 0 -25.64361333754924
3.866859560802603 0 -19.16261284000758
3.772141989972903 0 -72.03561484655972
-3.187008941900624 0 -65.50033456406135
2.968648782290984 0 -59.72540763623023
3.652522282264655 0 -105.2848493373869
-3.652522282264686 0 -99.39878907234164
3.87405283608476 0 -93.48642991424659
-3.585935301925161 0 -111.5433350437741
3.158342993168039 0 -110.9275156109596
-3.934058815103695 0 -41.88084079448008
-3.103434328807131 0 -30.80672381145722
-5.116739306952164 0 -53.86867837636256
4.654203714542692 0 -53.83042114530141
-0.6709722217922716 0 -8.379216146958953
4.488781543693718 0 -115.7244624822786
-4.488781543693712 0 -115.7244624822786
-5.406793969869197 0 -7.061698096532886
1.688852496228092 0 -76.31721230220839
5.688010603860637 11.81127572284685 -42.0917328004064
-5.688010603860501 11.81127572284682 -42.09173280040645
11.32406687213716 3.081540408499322 -42.90843111507156
-11.32406687200599 3.081540408525406 -42.90843111514275
5.688010603860607 11.81127572284679 -37.90826719959357
-5.688010603860494 11.8112757228468 -37.90826719959354
-11.32406687200599 3.081540408525401 -37.09156888485725
11.92581741676064 2.852144853136058 -37.40445771218663
8.749999999999998 9.893092827130015 -8.990498574486731
8.749999999999998 5.114334713620527 -19.31209977680015
8.749999999999998 14.76130200643571 -27.21576688242046
8.749999999999998 9.110522866559736 -31.22656462070379
8.749999999999998 14.81862399727087 -20.01656053302175
8.749999999999998 4.598325787148084 -26.23372224678512
8.749999999999998 14.89731455955171 -13.17402774921273
8.749999999999998 4.876545166305863 -12.84388362463611
8.749999999999998 3.734534866380703 -31.54497981838326
8.749999999999998 15.14527942753638 -7.895129359842731
8.749999999999998 4.611017683945297 -7.613029883876292
8.749999999999998 9.985828811304962 -16.31218461395664
8.749999999999998 10.01732083512725 -23.45956413648321
10.25 3.10416666666666 -3
-10.25 3.104166666666674 -3
11.75 20.125 -1.5
11.75 8.624999999999988 -1.5
11.75 14.37499999999999 -1.500000000000001
11.75 2.874999999999994 -1.5
3.157610638484559 18.22886740495932 0
-2.707174061168084 4.878797530676509 0
7.069955745470663 8.716546370640001 0
-6.619519168154188 14.39111856499582 0
7.102873022115114 14.37499999999999 0
0.1126091443291184 11.52691623390895 0
-7.000954855602268 8.644857627020135 0
-2.792058517349995 18.15992185565015 0
2.948495529093417 4.721447277005962 0
-7.528051718759411 18.81262893003678 0
7.528051718759418 4.187371069963204 0
7.820492259183635 19.07601590637069 0
-7.553981076842909 4.160878030182232 0
-11.75 20.125 -1.5
-11.75 14.37499999999999 -1.5
-11.75 8.624999999999988 -1.5
-11.75 2.874999999999994 -1.5
-8.750000000000002 9.893092827130053 -8.990498574486733
-8.750000000000002 5.114334713620532 -19.31209977680016
-8.750000000000002 14.76130200643571 -27.21576688242045
-8.750000000000002 9.110522866559732 -31.22656462070379
-8.750000000000002 14.81862399727087 -20.01656053302174
-8.750000000000002 4.598325787148084 -26.23372224678512
-8.750000000000002 14.89731455955172 -13.17402774921272
-8.750000000000002 4.876545166305874 -12.84388362463612
-8.750000000000002 3.734534866380701 -31.54497981838326
-8.750000000000002 15.1452794275364 -7.895129359842718
-8.750000000000002 4.611017683945309 -7.61302988387629
-8.750000000000002 9.985828811304971 -16.31218461395664
-8.750000000000002 10.01732083512724 -23.45956413648319
-8.750000000000002 5.612044943323775 -60.19554094141692
-8.750000000000002 13.04336914095427 -59.49077690577344
-8.750000000000002 8.85758987148678 -47.09433153059536
-8.750000000000002 9.11785168351487 -71.13825304903335
-8.750000000000002 14.10124086294625 -52.25471813783166
-8.750000000000002 14.08166708916909 -66.83390219844409
-8.750000000000002 6.376837843006133 -53.50416985302614
-8.750000000000002 4.984744014427464 -66.30031821486219
-8.750000000000002 4.297245132295747 -71.31739378143212
-8.750000000000002 4.039650678537723 -47.99943229544968
-8.750000000000002 9.648429685136353 -64.1183833250812
5.688010603860651 11.81127572284689 -77.90826719959362
-5.688010603860548 11.81127572284692 -77.90826719959361
-11.32406687200599 3.081540408525403 -77.09156888485725
11.92581741676065 2.852144853136059 -77.40445771218663
5.688010603860609 11.8112757228468 -82.09173280040643
-5.688010603860501 11.81127572284682 -82.09173280040645
11.32406687213717 3.08154040849932 -82.90843111507155
-11.32406687200598 3.081540408525401 -82.90843111514275
-8.750000000000002 5.097477717735348 -105.2848493373869
-8.750000000000002 4.961180243558775 -93.34303004401274
-8.750000000000002 14.7143151359131 -100.1165879557594
-8.750000000000002 15.25981421267878 -107.1774135723288
-8.750000000000002 8.954107079140609 -88.39350089700167
-8.750000000000002 14.11987219927848 -92.31315377717347
-8.750000000000002 6.182469308540977 -114.5635238479612
-8.750000000000002 5.126334502859381 -99.67125831070277
-8.750000000000002 9.779362957872486 -110.2578297744987
-8.750000000000002 10.3255317637267 -103.7726887842458
-8.750000000000002 9.914425798284816 -96.18448155369207
-8.750000000000002 4.199463528789331 -88.51073190141766
-8.750000000000002 4.367989391703675 -110.2181226121164
5.408163265306122 3.398083327013068 -120
0 3.398083327013067 -120
-5.40816326530612 3.398083327013068 -120
8.749999999999998 5.097477717735348 -105.2848493373869
8.749999999999998 4.961180243558776 -93.34303004401274
8.749999999999998 14.7143151359131 -100.1165879557594
8.749999999999998 15.25981421267878 -107.1774135723288
8.749999999999998 8.954107079140611 -88.39350089700167
8.749999999999998 14.11987219927848 -92.31315377717347
8.749999999999998 6.182469308540977 -114.5635238479612
8.749999999999998 5.126334502859381 -99.67125831070277
8.749999999999998 9.779362957872486 -110.2578297744987
8.749999999999998 10.3255317637267 -103.7726887842458
8.749999999999998 9.914425798284816 -96.18448155369207
8.749999999999998 4.199463528789332 -88.51073190141766
8.749999999999998 4.367989391703675 -110.2181226121164
8.749999999999998 5.612044943323775 -60.19554094141692
8.749999999999998 13.04336914095427 -59.49077690577344
8.749999999999998 8.857589871486779 -47.09433153059536
8.749999999999998 9.117851683514875 -71.13825304903334
8.749999999999998 14.10124086294625 -52.25471813783167
8.749999999999998 14.08166708916909 -66.83390219844409
8.749999999999998 6.376837843006133 -53.50416985302614
8.749999999999998 4.984744014427465 -66.30031821486219
8.749999999999998 4.297245132295751 -71.31739378143212
8.749999999999998 4.039650678537721 -47.99943229544968
8.749999999999998 9.648429685136355 -64.1183833250812
3.552713678800501e-15 15.83851748511582 -46.67648572019763
-4.592734519000269 16.51216175770525 -47.17387588459742
4.592734519000267 16.51216175770525 -47.17387588459742
-1.77635683940025e-15 15.83851748511583 -33.32351427980236
-4.592734519000274 16.51216175770525 -32.82612411540258
4.592734519000273 16.51216175770525 -32.82612411540258
-0.07166607520052359 20 -25.63705368738009
0.0977727608032577 20 -7.641593160287631
3.932417618517022 20 -12.3172840655702
-2.819019915030886 20 -13.20499944562118
2.979429431841838 20 -19.72845482387905
-3.874098315287152 20 -20.91309520240347
4.889371409197388 20 -7.154318110054879
-4.87248621143087 20 -26.09799909167308
4.664886004661597 20 -25.8610710159682
-4.627582764178858 20 -7.331861186065064
8.812499999999986 23 -1.5
2.937499999999966 23 -1.5
-8.812500000000007 23 -1.5
-2.937500000000027 23 -1.499999999999999
0 20 -54.3050815012966
1.77635683940025e-15 20 -65.69491849870342
3.667009082255159 20 -60.00000000000001
-3.642808226344499 20 -60.00000000000001
-4.811894978602233 20 -54.07728476134846
-4.811894978602233 20 -65.92271523865155
4.816735149784366 20 -65.92271523865155
4.816735149784366 20 -54.07728476134847
0 15.83851748511583 -73.32351427980235
-4.592734519000276 16.51216175770525 -72.82612411540258
4.592734519000275 16.51216175770524 -72.82612411540258
0 15.83851748511582 -86.67648572019765
-4.59273451900027 16.51216175770525 -87.17387588459744
4.592734519000269 16.51216175770525 -87.17387588459744
1.77635683940025e-15 20 -94.3050815012966
1.77635683940025e-15 20 -105.6949184987034
3.667009082255161 20 -100
-3.642808226344499 20 -100
-4.811894978602233 20 -105.9227152386515
4.816735149784366 20 -105.9227152386515
-4.811894978602233 20 -94.07728476134847
4.816735149784366 20 -94.07728476134847
4.861111111111111 13.39808332701307 -115.1254266488331
-4.861111111111109 13.39808332701307 -115.1254266488331
-1.77635683940025e-15 16.32707353612746 -112.9627853544348
-1.77635683940025e-15 10.46909311789867 -117.2880679432313
-5.055555555555557 9.731390837796287 -117.8327558049239
5.055555555555555 17.06477581622985 -112.4180974927422
-5.055555555555557 17.06477581622985 -112.4180974927422
5.055555555555555 9.731390837796287 -117.8327558049239
7.230295684741418 5.274648869755423 -83.21141242569632
-7.230295684721423 5.274648869738845 -83.21141242571174
-0.09013368964327985 9.351746633049054 -82.97218739287501
6.137563993863356 2.312936953133701 -80.78774148478333
-6.842905624690726 2.312936953133701 -80
9.723764549962421 2.312936953133701 -80.15754829695666
-9.646910220671277 2.312936953133701 -80
-2.010577730690599 2.312936953133701 -79.85176990597736
2.03464968819366 2.312936953133701 -79.19117459620644
7.230295684741421 5.27464886975542 -76.78858757430366
-7.230295684721429 5.274648869738839 -76.78858757428826
-3.544101209205675e-15 9.256987370238379 -76.97121636127576
7.230295684741423 5.274648869755414 -43.21141242569633
-7.230295684721435 5.274648869738838 -43.21141242571174
-0.09013368964327979 9.351746633049048 -42.97218739287502
6.137563993863356 2.312936953133701 -40.78774148478333
-6.953976106467684 2.312936953133701 -40
-9.887046972483283 2.312936953133701 -40
9.723764549962418 2.312936953133701 -40.15754829695667
-2.020022499549187 2.312936953133701 -39.85176990597737
2.032760734421945 2.312936953133701 -39.19117459620644
7.230295684741423 5.274648869755421 -36.78858757430368
-7.230295684721431 5.274648869738842 -36.78858757428826
-1.48863710578509e-15 9.256987370238377 -36.97121636127577
-6.827871601444713e-15 9.115479673522273 -52.91086800792009
-6.956121149558064e-15 9.09999492784624 -67.01235852909865
-1.77635683940025e-15 9.13684661230034 -106.9381487634716
-5.639897510803198e-15 9.083342045375435 -93.07020656319604
-4.884981308350689e-15 9.073938917224558 -26.88317267039912
-5.329070518200751e-15 8.810435139574462 -8.407306929562484
0.7088393518525118 7.927376986588762 -18.4248233405586
0.01210042795533095 12.8850830301103 -59.96576114478265
0.01210042795533095 12.96079245834741 -99.98932110186257
2.333360476707858 14.23457587504234 -5.822521544333768
-2.595872838388007 5.606309102701781 -113.9451640524967
1.761202146904189 13.29328264073958 -13.75061194016171
-2.149906653908619 6.515690598322042 -100.9653958725531
2.512393384299453 14.62155050754351 -107.4922382976805

CELLS 2672 11696
1 0
1 1
1 2
1 3
1 4
1 5
1 6
1 7
1 8
1 9
1 10
1 11
1 12
1 13
1 14
1 15
1 16
1 17
1 18
1 19
1 20
1 21
1 22
1 23
1 24
1 25
1 26
1 27
1 28
1 29
1 30
1 31
1 32
1 33
1 34
1 35
1 36
1 37
1 38
1 39
1 40
1 41
1 42
1 43
1 44
1 45
1 46
1 47
1 48
1 49
1 50
1 51
1 52
1 53
1 54
1 55
1 56
1 57
1 58
1 59
1 60
1 61
1 62
1 63
1 64
1 65
2 0 1
2 1 2
2 2 3
2 3 66
2 66 67
2 67 68
2 68 69
2 69 4
2 4 5
2 5 6
2 6 70
2 70 71
2 71 72
2 72 7
2 8 7
2 8 9
2 9 73
2 73 74
2 74 75
2 75 76
2 76 10
2 11 10
2 12 11
2 13 12
2 13 77
2 77 78
2 78 79
2 79 80
2 80 14
2 15 14
2 16 15
2 17 16
2 17 81
2 81 82
2 82 83
2 83 84
2 84 85
2 85 18
2 19 86
2 86 87
2 87 18
2 20 88
2 88 89
2 89 90
2 90 91
2 91 92
2 92 19
2 20 21
2 21 22
2 22 23
2 0 93
2 93 94
2 94 95
2 95 96
2 96 23
2 1 97
2 97 98
2 98 99
2 99 100
2 100 101
2 101 102
2 102 12
2 24 103
2 103 13
2 24 104
2 104 105
2 105 25
2 25 106
2 106 0
2 2 107
2 107 108
2 108 109
2 109 110
2 110 111
2 111 112
2 112 11
2 3 113
2 113 26
2 26 114
2 114 115
2 115 27
2 10 116
2 116 27
2 4 117
2 117 118
2 118 28
2 29 119
2 119 120
2 120 121
2 121 28
2 26 122
2 122 29
2 31 123
2 123 124
2 124 125
2 125 30
2 8 126
2 126 127
2 127 128
2 128 31
2 32 129
2 129 130
2 130 9
2 32 131
2 131 132
2 132 28
2 5 133
2 133 134
2 134 135
2 135 30
2 6 136
2 136 137
2 137 138
2 138 33
2 30 33
2 34 139
2 139 140
2 140 141
2 141 33
2 7 142
2 142 143
2 143 144
2 144 34
2 31 34
2 32 145
2 145 146
2 146 147
2 147 35
2 27 148
2 148 35
2 36 149
2 149 24
2 37 150
2 150 151
2 151 36
2 38 152
2 152 37
2 14 153
2 153 38
2 23 154
2 154 39
2 39 155
2 155 156
2 156 38
2 22 157
2 157 158
2 158 159
2 159 160
2 160 161
2 161 162
2 162 15
2 21 163
2 163 164
2 164 165
2 165 166
2 166 167
2 167 168
2 168 16
2 40 169
2 169 17
2 40 170
2 170 171
2 171 41
2 41 172
2 172 20
2 42 173
2 173 40
2 43 174
2 174 175
2 175 42
2 44 176
2 176 177
2 177 43
2 18 44
2 45 178
2 178 179
2 179 44
2 19 45
2 46 180
2 180 41
2 47 181
2 181 182
2 182 46
2 45 183
2 183 184
2 184 47
2 48 185
2 185 25
2 49 186
2 186 187
2 187 48
2 39 188
2 188 49
2 48 189
2 189 190
2 190 36
2 29 191
2 191 192
2 192 35
2 49 193
2 193 194
2 194 37
2 46 195
2 195 196
2 196 42
2 47 197
2 197 198
2 198 43
2 50 199
2 199 200
2 200 51
2 51 201
2 201 50
2 50 202
2 202 52
2 52 203
2 203 204
2 204 205
2 205 206
2 206 53
2 53 207
2 207 51
2 52 54
2 54 208
2 208 55
2 55 209
2 209 56
2 56 210
2 210 57
2 53 57
2 54 211
2 211 212
2 212 213
2 213 214
2 214 57
2 55 215
2 215 216
2 216 56
2 58 217
2 217 218
2 218 59
2 59 219
2 219 58
2 58 220
2 220 60
2 60 221
2 221 222
2 222 223
2 223 224
2 224 61
2 61 225
2 225 59
2 60 62
2 62 226
2 226 63
2 63 227
2 227 64
2 64 228
2 228 65
2 61 65
2 62 229
2 229 230
2 230 231
2 231 232
2 232 65
2 63 233
2 233 234
2 234 64
3 1 253 0
3 0 238 93
3 0 249 238
3 0 253 249
3 2 253 1
3 3 253 2
3 66 248 3
3 248 249 3
3 249 253 3
3 6 4 5
3 70 4 6
3 4 250 69
3 70 250 4
3 7 8 9
3 9 72 7
3 9 241 72
3 73 279 9
3 9 279 241
3 11 254 10
3 10 273 76
3 254 272 10
3 10 272 256
3 256 273 10
3 12 254 11
3 13 254 12
3 77 257 13
3 13 272 254
3 257 272 13
3 15 252 14
3 14 239 80
3 14 246 239
3 14 252 246
3 16 252 15
3 17 252 16
3 81 259 17
3 246 252 17
3 17 259 246
3 18 278 85
3 87 278 18
3 19 277 86
3 92 277 19
3 21 251 20
3 20 237 88
3 20 255 237
3 251 255 20
3 22 251 21
3 23 251 22
3 96 264 23
3 23 255 251
3 23 280 255
3 264 280 23
3 67 262 66
3 66 262 248
3 68 263 67
3 67 263 262
3 69 243 68
3 243 263 68
3 69 250 243
3 71 250 70
3 72 241 71
3 241 250 71
3 74 261 73
3 261 279 73
3 75 260 74
3 260 261 74
3 76 242 75
3 242 260 75
3 76 273 242
3 78 274 77
3 77 274 257
3 79 240 78
3 240 274 78
3 80 265 79
3 79 265 240
3 239 265 80
3 82 245 81
3 245 259 81
3 83 268 82
3 82 268 245
3 84 236 83
3 236 268 83
3 85 270 84
3 84 270 236
3 85 278 270
3 86 235 87
3 86 277 235
3 235 278 87
3 88 269 89
3 237 269 88
3 89 244 90
3 89 269 244
3 90 267 91
3 244 267 90
3 91 271 92
3 267 271 91
3 271 277 92
3 93 275 94
3 238 275 93
3 94 266 95
3 94 275 266
3 95 247 96
3 95 266 247
3 247 264 96
3 235 271 270
3 270 278 235
3 235 277 271
3 236 267 244
3 244 268 236
3 236 271 267
3 270 271 236
3 237 259 245
3 245 269 237
3 255 259 237
3 249 272 238
3 257 258 238
3 238 272 257
3 258 275 238
3 246 280 239
3 239 264 247
3 247 265 239
3 239 280 264
3 240 266 258
3 258 274 240
3 265 266 240
3 241 276 250
3 241 279 276
3 242 262 260
3 242 273 262
3 250 276 243
3 243 261 260
3 260 263 243
3 243 276 261
3 245 268 244
3 244 269 245
3 246 259 255
3 255 280 246
3 247 266 265
3 248 256 249
3 248 273 256
3 262 273 248
3 256 272 249
3 257 274 258
3 266 275 258
3 262 263 260
3 276 279 261
3 0 283 1
3 106 283 0
3 1 283 97
3 12 284 13
3 102 284 12
3 13 284 103
3 101 24 102
3 101 282 24
3 103 102 24
3 24 282 104
3 97 25 98
3 25 97 106
3 25 281 98
3 105 281 25
3 97 283 106
3 98 281 99
3 100 99 104
3 104 99 105
3 99 281 105
3 100 282 101
3 104 282 100
3 103 284 102
3 1 97 2
3 2 97 107
3 112 12 11
3 102 12 112
3 97 98 108
3 107 97 108
3 98 99 109
3 108 98 109
3 109 99 100
3 100 101 110
3 109 100 110
3 101 102 112
3 110 101 111
3 111 101 112
3 2 288 3
3 107 288 2
3 3 288 113
3 10 287 11
3 116 287 10
3 11 287 112
3 107 108 26
3 26 113 107
3 108 285 26
3 26 285 114
3 111 112 27
3 27 286 111
3 116 27 112
3 115 286 27
3 113 288 107
3 109 285 108
3 114 109 110
3 114 285 109
3 111 286 110
3 115 114 110
3 110 286 115
3 112 287 116
3 3 297 66
3 113 297 3
3 69 299 4
3 4 299 117
3 26 292 113
3 122 292 26
3 118 298 28
3 28 298 121
3 119 291 29
3 29 291 122
3 66 294 67
3 66 297 294
3 67 290 68
3 67 294 290
3 68 296 69
3 290 296 68
3 296 299 69
3 292 297 113
3 117 289 118
3 117 299 289
3 289 298 118
3 120 293 119
3 119 293 291
3 121 295 120
3 120 295 293
3 121 298 295
3 291 292 122
3 295 298 289
3 289 300 295
3 289 299 296
3 296 300 289
3 294 301 290
3 290 300 296
3 290 301 300
3 291 301 292
3 293 301 291
3 294 297 292
3 292 301 294
3 295 300 293
3 300 301 293
3 5 4 302
3 4 117 302
3 133 5 302
3 9 8 303
3 8 126 303
3 130 9 303
3 30 28 125
3 135 28 30
3 28 135 118
3 28 132 125
3 31 123 32
3 31 32 128
3 123 131 32
3 128 32 129
3 134 117 118
3 134 133 117
3 117 133 302
3 135 134 118
3 131 123 124
3 132 124 125
3 132 131 124
3 126 127 130
3 126 130 303
3 127 128 129
3 127 129 130
3 5 307 6
3 133 307 5
3 6 307 136
3 33 304 30
3 30 304 135
3 138 304 33
3 134 305 133
3 133 305 136
3 136 307 133
3 135 306 134
3 137 305 134
3 134 306 137
3 135 304 138
3 138 306 135
3 136 305 137
3 137 306 138
3 6 318 70
3 136 318 6
3 72 320 7
3 7 320 142
3 33 319 138
3 141 319 33
3 34 317 139
3 144 317 34
3 70 316 71
3 70 318 316
3 71 309 72
3 71 316 309
3 309 320 72
3 137 310 136
3 310 318 136
3 138 312 137
3 137 312 310
3 138 319 312
3 139 315 140
3 139 317 315
3 140 308 141
3 140 315 308
3 308 319 141
3 142 314 143
3 142 320 314
3 143 311 144
3 143 314 311
3 311 317 144
3 308 313 312
3 312 319 308
3 308 315 313
3 313 314 309
3 309 316 313
3 314 320 309
3 312 313 310
3 313 316 310
3 316 318 310
3 311 314 313
3 313 315 311
3 315 317 311
3 8 7 324
3 7 142 324
3 126 8 324
3 34 31 321
3 31 128 321
3 144 34 321
3 127 126 323
3 126 142 323
3 142 126 324
3 128 127 322
3 127 143 322
3 143 127 323
3 128 144 321
3 144 128 322
3 142 143 323
3 143 144 322
3 73 9 335
3 9 130 335
3 10 76 333
3 116 10 333
3 27 116 328
3 148 27 328
3 129 32 334
3 32 145 334
3 147 35 327
3 35 148 327
3 74 73 332
3 332 73 335
3 75 74 326
3 326 74 332
3 76 75 330
3 75 326 330
3 76 330 333
3 328 116 333
3 130 129 325
3 325 129 334
3 130 325 335
3 145 146 331
3 145 331 334
3 146 147 329
3 146 329 331
3 147 327 329
3 327 148 328
3 331 325 334
3 325 331 336
3 325 332 335
3 332 325 336
3 330 326 337
3 326 332 336
3 326 336 337
3 327 328 337
3 329 327 337
3 330 328 333
3 328 330 337
3 331 329 336
3 336 329 337
3 77 13 347
3 13 103 347
3 14 80 346
3 153 14 346
3 103 24 340
3 24 149 340
3 149 36 342
3 36 151 342
3 150 37 343
3 37 152 343
3 152 38 341
3 38 153 341
3 78 77 344
3 344 77 347
3 79 78 338
3 338 78 344
3 80 79 345
3 79 338 345
3 80 345 346
3 103 340 347
3 340 149 342
3 151 150 339
3 339 150 343
3 151 339 342
3 152 341 343
3 341 153 346
3 339 338 344
3 338 339 348
3 345 338 348
3 342 339 344
3 339 343 348
3 340 342 344
3 340 344 347
3 343 341 348
3 345 341 346
3 341 345 348
3 14 351 15
3 153 351 14
3 15 351 162
3 22 352 23
3 157 352 22
3 23 352 154
3 153 38 162
3 156 350 38
3 161 162 38
3 38 350 161
3 39 154 157
3 39 349 155
3 157 158 39
3 158 349 39
3 162 351 153
3 154 352 157
3 155 160 156
3 155 159 160
3 155 349 159
3 160 350 156
3 159 349 158
3 161 350 160
3 168 16 15
3 168 15 162
3 22 21 157
3 21 163 157
3 157 163 158
3 158 165 159
3 163 164 158
3 158 164 165
3 159 166 160
3 159 165 166
3 160 167 161
3 166 167 160
3 161 168 162
3 167 168 161
3 16 356 17
3 168 356 16
3 17 356 169
3 20 355 21
3 172 355 20
3 21 355 163
3 167 40 168
3 167 354 40
3 169 168 40
3 40 354 170
3 163 41 164
3 41 163 172
3 41 353 164
3 171 353 41
3 163 355 172
3 164 353 165
3 166 165 171
3 165 353 171
3 166 354 167
3 170 166 171
3 170 354 166
3 169 356 168
3 81 17 368
3 17 169 368
3 44 18 363
3 18 85 363
3 169 40 361
3 40 173 361
3 173 42 362
3 42 175 362
3 174 43 360
3 43 177 360
3 176 44 363
3 82 81 358
3 358 81 368
3 83 82 364
3 82 358 364
3 84 83 357
3 357 83 364
3 85 84 369
3 84 357 369
3 363 85 369
3 169 361 368
3 361 173 362
3 175 174 359
3 359 174 360
3 175 359 362
3 177 176 365
3 176 363 365
3 360 177 365
3 357 364 366
3 365 357 366
3 357 365 369
3 358 361 367
3 361 358 368
3 364 358 367
3 359 360 366
3 362 359 367
3 359 366 367
3 360 365 366
3 361 362 367
3 365 363 369
3 366 364 367
3 44 372 18
3 18 372 87
3 19 370 45
3 86 370 19
3 179 372 44
3 45 370 178
3 87 371 86
3 86 371 370
3 87 372 371
3 178 371 179
3 370 371 178
3 371 372 179
3 45 379 19
3 19 379 92
3 88 384 20
3 20 384 172
3 172 377 41
3 41 377 180
3 183 379 45
3 180 378 46
3 46 378 182
3 181 376 47
3 47 376 184
3 89 374 88
3 374 384 88
3 90 380 89
3 89 380 374
3 91 373 90
3 373 380 90
3 92 385 91
3 91 385 373
3 379 385 92
3 172 384 377
3 377 378 180
3 182 375 181
3 375 376 181
3 182 378 375
3 184 381 183
3 183 381 379
3 376 381 184
3 373 382 380
3 381 382 373
3 373 385 381
3 374 383 377
3 377 384 374
3 380 383 374
3 375 382 376
3 378 383 375
3 375 383 382
3 376 382 381
3 377 383 378
3 381 385 379
3 382 383 380
3 93 395 0
3 0 395 106
3 23 394 96
3 154 394 23
3 106 388 25
3 25 388 185
3 39 389 154
3 188 389 39
3 185 390 48
3 48 390 187
3 186 391 49
3 49 391 188
3 94 392 93
3 392 395 93
3 95 386 94
3 386 392 94
3 96 393 95
3 95 393 386
3 96 394 393
3 106 395 388
3 389 394 154
3 388 390 185
3 187 387 186
3 387 391 186
3 187 390 387
3 188 391 389
3 387 392 386
3 386 396 387
3 393 396 386
3 390 392 387
3 387 396 391
3 388 392 390
3 388 395 392
3 391 396 389
3 393 394 389
3 389 396 393
3 149 24 104
3 105 25 185
3 149 398 36
3 36 398 190
3 48 399 185
3 189 399 48
3 105 397 104
3 104 398 149
3 397 398 104
3 185 399 105
3 105 399 397
3 190 397 189
3 397 399 189
3 190 398 397
3 122 26 114
3 27 148 115
3 122 402 29
3 29 402 191
3 35 401 148
3 192 401 35
3 115 400 114
3 114 402 122
3 400 402 114
3 148 401 115
3 115 401 400
3 191 400 192
3 191 402 400
3 400 401 192
3 121 409 28
3 28 409 132
3 29 411 119
3 191 411 29
3 131 412 32
3 32 412 145
3 147 410 35
3 35 410 192
3 119 407 120
3 119 411 407
3 120 405 121
3 120 407 405
3 405 409 121
3 132 404 131
3 404 412 131
3 132 409 404
3 145 406 146
3 145 412 406
3 146 408 147
3 406 408 146
3 408 410 147
3 192 403 191
3 403 411 191
3 192 410 403
3 403 408 407
3 407 411 403
3 403 410 408
3 405 406 404
3 404 409 405
3 406 412 404
3 405 407 406
3 407 408 406
3 30 413 33
3 125 413 30
3 34 415 31
3 31 415 123
3 33 413 141
3 139 415 34
3 123 416 124
3 123 415 139
3 139 416 123
3 124 414 125
3 140 414 124
3 124 416 140
3 141 413 125
3 125 414 141
3 140 416 139
3 141 414 140
3 36 421 151
3 190 421 36
3 150 422 37
3 37 422 194
3 187 424 48
3 48 424 189
3 49 423 186
3 193 423 49
3 151 420 150
3 420 422 150
3 151 421 420
3 186 419 187
3 186 423 419
3 419 424 187
3 189 417 190
3 189 424 417
3 417 421 190
3 194 418 193
3 418 423 193
3 194 422 418
3 419 420 417
3 417 424 419
3 420 421 417
3 418 420 419
3 419 423 418
3 418 422 420
3 37 426 152
3 194 426 37
3 152 156 38
3 188 39 155
3 188 427 49
3 49 427 193
3 152 426 156
3 156 425 155
3 155 427 188
3 425 427 155
3 156 426 425
3 193 425 194
3 193 427 425
3 425 426 194
3 173 40 170
3 171 41 180
3 173 429 42
3 42 429 196
3 46 430 180
3 195 430 46
3 171 428 170
3 170 429 173
3 428 429 170
3 180 430 171
3 171 430 428
3 196 428 195
3 428 430 195
3 196 429 428
3 42 437 175
3 196 437 42
3 174 435 43
3 43 435 198
3 182 438 46
3 46 438 195
3 47 436 181
3 197 436 47
3 175 434 174
3 434 435 174
3 175 437 434
3 181 433 182
3 181 436 433
3 433 438 182
3 195 431 196
3 195 438 431
3 431 437 196
3 198 432 197
3 432 436 197
3 198 435 432
3 433 434 431
3 431 438 433
3 434 437 431
3 432 434 433
3 433 436 432
3 432 435 434
3 43 445 177
3 198 445 43
3 176 443 44
3 44 443 179
3 178 446 45
3 45 446 183
3 184 444 47
3 47 444 197
3 177 440 176
3 440 443 176
3 177 445 440
3 179 442 178
3 442 446 178
3 179 443 442
3 183 439 184
3 183 446 439
3 439 444 184
3 197 441 198
3 197 444 441
3 441 445 198
3 439 442 441
3 441 444 439
3 439 446 442
3 441 442 440
3 440 445 441
3 442 443 440
3 199 201 50
3 201 200 51
3 200 201 199
3 199 50 447
3 50 202 447
3 51 200 448
3 207 51 448
3 52 203 202
3 206 53 207
3 200 199 449
3 204 199 447
3 199 204 449
3 200 205 448
3 205 200 449
3 202 203 447
3 203 204 447
3 204 205 449
3 205 206 448
3 206 207 448
3 201 450 50
3 50 450 202
3 51 454 201
3 207 451 51
3 451 454 51
3 52 452 54
3 202 452 52
3 57 453 53
3 53 453 207
3 54 452 208
3 208 450 55
3 55 455 209
3 450 455 55
3 209 454 56
3 56 451 210
3 56 454 451
3 210 453 57
3 201 455 450
3 454 455 201
3 450 452 202
3 207 453 451
3 208 452 450
3 209 455 454
3 451 453 210
3 52 54 203
3 214 57 53
3 214 53 206
3 54 211 203
3 203 211 204
3 204 213 205
3 211 212 204
3 212 213 204
3 205 213 206
3 213 214 206
3 54 208 211
3 208 55 456
3 55 215 456
3 56 210 457
3 216 56 457
3 214 210 57
3 211 208 456
3 210 214 457
3 212 211 456
3 213 212 458
3 215 212 456
3 212 215 458
3 214 213 457
3 213 216 457
3 216 213 458
3 215 216 458
3 209 215 55
3 216 209 56
3 216 215 209
3 217 219 58
3 219 218 59
3 218 219 217
3 217 58 459
3 58 220 459
3 59 218 460
3 225 59 460
3 60 221 220
3 224 61 225
3 218 217 461
3 222 217 459
3 217 222 461
3 218 223 460
3 223 218 461
3 220 221 459
3 221 222 459
3 222 223 461
3 223 224 460
3 224 225 460
3 219 462 58
3 58 462 220
3 59 466 219
3 225 463 59
3 463 466 59
3 60 465 62
3 220 465 60
3 65 464 61
3 61 464 225
3 62 465 226
3 226 462 63
3 63 467 227
3 462 467 63
3 227 466 64
3 64 463 228
3 64 466 463
3 228 464 65
3 219 467 462
3 466 467 219
3 462 465 220
3 225 464 463
3 226 465 462
3 227 467 466
3 463 464 228
3 60 62 221
3 232 65 61
3 232 61 224
3 62 229 221
3 221 230 222
3 221 229 230
3 222 231 223
3 230 231 222
3 231 224 223
3 231 232 224
3 62 226 229
3 226 63 468
3 63 233 468
3 64 228 469
3 234 64 469
3 232 228 65
3 229 226 468
3 228 232 469
3 230 229 468
3 231 230 470
3 233 230 468
3 230 233 470
3 232 231 469
3 231 234 469
3 234 231 470
3 233 234 470
3 227 233 63
3 234 227 64
3 227 234 233
4 403 408 475 477
4 439 446 381 473
4 240 472 338 478
4 403 408 410 475
4 408 329 475 477
4 192 403 410 475
4 293 411 291 475
4 240 338 471 478
4 240 266 472 478
4 442 446 439 473
4 192 410 401 475
4 240 471 266 478
4 195 431 438 474
4 437 431 196 474
4 423 418 193 472
4 374 380 269 474
4 194 418 422 472
4 424 189 417 471
4 417 190 421 471
4 403 407 408 477
4 195 438 430 474
4 437 196 429 474
4 191 411 403 475
4 427 423 193 472
4 194 422 426 472
4 424 399 189 471
4 421 190 398 471
4 446 473 442 481
4 326 242 475 477
4 326 242 330 475
4 334 412 480 482
4 379 381 446 473
4 191 402 411 475
4 329 337 475 477
4 404 480 412 482
4 379 473 446 481
4 329 477 408 482
4 198 435 445 484
4 384 374 269 474
4 332 476 261 477
4 293 475 301 477
4 418 472 423 478
4 422 472 418 478
4 191 403 400 475
4 417 424 471 478
4 421 417 471 478
4 192 400 403 475
4 431 438 474 479
4 431 474 437 479
4 129 412 131 480
4 274 258 240 471
4 336 476 332 477
4 266 386 472 478
4 269 380 244 474
4 293 291 301 475
4 329 337 327 475
4 410 327 401 475
4 428 196 431 474
4 195 428 431 474
4 266 471 386 478
4 435 479 360 484
4 193 418 425 472
4 425 418 194 472
4 334 480 476 482
4 267 380 373 483
4 189 397 417 471
4 417 397 190 471
4 440 445 365 473
4 191 400 402 475
4 192 401 400 475
4 343 472 422 478
4 195 430 428 474
4 428 429 196 474
4 423 472 391 478
4 435 360 445 484
4 385 473 379 481
4 193 425 427 472
4 425 194 426 472
4 233 248 297 475
4 189 399 397 471
4 398 190 397 471
4 329 336 477 482
4 421 471 342 478
4 390 471 424 478
4 437 474 362 479
4 244 474 380 483
4 378 474 438 479
4 271 473 385 481
4 379 385 381 473
4 423 427 391 472
4 426 422 343 472
4 360 473 445 484
4 265 338 240 472
4 411 402 291 475
4 267 373 473 483
4 215 264 394 472
4 336 476 477 482
4 408 477 407 482
4 383 380 474 483
4 365 445 360 473
4 329 331 336 482
4 237 384 269 474
4 129 334 412 480
4 360 479 473 484
4 438 378 430 474
4 338 472 348 478
4 362 437 429 474
4 267 373 385 473
4 396 472 386 478
4 383 479 380 483
4 382 373 380 483
4 296 477 476 482
4 399 424 390 471
4 421 398 342 471
4 336 331 325 482
4 262 294 297 475
4 279 276 261 476
4 244 380 267 483
4 333 273 234 475
4 307 5 302 133
4 8 126 324 303
4 258 266 240 471
4 330 273 333 475
4 277 178 371 235
4 382 380 479 483
4 336 325 476 482
4 337 326 330 475
4 129 476 334 480
4 326 475 337 477
4 344 274 240 471
4 383 474 479 483
4 209 264 215 472
4 441 445 440 473
4 245 358 368 474
4 241 276 279 476
4 382 473 373 483
4 247 386 393 472
4 265 240 266 472
4 131 311 129 480
4 347 218 257 471
4 262 297 248 475
4 245 368 200 474
4 435 432 479 484
4 336 325 332 476
4 406 404 412 482
4 396 393 386 472
4 345 348 338 472
4 326 260 242 477
4 274 257 258 471
4 237 199 384 474
4 383 380 374 474
4 265 346 345 472
4 279 261 335 476
4 262 475 242 477
4 262 294 475 477
4 371 235 178 481
4 407 477 293 482
4 267 385 271 473
4 178 235 277 481
4 247 394 264 472
4 271 385 379 481
4 238 395 275 471
4 297 292 233 475
4 333 234 328 475
4 265 345 338 472
4 329 406 331 482
4 366 473 360 479
4 248 233 227 475
4 400 115 470 475
4 470 114 400 475
4 275 395 392 471
4 360 435 359 479
4 382 479 473 483
4 247 393 394 472
4 313 476 129 480
4 301 475 294 477
4 241 250 276 476
4 248 227 273 475
4 297 294 292 475
4 330 333 328 475
4 217 388 395 471
4 340 218 347 471
4 445 473 441 484
4 369 236 270 481
4 275 266 258 471
4 394 393 389 472
4 346 341 345 472
4 359 437 362 479
4 296 300 477 482
4 438 375 378 479
4 239 264 209 472
4 336 332 326 477
4 339 471 338 478
4 289 296 476 482
4 386 471 387 478
4 458 155 425 472
4 425 156 458 472
4 296 243 476 477
4 394 389 215 472
4 216 341 346 472
4 239 216 346 472
4 369 473 236 481
4 290 301 294 477
4 130 325 129 476
4 338 344 240 471
4 377 374 384 474
4 358 361 368 474
4 369 357 236 473
4 335 261 332 476
4 358 474 245 483
4 217 395 238 471
4 329 408 406 482
4 261 476 243 477
4 325 334 129 476
4 311 131 315 480
4 234 470 115 475
4 470 233 114 475
4 364 358 268 483
4 273 227 234 475
4 227 233 234 475
4 348 472 343 478
4 199 449 171 474
4 170 449 200 474
4 130 129 314 476
4 286 101 110 282
4 391 472 396 478
4 368 361 200 474
4 199 377 384 474
4 273 330 242 475
4 329 336 337 477
4 268 358 245 483
4 247 266 386 472
4 382 380 383 479
4 209 215 216 472
4 365 440 473 481
4 274 344 257 471
4 216 458 156 472
4 458 215 155 472
4 427 155 389 472
4 426 341 156 472
4 442 178 446 481
4 388 105 399 471
4 398 104 340 471
4 114 402 400 475
4 401 115 400 475
4 260 332 261 477
4 362 474 367 479
4 378 383 474 479
4 332 260 326 477
4 430 171 428 474
4 170 429 428 474
4 263 296 290 477
4 105 217 461 471
4 104 461 218 471
4 439 473 381 484
4 311 313 129 480
4 373 381 385 473
4 369 365 357 473
4 442 473 440 481
4 421 342 339 478
4 314 129 313 476
4 347 257 344 471
4 387 390 424 478
4 218 219 257 471
4 426 156 425 472
4 425 155 427 472
4 434 437 359 479
4 245 269 244 474
4 449 199 200 474
4 433 375 438 479
4 427 389 391 472
4 426 343 341 472
4 234 233 470 475
4 365 473 369 481
4 420 339 422 478
4 440 442 441 473
4 439 441 442 473
4 316 250 241 476
4 423 387 419 478
4 397 399 105 471
4 397 104 398 471
4 422 339 343 478
4 379 277 271 481
4 289 300 296 482
4 399 390 388 471
4 398 340 342 471
4 423 391 387 478
4 265 239 346 472
4 9 130 303 320
4 359 435 434 479
4 117 4 302 318
4 445 441 198 484
4 370 178 371 277
4 292 402 114 475
4 328 115 401 475
4 170 361 429 474
4 377 171 430 474
4 261 276 243 476
4 291 402 292 475
4 327 328 401 475
4 360 359 366 479
4 269 245 237 474
4 216 215 458 472
4 201 199 237 474
4 310 117 476 480
4 367 474 358 483
4 309 316 241 476
4 461 217 218 471
4 198 432 435 484
4 215 389 155 472
4 216 156 341 472
4 239 209 216 472
4 439 441 473 484
4 201 245 200 474
4 117 289 476 480
4 217 105 388 471
4 218 340 104 471
4 299 289 296 476
4 335 332 325 476
4 342 471 339 478
4 245 474 244 483
4 387 471 390 478
4 243 299 296 476
4 260 262 242 477
4 201 200 199 474
4 422 418 420 478
4 419 418 423 478
4 273 262 248 475
4 421 420 417 478
4 392 395 388 471
4 344 340 347 471
4 417 419 424 478
4 117 316 310 476
4 435 432 434 479
4 387 386 392 471
4 344 338 339 471
4 412 404 131 480
4 219 218 217 471
4 434 431 437 479
4 421 339 420 478
4 326 337 336 477
4 359 362 367 479
4 431 433 438 479
4 293 477 300 482
4 387 424 419 478
4 375 383 378 479
4 257 238 258 471
4 314 309 130 476
4 233 292 114 475
4 234 115 328 475
4 258 238 275 471
4 201 237 245 474
4 117 289 299 476
4 325 130 335 476
4 247 264 239 472
4 245 368 259 200
4 361 170 200 474
4 199 171 377 474
4 271 277 235 481
4 361 362 429 474
4 378 377 430 474
4 243 276 250 476
4 266 247 265 472
4 243 250 299 476
4 310 476 313 480
4 271 236 267 473
4 366 365 360 473
4 257 219 238 471
4 267 473 236 483
4 389 393 396 472
4 348 345 341 472
4 364 367 358 483
4 353 349 204 211
4 243 296 263 477
4 339 338 348 478
4 316 313 310 476
4 396 386 387 478
4 314 313 309 476
4 367 479 474 483
4 117 118 289 480
4 242 262 273 475
4 311 315 313 480
4 296 300 290 477
4 473 479 382 484
4 374 89 269 380
4 357 236 473 483
4 473 479 366 483
4 339 348 343 478
4 389 396 391 472
4 341 343 348 472
4 310 118 117 480
4 293 301 300 477
4 391 396 387 478
4 241 320 130 279
4 219 217 238 471
4 436 375 433 484
4 405 120 295 482
4 365 443 440 481
4 331 146 406 329
4 294 290 263 67
4 382 381 373 473
4 357 365 366 473
4 245 244 268 483
4 439 381 444 484
4 413 33 141 319
4 383 374 377 474
4 361 358 367 474
4 34 317 415 139
4 68 290 263 296
4 301 291 292 475
4 337 328 327 475
4 9 130 320 279
4 241 9 320 279
4 375 479 433 484
4 359 366 479 483
4 387 392 390 471
4 342 344 339 471
4 259 368 51 200
4 359 479 367 483
4 400 192 403 191
4 262 297 294 66
4 409 28 132 480
4 347 344 257 274
4 294 301 292 475
4 337 330 328 475
4 330 326 75 242
4 364 358 82 268
4 101 286 110 111
4 324 142 7 320
4 412 131 32 129
4 307 318 6 136
4 165 159 349 158
4 98 109 285 108
4 138 33 304 319
4 89 244 269 380
4 382 479 375 484
4 247 393 386 95
4 321 317 34 144
4 382 383 375 479
4 397 417 190 189
4 195 428 196 431
4 193 194 425 418
4 388 390 392 471
4 342 340 344 471
4 249 272 219 238
4 309 313 316 476
4 260 261 243 477
4 245 259 201 200
4 357 473 366 483
4 408 406 146 329
4 476 480 289 482
4 381 473 382 484
4 436 376 375 484
4 160 167 350 161
4 101 110 282 100
4 298 409 405 480
4 315 416 139 140
4 263 262 260 477
4 129 311 314 313
4 359 367 366 483
4 289 480 298 482
4 297 262 248 66
4 265 247 239 472
4 422 420 150 339
4 387 423 419 186
4 433 479 432 484
4 311 144 322 143
4 364 268 83 483
4 373 267 90 380
4 408 407 406 482
4 383 377 378 474
4 361 367 362 474
4 327 410 147 329
4 332 74 326 260
4 294 263 262 67
4 298 480 405 482
4 387 391 423 186
4 343 422 150 339
4 414 140 308 141
4 130 9 335 279
4 233 248 63 297
4 436 433 432 484
4 267 244 90 380
4 351 57 15 162
4 217 105 461 222
4 199 449 204 171
4 245 82 358 268
4 458 215 212 155
4 233 470 114 230
4 234 231 115 470
4 156 216 213 458
4 357 364 83 483
4 177 365 440 445
4 184 444 439 381
4 104 223 218 461
4 200 449 170 205
4 414 132 124 125
4 123 124 416 131
4 260 332 74 261
4 88 269 384 374
4 130 320 241 309
4 333 234 273 64
4 443 176 365 440
4 183 381 439 446
4 409 118 28 480
4 295 298 405 482
4 145 412 334 331
4 376 444 381 484
4 300 301 290 477
4 295 289 298 482
4 407 120 405 482
4 11 287 65 112
4 60 97 1 283
4 264 55 215 394
4 118 132 28 480
4 405 480 404 482
4 61 284 12 102
4 346 345 80 265
4 257 77 347 274
4 163 21 52 355
4 267 236 244 483
4 385 373 267 91
4 310 136 305 137
4 236 83 268 483
4 410 408 147 329
4 129 32 412 334
4 368 81 358 245
4 138 306 137 312
4 263 243 68 296
4 372 179 443 481
4 131 132 315 480
4 16 53 356 168
4 371 179 442 178
4 411 293 291 119
4 295 293 300 482
4 298 118 409 480
4 419 420 418 478
4 323 143 142 314
4 260 243 263 477
4 345 338 79 265
4 420 419 417 478
4 409 404 405 480
4 28 298 118 409
4 94 266 275 386
4 84 369 236 270
4 289 295 300 482
4 84 369 357 236
4 365 177 360 445
4 184 376 444 381
4 421 420 339 151
4 387 424 187 419
4 434 432 433 479
4 236 357 83 483
4 433 431 434 479
4 250 316 318 117
4 333 330 76 273
4 242 326 75 260
4 271 277 379 385
4 437 359 362 175
4 182 438 375 378
4 363 443 365 481
4 132 131 404 480
4 386 266 247 95
4 265 338 79 240
4 305 133 117 134
4 323 127 130 126
4 435 360 359 174
4 181 436 376 375
4 371 372 278 481
4 257 218 347 59
4 230 221 285 229
4 117 4 318 250
4 451 252 17 246
4 376 382 375 484
4 125 28 30 413
4 32 31 415 123
4 257 219 272 238
4 359 437 434 175
4 438 433 182 375
4 85 369 270 481
4 239 56 346 216
4 442 440 443 481
4 267 271 385 91
4 384 237 269 88
4 371 370 277 86
4 372 278 87 371
4 434 435 359 174
4 436 181 433 375
4 275 392 94 386
4 312 132 118 480
4 316 241 250 71
4 364 366 367 483
4 85 270 278 481
4 237 199 50 384
4 247 394 393 96
4 81 368 259 245
4 321 34 317 415
4 3 113 288 226
4 272 254 10 463
4 203 353 204 211
4 224 231 286 232
4 213 206 214 350
4 247 264 394 96
4 421 339 342 151
4 187 424 387 390
4 426 156 341 152
4 389 427 188 155
4 412 145 406 331
4 134 306 135 118
4 322 128 129 127
4 442 371 178 481
4 439 444 441 484
4 80 346 265 239
4 442 179 371 481
4 278 235 371 481
4 4 117 299 250
4 217 58 238 395
4 312 118 310 480
4 273 330 76 242
4 385 277 379 92
4 321 31 32 128
4 30 28 135 304
4 271 277 385 92
4 421 36 398 190
4 422 37 194 426
4 196 42 437 429
4 371 179 372 481
4 424 48 189 399
4 49 427 423 193
4 195 46 430 438
4 344 347 77 274
4 381 382 376 484
4 197 432 198 484
4 293 411 407 119
4 308 315 132 480
4 390 399 388 185
4 398 149 342 340
4 405 404 406 482
4 427 391 49 423
4 69 243 250 299
4 426 422 37 343
4 176 363 443 365
4 381 183 379 446
4 436 197 444 484
4 35 401 192 410
4 316 309 241 71
4 256 10 64 463
4 279 73 335 261
4 312 310 313 480
4 132 308 312 319
4 212 204 349 211
4 86 277 371 235
4 371 278 87 235
4 299 69 243 296
4 238 275 395 93
4 271 235 270 481
4 402 292 114 122
4 328 148 401 115
4 105 388 399 185
4 340 398 149 104
4 23 154 352 208
4 429 361 170 173
4 377 180 430 171
4 343 426 341 152
4 427 188 391 389
4 241 320 9 72
4 197 198 441 484
4 201 454 246 255
4 405 406 407 482
4 250 70 4 318
4 249 58 0 238
4 275 392 395 93
4 444 376 436 484
4 217 459 105 222
4 171 204 199 447
4 155 215 212 456
4 233 114 468 230
4 104 218 223 460
4 200 170 448 205
4 231 234 115 469
4 216 457 156 213
4 85 363 369 481
4 372 85 278 363
4 372 443 363 481
4 118 298 289 480
4 308 132 312 480
4 435 445 43 198
4 436 197 47 444
4 304 33 413 319
4 268 244 236 483
4 316 70 250 318
4 35 401 410 327
4 277 370 379 92
4 85 278 363 481
4 51 81 368 259
4 444 47 436 376
4 445 43 360 435
4 357 366 364 483
4 405 409 298 121
4 283 220 221 106
4 224 225 284 103
4 327 148 401 328
4 402 291 292 122
4 308 313 315 480
4 46 430 438 378
4 42 362 437 429
4 399 424 48 390
4 398 342 36 421
4 332 335 73 261
4 103 24 102 224
4 372 363 278 481
4 10 256 272 463
4 451 17 51 246
4 201 259 245 237
4 4 302 318 307
4 188 155 39 389
4 152 38 156 341
4 210 214 57 351
4 228 232 65 287
4 203 202 355 52
4 220 283 221 60
4 106 0 283 220
4 13 103 284 225
4 320 9 324 303
4 76 333 273 64
4 363 365 369 481
4 89 90 244 380
4 446 178 45 370
4 179 44 372 443
4 246 259 201 255
4 14 252 451 246
4 72 241 320 309
4 97 221 25 106
4 155 39 389 456
4 156 38 457 341
4 429 362 361 173
4 378 180 430 377
4 389 215 155 456
4 216 156 457 341
4 62 2 107 288
4 349 353 39 211
4 202 203 355 172
4 207 206 169 356
4 443 44 372 363
4 446 45 379 370
4 389 215 456 394
4 216 457 346 341
4 144 128 129 322
4 292 233 468 297
4 333 328 234 469
4 225 224 284 61
4 53 206 207 356
4 317 131 315 311
4 237 201 259 255
4 405 298 295 121
4 249 466 256 467
4 466 256 272 249
4 54 22 157 352
4 273 256 10 64
4 18 85 372 363
4 259 51 17 246
4 26 229 107 113
4 122 114 26 292
4 27 115 148 328
4 18 85 278 372
4 228 232 287 116
4 172 20 355 202
4 233 63 468 297
4 333 234 64 469
4 358 81 82 245
4 214 210 153 351
4 41 163 203 172
4 40 169 206 168
4 19 379 370 92
4 171 180 41 377
4 173 170 40 361
4 239 14 56 246
4 84 357 83 236
4 277 19 370 92
4 297 63 3 66
4 114 468 26 292
4 328 27 115 469
4 313 308 312 480
4 394 264 55 96
4 132 404 409 480
4 333 76 10 64
4 468 114 233 292
4 115 234 328 469
4 214 153 38 162
4 379 45 19 370
4 372 44 18 363
4 153 14 351 210
4 249 219 466 467
4 177 365 176 440
4 439 184 381 183
4 66 294 262 67
4 88 89 269 374
4 373 90 267 91
4 467 227 256 248
4 91 271 385 92
4 112 27 116 232
4 362 42 437 175
4 438 182 46 378
4 406 145 146 331
4 55 23 280 255
4 420 150 339 151
4 69 250 4 299
4 377 41 171 447
4 170 448 40 361
4 458 156 425 155
4 114 400 115 470
4 250 70 316 71
4 419 187 387 186
4 273 234 227 64
4 297 248 63 66
4 78 79 338 240
4 229 288 107 113
4 280 23 55 264
4 3 63 249 248
4 346 80 56 239
4 211 157 39 154
4 447 199 377 384
4 368 448 200 361
4 28 298 409 121
4 456 215 55 394
4 96 393 247 95
4 421 342 36 151
4 424 187 48 390
4 50 199 447 384
4 457 346 56 216
4 369 84 85 270
4 127 323 130 314
4 410 147 35 327
4 49 188 391 427
4 343 37 426 152
4 117 310 305 134
4 455 246 454 255
4 57 53 15 162
4 57 214 162 351
4 149 104 24 340
4 105 185 25 388
4 17 169 356 207
4 1 2 97 60
4 171 199 377 447
4 448 170 200 361
4 306 138 135 312
4 32 145 412 334
4 73 335 9 279
4 345 79 80 265
4 318 6 4 307
4 332 73 74 261
4 12 112 61 102
4 168 15 53 162
4 2 107 97 62
4 422 150 37 343
4 423 391 49 186
4 323 127 143 314
4 448 51 368 200
4 137 305 310 134
4 324 7 9 320
4 386 94 266 95
4 119 407 293 120
4 384 20 50 88
4 65 61 11 112
4 86 371 87 235
4 132 124 131 140
4 455 280 246 255
4 443 179 442 481
4 344 77 78 274
4 60 2 97 62
4 54 163 21 52
4 295 405 121 120
4 69 68 243 296
4 411 291 29 119
4 74 75 326 260
4 224 61 102 284
4 203 52 355 163
4 221 60 283 97
4 65 232 112 287
4 112 12 61 11
4 53 16 15 168
4 54 21 157 22
4 144 129 311 322
4 461 104 100 99
4 171 166 449 165
4 54 163 157 21
4 131 315 132 140
4 1 0 60 283
4 229 288 62 107
4 112 101 232 102
4 364 82 83 268
4 218 340 347 460
4 459 217 388 395
4 330 75 76 242
4 64 466 256 463
4 0 58 395 93
4 56 14 80 346
4 297 468 292 113
4 328 333 116 469
4 116 10 287 228
4 394 55 23 96
4 273 10 76 64
4 352 211 154 157
4 146 147 408 329
4 270 235 278 481
4 272 219 466 249
4 441 444 197 484
4 272 257 13 59
4 53 206 356 168
4 102 101 232 224
4 217 459 58 395
4 174 359 434 175
4 50 237 384 88
4 433 181 182 375
4 395 58 238 93
4 14 56 80 239
4 275 392 93 94
4 207 453 252 451
4 67 290 263 68
4 100 461 99 222
4 205 449 166 165
4 435 43 360 174
4 47 181 436 376
4 104 461 105 99
4 171 166 170 449
4 444 47 376 184
4 360 177 43 445
4 389 456 154 394
4 457 153 346 341
4 215 209 55 264
4 225 224 460 103
4 221 220 459 106
4 248 3 63 66
4 284 12 13 61
4 59 218 347 460
4 257 347 13 59
4 118 135 28 319
4 24 102 224 101
4 13 254 272 463
4 321 317 32 415
4 450 23 255 251
4 264 23 55 96
4 401 35 148 327
4 29 291 402 122
4 436 432 197 484
4 206 214 167 168
4 165 204 449 171
4 454 451 51 246
4 227 64 466 256
4 104 100 223 461
4 218 257 219 59
4 128 129 317 144
4 118 306 135 312
4 25 459 105 388
4 104 24 340 460
4 211 54 157 352
4 255 55 23 450
4 206 167 40 168
4 256 249 467 248
4 450 201 255 455
4 58 0 238 93
4 99 461 105 222
4 170 449 166 205
4 449 205 204 165
4 461 100 223 222
4 217 105 459 388
4 340 218 104 460
4 229 62 97 107
4 226 229 468 113
4 207 206 448 169
4 203 202 447 172
4 129 317 32 128
4 302 318 307 136
4 13 77 347 257
4 201 450 255 50
4 320 324 142 303
4 464 228 254 463
4 57 214 53 162
4 252 453 210 451
4 221 285 229 26
4 287 10 11 65
4 51 17 81 259
4 20 50 237 255
4 457 38 153 341
4 39 389 456 154
4 22 54 23 352
4 42 362 429 173
4 430 46 180 378
4 315 308 132 140
4 214 53 162 168
4 61 112 232 102
4 16 53 17 356
4 132 125 141 319
4 232 228 469 116
4 390 48 399 185
4 36 149 342 398
4 131 416 139 315
4 227 256 273 64
4 249 219 58 238
4 309 72 241 71
4 214 210 457 153
4 208 211 456 154
4 7 9 320 72
4 138 135 312 319
4 213 156 458 155
4 114 231 470 115
4 0 462 249 253
4 60 0 1 253
4 237 50 20 88
4 102 284 103 224
4 232 61 102 224
4 135 118 312 319
4 203 163 54 52
4 221 62 97 229
4 62 60 221 97
4 112 61 232 65
4 304 413 28 319
4 70 6 4 318
4 308 132 140 414
4 377 447 384 172
4 448 368 169 361
4 251 450 23 208
4 254 13 225 463
4 450 55 23 208
4 211 163 157 54
4 252 210 14 451
4 130 320 309 314
4 63 227 467 248
4 454 201 455 255
4 458 212 213 155
4 114 231 230 470
4 315 131 416 140
4 211 163 54 203
4 53 214 206 168
4 97 221 106 283
4 110 222 100 109
4 109 100 99 222
4 166 159 213 165
4 253 249 3 226
4 280 209 55 455
4 272 256 466 463
4 123 139 317 131
4 219 462 467 249
4 277 370 19 86
4 278 87 18 372
4 328 116 27 469
4 292 468 26 113
4 455 55 280 255
4 322 129 311 143
4 273 256 227 248
4 219 462 249 58
4 210 56 14 451
4 318 316 310 117
4 246 209 239 280
4 139 123 416 131
4 125 414 132 141
4 59 272 466 463
4 308 132 414 141
4 454 209 56 246
4 125 132 28 319
4 451 56 14 246
4 129 311 317 144
4 159 166 213 160
4 252 17 207 451
4 140 132 124 414
4 124 416 131 140
4 254 228 10 463
4 56 451 454 246
4 165 159 213 212
4 467 249 63 248
4 17 51 81 368
4 56 239 209 216
4 163 203 172 355
4 206 169 356 168
4 254 13 12 61
4 254 225 464 463
4 214 351 153 162
4 255 455 55 450
4 280 55 209 264
4 22 23 54 251
4 117 310 134 118
4 462 249 253 226
4 297 63 468 113
4 130 129 127 314
4 64 116 333 469
4 249 63 3 226
4 160 213 159 155
4 109 231 114 110
4 109 231 110 222
4 223 110 222 100
4 213 205 166 165
4 448 169 40 361
4 447 377 41 172
4 317 32 123 131
4 272 219 257 59
4 308 132 141 319
4 388 459 395 106
4 103 347 340 460
4 116 287 112 232
4 363 443 44 176
4 379 183 45 446
4 58 0 462 249
4 59 219 466 272
4 209 239 56 246
4 27 286 101 111
4 131 139 317 315
4 129 143 127 314
4 310 137 134 118
4 50 20 384 172
4 450 255 20 251
4 213 160 156 155
4 110 114 115 231
4 447 50 384 172
4 450 251 452 208
4 0 106 58 220
4 154 456 55 394
4 231 109 114 230
4 213 212 159 155
4 212 204 213 165
4 109 231 222 230
4 205 213 204 165
4 153 346 56 457
4 280 209 239 264
4 56 14 346 153
4 17 51 207 451
4 413 141 28 319
4 254 11 10 65
4 117 310 136 305
4 64 10 228 463
4 368 169 51 448
4 103 13 59 225
4 226 253 462 465
4 304 28 138 319
4 142 130 323 314
4 199 50 201 237
4 110 223 222 231
4 248 63 227 233
4 220 60 0 283
4 167 161 38 350
4 143 129 311 314
4 415 317 32 139
4 28 125 141 413
4 32 415 139 123
4 133 302 307 136
4 126 142 324 303
4 28 138 135 304
4 53 16 17 252
4 462 63 249 226
4 20 50 202 172
4 321 32 317 144
4 32 321 128 144
4 118 137 306 312
4 113 3 297 63
4 154 55 23 394
4 113 3 63 226
4 219 58 238 217
4 302 4 5 307
4 324 9 8 303
4 30 33 413 304
4 0 106 395 58
4 320 142 130 303
4 302 318 136 117
4 321 31 34 415
4 51 17 169 368
4 237 50 201 255
4 56 14 153 210
4 310 137 118 312
4 253 0 462 220
4 208 23 54 352
4 321 32 31 415
4 413 28 30 304
4 103 13 347 59
4 204 349 353 165
4 253 60 0 220
4 10 287 228 65
4 459 58 395 106
4 20 450 251 202
4 356 53 17 207
4 17 51 169 207
4 208 55 23 154
4 347 103 59 460
4 142 126 130 303
4 136 133 302 117
4 10 116 333 64
4 10 116 64 228
4 128 317 32 144
4 249 63 462 467
4 136 318 310 117
4 135 138 28 319
4 139 317 32 123
4 141 125 28 319
4 8 7 9 324
4 130 142 320 314
4 6 5 4 307
4 340 24 103 460
4 25 459 388 106
4 51 201 259 200
4 251 23 54 208
4 220 462 253 465
4 466 227 256 467
4 20 50 255 450
4 306 134 137 118
4 143 322 129 127
4 254 10 228 65
4 452 251 450 202
4 126 130 323 142
4 117 136 133 305
4 53 17 207 252
4 58 462 0 220
4 450 20 50 202
4 159 349 212 165
4 110 282 100 223
4 224 103 24 460
4 459 25 221 106
4 254 228 464 65
4 349 204 212 165
4 448 40 169 206
4 447 41 203 172
4 229 26 468 113
4 220 253 60 465
4 27 116 232 469
4 457 153 38 214
4 456 211 39 154
4 452 251 54 208
4 453 53 207 252
4 1 2 60 253
4 353 204 165 171
4 159 212 349 155
4 230 109 114 285
4 100 223 282 104
4 52 251 452 202
4 62 253 226 465
4 62 60 2 253
4 21 54 52 251
4 105 99 222 281
4 205 166 170 354
4 286 231 110 115
4 156 160 213 350
4 54 21 22 251
4 453 210 57 252
4 464 225 254 61
4 58 459 220 106
4 103 225 59 460
4 11 254 61 65
4 12 11 254 61
4 50 447 202 172
4 57 15 53 252
4 15 16 53 252
4 207 51 169 448
4 226 468 63 113
4 64 228 116 469
4 208 456 55 154
4 153 56 210 457
4 253 62 60 465
4 54 52 251 452
4 453 57 53 252
4 61 254 464 65
4 293 477 411 475
4 293 411 477 407
4 403 411 477 475
4 403 477 411 407
4 410 329 475 408
4 475 329 410 327
4 482 325 334 331
4 482 334 325 476
4 263 294 477 290
4 477 294 263 262
4 481 236 271 473
4 481 271 236 270
4 275 386 471 392
4 471 386 275 266
4 476 130 241 309
4 250 117 476 316
4 476 117 250 299
4 130 279 476 241
4 476 279 130 335
4 39 158 353 349
4 39 353 158 164
4 165 353 158 349
4 165 158 353 164
4 482 120 293 407
4 482 293 120 295
4 344 240 78 338
4 78 240 344 274
4 98 109 281 285
4 98 281 109 99
4 222 109 281 99
4 412 331 482 334
4 482 331 412 406
4 370 446 277 379
4 370 277 446 178
4 481 277 446 379
4 481 446 277 178
4 411 402 29 291
4 29 402 411 191
4 221 230 281 222
4 221 281 230 285
4 109 281 230 222
4 109 230 281 285
4 224 231 282 286
4 224 282 231 223
4 110 282 231 286
4 110 231 282 223
4 213 206 354 205
4 354 206 213 350
4 354 166 213 205
4 246 201 51 454
4 246 51 201 259
4 98 25 285 281
4 221 285 25 281
4 41 171 203 353
4 41 203 171 447
4 204 203 171 353
4 204 171 203 447
4 105 25 221 459
4 221 25 105 281
4 221 222 105 459
4 105 222 221 281
4 223 104 224 282
4 223 224 104 460
4 24 224 104 282
4 24 104 224 460
4 170 205 206 448
4 206 205 170 354
4 206 40 170 448
4 170 40 206 354
4 26 114 229 468
4 26 229 114 285
4 230 229 114 468
4 230 114 229 285
4 27 115 232 286
4 27 232 115 469
4 231 232 115 286
4 231 115 232 469
4 212 155 211 349
4 212 211 155 456
4 39 211 155 349
4 39 155 211 456
4 156 38 214 457
4 214 38 156 350
4 214 213 156 457
4 156 213 214 350
4 317 129 131 311
4 131 129 317 32
4 171 170 474 449
4 171 474 170 428
4 104 105 471 397
4 471 105 104 461
4 288 229 226 113
4 288 226 229 62
4 352 211 208 154
4 352 208 211 54
4 107 26 97 229
4 107 97 26 108
4 221 97 26 229
4 221 26 97 108
4 27 112 101 232
4 27 101 112 111
4 38 162 168 214
4 168 162 38 161
4 168 167 38 214
4 38 167 168 161
4 211 164 353 39
4 61 13 225 254
4 61 225 13 284
4 157 39 163 211
4 157 163 39 158
4 164 163 39 211
4 164 39 163 158
4 246 455 209 280
4 209 455 246 454
4 163 203 164 41
4 163 164 203 211
4 353 164 203 41
4 353 203 164 211
4 232 286 101 27
4 101 286 232 224
4 118 319 132 312
4 132 319 118 28
4 214 350 167 38
4 167 350 214 206
4 463 13 59 272
4 463 59 13 225
4 52 202 20 251
4 20 202 52 355
4 20 21 52 251
4 52 21 20 355
4 62 2 3 253
4 3 2 62 288
4 3 226 62 253
4 62 226 3 288
4 57 15 14 351
4 14 15 57 252
4 14 210 57 351
4 57 210 14 252
4 221 108 285 26
4 167 160 354 166
4 167 354 160 350
4 213 354 160 166
4 213 160 354 350
4 224 282 101 286
4 224 101 282 24
4 354 206 167 40
4 354 167 206 350
4 97 25 108 98
4 97 108 25 221
4 285 108 25 98
4 285 25 108 221

CELL_TYPES 2672
1
1
1
1
1
1
1
1
1
1
1
1
1
1
1
1
1
1
1
1
1
1
1
1
1
1
1
1
1
1
1
1
1
1
1
1
1
1
1
1
1
1
1
1
1
1
1
1
1
1
1
1
1
1
1
1
1
1
1
1
1
1
1
1
1
1
3
3
3
3
3
3
3
3
3
3
3
3
3
3
3
3
3
3
3
3
3
3
3
3
3
3
3
3
3
3
3
3
3
3
3
3
3
3
3
3
3
3
3
3
3
3
3
3
3
3
3
3
3
3
3
3
3
3
3
3
3
3
3
3
3
3
3
3
3
3
3
3
3
3
3
3
3
3
3
3
3
3
3
3
3
3
3
3
3
3
3
3
3
3
3
3
3
3
3
3
3
3
3
3
3
3
3
3
3
3
3
3
3
3
3
3
3
3
3
3
3
3
3
3
3
3
3
3
3
3
3
3
3
3
3
3
3
3
3
3
3
3
3
3
3
3
3
3
3
3
3
3
3
3
3
3
3
3
3
3
3
3
3
3
3
3
3
3
3
3
3
3
3
3
3
3
3
3
3
3
3
3
3
3
3
3
3
3
3
3
3
3
3
3
3
3
3
3
3
3
3
3
3
3
3
3
3
3
3
3
3
3
3
3
3
3
3
3
3
3
3
3
3
3
3
3
3
3
3
3
3
3
3
3
3
3
3
3
3
3
3
3
3
3
3
3
3
3
3
3
3
3
3
3
3
3
3
3
3
3
3
3
3
3
3
3
3
3
5
5
5
5
5
5
5
5
5
5
5
5
5
5
5
5
5
5
5
5
5
5
5
5
5
5
5
5
5
5
5
5
5
5
5
5
5
5
5
5
5
5
5
5
5
5
5
5
5
5
5
5
5
5
5
5
5
5
5
5
5
5
5
5
5
5
5
5
5
5
5
5
5
5
5
5
5
5
5
5
5
5
5
5
5
5
5
5
5
5
5
5
5
5
5
5
5
5
5
5
5
5
5
5
5
5
5
5
5
5
5
5
5
5
5
5
5
5
5
5
5
5
5
5
5
5
5
5
5
5
5
5
5
5
5
5
5
5
5
5
5
5
5
5
5
5
5
5
5
5
5
5
5
5
5
5
5
5
5
5
5
5
5
5
5
5
5
5
5
5
5
5
5
5
5
5
5
5
5
5
5
5
5
5
5
5
5
5
5
5
5
5
5
5
5
5
5
5
5
5
5
5
5
5
5
5
5
5
5
5
5
5
5
5
5
5
5
5
5
5
5
5
5
5
5
5
5
5
5
5
5
5
5
5
5
5
5
5
5
5
5
5
5
5
5
5
5
5
5
5
5
5
5
5
5
5
5
5
5
5
5
5
5
5
5
5
5
5
5
5
5
5
5
5
5
5
5
5
5
5
5
5
5
5
5
5
5
5
5
5
5
5
5
5
5
5
5
5
5
5
5
5
5
5
5
5
5
5
5
5
5
5
5
5
5
5
5
5
5
5
5
5
5
5
5
5
5
5
5
5
5
5
5
5
5
5
5
5
5
5
5
5
5
5
5
5
5
5
5
5
5
5
5
5
5
5
5
5
5
5
5
5
5
5
5
5
5
5
5
5
5
5
5
5
5
5
5
5
5
5
5
5
5
5
5
5
5
5
5
5
5
5
5
5
5
5
5
5
5
5
5
5
5
5
5
5
5
5
5
5
5
5
5
5
5
5
5
5
5
5
5
5
5
5
5
5
5
5
5
5
5
5
5
5
5
5
5
5
5
5
5
5
5
5
5
5
5
5
5
5
5
5
5
5
5
5
5
5
5
5
5
5
5
5
5
5
5
5
5
5
5
5
5
5
5
5
5
5
5
5
5
5
5
5
5
5
5
5
5
5
5
5
5
5
5
5
5
5
5
5
5
5
5
5
5
5
5
5
5
5
5
5
5
5
5
5
5
5
5
5
5
5
5
5
5
5
5
5
5
5
5
5
5
5
5
5
5
5
5
5
5
5
5
5
5
5
5
5
5
5
5
5
5
5
5
5
5
5
5
5
5
5
5
5
5
5
5
5
5
5
5
5
5
5
5
5
5
5
5
5
5
5
5
5
5
5
5
5
5
5
5
5
5
5
5
5
5
5
5
5
5
5
5
5
5
5
5
5
5
5
5
5
5
5
5
5
5
5
5
5
5
5
5
5
5
5
5
5
5
5
5
5
5
5
5
5
5
5
5
5
5
5
5
5
5
5
5
5
5
5
5
5
5
5
5
5
5
5
5
5
5
5
5
5
5
5
5
5
5
5
5
5
5
5
5
5
5
5
5
5
5
5
5
5
5
5
5
5
5
5
5
5
5
5
5
5
5
5
5
5
5
5
5
5
5
5
5
5
5
5
5
5
5
5
5
5
5
5
5
5
5
5
5
5
5
5
5
5
5
5
5
5
5
5
5
5
5
5
5
5
5
5
5
5
5
5
5
5
5
5
5
5
5
5
5
5
5
5
5
5
5
5
5
5
5
5
5
5
5
5
5
5
5
5
5
5
5
5
5
5
5
5
5
5
5
5
5
5
5
5
5
5
5
5
5
5
5
5
5
5
5
5
5
5
5
5
5
5
5
5
5
5
5
5
5
5
5
5
5
5
5
5
5
5
5
5
5
5
5
5
5
5
5
5
5
5
5
5
5
5
5
5
5
5
5
5
5
5
5
5
5
5
5
5
5
5
5
5
5
5
5
5
5
5
5
5
5
5
5
5
5
5
5
5
5
5
5
5
5
5
5
5
5
5
5
5
5
5
5
5
5
5
5
5
5
5
5
5
5
5
5
5
5
5
5
5
5
5
5
5
5
5
5
5
5
5
5
5
5
5
5
5
5
5
5
5
5
5
5
5
10
10
10
10
10
10
10
10
10
10
10
10
10
10
10
10
10
10
10
10
10
10
10
10
10
10
10
10
10
10
10
10
10
10
10
10
10
10
10
10
10
10
10
10
10
10
10
10
10
10
10
10
10
10
10
10
10
10
10
10
10
10
10
10
10
10
10
10
10
10
10
10
10
10
10
10
10
10
10
10
10
10
10
10
10
10
10
10
10
10
10
10
10
10
10
10
10
10
10
10
10
10
10
10
10
10
10
10
10
10
10
10
10
10
10
10
10
10
10
10
10
10
10
10
10
10
10
10
10
10
10
10
10
10
10
10
10
10
10
10
10
10
10
10
10
10
10
10
10
10
10
10
10
10
10
10
10
10
10
10
10
10
10
10
10
10
10
10
10
10
10
10
10
10
10
10
10
10
10
10
10
10
10
10
10
10
10
10
10
10
10
10
10
10
10
10
10
10
10
10
10
10
10
10
10
10
10
10
10
10
10
10
10
10
10
10
10
10
10
10
10
10
10
10
10
10
10
10
10
10
10
10
10
10
10
10
10
10
10
10
10
10
10
10
10
10
10
10
10
10
10
10
10
10
10
10
10
10
10
10
10
10
10
10
10
10
10
10
10
10
10
10
10
10
10
10
10
10
10
10
10
10
10
10
10
10
10
10
10
10
10
10
10
10
10
10
10
10
10
10
10
10
10
10
10
10
10
10
10
10
10
10
10
10
10
10
10
10
10
10
10
10
10
10
10
10
10
10
10
10
10
10
10
10
10
10
10
10
10
10
10
10
10
10
10
10
10
10
10
10
10
10
10
10
10
10
10
10
10
10
10
10
10
10
10
10
10
10
10
10
10
10
10
10
10
10
10
10
10
10
10
10
10
10
10
10
10
10
10
10
10
10
10
10
10
10
10
10
10
10
10
10
10
10
10
10
10
10
10
10
10
10
10
10
10
10
10
10
10
10
10
10
10
10
10
10
10
10
10
10
10
10
10
10
10
10
10
10
10
10
10
10
10
10
10
10
10
10
10
10
10
10
10
10
10
10
10
10
10
10
10
10
10
10
10
10
10
10
10
10
10
10
10
10
10
10
10
10
10
10
10
10
10
10
10
10
10
10
10
10
10
10
10
10
10
10
10
10
10
10
10
10
10
10
10
10
10
10
10
10
10
10
10
10
10
10
10
10
10
10
10
10
10
10
10
10
10
10
10
10
10
10
10
10
10
10
10
10
10
10
10
10
10
10
10
10
10
10
10
10
10
10
10
10
10
10
10
10
10
10
10
10
10
10
10
10
10
10
10
10
10
10
10
10
10
10
10
10
10
10
10
10
10
10
10
10
10
10
10
10
10
10
10
10
10
10
10
10
10
10
10
10
10
10
10
10
10
10
10
10
10
10
10
10
10
10
10
10
10
10
10
10
10
10
10
10
10
10
10
10
10
10
10
10
10
10
10
10
10
10
10
10
10
10
10
10
10
10
10
10
10
10
10
10
10
10
10
10
10
10
10
10
10
10
10
10
10
10
10
10
10
10
10
10
10
10
10
10
10
10
10
10
10
10
10
10
10
10
10
10
10
10
10
10
10
10
10
10
10
10
10
10
10
10
10
10
10
10
10
10
10
10
10
10
10
10
10
10
10
10
10
10
10
10
10
10
10
10
10
10
10
10
10
10
10
10
10
10
10
10
10
10
10
10
10
10
10
10
10
10
10
10
10
10
10
10
10
10
10
10
10
10
10
10
10
10
10
10
10
10
10
10
10
10
10
10
10
10
10
10
10
10
10
10
10
10
10
10
10
10
10
10
10
10
10
10
10
10
10
10
10
10
10
10
10
10
10
10
10
10
10
10
10
10
10
10
10
10
10
10
10
10
10
10
10
10
10
10
10
10
10
10
10
10
10
10
10
10
10
10
10
10
10
10
10
10
10
10
10
10
10
10
10
10
10
10
10
10
10
10
10
10
10
10
10
10
10
10
10
10
10
10
10
10
10
10
10
10
10
10
10
10
10
10
10
10
10
10
10
10
10
10
10
10
10
10
10
10
10
10
10
10
10
10
10
10
10
10
10
10
10
10
10
10
10
10
10
10
10
10
10
10
10
10
10
10
10
10
10
10
10
10
10
10
10
10
10
10
10
10
10
10
10
10
10
10
10
10
10
10
10
10
10
10
10
10
10
10
10
10
10
10
10
10
10
10
10
10
10
10
10
10
10
10
10
10
10
10
10
10
10
10
10
10
10
10
10
10
10
10
10
10
10
10
10
10
10
10
10
10
10
10
10
10
10
10
10
10
10
10
10
10
10
10
10
10
10
10
10
10
10
10
10
10
10
10
10
10
10
10
10
10
10
10
10
10
10
10
10
10
10
10
10
10
10
10
10
10
10
10
10
10
10
10
10
10
10
10
10
10
10
10
10
10
10
10
10
10
10
10
10
10
10
10
10
10
10
10
10
10
10
10
10
10
10
10
10
10
10
10
10
10
10
10
10
10
10
10
10
10
10
10
10
10
10
10
10
10
10
10
10
10
10
10
10
10
10
10
10
10
10
10
10
10
10
10
10
10
10
10
10
10
10
10
10
10
10
10
10
10
10
10
10
10
10
10
10
10
10
10
10
10
10
10
10
10
10
10
10
10
10
10
10
10
10
10
10
10
10
10
10
10
10
10
10
10
10
10
10
10
10
10
10
10
10
10
10
10
10
10
10
10
10
10
10
10
10
10
10
10
10
10
10
10
10
10
10
10
10
10
10
10
10
10
10
10
10
10
10
10
10
10
10
10
10
10
10
10
10
10
10
10
10
10
10
10
10
10
10
10
10
10
10
10
10
10
10
10
10
10
10
10
10
10
10
10
10
10
10
10
10
10
10
10
10
10
10
10
10
10
10
10
10
10
10
10
10
10
10
10
10
10
10
10
10
10
10
10
10
10
10
10
10
10
10
10
10
10
10
10
10
10
10
10
10
10
10
10
10
10
10
10
10
10
10
10
10
10
10
10
10
10
10
10
10
10
10
10
10
10
10
10
10
10
10
10
10
10
10
10
10
10
10
10
10
10
10
10
10
10
10
10
10
10
10
10
10
10
10
10
10
10
10
10
10
10
10
10
10
10
10
10
10
10
10
10
10
10
10
10
10
10
10
10
10
10
10
10
10
10
10
10
10
10
10
10
10
10
10
10
10
10
10
10
10
10
10
10
