# vtk DataFile Version 2.0
, Created by Gmsh 4.11.1 
ASCII
DATASET UNSTRUCTURED_GRID
POINTS 513 double
8.75 0 -44.86244538770748
14.12349064332649 0 -41.12155302289232
14.12349064332649 0 -38.87844697710768
8.75 0 -35.13755461229252
8.75 0 -3
11.75 0 -3
11.75 0 0
-11.75 0 0
-11.75 0 -3
-8.75 0 -3
-8.75 1.071565949253934e-15 -35.13755461229252
-14.12349064332649 1.729628760913738e-15 -38.87844697710768
-14.12349064332649 1.729628760913738e-15 -41.12155302289232
-8.75 1.071565949253934e-15 -44.86244538770748
-8.75 1.071565949253934e-15 -75.13755461229252
-14.12349064332649 1.729628760913738e-15 -78.87844697710767
-14.12349064332649 1.729628760913738e-15 -81.12155302289233
-8.75 1.071565949253934e-15 -84.86244538770748
-8.75 0 -120
8.75 0 -120
8.75 0 -84.86244538770748
14.12349064332649 0 -81.12155302289233
14.12349064332649 0 -78.87844697710767
8.75 0 -75.13755461229252
-8.75 11.01014772400656 -41.16322247198415
8.75 11.01014772400659 -41.16322247198416
8.75 11.01014772400658 -38.83677752801584
-8.75 11.01014772400658 -38.83677752801584
8.75 20 -3
8.75 20 -35.6171504242442
11.75 23 -3
-11.75 23 -3
-8.75 20 -3
11.75 23 0
-11.75 23 0
-8.75 20 -35.6171504242442
-8.75 20 -44.3828495757558
-8.75 20 -75.6171504242442
-8.75 11.01014772400657 -78.83677752801584
8.75 11.01014772400657 -78.83677752801584
-8.75 11.01014772400659 -81.16322247198417
8.75 11.01014772400659 -81.16322247198417
-8.75 20 -84.3828495757558
-8.75 20 -115.6171504242442
-8.75 7.762194513834086 -120
8.75 7.762194513834086 -120
8.75 20 -84.3828495757558
8.75 20 -115.6171504242442
8.75 20 -44.3828495757558
8.75 20 -75.6171504242442
5.711661475230635 3.019297939780736 -84.86244538770748
-5.711661475230634 3.019297939780737 -84.86244538770748
11.44243548088754 3.019297939780737 -81.12155302289233
-11.44243548088754 3.019297939780739 -81.12155302289233
11.44243548088754 3.019297939780737 -78.87844697710767
5.711661475230635 3.019297939780736 -75.13755461229252
-5.711661475230634 3.019297939780737 -75.13755461229252
-11.44243548088754 3.019297939780739 -78.87844697710767
5.711661475230635 3.019297939780736 -44.86244538770748
-5.711661475230634 3.019297939780737 -44.86244538770748
11.44243548088754 3.019297939780737 -41.12155302289232
-11.44243548088754 3.019297939780739 -41.12155302289232
11.44243548088754 3.019297939780737 -38.87844697710768
5.711661475230635 3.019297939780736 -35.13755461229252
-5.711661475230634 3.019297939780737 -35.13755461229252
-11.44243548088754 3.019297939780739 -38.87844697710768
8.75 0 -28.71004368983401
8.75 0 -22.28253276737551
8.75 0 -15.85502184491701
8.75 0 -9.427510922458506
5.875000000000016 0 0
3.730349362740526e-14 0 0
-5.874999999999972 0 0
-8.75 0 -9.427510922458499
-8.75 0 -15.855021844917
-8.75 0 -22.2825327673755
-8.75 0 -28.710043689834
-8.75 0 -50.91746723262448
-8.75 0 -56.97248907754148
-8.75 0 -63.02751092245849
-8.75 0 -69.0825327673755
-8.75 0 -90.71870448975625
-8.75 0 -96.57496359180502
-8.75 0 -102.4312226938538
-8.75 0 -108.2874817959025
-8.75 0 -114.1437408979513
2.916666666666666 0 -120
-2.916666666666668 0 -120
8.75 0 -90.71870448975625
8.75 0 -96.57496359180502
8.75 0 -102.4312226938538
8.75 0 -108.2874817959025
8.75 0 -114.1437408979513
8.75 0 -50.91746723262448
8.75 0 -56.97248907754148
8.75 0 -63.02751092245849
8.75 0 -69.0825327673755
12.72482537574828 6.12795292971834 -41.12155302289232
8.805852382761316 11.04218962729529 -41.12155302289232
3.14277232867631 13.76938524561781 -41.12155302289232
-3.142772328676219 13.76938524561783 -41.12155302289232
-8.805852382761266 11.04218962729533 -41.12155302289232
-12.72482537574826 6.127952929718374 -41.12155302289232
-8.75 5.713505044788926 -43.67880919370653
3.017540269620955 12.79461519226364 -41.80231193087788
-3.017540269620939 12.79461519226364 -41.80231193087788
8.75 5.713505044788932 -43.67880919370653
12.72482537574828 6.12795292971834 -38.87844697710768
8.805852382761316 11.04218962729529 -38.87844697710768
3.14277232867631 13.76938524561781 -38.87844697710768
-3.142772328676219 13.76938524561783 -38.87844697710768
-8.805852382761266 11.04218962729533 -38.87844697710768
-12.72482537574826 6.127952929718374 -38.87844697710768
8.75 5.71350504478892 -36.32119080629347
-3.017540269620961 12.79461519226363 -38.19768806912211
3.017540269620926 12.79461519226363 -38.19768806912211
-8.75 5.713505044788921 -36.32119080629347
8.75 6.666666666666651 -3
8.75 13.33333333333329 -3
8.75 20 -29.09372033939536
8.75 20 -22.57029025454653
8.75 20 -16.04686016969769
8.75 20 -9.523430084848865
8.75 15.50507386200329 -37.22696397613002
-5.875000000000016 23 -3
-3.730349362740526e-14 23 -3
5.874999999999972 23 -3
-11.75 5.749999999999988 -3
-11.75 11.49999999999999 -3
-11.75 17.24999999999999 -3
-8.75 13.33333333333335 -3
-8.75 6.666666666666705 -3
-2.916666666666666 20 -3
2.916666666666668 20 -3
11.75 5.749999999999988 -3
11.75 11.49999999999999 -3
11.75 17.24999999999999 -3
11.75 5.749999999999988 0
11.75 11.49999999999999 0
11.75 17.24999999999999 0
-5.875000000000016 23 0
-3.730349362740526e-14 23 0
5.874999999999972 23 0
-11.75 5.749999999999988 0
-11.75 11.49999999999999 0
-11.75 17.24999999999999 0
-8.75 20 -9.523430084848844
-8.75 20 -16.04686016969767
-8.75 20 -22.57029025454651
-8.75 20 -29.09372033939534
-8.75 15.50507386200329 -37.22696397613002
-8.75 15.50507386200328 -42.77303602386998
-8.75 20 -69.37029025454653
-8.75 20 -63.12343008484884
-8.75 20 -56.87656991515117
-8.75 20 -50.62970974545347
-8.75 15.50507386200328 -77.22696397613002
-8.75 5.713505044788914 -76.32119080629347
8.75 5.713505044788914 -76.32119080629347
-3.01754026962096 12.79461519226362 -78.19768806912211
3.017540269620924 12.79461519226363 -78.19768806912211
12.72482537574828 6.12795292971834 -78.87844697710769
8.805852382761316 11.04218962729529 -78.87844697710769
3.14277232867631 13.76938524561781 -78.87844697710769
-3.142772328676219 13.76938524561783 -78.87844697710769
-8.805852382761266 11.04218962729533 -78.87844697710769
-12.72482537574826 6.127952929718374 -78.87844697710769
12.72482537574828 6.12795292971834 -81.12155302289233
8.805852382761316 11.04218962729529 -81.12155302289233
3.14277232867631 13.76938524561781 -81.12155302289233
-3.142772328676219 13.76938524561783 -81.12155302289233
-8.805852382761266 11.04218962729533 -81.12155302289233
-12.72482537574826 6.127952929718374 -81.12155302289233
-8.75 5.713505044788934 -83.67880919370651
3.017540269620953 12.79461519226364 -81.80231193087789
-3.017540269620917 12.79461519226364 -81.80231193087789
8.75 5.713505044788934 -83.67880919370651
-8.75 15.5050738620033 -82.77303602386998
-8.75 20 -109.3702902545465
-8.75 20 -103.1234300848488
-8.75 20 -96.87656991515117
-8.75 20 -90.62970974545347
-8.75 13.88109725691704 -117.8085752121221
-8.75 3.88109725691704 -120
2.916666666666666 7.762194513834086 -120
-2.916666666666668 7.762194513834086 -120
8.75 3.88109725691704 -120
8.75 15.5050738620033 -82.77303602386998
8.75 20 -109.3702902545465
8.75 20 -103.1234300848488
8.75 20 -96.87656991515117
8.75 20 -90.62970974545347
8.75 13.88109725691704 -117.8085752121221
8.75 15.5050738620033 -42.77303602386998
8.75 20 -69.37029025454653
8.75 20 -63.12343008484884
8.75 20 -56.87656991515117
8.75 20 -50.62970974545347
8.75 15.50507386200328 -77.22696397613002
2.916666666666666 20 -44.3828495757558
-2.916666666666668 20 -44.3828495757558
2.916666666666666 20 -35.6171504242442
-2.916666666666668 20 -35.6171504242442
2.916666666666666 20 -75.6171504242442
-2.916666666666668 20 -75.6171504242442
2.916666666666666 20 -84.3828495757558
-2.916666666666668 20 -84.3828495757558
2.916666666666666 20 -115.6171504242442
-2.916666666666668 20 -115.6171504242442
2.284998705420294 6.043013964324886 -84.86244538770748
-2.28499870542027 6.043013964324894 -84.86244538770748
-8.881784197001252e-16 3.019297939780737 -84.86244538770748
8.594301661935425 3.019297939780737 -83.01852373400814
8.387072887004557 8.348802199807549 -81.12155302289233
3.071597965137332 11.42850715203007 -81.12155302289233
-3.071597965137334 11.42850715203007 -81.12155302289233
-8.387072887004564 8.348802199807544 -81.12155302289233
-8.594301661935422 3.019297939780737 -83.01852373400814
8.594301661935422 3.019297939780737 -76.98147626599186
-7.993605777301127e-15 3.019297939780737 -75.13755461229252
-8.59430166193542 3.019297939780737 -76.98147626599186
8.387072887004557 8.348802199807549 -78.87844697710769
3.071597965137332 11.42850715203007 -78.87844697710769
-3.071597965137334 11.42850715203007 -78.87844697710769
-8.387072887004564 8.348802199807544 -78.87844697710769
2.284998705420294 6.043013964324886 -75.13755461229252
-2.28499870542027 6.043013964324894 -75.13755461229252
2.284998705420294 6.043013964324886 -44.86244538770748
-2.28499870542027 6.043013964324894 -44.86244538770748
-8.881784197001252e-16 3.019297939780737 -44.86244538770748
8.594301661935425 3.019297939780737 -43.01852373400814
8.387072887004557 8.348802199807549 -41.12155302289232
3.071597965137332 11.42850715203007 -41.12155302289232
-3.071597965137334 11.42850715203007 -41.12155302289232
-8.387072887004564 8.348802199807544 -41.12155302289232
-8.594301661935422 3.019297939780737 -43.01852373400814
8.594301661935422 3.019297939780737 -36.98147626599185
-7.993605777301127e-15 3.019297939780737 -35.13755461229252
-8.59430166193542 3.019297939780737 -36.98147626599185
8.387072887004557 8.348802199807549 -38.87844697710768
3.071597965137332 11.42850715203007 -38.87844697710768
-3.071597965137334 11.42850715203007 -38.87844697710768
-8.387072887004564 8.348802199807544 -38.87844697710768
2.284998705420294 6.043013964324886 -35.13755461229252
-2.28499870542027 6.043013964324894 -35.13755461229252
-1.77635683940025e-15 0 -115.6516485402658
3.497004630268802 0 -105.1052801958166
1.974524164788308 0 -93.64683404078062
-2.946842316290359 0 -48.02438268534433
3.398760756646107 0 -59.99999999999999
-2.938492282124702 0 -71.98448639280736
-2.801773689968083 0 -4.099295691375019
3.183612258048989 0 -19.06877730614626
-3.038249951620594 0 -31.57430680259157
-4.458009870567476 0 -78.64340986565898
-2.243828864489256 0 -99.4667971358206
-3.237120444263079 0 -88.39973008105397
-4.718597181354117 0 -41.36085632412714
-3.183612258048989 0 -12.64126638368775
-10.04099823144409 0 -79.7286819731318
9.353788873876342 0 -80.00000000000003
3.734270076319745 0 -5.627497890431542
9.353788873876358 0 -40
-10.4346185391339 0 -40.19440804630388
3.977804511368169 0 -82.1636343868076
3.503031709325206 0 -49.1374229192493
-3.414108828815547 0 -59.99999999999999
3.514165088212752 0 -70.8744025182863
3.992923195101485 0 -37.64075938275349
0.09338745565310091 0 -65.82815543348794
0.09014022014423428 0 -54.17529365245993
-3.10781763017161 0 -25.20226996924536
-4.121563526034324 0 -19.00997365427438
3.446262807474946 0 -12.08833389354257
3.215930578907956 0 -25.49628822860476
3.354530425101475 0 -32.5470191461206
-4.201285028792807 0 -93.76140586784329
-3.678330846481954 0 -105.3593522448781
4.145539986113571 0 -99.44501953161532
3.143222219717854 0 -87.17217826574139
-3.600845298298914 0 -111.7328615166325
3.021028804383551 0 -110.9615725751748
4.901262660102392 0 -65.76252032832164
4.898386537223109 0 -54.24053457637503
-4.898761279177462 0 -53.94497815508298
-4.898761279177462 0 -66.05502184491701
2.406197343882687 0 -77.43502985488504
-0.749122448057209 0 -8.262275913542567
2.341554715554083 0 -42.53557555140414
-1.355874913586275 0 -83.24172120834245
4.495560115458724 0 -115.7393342738705
-4.495560115458728 0 -115.7393342738705
-1.543421271779996 0 -36.72316216064727
-5.299561858399041 0 -7.122551404788908
10.80420568779449 3.014654490469501 -43.14504526441141
-10.80420568778946 3.014654490478591 -43.14504526441308
11.29496769239781 2.838540825557752 -37.15380708669974
-10.80420568778858 3.014654490478832 -36.85495473558638
8.75 4.662077664494239 -19.42689112107832
8.75 11.64463036228778 -33.45645257257828
8.75 14.93413140202175 -12.82331717739339
8.75 13.98067842562773 -27.31288479126984
8.75 6.242951161674169 -30.09625600472287
8.75 14.59001780797126 -19.83993164913206
8.75 4.906053862460297 -12.78041795865009
8.75 9.987204184706343 -8.644040612577029
8.75 16.35839749971207 -32.52933697654728
8.75 8.73534553893461 -23.62567392839318
8.75 9.752499039403299 -16.14913533982125
8.75 15.43497142747809 -7.570662548595415
8.75 4.516732675746853 -7.513418027625072
8.75 3.78078122483635 -25.49628822860476
10.25 3.10416666666666 -3
-10.25 3.104166666666674 -3
11.75 20.125 -1.5
11.75 8.624999999999988 -1.5
11.75 14.37499999999999 -1.5
11.75 2.874999999999994 -1.5
3.157610638484558 18.22886740495932 0
-2.707174061168084 4.878797530676509 0
7.069955745470663 8.71654637064 0
-6.619519168154191 14.39111856499582 0
7.102873022115113 14.37499999999999 0
0.1126091443291184 11.52691623390895 0
-7.000954855602268 8.644857627020135 0
-2.792058517349995 18.15992185565015 0
2.948495529093417 4.721447277005962 0
-7.528051718759411 18.81262893003678 0
7.528051718759418 4.187371069963204 0
7.820492259183635 19.07601590637069 0
-7.553981076842909 4.160878030182232 0
-11.75 20.125 -1.5
-11.75 14.37499999999999 -1.5
-11.75 8.624999999999988 -1.5
-11.75 2.874999999999994 -1.5
-8.75 4.662077664494239 -19.42689112107831
-8.75 11.64463036228778 -33.45645257257828
-8.75 14.93413140202176 -12.82331717739338
-8.75 13.98067842562772 -27.31288479126983
-8.75 6.242951161674167 -30.09625600472286
-8.75 14.59001780797126 -19.83993164913205
-8.75 4.906053862460305 -12.78041795865009
-8.75 9.987204184706378 -8.644040612577035
-8.75 16.35839749971207 -32.52933697654728
-8.75 8.735345538934604 -23.62567392839318
-8.75 9.752499039403306 -16.14913533982125
-8.75 15.43497142747811 -7.570662548595411
-8.75 4.516732675746863 -7.513418027625065
-8.75 3.780781224836347 -25.49628822860475
-8.75 4.305091975729401 -59.99999999999999
-8.75 14.1050032346279 -67.66577897206086
-8.75 14.10500323462791 -52.33422102793914
-8.75 11.60370693027422 -46.2379184815734
-8.75 11.60370693027422 -73.76208151842661
-8.75 6.333927305268464 -49.63857648144227
-8.75 6.333927305268463 -70.36142351855773
-8.75 14.3659941333122 -60
-8.75 16.35839749971206 -72.52933697654728
-8.75 16.35839749971207 -47.47066302345272
-8.75 8.992979165308707 -64.50580410853817
-8.75 8.992979165308713 -55.49419589146183
-8.75 3.923791997805816 -65.8146546504815
-8.75 3.923791997805806 -54.18534534951849
11.29496769239739 2.838540825560165 -77.15380708669989
-10.80420568778828 3.014654490479085 -76.85495473558623
10.80420568779504 3.014654490469002 -83.14504526441112
-10.80420568778899 3.01465449047901 -83.14504526441331
-8.75 4.482971588236095 -94.49259548435026
-8.75 4.990557242154225 -105.6285961577635
-8.75 11.80892990280802 -86.0703239610332
-8.75 14.66387654260926 -100
-8.75 9.455751231470652 -114.5314197960482
-8.75 14.7114469545254 -106.2111077601382
-8.75 14.31062753325596 -92.38764040606446
-8.75 4.995579705058022 -99.6824144923869
-8.75 5.037406641263921 -111.3920285724257
-8.75 14.83778713833671 -112.0646450407352
-8.75 16.35839749971207 -87.47066302345274
-8.75 6.980409129485118 -89.34063497479714
-8.75 5.22728992869714 -116.013437853285
-8.75 9.715432158897253 -96.74095863912714
-8.75 9.852278446799144 -108.8252045686599
-8.75 9.821528508340549 -102.8480469363459
0 3.881097256917043 -120
-4.835592132062736 3.881097256917043 -120
4.835592132062732 3.881097256917043 -120
8.75 4.482971588236095 -94.49259548435026
8.75 4.990557242154225 -105.6285961577635
8.75 11.80892990280802 -86.0703239610332
8.75 14.66387654260926 -100
8.75 9.455751231470652 -114.5314197960482
8.75 14.7114469545254 -106.2111077601382
8.75 14.31062753325596 -92.38764040606446
8.75 4.995579705058022 -99.6824144923869
8.75 5.037406641263921 -111.3920285724257
8.75 14.83778713833671 -112.0646450407352
8.75 16.35839749971207 -87.47066302345274
8.75 6.980409129485118 -89.34063497479714
8.75 5.22728992869714 -116.013437853285
8.75 9.715432158897253 -96.74095863912714
8.75 9.852278446799144 -108.8252045686599
8.75 9.821528508340549 -102.8480469363459
8.75 4.305091975729404 -59.99999999999999
8.75 14.10500323462791 -67.66577897206086
8.75 14.10500323462791 -52.33422102793914
8.75 11.60370693027422 -73.76208151842661
8.75 11.60370693027423 -46.2379184815734
8.75 6.333927305268466 -70.36142351855773
8.75 6.333927305268469 -49.63857648144227
8.75 14.36599413331221 -60
8.75 16.35839749971207 -47.47066302345272
8.75 16.35839749971206 -72.5293369765473
8.75 8.992979165308709 -64.50580410853817
8.75 8.992979165308716 -55.49419589146183
8.75 3.923791997805816 -65.8146546504815
8.75 3.923791997805812 -54.18534534951849
3.552713678800501e-15 16.40436543181433 -43.09510844769488
4.678370409399251 16.6088345266622 -43.16833704138532
-4.678370409399248 16.6088345266622 -43.16833704138532
-7.105427357601002e-15 16.40436543181433 -36.90489155230512
4.678370409399246 16.6088345266622 -36.83166295861468
-4.67837040939925 16.6088345266622 -36.83166295861468
-1.77635683940025e-15 20 -30.56533556883497
0 20 -8.051814855409225
3.10054382670924 20 -19.30857521212211
-4.360962538782339 20 -19.3085752121221
3.585789538766619 20 -12.17755263896377
-3.377598309029243 20 -25.68217839385807
3.63996953064682 20 -26.41462663476162
-3.383683727685218 20 -12.90333976839583
4.800491241086656 20 -7.150559515844371
-4.616871666200952 20 -31.26766003981272
4.616871666200947 20 -31.26766003981272
-4.616871666200947 20 -7.34949038443148
8.812499999999986 23 -1.5
2.937499999999966 23 -1.5
-8.812500000000007 23 -1.5
-2.937500000000027 23 -1.499999999999999
0 20 -49.30710497686735
0 20 -70.69289502313265
3.340060399152644 20 -60
-3.340060399152645 20 -60
2.960967378302844 20 -65.94150788967674
-2.960967378302847 20 -54.05849211032326
3.739387418516541 20 -53.26163057272373
-3.739387418516538 20 -66.73836942727627
-4.557231490249446 20 -48.69790668854715
4.557231490249439 20 -71.30209331145284
4.831210817036641 20 -48.39282888931123
-4.831210817036643 20 -71.60717111068877
-7.105427357601002e-15 16.40436543181433 -76.90489155230513
4.678370409399243 16.60883452666219 -76.83166295861469
-4.67837040939925 16.60883452666219 -76.83166295861469
7.105427357601002e-15 16.40436543181433 -83.09510844769488
-4.678370409399243 16.60883452666219 -83.16833704138531
4.678370409399249 16.6088345266622 -83.16833704138531
0 20 -89.30710497686735
0 20 -110.6928950231326
-3.34006039915265 20 -100
3.34006039915265 20 -100
-3.588414498500491 20 -106.7892614739464
2.989374561965972 20 -105.9968549615389
-2.960967378302847 20 -94.05849211032326
3.739387418516541 20 -93.26163057272373
-4.557231490249446 20 -88.69790668854715
4.557231490249439 20 -111.3020933114528
4.831210817036641 20 -88.39282888931123
-4.801016233033431 20 -111.6173495200228
1.77635683940025e-15 12.24298811597783 -118.3952478767206
0 16.76297720619179 -116.7764582751977
4.584246497217353 15.88512940361685 -117.0908508248622
-4.584246497217354 15.88512940361685 -117.0908508248622
-5.000182632776808 11.50672076083598 -118.658934782741
5.000182632776804 11.50672076083598 -118.658934782741
-6.670445540838678 5.844249011028703 -83.18612618434365
6.670445540840184 5.844249011030285 -83.18612618434213
-2.631507329378935e-05 9.247022873368271 -82.92259991589157
-5.099490932425287 3.019297939780737 -78.78557252540146
5.564254857698227 3.019297939780737 -79.30536494461322
9.127545828668833 3.019297939780737 -79.86107298892264
-9.03459304361424 3.019297939780737 -79.7571145050803
0.8380090676999057 3.019297939780737 -80
-3.293411483922954 3.019297939780737 -82.09079165307857
-6.670445540838675 5.8442490110287 -76.81387381565636
6.670445540840175 5.844249011030279 -76.81387381565787
6.607266492746262e-15 9.083824494386233 -76.96378537617508
-6.670445540838679 5.844249011028704 -43.18612618434365
6.670445540840184 5.844249011030285 -43.18612618434214
6.607266492746262e-15 9.083824494386233 -43.03621462382493
-5.099490932425287 3.019297939780737 -38.78557252540146
5.444070047996945 3.019297939780737 -39.30942187428552
-9.034593043614242 3.019297939780737 -39.7571145050803
9.103508866728575 3.019297939780737 -39.86188437485711
0.838009067699911 3.019297939780737 -40
-3.293411483922952 3.019297939780737 -42.09079165307857
-6.67044554083868 5.844249011028701 -36.81387381565636
6.670445540840184 5.844249011030279 -36.81387381565786
6.607266492746262e-15 9.083824494386233 -36.96378537617507
2.131628207280301e-14 11.36299741289748 -51.70541821341332
2.131628207280301e-14 11.3629974128975 -68.29458178658673
2.131628207280301e-14 11.34919162586209 -28.31756945245196
2.179338862693704e-14 11.43106969544754 -91.49165968412463
0 11.18758719054494 -109.5751515714257
0 10.4973121403652 -100.5224723542338
-1.77635683940025e-15 11.02527808896414 -12.43272136944807
-0.97077791943215 8.487652247331367 -60.00000000000003
-0.7806180208247788 7.837833883102874 -20.42121222060966
0.8114833782738009 6.3077573062874 -113.9278961065842
2.184207712207431 13.66171777062641 -6.450472131655651
-2.008016585870574 6.943838341634019 -6.857293020471397
-2.216660906281701 6.334359580642801 -95.52835605720252
2.558173451363724 6.159152973049808 -54.90336397280905
2.557221735600568 6.157845319896315 -65.0972007161581

CELLS 2792 12222
1 0
1 1
1 2
1 3
1 4
1 5
1 6
1 7
1 8
1 9
1 10
1 11
1 12
1 13
1 14
1 15
1 16
1 17
1 18
1 19
1 20
1 21
1 22
1 23
1 24
1 25
1 26
1 27
1 28
1 29
1 30
1 31
1 32
1 33
1 34
1 35
1 36
1 37
1 38
1 39
1 40
1 41
1 42
1 43
1 44
1 45
1 46
1 47
1 48
1 49
1 50
1 51
1 52
1 53
1 54
1 55
1 56
1 57
1 58
1 59
1 60
1 61
1 62
1 63
1 64
1 65
2 0 1
2 1 2
2 2 3
2 3 66
2 66 67
2 67 68
2 68 69
2 69 4
2 4 5
2 5 6
2 6 70
2 70 71
2 71 72
2 72 7
2 8 7
2 8 9
2 9 73
2 73 74
2 74 75
2 75 76
2 76 10
2 11 10
2 12 11
2 13 12
2 13 77
2 77 78
2 78 79
2 79 80
2 80 14
2 15 14
2 16 15
2 17 16
2 17 81
2 81 82
2 82 83
2 83 84
2 84 85
2 85 18
2 19 86
2 86 87
2 87 18
2 20 88
2 88 89
2 89 90
2 90 91
2 91 92
2 92 19
2 20 21
2 21 22
2 22 23
2 0 93
2 93 94
2 94 95
2 95 96
2 96 23
2 1 97
2 97 98
2 98 99
2 99 100
2 100 101
2 101 102
2 102 12
2 24 103
2 103 13
2 25 104
2 104 105
2 105 24
2 25 106
2 106 0
2 2 107
2 107 108
2 108 109
2 109 110
2 110 111
2 111 112
2 112 11
2 3 113
2 113 26
2 27 114
2 114 115
2 115 26
2 10 116
2 116 27
2 4 117
2 117 118
2 118 28
2 29 119
2 119 120
2 120 121
2 121 122
2 122 28
2 26 123
2 123 29
2 31 124
2 124 125
2 125 126
2 126 30
2 8 127
2 127 128
2 128 129
2 129 31
2 32 130
2 130 131
2 131 9
2 32 132
2 132 133
2 133 28
2 5 134
2 134 135
2 135 136
2 136 30
2 6 137
2 137 138
2 138 139
2 139 33
2 30 33
2 34 140
2 140 141
2 141 142
2 142 33
2 7 143
2 143 144
2 144 145
2 145 34
2 31 34
2 32 146
2 146 147
2 147 148
2 148 149
2 149 35
2 27 150
2 150 35
2 36 151
2 151 24
2 37 152
2 152 153
2 153 154
2 154 155
2 155 36
2 38 156
2 156 37
2 14 157
2 157 38
2 23 158
2 158 39
2 38 159
2 159 160
2 160 39
2 22 161
2 161 162
2 162 163
2 163 164
2 164 165
2 165 166
2 166 15
2 21 167
2 167 168
2 168 169
2 169 170
2 170 171
2 171 172
2 172 16
2 40 173
2 173 17
2 41 174
2 174 175
2 175 40
2 41 176
2 176 20
2 42 177
2 177 40
2 43 178
2 178 179
2 179 180
2 180 181
2 181 42
2 44 182
2 182 43
2 18 183
2 183 44
2 45 184
2 184 185
2 185 44
2 19 186
2 186 45
2 46 187
2 187 41
2 47 188
2 188 189
2 189 190
2 190 191
2 191 46
2 45 192
2 192 47
2 48 193
2 193 25
2 49 194
2 194 195
2 195 196
2 196 197
2 197 48
2 39 198
2 198 49
2 48 199
2 199 200
2 200 36
2 29 201
2 201 202
2 202 35
2 49 203
2 203 204
2 204 37
2 46 205
2 205 206
2 206 42
2 47 207
2 207 208
2 208 43
2 50 209
2 209 210
2 210 51
2 51 211
2 211 50
2 50 212
2 212 52
2 52 213
2 213 214
2 214 215
2 215 216
2 216 53
2 53 217
2 217 51
2 52 54
2 54 218
2 218 55
2 55 219
2 219 56
2 56 220
2 220 57
2 53 57
2 54 221
2 221 222
2 222 223
2 223 224
2 224 57
2 55 225
2 225 226
2 226 56
2 58 227
2 227 228
2 228 59
2 59 229
2 229 58
2 58 230
2 230 60
2 60 231
2 231 232
2 232 233
2 233 234
2 234 61
2 61 235
2 235 59
2 60 62
2 62 236
2 236 63
2 63 237
2 237 64
2 64 238
2 238 65
2 61 65
2 62 239
2 239 240
2 240 241
2 241 242
2 242 65
2 63 243
2 243 244
2 244 64
3 1 262 0
3 0 265 93
3 262 288 0
3 0 288 265
3 2 262 1
3 3 262 2
3 66 275 3
3 3 268 262
3 3 275 268
3 6 4 5
3 70 4 6
3 4 261 69
3 70 261 4
3 7 8 9
3 9 72 7
3 9 251 72
3 73 293 9
3 9 293 251
3 11 263 10
3 10 253 76
3 10 292 253
3 10 263 257
3 257 292 10
3 12 263 11
3 13 263 12
3 77 248 13
3 248 257 13
3 257 263 13
3 15 259 14
3 14 250 80
3 14 254 250
3 14 259 254
3 16 259 15
3 17 259 16
3 81 256 17
3 254 259 17
3 17 289 254
3 256 289 17
3 18 291 85
3 87 291 18
3 19 290 86
3 92 290 19
3 21 260 20
3 20 279 88
3 260 264 20
3 264 279 20
3 22 260 21
3 23 260 22
3 96 267 23
3 23 286 260
3 267 286 23
3 67 274 66
3 274 275 66
3 68 252 67
3 252 274 67
3 69 273 68
3 68 273 252
3 261 273 69
3 71 261 70
3 72 251 71
3 251 261 71
3 74 258 73
3 258 293 73
3 75 272 74
3 74 272 258
3 76 271 75
3 271 272 75
3 253 271 76
3 78 284 77
3 77 284 248
3 79 266 78
3 266 284 78
3 80 285 79
3 79 285 266
3 250 285 80
3 82 276 81
3 81 276 256
3 83 255 82
3 255 276 82
3 84 277 83
3 83 277 255
3 85 280 84
3 84 280 277
3 85 291 280
3 86 245 87
3 86 290 245
3 245 291 87
3 88 247 89
3 88 279 247
3 89 278 90
3 247 278 89
3 90 246 91
3 90 278 246
3 91 281 92
3 246 281 91
3 281 290 92
3 93 283 94
3 265 283 93
3 94 249 95
3 94 283 249
3 95 282 96
3 249 282 95
3 96 282 267
3 245 281 280
3 280 291 245
3 245 290 281
3 255 277 246
3 246 278 255
3 277 281 246
3 247 276 255
3 255 278 247
3 256 276 247
3 247 279 256
3 248 288 257
3 248 270 265
3 265 288 248
3 248 284 270
3 266 269 249
3 249 270 266
3 269 282 249
3 249 283 270
3 254 286 250
3 267 269 250
3 250 286 267
3 269 285 250
3 251 287 261
3 251 293 287
3 258 272 252
3 252 273 258
3 252 272 271
3 271 274 252
3 253 274 271
3 253 275 274
3 253 292 275
3 254 289 286
3 279 289 256
3 288 292 257
3 273 287 258
3 287 293 258
3 260 286 264
3 261 287 273
3 268 288 262
3 264 289 279
3 286 289 264
3 270 283 265
3 266 285 269
3 270 284 266
3 267 282 269
3 275 292 268
3 268 292 288
3 280 281 277
3 0 294 1
3 106 294 0
3 1 294 97
3 12 295 13
3 102 295 12
3 13 295 103
3 100 24 101
3 100 105 24
3 24 102 101
3 103 102 24
3 97 25 98
3 25 97 106
3 98 25 99
3 25 104 99
3 97 294 106
3 99 105 100
3 104 105 99
3 103 295 102
3 1 97 2
3 2 97 107
3 112 12 11
3 102 12 112
3 97 98 108
3 107 97 108
3 98 99 109
3 108 98 109
3 109 99 100
3 100 101 110
3 109 100 110
3 101 102 112
3 110 101 111
3 111 101 112
3 2 296 3
3 107 296 2
3 3 296 113
3 10 297 11
3 116 297 10
3 11 297 112
3 107 108 26
3 26 113 107
3 108 109 26
3 26 109 115
3 110 111 27
3 110 27 114
3 27 111 112
3 116 27 112
3 113 296 107
3 109 110 114
3 115 109 114
3 112 297 116
3 3 302 66
3 113 302 3
3 69 310 4
3 4 310 117
3 26 299 113
3 123 299 26
3 118 309 28
3 28 309 122
3 119 306 29
3 29 306 123
3 66 311 67
3 302 311 66
3 67 298 68
3 67 311 298
3 68 304 69
3 298 304 68
3 304 310 69
3 299 302 113
3 117 305 118
3 117 310 305
3 305 309 118
3 120 301 119
3 301 306 119
3 121 303 120
3 120 303 301
3 122 300 121
3 300 303 121
3 122 309 300
3 123 306 299
3 298 308 304
3 307 308 298
3 298 311 307
3 301 302 299
3 299 306 301
3 300 308 303
3 305 308 300
3 300 309 305
3 301 307 302
3 303 307 301
3 307 311 302
3 303 308 307
3 304 308 305
3 305 310 304
3 5 4 312
3 4 117 312
3 134 5 312
3 9 8 313
3 8 127 313
3 131 9 313
3 30 28 126
3 136 28 30
3 28 136 118
3 28 133 126
3 31 124 32
3 129 31 32
3 124 132 32
3 129 32 130
3 135 117 118
3 135 134 117
3 117 134 312
3 136 135 118
3 132 124 125
3 126 133 125
3 133 132 125
3 127 128 131
3 127 131 313
3 128 129 130
3 128 130 131
3 5 317 6
3 134 317 5
3 6 317 137
3 33 314 30
3 30 314 136
3 139 314 33
3 135 315 134
3 134 315 137
3 137 317 134
3 136 316 135
3 138 315 135
3 135 316 138
3 136 314 139
3 139 316 136
3 137 315 138
3 138 316 139
3 6 328 70
3 137 328 6
3 72 330 7
3 7 330 143
3 33 329 139
3 142 329 33
3 34 327 140
3 145 327 34
3 70 326 71
3 70 328 326
3 71 319 72
3 71 326 319
3 319 330 72
3 138 320 137
3 320 328 137
3 139 322 138
3 138 322 320
3 139 329 322
3 140 325 141
3 140 327 325
3 141 318 142
3 141 325 318
3 318 329 142
3 143 324 144
3 143 330 324
3 144 321 145
3 144 324 321
3 321 327 145
3 318 323 322
3 322 329 318
3 318 325 323
3 323 324 319
3 319 326 323
3 324 330 319
3 322 323 320
3 323 326 320
3 326 328 320
3 321 324 323
3 323 325 321
3 325 327 321
3 8 7 334
3 7 143 334
3 127 8 334
3 34 31 331
3 31 129 331
3 145 34 331
3 128 127 333
3 127 143 333
3 143 127 334
3 129 128 332
3 128 144 332
3 144 128 333
3 129 145 331
3 145 129 332
3 143 144 333
3 144 145 332
3 73 9 347
3 9 131 347
3 10 76 339
3 116 10 339
3 27 116 336
3 150 27 336
3 130 32 346
3 32 146 346
3 149 35 343
3 35 150 343
3 74 73 341
3 341 73 347
3 75 74 335
3 335 74 341
3 76 75 348
3 75 335 348
3 339 76 348
3 336 116 339
3 131 130 342
3 342 130 346
3 131 342 347
3 146 147 337
3 146 337 346
3 147 148 340
3 337 147 340
3 148 149 338
3 148 338 340
3 338 149 343
3 150 336 343
3 335 341 345
3 344 335 345
3 335 344 348
3 338 336 339
3 336 338 343
3 337 340 345
3 342 337 345
3 337 342 346
3 338 339 344
3 340 338 344
3 344 339 348
3 340 344 345
3 341 342 345
3 342 341 347
3 77 13 354
3 13 103 354
3 14 80 355
3 157 14 355
3 103 24 352
3 24 151 352
3 151 36 358
3 36 155 358
3 152 37 357
3 37 156 357
3 156 38 353
3 38 157 353
3 78 77 362
3 77 354 362
3 79 78 349
3 349 78 362
3 80 79 361
3 79 349 361
3 355 80 361
3 103 352 354
3 352 151 358
3 153 152 350
3 350 152 357
3 154 153 356
3 153 350 356
3 155 154 351
3 351 154 356
3 155 351 358
3 156 353 357
3 353 157 355
3 359 349 360
3 349 359 361
3 360 349 362
3 350 353 355
3 353 350 357
3 350 355 359
3 356 350 359
3 352 351 354
3 351 352 358
3 354 351 360
3 351 356 360
3 354 360 362
3 359 355 361
3 356 359 360
3 14 364 15
3 157 364 14
3 15 364 166
3 22 363 23
3 161 363 22
3 23 363 158
3 157 38 166
3 164 38 159
3 164 165 38
3 38 165 166
3 39 158 161
3 39 163 160
3 161 162 39
3 162 163 39
3 166 364 157
3 158 363 161
3 159 160 164
3 164 160 163
3 172 16 15
3 172 15 166
3 22 21 161
3 21 167 161
3 161 167 162
3 162 169 163
3 167 168 162
3 162 168 169
3 163 170 164
3 163 169 170
3 164 171 165
3 170 171 164
3 165 172 166
3 171 172 165
3 16 366 17
3 172 366 16
3 17 366 173
3 20 365 21
3 176 365 20
3 21 365 167
3 170 40 171
3 170 175 40
3 40 172 171
3 173 172 40
3 167 41 168
3 41 167 176
3 168 41 169
3 41 174 169
3 167 365 176
3 170 169 175
3 175 169 174
3 173 366 172
3 81 17 378
3 17 173 378
3 183 18 85
3 173 40 369
3 40 177 369
3 177 42 377
3 42 181 377
3 178 43 376
3 43 182 376
3 182 44 371
3 44 183 379
3 371 44 379
3 82 81 367
3 367 81 378
3 83 82 374
3 82 367 374
3 84 83 368
3 368 83 374
3 85 84 375
3 84 368 375
3 183 85 379
3 85 375 379
3 173 369 378
3 369 177 377
3 179 178 372
3 372 178 376
3 180 179 370
3 370 179 372
3 181 180 373
3 180 370 373
3 181 373 377
3 182 371 376
3 374 367 380
3 367 378 380
3 368 374 382
3 375 368 381
3 381 368 382
3 373 369 377
3 369 373 378
3 370 372 382
3 373 370 380
3 380 370 382
3 375 371 379
3 371 375 381
3 376 371 381
3 372 376 381
3 372 381 382
3 378 373 380
3 374 380 382
3 18 384 87
3 183 384 18
3 86 385 19
3 19 385 186
3 44 384 183
3 185 384 44
3 45 385 184
3 186 385 45
3 87 383 86
3 383 385 86
3 87 384 383
3 184 383 185
3 184 385 383
3 383 384 185
3 19 186 92
3 88 397 20
3 20 397 176
3 176 388 41
3 41 388 187
3 45 398 186
3 192 390 45
3 390 398 45
3 187 396 46
3 46 396 191
3 188 395 47
3 47 395 192
3 89 386 88
3 386 397 88
3 90 393 89
3 89 393 386
3 91 387 90
3 387 393 90
3 92 394 91
3 91 394 387
3 186 398 92
3 92 398 394
3 176 397 388
3 388 396 187
3 189 391 188
3 391 395 188
3 190 389 189
3 389 391 189
3 191 392 190
3 190 392 389
3 191 396 392
3 192 395 390
3 393 399 386
3 386 399 397
3 387 401 393
3 394 400 387
3 400 401 387
3 392 396 388
3 388 397 392
3 389 401 391
3 392 399 389
3 399 401 389
3 394 398 390
3 390 400 394
3 395 400 390
3 391 400 395
3 391 401 400
3 397 399 392
3 393 401 399
3 93 408 0
3 0 408 106
3 23 407 96
3 158 407 23
3 106 406 25
3 25 406 193
3 39 405 158
3 198 405 39
3 193 410 48
3 48 410 197
3 194 411 49
3 49 411 198
3 94 415 93
3 93 415 408
3 95 402 94
3 402 415 94
3 96 414 95
3 95 414 402
3 407 414 96
3 106 408 406
3 405 407 158
3 406 410 193
3 195 403 194
3 403 411 194
3 196 409 195
3 195 409 403
3 197 404 196
3 404 409 196
3 197 410 404
3 198 411 405
3 412 413 402
3 402 414 412
3 413 415 402
3 403 407 405
3 405 411 403
3 403 412 407
3 409 412 403
3 406 408 404
3 404 410 406
3 408 413 404
3 404 413 409
3 412 414 407
3 408 415 413
3 409 413 412
3 151 24 105
3 104 25 193
3 151 418 36
3 36 418 200
3 48 417 193
3 199 417 48
3 104 416 105
3 193 417 104
3 104 417 416
3 105 418 151
3 416 418 105
3 200 416 199
3 416 417 199
3 200 418 416
3 123 26 115
3 114 27 150
3 123 420 29
3 29 420 201
3 35 421 150
3 202 421 35
3 114 419 115
3 150 421 114
3 114 421 419
3 115 420 123
3 419 420 115
3 201 419 202
3 201 420 419
3 419 421 202
3 122 430 28
3 28 430 133
3 29 432 119
3 201 432 29
3 132 433 32
3 32 433 146
3 149 431 35
3 35 431 202
3 119 428 120
3 119 432 428
3 120 424 121
3 120 428 424
3 121 426 122
3 424 426 121
3 426 430 122
3 133 423 132
3 423 433 132
3 133 430 423
3 146 429 147
3 146 433 429
3 147 425 148
3 147 429 425
3 148 427 149
3 425 427 148
3 427 431 149
3 202 422 201
3 422 432 201
3 202 431 422
3 427 428 422
3 422 431 427
3 428 432 422
3 426 429 423
3 423 430 426
3 429 433 423
3 424 427 425
3 425 429 424
3 424 429 426
3 424 428 427
3 30 434 33
3 126 434 30
3 34 436 31
3 31 436 124
3 33 434 142
3 140 436 34
3 124 437 125
3 124 436 140
3 140 437 124
3 125 435 126
3 141 435 125
3 125 437 141
3 142 434 126
3 126 435 142
3 141 437 140
3 142 435 141
3 36 446 155
3 200 446 36
3 152 449 37
3 37 449 204
3 197 448 48
3 48 448 199
3 49 447 194
3 203 447 49
3 153 445 152
3 445 449 152
3 154 441 153
3 441 445 153
3 155 443 154
3 154 443 441
3 155 446 443
3 194 442 195
3 194 447 442
3 195 440 196
3 195 442 440
3 196 444 197
3 440 444 196
3 444 448 197
3 199 438 200
3 199 448 438
3 438 446 200
3 204 439 203
3 439 447 203
3 204 449 439
3 438 444 443
3 443 446 438
3 438 448 444
3 439 445 442
3 442 447 439
3 439 449 445
3 440 442 441
3 441 443 440
3 443 444 440
3 442 445 441
3 37 452 156
3 204 452 37
3 38 156 159
3 198 39 160
3 198 451 49
3 49 451 203
3 156 452 159
3 159 450 160
3 159 452 450
3 160 451 198
3 450 451 160
3 203 450 204
3 203 451 450
3 450 452 204
3 177 40 175
3 174 41 187
3 177 454 42
3 42 454 206
3 46 455 187
3 205 455 46
3 174 453 175
3 187 455 174
3 174 455 453
3 175 454 177
3 453 454 175
3 206 453 205
3 453 455 205
3 206 454 453
3 42 464 181
3 206 464 42
3 178 467 43
3 43 467 208
3 191 466 46
3 46 466 205
3 47 465 188
3 207 465 47
3 179 460 178
3 460 467 178
3 180 458 179
3 458 460 179
3 181 462 180
3 180 462 458
3 181 464 462
3 188 461 189
3 188 465 461
3 189 459 190
3 189 461 459
3 190 463 191
3 459 463 190
3 463 466 191
3 205 456 206
3 205 466 456
3 456 464 206
3 208 457 207
3 457 465 207
3 208 467 457
3 456 463 462
3 462 464 456
3 456 466 463
3 460 461 457
3 457 467 460
3 461 465 457
3 459 461 458
3 458 462 459
3 458 461 460
3 462 463 459
3 43 471 182
3 208 471 43
3 182 472 44
3 44 472 185
3 184 473 45
3 45 473 192
3 192 470 47
3 47 470 207
3 471 472 182
3 185 468 184
3 468 473 184
3 185 472 468
3 192 473 470
3 207 469 208
3 207 470 469
3 469 471 208
3 469 470 468
3 468 471 469
3 470 473 468
3 468 472 471
3 209 211 50
3 211 210 51
3 210 211 209
3 209 50 475
3 50 212 475
3 51 210 474
3 217 51 474
3 52 213 212
3 216 53 217
3 210 209 476
3 214 209 475
3 209 214 476
3 210 215 474
3 215 210 476
3 212 213 475
3 213 214 475
3 214 215 476
3 215 216 474
3 216 217 474
3 211 481 50
3 50 478 212
3 50 481 478
3 51 482 211
3 217 482 51
3 52 479 54
3 212 479 52
3 57 480 53
3 53 480 217
3 54 479 218
3 218 478 55
3 55 478 219
3 219 477 56
3 56 477 220
3 220 480 57
3 211 482 481
3 478 479 212
3 217 480 477
3 477 482 217
3 218 479 478
3 219 481 477
3 478 481 219
3 477 480 220
3 481 482 477
3 52 54 213
3 224 57 53
3 224 53 216
3 54 221 213
3 213 221 214
3 214 223 215
3 221 222 214
3 222 223 214
3 215 223 216
3 223 224 216
3 54 218 221
3 218 55 484
3 55 225 484
3 56 220 483
3 226 56 483
3 224 220 57
3 221 218 484
3 220 224 483
3 222 221 484
3 223 222 485
3 225 222 484
3 222 225 485
3 224 223 483
3 223 226 483
3 226 223 485
3 225 226 485
3 219 225 55
3 226 219 56
3 219 226 225
3 227 229 58
3 229 228 59
3 228 229 227
3 227 58 487
3 58 230 487
3 59 228 486
3 235 59 486
3 60 231 230
3 234 61 235
3 228 227 488
3 232 227 487
3 227 232 488
3 228 233 486
3 233 228 488
3 230 231 487
3 231 232 487
3 232 233 488
3 233 234 486
3 234 235 486
3 229 493 58
3 58 490 230
3 58 493 490
3 59 494 229
3 235 494 59
3 60 492 62
3 230 492 60
3 65 491 61
3 61 491 235
3 62 492 236
3 236 490 63
3 63 490 237
3 237 489 64
3 64 489 238
3 238 491 65
3 229 494 493
3 490 492 230
3 235 491 489
3 489 494 235
3 236 492 490
3 237 493 489
3 490 493 237
3 489 491 238
3 493 494 489
3 60 62 231
3 242 65 61
3 242 61 234
3 62 239 231
3 231 240 232
3 231 239 240
3 232 241 233
3 240 241 232
3 241 234 233
3 241 242 234
3 62 236 239
3 236 63 496
3 63 243 496
3 64 238 495
3 244 64 495
3 242 238 65
3 239 236 496
3 238 242 495
3 240 239 496
3 241 240 497
3 243 240 496
3 240 243 497
3 242 241 495
3 241 244 495
3 244 241 497
3 243 244 497
3 237 243 63
3 244 237 64
3 244 243 237
4 416 448 417 498
4 449 452 450 499
4 448 410 417 498
4 449 357 452 499
4 466 455 453 501
4 416 438 448 498
4 449 450 439 499
4 375 381 368 502
4 455 466 396 501
4 431 421 419 500
4 419 420 432 500
4 418 446 416 498
4 451 447 450 499
4 401 502 387 503
4 382 368 502 503
4 382 368 381 502
4 400 387 401 502
4 418 358 446 498
4 411 447 451 499
4 466 453 456 501
4 375 502 280 507
4 304 273 504 506
4 387 502 246 503
4 464 453 454 501
4 393 401 387 503
4 368 382 374 503
4 464 454 377 501
4 421 431 343 500
4 432 420 306 500
4 446 438 416 498
4 447 439 450 499
4 393 278 386 510
4 418 352 358 498
4 417 410 406 498
4 452 357 353 499
4 405 411 451 499
4 431 419 422 500
4 419 432 422 500
4 105 418 416 498
4 104 416 417 498
4 159 450 452 499
4 450 160 451 499
4 277 375 368 502
4 416 488 105 498
4 104 488 416 498
4 450 159 485 499
4 450 485 160 499
4 114 419 421 500
4 420 419 115 500
4 114 497 419 500
4 115 419 497 500
4 453 464 456 501
4 277 502 368 503
4 467 469 457 502
4 460 372 502 503
4 421 343 336 500
4 420 299 306 500
4 310 504 304 509
4 393 387 246 503
4 247 501 386 510
4 310 304 273 509
4 104 406 488 498
4 353 485 159 499
4 160 485 405 499
4 389 501 463 503
4 455 396 388 501
4 454 369 377 501
4 346 433 132 508
4 311 307 500 506
4 114 336 497 500
4 115 497 299 500
4 454 453 175 501
4 453 455 174 501
4 471 469 467 502
4 425 504 340 506
4 284 362 354 511
4 361 285 355 512
4 226 485 353 499
4 227 488 406 498
4 225 405 485 499
4 174 476 453 501
4 175 453 476 501
4 246 502 387 507
4 244 497 336 500
4 243 299 497 500
4 277 280 375 502
4 304 504 308 506
4 304 308 298 506
4 393 503 278 510
4 424 500 303 506
4 368 374 277 503
4 304 504 273 509
4 175 476 210 501
4 174 209 476 501
4 457 469 465 502
4 132 130 346 508
4 278 393 246 503
4 211 210 209 510
4 471 371 472 502
4 470 473 390 502
4 393 386 399 510
4 303 500 307 506
4 284 505 362 511
4 372 382 502 503
4 391 502 401 503
4 361 505 285 512
4 470 465 469 502
4 244 237 243 500
4 352 418 105 498
4 104 417 406 498
4 353 159 452 499
4 405 451 160 499
4 211 209 247 510
4 425 424 504 506
4 336 114 421 500
4 420 115 299 500
4 274 243 237 500
4 371 381 375 502
4 409 440 499 505
4 409 498 440 505
4 382 381 372 502
4 400 401 391 502
4 344 348 500 506
4 362 498 354 511
4 361 355 499 512
4 311 500 274 506
4 346 504 433 508
4 427 340 500 506
4 463 389 392 501
4 228 354 498 511
4 226 499 355 512
4 246 502 277 503
4 310 305 304 504
4 247 397 386 501
4 209 501 247 510
4 308 504 303 506
4 346 508 130 509
4 433 504 423 508
4 394 281 387 507
4 340 344 500 506
4 304 252 273 506
4 424 303 504 506
4 303 424 428 500
4 427 425 340 506
4 305 504 310 509
4 454 175 369 501
4 174 455 388 501
4 284 354 248 511
4 250 355 285 512
4 427 500 424 506
4 471 376 371 502
4 470 390 395 502
4 356 499 441 505
4 271 500 348 506
4 443 498 356 505
4 248 270 284 511
4 445 441 356 499
4 444 440 409 498
4 285 269 250 512
4 376 471 467 502
4 303 428 301 500
4 275 237 274 243
4 337 340 425 504
4 247 386 278 510
4 386 501 399 510
4 395 391 465 502
4 463 501 462 503
4 132 321 130 508
4 304 298 252 506
4 277 280 502 507
4 228 227 229 511
4 228 248 354 511
4 370 501 380 503
4 399 501 389 503
4 445 356 350 499
4 444 409 404 498
4 226 355 250 512
4 5 312 317 134
4 8 127 334 313
4 371 502 375 507
4 393 399 503 510
4 397 247 209 501
4 376 467 460 502
4 472 502 371 507
4 117 305 310 509
4 273 261 310 509
4 389 463 459 503
4 248 228 229 511
4 427 424 425 506
4 258 504 273 506
4 244 253 237 500
4 440 441 499 505
4 345 504 341 506
4 341 272 335 506
4 460 458 372 503
4 247 209 211 279
4 471 472 468 502
4 470 468 473 502
4 470 395 465 502
4 340 504 345 506
4 204 449 452 450
4 448 199 416 417
4 453 455 466 205
4 379 371 375 507
4 210 211 256 510
4 462 501 370 503
4 210 501 209 510
4 461 502 391 503
4 413 498 505 511
4 412 505 499 512
4 246 387 281 507
4 277 502 246 507
4 341 504 258 506
4 466 392 396 501
4 473 390 502 507
4 350 357 449 499
4 448 404 410 498
4 298 307 311 506
4 471 468 469 502
4 470 469 468 502
4 273 287 261 509
4 372 376 460 502
4 117 508 305 509
4 255 503 374 510
4 362 360 498 511
4 359 361 499 512
4 211 247 256 510
4 450 204 449 439
4 199 416 438 448
4 205 466 453 456
4 372 370 382 503
4 391 401 389 503
4 460 502 461 503
4 340 344 338 500
4 303 301 307 500
4 409 499 412 505
4 409 413 498 505
4 370 373 380 501
4 389 399 392 501
4 342 346 130 509
4 302 243 274 500
4 277 374 255 503
4 420 432 201 419
4 202 431 421 419
4 117 326 508 509
4 348 271 339 500
4 438 444 448 498
4 449 439 445 499
4 274 237 253 500
4 311 302 274 500
4 381 371 376 502
4 400 395 390 502
4 300 303 308 504
4 340 337 345 504
4 377 373 464 501
4 278 246 255 503
4 265 229 227 511
4 467 457 460 502
4 447 451 450 203
4 446 418 416 200
4 454 464 206 453
4 351 446 358 498
4 411 403 447 499
4 379 291 384 507
4 344 348 339 500
4 311 307 302 500
4 379 384 185 507
4 175 210 369 501
4 174 388 209 501
4 440 442 409 499
4 472 468 502 507
4 466 456 463 501
4 225 226 219 512
4 130 508 323 509
4 229 265 248 511
4 441 443 356 505
4 362 505 360 511
4 345 341 335 506
4 359 505 361 512
4 370 462 373 501
4 372 458 370 503
4 280 379 375 507
4 321 132 325 508
4 253 244 339 500
4 467 471 208 469
4 250 219 226 512
4 463 462 459 503
4 300 424 303 504
4 461 391 389 503
4 280 291 379 507
4 457 467 208 469
4 431 338 343 500
4 306 301 432 500
4 228 498 227 511
4 225 499 226 512
4 274 298 311 506
4 337 425 429 504
4 397 209 247 279
4 359 499 356 505
4 356 498 360 505
4 278 503 255 510
4 468 473 502 507
4 376 372 381 502
4 395 400 391 502
4 422 201 432 419
4 431 202 422 419
4 203 450 447 439
4 416 446 200 438
4 464 206 453 456
4 428 424 427 500
4 445 442 441 499
4 444 443 440 498
4 390 394 400 507
4 426 424 300 504
4 427 340 338 500
4 117 326 320 508
4 352 351 358 498
4 350 353 357 499
4 406 410 404 498
4 411 405 403 499
4 243 274 275 302
4 501 503 399 510
4 429 423 433 504
4 442 403 409 499
4 443 351 356 498
4 470 465 207 469
4 377 369 373 501
4 396 392 388 501
4 390 400 502 507
4 321 323 130 508
4 341 258 272 506
4 442 440 441 499
4 274 500 271 506
4 258 273 504 509
4 380 503 501 510
4 305 508 504 509
4 253 237 274 275
4 399 386 397 501
4 308 303 307 506
4 457 207 465 469
4 465 391 461 502
4 343 338 336 500
4 306 299 301 500
4 258 504 341 509
4 9 131 313 330
4 219 267 225 512
4 117 4 312 328
4 255 246 277 503
4 433 423 132 508
4 428 422 432 500
4 258 287 273 509
4 250 267 219 512
4 359 361 355 499
4 362 360 354 498
4 466 463 392 501
4 277 246 281 507
4 250 269 267 512
4 270 248 265 511
4 350 449 445 499
4 444 404 448 498
4 253 271 274 500
4 342 337 346 504
4 359 350 356 499
4 403 412 409 499
4 351 360 356 498
4 413 404 409 498
4 458 460 461 503
4 360 505 498 511
4 359 499 505 512
4 253 339 271 500
4 458 462 370 503
4 354 352 228 498
4 355 226 353 499
4 408 227 406 498
4 407 405 225 499
4 339 244 336 500
4 302 299 243 500
4 374 382 380 503
4 401 393 399 503
4 291 383 384 507
4 258 273 252 506
4 308 307 298 506
4 323 508 326 509
4 342 341 504 509
4 277 281 280 507
4 249 511 402 512
4 425 424 429 504
4 210 378 501 510
4 245 383 291 507
4 465 461 457 502
4 378 369 210 501
4 388 397 209 501
4 247 211 256 279
4 428 432 301 500
4 227 228 488 498
4 226 225 485 499
4 472 185 468 507
4 210 256 378 510
4 243 497 244 500
4 349 360 362 505
4 361 359 349 505
4 367 276 374 510
4 305 308 304 504
4 345 342 341 504
4 326 323 320 508
4 321 325 323 508
4 423 504 426 508
4 389 459 461 503
4 443 438 446 498
4 442 439 447 499
4 367 378 276 510
4 335 348 344 506
4 82 374 367 276
4 324 130 323 509
4 290 394 398 507
4 426 504 300 508
4 374 503 380 510
4 476 209 210 501
4 457 461 460 502
4 384 383 185 507
4 462 456 464 501
4 335 271 348 506
4 249 505 511 512
4 225 407 499 512
4 227 498 408 511
4 249 505 266 511
4 266 505 249 512
4 431 422 427 500
4 88 247 397 386
4 209 397 50 279
4 426 429 424 504
4 458 459 462 503
4 118 133 430 508
4 282 414 267 512
4 265 415 283 511
4 276 378 256 510
4 430 118 28 133
4 390 398 394 507
4 274 252 298 506
4 270 249 266 511
4 269 266 249 512
4 225 267 407 512
4 320 118 117 508
4 290 398 385 507
4 265 227 408 511
4 378 380 501 510
4 409 412 413 505
4 117 118 305 508
4 385 398 184 507
4 434 33 142 329
4 354 351 352 498
4 355 353 350 499
4 408 406 404 498
4 407 403 405 499
4 34 327 436 140
4 349 362 78 284
4 433 132 32 346
4 285 361 79 349
4 339 336 338 500
4 301 299 302 500
4 279 247 397 88
4 243 275 63 302
4 300 504 305 508
4 373 462 464 501
4 256 247 276 510
4 258 252 272 506
4 375 368 84 277
4 488 233 105 228
4 132 133 325 508
4 305 300 308 504
4 342 345 337 504
4 131 342 130 509
4 133 132 423 508
4 443 446 351 498
4 442 447 403 499
4 458 460 372 179
4 444 438 443 498
4 442 445 439 499
4 251 261 287 509
4 131 130 324 509
4 463 456 462 501
4 251 330 131 293
4 309 118 430 508
4 373 369 378 501
4 388 392 397 501
4 430 426 309 508
4 393 90 246 387
4 215 476 210 175
4 174 476 209 214
4 334 143 7 330
4 9 131 330 293
4 317 328 6 137
4 429 426 423 504
4 431 427 338 500
4 130 32 132 346
4 458 461 459 503
4 139 33 314 329
4 26 113 239 107
4 251 9 330 293
4 340 345 344 506
4 383 290 385 507
4 28 309 118 430
4 326 261 251 509
4 331 327 34 145
4 272 271 335 506
4 415 402 283 511
4 282 402 414 512
4 210 256 51 378
4 380 373 378 501
4 392 399 397 501
4 341 74 335 272
4 309 426 300 508
4 370 380 382 503
4 401 399 389 503
4 130 321 324 323
4 338 344 339 500
4 307 301 302 500
4 24 103 234 102
4 157 38 224 166
4 428 427 422 500
4 383 245 290 507
4 389 190 463 392
4 282 414 402 95
4 94 283 415 402
4 55 407 225 267
4 437 141 140 325
4 276 367 81 378
4 281 394 387 91
4 90 246 278 393
4 280 375 84 277
4 350 445 153 356
4 404 444 196 409
4 470 473 192 390
4 472 182 371 471
4 352 105 233 228
4 226 56 250 355
4 59 354 228 248
4 321 145 332 144
4 349 78 266 284
4 266 285 79 349
4 131 9 347 293
4 311 298 274 67
4 372 370 458 179
4 68 298 252 304
4 209 388 174 214
4 210 215 175 369
4 39 158 221 161
4 106 25 231 97
4 141 318 435 142
4 255 374 276 510
4 131 330 251 319
4 184 45 473 398
4 44 379 185 472
4 176 41 213 167
4 40 173 216 172
4 249 283 402 511
4 249 402 282 512
4 218 158 23 363
4 116 27 242 112
4 374 82 255 276
4 435 133 125 126
4 124 125 437 132
4 424 426 300 121
4 159 160 450 485
4 419 497 114 115
4 488 416 105 104
4 252 273 68 304
4 356 445 153 441
4 409 444 196 440
4 395 188 465 391
4 73 341 347 293
4 147 425 337 340
4 414 282 267 96
4 265 283 415 93
4 267 414 407 512
4 424 300 303 121
4 463 459 190 389
4 265 408 415 511
4 335 344 345 506
4 364 57 15 166
4 236 113 3 296
4 468 184 473 507
4 249 282 402 95
4 283 94 249 402
4 251 131 319 509
4 413 408 498 511
4 407 412 499 512
4 309 300 305 508
4 182 376 371 471
4 395 470 192 390
4 390 473 45 398
4 379 44 371 472
4 318 325 133 508
4 261 326 328 117
4 320 137 315 138
4 319 326 251 509
4 342 347 341 509
4 245 291 280 507
4 297 65 11 112
4 97 1 60 294
4 322 133 118 508
4 428 303 301 120
4 146 433 346 337
4 278 255 247 510
4 316 138 139 322
4 227 58 265 408
4 167 21 52 365
4 295 12 61 102
4 384 291 87 383
4 383 385 290 86
4 333 144 143 324
4 77 362 354 284
4 368 374 83 277
4 80 361 285 355
4 81 256 276 378
4 117 4 328 261
4 287 258 293 509
4 430 423 426 508
4 240 243 496 299
4 244 495 336 241
4 290 245 383 86
4 245 87 291 383
4 16 53 366 172
4 315 134 117 135
4 333 128 131 127
4 290 281 394 507
4 174 476 175 453
4 253 339 244 64
4 355 350 359 499
4 354 360 351 498
4 408 404 413 498
4 407 412 403 499
4 322 118 320 508
4 126 28 30 434
4 32 31 436 124
4 184 383 385 507
4 274 302 311 66
4 378 367 380 510
4 279 397 50 88
4 227 232 487 406
4 225 405 484 222
4 233 486 352 228
4 483 226 223 353
4 424 303 428 120
4 261 326 251 71
4 209 475 388 214
4 215 210 474 369
4 462 370 373 180
4 4 117 310 261
4 284 354 77 248
4 250 80 285 355
4 349 359 360 505
4 356 351 443 154
4 409 403 442 195
4 0 106 230 294
4 103 13 235 295
4 14 157 220 364
4 278 247 89 386
4 302 274 275 66
4 332 129 130 128
4 135 316 136 118
4 272 341 74 258
4 69 273 261 310
4 398 394 290 92
4 263 491 238 489
4 331 34 327 436
4 185 383 184 507
4 425 429 147 337
4 468 185 184 507
4 319 323 326 509
4 309 426 430 122
4 393 278 89 386
4 201 422 202 419
4 246 281 387 91
4 238 297 10 116
4 272 252 271 506
4 331 31 32 129
4 136 30 28 314
4 318 133 322 508
4 302 496 243 299
4 495 336 339 244
4 204 450 203 439
4 438 200 416 199
4 205 453 206 456
4 324 323 319 509
4 322 320 323 508
4 318 323 325 508
4 414 267 407 96
4 415 408 265 93
4 152 449 350 357
4 404 197 448 410
4 359 356 360 505
4 212 20 176 365
4 217 17 366 173
4 273 69 304 310
4 269 282 267 512
4 191 396 466 392
4 385 45 184 398
4 44 379 384 185
4 270 265 283 511
4 47 465 470 395
4 408 227 487 406
4 484 407 405 225
4 486 354 352 228
4 226 483 355 353
4 43 376 471 467
4 188 461 465 391
4 255 83 374 277
4 133 423 430 508
4 298 252 274 67
4 326 319 251 71
4 133 318 322 329
4 4 261 70 328
4 149 343 431 338
4 432 119 301 306
4 356 443 441 154
4 409 442 440 195
4 252 274 271 506
4 152 449 445 350
4 448 444 197 404
4 475 388 397 209
4 378 474 210 369
4 256 81 51 378
4 207 457 208 469
4 302 275 63 66
4 463 191 466 392
4 251 287 293 509
4 341 73 258 293
4 283 249 270 511
4 249 282 269 512
4 251 330 9 72
4 462 458 370 180
4 250 56 80 355
4 354 59 77 248
4 426 309 300 122
4 70 261 326 328
4 51 17 217 173
4 340 148 427 338
4 123 420 115 299
4 150 336 114 421
4 425 148 427 340
4 314 33 434 329
4 296 107 2 62
4 446 351 358 155
4 447 403 411 194
4 454 42 464 377
4 301 428 119 432
4 433 146 429 337
4 374 380 367 510
4 451 411 49 447
4 358 36 418 446
4 465 207 47 470
4 464 181 373 377
4 342 131 347 509
4 178 372 460 179
4 352 358 151 418
4 417 406 410 193
4 452 353 357 156
4 405 411 198 451
4 54 22 161 363
4 267 55 407 96
4 259 217 480 254
4 118 309 305 508
4 105 352 151 418
4 417 104 406 193
4 452 159 353 156
4 160 405 198 451
4 46 396 455 466
4 324 319 131 509
4 452 449 37 357
4 417 448 48 410
4 280 281 245 507
4 323 318 322 508
4 336 150 343 421
4 123 306 420 299
4 4 312 328 317
4 291 183 379 384
4 398 290 385 186
4 276 247 255 510
4 88 89 247 386
4 330 9 334 313
4 145 129 130 332
4 467 471 43 208
4 115 240 26 299
4 114 336 27 241
4 257 248 229 288
4 420 29 432 306
4 35 343 421 431
4 72 251 330 319
4 374 82 83 255
4 491 263 257 489
4 496 243 63 302
4 339 495 244 64
4 482 17 51 289
4 412 414 402 512
4 413 402 415 511
4 150 336 27 114
4 115 26 123 299
4 176 50 20 212
4 427 149 431 338
4 327 132 325 321
4 288 248 229 265
4 351 446 443 155
4 403 447 442 194
4 281 290 394 92
4 388 187 396 455
4 177 377 454 369
4 187 388 174 455
4 177 454 175 369
4 373 462 181 464
4 49 451 447 203
4 464 206 42 454
4 36 418 446 200
4 245 87 383 86
4 375 84 85 280
4 76 339 253 64
4 43 376 467 178
4 58 265 408 93
4 47 470 192 395
4 182 43 376 471
4 69 68 273 304
4 55 407 484 225
4 483 56 226 355
4 486 59 354 228
4 432 201 29 420
4 431 421 35 202
4 352 151 24 105
4 353 159 38 156
4 405 198 39 160
4 406 104 25 193
4 461 188 189 391
4 104 25 232 406
4 39 405 160 222
4 38 223 159 353
4 24 352 105 233
4 92 186 290 398
4 85 183 379 291
4 19 385 290 186
4 18 183 291 384
4 196 197 444 404
4 153 152 445 350
4 387 90 246 91
4 190 191 463 392
4 465 47 188 395
4 265 229 58 227
4 254 217 480 477
4 119 428 301 120
4 494 257 229 288
4 225 219 55 267
4 302 63 3 66
4 229 248 257 494
4 326 261 70 71
4 339 76 10 64
4 466 455 46 205
4 37 204 449 452
4 48 199 448 417
4 290 245 281 507
4 51 17 173 378
4 402 94 249 95
4 78 266 79 349
4 69 261 4 310
4 85 183 291 18
4 92 186 19 290
4 474 210 51 378
4 174 388 41 214
4 175 215 40 369
4 17 51 81 378
4 263 238 10 489
4 122 300 426 121
4 291 87 18 384
4 290 385 19 86
4 55 23 407 96
4 13 59 77 354
4 56 14 80 355
4 128 333 131 324
4 117 320 315 135
4 302 113 496 299
4 116 336 339 495
4 177 175 40 369
4 187 388 41 174
4 192 473 45 390
4 182 371 44 472
4 219 250 254 286
4 286 219 250 267
4 57 172 15 166
4 394 281 92 91
4 254 17 482 289
4 65 61 11 112
4 433 32 146 346
4 275 3 63 66
4 89 90 278 393
4 28 309 430 122
4 23 55 286 267
4 316 139 136 322
4 194 442 403 195
4 154 351 443 155
4 373 462 180 181
4 328 6 4 317
4 128 144 333 324
4 172 57 15 53
4 21 54 167 52
4 97 60 2 62
4 60 2 1 97
4 320 315 135 138
4 145 130 321 332
4 334 7 9 330
4 58 227 487 408
4 489 10 292 64
4 10 292 257 489
4 12 112 61 102
4 107 97 2 62
4 132 125 141 133
4 158 407 405 484
4 106 408 487 406
4 483 157 355 353
4 352 103 354 486
4 477 254 217 482
4 51 211 256 210
4 407 414 412 512
4 413 415 408 511
4 23 55 267 96
4 466 46 396 191
4 259 17 217 254
4 449 152 37 357
4 448 197 48 410
4 341 73 74 258
4 16 15 53 172
4 112 12 61 11
4 21 161 54 22
4 20 50 176 397
4 325 132 141 133
4 118 136 28 329
4 211 50 481 264
4 161 21 54 167
4 262 288 490 230
4 475 397 50 209
4 148 149 427 338
4 408 0 58 93
4 42 181 464 377
4 35 343 431 149
4 29 119 432 306
4 447 411 49 194
4 446 358 36 155
4 248 229 59 494
4 73 347 9 293
4 331 327 32 436
4 256 51 17 289
4 77 59 13 248
4 169 162 41 168
4 101 110 111 27
4 397 20 50 88
4 14 56 80 250
4 288 58 0 265
4 288 58 490 230
4 220 224 57 157
4 231 60 230 106
4 67 298 252 68
4 264 478 286 260
4 129 130 327 145
4 237 490 63 268
4 74 75 335 272
4 213 52 212 176
4 238 242 65 116
4 236 62 239 113
4 118 316 136 322
4 257 263 10 489
4 130 327 32 129
4 429 146 147 337
4 490 268 288 262
4 257 248 59 494
4 98 109 26 108
4 164 171 170 40
4 348 75 76 271
4 59 228 229 248
4 218 54 221 158
4 61 234 235 103
4 253 10 76 64
4 303 424 121 120
4 396 187 46 455
4 377 454 42 177
4 84 368 83 277
4 357 37 452 156
4 358 36 151 418
4 410 48 417 193
4 49 198 411 451
4 179 370 458 180
4 67 274 311 66
4 397 176 388 475
4 378 173 474 369
4 53 216 217 173
4 459 189 190 389
4 0 58 288 230
4 262 0 288 230
4 265 58 0 93
4 102 242 101 112
4 257 494 493 288
4 82 367 81 276
4 312 328 317 137
4 330 334 143 313
4 235 491 263 257
4 292 257 493 288
4 94 415 283 93
4 282 414 95 96
4 113 496 63 302
4 339 116 495 64
4 174 175 215 169
4 478 481 50 264
4 314 434 28 329
4 167 162 213 161
4 229 58 288 265
4 136 118 322 329
4 440 196 409 195
4 441 153 356 154
4 253 292 10 64
4 318 325 141 133
4 259 480 220 254
4 133 126 142 329
4 236 239 496 113
4 425 147 148 340
4 132 437 140 325
4 7 9 330 72
4 139 136 322 329
4 319 72 251 71
4 160 159 223 485
4 55 219 286 267
4 306 420 29 123
4 343 150 35 421
4 109 232 233 99
4 364 14 15 259
4 362 77 78 284
4 248 59 13 257
4 79 80 361 285
4 56 14 254 250
4 70 6 4 328
4 229 58 493 288
4 215 476 175 174
4 12 13 295 263
4 250 254 56 219
4 218 221 484 158
4 231 230 487 106
4 224 220 483 157
4 235 234 486 103
4 237 493 490 268
4 133 141 318 435
4 131 330 319 324
4 51 17 81 256
4 297 10 11 263
4 366 16 17 259
4 213 212 475 176
4 217 216 474 173
4 169 215 174 214
4 242 238 495 116
4 398 385 45 186
4 379 183 44 384
4 268 292 493 288
4 55 219 478 286
4 163 215 169 214
4 275 63 237 243
4 55 407 158 484
4 56 483 157 355
4 354 103 59 486
4 219 56 250 226
4 332 130 321 144
4 141 437 132 325
4 286 289 254 481
4 209 50 211 279
4 478 23 286 260
4 223 160 485 222
4 57 224 172 166
4 62 97 239 107
4 126 133 28 329
4 327 124 140 132
4 130 321 327 145
4 289 256 211 279
4 64 244 253 237
4 328 326 320 117
4 232 241 109 233
4 279 50 20 88
4 215 476 174 214
4 23 22 260 363
4 62 60 231 97
4 167 54 213 52
4 231 62 97 239
4 57 224 53 172
4 112 61 242 65
4 437 140 124 132
4 126 435 133 142
4 318 133 435 142
4 242 61 102 234
4 240 231 26 239
4 117 320 135 118
4 173 474 51 378
4 481 286 289 264
4 50 211 279 264
4 61 112 242 102
4 131 130 128 324
4 477 56 254 219
4 133 125 141 435
4 437 125 141 132
4 493 494 229 288
4 232 26 231 25
4 223 38 40 216
4 3 2 262 296
4 254 477 219 481
4 254 480 220 477
4 494 489 292 493
4 279 211 289 264
4 286 55 23 478
4 161 213 54 221
4 224 53 172 216
4 292 257 494 493
4 124 327 32 132
4 221 214 39 213
4 216 223 38 224
4 234 241 24 242
4 268 63 237 275
4 213 161 54 167
4 51 211 482 289
4 286 254 219 481
4 492 262 490 230
4 268 237 292 275
4 257 235 491 489
4 211 51 256 289
4 478 219 481 286
4 408 487 58 106
4 318 133 142 329
4 55 23 478 218
4 144 128 130 324
4 138 135 320 118
4 237 292 489 493
4 262 1 0 294
4 490 493 58 288
4 214 221 39 222
4 232 26 240 231
4 215 223 40 216
4 234 241 233 24
4 53 16 366 259
4 57 224 166 157
4 478 260 212 479
4 132 140 327 325
4 434 142 28 329
4 477 254 482 481
4 238 10 489 64
4 62 239 113 107
4 64 292 489 237
4 292 257 489 494
4 314 28 139 329
4 50 176 397 475
4 117 320 137 315
4 260 21 20 365
4 25 232 99 104
4 143 131 333 324
4 231 60 106 97
4 61 234 103 102
4 260 264 478 212
4 144 130 321 324
4 436 327 32 140
4 268 3 63 275
4 124 436 32 140
4 28 126 142 434
4 213 52 176 167
4 28 139 136 314
4 490 268 262 236
4 65 242 112 116
4 289 482 254 481
4 331 32 327 145
4 11 65 297 263
4 32 331 129 145
4 138 316 118 322
4 169 174 41 214
4 262 60 1 294
4 260 478 23 218
4 54 221 158 161
4 134 312 317 137
4 127 143 334 313
4 489 257 235 494
4 52 21 260 365
4 481 289 211 264
4 237 253 292 275
4 53 216 173 172
4 20 50 279 264
4 118 320 138 322
4 263 13 235 257
4 262 268 3 236
4 330 143 131 313
4 364 15 57 259
4 312 328 137 117
4 331 32 31 436
4 434 28 30 314
4 312 4 5 317
4 334 9 8 313
4 434 30 33 314
4 20 264 260 212
4 259 220 14 254
4 59 235 257 494
4 331 31 34 436
4 50 478 264 212
4 490 63 268 236
4 493 237 292 268
4 268 63 3 236
4 490 262 492 236
4 64 253 292 237
4 65 238 263 491
4 137 134 312 117
4 143 127 131 313
4 10 297 238 263
4 478 260 479 218
4 129 327 32 145
4 295 61 12 263
4 217 366 17 259
4 136 139 28 329
4 124 32 327 140
4 137 328 320 117
4 142 126 28 329
4 220 56 254 477
4 260 22 54 363
4 131 143 330 324
4 2 262 296 62
4 264 20 50 212
4 8 7 9 334
4 6 5 4 317
4 220 56 14 254
4 138 316 135 118
4 217 480 53 259
4 238 65 263 297
4 130 332 128 144
4 211 482 289 481
4 493 490 268 288
4 235 295 13 263
4 157 57 364 166
4 13 59 235 257
4 53 366 217 259
4 117 137 134 315
4 127 131 333 143
4 286 481 478 264
4 57 220 157 364
4 230 106 60 294
4 296 113 107 62
4 212 176 52 365
4 65 238 116 297
4 220 14 364 259
4 60 106 97 294
4 23 260 218 363
4 102 61 295 103
4 158 54 161 363
4 176 167 52 365
4 236 3 262 296
4 297 65 112 116
4 57 220 259 480
4 235 295 61 103
4 217 366 53 173
4 61 235 491 263
4 366 53 173 172
4 54 158 218 363
4 230 262 0 294
4 296 236 113 62
4 212 260 20 365
4 212 260 52 479
4 60 262 492 230
4 61 295 235 263
4 220 57 259 364
4 21 54 52 260
4 262 2 60 62
4 1 2 60 262
4 53 57 15 259
4 54 21 22 260
4 52 260 212 365
4 60 262 230 294
4 15 16 53 259
4 65 11 61 263
4 12 61 11 263
4 103 235 59 486
4 483 220 56 157
4 484 158 55 218
4 51 217 474 173
4 495 116 238 64
4 63 496 113 236
4 54 52 260 479
4 57 53 480 259
4 492 262 60 62
4 491 65 61 263
4 106 487 58 230
4 50 176 475 212
4 485 353 223 226
4 485 223 353 159
4 405 485 222 225
4 222 485 405 160
4 228 105 498 352
4 228 498 105 488
4 406 488 232 104
4 406 232 488 227
4 336 497 241 114
4 241 497 336 244
4 497 299 240 115
4 240 299 497 243
4 507 400 387 394
4 507 387 400 502
4 379 280 85 291
4 85 280 379 375
4 509 346 504 342
4 509 504 346 508
4 505 443 440 441
4 505 440 443 498
4 376 460 178 372
4 178 460 376 467
4 512 266 285 269
4 512 285 266 505
4 266 511 284 270
4 284 511 266 505
4 223 38 483 353
4 223 483 38 224
4 157 483 38 353
4 157 38 483 224
4 103 24 486 352
4 103 486 24 234
4 233 486 24 352
4 233 24 486 234
4 158 39 484 405
4 158 484 39 221
4 222 484 39 405
4 222 39 484 221
4 232 25 487 406
4 232 487 25 231
4 106 487 25 406
4 106 25 487 231
4 284 349 505 266
4 284 505 349 362
4 285 349 505 361
4 505 349 285 266
4 512 412 413 402
4 413 412 512 505
4 413 511 512 402
4 512 511 413 505
4 261 117 509 326
4 509 117 261 310
4 173 40 474 369
4 173 474 40 216
4 215 474 40 369
4 215 40 474 216
4 214 41 475 388
4 214 475 41 213
4 176 475 41 388
4 176 41 475 213
4 113 26 496 299
4 113 496 26 239
4 240 496 26 299
4 240 26 496 239
4 398 473 507 390
4 398 507 473 184
4 472 379 507 371
4 472 507 379 185
4 241 27 495 336
4 241 495 27 242
4 116 495 27 336
4 116 27 495 242
4 131 293 509 251
4 509 293 131 347
4 433 337 504 346
4 504 337 433 429
4 335 271 75 348
4 75 271 335 272
4 389 461 189 391
4 389 189 461 459
4 293 341 509 258
4 293 509 341 347
4 271 339 76 348
4 271 76 339 253
4 26 107 97 108
4 97 107 26 239
4 97 98 26 108
4 41 167 162 213
4 41 162 167 168
4 27 112 101 242
4 27 101 112 111
4 102 24 242 234
4 102 242 24 101
4 38 166 172 224
4 172 166 38 165
4 172 216 38 224
4 161 39 213 221
4 161 213 39 162
4 106 0 58 408
4 106 58 0 230
4 13 103 59 354
4 13 59 103 235
4 23 158 55 407
4 23 55 158 218
4 157 14 56 355
4 157 56 14 220
4 327 130 132 321
4 132 130 327 32
4 3 113 63 302
4 3 63 113 236
4 116 10 64 339
4 116 64 10 238
4 17 482 217 254
4 217 482 17 51
4 25 98 109 26
4 109 98 25 99
4 109 232 25 26
4 25 232 109 99
4 213 162 214 39
4 213 214 162 41
4 163 214 162 39
4 242 101 241 24
4 242 241 101 27
4 100 241 101 24
4 169 162 214 41
4 169 214 162 163
4 488 104 233 232
4 488 233 104 105
4 99 233 104 232
4 99 104 233 105
4 99 105 109 100
4 99 109 105 233
4 109 105 241 100
4 109 241 105 233
4 241 105 24 100
4 241 24 105 233
4 118 329 133 322
4 133 329 118 28
4 497 115 241 114
4 497 241 115 240
4 109 241 115 114
4 169 175 163 170
4 169 163 175 215
4 163 175 164 170
4 163 164 175 215
4 164 175 40 170
4 164 40 175 215
4 109 114 100 241
4 109 100 114 110
4 100 114 101 241
4 100 101 114 110
4 101 114 27 241
4 101 27 114 110
4 223 214 160 222
4 39 214 160 163
4 39 160 214 222
4 241 115 232 109
4 241 232 115 240
4 26 232 115 109
4 26 115 232 240
4 236 62 262 492
4 262 62 236 296
4 218 54 260 479
4 260 54 218 363
4 26 231 97 239
4 38 172 40 216
4 26 25 97 231
4 97 25 26 98
4 164 38 171 40
4 164 171 38 165
4 172 171 38 40
4 172 38 171 165
4 214 160 215 223
4 214 215 160 163
4 164 160 215 163
4 159 38 40 223
4 159 40 38 164
4 215 159 40 223
4 215 40 159 164
4 160 159 215 223
4 160 215 159 164

CELL_TYPES 2792
1
1
1
1
1
1
1
1
1
1
1
1
1
1
1
1
1
1
1
1
1
1
1
1
1
1
1
1
1
1
1
1
1
1
1
1
1
1
1
1
1
1
1
1
1
1
1
1
1
1
1
1
1
1
1
1
1
1
1
1
1
1
1
1
1
1
3
3
3
3
3
3
3
3
3
3
3
3
3
3
3
3
3
3
3
3
3
3
3
3
3
3
3
3
3
3
3
3
3
3
3
3
3
3
3
3
3
3
3
3
3
3
3
3
3
3
3
3
3
3
3
3
3
3
3
3
3
3
3
3
3
3
3
3
3
3
3
3
3
3
3
3
3
3
3
3
3
3
3
3
3
3
3
3
3
3
3
3
3
3
3
3
3
3
3
3
3
3
3
3
3
3
3
3
3
3
3
3
3
3
3
3
3
3
3
3
3
3
3
3
3
3
3
3
3
3
3
3
3
3
3
3
3
3
3
3
3
3
3
3
3
3
3
3
3
3
3
3
3
3
3
3
3
3
3
3
3
3
3
3
3
3
3
3
3
3
3
3
3
3
3
3
3
3
3
3
3
3
3
3
3
3
3
3
3
3
3
3
3
3
3
3
3
3
3
3
3
3
3
3
3
3
3
3
3
3
3
3
3
3
3
3
3
3
3
3
3
3
3
3
3
3
3
3
3
3
3
3
3
3
3
3
3
3
3
3
3
3
3
3
3
3
3
3
3
3
3
3
3
3
3
3
3
3
3
3
3
3
3
3
3
3
3
3
3
3
3
3
3
3
3
3
3
3
5
5
5
5
5
5
5
5
5
5
5
5
5
5
5
5
5
5
5
5
5
5
5
5
5
5
5
5
5
5
5
5
5
5
5
5
5
5
5
5
5
5
5
5
5
5
5
5
5
5
5
5
5
5
5
5
5
5
5
5
5
5
5
5
5
5
5
5
5
5
5
5
5
5
5
5
5
5
5
5
5
5
5
5
5
5
5
5
5
5
5
5
5
5
5
5
5
5
5
5
5
5
5
5
5
5
5
5
5
5
5
5
5
5
5
5
5
5
5
5
5
5
5
5
5
5
5
5
5
5
5
5
5
5
5
5
5
5
5
5
5
5
5
5
5
5
5
5
5
5
5
5
5
5
5
5
5
5
5
5
5
5
5
5
5
5
5
5
5
5
5
5
5
5
5
5
5
5
5
5
5
5
5
5
5
5
5
5
5
5
5
5
5
5
5
5
5
5
5
5
5
5
5
5
5
5
5
5
5
5
5
5
5
5
5
5
5
5
5
5
5
5
5
5
5
5
5
5
5
5
5
5
5
5
5
5
5
5
5
5
5
5
5
5
5
5
5
5
5
5
5
5
5
5
5
5
5
5
5
5
5
5
5
5
5
5
5
5
5
5
5
5
5
5
5
5
5
5
5
5
5
5
5
5
5
5
5
5
5
5
5
5
5
5
5
5
5
5
5
5
5
5
5
5
5
5
5
5
5
5
5
5
5
5
5
5
5
5
5
5
5
5
5
5
5
5
5
5
5
5
5
5
5
5
5
5
5
5
5
5
5
5
5
5
5
5
5
5
5
5
5
5
5
5
5
5
5
5
5
5
5
5
5
5
5
5
5
5
5
5
5
5
5
5
5
5
5
5
5
5
5
5
5
5
5
5
5
5
5
5
5
5
5
5
5
5
5
5
5
5
5
5
5
5
5
5
5
5
5
5
5
5
5
5
5
5
5
5
5
5
5
5
5
5
5
5
5
5
5
5
5
5
5
5
5
5
5
5
5
5
5
5
5
5
5
5
5
5
5
5
5
5
5
5
5
5
5
5
5
5
5
5
5
5
5
5
5
5
5
5
5
5
5
5
5
5
5
5
5
5
5
5
5
5
5
5
5
5
5
5
5
5
5
5
5
5
5
5
5
5
5
5
5
5
5
5
5
5
5
5
5
5
5
5
5
5
5
5
5
5
5
5
5
5
5
5
5
5
5
5
5
5
5
5
5
5
5
5
5
5
5
5
5
5
5
5
5
5
5
5
5
5
5
5
5
5
5
5
5
5
5
5
5
5
5
5
5
5
5
5
5
5
5
5
5
5
5
5
5
5
5
5
5
5
5
5
5
5
5
5
5
5
5
5
5
5
5
5
5
5
5
5
5
5
5
5
5
5
5
5
5
5
5
5
5
5
5
5
5
5
5
5
5
5
5
5
5
5
5
5
5
5
5
5
5
5
5
5
5
5
5
5
5
5
5
5
5
5
5
5
5
5
5
5
5
5
5
5
5
5
5
5
5
5
5
5
5
5
5
5
5
5
5
5
5
5
5
5
5
5
5
5
5
5
5
5
5
5
5
5
5
5
5
5
5
5
5
5
5
5
5
5
5
5
5
5
5
5
5
5
5
5
5
5
5
5
5
5
5
5
5
5
5
5
5
5
5
5
5
5
5
5
5
5
5
5
5
5
5
5
5
5
5
5
5
5
5
5
5
5
5
5
5
5
5
5
5
5
5
5
5
5
5
5
5
5
5
5
5
5
5
5
5
5
5
5
5
5
5
5
5
5
5
5
5
5
5
5
5
5
5
5
5
5
5
5
5
5
5
5
5
5
5
5
5
5
5
5
5
5
5
5
5
5
5
5
5
5
5
5
5
5
5
5
5
5
5
5
5
5
5
5
5
5
5
5
5
5
5
5
5
5
5
5
5
5
5
5
5
5
5
5
5
5
5
5
5
5
5
5
5
5
5
5
5
5
5
5
5
5
5
5
5
5
5
5
5
5
5
5
5
5
5
5
5
5
5
5
5
5
5
5
5
5
5
5
5
5
5
5
5
5
5
5
5
5
5
5
5
5
5
5
5
5
5
5
5
5
5
5
5
5
5
5
5
5
5
5
5
5
5
5
5
5
5
5
5
5
5
5
5
5
5
5
5
5
5
5
5
5
5
5
5
5
5
5
5
5
5
5
5
5
5
5
5
5
5
5
5
5
5
5
5
5
5
5
5
5
5
5
5
5
5
5
10
10
10
10
10
10
10
10
10
10
10
10
10
10
10
10
10
10
10
10
10
10
10
10
10
10
10
10
10
10
10
10
10
10
10
10
10
10
10
10
10
10
10
10
10
10
10
10
10
10
10
10
10
10
10
10
10
10
10
10
10
10
10
10
10
10
10
10
10
10
10
10
10
10
10
10
10
10
10
10
10
10
10
10
10
10
10
10
10
10
10
10
10
10
10
10
10
10
10
10
10
10
10
10
10
10
10
10
10
10
10
10
10
10
10
10
10
10
10
10
10
10
10
10
10
10
10
10
10
10
10
10
10
10
10
10
10
10
10
10
10
10
10
10
10
10
10
10
10
10
10
10
10
10
10
10
10
10
10
10
10
10
10
10
10
10
10
10
10
10
10
10
10
10
10
10
10
10
10
10
10
10
10
10
10
10
10
10
10
10
10
10
10
10
10
10
10
10
10
10
10
10
10
10
10
10
10
10
10
10
10
10
10
10
10
10
10
10
10
10
10
10
10
10
10
10
10
10
10
10
10
10
10
10
10
10
10
10
10
10
10
10
10
10
10
10
10
10
10
10
10
10
10
10
10
10
10
10
10
10
10
10
10
10
10
10
10
10
10
10
10
10
10
10
10
10
10
10
10
10
10
10
10
10
10
10
10
10
10
10
10
10
10
10
10
10
10
10
10
10
10
10
10
10
10
10
10
10
10
10
10
10
10
10
10
10
10
10
10
10
10
10
10
10
10
10
10
10
10
10
10
10
10
10
10
10
10
10
10
10
10
10
10
10
10
10
10
10
10
10
10
10
10
10
10
10
10
10
10
10
10
10
10
10
10
10
10
10
10
10
10
10
10
10
10
10
10
10
10
10
10
10
10
10
10
10
10
10
10
10
10
10
10
10
10
10
10
10
10
10
10
10
10
10
10
10
10
10
10
10
10
10
10
10
10
10
10
10
10
10
10
10
10
10
10
10
10
10
10
10
10
10
10
10
10
10
10
10
10
10
10
10
10
10
10
10
10
10
10
10
10
10
10
10
10
10
10
10
10
10
10
10
10
10
10
10
10
10
10
10
10
10
10
10
10
10
10
10
10
10
10
10
10
10
10
10
10
10
10
10
10
10
10
10
10
10
10
10
10
10
10
10
10
10
10
10
10
10
10
10
10
10
10
10
10
10
10
10
10
10
10
10
10
10
10
10
10
10
10
10
10
10
10
10
10
10
10
10
10
10
10
10
10
10
10
10
10
10
10
10
10
10
10
10
10
10
10
10
10
10
10
10
10
10
10
10
10
10
10
10
10
10
10
10
10
10
10
10
10
10
10
10
10
10
10
10
10
10
10
10
10
10
10
10
10
10
10
10
10
10
10
10
10
10
10
10
10
10
10
10
10
10
10
10
10
10
10
10
10
10
10
10
10
10
10
10
10
10
10
10
10
10
10
10
10
10
10
10
10
10
10
10
10
10
10
10
10
10
10
10
10
10
10
10
10
10
10
10
10
10
10
10
10
10
10
10
10
10
10
10
10
10
10
10
10
10
10
10
10
10
10
10
10
10
10
10
10
10
10
10
10
10
10
10
10
10
10
10
10
10
10
10
10
10
10
10
10
10
10
10
10
10
10
10
10
10
10
10
10
10
10
10
10
10
10
10
10
10
10
10
10
10
10
10
10
10
10
10
10
10
10
10
10
10
10
10
10
10
10
10
10
10
10
10
10
10
10
10
10
10
10
10
10
10
10
10
10
10
10
10
10
10
10
10
10
10
10
10
10
10
10
10
10
10
10
10
10
10
10
10
10
10
10
10
10
10
10
10
10
10
10
10
10
10
10
10
10
10
10
10
10
10
10
10
10
10
10
10
10
10
10
10
10
10
10
10
10
10
10
10
10
10
10
10
10
10
10
10
10
10
10
10
10
10
10
10
10
10
10
10
10
10
10
10
10
10
10
10
10
10
10
10
10
10
10
10
10
10
10
10
10
10
10
10
10
10
10
10
10
10
10
10
10
10
10
10
10
10
10
10
10
10
10
10
10
10
10
10
10
10
10
10
10
10
10
10
10
10
10
10
10
10
10
10
10
10
10
10
10
10
10
10
10
10
10
10
10
10
10
10
10
10
10
10
10
10
10
10
10
10
10
10
10
10
10
10
10
10
10
10
10
10
10
10
10
10
10
10
10
10
10
10
10
10
10
10
10
10
10
10
10
10
10
10
10
10
10
10
10
10
10
10
10
10
10
10
10
10
10
10
10
10
10
10
10
10
10
10
10
10
10
10
10
10
10
10
10
10
10
10
10
10
10
10
10
10
10
10
10
10
10
10
10
10
10
10
10
10
10
10
10
10
10
10
10
10
10
10
10
10
10
10
10
10
10
10
10
10
10
10
10
10
10
10
10
10
10
10
10
10
10
10
10
10
10
10
10
10
10
10
10
10
10
10
10
10
10
10
10
10
10
10
10
10
10
10
10
10
10
10
10
10
10
10
10
10
10
10
10
10
10
10
10
10
10
10
10
10
10
10
10
10
10
10
10
10
10
10
10
10
10
10
10
10
10
10
10
10
10
10
10
10
10
10
10
10
10
10
10
10
10
10
10
10
10
10
10
10
10
10
10
10
10
10
10
10
10
10
10
10
10
10
10
10
10
10
10
10
10
10
10
10
10
10
10
10
10
10
10
10
10
10
10
10
10
10
10
10
10
10
10
10
10
10
10
10
10
10
10
10
10
10
10
10
10
10
10
10
10
10
10
10
10
10
10
10
10
10
10
10
10
10
10
10
10
10
10
10
10
10
10
10
10
10
10
10
10
10
10
10
10
10
10
10
10
10
10
10
10
10
10
10
10
10
10
10
10
10
10
10
10
10
10
10
10
10
10
10
10
10
10
10
10
10
10
10
10
10
10
10
10
10
10
10
10
10
10
10
10
10
10
10
10
10
10
10
10
10
10
10
10
10
10
10
10
10
10
10
10
10
10
10
10
10
10
10
10
10
10
10
10
10
10
10
10
10
10
10
10
10
10
10
10
10
10
10
10
10
10
10
10
10
10
10
10
10
10
10
10
10
10
10
10
10
10
10
10
10
10
10
10
10
10
10
10
10
10
10
10
10
10
10
10
10
10
10
10
10
10
10
10
10
10
10
10
10
10
10
10
10
10
10
10
10
10
10
10
10
10
10
10
10
10
10
10
10
10
10
10
10
10
10
10
10
10
10
10
10
10
10
10
10
10
10
10
10
10
10
10
10
10
10
10
10
10
10
10
10
10
10
10
10
10
10
10
10
10
10
10
10
10
10
10
10
10
10
10
10
10
10
10
10
10
10
