# vtk DataFile Version 2.0
, Created by Gmsh 4.11.1 
ASCII
DATASET UNSTRUCTURED_GRID
POINTS 513 double
8.75 0 -44.29524776481733
17.70923938586626 0 -41.01602728075739
17.70923938586626 0 -38.9839727192426
8.75 0 -35.70475223518266
8.75 0 -3
11.75 0 -3
11.75 0 0
-11.75 0 0
-11.75 0 -3
-8.75 0 -3
-8.75 1.071565949253934e-15 -35.70475223518266
-17.70923938586626 2.168756332923536e-15 -38.9839727192426
-17.70923938586626 2.168756332923536e-15 -41.01602728075739
-8.75 1.071565949253934e-15 -44.29524776481733
-8.75 1.071565949253934e-15 -75.70475223518267
-17.70923938586626 2.168756332923536e-15 -78.9839727192426
-17.70923938586626 2.168756332923536e-15 -81.0160272807574
-8.75 1.071565949253934e-15 -84.29524776481733
-8.75 0 -120
8.75 0 -120
8.75 0 -84.29524776481733
17.70923938586626 0 -81.0160272807574
17.70923938586626 0 -78.9839727192426
8.75 0 -75.70475223518267
-8.75 10.07083401692801 -42.61484431004195
8.75 10.070834016928 -42.61484431004194
8.75 10.07083401692802 -37.38515568995805
-8.75 10.07083401692802 -37.38515568995805
8.75 20 -3
8.75 20 -28.98609257871055
11.75 23 -3
-11.75 23 -3
-8.75 20 -3
11.75 23 0
-11.75 23 0
-8.75 20 -28.98609257871055
-8.75 20 -51.01390742128945
-8.75 20 -68.98609257871055
-8.75 10.07083401692802 -77.38515568995804
8.75 10.07083401692802 -77.38515568995804
-8.75 10.070834016928 -82.61484431004195
8.75 10.070834016928 -82.61484431004195
-8.75 20 -91.01390742128945
-8.75 20 -108.9860925787106
-8.75 6.979629339643287 -120
8.75 6.979629339643287 -120
8.75 20 -91.01390742128945
8.75 20 -108.9860925787106
8.75 20 -51.01390742128945
8.75 20 -68.98609257871055
4.709570264709671 2.949487237065316 -84.29524776481733
-4.70957026470967 2.949487237065316 -84.29524776481733
14.21336853118763 2.949487237065316 -81.0160272807574
-14.21336853118763 2.949487237065318 -81.0160272807574
14.21336853118763 2.949487237065316 -78.9839727192426
4.709570264709671 2.949487237065316 -75.70475223518267
-4.70957026470967 2.949487237065316 -75.70475223518267
-14.21336853118763 2.949487237065318 -78.9839727192426
4.709570264709671 2.949487237065316 -44.29524776481733
-4.70957026470967 2.949487237065316 -44.29524776481733
14.21336853118763 2.949487237065316 -41.0160272807574
-14.21336853118763 2.949487237065318 -41.0160272807574
14.21336853118763 2.949487237065316 -38.9839727192426
4.709570264709671 2.949487237065316 -35.70475223518267
-4.70957026470967 2.949487237065316 -35.70475223518267
-14.21336853118763 2.949487237065318 -38.9839727192426
13.22961969293313 0 -42.65563752278737
13.22961969293313 0 -37.34436247721263
8.75 0 -29.16380178814611
8.75 0 -22.62285134110956
8.75 0 -16.08190089407304
8.75 0 -9.540950447036519
5.875000000000016 0 0
3.730349362740526e-14 0 0
-5.874999999999972 0 0
-8.75 0 -9.540950447036542
-8.75 0 -16.08190089407309
-8.75 0 -22.6228513411096
-8.75 0 -29.16380178814611
-13.22961969293313 1.620161141088734e-15 -37.34436247721263
-13.22961969293313 1.620161141088735e-15 -42.65563752278737
-8.75 0 -50.57714865889041
-8.75 0 -56.8590495529635
-8.75 0 -63.14095044703656
-8.75 0 -69.42285134110961
-13.22961969293313 1.620161141088734e-15 -77.34436247721263
-13.22961969293313 1.620161141088735e-15 -82.65563752278736
-8.75 0 -90.24603980401446
-8.75 0 -96.19683184321156
-8.75 0 -102.1476238824087
-8.75 0 -108.0984159216058
-8.75 0 -114.0492079608029
2.916666666666666 0 -120
-2.916666666666668 0 -120
8.75 0 -90.24603980401446
8.75 0 -96.19683184321156
8.75 0 -102.1476238824087
8.75 0 -108.0984159216058
8.75 0 -114.0492079608029
13.22961969293313 0 -82.65563752278736
13.22961969293313 0 -77.34436247721263
8.75 0 -50.57714865889041
8.75 0 -56.8590495529635
8.75 0 -63.14095044703656
8.75 0 -69.42285134110961
16.36120380494458 6.777032512758346 -41.01602728075739
12.52232325940191 12.52232325940194 -41.01602728075739
6.7770325127583 16.3612038049446 -41.01602728075739
-6.576371990381536e-14 17.70923938586626 -41.01602728075739
-6.777032512758392 16.36120380494457 -41.01602728075739
-12.52232325940196 12.52232325940189 -41.01602728075739
-16.3612038049446 6.777032512758315 -41.01602728075739
-8.75 5.088950867518123 -43.79298343112019
-2.952376456902972 10.94029452079465 -43.35031933958251
2.952376456902999 10.94029452079465 -43.35031933958251
8.75 5.088950867518116 -43.79298343112019
16.36120380494458 6.777032512758346 -38.9839727192426
12.52232325940191 12.52232325940194 -38.9839727192426
6.7770325127583 16.3612038049446 -38.9839727192426
-6.576371990381536e-14 17.70923938586626 -38.9839727192426
-6.777032512758392 16.36120380494457 -38.9839727192426
-12.52232325940196 12.52232325940189 -38.9839727192426
-16.3612038049446 6.777032512758315 -38.9839727192426
8.75 5.088950867518125 -36.2070165688798
2.952376456902979 10.94029452079465 -36.64968066041749
-2.952376456902988 10.94029452079465 -36.64968066041749
-8.75 5.088950867518127 -36.2070165688798
8.75 6.666666666666651 -3
8.75 13.33333333333329 -3
8.75 20 -22.48956943403292
8.75 20 -15.99304628935528
8.75 20 -9.496523144677635
8.75 15.03541700846402 -33.18562413433429
-5.875000000000016 23 -3
-3.730349362740526e-14 23 -3
5.874999999999972 23 -3
-11.75 5.749999999999988 -3
-11.75 11.49999999999999 -3
-11.75 17.24999999999999 -3
-8.75 13.33333333333335 -3
-8.75 6.666666666666705 -3
-2.916666666666666 20 -3
2.916666666666668 20 -3
11.75 5.749999999999988 -3
11.75 11.49999999999999 -3
11.75 17.24999999999999 -3
11.75 5.749999999999988 0
11.75 11.49999999999999 0
11.75 17.24999999999999 0
-5.875000000000016 23 0
-3.730349362740526e-14 23 0
5.874999999999972 23 0
-11.75 5.749999999999988 0
-11.75 11.49999999999999 0
-11.75 17.24999999999999 0
-8.75 20 -9.496523144677635
-8.75 20 -15.99304628935528
-8.75 20 -22.48956943403292
-8.75 15.03541700846402 -33.18562413433429
-8.75 15.03541700846399 -46.81437586566569
-8.75 20 -62.99536419290352
-8.75 20 -57.00463580709648
-8.75 15.03541700846402 -73.18562413433429
-8.75 5.088950867518127 -76.20701656887981
8.75 5.088950867518125 -76.20701656887981
2.952376456902977 10.94029452079465 -76.6496806604175
-2.952376456902989 10.94029452079465 -76.6496806604175
16.36120380494458 6.777032512758346 -78.9839727192426
12.52232325940191 12.52232325940194 -78.9839727192426
6.7770325127583 16.3612038049446 -78.9839727192426
-6.576371990381536e-14 17.70923938586626 -78.9839727192426
-6.777032512758392 16.36120380494457 -78.9839727192426
-12.52232325940196 12.52232325940189 -78.9839727192426
-16.3612038049446 6.777032512758315 -78.9839727192426
16.36120380494458 6.777032512758346 -81.0160272807574
12.52232325940191 12.52232325940194 -81.0160272807574
6.7770325127583 16.3612038049446 -81.0160272807574
-6.576371990381536e-14 17.70923938586626 -81.0160272807574
-6.777032512758392 16.36120380494457 -81.0160272807574
-12.52232325940196 12.52232325940189 -81.0160272807574
-16.3612038049446 6.777032512758315 -81.0160272807574
-8.75 5.088950867518116 -83.79298343112019
-2.952376456902976 10.94029452079466 -83.3503193395825
2.952376456902995 10.94029452079466 -83.3503193395825
8.75 5.088950867518118 -83.79298343112019
-8.75 15.03541700846399 -86.81437586566568
-8.75 20 -102.9953641929035
-8.75 20 -97.00463580709648
-8.75 11.31975289309552 -116.3286975262369
-8.75 15.65987644654777 -112.6573950524737
2.916666666666666 6.979629339643287 -120
-2.916666666666668 6.979629339643287 -120
8.75 15.03541700846399 -86.81437586566568
8.75 20 -102.9953641929035
8.75 20 -97.00463580709648
8.75 11.31975289309552 -116.3286975262369
8.75 15.65987644654777 -112.6573950524737
8.75 15.03541700846399 -46.81437586566568
8.75 20 -62.99536419290352
8.75 20 -57.00463580709648
8.75 15.03541700846402 -73.18562413433429
2.916666666666666 20 -51.01390742128945
-2.916666666666668 20 -51.01390742128945
2.916666666666666 20 -28.98609257871055
-2.916666666666668 20 -28.98609257871055
2.916666666666666 20 -68.98609257871055
-2.916666666666668 20 -68.98609257871055
2.916666666666666 20 -91.01390742128945
-2.916666666666668 20 -91.01390742128945
2.916666666666666 20 -108.9860925787106
-2.916666666666668 20 -108.9860925787106
4.041926472212834e-15 5.556935040096178 -84.29524776481733
-5.329070518200751e-15 2.949487237065316 -84.29524776481733
9.475561702304084 2.949487237065316 -82.69683487991162
11.46761081852559 8.900181013878353 -81.0160272807574
6.384463170262187 13.03679216650061 -81.0160272807574
3.312124148168771e-14 14.51617442596244 -81.0160272807574
-6.384463170262128 13.03679216650064 -81.0160272807574
-11.46761081852556 8.900181013878393 -81.0160272807574
-9.475561702304079 2.949487237065316 -82.69683487991162
9.475561702304075 2.949487237065316 -77.30316512008838
7.105427357601002e-15 2.949487237065316 -75.70475223518267
-9.475561702304084 2.949487237065316 -77.30316512008838
11.46761081852559 8.900181013878353 -78.9839727192426
6.384463170262187 13.03679216650061 -78.9839727192426
3.312124148168771e-14 14.51617442596244 -78.9839727192426
-6.384463170262128 13.03679216650064 -78.9839727192426
-11.46761081852556 8.900181013878393 -78.9839727192426
4.041926472212834e-15 5.556935040096178 -75.70475223518267
4.041926472212834e-15 5.556935040096178 -44.29524776481733
-5.329070518200751e-15 2.949487237065316 -44.29524776481733
9.475561702304084 2.949487237065316 -42.69683487991162
11.46761081852559 8.900181013878353 -41.01602728075739
6.384463170262187 13.03679216650061 -41.01602728075739
3.312124148168771e-14 14.51617442596244 -41.01602728075739
-6.384463170262128 13.03679216650064 -41.01602728075739
-11.46761081852556 8.900181013878393 -41.01602728075739
-9.475561702304079 2.949487237065316 -42.69683487991162
9.475561702304075 2.949487237065316 -37.30316512008838
7.105427357601002e-15 2.949487237065316 -35.70475223518267
-9.475561702304084 2.949487237065316 -37.30316512008838
11.46761081852559 8.900181013878353 -38.9839727192426
6.384463170262187 13.03679216650061 -38.9839727192426
3.312124148168771e-14 14.51617442596244 -38.9839727192426
-6.384463170262128 13.03679216650064 -38.9839727192426
-11.46761081852556 8.900181013878393 -38.9839727192426
4.041926472212834e-15 5.556935040096178 -35.70475223518266
-4.107651290737359 0 -87.27064378441591
-2.733105281361639 0 -72.28723934602831
3.672055055687781 0 -48.52164396637042
2.781205085801984 0 -32.13076540668926
1.77635683940025e-15 0 -115.5972167537124
-2.446289108015384 0 -99.1722278628101
-3.739331347469631 0 -58.91639600639084
-2.823475781170727 0 -4.126813182125346
-2.769675892865037 0 -19.42077220624068
2.512592650700546 0 -42.3398508199442
-3.78242478179583 0 -81.89553602557228
2.563653782852298 0 -105.1230199020072
3.596462921417111 0 -93.22143582361301
3.263860383781001 0 -66.54244070612862
2.833825022416202 0 -13.0663766195468
3.90205632421767 0 -5.87261896397537
-2.945803863244548 0 -47.96961287616942
-3.860450720250305 0 -31.26214365311053
-2.945281573741053 0 -37.80932687332628
0.9160088018965302 0 -84.21255462237934
1.130763264503392 0 -77.87808848073232
-0.09412344897239144 0 -25.65878508548125
0.04943901444169452 0 -53.80730851013077
15.46942953939969 0 -39.99999999999999
-15.46942953939969 0 -40
15.46942953939969 0 -80
-3.016925736118744 0 -65.40314761815111
2.713290057064588 0 -59.76962742096119
3.740521279767537 0 -20.45733545184653
-3.996595915543579 0 -12.18017897090101
-3.774693201421504 0 -105.1230199020072
3.926209144801663 0 -99.1722278628101
-3.422073713136215 0 -92.77487688328235
3.981850103936138 0 -72.51259204056444
-9.717743969232483 0 -80
9.826909757070448 0 -80.28698053311702
8.465013042074336 0 -39.89647252385512
-8.545634603981615 0 -40.10770844203633
-3.107441025351835 0 -110.7948167486373
3.795040504112052 0 -111.3236115976221
-14.79748642482124 0 -80
-4.935988084817795 0 -53.71809910592695
4.935988084817794 0 -53.71809910592695
4.973101998026448 0 -25.89332656462783
-4.973101998026453 0 -25.89332656462786
-0.7148626668732669 0 -8.497891372247146
3.912705840967163 0 -37.57623357179951
-4.283841625569171 0 -42.71572318718872
5.347246726849722 0 -81.47997292394678
-4.500254929434047 0 -115.7178383199329
4.589302853403674 0 -115.8417890025898
4.617214624759314 0 -87.15426527726774
-4.444922935172769 0 -77.04783268223235
-5.006986872717516 0 -7.469166794462012
0.3267285629977748 0 -89.08206540580423
13.82809420706033 5.726872625171339 -42.01970286177801
-13.16716981581711 3.146850540150138 -42.54277115669727
-12.03521193843574 7.25342439389663 -42.35463634652501
-13.8280942070604 5.726872625171227 -37.980297138222
13.16716981581322 3.146850540156058 -37.45722884330184
12.03521193842796 7.253424393893145 -37.64536365347188
8.75 14.80266889012336 -19.41853522203289
8.75 5.88610471758715 -26.51463969004164
8.75 9.999999999999973 -8.773502691896237
8.75 8.654211658510597 -32.38037036510775
8.75 13.88249276564175 -26.78839565447383
8.75 5.550669979600875 -19.37024957862967
8.75 5.058715160642086 -12.87351199636835
8.75 15.01476936834169 -12.85279790849346
8.75 10.03058215488299 -15.73865513376984
8.75 10.11530672018253 -22.32284426981744
8.75 3.925853448723175 -31.99411612947159
8.75 4.660157305028054 -7.658184066378151
8.75 15.4063328674094 -7.597414101803423
10.25 3.10416666666666 -3
-10.25 3.104166666666674 -3
11.75 20.125 -1.5
11.75 14.37499999999999 -1.5
11.75 8.624999999999989 -1.5
11.75 2.874999999999994 -1.5
-2.707174061168084 4.878797530676509 0
3.157610638484556 18.22886740495932 0
7.069955745470662 8.71654637064 0
-6.619519168154191 14.39111856499582 0
7.102873022115112 14.37499999999999 0
0.1126091443291184 11.52691623390895 0
-7.000954855602266 8.644857627020135 0
-2.792058517349995 18.15992185565015 0
2.948495529093417 4.721447277005962 0
-7.528051718759411 18.81262893003678 0
7.528051718759418 4.187371069963204 0
7.820492259183636 19.07601590637069 0
-7.553981076842909 4.160878030182232 0
-11.75 20.125 -1.5
-11.75 8.624999999999988 -1.5
-11.75 14.37499999999999 -1.5
-11.75 2.874999999999994 -1.5
-8.75 14.80266889012337 -19.41853522203289
-8.75 5.886104717587145 -26.51463969004165
-8.75 10.00000000000003 -8.773502691896239
-8.75 8.654211658510599 -32.38037036510775
-8.75 13.88249276564175 -26.78839565447383
-8.75 5.550669979600858 -19.37024957862971
-8.75 5.058715160642102 -12.87351199636836
-8.75 15.01476936834171 -12.85279790849345
-8.75 10.03058215488302 -15.73865513376982
-8.75 10.11530672018252 -22.32284426981745
-8.75 3.925853448723174 -31.99411612947159
-8.75 4.660157305028076 -7.658184066378162
-8.75 15.40633286740942 -7.59741410180343
-8.75 14.74387454221847 -60
-8.75 5.867028769898134 -66.79412181488705
-8.75 5.86702876989813 -53.20587818511297
-8.75 8.599631079072267 -47.51598418624275
-8.75 8.599631079072262 -72.48401581375724
-8.75 14.02393924593429 -53.04438979290953
-8.75 14.02393924593431 -66.95561020709046
-8.75 5.331036721473046 -60.00000000000001
-8.75 10.04916049472671 -57.60837783870761
-8.75 10.0381717947561 -62.47733658211766
-8.75 3.911122143297704 -47.87744844523673
-8.75 3.911122143297704 -72.12255155476328
-13.82809422394367 5.726872594118968 -77.98029713958245
13.16716981581322 3.146850540156053 -77.45722884330185
12.03521193842796 7.253424393893138 -77.64536365347189
13.82809420706033 5.726872625171342 -82.019702861778
-13.16716981581711 3.146850540150139 -82.54277115669727
-12.03521193843579 7.253424393896536 -82.35463634652501
-8.75 5.120716923363136 -99.44729688006238
-8.75 9.654562364076703 -109.6232491886861
-8.75 14.81187703071857 -100
-8.75 8.599631079072251 -87.51598418624275
-8.75 14.02393924593429 -93.04438979290953
-8.75 15.05652496743972 -106.2095775342796
-8.75 5.153537078582907 -105.1230199020072
-8.75 5.329685606697707 -93.15340766428191
-8.75 5.970249909113862 -114.4056915102656
-8.75 9.899810554001803 -97.72809170603146
-8.75 10.21283396329532 -102.9953641929035
-8.75 3.803653510657615 -87.80073257009532
-8.75 4.453809227182985 -109.8618477511087
-5.238095238095237 3.489814669821643 -120
5.238095238095238 3.489814669821643 -120
0 3.489814669821643 -120
8.75 5.120716923363136 -99.44729688006238
8.75 9.654562364076703 -109.6232491886861
8.75 14.81187703071857 -100
8.75 8.599631079072255 -87.51598418624275
8.75 14.02393924593429 -93.04438979290953
8.75 15.05652496743972 -106.2095775342796
8.75 5.153537078582907 -105.1230199020072
8.75 5.329685606697707 -93.15340766428191
8.75 5.970249909113862 -114.4056915102656
8.75 9.899810554001803 -97.72809170603146
8.75 10.21283396329532 -102.9953641929035
8.75 3.803653510657617 -87.80073257009533
8.75 4.453809227182985 -109.8618477511087
8.75 14.74387454221847 -60
8.75 5.867028769898136 -66.79412181488705
8.75 5.867028769898126 -53.20587818511297
8.75 8.599631079072251 -47.51598418624274
8.75 8.599631079072271 -72.48401581375725
8.75 14.02393924593429 -53.04438979290953
8.75 14.02393924593431 -66.95561020709046
8.75 5.331036721473046 -60.00000000000001
8.75 10.0491604947267 -57.60837783870761
8.75 10.0381717947561 -62.47733658211766
8.75 3.911122143297707 -72.12255155476328
8.75 3.911122143297699 -47.87744844523673
3.552713678800501e-15 15.71856890525981 -47.39225278962272
-4.120281673651185 14.4162725960126 -46.29064275414139
4.120281673651182 14.4162725960126 -46.29064275414139
5.171945000997788 17.17223935974291 -48.62190993413769
-5.171945000997788 17.17223935974291 -48.62190993413769
-1.77635683940025e-15 16.14302755617697 -32.24869842387837
4.416215733521054 14.2926740238829 -33.81390904905611
-4.120281673651192 14.4162725960126 -33.70935724585861
5.214221295264911 17.21521937099827 -31.3417333539621
3.552713678800501e-15 20 -8.051814855409225
-0.1825779034035477 20 -24.08799576960142
-3.898141920243983 20 -19.66496228571889
2.653605513862717 20 -18.90932104384678
-3.461146234892633 20 -12.8560831269585
3.754550396582072 20 -12.29050717447755
4.577538855425168 20 -24.69181428098045
4.610806197639066 20 -7.345988484524511
-4.610806197639063 20 -7.345988484524518
-4.610806197639064 20 -24.64010409418604
8.812499999999986 23 -1.5
2.937499999999966 23 -1.5
-8.812500000000007 23 -1.5
-2.937500000000027 23 -1.5
0 20 -63.78171647769381
0 20 -56.46878286060412
-4.419170780083892 20 -60.04174988971632
4.419170780083894 20 -60.04174988971633
4.507512340251679 20 -64.69974083055428
-4.507512340251679 20 -64.69974083055428
4.507512340251679 20 -55.30025916944572
-4.507512340251681 20 -55.30025916944572
-1.77635683940025e-15 15.71856890525981 -72.60774721037727
4.120281673651188 14.4162725960126 -73.70935724585861
-4.120281673651187 14.4162725960126 -73.70935724585861
5.171945000997788 17.17223935974292 -71.3780900658623
-5.171945000997791 17.17223935974292 -71.3780900658623
3.552713678800501e-15 15.71856890525981 -87.39225278962273
-4.120281673651181 14.4162725960126 -86.29064275414139
4.120281673651183 14.4162725960126 -86.29064275414139
5.171945000997789 17.17223935974291 -88.62190993413769
-5.171945000997788 17.17223935974291 -88.62190993413769
0 20 -103.7817164776938
0 20 -96.46878286060412
-4.419170780083892 20 -100.0417498897163
4.419170780083894 20 -100.0417498897163
-4.507512340251679 20 -104.6997408305543
-4.507512340251681 20 -95.30025916944572
4.507512340251679 20 -95.30025916944572
4.507512340251679 20 -104.6997408305543
3.421972649128714 13.48981466982164 -114.4930462893553
-3.567200333406701 13.48981466982164 -114.4930462893553
-0.02420461404632945 10.20207668891272 -117.2741377568539
-0.02420461404633123 16.77755265073056 -111.7119548218566
-4.57340453036351 10.13678605727324 -117.3293669812065
4.57340453036351 16.84284328237004 -111.656725597504
-4.573404530363513 16.84284328237004 -111.656725597504
4.573404530363513 10.13678605727324 -117.3293669812065
-5.140540486009968 7.712826959931863 -82.93660416318613
4.58736006888178 8.027783494198973 -82.94497966150458
-0.4330417247289661 9.557656175115788 -82.82733297170093
1.65360564150658 2.949487237065316 -80
-11.84446511674586 2.949487237065316 -80
-4.417637493045826 2.949487237065316 -80
6.004773915106821 2.949487237065316 -80
5.14054048601036 7.712826959931486 -77.06339583681384
-4.58736006888286 8.027783494198358 -77.05502033849541
0.4330417247289156 9.557656175115776 -77.17266702829907
-5.140540486009972 7.71282695993186 -42.93660416318613
4.587360068881781 8.027783494198975 -42.94497966150458
-0.4330417247289661 9.557656175115788 -42.82733297170092
-1.65360564150658 2.949487237065316 -40
-11.84446511674586 2.949487237065316 -40
11.84446511674586 2.949487237065316 -40
4.417637493045824 2.949487237065316 -40
-6.004773915106817 2.949487237065316 -40
-4.587360068882856 8.02778349419836 -37.05502033849541
5.140540486010353 7.71282695993149 -37.06339583681383
0.4330417247289113 9.557656175115776 -37.17266702829907
0 9.367797706292386 -54.2962242449743
0 9.139396458804939 -106.2424020774335
1.77635683940025e-15 9.190318234555781 -65.83168830343749
0 8.998578178470375 -19.0445745194577
-1.77635683940025e-15 10.92333139213546 -95.20223123019538
3.552713678800501e-15 11.31231941872173 -10.35871372457693
-0.6268130400374143 7.382187430637736 -28.32636958340753
2.917085155153 6.850282080094894 -89.932323880824
-3.123241239541274 5.641195982585305 -89.65308933942839
-1.660744789148689 13.31406166952322 -60.12603702980809
0.4005987463923507 5.809559921679879 -112.1311201632398
2.265258276369364 13.48890446519722 -23.85558844293497
-2.026745110916395 13.59096981314012 -101.2974984494378
3.151270519735937 5.691822447434391 -70.48447985006135
2.034360762091762 6.568725876196907 -100.1628034847657
3.335450602577294 6.846768638632581 -49.0988365886735
-2.550748321089261 5.841561491977076 -6.689386926820569
2.936502245196241 8.316004456618797 -60.03895806956097
-2.894842694275351 14.18485278292994 -5.511703660106868

CELLS 2815 12341
1 0
1 1
1 2
1 3
1 4
1 5
1 6
1 7
1 8
1 9
1 10
1 11
1 12
1 13
1 14
1 15
1 16
1 17
1 18
1 19
1 20
1 21
1 22
1 23
1 24
1 25
1 26
1 27
1 28
1 29
1 30
1 31
1 32
1 33
1 34
1 35
1 36
1 37
1 38
1 39
1 40
1 41
1 42
1 43
1 44
1 45
1 46
1 47
1 48
1 49
1 50
1 51
1 52
1 53
1 54
1 55
1 56
1 57
1 58
1 59
1 60
1 61
1 62
1 63
1 64
1 65
2 0 66
2 66 1
2 1 2
2 2 67
2 67 3
2 3 68
2 68 69
2 69 70
2 70 71
2 71 4
2 4 5
2 5 6
2 6 72
2 72 73
2 73 74
2 74 7
2 8 7
2 8 9
2 9 75
2 75 76
2 76 77
2 77 78
2 78 10
2 11 79
2 79 10
2 12 11
2 13 80
2 80 12
2 13 81
2 81 82
2 82 83
2 83 84
2 84 14
2 15 85
2 85 14
2 16 15
2 17 86
2 86 16
2 17 87
2 87 88
2 88 89
2 89 90
2 90 91
2 91 18
2 19 92
2 92 93
2 93 18
2 20 94
2 94 95
2 95 96
2 96 97
2 97 98
2 98 19
2 20 99
2 99 21
2 21 22
2 22 100
2 100 23
2 0 101
2 101 102
2 102 103
2 103 104
2 104 23
2 1 105
2 105 106
2 106 107
2 107 108
2 108 109
2 109 110
2 110 111
2 111 12
2 24 112
2 112 13
2 24 113
2 113 114
2 114 25
2 25 115
2 115 0
2 2 116
2 116 117
2 117 118
2 118 119
2 119 120
2 120 121
2 121 122
2 122 11
2 3 123
2 123 26
2 26 124
2 124 125
2 125 27
2 10 126
2 126 27
2 4 127
2 127 128
2 128 28
2 29 129
2 129 130
2 130 131
2 131 28
2 26 132
2 132 29
2 31 133
2 133 134
2 134 135
2 135 30
2 8 136
2 136 137
2 137 138
2 138 31
2 32 139
2 139 140
2 140 9
2 32 141
2 141 142
2 142 28
2 5 143
2 143 144
2 144 145
2 145 30
2 6 146
2 146 147
2 147 148
2 148 33
2 30 33
2 34 149
2 149 150
2 150 151
2 151 33
2 7 152
2 152 153
2 153 154
2 154 34
2 31 34
2 32 155
2 155 156
2 156 157
2 157 35
2 27 158
2 158 35
2 36 159
2 159 24
2 37 160
2 160 161
2 161 36
2 38 162
2 162 37
2 14 163
2 163 38
2 23 164
2 164 39
2 39 165
2 165 166
2 166 38
2 22 167
2 167 168
2 168 169
2 169 170
2 170 171
2 171 172
2 172 173
2 173 15
2 21 174
2 174 175
2 175 176
2 176 177
2 177 178
2 178 179
2 179 180
2 180 16
2 40 181
2 181 17
2 40 182
2 182 183
2 183 41
2 41 184
2 184 20
2 42 185
2 185 40
2 43 186
2 186 187
2 187 42
2 44 188
2 188 189
2 189 43
2 18 44
2 45 190
2 190 191
2 191 44
2 19 45
2 46 192
2 192 41
2 47 193
2 193 194
2 194 46
2 45 195
2 195 196
2 196 47
2 48 197
2 197 25
2 49 198
2 198 199
2 199 48
2 39 200
2 200 49
2 48 201
2 201 202
2 202 36
2 29 203
2 203 204
2 204 35
2 49 205
2 205 206
2 206 37
2 46 207
2 207 208
2 208 42
2 47 209
2 209 210
2 210 43
2 50 211
2 211 51
2 51 212
2 212 50
2 50 213
2 213 52
2 52 214
2 214 215
2 215 216
2 216 217
2 217 218
2 218 53
2 53 219
2 219 51
2 52 54
2 54 220
2 220 55
2 55 221
2 221 56
2 56 222
2 222 57
2 53 57
2 54 223
2 223 224
2 224 225
2 225 226
2 226 227
2 227 57
2 55 228
2 228 56
2 58 229
2 229 59
2 59 230
2 230 58
2 58 231
2 231 60
2 60 232
2 232 233
2 233 234
2 234 235
2 235 236
2 236 61
2 61 237
2 237 59
2 60 62
2 62 238
2 238 63
2 63 239
2 239 64
2 64 240
2 240 65
2 61 65
2 62 241
2 241 242
2 242 243
2 243 244
2 244 245
2 245 65
2 63 246
2 246 64
3 66 283 0
3 0 249 101
3 0 256 249
3 0 283 256
3 2 270 1
3 1 270 66
3 67 270 2
3 3 283 67
3 68 250 3
3 250 293 3
3 3 293 283
3 5 6 4
3 4 6 72
3 4 262 71
3 72 262 4
3 8 9 7
3 7 9 74
3 9 254 74
3 75 300 9
3 9 300 254
3 10 264 78
3 79 284 10
3 10 265 264
3 10 284 265
3 12 271 11
3 11 271 79
3 80 271 12
3 13 284 80
3 81 263 13
3 263 294 13
3 13 294 284
3 14 248 84
3 85 281 14
3 14 299 248
3 281 299 14
3 16 287 15
3 15 287 85
3 86 287 16
3 17 281 86
3 87 247 17
3 247 257 17
3 257 281 17
3 18 296 91
3 93 296 18
3 19 297 92
3 98 297 19
3 20 298 94
3 99 282 20
3 282 295 20
3 295 298 20
3 22 272 21
3 21 272 99
3 100 272 22
3 23 282 100
3 104 280 23
3 23 280 267
3 267 295 23
3 23 295 282
3 66 270 67
3 67 283 66
3 69 290 68
3 68 290 250
3 70 275 69
3 275 290 69
3 71 261 70
3 261 275 70
3 71 262 261
3 73 262 72
3 74 254 73
3 254 262 73
3 76 276 75
3 276 300 75
3 77 255 76
3 255 276 76
3 78 291 77
3 77 291 255
3 264 291 78
3 79 271 80
3 80 284 79
3 82 288 81
3 81 288 263
3 83 253 82
3 253 288 82
3 84 273 83
3 83 273 253
3 248 273 84
3 85 287 281
3 281 287 86
3 88 279 87
3 87 279 247
3 89 252 88
3 252 279 88
3 90 277 89
3 89 277 252
3 91 285 90
3 90 285 277
3 91 296 285
3 92 251 93
3 92 297 251
3 251 296 93
3 94 259 95
3 94 298 259
3 95 278 96
3 259 278 95
3 96 258 97
3 96 278 258
3 97 286 98
3 258 286 97
3 286 297 98
3 99 272 100
3 100 282 99
3 101 289 102
3 249 289 101
3 102 274 103
3 102 289 274
3 103 260 104
3 103 274 260
3 260 280 104
3 247 266 257
3 247 301 266
3 279 301 247
3 260 273 248
3 248 280 260
3 267 280 248
3 248 299 267
3 256 263 249
3 263 269 249
3 269 289 249
3 264 265 250
3 250 268 264
3 265 293 250
3 250 290 268
3 251 286 285
3 285 296 251
3 251 297 286
3 252 277 258
3 258 278 252
3 252 278 259
3 259 279 252
3 253 274 269
3 269 288 253
3 273 274 253
3 254 292 262
3 254 300 292
3 255 275 261
3 261 276 255
3 268 275 255
3 255 291 268
3 256 294 263
3 256 293 265
3 265 294 256
3 283 293 256
3 266 267 257
3 267 299 257
3 257 299 281
3 277 285 258
3 285 286 258
3 259 301 279
3 298 301 259
3 260 274 273
3 262 292 261
3 261 292 276
3 263 288 269
3 268 291 264
3 284 294 265
3 266 295 267
3 266 298 295
3 266 301 298
3 268 290 275
3 274 289 269
3 292 300 276
3 66 0 115
3 66 302 1
3 1 302 105
3 12 303 80
3 111 303 12
3 80 303 13
3 13 303 112
3 109 24 110
3 109 113 24
3 24 304 110
3 112 304 24
3 106 25 107
3 106 302 25
3 114 107 25
3 25 302 115
3 115 302 66
3 105 302 106
3 108 107 114
3 109 108 113
3 108 114 113
3 110 304 111
3 111 304 303
3 303 304 112
3 1 116 2
3 1 105 116
3 111 12 11
3 111 11 122
3 105 106 116
3 106 107 118
3 116 106 117
3 106 118 117
3 107 108 118
3 119 108 109
3 118 108 119
3 109 110 121
3 119 109 120
3 109 121 120
3 110 111 122
3 121 110 122
3 2 306 67
3 116 306 2
3 67 306 3
3 3 306 123
3 126 79 10
3 79 305 11
3 11 305 122
3 117 118 26
3 26 307 117
3 26 118 124
3 123 307 26
3 120 121 27
3 120 27 125
3 121 305 27
3 27 305 126
3 126 305 79
3 117 307 116
3 116 307 306
3 124 118 119
3 120 125 119
3 125 124 119
3 122 305 121
3 306 307 123
3 3 318 68
3 123 318 3
3 71 319 4
3 4 319 127
3 26 311 123
3 132 311 26
3 128 320 28
3 28 320 131
3 129 312 29
3 29 312 132
3 68 309 69
3 68 318 309
3 69 313 70
3 309 313 69
3 70 314 71
3 313 314 70
3 314 319 71
3 311 318 123
3 127 310 128
3 127 319 310
3 310 320 128
3 130 308 129
3 308 312 129
3 131 315 130
3 130 315 308
3 131 320 315
3 132 312 311
3 308 317 312
3 315 316 308
3 316 317 308
3 311 312 309
3 309 318 311
3 312 317 309
3 309 317 313
3 314 316 310
3 310 319 314
3 310 316 315
3 315 320 310
3 313 316 314
3 313 317 316
3 5 4 321
3 4 127 321
3 143 5 321
3 9 8 322
3 8 136 322
3 140 9 322
3 30 28 135
3 145 28 30
3 145 128 28
3 28 142 135
3 31 133 32
3 138 31 32
3 133 141 32
3 138 32 139
3 127 128 144
3 143 127 144
3 127 143 321
3 128 145 144
3 134 141 133
3 142 134 135
3 142 141 134
3 136 137 140
3 136 140 322
3 137 138 139
3 137 139 140
3 5 326 6
3 143 326 5
3 6 326 146
3 33 323 30
3 30 323 145
3 148 323 33
3 144 325 143
3 143 325 146
3 146 326 143
3 145 324 144
3 144 324 147
3 147 325 144
3 145 323 148
3 148 324 145
3 146 325 147
3 147 324 148
3 6 337 72
3 146 337 6
3 74 339 7
3 7 339 152
3 33 338 148
3 151 338 33
3 34 336 149
3 154 336 34
3 72 335 73
3 72 337 335
3 73 327 74
3 73 335 327
3 327 339 74
3 147 329 146
3 329 337 146
3 148 331 147
3 147 331 329
3 148 338 331
3 149 334 150
3 149 336 334
3 150 328 151
3 150 334 328
3 328 338 151
3 152 333 153
3 152 339 333
3 153 330 154
3 153 333 330
3 330 336 154
3 332 333 327
3 327 335 332
3 333 339 327
3 328 332 331
3 331 338 328
3 328 334 332
3 331 332 329
3 332 335 329
3 335 337 329
3 330 333 332
3 332 334 330
3 334 336 330
3 8 7 343
3 7 152 343
3 136 8 343
3 34 31 340
3 31 138 340
3 154 34 340
3 137 136 341
3 136 152 341
3 152 136 343
3 138 137 342
3 153 137 341
3 137 153 342
3 138 154 340
3 154 138 342
3 152 153 341
3 153 154 342
3 75 9 355
3 9 140 355
3 10 78 354
3 126 10 354
3 27 126 347
3 158 27 347
3 139 32 356
3 32 155 356
3 157 35 348
3 35 158 348
3 76 75 350
3 350 75 355
3 77 76 349
3 349 76 350
3 78 77 345
3 345 77 349
3 78 345 354
3 347 126 354
3 140 139 346
3 346 139 356
3 140 346 355
3 155 156 351
3 155 351 356
3 156 157 344
3 156 344 351
3 344 157 348
3 158 347 348
3 344 348 353
3 351 344 352
3 352 344 353
3 347 345 348
3 345 347 354
3 348 345 353
3 345 349 353
3 350 346 352
3 346 350 355
3 346 351 352
3 351 346 356
3 349 350 352
3 349 352 353
3 81 13 367
3 13 112 367
3 14 84 368
3 163 14 368
3 112 24 360
3 24 159 360
3 159 36 362
3 36 161 362
3 160 37 363
3 37 162 363
3 162 38 361
3 38 163 361
3 82 81 359
3 359 81 367
3 83 82 364
3 82 359 364
3 84 83 358
3 358 83 364
3 84 358 368
3 112 360 367
3 360 159 362
3 161 160 357
3 357 160 363
3 161 357 362
3 162 361 363
3 361 163 368
3 362 357 365
3 357 363 366
3 365 357 366
3 361 358 363
3 358 361 368
3 363 358 366
3 358 364 366
3 359 360 362
3 360 359 367
3 359 362 365
3 364 359 365
3 364 365 366
3 163 85 14
3 85 369 15
3 15 369 173
3 22 370 100
3 167 370 22
3 100 370 23
3 23 370 164
3 38 369 163
3 171 38 166
3 171 172 38
3 172 369 38
3 164 371 39
3 39 169 165
3 168 169 39
3 39 371 168
3 163 369 85
3 370 371 164
3 166 165 170
3 165 169 170
3 171 166 170
3 168 371 167
3 167 371 370
3 173 369 172
3 180 16 15
3 173 180 15
3 21 167 22
3 21 174 167
3 167 175 168
3 174 175 167
3 168 176 169
3 168 175 176
3 169 177 170
3 176 177 169
3 170 177 171
3 171 179 172
3 177 178 171
3 178 179 171
3 172 179 173
3 179 180 173
3 16 373 86
3 180 373 16
3 86 373 17
3 17 373 181
3 99 20 184
3 99 372 21
3 21 372 174
3 178 40 179
3 182 40 178
3 40 374 179
3 181 374 40
3 175 41 176
3 175 372 41
3 183 176 41
3 41 372 184
3 184 372 99
3 174 372 175
3 177 176 183
3 178 177 182
3 182 177 183
3 179 374 180
3 180 374 373
3 373 374 181
3 87 17 386
3 17 181 386
3 44 18 383
3 18 91 383
3 181 40 378
3 40 185 378
3 185 42 379
3 42 187 379
3 186 43 380
3 43 189 380
3 188 44 383
3 88 87 382
3 382 87 386
3 89 88 375
3 375 88 382
3 90 89 381
3 89 375 381
3 91 90 387
3 90 381 387
3 383 91 387
3 181 378 386
3 378 185 379
3 187 186 377
3 377 186 380
3 187 377 379
3 189 188 376
3 376 188 383
3 189 376 380
3 381 375 385
3 375 382 384
3 375 384 385
3 380 376 385
3 376 381 385
3 381 376 387
3 376 383 387
3 379 377 384
3 377 380 385
3 384 377 385
3 378 379 382
3 378 382 386
3 382 379 384
3 44 388 18
3 18 388 93
3 19 389 45
3 92 389 19
3 191 388 44
3 45 389 190
3 93 390 92
3 92 390 389
3 388 390 93
3 190 390 191
3 389 390 190
3 191 390 388
3 45 399 19
3 19 399 98
3 94 402 20
3 20 402 184
3 184 394 41
3 41 394 192
3 195 399 45
3 192 395 46
3 46 395 194
3 193 396 47
3 47 396 196
3 95 398 94
3 398 402 94
3 96 391 95
3 391 398 95
3 97 397 96
3 96 397 391
3 98 403 97
3 97 403 397
3 399 403 98
3 184 402 394
3 394 395 192
3 194 393 193
3 393 396 193
3 194 395 393
3 196 392 195
3 392 399 195
3 196 396 392
3 397 401 391
3 391 400 398
3 391 401 400
3 396 401 392
3 392 401 397
3 397 403 392
3 392 403 399
3 395 400 393
3 393 401 396
3 400 401 393
3 394 398 395
3 394 402 398
3 398 400 395
3 101 415 0
3 0 415 115
3 23 414 104
3 164 414 23
3 115 407 25
3 25 407 197
3 39 408 164
3 200 408 39
3 197 409 48
3 48 409 199
3 198 410 49
3 49 410 200
3 102 406 101
3 406 415 101
3 103 411 102
3 102 411 406
3 104 405 103
3 405 411 103
3 104 414 405
3 115 415 407
3 408 414 164
3 407 409 197
3 199 404 198
3 404 410 198
3 199 409 404
3 200 410 408
3 409 412 404
3 404 413 410
3 412 413 404
3 408 410 405
3 405 414 408
3 410 413 405
3 405 413 411
3 406 409 407
3 407 415 406
3 406 412 409
3 411 412 406
3 411 413 412
3 113 417 24
3 24 417 159
3 25 418 114
3 197 418 25
3 159 420 36
3 36 420 202
3 48 419 197
3 201 419 48
3 114 416 113
3 416 417 113
3 114 418 416
3 417 420 159
3 197 419 418
3 202 416 201
3 416 419 201
3 202 420 416
3 416 420 417
3 418 419 416
3 124 422 26
3 26 422 132
3 27 423 125
3 158 423 27
3 132 424 29
3 29 424 203
3 204 158 35
3 125 421 124
3 421 422 124
3 125 423 421
3 422 424 132
3 204 423 158
3 203 421 204
3 203 424 421
3 421 423 204
3 421 424 422
3 131 432 28
3 28 432 142
3 29 431 129
3 203 431 29
3 141 433 32
3 32 433 155
3 157 434 35
3 35 434 204
3 129 428 130
3 129 431 428
3 130 430 131
3 428 430 130
3 430 432 131
3 142 425 141
3 425 433 141
3 142 432 425
3 155 429 156
3 155 433 429
3 156 427 157
3 156 429 427
3 427 434 157
3 204 426 203
3 426 431 203
3 204 434 426
3 425 430 429
3 429 433 425
3 425 432 430
3 427 428 426
3 426 434 427
3 428 431 426
3 427 429 428
3 429 430 428
3 30 435 33
3 135 435 30
3 34 437 31
3 31 437 133
3 33 435 151
3 149 437 34
3 133 438 134
3 133 437 149
3 149 438 133
3 134 436 135
3 150 436 134
3 134 438 150
3 151 435 135
3 135 436 151
3 150 438 149
3 151 436 150
3 36 446 161
3 202 446 36
3 160 444 37
3 37 444 206
3 199 445 48
3 48 445 201
3 49 443 198
3 205 443 49
3 161 441 160
3 441 444 160
3 161 446 441
3 198 442 199
3 198 443 442
3 442 445 199
3 201 440 202
3 201 445 440
3 440 446 202
3 206 439 205
3 439 443 205
3 206 444 439
3 439 441 440
3 440 442 439
3 439 444 441
3 442 443 439
3 441 446 440
3 440 445 442
3 37 451 162
3 206 451 37
3 162 449 38
3 38 449 166
3 165 448 39
3 39 448 200
3 200 450 49
3 49 450 205
3 162 451 449
3 166 447 165
3 447 448 165
3 166 449 447
3 448 450 200
3 205 447 206
3 205 450 447
3 447 451 206
3 447 450 448
3 449 451 447
3 182 453 40
3 40 453 185
3 41 454 183
3 192 454 41
3 185 456 42
3 42 456 208
3 46 455 192
3 207 455 46
3 183 452 182
3 452 453 182
3 183 454 452
3 453 456 185
3 192 455 454
3 208 452 207
3 452 455 207
3 208 456 452
3 452 456 453
3 454 455 452
3 42 462 187
3 208 462 42
3 186 461 43
3 43 461 210
3 194 463 46
3 46 463 207
3 47 464 193
3 209 464 47
3 187 459 186
3 459 461 186
3 187 462 459
3 193 460 194
3 193 464 460
3 460 463 194
3 207 458 208
3 207 463 458
3 458 462 208
3 210 457 209
3 457 464 209
3 210 461 457
3 457 459 458
3 458 460 457
3 457 461 459
3 460 464 457
3 459 462 458
3 458 463 460
3 43 471 189
3 210 471 43
3 188 469 44
3 44 469 191
3 190 472 45
3 45 472 195
3 196 470 47
3 47 470 209
3 189 466 188
3 466 469 188
3 189 471 466
3 191 467 190
3 467 472 190
3 191 469 467
3 195 465 196
3 195 472 465
3 465 470 196
3 209 468 210
3 209 470 468
3 468 471 210
3 465 467 466
3 466 468 465
3 465 472 467
3 468 470 465
3 467 469 466
3 466 471 468
3 211 212 50
3 212 211 51
3 211 50 474
3 50 213 474
3 51 211 473
3 219 51 473
3 52 214 213
3 218 53 219
3 473 211 475
3 211 474 475
3 213 214 474
3 214 215 474
3 215 216 475
3 474 215 475
3 216 217 475
3 217 218 473
3 217 473 475
3 218 219 473
3 212 476 50
3 50 479 213
3 476 479 50
3 51 478 212
3 219 478 51
3 213 54 52
3 57 477 53
3 53 477 219
3 220 54 213
3 220 479 55
3 55 476 221
3 55 479 476
3 221 478 56
3 56 478 222
3 222 477 57
3 212 478 476
3 213 479 220
3 219 477 222
3 222 478 219
3 476 478 221
3 54 223 52
3 52 223 214
3 218 57 53
3 227 57 218
3 214 223 215
3 215 225 216
3 223 224 215
3 224 225 215
3 216 226 217
3 225 226 216
3 226 218 217
3 226 227 218
3 54 220 223
3 220 55 480
3 55 228 480
3 56 222 481
3 228 56 481
3 227 222 57
3 223 220 480
3 222 227 481
3 224 223 480
3 225 224 482
3 224 480 482
3 226 225 482
3 227 226 481
3 481 226 482
3 480 228 482
3 228 481 482
3 221 228 55
3 228 221 56
3 229 230 58
3 230 229 59
3 229 58 484
3 58 231 484
3 59 229 483
3 237 59 483
3 60 232 231
3 236 61 237
3 483 229 485
3 229 484 485
3 231 232 484
3 232 233 484
3 233 234 485
3 484 233 485
3 234 235 485
3 235 236 483
3 235 483 485
3 236 237 483
3 230 489 58
3 58 489 231
3 59 486 230
3 237 490 59
3 59 490 486
3 60 488 62
3 231 488 60
3 65 487 61
3 61 487 237
3 62 488 238
3 238 489 63
3 63 489 239
3 239 486 64
3 64 490 240
3 486 490 64
3 240 487 65
3 486 489 230
3 238 488 231
3 231 489 238
3 237 487 240
3 240 490 237
3 239 489 486
3 60 62 232
3 236 65 61
3 62 241 232
3 245 65 236
3 232 241 233
3 233 243 234
3 241 242 233
3 242 243 233
3 234 244 235
3 243 244 234
3 244 236 235
3 244 245 236
3 62 238 241
3 238 63 492
3 63 246 492
3 64 240 491
3 246 64 491
3 245 240 65
3 241 238 492
3 240 245 491
3 242 241 492
3 243 242 493
3 242 492 493
3 244 243 493
3 245 244 491
3 491 244 493
3 246 491 493
3 492 246 493
3 239 246 63
3 246 239 64
4 368 228 496 507
4 114 25 107 233
4 120 125 27 244
4 263 367 59 229
4 183 41 176 215
4 171 166 38 226
4 360 229 367 494
4 263 367 229 494
4 209 470 464 495
4 468 470 209 495
4 56 368 248 228
4 361 368 228 496
4 320 142 432 512
4 56 368 228 361
4 396 464 470 495
4 350 276 497 499
4 368 248 228 507
4 320 128 142 512
4 468 210 471 506
4 351 352 497 499
4 316 315 497 499
4 404 494 445 503
4 375 277 381 508
4 468 209 457 495
4 229 263 494 509
4 364 253 496 511
4 351 352 344 497
4 315 308 316 497
4 413 404 496 511
4 315 428 497 499
4 1 60 302 66
4 351 497 429 499
4 276 499 350 510
4 464 495 396 506
4 209 464 457 495
4 451 447 206 496
4 450 205 447 496
4 464 396 393 506
4 364 494 253 511
4 372 21 52 99
4 79 65 11 305
4 85 57 15 369
4 468 471 495 506
4 320 499 128 512
4 381 385 375 495
4 404 445 442 503
4 375 381 495 508
4 320 432 499 512
4 429 351 344 497
4 246 63 311 500
4 318 311 63 500
4 442 443 404 503
4 368 496 248 507
4 416 201 419 494
4 202 416 420 494
4 277 495 381 508
4 315 430 428 499
4 412 494 404 511
4 443 439 205 496
4 206 439 444 496
4 463 460 393 498
4 314 316 497 499
4 352 350 497 499
4 396 495 401 506
4 464 393 460 506
4 396 401 393 506
4 451 206 363 496
4 450 410 205 496
4 315 428 308 497
4 314 261 319 499
4 241 242 492 26
4 344 427 429 497
4 385 375 495 508
4 455 207 463 498
4 208 456 462 498
4 314 497 261 499
4 364 496 366 503
4 365 494 364 503
4 404 409 445 494
4 404 503 496 511
4 443 410 404 503
4 443 496 410 503
4 440 202 446 494
4 445 201 440 494
4 427 344 434 505
4 202 420 362 494
4 201 409 419 494
4 261 497 276 499
4 218 217 473 40
4 236 235 483 24
4 223 224 480 39
4 375 506 384 508
4 385 506 375 508
4 410 413 404 496
4 319 499 261 510
4 364 496 503 511
4 364 503 494 511
4 63 250 318 500
4 263 359 367 494
4 385 384 375 506
4 410 443 205 496
4 206 444 363 496
4 375 384 498 508
4 359 360 367 494
4 494 503 404 511
4 99 184 20 213
4 380 495 471 506
4 460 393 498 506
4 277 387 381 495
4 375 498 252 508
4 273 364 253 496
4 264 64 354 500
4 439 496 443 503
4 310 314 319 499
4 457 495 464 506
4 434 344 348 505
4 362 446 202 494
4 445 409 201 494
4 113 229 360 494
4 344 497 353 505
4 226 481 482 166
4 244 491 493 125
4 215 474 475 183
4 233 484 485 114
4 444 496 439 503
4 291 345 349 500
4 326 5 321 143
4 8 136 343 322
4 332 128 499 512
4 404 412 409 494
4 233 232 484 25
4 215 214 474 41
4 244 245 491 27
4 226 227 481 38
4 440 445 494 503
4 263 269 288 494
4 463 458 460 498
4 361 358 368 496
4 228 166 361 496
4 261 499 276 510
4 128 320 310 499
4 215 475 216 183
4 234 233 485 114
4 226 482 225 166
4 493 244 125 243
4 288 269 253 494
4 427 497 344 505
4 210 468 457 506
4 470 392 396 495
4 376 471 380 495
4 366 365 364 503
4 205 439 447 496
4 447 439 206 496
4 292 262 261 510
4 410 496 404 503
4 428 429 497 499
4 468 495 457 506
4 427 428 429 497
4 126 10 79 240
4 66 115 0 231
4 201 416 440 494
4 440 416 202 494
4 368 358 248 496
4 385 495 506 508
4 269 253 494 511
4 344 353 348 505
4 426 427 434 505
4 446 440 494 503
4 492 246 63 311
4 113 229 494 509
4 219 218 473 181
4 237 236 483 112
4 220 223 480 164
4 273 496 253 511
4 375 252 277 508
4 354 64 347 500
4 359 288 253 494
4 393 506 401 508
4 238 241 492 123
4 497 500 353 505
4 363 496 444 503
4 163 14 85 222
4 309 313 317 497
4 384 506 498 508
4 393 400 498 508
4 350 276 255 497
4 432 425 499 512
4 393 498 506 508
4 296 388 191 390
4 17 181 373 219
4 228 166 496 507
4 432 142 425 512
4 361 228 56 481
4 319 261 262 510
4 263 288 359 494
4 350 255 349 497
4 348 353 500 505
4 364 359 253 494
4 440 442 445 503
4 446 494 362 503
4 289 269 494 511
4 458 460 498 506
4 261 314 313 497
4 375 384 382 498
4 361 166 228 481
4 316 313 314 497
4 350 349 352 497
4 202 440 201 416
4 468 471 466 495
4 269 494 263 509
4 207 455 452 498
4 456 208 452 498
4 255 268 291 500
4 465 470 468 495
4 495 401 506 508
4 465 392 470 495
4 466 471 376 495
4 348 500 421 505
4 448 450 447 496
4 449 447 451 496
4 403 258 397 495
4 393 401 400 508
4 255 497 268 500
4 498 501 452 502
4 428 497 427 505
4 442 439 443 503
4 420 416 417 494
4 419 418 416 494
4 452 208 207 498
4 352 346 350 499
4 314 310 316 499
4 320 432 430 499
4 455 463 395 498
4 462 456 379 498
4 292 261 276 510
4 269 274 253 511
4 191 296 390 504
4 492 124 246 311
4 366 364 358 496
4 364 365 359 494
4 113 483 360 229
4 113 494 416 509
4 428 430 429 499
4 13 112 303 237
4 458 207 208 498
4 205 206 447 439
4 350 499 346 510
4 113 360 417 494
4 403 258 495 504
4 210 457 461 506
4 387 376 495 504
4 392 403 397 495
4 387 376 381 495
4 469 466 376 504
4 311 124 246 500
4 466 465 468 495
4 251 390 296 504
4 309 318 250 500
4 464 460 457 506
4 363 449 451 496
4 448 410 450 496
4 308 497 428 505
4 3 123 306 238
4 166 449 361 496
4 420 417 362 494
4 419 409 418 494
4 320 430 315 499
4 261 313 275 497
4 273 253 274 511
4 9 140 322 339
4 425 430 432 499
4 434 348 204 505
4 127 4 321 337
4 453 456 452 498
4 455 454 452 498
4 463 393 395 498
4 458 463 207 498
4 458 208 462 498
4 417 416 113 494
4 376 380 385 495
4 392 401 396 495
4 454 452 498 501
4 113 485 229 509
4 318 309 311 500
4 466 495 376 504
4 289 274 269 511
4 126 79 305 240
4 184 99 372 213
4 115 66 302 231
4 163 85 369 222
4 453 498 452 502
4 273 358 364 496
4 403 495 392 504
4 289 494 269 509
4 289 494 406 511
4 422 500 312 505
4 166 447 449 496
4 228 482 166 507
4 380 385 495 506
4 220 54 223 371
4 219 374 53 218
4 237 304 61 236
4 480 224 482 165
4 492 242 493 124
4 473 217 475 182
4 483 235 485 113
4 312 422 311 500
4 276 261 255 497
4 390 251 297 504
4 434 204 426 505
4 348 423 421 500
4 462 498 379 506
4 204 348 421 505
4 392 495 465 504
4 309 250 290 500
4 318 290 309 250
4 273 248 496 507
4 448 410 496 507
4 232 60 302 62
4 454 498 395 501
4 238 307 62 241
4 351 346 352 499
4 316 310 315 499
4 264 354 345 500
4 379 498 453 502
4 23 164 370 220
4 424 421 422 505
4 417 360 362 494
4 453 379 456 498
4 455 395 454 498
4 418 494 409 509
4 449 363 361 496
4 248 358 273 496
4 424 422 312 505
4 359 367 288 263
4 472 392 465 504
4 448 496 447 507
4 403 286 258 504
4 65 236 305 245
4 52 223 372 214
4 241 62 232 302
4 57 227 218 369
4 377 462 379 506
4 289 406 494 509
4 466 465 495 504
4 383 469 376 504
4 310 320 315 499
4 277 495 258 504
4 362 494 365 503
4 376 385 381 495
4 397 401 392 495
4 458 498 462 506
4 366 496 363 503
4 289 406 411 511
4 308 317 316 497
4 344 352 353 497
4 459 462 377 506
4 416 494 418 509
4 264 250 239 500
4 258 495 277 508
4 289 411 274 511
4 421 500 422 505
4 356 346 351 512
4 421 203 426 505
4 399 389 297 504
4 311 422 124 500
4 454 183 452 501
4 308 317 497 505
4 312 500 309 505
4 499 510 332 512
4 393 400 395 498
4 312 311 309 500
4 255 275 268 497
4 203 424 431 505
4 397 495 258 508
4 401 495 397 508
4 268 290 250 500
4 453 452 182 502
4 346 499 351 512
4 400 398 498 508
4 397 278 391 508
4 167 54 22 370
4 12 61 303 111
4 16 53 373 180
4 379 498 384 506
4 466 467 465 504
4 448 447 165 507
4 118 243 124 119
4 165 170 169 225
4 113 108 109 234
4 170 166 171 225
4 191 390 467 504
4 491 246 125 500
4 224 225 482 165
4 242 243 493 124
4 217 216 475 182
4 235 234 485 113
4 377 379 384 506
4 398 501 498 508
4 448 408 410 507
4 96 391 397 278
4 387 383 376 504
4 264 345 291 500
4 391 278 398 508
4 446 362 357 503
4 306 116 2 62
4 351 499 429 512
4 190 467 390 504
4 362 360 359 494
4 191 467 469 504
4 203 421 424 505
4 454 395 394 501
4 446 357 441 503
4 475 501 211 502
4 70 261 314 313
4 361 363 358 496
4 363 366 358 496
4 410 405 413 496
4 346 140 510 512
4 255 261 275 497
4 346 139 140 512
4 405 496 260 511
4 362 359 365 494
4 406 409 412 494
4 353 352 349 497
4 317 313 316 497
4 349 76 255 350
4 268 250 264 500
4 382 384 379 498
4 395 400 398 498
4 379 453 378 502
4 432 320 28 142
4 151 33 338 435
4 114 416 418 509
4 34 437 149 336
4 357 444 441 503
4 399 392 472 504
4 264 291 268 500
4 209 210 468 457
4 433 356 429 512
4 357 363 444 503
4 405 260 411 511
4 407 418 409 509
4 429 430 425 499
4 410 405 496 507
4 276 255 76 350
4 345 354 347 500
4 423 348 347 500
4 277 89 375 381
4 279 252 88 375
4 426 428 427 505
4 260 274 411 511
4 395 498 398 501
4 379 382 498 502
4 409 494 406 509
4 351 429 356 512
4 343 152 7 339
4 326 337 6 146
4 279 301 501 502
4 382 279 88 375
4 320 128 28 142
4 467 466 469 504
4 317 312 309 505
4 338 33 148 323
4 124 493 246 500
4 421 124 422 500
4 336 34 340 154
4 333 510 140 512
4 412 406 494 511
4 459 458 462 506
4 277 258 285 504
4 260 496 405 507
4 70 275 261 313
4 362 365 357 503
4 405 413 496 511
4 139 333 140 512
4 347 491 125 500
4 429 499 425 512
4 51 219 473 181
4 59 237 483 112
4 55 220 480 164
4 231 58 484 115
4 213 474 184 50
4 222 56 481 163
4 240 491 126 64
4 258 278 397 508
4 438 150 149 334
4 95 398 391 278
4 63 238 492 123
4 348 353 345 500
4 229 230 263 509
4 425 142 141 512
4 330 342 153 154
4 357 366 363 503
4 69 290 275 313
4 423 347 125 500
4 259 501 398 508
4 423 421 204 348
4 472 467 190 504
4 433 429 425 512
4 428 315 130 430
4 308 315 130 428
4 436 150 328 151
4 125 421 423 500
4 258 96 397 278
4 246 493 125 500
4 400 391 398 508
4 431 424 312 505
4 103 260 274 411
4 204 426 421 203
4 278 252 259 508
4 333 332 510 512
4 436 142 134 135
4 438 133 134 141
4 405 260 103 411
4 274 289 102 411
4 348 345 347 500
4 9 140 339 254
4 141 142 334 512
4 9 254 300 355
4 399 403 392 504
4 278 259 398 508
4 69 309 290 313
4 410 408 405 507
4 380 461 377 506
4 204 421 426 505
4 350 346 355 510
4 259 279 301 501
4 273 496 260 507
4 346 510 499 512
4 291 349 77 255
4 230 263 59 229
4 377 461 459 506
4 83 273 364 253
4 254 140 339 510
4 335 262 254 510
4 291 77 349 345
4 285 296 383 504
4 329 146 325 147
4 78 264 354 291
4 472 465 467 504
4 383 387 285 504
4 458 457 460 506
4 431 426 203 505
4 228 248 221 507
4 324 147 148 331
4 355 276 350 510
4 300 355 254 510
4 140 9 355 254
4 89 252 277 375
4 380 471 376 189
4 470 196 396 392
4 232 60 231 302
4 406 102 289 411
4 51 386 181 473
4 407 409 406 509
4 433 141 32 512
4 252 258 277 508
4 264 354 291 345
4 152 341 153 333
4 335 327 332 510
4 300 276 355 510
4 442 440 439 503
4 355 140 254 510
4 335 127 337 262
4 390 389 297 92
4 460 464 193 393
4 186 377 461 459
4 297 286 399 504
4 240 245 65 305
4 214 52 213 372
4 222 227 57 369
4 190 467 191 390
4 401 397 391 508
4 446 441 440 503
4 395 398 394 501
4 325 143 127 144
4 137 341 136 140
4 59 483 367 112
4 55 480 414 164
4 465 472 195 392
4 380 471 43 210
4 367 81 288 263
4 469 188 376 466
4 329 331 128 332
4 333 332 327 510
4 388 296 93 390
4 135 28 30 435
4 437 32 31 133
4 396 193 464 393
4 377 380 186 461
4 228 248 56 221
4 412 404 413 511
4 412 411 406 511
4 379 378 382 502
4 254 262 292 510
4 381 277 90 387
4 97 397 403 258
4 328 334 142 512
4 318 68 290 250
4 358 83 273 364
4 405 411 413 511
4 475 183 211 501
4 220 223 164 371
4 237 304 236 112
4 374 219 181 218
4 461 380 43 210
4 71 319 314 261
4 433 32 356 512
4 196 470 465 392
4 444 439 441 503
4 238 307 241 123
4 403 399 286 504
4 127 4 337 262
4 308 431 312 505
4 471 466 376 189
4 191 44 388 469
4 190 45 472 389
4 365 366 357 503
4 285 296 91 387
4 261 71 319 262
4 139 342 138 137
4 324 145 144 128
4 296 91 387 383
4 327 335 254 510
4 247 87 386 502
4 327 254 339 510
4 437 34 340 336
4 278 95 398 259
4 68 290 309 318
4 263 249 269 509
4 286 97 403 258
4 359 367 81 288
4 473 51 386 502
4 291 354 78 345
4 340 31 32 138
4 145 30 28 323
4 431 308 428 505
4 356 32 139 512
4 73 254 335 262
4 297 251 390 92
4 401 391 400 508
4 394 183 454 501
4 380 377 385 506
4 357 441 161 446
4 445 199 404 442
4 198 443 404 442
4 160 444 441 357
4 402 94 298 501
4 440 441 439 503
4 459 457 458 506
4 101 249 415 509
4 29 312 431 424
4 327 339 140 510
4 4 127 319 262
4 286 285 258 504
4 251 93 296 390
4 194 463 460 393
4 462 377 187 459
4 55 414 480 507
4 312 308 129 431
4 344 157 434 348
4 432 131 320 430
4 203 29 431 424
4 399 389 98 297
4 277 285 90 387
4 378 453 182 502
4 188 376 383 469
4 472 195 392 399
4 285 296 387 383
4 178 40 217 179
4 377 384 385 506
4 207 46 455 463
4 42 462 208 456
4 328 338 331 142
4 161 362 357 446
4 404 199 445 409
4 404 410 443 198
4 357 160 444 363
4 169 39 224 168
4 109 24 235 110
4 328 332 334 512
4 251 286 297 504
4 408 448 165 507
4 394 402 50 501
4 273 260 248 507
4 230 249 263 509
4 101 289 249 509
4 131 315 320 430
4 296 285 251 504
4 492 26 123 241
4 300 292 276 510
4 157 434 427 344
4 280 104 414 507
4 101 415 406 509
4 311 312 132 422
4 91 296 388 383
4 424 132 312 422
4 73 254 327 335
4 473 40 181 218
4 483 236 24 112
4 480 223 39 164
4 289 269 249 509
4 72 337 4 262
4 247 279 87 502
4 75 300 276 355
4 410 448 200 408
4 418 197 407 409
4 449 162 361 363
4 362 417 159 360
4 98 389 19 297
4 38 171 226 172
4 354 347 64 126
4 74 254 9 339
4 462 42 379 456
4 463 46 455 395
4 25 107 233 106
4 27 120 244 121
4 307 241 26 117
4 297 98 399 286
4 393 194 463 395
4 379 377 187 462
4 435 33 338 323
4 258 252 278 508
4 335 337 72 262
4 184 50 394 402
4 114 229 485 509
4 140 355 346 510
4 41 176 215 175
4 220 54 371 370
4 237 304 303 61
4 374 219 53 373
4 333 330 332 512
4 56 163 368 361
4 415 58 115 407
4 212 301 247 502
4 333 139 330 512
4 212 501 301 502
4 104 405 414 507
4 114 418 407 509
4 415 58 407 509
4 386 181 473 378
4 399 472 45 389
4 383 388 44 469
4 200 448 410 450
4 449 451 162 363
4 418 419 197 409
4 159 417 362 420
4 276 75 355 350
4 395 192 454 394
4 378 379 185 453
4 196 465 195 392
4 98 403 399 286
4 473 211 51 502
4 431 428 426 505
4 101 406 289 509
4 431 308 129 428
4 238 307 306 62
4 301 212 298 501
4 474 211 183 501
4 474 183 394 501
4 479 23 55 295
4 461 457 459 506
4 321 337 4 326
4 371 39 168 223
4 374 218 40 179
4 304 24 110 236
4 367 483 360 112
4 480 408 414 164
4 473 378 182 502
4 322 343 9 339
4 280 248 260 507
4 356 139 346 512
4 466 188 376 189
4 91 296 18 388
4 139 342 154 138
4 87 382 386 502
4 50 298 212 501
4 228 55 480 507
4 248 280 221 507
4 51 247 386 502
4 433 425 141 512
4 454 455 192 395
4 456 185 379 453
4 308 312 317 505
4 402 398 94 501
4 408 165 480 507
4 211 474 50 501
4 19 399 389 98
4 394 50 474 501
4 35 204 434 348
4 333 327 140 510
4 212 247 51 502
4 339 74 254 327
4 336 141 334 330
4 473 386 378 502
4 204 35 158 348
4 97 96 397 258
4 267 23 55 280
4 347 491 64 126
4 239 264 265 250
4 402 298 50 501
4 212 211 501 502
4 388 18 91 383
4 250 265 239 293
4 249 58 0 415
4 43 471 380 189
4 196 396 47 470
4 186 380 43 461
4 193 464 47 396
4 103 274 102 411
4 141 334 330 512
4 252 89 88 375
4 259 298 94 501
4 480 414 408 507
4 58 415 249 509
4 267 55 23 295
4 280 260 104 507
4 89 277 90 381
4 3 318 63 250
4 58 249 230 509
4 56 163 361 481
4 484 115 58 407
4 474 50 394 184
4 35 434 157 348
4 59 13 367 263
4 263 230 256 249
4 10 264 64 354
4 96 95 391 278
4 14 56 368 248
4 348 158 423 347
4 104 260 405 507
4 29 312 129 431
4 45 19 399 389
4 44 18 388 383
4 484 407 58 509
4 87 279 382 502
4 285 286 251 504
4 373 53 16 86
4 76 77 349 255
4 82 83 364 253
4 241 307 116 117
4 484 114 407 509
4 314 71 261 70
4 230 294 263 256
4 158 423 204 348
4 279 247 301 502
4 212 211 50 501
4 58 0 256 249
4 280 414 55 507
4 212 51 211 502
4 484 229 114 509
4 285 91 90 387
4 109 113 234 235
4 118 243 242 124
4 169 165 225 224
4 371 168 167 223
4 218 374 180 179
4 304 110 111 236
4 101 249 0 415
4 273 84 83 358
4 386 17 87 247
4 37 444 160 363
4 161 36 362 446
4 443 410 49 198
4 48 445 199 409
4 51 17 386 247
4 484 58 229 509
4 275 70 69 313
4 73 335 72 262
4 221 280 55 507
4 318 3 68 250
4 137 341 140 333
4 81 367 13 263
4 325 127 329 144
4 55 267 479 295
4 312 29 132 424
4 221 55 228 507
4 100 22 54 370
4 264 265 10 64
4 130 315 131 430
4 251 93 390 92
4 334 332 330 512
4 413 411 412 511
4 10 264 354 78
4 303 61 12 80
4 155 433 32 356
4 131 320 28 432
4 487 79 80 284
4 229 58 230 509
4 405 260 104 103
4 219 53 373 86
4 324 148 145 331
4 80 79 487 271
4 337 6 4 326
4 341 137 153 333
4 147 325 329 144
4 330 139 342 154
4 75 9 300 355
4 343 7 9 339
4 295 479 23 282
4 373 17 219 86
4 66 67 270 488
4 42 379 187 462
4 46 463 194 395
4 98 97 403 286
4 66 283 67 488
4 193 194 460 393
4 377 186 187 459
4 166 171 225 226
4 141 134 150 142
4 75 276 76 350
4 84 14 368 248
4 308 130 129 428
4 2 67 306 62
4 81 82 359 288
4 155 156 429 351
4 266 301 212 298
4 334 141 150 142
4 159 362 36 420
4 419 48 197 409
4 200 410 49 450
4 37 162 451 363
4 145 28 128 338
4 71 4 319 262
4 259 94 398 501
4 17 51 386 181
4 237 61 303 80
4 69 290 309 68
4 88 87 279 382
4 301 298 259 501
4 185 40 378 453
4 162 361 38 449
4 200 448 39 408
4 159 417 24 360
4 41 454 192 394
4 197 407 25 418
4 289 101 102 406
4 437 340 32 336
4 291 78 77 345
4 156 157 427 344
4 26 311 132 422
4 300 254 292 510
4 20 50 402 298
4 298 402 20 94
4 257 212 478 476
4 336 139 154 138
4 238 62 306 67
4 185 379 42 456
4 192 455 46 395
4 218 217 40 179
4 236 235 24 110
4 224 223 168 39
4 489 239 486 293
4 145 324 331 128
4 247 212 51 257
4 139 336 32 138
4 299 281 478 257
4 198 404 199 442
4 441 160 357 161
4 301 212 247 266
4 247 51 17 257
4 64 265 10 490
4 64 264 265 239
4 281 17 219 257
4 311 26 124 422
4 17 51 219 257
4 478 281 219 257
4 13 59 367 112
4 212 257 266 476
4 27 423 347 125
4 478 219 51 257
4 299 478 56 221
4 318 123 3 63
4 60 2 116 62
4 52 22 167 54
4 16 57 53 180
4 65 61 12 111
4 40 182 378 453
4 361 166 38 449
4 360 417 24 113
4 408 448 39 165
4 41 454 394 183
4 407 114 25 418
4 326 321 337 146
4 283 489 58 256
4 152 343 322 339
4 408 414 405 507
4 398 402 394 501
4 259 95 398 94
4 58 0 283 256
4 303 13 237 80
4 80 487 61 271
4 26 124 492 311
4 386 382 378 502
4 266 212 50 298
4 227 226 172 38
4 486 265 294 256
4 86 477 287 281
4 435 338 28 323
4 284 10 265 490
4 257 247 212 266
4 128 331 145 338
4 1 116 60 2
4 306 67 3 238
4 328 334 150 142
4 338 142 151 135
4 407 406 415 509
4 267 266 257 476
4 221 248 267 280
4 215 214 41 175
4 233 232 25 106
4 141 438 149 334
4 265 486 239 293
4 74 9 7 339
4 331 148 145 338
4 23 280 104 414
4 60 302 66 231
4 55 267 476 479
4 280 23 55 414
4 248 14 56 299
4 237 487 80 284
4 479 23 282 220
4 22 52 167 21
4 16 15 57 180
4 65 12 11 111
4 267 257 478 476
4 283 58 489 231
4 177 225 171 216
4 108 243 109 234
4 142 150 328 436
4 473 40 182 378
4 483 360 24 113
4 39 480 408 165
4 339 327 140 333
4 63 3 250 293
4 265 486 293 256
4 222 281 478 299
4 488 67 270 62
4 296 93 18 388
4 221 267 478 476
4 4 6 337 72
4 256 230 58 249
4 79 240 65 305
4 99 52 372 213
4 85 222 57 369
4 243 107 108 118
4 10 240 64 490
4 478 299 267 221
4 483 113 485 229
4 493 124 246 492
4 491 27 347 125
4 167 175 174 223
4 106 241 116 117
4 105 241 116 106
4 54 213 282 220
4 212 478 51 257
4 51 17 219 181
4 342 139 330 153
4 150 438 141 334
4 257 478 299 267
4 283 67 488 238
4 73 254 74 327
4 179 173 218 172
4 177 169 225 176
4 263 59 13 294
4 297 389 19 92
4 20 50 184 402
4 230 486 294 256
4 38 166 361 481
4 474 41 394 183
4 484 114 25 407
4 293 486 489 256
4 142 338 28 135
4 109 243 244 234
4 226 216 171 225
4 141 149 133 336
4 414 23 55 164
4 283 0 58 231
4 139 330 336 154
4 158 27 423 347
4 167 175 223 168
4 122 111 110 236
4 179 173 180 218
4 335 127 329 337
4 107 243 233 118
4 213 54 282 52
4 370 100 23 220
4 438 149 133 141
4 142 436 151 135
4 188 383 44 469
4 195 472 45 399
4 328 142 436 151
4 226 216 217 171
4 244 109 234 235
4 215 169 225 224
4 118 243 233 242
4 144 127 329 128
4 52 54 100 272
4 169 215 225 176
4 239 489 63 293
4 281 219 222 478
4 171 217 179 178
4 354 64 10 126
4 225 177 171 170
4 243 108 109 119
4 169 177 225 170
4 108 243 118 119
4 56 222 478 299
4 140 139 137 333
4 486 230 489 256
4 142 134 150 436
4 438 134 150 141
4 219 53 86 477
4 115 0 58 415
4 479 55 23 220
4 133 32 141 336
4 238 283 489 231
4 100 99 52 272
4 284 13 237 490
4 479 476 50 295
4 266 50 476 295
4 284 265 294 490
4 14 56 163 368
4 50 266 298 295
4 59 13 237 112
4 479 282 213 220
4 476 267 266 295
4 284 294 13 490
4 142 328 338 151
4 171 226 172 179
4 100 54 22 272
4 298 20 50 295
4 266 50 212 476
4 139 153 137 333
4 329 147 144 128
4 80 61 12 271
4 109 121 244 120
4 233 118 106 107
4 63 3 293 238
4 63 123 3 238
4 267 476 479 295
4 240 10 284 490
4 110 109 244 235
4 217 171 179 226
4 118 233 106 242
4 168 215 224 169
4 237 61 80 487
4 52 54 282 100
4 294 59 490 486
4 121 109 244 110
4 176 168 215 175
4 168 176 215 169
4 267 299 248 221
4 66 270 60 488
4 149 141 334 336
4 219 477 86 281
4 151 338 28 435
4 221 267 55 280
4 338 148 28 323
4 281 222 14 299
4 146 127 329 325
4 241 26 123 307
4 489 230 58 256
4 493 125 124 243
4 485 113 234 114
4 482 225 166 165
4 475 182 216 183
4 67 2 270 62
4 172 218 226 227
4 218 172 226 179
4 99 52 282 100
4 294 263 59 230
4 140 341 152 333
4 238 62 67 488
4 153 139 330 333
4 65 487 79 271
4 149 437 32 336
4 244 236 110 235
4 218 226 217 179
4 224 223 215 168
4 242 241 233 106
4 79 487 240 284
4 133 437 32 149
4 135 151 28 435
4 489 283 293 256
4 223 371 39 164
4 236 304 24 112
4 218 40 181 374
4 236 244 110 245
4 215 214 175 223
4 233 232 106 241
4 223 215 168 175
4 148 145 28 323
4 486 294 59 230
4 336 340 32 154
4 154 340 32 138
4 331 324 147 128
4 488 66 283 231
4 2 60 270 62
4 54 52 22 272
4 12 61 65 271
4 50 479 295 213
4 85 287 477 281
4 282 295 479 213
4 146 326 321 143
4 136 152 343 322
4 123 26 492 311
4 164 23 55 220
4 488 270 60 62
4 487 65 61 271
4 293 3 283 238
4 239 63 250 293
4 299 56 248 221
4 237 240 487 284
4 1 2 60 270
4 477 219 222 281
4 184 50 20 213
4 147 329 331 128
4 339 322 152 140
4 127 337 321 146
4 340 32 31 437
4 435 28 30 323
4 321 4 5 326
4 343 9 8 322
4 435 30 33 323
4 238 488 283 231
4 21 22 52 272
4 65 11 12 271
4 483 24 360 112
4 473 181 40 378
4 408 480 39 164
4 340 31 34 437
4 237 240 284 490
4 490 64 265 486
4 222 56 14 299
4 304 237 303 112
4 374 219 373 181
4 164 371 370 220
4 287 16 53 86
4 307 238 306 123
4 86 17 219 281
4 240 10 64 126
4 115 58 0 231
4 80 13 237 284
4 474 211 475 183
4 114 485 229 484
4 481 166 228 482
4 246 491 125 493
4 270 60 1 66
4 491 347 27 126
4 477 287 53 86
4 146 321 127 143
4 136 152 322 140
4 295 20 50 213
4 222 14 56 163
4 67 283 3 238
4 11 65 79 271
4 99 21 52 272
4 55 267 221 476
4 474 394 41 184
4 484 25 115 407
4 361 163 38 481
4 100 282 23 220
4 60 66 488 231
4 154 32 336 138
4 28 145 148 338
4 32 133 149 336
4 20 295 282 213
4 337 127 329 146
4 151 28 338 135
4 490 265 294 486
4 477 222 57 85
4 487 240 65 79
4 486 64 265 239
4 152 339 140 333
4 99 282 52 213
4 8 7 9 343
4 6 5 4 326
4 85 477 222 281
4 111 61 303 304
4 374 373 53 180
4 54 167 371 370
4 324 144 147 128
4 79 240 10 284
4 153 342 139 137
4 306 307 116 62
4 66 0 283 231
4 20 282 99 213
4 127 146 143 325
4 152 136 341 140
4 492 124 26 242
4 480 39 224 165
4 483 24 235 113
4 182 40 473 217
4 53 57 16 287
4 287 57 15 85
4 116 302 241 105
4 167 174 372 223
4 111 122 305 236
4 180 369 218 173
4 477 57 287 85
4 57 15 16 287
4 222 14 85 281
4 481 38 166 226
4 491 244 27 125
4 474 215 41 183
4 484 25 114 233
4 53 57 287 477
4 60 116 302 62
4 121 27 305 245
4 166 170 165 225
4 172 38 369 227
4 39 165 169 224
4 109 24 113 235
4 108 113 114 234
4 106 25 302 232
4 26 124 118 242
4 125 119 124 243
4 182 183 177 216
4 175 41 372 214
4 182 178 40 217
4 499 127 319 310
4 499 319 127 510
4 499 329 510 127
4 499 510 329 332
4 335 510 329 127
4 335 329 510 332
4 205 410 49 443
4 205 49 410 450
4 409 201 48 445
4 409 48 201 419
4 363 206 37 444
4 363 37 206 451
4 202 362 36 446
4 202 36 362 420
4 499 329 128 332
4 500 255 349 291
4 500 349 255 497
4 500 349 353 345
4 500 353 349 497
4 380 210 506 471
4 506 210 380 461
4 464 470 47 396
4 47 470 464 209
4 484 231 25 232
4 484 25 231 115
4 302 25 231 232
4 302 231 25 115
4 474 213 41 214
4 474 41 213 184
4 372 41 213 214
4 372 213 41 184
4 481 222 38 227
4 481 38 222 163
4 369 38 222 227
4 369 222 38 163
4 491 240 27 245
4 491 27 240 126
4 305 27 240 245
4 305 240 27 126
4 142 331 512 128
4 142 512 331 328
4 332 512 331 128
4 332 331 512 328
4 128 127 499 310
4 128 499 127 329
4 500 239 64 246
4 500 64 239 264
4 504 389 390 190
4 504 390 389 297
4 504 277 387 285
4 504 387 277 495
4 302 1 116 60
4 116 1 302 105
4 21 372 167 174
4 167 372 21 52
4 507 447 166 496
4 11 305 111 122
4 111 305 11 65
4 369 15 180 57
4 180 15 369 173
4 511 273 260 274
4 511 260 273 496
4 239 500 63 246
4 63 500 239 250
4 309 505 497 317
4 497 505 309 500
4 262 127 510 335
4 262 510 127 319
4 114 108 233 107
4 114 233 108 234
4 243 233 108 107
4 243 108 233 234
4 125 119 244 120
4 125 244 119 243
4 109 244 119 120
4 109 119 244 243
4 182 177 217 216
4 182 217 177 178
4 171 217 177 216
4 171 177 217 178
4 253 359 82 288
4 253 82 359 364
4 183 177 215 176
4 183 215 177 216
4 225 215 177 176
4 225 177 215 216
4 313 290 497 309
4 313 497 290 275
4 500 497 290 309
4 344 429 156 351
4 344 156 429 427
4 372 175 223 174
4 223 175 372 214
4 302 106 241 105
4 241 106 302 232
4 369 172 218 173
4 218 172 369 227
4 305 121 110 122
4 110 121 305 245
4 110 236 305 122
4 305 236 110 245
4 375 498 502 252
4 502 498 375 382
4 502 279 375 252
4 375 279 502 382
4 358 248 84 368
4 358 84 248 273
4 356 429 155 433
4 356 155 429 351
4 63 311 123 492
4 123 311 63 318
4 504 469 296 383
4 504 296 469 191
4 388 296 469 383
4 388 469 296 191
4 389 472 504 399
4 389 504 472 190
4 367 483 229 360
4 367 229 483 59
4 502 475 473 211
4 502 473 475 182
4 507 482 480 228
4 507 480 482 165
4 139 512 141 330
4 141 512 139 32
4 141 336 139 330
4 139 336 141 32
4 241 242 117 106
4 241 117 242 26
4 118 117 242 106
4 118 242 117 26
4 124 125 500 421
4 500 125 124 493
4 244 245 121 110
4 244 121 245 27
4 220 54 100 282
4 220 100 54 370
4 338 128 142 28
4 338 142 128 331
4 165 166 507 447
4 165 507 166 482
4 183 182 501 475
4 183 501 182 452
4 502 501 182 475
4 502 182 501 452
4 114 113 509 485
4 509 113 114 416
4 238 293 489 283
4 238 489 293 63
4 490 13 59 294
4 490 59 13 237
4 218 53 180 374
4 62 241 116 302
4 62 116 241 307
4 236 61 111 304
4 54 167 223 371
4 500 491 64 347
4 500 64 491 246
4 223 52 167 54
4 167 52 223 372
4 236 65 111 61
4 236 111 65 305
4 218 57 180 53
4 218 180 57 369
4 259 252 501 508
4 259 501 252 279
4 502 252 501 279
4 252 498 501 508
4 501 498 252 502
4 497 290 268 500
4 497 268 290 275

CELL_TYPES 2815
1
1
1
1
1
1
1
1
1
1
1
1
1
1
1
1
1
1
1
1
1
1
1
1
1
1
1
1
1
1
1
1
1
1
1
1
1
1
1
1
1
1
1
1
1
1
1
1
1
1
1
1
1
1
1
1
1
1
1
1
1
1
1
1
1
1
3
3
3
3
3
3
3
3
3
3
3
3
3
3
3
3
3
3
3
3
3
3
3
3
3
3
3
3
3
3
3
3
3
3
3
3
3
3
3
3
3
3
3
3
3
3
3
3
3
3
3
3
3
3
3
3
3
3
3
3
3
3
3
3
3
3
3
3
3
3
3
3
3
3
3
3
3
3
3
3
3
3
3
3
3
3
3
3
3
3
3
3
3
3
3
3
3
3
3
3
3
3
3
3
3
3
3
3
3
3
3
3
3
3
3
3
3
3
3
3
3
3
3
3
3
3
3
3
3
3
3
3
3
3
3
3
3
3
3
3
3
3
3
3
3
3
3
3
3
3
3
3
3
3
3
3
3
3
3
3
3
3
3
3
3
3
3
3
3
3
3
3
3
3
3
3
3
3
3
3
3
3
3
3
3
3
3
3
3
3
3
3
3
3
3
3
3
3
3
3
3
3
3
3
3
3
3
3
3
3
3
3
3
3
3
3
3
3
3
3
3
3
3
3
3
3
3
3
3
3
3
3
3
3
3
3
3
3
3
3
3
3
3
3
3
3
3
3
3
3
3
3
3
3
3
3
3
3
3
3
3
3
3
3
3
3
3
3
3
3
3
3
3
3
3
3
3
3
3
3
5
5
5
5
5
5
5
5
5
5
5
5
5
5
5
5
5
5
5
5
5
5
5
5
5
5
5
5
5
5
5
5
5
5
5
5
5
5
5
5
5
5
5
5
5
5
5
5
5
5
5
5
5
5
5
5
5
5
5
5
5
5
5
5
5
5
5
5
5
5
5
5
5
5
5
5
5
5
5
5
5
5
5
5
5
5
5
5
5
5
5
5
5
5
5
5
5
5
5
5
5
5
5
5
5
5
5
5
5
5
5
5
5
5
5
5
5
5
5
5
5
5
5
5
5
5
5
5
5
5
5
5
5
5
5
5
5
5
5
5
5
5
5
5
5
5
5
5
5
5
5
5
5
5
5
5
5
5
5
5
5
5
5
5
5
5
5
5
5
5
5
5
5
5
5
5
5
5
5
5
5
5
5
5
5
5
5
5
5
5
5
5
5
5
5
5
5
5
5
5
5
5
5
5
5
5
5
5
5
5
5
5
5
5
5
5
5
5
5
5
5
5
5
5
5
5
5
5
5
5
5
5
5
5
5
5
5
5
5
5
5
5
5
5
5
5
5
5
5
5
5
5
5
5
5
5
5
5
5
5
5
5
5
5
5
5
5
5
5
5
5
5
5
5
5
5
5
5
5
5
5
5
5
5
5
5
5
5
5
5
5
5
5
5
5
5
5
5
5
5
5
5
5
5
5
5
5
5
5
5
5
5
5
5
5
5
5
5
5
5
5
5
5
5
5
5
5
5
5
5
5
5
5
5
5
5
5
5
5
5
5
5
5
5
5
5
5
5
5
5
5
5
5
5
5
5
5
5
5
5
5
5
5
5
5
5
5
5
5
5
5
5
5
5
5
5
5
5
5
5
5
5
5
5
5
5
5
5
5
5
5
5
5
5
5
5
5
5
5
5
5
5
5
5
5
5
5
5
5
5
5
5
5
5
5
5
5
5
5
5
5
5
5
5
5
5
5
5
5
5
5
5
5
5
5
5
5
5
5
5
5
5
5
5
5
5
5
5
5
5
5
5
5
5
5
5
5
5
5
5
5
5
5
5
5
5
5
5
5
5
5
5
5
5
5
5
5
5
5
5
5
5
5
5
5
5
5
5
5
5
5
5
5
5
5
5
5
5
5
5
5
5
5
5
5
5
5
5
5
5
5
5
5
5
5
5
5
5
5
5
5
5
5
5
5
5
5
5
5
5
5
5
5
5
5
5
5
5
5
5
5
5
5
5
5
5
5
5
5
5
5
5
5
5
5
5
5
5
5
5
5
5
5
5
5
5
5
5
5
5
5
5
5
5
5
5
5
5
5
5
5
5
5
5
5
5
5
5
5
5
5
5
5
5
5
5
5
5
5
5
5
5
5
5
5
5
5
5
5
5
5
5
5
5
5
5
5
5
5
5
5
5
5
5
5
5
5
5
5
5
5
5
5
5
5
5
5
5
5
5
5
5
5
5
5
5
5
5
5
5
5
5
5
5
5
5
5
5
5
5
5
5
5
5
5
5
5
5
5
5
5
5
5
5
5
5
5
5
5
5
5
5
5
5
5
5
5
5
5
5
5
5
5
5
5
5
5
5
5
5
5
5
5
5
5
5
5
5
5
5
5
5
5
5
5
5
5
5
5
5
5
5
5
5
5
5
5
5
5
5
5
5
5
5
5
5
5
5
5
5
5
5
5
5
5
5
5
5
5
5
5
5
5
5
5
5
5
5
5
5
5
5
5
5
5
5
5
5
5
5
5
5
5
5
5
5
5
5
5
5
5
5
5
5
5
5
5
5
5
5
5
5
5
5
5
5
5
5
5
5
5
5
5
5
5
5
5
5
5
5
5
5
5
5
5
5
5
5
5
5
5
5
5
5
5
5
5
5
5
5
5
5
5
5
5
5
5
5
5
5
5
5
5
5
5
5
5
5
5
5
5
5
5
5
5
5
5
5
5
5
5
5
5
5
5
5
5
5
5
5
5
5
5
5
5
5
5
5
5
5
5
5
5
5
5
5
5
5
5
5
5
5
5
5
5
5
5
5
5
5
5
5
5
5
5
5
5
5
5
5
5
5
5
5
5
5
5
5
5
5
5
5
5
5
5
5
5
5
5
5
5
5
5
5
5
5
5
5
5
5
5
5
5
5
5
5
5
5
5
5
5
5
5
5
5
5
5
5
5
5
5
5
5
5
5
5
5
5
5
5
5
5
5
5
5
5
10
10
10
10
10
10
10
10
10
10
10
10
10
10
10
10
10
10
10
10
10
10
10
10
10
10
10
10
10
10
10
10
10
10
10
10
10
10
10
10
10
10
10
10
10
10
10
10
10
10
10
10
10
10
10
10
10
10
10
10
10
10
10
10
10
10
10
10
10
10
10
10
10
10
10
10
10
10
10
10
10
10
10
10
10
10
10
10
10
10
10
10
10
10
10
10
10
10
10
10
10
10
10
10
10
10
10
10
10
10
10
10
10
10
10
10
10
10
10
10
10
10
10
10
10
10
10
10
10
10
10
10
10
10
10
10
10
10
10
10
10
10
10
10
10
10
10
10
10
10
10
10
10
10
10
10
10
10
10
10
10
10
10
10
10
10
10
10
10
10
10
10
10
10
10
10
10
10
10
10
10
10
10
10
10
10
10
10
10
10
10
10
10
10
10
10
10
10
10
10
10
10
10
10
10
10
10
10
10
10
10
10
10
10
10
10
10
10
10
10
10
10
10
10
10
10
10
10
10
10
10
10
10
10
10
10
10
10
10
10
10
10
10
10
10
10
10
10
10
10
10
10
10
10
10
10
10
10
10
10
10
10
10
10
10
10
10
10
10
10
10
10
10
10
10
10
10
10
10
10
10
10
10
10
10
10
10
10
10
10
10
10
10
10
10
10
10
10
10
10
10
10
10
10
10
10
10
10
10
10
10
10
10
10
10
10
10
10
10
10
10
10
10
10
10
10
10
10
10
10
10
10
10
10
10
10
10
10
10
10
10
10
10
10
10
10
10
10
10
10
10
10
10
10
10
10
10
10
10
10
10
10
10
10
10
10
10
10
10
10
10
10
10
10
10
10
10
10
10
10
10
10
10
10
10
10
10
10
10
10
10
10
10
10
10
10
10
10
10
10
10
10
10
10
10
10
10
10
10
10
10
10
10
10
10
10
10
10
10
10
10
10
10
10
10
10
10
10
10
10
10
10
10
10
10
10
10
10
10
10
10
10
10
10
10
10
10
10
10
10
10
10
10
10
10
10
10
10
10
10
10
10
10
10
10
10
10
10
10
10
10
10
10
10
10
10
10
10
10
10
10
10
10
10
10
10
10
10
10
10
10
10
10
10
10
10
10
10
10
10
10
10
10
10
10
10
10
10
10
10
10
10
10
10
10
10
10
10
10
10
10
10
10
10
10
10
10
10
10
10
10
10
10
10
10
10
10
10
10
10
10
10
10
10
10
10
10
10
10
10
10
10
10
10
10
10
10
10
10
10
10
10
10
10
10
10
10
10
10
10
10
10
10
10
10
10
10
10
10
10
10
10
10
10
10
10
10
10
10
10
10
10
10
10
10
10
10
10
10
10
10
10
10
10
10
10
10
10
10
10
10
10
10
10
10
10
10
10
10
10
10
10
10
10
10
10
10
10
10
10
10
10
10
10
10
10
10
10
10
10
10
10
10
10
10
10
10
10
10
10
10
10
10
10
10
10
10
10
10
10
10
10
10
10
10
10
10
10
10
10
10
10
10
10
10
10
10
10
10
10
10
10
10
10
10
10
10
10
10
10
10
10
10
10
10
10
10
10
10
10
10
10
10
10
10
10
10
10
10
10
10
10
10
10
10
10
10
10
10
10
10
10
10
10
10
10
10
10
10
10
10
10
10
10
10
10
10
10
10
10
10
10
10
10
10
10
10
10
10
10
10
10
10
10
10
10
10
10
10
10
10
10
10
10
10
10
10
10
10
10
10
10
10
10
10
10
10
10
10
10
10
10
10
10
10
10
10
10
10
10
10
10
10
10
10
10
10
10
10
10
10
10
10
10
10
10
10
10
10
10
10
10
10
10
10
10
10
10
10
10
10
10
10
10
10
10
10
10
10
10
10
10
10
10
10
10
10
10
10
10
10
10
10
10
10
10
10
10
10
10
10
10
10
10
10
10
10
10
10
10
10
10
10
10
10
10
10
10
10
10
10
10
10
10
10
10
10
10
10
10
10
10
10
10
10
10
10
10
10
10
10
10
10
10
10
10
10
10
10
10
10
10
10
10
10
10
10
10
10
10
10
10
10
10
10
10
10
10
10
10
10
10
10
10
10
10
10
10
10
10
10
10
10
10
10
10
10
10
10
10
10
10
10
10
10
10
10
10
10
10
10
10
10
10
10
10
10
10
10
10
10
10
10
10
10
10
10
10
10
10
10
10
10
10
10
10
10
10
10
10
10
10
10
10
10
10
10
10
10
10
10
10
10
10
10
10
10
10
10
10
10
10
10
10
10
10
10
10
10
10
10
10
10
10
10
10
10
10
10
10
10
10
10
10
10
10
10
10
10
10
10
10
10
10
10
10
10
10
10
10
10
10
10
10
10
10
10
10
10
10
10
10
10
10
10
10
10
10
10
10
10
10
10
10
10
10
10
10
10
10
10
10
10
10
10
10
10
10
10
10
10
10
10
10
10
10
10
10
10
10
10
10
10
10
10
10
10
10
10
10
10
10
10
10
10
10
10
10
10
10
10
10
10
10
10
10
10
10
10
10
10
10
10
10
10
10
10
10
10
10
10
10
10
10
10
10
10
10
10
10
10
10
10
10
10
10
10
10
10
10
10
10
10
10
10
10
10
10
10
10
10
10
10
10
10
10
10
10
10
10
10
10
10
10
10
10
10
10
10
10
10
10
10
10
10
10
10
10
10
10
10
10
10
10
10
10
10
10
10
10
10
10
10
10
10
10
10
10
10
10
10
10
10
10
10
10
10
10
10
10
10
10
10
10
10
10
10
10
10
10
10
10
10
10
10
10
10
10
10
10
10
10
10
10
10
10
10
10
10
10
10
10
10
10
10
10
10
10
10
10
10
10
10
10
10
10
10
10
10
10
10
10
10
10
10
10
10
10
10
10
10
10
10
10
10
10
10
10
10
10
10
10
10
10
10
10
10
10
10
10
10
10
10
10
10
10
10
10
10
10
10
10
10
10
10
10
10
10
10
10
10
10
10
10
10
10
10
10
10
10
10
10
10
10
10
10
10
10
10
10
10
10
10
10
10
10
10
10
10
10
10
10
10
10
10
10
10
10
10
10
10
10
10
10
10
10
10
10
10
10
10
10
10
10
10
10
10
10
10
10
10
10
10
10
10
10
10
10
10
10
10
10
10
10
10
10
10
10
10
10
10
10
10
10
10
10
10
10
10
10
10
10
10
10
10
10
10
10
10
10
10
10
10
10
10
10
10
10
10
10
10
10
10
10
10
10
10
10
10
10
10
10
10
10
10
10
10
10
10
10
10
10
10
10
10
10
10
10
10
10
10
10
10
10
10
10
10
10
10
10
10
10
10
10
10
10
10
10
10
10
10
10
10
10
10
10
10
10
10
10
10
10
10
