# vtk DataFile Version 2.0
, Created by Gmsh 4.11.1 
ASCII
DATASET UNSTRUCTURED_GRID
POINTS 495 double
8.75 0 -44.74121189621158
14.63413920204384 0 -41.63392133731574
14.63413920204384 0 -38.36607866268426
8.75 0 -35.25878810378842
8.75 0 -3
11.75 0 -3
11.75 0 0
-11.75 0 0
-11.75 0 -3
-8.75 0 -3
-8.75 1.071565949253934e-15 -35.25878810378842
-14.63413920204384 1.792165173205979e-15 -38.36607866268426
-14.63413920204384 1.792165173205979e-15 -41.63392133731574
-8.75 1.071565949253934e-15 -44.74121189621158
-8.75 1.071565949253934e-15 -75.25878810378842
-14.63413920204384 1.792165173205979e-15 -78.36607866268426
-14.63413920204384 1.792165173205979e-15 -81.63392133731574
-8.75 1.071565949253934e-15 -84.74121189621158
-8.75 0 -120
8.75 0 -120
8.75 0 -84.74121189621158
14.63413920204384 0 -81.63392133731574
14.63413920204384 0 -78.36607866268426
8.75 0 -75.25878810378842
-8.75 9.981845424301449 -42.35216916664544
8.75 9.981845424301454 -42.35216916664544
8.75 9.981845424301458 -37.64783083335455
-8.75 9.981845424301458 -37.64783083335455
8.75 20 -3
8.75 20 -30.25085329766613
11.75 23 -3
-11.75 23 -3
-8.75 20 -3
11.75 23 0
-11.75 23 0
-8.75 20 -30.25085329766613
-8.75 20 -49.74914670233387
-8.75 20 -70.25085329766614
-8.75 9.981845424301452 -77.64783083335456
8.75 9.981845424301452 -77.64783083335456
-8.75 9.981845424301461 -82.35216916664545
8.75 9.981845424301461 -82.35216916664545
-8.75 20 -89.74914670233387
-8.75 20 -110.2508532976661
-8.75 6.796166654026136 -120
8.75 6.796166654026136 -120
8.75 20 -89.74914670233387
8.75 20 -110.2508532976661
8.75 20 -49.74914670233387
8.75 20 -70.25085329766614
4.629170781541792 2.70380620564788 -84.74121189621158
-4.629170781541792 2.703806205647881 -84.74121189621158
10.91519464386252 2.70380620564788 -81.63392133731574
-10.91519464386252 2.703806205647881 -81.63392133731574
10.91519464386252 2.70380620564788 -78.36607866268426
4.629170781541792 2.70380620564788 -75.25878810378842
-4.629170781541792 2.703806205647881 -75.25878810378842
-10.91519464386252 2.703806205647881 -78.36607866268426
4.629170781541792 2.70380620564788 -44.74121189621158
-4.629170781541792 2.703806205647881 -44.74121189621158
10.91519464386252 2.70380620564788 -41.63392133731574
-10.91519464386252 2.703806205647881 -41.63392133731574
10.91519464386252 2.70380620564788 -38.36607866268426
4.629170781541792 2.70380620564788 -35.25878810378842
-4.629170781541792 2.703806205647881 -35.25878810378842
-10.91519464386252 2.703806205647881 -38.36607866268426
8.75 0 -28.80703048303075
8.75 0 -22.35527286227309
8.75 0 -15.9035152415154
8.75 0 -9.451757620757697
5.875000000000016 0 0
3.730349362740526e-14 0 0
-5.874999999999972 0 0
-8.75 0 -9.451757620757673
-8.75 0 -15.90351524151534
-8.75 0 -22.35527286227305
-8.75 0 -28.80703048303075
-8.75 0 -50.84472713772693
-8.75 0 -56.94824237924229
-8.75 0 -63.05175762075767
-8.75 0 -69.15527286227307
-8.75 0 -90.61767658017631
-8.75 0 -96.49414126414105
-8.75 0 -102.3706059481058
-8.75 0 -108.2470706320705
-8.75 0 -114.1235353160353
2.916666666666666 0 -120
-2.916666666666668 0 -120
8.75 0 -90.61767658017631
8.75 0 -96.49414126414105
8.75 0 -102.3706059481058
8.75 0 -108.2470706320705
8.75 0 -114.1235353160353
8.75 0 -50.84472713772693
8.75 0 -56.94824237924229
8.75 0 -63.05175762075767
8.75 0 -69.15527286227307
13.18490382959186 6.349515035749612 -41.63392133731574
9.124236551455466 11.44143074697743 -41.63392133731574
3.256402322885565 14.26723077882677 -41.63392133731574
-3.256402322885436 14.2672307788268 -41.63392133731574
-9.12423655145539 11.44143074697749 -41.63392133731574
-13.18490382959184 6.349515035749652 -41.63392133731574
-8.750000000000002 5.096732788096634 -44.01448885658886
-2.979294878095829 11.1921005218417 -43.24576984941723
2.979294878095812 11.1921005218417 -43.24576984941723
8.749999999999998 5.096732788096634 -44.01448885658886
13.18490382959186 6.349515035749612 -38.36607866268426
9.124236551455466 11.44143074697743 -38.36607866268426
3.256402322885565 14.26723077882677 -38.36607866268426
-3.256402322885436 14.2672307788268 -38.36607866268426
-9.12423655145539 11.44143074697749 -38.36607866268426
-13.18490382959184 6.349515035749652 -38.36607866268426
8.749999999999998 5.096732788096637 -35.98551114341114
2.979294878095826 11.19210052184173 -36.75423015058274
-2.979294878095828 11.19210052184173 -36.75423015058274
-8.750000000000002 5.096732788096635 -35.98551114341114
8.75 6.666666666666651 -3
8.75 13.33333333333329 -3
8.75 20 -23.43813997324961
8.75 20 -16.62542664883308
8.75 20 -9.812713324416549
8.75 14.99092271215073 -33.94934206551034
-5.875000000000016 23 -3
-3.730349362740526e-14 23 -3
5.874999999999972 23 -3
-11.75 5.749999999999988 -3
-11.75 11.49999999999999 -3
-11.75 17.24999999999999 -3
-8.75 13.33333333333335 -3
-8.75 6.666666666666705 -3
-2.916666666666666 20 -3
2.916666666666668 20 -3
11.75 5.749999999999988 -3
11.75 11.49999999999999 -3
11.75 17.24999999999999 -3
11.75 5.749999999999988 0
11.75 11.49999999999999 0
11.75 17.24999999999999 0
-5.875000000000016 23 0
-3.730349362740526e-14 23 0
5.874999999999972 23 0
-11.75 5.749999999999988 0
-11.75 11.49999999999999 0
-11.75 17.24999999999999 0
-8.75 20 -9.812713324416524
-8.75 20 -16.62542664883305
-8.75 20 -23.43813997324958
-8.75 14.99092271215073 -33.94934206551034
-8.75 14.99092271215072 -46.05065793448965
-8.75 20 -63.41695109922205
-8.75 20 -56.58304890077795
-8.75 14.99092271215073 -73.94934206551035
-8.750000000000002 5.096732788096631 -75.98551114341114
8.749999999999998 5.096732788096636 -75.98551114341114
2.979294878095829 11.19210052184172 -76.75423015058274
-2.979294878095818 11.19210052184172 -76.75423015058274
13.18490382959186 6.349515035749612 -78.36607866268426
9.124236551455466 11.44143074697743 -78.36607866268426
3.256402322885565 14.26723077882677 -78.36607866268426
-3.256402322885436 14.2672307788268 -78.36607866268426
-9.12423655145539 11.44143074697749 -78.36607866268426
-13.18490382959184 6.349515035749652 -78.36607866268426
13.18490382959186 6.349515035749612 -81.63392133731574
9.124236551455466 11.44143074697743 -81.63392133731574
3.256402322885565 14.26723077882677 -81.63392133731574
-3.256402322885436 14.2672307788268 -81.63392133731574
-9.12423655145539 11.44143074697749 -81.63392133731574
-13.18490382959184 6.349515035749652 -81.63392133731574
-8.750000000000002 5.096732788096633 -84.01448885658886
-2.979294878095821 11.1921005218417 -83.24576984941723
2.979294878095821 11.1921005218417 -83.24576984941723
8.749999999999998 5.096732788096634 -84.01448885658886
-8.75 14.99092271215073 -86.05065793448966
-8.75 20 -103.416951099222
-8.75 20 -96.58304890077795
-8.75 11.19744443601742 -116.7502844325554
-8.75 15.5987222180087 -113.5005688651108
2.916666666666666 6.796166654026136 -120
-2.916666666666668 6.796166654026136 -120
8.75 14.99092271215073 -86.05065793448966
8.75 20 -103.416951099222
8.75 20 -96.58304890077795
8.75 11.19744443601742 -116.7502844325554
8.75 15.5987222180087 -113.5005688651108
8.75 14.99092271215072 -46.05065793448965
8.75 20 -63.41695109922205
8.75 20 -56.58304890077795
8.75 14.99092271215073 -73.94934206551035
2.916666666666666 20 -49.74914670233387
-2.916666666666668 20 -49.74914670233387
2.916666666666666 20 -30.25085329766613
-2.916666666666668 20 -30.25085329766613
2.916666666666666 20 -70.25085329766614
-2.916666666666668 20 -70.25085329766614
2.916666666666666 20 -89.74914670233387
-2.916666666666668 20 -89.74914670233387
2.916666666666666 20 -110.2508532976661
-2.916666666666668 20 -110.2508532976661
3.899373941325978e-15 5.360950486842817 -84.74121189621158
6.217248937900877e-15 2.70380620564788 -84.74121189621158
7.787602125580558 2.70380620564788 -83.21893314350183
8.041498395336575 7.860429102084974 -81.63392133731574
2.951647413939023 10.85079811142444 -81.63392133731574
-2.95164741393901 10.85079811142444 -81.63392133731574
-8.041498395336568 7.860429102084983 -81.63392133731574
-7.787602125580555 2.70380620564788 -83.21893314350183
7.787602125580555 2.70380620564788 -76.78106685649817
-7.993605777301127e-15 2.70380620564788 -75.25878810378842
-7.787602125580558 2.70380620564788 -76.78106685649817
8.041498395336575 7.860429102084974 -78.36607866268426
2.951647413939023 10.85079811142444 -78.36607866268426
-2.95164741393901 10.85079811142444 -78.36607866268426
-8.041498395336568 7.860429102084983 -78.36607866268426
3.899373941325978e-15 5.360950486842817 -75.25878810378842
3.899373941325978e-15 5.360950486842817 -44.74121189621158
6.217248937900877e-15 2.70380620564788 -44.74121189621158
7.787602125580558 2.70380620564788 -43.21893314350181
8.041498395336575 7.860429102084974 -41.63392133731574
2.951647413939023 10.85079811142444 -41.63392133731574
-2.95164741393901 10.85079811142444 -41.63392133731574
-8.041498395336568 7.860429102084983 -41.63392133731574
-7.787602125580555 2.70380620564788 -43.21893314350181
7.787602125580555 2.70380620564788 -36.78106685649819
-7.993605777301127e-15 2.70380620564788 -35.25878810378842
-7.787602125580558 2.70380620564788 -36.78106685649819
8.041498395336575 7.860429102084974 -38.36607866268426
2.951647413939023 10.85079811142444 -38.36607866268426
-2.95164741393901 10.85079811142444 -38.36607866268426
-8.041498395336568 7.860429102084983 -38.36607866268426
3.899373941325978e-15 5.360950486842817 -35.25878810378842
0.003056135812293803 0 -115.636909882461
-3.214165965941428 0 -94.40250547137032
-4.489865662554527 0 -105.4116186363811
3.464200748462191 0 -47.79296951696926
3.114105387700438 0 -73.37840811329841
3.653871563026489 0 -59.99999999999999
-2.807557262024 0 -4.106318171608045
3.162614001364018 0 -25.58115167265192
3.162614001363989 0 -12.67763643113654
3.000867809716048 0 -87.32717398121004
2.842760404051446 0 -98.67971253890866
-4.262479173704508 0 -65.98289691373695
-2.939637116974067 0 -52.84536403469686
4.219946722311162 0 -80.31786628889401
4.120555701249077 0 -41.17868190026171
-2.929419317401885 0 -31.97420604765859
-3.162614001363995 0 -19.1293940518942
3.72067535823868 0 -5.64140878219257
10.17776682106735 0 -40.23573638005234
-10.65532683625769 0 -80
10.19764502527977 0 -80.06357325777881
-10.47396692708861 0 -39.81289397234045
-1.884752321547573 0 -76.76727981735891
-3.503434998359742 0 -38.97462539049818
-2.382687076947811 0 -83.01132042521357
3.672574590200306 0 -31.7696385991087
-3.45314070306652 0 -25.57809548534708
-3.994656917004123 0 -12.00096922143447
4.132522800272802 0 -19.12939405189423
-2.726385944270424 0 -46.06292997939408
1.818414451433959 0 -66.16746776488638
-2.598509349331636 0 -59.88696055834742
3.464200748462188 0 -53.89648475848461
2.921622722743693 0 -92.97259307340406
-3.660832299244477 0 -99.43237360612342
1.74434275101803 0 -105.2159981870993
-3.49344060249757 0 -110.9847739276287
3.71835224656233 0 -111.4252601827525
-6.496211629113951 0 -79.97740818801761
-3.119118609352945 0 -71.11835226255701
-0.6648766654100555 0 -8.369066392529234
-4.48711151580452 0 -115.72542667333
4.487111515804524 0 -115.72542667333
-5.405016940793853 0 -7.05426700386959
1.773157427160228 0 -36.2569613755524
-2.862393751738249 0 -88.8454135712643
11.24443684397511 2.947047970984658 -43.22339745289099
-11.244436843964 2.947047970985751 -43.22339745289652
-14.26723077882678 3.256402322885518 -40.03268027430029
-11.44143074697742 9.124236551455482 -40.03268027430028
-6.349515035749556 13.18490382959189 -40.03268027430029
14.26723077882678 3.256402322885505 -39.96731972569972
6.588471573731775e-14 14.63413920204384 -40.03268027430028
11.46699620627247 9.092086019727772 -40
6.34951503574966 13.18490382959183 -40.03268027430028
-11.244436843964 2.947047970985747 -36.77660254710347
11.90509277589557 2.726800393232327 -37.08772698138635
8.749999999999998 5.116615031942975 -19.29728964500916
8.749999999999998 9.891282233663288 -8.985624287434943
8.749999999999998 14.83304397722557 -27.18079474730235
8.749999999999998 9.345302997310981 -30.69754125556559
8.749999999999998 14.83533985506366 -20.01511287420541
8.749999999999998 5.235752675354056 -25.76893930332334
8.749999999999998 14.89879135178079 -13.16959511107884
8.749999999999998 4.874482692062233 -12.82976287832024
8.749999999999998 4.410419925219752 -31.0461484093545
8.749999999999998 15.14527942753638 -7.895129359842731
8.749999999999998 4.605786097565594 -7.603880305400271
8.749999999999998 9.994361742563706 -16.31333038113105
8.749999999999998 10.34965929086929 -23.58259749073768
10.25 3.10416666666666 -3
-10.25 3.104166666666674 -3
11.75 20.125 -1.5
11.75 8.624999999999988 -1.5
11.75 14.37499999999999 -1.500000000000001
11.75 2.874999999999994 -1.5
3.157610638484559 18.22886740495932 0
-2.707174061168084 4.878797530676509 0
7.069955745470663 8.716546370640001 0
-6.619519168154188 14.39111856499582 0
7.102873022115114 14.37499999999999 0
0.1126091443291184 11.52691623390895 0
-7.000954855602268 8.644857627020135 0
-2.792058517349995 18.15992185565015 0
2.948495529093417 4.721447277005962 0
-7.528051718759411 18.81262893003678 0
7.528051718759418 4.187371069963204 0
7.820492259183635 19.07601590637069 0
-7.553981076842909 4.160878030182232 0
-11.75 20.125 -1.5
-11.75 14.37499999999999 -1.5
-11.75 8.624999999999988 -1.5
-11.75 2.874999999999994 -1.5
-8.750000000000002 5.116615031942983 -19.29728964500912
-8.750000000000002 9.891282233663318 -8.985624287434932
-8.750000000000002 14.83304397722557 -27.18079474730234
-8.750000000000002 9.345302997310984 -30.69754125556558
-8.750000000000002 14.83533985506367 -20.01511287420539
-8.750000000000002 5.235752675354068 -25.76893930332332
-8.750000000000002 14.8987913517808 -13.16959511107882
-8.750000000000002 4.874482692062239 -12.82976287832021
-8.750000000000002 4.410419925219751 -31.04614840935451
-8.750000000000002 15.1452794275364 -7.895129359842716
-8.750000000000002 4.605786097565592 -7.603880305400249
-8.750000000000002 9.994361742563717 -16.31333038113102
-8.750000000000002 10.3496592908693 -23.58259749073766
-8.750000000000002 5.285799251537822 -59.99999999999999
-8.750000000000002 14.68196406775053 -52.70184670526373
-8.750000000000002 14.77870181138438 -67.17167477540593
-8.750000000000002 9.342011588626102 -71.08181916274749
-8.750000000000002 9.20575928112879 -49.17321460566445
-8.750000000000002 14.92613490443155 -59.97892024677827
-8.750000000000002 4.950062792907351 -53.75173837633043
-8.750000000000002 4.996426137449848 -66.25613016588547
-8.750000000000002 4.420458871794236 -71.16719399686278
-8.750000000000002 4.354978950337171 -48.77770466260692
-8.750000000000002 10.04807177372719 -63.58084984442807
-8.750000000000002 10.04807177372719 -56.41915015557193
-11.244436843964 2.947047970985748 -76.77660254710348
11.90509277589557 2.726800393232327 -77.08772698138635
-14.26723077882678 3.25640232288553 -80.03268027430029
-11.44143074697742 9.124236551455478 -79.96731972569972
-6.34951503574955 13.18490382959189 -80.03268027430029
14.2763148688246 3.216343257641204 -80
6.913414739485349e-14 14.63413920204384 -80.03268027430029
11.46699620627247 9.092086019727772 -80
6.386498311588702 13.16702963848989 -80
11.24443684397511 2.947047970984657 -83.22339745289099
-11.244436843964 2.947047970985748 -83.22339745289652
-8.750000000000002 5.089167700755552 -105.3088382900882
-8.750000000000002 5.004912695667016 -93.4415624211068
-8.750000000000002 14.74585682302227 -100.0925483014386
-8.750000000000002 15.26392006717864 -107.1735359113387
-8.750000000000002 9.084664577278799 -88.52946200194303
-8.750000000000002 14.43144115836714 -92.39348789532228
-8.750000000000002 6.182469308540976 -114.5635238479612
-8.750000000000002 5.147629282628228 -99.68176174054089
-8.750000000000002 9.776550896623768 -110.2628042928802
-8.750000000000002 10.20620143448421 -103.481903682119
-8.750000000000002 10.04112843154229 -96.07692526290391
-8.750000000000002 4.246158526938078 -88.61559400521226
-8.750000000000002 4.361729566932103 -110.2311895064262
5.408163265306122 3.398083327013068 -120
0 3.398083327013067 -120
-5.40816326530612 3.398083327013068 -120
8.749999999999998 5.089167700755552 -105.3088382900882
8.749999999999998 5.004912695667016 -93.4415624211068
8.749999999999998 14.74585682302227 -100.0925483014386
8.749999999999998 15.26392006717864 -107.1735359113387
8.749999999999998 9.084664577278801 -88.52946200194303
8.749999999999998 14.43144115836714 -92.39348789532228
8.749999999999998 6.182469308540976 -114.5635238479612
8.749999999999998 5.147629282628228 -99.68176174054089
8.749999999999998 9.776550896623768 -110.2628042928802
8.749999999999998 10.20620143448421 -103.481903682119
8.749999999999998 10.04112843154229 -96.07692526290391
8.749999999999998 4.246158526938082 -88.61559400521226
8.749999999999998 4.361729566932103 -110.2311895064262
8.749999999999998 5.285799251537822 -59.99999999999999
8.749999999999998 14.68196406775054 -52.70184670526373
8.749999999999998 14.77870181138438 -67.17167477540593
8.749999999999998 9.342011588626107 -71.08181916274749
8.749999999999998 9.205759281128792 -49.17321460566446
8.749999999999998 14.92613490443155 -59.97892024677827
8.749999999999998 4.950062792907351 -53.75173837633043
8.749999999999998 4.996426137449848 -66.25613016588547
8.749999999999998 4.420458871794238 -71.16719399686278
8.749999999999998 4.354978950337172 -48.77770466260692
8.749999999999998 10.04807177372719 -63.58084984442807
8.749999999999998 10.04807177372719 -56.41915015557193
-1.77635683940025e-15 15.90755890005848 -46.72746295273124
-4.553087820244581 16.53057617833372 -47.18747230644261
4.553087820244581 16.53057617833372 -47.18747230644261
-1.77635683940025e-15 15.90755890005849 -33.27253704726875
4.553087820244577 16.53057617833372 -32.81252769355739
-4.553087820244585 16.53057617833372 -32.81252769355739
-0.07166607520052359 20 -25.63705368738009
0.0977727608032577 20 -7.641593160287631
3.932417618517022 20 -12.3172840655702
-2.819019915030886 20 -13.20499944562118
2.979429431841838 20 -19.72845482387905
-3.874098315287152 20 -20.91309520240347
4.889371409197388 20 -7.154318110054879
-4.87248621143087 20 -26.09799909167308
4.664886004661597 20 -25.8610710159682
-4.627582764178858 20 -7.331861186065064
8.812499999999986 23 -1.5
2.937499999999966 23 -1.5
-8.812500000000007 23 -1.5
-2.937500000000027 23 -1.499999999999999
0 20 -54.3050815012966
1.77635683940025e-15 20 -65.69491849870342
3.667009082255159 20 -60.00000000000001
-3.642808226344499 20 -60.00000000000001
-4.811894978602233 20 -54.07728476134846
-4.811894978602233 20 -65.92271523865155
4.816735149784366 20 -65.92271523865155
4.816735149784366 20 -54.07728476134847
1.77635683940025e-15 15.90755890005848 -73.27253704726876
-4.553087820244583 16.53057617833372 -72.81252769355739
4.553087820244579 16.53057617833372 -72.81252769355739
0 15.90755890005847 -86.72746295273124
4.553087820244579 16.53057617833372 -87.18747230644263
-4.553087820244579 16.53057617833372 -87.18747230644263
1.77635683940025e-15 20 -94.3050815012966
1.77635683940025e-15 20 -105.6949184987034
3.667009082255161 20 -100
-3.642808226344499 20 -100
-4.811894978602233 20 -105.9227152386515
4.816735149784366 20 -105.9227152386515
-4.811894978602233 20 -94.07728476134847
4.816735149784366 20 -94.07728476134847
4.861111111111111 13.39808332701307 -115.1254266488331
-4.861111111111109 13.39808332701307 -115.1254266488331
-1.77635683940025e-15 16.32707353612746 -112.9627853544348
-1.77635683940025e-15 10.46909311789867 -117.2880679432313
-5.055555555555557 9.731390837796287 -117.8327558049239
5.055555555555555 17.06477581622985 -112.4180974927422
-5.055555555555557 17.06477581622985 -112.4180974927422
5.055555555555555 9.731390837796287 -117.8327558049239
-4.293874800278855 5.946552523934542 -83.6988793063643
4.837582881394288 6.394240691819813 -83.33807322452358
-2.314585390770899 2.70380620564788 -78.781481219469
5.075916667407451 2.70380620564788 -78.73629153006534
8.496302041258723 2.70380620564788 -79.74725830601307
-8.46385521327565 2.70380620564788 -80.25876290611944
2.575468991302333 2.70380620564788 -81.8547704205163
-4.978790836174106 2.70380620564788 -81.32677739044848
5.696304977702905 9.695573820672102 -79.96407051251656
8.179297646627145e-15 11.24508968888666 -80.03592948748344
-5.696304977702897 9.695573820672106 -80.03592948748344
-9.822766548667422 5.474056945400315 -80.03592948748344
9.822766548667422 5.474056945400312 -80.03592948748344
-4.837582881394252 6.3942406918198 -76.6619267754764
4.293874800279047 5.946552523934356 -76.30112069363568
-4.293874800278859 5.946552523934542 -43.6988793063643
4.837582881394288 6.394240691819808 -43.33807322452358
2.314585390770898 2.70380620564788 -41.218518780531
-5.075916667407448 2.70380620564788 -41.26370846993466
8.463855213275647 2.70380620564788 -39.74123709388057
-8.496302041258721 2.70380620564788 -40.25274169398693
-2.575468991302335 2.70380620564788 -38.14522957948371
4.978790836174092 2.70380620564788 -38.67322260955155
1.067620914394252e-14 11.24508968888666 -40.03592948748345
-5.696304977702897 9.695573820672106 -40.03592948748344
-9.822766548667419 5.47405694540032 -40.03592948748344
5.696304977702905 9.695573820672102 -40.03592948748345
9.822766548667422 5.474056945400312 -40.03592948748345
4.293874800279048 5.946552523934355 -36.30112069363567
-4.293874800278982 5.946552523934411 -36.30112069363568
-0.1510684296180979 8.604945153576352 -26.57561554961616
-1.77635683940025e-15 9.182834284896094 -106.8211232625785
-1.77635683940025e-15 9.218728089041345 -53.25050953483525
-1.875453674705588e-15 9.218728089041345 -66.74949046516475
-1.885448515270211e-15 9.23731137410458 -93.1518358903582
-3.552713678800501e-15 8.810362564865772 -8.406760714468021
0.721649415189356 7.755435744004251 -18.13215514580878
0.01210042795533095 13.05937642535154 -100.0018204534045
1.665761935757361 7.016301533472183 -60
-2.293669022560953 5.67001276549944 -113.7331916991931
2.333360476707858 14.23466685578738 -5.822521544333768
1.778451868740106 13.30159493698675 -13.70865111712079
0.01210042795532917 13.91726997557624 -58.72034029182781
2.523745011114902 14.63350193734263 -107.4972217034892

CELLS 2740 12024
1 0
1 1
1 2
1 3
1 4
1 5
1 6
1 7
1 8
1 9
1 10
1 11
1 12
1 13
1 14
1 15
1 16
1 17
1 18
1 19
1 20
1 21
1 22
1 23
1 24
1 25
1 26
1 27
1 28
1 29
1 30
1 31
1 32
1 33
1 34
1 35
1 36
1 37
1 38
1 39
1 40
1 41
1 42
1 43
1 44
1 45
1 46
1 47
1 48
1 49
1 50
1 51
1 52
1 53
1 54
1 55
1 56
1 57
1 58
1 59
1 60
1 61
1 62
1 63
1 64
1 65
2 0 1
2 1 2
2 2 3
2 3 66
2 66 67
2 67 68
2 68 69
2 69 4
2 4 5
2 5 6
2 6 70
2 70 71
2 71 72
2 72 7
2 8 7
2 8 9
2 9 73
2 73 74
2 74 75
2 75 76
2 76 10
2 11 10
2 12 11
2 13 12
2 13 77
2 77 78
2 78 79
2 79 80
2 80 14
2 15 14
2 16 15
2 17 16
2 17 81
2 81 82
2 82 83
2 83 84
2 84 85
2 85 18
2 19 86
2 86 87
2 87 18
2 20 88
2 88 89
2 89 90
2 90 91
2 91 92
2 92 19
2 20 21
2 21 22
2 22 23
2 0 93
2 93 94
2 94 95
2 95 96
2 96 23
2 1 97
2 97 98
2 98 99
2 99 100
2 100 101
2 101 102
2 102 12
2 24 103
2 103 13
2 24 104
2 104 105
2 105 25
2 25 106
2 106 0
2 2 107
2 107 108
2 108 109
2 109 110
2 110 111
2 111 112
2 112 11
2 3 113
2 113 26
2 26 114
2 114 115
2 115 27
2 10 116
2 116 27
2 4 117
2 117 118
2 118 28
2 29 119
2 119 120
2 120 121
2 121 28
2 26 122
2 122 29
2 31 123
2 123 124
2 124 125
2 125 30
2 8 126
2 126 127
2 127 128
2 128 31
2 32 129
2 129 130
2 130 9
2 32 131
2 131 132
2 132 28
2 5 133
2 133 134
2 134 135
2 135 30
2 6 136
2 136 137
2 137 138
2 138 33
2 30 33
2 34 139
2 139 140
2 140 141
2 141 33
2 7 142
2 142 143
2 143 144
2 144 34
2 31 34
2 32 145
2 145 146
2 146 147
2 147 35
2 27 148
2 148 35
2 36 149
2 149 24
2 37 150
2 150 151
2 151 36
2 38 152
2 152 37
2 14 153
2 153 38
2 23 154
2 154 39
2 39 155
2 155 156
2 156 38
2 22 157
2 157 158
2 158 159
2 159 160
2 160 161
2 161 162
2 162 15
2 21 163
2 163 164
2 164 165
2 165 166
2 166 167
2 167 168
2 168 16
2 40 169
2 169 17
2 40 170
2 170 171
2 171 41
2 41 172
2 172 20
2 42 173
2 173 40
2 43 174
2 174 175
2 175 42
2 44 176
2 176 177
2 177 43
2 18 44
2 45 178
2 178 179
2 179 44
2 19 45
2 46 180
2 180 41
2 47 181
2 181 182
2 182 46
2 45 183
2 183 184
2 184 47
2 48 185
2 185 25
2 49 186
2 186 187
2 187 48
2 39 188
2 188 49
2 48 189
2 189 190
2 190 36
2 29 191
2 191 192
2 192 35
2 49 193
2 193 194
2 194 37
2 46 195
2 195 196
2 196 42
2 47 197
2 197 198
2 198 43
2 50 199
2 199 51
2 51 200
2 200 50
2 50 201
2 201 52
2 52 202
2 202 203
2 203 204
2 204 205
2 205 53
2 53 206
2 206 51
2 52 54
2 54 207
2 207 55
2 55 208
2 208 56
2 56 209
2 209 57
2 53 57
2 54 210
2 210 211
2 211 212
2 212 213
2 213 57
2 55 214
2 214 56
2 58 215
2 215 59
2 59 216
2 216 58
2 58 217
2 217 60
2 60 218
2 218 219
2 219 220
2 220 221
2 221 61
2 61 222
2 222 59
2 60 62
2 62 223
2 223 63
2 63 224
2 224 64
2 64 225
2 225 65
2 61 65
2 62 226
2 226 227
2 227 228
2 228 229
2 229 65
2 63 230
2 230 64
3 1 249 0
3 0 234 93
3 0 245 234
3 0 249 245
3 2 249 1
3 3 249 2
3 66 256 3
3 245 249 3
3 3 275 245
3 256 275 3
3 6 4 5
3 70 4 6
3 4 248 69
3 70 248 4
3 7 8 9
3 9 72 7
3 9 237 72
3 73 274 9
3 9 274 237
3 11 252 10
3 10 246 76
3 10 254 246
3 252 254 10
3 12 252 11
3 13 252 12
3 77 260 13
3 13 254 252
3 13 260 254
3 15 250 14
3 14 270 80
3 250 269 14
3 14 269 253
3 253 270 14
3 16 250 15
3 17 250 16
3 81 276 17
3 17 269 250
3 255 269 17
3 17 276 255
3 18 272 85
3 87 272 18
3 19 273 86
3 92 273 19
3 21 251 20
3 20 240 88
3 20 244 240
3 20 251 244
3 22 251 21
3 23 251 22
3 96 235 23
3 235 244 23
3 244 251 23
3 67 238 66
3 238 256 66
3 68 259 67
3 67 259 238
3 69 239 68
3 239 259 68
3 69 248 239
3 71 248 70
3 72 237 71
3 237 248 71
3 74 258 73
3 258 274 73
3 75 247 74
3 247 258 74
3 76 257 75
3 75 257 247
3 246 257 76
3 78 243 77
3 243 260 77
3 79 262 78
3 78 262 243
3 80 242 79
3 242 262 79
3 80 270 242
3 82 232 81
3 232 276 81
3 83 265 82
3 82 265 232
3 84 233 83
3 233 265 83
3 85 267 84
3 84 267 233
3 85 272 267
3 86 231 87
3 86 273 231
3 231 272 87
3 88 264 89
3 240 264 88
3 89 241 90
3 89 264 241
3 90 266 91
3 241 266 90
3 91 268 92
3 266 268 91
3 268 273 92
3 93 263 94
3 234 263 93
3 94 236 95
3 94 263 236
3 95 261 96
3 236 261 95
3 96 261 235
3 231 268 267
3 267 272 231
3 231 273 268
3 241 264 232
3 232 265 241
3 264 276 232
3 233 266 265
3 233 267 266
3 234 260 243
3 243 263 234
3 245 260 234
3 235 253 244
3 235 270 253
3 261 270 235
3 236 262 261
3 236 263 262
3 237 271 248
3 237 274 271
3 246 256 238
3 238 257 246
3 247 257 238
3 238 259 247
3 239 258 247
3 247 259 239
3 248 271 239
3 239 271 258
3 244 255 240
3 255 276 240
3 240 276 264
3 265 266 241
3 261 262 242
3 242 270 261
3 262 263 243
3 253 255 244
3 254 260 245
3 245 275 254
3 254 275 246
3 246 275 256
3 253 269 255
3 271 274 258
3 267 268 266
3 0 277 1
3 106 277 0
3 1 277 97
3 12 278 13
3 102 278 12
3 13 278 103
3 101 24 102
3 101 104 24
3 103 102 24
3 97 25 98
3 25 97 106
3 105 98 25
3 97 277 106
3 99 98 105
3 100 99 104
3 105 104 99
3 101 100 104
3 103 278 102
3 1 282 2
3 97 282 1
3 2 282 107
3 11 279 12
3 112 279 11
3 12 279 102
3 98 284 97
3 107 282 97
3 97 284 107
3 99 285 98
3 108 284 98
3 98 285 108
3 100 283 99
3 99 283 109
3 109 285 99
3 101 281 100
3 100 281 110
3 110 283 100
3 102 280 101
3 101 280 111
3 111 281 101
3 102 279 112
3 112 280 102
3 107 284 108
3 108 285 109
3 109 283 110
3 110 281 111
3 111 280 112
3 2 287 3
3 107 287 2
3 3 287 113
3 10 286 11
3 116 286 10
3 11 286 112
3 107 108 26
3 26 113 107
3 26 108 114
3 111 112 27
3 111 27 115
3 116 27 112
3 113 287 107
3 114 108 109
3 110 115 109
3 115 114 109
3 111 115 110
3 112 286 116
3 3 296 66
3 113 296 3
3 69 298 4
3 4 298 117
3 26 291 113
3 122 291 26
3 118 297 28
3 28 297 121
3 119 290 29
3 29 290 122
3 66 293 67
3 66 296 293
3 67 288 68
3 67 293 288
3 68 295 69
3 288 295 68
3 295 298 69
3 291 296 113
3 117 289 118
3 117 298 289
3 289 297 118
3 120 292 119
3 119 292 290
3 121 294 120
3 120 294 292
3 121 297 294
3 290 291 122
3 293 300 288
3 288 299 295
3 288 300 299
3 294 297 289
3 289 299 294
3 289 298 295
3 295 299 289
3 290 300 291
3 292 300 290
3 293 296 291
3 291 300 293
3 294 299 292
3 299 300 292
3 5 4 301
3 4 117 301
3 133 5 301
3 9 8 302
3 8 126 302
3 130 9 302
3 30 28 125
3 135 28 30
3 28 135 118
3 28 132 125
3 31 123 32
3 31 32 128
3 123 131 32
3 128 32 129
3 134 117 118
3 134 133 117
3 117 133 301
3 135 134 118
3 131 123 124
3 132 124 125
3 132 131 124
3 126 127 130
3 126 130 302
3 127 128 129
3 127 129 130
3 5 306 6
3 133 306 5
3 6 306 136
3 33 303 30
3 30 303 135
3 138 303 33
3 134 304 133
3 133 304 136
3 136 306 133
3 135 305 134
3 137 304 134
3 134 305 137
3 135 303 138
3 138 305 135
3 136 304 137
3 137 305 138
3 6 317 70
3 136 317 6
3 72 319 7
3 7 319 142
3 33 318 138
3 141 318 33
3 34 316 139
3 144 316 34
3 70 315 71
3 70 317 315
3 71 308 72
3 71 315 308
3 308 319 72
3 137 309 136
3 309 317 136
3 138 311 137
3 137 311 309
3 138 318 311
3 139 314 140
3 139 316 314
3 140 307 141
3 140 314 307
3 307 318 141
3 142 313 143
3 142 319 313
3 143 310 144
3 143 313 310
3 310 316 144
3 307 312 311
3 311 318 307
3 307 314 312
3 312 313 308
3 308 315 312
3 313 319 308
3 311 312 309
3 312 315 309
3 315 317 309
3 310 313 312
3 312 314 310
3 314 316 310
3 8 7 323
3 7 142 323
3 126 8 323
3 34 31 320
3 31 128 320
3 144 34 320
3 127 126 322
3 126 142 322
3 142 126 323
3 128 127 321
3 127 143 321
3 143 127 322
3 128 144 320
3 144 128 321
3 142 143 322
3 143 144 321
3 73 9 334
3 9 130 334
3 10 76 332
3 116 10 332
3 27 116 327
3 148 27 327
3 129 32 333
3 32 145 333
3 147 35 326
3 35 148 326
3 74 73 331
3 331 73 334
3 75 74 324
3 324 74 331
3 76 75 329
3 75 324 329
3 76 329 332
3 327 116 332
3 130 129 325
3 325 129 333
3 130 325 334
3 145 146 330
3 145 330 333
3 146 147 328
3 146 328 330
3 147 326 328
3 326 148 327
3 329 324 336
3 324 331 335
3 324 335 336
3 330 325 333
3 325 330 335
3 325 331 334
3 331 325 335
3 326 327 336
3 328 326 336
3 329 327 332
3 327 329 336
3 330 328 335
3 335 328 336
3 77 13 346
3 13 103 346
3 14 80 345
3 153 14 345
3 103 24 341
3 24 149 341
3 149 36 338
3 36 151 338
3 150 37 339
3 37 152 339
3 152 38 340
3 38 153 340
3 78 77 343
3 343 77 346
3 79 78 337
3 337 78 343
3 80 79 344
3 79 337 344
3 80 344 345
3 103 341 346
3 149 338 341
3 151 150 342
3 150 339 342
3 338 151 342
3 339 152 340
3 340 153 345
3 337 343 348
3 344 337 347
3 347 337 348
3 341 338 348
3 338 342 348
3 339 340 347
3 342 339 347
3 344 340 345
3 340 344 347
3 341 343 346
3 343 341 348
3 342 347 348
3 14 349 15
3 153 349 14
3 15 349 162
3 22 350 23
3 157 350 22
3 23 350 154
3 153 38 162
3 161 38 156
3 161 162 38
3 39 154 157
3 39 158 155
3 157 158 39
3 162 349 153
3 154 350 157
3 155 159 156
3 155 158 159
3 160 156 159
3 161 156 160
3 15 351 16
3 162 351 15
3 16 351 168
3 21 354 22
3 163 354 21
3 22 354 157
3 157 356 158
3 157 354 163
3 163 356 157
3 158 357 159
3 158 356 164
3 164 357 158
3 159 355 160
3 165 355 159
3 159 357 165
3 160 353 161
3 166 353 160
3 160 355 166
3 161 352 162
3 167 352 161
3 161 353 167
3 168 351 162
3 162 352 168
3 164 356 163
3 165 357 164
3 166 355 165
3 167 353 166
3 168 352 167
3 16 359 17
3 168 359 16
3 17 359 169
3 20 358 21
3 172 358 20
3 21 358 163
3 167 40 168
3 167 170 40
3 169 168 40
3 163 41 164
3 41 163 172
3 171 164 41
3 163 358 172
3 165 164 171
3 166 165 170
3 171 170 165
3 167 166 170
3 169 359 168
3 81 17 371
3 17 169 371
3 44 18 366
3 18 85 366
3 169 40 364
3 40 173 364
3 173 42 365
3 42 175 365
3 174 43 363
3 43 177 363
3 176 44 366
3 82 81 361
3 361 81 371
3 83 82 367
3 82 361 367
3 84 83 360
3 360 83 367
3 85 84 372
3 84 360 372
3 366 85 372
3 169 364 371
3 364 173 365
3 175 174 362
3 362 174 363
3 175 362 365
3 177 176 368
3 176 366 368
3 363 177 368
3 360 367 369
3 368 360 369
3 360 368 372
3 361 364 370
3 364 361 371
3 367 361 370
3 362 363 369
3 365 362 370
3 362 369 370
3 363 368 369
3 364 365 370
3 368 366 372
3 369 367 370
3 44 375 18
3 18 375 87
3 19 373 45
3 86 373 19
3 179 375 44
3 45 373 178
3 87 374 86
3 86 374 373
3 87 375 374
3 178 374 179
3 373 374 178
3 374 375 179
3 45 382 19
3 19 382 92
3 88 387 20
3 20 387 172
3 172 380 41
3 41 380 180
3 183 382 45
3 180 381 46
3 46 381 182
3 181 379 47
3 47 379 184
3 89 377 88
3 377 387 88
3 90 383 89
3 89 383 377
3 91 376 90
3 376 383 90
3 92 388 91
3 91 388 376
3 382 388 92
3 172 387 380
3 380 381 180
3 182 378 181
3 378 379 181
3 182 381 378
3 184 384 183
3 183 384 382
3 379 384 184
3 376 385 383
3 384 385 376
3 376 388 384
3 377 386 380
3 380 387 377
3 383 386 377
3 378 385 379
3 381 386 378
3 378 386 385
3 379 385 384
3 380 386 381
3 384 388 382
3 385 386 383
3 93 398 0
3 0 398 106
3 23 397 96
3 154 397 23
3 106 393 25
3 25 393 185
3 39 392 154
3 188 392 39
3 185 390 48
3 48 390 187
3 186 391 49
3 49 391 188
3 94 395 93
3 395 398 93
3 95 389 94
3 389 395 94
3 96 396 95
3 95 396 389
3 96 397 396
3 106 398 393
3 392 397 154
3 185 393 390
3 187 394 186
3 186 394 391
3 390 394 187
3 391 392 188
3 389 400 395
3 396 399 389
3 399 400 389
3 393 400 390
3 390 400 394
3 391 399 392
3 394 399 391
3 396 397 392
3 392 399 396
3 393 398 395
3 395 400 393
3 394 400 399
3 149 24 104
3 105 25 185
3 149 402 36
3 36 402 190
3 48 403 185
3 189 403 48
3 105 401 104
3 104 402 149
3 401 402 104
3 185 403 105
3 105 403 401
3 190 401 189
3 401 403 189
3 190 402 401
3 122 26 114
3 27 148 115
3 122 405 29
3 29 405 191
3 35 406 148
3 192 406 35
3 115 404 114
3 114 405 122
3 404 405 114
3 148 406 115
3 115 406 404
3 191 404 192
3 191 405 404
3 404 406 192
3 121 413 28
3 28 413 132
3 29 415 119
3 191 415 29
3 131 416 32
3 32 416 145
3 147 414 35
3 35 414 192
3 119 411 120
3 119 415 411
3 120 409 121
3 120 411 409
3 409 413 121
3 132 408 131
3 408 416 131
3 132 413 408
3 145 410 146
3 145 416 410
3 146 412 147
3 410 412 146
3 412 414 147
3 192 407 191
3 407 415 191
3 192 414 407
3 407 412 411
3 411 415 407
3 407 414 412
3 409 410 408
3 408 413 409
3 410 416 408
3 409 411 410
3 411 412 410
3 30 417 33
3 125 417 30
3 34 419 31
3 31 419 123
3 33 417 141
3 139 419 34
3 123 420 124
3 123 419 139
3 139 420 123
3 124 418 125
3 140 418 124
3 124 420 140
3 141 417 125
3 125 418 141
3 140 420 139
3 141 418 140
3 36 425 151
3 190 425 36
3 150 426 37
3 37 426 194
3 187 428 48
3 48 428 189
3 49 427 186
3 193 427 49
3 151 424 150
3 424 426 150
3 151 425 424
3 186 423 187
3 186 427 423
3 423 428 187
3 189 421 190
3 189 428 421
3 421 425 190
3 194 422 193
3 422 427 193
3 194 426 422
3 423 424 421
3 421 428 423
3 424 425 421
3 422 424 423
3 423 427 422
3 422 426 424
3 37 430 152
3 194 430 37
3 152 156 38
3 188 39 155
3 188 431 49
3 49 431 193
3 152 430 156
3 156 429 155
3 155 431 188
3 429 431 155
3 156 430 429
3 193 429 194
3 193 431 429
3 429 430 194
3 173 40 170
3 171 41 180
3 173 434 42
3 42 434 196
3 46 433 180
3 195 433 46
3 171 432 170
3 170 434 173
3 432 434 170
3 180 433 171
3 171 433 432
3 196 432 195
3 432 433 195
3 196 434 432
3 42 441 175
3 196 441 42
3 174 439 43
3 43 439 198
3 182 442 46
3 46 442 195
3 47 440 181
3 197 440 47
3 175 438 174
3 438 439 174
3 175 441 438
3 181 437 182
3 181 440 437
3 437 442 182
3 195 435 196
3 195 442 435
3 435 441 196
3 198 436 197
3 436 440 197
3 198 439 436
3 437 438 435
3 435 442 437
3 438 441 435
3 436 438 437
3 437 440 436
3 436 439 438
3 43 449 177
3 198 449 43
3 176 447 44
3 44 447 179
3 178 450 45
3 45 450 183
3 184 448 47
3 47 448 197
3 177 444 176
3 444 447 176
3 177 449 444
3 179 446 178
3 446 450 178
3 179 447 446
3 183 443 184
3 183 450 443
3 443 448 184
3 197 445 198
3 197 448 445
3 445 449 198
3 443 446 445
3 445 448 443
3 443 450 446
3 445 446 444
3 444 449 445
3 446 447 444
3 199 200 50
3 200 199 51
3 199 50 452
3 50 201 452
3 51 199 451
3 206 51 451
3 52 202 201
3 205 53 206
3 204 199 203
3 203 199 452
3 199 204 451
3 201 202 452
3 202 203 452
3 204 205 451
3 205 206 451
3 200 457 50
3 50 457 201
3 51 458 200
3 206 458 51
3 52 455 54
3 201 455 52
3 57 456 53
3 53 456 206
3 54 455 207
3 207 454 55
3 55 454 208
3 208 453 56
3 56 453 209
3 209 456 57
3 453 457 200
3 200 458 453
3 454 455 201
3 201 457 454
3 456 458 206
3 207 455 454
3 208 457 453
3 454 457 208
3 453 458 209
3 209 458 456
3 52 54 463
3 202 52 463
3 57 53 462
3 53 205 462
3 54 210 463
3 213 57 462
3 203 202 459
3 202 210 459
3 210 202 463
3 204 203 460
3 211 203 459
3 203 211 460
3 205 204 461
3 212 204 460
3 204 212 461
3 213 205 461
3 205 213 462
3 210 211 459
3 211 212 460
3 212 213 461
3 54 207 210
3 207 55 465
3 55 214 465
3 56 209 464
3 214 56 464
3 213 209 57
3 210 207 465
3 209 213 464
3 211 210 465
3 212 211 214
3 214 211 465
3 213 212 464
3 212 214 464
3 208 214 55
3 214 208 56
3 215 216 58
3 216 215 59
3 215 58 467
3 58 217 467
3 59 215 466
3 222 59 466
3 60 218 217
3 221 61 222
3 220 215 219
3 219 215 467
3 215 220 466
3 217 218 467
3 218 219 467
3 220 221 466
3 221 222 466
3 216 468 58
3 58 468 217
3 59 469 216
3 222 469 59
3 60 470 62
3 217 470 60
3 65 471 61
3 61 471 222
3 62 470 223
3 223 473 63
3 63 473 224
3 224 472 64
3 64 472 225
3 225 471 65
3 216 472 468
3 469 472 216
3 468 473 217
3 217 473 470
3 222 471 469
3 470 473 223
3 468 472 224
3 224 473 468
3 469 471 225
3 225 472 469
3 60 62 478
3 218 60 478
3 65 61 476
3 61 221 476
3 62 226 478
3 229 65 476
3 219 218 477
3 218 226 477
3 226 218 478
3 220 219 474
3 219 227 474
3 227 219 477
3 221 220 475
3 228 220 474
3 220 228 475
3 229 221 475
3 221 229 476
3 226 227 477
3 227 228 474
3 228 229 475
3 62 223 226
3 223 63 479
3 63 230 479
3 64 225 480
3 230 64 480
3 229 225 65
3 226 223 479
3 225 229 480
3 227 226 479
3 228 227 230
3 230 227 479
3 229 228 480
3 228 230 480
3 224 230 63
3 230 224 64
4 241 383 482 488
4 292 415 300 481
4 443 450 384 490
4 412 414 407 481
4 192 406 407 414
4 241 485 383 488
4 265 482 367 488
4 412 328 481 487
4 265 367 485 488
4 191 415 407 405
4 290 300 415 481
4 199 371 51 451
4 415 411 407 481
4 241 482 265 488
4 162 161 38 352
4 406 407 414 481
4 41 356 163 164
4 452 50 199 387
4 191 407 404 405
4 292 481 300 487
4 241 265 485 488
4 328 336 481 487
4 415 292 411 481
4 344 337 242 489
4 102 280 24 101
4 466 59 346 215
4 407 411 412 481
4 192 406 404 407
4 235 397 55 484
4 157 356 39 158
4 412 481 411 487
4 415 407 405 481
4 40 167 168 352
4 292 411 481 487
4 427 422 193 484
4 428 189 421 483
4 406 414 326 481
4 446 450 443 490
4 427 193 431 484
4 428 403 189 483
4 194 422 426 484
4 425 421 190 483
4 64 480 332 230
4 479 230 63 296
4 194 426 430 484
4 402 425 190 483
4 467 58 215 398
4 240 199 50 387
4 195 435 442 485
4 195 442 433 485
4 441 435 196 485
4 441 196 434 485
4 339 484 426 493
4 292 290 300 415
4 427 484 391 493
4 343 337 483 489
4 214 56 345 464
4 98 25 97 284
4 328 487 412 492
4 422 426 484 493
4 422 484 427 493
4 388 482 384 490
4 333 416 491 492
4 107 26 108 284
4 451 199 371 485
4 404 405 407 481
4 344 484 337 489
4 344 242 484 489
4 369 367 482 488
4 415 405 290 481
4 385 482 383 488
4 324 257 329 481
4 408 491 416 492
4 443 384 482 490
4 198 439 449 494
4 346 466 215 483
4 407 406 404 481
4 241 383 266 482
4 256 63 230 296
4 27 280 112 111
4 376 266 383 482
4 51 371 199 276
4 235 55 214 484
4 129 416 131 491
4 230 296 479 481
4 382 384 450 490
4 429 193 422 484
4 194 429 422 484
4 189 401 421 483
4 421 401 190 483
4 370 485 367 488
4 431 193 429 484
4 194 430 429 484
4 190 401 402 483
4 403 401 189 483
4 368 444 449 482
4 363 439 488 494
4 383 485 386 488
4 346 341 466 483
4 432 196 435 485
4 195 432 435 485
4 333 491 486 492
4 331 486 258 487
4 432 434 196 485
4 195 433 432 485
4 335 486 331 487
4 377 383 241 485
4 435 442 485 488
4 435 485 441 488
4 367 361 232 485
4 339 426 342 493
4 270 56 345 214
4 393 467 215 398
4 479 296 291 481
4 480 332 230 481
4 328 335 487 492
4 427 391 394 493
4 451 371 364 485
4 363 449 439 494
4 412 487 411 492
4 431 391 427 484
4 426 339 430 484
4 464 345 214 340
4 403 428 390 483
4 199 380 452 387
4 425 402 338 483
4 268 482 388 490
4 382 388 384 490
4 465 397 392 484
4 240 199 387 485
4 421 428 483 493
4 421 483 425 493
4 343 262 337 489
4 376 383 385 482
4 360 369 367 482
4 480 327 332 481
4 348 343 337 483
4 441 485 365 488
4 381 485 442 488
4 363 482 449 494
4 240 387 264 485
4 387 377 264 485
4 328 330 335 492
4 266 265 241 482
4 371 276 361 485
4 234 215 58 398
4 339 347 484 493
4 449 363 368 482
4 335 486 487 492
4 391 484 399 493
4 442 381 433 485
4 365 441 434 485
4 256 296 230 481
4 199 276 371 485
4 129 333 416 491
4 360 233 372 482
4 446 443 482 490
4 337 262 242 489
4 428 390 483 493
4 425 483 338 493
4 363 488 482 494
4 335 330 325 492
4 270 214 345 484
4 337 344 347 484
4 274 271 258 486
4 270 345 344 484
4 306 5 301 133
4 8 126 323 302
4 348 483 337 489
4 335 325 486 492
4 261 397 235 484
4 129 486 333 491
4 444 445 449 482
4 336 324 329 481
4 367 232 265 485
4 367 370 361 485
4 377 386 383 485
4 295 487 486 492
4 178 374 273 231
4 393 398 215 483
4 397 261 396 484
4 271 274 237 486
4 411 487 292 492
4 348 337 347 489
4 324 481 336 487
4 337 484 347 489
4 131 310 129 491
4 479 291 114 481
4 467 215 105 393
4 479 114 230 481
4 329 257 332 481
4 387 199 380 485
4 344 242 270 484
4 265 266 233 482
4 339 342 347 493
4 346 215 243 483
4 391 399 394 493
4 335 325 331 486
4 439 436 488 494
4 214 340 345 484
4 264 377 241 485
4 426 424 342 493
4 410 408 416 492
4 214 156 464 340
4 327 480 115 481
4 394 423 427 493
4 267 372 233 482
4 274 258 334 486
4 480 230 115 481
4 348 489 347 493
4 234 215 398 483
4 114 405 404 481
4 328 335 336 487
4 332 246 64 230
4 104 466 341 483
4 300 481 293 487
4 452 380 199 171
4 465 155 214 484
4 104 215 466 483
4 328 410 330 492
4 363 369 482 488
4 395 263 398 483
4 288 300 293 487
4 369 370 367 488
4 346 243 343 483
4 290 405 291 481
4 363 439 362 488
4 291 405 114 481
4 376 388 266 482
4 385 383 386 488
4 451 170 199 485
4 406 115 404 481
4 237 248 271 486
4 465 392 155 484
4 312 486 129 491
4 449 482 445 494
4 362 441 365 488
4 374 231 178 490
4 395 398 393 483
4 341 346 343 483
4 378 381 442 488
4 347 489 484 493
4 361 364 371 485
4 387 380 377 485
4 266 388 268 482
4 327 115 406 481
4 289 295 486 492
4 451 364 170 485
4 130 325 129 486
4 326 327 406 481
4 335 331 324 487
4 295 299 487 492
4 267 372 482 490
4 214 261 235 484
4 328 412 410 492
4 334 258 331 486
4 422 424 426 493
4 273 178 231 490
4 325 333 129 486
4 310 131 314 491
4 232 241 265 485
4 293 481 238 487
4 288 293 238 487
4 348 483 489 493
4 422 427 423 493
4 130 129 313 486
4 361 276 232 485
4 295 239 486 487
4 365 485 370 488
4 381 386 485 488
4 368 444 482 490
4 429 155 431 484
4 430 156 429 484
4 104 402 401 483
4 403 105 401 483
4 296 293 291 481
4 261 484 242 489
4 392 397 396 484
4 345 340 344 484
4 104 341 402 483
4 403 393 105 483
4 443 482 384 494
4 324 336 335 487
4 238 481 257 487
4 236 395 389 489
4 446 482 444 490
4 215 105 393 483
4 433 171 432 485
4 170 434 432 485
4 372 368 360 482
4 376 384 388 482
4 258 486 239 487
4 399 484 489 493
4 270 261 214 484
4 310 312 129 491
4 431 155 392 484
4 430 340 156 484
4 115 114 404 481
4 444 446 445 482
4 443 445 446 482
4 236 389 396 489
4 313 129 312 486
4 230 332 246 481
4 341 338 402 483
4 403 390 393 483
4 368 482 372 490
4 340 214 156 484
4 256 238 296 481
4 331 247 324 487
4 170 364 434 485
4 380 171 433 485
4 438 441 362 488
4 431 392 391 484
4 430 339 340 484
4 296 238 293 481
4 437 378 442 488
4 332 257 246 481
4 234 398 263 483
4 237 315 248 486
4 247 331 258 487
4 362 439 438 488
4 363 362 369 488
4 9 130 302 319
4 329 332 327 481
4 449 445 198 494
4 289 299 295 492
4 117 4 301 317
4 380 199 171 485
4 178 374 373 273
4 445 482 443 494
4 261 396 484 489
4 425 338 342 493
4 395 94 236 389
4 232 264 241 485
4 230 114 115 481
4 428 394 390 493
4 338 483 348 493
4 400 483 390 493
4 258 271 239 486
4 238 259 288 487
4 259 295 288 487
4 309 117 486 491
4 198 436 439 494
4 237 308 315 486
4 240 199 276 200
4 208 214 270 261
4 266 482 268 490
4 117 289 486 491
4 362 365 370 488
4 292 487 299 492
4 242 261 270 484
4 298 289 295 486
4 334 331 325 486
4 378 386 381 488
4 246 230 256 224
4 429 156 155 484
4 105 104 401 483
4 434 364 365 485
4 381 380 433 485
4 239 298 295 486
4 446 178 450 490
4 261 236 396 489
4 432 171 170 485
4 300 290 291 481
4 117 315 309 486
4 416 408 131 491
4 261 208 214 235
4 215 234 243 483
4 105 215 104 483
4 214 155 156 484
4 313 308 130 486
4 325 130 334 486
4 117 289 298 486
4 438 435 441 488
4 439 436 438 488
4 292 300 299 487
4 400 395 483 489
4 435 437 442 488
4 233 266 267 482
4 329 324 75 257
4 348 347 342 493
4 246 256 230 481
4 263 483 395 489
4 369 368 363 482
4 170 171 199 485
4 239 271 248 486
4 267 482 266 490
4 276 264 232 485
4 239 248 298 486
4 309 486 312 491
4 243 215 216 234
4 336 327 326 481
4 293 300 291 481
4 399 489 394 493
4 394 489 400 493
4 396 399 484 489
4 338 348 342 493
4 424 425 342 493
4 267 266 268 490
4 273 231 268 490
4 400 390 394 493
4 423 394 428 493
4 315 312 309 486
4 247 238 257 487
4 262 261 242 489
4 393 400 395 483
4 348 341 343 483
4 313 312 308 486
4 482 488 385 494
4 117 118 289 491
4 310 314 312 491
4 236 263 395 489
4 393 390 400 483
4 338 341 348 483
4 384 376 385 482
4 368 369 360 482
4 368 447 444 490
4 236 396 389 95
4 400 489 483 493
4 309 118 117 491
4 364 361 370 485
4 380 386 377 485
4 440 378 437 494
4 344 340 347 484
4 399 392 396 484
4 340 339 347 484
4 392 399 391 484
4 295 299 288 487
4 243 483 263 489
4 319 130 237 274
4 336 329 327 481
4 79 344 337 242
4 343 78 337 262
4 409 120 294 492
4 376 266 90 383
4 330 146 410 328
4 394 399 400 489
4 448 443 384 494
4 239 295 259 487
4 417 33 141 318
4 378 488 437 494
4 34 316 419 139
4 9 130 319 274
4 261 270 208 235
4 400 389 395 489
4 237 9 319 274
4 83 360 367 233
4 385 488 378 494
4 367 361 82 232
4 243 234 263 483
4 370 369 362 488
4 299 300 288 487
4 378 385 386 488
4 404 192 407 191
4 94 263 395 236
4 413 28 132 491
4 384 482 385 494
4 323 142 7 319
4 416 131 32 129
4 306 317 6 136
4 138 33 303 318
4 68 288 259 295
4 246 238 256 481
4 266 241 90 383
4 377 89 241 383
4 364 370 365 485
4 386 380 381 485
4 320 316 34 144
4 396 389 399 489
4 190 421 189 401
4 195 432 196 435
4 194 422 429 193
4 440 379 378 494
4 308 312 315 486
4 412 410 146 328
4 396 236 261 95
4 246 257 238 481
4 297 413 409 491
4 259 238 247 487
4 486 491 289 492
4 420 140 139 314
4 129 310 313 312
4 261 397 396 96
4 412 411 410 492
4 331 74 324 247
4 310 144 321 143
4 332 329 76 257
4 289 491 297 492
4 414 147 326 328
4 437 488 436 494
4 265 83 367 233
4 140 307 418 141
4 375 179 447 490
4 130 9 334 274
4 297 491 409 492
4 371 81 361 276
4 440 437 436 494
4 223 249 473 470
4 247 75 324 257
4 388 376 266 91
4 444 177 368 449
4 184 448 443 384
4 247 258 239 487
4 132 124 418 125
4 123 420 131 124
4 130 319 237 308
4 247 331 74 258
4 447 176 368 444
4 183 384 443 450
4 413 118 28 491
4 261 235 397 96
4 145 416 333 330
4 448 384 379 494
4 242 337 79 262
4 411 120 409 492
4 294 297 409 492
4 243 263 262 489
4 118 132 28 491
4 294 289 297 492
4 241 264 89 377
4 78 343 243 262
4 266 268 388 91
4 409 491 408 492
4 309 136 304 137
4 218 60 97 478
4 202 52 163 463
4 82 367 232 265
4 339 426 150 342
4 394 391 427 186
4 147 414 412 328
4 129 32 416 333
4 138 305 137 311
4 342 338 425 151
4 390 428 187 394
4 263 236 262 489
4 294 292 299 492
4 131 132 314 491
4 178 446 179 374
4 415 292 290 119
4 297 118 413 491
4 322 143 142 313
4 272 374 375 490
4 111 110 115 281
4 160 161 353 156
4 441 362 365 175
4 413 408 409 491
4 381 442 182 378
4 268 273 388 92
4 366 447 368 490
4 28 297 118 413
4 177 363 368 449
4 184 379 448 384
4 256 230 63 224
4 248 315 317 117
4 289 294 299 492
4 342 426 150 424
4 423 394 427 186
4 379 385 378 494
4 424 421 425 493
4 342 425 424 151
4 428 423 187 394
4 421 423 428 493
4 362 441 438 175
4 264 387 88 377
4 442 437 182 378
4 439 363 362 174
4 379 181 440 378
4 132 131 408 491
4 158 159 357 155
4 164 165 171 357
4 437 435 438 488
4 438 436 437 488
4 400 399 389 489
4 304 133 117 134
4 322 127 130 126
4 210 54 463 157
4 226 62 478 107
4 259 239 68 295
4 261 262 236 489
4 208 55 214 235
4 117 4 317 248
4 438 439 362 174
4 423 424 422 493
4 181 437 440 378
4 125 28 30 417
4 32 31 419 123
4 375 374 179 490
4 374 373 273 86
4 375 272 87 374
4 446 444 447 490
4 311 132 118 491
4 109 108 114 285
4 247 239 259 487
4 384 385 379 494
4 293 238 296 66
4 81 361 276 232
4 248 315 237 71
4 296 238 256 66
4 320 34 316 419
4 165 170 355 166
4 100 99 283 104
4 85 372 267 272
4 398 263 395 93
4 272 231 374 490
4 246 332 76 257
4 405 291 114 122
4 148 406 327 115
4 85 372 272 366
4 388 273 382 92
4 134 305 135 118
4 321 128 129 127
4 416 145 410 330
4 480 27 327 115
4 26 114 479 291
4 37 194 426 430
4 36 402 425 190
4 196 42 441 434
4 48 189 428 403
4 49 431 427 193
4 46 433 195 442
4 341 402 149 104
4 105 393 403 185
4 387 240 264 88
4 448 445 443 494
4 4 117 298 248
4 374 178 446 490
4 374 446 179 490
4 372 267 272 490
4 311 118 309 491
4 84 372 360 233
4 467 105 25 393
4 320 31 32 128
4 30 28 135 303
4 276 199 51 200
4 466 341 24 104
4 35 406 192 414
4 292 415 411 119
4 198 197 436 494
4 50 199 240 200
4 307 314 132 491
4 110 109 115 283
4 159 160 355 156
4 375 447 366 490
4 214 270 56 208
4 409 408 410 492
4 372 272 366 490
4 69 239 248 298
4 176 366 447 368
4 384 183 382 450
4 387 452 50 172
4 372 84 267 233
4 465 210 39 154
4 274 73 334 258
4 440 197 448 494
4 315 308 237 71
4 311 309 312 491
4 132 307 311 318
4 268 231 267 490
4 392 431 188 155
4 430 156 340 152
4 298 69 239 295
4 434 364 170 173
4 380 180 433 171
4 465 392 39 155
4 464 156 38 340
4 374 273 231 86
4 374 272 87 231
4 327 332 116 480
4 296 479 291 113
4 237 319 9 72
4 254 252 471 469
4 409 410 411 492
4 220 105 474 219
4 171 204 203 460
4 198 445 197 494
4 248 70 4 317
4 393 467 398 106
4 221 103 24 466
4 327 116 27 480
4 291 479 26 113
4 153 345 56 464
4 448 379 440 494
4 273 373 382 92
4 375 85 272 366
4 103 346 341 466
4 35 406 414 326
4 244 251 455 207
4 375 366 272 490
4 431 391 49 427
4 430 426 37 339
4 118 297 289 491
4 467 58 398 106
4 405 290 291 122
4 148 406 326 327
4 149 338 402 341
4 390 403 393 185
4 307 132 311 491
4 451 40 170 364
4 41 380 452 171
4 403 428 48 390
4 402 338 36 425
4 439 449 43 198
4 440 197 47 448
4 341 24 103 466
4 303 33 417 318
4 315 70 248 317
4 229 27 116 480
4 226 26 479 113
4 51 81 371 276
4 47 440 448 379
4 43 363 449 439
4 14 56 345 270
4 464 153 345 340
4 424 423 421 493
4 409 413 297 121
4 339 430 340 152
4 431 188 391 392
4 171 204 460 170
4 220 105 104 474
4 398 234 263 93
4 240 50 20 387
4 452 41 202 172
4 17 51 81 371
4 307 312 314 491
4 380 452 387 172
4 392 465 154 397
4 468 245 254 216
4 442 46 433 381
4 42 365 441 434
4 366 368 372 490
4 20 50 240 244
4 14 56 270 253
4 331 334 73 258
4 465 39 392 154
4 77 343 346 243
4 397 55 23 96
4 291 26 114 122
4 327 27 148 115
4 371 169 51 451
4 216 215 58 234
4 451 371 169 364
4 434 365 364 173
4 180 433 381 380
4 393 105 25 185
4 149 24 341 104
4 329 75 76 257
4 4 301 317 306
4 216 260 243 234
4 9 323 319 302
4 25 467 393 106
4 450 178 45 373
4 44 375 179 447
4 96 396 261 95
4 249 245 473 470
4 72 237 319 308
4 154 465 55 397
4 249 473 3 223
4 44 375 447 366
4 450 45 382 373
4 345 80 14 270
4 332 116 480 64
4 63 479 296 113
4 471 225 252 254
4 397 235 55 96
4 128 129 144 321
4 89 264 88 377
4 346 103 59 466
4 156 38 340 152
4 188 39 392 155
4 316 131 314 310
4 364 40 170 173
4 380 41 180 171
4 376 90 266 91
4 409 297 294 121
4 464 38 153 340
4 464 153 38 213
4 235 55 23 244
4 243 346 77 260
4 361 81 82 232
4 457 240 255 200
4 51 17 276 255
4 246 64 230 224
4 245 260 254 216
4 454 244 455 207
4 18 85 375 366
4 19 382 373 92
4 255 240 457 244
4 18 85 272 375
4 273 19 373 92
4 389 94 236 95
4 387 20 240 88
4 51 17 81 276
4 78 79 337 262
4 452 380 41 172
4 467 25 218 106
4 246 10 332 64
4 89 90 241 383
4 312 307 311 491
4 367 82 83 265
4 132 408 413 491
4 235 23 55 96
4 455 251 244 201
4 59 13 260 469
4 473 3 63 275
4 269 51 206 458
4 45 19 382 373
4 375 44 18 366
4 160 156 460 355
4 474 110 115 283
4 177 368 176 444
4 443 184 384 183
4 56 14 269 253
4 256 3 63 296
4 216 245 260 234
4 83 84 360 233
4 246 254 10 64
4 410 145 146 330
4 69 248 4 298
4 254 260 13 469
4 84 85 372 267
4 248 70 315 71
4 238 293 67 66
4 13 252 254 469
4 474 104 100 283
4 166 460 170 355
4 253 255 453 244
4 457 453 255 244
4 94 395 263 93
4 28 297 413 121
4 225 332 10 64
4 127 322 130 313
4 117 309 304 134
4 349 14 15 250
4 206 456 250 269
4 3 473 245 275
4 441 365 42 175
4 442 182 46 381
4 179 446 447 490
4 454 55 208 244
4 414 147 35 326
4 305 138 135 311
4 32 145 416 333
4 73 334 9 274
4 425 338 36 151
4 428 187 48 390
4 359 16 17 250
4 331 73 74 258
4 317 6 4 306
4 234 58 0 398
4 127 143 322 313
4 137 304 309 134
4 323 7 9 319
4 79 80 344 242
4 235 208 55 244
4 207 55 23 397
4 119 411 292 120
4 256 63 3 275
4 332 76 10 246
4 53 205 206 169
4 202 52 201 172
4 426 150 37 339
4 427 391 49 186
4 74 75 324 247
4 296 256 3 66
4 451 170 40 205
4 132 131 140 124
4 206 17 51 269
4 294 409 121 120
4 69 68 239 295
4 424 150 342 151
4 67 288 259 68
4 394 423 187 186
4 144 129 310 321
4 251 21 20 358
4 251 244 23 207
4 231 87 374 86
4 415 290 29 119
4 343 77 78 243
4 398 0 234 93
4 201 20 50 387
4 314 131 140 132
4 175 438 362 174
4 437 181 182 378
4 1 0 249 277
4 473 63 3 223
4 465 39 210 155
4 102 280 476 221
4 462 205 168 352
4 398 58 0 217
4 218 97 284 478
4 163 356 202 463
4 112 476 280 229
4 162 213 462 352
4 207 54 210 154
4 107 226 284 478
4 210 356 157 463
4 412 146 147 328
4 209 56 14 269
4 223 63 3 296
4 448 197 445 494
4 61 221 222 103
4 245 473 3 249
4 56 14 345 209
4 466 24 221 104
4 13 59 222 469
4 253 208 235 244
4 439 43 363 174
4 440 47 181 379
4 43 363 177 449
4 448 47 379 184
4 479 114 26 226
4 480 229 27 115
4 225 229 65 116
4 223 62 226 113
4 457 240 50 244
4 188 391 49 431
4 37 430 339 152
4 253 453 208 244
4 118 135 28 318
4 267 231 272 490
4 406 35 148 326
4 29 290 405 122
4 17 51 371 206
4 171 204 199 203
4 105 220 215 219
4 208 453 457 244
4 320 316 32 419
4 209 213 57 153
4 440 436 197 494
4 252 225 10 254
4 55 207 154 397
4 458 269 51 255
4 50 201 387 172
4 371 51 169 206
4 116 332 225 64
4 296 223 63 113
4 218 60 217 106
4 316 129 144 128
4 36 149 338 402
4 390 48 403 185
4 244 20 50 201
4 275 245 254 468
4 91 268 388 92
4 118 305 135 311
4 206 205 451 169
4 454 208 457 244
4 59 13 222 346
4 20 244 251 201
4 276 255 240 200
4 222 103 59 346
4 456 209 250 269
4 204 171 199 170
4 220 105 215 104
4 286 10 11 252
4 41 163 202 172
4 40 169 205 168
4 163 356 41 202
4 17 51 269 255
4 129 316 32 128
4 301 317 306 136
4 168 205 40 352
4 201 452 202 172
4 319 323 142 302
4 153 56 345 209
4 52 21 251 358
4 54 52 463 354
4 212 214 156 464
4 219 215 105 467
4 199 452 171 203
4 207 210 465 154
4 62 60 478 282
4 279 476 65 61
4 57 53 351 462
4 38 213 162 352
4 469 260 59 216
4 53 16 359 250
4 349 15 57 250
4 307 314 140 132
4 217 398 58 106
4 132 125 141 318
4 46 180 433 381
4 42 365 434 173
4 39 356 157 210
4 12 278 61 252
4 222 221 466 103
4 131 420 139 314
4 456 53 206 250
4 308 72 237 71
4 319 7 9 72
4 138 135 311 318
4 245 249 217 470
4 245 58 0 234
4 254 471 225 469
4 269 209 56 453
4 135 118 311 318
4 468 254 472 216
4 469 472 254 216
4 24 280 102 221
4 172 201 20 358
4 303 417 28 318
4 116 225 229 480
4 223 226 479 113
4 70 6 4 317
4 140 307 132 418
4 220 466 104 215
4 199 204 170 451
4 228 115 480 230
4 211 214 465 155
4 230 227 114 479
4 97 25 218 284
4 171 202 452 41
4 463 157 54 354
4 130 319 308 313
4 463 52 163 354
4 107 226 26 284
4 157 39 210 154
4 213 153 38 162
4 65 476 279 112
4 462 351 57 162
4 478 107 62 282
4 478 60 97 282
4 23 207 154 350
4 112 280 27 229
4 140 420 131 314
4 279 476 61 102
4 462 53 351 168
4 387 201 20 172
4 225 10 254 64
4 278 12 13 252
4 464 209 153 213
4 456 209 269 458
4 316 123 139 131
4 64 254 472 224
4 213 156 38 464
4 272 87 18 375
4 273 373 19 86
4 64 246 254 224
4 321 129 310 143
4 254 472 275 468
4 217 467 218 106
4 10 116 332 225
4 169 359 17 206
4 97 218 25 106
4 102 103 24 221
4 254 260 469 216
4 154 207 23 397
4 255 453 269 253
4 317 315 309 117
4 60 1 249 277
4 255 458 453 200
4 420 139 123 131
4 125 418 132 141
4 307 132 418 141
4 125 132 28 318
4 129 310 316 144
4 202 52 172 163
4 209 269 458 453
4 473 275 224 468
4 208 270 253 235
4 105 218 467 25
4 209 57 456 250
4 140 132 124 418
4 131 420 140 124
4 116 10 286 225
4 107 26 226 113
4 112 27 116 229
4 58 245 216 234
4 371 169 17 206
4 455 244 454 201
4 163 157 463 354
4 275 254 246 224
4 474 100 110 283
4 166 160 460 355
4 453 56 269 253
4 227 226 114 479
4 211 210 155 465
4 229 228 115 480
4 205 204 451 170
4 221 220 466 104
4 97 107 478 282
4 112 476 279 102
4 162 462 351 168
4 217 0 106 277
4 117 309 134 118
4 457 50 240 200
4 217 0 398 106
4 130 129 127 313
4 210 54 157 154
4 213 156 464 212
4 219 218 467 105
4 203 202 452 171
4 153 345 14 209
4 123 316 32 131
4 218 60 106 97
4 153 14 349 209
4 223 3 287 113
4 307 132 141 318
4 3 223 296 113
4 470 223 249 62
4 366 447 44 176
4 382 183 45 450
4 255 51 458 200
4 60 62 249 282
4 226 62 107 113
4 63 473 275 224
4 250 17 206 269
4 131 139 316 314
4 224 275 472 468
4 143 127 129 313
4 251 52 54 354
4 309 137 134 118
4 222 471 61 252
4 2 249 62 282
4 275 246 256 224
4 103 278 13 222
4 0 245 249 217
4 222 13 103 346
4 457 255 453 200
4 417 141 28 318
4 462 213 205 352
4 476 280 229 221
4 249 1 60 282
4 284 226 218 478
4 210 202 356 463
4 21 52 251 354
4 250 209 14 269
4 117 309 136 304
4 269 458 453 255
4 455 251 54 207
4 142 130 322 313
4 303 28 138 318
4 255 276 51 200
4 143 129 310 313
4 419 316 32 139
4 28 125 141 417
4 123 419 32 139
4 351 57 15 250
4 133 301 306 136
4 323 126 142 302
4 28 138 135 303
4 16 53 351 250
4 65 286 11 252
4 53 57 351 250
4 249 2 1 282
4 58 245 468 216
4 159 165 460 355
4 474 283 109 99
4 320 32 316 144
4 118 137 305 311
4 144 320 32 128
4 251 22 21 354
4 253 56 270 208
4 52 172 163 358
4 217 473 245 470
4 301 4 5 306
4 323 9 8 302
4 30 33 417 303
4 142 130 319 302
4 301 317 136 117
4 320 31 34 419
4 309 137 118 311
4 275 256 63 224
4 351 15 16 250
4 108 98 477 285
4 461 167 161 353
4 111 101 281 475
4 201 50 452 172
4 245 0 58 217
4 52 251 455 201
4 164 158 357 459
4 320 32 31 419
4 417 28 30 303
4 228 110 115 474
4 212 156 460 160
4 60 106 97 277
4 40 461 213 205
4 112 280 476 102
4 168 162 462 352
4 203 459 357 211
4 244 50 457 201
4 219 227 477 285
4 228 475 281 220
4 212 204 461 353
4 154 54 157 350
4 206 51 169 451
4 356 163 157 463
4 284 97 107 478
4 468 245 58 217
4 220 104 100 474
4 170 204 460 166
4 457 454 244 201
4 205 213 40 352
4 202 39 459 210
4 130 142 126 302
4 136 133 301 117
4 62 287 107 113
4 61 279 12 252
4 227 474 114 109
4 473 245 468 217
4 65 471 225 252
4 472 254 275 224
4 61 65 279 252
4 207 465 55 154
4 11 279 65 252
4 24 229 221 475
4 209 153 56 464
4 144 32 316 128
4 356 39 202 210
4 222 59 103 466
4 38 40 461 213
4 39 202 459 41
4 472 225 254 64
4 58 467 217 106
4 218 26 477 226
4 136 317 309 117
4 165 460 171 203
4 474 219 105 99
4 135 138 28 318
4 472 254 225 469
4 123 32 316 139
4 141 125 28 318
4 130 142 319 313
4 8 7 9 323
4 480 116 225 64
4 479 63 223 113
4 4 6 5 306
4 160 460 204 166
4 220 100 110 474
4 229 280 24 221
4 251 23 54 207
4 279 11 12 252
4 249 217 470 60
4 356 39 41 202
4 38 40 213 352
4 226 218 26 284
4 206 456 269 458
4 223 3 249 62
4 164 41 158 459
4 40 461 167 161
4 110 228 220 474
4 204 212 460 160
4 212 156 160 353
4 115 281 110 228
4 41 39 158 459
4 461 40 38 161
4 305 134 137 118
4 129 321 127 143
4 100 110 281 220
4 204 160 166 353
4 25 26 477 218
4 229 24 27 475
4 473 245 275 468
4 322 130 142 126
4 117 136 133 304
4 158 356 41 164
4 114 227 109 285
4 161 167 40 352
4 203 165 460 211
4 474 227 219 109
4 207 23 54 350
4 218 25 26 284
4 41 39 356 158
4 24 27 280 229
4 228 281 110 220
4 204 212 160 353
4 357 159 211 155
4 171 357 165 203
4 161 40 38 352
4 98 477 26 108
4 27 101 111 475
4 159 460 165 211
4 109 219 474 99
4 26 25 477 98
4 101 27 24 475
4 203 357 165 211
4 227 219 109 285
4 108 26 98 284
4 27 101 280 111
4 287 3 223 62
4 159 165 357 211
4 99 109 219 285
4 26 25 98 284
4 101 27 280 24
4 253 453 56 208
4 154 207 54 350
4 62 223 287 113
4 456 57 53 250
4 53 359 169 206
4 172 52 201 358
4 278 103 61 222
4 54 52 251 455
4 65 116 286 225
4 249 470 62 60
4 153 349 57 209
4 106 60 217 277
4 65 61 471 252
4 484 55 465 397
4 484 465 55 214
4 481 328 326 336
4 168 16 53 351
4 168 53 16 359
4 102 12 61 279
4 102 61 12 278
4 492 325 333 330
4 492 333 325 486
4 328 414 481 326
4 328 481 414 412
4 367 233 482 265
4 482 233 367 360
4 163 21 52 358
4 163 52 21 354
4 1 97 60 282
4 1 60 97 277
4 162 15 57 349
4 162 57 15 351
4 112 11 65 286
4 112 65 11 279
4 257 487 324 247
4 324 487 257 481
4 485 240 276 264
4 485 276 240 199
4 270 344 80 242
4 270 80 344 345
4 221 102 61 476
4 205 168 53 462
4 489 243 343 262
4 489 343 243 483
4 486 130 237 308
4 248 117 486 315
4 486 117 248 298
4 229 65 112 476
4 213 57 162 462
4 130 274 486 237
4 486 274 130 334
4 492 120 292 411
4 492 292 120 294
4 288 238 67 259
4 288 67 238 293
4 416 330 492 333
4 492 330 416 410
4 373 450 273 382
4 373 273 450 178
4 490 273 450 382
4 490 450 273 178
4 346 260 216 59
4 216 260 346 243
4 216 215 346 59
4 346 215 216 243
4 169 53 168 359
4 169 168 53 205
4 153 57 162 213
4 153 162 57 349
4 103 61 102 278
4 103 102 61 221
4 415 405 29 290
4 29 405 415 191
4 116 65 112 229
4 116 112 65 286
4 388 273 490 382
4 388 490 273 268
4 104 99 474 105
4 104 474 99 283
4 170 165 460 171
4 170 460 165 355
4 221 24 220 104
4 221 220 24 475
4 205 40 204 170
4 205 204 40 461
4 218 219 25 105
4 218 25 219 477
4 210 211 39 459
4 210 39 211 155
4 109 115 474 114
4 109 474 115 283
4 156 159 460 355
4 260 346 13 59
4 260 13 346 77
4 202 203 41 171
4 202 41 203 459
4 229 27 228 475
4 229 228 27 115
4 213 38 212 461
4 213 212 38 156
4 226 227 26 477
4 226 26 227 114
4 460 211 156 212
4 214 156 211 212
4 214 211 156 155
4 228 474 114 227
4 114 474 228 115
4 114 230 228 227
4 228 230 114 115
4 169 40 451 364
4 169 451 40 205
4 316 129 131 310
4 131 129 316 32
4 167 170 204 40
4 204 461 167 40
4 167 461 204 353
4 171 164 203 41
4 171 203 164 357
4 459 203 164 41
4 459 164 203 357
4 155 158 211 357
4 155 211 158 39
4 459 211 158 357
4 459 158 211 39
4 156 161 212 38
4 156 212 161 353
4 461 212 161 38
4 461 161 212 353
4 105 98 219 25
4 477 219 98 25
4 477 98 219 285
4 104 220 101 24
4 475 220 101 281
4 475 101 220 24
4 207 244 55 454
4 207 55 244 23
4 252 222 469 13
4 252 469 222 471
4 108 114 227 26
4 227 114 108 285
4 227 477 108 26
4 108 477 227 285
4 115 111 228 27
4 115 228 111 281
4 475 228 111 27
4 475 111 228 281
4 118 318 132 311
4 132 318 118 28
4 250 349 209 57
4 250 209 349 14
4 250 359 206 17
4 250 206 359 53
4 358 251 201 20
4 358 201 251 52
4 278 252 222 61
4 222 252 278 13
4 62 2 3 249
4 62 3 2 287
4 249 277 217 60
4 217 277 249 0
4 286 252 225 10
4 225 252 286 65
4 2 107 62 287
4 2 62 107 282
4 157 22 54 354
4 157 54 22 350
4 251 54 22 354
4 100 101 220 281
4 100 220 101 104
4 167 166 204 170
4 167 204 166 353
4 98 99 219 285
4 98 219 99 105
4 211 156 159 460
4 211 159 156 155
4 54 22 23 251
4 54 23 22 350

CELL_TYPES 2740
1
1
1
1
1
1
1
1
1
1
1
1
1
1
1
1
1
1
1
1
1
1
1
1
1
1
1
1
1
1
1
1
1
1
1
1
1
1
1
1
1
1
1
1
1
1
1
1
1
1
1
1
1
1
1
1
1
1
1
1
1
1
1
1
1
1
3
3
3
3
3
3
3
3
3
3
3
3
3
3
3
3
3
3
3
3
3
3
3
3
3
3
3
3
3
3
3
3
3
3
3
3
3
3
3
3
3
3
3
3
3
3
3
3
3
3
3
3
3
3
3
3
3
3
3
3
3
3
3
3
3
3
3
3
3
3
3
3
3
3
3
3
3
3
3
3
3
3
3
3
3
3
3
3
3
3
3
3
3
3
3
3
3
3
3
3
3
3
3
3
3
3
3
3
3
3
3
3
3
3
3
3
3
3
3
3
3
3
3
3
3
3
3
3
3
3
3
3
3
3
3
3
3
3
3
3
3
3
3
3
3
3
3
3
3
3
3
3
3
3
3
3
3
3
3
3
3
3
3
3
3
3
3
3
3
3
3
3
3
3
3
3
3
3
3
3
3
3
3
3
3
3
3
3
3
3
3
3
3
3
3
3
3
3
3
3
3
3
3
3
3
3
3
3
3
3
3
3
3
3
3
3
3
3
3
3
3
3
3
3
3
3
3
3
3
3
3
3
3
3
3
3
3
3
3
3
3
3
3
3
3
3
3
3
3
3
3
3
3
3
3
3
3
3
3
3
3
3
3
3
5
5
5
5
5
5
5
5
5
5
5
5
5
5
5
5
5
5
5
5
5
5
5
5
5
5
5
5
5
5
5
5
5
5
5
5
5
5
5
5
5
5
5
5
5
5
5
5
5
5
5
5
5
5
5
5
5
5
5
5
5
5
5
5
5
5
5
5
5
5
5
5
5
5
5
5
5
5
5
5
5
5
5
5
5
5
5
5
5
5
5
5
5
5
5
5
5
5
5
5
5
5
5
5
5
5
5
5
5
5
5
5
5
5
5
5
5
5
5
5
5
5
5
5
5
5
5
5
5
5
5
5
5
5
5
5
5
5
5
5
5
5
5
5
5
5
5
5
5
5
5
5
5
5
5
5
5
5
5
5
5
5
5
5
5
5
5
5
5
5
5
5
5
5
5
5
5
5
5
5
5
5
5
5
5
5
5
5
5
5
5
5
5
5
5
5
5
5
5
5
5
5
5
5
5
5
5
5
5
5
5
5
5
5
5
5
5
5
5
5
5
5
5
5
5
5
5
5
5
5
5
5
5
5
5
5
5
5
5
5
5
5
5
5
5
5
5
5
5
5
5
5
5
5
5
5
5
5
5
5
5
5
5
5
5
5
5
5
5
5
5
5
5
5
5
5
5
5
5
5
5
5
5
5
5
5
5
5
5
5
5
5
5
5
5
5
5
5
5
5
5
5
5
5
5
5
5
5
5
5
5
5
5
5
5
5
5
5
5
5
5
5
5
5
5
5
5
5
5
5
5
5
5
5
5
5
5
5
5
5
5
5
5
5
5
5
5
5
5
5
5
5
5
5
5
5
5
5
5
5
5
5
5
5
5
5
5
5
5
5
5
5
5
5
5
5
5
5
5
5
5
5
5
5
5
5
5
5
5
5
5
5
5
5
5
5
5
5
5
5
5
5
5
5
5
5
5
5
5
5
5
5
5
5
5
5
5
5
5
5
5
5
5
5
5
5
5
5
5
5
5
5
5
5
5
5
5
5
5
5
5
5
5
5
5
5
5
5
5
5
5
5
5
5
5
5
5
5
5
5
5
5
5
5
5
5
5
5
5
5
5
5
5
5
5
5
5
5
5
5
5
5
5
5
5
5
5
5
5
5
5
5
5
5
5
5
5
5
5
5
5
5
5
5
5
5
5
5
5
5
5
5
5
5
5
5
5
5
5
5
5
5
5
5
5
5
5
5
5
5
5
5
5
5
5
5
5
5
5
5
5
5
5
5
5
5
5
5
5
5
5
5
5
5
5
5
5
5
5
5
5
5
5
5
5
5
5
5
5
5
5
5
5
5
5
5
5
5
5
5
5
5
5
5
5
5
5
5
5
5
5
5
5
5
5
5
5
5
5
5
5
5
5
5
5
5
5
5
5
5
5
5
5
5
5
5
5
5
5
5
5
5
5
5
5
5
5
5
5
5
5
5
5
5
5
5
5
5
5
5
5
5
5
5
5
5
5
5
5
5
5
5
5
5
5
5
5
5
5
5
5
5
5
5
5
5
5
5
5
5
5
5
5
5
5
5
5
5
5
5
5
5
5
5
5
5
5
5
5
5
5
5
5
5
5
5
5
5
5
5
5
5
5
5
5
5
5
5
5
5
5
5
5
5
5
5
5
5
5
5
5
5
5
5
5
5
5
5
5
5
5
5
5
5
5
5
5
5
5
5
5
5
5
5
5
5
5
5
5
5
5
5
5
5
5
5
5
5
5
5
5
5
5
5
5
5
5
5
5
5
5
5
5
5
5
5
5
5
5
5
5
5
5
5
5
5
5
5
5
5
5
5
5
5
5
5
5
5
5
5
5
5
5
5
5
5
5
5
5
5
5
5
5
5
5
5
5
5
5
5
5
5
5
5
5
5
5
5
5
5
5
5
5
5
5
5
5
5
5
5
5
5
5
5
5
5
5
5
5
5
5
5
5
5
5
5
5
5
5
5
5
5
5
5
5
5
5
5
5
5
5
5
5
5
5
5
5
5
5
5
5
5
5
5
5
5
5
5
5
5
5
5
5
5
5
5
5
5
5
5
5
5
5
5
5
5
5
5
5
5
5
5
5
5
5
5
5
5
5
5
5
5
5
5
5
5
5
5
5
5
5
5
5
5
5
5
5
5
5
5
5
5
5
5
5
5
5
5
5
5
10
10
10
10
10
10
10
10
10
10
10
10
10
10
10
10
10
10
10
10
10
10
10
10
10
10
10
10
10
10
10
10
10
10
10
10
10
10
10
10
10
10
10
10
10
10
10
10
10
10
10
10
10
10
10
10
10
10
10
10
10
10
10
10
10
10
10
10
10
10
10
10
10
10
10
10
10
10
10
10
10
10
10
10
10
10
10
10
10
10
10
10
10
10
10
10
10
10
10
10
10
10
10
10
10
10
10
10
10
10
10
10
10
10
10
10
10
10
10
10
10
10
10
10
10
10
10
10
10
10
10
10
10
10
10
10
10
10
10
10
10
10
10
10
10
10
10
10
10
10
10
10
10
10
10
10
10
10
10
10
10
10
10
10
10
10
10
10
10
10
10
10
10
10
10
10
10
10
10
10
10
10
10
10
10
10
10
10
10
10
10
10
10
10
10
10
10
10
10
10
10
10
10
10
10
10
10
10
10
10
10
10
10
10
10
10
10
10
10
10
10
10
10
10
10
10
10
10
10
10
10
10
10
10
10
10
10
10
10
10
10
10
10
10
10
10
10
10
10
10
10
10
10
10
10
10
10
10
10
10
10
10
10
10
10
10
10
10
10
10
10
10
10
10
10
10
10
10
10
10
10
10
10
10
10
10
10
10
10
10
10
10
10
10
10
10
10
10
10
10
10
10
10
10
10
10
10
10
10
10
10
10
10
10
10
10
10
10
10
10
10
10
10
10
10
10
10
10
10
10
10
10
10
10
10
10
10
10
10
10
10
10
10
10
10
10
10
10
10
10
10
10
10
10
10
10
10
10
10
10
10
10
10
10
10
10
10
10
10
10
10
10
10
10
10
10
10
10
10
10
10
10
10
10
10
10
10
10
10
10
10
10
10
10
10
10
10
10
10
10
10
10
10
10
10
10
10
10
10
10
10
10
10
10
10
10
10
10
10
10
10
10
10
10
10
10
10
10
10
10
10
10
10
10
10
10
10
10
10
10
10
10
10
10
10
10
10
10
10
10
10
10
10
10
10
10
10
10
10
10
10
10
10
10
10
10
10
10
10
10
10
10
10
10
10
10
10
10
10
10
10
10
10
10
10
10
10
10
10
10
10
10
10
10
10
10
10
10
10
10
10
10
10
10
10
10
10
10
10
10
10
10
10
10
10
10
10
10
10
10
10
10
10
10
10
10
10
10
10
10
10
10
10
10
10
10
10
10
10
10
10
10
10
10
10
10
10
10
10
10
10
10
10
10
10
10
10
10
10
10
10
10
10
10
10
10
10
10
10
10
10
10
10
10
10
10
10
10
10
10
10
10
10
10
10
10
10
10
10
10
10
10
10
10
10
10
10
10
10
10
10
10
10
10
10
10
10
10
10
10
10
10
10
10
10
10
10
10
10
10
10
10
10
10
10
10
10
10
10
10
10
10
10
10
10
10
10
10
10
10
10
10
10
10
10
10
10
10
10
10
10
10
10
10
10
10
10
10
10
10
10
10
10
10
10
10
10
10
10
10
10
10
10
10
10
10
10
10
10
10
10
10
10
10
10
10
10
10
10
10
10
10
10
10
10
10
10
10
10
10
10
10
10
10
10
10
10
10
10
10
10
10
10
10
10
10
10
10
10
10
10
10
10
10
10
10
10
10
10
10
10
10
10
10
10
10
10
10
10
10
10
10
10
10
10
10
10
10
10
10
10
10
10
10
10
10
10
10
10
10
10
10
10
10
10
10
10
10
10
10
10
10
10
10
10
10
10
10
10
10
10
10
10
10
10
10
10
10
10
10
10
10
10
10
10
10
10
10
10
10
10
10
10
10
10
10
10
10
10
10
10
10
10
10
10
10
10
10
10
10
10
10
10
10
10
10
10
10
10
10
10
10
10
10
10
10
10
10
10
10
10
10
10
10
10
10
10
10
10
10
10
10
10
10
10
10
10
10
10
10
10
10
10
10
10
10
10
10
10
10
10
10
10
10
10
10
10
10
10
10
10
10
10
10
10
10
10
10
10
10
10
10
10
10
10
10
10
10
10
10
10
10
10
10
10
10
10
10
10
10
10
10
10
10
10
10
10
10
10
10
10
10
10
10
10
10
10
10
10
10
10
10
10
10
10
10
10
10
10
10
10
10
10
10
10
10
10
10
10
10
10
10
10
10
10
10
10
10
10
10
10
10
10
10
10
10
10
10
10
10
10
10
10
10
10
10
10
10
10
10
10
10
10
10
10
10
10
10
10
10
10
10
10
10
10
10
10
10
10
10
10
10
10
10
10
10
10
10
10
10
10
10
10
10
10
10
10
10
10
10
10
10
10
10
10
10
10
10
10
10
10
10
10
10
10
10
10
10
10
10
10
10
10
10
10
10
10
10
10
10
10
10
10
10
10
10
10
10
10
10
10
10
10
10
10
10
10
10
10
10
10
10
10
10
10
10
10
10
10
10
10
10
10
10
10
10
10
10
10
10
10
10
10
10
10
10
10
10
10
10
10
10
10
10
10
10
10
10
10
10
10
10
10
10
10
10
10
10
10
10
10
10
10
10
10
10
10
10
10
10
10
10
10
10
10
10
10
10
10
10
10
10
10
10
10
10
10
10
10
10
10
10
10
10
10
10
10
10
10
10
10
10
10
10
10
10
10
10
10
10
10
10
10
10
10
10
10
10
10
10
10
10
10
10
10
10
10
10
10
10
10
10
10
10
10
10
10
10
10
10
10
10
10
10
10
10
10
10
10
10
10
10
10
10
10
10
10
10
10
10
10
10
10
10
10
10
10
10
10
10
10
10
10
10
10
10
10
10
10
10
10
10
10
10
10
10
10
10
10
10
10
10
10
10
10
10
10
10
10
10
10
10
10
10
10
10
10
10
10
10
10
10
10
10
10
10
10
10
10
10
10
10
10
10
10
10
10
10
10
10
10
10
10
10
10
10
10
10
10
10
10
10
10
10
10
10
10
10
10
10
10
10
10
10
10
10
10
10
10
10
10
10
10
10
10
10
10
10
10
10
10
10
10
10
10
10
10
10
10
10
10
10
10
10
10
10
10
10
10
10
10
10
10
10
10
10
10
10
10
10
10
10
10
10
10
10
10
10
10
10
10
10
10
10
10
10
10
10
10
10
10
10
10
10
10
10
10
10
10
10
10
10
10
10
10
10
10
10
10
10
10
10
10
10
10
10
10
10
10
10
10
10
10
10
10
10
10
10
10
10
10
10
10
10
10
10
10
10
10
10
10
10
10
10
10
10
10
10
10
10
10
10
10
10
10
10
10
10
10
10
10
10
10
10
10
10
10
10
10
10
