# vtk DataFile Version 2.0
, Created by Gmsh 4.11.1 
ASCII
DATASET UNSTRUCTURED_GRID
POINTS 519 double
8.75 0 -44.86244538770748
14.16297151081189 0 -41.64817328316104
14.16297151081189 0 -38.35182671683896
8.75 0 -35.13755461229252
8.75 0 -3
11.75 0 -3
11.75 0 0
-11.75 0 0
-11.75 0 -3
-8.75 0 -3
-8.75 1.071565949253934e-15 -35.13755461229252
-14.16297151081189 1.734463772713093e-15 -38.35182671683896
-14.16297151081189 1.734463772713093e-15 -41.64817328316104
-8.75 1.071565949253934e-15 -44.86244538770748
-8.75 1.071565949253934e-15 -75.13755461229252
-14.16297151081189 1.734463772713093e-15 -78.35182671683896
-14.16297151081189 1.734463772713093e-15 -81.64817328316104
-8.75 1.071565949253934e-15 -84.86244538770748
-8.75 0 -120
8.75 0 -120
8.75 0 -84.86244538770748
14.16297151081189 0 -81.64817328316104
14.16297151081189 0 -78.35182671683896
8.75 0 -75.13755461229252
-8.75 10.26898802296598 -42.04703032241318
8.75 10.26898802296599 -42.04703032241319
8.75 10.26898802296598 -37.95296967758682
-8.75 10.26898802296598 -37.95296967758682
8.75 20 -3
8.75 20 -30.76800597496631
11.75 23 -3
-11.75 23 -3
-8.75 20 -3
11.75 23 0
-11.75 23 0
-8.75 20 -30.76800597496631
-8.75 20 -49.23199402503369
-8.75 20 -70.76800597496631
-8.75 10.26898802296598 -77.95296967758682
8.75 10.26898802296598 -77.95296967758682
-8.75 10.26898802296595 -82.04703032241316
8.75 10.26898802296597 -82.04703032241318
-8.75 20 -89.2319940250337
-8.75 20 -110.7680059749663
-8.75 7.49657644105509 -120
8.75 7.49657644105509 -120
8.75 20 -89.2319940250337
8.75 20 -110.7680059749663
8.75 20 -49.23199402503369
8.75 20 -70.76800597496631
5.989482993989486 3.019297939780737 -84.86244538770748
-5.989482993989486 3.019297939780737 -84.86244538770748
11.73834676464845 3.019297939780737 -81.64817328316104
-11.73834676464845 3.019297939780739 -81.64817328316104
11.73834676464845 3.019297939780737 -78.35182671683896
5.989482993989486 3.019297939780737 -75.13755461229252
-5.989482993989486 3.019297939780737 -75.13755461229252
-11.73834676464845 3.019297939780739 -78.35182671683896
5.989482993989486 3.019297939780737 -44.86244538770748
-5.989482993989486 3.019297939780737 -44.86244538770748
11.73834676464845 3.019297939780737 -41.64817328316104
-11.73834676464845 3.019297939780739 -41.64817328316104
11.73834676464845 3.019297939780737 -38.35182671683896
5.989482993989486 3.019297939780737 -35.13755461229252
-5.989482993989486 3.019297939780737 -35.13755461229252
-11.73834676464845 3.019297939780739 -38.35182671683896
8.75 0 -28.71004368983401
8.75 0 -22.28253276737551
8.75 0 -15.85502184491701
8.75 0 -9.427510922458506
5.875000000000016 0 0
3.730349362740526e-14 0 0
-5.874999999999972 0 0
-8.75 0 -9.427510922458499
-8.75 0 -15.855021844917
-8.75 0 -22.2825327673755
-8.75 0 -28.710043689834
-8.75 0 -50.91746723262448
-8.75 0 -56.97248907754148
-8.75 0 -63.02751092245849
-8.75 0 -69.0825327673755
-8.75 0 -90.71870448975625
-8.75 0 -96.57496359180502
-8.75 0 -102.4312226938538
-8.75 0 -108.2874817959025
-8.75 0 -114.1437408979513
2.916666666666666 0 -120
-2.916666666666668 0 -120
8.75 0 -90.71870448975625
8.75 0 -96.57496359180502
8.75 0 -102.4312226938538
8.75 0 -108.2874817959025
8.75 0 -114.1437408979513
8.75 0 -50.91746723262448
8.75 0 -56.97248907754148
8.75 0 -63.02751092245849
8.75 0 -69.0825327673755
12.7603964082304 6.145083036126507 -41.64817328316104
8.830468301006997 11.07305701245052 -41.64817328316104
3.151557648182538 13.80787624532648 -41.64817328316104
-3.151557648182533 13.80787624532648 -41.64817328316104
-8.830468301006986 11.07305701245054 -41.64817328316104
-12.7603964082304 6.145083036126515 -41.64817328316104
-8.75 5.273042773323658 -43.99189719847533
-2.985421119317585 11.53591113772963 -42.98247224922111
2.98542111931759 11.53591113772963 -42.98247224922111
8.75 5.273042773323655 -43.99189719847533
12.7603964082304 6.145083036126507 -38.35182671683896
8.830468301006997 11.07305701245052 -38.35182671683896
3.151557648182538 13.80787624532648 -38.35182671683896
-3.151557648182533 13.80787624532648 -38.35182671683896
-8.830468301006986 11.07305701245054 -38.35182671683896
-12.7603964082304 6.145083036126515 -38.35182671683896
8.75 5.273042773323652 -36.00810280152467
2.985421119317595 11.53591113772966 -37.01752775077887
-2.985421119317585 11.53591113772966 -37.01752775077887
-8.75 5.273042773323652 -36.00810280152467
8.75 6.666666666666651 -3
8.75 13.33333333333329 -3
8.75 20 -23.82600448122474
8.75 20 -16.88400298748318
8.75 20 -9.942001493741593
8.75 15.13449401148299 -34.36048782627657
-5.875000000000016 23 -3
-3.730349362740526e-14 23 -3
5.874999999999972 23 -3
-11.75 5.749999999999988 -3
-11.75 11.49999999999999 -3
-11.75 17.24999999999999 -3
-8.75 13.33333333333335 -3
-8.75 6.666666666666705 -3
-2.916666666666666 20 -3
2.916666666666668 20 -3
11.75 5.749999999999988 -3
11.75 11.49999999999999 -3
11.75 17.24999999999999 -3
11.75 5.749999999999988 0
11.75 11.49999999999999 0
11.75 17.24999999999999 0
-5.875000000000016 23 0
-3.730349362740526e-14 23 0
5.874999999999972 23 0
-11.75 5.749999999999988 0
-11.75 11.49999999999999 0
-11.75 17.24999999999999 0
-8.75 20 -9.942001493741566
-8.75 20 -16.88400298748313
-8.75 20 -23.82600448122471
-8.75 15.13449401148299 -34.36048782627657
-8.75 15.13449401148299 -45.63951217372344
-8.75 20 -65.38400298748316
-8.75 20 -60
-8.75 20 -54.61599701251686
-8.75 15.13449401148299 -74.36048782627657
-8.75 5.273042773323653 -76.00810280152467
8.75 5.273042773323653 -76.00810280152467
2.985421119317599 11.53591113772966 -77.01752775077887
-2.985421119317588 11.53591113772966 -77.01752775077887
12.7603964082304 6.145083036126507 -78.35182671683896
8.830468301006997 11.07305701245052 -78.35182671683896
3.151557648182538 13.80787624532648 -78.35182671683896
-3.151557648182533 13.80787624532648 -78.35182671683896
-8.830468301006986 11.07305701245054 -78.35182671683896
-12.7603964082304 6.145083036126515 -78.35182671683896
12.7603964082304 6.145083036126507 -81.64817328316104
8.830468301006997 11.07305701245052 -81.64817328316104
3.151557648182538 13.80787624532648 -81.64817328316104
-3.151557648182533 13.80787624532648 -81.64817328316104
-8.830468301006986 11.07305701245054 -81.64817328316104
-12.7603964082304 6.145083036126515 -81.64817328316104
-8.75 5.273042773323644 -83.99189719847534
-2.985421119317599 11.53591113772963 -82.98247224922113
2.985421119317588 11.53591113772963 -82.98247224922113
8.75 5.273042773323651 -83.99189719847533
-8.75 15.13449401148298 -85.63951217372343
-8.75 20 -105.3840029874832
-8.75 20 -100
-8.75 20 -94.61599701251686
-8.75 11.66438429403673 -116.9226686583221
-8.75 15.83219214701836 -113.8453373166442
-8.75 3.748288220527553 -120
2.916666666666666 7.49657644105509 -120
-2.916666666666668 7.49657644105509 -120
8.75 3.748288220527553 -120
8.75 15.13449401148299 -85.63951217372345
8.75 20 -105.3840029874832
8.75 20 -100
8.75 20 -94.61599701251686
8.75 11.66438429403673 -116.9226686583221
8.75 15.83219214701836 -113.8453373166442
8.75 15.13449401148299 -45.63951217372344
8.75 20 -65.38400298748316
8.75 20 -60
8.75 20 -54.61599701251686
8.75 15.13449401148299 -74.36048782627657
2.916666666666666 20 -49.23199402503369
-2.916666666666668 20 -49.23199402503369
2.916666666666666 20 -30.76800597496631
-2.916666666666668 20 -30.76800597496631
2.916666666666666 20 -70.76800597496631
-2.916666666666668 20 -70.76800597496631
2.916666666666666 20 -89.2319940250337
-2.916666666666668 20 -89.2319940250337
2.916666666666666 20 -110.7680059749663
-2.916666666666668 20 -110.7680059749663
2.412747839813472 6.258491387381537 -84.86244538770748
-2.412747839813473 6.258491387381537 -84.86244538770748
-4.440892098500626e-15 3.019297939780737 -84.86244538770748
8.876494075602187 3.019297939780737 -83.27787779794788
8.621915458245239 8.518657091770317 -81.64817328316104
3.16050214246488 11.70111836636874 -81.64817328316104
-3.160502142464949 11.70111836636872 -81.64817328316104
-8.62191545824526 8.518657091770296 -81.64817328316104
-8.87649407560219 3.019297939780737 -83.27787779794788
8.87649407560219 3.019297939780737 -76.72212220205212
0 3.019297939780737 -75.13755461229252
-8.876494075602187 3.019297939780737 -76.72212220205212
8.621915458245239 8.518657091770317 -78.35182671683896
3.16050214246488 11.70111836636874 -78.35182671683896
-3.160502142464949 11.70111836636872 -78.35182671683896
-8.62191545824526 8.518657091770296 -78.35182671683896
2.412747839813472 6.258491387381537 -75.13755461229252
-2.412747839813473 6.258491387381537 -75.13755461229252
2.412747839813472 6.258491387381537 -44.86244538770748
-2.412747839813473 6.258491387381537 -44.86244538770748
-4.440892098500626e-15 3.019297939780737 -44.86244538770748
8.876494075602187 3.019297939780737 -43.27787779794788
8.621915458245239 8.518657091770317 -41.64817328316104
3.16050214246488 11.70111836636874 -41.64817328316104
-3.160502142464949 11.70111836636872 -41.64817328316104
-8.62191545824526 8.518657091770296 -41.64817328316104
-8.87649407560219 3.019297939780737 -43.27787779794787
8.87649407560219 3.019297939780737 -36.72212220205212
0 3.019297939780737 -35.13755461229252
-8.876494075602187 3.019297939780737 -36.72212220205212
8.621915458245239 8.518657091770317 -38.35182671683896
3.16050214246488 11.70111836636874 -38.35182671683896
-3.160502142464949 11.70111836636872 -38.35182671683896
-8.62191545824526 8.518657091770296 -38.35182671683896
2.412747839813472 6.258491387381537 -35.13755461229252
-2.412747839813473 6.258491387381537 -35.13755461229252
4.440892098500626e-15 0 -115.6516485402658
1.974524164788299 0 -105.3593522448782
2.3119971211282 0 -93.35844334680671
-2.969385392801409 0 -48.04917303983255
2.698937716763615 0 -59.99999999999999
2.96326919378832 0 -72.44821673904261
2.982564608516004 0 -31.86906819018545
-2.801773689968084 0 -4.099295691375019
3.183612258048989 0 -19.06877730614626
4.043211084070405 0 -79.14774152020404
4.036064813597941 0 -39.05440143933731
-2.413115651509348 0 -99.46189447226169
-3.678330846481924 0 -87.79057493873187
-3.179333531743835 0 -64.82393493947794
-3.183612258048989 0 -12.64126638368774
-3.183612258048989 0 -25.49628822860475
9.973830821138836 0 -79.8295483040408
-9.8283677102098 0 -40.30106443919036
9.972401567044344 0 -39.81088028786746
-9.851329339972491 0 -80.30108259999028
3.734270076319745 0 -5.627497890431542
-3.860684096305737 0 -81.04570856590864
3.475356280589451 0 -49.1663509687571
2.719365543735158 0 -86.15393637485249
-3.561453558597711 0 -31.75250474418695
-2.055090869846793 0 -75.5414564384083
-3.873639059409268 0 -19.06877730614625
3.445153387840493 0 -25.49343884496889
3.446262807474946 0 -12.08833389354257
-3.649863551062089 0 -41.18632252614788
-0.05021477621341397 0 -54.1842467197926
-3.821561978395182 0 -58.82552663572557
3.182506232956333 0 -66.28768756412066
-3.678330846481964 0 -93.64683404078062
-4.401482131773649 0 -105.3511125107646
3.678330846481971 0 -99.50309314282939
3.685175471060179 0 -111.4795144947359
-3.504359143455763 0 -111.0336073622243
-4.868232429482002 0 -53.78978054110333
4.72481584422793 0 -54.24811079974313
-0.749122448057209 0 -8.26227591354256
-4.49556011545874 0 -115.7393342738705
4.495560115458767 0 -115.7393342738705
-1.718345515430491 0 -36.25419995691902
1.783956534949314 0 -44.12526014945809
-3.881830806933611 0 -70.71997989484271
-5.299561858399042 0 -7.122551404788908
-10.89092886074617 2.904880516893357 -43.36505152548568
10.89092886077818 2.904880516883157 -43.36505152546887
6.145083036126517 12.7603964082304 -40.02980260051835
-13.80787624532648 3.151557648182536 -40.02980260051835
11.07305701245053 8.830468301006988 -40.02980260051835
0.0311037157227579 14.16293735688107 -40
-11.07305701245053 8.830468301006993 -40.02980260051835
-6.145083036126517 12.7603964082304 -40.02980260051835
13.80787624532648 3.15155764818253 -40.02980260051834
-10.89092886079261 2.904880516881582 -36.63494847453917
10.89092886078122 2.904880516882018 -36.6349484745327
8.75 5.566387741951011 -19.06877730614626
8.75 9.817875978785635 -9.090322079322913
8.75 14.43139116597912 -27.85120973984427
8.75 9.767236763117163 -32.18235988588429
8.75 13.04525144233735 -20.38458735910655
8.75 6.793642301496011 -25.90214091186408
8.75 14.57350329216423 -13.30934308469583
8.75 4.916121459166386 -12.7871772431512
8.75 4.745228997087439 -30.83547563485765
8.75 15.1692876190426 -7.90899049567161
8.75 4.593560576409038 -7.58991195805228
8.75 9.533764191434885 -15.13321646544586
10.25 3.10416666666666 -3
-10.25 3.104166666666674 -3
11.75 20.125 -1.5
11.75 8.624999999999988 -1.5
11.75 14.37499999999999 -1.500000000000001
11.75 2.874999999999994 -1.5
3.157610638484556 18.22886740495932 0
-2.707174061168084 4.878797530676509 0
7.069955745470662 8.71654637064 0
-6.619519168154191 14.39111856499582 0
7.102873022115112 14.37499999999999 0
0.1126091443291184 11.52691623390895 0
-7.000954855602266 8.644857627020135 0
-2.792058517349995 18.15992185565015 0
2.948495529093417 4.721447277005962 0
-7.528051718759414 18.81262893003678 0
7.528051718759418 4.187371069963204 0
7.820492259183635 19.07601590637069 0
-7.553981076842906 4.160878030182232 0
-11.75 20.125 -1.5
-11.75 14.37499999999999 -1.5
-11.75 8.624999999999988 -1.5
-11.75 2.874999999999994 -1.5
-8.75 5.566387741951011 -19.06877730614625
-8.75 9.817875978785661 -9.090322079322911
-8.75 14.43139116597911 -27.85120973984426
-8.75 9.767236763117163 -32.18235988588429
-8.75 13.04525144233735 -20.38458735910654
-8.75 6.793642301496011 -25.90214091186407
-8.75 14.57350329216424 -13.30934308469581
-8.75 4.916121459166393 -12.78717724315119
-8.75 4.745228997087438 -30.83547563485765
-8.75 15.16928761904263 -7.908990495671594
-8.75 4.593560576409045 -7.589911958052271
-8.75 9.533764191434896 -15.13321646544585
-8.75 15.27712938558986 -57.88872335005984
-8.75 5.203024729452072 -66.09408988373954
-8.75 5.048053442360678 -53.7322632011218
-8.75 15.29545540123811 -67.87800089784288
-8.75 9.588868175012323 -71.0359961821312
-8.75 9.259393607059353 -48.9668345488293
-8.75 14.91885128509164 -52.21925836461743
-8.75 5.243802738167845 -59.99999999999999
-8.75 11.09907221384821 -63.02751092245849
-8.75 16.33433140013523 -62.83564763156888
-8.75 4.438410873025067 -48.84360240202493
-8.75 4.59115651228357 -71.05708294272264
-8.75 10.05563337708571 -56.25816240156981
10.89092886078196 2.904880516884198 -76.63494847453346
-10.89092886079237 2.904880516880844 -76.63494847453892
-11.07305701245054 8.830468301006983 -79.97019739948165
-13.80092171983388 3.181873928848637 -80
11.07305701245054 8.830468301006986 -80.02980260051835
8.672318863565466e-16 14.16297151081189 -79.97019739948165
6.145083036126517 12.7603964082304 -79.97019739948165
-6.145083036126507 12.7603964082304 -80.02980260051834
13.81476417557816 3.121226167587268 -80
10.89092886077808 2.904880516882852 -83.36505152546897
-10.89092886074613 2.904880516893233 -83.36505152548571
-8.75 15.26775924429467 -97.77041219359066
-8.75 9.922531065212748 -110.6577262745953
-8.75 5.001965916182428 -93.54423343446589
-8.75 6.268034898801087 -115.4899578629659
-8.75 5.13932158909088 -105.7543929913269
-8.75 9.229197111341273 -88.86010962834025
-8.75 14.9074185712445 -92.11549810416832
-8.75 15.45906898205908 -107.6297161235474
-8.75 5.169941418243578 -99.55183316618506
-8.75 10.98866468758005 -102.799843814039
-8.75 4.411820899579075 -110.9663603595137
-8.75 16.04078074214112 -102.6984554530269
-8.75 4.333650256785191 -88.69843465441033
-8.75 10.01384446353832 -96.00260035251443
0 3.748288220527545 -120
-4.995477314510769 3.748288220527546 -120
4.995477314510767 3.748288220527546 -120
8.75 15.26775924429467 -97.77041219359066
8.75 9.922531065212748 -110.6577262745953
8.75 5.001965916182428 -93.54423343446589
8.75 6.268034898801087 -115.4899578629659
8.75 5.13932158909088 -105.7543929913269
8.75 9.229197111341279 -88.86010962834025
8.75 14.9074185712445 -92.11549810416832
8.75 15.45906898205908 -107.6297161235474
8.75 5.169941418243578 -99.55183316618506
8.75 10.98866468758005 -102.799843814039
8.75 4.411820899579075 -110.9663603595137
8.75 16.04078074214112 -102.6984554530269
8.75 4.333650256785193 -88.69843465441033
8.75 10.01384446353832 -96.00260035251443
8.75 15.30520045678629 -57.69539600099871
8.75 5.243802738167847 -66.05502184491699
8.75 5.048053442360678 -53.7322632011218
8.75 15.34649793700947 -68.01534582350403
8.75 9.259393607059353 -48.9668345488293
8.75 9.634184791459017 -71.24910038547465
8.75 11.09290518131205 -62.90007502014583
8.75 14.92352979695772 -52.18703713977391
8.75 5.243802738167845 -59.99999999999999
8.75 4.468114146671825 -71.15656523543562
8.75 4.438410873025067 -48.84360240202493
8.75 16.34892071502156 -62.79896396642634
8.75 10.05879796643408 -56.21614044011537
-1.77635683940025e-15 15.93594963626003 -46.23127278267906
4.518167852535493 16.54679520775885 -46.68229506787238
-4.518167852535496 16.54679520775885 -46.68229506787238
-1.77635683940025e-15 15.93594963626003 -33.76872721732094
4.518167852535495 16.54679520775885 -33.31770493212761
-4.518167852535498 16.54679520775886 -33.31770493212761
0.06077033424056211 20 -7.68820583030967
-0.07361904816889364 20 -26.06707099473459
3.88616856400065 20 -12.44614035563988
2.952635126078496 20 -20.09277986129084
-2.836398399291875 20 -13.41130500138426
-3.881785942452602 20 -21.26302809236884
4.872721112981575 20 -7.215269535938228
-4.874414331457633 20 -26.53842310365215
-4.638458946343595 20 -7.408302465087097
4.659136548915255 20 -26.30437345743656
8.812499999999986 23 -1.5
2.937499999999966 23 -1.5
-8.812500000000007 23 -1.5
-2.937500000000027 23 -1.499999999999999
0 20 -53.82699575073278
-4.599971261740475 20 -62.80856263522303
4.599971261740477 20 -62.80856263522303
4.655550765845636 20 -57.17275751204043
-4.655550765845634 20 -57.17275751204043
-1.77635683940025e-15 20 -66.2223756813772
5.014443486502461 20 -52.81594766507149
-5.014443486502461 20 -52.81594766507149
-5.003327585681431 20 -67.1901906508032
5.003327585681428 20 -67.1901906508032
0 20 -59.91238183700806
-1.77635683940025e-15 15.93594963626003 -73.76872721732094
-4.518167852535498 16.54679520775886 -73.31770493212761
4.518167852535495 16.54679520775885 -73.31770493212761
-1.77635683940025e-15 15.93594963626003 -86.23127278267906
4.518167852535495 16.54679520775885 -86.68229506787239
-4.518167852535498 16.54679520775885 -86.68229506787239
-1.77635683940025e-15 20 -106.1730042492672
-4.599971261740475 20 -97.19143736477699
4.599971261740476 20 -97.19143736477699
-4.655550765845632 20 -102.8272424879596
4.655550765845635 20 -102.8272424879596
-1.77635683940025e-15 20 -93.77762431862281
-5.003327585681431 20 -92.80980934919681
5.003327585681428 20 -92.80980934919681
-5.014443486502461 20 -107.1840523349285
5.01444348650246 20 -107.1840523349285
0 20 -100.0382859882591
-4.861111111111111 13.74828822052755 -115.3840029874832
4.861111111111111 13.74828822052755 -115.3840029874832
-1.77635683940025e-15 11.12289029920403 -117.32248470081
-1.77635683940025e-15 16.37368614185106 -113.4455212741563
5.055555555555554 10.3057431391757 -117.925831269323
-5.055555555555557 10.3057431391757 -117.925831269323
-5.055555555555557 17.19083330187939 -112.8421747056433
5.055555555555554 17.19083330187939 -112.8421747056433
-7.077123990783185 5.773793053281351 -83.4217923539541
7.077123990783782 5.773793053281841 -83.42179235395363
-0.09908963773329389 9.365757687654526 -83.28361467286912
5.943152474131951 3.019297939780737 -81.35203223731774
-5.943152474131955 3.019297939780737 -78.64796776268227
2.994741496994743 3.019297939780737 -78.38730264849146
-2.994741496994743 3.019297939780737 -81.61269735150854
-9.434566830926647 3.019297939780737 -79.72959355253646
9.434566830926647 3.019297939780737 -80.27040644746356
6.102323825434091 10.47218166123164 -80.0415025413853
10.54494225763664 5.975712308955817 -80.0415025413853
-3.962699545069251e-14 12.12043500936732 -80.0415025413853
-10.54494225763664 5.975712308955811 -79.95849745861472
-6.102323825434138 10.47218166123162 -80.0415025413853
7.077123990783787 5.773793053281842 -76.57820764604637
-7.077123990783178 5.773793053281347 -76.5782076460459
-2.002881773800005e-14 9.275977478189812 -76.66276175930705
7.077123990783776 5.773793053281836 -43.42179235395364
-7.077123990783179 5.773793053281351 -43.4217923539541
-2.002881773800005e-14 9.275977478189812 -43.33723824069295
5.943152474131951 3.019297939780737 -41.35203223731774
-5.943152474131955 3.019297939780737 -38.64796776268227
2.994741496994743 3.019297939780737 -38.38730264849146
-2.994741496994743 3.019297939780737 -41.61269735150854
-9.434566830926647 3.019297939780737 -39.72959355253646
9.434566830926647 3.019297939780737 -40.27040644746355
10.54494225763664 5.975712308955817 -40.0415025413853
6.131367384981091 10.45520343210437 -40
-3.693571824751802e-14 12.12043500936732 -40.0415025413853
-10.54494225763665 5.975712308955806 -39.95849745861471
-6.102323825434138 10.47218166123162 -39.95849745861471
-7.077123990783176 5.773793053281344 -36.5782076460459
7.07712399078378 5.773793053281841 -36.57820764604637
-1.79691369835619e-14 9.275977478189812 -36.66276175930706
-1.332267629550188e-15 9.72374784471077 -53.13075780084267
-4.440892098500626e-16 9.732415406104359 -93.06947910068357
-1.77635683940025e-15 9.680303232242686 -66.56209359529164
-1.77635683940025e-15 9.724605197267678 -26.87530358688562
1.77635683940025e-15 11.3535776577336 -17.71605968424487
-1.77635683940025e-15 8.72722598435605 -9.296046800698823
-4.397751657758024e-16 10.65884576078935 -106.0555581122172
-2.457773596855508 6.641152458283147 -112.6942143381081
2.7259234281391 13.69129988261889 -60.68396004187222
2.67458482847888 13.91671100319302 -100.8538419852759
-1.54797893563901 6.979613172263776 -59.83761986132549
0.8832756446885281 6.829434510250403 -99.80266393586511
2.308692329501608 13.97357080537255 -5.843603222057714
-3.545571973988108 14.64119136982524 -65.11500644565811
-2.8109016654733 14.77049386916072 -54.82761748827028

CELLS 2853 12523
1 0
1 1
1 2
1 3
1 4
1 5
1 6
1 7
1 8
1 9
1 10
1 11
1 12
1 13
1 14
1 15
1 16
1 17
1 18
1 19
1 20
1 21
1 22
1 23
1 24
1 25
1 26
1 27
1 28
1 29
1 30
1 31
1 32
1 33
1 34
1 35
1 36
1 37
1 38
1 39
1 40
1 41
1 42
1 43
1 44
1 45
1 46
1 47
1 48
1 49
1 50
1 51
1 52
1 53
1 54
1 55
1 56
1 57
1 58
1 59
1 60
1 61
1 62
1 63
1 64
1 65
2 0 1
2 1 2
2 2 3
2 3 66
2 66 67
2 67 68
2 68 69
2 69 4
2 4 5
2 5 6
2 6 70
2 70 71
2 71 72
2 72 7
2 8 7
2 8 9
2 9 73
2 73 74
2 74 75
2 75 76
2 76 10
2 11 10
2 12 11
2 13 12
2 13 77
2 77 78
2 78 79
2 79 80
2 80 14
2 15 14
2 16 15
2 17 16
2 17 81
2 81 82
2 82 83
2 83 84
2 84 85
2 85 18
2 19 86
2 86 87
2 87 18
2 20 88
2 88 89
2 89 90
2 90 91
2 91 92
2 92 19
2 20 21
2 21 22
2 22 23
2 0 93
2 93 94
2 94 95
2 95 96
2 96 23
2 1 97
2 97 98
2 98 99
2 99 100
2 100 101
2 101 102
2 102 12
2 24 103
2 103 13
2 24 104
2 104 105
2 105 25
2 25 106
2 106 0
2 2 107
2 107 108
2 108 109
2 109 110
2 110 111
2 111 112
2 112 11
2 3 113
2 113 26
2 26 114
2 114 115
2 115 27
2 10 116
2 116 27
2 4 117
2 117 118
2 118 28
2 29 119
2 119 120
2 120 121
2 121 28
2 26 122
2 122 29
2 31 123
2 123 124
2 124 125
2 125 30
2 8 126
2 126 127
2 127 128
2 128 31
2 32 129
2 129 130
2 130 9
2 32 131
2 131 132
2 132 28
2 5 133
2 133 134
2 134 135
2 135 30
2 6 136
2 136 137
2 137 138
2 138 33
2 30 33
2 34 139
2 139 140
2 140 141
2 141 33
2 7 142
2 142 143
2 143 144
2 144 34
2 31 34
2 32 145
2 145 146
2 146 147
2 147 35
2 27 148
2 148 35
2 36 149
2 149 24
2 37 150
2 150 151
2 151 152
2 152 36
2 38 153
2 153 37
2 14 154
2 154 38
2 23 155
2 155 39
2 39 156
2 156 157
2 157 38
2 22 158
2 158 159
2 159 160
2 160 161
2 161 162
2 162 163
2 163 15
2 21 164
2 164 165
2 165 166
2 166 167
2 167 168
2 168 169
2 169 16
2 40 170
2 170 17
2 40 171
2 171 172
2 172 41
2 41 173
2 173 20
2 42 174
2 174 40
2 43 175
2 175 176
2 176 177
2 177 42
2 44 178
2 178 179
2 179 43
2 18 180
2 180 44
2 45 181
2 181 182
2 182 44
2 19 183
2 183 45
2 46 184
2 184 41
2 47 185
2 185 186
2 186 187
2 187 46
2 45 188
2 188 189
2 189 47
2 48 190
2 190 25
2 49 191
2 191 192
2 192 193
2 193 48
2 39 194
2 194 49
2 48 195
2 195 196
2 196 36
2 29 197
2 197 198
2 198 35
2 49 199
2 199 200
2 200 37
2 46 201
2 201 202
2 202 42
2 47 203
2 203 204
2 204 43
2 50 205
2 205 206
2 206 51
2 51 207
2 207 50
2 50 208
2 208 52
2 52 209
2 209 210
2 210 211
2 211 212
2 212 53
2 53 213
2 213 51
2 52 54
2 54 214
2 214 55
2 55 215
2 215 56
2 56 216
2 216 57
2 53 57
2 54 217
2 217 218
2 218 219
2 219 220
2 220 57
2 55 221
2 221 222
2 222 56
2 58 223
2 223 224
2 224 59
2 59 225
2 225 58
2 58 226
2 226 60
2 60 227
2 227 228
2 228 229
2 229 230
2 230 61
2 61 231
2 231 59
2 60 62
2 62 232
2 232 63
2 63 233
2 233 64
2 64 234
2 234 65
2 61 65
2 62 235
2 235 236
2 236 237
2 237 238
2 238 65
2 63 239
2 239 240
2 240 64
3 1 259 0
3 0 263 93
3 0 259 251
3 251 285 0
3 0 285 263
3 2 259 1
3 3 259 2
3 66 247 3
3 247 251 3
3 251 259 3
3 6 4 5
3 70 4 6
3 4 261 69
3 70 261 4
3 7 8 9
3 9 72 7
3 9 248 72
3 73 287 9
3 9 287 248
3 11 258 10
3 10 265 76
3 258 270 10
3 10 284 265
3 270 284 10
3 12 258 11
3 13 258 12
3 77 244 13
3 244 270 13
3 13 270 258
3 15 260 14
3 14 286 80
3 260 262 14
3 262 266 14
3 266 286 14
3 16 260 15
3 17 260 16
3 81 253 17
3 253 262 17
3 17 262 260
3 18 282 85
3 87 282 18
3 19 283 86
3 92 283 19
3 21 257 20
3 20 264 88
3 20 257 250
3 250 264 20
3 22 257 21
3 23 257 22
3 96 246 23
3 246 250 23
3 250 257 23
3 67 268 66
3 66 268 247
3 68 249 67
3 249 268 67
3 69 269 68
3 68 269 249
3 261 269 69
3 71 261 70
3 72 248 71
3 248 261 71
3 74 255 73
3 255 287 73
3 75 267 74
3 74 267 255
3 76 256 75
3 256 267 75
3 76 265 256
3 78 279 77
3 77 279 244
3 79 272 78
3 272 279 78
3 80 254 79
3 254 272 79
3 80 286 254
3 82 274 81
3 81 274 253
3 83 252 82
3 252 274 82
3 84 275 83
3 83 275 252
3 85 278 84
3 84 278 275
3 85 282 278
3 86 241 87
3 86 283 241
3 241 282 87
3 88 243 89
3 88 264 243
3 89 276 90
3 243 276 89
3 90 242 91
3 90 276 242
3 91 277 92
3 242 277 91
3 277 283 92
3 93 280 94
3 263 280 93
3 94 245 95
3 94 280 245
3 95 273 96
3 245 273 95
3 96 273 246
3 277 278 241
3 241 283 277
3 278 282 241
3 252 275 242
3 242 276 252
3 275 278 242
3 242 278 277
3 243 274 252
3 252 276 243
3 243 264 253
3 253 274 243
3 244 271 263
3 263 285 244
3 244 285 270
3 244 279 271
3 245 272 254
3 254 273 245
3 271 272 245
3 245 280 271
3 246 266 250
3 246 286 266
3 273 286 246
3 247 284 251
3 256 265 247
3 247 268 256
3 265 284 247
3 248 281 261
3 248 287 281
3 255 267 249
3 249 269 255
3 249 267 256
3 256 268 249
3 262 264 250
3 250 266 262
3 251 284 270
3 270 285 251
3 253 264 262
3 254 286 273
3 269 281 255
3 281 287 255
3 261 281 269
3 271 280 263
3 271 279 272
3 0 289 1
3 106 289 0
3 1 289 97
3 12 288 13
3 102 288 12
3 13 288 103
3 101 24 102
3 101 104 24
3 103 102 24
3 97 25 98
3 25 97 106
3 105 98 25
3 97 289 106
3 99 98 105
3 100 99 104
3 104 99 105
3 101 100 104
3 103 288 102
3 1 296 2
3 97 296 1
3 2 296 107
3 11 291 12
3 112 291 11
3 12 291 102
3 98 292 97
3 97 292 107
3 107 296 97
3 99 290 98
3 98 290 108
3 108 292 98
3 100 293 99
3 109 290 99
3 99 293 109
3 101 295 100
3 110 293 100
3 100 295 110
3 102 294 101
3 101 294 111
3 111 295 101
3 102 291 112
3 112 294 102
3 107 292 108
3 108 290 109
3 109 293 110
3 110 295 111
3 111 294 112
3 2 298 3
3 107 298 2
3 3 298 113
3 10 297 11
3 116 297 10
3 11 297 112
3 107 108 26
3 107 26 113
3 26 108 114
3 111 112 27
3 111 27 115
3 27 112 116
3 113 298 107
3 114 108 109
3 115 109 110
3 115 114 109
3 111 115 110
3 112 297 116
3 3 307 66
3 113 307 3
3 69 309 4
3 4 309 117
3 26 302 113
3 122 302 26
3 118 308 28
3 28 308 121
3 119 301 29
3 29 301 122
3 66 304 67
3 66 307 304
3 67 299 68
3 67 304 299
3 68 306 69
3 299 306 68
3 306 309 69
3 302 307 113
3 117 300 118
3 117 309 300
3 300 308 118
3 120 303 119
3 119 303 301
3 121 305 120
3 120 305 303
3 121 308 305
3 301 302 122
3 299 304 303
3 303 310 299
3 299 310 306
3 305 308 300
3 300 310 305
3 300 309 306
3 306 310 300
3 301 304 302
3 303 304 301
3 304 307 302
3 305 310 303
3 5 4 311
3 4 117 311
3 133 5 311
3 9 8 312
3 8 126 312
3 130 9 312
3 30 28 125
3 135 28 30
3 28 135 118
3 28 132 125
3 31 123 32
3 31 32 128
3 123 131 32
3 128 32 129
3 134 117 118
3 134 133 117
3 117 133 311
3 135 134 118
3 131 123 124
3 132 124 125
3 132 131 124
3 126 127 130
3 126 130 312
3 127 128 129
3 127 129 130
3 5 316 6
3 133 316 5
3 6 316 136
3 33 313 30
3 30 313 135
3 138 313 33
3 134 314 133
3 133 314 136
3 136 316 133
3 135 315 134
3 137 314 134
3 134 315 137
3 135 313 138
3 138 315 135
3 136 314 137
3 137 315 138
3 6 327 70
3 136 327 6
3 72 329 7
3 7 329 142
3 33 328 138
3 141 328 33
3 34 326 139
3 144 326 34
3 70 325 71
3 70 327 325
3 71 318 72
3 71 325 318
3 318 329 72
3 137 319 136
3 319 327 136
3 138 321 137
3 137 321 319
3 138 328 321
3 139 324 140
3 139 326 324
3 140 317 141
3 140 324 317
3 317 328 141
3 142 323 143
3 142 329 323
3 143 320 144
3 143 323 320
3 320 326 144
3 317 322 321
3 321 328 317
3 317 324 322
3 322 323 318
3 318 325 322
3 323 329 318
3 321 322 319
3 322 325 319
3 325 327 319
3 320 323 322
3 322 324 320
3 324 326 320
3 8 7 333
3 7 142 333
3 126 8 333
3 34 31 330
3 31 128 330
3 144 34 330
3 127 126 332
3 126 142 332
3 142 126 333
3 128 127 331
3 127 143 331
3 143 127 332
3 128 144 330
3 144 128 331
3 142 143 332
3 143 144 331
3 73 9 344
3 9 130 344
3 10 76 342
3 116 10 342
3 27 116 337
3 148 27 337
3 129 32 343
3 32 145 343
3 147 35 336
3 35 148 336
3 74 73 341
3 341 73 344
3 75 74 334
3 334 74 341
3 76 75 339
3 75 334 339
3 76 339 342
3 337 116 342
3 130 129 335
3 335 129 343
3 130 335 344
3 145 146 340
3 145 340 343
3 146 147 338
3 146 338 340
3 147 336 338
3 336 148 337
3 334 338 339
3 338 334 345
3 334 341 345
3 340 335 343
3 335 340 345
3 335 341 344
3 341 335 345
3 336 337 339
3 338 336 339
3 339 337 342
3 340 338 345
3 77 13 356
3 13 103 356
3 14 80 357
3 154 14 357
3 103 24 351
3 24 149 351
3 149 36 352
3 36 152 352
3 150 37 349
3 37 153 349
3 153 38 350
3 38 154 350
3 78 77 348
3 348 77 356
3 79 78 353
3 78 348 353
3 80 79 347
3 347 79 353
3 80 347 357
3 103 351 356
3 351 149 352
3 151 150 355
3 150 349 355
3 152 151 346
3 346 151 355
3 152 346 352
3 349 153 350
3 350 154 357
3 352 346 358
3 354 346 355
3 346 354 358
3 350 347 354
3 347 350 357
3 347 353 354
3 351 348 356
3 348 351 358
3 353 348 358
3 349 350 354
3 349 354 355
3 351 352 358
3 354 353 358
3 14 360 15
3 154 360 14
3 15 360 163
3 22 359 23
3 158 359 22
3 23 359 155
3 38 163 154
3 162 38 157
3 162 163 38
3 158 39 155
3 39 159 156
3 158 159 39
3 163 360 154
3 155 359 158
3 157 156 160
3 156 159 160
3 157 160 161
3 162 157 161
3 15 362 16
3 163 362 15
3 16 362 169
3 21 367 22
3 164 367 21
3 22 367 158
3 158 363 159
3 164 363 158
3 158 367 164
3 159 365 160
3 159 363 165
3 165 365 159
3 160 364 161
3 166 364 160
3 160 365 166
3 161 366 162
3 161 364 167
3 167 366 161
3 162 361 163
3 168 361 162
3 162 366 168
3 163 361 169
3 169 362 163
3 165 363 164
3 166 365 165
3 167 364 166
3 168 366 167
3 169 361 168
3 16 369 17
3 169 369 16
3 17 369 170
3 20 368 21
3 173 368 20
3 21 368 164
3 168 40 169
3 168 171 40
3 170 169 40
3 164 41 165
3 41 164 173
3 172 165 41
3 164 368 173
3 166 165 172
3 167 166 171
3 171 166 172
3 168 167 171
3 170 369 169
3 81 17 382
3 17 170 382
3 18 85 180
3 170 40 375
3 40 174 375
3 174 42 376
3 42 177 376
3 175 43 377
3 43 179 377
3 178 44 373
3 44 180 373
3 82 81 372
3 372 81 382
3 83 82 378
3 82 372 378
3 84 83 374
3 374 83 378
3 85 84 380
3 84 374 380
3 180 85 373
3 373 85 380
3 170 375 382
3 375 174 376
3 176 175 381
3 175 377 381
3 177 176 370
3 370 176 381
3 177 370 376
3 179 178 371
3 371 178 373
3 179 371 377
3 376 370 383
3 379 370 381
3 370 379 383
3 371 373 380
3 371 374 379
3 374 371 380
3 377 371 379
3 375 372 382
3 372 375 383
3 378 372 383
3 374 378 379
3 375 376 383
3 377 379 381
3 379 378 383
3 18 385 87
3 180 385 18
3 86 386 19
3 19 386 183
3 44 385 180
3 182 385 44
3 45 386 181
3 183 386 45
3 87 384 86
3 384 386 86
3 87 385 384
3 181 384 182
3 181 386 384
3 384 385 182
3 19 183 92
3 88 399 20
3 20 399 173
3 173 392 41
3 41 392 184
3 45 390 183
3 188 390 45
3 184 393 46
3 46 393 187
3 185 394 47
3 47 394 189
3 89 389 88
3 389 399 88
3 90 395 89
3 89 395 389
3 91 391 90
3 391 395 90
3 92 397 91
3 91 397 391
3 183 390 92
3 390 397 92
3 173 399 392
3 392 393 184
3 186 398 185
3 185 398 394
3 187 387 186
3 387 398 186
3 187 393 387
3 189 388 188
3 388 390 188
3 189 394 388
3 393 400 387
3 396 398 387
3 387 400 396
3 388 397 390
3 388 396 391
3 391 397 388
3 394 396 388
3 392 399 389
3 389 400 392
3 395 400 389
3 391 396 395
3 392 400 393
3 394 398 396
3 396 400 395
3 93 411 0
3 0 411 106
3 23 410 96
3 155 410 23
3 106 405 25
3 25 405 190
3 39 406 155
3 194 406 39
3 190 408 48
3 48 408 193
3 191 404 49
3 49 404 194
3 94 403 93
3 403 411 93
3 95 409 94
3 94 409 403
3 96 402 95
3 402 409 95
3 96 410 402
3 106 411 405
3 406 410 155
3 405 408 190
3 192 412 191
3 191 412 404
3 193 401 192
3 401 412 192
3 193 408 401
3 404 406 194
3 407 412 401
3 401 413 407
3 408 413 401
3 406 407 402
3 402 410 406
3 407 409 402
3 405 411 403
3 403 413 405
3 409 413 403
3 404 407 406
3 404 412 407
3 405 413 408
3 407 413 409
3 24 104 149
3 105 25 190
3 149 416 36
3 36 416 196
3 48 415 190
3 195 415 48
3 105 414 104
3 104 416 149
3 414 416 104
3 190 415 105
3 105 415 414
3 196 414 195
3 414 415 195
3 196 416 414
3 122 26 114
3 27 148 115
3 122 418 29
3 29 418 197
3 35 419 148
3 198 419 35
3 115 417 114
3 114 418 122
3 417 418 114
3 148 419 115
3 115 419 417
3 197 417 198
3 197 418 417
3 417 419 198
3 121 426 28
3 28 426 132
3 29 429 119
3 197 429 29
3 131 428 32
3 32 428 145
3 147 427 35
3 35 427 198
3 119 423 120
3 119 429 423
3 120 422 121
3 120 423 422
3 422 426 121
3 132 420 131
3 420 428 131
3 132 426 420
3 145 424 146
3 145 428 424
3 146 425 147
3 424 425 146
3 425 427 147
3 198 421 197
3 421 429 197
3 198 427 421
3 422 424 420
3 420 426 422
3 424 428 420
3 421 425 423
3 423 429 421
3 421 427 425
3 423 424 422
3 423 425 424
3 30 430 33
3 125 430 30
3 34 432 31
3 31 432 123
3 33 430 141
3 139 432 34
3 123 433 124
3 123 432 139
3 139 433 123
3 124 431 125
3 140 431 124
3 124 433 140
3 141 430 125
3 125 431 141
3 140 433 139
3 141 431 140
3 36 441 152
3 196 441 36
3 150 442 37
3 37 442 200
3 193 440 48
3 48 440 195
3 49 443 191
3 199 443 49
3 151 435 150
3 435 442 150
3 152 438 151
3 151 438 435
3 152 441 438
3 191 436 192
3 191 443 436
3 192 437 193
3 436 437 192
3 437 440 193
3 195 434 196
3 195 440 434
3 434 441 196
3 200 439 199
3 439 443 199
3 200 442 439
3 434 440 437
3 437 444 434
3 438 441 434
3 434 444 438
3 438 444 435
3 439 442 435
3 435 444 439
3 436 444 437
3 436 443 439
3 439 444 436
3 37 446 153
3 200 446 37
3 38 153 157
3 194 39 156
3 194 447 49
3 49 447 199
3 153 446 157
3 157 445 156
3 156 447 194
3 445 447 156
3 157 446 445
3 199 445 200
3 199 447 445
3 445 446 200
3 40 171 174
3 172 41 184
3 174 450 42
3 42 450 202
3 46 449 184
3 201 449 46
3 172 448 171
3 171 450 174
3 448 450 171
3 184 449 172
3 172 449 448
3 202 448 201
3 448 449 201
3 202 450 448
3 42 457 177
3 202 457 42
3 175 459 43
3 43 459 204
3 187 458 46
3 46 458 201
3 47 460 185
3 203 460 47
3 176 454 175
3 454 459 175
3 177 452 176
3 452 454 176
3 177 457 452
3 185 455 186
3 185 460 455
3 186 453 187
3 186 455 453
3 453 458 187
3 201 456 202
3 201 458 456
3 456 457 202
3 204 451 203
3 451 460 203
3 204 459 451
3 451 459 454
3 454 461 451
3 455 460 451
3 451 461 455
3 452 461 454
3 452 457 456
3 456 461 452
3 455 461 453
3 456 458 453
3 453 461 456
3 43 468 179
3 204 468 43
3 178 467 44
3 44 467 182
3 181 466 45
3 45 466 188
3 189 469 47
3 47 469 203
3 179 462 178
3 462 467 178
3 179 468 462
3 182 464 181
3 464 466 181
3 182 467 464
3 188 463 189
3 188 466 463
3 463 469 189
3 203 465 204
3 203 469 465
3 465 468 204
3 462 465 464
3 464 467 462
3 462 468 465
3 464 465 463
3 463 466 464
3 465 469 463
3 205 207 50
3 51 207 206
3 207 205 206
3 205 50 471
3 50 208 471
3 51 206 470
3 213 51 470
3 52 209 208
3 212 53 213
3 206 205 472
3 210 205 471
3 205 210 472
3 206 211 470
3 211 206 472
3 208 209 471
3 209 210 471
3 210 211 472
3 211 212 470
3 212 213 470
3 207 473 50
3 50 473 208
3 51 476 207
3 213 476 51
3 52 478 54
3 208 478 52
3 57 477 53
3 53 477 213
3 54 478 214
3 214 475 55
3 55 475 215
3 215 474 56
3 56 474 216
3 216 477 57
3 207 475 473
3 207 476 475
3 473 478 208
3 474 476 213
3 213 477 474
3 473 475 214
3 214 478 473
3 215 476 474
3 475 476 215
3 474 477 216
3 52 54 480
3 209 52 480
3 57 53 482
3 53 212 482
3 54 217 480
3 220 57 482
3 210 209 479
3 209 217 479
3 217 209 480
3 211 210 481
3 218 210 479
3 210 218 481
3 212 211 483
3 219 211 481
3 211 219 483
3 212 220 482
3 220 212 483
3 217 218 479
3 218 219 481
3 219 220 483
3 54 214 217
3 214 55 484
3 55 221 484
3 56 216 485
3 222 56 485
3 220 216 57
3 217 214 484
3 216 220 485
3 218 217 484
3 219 218 486
3 221 218 484
3 218 221 486
3 220 219 485
3 219 222 485
3 222 219 486
3 221 222 486
3 215 221 55
3 222 215 56
3 222 221 215
3 223 225 58
3 225 224 59
3 224 225 223
3 223 58 487
3 58 226 487
3 59 224 488
3 231 59 488
3 60 227 226
3 230 61 231
3 224 223 489
3 228 223 487
3 223 228 489
3 224 229 488
3 229 224 489
3 226 227 487
3 227 228 487
3 228 229 489
3 229 230 488
3 230 231 488
3 225 490 58
3 58 490 226
3 59 493 225
3 231 493 59
3 60 495 62
3 226 495 60
3 65 494 61
3 61 494 231
3 62 495 232
3 232 492 63
3 63 492 233
3 233 491 64
3 64 491 234
3 234 494 65
3 225 492 490
3 225 493 492
3 490 495 226
3 491 493 231
3 231 494 491
3 490 492 232
3 232 495 490
3 233 493 491
3 492 493 233
3 491 494 234
3 60 62 496
3 227 60 496
3 65 61 499
3 61 230 499
3 62 235 496
3 238 65 499
3 228 227 497
3 235 227 496
3 227 235 497
3 229 228 498
3 236 228 497
3 228 236 498
3 230 229 500
3 237 229 498
3 229 237 500
3 230 238 499
3 238 230 500
3 235 236 497
3 236 237 498
3 237 238 500
3 62 232 235
3 232 63 502
3 63 239 502
3 64 234 501
3 240 64 501
3 238 234 65
3 235 232 502
3 234 238 501
3 236 235 502
3 237 236 503
3 239 236 502
3 236 239 503
3 238 237 501
3 237 240 501
3 240 237 503
3 239 240 503
3 233 239 63
3 240 233 64
3 240 239 233
4 452 456 457 505
4 370 381 454 513
4 283 181 384 241
4 370 452 505 513
4 306 508 269 509
4 437 408 440 512
4 454 461 452 513
4 469 460 203 510
4 204 459 468 510
4 443 439 199 506
4 454 381 510 513
4 447 443 199 506
4 440 195 434 518
4 277 391 397 510
4 454 452 370 513
4 334 267 507 508
4 201 456 458 505
4 457 456 202 505
4 440 415 195 504
4 437 512 440 518
4 277 510 397 511
4 201 458 449 505
4 457 202 450 505
4 452 456 505 513
4 393 505 458 513
4 464 466 463 511
4 274 372 382 505
4 386 181 384 283
4 345 341 508 509
4 310 508 306 509
4 437 440 434 518
4 279 348 356 504
4 408 504 440 512
4 377 468 459 510
4 469 394 460 510
4 403 409 280 514
4 370 505 383 513
4 198 427 419 507
4 181 384 241 511
4 345 341 334 508
4 306 310 299 508
4 381 370 379 513
4 381 377 454 510
4 443 447 404 506
4 343 509 428 516
4 377 459 454 510
4 440 504 195 518
4 440 408 415 504
4 376 457 450 505
4 458 393 449 505
4 463 466 388 511
4 403 280 504 514
4 279 356 244 504
4 383 513 505 515
4 440 512 504 518
4 198 421 427 507
4 249 507 267 508
4 459 451 454 510
4 390 388 466 511
4 370 383 379 513
4 459 204 451 510
4 451 203 460 510
4 197 418 429 507
4 199 439 445 506
4 397 510 388 511
4 452 461 456 513
4 306 249 269 508
4 421 425 427 507
4 199 445 447 506
4 224 244 356 504
4 403 504 409 514
4 390 397 388 511
4 372 274 378 515
4 439 506 443 512
4 469 465 463 510
4 468 462 465 510
4 372 505 274 515
4 401 408 437 512
4 383 379 513 515
4 404 443 506 512
4 381 379 510 513
4 129 428 131 516
4 201 448 456 505
4 448 202 456 505
4 469 203 465 510
4 204 468 465 510
4 181 241 283 511
4 415 414 195 504
4 198 419 417 507
4 197 417 418 507
4 403 413 409 504
4 255 269 508 509
4 265 240 342 507
4 448 450 202 505
4 201 449 448 505
4 465 464 463 510
4 197 429 421 507
4 411 403 263 504
4 411 263 223 504
4 299 304 268 507
4 424 420 428 516
4 445 486 156 506
4 445 157 486 506
4 255 508 341 509
4 409 506 402 514
4 249 299 507 508
4 221 156 486 506
4 222 486 157 506
4 197 421 417 507
4 198 417 421 507
4 280 409 245 514
4 429 423 421 507
4 305 422 508 509
4 275 510 374 515
4 421 425 507 508
4 299 268 249 507
4 463 510 464 511
4 263 403 280 504
4 341 255 334 508
4 306 299 249 508
4 242 391 277 510
4 424 428 509 516
4 422 509 305 516
4 409 402 245 514
4 463 388 510 511
4 468 371 462 510
4 469 463 388 510
4 195 504 414 518
4 413 409 504 514
4 399 243 205 505
4 334 267 256 507
4 275 374 510 511
4 343 129 509 516
4 388 397 391 510
4 280 271 504 514
4 279 244 271 504
4 399 389 243 505
4 489 414 105 504
4 489 104 414 504
4 503 114 417 507
4 115 503 417 507
4 427 336 419 507
4 5 311 316 133
4 8 126 333 312
4 129 343 428 516
4 378 383 372 515
4 489 224 104 504
4 489 105 223 504
4 248 281 287 509
4 240 503 115 507
4 239 114 503 507
4 472 171 448 505
4 248 325 281 509
4 472 448 172 505
4 378 275 374 515
4 412 436 443 512
4 345 508 340 509
4 305 508 310 509
4 277 242 510 511
4 421 507 423 508
4 267 334 255 508
4 325 248 281 261
4 303 429 301 507
4 206 171 472 505
4 261 281 325 509
4 382 375 206 505
4 205 392 399 505
4 472 172 205 505
4 265 233 240 507
4 348 504 279 514
4 383 505 372 515
4 429 303 423 507
4 451 454 510 513
4 275 510 242 511
4 131 320 129 516
4 221 215 246 506
4 335 343 129 509
4 204 465 451 510
4 451 465 203 510
4 181 466 464 511
4 372 375 382 505
4 392 389 399 505
4 404 412 443 512
4 445 156 447 506
4 445 446 157 506
4 252 378 274 515
4 464 510 465 511
4 468 377 371 510
4 469 388 394 510
4 438 435 444 518
4 425 338 507 508
4 510 513 379 515
4 460 398 455 513
4 322 509 129 516
4 460 510 394 513
4 422 424 508 509
4 460 451 510 513
4 424 340 508 509
4 271 263 280 504
4 445 506 439 517
4 267 249 256 507
4 422 424 509 516
4 222 221 486 506
4 223 405 411 504
4 429 418 301 507
4 273 402 506 514
4 351 224 356 504
4 255 269 249 508
4 286 222 357 506
4 370 376 383 505
4 225 263 271 504
4 273 402 410 506
4 303 423 507 508
4 244 225 271 504
4 242 510 275 515
4 244 224 225 504
4 462 465 510 511
4 256 249 268 507
4 405 403 411 504
4 225 223 263 504
4 351 356 348 504
4 279 504 271 514
4 286 357 347 506
4 415 105 414 504
4 416 414 104 504
4 343 335 340 509
4 307 302 239 507
4 342 240 337 507
4 418 417 114 507
4 115 417 419 507
4 436 439 443 512
4 323 129 322 509
4 418 114 302 507
4 115 419 337 507
4 255 249 267 508
4 413 512 409 514
4 450 375 376 505
4 393 392 449 505
4 394 398 460 513
4 345 340 335 509
4 300 305 310 509
4 448 171 450 505
4 449 172 448 505
4 117 509 325 516
4 307 268 304 507
4 409 407 506 514
4 271 244 263 225
4 415 408 405 504
4 273 245 402 514
4 374 379 378 515
4 268 307 247 507
4 339 334 256 507
4 247 307 239 507
4 450 171 375 505
4 449 392 172 505
4 374 510 379 515
4 215 221 222 506
4 405 105 415 504
4 416 104 351 504
4 283 241 277 511
4 489 223 224 504
4 409 407 402 506
4 503 240 239 507
4 265 342 256 507
4 291 61 12 102
4 97 60 1 296
4 472 205 206 505
4 253 206 207 505
4 378 252 275 515
4 302 114 239 507
4 115 337 240 507
4 377 381 379 510
4 280 245 271 514
4 222 350 357 506
4 320 131 324 516
4 410 406 221 506
4 309 306 269 509
4 276 389 395 515
4 318 325 248 509
4 117 325 319 516
4 451 461 454 513
4 362 15 57 163
4 53 16 362 169
4 164 52 21 367
4 158 22 54 367
4 391 510 242 515
4 274 253 243 505
4 375 171 206 505
4 392 205 172 505
4 223 105 405 504
4 323 318 130 509
4 460 455 451 513
4 435 517 444 518
4 224 351 104 504
4 16 53 369 169
4 288 12 61 102
4 164 21 52 368
4 97 1 60 289
4 107 62 2 298
4 54 22 158 359
4 360 57 15 163
4 297 65 11 112
4 350 157 446 506
4 243 207 205 505
4 225 224 223 504
4 233 239 240 507
4 351 416 504 518
4 422 420 424 516
4 371 462 510 511
4 409 512 407 514
4 506 512 439 517
4 269 261 309 509
4 413 504 512 514
4 215 222 286 506
4 265 247 233 507
4 205 207 206 505
4 269 281 261 509
4 305 509 300 516
4 512 517 514 518
4 300 310 306 509
4 345 335 341 509
4 65 291 11 112
4 107 2 62 296
4 435 346 355 517
4 300 509 117 516
4 117 300 309 509
4 335 130 344 509
4 351 352 416 518
4 407 512 506 514
4 156 406 447 506
4 222 157 350 506
4 445 446 506 517
4 447 406 404 506
4 301 418 302 507
4 336 337 419 507
4 243 505 389 515
4 378 379 383 515
4 354 514 517 518
4 354 517 346 518
4 274 505 243 515
4 395 391 276 515
4 357 350 347 506
4 323 322 318 509
4 421 423 425 508
4 281 255 287 509
4 320 322 129 516
4 272 348 279 514
4 389 505 400 515
4 410 402 406 506
4 406 156 221 506
4 340 338 425 508
4 446 350 506 517
4 9 130 312 329
4 117 4 311 327
4 254 506 347 514
4 254 286 347 506
4 462 464 465 511
4 325 509 322 516
4 243 389 276 515
4 253 207 243 505
4 275 242 278 511
4 414 504 416 518
4 247 239 233 507
4 358 354 346 518
4 340 425 424 508
4 456 461 453 513
4 428 420 131 516
4 309 300 306 509
4 344 341 335 509
4 445 439 200 517
4 444 517 512 518
4 358 514 354 518
4 384 385 282 511
4 396 510 391 515
4 358 504 348 514
4 276 391 242 515
4 371 510 374 511
4 256 247 265 507
4 339 256 342 507
4 422 423 305 508
4 400 392 393 505
4 375 383 376 505
4 272 279 271 514
4 307 304 302 507
4 339 342 337 507
4 395 389 400 515
4 325 322 319 516
4 348 272 353 514
4 384 182 464 181
4 318 322 325 509
4 405 408 413 504
4 400 389 392 505
4 375 372 383 505
4 247 256 268 507
4 505 513 400 515
4 404 506 407 512
4 181 464 384 511
4 273 506 254 514
4 413 403 405 504
4 384 182 385 511
4 282 241 384 511
4 358 351 348 504
4 347 506 354 514
4 55 221 246 410
4 254 273 286 506
4 308 305 300 516
4 446 349 350 517
4 82 378 372 274
4 59 356 224 244
4 338 345 334 508
4 299 310 303 508
4 320 324 322 516
4 305 423 303 508
4 146 425 340 338
4 445 200 446 517
4 464 182 384 511
4 338 339 336 507
4 303 301 304 507
4 417 198 421 197
4 201 448 202 456
4 223 58 263 411
4 340 345 338 508
4 305 303 310 508
4 117 118 300 516
4 199 200 445 439
4 381 370 454 176
4 398 186 455 387
4 254 347 353 514
4 394 510 396 513
4 388 391 396 510
4 371 379 374 510
4 351 504 358 518
4 425 424 146 340
4 265 342 240 64
4 255 281 269 509
4 308 422 305 516
4 388 396 394 510
4 379 371 377 510
4 395 90 276 391
4 430 33 141 328
4 34 326 432 139
4 352 351 358 518
4 395 396 391 515
4 395 276 89 389
4 274 243 252 515
4 277 278 242 511
4 394 396 398 513
4 413 407 409 512
4 196 414 416 518
4 404 407 412 512
4 404 406 407 506
4 380 371 374 511
4 347 350 354 506
4 118 132 426 516
4 355 435 151 346
4 333 142 7 329
4 426 118 28 132
4 316 327 6 136
4 304 301 302 507
4 336 339 337 507
4 319 118 117 516
4 138 33 313 328
4 252 242 275 515
4 248 9 329 287
4 248 329 130 287
4 330 326 34 144
4 454 370 452 176
4 453 455 186 387
4 9 130 329 287
4 426 422 308 516
4 358 348 353 514
4 428 131 32 129
4 358 504 514 518
4 78 348 279 272
4 512 514 504 518
4 277 397 391 91
4 382 81 372 274
4 385 373 282 511
4 378 82 252 274
4 406 402 407 506
4 409 403 280 94
4 84 380 374 275
4 253 382 51 206
4 347 354 353 514
4 196 416 441 518
4 346 435 151 438
4 324 433 139 140
4 348 78 353 272
4 354 355 346 517
4 506 514 512 517
4 396 513 510 515
4 350 354 506 517
4 254 353 272 514
4 320 144 331 143
4 200 442 446 517
4 90 242 276 391
4 129 320 323 322
4 439 436 444 512
4 249 269 68 306
4 336 427 147 338
4 422 424 423 508
4 427 425 147 338
4 431 140 317 141
4 380 282 373 511
4 341 344 73 287
4 396 400 513 515
4 396 395 400 515
4 416 352 441 518
4 182 373 385 511
4 245 273 254 514
4 455 398 387 513
4 457 452 370 177
4 458 453 187 387
4 506 354 514 517
4 431 132 124 125
4 124 433 123 131
4 276 243 89 389
4 343 145 428 340
4 444 439 512 517
4 130 329 248 318
4 412 401 436 512
4 67 268 299 304
4 116 27 238 112
4 26 113 235 107
4 409 280 245 94
4 467 373 182 511
4 130 9 344 287
4 374 378 83 275
4 446 442 349 517
4 131 132 324 516
4 423 422 305 120
4 56 357 286 222
4 425 423 424 508
4 68 299 249 306
4 203 451 204 465
4 380 84 278 275
4 455 461 451 513
4 426 420 422 516
4 319 136 314 137
4 347 353 79 254
4 252 83 378 275
4 423 305 303 120
4 437 436 401 512
4 185 455 460 398
4 441 152 438 518
4 227 60 97 496
4 209 52 164 480
4 65 238 499 112
4 57 220 482 163
4 462 371 467 511
4 138 315 137 321
4 239 247 63 307
4 455 387 453 513
4 3 113 298 232
4 132 131 420 516
4 308 118 426 516
4 457 370 376 177
4 393 458 187 387
4 261 325 327 117
4 129 32 428 343
4 17 170 369 213
4 303 301 429 119
4 332 143 142 323
4 385 282 87 384
4 384 386 283 86
4 181 45 466 386
4 28 308 118 426
4 254 353 79 272
4 249 268 299 67
4 271 245 272 514
4 23 155 359 214
4 276 252 243 515
4 75 334 267 256
4 469 463 189 388
4 462 179 371 468
4 117 4 327 261
4 462 467 464 511
4 303 429 423 119
4 13 103 288 231
4 444 435 439 517
4 81 382 253 274
4 314 133 117 134
4 332 127 130 126
4 235 62 496 107
4 217 54 480 158
4 61 230 102 499
4 53 212 169 482
4 197 29 429 418
4 277 241 278 511
4 394 185 460 398
4 171 450 375 174
4 184 172 449 392
4 242 277 391 91
4 261 325 248 71
4 279 356 77 244
4 405 415 105 190
4 200 439 442 517
4 88 243 399 389
4 416 104 149 351
4 441 352 152 518
4 397 283 390 92
4 282 85 380 373
4 125 28 30 430
4 32 31 432 123
4 40 170 212 169
4 209 41 164 173
4 217 158 39 155
4 45 390 466 386
4 321 132 118 516
4 373 467 371 511
4 254 272 245 514
4 173 20 368 208
4 394 469 189 388
4 179 377 371 468
4 416 352 36 441
4 415 440 48 408
4 450 376 375 174
4 393 184 449 392
4 35 419 198 427
4 69 269 261 309
4 384 283 241 86
4 384 282 87 241
4 458 46 449 393
4 42 376 457 450
4 358 353 354 514
4 330 34 326 432
4 102 103 24 230
4 97 227 25 106
4 442 435 150 355
4 4 117 309 261
4 412 443 436 191
4 116 10 297 234
4 408 415 405 190
4 106 0 289 226
4 416 149 352 351
4 350 349 354 517
4 380 278 282 511
4 178 371 467 462
4 463 188 388 466
4 150 442 355 349
4 220 154 38 163
4 145 424 428 340
4 269 69 306 309
4 443 412 404 191
4 334 75 339 256
4 317 324 132 516
4 307 268 66 304
4 134 315 135 118
4 331 128 129 127
4 160 157 161 364
4 446 442 37 349
4 196 441 434 518
4 438 152 346 518
4 444 436 437 512
4 330 31 32 128
4 135 30 28 313
4 276 242 252 515
4 154 14 360 216
4 77 348 356 279
4 47 460 469 394
4 468 43 377 459
4 110 109 115 293
4 410 273 246 96
4 255 341 73 287
4 390 388 188 466
4 467 373 371 178
4 447 404 49 443
4 283 386 390 183
4 385 180 282 373
4 399 264 243 88
4 273 410 402 96
4 321 118 319 516
4 325 318 248 71
4 132 317 321 328
4 441 36 416 196
4 48 195 440 415
4 268 247 307 66
4 46 449 201 458
4 202 42 457 450
4 49 447 443 199
4 37 200 442 446
4 4 261 70 327
4 265 342 76 256
4 461 455 453 513
4 223 487 405 105
4 467 182 464 511
4 350 446 157 153
4 438 444 434 518
4 488 351 104 224
4 172 392 471 205
4 375 470 206 171
4 321 319 322 516
4 248 329 9 72
4 317 132 321 516
4 355 442 435 517
4 118 308 300 516
4 70 261 325 327
4 346 152 352 518
4 470 206 382 375
4 392 471 205 399
4 205 471 50 399
4 206 382 51 470
4 35 419 427 336
4 148 115 419 337
4 114 418 302 122
4 400 387 396 513
4 313 33 430 328
4 58 223 487 411
4 488 59 356 224
4 317 322 324 516
4 405 487 223 411
4 356 351 488 224
4 55 484 221 410
4 397 277 283 92
4 171 375 40 174
4 172 184 41 392
4 350 446 153 349
4 29 301 429 418
4 447 156 194 406
4 355 349 442 517
4 113 3 63 232
4 105 25 405 190
4 170 17 51 213
4 104 24 149 351
4 501 337 342 240
4 239 502 302 307
4 222 485 350 157
4 308 422 426 121
4 222 56 357 485
4 405 487 25 105
4 392 41 172 471
4 375 40 470 171
4 112 294 27 238
4 107 235 26 292
4 357 347 80 286
4 502 239 63 307
4 342 501 240 64
4 351 104 24 488
4 155 23 55 214
4 4 311 327 316
4 264 243 253 207
4 50 264 399 88
4 339 76 342 256
4 278 241 282 511
4 103 13 59 231
4 329 9 333 312
4 485 357 222 350
4 278 85 380 282
4 336 148 419 337
4 418 301 302 122
4 194 404 447 406
4 94 245 409 95
4 78 79 353 272
4 72 248 329 318
4 180 85 282 373
4 183 390 283 92
4 17 51 81 382
4 484 406 156 221
4 302 502 239 114
4 115 337 501 240
4 356 59 77 244
4 221 484 406 410
4 58 263 411 93
4 82 372 81 274
4 66 268 67 304
4 20 173 50 208
4 378 82 83 252
4 398 396 387 513
4 326 131 324 320
4 164 363 41 209
4 286 347 80 254
4 69 68 269 306
4 132 420 426 516
4 10 116 64 234
4 391 90 242 91
4 350 485 38 157
4 38 220 163 361
4 144 128 129 331
4 0 106 58 226
4 158 39 363 217
4 410 246 55 96
4 24 294 102 230
4 25 227 97 292
4 373 371 380 511
4 459 468 43 204
4 460 203 47 469
4 27 115 337 501
4 302 26 502 114
4 157 38 350 153
4 114 302 26 122
4 115 148 27 337
4 116 65 238 234
4 422 308 305 121
4 169 212 40 361
4 401 407 413 512
4 352 358 346 518
4 13 59 77 356
4 282 18 180 385
4 283 19 386 183
4 347 79 80 254
4 410 55 23 96
4 58 263 225 223
4 14 154 56 216
4 442 439 435 517
4 322 317 321 516
4 406 156 39 484
4 77 59 13 244
4 209 52 208 173
4 232 62 235 113
4 440 193 48 408
4 458 187 46 393
4 376 42 457 177
4 76 342 265 64
4 39 194 156 406
4 227 60 226 106
4 246 23 55 96
4 441 352 36 152
4 175 381 454 176
4 185 186 455 398
4 325 261 70 71
4 69 261 4 309
4 412 407 401 512
4 63 3 307 66
4 262 264 207 250
4 119 423 303 120
4 441 438 434 518
4 88 89 243 389
4 503 115 417 114
4 156 445 157 486
4 104 489 414 105
4 241 87 384 86
4 411 0 58 93
4 154 57 220 216
4 176 370 452 177
4 453 186 187 387
4 352 36 149 416
4 53 212 213 170
4 183 283 19 92
4 180 85 18 282
4 408 48 415 190
4 171 472 448 172
4 283 386 19 86
4 282 87 18 385
4 61 230 231 103
4 438 151 346 152
4 46 184 449 393
4 42 376 450 174
4 214 54 217 155
4 425 146 147 338
4 401 437 193 192
4 189 47 469 394
4 43 377 179 468
4 28 308 426 121
4 442 150 37 349
4 260 213 477 474
4 127 332 130 323
4 117 319 314 134
4 206 472 171 211
4 263 58 0 93
4 238 234 501 116
4 228 223 489 105
4 239 503 114 236
4 104 229 224 489
4 221 156 218 486
4 240 237 115 503
4 219 157 222 486
4 244 59 13 270
4 138 135 315 321
4 172 210 472 205
4 348 77 78 279
4 270 258 10 491
4 435 151 150 355
4 327 6 4 316
4 127 143 332 323
4 153 446 37 349
4 460 47 185 394
4 459 43 377 175
4 137 314 319 134
4 333 7 9 329
4 222 286 56 215
4 341 73 74 255
4 476 262 207 250
4 75 76 339 256
4 32 145 428 343
4 192 412 436 191
4 404 49 443 191
4 93 280 403 94
4 96 402 273 95
4 231 494 258 491
4 132 124 131 140
4 475 476 207 250
4 209 208 471 173
4 232 235 502 113
4 10 284 270 491
4 51 81 382 253
4 84 85 380 278
4 253 262 264 207
4 64 240 265 233
4 424 145 146 340
4 463 188 189 388
4 178 179 371 462
4 227 226 487 106
4 270 493 492 285
4 131 324 132 140
4 251 259 495 232
4 144 129 320 331
4 285 58 0 263
4 194 404 49 447
4 264 20 50 473
4 89 90 276 395
4 84 374 83 275
4 250 257 478 214
4 58 0 490 285
4 427 147 35 336
4 342 76 10 64
4 73 344 9 287
4 220 216 485 154
4 74 75 334 267
4 213 212 470 170
4 265 10 76 64
4 55 23 246 250
4 475 476 266 215
4 231 230 488 103
4 307 247 63 66
4 355 354 349 517
4 51 17 81 253
4 214 217 484 155
4 56 14 80 357
4 262 260 14 474
4 262 476 266 475
4 475 266 262 250
4 121 305 422 120
4 251 490 0 285
4 105 487 228 223
4 172 471 210 205
4 502 236 239 114
4 484 218 221 156
4 470 211 206 171
4 488 229 224 104
4 237 501 240 115
4 485 219 157 222
4 429 301 29 119
4 23 22 257 359
4 369 16 17 260
4 251 270 492 285
4 330 326 32 432
4 40 170 470 212
4 471 41 209 173
4 3 63 247 66
4 251 0 490 259
4 484 217 39 155
4 14 262 474 266
4 118 135 28 328
4 284 10 64 491
4 235 62 107 113
4 65 116 238 112
4 244 224 59 225
4 418 29 301 122
4 419 35 148 336
4 67 299 249 68
4 3 63 251 247
4 262 476 475 250
4 230 103 24 488
4 487 25 227 106
4 399 20 50 88
4 284 270 493 492
4 259 490 251 495
4 128 129 326 144
4 3 2 259 298
4 474 56 14 266
4 284 270 492 251
4 357 80 56 286
4 118 315 135 321
4 495 490 251 232
4 386 45 390 183
4 385 44 180 373
4 485 154 38 220
4 20 473 250 257
4 113 3 307 63
4 473 250 257 478
4 277 397 91 92
4 493 492 285 225
4 264 50 20 88
4 284 10 265 64
4 311 327 316 136
4 329 333 142 312
4 209 52 173 164
4 169 53 170 212
4 373 467 44 178
4 390 188 45 466
4 473 250 478 214
4 12 13 288 258
4 493 244 59 225
4 227 60 106 97
4 102 61 103 230
4 129 326 32 128
4 473 264 20 250
4 392 471 399 173
4 382 170 470 375
4 25 487 405 106
4 217 54 158 155
4 351 24 103 488
4 470 170 40 375
4 471 392 41 173
4 307 502 302 113
4 337 342 116 501
4 257 21 20 368
4 405 487 411 106
4 324 317 132 140
4 473 475 207 250
4 132 125 141 328
4 154 57 163 220
4 103 356 351 488
4 259 1 0 289
4 131 433 139 324
4 7 9 329 72
4 321 138 135 328
4 318 72 248 71
4 360 14 15 260
4 246 266 215 250
4 492 490 285 225
4 266 476 474 215
4 263 285 58 225
4 493 491 284 233
4 284 493 233 492
4 55 221 215 246
4 70 6 4 327
4 317 132 140 431
4 313 430 28 328
4 135 118 321 328
4 130 329 318 323
4 270 244 59 493
4 324 131 433 140
4 297 10 11 258
4 285 244 270 225
4 485 38 154 350
4 495 259 490 226
4 473 257 208 478
4 206 51 253 207
4 485 154 357 350
4 17 51 262 253
4 285 490 58 225
4 326 123 139 131
4 207 264 473 250
4 155 23 410 55
4 260 477 216 474
4 244 285 263 225
4 266 474 56 215
4 491 64 284 233
4 207 264 50 473
4 170 17 382 51
4 266 56 286 215
4 360 15 57 260
4 10 116 342 64
4 258 13 231 270
4 406 484 155 410
4 14 56 80 286
4 103 13 356 59
4 433 139 123 131
4 125 431 132 141
4 317 132 431 141
4 331 129 320 143
4 327 325 319 117
4 125 132 28 328
4 11 65 297 258
4 247 63 233 239
4 257 250 23 214
4 258 494 234 491
4 129 320 326 144
4 63 502 307 113
4 342 116 501 64
4 140 132 124 431
4 131 124 433 140
4 484 39 406 155
4 260 17 213 262
4 251 233 284 247
4 233 492 63 247
4 259 251 3 232
4 286 14 56 266
4 286 266 215 246
4 259 60 1 289
4 270 231 258 491
4 52 21 257 368
4 251 63 492 247
4 13 59 231 270
4 117 319 134 118
4 493 270 244 225
4 123 326 32 131
4 130 129 127 323
4 317 132 141 328
4 246 475 55 250
4 246 215 475 250
4 156 219 486 157
4 476 253 51 207
4 156 219 218 486
4 0 106 411 58
4 131 139 326 324
4 265 284 64 233
4 14 154 357 56
4 215 475 55 246
4 411 487 58 106
4 356 103 59 488
4 20 173 399 50
4 227 496 97 292
4 209 164 363 480
4 163 220 482 361
4 294 112 499 238
4 17 51 213 262
4 20 473 257 208
4 143 127 129 323
4 319 137 134 118
4 213 260 262 474
4 399 471 50 173
4 170 51 382 470
4 499 102 294 230
4 259 0 490 226
4 250 55 23 214
4 107 496 235 292
4 217 363 158 480
4 482 212 169 361
4 266 475 215 250
4 155 484 55 410
4 231 493 270 59
4 154 357 56 485
4 430 141 28 328
4 492 233 251 247
4 117 319 136 314
4 260 216 14 474
4 251 63 3 232
4 15 16 362 260
4 313 28 138 328
4 142 130 332 323
4 57 15 362 260
4 362 16 53 260
4 257 22 54 359
4 253 51 262 476
4 432 326 32 139
4 259 2 62 298
4 11 12 291 258
4 143 129 320 323
4 362 53 57 260
4 133 311 316 136
4 126 142 333 312
4 28 125 141 430
4 123 432 32 139
4 232 492 251 63
4 11 291 65 258
4 138 135 28 313
4 291 12 61 258
4 53 16 369 260
4 233 265 284 247
4 214 475 250 55
4 213 476 262 51
4 330 32 326 144
4 32 330 128 144
4 65 291 61 258
4 258 234 10 491
4 2 1 259 296
4 288 61 12 258
4 118 137 315 321
4 257 22 21 367
4 476 474 262 266
4 262 253 476 207
4 492 233 284 251
4 259 1 60 296
4 493 231 270 491
4 62 2 259 296
4 311 4 5 316
4 333 9 8 312
4 257 21 52 367
4 430 30 33 313
4 257 54 22 367
4 330 31 34 432
4 492 490 251 285
4 329 142 130 312
4 311 327 136 117
4 319 137 118 321
4 330 32 31 432
4 430 28 30 313
4 259 60 62 296
4 232 492 490 251
4 52 54 257 367
4 214 475 473 250
4 216 14 360 260
4 476 213 262 474
4 208 257 20 368
4 226 259 0 289
4 142 126 130 312
4 136 133 311 117
4 10 297 234 258
4 284 270 491 493
4 214 23 257 359
4 128 326 32 144
4 480 164 158 367
4 480 158 54 367
4 136 327 319 117
4 97 107 496 296
4 291 102 112 499
4 52 164 480 367
4 138 28 135 328
4 123 32 326 139
4 54 52 480 367
4 107 62 496 296
4 8 7 9 333
4 102 291 61 499
4 112 65 291 499
4 141 125 28 328
4 6 5 4 316
4 130 142 329 323
4 97 496 60 296
4 65 61 291 499
4 62 60 496 296
4 270 493 285 225
4 163 482 362 169
4 232 3 259 298
4 53 362 482 169
4 362 57 53 482
4 482 362 57 163
4 213 369 17 260
4 65 116 112 297
4 62 107 113 298
4 65 116 297 234
4 473 20 50 208
4 490 0 58 226
4 315 134 137 118
4 231 288 13 258
4 164 52 173 368
4 53 169 170 369
4 52 173 368 208
4 232 62 113 298
4 129 331 127 143
4 216 56 14 474
4 481 160 166 364
4 97 60 106 289
4 61 102 103 288
4 498 293 109 99
4 60 106 289 226
4 54 158 155 359
4 64 10 234 491
4 57 154 163 360
4 126 130 332 142
4 117 136 133 314
4 154 57 216 360
4 170 53 369 213
4 478 257 54 214
4 61 288 103 231
4 495 259 62 232
4 214 54 155 359
4 294 499 230 238
4 227 235 496 292
4 217 209 363 480
4 220 212 482 361
4 165 159 365 479
4 483 168 162 366
4 111 101 295 500
4 213 477 53 260
4 108 98 497 290
4 112 102 294 499
4 164 158 363 480
4 496 107 97 292
4 169 163 482 361
4 494 61 231 258
4 156 218 481 160
4 109 114 498 236
4 214 257 54 359
4 232 259 62 298
4 57 53 477 260
4 213 53 369 260
4 494 65 61 258
4 61 288 231 258
4 54 52 257 478
4 259 62 60 495
4 228 236 497 290
4 365 218 210 479
4 219 211 483 366
4 295 229 237 500
4 99 109 498 228
4 160 210 481 166
4 295 237 100 110
4 161 167 219 366
4 100 237 229 498
4 481 167 211 219
4 210 481 218 160
4 236 498 109 228
4 228 99 109 290
4 210 160 365 166
4 167 211 219 366
4 237 229 295 100
4 109 236 228 290
4 160 210 365 218
4 501 116 234 64
4 208 50 471 173
4 502 63 232 113
4 226 58 487 106
4 154 56 216 485
4 213 51 170 470
4 231 59 103 488
4 155 55 484 214
4 163 162 38 361
4 169 40 168 361
4 27 294 112 111
4 102 294 24 101
4 97 98 25 292
4 107 26 108 292
4 158 363 39 159
4 41 363 164 165
4 156 219 481 218
4 458 513 456 453
4 456 513 458 505
4 377 454 175 381
4 175 454 377 459
4 458 387 513 453
4 513 387 458 393
4 370 457 505 452
4 505 457 370 376
4 437 408 193 440
4 193 408 437 401
4 513 393 400 387
4 513 400 393 505
4 505 253 382 274
4 505 382 253 206
4 299 507 303 304
4 303 507 299 508
4 507 334 338 339
4 507 338 334 508
4 334 255 74 267
4 74 255 334 341
4 518 195 196 414
4 518 196 195 434
4 512 408 413 401
4 512 413 408 504
4 130 129 509 335
4 509 129 130 323
4 427 338 507 425
4 507 338 427 336
4 518 435 346 438
4 518 346 435 517
4 246 506 410 221
4 410 506 246 273
4 506 246 286 215
4 506 286 246 273
4 283 397 511 277
4 511 397 283 390
4 261 117 509 325
4 509 117 261 309
4 509 130 248 318
4 275 380 511 278
4 275 511 380 374
4 518 437 444 434
4 518 444 437 512
4 27 116 501 337
4 27 501 116 238
4 113 26 502 302
4 113 502 26 235
4 402 245 95 409
4 402 95 245 273
4 401 436 192 412
4 192 436 401 437
4 263 403 93 280
4 93 403 263 411
4 130 287 509 248
4 509 287 130 344
4 428 340 509 343
4 509 340 428 424
4 466 386 283 181
4 283 386 466 390
4 283 511 466 181
4 466 511 283 390
4 182 373 44 385
4 44 373 182 467
4 341 287 509 344
4 509 287 341 255
4 166 167 481 364
4 498 99 100 293
4 326 129 131 320
4 131 129 326 32
4 293 100 237 110
4 237 100 293 498
4 237 115 293 110
4 167 364 219 481
4 167 219 364 161
4 157 364 219 161
4 118 328 132 321
4 132 328 118 28
4 207 243 399 264
4 399 243 207 205
4 399 50 207 264
4 207 50 399 205
4 60 226 259 495
4 259 226 60 289
4 52 208 257 478
4 52 257 208 368
4 234 65 258 297
4 258 65 234 494
4 216 57 260 360
4 260 57 216 477
4 27 500 101 111
4 101 500 27 238
4 101 294 27 111
4 27 294 101 238
4 497 26 98 108
4 497 98 26 235
4 292 98 26 108
4 292 26 98 235
4 479 39 209 159
4 479 209 39 217
4 363 209 39 159
4 363 39 209 217
4 483 40 162 168
4 483 162 40 212
4 361 162 40 168
4 361 40 162 212
4 41 479 159 165
4 159 479 41 209
4 159 363 41 165
4 41 363 159 209
4 361 38 212 162
4 361 212 38 220
4 483 212 38 162
4 483 38 212 220
4 24 500 238 230
4 238 500 24 101
4 238 294 24 230
4 24 294 238 101
4 292 25 235 98
4 292 235 25 227
4 497 235 25 98
4 497 25 235 227
4 472 172 211 210
4 472 211 172 171
4 211 40 212 483
4 168 211 40 171
4 168 40 211 483
4 366 168 211 483
4 219 220 38 483
4 162 219 38 483
4 162 38 219 157
4 366 219 162 483
4 235 236 26 497
4 26 236 108 497
4 26 108 236 114
4 108 236 290 497
4 503 114 237 115
4 503 237 114 236
4 498 114 237 236
4 489 105 229 228
4 489 229 105 104
4 209 41 210 479
4 41 210 165 172
4 41 165 210 479
4 165 365 210 479
4 229 24 230 500
4 101 229 24 104
4 101 24 229 500
4 295 101 229 500
4 237 238 27 500
4 111 237 27 500
4 111 27 237 115
4 295 237 111 500
4 160 156 364 481
4 160 364 156 157
4 219 364 156 481
4 219 156 364 157
4 227 25 228 497
4 25 228 98 105
4 25 98 228 497
4 98 290 228 497
4 217 218 39 479
4 39 218 159 479
4 39 159 218 156
4 159 218 365 479
4 100 101 229 295
4 100 229 101 104
4 168 167 211 171
4 168 211 167 366
4 160 159 218 365
4 160 218 159 156
4 98 99 228 290
4 98 228 99 105
4 162 161 219 366
4 162 219 161 157
4 110 111 237 115
4 110 237 111 295
4 108 109 236 114
4 108 236 109 290
4 166 165 210 172
4 166 210 165 365
4 27 501 237 115
4 237 501 27 238
4 26 502 236 235
4 26 236 502 114
4 39 484 218 217
4 218 484 39 156
4 40 470 211 212
4 40 211 470 171
4 471 41 210 209
4 471 210 41 172
4 485 38 219 220
4 485 219 38 157
4 24 488 229 230
4 229 488 24 104
4 487 25 228 227
4 487 228 25 105
4 167 211 166 481
4 167 166 211 171
4 172 211 166 171
4 109 114 293 498
4 109 293 114 115
4 237 293 114 498
4 237 114 293 115
4 100 229 99 498
4 100 99 229 104
4 105 229 99 104
4 211 210 166 481
4 166 210 211 172
4 229 228 99 498
4 99 228 229 105

CELL_TYPES 2853
1
1
1
1
1
1
1
1
1
1
1
1
1
1
1
1
1
1
1
1
1
1
1
1
1
1
1
1
1
1
1
1
1
1
1
1
1
1
1
1
1
1
1
1
1
1
1
1
1
1
1
1
1
1
1
1
1
1
1
1
1
1
1
1
1
1
3
3
3
3
3
3
3
3
3
3
3
3
3
3
3
3
3
3
3
3
3
3
3
3
3
3
3
3
3
3
3
3
3
3
3
3
3
3
3
3
3
3
3
3
3
3
3
3
3
3
3
3
3
3
3
3
3
3
3
3
3
3
3
3
3
3
3
3
3
3
3
3
3
3
3
3
3
3
3
3
3
3
3
3
3
3
3
3
3
3
3
3
3
3
3
3
3
3
3
3
3
3
3
3
3
3
3
3
3
3
3
3
3
3
3
3
3
3
3
3
3
3
3
3
3
3
3
3
3
3
3
3
3
3
3
3
3
3
3
3
3
3
3
3
3
3
3
3
3
3
3
3
3
3
3
3
3
3
3
3
3
3
3
3
3
3
3
3
3
3
3
3
3
3
3
3
3
3
3
3
3
3
3
3
3
3
3
3
3
3
3
3
3
3
3
3
3
3
3
3
3
3
3
3
3
3
3
3
3
3
3
3
3
3
3
3
3
3
3
3
3
3
3
3
3
3
3
3
3
3
3
3
3
3
3
3
3
3
3
3
3
3
3
3
3
3
3
3
3
3
3
3
3
3
3
3
3
3
3
3
3
3
3
3
3
3
3
3
3
3
3
3
3
3
5
5
5
5
5
5
5
5
5
5
5
5
5
5
5
5
5
5
5
5
5
5
5
5
5
5
5
5
5
5
5
5
5
5
5
5
5
5
5
5
5
5
5
5
5
5
5
5
5
5
5
5
5
5
5
5
5
5
5
5
5
5
5
5
5
5
5
5
5
5
5
5
5
5
5
5
5
5
5
5
5
5
5
5
5
5
5
5
5
5
5
5
5
5
5
5
5
5
5
5
5
5
5
5
5
5
5
5
5
5
5
5
5
5
5
5
5
5
5
5
5
5
5
5
5
5
5
5
5
5
5
5
5
5
5
5
5
5
5
5
5
5
5
5
5
5
5
5
5
5
5
5
5
5
5
5
5
5
5
5
5
5
5
5
5
5
5
5
5
5
5
5
5
5
5
5
5
5
5
5
5
5
5
5
5
5
5
5
5
5
5
5
5
5
5
5
5
5
5
5
5
5
5
5
5
5
5
5
5
5
5
5
5
5
5
5
5
5
5
5
5
5
5
5
5
5
5
5
5
5
5
5
5
5
5
5
5
5
5
5
5
5
5
5
5
5
5
5
5
5
5
5
5
5
5
5
5
5
5
5
5
5
5
5
5
5
5
5
5
5
5
5
5
5
5
5
5
5
5
5
5
5
5
5
5
5
5
5
5
5
5
5
5
5
5
5
5
5
5
5
5
5
5
5
5
5
5
5
5
5
5
5
5
5
5
5
5
5
5
5
5
5
5
5
5
5
5
5
5
5
5
5
5
5
5
5
5
5
5
5
5
5
5
5
5
5
5
5
5
5
5
5
5
5
5
5
5
5
5
5
5
5
5
5
5
5
5
5
5
5
5
5
5
5
5
5
5
5
5
5
5
5
5
5
5
5
5
5
5
5
5
5
5
5
5
5
5
5
5
5
5
5
5
5
5
5
5
5
5
5
5
5
5
5
5
5
5
5
5
5
5
5
5
5
5
5
5
5
5
5
5
5
5
5
5
5
5
5
5
5
5
5
5
5
5
5
5
5
5
5
5
5
5
5
5
5
5
5
5
5
5
5
5
5
5
5
5
5
5
5
5
5
5
5
5
5
5
5
5
5
5
5
5
5
5
5
5
5
5
5
5
5
5
5
5
5
5
5
5
5
5
5
5
5
5
5
5
5
5
5
5
5
5
5
5
5
5
5
5
5
5
5
5
5
5
5
5
5
5
5
5
5
5
5
5
5
5
5
5
5
5
5
5
5
5
5
5
5
5
5
5
5
5
5
5
5
5
5
5
5
5
5
5
5
5
5
5
5
5
5
5
5
5
5
5
5
5
5
5
5
5
5
5
5
5
5
5
5
5
5
5
5
5
5
5
5
5
5
5
5
5
5
5
5
5
5
5
5
5
5
5
5
5
5
5
5
5
5
5
5
5
5
5
5
5
5
5
5
5
5
5
5
5
5
5
5
5
5
5
5
5
5
5
5
5
5
5
5
5
5
5
5
5
5
5
5
5
5
5
5
5
5
5
5
5
5
5
5
5
5
5
5
5
5
5
5
5
5
5
5
5
5
5
5
5
5
5
5
5
5
5
5
5
5
5
5
5
5
5
5
5
5
5
5
5
5
5
5
5
5
5
5
5
5
5
5
5
5
5
5
5
5
5
5
5
5
5
5
5
5
5
5
5
5
5
5
5
5
5
5
5
5
5
5
5
5
5
5
5
5
5
5
5
5
5
5
5
5
5
5
5
5
5
5
5
5
5
5
5
5
5
5
5
5
5
5
5
5
5
5
5
5
5
5
5
5
5
5
5
5
5
5
5
5
5
5
5
5
5
5
5
5
5
5
5
5
5
5
5
5
5
5
5
5
5
5
5
5
5
5
5
5
5
5
5
5
5
5
5
5
5
5
5
5
5
5
5
5
5
5
5
5
5
5
5
5
5
5
5
5
5
5
5
5
5
5
5
5
5
5
5
5
5
5
5
5
5
5
5
5
5
5
5
5
5
5
5
5
5
5
5
5
5
5
5
5
5
5
5
5
5
5
5
5
5
5
5
5
5
5
5
5
5
5
5
5
5
5
5
5
5
5
5
5
5
5
5
5
5
5
5
5
5
5
5
5
5
5
5
5
5
5
5
5
5
5
5
5
5
5
5
5
5
5
5
5
5
5
5
5
5
5
5
5
5
5
5
5
5
5
5
5
5
5
5
5
5
5
5
5
5
5
5
5
5
5
5
5
5
5
5
5
5
5
5
5
5
5
5
5
5
5
5
5
5
5
10
10
10
10
10
10
10
10
10
10
10
10
10
10
10
10
10
10
10
10
10
10
10
10
10
10
10
10
10
10
10
10
10
10
10
10
10
10
10
10
10
10
10
10
10
10
10
10
10
10
10
10
10
10
10
10
10
10
10
10
10
10
10
10
10
10
10
10
10
10
10
10
10
10
10
10
10
10
10
10
10
10
10
10
10
10
10
10
10
10
10
10
10
10
10
10
10
10
10
10
10
10
10
10
10
10
10
10
10
10
10
10
10
10
10
10
10
10
10
10
10
10
10
10
10
10
10
10
10
10
10
10
10
10
10
10
10
10
10
10
10
10
10
10
10
10
10
10
10
10
10
10
10
10
10
10
10
10
10
10
10
10
10
10
10
10
10
10
10
10
10
10
10
10
10
10
10
10
10
10
10
10
10
10
10
10
10
10
10
10
10
10
10
10
10
10
10
10
10
10
10
10
10
10
10
10
10
10
10
10
10
10
10
10
10
10
10
10
10
10
10
10
10
10
10
10
10
10
10
10
10
10
10
10
10
10
10
10
10
10
10
10
10
10
10
10
10
10
10
10
10
10
10
10
10
10
10
10
10
10
10
10
10
10
10
10
10
10
10
10
10
10
10
10
10
10
10
10
10
10
10
10
10
10
10
10
10
10
10
10
10
10
10
10
10
10
10
10
10
10
10
10
10
10
10
10
10
10
10
10
10
10
10
10
10
10
10
10
10
10
10
10
10
10
10
10
10
10
10
10
10
10
10
10
10
10
10
10
10
10
10
10
10
10
10
10
10
10
10
10
10
10
10
10
10
10
10
10
10
10
10
10
10
10
10
10
10
10
10
10
10
10
10
10
10
10
10
10
10
10
10
10
10
10
10
10
10
10
10
10
10
10
10
10
10
10
10
10
10
10
10
10
10
10
10
10
10
10
10
10
10
10
10
10
10
10
10
10
10
10
10
10
10
10
10
10
10
10
10
10
10
10
10
10
10
10
10
10
10
10
10
10
10
10
10
10
10
10
10
10
10
10
10
10
10
10
10
10
10
10
10
10
10
10
10
10
10
10
10
10
10
10
10
10
10
10
10
10
10
10
10
10
10
10
10
10
10
10
10
10
10
10
10
10
10
10
10
10
10
10
10
10
10
10
10
10
10
10
10
10
10
10
10
10
10
10
10
10
10
10
10
10
10
10
10
10
10
10
10
10
10
10
10
10
10
10
10
10
10
10
10
10
10
10
10
10
10
10
10
10
10
10
10
10
10
10
10
10
10
10
10
10
10
10
10
10
10
10
10
10
10
10
10
10
10
10
10
10
10
10
10
10
10
10
10
10
10
10
10
10
10
10
10
10
10
10
10
10
10
10
10
10
10
10
10
10
10
10
10
10
10
10
10
10
10
10
10
10
10
10
10
10
10
10
10
10
10
10
10
10
10
10
10
10
10
10
10
10
10
10
10
10
10
10
10
10
10
10
10
10
10
10
10
10
10
10
10
10
10
10
10
10
10
10
10
10
10
10
10
10
10
10
10
10
10
10
10
10
10
10
10
10
10
10
10
10
10
10
10
10
10
10
10
10
10
10
10
10
10
10
10
10
10
10
10
10
10
10
10
10
10
10
10
10
10
10
10
10
10
10
10
10
10
10
10
10
10
10
10
10
10
10
10
10
10
10
10
10
10
10
10
10
10
10
10
10
10
10
10
10
10
10
10
10
10
10
10
10
10
10
10
10
10
10
10
10
10
10
10
10
10
10
10
10
10
10
10
10
10
10
10
10
10
10
10
10
10
10
10
10
10
10
10
10
10
10
10
10
10
10
10
10
10
10
10
10
10
10
10
10
10
10
10
10
10
10
10
10
10
10
10
10
10
10
10
10
10
10
10
10
10
10
10
10
10
10
10
10
10
10
10
10
10
10
10
10
10
10
10
10
10
10
10
10
10
10
10
10
10
10
10
10
10
10
10
10
10
10
10
10
10
10
10
10
10
10
10
10
10
10
10
10
10
10
10
10
10
10
10
10
10
10
10
10
10
10
10
10
10
10
10
10
10
10
10
10
10
10
10
10
10
10
10
10
10
10
10
10
10
10
10
10
10
10
10
10
10
10
10
10
10
10
10
10
10
10
10
10
10
10
10
10
10
10
10
10
10
10
10
10
10
10
10
10
10
10
10
10
10
10
10
10
10
10
10
10
10
10
10
10
10
10
10
10
10
10
10
10
10
10
10
10
10
10
10
10
10
10
10
10
10
10
10
10
10
10
10
10
10
10
10
10
10
10
10
10
10
10
10
10
10
10
10
10
10
10
10
10
10
10
10
10
10
10
10
10
10
10
10
10
10
10
10
10
10
10
10
10
10
10
10
10
10
10
10
10
10
10
10
10
10
10
10
10
10
10
10
10
10
10
10
10
10
10
10
10
10
10
10
10
10
10
10
10
10
10
10
10
10
10
10
10
10
10
10
10
10
10
10
10
10
10
10
10
10
10
10
10
10
10
10
10
10
10
10
10
10
10
10
10
10
10
10
10
10
10
10
10
10
10
10
10
10
10
10
10
10
10
10
10
10
10
10
10
10
10
10
10
10
10
10
10
10
10
10
10
10
10
10
10
10
10
10
10
10
10
10
10
10
10
10
10
10
10
10
10
10
10
10
10
10
10
10
10
10
10
10
10
10
10
10
10
10
10
10
10
10
10
10
10
10
10
10
10
10
10
10
10
10
10
10
10
10
10
10
10
10
10
10
10
10
10
10
10
10
10
10
10
10
10
10
10
10
10
10
10
10
10
10
10
10
10
10
10
10
10
10
10
10
10
10
10
10
10
10
10
10
10
10
10
10
10
10
10
10
10
10
10
10
10
10
10
10
10
10
10
10
10
10
10
10
10
10
10
10
10
10
10
10
10
10
10
10
10
10
10
10
10
10
10
10
10
10
10
10
10
10
10
10
10
10
10
10
10
10
10
10
10
10
10
10
10
10
10
10
10
10
10
10
10
10
10
10
10
10
10
10
10
10
10
10
10
10
10
10
10
10
10
10
10
10
10
10
10
10
10
10
10
10
10
10
10
10
10
10
10
10
10
10
10
10
10
10
10
10
10
10
10
10
10
10
10
10
10
10
10
10
10
10
10
10
10
10
10
10
10
10
10
10
10
10
10
10
10
10
10
10
10
10
10
10
10
10
10
10
10
10
10
10
10
10
10
10
10
10
10
10
10
10
10
10
10
10
10
10
10
10
10
10
10
10
10
10
10
10
10
10
10
10
10
10
10
10
10
10
10
10
10
10
10
10
10
10
10
10
10
10
10
10
10
10
10
10
10
10
10
10
10
10
10
10
10
10
10
10
10
10
10
10
10
10
10
10
10
10
10
10
10
10
10
10
10
10
10
10
10
10
10
10
10
10
10
10
10
10
10
10
10
10
10
10
10
10
10
10
10
10
