# vtk DataFile Version 2.0
, Created by Gmsh 4.11.1 
ASCII
DATASET UNSTRUCTURED_GRID
POINTS 648 double
8.75 0 -43.49035078965129
13.18966194507641 0 -41.18107278282093
13.18966194507641 0 -38.81892721717907
8.75 0 -36.50964921034871
8.75 0 -3
11.75 0 -3
11.75 0 0
-11.75 0 0
-11.75 0 -3
-8.75 0 -3
-8.75 1.071565949253934e-15 -36.50964921034871
-13.18966194507641 1.615267728287348e-15 -38.81892721717907
-13.18966194507641 1.615267728287348e-15 -41.18107278282093
-8.75 1.071565949253934e-15 -43.49035078965129
-8.75 1.071565949253934e-15 -76.50964921034871
-13.18966194507641 1.615267728287348e-15 -78.81892721717907
-13.18966194507641 1.615267728287348e-15 -81.18107278282093
-8.75 1.071565949253934e-15 -83.49035078965129
-8.75 0 -120
8.75 0 -120
8.75 0 -83.49035078965129
13.18966194507641 0 -81.18107278282093
13.18966194507641 0 -78.81892721717907
8.75 0 -76.50964921034871
-8.75 9.476664091130765 -41.33255293809609
8.75 9.476664091130745 -41.33255293809609
8.75 9.476664091130747 -38.66744706190391
-8.75 9.476664091130747 -38.66744706190391
8.75 20 -3
8.75 20 -34.34265540760985
11.75 23 -3
-11.75 23 -3
-8.75 20 -3
11.75 23 0
-11.75 23 0
-8.75 20 -34.34265540760985
-8.75 20 -45.65734459239015
-8.75 20 -74.34265540760984
-8.75 9.476664091130766 -78.66744706190391
8.75 9.476664091130765 -78.66744706190391
-8.75 9.476664091130754 -81.33255293809609
8.75 9.476664091130754 -81.33255293809609
-8.75 20 -85.65734459239016
-8.75 20 -114.3426554076098
-8.75 6.234218372384402 -120
8.75 6.234218372384402 -120
8.75 20 -85.65734459239016
8.75 20 -114.3426554076098
8.75 20 -45.65734459239015
8.75 20 -74.34265540760984
4.733459017946621 2.253424963806612 -83.49035078965129
-4.733459017946621 2.253424963806613 -83.49035078965129
9.416256050659054 2.253424963806612 -81.18107278282093
-9.416256050659054 2.253424963806615 -81.18107278282093
9.416256050659054 2.253424963806612 -78.81892721717907
4.733459017946621 2.253424963806612 -76.50964921034871
-4.733459017946621 2.253424963806613 -76.50964921034871
-9.416256050659054 2.253424963806615 -78.81892721717907
4.733459017946621 2.253424963806612 -43.49035078965129
-4.733459017946621 2.253424963806613 -43.49035078965129
9.416256050659054 2.253424963806612 -41.18107278282093
-9.416256050659054 2.253424963806615 -41.18107278282093
9.416256050659054 2.253424963806612 -38.81892721717907
4.733459017946621 2.253424963806612 -36.50964921034871
-4.733459017946621 2.253424963806613 -36.50964921034871
-9.416256050659054 2.253424963806615 -38.81892721717907
10.9698309725382 0 -42.33571178623611
10.9698309725382 0 -37.6642882137639
8.75 0 -29.80771936827897
8.75 0 -23.10578952620923
8.75 0 -16.40385968413948
8.75 0 -9.701929842069738
5.875000000000016 0 0
3.730349362740526e-14 0 0
-5.874999999999972 0 0
-8.75 0 -9.701929842069749
-8.75 0 -16.4038596841395
-8.75 0 -23.10578952620924
-8.75 0 -29.80771936827899
-10.9698309725382 1.343416838770641e-15 -37.6642882137639
-10.9698309725382 1.343416838770641e-15 -42.33571178623611
-8.75 0 -50.09421047379077
-8.75 0 -56.69807015793026
-8.75 0 -63.30192984206973
-8.75 0 -69.90578952620919
-10.9698309725382 1.343416838770641e-15 -77.66428821376388
-10.9698309725382 1.343416838770641e-15 -82.3357117862361
-8.75 0 -89.57529232470942
-8.75 0 -95.66023385976753
-8.75 0 -101.7451753948257
-8.75 0 -107.8301169298838
-8.75 0 -113.9150584649419
2.916666666666666 0 -120
-2.916666666666668 0 -120
8.75 0 -89.57529232470942
8.75 0 -95.66023385976753
8.75 0 -101.7451753948257
8.75 0 -107.8301169298838
8.75 0 -113.9150584649419
10.9698309725382 0 -82.3357117862361
10.9698309725382 0 -77.66428821376388
8.75 0 -50.09421047379077
8.75 0 -56.69807015793026
8.75 0 -63.30192984206973
8.75 0 -69.90578952620919
12.74023511277141 3.41373570984973 -41.18107278282093
11.42258231176505 6.594830972538198 -41.18107278282093
9.326499402921682 9.326499402921673 -41.18107278282093
6.594830972538209 11.42258231176504 -41.18107278282093
3.413735709849752 12.7402351127714 -41.18107278282093
3.595195317241421e-14 13.18966194507641 -41.18107278282093
-3.413735709849683 12.74023511277142 -41.18107278282093
-6.594830972538146 11.42258231176507 -41.18107278282093
-9.326499402921643 9.326499402921712 -41.18107278282093
-11.42258231176502 6.594830972538234 -41.18107278282093
-12.7402351127714 3.413735709849753 -41.18107278282093
-8.749999999999998 7.005248029310176 -42.21144048572992
-8.749999999999998 4.831457960093005 -42.84262535208941
-8.749999999999998 2.334110147234161 -43.33120197682608
5.902569150362024 10.52680258023845 -41.76412997914807
3.009659623968894 11.16553523958418 -42.02663092926365
1.884230981741374e-14 11.38815539909718 -42.11812148095534
-3.009659623968856 11.16553523958419 -42.02663092926365
-5.902569150362002 10.52680258023845 -41.76412997914807
8.750000000000002 7.005248029310169 -42.21144048572992
8.750000000000002 4.831457960092999 -42.84262535208941
8.750000000000002 2.334110147234158 -43.33120197682608
12.74023511277141 3.41373570984973 -38.81892721717907
11.42258231176505 6.594830972538198 -38.81892721717907
9.326499402921682 9.326499402921673 -38.81892721717907
6.594830972538209 11.42258231176504 -38.81892721717907
3.413735709849752 12.7402351127714 -38.81892721717907
3.595195317241421e-14 13.18966194507641 -38.81892721717907
-3.413735709849683 12.74023511277142 -38.81892721717907
-6.594830972538146 11.42258231176507 -38.81892721717907
-9.326499402921643 9.326499402921712 -38.81892721717907
-11.42258231176502 6.594830972538234 -38.81892721717907
-12.7402351127714 3.413735709849753 -38.81892721717907
8.750000000000002 2.334110147234157 -36.66879802317392
8.750000000000002 4.831457960092997 -37.15737464791059
8.750000000000002 7.005248029310169 -37.78855951427008
-5.902569150362011 10.52680258023845 -38.23587002085193
-3.009659623968879 11.16553523958419 -37.97336907073635
-4.072900181837606e-15 11.38815539909718 -37.88187851904466
3.009659623968871 11.16553523958419 -37.97336907073635
5.902569150362002 10.52680258023845 -38.23587002085193
-8.749999999999998 2.334110147234157 -36.66879802317392
-8.749999999999998 4.831457960092995 -37.15737464791059
-8.749999999999998 7.005248029310167 -37.78855951427008
8.75 6.666666666666651 -3
8.75 13.33333333333329 -3
8.75 20 -28.07412432608788
8.75 20 -21.80559324456591
8.75 20 -15.53706216304395
8.75 20 -9.268531081521978
8.75 14.73833204556539 -36.50505123475688
-5.875000000000016 23 -3
-3.730349362740526e-14 23 -3
5.874999999999972 23 -3
-11.75 5.749999999999988 -3
-11.75 11.49999999999999 -3
-11.75 17.24999999999999 -3
-8.75 13.33333333333335 -3
-8.75 6.666666666666705 -3
-2.916666666666666 20 -3
2.916666666666668 20 -3
11.75 5.749999999999988 -3
11.75 11.49999999999999 -3
11.75 17.24999999999999 -3
11.75 5.749999999999988 0
11.75 11.49999999999999 0
11.75 17.24999999999999 0
-5.875000000000016 23 0
-3.730349362740526e-14 23 0
5.874999999999972 23 0
-11.75 5.749999999999988 0
-11.75 11.49999999999999 0
-11.75 17.24999999999999 0
-8.75 20 -9.268531081521967
-8.75 20 -15.53706216304393
-8.75 20 -21.8055932445659
-8.75 20 -28.07412432608787
-8.75 14.73833204556539 -36.50505123475688
-8.75 14.73833204556537 -43.49494876524312
-8.75 20 -68.60559324456591
-8.75 20 -62.86853108152197
-8.75 20 -57.13146891847803
-8.75 20 -51.39440675543408
-8.75 14.7383320455654 -76.50505123475688
-8.749999999999998 2.334110147234163 -76.66879802317391
-8.749999999999998 4.831457960093012 -77.15737464791059
-8.749999999999998 7.005248029310185 -77.78855951427006
8.750000000000002 2.334110147234162 -76.66879802317391
8.750000000000002 4.83145796009301 -77.15737464791059
8.750000000000002 7.005248029310184 -77.78855951427006
-5.902569150362019 10.52680258023847 -78.23587002085192
-3.009659623968884 11.16553523958421 -77.97336907073634
-4.072900181837612e-15 11.3881553990972 -77.88187851904466
3.009659623968876 11.16553523958421 -77.97336907073634
5.902569150362011 10.52680258023847 -78.23587002085192
12.74023511277141 3.41373570984973 -78.81892721717907
11.42258231176505 6.594830972538198 -78.81892721717907
9.326499402921682 9.326499402921673 -78.81892721717907
6.594830972538209 11.42258231176504 -78.81892721717907
3.413735709849752 12.7402351127714 -78.81892721717907
3.595195317241421e-14 13.18966194507641 -78.81892721717907
-3.413735709849683 12.74023511277142 -78.81892721717907
-6.594830972538146 11.42258231176507 -78.81892721717907
-9.326499402921643 9.326499402921712 -78.81892721717907
-11.42258231176502 6.594830972538234 -78.81892721717907
-12.7402351127714 3.413735709849753 -78.81892721717907
12.74023511277141 3.41373570984973 -81.18107278282093
11.42258231176505 6.594830972538198 -81.18107278282093
9.326499402921682 9.326499402921673 -81.18107278282093
6.594830972538209 11.42258231176504 -81.18107278282093
3.413735709849752 12.7402351127714 -81.18107278282093
3.595195317241421e-14 13.18966194507641 -81.18107278282093
-3.413735709849683 12.74023511277142 -81.18107278282093
-6.594830972538146 11.42258231176507 -81.18107278282093
-9.326499402921643 9.326499402921712 -81.18107278282093
-11.42258231176502 6.594830972538234 -81.18107278282093
-12.7402351127714 3.413735709849753 -81.18107278282093
-8.749999999999998 7.005248029310172 -82.21144048572992
-8.749999999999998 4.831457960093002 -82.84262535208941
-8.749999999999998 2.33411014723416 -83.33120197682608
5.902569150362011 10.52680258023845 -81.76412997914807
3.009659623968879 11.16553523958419 -82.02663092926365
4.072900181837606e-15 11.38815539909718 -82.11812148095534
-3.009659623968856 11.16553523958419 -82.02663092926365
-5.902569150362002 10.52680258023845 -81.76412997914807
8.750000000000002 7.005248029310173 -82.21144048572992
8.750000000000002 4.831457960093004 -82.8426253520894
8.750000000000002 2.33411014723416 -83.33120197682608
-8.75 14.73833204556537 -83.49494876524312
-8.75 20 -108.6055932445659
-8.75 20 -102.868531081522
-8.75 20 -97.13146891847802
-8.75 20 -91.39440675543409
-8.75 10.82281224825626 -118.1142184692033
-8.75 15.41140612412813 -116.2284369384066
2.916666666666666 6.234218372384402 -120
-2.916666666666668 6.234218372384402 -120
8.75 14.73833204556537 -83.49494876524312
8.75 20 -108.6055932445659
8.75 20 -102.868531081522
8.75 20 -97.13146891847802
8.75 20 -91.39440675543409
8.75 10.82281224825626 -118.1142184692033
8.75 15.41140612412813 -116.2284369384066
8.75 14.73833204556536 -43.49494876524312
8.75 20 -68.60559324456591
8.75 20 -62.86853108152197
8.75 20 -57.13146891847803
8.75 20 -51.39440675543408
8.75 14.73833204556539 -76.50505123475688
2.916666666666666 20 -45.65734459239015
-2.916666666666668 20 -45.65734459239015
2.916666666666666 20 -34.34265540760985
-2.916666666666668 20 -34.34265540760985
2.916666666666666 20 -74.34265540760984
-2.916666666666668 20 -74.34265540760984
2.916666666666666 20 -85.65734459239016
-2.916666666666668 20 -85.65734459239016
2.916666666666666 20 -114.3426554076098
-2.916666666666668 20 -114.3426554076098
1.922583009955606 4.877215692576766 -83.49035078965129
-1.922583009955591 4.877215692576772 -83.49035078965129
7.105427357601002e-15 2.253424963806612 -83.49035078965129
7.082516687617156 2.253424963806612 -82.35128910357899
5.996908784059069 7.601374028079086 -81.18107278282093
-1.557006589908902e-15 9.682138300968443 -81.18107278282093
-5.996908784059065 7.601374028079089 -81.18107278282093
-7.082516687617156 2.253424963806612 -82.35128910357899
7.082516687617156 2.253424963806612 -77.64871089642101
-1.06581410364015e-14 2.253424963806612 -76.50964921034871
-7.082516687617156 2.253424963806612 -77.64871089642101
5.996908784059069 7.601374028079086 -78.81892721717907
-1.557006589908902e-15 9.682138300968443 -78.81892721717907
-5.996908784059065 7.601374028079089 -78.81892721717907
1.922583009955606 4.877215692576766 -76.50964921034871
-1.922583009955591 4.877215692576772 -76.50964921034871
1.922583009955606 4.877215692576766 -43.49035078965129
-1.922583009955591 4.877215692576772 -43.49035078965129
7.105427357601002e-15 2.253424963806612 -43.49035078965129
7.082516687617156 2.253424963806612 -42.35128910357899
5.996908784059069 7.601374028079086 -41.18107278282093
-1.557006589908902e-15 9.682138300968443 -41.18107278282093
-5.996908784059065 7.601374028079089 -41.18107278282093
-7.082516687617156 2.253424963806612 -42.35128910357899
7.082516687617156 2.253424963806612 -37.64871089642101
-1.06581410364015e-14 2.253424963806612 -36.50964921034871
-7.082516687617156 2.253424963806612 -37.64871089642101
5.996908784059069 7.601374028079086 -38.81892721717907
-1.557006589908902e-15 9.682138300968443 -38.81892721717907
-5.996908784059065 7.601374028079089 -38.81892721717907
1.922583009955606 4.877215692576766 -36.50964921034871
-1.922583009955591 4.877215692576772 -36.50964921034871
-5.020314514435383 0 -87.15767989377701
4.265698354222309 0 -46.85031147846421
-4.306660347576282 0 -73.10099738937977
-2.585185534014252 0 -32.82870433739492
-3.839429504574006 0 -38.38580829187799
-8.881784197001252e-16 0 -115.3604440379829
-4.121286522080333 0 -81.56579569544174
-2.738327957579503 0 -98.69731266825256
-2.853509306927873 0 -4.16348515129458
-3.030889750507344 0 -60
-2.792472730357589 0 -19.84621775025703
4.987789840147731 0 -87.14288435816025
4.121286522080335 0 -81.56579569544175
8.48201890035919 0 -79.85243609221442
-8.482018900359183 0 -79.85243609221442
8.43691501714722 0 -40.13436467240965
-8.436915017147221 0 -40.13436467240965
4.271970429885721 0 -73.10099738937976
-4.348351289808259 0 -46.85797563868233
4.08336153449348 0 -32.22214100146675
2.500660508437855 0 -104.7870959624522
2.76782170468555 0 -13.31698576361755
3.609418163833997 0 -5.797221032332502
0.3479600290233655 0 -26.26089943146354
3.030889750507344 0 -66.60385968413945
2.771624990333216 0 -53.55557999193705
3.317662678658333 0 -92.54378541415458
-11.35118017047529 0 -40.02687293448193
-11.36020094711768 0 -79.97048721844288
11.35118017047529 0 -40.02687293448193
11.36020094711768 0 -79.97048721844288
-4.338489304912049 0 -104.7864577305654
-3.606388846855753 0 -92.19715870819971
3.480286050096601 0 -98.70270462729658
3.589063462518635 0 -60.01162096764405
-3.634443391262713 0 -67.2715584682261
-3.684602674997062 0 -52.71681909111508
3.839429504573996 0 -38.38580829187799
3.802762769706832 0 -20.89841776715516
-4.036016346776043 0 -12.41127025701628
-3.388070883727205 0 -110.6646505275845
3.646336526498088 0 -111.2327418434812
-4.440892098500626e-15 0 -42.89573279354887
-1.061751441052137 0 -8.533607755321967
-0.05354180708084488 0 -87.02884996086249
-3.552713678800501e-15 0 -77.21252184860546
5.146816866644736 0 -26.45899341891473
-4.866412146381774 0 -26.43413669304707
4.614190144642112 0 -42.55474441498954
-4.614190144642111 0 -42.55474441498954
0 0 -70.71677436755851
4.648060309619526 0 -77.40125695005923
-4.648060309619512 0 -77.40125695005923
-4.693581769161596 0 -115.9067233153889
4.730476860986006 0 -115.9878792176598
1.77635683940025e-15 0 -49.09507828435013
-5.090255418951211 0 -7.562058601140514
11.11488123325448 2.675470394712164 -42.09513150220894
-10.55995313690055 3.422500302273956 -42.26762707622721
-1.602094148205619 12.16911321520604 -41.65728941220058
1.602094148205684 12.16911321520602 -41.65728941220059
-4.771602457515957 11.52104175660077 -41.5553676608629
4.771602457516091 11.521041756601 -41.55536766086276
-9.936616705556489 5.464294902519574 -42.14318611426445
10.63834450317071 4.636914002830339 -42.00534558924113
-13.0768225587037 1.721596350360554 -40.00361487136571
-8.029357453826606 10.4640623614386 -39.99638512863429
-10.46406236143854 8.029357453826687 -39.99638512863429
-12.18572886094139 5.047295746537619 -40
8.029357453826661 10.46406236143856 -39.99638512863429
10.46406236143856 8.029357453826652 -39.99638512863429
13.07679863047325 1.721778093556115 -40
12.18565871179911 5.047465104877041 -40.00361487136571
5.047295746537554 12.18572886094142 -40
-5.047465104876991 12.18565871179912 -40.00361487136571
-1.721596350360499 13.07682255870371 -40.00361487136571
1.721596350360574 13.0768225587037 -39.9963851286343
11.11488123325448 2.675470394712165 -37.90486849779106
-10.55995313690055 3.422500302273949 -37.73237292377279
-1.602094148205611 12.16911321520598 -38.34271058779939
1.602094148205668 12.1691132152059 -38.34271058779935
-4.771602457515999 11.52104175660077 -38.44463233913711
-9.920445255695942 5.465500705047536 -37.84974731932456
10.63834450316991 4.636914002833151 -37.99465441075908
8.750000000000002 7.487573171882823 -34.57271917439032
8.750000000000002 14.90273615047699 -18.85726040859796
8.750000000000002 5.030564866805072 -26.48257354206857
8.750000000000002 9.999999999999973 -8.773502691896237
8.750000000000002 10.04807836375563 -30.00163397355814
8.750000000000002 5.066218026365023 -19.58389485864832
8.750000000000002 15.09595481090297 -25.60980709982275
8.750000000000002 5.125885961035777 -12.97855399805824
8.750000000000002 14.83259230234298 -12.40279662228296
8.750000000000002 3.442643172061312 -32.46411318032493
8.750000000000002 10.77361600045789 -34.89164201313278
8.750000000000002 15.10933020344698 -31.57081900916138
8.750000000000002 9.944424415050566 -15.95029968428216
8.750000000000002 4.867698663235111 -7.877256965325534
8.750000000000002 15.63318512713525 -7.288966079140234
8.750000000000002 9.879700132808875 -22.92302867669584
10.25 3.10416666666666 -3
-10.25 3.104166666666674 -3
11.75 20.125 -1.5
11.75 8.624999999999988 -1.5
11.75 14.37499999999999 -1.500000000000001
11.75 2.874999999999994 -1.5
3.157610638484556 18.22886740495932 0
-2.707174061168084 4.878797530676509 0
7.069955745470663 8.71654637064 0
-6.619519168154191 14.39111856499582 0
7.102873022115112 14.37499999999999 0
0.1126091443291184 11.52691623390895 0
-7.000954855602266 8.644857627020135 0
-2.792058517349995 18.15992185565015 0
2.948495529093417 4.721447277005962 0
-7.528051718759411 18.81262893003678 0
7.528051718759418 4.187371069963204 0
7.820492259183634 19.07601590637069 0
-7.553981076842906 4.160878030182233 0
-11.75 20.125 -1.5
-11.75 14.37499999999999 -1.5
-11.75 8.624999999999988 -1.5
-11.75 2.874999999999994 -1.5
-8.749999999999998 7.487573171882824 -34.57271917439032
-8.749999999999998 14.902736150477 -18.85726040859795
-8.749999999999998 5.030564866805072 -26.48257354206858
-8.749999999999998 10.00000000000003 -8.773502691896239
-8.749999999999998 10.04807836375563 -30.00163397355815
-8.749999999999998 5.06621802636503 -19.58389485864833
-8.749999999999998 15.09595481090297 -25.60980709982275
-8.749999999999998 5.125885961035798 -12.97855399805824
-8.749999999999998 14.83259230234301 -12.40279662228295
-8.749999999999998 3.442643172061318 -32.46411318032494
-8.749999999999998 10.77361600045789 -34.89164201313278
-8.749999999999998 15.10933020344698 -31.57081900916138
-8.749999999999998 9.944424415050584 -15.95029968428216
-8.749999999999998 4.867698663235124 -7.877256965325534
-8.749999999999998 15.63318512713528 -7.288966079140232
-8.749999999999998 9.879700132808871 -22.92302867669585
-8.749999999999998 7.402104612152943 -45.3154941528832
-8.749999999999998 7.489788671875701 -74.58478497718643
-8.749999999999998 15.03155842371345 -60
-8.749999999999998 5.006084317868249 -53.30323571946882
-8.749999999999998 5.079154367637212 -66.6136635555892
-8.749999999999998 10.15329397203442 -70.09203245487492
-8.749999999999998 9.65070113928522 -50.043221881904
-8.749999999999998 5.050317464726708 -59.98614987917633
-8.749999999999998 15.10656291948584 -54.05048740432774
-8.749999999999998 15.22033018991966 -66.05703515818674
-8.749999999999998 3.451697711033474 -72.49879741760569
-8.749999999999998 3.01327741241972 -47.00259823274254
-8.749999999999998 10.81535375037653 -74.85199992818001
-8.749999999999998 10.71697426829786 -45.15392231629474
-8.749999999999998 15.15455165964933 -71.74239457136238
-8.749999999999998 15.03542839543905 -48.29905528593231
-8.749999999999998 10.10716457824314 -63.24115853429291
-8.749999999999998 9.992064807220434 -56.77070890319496
-10.55995313690054 3.422500302273958 -77.73237292377277
11.11488123325448 2.675470394712166 -77.90486849779106
-1.602094148205625 12.16911321520609 -78.34271058779943
1.602094148205676 12.16911321520596 -78.34271058779937
-4.771602457515972 11.52104175660078 -78.4446323391371
-9.920445255695284 5.465500705048967 -77.84974731932462
10.6383445031714 4.636914002829377 -77.994654410759
-13.0768225587037 1.72159635036056 -79.99638512863429
-8.029357453826606 10.4640623614386 -79.9963851286343
-10.46406236143853 8.029357453826693 -79.99638512863429
-12.18565871179909 5.047465104877075 -79.99638512863429
8.029357453826659 10.46406236143856 -80.00361487136571
10.46406236143856 8.029357453826654 -80.00361487136571
13.0768225587037 1.721596350360541 -80.00361487136571
12.18565871179911 5.047465104877041 -80.00361487136571
-1.721596350360497 13.07682255870371 -79.9963851286343
-5.047465104876989 12.18565871179912 -80.00361487136571
5.047465104877057 12.1856587117991 -79.99638512863429
1.721596350360574 13.0768225587037 -79.99638512863429
-10.55995313690055 3.42250030227396 -82.26762707622721
11.11488123325448 2.675470394712165 -82.09513150220894
-1.602094148205619 12.16911321520604 -81.65728941220058
1.602094148205687 12.16911321520604 -81.65728941220058
-4.771602457515961 11.52104175660076 -81.5553676608629
4.771602457516089 11.52104175660098 -81.55536766086277
-9.9366167055563 5.464294902520328 -82.14318611426435
10.63834450317052 4.63691400283107 -82.00534558924107
-8.749999999999998 6.875559319411983 -85.87823352176724
-8.749999999999998 11.11213256868223 -113.2519408017107
-8.749999999999998 14.94535730740472 -99.56756820909887
-8.749999999999998 5.211342246463104 -104.7876461623547
-8.749999999999998 5.154369179095855 -91.63229418541609
-8.749999999999998 10.91031088391633 -89.74805502719612
-8.749999999999998 5.189760084277681 -111.4304982509144
-8.749999999999998 4.995789737093395 -98.53845980949286
-8.749999999999998 15.20687773557009 -93.84031657768824
-8.749999999999998 15.03155842371345 -105.7370621630439
-8.749999999999998 16.13931712348897 -111.4741243260879
-8.749999999999998 7.067106989425794 -115.4807539529995
-8.749999999999998 3.199249434305834 -86.12499969174326
-8.749999999999998 15.30484407386839 -88.21800440781732
-8.749999999999998 10.71849307386717 -85.14720585764164
-8.749999999999998 10.08987183311173 -107.9179294614456
-8.749999999999998 9.922253017592466 -101.8929515254591
-8.749999999999998 10.18915964344547 -95.86994088905855
-8.749999999999998 3.328883203329728 -116.7547789941769
-5.52964042759961 3.117109186192199 -120
5.529640427599611 3.1171091861922 -120
0 3.1171091861922 -120
8.750000000000002 6.875559319411982 -85.87823352176724
8.750000000000002 11.11213256868223 -113.2519408017107
8.750000000000002 14.94535730740472 -99.56756820909887
8.750000000000002 5.211342246463104 -104.7876461623547
8.750000000000002 5.154369179095855 -91.63229418541607
8.750000000000002 10.91031088391632 -89.74805502719612
8.750000000000002 5.189760084277681 -111.4304982509144
8.750000000000002 4.995789737093395 -98.53845980949286
8.750000000000002 15.20687773557009 -93.84031657768824
8.750000000000002 15.03155842371345 -105.7370621630439
8.750000000000002 16.13931712348897 -111.4741243260879
8.750000000000002 7.067106989425794 -115.4807539529995
8.750000000000002 3.199249434305835 -86.12499969174326
8.750000000000002 15.30484407386839 -88.21800440781732
8.750000000000002 10.71849307386717 -85.14720585764164
8.750000000000002 10.08987183311173 -107.9179294614456
8.750000000000002 9.922253017592466 -101.8929515254591
8.750000000000002 10.18915964344547 -95.86994088905854
8.750000000000002 3.328883203329728 -116.7547789941769
8.750000000000002 7.402104612152939 -45.3154941528832
8.750000000000002 7.4897886718757 -74.58478497718643
8.750000000000002 15.03155842371345 -60
8.750000000000002 5.006084317868249 -53.30323571946882
8.750000000000002 5.07915436763721 -66.6136635555892
8.750000000000002 10.15329397203442 -70.09203245487492
8.750000000000002 9.650701139285218 -50.043221881904
8.750000000000002 5.050317464726707 -59.98614987917633
8.750000000000002 15.10656291948584 -54.05048740432774
8.750000000000002 15.22033018991966 -66.05703515818674
8.750000000000002 3.45169771103347 -72.49879741760569
8.750000000000002 3.013277412419719 -47.00259823274254
8.750000000000002 10.81535375037653 -74.85199992818001
8.750000000000002 10.71697426829786 -45.15392231629475
8.750000000000002 15.15455165964933 -71.74239457136238
8.750000000000002 15.03542839543905 -48.29905528593231
8.750000000000002 10.10716457824314 -63.24115853429291
8.750000000000002 9.992064807220434 -56.77070890319496
1.711714908797315 13.66964106217993 -43.05574717688849
-3.630641199811139 13.14293872490796 -42.83928750171921
5.532095393865996 17.10199327693632 -44.46634628172798
-4.467118591536099 16.31018236653065 -44.14093452572622
1.87144118314491 14.07646535269752 -36.77705961445306
-5.049912552463836 13.5917092531562 -36.97628057934666
5.200056104023742 15.08452253634759 -36.36277679266965
-1.717352046660162 15.37014732390254 -36.24539313142625
-5.730108874728794 17.2053987648022 -35.49115700479606
-1.77635683940025e-15 20 -29.4153563329005
0 20 -7.927299074709346
-3.321292838989636 20 -18.67132770380492
3.321292838989635 20 -18.67132770380493
3.215004324555096 20 -12.61973514033851
-3.215004324555096 20 -24.72292026727134
-3.694662288978024 20 -11.8902639396589
3.694662288978023 20 -25.45239146795095
-4.561685219433603 20 -30.02502693307511
4.561685219433604 20 -7.317628474534734
-4.822265791128938 20 -7.017218819178042
4.82226579112894 20 -30.32543658843181
8.812499999999986 23 -1.5
2.937499999999966 23 -1.5
-8.812500000000007 23 -1.5
-2.937500000000027 23 -1.499999999999999
-3.781558423713449 20 -60
0 20 -49.91119431042303
0 20 -70.08880568957696
3.78155842371345 20 -59.99999999999999
2.563376284092092 20 -65.35524166811227
3.620865402059684 20 -53.75221805386902
-2.635184326462507 20 -54.57179836287528
-3.880889637819767 20 -66.18414519697571
4.596008590151752 20 -70.54699028349496
-4.567155687297253 20 -70.18669949807712
-4.610370198625837 20 -49.43841772270254
4.567155687297253 20 -49.81330050192287
1.871441183144912 14.07646535269753 -76.77705961445305
-5.049912552463837 13.59170925315621 -76.97628057934666
5.200056104023744 15.0845225363476 -76.36277679266965
-1.717352046660162 15.37014732390255 -76.24539313142625
-5.730108874728792 17.2053987648022 -75.49115700479605
-1.871441183144904 14.07646535269751 -83.22294038554695
5.049912552463836 13.59170925315619 -83.02371942065334
-5.200056104023739 15.08452253634758 -83.63722320733035
1.717352046660165 15.37014732390253 -83.75460686857375
5.730108874728794 17.20539876480219 -84.50884299520395
-3.781558423713449 20 -100
0 20 -89.91119431042303
0 20 -110.088805689577
3.78155842371345 20 -100
2.563376284092092 20 -105.3552416681123
3.620865402059684 20 -93.75221805386902
-2.635184326462507 20 -94.57179836287528
-3.880889637819767 20 -106.1841451969757
4.596008590151752 20 -110.546990283495
-4.567155687297253 20 -110.1866994980771
4.567155687297253 20 -89.81330050192287
-4.610370198625837 20 -89.43841772270254
-4.861111111111111 13.1171091861922 -117.1713277038049
4.861111111111111 13.1171091861922 -117.1713277038049
0 16.00361474920799 -115.9850560426977
1.77635683940025e-15 10.25190006957169 -118.3488471313587
-5.055555555555557 16.90642601190567 -115.6140263000258
-5.055555555555555 9.332051649757791 -118.7268786608734
5.055555555555555 9.332051649757791 -118.7268786608734
5.055555555555555 16.90642601190567 -115.6140263000258
-5.684685819941429 4.45563221836238 -82.46030989748104
5.684685819892039 4.455632218318883 -82.4603098975152
-4.428932770643428 2.253424963806612 -80
4.428932770643428 2.253424963806612 -80
7.400439933101222 2.253424963806612 -80
-7.40043993310122 2.253424963806612 -80
8.177179061332726 5.184355763060799 -80
3.208763080927345 9.134968066148767 -80
-3.138827493233254 9.159233813305736 -80
5.68468581989204 4.455632218318883 -77.53969010248478
-5.684685819941425 4.455632218362378 -77.53969010251896
-5.684685819941426 4.455632218362378 -42.46030989748103
5.684685819892038 4.455632218318883 -42.46030989751521
-4.42893277064343 2.253424963806612 -40
4.428932770643428 2.253424963806612 -40
7.400439933101229 2.253424963806612 -40
-7.40043993310123 2.253424963806612 -40
8.177179061332726 5.184355763060799 -40
3.208763080927345 9.134968066148767 -40
5.684685819892039 4.455632218318883 -37.53969010248479
-5.684685819941426 4.455632218362378 -37.53969010251897
1.06581410364015e-14 9.544500400249264 -90.84983320786922
1.398881011027697e-14 9.510798733759053 -50.68992588251443
1.398881011027697e-14 9.519006410982723 -69.27113041383838
1.376676550535194e-14 9.515363580334126 -29.2884148797536
1.77635683940025e-15 11.29438747516061 -108.4907477240295
1.77635683940025e-15 10.70179136594988 -59.99433245607542
0.809432813622764 8.11527865582315 -99.25191512669006
-2.220446049250313e-15 8.700877878622098 -11.60823681302829
-0.09955947507951635 11.56158608339657 -20.33530026243637
-2.474315942012932 6.355711551872646 -113.3502797461977
-2.176725906925901 13.61322709355817 -6.230200572813384
-2.715433470280422 13.41517027085984 -96.62809944740495
3.315598624950677 8.307109755822106 -112.9461865809387
-3.901981219511279 9.143775234691027 -46.96292204295573
3.901981219511288 9.143775234691018 -46.96292204295572
3.098207244134251 13.33429614141323 -102.6754273875325
-3.868614419260319 10.57665827812773 -72.76038958352201
3.84514374784714 10.58062665708997 -87.27798025877433
-3.882805283354017 10.56618560974294 -32.76394436944909
-2.386156245625523 5.954787621665437 -23.79024264838576

CELLS 3622 16008
1 0
1 1
1 2
1 3
1 4
1 5
1 6
1 7
1 8
1 9
1 10
1 11
1 12
1 13
1 14
1 15
1 16
1 17
1 18
1 19
1 20
1 21
1 22
1 23
1 24
1 25
1 26
1 27
1 28
1 29
1 30
1 31
1 32
1 33
1 34
1 35
1 36
1 37
1 38
1 39
1 40
1 41
1 42
1 43
1 44
1 45
1 46
1 47
1 48
1 49
1 50
1 51
1 52
1 53
1 54
1 55
1 56
1 57
1 58
1 59
1 60
1 61
1 62
1 63
1 64
1 65
2 0 66
2 66 1
2 1 2
2 2 67
2 67 3
2 3 68
2 68 69
2 69 70
2 70 71
2 71 4
2 4 5
2 5 6
2 6 72
2 72 73
2 73 74
2 74 7
2 8 7
2 8 9
2 9 75
2 75 76
2 76 77
2 77 78
2 78 10
2 11 79
2 79 10
2 12 11
2 13 80
2 80 12
2 13 81
2 81 82
2 82 83
2 83 84
2 84 14
2 15 85
2 85 14
2 16 15
2 17 86
2 86 16
2 17 87
2 87 88
2 88 89
2 89 90
2 90 91
2 91 18
2 19 92
2 92 93
2 93 18
2 20 94
2 94 95
2 95 96
2 96 97
2 97 98
2 98 19
2 20 99
2 99 21
2 21 22
2 22 100
2 100 23
2 0 101
2 101 102
2 102 103
2 103 104
2 104 23
2 1 105
2 105 106
2 106 107
2 107 108
2 108 109
2 109 110
2 110 111
2 111 112
2 112 113
2 113 114
2 114 115
2 115 12
2 24 116
2 116 117
2 117 118
2 118 13
2 25 119
2 119 120
2 120 121
2 121 122
2 122 123
2 123 24
2 25 124
2 124 125
2 125 126
2 126 0
2 2 127
2 127 128
2 128 129
2 129 130
2 130 131
2 131 132
2 132 133
2 133 134
2 134 135
2 135 136
2 136 137
2 137 11
2 3 138
2 138 139
2 139 140
2 140 26
2 27 141
2 141 142
2 142 143
2 143 144
2 144 145
2 145 26
2 10 146
2 146 147
2 147 148
2 148 27
2 4 149
2 149 150
2 150 28
2 29 151
2 151 152
2 152 153
2 153 154
2 154 28
2 26 155
2 155 29
2 31 156
2 156 157
2 157 158
2 158 30
2 8 159
2 159 160
2 160 161
2 161 31
2 32 162
2 162 163
2 163 9
2 32 164
2 164 165
2 165 28
2 5 166
2 166 167
2 167 168
2 168 30
2 6 169
2 169 170
2 170 171
2 171 33
2 30 33
2 34 172
2 172 173
2 173 174
2 174 33
2 7 175
2 175 176
2 176 177
2 177 34
2 31 34
2 32 178
2 178 179
2 179 180
2 180 181
2 181 35
2 27 182
2 182 35
2 36 183
2 183 24
2 37 184
2 184 185
2 185 186
2 186 187
2 187 36
2 38 188
2 188 37
2 14 189
2 189 190
2 190 191
2 191 38
2 23 192
2 192 193
2 193 194
2 194 39
2 38 195
2 195 196
2 196 197
2 197 198
2 198 199
2 199 39
2 22 200
2 200 201
2 201 202
2 202 203
2 203 204
2 204 205
2 205 206
2 206 207
2 207 208
2 208 209
2 209 210
2 210 15
2 21 211
2 211 212
2 212 213
2 213 214
2 214 215
2 215 216
2 216 217
2 217 218
2 218 219
2 219 220
2 220 221
2 221 16
2 40 222
2 222 223
2 223 224
2 224 17
2 41 225
2 225 226
2 226 227
2 227 228
2 228 229
2 229 40
2 41 230
2 230 231
2 231 232
2 232 20
2 42 233
2 233 40
2 43 234
2 234 235
2 235 236
2 236 237
2 237 42
2 44 238
2 238 239
2 239 43
2 18 44
2 45 240
2 240 241
2 241 44
2 19 45
2 46 242
2 242 41
2 47 243
2 243 244
2 244 245
2 245 246
2 246 46
2 45 247
2 247 248
2 248 47
2 48 249
2 249 25
2 49 250
2 250 251
2 251 252
2 252 253
2 253 48
2 39 254
2 254 49
2 48 255
2 255 256
2 256 36
2 29 257
2 257 258
2 258 35
2 49 259
2 259 260
2 260 37
2 46 261
2 261 262
2 262 42
2 47 263
2 263 264
2 264 43
2 50 265
2 265 266
2 266 51
2 51 267
2 267 50
2 50 268
2 268 52
2 52 269
2 269 270
2 270 271
2 271 53
2 53 272
2 272 51
2 52 54
2 54 273
2 273 55
2 55 274
2 274 56
2 56 275
2 275 57
2 53 57
2 54 276
2 276 277
2 277 278
2 278 57
2 55 279
2 279 280
2 280 56
2 58 281
2 281 282
2 282 59
2 59 283
2 283 58
2 58 284
2 284 60
2 60 285
2 285 286
2 286 287
2 287 61
2 61 288
2 288 59
2 60 62
2 62 289
2 289 63
2 63 290
2 290 64
2 64 291
2 291 65
2 61 65
2 62 292
2 292 293
2 293 294
2 294 65
2 63 295
2 295 296
2 296 64
3 0 298 101
3 66 312 0
3 0 345 298
3 312 345 0
3 2 326 1
3 1 326 66
3 67 326 2
3 68 316 3
3 3 312 67
3 3 334 312
3 316 334 3
3 5 6 4
3 4 6 72
3 4 319 71
3 72 319 4
3 8 9 7
3 7 9 74
3 9 305 74
3 75 353 9
3 9 353 305
3 10 300 78
3 79 313 10
3 10 301 300
3 10 313 301
3 12 324 11
3 11 324 79
3 80 324 12
3 81 315 13
3 13 313 80
3 13 346 313
3 315 346 13
3 14 299 84
3 85 311 14
3 14 349 299
3 311 349 14
3 16 325 15
3 15 325 85
3 86 325 16
3 87 297 17
3 17 311 86
3 297 303 17
3 303 311 17
3 18 350 91
3 93 350 18
3 19 351 92
3 98 351 19
3 20 308 94
3 99 310 20
3 20 309 308
3 20 310 309
3 22 327 21
3 21 327 99
3 100 327 22
3 104 314 23
3 23 310 100
3 23 348 310
3 314 348 23
3 69 343 68
3 68 343 316
3 70 335 69
3 335 343 69
3 71 318 70
3 318 335 70
3 71 319 318
3 73 319 72
3 74 305 73
3 305 319 73
3 76 336 75
3 336 353 75
3 77 307 76
3 307 336 76
3 78 344 77
3 77 344 307
3 300 344 78
3 82 333 81
3 81 333 315
3 83 306 82
3 306 333 82
3 84 332 83
3 83 332 306
3 299 332 84
3 88 329 87
3 87 329 297
3 89 304 88
3 304 329 88
3 90 328 89
3 89 328 304
3 91 337 90
3 90 337 328
3 91 350 337
3 92 302 93
3 92 351 302
3 302 350 93
3 94 323 95
3 308 323 94
3 95 330 96
3 323 330 95
3 96 317 97
3 96 330 317
3 97 338 98
3 317 338 97
3 338 351 98
3 101 322 102
3 298 322 101
3 102 331 103
3 322 331 102
3 103 321 104
3 103 331 321
3 104 321 314
3 66 326 312
3 313 324 80
3 312 326 67
3 79 324 313
3 310 327 100
3 85 325 311
3 99 327 310
3 311 325 86
3 297 341 303
3 329 341 297
3 298 352 322
3 298 345 339
3 339 352 298
3 299 347 332
3 342 347 299
3 299 349 342
3 301 334 300
3 316 320 300
3 300 334 316
3 320 344 300
3 313 346 301
3 301 339 334
3 301 346 339
3 302 338 337
3 337 350 302
3 302 351 338
3 303 341 309
3 309 342 303
3 303 349 311
3 342 349 303
3 304 328 317
3 317 330 304
3 323 329 304
3 304 330 323
3 305 340 319
3 305 353 340
3 321 331 306
3 306 332 321
3 306 331 322
3 322 333 306
3 307 335 318
3 318 336 307
3 320 335 307
3 307 344 320
3 309 341 308
3 308 341 323
3 310 348 309
3 309 348 342
3 334 345 312
3 321 347 314
3 314 347 342
3 342 348 314
3 333 352 315
3 339 346 315
3 315 352 339
3 316 343 320
3 328 337 317
3 337 338 317
3 319 340 318
3 318 340 336
3 320 343 335
3 332 347 321
3 322 352 333
3 323 341 329
3 339 345 334
3 340 353 336
3 66 0 126
3 66 354 1
3 1 354 105
3 115 355 12
3 12 355 80
3 118 13 80
3 112 24 113
3 112 123 24
3 116 113 24
3 107 25 108
3 119 108 25
3 107 124 25
3 105 361 106
3 107 106 124
3 106 361 124
3 108 359 109
3 119 359 108
3 109 357 110
3 110 356 111
3 121 356 110
3 110 357 121
3 111 358 112
3 112 358 123
3 114 113 116
3 114 355 115
3 116 360 114
3 114 360 355
3 117 360 116
3 118 355 117
3 355 360 117
3 120 357 109
3 109 359 120
3 120 359 119
3 121 357 120
3 111 356 122
3 122 358 111
3 122 356 121
3 123 358 122
3 124 361 125
3 125 354 126
3 125 361 354
3 126 354 66
3 354 361 105
3 80 355 118
3 1 368 2
3 105 368 1
3 2 368 127
3 11 362 12
3 137 362 11
3 12 362 115
3 106 367 128
3 128 369 106
3 106 369 105
3 107 367 106
3 130 366 108
3 108 370 130
3 108 366 107
3 109 370 108
3 110 372 132
3 132 373 110
3 110 373 109
3 111 372 110
3 112 363 134
3 134 371 112
3 112 371 111
3 113 363 112
3 136 364 114
3 114 365 136
3 114 364 113
3 115 365 114
3 127 369 128
3 128 367 129
3 129 366 130
3 130 370 131
3 131 373 132
3 132 372 133
3 133 371 134
3 134 363 135
3 135 364 136
3 136 365 137
3 127 368 105
3 105 369 127
3 107 366 129
3 129 367 107
3 131 370 109
3 109 373 131
3 111 371 133
3 133 372 111
3 135 363 113
3 113 364 135
3 115 362 137
3 137 365 115
3 2 374 67
3 127 374 2
3 67 138 3
3 146 79 10
3 11 375 137
3 79 375 11
3 129 130 26
3 145 26 130
3 129 26 140
3 134 135 27
3 27 141 134
3 27 135 148
3 129 140 128
3 140 380 128
3 128 380 127
3 145 130 131
3 132 377 131
3 133 376 132
3 132 376 143
3 143 377 132
3 134 378 133
3 141 378 134
3 148 135 136
3 137 375 136
3 136 379 148
3 375 379 136
3 138 374 139
3 139 380 140
3 374 380 139
3 142 376 133
3 133 378 142
3 142 378 141
3 143 376 142
3 145 131 144
3 131 377 144
3 144 377 143
3 147 375 146
3 148 379 147
3 147 379 375
3 67 374 138
3 127 380 374
3 146 375 79
3 3 390 68
3 138 390 3
3 71 394 4
3 4 394 149
3 155 391 26
3 26 391 140
3 150 395 28
3 28 395 154
3 151 392 29
3 29 392 155
3 68 383 69
3 68 390 383
3 69 386 70
3 383 386 69
3 70 388 71
3 386 388 70
3 388 394 71
3 139 390 138
3 140 381 139
3 381 390 139
3 149 384 150
3 149 394 384
3 384 395 150
3 152 387 151
3 387 392 151
3 153 382 152
3 382 387 152
3 154 389 153
3 153 389 382
3 154 395 389
3 155 392 391
3 140 391 381
3 385 390 381
3 381 391 385
3 382 396 387
3 389 393 382
3 393 396 382
3 383 390 385
3 385 396 383
3 383 396 386
3 388 393 384
3 384 394 388
3 384 393 389
3 389 395 384
3 385 392 387
3 387 396 385
3 391 392 385
3 386 393 388
3 386 396 393
3 5 4 397
3 4 149 397
3 166 5 397
3 9 8 398
3 8 159 398
3 163 9 398
3 30 28 158
3 168 28 30
3 168 150 28
3 28 165 158
3 31 156 32
3 31 32 161
3 156 164 32
3 161 32 162
3 150 167 149
3 167 166 149
3 149 166 397
3 168 167 150
3 164 156 157
3 165 157 158
3 165 164 157
3 159 160 163
3 159 163 398
3 160 161 162
3 160 162 163
3 5 402 6
3 166 402 5
3 6 402 169
3 33 399 30
3 30 399 168
3 171 399 33
3 167 400 166
3 166 400 169
3 169 402 166
3 168 401 167
3 170 400 167
3 167 401 170
3 168 399 171
3 171 401 168
3 169 400 170
3 170 401 171
3 6 413 72
3 169 413 6
3 74 415 7
3 7 415 175
3 33 414 171
3 174 414 33
3 34 412 172
3 177 412 34
3 72 411 73
3 72 413 411
3 73 404 74
3 73 411 404
3 404 415 74
3 170 405 169
3 405 413 169
3 171 407 170
3 170 407 405
3 171 414 407
3 172 410 173
3 172 412 410
3 173 403 174
3 173 410 403
3 403 414 174
3 175 409 176
3 175 415 409
3 176 406 177
3 176 409 406
3 406 412 177
3 403 408 407
3 407 414 403
3 403 410 408
3 408 409 404
3 404 411 408
3 409 415 404
3 407 408 405
3 408 411 405
3 411 413 405
3 406 409 408
3 408 410 406
3 410 412 406
3 8 7 419
3 7 175 419
3 159 8 419
3 34 31 416
3 31 161 416
3 177 34 416
3 160 159 418
3 159 175 418
3 175 159 419
3 161 160 417
3 160 176 417
3 176 160 418
3 161 177 416
3 177 161 417
3 175 176 418
3 176 177 417
3 75 9 433
3 9 163 433
3 10 78 429
3 146 10 429
3 182 27 430
3 27 148 430
3 162 32 434
3 32 178 434
3 181 35 431
3 35 182 431
3 76 75 427
3 427 75 433
3 77 76 425
3 425 76 427
3 78 77 422
3 422 77 425
3 78 422 429
3 147 146 429
3 148 147 420
3 420 147 429
3 163 162 423
3 423 162 434
3 163 423 433
3 178 179 428
3 178 428 434
3 179 180 421
3 179 421 428
3 180 181 426
3 421 180 426
3 426 181 431
3 182 430 431
3 148 420 430
3 424 420 429
3 420 424 430
3 421 426 435
3 428 421 432
3 432 421 435
3 422 424 429
3 424 422 435
3 422 425 435
3 427 423 432
3 423 427 433
3 423 428 432
3 428 423 434
3 424 426 431
3 426 424 435
3 430 424 431
3 425 427 432
3 425 432 435
3 81 13 447
3 13 118 447
3 14 84 446
3 189 14 446
3 24 183 449
3 116 24 449
3 183 36 451
3 36 187 451
3 184 37 450
3 37 188 450
3 188 38 448
3 38 191 448
3 82 81 439
3 439 81 447
3 83 82 443
3 82 439 443
3 84 83 440
3 440 83 443
3 84 440 446
3 117 116 436
3 118 117 447
3 117 436 447
3 449 183 451
3 185 184 445
3 445 184 450
3 186 185 438
3 438 185 445
3 187 186 444
3 186 438 444
3 187 444 451
3 188 448 450
3 190 189 446
3 191 190 437
3 437 190 446
3 436 116 449
3 191 437 448
3 436 442 447
3 442 436 449
3 441 437 446
3 437 441 448
3 444 438 453
3 438 445 452
3 438 452 453
3 442 439 447
3 439 442 453
3 443 439 453
3 440 441 446
3 441 440 452
3 440 443 452
3 441 445 450
3 445 441 452
3 448 441 450
3 444 442 451
3 442 444 453
3 442 449 451
3 452 443 453
3 189 85 14
3 15 454 210
3 85 454 15
3 22 455 100
3 200 455 22
3 100 192 23
3 207 208 38
3 38 195 207
3 38 208 191
3 202 203 39
3 199 39 203
3 202 39 194
3 190 454 189
3 191 459 190
3 190 459 454
3 192 455 193
3 193 460 194
3 455 460 193
3 196 456 206
3 206 458 196
3 196 458 195
3 197 456 196
3 199 204 198
3 204 457 198
3 198 457 197
3 202 194 201
3 194 460 201
3 201 460 200
3 199 203 204
3 205 457 204
3 206 456 205
3 205 456 197
3 197 457 205
3 207 458 206
3 195 458 207
3 191 208 209
3 210 454 209
3 209 459 191
3 454 459 209
3 100 455 192
3 200 460 455
3 189 454 85
3 15 461 16
3 210 461 15
3 16 461 221
3 21 467 22
3 211 467 21
3 22 467 200
3 212 466 201
3 201 468 212
3 200 468 201
3 201 466 202
3 203 465 214
3 214 471 203
3 202 465 203
3 203 471 204
3 216 469 205
3 205 472 216
3 204 472 205
3 205 469 206
3 218 462 207
3 207 470 218
3 206 470 207
3 207 462 208
3 209 463 220
3 220 464 209
3 208 463 209
3 209 464 210
3 212 468 211
3 213 466 212
3 214 465 213
3 215 471 214
3 216 472 215
3 217 469 216
3 218 470 217
3 219 462 218
3 220 463 219
3 221 464 220
3 200 467 211
3 211 468 200
3 213 465 202
3 202 466 213
3 204 471 215
3 215 472 204
3 206 469 217
3 217 470 206
3 208 462 219
3 219 463 208
3 221 461 210
3 210 464 221
3 221 473 16
3 16 473 86
3 224 17 86
3 20 232 99
3 99 474 21
3 21 474 211
3 218 40 219
3 218 229 40
3 222 219 40
3 213 41 214
3 225 214 41
3 213 230 41
3 211 480 212
3 213 212 230
3 212 480 230
3 214 478 215
3 225 478 214
3 215 476 216
3 216 475 217
3 227 475 216
3 216 476 227
3 217 477 218
3 218 477 229
3 220 219 222
3 220 473 221
3 222 479 220
3 220 479 473
3 223 479 222
3 224 473 223
3 473 479 223
3 226 476 215
3 215 478 226
3 226 478 225
3 227 476 226
3 217 475 228
3 228 477 217
3 228 475 227
3 229 477 228
3 230 480 231
3 231 474 232
3 231 480 474
3 232 474 99
3 474 480 211
3 86 473 224
3 87 17 493
3 17 224 493
3 44 18 499
3 18 91 499
3 40 233 495
3 222 40 495
3 233 42 494
3 42 237 494
3 234 43 491
3 43 239 491
3 238 44 492
3 492 44 499
3 88 87 485
3 485 87 493
3 89 88 488
3 88 485 488
3 90 89 484
3 484 89 488
3 91 90 487
3 90 484 487
3 91 487 499
3 223 222 481
3 224 223 493
3 223 481 493
3 233 494 495
3 235 234 490
3 490 234 491
3 236 235 483
3 483 235 490
3 237 236 489
3 236 483 489
3 237 489 494
3 239 238 482
3 482 238 492
3 239 482 491
3 481 222 495
3 485 481 486
3 481 485 493
3 486 481 495
3 487 482 492
3 482 487 496
3 491 482 496
3 489 483 498
3 483 490 497
3 483 497 498
3 487 484 496
3 484 488 497
3 496 484 497
3 485 486 498
3 488 485 498
3 489 486 494
3 486 489 498
3 494 486 495
3 487 492 499
3 497 488 498
3 490 491 496
3 490 496 497
3 44 500 18
3 18 500 93
3 19 501 45
3 92 501 19
3 241 500 44
3 45 501 240
3 93 502 92
3 92 502 501
3 500 502 93
3 240 502 241
3 501 502 240
3 241 502 500
3 45 521 19
3 19 521 98
3 94 515 20
3 20 515 232
3 41 517 242
3 230 517 41
3 247 514 45
3 514 521 45
3 242 516 46
3 46 516 246
3 243 513 47
3 47 513 248
3 95 507 94
3 507 515 94
3 96 510 95
3 95 510 507
3 97 506 96
3 506 510 96
3 98 509 97
3 97 509 506
3 98 521 509
3 231 503 230
3 232 515 231
3 231 515 503
3 242 517 516
3 244 512 243
3 512 513 243
3 245 505 244
3 505 512 244
3 246 511 245
3 245 511 505
3 246 516 511
3 248 504 247
3 504 514 247
3 248 513 504
3 503 517 230
3 507 508 503
3 503 515 507
3 508 517 503
3 509 514 504
3 504 518 509
3 513 518 504
3 511 520 505
3 505 519 512
3 505 520 519
3 509 518 506
3 506 519 510
3 518 519 506
3 507 520 508
3 510 520 507
3 511 516 508
3 508 520 511
3 516 517 508
3 509 521 514
3 519 520 510
3 512 518 513
3 512 519 518
3 101 533 0
3 0 533 126
3 23 532 104
3 192 532 23
3 25 535 249
3 124 535 25
3 254 534 39
3 39 534 194
3 249 537 48
3 48 537 253
3 250 536 49
3 49 536 254
3 102 525 101
3 525 533 101
3 103 529 102
3 102 529 525
3 104 526 103
3 526 529 103
3 104 532 526
3 125 522 124
3 126 533 125
3 125 533 522
3 193 532 192
3 194 523 193
3 523 532 193
3 535 537 249
3 251 531 250
3 531 536 250
3 252 524 251
3 524 531 251
3 253 530 252
3 252 530 524
3 253 537 530
3 254 536 534
3 522 535 124
3 194 534 523
3 522 533 528
3 528 535 522
3 527 532 523
3 523 534 527
3 530 539 524
3 524 538 531
3 524 539 538
3 528 533 525
3 525 539 528
3 529 539 525
3 526 532 527
3 527 538 526
3 526 538 529
3 527 536 531
3 531 538 527
3 534 536 527
3 530 537 528
3 528 539 530
3 528 537 535
3 538 539 529
3 24 123 183
3 119 25 249
3 183 543 36
3 36 543 256
3 48 542 249
3 255 542 48
3 119 540 120
3 120 540 121
3 121 541 122
3 122 541 123
3 123 541 183
3 541 543 183
3 249 540 119
3 249 542 540
3 256 540 255
3 540 542 255
3 256 543 540
3 540 541 121
3 540 543 541
3 155 26 145
3 182 141 27
3 155 546 29
3 29 546 257
3 35 548 182
3 258 548 35
3 141 545 142
3 142 547 143
3 545 547 142
3 143 544 144
3 144 546 145
3 544 546 144
3 145 546 155
3 182 545 141
3 182 548 545
3 257 547 258
3 257 546 544
3 544 547 257
3 547 548 258
3 143 547 544
3 545 548 547
3 154 558 28
3 28 558 165
3 29 560 151
3 257 560 29
3 164 559 32
3 32 559 178
3 181 557 35
3 35 557 258
3 151 556 152
3 151 560 556
3 152 552 153
3 152 556 552
3 153 553 154
3 552 553 153
3 553 558 154
3 165 550 164
3 550 559 164
3 165 558 550
3 178 555 179
3 178 559 555
3 179 551 180
3 179 555 551
3 180 554 181
3 551 554 180
3 554 557 181
3 258 549 257
3 549 560 257
3 258 557 549
3 554 556 549
3 549 557 554
3 556 560 549
3 553 555 550
3 550 558 553
3 555 559 550
3 551 553 552
3 552 554 551
3 551 555 553
3 552 556 554
3 30 561 33
3 158 561 30
3 34 563 31
3 31 563 156
3 33 561 174
3 172 563 34
3 156 564 157
3 156 563 172
3 172 564 156
3 157 562 158
3 173 562 157
3 157 564 173
3 174 561 158
3 158 562 174
3 173 564 172
3 174 562 173
3 36 575 187
3 256 575 36
3 184 574 37
3 37 574 260
3 253 576 48
3 48 576 255
3 49 573 250
3 259 573 49
3 185 572 184
3 572 574 184
3 186 565 185
3 565 572 185
3 187 571 186
3 186 571 565
3 187 575 571
3 250 569 251
3 250 573 569
3 251 568 252
3 251 569 568
3 252 570 253
3 568 570 252
3 570 576 253
3 255 566 256
3 255 576 566
3 566 575 256
3 260 567 259
3 567 573 259
3 260 574 567
3 568 569 565
3 565 571 568
3 569 572 565
3 570 571 566
3 566 576 570
3 571 575 566
3 567 572 569
3 569 573 567
3 567 574 572
3 568 571 570
3 37 581 188
3 260 581 37
3 195 38 188
3 254 39 199
3 254 579 49
3 49 579 259
3 188 578 195
3 188 581 578
3 195 578 196
3 196 580 197
3 578 580 196
3 197 577 198
3 198 579 199
3 577 579 198
3 199 579 254
3 259 580 260
3 259 579 577
3 577 580 259
3 580 581 260
3 197 580 577
3 578 581 580
3 233 40 229
3 225 41 242
3 233 584 42
3 42 584 262
3 46 586 242
3 261 586 46
3 225 583 226
3 226 585 227
3 583 585 226
3 227 582 228
3 228 584 229
3 582 584 228
3 229 584 233
3 242 583 225
3 242 586 583
3 262 585 261
3 585 586 261
3 262 584 582
3 582 585 262
3 227 585 582
3 583 586 585
3 42 598 237
3 262 598 42
3 234 596 43
3 43 596 264
3 246 597 46
3 46 597 261
3 47 595 243
3 263 595 47
3 235 594 234
3 594 596 234
3 236 587 235
3 587 594 235
3 237 593 236
3 236 593 587
3 237 598 593
3 243 591 244
3 243 595 591
3 244 590 245
3 244 591 590
3 245 592 246
3 590 592 245
3 592 597 246
3 261 588 262
3 261 597 588
3 588 598 262
3 264 589 263
3 589 595 263
3 264 596 589
3 590 591 587
3 587 593 590
3 591 594 587
3 592 593 588
3 588 597 592
3 593 598 588
3 589 594 591
3 591 595 589
3 589 596 594
3 590 593 592
3 43 603 239
3 264 603 43
3 238 604 44
3 44 604 241
3 240 605 45
3 45 605 247
3 248 606 47
3 47 606 263
3 239 599 238
3 599 604 238
3 239 603 599
3 241 602 240
3 602 605 240
3 241 604 602
3 247 600 248
3 247 605 600
3 600 606 248
3 263 601 264
3 263 606 601
3 601 603 264
3 601 602 599
3 599 603 601
3 602 604 599
3 600 602 601
3 601 606 600
3 600 605 602
3 265 267 50
3 51 267 266
3 267 265 266
3 265 50 608
3 50 268 608
3 51 266 607
3 272 51 607
3 268 52 608
3 52 269 608
3 271 53 607
3 53 272 607
3 266 265 270
3 270 265 269
3 269 265 608
3 271 266 270
3 266 271 607
3 267 610 50
3 50 610 268
3 51 609 267
3 272 609 51
3 52 611 54
3 268 611 52
3 57 612 53
3 53 612 272
3 54 611 273
3 273 610 55
3 55 610 274
3 274 609 56
3 56 609 275
3 275 612 57
3 267 609 274
3 274 610 267
3 610 611 268
3 272 612 609
3 273 611 610
3 609 612 275
3 52 54 613
3 269 52 613
3 278 57 53
3 271 278 53
3 54 276 613
3 270 269 614
3 276 269 613
3 269 276 614
3 271 270 615
3 277 270 614
3 270 277 615
3 278 271 615
3 276 277 614
3 277 278 615
3 54 273 616
3 276 54 616
3 273 55 616
3 55 279 616
3 56 275 617
3 280 56 617
3 275 57 617
3 57 278 617
3 276 279 277
3 279 276 616
3 278 277 280
3 280 277 279
3 278 280 617
3 274 279 55
3 280 274 56
3 280 279 274
3 281 283 58
3 283 282 59
3 282 283 281
3 281 58 619
3 58 284 619
3 59 282 618
3 288 59 618
3 284 60 619
3 60 285 619
3 287 61 618
3 61 288 618
3 282 281 286
3 286 281 285
3 285 281 619
3 287 282 286
3 282 287 618
3 283 621 58
3 58 621 284
3 59 620 283
3 288 620 59
3 60 622 62
3 284 622 60
3 65 623 61
3 61 623 288
3 62 622 289
3 289 621 63
3 63 621 290
3 290 620 64
3 64 620 291
3 291 623 65
3 283 620 290
3 290 621 283
3 621 622 284
3 288 623 620
3 289 622 621
3 620 623 291
3 60 62 624
3 285 60 624
3 287 65 61
3 62 292 624
3 287 294 65
3 286 285 625
3 292 285 624
3 285 292 625
3 286 293 287
3 293 286 625
3 293 294 287
3 292 293 625
3 62 289 626
3 292 62 626
3 289 63 626
3 63 295 626
3 64 291 627
3 296 64 627
3 291 65 627
3 65 294 627
3 292 295 293
3 295 292 626
3 294 293 296
3 296 293 295
3 294 296 627
3 290 295 63
3 296 290 64
3 296 295 290
4 558 389 395 638
4 332 630 440 633
4 555 635 428 636
4 439 629 333 633
4 534 198 523 630
4 386 335 635 636
4 592 505 511 643
4 536 531 573 630
4 484 328 632 634
4 205 206 469 456
4 111 110 372 356
4 204 205 472 457
4 132 131 377 373
4 144 381 391 631
4 576 537 542 642
4 582 598 588 628
4 445 630 572 633
4 598 494 489 639
4 584 494 598 628
4 215 216 476 472
4 216 217 475 469
4 110 109 373 357
4 133 132 376 372
4 490 639 497 643
4 198 279 523 630
4 490 497 632 643
4 295 381 144 631
4 530 629 570 633
4 575 451 444 629
4 579 536 573 630
4 389 635 395 638
4 387 560 392 631
4 570 576 566 629
4 573 567 577 630
4 443 453 439 633
4 539 529 525 633
4 544 560 549 631
4 425 636 635 647
4 549 560 556 631
4 546 392 560 631
4 286 285 120 625
4 505 520 511 643
4 384 149 408 635
4 459 223 479 222
4 490 483 497 639
4 574 567 572 630
4 453 629 439 633
4 525 629 539 633
4 440 452 443 633
4 538 526 529 633
4 575 566 543 629
4 228 481 495 628
4 411 408 149 635
4 598 628 494 639
4 592 511 639 643
4 530 537 576 629
4 597 592 511 645
4 266 481 228 628
4 520 639 511 643
4 588 628 598 639
4 489 494 486 639
4 484 632 497 634
4 440 630 452 633
4 538 630 526 633
4 520 628 511 639
4 544 546 560 631
4 592 511 628 639
4 305 433 404 635
4 163 404 433 638
4 328 484 632 637
4 582 584 598 628
4 389 393 635 636
4 575 543 451 641
4 556 560 387 631
4 579 573 577 630
4 558 395 165 638
4 149 384 394 635
4 386 635 393 636
4 408 384 635 638
4 570 530 576 629
4 404 635 433 638
4 425 432 635 636
4 329 488 485 634
4 266 297 485 628
4 340 411 319 635
4 488 498 485 634
4 329 485 628 634
4 428 635 432 636
4 594 490 632 643
4 575 451 629 641
4 498 628 485 634
4 574 572 445 644
4 389 384 395 635
4 485 297 266 481
4 389 382 393 636
4 388 393 386 635
4 432 427 425 635
4 443 439 306 633
4 150 165 395 638
4 265 308 628 645
4 333 629 322 633
4 576 629 537 642
4 440 443 306 633
4 318 386 335 635
4 445 452 630 633
4 538 531 630 633
4 317 632 328 634
4 322 629 525 633
4 306 332 440 633
4 497 634 632 643
4 567 630 574 644
4 439 333 306 633
4 556 631 387 636
4 599 603 482 632
4 297 266 341 628
4 341 265 308 628
4 321 630 332 633
4 571 566 575 629
4 592 628 511 645
4 425 635 307 647
4 428 432 421 636
4 497 639 634 643
4 364 360 379 136
4 463 479 459 209
4 395 635 384 638
4 526 630 321 633
4 569 567 573 630
4 574 630 572 644
4 516 597 511 645
4 408 635 404 638
4 592 628 588 639
4 426 557 631 646
4 381 295 390 631
4 150 395 384 638
4 199 523 534 198
4 389 635 553 636
4 444 629 453 633
4 539 629 530 633
4 279 532 523 630
4 553 635 555 636
4 572 630 569 633
4 570 629 571 633
4 494 628 486 639
4 549 631 557 646
4 228 227 266 628
4 595 601 606 632
4 594 587 490 643
4 328 632 317 637
4 485 481 266 628
4 144 145 391 381
4 576 542 540 642
4 558 553 389 638
4 150 384 408 638
4 404 408 411 635
4 569 630 531 633
4 540 566 576 629
4 280 299 347 630
4 299 630 280 644
4 571 570 566 629
4 426 431 557 646
4 297 485 493 481
4 450 574 445 644
4 383 386 396 647
4 551 555 428 636
4 569 572 567 630
4 575 629 543 641
4 569 573 531 630
4 388 386 318 635
4 228 229 495 481
4 572 630 445 644
4 549 257 560 544
4 634 639 520 643
4 601 596 603 632
4 490 587 483 639
4 198 197 279 630
4 317 506 632 634
4 117 379 116 360
4 143 295 144 631
4 587 639 490 643
4 452 445 438 633
4 531 538 524 633
4 428 635 555 638
4 556 554 549 631
4 486 494 584 628
4 552 382 389 636
4 632 634 506 643
4 595 606 513 632
4 444 571 629 633
4 308 265 50 515
4 386 636 396 647
4 565 438 445 633
4 383 631 343 647
4 520 634 628 639
4 411 305 340 319
4 557 549 554 631
4 571 575 444 629
4 496 497 484 632
4 365 379 360 136
4 464 459 479 209
4 405 149 411 408
4 297 329 485 628
4 551 428 421 636
4 595 589 601 632
4 317 632 506 640
4 507 628 308 645
4 314 532 279 630
4 396 631 383 647
4 270 269 226 614
4 299 280 446 644
4 491 603 596 632
4 585 582 588 628
4 316 343 383 631
4 495 481 486 628
4 601 603 599 632
4 423 163 433 638
4 277 276 614 198
4 271 270 228 615
4 387 631 396 636
4 569 531 524 633
4 222 479 459 463
4 549 547 544 631
4 379 360 364 116
4 314 279 347 630
4 596 601 589 632
4 553 635 389 638
4 444 453 438 633
4 539 530 524 633
4 565 445 572 633
4 397 402 5 166
4 8 159 419 398
4 386 335 636 647
4 423 433 635 638
4 588 262 598 582
4 606 601 600 640
4 527 534 523 630
4 383 335 386 647
4 482 603 491 632
4 577 567 580 630
4 435 631 426 636
4 307 318 335 635
4 558 550 553 638
4 338 506 509 640
4 536 527 531 630
4 297 341 329 628
4 592 590 505 643
4 568 524 530 633
4 335 383 343 647
4 391 381 385 631
4 317 637 632 640
4 577 573 259 567
4 568 530 570 633
4 320 343 631 647
4 496 632 484 637
4 396 636 631 647
4 557 554 426 631
4 571 444 438 633
4 507 628 520 634
4 332 347 299 630
4 332 299 446 630
4 299 446 630 644
4 520 508 511 628
4 278 277 615 196
4 306 333 322 633
4 516 586 597 645
4 293 292 625 144
4 484 497 488 634
4 606 600 504 640
4 316 390 295 631
4 387 392 385 631
4 498 628 634 639
4 329 304 488 634
4 574 450 581 644
4 306 321 332 633
4 328 317 337 637
4 554 631 556 636
4 338 637 317 640
4 382 556 387 636
4 381 390 385 631
4 601 603 596 264
4 426 631 554 636
4 527 579 534 630
4 506 632 518 640
4 597 585 588 645
4 316 320 343 631
4 391 385 546 631
4 523 532 527 630
4 595 513 512 632
4 497 496 490 632
4 547 549 557 646
4 431 548 557 646
4 576 540 629 642
4 580 567 574 644
4 596 594 490 632
4 518 632 506 643
4 321 306 331 633
4 606 504 513 640
4 595 601 263 606
4 579 527 536 630
4 631 636 435 647
4 566 540 543 629
4 451 442 444 629
4 530 528 537 629
4 592 639 590 643
4 510 507 520 634
4 336 353 340 635
4 322 331 306 633
4 585 628 588 645
4 606 513 632 640
4 511 628 508 645
4 390 316 383 631
4 352 315 282 641
4 547 631 549 646
4 446 440 332 630
4 519 506 634 643
4 385 392 546 631
4 601 599 602 632
4 553 555 635 638
4 491 596 490 632
4 264 596 601 589
4 338 317 506 640
4 546 560 257 544
4 228 582 227 628
4 580 630 567 644
4 593 588 598 639
4 279 280 347 630
4 606 632 601 640
4 352 333 315 641
4 378 358 371 142
4 329 628 323 634
4 546 385 391 392
4 446 440 630 644
4 547 557 548 646
4 574 581 580 644
4 553 550 555 638
4 266 265 341 628
4 510 506 330 634
4 263 589 601 595
4 585 597 586 645
4 323 308 507 628
4 527 579 536 534
4 266 51 607 481
4 328 337 484 637
4 197 198 577 630
4 487 496 484 637
4 323 628 507 634
4 389 553 552 636
4 442 629 451 641
4 537 629 528 642
4 144 544 143 631
4 445 452 441 630
4 538 531 527 630
4 422 631 429 646
4 485 486 481 628
4 551 553 555 636
4 426 435 424 631
4 385 396 387 631
4 336 433 353 635
4 596 589 594 632
4 516 511 508 645
4 599 632 482 637
4 341 308 323 628
4 240 502 302 637
4 429 422 300 631
4 444 442 453 629
4 528 530 539 629
4 300 295 296 631
4 518 506 519 643
4 422 429 300 344
4 527 532 526 630
4 240 302 351 640
4 599 602 632 637
4 498 488 497 634
4 510 323 507 634
4 584 598 262 582
4 390 383 385 631
4 571 438 565 633
4 352 629 333 641
4 573 579 577 259
4 595 512 591 632
4 351 240 502 302
4 569 524 568 633
4 357 625 120 373
4 404 163 409 638
4 352 282 629 641
4 323 510 330 634
4 298 352 281 642
4 314 347 321 630
4 396 382 387 636
4 165 550 558 638
4 333 629 439 641
4 227 266 628 645
4 572 569 565 633
4 314 321 532 630
4 532 321 526 630
4 136 364 360 114
4 209 463 479 220
4 407 150 408 638
4 498 634 497 639
4 300 631 296 646
4 295 300 316 631
4 568 570 571 633
4 295 626 381 390
4 525 298 533 642
4 487 484 337 637
4 486 485 498 628
4 520 507 508 628
4 626 295 63 390
4 627 429 64 296
4 547 548 557 258
4 445 630 441 644
4 59 282 315 641
4 426 631 424 646
4 523 279 616 532
4 320 335 343 647
4 223 459 479 53
4 440 441 452 630
4 527 526 538 630
4 447 315 333 641
4 279 630 197 644
4 428 423 635 638
4 453 442 439 629
4 528 539 525 629
4 240 521 514 640
4 429 300 296 646
4 298 322 352 642
4 295 631 143 646
4 386 393 396 636
4 616 279 55 532
4 617 446 56 280
4 317 330 506 634
4 9 163 398 415
4 322 629 352 642
4 149 4 397 413
4 51 493 607 481
4 421 435 426 636
4 299 56 446 280
4 258 557 547 549
4 383 396 385 631
4 305 433 163 404
4 260 574 581 580
4 585 586 597 261
4 257 549 547 544
4 506 518 509 640
4 597 588 585 261
4 338 337 317 637
4 382 552 556 636
4 423 432 428 635
4 389 393 384 635
4 595 591 589 632
4 222 190 459 223
4 496 482 491 632
4 525 629 322 642
4 298 525 322 642
4 433 336 427 635
4 429 631 300 646
4 435 636 425 647
4 260 574 580 567
4 336 318 307 635
4 505 245 592 511
4 491 490 496 632
4 513 518 512 632
4 425 435 432 636
4 592 588 593 639
4 529 539 538 633
4 443 452 453 633
4 435 424 631 647
4 197 277 198 279
4 228 266 227 270
4 407 408 403 638
4 318 340 319 635
4 529 331 526 103
4 525 529 102 331
4 318 394 388 635
4 421 426 554 636
4 136 360 365 114
4 209 479 464 220
4 318 319 394 635
4 447 333 439 641
4 486 628 498 639
4 539 524 538 633
4 452 438 453 633
4 593 598 489 639
4 425 427 76 336
4 55 279 314 532
4 601 632 602 640
4 329 323 304 634
4 382 387 556 152
4 240 637 302 640
4 320 316 300 631
4 584 486 495 494
4 300 320 631 647
4 281 58 298 642
4 591 632 512 643
4 426 424 431 646
4 300 290 296 295
4 371 358 378 141
4 143 295 293 144
4 300 344 320 647
4 589 591 594 632
4 58 281 619 642
4 618 282 59 641
4 510 519 506 634
4 316 63 295 390
4 588 262 582 585
4 341 323 329 628
4 279 276 523 616
4 295 626 292 381
4 352 322 333 629
4 394 384 388 635
4 423 433 427 635
4 240 514 605 640
4 396 393 382 636
4 422 424 631 646
4 450 445 441 644
4 259 580 577 567
4 482 632 496 637
4 508 628 507 645
4 434 559 164 638
4 422 429 424 646
4 330 304 323 634
4 441 630 440 644
4 384 393 388 635
4 432 423 427 635
4 121 122 541 641
4 509 514 521 640
4 351 302 338 640
4 594 632 591 643
4 509 506 338 97
4 486 498 489 639
4 265 628 266 645
4 510 96 330 506
4 447 59 315 641
4 332 321 347 630
4 509 521 351 640
4 281 282 352 283
4 632 637 602 640
4 559 164 32 434
4 279 280 274 347
4 459 53 464 479
4 280 630 279 644
4 296 631 295 646
4 542 537 535 642
4 359 120 625 370
4 555 559 434 638
4 271 266 607 481
4 432 435 421 636
4 446 441 440 644
4 358 294 122 142
4 552 553 551 636
4 423 162 163 638
4 500 492 499 637
4 434 428 555 638
4 583 586 516 645
4 404 409 408 638
4 422 631 424 647
4 304 317 328 634
4 227 628 582 645
4 306 82 439 443
4 561 33 174 414
4 578 581 450 644
4 439 629 442 641
4 525 528 629 642
4 241 492 500 637
4 34 412 563 172
4 519 634 520 643
4 306 440 83 443
4 300 64 429 296
4 88 488 485 329
4 300 290 295 316
4 604 482 492 637
4 543 575 256 566
4 190 222 459 191
4 356 372 122 142
4 518 512 632 643
4 501 240 502 351
4 165 164 550 638
4 502 500 350 241
4 505 519 520 643
4 545 548 431 646
4 197 630 577 644
4 164 162 434 638
4 143 631 544 646
4 409 163 162 638
4 565 568 571 633
4 386 318 70 388
4 569 568 565 633
4 120 357 373 109
4 604 492 241 637
4 120 359 109 370
4 356 372 111 122
4 419 175 7 415
4 102 322 525 331
4 58 619 533 642
4 618 59 447 641
4 402 413 6 169
4 162 32 164 434
4 150 28 395 165
4 307 425 76 336
4 171 33 399 414
4 445 565 185 438
4 164 165 410 638
4 416 412 34 177
4 439 82 306 333
4 582 628 585 645
4 58 533 298 642
4 599 482 604 637
4 332 440 83 306
4 552 389 382 153
4 428 179 551 421
4 199 534 579 198
4 121 641 629 642
4 121 541 540 641
4 526 331 321 103
4 298 525 533 101
4 391 145 144 546
4 228 229 584 495
4 502 240 241 637
4 302 637 338 640
4 558 395 28 165
4 624 380 361 369
4 613 460 480 468
4 435 422 424 647
4 179 551 555 428
4 601 602 600 640
4 587 594 591 643
4 421 554 551 636
4 382 556 552 152
4 241 350 502 637
4 484 488 89 328
4 245 592 590 505
4 96 317 330 506
4 410 564 172 173
4 110 121 357 373
4 121 356 372 110
4 338 509 351 640
4 577 630 580 644
4 90 487 484 337
4 350 302 502 637
4 317 338 506 97
4 544 631 547 646
4 185 572 565 445
4 519 510 520 634
4 406 177 417 176
4 148 379 364 116
4 547 548 545 646
4 281 282 286 642
4 566 256 543 540
4 585 586 583 645
4 286 641 121 642
4 578 580 581 644
4 554 556 552 636
4 269 231 52 608
4 403 562 173 174
4 503 265 608 645
4 191 222 459 463
4 121 286 122 641
4 286 121 120 642
4 429 420 424 646
4 446 437 441 644
4 587 490 483 235
4 484 90 337 328
4 428 434 423 638
4 163 415 305 404
4 335 318 70 386
4 336 340 318 635
4 330 317 304 634
4 483 236 489 639
4 530 568 252 524
4 157 562 165 158
4 156 564 164 157
4 499 350 500 637
4 330 323 95 510
4 9 163 415 305
4 350 241 500 637
4 226 270 227 645
4 197 196 277 644
4 294 420 627 646
4 241 240 602 637
4 614 476 472 226
4 599 604 602 637
4 570 568 252 530
4 587 594 490 235
4 426 554 180 421
4 403 410 165 638
4 121 540 629 641
4 472 457 614 198
4 144 625 377 373
4 162 164 406 638
4 395 389 558 154
4 547 258 549 257
4 555 550 559 638
4 53 271 607 223
4 488 88 304 329
4 343 335 69 383
4 447 436 618 641
4 522 533 619 642
4 121 629 540 642
4 510 323 95 507
4 400 405 169 170
4 525 298 322 101
4 482 496 487 637
4 590 592 593 639
4 456 615 196 469
4 269 608 265 645
4 171 401 170 407
4 267 341 266 265
4 617 278 437 644
4 475 228 615 469
4 521 509 351 98
4 350 499 487 637
4 537 542 535 249
4 142 293 143 646
4 294 627 296 646
4 587 590 639 643
4 267 303 341 309
4 176 418 409 175
4 246 516 597 511
4 242 516 583 586
4 629 641 282 642
4 216 472 227 476
4 376 372 132 143
4 227 475 469 216
4 256 566 255 540
4 182 431 545 548
4 143 132 377 373
4 205 197 472 457
4 197 456 205 469
4 301 290 300 334
4 380 624 128 369
4 460 613 201 468
4 480 212 613 468
4 361 106 624 369
4 125 285 619 60
4 127 368 374 105
4 503 608 269 645
4 200 211 467 455
4 240 602 637 640
4 498 497 483 639
4 386 69 335 383
4 400 166 149 167
4 163 418 160 159
4 581 578 450 188
4 226 265 270 645
4 413 319 411 149
4 280 277 196 644
4 499 492 487 637
4 487 492 482 637
4 150 405 407 408
4 583 516 242 517
4 190 53 459 223
4 158 28 30 561
4 32 31 563 156
4 244 512 505 643
4 499 487 91 350
4 599 239 482 603
4 248 606 600 504
4 617 280 278 644
4 514 504 247 605
4 492 604 238 482
4 282 641 286 642
4 525 533 528 642
4 447 439 442 641
4 583 516 517 645
4 304 89 488 328
4 559 178 555 434
4 574 184 450 445
4 560 151 387 392
4 53 190 278 223
4 389 552 553 153
4 598 237 489 494
4 450 578 448 188
4 193 276 54 616
4 545 431 182 430
4 502 501 351 92
4 292 139 626 62
4 530 253 576 537
4 394 71 318 388
4 448 578 450 644
4 500 350 93 502
4 540 542 535 642
4 286 120 281 642
4 282 122 286 641
4 61 287 618 117
4 149 4 413 319
4 417 161 162 160
4 167 401 168 150
4 296 293 142 646
4 318 319 71 394
4 109 625 120 370
4 29 560 546 392
4 508 507 503 645
4 106 128 624 369
4 212 201 613 468
4 431 430 545 646
4 338 302 337 637
4 579 536 49 573
4 42 598 584 494
4 34 412 416 563
4 439 447 81 333
4 44 499 500 492
4 266 51 297 341
4 596 490 594 234
4 575 444 451 187
4 588 262 585 261
4 409 162 406 638
4 422 425 77 647
4 31 32 416 161
4 30 28 168 399
4 315 81 447 333
4 274 280 299 347
4 282 315 352 283
4 294 293 122 142
4 403 408 410 638
4 278 57 617 190
4 265 50 341 308
4 143 544 547 646
4 269 265 226 645
4 294 65 627 147
4 509 338 351 98
4 531 536 573 250
4 428 555 178 434
4 87 485 493 297
4 259 260 580 567
4 73 305 411 319
4 515 94 308 507
4 197 577 580 644
4 431 557 181 426
4 554 552 551 636
4 543 183 451 449
4 227 582 585 645
4 294 296 142 646
4 489 236 593 639
4 543 541 183 449
4 321 532 526 104
4 288 59 118 618
4 284 58 619 126
4 596 491 490 234
4 592 246 597 511
4 514 504 605 640
4 581 574 37 450
4 559 550 164 638
4 297 87 485 329
4 461 85 454 15
4 12 355 362 80
4 281 120 285 642
4 436 447 442 641
4 528 533 522 642
4 409 406 408 638
4 206 217 615 470
4 587 236 483 639
4 46 516 586 597
4 73 305 404 411
4 321 314 532 104
4 151 387 556 560
4 16 473 461 86
4 606 248 513 504
4 239 491 482 603
4 422 77 344 647
4 79 362 11 375
4 554 551 180 421
4 468 200 460 455
4 369 380 374 127
4 513 243 595 512
4 280 196 278 644
4 354 361 369 105
4 468 480 211 474
4 540 249 535 542
4 147 117 65 379
4 212 201 466 613
4 367 106 128 624
4 249 540 535 119
4 480 211 212 468
4 369 361 106 105
4 274 279 347 314
4 165 403 407 414
4 471 478 614 226
4 92 351 502 302
4 286 285 281 120
4 4 149 394 319
4 369 128 380 127
4 460 201 200 468
4 196 615 458 470
4 253 576 570 530
4 35 431 548 557
4 587 591 590 643
4 591 512 244 643
4 560 257 29 546
4 502 350 93 302
4 458 615 195 470
4 477 229 615 470
4 604 238 482 599
4 600 247 504 605
4 225 269 226 645
4 164 410 406 638
4 446 440 84 332
4 423 434 162 638
4 518 519 512 643
4 477 615 228 470
4 122 282 287 641
4 334 290 300 316
4 243 591 595 512
4 240 605 602 640
4 429 422 78 344
4 425 307 77 647
4 141 294 142 646
4 542 576 48 537
4 283 352 281 298
4 184 574 572 445
4 471 478 225 614
4 590 593 587 639
4 553 558 389 154
4 299 446 84 332
4 244 505 590 643
4 359 625 119 370
4 49 579 573 259
4 189 56 275 617
4 192 55 616 273
4 140 124 367 624
4 337 350 487 637
4 598 262 42 584
4 291 146 64 627
4 626 63 289 138
4 362 375 137 11
4 16 473 221 461
4 74 9 415 305
4 454 461 15 210
4 12 355 115 362
4 52 608 231 268
4 282 122 287 286
4 278 223 271 53
4 466 194 230 613
4 489 593 237 598
4 122 372 111 142
4 399 33 561 414
4 222 190 223 278
4 350 487 91 337
4 543 451 36 575
4 133 372 376 142
4 215 472 476 226
4 469 196 456 206
4 478 471 215 226
4 206 196 458 470
4 378 371 133 142
4 319 72 4 413
4 245 246 592 511
4 57 464 454 459
4 475 228 469 217
4 196 195 278 644
4 600 605 504 640
4 120 121 540 642
4 457 472 204 198
4 373 377 144 131
4 355 365 61 360
4 217 477 228 470
4 319 411 72 413
4 336 433 75 353
4 323 308 94 507
4 360 355 365 114
4 473 464 479 220
4 531 573 569 250
4 344 77 307 647
4 604 241 602 637
4 483 489 498 639
4 589 601 264 263
4 442 451 449 641
4 535 537 528 642
4 444 575 571 187
4 21 467 474 327
4 435 425 422 647
4 368 326 2 374
4 294 141 420 646
4 602 605 600 640
4 300 429 78 344
4 459 464 454 209
4 365 375 379 136
4 607 53 223 272
4 455 467 22 327
4 120 119 285 642
4 576 253 48 537
4 368 1 326 354
4 574 184 37 450
4 177 161 162 417
4 335 320 307 647
4 305 415 74 404
4 512 519 505 643
4 361 380 62 369
4 480 460 54 468
4 372 133 111 142
4 402 4 413 397
4 597 46 516 246
4 143 547 142 646
4 65 365 375 379
4 585 226 227 645
4 371 111 133 142
4 427 433 75 336
4 195 437 278 644
4 197 580 196 644
4 473 464 53 479
4 472 215 204 198
4 144 373 131 109
4 65 117 287 61
4 398 419 9 415
4 51 17 272 224
4 410 408 406 638
4 252 253 570 530
4 234 490 594 235
4 285 522 619 642
4 555 178 179 428
4 412 164 410 406
4 122 287 123 641
4 224 223 272 607
4 268 232 608 231
4 593 236 587 639
4 50 341 267 265
4 195 448 437 644
4 467 211 21 474
4 354 368 1 105
4 2 368 374 127
4 619 60 284 125
4 618 61 117 288
4 22 200 467 455
4 303 267 342 309
4 287 293 286 122
4 287 293 122 294
4 612 275 311 349
4 273 310 348 611
4 146 429 64 627
4 626 63 138 390
4 420 429 147 627
4 390 626 381 139
4 53 190 57 278
4 514 509 504 640
4 141 430 420 646
4 504 509 518 640
4 185 184 572 445
4 617 190 446 437
4 193 523 616 532
4 590 591 244 643
4 123 294 358 141
4 123 541 122 641
4 189 446 56 617
4 192 616 55 532
4 463 222 479 220
4 114 364 360 116
4 331 529 102 103
4 270 269 265 226
4 554 181 557 426
4 379 364 136 148
4 222 190 278 191
4 596 603 43 264
4 618 436 287 641
4 506 96 317 97
4 87 88 485 329
4 337 302 350 637
4 277 276 198 279
4 271 270 266 228
4 285 619 281 642
4 341 266 51 267
4 597 586 46 261
4 37 260 574 581
4 35 431 557 181
4 560 29 151 392
4 463 459 191 209
4 233 584 495 494
4 616 54 193 273
4 57 617 190 275
4 117 447 436 618
4 533 522 619 125
4 293 122 142 356
4 557 548 35 258
4 626 62 139 289
4 387 556 152 151
4 268 608 232 515
4 288 623 313 346
4 622 312 345 284
4 575 451 36 187
4 489 593 236 237
4 14 56 189 299
4 71 70 318 388
4 147 429 146 627
4 390 138 626 139
4 591 243 244 512
4 338 509 97 98
4 603 43 491 596
4 123 449 541 641
4 53 190 459 57
4 83 84 440 332
4 121 286 357 373
4 121 372 356 286
4 59 315 282 283
4 330 95 96 510
4 138 63 3 390
4 183 123 449 541
4 189 190 446 617
4 616 192 193 532
4 278 223 222 271
4 189 56 446 299
4 392 391 546 155
4 516 508 517 645
4 254 536 579 534
4 278 277 196 280
4 294 142 296 293
4 583 226 585 645
4 280 299 56 274
4 545 142 547 646
4 349 311 612 609
4 610 348 310 611
4 293 292 144 295
4 618 287 282 641
4 295 290 63 316
4 580 578 196 644
4 461 85 15 325
4 285 120 625 119
4 90 91 487 337
4 595 263 47 606
4 47 595 606 513
4 425 76 77 307
4 80 362 12 324
4 81 82 439 333
4 250 569 531 251
4 101 322 525 102
4 17 51 493 224
4 409 418 160 163
4 400 149 405 167
4 448 195 578 644
4 615 196 206 470
4 325 86 16 461
4 583 517 225 645
4 154 389 553 153
4 217 228 615 470
4 0 58 284 126
4 118 13 59 288
4 65 627 147 291
4 493 223 224 607
4 608 232 515 231
4 392 546 29 155
4 117 118 447 618
4 126 533 619 125
4 79 362 324 11
4 447 118 59 618
4 533 619 58 126
4 37 581 450 188
4 545 430 141 646
4 225 517 230 269
4 104 526 321 103
4 314 23 55 192
4 49 254 536 579
4 10 64 429 300
4 186 444 571 187
4 64 10 429 146
4 583 225 226 645
4 367 124 106 624
4 230 212 466 613
4 401 171 168 407
4 82 306 83 443
4 367 128 140 624
4 233 42 584 494
4 516 242 46 586
4 418 160 176 409
4 92 502 93 302
4 9 75 433 353
4 88 89 488 304
4 323 94 95 507
4 248 600 247 504
4 239 482 238 599
4 307 320 344 647
4 405 400 167 170
4 177 162 406 417
4 72 73 411 319
4 119 120 625 359
4 607 493 223 481
4 515 503 608 231
4 194 466 201 613
4 36 183 451 543
4 573 536 49 250
4 196 578 195 644
4 514 247 45 605
4 492 604 44 238
4 192 55 314 532
4 545 141 142 646
4 70 69 335 386
4 319 4 71 394
4 431 182 35 548
4 153 382 552 152
4 179 180 551 421
4 623 313 346 620
4 312 345 621 622
4 32 178 559 434
4 173 165 164 157
4 53 459 464 57
4 299 349 56 342
4 85 461 57 325
4 60 354 369 105
4 198 614 472 226
4 123 436 449 641
4 598 42 237 494
4 119 535 522 642
4 277 205 472 216
4 286 132 373 110
4 469 205 277 216
4 286 372 132 110
4 28 395 558 154
4 61 362 80 324
4 413 6 4 402
4 210 454 464 209
4 115 365 355 114
4 375 365 137 136
4 290 621 339 283
4 339 620 290 283
4 472 270 227 476
4 475 270 227 469
4 472 197 277 457
4 456 197 277 469
4 464 473 221 220
4 517 503 230 269
4 419 7 9 415
4 374 62 380 369
4 468 460 54 455
4 279 274 55 314
4 52 480 468 474
4 60 354 361 369
4 554 180 181 426
4 69 68 343 383
4 427 75 76 336
4 164 410 165 173
4 90 484 89 328
4 448 450 441 644
4 150 168 28 414
4 14 56 275 189
4 23 55 192 273
4 62 624 380 361
4 460 54 613 480
4 438 565 185 186
4 483 587 235 236
4 609 267 274 342
4 267 274 342 610
4 288 118 117 618
4 126 619 284 125
4 50 608 268 515
4 431 424 430 646
4 120 286 625 357
4 283 281 58 298
4 119 522 285 642
4 416 412 32 563
4 289 63 3 138
4 308 50 341 309
4 472 215 198 226
4 100 455 22 327
4 66 326 1 354
4 300 10 64 301
4 503 517 508 645
4 590 244 245 505
4 327 474 21 99
4 161 162 412 177
4 303 297 51 341
4 195 188 448 578
4 524 568 252 251
4 326 67 2 374
4 168 401 407 150
4 521 351 19 98
4 143 376 372 293
4 377 293 143 373
4 334 301 290 339
4 48 255 576 542
4 412 32 162 161
4 53 86 325 461
4 429 78 10 300
4 225 242 517 583
4 436 123 287 641
4 141 182 430 545
4 499 91 18 350
4 350 93 18 500
4 362 79 324 65
4 350 18 499 500
4 58 0 533 126
4 118 59 13 447
4 230 466 212 213
4 128 140 129 367
4 106 107 124 367
4 351 501 19 92
4 364 136 148 135
4 334 3 63 316
4 463 219 222 220
4 116 114 364 113
4 351 19 501 521
4 146 64 10 291
4 286 121 110 373
4 286 121 372 110
4 620 290 301 339
4 534 194 199 39
4 191 448 195 38
4 463 191 208 209
4 448 191 195 437
4 194 534 199 523
4 189 446 14 299
4 316 3 63 390
4 201 466 194 202
4 116 449 123 436
4 77 78 422 344
4 124 535 522 119
4 391 140 381 145
4 430 148 141 420
4 596 43 491 234
4 612 275 349 609
4 348 610 273 611
4 54 467 455 327
4 116 449 24 123
4 397 413 402 169
4 288 623 346 620
4 622 345 621 284
4 124 535 119 25
4 175 419 398 415
4 368 62 326 374
4 293 122 356 286
4 430 148 27 141
4 391 140 145 26
4 441 437 448 644
4 499 18 44 500
4 501 19 45 521
4 430 424 420 646
4 517 230 41 225
4 495 229 40 222
4 87 493 17 297
4 339 352 315 283
4 399 561 28 414
4 94 308 20 515
4 342 274 299 347
4 446 84 14 299
4 610 55 274 348
4 36 543 575 256
4 150 407 168 414
4 225 269 614 226
4 410 403 165 173
4 24 183 123 449
4 620 346 59 283
4 345 621 58 283
4 165 158 174 414
4 305 74 73 404
4 195 188 38 448
4 254 199 39 534
4 614 276 199 198
4 625 144 292 145
4 164 564 172 410
4 171 168 407 414
4 447 13 81 315
4 313 623 291 301
4 254 199 534 579
4 233 229 495 584
4 189 275 190 617
4 616 192 273 193
4 192 314 23 532
4 155 145 26 391
4 182 27 141 430
4 271 615 228 229
4 225 242 41 517
4 233 229 40 495
4 155 145 391 546
4 47 606 248 513
4 48 542 537 249
4 50 20 308 515
4 147 146 291 627
4 138 289 626 139
4 316 68 3 390
4 613 230 212 480
4 624 124 106 361
4 145 292 140 381
4 420 148 141 294
4 562 165 403 173
4 493 51 17 297
4 334 290 621 339
4 624 128 140 380
4 43 491 239 603
4 56 14 349 299
4 415 163 409 404
4 74 9 7 415
4 108 130 145 366
4 465 214 225 203
4 218 195 207 462
4 141 112 363 134
4 469 270 227 216
4 472 227 270 216
4 205 277 197 469
4 205 197 277 472
4 199 194 523 276
4 201 194 613 460
4 59 13 315 346
4 267 341 50 309
4 199 471 204 203
4 522 119 285 124
4 131 130 145 370
4 532 314 23 104
4 417 162 406 176
4 410 164 564 173
4 362 355 61 80
4 461 85 57 454
4 442 449 436 641
4 535 528 522 642
4 267 609 303 342
4 610 342 267 309
4 347 342 274 314
4 72 6 4 413
4 196 615 278 195
4 158 165 28 414
4 412 156 172 164
4 162 406 412 177
4 341 51 303 267
4 63 290 334 316
4 411 413 149 405
4 297 51 17 303
4 308 20 50 309
4 274 299 56 342
4 278 195 191 437
4 564 172 156 164
4 158 562 165 174
4 595 47 243 513
4 403 165 562 174
4 116 436 123 287
4 55 23 314 348
4 167 149 405 150
4 143 372 132 293
4 132 143 293 373
4 283 339 352 298
4 461 473 221 53
4 362 375 65 137
4 196 615 195 458
4 365 137 65 375
4 53 464 473 221
4 409 160 162 163
4 173 562 165 157
4 173 164 564 157
4 229 195 615 470
4 229 615 228 477
4 478 225 614 226
4 533 0 298 101
4 334 312 622 289
4 288 13 59 346
4 345 0 58 284
4 56 14 275 349
4 55 23 348 273
4 620 301 346 339
4 156 412 32 164
4 199 471 225 614
4 461 473 53 86
4 345 58 0 298
4 625 145 119 370
4 79 362 375 65
4 447 59 13 315
4 346 620 339 283
4 621 345 339 283
4 108 145 130 370
4 207 195 218 470
4 141 371 112 134
4 225 214 471 203
4 292 124 140 624
4 311 272 612 303
4 309 310 268 611
4 614 270 476 226
4 403 165 174 414
4 119 249 25 535
4 276 230 194 613
4 162 176 160 409
4 170 167 405 150
4 614 457 277 198
4 145 625 144 370
4 614 199 471 198
4 274 342 610 348
4 54 52 480 468
4 361 62 60 369
4 164 172 412 410
4 311 275 14 349
4 310 348 23 273
4 561 174 28 414
4 286 372 356 293
4 399 28 171 414
4 277 615 196 456
4 405 169 149 400
4 13 288 313 346
4 312 0 345 284
4 270 228 615 475
4 309 610 342 348
4 609 349 303 342
4 621 345 334 339
4 163 409 418 175
4 58 0 298 533
4 176 162 406 409
4 563 412 32 172
4 156 563 32 172
4 174 28 158 561
4 313 623 301 620
4 28 171 168 399
4 144 625 293 377
4 303 612 311 609
4 310 309 610 611
4 32 412 416 177
4 161 32 416 177
4 407 401 170 150
4 369 62 60 105
4 290 64 300 296
4 402 397 169 166
4 159 175 419 398
4 313 291 10 301
4 291 64 10 301
4 472 270 277 216
4 469 277 270 216
4 272 17 51 303
4 309 20 50 268
4 229 271 40 222
4 230 41 225 269
4 17 272 311 303
4 20 309 310 268
4 145 292 26 140
4 148 27 141 294
4 119 25 285 124
4 407 170 405 150
4 312 334 3 289
4 199 39 194 276
4 163 175 398 415
4 169 397 413 149
4 137 65 61 365
4 464 53 57 221
4 416 32 31 563
4 561 28 30 399
4 301 623 291 620
4 30 33 561 399
4 63 3 334 289
4 301 346 313 620
4 416 31 34 563
4 621 334 312 622
4 402 5 4 397
4 419 9 8 398
4 123 24 116 287
4 132 286 373 293
4 286 132 372 293
4 38 278 195 191
4 54 52 613 480
4 624 62 60 361
4 461 57 53 221
4 137 61 65 362
4 199 465 225 203
4 218 229 195 462
4 112 141 363 123
4 276 269 230 613
4 145 119 108 366
4 124 292 285 624
4 467 21 22 327
4 326 2 1 368
4 64 290 301 620
4 121 286 120 357
4 122 121 356 286
4 397 169 166 149
4 175 159 163 398
4 57 53 325 461
4 362 61 65 324
4 334 345 621 312
4 348 309 610 310
4 349 303 311 609
4 412 32 161 177
4 621 334 622 289
4 271 195 229 462
4 199 225 465 276
4 363 123 141 294
4 168 171 28 414
4 119 145 285 366
4 26 292 124 140
4 156 32 412 172
4 149 413 169 405
4 230 194 39 276
4 174 158 28 414
4 609 303 51 267
4 610 267 50 309
4 141 378 371 134
4 195 207 458 470
4 214 471 478 225
4 477 218 229 470
4 119 108 359 370
4 175 163 409 415
4 195 229 218 470
4 199 225 471 203
4 621 63 290 334
4 108 119 145 370
4 222 278 40 191
4 8 7 9 419
4 6 5 4 402
4 290 300 64 301
4 100 54 455 327
4 327 52 474 99
4 167 170 401 150
4 145 144 131 370
4 204 471 199 198
4 60 326 66 354
4 62 67 326 374
4 176 417 162 160
4 345 58 621 284
4 346 59 288 620
4 349 275 56 609
4 348 610 55 273
4 195 615 271 229
4 53 473 479 223
4 276 199 225 614
4 39 41 230 269
4 285 25 26 124
4 145 285 625 119
4 24 27 148 294
4 145 292 285 366
4 269 465 225 276
4 39 269 465 41
4 27 24 363 294
4 26 25 285 366
4 268 610 309 611
4 303 272 612 609
4 327 310 52 99
4 169 166 149 400
4 159 163 418 175
4 310 52 268 611
4 61 355 360 117
4 231 474 480 52
4 326 67 62 312
4 278 38 40 191
4 195 271 278 462
4 363 123 294 287
4 40 38 278 462
4 474 52 232 99
4 269 230 39 276
4 292 285 26 124
4 100 310 54 327
4 622 312 62 289
4 325 86 53 311
4 85 325 57 311
4 272 612 53 311
4 268 52 232 231
4 190 57 454 459
4 66 326 60 312
4 269 39 465 276
4 292 26 285 366
4 354 66 60 126
4 80 313 61 324
4 324 313 65 79
4 276 225 269 614
4 292 285 625 145
4 271 278 40 222
4 118 61 355 80
4 231 474 52 232
4 623 291 65 313
4 53 86 473 224
4 271 278 615 195
4 294 24 363 287
4 271 40 278 462
4 272 53 223 224
4 147 65 375 379
4 57 612 275 311
4 273 54 310 611
4 125 354 361 60
4 277 196 197 456
4 476 270 227 226
4 455 192 54 100
4 197 277 457 198
4 270 227 228 475
4 325 16 15 461
4 362 11 12 324
4 454 85 57 189
4 61 288 623 313
4 622 60 312 284
4 62 67 374 138
4 455 193 460 54
4 310 52 20 268
4 374 139 380 62
4 199 465 39 276
4 229 40 271 462
4 225 41 465 269
4 26 292 145 366
4 141 27 363 294
4 119 285 25 366
4 142 376 143 293
4 144 293 143 377
4 118 117 61 288
4 126 284 60 125
4 291 64 301 620
4 146 375 65 79
4 272 53 17 311
4 123 363 24 287
4 195 278 38 462
4 310 20 52 99
4 125 354 60 126
4 199 39 465 203
4 112 363 24 123
4 40 229 218 462
4 145 130 26 366
4 214 41 465 225
4 141 363 27 134
4 195 38 207 462
4 108 119 25 366
4 3 62 312 289
4 232 20 52 268
4 86 17 53 311
4 334 621 63 289
4 273 192 54 193
4 275 190 57 189
4 272 17 53 224
4 62 289 138 139
4 67 3 62 312
4 309 50 610 268
4 303 51 272 609
4 310 23 54 273
4 275 14 57 311
4 52 20 232 99
4 455 193 54 192
4 288 61 13 313
4 60 0 312 284
4 291 10 65 313
4 374 139 62 138
4 284 60 0 126
4 61 13 118 288
4 310 54 23 100
4 65 147 146 291
4 85 57 14 311
4 66 60 0 312
4 86 53 17 224
4 313 61 13 80
4 52 54 310 327
4 313 10 65 79
4 53 473 223 224
4 66 0 60 126
4 326 62 60 312
4 13 61 118 80
4 192 54 23 273
4 57 14 275 189
4 289 3 62 138
4 325 53 57 311
4 313 65 61 324
4 192 23 54 100
4 14 57 85 189
4 117 61 355 118
4 67 62 3 138
4 10 65 146 291
4 65 10 146 79
4 190 454 57 189
4 147 375 65 146
4 54 52 310 611
4 62 60 312 622
4 612 57 53 311
4 65 61 623 313
4 214 215 478 471
4 207 208 462 38
4 206 207 470 458
4 217 218 477 470
4 112 111 371 358
4 134 133 378 371
4 135 134 27 363
4 109 108 370 359
4 108 107 366 25
4 130 129 26 366
4 213 214 41 465
4 113 112 363 24
4 202 203 465 39
4 218 219 40 462
4 635 305 411 404
4 635 411 305 340
4 507 515 645 308
4 507 645 515 503
4 265 645 515 308
4 265 515 645 503
4 297 481 51 266
4 51 481 297 493
4 540 576 255 542
4 540 255 576 566
4 645 592 588 597
4 645 588 592 628
4 526 331 633 321
4 526 633 331 529
4 614 472 277 457
4 625 373 293 377
4 144 546 631 391
4 144 631 546 544
4 198 579 630 534
4 198 630 579 577
4 469 615 277 456
4 647 635 335 636
4 647 335 635 307
4 353 635 305 340
4 305 635 353 433
4 584 628 495 486
4 165 407 638 150
4 165 638 407 403
4 515 265 608 503
4 515 608 265 50
4 150 149 408 384
4 150 408 149 405
4 328 488 634 484
4 328 634 488 304
4 276 198 523 199
4 276 523 198 279
4 228 271 481 266
4 228 481 271 229
4 144 292 381 295
4 144 381 292 145
4 525 331 633 529
4 633 331 525 322
4 640 513 518 504
4 640 518 513 632
4 642 119 540 120
4 642 540 119 535
4 647 300 422 631
4 647 422 300 344
4 641 540 543 541
4 641 543 540 629
4 240 521 351 501
4 240 351 521 640
4 149 319 635 394
4 149 635 319 411
4 425 336 635 427
4 635 336 425 307
4 142 358 111 122
4 142 111 358 371
4 379 147 116 148
4 379 116 147 117
4 316 383 68 390
4 68 383 316 343
4 644 617 446 437
4 644 446 617 280
4 277 644 279 197
4 279 644 277 280
4 645 270 266 265
4 645 266 270 227
4 646 627 429 420
4 646 429 627 296
4 438 571 186 444
4 186 571 438 565
4 642 282 352 281
4 642 352 282 629
4 524 569 251 531
4 251 569 524 568
4 646 293 295 296
4 646 295 293 143
4 305 433 9 163
4 305 9 433 353
4 449 543 641 451
4 449 641 543 541
4 293 372 142 376
4 293 142 372 356
4 123 122 294 287
4 294 122 123 358
4 45 521 240 501
4 44 241 492 500
4 44 492 241 604
4 65 287 147 294
4 65 147 287 117
4 116 287 147 117
4 142 141 358 294
4 142 358 141 378
4 117 65 360 61
4 117 360 65 379
4 365 360 65 61
4 365 65 360 379
4 162 412 164 32
4 162 164 412 406
4 271 223 481 607
4 481 223 271 222
4 231 269 503 608
4 231 503 269 230
4 141 358 112 371
4 141 112 358 123
4 515 268 20 232
4 515 20 268 50
4 224 51 607 272
4 224 607 51 493
4 285 125 522 124
4 285 522 125 619
4 109 625 373 120
4 109 373 625 144
4 517 269 645 503
4 645 269 517 225
4 229 481 222 495
4 222 481 229 271
4 140 129 124 26
4 140 124 129 367
4 213 202 230 466
4 194 230 202 466
4 194 202 230 39
4 294 147 420 148
4 420 147 294 627
4 139 292 381 140
4 139 381 292 626
4 276 193 523 616
4 276 523 193 194
4 117 287 436 116
4 117 436 287 618
4 198 471 215 204
4 109 144 370 131
4 109 370 144 625
4 190 278 437 617
4 437 278 190 191
4 414 150 165 28
4 414 165 150 407
4 461 454 221 210
4 461 221 454 57
4 464 221 454 210
4 464 454 221 57
4 365 355 137 115
4 365 137 355 61
4 362 137 355 115
4 362 355 137 61
4 455 211 468 200
4 455 468 211 54
4 105 374 369 62
4 105 369 374 127
4 54 211 467 474
4 54 467 211 455
4 105 62 368 374
4 472 270 614 277
4 614 270 472 476
4 469 270 615 475
4 469 615 270 277
4 226 198 471 215
4 226 471 198 614
4 373 286 625 293
4 373 625 286 357
4 56 342 609 274
4 609 342 56 349
4 274 348 314 342
4 314 348 274 55
4 345 283 298 339
4 298 283 345 58
4 283 346 315 339
4 283 315 346 59
4 54 474 327 52
4 327 474 54 467
4 474 54 468 52
4 474 468 54 211
4 60 105 368 354
4 368 105 60 62
4 368 326 60 354
4 60 326 368 62
4 465 202 41 213
4 465 41 202 39
4 230 41 202 213
4 230 202 41 39
4 380 62 140 624
4 380 140 62 139
4 292 140 62 624
4 292 62 140 139
4 460 54 194 613
4 460 194 54 193
4 276 194 54 613
4 276 54 194 193
4 269 52 230 613
4 269 230 52 231
4 480 230 52 613
4 480 52 230 231
4 285 60 124 624
4 285 124 60 125
4 361 124 60 624
4 361 60 124 125
4 228 584 628 495
4 228 628 584 582
4 135 113 148 364
4 116 148 113 364
4 116 113 148 24
4 222 219 191 40
4 222 191 219 463
4 208 219 191 463
4 107 129 124 367
4 113 363 27 24
4 27 363 113 135
4 27 148 113 24
4 113 148 27 135
4 219 462 38 40
4 38 462 219 208
4 38 191 219 40
4 219 191 38 208
4 240 514 45 605
4 45 514 240 521
4 24 287 148 116
4 24 148 287 294
4 147 148 287 116
4 147 287 148 294
4 124 26 107 25
4 124 107 26 129
4 366 107 26 25
4 366 26 107 129
4 469 206 615 196
4 217 615 469 206
4 217 469 615 228

CELL_TYPES 3622
1
1
1
1
1
1
1
1
1
1
1
1
1
1
1
1
1
1
1
1
1
1
1
1
1
1
1
1
1
1
1
1
1
1
1
1
1
1
1
1
1
1
1
1
1
1
1
1
1
1
1
1
1
1
1
1
1
1
1
1
1
1
1
1
1
1
3
3
3
3
3
3
3
3
3
3
3
3
3
3
3
3
3
3
3
3
3
3
3
3
3
3
3
3
3
3
3
3
3
3
3
3
3
3
3
3
3
3
3
3
3
3
3
3
3
3
3
3
3
3
3
3
3
3
3
3
3
3
3
3
3
3
3
3
3
3
3
3
3
3
3
3
3
3
3
3
3
3
3
3
3
3
3
3
3
3
3
3
3
3
3
3
3
3
3
3
3
3
3
3
3
3
3
3
3
3
3
3
3
3
3
3
3
3
3
3
3
3
3
3
3
3
3
3
3
3
3
3
3
3
3
3
3
3
3
3
3
3
3
3
3
3
3
3
3
3
3
3
3
3
3
3
3
3
3
3
3
3
3
3
3
3
3
3
3
3
3
3
3
3
3
3
3
3
3
3
3
3
3
3
3
3
3
3
3
3
3
3
3
3
3
3
3
3
3
3
3
3
3
3
3
3
3
3
3
3
3
3
3
3
3
3
3
3
3
3
3
3
3
3
3
3
3
3
3
3
3
3
3
3
3
3
3
3
3
3
3
3
3
3
3
3
3
3
3
3
3
3
3
3
3
3
3
3
3
3
3
3
3
3
3
3
3
3
3
3
3
3
3
3
3
3
3
3
3
3
3
3
3
3
3
3
3
3
3
3
3
3
3
3
3
3
3
3
3
3
3
3
3
3
3
3
3
3
3
3
3
3
3
3
3
3
3
3
3
3
3
3
3
3
3
3
3
3
3
3
5
5
5
5
5
5
5
5
5
5
5
5
5
5
5
5
5
5
5
5
5
5
5
5
5
5
5
5
5
5
5
5
5
5
5
5
5
5
5
5
5
5
5
5
5
5
5
5
5
5
5
5
5
5
5
5
5
5
5
5
5
5
5
5
5
5
5
5
5
5
5
5
5
5
5
5
5
5
5
5
5
5
5
5
5
5
5
5
5
5
5
5
5
5
5
5
5
5
5
5
5
5
5
5
5
5
5
5
5
5
5
5
5
5
5
5
5
5
5
5
5
5
5
5
5
5
5
5
5
5
5
5
5
5
5
5
5
5
5
5
5
5
5
5
5
5
5
5
5
5
5
5
5
5
5
5
5
5
5
5
5
5
5
5
5
5
5
5
5
5
5
5
5
5
5
5
5
5
5
5
5
5
5
5
5
5
5
5
5
5
5
5
5
5
5
5
5
5
5
5
5
5
5
5
5
5
5
5
5
5
5
5
5
5
5
5
5
5
5
5
5
5
5
5
5
5
5
5
5
5
5
5
5
5
5
5
5
5
5
5
5
5
5
5
5
5
5
5
5
5
5
5
5
5
5
5
5
5
5
5
5
5
5
5
5
5
5
5
5
5
5
5
5
5
5
5
5
5
5
5
5
5
5
5
5
5
5
5
5
5
5
5
5
5
5
5
5
5
5
5
5
5
5
5
5
5
5
5
5
5
5
5
5
5
5
5
5
5
5
5
5
5
5
5
5
5
5
5
5
5
5
5
5
5
5
5
5
5
5
5
5
5
5
5
5
5
5
5
5
5
5
5
5
5
5
5
5
5
5
5
5
5
5
5
5
5
5
5
5
5
5
5
5
5
5
5
5
5
5
5
5
5
5
5
5
5
5
5
5
5
5
5
5
5
5
5
5
5
5
5
5
5
5
5
5
5
5
5
5
5
5
5
5
5
5
5
5
5
5
5
5
5
5
5
5
5
5
5
5
5
5
5
5
5
5
5
5
5
5
5
5
5
5
5
5
5
5
5
5
5
5
5
5
5
5
5
5
5
5
5
5
5
5
5
5
5
5
5
5
5
5
5
5
5
5
5
5
5
5
5
5
5
5
5
5
5
5
5
5
5
5
5
5
5
5
5
5
5
5
5
5
5
5
5
5
5
5
5
5
5
5
5
5
5
5
5
5
5
5
5
5
5
5
5
5
5
5
5
5
5
5
5
5
5
5
5
5
5
5
5
5
5
5
5
5
5
5
5
5
5
5
5
5
5
5
5
5
5
5
5
5
5
5
5
5
5
5
5
5
5
5
5
5
5
5
5
5
5
5
5
5
5
5
5
5
5
5
5
5
5
5
5
5
5
5
5
5
5
5
5
5
5
5
5
5
5
5
5
5
5
5
5
5
5
5
5
5
5
5
5
5
5
5
5
5
5
5
5
5
5
5
5
5
5
5
5
5
5
5
5
5
5
5
5
5
5
5
5
5
5
5
5
5
5
5
5
5
5
5
5
5
5
5
5
5
5
5
5
5
5
5
5
5
5
5
5
5
5
5
5
5
5
5
5
5
5
5
5
5
5
5
5
5
5
5
5
5
5
5
5
5
5
5
5
5
5
5
5
5
5
5
5
5
5
5
5
5
5
5
5
5
5
5
5
5
5
5
5
5
5
5
5
5
5
5
5
5
5
5
5
5
5
5
5
5
5
5
5
5
5
5
5
5
5
5
5
5
5
5
5
5
5
5
5
5
5
5
5
5
5
5
5
5
5
5
5
5
5
5
5
5
5
5
5
5
5
5
5
5
5
5
5
5
5
5
5
5
5
5
5
5
5
5
5
5
5
5
5
5
5
5
5
5
5
5
5
5
5
5
5
5
5
5
5
5
5
5
5
5
5
5
5
5
5
5
5
5
5
5
5
5
5
5
5
5
5
5
5
5
5
5
5
5
5
5
5
5
5
5
5
5
5
5
5
5
5
5
5
5
5
5
5
5
5
5
5
5
5
5
5
5
5
5
5
5
5
5
5
5
5
5
5
5
5
5
5
5
5
5
5
5
5
5
5
5
5
5
5
5
5
5
5
5
5
5
5
5
5
5
5
5
5
5
5
5
5
5
5
5
5
5
5
5
5
5
5
5
5
5
5
5
5
5
5
5
5
5
5
5
5
5
5
5
5
5
5
5
5
5
5
5
5
5
5
5
5
5
5
5
5
5
5
5
5
5
5
5
5
5
5
5
5
5
5
5
5
5
5
5
5
5
5
5
5
5
5
5
5
5
5
5
5
5
5
5
5
5
5
5
5
5
5
5
5
5
5
5
5
5
5
5
5
5
5
5
5
5
5
5
5
5
5
5
5
5
5
5
5
5
5
5
5
5
5
5
5
5
5
5
5
5
5
5
5
5
5
5
5
5
5
5
5
5
5
5
5
5
5
5
5
5
5
5
5
5
5
5
5
5
5
5
5
5
5
5
5
5
5
5
5
5
5
5
5
5
5
5
5
5
5
5
5
5
5
5
5
5
5
5
5
5
5
5
5
5
5
5
5
5
5
5
5
5
5
5
5
5
5
5
5
5
5
5
5
5
5
5
5
5
5
5
5
5
5
5
5
5
5
5
5
5
5
5
5
5
5
5
5
5
5
5
5
5
5
5
5
5
5
5
5
5
5
5
5
5
5
5
5
5
5
5
5
5
5
5
5
5
5
5
5
5
5
5
5
5
5
5
5
5
5
5
5
5
5
5
5
5
5
5
5
5
5
5
5
5
5
5
5
5
5
5
5
5
5
5
5
5
5
5
5
5
5
5
5
5
5
5
5
5
5
5
5
5
5
10
10
10
10
10
10
10
10
10
10
10
10
10
10
10
10
10
10
10
10
10
10
10
10
10
10
10
10
10
10
10
10
10
10
10
10
10
10
10
10
10
10
10
10
10
10
10
10
10
10
10
10
10
10
10
10
10
10
10
10
10
10
10
10
10
10
10
10
10
10
10
10
10
10
10
10
10
10
10
10
10
10
10
10
10
10
10
10
10
10
10
10
10
10
10
10
10
10
10
10
10
10
10
10
10
10
10
10
10
10
10
10
10
10
10
10
10
10
10
10
10
10
10
10
10
10
10
10
10
10
10
10
10
10
10
10
10
10
10
10
10
10
10
10
10
10
10
10
10
10
10
10
10
10
10
10
10
10
10
10
10
10
10
10
10
10
10
10
10
10
10
10
10
10
10
10
10
10
10
10
10
10
10
10
10
10
10
10
10
10
10
10
10
10
10
10
10
10
10
10
10
10
10
10
10
10
10
10
10
10
10
10
10
10
10
10
10
10
10
10
10
10
10
10
10
10
10
10
10
10
10
10
10
10
10
10
10
10
10
10
10
10
10
10
10
10
10
10
10
10
10
10
10
10
10
10
10
10
10
10
10
10
10
10
10
10
10
10
10
10
10
10
10
10
10
10
10
10
10
10
10
10
10
10
10
10
10
10
10
10
10
10
10
10
10
10
10
10
10
10
10
10
10
10
10
10
10
10
10
10
10
10
10
10
10
10
10
10
10
10
10
10
10
10
10
10
10
10
10
10
10
10
10
10
10
10
10
10
10
10
10
10
10
10
10
10
10
10
10
10
10
10
10
10
10
10
10
10
10
10
10
10
10
10
10
10
10
10
10
10
10
10
10
10
10
10
10
10
10
10
10
10
10
10
10
10
10
10
10
10
10
10
10
10
10
10
10
10
10
10
10
10
10
10
10
10
10
10
10
10
10
10
10
10
10
10
10
10
10
10
10
10
10
10
10
10
10
10
10
10
10
10
10
10
10
10
10
10
10
10
10
10
10
10
10
10
10
10
10
10
10
10
10
10
10
10
10
10
10
10
10
10
10
10
10
10
10
10
10
10
10
10
10
10
10
10
10
10
10
10
10
10
10
10
10
10
10
10
10
10
10
10
10
10
10
10
10
10
10
10
10
10
10
10
10
10
10
10
10
10
10
10
10
10
10
10
10
10
10
10
10
10
10
10
10
10
10
10
10
10
10
10
10
10
10
10
10
10
10
10
10
10
10
10
10
10
10
10
10
10
10
10
10
10
10
10
10
10
10
10
10
10
10
10
10
10
10
10
10
10
10
10
10
10
10
10
10
10
10
10
10
10
10
10
10
10
10
10
10
10
10
10
10
10
10
10
10
10
10
10
10
10
10
10
10
10
10
10
10
10
10
10
10
10
10
10
10
10
10
10
10
10
10
10
10
10
10
10
10
10
10
10
10
10
10
10
10
10
10
10
10
10
10
10
10
10
10
10
10
10
10
10
10
10
10
10
10
10
10
10
10
10
10
10
10
10
10
10
10
10
10
10
10
10
10
10
10
10
10
10
10
10
10
10
10
10
10
10
10
10
10
10
10
10
10
10
10
10
10
10
10
10
10
10
10
10
10
10
10
10
10
10
10
10
10
10
10
10
10
10
10
10
10
10
10
10
10
10
10
10
10
10
10
10
10
10
10
10
10
10
10
10
10
10
10
10
10
10
10
10
10
10
10
10
10
10
10
10
10
10
10
10
10
10
10
10
10
10
10
10
10
10
10
10
10
10
10
10
10
10
10
10
10
10
10
10
10
10
10
10
10
10
10
10
10
10
10
10
10
10
10
10
10
10
10
10
10
10
10
10
10
10
10
10
10
10
10
10
10
10
10
10
10
10
10
10
10
10
10
10
10
10
10
10
10
10
10
10
10
10
10
10
10
10
10
10
10
10
10
10
10
10
10
10
10
10
10
10
10
10
10
10
10
10
10
10
10
10
10
10
10
10
10
10
10
10
10
10
10
10
10
10
10
10
10
10
10
10
10
10
10
10
10
10
10
10
10
10
10
10
10
10
10
10
10
10
10
10
10
10
10
10
10
10
10
10
10
10
10
10
10
10
10
10
10
10
10
10
10
10
10
10
10
10
10
10
10
10
10
10
10
10
10
10
10
10
10
10
10
10
10
10
10
10
10
10
10
10
10
10
10
10
10
10
10
10
10
10
10
10
10
10
10
10
10
10
10
10
10
10
10
10
10
10
10
10
10
10
10
10
10
10
10
10
10
10
10
10
10
10
10
10
10
10
10
10
10
10
10
10
10
10
10
10
10
10
10
10
10
10
10
10
10
10
10
10
10
10
10
10
10
10
10
10
10
10
10
10
10
10
10
10
10
10
10
10
10
10
10
10
10
10
10
10
10
10
10
10
10
10
10
10
10
10
10
10
10
10
10
10
10
10
10
10
10
10
10
10
10
10
10
10
10
10
10
10
10
10
10
10
10
10
10
10
10
10
10
10
10
10
10
10
10
10
10
10
10
10
10
10
10
10
10
10
10
10
10
10
10
10
10
10
10
10
10
10
10
10
10
10
10
10
10
10
10
10
10
10
10
10
10
10
10
10
10
10
10
10
10
10
10
10
10
10
10
10
10
10
10
10
10
10
10
10
10
10
10
10
10
10
10
10
10
10
10
10
10
10
10
10
10
10
10
10
10
10
10
10
10
10
10
10
10
10
10
10
10
10
10
10
10
10
10
10
10
10
10
10
10
10
10
10
10
10
10
10
10
10
10
10
10
10
10
10
10
10
10
10
10
10
10
10
10
10
10
10
10
10
10
10
10
10
10
10
10
10
10
10
10
10
10
10
10
10
10
10
10
10
10
10
10
10
10
10
10
10
10
10
10
10
10
10
10
10
10
10
10
10
10
10
10
10
10
10
10
10
10
10
10
10
10
10
10
10
10
10
10
10
10
10
10
10
10
10
10
10
10
10
10
10
10
10
10
10
10
10
10
10
10
10
10
10
10
10
10
10
10
10
10
10
10
10
10
10
10
10
10
10
10
10
10
10
10
10
10
10
10
10
10
10
10
10
10
10
10
10
10
10
10
10
10
10
10
10
10
10
10
10
10
10
10
10
10
10
10
10
10
10
10
10
10
10
10
10
10
10
10
10
10
10
10
10
10
10
10
10
10
10
10
10
10
10
10
10
10
10
10
10
10
10
10
10
10
10
10
10
10
10
10
10
10
10
10
10
10
10
10
10
10
10
10
10
10
10
10
10
10
10
10
10
10
10
10
10
10
10
10
10
10
10
10
10
10
10
10
10
10
10
10
10
10
10
10
10
10
10
10
10
10
10
10
10
10
10
10
10
10
10
10
10
10
10
10
10
10
10
10
10
10
10
10
10
10
10
10
10
10
10
10
10
10
10
10
10
10
10
10
10
10
10
10
10
10
10
10
10
10
10
10
10
10
10
10
10
10
10
10
10
10
10
10
10
10
10
10
10
10
10
10
10
10
10
10
10
10
10
10
10
10
10
10
10
10
10
10
10
10
10
10
10
10
10
10
10
10
10
10
10
10
10
10
10
10
10
10
10
10
10
10
10
10
10
10
10
10
10
10
10
10
10
10
10
10
10
10
10
10
10
10
10
10
10
10
10
10
10
10
10
10
10
10
10
10
10
10
10
10
10
10
10
10
10
10
10
10
10
10
10
10
10
10
10
10
10
10
10
10
10
10
10
10
10
10
10
10
10
10
10
10
10
10
10
10
10
10
10
10
10
10
10
10
10
10
10
10
10
10
10
10
10
10
10
10
10
10
10
10
10
10
10
10
10
10
10
10
10
10
10
10
10
10
10
10
10
10
10
10
10
10
10
10
10
10
10
10
10
10
10
10
10
10
10
10
10
10
10
10
10
10
10
10
10
10
10
10
10
10
10
10
10
10
10
10
10
10
10
10
10
10
10
10
10
10
10
10
10
10
10
10
10
10
10
10
10
10
10
10
10
10
10
10
10
10
10
10
10
10
10
10
10
10
10
10
10
10
10
10
10
10
10
10
10
10
10
10
10
10
10
10
10
10
10
10
10
10
10
10
10
10
10
10
10
10
10
10
10
10
10
10
10
10
10
10
10
10
10
10
10
10
10
10
10
10
10
10
10
10
10
10
10
10
10
10
10
10
10
10
10
10
10
10
10
10
10
10
10
10
10
10
10
10
10
10
10
10
10
10
10
10
10
10
10
10
10
10
10
10
10
10
10
10
10
10
10
10
10
10
10
10
10
10
10
10
10
10
10
10
10
10
10
10
10
10
10
10
10
10
10
10
10
10
10
10
10
10
10
10
10
10
10
10
10
10
10
10
10
10
10
10
10
10
10
10
10
10
10
10
10
10
10
10
10
10
10
10
10
10
10
10
10
10
10
10
10
10
10
10
10
10
10
10
10
10
10
10
10
10
10
10
10
10
10
10
10
10
10
10
10
10
10
10
10
10
10
10
10
10
10
10
10
10
10
