# vtk DataFile Version 2.0
, Created by Gmsh 4.11.1 
ASCII
DATASET UNSTRUCTURED_GRID
POINTS 538 double
8.75 0 -43.24429767871762
17.70923938586626 0 -41.42579912541123
17.70923938586626 0 -38.57420087458878
8.75 0 -36.75570232128239
8.75 0 -3
11.75 0 -3
11.75 0 0
-11.75 0 0
-11.75 0 -3
-8.75 0 -3
-8.75 1.071565949253934e-15 -36.75570232128239
-17.70923938586626 2.168756332923536e-15 -38.57420087458878
-17.70923938586626 2.168756332923536e-15 -41.42579912541123
-8.75 1.071565949253934e-15 -43.24429767871762
-8.75 1.071565949253934e-15 -76.75570232128239
-17.70923938586626 2.168756332923536e-15 -78.57420087458877
-17.70923938586626 2.168756332923536e-15 -81.42579912541123
-8.75 1.071565949253934e-15 -83.24429767871761
-8.75 0 -120
8.75 0 -120
8.75 0 -83.24429767871761
17.70923938586626 0 -81.42579912541123
17.70923938586626 0 -78.57420087458877
8.75 0 -76.75570232128239
-8.75 9.981312440738357 -42.32611661269988
8.75 9.981312440738357 -42.32611661269988
8.75 9.981312440738346 -37.67388338730012
-8.75 9.981312440738346 -37.67388338730012
8.75 20 -3
8.75 20 -29.19909414059299
11.75 23 -3
-11.75 23 -3
-8.75 20 -3
11.75 23 0
-11.75 23 0
-8.75 20 -29.19909414059299
-8.75 20 -50.80090585940701
-8.75 20 -69.19909414059299
-8.75 9.981312440738348 -77.67388338730012
8.75 9.981312440738348 -77.67388338730012
-8.75 9.981312440738352 -82.32611661269988
8.75 9.981312440738352 -82.32611661269988
-8.75 20 -90.80090585940701
-8.75 20 -109.199094140593
-8.75 7.231434551078368 -120
8.75 7.231434551078368 -120
8.75 20 -90.80090585940701
8.75 20 -109.199094140593
8.75 20 -50.80090585940701
8.75 20 -69.19909414059299
4.094101963590087 3.757373570937085 -83.24429767871763
-4.094101963590086 3.757373570937087 -83.24429767871763
14.02146439618164 3.757373570937086 -81.42579912541123
-14.02146439618164 3.757373570937085 -81.42579912541123
14.02146439618164 3.757373570937086 -78.57420087458877
4.094101963590087 3.757373570937085 -76.75570232128237
-4.094101963590086 3.757373570937087 -76.75570232128237
-14.02146439618164 3.757373570937085 -78.57420087458877
4.094101963590087 3.757373570937085 -43.24429767871762
-4.094101963590086 3.757373570937087 -43.24429767871762
14.02146439618164 3.757373570937086 -41.42579912541123
-14.02146439618164 3.757373570937085 -41.42579912541123
14.02146439618164 3.757373570937086 -38.57420087458877
4.094101963590087 3.757373570937085 -36.75570232128238
-4.094101963590086 3.757373570937087 -36.75570232128238
-14.02146439618164 3.757373570937085 -38.57420087458877
13.22961969293313 0 -42.33504840206443
13.22961969293313 0 -37.66495159793558
8.75 0 -30.00456185702591
8.75 0 -23.25342139276942
8.75 0 -16.50228092851297
8.75 0 -9.751140464256519
5.875000000000016 0 0
3.730349362740526e-14 0 0
-5.874999999999972 0 0
-8.75 0 -9.75114046425648
-8.75 0 -16.50228092851297
-8.75 0 -23.25342139276944
-8.75 0 -30.00456185702589
-13.22961969293313 1.620161141088734e-15 -37.66495159793558
-13.22961969293313 1.620161141088735e-15 -42.33504840206443
-8.75 0 -49.94657860723058
-8.75 0 -56.64885953574353
-8.75 0 -63.35114046425647
-8.75 0 -70.05342139276942
-13.22961969293313 1.620161141088734e-15 -77.66495159793557
-13.22961969293313 1.620161141088735e-15 -82.33504840206442
-8.75 0 -89.37024806559801
-8.75 0 -95.49619845247838
-8.75 0 -101.6221488393588
-8.75 0 -107.7480992262392
-8.75 0 -113.8740496131196
2.916666666666666 0 -120
-2.916666666666668 0 -120
8.75 0 -89.37024806559801
8.75 0 -95.49619845247838
8.75 0 -101.6221488393588
8.75 0 -107.7480992262392
8.75 0 -113.8740496131196
13.22961969293313 0 -82.33504840206442
13.22961969293313 0 -77.66495159793557
8.75 0 -49.94657860723058
8.75 0 -56.64885953574353
8.75 0 -63.35114046425647
8.75 0 -70.05342139276942
16.36120380494458 6.777032512758346 -41.42579912541123
12.52232325940191 12.52232325940194 -41.42579912541123
6.7770325127583 16.3612038049446 -41.42579912541123
-6.576371990381536e-14 17.70923938586626 -41.42579912541123
-6.777032512758392 16.36120380494457 -41.42579912541123
-12.52232325940196 12.52232325940189 -41.42579912541123
-16.3612038049446 6.777032512758315 -41.42579912541123
-8.750000000000002 5.007214445655916 -42.97405650844826
-2.931362160101496 10.5410231790011 -42.79957488932919
2.931362160101506 10.5410231790011 -42.79957488932919
8.749999999999998 5.007214445655913 -42.97405650844826
16.36120380494458 6.777032512758346 -38.57420087458878
12.52232325940191 12.52232325940194 -38.57420087458878
6.7770325127583 16.3612038049446 -38.57420087458878
-6.576371990381536e-14 17.70923938586626 -38.57420087458878
-6.777032512758392 16.36120380494457 -38.57420087458878
-12.52232325940196 12.52232325940189 -38.57420087458878
-16.3612038049446 6.777032512758315 -38.57420087458878
8.749999999999998 5.007214445655903 -37.02594349155175
2.931362160101484 10.54102317900109 -37.20042511067081
-2.931362160101524 10.54102317900109 -37.20042511067081
-8.750000000000002 5.007214445655901 -37.02594349155175
8.75 6.666666666666651 -3
8.75 13.33333333333329 -3
8.75 20 -22.64932060544474
8.75 20 -16.0995470702965
8.75 20 -9.549773535148248
8.75 14.99065622036917 -33.43648876394656
-5.875000000000016 23 -3
-3.730349362740526e-14 23 -3
5.874999999999972 23 -3
-11.75 5.749999999999988 -3
-11.75 11.49999999999999 -3
-11.75 17.24999999999999 -3
-8.75 13.33333333333335 -3
-8.75 6.666666666666705 -3
-2.916666666666666 20 -3
2.916666666666668 20 -3
11.75 5.749999999999988 -3
11.75 11.49999999999999 -3
11.75 17.24999999999999 -3
11.75 5.749999999999988 0
11.75 11.49999999999999 0
11.75 17.24999999999999 0
-5.875000000000016 23 0
-3.730349362740526e-14 23 0
5.874999999999972 23 0
-11.75 5.749999999999988 0
-11.75 11.49999999999999 0
-11.75 17.24999999999999 0
-8.75 20 -9.549773535148248
-8.75 20 -16.0995470702965
-8.75 20 -22.64932060544474
-8.75 14.99065622036917 -33.43648876394656
-8.75 14.99065622036918 -46.56351123605344
-8.75 20 -63.06636471353099
-8.75 20 -56.93363528646898
-8.75 14.99065622036917 -73.43648876394656
-8.750000000000002 5.007214445655908 -77.02594349155173
8.749999999999998 5.007214445655904 -77.02594349155173
2.931362160101497 10.5410231790011 -77.20042511067079
-2.931362160101506 10.5410231790011 -77.20042511067079
16.36120380494458 6.777032512758346 -78.57420087458877
12.52232325940191 12.52232325940194 -78.57420087458877
6.7770325127583 16.3612038049446 -78.57420087458877
-6.576371990381536e-14 17.70923938586626 -78.57420087458877
-6.777032512758392 16.36120380494457 -78.57420087458877
-12.52232325940196 12.52232325940189 -78.57420087458877
-16.3612038049446 6.777032512758315 -78.57420087458877
16.36120380494458 6.777032512758346 -81.42579912541123
12.52232325940191 12.52232325940194 -81.42579912541123
6.7770325127583 16.3612038049446 -81.42579912541123
-6.576371990381536e-14 17.70923938586626 -81.42579912541123
-6.777032512758392 16.36120380494457 -81.42579912541123
-12.52232325940196 12.52232325940189 -81.42579912541123
-16.3612038049446 6.777032512758315 -81.42579912541123
-8.750000000000002 5.007214445655912 -82.97405650844826
-2.931362160101482 10.54102317900109 -82.79957488932919
2.931362160101527 10.54102317900109 -82.79957488932919
8.749999999999998 5.007214445655911 -82.97405650844826
-8.75 14.99065622036918 -86.56351123605344
-8.75 20 -103.066364713531
-8.75 20 -96.93363528646898
-8.75 11.48762303405225 -116.3996980468643
-8.75 15.74381151702612 -112.7993960937287
-8.75 3.615717275539183 -120
2.916666666666666 7.231434551078368 -120
-2.916666666666668 7.231434551078368 -120
8.75 3.615717275539183 -120
8.75 14.99065622036918 -86.56351123605344
8.75 20 -103.066364713531
8.75 20 -96.93363528646898
8.75 11.48762303405225 -116.3996980468643
8.75 15.74381151702612 -112.7993960937287
8.75 14.99065622036918 -46.56351123605344
8.75 20 -63.06636471353099
8.75 20 -56.93363528646898
8.75 14.99065622036917 -73.43648876394656
2.916666666666666 20 -50.80090585940701
-2.916666666666668 20 -50.80090585940701
2.916666666666666 20 -29.19909414059299
-2.916666666666668 20 -29.19909414059299
2.916666666666666 20 -69.19909414059299
-2.916666666666668 20 -69.19909414059299
2.916666666666666 20 -90.80090585940701
-2.916666666666668 20 -90.80090585940701
2.916666666666666 20 -109.199094140593
-2.916666666666668 20 -109.199094140593
1.144525114564615e-14 5.556935040096178 -83.24429767871761
1.77635683940025e-15 3.757373570937086 -83.24429767871761
9.065938580682296 3.757373570937086 -82.38027822384123
11.11989670583107 9.330981578409274 -81.42579912541123
6.134703081948412 13.15616730135713 -81.42579912541123
8.888593273309784e-16 14.51617442596244 -81.42579912541123
-6.13470308194841 13.15616730135713 -81.42579912541123
-11.11989670583107 9.330981578409279 -81.42579912541123
-9.065938580682296 3.757373570937086 -82.38027822384123
9.065938580682296 3.757373570937086 -77.61972177615877
0 3.757373570937086 -76.75570232128239
-9.065938580682296 3.757373570937086 -77.61972177615877
11.11989670583107 9.330981578409274 -78.57420087458877
6.134703081948412 13.15616730135713 -78.57420087458877
8.888593273309784e-16 14.51617442596244 -78.57420087458877
-6.13470308194841 13.15616730135713 -78.57420087458877
-11.11989670583107 9.330981578409279 -78.57420087458877
1.144525114564615e-14 5.556935040096178 -76.75570232128237
1.144525114564615e-14 5.556935040096178 -43.24429767871762
1.77635683940025e-15 3.757373570937086 -43.24429767871762
9.065938580682296 3.757373570937086 -42.38027822384123
11.11989670583107 9.330981578409274 -41.42579912541123
6.134703081948412 13.15616730135713 -41.42579912541123
8.888593273309784e-16 14.51617442596244 -41.42579912541123
-6.13470308194841 13.15616730135713 -41.42579912541123
-11.11989670583107 9.330981578409279 -41.42579912541123
-9.065938580682296 3.757373570937086 -42.38027822384123
9.065938580682296 3.757373570937086 -37.61972177615877
0 3.757373570937086 -36.75570232128238
-9.065938580682296 3.757373570937086 -37.61972177615877
11.11989670583107 9.330981578409274 -38.57420087458878
6.134703081948412 13.15616730135713 -38.57420087458878
8.888593273309784e-16 14.51617442596244 -38.57420087458878
-6.13470308194841 13.15616730135713 -38.57420087458878
-11.11989670583107 9.330981578409279 -38.57420087458878
1.144525114564615e-14 5.556935040096178 -36.75570232128239
-4.118099491259212 0 -86.30727287215782
-2.748698408078651 0 -74.4066554107491
4.282032116689585 0 -46.77464446129114
3.847384246658384 0 -33.38013208915415
0 0 -115.2314170066732
-3.444771342638481 0 -98.55917364591856
-2.88021995884265 0 -4.208540944775514
2.945654452607832 0 -60.00000000000001
2.903340853436845 0 -19.87785116064119
3.720587393163751 0 -40.50742670738601
2.711668518942567 0 -104.685124032799
3.687819977230058 0 -92.10414893540658
-4.130937363851418 0 -80.48985959785759
-2.945654452607835 0 -53.29771907148705
-2.903340853436847 0 -26.62899162489766
-2.903340853436825 0 -13.12671069638472
3.663901213731474 0 -5.781882996622215
3.609078526378868 0 -72.98670465490751
-3.847384246658395 0 -33.38013208915414
-2.107268916789517 0 -46.74656818321238
2.112925017409868 0 -83.92284041514648
-4.308234669215025 0 -39.62322430683812
-2.95121624754575 0 -66.83746162621486
-3.804998076579599 0 -104.685124032799
3.286040508049803 0 -98.27912433007307
-2.53886446911072 0 -92.66849650210898
4.22070334628819 0 -66.64574562762965
3.382271705170288 0 -53.29771907148706
-4.090243249509152 0 -60.02703613954039
3.849597221830933 0 -26.62899162489767
-4.080668170687368 0 -19.87785116064119
3.490185777512369 0 -12.2940551429899
-3.32533117114364 0 -110.5965155098172
3.673663895644323 0 -111.1643652808352
15.23968285926675 0 -40
-15.23968285926675 0 -40.00000000000001
-15.08775116842608 0 -80
15.23968285926674 0 -80
3.82370638372567 0 -78.82943715409438
-10.47769820952864 0 -80.04165472770899
9.804299942576282 0 -79.83277673629919
9.789568658210291 0 -40.07248952962657
-9.653494811016257 0 -39.92464486136763
-1.019615925689163 0 -8.357352002580122
4.723540811896545 0 -87.44096886159983
-8.881784197001252e-15 0 -36.72844316811426
-4.642938952727599 0 -115.8221048033336
4.818066112462199 0 -116.0539663801256
-4.86063534759373 0 -7.688748821599368
0.3169590648428002 0 -88.56330921313048
-12.23400222056686 6.642827768573069 -42.19468852732137
11.85869538819673 7.432972275297769 -42.17956718468029
10.9796867872775 2.383999105110087 -42.73979952774784
14.54757708999451 3.592379083556605 -41.97883898859497
-17.36896131679477 3.454901214449341 -40.03450740095119
-14.72469440633921 9.838726252205609 -39.96549259904882
17.37489548921357 3.424933045305067 -40
3.454901214449298 17.36896131679478 -40.03450740095118
-9.838726252205676 14.72469440633916 -40.03450740095119
9.838726252205612 14.7246944063392 -39.96549259904882
-3.454901214449415 17.36896131679476 -39.96549259904882
14.72469440633918 9.83872625220565 -40.03450740095118
-12.01065600177562 7.47989288198871 -37.85163748551365
12.23400222056608 6.642827768572694 -37.80531147267846
-13.38167956071654 4.571374817548783 -37.84993105810507
8.749999999999998 10.01198323164666 -8.848219804203719
8.749999999999998 14.82785977437512 -19.55448763462143
8.749999999999998 5.815311129679346 -27.06746864466684
8.749999999999998 13.8288256078884 -26.98334230711501
8.749999999999998 8.394129123425287 -32.81415326689229
8.749999999999998 5.434258705842269 -19.81271190119319
8.749999999999998 5.07522244759363 -13.10718851411178
8.749999999999998 15.03382025353006 -12.93927139524513
8.749999999999998 10.11107530913208 -16.1986561854116
8.749999999999998 3.843330939752107 -32.73356591628384
8.749999999999998 10.14053124975305 -22.41642289957763
8.749999999999998 4.865717419149115 -7.888780327448595
8.749999999999998 15.34139481926982 -7.671718629925271
10.25 3.10416666666666 -3
-10.25 3.104166666666674 -3
11.75 20.125 -1.5
11.75 14.37499999999999 -1.5
11.75 8.624999999999989 -1.5
11.75 2.874999999999994 -1.5
-2.707174061168084 4.878797530676509 0
3.157610638484556 18.22886740495932 0
7.069955745470663 8.716546370640001 0
-6.619519168154188 14.39111856499582 0
7.102873022115113 14.37499999999999 0
0.1126091443291148 11.52691623390895 0
-7.000954855602265 8.644857627020135 0
-2.792058517349995 18.15992185565015 0
2.948495529093417 4.721447277005962 0
-7.528051718759414 18.81262893003678 0
7.528051718759418 4.187371069963205 0
7.820492259183636 19.07601590637069 0
-7.553981076842909 4.160878030182232 0
-11.75 20.125 -1.5
-11.75 8.624999999999988 -1.5
-11.75 14.37499999999999 -1.5
-11.75 2.874999999999994 -1.5
-8.750000000000002 10.0119832316467 -8.848219804203719
-8.750000000000002 14.82785977437513 -19.55448763462143
-8.750000000000002 5.815311129679342 -27.06746864466684
-8.750000000000002 13.8288256078884 -26.98334230711501
-8.750000000000002 8.394129123425285 -32.81415326689228
-8.750000000000002 5.434258705842264 -19.81271190119319
-8.750000000000002 5.075222447593646 -13.10718851411177
-8.750000000000002 15.03382025353007 -12.93927139524513
-8.750000000000002 10.11107530913209 -16.19865618541159
-8.750000000000002 3.843330939752104 -32.73356591628382
-8.750000000000002 10.14053124975305 -22.41642289957763
-8.750000000000002 4.865717419149152 -7.888780327448607
-8.750000000000002 15.34139481926983 -7.671718629925275
-8.750000000000002 14.68890052162793 -59.99999999999999
-8.750000000000002 5.820498372493141 -67.15841429308088
-8.750000000000002 5.820498372493145 -52.84158570691913
-8.750000000000002 13.94545279743711 -67.12121610420765
-8.750000000000002 13.94545279743712 -52.87878389579235
-8.750000000000002 8.40437537758992 -72.83568806394827
-8.750000000000002 8.404375377589925 -47.16431193605173
-8.750000000000002 5.355707135667731 -60
-8.750000000000002 10.126629839529 -57.327031971331
-8.750000000000002 10.06149067653929 -62.5539935927853
-8.750000000000002 3.846417639147794 -72.76583391252655
-8.750000000000002 3.846417639147797 -47.23416608747346
-12.01065603865344 7.479892837657358 -77.85163748711074
12.23400222056604 6.642827768572744 -77.80531147267845
-13.38167957206768 4.571374794084166 -77.8499310587457
-17.36896131679477 3.454901214449349 -80.0345074009512
17.36896131679477 3.454901214449356 -80.03450740095118
-14.72469440633921 9.838726252205609 -80.03450740095118
3.454901214449301 17.36896131679478 -79.96549259904882
-9.838726252205676 14.72469440633916 -79.96549259904883
9.838726252205612 14.7246944063392 -80.03450740095118
14.72469440633918 9.83872625220565 -80.03450740095118
-3.454901214449407 17.36896131679476 -80.03450740095118
-12.23400222056682 6.642827768573121 -82.19468852732136
11.85869538819646 7.432972275297766 -82.17956718468032
10.97968678727749 2.383999105110084 -82.73979952774783
14.54757708999458 3.592379083556682 -81.97883898859494
-8.750000000000002 5.160662580378776 -105.4534067609122
-8.750000000000002 5.305228657361516 -92.43322325903819
-8.750000000000002 14.83524440917366 -99.87254317552292
-8.750000000000002 6.029959006777359 -115.771818400948
-8.750000000000002 9.753134165992083 -110.0620696946751
-8.750000000000002 13.94545279743712 -92.87878389579234
-8.750000000000002 8.359237444021074 -87.10508338854345
-8.750000000000002 15.11510638546401 -106.3443054219303
-8.750000000000002 5.199038283971156 -99.15380444388764
-8.750000000000002 4.364117759446887 -110.647370362179
-8.750000000000002 9.928682473707125 -97.48094389755441
-8.750000000000002 10.26478841630636 -103.0650148034803
-8.750000000000002 3.734336109407701 -87.0253817800691
0 3.615717275539184 -120
5.165945933560927 3.615717275539184 -120
-5.165945933560927 3.615717275539184 -120
8.749999999999998 5.160662580378776 -105.4534067609122
8.749999999999998 5.305228657361516 -92.43322325903819
8.749999999999998 14.83524440917366 -99.87254317552292
8.749999999999998 6.029959006777359 -115.771818400948
8.749999999999998 9.753134165992083 -110.0620696946751
8.749999999999998 13.94545279743712 -92.87878389579234
8.749999999999998 8.359237444021074 -87.10508338854345
8.749999999999998 15.11510638546401 -106.3443054219303
8.749999999999998 5.199038283971156 -99.15380444388764
8.749999999999998 4.364117759446887 -110.647370362179
8.749999999999998 9.928682473707125 -97.48094389755441
8.749999999999998 10.26478841630636 -103.0650148034803
8.749999999999998 3.734336109407701 -87.0253817800691
8.749999999999998 14.68890052162793 -59.99999999999999
8.749999999999998 5.820498372493139 -67.15841429308088
8.749999999999998 5.820498372493144 -52.84158570691913
8.749999999999998 13.94545279743711 -67.12121610420765
8.749999999999998 13.94545279743712 -52.87878389579235
8.749999999999998 8.404375377589924 -47.16431193605173
8.749999999999998 8.404375377589917 -72.83568806394827
8.749999999999998 5.355707135667731 -60
8.749999999999998 10.126629839529 -57.327031971331
8.749999999999998 10.06149067653929 -62.5539935927853
8.749999999999998 3.846417639147792 -72.76583391252653
8.749999999999998 3.846417639147797 -47.23416608747346
-1.77635683940025e-15 15.54169477408149 -47.02963372783682
4.363476504850412 14.02098776594252 -45.74327048676993
-4.363476504850414 14.02098776594251 -45.74327048676993
-4.956028634303417 16.91066775207864 -48.18764543389484
4.956028634303415 16.91066775207864 -48.18764543389484
-7.105427357601002e-15 15.54169477408149 -32.97036627216318
4.363476504850409 14.02098776594251 -34.25672951323007
-4.363476504850414 14.02098776594251 -34.25672951323007
4.956028634303413 16.91066775207864 -31.81235456610516
-4.956028634303417 16.91066775207863 -31.81235456610516
0.1688424907032768 20 -24.28964784379415
3.552713678800501e-15 20 -8.051814855409225
3.884126917770843 20 -19.83038278778896
-2.647908623925144 20 -19.05205185028592
3.440868936321889 20 -12.93579548389522
-3.725445350951339 20 -12.35965685987256
-4.579146559977707 20 -24.87784171614216
-4.622864071702107 20 -7.352950101360673
4.622864071702105 20 -24.84614403923232
4.622864071702113 20 -7.352950101360664
8.812499999999986 23 -1.5
2.937499999999966 23 -1.5
-8.812500000000007 23 -1.5
-2.937500000000027 23 -1.5
0 20 -55.57134801675911
0 20 -64.42865198324088
-3.748460980632617 20 -59.99999999999999
3.755190956930766 20 -59.99999999999999
-4.534406261898795 20 -55.10278482046581
4.534406261898797 20 -64.89721517953419
4.534406261898794 20 -55.10278482046581
-4.5344062618988 20 -64.89721517953419
-3.552713678800501e-15 15.5416947740815 -72.97036627216318
4.363476504850412 14.02098776594252 -74.25672951323006
-4.363476504850416 14.02098776594252 -74.25672951323006
4.956028634303415 16.91066775207864 -71.81235456610516
-4.956028634303417 16.91066775207864 -71.81235456610516
5.329070518200751e-15 15.54169477408149 -87.02963372783682
-4.363476504850411 14.02098776594251 -85.74327048676993
4.363476504850414 14.02098776594251 -85.74327048676993
4.956028634303418 16.91066775207863 -88.18764543389484
-4.956028634303415 16.91066775207863 -88.18764543389484
0 20 -95.5713480167591
0 20 -104.4286519832409
-3.929438119261363 20 -99.99999999999999
3.929438119261363 20 -99.99999999999999
-4.534406261898795 20 -95.1027848204658
4.534406261898797 20 -104.8972151795342
4.534406261898794 20 -95.10278482046581
-4.5344062618988 20 -104.8972151795342
-4.198600265558298 13.61571727553918 -114.5995470702965
4.198600265558298 13.61571727553918 -114.5995470702965
0 10.87317095013083 -116.9194619263777
0 16.36330891573765 -112.2753643917808
-4.641932908917759 10.31134240810713 -117.3947116492852
-4.641932908917765 16.92009214297124 -111.8043824913078
4.641932908917763 16.92009214297124 -111.8043824913078
4.641932908917764 10.31134240810713 -117.3947116492852
3.266113034183101 8.787684335201872 -82.4693243757238
-3.567079853743234 8.612307158873623 -82.48012617434119
2.047050981795042 3.757373570937086 -80
-2.047050981795044 3.757373570937086 -80
11.17715902531867 3.757373570937086 -80
-11.17715902531867 3.757373570937086 -80
-6.091293129682141 3.757373570937086 -80
6.091293129682136 3.757373570937086 -80
12.89181691548128 6.672359146709414 -80
-12.87588001150558 6.703061531440462 -80.03407886840301
3.1418227704091 14.17209475145805 -80.03407886840303
-3.141822770409099 14.17209475145805 -80.03407886840301
8.836759299249414 11.51655352317242 -80.03407886840301
-8.809290144919727 11.53757891013475 -80
3.266113034183389 8.787684335201705 -77.53067562427617
-3.567079853743436 8.612307158873467 -77.51987382565878
3.266113034183101 8.787684335201872 -42.46932437572382
-3.567079853743229 8.612307158873628 -42.48012617434121
-2.047050981795048 3.757373570937086 -40
2.047050981795042 3.757373570937086 -40
11.17715902531867 3.757373570937086 -39.99999999999999
-11.17715902531867 3.757373570937086 -39.99999999999999
-6.091293129682141 3.757373570937086 -39.99999999999999
6.091293129682136 3.757373570937086 -40
12.87588001150558 6.703061531440461 -39.96592113159698
-12.87588001150558 6.703061531440462 -40.03407886840301
3.141822770409104 14.17209475145805 -39.96592113159698
-3.108041604531955 14.17954150702569 -40
8.836759299249414 11.51655352317242 -40.03407886840302
-8.836759299249417 11.51655352317241 -39.96592113159698
-3.266113034183046 8.787684335201861 -37.53067562427619
3.56707985374376 8.612307158873316 -37.51987382565878
-1.323382227872191e-15 10.87540888334197 -65.1004693476067
-1.77635683940025e-15 10.90754908622158 -54.88275523359403
-5.329070518200751e-15 10.86099672499948 -25.0795547003137
0.9657468136607621 7.622030708073442 -92.11086850634253
-1.77635683940025e-15 11.34497036542788 -100.1978479308808
-0.07056562496923835 11.49866711504566 -11.7556030870022
0.5598223945995323 8.776481979426762 -108.8736059042134
2.673092557054753 6.081433546034862 -49.56313108703036
-2.681210748636409 6.099902881295128 -30.46349950747967
-0.6901494898276633 6.72234875676642 -71.16776914002752
-1.224339536512168 7.158093675669311 -18.23140012807258
-2.538675907342683 4.931430706414051 -87.90559636531636
2.678884414210296 5.466803482974294 -114.0620428895174
-2.032517432208722 14.00305584591965 -5.857412771754722
-2.181140394325961 14.15215022962034 -106.4673780515848
1.088901185371097 6.622542145213037 -6.645465484304552
-2.084496282417135 14.02752670454723 -93.56896537134647

CELLS 2914 12778
1 0
1 1
1 2
1 3
1 4
1 5
1 6
1 7
1 8
1 9
1 10
1 11
1 12
1 13
1 14
1 15
1 16
1 17
1 18
1 19
1 20
1 21
1 22
1 23
1 24
1 25
1 26
1 27
1 28
1 29
1 30
1 31
1 32
1 33
1 34
1 35
1 36
1 37
1 38
1 39
1 40
1 41
1 42
1 43
1 44
1 45
1 46
1 47
1 48
1 49
1 50
1 51
1 52
1 53
1 54
1 55
1 56
1 57
1 58
1 59
1 60
1 61
1 62
1 63
1 64
1 65
2 0 66
2 66 1
2 1 2
2 2 67
2 67 3
2 3 68
2 68 69
2 69 70
2 70 71
2 71 4
2 4 5
2 5 6
2 6 72
2 72 73
2 73 74
2 74 7
2 8 7
2 8 9
2 9 75
2 75 76
2 76 77
2 77 78
2 78 10
2 11 79
2 79 10
2 12 11
2 13 80
2 80 12
2 13 81
2 81 82
2 82 83
2 83 84
2 84 14
2 15 85
2 85 14
2 16 15
2 17 86
2 86 16
2 17 87
2 87 88
2 88 89
2 89 90
2 90 91
2 91 18
2 19 92
2 92 93
2 93 18
2 20 94
2 94 95
2 95 96
2 96 97
2 97 98
2 98 19
2 20 99
2 99 21
2 21 22
2 22 100
2 100 23
2 0 101
2 101 102
2 102 103
2 103 104
2 104 23
2 1 105
2 105 106
2 106 107
2 107 108
2 108 109
2 109 110
2 110 111
2 111 12
2 24 112
2 112 13
2 24 113
2 113 114
2 114 25
2 25 115
2 115 0
2 2 116
2 116 117
2 117 118
2 118 119
2 119 120
2 120 121
2 121 122
2 122 11
2 3 123
2 123 26
2 26 124
2 124 125
2 125 27
2 10 126
2 126 27
2 4 127
2 127 128
2 128 28
2 29 129
2 129 130
2 130 131
2 131 28
2 26 132
2 132 29
2 31 133
2 133 134
2 134 135
2 135 30
2 8 136
2 136 137
2 137 138
2 138 31
2 32 139
2 139 140
2 140 9
2 32 141
2 141 142
2 142 28
2 5 143
2 143 144
2 144 145
2 145 30
2 6 146
2 146 147
2 147 148
2 148 33
2 30 33
2 34 149
2 149 150
2 150 151
2 151 33
2 7 152
2 152 153
2 153 154
2 154 34
2 31 34
2 32 155
2 155 156
2 156 157
2 157 35
2 27 158
2 158 35
2 36 159
2 159 24
2 37 160
2 160 161
2 161 36
2 38 162
2 162 37
2 14 163
2 163 38
2 23 164
2 164 39
2 39 165
2 165 166
2 166 38
2 22 167
2 167 168
2 168 169
2 169 170
2 170 171
2 171 172
2 172 173
2 173 15
2 21 174
2 174 175
2 175 176
2 176 177
2 177 178
2 178 179
2 179 180
2 180 16
2 40 181
2 181 17
2 40 182
2 182 183
2 183 41
2 41 184
2 184 20
2 42 185
2 185 40
2 43 186
2 186 187
2 187 42
2 44 188
2 188 189
2 189 43
2 18 190
2 190 44
2 45 191
2 191 192
2 192 44
2 19 193
2 193 45
2 46 194
2 194 41
2 47 195
2 195 196
2 196 46
2 45 197
2 197 198
2 198 47
2 48 199
2 199 25
2 49 200
2 200 201
2 201 48
2 39 202
2 202 49
2 48 203
2 203 204
2 204 36
2 29 205
2 205 206
2 206 35
2 49 207
2 207 208
2 208 37
2 46 209
2 209 210
2 210 42
2 47 211
2 211 212
2 212 43
2 50 213
2 213 51
2 51 214
2 214 50
2 50 215
2 215 52
2 52 216
2 216 217
2 217 218
2 218 219
2 219 220
2 220 53
2 53 221
2 221 51
2 52 54
2 54 222
2 222 55
2 55 223
2 223 56
2 56 224
2 224 57
2 53 57
2 54 225
2 225 226
2 226 227
2 227 228
2 228 229
2 229 57
2 55 230
2 230 56
2 58 231
2 231 59
2 59 232
2 232 58
2 58 233
2 233 60
2 60 234
2 234 235
2 235 236
2 236 237
2 237 238
2 238 61
2 61 239
2 239 59
2 60 62
2 62 240
2 240 63
2 63 241
2 241 64
2 64 242
2 242 65
2 61 65
2 62 243
2 243 244
2 244 245
2 245 246
2 246 247
2 247 65
2 63 248
2 248 64
3 66 290 0
3 0 251 101
3 0 258 251
3 0 290 258
3 2 283 1
3 1 283 66
3 67 283 2
3 3 290 67
3 68 252 3
3 252 258 3
3 258 290 3
3 5 6 4
3 4 6 72
3 4 265 71
3 72 265 4
3 8 9 7
3 7 9 74
3 9 255 74
3 75 297 9
3 9 297 255
3 10 267 78
3 79 291 10
3 10 270 267
3 10 291 270
3 12 284 11
3 11 284 79
3 80 284 12
3 13 291 80
3 81 268 13
3 268 270 13
3 270 291 13
3 14 250 84
3 85 288 14
3 14 261 250
3 14 288 261
3 16 285 15
3 15 285 85
3 86 285 16
3 17 288 86
3 87 249 17
3 249 261 17
3 261 288 17
3 18 295 91
3 93 295 18
3 19 296 92
3 98 296 19
3 20 293 94
3 99 289 20
3 20 287 269
3 269 293 20
3 20 289 287
3 22 286 21
3 21 286 99
3 100 286 22
3 23 289 100
3 104 266 23
3 266 287 23
3 287 289 23
3 66 283 67
3 67 290 66
3 69 278 68
3 68 278 252
3 70 257 69
3 257 278 69
3 71 280 70
3 70 280 257
3 265 280 71
3 73 265 72
3 74 255 73
3 255 265 73
3 76 264 75
3 264 297 75
3 77 279 76
3 76 279 264
3 78 263 77
3 263 279 77
3 78 267 263
3 79 284 80
3 80 291 79
3 82 262 81
3 262 268 81
3 83 277 82
3 82 277 262
3 84 271 83
3 271 277 83
3 250 271 84
3 285 288 85
3 86 288 285
3 88 274 87
3 87 274 249
3 89 254 88
3 254 274 88
3 90 272 89
3 89 272 254
3 91 281 90
3 90 281 272
3 91 295 281
3 92 253 93
3 92 296 253
3 253 295 93
3 94 260 95
3 94 293 260
3 95 273 96
3 260 273 95
3 96 259 97
3 96 273 259
3 97 282 98
3 259 282 97
3 282 296 98
3 99 286 100
3 100 289 99
3 101 276 102
3 251 276 101
3 102 256 103
3 102 276 256
3 103 275 104
3 256 275 103
3 104 275 266
3 249 269 261
3 249 298 269
3 274 298 249
3 261 287 250
3 266 271 250
3 250 287 266
3 258 268 251
3 268 276 251
3 252 294 258
3 263 267 252
3 252 278 263
3 267 294 252
3 253 282 281
3 281 295 253
3 253 296 282
3 254 272 259
3 259 273 254
3 273 274 254
3 255 292 265
3 255 297 292
3 256 276 262
3 262 277 256
3 271 275 256
3 256 277 271
3 263 278 257
3 257 279 263
3 264 279 257
3 257 280 264
3 258 270 268
3 258 294 270
3 272 281 259
3 281 282 259
3 260 274 273
3 260 298 274
3 293 298 260
3 269 287 261
3 262 276 268
3 280 292 264
3 292 297 264
3 265 292 280
3 266 275 271
3 270 294 267
3 269 298 293
3 0 301 66
3 115 301 0
3 66 302 1
3 1 302 105
3 111 80 12
3 112 13 80
3 109 24 110
3 113 24 109
3 24 299 110
3 112 299 24
3 106 25 107
3 106 300 25
3 114 107 25
3 25 300 115
3 301 302 66
3 111 299 80
3 80 299 112
3 105 300 106
3 105 302 300
3 108 107 114
3 109 108 113
3 113 108 114
3 110 299 111
3 300 301 115
3 300 302 301
3 1 305 2
3 105 305 1
3 2 305 116
3 11 303 12
3 122 303 11
3 12 303 111
3 106 310 105
3 116 305 105
3 105 310 116
3 107 308 106
3 106 308 117
3 117 310 106
3 108 306 107
3 107 306 118
3 118 308 107
3 109 309 108
3 119 306 108
3 108 309 119
3 110 307 109
3 109 307 120
3 120 309 109
3 111 304 110
3 110 304 121
3 121 307 110
3 111 303 122
3 122 304 111
3 116 310 117
3 117 308 118
3 118 306 119
3 119 309 120
3 120 307 121
3 121 304 122
3 67 2 116
3 67 123 3
3 10 313 79
3 126 313 10
3 79 313 11
3 11 313 122
3 117 118 26
3 26 312 117
3 26 118 124
3 123 312 26
3 120 121 27
3 120 27 125
3 121 311 27
3 27 311 126
3 116 312 67
3 67 312 123
3 117 312 116
3 124 118 119
3 120 125 119
3 125 124 119
3 122 311 121
3 122 313 311
3 311 313 126
3 3 323 68
3 123 323 3
3 71 325 4
3 4 325 127
3 26 318 123
3 132 318 26
3 128 326 28
3 28 326 131
3 129 317 29
3 29 317 132
3 68 316 69
3 68 323 316
3 69 319 70
3 316 319 69
3 70 320 71
3 319 320 70
3 320 325 71
3 318 323 123
3 127 314 128
3 127 325 314
3 314 326 128
3 130 315 129
3 315 317 129
3 131 321 130
3 130 321 315
3 131 326 321
3 317 318 132
3 320 322 314
3 314 325 320
3 314 322 321
3 321 326 314
3 315 324 317
3 321 322 315
3 322 324 315
3 316 318 317
3 317 324 316
3 316 323 318
3 316 324 319
3 319 322 320
3 319 324 322
3 5 4 327
3 4 127 327
3 143 5 327
3 9 8 328
3 8 136 328
3 140 9 328
3 30 28 135
3 145 28 30
3 145 128 28
3 28 142 135
3 31 133 32
3 138 31 32
3 133 141 32
3 138 32 139
3 127 128 144
3 143 127 144
3 127 143 327
3 128 145 144
3 134 141 133
3 142 134 135
3 142 141 134
3 136 137 140
3 136 140 328
3 137 138 139
3 137 139 140
3 5 332 6
3 143 332 5
3 6 332 146
3 33 329 30
3 30 329 145
3 148 329 33
3 144 331 143
3 143 331 146
3 146 332 143
3 145 330 144
3 144 330 147
3 147 331 144
3 145 329 148
3 148 330 145
3 146 331 147
3 147 330 148
3 6 343 72
3 146 343 6
3 74 345 7
3 7 345 152
3 33 344 148
3 151 344 33
3 34 342 149
3 154 342 34
3 72 341 73
3 72 343 341
3 73 333 74
3 73 341 333
3 333 345 74
3 147 335 146
3 335 343 146
3 148 337 147
3 147 337 335
3 148 344 337
3 149 340 150
3 149 342 340
3 150 334 151
3 150 340 334
3 334 344 151
3 152 339 153
3 152 345 339
3 153 336 154
3 153 339 336
3 336 342 154
3 338 339 333
3 333 341 338
3 339 345 333
3 334 338 337
3 337 344 334
3 334 340 338
3 337 338 335
3 338 341 335
3 341 343 335
3 336 339 338
3 338 340 336
3 340 342 336
3 8 7 349
3 7 152 349
3 136 8 349
3 34 31 346
3 31 138 346
3 154 34 346
3 137 136 347
3 136 152 347
3 152 136 349
3 138 137 348
3 153 137 347
3 137 153 348
3 138 154 346
3 154 138 348
3 152 153 347
3 153 154 348
3 75 9 361
3 9 140 361
3 10 78 359
3 126 10 359
3 27 126 354
3 158 27 354
3 139 32 362
3 32 155 362
3 157 35 353
3 35 158 353
3 76 75 356
3 356 75 361
3 77 76 355
3 355 76 356
3 78 77 352
3 352 77 355
3 78 352 359
3 354 126 359
3 140 139 350
3 350 139 362
3 140 350 361
3 155 156 357
3 155 357 362
3 156 157 351
3 156 351 357
3 351 157 353
3 353 158 354
3 356 350 358
3 350 356 361
3 350 357 358
3 357 350 362
3 351 353 360
3 357 351 358
3 358 351 360
3 352 353 354
3 353 352 360
3 352 354 359
3 352 355 360
3 355 356 358
3 355 358 360
3 81 13 374
3 13 112 374
3 14 84 373
3 163 14 373
3 112 24 369
3 24 159 369
3 159 36 367
3 36 161 367
3 160 37 366
3 37 162 366
3 162 38 368
3 38 163 368
3 82 81 365
3 365 81 374
3 83 82 370
3 82 365 370
3 84 83 364
3 364 83 370
3 84 364 373
3 112 369 374
3 159 367 369
3 161 160 363
3 363 160 366
3 161 363 367
3 366 162 368
3 368 163 373
3 363 366 372
3 367 363 371
3 371 363 372
3 364 366 368
3 366 364 372
3 364 368 373
3 364 370 372
3 367 365 369
3 365 367 371
3 369 365 374
3 370 365 371
3 370 371 372
3 14 377 85
3 163 377 14
3 85 377 15
3 15 377 173
3 100 22 167
3 100 164 23
3 38 375 163
3 171 38 166
3 171 172 38
3 172 375 38
3 164 376 39
3 39 169 165
3 168 169 39
3 39 376 168
3 100 376 164
3 167 376 100
3 375 377 163
3 166 165 170
3 165 169 170
3 171 166 170
3 168 376 167
3 173 375 172
3 173 377 375
3 15 378 16
3 173 378 15
3 16 378 180
3 21 379 22
3 174 379 21
3 22 379 167
3 167 384 168
3 167 379 174
3 174 384 167
3 168 383 169
3 175 383 168
3 168 384 175
3 169 381 170
3 176 381 169
3 169 383 176
3 170 385 171
3 170 381 177
3 177 385 170
3 171 382 172
3 178 382 171
3 171 385 178
3 172 380 173
3 179 380 172
3 172 382 179
3 180 378 173
3 173 380 180
3 175 384 174
3 176 383 175
3 177 381 176
3 178 385 177
3 179 382 178
3 180 380 179
3 180 86 16
3 181 17 86
3 20 388 99
3 184 388 20
3 99 389 21
3 21 389 174
3 178 40 179
3 182 40 178
3 40 386 179
3 181 386 40
3 175 41 176
3 175 387 41
3 183 176 41
3 41 387 184
3 180 386 86
3 86 386 181
3 388 389 99
3 174 387 175
3 174 389 387
3 177 176 183
3 178 177 182
3 182 177 183
3 179 386 180
3 387 388 184
3 387 389 388
3 87 17 402
3 17 181 402
3 18 91 190
3 181 40 396
3 40 185 396
3 185 42 395
3 42 187 395
3 186 43 397
3 43 189 397
3 188 44 393
3 44 190 393
3 88 87 391
3 391 87 402
3 89 88 398
3 88 391 398
3 90 89 390
3 390 89 398
3 91 90 399
3 90 390 399
3 190 91 393
3 393 91 399
3 181 396 402
3 185 395 396
3 187 186 392
3 392 186 397
3 187 392 395
3 189 188 394
3 188 393 394
3 189 394 397
3 390 394 399
3 394 390 401
3 390 398 401
3 395 391 396
3 391 395 400
3 396 391 402
3 398 391 400
3 395 392 400
3 392 397 401
3 400 392 401
3 394 393 399
3 397 394 401
3 398 400 401
3 18 405 93
3 190 405 18
3 92 404 19
3 19 404 193
3 44 405 190
3 192 405 44
3 45 404 191
3 193 404 45
3 93 403 92
3 403 404 92
3 93 405 403
3 191 403 192
3 191 404 403
3 403 405 192
3 19 193 98
3 94 418 20
3 20 418 184
3 184 412 41
3 41 412 194
3 45 409 193
3 197 409 45
3 194 411 46
3 46 411 196
3 195 413 47
3 47 413 198
3 95 407 94
3 407 418 94
3 96 414 95
3 95 414 407
3 97 406 96
3 406 414 96
3 98 415 97
3 97 415 406
3 193 409 98
3 409 415 98
3 184 418 412
3 194 412 411
3 196 408 195
3 408 413 195
3 196 411 408
3 198 410 197
3 197 410 409
3 198 413 410
3 406 415 410
3 410 417 406
3 406 417 414
3 411 412 407
3 407 416 411
3 412 418 407
3 414 416 407
3 411 416 408
3 408 417 413
3 416 417 408
3 410 415 409
3 413 417 410
3 414 417 416
3 101 430 0
3 0 430 115
3 23 429 104
3 164 429 23
3 115 424 25
3 25 424 199
3 39 425 164
3 202 425 39
3 199 423 48
3 48 423 201
3 200 422 49
3 49 422 202
3 102 421 101
3 421 430 101
3 103 426 102
3 102 426 421
3 104 420 103
3 420 426 103
3 104 429 420
3 115 430 424
3 425 429 164
3 199 424 423
3 201 419 200
3 419 422 200
3 201 423 419
3 422 425 202
3 419 428 422
3 423 427 419
3 427 428 419
3 420 425 422
3 422 428 420
3 420 429 425
3 420 428 426
3 423 424 421
3 421 427 423
3 424 430 421
3 426 427 421
3 426 428 427
3 113 433 24
3 24 433 159
3 25 432 114
3 199 432 25
3 159 434 36
3 36 434 204
3 48 435 199
3 203 435 48
3 114 431 113
3 431 433 113
3 114 432 431
3 433 434 159
3 199 435 432
3 204 431 203
3 431 435 203
3 204 434 431
3 432 435 431
3 431 434 433
3 124 437 26
3 26 437 132
3 27 438 125
3 158 438 27
3 132 439 29
3 29 439 205
3 35 440 158
3 206 440 35
3 125 436 124
3 436 437 124
3 125 438 436
3 437 439 132
3 158 440 438
3 205 436 206
3 205 439 436
3 436 440 206
3 436 439 437
3 438 440 436
3 131 450 28
3 28 450 142
3 29 449 129
3 205 449 29
3 141 448 32
3 32 448 155
3 157 447 35
3 35 447 206
3 129 443 130
3 129 449 443
3 130 445 131
3 443 445 130
3 445 450 131
3 142 442 141
3 442 448 141
3 142 450 442
3 155 446 156
3 155 448 446
3 156 444 157
3 156 446 444
3 444 447 157
3 206 441 205
3 441 449 205
3 206 447 441
3 441 444 443
3 443 449 441
3 441 447 444
3 445 446 442
3 442 450 445
3 446 448 442
3 444 445 443
3 444 446 445
3 30 451 33
3 135 451 30
3 34 453 31
3 31 453 133
3 33 451 151
3 149 453 34
3 133 454 134
3 133 453 149
3 149 454 133
3 134 452 135
3 150 452 134
3 134 454 150
3 151 451 135
3 135 452 151
3 150 454 149
3 151 452 150
3 36 459 161
3 204 459 36
3 160 462 37
3 37 462 208
3 201 461 48
3 48 461 203
3 49 460 200
3 207 460 49
3 161 457 160
3 457 462 160
3 161 459 457
3 200 458 201
3 200 460 458
3 458 461 201
3 203 455 204
3 203 461 455
3 455 459 204
3 208 456 207
3 456 460 207
3 208 462 456
3 455 458 457
3 457 459 455
3 455 461 458
3 457 458 456
3 456 462 457
3 458 460 456
3 37 467 162
3 208 467 37
3 162 465 38
3 38 465 166
3 165 464 39
3 39 464 202
3 202 466 49
3 49 466 207
3 162 467 465
3 166 463 165
3 463 464 165
3 166 465 463
3 464 466 202
3 207 463 208
3 207 466 463
3 463 467 208
3 463 466 464
3 465 467 463
3 182 469 40
3 40 469 185
3 41 470 183
3 194 470 41
3 185 472 42
3 42 472 210
3 46 471 194
3 209 471 46
3 183 468 182
3 468 469 182
3 183 470 468
3 469 472 185
3 194 471 470
3 210 468 209
3 468 471 209
3 210 472 468
3 468 472 469
3 470 471 468
3 42 477 187
3 210 477 42
3 186 480 43
3 43 480 212
3 196 479 46
3 46 479 209
3 47 478 195
3 211 478 47
3 187 475 186
3 475 480 186
3 187 477 475
3 195 476 196
3 195 478 476
3 476 479 196
3 209 473 210
3 209 479 473
3 473 477 210
3 212 474 211
3 474 478 211
3 212 480 474
3 473 476 475
3 475 477 473
3 473 479 476
3 475 476 474
3 474 480 475
3 476 478 474
3 43 486 189
3 212 486 43
3 188 485 44
3 44 485 192
3 191 488 45
3 45 488 197
3 198 487 47
3 47 487 211
3 189 481 188
3 481 485 188
3 189 486 481
3 192 483 191
3 483 488 191
3 192 485 483
3 197 482 198
3 197 488 482
3 482 487 198
3 211 484 212
3 211 487 484
3 484 486 212
3 481 484 483
3 483 485 481
3 481 486 484
3 483 484 482
3 482 488 483
3 484 487 482
3 213 214 50
3 214 213 51
3 213 50 489
3 50 215 489
3 51 213 490
3 221 51 490
3 52 216 215
3 220 53 221
3 213 489 490
3 215 216 489
3 216 217 489
3 217 218 489
3 218 219 490
3 489 218 490
3 219 220 490
3 220 221 490
3 214 491 50
3 50 496 215
3 491 496 50
3 51 492 214
3 221 495 51
3 51 495 492
3 52 493 54
3 215 493 52
3 57 494 53
3 53 494 221
3 54 493 222
3 222 496 55
3 55 491 223
3 55 496 491
3 223 492 56
3 56 495 224
3 492 495 56
3 224 494 57
3 214 492 491
3 222 493 215
3 215 496 222
3 221 494 224
3 224 495 221
3 491 492 223
3 52 54 497
3 216 52 497
3 57 53 498
3 53 220 498
3 54 225 497
3 229 57 498
3 217 216 501
3 225 216 497
3 216 225 501
3 218 217 499
3 217 226 499
3 226 217 501
3 219 218 500
3 227 218 499
3 218 227 500
3 220 219 502
3 228 219 500
3 219 228 502
3 220 229 498
3 229 220 502
3 225 226 501
3 226 227 499
3 227 228 500
3 228 229 502
3 54 222 225
3 222 55 503
3 55 230 503
3 56 224 504
3 230 56 504
3 229 224 57
3 225 222 503
3 224 229 504
3 226 225 503
3 227 226 503
3 228 227 504
3 227 503 504
3 229 228 504
3 503 230 504
3 223 230 55
3 230 223 56
3 231 232 58
3 232 231 59
3 231 58 505
3 58 233 505
3 59 231 506
3 239 59 506
3 60 234 233
3 238 61 239
3 231 505 506
3 233 234 505
3 234 235 505
3 235 236 505
3 236 237 506
3 505 236 506
3 237 238 506
3 238 239 506
3 232 508 58
3 58 512 233
3 508 512 58
3 59 507 232
3 239 511 59
3 59 511 507
3 60 509 62
3 233 509 60
3 65 510 61
3 61 510 239
3 62 509 240
3 240 512 63
3 63 508 241
3 63 512 508
3 241 507 64
3 64 511 242
3 507 511 64
3 242 510 65
3 507 508 232
3 240 509 233
3 233 512 240
3 239 510 242
3 242 511 239
3 241 508 507
3 60 62 513
3 234 60 513
3 65 61 514
3 61 238 514
3 62 243 513
3 247 65 514
3 235 234 517
3 243 234 513
3 234 243 517
3 236 235 515
3 235 244 515
3 244 235 517
3 237 236 516
3 245 236 515
3 236 245 516
3 238 237 518
3 246 237 516
3 237 246 518
3 238 247 514
3 247 238 518
3 243 244 517
3 244 245 515
3 245 246 516
3 246 247 518
3 62 240 243
3 240 63 520
3 63 248 520
3 64 242 519
3 248 64 519
3 247 242 65
3 243 240 520
3 242 247 519
3 244 243 520
3 245 244 520
3 246 245 519
3 519 245 520
3 247 246 519
3 248 519 520
3 241 248 63
3 248 241 64
4 302 1 105 305
4 443 315 526 531
4 277 521 370 522
4 443 523 315 531
4 390 398 272 525
4 506 231 59 528
4 248 63 520 529
4 272 390 525 527
4 371 370 372 522
4 427 428 426 522
4 230 55 425 530
4 444 443 526 531
4 444 523 443 531
4 370 521 372 522
4 428 521 426 522
4 393 527 399 533
4 374 369 59 528
4 277 256 521 522
4 55 429 425 530
4 53 220 386 180
4 61 238 299 111
4 63 323 318 529
4 322 526 315 531
4 418 293 50 524
4 393 485 527 533
4 427 419 428 522
4 363 371 372 522
4 163 14 377 224
4 324 315 523 531
4 398 400 524 525
4 503 55 425 230
4 383 225 226 501
4 393 192 485 533
4 215 489 184 50
4 233 505 115 58
4 416 414 524 525
4 393 295 192 533
4 242 519 126 64
4 390 401 398 525
4 417 406 414 525
4 126 10 313 242
4 426 521 256 522
4 401 525 390 527
4 324 322 315 531
4 272 525 259 527
4 403 405 295 192
4 374 59 268 528
4 406 259 414 525
4 363 372 521 522
4 419 521 428 522
4 326 142 450 534
4 398 254 272 525
4 273 524 414 525
4 377 15 57 85
4 406 525 417 527
4 181 86 17 221
4 413 525 478 535
4 11 65 313 79
4 192 405 295 393
4 211 487 478 535
4 55 266 429 530
4 406 259 525 527
4 278 319 316 523
4 458 457 456 521
4 455 457 458 522
4 458 521 419 522
4 457 363 521 522
4 172 38 375 229
4 254 398 524 525
4 457 521 458 522
4 295 253 403 533
4 460 207 466 521
4 467 208 462 521
4 203 461 435 522
4 459 204 434 522
4 192 295 403 533
4 369 522 433 528
4 318 523 437 529
4 425 521 464 530
4 106 25 300 234
4 175 41 387 216
4 413 527 525 535
4 416 525 524 537
4 417 525 413 527
4 479 471 209 537
4 358 351 526 531
4 326 128 142 534
4 121 27 311 247
4 393 399 281 533
4 351 444 526 531
4 224 504 163 56
4 443 441 449 523
4 478 413 408 525
4 128 326 314 534
4 420 275 426 521
4 361 356 526 536
4 67 3 123 240
4 478 487 413 535
4 321 315 322 526
4 351 523 444 531
4 394 485 481 527
4 399 527 281 533
4 323 63 252 529
4 487 527 413 535
4 503 222 164 55
4 327 332 5 143
4 328 136 8 349
4 473 525 479 537
4 100 23 164 222
4 128 534 314 536
4 357 358 351 526
4 370 262 277 522
4 503 230 425 530
4 506 59 369 528
4 443 449 315 523
4 63 318 520 529
4 50 524 293 532
4 277 271 370 521
4 324 523 319 531
4 321 445 315 526
4 443 315 445 526
4 50 213 524 532
4 326 450 526 534
4 322 320 526 531
4 316 318 323 529
4 254 259 272 525
4 426 421 427 522
4 371 365 370 522
4 425 429 420 530
4 281 295 393 533
4 360 523 351 531
4 426 275 256 521
4 326 526 314 534
4 478 525 474 535
4 356 350 361 526
4 426 428 420 521
4 372 370 364 521
4 365 369 374 528
4 316 319 324 523
4 112 80 13 239
4 444 441 443 523
4 313 65 11 122
4 377 57 15 173
4 218 178 500 385
4 456 460 458 521
4 456 457 462 521
4 273 414 259 525
4 415 282 406 527
4 455 458 461 522
4 457 455 459 522
4 444 357 351 526
4 316 278 523 529
4 352 523 360 531
4 254 524 273 525
4 316 523 318 529
4 418 50 412 524
4 176 218 499 381
4 306 245 515 118
4 120 245 516 309
4 420 521 425 530
4 419 458 460 521
4 462 457 363 521
4 369 365 522 528
4 458 419 461 522
4 457 459 363 522
4 213 489 50 524
4 361 526 350 536
4 436 437 523 529
4 278 523 263 531
4 314 534 526 536
4 297 292 264 536
4 433 522 431 528
4 525 527 401 535
4 178 218 219 182
4 113 109 237 236
4 171 227 166 228
4 120 245 125 246
4 176 218 183 217
4 107 236 114 235
4 245 118 124 244
4 227 169 165 226
4 464 521 463 530
4 420 275 521 530
4 399 394 390 527
4 442 526 450 534
4 276 421 426 522
4 208 456 462 521
4 456 207 460 521
4 449 441 205 523
4 107 236 515 306
4 381 227 499 169
4 109 236 309 516
4 398 400 391 524
4 461 203 455 522
4 459 455 204 522
4 357 444 446 526
4 338 534 128 536
4 506 239 112 59
4 490 221 181 51
4 520 240 123 63
4 113 369 433 528
4 165 425 464 530
4 467 462 366 521
4 460 466 422 521
4 355 352 360 531
4 318 437 124 529
4 281 399 390 527
4 411 416 524 537
4 447 441 444 523
4 459 434 367 522
4 461 423 435 522
4 206 441 447 523
4 487 410 413 527
4 524 525 400 537
4 171 227 500 385
4 365 262 370 522
4 271 364 370 521
4 413 417 408 525
4 473 476 479 525
4 277 262 256 522
4 353 440 206 523
4 206 205 441 436
4 351 447 444 523
4 303 11 65 122
4 378 15 57 173
4 374 262 365 528
4 476 408 479 525
4 315 449 317 523
4 277 256 271 521
4 394 401 390 527
4 414 407 416 524
4 324 319 322 531
4 256 276 426 522
4 439 437 317 523
4 438 440 353 523
4 322 319 320 531
4 118 117 244 308
4 237 110 307 109
4 172 171 228 382
4 447 351 353 523
4 482 410 487 527
4 140 350 534 536
4 441 206 436 523
4 214 50 298 532
4 441 436 205 523
4 208 463 456 521
4 463 207 456 521
4 363 366 462 521
4 422 419 460 521
4 366 465 467 521
4 422 466 464 521
4 440 436 206 523
4 439 205 436 523
4 479 411 471 537
4 478 408 476 525
4 367 363 459 522
4 461 419 423 522
4 468 471 524 537
4 483 527 485 533
4 203 431 455 522
4 431 204 455 522
4 367 434 433 522
4 435 423 432 522
4 208 456 463 207
4 455 204 431 203
4 478 476 474 525
4 271 521 275 530
4 317 437 318 523
4 444 443 445 526
4 208 467 463 521
4 466 207 463 521
4 214 213 50 532
4 421 522 276 528
4 471 411 524 537
4 203 435 431 522
4 431 434 204 522
4 254 273 259 525
4 438 436 440 523
4 436 437 439 523
4 374 268 262 528
4 425 422 464 521
4 264 280 531 536
4 433 369 367 522
4 316 323 252 529
4 465 463 467 521
4 464 466 463 521
4 314 526 320 536
4 272 281 390 527
4 206 447 353 523
4 433 434 431 522
4 431 435 432 522
4 471 470 468 524
4 414 273 407 524
4 407 293 418 524
4 485 483 481 527
4 256 275 271 521
4 398 391 254 524
4 394 401 527 535
4 369 113 506 528
4 140 361 350 536
4 124 520 318 529
4 140 534 339 536
4 178 218 500 219
4 218 176 499 217
4 118 245 515 244
4 281 253 295 533
4 271 364 521 530
4 263 523 352 531
4 356 358 526 531
4 263 523 278 529
4 257 320 319 531
4 438 523 353 529
4 165 503 425 530
4 410 417 413 527
4 315 317 324 523
4 351 360 353 523
4 326 450 445 526
4 279 263 355 531
4 471 411 470 524
4 297 361 255 536
4 178 179 219 382
4 246 121 120 307
4 50 293 298 532
4 432 522 423 528
4 273 260 407 524
4 465 521 366 530
4 416 417 414 525
4 398 401 400 525
4 280 320 257 531
4 415 282 527 533
4 316 252 278 529
4 9 140 328 345
4 127 4 327 343
4 333 361 255 140
4 365 262 522 528
4 109 237 236 516
4 245 120 516 246
4 113 433 431 528
4 257 278 263 531
4 436 124 437 529
4 361 333 255 536
4 140 333 361 536
4 322 320 314 526
4 427 423 419 522
4 367 371 363 522
4 260 293 407 524
4 464 463 165 530
4 363 372 366 521
4 422 428 419 521
4 127 128 314 536
4 352 523 263 529
4 335 338 128 536
4 358 360 351 531
4 483 485 192 533
4 442 445 450 526
4 338 337 128 534
4 127 335 128 536
4 436 523 438 529
4 355 263 352 531
4 356 358 350 526
4 227 171 500 228
4 236 107 515 235
4 227 169 226 499
4 317 318 316 523
4 431 522 432 528
4 463 521 465 530
4 220 180 380 179
4 276 256 262 522
4 326 445 321 526
4 481 394 527 535
4 276 522 262 528
4 425 420 422 521
4 469 524 396 537
4 367 369 365 522
4 333 140 339 536
4 474 211 478 535
4 526 534 350 536
4 269 214 492 491
4 415 406 410 527
4 326 321 314 526
4 412 50 489 524
4 446 357 526 534
4 273 274 260 524
4 223 287 492 491
4 107 236 306 108
4 218 178 385 177
4 381 227 169 170
4 120 245 309 119
4 450 142 442 534
4 282 259 406 527
4 484 527 487 535
4 391 524 400 537
4 375 57 224 377
4 362 350 357 534
4 274 254 391 524
4 446 362 357 534
4 406 417 410 527
4 339 534 338 536
4 482 487 484 527
4 481 486 394 535
4 314 320 325 536
4 140 350 139 534
4 118 26 244 117
4 38 171 228 172
4 246 121 27 120
4 178 40 219 179
4 237 110 109 24
4 355 356 279 531
4 292 280 264 536
4 274 273 254 524
4 338 334 337 534
4 406 415 97 282
4 311 65 242 313
4 322 314 321 526
4 350 526 357 534
4 238 111 304 110
4 444 445 446 526
4 269 214 50 298
4 320 280 325 536
4 333 339 338 536
4 479 209 473 537
4 367 365 371 522
4 421 423 427 522
4 482 488 410 533
4 448 362 446 534
4 392 400 525 537
4 422 420 428 521
4 372 364 366 521
4 339 140 139 534
4 228 502 172 382
4 317 316 324 523
4 360 352 353 523
4 246 518 121 307
4 355 76 279 356
4 475 525 473 537
4 357 350 358 526
4 176 218 381 177
4 236 108 109 309
4 171 227 385 170
4 306 245 118 119
4 448 141 32 362
4 450 326 28 142
4 211 484 487 535
4 475 392 525 537
4 482 410 527 533
4 473 475 476 525
4 502 219 179 382
4 507 232 508 258
4 392 475 525 535
4 353 523 352 529
4 247 246 518 121
4 474 476 475 525
4 392 525 401 535
4 438 353 354 529
4 470 411 412 524
4 474 525 475 535
4 423 522 421 528
4 151 33 344 451
4 362 448 141 534
4 424 432 423 528
4 149 34 453 342
4 366 521 364 530
4 229 228 502 172
4 220 219 179 502
4 446 526 442 534
4 412 407 418 524
4 465 366 368 530
4 396 524 469 532
4 316 278 69 319
4 70 257 320 319
4 397 480 392 535
4 272 259 281 527
4 415 527 410 533
4 370 83 271 277
4 431 114 113 528
4 349 152 7 345
4 125 124 436 529
4 332 343 6 146
4 297 255 292 536
4 344 33 148 329
4 128 28 326 142
4 362 141 32 139
4 468 209 471 537
4 165 463 166 530
4 82 277 370 262
4 257 320 280 70
4 411 416 407 524
4 395 469 396 537
4 34 346 342 154
4 260 274 298 532
4 272 89 398 390
4 279 257 263 531
4 408 417 416 525
4 400 401 392 525
4 139 362 141 534
4 263 355 77 279
4 431 432 114 528
4 264 279 356 531
4 392 480 475 535
4 125 436 438 529
4 56 223 230 530
4 475 477 392 537
4 391 400 395 537
4 315 321 130 445
4 463 465 166 530
4 454 150 149 340
4 58 232 231 528
4 394 486 397 535
4 282 281 527 533
4 287 269 492 491
4 58 251 232 528
4 248 64 241 529
4 469 524 182 532
4 336 348 153 154
4 69 278 257 319
4 446 445 442 526
4 282 281 259 527
4 403 191 192 533
4 156 444 446 357
4 53 220 180 498
4 61 238 111 514
4 484 481 527 535
4 412 183 470 524
4 443 315 130 445
4 150 334 452 151
4 399 90 281 390
4 264 279 76 356
4 489 213 183 524
4 357 156 444 351
4 448 446 442 534
4 481 483 484 527
4 271 83 370 364
4 452 142 134 135
4 133 134 454 141
4 403 404 296 92
4 333 255 345 140
4 127 325 265 536
4 96 414 406 259
4 275 420 426 103
4 325 280 265 536
4 370 365 82 262
4 468 182 469 524
4 483 482 484 527
4 263 77 355 352
4 298 50 269 293
4 411 407 412 524
4 426 276 102 421
4 9 140 345 255
4 486 481 394 189
4 198 487 482 410
4 485 188 394 481
4 482 488 197 410
4 397 392 401 535
4 127 265 341 536
4 468 524 469 537
4 508 294 507 258
4 470 183 468 524
4 343 341 127 265
4 405 295 93 403
4 404 403 296 533
4 482 527 483 533
4 335 146 331 147
4 409 410 488 533
4 442 142 141 534
4 475 473 477 537
4 468 183 182 524
4 394 397 401 535
4 492 261 287 223
4 147 148 330 337
4 232 507 270 258
4 336 139 141 534
4 139 141 32 336
4 396 469 182 532
4 189 394 486 397
4 487 198 413 410
4 141 142 340 534
4 480 474 475 535
4 413 195 478 408
4 392 397 186 480
4 507 270 59 232
4 9 255 297 361
4 210 472 477 537
4 152 347 153 339
4 216 215 184 387
4 356 355 358 531
4 212 211 474 535
4 482 483 488 533
4 275 426 256 103
4 489 183 412 524
4 234 233 115 300
4 241 267 252 529
4 353 352 354 529
4 472 469 395 537
4 92 296 403 253
4 140 9 361 255
4 241 294 507 508
4 272 281 90 390
4 424 423 421 528
4 273 95 407 260
4 360 358 355 531
4 391 524 396 532
4 484 486 481 535
4 397 486 43 212
4 127 4 343 265
4 341 265 255 536
4 342 32 141 336
4 229 224 163 375
4 135 28 30 451
4 32 31 453 133
4 331 143 127 144
4 137 347 136 140
4 368 366 364 530
4 205 29 449 439
4 296 403 253 533
4 337 128 335 338
4 282 97 406 259
4 314 325 127 536
4 274 524 391 532
4 486 212 397 535
4 73 255 341 265
4 407 414 95 273
4 49 466 460 207
4 209 46 471 479
4 36 434 459 204
4 462 37 208 467
4 461 48 203 435
4 42 477 210 472
4 256 276 102 426
4 392 477 395 537
4 292 265 280 536
4 260 524 274 532
4 480 397 43 212
4 188 394 393 485
4 488 197 410 409
4 89 254 272 398
4 250 266 223 530
4 184 20 388 215
4 267 241 64 529
4 403 295 93 253
4 397 212 480 535
4 341 338 335 536
4 101 251 430 528
4 264 280 257 531
4 29 317 449 439
4 115 0 301 233
4 297 75 361 356
4 330 145 144 128
4 139 348 138 137
4 414 96 273 259
4 34 346 453 342
4 232 251 268 528
4 104 275 420 429
4 333 341 255 536
4 409 415 410 533
4 247 242 126 311
4 334 340 142 534
4 139 336 339 534
4 229 228 172 38
4 220 219 40 179
4 94 418 407 293
4 346 31 32 138
4 30 28 145 329
4 65 510 79 284
4 493 99 52 286
4 66 283 60 509
4 267 294 241 252
4 391 254 88 398
4 467 462 37 366
4 434 367 36 459
4 435 461 48 423
4 466 422 49 460
4 250 223 56 530
4 192 191 483 533
4 270 268 232 258
4 4 127 325 265
4 247 246 121 27
4 439 132 317 437
4 438 440 158 353
4 255 265 292 536
4 84 250 373 530
4 473 209 210 537
4 341 335 127 536
4 212 484 211 535
4 365 374 81 262
4 155 446 448 362
4 317 315 129 449
4 261 214 492 269
4 73 255 333 341
4 351 157 447 353
4 392 395 400 537
4 336 338 339 534
4 266 271 275 530
4 373 250 56 530
4 160 462 363 366
4 422 419 200 460
4 363 367 459 161
4 423 461 201 419
4 249 87 402 532
4 282 253 281 533
4 251 58 430 528
4 368 373 56 530
4 264 257 279 531
4 477 472 395 537
4 353 158 438 354
4 318 317 132 437
4 430 58 424 528
4 94 407 260 293
4 241 63 294 508
4 479 46 471 411
4 477 42 395 472
4 367 433 434 159
4 432 435 199 423
4 465 467 162 366
4 422 464 466 202
4 409 404 296 533
4 359 352 78 529
4 184 50 412 418
4 334 344 337 142
4 359 64 354 529
4 402 396 51 532
4 56 163 373 368
4 56 230 504 530
4 490 396 182 532
4 72 343 4 265
4 362 139 350 534
4 430 421 101 528
4 64 294 507 241
4 359 78 267 529
4 266 275 104 429
4 98 415 409 533
4 507 294 270 258
4 367 433 159 369
4 199 424 432 423
4 422 464 202 425
4 465 162 368 366
4 186 392 480 475
4 476 478 195 408
4 430 58 115 424
4 468 210 209 537
4 505 58 231 528
4 280 71 325 265
4 404 191 403 533
4 87 391 402 532
4 341 343 72 265
4 278 252 263 529
4 362 155 446 357
4 359 354 64 126
4 268 81 374 262
4 519 64 248 529
4 98 409 296 533
4 98 282 415 533
4 449 315 129 443
4 341 333 338 536
4 409 191 404 533
4 334 338 340 534
4 296 282 98 533
4 472 185 395 469
4 470 471 194 411
4 274 254 88 391
4 396 395 185 469
4 411 194 470 412
4 75 297 264 356
4 424 114 432 528
4 451 33 344 329
4 14 163 56 224
4 395 392 187 477
4 408 196 479 411
4 268 232 258 251
4 74 255 9 345
4 468 469 472 537
4 373 364 84 530
4 438 354 125 529
4 214 298 249 532
4 287 261 250 223
4 191 45 409 404
4 192 44 405 393
4 249 214 269 298
4 258 232 58 251
4 465 368 166 530
4 141 340 336 534
4 71 325 320 280
4 270 268 59 232
4 363 462 160 457
4 161 459 363 457
4 200 419 458 460
4 458 201 461 419
4 505 424 58 528
4 368 56 504 530
4 20 184 50 215
4 359 267 64 529
4 519 354 64 529
4 261 51 214 249
4 100 99 493 286
4 283 66 67 509
4 80 79 510 284
4 0 115 58 233
4 101 276 251 528
4 191 409 488 533
4 10 126 64 242
4 157 447 444 351
4 481 188 394 189
4 198 482 197 410
4 405 190 295 393
4 263 252 267 529
4 251 276 268 528
4 490 51 396 532
4 393 192 44 485
4 409 488 45 191
4 59 13 374 268
4 448 442 141 534
4 20 50 418 293
4 409 404 193 296
4 138 348 139 154
4 163 56 504 368
4 345 74 255 333
4 249 274 87 532
4 64 354 519 126
4 505 115 58 424
4 492 261 269 287
4 51 402 181 396
4 181 17 51 221
4 4 343 332 327
4 59 369 374 112
4 271 266 250 530
4 89 272 90 390
4 323 123 63 318
4 349 9 328 345
4 50 412 489 184
4 429 55 425 164
4 287 20 50 496
4 342 141 340 336
4 240 243 123 312
4 221 220 181 386
4 239 238 112 299
4 477 392 187 475
4 196 479 476 408
4 472 210 468 537
4 87 274 391 532
4 62 60 283 509
4 493 52 54 286
4 510 65 61 284
4 14 56 373 250
4 402 51 249 532
4 92 403 93 253
4 214 492 51 261
4 101 421 276 528
4 14 163 373 56
4 285 494 85 288
4 271 250 84 530
4 51 17 402 249
4 198 413 47 487
4 189 486 43 397
4 214 261 249 269
4 0 115 430 58
4 57 285 494 85
4 480 212 474 535
4 20 184 418 50
4 123 3 63 240
4 10 126 359 64
4 402 391 396 532
4 368 504 166 530
4 29 317 129 449
4 35 447 157 353
4 340 338 336 534
4 78 352 263 529
4 222 225 164 376
4 51 214 249 532
4 195 478 47 413
4 186 397 43 480
4 97 96 406 259
4 114 424 505 528
4 71 4 325 265
4 477 473 210 537
4 268 276 262 528
4 73 341 72 265
4 519 125 354 529
4 58 0 251 430
4 164 23 55 222
4 388 387 52 389
4 301 300 60 302
4 238 111 110 299
4 220 180 179 386
4 200 49 422 460
4 462 160 37 366
4 459 367 36 161
4 461 201 48 423
4 69 278 316 68
4 320 71 280 70
4 271 84 364 530
4 78 263 267 529
4 84 14 373 250
4 520 63 123 318
4 506 369 59 112
4 503 425 55 164
4 311 65 313 122
4 57 375 173 377
4 132 317 29 439
4 158 440 35 353
4 91 295 190 393
4 81 374 13 268
4 267 294 64 241
4 414 96 95 273
4 98 409 193 296
4 190 295 18 405
4 490 213 51 532
4 137 347 140 339
4 331 127 335 144
4 112 13 59 239
4 75 264 76 356
4 155 448 32 362
4 131 326 28 450
4 155 156 446 357
4 260 95 407 94
4 257 70 69 319
4 490 51 181 396
4 181 17 402 51
4 91 295 18 190
4 330 148 145 337
4 98 193 19 296
4 484 212 486 535
4 42 395 187 477
4 46 479 196 411
4 295 93 18 405
4 75 9 297 361
4 347 137 153 339
4 335 331 144 147
4 498 220 180 380
4 348 336 139 154
4 355 76 77 279
4 49 422 466 202
4 467 37 162 366
4 36 367 434 159
4 435 48 199 423
4 134 150 141 142
4 296 253 282 533
4 267 64 10 359
4 514 238 111 304
4 512 3 63 258
4 50 20 269 293
4 343 6 4 332
4 296 404 19 92
4 426 102 256 103
4 80 510 61 284
4 67 62 283 509
4 54 100 493 286
4 349 7 9 345
4 488 483 191 533
4 263 78 77 352
4 123 3 323 63
4 495 56 14 261
4 59 13 268 270
4 101 102 276 421
4 156 157 444 351
4 214 51 213 532
4 193 404 19 296
4 88 87 274 391
4 164 23 429 55
4 340 141 150 142
4 420 275 104 103
4 130 321 131 445
4 370 83 277 82
4 250 287 223 266
4 81 82 365 262
4 98 97 415 282
4 281 91 90 399
4 128 145 28 344
4 52 215 388 493
4 60 233 301 509
4 84 83 271 364
4 508 232 58 258
4 185 395 42 472
4 194 471 46 411
4 89 88 254 398
4 453 346 32 342
4 266 23 55 429
4 221 17 51 495
4 101 251 0 430
4 354 352 359 529
4 94 20 418 293
4 26 318 132 437
4 27 438 158 354
4 63 294 508 258
4 162 368 38 465
4 199 424 25 432
4 202 464 39 425
4 159 433 24 369
4 289 99 388 493
4 315 130 129 443
4 491 287 50 496
4 496 287 20 289
4 495 17 51 261
4 41 470 194 412
4 185 40 396 469
4 128 330 145 337
4 421 430 424 528
4 269 20 50 287
4 301 290 66 509
4 510 291 79 80
4 112 13 374 59
4 373 368 364 530
4 249 298 274 532
4 294 270 64 507
4 519 354 27 126
4 269 50 214 491
4 505 25 115 424
4 389 99 21 286
4 66 283 1 302
4 223 55 287 491
4 79 11 65 284
4 78 267 10 359
4 489 412 41 184
4 53 57 285 494
4 27 438 354 125
4 318 26 124 437
4 402 17 87 249
4 224 56 14 495
4 369 433 24 113
4 368 166 38 465
4 424 114 25 432
4 425 464 39 165
4 392 186 187 475
4 195 196 476 408
4 223 287 55 266
4 512 63 3 240
4 40 182 396 469
4 41 470 412 183
4 343 332 327 146
4 349 328 152 345
4 59 13 270 511
4 495 288 17 261
4 241 294 63 252
4 161 363 160 457
4 458 201 419 200
4 303 65 11 284
4 512 58 0 258
4 451 344 28 329
4 188 393 44 485
4 197 488 45 409
4 495 14 288 261
4 334 340 150 142
4 504 38 163 368
4 270 10 64 511
4 344 142 151 135
4 145 128 337 344
4 21 379 389 286
4 73 255 74 333
4 20 50 496 215
4 323 63 3 252
4 302 283 1 305
4 141 454 149 340
4 496 55 23 222
4 512 0 58 233
4 287 55 23 496
4 337 148 145 344
4 23 266 104 429
4 242 64 10 511
4 289 100 99 493
4 290 67 66 509
4 150 334 142 452
4 250 14 56 261
4 74 9 7 345
4 345 333 140 339
4 258 512 3 290
4 13 59 239 511
4 389 379 52 286
4 60 283 302 305
4 150 454 141 340
4 388 99 52 493
4 301 66 60 509
4 258 58 0 251
4 39 425 503 164
4 139 336 348 153
4 4 6 343 72
4 261 17 51 249
4 142 344 28 135
4 149 133 141 342
4 494 285 86 288
4 341 127 335 343
4 124 520 26 318
4 492 56 495 261
4 494 285 53 86
4 504 166 38 368
4 24 369 113 506
4 149 133 454 141
4 142 452 151 135
4 288 17 221 495
4 334 142 452 151
4 23 287 496 289
4 511 270 59 507
4 490 40 182 396
4 63 3 252 258
4 252 294 63 258
4 134 150 142 452
4 134 150 454 141
4 144 127 335 128
4 0 512 258 290
4 64 270 294 267
4 68 323 3 252
4 520 123 26 318
4 140 139 137 339
4 506 24 369 112
4 285 57 15 85
4 512 63 508 258
4 141 133 32 342
4 125 354 27 519
4 50 269 287 491
4 405 44 190 393
4 404 45 409 193
4 270 64 10 267
4 503 425 39 165
4 114 25 505 424
4 490 181 40 396
4 270 291 10 511
4 489 41 412 183
4 13 291 270 511
4 142 334 344 151
4 139 153 137 339
4 147 144 335 128
4 15 57 285 378
4 291 510 239 80
4 149 141 340 342
4 151 344 28 451
4 379 54 52 286
4 283 60 62 305
4 344 148 28 329
4 511 64 270 507
4 146 127 335 331
4 492 495 51 261
4 149 453 32 342
4 347 152 140 339
4 291 242 10 511
4 149 32 453 133
4 135 151 28 451
4 139 336 153 339
4 287 23 55 266
4 509 67 62 240
4 53 221 494 86
4 510 61 239 80
4 148 145 28 329
4 491 55 287 496
4 290 512 3 240
4 342 346 32 154
4 138 32 346 154
4 128 147 330 337
4 143 327 332 146
4 152 136 328 349
4 289 20 496 215
4 291 13 239 511
4 493 100 54 222
4 509 290 67 240
4 512 508 58 258
4 0 512 290 233
4 289 496 23 222
4 60 283 66 302
4 52 99 389 286
4 516 236 309 245
4 227 385 218 500
4 381 227 218 499
4 306 245 236 515
4 128 335 147 337
4 346 32 31 453
4 451 28 30 329
4 30 33 451 329
4 345 328 152 140
4 327 127 343 146
4 346 31 34 453
4 289 100 493 222
4 221 494 86 288
4 246 518 307 237
4 217 501 383 226
4 517 235 244 308
4 332 5 4 327
4 8 9 328 349
4 228 219 502 382
4 510 239 242 291
4 60 233 300 301
4 52 215 387 388
4 387 174 52 389
4 60 300 105 302
4 328 136 152 140
4 127 327 143 146
4 291 239 242 511
4 138 342 32 154
4 233 290 509 240
4 388 387 184 215
4 148 28 145 344
4 133 149 32 342
4 300 115 301 233
4 109 120 516 309
4 151 28 344 135
4 216 41 387 184
4 385 171 178 500
4 169 176 499 381
4 306 107 118 515
4 343 127 335 146
4 115 25 234 300
4 215 289 493 222
4 140 152 345 339
4 512 290 233 240
4 496 289 215 222
4 9 8 7 349
4 5 4 6 332
4 144 147 330 128
4 502 382 179 172
4 121 110 307 518
4 106 308 517 117
4 99 20 289 388
4 153 348 139 137
4 229 163 38 375
4 493 388 289 215
4 27 311 247 126
4 146 143 127 331
4 347 152 136 140
4 290 66 0 301
4 62 60 513 105
4 52 54 174 497
4 120 237 516 246
4 509 301 290 233
4 178 500 228 219
4 499 226 217 169
4 107 244 515 235
4 62 60 105 305
4 54 52 174 379
4 21 22 379 286
4 11 12 303 284
4 86 17 221 288
4 239 13 291 80
4 290 3 67 240
4 2 1 283 305
4 27 246 125 519
4 505 25 114 235
4 489 217 41 183
4 503 39 226 165
4 26 520 124 244
4 504 38 166 228
4 490 182 40 219
4 113 237 24 506
4 122 111 304 514
4 498 180 173 380
4 513 116 105 310
4 174 167 384 497
4 107 244 235 308
4 178 228 382 219
4 307 246 237 120
4 383 217 226 169
4 111 65 61 514
4 498 53 57 180
4 388 52 99 389
4 60 66 301 302
4 100 289 23 222
4 302 105 60 305
4 237 120 516 109
4 163 224 377 375
4 52 174 379 389
4 171 178 500 228
4 176 499 217 169
4 244 107 515 118
4 313 242 311 126
4 116 62 513 105
4 57 498 180 173
4 65 111 122 514
4 54 167 174 497
4 105 116 62 305
4 303 65 111 122
4 378 57 180 173
4 174 167 54 379
4 107 118 244 308
4 217 383 176 169
4 228 178 382 171
4 120 237 307 109
4 285 16 15 378
4 385 227 218 177
4 227 381 218 177
4 309 236 108 245
4 245 306 236 108
4 238 299 24 112
4 220 40 181 386
4 243 26 123 312
4 229 220 498 380
4 225 376 39 164
4 234 243 513 310
4 247 514 304 238
4 225 384 497 216
4 179 229 502 172
4 243 106 517 117
4 385 177 170 227
4 227 381 177 170
4 108 119 309 245
4 245 306 108 119
4 106 243 310 117
4 229 179 380 172
4 121 110 518 247
4 20 289 388 215
4 384 168 175 225
4 110 121 304 247
4 220 229 502 179
4 179 229 380 220
4 106 243 517 234
4 110 518 247 238
4 234 243 310 106
4 304 110 247 238
4 301 0 290 233
4 225 175 384 216
4 120 125 27 246
4 245 246 519 125
4 111 80 299 61
4 39 165 169 226
4 40 179 386 220
4 53 220 221 386
4 180 86 386 53
4 57 375 224 229
4 171 166 38 228
4 219 218 490 182
4 227 228 504 166
4 228 229 504 38
4 220 219 490 40
4 247 519 246 27
4 26 124 118 244
4 26 117 312 243
4 113 108 109 236
4 125 119 124 245
4 240 62 243 312
4 61 238 239 299
4 65 311 242 247
4 238 237 506 24
4 24 110 299 238
4 116 67 312 62
4 113 114 108 236
4 236 235 505 114
4 234 60 233 300
4 235 234 505 25
4 237 236 506 113
4 244 245 520 124
4 520 243 244 26
4 114 25 107 235
4 217 216 489 41
4 182 183 177 218
4 169 227 165 170
4 227 171 166 170
4 107 236 108 114
4 226 227 503 165
4 39 168 376 225
4 183 41 176 217
4 379 174 21 389
4 167 100 376 54
4 216 52 215 387
4 176 218 177 183
4 225 226 503 39
4 166 170 165 227
4 118 245 124 119
4 218 217 489 183
4 120 245 119 125
4 113 109 24 237
4 222 54 225 376
4 182 178 40 219
4 218 178 177 182
4 527 393 394 485
4 527 394 393 399
4 164 503 225 222
4 164 225 503 39
4 123 520 243 240
4 123 243 520 26
4 506 112 238 24
4 506 238 112 239
4 181 490 220 221
4 181 220 490 40
4 163 229 504 224
4 163 504 229 38
4 184 216 489 215
4 184 489 216 41
4 234 115 505 25
4 234 505 115 233
4 247 126 519 27
4 247 519 126 242
4 245 520 125 519
4 245 125 520 124
4 227 165 504 503
4 227 504 165 166
4 218 490 183 489
4 218 183 490 182
4 213 183 490 489
4 236 506 114 505
4 236 114 506 113
4 86 386 221 181
4 86 221 386 53
4 80 299 239 112
4 80 239 299 61
4 100 376 222 164
4 100 222 376 54
4 312 67 240 62
4 312 240 67 123
4 60 234 105 300
4 106 234 105 310
4 106 105 234 300
4 174 175 216 384
4 216 175 174 387
4 174 52 216 387
4 63 241 529 248
4 63 529 241 252
4 55 223 530 230
4 55 530 223 266
4 531 536 320 526
4 320 536 531 280
4 393 281 91 295
4 393 91 281 399
4 531 278 319 257
4 531 319 278 523
4 353 206 35 447
4 353 35 206 440
4 232 59 528 268
4 528 59 232 231
4 479 537 408 411
4 479 408 537 525
4 416 408 537 411
4 416 537 408 525
4 449 439 523 205
4 523 439 449 317
4 377 14 57 224
4 377 57 14 85
4 57 14 494 224
4 57 494 14 85
4 494 288 14 85
4 531 536 356 264
4 356 536 531 526
4 337 142 534 334
4 534 142 337 128
4 252 316 68 323
4 252 68 316 278
4 313 10 65 242
4 313 65 10 79
4 65 10 510 242
4 65 510 10 79
4 510 10 291 242
4 510 291 10 79
4 237 238 110 24
4 244 243 117 26
4 528 506 114 113
4 529 520 125 124
4 478 487 47 413
4 47 487 478 211
4 532 260 293 298
4 532 293 260 524
4 356 297 536 361
4 356 536 297 264
4 429 275 530 266
4 429 530 275 420
4 537 391 396 395
4 537 396 391 524
4 62 116 243 312
4 117 116 243 310
4 117 243 116 312
4 54 167 225 376
4 168 167 225 384
4 168 225 167 376
4 445 326 131 450
4 445 131 326 321
4 223 261 56 492
4 223 56 261 250
4 154 336 138 342
4 154 138 336 139
4 32 138 336 342
4 32 336 138 139
4 128 344 142 337
4 142 344 128 28
4 167 497 225 384
4 167 225 497 54
4 513 105 234 310
4 513 234 105 60
4 110 518 237 307
4 110 237 518 238
4 116 513 243 310
4 116 243 513 62
4 117 517 244 308
4 117 244 517 243
4 107 235 106 308
4 107 106 235 25
4 234 235 106 25
4 225 175 383 168
4 225 226 168 383
4 225 168 226 39
4 169 168 226 383
4 169 226 168 39
4 216 217 175 41
4 176 175 217 41
4 176 217 175 383
4 116 67 305 2
4 116 305 67 62
4 283 305 67 2
4 283 67 305 62
4 497 174 216 384
4 497 216 174 52
4 167 100 379 22
4 167 379 100 54
4 286 379 100 22
4 286 100 379 54
4 235 517 106 308
4 235 106 517 234
4 225 501 175 216
4 225 175 501 383
4 217 175 501 216
4 217 501 175 383
4 65 247 122 311
4 121 247 122 304
4 121 122 247 311
4 57 229 173 375
4 172 229 173 380
4 172 173 229 375
4 520 519 529 125
4 529 519 520 248
4 504 530 165 166
4 524 183 532 213
4 524 532 183 182
4 490 532 183 213
4 490 183 532 182
4 506 505 528 114
4 528 505 506 231
4 285 86 180 53
4 285 57 180 378
4 180 57 285 53
4 284 80 111 61
4 284 65 111 303
4 111 65 284 61
4 14 494 221 288
4 221 494 14 224
4 221 495 14 288
4 14 495 221 224
4 498 173 229 380
4 498 229 173 57
4 514 122 247 304
4 514 247 122 65
4 504 503 530 230
4 530 503 504 165
4 180 285 16 86
4 16 285 180 378
4 111 284 12 80
4 12 284 111 303

CELL_TYPES 2914
1
1
1
1
1
1
1
1
1
1
1
1
1
1
1
1
1
1
1
1
1
1
1
1
1
1
1
1
1
1
1
1
1
1
1
1
1
1
1
1
1
1
1
1
1
1
1
1
1
1
1
1
1
1
1
1
1
1
1
1
1
1
1
1
1
1
3
3
3
3
3
3
3
3
3
3
3
3
3
3
3
3
3
3
3
3
3
3
3
3
3
3
3
3
3
3
3
3
3
3
3
3
3
3
3
3
3
3
3
3
3
3
3
3
3
3
3
3
3
3
3
3
3
3
3
3
3
3
3
3
3
3
3
3
3
3
3
3
3
3
3
3
3
3
3
3
3
3
3
3
3
3
3
3
3
3
3
3
3
3
3
3
3
3
3
3
3
3
3
3
3
3
3
3
3
3
3
3
3
3
3
3
3
3
3
3
3
3
3
3
3
3
3
3
3
3
3
3
3
3
3
3
3
3
3
3
3
3
3
3
3
3
3
3
3
3
3
3
3
3
3
3
3
3
3
3
3
3
3
3
3
3
3
3
3
3
3
3
3
3
3
3
3
3
3
3
3
3
3
3
3
3
3
3
3
3
3
3
3
3
3
3
3
3
3
3
3
3
3
3
3
3
3
3
3
3
3
3
3
3
3
3
3
3
3
3
3
3
3
3
3
3
3
3
3
3
3
3
3
3
3
3
3
3
3
3
3
3
3
3
3
3
3
3
3
3
3
3
3
3
3
3
3
3
3
3
3
3
3
3
3
3
3
3
3
3
3
3
3
3
3
3
3
3
3
3
3
3
5
5
5
5
5
5
5
5
5
5
5
5
5
5
5
5
5
5
5
5
5
5
5
5
5
5
5
5
5
5
5
5
5
5
5
5
5
5
5
5
5
5
5
5
5
5
5
5
5
5
5
5
5
5
5
5
5
5
5
5
5
5
5
5
5
5
5
5
5
5
5
5
5
5
5
5
5
5
5
5
5
5
5
5
5
5
5
5
5
5
5
5
5
5
5
5
5
5
5
5
5
5
5
5
5
5
5
5
5
5
5
5
5
5
5
5
5
5
5
5
5
5
5
5
5
5
5
5
5
5
5
5
5
5
5
5
5
5
5
5
5
5
5
5
5
5
5
5
5
5
5
5
5
5
5
5
5
5
5
5
5
5
5
5
5
5
5
5
5
5
5
5
5
5
5
5
5
5
5
5
5
5
5
5
5
5
5
5
5
5
5
5
5
5
5
5
5
5
5
5
5
5
5
5
5
5
5
5
5
5
5
5
5
5
5
5
5
5
5
5
5
5
5
5
5
5
5
5
5
5
5
5
5
5
5
5
5
5
5
5
5
5
5
5
5
5
5
5
5
5
5
5
5
5
5
5
5
5
5
5
5
5
5
5
5
5
5
5
5
5
5
5
5
5
5
5
5
5
5
5
5
5
5
5
5
5
5
5
5
5
5
5
5
5
5
5
5
5
5
5
5
5
5
5
5
5
5
5
5
5
5
5
5
5
5
5
5
5
5
5
5
5
5
5
5
5
5
5
5
5
5
5
5
5
5
5
5
5
5
5
5
5
5
5
5
5
5
5
5
5
5
5
5
5
5
5
5
5
5
5
5
5
5
5
5
5
5
5
5
5
5
5
5
5
5
5
5
5
5
5
5
5
5
5
5
5
5
5
5
5
5
5
5
5
5
5
5
5
5
5
5
5
5
5
5
5
5
5
5
5
5
5
5
5
5
5
5
5
5
5
5
5
5
5
5
5
5
5
5
5
5
5
5
5
5
5
5
5
5
5
5
5
5
5
5
5
5
5
5
5
5
5
5
5
5
5
5
5
5
5
5
5
5
5
5
5
5
5
5
5
5
5
5
5
5
5
5
5
5
5
5
5
5
5
5
5
5
5
5
5
5
5
5
5
5
5
5
5
5
5
5
5
5
5
5
5
5
5
5
5
5
5
5
5
5
5
5
5
5
5
5
5
5
5
5
5
5
5
5
5
5
5
5
5
5
5
5
5
5
5
5
5
5
5
5
5
5
5
5
5
5
5
5
5
5
5
5
5
5
5
5
5
5
5
5
5
5
5
5
5
5
5
5
5
5
5
5
5
5
5
5
5
5
5
5
5
5
5
5
5
5
5
5
5
5
5
5
5
5
5
5
5
5
5
5
5
5
5
5
5
5
5
5
5
5
5
5
5
5
5
5
5
5
5
5
5
5
5
5
5
5
5
5
5
5
5
5
5
5
5
5
5
5
5
5
5
5
5
5
5
5
5
5
5
5
5
5
5
5
5
5
5
5
5
5
5
5
5
5
5
5
5
5
5
5
5
5
5
5
5
5
5
5
5
5
5
5
5
5
5
5
5
5
5
5
5
5
5
5
5
5
5
5
5
5
5
5
5
5
5
5
5
5
5
5
5
5
5
5
5
5
5
5
5
5
5
5
5
5
5
5
5
5
5
5
5
5
5
5
5
5
5
5
5
5
5
5
5
5
5
5
5
5
5
5
5
5
5
5
5
5
5
5
5
5
5
5
5
5
5
5
5
5
5
5
5
5
5
5
5
5
5
5
5
5
5
5
5
5
5
5
5
5
5
5
5
5
5
5
5
5
5
5
5
5
5
5
5
5
5
5
5
5
5
5
5
5
5
5
5
5
5
5
5
5
5
5
5
5
5
5
5
5
5
5
5
5
5
5
5
5
5
5
5
5
5
5
5
5
5
5
5
5
5
5
5
5
5
5
5
5
5
5
5
5
5
5
5
5
5
5
5
5
5
5
5
5
5
5
5
5
5
5
5
5
5
5
5
5
5
5
5
5
5
5
5
5
5
5
5
5
5
5
5
5
5
5
5
5
5
5
5
5
5
5
5
5
5
5
5
5
5
5
5
5
5
5
5
5
5
5
5
5
5
5
5
5
5
5
5
5
5
5
5
5
5
5
5
5
5
5
5
5
5
5
5
5
5
5
5
5
5
5
5
5
5
5
5
5
5
5
5
5
5
5
5
5
5
5
5
5
5
5
5
5
5
5
5
5
5
5
5
5
5
5
5
5
5
5
5
5
5
5
5
5
5
5
5
5
5
5
5
5
5
5
5
5
5
5
5
5
5
5
5
5
5
5
5
5
5
10
10
10
10
10
10
10
10
10
10
10
10
10
10
10
10
10
10
10
10
10
10
10
10
10
10
10
10
10
10
10
10
10
10
10
10
10
10
10
10
10
10
10
10
10
10
10
10
10
10
10
10
10
10
10
10
10
10
10
10
10
10
10
10
10
10
10
10
10
10
10
10
10
10
10
10
10
10
10
10
10
10
10
10
10
10
10
10
10
10
10
10
10
10
10
10
10
10
10
10
10
10
10
10
10
10
10
10
10
10
10
10
10
10
10
10
10
10
10
10
10
10
10
10
10
10
10
10
10
10
10
10
10
10
10
10
10
10
10
10
10
10
10
10
10
10
10
10
10
10
10
10
10
10
10
10
10
10
10
10
10
10
10
10
10
10
10
10
10
10
10
10
10
10
10
10
10
10
10
10
10
10
10
10
10
10
10
10
10
10
10
10
10
10
10
10
10
10
10
10
10
10
10
10
10
10
10
10
10
10
10
10
10
10
10
10
10
10
10
10
10
10
10
10
10
10
10
10
10
10
10
10
10
10
10
10
10
10
10
10
10
10
10
10
10
10
10
10
10
10
10
10
10
10
10
10
10
10
10
10
10
10
10
10
10
10
10
10
10
10
10
10
10
10
10
10
10
10
10
10
10
10
10
10
10
10
10
10
10
10
10
10
10
10
10
10
10
10
10
10
10
10
10
10
10
10
10
10
10
10
10
10
10
10
10
10
10
10
10
10
10
10
10
10
10
10
10
10
10
10
10
10
10
10
10
10
10
10
10
10
10
10
10
10
10
10
10
10
10
10
10
10
10
10
10
10
10
10
10
10
10
10
10
10
10
10
10
10
10
10
10
10
10
10
10
10
10
10
10
10
10
10
10
10
10
10
10
10
10
10
10
10
10
10
10
10
10
10
10
10
10
10
10
10
10
10
10
10
10
10
10
10
10
10
10
10
10
10
10
10
10
10
10
10
10
10
10
10
10
10
10
10
10
10
10
10
10
10
10
10
10
10
10
10
10
10
10
10
10
10
10
10
10
10
10
10
10
10
10
10
10
10
10
10
10
10
10
10
10
10
10
10
10
10
10
10
10
10
10
10
10
10
10
10
10
10
10
10
10
10
10
10
10
10
10
10
10
10
10
10
10
10
10
10
10
10
10
10
10
10
10
10
10
10
10
10
10
10
10
10
10
10
10
10
10
10
10
10
10
10
10
10
10
10
10
10
10
10
10
10
10
10
10
10
10
10
10
10
10
10
10
10
10
10
10
10
10
10
10
10
10
10
10
10
10
10
10
10
10
10
10
10
10
10
10
10
10
10
10
10
10
10
10
10
10
10
10
10
10
10
10
10
10
10
10
10
10
10
10
10
10
10
10
10
10
10
10
10
10
10
10
10
10
10
10
10
10
10
10
10
10
10
10
10
10
10
10
10
10
10
10
10
10
10
10
10
10
10
10
10
10
10
10
10
10
10
10
10
10
10
10
10
10
10
10
10
10
10
10
10
10
10
10
10
10
10
10
10
10
10
10
10
10
10
10
10
10
10
10
10
10
10
10
10
10
10
10
10
10
10
10
10
10
10
10
10
10
10
10
10
10
10
10
10
10
10
10
10
10
10
10
10
10
10
10
10
10
10
10
10
10
10
10
10
10
10
10
10
10
10
10
10
10
10
10
10
10
10
10
10
10
10
10
10
10
10
10
10
10
10
10
10
10
10
10
10
10
10
10
10
10
10
10
10
10
10
10
10
10
10
10
10
10
10
10
10
10
10
10
10
10
10
10
10
10
10
10
10
10
10
10
10
10
10
10
10
10
10
10
10
10
10
10
10
10
10
10
10
10
10
10
10
10
10
10
10
10
10
10
10
10
10
10
10
10
10
10
10
10
10
10
10
10
10
10
10
10
10
10
10
10
10
10
10
10
10
10
10
10
10
10
10
10
10
10
10
10
10
10
10
10
10
10
10
10
10
10
10
10
10
10
10
10
10
10
10
10
10
10
10
10
10
10
10
10
10
10
10
10
10
10
10
10
10
10
10
10
10
10
10
10
10
10
10
10
10
10
10
10
10
10
10
10
10
10
10
10
10
10
10
10
10
10
10
10
10
10
10
10
10
10
10
10
10
10
10
10
10
10
10
10
10
10
10
10
10
10
10
10
10
10
10
10
10
10
10
10
10
10
10
10
10
10
10
10
10
10
10
10
10
10
10
10
10
10
10
10
10
10
10
10
10
10
10
10
10
10
10
10
10
10
10
10
10
10
10
10
10
10
10
10
10
10
10
10
10
10
10
10
10
10
10
10
10
10
10
10
10
10
10
10
10
10
10
10
10
10
10
10
10
10
10
10
10
10
10
10
10
10
10
10
10
10
10
10
10
10
10
10
10
10
10
10
10
10
10
10
10
10
10
10
10
10
10
10
10
10
10
10
10
10
10
10
10
10
10
10
10
10
10
10
10
10
10
10
10
10
10
10
10
10
10
10
10
10
10
10
10
10
10
10
10
10
10
10
10
10
10
10
10
10
10
10
10
10
10
10
10
10
10
10
10
10
10
10
10
10
10
10
10
10
10
10
10
10
10
10
10
10
10
10
10
10
10
10
10
10
10
10
10
10
10
10
10
10
10
10
10
10
10
10
10
10
10
10
10
10
10
10
10
10
10
10
10
10
10
10
10
10
10
10
10
10
10
10
10
10
10
10
10
10
10
10
10
10
10
10
10
10
10
10
10
10
10
10
10
10
10
10
10
10
10
10
10
10
10
10
10
10
10
10
10
10
10
10
10
10
10
10
10
10
10
10
10
10
10
10
10
10
10
10
10
10
10
10
10
10
10
10
10
10
10
10
10
10
10
10
10
10
10
10
10
10
10
10
10
10
10
10
10
10
10
10
10
10
10
10
10
10
10
10
10
10
10
10
10
10
10
10
10
10
10
10
10
10
10
10
10
10
10
10
10
10
10
10
10
10
10
10
10
10
10
10
10
10
10
10
10
10
10
10
10
10
10
10
10
10
10
10
10
10
10
10
10
10
10
10
10
10
10
10
10
10
10
10
10
10
10
10
10
10
10
10
10
10
10
10
10
10
10
10
10
10
10
10
10
10
10
10
10
10
10
10
10
10
10
10
10
10
10
10
10
10
10
10
10
10
10
10
10
10
10
10
10
10
10
10
10
10
10
10
10
10
10
10
10
10
10
10
10
10
10
10
10
10
10
10
10
10
10
10
10
10
10
10
10
10
10
10
10
10
10
10
10
10
10
10
10
10
10
10
10
10
10
10
10
10
10
10
10
10
10
10
10
10
10
10
10
10
10
10
10
10
10
10
10
10
10
10
10
10
10
10
10
10
10
10
10
10
10
10
10
10
10
10
10
10
10
10
10
10
10
10
10
10
10
10
10
10
10
10
10
10
10
10
10
10
10
10
10
10
10
10
10
10
10
10
10
10
10
10
10
10
10
10
10
10
10
10
10
10
10
10
10
10
10
