# vtk DataFile Version 2.0
, Created by Gmsh 4.11.1 
ASCII
DATASET UNSTRUCTURED_GRID
POINTS 563 double
8.75 0 -43.49035078965129
17.72146877259691 0 -41.18107278282093
17.72146877259691 0 -38.81892721717907
8.75 0 -36.50964921034871
8.75 0 -3
11.75 0 -3
11.75 0 0
-11.75 0 0
-11.75 0 -3
-8.75 0 -3
-8.75 1.071565949253934e-15 -36.50964921034871
-17.72146877259691 2.170254000855058e-15 -38.81892721717907
-17.72146877259691 2.170254000855058e-15 -41.18107278282093
-8.75 1.071565949253934e-15 -43.49035078965129
-8.75 1.071565949253934e-15 -76.50964921034871
-17.72146877259691 2.170254000855058e-15 -78.81892721717907
-17.72146877259691 2.170254000855058e-15 -81.18107278282093
-8.75 1.071565949253934e-15 -83.49035078965129
-8.75 0 -120
8.75 0 -120
8.75 0 -83.49035078965129
17.72146877259691 0 -81.18107278282093
17.72146877259691 0 -78.81892721717907
8.75 0 -76.50964921034871
-8.75 12.06195549362935 -41.90695200992334
8.75 12.06195549362929 -41.90695200992332
8.75 12.06195549362929 -38.09304799007668
-8.75 12.06195549362929 -38.09304799007668
8.75 20 -3
8.75 20 -34.83073754689937
11.75 23 -3
-11.75 23 -3
-8.75 20 -3
11.75 23 0
-11.75 23 0
-8.75 20 -34.83073754689937
-8.75 20 -45.16926245310063
-8.75 20 -74.83073754689937
-8.75 12.0619554936293 -78.09304799007667
8.75 12.0619554936293 -78.09304799007667
-8.75 12.06195549362929 -81.90695200992332
8.75 12.06195549362929 -81.90695200992332
-8.75 20 -85.16926245310063
-8.75 20 -114.8307375468994
-8.75 7.421848370181725 -120
8.75 7.421848370181725 -120
8.75 20 -85.16926245310063
8.75 20 -114.8307375468994
8.75 20 -45.16926245310063
8.75 20 -74.83073754689937
5.631719735276243 2.70380620564788 -83.49035078965129
-5.631719735276244 2.703806205647879 -83.49035078965129
14.97650401602582 2.70380620564788 -81.18107278282093
-14.97650401602582 2.703806205647882 -81.18107278282093
14.97650401602582 2.70380620564788 -78.81892721717907
5.631719735276243 2.70380620564788 -76.50964921034871
-5.631719735276244 2.703806205647879 -76.50964921034871
-14.97650401602582 2.703806205647882 -78.81892721717907
5.631719735276243 2.70380620564788 -43.49035078965129
-5.631719735276244 2.703806205647879 -43.49035078965129
14.97650401602582 2.70380620564788 -41.18107278282093
-14.97650401602582 2.703806205647882 -41.18107278282093
14.97650401602582 2.70380620564788 -38.81892721717907
5.631719735276243 2.70380620564788 -36.50964921034871
-5.631719735276244 2.703806205647879 -36.50964921034871
-14.97650401602582 2.703806205647882 -38.81892721717907
13.23573438629846 0 -42.33571178623611
13.23573438629846 0 -37.6642882137639
8.75 0 -29.80771936827897
8.75 0 -23.10578952620923
8.75 0 -16.40385968413948
8.75 0 -9.701929842069738
5.875000000000016 0 0
3.730349362740526e-14 0 0
-5.874999999999972 0 0
-8.75 0 -9.701929842069749
-8.75 0 -16.4038596841395
-8.75 0 -23.10578952620924
-8.75 0 -29.80771936827899
-13.23573438629846 1.620909975054496e-15 -37.6642882137639
-13.23573438629846 1.620909975054496e-15 -42.33571178623611
-8.75 0 -50.09421047379077
-8.75 0 -56.69807015793026
-8.75 0 -63.30192984206973
-8.75 0 -69.90578952620919
-13.23573438629846 1.620909975054496e-15 -77.66428821376388
-13.23573438629846 1.620909975054496e-15 -82.3357117862361
-8.75 0 -89.57529232470942
-8.75 0 -95.66023385976753
-8.75 0 -101.7451753948257
-8.75 0 -107.8301169298838
-8.75 0 -113.9150584649419
2.916666666666666 0 -120
-2.916666666666668 0 -120
8.75 0 -89.57529232470942
8.75 0 -95.66023385976753
8.75 0 -101.7451753948257
8.75 0 -107.8301169298838
8.75 0 -113.9150584649419
13.23573438629846 0 -82.3357117862361
13.23573438629846 0 -77.66428821376388
8.75 0 -50.09421047379077
8.75 0 -56.69807015793026
8.75 0 -63.30192984206973
8.75 0 -69.90578952620919
16.3725022850402 6.781712496448148 -41.18107278282093
12.53097074168891 12.53097074168893 -41.18107278282093
6.781712496448124 16.37250228504021 -41.18107278282093
-6.784786064177593e-15 17.72146877259691 -41.18107278282093
-6.781712496448162 16.37250228504019 -41.18107278282093
-12.53097074168893 12.53097074168891 -41.18107278282093
-16.37250228504021 6.781712496448136 -41.18107278282093
-8.749999999999998 6.068413130048939 -43.00170142637087
-2.947224572581588 13.02871933350798 -42.30426444227253
2.947224572581598 13.02871933350798 -42.30426444227253
8.750000000000002 6.068413130048905 -43.00170142637088
16.3725022850402 6.781712496448148 -38.81892721717907
12.53097074168891 12.53097074168893 -38.81892721717907
6.781712496448124 16.37250228504021 -38.81892721717907
-6.784786064177593e-15 17.72146877259691 -38.81892721717907
-6.781712496448162 16.37250228504019 -38.81892721717907
-12.53097074168893 12.53097074168891 -38.81892721717907
-16.37250228504021 6.781712496448136 -38.81892721717907
8.750000000000002 6.068413130048905 -36.99829857362912
2.947224572581603 13.02871933350799 -37.69573555772747
-2.94722457258159 13.028719333508 -37.69573555772747
-8.749999999999998 6.068413130048905 -36.99829857362912
8.75 6.666666666666651 -3
8.75 13.33333333333329 -3
8.75 20 -28.4645900375195
8.75 20 -22.09844252813963
8.75 20 -15.73229501875977
8.75 20 -9.36614750937991
8.75 16.03097774681465 -36.46189276848803
-5.875000000000016 23 -3
-3.730349362740526e-14 23 -3
5.874999999999972 23 -3
-11.75 5.749999999999988 -3
-11.75 11.49999999999999 -3
-11.75 17.24999999999999 -3
-8.75 13.33333333333335 -3
-8.75 6.666666666666705 -3
-2.916666666666666 20 -3
2.916666666666668 20 -3
11.75 5.749999999999988 -3
11.75 11.49999999999999 -3
11.75 17.24999999999999 -3
11.75 5.749999999999988 0
11.75 11.49999999999999 0
11.75 17.24999999999999 0
-5.875000000000016 23 0
-3.730349362740526e-14 23 0
5.874999999999972 23 0
-11.75 5.749999999999988 0
-11.75 11.49999999999999 0
-11.75 17.24999999999999 0
-8.75 20 -9.366147509379875
-8.75 20 -15.73229501875974
-8.75 20 -22.0984425281396
-8.75 20 -28.46459003751946
-8.75 16.03097774681465 -36.46189276848803
-8.75 16.03097774681467 -43.53810723151199
-8.75 20 -68.89844252813963
-8.75 20 -62.96614750937989
-8.75 20 -57.03385249062015
-8.75 20 -51.10155747186039
-8.75 16.03097774681465 -76.46189276848803
-8.749999999999998 6.068413130048909 -76.99829857362911
8.750000000000002 6.068413130048912 -76.99829857362911
2.947224572581598 13.02871933350799 -77.69573555772745
-2.947224572581595 13.02871933350799 -77.69573555772745
16.3725022850402 6.781712496448148 -78.81892721717907
12.53097074168891 12.53097074168893 -78.81892721717907
6.781712496448124 16.37250228504021 -78.81892721717907
-6.784786064177593e-15 17.72146877259691 -78.81892721717907
-6.781712496448162 16.37250228504019 -78.81892721717907
-12.53097074168893 12.53097074168891 -78.81892721717907
-16.37250228504021 6.781712496448136 -78.81892721717907
16.3725022850402 6.781712496448148 -81.18107278282093
12.53097074168891 12.53097074168893 -81.18107278282093
6.781712496448124 16.37250228504021 -81.18107278282093
-6.784786064177593e-15 17.72146877259691 -81.18107278282093
-6.781712496448162 16.37250228504019 -81.18107278282093
-12.53097074168893 12.53097074168891 -81.18107278282093
-16.37250228504021 6.781712496448136 -81.18107278282093
-8.749999999999998 6.068413130048903 -83.00170142637087
-2.947224572581598 13.02871933350796 -82.30426444227253
2.9472245725816 13.02871933350796 -82.30426444227253
8.750000000000002 6.068413130048904 -83.00170142637087
-8.75 16.03097774681464 -83.53810723151197
-8.75 20 -108.8984425281396
-8.75 20 -102.9661475093799
-8.75 20 -97.03385249062015
-8.75 20 -91.10155747186039
-8.75 13.71092418509087 -117.4153687734497
-8.75 3.710924185090863 -120
2.916666666666666 7.421848370181725 -120
-2.916666666666668 7.421848370181725 -120
8.75 3.710924185090863 -120
8.75 16.03097774681464 -83.53810723151197
8.75 20 -108.8984425281396
8.75 20 -102.9661475093799
8.75 20 -97.03385249062015
8.75 20 -91.10155747186039
8.75 13.71092418509087 -117.4153687734497
8.75 16.03097774681464 -43.53810723151197
8.75 20 -68.89844252813963
8.75 20 -62.96614750937989
8.75 20 -57.03385249062015
8.75 20 -51.10155747186039
8.75 16.03097774681465 -76.46189276848803
2.916666666666666 20 -45.16926245310063
-2.916666666666668 20 -45.16926245310063
2.916666666666666 20 -34.83073754689937
-2.916666666666668 20 -34.83073754689937
2.916666666666666 20 -74.83073754689937
-2.916666666666668 20 -74.83073754689937
2.916666666666666 20 -85.16926245310063
-2.916666666666668 20 -85.16926245310063
2.916666666666666 20 -114.8307375468994
-2.916666666666668 20 -114.8307375468994
2.284655356378691 5.814394644068293 -83.49035078965129
-2.28465535637871 5.814394644068286 -83.49035078965129
-1.4210854715202e-14 2.70380620564788 -83.49035078965129
10.30887891828176 2.70380620564788 -82.35509987343883
12.75991610667171 8.294020827706992 -81.18107278282093
8.550952855796115 12.58917971107291 -81.18107278282093
3.006815652836848 14.91862259625844 -81.18107278282093
-3.006815652836827 14.91862259625844 -81.18107278282093
-8.550952855796101 12.58917971107292 -81.18107278282093
-12.7599161066717 8.294020827707005 -81.18107278282093
-10.30887891828177 2.70380620564788 -82.35509987343883
10.30887891828176 2.70380620564788 -77.64490012656117
-5.329070518200751e-15 2.70380620564788 -76.50964921034871
-10.30887891828175 2.70380620564788 -77.64490012656117
12.75991610667171 8.294020827706992 -78.81892721717907
8.550952855796115 12.58917971107291 -78.81892721717907
3.006815652836848 14.91862259625844 -78.81892721717907
-3.006815652836827 14.91862259625844 -78.81892721717907
-8.550952855796101 12.58917971107292 -78.81892721717907
-12.7599161066717 8.294020827707005 -78.81892721717907
2.284655356378691 5.814394644068293 -76.50964921034871
-2.28465535637871 5.814394644068286 -76.50964921034871
2.284655356378691 5.814394644068293 -43.49035078965129
-2.28465535637871 5.814394644068286 -43.49035078965129
-1.4210854715202e-14 2.70380620564788 -43.49035078965129
10.30887891828176 2.70380620564788 -42.35509987343883
12.75991610667171 8.294020827706992 -41.18107278282093
8.550952855796115 12.58917971107291 -41.18107278282093
3.006815652836848 14.91862259625844 -41.18107278282093
-3.006815652836827 14.91862259625844 -41.18107278282093
-8.550952855796101 12.58917971107292 -41.18107278282093
-12.7599161066717 8.294020827707005 -41.18107278282093
-10.30887891828177 2.70380620564788 -42.35509987343883
10.30887891828176 2.70380620564788 -37.64490012656117
-5.329070518200751e-15 2.70380620564788 -36.50964921034871
-10.30887891828175 2.70380620564788 -37.64490012656117
12.75991610667171 8.294020827706992 -38.81892721717907
8.550952855796115 12.58917971107291 -38.81892721717907
3.006815652836848 14.91862259625844 -38.81892721717907
-3.006815652836827 14.91862259625844 -38.81892721717907
-8.550952855796101 12.58917971107292 -38.81892721717907
-12.7599161066717 8.294020827707005 -38.81892721717907
2.284655356378691 5.814394644068293 -36.50964921034871
-2.28465535637871 5.814394644068286 -36.50964921034871
-4.109447811445859 0 -86.53282155718037
-3.825211641839761 0 -73.31341600637091
3.68090192848575 0 -47.93352375254318
-4.278412147981587 0 -32.98532206277543
0 0 -115.3604440379829
-3.666607155865741 0 -98.70270462729658
-2.853509306927872 0 -4.16348515129458
-2.778622455617688 0 -59.92261687747879
-2.945958502386578 0 -19.75482460517436
-4.210190689812949 0 -39.12999840426195
3.480286050096601 0 -104.7876461623547
3.704880812062106 0 -92.29060457270359
-4.521707247778251 0 -80.11647984074335
3.030889750507344 0 -66.60385968413947
2.752159891213203 0 -13.30765993248667
2.945958502386573 0 -26.4567544472441
3.607820019602125 0 -5.796269416910988
-3.101930659290534 0 -46.82558875603694
1.917336726840532 0 -76.95701968931616
2.072744577550043 0 -33.18002202002607
0.7354026654717778 0 -83.21844444301411
3.740652995873043 0 -41.00987613326688
0.1871056454476001 0 -53.57900166962999
-3.362240523515299 0 -104.5236527943544
2.440901436015465 0 -98.64238300611953
-2.685646827826357 0 -92.88205983575503
15.47860157944768 0 -40
-15.47860157944769 0 -40
-15.47860157944769 0 -80
15.47860157944769 0 -80
3.820103313361404 0 -58.91693642451813
-3.405544995411306 0 -67.34506034038932
-3.382056904018578 0 -26.45675444724412
3.859467671321478 0 -19.79121962937179
-4.064207611026266 0 -12.39448376098069
-2.961808594493963 0 -110.5547149722748
3.757274145411882 0 -111.3585726093407
-9.698635204075034 0 -80.02329596814867
9.814950479303445 0 -80.08022902223125
9.542424353693992 0 -40.20197522665337
-9.636331892481971 0 -39.82599968085239
4.773728239008814 0 -72.4877867075199
5.703306707841534 0 -80.92276940220439
-1.068244472759917 0 -8.529741477809395
-4.981246939831163 0 -53.39614031586052
5.037622177458951 0 -53.44434849568246
5.424136068422499 0 -86.49251331285981
-4.525167416868644 0 -115.7034550886064
4.746325092259406 0 -116.005855041354
0.6028577463426572 0 -71.10570470297525
-5.097192278142812 0 -7.557928046430888
0.4339227877466501 0 -88.59286791190847
-12.58402469270312 4.029024516747095 -42.34149210995524
12.58402490091845 4.029024122026295 -42.34149208989322
12.10899769330074 7.963534746070217 -42.01210042557219
-12.10899796905194 7.963533693610896 -42.01210051512476
-12.58402490093741 4.029024121999142 -37.65850791010931
12.58402469268423 4.029024516774082 -37.65850789004224
12.10899796910599 7.963533693455428 -37.98789948486488
-12.10899769324675 7.963534746225811 -37.9878995744382
8.750000000000002 10.65102747894633 -33.66901440727932
8.750000000000002 14.87849132571863 -19.04772031307586
8.750000000000002 9.999999999999973 -8.773502691896237
8.750000000000002 5.191441843260999 -19.60735753422563
8.750000000000002 5.033896504568013 -25.95777894585479
8.750000000000002 15.81055001948904 -31.39365587719664
8.750000000000002 15.15334909479714 -25.38354948530521
8.750000000000002 5.134318755077301 -13.00117992947081
8.750000000000002 14.99223497353759 -12.63541039428474
8.750000000000002 4.995152540874964 -31.90219682326492
8.750000000000002 10.05875309999888 -15.882940215409
8.750000000000002 4.867698663235112 -7.877256965325532
8.750000000000002 15.56997951598527 -7.419463938413074
8.750000000000002 10.12926940405358 -22.34507418726015
8.750000000000002 10.45968455597783 -28.19109862969039
10.25 3.10416666666666 -3
-10.25 3.104166666666674 -3
11.75 20.125 -1.5
11.75 14.37499999999999 -1.5
11.75 8.624999999999989 -1.5
11.75 2.874999999999994 -1.5
-2.707174061168086 4.878797530676509 0
3.157610638484556 18.22886740495932 0
7.069955745470661 8.71654637064 0
-6.619519168154191 14.39111856499582 0
7.102873022115111 14.37499999999999 0
0.1126091443291184 11.52691623390895 0
-7.000954855602268 8.644857627020135 0
-2.792058517349995 18.15992185565015 0
2.948495529093417 4.721447277005961 0
-7.528051718759414 18.81262893003678 0
7.528051718759419 4.187371069963204 0
7.820492259183634 19.07601590637069 0
-7.553981076842913 4.160878030182232 0
-11.75 20.125 -1.5
-11.75 14.37499999999999 -1.5
-11.75 8.624999999999988 -1.5
-11.75 2.874999999999994 -1.5
-8.749999999999998 12.27714236651936 -33.56514011196391
-8.749999999999998 14.87849132571864 -19.04772031307584
-8.749999999999998 10.00000000000003 -8.773502691896239
-8.749999999999998 4.406436409505146 -26.80369824408352
-8.749999999999998 4.958507661909628 -19.66518150036553
-8.749999999999998 14.44080998707454 -27.16823325296717
-8.749999999999998 5.106588495392636 -13.00806373496366
-8.749999999999998 14.99223497353762 -12.63541039428472
-8.749999999999998 16.60286701399591 -32.20904105824943
-8.749999999999998 8.143511857444295 -30.60129750254048
-8.749999999999998 10.02772161892319 -15.89064352155574
-8.749999999999998 4.867698663235126 -7.877256965325531
-8.749999999999998 15.5699795159853 -7.419463938413061
-8.749999999999998 9.475913143429239 -23.19612905576471
-8.749999999999998 3.415764826951675 -33.04435573759167
-8.749999999999998 10.79782860643555 -46.19843678316161
-8.749999999999998 12.32515818832499 -73.64944588941741
-8.749999999999998 14.90327874384386 -60.01710792135957
-8.749999999999998 4.447201613426073 -66.93513095906626
-8.749999999999998 5.54631668096048 -53.57450241659573
-8.749999999999998 5.026021926695803 -60.08493889594367
-8.749999999999998 15.46391363859565 -48.70611258721043
-8.749999999999998 14.49823539785111 -67.54091624841534
-8.749999999999998 15.22023244598969 -54.22066274786658
-8.749999999999998 16.60286701399592 -72.20904105824943
-8.749999999999998 8.204747188737455 -70.71058055274467
-8.749999999999998 4.991630059669295 -48.04673897761744
-8.749999999999998 10.18280999708372 -56.93429437004527
-8.749999999999998 9.543715811273003 -63.70382815792913
-8.749999999999998 3.421332433735717 -73.05879824998851
-8.749999999999998 10.86452670601779 -51.76727585821872
-12.5840249009374 4.029024121999169 -77.65850791010929
12.58402469268424 4.029024516774071 -77.65850789004224
12.1089979691059 7.963533693455574 -77.98789948486488
-12.10899738216994 7.963535288795484 -77.98789958427653
-12.58402469270313 4.029024516747072 -82.34149210995524
12.58402490091845 4.029024122026282 -82.34149208989321
12.10899769330068 7.963534746070312 -82.0121004255722
-12.10899796905192 7.963533693610908 -82.01210051512476
-8.749999999999998 10.2690883582504 -87.59610398566228
-8.749999999999998 14.95109547399138 -105.7309933199089
-8.749999999999998 5.269713949903399 -98.7027046272966
-8.749999999999998 9.199594142670927 -114.0859521348072
-8.749999999999998 15.24170769448838 -93.19711779161017
-8.749999999999998 16.30835475991069 -88.12042978674909
-8.749999999999998 5.118423652288871 -92.55038550899644
-8.749999999999998 4.94111048929647 -104.9678940823056
-8.749999999999998 14.94182950390087 -99.38892006101872
-8.749999999999998 14.77509962327463 -111.708108909862
-8.749999999999998 4.743654860424001 -110.8603646520666
-8.749999999999998 4.220913026713198 -116.1839432968939
-8.749999999999998 9.725486576818184 -108.1830814156293
-8.749999999999998 4.374988879411429 -87.37901900999893
-8.749999999999998 9.835124713945055 -101.9290848333438
-8.749999999999998 9.918277858736211 -95.60946121090042
0 3.710924185090863 -120
5.007178102801749 3.710924185090863 -120
-5.007178102801749 3.710924185090863 -120
8.750000000000002 10.07034894238217 -87.25436298705853
8.750000000000002 14.95109547399138 -105.7309933199089
8.750000000000002 5.269713949903399 -98.7027046272966
8.750000000000002 9.199594142670927 -114.0859521348072
8.750000000000002 15.09284565810717 -93.44617961032903
8.750000000000002 16.46130744460971 -88.13540996248051
8.750000000000002 5.034248078973028 -92.48275102348489
8.750000000000002 4.94111048929647 -104.9678940823056
8.750000000000002 14.917019164504 -99.43043036413853
8.750000000000002 14.77509962327463 -111.708108909862
8.750000000000002 4.743654860424001 -110.8603646520666
8.750000000000002 4.220913026713198 -116.1839432968939
8.750000000000002 9.725486576818184 -108.1830814156293
8.750000000000002 4.234602030280821 -87.160891710255
8.750000000000002 9.833014991207225 -101.932614621024
8.750000000000002 9.71580898367376 -95.66023385976754
8.750000000000002 12.32515818832499 -73.64944588941741
8.750000000000002 10.79782860643552 -46.19843678316161
8.750000000000002 14.90327874384386 -60.01710792135957
8.750000000000002 4.447201613426074 -66.93513095906626
8.750000000000002 5.546316680960476 -53.57450241659573
8.750000000000002 5.026021926695803 -60.08493889594367
8.750000000000002 15.46391363859563 -48.70611258721043
8.750000000000002 14.49823539785111 -67.54091624841534
8.750000000000002 15.22023244598968 -54.22066274786659
8.750000000000002 16.60286701399592 -72.20904105824943
8.750000000000002 8.204747188737455 -70.71058055274467
8.750000000000002 4.99163005966927 -48.04673897761742
8.750000000000002 10.18280999708372 -56.93429437004527
8.750000000000002 9.543715811273003 -63.70382815792913
8.750000000000002 3.421332433735718 -73.05879824998853
8.750000000000002 10.86452670601776 -51.76727585821872
3.552713678800501e-15 16.51650045027593 -43.73764324880569
-4.82879411449556 16.45628896409152 -43.71289804108847
4.828794114495566 16.45628896409152 -43.71289804108847
3.552713678800501e-15 16.51650045027595 -36.26235675119431
-4.828794114495569 16.45628896409153 -36.28710195891152
4.828794114495569 16.45628896409153 -36.28710195891152
0 20 -8.051814855409225
-1.77635683940025e-15 20 -29.77892269149014
-3.236754532638008 20 -18.91536877344967
3.236754532638008 20 -18.9153687734497
3.192980121894497 20 -12.76898424611612
-3.192980121894498 20 -25.06175330078325
-3.687664734005261 20 -12.02734852846006
3.68766473400526 20 -25.80338901843931
4.582213993288056 20 -7.329480767645739
-4.582213993288057 20 -30.50125677925363
-4.582213993288049 20 -7.329480767645732
4.582213993288045 20 -30.50125677925363
8.812499999999986 23 -1.5
2.937499999999966 23 -1.5
-8.812500000000007 23 -1.5
-2.937500000000027 23 -1.499999999999999
0 20 -70.43784082870783
0 20 -49.56215917129218
3.612481811010183 20 -60.00000000000003
-3.612481811010184 20 -60.00000000000002
3.596198949481457 20 -66.46420263424191
2.985198953167773 20 -54.34738348387974
-2.628677248830485 20 -65.61673191727624
-3.770703758189544 20 -53.58241044953136
4.496939691294855 20 -70.55048992046436
-4.609068783099431 20 -70.92289807358449
4.496939691294858 20 -49.44951007953564
-4.585583588024445 20 -49.31087521912367
0 16.51650045027595 -76.2623567511943
-4.828794114495569 16.45628896409153 -76.28710195891152
4.828794114495569 16.45628896409153 -76.28710195891152
0 16.51650045027592 -83.73764324880568
4.82879411449556 16.45628896409151 -83.71289804108847
-4.82879411449556 16.45628896409151 -83.71289804108847
0 20 -110.4378408287078
-1.77635683940025e-15 20 -89.56215917129219
-2.449231353042686 20 -100
4.334312554258609 20 -100
3.177554177781643 20 -94.34738348387974
3.177554177781644 20 -105.6526165161203
-3.783524577019875 20 -93.82010573036837
-3.783524577019879 20 -106.1798942696317
4.496939691294855 20 -110.5504899204644
-4.586251060891499 20 -89.32325002549794
-4.586251060891499 20 -110.6767499745021
4.496939691294858 20 -89.44951007953564
0 15.32739370588983 -116.7510457913162
0 10.26077260030518 -118.8332829129532
-5.833333333333334 16.85546209254543 -116.1230531601745
-4.375 11.83304155403246 -118.1871251063156
4.375 11.83304155403246 -118.1871251063156
4.958333333333332 16.17427188900264 -116.4030029529761
7.555995114223346 7.023885724364622 -82.44291584789713
-5.745398753102988 8.064347615924648 -82.54966428848449
-0.7706992070684229 9.909967091405456 -82.53982934028014
3.734187262251043 9.164327199149367 -82.55114988635354
12.6426914671538 2.70380620564788 -80
-12.64269146715379 2.70380620564788 -80
2.815859867638121 2.70380620564788 -80
-2.815859867638128 2.70380620564788 -80
-7.260888660892347 2.70380620564788 -80.00000000000001
7.260888660892338 2.70380620564788 -80
14.15662698453045 5.585351641624898 -80
10.88785150974185 10.63301133459143 -80
8.098596446376913 6.479747267387242 -77.57134710590081
-5.745398753102793 8.064347615924094 -77.45033571151535
-0.1239102991118768 9.778428167996728 -77.41881191058403
4.237452757301631 9.036836206931698 -77.47075301126128
7.555995114223343 7.023885724364622 -42.44291584789712
-5.745398753102988 8.064347615924648 -42.54966428848449
-0.7706992070684205 9.909967091405454 -42.53982934028014
3.734187262251042 9.164327199149364 -42.55114988635354
12.19797253529723 2.70380620564788 -40
-12.64269146715379 2.70380620564788 -40
2.815859867638121 2.70380620564788 -40
-2.815859867638128 2.70380620564788 -40
7.260888660892338 2.70380620564788 -39.99999999999999
-7.260888660892347 2.70380620564788 -40.00000000000001
14.15662698453045 5.585351641624899 -40
8.098596446376906 6.479747267387252 -37.57134710590083
-5.745398753102792 8.064347615924092 -37.45033571151536
-0.1239102991118768 9.778428167996726 -37.41881191058404
4.237452757301631 9.036836206931698 -37.47075301126129
3.262842716428322 16.33753121796519 -40
13.88779637780027 9.20223468861469 -79.99999999999999
-1.06581410364015e-14 9.378385124250888 -91.98128519710033
-1.376676550535194e-14 8.61166247181302 -68.11925708953476
-1.4210854715202e-14 9.063076099179435 -28.57931829686416
-1.498801083243961e-14 9.24082948542315 -51.3885904349448
1.887281159224724e-15 9.565126530938121 -109.9352783131476
0.0004327468707665538 11.40019659921778 -100.7214350491993
-1.77635683940025e-15 8.699394465035194 -11.59192670034295
0.7322733912878263 8.145399661048595 -20.10137594136183
-0.5580480895163316 11.64158428463279 -59.85603572993401
-2.291851007220414 13.99589385729369 -70.80088840307131
-0.8218318783070325 12.8127048363221 -5.919820558254646
3.052638209576005 5.706810910690706 -113.93742356235
-2.271246874545595 14.29084583403834 -89.02270808256733
-2.267646980318705 14.36616888261054 -48.97765922197927
-2.168801365930393 14.34103578844246 -30.91595035445075
2.707049020367773 13.55095826826471 -15.81700832770076
-3.259407842536175 5.753219910683905 -113.6469518674585
2.252528623448785 13.57490798926613 -23.96524286701172
3.848656823883696 5.064691277986568 -89.88555329731764

CELLS 3066 13464
1 0
1 1
1 2
1 3
1 4
1 5
1 6
1 7
1 8
1 9
1 10
1 11
1 12
1 13
1 14
1 15
1 16
1 17
1 18
1 19
1 20
1 21
1 22
1 23
1 24
1 25
1 26
1 27
1 28
1 29
1 30
1 31
1 32
1 33
1 34
1 35
1 36
1 37
1 38
1 39
1 40
1 41
1 42
1 43
1 44
1 45
1 46
1 47
1 48
1 49
1 50
1 51
1 52
1 53
1 54
1 55
1 56
1 57
1 58
1 59
1 60
1 61
1 62
1 63
1 64
1 65
2 0 66
2 66 1
2 1 2
2 2 67
2 67 3
2 3 68
2 68 69
2 69 70
2 70 71
2 71 4
2 4 5
2 5 6
2 6 72
2 72 73
2 73 74
2 74 7
2 8 7
2 8 9
2 9 75
2 75 76
2 76 77
2 77 78
2 78 10
2 11 79
2 79 10
2 12 11
2 13 80
2 80 12
2 13 81
2 81 82
2 82 83
2 83 84
2 84 14
2 15 85
2 85 14
2 16 15
2 17 86
2 86 16
2 17 87
2 87 88
2 88 89
2 89 90
2 90 91
2 91 18
2 19 92
2 92 93
2 93 18
2 20 94
2 94 95
2 95 96
2 96 97
2 97 98
2 98 19
2 20 99
2 99 21
2 21 22
2 22 100
2 100 23
2 0 101
2 101 102
2 102 103
2 103 104
2 104 23
2 1 105
2 105 106
2 106 107
2 107 108
2 108 109
2 109 110
2 110 111
2 111 12
2 24 112
2 112 13
2 24 113
2 113 114
2 114 25
2 25 115
2 115 0
2 2 116
2 116 117
2 117 118
2 118 119
2 119 120
2 120 121
2 121 122
2 122 11
2 3 123
2 123 26
2 26 124
2 124 125
2 125 27
2 10 126
2 126 27
2 4 127
2 127 128
2 128 28
2 29 129
2 129 130
2 130 131
2 131 132
2 132 28
2 26 133
2 133 29
2 31 134
2 134 135
2 135 136
2 136 30
2 8 137
2 137 138
2 138 139
2 139 31
2 32 140
2 140 141
2 141 9
2 32 142
2 142 143
2 143 28
2 5 144
2 144 145
2 145 146
2 146 30
2 6 147
2 147 148
2 148 149
2 149 33
2 30 33
2 34 150
2 150 151
2 151 152
2 152 33
2 7 153
2 153 154
2 154 155
2 155 34
2 31 34
2 32 156
2 156 157
2 157 158
2 158 159
2 159 35
2 27 160
2 160 35
2 36 161
2 161 24
2 37 162
2 162 163
2 163 164
2 164 165
2 165 36
2 38 166
2 166 37
2 14 167
2 167 38
2 23 168
2 168 39
2 39 169
2 169 170
2 170 38
2 22 171
2 171 172
2 172 173
2 173 174
2 174 175
2 175 176
2 176 177
2 177 15
2 21 178
2 178 179
2 179 180
2 180 181
2 181 182
2 182 183
2 183 184
2 184 16
2 40 185
2 185 17
2 40 186
2 186 187
2 187 41
2 41 188
2 188 20
2 42 189
2 189 40
2 43 190
2 190 191
2 191 192
2 192 193
2 193 42
2 44 194
2 194 43
2 18 195
2 195 44
2 45 196
2 196 197
2 197 44
2 19 198
2 198 45
2 46 199
2 199 41
2 47 200
2 200 201
2 201 202
2 202 203
2 203 46
2 45 204
2 204 47
2 48 205
2 205 25
2 49 206
2 206 207
2 207 208
2 208 209
2 209 48
2 39 210
2 210 49
2 48 211
2 211 212
2 212 36
2 29 213
2 213 214
2 214 35
2 49 215
2 215 216
2 216 37
2 46 217
2 217 218
2 218 42
2 47 219
2 219 220
2 220 43
2 50 221
2 221 222
2 222 51
2 51 223
2 223 50
2 50 224
2 224 52
2 52 225
2 225 226
2 226 227
2 227 228
2 228 229
2 229 230
2 230 53
2 53 231
2 231 51
2 52 54
2 54 232
2 232 55
2 55 233
2 233 56
2 56 234
2 234 57
2 53 57
2 54 235
2 235 236
2 236 237
2 237 238
2 238 239
2 239 240
2 240 57
2 55 241
2 241 242
2 242 56
2 58 243
2 243 244
2 244 59
2 59 245
2 245 58
2 58 246
2 246 60
2 60 247
2 247 248
2 248 249
2 249 250
2 250 251
2 251 252
2 252 61
2 61 253
2 253 59
2 60 62
2 62 254
2 254 63
2 63 255
2 255 64
2 64 256
2 256 65
2 61 65
2 62 257
2 257 258
2 258 259
2 259 260
2 260 261
2 261 262
2 262 65
2 63 263
2 263 264
2 264 64
3 66 304 0
3 0 267 101
3 0 286 267
3 0 304 286
3 2 291 1
3 1 291 66
3 67 291 2
3 3 304 67
3 68 284 3
3 284 286 3
3 286 304 3
3 5 6 4
3 4 6 72
3 4 281 71
3 72 281 4
3 8 9 7
3 7 9 74
3 9 271 74
3 75 315 9
3 9 315 271
3 10 268 78
3 79 305 10
3 10 274 268
3 10 305 274
3 12 292 11
3 11 292 79
3 80 292 12
3 13 305 80
3 81 282 13
3 13 282 274
3 274 305 13
3 14 266 84
3 85 302 14
3 14 277 266
3 14 302 277
3 16 293 15
3 15 293 85
3 86 293 16
3 17 302 86
3 87 265 17
3 265 277 17
3 277 302 17
3 18 312 91
3 93 312 18
3 19 313 92
3 98 313 19
3 20 311 94
3 99 303 20
3 303 307 20
3 307 311 20
3 22 294 21
3 21 294 99
3 100 294 22
3 23 303 100
3 104 306 23
3 23 306 283
3 283 307 23
3 23 307 303
3 66 291 67
3 67 304 66
3 69 280 68
3 280 284 68
3 70 298 69
3 69 298 280
3 71 279 70
3 279 298 70
3 71 281 279
3 73 281 72
3 74 271 73
3 271 281 73
3 76 299 75
3 299 315 75
3 77 273 76
3 273 299 76
3 78 297 77
3 77 297 273
3 268 297 78
3 79 292 80
3 80 305 79
3 82 309 81
3 81 309 282
3 83 272 82
3 272 309 82
3 84 296 83
3 83 296 272
3 266 296 84
3 85 293 86
3 86 302 85
3 88 290 87
3 87 290 265
3 89 270 88
3 270 290 88
3 90 288 89
3 89 288 270
3 91 300 90
3 90 300 288
3 91 312 300
3 92 269 93
3 92 313 269
3 269 312 93
3 94 276 95
3 94 311 276
3 95 289 96
3 276 289 95
3 96 275 97
3 96 289 275
3 97 301 98
3 275 301 97
3 301 313 98
3 99 294 100
3 100 303 99
3 101 310 102
3 267 310 101
3 102 295 103
3 102 310 295
3 103 278 104
3 103 295 278
3 278 306 104
3 265 285 277
3 265 316 285
3 290 316 265
3 277 283 266
3 283 314 266
3 266 314 296
3 267 286 282
3 282 287 267
3 287 310 267
3 274 284 268
3 284 297 268
3 269 301 300
3 300 312 269
3 269 313 301
3 288 289 270
3 289 290 270
3 271 308 281
3 271 315 308
3 278 295 272
3 272 296 278
3 272 295 287
3 287 309 272
3 273 298 279
3 279 299 273
3 273 297 280
3 280 298 273
3 282 286 274
3 274 286 284
3 275 289 288
3 288 300 275
3 300 301 275
3 276 290 289
3 276 316 290
3 311 316 276
3 277 285 283
3 296 314 278
3 278 314 306
3 281 308 279
3 279 308 299
3 280 297 284
3 282 309 287
3 285 307 283
3 306 314 283
3 285 311 307
3 285 316 311
3 295 310 287
3 308 315 299
3 0 318 66
3 115 318 0
3 66 318 1
3 1 318 105
3 12 317 80
3 111 317 12
3 80 317 13
3 13 317 112
3 109 24 110
3 113 24 109
3 24 320 110
3 112 320 24
3 106 25 107
3 106 319 25
3 114 107 25
3 25 319 115
3 105 319 106
3 318 319 105
3 108 107 114
3 109 108 113
3 113 108 114
3 110 320 111
3 111 320 317
3 317 320 112
3 115 319 318
3 1 116 2
3 1 105 116
3 111 12 11
3 111 11 122
3 105 106 116
3 106 107 118
3 116 106 117
3 106 118 117
3 107 108 118
3 119 108 109
3 118 108 119
3 109 110 121
3 119 109 120
3 109 121 120
3 110 111 122
3 121 110 122
3 2 322 67
3 116 322 2
3 67 322 3
3 3 322 123
3 10 321 79
3 126 321 10
3 79 321 11
3 11 321 122
3 117 118 26
3 26 323 117
3 26 118 124
3 123 323 26
3 120 121 27
3 120 27 125
3 121 324 27
3 27 324 126
3 117 323 116
3 116 323 322
3 124 118 119
3 120 125 119
3 124 119 125
3 122 324 121
3 321 324 122
3 322 323 123
3 126 324 321
3 3 334 68
3 123 334 3
3 71 336 4
3 4 336 127
3 26 325 123
3 133 325 26
3 128 337 28
3 28 337 132
3 129 330 29
3 29 330 133
3 68 329 69
3 68 334 329
3 69 328 70
3 69 329 328
3 70 332 71
3 328 332 70
3 332 336 71
3 325 334 123
3 127 327 128
3 127 336 327
3 327 337 128
3 130 331 129
3 129 331 330
3 131 326 130
3 326 331 130
3 132 333 131
3 131 333 326
3 132 337 333
3 133 330 325
3 330 339 325
3 325 339 334
3 326 338 331
3 333 335 326
3 335 338 326
3 332 335 327
3 327 336 332
3 327 335 333
3 333 337 327
3 329 338 328
3 328 335 332
3 328 338 335
3 334 339 329
3 329 339 338
3 331 339 330
3 338 339 331
3 5 4 340
3 4 127 340
3 144 5 340
3 9 8 341
3 8 137 341
3 141 9 341
3 30 28 136
3 146 28 30
3 128 28 146
3 28 143 136
3 31 134 32
3 31 32 139
3 134 142 32
3 139 32 140
3 128 145 127
3 127 145 144
3 127 144 340
3 145 128 146
3 142 134 135
3 143 135 136
3 143 142 135
3 137 138 141
3 137 141 341
3 138 139 140
3 138 140 141
3 5 345 6
3 144 345 5
3 6 345 147
3 33 342 30
3 30 342 146
3 149 342 33
3 145 344 144
3 144 344 147
3 147 345 144
3 146 343 145
3 145 343 148
3 148 344 145
3 146 342 149
3 149 343 146
3 147 344 148
3 148 343 149
3 6 356 72
3 147 356 6
3 74 358 7
3 7 358 153
3 33 357 149
3 152 357 33
3 34 355 150
3 155 355 34
3 72 354 73
3 72 356 354
3 73 346 74
3 73 354 346
3 346 358 74
3 148 348 147
3 348 356 147
3 149 350 148
3 148 350 348
3 149 357 350
3 150 353 151
3 150 355 353
3 151 347 152
3 151 353 347
3 347 357 152
3 153 352 154
3 153 358 352
3 154 349 155
3 154 352 349
3 349 355 155
3 351 352 346
3 346 354 351
3 352 358 346
3 347 351 350
3 350 357 347
3 347 353 351
3 350 351 348
3 351 354 348
3 354 356 348
3 349 352 351
3 351 353 349
3 353 355 349
3 8 7 362
3 7 153 362
3 137 8 362
3 34 31 359
3 31 139 359
3 155 34 359
3 138 137 361
3 137 153 361
3 153 137 362
3 139 138 360
3 138 154 360
3 154 138 361
3 139 155 359
3 155 139 360
3 153 154 361
3 154 155 360
3 75 9 374
3 9 141 374
3 10 78 377
3 126 10 377
3 27 126 363
3 160 27 363
3 140 32 375
3 32 156 375
3 159 35 371
3 35 160 371
3 76 75 369
3 369 75 374
3 77 76 367
3 367 76 369
3 78 77 366
3 366 77 367
3 78 366 377
3 363 126 372
3 372 126 377
3 141 140 365
3 365 140 375
3 141 365 374
3 156 157 370
3 156 370 375
3 157 158 364
3 157 364 370
3 158 159 368
3 364 158 368
3 368 159 371
3 160 363 371
3 363 368 371
3 368 363 372
3 364 368 376
3 370 364 373
3 373 364 376
3 369 365 373
3 365 369 374
3 365 370 373
3 370 365 375
3 366 367 376
3 372 366 376
3 366 372 377
3 367 369 373
3 367 373 376
3 368 372 376
3 81 13 389
3 13 112 389
3 14 84 392
3 167 14 392
3 112 24 378
3 24 161 378
3 161 36 384
3 36 165 384
3 162 37 387
3 37 166 387
3 166 38 379
3 38 167 379
3 82 81 382
3 382 81 389
3 83 82 383
3 82 382 383
3 84 83 381
3 381 83 383
3 84 381 392
3 112 378 389
3 378 161 384
3 163 162 385
3 385 162 387
3 164 163 380
3 380 163 385
3 165 164 386
3 164 380 386
3 384 165 386
3 166 379 387
3 379 167 388
3 388 167 392
3 378 384 393
3 389 378 393
3 379 385 387
3 385 379 388
3 380 385 391
3 386 380 390
3 390 380 391
3 381 383 391
3 388 381 391
3 381 388 392
3 383 382 390
3 382 389 393
3 390 382 393
3 383 390 391
3 384 386 393
3 385 388 391
3 386 390 393
3 14 394 85
3 167 394 14
3 85 394 15
3 15 394 177
3 22 395 100
3 171 395 22
3 100 395 23
3 23 395 168
3 38 397 167
3 175 38 170
3 175 176 38
3 176 397 38
3 168 396 39
3 39 173 169
3 172 173 39
3 39 396 172
3 167 397 394
3 395 396 168
3 169 174 170
3 169 173 174
3 175 170 174
3 172 396 171
3 171 396 395
3 177 397 176
3 394 397 177
3 184 16 15
3 177 184 15
3 21 171 22
3 21 178 171
3 171 179 172
3 178 179 171
3 172 180 173
3 172 179 180
3 173 181 174
3 180 181 173
3 174 181 175
3 175 183 176
3 181 182 175
3 182 183 175
3 176 183 177
3 183 184 177
3 16 398 86
3 184 398 16
3 86 398 17
3 17 398 185
3 20 399 99
3 188 399 20
3 99 399 21
3 21 399 178
3 182 40 183
3 186 40 182
3 40 401 183
3 185 401 40
3 179 41 180
3 179 400 41
3 187 180 41
3 41 400 188
3 178 400 179
3 399 400 178
3 181 180 187
3 182 181 186
3 186 181 187
3 183 401 184
3 184 401 398
3 398 401 185
3 188 400 399
3 87 17 415
3 17 185 415
3 18 91 413
3 195 18 413
3 185 40 402
3 40 189 402
3 189 42 407
3 42 193 407
3 190 43 411
3 43 194 411
3 194 44 405
3 44 195 413
3 405 44 413
3 88 87 408
3 408 87 415
3 89 88 404
3 404 88 408
3 90 89 409
3 89 404 409
3 91 90 412
3 90 409 412
3 91 412 413
3 185 402 415
3 402 189 407
3 191 190 403
3 403 190 411
3 192 191 410
3 191 403 410
3 193 192 406
3 406 192 410
3 193 406 407
3 194 405 411
3 406 402 407
3 402 406 417
3 402 408 415
3 408 402 417
3 410 403 416
3 403 411 414
3 403 414 416
3 404 408 417
3 409 404 416
3 416 404 417
3 411 405 414
3 412 405 413
3 405 412 414
3 406 410 417
3 412 409 414
3 414 409 416
3 410 416 417
3 18 420 93
3 195 420 18
3 92 419 19
3 19 419 198
3 44 420 195
3 197 420 44
3 45 419 196
3 198 419 45
3 93 418 92
3 418 419 92
3 93 420 418
3 196 418 197
3 196 419 418
3 418 420 197
3 19 432 98
3 198 432 19
3 94 434 20
3 20 434 188
3 188 421 41
3 41 421 199
3 45 432 198
3 204 424 45
3 424 432 45
3 199 426 46
3 46 426 203
3 200 430 47
3 47 430 204
3 95 427 94
3 427 434 94
3 96 423 95
3 423 427 95
3 97 428 96
3 96 428 423
3 98 431 97
3 97 431 428
3 98 432 431
3 188 434 421
3 421 426 199
3 201 422 200
3 422 430 200
3 202 429 201
3 201 429 422
3 203 425 202
3 425 429 202
3 203 426 425
3 204 430 424
3 425 426 421
3 421 436 425
3 421 434 427
3 427 436 421
3 429 435 422
3 422 433 430
3 422 435 433
3 423 436 427
3 428 435 423
3 435 436 423
3 430 433 424
3 431 432 424
3 424 433 431
3 425 436 429
3 431 433 428
3 433 435 428
3 429 436 435
3 101 448 0
3 0 448 115
3 23 451 104
3 168 451 23
3 115 438 25
3 25 438 205
3 39 437 168
3 210 437 39
3 205 443 48
3 48 443 209
3 206 446 49
3 49 446 210
3 102 441 101
3 441 448 101
3 103 442 102
3 102 442 441
3 104 440 103
3 440 442 103
3 104 451 440
3 115 448 438
3 437 447 168
3 447 451 168
3 438 443 205
3 207 444 206
3 444 446 206
3 208 439 207
3 439 444 207
3 209 445 208
3 208 445 439
3 443 445 209
3 210 446 437
3 437 446 444
3 444 447 437
3 438 452 443
3 448 452 438
3 439 450 444
3 445 449 439
3 449 450 439
3 440 450 442
3 447 450 440
3 440 451 447
3 442 449 441
3 441 452 448
3 449 452 441
3 442 450 449
3 443 452 445
3 444 450 447
3 445 452 449
3 113 454 24
3 24 454 161
3 25 455 114
3 205 455 25
3 161 454 36
3 36 454 212
3 48 455 205
3 211 455 48
3 114 453 113
3 453 454 113
3 114 455 453
3 212 453 211
3 453 455 211
3 212 454 453
3 124 458 26
3 26 458 133
3 27 457 125
3 160 457 27
3 133 458 29
3 29 458 213
3 35 457 160
3 214 457 35
3 125 456 124
3 456 458 124
3 125 457 456
3 213 456 214
3 213 458 456
3 456 457 214
3 132 467 28
3 28 467 143
3 29 470 129
3 213 470 29
3 142 469 32
3 32 469 156
3 159 468 35
3 35 468 214
3 129 466 130
3 129 470 466
3 130 462 131
3 130 466 462
3 131 463 132
3 462 463 131
3 463 467 132
3 143 459 142
3 459 469 142
3 143 467 459
3 156 465 157
3 156 469 465
3 157 461 158
3 157 465 461
3 158 464 159
3 461 464 158
3 464 468 159
3 214 460 213
3 460 470 213
3 214 468 460
3 463 465 459
3 459 467 463
3 465 469 459
3 464 466 460
3 460 468 464
3 466 470 460
3 461 463 462
3 462 464 461
3 461 465 463
3 462 466 464
3 30 471 33
3 136 471 30
3 34 473 31
3 31 473 134
3 33 471 152
3 150 473 34
3 134 474 135
3 134 473 150
3 150 474 134
3 135 472 136
3 151 472 135
3 135 474 151
3 152 471 136
3 136 472 152
3 151 474 150
3 152 472 151
3 36 486 165
3 212 486 36
3 162 484 37
3 37 484 216
3 209 485 48
3 48 485 211
3 49 483 206
3 215 483 49
3 163 481 162
3 481 484 162
3 164 478 163
3 478 481 163
3 165 482 164
3 164 482 478
3 165 486 482
3 206 479 207
3 206 483 479
3 207 477 208
3 207 479 477
3 208 480 209
3 477 480 208
3 480 485 209
3 211 476 212
3 211 485 476
3 476 486 212
3 216 475 215
3 475 483 215
3 216 484 475
3 475 481 479
3 479 483 475
3 475 484 481
3 480 482 476
3 476 485 480
3 482 486 476
3 478 480 477
3 477 481 478
3 479 481 477
3 478 482 480
3 37 488 166
3 216 488 37
3 166 488 38
3 38 488 170
3 169 489 39
3 39 489 210
3 210 489 49
3 49 489 215
3 170 487 169
3 487 489 169
3 170 488 487
3 215 487 216
3 215 489 487
3 487 488 216
3 186 492 40
3 40 492 189
3 41 491 187
3 199 491 41
3 189 492 42
3 42 492 218
3 46 491 199
3 217 491 46
3 187 490 186
3 490 492 186
3 187 491 490
3 218 490 217
3 490 491 217
3 218 492 490
3 42 502 193
3 218 502 42
3 190 503 43
3 43 503 220
3 203 504 46
3 46 504 217
3 47 501 200
3 219 501 47
3 191 500 190
3 500 503 190
3 192 495 191
3 495 500 191
3 193 499 192
3 192 499 495
3 193 502 499
3 200 498 201
3 200 501 498
3 201 496 202
3 201 498 496
3 202 497 203
3 496 497 202
3 497 504 203
3 217 494 218
3 217 504 494
3 494 502 218
3 220 493 219
3 493 501 219
3 220 503 493
3 493 500 498
3 498 501 493
3 493 503 500
3 497 499 494
3 494 504 497
3 499 502 494
3 495 497 496
3 496 498 495
3 495 499 497
3 498 500 495
3 43 507 194
3 220 507 43
3 194 508 44
3 44 508 197
3 196 509 45
3 45 509 204
3 204 510 47
3 47 510 219
3 507 508 194
3 197 506 196
3 506 509 196
3 197 508 506
3 509 510 204
3 219 505 220
3 219 510 505
3 505 507 220
3 506 508 505
3 505 509 506
3 505 508 507
3 505 510 509
3 221 223 50
3 223 222 51
3 222 223 221
3 221 50 511
3 50 224 511
3 51 222 512
3 231 51 512
3 52 225 224
3 230 53 231
3 222 221 513
3 221 511 514
3 513 221 514
3 512 222 513
3 224 225 511
3 225 226 511
3 226 227 514
3 511 226 514
3 227 228 513
3 227 513 514
3 228 229 512
3 228 512 513
3 229 230 512
3 230 231 512
3 223 517 50
3 50 520 224
3 517 520 50
3 51 518 223
3 231 519 51
3 51 519 518
3 52 515 54
3 224 515 52
3 57 516 53
3 53 516 231
3 54 515 232
3 232 520 55
3 55 517 233
3 55 520 517
3 233 518 56
3 56 519 234
3 518 519 56
3 234 516 57
3 223 518 517
3 232 515 224
3 224 520 232
3 231 516 234
3 234 519 231
3 517 518 233
3 52 54 521
3 225 52 521
3 230 57 53
3 54 235 521
3 230 240 57
3 226 225 522
3 235 225 521
3 225 235 522
3 226 236 227
3 236 226 522
3 227 238 228
3 236 237 227
3 237 238 227
3 228 239 229
3 228 238 239
3 229 239 230
3 239 240 230
3 235 236 522
3 54 232 235
3 232 55 523
3 55 241 523
3 56 234 524
3 242 56 524
3 240 234 57
3 235 232 523
3 234 240 524
3 236 235 523
3 237 236 526
3 236 523 526
3 238 237 525
3 525 237 526
3 239 238 524
3 524 238 525
3 240 239 524
3 241 242 525
3 523 241 526
3 241 525 526
3 242 524 525
3 233 241 55
3 242 233 56
3 242 241 233
3 243 245 58
3 245 244 59
3 244 245 243
3 243 58 527
3 58 246 527
3 59 244 528
3 253 59 528
3 60 247 246
3 252 61 253
3 244 243 529
3 243 527 530
3 529 243 530
3 528 244 529
3 246 247 527
3 247 248 527
3 248 249 530
3 527 248 530
3 249 250 529
3 249 529 530
3 250 251 528
3 250 528 529
3 251 252 528
3 252 253 528
3 245 533 58
3 58 535 246
3 533 535 58
3 59 534 245
3 253 536 59
3 59 536 534
3 60 531 62
3 246 531 60
3 65 532 61
3 61 532 253
3 62 531 254
3 254 535 63
3 63 533 255
3 63 535 533
3 255 534 64
3 64 536 256
3 534 536 64
3 256 532 65
3 245 534 533
3 254 531 246
3 246 535 254
3 253 532 256
3 256 536 253
3 533 534 255
3 60 62 537
3 247 60 537
3 262 65 61
3 252 262 61
3 62 257 537
3 247 257 248
3 257 247 537
3 248 258 249
3 257 258 248
3 249 260 250
3 258 259 249
3 249 259 260
3 260 251 250
3 251 262 252
3 260 261 251
3 251 261 262
3 62 254 257
3 254 63 538
3 63 263 538
3 64 256 539
3 264 64 539
3 262 256 65
3 257 254 538
3 256 262 539
3 258 257 538
3 259 258 541
3 258 538 541
3 260 259 540
3 540 259 541
3 261 260 539
3 539 260 540
3 262 261 539
3 263 264 540
3 538 263 541
3 263 540 541
3 264 539 540
3 255 263 63
3 264 255 64
3 264 263 255
4 404 544 270 549
4 449 442 441 552
4 265 222 316 544
4 449 441 547 552
4 415 222 265 544
4 394 14 85 234
4 3 322 67 254
4 321 10 79 256
4 13 317 80 253
4 316 544 222 562
4 442 545 295 552
4 446 483 489 553
4 435 428 423 549
4 409 416 404 549
4 503 403 411 548
4 310 441 295 547
4 325 458 124 558
4 501 430 422 548
4 383 390 382 552
4 337 554 467 559
4 505 503 507 548
4 503 505 493 548
4 411 507 503 548
4 510 430 501 548
4 268 255 264 546
4 325 330 458 558
4 450 545 442 552
4 404 270 288 549
4 445 452 443 547
4 242 392 266 545
4 446 489 437 553
4 444 479 545 552
4 270 544 289 549
4 390 547 382 552
4 409 404 288 549
4 374 346 271 550
4 288 548 409 549
4 503 500 403 548
4 290 270 404 544
4 545 552 479 553
4 327 336 127 550
4 500 503 493 548
4 244 243 245 547
4 403 548 500 549
4 444 483 446 553
4 383 382 272 552
4 383 545 391 552
4 428 275 423 549
4 337 143 467 554
4 354 281 308 550
4 141 346 374 554
4 242 388 392 545
4 346 550 374 554
4 287 547 295 552
4 423 289 544 549
4 449 547 445 552
4 325 124 546 558
4 310 295 287 547
4 428 548 275 549
4 372 264 268 377
4 443 547 455 557
4 550 554 337 559
4 433 435 422 549
4 433 422 548 549
4 403 416 414 549
4 403 414 548 549
4 325 546 330 558
4 354 550 346 554
4 450 440 442 545
4 391 383 381 545
4 455 547 114 557
4 369 550 299 551
4 337 128 143 554
4 406 499 544 549
4 482 386 552 557
4 406 410 499 549
4 295 545 272 552
4 444 446 437 553
4 370 465 550 559
4 493 498 500 548
4 264 372 268 546
4 255 263 264 546
4 504 426 491 556
4 233 241 242 545
4 370 550 373 559
4 306 241 447 451
4 330 325 339 546
4 501 422 498 548
4 233 242 314 545
4 272 545 383 552
4 337 550 327 554
4 480 445 485 557
4 406 544 499 556
4 547 552 386 557
4 485 443 455 557
4 128 337 327 554
4 278 295 442 545
4 501 498 493 548
4 422 498 548 549
4 169 526 437 545
4 386 547 390 552
4 222 415 402 544
4 479 444 439 552
4 438 243 530 547
4 242 266 314 545
4 404 408 290 544
4 370 550 465 554
4 530 114 438 547
4 325 124 541 546
4 433 431 428 548
4 444 545 450 552
4 445 547 480 552
4 426 504 425 556
4 437 489 169 553
4 354 346 351 554
4 404 417 544 549
4 499 497 544 549
4 430 433 422 548
4 414 411 403 548
4 525 526 169 545
4 470 558 330 561
4 423 544 289 562
4 314 306 241 545
4 500 548 498 549
4 265 316 290 544
4 411 508 507 548
4 505 507 508 548
4 415 265 290 544
4 369 373 550 551
4 493 219 501 510
4 383 272 381 545
4 354 271 308 281
4 219 493 505 510
4 441 310 448 547
4 245 243 267 547
4 443 452 438 547
4 437 169 545 553
4 270 289 288 549
4 187 491 421 556
4 348 127 354 351
4 510 509 430 548
4 423 544 436 549
4 220 503 505 493
4 241 306 447 545
4 452 445 449 547
4 386 393 390 547
4 479 444 545 553
4 458 330 470 558
4 481 479 552 553
4 369 367 373 551
4 275 548 288 549
4 319 247 105 106
4 400 178 179 225
4 426 421 491 556
4 370 373 364 559
4 505 507 503 220
4 340 345 5 144
4 362 8 137 341
4 278 442 440 545
4 499 544 497 556
4 330 546 339 561
4 330 558 546 561
4 431 275 428 548
4 267 448 310 547
4 438 448 243 547
4 289 423 275 549
4 263 325 541 546
4 366 546 376 551
4 116 257 323 117
4 272 287 295 552
4 480 547 445 557
4 337 467 463 559
4 479 483 444 553
4 381 272 296 545
4 141 374 365 554
4 290 289 270 544
4 461 559 551 561
4 465 554 550 559
4 426 425 544 556
4 396 172 171 235
4 495 499 410 549
4 406 417 410 549
4 422 429 496 549
4 374 550 365 554
4 430 509 424 548
4 405 508 411 548
4 373 550 551 559
4 406 544 417 549
4 385 552 545 553
4 373 551 364 559
4 444 450 439 552
4 415 290 408 544
4 487 483 475 553
4 425 544 497 549
4 366 376 367 551
4 263 334 325 546
4 525 545 169 553
4 169 489 487 553
4 329 338 546 551
4 364 551 376 561
4 187 514 513 544
4 369 299 273 551
4 391 545 385 552
4 244 529 547 557
4 459 554 465 559
4 178 179 225 543
4 444 437 545 553
4 489 483 487 553
4 369 273 367 551
4 393 547 386 557
4 426 544 421 556
4 242 388 545 553
4 187 421 544 556
4 215 487 483 475
4 445 439 449 552
4 448 267 243 547
4 233 314 241 545
4 222 513 544 556
4 370 461 465 559
4 431 275 548 555
4 296 266 392 545
4 187 490 491 556
4 264 546 540 558
4 333 337 463 559
4 429 425 497 549
4 455 114 453 557
4 458 470 213 456
4 485 211 476 453
4 404 417 408 544
4 447 306 440 545
4 460 213 470 456
4 315 308 299 550
4 177 397 240 176
4 431 301 275 555
4 505 509 510 548
4 172 171 235 543
4 245 282 244 547
4 479 439 477 552
4 496 429 497 549
4 339 329 338 546
4 217 504 490 494
4 366 297 546 551
4 440 306 447 451
4 309 382 389 547
4 541 124 540 546
4 107 108 249 542
4 244 528 529 557
4 479 475 483 553
4 295 278 272 545
4 456 124 458 558
4 264 539 546 558
4 329 298 328 551
4 421 514 187 544
4 491 490 504 556
4 412 409 300 560
4 392 381 296 388
4 119 118 259 542
4 376 551 546 561
4 296 392 388 545
4 244 547 528 557
4 513 222 512 556
4 490 491 504 217
4 211 485 455 453
4 483 489 487 215
4 335 332 550 551
4 485 455 453 557
4 403 495 410 549
4 403 410 416 549
4 480 482 552 557
4 264 540 539 558
4 364 461 551 561
4 364 551 461 559
4 409 548 300 560
4 230 401 184 183
4 252 111 110 320
4 262 121 122 324
4 494 504 490 556
4 525 242 545 553
4 485 453 476 557
4 447 437 526 545
4 297 366 367 551
4 430 424 433 548
4 405 411 414 548
4 222 223 316 562
4 458 470 456 558
4 480 552 547 557
4 429 422 435 549
4 504 497 425 556
4 450 442 449 552
4 366 268 372 546
4 268 372 377 366
4 222 544 402 556
4 389 244 282 547
4 364 376 368 561
4 290 544 316 562
4 447 526 241 545
4 299 550 279 551
4 242 524 388 553
4 338 546 551 561
4 470 330 331 561
4 376 546 368 561
4 187 544 513 556
4 461 370 364 559
4 316 222 265 223
4 525 241 526 545
4 264 539 372 546
4 436 544 425 549
4 332 328 279 551
4 385 481 552 553
4 335 328 332 551
4 315 299 374 550
4 332 279 550 551
4 289 275 288 549
4 445 480 439 552
4 310 287 267 547
4 403 500 495 549
4 242 241 525 545
4 422 496 498 549
4 429 436 425 549
4 499 495 497 549
4 460 558 470 561
4 529 114 530 547
4 265 415 51 222
4 546 558 368 561
4 221 513 514 562
4 296 388 381 545
4 233 242 266 314
4 339 325 334 546
4 339 546 338 561
4 298 279 328 551
4 482 386 478 552
4 268 284 255 546
4 266 56 392 242
4 525 524 242 553
4 268 264 64 377
4 331 330 339 561
4 329 546 280 551
4 540 546 124 558
4 460 456 470 558
4 497 544 425 556
4 404 416 417 549
4 504 494 497 556
4 438 452 448 547
4 378 389 393 547
4 365 550 370 554
4 529 243 244 547
4 426 425 421 544
4 346 141 352 554
4 391 385 380 552
4 444 437 447 545
4 351 350 128 554
4 288 300 409 548
4 143 459 467 554
4 296 314 266 545
4 334 263 284 546
4 431 548 433 555
4 408 402 415 544
4 329 339 334 546
4 366 297 268 546
4 282 245 267 547
4 329 328 338 551
4 306 314 278 545
4 9 141 341 358
4 481 380 385 552
4 127 4 340 356
4 423 436 435 549
4 378 528 547 557
4 346 374 271 141
4 222 402 512 556
4 370 365 373 550
4 508 506 505 548
4 506 509 505 548
4 364 368 464 561
4 264 263 540 546
4 460 470 466 561
4 373 376 364 551
4 529 114 547 557
4 508 548 405 560
4 540 263 541 546
4 369 374 299 550
4 306 278 440 545
4 282 309 389 547
4 298 329 280 551
4 476 480 485 557
4 329 334 280 546
4 386 390 380 552
4 424 548 509 555
4 247 60 105 537
4 225 52 178 521
4 306 55 241 451
4 452 449 441 547
4 382 390 393 547
4 284 263 255 546
4 351 347 350 554
4 463 459 465 559
4 386 380 478 552
4 466 470 331 561
4 281 279 308 550
4 529 530 243 547
4 297 367 273 551
4 20 188 50 224
4 335 551 550 559
4 332 279 336 550
4 299 279 273 551
4 513 544 514 562
4 281 336 279 550
4 272 278 296 545
4 523 395 232 235
4 448 452 441 547
4 393 389 382 547
4 235 54 521 171
4 514 544 421 562
4 378 547 393 557
4 367 376 373 551
4 226 225 179 522
4 477 481 479 552
4 125 539 540 558
4 390 383 391 552
4 257 322 538 254
4 449 439 450 552
4 495 496 497 549
4 410 417 416 549
4 257 62 537 116
4 388 385 545 553
4 500 498 495 549
4 447 450 444 545
4 391 388 385 545
4 539 372 546 558
4 332 336 327 550
4 95 427 423 276
4 0 115 58 246
4 369 365 374 550
4 236 235 522 172
4 405 548 414 560
4 424 433 548 555
4 332 327 335 550
4 477 439 480 552
4 508 506 548 560
4 506 509 548 555
4 512 222 415 402
4 282 287 309 547
4 435 436 429 549
4 378 113 528 557
4 280 546 297 551
4 487 525 169 553
4 464 368 558 561
4 282 267 287 547
4 335 550 327 559
4 364 464 461 561
4 185 17 51 231
4 373 365 369 550
4 170 524 525 553
4 540 124 456 558
4 375 370 465 554
4 288 275 300 548
4 447 440 450 545
4 391 381 388 545
4 259 125 540 124
4 141 365 140 554
4 297 284 268 546
4 113 529 528 557
4 479 481 475 553
4 338 559 326 561
4 191 410 403 495
4 298 69 329 328
4 448 267 58 243
4 280 334 284 546
4 494 499 497 556
4 372 376 366 546
4 465 469 375 554
4 512 186 513 556
4 375 469 142 554
4 346 352 351 554
4 490 187 513 556
4 143 142 459 554
4 83 381 383 272
4 89 270 288 404
4 529 453 114 557
4 338 551 559 561
4 33 357 152 471
4 478 480 482 552
4 123 3 63 254
4 150 34 473 355
4 404 288 89 409
4 331 326 130 561
4 140 375 142 554
4 539 363 372 558
4 142 143 353 554
4 289 95 423 276
4 384 386 486 557
4 112 13 59 253
4 221 223 222 562
4 367 76 273 369
4 335 327 333 559
4 495 498 496 549
4 372 368 376 546
4 338 551 335 559
4 352 141 140 554
4 481 478 380 552
4 125 363 539 558
4 97 428 431 275
4 362 153 7 358
4 345 356 6 147
4 299 273 76 369
4 168 23 55 232
4 381 83 296 272
4 375 142 32 140
4 128 28 337 143
4 314 233 241 306
4 469 142 32 375
4 467 337 28 143
4 424 431 433 555
4 357 33 149 342
4 495 403 191 500
4 388 242 392 524
4 261 262 539 27
4 230 229 512 40
4 221 514 511 562
4 372 368 546 558
4 112 317 252 320
4 34 359 355 155
4 300 548 555 560
4 442 103 278 440
4 279 298 273 551
4 207 444 439 479
4 170 525 487 553
4 338 328 335 551
4 389 244 59 282
4 524 379 388 553
4 422 201 496 429
4 284 334 63 263
4 409 300 90 412
4 197 44 413 405
4 482 480 476 557
4 338 335 326 559
4 185 398 230 401
4 125 540 456 558
4 417 402 408 544
4 241 447 523 526
4 41 511 225 226
4 375 365 370 554
4 301 97 431 275
4 157 461 465 370
4 353 474 150 151
4 249 529 113 114
4 77 366 367 297
4 384 386 165 486
4 372 539 264 377
4 197 405 413 560
4 295 310 102 441
4 96 423 428 275
4 425 436 421 544
4 87 415 265 290
4 239 240 524 38
4 252 251 528 24
4 360 154 349 155
4 130 466 331 561
4 14 167 56 234
4 395 523 396 235
4 280 273 298 551
4 421 544 436 562
4 170 379 524 553
4 10 126 64 256
4 347 353 143 554
4 472 151 347 152
4 411 403 503 190
4 386 482 486 557
4 308 279 299 550
4 346 271 358 141
4 56 392 242 524
4 186 490 513 556
4 418 420 312 560
4 377 78 268 366
4 248 247 527 25
4 529 113 453 557
4 103 278 295 442
4 419 418 313 555
4 322 257 538 323
4 511 434 221 562
4 264 539 64 377
4 472 143 135 136
4 134 135 474 142
4 523 235 236 39
4 391 380 390 552
4 349 140 142 554
4 9 141 358 271
4 259 125 260 540
4 510 430 509 204
4 221 511 50 434
4 418 419 313 92
4 506 555 548 560
4 405 414 412 560
4 164 386 478 482
4 402 186 512 556
4 257 538 26 258
4 87 415 290 408
4 126 262 321 324
4 167 240 394 397
4 312 269 418 560
4 182 183 40 229
4 120 27 121 261
4 313 418 269 555
4 168 447 241 451
4 245 274 282 286
4 439 477 207 479
4 274 255 284 286
4 523 168 447 241
4 280 298 69 329
4 196 432 45 555
4 148 147 348 344
4 465 459 469 554
4 113 378 454 557
4 420 197 413 560
4 273 280 297 551
4 140 142 32 349
4 523 235 39 396
4 501 200 422 430
4 343 148 149 350
4 420 312 93 418
4 326 333 131 559
4 470 129 331 330
4 370 157 461 364
4 441 102 295 442
4 196 419 432 555
4 296 278 314 545
4 445 209 485 443
4 430 509 204 424
4 508 194 405 411
4 241 55 168 451
4 202 497 496 429
4 153 361 154 352
4 92 313 418 269
4 224 50 511 188
4 246 58 527 115
4 478 481 477 552
4 511 41 225 400
4 247 527 25 319
4 45 432 424 555
4 280 284 297 546
4 508 405 197 560
4 201 496 498 422
4 481 163 385 380
4 179 180 41 226
4 106 107 25 248
4 117 26 118 258
4 175 38 176 239
4 478 477 480 552
4 424 509 196 555
4 45 196 419 432
4 420 44 413 197
4 392 381 84 296
4 508 194 411 507
4 424 509 45 196
4 405 197 44 508
4 243 58 448 527
4 326 462 130 561
4 464 558 460 561
4 196 45 424 555
4 486 386 165 482
4 538 257 26 323
4 384 393 386 557
4 495 192 410 499
4 269 555 418 560
4 317 112 252 253
4 344 144 127 145
4 138 361 137 141
4 454 378 384 557
4 386 478 380 164
4 355 32 142 349
4 493 505 220 219
4 356 354 127 281
4 350 128 348 351
4 136 28 30 471
4 473 32 31 134
4 462 559 461 561
4 192 406 410 499
4 222 415 51 512
4 398 185 230 231
4 421 436 427 562
4 101 310 267 448
4 403 503 190 500
4 273 77 367 297
4 216 487 475 553
4 418 197 420 560
4 172 39 173 236
4 109 110 24 251
4 276 290 316 562
4 98 432 313 555
4 250 529 113 249
4 266 392 84 296
4 440 104 306 451
4 198 432 419 313
4 55 241 233 306
4 186 402 492 556
4 213 460 214 456
4 282 245 286 267
4 423 96 289 275
4 418 312 93 269
4 98 431 432 555
4 310 101 441 448
4 336 332 71 279
4 347 351 353 554
4 140 349 352 554
4 214 456 460 558
4 127 4 356 281
4 466 129 331 470
4 140 138 360 139
4 145 343 146 128
4 326 331 338 561
4 281 336 71 279
4 195 413 18 420
4 168 523 55 241
4 50 221 434 562
4 34 359 473 355
4 492 40 402 186
4 378 393 384 557
4 484 385 387 553
4 288 300 90 409
4 130 462 466 561
4 221 50 223 562
4 339 338 331 561
4 497 202 425 429
4 156 465 469 375
4 31 32 359 139
4 30 28 146 342
4 326 559 462 561
4 461 463 465 559
4 59 528 244 389
4 198 419 19 313
4 223 311 316 562
4 334 329 280 68
4 484 387 488 553
4 508 197 506 560
4 354 271 281 73
4 188 41 511 400
4 115 25 527 319
4 349 351 352 554
4 169 170 525 487
4 456 540 125 124
4 466 464 460 561
4 256 262 321 126
4 234 240 394 167
4 465 156 370 375
4 78 268 366 297
4 469 459 142 554
4 50 311 223 562
4 511 514 421 562
4 349 142 353 554
4 255 264 64 268
4 402 407 492 556
4 301 269 300 555
4 419 196 418 555
4 458 26 325 124
4 385 484 481 553
4 41 187 491 421
4 490 218 494 556
4 354 346 271 73
4 421 434 511 562
4 313 301 98 555
4 476 453 212 557
4 19 432 198 313
4 453 113 529 114
4 513 186 187 490
4 205 443 438 455
4 454 161 384 378
4 258 538 26 541
4 236 523 39 526
4 464 158 368 364
4 47 501 510 430
4 98 301 431 555
4 274 255 268 284
4 506 196 509 555
4 347 357 350 143
4 300 555 269 560
4 363 125 457 558
4 4 127 336 281
4 91 413 412 560
4 36 454 384 486
4 325 330 133 458
4 443 48 485 455
4 375 140 365 554
4 267 245 58 243
4 533 255 534 286
4 81 382 389 309
4 406 499 502 556
4 163 481 478 380
4 502 407 406 556
4 379 170 488 553
4 454 384 486 557
4 454 113 24 378
4 455 438 25 114
4 372 363 368 558
4 419 313 432 555
4 371 457 468 558
4 312 413 91 560
4 501 200 498 422
4 468 368 371 558
4 326 131 462 559
4 420 413 312 560
4 388 379 385 553
4 333 463 131 559
4 216 487 215 475
4 216 475 484 553
4 216 488 487 553
4 464 466 462 561
4 74 271 9 358
4 406 407 402 556
4 33 357 471 342
4 389 81 309 282
4 212 476 211 453
4 222 51 265 223
4 387 379 488 553
4 280 334 68 284
4 72 356 4 281
4 63 255 533 286
4 446 444 206 483
4 133 26 325 458
4 41 187 421 514
4 437 523 447 526
4 217 490 218 494
4 89 88 270 404
4 446 49 489 483
4 354 356 72 281
4 75 315 299 374
4 468 464 368 558
4 26 541 325 124
4 67 291 66 531
4 104 306 278 440
4 502 492 407 556
4 371 363 457 558
4 2 116 60 62
4 52 54 22 171
4 534 282 59 245
4 189 40 402 492
4 209 485 480 445
4 402 407 189 492
4 483 444 206 479
4 385 162 484 387
4 205 438 25 455
4 161 454 24 378
4 170 487 488 553
4 283 277 266 233
4 162 484 481 385
4 216 484 488 553
4 285 316 223 311
4 349 353 351 554
4 284 63 3 286
4 438 530 25 114
4 385 379 387 553
4 413 312 18 420
4 37 484 387 488
4 501 219 47 510
4 371 368 363 558
4 499 494 502 556
4 434 94 311 562
4 484 475 481 553
4 266 56 242 233
4 511 226 41 514
4 139 360 140 155
4 40 512 402 186
4 358 74 271 346
4 444 207 206 479
4 120 261 121 251
4 182 239 183 229
4 330 470 29 458
4 389 59 13 81
4 58 0 101 448
4 214 457 456 558
4 57 53 16 184
4 4 356 345 340
4 58 0 267 101
4 424 432 431 555
4 199 41 491 421
4 68 334 63 284
4 125 456 457 558
4 386 164 165 482
4 527 58 448 115
4 492 218 490 556
4 464 462 461 561
4 173 227 237 174
4 341 362 9 358
4 491 426 199 421
4 369 75 299 374
4 101 267 58 448
4 333 326 335 559
4 276 311 94 562
4 486 482 476 557
4 371 457 35 468
4 423 96 95 289
4 303 100 99 515
4 407 502 42 492
4 98 97 431 301
4 100 99 515 294
4 80 79 532 292
4 86 516 293 85
4 214 468 457 558
4 355 142 353 349
4 186 492 490 556
4 468 214 460 558
4 410 191 192 495
4 158 464 461 364
4 504 491 46 217
4 483 49 489 215
4 48 211 485 455
4 502 193 406 407
4 527 25 530 248
4 507 43 411 503
4 454 212 453 557
4 310 101 102 441
4 92 418 93 269
4 159 371 468 368
4 61 122 11 65
4 172 236 173 226
4 258 107 106 248
4 454 453 113 557
4 461 462 463 559
4 468 460 464 558
4 492 502 218 556
4 434 427 94 562
4 322 538 123 323
4 511 188 50 434
4 276 94 427 562
4 502 218 42 492
4 36 454 486 212
4 502 494 218 556
4 156 157 465 370
4 165 36 384 486
4 503 43 411 190
4 116 247 257 106
4 413 405 412 560
4 470 213 29 458
4 468 457 35 214
4 454 486 212 557
4 534 274 245 286
4 476 212 486 557
4 426 491 46 504
4 524 56 392 167
4 331 130 129 466
4 266 277 56 233
4 200 201 498 422
4 518 56 277 233
4 285 518 277 283
4 539 126 64 377
4 161 36 454 384
4 245 533 534 286
4 88 87 290 408
4 1 116 60 2
4 52 22 21 171
4 1 116 105 60
4 178 52 21 171
4 499 193 406 502
4 163 162 481 385
4 205 48 443 455
4 332 71 279 70
4 70 69 298 328
4 501 47 200 430
4 195 44 413 420
4 432 419 45 198
4 512 415 51 185
4 484 37 216 488
4 247 116 105 106
4 392 388 524 167
4 223 50 285 311
4 233 283 55 306
4 50 434 311 562
4 59 112 528 389
4 378 113 24 528
4 468 464 159 368
4 421 427 434 562
4 203 426 504 425
4 462 131 463 559
4 274 534 255 286
4 39 437 169 526
4 63 3 334 68
4 313 269 301 555
4 415 51 17 265
4 430 510 47 204
4 173 181 227 174
4 51 277 265 223
4 172 180 226 173
4 180 172 226 179
4 106 118 258 117
4 107 258 106 118
4 239 175 183 176
4 239 182 183 175
4 121 120 251 109
4 194 405 44 508
4 204 509 45 424
4 106 257 116 117
4 316 311 276 562
4 61 11 111 12
4 15 184 57 16
4 288 90 89 409
4 437 39 523 526
4 98 432 19 313
4 63 3 68 284
4 48 485 209 443
4 208 209 480 445
4 282 59 13 274
4 125 27 363 457
4 300 91 90 412
4 437 523 168 447
4 138 361 141 352
4 191 403 190 500
4 344 127 348 145
4 372 126 539 377
4 312 93 18 420
4 85 86 516 302
4 27 363 457 160
4 131 130 326 462
4 322 538 254 123
4 210 489 437 446
4 387 166 488 379
4 304 67 66 531
4 448 527 115 438
4 437 39 169 489
4 170 488 38 379
4 115 25 438 527
4 437 39 489 210
4 488 166 38 379
4 523 395 396 168
4 201 202 496 429
4 411 194 43 507
4 125 363 27 539
4 276 95 427 94
4 173 181 180 227
4 110 109 121 251
4 283 55 23 307
4 283 285 518 517
4 504 497 203 425
4 532 305 79 80
4 26 123 538 323
4 122 61 11 111
4 15 184 177 57
4 83 383 82 272
4 343 149 146 350
4 131 333 132 463
4 49 446 206 483
4 170 38 524 379
4 361 138 154 352
4 156 469 32 375
4 81 82 382 309
4 75 9 315 374
4 81 389 59 282
4 344 348 148 145
4 230 176 177 240
4 360 349 140 155
4 283 518 277 233
4 281 72 354 73
4 56 14 277 266
4 91 312 18 413
4 371 457 363 160
4 313 419 19 92
4 277 51 518 223
4 4 336 71 281
4 132 337 28 467
4 59 13 81 282
4 143 135 142 151
4 176 230 177 183
4 23 55 283 306
4 283 233 314 306
4 329 69 280 68
4 103 295 102 442
4 399 178 225 52
4 247 318 105 60
4 356 6 4 345
4 75 299 76 369
4 285 265 277 223
4 362 7 9 358
4 17 87 415 265
4 121 122 252 262
4 367 76 77 273
4 517 283 285 307
4 142 353 143 151
4 112 13 389 59
4 0 115 448 58
4 470 29 129 330
4 255 63 284 286
4 381 83 84 296
4 250 120 119 109
4 238 181 175 174
4 181 175 182 238
4 146 28 128 357
4 528 112 378 389
4 37 387 166 488
4 177 183 230 184
4 122 111 110 252
4 110 121 122 252
4 158 159 464 368
4 527 530 25 438
4 534 274 282 245
4 49 489 210 446
4 395 235 171 54
4 35 371 468 159
4 228 181 182 238
4 120 250 119 260
4 274 282 59 534
4 473 359 32 355
4 58 0 286 267
4 497 202 203 425
4 42 193 502 407
4 523 395 168 232
4 518 283 517 233
4 119 250 109 108
4 311 50 285 307
4 97 96 428 275
4 266 283 233 314
4 511 41 421 514
4 282 244 59 245
4 277 17 51 265
4 123 3 334 63
4 322 257 116 62
4 103 104 278 440
4 185 17 415 51
4 421 188 511 434
4 84 14 392 266
4 300 269 312 560
4 523 396 39 168
4 26 123 325 538
4 125 259 119 124
4 128 343 146 350
4 133 330 29 458
4 185 512 415 402
4 406 192 193 499
4 503 507 43 220
4 265 285 316 223
4 37 484 162 387
4 26 541 538 325
4 523 39 437 168
4 20 188 434 50
4 188 41 421 511
4 311 434 20 94
4 172 235 225 543
4 114 108 113 249
4 517 285 518 223
4 286 245 58 267
4 371 35 457 160
4 53 230 398 184
4 65 262 122 321
4 356 345 340 147
4 226 225 41 179
4 341 153 362 358
4 285 277 518 223
4 78 268 10 377
4 284 63 255 263
4 388 524 167 379
4 77 78 366 297
4 471 357 28 342
4 350 146 128 357
4 46 426 504 203
4 353 347 143 151
4 357 143 152 136
4 346 74 271 73
4 126 363 372 539
4 142 474 150 353
4 248 247 25 106
4 236 235 172 39
4 64 274 255 268
4 23 306 104 451
4 350 149 146 357
4 61 252 317 111
4 57 240 177 394
4 60 66 291 531
4 67 62 291 531
4 347 143 151 472
4 478 163 380 164
4 358 346 141 352
4 439 477 208 207
4 74 9 7 358
4 157 158 461 364
4 14 56 392 266
4 126 27 363 539
4 20 50 434 311
4 154 349 140 360
4 353 142 474 151
4 229 230 183 40
4 262 261 121 27
4 167 524 38 379
4 307 520 23 303
4 240 239 176 38
4 517 285 50 307
4 172 225 179 543
4 356 4 6 72
4 535 3 63 286
4 520 23 55 307
4 143 357 28 136
4 150 134 142 355
4 259 125 119 260
4 354 127 348 356
4 303 100 515 232
4 286 535 3 304
4 50 285 517 223
4 150 134 474 142
4 143 472 152 136
4 347 143 472 152
4 107 249 259 542
4 252 251 24 110
4 145 127 348 128
4 520 55 517 307
4 185 40 512 402
4 108 113 249 250
4 60 246 66 531
4 254 62 67 531
4 515 99 303 224
4 141 140 138 352
4 151 143 135 472
4 135 474 142 151
4 52 224 99 515
4 232 54 100 515
4 13 305 274 536
4 189 407 42 492
4 274 59 13 536
4 52 224 399 99
4 60 246 318 66
4 232 54 395 100
4 254 62 322 67
4 142 134 32 355
4 249 258 107 259
4 119 259 249 542
4 268 64 10 377
4 306 23 55 451
4 112 378 24 528
4 17 302 277 519
4 55 283 517 307
4 143 347 357 152
4 236 227 173 226
4 258 249 107 248
4 140 154 138 352
4 145 348 148 128
4 227 236 173 237
4 277 302 14 519
4 248 247 106 257
4 150 142 353 355
4 274 64 10 268
4 152 357 28 471
4 426 46 491 199
4 14 167 392 56
4 118 107 259 542
4 515 54 100 294
4 515 99 52 294
4 79 65 532 292
4 516 293 53 86
4 67 304 254 531
4 258 257 248 106
4 357 149 28 342
4 147 127 348 344
4 10 126 377 64
4 361 153 141 352
4 20 50 311 307
4 65 256 321 79
4 231 53 398 86
4 65 256 79 532
4 231 53 86 516
4 107 118 259 258
4 168 23 451 55
4 140 349 154 352
4 228 182 229 239
4 251 260 120 261
4 150 473 32 355
4 183 239 230 229
4 262 261 251 121
4 57 230 53 184
4 65 262 61 122
4 150 32 473 134
4 136 152 28 471
4 149 146 28 342
4 517 283 55 233
4 2 62 291 67
4 54 22 100 294
4 293 16 53 86
4 277 51 17 519
4 238 237 227 174
4 232 515 303 224
4 277 14 56 519
4 63 254 538 123
4 173 226 227 180
4 355 359 32 155
4 139 32 359 155
4 148 343 128 350
4 307 20 520 303
4 144 340 345 147
4 362 137 153 341
4 225 235 178 543
4 534 64 274 255
4 57 234 394 85
4 253 61 317 80
4 80 532 61 292
4 516 57 293 85
4 108 119 249 542
4 57 234 85 516
4 253 61 80 532
4 260 119 259 249
4 304 66 246 531
4 79 11 65 292
4 66 1 60 291
4 99 21 52 294
4 520 517 50 307
4 80 61 12 292
4 532 253 305 80
4 230 239 176 240
4 348 148 128 350
4 85 516 234 302
4 358 341 153 141
4 340 127 356 147
4 231 516 86 302
4 359 32 31 473
4 471 28 30 342
4 183 239 176 230
4 30 33 471 342
4 291 62 60 531
4 303 520 232 224
4 31 34 359 473
4 52 54 171 521
4 116 60 62 537
4 0 535 286 304
4 121 252 251 262
4 230 177 57 240
4 262 61 122 252
4 5 4 345 340
4 9 8 362 341
4 293 57 15 85
4 99 20 303 224
4 227 181 238 174
4 250 251 120 109
4 238 175 182 239
4 252 121 251 110
4 230 177 184 57
4 61 122 252 111
4 55 232 523 168
4 305 256 532 79
4 303 20 520 224
4 533 535 63 286
4 246 254 304 531
4 182 228 238 239
4 251 260 250 120
4 245 58 533 286
4 520 50 20 307
4 20 50 520 224
4 108 119 250 249
4 171 178 235 543
4 127 340 144 147
4 341 137 153 141
4 257 26 323 117
4 238 228 181 227
4 119 260 250 249
4 274 305 10 536
4 100 303 23 232
4 58 0 535 286
4 41 225 400 179
4 247 319 25 106
4 39 235 172 396
4 139 355 32 155
4 28 146 149 357
4 171 178 52 521
4 116 60 537 105
4 134 150 32 355
4 235 172 225 522
4 303 520 23 232
4 356 127 348 147
4 152 28 357 136
4 519 56 277 518
4 534 59 274 536
4 141 153 358 352
4 0 58 535 246
4 519 277 51 518
4 55 23 520 232
4 397 38 240 176
4 231 17 51 519
4 9 8 7 362
4 5 4 6 345
4 274 10 64 536
4 148 343 145 128
4 22 54 52 294
4 60 2 62 291
4 262 27 121 324
4 110 24 252 320
4 401 230 40 183
4 254 304 535 246
4 138 154 140 360
4 234 56 14 519
4 535 63 3 254
4 86 17 231 302
4 256 64 10 536
4 253 13 59 536
4 225 172 179 522
4 16 53 57 293
4 516 231 234 302
4 515 52 54 294
4 147 144 127 344
4 361 153 137 141
4 17 231 302 519
4 85 234 14 302
4 532 253 256 305
4 305 253 13 80
4 61 65 11 292
4 3 67 304 254
4 304 66 0 246
4 178 399 225 400
4 318 247 105 319
4 302 231 234 519
4 65 61 532 292
4 293 53 57 516
4 302 234 14 519
4 534 274 64 536
4 533 58 535 286
4 21 22 52 294
4 1 2 60 291
4 235 225 178 521
4 253 256 305 536
4 235 395 171 396
4 10 256 305 79
4 304 0 535 246
4 172 226 522 236
4 13 253 305 536
4 257 322 116 323
4 305 256 10 536
4 57 15 16 293
4 61 11 12 292
4 535 3 304 254
4 257 247 116 537
4 397 240 394 177
4 262 122 321 324
4 401 398 230 184
4 317 111 252 320
4 226 172 522 179
4 178 171 235 521
4 105 116 247 537
4 85 15 394 57
4 17 398 86 231
4 3 123 322 254
4 21 178 399 52
4 240 234 524 167
4 184 16 398 53
4 256 539 126 64
4 11 122 321 65
4 171 22 395 54
4 53 230 231 398
4 231 230 512 185
4 234 240 57 394
4 512 231 185 51
4 16 86 398 53
4 188 20 399 224
4 257 322 254 62
4 234 524 167 56
4 167 14 394 234
4 15 177 394 57
4 175 174 170 238
4 169 174 173 237
4 182 186 181 228
4 512 228 513 186
4 529 249 530 114
4 109 113 108 250
4 13 112 317 253
4 256 262 65 321
4 12 80 317 61
4 61 252 253 317
4 111 12 317 61
4 126 10 321 256
4 262 256 539 126
4 528 250 529 113
4 528 253 112 59
4 253 252 528 112
4 79 11 321 65
4 116 2 322 62
4 66 1 318 60
4 124 119 118 259
4 1 105 318 60
4 115 0 318 246
4 2 67 322 62
4 318 0 66 246
4 247 318 60 246
4 172 179 171 543
4 120 119 125 260
4 178 171 179 543
4 260 539 540 125
4 259 540 541 124
4 237 525 526 169
4 399 20 99 224
4 513 227 514 187
4 22 100 395 54
4 99 21 399 52
4 23 168 395 232
4 225 52 224 399
4 395 235 54 232
4 23 395 100 232
4 17 185 398 231
4 119 108 118 542
4 107 118 108 542
4 108 114 107 249
4 181 187 180 227
4 238 524 525 170
4 552 441 295 442
4 552 295 441 547
4 180 227 41 226
4 180 41 227 187
4 514 41 227 226
4 514 227 41 187
4 107 249 25 248
4 107 25 249 114
4 530 25 249 248
4 530 249 25 114
4 455 438 547 443
4 547 438 455 114
4 541 259 26 258
4 541 26 259 124
4 118 26 259 258
4 118 259 26 124
4 526 237 39 236
4 526 39 237 169
4 173 39 237 236
4 173 237 39 169
4 557 445 443 547
4 557 443 445 485
4 550 271 354 346
4 550 354 271 308
4 549 414 409 416
4 549 409 414 548
4 549 433 428 548
4 549 428 433 435
4 511 224 400 225
4 511 400 224 188
4 399 400 224 225
4 399 224 400 188
4 527 246 319 247
4 527 319 246 115
4 318 319 246 247
4 318 246 319 115
4 510 493 548 501
4 510 548 493 505
4 327 127 554 550
4 354 127 554 351
4 354 554 127 550
4 382 552 309 272
4 382 309 552 547
4 287 309 552 272
4 287 552 309 547
4 560 409 414 412
4 560 414 409 548
4 559 327 337 550
4 559 337 327 333
4 547 528 389 244
4 547 389 528 378
4 550 315 271 374
4 550 271 315 308
4 562 289 290 544
4 562 290 289 276
4 423 276 562 289
4 562 276 423 427
4 337 463 132 333
4 132 463 337 467
4 404 290 88 270
4 404 88 290 408
4 438 243 527 530
4 438 527 243 448
4 350 143 554 347
4 554 143 350 128
4 128 351 127 348
4 325 538 263 541
4 555 275 300 301
4 555 300 275 548
4 559 459 467 463
4 559 467 459 554
4 272 382 82 309
4 272 82 382 383
4 281 127 550 354
4 281 550 127 336
4 562 513 222 221
4 562 222 513 544
4 480 439 208 445
4 208 439 480 477
4 279 328 70 298
4 70 328 279 332
4 252 112 24 528
4 252 24 112 320
4 230 185 40 512
4 230 40 185 401
4 38 240 167 397
4 38 167 240 524
4 262 27 126 539
4 262 126 27 324
4 406 544 402 417
4 402 544 406 556
4 271 374 9 141
4 271 9 374 315
4 170 174 237 238
4 237 174 170 169
4 237 525 170 238
4 170 525 237 169
4 562 436 423 544
4 562 423 436 427
4 181 186 227 228
4 181 227 186 187
4 513 227 186 228
4 513 186 227 187
4 197 196 555 418
4 555 196 197 506
4 555 560 197 418
4 197 560 555 506
4 123 63 325 538
4 123 325 63 334
4 263 325 63 538
4 263 63 325 334
4 91 560 300 312
4 300 560 91 412
4 155 349 139 355
4 155 139 349 140
4 32 139 349 355
4 32 349 139 140
4 512 40 228 186
4 512 228 40 229
4 182 228 40 186
4 182 40 228 229
4 27 539 260 125
4 260 539 27 261
4 260 120 27 125
4 27 120 260 261
4 257 258 117 106
4 257 117 258 26
4 38 524 238 170
4 238 524 38 239
4 238 175 38 170
4 38 175 238 239
4 528 24 250 113
4 528 250 24 251
4 109 250 24 113
4 109 24 250 251
4 128 357 143 350
4 143 357 128 28
4 127 554 128 327
4 127 128 554 351

CELL_TYPES 3066
1
1
1
1
1
1
1
1
1
1
1
1
1
1
1
1
1
1
1
1
1
1
1
1
1
1
1
1
1
1
1
1
1
1
1
1
1
1
1
1
1
1
1
1
1
1
1
1
1
1
1
1
1
1
1
1
1
1
1
1
1
1
1
1
1
1
3
3
3
3
3
3
3
3
3
3
3
3
3
3
3
3
3
3
3
3
3
3
3
3
3
3
3
3
3
3
3
3
3
3
3
3
3
3
3
3
3
3
3
3
3
3
3
3
3
3
3
3
3
3
3
3
3
3
3
3
3
3
3
3
3
3
3
3
3
3
3
3
3
3
3
3
3
3
3
3
3
3
3
3
3
3
3
3
3
3
3
3
3
3
3
3
3
3
3
3
3
3
3
3
3
3
3
3
3
3
3
3
3
3
3
3
3
3
3
3
3
3
3
3
3
3
3
3
3
3
3
3
3
3
3
3
3
3
3
3
3
3
3
3
3
3
3
3
3
3
3
3
3
3
3
3
3
3
3
3
3
3
3
3
3
3
3
3
3
3
3
3
3
3
3
3
3
3
3
3
3
3
3
3
3
3
3
3
3
3
3
3
3
3
3
3
3
3
3
3
3
3
3
3
3
3
3
3
3
3
3
3
3
3
3
3
3
3
3
3
3
3
3
3
3
3
3
3
3
3
3
3
3
3
3
3
3
3
3
3
3
3
3
3
3
3
3
3
3
3
3
3
3
3
3
3
3
3
3
3
3
3
3
3
3
3
3
3
3
3
3
3
3
3
3
3
3
3
3
3
3
3
3
3
3
3
3
3
3
3
3
3
3
3
3
3
3
3
5
5
5
5
5
5
5
5
5
5
5
5
5
5
5
5
5
5
5
5
5
5
5
5
5
5
5
5
5
5
5
5
5
5
5
5
5
5
5
5
5
5
5
5
5
5
5
5
5
5
5
5
5
5
5
5
5
5
5
5
5
5
5
5
5
5
5
5
5
5
5
5
5
5
5
5
5
5
5
5
5
5
5
5
5
5
5
5
5
5
5
5
5
5
5
5
5
5
5
5
5
5
5
5
5
5
5
5
5
5
5
5
5
5
5
5
5
5
5
5
5
5
5
5
5
5
5
5
5
5
5
5
5
5
5
5
5
5
5
5
5
5
5
5
5
5
5
5
5
5
5
5
5
5
5
5
5
5
5
5
5
5
5
5
5
5
5
5
5
5
5
5
5
5
5
5
5
5
5
5
5
5
5
5
5
5
5
5
5
5
5
5
5
5
5
5
5
5
5
5
5
5
5
5
5
5
5
5
5
5
5
5
5
5
5
5
5
5
5
5
5
5
5
5
5
5
5
5
5
5
5
5
5
5
5
5
5
5
5
5
5
5
5
5
5
5
5
5
5
5
5
5
5
5
5
5
5
5
5
5
5
5
5
5
5
5
5
5
5
5
5
5
5
5
5
5
5
5
5
5
5
5
5
5
5
5
5
5
5
5
5
5
5
5
5
5
5
5
5
5
5
5
5
5
5
5
5
5
5
5
5
5
5
5
5
5
5
5
5
5
5
5
5
5
5
5
5
5
5
5
5
5
5
5
5
5
5
5
5
5
5
5
5
5
5
5
5
5
5
5
5
5
5
5
5
5
5
5
5
5
5
5
5
5
5
5
5
5
5
5
5
5
5
5
5
5
5
5
5
5
5
5
5
5
5
5
5
5
5
5
5
5
5
5
5
5
5
5
5
5
5
5
5
5
5
5
5
5
5
5
5
5
5
5
5
5
5
5
5
5
5
5
5
5
5
5
5
5
5
5
5
5
5
5
5
5
5
5
5
5
5
5
5
5
5
5
5
5
5
5
5
5
5
5
5
5
5
5
5
5
5
5
5
5
5
5
5
5
5
5
5
5
5
5
5
5
5
5
5
5
5
5
5
5
5
5
5
5
5
5
5
5
5
5
5
5
5
5
5
5
5
5
5
5
5
5
5
5
5
5
5
5
5
5
5
5
5
5
5
5
5
5
5
5
5
5
5
5
5
5
5
5
5
5
5
5
5
5
5
5
5
5
5
5
5
5
5
5
5
5
5
5
5
5
5
5
5
5
5
5
5
5
5
5
5
5
5
5
5
5
5
5
5
5
5
5
5
5
5
5
5
5
5
5
5
5
5
5
5
5
5
5
5
5
5
5
5
5
5
5
5
5
5
5
5
5
5
5
5
5
5
5
5
5
5
5
5
5
5
5
5
5
5
5
5
5
5
5
5
5
5
5
5
5
5
5
5
5
5
5
5
5
5
5
5
5
5
5
5
5
5
5
5
5
5
5
5
5
5
5
5
5
5
5
5
5
5
5
5
5
5
5
5
5
5
5
5
5
5
5
5
5
5
5
5
5
5
5
5
5
5
5
5
5
5
5
5
5
5
5
5
5
5
5
5
5
5
5
5
5
5
5
5
5
5
5
5
5
5
5
5
5
5
5
5
5
5
5
5
5
5
5
5
5
5
5
5
5
5
5
5
5
5
5
5
5
5
5
5
5
5
5
5
5
5
5
5
5
5
5
5
5
5
5
5
5
5
5
5
5
5
5
5
5
5
5
5
5
5
5
5
5
5
5
5
5
5
5
5
5
5
5
5
5
5
5
5
5
5
5
5
5
5
5
5
5
5
5
5
5
5
5
5
5
5
5
5
5
5
5
5
5
5
5
5
5
5
5
5
5
5
5
5
5
5
5
5
5
5
5
5
5
5
5
5
5
5
5
5
5
5
5
5
5
5
5
5
5
5
5
5
5
5
5
5
5
5
5
5
5
5
5
5
5
5
5
5
5
5
5
5
5
5
5
5
5
5
5
5
5
5
5
5
5
5
5
5
5
5
5
5
5
5
5
5
5
5
5
5
5
5
5
5
5
5
5
5
5
5
5
5
5
5
5
5
5
5
5
5
5
5
5
5
5
5
5
5
5
5
5
5
5
5
5
5
5
5
5
5
5
5
5
5
5
5
5
5
5
5
5
5
5
5
5
5
5
5
5
5
5
5
5
5
5
5
5
5
5
5
5
5
5
5
5
5
5
5
5
5
5
5
5
5
5
5
5
5
5
5
5
5
5
5
5
5
5
5
5
5
5
5
5
5
5
5
5
5
5
5
5
5
5
5
5
5
5
5
5
5
5
5
5
5
5
5
5
5
5
5
5
5
5
5
5
5
5
5
5
5
5
5
5
5
5
5
5
5
5
5
5
5
5
5
5
5
5
5
5
5
5
5
5
10
10
10
10
10
10
10
10
10
10
10
10
10
10
10
10
10
10
10
10
10
10
10
10
10
10
10
10
10
10
10
10
10
10
10
10
10
10
10
10
10
10
10
10
10
10
10
10
10
10
10
10
10
10
10
10
10
10
10
10
10
10
10
10
10
10
10
10
10
10
10
10
10
10
10
10
10
10
10
10
10
10
10
10
10
10
10
10
10
10
10
10
10
10
10
10
10
10
10
10
10
10
10
10
10
10
10
10
10
10
10
10
10
10
10
10
10
10
10
10
10
10
10
10
10
10
10
10
10
10
10
10
10
10
10
10
10
10
10
10
10
10
10
10
10
10
10
10
10
10
10
10
10
10
10
10
10
10
10
10
10
10
10
10
10
10
10
10
10
10
10
10
10
10
10
10
10
10
10
10
10
10
10
10
10
10
10
10
10
10
10
10
10
10
10
10
10
10
10
10
10
10
10
10
10
10
10
10
10
10
10
10
10
10
10
10
10
10
10
10
10
10
10
10
10
10
10
10
10
10
10
10
10
10
10
10
10
10
10
10
10
10
10
10
10
10
10
10
10
10
10
10
10
10
10
10
10
10
10
10
10
10
10
10
10
10
10
10
10
10
10
10
10
10
10
10
10
10
10
10
10
10
10
10
10
10
10
10
10
10
10
10
10
10
10
10
10
10
10
10
10
10
10
10
10
10
10
10
10
10
10
10
10
10
10
10
10
10
10
10
10
10
10
10
10
10
10
10
10
10
10
10
10
10
10
10
10
10
10
10
10
10
10
10
10
10
10
10
10
10
10
10
10
10
10
10
10
10
10
10
10
10
10
10
10
10
10
10
10
10
10
10
10
10
10
10
10
10
10
10
10
10
10
10
10
10
10
10
10
10
10
10
10
10
10
10
10
10
10
10
10
10
10
10
10
10
10
10
10
10
10
10
10
10
10
10
10
10
10
10
10
10
10
10
10
10
10
10
10
10
10
10
10
10
10
10
10
10
10
10
10
10
10
10
10
10
10
10
10
10
10
10
10
10
10
10
10
10
10
10
10
10
10
10
10
10
10
10
10
10
10
10
10
10
10
10
10
10
10
10
10
10
10
10
10
10
10
10
10
10
10
10
10
10
10
10
10
10
10
10
10
10
10
10
10
10
10
10
10
10
10
10
10
10
10
10
10
10
10
10
10
10
10
10
10
10
10
10
10
10
10
10
10
10
10
10
10
10
10
10
10
10
10
10
10
10
10
10
10
10
10
10
10
10
10
10
10
10
10
10
10
10
10
10
10
10
10
10
10
10
10
10
10
10
10
10
10
10
10
10
10
10
10
10
10
10
10
10
10
10
10
10
10
10
10
10
10
10
10
10
10
10
10
10
10
10
10
10
10
10
10
10
10
10
10
10
10
10
10
10
10
10
10
10
10
10
10
10
10
10
10
10
10
10
10
10
10
10
10
10
10
10
10
10
10
10
10
10
10
10
10
10
10
10
10
10
10
10
10
10
10
10
10
10
10
10
10
10
10
10
10
10
10
10
10
10
10
10
10
10
10
10
10
10
10
10
10
10
10
10
10
10
10
10
10
10
10
10
10
10
10
10
10
10
10
10
10
10
10
10
10
10
10
10
10
10
10
10
10
10
10
10
10
10
10
10
10
10
10
10
10
10
10
10
10
10
10
10
10
10
10
10
10
10
10
10
10
10
10
10
10
10
10
10
10
10
10
10
10
10
10
10
10
10
10
10
10
10
10
10
10
10
10
10
10
10
10
10
10
10
10
10
10
10
10
10
10
10
10
10
10
10
10
10
10
10
10
10
10
10
10
10
10
10
10
10
10
10
10
10
10
10
10
10
10
10
10
10
10
10
10
10
10
10
10
10
10
10
10
10
10
10
10
10
10
10
10
10
10
10
10
10
10
10
10
10
10
10
10
10
10
10
10
10
10
10
10
10
10
10
10
10
10
10
10
10
10
10
10
10
10
10
10
10
10
10
10
10
10
10
10
10
10
10
10
10
10
10
10
10
10
10
10
10
10
10
10
10
10
10
10
10
10
10
10
10
10
10
10
10
10
10
10
10
10
10
10
10
10
10
10
10
10
10
10
10
10
10
10
10
10
10
10
10
10
10
10
10
10
10
10
10
10
10
10
10
10
10
10
10
10
10
10
10
10
10
10
10
10
10
10
10
10
10
10
10
10
10
10
10
10
10
10
10
10
10
10
10
10
10
10
10
10
10
10
10
10
10
10
10
10
10
10
10
10
10
10
10
10
10
10
10
10
10
10
10
10
10
10
10
10
10
10
10
10
10
10
10
10
10
10
10
10
10
10
10
10
10
10
10
10
10
10
10
10
10
10
10
10
10
10
10
10
10
10
10
10
10
10
10
10
10
10
10
10
10
10
10
10
10
10
10
10
10
10
10
10
10
10
10
10
10
10
10
10
10
10
10
10
10
10
10
10
10
10
10
10
10
10
10
10
10
10
10
10
10
10
10
10
10
10
10
10
10
10
10
10
10
10
10
10
10
10
10
10
10
10
10
10
10
10
10
10
10
10
10
10
10
10
10
10
10
10
10
10
10
10
10
10
10
10
10
10
10
10
10
10
10
10
10
10
10
10
10
10
10
10
10
10
10
10
10
10
10
10
10
10
10
10
10
10
10
10
10
10
10
10
10
10
10
10
10
10
10
10
10
10
10
10
10
10
10
10
10
10
10
10
10
10
10
10
10
10
10
10
10
10
10
10
10
10
10
10
10
10
10
10
10
10
10
10
10
10
10
10
10
10
10
10
10
10
10
10
10
10
10
10
10
10
10
10
10
10
10
10
10
10
10
10
10
10
10
10
10
10
10
10
10
10
10
10
10
10
10
10
10
10
10
10
10
10
10
10
10
10
10
10
10
10
10
10
10
10
10
10
10
10
10
10
10
10
10
10
10
10
10
10
10
10
10
10
10
10
10
10
10
10
10
10
10
10
10
10
10
10
10
10
10
10
10
10
10
10
10
10
10
10
10
10
10
10
10
10
10
10
10
10
10
10
10
10
10
10
10
10
10
10
10
10
10
10
10
10
10
10
10
10
10
10
10
10
10
10
10
10
10
10
10
10
10
10
10
10
10
10
10
10
10
10
10
10
10
10
10
10
10
10
10
10
10
10
10
10
10
10
10
10
10
10
10
10
10
10
10
10
10
10
10
10
10
10
10
10
10
10
10
10
10
10
10
10
10
10
10
10
10
10
10
10
10
10
10
10
10
10
10
10
10
10
10
10
10
10
10
10
10
10
10
10
10
10
10
10
10
10
10
10
10
10
10
10
10
10
10
10
10
10
10
10
10
10
10
10
10
10
10
10
10
10
10
10
10
10
10
10
10
10
10
10
10
10
10
10
10
10
10
10
10
10
10
10
10
10
10
10
10
10
10
10
10
10
10
10
10
10
10
10
10
10
10
10
10
10
10
10
10
10
10
10
10
10
10
10
10
10
10
10
10
10
10
10
10
10
10
10
10
10
10
10
10
10
10
10
10
10
10
10
10
10
10
10
10
10
10
10
10
10
10
10
10
10
10
10
10
10
10
10
10
10
10
10
10
10
10
10
10
10
10
10
10
10
10
10
10
10
10
10
10
10
10
10
10
10
10
10
10
10
10
10
10
10
10
10
10
10
10
10
10
10
10
10
10
10
10
10
10
10
10
10
10
