# vtk DataFile Version 2.0
, Created by Gmsh 4.13.1 
ASCII
DATASET UNSTRUCTURED_GRID
POINTS 361 double
0 0 0
19.98466502119183 0 0
19.98466502119183 0 13.33426533861314
0 0 13.33426533861314
0 0 13.33426533861314
10.24526894752333 0 13.33426533861314
10.24526894752333 0 20.18668961678047
0 0 20.18668961678047
0 0 20.18668961678047
19.98466502119183 0 20.18668961678047
19.98466502119183 0 33.52095495539361
0 0 33.52095495539361
0 0 33.52095495539361
10.24526894752333 0 33.52095495539361
10.24526894752333 0 40.37337923356094
0 0 40.37337923356094
0 0 40.37337923356094
19.98466502119183 0 40.37337923356094
19.98466502119183 0 53.70764457217408
0 0 53.70764457217408
0 0 53.70764457217408
10.24526894752333 0 53.70764457217408
10.24526894752333 0 60.56006885034141
0 0 60.56006885034141
0 0 60.56006885034141
19.98466502119183 0 60.56006885034141
19.98466502119183 0 73.89433418895456
0 0 73.89433418895456
0 0 73.89433418895456
10.24526894752333 0 73.89433418895456
10.24526894752333 0 80.74675846712188
0 0 80.74675846712188
9.992332510595913 0 0
19.98466502119183 0 6.667132669306571
9.992332510595913 0 13.33426533861314
0 0 6.667132669306572
5.122634473761662 0 13.33426533861314
5.122634473761668 0 20.18668961678047
9.992332510595913 0 20.18668961678047
19.98466502119183 0 26.85382228608704
9.992332510595913 0 33.52095495539361
0 0 26.85382228608704
5.122634473761662 0 33.52095495539361
5.122634473761668 0 40.37337923356094
9.992332510595913 0 40.37337923356094
19.98466502119183 0 47.04051190286751
9.992332510595913 0 53.70764457217408
0 0 47.04051190286751
5.122634473761662 0 53.70764457217408
5.122634473761668 0 60.56006885034141
9.992332510595913 0 60.56006885034141
19.98466502119183 0 67.22720151964798
9.992332510595913 0 73.89433418895456
0 0 67.22720151964799
5.122634473761662 0 73.89433418895456
5.122634473761668 0 80.74675846712188
17.69554206367523 9.287336920880431 60.56006885034141
11.3525836737703 16.4470568777302 60.56006885034141
2.40888517766908 19.83895431241411 60.56006885034141
-7.08665988242273 18.68598639944139 60.56006885034141
-14.95873656696119 13.2522841929045 60.56006885034141
-19.40394697632686 4.782643385110771 60.56006885034141
-19.40394697632683 -4.782643385110904 60.56006885034141
-14.9587365669611 -13.2522841929046 60.56006885034141
-7.086659882422612 -18.68598639944143 60.56006885034141
2.408885177669176 -19.8389543124141 60.56006885034141
11.35258367377035 -16.44705687773016 60.56006885034141
17.69554206367524 -9.28733692088041 60.56006885034141
6.387820706080769 8.010073809525826 60.56006885034141
-2.279786814836473 9.9883986647502 60.56006885034141
-9.230668365005867 4.445255599216506 60.56006885034141
-9.230668365005952 -4.445255599216332 60.56006885034141
-2.279786814836617 -9.988398664750168 60.56006885034141
6.387820706080712 -8.010073809525872 60.56006885034141
17.69554206367523 9.287336920880431 73.89433418895456
11.3525836737703 16.4470568777302 73.89433418895456
2.40888517766908 19.83895431241411 73.89433418895456
-7.08665988242273 18.68598639944139 73.89433418895456
-14.95873656696119 13.2522841929045 73.89433418895456
-19.40394697632686 4.782643385110771 73.89433418895456
-19.40394697632683 -4.782643385110904 73.89433418895456
-14.9587365669611 -13.2522841929046 73.89433418895456
-7.086659882422612 -18.68598639944143 73.89433418895456
2.408885177669176 -19.8389543124141 73.89433418895456
11.35258367377035 -16.44705687773016 73.89433418895456
17.69554206367524 -9.28733692088041 73.89433418895456
6.387820706080769 8.010073809525826 53.70764457217408
-2.279786814836473 9.9883986647502 53.70764457217408
-9.230668365005867 4.445255599216506 53.70764457217408
-9.230668365005952 -4.445255599216332 53.70764457217408
-2.279786814836617 -9.988398664750168 53.70764457217408
6.387820706080712 -8.010073809525872 53.70764457217408
6.387820706080769 8.010073809525826 73.89433418895456
-2.279786814836473 9.9883986647502 73.89433418895456
-9.230668365005867 4.445255599216506 73.89433418895456
-9.230668365005952 -4.445255599216332 73.89433418895456
-2.279786814836617 -9.988398664750168 73.89433418895456
6.387820706080712 -8.010073809525872 73.89433418895456
17.69554206367523 9.287336920880431 53.70764457217408
11.3525836737703 16.4470568777302 53.70764457217408
2.40888517766908 19.83895431241411 53.70764457217408
-7.08665988242273 18.68598639944139 53.70764457217408
-14.95873656696119 13.2522841929045 53.70764457217408
-19.40394697632686 4.782643385110771 53.70764457217408
-19.40394697632683 -4.782643385110904 53.70764457217408
-14.9587365669611 -13.2522841929046 53.70764457217408
-7.086659882422612 -18.68598639944143 53.70764457217408
2.408885177669176 -19.8389543124141 53.70764457217408
11.35258367377035 -16.44705687773016 53.70764457217408
17.69554206367524 -9.28733692088041 53.70764457217408
6.387820706080769 8.010073809525826 80.74675846712188
-2.279786814836473 9.9883986647502 80.74675846712188
-9.230668365005867 4.445255599216506 80.74675846712188
-9.230668365005952 -4.445255599216332 80.74675846712188
-2.279786814836617 -9.988398664750168 80.74675846712188
6.387820706080712 -8.010073809525872 80.74675846712188
17.69554206367523 9.287336920880431 40.37337923356094
11.3525836737703 16.4470568777302 40.37337923356094
2.40888517766908 19.83895431241411 40.37337923356094
-7.08665988242273 18.68598639944139 40.37337923356094
-14.95873656696119 13.2522841929045 40.37337923356094
-19.40394697632686 4.782643385110771 40.37337923356094
-19.40394697632683 -4.782643385110904 40.37337923356094
-14.9587365669611 -13.2522841929046 40.37337923356094
-7.086659882422612 -18.68598639944143 40.37337923356094
2.408885177669176 -19.8389543124141 40.37337923356094
11.35258367377035 -16.44705687773016 40.37337923356094
17.69554206367524 -9.28733692088041 40.37337923356094
6.387820706080769 8.010073809525826 40.37337923356094
-2.279786814836473 9.9883986647502 40.37337923356094
-9.230668365005867 4.445255599216506 40.37337923356094
-9.230668365005952 -4.445255599216332 40.37337923356094
-2.279786814836617 -9.988398664750168 40.37337923356094
6.387820706080712 -8.010073809525872 40.37337923356094
6.387820706080769 8.010073809525826 33.52095495539361
-2.279786814836473 9.9883986647502 33.52095495539361
-9.230668365005867 4.445255599216506 33.52095495539361
-9.230668365005952 -4.445255599216332 33.52095495539361
-2.279786814836617 -9.988398664750168 33.52095495539361
6.387820706080712 -8.010073809525872 33.52095495539361
17.69554206367523 9.287336920880431 33.52095495539361
11.3525836737703 16.4470568777302 33.52095495539361
2.40888517766908 19.83895431241411 33.52095495539361
-7.08665988242273 18.68598639944139 33.52095495539361
-14.95873656696119 13.2522841929045 33.52095495539361
-19.40394697632686 4.782643385110771 33.52095495539361
-19.40394697632683 -4.782643385110904 33.52095495539361
-14.9587365669611 -13.2522841929046 33.52095495539361
-7.086659882422612 -18.68598639944143 33.52095495539361
2.408885177669176 -19.8389543124141 33.52095495539361
11.35258367377035 -16.44705687773016 33.52095495539361
17.69554206367524 -9.28733692088041 33.52095495539361
17.69554206367523 9.287336920880431 20.18668961678047
11.3525836737703 16.4470568777302 20.18668961678047
2.40888517766908 19.83895431241411 20.18668961678047
-7.08665988242273 18.68598639944139 20.18668961678047
-14.95873656696119 13.2522841929045 20.18668961678047
-19.40394697632686 4.782643385110771 20.18668961678047
-19.40394697632683 -4.782643385110904 20.18668961678047
-14.9587365669611 -13.2522841929046 20.18668961678047
-7.086659882422612 -18.68598639944143 20.18668961678047
2.408885177669176 -19.8389543124141 20.18668961678047
11.35258367377035 -16.44705687773016 20.18668961678047
17.69554206367524 -9.28733692088041 20.18668961678047
6.387820706080769 8.010073809525826 20.18668961678047
-2.279786814836473 9.9883986647502 20.18668961678047
-9.230668365005867 4.445255599216506 20.18668961678047
-9.230668365005952 -4.445255599216332 20.18668961678047
-2.279786814836617 -9.988398664750168 20.18668961678047
6.387820706080712 -8.010073809525872 20.18668961678047
6.387820706080769 8.010073809525826 13.33426533861314
-2.279786814836473 9.9883986647502 13.33426533861314
-9.230668365005867 4.445255599216506 13.33426533861314
-9.230668365005952 -4.445255599216332 13.33426533861314
-2.279786814836617 -9.988398664750168 13.33426533861314
6.387820706080712 -8.010073809525872 13.33426533861314
17.69554206367523 9.287336920880431 13.33426533861314
11.3525836737703 16.4470568777302 13.33426533861314
2.40888517766908 19.83895431241411 13.33426533861314
-7.08665988242273 18.68598639944139 13.33426533861314
-14.95873656696119 13.2522841929045 13.33426533861314
-19.40394697632686 4.782643385110771 13.33426533861314
-19.40394697632683 -4.782643385110904 13.33426533861314
-14.9587365669611 -13.2522841929046 13.33426533861314
-7.086659882422612 -18.68598639944143 13.33426533861314
2.408885177669176 -19.8389543124141 13.33426533861314
11.35258367377035 -16.44705687773016 13.33426533861314
17.69554206367524 -9.28733692088041 13.33426533861314
17.69554206367523 9.287336920880431 0
11.3525836737703 16.4470568777302 0
2.40888517766908 19.83895431241411 0
-7.08665988242273 18.68598639944139 0
-14.95873656696119 13.2522841929045 0
-19.40394697632686 4.782643385110771 0
-19.40394697632683 -4.782643385110904 0
-14.9587365669611 -13.2522841929046 0
-7.086659882422612 -18.68598639944143 0
2.408885177669176 -19.8389543124141 0
11.35258367377035 -16.44705687773016 0
17.69554206367524 -9.28733692088041 0
4.996166255297957 0 8.667272470098544
14.98849876589387 0 4.666992868514599
14.98849876589387 0 8.933957776870805
4.996166255297956 0 4.400307561742338
9.992332510595913 0 6.667132669306572
3.293122161703928 0 16.76047747769681
6.805785800854784 0 16.76047747769681
14.98849876589387 0 28.85396208687901
4.996166255297957 0 24.85368248529507
14.98849876589387 0 24.58699717852281
4.996166255297956 0 29.12064739365128
9.992332510595913 0 26.85382228608704
6.952146785819402 0 36.94716709447727
3.439483146668546 0 36.94716709447728
4.996166255297957 0 45.04037210207554
14.98849876589387 0 49.04065170365948
14.98849876589387 0 44.77368679530328
4.996166255297957 0 49.30733701043174
9.992332510595913 0 47.04051190286751
6.952146785819402 0 57.13385671125774
3.439483146668546 0 57.13385671125774
4.996166255297955 0 65.22706171885601
14.98849876589387 0 65.22706171885601
4.996166255297955 0 69.49402662721222
14.98849876589387 0 69.49402662721222
9.992332510595912 0 67.3160966219054
3.293122161703928 0 77.32054632803822
6.805785800854784 0 77.32054632803822
-14.47032522408879 1.371803324590912e-13 60.56006885034141
-8.388962907306563 11.59298121407815 60.56006885034141
-8.388962907306569 -11.59298121407813 60.56006885034141
-2.408885177669096 -19.83895431241411 67.20186262781624
-19.98466502119183 -6.855237718201065e-14 67.24878209654047
-11.3525836737704 16.44705687773013 67.20186262781624
-17.69554206367527 9.287336920880344 67.25254041147971
7.086659882422673 -18.6859863994414 67.25254041147971
-2.408885177669214 19.83895431241409 67.20186262781625
14.95873656696114 -13.25228419290454 67.25254041147974
-17.69554206367521 -9.287336920880458 67.25254041147971
-11.35258367377029 -16.4470568777302 67.20186262781624
7.086659882422586 18.68598639944144 67.20562094275549
14.95873656696111 13.25228419290458 67.20186262781624
19.40111254235321 4.794128505598599 63.89363518499469
19.40394697632684 -4.782643385110842 63.84266402183329
19.40111254235321 4.794128505598599 70.56076785430128
19.40394697632684 -4.782643385110842 70.6117390174627
9.230668365005892 -4.445255599216458 57.23016243465641
2.279786814836445 -9.988398664750207 57.03755098785909
-6.387820706080844 -8.010073809525768 57.2301624346564
9.230668365005908 4.445255599216424 57.03755098785909
2.279786814836549 9.988398664750184 57.0375509878591
-6.382832900677789 8.014048912323343 57.13385671125775
-10.24526894752333 1.013505781976532e-13 57.23016243465639
-14.47032522408879 1.367794766338193e-13 73.89433418895456
-8.388962907306563 11.59298121407815 73.89433418895456
-8.388962907306571 -11.59298121407813 73.89433418895456
-14.47032522408879 1.367794766338193e-13 53.70764457217408
-8.388962907306563 11.59298121407815 53.70764457217408
-8.388962907306571 -11.59298121407813 53.70764457217408
9.230668365005892 -4.445255599216458 77.22424060463956
2.279786814836436 -9.988398664750209 77.22424060463958
-6.387820706080836 -8.010073809525773 77.41685205143686
9.230668365005908 4.445255599216424 77.22424060463958
-10.24526894752333 9.680076480604621e-14 77.22424060463958
2.286004521152095 9.986977477513303 77.32054632803822
-6.387820706080706 8.010073809525876 77.22424060463958
-2.408885177669096 -19.83895431241411 47.01517301103577
14.95873656696114 -13.25228419290454 47.01517301103577
-19.98466502119183 -5.080242898525212e-14 47.01893132597502
-17.69552638186627 -9.287366800009726 47.01608486011177
-17.69552638186633 9.287366800009613 47.01608486011177
7.086659882422673 -18.6859863994414 47.01893132597502
-11.35257882174886 -16.44706022683772 47.01575510500853
-11.35257882174896 16.44706022683766 47.01575510500854
-2.408885177669214 19.83895431241409 47.01517301103577
14.95873656696111 13.25228419290458 47.06585079469924
7.086659882422598 18.68598639944143 47.06585079469925
19.40111254235321 4.794128505598599 50.37407823752079
19.40111254235321 4.794128505598599 43.70694556821422
19.40394697632684 -4.782643385110842 43.65597440505282
19.40394697632684 -4.782643385110842 50.42504940068218
-1.4210854715202e-14 2.283887364943179e-14 80.74675846712188
-14.47032522408879 1.371803324590912e-13 40.37337923356094
-8.388962907306563 11.59298121407815 40.37337923356094
-8.388962907306569 -11.59298121407813 40.37337923356094
9.230668365005895 -4.445255599216451 36.85086137107862
2.279786814836445 -9.988398664750207 36.85086137107862
-6.387820706080844 -8.010073809525768 37.04347281787593
9.230668365005908 4.445255599216424 36.85086137107862
-6.387820706080706 8.010073809525876 37.04347281787593
-10.24526894752333 1.013505781976532e-13 37.04347281787592
2.279786814836545 9.988398664750184 36.85086137107863
-14.47032522408879 1.367794766338193e-13 33.52095495539361
-8.388962907306563 11.59298121407815 33.52095495539361
-8.388962907306571 -11.59298121407813 33.52095495539361
7.086659882422673 -18.6859863994414 26.87540286297953
-2.408918675986376 -19.83895024495329 26.87824932884277
14.95873656696114 -13.25228419290454 26.87916117791878
-19.98466502119183 -6.855237718201065e-14 26.87916117791878
-17.69554206367527 9.287336920880344 26.87916117791878
-17.69554206367522 -9.287336920880449 26.87540286297953
-11.3525836737704 16.44705687773013 26.8284833942553
-2.408885177669214 19.83895431241409 26.8284833942553
-11.35253875249647 -16.44708788455616 26.87716690409192
14.95873656696111 13.25228419290458 26.87916117791878
7.086659882422598 18.68598639944143 26.87916117791878
19.40394697632684 4.782643385110853 23.46928478827237
19.40111254235321 4.7941285055986 30.18738862074033
19.40394697632684 -4.782643385110842 30.2383597839017
19.40394697632684 -4.782643385110842 23.46928478827235
-14.47032522408879 1.371803324590912e-13 20.18668961678047
-8.388962907306563 11.59298121407815 20.18668961678047
-8.388962907306569 -11.59298121407813 20.18668961678047
9.230668365005892 -4.445255599216458 16.66417175429815
2.279786814836445 -9.988398664750207 16.85678320109546
-6.387820706080844 -8.010073809525768 16.85678320109546
9.213465360841527 4.480802590123683 16.76047747769681
-10.24526894752333 1.013505781976532e-13 16.85678320109545
2.279786814836545 9.988398664750184 16.66417175429816
-6.387820706080706 8.010073809525876 16.85678320109545
-14.47032522408879 1.367794766338193e-13 13.33426533861314
-8.388962907306563 11.59298121407815 13.33426533861314
-8.388962907306571 -11.59298121407813 13.33426533861314
-2.408885177669096 -19.83895431241411 6.641793777474831
7.086659882422673 -18.6859863994414 6.64555209241408
14.95873656696114 -13.25228419290454 6.64179377747483
-19.98466502119183 -6.855237718201065e-14 6.692471561138312
-17.69554206367527 9.287336920880344 6.69247156113831
-17.69554206367521 -9.287336920880458 6.641793777474828
-11.35258367377029 -16.4470568777302 6.64179377747483
-11.3525836737704 16.44705687773013 6.64179377747483
-2.408885177669214 19.83895431241409 6.64179377747483
14.95873656696111 13.25228419290458 6.692471561138313
7.086659882422598 18.68598639944143 6.692471561138313
19.40111254235321 4.794128505598599 3.333566334653285
19.40111254235321 4.7941285055986 10.00069900395986
19.40394697632684 -4.782643385110842 10.05167016712123
19.40394697632684 -4.782643385110842 3.282595171491883
4.390712398359931 -9.861382837940983 0
-6.875777696353992 10.10150223586913 0
8.32356350210844 7.374033798500005 0
-9.592347433468671 -5.134844251729342 0
10.79703383544596 -2.661229826844678 0
14.20020110560536 3.500035223133939 0
2.344943417902597 -0.1387066885587099 0
-2.294116104300806 -5.375671164812028 0
0.5295851142762009 7.750352270140572 0
-4.688665969341191 2.054022644917998 0
-12.48723693646312 3.378827470327026 0
-4.522043735187346 -12.02485385987375 0
4.924415814295759 13.3968533034795 0
11.05896799281287 -9.564251615849058 0
-1.680864641011744 14.21832601927143 0
0.0003820541332175686 -1.77635683940025e-15 57.12006930106001
-0.0003581286421905361 -0.0001724656643489197 16.7282455562389
-6.217248937900877e-15 0 36.94716709447709
-2.545962636549372 2.309263891220326e-14 26.83775141693917
-2.577683791433543 2.309263891220326e-14 47.03366702008073
0 -1.77635683940025e-15 68.63596882847187
-1.820266837013312 -1.122230028530011 7.953284304337914
-10.37199197380901 0.4799028308721324 26.85382228608704

CELLS 1656 7082
1 0
1 1
1 2
1 3
1 4
1 5
1 6
1 7
1 8
1 9
1 10
1 11
1 12
1 13
1 14
1 15
1 16
1 17
1 18
1 19
1 20
1 21
1 22
1 23
1 24
1 25
1 26
1 27
1 28
1 29
1 30
1 31
2 0 32
2 32 1
2 1 33
2 33 2
2 2 34
2 34 3
2 3 35
2 35 0
2 4 36
2 36 5
2 5 6
2 6 37
2 37 7
2 7 4
2 8 38
2 38 9
2 9 39
2 39 10
2 10 40
2 40 11
2 11 41
2 41 8
2 12 42
2 42 13
2 13 14
2 14 43
2 43 15
2 15 12
2 16 44
2 44 17
2 17 45
2 45 18
2 18 46
2 46 19
2 19 47
2 47 16
2 20 48
2 48 21
2 21 22
2 22 49
2 49 23
2 23 20
2 24 50
2 50 25
2 25 51
2 51 26
2 26 52
2 52 27
2 27 53
2 53 24
2 28 54
2 54 29
2 29 30
2 30 55
2 55 31
2 31 28
2 25 56
2 56 57
2 57 58
2 58 59
2 59 60
2 60 61
2 61 62
2 62 63
2 63 64
2 64 65
2 65 66
2 66 67
2 67 25
2 22 68
2 68 69
2 69 70
2 70 71
2 71 72
2 72 73
2 73 22
2 26 74
2 74 75
2 75 76
2 76 77
2 77 78
2 78 79
2 79 80
2 80 81
2 81 82
2 82 83
2 83 84
2 84 85
2 85 26
2 21 86
2 86 87
2 87 88
2 88 89
2 89 90
2 90 91
2 91 21
2 29 92
2 92 93
2 93 94
2 94 95
2 95 96
2 96 97
2 97 29
2 18 98
2 98 99
2 99 100
2 100 101
2 101 102
2 102 103
2 103 104
2 104 105
2 105 106
2 106 107
2 107 108
2 108 109
2 109 18
2 30 110
2 110 111
2 111 112
2 112 113
2 113 114
2 114 115
2 115 30
2 17 116
2 116 117
2 117 118
2 118 119
2 119 120
2 120 121
2 121 122
2 122 123
2 123 124
2 124 125
2 125 126
2 126 127
2 127 17
2 14 128
2 128 129
2 129 130
2 130 131
2 131 132
2 132 133
2 133 14
2 13 134
2 134 135
2 135 136
2 136 137
2 137 138
2 138 139
2 139 13
2 10 140
2 140 141
2 141 142
2 142 143
2 143 144
2 144 145
2 145 146
2 146 147
2 147 148
2 148 149
2 149 150
2 150 151
2 151 10
2 9 152
2 152 153
2 153 154
2 154 155
2 155 156
2 156 157
2 157 158
2 158 159
2 159 160
2 160 161
2 161 162
2 162 163
2 163 9
2 6 164
2 164 165
2 165 166
2 166 167
2 167 168
2 168 169
2 169 6
2 5 170
2 170 171
2 171 172
2 172 173
2 173 174
2 174 175
2 175 5
2 2 176
2 176 177
2 177 178
2 178 179
2 179 180
2 180 181
2 181 182
2 182 183
2 183 184
2 184 185
2 185 186
2 186 187
2 187 2
2 1 188
2 188 189
2 189 190
2 190 191
2 191 192
2 192 193
2 193 194
2 194 195
2 195 196
2 196 197
2 197 198
2 198 199
2 199 1
3 1 201 32
3 3 200 34
3 32 203 0
3 34 202 2
3 35 200 3
3 33 201 1
3 0 203 35
3 2 202 33
3 33 202 201
3 35 203 200
3 203 204 200
3 202 204 201
3 201 204 32
3 200 204 34
3 32 204 203
3 34 204 202
3 6 206 5
3 4 205 7
3 36 206 205
3 5 206 36
3 36 205 4
3 37 206 6
3 7 205 37
3 205 206 37
3 38 208 8
3 9 209 38
3 40 207 10
3 11 210 40
3 39 209 9
3 41 210 11
3 10 207 39
3 8 208 41
3 207 209 39
3 208 210 41
3 208 211 210
3 207 211 209
3 209 211 38
3 210 211 40
3 38 211 208
3 40 211 207
3 12 213 15
3 14 212 13
3 43 213 212
3 42 213 12
3 43 212 14
3 13 212 42
3 15 213 43
3 212 213 42
3 17 216 44
3 19 217 46
3 44 214 16
3 46 215 18
3 47 217 19
3 45 216 17
3 18 215 45
3 16 214 47
3 215 216 45
3 214 217 47
3 215 218 216
3 214 218 217
3 217 218 46
3 44 218 214
3 216 218 44
3 46 218 215
3 20 220 23
3 22 219 21
3 49 220 219
3 49 219 22
3 48 220 20
3 21 219 48
3 23 220 49
3 219 220 48
3 25 222 50
3 27 223 52
3 52 224 26
3 50 221 24
3 24 221 53
3 51 222 25
3 53 223 27
3 26 224 51
3 51 224 222
3 221 223 53
3 221 225 223
3 224 225 222
3 50 225 221
3 222 225 50
3 52 225 224
3 223 225 52
3 30 227 29
3 28 226 31
3 226 227 55
3 29 227 54
3 31 226 55
3 55 227 30
3 54 226 28
3 54 227 226
3 22 56 25
3 25 67 22
3 68 56 22
3 22 67 73
3 68 57 56
3 68 58 57
3 69 59 58
3 69 58 68
3 59 229 60
3 69 229 59
3 70 61 60
3 60 229 70
3 61 228 62
3 70 228 61
3 71 63 62
3 62 228 71
3 63 230 64
3 71 230 63
3 72 65 64
3 64 230 72
3 73 66 65
3 73 65 72
3 73 67 66
3 70 229 69
3 71 228 70
3 72 230 71
3 25 242 51
3 51 243 25
3 56 242 25
3 25 243 67
3 51 244 26
3 26 245 51
3 26 244 74
3 85 245 26
3 242 244 51
3 51 245 243
3 57 241 56
3 241 242 56
3 58 240 57
3 240 241 57
3 59 236 58
3 236 240 58
3 60 233 59
3 233 236 59
3 61 234 60
3 60 234 233
3 62 232 61
3 232 234 61
3 63 238 62
3 62 238 232
3 64 239 63
3 63 239 238
3 65 231 64
3 231 239 64
3 66 235 65
3 65 235 231
3 67 237 66
3 66 237 235
3 67 243 237
3 74 241 75
3 74 244 241
3 75 240 76
3 75 241 240
3 76 236 77
3 76 240 236
3 77 233 78
3 77 236 233
3 78 234 79
3 233 234 78
3 79 232 80
3 79 234 232
3 80 238 81
3 232 238 80
3 81 239 82
3 238 239 81
3 82 231 83
3 82 239 231
3 83 235 84
3 231 235 83
3 84 237 85
3 235 237 84
3 237 245 85
3 243 245 237
3 241 244 242
3 22 246 21
3 21 249 22
3 86 249 21
3 21 246 91
3 22 249 68
3 73 246 22
3 68 250 69
3 68 249 86
3 86 250 68
3 69 251 70
3 69 250 87
3 87 251 69
3 70 252 71
3 70 251 88
3 88 252 70
3 71 248 72
3 89 248 71
3 71 252 89
3 72 247 73
3 90 247 72
3 72 248 90
3 91 246 73
3 73 247 91
3 87 250 86
3 88 251 87
3 89 252 88
3 90 248 89
3 91 247 90
3 29 26 74
3 29 85 26
3 29 74 92
3 97 85 29
3 74 75 92
3 75 76 92
3 76 77 93
3 92 76 93
3 78 254 77
3 77 254 93
3 78 79 94
3 94 254 78
3 80 253 79
3 79 253 94
3 80 81 95
3 95 253 80
3 82 255 81
3 81 255 95
3 82 83 96
3 96 255 82
3 83 84 97
3 96 83 97
3 84 85 97
3 93 254 94
3 94 253 95
3 95 255 96
3 98 21 18
3 18 21 109
3 86 21 98
3 109 21 91
3 86 100 87
3 98 99 86
3 99 100 86
3 87 257 88
3 100 101 87
3 101 257 87
3 88 256 89
3 102 103 88
3 88 257 102
3 103 256 88
3 89 258 90
3 104 105 89
3 89 256 104
3 105 258 89
3 90 107 91
3 106 107 90
3 90 258 106
3 107 108 91
3 91 108 109
3 102 257 101
3 104 256 103
3 106 258 105
3 30 259 29
3 29 262 30
3 92 262 29
3 29 259 97
3 30 262 110
3 115 259 30
3 93 264 92
3 110 262 92
3 92 264 110
3 94 265 93
3 111 264 93
3 93 265 111
3 95 263 94
3 94 263 112
3 112 265 94
3 96 261 95
3 95 261 113
3 113 263 95
3 97 260 96
3 96 260 114
3 114 261 96
3 97 259 115
3 115 260 97
3 110 264 111
3 111 265 112
3 112 263 113
3 113 261 114
3 114 260 115
3 17 278 45
3 45 279 17
3 116 278 17
3 17 279 127
3 45 277 18
3 18 280 45
3 18 277 98
3 109 280 18
3 45 278 277
3 45 280 279
3 98 275 99
3 98 277 275
3 99 276 100
3 275 276 99
3 100 274 101
3 100 276 274
3 101 273 102
3 101 274 273
3 102 270 103
3 102 273 270
3 103 268 104
3 103 270 268
3 104 269 105
3 268 269 104
3 105 272 106
3 269 272 105
3 106 266 107
3 106 272 266
3 107 271 108
3 266 271 107
3 108 267 109
3 108 271 267
3 267 280 109
3 117 275 116
3 275 278 116
3 118 276 117
3 117 276 275
3 119 274 118
3 274 276 118
3 120 273 119
3 273 274 119
3 121 270 120
3 270 273 120
3 122 268 121
3 268 270 121
3 123 269 122
3 122 269 268
3 124 272 123
3 123 272 269
3 125 266 124
3 266 272 124
3 126 271 125
3 125 271 266
3 127 267 126
3 267 271 126
3 127 279 267
3 279 280 267
3 277 278 275
3 110 281 30
3 30 281 115
3 111 281 110
3 112 281 111
3 113 281 112
3 114 281 113
3 115 281 114
3 14 116 17
3 17 127 14
3 128 116 14
3 14 127 133
3 128 117 116
3 128 118 117
3 129 119 118
3 129 118 128
3 119 283 120
3 129 283 119
3 121 120 130
3 120 283 130
3 121 282 122
3 130 282 121
3 131 123 122
3 122 282 131
3 123 284 124
3 131 284 123
3 132 125 124
3 124 284 132
3 133 126 125
3 133 125 132
3 133 127 126
3 130 283 129
3 131 282 130
3 132 284 131
3 14 285 13
3 13 288 14
3 134 288 13
3 13 285 139
3 14 288 128
3 133 285 14
3 128 291 129
3 128 288 134
3 134 291 128
3 129 289 130
3 135 289 129
3 129 291 135
3 130 290 131
3 130 289 136
3 136 290 130
3 131 287 132
3 137 287 131
3 131 290 137
3 132 286 133
3 138 286 132
3 132 287 138
3 139 285 133
3 133 286 139
3 135 291 134
3 136 289 135
3 137 290 136
3 138 287 137
3 139 286 138
3 10 140 13
3 13 151 10
3 13 140 134
3 139 151 13
3 134 142 135
3 140 141 134
3 141 142 134
3 135 293 136
3 142 143 135
3 143 293 135
3 136 292 137
3 144 145 136
3 136 293 144
3 145 292 136
3 137 294 138
3 146 147 137
3 137 292 146
3 147 294 137
3 138 149 139
3 148 149 138
3 138 294 148
3 149 150 139
3 150 151 139
3 144 293 143
3 146 292 145
3 148 294 147
3 9 306 39
3 39 309 9
3 152 306 9
3 9 309 163
3 39 307 10
3 10 308 39
3 10 307 140
3 151 308 10
3 306 307 39
3 308 309 39
3 140 304 141
3 140 307 304
3 141 305 142
3 304 305 141
3 142 302 143
3 142 305 302
3 143 301 144
3 143 302 301
3 144 299 145
3 144 301 299
3 145 298 146
3 145 299 298
3 146 300 147
3 298 300 146
3 147 303 148
3 300 303 147
3 148 296 149
3 148 303 296
3 149 295 150
3 149 296 295
3 150 297 151
3 295 297 150
3 297 308 151
3 153 304 152
3 304 306 152
3 154 305 153
3 153 305 304
3 155 302 154
3 302 305 154
3 156 301 155
3 301 302 155
3 157 299 156
3 299 301 156
3 158 298 157
3 298 299 157
3 159 300 158
3 158 300 298
3 160 303 159
3 159 303 300
3 161 296 160
3 296 303 160
3 162 295 161
3 295 296 161
3 163 297 162
3 162 297 295
3 163 309 297
3 297 309 308
3 304 307 306
3 152 9 6
3 9 163 6
3 164 152 6
3 6 163 169
3 164 153 152
3 164 154 153
3 165 155 154
3 165 154 164
3 155 311 156
3 165 311 155
3 166 157 156
3 156 311 166
3 157 310 158
3 166 310 157
3 167 159 158
3 158 310 167
3 159 312 160
3 167 312 159
3 168 161 160
3 160 312 168
3 169 162 161
3 169 161 168
3 169 163 162
3 166 311 165
3 167 310 166
3 168 312 167
3 6 313 5
3 5 316 6
3 170 316 5
3 5 313 175
3 6 316 164
3 169 313 6
3 164 318 165
3 164 316 170
3 170 318 164
3 165 319 166
3 165 318 171
3 171 319 165
3 166 317 167
3 172 317 166
3 166 319 172
3 167 315 168
3 173 315 167
3 167 317 173
3 168 314 169
3 174 314 168
3 168 315 174
3 175 313 169
3 169 314 175
3 171 318 170
3 172 319 171
3 173 317 172
3 174 315 173
3 175 314 174
3 176 5 2
3 5 187 2
3 170 5 176
3 175 187 5
3 170 178 171
3 176 177 170
3 177 178 170
3 171 321 172
3 178 179 171
3 179 321 171
3 172 320 173
3 180 181 172
3 172 321 180
3 181 320 172
3 173 322 174
3 182 183 173
3 173 320 182
3 183 322 173
3 174 185 175
3 184 185 174
3 174 322 184
3 185 186 175
3 186 187 175
3 180 321 179
3 182 320 181
3 184 322 183
3 1 334 33
3 33 337 1
3 188 334 1
3 1 337 199
3 33 335 2
3 2 336 33
3 2 335 176
3 187 336 2
3 334 335 33
3 336 337 33
3 176 332 177
3 176 335 332
3 177 333 178
3 332 333 177
3 178 331 179
3 178 333 331
3 179 330 180
3 179 331 330
3 180 327 181
3 180 330 327
3 181 326 182
3 181 327 326
3 182 328 183
3 326 328 182
3 183 329 184
3 328 329 183
3 184 323 185
3 184 329 323
3 185 324 186
3 323 324 185
3 186 325 187
3 324 325 186
3 325 336 187
3 189 332 188
3 332 334 188
3 190 333 189
3 189 333 332
3 191 331 190
3 331 333 190
3 192 330 191
3 330 331 191
3 193 327 192
3 327 330 192
3 194 326 193
3 326 327 193
3 195 328 194
3 194 328 326
3 196 329 195
3 195 329 328
3 197 323 196
3 323 329 196
3 198 324 197
3 197 324 323
3 199 325 198
3 198 325 324
3 199 337 325
3 325 337 336
3 332 335 334
3 1 343 188
3 199 342 1
3 342 343 1
3 188 340 189
3 188 343 340
3 189 350 190
3 340 350 189
3 190 352 191
3 350 352 190
3 191 339 192
3 191 352 339
3 192 348 193
3 339 348 192
3 193 348 194
3 194 341 195
3 194 348 341
3 195 349 196
3 341 349 195
3 196 349 197
3 197 338 198
3 197 349 338
3 198 351 199
3 338 351 198
3 199 351 342
3 338 344 342
3 342 351 338
3 338 345 344
3 338 349 345
3 346 347 339
3 339 352 346
3 347 348 339
3 340 343 342
3 342 344 340
3 344 346 340
3 346 350 340
3 341 347 345
3 345 349 341
3 341 348 347
3 345 347 344
3 344 347 346
3 346 352 350
4 256 282 130 357
4 256 131 282 357
4 171 352 350 346
4 253 70 71 228
4 322 341 173 359
4 256 268 282 269
4 270 268 282 256
4 232 253 238 228
4 253 232 234 228
4 171 352 331 350
4 322 174 341 359
4 282 270 256 130
4 282 131 256 269
4 253 234 70 228
4 253 71 238 228
4 346 171 347 359
4 70 69 229 254
4 135 293 311 136
4 283 130 87 257
4 137 312 168 294
4 255 230 71 96
4 90 89 284 258
4 256 130 88 357
4 256 89 131 357
4 283 270 130 257
4 89 269 284 258
4 312 294 137 300
4 136 293 311 299
4 254 229 70 234
4 230 71 238 255
4 322 173 174 359
4 174 345 341 359
4 166 356 136 360
4 257 283 270 273
4 269 272 284 258
4 294 312 303 300
4 293 301 311 299
4 254 233 229 234
4 238 239 230 255
4 87 283 257 273
4 90 284 272 258
4 294 168 303 312
4 293 311 301 135
4 233 229 69 254
4 255 239 230 96
4 339 171 347 346
4 346 344 170 359
4 172 347 171 359
4 326 328 341 320
4 339 327 172 321
4 333 171 331 350
4 256 88 89 357
4 131 130 282 357
4 321 339 327 330
4 174 338 345 359
4 171 339 352 346
4 348 341 347 359
4 70 253 71 94
4 71 94 253 95
4 348 173 341 359
4 344 342 5 359
4 329 322 341 328
4 320 173 341 348
4 320 341 326 348
4 174 349 322 341
4 173 341 328 320
4 171 339 321 330
4 348 320 173 172
4 332 170 343 335
4 173 348 172 359
4 171 347 172 339
4 88 130 87 357
4 131 89 90 357
4 166 165 136 356
4 168 167 137 356
4 166 165 311 136
4 130 88 87 257
4 254 70 69 94
4 71 255 96 95
4 312 137 168 167
4 89 284 131 90
4 348 347 172 359
4 170 171 350 346
4 170 340 332 343
4 244 242 22 241
4 277 14 275 278
4 270 256 130 88
4 269 131 256 89
4 70 94 234 253
4 71 253 238 95
4 329 322 349 341
4 279 21 267 280
4 308 13 309 297
4 343 33 5 342
4 343 5 33 335
4 306 6 307 304
4 137 356 167 360
4 172 171 339 321
4 88 130 270 257
4 284 131 269 89
4 312 137 167 300
4 311 166 136 299
4 94 254 70 234
4 71 238 255 95
4 87 130 129 357
4 132 131 90 357
4 165 135 136 356
4 137 138 168 356
4 349 174 345 341
4 93 254 69 94
4 87 129 130 283
4 135 311 165 136
4 138 168 294 137
4 230 72 71 96
4 90 284 131 132
4 173 341 322 328
4 346 170 171 359
4 136 299 166 360
4 351 342 175 325
4 337 342 351 325
4 91 353 21 357
4 21 353 86 357
4 133 14 355 357
4 14 128 355 357
4 338 174 323 324
4 139 355 13 356
4 13 355 134 356
4 6 164 354 356
4 6 354 169 356
4 87 129 128 357
4 132 90 91 357
4 5 170 344 359
4 165 134 135 356
4 138 139 168 356
4 266 132 90 271
4 69 236 93 240
4 296 168 138 295
4 96 231 72 235
4 135 165 302 305
4 274 87 129 276
4 350 333 171 170
4 340 170 346 344
4 5 340 343 342
4 14 91 21 357
4 21 86 14 357
4 335 33 343 334
4 343 170 5 335
4 13 6 169 356
4 13 134 6 356
4 279 45 21 280
4 13 309 39 308
4 245 29 51 243
4 242 22 51 244
4 14 277 45 278
4 342 175 5 359
4 39 6 307 306
4 350 340 170 346
4 348 172 347 339
4 71 70 94 358
4 94 95 71 358
4 283 87 129 273
4 168 294 303 138
4 165 301 311 135
4 254 69 233 93
4 323 329 322 349
4 244 22 29 241
4 307 6 13 304
4 21 279 267 14
4 95 281 261 358
4 309 13 6 297
4 326 327 320 348
4 94 281 263 358
4 94 265 281 358
4 95 263 281 358
4 91 14 133 357
4 86 128 14 357
4 71 353 70 358
4 5 340 170 343
4 169 139 13 356
4 6 134 164 356
4 335 343 332 334
4 69 94 70 358
4 71 95 96 358
4 345 338 344 359
4 172 348 327 339
4 86 353 87 357
4 90 353 91 357
4 132 133 355 357
4 128 129 355 357
4 138 355 139 356
4 134 355 135 356
4 165 354 164 356
4 169 354 168 356
4 261 281 96 358
4 264 281 93 358
4 327 320 348 172
4 93 281 265 358
4 260 96 281 358
4 69 70 353 358
4 72 353 71 358
4 69 93 94 358
4 96 72 71 358
4 345 174 349 338
4 175 342 351 338
4 323 349 174 338
4 91 132 271 90
4 68 93 240 69
4 139 138 168 295
4 235 72 96 73
4 276 87 129 128
4 165 135 134 305
4 342 337 33 336
4 91 133 132 357
4 86 87 128 357
4 169 168 139 356
4 165 164 134 356
4 310 298 300 360
4 292 300 298 360
4 332 333 350 170
4 167 300 137 360
4 342 5 340 344
4 88 87 353 357
4 89 353 90 357
4 95 261 96 358
4 174 175 338 359
4 135 355 136 356
4 137 355 138 356
4 166 354 165 356
4 168 354 167 356
4 130 355 129 357
4 131 132 355 357
4 170 354 171 359
4 349 322 323 174
4 95 94 263 358
4 175 342 336 325
4 5 354 170 359
4 351 175 338 325
4 310 300 167 360
4 342 33 5 336
4 21 14 45 279
4 172 171 354 359
4 292 137 300 360
4 22 51 29 243
4 309 13 39 6
4 13 39 6 307
4 277 14 45 21
4 22 29 51 244
4 94 93 265 358
4 340 332 350 170
4 281 262 29 358
4 259 281 29 358
4 342 337 336 325
4 298 310 299 360
4 88 353 89 357
4 298 299 292 360
4 166 167 354 356
4 137 136 355 356
4 71 252 70 353
4 130 131 355 357
4 317 166 167 354
4 290 130 131 355
4 29 68 241 22
4 170 340 5 344
4 14 21 91 267
4 169 6 13 297
4 134 13 6 304
4 88 252 89 353
4 264 92 281 358
4 236 233 69 93
4 274 129 87 273
4 168 303 296 138
4 165 302 301 135
4 136 290 137 355
4 132 91 271 133
4 93 68 240 92
4 139 168 169 295
4 96 97 235 73
4 134 164 165 305
4 87 276 86 128
4 172 317 173 354
4 260 281 97 358
4 97 281 259 358
4 281 92 262 358
4 338 175 174 324
4 72 248 71 353
4 165 166 319 354
4 315 167 168 354
4 69 70 251 353
4 289 129 130 355
4 132 287 131 355
4 310 166 299 360
4 88 87 251 353
4 69 68 93 358
4 96 73 72 358
4 68 29 241 92
4 14 86 275 128
4 331 352 190 350
4 139 169 13 297
4 267 91 14 133
4 22 97 73 237
4 134 6 164 304
4 136 292 299 360
4 89 248 90 353
4 136 135 289 355
4 287 138 137 355
4 69 353 68 358
4 73 353 72 358
4 172 171 319 354
4 173 315 174 354
4 5 175 354 359
4 336 5 342 175
4 172 354 173 359
4 264 93 92 358
4 346 347 344 359
4 22 353 73 358
4 68 353 22 358
4 260 97 96 358
4 174 173 354 359
4 97 73 96 358
4 93 68 92 358
4 324 338 175 325
4 324 323 338 197
4 345 347 341 359
4 29 22 97 358
4 29 68 22 358
4 191 339 352 330
4 174 354 175 359
4 184 323 329 322
4 169 314 168 354
4 262 92 29 358
4 97 259 29 358
4 97 22 73 358
4 29 92 68 358
4 247 91 90 353
4 87 86 250 353
4 272 124 284 266
4 239 64 230 231
4 194 328 341 326
4 139 138 286 355
4 291 135 134 355
4 352 331 191 330
4 170 318 171 354
4 195 329 341 328
4 72 73 247 353
4 69 250 68 353
4 165 318 164 354
4 324 174 323 185
4 107 266 90 271
4 240 236 93 76
4 168 296 161 295
4 65 72 231 235
4 276 129 274 118
4 154 302 165 305
4 133 286 132 355
4 291 128 129 355
4 83 231 96 235
4 331 171 333 178
4 276 274 87 100
4 142 135 302 305
4 296 138 149 295
4 125 132 266 271
4 236 69 58 240
4 330 339 327 192
4 175 174 314 354
4 333 189 332 350
4 33 343 337 342
4 190 333 331 350
4 157 298 310 299
4 62 232 238 228
4 61 234 232 228
4 269 256 268 104
4 268 270 103 256
4 310 300 298 158
4 182 328 326 320
4 300 146 292 298
4 268 122 282 269
4 268 282 121 270
4 80 232 253 238
4 232 234 79 253
4 298 292 299 145
4 326 327 181 320
4 338 323 349 197
4 73 22 246 353
4 21 249 86 353
4 13 139 285 355
4 134 13 288 355
4 6 164 316 354
4 313 5 175 354
4 170 5 316 354
4 68 249 22 353
4 313 169 6 354
4 240 92 68 241
4 86 276 275 128
4 21 91 246 353
4 271 91 267 133
4 169 139 295 297
4 97 235 73 237
4 305 134 164 304
4 14 285 133 355
4 14 128 288 355
4 322 184 323 174
4 328 182 173 320
4 238 71 62 228
4 234 61 70 228
4 310 166 157 299
4 104 269 256 89
4 270 103 256 88
4 300 310 167 158
4 132 284 124 266
4 230 64 72 231
4 146 292 137 300
4 131 282 122 269
4 270 282 121 130
4 238 253 80 95
4 94 79 234 253
4 292 136 299 145
4 327 181 320 172
4 350 189 332 340
4 175 336 187 325
4 98 86 275 277
4 335 332 170 176
4 85 237 97 245
4 188 332 343 334
4 343 340 332 188
4 322 329 183 328
4 102 257 270 273
4 105 272 269 258
4 159 303 312 300
4 311 301 156 299
4 60 229 233 234
4 63 238 239 230
4 144 301 293 299
4 330 327 321 180
4 254 78 233 234
4 238 81 239 255
4 303 147 294 300
4 326 341 194 348
4 120 270 283 273
4 123 272 284 269
4 339 348 327 192
4 1 33 343 337
4 349 195 329 341
4 166 311 156 299
4 229 60 70 234
4 173 322 183 328
4 238 63 71 230
4 257 270 88 102
4 89 105 269 258
4 167 159 312 300
4 137 294 147 300
4 120 270 130 283
4 284 131 123 269
4 337 351 199 325
4 78 254 94 234
4 136 144 293 299
4 321 327 172 180
4 238 81 255 95
4 137 136 356 360
4 166 167 356 360
4 276 117 275 128
4 241 240 92 75
4 73 235 66 237
4 304 164 305 153
4 267 91 271 108
4 186 324 175 325
4 162 169 295 297
4 240 68 57 241
4 276 275 99 86
4 333 332 177 170
4 133 267 271 126
4 297 139 295 150
4 97 235 237 84
4 134 305 141 304
4 65 72 235 73
4 165 164 154 305
4 129 276 128 118
4 90 107 271 91
4 175 174 324 185
4 240 93 92 76
4 161 169 168 295
4 271 125 132 133
4 68 58 69 240
4 149 138 139 295
4 96 97 83 235
4 87 276 100 86
4 142 134 135 305
4 178 171 333 170
4 111 281 264 110
4 114 115 260 281
4 115 30 259 281
4 263 112 113 281
4 30 262 281 110
4 265 111 112 281
4 114 261 113 281
4 97 29 85 245
4 98 21 86 277
4 335 170 5 176
4 336 187 5 175
4 13 10 39 307
4 22 51 25 242
4 2 33 5 335
4 21 18 45 277
4 17 14 45 278
4 26 51 29 244
4 39 10 13 308
4 29 51 26 245
4 45 14 17 279
4 45 18 21 280
4 9 39 6 309
4 2 5 33 336
4 6 39 9 306
4 25 51 22 243
4 329 323 196 349
4 347 345 344 359
4 61 70 60 234
4 157 166 156 299
4 182 173 183 328
4 71 62 63 238
4 270 103 88 102
4 105 269 104 89
4 167 159 300 158
4 326 193 327 348
4 146 137 147 300
4 270 121 120 130
4 123 131 122 269
4 78 94 79 234
4 299 136 144 145
4 327 181 172 180
4 81 238 80 95
4 305 164 154 153
4 235 66 65 73
4 276 117 128 118
4 107 271 91 108
4 76 92 240 75
4 185 324 175 186
4 295 161 169 162
4 338 324 197 198
4 57 58 68 240
4 271 125 133 126
4 139 149 295 150
4 235 97 83 84
4 100 276 99 86
4 305 142 134 141
4 178 333 177 170
4 340 189 332 188
4 337 343 1 342
4 328 341 195 194
4 351 342 337 199
4 106 266 90 107
4 174 184 323 185
4 93 236 77 76
4 96 82 231 83
4 171 331 179 178
4 87 274 101 100
4 135 302 143 142
4 168 296 160 161
4 138 148 296 149
4 124 132 266 125
4 59 69 58 236
4 72 64 65 231
4 155 302 165 154
4 119 274 129 118
4 330 191 339 192
4 33 1 343 334
4 193 326 194 348
4 196 195 329 349
4 92 74 241 75
4 275 117 116 128
4 267 109 91 108
4 66 67 73 237
4 186 175 187 325
4 162 163 169 297
4 152 164 304 153
4 323 196 349 197
4 57 68 56 241
4 86 275 99 98
4 170 332 177 176
4 191 331 352 190
4 133 127 267 126
4 297 151 139 150
4 84 237 97 85
4 141 140 134 304
4 189 333 190 350
4 85 29 26 245
4 279 14 17 127
4 151 13 10 308
4 152 6 9 306
4 22 67 25 243
4 309 6 9 163
4 109 21 18 280
4 5 2 187 336
4 1 337 342 199
4 25 56 22 242
4 13 10 307 140
4 335 5 2 176
4 18 21 98 277
4 74 26 29 244
4 14 17 116 278
4 193 327 348 192
4 351 199 325 198
4 188 343 1 334
4 166 310 167 360
4 137 292 136 360
4 158 298 310 157
4 232 62 61 228
4 256 103 268 104
4 79 80 232 253
4 121 122 282 268
4 298 146 292 145
4 181 182 326 320
4 329 183 184 322
4 77 78 233 254
4 143 144 301 293
4 321 179 330 180
4 82 239 81 255
4 101 257 102 273
4 272 105 106 258
4 159 303 160 312
4 147 303 294 148
4 119 120 283 273
4 284 124 272 123
4 59 60 229 233
4 301 156 155 311
4 239 64 63 230
4 352 330 171 331
4 171 330 352 339
4 359 342 338 344
4 359 338 342 175
4 325 338 198 324
4 325 198 338 351
4 272 90 106 266
4 272 106 90 258
4 93 233 77 236
4 93 77 233 254
4 87 273 101 274
4 101 273 87 257
4 301 135 143 293
4 143 135 301 302
4 171 330 179 331
4 179 330 171 321
4 96 239 82 255
4 96 82 239 231
4 168 303 160 296
4 168 160 303 312
4 266 284 90 132
4 266 90 284 272
4 138 303 148 294
4 138 148 303 296
4 273 129 119 274
4 273 119 129 283
4 69 233 59 229
4 69 59 233 236
4 165 301 155 311
4 165 155 301 302
4 231 230 96 72
4 231 96 230 239
4 275 14 116 278
4 275 116 14 128
4 241 29 74 92
4 241 74 29 244
4 277 86 14 21
4 277 14 86 275
4 241 22 56 242
4 241 56 22 68
4 304 13 140 134
4 304 140 13 307
4 304 6 152 306
4 304 152 6 164
4 267 21 109 280
4 267 109 21 91
4 237 22 67 73
4 67 22 237 243
4 297 6 163 169
4 297 163 6 309
4 13 297 151 139
4 151 297 13 308
4 14 267 127 279
4 127 267 14 133
4 97 245 243 29
4 243 245 97 237
4 243 22 97 29
4 97 22 243 237
4 94 112 281 265
4 94 281 112 263
4 113 95 281 261
4 113 281 95 263
4 88 70 353 251
4 88 353 70 252
4 172 166 354 319
4 354 166 172 317
4 130 136 355 290
4 130 355 136 289
4 167 173 354 315
4 167 354 173 317
4 131 137 355 287
4 131 355 137 290
4 89 71 353 252
4 353 71 89 248
4 111 93 281 265
4 111 281 93 264
4 96 114 281 261
4 96 281 114 260
4 69 87 353 251
4 69 353 87 250
4 174 168 354 315
4 354 168 174 314
4 90 72 353 248
4 90 353 72 247
4 138 132 355 287
4 355 132 138 286
4 129 135 355 289
4 129 355 135 291
4 165 171 354 319
4 354 171 165 318
4 29 30 281 259
4 29 281 30 262
4 110 92 281 264
4 110 281 92 262
4 115 97 281 259
4 115 281 97 260
4 6 5 354 316
4 6 354 5 313
4 21 22 353 246
4 21 353 22 249
4 14 13 355 288
4 14 355 13 285
4 133 139 355 285
4 133 355 139 286
4 91 73 353 247
4 91 353 73 246
4 169 175 354 313
4 354 175 169 314
4 128 134 355 291
4 128 355 134 288
4 68 86 353 250
4 68 353 86 249
4 164 170 354 318
4 164 354 170 316

CELL_TYPES 1656
1
1
1
1
1
1
1
1
1
1
1
1
1
1
1
1
1
1
1
1
1
1
1
1
1
1
1
1
1
1
1
1
3
3
3
3
3
3
3
3
3
3
3
3
3
3
3
3
3
3
3
3
3
3
3
3
3
3
3
3
3
3
3
3
3
3
3
3
3
3
3
3
3
3
3
3
3
3
3
3
3
3
3
3
3
3
3
3
3
3
3
3
3
3
3
3
3
3
3
3
3
3
3
3
3
3
3
3
3
3
3
3
3
3
3
3
3
3
3
3
3
3
3
3
3
3
3
3
3
3
3
3
3
3
3
3
3
3
3
3
3
3
3
3
3
3
3
3
3
3
3
3
3
3
3
3
3
3
3
3
3
3
3
3
3
3
3
3
3
3
3
3
3
3
3
3
3
3
3
3
3
3
3
3
3
3
3
3
3
3
3
3
3
3
3
3
3
3
3
3
3
3
3
3
3
3
3
3
3
3
3
3
3
3
3
3
3
3
3
3
3
3
3
3
3
3
3
3
3
3
3
3
3
3
3
3
3
3
3
3
3
3
3
3
3
3
3
3
5
5
5
5
5
5
5
5
5
5
5
5
5
5
5
5
5
5
5
5
5
5
5
5
5
5
5
5
5
5
5
5
5
5
5
5
5
5
5
5
5
5
5
5
5
5
5
5
5
5
5
5
5
5
5
5
5
5
5
5
5
5
5
5
5
5
5
5
5
5
5
5
5
5
5
5
5
5
5
5
5
5
5
5
5
5
5
5
5
5
5
5
5
5
5
5
5
5
5
5
5
5
5
5
5
5
5
5
5
5
5
5
5
5
5
5
5
5
5
5
5
5
5
5
5
5
5
5
5
5
5
5
5
5
5
5
5
5
5
5
5
5
5
5
5
5
5
5
5
5
5
5
5
5
5
5
5
5
5
5
5
5
5
5
5
5
5
5
5
5
5
5
5
5
5
5
5
5
5
5
5
5
5
5
5
5
5
5
5
5
5
5
5
5
5
5
5
5
5
5
5
5
5
5
5
5
5
5
5
5
5
5
5
5
5
5
5
5
5
5
5
5
5
5
5
5
5
5
5
5
5
5
5
5
5
5
5
5
5
5
5
5
5
5
5
5
5
5
5
5
5
5
5
5
5
5
5
5
5
5
5
5
5
5
5
5
5
5
5
5
5
5
5
5
5
5
5
5
5
5
5
5
5
5
5
5
5
5
5
5
5
5
5
5
5
5
5
5
5
5
5
5
5
5
5
5
5
5
5
5
5
5
5
5
5
5
5
5
5
5
5
5
5
5
5
5
5
5
5
5
5
5
5
5
5
5
5
5
5
5
5
5
5
5
5
5
5
5
5
5
5
5
5
5
5
5
5
5
5
5
5
5
5
5
5
5
5
5
5
5
5
5
5
5
5
5
5
5
5
5
5
5
5
5
5
5
5
5
5
5
5
5
5
5
5
5
5
5
5
5
5
5
5
5
5
5
5
5
5
5
5
5
5
5
5
5
5
5
5
5
5
5
5
5
5
5
5
5
5
5
5
5
5
5
5
5
5
5
5
5
5
5
5
5
5
5
5
5
5
5
5
5
5
5
5
5
5
5
5
5
5
5
5
5
5
5
5
5
5
5
5
5
5
5
5
5
5
5
5
5
5
5
5
5
5
5
5
5
5
5
5
5
5
5
5
5
5
5
5
5
5
5
5
5
5
5
5
5
5
5
5
5
5
5
5
5
5
5
5
5
5
5
5
5
5
5
5
5
5
5
5
5
5
5
5
5
5
5
5
5
5
5
5
5
5
5
5
5
5
5
5
5
5
5
5
5
5
5
5
5
5
5
5
5
5
5
5
5
5
5
5
5
5
5
5
5
5
5
5
5
5
5
5
5
5
5
5
5
5
5
5
5
5
5
5
5
5
5
5
5
5
5
5
5
5
5
5
5
5
5
5
5
5
5
5
5
5
5
5
5
5
5
5
5
5
5
5
5
5
5
5
5
5
5
5
5
5
5
5
5
5
5
5
5
5
5
5
5
5
5
5
5
5
5
5
5
5
5
5
5
5
5
5
5
5
5
5
5
5
5
10
10
10
10
10
10
10
10
10
10
10
10
10
10
10
10
10
10
10
10
10
10
10
10
10
10
10
10
10
10
10
10
10
10
10
10
10
10
10
10
10
10
10
10
10
10
10
10
10
10
10
10
10
10
10
10
10
10
10
10
10
10
10
10
10
10
10
10
10
10
10
10
10
10
10
10
10
10
10
10
10
10
10
10
10
10
10
10
10
10
10
10
10
10
10
10
10
10
10
10
10
10
10
10
10
10
10
10
10
10
10
10
10
10
10
10
10
10
10
10
10
10
10
10
10
10
10
10
10
10
10
10
10
10
10
10
10
10
10
10
10
10
10
10
10
10
10
10
10
10
10
10
10
10
10
10
10
10
10
10
10
10
10
10
10
10
10
10
10
10
10
10
10
10
10
10
10
10
10
10
10
10
10
10
10
10
10
10
10
10
10
10
10
10
10
10
10
10
10
10
10
10
10
10
10
10
10
10
10
10
10
10
10
10
10
10
10
10
10
10
10
10
10
10
10
10
10
10
10
10
10
10
10
10
10
10
10
10
10
10
10
10
10
10
10
10
10
10
10
10
10
10
10
10
10
10
10
10
10
10
10
10
10
10
10
10
10
10
10
10
10
10
10
10
10
10
10
10
10
10
10
10
10
10
10
10
10
10
10
10
10
10
10
10
10
10
10
10
10
10
10
10
10
10
10
10
10
10
10
10
10
10
10
10
10
10
10
10
10
10
10
10
10
10
10
10
10
10
10
10
10
10
10
10
10
10
10
10
10
10
10
10
10
10
10
10
10
10
10
10
10
10
10
10
10
10
10
10
10
10
10
10
10
10
10
10
10
10
10
10
10
10
10
10
10
10
10
10
10
10
10
10
10
10
10
10
10
10
10
10
10
10
10
10
10
10
10
10
10
10
10
10
10
10
10
10
10
10
10
10
10
10
10
10
10
10
10
10
10
10
10
10
10
10
10
10
10
10
10
10
10
10
10
10
10
10
10
10
10
10
10
10
10
10
10
10
10
10
10
10
10
10
10
10
10
10
10
10
10
10
10
10
10
10
10
10
10
10
10
10
10
10
10
10
10
10
10
10
10
10
10
10
10
10
10
10
10
10
10
10
10
10
10
10
10
10
10
10
10
10
10
10
10
10
10
10
10
10
10
10
10
10
10
10
10
10
10
10
10
10
10
10
10
10
10
10
10
10
10
10
10
10
10
10
10
10
10
10
10
10
10
10
10
10
10
10
10
10
10
10
10
10
10
10
10
10
10
10
10
10
10
10
10
10
10
10
10
10
10
10
10
10
10
10
10
10
10
10
10
10
10
10
10
10
10
10
10
10
10
10
10
10
10
10
10
10
10
10
10
10
10
10
10
10
10
10
10
10
10
10
10
10
10
10
10
10
10
10
10
10
10
10
10
10
10
10
10
10
10
10
10
10
10
10
10
10
10
10
10
10
10
10
10
10
10
10
10
10
10
10
10
10
10
10
10
10
10
10
10
10
10
10
10
10
10
10
10
10
10
10
10
10
10
10
10
10
10
10
10
10
10
10
10
10
10
10
10
10
10
10
10
10
10
10
10
10
10
10
10
10
10
10
10
10
10
10
10
10
10
10
10
10
10
10
10
10
10
10
10
10
10
10
10
10
10
10
10
10
10
10
10
10
10
10
10
10
10
10
