# vtk DataFile Version 2.0
, Created by Gmsh 4.13.1 
ASCII
DATASET UNSTRUCTURED_GRID
POINTS 526 double
0 0 0
23.36442919740583 0 0
23.36442919740583 0 8.276432731219188
0 0 8.276432731219188
0 0 8.276432731219188
12.29355846584737 0 8.276432731219188
12.29355846584737 0 16.93430331078676
0 0 16.93430331078676
0 0 16.93430331078676
23.36442919740583 0 16.93430331078676
23.36442919740583 0 25.21073604200594
0 0 25.21073604200594
0 0 25.21073604200594
12.29355846584737 0 25.21073604200594
12.29355846584737 0 33.86860662157351
0 0 33.86860662157351
0 0 33.86860662157351
23.36442919740583 0 33.86860662157351
23.36442919740583 0 42.1450393527927
0 0 42.1450393527927
0 0 42.1450393527927
12.29355846584737 0 42.1450393527927
12.29355846584737 0 50.80290993236027
0 0 50.80290993236027
0 0 50.80290993236027
23.36442919740583 0 50.80290993236027
23.36442919740583 0 59.07934266357945
0 0 59.07934266357945
0 0 59.07934266357945
12.29355846584737 0 59.07934266357945
12.29355846584737 0 67.73721324314702
0 0 67.73721324314702
0 0 67.73721324314702
23.36442919740583 0 67.73721324314702
23.36442919740583 0 76.01364597436621
0 0 76.01364597436621
0 0 76.01364597436621
12.29355846584737 0 76.01364597436621
12.29355846584737 0 84.67151655393378
0 0 84.67151655393378
7.788143065801941 0 0
15.57628613160386 0 0
15.57628613160388 0 8.276432731219188
7.788143065801965 0 8.276432731219188
6.146779232923675 0 8.276432731219188
6.146779232923691 0 16.93430331078676
7.788143065801941 0 16.93430331078676
15.57628613160386 0 16.93430331078676
15.57628613160388 0 25.21073604200594
7.788143065801965 0 25.21073604200594
6.146779232923675 0 25.21073604200594
6.146779232923691 0 33.86860662157351
7.788143065801941 0 33.86860662157351
15.57628613160386 0 33.86860662157351
15.57628613160388 0 42.1450393527927
7.788143065801965 0 42.1450393527927
6.146779232923675 0 42.1450393527927
6.146779232923691 0 50.80290993236027
7.788143065801941 0 50.80290993236027
15.57628613160386 0 50.80290993236027
15.57628613160388 0 59.07934266357945
7.788143065801965 0 59.07934266357945
6.146779232923675 0 59.07934266357945
6.146779232923691 0 67.73721324314702
7.788143065801941 0 67.73721324314702
15.57628613160386 0 67.73721324314702
15.57628613160388 0 76.01364597436621
7.788143065801965 0 76.01364597436621
6.146779232923675 0 76.01364597436621
6.146779232923691 0 84.67151655393378
21.34446816370226 9.503169499135048 67.73721324314702
15.63385467608879 17.36315465828507 67.73721324314702
7.220005685868649 22.22089263770954 67.73721324314702
-2.442247879130686 23.23643640960187 67.73721324314702
-11.68221459870285 20.23418922987634 67.73721324314702
-18.90222028457147 13.7332669104669 67.73721324314702
-22.85386036195736 4.857737979424611 67.73721324314702
-22.85386036195742 -4.85773797942429 67.73721324314702
-18.90222028457164 -13.73326691046666 67.73721324314702
-11.68221459870308 -20.23418922987621 67.73721324314702
-2.442247879130867 -23.23643640960185 67.73721324314702
7.220005685868491 -22.2208926377096 67.73721324314702
15.63385467608872 -17.36315465828514 67.73721324314702
21.34446816370223 -9.503169499135115 67.73721324314702
8.692858556113954 8.692858556113968 67.73721324314702
-2.927413830812384e-14 12.29355846584737 67.73721324314702
-8.692858556113984 8.692858556113938 67.73721324314702
-12.29355846584737 -1.487278329349803e-14 67.73721324314702
-8.692858556113944 -8.692858556113981 67.73721324314702
1.957945660757519e-14 -12.29355846584737 67.73721324314702
8.692858556113968 -8.692858556113956 67.73721324314702
21.34446816370226 9.503169499135048 76.01364597436621
15.63385467608879 17.36315465828507 76.01364597436621
7.220005685868649 22.22089263770954 76.01364597436621
-2.442247879130686 23.23643640960187 76.01364597436621
-11.68221459870285 20.23418922987634 76.01364597436621
-18.90222028457147 13.7332669104669 76.01364597436621
-22.85386036195736 4.857737979424611 76.01364597436621
-22.85386036195742 -4.85773797942429 76.01364597436621
-18.90222028457164 -13.73326691046666 76.01364597436621
-11.68221459870308 -20.23418922987621 76.01364597436621
-2.442247879130867 -23.23643640960185 76.01364597436621
7.220005685868491 -22.2208926377096 76.01364597436621
15.63385467608872 -17.36315465828514 76.01364597436621
21.34446816370223 -9.503169499135115 76.01364597436621
8.692858556113954 8.692858556113968 59.07934266357945
-2.927413830812384e-14 12.29355846584737 59.07934266357945
-8.692858556113984 8.692858556113938 59.07934266357945
-12.29355846584737 -1.487278329349803e-14 59.07934266357945
-8.692858556113944 -8.692858556113981 59.07934266357945
1.957945660757519e-14 -12.29355846584737 59.07934266357945
8.692858556113968 -8.692858556113956 59.07934266357945
8.692858556113954 8.692858556113968 76.01364597436621
-2.927413830812384e-14 12.29355846584737 76.01364597436621
-8.692858556113984 8.692858556113938 76.01364597436621
-12.29355846584737 -1.487278329349803e-14 76.01364597436621
-8.692858556113944 -8.692858556113981 76.01364597436621
1.957945660757519e-14 -12.29355846584737 76.01364597436621
8.692858556113968 -8.692858556113956 76.01364597436621
21.34446816370226 9.503169499135048 59.07934266357945
15.63385467608879 17.36315465828507 59.07934266357945
7.220005685868649 22.22089263770954 59.07934266357945
-2.442247879130686 23.23643640960187 59.07934266357945
-11.68221459870285 20.23418922987634 59.07934266357945
-18.90222028457147 13.7332669104669 59.07934266357945
-22.85386036195736 4.857737979424611 59.07934266357945
-22.85386036195742 -4.85773797942429 59.07934266357945
-18.90222028457164 -13.73326691046666 59.07934266357945
-11.68221459870308 -20.23418922987621 59.07934266357945
-2.442247879130867 -23.23643640960185 59.07934266357945
7.220005685868491 -22.2208926377096 59.07934266357945
15.63385467608872 -17.36315465828514 59.07934266357945
21.34446816370223 -9.503169499135115 59.07934266357945
8.692858556113954 8.692858556113968 84.67151655393378
-2.927413830812384e-14 12.29355846584737 84.67151655393378
-8.692858556113984 8.692858556113938 84.67151655393378
-12.29355846584737 -1.487278329349803e-14 84.67151655393378
-8.692858556113944 -8.692858556113981 84.67151655393378
1.957945660757519e-14 -12.29355846584737 84.67151655393378
8.692858556113968 -8.692858556113956 84.67151655393378
21.34446816370226 9.503169499135048 50.80290993236027
15.63385467608879 17.36315465828507 50.80290993236027
7.220005685868649 22.22089263770954 50.80290993236027
-2.442247879130686 23.23643640960187 50.80290993236027
-11.68221459870285 20.23418922987634 50.80290993236027
-18.90222028457147 13.7332669104669 50.80290993236027
-22.85386036195736 4.857737979424611 50.80290993236027
-22.85386036195742 -4.85773797942429 50.80290993236027
-18.90222028457164 -13.73326691046666 50.80290993236027
-11.68221459870308 -20.23418922987621 50.80290993236027
-2.442247879130867 -23.23643640960185 50.80290993236027
7.220005685868491 -22.2208926377096 50.80290993236027
15.63385467608872 -17.36315465828514 50.80290993236027
21.34446816370223 -9.503169499135115 50.80290993236027
8.692858556113954 8.692858556113968 50.80290993236027
-2.927413830812384e-14 12.29355846584737 50.80290993236027
-8.692858556113984 8.692858556113938 50.80290993236027
-12.29355846584737 -1.487278329349803e-14 50.80290993236027
-8.692858556113944 -8.692858556113981 50.80290993236027
1.957945660757519e-14 -12.29355846584737 50.80290993236027
8.692858556113968 -8.692858556113956 50.80290993236027
8.692858556113954 8.692858556113968 42.1450393527927
-2.927413830812384e-14 12.29355846584737 42.1450393527927
-8.692858556113984 8.692858556113938 42.1450393527927
-12.29355846584737 -1.487278329349803e-14 42.1450393527927
-8.692858556113944 -8.692858556113981 42.1450393527927
1.957945660757519e-14 -12.29355846584737 42.1450393527927
8.692858556113968 -8.692858556113956 42.1450393527927
21.34446816370226 9.503169499135048 42.1450393527927
15.63385467608879 17.36315465828507 42.1450393527927
7.220005685868649 22.22089263770954 42.1450393527927
-2.442247879130686 23.23643640960187 42.1450393527927
-11.68221459870285 20.23418922987634 42.1450393527927
-18.90222028457147 13.7332669104669 42.1450393527927
-22.85386036195736 4.857737979424611 42.1450393527927
-22.85386036195742 -4.85773797942429 42.1450393527927
-18.90222028457164 -13.73326691046666 42.1450393527927
-11.68221459870308 -20.23418922987621 42.1450393527927
-2.442247879130867 -23.23643640960185 42.1450393527927
7.220005685868491 -22.2208926377096 42.1450393527927
15.63385467608872 -17.36315465828514 42.1450393527927
21.34446816370223 -9.503169499135115 42.1450393527927
21.34446816370226 9.503169499135048 33.86860662157351
15.63385467608879 17.36315465828507 33.86860662157351
7.220005685868649 22.22089263770954 33.86860662157351
-2.442247879130686 23.23643640960187 33.86860662157351
-11.68221459870285 20.23418922987634 33.86860662157351
-18.90222028457147 13.7332669104669 33.86860662157351
-22.85386036195736 4.857737979424611 33.86860662157351
-22.85386036195742 -4.85773797942429 33.86860662157351
-18.90222028457164 -13.73326691046666 33.86860662157351
-11.68221459870308 -20.23418922987621 33.86860662157351
-2.442247879130867 -23.23643640960185 33.86860662157351
7.220005685868491 -22.2208926377096 33.86860662157351
15.63385467608872 -17.36315465828514 33.86860662157351
21.34446816370223 -9.503169499135115 33.86860662157351
8.692858556113954 8.692858556113968 33.86860662157351
-2.927413830812384e-14 12.29355846584737 33.86860662157351
-8.692858556113984 8.692858556113938 33.86860662157351
-12.29355846584737 -1.487278329349803e-14 33.86860662157351
-8.692858556113944 -8.692858556113981 33.86860662157351
1.957945660757519e-14 -12.29355846584737 33.86860662157351
8.692858556113968 -8.692858556113956 33.86860662157351
8.692858556113954 8.692858556113968 25.21073604200594
-2.927413830812384e-14 12.29355846584737 25.21073604200594
-8.692858556113984 8.692858556113938 25.21073604200594
-12.29355846584737 -1.487278329349803e-14 25.21073604200594
-8.692858556113944 -8.692858556113981 25.21073604200594
1.957945660757519e-14 -12.29355846584737 25.21073604200594
8.692858556113968 -8.692858556113956 25.21073604200594
21.34446816370226 9.503169499135048 25.21073604200594
15.63385467608879 17.36315465828507 25.21073604200594
7.220005685868649 22.22089263770954 25.21073604200594
-2.442247879130686 23.23643640960187 25.21073604200594
-11.68221459870285 20.23418922987634 25.21073604200594
-18.90222028457147 13.7332669104669 25.21073604200594
-22.85386036195736 4.857737979424611 25.21073604200594
-22.85386036195742 -4.85773797942429 25.21073604200594
-18.90222028457164 -13.73326691046666 25.21073604200594
-11.68221459870308 -20.23418922987621 25.21073604200594
-2.442247879130867 -23.23643640960185 25.21073604200594
7.220005685868491 -22.2208926377096 25.21073604200594
15.63385467608872 -17.36315465828514 25.21073604200594
21.34446816370223 -9.503169499135115 25.21073604200594
21.34446816370226 9.503169499135048 16.93430331078676
15.63385467608879 17.36315465828507 16.93430331078676
7.220005685868649 22.22089263770954 16.93430331078676
-2.442247879130686 23.23643640960187 16.93430331078676
-11.68221459870285 20.23418922987634 16.93430331078676
-18.90222028457147 13.7332669104669 16.93430331078676
-22.85386036195736 4.857737979424611 16.93430331078676
-22.85386036195742 -4.85773797942429 16.93430331078676
-18.90222028457164 -13.73326691046666 16.93430331078676
-11.68221459870308 -20.23418922987621 16.93430331078676
-2.442247879130867 -23.23643640960185 16.93430331078676
7.220005685868491 -22.2208926377096 16.93430331078676
15.63385467608872 -17.36315465828514 16.93430331078676
21.34446816370223 -9.503169499135115 16.93430331078676
8.692858556113954 8.692858556113968 16.93430331078676
-2.927413830812384e-14 12.29355846584737 16.93430331078676
-8.692858556113984 8.692858556113938 16.93430331078676
-12.29355846584737 -1.487278329349803e-14 16.93430331078676
-8.692858556113944 -8.692858556113981 16.93430331078676
1.957945660757519e-14 -12.29355846584737 16.93430331078676
8.692858556113968 -8.692858556113956 16.93430331078676
8.692858556113954 8.692858556113968 8.276432731219188
-2.927413830812384e-14 12.29355846584737 8.276432731219188
-8.692858556113984 8.692858556113938 8.276432731219188
-12.29355846584737 -1.487278329349803e-14 8.276432731219188
-8.692858556113944 -8.692858556113981 8.276432731219188
1.957945660757519e-14 -12.29355846584737 8.276432731219188
8.692858556113968 -8.692858556113956 8.276432731219188
21.34446816370226 9.503169499135048 8.276432731219188
15.63385467608879 17.36315465828507 8.276432731219188
7.220005685868649 22.22089263770954 8.276432731219188
-2.442247879130686 23.23643640960187 8.276432731219188
-11.68221459870285 20.23418922987634 8.276432731219188
-18.90222028457147 13.7332669104669 8.276432731219188
-22.85386036195736 4.857737979424611 8.276432731219188
-22.85386036195742 -4.85773797942429 8.276432731219188
-18.90222028457164 -13.73326691046666 8.276432731219188
-11.68221459870308 -20.23418922987621 8.276432731219188
-2.442247879130867 -23.23643640960185 8.276432731219188
7.220005685868491 -22.2208926377096 8.276432731219188
15.63385467608872 -17.36315465828514 8.276432731219188
21.34446816370223 -9.503169499135115 8.276432731219188
21.34446816370226 9.503169499135048 0
15.63385467608879 17.36315465828507 0
7.220005685868649 22.22089263770954 0
-2.442247879130686 23.23643640960187 0
-11.68221459870285 20.23418922987634 0
-18.90222028457147 13.7332669104669 0
-22.85386036195736 4.857737979424611 0
-22.85386036195742 -4.85773797942429 0
-18.90222028457164 -13.73326691046666 0
-11.68221459870308 -20.23418922987621 0
-2.442247879130867 -23.23643640960185 0
7.220005685868491 -22.2208926377096 0
15.63385467608872 -17.36315465828514 0
21.34446816370223 -9.503169499135115 0
19.06489415628942 0 4.138216365609586
4.299535041116409 0 4.138216365609602
11.68221459870291 0 4.138216365609587
7.990813002800788 0 12.60536802100297
4.056874293729631 0 12.60536802100297
4.299535041116409 0 21.07251967639636
19.06489415628942 0 21.07251967639634
11.68221459870291 0 21.07251967639634
7.990813002800788 0 29.53967133178973
4.056874293729631 0 29.53967133178973
4.299535041116409 0 38.00682298718311
11.6822145987029 0 38.0068229871831
19.06489415628942 0 38.0068229871831
4.302745463046579 0 46.47397464257648
8.236684172117736 0 46.47397464257648
4.299535041116409 0 54.94112629796987
11.6822145987029 0 54.94112629796984
19.06489415628942 0 54.94112629796985
7.990813002800786 0 63.40827795336324
4.05687429372963 0 63.40827795336324
4.299535041116409 0 71.87542960875663
11.6822145987029 0 71.8754296087566
19.06489415628942 0 71.8754296087566
7.990813002800788 0 80.34258126415
4.05687429372963 0 80.34258126415
-15.68562441712259 -6.820965861501236 67.73721324314702
-15.68562441712254 6.820965861501358 67.73721324314702
-6.397597941040841 -15.44516771587107 67.73721324314702
-6.397597941040884 15.44516771587098 67.73721324314702
6.196778475612992 -15.66539099638782 67.73721324314702
6.196778475612969 15.6653909963878 67.73721324314702
15.47609344592867 6.507843130671295 67.73721324314702
15.47609344592867 -6.507843130671295 67.73721324314702
22.85386036195738 -4.857737979424502 71.89378368070506
-7.220005685868794 -22.2208926377095 71.89378368070506
11.68221459870284 -20.23418922987635 71.8570755368082
2.44224787913057 -23.23643640960189 71.8570755368082
18.90222028457148 -13.73326691046686 71.85707553680818
2.442247879130766 23.23643640960186 71.85707553680818
11.68221459870294 20.23418922987629 71.85707553680818
-21.34446816370232 -9.503169499134899 71.85707553680818
22.85386036195739 4.857737979424462 71.85707553680818
-15.63385467608892 -17.36315465828495 71.89378368070506
18.9029013422822 13.73232946606423 71.87542960875662
-7.220005685868557 22.22089263770958 71.89378368070504
-23.36442919740583 1.584996808561561e-13 71.85707553680818
-15.6338546760887 17.36315465828515 71.8570755368082
-21.3444681637022 9.503169499135177 71.8570755368082
4.704541149691354 11.35776704832725 63.46419855244947
11.35776704832723 4.704541149691383 63.35235735427701
-11.35776704832723 -4.704541149691395 63.46419855244946
-4.704541149691409 11.35776704832722 63.35235735427701
11.35776704832723 -4.704541149691384 63.46419855244945
-4.704541149691363 -11.35776704832724 63.46419855244946
4.70149630101319 -11.3590277878332 63.40827795336324
-11.35776704832724 4.704541149691362 63.46419855244946
-15.68562441712259 -6.820965861501236 76.01364597436621
-15.68562441712254 6.820965861501357 76.01364597436621
-6.397597941040841 -15.44516771587107 76.01364597436621
-6.397597941040882 15.44516771587098 76.01364597436621
6.196778475612992 -15.66539099638782 76.01364597436621
6.196778475612969 15.6653909963878 76.01364597436621
15.47609344592867 6.507843130671295 76.01364597436621
15.47609344592867 -6.507843130671298 76.01364597436621
-15.68562441712259 -6.820965861501235 59.07934266357945
-15.68562441712254 6.820965861501357 59.07934266357945
-6.397597941040841 -15.44516771587107 59.07934266357945
-6.397597941040882 15.44516771587098 59.07934266357945
6.196778475612991 -15.66539099638782 59.07934266357945
6.19677847561297 15.6653909963878 59.07934266357945
15.47609344592867 6.507843130671295 59.07934266357945
15.47609344592867 -6.507843130671294 59.07934266357945
4.704541149691357 11.35776704832724 80.28666066506378
-11.35776704832723 -4.704541149691395 80.28666066506376
11.34564785069442 4.73369354745746 80.34258126415
-4.701496301013163 11.35902778783321 80.34258126415
-4.707585660293384 -11.35650549263318 80.34258126415
11.35776704832724 -4.704541149691375 80.39850186323622
4.70149630101319 -11.3590277878332 80.34258126415
-11.35776704832724 4.704541149691362 80.28666066506378
22.85386036195738 -4.857737979424502 54.95948036991829
-7.220005685868755 -22.22089263770951 54.9594803699183
11.68221459870282 -20.23418922987636 54.92277222602143
2.441095499607984 -23.23655750067947 54.94112629796986
18.90153918037052 -13.73420432109222 54.94112629796986
2.442247879130761 23.23643640960186 54.95948036991828
11.68221459870294 20.23418922987629 54.92277222602143
-21.34446816370232 -9.503169499134899 54.9594803699183
22.85386036195739 4.857737979424463 54.92277222602143
-15.63385467608891 -17.36315465828496 54.95948036991829
18.90222028457154 13.73326691046679 54.95948036991829
-7.220005685868562 22.22089263770958 54.95948036991829
-23.36442919740583 1.584996808561561e-13 54.95948036991829
-15.63299355702056 17.3639299747132 54.94112629796986
-21.34399684189027 9.504228034615341 54.94112629796986
-3.304088289789294 1.368598180908841 84.67151655393378
4.465975573014885 -1.849867651569718 84.67151655393378
-2.237913473120795 -5.545376786558236 84.67151655393378
2.338729737457322 5.503617322562254 84.67151655393378
-15.68562441712259 -6.820965861501236 50.80290993236027
-15.68562441712254 6.820965861501358 50.80290993236027
-6.397597941040841 -15.44516771587107 50.80290993236027
-6.397597941040884 15.44516771587098 50.80290993236027
6.196778475612992 -15.66539099638782 50.80290993236027
6.196778475612969 15.6653909963878 50.80290993236027
15.47609344592867 6.507843130671295 50.80290993236027
15.47609344592867 -6.507843130671295 50.80290993236027
4.704541149691354 11.35776704832725 46.52989524166271
-11.35776704832723 -4.704541149691395 46.52989524166271
-4.704541149691404 11.35776704832722 46.52989524166271
11.35776704832724 -4.704541149691375 46.41805404349026
11.35776704832723 4.704541149691382 46.52989524166271
-4.707585660293384 -11.35650549263318 46.47397464257648
4.701496301013179 -11.3590277878332 46.47397464257648
-11.35776704832724 4.704541149691358 46.41805404349026
-15.68562441712259 -6.820965861501235 42.1450393527927
-15.68562441712254 6.820965861501357 42.1450393527927
-6.397597941040841 -15.44516771587107 42.1450393527927
-6.397597941040882 15.44516771587098 42.1450393527927
6.196778475612991 -15.66539099638782 42.1450393527927
6.19677847561297 15.6653909963878 42.1450393527927
15.47609344592867 6.507843130671295 42.1450393527927
15.47609344592867 -6.507843130671294 42.1450393527927
22.85386036195738 -4.857737979424502 38.02517705913154
-7.220005685868755 -22.22089263770951 38.02517705913154
11.68221459870282 -20.23418922987636 37.98846891523468
2.44224787913059 -23.23643640960188 38.02517705913154
18.90153918037052 -13.73420432109222 38.00682298718311
2.442247879130766 23.23643640960186 37.98846891523467
-15.63385467608891 -17.36315465828496 38.02517705913154
11.68221459870294 20.23418922987629 37.98846891523468
-21.34446816370232 -9.503169499134899 38.02517705913154
22.85198992354881 4.866529384953251 38.00682298718311
18.90222028457154 13.73326691046679 38.02517705913154
-7.218903664854091 22.22125067583159 38.00682298718311
-21.3444681637022 9.503169499135177 38.02517705913154
-23.36442916867323 0.001158724131399385 38.00682298718311
-15.6338546760887 17.36315465828515 38.02517705913154
-15.68562441712259 -6.820965861501236 33.86860662157351
-15.68562441712254 6.820965861501358 33.86860662157351
-6.397597941040841 -15.44516771587107 33.86860662157351
-6.397597941040884 15.44516771587098 33.86860662157351
6.196778475612992 -15.66539099638782 33.86860662157351
6.196778475612969 15.6653909963878 33.86860662157351
15.47609344592867 6.507843130671293 33.86860662157351
15.47609344592867 -6.507843130671294 33.86860662157351
4.704541149691357 11.35776704832724 29.59559193087595
11.35776704832723 4.704541149691384 29.4837507327035
-11.35776704832723 -4.704541149691395 29.59559193087595
-4.704541149691409 11.35776704832722 29.59559193087595
11.35776704832723 -4.704541149691384 29.48375073270351
4.70454114969139 -11.35776704832723 29.59559193087594
-4.707585660293394 -11.35650549263317 29.53967133178973
-11.35650549263317 4.707585660293404 29.53967133178973
-15.68562441712259 -6.820965861501235 25.21073604200594
-15.68562441712254 6.820965861501357 25.21073604200594
-6.397597941040841 -15.44516771587107 25.21073604200594
-6.397597941040882 15.44516771587098 25.21073604200594
6.196778475612991 -15.66539099638782 25.21073604200594
6.19677847561297 15.6653909963878 25.21073604200594
15.47609344592867 6.507843130671295 25.21073604200594
15.47609344592867 -6.507843130671298 25.21073604200594
22.85386036195738 -4.857737979424502 21.09087374834478
-7.220005685868755 -22.22089263770951 21.09087374834478
11.68221459870282 -20.23418922987636 21.09087374834478
2.44224787913059 -23.23643640960188 21.09087374834478
18.90222028457148 -13.73326691046686 21.09087374834479
11.68221459870294 20.23418922987629 21.05416560444792
2.442247879130761 23.23643640960186 21.09087374834478
-21.34446816370232 -9.503169499134899 21.05416560444792
18.90222028457154 13.73326691046679 21.05416560444792
22.85198992354881 4.866529384953251 21.07251967639635
-15.63471575670533 -17.36237929915194 21.07251967639635
-7.220005685868557 22.22089263770958 21.05416560444792
-21.3444681637022 9.503169499135177 21.09087374834478
-23.36442919740583 1.584996808561561e-13 21.09087374834479
-15.6338546760887 17.36315465828515 21.09087374834478
-15.68562441712259 -6.820965861501236 16.93430331078676
-15.68562441712254 6.820965861501358 16.93430331078676
-6.397597941040841 -15.44516771587107 16.93430331078676
-6.397597941040884 15.44516771587098 16.93430331078676
6.196778475612992 -15.66539099638782 16.93430331078676
6.196778475612969 15.6653909963878 16.93430331078676
15.47609344592867 6.507843130671295 16.93430331078676
15.47609344592867 -6.507843130671295 16.93430331078676
11.35776704832723 4.704541149691382 12.54944742191675
4.707585660293426 11.35650549263316 12.60536802100297
-11.35776704832723 -4.704541149691395 12.6612886200892
-4.704541149691404 11.35776704832722 12.54944742191675
11.35776704832723 -4.704541149691384 12.66128862008919
-4.707585660293384 -11.35650549263318 12.60536802100297
4.70454114969139 -11.35776704832723 12.66128862008919
-11.35776704832725 4.704541149691353 12.6612886200892
-15.68562441712259 -6.820965861501235 8.276432731219188
-15.68562441712254 6.820965861501357 8.276432731219188
-6.397597941040841 -15.44516771587107 8.276432731219188
-6.397597941040882 15.44516771587098 8.276432731219188
6.196778475612991 -15.66539099638782 8.276432731219188
6.19677847561297 15.6653909963878 8.276432731219188
15.47609344592867 6.507843130671295 8.276432731219188
15.47609344592867 -6.507843130671294 8.276432731219188
22.85386036195738 -4.857737979424502 4.156570437558025
-7.220005685868775 -22.2208926377095 4.119862293661156
11.68221459870282 -20.23418922987636 4.119862293661165
18.9022202845715 -13.73326691046685 4.119862293661157
2.441095499608005 -23.23655750067947 4.138216365609594
2.442247879130761 23.23643640960186 4.119862293661162
11.68221459870294 20.23418922987629 4.119862293661163
-21.34446816370233 -9.50316949913489 4.119862293661164
-15.63385467608891 -17.36315465828497 4.119862293661163
22.85198992354881 4.866529384953251 4.138216365609594
18.90222028457154 13.73326691046679 4.156570437558026
-7.218903664854091 22.22125067583159 4.138216365609593
-15.63299355702056 17.3639299747132 4.138216365609594
-23.36442919740583 1.688755717570298e-13 4.156570437558029
-21.34399684189027 9.504228034615322 4.138216365609594
-14.71913613518859 0.1721294562508766 0
14.12446247783365 3.002247179725559 0
1.509392198255048 -14.36090747855952 0
-5.200316184421753 14.24526042478486 0
-9.662253564999434 -10.73101973074117 0
11.68221459870288 -8.487625727242776 0
7.220005685868639 12.50541667886062 0
17.62889360941115 -3.747137011663082 0
4.195257992656129 -1.323184884046303 0
-5.205381708548095 -16.02051758911127 0
-2.005045183567918 -8.036360970708259 0
8.729397884123676 -15.11976065478662 0
1.593738965195019 16.23978694583404 0
0.7088432638627823 6.74419315331117 0
-9.063412892099826 6.43371690788994 0
-11.87022636083874 12.18742802927915 0
14.12446247783366 10.26202267536211 0
-15.31018681332722 -6.601453077988904 0
-7.345223287925992 -1.458911481880341 0
7.596910152157427 5.519478306978038 0
4.728232506534449 -8.479313295645184 0
-15.80535938813512 7.129073243645599 0
3.689377159332707e-08 0.0001376271944524277 46.46239621154736
-4.440892098500626e-15 1.77635683940025e-15 29.56763163133193
-7.529099680958495e-05 -0.0001817685456222407 12.59007602455495
1.77635683940025e-15 0 63.40827795336335
1.016110043480158 0.8099498939468485 74.44641348151237
3.910355973303545 1.619722477848974 21.07881914400153
3.921463211391041 -1.624323246505319 54.93532389837631
3.938244913408223 -1.63127445508054 38.01502720199763

CELLS 2573 11163
1 0
1 1
1 2
1 3
1 4
1 5
1 6
1 7
1 8
1 9
1 10
1 11
1 12
1 13
1 14
1 15
1 16
1 17
1 18
1 19
1 20
1 21
1 22
1 23
1 24
1 25
1 26
1 27
1 28
1 29
1 30
1 31
1 32
1 33
1 34
1 35
1 36
1 37
1 38
1 39
2 0 40
2 40 41
2 41 1
2 1 2
2 2 42
2 42 43
2 43 3
2 3 0
2 4 44
2 44 5
2 5 6
2 6 45
2 45 7
2 7 4
2 8 46
2 46 47
2 47 9
2 9 10
2 10 48
2 48 49
2 49 11
2 11 8
2 12 50
2 50 13
2 13 14
2 14 51
2 51 15
2 15 12
2 16 52
2 52 53
2 53 17
2 17 18
2 18 54
2 54 55
2 55 19
2 19 16
2 20 56
2 56 21
2 21 22
2 22 57
2 57 23
2 23 20
2 24 58
2 58 59
2 59 25
2 25 26
2 26 60
2 60 61
2 61 27
2 27 24
2 28 62
2 62 29
2 29 30
2 30 63
2 63 31
2 31 28
2 32 64
2 64 65
2 65 33
2 33 34
2 34 66
2 66 67
2 67 35
2 35 32
2 36 68
2 68 37
2 37 38
2 38 69
2 69 39
2 39 36
2 33 70
2 70 71
2 71 72
2 72 73
2 73 74
2 74 75
2 75 76
2 76 77
2 77 78
2 78 79
2 79 80
2 80 81
2 81 82
2 82 83
2 83 33
2 30 84
2 84 85
2 85 86
2 86 87
2 87 88
2 88 89
2 89 90
2 90 30
2 34 91
2 91 92
2 92 93
2 93 94
2 94 95
2 95 96
2 96 97
2 97 98
2 98 99
2 99 100
2 100 101
2 101 102
2 102 103
2 103 104
2 104 34
2 29 105
2 105 106
2 106 107
2 107 108
2 108 109
2 109 110
2 110 111
2 111 29
2 37 112
2 112 113
2 113 114
2 114 115
2 115 116
2 116 117
2 117 118
2 118 37
2 26 119
2 119 120
2 120 121
2 121 122
2 122 123
2 123 124
2 124 125
2 125 126
2 126 127
2 127 128
2 128 129
2 129 130
2 130 131
2 131 132
2 132 26
2 38 133
2 133 134
2 134 135
2 135 136
2 136 137
2 137 138
2 138 139
2 139 38
2 25 140
2 140 141
2 141 142
2 142 143
2 143 144
2 144 145
2 145 146
2 146 147
2 147 148
2 148 149
2 149 150
2 150 151
2 151 152
2 152 153
2 153 25
2 22 154
2 154 155
2 155 156
2 156 157
2 157 158
2 158 159
2 159 160
2 160 22
2 21 161
2 161 162
2 162 163
2 163 164
2 164 165
2 165 166
2 166 167
2 167 21
2 18 168
2 168 169
2 169 170
2 170 171
2 171 172
2 172 173
2 173 174
2 174 175
2 175 176
2 176 177
2 177 178
2 178 179
2 179 180
2 180 181
2 181 18
2 17 182
2 182 183
2 183 184
2 184 185
2 185 186
2 186 187
2 187 188
2 188 189
2 189 190
2 190 191
2 191 192
2 192 193
2 193 194
2 194 195
2 195 17
2 14 196
2 196 197
2 197 198
2 198 199
2 199 200
2 200 201
2 201 202
2 202 14
2 13 203
2 203 204
2 204 205
2 205 206
2 206 207
2 207 208
2 208 209
2 209 13
2 10 210
2 210 211
2 211 212
2 212 213
2 213 214
2 214 215
2 215 216
2 216 217
2 217 218
2 218 219
2 219 220
2 220 221
2 221 222
2 222 223
2 223 10
2 9 224
2 224 225
2 225 226
2 226 227
2 227 228
2 228 229
2 229 230
2 230 231
2 231 232
2 232 233
2 233 234
2 234 235
2 235 236
2 236 237
2 237 9
2 6 238
2 238 239
2 239 240
2 240 241
2 241 242
2 242 243
2 243 244
2 244 6
2 5 245
2 245 246
2 246 247
2 247 248
2 248 249
2 249 250
2 250 251
2 251 5
2 2 252
2 252 253
2 253 254
2 254 255
2 255 256
2 256 257
2 257 258
2 258 259
2 259 260
2 260 261
2 261 262
2 262 263
2 263 264
2 264 265
2 265 2
2 1 266
2 266 267
2 267 268
2 268 269
2 269 270
2 270 271
2 271 272
2 272 273
2 273 274
2 274 275
2 275 276
2 276 277
2 277 278
2 278 279
2 279 1
3 0 281 3
3 2 280 1
3 3 281 43
3 1 280 41
3 280 282 41
3 42 282 280
3 40 281 0
3 42 280 2
3 43 282 42
3 41 282 40
3 40 282 281
3 281 282 43
3 5 283 44
3 45 283 6
3 7 284 45
3 44 284 4
3 45 284 283
3 283 284 44
3 4 284 7
3 6 283 5
3 10 286 9
3 8 285 11
3 11 285 49
3 9 286 47
3 286 287 47
3 48 287 286
3 46 285 8
3 48 286 10
3 49 287 48
3 47 287 46
3 46 287 285
3 285 287 49
3 13 288 50
3 15 289 51
3 288 289 50
3 50 289 12
3 51 288 14
3 51 289 288
3 12 289 15
3 14 288 13
3 18 292 17
3 16 290 19
3 17 292 53
3 19 290 55
3 53 292 291
3 291 292 54
3 54 292 18
3 52 290 16
3 52 291 290
3 55 291 54
3 53 291 52
3 290 291 55
3 21 294 56
3 23 293 57
3 293 294 57
3 57 294 22
3 56 294 293
3 56 293 20
3 20 293 23
3 22 294 21
3 26 297 25
3 24 295 27
3 59 297 296
3 296 297 60
3 27 295 61
3 25 297 59
3 60 297 26
3 58 295 24
3 61 296 60
3 59 296 58
3 295 296 61
3 58 296 295
3 298 299 62
3 29 298 62
3 63 298 30
3 31 299 63
3 62 299 28
3 63 299 298
3 28 299 31
3 30 298 29
3 34 302 33
3 32 300 35
3 301 302 66
3 65 302 301
3 33 302 65
3 35 300 67
3 66 302 34
3 64 300 32
3 67 301 66
3 65 301 64
3 300 301 67
3 64 301 300
3 69 304 303
3 37 303 68
3 69 303 38
3 39 304 69
3 68 304 36
3 303 304 68
3 36 304 39
3 38 303 37
3 30 311 33
3 33 312 30
3 84 311 30
3 30 312 90
3 33 311 70
3 83 312 33
3 70 311 71
3 71 310 72
3 84 310 71
3 71 311 84
3 72 310 73
3 73 308 74
3 85 308 73
3 73 310 85
3 74 308 75
3 75 306 76
3 86 306 75
3 75 308 86
3 87 77 76
3 76 306 87
3 77 305 78
3 87 305 77
3 78 307 79
3 78 305 88
3 88 307 78
3 79 307 80
3 80 309 81
3 80 307 89
3 89 309 80
3 81 309 82
3 82 312 83
3 82 309 90
3 90 312 82
3 85 310 84
3 86 308 85
3 87 306 86
3 88 305 87
3 89 307 88
3 90 309 89
3 34 313 33
3 33 321 34
3 70 321 33
3 33 313 83
3 34 321 91
3 104 313 34
3 71 323 70
3 91 321 70
3 70 323 91
3 72 319 71
3 71 319 92
3 92 323 71
3 73 318 72
3 72 318 93
3 93 319 72
3 74 324 73
3 94 318 73
3 73 324 94
3 75 326 74
3 95 324 74
3 74 326 95
3 76 327 75
3 96 326 75
3 75 327 96
3 77 325 76
3 76 325 97
3 97 327 76
3 78 320 77
3 77 320 98
3 98 325 77
3 79 322 78
3 99 320 78
3 78 322 99
3 80 314 79
3 79 314 100
3 100 322 79
3 81 316 80
3 101 314 80
3 80 316 101
3 82 315 81
3 81 315 102
3 102 316 81
3 83 317 82
3 103 315 82
3 82 317 103
3 83 313 104
3 104 317 83
3 91 323 92
3 92 319 93
3 93 318 94
3 94 324 95
3 95 326 96
3 96 327 97
3 97 325 98
3 98 320 99
3 99 322 100
3 100 314 101
3 101 316 102
3 102 315 103
3 103 317 104
3 29 329 30
3 30 332 29
3 105 329 29
3 29 332 111
3 30 329 84
3 90 332 30
3 84 328 85
3 105 328 84
3 84 329 105
3 85 331 86
3 85 328 106
3 106 331 85
3 86 335 87
3 86 331 107
3 107 335 86
3 87 330 88
3 108 330 87
3 87 335 108
3 88 333 89
3 88 330 109
3 109 333 88
3 89 334 90
3 89 333 110
3 110 334 89
3 111 332 90
3 90 334 111
3 106 328 105
3 107 331 106
3 108 335 107
3 109 330 108
3 110 333 109
3 111 334 110
3 34 342 37
3 37 343 34
3 91 342 34
3 34 343 104
3 37 342 112
3 118 343 37
3 92 342 91
3 93 341 92
3 92 341 112
3 112 342 92
3 94 341 93
3 95 339 94
3 94 339 113
3 113 341 94
3 96 339 95
3 97 337 96
3 96 337 114
3 114 339 96
3 97 98 115
3 115 337 97
3 99 336 98
3 98 336 115
3 100 338 99
3 116 336 99
3 99 338 116
3 101 338 100
3 102 340 101
3 117 338 101
3 101 340 117
3 103 340 102
3 104 343 103
3 118 340 103
3 103 343 118
3 112 341 113
3 113 339 114
3 114 337 115
3 115 336 116
3 116 338 117
3 117 340 118
3 26 350 29
3 29 351 26
3 119 350 26
3 26 351 132
3 29 350 105
3 111 351 29
3 105 349 106
3 120 349 105
3 105 350 120
3 106 347 107
3 122 347 106
3 106 349 122
3 107 345 108
3 124 345 107
3 107 347 124
3 108 344 109
3 125 126 108
3 108 345 125
3 126 344 108
3 109 346 110
3 109 344 127
3 127 346 109
3 110 348 111
3 110 346 129
3 129 348 110
3 111 348 131
3 131 351 111
3 120 350 119
3 121 349 120
3 122 349 121
3 123 347 122
3 124 347 123
3 125 345 124
3 127 344 126
3 128 346 127
3 129 346 128
3 130 348 129
3 131 348 130
3 132 351 131
3 37 354 38
3 38 357 37
3 112 354 37
3 37 357 118
3 38 354 133
3 139 357 38
3 113 352 112
3 112 352 133
3 133 354 112
3 114 355 113
3 134 352 113
3 113 355 134
3 115 359 114
3 135 355 114
3 114 359 135
3 116 353 115
3 115 353 136
3 136 359 115
3 117 356 116
3 137 353 116
3 116 356 137
3 118 358 117
3 138 356 117
3 117 358 138
3 118 357 139
3 139 358 118
3 133 352 134
3 134 355 135
3 135 359 136
3 136 353 137
3 137 356 138
3 138 358 139
3 26 360 25
3 25 368 26
3 140 368 25
3 25 360 153
3 26 368 119
3 132 360 26
3 119 370 120
3 119 368 140
3 140 370 119
3 120 366 121
3 141 366 120
3 120 370 141
3 121 365 122
3 142 365 121
3 121 366 142
3 122 371 123
3 122 365 143
3 143 371 122
3 123 373 124
3 123 371 144
3 144 373 123
3 124 374 125
3 124 373 145
3 145 374 124
3 125 372 126
3 146 372 125
3 125 374 146
3 126 367 127
3 147 367 126
3 126 372 147
3 127 369 128
3 127 367 148
3 148 369 127
3 128 361 129
3 149 361 128
3 128 369 149
3 129 363 130
3 129 361 150
3 150 363 129
3 130 362 131
3 151 362 130
3 130 363 151
3 131 364 132
3 131 362 152
3 152 364 131
3 153 360 132
3 132 364 153
3 141 370 140
3 142 366 141
3 143 365 142
3 144 371 143
3 145 373 144
3 146 374 145
3 147 372 146
3 148 367 147
3 149 369 148
3 150 361 149
3 151 363 150
3 152 362 151
3 153 364 152
3 133 378 38
3 38 376 139
3 38 378 376
3 134 378 133
3 135 378 134
3 136 375 135
3 375 378 135
3 137 377 136
3 136 377 375
3 138 377 137
3 139 377 138
3 376 377 139
3 375 377 376
3 376 378 375
3 22 385 25
3 25 386 22
3 154 385 22
3 22 386 160
3 25 385 140
3 153 386 25
3 140 385 141
3 141 384 142
3 154 384 141
3 141 385 154
3 142 384 143
3 143 382 144
3 155 382 143
3 143 384 155
3 144 382 145
3 145 380 146
3 156 380 145
3 145 382 156
3 157 147 146
3 146 380 157
3 147 379 148
3 157 379 147
3 148 381 149
3 148 379 158
3 158 381 148
3 149 381 150
3 150 383 151
3 150 381 159
3 159 383 150
3 151 383 152
3 152 386 153
3 152 383 160
3 160 386 152
3 155 384 154
3 156 382 155
3 157 380 156
3 158 379 157
3 159 381 158
3 160 383 159
3 22 390 21
3 21 391 22
3 161 391 21
3 21 390 167
3 22 391 154
3 160 390 22
3 154 387 155
3 161 387 154
3 154 391 161
3 155 389 156
3 155 387 162
3 162 389 155
3 156 394 157
3 156 389 163
3 163 394 156
3 157 388 158
3 164 388 157
3 157 394 164
3 158 392 159
3 158 388 165
3 165 392 158
3 159 393 160
3 159 392 166
3 166 393 159
3 167 390 160
3 160 393 167
3 162 387 161
3 163 389 162
3 164 394 163
3 165 388 164
3 166 392 165
3 167 393 166
3 18 401 21
3 21 402 18
3 168 401 18
3 18 402 181
3 21 401 161
3 167 402 21
3 161 400 162
3 169 400 161
3 161 401 169
3 162 398 163
3 171 398 162
3 162 400 171
3 163 396 164
3 173 396 163
3 163 398 173
3 164 395 165
3 174 175 164
3 164 396 174
3 175 395 164
3 165 397 166
3 165 395 176
3 176 397 165
3 166 399 167
3 166 397 178
3 178 399 166
3 167 399 180
3 180 402 167
3 169 401 168
3 170 400 169
3 171 400 170
3 172 398 171
3 173 398 172
3 174 396 173
3 176 395 175
3 177 397 176
3 178 397 177
3 179 399 178
3 180 399 179
3 181 402 180
3 18 403 17
3 17 412 18
3 182 412 17
3 17 403 195
3 18 412 168
3 181 403 18
3 168 413 169
3 168 412 182
3 182 413 168
3 169 410 170
3 183 410 169
3 169 413 183
3 170 408 171
3 184 408 170
3 170 410 184
3 171 414 172
3 171 408 185
3 185 414 171
3 172 417 173
3 172 414 186
3 186 417 172
3 173 415 174
3 187 415 173
3 173 417 187
3 174 416 175
3 174 415 188
3 188 416 174
3 175 411 176
3 189 411 175
3 175 416 189
3 176 409 177
3 190 409 176
3 176 411 190
3 177 404 178
3 191 404 177
3 177 409 191
3 178 406 179
3 178 404 192
3 192 406 178
3 179 405 180
3 193 405 179
3 179 406 193
3 180 407 181
3 180 405 194
3 194 407 180
3 195 403 181
3 181 407 195
3 183 413 182
3 184 410 183
3 185 408 184
3 186 414 185
3 187 417 186
3 188 415 187
3 189 416 188
3 190 411 189
3 191 409 190
3 192 404 191
3 193 406 192
3 194 405 193
3 195 407 194
3 14 424 17
3 17 425 14
3 196 424 14
3 14 425 202
3 17 424 182
3 195 425 17
3 182 424 183
3 183 423 184
3 196 423 183
3 183 424 196
3 184 423 185
3 185 421 186
3 197 421 185
3 185 423 197
3 186 421 187
3 187 419 188
3 198 419 187
3 187 421 198
3 199 189 188
3 188 419 199
3 189 418 190
3 199 418 189
3 190 420 191
3 190 418 200
3 200 420 190
3 191 420 192
3 192 422 193
3 192 420 201
3 201 422 192
3 193 422 194
3 194 425 195
3 194 422 202
3 202 425 194
3 197 423 196
3 198 421 197
3 199 419 198
3 200 418 199
3 201 420 200
3 202 422 201
3 13 427 14
3 14 430 13
3 203 427 13
3 13 430 209
3 14 427 196
3 202 430 14
3 196 426 197
3 203 426 196
3 196 427 203
3 197 429 198
3 197 426 204
3 204 429 197
3 198 433 199
3 198 429 205
3 205 433 198
3 199 428 200
3 206 428 199
3 199 433 206
3 200 432 201
3 200 428 207
3 207 432 200
3 201 431 202
3 208 431 201
3 201 432 208
3 209 430 202
3 202 431 209
3 204 426 203
3 205 429 204
3 206 433 205
3 207 428 206
3 208 432 207
3 209 431 208
3 10 440 13
3 13 441 10
3 210 440 10
3 10 441 223
3 13 440 203
3 209 441 13
3 203 439 204
3 211 439 203
3 203 440 211
3 204 437 205
3 213 437 204
3 204 439 213
3 205 435 206
3 215 435 205
3 205 437 215
3 206 434 207
3 216 217 206
3 206 435 216
3 217 434 206
3 207 436 208
3 207 434 218
3 218 436 207
3 208 438 209
3 208 436 220
3 220 438 208
3 209 438 222
3 222 441 209
3 211 440 210
3 212 439 211
3 213 439 212
3 214 437 213
3 215 437 214
3 216 435 215
3 218 434 217
3 219 436 218
3 220 436 219
3 221 438 220
3 222 438 221
3 223 441 222
3 10 442 9
3 9 451 10
3 224 451 9
3 9 442 237
3 10 451 210
3 223 442 10
3 210 450 211
3 224 450 210
3 210 451 224
3 211 447 212
3 225 447 211
3 211 450 225
3 212 448 213
3 212 447 226
3 226 448 212
3 213 453 214
3 213 448 227
3 227 453 213
3 214 456 215
3 214 453 228
3 228 456 214
3 215 454 216
3 229 454 215
3 215 456 229
3 216 455 217
3 216 454 230
3 230 455 216
3 217 449 218
3 231 449 217
3 217 455 231
3 218 452 219
3 218 449 232
3 232 452 218
3 219 443 220
3 233 443 219
3 219 452 233
3 220 445 221
3 220 443 234
3 234 445 220
3 221 444 222
3 235 444 221
3 221 445 235
3 222 446 223
3 222 444 236
3 236 446 222
3 237 442 223
3 223 446 237
3 225 450 224
3 226 447 225
3 227 448 226
3 228 453 227
3 229 456 228
3 230 454 229
3 231 455 230
3 232 449 231
3 233 452 232
3 234 443 233
3 235 445 234
3 236 444 235
3 237 446 236
3 6 463 9
3 9 464 6
3 238 463 6
3 6 464 244
3 9 463 224
3 237 464 9
3 224 463 225
3 225 462 226
3 238 462 225
3 225 463 238
3 226 462 227
3 227 460 228
3 239 460 227
3 227 462 239
3 228 460 229
3 229 458 230
3 240 458 229
3 229 460 240
3 241 231 230
3 230 458 241
3 231 457 232
3 241 457 231
3 232 459 233
3 232 457 242
3 242 459 232
3 233 459 234
3 234 461 235
3 234 459 243
3 243 461 234
3 235 461 236
3 236 464 237
3 236 461 244
3 244 464 236
3 239 462 238
3 240 460 239
3 241 458 240
3 242 457 241
3 243 459 242
3 244 461 243
3 5 465 6
3 6 469 5
3 245 465 5
3 5 469 251
3 6 465 238
3 244 469 6
3 238 466 239
3 238 465 245
3 245 466 238
3 239 468 240
3 239 466 246
3 246 468 239
3 240 472 241
3 240 468 247
3 247 472 240
3 241 467 242
3 248 467 241
3 241 472 248
3 242 470 243
3 242 467 249
3 249 470 242
3 243 471 244
3 243 470 250
3 250 471 243
3 251 469 244
3 244 471 251
3 246 466 245
3 247 468 246
3 248 472 247
3 249 467 248
3 250 470 249
3 251 471 250
3 2 479 5
3 5 480 2
3 252 479 2
3 2 480 265
3 5 479 245
3 251 480 5
3 245 478 246
3 253 478 245
3 245 479 253
3 246 476 247
3 255 476 246
3 246 478 255
3 247 474 248
3 257 474 247
3 247 476 257
3 248 473 249
3 258 259 248
3 248 474 258
3 259 473 248
3 249 475 250
3 249 473 260
3 260 475 249
3 250 477 251
3 250 475 262
3 262 477 250
3 251 477 264
3 264 480 251
3 253 479 252
3 254 478 253
3 255 478 254
3 256 476 255
3 257 476 256
3 258 474 257
3 260 473 259
3 261 475 260
3 262 475 261
3 263 477 262
3 264 477 263
3 265 480 264
3 2 481 1
3 1 490 2
3 266 490 1
3 1 481 279
3 2 490 252
3 265 481 2
3 252 491 253
3 252 490 266
3 266 491 252
3 253 487 254
3 267 487 253
3 253 491 267
3 254 486 255
3 268 486 254
3 254 487 268
3 255 492 256
3 255 486 269
3 269 492 255
3 256 493 257
3 256 492 270
3 270 493 256
3 257 495 258
3 257 493 271
3 271 495 257
3 258 494 259
3 272 494 258
3 258 495 272
3 259 488 260
3 273 488 259
3 259 494 273
3 260 489 261
3 260 488 274
3 274 489 260
3 261 482 262
3 275 482 261
3 261 489 275
3 262 485 263
3 262 482 276
3 276 485 262
3 263 483 264
3 277 483 263
3 263 485 277
3 264 484 265
3 264 483 278
3 278 484 264
3 279 481 265
3 265 484 279
3 267 491 266
3 268 487 267
3 269 486 268
3 270 492 269
3 271 493 270
3 272 495 271
3 273 494 272
3 274 488 273
3 275 489 274
3 276 482 275
3 277 485 276
3 278 483 277
3 279 484 278
3 1 497 266
3 279 503 1
3 1 503 497
3 266 512 267
3 497 512 266
3 267 502 268
3 267 512 502
3 268 508 269
3 502 508 268
3 269 499 270
3 269 508 499
3 270 511 271
3 499 511 270
3 271 517 272
3 511 517 271
3 272 496 273
3 272 517 496
3 273 513 274
3 496 513 273
3 274 500 275
3 274 513 500
3 275 505 276
3 500 505 275
3 276 498 277
3 276 505 498
3 277 507 278
3 498 507 277
3 278 501 279
3 278 507 501
3 501 503 279
3 510 514 496
3 496 517 510
3 496 514 513
3 497 503 501
3 501 504 497
3 504 515 497
3 497 515 512
3 505 506 498
3 506 516 498
3 498 516 507
3 508 509 499
3 509 510 499
3 510 511 499
3 500 506 505
3 500 514 506
3 513 514 500
3 501 516 504
3 507 516 501
3 502 509 508
3 502 515 509
3 512 515 502
3 506 514 504
3 504 516 506
3 504 514 509
3 509 515 504
3 509 514 510
3 510 517 511
4 199 519 198 525
4 163 518 164 525
4 242 520 241 523
4 206 519 207 523
4 157 518 156 524
4 107 521 108 524
4 198 519 197 525
4 162 518 163 525
4 208 207 519 523
4 243 520 242 523
4 156 518 155 524
4 106 521 107 524
4 200 519 199 525
4 164 518 165 525
4 205 519 206 523
4 241 520 240 523
4 158 518 157 524
4 108 521 109 524
4 89 521 88 522
4 196 519 427 525
4 209 519 430 523
4 469 520 244 523
4 391 518 161 525
4 239 520 466 523
4 426 519 204 523
4 154 518 391 524
4 329 521 105 524
4 393 518 159 524
4 166 518 393 525
4 110 521 334 524
4 201 431 519 525
4 88 521 87 522
4 353 375 377 522
4 199 198 163 525
4 242 206 207 523
4 156 107 108 524
4 14 427 519 525
4 90 521 89 522
4 426 203 519 523
4 238 466 520 523
4 391 21 518 525
4 163 164 199 525
4 6 520 469 523
4 160 518 393 524
4 334 521 111 524
4 430 519 13 523
4 393 518 167 525
4 206 242 241 523
4 108 157 156 524
4 202 519 431 525
4 375 353 115 522
4 22 391 518 524
4 29 521 329 524
4 376 358 377 522
4 87 521 86 522
4 118 358 376 522
4 162 198 197 525
4 208 243 242 523
4 156 155 106 524
4 198 162 163 525
4 208 242 207 523
4 156 106 107 524
4 30 521 90 522
4 86 521 85 522
4 465 520 6 523
4 13 519 427 523
4 200 164 165 525
4 14 519 430 525
4 465 238 520 523
4 22 518 390 524
4 375 115 359 522
4 241 240 205 523
4 158 157 109 524
4 427 519 203 523
4 197 519 196 525
4 332 521 29 524
4 209 208 519 523
4 430 519 202 525
4 244 520 243 523
4 390 518 160 524
4 161 518 162 525
4 21 390 518 525
4 332 111 521 524
4 155 518 154 524
4 105 521 106 524
4 167 518 390 525
4 504 506 250 520
4 200 199 164 525
4 205 206 241 523
4 108 109 157 524
4 114 375 359 522
4 201 519 200 525
4 205 204 519 523
4 240 520 239 523
4 166 165 518 525
4 158 159 518 524
4 109 521 110 524
4 514 249 506 520
4 84 521 30 522
4 85 521 84 522
4 514 506 504 520
4 114 355 375 522
4 249 250 506 520
4 465 245 5 520
4 30 332 90 521
4 469 5 251 520
4 84 329 30 521
4 244 471 243 520
4 353 377 116 522
4 387 154 155 518
4 466 246 245 520
4 196 197 426 519
4 209 208 431 519
4 334 89 90 521
4 84 85 328 521
4 357 118 376 522
4 251 250 471 520
4 162 161 387 518
4 105 328 106 521
4 509 247 514 520
4 107 380 345 373
4 434 242 452 457
4 395 200 409 418
4 379 344 369 109
4 458 240 456 435
4 88 336 305 322
4 396 417 163 419
4 337 326 86 306
4 207 432 208 519
4 470 242 243 520
4 158 159 392 518
4 156 389 155 518
4 468 247 246 520
4 470 250 249 520
4 201 432 200 519
4 429 197 198 519
4 205 204 429 519
4 165 392 166 518
4 107 106 331 521
4 89 333 88 521
4 116 356 117 522
4 468 239 240 520
4 389 163 162 518
4 109 333 110 521
4 331 85 86 521
4 378 375 355 522
4 418 395 164 416
4 199 396 419 416
4 344 372 108 379
4 206 457 434 455
4 87 336 325 305
4 345 108 372 380
4 435 458 241 455
4 337 87 325 306
4 354 37 376 522
4 356 377 117 522
4 116 377 356 522
4 116 115 353 522
4 517 474 494 496
4 206 205 433 519
4 241 472 240 520
4 242 467 241 520
4 158 388 157 518
4 198 199 433 519
4 428 199 200 519
4 428 207 206 519
4 394 164 163 518
4 335 86 87 521
4 87 88 330 521
4 394 156 157 518
4 357 376 37 522
4 472 248 247 520
4 248 467 249 520
4 164 388 165 518
4 108 107 335 521
4 330 109 108 521
4 377 358 117 522
4 504 250 251 520
4 378 354 376 522
4 494 272 474 517
4 504 506 516 250
4 245 504 5 520
4 509 514 504 520
4 247 248 514 520
4 509 504 245 520
4 118 117 358 522
4 117 89 88 522
4 114 359 115 522
4 509 246 247 520
4 88 116 117 522
4 88 87 116 522
4 161 162 196 525
4 509 245 246 520
4 209 244 208 523
4 154 105 106 524
4 162 197 196 525
4 244 243 208 523
4 155 154 106 524
4 115 116 87 522
4 489 500 513 473
4 504 251 5 520
4 166 201 200 525
4 205 239 204 523
4 159 109 110 524
4 118 90 89 522
4 166 200 165 525
4 205 240 239 523
4 158 109 159 524
4 89 117 118 522
4 516 251 504 250
4 249 514 248 520
4 272 495 474 517
4 513 274 489 473
4 494 473 513 496
4 502 487 253 512
4 378 355 113 522
4 87 86 114 522
4 14 196 427 525
4 391 161 21 525
4 115 87 114 522
4 245 509 515 504
4 426 204 203 523
4 238 239 466 523
4 6 469 244 523
4 110 334 111 524
4 29 329 105 524
4 209 430 13 523
4 160 393 159 524
4 166 393 167 525
4 22 154 391 524
4 114 113 355 522
4 201 202 431 525
4 357 37 118 522
4 473 513 273 494
4 262 505 498 485
4 395 418 189 416
4 188 419 396 416
4 344 126 372 379
4 457 217 434 455
4 336 77 325 305
4 345 372 125 380
4 435 230 458 455
4 306 337 97 325
4 380 107 156 373
4 242 434 452 207
4 205 456 240 435
4 114 326 86 337
4 198 163 417 419
4 165 200 409 395
4 158 379 369 109
4 88 336 322 116
4 378 112 354 522
4 30 118 37 522
4 85 113 114 522
4 249 500 489 473
4 118 30 90 522
4 494 272 517 496
4 373 380 345 124
4 434 452 218 457
4 86 85 114 522
4 456 229 458 435
4 396 173 417 419
4 75 326 337 306
4 395 409 190 418
4 369 127 344 379
4 305 336 78 322
4 513 488 274 473
4 515 5 245 504
4 2 497 490 503
4 378 113 352 522
4 473 494 248 496
4 418 164 199 416
4 396 199 164 416
4 157 108 372 379
4 206 241 457 455
4 336 87 325 115
4 206 435 241 455
4 380 108 372 157
4 87 337 325 115
4 501 507 484 264
4 248 494 474 496
4 510 247 514 509
4 378 352 112 522
4 154 120 366 105
4 410 161 196 169
4 366 141 120 154
4 169 196 410 183
4 211 203 447 225
4 225 203 447 238
4 160 111 362 131
4 71 84 92 319
4 112 92 84 319
4 202 167 405 180
4 194 202 405 180
4 152 160 362 131
4 444 244 209 236
4 222 444 209 236
4 90 82 118 315
4 118 82 103 315
4 9 6 10 451
4 14 18 17 412
4 14 21 18 412
4 6 13 10 451
4 22 26 25 368
4 22 29 26 368
4 30 34 33 321
4 34 30 37 321
4 26 29 22 360
4 25 26 22 360
4 10 6 9 442
4 10 13 6 442
4 14 17 18 403
4 18 21 14 403
4 37 30 34 313
4 30 33 34 313
4 180 194 202 407
4 131 152 160 364
4 160 111 131 364
4 202 167 180 407
4 112 84 92 323
4 71 92 84 323
4 413 196 161 169
4 370 120 141 154
4 370 120 154 105
4 169 413 196 183
4 225 450 203 238
4 446 222 209 236
4 446 209 244 236
4 203 211 450 225
4 118 82 90 317
4 118 103 82 317
4 473 513 488 273
4 345 125 374 380
4 305 336 77 320
4 344 367 126 379
4 189 418 395 411
4 217 434 449 457
4 458 230 435 454
4 97 337 306 327
4 415 419 396 188
4 85 84 112 522
4 37 112 30 522
4 84 30 112 522
4 112 113 85 522
4 352 113 112 522
4 374 345 380 124
4 435 229 458 454
4 306 337 75 327
4 419 396 173 415
4 78 336 305 320
4 449 434 218 457
4 190 395 418 411
4 127 367 344 379
4 354 112 37 522
4 517 474 496 510
4 502 267 487 512
4 503 481 2 480
4 264 507 484 278
4 377 375 376 522
4 498 505 276 485
4 500 274 489 513
4 505 275 489 500
4 490 1 2 503
4 267 253 487 512
4 495 474 517 257
4 245 253 491 512
4 273 259 473 494
4 272 258 494 474
4 405 167 202 399
4 461 244 209 444
4 362 383 111 160
4 315 118 90 309
4 423 161 196 410
4 310 112 84 319
4 366 349 154 105
4 203 462 447 238
4 478 487 253 502
4 492 499 269 508
4 498 250 262 485
4 505 262 276 485
4 274 260 489 473
4 401 412 14 424
4 440 451 6 463
4 37 321 311 342
4 22 385 350 368
4 6 464 442 441
4 343 312 37 313
4 351 22 360 386
4 402 14 403 425
4 479 245 491 512
4 423 400 161 410
4 462 203 447 439
4 310 341 112 319
4 366 349 384 154
4 348 362 383 111
4 422 405 202 399
4 438 461 209 444
4 315 340 118 309
4 14 21 412 401
4 6 13 451 440
4 321 30 37 311
4 29 22 350 368
4 30 37 312 313
4 403 21 14 402
4 442 13 6 441
4 22 351 360 29
4 444 461 244 236
4 348 362 111 131
4 399 405 167 180
4 340 118 103 315
4 349 366 120 105
4 92 112 341 319
4 410 400 161 169
4 447 439 203 211
4 362 383 160 152
4 202 405 422 194
4 444 209 438 222
4 90 82 315 309
4 196 423 410 183
4 84 71 310 319
4 141 366 384 154
4 462 225 447 238
4 418 395 200 164
4 457 434 242 206
4 88 336 87 305
4 108 344 379 109
4 380 345 108 107
4 396 163 199 419
4 86 87 337 306
4 240 458 241 435
4 483 507 264 278
4 513 273 494 496
4 492 269 255 508
4 346 110 363 159
4 197 421 162 408
4 339 85 318 113
4 437 239 448 204
4 155 365 347 106
4 208 459 243 445
4 201 166 420 406
4 117 338 89 316
4 378 376 375 522
4 112 342 311 323
4 160 386 351 364
4 402 202 425 407
4 238 450 440 463
4 385 370 154 350
4 401 424 196 413
4 118 317 312 343
4 244 464 441 446
4 253 267 491 512
4 231 457 241 455
4 325 115 98 336
4 147 157 372 379
4 380 372 146 157
4 337 115 97 325
4 230 241 458 455
4 490 497 1 503
4 258 272 495 474
4 199 189 418 416
4 395 175 164 416
4 188 199 419 416
4 174 396 164 416
4 259 473 488 273
4 481 2 1 503
4 206 434 217 455
4 494 259 473 248
4 126 372 108 344
4 77 87 325 305
4 108 372 125 345
4 474 258 494 248
4 455 206 435 216
4 76 87 306 325
4 483 507 477 264
4 484 507 501 278
4 112 311 84 323
4 111 160 351 364
4 402 202 407 167
4 440 203 450 238
4 105 154 370 350
4 401 196 161 413
4 317 90 118 312
4 441 209 244 446
4 482 262 276 505
4 257 474 517 511
4 488 260 274 473
4 492 476 499 508
4 5 2 497 490
4 253 478 502 512
4 484 251 501 264
4 245 502 478 512
4 209 13 6 523
4 196 14 21 525
4 154 22 29 524
4 255 486 246 508
4 6 244 209 523
4 161 196 21 525
4 29 105 154 524
4 247 517 474 511
4 255 269 486 508
4 203 239 238 523
4 166 167 202 525
4 111 160 159 524
4 417 187 198 419
4 458 240 229 456
4 114 96 326 337
4 200 190 409 418
4 249 489 260 473
4 305 78 88 322
4 369 148 379 158
4 373 345 107 124
4 145 380 156 373
4 242 232 452 457
4 207 452 218 434
4 326 75 86 306
4 163 173 417 396
4 215 456 205 435
4 165 409 176 395
4 127 369 344 109
4 322 336 99 116
4 204 239 203 523
4 202 201 166 525
4 159 110 111 524
4 175 395 189 416
4 188 396 174 416
4 126 147 372 379
4 457 231 217 455
4 77 336 325 98
4 455 435 230 216
4 372 146 125 380
4 97 76 306 325
4 412 17 14 424
4 2 5 479 490
4 451 9 6 463
4 412 21 18 401
4 451 13 10 440
4 321 37 34 342
4 350 26 29 368
4 33 30 312 313
4 464 9 6 442
4 403 14 17 425
4 386 25 22 360
4 346 129 150 363
4 460 227 213 448
4 347 143 122 365
4 308 73 94 318
4 185 171 398 408
4 178 192 420 406
4 220 234 459 445
4 338 101 80 316
4 385 22 25 368
4 351 29 26 360
4 33 30 321 311
4 37 34 343 313
4 10 13 442 441
4 18 21 403 402
4 465 6 238 523
4 271 495 517 257
4 262 505 250 498
4 332 29 111 524
4 489 475 505 500
4 363 381 346 159
4 85 339 318 308
4 365 347 382 155
4 162 421 398 408
4 239 437 448 460
4 397 420 166 406
4 459 208 436 445
4 338 307 89 316
4 14 430 202 525
4 113 339 94 318
4 365 382 143 155
4 162 398 171 408
4 460 227 448 239
4 201 420 192 406
4 243 459 234 445
4 101 338 117 316
4 363 150 381 159
4 129 346 110 363
4 22 390 160 524
4 185 421 197 408
4 308 85 73 318
4 365 122 347 106
4 213 204 437 448
4 166 178 397 406
4 220 436 208 445
4 307 80 89 316
4 475 275 489 505
4 13 427 203 523
4 479 5 497 490
4 110 348 363 159
4 106 155 365 349
4 113 341 85 318
4 197 162 423 408
4 448 439 204 239
4 461 208 243 445
4 201 166 406 422
4 340 117 89 316
4 277 498 276 485
4 487 268 267 502
4 275 274 489 500
4 21 167 390 525
4 2 5 497 503
4 493 270 476 511
4 383 363 348 159
4 85 341 310 318
4 349 155 365 384
4 400 423 162 408
4 448 439 239 462
4 422 166 406 399
4 461 208 445 438
4 316 89 340 309
4 478 253 245 512
4 507 501 251 264
4 492 255 476 508
4 414 185 171 398
4 460 227 453 213
4 324 73 94 308
4 122 143 347 371
4 192 420 404 178
4 234 443 220 459
4 361 129 150 346
4 314 101 80 338
4 272 494 273 496
4 250 498 477 485
4 346 150 381 363
4 339 308 94 318
4 143 347 382 365
4 421 185 398 408
4 437 460 213 448
4 420 397 178 406
4 436 220 459 445
4 80 307 338 316
4 277 477 498 485
4 493 476 247 511
4 373 145 380 124
4 232 218 452 457
4 96 75 326 337
4 456 215 229 435
4 173 187 417 419
4 127 369 148 379
4 190 176 409 395
4 336 99 78 322
4 146 374 125 380
4 175 189 395 411
4 98 77 336 320
4 231 217 449 457
4 147 126 367 379
4 76 97 306 327
4 216 435 230 454
4 174 415 396 188
4 174 164 175 416
4 188 189 199 416
4 486 246 508 478
4 259 494 258 248
4 77 87 76 325
4 455 217 206 216
4 125 372 108 126
4 241 230 231 455
4 115 98 97 325
4 157 372 146 147
4 413 424 196 183
4 154 141 370 385
4 440 203 211 450
4 446 244 464 236
4 317 118 103 343
4 480 251 484 264
4 311 71 84 323
4 112 92 342 323
4 386 160 152 364
4 131 111 351 364
4 180 167 402 407
4 194 425 202 407
4 370 120 105 350
4 413 161 401 169
4 225 450 238 463
4 245 491 253 479
4 317 82 90 312
4 209 441 222 446
4 247 514 248 510
4 480 503 481 279
4 249 513 473 248
4 436 242 452 207
4 156 347 373 107
4 339 326 86 114
4 163 417 398 198
4 437 456 240 205
4 109 381 369 158
4 338 88 322 116
4 397 200 409 165
4 512 491 479 266
4 480 251 501 484
4 247 510 499 509
4 2 5 503 480
4 232 452 233 459
4 219 452 218 436
4 145 382 144 373
4 256 476 257 493
4 347 123 373 124
4 176 409 397 177
4 99 100 322 338
4 369 127 128 346
4 172 173 417 398
4 215 456 214 437
4 326 75 74 308
4 409 190 420 191
4 369 148 381 149
4 489 260 261 475
4 322 79 78 307
4 460 228 229 456
4 326 95 96 339
4 417 187 186 421
4 496 474 248 510
4 257 517 271 511
4 493 257 271 511
4 499 269 270 492
4 5 497 503 501
4 247 474 517 510
4 6 13 203 523
4 398 414 185 421
4 94 324 308 339
4 453 460 213 437
4 382 347 143 371
4 420 397 404 178
4 443 436 220 459
4 361 150 381 346
4 80 307 314 338
4 22 111 29 524
4 6 203 238 523
4 14 202 21 525
4 111 22 160 524
4 202 167 21 525
4 477 498 516 507
4 268 487 478 502
4 507 251 477 264
4 479 515 245 512
4 377 376 139 358
4 489 475 500 249
4 262 482 475 505
4 354 376 38 378
4 477 507 483 277
4 517 247 510 511
4 506 505 475 500
4 107 108 380 156
4 434 207 242 206
4 205 240 241 435
4 163 198 199 419
4 114 87 337 86
4 165 200 395 164
4 336 88 87 116
4 157 109 379 158
4 145 374 380 124
4 96 75 337 327
4 435 215 229 454
4 173 187 419 415
4 367 127 148 379
4 218 232 449 457
4 336 78 99 320
4 190 176 395 411
4 507 477 498 277
4 375 136 353 377
4 375 355 135 378
4 200 418 164 199
4 241 457 242 206
4 109 157 379 108
4 87 115 336 116
4 157 380 108 156
4 435 241 205 206
4 87 114 337 115
4 199 164 163 396
4 113 94 341 318
4 246 486 255 478
4 155 143 365 384
4 162 171 400 408
4 239 227 448 462
4 406 192 201 422
4 461 243 234 445
4 340 101 117 316
4 477 262 250 485
4 150 363 383 159
4 129 110 348 363
4 439 204 213 448
4 106 365 122 349
4 197 423 185 408
4 310 73 85 318
4 166 178 406 399
4 316 80 89 309
4 208 220 445 438
4 484 501 279 278
4 266 497 1 490
4 268 486 508 478
4 242 436 452 459
4 347 156 373 382
4 246 247 499 509
4 308 326 86 339
4 421 398 417 198
4 240 460 456 437
4 381 109 369 346
4 200 397 409 420
4 88 322 307 338
4 479 497 515 512
4 501 251 504 516
4 272 495 517 271
4 505 475 262 250
4 378 355 135 134
4 353 136 137 377
4 279 480 501 484
4 477 516 251 507
4 482 275 475 505
4 232 452 459 242
4 436 452 218 207
4 156 382 145 373
4 257 476 247 493
4 373 107 347 124
4 409 176 397 165
4 127 369 109 346
4 338 322 99 116
4 326 86 75 308
4 215 456 437 205
4 398 173 417 163
4 369 148 158 381
4 475 489 260 249
4 420 190 409 200
4 78 88 322 307
4 417 187 421 198
4 240 460 229 456
4 339 96 326 114
4 138 377 139 358
4 38 354 378 133
4 263 262 477 485
4 129 348 130 363
4 150 363 151 383
4 438 220 445 221
4 316 81 80 309
4 179 406 178 399
4 365 121 122 349
4 72 73 310 318
4 448 213 439 212
4 423 185 408 184
4 192 406 193 422
4 235 461 234 445
4 340 102 101 316
4 226 448 227 462
4 143 142 365 384
4 486 254 255 478
4 341 94 93 318
4 171 400 408 170
4 493 271 270 511
4 502 245 509 515
4 266 479 497 490
4 219 452 436 233
4 476 256 270 493
4 347 123 144 373
4 95 308 326 74
4 186 172 417 398
4 456 460 228 214
4 100 79 322 307
4 409 420 177 191
4 128 149 369 346
4 261 275 489 475
4 507 483 277 278
4 1 481 503 279
4 251 504 5 501
4 270 476 499 492
4 480 5 503 501
4 497 5 504 501
4 275 482 276 505
4 267 491 512 266
4 5 515 497 504
4 153 132 351 364
4 195 402 407 181
4 91 70 311 323
4 450 210 440 224
4 491 479 266 252
4 119 350 370 140
4 168 182 424 413
4 441 237 223 446
4 104 83 317 343
4 480 279 265 484
4 222 441 223 446
4 317 83 82 312
4 479 491 253 252
4 370 120 350 119
4 413 401 168 169
4 225 450 463 224
4 152 153 386 364
4 131 351 132 364
4 180 402 181 407
4 195 425 194 407
4 92 91 342 323
4 311 70 71 323
4 446 464 237 236
4 413 182 424 183
4 484 265 480 264
4 385 141 370 140
4 210 440 211 450
4 317 103 104 343
4 270 499 476 511
4 269 268 486 508
4 248 513 473 496
4 479 266 252 490
4 168 182 412 424
4 210 451 440 224
4 502 245 515 512
4 119 368 350 140
4 91 70 321 311
4 481 480 279 265
4 360 132 351 153
4 403 195 181 402
4 223 442 237 441
4 104 83 343 313
4 500 249 514 513
4 477 277 263 485
4 151 363 130 383
4 486 268 254 478
4 365 142 121 349
4 439 448 212 226
4 341 93 72 318
4 184 408 400 170
4 406 179 193 422
4 340 81 102 316
4 445 235 438 221
4 250 505 506 498
4 500 249 513 473
4 279 480 503 501
4 475 505 506 250
4 414 172 186 398
4 270 256 476 492
4 123 371 347 144
4 453 228 460 214
4 95 74 324 308
4 482 275 261 475
4 307 100 79 314
4 436 443 219 233
4 128 361 149 346
4 420 177 191 404
4 238 440 6 463
4 37 311 112 342
4 385 154 22 350
4 424 14 401 196
4 312 37 118 343
4 22 160 386 351
4 14 402 202 425
4 441 6 464 244
4 247 248 474 510
4 513 249 514 248
4 14 21 401 196
4 29 22 154 350
4 311 37 112 30
4 203 6 440 13
4 22 111 351 29
4 402 14 202 21
4 441 13 6 209
4 30 37 118 312
4 29 154 105 350
4 6 203 440 238
4 311 84 30 112
4 196 21 401 161
4 111 22 351 160
4 21 202 402 167
4 6 441 209 244
4 118 90 30 312
4 274 488 513 273
4 447 439 212 226
4 410 184 400 170
4 341 72 93 319
4 366 121 142 349
4 268 487 254 478
4 151 130 362 383
4 405 193 179 422
4 277 483 477 263
4 444 438 235 221
4 340 102 81 315
4 506 500 249 514
4 246 502 245 509
4 500 475 506 249
4 516 250 498 477
4 499 510 247 511
4 516 501 251 507
4 512 479 497 266
4 248 514 513 496
4 478 508 268 502
4 246 476 255 508
4 153 351 386 364
4 402 195 407 425
4 342 91 311 323
4 106 154 349 105
4 462 203 239 238
4 84 85 112 310
4 196 161 423 162
4 111 383 159 160
4 244 208 461 209
4 89 90 118 309
4 167 166 202 399
4 424 401 168 413
4 350 385 370 140
4 463 450 440 224
4 441 464 237 446
4 312 317 83 343
4 341 85 112 113
4 154 106 349 155
4 439 203 204 239
4 162 423 196 197
4 89 340 118 117
4 166 201 202 422
4 208 244 461 243
4 110 348 159 111
4 506 516 250 498
4 401 168 412 424
4 463 440 451 224
4 385 350 368 140
4 311 321 91 342
4 351 386 360 153
4 442 464 237 441
4 402 403 195 425
4 83 312 343 313
4 25 385 368 140
4 321 70 33 311
4 223 10 442 441
4 132 351 26 360
4 343 34 104 313
4 480 481 2 265
4 403 181 18 402
4 463 451 9 224
4 10 210 451 440
4 2 479 252 490
4 17 412 182 424
4 168 412 18 401
4 368 350 26 119
4 34 91 321 342
4 17 195 403 425
4 360 386 25 153
4 464 237 9 442
4 312 83 33 313
4 439 203 239 462
4 161 400 423 162
4 85 341 112 310
4 384 349 155 154
4 340 89 118 309
4 383 111 159 348
4 422 202 166 399
4 209 208 461 438
4 246 508 502 509
4 250 516 251 477
4 359 375 135 136
4 508 246 499 509
4 363 348 130 383
4 365 142 349 384
4 310 341 72 318
4 439 448 226 462
4 400 423 408 184
4 316 340 81 309
4 406 179 422 399
4 445 235 461 438
4 233 452 436 459
4 382 347 144 373
4 398 417 186 421
4 214 456 460 437
4 308 95 326 339
4 409 420 397 177
4 149 381 369 346
4 307 322 100 338
4 249 475 506 250
4 72 341 310 319
4 400 423 184 410
4 349 142 366 384
4 447 439 226 462
4 348 362 130 383
4 438 235 461 444
4 179 405 422 399
4 81 340 315 309
4 198 421 162 197
4 155 347 156 106
4 114 85 339 113
4 205 437 204 239
4 338 89 88 117
4 201 420 166 200
4 110 346 109 159
4 242 208 459 243
4 198 398 163 162
4 339 86 85 114
4 437 240 239 205
4 107 156 347 106
4 88 338 117 116
4 242 436 208 207
4 381 158 109 159
4 397 166 200 165
4 499 476 246 508
4 5 480 251 501
4 496 248 514 510
4 186 414 398 421
4 310 71 72 319
4 226 225 447 462
4 410 423 184 183
4 366 142 141 384
4 362 151 383 152
4 221 444 438 222
4 422 405 193 194
4 315 82 81 309
4 460 453 214 437
4 382 347 371 144
4 308 324 95 339
4 314 307 100 338
4 436 443 233 459
4 420 397 177 404
4 381 149 361 346
4 400 410 170 169
4 120 121 366 349
4 93 92 341 319
4 254 487 253 478
4 447 212 439 211
4 130 362 348 131
4 235 461 444 236
4 179 405 399 180
4 263 483 477 264
4 340 103 102 315
4 502 478 246 245
4 499 247 476 511
4 246 508 478 502
4 357 38 376 139
4 198 421 398 162
4 86 339 85 308
4 240 437 239 460
4 347 155 156 382
4 89 88 307 338
4 420 397 166 200
4 346 381 109 159
4 436 208 459 242
4 499 476 247 246
4 306 75 76 327
4 231 449 232 457
4 215 435 216 454
4 175 395 176 411
4 415 396 173 174
4 305 77 78 320
4 367 126 127 344
4 495 258 474 257
4 146 374 380 145
4 374 125 345 124
4 337 97 96 327
4 230 458 229 454
4 415 187 419 188
4 449 218 434 217
4 189 190 418 411
4 473 488 260 259
4 148 147 367 379
4 336 99 98 320
4 138 356 137 377
4 133 352 378 134
4 347 122 371 123
4 460 227 228 453
4 324 94 95 339
4 100 101 314 338
4 397 177 404 178
4 129 361 128 346
4 219 443 436 220
4 414 186 185 421
4 256 255 476 492
4 171 172 414 398
4 371 143 382 144
4 74 73 324 308
4 213 214 453 437
4 404 191 420 192
4 381 149 150 361
4 307 79 80 314
4 233 443 234 459
4 262 482 261 475
4 257 511 247 474
4 247 511 257 493
4 117 138 377 356
4 117 377 138 358
4 134 113 378 355
4 134 378 113 352
4 112 133 378 354
4 112 378 133 352
4 137 116 377 356
4 137 377 116 353
4 6 5 520 465
4 6 520 5 469
4 29 30 521 332
4 29 521 30 329
4 14 13 519 427
4 14 519 13 430
4 21 22 518 390
4 21 518 22 391
4 167 160 518 393
4 167 518 160 390
4 111 90 521 334
4 521 90 111 332
4 238 245 520 466
4 238 520 245 465
4 161 154 518 391
4 161 518 154 387
4 196 203 519 426
4 196 519 203 427
4 84 105 521 328
4 84 521 105 329
4 244 251 520 469
4 244 520 251 471
4 202 209 519 430
4 202 519 209 431
4 37 38 376 357
4 37 376 38 354
4 166 159 518 392
4 518 159 166 393
4 239 246 520 468
4 239 520 246 466
4 208 201 519 432
4 208 519 201 431
4 250 243 520 470
4 250 520 243 471
4 515 479 5 497
4 5 479 515 245
4 110 89 521 333
4 521 89 110 334
4 204 197 519 426
4 519 197 204 429
4 155 162 518 389
4 518 162 155 387
4 85 106 521 331
4 521 106 85 328
4 139 118 376 357
4 139 376 118 358
4 242 249 520 470
4 242 520 249 467
4 165 158 518 388
4 165 518 158 392
4 200 207 519 432
4 200 519 207 428
4 205 198 519 429
4 205 519 198 433
4 247 240 520 468
4 247 520 240 472
4 163 156 518 389
4 518 156 163 394
4 107 86 521 331
4 107 521 86 335
4 109 88 521 330
4 521 88 109 333
4 114 135 375 355
4 114 375 135 359
4 115 136 375 359
4 115 375 136 353
4 206 199 519 433
4 206 519 199 428
4 164 157 518 394
4 164 518 157 388
4 108 87 521 335
4 108 521 87 330
4 241 248 520 467
4 241 520 248 472

CELL_TYPES 2573
1
1
1
1
1
1
1
1
1
1
1
1
1
1
1
1
1
1
1
1
1
1
1
1
1
1
1
1
1
1
1
1
1
1
1
1
1
1
1
1
3
3
3
3
3
3
3
3
3
3
3
3
3
3
3
3
3
3
3
3
3
3
3
3
3
3
3
3
3
3
3
3
3
3
3
3
3
3
3
3
3
3
3
3
3
3
3
3
3
3
3
3
3
3
3
3
3
3
3
3
3
3
3
3
3
3
3
3
3
3
3
3
3
3
3
3
3
3
3
3
3
3
3
3
3
3
3
3
3
3
3
3
3
3
3
3
3
3
3
3
3
3
3
3
3
3
3
3
3
3
3
3
3
3
3
3
3
3
3
3
3
3
3
3
3
3
3
3
3
3
3
3
3
3
3
3
3
3
3
3
3
3
3
3
3
3
3
3
3
3
3
3
3
3
3
3
3
3
3
3
3
3
3
3
3
3
3
3
3
3
3
3
3
3
3
3
3
3
3
3
3
3
3
3
3
3
3
3
3
3
3
3
3
3
3
3
3
3
3
3
3
3
3
3
3
3
3
3
3
3
3
3
3
3
3
3
3
3
3
3
3
3
3
3
3
3
3
3
3
3
3
3
3
3
3
3
3
3
3
3
3
3
3
3
3
3
3
3
3
3
3
3
3
3
3
3
3
3
3
3
3
3
3
3
3
3
3
3
3
3
3
3
3
3
3
3
3
3
3
3
3
3
3
3
3
3
3
3
3
3
3
3
3
3
3
3
3
3
3
3
5
5
5
5
5
5
5
5
5
5
5
5
5
5
5
5
5
5
5
5
5
5
5
5
5
5
5
5
5
5
5
5
5
5
5
5
5
5
5
5
5
5
5
5
5
5
5
5
5
5
5
5
5
5
5
5
5
5
5
5
5
5
5
5
5
5
5
5
5
5
5
5
5
5
5
5
5
5
5
5
5
5
5
5
5
5
5
5
5
5
5
5
5
5
5
5
5
5
5
5
5
5
5
5
5
5
5
5
5
5
5
5
5
5
5
5
5
5
5
5
5
5
5
5
5
5
5
5
5
5
5
5
5
5
5
5
5
5
5
5
5
5
5
5
5
5
5
5
5
5
5
5
5
5
5
5
5
5
5
5
5
5
5
5
5
5
5
5
5
5
5
5
5
5
5
5
5
5
5
5
5
5
5
5
5
5
5
5
5
5
5
5
5
5
5
5
5
5
5
5
5
5
5
5
5
5
5
5
5
5
5
5
5
5
5
5
5
5
5
5
5
5
5
5
5
5
5
5
5
5
5
5
5
5
5
5
5
5
5
5
5
5
5
5
5
5
5
5
5
5
5
5
5
5
5
5
5
5
5
5
5
5
5
5
5
5
5
5
5
5
5
5
5
5
5
5
5
5
5
5
5
5
5
5
5
5
5
5
5
5
5
5
5
5
5
5
5
5
5
5
5
5
5
5
5
5
5
5
5
5
5
5
5
5
5
5
5
5
5
5
5
5
5
5
5
5
5
5
5
5
5
5
5
5
5
5
5
5
5
5
5
5
5
5
5
5
5
5
5
5
5
5
5
5
5
5
5
5
5
5
5
5
5
5
5
5
5
5
5
5
5
5
5
5
5
5
5
5
5
5
5
5
5
5
5
5
5
5
5
5
5
5
5
5
5
5
5
5
5
5
5
5
5
5
5
5
5
5
5
5
5
5
5
5
5
5
5
5
5
5
5
5
5
5
5
5
5
5
5
5
5
5
5
5
5
5
5
5
5
5
5
5
5
5
5
5
5
5
5
5
5
5
5
5
5
5
5
5
5
5
5
5
5
5
5
5
5
5
5
5
5
5
5
5
5
5
5
5
5
5
5
5
5
5
5
5
5
5
5
5
5
5
5
5
5
5
5
5
5
5
5
5
5
5
5
5
5
5
5
5
5
5
5
5
5
5
5
5
5
5
5
5
5
5
5
5
5
5
5
5
5
5
5
5
5
5
5
5
5
5
5
5
5
5
5
5
5
5
5
5
5
5
5
5
5
5
5
5
5
5
5
5
5
5
5
5
5
5
5
5
5
5
5
5
5
5
5
5
5
5
5
5
5
5
5
5
5
5
5
5
5
5
5
5
5
5
5
5
5
5
5
5
5
5
5
5
5
5
5
5
5
5
5
5
5
5
5
5
5
5
5
5
5
5
5
5
5
5
5
5
5
5
5
5
5
5
5
5
5
5
5
5
5
5
5
5
5
5
5
5
5
5
5
5
5
5
5
5
5
5
5
5
5
5
5
5
5
5
5
5
5
5
5
5
5
5
5
5
5
5
5
5
5
5
5
5
5
5
5
5
5
5
5
5
5
5
5
5
5
5
5
5
5
5
5
5
5
5
5
5
5
5
5
5
5
5
5
5
5
5
5
5
5
5
5
5
5
5
5
5
5
5
5
5
5
5
5
5
5
5
5
5
5
5
5
5
5
5
5
5
5
5
5
5
5
5
5
5
5
5
5
5
5
5
5
5
5
5
5
5
5
5
5
5
5
5
5
5
5
5
5
5
5
5
5
5
5
5
5
5
5
5
5
5
5
5
5
5
5
5
5
5
5
5
5
5
5
5
5
5
5
5
5
5
5
5
5
5
5
5
5
5
5
5
5
5
5
5
5
5
5
5
5
5
5
5
5
5
5
5
5
5
5
5
5
5
5
5
5
5
5
5
5
5
5
5
5
5
5
5
5
5
5
5
5
5
5
5
5
5
5
5
5
5
5
5
5
5
5
5
5
5
5
5
5
5
5
5
5
5
5
5
5
5
5
5
5
5
5
5
5
5
5
5
5
5
5
5
5
5
5
5
5
5
5
5
5
5
5
5
5
5
5
5
5
5
5
5
5
5
5
5
5
5
5
5
5
5
5
5
5
5
5
5
5
5
5
5
5
5
5
5
5
5
5
5
5
5
5
5
5
5
5
5
5
5
5
5
5
5
5
5
5
5
5
5
5
5
5
5
5
5
10
10
10
10
10
10
10
10
10
10
10
10
10
10
10
10
10
10
10
10
10
10
10
10
10
10
10
10
10
10
10
10
10
10
10
10
10
10
10
10
10
10
10
10
10
10
10
10
10
10
10
10
10
10
10
10
10
10
10
10
10
10
10
10
10
10
10
10
10
10
10
10
10
10
10
10
10
10
10
10
10
10
10
10
10
10
10
10
10
10
10
10
10
10
10
10
10
10
10
10
10
10
10
10
10
10
10
10
10
10
10
10
10
10
10
10
10
10
10
10
10
10
10
10
10
10
10
10
10
10
10
10
10
10
10
10
10
10
10
10
10
10
10
10
10
10
10
10
10
10
10
10
10
10
10
10
10
10
10
10
10
10
10
10
10
10
10
10
10
10
10
10
10
10
10
10
10
10
10
10
10
10
10
10
10
10
10
10
10
10
10
10
10
10
10
10
10
10
10
10
10
10
10
10
10
10
10
10
10
10
10
10
10
10
10
10
10
10
10
10
10
10
10
10
10
10
10
10
10
10
10
10
10
10
10
10
10
10
10
10
10
10
10
10
10
10
10
10
10
10
10
10
10
10
10
10
10
10
10
10
10
10
10
10
10
10
10
10
10
10
10
10
10
10
10
10
10
10
10
10
10
10
10
10
10
10
10
10
10
10
10
10
10
10
10
10
10
10
10
10
10
10
10
10
10
10
10
10
10
10
10
10
10
10
10
10
10
10
10
10
10
10
10
10
10
10
10
10
10
10
10
10
10
10
10
10
10
10
10
10
10
10
10
10
10
10
10
10
10
10
10
10
10
10
10
10
10
10
10
10
10
10
10
10
10
10
10
10
10
10
10
10
10
10
10
10
10
10
10
10
10
10
10
10
10
10
10
10
10
10
10
10
10
10
10
10
10
10
10
10
10
10
10
10
10
10
10
10
10
10
10
10
10
10
10
10
10
10
10
10
10
10
10
10
10
10
10
10
10
10
10
10
10
10
10
10
10
10
10
10
10
10
10
10
10
10
10
10
10
10
10
10
10
10
10
10
10
10
10
10
10
10
10
10
10
10
10
10
10
10
10
10
10
10
10
10
10
10
10
10
10
10
10
10
10
10
10
10
10
10
10
10
10
10
10
10
10
10
10
10
10
10
10
10
10
10
10
10
10
10
10
10
10
10
10
10
10
10
10
10
10
10
10
10
10
10
10
10
10
10
10
10
10
10
10
10
10
10
10
10
10
10
10
10
10
10
10
10
10
10
10
10
10
10
10
10
10
10
10
10
10
10
10
10
10
10
10
10
10
10
10
10
10
10
10
10
10
10
10
10
10
10
10
10
10
10
10
10
10
10
10
10
10
10
10
10
10
10
10
10
10
10
10
10
10
10
10
10
10
10
10
10
10
10
10
10
10
10
10
10
10
10
10
10
10
10
10
10
10
10
10
10
10
10
10
10
10
10
10
10
10
10
10
10
10
10
10
10
10
10
10
10
10
10
10
10
10
10
10
10
10
10
10
10
10
10
10
10
10
10
10
10
10
10
10
10
10
10
10
10
10
10
10
10
10
10
10
10
10
10
10
10
10
10
10
10
10
10
10
10
10
10
10
10
10
10
10
10
10
10
10
10
10
10
10
10
10
10
10
10
10
10
10
10
10
10
10
10
10
10
10
10
10
10
10
10
10
10
10
10
10
10
10
10
10
10
10
10
10
10
10
10
10
10
10
10
10
10
10
10
10
10
10
10
10
10
10
10
10
10
10
10
10
10
10
10
10
10
10
10
10
10
10
10
10
10
10
10
10
10
10
10
10
10
10
10
10
10
10
10
10
10
10
10
10
10
10
10
10
10
10
10
10
10
10
10
10
10
10
10
10
10
10
10
10
10
10
10
10
10
10
10
10
10
10
10
10
10
10
10
10
10
10
10
10
10
10
10
10
10
10
10
10
10
10
10
10
10
10
10
10
10
10
10
10
10
10
10
10
10
10
10
10
10
10
10
10
10
10
10
10
10
10
10
10
10
10
10
10
10
10
10
10
10
10
10
10
10
10
10
10
10
10
10
10
10
10
10
10
10
10
10
10
10
10
10
10
10
10
10
10
10
10
10
10
10
10
10
10
10
10
10
10
10
10
10
10
10
10
10
10
10
10
10
10
10
10
10
10
10
10
10
10
10
10
10
10
10
10
10
10
10
10
10
10
10
10
10
10
10
10
10
10
10
10
10
10
10
10
10
10
10
10
10
10
10
10
10
10
10
10
10
10
10
10
10
10
10
10
10
10
10
10
10
10
10
10
10
10
10
10
10
10
10
10
10
10
10
10
10
10
10
10
10
10
10
10
10
10
10
10
10
10
10
10
10
10
10
10
10
10
10
10
10
10
10
10
10
10
10
10
10
10
10
10
10
10
10
10
10
10
10
10
10
10
10
10
10
10
10
10
10
10
10
10
10
10
10
10
10
10
10
10
10
10
10
10
10
10
10
10
10
10
10
10
10
10
10
10
10
10
10
10
10
10
10
10
10
10
10
10
10
10
10
10
10
10
10
10
10
10
10
10
10
10
10
10
10
10
10
10
10
10
10
10
10
10
10
10
10
10
10
10
10
10
10
10
10
10
10
10
10
10
10
10
10
10
10
10
10
10
10
10
10
10
10
10
10
10
10
10
10
10
10
10
10
10
10
10
10
10
10
10
10
10
10
10
10
10
10
10
10
10
10
10
10
10
10
10
10
10
10
10
10
10
10
10
10
10
10
10
10
10
10
10
10
10
10
10
10
10
10
10
10
10
10
10
10
10
10
10
10
10
10
10
10
10
10
10
10
10
10
10
10
10
10
10
10
10
10
10
